<svg width="20" height="20" viewBox="0 0 20 20" fill="none" xmlns="http://www.w3.org/2000/svg">
<g clip-path="url(#clip0_7522_1291)">
<path d="M1.66797 9.99984H18.3346M1.66797 9.99984C1.66797 14.6022 5.39893 18.3332 10.0013 18.3332M1.66797 9.99984C1.66797 5.39746 5.39893 1.6665 10.0013 1.6665M18.3346 9.99984C18.3346 14.6022 14.6037 18.3332 10.0013 18.3332M18.3346 9.99984C18.3346 5.39746 14.6037 1.6665 10.0013 1.6665M10.0013 1.6665C12.0857 3.94846 13.2703 6.90987 13.3346 9.99984C13.2703 13.0898 12.0857 16.0512 10.0013 18.3332M10.0013 1.6665C7.9169 3.94846 6.73234 6.90987 6.66797 9.99984C6.73234 13.0898 7.9169 16.0512 10.0013 18.3332" stroke="#98A2B3" stroke-width="1.66667" stroke-linecap="round" stroke-linejoin="round"/>
</g>
<defs>
<clipPath id="clip0_7522_1291">
<rect width="20" height="20" fill="white"/>
</clipPath>
</defs>
</svg>
