<svg width="139" height="149" viewBox="0 0 139 149" fill="none" xmlns="http://www.w3.org/2000/svg">
<path d="M0.438957 45.6389C0.297351 45.6389 0.158789 45.5701 0.073817 45.4427C-0.0596895 45.2444 -0.00709348 44.9733 0.191147 44.8378L36.1193 20.2552L68.9807 0.0664281C69.182 -0.063039 69.452 0.00373042 69.5815 0.20601C69.71 0.40831 69.6513 0.677344 69.45 0.808842L0.678668 45.5681C0.60484 45.6166 0.521899 45.6389 0.438957 45.6389ZM40.7609 18.4326L36.5967 20.9916L32.0441 24.1069L40.7609 18.4326Z" fill="#D0D5DD"/>
<path d="M20.7338 124.181C20.5761 124.181 20.4243 124.096 20.3465 123.948L6.02415 97.0272C5.99784 96.9787 5.98166 96.9261 5.97559 96.8715L0.00290965 45.2505C-0.0233981 45.0219 0.131361 44.8115 0.358954 44.769C0.578448 44.7124 0.806021 44.8681 0.86367 45.0907L21.1587 123.633C21.2143 123.847 21.1 124.07 20.8926 124.151C20.8411 124.171 20.7874 124.181 20.7338 124.181ZM6.83836 96.6874L19.3835 120.269L1.60606 51.473L6.83836 96.6874Z" fill="#D0D5DD"/>
<path d="M132.04 51.758C131.942 51.758 131.845 51.7256 131.764 51.6609L68.9676 0.782287C68.7936 0.640681 68.7532 0.391862 68.8745 0.203731C68.9949 0.0155991 69.2407 -0.0551942 69.4379 0.0479653L117.904 24.0055C117.987 24.0459 118.054 24.1106 118.097 24.1915L132.428 51.1126C132.526 51.2967 132.48 51.5253 132.32 51.6568C132.239 51.7236 132.139 51.758 132.04 51.758ZM72.5815 2.58067L130.637 49.6177L117.389 24.7297L72.5815 2.58067Z" fill="#D0D5DD"/>
<path d="M69.2197 148.141C69.1529 148.141 69.0872 148.125 69.0255 148.095L20.5491 124.135C20.363 124.044 20.2669 123.834 20.3185 123.633C20.3711 123.431 20.5441 123.316 20.7636 123.304L102.075 127.085C102.267 127.095 102.432 127.228 102.48 127.414C102.528 127.6 102.448 127.797 102.284 127.898L69.4493 148.076C69.3795 148.119 69.2996 148.141 69.2197 148.141ZM22.8179 124.279L69.1964 147.201L100.611 127.896L22.8179 124.279Z" fill="#D0D5DD"/>
<path d="M102.048 127.962C101.951 127.962 101.854 127.93 101.775 127.867C101.624 127.746 101.57 127.542 101.639 127.364L131.601 51.1599C131.674 50.9738 131.858 50.8606 132.066 50.8849C132.266 50.9112 132.422 51.0689 132.446 51.2692L138.417 102.892C138.435 103.054 138.364 103.214 138.229 103.305L102.296 127.885C102.221 127.936 102.134 127.962 102.048 127.962ZM131.776 53.1141L102.979 126.354L137.515 102.73L131.776 53.1141Z" fill="#D0D5DD"/>
<path d="M102.045 127.962C101.899 127.962 101.763 127.889 101.681 127.768L59.1842 64.4222C59.1012 64.2988 59.0861 64.143 59.1447 64.0055C59.2024 63.8699 59.3258 63.7708 59.4714 63.7445L131.93 50.8868C132.082 50.8605 132.246 50.9191 132.346 51.0426C132.446 51.1639 132.473 51.3319 132.415 51.4796L102.453 127.683C102.394 127.835 102.254 127.942 102.092 127.96C102.076 127.962 102.06 127.962 102.045 127.962ZM60.2877 64.491L101.943 126.583L131.312 51.8882L60.2877 64.491Z" fill="#D0D5DD"/>
<path d="M20.734 124.18C20.7107 124.18 20.6865 124.178 20.6632 124.174C20.4912 124.146 20.3527 124.021 20.3092 123.851L0.0141925 45.3087C-0.0262634 45.1549 0.0212756 44.989 0.137589 44.8798C0.254917 44.7726 0.420801 44.7342 0.573531 44.7807L59.6834 63.7577C59.8129 63.8002 59.9171 63.9014 59.9626 64.0288C60.0081 64.1583 59.9909 64.3019 59.9171 64.4152L21.1022 123.98C21.0203 124.108 20.8807 124.18 20.734 124.18ZM1.06308 45.8609L20.91 122.667L58.8671 64.4192L1.06308 45.8609Z" fill="#D0D5DD"/>
<path d="M102.055 127.962H102.035L20.7231 124.181C20.5654 124.173 20.4248 124.082 20.3529 123.942C20.2811 123.802 20.2902 123.635 20.3752 123.503L59.1911 63.9381C59.271 63.8147 59.4075 63.7398 59.5552 63.7378H59.5582C59.7049 63.7378 59.8414 63.8106 59.9223 63.932L102.419 127.278C102.512 127.415 102.518 127.593 102.437 127.739C102.359 127.877 102.213 127.962 102.055 127.962ZM21.5293 123.339L101.205 127.043L59.5633 64.9717L21.5293 123.339Z" fill="#D0D5DD"/>
<path d="M59.5483 64.6158C59.435 64.6158 59.3247 64.5713 59.2418 64.4904C59.1406 64.3933 59.0931 64.2517 59.1144 64.1101L68.7758 0.37382C68.7991 0.220075 68.9043 0.0885796 69.051 0.0319455C69.1996 -0.0246886 69.3655 0.00162291 69.4859 0.0987336L132.283 50.9773C132.416 51.0865 132.475 51.2625 132.431 51.4284C132.389 51.5943 132.252 51.7217 132.083 51.7521L59.6251 64.6098C59.5998 64.6138 59.5736 64.6158 59.5483 64.6158ZM69.5284 1.26391L60.0742 63.6388L130.983 51.0541L69.5284 1.26391Z" fill="#D0D5DD"/>
<path d="M59.5486 64.6157C59.5031 64.6157 59.4586 64.6096 59.4141 64.5954L0.304239 45.6184C0.143409 45.5658 0.0260801 45.4262 0.00383241 45.2583C-0.0184152 45.0904 0.0574426 44.9245 0.199049 44.8315L68.9704 0.0722294C69.116 -0.0208213 69.3022 -0.0208213 69.4478 0.0722294C69.5935 0.16528 69.6703 0.335205 69.6441 0.507158L59.9826 64.2434C59.9633 64.3689 59.8895 64.4821 59.7803 64.5489C59.7095 64.5934 59.6296 64.6157 59.5486 64.6157ZM1.45225 45.0641L59.1916 63.6022L68.6295 1.34263L1.45225 45.0641Z" fill="#D0D5DD"/>
</svg>
