<svg width="242" height="242" viewBox="0 0 242 242" fill="none" xmlns="http://www.w3.org/2000/svg">
<path d="M2.53729 84.2509L134.15 7.21538C135.099 6.68116 135.942 6.68116 136.679 7.0017L139.524 8.71123L137.838 9.45914L155.12 102.949C155.436 104.658 154.382 106.795 152.801 107.757L21.294 184.685L21.5047 186.715L18.6596 185.113C18.1328 184.792 17.7112 184.258 17.5005 183.51L0.00831604 89.1658C-0.0970612 87.3494 0.95668 85.2125 2.53729 84.2509Z" fill="url(#paint0_linear_686_22591)"/>
<path d="M23.7185 188.105L30.3571 191.417L156.174 117.8C157.65 116.946 160.179 117.052 161.97 118.014L234.994 160.752L241.949 156.906L239.42 164.919C239.315 165.347 238.999 165.667 238.472 165.881L109.388 241.42C107.913 242.275 105.384 242.168 103.592 241.207L27.4066 196.652C26.669 196.225 26.2475 195.691 26.0367 195.156L23.7185 188.105Z" fill="url(#paint1_linear_686_22591)"/>
<path d="M2.53728 84.2509L134.15 7.21538C135.099 6.68116 135.942 6.68116 136.679 7.0017L139.524 8.71123L137.838 9.45914L155.12 102.949C155.436 104.658 154.382 106.795 152.801 107.757L86.7316 146.435L0.956665 85.9604C1.37816 85.2125 1.90503 84.5714 2.53728 84.2509Z" fill="url(#paint2_linear_686_22591)"/>
<path d="M24.1378 186.502L155.751 109.36C157.331 108.398 158.385 106.261 158.069 104.551L140.577 10.2071C140.261 8.49755 138.68 7.85647 137.099 8.81808L5.48653 85.8536C3.90591 86.8152 2.85216 88.9521 3.16827 90.6616L20.6605 185.006C20.8712 186.822 22.4518 187.357 24.1378 186.502Z" fill="url(#paint3_linear_686_22591)"/>
<path d="M24.6666 182.976L154.172 107.223C154.699 106.902 155.12 106.154 155.015 105.513L137.839 12.8782C137.734 12.2371 137.207 12.0234 136.574 12.344L7.06909 88.0973C6.54222 88.4178 6.12071 89.1657 6.22609 89.8068L23.4022 182.442C23.5075 183.083 24.1398 183.296 24.6666 182.976Z" fill="white"/>
<path d="M108.858 235.437L240.892 158.081C242.367 157.226 242.262 155.624 240.47 154.662L162.493 109.039C160.702 107.971 158.067 107.864 156.592 108.825L24.5579 186.181C23.0826 187.036 23.188 188.639 24.9794 189.6L102.957 235.223C104.748 236.185 107.382 236.292 108.858 235.437Z" fill="url(#paint4_linear_686_22591)"/>
<path d="M108.858 235.437L240.892 158.081C242.367 157.226 242.262 155.624 240.47 154.662L162.493 109.039C160.702 107.971 158.067 107.864 156.592 108.825L24.5579 186.181C23.0826 187.036 23.188 188.639 24.9794 189.6L102.957 235.223C104.748 236.185 107.382 236.292 108.858 235.437Z" fill="url(#paint5_linear_686_22591)"/>
<path d="M240.577 156.051L162.6 110.428C160.809 109.36 158.175 109.253 156.699 110.214L24.6649 187.57C24.2434 187.784 24.0327 188.105 23.822 188.425C23.4005 187.57 23.7166 186.822 24.6649 186.181L156.699 108.825C158.175 107.971 160.809 108.077 162.6 109.039L240.577 154.662C241.842 155.41 242.263 156.478 241.842 157.333C241.526 156.906 241.104 156.371 240.577 156.051Z" fill="#A9EBFF"/>
<path d="M91.7876 101.987L85.4651 68.2241L91.2607 67.1556L100.007 114.274C100.955 119.082 103.8 123.249 108.015 125.707L151.324 151.029L148.374 156.158L109.385 133.4L87.7834 144.832C87.7834 144.832 74.7169 132.652 74.6115 132.331C74.5062 132.011 71.8718 112.031 71.8718 112.031L91.7876 101.987Z" fill="url(#paint6_linear_686_22591)"/>
<path d="M125.405 169.513L128.355 164.385L85.1519 139.063C80.9369 136.605 77.9864 132.438 77.1434 127.63L68.3973 80.5113L62.6017 81.5798L71.3478 128.699C72.6123 135.216 76.5112 140.879 82.2014 144.191L125.405 169.513Z" fill="white"/>
<path d="M16.0262 57.3259C16.0262 57.219 16.0262 57.219 16.1316 57.1122V57.0053C16.1316 57.0053 16.1316 56.8985 16.237 56.8985C16.8692 55.2958 17.923 53.9068 19.2928 53.1589L19.6089 52.9452L64.1824 26.875L108.756 0.804698L109.072 0.591002C110.336 -0.156915 111.706 -0.156912 112.76 0.377315H112.865H112.971L118.872 3.79636L115.5 5.2922L127.302 68.6515C127.618 70.2542 127.302 72.0705 126.67 73.6732C126.67 73.6732 126.67 73.7801 126.564 73.7801C126.564 73.7801 126.564 73.8869 126.459 73.8869C125.827 75.4896 124.773 76.8786 123.403 77.6265L34.4668 129.66L35.3098 133.613L29.7249 130.301H29.6195C28.5658 129.66 27.7228 128.592 27.4067 126.882L15.394 62.0271C15.1832 60.6381 15.394 58.9286 16.0262 57.3259Z" fill="white"/>
<path d="M39.4214 133.72L129.306 81.0456C132.046 79.4429 133.626 75.1691 132.994 71.5363L121.087 7.64282C120.454 4.01008 117.609 2.30055 114.975 3.90323L25.0905 56.578C22.3508 58.1807 20.7702 62.4545 21.4024 66.0872L33.3097 129.981C33.942 133.613 36.6817 135.323 39.4214 133.72Z" fill="url(#paint7_linear_686_22591)"/>
<path d="M25.4078 56.2574L69.9813 30.1872L83.9961 105.299L39.8441 133.507C36.8937 135.216 34.0485 133.827 33.4163 130.408L21.4036 65.553C20.666 62.1339 22.4573 57.967 25.4078 56.2574Z" fill="url(#paint8_linear_686_22591)"/>
<path d="M114.554 4.01007L69.9805 30.0803L83.89 104.765L128.99 81.2592C131.941 79.5497 133.732 75.3828 133.1 71.9637L121.087 7.10859C120.35 3.68954 117.504 2.30055 114.554 4.01007Z" fill="url(#paint9_linear_686_22591)"/>
<path d="M132.574 76.8786C131.837 78.695 130.572 80.4045 128.991 81.2593L39.8446 133.507C38.264 134.468 36.6833 134.468 35.5242 133.72L75.4612 59.0354L132.574 76.8786Z" fill="url(#paint10_linear_686_22591)"/>
<path d="M21.825 60.745C22.5626 58.9286 23.8271 57.2191 25.4077 56.3643L114.555 4.11694C116.135 3.15533 117.716 3.15534 118.875 3.90325L78.938 78.5881L21.825 60.745Z" fill="url(#paint11_linear_686_22591)"/>
<path d="M129.512 200.178L173.242 174.535L129.512 148.892L85.7813 174.535L129.512 200.178Z" fill="url(#paint12_linear_686_22591)"/>
<path d="M129.516 188.211L173.246 162.569V142.909L129.516 168.552V188.211Z" fill="url(#paint13_linear_686_22591)"/>
<path d="M129.516 168.552L173.246 142.909L129.516 117.266L85.7852 142.909L129.516 168.552Z" fill="url(#paint14_linear_686_22591)"/>
<path d="M129.516 167.483L172.403 142.375L173.246 142.909L129.516 168.552L85.7852 142.909L86.6282 142.375L129.516 167.483Z" fill="#A9EBFF"/>
<path d="M129.516 127.096L160.18 145.046L129.516 162.996L98.8517 145.046L129.516 127.096Z" fill="white"/>
<path d="M129.515 127.096L98.851 145.046L95.2682 142.909L129.515 122.822L163.762 142.909L160.179 145.046L129.515 127.096Z" fill="#2573BA"/>
<path d="M85.7852 162.569L129.516 188.211V168.552L85.7852 142.909V162.569Z" fill="url(#paint15_linear_686_22591)"/>
<path d="M129.516 155.41L173.246 129.874V121.86L129.516 147.396V155.41Z" fill="url(#paint16_linear_686_22591)"/>
<path d="M129.516 147.396L173.246 121.86L129.516 96.2176L85.7852 121.86L129.516 147.396Z" fill="url(#paint17_linear_686_22591)"/>
<path d="M129.516 146.435L172.403 121.326L173.246 121.86L129.516 147.396L85.7852 121.86L86.6282 121.326L129.516 146.435Z" fill="#A9EBFF"/>
<path d="M85.7852 129.874L129.516 155.41V147.396L85.7852 121.86V129.874Z" fill="url(#paint18_linear_686_22591)"/>
<path opacity="0.5" d="M173.246 162.569V174.535L129.516 200.178V188.211L173.246 162.569Z" fill="white"/>
<path opacity="0.5" d="M85.7852 162.569V174.535L129.516 200.178V188.211L85.7852 162.569Z" fill="white"/>
<path opacity="0.5" d="M85.7852 162.569V174.535L129.516 200.178V188.211L85.7852 162.569Z" fill="white"/>
<path d="M116.975 174.963L98.4293 164.064C96.7434 163.103 95.4789 160.538 95.4789 158.295C95.4789 156.051 96.8487 155.089 98.4293 156.051L116.975 166.949C118.661 167.911 119.926 170.475 119.926 172.719C119.926 174.963 118.556 175.924 116.975 174.963Z" fill="white"/>
<path d="M101.485 162.034C99.7992 161.073 98.5346 158.508 98.5346 156.265V156.158L98.3239 156.051C96.6379 155.089 95.3734 156.158 95.3734 158.295C95.3734 160.538 96.7433 163.103 98.3239 164.064L116.87 174.963C118.45 175.924 119.82 174.963 119.82 172.826L101.485 162.034Z" fill="#A9EBFF"/>
<path d="M144.793 169.407C144.793 171.009 143.634 173.039 142.264 173.787C140.894 174.642 139.735 173.894 139.735 172.291C139.735 170.689 140.894 168.659 142.264 167.911C143.634 167.163 144.793 167.804 144.793 169.407Z" fill="white"/>
<path d="M153.855 164.064C153.855 165.667 152.696 167.697 151.326 168.445C149.957 169.3 148.798 168.552 148.798 166.949C148.798 165.347 149.957 163.316 151.326 162.569C152.802 161.821 153.855 162.462 153.855 164.064Z" fill="white"/>
<path d="M163.023 158.722C163.023 160.325 161.864 162.355 160.494 163.103C159.125 163.957 157.965 163.21 157.965 161.607C157.965 160.004 159.125 157.974 160.494 157.226C161.864 156.478 163.023 157.119 163.023 158.722Z" fill="white"/>
<path d="M143.528 167.59C143.634 167.911 143.739 168.231 143.739 168.552C143.739 170.155 142.58 172.185 141.21 172.933C140.789 173.146 140.367 173.253 139.946 173.253C140.367 174.108 141.21 174.322 142.264 173.68C143.634 172.826 144.793 170.902 144.793 169.3C144.793 168.338 144.266 167.697 143.528 167.59Z" fill="#A9EBFF"/>
<path d="M152.591 162.248C152.696 162.569 152.802 162.889 152.802 163.21C152.802 164.812 151.643 166.842 150.273 167.59C149.851 167.804 149.43 167.911 149.008 167.911C149.43 168.766 150.273 168.979 151.326 168.338C152.696 167.483 153.855 165.56 153.855 163.958C153.855 162.996 153.329 162.355 152.591 162.248Z" fill="#A9EBFF"/>
<path d="M161.759 156.906C161.864 157.226 161.97 157.547 161.97 157.867C161.97 159.47 160.811 161.5 159.441 162.248C159.019 162.462 158.598 162.569 158.176 162.569C158.598 163.423 159.441 163.637 160.494 162.996C161.864 162.141 163.023 160.218 163.023 158.615C163.023 157.654 162.497 157.013 161.759 156.906Z" fill="#A9EBFF"/>
<defs>
<linearGradient id="paint0_linear_686_22591" x1="58.9027" y1="-1.91818" x2="83.6899" y2="117.767" gradientUnits="userSpaceOnUse">
<stop stop-color="#2573BA"/>
<stop offset="1" stop-color="#0063AD"/>
</linearGradient>
<linearGradient id="paint1_linear_686_22591" x1="236.439" y1="179.712" x2="71.5779" y2="179.712" gradientUnits="userSpaceOnUse">
<stop stop-color="#3A9BD5"/>
<stop offset="0.3053" stop-color="#3A9BD5"/>
<stop offset="0.3555" stop-color="#3A9BD5"/>
<stop offset="0.5988" stop-color="#3999D4"/>
<stop offset="0.6883" stop-color="#3592CF"/>
<stop offset="0.7522" stop-color="#2F86C7"/>
<stop offset="0.8039" stop-color="#2676BC"/>
<stop offset="0.8102" stop-color="#2573BA"/>
</linearGradient>
<linearGradient id="paint2_linear_686_22591" x1="35.2906" y1="124.554" x2="163.101" y2="40.7618" gradientUnits="userSpaceOnUse">
<stop stop-color="#59BDEF"/>
<stop offset="1" stop-color="#7BDAFF"/>
</linearGradient>
<linearGradient id="paint3_linear_686_22591" x1="158.725" y1="47.5776" x2="1.97114" y2="145.343" gradientUnits="userSpaceOnUse">
<stop stop-color="#3A9BD5"/>
<stop offset="1" stop-color="#2573BA"/>
</linearGradient>
<linearGradient id="paint4_linear_686_22591" x1="97.4748" y1="239.472" x2="174.025" y2="97.4506" gradientUnits="userSpaceOnUse">
<stop stop-color="#59BDEF"/>
<stop offset="1" stop-color="#7BDAFF"/>
</linearGradient>
<linearGradient id="paint5_linear_686_22591" x1="97.4748" y1="239.472" x2="174.025" y2="97.4506" gradientUnits="userSpaceOnUse">
<stop stop-color="#59BDEF"/>
<stop offset="1" stop-color="#7BDAFF"/>
</linearGradient>
<linearGradient id="paint6_linear_686_22591" x1="119.005" y1="155.199" x2="85.932" y2="82.1268" gradientUnits="userSpaceOnUse">
<stop stop-color="#2573BA"/>
<stop offset="0.2084" stop-color="#3F98D5"/>
<stop offset="0.3955" stop-color="#52B3E8"/>
<stop offset="0.5057" stop-color="#59BDEF"/>
<stop offset="0.6418" stop-color="#3F98D5"/>
<stop offset="0.796" stop-color="#2573BA"/>
</linearGradient>
<linearGradient id="paint7_linear_686_22591" x1="127.059" y1="39.5621" x2="20.1257" y2="59.4557" gradientUnits="userSpaceOnUse">
<stop stop-color="#7BDAFF"/>
<stop offset="1" stop-color="#59BDEF"/>
</linearGradient>
<linearGradient id="paint8_linear_686_22591" x1="17.3626" y1="183.274" x2="72.6533" y2="80.2968" gradientUnits="userSpaceOnUse">
<stop offset="0.7677" stop-color="#59BDEF"/>
<stop offset="0.8452" stop-color="#55B8EB"/>
<stop offset="0.9318" stop-color="#49ABE1"/>
<stop offset="1" stop-color="#3A9BD5"/>
</linearGradient>
<linearGradient id="paint9_linear_686_22591" x1="163.721" y1="97.4382" x2="87.864" y2="65.6524" gradientUnits="userSpaceOnUse">
<stop offset="0.7677" stop-color="#59BDEF"/>
<stop offset="0.8452" stop-color="#55B8EB"/>
<stop offset="0.9318" stop-color="#49ABE1"/>
<stop offset="1" stop-color="#3A9BD5"/>
</linearGradient>
<linearGradient id="paint10_linear_686_22591" x1="98.6215" y1="184.043" x2="43.6198" y2="90.1283" gradientUnits="userSpaceOnUse">
<stop offset="0.7677" stop-color="#3A9BD5"/>
<stop offset="0.8386" stop-color="#3896D2"/>
<stop offset="0.9179" stop-color="#3189C9"/>
<stop offset="1" stop-color="#2573BA"/>
</linearGradient>
<linearGradient id="paint11_linear_686_22591" x1="100.297" y1="-5.59551" x2="-0.928781" y2="70.3371" gradientUnits="userSpaceOnUse">
<stop stop-color="#7BDAFF"/>
<stop offset="1" stop-color="#59BDEF"/>
</linearGradient>
<linearGradient id="paint12_linear_686_22591" x1="162.295" y1="160.245" x2="100.292" y2="186.516" gradientUnits="userSpaceOnUse">
<stop stop-color="#3A9BD5"/>
<stop offset="1" stop-color="#2573BA"/>
</linearGradient>
<linearGradient id="paint13_linear_686_22591" x1="177.098" y1="147.563" x2="121.742" y2="185.2" gradientUnits="userSpaceOnUse">
<stop stop-color="#3A9BD5"/>
<stop offset="1" stop-color="#2573BA"/>
</linearGradient>
<linearGradient id="paint14_linear_686_22591" x1="162.299" y1="128.629" x2="100.296" y2="154.9" gradientUnits="userSpaceOnUse">
<stop stop-color="#7BDAFF"/>
<stop offset="1" stop-color="#59BDEF"/>
</linearGradient>
<linearGradient id="paint15_linear_686_22591" x1="135.119" y1="157.145" x2="76.4176" y2="174.598" gradientUnits="userSpaceOnUse">
<stop stop-color="#2573BA"/>
<stop offset="1" stop-color="#0063AD"/>
</linearGradient>
<linearGradient id="paint16_linear_686_22591" x1="174.366" y1="122.585" x2="124.891" y2="156.223" gradientUnits="userSpaceOnUse">
<stop stop-color="#3A9BD5"/>
<stop offset="1" stop-color="#2573BA"/>
</linearGradient>
<linearGradient id="paint17_linear_686_22591" x1="162.299" y1="107.562" x2="100.296" y2="133.833" gradientUnits="userSpaceOnUse">
<stop stop-color="#7BDAFF"/>
<stop offset="1" stop-color="#59BDEF"/>
</linearGradient>
<linearGradient id="paint18_linear_686_22591" x1="132.853" y1="130.949" x2="78.9939" y2="146.963" gradientUnits="userSpaceOnUse">
<stop stop-color="#2573BA"/>
<stop offset="1" stop-color="#0063AD"/>
</linearGradient>
</defs>
</svg>
