<svg width="1440" height="479" viewBox="0 0 1440 479" fill="none" xmlns="http://www.w3.org/2000/svg">
<g opacity="0.2">
<path d="M56.2422 11.2752V0H44.9669V11.2752H56.2422ZM54.7873 1.45487V9.75975H46.4824V1.45487H54.7873Z" fill="white"/>
<path d="M86.7344 11.2752V0H75.4591V11.2752H86.7344ZM85.2795 1.45487V9.75975H76.9746V1.45487H85.2795Z" fill="white"/>
<path d="M86.7344 26.4907V15.2761H75.4591V26.5513H86.7344V26.4907ZM85.2795 16.7309V25.0358H76.9746V16.7309H85.2795Z" fill="white"/>
<path d="M56.2422 41.7669V30.4916H44.9669V41.7669H56.2422ZM54.7873 32.0071V40.312H46.4824V32.0071H54.7873Z" fill="white"/>
<path d="M45.7559 46.4952H55.5156V56.255H45.7559V46.4952Z" fill="white"/>
<path d="M76.2461 46.4952H86.0059V56.255H76.2461V46.4952Z" fill="white"/>
<path d="M45.7559 61.7713H55.5156V71.531H45.7559V61.7713Z" fill="white"/>
<path d="M60.9707 61.7714H70.7305V71.5311H60.9707V61.7714Z" fill="white"/>
<path d="M76.2461 61.7713H86.0059V71.531H76.2461V61.7713Z" fill="white"/>
<path d="M60.9707 77.0474H70.7305V86.8072H60.9707V77.0474Z" fill="white"/>
<path d="M-0.0136766 92.2629H9.74609V102.023H-0.0136766V92.2629Z" fill="white"/>
<path d="M15.2032 92.2629H24.9629V102.023H15.2032V92.2629Z" fill="white"/>
<path d="M45.7559 92.2629H55.5156V102.023H45.7559V92.2629Z" fill="white"/>
<path d="M60.9707 92.2629H70.7305V102.023H60.9707V92.2629Z" fill="white"/>
<path d="M76.2461 92.2629H86.0059V102.023H76.2461V92.2629Z" fill="#999999"/>
<path d="M-0.0136766 107.539H9.74609V117.299H-0.0136766V107.539Z" fill="white"/>
<path d="M60.9707 107.539H70.7305V117.299H60.9707V107.539Z" fill="white"/>
<path d="M76.2461 107.539H86.0059V117.299H76.2461V107.539Z" fill="white"/>
<path d="M167.783 107.539H177.543V117.299H167.783V107.539Z" fill="white"/>
<path d="M183.057 107.539H192.816V117.299H183.057V107.539Z" fill="white"/>
<path d="M91.5235 122.755H101.283V132.514H91.5235V122.755Z" fill="white"/>
<path d="M106.738 122.755H116.498V132.514H106.738V122.755Z" fill="white"/>
<path d="M137.291 122.755H147.051V132.514H137.291V122.755Z" fill="white"/>
<path d="M152.508 122.755H162.268V132.514H152.508V122.755Z" fill="white"/>
<path d="M167.783 122.755H177.543V132.514H167.783V122.755Z" fill="white"/>
<path d="M106.738 138.031H116.498V147.791H106.738V138.031Z" fill="white"/>
<path d="M122.016 138.031H131.775V147.791H122.016V138.031Z" fill="white"/>
<path d="M137.291 138.031H147.051V147.791H137.291V138.031Z" fill="white"/>
<path d="M71.5176 163.794V152.519H60.2424V163.794H71.5176ZM70.0021 154.034V162.339H61.6972V154.034H70.0021Z" fill="white"/>
<path d="M76.2461 153.307H86.0059V163.067H76.2461V153.307Z" fill="white"/>
<path d="M91.5235 153.307H101.283V163.067H91.5235V153.307Z" fill="white"/>
<path d="M106.738 153.307H116.498V163.067H106.738V153.307Z" fill="white"/>
<path d="M56.2422 179.07V167.795H44.9669V179.07H56.2422ZM54.7873 169.31V177.615H46.4824V169.31H54.7873Z" fill="white"/>
<path d="M76.2461 168.522H86.0059V178.282H76.2461V168.522Z" fill="white"/>
<path d="M91.5235 168.522H101.283V178.282H91.5235V168.522Z" fill="white"/>
<path d="M106.738 168.522H116.498V178.282H106.738V168.522Z" fill="white"/>
<path d="M132.5 179.07V167.795H121.225V179.07H132.5ZM131.045 169.31V177.615H122.74V169.31H131.045Z" fill="#ABABAB"/>
<path d="M137.291 168.522H147.051V178.282H137.291V168.522Z" fill="white"/>
<path d="M152.508 168.522H162.268V178.282H152.508V168.522Z" fill="white"/>
<path d="M167.783 168.522H177.543V178.282H167.783V168.522Z" fill="white"/>
<path d="M183.057 168.522H192.816V178.282H183.057V168.522Z" fill="white"/>
<path d="M56.2422 194.286V183.01H44.9669V194.286H56.2422ZM54.7873 184.526V192.831H46.4824V184.526H54.7873Z" fill="white"/>
<path d="M71.5176 194.286V183.01H60.2424V194.286H71.5176ZM70.0021 184.526V192.831H61.6972V184.526H70.0021Z" fill="white"/>
<path d="M76.2461 183.798H86.0059V193.558H76.2461V183.798Z" fill="white"/>
<path d="M106.738 183.799H116.498V193.558H106.738V183.799Z" fill="white"/>
<path d="M116.619 193.679V183.738H106.678V193.679H116.619ZM116.437 183.92V193.498H106.859V183.92H116.437Z" fill="white"/>
<path d="M137.291 183.799H147.051V193.558H137.291V183.799Z" fill="white"/>
<path d="M147.111 193.679V183.738H137.17V193.679H147.111ZM146.929 183.92V193.498H137.352V183.92H146.929Z" fill="white"/>
<path d="M152.506 183.799H162.266V193.558H152.506V183.799Z" fill="white"/>
<path d="M162.387 193.679V183.738H152.445V193.679H162.387ZM162.205 183.92V193.498H152.627V183.92H162.205Z" fill="white"/>
<path d="M56.2422 209.562V198.287H44.9669V209.562H56.2422ZM54.7873 199.802V208.107H46.4824V199.802H54.7873Z" fill="white"/>
<path d="M71.5176 209.562V198.287H60.2424V209.562H71.5176ZM70.0021 199.802V208.107H61.6972V199.802H70.0021Z" fill="white"/>
<path d="M76.2461 199.075H86.0059V208.834H76.2461V199.075Z" fill="white"/>
<path d="M91.5235 199.075H101.283V208.834H91.5235V199.075Z" fill="white"/>
<path d="M101.344 208.895V198.953H91.4021V208.895H101.344ZM101.162 199.135V208.713H91.584V199.135H101.162Z" fill="white"/>
<path d="M106.738 199.075H116.498V208.834H106.738V199.075Z" fill="white"/>
<path d="M116.619 208.895V198.953H106.678V208.895H116.619ZM116.437 199.135V208.713H106.859V199.135H116.437Z" fill="white"/>
<path d="M122.014 199.075H131.773V208.834H122.014V199.075Z" fill="white"/>
<path d="M131.895 208.895V198.953H121.953V208.895H131.895ZM131.652 199.135V208.713H122.074V199.135H131.652Z" fill="white"/>
<path d="M137.291 199.075H147.051V208.834H137.291V199.075Z" fill="white"/>
<path d="M147.111 208.895V198.953H137.17V208.895H147.111ZM146.929 199.135V208.713H137.352V199.135H146.929Z" fill="white"/>
<path d="M244.043 199.075H253.803V208.834H244.043V199.075Z" fill="white"/>
<path d="M106.738 214.29H116.498V224.05H106.738V214.29Z" fill="white"/>
<path d="M116.619 224.171V214.229H106.678V224.171H116.619ZM116.437 214.411V223.989H106.859V214.411H116.437Z" fill="white"/>
<path d="M122.014 214.29H131.773V224.05H122.014V214.29Z" fill="white"/>
<path d="M131.895 224.171V214.23H121.953V224.171H131.895ZM131.652 214.411V223.989H122.074V214.411H131.652Z" fill="white"/>
<path d="M213.549 214.29H223.309V224.05H213.549V214.29Z" fill="white"/>
<path d="M226.461 211.987H236.221V221.746H226.461V211.987Z" fill="white"/>
<path d="M244.043 214.29H253.803V224.05H244.043V214.29Z" fill="white"/>
<path d="M132.5 240.053V228.839H121.225V240.114H132.5V240.053ZM131.045 230.294V238.598H122.74V230.294H131.045Z" fill="white"/>
<path d="M147.779 240.053V228.839H136.504V240.114H147.779V240.053ZM146.324 230.294V238.598H138.02V230.294H146.324Z" fill="white"/>
<path d="M167.783 229.566H177.543V239.326H167.783V229.566Z" fill="white"/>
<path d="M208.76 240.053V228.839H197.485V240.114H208.76V240.053ZM207.305 230.294V238.598H199V230.294H207.305Z" fill="#ABABAB"/>
<path d="M213.549 229.566H223.309V239.326H213.549V229.566Z" fill="white"/>
<path d="M228.824 229.566H238.584V239.326H228.824V229.566Z" fill="white"/>
<path d="M15.2032 244.842H24.9629V254.602H15.2032V244.842Z" fill="white"/>
<path d="M71.5176 255.33V244.054H60.2424V255.33H71.5176ZM70.0021 245.57V253.875H61.6972V245.57H70.0021Z" fill="white"/>
<path d="M91.5235 244.842H101.283V254.602H91.5235V244.842Z" fill="white"/>
<path d="M106.738 244.842H116.498V254.602H106.738V244.842Z" fill="white"/>
<path d="M132.5 255.33V244.054H121.225V255.33H132.5ZM131.045 245.57V253.875H122.74V245.57H131.045Z" fill="white"/>
<path d="M147.779 255.33V244.054H136.504V255.33H147.779ZM146.324 245.57V253.875H138.02V245.57H146.324Z" fill="white"/>
<path d="M162.994 255.33V244.054H151.719V255.33H162.994ZM161.539 245.57V253.875H153.234V245.57H161.539Z" fill="white"/>
<path d="M167.783 244.842H177.543V254.602H167.783V244.842Z" fill="white"/>
<path d="M183.057 244.842H192.816V254.602H183.057V244.842Z" fill="white"/>
<path d="M198.275 244.842H208.035V254.602H198.275V244.842Z" fill="white"/>
<path d="M213.549 244.842H223.309V254.602H213.549V244.842Z" fill="white"/>
<path d="M244.043 244.842H253.803V254.602H244.043V244.842Z" fill="white"/>
<path d="M28.1758 257.754H37.9355V267.514H28.1758V257.754Z" fill="white"/>
<path d="M60.9707 260.058H70.7305V269.818H60.9707V260.058Z" fill="white"/>
<path d="M76.2461 260.058H86.0059V269.818H76.2461V260.058Z" fill="white"/>
<path d="M91.5235 260.058H101.283V269.818H91.5235V260.058Z" fill="white"/>
<path d="M106.738 260.058H116.498V269.818H106.738V260.058Z" fill="white"/>
<path d="M122.016 260.058H131.775V269.818H122.016V260.058Z" fill="#999999"/>
<path d="M137.291 260.058H147.051V269.818H137.291V260.058Z" fill="white"/>
<path d="M152.508 260.058H162.268V269.818H152.508V260.058Z" fill="white"/>
<path d="M183.057 260.058H192.816V269.818H183.057V260.058Z" fill="white"/>
<path d="M213.549 260.058H223.309V269.818H213.549V260.058Z" fill="white"/>
<path d="M30.4785 275.334H40.2383V285.094H30.4785V275.334Z" fill="white"/>
<path d="M60.9707 275.334H70.7305V285.094H60.9707V275.334Z" fill="white"/>
<path d="M91.5235 275.334H101.283V285.094H91.5235V275.334Z" fill="white"/>
<path d="M106.738 275.334H116.498V285.094H106.738V275.334Z" fill="white"/>
<path d="M122.016 275.334H131.775V285.094H122.016V275.334Z" fill="white"/>
<path d="M137.291 275.334H147.051V285.094H137.291V275.334Z" fill="#999999"/>
<path d="M150.201 273.03H159.961V282.79H150.201V273.03Z" fill="white"/>
<path d="M167.783 275.334H177.543V285.094H167.783V275.334Z" fill="white"/>
<path d="M198.275 275.334H208.035V285.094H198.275V275.334Z" fill="white"/>
<path d="M213.549 275.334H223.309V285.094H213.549V275.334Z" fill="white"/>
<path d="M239.314 285.821V274.546H228.039V285.821H239.314ZM237.799 276.062V284.366H229.555V276.062H237.799Z" fill="#ABABAB"/>
<path d="M244.043 275.334H253.803V285.094H244.043V275.334Z" fill="white"/>
<path d="M45.7559 290.61H55.5156V300.37H45.7559V290.61Z" fill="white"/>
<path d="M58.668 288.307H68.4277V298.066H58.668V288.307Z" fill="white"/>
<path d="M102.01 301.097V289.822H90.7345V301.097H102.01ZM100.555 291.338V299.643H92.25V291.338H100.555Z" fill="white"/>
<path d="M147.779 301.097V289.822H136.504V301.097H147.779ZM146.324 291.338V299.643H138.02V291.338H146.324Z" fill="white"/>
<path d="M152.508 290.61H162.268V300.37H152.508V290.61Z" fill="white"/>
<path d="M167.783 290.61H177.543V300.37H167.783V290.61Z" fill="white"/>
<path d="M183.057 290.61H192.816V300.37H183.057V290.61Z" fill="white"/>
<path d="M198.275 290.61H208.035V300.37H198.275V290.61Z" fill="white"/>
<path d="M239.314 301.097V289.822H228.039V301.097H239.314ZM237.799 291.338V299.643H229.555V291.338H237.799Z" fill="white"/>
<path d="M30.4785 305.826H40.2383V315.585H30.4785V305.826Z" fill="white"/>
<path d="M43.4512 303.522H53.2109V313.282H43.4512V303.522Z" fill="white"/>
<path d="M60.9707 305.826H70.7305V315.585H60.9707V305.826Z" fill="white"/>
<path d="M76.2461 305.826H86.0059V315.585H76.2461V305.826Z" fill="white"/>
<path d="M102.01 316.374V305.098H90.7345V316.374H102.01ZM100.555 306.614V314.919H92.25V306.614H100.555Z" fill="white"/>
<path d="M152.508 305.826H162.268V315.585H152.508V305.826Z" fill="white"/>
<path d="M193.547 316.374V305.098H182.272V316.374H193.547ZM192.031 306.614V314.919H183.726V306.614H192.031Z" fill="white"/>
<path d="M239.314 316.374V305.098H228.039V316.374H239.314ZM237.799 306.614V314.919H229.555V306.614H237.799Z" fill="white"/>
<path d="M254.527 316.374V305.098H243.252V316.374H254.527ZM253.072 306.614V314.919H244.768V306.614H253.072Z" fill="white"/>
<path d="M60.9707 321.102H70.7305V330.862H60.9707V321.102Z" fill="white"/>
<path d="M137.291 321.102H147.051V330.861H137.291V321.102Z" fill="white"/>
<path d="M152.508 321.102H162.268V330.861H152.508V321.102Z" fill="white"/>
<path d="M167.783 321.102H177.543V330.861H167.783V321.102Z" fill="white"/>
<path d="M193.547 331.589V320.374H182.272V331.65H193.547V331.589ZM192.031 321.829V330.134H183.726V321.829H192.031Z" fill="white"/>
<path d="M208.76 331.589V320.374H197.485V331.65H208.76V331.589ZM207.305 321.829V330.134H199V321.829H207.305Z" fill="white"/>
<path d="M-0.0136766 336.378H9.74609V346.138H-0.0136766V336.378Z" fill="white"/>
<path d="M30.4785 336.378H40.2383V346.138H30.4785V336.378Z" fill="white"/>
<path d="M71.5176 346.865V335.59H60.2424V346.865H71.5176ZM70.0021 337.105V345.41H61.6972V337.105H70.0021Z" fill="#ABABAB"/>
<path d="M76.2461 336.378H86.0059V346.138H76.2461V336.378Z" fill="white"/>
<path d="M106.434 463.74V452.464H95.1584V463.74H106.434ZM104.979 453.98V462.285H96.6738V453.98H104.979Z" fill="white"/>
<path d="M132.5 346.865V335.59H121.225V346.865H132.5ZM131.045 337.105V345.41H122.74V337.105H131.045Z" fill="white"/>
<path d="M147.779 346.865V335.59H136.504V346.865H147.779ZM146.324 337.105V345.41H138.02V337.105H146.324Z" fill="white"/>
<path d="M162.994 346.865V335.59H151.719V346.865H162.994ZM161.539 337.105V345.41H153.234V337.105H161.539Z" fill="white"/>
<path d="M208.76 346.865V335.59H197.485V346.865H208.76ZM207.305 337.105V345.41H199V337.105H207.305Z" fill="white"/>
<path d="M-0.0136766 351.593H9.74609V361.353H-0.0136766V351.593Z" fill="white"/>
<path d="M28.1758 349.29H37.9355V359.05H28.1758V349.29Z" fill="white"/>
<path d="M45.7559 351.593H55.5156V361.353H45.7559V351.593Z" fill="white"/>
<path d="M76.2461 351.593H86.0059V361.353H76.2461V351.593Z" fill="white"/>
<path d="M102.01 362.141V350.866H90.7345V362.141H102.01ZM100.555 352.321V360.626H92.25V352.321H100.555Z" fill="white"/>
<path d="M117.287 362.141V350.866H106.012V362.141H117.287ZM115.772 352.321V360.626H107.467V352.321H115.772Z" fill="#ABABAB"/>
<path d="M132.5 362.141V350.866H121.225V362.141H132.5ZM131.045 352.321V360.626H122.74V352.321H131.045Z" fill="white"/>
<path d="M137.291 351.593H147.051V361.353H137.291V351.593Z" fill="white"/>
<path d="M152.508 351.593H162.268V361.353H152.508V351.593Z" fill="#999999"/>
<path d="M167.783 351.593H177.543V361.353H167.783V351.593Z" fill="white"/>
<path d="M183.057 351.593H192.816V361.353H183.057V351.593Z" fill="white"/>
<path d="M30.4785 366.87H40.2383V376.629H30.4785V366.87Z" fill="white"/>
<path d="M45.7559 366.87H55.5156V376.629H45.7559V366.87Z" fill="white"/>
<path d="M60.9707 366.87H70.7305V376.629H60.9707V366.87Z" fill="white"/>
<path d="M76.2461 366.87H86.0059V376.629H76.2461V366.87Z" fill="white"/>
<path d="M102.01 377.357V366.081H90.7345V377.357H102.01ZM100.555 367.597V375.902H92.25V367.597H100.555Z" fill="#ABABAB"/>
<path d="M132.5 377.357V366.081H121.225V377.357H132.5ZM131.045 367.597V375.902H122.74V367.597H131.045Z" fill="white"/>
<path d="M167.783 366.87H177.543V376.629H167.783V366.87Z" fill="white"/>
<path d="M198.275 366.87H208.035V376.629H198.275V366.87Z" fill="white"/>
<path d="M213.549 366.87H223.309V376.629H213.549V366.87Z" fill="white"/>
<path d="M244.043 366.87H253.803V376.629H244.043V366.87Z" fill="white"/>
<path d="M-0.0136766 382.146H9.74609V391.905H-0.0136766V382.146Z" fill="white"/>
<path d="M45.7559 382.146H55.5156V391.905H45.7559V382.146Z" fill="#999999"/>
<path d="M76.2461 382.146H86.0059V391.905H76.2461V382.146Z" fill="white"/>
<path d="M102.01 392.633V381.358H90.7345V392.633H102.01ZM100.555 382.873V391.178H92.25V382.873H100.555Z" fill="white"/>
<path d="M117.287 392.633V381.358H106.012V392.633H117.287ZM115.772 382.873V391.178H107.467V382.873H115.772Z" fill="white"/>
<path d="M132.5 392.633V381.358H121.225V392.633H132.5ZM131.045 382.873V391.178H122.74V382.873H131.045Z" fill="white"/>
<path d="M137.291 382.146H147.051V391.905H137.291V382.146Z" fill="white"/>
<path d="M152.508 382.146H162.268V391.905H152.508V382.146Z" fill="white"/>
<path d="M183.057 382.146H192.816V391.905H183.057V382.146Z" fill="white"/>
<path d="M198.275 382.146H208.035V391.905H198.275V382.146Z" fill="white"/>
<path d="M213.549 382.146H223.309V391.905H213.549V382.146Z" fill="white"/>
<path d="M228.824 382.146H238.584V391.905H228.824V382.146Z" fill="white"/>
<path d="M244.043 382.146H253.803V391.905H244.043V382.146Z" fill="white"/>
<path d="M30.4785 397.361H40.2383V407.121H30.4785V397.361Z" fill="white"/>
<path d="M45.7559 397.361H55.5156V407.121H45.7559V397.361Z" fill="#999999"/>
<path d="M60.9707 397.361H70.7305V407.121H60.9707V397.361Z" fill="white"/>
<path d="M76.2461 397.361H86.0059V407.121H76.2461V397.361Z" fill="white"/>
<path d="M162.994 407.909V396.634H151.719V407.909H162.994ZM161.539 398.089V406.393H153.234V398.089H161.539Z" fill="white"/>
<path d="M193.547 407.909V396.634H182.272V407.909H193.547ZM192.031 398.089V406.393H183.726V398.089H192.031Z" fill="white"/>
<path d="M208.76 407.909V396.634H197.485V407.909H208.76ZM207.305 398.089V406.393H199V398.089H207.305Z" fill="white"/>
<path d="M228.824 397.361H238.584V407.121H228.824V397.361Z" fill="white"/>
<path d="M259.256 276.183H269.016V285.942H259.256V276.183Z" fill="white"/>
<path d="M289.748 276.183H299.508V285.942H289.748V276.183Z" fill="white"/>
<path d="M320.24 276.183H330V285.942H320.24V276.183Z" fill="white"/>
<path d="M305.025 291.459H314.785V301.219H305.025V291.459Z" fill="#999999"/>
<path d="M274.473 306.735H284.232V316.495H274.473V306.735Z" fill="white"/>
<path d="M274.473 321.95H284.232V331.71H274.473V321.95Z" fill="white"/>
<path d="M320.24 321.95H330V331.71H320.24V321.95Z" fill="white"/>
<path d="M15.2032 412.637H24.9629V422.397H15.2032V412.637Z" fill="white"/>
<path d="M45.7559 412.637H55.5156V422.397H45.7559V412.637Z" fill="white"/>
<path d="M60.9707 412.637H70.7305V422.397H60.9707V412.637Z" fill="white"/>
<path d="M102.01 423.124V411.91H90.7345V423.185H102.01V423.124ZM100.555 413.365V421.67H92.25V413.365H100.555Z" fill="white"/>
<path d="M117.287 423.124V411.91H106.012V423.185H117.287V423.124ZM115.772 413.365V421.67H107.467V413.365H115.772Z" fill="white"/>
<path d="M132.5 423.124V411.91H121.225V423.185H132.5V423.124ZM131.045 413.365V421.67H122.74V413.365H131.045Z" fill="white"/>
<path d="M178.268 423.124V411.91H166.992V423.185H178.268V423.124ZM176.813 413.365V421.67H168.508V413.365H176.813Z" fill="white"/>
<path d="M15.2032 427.913H24.9629V437.673H15.2032V427.913Z" fill="white"/>
<path d="M40.9668 438.401V427.125H29.6915V438.401H40.9668ZM39.5119 428.641V436.946H31.207V428.641H39.5119Z" fill="#ABABAB"/>
<path d="M45.7559 427.913H55.5156V437.673H45.7559V427.913Z" fill="white"/>
<path d="M132.5 438.401V427.125H121.225V438.401H132.5ZM131.045 428.641V436.946H122.74V428.641H131.045Z" fill="white"/>
<path d="M162.994 438.401V427.125H151.719V438.401H162.994ZM161.539 428.641V436.946H153.234V428.641H161.539Z" fill="white"/>
<path d="M178.268 438.401V427.125H166.992V438.401H178.268ZM176.813 428.641V436.946H168.508V428.641H176.813Z" fill="white"/>
</g>
<g opacity="0.2">
<path d="M1330.76 26.2752V15H1342.03V26.2752H1330.76ZM1332.21 16.4549V24.7597H1340.52V16.4549H1332.21Z" fill="white"/>
<path d="M1300.27 26.2752V15H1311.54V26.2752H1300.27ZM1301.72 16.4549V24.7597H1310.03V16.4549H1301.72Z" fill="white"/>
<path d="M1300.27 41.4907V30.2761H1311.54V41.5513H1300.27V41.4907ZM1301.72 31.7309V40.0358H1310.03V31.7309H1301.72Z" fill="white"/>
<path d="M1330.76 56.7669V45.4917H1342.03V56.7669H1330.76ZM1332.21 47.0072V55.3121H1340.52V47.0072H1332.21Z" fill="white"/>
<path d="M1341.24 61.4952H1331.48V71.255H1341.24V61.4952Z" fill="white"/>
<path d="M1310.76 61.4952H1301V71.255H1310.76V61.4952Z" fill="white"/>
<path d="M1341.24 76.7713H1331.48V86.531H1341.24V76.7713Z" fill="white"/>
<path d="M1326.03 76.7714H1316.27V86.5311H1326.03V76.7714Z" fill="white"/>
<path d="M1310.76 76.7713H1301V86.531H1310.76V76.7713Z" fill="white"/>
<path d="M1326.03 92.0474H1316.27V101.807H1326.03V92.0474Z" fill="white"/>
<path d="M1387.01 107.263H1377.25V117.023H1387.01V107.263Z" fill="white"/>
<path d="M1371.79 107.263H1362.04V117.023H1371.79V107.263Z" fill="white"/>
<path d="M1341.24 107.263H1331.48V117.023H1341.24V107.263Z" fill="white"/>
<path d="M1326.03 107.263H1316.27V117.023H1326.03V107.263Z" fill="white"/>
<path d="M1310.76 107.263H1301V117.023H1310.76V107.263Z" fill="#999999"/>
<path d="M1402.29 122.539H1392.53V132.299H1402.29V122.539Z" fill="white"/>
<path d="M1387.01 122.539H1377.25V132.299H1387.01V122.539Z" fill="white"/>
<path d="M1326.03 122.539H1316.27V132.299H1326.03V122.539Z" fill="white"/>
<path d="M1310.76 122.539H1301V132.299H1310.76V122.539Z" fill="white"/>
<path d="M1219.22 122.539H1209.46V132.299H1219.22V122.539Z" fill="white"/>
<path d="M1203.94 122.539H1194.18V132.299H1203.94V122.539Z" fill="white"/>
<path d="M1295.47 137.755H1285.71V147.514H1295.47V137.755Z" fill="white"/>
<path d="M1280.26 137.755H1270.5V147.514H1280.26V137.755Z" fill="white"/>
<path d="M1249.71 137.755H1239.95V147.514H1249.71V137.755Z" fill="white"/>
<path d="M1234.49 137.755H1224.73V147.514H1234.49V137.755Z" fill="white"/>
<path d="M1219.22 137.755H1209.46V147.514H1219.22V137.755Z" fill="white"/>
<path d="M1280.26 153.031H1270.5V162.791H1280.26V153.031Z" fill="white"/>
<path d="M1264.98 153.031H1255.22V162.791H1264.98V153.031Z" fill="white"/>
<path d="M1249.71 153.031H1239.95V162.791H1249.71V153.031Z" fill="white"/>
<path d="M1315.48 178.794V167.519H1326.76V178.794H1315.48ZM1317 169.034V177.339H1325.3V169.034H1317Z" fill="white"/>
<path d="M1310.76 168.307H1301V178.067H1310.76V168.307Z" fill="white"/>
<path d="M1295.47 168.307H1285.71V178.067H1295.47V168.307Z" fill="white"/>
<path d="M1280.26 168.307H1270.5V178.067H1280.26V168.307Z" fill="white"/>
<path d="M1330.76 194.07V182.795H1342.03V194.07H1330.76ZM1332.21 184.31V192.615H1340.52V184.31H1332.21Z" fill="white"/>
<path d="M1310.76 183.522H1301V193.282H1310.76V183.522Z" fill="white"/>
<path d="M1295.47 183.522H1285.71V193.282H1295.47V183.522Z" fill="white"/>
<path d="M1280.26 183.522H1270.5V193.282H1280.26V183.522Z" fill="white"/>
<path d="M1254.5 194.07V182.795H1265.78V194.07H1254.5ZM1255.95 184.31V192.615H1264.26V184.31H1255.95Z" fill="#ABABAB"/>
<path d="M1249.71 183.522H1239.95V193.282H1249.71V183.522Z" fill="white"/>
<path d="M1234.49 183.522H1224.73V193.282H1234.49V183.522Z" fill="white"/>
<path d="M1219.22 183.522H1209.46V193.282H1219.22V183.522Z" fill="white"/>
<path d="M1203.94 183.522H1194.18V193.282H1203.94V183.522Z" fill="white"/>
<path d="M1330.76 209.286V198.01H1342.03V209.286H1330.76ZM1332.21 199.526V207.831H1340.52V199.526H1332.21Z" fill="white"/>
<path d="M1315.48 209.286V198.01H1326.76V209.286H1315.48ZM1317 199.526V207.831H1325.3V199.526H1317Z" fill="white"/>
<path d="M1310.76 198.798H1301V208.558H1310.76V198.798Z" fill="white"/>
<path d="M1280.26 198.799H1270.5V208.558H1280.26V198.799Z" fill="white"/>
<path d="M1270.38 208.679V198.738H1280.32V208.679H1270.38ZM1270.56 198.92V208.498H1280.14V198.92H1270.56Z" fill="white"/>
<path d="M1249.71 198.799H1239.95V208.558H1249.71V198.799Z" fill="white"/>
<path d="M1239.89 208.679V198.738H1249.83V208.679H1239.89ZM1240.07 198.92V208.498H1249.65V198.92H1240.07Z" fill="white"/>
<path d="M1234.49 198.799H1224.73V208.558H1234.49V198.799Z" fill="white"/>
<path d="M1224.61 208.679V198.738H1234.55V208.679H1224.61ZM1224.8 198.92V208.498H1234.37V198.92H1224.8Z" fill="white"/>
<path d="M1330.76 224.562V213.287H1342.03V224.562H1330.76ZM1332.21 214.802V223.107H1340.52V214.802H1332.21Z" fill="white"/>
<path d="M1315.48 224.562V213.287H1326.76V224.562H1315.48ZM1317 214.802V223.107H1325.3V214.802H1317Z" fill="white"/>
<path d="M1310.76 214.075H1301V223.834H1310.76V214.075Z" fill="white"/>
<path d="M1295.48 214.075H1285.72V223.834H1295.48V214.075Z" fill="white"/>
<path d="M1285.66 223.895V213.953H1295.6V223.895H1285.66ZM1285.84 214.135V223.713H1295.42V214.135H1285.84Z" fill="white"/>
<path d="M1280.26 214.075H1270.5V223.834H1280.26V214.075Z" fill="white"/>
<path d="M1270.38 223.895V213.953H1280.32V223.895H1270.38ZM1270.56 214.135V223.713H1280.14V214.135H1270.56Z" fill="white"/>
<path d="M1264.99 214.075H1255.23V223.834H1264.99V214.075Z" fill="white"/>
<path d="M1255.11 223.895V213.953H1265.05V223.895H1255.11ZM1255.35 214.135V223.713H1264.93V214.135H1255.35Z" fill="white"/>
<path d="M1249.71 214.075H1239.95V223.834H1249.71V214.075Z" fill="white"/>
<path d="M1239.89 223.895V213.953H1249.83V223.895H1239.89ZM1240.07 214.135V223.713H1249.65V214.135H1240.07Z" fill="white"/>
<path d="M1142.96 214.075H1133.2V223.834H1142.96V214.075Z" fill="white"/>
<path d="M1280.26 229.29H1270.5V239.05H1280.26V229.29Z" fill="white"/>
<path d="M1270.38 239.171V229.229H1280.32V239.171H1270.38ZM1270.56 229.411V238.989H1280.14V229.411H1270.56Z" fill="white"/>
<path d="M1264.99 229.29H1255.23V239.05H1264.99V229.29Z" fill="white"/>
<path d="M1255.11 239.171V229.23H1265.05V239.171H1255.11ZM1255.35 229.411V238.989H1264.93V229.411H1255.35Z" fill="white"/>
<path d="M1173.45 229.29H1163.69V239.05H1173.45V229.29Z" fill="white"/>
<path d="M1160.54 226.987H1150.78V236.746H1160.54V226.987Z" fill="white"/>
<path d="M1142.96 229.29H1133.2V239.05H1142.96V229.29Z" fill="white"/>
<path d="M1254.5 255.053V243.839H1265.78V255.114H1254.5V255.053ZM1255.95 245.294V253.598H1264.26V245.294H1255.95Z" fill="white"/>
<path d="M1239.22 255.053V243.839H1250.5V255.114H1239.22V255.053ZM1240.68 245.294V253.598H1248.98V245.294H1240.68Z" fill="white"/>
<path d="M1219.22 244.566H1209.46V254.326H1219.22V244.566Z" fill="white"/>
<path d="M1178.24 255.053V243.839H1189.52V255.114H1178.24V255.053ZM1179.7 245.294V253.598H1188V245.294H1179.7Z" fill="#ABABAB"/>
<path d="M1173.45 244.566H1163.69V254.326H1173.45V244.566Z" fill="white"/>
<path d="M1158.18 244.566H1148.42V254.326H1158.18V244.566Z" fill="white"/>
<path d="M1432.78 259.842H1423.02V269.602H1432.78V259.842Z" fill="white"/>
<path d="M1417.56 259.842H1407.8V269.602H1417.56V259.842Z" fill="white"/>
<path d="M1402.29 259.842H1392.53V269.602H1402.29V259.842Z" fill="white"/>
<path d="M1371.79 259.842H1362.04V269.602H1371.79V259.842Z" fill="white"/>
<path d="M1315.48 270.33V259.054H1326.76V270.33H1315.48ZM1317 260.57V268.875H1325.3V260.57H1317Z" fill="white"/>
<path d="M1295.47 259.842H1285.71V269.602H1295.47V259.842Z" fill="white"/>
<path d="M1280.26 259.842H1270.5V269.602H1280.26V259.842Z" fill="white"/>
<path d="M1254.5 270.33V259.054H1265.78V270.33H1254.5ZM1255.95 260.57V268.875H1264.26V260.57H1255.95Z" fill="white"/>
<path d="M1239.22 270.33V259.054H1250.5V270.33H1239.22ZM1240.68 260.57V268.875H1248.98V260.57H1240.68Z" fill="white"/>
<path d="M1224.01 270.33V259.054H1235.28V270.33H1224.01ZM1225.46 260.57V268.875H1233.77V260.57H1225.46Z" fill="white"/>
<path d="M1219.22 259.842H1209.46V269.602H1219.22V259.842Z" fill="white"/>
<path d="M1203.94 259.842H1194.18V269.602H1203.94V259.842Z" fill="white"/>
<path d="M1188.72 259.842H1178.96V269.602H1188.72V259.842Z" fill="white"/>
<path d="M1173.45 259.842H1163.69V269.602H1173.45V259.842Z" fill="white"/>
<path d="M1142.96 259.842H1133.2V269.602H1142.96V259.842Z" fill="white"/>
<path d="M1437.57 285.606V274.33H1448.85V285.606H1437.57ZM1439.03 275.846V284.151H1447.33V275.846H1439.03Z" fill="white"/>
<path d="M1422.29 285.606V274.33H1433.57V285.606H1422.29ZM1423.75 275.846V284.151H1432.05V275.846H1423.75Z" fill="white"/>
<path d="M1407.02 285.606V274.33H1418.29V285.606H1407.02ZM1408.53 275.846V284.151H1416.84V275.846H1408.53Z" fill="white"/>
<path d="M1358.83 272.754H1349.07V282.514H1358.83V272.754Z" fill="white"/>
<path d="M1326.03 275.058H1316.27V284.818H1326.03V275.058Z" fill="white"/>
<path d="M1310.76 275.058H1301V284.818H1310.76V275.058Z" fill="white"/>
<path d="M1295.47 275.058H1285.71V284.818H1295.47V275.058Z" fill="white"/>
<path d="M1280.26 275.058H1270.5V284.818H1280.26V275.058Z" fill="white"/>
<path d="M1264.98 275.058H1255.22V284.818H1264.98V275.058Z" fill="#999999"/>
<path d="M1249.71 275.058H1239.95V284.818H1249.71V275.058Z" fill="white"/>
<path d="M1234.49 275.058H1224.73V284.818H1234.49V275.058Z" fill="white"/>
<path d="M1203.94 275.058H1194.18V284.818H1203.94V275.058Z" fill="white"/>
<path d="M1173.45 275.058H1163.69V284.818H1173.45V275.058Z" fill="white"/>
<path d="M1422.29 300.821V289.546H1433.57V300.821H1422.29ZM1423.75 291.061V299.366H1432.05V291.061H1423.75Z" fill="white"/>
<path d="M1407.02 300.821V289.546H1418.29V300.821H1407.02ZM1408.53 291.061V299.366H1416.84V291.061H1408.53Z" fill="#ABABAB"/>
<path d="M1402.29 290.334H1392.53V300.094H1402.29V290.334Z" fill="white"/>
<path d="M1356.52 290.334H1346.76V300.094H1356.52V290.334Z" fill="white"/>
<path d="M1326.03 290.334H1316.27V300.094H1326.03V290.334Z" fill="white"/>
<path d="M1295.47 290.334H1285.71V300.094H1295.47V290.334Z" fill="white"/>
<path d="M1280.26 290.334H1270.5V300.094H1280.26V290.334Z" fill="white"/>
<path d="M1264.98 290.334H1255.22V300.094H1264.98V290.334Z" fill="white"/>
<path d="M1249.71 290.334H1239.95V300.094H1249.71V290.334Z" fill="#999999"/>
<path d="M1236.8 288.03H1227.04V297.79H1236.8V288.03Z" fill="white"/>
<path d="M1219.22 290.334H1209.46V300.094H1219.22V290.334Z" fill="white"/>
<path d="M1188.72 290.334H1178.96V300.094H1188.72V290.334Z" fill="white"/>
<path d="M1173.45 290.334H1163.69V300.094H1173.45V290.334Z" fill="white"/>
<path d="M1147.69 300.821V289.546H1158.96V300.821H1147.69ZM1149.2 291.062V299.366H1157.45V291.062H1149.2Z" fill="#ABABAB"/>
<path d="M1142.96 290.334H1133.2V300.094H1142.96V290.334Z" fill="white"/>
<path d="M1448.06 305.61H1438.3V315.37H1448.06V305.61Z" fill="white"/>
<path d="M1417.56 305.61H1407.8V315.37H1417.56V305.61Z" fill="white"/>
<path d="M1402.29 305.61H1392.53V315.37H1402.29V305.61Z" fill="white"/>
<path d="M1341.24 305.61H1331.48V315.37H1341.24V305.61Z" fill="white"/>
<path d="M1328.33 303.307H1318.57V313.066H1328.33V303.307Z" fill="white"/>
<path d="M1284.99 316.097V304.822H1296.26V316.097H1284.99ZM1286.44 306.338V314.643H1294.75V306.338H1286.44Z" fill="white"/>
<path d="M1239.22 316.097V304.822H1250.5V316.097H1239.22ZM1240.68 306.338V314.643H1248.98V306.338H1240.68Z" fill="white"/>
<path d="M1234.49 305.61H1224.73V315.37H1234.49V305.61Z" fill="white"/>
<path d="M1219.22 305.61H1209.46V315.37H1219.22V305.61Z" fill="white"/>
<path d="M1203.94 305.61H1194.18V315.37H1203.94V305.61Z" fill="white"/>
<path d="M1188.72 305.61H1178.96V315.37H1188.72V305.61Z" fill="white"/>
<path d="M1147.69 316.097V304.822H1158.96V316.097H1147.69ZM1149.2 306.338V314.643H1157.45V306.338H1149.2Z" fill="white"/>
<path d="M1448.06 320.826H1438.3V330.585H1448.06V320.826Z" fill="white"/>
<path d="M1432.78 320.826H1423.02V330.585H1432.78V320.826Z" fill="white"/>
<path d="M1402.29 320.826H1392.53V330.585H1402.29V320.826Z" fill="white"/>
<path d="M1356.52 320.826H1346.76V330.585H1356.52V320.826Z" fill="white"/>
<path d="M1343.55 318.522H1333.79V328.282H1343.55V318.522Z" fill="white"/>
<path d="M1326.03 320.826H1316.27V330.585H1326.03V320.826Z" fill="white"/>
<path d="M1310.76 320.826H1301V330.585H1310.76V320.826Z" fill="white"/>
<path d="M1284.99 331.374V320.098H1296.26V331.374H1284.99ZM1286.44 321.614V329.919H1294.75V321.614H1286.44Z" fill="white"/>
<path d="M1234.49 320.826H1224.73V330.585H1234.49V320.826Z" fill="white"/>
<path d="M1193.45 331.374V320.098H1204.73V331.374H1193.45ZM1194.97 321.614V329.919H1203.27V321.614H1194.97Z" fill="white"/>
<path d="M1147.69 331.374V320.098H1158.96V331.374H1147.69ZM1149.2 321.614V329.919H1157.45V321.614H1149.2Z" fill="white"/>
<path d="M1132.47 331.374V320.098H1143.75V331.374H1132.47ZM1133.93 321.614V329.919H1142.23V321.614H1133.93Z" fill="white"/>
<path d="M1432.78 336.102H1423.02V345.862H1432.78V336.102Z" fill="white"/>
<path d="M1417.56 336.102H1407.8V345.862H1417.56V336.102Z" fill="white"/>
<path d="M1326.03 336.102H1316.27V345.862H1326.03V336.102Z" fill="white"/>
<path d="M1249.71 336.102H1239.95V345.861H1249.71V336.102Z" fill="white"/>
<path d="M1234.49 336.102H1224.73V345.861H1234.49V336.102Z" fill="white"/>
<path d="M1219.22 336.102H1209.46V345.861H1219.22V336.102Z" fill="white"/>
<path d="M1193.45 346.589V335.374H1204.73V346.65H1193.45V346.589ZM1194.97 336.829V345.134H1203.27V336.829H1194.97Z" fill="white"/>
<path d="M1178.24 346.589V335.374H1189.52V346.65H1178.24V346.589ZM1179.7 336.829V345.134H1188V336.829H1179.7Z" fill="white"/>
<path d="M1437.57 361.865V350.59H1448.85V361.865H1437.57ZM1439.03 352.105V360.41H1447.33V352.105H1439.03Z" fill="white"/>
<path d="M1422.29 361.865V350.59H1433.57V361.865H1422.29ZM1423.75 352.105V360.41H1432.05V352.105H1423.75Z" fill="white"/>
<path d="M1407.02 361.865V350.59H1418.29V361.865H1407.02ZM1408.53 352.105V360.41H1416.84V352.105H1408.53Z" fill="white"/>
<path d="M1387.01 351.378H1377.25V361.138H1387.01V351.378Z" fill="white"/>
<path d="M1356.52 351.378H1346.76V361.138H1356.52V351.378Z" fill="white"/>
<path d="M1315.48 361.865V350.59H1326.76V361.865H1315.48ZM1317 352.105V360.41H1325.3V352.105H1317Z" fill="#ABABAB"/>
<path d="M1310.76 351.378H1301V361.138H1310.76V351.378Z" fill="white"/>
<path d="M1280.57 478.74V467.464H1291.84V478.74H1280.57ZM1282.02 468.98V477.285H1290.33V468.98H1282.02Z" fill="white"/>
<path d="M1254.5 361.865V350.59H1265.78V361.865H1254.5ZM1255.95 352.105V360.41H1264.26V352.105H1255.95Z" fill="white"/>
<path d="M1239.22 361.865V350.59H1250.5V361.865H1239.22ZM1240.68 352.105V360.41H1248.98V352.105H1240.68Z" fill="white"/>
<path d="M1224.01 361.865V350.59H1235.28V361.865H1224.01ZM1225.46 352.105V360.41H1233.77V352.105H1225.46Z" fill="white"/>
<path d="M1178.24 361.865V350.59H1189.52V361.865H1178.24ZM1179.7 352.105V360.41H1188V352.105H1179.7Z" fill="white"/>
<path d="M1437.57 377.141V365.866H1448.85V377.141H1437.57ZM1439.03 367.321V375.626H1447.33V367.321H1439.03Z" fill="white"/>
<path d="M1407.02 377.141V365.866H1418.29V377.141H1407.02ZM1408.53 367.321V375.626H1416.84V367.321H1408.53Z" fill="#ABABAB"/>
<path d="M1402.29 366.593H1392.53V376.353H1402.29V366.593Z" fill="white"/>
<path d="M1387.01 366.593H1377.25V376.353H1387.01V366.593Z" fill="white"/>
<path d="M1358.83 364.29H1349.07V374.05H1358.83V364.29Z" fill="white"/>
<path d="M1341.24 366.593H1331.48V376.353H1341.24V366.593Z" fill="white"/>
<path d="M1310.76 366.593H1301V376.353H1310.76V366.593Z" fill="white"/>
<path d="M1284.99 377.141V365.866H1296.26V377.141H1284.99ZM1286.44 367.321V375.626H1294.75V367.321H1286.44Z" fill="white"/>
<path d="M1269.71 377.141V365.866H1280.99V377.141H1269.71ZM1271.23 367.321V375.626H1279.54V367.321H1271.23Z" fill="#ABABAB"/>
<path d="M1254.5 377.141V365.866H1265.78V377.141H1254.5ZM1255.95 367.321V375.626H1264.26V367.321H1255.95Z" fill="white"/>
<path d="M1249.71 366.593H1239.95V376.353H1249.71V366.593Z" fill="white"/>
<path d="M1234.49 366.593H1224.73V376.353H1234.49V366.593Z" fill="#999999"/>
<path d="M1219.22 366.593H1209.46V376.353H1219.22V366.593Z" fill="white"/>
<path d="M1203.94 366.593H1194.18V376.353H1203.94V366.593Z" fill="white"/>
<path d="M1437.57 392.357V381.081H1448.85V392.357H1437.57ZM1439.03 382.597V390.902H1447.33V382.597H1439.03Z" fill="white"/>
<path d="M1407.02 392.357V381.081H1418.29V392.357H1407.02ZM1408.53 382.597V390.902H1416.84V382.597H1408.53Z" fill="white"/>
<path d="M1402.29 381.87H1392.53V391.629H1402.29V381.87Z" fill="white"/>
<path d="M1356.52 381.87H1346.76V391.629H1356.52V381.87Z" fill="white"/>
<path d="M1341.24 381.87H1331.48V391.629H1341.24V381.87Z" fill="white"/>
<path d="M1326.03 381.87H1316.27V391.629H1326.03V381.87Z" fill="white"/>
<path d="M1310.76 381.87H1301V391.629H1310.76V381.87Z" fill="white"/>
<path d="M1284.99 392.357V381.081H1296.26V392.357H1284.99ZM1286.44 382.597V390.902H1294.75V382.597H1286.44Z" fill="#ABABAB"/>
<path d="M1254.5 392.357V381.081H1265.78V392.357H1254.5ZM1255.95 382.597V390.902H1264.26V382.597H1255.95Z" fill="white"/>
<path d="M1219.22 381.87H1209.46V391.629H1219.22V381.87Z" fill="white"/>
<path d="M1188.72 381.87H1178.96V391.629H1188.72V381.87Z" fill="white"/>
<path d="M1173.45 381.87H1163.69V391.629H1173.45V381.87Z" fill="white"/>
<path d="M1142.96 381.87H1133.2V391.629H1142.96V381.87Z" fill="white"/>
<path d="M1387.01 397.146H1377.25V406.905H1387.01V397.146Z" fill="white"/>
<path d="M1341.24 397.146H1331.48V406.905H1341.24V397.146Z" fill="#999999"/>
<path d="M1310.76 397.146H1301V406.905H1310.76V397.146Z" fill="white"/>
<path d="M1284.99 407.633V396.358H1296.26V407.633H1284.99ZM1286.44 397.873V406.178H1294.75V397.873H1286.44Z" fill="white"/>
<path d="M1269.71 407.633V396.358H1280.99V407.633H1269.71ZM1271.23 397.873V406.178H1279.54V397.873H1271.23Z" fill="white"/>
<path d="M1254.5 407.633V396.358H1265.78V407.633H1254.5ZM1255.95 397.873V406.178H1264.26V397.873H1255.95Z" fill="white"/>
<path d="M1249.71 397.146H1239.95V406.905H1249.71V397.146Z" fill="white"/>
<path d="M1234.49 397.146H1224.73V406.905H1234.49V397.146Z" fill="white"/>
<path d="M1203.94 397.146H1194.18V406.905H1203.94V397.146Z" fill="white"/>
<path d="M1188.72 397.146H1178.96V406.905H1188.72V397.146Z" fill="white"/>
<path d="M1173.45 397.146H1163.69V406.905H1173.45V397.146Z" fill="white"/>
<path d="M1158.18 397.146H1148.42V406.905H1158.18V397.146Z" fill="white"/>
<path d="M1142.96 397.146H1133.2V406.905H1142.96V397.146Z" fill="white"/>
<path d="M1407.02 422.909V411.634H1418.29V422.909H1407.02ZM1408.53 413.089V421.393H1416.84V413.089H1408.53Z" fill="white"/>
<path d="M1356.52 412.361H1346.76V422.121H1356.52V412.361Z" fill="white"/>
<path d="M1341.24 412.361H1331.48V422.121H1341.24V412.361Z" fill="#999999"/>
<path d="M1326.03 412.361H1316.27V422.121H1326.03V412.361Z" fill="white"/>
<path d="M1310.76 412.361H1301V422.121H1310.76V412.361Z" fill="white"/>
<path d="M1224.01 422.909V411.634H1235.28V422.909H1224.01ZM1225.46 413.089V421.393H1233.77V413.089H1225.46Z" fill="white"/>
<path d="M1193.45 422.909V411.634H1204.73V422.909H1193.45ZM1194.97 413.089V421.393H1203.27V413.089H1194.97Z" fill="white"/>
<path d="M1178.24 422.909V411.634H1189.52V422.909H1178.24ZM1179.7 413.089V421.393H1188V413.089H1179.7Z" fill="white"/>
<path d="M1158.18 412.361H1148.42V422.121H1158.18V412.361Z" fill="white"/>
<path d="M1127.74 291.183H1117.98V300.942H1127.74V291.183Z" fill="white"/>
<path d="M1097.25 291.183H1087.49V300.942H1097.25V291.183Z" fill="white"/>
<path d="M1066.76 291.183H1057V300.942H1066.76V291.183Z" fill="white"/>
<path d="M1081.97 306.459H1072.21V316.219H1081.97V306.459Z" fill="#999999"/>
<path d="M1112.53 321.735H1102.77V331.495H1112.53V321.735Z" fill="white"/>
<path d="M1112.53 336.95H1102.77V346.71H1112.53V336.95Z" fill="white"/>
<path d="M1066.76 336.95H1057V346.71H1066.76V336.95Z" fill="white"/>
<path d="M1371.79 427.637H1362.04V437.397H1371.79V427.637Z" fill="white"/>
<path d="M1341.24 427.637H1331.48V437.397H1341.24V427.637Z" fill="white"/>
<path d="M1326.03 427.637H1316.27V437.397H1326.03V427.637Z" fill="white"/>
<path d="M1284.99 438.124V426.91H1296.26V438.185H1284.99V438.124ZM1286.44 428.365V436.67H1294.75V428.365H1286.44Z" fill="white"/>
<path d="M1269.71 438.124V426.91H1280.99V438.185H1269.71V438.124ZM1271.23 428.365V436.67H1279.54V428.365H1271.23Z" fill="white"/>
<path d="M1254.5 438.124V426.91H1265.78V438.185H1254.5V438.124ZM1255.95 428.365V436.67H1264.26V428.365H1255.95Z" fill="white"/>
<path d="M1208.73 438.124V426.91H1220.01V438.185H1208.73V438.124ZM1210.19 428.365V436.67H1218.49V428.365H1210.19Z" fill="white"/>
<path d="M1407.02 453.401V442.125H1418.29V453.401H1407.02ZM1408.53 443.641V451.946H1416.84V443.641H1408.53Z" fill="white"/>
<path d="M1371.79 442.913H1362.04V452.673H1371.79V442.913Z" fill="white"/>
<path d="M1346.04 453.401V442.125H1357.31V453.401H1346.04ZM1347.49 443.641V451.946H1355.79V443.641H1347.49Z" fill="#ABABAB"/>
<path d="M1341.24 442.913H1331.48V452.673H1341.24V442.913Z" fill="white"/>
<path d="M1254.5 453.401V442.125H1265.78V453.401H1254.5ZM1255.95 443.641V451.946H1264.26V443.641H1255.95Z" fill="white"/>
<path d="M1224.01 453.401V442.125H1235.28V453.401H1224.01ZM1225.46 443.641V451.946H1233.77V443.641H1225.46Z" fill="white"/>
<path d="M1208.73 453.401V442.125H1220.01V453.401H1208.73ZM1210.19 443.641V451.946H1218.49V443.641H1210.19Z" fill="white"/>
</g>
</svg>
