<svg width="88" height="89" viewBox="0 0 88 89" fill="none" xmlns="http://www.w3.org/2000/svg">
<path d="M72.1831 55.4351C72.1118 54.9711 71.901 54.539 71.5791 54.1969C71.2577 53.8547 70.8395 53.6184 70.3802 53.5186C66.6853 52.2994 60.6024 53.9865 52.2984 58.53C49.1962 56.0479 42.5626 54.1529 39.3675 53.5502C35.104 52.7457 32.4447 53.847 30.0978 54.8192C29.4687 55.0771 28.8621 55.3294 28.2469 55.5368V55.1808C28.2262 54.5327 27.6853 54.0233 27.0371 54.0419H24.6876V53.8868C24.7071 53.0469 24.0435 52.3487 23.2035 52.3258H19.8305C19.0325 52.3561 18.3901 52.9921 18.3516 53.7896L16.0103 72.8391C15.9606 73.2565 16.092 73.6747 16.3715 73.9884C16.6536 74.3108 17.0606 74.497 17.4888 74.5H23.2023C24.0422 74.4767 24.7058 73.7789 24.6864 72.9386V72.7839H27.0363H27.0359C27.684 72.8021 28.2249 72.2931 28.2457 71.645C29.6425 71.8636 31.0929 72.1302 32.6137 72.411C34.6456 72.7852 36.7467 73.1723 38.7523 73.4432C39.8475 73.6005 40.9519 73.6847 42.0584 73.6947C44.331 73.7586 46.5751 73.1719 48.5263 72.0045L70.79 58.16C71.703 57.5612 72.2322 56.5256 72.183 55.4346L72.1831 55.4351ZM23.0533 72.8654H17.6536L19.9763 53.9862L19.9802 53.959H23.056L23.0533 72.8654ZM26.613 71.1493H24.6879V55.6756H26.6144L26.613 71.1493ZM69.9272 56.7717L47.6679 70.6128C44.9084 72.329 41.8611 72.2071 38.9738 71.8209C37.008 71.5569 34.9271 71.1758 32.9142 70.8021C31.3614 70.5161 29.7633 70.2214 28.2502 69.9898V57.2481C29.0914 56.9858 29.9179 56.6786 30.7264 56.3282C32.9666 55.4006 35.2827 54.4411 39.068 55.1553C44.1217 56.1088 50.7324 58.6117 52.1393 60.6769H52.1398C52.2953 60.8644 52.3718 61.1055 52.3519 61.3483C52.2404 61.9329 50.3485 63.0182 45.2192 62.6389L36.7522 62.0154C36.3025 61.9826 35.9106 62.3204 35.8773 62.7706C35.8445 63.2204 36.1824 63.6123 36.6325 63.6456L45.0995 64.269C45.8331 64.3226 46.5301 64.3498 47.1854 64.3498C51.1425 64.3498 53.6264 63.382 53.96 61.6534V61.6529C54.0702 60.9832 53.9017 60.2971 53.4934 59.7549L53.4852 59.7433C63.0287 54.5815 67.6615 54.3365 69.8736 55.0668C70.3061 55.2093 70.5389 55.3977 70.5657 55.6254V55.6258C70.5385 56.0847 70.3039 56.5064 69.928 56.7716L69.9272 56.7717ZM27.2192 36.1559H28.8567C28.9245 36.3404 29.0001 36.5223 29.0826 36.7003L27.9252 37.8578V37.8582C27.6491 38.1339 27.6067 38.5659 27.8232 38.8904C28.5214 39.9407 29.4222 40.8412 30.4725 41.5397C30.7966 41.7566 31.229 41.7139 31.5047 41.4378L32.6617 40.2803C32.8406 40.3637 33.0225 40.4384 33.207 40.5067V42.1438V42.1433C33.207 42.533 33.4818 42.8679 33.8637 42.9448C35.1007 43.1902 36.3735 43.1902 37.6105 42.9448C37.9915 42.8679 38.2663 42.5326 38.2663 42.1433V40.5054C38.4508 40.4371 38.6327 40.3619 38.8116 40.2794L39.9699 41.4365C40.2456 41.7125 40.6776 41.7553 41.0021 41.5384C42.0511 40.8398 42.9502 39.939 43.6476 38.8891C43.8645 38.5646 43.8217 38.1326 43.5456 37.8569L42.3886 36.6999C42.4711 36.521 42.5463 36.3391 42.6145 36.1546H44.2516H44.2512C44.6409 36.1546 44.9762 35.8798 45.0526 35.4979C45.298 34.2613 45.298 32.9885 45.0526 31.752C44.9762 31.3701 44.6409 31.0953 44.2512 31.0949H42.615C42.5506 30.9104 42.4715 30.7285 42.389 30.5505L43.5465 29.393H43.5469C43.823 29.1174 43.8658 28.6849 43.6489 28.3608C42.9507 27.3105 42.0499 26.4096 40.9996 25.7115C40.6751 25.4946 40.2431 25.5374 39.9674 25.8135L38.8086 26.9735C38.6301 26.891 38.4483 26.8154 38.2633 26.7471V25.11C38.2629 24.7208 37.9881 24.3855 37.6066 24.309C36.3696 24.0636 35.0972 24.0636 33.8603 24.309C33.4788 24.3855 33.204 24.7208 33.2036 25.11V26.7471C33.0191 26.8154 32.8372 26.8905 32.6583 26.9735L31.5013 25.816H31.5017C31.2261 25.5399 30.7936 25.4972 30.4691 25.714C29.4192 26.4127 28.5184 27.3131 27.8202 28.3634C27.6033 28.6874 27.6461 29.1199 27.9222 29.3955L29.0797 30.5526C28.9972 30.7315 28.922 30.9134 28.8537 31.0978L27.2193 31.0974C26.8313 31.0991 26.4978 31.3731 26.4209 31.7533C26.1755 32.9898 26.1755 34.2627 26.4209 35.4991C26.4973 35.8798 26.8309 36.1546 27.2193 36.1559L27.2192 36.1559ZM27.9187 32.7306H29.4529C29.8218 32.7306 30.145 32.4839 30.2422 32.1279C30.3679 31.6643 30.5524 31.2184 30.7918 30.8015C30.9754 30.4818 30.9227 30.0791 30.6626 29.8177L29.5769 28.7324C29.9489 28.2632 30.3731 27.8381 30.8415 27.4652L31.9268 28.5505C32.1882 28.8102 32.5909 28.8633 32.9106 28.6793C33.3275 28.4403 33.7734 28.2554 34.237 28.1293C34.593 28.0325 34.8397 27.7093 34.8397 27.3408V25.8096C35.4351 25.7426 36.0356 25.7426 36.631 25.8096V27.3433C36.6305 27.7119 36.8777 28.035 37.2332 28.1318C37.6973 28.258 38.1432 28.4429 38.5601 28.6818C38.8798 28.8659 39.2829 28.8132 39.5447 28.5531L40.6296 27.4652C41.0988 27.838 41.5235 28.2632 41.8964 28.7324L40.8085 29.8177C40.5479 30.0786 40.4952 30.4822 40.6793 30.8015C40.9182 31.2184 41.1027 31.6643 41.2293 32.1278C41.3261 32.4839 41.6488 32.7306 42.0178 32.7306H43.5529H43.5524C43.619 33.3259 43.619 33.9264 43.5524 34.5218H42.0182C41.6497 34.5218 41.3265 34.7685 41.2297 35.1241C41.1036 35.5881 40.9186 36.034 40.6793 36.4509C40.4957 36.7702 40.5484 37.1733 40.8085 37.4347L41.8938 38.52C41.5218 38.9896 41.0975 39.4152 40.6291 39.7885L39.5447 38.7032C39.2829 38.4431 38.8797 38.39 38.56 38.574C38.1431 38.8134 37.6972 38.9983 37.2332 39.1245C36.8776 39.2213 36.6305 39.5444 36.6309 39.913V41.4467C36.0356 41.5137 35.4351 41.5137 34.8397 41.4467V39.9091C34.8397 39.5406 34.593 39.2174 34.237 39.1206C33.7734 38.994 33.3275 38.8091 32.9106 38.5702C32.5913 38.3861 32.1878 38.4393 31.9268 38.6994L30.8415 39.7886C30.3723 39.4157 29.9471 38.9906 29.5743 38.5214L30.66 37.436C30.9201 37.1746 30.9728 36.7715 30.7892 36.4523C30.5503 36.0349 30.3654 35.5894 30.2388 35.1254C30.142 34.7699 29.8193 34.5232 29.4503 34.5232H27.9186C27.8517 33.9274 27.8517 33.3264 27.9187 32.7306ZM35.7354 37.6594C36.8056 37.6594 37.8317 37.2343 38.5886 36.4772C39.3452 35.7207 39.7704 34.6942 39.7704 33.624C39.7704 32.5538 39.3452 31.5277 38.5886 30.7707C37.8317 30.0142 36.8056 29.589 35.7354 29.589C34.6652 29.589 33.6386 30.0141 32.8821 30.7707C32.1256 31.5276 31.7004 32.5537 31.7004 33.624C31.7012 34.6937 32.1268 35.7194 32.8833 36.4759C33.6398 37.2325 34.6655 37.6581 35.7353 37.6593L35.7354 37.6594ZM35.7354 31.2235C36.3722 31.2235 36.9827 31.4762 37.4329 31.9264C37.8831 32.3766 38.1363 32.9876 38.1363 33.624C38.1363 34.2609 37.8831 34.8713 37.4329 35.322C36.9827 35.7722 36.3722 36.025 35.7354 36.025C35.0985 36.025 34.4881 35.7722 34.0378 35.322C33.5876 34.8714 33.3344 34.2609 33.3344 33.624C33.3357 32.988 33.5889 32.3784 34.0391 31.9287C34.4893 31.4789 35.0989 31.2261 35.7353 31.2253L35.7354 31.2235ZM61.6082 47.4482C61.9975 47.4482 62.3332 47.173 62.4092 46.791C62.655 45.5545 62.655 44.2813 62.4092 43.0447C62.3332 42.6624 61.9975 42.3876 61.6082 42.3876H59.9711C59.9028 42.2035 59.8277 42.0216 59.7451 41.8432L60.9026 40.6857C61.1787 40.4101 61.2215 39.9776 61.0046 39.6535C60.3068 38.6045 59.4069 37.7054 58.3582 37.0072C58.0333 36.7912 57.6013 36.8339 57.3256 37.11L56.1686 38.2671C55.9897 38.1845 55.8078 38.1094 55.6233 38.0411L55.6238 36.404C55.6238 36.0143 55.349 35.679 54.9671 35.6026C53.7301 35.3576 52.4573 35.3576 51.2203 35.6026C50.8384 35.6795 50.5636 36.0147 50.5636 36.404V38.0411C50.3791 38.1089 50.1976 38.1845 50.0192 38.2671L48.8622 37.11C48.5865 36.8339 48.154 36.7912 47.8295 37.0081C46.7801 37.7071 45.8806 38.6084 45.1832 39.6592C44.9663 39.9836 45.0091 40.4157 45.2852 40.6913L46.4422 41.8488C46.3597 42.0268 46.2841 42.2087 46.2162 42.3932L44.5792 42.3936C44.1903 42.3923 43.8546 42.6654 43.7764 43.0465C43.5315 44.2835 43.5315 45.5562 43.7764 46.7932C43.8529 47.1751 44.1886 47.4499 44.5779 47.4499H46.2154C46.2832 47.6344 46.3588 47.8159 46.4414 47.9943L45.2839 49.1518C45.0078 49.4275 44.965 49.8599 45.1819 50.1844C45.8801 51.2347 46.7809 52.1352 47.8308 52.8333C48.1557 53.0498 48.5878 53.0065 48.8634 52.7309L50.0204 51.5739C50.1993 51.6564 50.3808 51.7316 50.5648 51.7998V53.4369C50.5648 53.8266 50.8401 54.1619 51.222 54.2379C52.459 54.4833 53.7314 54.4833 54.9683 54.2379C55.3502 54.1619 55.625 53.8262 55.625 53.4369V51.7986C55.8095 51.7312 55.9914 51.6556 56.1703 51.5726L57.3255 52.7297C57.6012 53.0053 58.0332 53.0485 58.3581 52.8321C59.408 52.1339 60.3089 51.2331 61.007 50.1832C61.2239 49.8587 61.1811 49.4267 60.9051 49.1506L59.7476 47.9931C59.8301 47.8151 59.9057 47.6332 59.9735 47.4487L61.6082 47.4482ZM59.3757 45.8138C59.0067 45.8133 58.6831 46.0605 58.5864 46.4165C58.4606 46.8801 58.2757 47.326 58.0368 47.7429C57.8532 48.0626 57.9059 48.4653 58.166 48.7267L59.2513 49.812H59.2509C58.8801 50.2812 58.4567 50.7063 57.9888 51.0792L56.904 49.9952C56.6426 49.7355 56.2395 49.6823 55.9198 49.8664C55.5028 50.1049 55.0569 50.2898 54.5934 50.416C54.2378 50.5127 53.9911 50.8359 53.9907 51.2045V52.7387C53.3957 52.8052 52.7948 52.8052 52.1998 52.7387V51.2023C52.1994 50.8337 51.9527 50.511 51.5971 50.4138C51.1335 50.288 50.6877 50.1031 50.2708 49.8642C49.951 49.6806 49.5475 49.7333 49.2861 49.9934L48.2008 51.0791C47.732 50.7067 47.3069 50.2816 46.9345 49.8128L48.0202 48.727V48.7266C48.2803 48.4652 48.333 48.0625 48.1494 47.7428C47.91 47.3263 47.7256 46.8805 47.5994 46.4169C47.5026 46.0609 47.1794 45.8142 46.8105 45.8142H45.278C45.2119 45.2188 45.2119 44.6179 45.278 44.0225H46.8122C47.1812 44.0229 47.5044 43.7758 47.6007 43.4202C47.7273 42.9562 47.9118 42.5107 48.1507 42.0934C48.3348 41.7741 48.2821 41.3706 48.0216 41.1096L46.9362 40.0243C47.3078 39.5547 47.7325 39.1291 48.2009 38.7558L49.2862 39.8411C49.5476 40.1012 49.9507 40.1539 50.27 39.9703C50.6874 39.7313 51.1328 39.5469 51.5968 39.4203C51.9524 39.3239 52.1995 39.0007 52.2 38.6322V37.1027C52.7949 37.0366 53.3958 37.0366 53.9908 37.1027V38.6374C53.9912 39.0059 54.2379 39.3287 54.5935 39.4255C55.0571 39.552 55.503 39.7365 55.9199 39.9755C56.2396 40.1591 56.6427 40.1064 56.9041 39.8463L57.989 38.7558C58.4582 39.1282 58.8833 39.5533 59.2557 40.0225L58.1704 41.1083C57.9103 41.3697 57.8576 41.7728 58.0412 42.0921C58.2802 42.509 58.4651 42.9544 58.5917 43.418C58.6884 43.774 59.0116 44.0207 59.3802 44.0207H60.9144C60.9818 44.6161 60.9818 45.217 60.9144 45.8124L59.3757 45.8138ZM53.0954 40.885C52.0252 40.8858 50.9991 41.311 50.243 42.0679C49.4865 42.8249 49.0618 43.8514 49.0622 44.9216C49.0626 45.9914 49.4878 47.0175 50.2447 47.774C51.0012 48.5306 52.0278 48.9553 53.098 48.9553C54.1677 48.9553 55.1938 48.5297 55.9504 47.7732C56.7073 47.0166 57.1321 45.9901 57.1321 44.9203C57.1312 43.8501 56.7052 42.824 55.9483 42.0675C55.1913 41.3109 54.1652 40.8858 53.0954 40.885ZM53.0954 47.3204C52.4586 47.3204 51.8477 47.0673 51.3974 46.6171C50.9471 46.1669 50.6945 45.5559 50.6945 44.9195C50.6945 44.2826 50.9477 43.6717 51.3978 43.2215C51.848 42.7713 52.459 42.5185 53.0959 42.5185C53.7323 42.519 54.3432 42.7717 54.7934 43.2223C55.2436 43.6725 55.4964 44.2835 55.496 44.9204C55.4951 45.5568 55.2419 46.1669 54.7917 46.6166C54.3419 47.0668 53.7319 47.3196 53.0954 47.3204ZM47.2666 28.6292L48.8475 28.2054C48.9603 28.3666 49.08 28.523 49.2061 28.6737L48.3874 30.093V30.0935C48.193 30.4309 48.2634 30.8586 48.5555 31.1161C49.5042 31.9461 50.6069 32.5817 51.8002 32.9869C52.1687 33.1109 52.5736 32.958 52.768 32.6214L53.5867 31.2021C53.7803 31.2358 53.9751 31.2613 54.1713 31.279L54.5951 32.8599L54.5956 32.8595C54.691 33.2163 55.0142 33.4648 55.3836 33.4652H55.4363H55.4368C56.6953 33.3861 57.9258 33.0574 59.0557 32.4974C59.4047 32.3246 59.5832 31.9297 59.483 31.5534L59.0595 29.9725C59.2203 29.8593 59.3762 29.7396 59.5275 29.6139L60.9468 30.4326C61.2842 30.627 61.7119 30.5566 61.9694 30.2646C62.7994 29.3158 63.4354 28.2132 63.8406 27.0198C63.9642 26.6513 63.8117 26.2465 63.4751 26.052L62.0558 25.2333C62.0895 25.0397 62.1146 24.8462 62.1327 24.6487L63.7136 24.2249L63.7132 24.2245C64.0882 24.1242 64.341 23.7734 64.3172 23.3858C64.2381 22.1273 63.9093 20.8968 63.3494 19.767C63.1783 19.4166 62.7834 19.2355 62.4062 19.3353L60.8262 19.7587C60.7126 19.5985 60.5929 19.4425 60.4668 19.2908L61.2855 17.8715C61.4799 17.5337 61.4095 17.1059 61.117 16.8489C60.1687 16.0189 59.0665 15.3829 57.8732 14.9776C57.5046 14.8536 57.0998 15.0062 56.9054 15.3427L56.0866 16.762C55.8931 16.7292 55.6982 16.7037 55.5021 16.6851L55.0787 15.1051V15.1056C54.9784 14.7301 54.6276 14.4778 54.2401 14.5015C52.9815 14.5806 51.751 14.9094 50.6212 15.4693C50.2721 15.6422 50.0932 16.0371 50.1938 16.4134L50.6173 17.9934C50.457 18.107 50.301 18.2267 50.1493 18.3528L48.7301 17.5341C48.3926 17.3388 47.9645 17.4093 47.7074 17.7022C46.8774 18.651 46.2414 19.7531 45.8362 20.9465C45.7126 21.315 45.8655 21.7194 46.2021 21.9143L47.6214 22.733C47.5886 22.9265 47.5626 23.1201 47.5454 23.3176L45.964 23.741V23.7405C45.589 23.8416 45.3367 24.192 45.36 24.5796C45.4391 25.8382 45.7679 27.0682 46.3278 28.1985C46.4989 28.5467 46.8912 28.7269 47.2666 28.6292ZM48.5368 24.742C48.8933 24.6465 49.1413 24.3242 49.1426 23.9557C49.1443 23.4752 49.2069 22.9969 49.3292 22.5321C49.4234 22.1756 49.267 21.8006 48.9477 21.6161L47.6187 20.8488C47.8589 20.301 48.1592 19.7816 48.5143 19.3003L49.8416 20.0642C50.1609 20.2487 50.5644 20.1955 50.8254 19.9354C51.1667 19.5971 51.5495 19.3033 51.9647 19.0618C52.2836 18.876 52.4387 18.5002 52.3436 18.1437L51.9461 16.6596C52.5035 16.4393 53.0837 16.2837 53.6766 16.1956L54.0732 17.6797C54.1691 18.0357 54.491 18.2841 54.86 18.2854C55.3404 18.2872 55.8191 18.3498 56.284 18.4721C56.6404 18.5663 57.0155 18.4099 57.1999 18.0906L57.9712 16.7642C58.519 17.0036 59.0383 17.3034 59.5196 17.6577L58.7536 18.9884C58.5691 19.3077 58.6223 19.7112 58.8828 19.9726C59.2211 20.3139 59.5145 20.6967 59.7564 21.1124C59.9418 21.4312 60.3176 21.5859 60.6736 21.4904L62.1577 21.0938V21.0934C62.3781 21.6507 62.5336 22.2314 62.6218 22.8238L61.1377 23.2204V23.2208C60.7812 23.3163 60.5332 23.6391 60.5319 24.008C60.5302 24.4885 60.4676 24.9668 60.3453 25.4312C60.2511 25.7877 60.4075 26.1631 60.7268 26.3476L62.0558 27.1149V27.1145C61.8156 27.6623 61.5153 28.1817 61.1602 28.663L59.8316 27.8965C59.5119 27.7129 59.1087 27.7656 58.8474 28.0257C58.506 28.364 58.1232 28.6578 57.7076 28.8997C57.3887 29.0851 57.2341 29.461 57.3295 29.8174L57.7261 31.3015L57.7266 31.3011C57.1692 31.5214 56.5886 31.677 55.9962 31.7647L55.5995 30.2806H55.5991C55.5036 29.9245 55.1813 29.6761 54.8128 29.6748C54.3319 29.6735 53.8536 29.6104 53.3887 29.4877C53.0323 29.3936 52.6568 29.55 52.4723 29.8697L51.705 31.1983L51.7054 31.1978C51.1559 30.9585 50.6352 30.6586 50.1522 30.3039L50.9191 28.9744C51.1027 28.6552 51.05 28.2521 50.7899 27.9907C50.4512 27.6494 50.1574 27.2665 49.9154 26.8513C49.7305 26.5325 49.3542 26.3774 48.9982 26.4724L47.5141 26.8699C47.295 26.3134 47.1408 25.7337 47.054 25.1421L48.5368 24.742ZM52.8055 27.499C53.4203 27.8558 54.1185 28.0442 54.8297 28.0451C55.187 28.0446 55.5426 27.9976 55.8878 27.9047C57.1083 27.578 58.1081 26.7023 58.592 25.5344C59.0759 24.367 58.9891 23.041 58.3574 21.9462C57.7257 20.8519 56.6206 20.1135 55.3676 19.9485C54.1147 19.7834 52.8561 20.2107 51.9626 21.1042C51.0687 21.9981 50.6419 23.2567 50.8069 24.5096C50.9724 25.7626 51.7108 26.8673 52.8055 27.499ZM52.7347 22.7676V22.768C53.0548 22.2094 53.5858 21.802 54.2084 21.6373C54.8301 21.4688 55.4933 21.5565 56.0502 21.8801C56.6075 22.202 57.0145 22.7321 57.1813 23.3538C57.3477 23.9756 57.2604 24.6383 56.9385 25.1956C56.6166 25.753 56.0865 26.16 55.4648 26.3263C54.8431 26.4931 54.1804 26.4058 53.623 26.084C53.0657 25.7621 52.6587 25.232 52.4923 24.6103C52.3255 23.9885 52.4128 23.3258 52.7347 22.7685L52.7347 22.7676Z" fill="#6C96F9"/>
</svg>
