<svg width="61" height="60" viewBox="0 0 61 60" fill="none" xmlns="http://www.w3.org/2000/svg">
<g clip-path="url(#clip0_483_100558)">
<path d="M55.8125 4.6875H54.875V2.8125C54.875 1.26164 53.6134 0 52.0625 0C50.5116 0 49.25 1.26164 49.25 2.8125V4.6875H11.75V2.8125C11.75 1.26164 10.4884 0 8.9375 0C7.38664 0 6.125 1.26164 6.125 2.8125V4.6875H5.1875C2.60281 4.6875 0.5 6.79031 0.5 9.375V50.625C0.5 53.2097 2.60281 55.3125 5.1875 55.3125H15.5C16.0177 55.3125 16.4375 54.8927 16.4375 54.375C16.4375 53.8573 16.0177 53.4375 15.5 53.4375H5.1875C3.63664 53.4375 2.375 52.1759 2.375 50.625V15H47.375C47.8927 15 48.3125 14.5802 48.3125 14.0625C48.3125 13.5448 47.8927 13.125 47.375 13.125H2.375V9.375C2.375 7.82414 3.63664 6.5625 5.1875 6.5625H6.125V8.4375C6.125 9.98836 7.38664 11.25 8.9375 11.25C10.4884 11.25 11.75 9.98836 11.75 8.4375V6.5625H49.25V8.4375C49.25 9.98836 50.5116 11.25 52.0625 11.25C53.6134 11.25 54.875 9.98836 54.875 8.4375V6.5625H55.8125C57.3634 6.5625 58.625 7.82414 58.625 9.375V13.125H56.75C56.2323 13.125 55.8125 13.5448 55.8125 14.0625C55.8125 14.5802 56.2323 15 56.75 15H58.625V50.625C58.625 52.1759 57.3634 53.4375 55.8125 53.4375H45.4998C44.982 53.4375 44.5623 53.8573 44.5623 54.375C44.5623 54.8927 44.982 55.3125 45.4998 55.3125H55.8125C58.3972 55.3125 60.5 53.2097 60.5 50.625V9.375C60.5 6.79031 58.3972 4.6875 55.8125 4.6875ZM9.875 8.4375C9.875 8.95441 9.45441 9.375 8.9375 9.375C8.42059 9.375 8 8.95441 8 8.4375V5.62617C8 5.62582 8 5.62535 8 5.625C8 5.62465 8 5.6243 8 5.62383V2.8125C8 2.29559 8.42059 1.875 8.9375 1.875C9.45441 1.875 9.875 2.29559 9.875 2.8125V8.4375ZM52.0625 9.375C51.5456 9.375 51.125 8.95441 51.125 8.4375V2.8125C51.125 2.29559 51.5456 1.875 52.0625 1.875C52.5794 1.875 53 2.29559 53 2.8125V5.62277C53 5.62359 52.9999 5.6243 52.9999 5.625C52.9999 5.6257 53 5.62652 53 5.62723V8.4375C53 8.95441 52.5794 9.375 52.0625 9.375Z" fill="#836851"/>
<path d="M53 15C53.5177 15 53.9375 14.5802 53.9375 14.0625C53.9375 13.5448 53.5177 13.125 53 13.125H51.125C50.6073 13.125 50.1875 13.5448 50.1875 14.0625C50.1875 14.5802 50.6073 15 51.125 15H53Z" fill="#836851"/>
<path d="M29.5625 23.4375H31.4375C31.9552 23.4375 32.375 23.0177 32.375 22.5C32.375 21.9823 31.9552 21.5625 31.4375 21.5625H29.5625C29.0448 21.5625 28.625 21.9823 28.625 22.5C28.625 23.0177 29.0448 23.4375 29.5625 23.4375Z" fill="#836851"/>
<path d="M29.5625 28.125H31.4375C31.9552 28.125 32.375 27.7052 32.375 27.1875C32.375 26.6698 31.9552 26.25 31.4375 26.25H29.5625C29.0448 26.25 28.625 26.6698 28.625 27.1875C28.625 27.7052 29.0448 28.125 29.5625 28.125Z" fill="#836851"/>
<path d="M36.125 23.4375H38C38.5177 23.4375 38.9375 23.0177 38.9375 22.5C38.9375 21.9823 38.5177 21.5625 38 21.5625H36.125C35.6073 21.5625 35.1875 21.9823 35.1875 22.5C35.1875 23.0177 35.6073 23.4375 36.125 23.4375Z" fill="#836851"/>
<path d="M36.125 28.125H38C38.5177 28.125 38.9375 27.7052 38.9375 27.1875C38.9375 26.6698 38.5177 26.25 38 26.25H36.125C35.6073 26.25 35.1875 26.6698 35.1875 27.1875C35.1875 27.7052 35.6073 28.125 36.125 28.125Z" fill="#836851"/>
<path d="M23 23.4375H24.875C25.3927 23.4375 25.8125 23.0177 25.8125 22.5C25.8125 21.9823 25.3927 21.5625 24.875 21.5625H23C22.4823 21.5625 22.0625 21.9823 22.0625 22.5C22.0625 23.0177 22.4823 23.4375 23 23.4375Z" fill="#836851"/>
<path d="M23 28.125H24.875C25.3927 28.125 25.8125 27.7052 25.8125 27.1875C25.8125 26.6698 25.3927 26.25 24.875 26.25H23C22.4823 26.25 22.0625 26.6698 22.0625 27.1875C22.0625 27.7052 22.4823 28.125 23 28.125Z" fill="#836851"/>
<path d="M16.4375 23.4375H18.3125C18.8302 23.4375 19.25 23.0177 19.25 22.5C19.25 21.9823 18.8302 21.5625 18.3125 21.5625H16.4375C15.9198 21.5625 15.5 21.9823 15.5 22.5C15.5 23.0177 15.9198 23.4375 16.4375 23.4375Z" fill="#836851"/>
<path d="M16.4375 28.125H18.3125C18.8302 28.125 19.25 27.7052 19.25 27.1875C19.25 26.6698 18.8302 26.25 18.3125 26.25H16.4375C15.9198 26.25 15.5 26.6698 15.5 27.1875C15.5 27.7052 15.9198 28.125 16.4375 28.125Z" fill="#836851"/>
<path d="M16.4375 32.8125H18.3125C18.8302 32.8125 19.25 32.3927 19.25 31.875C19.25 31.3573 18.8302 30.9375 18.3125 30.9375H16.4375C15.9198 30.9375 15.5 31.3573 15.5 31.875C15.5 32.3927 15.9198 32.8125 16.4375 32.8125Z" fill="#836851"/>
<path d="M15.7742 37.2258C15.9488 37.4004 16.1914 37.5 16.4375 37.5C16.6848 37.5 16.9262 37.4004 17.1008 37.2258C17.2754 37.0512 17.375 36.8086 17.375 36.5625C17.375 36.3164 17.2754 36.0738 17.1008 35.8992C16.9262 35.7246 16.6848 35.625 16.4375 35.625C16.1902 35.625 15.9488 35.7246 15.7742 35.8992C15.5996 36.0738 15.5 36.3152 15.5 36.5625C15.5 36.8098 15.5996 37.0512 15.7742 37.2258Z" fill="#836851"/>
<path d="M42.6875 23.4375H44.5625C45.0802 23.4375 45.5 23.0177 45.5 22.5C45.5 21.9823 45.0802 21.5625 44.5625 21.5625H42.6875C42.1698 21.5625 41.75 21.9823 41.75 22.5C41.75 23.0177 42.1698 23.4375 42.6875 23.4375Z" fill="#836851"/>
<path d="M42.6875 28.125H44.5625C45.0802 28.125 45.5 27.7052 45.5 27.1875C45.5 26.6698 45.0802 26.25 44.5625 26.25H42.6875C42.1698 26.25 41.75 26.6698 41.75 27.1875C41.75 27.7052 42.1698 28.125 42.6875 28.125Z" fill="#836851"/>
<path d="M42.6875 32.8125H44.5625C45.0802 32.8125 45.5 32.3927 45.5 31.875C45.5 31.3573 45.0802 30.9375 44.5625 30.9375H42.6875C42.1698 30.9375 41.75 31.3573 41.75 31.875C41.75 32.3927 42.1698 32.8125 42.6875 32.8125Z" fill="#836851"/>
<path d="M43.8992 35.8992C43.7246 36.0738 43.625 36.3152 43.625 36.5625C43.625 36.8098 43.7246 37.0512 43.8992 37.2258C44.0738 37.4004 44.3152 37.5 44.5625 37.5C44.8098 37.5 45.0512 37.4004 45.2258 37.2258C45.4004 37.0512 45.5 36.8086 45.5 36.5625C45.5 36.3152 45.4004 36.0738 45.2258 35.8992C45.0512 35.7246 44.8086 35.625 44.5625 35.625C44.3152 35.625 44.0738 35.7246 43.8992 35.8992Z" fill="#836851"/>
<path d="M48.3125 22.5C48.3125 23.0177 48.7323 23.4375 49.25 23.4375H51.125C51.6427 23.4375 52.0625 23.0177 52.0625 22.5C52.0625 21.9823 51.6427 21.5625 51.125 21.5625H49.25C48.7323 21.5625 48.3125 21.9823 48.3125 22.5Z" fill="#836851"/>
<path d="M49.25 28.125H51.125C51.6427 28.125 52.0625 27.7052 52.0625 27.1875C52.0625 26.6698 51.6427 26.25 51.125 26.25H49.25C48.7323 26.25 48.3125 26.6698 48.3125 27.1875C48.3125 27.7052 48.7323 28.125 49.25 28.125Z" fill="#836851"/>
<path d="M49.25 32.8125H51.125C51.6427 32.8125 52.0625 32.3927 52.0625 31.875C52.0625 31.3573 51.6427 30.9375 51.125 30.9375H49.25C48.7323 30.9375 48.3125 31.3573 48.3125 31.875C48.3125 32.3927 48.7323 32.8125 49.25 32.8125Z" fill="#836851"/>
<path d="M49.25 37.5H51.125C51.6427 37.5 52.0625 37.0802 52.0625 36.5625C52.0625 36.0448 51.6427 35.625 51.125 35.625H49.25C48.7323 35.625 48.3125 36.0448 48.3125 36.5625C48.3125 37.0802 48.7323 37.5 49.25 37.5Z" fill="#836851"/>
<path d="M49.25 42.1875H51.125C51.6427 42.1875 52.0625 41.7677 52.0625 41.25C52.0625 40.7323 51.6427 40.3125 51.125 40.3125H49.25C48.7323 40.3125 48.3125 40.7323 48.3125 41.25C48.3125 41.7677 48.7323 42.1875 49.25 42.1875Z" fill="#836851"/>
<path d="M49.25 46.875H51.125C51.6427 46.875 52.0625 46.4552 52.0625 45.9375C52.0625 45.4198 51.6427 45 51.125 45H49.25C48.7323 45 48.3125 45.4198 48.3125 45.9375C48.3125 46.4552 48.7323 46.875 49.25 46.875Z" fill="#836851"/>
<path d="M11.75 21.5625H9.875C9.35727 21.5625 8.9375 21.9823 8.9375 22.5C8.9375 23.0177 9.35727 23.4375 9.875 23.4375H11.75C12.2677 23.4375 12.6875 23.0177 12.6875 22.5C12.6875 21.9823 12.2677 21.5625 11.75 21.5625Z" fill="#836851"/>
<path d="M11.75 26.25H9.875C9.35727 26.25 8.9375 26.6698 8.9375 27.1875C8.9375 27.7052 9.35727 28.125 9.875 28.125H11.75C12.2677 28.125 12.6875 27.7052 12.6875 27.1875C12.6875 26.6698 12.2677 26.25 11.75 26.25Z" fill="#836851"/>
<path d="M11.75 30.9375H9.875C9.35727 30.9375 8.9375 31.3573 8.9375 31.875C8.9375 32.3927 9.35727 32.8125 9.875 32.8125H11.75C12.2677 32.8125 12.6875 32.3927 12.6875 31.875C12.6875 31.3573 12.2677 30.9375 11.75 30.9375Z" fill="#836851"/>
<path d="M11.75 35.625H9.875C9.35727 35.625 8.9375 36.0448 8.9375 36.5625C8.9375 37.0802 9.35727 37.5 9.875 37.5H11.75C12.2677 37.5 12.6875 37.0802 12.6875 36.5625C12.6875 36.0448 12.2677 35.625 11.75 35.625Z" fill="#836851"/>
<path d="M11.75 40.3125H9.875C9.35727 40.3125 8.9375 40.7323 8.9375 41.25C8.9375 41.7677 9.35727 42.1875 9.875 42.1875H11.75C12.2677 42.1875 12.6875 41.7677 12.6875 41.25C12.6875 40.7323 12.2677 40.3125 11.75 40.3125Z" fill="#836851"/>
<path d="M11.75 45H9.875C9.35727 45 8.9375 45.4198 8.9375 45.9375C8.9375 46.4552 9.35727 46.875 9.875 46.875H11.75C12.2677 46.875 12.6875 46.4552 12.6875 45.9375C12.6875 45.4198 12.2677 45 11.75 45Z" fill="#836851"/>
<path d="M30.5 31.875C22.7459 31.875 16.4375 38.1834 16.4375 45.9375C16.4375 53.6916 22.7459 60 30.5 60C38.2541 60 44.5625 53.6916 44.5625 45.9375C44.5625 38.1834 38.2541 31.875 30.5 31.875ZM31.4375 58.0893V57.1875C31.4375 56.6698 31.0177 56.25 30.5 56.25C29.9823 56.25 29.5625 56.6698 29.5625 57.1875V58.0893C23.588 57.6327 18.8048 52.8493 18.3482 46.875H19.25C19.7677 46.875 20.1875 46.4552 20.1875 45.9375C20.1875 45.4198 19.7677 45 19.25 45H18.3482C18.8048 39.0255 23.5882 34.2423 29.5625 33.7857V34.6875C29.5625 35.2052 29.9823 35.625 30.5 35.625C31.0177 35.625 31.4375 35.2052 31.4375 34.6875V33.7857C37.412 34.2423 42.1952 39.0257 42.6518 45H41.75C41.2323 45 40.8125 45.4198 40.8125 45.9375C40.8125 46.4552 41.2323 46.875 41.75 46.875H42.6518C42.1952 52.8495 37.412 57.6327 31.4375 58.0893Z" fill="#836851"/>
<path d="M38 45H33.1512C32.8684 44.2023 32.2353 43.5693 31.4375 43.2863V38.4375C31.4375 37.9198 31.0177 37.5 30.5 37.5C29.9823 37.5 29.5625 37.9198 29.5625 38.4375V43.2863C28.4714 43.6732 27.6875 44.7154 27.6875 45.9375C27.6875 47.4884 28.9491 48.75 30.5 48.75C31.7221 48.75 32.7643 47.9661 33.1512 46.875H38C38.5177 46.875 38.9375 46.4552 38.9375 45.9375C38.9375 45.4198 38.5177 45 38 45ZM30.5 46.875C29.9831 46.875 29.5625 46.4544 29.5625 45.9375C29.5625 45.4206 29.9831 45 30.5 45C31.0169 45 31.4375 45.4206 31.4375 45.9375C31.4375 46.4544 31.0169 46.875 30.5 46.875Z" fill="#836851"/>
</g>
<defs>
<clipPath id="clip0_483_100558">
<rect width="60" height="60" fill="white" transform="translate(0.5)"/>
</clipPath>
</defs>
</svg>
