<svg width="61" height="60" viewBox="0 0 61 60" fill="none" xmlns="http://www.w3.org/2000/svg">
<path d="M57.9893 12.7838L31.1247 0.152649C30.6994 -0.050883 30.2046 -0.050883 29.7792 0.152649L2.91522 12.7838C2.3614 13.044 2.00781 13.6002 2.00781 14.2114C2.00781 49.4259 27.682 59.9997 30.4523 59.9997C33.2219 59.9997 58.8967 49.4259 58.8967 14.2114C58.8967 13.6002 58.5431 13.044 57.9893 12.7838ZM30.5692 56.849C30.318 56.8114 5.65422 48.9541 5.17564 15.2111L30.4523 3.3259L55.7283 15.2111C55.2497 48.9541 30.5894 56.8114 30.5692 56.849Z" fill="#836851"/>
<path d="M23.6668 27.3059C23.047 26.7051 22.0597 26.7126 21.4492 27.3226C20.8387 27.9326 20.8311 28.9197 21.4324 29.5389L27.753 35.8542C28.0499 36.1502 28.4515 36.3162 28.8705 36.3162H28.9232C29.3607 36.3017 29.7727 36.1063 30.0609 35.7767L41.1222 23.1456C41.6969 22.4887 41.6297 21.4913 40.9729 20.9177C40.3155 20.3436 39.3172 20.4106 38.7432 21.0669L28.7941 32.4277L23.6668 27.3059Z" fill="#836851"/>
</svg>
