<svg width="60" height="60" viewBox="0 0 60 60" fill="none" xmlns="http://www.w3.org/2000/svg">
<path d="M18.0397 18.0856L19.2572 1.2854C19.281 0.952667 19.1633 0.62459 18.9341 0.381896C18.7024 0.137649 18.3798 -0.000516024 18.0428 1.44836e-06C15.5917 1.44836e-06 10.6615 1.45565 9.54358 6.96466C8.24622 13.3596 10.0626 17.1971 10.7378 18.3433V25.1781L9.52284 53.9144C9.38491 55.815 9.8884 57.4756 10.941 58.5897C11.8121 59.5124 13.0048 59.9998 14.3903 59.9998C15.7753 59.9998 16.9679 59.5124 17.839 58.5902C18.8911 57.4761 19.3946 55.8161 19.2593 53.9537L18.0428 22.7838L18.0397 18.0856ZM11.9314 7.43556C12.6179 4.05336 15.1385 2.94338 16.7226 2.57805L15.6078 17.9997V22.0583L13.1728 23.2583V17.9997C13.1707 17.7508 13.0919 17.5087 12.9477 17.3053C12.9239 17.2722 10.6169 13.9148 11.9314 7.43556ZM16.0573 56.955C15.6467 57.3892 15.1017 57.5998 14.3903 57.5998C13.6783 57.5998 13.1334 57.3892 12.7232 56.9545C12.1445 56.3424 11.864 55.2971 11.9537 54.0499L13.1416 25.9569L15.6814 24.7057L16.8284 54.0857C16.916 55.2971 16.635 56.3434 16.0573 56.955Z" fill="#836851"/>
<path d="M46.4176 43.8061C45.9244 43.6343 45.4116 43.5246 44.891 43.4806C44.5301 43.3652 41.1337 42.2128 41.1337 39.6854L41.1332 10.7365C41.1099 9.73675 39.1068 4.74936 37.4309 0.74309C37.2391 0.292372 36.7963 0 36.3057 0C35.8152 0 35.3724 0.292372 35.1805 0.74309C33.5046 4.74936 31.5016 9.73675 31.4777 10.7645V39.686C31.4772 42.2123 28.0834 43.3647 27.723 43.4801C27.2014 43.5241 26.6875 43.6338 26.1934 43.8061C22.4517 45.1665 20.6975 49.8176 22.2837 54.1747C23.1335 56.5059 24.8084 58.3895 26.8815 59.3421C27.7977 59.7691 28.7954 59.9926 29.806 59.9983C30.5459 59.9993 31.2807 59.871 31.976 59.6185C34.2778 58.7817 35.8235 56.6973 36.3057 54.2042C36.788 56.6973 38.3332 58.7817 40.6354 59.6185C41.3308 59.871 42.0655 59.9993 42.8055 59.9983C43.8161 59.9926 44.8132 59.7691 45.729 59.3421C47.8015 58.39 49.4779 56.5059 50.3278 54.1747C51.914 49.8176 50.1598 45.1665 46.4176 43.8061ZM41.1135 44.1859C39.6191 44.9533 38.3741 46.1285 37.5232 47.5748V7.45625C38.1812 9.15201 38.6484 10.4421 38.6987 10.7645V39.6854C38.6987 41.7647 39.8561 43.2193 41.1135 44.1859ZM33.9127 39.686L33.9086 10.8462C33.9604 10.4835 34.4292 9.17219 35.0882 7.46505V47.5748C34.2373 46.1285 32.9923 44.9538 31.4979 44.1859C32.7554 43.2193 33.9122 41.7647 33.9127 39.686ZM31.1329 57.3675C30.1145 57.7364 29.0007 57.6666 27.9107 57.1662C26.4226 56.4826 25.2071 55.0968 24.5761 53.3638C21.284 44.3267 34.2207 43.9975 34.0092 52.8846C33.9039 54.956 32.8648 56.7372 31.1329 57.3675ZM48.0359 53.3638C47.4038 55.0968 46.1878 56.4831 44.7002 57.1672C43.6102 57.6666 42.4964 57.7359 41.4786 57.3675C39.7462 56.7372 38.7076 54.956 38.6018 52.8851C38.3918 43.9013 51.2757 44.4659 48.0359 53.3638Z" fill="#836851"/>
</svg>
