<svg width="58" height="58" viewBox="0 0 58 58" fill="none" xmlns="http://www.w3.org/2000/svg">
<path d="M52.765 36.0398C41.7509 35.8162 40.9764 36.4808 35.7189 35.465C34.8712 35.3013 34.1389 35.1596 33.4004 35.1596C31.8768 35.1596 30.4508 36.751 30.9059 38.5325C31.2131 39.7463 32.5202 40.4038 32.5202 43.0814C32.5202 46.9799 29.9517 48.3627 27.753 48.3627C26.3939 48.3627 21.9577 47.7914 21.9577 40.4408C21.9577 39.9004 22.0246 39.4268 22.0888 38.9673C22.2649 37.7157 22.4647 36.2977 20.4666 35.3911C19.5803 34.9888 18.7511 35.164 17.1306 35.4641C12.0422 36.4086 10.6558 35.8752 5.23374 36.0398C4.0701 36.0398 4.06834 37.8002 5.23374 37.8002C10.5141 37.6303 12.1231 38.1831 17.4519 37.1955C18.2784 37.0423 18.9315 36.9209 19.5046 36.9209C19.5257 36.9209 19.6084 36.9349 19.7396 36.9939C20.5388 37.3566 20.5133 37.5379 20.346 38.7218C20.2765 39.2164 20.1973 39.7771 20.1973 40.4408C20.1973 49.8511 26.9802 50.1231 27.753 50.1231C30.8962 50.1231 34.2806 47.9199 34.2806 43.0814C34.2806 39.9602 32.7693 38.7156 32.6117 38.0977C32.3706 37.1568 33.4884 36.8496 33.4004 36.92C33.9699 36.92 34.594 37.0406 35.3844 37.1937C40.7968 38.2394 42.5995 37.5784 52.765 37.8002C53.9304 37.8002 53.9295 36.0398 52.765 36.0398Z" fill="#836851"/>
<path d="M27.7526 46.6022C29.6354 46.6022 30.7594 45.2862 30.7594 43.0813C30.7594 41.7592 30.3114 41.0938 29.9162 40.5067C29.4655 39.8369 28.999 39.145 28.999 36.9199C28.999 24.9182 37.6022 9.33766 37.6893 9.18186C38.2377 8.19955 36.7985 7.32902 36.1833 8.27261C35.6745 9.05423 23.7178 27.5641 23.7178 40.4407C23.7178 46.0019 26.5397 46.6022 27.7526 46.6022ZM28.8177 26.3714C27.8794 29.8703 27.7526 33.5073 27.7526 36.9199C27.9157 39.8319 28.999 41.4569 28.999 41.4569C29.9162 43.1869 29.5407 44.1652 29.5407 44.1652C28.999 45.7902 26.8324 45.2485 26.8324 45.2485C24.6 44.7069 24.6657 42.4485 24.6657 40.4407C24.6657 36.1655 26.9235 31.1316 28.8177 26.3714Z" fill="#836851"/>
<path d="M11.3949 28.1169C14.3559 28.1169 15.7959 29.5569 15.7959 32.5179C15.7959 33.6816 17.5563 33.6833 17.5563 32.5179C17.5563 29.5569 18.9964 28.1169 21.9574 28.1169C23.121 28.1169 23.1228 26.3565 21.9574 26.3565C18.9964 26.3565 17.5563 24.9164 17.5563 21.9554C17.5563 20.7918 15.7959 20.79 15.7959 21.9554C15.7959 24.9164 14.3559 26.3565 11.3949 26.3565C10.2312 26.3565 10.2295 28.1169 11.3949 28.1169ZM16.6761 25.5652C17.0933 26.2588 17.654 26.8194 18.3476 27.2367C17.654 27.6539 17.0933 28.2146 16.6761 28.9082C16.2589 28.2146 15.6982 27.6539 15.0046 27.2367C15.6982 26.8194 16.2589 26.2588 16.6761 25.5652Z" fill="#836851"/>
<path d="M20.1976 14.9164C22.5662 14.9164 23.7184 16.0685 23.7184 18.4372C23.7184 19.6008 25.4789 19.6026 25.4789 18.4372C25.4789 16.0685 26.631 14.9164 28.9997 14.9164C30.1633 14.9164 30.1651 13.1559 28.9997 13.1559C26.631 13.1559 25.4789 12.0037 25.4789 9.63511C25.4789 8.47147 23.7184 8.46971 23.7184 9.63511C23.7184 12.0037 22.5662 13.1559 20.1976 13.1559C19.034 13.1559 19.0322 14.9164 20.1976 14.9164ZM24.5986 12.9262C24.897 13.3663 25.2685 13.7378 25.7086 14.0361C25.2685 14.3345 24.897 14.706 24.5986 15.1461C24.3003 14.706 23.9288 14.3345 23.4887 14.0361C23.9288 13.7378 24.3003 13.3663 24.5986 12.9262Z" fill="#836851"/>
<path d="M34.2809 27.2383C33.1155 27.2383 33.1164 28.9987 34.2809 28.9987C36.6496 28.9987 37.8018 30.1509 37.8018 32.5196C37.8018 33.6841 39.5622 33.6849 39.5622 32.5196C39.5622 30.1509 40.7144 28.9987 43.083 28.9987C44.2484 28.9987 44.2475 27.2383 43.083 27.2383C40.7144 27.2383 39.5622 26.0861 39.5622 23.7175C39.5622 22.553 37.8018 22.5521 37.8018 23.7175C37.8018 26.0861 36.6496 27.2383 34.2809 27.2383ZM38.682 27.0086C38.9804 27.4487 39.3518 27.8201 39.7919 28.1185C39.3518 28.4169 38.9804 28.7883 38.682 29.2285C38.3836 28.7883 38.0121 28.4169 37.572 28.1185C38.0121 27.8201 38.3836 27.4487 38.682 27.0086Z" fill="#836851"/>
</svg>
