<svg width="503" height="298" viewBox="0 0 503 298" fill="none" xmlns="http://www.w3.org/2000/svg">
<path d="M8.42324 250H7.42324V251H8.42324V250ZM28.3732 250V251H29.3732V250H28.3732ZM62.2732 250H61.2732V251H62.2732V250ZM82.2232 250V251H83.2232V250H82.2232ZM28.3732 173.2H27.3732V175.953L29.1402 173.842L28.3732 173.2ZM28.3732 139H29.3732V138H28.3732V139ZM8.42324 139V138H7.42324V139H8.42324ZM8.42324 251H28.3732V249H8.42324V251ZM29.3732 250V205.9H27.3732V250H29.3732ZM29.3732 205.9C29.3732 202.241 29.642 196.739 31.8253 192.175C32.9083 189.912 34.4497 187.907 36.6431 186.464C38.8329 185.024 41.7383 184.1 45.6232 184.1V182.1C41.4082 182.1 38.1074 183.107 35.544 184.793C32.9843 186.477 31.2257 188.794 30.0212 191.312C27.6295 196.311 27.3732 202.209 27.3732 205.9H29.3732ZM45.6232 184.1C49.3506 184.1 53.2081 185.101 56.1462 188.212C59.0938 191.333 61.2732 196.742 61.2732 205.9H63.2732C63.2732 196.458 61.0277 190.467 57.6003 186.838C54.1634 183.199 49.6959 182.1 45.6232 182.1V184.1ZM61.2732 205.9V250H63.2732V205.9H61.2732ZM62.2732 251H82.2232V249H62.2732V251ZM83.2232 250V201.4H81.2232V250H83.2232ZM83.2232 201.4C83.2232 189.516 79.8697 179.958 73.9687 173.358C68.0583 166.748 59.6753 163.2 49.8232 163.2V165.2C59.1712 165.2 66.9882 168.552 72.4778 174.692C77.9768 180.842 81.2232 189.884 81.2232 201.4H83.2232ZM49.8232 163.2C43.5436 163.2 34.032 164.879 27.6063 172.558L29.1402 173.842C35.0145 166.821 43.8029 165.2 49.8232 165.2V163.2ZM29.3732 173.2V139H27.3732V173.2H29.3732ZM28.3732 138H8.42324V140H28.3732V138ZM7.42324 139V250H9.42324V139H7.42324ZM133.765 163.2C107.686 163.2 88.6646 183.775 88.6646 208.6H90.6646C90.6646 184.825 108.843 165.2 133.765 165.2V163.2ZM88.6646 208.6C88.6646 233.284 107.845 253.7 133.765 253.7V251.7C108.985 251.7 90.6646 232.216 90.6646 208.6H88.6646ZM133.765 253.7C159.685 253.7 178.865 233.284 178.865 208.6H176.865C176.865 232.216 158.545 251.7 133.765 251.7V253.7ZM178.865 208.6C178.865 183.775 159.843 163.2 133.765 163.2V165.2C158.686 165.2 176.865 184.825 176.865 208.6H178.865ZM133.765 184.1C147.958 184.1 156.915 195.542 156.915 208.6H158.915C158.915 194.658 149.271 182.1 133.765 182.1V184.1ZM156.915 208.6C156.915 221.638 147.826 232.8 133.765 232.8V234.8C149.103 234.8 158.915 222.562 158.915 208.6H156.915ZM133.765 232.8C119.703 232.8 110.615 221.638 110.615 208.6H108.615C108.615 222.562 118.426 234.8 133.765 234.8V232.8ZM110.615 208.6C110.615 195.542 119.571 184.1 133.765 184.1V182.1C118.258 182.1 108.615 194.658 108.615 208.6H110.615ZM185.312 250H184.312V251H185.312V250ZM205.262 250V251H206.262V250H205.262ZM223.112 183.55L223.104 184.55L224.112 184.558V183.55H223.112ZM223.112 164.2H224.112V163.29L223.206 163.204L223.112 164.2ZM203.912 174.4V175.4H204.508L204.791 174.876L203.912 174.4ZM203.612 174.4H202.612V175.4H203.612V174.4ZM203.612 166.9H204.612V165.9H203.612V166.9ZM185.312 166.9V165.9H184.312V166.9H185.312ZM185.312 251H205.262V249H185.312V251ZM206.262 250V205.15H204.262V250H206.262ZM206.262 205.15C206.262 202.876 206.199 197.65 208.292 193.018C209.329 190.723 210.883 188.604 213.217 187.063C215.548 185.524 218.73 184.514 223.104 184.55L223.12 182.55C218.419 182.511 214.832 183.601 212.115 185.394C209.4 187.186 207.626 189.634 206.469 192.195C204.174 197.275 204.262 202.924 204.262 205.15H206.262ZM224.112 183.55V164.2H222.112V183.55H224.112ZM223.206 163.204C214.867 162.418 207.128 166.362 203.033 173.924L204.791 174.876C208.495 168.038 215.457 164.482 223.018 165.196L223.206 163.204ZM203.912 173.4H203.612V175.4H203.912V173.4ZM204.612 174.4V166.9H202.612V174.4H204.612ZM203.612 165.9H185.312V167.9H203.612V165.9ZM184.312 166.9V250H186.312V166.9H184.312ZM311.809 217.3V218.3H312.67L312.798 217.448L311.809 217.3ZM309.559 226L310.481 226.388L311.064 225H309.559V226ZM287.059 226V225H286.587L286.287 225.364L287.059 226ZM246.709 217.3V216.3H245.428L245.739 217.543L246.709 217.3ZM246.409 199.6L245.46 199.284L245.021 200.6H246.409V199.6ZM291.409 199.6V200.6H292.716L292.374 199.338L291.409 199.6ZM312.798 217.448C313.26 214.363 313.259 211.44 313.259 208.45H311.259C311.259 211.46 311.257 214.237 310.82 217.152L312.798 217.448ZM313.259 208.45C313.259 183.203 295.465 163.2 269.509 163.2V165.2C294.253 165.2 311.259 184.197 311.259 208.45H313.259ZM269.509 163.2C238.788 163.2 224.259 189.633 224.259 209.05H226.259C226.259 190.367 240.229 165.2 269.509 165.2V163.2ZM224.259 209.05C224.259 228.494 238.661 253.7 269.209 253.7V251.7C240.057 251.7 226.259 227.706 226.259 209.05H224.259ZM269.209 253.7C273.152 253.7 299.121 253.404 310.481 226.388L308.637 225.612C297.796 251.396 273.065 251.7 269.209 251.7V253.7ZM309.559 225H287.059V227H309.559V225ZM286.287 225.364C281.599 231.046 274.745 232.8 268.459 232.8V234.8C275.072 234.8 282.618 232.954 287.83 226.636L286.287 225.364ZM268.459 232.8C258.237 232.8 250.11 226.783 247.679 217.057L245.739 217.543C248.407 228.217 257.38 234.8 268.459 234.8V232.8ZM246.709 218.3H311.809V216.3H246.709V218.3ZM247.357 199.916C250.522 190.422 258.992 184.1 269.509 184.1V182.1C258.126 182.1 248.895 188.978 245.46 199.284L247.357 199.916ZM269.509 184.1C279.293 184.1 287.721 189.831 290.444 199.862L292.374 199.338C289.396 188.369 280.124 182.1 269.509 182.1V184.1ZM291.409 198.6H246.409V200.6H291.409V198.6ZM381.206 223V222H380.612L380.328 222.522L381.206 223ZM381.206 194.5L380.315 194.954L380.593 195.5H381.206V194.5ZM403.706 194.5V195.5H405.061L404.662 194.205L403.706 194.5ZM403.706 223L404.65 223.331L405.116 222H403.706V223ZM380.328 222.522C375.063 232.197 364.952 232.8 361.556 232.8V234.8C365.06 234.8 376.249 234.203 382.084 223.478L380.328 222.522ZM361.556 232.8C354.169 232.8 348.214 230.055 344.1 225.637C339.979 221.211 337.656 215.051 337.656 208.15H335.656C335.656 215.499 338.133 222.164 342.637 227C347.148 231.845 353.643 234.8 361.556 234.8V232.8ZM337.656 208.15C337.656 201.696 339.831 195.685 343.879 191.297C347.915 186.921 353.868 184.1 361.556 184.1V182.1C353.344 182.1 346.847 185.129 342.409 189.941C337.981 194.74 335.656 201.254 335.656 208.15H337.656ZM361.556 184.1C369.934 184.1 376.609 187.685 380.315 194.954L382.097 194.046C378.003 186.015 370.578 182.1 361.556 182.1V184.1ZM381.206 195.5H403.706V193.5H381.206V195.5ZM404.662 194.205C398.985 175.794 383.303 163.2 361.856 163.2V165.2C382.41 165.2 397.327 177.206 402.75 194.795L404.662 194.205ZM361.856 163.2C330.129 163.2 315.706 188.081 315.706 207.85H317.706C317.706 188.919 331.483 165.2 361.856 165.2V163.2ZM315.706 207.85C315.706 228.976 330.736 253.7 362.606 253.7V251.7C332.076 251.7 317.706 228.124 317.706 207.85H315.706ZM362.606 253.7C383.78 253.7 398.376 241.234 404.65 223.331L402.762 222.669C396.736 239.866 382.832 251.7 362.606 251.7V253.7ZM403.706 222H381.206V224H403.706V222ZM494.553 166.9H495.553V165.9H494.553V166.9ZM476.253 166.9V165.9H475.253V166.9H476.253ZM476.253 178.6V179.6H477.253V178.6H476.253ZM475.953 178.6L475.109 179.136L475.404 179.6H475.953V178.6ZM475.953 238.75V237.75H475.444L475.145 238.162L475.953 238.75ZM476.253 238.75H477.253V237.75H476.253V238.75ZM476.253 250H475.253V251H476.253V250ZM494.553 250V251H495.553V250H494.553ZM494.553 165.9H476.253V167.9H494.553V165.9ZM475.253 166.9V178.6H477.253V166.9H475.253ZM476.253 177.6H475.953V179.6H476.253V177.6ZM476.798 178.064C470.602 168.307 460.973 163.2 448.803 163.2V165.2C460.333 165.2 469.304 169.993 475.109 179.136L476.798 178.064ZM448.803 163.2C425.236 163.2 406.553 182.615 406.553 209.2H408.553C408.553 183.585 426.471 165.2 448.803 165.2V163.2ZM406.553 209.2C406.553 236.602 426.501 253.7 448.203 253.7V251.7C427.606 251.7 408.553 235.498 408.553 209.2H406.553ZM448.203 253.7C452.653 253.7 466.874 252.935 476.762 239.338L475.145 238.162C465.833 250.965 452.454 251.7 448.203 251.7V253.7ZM475.953 239.75H476.253V237.75H475.953V239.75ZM475.253 238.75V250H477.253V238.75H475.253ZM476.253 251H494.553V249H476.253V251ZM495.553 250V166.9H493.553V250H495.553ZM451.953 184.1C458.89 184.1 464.581 186.694 468.544 190.979C472.514 195.271 474.803 201.318 474.803 208.3H476.803C476.803 200.882 474.367 194.329 470.012 189.621C465.651 184.906 459.417 182.1 451.953 182.1V184.1ZM474.803 208.3C474.803 215.663 472.473 221.781 468.491 226.049C464.514 230.311 458.825 232.8 451.953 232.8V234.8C459.332 234.8 465.567 232.114 469.953 227.413C474.334 222.719 476.803 216.087 476.803 208.3H474.803ZM451.953 232.8C437.976 232.8 428.503 222.768 428.503 209.2H426.503C426.503 223.832 436.831 234.8 451.953 234.8V232.8ZM428.503 209.2C428.503 194.68 438.175 184.1 451.953 184.1V182.1C436.931 182.1 426.503 193.72 426.503 209.2H428.503Z" fill="#0B4050" fill-opacity="0.3"/>
<path d="M3.04766 131H2.04766V132H3.04766V131ZM72.3477 131V132H73.3477V131H72.3477ZM72.3477 111.05H73.3477V110.05H72.3477V111.05ZM27.6477 111.05L26.7883 110.539L25.8891 112.05H27.6477V111.05ZM69.9477 39.95L70.8071 40.4613L70.9477 40.225V39.95H69.9477ZM69.9477 20H70.9477V19H69.9477V20ZM5.44766 20V19H4.44766V20H5.44766ZM5.44766 39.95H4.44766V40.95H5.44766V39.95ZM45.3477 39.95L46.2071 40.4613L47.1062 38.95H45.3477V39.95ZM3.04766 111.05L2.18825 110.539L2.04766 110.775V111.05H3.04766ZM3.04766 132H72.3477V130H3.04766V132ZM73.3477 131V111.05H71.3477V131H73.3477ZM72.3477 110.05H27.6477V112.05H72.3477V110.05ZM28.5071 111.561L70.8071 40.4613L69.0882 39.4387L26.7883 110.539L28.5071 111.561ZM70.9477 39.95V20H68.9477V39.95H70.9477ZM69.9477 19H5.44766V21H69.9477V19ZM4.44766 20V39.95H6.44766V20H4.44766ZM5.44766 40.95H45.3477V38.95H5.44766V40.95ZM44.4883 39.4387L2.18825 110.539L3.90706 111.561L46.2071 40.4613L44.4883 39.4387ZM2.04766 111.05V131H4.04766V111.05H2.04766ZM120.076 74.45V73.45H119.076V74.45H120.076ZM120.076 93.8H119.076V94.8H120.076V93.8ZM166.426 93.8L167.343 94.1987L167.951 92.8H166.426V93.8ZM162.226 52.7L161.371 53.2185L161.663 53.7H162.226V52.7ZM186.826 52.7V53.7H188.275L187.761 52.3453L186.826 52.7ZM192.376 74.45L193.376 74.4614L193.387 73.45H192.376V74.45ZM119.076 74.45V93.8H121.076V74.45H119.076ZM120.076 94.8H166.426V92.8H120.076V94.8ZM165.509 93.4013C159.702 106.756 147.224 112.75 134.026 112.75V114.75C147.828 114.75 161.149 108.444 167.343 94.1987L165.509 93.4013ZM134.026 112.75C109.153 112.75 95.7258 93.9259 95.7258 75.5H93.7258C93.7258 94.8741 107.898 114.75 134.026 114.75V112.75ZM95.7258 75.5C95.7258 58.5315 107.842 39 133.126 39V37C106.51 37 93.7258 57.6685 93.7258 75.5H95.7258ZM133.126 39C138.346 39 153.122 39.615 161.371 53.2185L163.081 52.1815C154.23 37.585 138.406 37 133.126 37V39ZM162.226 53.7H186.826V51.7H162.226V53.7ZM187.761 52.3453C179.346 30.1612 158.99 17.05 133.126 17.05V19.05C158.261 19.05 177.805 31.7388 185.891 53.0547L187.761 52.3453ZM133.126 17.05C93.6085 17.05 73.1758 49.1202 73.1758 76.25H75.1758C75.1758 49.9798 94.9431 19.05 133.126 19.05V17.05ZM73.1758 76.25C73.1758 89.8222 77.9761 104.427 87.9211 115.651C97.8851 126.896 112.973 134.7 133.426 134.7V132.7C113.529 132.7 98.9915 125.129 89.418 114.324C79.8254 103.498 75.1758 89.3778 75.1758 76.25H73.1758ZM133.426 134.7C154.941 134.7 169.892 126.36 179.482 114.607C189.046 102.886 193.224 87.8415 193.376 74.4614L191.376 74.4386C191.228 87.4585 187.156 102.039 177.932 113.343C168.735 124.615 154.361 132.7 133.426 132.7V134.7ZM192.376 73.45H120.076V75.45H192.376V73.45Z" fill="#0B4050" fill-opacity="0.3"/>
</svg>
