<svg width="511" height="51" viewBox="0 0 511 51" fill="none" xmlns="http://www.w3.org/2000/svg">
<path d="M38.7027 50.0211H0V43.6757L24.635 10.0292H1.7723V1.04175H38.6362V7.22906L14.555 41.0788H38.7249V50.0211H38.7027Z" fill="white"/>
<path d="M74.6128 50.0211H45.791V1.04175H73.5057V10.0292H56.6243V20.9361H72.3314V29.8784H56.6243V41.0788H74.6128V50.0211Z" fill="white"/>
<path d="M137.087 50.0211H126.387V20.7102C126.387 17.5488 126.52 14.0487 126.786 10.2324H126.52C125.966 13.2358 125.457 15.4036 125.014 16.7133L113.76 50.0211H104.921L93.4445 17.0521C93.1347 16.1714 92.6251 13.8907 91.9384 10.2099H91.6279C91.9162 15.0423 92.0711 19.2651 92.0711 22.9232V50.0211H82.3232V1.04175H98.1857L108 30.0816C108.775 32.4075 109.351 34.7334 109.705 37.0818H109.905C110.503 34.3721 111.146 32.0236 111.81 30.0138L121.624 1.04175H137.065V50.0211H137.087Z" fill="white"/>
<path d="M145.794 48.1469V37.2175C147.743 38.8885 149.848 40.1304 152.13 40.966C154.412 41.8015 156.715 42.2079 159.042 42.2079C160.415 42.2079 161.589 42.0951 162.608 41.8241C163.628 41.5757 164.469 41.2369 165.156 40.7853C165.843 40.3337 166.352 39.8143 166.684 39.2047C167.017 38.5949 167.194 37.9401 167.194 37.24C167.194 36.2916 166.928 35.4335 166.397 34.6883C165.865 33.9431 165.134 33.2431 164.203 32.6108C163.273 31.9786 162.165 31.3688 160.902 30.7591C159.618 30.172 158.244 29.5623 156.782 28.9526C153.038 27.3493 150.224 25.4073 148.386 23.104C146.547 20.8007 145.617 18.0231 145.617 14.7714C145.617 12.2197 146.126 10.0293 147.123 8.20014C148.12 6.37106 149.493 4.8581 151.222 3.68386C152.949 2.50962 154.966 1.62894 157.247 1.0644C159.529 0.49986 161.944 0.228882 164.492 0.228882C166.995 0.228882 169.211 0.386953 171.138 0.680511C173.065 0.996657 174.86 1.47086 176.477 2.10315V12.31C175.679 11.7454 174.793 11.2487 173.84 10.797C172.887 10.3454 171.913 10.0067 170.916 9.71309C169.919 9.41957 168.9 9.21631 167.925 9.08083C166.951 8.94534 165.976 8.87763 165.09 8.87763C163.871 8.87763 162.741 8.9905 161.744 9.23893C160.748 9.48728 159.884 9.80348 159.196 10.2551C158.51 10.6841 157.978 11.2035 157.58 11.8132C157.181 12.4229 157.004 13.1004 157.004 13.8456C157.004 14.6585 157.225 15.4037 157.646 16.0586C158.067 16.7134 158.665 17.3231 159.463 17.9102C160.238 18.4974 161.191 19.0619 162.32 19.6264C163.428 20.191 164.691 20.7555 166.109 21.3426C168.036 22.1556 169.764 23.0362 171.293 23.9621C172.821 24.8879 174.128 25.9267 175.236 27.0783C176.322 28.23 177.163 29.5623 177.739 31.0527C178.315 32.543 178.604 34.2819 178.604 36.269C178.604 39.0014 178.094 41.3047 177.075 43.1564C176.056 45.008 174.682 46.521 172.932 47.6727C171.182 48.8243 169.166 49.6599 166.84 50.1566C164.536 50.6535 162.077 50.9018 159.507 50.9018C156.871 50.9018 154.367 50.676 151.975 50.2244C149.604 49.7502 147.522 49.0501 145.794 48.1469Z" fill="white"/>
<path d="M226.434 50.0211H212.765L198.763 28.7493C198.498 28.3428 198.077 27.4396 197.501 26.0621H197.324V50.0437H186.491V1.04175H197.324V24.2104H197.501C197.767 23.5781 198.21 22.6523 198.83 21.4781L212.1 1.04175H224.994L208.246 24.4136L226.434 50.0211Z" fill="white"/>
<path d="M241.853 50.0211H231.02V1.04175H241.853V50.0211Z" fill="white"/>
<path d="M288.997 1.04175L273.356 32.6108V50.0437H262.523V32.8366L247.281 1.06433H259.642L267.375 19.3328C267.507 19.6715 267.884 21.0038 268.482 23.3297H268.615C268.903 21.6813 269.258 20.3941 269.656 19.4683L277.521 1.06433H288.997V1.04175Z" fill="white"/>
<path d="M331.155 46.6791C326.325 49.4567 320.963 50.8567 315.071 50.8567C308.203 50.8567 302.665 48.5985 298.433 44.0822C294.202 39.5659 292.075 33.6044 292.075 26.1751C292.075 18.5877 294.423 12.3777 299.12 7.50017C303.817 2.62252 309.776 0.206299 316.998 0.206299C322.226 0.206299 326.613 1.0644 330.18 2.80318V9.14861C326.303 6.64203 321.694 5.40005 316.378 5.40005C310.994 5.40005 306.586 7.29691 303.129 11.068C299.696 14.8391 297.968 19.7393 297.968 25.746C297.968 31.9333 299.563 36.8109 302.753 40.3562C305.943 43.9016 310.285 45.6629 315.758 45.6629C319.502 45.6629 322.758 44.8952 325.505 43.3822V29.6526H314.982V24.4589H331.132V46.6791H331.155Z" fill="white"/>
<path d="M376.771 50.0211H370.058L362.016 36.2915C361.285 35.0269 360.553 33.9204 359.867 33.0398C359.18 32.1591 358.471 31.4139 357.74 30.8268C357.009 30.2397 356.233 29.8332 355.392 29.5848C354.55 29.3138 353.619 29.2009 352.556 29.2009H347.926V50.0437H342.299V1.04175H356.654C358.759 1.04175 360.687 1.31273 362.458 1.85468C364.231 2.39664 365.782 3.20958 367.089 4.29349C368.396 5.37741 369.415 6.7549 370.146 8.38072C370.877 10.0066 371.254 11.926 371.254 14.0939C371.254 15.8101 371.01 17.3682 370.5 18.7908C369.991 20.2135 369.282 21.4781 368.352 22.6071C367.421 23.7136 366.314 24.6846 365.007 25.4524C363.7 26.2427 362.237 26.8525 360.598 27.2815V27.417C361.396 27.7783 362.104 28.2073 362.703 28.659C363.301 29.1332 363.855 29.6752 364.386 30.3074C364.918 30.9397 365.449 31.6623 365.981 32.4753C366.513 33.2882 367.089 34.214 367.731 35.2979L376.771 50.0211ZM347.948 6.2355V24.0072H355.591C357.009 24.0072 358.294 23.7814 359.49 23.3523C360.687 22.9232 361.728 22.291 362.592 21.5006C363.456 20.6877 364.142 19.6941 364.63 18.5199C365.117 17.3456 365.361 16.0359 365.361 14.5681C365.361 11.9486 364.519 9.91629 362.858 8.42588C361.196 6.95809 358.782 6.21292 355.636 6.21292H347.948V6.2355Z" fill="white"/>
<path d="M402.069 50.8567C395.246 50.8567 389.796 48.576 385.697 43.9919C381.599 39.4078 379.538 33.4689 379.538 26.1299C379.538 18.249 381.621 11.9713 385.808 7.27435C389.995 2.57736 395.666 0.228882 402.866 0.228882C409.513 0.228882 414.851 2.50962 418.906 7.07109C422.96 11.6326 424.998 17.5715 424.998 24.9331C424.998 32.927 422.915 39.2498 418.772 43.9015C414.608 48.5308 409.047 50.8567 402.069 50.8567ZM402.489 5.42264C397.438 5.42264 393.34 7.27435 390.194 11.0003C387.048 14.7263 385.476 19.5813 385.476 25.6331C385.476 31.6624 387.004 36.5174 390.083 40.1982C393.163 43.879 397.151 45.7081 402.091 45.7081C407.363 45.7081 411.529 43.9467 414.564 40.4466C417.598 36.9465 419.127 32.0237 419.127 25.7235C419.127 19.2651 417.643 14.252 414.696 10.7293C411.75 7.20658 407.674 5.42264 402.489 5.42264Z" fill="white"/>
<path d="M469.616 30.2171C469.616 43.9693 463.523 50.8566 451.338 50.8566C439.685 50.8566 433.837 44.2402 433.837 31.0075V1.04175H439.486V30.6236C439.486 40.6723 443.651 45.6855 451.959 45.6855C459.978 45.6855 463.989 40.8304 463.989 31.1203V1.04175H469.616V30.2171Z" fill="white"/>
<path d="M487.251 31.5043V50.0211H481.624V1.04175H494.827C499.967 1.04175 503.955 2.30631 506.768 4.85802C509.604 7.40971 510.999 11.0002 510.999 15.652C510.999 20.3038 509.427 24.0975 506.303 27.0556C503.157 30.0138 498.926 31.5043 493.586 31.5043H487.251ZM487.251 6.2355V26.3331H493.144C497.021 26.3331 499.989 25.4298 502.049 23.6233C504.087 21.8167 505.107 19.2651 505.107 15.9456C505.107 9.48722 501.363 6.2355 493.853 6.2355H487.251Z" fill="white"/>
</svg>
