<svg width="1440" height="311" viewBox="0 0 1440 311" fill="none" xmlns="http://www.w3.org/2000/svg">
<path d="M-11.9 131H-12.9V132H-11.9V131ZM8.05 131V132H9.05V131H8.05ZM8.05 91.1L8.84928 90.499L7.05 88.106V91.1H8.05ZM38.05 131L37.2507 131.601L37.5508 132H38.05V131ZM63.25 131V132H65.3185L64.0337 130.379L63.25 131ZM28.3 86.9L27.5381 86.2523L27.0064 86.8778L27.5163 87.5211L28.3 86.9ZM61.45 47.9L62.2119 48.5476L63.6124 46.9H61.45V47.9ZM37.75 47.9V46.9H37.2616L36.9613 47.2852L37.75 47.9ZM8.05 86H7.05V88.9094L8.83868 86.6148L8.05 86ZM8.05 47.9H9.05V46.9H8.05V47.9ZM-11.9 47.9V46.9H-12.9V47.9H-11.9ZM-11.9 132H8.05V130H-11.9V132ZM9.05 131V91.1H7.05V131H9.05ZM7.25072 91.701L37.2507 131.601L38.8493 130.399L8.84928 90.499L7.25072 91.701ZM38.05 132H63.25V130H38.05V132ZM64.0337 130.379L29.0837 86.2789L27.5163 87.5211L62.4663 131.621L64.0337 130.379ZM29.0619 87.5476L62.2119 48.5476L60.6881 47.2523L27.5381 86.2523L29.0619 87.5476ZM61.45 46.9H37.75V48.9H61.45V46.9ZM36.9613 47.2852L7.26132 85.3852L8.83868 86.6148L38.5387 48.5148L36.9613 47.2852ZM9.05 86V47.9H7.05V86H9.05ZM8.05 46.9H-11.9V48.9H8.05V46.9ZM-12.9 47.9V131H-10.9V47.9H-12.9ZM110.512 44.2C84.4329 44.2 65.4117 64.7746 65.4117 89.6H67.4117C67.4117 65.8254 85.5905 46.2 110.512 46.2V44.2ZM65.4117 89.6C65.4117 114.284 84.5917 134.7 110.512 134.7V132.7C85.7318 132.7 67.4117 113.216 67.4117 89.6H65.4117ZM110.512 134.7C136.432 134.7 155.612 114.284 155.612 89.6H153.612C153.612 113.216 135.292 132.7 110.512 132.7V134.7ZM155.612 89.6C155.612 64.7746 136.59 44.2 110.512 44.2V46.2C135.433 46.2 153.612 65.8254 153.612 89.6H155.612ZM110.512 65.1C124.705 65.1 133.662 76.5418 133.662 89.6H135.662C135.662 75.6582 126.018 63.1 110.512 63.1V65.1ZM133.662 89.6C133.662 102.638 124.573 113.8 110.512 113.8V115.8C125.85 115.8 135.662 103.562 135.662 89.6H133.662ZM110.512 113.8C96.4501 113.8 87.3617 102.638 87.3617 89.6H85.3617C85.3617 103.562 95.1733 115.8 110.512 115.8V113.8ZM87.3617 89.6C87.3617 76.5418 96.3184 65.1 110.512 65.1V63.1C95.005 63.1 85.3617 75.6582 85.3617 89.6H87.3617ZM162.059 131H161.059V132H162.059V131ZM182.009 131V132H183.009V131H182.009ZM182.009 69.95L182.949 69.6083L181.009 69.95H182.009ZM204.209 131L203.269 131.342L203.509 132H204.209V131ZM220.709 131V132H221.409L221.649 131.342L220.709 131ZM242.909 69.95H243.909L241.969 69.6083L242.909 69.95ZM242.909 131H241.909V132H242.909V131ZM262.859 131V132H263.859V131H262.859ZM262.859 47.9H263.859V46.9H262.859V47.9ZM233.909 47.9V46.9H233.208L232.969 47.5588L233.909 47.9ZM212.459 107L211.519 107.341L212.459 109.931L213.399 107.341L212.459 107ZM191.009 47.9L191.949 47.5588L191.71 46.9H191.009V47.9ZM162.059 47.9V46.9H161.059V47.9H162.059ZM162.059 132H182.009V130H162.059V132ZM183.009 131V69.95H181.009V131H183.009ZM181.069 70.2917L203.269 131.342L205.149 130.658L182.949 69.6083L181.069 70.2917ZM204.209 132H220.709V130H204.209V132ZM221.649 131.342L243.849 70.2917L241.969 69.6083L219.769 130.658L221.649 131.342ZM241.909 69.95V131H243.909V69.95H241.909ZM242.909 132H262.859V130H242.909V132ZM263.859 131V47.9H261.859V131H263.859ZM262.859 46.9H233.909V48.9H262.859V46.9ZM232.969 47.5588L211.519 106.659L213.399 107.341L234.849 48.2412L232.969 47.5588ZM213.399 106.659L191.949 47.5588L190.069 48.2412L211.519 107.341L213.399 106.659ZM191.009 46.9H162.059V48.9H191.009V46.9ZM161.059 47.9V131H163.059V47.9H161.059ZM274.6 131H273.6V132H274.6V131ZM294.55 131V132H295.55V131H294.55ZM294.55 69.95L295.49 69.6083L293.55 69.95H294.55ZM316.75 131L315.81 131.342L316.05 132H316.75V131ZM333.25 131V132H333.95L334.19 131.342L333.25 131ZM355.45 69.95H356.45L354.51 69.6083L355.45 69.95ZM355.45 131H354.45V132H355.45V131ZM375.4 131V132H376.4V131H375.4ZM375.4 47.9H376.4V46.9H375.4V47.9ZM346.45 47.9V46.9H345.749L345.51 47.5588L346.45 47.9ZM325 107L324.06 107.341L325 109.931L325.94 107.341L325 107ZM303.55 47.9L304.49 47.5588L304.251 46.9H303.55V47.9ZM274.6 47.9V46.9H273.6V47.9H274.6ZM274.6 132H294.55V130H274.6V132ZM295.55 131V69.95H293.55V131H295.55ZM293.61 70.2917L315.81 131.342L317.69 130.658L295.49 69.6083L293.61 70.2917ZM316.75 132H333.25V130H316.75V132ZM334.19 131.342L356.39 70.2917L354.51 69.6083L332.31 130.658L334.19 131.342ZM354.45 69.95V131H356.45V69.95H354.45ZM355.45 132H375.4V130H355.45V132ZM376.4 131V47.9H374.4V131H376.4ZM375.4 46.9H346.45V48.9H375.4V46.9ZM345.51 47.5588L324.06 106.659L325.94 107.341L347.39 48.2412L345.51 47.5588ZM325.94 106.659L304.49 47.5588L302.61 48.2412L324.06 107.341L325.94 106.659ZM303.55 46.9H274.6V48.9H303.55V46.9ZM273.6 47.9V131H275.6V47.9H273.6ZM470.091 98.3V99.3H470.952L471.08 98.4483L470.091 98.3ZM467.841 107L468.763 107.388L469.346 106H467.841V107ZM445.341 107V106H444.87L444.57 106.364L445.341 107ZM404.991 98.3V97.3H403.71L404.021 98.5425L404.991 98.3ZM404.691 80.6L403.742 80.2838L403.304 81.6H404.691V80.6ZM449.691 80.6V81.6H450.999L450.656 80.338L449.691 80.6ZM471.08 98.4483C471.543 95.3631 471.541 92.4399 471.541 89.45H469.541C469.541 92.4601 469.539 95.2369 469.102 98.1517L471.08 98.4483ZM471.541 89.45C471.541 64.2033 453.747 44.2 427.791 44.2V46.2C452.535 46.2 469.541 65.1967 469.541 89.45H471.541ZM427.791 44.2C397.07 44.2 382.541 70.6326 382.541 90.05H384.541C384.541 71.3674 398.512 46.2 427.791 46.2V44.2ZM382.541 90.05C382.541 109.494 396.943 134.7 427.491 134.7V132.7C398.339 132.7 384.541 108.706 384.541 90.05H382.541ZM427.491 134.7C431.435 134.7 457.404 134.404 468.763 107.388L466.919 106.612C456.078 132.396 431.347 132.7 427.491 132.7V134.7ZM467.841 106H445.341V108H467.841V106ZM444.57 106.364C439.882 112.046 433.028 113.8 426.741 113.8V115.8C433.354 115.8 440.901 113.954 446.112 107.636L444.57 106.364ZM426.741 113.8C416.519 113.8 408.393 107.783 405.961 98.0575L404.021 98.5425C406.689 109.217 415.663 115.8 426.741 115.8V113.8ZM404.991 99.3H470.091V97.3H404.991V99.3ZM405.64 80.9162C408.804 71.4223 417.274 65.1 427.791 65.1V63.1C416.408 63.1 407.178 69.9777 403.742 80.2838L405.64 80.9162ZM427.791 65.1C437.576 65.1 446.003 70.8314 448.726 80.8619L450.656 80.338C447.679 69.3686 438.406 63.1 427.791 63.1V65.1ZM449.691 79.6H404.691V81.6H449.691V79.6ZM478.588 158.75H477.588V159.75H478.588V158.75ZM498.538 158.75V159.75H499.538V158.75H498.538ZM498.538 122V121H497.538V122H498.538ZM498.838 122L499.624 121.381L499.323 121H498.838V122ZM497.188 58.7V59.7H497.749L498.042 59.221L497.188 58.7ZM496.888 58.7H495.888V59.7H496.888V58.7ZM496.888 47.9H497.888V46.9H496.888V47.9ZM478.588 47.9V46.9H477.588V47.9H478.588ZM478.588 159.75H498.538V157.75H478.588V159.75ZM499.538 158.75V122H497.538V158.75H499.538ZM498.538 123H498.838V121H498.538V123ZM498.053 122.619C506.116 132.853 516.975 134.7 523.888 134.7V132.7C517.301 132.7 507.16 130.947 499.624 121.381L498.053 122.619ZM523.888 134.7C550.969 134.7 566.588 112.664 566.588 89.45H564.588C564.588 111.836 549.607 132.7 523.888 132.7V134.7ZM566.588 89.45C566.588 62.0616 547.104 44.2 523.888 44.2V46.2C545.972 46.2 564.588 63.1384 564.588 89.45H566.588ZM523.888 44.2C517.333 44.2 503.665 46.1702 496.335 58.179L498.042 59.221C504.812 48.1297 517.543 46.2 523.888 46.2V44.2ZM497.188 57.7H496.888V59.7H497.188V57.7ZM497.888 58.7V47.9H495.888V58.7H497.888ZM496.888 46.9H478.588V48.9H496.888V46.9ZM477.588 47.9V158.75H479.588V47.9H477.588ZM521.788 65.1C529.871 65.1 535.548 68.4759 539.227 73.1556C542.932 77.867 544.638 83.9404 544.638 89.3H546.638C546.638 83.5596 544.82 77.033 540.799 71.9194C536.754 66.7741 530.505 63.1 521.788 63.1V65.1ZM544.638 89.3C544.638 103.484 534.701 113.8 521.038 113.8V115.8C535.876 115.8 546.638 104.516 546.638 89.3H544.638ZM521.038 113.8C514.527 113.8 508.871 111.525 504.842 107.39C500.814 103.255 498.338 97.1816 498.338 89.45H496.338C496.338 97.6184 498.963 104.22 503.409 108.785C507.856 113.35 514.05 115.8 521.038 115.8V113.8ZM498.338 89.45C498.338 75.4035 507.838 65.1 521.788 65.1V63.1C506.638 63.1 496.338 74.3965 496.338 89.45H498.338ZM634.912 47.9H635.912V46.9H634.912V47.9ZM614.962 47.9V46.9H613.962V47.9H614.962ZM614.962 84.8V85.8H615.962V84.8H614.962ZM590.362 47.9H591.362V46.9H590.362V47.9ZM570.412 47.9V46.9H569.412V47.9H570.412ZM614.962 102.5H615.962V101.5H614.962V102.5ZM614.962 131H613.962V132H614.962V131ZM634.912 131V132H635.912V131H634.912ZM634.912 46.9H614.962V48.9H634.912V46.9ZM613.962 47.9V84.8H615.962V47.9H613.962ZM614.962 83.8H603.262V85.8H614.962V83.8ZM603.262 83.8C596.774 83.8 593.973 81.9167 592.667 79.699C591.279 77.3411 591.362 74.3237 591.362 71.45H589.362C589.362 74.1263 589.219 77.7839 590.944 80.7135C592.751 83.7832 596.399 85.8 603.262 85.8V83.8ZM591.362 71.45V47.9H589.362V71.45H591.362ZM590.362 46.9H570.412V48.9H590.362V46.9ZM569.412 47.9V71.45H571.412V47.9H569.412ZM569.412 71.45C569.412 77.0177 568.814 85.1325 572.818 91.7667C576.902 98.5339 585.546 103.5 603.262 103.5V101.5C585.878 101.5 578.096 96.6411 574.53 90.7333C570.884 84.6925 571.412 77.2822 571.412 71.45H569.412ZM603.262 103.5H614.962V101.5H603.262V103.5ZM613.962 102.5V131H615.962V102.5H613.962ZM614.962 132H634.912V130H614.962V132ZM635.912 131V47.9H633.912V131H635.912ZM729.491 98.3V99.3H730.353L730.48 98.4483L729.491 98.3ZM727.241 107L728.163 107.388L728.747 106H727.241V107ZM704.741 107V106H704.27L703.97 106.364L704.741 107ZM664.391 98.3V97.3H663.111L663.421 98.5425L664.391 98.3ZM664.091 80.6L663.143 80.2838L662.704 81.6H664.091V80.6ZM709.091 80.6V81.6H710.399L710.057 80.338L709.091 80.6ZM730.48 98.4483C730.943 95.3631 730.941 92.4399 730.941 89.45H728.941C728.941 92.4601 728.94 95.2369 728.503 98.1517L730.48 98.4483ZM730.941 89.45C730.941 64.2033 713.148 44.2 687.191 44.2V46.2C711.935 46.2 728.941 65.1967 728.941 89.45H730.941ZM687.191 44.2C656.471 44.2 641.941 70.6326 641.941 90.05H643.941C643.941 71.3674 657.912 46.2 687.191 46.2V44.2ZM641.941 90.05C641.941 109.494 656.343 134.7 686.891 134.7V132.7C657.739 132.7 643.941 108.706 643.941 90.05H641.941ZM686.891 134.7C690.835 134.7 716.804 134.404 728.163 107.388L726.32 106.612C715.479 132.396 690.748 132.7 686.891 132.7V134.7ZM727.241 106H704.741V108H727.241V106ZM703.97 106.364C699.282 112.046 692.428 113.8 686.141 113.8V115.8C692.755 115.8 700.301 113.954 705.513 107.636L703.97 106.364ZM686.141 113.8C675.92 113.8 667.793 107.783 665.362 98.0575L663.421 98.5425C666.09 109.217 675.063 115.8 686.141 115.8V113.8ZM664.391 99.3H729.491V97.3H664.391V99.3ZM665.04 80.9162C668.205 71.4223 676.674 65.1 687.191 65.1V63.1C675.809 63.1 666.578 69.9777 663.143 80.2838L665.04 80.9162ZM687.191 65.1C696.976 65.1 705.404 70.8314 708.126 80.8619L710.057 80.338C707.079 69.3686 697.807 63.1 687.191 63.1V65.1ZM709.091 79.6H664.091V81.6H709.091V79.6ZM798.889 104V103H798.294L798.01 103.522L798.889 104ZM798.889 75.5L797.998 75.9542L798.276 76.5H798.889V75.5ZM821.389 75.5V76.5H822.743L822.344 75.2054L821.389 75.5ZM821.389 104L822.332 104.331L822.799 103H821.389V104ZM798.01 103.522C792.746 113.197 782.635 113.8 779.239 113.8V115.8C782.742 115.8 793.931 115.203 799.767 104.478L798.01 103.522ZM779.239 113.8C771.851 113.8 765.896 111.055 761.783 106.637C757.662 102.211 755.339 96.0513 755.339 89.15H753.339C753.339 96.4987 755.816 103.164 760.319 108C764.831 112.845 771.326 115.8 779.239 115.8V113.8ZM755.339 89.15C755.339 82.696 757.514 76.6847 761.561 72.2968C765.598 67.9208 771.55 65.1 779.239 65.1V63.1C771.027 63.1 764.53 66.1292 760.091 70.9407C755.664 75.7403 753.339 82.254 753.339 89.15H755.339ZM779.239 65.1C787.617 65.1 794.292 68.6846 797.998 75.9542L799.78 75.0458C795.686 67.0154 788.261 63.1 779.239 63.1V65.1ZM798.889 76.5H821.389V74.5H798.889V76.5ZM822.344 75.2054C816.667 56.7935 800.985 44.2 779.539 44.2V46.2C800.092 46.2 815.01 58.2065 820.433 75.7946L822.344 75.2054ZM779.539 44.2C747.812 44.2 733.389 69.0808 733.389 88.85H735.389C735.389 69.9192 749.165 46.2 779.539 46.2V44.2ZM733.389 88.85C733.389 109.976 748.418 134.7 780.289 134.7V132.7C749.759 132.7 735.389 109.124 735.389 88.85H733.389ZM780.289 134.7C801.462 134.7 816.059 122.234 822.332 104.331L820.445 103.669C814.419 120.866 800.515 132.7 780.289 132.7V134.7ZM821.389 103H798.889V105H821.389V103ZM829.436 131H828.436V132H829.436V131ZM849.386 131V132H850.386V131H849.386ZM849.386 91.1L850.185 90.499L848.386 88.106V91.1H849.386ZM879.386 131L878.587 131.601L878.887 132H879.386V131ZM904.586 131V132H906.654L905.37 130.379L904.586 131ZM869.636 86.9L868.874 86.2523L868.342 86.8778L868.852 87.5211L869.636 86.9ZM902.786 47.9L903.548 48.5476L904.948 46.9H902.786V47.9ZM879.086 47.9V46.9H878.598L878.297 47.2852L879.086 47.9ZM849.386 86H848.386V88.9094L850.175 86.6148L849.386 86ZM849.386 47.9H850.386V46.9H849.386V47.9ZM829.436 47.9V46.9H828.436V47.9H829.436ZM829.436 132H849.386V130H829.436V132ZM850.386 131V91.1H848.386V131H850.386ZM848.587 91.701L878.587 131.601L880.185 130.399L850.185 90.499L848.587 91.701ZM879.386 132H904.586V130H879.386V132ZM905.37 130.379L870.42 86.2789L868.852 87.5211L903.802 131.621L905.37 130.379ZM870.398 87.5476L903.548 48.5476L902.024 47.2523L868.874 86.2523L870.398 87.5476ZM902.786 46.9H879.086V48.9H902.786V46.9ZM878.297 47.2852L848.597 85.3852L850.175 86.6148L879.875 48.5148L878.297 47.2852ZM850.386 86V47.9H848.386V86H850.386ZM849.386 46.9H829.436V48.9H849.386V46.9ZM828.436 47.9V131H830.436V47.9H828.436ZM994.748 47.9H995.748V46.9H994.748V47.9ZM976.448 47.9V46.9H975.448V47.9H976.448ZM976.448 59.6V60.6H977.448V59.6H976.448ZM976.148 59.6L975.303 60.136L975.598 60.6H976.148V59.6ZM976.148 119.75V118.75H975.638L975.339 119.162L976.148 119.75ZM976.448 119.75H977.448V118.75H976.448V119.75ZM976.448 131H975.448V132H976.448V131ZM994.748 131V132H995.748V131H994.748ZM994.748 46.9H976.448V48.9H994.748V46.9ZM975.448 47.9V59.6H977.448V47.9H975.448ZM976.448 58.6H976.148V60.6H976.448V58.6ZM976.992 59.064C970.797 49.3066 961.168 44.2 948.998 44.2V46.2C960.528 46.2 969.499 50.9933 975.303 60.136L976.992 59.064ZM948.998 44.2C925.43 44.2 906.748 63.6153 906.748 90.2H908.748C908.748 64.5847 926.665 46.2 948.998 46.2V44.2ZM906.748 90.2C906.748 117.602 926.695 134.7 948.398 134.7V132.7C927.8 132.7 908.748 116.498 908.748 90.2H906.748ZM948.398 134.7C952.847 134.7 967.068 133.935 976.956 120.338L975.339 119.162C966.027 131.965 952.648 132.7 948.398 132.7V134.7ZM976.148 120.75H976.448V118.75H976.148V120.75ZM975.448 119.75V131H977.448V119.75H975.448ZM976.448 132H994.748V130H976.448V132ZM995.748 131V47.9H993.748V131H995.748ZM952.148 65.1C959.084 65.1 964.775 67.6944 968.739 71.979C972.709 76.2712 974.998 82.3185 974.998 89.3H976.998C976.998 81.8815 974.562 75.3288 970.207 70.621C965.845 65.9056 959.611 63.1 952.148 63.1V65.1ZM974.998 89.3C974.998 96.6633 972.667 102.781 968.685 107.049C964.709 111.311 959.019 113.8 952.148 113.8V115.8C959.526 115.8 965.762 113.114 970.148 108.413C974.528 103.719 976.998 97.0867 976.998 89.3H974.998ZM952.148 113.8C938.17 113.8 928.698 103.768 928.698 90.2H926.698C926.698 104.832 937.025 115.8 952.148 115.8V113.8ZM928.698 90.2C928.698 75.68 938.37 65.1 952.148 65.1V63.1C937.126 63.1 926.698 74.72 926.698 90.2H928.698ZM1071.27 47.9H1072.27V46.9H1071.27V47.9ZM1026.87 101.6L1027.63 102.249L1028.84 100.829L1026.99 100.607L1026.87 101.6ZM1001.82 131L1001.06 130.351L999.655 132H1001.82V131ZM1026.72 131V132H1027.21L1027.51 131.61L1026.72 131ZM1051.32 99.05H1052.32V96.1121L1050.53 98.4399L1051.32 99.05ZM1051.32 131H1050.32V132H1051.32V131ZM1071.27 131V132H1072.27V131H1071.27ZM1051.32 86.45V87.45H1052.32V86.45H1051.32ZM1051.32 65.6H1052.32V64.6H1051.32V65.6ZM1071.27 46.9H1035.12V48.9H1071.27V46.9ZM1035.12 46.9C1025.06 46.9 1017.22 50.3237 1011.9 55.6491C1006.58 60.9668 1003.82 68.1263 1003.82 75.5H1005.82C1005.82 68.6236 1008.39 61.9832 1013.31 57.0634C1018.22 52.1513 1025.53 48.9 1035.12 48.9V46.9ZM1003.82 75.5C1003.82 89.2791 1012.38 100.874 1026.75 102.593L1026.99 100.607C1013.77 99.0259 1005.82 88.4209 1005.82 75.5H1003.82ZM1026.11 100.951L1001.06 130.351L1002.58 131.649L1027.63 102.249L1026.11 100.951ZM1001.82 132H1026.72V130H1001.82V132ZM1027.51 131.61L1052.11 99.6601L1050.53 98.4399L1025.93 130.39L1027.51 131.61ZM1050.32 99.05V131H1052.32V99.05H1050.32ZM1051.32 132H1071.27V130H1051.32V132ZM1072.27 131V47.9H1070.27V131H1072.27ZM1051.32 85.45H1035.87V87.45H1051.32V85.45ZM1035.87 85.45C1033.19 85.45 1030.65 84.7076 1028.8 83.2469C1026.99 81.8096 1025.77 79.6262 1025.77 76.55H1023.77C1023.77 80.2238 1025.26 82.9904 1027.56 84.8156C1029.84 86.6173 1032.85 87.45 1035.87 87.45V85.45ZM1025.77 76.55C1025.77 73.4649 1026.75 70.9992 1028.44 69.3071C1030.13 67.6157 1032.63 66.6 1035.87 66.6V64.6C1032.21 64.6 1029.16 65.7593 1027.03 67.8929C1024.89 70.0258 1023.77 73.0351 1023.77 76.55H1025.77ZM1035.87 66.6H1051.32V64.6H1035.87V66.6ZM1050.32 65.6V86.45H1052.32V65.6H1050.32Z" fill="#0B4050" fill-opacity="0.3"/>
<path d="M406.1 179.9V178.9H405.1V179.9H406.1ZM406.1 263H405.1V264H406.1V263ZM426.05 263V264H427.05V263H426.05ZM426.05 228.2V227.2H425.05V228.2H426.05ZM456.95 228.2H457.95V227.2H456.95V228.2ZM456.95 263H455.95V264H456.95V263ZM476.9 263V264H477.9V263H476.9ZM476.9 179.9H477.9V178.9H476.9V179.9ZM456.95 179.9V178.9H455.95V179.9H456.95ZM456.95 210.5V211.5H457.95V210.5H456.95ZM426.05 210.5H425.05V211.5H426.05V210.5ZM426.05 179.9H427.05V178.9H426.05V179.9ZM405.1 179.9V263H407.1V179.9H405.1ZM406.1 264H426.05V262H406.1V264ZM427.05 263V228.2H425.05V263H427.05ZM426.05 229.2H456.95V227.2H426.05V229.2ZM455.95 228.2V263H457.95V228.2H455.95ZM456.95 264H476.9V262H456.95V264ZM477.9 263V179.9H475.9V263H477.9ZM476.9 178.9H456.95V180.9H476.9V178.9ZM455.95 179.9V210.5H457.95V179.9H455.95ZM456.95 209.5H426.05V211.5H456.95V209.5ZM427.05 210.5V179.9H425.05V210.5H427.05ZM426.05 178.9H406.1V180.9H426.05V178.9ZM571.562 230.3V231.3H572.423L572.551 230.448L571.562 230.3ZM569.312 239L570.234 239.388L570.817 238H569.312V239ZM546.812 239V238H546.34L546.04 238.364L546.812 239ZM506.462 230.3V229.3H505.181L505.492 230.543L506.462 230.3ZM506.162 212.6L505.213 212.284L504.774 213.6H506.162V212.6ZM551.162 212.6V213.6H552.469L552.127 212.338L551.162 212.6ZM572.551 230.448C573.013 227.363 573.012 224.44 573.012 221.45H571.012C571.012 224.46 571.01 227.237 570.573 230.152L572.551 230.448ZM573.012 221.45C573.012 196.203 555.218 176.2 529.262 176.2V178.2C554.005 178.2 571.012 197.197 571.012 221.45H573.012ZM529.262 176.2C498.541 176.2 484.012 202.633 484.012 222.05H486.012C486.012 203.367 499.982 178.2 529.262 178.2V176.2ZM484.012 222.05C484.012 241.494 498.414 266.7 528.962 266.7V264.7C499.81 264.7 486.012 240.706 486.012 222.05H484.012ZM528.962 266.7C532.905 266.7 558.874 266.404 570.234 239.388L568.39 238.612C557.549 264.396 532.818 264.7 528.962 264.7V266.7ZM569.312 238H546.812V240H569.312V238ZM546.04 238.364C541.352 244.046 534.498 245.8 528.212 245.8V247.8C534.825 247.8 542.371 245.954 547.583 239.636L546.04 238.364ZM528.212 245.8C517.99 245.8 509.863 239.783 507.432 230.057L505.492 230.543C508.16 241.217 517.133 247.8 528.212 247.8V245.8ZM506.462 231.3H571.562V229.3H506.462V231.3ZM507.11 212.916C510.275 203.422 518.745 197.1 529.262 197.1V195.1C517.879 195.1 508.648 201.978 505.213 212.284L507.11 212.916ZM529.262 197.1C539.046 197.1 547.474 202.831 550.197 212.862L552.127 212.338C549.149 201.369 539.877 195.1 529.262 195.1V197.1ZM551.162 211.6H506.162V213.6H551.162V211.6ZM631.959 179.9L632.866 179.478L632.596 178.9H631.959V179.9ZM613.959 179.9V178.9H613.322L613.052 179.478L613.959 179.9ZM583.509 245.3V246.3H584.146L584.416 245.722L583.509 245.3ZM573.609 245.3V244.3H572.609V245.3H573.609ZM573.609 284H572.609V285H573.609V284ZM593.109 284V285H594.109V284H593.109ZM593.109 263V262H592.109V263H593.109ZM652.809 263H653.809V262H652.809V263ZM652.809 284H651.809V285H652.809V284ZM672.309 284V285H673.309V284H672.309ZM672.309 245.3H673.309V244.3H672.309V245.3ZM662.409 245.3L661.502 245.722L661.772 246.3H662.409V245.3ZM606.009 245.3L605.094 244.896L604.474 246.3H606.009V245.3ZM622.959 206.9L623.874 206.496L622.959 204.424L622.044 206.496L622.959 206.9ZM639.909 245.3V246.3H641.443L640.824 244.896L639.909 245.3ZM631.959 178.9H613.959V180.9H631.959V178.9ZM613.052 179.478L582.602 244.878L584.416 245.722L614.866 180.322L613.052 179.478ZM583.509 244.3H573.609V246.3H583.509V244.3ZM572.609 245.3V284H574.609V245.3H572.609ZM573.609 285H593.109V283H573.609V285ZM594.109 284V263H592.109V284H594.109ZM593.109 264H652.809V262H593.109V264ZM651.809 263V284H653.809V263H651.809ZM652.809 285H672.309V283H652.809V285ZM673.309 284V245.3H671.309V284H673.309ZM672.309 244.3H662.409V246.3H672.309V244.3ZM663.316 244.878L632.866 179.478L631.052 180.322L661.502 245.722L663.316 244.878ZM606.924 245.704L623.874 207.304L622.044 206.496L605.094 244.896L606.924 245.704ZM622.044 207.304L638.994 245.704L640.824 244.896L623.874 206.496L622.044 207.304ZM639.909 244.3H606.009V246.3H639.909V244.3ZM677.512 179.9V178.9H676.512V179.9H677.512ZM677.512 263H676.512V264H677.512V263ZM725.512 218.9L725.121 217.98L722.505 219.093L725.241 219.863L725.512 218.9ZM697.462 197V196H696.462V197H697.462ZM697.462 212H696.462V213H697.462V212ZM697.462 229.1V228.1H696.462V229.1H697.462ZM697.462 245.9H696.462V246.9H697.462V245.9ZM676.512 179.9V263H678.512V179.9H676.512ZM677.512 264H713.062V262H677.512V264ZM713.062 264C722.655 264 729.933 260.964 734.818 256.177C739.698 251.395 742.112 244.941 742.112 238.25H740.112C740.112 244.459 737.876 250.38 733.418 254.748C728.966 259.111 722.22 262 713.062 262V264ZM742.112 238.25C742.112 228.759 735.771 220.746 725.783 217.937L725.241 219.863C734.453 222.454 740.112 229.741 740.112 238.25H742.112ZM725.904 219.82C733.21 216.711 739.112 210.11 739.112 201.65H737.112C737.112 209.09 731.914 215.089 725.121 217.98L725.904 219.82ZM739.112 201.65C739.112 196.33 737.275 190.639 733.2 186.268C729.107 181.879 722.83 178.9 714.112 178.9V180.9C722.344 180.9 728.067 183.696 731.737 187.632C735.424 191.586 737.112 196.77 737.112 201.65H739.112ZM714.112 178.9H677.512V180.9H714.112V178.9ZM697.462 198H710.512V196H697.462V198ZM710.512 198C713.421 198 715.145 198.958 716.161 200.158C717.204 201.391 717.612 203.012 717.612 204.5H719.612C719.612 202.688 719.12 200.559 717.688 198.867C716.229 197.142 713.903 196 710.512 196V198ZM717.612 204.5C717.612 206.755 716.73 208.343 715.449 209.387C714.142 210.453 712.353 211 710.512 211V213C712.721 213 714.983 212.347 716.713 210.938C718.469 209.507 719.612 207.345 719.612 204.5H717.612ZM710.512 211H697.462V213H710.512V211ZM698.462 212V197H696.462V212H698.462ZM697.462 230.1H711.712V228.1H697.462V230.1ZM711.712 230.1C715.959 230.1 718.108 231.534 719.234 233.052C720.402 234.626 720.612 236.477 720.612 237.5H722.612C722.612 236.273 722.372 233.924 720.84 231.86C719.267 229.741 716.465 228.1 711.712 228.1V230.1ZM720.612 237.5C720.612 238.991 720.203 240.83 718.944 242.283C717.711 243.705 715.539 244.9 711.712 244.9V246.9C715.985 246.9 718.763 245.545 720.455 243.592C722.121 241.67 722.612 239.309 722.612 237.5H720.612ZM711.712 244.9H697.462V246.9H711.712V244.9ZM698.462 245.9V229.1H696.462V245.9H698.462ZM748.012 179.9V178.9H747.012V179.9H748.012ZM748.012 263H747.012V264H748.012V263ZM767.962 263V264H768.489L768.787 263.565L767.962 263ZM804.862 209.15H805.862V205.922L804.037 208.585L804.862 209.15ZM804.862 263H803.862V264H804.862V263ZM824.812 263V264H825.812V263H824.812ZM824.812 179.9H825.812V178.9H824.812V179.9ZM804.862 179.9V178.9H804.335L804.037 179.335L804.862 179.9ZM767.962 233.75H766.962V236.978L768.787 234.315L767.962 233.75ZM767.962 179.9H768.962V178.9H767.962V179.9ZM747.012 179.9V263H749.012V179.9H747.012ZM748.012 264H767.962V262H748.012V264ZM768.787 263.565L805.687 209.715L804.037 208.585L767.137 262.435L768.787 263.565ZM803.862 209.15V263H805.862V209.15H803.862ZM804.862 264H824.812V262H804.862V264ZM825.812 263V179.9H823.812V263H825.812ZM824.812 178.9H804.862V180.9H824.812V178.9ZM804.037 179.335L767.137 233.185L768.787 234.315L805.687 180.465L804.037 179.335ZM768.962 233.75V179.9H766.962V233.75H768.962ZM767.962 178.9H748.012V180.9H767.962V178.9ZM881.53 263H880.53V264H881.53V263ZM901.48 263V264H902.48V263H901.48ZM901.48 223.1L902.308 222.54L900.48 219.838V223.1H901.48ZM928.48 263L927.651 263.56L927.949 264H928.48V263ZM952.03 263V264H953.945L952.85 262.428L952.03 263ZM921.73 219.5L920.918 218.916L920.504 219.491L920.909 220.072L921.73 219.5ZM950.23 179.9L951.041 180.484L952.181 178.9H950.23V179.9ZM926.68 179.9V178.9H926.142L925.846 179.348L926.68 179.9ZM901.48 218H900.48V221.325L902.314 218.552L901.48 218ZM901.48 179.9H902.48V178.9H901.48V179.9ZM881.53 179.9V178.9H880.53V179.9H881.53ZM881.53 218L880.696 218.552L882.53 221.325V218H881.53ZM856.33 179.9L857.164 179.348L856.867 178.9H856.33V179.9ZM832.78 179.9V178.9H830.828L831.968 180.484L832.78 179.9ZM861.28 219.5L862.1 220.072L862.505 219.491L862.091 218.916L861.28 219.5ZM830.98 263L830.159 262.428L829.064 264H830.98V263ZM854.53 263V264H855.06L855.358 263.56L854.53 263ZM881.53 223.1H882.53V219.838L880.701 222.54L881.53 223.1ZM881.53 264H901.48V262H881.53V264ZM902.48 263V223.1H900.48V263H902.48ZM900.651 223.66L927.651 263.56L929.308 262.44L902.308 222.54L900.651 223.66ZM928.48 264H952.03V262H928.48V264ZM952.85 262.428L922.55 218.928L920.909 220.072L951.209 263.572L952.85 262.428ZM922.541 220.084L951.041 180.484L949.418 179.316L920.918 218.916L922.541 220.084ZM950.23 178.9H926.68V180.9H950.23V178.9ZM925.846 179.348L900.646 217.448L902.314 218.552L927.514 180.452L925.846 179.348ZM902.48 218V179.9H900.48V218H902.48ZM901.48 178.9H881.53V180.9H901.48V178.9ZM880.53 179.9V218H882.53V179.9H880.53ZM882.364 217.448L857.164 179.348L855.496 180.452L880.696 218.552L882.364 217.448ZM856.33 178.9H832.78V180.9H856.33V178.9ZM831.968 180.484L860.468 220.084L862.091 218.916L833.591 179.316L831.968 180.484ZM860.459 218.928L830.159 262.428L831.8 263.572L862.1 220.072L860.459 218.928ZM830.98 264H854.53V262H830.98V264ZM855.358 263.56L882.358 223.66L880.701 222.54L853.701 262.44L855.358 263.56ZM880.53 223.1V263H882.53V223.1H880.53ZM958.006 179.9V178.9H957.006V179.9H958.006ZM958.006 263H957.006V264H958.006V263ZM977.956 263V264H978.483L978.781 263.565L977.956 263ZM1014.86 209.15H1015.86V205.922L1014.03 208.585L1014.86 209.15ZM1014.86 263H1013.86V264H1014.86V263ZM1034.81 263V264H1035.81V263H1034.81ZM1034.81 179.9H1035.81V178.9H1034.81V179.9ZM1014.86 179.9V178.9H1014.33L1014.03 179.335L1014.86 179.9ZM977.956 233.75H976.956V236.978L978.781 234.315L977.956 233.75ZM977.956 179.9H978.956V178.9H977.956V179.9ZM957.006 179.9V263H959.006V179.9H957.006ZM958.006 264H977.956V262H958.006V264ZM978.781 263.565L1015.68 209.715L1014.03 208.585L977.131 262.435L978.781 263.565ZM1013.86 209.15V263H1015.86V209.15H1013.86ZM1014.86 264H1034.81V262H1014.86V264ZM1035.81 263V179.9H1033.81V263H1035.81ZM1034.81 178.9H1014.86V180.9H1034.81V178.9ZM1014.03 179.335L977.131 233.185L978.781 234.315L1015.68 180.465L1014.03 179.335ZM978.956 233.75V179.9H976.956V233.75H978.956ZM977.956 178.9H958.006V180.9H977.956V178.9ZM1046.52 263H1045.52V264H1046.52V263ZM1066.47 263V264H1067.47V263H1066.47ZM1066.47 201.95L1067.41 201.608L1065.47 201.95H1066.47ZM1088.67 263L1087.73 263.342L1087.97 264H1088.67V263ZM1105.17 263V264H1105.87L1106.11 263.342L1105.17 263ZM1127.37 201.95H1128.37L1126.43 201.608L1127.37 201.95ZM1127.37 263H1126.37V264H1127.37V263ZM1147.32 263V264H1148.32V263H1147.32ZM1147.32 179.9H1148.32V178.9H1147.32V179.9ZM1118.37 179.9V178.9H1117.67L1117.43 179.559L1118.37 179.9ZM1096.92 239L1095.98 239.341L1096.92 241.931L1097.86 239.341L1096.92 239ZM1075.47 179.9L1076.41 179.559L1076.17 178.9H1075.47V179.9ZM1046.52 179.9V178.9H1045.52V179.9H1046.52ZM1046.52 264H1066.47V262H1046.52V264ZM1067.47 263V201.95H1065.47V263H1067.47ZM1065.53 202.292L1087.73 263.342L1089.61 262.658L1067.41 201.608L1065.53 202.292ZM1088.67 264H1105.17V262H1088.67V264ZM1106.11 263.342L1128.31 202.292L1126.43 201.608L1104.23 262.658L1106.11 263.342ZM1126.37 201.95V263H1128.37V201.95H1126.37ZM1127.37 264H1147.32V262H1127.37V264ZM1148.32 263V179.9H1146.32V263H1148.32ZM1147.32 178.9H1118.37V180.9H1147.32V178.9ZM1117.43 179.559L1095.98 238.659L1097.86 239.341L1119.31 180.241L1117.43 179.559ZM1097.86 238.659L1076.41 179.559L1074.53 180.241L1095.98 239.341L1097.86 238.659ZM1075.47 178.9H1046.52V180.9H1075.47V178.9ZM1045.52 179.9V263H1047.52V179.9H1045.52ZM1198.96 176.2C1172.89 176.2 1153.86 196.775 1153.86 221.6H1155.86C1155.86 197.825 1174.04 178.2 1198.96 178.2V176.2ZM1153.86 221.6C1153.86 246.284 1173.04 266.7 1198.96 266.7V264.7C1174.18 264.7 1155.86 245.216 1155.86 221.6H1153.86ZM1198.96 266.7C1224.88 266.7 1244.06 246.284 1244.06 221.6H1242.06C1242.06 245.216 1223.74 264.7 1198.96 264.7V266.7ZM1244.06 221.6C1244.06 196.775 1225.04 176.2 1198.96 176.2V178.2C1223.89 178.2 1242.06 197.825 1242.06 221.6H1244.06ZM1198.96 197.1C1213.16 197.1 1222.11 208.542 1222.11 221.6H1224.11C1224.11 207.658 1214.47 195.1 1198.96 195.1V197.1ZM1222.11 221.6C1222.11 234.638 1213.03 245.8 1198.96 245.8V247.8C1214.3 247.8 1224.11 235.562 1224.11 221.6H1222.11ZM1198.96 245.8C1184.9 245.8 1175.81 234.638 1175.81 221.6H1173.81C1173.81 235.562 1183.63 247.8 1198.96 247.8V245.8ZM1175.81 221.6C1175.81 208.542 1184.77 197.1 1198.96 197.1V195.1C1183.46 195.1 1173.81 207.658 1173.81 221.6H1175.81ZM1311.41 236V235H1310.82L1310.53 235.522L1311.41 236ZM1311.41 207.5L1310.52 207.954L1310.8 208.5H1311.41V207.5ZM1333.91 207.5V208.5H1335.27L1334.87 207.205L1333.91 207.5ZM1333.91 236L1334.86 236.331L1335.32 235H1333.91V236ZM1310.53 235.522C1305.27 245.197 1295.16 245.8 1291.76 245.8V247.8C1295.27 247.8 1306.45 247.203 1312.29 236.478L1310.53 235.522ZM1291.76 245.8C1284.37 245.8 1278.42 243.055 1274.31 238.637C1270.19 234.211 1267.86 228.051 1267.86 221.15H1265.86C1265.86 228.499 1268.34 235.164 1272.84 240C1277.35 244.845 1283.85 247.8 1291.76 247.8V245.8ZM1267.86 221.15C1267.86 214.696 1270.04 208.685 1274.08 204.297C1278.12 199.921 1284.07 197.1 1291.76 197.1V195.1C1283.55 195.1 1277.05 198.129 1272.61 202.941C1268.19 207.74 1265.86 214.254 1265.86 221.15H1267.86ZM1291.76 197.1C1300.14 197.1 1306.82 200.685 1310.52 207.954L1312.3 207.046C1308.21 199.015 1300.78 195.1 1291.76 195.1V197.1ZM1311.41 208.5H1333.91V206.5H1311.41V208.5ZM1334.87 207.205C1329.19 188.794 1313.51 176.2 1292.06 176.2V178.2C1312.62 178.2 1327.53 190.206 1332.96 207.795L1334.87 207.205ZM1292.06 176.2C1260.34 176.2 1245.91 201.081 1245.91 220.85H1247.91C1247.91 201.919 1261.69 178.2 1292.06 178.2V176.2ZM1245.91 220.85C1245.91 241.976 1260.94 266.7 1292.81 266.7V264.7C1262.28 264.7 1247.91 241.124 1247.91 220.85H1245.91ZM1292.81 266.7C1313.99 266.7 1328.58 254.234 1334.86 236.331L1332.97 235.669C1326.94 252.866 1313.04 264.7 1292.81 264.7V266.7ZM1333.91 235H1311.41V237H1333.91V235ZM1335.36 179.9V178.9H1334.36V179.9H1335.36ZM1335.36 197.6H1334.36V198.6H1335.36V197.6ZM1355.31 197.6H1356.31V196.6H1355.31V197.6ZM1355.31 263H1354.31V264H1355.31V263ZM1375.26 263V264H1376.26V263H1375.26ZM1375.26 197.6V196.6H1374.26V197.6H1375.26ZM1395.21 197.6V198.6H1396.21V197.6H1395.21ZM1395.21 179.9H1396.21V178.9H1395.21V179.9ZM1334.36 179.9V197.6H1336.36V179.9H1334.36ZM1335.36 198.6H1355.31V196.6H1335.36V198.6ZM1354.31 197.6V263H1356.31V197.6H1354.31ZM1355.31 264H1375.26V262H1355.31V264ZM1376.26 263V197.6H1374.26V263H1376.26ZM1375.26 198.6H1395.21V196.6H1375.26V198.6ZM1396.21 197.6V179.9H1394.21V197.6H1396.21ZM1395.21 178.9H1335.36V180.9H1395.21V178.9ZM1400.45 179.9V178.9H1399.45V179.9H1400.45ZM1400.45 263H1399.45V264H1400.45V263ZM1420.4 209H1419.4V210H1420.4V209ZM1420.4 179.9H1421.4V178.9H1420.4V179.9ZM1420.4 226.7V225.7H1419.4V226.7H1420.4ZM1420.4 245.3H1419.4V246.3H1420.4V245.3ZM1399.45 179.9V263H1401.45V179.9H1399.45ZM1400.45 264H1438.25V262H1400.45V264ZM1438.25 264C1446.48 264 1453.71 261.421 1458.9 256.588C1464.09 251.746 1467.15 244.72 1467.15 236H1465.15C1465.15 244.23 1462.28 250.704 1457.53 255.125C1452.78 259.554 1446.07 262 1438.25 262V264ZM1467.15 236C1467.15 228.756 1464.95 221.747 1460.19 216.538C1455.42 211.312 1448.16 208 1438.25 208V210C1447.69 210 1454.38 213.138 1458.72 217.887C1463.07 222.653 1465.15 229.144 1465.15 236H1467.15ZM1438.25 208H1420.4V210H1438.25V208ZM1421.4 209V179.9H1419.4V209H1421.4ZM1420.4 178.9H1400.45V180.9H1420.4V178.9ZM1420.4 227.7H1436.15V225.7H1420.4V227.7ZM1436.15 227.7C1439.97 227.7 1442.17 228.894 1443.44 230.415C1444.74 231.971 1445.2 234.033 1445.2 236H1447.2C1447.2 233.767 1446.68 231.179 1444.98 229.135C1443.25 227.056 1440.42 225.7 1436.15 225.7V227.7ZM1445.2 236C1445.2 238.13 1444.71 239.665 1444.01 240.783C1443.31 241.903 1442.36 242.667 1441.34 243.191C1439.25 244.257 1436.95 244.3 1436.15 244.3V246.3C1437 246.3 1439.72 246.268 1442.25 244.971C1443.53 244.314 1444.78 243.325 1445.71 241.843C1446.63 240.36 1447.2 238.445 1447.2 236H1445.2ZM1436.15 244.3H1420.4V246.3H1436.15V244.3ZM1421.4 245.3V226.7H1419.4V245.3H1421.4Z" fill="#0B4050" fill-opacity="0.3"/>
</svg>
