<svg width="243" height="65" viewBox="0 0 243 65" fill="none" xmlns="http://www.w3.org/2000/svg">
<g clip-path="url(#clip0_1663_1581)">
<path d="M34.224 28.8385V51.3736H30.0039V27.2573L34.224 28.8385Z" fill="black" fill-opacity="0.5"/>
<path d="M17.3652 26.7377C17.3652 20.9752 20.5196 17.834 24.2175 17.834C27.9154 17.834 28.4376 18.3646 32.6363 20.4552C36.8351 22.5458 37.9007 23.0764 40.0108 23.0764C42.1208 23.0764 43.1652 21.4846 43.1652 18.354H46.8417C47.3746 24.6364 43.6873 27.2577 39.9895 27.2577C36.2916 27.2577 35.2472 26.727 31.5707 24.6364C27.8941 22.5458 26.8284 22.0152 24.7184 22.0152C22.6083 22.0152 21.564 23.607 21.0418 27.2577L17.3652 26.7377Z" fill="black" fill-opacity="0.5"/>
<path d="M32.6362 65C26.1814 65 19.8715 63.0939 14.5045 59.5228C9.13752 55.9516 4.95446 50.8758 2.4843 44.9372C0.0141409 38.9986 -0.632165 32.464 0.62711 26.1596C1.88639 19.8552 4.99468 14.0642 9.55894 9.51904C14.1232 4.97384 19.9384 1.87851 26.2692 0.624493C32.6 -0.629527 39.1621 0.0140818 45.1256 2.47393C51.0891 4.93378 56.1861 9.09938 59.7723 14.444C63.3584 19.7886 65.2725 26.0721 65.2725 32.5C65.2626 41.1165 61.821 49.3773 55.7026 55.4701C49.5843 61.5629 41.2889 64.9902 32.6362 65ZM32.6362 2.12246C26.5987 2.12246 20.6968 3.90532 15.6768 7.24558C10.6568 10.5858 6.74417 15.3335 4.43371 20.8881C2.12326 26.4428 1.51874 32.555 2.6966 38.4517C3.87446 44.3485 6.7818 49.7651 11.051 54.0164C15.3201 58.2678 20.7594 61.163 26.6809 62.3359C32.6024 63.5089 38.7402 62.9069 44.3181 60.606C49.896 58.3052 54.6636 54.4089 58.0178 49.4099C61.3721 44.4108 63.1624 38.5335 63.1624 32.5212C63.1568 24.4607 59.9388 16.7319 54.2153 11.0323C48.4917 5.33261 40.7306 2.12809 32.6362 2.12246Z" fill="black" fill-opacity="0.5"/>
<path d="M85.9783 27.4909V43.3297H84.0015V27.4909H79.6855V25.6338H90.2943V27.4909H85.9783Z" fill="black" fill-opacity="0.5"/>
<path d="M93.7791 26.7959C94.0492 26.7949 94.3134 26.8736 94.5384 27.0223C94.7634 27.1709 94.9391 27.3827 95.0432 27.6308C95.1472 27.8789 95.175 28.1522 95.123 28.416C95.0709 28.6799 94.9414 28.9224 94.7509 29.1129C94.5603 29.3034 94.3173 29.4333 94.0526 29.4861C93.7878 29.539 93.5133 29.5124 93.2637 29.4097C93.0141 29.3071 92.8008 29.133 92.6507 28.9095C92.5006 28.686 92.4204 28.4232 92.4204 28.1543C92.4218 27.7954 92.5652 27.4515 92.8196 27.1972C93.0739 26.9429 93.4187 26.7987 93.7791 26.7959ZM94.7382 32.3196V43.3298H92.82V32.3196H94.7382Z" fill="black" fill-opacity="0.5"/>
<path d="M100.626 23.9839V43.33H98.708V23.9839H100.626Z" fill="black" fill-opacity="0.5"/>
<path d="M113.068 23.9839H114.986V43.33H113.068V41.7912C112.628 42.3751 112.057 42.8475 111.399 43.1702C110.742 43.4928 110.018 43.6567 109.285 43.6484C106.488 43.6484 103.903 41.6851 103.903 37.8116C103.903 33.9382 106.461 32.0545 109.285 32.0545C110.017 32.0358 110.742 32.1923 111.4 32.5108C112.059 32.8294 112.631 33.3007 113.068 33.8851V23.9839ZM105.875 37.8116C105.875 40.1729 107.207 41.9504 109.498 41.9504C111.789 41.9504 113.175 40.0137 113.175 37.8382C113.175 34.9994 111.203 33.7525 109.498 33.7525C107.633 33.7525 105.875 35.132 105.875 37.8116Z" fill="black" fill-opacity="0.5"/>
<path d="M127.428 32.3195H129.346V43.3297H127.428V41.791C126.988 42.3748 126.417 42.8472 125.759 43.1699C125.102 43.4926 124.378 43.6564 123.645 43.6481C120.847 43.6481 118.263 41.6848 118.263 37.8114C118.263 33.9379 120.821 32.0542 123.645 32.0542C124.377 32.0355 125.102 32.192 125.76 32.5106C126.419 32.8291 126.991 33.3004 127.428 33.8848V32.3195ZM120.235 37.8114C120.235 40.1726 121.567 41.9502 123.858 41.9502C126.149 41.9502 127.535 40.0134 127.535 37.8379C127.535 34.9991 125.563 33.7522 123.858 33.7522C121.966 33.7522 120.235 35.1318 120.235 37.8114Z" fill="black" fill-opacity="0.5"/>
<path d="M143.573 25.6338C145.358 25.6338 146.85 25.8407 148.049 26.8807C148.574 27.3611 148.988 27.9488 149.264 28.6036C149.54 29.2585 149.671 29.9649 149.647 30.6746C149.647 33.1685 148.075 35.6358 144.026 35.6358H142.321V43.3297H140.349V25.6338H143.573ZM142.321 33.7787H143.919C146.264 33.7787 147.676 32.6113 147.676 30.595C147.676 27.7828 145.038 27.5175 143.759 27.5175H142.321V33.7787Z" fill="black" fill-opacity="0.5"/>
<path d="M154.283 38.7349C154.283 39.5043 154.283 40.4064 154.816 41.0961C155.065 41.3612 155.366 41.5725 155.701 41.717C156.035 41.8614 156.396 41.936 156.761 41.936C157.125 41.936 157.486 41.8614 157.821 41.717C158.155 41.5725 158.456 41.3612 158.705 41.0961C159.238 40.4064 159.238 39.5043 159.238 38.7349V32.3198H161.157V38.9525C161.157 40.3055 161.023 41.3137 160.144 42.2688C159.242 43.1535 158.027 43.6493 156.761 43.6493C155.495 43.6493 154.279 43.1535 153.377 42.2688C152.498 41.3137 152.365 40.3055 152.365 38.9525V32.3198H154.283V38.7349Z" fill="black" fill-opacity="0.5"/>
<path d="M167.044 43.33H165.126V23.9839H167.044V33.8586C167.494 33.2897 168.069 32.8312 168.725 32.5185C169.381 32.2057 170.1 32.047 170.827 32.0545C174.291 32.0545 176.209 34.9198 176.209 37.8912C176.209 40.8627 174.264 43.6484 170.907 43.6484C170.161 43.6668 169.422 43.5079 168.75 43.1849C168.078 42.8619 167.494 42.3842 167.044 41.7912V43.33ZM174.237 37.8912C174.237 35.1851 172.399 33.7525 170.614 33.7525C168.829 33.7525 166.938 35.2116 166.938 37.8647C166.938 40.1198 168.376 41.9504 170.641 41.9504C172.905 41.9504 174.237 40.0933 174.237 37.8912Z" fill="black" fill-opacity="0.5"/>
<path d="M181.404 23.9839V43.33H179.486V23.9839H181.404Z" fill="black" fill-opacity="0.5"/>
<path d="M186.333 26.7959C186.603 26.7949 186.867 26.8736 187.092 27.0223C187.317 27.1709 187.493 27.3827 187.597 27.6308C187.701 27.8789 187.729 28.1522 187.677 28.416C187.625 28.6799 187.495 28.9224 187.305 29.1129C187.114 29.3034 186.871 29.4333 186.606 29.4861C186.342 29.539 186.067 29.5124 185.817 29.4097C185.568 29.3071 185.355 29.133 185.204 28.9095C185.054 28.686 184.974 28.4232 184.974 28.1543C184.976 27.7954 185.119 27.4515 185.373 27.1972C185.628 26.9429 185.972 26.7987 186.333 26.7959ZM187.292 32.3196V43.3298H185.374V32.3196H187.292Z" fill="black" fill-opacity="0.5"/>
<path d="M195.817 34.8667C195.702 34.548 195.493 34.2712 195.217 34.0724C194.942 33.8737 194.612 33.7622 194.272 33.7524C194.098 33.7363 193.923 33.7575 193.758 33.8147C193.593 33.8719 193.442 33.9637 193.316 34.084C193.189 34.2042 193.091 34.3501 193.026 34.5116C192.961 34.6732 192.932 34.8468 192.94 35.0206C192.94 35.8165 193.473 36.0818 194.725 36.6124C196.324 37.2757 197.07 37.7798 197.496 38.3104C197.906 38.8102 198.114 39.4436 198.082 40.0879C198.082 42.3961 196.404 43.6961 194.272 43.6961C193.408 43.7122 192.563 43.446 191.865 42.9381C191.167 42.4302 190.656 41.7086 190.409 40.8839L192.061 40.1941C192.274 40.7777 192.914 41.9981 194.299 41.9981C194.536 42.0114 194.773 41.9757 194.995 41.8931C195.217 41.8105 195.42 41.6829 195.59 41.5183C195.761 41.3538 195.895 41.1558 195.984 40.937C196.074 40.7182 196.117 40.4833 196.111 40.2471C196.111 39.1859 195.365 38.8675 194.326 38.4165C192.993 37.8328 192.141 37.4084 191.635 36.8247C191.273 36.3648 191.093 35.7892 191.129 35.2063C191.129 33.2696 192.487 32.1288 194.352 32.1288C195.001 32.114 195.64 32.2964 196.182 32.6519C196.725 33.0074 197.146 33.5189 197.389 34.1186L195.817 34.8667Z" fill="black" fill-opacity="0.5"/>
<path d="M200.986 23.9839H202.904V33.5933C203.274 33.1068 203.754 32.714 204.305 32.4467C204.855 32.1793 205.462 32.045 206.074 32.0545C206.687 32.0276 207.297 32.1516 207.85 32.4154C208.403 32.6791 208.882 33.0746 209.245 33.5667C209.804 34.3892 209.884 35.2912 209.884 36.5116V43.33H207.966V36.5647C208.024 35.8555 207.847 35.1468 207.46 34.5484C207.243 34.282 206.966 34.0709 206.651 33.9325C206.335 33.7941 205.992 33.7324 205.648 33.7525C205.28 33.7373 204.914 33.806 204.577 33.9531C204.24 34.1002 203.941 34.3219 203.703 34.6014C202.957 35.4769 202.904 36.7769 202.904 37.5729V43.33H200.986V23.9839Z" fill="black" fill-opacity="0.5"/>
<path d="M214.813 26.7959C215.083 26.7949 215.347 26.8736 215.572 27.0223C215.797 27.1709 215.973 27.3827 216.077 27.6308C216.181 27.8789 216.209 28.1522 216.157 28.416C216.105 28.6799 215.975 28.9224 215.785 29.1129C215.594 29.3034 215.351 29.4333 215.086 29.4861C214.821 29.539 214.547 29.5124 214.297 29.4097C214.048 29.3071 213.834 29.133 213.684 28.9095C213.534 28.686 213.454 28.4232 213.454 28.1543C213.455 27.7954 213.599 27.4515 213.853 27.1972C214.108 26.9429 214.452 26.7987 214.813 26.7959ZM215.799 32.3196V43.3298H213.88V32.3196H215.799Z" fill="black" fill-opacity="0.5"/>
<path d="M219.742 32.3197H221.66V33.5932C222.03 33.1067 222.51 32.7139 223.06 32.4465C223.611 32.1792 224.218 32.0448 224.83 32.0544C225.443 32.0275 226.053 32.1515 226.606 32.4152C227.159 32.679 227.638 33.0745 228.001 33.5666C228.56 34.3891 228.64 35.2911 228.64 36.5115V43.3299H226.722V36.5646C226.78 35.8553 226.602 35.1467 226.216 34.5483C225.999 34.2819 225.721 34.0708 225.406 33.9324C225.091 33.794 224.748 33.7323 224.404 33.7523C224.036 33.7372 223.67 33.8058 223.333 33.953C222.996 34.1001 222.697 34.3218 222.459 34.6013C221.713 35.4768 221.66 36.7768 221.66 37.5727V43.3299H219.742V32.3197Z" fill="black" fill-opacity="0.5"/>
<path d="M241.082 32.3197H243V43.0646C243 44.2585 243 45.9564 241.934 47.3891C241.411 48.0525 240.738 48.5834 239.969 48.9384C239.201 49.2934 238.359 49.4625 237.512 49.432C236.789 49.4559 236.068 49.337 235.391 49.082C234.714 48.827 234.095 48.441 233.569 47.9462C233.104 47.4783 232.738 46.923 232.491 46.3126C232.244 45.7023 232.121 45.0491 232.13 44.3911H234.022C234.02 45.2293 234.322 46.04 234.874 46.6728C235.215 47.0309 235.63 47.3113 236.09 47.4945C236.549 47.6777 237.044 47.7594 237.539 47.734C238.123 47.7797 238.709 47.6593 239.228 47.387C239.746 47.1146 240.177 46.7014 240.469 46.1952C240.939 45.3354 241.152 44.3594 241.082 43.383V41.7911C240.642 42.375 240.071 42.8474 239.413 43.1701C238.756 43.4928 238.032 43.6566 237.299 43.6483C236.601 43.6611 235.908 43.5364 235.258 43.2814C234.609 43.0264 234.017 42.6462 233.516 42.1626C232.971 41.5802 232.549 40.8952 232.275 40.1479C232 39.4007 231.879 38.6063 231.917 37.8115C231.879 37.0288 232 36.2464 232.275 35.5121C232.55 34.7777 232.972 34.1068 233.516 33.5401C234.537 32.5774 235.893 32.0451 237.299 32.0544C238.03 32.0379 238.755 32.1953 239.413 32.5137C240.071 32.8321 240.643 33.3022 241.082 33.885V32.3197ZM235.008 34.7871C234.63 35.1927 234.337 35.6688 234.145 36.1879C233.952 36.707 233.866 37.2588 233.889 37.8115C233.857 38.4084 233.952 39.0053 234.168 39.5631C234.383 40.1209 234.715 40.627 235.141 41.0483C235.782 41.6474 236.633 41.9714 237.512 41.9503C237.958 41.9686 238.404 41.8956 238.821 41.7359C239.238 41.5762 239.617 41.3332 239.936 41.0217C240.345 40.5991 240.666 40.1004 240.881 39.5541C241.096 39.0078 241.2 38.4247 241.188 37.8381C241.225 36.6898 240.803 35.574 240.016 34.734C239.344 34.0915 238.444 33.7388 237.512 33.7524C237.046 33.7461 236.583 33.8346 236.153 34.0125C235.722 34.1904 235.332 34.454 235.008 34.7871Z" fill="black" fill-opacity="0.5"/>
</g>
<defs>
<clipPath id="clip0_1663_1581">
<rect width="243" height="65" fill="white"/>
</clipPath>
</defs>
</svg>
