<svg width="20" height="19" viewBox="0 0 20 19" fill="none" xmlns="http://www.w3.org/2000/svg">
<path d="M19.0663 2.05989C19.0663 1.53351 18.8638 1.08812 18.4994 0.683224C18.0945 0.318814 17.6491 0.116364 17.1228 0.116364H2.87028C2.30342 0.116364 1.85803 0.318814 1.49362 0.683224C1.08872 1.08812 0.926758 1.53351 0.926758 2.05989V16.3124C0.926758 16.8792 1.08872 17.3246 1.49362 17.689C1.85803 18.0939 2.30342 18.2559 2.87028 18.2559H10.8468V11.0892H8.37692V8.33584H10.8468V6.31134C10.8468 5.17762 11.1302 4.32733 11.7781 3.67949C12.4259 3.03165 13.2762 2.70773 14.3694 2.70773C15.1792 2.70773 15.9081 2.74822 16.4749 2.8292V5.2586H15.0173C14.4909 5.2586 14.1265 5.38007 13.9241 5.62301C13.7621 5.86595 13.6811 6.18987 13.6811 6.59477V8.33584H16.4749L16.1105 11.0892H13.6811V18.2559H17.1228C17.6491 18.2559 18.0945 18.0939 18.4994 17.689C18.8638 17.3246 19.0663 16.8792 19.0663 16.3124V2.05989Z" fill="white"/>
</svg>
