<svg width="24" height="24" viewBox="0 0 24 24" fill="none" xmlns="http://www.w3.org/2000/svg">
<path d="M23.002 12.2532C23.002 11.5055 22.9402 10.7537 22.8082 10.0181H12.2227V14.254H18.2845C18.033 15.6201 17.2247 16.8286 16.0412 17.5966V20.3451H19.6577C21.7814 18.4292 23.002 15.5999 23.002 12.2532Z" fill="#4285F4"/>
<path d="M12.2227 23.0006C15.2495 23.0006 17.8021 22.0265 19.6619 20.345L16.0454 17.5965C15.0392 18.2675 13.7402 18.6474 12.2268 18.6474C9.299 18.6474 6.81653 16.7114 5.9258 14.1084H2.19385V16.9418C4.099 20.6563 7.97941 23.0006 12.2227 23.0006Z" fill="#34A853"/>
<path d="M5.92165 14.1085C5.45155 12.7423 5.45155 11.263 5.92165 9.89684V7.06348H2.19381C0.602062 10.1717 0.602062 13.8336 2.19381 16.9419L5.92165 14.1085Z" fill="#FBBC04"/>
<path d="M12.2227 5.35386C13.8227 5.3296 15.3691 5.91972 16.5279 7.00295L19.732 3.8624C17.7031 1.99505 15.0103 0.968406 12.2227 1.00074C7.97941 1.00074 4.099 3.34504 2.19385 7.06357L5.92168 9.89694C6.80828 7.28992 9.29488 5.35386 12.2227 5.35386Z" fill="#EA4335"/>
</svg>
