<svg width="20" height="19" viewBox="0 0 20 19" fill="none" xmlns="http://www.w3.org/2000/svg">
<path d="M9.99653 4.52978C10.8063 4.52978 11.5756 4.77272 12.3045 5.17762C13.0333 5.58252 13.6001 6.14938 14.005 6.8782C14.4099 7.60702 14.6529 8.37633 14.6529 9.18613C14.6529 10.0364 14.4099 10.8057 14.005 11.5346C13.6001 12.2634 13.0333 12.8302 12.3045 13.2351C11.5756 13.64 10.8063 13.8425 9.99653 13.8425C9.14623 13.8425 8.37692 13.64 7.6481 13.2351C6.91928 12.8302 6.35242 12.2634 5.94752 11.5346C5.54262 10.8057 5.34017 10.0364 5.34017 9.18613C5.34017 8.37633 5.54262 7.60702 5.94752 6.8782C6.35242 6.14938 6.91928 5.58252 7.6481 5.17762C8.37692 4.77272 9.14623 4.52978 9.99653 4.52978ZM9.99653 12.2229C10.8063 12.2229 11.5351 11.9395 12.1425 11.3321C12.7094 10.7652 13.0333 10.0364 13.0333 9.18613C13.0333 8.37633 12.7094 7.64751 12.1425 7.04016C11.5351 6.4733 10.8063 6.14938 9.99653 6.14938C9.14623 6.14938 8.41741 6.4733 7.85055 7.04016C7.2432 7.64751 6.95977 8.37633 6.95977 9.18613C6.95977 10.0364 7.2432 10.7652 7.85055 11.3321C8.41741 11.9395 9.14623 12.2229 9.99653 12.2229ZM15.9486 4.32733C15.9486 4.0439 15.8271 3.80096 15.6246 3.55802C15.3817 3.35557 15.1388 3.2341 14.8553 3.2341C14.5314 3.2341 14.2885 3.35557 14.086 3.55802C13.8431 3.80096 13.7621 4.0439 13.7621 4.32733C13.7621 4.65125 13.8431 4.89419 14.086 5.09664C14.2885 5.33958 14.5314 5.42056 14.8553 5.42056C15.1388 5.42056 15.3817 5.33958 15.5842 5.09664C15.7866 4.89419 15.9081 4.65125 15.9486 4.32733ZM19.0258 5.42056C19.0258 6.18987 19.0663 7.44506 19.0663 9.18613C19.0663 10.9677 19.0258 12.2229 18.9853 12.9922C18.9448 13.7615 18.8234 14.4093 18.6614 14.9762C18.4185 15.6645 18.0136 16.2719 17.5277 16.7578C17.0418 17.2436 16.4344 17.6081 15.7866 17.851C15.2197 18.0534 14.5314 18.1749 13.7621 18.2154C12.9928 18.2559 11.7376 18.2559 9.99653 18.2559C8.21496 18.2559 6.95977 18.2559 6.19046 18.2154C5.42115 18.1749 4.77331 18.0534 4.20645 17.8105C3.51812 17.6081 2.91077 17.2436 2.42489 16.7578C1.93901 16.2719 1.5746 15.6645 1.33166 14.9762C1.12921 14.4093 1.00774 13.7615 0.967248 12.9922C0.926758 12.2229 0.926758 10.9677 0.926758 9.18613C0.926758 7.44506 0.926758 6.18987 0.967248 5.42056C1.00774 4.65125 1.12921 3.96292 1.33166 3.39606C1.5746 2.74822 1.93901 2.14087 2.42489 1.65498C2.91077 1.1691 3.51812 0.764204 4.20645 0.521264C4.77331 0.359304 5.42115 0.237834 6.19046 0.197344C6.95977 0.156854 8.21496 0.116364 9.99653 0.116364C11.7376 0.116364 12.9928 0.156854 13.7621 0.197344C14.5314 0.237834 15.2197 0.359304 15.7866 0.521264C16.4344 0.764204 17.0418 1.1691 17.5277 1.65498C18.0136 2.14087 18.4185 2.74822 18.6614 3.39606C18.8234 3.96292 18.9448 4.65125 19.0258 5.42056ZM17.0823 14.5308C17.2442 14.0854 17.3252 13.3566 17.4062 12.3444C17.4062 11.7775 17.4467 10.9272 17.4467 9.83397V8.53829C17.4467 7.44506 17.4062 6.59477 17.4062 6.02791C17.3252 5.01566 17.2442 4.28684 17.0823 3.84145C16.7584 3.03165 16.151 2.4243 15.3412 2.10038C14.8958 1.93842 14.167 1.85743 13.1547 1.77645C12.5474 1.77645 11.6971 1.73596 10.6444 1.73596H9.34869C8.25545 1.73596 7.40516 1.77645 6.8383 1.77645C5.82605 1.85743 5.09723 1.93842 4.65184 2.10038C3.80155 2.4243 3.23469 3.03165 2.91077 3.84145C2.74881 4.28684 2.62734 5.01566 2.58685 6.02791C2.54636 6.63526 2.54636 7.48555 2.54636 8.53829V9.83397C2.54636 10.9272 2.54636 11.7775 2.58685 12.3444C2.62734 13.3566 2.74881 14.0854 2.91077 14.5308C3.23469 15.3811 3.84204 15.948 4.65184 16.2719C5.09723 16.4338 5.82605 16.5553 6.8383 16.5958C7.40516 16.6363 8.25545 16.6363 9.34869 16.6363H10.6444C11.7376 16.6363 12.5879 16.6363 13.1547 16.5958C14.167 16.5553 14.8958 16.4338 15.3412 16.2719C16.151 15.948 16.7584 15.3406 17.0823 14.5308Z" fill="white"/>
</svg>
