<svg width="173" height="32" viewBox="0 0 173 32" fill="none" xmlns="http://www.w3.org/2000/svg">
<path d="M53.3115 11.5942C53.3115 11.9328 53.2671 12.2269 53.1782 12.4766C53.0894 12.7262 52.9645 12.9421 52.8037 13.124C52.6471 13.3018 52.4567 13.4478 52.2324 13.562C52.0124 13.672 51.7669 13.7609 51.4961 13.8286C51.2295 13.8921 50.9438 13.9365 50.6392 13.9619C50.3345 13.9873 50.0192 14 49.6934 14H43.3647V5.27832H49.5791C49.8288 5.27832 50.0785 5.2889 50.3281 5.31006C50.582 5.33122 50.8232 5.37142 51.0518 5.43066C51.2803 5.48568 51.4919 5.56396 51.6865 5.66553C51.8854 5.76709 52.0568 5.90039 52.2007 6.06543C52.3488 6.23047 52.4631 6.42936 52.5435 6.66211C52.6281 6.89486 52.6704 7.16992 52.6704 7.4873C52.6704 8.05436 52.5308 8.50505 52.2515 8.83936C51.9722 9.16943 51.5321 9.38949 50.9312 9.49951C51.3543 9.52913 51.7161 9.59473 52.0166 9.69629C52.3213 9.79362 52.5688 9.92904 52.7593 10.1025C52.9497 10.2718 53.0894 10.4813 53.1782 10.731C53.2671 10.9764 53.3115 11.2642 53.3115 11.5942ZM50.3726 7.86182C50.3726 7.75179 50.3556 7.64811 50.3218 7.55078C50.2879 7.44922 50.2266 7.36035 50.1377 7.28418C50.0488 7.20801 49.9282 7.14665 49.7759 7.1001C49.6235 7.05355 49.4289 7.03027 49.1919 7.03027H45.7197V8.66797H49.1919C49.4289 8.66797 49.6235 8.64681 49.7759 8.60449C49.9282 8.56217 50.0488 8.50505 50.1377 8.43311C50.2266 8.36117 50.2879 8.27653 50.3218 8.1792C50.3556 8.07764 50.3726 7.97184 50.3726 7.86182ZM50.9185 11.3213C50.9185 11.1224 50.8846 10.9637 50.8169 10.8452C50.7492 10.7225 50.6434 10.6294 50.4995 10.5659C50.3556 10.4982 50.1694 10.4538 49.9409 10.4326C49.7124 10.4115 49.4395 10.4009 49.1221 10.4009H45.7197V12.248H49.1221C49.4395 12.248 49.7124 12.2375 49.9409 12.2163C50.1694 12.1951 50.3556 12.1507 50.4995 12.083C50.6434 12.0153 50.7492 11.9222 50.8169 11.8037C50.8846 11.681 50.9185 11.5202 50.9185 11.3213ZM64.0312 12.3496H59.1689L58.35 14H55.7221L60.2861 5.27832H62.914L67.478 14H64.85L64.0312 12.3496ZM60.0131 10.6484H63.1996L61.6127 7.43652L60.0131 10.6484ZM80.5717 11.061C80.5717 11.4969 80.4637 11.9074 80.2479 12.2925C80.0321 12.6776 79.7084 13.014 79.2767 13.3018C78.8451 13.5895 78.3055 13.818 77.6581 13.9873C77.0149 14.1523 76.2616 14.2349 75.3983 14.2349C74.535 14.2349 73.7776 14.1523 73.1259 13.9873C72.4784 13.818 71.9388 13.5895 71.5072 13.3018C71.0756 13.014 70.7518 12.6776 70.536 12.2925C70.3202 11.9074 70.2123 11.4969 70.2123 11.061V5.27832H72.5609V10.2168C72.5609 10.5088 72.5969 10.786 72.6688 11.0483C72.745 11.3065 72.8846 11.5329 73.0878 11.7275C73.2951 11.9222 73.5829 12.0767 73.9511 12.1909C74.3234 12.3052 74.8059 12.3623 75.3983 12.3623C75.9865 12.3623 76.4647 12.3052 76.8329 12.1909C77.2011 12.0767 77.4867 11.9222 77.6898 11.7275C77.8972 11.5329 78.0368 11.3065 78.1088 11.0483C78.1807 10.786 78.2167 10.5088 78.2167 10.2168V5.27832H80.5717V11.061ZM95.4808 9.63281C95.4808 10.1914 95.4194 10.6886 95.2967 11.1245C95.174 11.5562 95.0005 11.9328 94.7762 12.2544C94.5561 12.576 94.2895 12.849 93.9764 13.0732C93.6675 13.2975 93.3226 13.4774 92.9417 13.6128C92.5609 13.7482 92.1504 13.8477 91.7103 13.9111C91.2702 13.9704 90.811 14 90.3328 14H84.7977V5.27832H90.3201C90.7983 5.27832 91.2575 5.31006 91.6976 5.37354C92.1377 5.43278 92.5482 5.53011 92.929 5.66553C93.3141 5.80094 93.6632 5.98079 93.9764 6.20508C94.2895 6.42513 94.5561 6.69808 94.7762 7.02393C95.0005 7.34554 95.174 7.72217 95.2967 8.15381C95.4194 8.58545 95.4808 9.07845 95.4808 9.63281ZM93.1068 9.63281C93.1068 9.21387 93.0517 8.84993 92.9417 8.54102C92.8359 8.2321 92.6624 7.97819 92.4212 7.7793C92.1842 7.57617 91.8732 7.42594 91.4881 7.32861C91.103 7.22705 90.6333 7.17627 90.0789 7.17627H87.1527V12.1021H90.0789C90.6333 12.1021 91.103 12.0534 91.4881 11.9561C91.8732 11.8545 92.1842 11.7021 92.4212 11.499C92.6624 11.2917 92.8359 11.0335 92.9417 10.7246C93.0517 10.4157 93.1068 10.0518 93.1068 9.63281ZM99.1926 14V5.27832H108.022V7.13818H101.611V8.5791H107.692V10.439H101.611V12.1401H108.111V14H99.1926ZM111.95 14V5.27832H114.305V14H111.95ZM126.84 14L120.956 8.00781V14H118.601V5.27832H121.159L127.049 11.2959V5.27832H129.392V14H126.84ZM143.628 11.5942C143.628 11.9328 143.584 12.2269 143.495 12.4766C143.406 12.7262 143.281 12.9421 143.12 13.124C142.964 13.3018 142.773 13.4478 142.549 13.562C142.329 13.672 142.083 13.7609 141.813 13.8286C141.546 13.8921 141.26 13.9365 140.956 13.9619C140.651 13.9873 140.336 14 140.01 14H133.681V5.27832H139.896C140.145 5.27832 140.395 5.2889 140.645 5.31006C140.899 5.33122 141.14 5.37142 141.368 5.43066C141.597 5.48568 141.808 5.56396 142.003 5.66553C142.202 5.76709 142.373 5.90039 142.517 6.06543C142.665 6.23047 142.78 6.42936 142.86 6.66211C142.945 6.89486 142.987 7.16992 142.987 7.4873C142.987 8.05436 142.847 8.50505 142.568 8.83936C142.289 9.16943 141.849 9.38949 141.248 9.49951C141.671 9.52913 142.033 9.59473 142.333 9.69629C142.638 9.79362 142.885 9.92904 143.076 10.1025C143.266 10.2718 143.406 10.4813 143.495 10.731C143.584 10.9764 143.628 11.2642 143.628 11.5942ZM140.689 7.86182C140.689 7.75179 140.672 7.64811 140.638 7.55078C140.604 7.44922 140.543 7.36035 140.454 7.28418C140.365 7.20801 140.245 7.14665 140.092 7.1001C139.94 7.05355 139.745 7.03027 139.508 7.03027H136.036V8.66797H139.508C139.745 8.66797 139.94 8.64681 140.092 8.60449C140.245 8.56217 140.365 8.50505 140.454 8.43311C140.543 8.36117 140.604 8.27653 140.638 8.1792C140.672 8.07764 140.689 7.97184 140.689 7.86182ZM141.235 11.3213C141.235 11.1224 141.201 10.9637 141.133 10.8452C141.066 10.7225 140.96 10.6294 140.816 10.5659C140.672 10.4982 140.486 10.4538 140.257 10.4326C140.029 10.4115 139.756 10.4009 139.439 10.4009H136.036V12.248H139.439C139.756 12.248 140.029 12.2375 140.257 12.2163C140.486 12.1951 140.672 12.1507 140.816 12.083C140.96 12.0153 141.066 11.9222 141.133 11.8037C141.201 11.681 141.235 11.5202 141.235 11.3213ZM154.348 12.3496H149.485L148.667 14H146.039L150.603 5.27832H153.23L157.794 14H155.167L154.348 12.3496ZM150.33 10.6484H153.516L151.929 7.43652L150.33 10.6484ZM171.466 9.63281C171.466 10.1914 171.404 10.6886 171.282 11.1245C171.159 11.5562 170.985 11.9328 170.761 12.2544C170.541 12.576 170.275 12.849 169.961 13.0732C169.652 13.2975 169.308 13.4774 168.927 13.6128C168.546 13.7482 168.135 13.8477 167.695 13.9111C167.255 13.9704 166.796 14 166.318 14H160.783V5.27832H166.305C166.783 5.27832 167.242 5.31006 167.683 5.37354C168.123 5.43278 168.533 5.53011 168.914 5.66553C169.299 5.80094 169.648 5.98079 169.961 6.20508C170.275 6.42513 170.541 6.69808 170.761 7.02393C170.985 7.34554 171.159 7.72217 171.282 8.15381C171.404 8.58545 171.466 9.07845 171.466 9.63281ZM169.092 9.63281C169.092 9.21387 169.037 8.84993 168.927 8.54102C168.821 8.2321 168.647 7.97819 168.406 7.7793C168.169 7.57617 167.858 7.42594 167.473 7.32861C167.088 7.22705 166.618 7.17627 166.064 7.17627H163.138V12.1021H166.064C166.618 12.1021 167.088 12.0534 167.473 11.9561C167.858 11.8545 168.169 11.7021 168.406 11.499C168.647 11.2917 168.821 11.0335 168.927 10.7246C169.037 10.4157 169.092 10.0518 169.092 9.63281Z" fill="white"/>
<path d="M46.6307 22.767L45.8778 22.9801C45.8305 22.8546 45.7607 22.7327 45.6683 22.6143C45.5784 22.4936 45.4553 22.3942 45.299 22.3161C45.1428 22.2379 44.9427 22.1989 44.6989 22.1989C44.3651 22.1989 44.0869 22.2758 43.8643 22.4297C43.6442 22.5812 43.5341 22.7741 43.5341 23.0085C43.5341 23.2169 43.6098 23.3814 43.7614 23.5021C43.9129 23.6229 44.1496 23.7235 44.4716 23.804L45.2812 24.0028C45.7689 24.1212 46.1323 24.3023 46.3714 24.5462C46.6106 24.7876 46.7301 25.099 46.7301 25.4801C46.7301 25.7926 46.6402 26.072 46.4602 26.3182C46.2827 26.5644 46.0341 26.7585 45.7145 26.9006C45.3949 27.0426 45.0232 27.1136 44.5994 27.1136C44.0431 27.1136 43.5826 26.9929 43.218 26.7514C42.8535 26.5099 42.6226 26.1572 42.5256 25.6932L43.321 25.4943C43.3968 25.7879 43.54 26.008 43.7507 26.1548C43.9638 26.3016 44.242 26.375 44.5852 26.375C44.9759 26.375 45.286 26.2921 45.5156 26.1264C45.7476 25.9583 45.8636 25.7571 45.8636 25.5227C45.8636 25.3333 45.7973 25.1747 45.6648 25.0469C45.5322 24.9167 45.3286 24.8196 45.054 24.7557L44.1449 24.5426C43.6454 24.4242 43.2784 24.2408 43.044 23.9922C42.812 23.7412 42.696 23.4276 42.696 23.0511C42.696 22.7434 42.7824 22.4711 42.9553 22.2344C43.1304 21.9976 43.3684 21.8118 43.669 21.6768C43.9721 21.5419 44.3153 21.4744 44.6989 21.4744C45.2386 21.4744 45.6624 21.5928 45.9702 21.8295C46.2803 22.0663 46.5005 22.3788 46.6307 22.767ZM51.2076 27.1136C50.7151 27.1136 50.2831 26.9964 49.9114 26.7621C49.5421 26.5277 49.2533 26.1998 49.0449 25.7784C48.839 25.357 48.736 24.8646 48.736 24.3011C48.736 23.733 48.839 23.237 49.0449 22.8132C49.2533 22.3894 49.5421 22.0604 49.9114 21.826C50.2831 21.5916 50.7151 21.4744 51.2076 21.4744C51.7 21.4744 52.1309 21.5916 52.5002 21.826C52.8719 22.0604 53.1607 22.3894 53.3667 22.8132C53.575 23.237 53.6792 23.733 53.6792 24.3011C53.6792 24.8646 53.575 25.357 53.3667 25.7784C53.1607 26.1998 52.8719 26.5277 52.5002 26.7621C52.1309 26.9964 51.7 27.1136 51.2076 27.1136ZM51.2076 26.3608C51.5816 26.3608 51.8894 26.2649 52.1309 26.0732C52.3723 25.8814 52.5511 25.6293 52.6671 25.3168C52.7831 25.0043 52.8411 24.6657 52.8411 24.3011C52.8411 23.9366 52.7831 23.5968 52.6671 23.282C52.5511 22.9671 52.3723 22.7126 52.1309 22.5185C51.8894 22.3243 51.5816 22.2273 51.2076 22.2273C50.8335 22.2273 50.5257 22.3243 50.2843 22.5185C50.0428 22.7126 49.8641 22.9671 49.748 23.282C49.632 23.5968 49.574 23.9366 49.574 24.3011C49.574 24.6657 49.632 25.0043 49.748 25.3168C49.8641 25.6293 50.0428 25.8814 50.2843 26.0732C50.5257 26.2649 50.8335 26.3608 51.2076 26.3608ZM61.9727 29.1591C61.5678 29.1591 61.2198 29.107 60.9286 29.0028C60.6374 28.901 60.3948 28.7661 60.2006 28.598C60.0089 28.4323 59.8562 28.2547 59.7425 28.0653L60.4102 27.5966C60.4859 27.696 60.5818 27.8097 60.6978 27.9375C60.8138 28.0677 60.9724 28.1802 61.1737 28.2749C61.3772 28.3719 61.6436 28.4205 61.9727 28.4205C62.413 28.4205 62.7764 28.3139 63.0629 28.1009C63.3493 27.8878 63.4925 27.554 63.4925 27.0994V25.9915H63.4215C63.36 26.0909 63.2724 26.214 63.1587 26.3608C63.0475 26.5052 62.8865 26.6342 62.6758 26.7479C62.4674 26.8591 62.1857 26.9148 61.8306 26.9148C61.3903 26.9148 60.9949 26.8106 60.6445 26.6023C60.2965 26.3939 60.0207 26.0909 59.8171 25.6932C59.6159 25.2955 59.5153 24.8125 59.5153 24.2443C59.5153 23.6856 59.6135 23.1991 59.81 22.7848C60.0065 22.3681 60.2799 22.0462 60.6303 21.8189C60.9807 21.5893 61.3855 21.4744 61.8448 21.4744C62.1999 21.4744 62.4817 21.5336 62.69 21.652C62.9007 21.768 63.0617 21.9006 63.1729 22.0497C63.2866 22.1965 63.3742 22.3172 63.4357 22.4119H63.521V21.5455H64.3306V27.1562C64.3306 27.625 64.2241 28.0062 64.011 28.2997C63.8003 28.5956 63.5162 28.8123 63.1587 28.9496C62.8036 29.0893 62.4083 29.1591 61.9727 29.1591ZM61.9442 26.1619C62.2804 26.1619 62.5645 26.085 62.7965 25.9311C63.0285 25.7772 63.2049 25.5559 63.3256 25.267C63.4464 24.9782 63.5067 24.6326 63.5067 24.2301C63.5067 23.8371 63.4476 23.4903 63.3292 23.1896C63.2108 22.889 63.0356 22.6534 62.8036 22.483C62.5716 22.3125 62.2852 22.2273 61.9442 22.2273C61.5891 22.2273 61.2932 22.3172 61.0565 22.4972C60.8221 22.6771 60.6457 22.9186 60.5273 23.2216C60.4113 23.5246 60.3533 23.8608 60.3533 24.2301C60.3533 24.6089 60.4125 24.9439 60.5309 25.2351C60.6516 25.5239 60.8292 25.7512 61.0636 25.9169C61.3003 26.0803 61.5939 26.1619 61.9442 26.1619ZM69.1516 27.1136C68.6261 27.1136 68.1727 26.9976 67.7915 26.7656C67.4128 26.5312 67.1204 26.2045 66.9144 25.7855C66.7108 25.3641 66.609 24.8741 66.609 24.3153C66.609 23.7566 66.7108 23.2642 66.9144 22.8381C67.1204 22.4096 67.4068 22.0758 67.7738 21.8366C68.1431 21.5952 68.574 21.4744 69.0664 21.4744C69.3505 21.4744 69.631 21.5218 69.908 21.6165C70.185 21.7112 70.4371 21.8651 70.6644 22.0781C70.8917 22.2888 71.0728 22.5682 71.2077 22.9162C71.3427 23.2642 71.4102 23.6927 71.4102 24.2017V24.5568H67.2056V23.8324H70.5579C70.5579 23.5246 70.4963 23.25 70.3732 23.0085C70.2525 22.767 70.0797 22.5765 69.8548 22.4368C69.6322 22.2971 69.3694 22.2273 69.0664 22.2273C68.7326 22.2273 68.4438 22.3101 68.1999 22.4759C67.9585 22.6392 67.7726 22.8523 67.6424 23.1151C67.5122 23.3778 67.4471 23.6596 67.4471 23.9602V24.4432C67.4471 24.8551 67.5181 25.2043 67.6602 25.4908C67.8046 25.7749 68.0046 25.9915 68.2603 26.1406C68.516 26.2874 68.8131 26.3608 69.1516 26.3608C69.3718 26.3608 69.5707 26.33 69.7482 26.2685C69.9281 26.2045 70.0832 26.1098 70.2134 25.9844C70.3436 25.8565 70.4442 25.6979 70.5153 25.5085L71.3249 25.7358C71.2397 26.0104 71.0965 26.2519 70.8952 26.4602C70.694 26.6662 70.4454 26.8272 70.1495 26.9432C69.8536 27.0568 69.521 27.1136 69.1516 27.1136ZM74.5231 23.7188V27H73.685V19.7273H74.5231V22.3977H74.5941C74.7219 22.116 74.9137 21.8923 75.1694 21.7266C75.4274 21.5585 75.7707 21.4744 76.1992 21.4744C76.5709 21.4744 76.8964 21.549 77.1758 21.6982C77.4551 21.8449 77.6718 22.071 77.8256 22.3764C77.9819 22.6795 78.06 23.0653 78.06 23.5341V27H77.2219V23.5909C77.2219 23.1577 77.1095 22.8227 76.8846 22.5859C76.6621 22.3468 76.3531 22.2273 75.9577 22.2273C75.6831 22.2273 75.4369 22.2853 75.2191 22.4013C75.0037 22.5173 74.8332 22.6866 74.7077 22.9091C74.5846 23.1316 74.5231 23.4015 74.5231 23.7188ZM82.9654 21.5455V22.2557H80.1387V21.5455H82.9654ZM80.9625 20.2386H81.8006V25.4375C81.8006 25.6742 81.8349 25.8518 81.9036 25.9702C81.9746 26.0862 82.0646 26.1643 82.1735 26.2045C82.2847 26.2424 82.4019 26.2614 82.525 26.2614C82.6174 26.2614 82.6931 26.2566 82.7523 26.2472C82.8115 26.2353 82.8588 26.2259 82.8944 26.2188L83.0648 26.9716C83.008 26.9929 82.9287 27.0142 82.8269 27.0355C82.7251 27.0592 82.5961 27.071 82.4398 27.071C82.2031 27.071 81.9711 27.0201 81.7438 26.9183C81.5189 26.8165 81.3319 26.6615 81.1827 26.4531C81.0359 26.2448 80.9625 25.982 80.9625 25.6648V20.2386ZM89.1522 27V19.7273H91.6948C92.2014 19.7273 92.6193 19.8149 92.9483 19.9901C93.2774 20.1629 93.5224 20.3961 93.6834 20.6896C93.8444 20.9808 93.9249 21.304 93.9249 21.6591C93.9249 21.9716 93.8693 22.2296 93.758 22.4332C93.6491 22.6368 93.5047 22.7978 93.3248 22.9162C93.1472 23.0346 92.9542 23.1222 92.7459 23.179V23.25C92.9685 23.2642 93.1922 23.3423 93.4171 23.4844C93.642 23.6264 93.8302 23.83 93.9817 24.0952C94.1332 24.3603 94.209 24.6847 94.209 25.0682C94.209 25.4328 94.1261 25.7607 93.9604 26.0518C93.7947 26.343 93.5331 26.5739 93.1756 26.7443C92.8181 26.9148 92.3529 27 91.78 27H89.1522ZM90.0328 26.2188H91.78C92.3553 26.2188 92.7637 26.1075 93.0051 25.8849C93.249 25.66 93.3709 25.3878 93.3709 25.0682C93.3709 24.822 93.3082 24.5947 93.1827 24.3864C93.0572 24.1757 92.8785 24.0076 92.6465 23.8821C92.4145 23.7543 92.1399 23.6903 91.8226 23.6903H90.0328V26.2188ZM90.0328 22.9233H91.6664C91.9315 22.9233 92.1706 22.8712 92.3837 22.767C92.5991 22.6629 92.7696 22.5161 92.8951 22.3267C93.0229 22.1373 93.0868 21.9148 93.0868 21.6591C93.0868 21.3395 92.9756 21.0684 92.753 20.8459C92.5305 20.621 92.1777 20.5085 91.6948 20.5085H90.0328V22.9233ZM98.1475 27.1278C97.8019 27.1278 97.4882 27.0627 97.2065 26.9325C96.9248 26.8 96.7011 26.6094 96.5353 26.3608C96.3696 26.1098 96.2868 25.8068 96.2868 25.4517C96.2868 25.1392 96.3483 24.8859 96.4714 24.6918C96.5945 24.4953 96.7591 24.3414 96.965 24.2301C97.171 24.1188 97.3983 24.036 97.6468 23.9815C97.8978 23.9247 98.1499 23.8797 98.4032 23.8466C98.7347 23.804 99.0034 23.772 99.2093 23.7507C99.4177 23.727 99.5692 23.688 99.6639 23.6335C99.7609 23.5791 99.8095 23.4844 99.8095 23.3494V23.321C99.8095 22.9706 99.7136 22.6984 99.5218 22.5043C99.3324 22.3101 99.0448 22.2131 98.6589 22.2131C98.2588 22.2131 97.9451 22.3007 97.7179 22.4759C97.4906 22.651 97.3308 22.8381 97.2385 23.0369L96.443 22.7528C96.585 22.4214 96.7744 22.1634 97.0112 21.9787C97.2503 21.7917 97.5107 21.6615 97.7924 21.5881C98.0765 21.5123 98.3559 21.4744 98.6305 21.4744C98.8057 21.4744 99.0069 21.4957 99.2342 21.5384C99.4638 21.5786 99.6852 21.6626 99.8983 21.7905C100.114 21.9183 100.292 22.1113 100.434 22.3693C100.577 22.6274 100.648 22.973 100.648 23.4062V27H99.8095V26.2614H99.7669C99.71 26.3797 99.6154 26.5064 99.4828 26.6413C99.3502 26.7763 99.1738 26.8911 98.9537 26.9858C98.7335 27.0805 98.4648 27.1278 98.1475 27.1278ZM98.2754 26.375C98.6068 26.375 98.8862 26.3099 99.1135 26.1797C99.3431 26.0495 99.5159 25.8814 99.6319 25.6754C99.7503 25.4695 99.8095 25.2528 99.8095 25.0256V24.2585C99.774 24.3011 99.6958 24.3402 99.5751 24.3757C99.4567 24.4089 99.3194 24.4384 99.1632 24.4645C99.0093 24.4882 98.859 24.5095 98.7122 24.5284C98.5678 24.545 98.4506 24.5592 98.3606 24.571C98.1428 24.5994 97.9392 24.6456 97.7498 24.7095C97.5628 24.7711 97.4113 24.8646 97.2953 24.9901C97.1816 25.1132 97.1248 25.2812 97.1248 25.4943C97.1248 25.7855 97.2325 26.0057 97.448 26.1548C97.6658 26.3016 97.9416 26.375 98.2754 26.375ZM105.237 27.1136C104.782 27.1136 104.381 26.9988 104.033 26.7692C103.685 26.5372 103.413 26.2105 103.216 25.7891C103.02 25.3653 102.922 24.8646 102.922 24.2869C102.922 23.714 103.02 23.2169 103.216 22.7955C103.413 22.3741 103.686 22.0485 104.037 21.8189C104.387 21.5893 104.792 21.4744 105.251 21.4744C105.606 21.4744 105.887 21.5336 106.093 21.652C106.301 21.768 106.46 21.9006 106.569 22.0497C106.68 22.1965 106.766 22.3172 106.828 22.4119H106.899V19.7273H107.737V27H106.927V26.1619H106.828C106.766 26.2614 106.679 26.3868 106.565 26.5384C106.451 26.6875 106.289 26.8213 106.078 26.9396C105.868 27.0556 105.587 27.1136 105.237 27.1136ZM105.35 26.3608C105.687 26.3608 105.971 26.2732 106.203 26.098C106.435 25.9205 106.611 25.6754 106.732 25.3629C106.853 25.0481 106.913 24.6847 106.913 24.2727C106.913 23.8655 106.854 23.5092 106.735 23.2038C106.617 22.8961 106.442 22.657 106.21 22.4865C105.978 22.3137 105.691 22.2273 105.35 22.2273C104.995 22.2273 104.699 22.3184 104.463 22.5007C104.228 22.6806 104.052 22.9257 103.934 23.2358C103.818 23.5436 103.76 23.8892 103.76 24.2727C103.76 24.661 103.819 25.0137 103.937 25.331C104.058 25.6458 104.235 25.8968 104.47 26.0838C104.707 26.2685 105 26.3608 105.35 26.3608ZM115.039 23.7188V27H114.201V19.7273H115.039V22.3977H115.11C115.238 22.116 115.429 21.8923 115.685 21.7266C115.943 21.5585 116.286 21.4744 116.715 21.4744C117.087 21.4744 117.412 21.549 117.691 21.6982C117.971 21.8449 118.187 22.071 118.341 22.3764C118.498 22.6795 118.576 23.0653 118.576 23.5341V27H117.738V23.5909C117.738 23.1577 117.625 22.8227 117.4 22.5859C117.178 22.3468 116.869 22.2273 116.473 22.2273C116.199 22.2273 115.953 22.2853 115.735 22.4013C115.519 22.5173 115.349 22.6866 115.223 22.9091C115.1 23.1316 115.039 23.4015 115.039 23.7188ZM123.396 27.1136C122.87 27.1136 122.417 26.9976 122.036 26.7656C121.657 26.5312 121.365 26.2045 121.159 25.7855C120.955 25.3641 120.853 24.8741 120.853 24.3153C120.853 23.7566 120.955 23.2642 121.159 22.8381C121.365 22.4096 121.651 22.0758 122.018 21.8366C122.387 21.5952 122.818 21.4744 123.311 21.4744C123.595 21.4744 123.875 21.5218 124.152 21.6165C124.429 21.7112 124.681 21.8651 124.909 22.0781C125.136 22.2888 125.317 22.5682 125.452 22.9162C125.587 23.2642 125.654 23.6927 125.654 24.2017V24.5568H121.45V23.8324H124.802C124.802 23.5246 124.74 23.25 124.617 23.0085C124.497 22.767 124.324 22.5765 124.099 22.4368C123.876 22.2971 123.614 22.2273 123.311 22.2273C122.977 22.2273 122.688 22.3101 122.444 22.4759C122.203 22.6392 122.017 22.8523 121.887 23.1151C121.756 23.3778 121.691 23.6596 121.691 23.9602V24.4432C121.691 24.8551 121.762 25.2043 121.904 25.4908C122.049 25.7749 122.249 25.9915 122.504 26.1406C122.76 26.2874 123.057 26.3608 123.396 26.3608C123.616 26.3608 123.815 26.33 123.992 26.2685C124.172 26.2045 124.327 26.1098 124.458 25.9844C124.588 25.8565 124.688 25.6979 124.759 25.5085L125.569 25.7358C125.484 26.0104 125.341 26.2519 125.139 26.4602C124.938 26.6662 124.69 26.8272 124.394 26.9432C124.098 27.0568 123.765 27.1136 123.396 27.1136ZM131.367 24.7699V21.5455H132.205V27H131.367V26.0767H131.31C131.182 26.3537 130.983 26.5893 130.713 26.7834C130.443 26.9751 130.102 27.071 129.691 27.071C129.35 27.071 129.047 26.9964 128.781 26.8473C128.516 26.6958 128.308 26.4685 128.156 26.1655C128.005 25.8601 127.929 25.4754 127.929 25.0114V21.5455H128.767V24.9545C128.767 25.3523 128.878 25.6695 129.101 25.9062C129.326 26.143 129.612 26.2614 129.96 26.2614C130.169 26.2614 130.381 26.2081 130.596 26.1016C130.814 25.995 130.996 25.8317 131.143 25.6115C131.292 25.3913 131.367 25.1108 131.367 24.7699ZM137.112 21.5455V22.2557H134.285V21.5455H137.112ZM135.109 20.2386H135.947V25.4375C135.947 25.6742 135.981 25.8518 136.05 25.9702C136.121 26.0862 136.211 26.1643 136.32 26.2045C136.431 26.2424 136.548 26.2614 136.672 26.2614C136.764 26.2614 136.84 26.2566 136.899 26.2472C136.958 26.2353 137.005 26.2259 137.041 26.2188L137.211 26.9716C137.154 26.9929 137.075 27.0142 136.973 27.0355C136.872 27.0592 136.743 27.071 136.586 27.071C136.35 27.071 136.118 27.0201 135.89 26.9183C135.665 26.8165 135.478 26.6615 135.329 26.4531C135.182 26.2448 135.109 25.982 135.109 25.6648V20.2386ZM141.601 27.1136C141.075 27.1136 140.622 26.9976 140.241 26.7656C139.862 26.5312 139.57 26.2045 139.364 25.7855C139.16 25.3641 139.058 24.8741 139.058 24.3153C139.058 23.7566 139.16 23.2642 139.364 22.8381C139.57 22.4096 139.856 22.0758 140.223 21.8366C140.592 21.5952 141.023 21.4744 141.516 21.4744C141.8 21.4744 142.08 21.5218 142.357 21.6165C142.634 21.7112 142.886 21.8651 143.114 22.0781C143.341 22.2888 143.522 22.5682 143.657 22.9162C143.792 23.2642 143.859 23.6927 143.859 24.2017V24.5568H139.655V23.8324H143.007C143.007 23.5246 142.946 23.25 142.822 23.0085C142.702 22.767 142.529 22.5765 142.304 22.4368C142.081 22.2971 141.819 22.2273 141.516 22.2273C141.182 22.2273 140.893 22.3101 140.649 22.4759C140.408 22.6392 140.222 22.8523 140.092 23.1151C139.961 23.3778 139.896 23.6596 139.896 23.9602V24.4432C139.896 24.8551 139.967 25.2043 140.109 25.4908C140.254 25.7749 140.454 25.9915 140.71 26.1406C140.965 26.2874 141.262 26.3608 141.601 26.3608C141.821 26.3608 142.02 26.33 142.197 26.2685C142.377 26.2045 142.532 26.1098 142.663 25.9844C142.793 25.8565 142.893 25.6979 142.964 25.5085L143.774 25.7358C143.689 26.0104 143.546 26.2519 143.344 26.4602C143.143 26.6662 142.895 26.8272 142.599 26.9432C142.303 27.0568 141.97 27.1136 141.601 27.1136Z" fill="white"/>
<g clip-path="url(#clip0_502_394)">
<path d="M16.0013 1.22671C19.916 1.23385 23.6681 2.79278 26.4353 5.56182C29.2025 8.33085 30.759 12.0841 30.7635 15.9988C30.7596 19.9156 29.2021 23.6709 26.4327 26.4408C23.6633 29.2106 19.9083 30.7687 15.9915 30.7733C12.0742 30.7694 8.31852 29.2115 5.54861 26.4416C2.77869 23.6717 1.22084 19.916 1.21695 15.9988C1.22149 12.0819 2.77962 8.32687 5.54947 5.55749C8.31931 2.7881 12.0746 1.23061 15.9915 1.22671M15.9915 0C11.7481 -4.98791e-08 7.67849 1.6855 4.67775 4.68578C1.67701 7.68606 -0.009115 11.7554 -0.00976562 15.9988C-0.00976562 20.2426 1.67607 24.3125 4.67688 27.3133C7.67769 30.3141 11.7477 32 15.9915 32C20.2348 31.9993 24.3042 30.3132 27.3044 27.3125C30.3047 24.3117 31.9902 20.2421 31.9902 15.9988C31.9896 11.7558 30.3038 7.68686 27.3036 4.68665C24.3034 1.68644 20.2344 0.000650508 15.9915 0Z" fill="white"/>
<path d="M3.40529 16.6097C8.54522 19.9512 15.3412 16.7176 20.8074 15.2677C21.0528 15.2014 21.2981 15.1229 21.5435 15.037C30.0667 12.0095 29.6667 20.7388 24.6814 25.1329C17.2671 32.5128 3.66781 27.0711 3.40039 16.6097" fill="#FFDE31"/>
<path d="M15.9496 15.7461C12.2695 14.7304 4.27133 10.8245 3.55493 15.7166C7.2228 18.0008 11.7101 17.017 15.9496 15.7461Z" fill="white"/>
</g>
<defs>
<clipPath id="clip0_502_394">
<rect width="32" height="32" fill="white"/>
</clipPath>
</defs>
</svg>
