<svg width="48" height="48" viewBox="0 0 48 48" fill="none" xmlns="http://www.w3.org/2000/svg">
<path d="M31.5808 32.808L32.6048 33.264C31.9273 34.7575 30.9181 36.0768 29.654 37.1216C28.3899 38.1663 26.9041 38.909 25.3098 39.2931C23.7154 39.6772 22.0544 39.6926 20.4532 39.3382C18.852 38.9837 17.3527 38.2687 16.0694 37.2476C14.7861 36.2265 13.7526 34.9261 13.0476 33.4455C12.3425 31.9648 11.9844 30.3428 12.0005 28.7029C12.0167 27.063 12.4066 25.4484 13.1407 23.9819C13.8748 22.5154 14.9337 21.2357 16.2368 20.24L16.9168 21.136C15.748 22.0277 14.7979 23.1742 14.1391 24.4885C13.4802 25.8027 13.1299 27.2499 13.1148 28.72C13.0996 30.19 13.4201 31.6442 14.0517 32.9717C14.6834 34.2992 15.6096 35.4651 16.7598 36.3807C17.9101 37.2962 19.254 37.9373 20.6894 38.255C22.1248 38.5728 23.6138 38.5589 25.043 38.2144C26.4722 37.8699 27.8039 37.2038 28.9369 36.267C30.0698 35.3301 30.9741 34.1471 31.5808 32.808ZM21.2608 12.416C21.6978 12.4176 22.1255 12.2894 22.4897 12.0478C22.8538 11.8061 23.1381 11.4618 23.3064 11.0585C23.4748 10.6552 23.5196 10.211 23.4354 9.78215C23.3511 9.35332 23.1414 8.95914 22.8329 8.64955C22.5245 8.33995 22.131 8.12886 21.7025 8.04302C21.274 7.95717 20.8296 8.00043 20.4257 8.16731C20.0218 8.33419 19.6765 8.61718 19.4335 8.98046C19.1905 9.34374 19.0608 9.77095 19.0608 10.208C19.0629 10.7916 19.2951 11.3507 19.707 11.7641C20.1189 12.1775 20.6772 12.4118 21.2608 12.416ZM37.6528 30.888L33.1088 24.216C32.9992 24.0533 32.8575 23.9148 32.6924 23.8089C32.5273 23.703 32.3423 23.6319 32.1488 23.6C32.0552 23.5409 31.9475 23.5077 31.8368 23.504H22.8368V20.728H27.8208C28.1115 20.728 28.3903 20.6125 28.5958 20.407C28.8013 20.2014 28.9168 19.9227 28.9168 19.632C28.9168 19.3413 28.8013 19.0625 28.5958 18.857C28.3903 18.6515 28.1115 18.536 27.8208 18.536H22.8368V15.912C22.8368 15.3518 22.6143 14.8147 22.2182 14.4186C21.8221 14.0225 21.2849 13.8 20.7248 13.8C20.4454 13.7968 20.1682 13.8491 19.9092 13.9538C19.6502 14.0585 19.4145 14.2136 19.2159 14.41C19.0172 14.6065 18.8595 14.8404 18.7518 15.0982C18.6442 15.356 18.5888 15.6326 18.5888 15.912V24.808C18.5888 25.0853 18.6434 25.36 18.7496 25.6162C18.8557 25.8725 19.0113 26.1053 19.2074 26.3014C19.4035 26.4975 19.6363 26.6531 19.8926 26.7592C20.1488 26.8654 20.4235 26.92 20.7008 26.92C20.9129 26.918 21.1235 26.8829 21.3248 26.816H31.3248L35.2288 32.552C35.3364 32.7102 35.4742 32.8456 35.6342 32.9505C35.7941 33.0554 35.9732 33.1278 36.1612 33.1635C36.3492 33.1991 36.5424 33.1974 36.7297 33.1584C36.917 33.1193 37.0947 33.0438 37.2528 32.936C37.4148 32.8288 37.5538 32.6905 37.6617 32.5291C37.7697 32.3676 37.8445 32.1864 37.8817 31.9958C37.9189 31.8052 37.9179 31.6091 37.8786 31.4189C37.8393 31.2287 37.7625 31.0482 37.6528 30.888Z" fill="black"/>
</svg>
