<svg width="48" height="48" viewBox="0 0 48 48" fill="none" xmlns="http://www.w3.org/2000/svg">
<path d="M31.888 9.99629H31.632V9.19629C31.6446 9.05367 31.6274 8.90999 31.5814 8.77438C31.5355 8.63877 31.4618 8.51421 31.3652 8.40861C31.2685 8.30301 31.1509 8.21869 31.0198 8.161C30.8888 8.10331 30.7472 8.07351 30.604 8.07351C30.4608 8.07351 30.3192 8.10331 30.1882 8.161C30.0571 8.21869 29.9395 8.30301 29.8428 8.40861C29.7462 8.51421 29.6725 8.63877 29.6266 8.77438C29.5806 8.90999 29.5634 9.05367 29.576 9.19629V9.99629H27.368V9.19629C27.368 9.06076 27.3413 8.92657 27.2894 8.80136C27.2376 8.67615 27.1616 8.56238 27.0657 8.46655C26.9699 8.37072 26.8561 8.29471 26.7309 8.24284C26.6057 8.19098 26.4715 8.16429 26.336 8.16429C26.2005 8.16429 26.0663 8.19098 25.9411 8.24284C25.8159 8.29471 25.7021 8.37072 25.6063 8.46655C25.5104 8.56238 25.4344 8.67615 25.3826 8.80136C25.3307 8.92657 25.304 9.06076 25.304 9.19629V9.99629H23.104V9.19629C23.104 8.92259 22.9953 8.66009 22.8017 8.46655C22.6082 8.27302 22.3457 8.16429 22.072 8.16429C21.7983 8.16429 21.5358 8.27302 21.3423 8.46655C21.1487 8.66009 21.04 8.92259 21.04 9.19629V9.99629H18.832V9.19629C18.856 9.04742 18.8471 8.8951 18.8059 8.75005C18.7647 8.60499 18.6922 8.47073 18.5935 8.3567C18.4949 8.24268 18.3724 8.15166 18.2348 8.09005C18.0971 8.02845 17.9477 7.99775 17.7969 8.00013C17.6461 8.0025 17.4977 8.03789 17.3621 8.1038C17.2265 8.1697 17.1069 8.26453 17.0119 8.38161C16.9169 8.49869 16.8486 8.63517 16.812 8.78145C16.7754 8.92772 16.7713 9.08025 16.8 9.22829V10.0283H16.24C15.1216 10.0303 14.0492 10.4733 13.2554 11.2611C12.4616 12.0489 12.0105 13.118 12 14.2363V36.1483C12.0021 37.2722 12.4495 38.3494 13.2442 39.1441C14.0389 39.9388 15.1161 40.3862 16.24 40.3883H31.888C33.0119 40.3862 34.0891 39.9388 34.8838 39.1441C35.6785 38.3494 36.1259 37.2722 36.128 36.1483V14.2363C36.1259 13.1124 35.6785 12.0352 34.8838 11.2405C34.0891 10.4458 33.0119 9.9984 31.888 9.99629ZM35.008 36.1483C35.0059 36.9751 34.6765 37.7675 34.0918 38.3521C33.5072 38.9368 32.7148 39.2662 31.888 39.2683H16.24C15.4132 39.2662 14.6208 38.9368 14.0362 38.3521C13.4515 37.7675 13.1221 36.9751 13.12 36.1483V14.2363C13.1221 13.4095 13.4515 12.6171 14.0362 12.0324C14.6208 11.4478 15.4132 11.1184 16.24 11.1163H16.8V13.1403C16.7874 13.2829 16.8046 13.4266 16.8506 13.5622C16.8965 13.6978 16.9702 13.8224 17.0668 13.928C17.1635 14.0336 17.2811 14.1179 17.4122 14.1756C17.5432 14.2333 17.6848 14.2631 17.828 14.2631C17.9712 14.2631 18.1128 14.2333 18.2438 14.1756C18.3749 14.1179 18.4925 14.0336 18.5892 13.928C18.6858 13.8224 18.7595 13.6978 18.8054 13.5622C18.8514 13.4266 18.8686 13.2829 18.856 13.1403V11.1163H21.04V13.1403C21.04 13.414 21.1487 13.6765 21.3423 13.87C21.5358 14.0636 21.7983 14.1723 22.072 14.1723C22.3457 14.1723 22.6082 14.0636 22.8017 13.87C22.9953 13.6765 23.104 13.414 23.104 13.1403V11.1163H25.304V13.1403C25.304 13.414 25.4127 13.6765 25.6063 13.87C25.7998 14.0636 26.0623 14.1723 26.336 14.1723C26.6097 14.1723 26.8722 14.0636 27.0657 13.87C27.2593 13.6765 27.368 13.414 27.368 13.1403V11.1163H29.6V13.1403C29.5874 13.2829 29.6046 13.4266 29.6506 13.5622C29.6965 13.6978 29.7702 13.8224 29.8668 13.928C29.9635 14.0336 30.0811 14.1179 30.2122 14.1756C30.3432 14.2333 30.4848 14.2631 30.628 14.2631C30.7712 14.2631 30.9128 14.2333 31.0438 14.1756C31.1749 14.1179 31.2925 14.0336 31.3892 13.928C31.4858 13.8224 31.5595 13.6978 31.6054 13.5622C31.6514 13.4266 31.6686 13.2829 31.656 13.1403V11.1163H31.912C32.7388 11.1184 33.5312 11.4478 34.1158 12.0324C34.7005 12.6171 35.0299 13.4095 35.032 14.2363L35.008 36.1483Z" fill="black"/>
<path d="M30.4798 21.3406H17.8798C17.8063 21.3406 17.7335 21.3551 17.6655 21.3832C17.5976 21.4113 17.5358 21.4526 17.4838 21.5046C17.4318 21.5566 17.3906 21.6183 17.3625 21.6863C17.3343 21.7542 17.3198 21.827 17.3198 21.9006C17.3198 21.9741 17.3343 22.0469 17.3625 22.1149C17.3906 22.1828 17.4318 22.2446 17.4838 22.2966C17.5358 22.3486 17.5976 22.3898 17.6655 22.4179C17.7335 22.4461 17.8063 22.4606 17.8798 22.4606H30.4798C30.5534 22.4606 30.6262 22.4461 30.6941 22.4179C30.7621 22.3898 30.8238 22.3486 30.8758 22.2966C30.9278 22.2446 30.9691 22.1828 30.9972 22.1149C31.0253 22.0469 31.0398 21.9741 31.0398 21.9006C31.0398 21.827 31.0253 21.7542 30.9972 21.6863C30.9691 21.6183 30.9278 21.5566 30.8758 21.5046C30.8238 21.4526 30.7621 21.4113 30.6941 21.3832C30.6262 21.3551 30.5534 21.3406 30.4798 21.3406Z" fill="black"/>
<path d="M30.4798 24.541H17.8798C17.8063 24.541 17.7335 24.5555 17.6655 24.5836C17.5976 24.6118 17.5358 24.653 17.4838 24.705C17.4318 24.757 17.3906 24.8188 17.3625 24.8867C17.3343 24.9547 17.3198 25.0275 17.3198 25.101C17.3198 25.1746 17.3343 25.2474 17.3625 25.3153C17.3906 25.3833 17.4318 25.445 17.4838 25.497C17.5358 25.549 17.5976 25.5902 17.6655 25.6184C17.7335 25.6465 17.8063 25.661 17.8798 25.661H30.4798C30.5534 25.661 30.6262 25.6465 30.6941 25.6184C30.7621 25.5902 30.8238 25.549 30.8758 25.497C30.9278 25.445 30.9691 25.3833 30.9972 25.3153C31.0253 25.2474 31.0398 25.1746 31.0398 25.101C31.0398 25.0275 31.0253 24.9547 30.9972 24.8867C30.9691 24.8188 30.9278 24.757 30.8758 24.705C30.8238 24.653 30.7621 24.6118 30.6941 24.5836C30.6262 24.5555 30.5534 24.541 30.4798 24.541Z" fill="black"/>
<path d="M25.7838 27.7402H17.8798C17.7313 27.7402 17.5889 27.7992 17.4838 27.9043C17.3788 28.0093 17.3198 28.1517 17.3198 28.3002C17.3198 28.4488 17.3788 28.5912 17.4838 28.6962C17.5889 28.8012 17.7313 28.8602 17.8798 28.8602H25.7838C25.9323 28.8602 26.0748 28.8012 26.1798 28.6962C26.2848 28.5912 26.3438 28.4488 26.3438 28.3002C26.3438 28.1517 26.2848 28.0093 26.1798 27.9043C26.0748 27.7992 25.9323 27.7402 25.7838 27.7402Z" fill="black"/>
</svg>
