<svg width="48" height="48" viewBox="0 0 48 48" fill="none" xmlns="http://www.w3.org/2000/svg">
<path d="M37.7692 15.5217C39.9139 18.9541 40.6781 23.0718 39.9077 27.0452C39.1374 31.0187 36.8898 34.5525 33.6178 36.9348C30.3458 39.3171 26.2925 40.3708 22.2746 39.8837C18.2566 39.3966 14.5725 37.4048 11.9646 34.3097C9.35662 31.2145 8.01859 27.246 8.22004 23.2036C8.4215 19.1612 10.1475 15.3454 13.0502 12.5249C15.953 9.70437 19.8169 8.08876 23.8634 8.00355C27.9099 7.91834 31.8383 9.36985 34.8572 12.0657C34.9298 12.1079 34.992 12.166 35.0391 12.2356C35.0863 12.3051 35.1172 12.3844 35.1295 12.4675C35.1418 12.5506 35.1353 12.6354 35.1104 12.7157C35.0855 12.7959 35.0428 12.8695 34.9856 12.931C34.9284 12.9926 34.8581 13.0404 34.7798 13.0711C34.7016 13.1017 34.6175 13.1144 34.5337 13.1081C34.4499 13.1018 34.3686 13.0768 34.2958 13.0348C34.223 12.9928 34.1606 12.935 34.1132 12.8657C31.3003 10.3672 27.6449 9.02773 23.8837 9.11713C20.1224 9.20653 16.5348 10.7182 13.8438 13.3475C11.1527 15.9768 9.55817 19.5283 9.38147 23.2865C9.20477 27.0446 10.459 30.7301 12.8915 33.6003C15.324 36.4705 18.7539 38.3121 22.4902 38.754C26.2265 39.1959 29.9914 38.2053 33.0263 35.9818C36.0613 33.7583 38.1408 30.4671 38.8457 26.7714C39.5506 23.0757 38.8286 19.2502 36.8252 16.0657C36.7816 16.0024 36.7515 15.9309 36.7367 15.8555C36.7219 15.7801 36.7228 15.7024 36.7393 15.6274C36.7558 15.5524 36.7876 15.4815 36.8326 15.4193C36.8777 15.3571 36.9351 15.3048 37.0012 15.2657C37.0679 15.2291 37.1413 15.2068 37.217 15.2C37.2927 15.1931 37.369 15.202 37.4411 15.2261C37.5132 15.2501 37.5795 15.2888 37.636 15.3396C37.6925 15.3905 37.7378 15.4525 37.7692 15.5217ZM41.2172 8.60967C41.1651 8.55646 41.1028 8.51418 41.0342 8.48532C40.9655 8.45646 40.8917 8.44159 40.8172 8.44159C40.7427 8.44159 40.669 8.45646 40.6003 8.48532C40.5316 8.51418 40.4694 8.55646 40.4172 8.60967L23.9692 25.2097L16.6812 17.9217C16.5751 17.8156 16.4312 17.756 16.2812 17.756C16.1312 17.756 15.9873 17.8156 15.8812 17.9217C15.7751 18.0278 15.7155 18.1716 15.7155 18.3217C15.7155 18.4717 15.7751 18.6156 15.8812 18.7217L23.5692 26.4097C23.622 26.4614 23.6846 26.5022 23.7532 26.5297C23.8219 26.5571 23.8953 26.5707 23.9692 26.5697C24.0428 26.5715 24.1159 26.5574 24.1835 26.5284C24.2512 26.4994 24.3118 26.4562 24.3612 26.4017L41.2172 9.40167C41.3203 9.29564 41.378 9.15358 41.378 9.00567C41.378 8.85777 41.3203 8.7157 41.2172 8.60967ZM23.0732 12.1057V14.8337C23.0732 14.9822 23.1322 15.1246 23.2372 15.2297C23.3423 15.3347 23.4847 15.3937 23.6332 15.3937C23.7817 15.3937 23.9242 15.3347 24.0292 15.2297C24.1342 15.1246 24.1932 14.9822 24.1932 14.8337V12.1057C24.1932 11.9572 24.1342 11.8147 24.0292 11.7097C23.9242 11.6047 23.7817 11.5457 23.6332 11.5457C23.4847 11.5457 23.3423 11.6047 23.2372 11.7097C23.1322 11.8147 23.0732 11.9572 23.0732 12.1057ZM24.2332 36.5057V33.7777C24.2332 33.6292 24.1742 33.4867 24.0692 33.3817C23.9642 33.2767 23.8217 33.2177 23.6732 33.2177C23.5247 33.2177 23.3823 33.2767 23.2772 33.3817C23.1722 33.4867 23.1132 33.6292 23.1132 33.7777V36.5057C23.1132 36.6542 23.1722 36.7966 23.2772 36.9017C23.3823 37.0067 23.5247 37.0657 23.6732 37.0657C23.8217 37.0657 23.9642 37.0067 24.0692 36.9017C24.1742 36.7966 24.2332 36.6542 24.2332 36.5057ZM35.8332 24.8657C35.9817 24.8657 36.1242 24.8067 36.2292 24.7017C36.3342 24.5966 36.3932 24.4542 36.3932 24.3057C36.3932 24.1572 36.3342 24.0147 36.2292 23.9097C36.1242 23.8047 35.9817 23.7457 35.8332 23.7457H33.1052C32.9567 23.7457 32.8143 23.8047 32.7092 23.9097C32.6042 24.0147 32.5452 24.1572 32.5452 24.3057C32.5452 24.4542 32.6042 24.5966 32.7092 24.7017C32.8143 24.8067 32.9567 24.8657 33.1052 24.8657H35.8332ZM11.4332 23.7457C11.2847 23.7457 11.1423 23.8047 11.0372 23.9097C10.9322 24.0147 10.8732 24.1572 10.8732 24.3057C10.8732 24.4542 10.9322 24.5966 11.0372 24.7017C11.1423 24.8067 11.2847 24.8657 11.4332 24.8657H14.1612C14.2348 24.8657 14.3076 24.8512 14.3755 24.823C14.4435 24.7949 14.5052 24.7537 14.5572 24.7017C14.6092 24.6497 14.6504 24.5879 14.6786 24.52C14.7067 24.452 14.7212 24.3792 14.7212 24.3057C14.7212 24.2321 14.7067 24.1593 14.6786 24.0914C14.6504 24.0234 14.6092 23.9617 14.5572 23.9097C14.5052 23.8577 14.4435 23.8164 14.3755 23.7883C14.3076 23.7602 14.2348 23.7457 14.1612 23.7457H11.4332Z" fill="black"/>
</svg>
