<svg width="48" height="48" viewBox="0 0 48 48" fill="none" xmlns="http://www.w3.org/2000/svg">
<path d="M41.3761 17.7051C41.3836 17.6547 41.3836 17.6035 41.3761 17.5531C41.3761 17.5531 41.3761 17.5531 41.3761 17.5051C41.3518 17.4481 41.3165 17.3964 41.2721 17.3531L41.1922 17.2971L24.6881 7.28106C24.6168 7.2378 24.5366 7.21104 24.4536 7.20273C24.3705 7.19443 24.2867 7.20479 24.2081 7.23306L6.77615 13.4811C6.69155 13.5149 6.61714 13.57 6.56015 13.6411V13.6891C6.48911 13.7428 6.43384 13.8146 6.40015 13.8971C6.40015 13.8971 6.40015 13.8971 6.40015 13.9371V18.3931C6.401 18.4847 6.424 18.5747 6.46718 18.6555C6.51037 18.7363 6.57245 18.8055 6.64815 18.8571L22.0081 29.2571H22.0641H22.1281C22.1915 29.27 22.2568 29.27 22.3201 29.2571C22.3809 29.2691 22.4434 29.2691 22.5041 29.2571L41.0081 22.6171C41.1178 22.5789 41.2129 22.5076 41.2803 22.413C41.3477 22.3184 41.384 22.2052 41.3841 22.0891V17.7371C41.3841 17.7371 41.3761 17.7211 41.3761 17.7051ZM24.3361 8.37706L39.5281 17.6011L22.4001 23.7531L8.19215 14.1611L24.3361 8.37706ZM7.52015 15.0651L21.7601 24.6651V27.7691L7.52015 18.1691V15.0651ZM22.8801 28.0011V24.8011L40.2641 18.5691V21.8331L22.8801 28.0011ZM41.3441 28.6651C41.3441 28.6651 41.3441 28.6651 41.3441 28.6171C41.3198 28.5601 41.2845 28.5084 41.2401 28.4651L41.1601 28.4011L36.0001 25.3131C35.9368 25.2686 35.8648 25.2379 35.7888 25.223C35.7128 25.2082 35.6346 25.2095 35.5592 25.2268C35.4837 25.2442 35.4128 25.2772 35.3509 25.3238C35.2891 25.3703 35.2377 25.4294 35.2001 25.4971C35.1569 25.5608 35.1272 25.6328 35.113 25.7085C35.0988 25.7843 35.1004 25.8621 35.1177 25.9372C35.1349 26.0123 35.1675 26.083 35.2134 26.1449C35.2592 26.2068 35.3174 26.2586 35.3841 26.2971L39.4721 28.7851L22.4001 34.8891L8.19215 25.2891L11.3441 24.1611C11.4135 24.1364 11.4773 24.0983 11.5319 24.0489C11.5865 23.9996 11.6309 23.94 11.6624 23.8735C11.694 23.807 11.7122 23.7349 11.7159 23.6614C11.7196 23.5879 11.7088 23.5144 11.6841 23.4451C11.6595 23.3757 11.6214 23.3119 11.572 23.2573C11.5227 23.2027 11.463 23.1583 11.3966 23.1268C11.3301 23.0952 11.258 23.077 11.1845 23.0733C11.111 23.0696 11.0375 23.0804 10.9681 23.1051L6.76815 24.6251C6.68238 24.6567 6.60744 24.7122 6.55215 24.7851V24.8331C6.51394 24.8945 6.48686 24.9622 6.47215 25.0331C6.47215 25.0331 6.47215 25.0331 6.47215 25.0731C6.47215 25.0731 6.47215 25.0731 6.47215 25.1131V29.6011C6.473 29.6927 6.496 29.7827 6.53918 29.8635C6.58237 29.9443 6.64445 30.0135 6.72015 30.0651L22.0801 40.4651H22.1361H22.1921C22.2558 40.4905 22.3236 40.5041 22.3921 40.5051C22.4532 40.5134 22.5151 40.5134 22.5761 40.5051L41.0801 33.8651C41.1898 33.8269 41.2849 33.7556 41.3523 33.661C41.4197 33.5664 41.456 33.4532 41.4561 33.3371V28.8811C41.4338 28.8118 41.3954 28.7488 41.3441 28.6971V28.6651ZM7.52015 26.2091L21.7601 35.8091V38.9211L7.52015 29.3211V26.2091ZM22.8801 39.2011V35.9131L40.2641 29.6811V32.9451L22.8801 39.2011Z" fill="black"/>
</svg>
