<svg width="48" height="48" viewBox="0 0 48 48" fill="none" xmlns="http://www.w3.org/2000/svg">
<path d="M23.64 12.8C21.0181 12.8021 18.5039 13.8429 16.6477 15.6946C14.7914 17.5463 13.7445 20.0581 13.736 22.68C13.736 27.104 15.336 28.76 16.768 30.2239C18.008 31.4879 19.072 32.584 19.072 35.4399V37.9039C19.0742 38.8623 19.4558 39.7808 20.1335 40.4585C20.8112 41.1362 21.7297 41.5178 22.688 41.52H24.136C25.0937 41.5178 26.0114 41.1359 26.6878 40.458C27.3642 39.7801 27.7441 38.8616 27.744 37.9039V35.4399C27.744 32.9359 28.912 31.68 30.256 30.2239C31.792 28.5599 33.536 26.68 33.536 22.68C33.5276 20.0594 32.4818 17.5489 30.6273 15.6974C28.7728 13.8459 26.2606 12.8042 23.64 12.8ZM26.6241 37.92C26.6241 38.5798 26.3619 39.2126 25.8953 39.6792C25.4287 40.1458 24.7959 40.4079 24.136 40.4079H22.688C22.0275 40.408 21.3938 40.1461 20.9259 39.6797C20.4581 39.2134 20.1942 38.5805 20.192 37.92V36H26.592L26.6241 37.92ZM29.4321 29.4799C28.1441 30.872 26.832 32.3199 26.664 34.8959H20.184C20.04 31.9999 18.784 30.6879 17.6 29.4399C16.2 28.0079 14.88 26.648 14.88 22.68C14.88 20.346 15.8072 18.1077 17.4575 16.4574C19.1078 14.8071 21.3461 13.88 23.68 13.88C26.014 13.88 28.2523 14.8071 29.9026 16.4574C31.5529 18.1077 32.48 20.346 32.48 22.68C32.416 26.24 30.9041 27.8799 29.4321 29.4639V29.4799ZM24.2 17.096C24.2 17.2445 24.141 17.3869 24.036 17.4919C23.931 17.597 23.7886 17.656 23.64 17.656C22.3083 17.6581 21.0316 18.1881 20.0899 19.1298C19.1482 20.0715 18.6182 21.3482 18.616 22.68C18.616 22.8285 18.557 22.9709 18.452 23.0759C18.347 23.181 18.2046 23.24 18.056 23.24C17.9075 23.24 17.7651 23.181 17.6601 23.0759C17.555 22.9709 17.496 22.8285 17.496 22.68C17.4982 21.0511 18.1462 19.4896 19.2979 18.3378C20.4497 17.1861 22.0112 16.5381 23.64 16.536C23.7136 16.536 23.7864 16.5504 23.8544 16.5786C23.9223 16.6067 23.984 16.648 24.036 16.7C24.088 16.752 24.1293 16.8137 24.1574 16.8816C24.1856 16.9496 24.2 17.0224 24.2 17.096ZM23.024 11.096V7.75995C23.024 7.68641 23.0385 7.61359 23.0667 7.54565C23.0948 7.47771 23.1361 7.41597 23.1881 7.36397C23.2401 7.31197 23.3018 7.27072 23.3697 7.24258C23.4377 7.21444 23.5105 7.19995 23.584 7.19995C23.6576 7.19995 23.7304 7.21444 23.7984 7.24258C23.8663 7.27072 23.928 7.31197 23.98 7.36397C24.032 7.41597 24.0733 7.47771 24.1014 7.54565C24.1296 7.61359 24.144 7.68641 24.144 7.75995V11.096C24.144 11.2445 24.085 11.3869 23.98 11.4919C23.875 11.597 23.7326 11.656 23.584 11.656C23.4355 11.656 23.2931 11.597 23.1881 11.4919C23.083 11.3869 23.024 11.2445 23.024 11.096ZM31.592 15.408C31.5378 15.3564 31.4947 15.2943 31.4652 15.2256C31.4357 15.1568 31.4204 15.0828 31.4204 15.008C31.4204 14.9331 31.4357 14.8591 31.4652 14.7903C31.4947 14.7216 31.5378 14.6595 31.592 14.608L34.456 11.736C34.5624 11.6304 34.7062 11.5712 34.856 11.5712C35.0059 11.5712 35.1497 11.6304 35.256 11.736C35.3103 11.7875 35.3534 11.8496 35.3829 11.9183C35.4124 11.9871 35.4276 12.0611 35.4276 12.136C35.4276 12.2108 35.4124 12.2848 35.3829 12.3536C35.3534 12.4223 35.3103 12.4844 35.256 12.536L32.392 15.408C32.3399 15.4612 32.2777 15.5034 32.209 15.5323C32.1403 15.5611 32.0665 15.576 31.992 15.576C31.9173 15.5774 31.8432 15.5632 31.7743 15.5342C31.7054 15.5053 31.6433 15.4623 31.592 15.408ZM38.496 23.0479C38.496 23.1215 38.4816 23.1943 38.4534 23.2623C38.4253 23.3302 38.384 23.3919 38.332 23.4439C38.28 23.4959 38.2183 23.5372 38.1504 23.5653C38.0824 23.5935 38.0096 23.608 37.936 23.608H34.9601C34.8115 23.608 34.6691 23.549 34.5641 23.4439C34.459 23.3389 34.4 23.1965 34.4 23.0479C34.4 22.8994 34.459 22.757 34.5641 22.652C34.6691 22.547 34.8115 22.488 34.9601 22.488H37.936C38.0846 22.488 38.227 22.547 38.332 22.652C38.437 22.757 38.496 22.8994 38.496 23.0479ZM12.04 12.536C11.934 12.4299 11.8744 12.286 11.8744 12.136C11.8744 11.9859 11.934 11.842 12.04 11.736C12.1461 11.6299 12.29 11.5703 12.44 11.5703C12.5901 11.5703 12.734 11.6299 12.84 11.736L15.704 14.616C15.7566 14.6685 15.7982 14.7308 15.8267 14.7995C15.8551 14.8681 15.8697 14.9417 15.8697 15.016C15.8697 15.0902 15.8551 15.1638 15.8267 15.2324C15.7982 15.3011 15.7566 15.3634 15.704 15.416C15.6515 15.4685 15.5892 15.5101 15.5205 15.5386C15.4519 15.567 15.3783 15.5816 15.304 15.5816C15.2298 15.5816 15.1562 15.567 15.0876 15.5386C15.0189 15.5101 14.9566 15.4685 14.904 15.416L12.04 12.536ZM12.896 23.0479C12.896 23.1215 12.8816 23.1943 12.8534 23.2623C12.8253 23.3302 12.784 23.3919 12.732 23.4439C12.68 23.4959 12.6183 23.5372 12.5504 23.5653C12.4824 23.5935 12.4096 23.608 12.336 23.608H9.36005C9.21153 23.608 9.06909 23.549 8.96407 23.4439C8.85905 23.3389 8.80005 23.1965 8.80005 23.0479C8.80005 22.8994 8.85905 22.757 8.96407 22.652C9.06909 22.547 9.21153 22.488 9.36005 22.488H12.336C12.4096 22.488 12.4824 22.5024 12.5504 22.5306C12.6183 22.5587 12.68 22.6 12.732 22.652C12.784 22.704 12.8253 22.7657 12.8534 22.8336C12.8816 22.9016 12.896 22.9744 12.896 23.0479Z" fill="black"/>
</svg>
