<svg width="48" height="48" viewBox="0 0 48 48" fill="none" xmlns="http://www.w3.org/2000/svg">
<path d="M39.4882 22.2553H38.6882V17.6153C38.6882 17.132 38.593 16.6535 38.4081 16.207C38.2231 15.7605 37.9521 15.3548 37.6103 15.0131C37.2686 14.6714 36.8629 14.4003 36.4165 14.2154C35.97 14.0305 35.4915 13.9353 35.0082 13.9353H34.9282L31.5282 10.5433C31.1569 10.167 30.6718 9.92377 30.1481 9.85144C29.6245 9.77911 29.0916 9.8817 28.6322 10.1433L26.3362 8.28727C25.9881 8.0066 25.5628 7.83863 25.1169 7.80576C24.671 7.77289 24.2256 7.87667 23.8402 8.10327L13.9922 13.9353H11.8802C10.9042 13.9353 9.96818 14.323 9.27804 15.0131C8.58791 15.7033 8.2002 16.6393 8.2002 17.6153V33.8473C8.20231 34.8226 8.5907 35.7574 9.28038 36.4471C9.97005 37.1368 10.9048 37.5252 11.8802 37.5273H34.9762C35.9515 37.5252 36.8863 37.1368 37.576 36.4471C38.2657 35.7574 38.6541 34.8226 38.6562 33.8473V29.3433H39.4562C39.9534 29.3412 40.4295 29.1422 40.7804 28.7898C41.1312 28.4375 41.3282 27.9605 41.3282 27.4633V24.1353C41.3283 23.6435 41.1357 23.1713 40.7918 22.8199C40.4478 22.4684 39.9798 22.2657 39.4882 22.2553ZM30.7362 11.3273L33.3202 13.9353H24.8402L29.0882 11.1593C29.3408 10.995 29.642 10.922 29.9418 10.9526C30.2416 10.9831 30.5219 11.1154 30.7362 11.3273ZM24.4082 9.07127C24.5963 8.95776 24.815 8.90528 25.0342 8.92104C25.2533 8.93679 25.4622 9.02002 25.6322 9.15927L27.6322 10.7593L22.7922 13.9593H16.2002L24.4082 9.07127ZM37.5362 33.8713C37.5362 34.2075 37.47 34.5403 37.3413 34.8509C37.2127 35.1615 37.0241 35.4437 36.7864 35.6815C36.5487 35.9192 36.2665 36.1078 35.9559 36.2364C35.6453 36.3651 35.3124 36.4313 34.9762 36.4313H11.8802C11.2019 36.4292 10.552 36.1588 10.0723 35.6791C9.5927 35.1995 9.32231 34.5496 9.3202 33.8713V17.6153C9.3202 16.9363 9.58991 16.2852 10.07 15.8051C10.5501 15.325 11.2012 15.0553 11.8802 15.0553H34.9762C35.3124 15.0553 35.6453 15.1215 35.9559 15.2501C36.2665 15.3788 36.5487 15.5674 36.7864 15.8051C37.0241 16.0428 37.2127 16.325 37.3413 16.6356C37.47 16.9462 37.5362 17.2791 37.5362 17.6153V22.2553H32.6162C31.6763 22.2553 30.7748 22.6287 30.1102 23.2933C29.4456 23.9579 29.0722 24.8593 29.0722 25.7993C29.0722 26.7392 29.4456 27.6406 30.1102 28.3053C30.7748 28.9699 31.6763 29.3433 32.6162 29.3433H37.5362V33.8713ZM40.2402 27.4713C40.2406 27.6754 40.1629 27.8719 40.0231 28.0206C39.8833 28.1694 39.6919 28.259 39.4882 28.2713H32.6162C31.9733 28.2713 31.3568 28.0159 30.9022 27.5613C30.4476 27.1067 30.1922 26.4902 30.1922 25.8473C30.1922 25.2044 30.4476 24.5878 30.9022 24.1332C31.3568 23.6787 31.9733 23.4233 32.6162 23.4233H39.4882C39.6919 23.4355 39.8833 23.5252 40.0231 23.6739C40.1629 23.8226 40.2406 24.0192 40.2402 24.2233V27.4713ZM34.3522 25.5993C34.3522 25.7781 34.2992 25.9528 34.1998 26.1015C34.1005 26.2502 33.9593 26.366 33.7941 26.4345C33.629 26.5029 33.4472 26.5208 33.2718 26.4859C33.0965 26.451 32.9354 26.3649 32.809 26.2385C32.6825 26.1121 32.5964 25.951 32.5616 25.7756C32.5267 25.6003 32.5446 25.4185 32.613 25.2533C32.6814 25.0881 32.7973 24.947 32.946 24.8476C33.0946 24.7483 33.2694 24.6953 33.4482 24.6953C33.6866 24.6953 33.9153 24.7894 34.0846 24.9572C34.2539 25.125 34.3501 25.3529 34.3522 25.5913V25.5993Z" fill="black"/>
</svg>
