<svg width="14" height="14" viewBox="0 0 14 14" fill="none" xmlns="http://www.w3.org/2000/svg">
<path d="M6.53777 1.12081C6.70788 0.708316 7.29212 0.708316 7.46223 1.12081L8.88448 4.56943C8.95481 4.73996 9.11332 4.85791 9.29687 4.8763L12.898 5.23711C13.3264 5.28003 13.5038 5.80816 13.1884 6.10105L10.4417 8.65106C10.3129 8.77067 10.2563 8.94914 10.2927 9.12111L11.0834 12.8535C11.1746 13.2843 10.7047 13.6142 10.3305 13.3819L7.2637 11.4781C7.10219 11.3779 6.8978 11.3779 6.7363 11.4781L3.66949 13.3819C3.29533 13.6142 2.82537 13.2843 2.91664 12.8535L3.70727 9.12111C3.7437 8.94914 3.68715 8.77067 3.55832 8.65106L0.811641 6.10105C0.49616 5.80816 0.673648 5.28003 1.10198 5.23711L4.70313 4.8763C4.88668 4.85791 5.04519 4.73996 5.11552 4.56943L6.53777 1.12081Z" fill="#FBBC04"/>
</svg>
