<svg width="22" height="17" viewBox="0 0 22 17" fill="none" xmlns="http://www.w3.org/2000/svg">
<path d="M18.9786 4.30241C19.7822 3.69865 20.5054 2.97415 21.1081 2.08864C20.3045 2.45089 19.5009 2.69239 18.6973 2.77289C19.5813 2.20939 20.2241 1.44463 20.5456 0.438367C19.7018 0.921373 18.8179 1.28363 17.8536 1.44463C17.4518 1.04212 16.9697 0.72012 16.4473 0.478618C15.925 0.237115 15.3625 0.116364 14.7598 0.116364C13.9964 0.116364 13.3134 0.317616 12.6706 0.67987C12.0277 1.08237 11.5054 1.60563 11.1438 2.24964C10.742 2.89364 10.5813 3.61815 10.5813 4.34266C10.5813 4.66466 10.5813 4.98667 10.6616 5.30867C8.93394 5.22817 7.3268 4.82567 5.80001 4.02066C4.27323 3.2559 3.02769 2.20939 1.98305 0.881122C1.58126 1.56538 1.38037 2.28989 1.38037 3.0144C1.38037 3.7389 1.54109 4.42316 1.90269 5.02692C2.22412 5.67093 2.70626 6.15393 3.26876 6.55644C2.58573 6.55644 1.94287 6.35518 1.38037 5.99293V6.07343C1.38037 7.07969 1.7018 7.9652 2.34466 8.72996C2.98751 9.53497 3.79109 10.018 4.75537 10.2192C4.35359 10.2997 3.99198 10.34 3.63037 10.34C3.3893 10.34 3.10805 10.34 2.86698 10.2997C3.10805 11.145 3.59019 11.8292 4.31341 12.3928C5.03662 12.9563 5.84019 13.1978 6.80448 13.1978C5.23751 14.4053 3.46966 15.009 1.54109 15.009C1.1393 15.009 0.817871 15.009 0.536621 14.9688C2.46519 16.2568 4.63484 16.8606 7.00537 16.8606C9.45627 16.8606 11.6259 16.2568 13.5545 14.9688C15.2822 13.8418 16.6482 12.3525 17.6125 10.4205C18.5366 8.64946 19.0188 6.75769 19.0188 4.82567C19.0188 4.58416 18.9786 4.42316 18.9786 4.30241Z" fill="white"/>
</svg>
