<svg width="21" height="22" viewBox="0 0 21 22" fill="none" xmlns="http://www.w3.org/2000/svg">
<path fill-rule="evenodd" clip-rule="evenodd" d="M17.8214 3.36734C15.9194 1.40697 13.39 0.326816 10.6952 0.325714C5.14249 0.325714 0.623312 4.97802 0.621089 10.6965C0.620349 12.5244 1.08425 14.3087 1.96578 15.8815L0.536621 21.2559L5.87703 19.8137C7.34841 20.64 9.00507 21.0754 10.6911 21.0761H10.6953C16.2473 21.0761 20.7669 16.4232 20.7692 10.7047C20.7703 7.9335 19.7234 5.3277 17.8214 3.36734ZM10.6953 19.3244H10.6918C9.1894 19.3238 7.71574 18.9083 6.4302 18.1229L6.12442 17.936L2.95539 18.7919L3.80128 15.6109L3.60217 15.2847C2.76402 13.9122 2.32132 12.3259 2.32198 10.6971C2.32382 5.94417 6.08001 2.07738 10.6986 2.07738C12.935 2.07825 15.0373 2.97609 16.6182 4.60548C18.1991 6.23487 19.0692 8.40071 19.0683 10.7041C19.0664 15.4573 15.3103 19.3244 10.6953 19.3244ZM15.2881 12.8683C15.0363 12.7386 13.7988 12.1116 13.5681 12.0252C13.3373 11.9387 13.1696 11.8954 13.0017 12.1549C12.8339 12.4143 12.3515 12.998 12.2047 13.171C12.0579 13.3439 11.911 13.3656 11.6593 13.2358C11.4076 13.1061 10.5966 12.8325 9.63509 11.9496C8.88683 11.2625 8.38161 10.4138 8.23479 10.1544C8.08796 9.89494 8.21918 9.75466 8.34518 9.62549C8.4584 9.50937 8.59689 9.32282 8.72275 9.17147C8.84859 9.02015 8.89054 8.91206 8.97443 8.73912C9.05835 8.56616 9.0164 8.41481 8.95347 8.2851C8.89054 8.15539 8.38715 6.87985 8.17737 6.36099C7.97307 5.85566 7.76553 5.92403 7.61103 5.91612C7.46437 5.9086 7.29639 5.90699 7.12861 5.90699C6.9608 5.90699 6.6881 5.97186 6.45736 6.23128C6.22664 6.49072 5.57641 7.11768 5.57641 8.3932C5.57641 9.66872 6.47835 10.901 6.60421 11.0739C6.73005 11.2469 8.37914 13.8645 10.9042 14.987C11.5047 15.254 11.9736 15.4134 12.3392 15.5329C12.9422 15.7301 13.4909 15.7023 13.9246 15.6356C14.4082 15.5612 15.4139 15.0086 15.6237 14.4033C15.8334 13.798 15.8334 13.2791 15.7705 13.171C15.7076 13.0629 15.5398 12.998 15.2881 12.8683Z" fill="white"/>
</svg>
