<svg width="315" height="631" viewBox="0 0 315 631" fill="none" xmlns="http://www.w3.org/2000/svg">
<path d="M-22.8479 43.5002C-10.8669 31.5192 -10.8669 11.981 -22.8479 0C-10.8669 11.981 8.67135 11.981 20.6523 0C8.67135 11.981 8.67135 31.5192 20.6523 43.5002C8.48702 31.5192 -10.8669 31.5192 -22.8479 43.5002Z" fill="#E2E528"/>
<path d="M49.5911 118.151C61.5721 106.17 61.5721 86.6319 49.5911 74.6509C61.5721 86.6319 81.1103 86.6319 93.0913 74.6509C81.1103 86.8162 81.1103 106.17 93.0913 118.151C81.1103 106.17 61.5721 106.17 49.5911 118.151Z" fill="#E2E528"/>
<path d="M-23.4006 191.327C-11.4196 179.346 -11.4196 159.808 -23.4006 147.827C-11.4196 159.808 8.11861 159.808 20.0996 147.827C8.11861 159.808 8.11861 179.346 20.0996 191.327C7.93429 179.346 -11.4196 179.346 -23.4006 191.327Z" fill="#E2E528"/>
<path d="M124.242 190.774C136.223 178.793 136.223 159.255 124.242 147.274C136.223 159.255 155.761 159.255 167.742 147.274C155.761 159.255 155.761 178.793 167.742 190.774C155.761 178.793 136.223 178.793 124.242 190.774Z" fill="#8666DF"/>
<path d="M51.2498 263.766C63.2308 251.785 63.2308 232.247 51.2498 220.266C63.2308 232.247 82.769 232.247 94.75 220.266C82.769 232.247 82.769 251.785 94.75 263.766C82.5847 251.785 63.2308 251.785 51.2498 263.766Z" fill="#5FE6E9"/>
<path d="M-21.926 336.758C-9.94501 324.777 -9.94501 305.239 -21.926 293.258C-9.94501 305.239 9.59322 305.239 21.5742 293.258C9.59322 305.239 9.59322 324.777 21.5742 336.758C9.59322 324.777 -9.76068 324.777 -21.926 336.758Z" fill="#5FE6E9"/>
<path d="M197.787 264.319C209.768 252.338 209.768 232.8 197.787 220.819C209.768 232.8 229.306 232.8 241.287 220.819C229.306 232.8 229.306 252.338 241.287 264.319C229.306 252.338 209.768 252.338 197.787 264.319Z" fill="#8666DF"/>
<path d="M124.795 337.311C136.776 325.33 136.776 305.792 124.795 293.811C136.776 305.792 156.314 305.792 168.295 293.811C156.314 305.792 156.314 325.33 168.295 337.311C156.314 325.33 136.776 325.33 124.795 337.311Z" fill="#E2E528"/>
<path d="M51.803 410.487C63.784 398.506 63.784 378.968 51.803 366.987C63.784 378.968 83.3222 378.968 95.3032 366.987C83.3222 378.968 83.3222 398.506 95.3032 410.487C83.1379 398.322 63.784 398.322 51.803 410.487Z" fill="#E2E528"/>
<path d="M-21.3733 483.479C-9.3923 471.498 -9.3923 451.96 -21.3733 439.979C-9.3923 451.96 10.146 451.96 22.127 439.979C10.146 451.96 10.146 471.498 22.127 483.479C10.146 471.498 -9.3923 471.498 -21.3733 483.479Z" fill="#8666DF"/>
<path d="M271.332 337.864C283.313 325.883 283.313 306.345 271.332 294.364C283.313 306.345 302.851 306.345 314.832 294.364C302.851 306.345 302.851 325.883 314.832 337.864C302.851 325.883 283.497 325.883 271.332 337.864Z" fill="#E2E528"/>
<path d="M198.34 410.856C210.321 398.875 210.321 379.337 198.34 367.356C210.321 379.337 229.859 379.337 241.84 367.356C229.859 379.337 229.859 398.875 241.84 410.856C229.859 398.875 210.321 398.875 198.34 410.856Z" fill="#E2E528"/>
<path d="M125.348 484.032C137.329 472.051 137.329 452.513 125.348 440.532C137.329 452.513 156.867 452.513 168.848 440.532C156.867 452.513 156.867 472.051 168.848 484.032C156.683 472.051 137.329 472.051 125.348 484.032Z" fill="#5FE6E9"/>
<path d="M52.3562 557.024C64.3372 545.043 64.3372 525.505 52.3562 513.524C64.3372 525.505 83.8754 525.505 95.8564 513.524C83.8754 525.505 83.8754 545.043 95.8564 557.024C83.6911 545.043 64.3372 545.043 52.3562 557.024Z" fill="#E2E528"/>
<path d="M-20.82 630.016C-8.83905 618.035 -8.83905 598.497 -20.82 586.516C-8.83905 598.497 10.6992 598.497 22.6802 586.516C10.6992 598.497 10.6992 618.035 22.6802 630.016C10.6992 618.035 -8.83905 618.035 -20.82 630.016Z" fill="#E2E528"/>
</svg>
