<svg width="430" height="144" viewBox="0 0 430 144" fill="none" xmlns="http://www.w3.org/2000/svg">
<path d="M44.4 39.2666C44.4 39.2666 46.4667 91.5999 0 91.5999C0 91.5999 53.2666 110.533 55.4666 136.2C55.4666 136.2 53.8667 89.5999 94.4 84.0666C94.4 83.9999 51.8 68.7333 44.4 39.2666Z" fill="white"/>
<path d="M164.4 18.6C164.4 18.6 138.533 27.3333 129.8 0C129.8 0 137 31.6667 122.333 37.7333C122.333 37.7333 144.067 30.3333 154.934 53.2C154.867 53.1333 148.4 28.4666 164.4 18.6Z" fill="white"/>
<path d="M135.067 52.6001C135.067 52.6001 150.734 76.4001 136.934 97.2668C136.934 97.2668 160.467 77.4001 177.734 97.2001C177.734 97.2001 163.667 73.0001 183.2 54.4668C183.2 54.5335 158.8 70.9334 135.067 52.6001Z" fill="white"/>
<path d="M97.3998 129.8C85.9998 129.8 66.3332 128.4 62.2665 118.933C58.1332 109.333 61.3998 70.9331 65.5998 56.2664C67.1332 50.7998 68.4664 46.3998 69.7998 43.3331C70.5998 41.4665 73.0664 35.7998 78.7998 35.7998C82.1998 35.7998 84.7998 37.9331 86.3998 39.5331C89.1998 42.2665 91.3998 44.4664 92.8665 45.9331C93.7998 45.8664 94.9332 45.7998 96.2665 45.7998C96.5998 45.7998 96.9998 45.7998 97.3998 45.7998C97.7998 45.7998 98.1998 45.7998 98.5332 45.7998C99.8665 45.7998 101 45.8664 101.933 45.9331C103.4 44.4664 105.6 42.2665 108.4 39.5331C110.066 37.9331 112.6 35.7998 116 35.7998C121.733 35.7998 124.2 41.4665 125 43.3331C126.333 46.3998 127.6 50.8664 129.2 56.2664C133.4 70.9331 136.667 109.333 132.533 118.933C128.467 128.4 108.733 129.8 97.3998 129.8Z" fill="#2A2669"/>
<path d="M123.6 57.8666C119.333 42.9333 117.733 38.4666 112.4 43.6666C107.067 48.8666 104 52.0666 104 52.0666C104 52.0666 102 51.5332 97.4001 51.5999C92.8001 51.4666 90.8001 52.0666 90.8001 52.0666C90.8001 52.0666 87.7334 48.8666 82.4001 43.6666C77.0667 38.4666 75.4668 42.9999 71.2001 57.8666C66.9335 72.7999 64.4001 109.2 67.6001 116.667C69.7334 121.667 83.8667 124.067 97.4001 124.067C110.933 124.067 125.067 121.733 127.2 116.667C130.4 109.133 127.867 72.7333 123.6 57.8666Z" fill="white"/>
<path d="M77.7998 125.466C77.7998 125.466 94.1999 135.466 129.267 124.333C155.867 115.866 153.8 95.6665 166.2 100.066C183.267 106.133 158.933 134.2 125.333 136.133C89.0665 138.2 77.7998 125.466 77.7998 125.466Z" fill="white"/>
<path d="M186.933 112C185.333 111.333 184.067 110.266 183.133 108.933C182.2 107.533 181.733 105.866 181.733 103.866C181.733 100.733 182.6 98.2664 184.333 96.6664C186.067 94.9997 188.533 94.1997 191.8 94.1997C195 94.1997 197.4 94.9997 199.067 96.5997C200.733 98.1997 201.533 100.466 201.533 103.466C201.533 104.533 201.067 105 200.133 105H187.533C187.533 106.333 188.067 107.333 189 108.066C190 108.8 191.4 109.133 193.133 109.133C194.2 109.133 195.067 109 195.867 108.8C196.6 108.6 197.4 108.266 198.067 107.866C198.333 107.733 198.467 107.666 198.6 107.666C198.8 107.666 198.933 107.8 199.067 108.066L200.133 110.066C200.2 110.266 200.267 110.4 200.267 110.533C200.267 110.733 200.133 110.933 199.867 111.133C198.867 111.8 197.8 112.266 196.533 112.533C195.267 112.8 193.867 113 192.267 113C190.333 113 188.533 112.666 186.933 112ZM196.067 101.8C196.067 100.533 195.733 99.5997 195 98.933C194.333 98.2664 193.267 97.8664 191.867 97.8664C190.467 97.8664 189.4 98.1997 188.667 98.933C187.933 99.6664 187.533 100.6 187.533 101.8H196.067Z" fill="white"/>
<path d="M204.2 112.2C204 112 203.934 111.666 203.934 111.266C203.934 110.4 204.067 109.733 204.267 109.266C204.467 108.8 204.934 108.266 205.6 107.533L213.8 99.1996H205.734C205.134 99.1996 204.734 99.0663 204.467 98.7996C204.2 98.533 204.067 98.1329 204.067 97.5996V96.1996C204.067 95.6663 204.2 95.2663 204.467 94.9996C204.734 94.733 205.134 94.5996 205.734 94.5996H220C220.467 94.5996 220.8 94.6663 220.934 94.8663C221.134 94.9996 221.2 95.333 221.2 95.7996C221.2 96.6663 221.067 97.333 220.867 97.7996C220.667 98.2663 220.2 98.8663 219.6 99.533L211.8 107.933H220C220.6 107.933 221 108.066 221.267 108.333C221.534 108.6 221.667 109 221.667 109.533V110.866C221.667 111.4 221.534 111.8 221.267 112.066C221 112.333 220.6 112.466 220 112.466H205.2C204.734 112.466 204.334 112.4 204.2 112.2Z" fill="white"/>
<path d="M224.867 110.8C223.467 109.333 222.733 107.2 222.733 104.533C222.733 102.466 223.2 100.666 224.2 99.0664C225.133 97.4664 226.533 96.2664 228.267 95.3997C230 94.533 232 94.1331 234.267 94.1331C236 94.1331 237.6 94.333 238.933 94.733C240.267 95.133 241.533 95.6664 242.6 96.4664V111.4C242.6 111.8 242.533 112.133 242.333 112.266C242.2 112.4 241.867 112.466 241.4 112.466H238.467C238.2 112.466 238 112.4 237.867 112.333C237.733 112.266 237.6 112.066 237.533 111.866L237.133 110.6C236.4 111.466 235.467 112.066 234.4 112.466C233.333 112.866 232.067 113.066 230.533 113.066C228.2 113 226.267 112.266 224.867 110.8ZM235.667 107.866C236.467 107.266 236.867 106.4 236.867 105.333V98.8664C236.133 98.4664 235.267 98.333 234.2 98.333C232.6 98.333 231.267 98.8664 230.267 99.933C229.267 101 228.8 102.533 228.8 104.466C228.8 105.933 229.133 107.066 229.8 107.733C230.467 108.4 231.467 108.8 232.8 108.8C233.933 108.8 234.867 108.533 235.667 107.866Z" fill="white"/>
<path d="M250.333 112.333C248.667 111.866 247.333 111.266 246.333 110.533V88.933C246.333 88.3997 246.467 87.9997 246.733 87.733C247 87.4663 247.4 87.333 248 87.333H250.667C251.267 87.333 251.734 87.4663 251.934 87.733C252.134 87.9997 252.333 88.3997 252.333 88.9997V95.5997C252.933 95.133 253.667 94.7997 254.534 94.5997C255.467 94.333 256.4 94.2663 257.4 94.2663C260.267 94.2663 262.467 94.9997 264 96.533C265.533 98.0663 266.267 100.2 266.267 103C266.267 106.2 265.334 108.733 263.534 110.466C261.734 112.266 259.067 113.133 255.534 113.133C253.734 113 252 112.8 250.333 112.333ZM259 107.333C259.8 106.333 260.2 104.866 260.2 102.933C260.2 101.333 259.867 100.2 259.267 99.4663C258.667 98.733 257.6 98.333 256.2 98.333C255.134 98.333 254.267 98.5997 253.534 99.133C252.8 99.6663 252.4 100.466 252.4 101.466V108.2C252.733 108.4 253.2 108.533 253.667 108.666C254.2 108.8 254.734 108.8 255.267 108.8C256.934 108.8 258.133 108.333 259 107.333Z" fill="white"/>
<path d="M270 111.333C268.8 110.2 268.134 108.533 268.134 106.266V96.3329C268.134 95.7996 268.267 95.3996 268.534 95.1329C268.8 94.8663 269.2 94.7329 269.8 94.7329H272.6C273.2 94.7329 273.667 94.8663 273.867 95.1329C274.134 95.3996 274.267 95.7996 274.267 96.3996V106.133C274.267 107.066 274.534 107.8 275 108.266C275.467 108.733 276.2 108.933 277.134 108.933C278.134 108.933 278.934 108.666 279.6 108.133C280.2 107.6 280.534 106.866 280.534 105.933V96.4663C280.534 95.9329 280.667 95.5329 280.934 95.2662C281.2 94.9996 281.6 94.8663 282.267 94.8663H285C285.6 94.8663 286.067 94.9996 286.334 95.2662C286.6 95.5329 286.734 95.9329 286.734 96.4663V111.533C286.734 111.933 286.667 112.266 286.534 112.4C286.4 112.533 286.067 112.6 285.667 112.6H282.734C282.134 112.6 281.867 112.4 281.867 112L281.734 110.6C280.134 112.333 277.867 113.133 275 113.133C272.867 113 271.267 112.466 270 111.333Z" fill="white"/>
<path d="M289.733 103.533C289.733 101.666 290.067 100.066 290.8 98.5997C291.533 97.1997 292.533 96.0664 293.867 95.333C295.2 94.533 296.867 94.1331 298.733 94.1331C299.8 94.1331 300.733 94.2664 301.6 94.4664C302.467 94.7331 303.133 95.0664 303.667 95.4664V88.8664C303.667 88.2664 303.8 87.8664 304.067 87.5997C304.333 87.333 304.733 87.1997 305.333 87.1997H308C308.6 87.1997 309 87.333 309.267 87.5997C309.533 87.8664 309.667 88.2664 309.667 88.7997V110.533C308.667 111.266 307.333 111.866 305.733 112.333C304.133 112.8 302.4 113.066 300.6 113.066C293.333 113 289.733 109.866 289.733 103.533ZM303.667 108.2V101.4C303.667 100.4 303.333 99.5997 302.733 99.1331C302.067 98.5997 301.2 98.3997 300.133 98.3997C298.667 98.3997 297.6 98.8664 296.867 99.7997C296.133 100.733 295.8 102 295.8 103.666C295.8 105.533 296.2 106.866 297 107.666C297.8 108.466 299.067 108.866 300.667 108.866C301.933 108.8 302.933 108.6 303.667 108.2Z" fill="white"/>
<path d="M332.133 111.866C332.133 112.066 332.067 112.2 332 112.333C331.867 112.466 331.733 112.533 331.467 112.533H326.867C326.6 112.533 326.334 112.533 326.2 112.466C326.067 112.4 325.867 112.266 325.733 112.133L319.867 104.866C319.8 104.8 319.734 104.666 319.6 104.533V111C319.6 111.533 319.467 111.933 319.2 112.2C318.934 112.466 318.534 112.6 317.934 112.6H315.133C314.533 112.6 314.134 112.466 313.867 112.2C313.6 111.933 313.467 111.533 313.467 111V89.0663C313.467 88.533 313.6 88.133 313.867 87.8663C314.134 87.5996 314.533 87.4663 315.133 87.4663H317.934C318.534 87.4663 319 87.5996 319.2 87.8663C319.467 88.133 319.6 88.533 319.6 89.133V102.333L319.867 102.066L325.6 95.4663C325.734 95.2663 325.933 95.133 326.067 95.0663C326.2 94.9996 326.467 94.9996 326.8 94.9996H331.4C331.6 94.9996 331.734 95.0663 331.867 95.1996C332 95.333 332.067 95.4663 332.067 95.6663C332.067 95.8663 332 96.0663 331.8 96.2663L324.934 103.666L332 111.6C332.067 111.4 332.133 111.6 332.133 111.866Z" fill="white"/>
<path d="M333.867 110.8C332.467 109.333 331.733 107.2 331.733 104.533C331.733 102.466 332.2 100.666 333.2 99.0664C334.133 97.4664 335.533 96.2664 337.267 95.3997C339 94.533 341 94.1331 343.267 94.1331C345 94.1331 346.6 94.333 347.933 94.733C349.267 95.133 350.533 95.6664 351.6 96.4664V111.4C351.6 111.8 351.533 112.133 351.333 112.266C351.2 112.4 350.867 112.466 350.4 112.466H347.467C347.2 112.466 347 112.4 346.867 112.333C346.733 112.266 346.6 112.066 346.533 111.866L346.133 110.6C345.4 111.466 344.467 112.066 343.4 112.466C342.333 112.866 341.067 113.066 339.533 113.066C337.2 113 335.267 112.266 333.867 110.8ZM344.667 107.866C345.467 107.266 345.867 106.4 345.867 105.333V98.8664C345.133 98.4664 344.267 98.333 343.2 98.333C341.6 98.333 340.267 98.8664 339.267 99.933C338.267 101 337.8 102.533 337.8 104.466C337.8 105.933 338.133 107.066 338.8 107.733C339.467 108.4 340.467 108.8 341.8 108.8C342.933 108.8 343.867 108.533 344.667 107.866Z" fill="white"/>
<path d="M354.867 103.266C354.667 103 354.6 102.666 354.6 102.2V100.533C354.6 100.066 354.667 99.6664 354.867 99.4664C355.067 99.1997 355.467 99.1331 356 99.1331H368.267C368.8 99.1331 369.133 99.2664 369.333 99.4664C369.533 99.7331 369.667 100.066 369.667 100.533V102.133C369.667 102.6 369.533 103 369.333 103.2C369.133 103.466 368.733 103.533 368.267 103.533H356C355.467 103.6 355.067 103.466 354.867 103.266Z" fill="white"/>
<path d="M374.667 112.066C374.4 111.8 374.267 111.4 374.267 110.866V98.9998H372.8C372.2 98.9998 371.8 98.8664 371.6 98.5998C371.4 98.3331 371.267 97.9331 371.267 97.3998V96.2664C371.267 95.6664 371.4 95.2664 371.6 95.0664C371.8 94.7998 372.2 94.7331 372.8 94.7331H374.267V93.7998C374.267 91.5998 374.867 89.8665 376.067 88.6665C377.267 87.4665 379.067 86.7998 381.467 86.7998C383.933 86.7998 385.8 87.3331 387.2 88.3331C387.467 88.5331 387.6 88.7331 387.6 88.9331C387.6 89.0664 387.533 89.2665 387.4 89.4665L386.267 91.3331C386.134 91.5998 385.933 91.7331 385.733 91.7331C385.6 91.7331 385.467 91.6664 385.267 91.5998C384.467 91.1331 383.667 90.9331 382.8 90.9331C381.867 90.9331 381.267 91.1331 380.867 91.5998C380.467 92.0664 380.267 92.7331 380.267 93.6665V94.7998H384.133C384.733 94.7998 385.133 94.9331 385.333 95.1331C385.533 95.3998 385.667 95.7998 385.667 96.3331V97.4665C385.667 98.0665 385.533 98.4665 385.333 98.6665C385.133 98.9331 384.733 99.0664 384.133 99.0664H380.267V110.933C380.267 111.466 380.134 111.866 379.867 112.133C379.6 112.4 379.2 112.533 378.6 112.533H375.8C375.4 112.466 374.933 112.333 374.667 112.066Z" fill="white"/>
<path d="M388.867 111.333C387.667 110.2 387 108.533 387 106.266V96.3329C387 95.7996 387.133 95.3996 387.4 95.1329C387.667 94.8663 388.067 94.7329 388.667 94.7329H391.467C392.067 94.7329 392.533 94.8663 392.733 95.1329C393 95.3996 393.133 95.7996 393.133 96.3996V106.133C393.133 107.066 393.4 107.8 393.867 108.266C394.333 108.733 395.067 108.933 396 108.933C397 108.933 397.8 108.666 398.467 108.133C399.067 107.6 399.4 106.866 399.4 105.933V96.4663C399.4 95.9329 399.533 95.5329 399.8 95.2662C400.067 94.9996 400.467 94.8663 401.133 94.8663H403.867C404.467 94.8663 404.933 94.9996 405.2 95.2662C405.467 95.5329 405.6 95.9329 405.6 96.4663V111.533C405.6 111.933 405.533 112.266 405.4 112.4C405.267 112.533 404.933 112.6 404.533 112.6H401.6C401 112.6 400.733 112.4 400.733 112L400.6 110.6C399 112.333 396.733 113.133 393.867 113.133C391.667 113 390.067 112.466 388.867 111.333Z" fill="white"/>
<path d="M409.667 112.066C409.4 111.8 409.267 111.4 409.267 110.866V95.7331C409.267 95.3331 409.333 94.9997 409.467 94.8664C409.6 94.7331 409.933 94.6664 410.333 94.6664H413.267C413.534 94.6664 413.8 94.7331 413.934 94.7998C414.067 94.8664 414.2 95.0664 414.2 95.3331L414.333 96.5997C415.067 95.7997 416.067 95.1997 417.2 94.7331C418.334 94.2664 419.667 94.0664 421.133 94.0664C423.133 94.0664 424.8 94.5997 426 95.7331C427.2 96.7997 427.8 98.4664 427.8 100.666V110.866C427.8 111.4 427.667 111.8 427.4 112.066C427.133 112.333 426.733 112.466 426.133 112.466H423.333C422.733 112.466 422.267 112.333 422 112.066C421.733 111.8 421.6 111.4 421.6 110.866V101.066C421.6 100.133 421.4 99.3998 421 98.9998C420.6 98.5998 419.867 98.3997 418.934 98.3997C417.867 98.3997 417 98.6664 416.333 99.1997C415.667 99.7331 415.267 100.466 415.267 101.333V110.866C415.267 111.4 415.134 111.8 414.867 112.066C414.6 112.333 414.2 112.466 413.6 112.466H410.867C410.4 112.466 409.933 112.333 409.667 112.066Z" fill="white"/>
<path d="M175.734 143.6C175.267 143.6 175.067 143.4 175.067 142.934V140.2C175.067 139.734 175.334 139.467 175.8 139.467H176.267C176.867 138.667 177.334 137.667 177.667 136.334C177.934 135 178.134 133.334 178.134 131.4V128.934C178.134 128.4 178.4 128.134 178.934 128.134H185.667C186.2 128.134 186.467 128.4 186.467 128.934V139.534H187.534C188.067 139.534 188.267 139.8 188.267 140.267V143C188.267 143.467 188.067 143.667 187.6 143.667C187.134 143.667 186.934 143.467 186.934 143V140.734H176.4V143C176.4 143.4 176.2 143.6 175.734 143.6ZM177.867 139.467H185.067V129.334H179.534V131.467C179.534 133.4 179.4 135 179.134 136.267C178.867 137.534 178.467 138.6 177.867 139.467Z" fill="white"/>
<path d="M192.867 140.867C192.267 140.867 191.733 140.734 191.267 140.534C190.8 140.334 190.4 140 190.133 139.6C189.867 139.2 189.733 138.734 189.733 138.267C189.733 137.667 189.867 137.134 190.2 136.734C190.533 136.334 191.067 136.067 191.8 135.934C192.533 135.8 193.6 135.667 194.933 135.667H195.533V135.134C195.533 134.4 195.4 133.867 195.067 133.534C194.733 133.2 194.267 133.067 193.6 133.067C193.2 133.067 192.733 133.134 192.333 133.2C191.933 133.334 191.467 133.467 191 133.734C190.8 133.867 190.6 133.867 190.467 133.8C190.333 133.734 190.267 133.6 190.2 133.467C190.133 133.334 190.133 133.134 190.2 133C190.267 132.867 190.4 132.734 190.533 132.6C191.067 132.334 191.533 132.134 192.067 132C192.6 131.867 193.067 131.8 193.533 131.8C194.667 131.8 195.467 132.067 196 132.6C196.533 133.134 196.8 134 196.8 135.134V140C196.8 140.534 196.6 140.734 196.133 140.734C195.667 140.734 195.467 140.467 195.467 140V139.2C195.267 139.734 194.867 140.134 194.4 140.4C194.067 140.667 193.533 140.867 192.867 140.867ZM193.133 139.734C193.867 139.734 194.467 139.467 194.867 139C195.267 138.534 195.533 137.867 195.533 137.134V136.6H195C194.067 136.6 193.267 136.667 192.733 136.734C192.2 136.8 191.8 137 191.6 137.2C191.4 137.4 191.267 137.734 191.267 138.134C191.267 138.6 191.467 139 191.8 139.334C192.133 139.667 192.533 139.734 193.133 139.734Z" fill="white"/>
<path d="M200.534 144C200.067 144 199.8 143.734 199.8 143.267V132.6C199.8 132.134 200 131.867 200.467 131.867C200.934 131.867 201.2 132.134 201.2 132.6V133.534C201.467 133 201.867 132.6 202.334 132.267C202.8 131.934 203.467 131.8 204.134 131.8C204.934 131.8 205.6 132 206.134 132.334C206.734 132.667 207.134 133.2 207.467 133.867C207.8 134.534 207.934 135.334 207.934 136.267C207.934 137.2 207.8 138 207.467 138.667C207.134 139.334 206.734 139.867 206.134 140.2C205.534 140.6 204.867 140.734 204.134 140.734C203.467 140.734 202.867 140.6 202.334 140.267C201.8 139.934 201.4 139.534 201.2 139V143.134C201.267 143.8 201 144 200.534 144ZM203.867 139.667C204.667 139.667 205.334 139.4 205.8 138.8C206.267 138.2 206.534 137.4 206.534 136.334C206.534 135.267 206.267 134.4 205.8 133.867C205.334 133.334 204.667 133 203.867 133C203.067 133 202.4 133.267 201.934 133.867C201.467 134.467 201.2 135.267 201.2 136.334C201.2 137.4 201.467 138.2 201.934 138.8C202.467 139.4 203.067 139.667 203.867 139.667Z" fill="white"/>
<path d="M211.067 140.8C210.6 140.8 210.4 140.534 210.4 140V132.534C210.4 132.067 210.6 131.8 211.067 131.8C211.534 131.8 211.734 132.067 211.734 132.534V138.667L216.467 132.267C216.534 132.134 216.667 132 216.8 131.934C216.934 131.867 217.067 131.8 217.334 131.8C217.8 131.8 218 132.067 218 132.6V140.067C218 140.534 217.8 140.8 217.334 140.8C216.867 140.8 216.667 140.534 216.667 140.067V133.934L211.867 140.334C211.8 140.467 211.667 140.534 211.534 140.667C211.467 140.734 211.267 140.8 211.067 140.8Z" fill="white"/>
<path d="M221.467 140.8C221.067 140.8 220.8 140.6 220.8 140.134V132.667C220.8 132.134 221 131.867 221.467 131.867C221.667 131.867 221.867 131.934 221.934 132C222.067 132.067 222.134 132.2 222.2 132.4L225.267 137.8L228.334 132.4C228.4 132.267 228.534 132.134 228.6 132C228.734 131.934 228.867 131.867 229.067 131.867C229.467 131.867 229.734 132.134 229.734 132.667V140.134C229.734 140.6 229.534 140.8 229.067 140.8C228.667 140.8 228.4 140.6 228.4 140.134V134.4L225.734 139.067C225.667 139.134 225.6 139.267 225.534 139.334C225.467 139.4 225.334 139.4 225.2 139.4C225.067 139.4 224.934 139.4 224.867 139.334C224.8 139.267 224.734 139.2 224.667 139.067L222 134.4V140.134C222.134 140.6 221.934 140.8 221.467 140.8Z" fill="white"/>
<path d="M238 140.8C237.534 140.8 237.267 140.534 237.267 140.067V132.6C237.267 132.134 237.534 131.867 238 131.867C238.467 131.867 238.734 132.134 238.734 132.6V135.6H243.467V132.6C243.467 132.134 243.734 131.867 244.2 131.867C244.667 131.867 244.934 132.134 244.934 132.6V140.067C244.934 140.6 244.667 140.8 244.2 140.8C243.734 140.8 243.467 140.534 243.467 140.067V136.8H238.734V140.067C238.667 140.534 238.467 140.8 238 140.8Z" fill="white"/>
<path d="M251.667 140.867C250.267 140.867 249.2 140.467 248.4 139.667C247.6 138.867 247.2 137.8 247.2 136.4C247.2 135.534 247.4 134.734 247.733 134C248.067 133.334 248.6 132.8 249.2 132.4C249.8 132 250.533 131.867 251.4 131.867C252.6 131.867 253.534 132.267 254.2 133C254.867 133.734 255.2 134.8 255.2 136.134C255.2 136.534 255 136.667 254.6 136.667H248.667C248.733 137.667 249 138.4 249.534 138.934C250.067 139.467 250.8 139.734 251.733 139.734C252.133 139.734 252.534 139.667 252.934 139.6C253.334 139.467 253.733 139.334 254.133 139.067C254.4 138.867 254.667 138.867 254.8 138.934C254.933 139 255.067 139.2 255.067 139.4C255.067 139.6 254.933 139.8 254.733 140C254.333 140.267 253.867 140.534 253.333 140.667C252.733 140.734 252.2 140.867 251.667 140.867ZM251.467 132.867C250.667 132.867 250 133.134 249.534 133.667C249.067 134.2 248.8 134.867 248.667 135.667H253.934C253.867 134.8 253.667 134.067 253.267 133.6C252.8 133.134 252.2 132.867 251.467 132.867Z" fill="white"/>
<path d="M260.334 140.867C259.734 140.867 259.134 140.8 258.534 140.667C257.934 140.534 257.467 140.334 257 140.067C256.734 139.934 256.667 139.734 256.6 139.534C256.534 139.334 256.667 139.134 256.867 139C257.067 138.867 257.267 138.867 257.534 139.067C257.934 139.334 258.334 139.467 258.8 139.6C259.267 139.734 259.734 139.8 260.267 139.8C261.134 139.8 261.734 139.667 262.134 139.4C262.534 139.134 262.667 138.8 262.667 138.334C262.667 137.867 262.534 137.534 262.2 137.267C261.867 137 261.467 136.934 260.867 136.934H259.334C258.934 136.934 258.734 136.734 258.734 136.4C258.734 136.067 258.934 135.867 259.334 135.867H260.734C261.267 135.867 261.667 135.734 261.934 135.534C262.2 135.334 262.4 135 262.4 134.534C262.4 134.067 262.267 133.734 261.934 133.467C261.6 133.2 261.067 133.067 260.334 133.067C259.867 133.067 259.4 133.134 259 133.2C258.6 133.267 258.2 133.467 257.8 133.667C257.534 133.8 257.267 133.867 257.134 133.734C256.934 133.6 256.867 133.467 256.867 133.2C256.867 133 257 132.8 257.2 132.667C258.134 132.134 259.2 131.867 260.534 131.867C261.667 131.867 262.467 132.067 263 132.534C263.534 132.934 263.8 133.534 263.8 134.334C263.8 134.8 263.667 135.134 263.4 135.534C263.134 135.867 262.8 136.134 262.334 136.267C262.867 136.4 263.267 136.667 263.6 137C263.934 137.334 264.067 137.8 264.067 138.334C264.067 139.134 263.734 139.734 263.134 140.2C262.467 140.6 261.534 140.867 260.334 140.867Z" fill="white"/>
<path d="M269.067 140.867C268.467 140.867 267.934 140.734 267.467 140.534C267 140.334 266.6 140 266.334 139.6C266.067 139.2 265.934 138.734 265.934 138.267C265.934 137.667 266.067 137.134 266.4 136.734C266.734 136.334 267.267 136.067 268 135.934C268.734 135.8 269.8 135.667 271.134 135.667H271.734V135.134C271.734 134.4 271.6 133.867 271.267 133.534C270.934 133.2 270.467 133.067 269.8 133.067C269.4 133.067 268.934 133.134 268.534 133.2C268.134 133.334 267.667 133.467 267.2 133.734C267 133.867 266.8 133.867 266.667 133.8C266.534 133.734 266.467 133.6 266.4 133.467C266.334 133.334 266.334 133.134 266.4 133C266.467 132.867 266.6 132.734 266.734 132.6C267.267 132.334 267.734 132.134 268.267 132C268.8 131.867 269.267 131.8 269.734 131.8C270.867 131.8 271.667 132.067 272.2 132.6C272.734 133.134 273 134 273 135.134V140C273 140.534 272.8 140.734 272.334 140.734C271.867 140.734 271.667 140.467 271.667 140V139.2C271.467 139.734 271.067 140.134 270.6 140.4C270.267 140.667 269.734 140.867 269.067 140.867ZM269.334 139.734C270.067 139.734 270.667 139.467 271.067 139C271.467 138.534 271.734 137.867 271.734 137.134V136.6H271.2C270.267 136.6 269.467 136.667 268.934 136.734C268.4 136.8 268 137 267.8 137.2C267.6 137.4 267.467 137.734 267.467 138.134C267.467 138.6 267.667 139 268 139.334C268.334 139.667 268.734 139.734 269.334 139.734Z" fill="white"/>
<path d="M279.6 140.867C278.334 140.867 277.267 140.467 276.534 139.6C275.8 138.734 275.4 137.534 275.4 135.934V134.6C275.4 132.867 275.733 131.534 276.467 130.667C277.133 129.734 278.2 129.134 279.6 128.734L282.2 128C282.667 127.867 282.933 128 283 128.4C283.133 128.8 282.933 129.067 282.467 129.2L279.667 129.934C278.733 130.2 278 130.667 277.467 131.334C276.933 132 276.733 132.8 276.733 133.8V133.867C277 133.267 277.4 132.8 277.934 132.467C278.467 132.134 279.133 131.934 279.8 131.934C280.533 131.934 281.2 132.134 281.8 132.467C282.4 132.8 282.8 133.334 283.133 134C283.467 134.667 283.6 135.467 283.6 136.334C283.6 137.267 283.4 138 283.067 138.734C282.733 139.4 282.267 139.934 281.667 140.267C281.2 140.667 280.467 140.867 279.6 140.867ZM279.6 139.667C280.467 139.667 281.134 139.4 281.6 138.8C282.067 138.267 282.333 137.4 282.333 136.334C282.333 135.267 282.067 134.467 281.6 133.934C281.134 133.334 280.467 133.067 279.6 133.067C278.734 133.067 278.134 133.334 277.6 133.934C277.067 134.534 276.867 135.267 276.867 136.267C276.867 137.4 277.067 138.267 277.534 138.8C278.067 139.4 278.734 139.667 279.6 139.667Z" fill="white"/>
<path d="M286.867 140.667C286.334 140.667 286.134 140.4 286.134 139.934V132.6C286.134 132.134 286.4 131.867 286.867 131.867C287.334 131.867 287.6 132.134 287.6 132.6V135.067H290.2C291.334 135.067 292.134 135.334 292.734 135.8C293.334 136.267 293.6 136.934 293.6 137.867C293.6 138.734 293.334 139.4 292.734 139.934C292.134 140.467 291.334 140.667 290.267 140.667H286.867ZM287.534 139.667H290C290.667 139.667 291.2 139.534 291.534 139.267C291.934 139 292.067 138.534 292.067 137.934C292.067 137.334 291.867 136.867 291.534 136.6C291.134 136.334 290.667 136.2 289.934 136.2H287.467V139.667H287.534ZM295.534 140.8C295.067 140.8 294.8 140.534 294.8 140.067V132.6C294.8 132.134 295.067 131.867 295.534 131.867C296 131.867 296.267 132.134 296.267 132.6V140.067C296.267 140.534 296.067 140.8 295.534 140.8Z" fill="white"/>
<path d="M299.867 140.667C299.334 140.667 299.134 140.4 299.134 139.934V132.734C299.134 132.2 299.4 132 299.867 132H303.334C304.334 132 305.134 132.2 305.6 132.6C306.067 133 306.334 133.534 306.334 134.334C306.334 134.8 306.2 135.2 305.934 135.534C305.667 135.867 305.334 136.134 304.867 136.267C305.4 136.4 305.8 136.667 306.134 137C306.467 137.4 306.6 137.8 306.6 138.334C306.6 139.067 306.334 139.667 305.8 140.067C305.267 140.467 304.467 140.734 303.467 140.734H299.867V140.667ZM300.534 135.734H303.334C303.867 135.734 304.334 135.6 304.6 135.4C304.867 135.134 305.067 134.8 305.067 134.334C305.067 133.867 304.934 133.534 304.6 133.334C304.334 133.067 303.867 133 303.334 133H300.534V135.734ZM300.534 139.667H303.467C304.067 139.667 304.534 139.534 304.8 139.267C305.134 139 305.267 138.667 305.267 138.134C305.267 137.667 305.134 137.267 304.8 137.067C304.467 136.867 304.067 136.667 303.467 136.667H300.534V139.667Z" fill="white"/>
<path d="M311.667 140.867C311.067 140.867 310.534 140.734 310.067 140.534C309.6 140.334 309.2 140 308.934 139.6C308.667 139.2 308.534 138.734 308.534 138.267C308.534 137.667 308.667 137.134 309 136.734C309.334 136.334 309.867 136.067 310.6 135.934C311.334 135.8 312.4 135.667 313.734 135.667H314.334V135.134C314.334 134.4 314.2 133.867 313.867 133.534C313.534 133.2 313.067 133.067 312.4 133.067C312 133.067 311.534 133.134 311.134 133.2C310.734 133.334 310.267 133.467 309.8 133.734C309.6 133.867 309.4 133.867 309.267 133.8C309.134 133.734 309.067 133.6 309 133.467C308.934 133.334 308.934 133.134 309 133C309.067 132.867 309.2 132.734 309.334 132.6C309.867 132.334 310.334 132.134 310.867 132C311.4 131.867 311.867 131.8 312.334 131.8C313.467 131.8 314.267 132.067 314.8 132.6C315.334 133.134 315.6 134 315.6 135.134V140C315.6 140.534 315.4 140.734 314.934 140.734C314.467 140.734 314.267 140.467 314.267 140V139.2C314.067 139.734 313.667 140.134 313.2 140.4C312.867 140.667 312.334 140.867 311.667 140.867ZM311.934 139.734C312.667 139.734 313.267 139.467 313.667 139C314.067 138.534 314.334 137.867 314.334 137.134V136.6H313.8C312.867 136.6 312.067 136.667 311.534 136.734C311 136.8 310.6 137 310.4 137.2C310.2 137.4 310.067 137.734 310.067 138.134C310.067 138.6 310.267 139 310.6 139.334C310.934 139.667 311.334 139.734 311.934 139.734Z" fill="white"/>
<path d="M322.534 140.867C321.134 140.867 320.067 140.467 319.267 139.667C318.467 138.867 318.067 137.8 318.067 136.4C318.067 135.534 318.267 134.734 318.6 134C318.934 133.334 319.467 132.8 320.067 132.4C320.667 132 321.4 131.867 322.267 131.867C323.467 131.867 324.4 132.267 325.067 133C325.734 133.734 326.067 134.8 326.067 136.134C326.067 136.534 325.867 136.667 325.467 136.667H319.534C319.6 137.667 319.867 138.4 320.4 138.934C320.934 139.467 321.667 139.734 322.6 139.734C323 139.734 323.4 139.667 323.8 139.6C324.2 139.467 324.6 139.334 325 139.067C325.267 138.867 325.534 138.867 325.667 138.934C325.8 139 325.934 139.2 325.934 139.4C325.934 139.6 325.8 139.8 325.6 140C325.2 140.267 324.734 140.534 324.2 140.667C323.534 140.734 323 140.867 322.534 140.867ZM322.267 132.867C321.467 132.867 320.8 133.134 320.334 133.667C319.867 134.2 319.6 134.867 319.467 135.667H324.734C324.667 134.8 324.467 134.067 324.067 133.6C323.667 133.134 323.067 132.867 322.267 132.867Z" fill="white"/>
<path d="M328.934 140.8C328.534 140.8 328.267 140.6 328.267 140.134V132.667C328.267 132.134 328.467 131.867 328.934 131.867C329.134 131.867 329.333 131.934 329.4 132C329.533 132.067 329.6 132.2 329.667 132.4L332.733 137.8L335.8 132.4C335.867 132.267 336 132.134 336.067 132C336.2 131.934 336.334 131.867 336.534 131.867C336.934 131.867 337.2 132.134 337.2 132.667V140.134C337.2 140.6 337 140.8 336.534 140.8C336.134 140.8 335.867 140.6 335.867 140.134V134.4L333.2 139.067C333.134 139.134 333.067 139.267 333 139.334C332.933 139.4 332.8 139.4 332.667 139.4C332.533 139.4 332.4 139.4 332.333 139.334C332.267 139.267 332.2 139.2 332.133 139.067L329.467 134.4V140.134C329.533 140.6 329.334 140.8 328.934 140.8Z" fill="white"/>
<path d="M343.667 140.867C342.8 140.867 342.067 140.667 341.467 140.334C340.867 139.934 340.334 139.467 340 138.8C339.667 138.134 339.467 137.334 339.467 136.4C339.467 135.467 339.667 134.667 340 134C340.334 133.334 340.8 132.8 341.467 132.467C342.067 132.067 342.8 131.934 343.667 131.934C344.534 131.934 345.2 132.134 345.867 132.467C346.467 132.867 347 133.334 347.334 134C347.667 134.667 347.867 135.467 347.867 136.4C347.867 137.334 347.667 138.134 347.334 138.8C347 139.467 346.534 140 345.867 140.334C345.267 140.667 344.534 140.867 343.667 140.867ZM343.667 139.667C344.467 139.667 345.134 139.4 345.6 138.8C346.067 138.2 346.334 137.4 346.334 136.334C346.334 135.267 346.067 134.4 345.6 133.867C345.134 133.334 344.467 133 343.667 133C342.867 133 342.2 133.267 341.734 133.867C341.267 134.467 341 135.267 341 136.334C341 137.4 341.267 138.2 341.734 138.8C342.2 139.4 342.867 139.667 343.667 139.667Z" fill="white"/>
<path d="M354.133 140.867C352.733 140.867 351.667 140.467 350.867 139.667C350.067 138.867 349.667 137.8 349.667 136.4C349.667 135.534 349.867 134.734 350.2 134C350.533 133.334 351.067 132.8 351.667 132.4C352.267 132 353 131.867 353.867 131.867C355.067 131.867 356 132.267 356.667 133C357.333 133.734 357.667 134.8 357.667 136.134C357.667 136.534 357.467 136.667 357.067 136.667H351.133C351.2 137.667 351.467 138.4 352 138.934C352.533 139.467 353.267 139.734 354.2 139.734C354.6 139.734 355 139.667 355.4 139.6C355.8 139.467 356.2 139.334 356.6 139.067C356.867 138.867 357.133 138.867 357.267 138.934C357.4 139 357.533 139.2 357.533 139.4C357.533 139.6 357.4 139.8 357.2 140C356.8 140.267 356.333 140.534 355.8 140.667C355.133 140.734 354.6 140.867 354.133 140.867ZM353.867 132.867C353.067 132.867 352.4 133.134 351.933 133.667C351.467 134.2 351.2 134.867 351.067 135.667H356.333C356.267 134.8 356.067 134.067 355.667 133.6C355.267 133.134 354.667 132.867 353.867 132.867Z" fill="white"/>
<path d="M365.267 140.667C364.734 140.667 364.534 140.4 364.534 139.934V132.734C364.534 132.2 364.8 132 365.267 132H368.734C369.734 132 370.534 132.2 371 132.6C371.467 133 371.734 133.534 371.734 134.334C371.734 134.8 371.6 135.2 371.334 135.534C371.067 135.867 370.734 136.134 370.267 136.267C370.8 136.4 371.2 136.667 371.534 137C371.867 137.4 372 137.8 372 138.334C372 139.067 371.734 139.667 371.2 140.067C370.667 140.467 369.867 140.734 368.867 140.734H365.267V140.667ZM365.867 135.734H368.667C369.2 135.734 369.667 135.6 369.934 135.4C370.2 135.134 370.4 134.8 370.4 134.334C370.4 133.867 370.267 133.534 369.934 133.334C369.667 133.067 369.2 133 368.667 133H365.867V135.734ZM365.867 139.667H368.8C369.4 139.667 369.867 139.534 370.134 139.267C370.467 139 370.6 138.667 370.6 138.134C370.6 137.667 370.467 137.267 370.134 137.067C369.8 136.867 369.4 136.667 368.8 136.667H365.867V139.667Z" fill="white"/>
<path d="M378.2 140.867C376.8 140.867 375.734 140.467 374.934 139.667C374.134 138.867 373.734 137.8 373.734 136.4C373.734 135.534 373.934 134.734 374.267 134C374.6 133.334 375.134 132.8 375.734 132.4C376.334 132 377.067 131.867 377.934 131.867C379.134 131.867 380.067 132.267 380.734 133C381.4 133.734 381.734 134.8 381.734 136.134C381.734 136.534 381.534 136.667 381.134 136.667H375.2C375.267 137.667 375.534 138.4 376.067 138.934C376.6 139.467 377.334 139.734 378.267 139.734C378.667 139.734 379.067 139.667 379.467 139.6C379.867 139.467 380.267 139.334 380.667 139.067C380.934 138.867 381.2 138.867 381.334 138.934C381.467 139 381.6 139.2 381.6 139.4C381.6 139.6 381.467 139.8 381.267 140C380.867 140.267 380.4 140.534 379.867 140.667C379.267 140.734 378.734 140.867 378.2 140.867ZM378 132.867C377.2 132.867 376.534 133.134 376.067 133.667C375.6 134.2 375.334 134.867 375.2 135.667H380.467C380.4 134.8 380.2 134.067 379.8 133.6C379.334 133.134 378.734 132.867 378 132.867Z" fill="white"/>
<path d="M387.667 140.867C386.8 140.867 386.067 140.667 385.4 140.334C384.8 139.934 384.267 139.4 383.934 138.734C383.6 138.067 383.4 137.267 383.4 136.334C383.4 134.934 383.8 133.867 384.534 133.067C385.267 132.267 386.334 131.867 387.6 131.867C388 131.867 388.467 131.934 388.934 132.067C389.4 132.2 389.8 132.4 390.2 132.734C390.4 132.867 390.467 133.067 390.467 133.267C390.467 133.467 390.333 133.667 390.133 133.734C389.933 133.867 389.734 133.8 389.534 133.667C389.2 133.4 388.867 133.267 388.6 133.134C388.267 133.067 388 133 387.667 133C386.733 133 386.067 133.267 385.6 133.867C385.134 134.467 384.867 135.267 384.867 136.334C384.867 137.4 385.134 138.2 385.6 138.8C386.067 139.4 386.8 139.734 387.667 139.734C387.933 139.734 388.267 139.667 388.6 139.6C388.934 139.534 389.267 139.334 389.534 139.067C389.734 138.934 389.933 138.867 390.133 139C390.267 139.134 390.4 139.267 390.4 139.467C390.4 139.667 390.333 139.867 390.133 140C389.733 140.334 389.334 140.534 388.867 140.667C388.534 140.8 388.133 140.867 387.667 140.867Z" fill="white"/>
<path d="M396.334 140.867C394.934 140.867 393.867 140.467 393.067 139.667C392.267 138.867 391.867 137.8 391.867 136.4C391.867 135.534 392.067 134.734 392.4 134C392.734 133.334 393.267 132.8 393.867 132.4C394.467 132 395.2 131.867 396.067 131.867C397.267 131.867 398.2 132.267 398.867 133C399.534 133.734 399.867 134.8 399.867 136.134C399.867 136.534 399.667 136.667 399.267 136.667H393.334C393.4 137.667 393.667 138.4 394.2 138.934C394.734 139.467 395.467 139.734 396.4 139.734C396.8 139.734 397.2 139.667 397.6 139.6C398 139.467 398.4 139.334 398.8 139.067C399.067 138.867 399.334 138.867 399.467 138.934C399.6 139 399.734 139.2 399.734 139.4C399.734 139.6 399.6 139.8 399.4 140C399 140.267 398.534 140.534 398 140.667C397.4 140.734 396.867 140.867 396.334 140.867ZM396.134 132.867C395.334 132.867 394.667 133.134 394.2 133.667C393.734 134.2 393.467 134.867 393.334 135.667H398.6C398.534 134.8 398.334 134.067 397.934 133.6C397.534 133.134 396.934 132.867 396.134 132.867Z" fill="white"/>
<path d="M408.8 140.8C408.334 140.8 408.067 140.534 408.067 140.067V133.134H404.534V134.267C404.534 135.534 404.467 136.534 404.267 137.4C404.134 138.267 403.867 138.934 403.467 139.467C403.134 140 402.6 140.4 402 140.734C401.8 140.8 401.6 140.8 401.467 140.8C401.334 140.734 401.2 140.667 401.134 140.467C401.067 140.334 401.067 140.2 401.067 140C401.134 139.867 401.2 139.667 401.4 139.6C401.867 139.334 402.2 139 402.467 138.534C402.734 138.067 402.867 137.534 403 136.867C403.134 136.2 403.134 135.334 403.134 134.267V132.867C403.134 132.334 403.4 132.067 403.934 132.067H408.6C409.134 132.067 409.4 132.334 409.4 132.867V140.134C409.534 140.534 409.267 140.8 408.8 140.8Z" fill="white"/>
<path d="M413.133 140.667C412.6 140.667 412.4 140.4 412.4 139.934V132.6C412.4 132.134 412.667 131.867 413.133 131.867C413.6 131.867 413.867 132.134 413.867 132.6V135.067H416.467C417.6 135.067 418.4 135.334 419 135.8C419.6 136.267 419.867 136.934 419.867 137.867C419.867 138.734 419.6 139.4 419 139.934C418.4 140.467 417.6 140.667 416.534 140.667H413.133ZM413.867 139.667H416.333C417 139.667 417.534 139.534 417.867 139.267C418.267 139 418.4 138.534 418.4 137.934C418.4 137.334 418.2 136.867 417.867 136.6C417.467 136.334 417 136.2 416.267 136.2H413.8V139.667H413.867Z" fill="white"/>
<path d="M425.934 140.867C424.534 140.867 423.467 140.467 422.667 139.667C421.867 138.867 421.467 137.8 421.467 136.4C421.467 135.534 421.667 134.734 422 134C422.334 133.334 422.867 132.8 423.467 132.4C424.067 132 424.8 131.867 425.667 131.867C426.867 131.867 427.8 132.267 428.467 133C429.134 133.734 429.467 134.8 429.467 136.134C429.467 136.534 429.267 136.667 428.867 136.667H422.934C423 137.667 423.267 138.4 423.8 138.934C424.334 139.467 425.067 139.734 426 139.734C426.4 139.734 426.8 139.667 427.2 139.6C427.6 139.467 428 139.334 428.4 139.067C428.667 138.867 428.934 138.867 429.067 138.934C429.2 139 429.334 139.2 429.334 139.4C429.334 139.6 429.2 139.8 429 140C428.6 140.267 428.134 140.534 427.6 140.667C427 140.734 426.467 140.867 425.934 140.867ZM425.734 132.867C424.934 132.867 424.267 133.134 423.8 133.667C423.334 134.2 423.067 134.867 422.934 135.667H428.2C428.134 134.8 427.934 134.067 427.534 133.6C427.067 133.134 426.467 132.867 425.734 132.867Z" fill="white"/>
<path d="M73.0668 124.334C72.4668 123.734 72.2002 122.867 72.2002 121.6V71.7336C72.2002 70.5336 72.4668 69.6002 73.0668 69.0002C73.6668 68.4002 74.6668 68.1336 76.0668 68.1336H81.2668C82.2002 68.1336 82.9335 68.2669 83.4001 68.5336C83.8668 68.8002 84.4002 69.2669 84.9335 70.0002L108.467 103.134V71.8003C108.467 70.6003 108.733 69.6669 109.333 69.0002C109.933 68.4002 110.867 68.0669 112.2 68.0669H118.467C119.867 68.0669 120.867 68.3336 121.4 68.9336C121.933 69.5336 122.267 70.4669 122.267 71.7336V121.534C122.267 122.734 122 123.667 121.4 124.267C120.867 124.867 119.867 125.134 118.467 125.134H113.2C112.334 125.134 111.6 125 111.133 124.734C110.667 124.467 110.134 124 109.6 123.267L86.0002 90.2002V121.534C86.0002 122.734 85.7335 123.667 85.1335 124.267C84.6001 124.867 83.6002 125.134 82.2002 125.134H75.9335C74.6002 125.2 73.6668 124.934 73.0668 124.334Z" fill="#2A2669"/>
</svg>
