<svg width="1039" height="421" viewBox="0 0 1039 421" fill="none" xmlns="http://www.w3.org/2000/svg">
<path d="M206.751 103.189C149.9 103.189 103.741 57.0076 103.741 0C103.741 56.95 57.6391 103.132 0.788086 103.189C57.6391 103.189 103.741 149.371 103.741 206.379C103.741 149.429 149.9 103.189 206.751 103.189Z" fill="#2A2669"/>
<path d="M414.611 103.189C357.76 103.189 311.601 57.0076 311.601 0C311.601 56.95 265.499 103.132 208.648 103.189C265.499 103.189 311.601 149.371 311.601 206.379C311.601 149.429 357.76 103.189 414.611 103.189Z" fill="#8666DF"/>
<path d="M622.471 103.189C565.62 103.189 519.461 57.0076 519.461 0C519.461 56.95 473.359 103.132 416.508 103.189C473.359 103.189 519.461 149.371 519.461 206.379C519.518 149.429 565.62 103.189 622.471 103.189Z" fill="#E2E528"/>
<path d="M830.33 103.189C773.479 103.189 727.32 57.0076 727.32 0C727.32 56.95 681.219 103.132 624.368 103.189C681.219 103.189 727.32 149.371 727.32 206.379C727.378 149.429 773.479 103.189 830.33 103.189Z" fill="#5FE6E9"/>
<path d="M1038.19 103.189C981.339 103.189 935.18 57.0076 935.18 0C935.18 56.95 889.079 103.132 832.228 103.189C889.079 103.189 935.18 149.371 935.18 206.379C935.238 149.429 981.339 103.189 1038.19 103.189Z" stroke="#606060" stroke-miterlimit="10"/>
<path d="M206.751 317.501C149.9 317.501 103.741 271.319 103.741 214.311C103.741 271.261 57.6391 317.443 0.788086 317.501C57.6391 317.501 103.741 363.683 103.741 420.69C103.741 363.683 149.9 317.501 206.751 317.501Z" fill="#2B2968"/>
<path d="M414.611 317.501C357.76 317.501 311.601 271.319 311.601 214.312C311.601 271.262 265.499 317.443 208.648 317.501C265.499 317.501 311.601 363.683 311.601 420.69C311.601 363.683 357.76 317.501 414.611 317.501Z" fill="#7867AE"/>
<path d="M622.471 317.501C565.62 317.501 519.461 271.319 519.461 214.312C519.461 271.262 473.359 317.443 416.508 317.501C473.359 317.501 519.461 363.683 519.461 420.69C519.518 363.683 565.62 317.501 622.471 317.501Z" fill="#E0E32D"/>
<path d="M830.33 317.501C773.479 317.501 727.32 271.319 727.32 214.312C727.32 271.262 681.219 317.443 624.368 317.501C681.219 317.501 727.32 363.683 727.32 420.69C727.378 363.683 773.479 317.501 830.33 317.501Z" fill="#77CDD7"/>
<path d="M1038.19 317.501C981.339 317.501 935.18 271.319 935.18 214.312C935.18 271.262 889.079 317.443 832.228 317.501C889.079 317.501 935.18 363.683 935.18 420.69C935.238 363.683 981.339 317.501 1038.19 317.501Z" stroke="#606060" stroke-miterlimit="10"/>
</svg>
