<svg width="430" height="144" viewBox="0 0 430 144" fill="none" xmlns="http://www.w3.org/2000/svg">
<path d="M44.4 39.2666C44.4 39.2666 46.4667 91.5999 0 91.5999C0 91.5999 53.2666 110.533 55.4666 136.2C55.4666 136.2 53.8667 89.5999 94.4 84.0666C94.4 83.9999 51.8 68.7333 44.4 39.2666Z" fill="#E2E528"/>
<path d="M164.4 18.6C164.4 18.6 138.533 27.3333 129.8 0C129.8 0 137 31.6667 122.333 37.7333C122.333 37.7333 144.067 30.3333 154.934 53.2C154.867 53.1333 148.4 28.4667 164.4 18.6Z" fill="#5FE6E9"/>
<path d="M135.067 52.6001C135.067 52.6001 150.734 76.4001 136.934 97.2668C136.934 97.2668 160.467 77.4001 177.734 97.2001C177.734 97.2001 163.667 73.0001 183.2 54.4668C183.2 54.5334 158.8 70.9334 135.067 52.6001Z" fill="#8666DF"/>
<path d="M123.6 57.8666C119.333 42.9333 117.733 38.4666 112.4 43.6666C107.067 48.8666 104 52.0666 104 52.0666C104 52.0666 102 51.5333 97.4001 51.5999C92.8001 51.4666 90.8001 52.0666 90.8001 52.0666C90.8001 52.0666 87.7334 48.8666 82.4001 43.6666C77.0667 38.4666 75.4668 42.9999 71.2001 57.8666C66.9335 72.7999 64.4001 109.2 67.6001 116.667C69.7334 121.667 83.8667 124.067 97.4001 124.067C110.933 124.067 125.067 121.733 127.2 116.667C130.4 109.133 127.867 72.7333 123.6 57.8666Z" fill="white"/>
<path d="M77.7998 125.467C77.7998 125.467 94.1999 135.467 129.267 124.334C155.867 115.867 153.8 95.667 166.2 100.067C183.267 106.134 158.933 134.2 125.333 136.134C89.0665 138.2 77.7998 125.467 77.7998 125.467Z" fill="white"/>
<path d="M186.933 112C185.333 111.334 184.067 110.267 183.133 108.934C182.2 107.534 181.733 105.867 181.733 103.867C181.733 100.734 182.6 98.2671 184.333 96.6671C186.067 95.0004 188.533 94.2004 191.8 94.2004C195 94.2004 197.4 95.0004 199.067 96.6004C200.733 98.2004 201.533 100.467 201.533 103.467C201.533 104.534 201.067 105 200.133 105H187.533C187.533 106.334 188.067 107.334 189 108.067C190 108.8 191.4 109.134 193.133 109.134C194.2 109.134 195.067 109 195.867 108.8C196.6 108.6 197.4 108.267 198.067 107.867C198.333 107.734 198.467 107.667 198.6 107.667C198.8 107.667 198.933 107.8 199.067 108.067L200.133 110.067C200.2 110.267 200.267 110.4 200.267 110.534C200.267 110.734 200.133 110.934 199.867 111.134C198.867 111.8 197.8 112.267 196.533 112.534C195.267 112.8 193.867 113 192.267 113C190.333 113 188.533 112.667 186.933 112ZM196.067 101.8C196.067 100.534 195.733 99.6004 195 98.9338C194.333 98.2671 193.267 97.8671 191.867 97.8671C190.467 97.8671 189.4 98.2004 188.667 98.9338C187.933 99.6671 187.533 100.6 187.533 101.8H196.067Z" fill="white"/>
<path d="M204.2 112.2C204 112 203.934 111.667 203.934 111.267C203.934 110.4 204.067 109.733 204.267 109.267C204.467 108.8 204.934 108.267 205.6 107.533L213.8 99.2001H205.734C205.134 99.2001 204.734 99.0668 204.467 98.8001C204.2 98.5334 204.067 98.1334 204.067 97.6001V96.2001C204.067 95.6668 204.2 95.2668 204.467 95.0001C204.734 94.7334 205.134 94.6001 205.734 94.6001H220C220.467 94.6001 220.8 94.6668 220.934 94.8668C221.134 95.0001 221.2 95.3334 221.2 95.8001C221.2 96.6668 221.067 97.3334 220.867 97.8001C220.667 98.2668 220.2 98.8668 219.6 99.5334L211.8 107.933H220C220.6 107.933 221 108.067 221.267 108.333C221.534 108.6 221.667 109 221.667 109.533V110.867C221.667 111.4 221.534 111.8 221.267 112.067C221 112.333 220.6 112.467 220 112.467H205.2C204.734 112.467 204.334 112.4 204.2 112.2Z" fill="white"/>
<path d="M224.867 110.8C223.467 109.334 222.733 107.2 222.733 104.534C222.733 102.467 223.2 100.667 224.2 99.0671C225.133 97.4671 226.533 96.2671 228.267 95.4005C230 94.5338 232 94.1338 234.267 94.1338C236 94.1338 237.6 94.3338 238.933 94.7338C240.267 95.1338 241.533 95.6671 242.6 96.4671V111.4C242.6 111.8 242.533 112.134 242.333 112.267C242.133 112.4 241.867 112.467 241.4 112.467H238.467C238.2 112.467 238 112.4 237.867 112.334C237.733 112.267 237.6 112.067 237.533 111.867L237.133 110.6C236.4 111.467 235.467 112.067 234.4 112.467C233.333 112.867 232.067 113.067 230.533 113.067C228.2 113 226.267 112.267 224.867 110.8ZM235.667 107.867C236.467 107.267 236.867 106.4 236.867 105.334V98.8671C236.133 98.4671 235.267 98.3338 234.2 98.3338C232.6 98.3338 231.267 98.8671 230.267 99.9338C229.267 101 228.8 102.534 228.8 104.467C228.8 105.934 229.133 107.067 229.8 107.734C230.467 108.467 231.467 108.8 232.8 108.8C233.933 108.8 234.867 108.534 235.667 107.867Z" fill="white"/>
<path d="M250.333 112.333C248.667 111.867 247.333 111.267 246.333 110.534V88.9335C246.333 88.4002 246.467 88.0002 246.733 87.7335C247 87.4668 247.4 87.3335 248 87.3335H250.667C251.267 87.3335 251.734 87.4668 251.934 87.7335C252.134 88.0002 252.333 88.4002 252.333 89.0002V95.6002C252.933 95.1335 253.667 94.8002 254.534 94.6002C255.467 94.3335 256.4 94.2668 257.4 94.2668C260.267 94.2668 262.467 95.0002 264 96.5335C265.533 98.0668 266.267 100.2 266.267 103C266.267 106.2 265.334 108.734 263.534 110.467C261.734 112.267 259.067 113.134 255.534 113.134C253.734 113 252 112.8 250.333 112.333ZM259 107.333C259.8 106.333 260.2 104.867 260.2 102.933C260.2 101.333 259.867 100.2 259.267 99.4668C258.667 98.7335 257.6 98.3335 256.2 98.3335C255.134 98.3335 254.267 98.6002 253.534 99.1335C252.8 99.6668 252.4 100.467 252.4 101.467V108.2C252.733 108.4 253.2 108.533 253.667 108.667C254.2 108.8 254.734 108.8 255.267 108.8C256.934 108.8 258.133 108.333 259 107.333Z" fill="white"/>
<path d="M270 111.334C268.8 110.2 268.133 108.534 268.133 106.267V96.3336C268.133 95.8003 268.267 95.4003 268.533 95.1336C268.8 94.867 269.2 94.7336 269.8 94.7336H272.6C273.2 94.7336 273.667 94.867 273.867 95.1336C274.133 95.4003 274.267 95.8003 274.267 96.4003V106.134C274.267 107.067 274.533 107.8 275 108.267C275.467 108.734 276.2 108.934 277.133 108.934C278.133 108.934 278.933 108.667 279.6 108.134C280.2 107.6 280.533 106.867 280.533 105.934V96.467C280.533 95.9336 280.667 95.5336 280.933 95.267C281.2 95.0003 281.6 94.867 282.267 94.867H285C285.6 94.867 286.067 95.0003 286.333 95.267C286.6 95.5336 286.733 95.9336 286.733 96.467V111.534C286.733 111.934 286.667 112.267 286.533 112.4C286.4 112.534 286.067 112.6 285.667 112.6H282.733C282.133 112.6 281.867 112.4 281.867 112L281.733 110.6C280.133 112.334 277.867 113.134 275 113.134C272.867 113 271.267 112.467 270 111.334Z" fill="white"/>
<path d="M289.733 103.534C289.733 101.667 290.067 100.067 290.8 98.6002C291.533 97.2002 292.533 96.0668 293.867 95.3335C295.2 94.5335 296.867 94.2002 298.733 94.2002C299.8 94.2002 300.733 94.3335 301.6 94.5335C302.467 94.8002 303.133 95.1335 303.667 95.5335V88.9335C303.667 88.3335 303.8 87.9335 304.067 87.6668C304.333 87.4002 304.733 87.2668 305.333 87.2668H308C308.6 87.2668 309 87.4002 309.267 87.6668C309.533 87.9335 309.667 88.3335 309.667 88.8669V110.467C308.667 111.2 307.333 111.8 305.733 112.267C304.133 112.734 302.4 113 300.6 113C293.333 113 289.733 109.867 289.733 103.534ZM303.667 108.2V101.4C303.667 100.4 303.333 99.6002 302.733 99.1335C302.067 98.6002 301.2 98.4002 300.133 98.4002C298.667 98.4002 297.6 98.8669 296.867 99.8002C296.133 100.734 295.8 102 295.8 103.667C295.8 105.534 296.2 106.867 297 107.667C297.8 108.467 299.067 108.867 300.667 108.867C301.933 108.8 302.933 108.6 303.667 108.2Z" fill="white"/>
<path d="M332.133 111.867C332.133 112.067 332.067 112.2 332 112.334C331.867 112.467 331.733 112.534 331.467 112.534H326.867C326.6 112.534 326.334 112.534 326.2 112.467C326.067 112.4 325.867 112.267 325.733 112.134L319.867 104.867C319.8 104.8 319.734 104.667 319.6 104.534V111C319.6 111.534 319.467 111.934 319.2 112.2C318.934 112.467 318.534 112.6 317.934 112.6H315.133C314.533 112.6 314.134 112.467 313.867 112.2C313.6 111.934 313.467 111.534 313.467 111V89.067C313.467 88.5337 313.6 88.1337 313.867 87.867C314.134 87.6004 314.533 87.467 315.133 87.467H317.934C318.534 87.467 319 87.6004 319.2 87.867C319.467 88.1337 319.6 88.5337 319.6 89.1337V102.334L319.867 102.067L325.6 95.467C325.734 95.267 325.933 95.1337 326.067 95.067C326.2 95.0004 326.467 95.0004 326.8 95.0004H331.4C331.6 95.0004 331.734 95.067 331.867 95.2004C332 95.3337 332.067 95.467 332.067 95.667C332.067 95.867 332 96.067 331.8 96.267L324.934 103.667L332 111.6C332.067 111.4 332.133 111.6 332.133 111.867Z" fill="white"/>
<path d="M333.867 110.8C332.467 109.334 331.733 107.2 331.733 104.534C331.733 102.467 332.2 100.667 333.2 99.0671C334.133 97.4671 335.533 96.2671 337.267 95.4005C339 94.5338 341 94.1338 343.267 94.1338C345 94.1338 346.6 94.3338 347.933 94.7338C349.267 95.1338 350.533 95.6671 351.6 96.4671V111.4C351.6 111.8 351.533 112.134 351.333 112.267C351.133 112.4 350.867 112.467 350.4 112.467H347.467C347.2 112.467 347 112.4 346.867 112.334C346.733 112.267 346.6 112.067 346.533 111.867L346.133 110.6C345.4 111.467 344.467 112.067 343.4 112.467C342.333 112.867 341.067 113.067 339.533 113.067C337.2 113 335.267 112.267 333.867 110.8ZM344.667 107.867C345.467 107.267 345.867 106.4 345.867 105.334V98.8671C345.133 98.4671 344.267 98.3338 343.2 98.3338C341.6 98.3338 340.267 98.8671 339.267 99.9338C338.267 101 337.8 102.534 337.8 104.467C337.8 105.934 338.133 107.067 338.8 107.734C339.467 108.467 340.467 108.8 341.8 108.8C342.933 108.8 343.867 108.534 344.667 107.867Z" fill="white"/>
<path d="M354.867 103.267C354.667 103 354.6 102.667 354.6 102.2V100.6C354.6 100.134 354.667 99.7338 354.867 99.5338C355.067 99.2671 355.467 99.2004 356 99.2004H368.267C368.8 99.2004 369.133 99.3338 369.333 99.5338C369.533 99.8004 369.667 100.134 369.667 100.6V102.2C369.667 102.667 369.533 103.067 369.333 103.267C369.133 103.534 368.733 103.6 368.267 103.6H356C355.467 103.6 355.067 103.467 354.867 103.267Z" fill="white"/>
<path d="M374.667 112.067C374.4 111.8 374.267 111.4 374.267 110.867V99.0003H372.8C372.2 99.0003 371.8 98.867 371.6 98.6003C371.4 98.3336 371.267 97.9336 371.267 97.4003V96.267C371.267 95.667 371.4 95.267 371.6 95.067C371.8 94.8003 372.2 94.7336 372.8 94.7336H374.267V93.7336C374.267 91.5336 374.867 89.8003 376.067 88.6003C377.267 87.4003 379.067 86.7336 381.467 86.7336C383.933 86.7336 385.8 87.267 387.2 88.267C387.467 88.467 387.6 88.667 387.6 88.867C387.6 89.0003 387.533 89.2003 387.4 89.4003L386.267 91.267C386.133 91.5336 385.933 91.667 385.733 91.667C385.6 91.667 385.467 91.6003 385.267 91.5337C384.467 91.067 383.667 90.867 382.8 90.867C381.867 90.867 381.267 91.067 380.867 91.5337C380.467 92.0003 380.267 92.667 380.267 93.6003V94.7336H384.133C384.733 94.7336 385.133 94.867 385.333 95.067C385.533 95.3336 385.667 95.7336 385.667 96.267V97.4003C385.667 98.0003 385.533 98.4003 385.333 98.6003C385.133 98.867 384.733 99.0003 384.133 99.0003H380.267V110.867C380.267 111.4 380.133 111.8 379.867 112.067C379.6 112.334 379.2 112.467 378.6 112.467H375.8C375.4 112.467 374.933 112.334 374.667 112.067Z" fill="white"/>
<path d="M388.867 111.334C387.667 110.2 387 108.534 387 106.267V96.3336C387 95.8003 387.133 95.4003 387.4 95.1336C387.667 94.867 388.067 94.7336 388.667 94.7336H391.467C392.067 94.7336 392.533 94.867 392.733 95.1336C393 95.4003 393.133 95.8003 393.133 96.4003V106.134C393.133 107.067 393.4 107.8 393.867 108.267C394.333 108.734 395.067 108.934 396 108.934C397 108.934 397.8 108.667 398.467 108.134C399.067 107.6 399.4 106.867 399.4 105.934V96.467C399.4 95.9336 399.533 95.5336 399.8 95.267C400.067 95.0003 400.467 94.867 401.133 94.867H403.867C404.467 94.867 404.933 95.0003 405.2 95.267C405.467 95.5336 405.6 95.9336 405.6 96.467V111.534C405.6 111.934 405.533 112.267 405.4 112.4C405.267 112.534 404.933 112.6 404.533 112.6H401.6C401 112.6 400.733 112.4 400.733 112L400.6 110.6C399 112.334 396.733 113.134 393.867 113.134C391.667 113 390.067 112.467 388.867 111.334Z" fill="white"/>
<path d="M409.667 112.067C409.4 111.8 409.267 111.4 409.267 110.867V95.7336C409.267 95.3336 409.333 95.0002 409.467 94.8669C409.6 94.7336 409.933 94.6669 410.333 94.6669H413.267C413.533 94.6669 413.8 94.7336 413.933 94.8002C414.067 94.8669 414.2 95.0669 414.2 95.3336L414.333 96.6002C415.067 95.8002 416.067 95.2002 417.2 94.7336C418.333 94.2669 419.667 94.0669 421.133 94.0669C423.133 94.0669 424.8 94.6002 426 95.7336C427.2 96.8002 427.8 98.4669 427.8 100.667V110.867C427.8 111.4 427.667 111.8 427.4 112.067C427.133 112.334 426.733 112.467 426.133 112.467H423.333C422.733 112.467 422.267 112.334 422 112.067C421.733 111.8 421.6 111.4 421.6 110.867V101.067C421.6 100.134 421.4 99.4002 421 99.0002C420.6 98.6002 419.867 98.4002 418.933 98.4002C417.867 98.4002 417 98.6669 416.333 99.2002C415.6 99.7336 415.267 100.467 415.267 101.334V110.867C415.267 111.4 415.133 111.8 414.867 112.067C414.6 112.334 414.2 112.467 413.6 112.467H410.867C410.4 112.467 409.933 112.334 409.667 112.067Z" fill="white"/>
<path d="M175.733 143.6C175.266 143.6 175.066 143.4 175.066 142.934V140.2C175.066 139.734 175.333 139.467 175.8 139.467H176.266C176.866 138.667 177.333 137.667 177.666 136.334C177.933 135 178.133 133.334 178.133 131.4V128.934C178.133 128.4 178.4 128.134 178.933 128.134H185.666C186.2 128.134 186.466 128.4 186.466 128.934V139.534H187.533C188.066 139.534 188.266 139.8 188.266 140.267V143C188.266 143.467 188.066 143.667 187.6 143.667C187.133 143.667 186.933 143.467 186.933 143V140.734H176.4V143C176.4 143.4 176.2 143.6 175.733 143.6ZM177.866 139.467H185.066V129.334H179.533V131.467C179.533 133.4 179.4 135 179.133 136.267C178.866 137.534 178.466 138.6 177.866 139.467Z" fill="white"/>
<path d="M192.866 140.867C192.266 140.867 191.733 140.734 191.266 140.534C190.8 140.334 190.4 140 190.133 139.6C189.866 139.2 189.733 138.734 189.733 138.267C189.733 137.667 189.866 137.134 190.2 136.734C190.533 136.334 191.066 136.067 191.8 135.934C192.533 135.8 193.6 135.667 194.933 135.667H195.533V135.067C195.533 134.334 195.4 133.8 195.066 133.467C194.733 133.134 194.266 133 193.6 133C193.2 133 192.733 133.067 192.333 133.134C191.933 133.267 191.466 133.4 191 133.667C190.8 133.8 190.6 133.8 190.466 133.734C190.333 133.667 190.266 133.534 190.2 133.4C190.133 133.267 190.133 133.067 190.2 132.934C190.266 132.8 190.4 132.667 190.533 132.534C191.066 132.267 191.533 132.067 192.066 131.934C192.6 131.8 193.066 131.734 193.533 131.734C194.666 131.734 195.466 132 196 132.534C196.533 133.067 196.8 133.934 196.8 135.067V139.934C196.8 140.467 196.6 140.667 196.133 140.667C195.666 140.667 195.466 140.4 195.466 139.934V139.067C195.266 139.6 194.866 140 194.4 140.267C194.066 140.667 193.533 140.867 192.866 140.867ZM193.133 139.734C193.866 139.734 194.466 139.467 194.866 139C195.333 138.534 195.533 137.867 195.533 137.134V136.6H195C194.066 136.6 193.266 136.667 192.733 136.734C192.2 136.8 191.8 137 191.6 137.2C191.4 137.4 191.266 137.734 191.266 138.134C191.266 138.6 191.466 139 191.8 139.334C192.066 139.6 192.533 139.734 193.133 139.734Z" fill="white"/>
<path d="M200.533 144C200.067 144 199.8 143.734 199.8 143.267V132.6C199.8 132.134 200 131.867 200.466 131.867C200.933 131.867 201.2 132.134 201.2 132.6V133.534C201.467 133 201.867 132.6 202.333 132.267C202.867 131.934 203.466 131.8 204.133 131.8C204.933 131.8 205.6 132 206.133 132.334C206.733 132.667 207.133 133.2 207.466 133.867C207.8 134.534 207.933 135.334 207.933 136.267C207.933 137.2 207.8 138 207.466 138.667C207.133 139.334 206.733 139.867 206.133 140.2C205.533 140.6 204.866 140.734 204.133 140.734C203.466 140.734 202.867 140.6 202.333 140.267C201.8 140 201.4 139.534 201.2 139V143.134C201.267 143.8 201 144 200.533 144ZM203.867 139.667C204.667 139.667 205.333 139.4 205.8 138.8C206.266 138.2 206.533 137.4 206.533 136.334C206.533 135.267 206.266 134.4 205.8 133.867C205.333 133.267 204.667 133 203.867 133C203.067 133 202.4 133.267 201.933 133.867C201.467 134.467 201.2 135.267 201.2 136.334C201.2 137.4 201.467 138.2 201.933 138.8C202.467 139.4 203.067 139.667 203.867 139.667Z" fill="white"/>
<path d="M211.067 140.8C210.6 140.8 210.4 140.534 210.4 140V132.534C210.4 132.067 210.6 131.8 211.067 131.8C211.533 131.8 211.733 132.067 211.733 132.534V138.667L216.467 132.267C216.533 132.134 216.667 132 216.8 131.934C216.933 131.867 217.067 131.8 217.333 131.8C217.8 131.8 218 132.067 218 132.6V140.067C218 140.534 217.8 140.8 217.333 140.8C216.867 140.8 216.667 140.534 216.667 140.067V133.934L211.867 140.334C211.8 140.467 211.667 140.534 211.533 140.667C211.467 140.734 211.267 140.8 211.067 140.8Z" fill="white"/>
<path d="M221.466 140.8C221.066 140.8 220.8 140.6 220.8 140.134V132.667C220.8 132.134 221 131.867 221.466 131.867C221.666 131.867 221.867 131.934 221.933 132C222.067 132.067 222.133 132.2 222.2 132.4L225.267 137.8L228.333 132.4C228.4 132.267 228.533 132.134 228.6 132C228.667 131.867 228.866 131.867 229.066 131.867C229.466 131.867 229.733 132.134 229.733 132.667V140.134C229.733 140.6 229.533 140.8 229.066 140.8C228.666 140.8 228.4 140.6 228.4 140.134V134.4L225.733 139.067C225.666 139.134 225.6 139.267 225.533 139.334C225.467 139.4 225.333 139.4 225.2 139.4C225.067 139.4 224.933 139.4 224.867 139.334C224.8 139.267 224.733 139.2 224.667 139.067L222 134.4V140.134C222.133 140.6 221.933 140.8 221.466 140.8Z" fill="white"/>
<path d="M238 140.8C237.533 140.8 237.267 140.534 237.267 140.067V132.6C237.267 132.134 237.533 131.867 238 131.867C238.467 131.867 238.733 132.134 238.733 132.6V135.6H243.467V132.6C243.467 132.134 243.733 131.867 244.2 131.867C244.667 131.867 244.933 132.134 244.933 132.6V140.067C244.933 140.6 244.667 140.8 244.2 140.8C243.733 140.8 243.467 140.534 243.467 140.067V136.8H238.733V140.067C238.667 140.534 238.467 140.8 238 140.8Z" fill="white"/>
<path d="M251.666 140.867C250.266 140.867 249.2 140.467 248.4 139.667C247.6 138.867 247.2 137.8 247.2 136.4C247.2 135.534 247.4 134.734 247.733 134C248.066 133.334 248.6 132.8 249.2 132.4C249.8 132 250.533 131.867 251.4 131.867C252.6 131.867 253.533 132.267 254.2 133C254.866 133.734 255.2 134.8 255.2 136.134C255.2 136.534 255 136.667 254.6 136.667H248.666C248.733 137.667 249 138.4 249.533 138.934C250.066 139.467 250.8 139.734 251.733 139.734C252.133 139.734 252.533 139.667 252.933 139.6C253.333 139.467 253.733 139.334 254.133 139.067C254.4 138.867 254.666 138.867 254.8 138.934C254.933 139 255.066 139.2 255.066 139.4C255.066 139.6 254.933 139.8 254.733 140C254.333 140.267 253.866 140.534 253.333 140.667C252.733 140.734 252.2 140.867 251.666 140.867ZM251.466 132.867C250.666 132.867 250 133.134 249.533 133.667C249.066 134.2 248.8 134.867 248.666 135.667H253.933C253.866 134.8 253.666 134.067 253.266 133.6C252.8 133.134 252.2 132.867 251.466 132.867Z" fill="white"/>
<path d="M260.333 140.867C259.733 140.867 259.133 140.8 258.533 140.667C257.933 140.534 257.467 140.334 257 140.067C256.733 139.934 256.667 139.734 256.6 139.534C256.533 139.334 256.667 139.134 256.867 139C257.067 138.867 257.267 138.867 257.533 139.067C257.933 139.334 258.333 139.467 258.8 139.6C259.266 139.734 259.733 139.8 260.267 139.8C261.133 139.8 261.733 139.667 262.133 139.4C262.533 139.134 262.667 138.8 262.667 138.334C262.667 137.867 262.533 137.534 262.2 137.267C261.867 137 261.467 136.934 260.867 136.934H259.333C258.933 136.934 258.733 136.734 258.733 136.4C258.733 136.067 258.933 135.867 259.333 135.867H260.733C261.266 135.867 261.667 135.734 261.933 135.534C262.2 135.334 262.4 135 262.4 134.534C262.4 134.067 262.267 133.734 261.933 133.467C261.6 133.2 261.067 133.067 260.333 133.067C259.867 133.067 259.4 133.134 259 133.2C258.6 133.334 258.2 133.467 257.8 133.667C257.533 133.8 257.266 133.867 257.133 133.734C256.933 133.6 256.867 133.467 256.867 133.2C256.867 133 257 132.8 257.2 132.667C258.133 132.134 259.2 131.867 260.533 131.867C261.667 131.867 262.467 132.067 263 132.534C263.533 132.934 263.8 133.534 263.8 134.334C263.8 134.8 263.666 135.134 263.4 135.534C263.133 135.867 262.8 136.134 262.333 136.267C262.867 136.4 263.267 136.667 263.6 137C263.933 137.334 264.066 137.8 264.066 138.334C264.066 139.134 263.733 139.734 263.133 140.2C262.466 140.6 261.533 140.867 260.333 140.867Z" fill="white"/>
<path d="M269.066 140.867C268.466 140.867 267.933 140.734 267.466 140.534C267 140.334 266.6 140 266.333 139.6C266.066 139.2 265.933 138.734 265.933 138.267C265.933 137.667 266.066 137.134 266.4 136.734C266.733 136.334 267.266 136.067 268 135.934C268.733 135.8 269.8 135.667 271.133 135.667H271.733V135.067C271.733 134.334 271.6 133.8 271.266 133.467C270.933 133.134 270.466 133 269.8 133C269.4 133 268.933 133.067 268.533 133.134C268.133 133.267 267.666 133.4 267.2 133.667C267 133.8 266.8 133.8 266.666 133.734C266.533 133.667 266.466 133.534 266.4 133.4C266.333 133.267 266.333 133.067 266.4 132.934C266.466 132.8 266.6 132.667 266.733 132.534C267.266 132.267 267.733 132.067 268.266 131.934C268.8 131.8 269.266 131.734 269.733 131.734C270.866 131.734 271.666 132 272.2 132.534C272.733 133.067 273 133.934 273 135.067V139.934C273 140.467 272.8 140.667 272.333 140.667C271.866 140.667 271.666 140.4 271.666 139.934V139.067C271.466 139.6 271.066 140 270.6 140.267C270.266 140.667 269.733 140.867 269.066 140.867ZM269.333 139.734C270.066 139.734 270.666 139.467 271.066 139C271.533 138.534 271.733 137.867 271.733 137.134V136.6H271.2C270.266 136.6 269.466 136.667 268.933 136.734C268.4 136.8 268 137 267.8 137.2C267.6 137.4 267.466 137.734 267.466 138.134C267.466 138.6 267.666 139 268 139.334C268.266 139.6 268.733 139.734 269.333 139.734Z" fill="white"/>
<path d="M279.6 140.867C278.333 140.867 277.266 140.467 276.533 139.6C275.8 138.734 275.4 137.534 275.4 135.934V134.6C275.4 132.867 275.733 131.534 276.466 130.667C277.133 129.734 278.2 129.134 279.6 128.734L282.2 128C282.666 127.867 282.933 128 283 128.4C283.133 128.8 282.933 129.067 282.466 129.2L279.666 129.934C278.733 130.2 278 130.667 277.466 131.334C277 132 276.733 132.8 276.733 133.8V133.867C277 133.267 277.4 132.8 277.933 132.467C278.466 132.134 279.133 131.934 279.8 131.934C280.533 131.934 281.2 132.134 281.8 132.467C282.4 132.8 282.8 133.334 283.133 134C283.466 134.667 283.6 135.467 283.6 136.334C283.6 137.267 283.4 138 283.066 138.734C282.733 139.4 282.266 139.934 281.666 140.267C281.2 140.667 280.466 140.867 279.6 140.867ZM279.6 139.667C280.466 139.667 281.133 139.4 281.6 138.8C282.066 138.267 282.333 137.4 282.333 136.334C282.333 135.267 282.066 134.467 281.6 133.934C281.133 133.334 280.466 133.067 279.6 133.067C278.733 133.067 278.133 133.334 277.6 133.934C277.133 134.467 276.866 135.267 276.866 136.267C276.866 137.4 277.066 138.267 277.533 138.8C278.066 139.4 278.733 139.667 279.6 139.667Z" fill="white"/>
<path d="M286.866 140.667C286.333 140.667 286.133 140.4 286.133 139.934V132.6C286.133 132.134 286.4 131.867 286.866 131.867C287.333 131.867 287.6 132.134 287.6 132.6V135.067H290.2C291.333 135.067 292.133 135.334 292.733 135.8C293.333 136.267 293.6 136.934 293.6 137.867C293.6 138.734 293.333 139.4 292.733 139.934C292.133 140.467 291.333 140.667 290.266 140.667H286.866ZM287.533 139.667H290C290.666 139.667 291.2 139.534 291.533 139.267C291.866 139 292.066 138.534 292.066 137.934C292.066 137.334 291.866 136.867 291.533 136.6C291.133 136.334 290.666 136.2 289.933 136.2H287.466V139.667H287.533ZM295.533 140.8C295.066 140.8 294.8 140.534 294.8 140.067V132.6C294.8 132.134 295.066 131.867 295.533 131.867C296 131.867 296.266 132.134 296.266 132.6V140.067C296.266 140.534 296.066 140.8 295.533 140.8Z" fill="white"/>
<path d="M299.866 140.667C299.333 140.667 299.133 140.4 299.133 139.934V132.734C299.133 132.2 299.4 132 299.866 132H303.333C304.333 132 305.133 132.2 305.6 132.6C306.066 133 306.333 133.534 306.333 134.334C306.333 134.8 306.2 135.2 305.933 135.534C305.666 135.867 305.333 136.134 304.866 136.267C305.4 136.4 305.8 136.667 306.133 137C306.466 137.4 306.6 137.8 306.6 138.334C306.6 139.067 306.333 139.667 305.8 140.067C305.266 140.467 304.466 140.734 303.466 140.734H299.866V140.667ZM300.533 135.734H303.333C303.866 135.734 304.333 135.6 304.6 135.4C304.866 135.134 305.066 134.8 305.066 134.334C305.066 133.867 304.933 133.534 304.6 133.334C304.333 133.067 303.866 133 303.333 133H300.533V135.734ZM300.533 139.667H303.466C304.066 139.667 304.533 139.534 304.8 139.267C305.133 139 305.266 138.667 305.266 138.134C305.266 137.667 305.133 137.267 304.8 137.067C304.466 136.8 304.066 136.667 303.466 136.667H300.533V139.667Z" fill="white"/>
<path d="M311.667 140.867C311.067 140.867 310.533 140.734 310.066 140.534C309.6 140.334 309.2 140 308.933 139.6C308.667 139.2 308.533 138.734 308.533 138.267C308.533 137.667 308.667 137.134 309 136.734C309.333 136.334 309.867 136.067 310.6 135.934C311.333 135.8 312.4 135.667 313.733 135.667H314.333V135.067C314.333 134.334 314.2 133.8 313.867 133.467C313.533 133.134 313.066 133 312.4 133C312 133 311.533 133.067 311.133 133.134C310.733 133.267 310.266 133.4 309.8 133.667C309.6 133.8 309.4 133.8 309.267 133.734C309.133 133.667 309.067 133.534 309 133.4C308.933 133.267 308.933 133.067 309 132.934C309.067 132.8 309.2 132.667 309.333 132.534C309.867 132.267 310.333 132.067 310.867 131.934C311.4 131.8 311.867 131.734 312.333 131.734C313.467 131.734 314.266 132 314.8 132.534C315.333 133.067 315.6 133.934 315.6 135.067V139.934C315.6 140.467 315.4 140.667 314.933 140.667C314.467 140.667 314.267 140.4 314.267 139.934V139.067C314.067 139.6 313.667 140 313.2 140.267C312.867 140.667 312.333 140.867 311.667 140.867ZM311.933 139.734C312.667 139.734 313.267 139.467 313.667 139C314.133 138.534 314.333 137.867 314.333 137.134V136.6H313.8C312.866 136.6 312.067 136.667 311.533 136.734C311 136.8 310.6 137 310.4 137.2C310.2 137.4 310.066 137.734 310.066 138.134C310.066 138.6 310.267 139 310.6 139.334C310.867 139.6 311.333 139.734 311.933 139.734Z" fill="white"/>
<path d="M322.533 140.867C321.133 140.867 320.066 140.467 319.266 139.667C318.466 138.867 318.066 137.8 318.066 136.4C318.066 135.534 318.266 134.734 318.6 134C318.933 133.334 319.466 132.8 320.066 132.4C320.666 132 321.4 131.867 322.266 131.867C323.466 131.867 324.4 132.267 325.066 133C325.733 133.734 326.066 134.8 326.066 136.134C326.066 136.534 325.866 136.667 325.466 136.667H319.533C319.6 137.667 319.866 138.4 320.4 138.934C320.933 139.467 321.666 139.734 322.6 139.734C323 139.734 323.4 139.667 323.8 139.6C324.2 139.467 324.6 139.334 325 139.067C325.266 138.867 325.533 138.867 325.666 138.934C325.8 139 325.933 139.2 325.933 139.4C325.933 139.6 325.8 139.8 325.6 140C325.2 140.267 324.733 140.534 324.2 140.667C323.533 140.734 323 140.867 322.533 140.867ZM322.266 132.867C321.466 132.867 320.8 133.134 320.333 133.667C319.866 134.2 319.6 134.867 319.466 135.667H324.733C324.666 134.8 324.466 134.067 324.066 133.6C323.666 133.134 323.066 132.867 322.266 132.867Z" fill="white"/>
<path d="M328.933 140.8C328.533 140.8 328.266 140.6 328.266 140.134V132.667C328.266 132.134 328.466 131.867 328.933 131.867C329.133 131.867 329.333 131.934 329.4 132C329.533 132.067 329.6 132.2 329.666 132.4L332.733 137.8L335.8 132.4C335.866 132.267 336 132.134 336.066 132C336.133 131.867 336.333 131.867 336.533 131.867C336.933 131.867 337.2 132.134 337.2 132.667V140.134C337.2 140.6 337 140.8 336.533 140.8C336.133 140.8 335.866 140.6 335.866 140.134V134.4L333.2 139.067C333.133 139.134 333.066 139.267 333 139.334C332.933 139.4 332.8 139.4 332.666 139.4C332.533 139.4 332.4 139.4 332.333 139.334C332.266 139.267 332.2 139.2 332.133 139.067L329.466 134.4V140.134C329.533 140.6 329.333 140.8 328.933 140.8Z" fill="white"/>
<path d="M343.667 140.867C342.8 140.867 342.067 140.667 341.467 140.334C340.867 139.934 340.333 139.467 340 138.8C339.667 138.134 339.467 137.334 339.467 136.4C339.467 135.467 339.667 134.667 340 134C340.333 133.334 340.8 132.8 341.467 132.467C342.067 132.067 342.8 131.934 343.667 131.934C344.533 131.934 345.2 132.134 345.867 132.467C346.467 132.867 347 133.334 347.333 134C347.667 134.667 347.867 135.467 347.867 136.4C347.867 137.334 347.667 138.134 347.333 138.8C347 139.467 346.533 140 345.867 140.334C345.267 140.667 344.533 140.867 343.667 140.867ZM343.667 139.667C344.467 139.667 345.133 139.4 345.6 138.8C346.067 138.2 346.333 137.4 346.333 136.334C346.333 135.267 346.067 134.4 345.6 133.867C345.133 133.267 344.467 133 343.667 133C342.867 133 342.2 133.267 341.733 133.867C341.267 134.467 341 135.267 341 136.334C341 137.4 341.267 138.2 341.733 138.8C342.2 139.4 342.867 139.667 343.667 139.667Z" fill="white"/>
<path d="M354.133 140.867C352.733 140.867 351.666 140.467 350.866 139.667C350.066 138.867 349.666 137.8 349.666 136.4C349.666 135.534 349.866 134.734 350.2 134C350.533 133.334 351.066 132.8 351.666 132.4C352.266 132 353 131.867 353.866 131.867C355.066 131.867 356 132.267 356.666 133C357.333 133.734 357.666 134.8 357.666 136.134C357.666 136.534 357.466 136.667 357.066 136.667H351.133C351.2 137.667 351.466 138.4 352 138.934C352.533 139.467 353.266 139.734 354.2 139.734C354.6 139.734 355 139.667 355.4 139.6C355.8 139.467 356.2 139.334 356.6 139.067C356.866 138.867 357.133 138.867 357.266 138.934C357.4 139 357.533 139.2 357.533 139.4C357.533 139.6 357.4 139.8 357.2 140C356.8 140.267 356.333 140.534 355.8 140.667C355.133 140.734 354.6 140.867 354.133 140.867ZM353.866 132.867C353.066 132.867 352.4 133.134 351.933 133.667C351.466 134.2 351.2 134.867 351.066 135.667H356.333C356.266 134.8 356.066 134.067 355.666 133.6C355.266 133.134 354.666 132.867 353.866 132.867Z" fill="white"/>
<path d="M365.267 140.667C364.733 140.667 364.533 140.4 364.533 139.934V132.734C364.533 132.2 364.8 132 365.267 132H368.733C369.733 132 370.533 132.2 371 132.6C371.467 133 371.733 133.534 371.733 134.334C371.733 134.8 371.6 135.2 371.333 135.534C371.067 135.867 370.733 136.134 370.267 136.267C370.8 136.4 371.2 136.667 371.533 137C371.867 137.4 372 137.8 372 138.334C372 139.067 371.733 139.667 371.2 140.067C370.667 140.467 369.867 140.734 368.867 140.734H365.267V140.667ZM365.867 135.734H368.667C369.2 135.734 369.667 135.6 369.933 135.4C370.2 135.134 370.4 134.8 370.4 134.334C370.4 133.867 370.267 133.534 369.933 133.334C369.667 133.067 369.2 133 368.667 133H365.867V135.734ZM365.867 139.667H368.8C369.4 139.667 369.866 139.534 370.133 139.267C370.466 139 370.6 138.667 370.6 138.134C370.6 137.667 370.466 137.267 370.133 137.067C369.8 136.8 369.4 136.667 368.8 136.667H365.867V139.667Z" fill="white"/>
<path d="M378.2 140.867C376.8 140.867 375.733 140.467 374.933 139.667C374.133 138.867 373.733 137.8 373.733 136.4C373.733 135.534 373.933 134.734 374.267 134C374.6 133.334 375.133 132.8 375.733 132.4C376.333 132 377.067 131.867 377.933 131.867C379.133 131.867 380.066 132.267 380.733 133C381.4 133.734 381.733 134.8 381.733 136.134C381.733 136.534 381.533 136.667 381.133 136.667H375.2C375.267 137.667 375.533 138.4 376.066 138.934C376.6 139.467 377.333 139.734 378.267 139.734C378.667 139.734 379.066 139.667 379.466 139.6C379.866 139.467 380.267 139.334 380.667 139.067C380.933 138.867 381.2 138.867 381.333 138.934C381.467 139 381.6 139.2 381.6 139.4C381.6 139.6 381.467 139.8 381.267 140C380.867 140.267 380.4 140.534 379.867 140.667C379.267 140.734 378.733 140.867 378.2 140.867ZM378 132.867C377.2 132.867 376.533 133.134 376.066 133.667C375.6 134.2 375.333 134.867 375.2 135.667H380.466C380.4 134.8 380.2 134.067 379.8 133.6C379.333 133.134 378.733 132.867 378 132.867Z" fill="white"/>
<path d="M387.666 140.867C386.8 140.867 386.066 140.667 385.4 140.334C384.8 139.934 384.266 139.4 383.933 138.734C383.6 138.067 383.4 137.267 383.4 136.334C383.4 134.934 383.8 133.867 384.533 133.067C385.266 132.267 386.333 131.867 387.6 131.867C388 131.867 388.466 131.934 388.933 132.067C389.4 132.2 389.8 132.4 390.2 132.734C390.4 132.867 390.466 133.067 390.466 133.267C390.466 133.467 390.333 133.667 390.133 133.734C389.933 133.867 389.733 133.8 389.533 133.667C389.2 133.4 388.866 133.267 388.6 133.134C388.266 133.067 388 133 387.666 133C386.733 133 386.066 133.267 385.6 133.867C385.133 134.467 384.866 135.267 384.866 136.334C384.866 137.4 385.133 138.2 385.6 138.8C386.066 139.4 386.8 139.734 387.666 139.734C387.933 139.734 388.266 139.667 388.6 139.6C388.933 139.534 389.266 139.334 389.533 139.067C389.733 138.934 389.933 138.867 390.133 139C390.266 139.134 390.4 139.267 390.4 139.467C390.4 139.667 390.333 139.867 390.133 140C389.733 140.334 389.333 140.534 388.866 140.667C388.533 140.8 388.133 140.867 387.666 140.867Z" fill="white"/>
<path d="M396.333 140.867C394.933 140.867 393.866 140.467 393.066 139.667C392.266 138.867 391.866 137.8 391.866 136.4C391.866 135.534 392.066 134.734 392.4 134C392.733 133.334 393.266 132.8 393.866 132.4C394.466 132 395.2 131.867 396.066 131.867C397.266 131.867 398.2 132.267 398.866 133C399.533 133.734 399.866 134.8 399.866 136.134C399.866 136.534 399.666 136.667 399.266 136.667H393.333C393.4 137.667 393.666 138.4 394.2 138.934C394.733 139.467 395.466 139.734 396.4 139.734C396.8 139.734 397.2 139.667 397.6 139.6C398 139.467 398.4 139.334 398.8 139.067C399.066 138.867 399.333 138.867 399.466 138.934C399.6 139 399.733 139.2 399.733 139.4C399.733 139.6 399.6 139.8 399.4 140C399 140.267 398.533 140.534 398 140.667C397.4 140.734 396.866 140.867 396.333 140.867ZM396.133 132.867C395.333 132.867 394.666 133.134 394.2 133.667C393.733 134.2 393.466 134.867 393.333 135.667H398.6C398.533 134.8 398.333 134.067 397.933 133.6C397.533 133.134 396.933 132.867 396.133 132.867Z" fill="white"/>
<path d="M408.8 140.8C408.333 140.8 408.066 140.534 408.066 140.067V133.134H404.533V134.267C404.533 135.534 404.466 136.534 404.266 137.4C404.133 138.267 403.866 138.934 403.466 139.467C403.133 140 402.6 140.4 402 140.734C401.8 140.8 401.6 140.8 401.466 140.8C401.333 140.734 401.2 140.667 401.133 140.467C401.066 140.334 401.066 140.2 401.066 140C401.066 139.8 401.2 139.667 401.4 139.6C401.866 139.334 402.2 139 402.466 138.534C402.733 138.067 402.866 137.534 403 136.867C403.133 136.2 403.133 135.334 403.133 134.267V132.867C403.133 132.334 403.4 132.067 403.933 132.067H408.6C409.133 132.067 409.4 132.334 409.4 132.867V140.134C409.533 140.534 409.266 140.8 408.8 140.8Z" fill="white"/>
<path d="M413.133 140.667C412.6 140.667 412.4 140.4 412.4 139.934V132.6C412.4 132.134 412.666 131.867 413.133 131.867C413.6 131.867 413.866 132.134 413.866 132.6V135.067H416.466C417.6 135.067 418.4 135.334 419 135.8C419.6 136.267 419.866 136.934 419.866 137.867C419.866 138.734 419.6 139.4 419 139.934C418.4 140.467 417.6 140.667 416.533 140.667H413.133ZM413.866 139.667H416.333C417 139.667 417.533 139.534 417.866 139.267C418.2 139 418.4 138.534 418.4 137.934C418.4 137.334 418.2 136.867 417.866 136.6C417.466 136.334 417 136.2 416.266 136.2H413.8V139.667H413.866Z" fill="white"/>
<path d="M425.933 140.867C424.533 140.867 423.467 140.467 422.667 139.667C421.867 138.867 421.467 137.8 421.467 136.4C421.467 135.534 421.667 134.734 422 134C422.333 133.334 422.867 132.8 423.467 132.4C424.067 132 424.8 131.867 425.667 131.867C426.867 131.867 427.8 132.267 428.467 133C429.133 133.734 429.467 134.8 429.467 136.134C429.467 136.534 429.267 136.667 428.867 136.667H422.933C423 137.667 423.267 138.4 423.8 138.934C424.333 139.467 425.067 139.734 426 139.734C426.4 139.734 426.8 139.667 427.2 139.6C427.6 139.467 428 139.334 428.4 139.067C428.667 138.867 428.933 138.867 429.067 138.934C429.2 139 429.333 139.2 429.333 139.4C429.333 139.6 429.2 139.8 429 140C428.6 140.267 428.133 140.534 427.6 140.667C427 140.734 426.467 140.867 425.933 140.867ZM425.733 132.867C424.933 132.867 424.267 133.134 423.8 133.667C423.333 134.2 423.067 134.867 422.933 135.667H428.2C428.133 134.8 427.933 134.067 427.533 133.6C427.067 133.134 426.467 132.867 425.733 132.867Z" fill="white"/>
<path d="M73.0663 124.334C72.4663 123.734 72.1997 122.867 72.1997 121.6V71.7336C72.1997 70.5336 72.4663 69.6002 73.0663 69.0002C73.6663 68.4002 74.6663 68.1336 76.0663 68.1336H81.2664C82.1997 68.1336 82.933 68.2669 83.3997 68.5336C83.8663 68.8002 84.3997 69.2669 84.933 70.0002L108.466 103.134V71.8002C108.466 70.6002 108.733 69.6669 109.333 69.0002C109.933 68.4002 110.866 68.0669 112.2 68.0669H118.466C119.866 68.0669 120.866 68.3336 121.4 68.9336C121.933 69.5336 122.266 70.4669 122.266 71.7336V121.534C122.266 122.734 122 123.667 121.4 124.267C120.866 124.867 119.866 125.134 118.466 125.134H113.2C112.333 125.134 111.6 125 111.133 124.734C110.666 124.467 110.133 124 109.6 123.267L85.9997 90.2002V121.534C85.9997 122.734 85.733 123.667 85.133 124.267C84.5996 124.867 83.5997 125.134 82.1997 125.134H75.933C74.5997 125.2 73.6663 124.934 73.0663 124.334Z" fill="#2A2669"/>
</svg>
