<svg width="430" height="144" viewBox="0 0 430 144" fill="none" xmlns="http://www.w3.org/2000/svg">
<path d="M44.4 39.2666C44.4 39.2666 46.4667 91.5999 0 91.5999C0 91.5999 53.2667 110.533 55.4667 136.2C55.4667 136.2 53.8667 89.5999 94.4 84.0666C94.4 83.9999 51.8 68.7333 44.4 39.2666Z" fill="#E2E528"/>
<path d="M164.333 18.6C164.333 18.6 138.467 27.3333 129.733 0C129.733 0 136.933 31.6667 122.267 37.7333C122.267 37.7333 144 30.3333 154.867 53.2C154.867 53.1333 148.4 28.4667 164.333 18.6Z" fill="#5FE6E9"/>
<path d="M135.067 52.6001C135.067 52.6001 150.734 76.4001 136.934 97.2668C136.934 97.2668 160.467 77.4001 177.734 97.2001C177.734 97.2001 163.667 73.0001 183.2 54.4668C183.2 54.5334 158.8 70.9334 135.067 52.6001Z" fill="#8666DF"/>
<path d="M123.6 57.8666C119.333 42.9333 117.733 38.4666 112.4 43.6666C107.067 48.8666 104 52.0666 104 52.0666C104 52.0666 102 51.5333 97.4001 51.5999C92.8001 51.4666 90.8001 52.0666 90.8001 52.0666C90.8001 52.0666 87.7334 48.8666 82.4001 43.6666C77.0668 38.4666 75.4668 42.9999 71.2001 57.8666C66.9335 72.7999 64.4001 109.2 67.6001 116.667C69.7334 121.667 83.8668 124.067 97.4001 124.067C110.933 124.067 125.067 121.733 127.2 116.667C130.4 109.133 127.867 72.7333 123.6 57.8666Z" fill="#2A2669"/>
<path d="M77.7998 125.467C77.7998 125.467 94.1998 135.467 129.266 124.334C155.866 115.867 153.8 95.667 166.2 100.067C183.266 106.134 158.933 134.2 125.333 136.134C89.0665 138.2 77.7998 125.467 77.7998 125.467Z" fill="#2A2669"/>
<path d="M186.866 112C185.266 111.334 184 110.267 183.066 108.934C182.133 107.534 181.667 105.867 181.667 103.867C181.667 100.734 182.533 98.2668 184.266 96.6668C186 95.0002 188.466 94.2002 191.733 94.2002C194.933 94.2002 197.333 95.0002 199 96.6002C200.667 98.2002 201.466 100.467 201.466 103.467C201.466 104.534 201 105 200.066 105H187.466C187.466 106.334 188 107.334 188.933 108.067C189.933 108.8 191.333 109.134 193.066 109.134C194.133 109.134 195 109 195.8 108.8C196.533 108.6 197.333 108.267 198 107.867C198.267 107.734 198.4 107.667 198.533 107.667C198.733 107.667 198.867 107.8 199 108.067L200.066 110.067C200.133 110.267 200.2 110.4 200.2 110.534C200.2 110.734 200.066 110.934 199.8 111.134C198.8 111.8 197.733 112.267 196.466 112.534C195.2 112.8 193.8 113 192.2 113C190.266 113 188.466 112.667 186.866 112ZM196 101.8C196 100.534 195.666 99.6002 194.933 98.9335C194.266 98.2668 193.2 97.8669 191.8 97.8669C190.4 97.8669 189.333 98.2002 188.6 98.9335C187.866 99.6668 187.466 100.6 187.466 101.8H196Z" fill="#2A2669"/>
<path d="M204.133 112.2C203.933 112 203.867 111.667 203.867 111.267C203.867 110.4 204 109.733 204.2 109.267C204.4 108.8 204.867 108.267 205.533 107.533L213.733 99.2001H205.667C205.067 99.2001 204.667 99.0668 204.4 98.8001C204.133 98.5334 204 98.1334 204 97.6001V96.2001C204 95.6668 204.133 95.2668 204.4 95.0001C204.667 94.7334 205.067 94.6001 205.667 94.6001H219.933C220.4 94.6001 220.733 94.6668 220.867 94.8668C221.067 95.0001 221.133 95.3334 221.133 95.8001C221.133 96.6668 221 97.3334 220.8 97.8001C220.6 98.2668 220.133 98.8668 219.533 99.5334L211.733 107.933H219.933C220.533 107.933 220.933 108.067 221.2 108.333C221.467 108.6 221.6 109 221.6 109.533V110.867C221.6 111.4 221.467 111.8 221.2 112.067C220.933 112.333 220.533 112.467 219.933 112.467H205.133C204.667 112.467 204.333 112.4 204.133 112.2Z" fill="#2A2669"/>
<path d="M224.867 110.8C223.467 109.333 222.733 107.2 222.733 104.533C222.733 102.467 223.2 100.667 224.2 99.0666C225.133 97.4666 226.533 96.2666 228.267 95.4C230 94.5333 232 94.1333 234.267 94.1333C236 94.1333 237.6 94.3333 238.933 94.7333C240.267 95.1333 241.533 95.6666 242.6 96.4666V111.4C242.6 111.8 242.533 112.133 242.333 112.267C242.133 112.4 241.867 112.467 241.4 112.467H238.467C238.2 112.467 238 112.4 237.867 112.333C237.733 112.267 237.6 112.067 237.533 111.867L237.133 110.6C236.4 111.467 235.467 112.067 234.4 112.467C233.333 112.867 232.067 113.067 230.533 113.067C228.2 113 226.267 112.267 224.867 110.8ZM235.667 107.867C236.467 107.267 236.867 106.4 236.867 105.333V98.8666C236.133 98.4666 235.267 98.3333 234.2 98.3333C232.6 98.3333 231.267 98.8666 230.267 99.9333C229.267 101 228.8 102.533 228.8 104.467C228.8 105.933 229.133 107.067 229.8 107.733C230.467 108.467 231.467 108.8 232.8 108.8C233.867 108.8 234.8 108.533 235.667 107.867Z" fill="#2A2669"/>
<path d="M250.333 112.333C248.666 111.867 247.333 111.267 246.333 110.534V88.9335C246.333 88.4002 246.466 88.0002 246.733 87.7335C247 87.4668 247.4 87.3335 248 87.3335H250.666C251.266 87.3335 251.733 87.4668 251.933 87.7335C252.133 88.0002 252.333 88.4002 252.333 89.0002V95.6002C252.933 95.1335 253.666 94.8002 254.533 94.6002C255.466 94.3335 256.4 94.2668 257.4 94.2668C260.266 94.2668 262.466 95.0002 264 96.5335C265.533 98.0668 266.266 100.2 266.266 103C266.266 106.2 265.333 108.734 263.533 110.467C261.733 112.267 259.066 113.134 255.533 113.134C253.733 113 252 112.8 250.333 112.333ZM258.933 107.333C259.733 106.333 260.133 104.867 260.133 102.933C260.133 101.333 259.8 100.2 259.2 99.4668C258.6 98.7335 257.533 98.3335 256.133 98.3335C255.066 98.3335 254.2 98.6002 253.466 99.1335C252.733 99.6668 252.333 100.467 252.333 101.467V108.2C252.666 108.4 253.133 108.533 253.6 108.667C254.133 108.8 254.666 108.8 255.2 108.8C256.866 108.8 258.133 108.333 258.933 107.333Z" fill="#2A2669"/>
<path d="M270 111.333C268.8 110.2 268.133 108.533 268.133 106.267V96.3334C268.133 95.8001 268.267 95.4001 268.533 95.1334C268.8 94.8667 269.2 94.7334 269.8 94.7334H272.6C273.2 94.7334 273.667 94.8667 273.867 95.1334C274.133 95.4001 274.267 95.8001 274.267 96.4001V106.133C274.267 107.067 274.533 107.8 275 108.267C275.467 108.733 276.2 108.933 277.133 108.933C278.133 108.933 278.933 108.667 279.6 108.133C280.2 107.6 280.533 106.867 280.533 105.933V96.4667C280.533 95.9334 280.667 95.5334 280.933 95.2667C281.2 95.0001 281.6 94.8667 282.267 94.8667H285C285.6 94.8667 286.067 95.0001 286.333 95.2667C286.6 95.5334 286.733 95.9334 286.733 96.4667V111.533C286.733 111.933 286.667 112.267 286.533 112.4C286.4 112.533 286.067 112.6 285.667 112.6H282.733C282.133 112.6 281.867 112.4 281.867 112L281.733 110.6C280.133 112.333 277.867 113.133 275 113.133C272.867 113 271.2 112.467 270 111.333Z" fill="#2A2669"/>
<path d="M289.733 103.533C289.733 101.667 290.067 100.067 290.8 98.5999C291.533 97.1999 292.533 96.0666 293.867 95.3333C295.2 94.5333 296.867 94.2 298.733 94.2C299.8 94.2 300.733 94.3333 301.6 94.5333C302.467 94.8 303.133 95.1333 303.667 95.5333V88.9333C303.667 88.3333 303.8 87.9333 304.067 87.6666C304.333 87.3999 304.733 87.2666 305.333 87.2666H308C308.6 87.2666 309 87.3999 309.267 87.6666C309.533 87.9333 309.667 88.3333 309.667 88.8666V110.467C308.667 111.2 307.333 111.8 305.733 112.267C304.133 112.733 302.4 113 300.6 113C293.333 113 289.733 109.867 289.733 103.533ZM303.667 108.2V101.4C303.667 100.4 303.333 99.5999 302.733 99.1333C302.067 98.5999 301.2 98.3999 300.133 98.3999C298.667 98.3999 297.6 98.8666 296.867 99.7999C296.133 100.733 295.8 102 295.8 103.667C295.8 105.533 296.2 106.867 297 107.667C297.8 108.467 299.067 108.867 300.667 108.867C301.867 108.8 302.867 108.6 303.667 108.2Z" fill="#2A2669"/>
<path d="M332.133 111.867C332.133 112.067 332.066 112.2 332 112.333C331.866 112.467 331.733 112.533 331.466 112.533H326.866C326.6 112.533 326.333 112.533 326.2 112.467C326.066 112.4 325.866 112.267 325.733 112.133L319.866 104.867C319.8 104.8 319.733 104.667 319.6 104.533V111C319.6 111.533 319.466 111.933 319.2 112.2C318.933 112.467 318.533 112.6 317.933 112.6H315.133C314.533 112.6 314.133 112.467 313.866 112.2C313.6 111.933 313.466 111.533 313.466 111V89.0668C313.466 88.5335 313.6 88.1335 313.866 87.8668C314.133 87.6001 314.533 87.4668 315.133 87.4668H317.933C318.533 87.4668 319 87.6001 319.2 87.8668C319.466 88.1335 319.6 88.5335 319.6 89.1335V102.333L319.866 102.067L325.6 95.4668C325.733 95.2668 325.933 95.1335 326.066 95.0668C326.2 95.0001 326.466 95.0001 326.8 95.0001H331.4C331.6 95.0001 331.733 95.0668 331.866 95.2001C332 95.3335 332.066 95.4668 332.066 95.6668C332.066 95.8668 332 96.0668 331.8 96.2668L324.933 103.667L332 111.6C332.066 111.4 332.133 111.6 332.133 111.867Z" fill="#2A2669"/>
<path d="M333.867 110.8C332.467 109.333 331.733 107.2 331.733 104.533C331.733 102.467 332.2 100.667 333.2 99.0666C334.133 97.4666 335.533 96.2666 337.267 95.4C339 94.5333 341 94.1333 343.267 94.1333C345 94.1333 346.6 94.3333 347.933 94.7333C349.267 95.1333 350.533 95.6666 351.6 96.4666V111.4C351.6 111.8 351.533 112.133 351.333 112.267C351.133 112.4 350.867 112.467 350.4 112.467H347.4C347.133 112.467 346.933 112.4 346.8 112.333C346.667 112.267 346.533 112.067 346.467 111.867L346.067 110.6C345.333 111.467 344.4 112.067 343.333 112.467C342.267 112.867 341 113.067 339.467 113.067C337.2 113 335.267 112.267 333.867 110.8ZM344.6 107.867C345.4 107.267 345.8 106.4 345.8 105.333V98.8666C345.067 98.4666 344.2 98.3333 343.133 98.3333C341.533 98.3333 340.2 98.8666 339.2 99.9333C338.2 101 337.733 102.533 337.733 104.467C337.733 105.933 338.067 107.067 338.733 107.733C339.4 108.467 340.4 108.8 341.733 108.8C342.867 108.8 343.8 108.533 344.6 107.867Z" fill="#2A2669"/>
<path d="M354.866 103.267C354.666 103 354.6 102.667 354.6 102.2V100.6C354.6 100.134 354.666 99.7335 354.866 99.5335C355.066 99.2669 355.466 99.2002 356 99.2002H368.266C368.8 99.2002 369.133 99.3335 369.333 99.5335C369.533 99.8002 369.666 100.134 369.666 100.6V102.2C369.666 102.667 369.533 103.067 369.333 103.267C369.133 103.534 368.733 103.6 368.266 103.6H356C355.466 103.6 355.066 103.467 354.866 103.267Z" fill="#2A2669"/>
<path d="M374.667 112.067C374.4 111.8 374.267 111.4 374.267 110.867V99.0001H372.8C372.2 99.0001 371.8 98.8667 371.6 98.6001C371.4 98.3334 371.267 97.9334 371.267 97.4001V96.2667C371.267 95.6667 371.4 95.2667 371.6 95.0667C371.8 94.8001 372.2 94.7334 372.8 94.7334H374.267V93.7334C374.267 91.5334 374.867 89.8001 376.067 88.6001C377.267 87.4001 379.067 86.7334 381.467 86.7334C383.933 86.7334 385.8 87.2667 387.2 88.2667C387.467 88.4667 387.6 88.6667 387.6 88.8667C387.6 89.0001 387.533 89.2001 387.4 89.4001L386.267 91.2667C386.133 91.5334 385.933 91.6667 385.733 91.6667C385.6 91.6667 385.467 91.6001 385.267 91.5334C384.467 91.0667 383.667 90.8667 382.8 90.8667C381.867 90.8667 381.267 91.0667 380.867 91.5334C380.467 92.0001 380.267 92.6667 380.267 93.6001V94.7334H384.133C384.733 94.7334 385.133 94.8667 385.333 95.0667C385.533 95.3334 385.667 95.7334 385.667 96.2667V97.4001C385.667 98.0001 385.533 98.4001 385.333 98.6001C385.133 98.8667 384.733 99.0001 384.133 99.0001H380.267V110.867C380.267 111.4 380.133 111.8 379.867 112.067C379.6 112.333 379.2 112.467 378.6 112.467H375.8C375.333 112.467 374.933 112.333 374.667 112.067Z" fill="#2A2669"/>
<path d="M388.8 111.333C387.6 110.2 386.933 108.533 386.933 106.267V96.3334C386.933 95.8001 387.066 95.4001 387.333 95.1334C387.6 94.8667 388 94.7334 388.6 94.7334H391.4C392 94.7334 392.466 94.8667 392.666 95.1334C392.933 95.4001 393.066 95.8001 393.066 96.4001V106.133C393.066 107.067 393.333 107.8 393.8 108.267C394.266 108.733 395 108.933 395.933 108.933C396.933 108.933 397.733 108.667 398.4 108.133C399 107.6 399.333 106.867 399.333 105.933V96.4667C399.333 95.9334 399.466 95.5334 399.733 95.2667C400 95.0001 400.4 94.8667 401.066 94.8667H403.8C404.4 94.8667 404.866 95.0001 405.133 95.2667C405.4 95.5334 405.533 95.9334 405.533 96.4667V111.533C405.533 111.933 405.466 112.267 405.333 112.4C405.2 112.533 404.866 112.6 404.466 112.6H401.4C400.8 112.6 400.533 112.4 400.533 112L400.4 110.6C398.8 112.333 396.533 113.133 393.666 113.133C391.666 113 390.066 112.467 388.8 111.333Z" fill="#2A2669"/>
<path d="M409.667 112.067C409.4 111.8 409.267 111.4 409.267 110.867V95.7336C409.267 95.3336 409.333 95.0002 409.467 94.8669C409.6 94.7336 409.933 94.6669 410.333 94.6669H413.267C413.533 94.6669 413.8 94.7336 413.933 94.8002C414.067 94.8669 414.2 95.0669 414.2 95.3336L414.333 96.6002C415.067 95.8002 416.067 95.2002 417.2 94.7336C418.333 94.2669 419.667 94.0669 421.133 94.0669C423.133 94.0669 424.8 94.6002 426 95.7336C427.2 96.8002 427.8 98.4669 427.8 100.667V110.867C427.8 111.4 427.667 111.8 427.4 112.067C427.133 112.334 426.733 112.467 426.133 112.467H423.333C422.733 112.467 422.267 112.334 422 112.067C421.733 111.8 421.6 111.4 421.6 110.867V101.067C421.6 100.134 421.4 99.4002 421 99.0002C420.6 98.6002 419.867 98.4002 418.933 98.4002C417.867 98.4002 417 98.6669 416.333 99.2002C415.6 99.7336 415.267 100.467 415.267 101.334V110.867C415.267 111.4 415.133 111.8 414.867 112.067C414.6 112.334 414.2 112.467 413.6 112.467H410.867C410.333 112.467 409.933 112.334 409.667 112.067Z" fill="#2A2669"/>
<path d="M175.733 143.599C175.266 143.599 175.066 143.399 175.066 142.933V140.199C175.066 139.733 175.333 139.466 175.8 139.466H176.266C176.866 138.666 177.333 137.666 177.666 136.333C177.933 134.999 178.133 133.333 178.133 131.399V128.933C178.133 128.399 178.4 128.133 178.933 128.133H185.666C186.2 128.133 186.466 128.399 186.466 128.933V139.533H187.533C188.066 139.533 188.266 139.799 188.266 140.266V142.999C188.266 143.466 188.066 143.666 187.6 143.666C187.133 143.666 186.933 143.466 186.933 142.999V140.733H176.4V142.999C176.4 143.399 176.2 143.599 175.733 143.599ZM177.866 139.466H185.066V129.333H179.533V131.466C179.533 133.399 179.4 134.999 179.133 136.266C178.866 137.533 178.4 138.599 177.866 139.466Z" fill="#2A2669"/>
<path d="M192.866 140.866C192.266 140.866 191.733 140.733 191.266 140.533C190.8 140.333 190.4 140 190.133 139.6C189.866 139.2 189.733 138.733 189.733 138.266C189.733 137.666 189.866 137.133 190.2 136.733C190.533 136.333 191.066 136.066 191.8 135.933C192.533 135.8 193.6 135.666 194.933 135.666H195.533V135.066C195.533 134.333 195.4 133.8 195.066 133.466C194.733 133.133 194.266 133 193.6 133C193.2 133 192.733 133.066 192.333 133.133C191.933 133.266 191.466 133.4 191 133.666C190.8 133.8 190.6 133.8 190.466 133.733C190.333 133.666 190.266 133.533 190.2 133.4C190.133 133.266 190.133 133.066 190.2 132.933C190.266 132.8 190.4 132.666 190.533 132.533C191.066 132.266 191.533 132.066 192.066 131.933C192.6 131.8 193.066 131.733 193.533 131.733C194.666 131.733 195.466 132 196 132.533C196.533 133.066 196.8 133.933 196.8 135.066V139.933C196.8 140.466 196.6 140.666 196.133 140.666C195.666 140.666 195.466 140.4 195.466 139.933V139.066C195.266 139.6 194.866 140 194.4 140.266C194.066 140.666 193.533 140.866 192.866 140.866ZM193.133 139.733C193.866 139.733 194.466 139.466 194.866 139C195.333 138.533 195.533 137.866 195.533 137.133V136.6H195C194.066 136.6 193.266 136.666 192.733 136.733C192.2 136.8 191.8 137 191.6 137.2C191.4 137.4 191.266 137.733 191.266 138.133C191.266 138.6 191.466 139 191.8 139.333C192.066 139.6 192.533 139.733 193.133 139.733Z" fill="#2A2669"/>
<path d="M200.466 144C200 144 199.733 143.733 199.733 143.266V132.6C199.733 132.133 199.933 131.866 200.4 131.866C200.866 131.866 201.133 132.133 201.133 132.6V133.533C201.4 133 201.8 132.6 202.266 132.266C202.8 131.933 203.4 131.8 204.066 131.8C204.866 131.8 205.533 132 206.066 132.333C206.666 132.666 207.066 133.2 207.4 133.866C207.733 134.533 207.866 135.333 207.866 136.266C207.866 137.2 207.733 138 207.4 138.666C207.066 139.333 206.666 139.866 206.066 140.2C205.466 140.6 204.8 140.733 204.066 140.733C203.4 140.733 202.8 140.6 202.266 140.266C201.733 140 201.333 139.533 201.133 139V143.133C201.2 143.8 201 144 200.466 144ZM203.866 139.666C204.666 139.666 205.333 139.4 205.8 138.8C206.266 138.2 206.533 137.4 206.533 136.333C206.533 135.266 206.266 134.4 205.8 133.866C205.333 133.266 204.666 133 203.866 133C203.066 133 202.4 133.266 201.933 133.866C201.466 134.466 201.2 135.266 201.2 136.333C201.2 137.4 201.466 138.2 201.933 138.8C202.4 139.4 203.066 139.666 203.866 139.666Z" fill="#2A2669"/>
<path d="M211 140.8C210.533 140.8 210.333 140.533 210.333 140V132.533C210.333 132.066 210.533 131.8 211 131.8C211.466 131.8 211.666 132.066 211.666 132.533V138.666L216.4 132.266C216.466 132.133 216.6 132 216.733 131.933C216.866 131.866 217 131.8 217.266 131.8C217.733 131.8 217.933 132.066 217.933 132.6V140.066C217.933 140.533 217.733 140.8 217.266 140.8C216.8 140.8 216.6 140.533 216.6 140.066V133.933L211.8 140.333C211.733 140.466 211.6 140.533 211.466 140.666C211.4 140.733 211.266 140.8 211 140.8Z" fill="#2A2669"/>
<path d="M221.466 140.8C221.066 140.8 220.8 140.6 220.8 140.133V132.666C220.8 132.133 221 131.866 221.466 131.866C221.666 131.866 221.866 131.933 221.933 132C222.066 132.066 222.133 132.2 222.2 132.4L225.266 137.8L228.333 132.4C228.4 132.266 228.533 132.133 228.6 132C228.666 131.866 228.866 131.866 229.066 131.866C229.466 131.866 229.733 132.133 229.733 132.666V140.133C229.733 140.6 229.533 140.8 229.066 140.8C228.666 140.8 228.4 140.6 228.4 140.133V134.4L225.733 139.066C225.666 139.133 225.6 139.266 225.533 139.333C225.466 139.4 225.333 139.4 225.2 139.4C225.066 139.4 224.933 139.4 224.866 139.333C224.8 139.266 224.733 139.2 224.667 139.066L222 134.4V140.133C222.067 140.6 221.866 140.8 221.466 140.8Z" fill="#2A2669"/>
<path d="M237.933 140.8C237.466 140.8 237.2 140.533 237.2 140.066V132.6C237.2 132.133 237.466 131.866 237.933 131.866C238.4 131.866 238.666 132.133 238.666 132.6V135.6H243.4V132.6C243.4 132.133 243.666 131.866 244.133 131.866C244.6 131.866 244.866 132.133 244.866 132.6V140.066C244.866 140.6 244.6 140.8 244.133 140.8C243.666 140.8 243.4 140.533 243.4 140.066V136.8H238.666V140.066C238.666 140.533 238.4 140.8 237.933 140.8Z" fill="#2A2669"/>
<path d="M251.666 140.866C250.266 140.866 249.2 140.466 248.4 139.666C247.6 138.866 247.2 137.8 247.2 136.4C247.2 135.533 247.4 134.733 247.733 134C248.066 133.333 248.6 132.8 249.2 132.4C249.8 132 250.533 131.866 251.4 131.866C252.6 131.866 253.533 132.266 254.2 133C254.866 133.733 255.2 134.8 255.2 136.133C255.2 136.533 255 136.666 254.6 136.666H248.666C248.733 137.666 249 138.4 249.533 138.933C250.066 139.466 250.8 139.733 251.733 139.733C252.133 139.733 252.533 139.666 252.933 139.6C253.333 139.466 253.733 139.333 254.133 139.066C254.4 138.866 254.666 138.866 254.8 138.933C254.933 139 255.066 139.2 255.066 139.4C255.066 139.6 254.933 139.8 254.733 140C254.333 140.266 253.866 140.533 253.333 140.666C252.666 140.733 252.133 140.866 251.666 140.866ZM251.4 132.866C250.6 132.866 249.933 133.133 249.466 133.666C249 134.2 248.733 134.866 248.6 135.666H253.866C253.8 134.8 253.6 134.066 253.2 133.6C252.8 133.133 252.2 132.866 251.4 132.866Z" fill="#2A2669"/>
<path d="M260.266 140.866C259.666 140.866 259.066 140.8 258.466 140.666C257.866 140.533 257.4 140.333 256.933 140.066C256.666 139.933 256.6 139.733 256.533 139.533C256.466 139.333 256.6 139.133 256.8 139C257 138.866 257.2 138.866 257.466 139.066C257.866 139.333 258.266 139.466 258.733 139.6C259.2 139.733 259.666 139.8 260.2 139.8C261.066 139.8 261.666 139.666 262.066 139.4C262.466 139.133 262.6 138.8 262.6 138.333C262.6 137.866 262.466 137.533 262.133 137.266C261.8 137 261.4 136.933 260.8 136.933H259.266C258.866 136.933 258.666 136.733 258.666 136.4C258.666 136.066 258.866 135.866 259.266 135.866H260.666C261.2 135.866 261.6 135.733 261.866 135.533C262.133 135.333 262.333 135 262.333 134.533C262.333 134.066 262.2 133.733 261.866 133.466C261.533 133.2 261 133.066 260.266 133.066C259.8 133.066 259.333 133.133 258.933 133.2C258.533 133.333 258.133 133.466 257.733 133.666C257.466 133.8 257.2 133.866 257.066 133.733C256.866 133.6 256.8 133.466 256.8 133.2C256.8 133 256.933 132.8 257.133 132.666C258.066 132.133 259.133 131.866 260.466 131.866C261.6 131.866 262.4 132.066 262.933 132.533C263.466 132.933 263.733 133.533 263.733 134.333C263.733 134.8 263.6 135.133 263.333 135.533C263.066 135.866 262.733 136.133 262.266 136.266C262.8 136.4 263.2 136.666 263.533 137C263.866 137.333 264 137.8 264 138.333C264 139.133 263.666 139.733 263.066 140.2C262.466 140.6 261.533 140.866 260.266 140.866Z" fill="#2A2669"/>
<path d="M269.066 140.866C268.466 140.866 267.933 140.733 267.466 140.533C267 140.333 266.6 140 266.333 139.6C266.066 139.2 265.933 138.733 265.933 138.266C265.933 137.666 266.066 137.133 266.4 136.733C266.733 136.333 267.266 136.066 268 135.933C268.733 135.8 269.8 135.666 271.133 135.666H271.733V135.066C271.733 134.333 271.6 133.8 271.266 133.466C270.933 133.133 270.466 133 269.8 133C269.4 133 268.933 133.066 268.533 133.133C268.133 133.266 267.666 133.4 267.2 133.666C267 133.8 266.8 133.8 266.666 133.733C266.533 133.666 266.466 133.533 266.4 133.4C266.333 133.266 266.333 133.066 266.4 132.933C266.466 132.8 266.6 132.666 266.733 132.533C267.266 132.266 267.733 132.066 268.266 131.933C268.8 131.8 269.266 131.733 269.733 131.733C270.866 131.733 271.666 132 272.2 132.533C272.733 133.066 273 133.933 273 135.066V139.933C273 140.466 272.8 140.666 272.333 140.666C271.866 140.666 271.666 140.4 271.666 139.933V139.066C271.466 139.6 271.066 140 270.6 140.266C270.266 140.666 269.666 140.866 269.066 140.866ZM269.266 139.733C270 139.733 270.6 139.466 271 139C271.466 138.533 271.666 137.866 271.666 137.133V136.6H271.133C270.2 136.6 269.4 136.666 268.866 136.733C268.333 136.8 267.933 137 267.733 137.2C267.533 137.4 267.4 137.733 267.4 138.133C267.4 138.6 267.6 139 267.933 139.333C268.266 139.6 268.733 139.733 269.266 139.733Z" fill="#2A2669"/>
<path d="M279.6 140.866C278.333 140.866 277.267 140.466 276.533 139.6C275.8 138.733 275.4 137.533 275.4 135.933V134.6C275.4 132.866 275.733 131.533 276.467 130.666C277.133 129.733 278.2 129.133 279.6 128.733L282.2 128C282.667 127.866 282.933 128 283 128.4C283.133 128.8 282.933 129.066 282.467 129.2L279.667 129.933C278.733 130.2 278 130.666 277.467 131.333C277 132 276.733 132.8 276.733 133.8V133.866C277 133.266 277.4 132.8 277.933 132.466C278.467 132.133 279.133 131.933 279.8 131.933C280.533 131.933 281.2 132.133 281.8 132.466C282.4 132.8 282.8 133.333 283.133 134C283.467 134.666 283.6 135.466 283.6 136.333C283.6 137.266 283.4 138 283.067 138.733C282.733 139.4 282.267 139.933 281.667 140.266C281.2 140.666 280.467 140.866 279.6 140.866ZM279.533 139.666C280.4 139.666 281.067 139.4 281.533 138.8C282 138.266 282.267 137.4 282.267 136.333C282.267 135.266 282 134.466 281.533 133.933C281.067 133.333 280.4 133.066 279.533 133.066C278.667 133.066 278.067 133.333 277.533 133.933C277.067 134.466 276.8 135.266 276.8 136.266C276.8 137.4 277 138.266 277.467 138.8C278.067 139.4 278.733 139.666 279.533 139.666Z" fill="#2A2669"/>
<path d="M286.8 140.666C286.266 140.666 286.066 140.4 286.066 139.933V132.6C286.066 132.133 286.333 131.866 286.8 131.866C287.266 131.866 287.533 132.133 287.533 132.6V135.066H290.133C291.266 135.066 292.066 135.333 292.666 135.8C293.266 136.266 293.533 136.933 293.533 137.866C293.533 138.733 293.266 139.4 292.666 139.933C292.066 140.466 291.266 140.666 290.2 140.666H286.8ZM287.533 139.666H290C290.666 139.666 291.2 139.533 291.533 139.266C291.866 139 292.066 138.533 292.066 137.933C292.066 137.333 291.866 136.866 291.533 136.6C291.133 136.333 290.666 136.2 289.933 136.2H287.466V139.666H287.533ZM295.533 140.8C295.066 140.8 294.8 140.533 294.8 140.066V132.6C294.8 132.133 295.066 131.866 295.533 131.866C296 131.866 296.266 132.133 296.266 132.6V140.066C296.266 140.533 296 140.8 295.533 140.8Z" fill="#2A2669"/>
<path d="M299.867 140.666C299.333 140.666 299.133 140.4 299.133 139.933V132.733C299.133 132.2 299.4 132 299.867 132H303.333C304.333 132 305.133 132.2 305.6 132.6C306.067 133 306.333 133.533 306.333 134.333C306.333 134.8 306.2 135.2 305.933 135.533C305.667 135.866 305.333 136.133 304.867 136.266C305.4 136.4 305.8 136.666 306.133 137C306.467 137.4 306.6 137.8 306.6 138.333C306.6 139.066 306.333 139.666 305.8 140.066C305.267 140.466 304.467 140.733 303.467 140.733H299.867V140.666ZM300.533 135.733H303.333C303.867 135.733 304.333 135.6 304.6 135.4C304.867 135.133 305.067 134.8 305.067 134.333C305.067 133.866 304.933 133.533 304.6 133.333C304.333 133.066 303.867 133 303.333 133H300.533V135.733ZM300.533 139.666H303.467C304.067 139.666 304.533 139.533 304.8 139.266C305.133 139 305.267 138.666 305.267 138.133C305.267 137.666 305.133 137.266 304.8 137.066C304.467 136.8 304.067 136.666 303.467 136.666H300.533V139.666Z" fill="#2A2669"/>
<path d="M311.667 140.866C311.067 140.866 310.533 140.733 310.067 140.533C309.6 140.333 309.2 140 308.933 139.6C308.667 139.2 308.533 138.733 308.533 138.266C308.533 137.666 308.667 137.133 309 136.733C309.333 136.333 309.867 136.066 310.6 135.933C311.333 135.8 312.4 135.666 313.733 135.666H314.333V135.066C314.333 134.333 314.2 133.8 313.867 133.466C313.533 133.133 313.067 133 312.4 133C312 133 311.533 133.066 311.133 133.133C310.733 133.266 310.267 133.4 309.8 133.666C309.6 133.8 309.4 133.8 309.267 133.733C309.133 133.666 309.067 133.533 309 133.4C308.933 133.266 308.933 133.066 309 132.933C309.067 132.8 309.2 132.666 309.333 132.533C309.867 132.266 310.333 132.066 310.867 131.933C311.4 131.8 311.867 131.733 312.333 131.733C313.467 131.733 314.267 132 314.8 132.533C315.333 133.066 315.6 133.933 315.6 135.066V139.933C315.6 140.466 315.4 140.666 314.933 140.666C314.467 140.666 314.267 140.4 314.267 139.933V139.066C314.067 139.6 313.667 140 313.2 140.266C312.867 140.666 312.267 140.866 311.667 140.866ZM311.867 139.733C312.6 139.733 313.2 139.466 313.6 139C314.067 138.533 314.267 137.866 314.267 137.133V136.6H313.733C312.8 136.6 312 136.666 311.467 136.733C310.933 136.8 310.533 137 310.333 137.2C310.133 137.4 310 137.733 310 138.133C310 138.6 310.2 139 310.533 139.333C310.867 139.6 311.333 139.733 311.867 139.733Z" fill="#2A2669"/>
<path d="M322.466 140.866C321.066 140.866 320 140.466 319.2 139.666C318.4 138.866 318 137.8 318 136.4C318 135.533 318.2 134.733 318.533 134C318.866 133.333 319.4 132.8 320 132.4C320.6 132 321.333 131.866 322.2 131.866C323.4 131.866 324.333 132.266 325 133C325.666 133.733 326 134.8 326 136.133C326 136.533 325.799 136.666 325.399 136.666H319.466C319.533 137.666 319.8 138.4 320.333 138.933C320.866 139.466 321.6 139.733 322.533 139.733C322.933 139.733 323.333 139.666 323.733 139.6C324.133 139.466 324.533 139.333 324.933 139.066C325.199 138.866 325.466 138.866 325.599 138.933C325.733 139 325.866 139.2 325.866 139.4C325.866 139.6 325.733 139.8 325.533 140C325.133 140.266 324.666 140.533 324.133 140.666C323.533 140.733 322.999 140.866 322.466 140.866ZM322.266 132.866C321.466 132.866 320.8 133.133 320.333 133.666C319.866 134.2 319.599 134.866 319.466 135.666H324.733C324.666 134.8 324.466 134.066 324.066 133.6C323.599 133.133 322.999 132.866 322.266 132.866Z" fill="#2A2669"/>
<path d="M328.866 140.8C328.466 140.8 328.2 140.6 328.2 140.133V132.666C328.2 132.133 328.4 131.866 328.866 131.866C329.066 131.866 329.266 131.933 329.333 132C329.466 132.066 329.533 132.2 329.6 132.4L332.666 137.8L335.733 132.4C335.8 132.266 335.933 132.133 336 132C336.066 131.866 336.266 131.866 336.466 131.866C336.866 131.866 337.133 132.133 337.133 132.666V140.133C337.133 140.6 336.933 140.8 336.466 140.8C336.066 140.8 335.8 140.6 335.8 140.133V134.4L333.133 139.066C333.066 139.133 333 139.266 332.933 139.333C332.866 139.4 332.733 139.4 332.6 139.4C332.466 139.4 332.333 139.4 332.266 139.333C332.2 139.266 332.133 139.2 332.066 139.066L329.4 134.4V140.133C329.533 140.6 329.333 140.8 328.866 140.8Z" fill="#2A2669"/>
<path d="M343.666 140.866C342.8 140.866 342.066 140.666 341.466 140.333C340.866 139.933 340.333 139.466 340 138.8C339.666 138.133 339.466 137.333 339.466 136.4C339.466 135.466 339.666 134.666 340 134C340.333 133.333 340.8 132.8 341.466 132.466C342.066 132.066 342.8 131.933 343.666 131.933C344.533 131.933 345.2 132.133 345.866 132.466C346.466 132.866 347 133.333 347.333 134C347.666 134.666 347.866 135.466 347.866 136.4C347.866 137.333 347.666 138.133 347.333 138.8C347 139.466 346.533 140 345.866 140.333C345.2 140.666 344.466 140.866 343.666 140.866ZM343.666 139.666C344.466 139.666 345.133 139.4 345.6 138.8C346.066 138.2 346.333 137.4 346.333 136.333C346.333 135.266 346.066 134.4 345.6 133.866C345.133 133.266 344.466 133 343.666 133C342.866 133 342.2 133.266 341.733 133.866C341.266 134.466 341 135.266 341 136.333C341 137.4 341.266 138.2 341.733 138.8C342.2 139.4 342.866 139.666 343.666 139.666Z" fill="#2A2669"/>
<path d="M354.066 140.866C352.666 140.866 351.6 140.466 350.8 139.666C350 138.866 349.6 137.8 349.6 136.4C349.6 135.533 349.8 134.733 350.133 134C350.466 133.333 351 132.8 351.6 132.4C352.2 132 352.933 131.866 353.8 131.866C355 131.866 355.933 132.266 356.6 133C357.266 133.733 357.6 134.8 357.6 136.133C357.6 136.533 357.4 136.666 357 136.666H351.066C351.133 137.666 351.4 138.4 351.933 138.933C352.466 139.466 353.2 139.733 354.133 139.733C354.533 139.733 354.933 139.666 355.333 139.6C355.733 139.466 356.133 139.333 356.533 139.066C356.8 138.866 357.066 138.866 357.2 138.933C357.333 139 357.466 139.2 357.466 139.4C357.466 139.6 357.333 139.8 357.133 140C356.733 140.266 356.266 140.533 355.733 140.666C355.133 140.733 354.6 140.866 354.066 140.866ZM353.866 132.866C353.066 132.866 352.4 133.133 351.933 133.666C351.466 134.2 351.2 134.866 351.066 135.666H356.333C356.266 134.8 356.066 134.066 355.666 133.6C355.266 133.133 354.666 132.866 353.866 132.866Z" fill="#2A2669"/>
<path d="M365.2 140.666C364.666 140.666 364.466 140.4 364.466 139.933V132.733C364.466 132.2 364.733 132 365.2 132H368.666C369.666 132 370.466 132.2 370.933 132.6C371.4 133 371.666 133.533 371.666 134.333C371.666 134.8 371.533 135.2 371.266 135.533C371 135.866 370.666 136.133 370.2 136.266C370.733 136.4 371.133 136.666 371.466 137C371.8 137.4 371.933 137.8 371.933 138.333C371.933 139.066 371.666 139.666 371.133 140.066C370.6 140.466 369.8 140.733 368.8 140.733H365.2V140.666ZM365.866 135.733H368.666C369.2 135.733 369.666 135.6 369.933 135.4C370.2 135.133 370.4 134.8 370.4 134.333C370.4 133.866 370.266 133.533 369.933 133.333C369.666 133.066 369.2 133 368.666 133H365.866V135.733ZM365.866 139.666H368.8C369.4 139.666 369.866 139.533 370.133 139.266C370.466 139 370.6 138.666 370.6 138.133C370.6 137.666 370.466 137.266 370.133 137.066C369.8 136.8 369.4 136.666 368.8 136.666H365.866V139.666Z" fill="#2A2669"/>
<path d="M378.2 140.866C376.8 140.866 375.733 140.466 374.933 139.666C374.133 138.866 373.733 137.8 373.733 136.4C373.733 135.533 373.933 134.733 374.266 134C374.6 133.333 375.133 132.8 375.733 132.4C376.333 132 377.066 131.866 377.933 131.866C379.133 131.866 380.066 132.266 380.733 133C381.4 133.733 381.733 134.8 381.733 136.133C381.733 136.533 381.533 136.666 381.133 136.666H375.2C375.266 137.666 375.533 138.4 376.066 138.933C376.6 139.466 377.333 139.733 378.266 139.733C378.666 139.733 379.066 139.666 379.466 139.6C379.866 139.466 380.266 139.333 380.666 139.066C380.933 138.866 381.2 138.866 381.333 138.933C381.466 139 381.6 139.2 381.6 139.4C381.6 139.6 381.466 139.8 381.266 140C380.866 140.266 380.4 140.533 379.866 140.666C379.2 140.733 378.666 140.866 378.2 140.866ZM377.933 132.866C377.133 132.866 376.466 133.133 376 133.666C375.533 134.2 375.266 134.866 375.133 135.666H380.4C380.333 134.8 380.133 134.066 379.733 133.6C379.333 133.133 378.733 132.866 377.933 132.866Z" fill="#2A2669"/>
<path d="M387.667 140.866C386.8 140.866 386.067 140.666 385.4 140.333C384.8 139.933 384.267 139.4 383.933 138.733C383.6 138.066 383.4 137.266 383.4 136.333C383.4 134.933 383.8 133.866 384.533 133.066C385.267 132.266 386.333 131.866 387.6 131.866C388 131.866 388.467 131.933 388.933 132.066C389.4 132.2 389.8 132.4 390.2 132.733C390.4 132.866 390.467 133.066 390.467 133.266C390.467 133.466 390.333 133.666 390.133 133.733C389.933 133.866 389.733 133.8 389.533 133.666C389.2 133.4 388.867 133.266 388.6 133.133C388.267 133.066 388 133 387.667 133C386.733 133 386.067 133.266 385.6 133.866C385.133 134.466 384.867 135.266 384.867 136.333C384.867 137.4 385.133 138.2 385.6 138.8C386.067 139.4 386.8 139.733 387.667 139.733C387.933 139.733 388.267 139.666 388.6 139.6C388.933 139.533 389.267 139.333 389.533 139.066C389.733 138.933 389.933 138.866 390.133 139C390.267 139.133 390.4 139.266 390.4 139.466C390.4 139.666 390.333 139.866 390.133 140C389.733 140.333 389.333 140.533 388.867 140.666C388.533 140.8 388.067 140.866 387.667 140.866Z" fill="#2A2669"/>
<path d="M396.333 140.866C394.933 140.866 393.866 140.466 393.066 139.666C392.266 138.866 391.866 137.8 391.866 136.4C391.866 135.533 392.066 134.733 392.4 134C392.733 133.333 393.266 132.8 393.866 132.4C394.466 132 395.2 131.866 396.066 131.866C397.266 131.866 398.2 132.266 398.866 133C399.533 133.733 399.866 134.8 399.866 136.133C399.866 136.533 399.666 136.666 399.266 136.666H393.333C393.4 137.666 393.666 138.4 394.2 138.933C394.733 139.466 395.466 139.733 396.4 139.733C396.8 139.733 397.2 139.666 397.6 139.6C398 139.466 398.4 139.333 398.8 139.066C399.066 138.866 399.333 138.866 399.466 138.933C399.6 139 399.733 139.2 399.733 139.4C399.733 139.6 399.6 139.8 399.4 140C399 140.266 398.533 140.533 398 140.666C397.4 140.733 396.866 140.866 396.333 140.866ZM396.133 132.866C395.333 132.866 394.666 133.133 394.2 133.666C393.733 134.2 393.466 134.866 393.333 135.666H398.6C398.533 134.8 398.333 134.066 397.933 133.6C397.466 133.133 396.866 132.866 396.133 132.866Z" fill="#2A2669"/>
<path d="M408.8 140.8C408.333 140.8 408.066 140.533 408.066 140.066V133.133H404.533V134.266C404.533 135.533 404.466 136.533 404.266 137.4C404.133 138.266 403.866 138.933 403.466 139.466C403.133 140 402.6 140.4 402 140.733C401.8 140.8 401.6 140.8 401.466 140.8C401.333 140.733 401.2 140.666 401.133 140.466C401.066 140.333 401.066 140.2 401.066 140C401.066 139.8 401.2 139.666 401.4 139.6C401.866 139.333 402.2 139 402.466 138.533C402.733 138.066 402.866 137.533 403 136.866C403.133 136.2 403.133 135.333 403.133 134.266V132.866C403.133 132.333 403.4 132.066 403.933 132.066H408.6C409.133 132.066 409.4 132.333 409.4 132.866V140.133C409.533 140.533 409.266 140.8 408.8 140.8Z" fill="#2A2669"/>
<path d="M413.133 140.666C412.6 140.666 412.4 140.4 412.4 139.933V132.6C412.4 132.133 412.667 131.866 413.133 131.866C413.6 131.866 413.867 132.133 413.867 132.6V135.066H416.467C417.6 135.066 418.4 135.333 419 135.8C419.6 136.266 419.867 136.933 419.867 137.866C419.867 138.733 419.6 139.4 419 139.933C418.4 140.466 417.6 140.666 416.533 140.666H413.133ZM413.8 139.666H416.267C416.933 139.666 417.467 139.533 417.8 139.266C418.133 139 418.333 138.533 418.333 137.933C418.333 137.333 418.133 136.866 417.8 136.6C417.4 136.333 416.933 136.2 416.2 136.2H413.733V139.666H413.8Z" fill="#2A2669"/>
<path d="M425.933 140.866C424.533 140.866 423.466 140.466 422.666 139.666C421.866 138.866 421.466 137.8 421.466 136.4C421.466 135.533 421.666 134.733 422 134C422.333 133.333 422.866 132.8 423.466 132.4C424.066 132 424.8 131.866 425.666 131.866C426.866 131.866 427.8 132.266 428.466 133C429.133 133.733 429.466 134.8 429.466 136.133C429.466 136.533 429.266 136.666 428.866 136.666H422.933C423 137.666 423.266 138.4 423.8 138.933C424.333 139.466 425.066 139.733 426 139.733C426.4 139.733 426.8 139.666 427.2 139.6C427.6 139.466 428 139.333 428.4 139.066C428.666 138.866 428.933 138.866 429.066 138.933C429.2 139 429.333 139.2 429.333 139.4C429.333 139.6 429.2 139.8 429 140C428.6 140.266 428.133 140.533 427.6 140.666C426.933 140.733 426.4 140.866 425.933 140.866ZM425.666 132.866C424.866 132.866 424.2 133.133 423.733 133.666C423.266 134.2 423 134.866 422.866 135.666H428.133C428.066 134.8 427.866 134.066 427.466 133.6C427.066 133.133 426.466 132.866 425.666 132.866Z" fill="#2A2669"/>
<path d="M73.0664 124.333C72.4664 123.733 72.1997 122.866 72.1997 121.6V71.7331C72.1997 70.5331 72.4664 69.5997 73.0664 68.9997C73.6664 68.3997 74.6664 68.1331 76.0664 68.1331H81.2664C82.1997 68.1331 82.933 68.2664 83.3997 68.5331C83.8664 68.7997 84.3997 69.2664 84.933 69.9997L108.466 103.133V71.7997C108.466 70.5997 108.733 69.6664 109.333 68.9997C109.933 68.3997 110.866 68.0664 112.2 68.0664H118.466C119.866 68.0664 120.866 68.3331 121.4 68.9331C121.933 69.5331 122.266 70.4664 122.266 71.7331V121.533C122.266 122.733 122 123.666 121.4 124.266C120.866 124.866 119.866 125.133 118.466 125.133H113.2C112.333 125.133 111.6 125 111.133 124.733C110.666 124.466 110.133 124 109.6 123.266L85.9997 90.1997V121.533C85.9997 122.733 85.733 123.666 85.133 124.266C84.5997 124.866 83.5997 125.133 82.1997 125.133H75.933C74.5997 125.2 73.6664 124.933 73.0664 124.333Z" fill="white"/>
</svg>
