<svg width="196" height="184" viewBox="0 0 196 184" fill="none" xmlns="http://www.w3.org/2000/svg">
<path d="M52.3957 30.6113C52.3957 30.6113 53.992 71.4578 17.7466 71.4578C17.7466 71.4578 59.2504 86.2001 61.0345 106.201C61.0345 106.201 59.7199 69.8615 91.3642 65.5421C91.3642 65.5421 58.1236 53.6168 52.3957 30.6113Z" fill="#E2E528"/>
<path d="M145.92 14.5545C145.92 14.5545 125.731 21.3153 118.971 0C118.971 0 124.605 24.6957 113.149 29.4846C113.149 29.4846 130.145 23.7567 138.596 41.5038C138.502 41.5038 133.431 22.1604 145.92 14.5545Z" fill="#5FE6E9"/>
<path d="M123.009 41.0342C123.009 41.0342 135.216 59.5325 124.511 75.8711C124.511 75.8711 142.915 60.3776 156.343 75.7772C156.343 75.7772 145.357 56.9033 160.569 42.4427C160.662 42.5366 141.601 55.307 123.009 41.0342Z" fill="#8666DF"/>
<path d="M114.088 45.1656C110.802 33.522 109.487 30.0477 105.355 34.0854C101.224 38.1231 98.7824 40.6584 98.7824 40.6584C98.7824 40.6584 97.1861 40.1889 93.6179 40.2828C90.0497 40.1889 88.4534 40.6584 88.4534 40.6584C88.4534 40.6584 86.012 38.1231 81.8804 34.0854C77.7488 30.0477 76.4343 33.522 73.1478 45.1656C69.8613 56.8092 67.7955 85.167 70.3308 90.9888C72.021 94.9326 83.0072 96.7166 93.6179 96.7166C104.229 96.7166 115.215 94.8387 116.905 90.9888C119.44 85.167 117.469 56.7153 114.088 45.1656Z" fill="white"/>
<path d="M78.4062 97.8437C78.4062 97.8437 91.1766 105.637 118.502 96.9047C139.253 90.3317 137.657 74.5565 147.329 77.9369C160.663 82.6319 141.695 104.511 115.497 106.013C87.139 107.797 78.4062 97.8437 78.4062 97.8437Z" fill="white"/>
<path d="M0.375623 146.202C0.0939229 145.921 0 145.545 0 144.982V122.915C0 122.352 0.0939229 121.976 0.375623 121.694C0.657323 121.413 1.03295 121.319 1.69025 121.319H4.03775C4.50725 121.319 4.78895 121.413 4.97675 121.507C5.16455 121.601 5.4462 121.882 5.634 122.164L16.0569 136.906V122.915C16.0569 122.352 16.1508 121.976 16.4325 121.694C16.7142 121.413 17.0898 121.319 17.7471 121.319H20.5641C21.2214 121.319 21.597 121.413 21.8787 121.694C22.1604 121.976 22.2543 122.352 22.2543 122.915V144.982C22.2543 145.545 22.1604 145.921 21.8787 146.202C21.597 146.484 21.2214 146.578 20.5641 146.578H18.2166C17.841 146.578 17.5593 146.484 17.2776 146.39C17.0898 146.296 16.8081 146.108 16.6203 145.733L6.1035 131.084V144.982C6.1035 145.545 6.00958 145.921 5.72788 146.202C5.44618 146.484 5.07055 146.578 4.41325 146.578H1.59625C1.03285 146.578 0.657323 146.484 0.375623 146.202Z" fill="white"/>
<path d="M30.5175 146.108C28.9212 145.451 27.6066 144.418 26.7615 143.01C25.8225 141.601 25.353 139.911 25.353 137.845C25.353 134.653 26.1982 132.211 27.9823 130.615C29.7664 128.925 32.2078 128.08 35.4943 128.08C38.6869 128.08 41.1282 128.925 42.8184 130.521C44.5086 132.117 45.2598 134.465 45.2598 137.376C45.2598 138.409 44.7903 138.972 43.8513 138.972H31.1748C31.1748 140.287 31.6444 141.32 32.6773 142.071C33.7102 142.822 35.0247 143.197 36.8088 143.197C37.8417 143.197 38.7807 143.104 39.5319 142.916C40.2831 142.728 41.0343 142.446 41.7855 141.977C42.0672 141.883 42.1611 141.789 42.3489 141.789C42.5367 141.789 42.7245 141.883 42.8184 142.165L43.9453 144.136C44.0392 144.324 44.133 144.418 44.133 144.606C44.133 144.794 44.0391 144.982 43.7574 145.169C42.7245 145.827 41.6916 146.296 40.377 146.578C39.1563 146.86 37.7479 147.047 36.0577 147.047C33.898 147.141 32.1138 146.86 30.5175 146.108ZM39.6258 135.873C39.6258 134.653 39.2502 133.62 38.5929 132.962C37.9356 132.305 36.8088 131.929 35.4003 131.929C33.9918 131.929 32.865 132.305 32.1138 132.962C31.3626 133.714 30.987 134.653 30.987 135.873H39.6258Z" fill="white"/>
<path d="M47.8887 146.297C47.7009 146.109 47.6069 145.827 47.6069 145.358C47.6069 144.419 47.7009 143.761 47.8887 143.386C48.0765 142.916 48.546 142.353 49.2033 141.695L57.4664 133.338H49.3911C48.8277 133.338 48.3581 133.245 48.0764 132.963C47.7947 132.681 47.7009 132.306 47.7009 131.742V130.334C47.7009 129.77 47.7947 129.395 48.0764 129.113C48.3581 128.831 48.7338 128.737 49.3911 128.737H63.7578C64.2273 128.737 64.509 128.831 64.6968 129.019C64.8846 129.207 64.9784 129.488 64.9784 129.958C64.9784 130.897 64.8846 131.554 64.6029 132.024C64.3212 132.493 63.9456 133.057 63.2883 133.808L55.4007 142.259H63.6639C64.2273 142.259 64.6967 142.353 64.9784 142.634C65.2601 142.916 65.3541 143.292 65.3541 143.855V145.17C65.3541 145.733 65.2601 146.109 64.9784 146.39C64.6967 146.672 64.3212 146.766 63.6639 146.766H48.8277C48.3582 146.578 48.0765 146.484 47.8887 146.297Z" fill="white"/>
<path d="M68.6411 144.982C67.2326 143.48 66.4814 141.414 66.4814 138.691C66.4814 136.625 66.9509 134.747 67.8899 133.151C68.8289 131.554 70.2374 130.334 71.9276 129.488C73.7117 128.643 75.6836 128.174 77.9372 128.174C79.7213 128.174 81.2237 128.362 82.6322 128.737C83.9468 129.113 85.2614 129.676 86.2943 130.427V145.451C86.2943 145.921 86.2004 146.203 86.0126 146.297C85.8248 146.484 85.5431 146.484 85.0736 146.484H82.1627C81.881 146.484 81.6932 146.39 81.5054 146.297C81.4115 146.203 81.2237 146.015 81.2237 145.827L80.8481 144.512C80.0969 145.358 79.1579 146.015 78.125 146.39C77.0921 146.766 75.7775 146.954 74.2751 146.954C72.0215 147.142 70.1435 146.39 68.6411 144.982ZM79.5335 141.977C80.3786 141.32 80.7542 140.475 80.7542 139.442V132.963C80.003 132.587 79.1579 132.399 78.0311 132.399C76.4348 132.399 75.1202 132.963 74.0873 133.996C73.1483 135.122 72.5849 136.625 72.5849 138.503C72.5849 140.005 72.9605 141.132 73.6178 141.789C74.2751 142.541 75.308 142.916 76.6226 142.916C77.7494 142.916 78.6884 142.634 79.5335 141.977Z" fill="white"/>
<path d="M94.276 146.484C92.5858 146.015 91.2712 145.357 90.2383 144.7V122.915C90.2383 122.352 90.3322 121.976 90.6139 121.694C90.8956 121.413 91.2712 121.319 91.9285 121.319H94.6517C95.309 121.319 95.6845 121.413 95.9662 121.694C96.2479 121.976 96.3418 122.352 96.3418 122.915V129.582C96.9052 129.113 97.6564 128.831 98.5954 128.549C99.5344 128.267 100.473 128.174 101.506 128.174C104.417 128.174 106.577 128.925 108.079 130.427C109.582 131.93 110.333 134.089 110.333 136.906C110.333 140.099 109.394 142.634 107.61 144.418C105.826 146.202 103.103 147.141 99.5344 147.141C97.7503 147.141 95.9662 146.954 94.276 146.484ZM103.009 141.413C103.854 140.474 104.229 138.972 104.229 137C104.229 135.404 103.948 134.277 103.29 133.526C102.633 132.775 101.6 132.399 100.192 132.399C99.1588 132.399 98.2199 132.681 97.4687 133.244C96.7175 133.808 96.3418 134.559 96.3418 135.592V142.352C96.7174 142.54 97.093 142.728 97.6564 142.822C98.2198 142.916 98.6893 143.01 99.2527 143.01C100.943 142.916 102.164 142.446 103.009 141.413Z" fill="white"/>
<path d="M114.089 145.451C112.868 144.324 112.211 142.634 112.211 140.38V130.427C112.211 129.863 112.305 129.488 112.586 129.206C112.868 128.924 113.244 128.831 113.901 128.831H116.718C117.375 128.831 117.751 128.924 118.032 129.206C118.314 129.488 118.408 129.863 118.408 130.427V140.193C118.408 141.132 118.69 141.883 119.159 142.352C119.629 142.822 120.38 143.01 121.319 143.01C122.352 143.01 123.197 142.728 123.76 142.164C124.418 141.601 124.699 140.85 124.699 139.911V130.427C124.699 129.863 124.793 129.488 125.075 129.206C125.357 128.924 125.732 128.831 126.39 128.831H129.113C129.77 128.831 130.146 128.924 130.427 129.206C130.709 129.488 130.803 129.863 130.803 130.427V145.639C130.803 146.108 130.709 146.39 130.615 146.484C130.427 146.672 130.146 146.672 129.676 146.672H126.671C126.108 146.672 125.826 146.484 125.732 146.014L125.544 144.606C123.948 146.296 121.695 147.141 118.784 147.141C117 147.141 115.309 146.578 114.089 145.451Z" fill="white"/>
<path d="M133.901 137.564C133.901 135.686 134.277 134.089 134.934 132.587C135.592 131.084 136.718 130.052 138.033 129.3C139.441 128.549 141.038 128.174 142.916 128.174C143.949 128.174 144.982 128.267 145.827 128.549C146.672 128.831 147.329 129.113 147.892 129.582V122.915C147.892 122.352 147.986 121.882 148.268 121.694C148.55 121.413 148.925 121.319 149.583 121.319H152.306C152.869 121.319 153.339 121.413 153.62 121.694C153.902 121.976 153.996 122.352 153.996 122.915V144.606C152.963 145.357 151.649 145.921 150.052 146.39C148.456 146.86 146.672 147.141 144.888 147.141C137.564 147.141 133.901 143.949 133.901 137.564ZM147.986 142.259V135.404C147.986 134.371 147.705 133.62 147.047 133.15C146.39 132.681 145.545 132.399 144.418 132.399C142.916 132.399 141.883 132.869 141.132 133.808C140.381 134.747 140.099 136.061 140.099 137.657C140.099 139.535 140.474 140.85 141.319 141.695C142.165 142.54 143.385 142.916 144.982 142.916C146.202 142.916 147.141 142.728 147.986 142.259Z" fill="white"/>
<path d="M176.626 146.015C176.626 146.202 176.532 146.296 176.438 146.484C176.344 146.578 176.156 146.672 175.969 146.672H171.274C170.992 146.672 170.71 146.672 170.616 146.578C170.522 146.484 170.335 146.39 170.147 146.202L164.231 138.878C164.137 138.784 164.043 138.69 163.949 138.503V144.982C163.949 145.545 163.855 145.921 163.574 146.202C163.292 146.484 162.916 146.578 162.259 146.578H159.442C158.879 146.578 158.409 146.484 158.128 146.202C157.846 145.921 157.752 145.545 157.752 144.982V122.915C157.752 122.352 157.846 121.976 158.128 121.694C158.409 121.413 158.785 121.319 159.442 121.319H162.259C162.916 121.319 163.292 121.413 163.574 121.694C163.855 121.976 163.949 122.352 163.949 122.915V136.155L164.231 135.873L169.959 129.206C170.147 129.019 170.241 128.831 170.428 128.831C170.616 128.737 170.804 128.737 171.18 128.737H175.781C175.969 128.737 176.156 128.831 176.25 128.925C176.344 129.019 176.438 129.206 176.438 129.394C176.438 129.582 176.344 129.864 176.156 129.958L169.302 137.376L176.438 145.357C176.532 145.545 176.626 145.733 176.626 146.015Z" fill="white"/>
<path d="M178.316 144.982C176.908 143.48 176.156 141.414 176.156 138.691C176.156 136.625 176.626 134.747 177.565 133.151C178.504 131.554 179.913 130.334 181.603 129.488C183.387 128.643 185.359 128.174 187.612 128.174C189.396 128.174 190.899 128.362 192.307 128.737C193.622 129.113 194.936 129.676 195.969 130.427V145.451C195.969 145.921 195.876 146.203 195.688 146.297C195.5 146.484 195.218 146.484 194.749 146.484H191.838C191.556 146.484 191.368 146.39 191.18 146.297C191.087 146.203 190.899 146.015 190.899 145.827L190.523 144.512C189.772 145.358 188.833 146.015 187.8 146.39C186.767 146.766 185.453 146.954 183.95 146.954C181.697 147.142 179.819 146.39 178.316 144.982ZM189.209 141.977C190.054 141.32 190.429 140.475 190.429 139.442V132.963C189.678 132.587 188.833 132.399 187.706 132.399C186.11 132.399 184.795 132.963 183.762 133.996C182.823 135.122 182.26 136.625 182.26 138.503C182.26 140.005 182.636 141.132 183.293 141.789C183.95 142.541 184.983 142.916 186.298 142.916C187.425 142.916 188.364 142.634 189.209 141.977Z" fill="white"/>
<path d="M65.636 182.823C65.3543 182.542 65.2604 182.166 65.2604 181.603V169.677H63.758C63.1946 169.677 62.725 169.583 62.5372 169.302C62.3494 169.02 62.1616 168.644 62.1616 168.081V166.954C62.1616 166.391 62.2555 166.015 62.5372 165.734C62.725 165.452 63.1946 165.358 63.758 165.358H65.2604V164.419C65.2604 162.165 65.8238 160.475 67.0445 159.254C68.2652 158.034 70.0492 157.376 72.4906 157.376C74.932 157.376 76.904 157.846 78.3125 158.879C78.5942 159.067 78.6881 159.254 78.6881 159.442C78.6881 159.63 78.5941 159.724 78.5002 160.006L77.3735 161.884C77.1857 162.165 77.0918 162.259 76.8101 162.259C76.7162 162.259 76.5284 162.165 76.3406 162.071C75.4955 161.602 74.7442 161.414 73.8991 161.414C72.9601 161.414 72.3028 161.602 71.9272 162.071C71.5516 162.541 71.3639 163.198 71.3639 164.137V165.264H75.2137C75.7771 165.264 76.2467 165.358 76.4345 165.64C76.6223 165.921 76.8101 166.297 76.8101 166.86V167.987C76.8101 168.551 76.7162 168.926 76.4345 169.208C76.1528 169.49 75.7771 169.583 75.2137 169.583H71.3639V181.509C71.3639 182.072 71.2699 182.448 70.9882 182.729C70.7065 183.011 70.3309 183.105 69.6736 183.105H66.8566C66.2932 183.199 65.9177 183.105 65.636 182.823Z" fill="white"/>
<path d="M79.8153 182.072C78.5946 180.945 77.9373 179.255 77.9373 177.001V167.048C77.9373 166.485 78.0312 166.109 78.3129 165.827C78.5946 165.546 78.9702 165.452 79.6275 165.452H82.4445C83.1018 165.452 83.4773 165.546 83.759 165.827C84.0407 166.109 84.1346 166.485 84.1346 167.048V176.814C84.1346 177.753 84.4164 178.504 84.8859 178.973C85.3554 179.443 86.1065 179.631 87.0455 179.631C88.0784 179.631 88.9236 179.349 89.487 178.785C90.1443 178.222 90.426 177.471 90.426 176.532V167.048C90.426 166.485 90.5198 166.109 90.8015 165.827C91.0832 165.546 91.4588 165.452 92.1161 165.452H94.8393C95.4966 165.452 95.8722 165.546 96.1539 165.827C96.4356 166.109 96.5295 166.485 96.5295 167.048V182.26C96.5295 182.729 96.4355 183.011 96.3416 183.105C96.1538 183.293 95.8721 183.293 95.4026 183.293H92.3979C91.8345 183.293 91.5528 183.105 91.4589 182.635L91.271 181.227C89.6747 182.917 87.4212 183.762 84.5103 183.762C82.7262 183.762 81.1299 183.199 79.8153 182.072Z" fill="white"/>
<path d="M100.849 182.824C100.567 182.542 100.473 182.166 100.473 181.603V166.391C100.473 165.922 100.567 165.64 100.661 165.546C100.848 165.358 101.13 165.358 101.6 165.358H104.605C104.886 165.358 105.168 165.452 105.262 165.546C105.45 165.64 105.544 165.828 105.544 166.109L105.637 167.424C106.389 166.673 107.421 166.015 108.548 165.546C109.675 165.076 111.084 164.889 112.492 164.889C114.558 164.889 116.154 165.452 117.375 166.579C118.596 167.706 119.253 169.302 119.253 171.556V181.791C119.253 182.354 119.159 182.73 118.877 183.011C118.596 183.293 118.22 183.387 117.563 183.387H114.746C114.088 183.387 113.713 183.293 113.431 183.011C113.149 182.73 113.056 182.354 113.056 181.791V171.743C113.056 170.804 112.868 170.053 112.398 169.678C111.929 169.302 111.271 169.02 110.332 169.02C109.3 169.02 108.454 169.302 107.703 169.865C106.952 170.429 106.576 171.18 106.576 172.025V181.603C106.576 182.166 106.482 182.542 106.201 182.824C105.919 183.105 105.543 183.199 104.886 183.199H102.163C101.506 183.199 101.13 183.105 100.849 182.824Z" fill="white"/>
</svg>
