<svg width="430" height="144" viewBox="0 0 430 144" fill="none" xmlns="http://www.w3.org/2000/svg">
<path d="M44.4 39.2666C44.4 39.2666 46.4667 91.5999 0 91.5999C0 91.5999 53.2667 110.533 55.4667 136.2C55.4667 136.2 53.8667 89.5999 94.4 84.0666C94.4 83.9999 51.8 68.7333 44.4 39.2666Z" fill="black"/>
<path d="M164.333 18.6C164.333 18.6 138.467 27.3333 129.733 0C129.733 0 136.933 31.6667 122.267 37.7333C122.267 37.7333 144 30.3333 154.867 53.2C154.867 53.1333 148.4 28.4666 164.333 18.6Z" fill="black"/>
<path d="M135.067 52.6001C135.067 52.6001 150.734 76.4001 136.934 97.2668C136.934 97.2668 160.467 77.4001 177.734 97.2001C177.734 97.2001 163.667 73.0001 183.2 54.4668C183.2 54.5335 158.8 70.9334 135.067 52.6001Z" fill="black"/>
<path d="M97.3331 128.667C88.3998 128.667 67.1998 127.667 63.2664 118.467C59.1998 109.067 62.5331 71.1333 66.6664 56.6C68.1998 51.2 69.5331 46.8 70.7998 43.8C71.5998 41.9333 73.7331 37 78.7331 37C81.7331 37 84.0664 38.9333 85.5331 40.4C88.5998 43.4 90.9331 45.7333 92.3998 47.2C93.3998 47.1333 94.6664 47 96.1998 47C96.5331 47 96.9331 47 97.3331 47C97.7331 47 98.1331 47 98.4664 47C99.9998 47 101.266 47.0667 102.266 47.2C103.733 45.7333 106 43.4 109.133 40.4C110.6 38.9333 112.933 37 115.933 37C120.933 37 123.066 41.9333 123.866 43.8C125.2 46.8 126.466 51.2 128 56.6C132.2 71.1333 135.466 109.067 131.4 118.467C127.466 127.667 106.266 128.667 97.3331 128.667Z" fill="white"/>
<path d="M123.6 57.8666C119.333 42.9333 117.733 38.4666 112.4 43.6666C107.067 48.8666 104 52.0666 104 52.0666C104 52.0666 102 51.5332 97.4001 51.5999C92.8001 51.4666 90.8001 52.0666 90.8001 52.0666C90.8001 52.0666 87.7334 48.8666 82.4001 43.6666C77.0668 38.4666 75.4668 42.9999 71.2001 57.8666C66.9335 72.7999 64.4001 109.2 67.6001 116.667C69.7334 121.667 83.8668 124.067 97.4001 124.067C110.933 124.067 125.067 121.733 127.2 116.667C130.4 109.133 127.867 72.7333 123.6 57.8666Z" fill="black"/>
<path d="M77.7998 125.467C77.7998 125.467 94.1998 135.467 129.266 124.333C155.866 115.867 153.8 95.6667 166.2 100.067C183.266 106.133 158.933 134.2 125.333 136.133C89.0665 138.2 77.7998 125.467 77.7998 125.467Z" fill="black"/>
<path d="M186.867 112C185.267 111.334 184 110.267 183.067 108.934C182.134 107.534 181.667 105.867 181.667 103.867C181.667 100.734 182.534 98.2669 184.267 96.6669C186 95.0002 188.467 94.2002 191.734 94.2002C194.934 94.2002 197.334 95.0002 199 96.6002C200.667 98.2002 201.467 100.467 201.467 103.467C201.467 104.534 201 105 200.067 105H187.467C187.467 106.334 188 107.334 188.934 108.067C189.934 108.8 191.334 109.134 193.067 109.134C194.134 109.134 195 109 195.8 108.8C196.534 108.6 197.334 108.267 198 107.867C198.267 107.734 198.4 107.667 198.534 107.667C198.734 107.667 198.867 107.8 199 108.067L200.067 110.067C200.134 110.267 200.2 110.4 200.2 110.534C200.2 110.734 200.067 110.934 199.8 111.134C198.8 111.8 197.734 112.267 196.467 112.534C195.2 112.8 193.8 113 192.2 113C190.267 113 188.467 112.667 186.867 112ZM196 101.8C196 100.534 195.667 99.6002 194.934 98.9335C194.267 98.2668 193.2 97.8669 191.8 97.8669C190.4 97.8669 189.334 98.2002 188.6 98.9335C187.867 99.6668 187.467 100.6 187.467 101.8H196Z" fill="black"/>
<path d="M204.134 112.2C203.934 112 203.867 111.667 203.867 111.267C203.867 110.4 204.001 109.733 204.201 109.267C204.401 108.8 204.867 108.267 205.534 107.533L213.734 99.2001H205.667C205.067 99.2001 204.667 99.0668 204.401 98.8001C204.134 98.5335 204.001 98.1334 204.001 97.6001V96.2001C204.001 95.6668 204.134 95.2668 204.401 95.0001C204.667 94.7335 205.067 94.6001 205.667 94.6001H219.934C220.401 94.6001 220.734 94.6668 220.867 94.8668C221.067 95.0001 221.134 95.3335 221.134 95.8001C221.134 96.6668 221 97.3335 220.8 97.8001C220.6 98.2668 220.134 98.8668 219.534 99.5334L211.734 107.933H219.934C220.534 107.933 220.934 108.067 221.201 108.333C221.467 108.6 221.601 109 221.601 109.533V110.867C221.601 111.4 221.467 111.8 221.201 112.067C220.934 112.333 220.534 112.467 219.934 112.467H205.134C204.667 112.467 204.334 112.4 204.134 112.2Z" fill="black"/>
<path d="M224.867 110.8C223.467 109.334 222.734 107.2 222.734 104.534C222.734 102.467 223.201 100.667 224.201 99.0671C225.134 97.4671 226.534 96.2671 228.267 95.4004C230.001 94.5338 232.001 94.1338 234.267 94.1338C236.001 94.1338 237.601 94.3338 238.934 94.7338C240.267 95.1338 241.534 95.6671 242.601 96.4671V111.4C242.601 111.8 242.534 112.134 242.334 112.267C242.201 112.4 241.867 112.467 241.401 112.467H238.467C238.201 112.467 238.001 112.4 237.867 112.334C237.734 112.267 237.601 112.067 237.534 111.867L237.134 110.6C236.401 111.467 235.467 112.067 234.401 112.467C233.334 112.867 232.067 113.067 230.534 113.067C228.201 113 226.267 112.267 224.867 110.8ZM235.667 107.867C236.467 107.267 236.867 106.4 236.867 105.334V98.8671C236.134 98.4671 235.267 98.3338 234.201 98.3338C232.601 98.3338 231.267 98.8671 230.267 99.9338C229.267 101 228.801 102.534 228.801 104.467C228.801 105.934 229.134 107.067 229.801 107.734C230.467 108.4 231.467 108.8 232.801 108.8C233.867 108.8 234.801 108.534 235.667 107.867Z" fill="black"/>
<path d="M250.333 112.333C248.667 111.867 247.333 111.267 246.333 110.533V88.9335C246.333 88.4001 246.467 88.0001 246.733 87.7335C247 87.4668 247.4 87.3335 248 87.3335H250.667C251.267 87.3335 251.733 87.4668 251.933 87.7335C252.133 88.0001 252.333 88.4002 252.333 89.0002V95.6001C252.933 95.1335 253.667 94.8001 254.533 94.6001C255.467 94.3335 256.4 94.2668 257.4 94.2668C260.267 94.2668 262.467 95.0002 264 96.5335C265.533 98.0668 266.267 100.2 266.267 103C266.267 106.2 265.333 108.734 263.533 110.467C261.733 112.267 259.067 113.134 255.533 113.134C253.733 113 252 112.8 250.333 112.333ZM258.933 107.333C259.733 106.333 260.133 104.867 260.133 102.933C260.133 101.333 259.8 100.2 259.2 99.4668C258.6 98.7335 257.533 98.3335 256.133 98.3335C255.067 98.3335 254.2 98.6002 253.467 99.1335C252.733 99.6668 252.333 100.467 252.333 101.467V108.2C252.667 108.4 253.133 108.533 253.6 108.667C254.133 108.8 254.667 108.8 255.2 108.8C256.867 108.8 258.133 108.333 258.933 107.333Z" fill="black"/>
<path d="M270 111.333C268.8 110.2 268.134 108.533 268.134 106.267V96.3334C268.134 95.8001 268.267 95.4001 268.534 95.1334C268.8 94.8668 269.2 94.7334 269.8 94.7334H272.6C273.2 94.7334 273.667 94.8668 273.867 95.1334C274.134 95.4001 274.267 95.8001 274.267 96.4001V106.133C274.267 107.067 274.534 107.8 275 108.267C275.467 108.733 276.2 108.933 277.134 108.933C278.134 108.933 278.934 108.667 279.6 108.133C280.2 107.6 280.534 106.867 280.534 105.933V96.4668C280.534 95.9334 280.667 95.5334 280.934 95.2667C281.2 95.0001 281.6 94.8667 282.267 94.8667H285C285.6 94.8667 286.067 95.0001 286.334 95.2667C286.6 95.5334 286.734 95.9334 286.734 96.4668V111.533C286.734 111.933 286.667 112.267 286.534 112.4C286.4 112.533 286.067 112.6 285.667 112.6H282.734C282.134 112.6 281.867 112.4 281.867 112L281.734 110.6C280.134 112.333 277.867 113.133 275 113.133C272.867 113 271.2 112.467 270 111.333Z" fill="black"/>
<path d="M289.734 103.534C289.734 101.667 290.067 100.067 290.801 98.6002C291.534 97.2002 292.534 96.0669 293.867 95.3335C295.201 94.5335 296.867 94.1335 298.734 94.1335C299.801 94.1335 300.734 94.2669 301.601 94.4669C302.467 94.7335 303.134 95.0669 303.667 95.4669V88.8669C303.667 88.2669 303.801 87.8668 304.067 87.6002C304.334 87.3335 304.734 87.2002 305.334 87.2002H308.001C308.601 87.2002 309.001 87.3335 309.267 87.6002C309.534 87.8668 309.667 88.2669 309.667 88.8002V110.534C308.667 111.267 307.334 111.867 305.734 112.334C304.134 112.8 302.401 113.067 300.601 113.067C293.334 113 289.734 109.867 289.734 103.534ZM303.667 108.2V101.4C303.667 100.4 303.334 99.6002 302.734 99.1335C302.067 98.6002 301.201 98.4002 300.134 98.4002C298.667 98.4002 297.601 98.8669 296.867 99.8002C296.134 100.734 295.801 102 295.801 103.667C295.801 105.534 296.201 106.867 297.001 107.667C297.801 108.467 299.067 108.867 300.667 108.867C301.867 108.8 302.867 108.6 303.667 108.2Z" fill="black"/>
<path d="M332.133 111.867C332.133 112.067 332.067 112.2 332 112.333C331.867 112.467 331.733 112.533 331.467 112.533H326.867C326.6 112.533 326.333 112.533 326.2 112.467C326.067 112.4 325.867 112.267 325.733 112.133L319.867 104.867C319.8 104.8 319.733 104.667 319.6 104.533V111C319.6 111.533 319.467 111.933 319.2 112.2C318.933 112.467 318.533 112.6 317.933 112.6H315.133C314.533 112.6 314.133 112.467 313.867 112.2C313.6 111.933 313.467 111.533 313.467 111V89.0668C313.467 88.5334 313.6 88.1334 313.867 87.8668C314.133 87.6001 314.533 87.4668 315.133 87.4668H317.933C318.533 87.4668 319 87.6001 319.2 87.8668C319.467 88.1334 319.6 88.5335 319.6 89.1335V102.333L319.867 102.067L325.6 95.4668C325.733 95.2668 325.933 95.1334 326.067 95.0668C326.2 95.0001 326.467 95.0001 326.8 95.0001H331.4C331.6 95.0001 331.733 95.0668 331.867 95.2001C332 95.3334 332.067 95.4668 332.067 95.6668C332.067 95.8668 332 96.0668 331.8 96.2668L324.933 103.667L332 111.6C332.067 111.4 332.133 111.6 332.133 111.867Z" fill="black"/>
<path d="M333.867 110.8C332.467 109.334 331.734 107.2 331.734 104.534C331.734 102.467 332.201 100.667 333.201 99.0671C334.134 97.4671 335.534 96.2671 337.267 95.4004C339.001 94.5338 341.001 94.1338 343.267 94.1338C345.001 94.1338 346.601 94.3338 347.934 94.7338C349.267 95.1338 350.534 95.6671 351.601 96.4671V111.4C351.601 111.8 351.534 112.134 351.334 112.267C351.201 112.4 350.867 112.467 350.401 112.467H347.401C347.134 112.467 346.934 112.4 346.801 112.334C346.667 112.267 346.534 112.067 346.467 111.867L346.067 110.534C345.334 111.4 344.401 112 343.334 112.4C342.267 112.8 341.001 113 339.467 113C337.201 113 335.267 112.267 333.867 110.8ZM344.601 107.867C345.401 107.267 345.801 106.4 345.801 105.334V98.8671C345.067 98.4671 344.201 98.3338 343.134 98.3338C341.534 98.3338 340.201 98.8671 339.201 99.9338C338.201 101 337.734 102.534 337.734 104.467C337.734 105.934 338.067 107.067 338.734 107.734C339.401 108.4 340.401 108.8 341.734 108.8C342.867 108.8 343.801 108.534 344.601 107.867Z" fill="black"/>
<path d="M354.867 103.267C354.667 103 354.6 102.667 354.6 102.2V100.534C354.6 100.067 354.667 99.6671 354.867 99.4671C355.067 99.2005 355.467 99.1338 356 99.1338H368.267C368.8 99.1338 369.133 99.2671 369.333 99.4671C369.533 99.7338 369.667 100.067 369.667 100.534V102.134C369.667 102.6 369.533 103 369.333 103.2C369.133 103.467 368.733 103.534 368.267 103.534H356C355.467 103.6 355.067 103.467 354.867 103.267Z" fill="black"/>
<path d="M374.667 112.067C374.4 111.8 374.267 111.4 374.267 110.867V99.0003H372.8C372.2 99.0003 371.8 98.8669 371.6 98.6003C371.4 98.3336 371.267 97.9336 371.267 97.4003V96.2669C371.267 95.6669 371.4 95.2669 371.6 95.0669C371.8 94.8003 372.2 94.7336 372.8 94.7336H374.267V93.8003C374.267 91.6003 374.867 89.867 376.067 88.667C377.267 87.467 379.067 86.8003 381.467 86.8003C383.934 86.8003 385.8 87.3336 387.2 88.3336C387.467 88.5336 387.6 88.7336 387.6 88.9336C387.6 89.0669 387.534 89.267 387.4 89.467L386.267 91.3336C386.134 91.6003 385.934 91.7336 385.734 91.7336C385.6 91.7336 385.467 91.6669 385.267 91.6003C384.467 91.1336 383.667 90.9336 382.8 90.9336C381.867 90.9336 381.267 91.1336 380.867 91.6003C380.467 92.0669 380.267 92.7336 380.267 93.667V94.8003H384.134C384.734 94.8003 385.134 94.9336 385.334 95.1336C385.534 95.4003 385.667 95.8003 385.667 96.3336V97.467C385.667 98.067 385.534 98.467 385.334 98.667C385.134 98.9336 384.734 99.0669 384.134 99.0669H380.267V110.934C380.267 111.467 380.134 111.867 379.867 112.134C379.6 112.4 379.2 112.534 378.6 112.534H375.8C375.334 112.467 374.934 112.334 374.667 112.067Z" fill="black"/>
<path d="M388.8 111.333C387.6 110.2 386.934 108.533 386.934 106.267V96.3334C386.934 95.8001 387.067 95.4001 387.334 95.1334C387.6 94.8668 388 94.7334 388.6 94.7334H391.4C392 94.7334 392.467 94.8668 392.667 95.1334C392.934 95.4001 393.067 95.8001 393.067 96.4001V106.133C393.067 107.067 393.334 107.8 393.8 108.267C394.267 108.733 395 108.933 395.934 108.933C396.934 108.933 397.734 108.667 398.4 108.133C399 107.6 399.334 106.867 399.334 105.933V96.4668C399.334 95.9334 399.467 95.5334 399.734 95.2667C400 95.0001 400.4 94.8667 401.067 94.8667H403.8C404.4 94.8667 404.867 95.0001 405.134 95.2667C405.4 95.5334 405.534 95.9334 405.534 96.4668V111.533C405.534 111.933 405.467 112.267 405.334 112.4C405.2 112.533 404.867 112.6 404.467 112.6H401.4C400.8 112.6 400.534 112.4 400.534 112L400.4 110.6C398.8 112.333 396.534 113.133 393.667 113.133C391.667 113 390.067 112.467 388.8 111.333Z" fill="black"/>
<path d="M409.667 112.067C409.4 111.8 409.267 111.4 409.267 110.867V95.7336C409.267 95.3336 409.334 95.0002 409.467 94.8669C409.6 94.7336 409.934 94.6669 410.334 94.6669H413.267C413.534 94.6669 413.8 94.7336 413.934 94.8003C414.067 94.8669 414.2 95.0669 414.2 95.3336L414.334 96.6002C415.067 95.8002 416.067 95.2002 417.2 94.7336C418.334 94.2669 419.667 94.0669 421.134 94.0669C423.134 94.0669 424.8 94.6002 426 95.7336C427.2 96.8002 427.8 98.4669 427.8 100.667V110.867C427.8 111.4 427.667 111.8 427.4 112.067C427.134 112.334 426.734 112.467 426.134 112.467H423.334C422.734 112.467 422.267 112.334 422 112.067C421.734 111.8 421.6 111.4 421.6 110.867V101.067C421.6 100.134 421.4 99.4002 421 99.0002C420.6 98.6002 419.867 98.4002 418.934 98.4002C417.867 98.4002 417 98.6669 416.334 99.2002C415.667 99.7336 415.267 100.467 415.267 101.334V110.867C415.267 111.4 415.134 111.8 414.867 112.067C414.6 112.334 414.2 112.467 413.6 112.467H410.867C410.334 112.467 409.934 112.334 409.667 112.067Z" fill="black"/>
<path d="M175.734 143.6C175.267 143.6 175.067 143.4 175.067 142.934V140.2C175.067 139.734 175.334 139.467 175.8 139.467H176.267C176.867 138.667 177.334 137.667 177.667 136.334C177.934 135 178.134 133.334 178.134 131.4V128.934C178.134 128.4 178.4 128.134 178.934 128.134H185.667C186.2 128.134 186.467 128.4 186.467 128.934V139.534H187.534C188.067 139.534 188.267 139.8 188.267 140.267V143C188.267 143.467 188.067 143.667 187.6 143.667C187.134 143.667 186.934 143.467 186.934 143V140.734H176.4V143C176.4 143.4 176.2 143.6 175.734 143.6ZM177.867 139.467H185.067V129.334H179.534V131.467C179.534 133.4 179.4 135 179.134 136.267C178.867 137.534 178.4 138.6 177.867 139.467Z" fill="black"/>
<path d="M192.867 140.867C192.267 140.867 191.733 140.734 191.267 140.534C190.8 140.334 190.4 140 190.133 139.6C189.867 139.2 189.733 138.734 189.733 138.267C189.733 137.667 189.867 137.134 190.2 136.734C190.533 136.334 191.067 136.067 191.8 135.934C192.533 135.8 193.6 135.667 194.933 135.667H195.533V135.134C195.533 134.4 195.4 133.867 195.067 133.534C194.733 133.2 194.267 133.067 193.6 133.067C193.2 133.067 192.733 133.134 192.333 133.2C191.933 133.334 191.467 133.467 191 133.734C190.8 133.867 190.6 133.867 190.467 133.8C190.333 133.734 190.267 133.6 190.2 133.467C190.133 133.334 190.133 133.134 190.2 133C190.267 132.867 190.4 132.734 190.533 132.6C191.067 132.334 191.533 132.134 192.067 132C192.6 131.867 193.067 131.8 193.533 131.8C194.667 131.8 195.467 132.067 196 132.6C196.533 133.134 196.8 134 196.8 135.134V140C196.8 140.534 196.6 140.734 196.133 140.734C195.667 140.734 195.467 140.467 195.467 140V139.2C195.267 139.734 194.867 140.134 194.4 140.4C194.067 140.667 193.533 140.867 192.867 140.867ZM193.133 139.734C193.867 139.734 194.467 139.467 194.867 139C195.267 138.534 195.533 137.867 195.533 137.134V136.6H195C194.067 136.6 193.267 136.667 192.733 136.734C192.2 136.8 191.8 137 191.6 137.2C191.4 137.4 191.267 137.734 191.267 138.134C191.267 138.6 191.467 139 191.8 139.334C192.133 139.667 192.533 139.734 193.133 139.734Z" fill="black"/>
<path d="M200.467 144C200 144 199.733 143.734 199.733 143.267V132.6C199.733 132.134 199.933 131.867 200.4 131.867C200.867 131.867 201.133 132.134 201.133 132.6V133.534C201.4 133 201.8 132.6 202.267 132.267C202.733 131.934 203.4 131.8 204.067 131.8C204.867 131.8 205.533 132 206.067 132.334C206.667 132.667 207.067 133.2 207.4 133.867C207.733 134.534 207.867 135.334 207.867 136.267C207.867 137.2 207.733 138 207.4 138.667C207.067 139.334 206.667 139.867 206.067 140.2C205.467 140.6 204.8 140.734 204.067 140.734C203.4 140.734 202.8 140.6 202.267 140.267C201.733 139.934 201.333 139.534 201.133 139V143.134C201.2 143.8 201 144 200.467 144ZM203.867 139.667C204.667 139.667 205.333 139.4 205.8 138.8C206.267 138.2 206.533 137.4 206.533 136.334C206.533 135.267 206.267 134.4 205.8 133.867C205.333 133.334 204.667 133 203.867 133C203.067 133 202.4 133.267 201.933 133.867C201.467 134.467 201.2 135.267 201.2 136.334C201.2 137.4 201.467 138.2 201.933 138.8C202.4 139.4 203.067 139.667 203.867 139.667Z" fill="black"/>
<path d="M211 140.8C210.533 140.8 210.333 140.534 210.333 140V132.534C210.333 132.067 210.533 131.8 211 131.8C211.467 131.8 211.667 132.067 211.667 132.534V138.667L216.4 132.267C216.467 132.134 216.6 132 216.733 131.934C216.867 131.867 217 131.8 217.267 131.8C217.733 131.8 217.933 132.067 217.933 132.6V140.067C217.933 140.534 217.733 140.8 217.267 140.8C216.8 140.8 216.6 140.534 216.6 140.067V133.934L211.8 140.334C211.733 140.467 211.6 140.534 211.467 140.667C211.4 140.734 211.267 140.8 211 140.8Z" fill="black"/>
<path d="M221.467 140.8C221.067 140.8 220.8 140.6 220.8 140.133V132.667C220.8 132.133 221 131.867 221.467 131.867C221.667 131.867 221.867 131.933 221.934 132C222.067 132.067 222.134 132.2 222.2 132.4L225.267 137.8L228.334 132.4C228.4 132.267 228.534 132.133 228.6 132C228.734 131.933 228.867 131.867 229.067 131.867C229.467 131.867 229.734 132.133 229.734 132.667V140.133C229.734 140.6 229.534 140.8 229.067 140.8C228.667 140.8 228.4 140.6 228.4 140.133V134.4L225.734 139.067C225.667 139.133 225.6 139.267 225.534 139.333C225.467 139.4 225.334 139.4 225.2 139.4C225.067 139.4 224.934 139.4 224.867 139.333C224.8 139.267 224.734 139.2 224.667 139.067L222 134.4V140.133C222.067 140.6 221.867 140.8 221.467 140.8Z" fill="black"/>
<path d="M237.934 140.8C237.467 140.8 237.2 140.533 237.2 140.067V132.6C237.2 132.133 237.467 131.867 237.934 131.867C238.4 131.867 238.667 132.133 238.667 132.6V135.6H243.4V132.6C243.4 132.133 243.667 131.867 244.134 131.867C244.6 131.867 244.867 132.133 244.867 132.6V140.067C244.867 140.6 244.6 140.8 244.134 140.8C243.667 140.8 243.4 140.533 243.4 140.067V136.8H238.667V140.067C238.667 140.533 238.4 140.8 237.934 140.8Z" fill="black"/>
<path d="M251.667 140.867C250.267 140.867 249.2 140.467 248.4 139.667C247.6 138.867 247.2 137.8 247.2 136.4C247.2 135.533 247.4 134.733 247.734 134C248.067 133.333 248.6 132.8 249.2 132.4C249.8 132 250.534 131.867 251.4 131.867C252.6 131.867 253.534 132.267 254.2 133C254.867 133.733 255.2 134.8 255.2 136.133C255.2 136.533 255 136.667 254.6 136.667H248.667C248.734 137.667 249 138.4 249.534 138.933C250.067 139.467 250.8 139.733 251.734 139.733C252.134 139.733 252.534 139.667 252.934 139.6C253.334 139.467 253.734 139.333 254.134 139.067C254.4 138.867 254.667 138.867 254.8 138.933C254.934 139 255.067 139.2 255.067 139.4C255.067 139.6 254.934 139.8 254.734 140C254.334 140.267 253.867 140.533 253.334 140.667C252.667 140.733 252.134 140.867 251.667 140.867ZM251.4 132.867C250.6 132.867 249.934 133.133 249.467 133.667C249 134.2 248.734 134.867 248.6 135.667H253.867C253.8 134.8 253.6 134.067 253.2 133.6C252.8 133.133 252.2 132.867 251.4 132.867Z" fill="black"/>
<path d="M260.267 140.867C259.667 140.867 259.067 140.8 258.467 140.667C257.867 140.533 257.4 140.333 256.933 140.067C256.667 139.933 256.6 139.733 256.533 139.533C256.467 139.333 256.6 139.133 256.8 139C257 138.867 257.2 138.867 257.467 139.067C257.867 139.333 258.267 139.467 258.733 139.6C259.2 139.733 259.667 139.8 260.2 139.8C261.067 139.8 261.667 139.667 262.067 139.4C262.467 139.133 262.6 138.8 262.6 138.333C262.6 137.867 262.467 137.533 262.133 137.267C261.8 137 261.4 136.933 260.8 136.933H259.267C258.867 136.933 258.667 136.733 258.667 136.4C258.667 136.067 258.867 135.867 259.267 135.867H260.667C261.2 135.867 261.6 135.733 261.867 135.533C262.133 135.333 262.333 135 262.333 134.533C262.333 134.067 262.2 133.733 261.867 133.467C261.533 133.2 261 133.067 260.267 133.067C259.8 133.067 259.333 133.133 258.933 133.2C258.533 133.267 258.133 133.467 257.733 133.667C257.467 133.8 257.2 133.867 257.067 133.733C256.867 133.6 256.8 133.467 256.8 133.2C256.8 133 256.933 132.8 257.133 132.667C258.067 132.133 259.133 131.867 260.467 131.867C261.6 131.867 262.4 132.067 262.933 132.533C263.467 132.933 263.733 133.533 263.733 134.333C263.733 134.8 263.6 135.133 263.333 135.533C263.067 135.867 262.733 136.133 262.267 136.267C262.8 136.4 263.2 136.667 263.533 137C263.867 137.333 264 137.8 264 138.333C264 139.133 263.667 139.733 263.067 140.2C262.467 140.6 261.533 140.867 260.267 140.867Z" fill="black"/>
<path d="M269.067 140.867C268.467 140.867 267.934 140.734 267.467 140.534C267 140.334 266.6 140 266.334 139.6C266.067 139.2 265.934 138.734 265.934 138.267C265.934 137.667 266.067 137.134 266.4 136.734C266.734 136.334 267.267 136.067 268 135.934C268.734 135.8 269.8 135.667 271.134 135.667H271.734V135.134C271.734 134.4 271.6 133.867 271.267 133.534C270.934 133.2 270.467 133.067 269.8 133.067C269.4 133.067 268.934 133.134 268.534 133.2C268.134 133.334 267.667 133.467 267.2 133.734C267 133.867 266.8 133.867 266.667 133.8C266.534 133.734 266.467 133.6 266.4 133.467C266.334 133.334 266.334 133.134 266.4 133C266.467 132.867 266.6 132.734 266.734 132.6C267.267 132.334 267.734 132.134 268.267 132C268.8 131.867 269.267 131.8 269.734 131.8C270.867 131.8 271.667 132.067 272.2 132.6C272.734 133.134 273 134 273 135.134V140C273 140.534 272.8 140.734 272.334 140.734C271.867 140.734 271.667 140.467 271.667 140V139.2C271.467 139.734 271.067 140.134 270.6 140.4C270.267 140.667 269.667 140.867 269.067 140.867ZM269.267 139.734C270 139.734 270.6 139.467 271 139C271.4 138.534 271.667 137.867 271.667 137.134V136.6H271.134C270.2 136.6 269.4 136.667 268.867 136.734C268.334 136.8 267.934 137 267.734 137.2C267.534 137.4 267.4 137.734 267.4 138.134C267.4 138.6 267.6 139 267.934 139.334C268.267 139.667 268.734 139.734 269.267 139.734Z" fill="black"/>
<path d="M279.6 140.867C278.334 140.867 277.267 140.467 276.534 139.6C275.8 138.734 275.4 137.534 275.4 135.934V134.6C275.4 132.867 275.734 131.534 276.467 130.667C277.134 129.734 278.2 129.134 279.6 128.734L282.2 128C282.667 127.867 282.934 128 283 128.4C283.134 128.8 282.934 129.067 282.467 129.2L279.667 129.934C278.734 130.2 278 130.667 277.467 131.334C276.934 132 276.734 132.8 276.734 133.8V133.867C277 133.267 277.4 132.8 277.934 132.467C278.467 132.134 279.134 131.934 279.8 131.934C280.534 131.934 281.2 132.134 281.8 132.467C282.4 132.8 282.8 133.334 283.134 134C283.467 134.667 283.6 135.467 283.6 136.334C283.6 137.267 283.4 138 283.067 138.734C282.734 139.4 282.267 139.934 281.667 140.267C281.2 140.667 280.467 140.867 279.6 140.867ZM279.534 139.667C280.4 139.667 281.067 139.4 281.534 138.8C282 138.267 282.267 137.4 282.267 136.334C282.267 135.267 282 134.467 281.534 133.934C281.067 133.334 280.4 133.067 279.534 133.067C278.667 133.067 278.067 133.334 277.534 133.934C277 134.534 276.8 135.267 276.8 136.267C276.8 137.4 277 138.267 277.467 138.8C278.067 139.4 278.734 139.667 279.534 139.667Z" fill="black"/>
<path d="M286.8 140.667C286.267 140.667 286.067 140.4 286.067 139.933V132.6C286.067 132.133 286.334 131.867 286.8 131.867C287.267 131.867 287.534 132.133 287.534 132.6V135.067H290.134C291.267 135.067 292.067 135.333 292.667 135.8C293.267 136.267 293.534 136.933 293.534 137.867C293.534 138.733 293.267 139.4 292.667 139.933C292.067 140.467 291.267 140.667 290.2 140.667H286.8ZM287.534 139.667H290C290.667 139.667 291.2 139.533 291.534 139.267C291.934 139 292.067 138.533 292.067 137.933C292.067 137.333 291.867 136.867 291.534 136.6C291.134 136.333 290.667 136.2 289.934 136.2H287.467V139.667H287.534ZM295.534 140.8C295.067 140.8 294.8 140.533 294.8 140.067V132.6C294.8 132.133 295.067 131.867 295.534 131.867C296 131.867 296.267 132.133 296.267 132.6V140.067C296.267 140.533 296 140.8 295.534 140.8Z" fill="black"/>
<path d="M299.867 140.667C299.334 140.667 299.134 140.4 299.134 139.933V132.733C299.134 132.2 299.4 132 299.867 132H303.334C304.334 132 305.134 132.2 305.6 132.6C306.067 133 306.334 133.533 306.334 134.333C306.334 134.8 306.2 135.2 305.934 135.533C305.667 135.867 305.334 136.133 304.867 136.267C305.4 136.4 305.8 136.667 306.134 137C306.467 137.4 306.6 137.8 306.6 138.333C306.6 139.067 306.334 139.667 305.8 140.067C305.267 140.467 304.467 140.733 303.467 140.733H299.867V140.667ZM300.534 135.733H303.334C303.867 135.733 304.334 135.6 304.6 135.4C304.867 135.133 305.067 134.8 305.067 134.333C305.067 133.867 304.934 133.533 304.6 133.333C304.334 133.067 303.867 133 303.334 133H300.534V135.733ZM300.534 139.667H303.467C304.067 139.667 304.534 139.533 304.8 139.267C305.134 139 305.267 138.667 305.267 138.133C305.267 137.667 305.134 137.267 304.8 137.067C304.467 136.867 304.067 136.667 303.467 136.667H300.534V139.667Z" fill="black"/>
<path d="M311.667 140.867C311.067 140.867 310.534 140.734 310.067 140.534C309.6 140.334 309.2 140 308.934 139.6C308.667 139.2 308.534 138.734 308.534 138.267C308.534 137.667 308.667 137.134 309 136.734C309.334 136.334 309.867 136.067 310.6 135.934C311.334 135.8 312.4 135.667 313.734 135.667H314.334V135.134C314.334 134.4 314.2 133.867 313.867 133.534C313.534 133.2 313.067 133.067 312.4 133.067C312 133.067 311.534 133.134 311.134 133.2C310.734 133.334 310.267 133.467 309.8 133.734C309.6 133.867 309.4 133.867 309.267 133.8C309.134 133.734 309.067 133.6 309 133.467C308.934 133.334 308.934 133.134 309 133C309.067 132.867 309.2 132.734 309.334 132.6C309.867 132.334 310.334 132.134 310.867 132C311.4 131.867 311.867 131.8 312.334 131.8C313.467 131.8 314.267 132.067 314.8 132.6C315.334 133.134 315.6 134 315.6 135.134V140C315.6 140.534 315.4 140.734 314.934 140.734C314.467 140.734 314.267 140.467 314.267 140V139.2C314.067 139.734 313.667 140.134 313.2 140.4C312.867 140.667 312.267 140.867 311.667 140.867ZM311.867 139.734C312.6 139.734 313.2 139.467 313.6 139C314 138.534 314.267 137.867 314.267 137.134V136.6H313.734C312.8 136.6 312 136.667 311.467 136.734C310.934 136.8 310.534 137 310.334 137.2C310.134 137.4 310 137.734 310 138.134C310 138.6 310.2 139 310.534 139.334C310.867 139.667 311.334 139.734 311.867 139.734Z" fill="black"/>
<path d="M322.467 140.867C321.067 140.867 320 140.467 319.2 139.667C318.4 138.867 318 137.8 318 136.4C318 135.533 318.2 134.733 318.533 134C318.867 133.333 319.4 132.8 320 132.4C320.6 132 321.333 131.867 322.2 131.867C323.4 131.867 324.333 132.267 325 133C325.667 133.733 326 134.8 326 136.133C326 136.533 325.8 136.667 325.4 136.667H319.467C319.533 137.667 319.8 138.4 320.333 138.933C320.867 139.467 321.6 139.733 322.533 139.733C322.933 139.733 323.333 139.667 323.733 139.6C324.133 139.467 324.533 139.333 324.933 139.067C325.2 138.867 325.467 138.867 325.6 138.933C325.733 139 325.867 139.2 325.867 139.4C325.867 139.6 325.733 139.8 325.533 140C325.133 140.267 324.667 140.533 324.133 140.667C323.533 140.733 323 140.867 322.467 140.867ZM322.267 132.867C321.467 132.867 320.8 133.133 320.333 133.667C319.867 134.2 319.6 134.867 319.467 135.667H324.733C324.667 134.8 324.467 134.067 324.067 133.6C323.6 133.133 323 132.867 322.267 132.867Z" fill="black"/>
<path d="M328.867 140.8C328.467 140.8 328.2 140.6 328.2 140.133V132.667C328.2 132.133 328.4 131.867 328.867 131.867C329.067 131.867 329.267 131.933 329.334 132C329.467 132.067 329.534 132.2 329.6 132.4L332.667 137.8L335.734 132.4C335.8 132.267 335.934 132.133 336 132C336.134 131.933 336.267 131.867 336.467 131.867C336.867 131.867 337.134 132.133 337.134 132.667V140.133C337.134 140.6 336.934 140.8 336.467 140.8C336.067 140.8 335.8 140.6 335.8 140.133V134.4L333.134 139.067C333.067 139.133 333 139.267 332.934 139.333C332.867 139.4 332.734 139.4 332.6 139.4C332.467 139.4 332.334 139.4 332.267 139.333C332.2 139.267 332.134 139.2 332.067 139.067L329.4 134.4V140.133C329.534 140.6 329.334 140.8 328.867 140.8Z" fill="black"/>
<path d="M343.667 140.867C342.8 140.867 342.067 140.667 341.467 140.333C340.867 139.933 340.333 139.467 340 138.8C339.667 138.133 339.467 137.333 339.467 136.4C339.467 135.467 339.667 134.667 340 134C340.333 133.333 340.8 132.8 341.467 132.467C342.067 132.067 342.8 131.933 343.667 131.933C344.533 131.933 345.2 132.133 345.867 132.467C346.467 132.867 347 133.333 347.333 134C347.667 134.667 347.867 135.467 347.867 136.4C347.867 137.333 347.667 138.133 347.333 138.8C347 139.467 346.533 140 345.867 140.333C345.2 140.667 344.467 140.867 343.667 140.867ZM343.667 139.667C344.467 139.667 345.133 139.4 345.6 138.8C346.067 138.2 346.333 137.4 346.333 136.333C346.333 135.267 346.067 134.4 345.6 133.867C345.133 133.333 344.467 133 343.667 133C342.867 133 342.2 133.267 341.733 133.867C341.267 134.467 341 135.267 341 136.333C341 137.4 341.267 138.2 341.733 138.8C342.2 139.4 342.867 139.667 343.667 139.667Z" fill="black"/>
<path d="M354.067 140.867C352.667 140.867 351.6 140.467 350.8 139.667C350 138.867 349.6 137.8 349.6 136.4C349.6 135.533 349.8 134.733 350.133 134C350.467 133.333 351 132.8 351.6 132.4C352.2 132 352.933 131.867 353.8 131.867C355 131.867 355.933 132.267 356.6 133C357.267 133.733 357.6 134.8 357.6 136.133C357.6 136.533 357.4 136.667 357 136.667H351.067C351.133 137.667 351.4 138.4 351.933 138.933C352.467 139.467 353.2 139.733 354.133 139.733C354.533 139.733 354.933 139.667 355.333 139.6C355.733 139.467 356.133 139.333 356.533 139.067C356.8 138.867 357.067 138.867 357.2 138.933C357.333 139 357.467 139.2 357.467 139.4C357.467 139.6 357.333 139.8 357.133 140C356.733 140.267 356.267 140.533 355.733 140.667C355.133 140.733 354.6 140.867 354.067 140.867ZM353.867 132.867C353.067 132.867 352.4 133.133 351.933 133.667C351.467 134.2 351.2 134.867 351.067 135.667H356.333C356.267 134.8 356.067 134.067 355.667 133.6C355.267 133.133 354.667 132.867 353.867 132.867Z" fill="black"/>
<path d="M365.2 140.667C364.667 140.667 364.467 140.4 364.467 139.933V132.733C364.467 132.2 364.733 132 365.2 132H368.667C369.667 132 370.467 132.2 370.933 132.6C371.4 133 371.667 133.533 371.667 134.333C371.667 134.8 371.533 135.2 371.267 135.533C371 135.867 370.667 136.133 370.2 136.267C370.733 136.4 371.133 136.667 371.467 137C371.8 137.4 371.933 137.8 371.933 138.333C371.933 139.067 371.667 139.667 371.133 140.067C370.6 140.467 369.8 140.733 368.8 140.733H365.2V140.667ZM365.867 135.733H368.667C369.2 135.733 369.667 135.6 369.933 135.4C370.2 135.133 370.4 134.8 370.4 134.333C370.4 133.867 370.267 133.533 369.933 133.333C369.667 133.067 369.2 133 368.667 133H365.867V135.733ZM365.867 139.667H368.8C369.4 139.667 369.867 139.533 370.133 139.267C370.467 139 370.6 138.667 370.6 138.133C370.6 137.667 370.467 137.267 370.133 137.067C369.8 136.867 369.4 136.667 368.8 136.667H365.867V139.667Z" fill="black"/>
<path d="M378.2 140.867C376.8 140.867 375.733 140.467 374.933 139.667C374.133 138.867 373.733 137.8 373.733 136.4C373.733 135.533 373.933 134.733 374.267 134C374.6 133.333 375.133 132.8 375.733 132.4C376.333 132 377.067 131.867 377.933 131.867C379.133 131.867 380.067 132.267 380.733 133C381.4 133.733 381.733 134.8 381.733 136.133C381.733 136.533 381.533 136.667 381.133 136.667H375.2C375.267 137.667 375.533 138.4 376.067 138.933C376.6 139.467 377.333 139.733 378.267 139.733C378.667 139.733 379.067 139.667 379.467 139.6C379.867 139.467 380.267 139.333 380.667 139.067C380.933 138.867 381.2 138.867 381.333 138.933C381.467 139 381.6 139.2 381.6 139.4C381.6 139.6 381.467 139.8 381.267 140C380.867 140.267 380.4 140.533 379.867 140.667C379.2 140.733 378.667 140.867 378.2 140.867ZM377.933 132.867C377.133 132.867 376.467 133.133 376 133.667C375.533 134.2 375.267 134.867 375.133 135.667H380.4C380.333 134.8 380.133 134.067 379.733 133.6C379.333 133.133 378.733 132.867 377.933 132.867Z" fill="black"/>
<path d="M387.667 140.867C386.8 140.867 386.067 140.667 385.4 140.333C384.8 139.933 384.267 139.4 383.934 138.733C383.6 138.067 383.4 137.267 383.4 136.333C383.4 134.933 383.8 133.867 384.534 133.067C385.267 132.267 386.334 131.867 387.6 131.867C388 131.867 388.467 131.933 388.934 132.067C389.4 132.2 389.8 132.4 390.2 132.733C390.4 132.867 390.467 133.067 390.467 133.267C390.467 133.467 390.334 133.667 390.134 133.733C389.934 133.867 389.734 133.8 389.534 133.667C389.2 133.4 388.867 133.267 388.6 133.133C388.267 133.067 388 133 387.667 133C386.734 133 386.067 133.267 385.6 133.867C385.134 134.467 384.867 135.267 384.867 136.333C384.867 137.4 385.134 138.2 385.6 138.8C386.067 139.4 386.8 139.733 387.667 139.733C387.934 139.733 388.267 139.667 388.6 139.6C388.934 139.533 389.267 139.333 389.534 139.067C389.734 138.933 389.934 138.867 390.134 139C390.267 139.133 390.4 139.267 390.4 139.467C390.4 139.667 390.334 139.867 390.134 140C389.734 140.333 389.334 140.533 388.867 140.667C388.534 140.8 388.067 140.867 387.667 140.867Z" fill="black"/>
<path d="M396.333 140.867C394.933 140.867 393.867 140.467 393.067 139.667C392.267 138.867 391.867 137.8 391.867 136.4C391.867 135.533 392.067 134.733 392.4 134C392.733 133.333 393.267 132.8 393.867 132.4C394.467 132 395.2 131.867 396.067 131.867C397.267 131.867 398.2 132.267 398.867 133C399.533 133.733 399.867 134.8 399.867 136.133C399.867 136.533 399.667 136.667 399.267 136.667H393.333C393.4 137.667 393.667 138.4 394.2 138.933C394.733 139.467 395.467 139.733 396.4 139.733C396.8 139.733 397.2 139.667 397.6 139.6C398 139.467 398.4 139.333 398.8 139.067C399.067 138.867 399.333 138.867 399.467 138.933C399.6 139 399.733 139.2 399.733 139.4C399.733 139.6 399.6 139.8 399.4 140C399 140.267 398.533 140.533 398 140.667C397.4 140.733 396.867 140.867 396.333 140.867ZM396.133 132.867C395.333 132.867 394.667 133.133 394.2 133.667C393.733 134.2 393.467 134.867 393.333 135.667H398.6C398.533 134.8 398.333 134.067 397.933 133.6C397.467 133.133 396.867 132.867 396.133 132.867Z" fill="black"/>
<path d="M408.8 140.8C408.334 140.8 408.067 140.534 408.067 140.067V133.134H404.534V134.267C404.534 135.534 404.467 136.534 404.267 137.4C404.134 138.267 403.867 138.934 403.467 139.467C403.134 140 402.6 140.4 402 140.734C401.8 140.8 401.6 140.8 401.467 140.8C401.334 140.734 401.2 140.667 401.134 140.467C401.067 140.334 401.067 140.2 401.067 140C401.134 139.867 401.2 139.667 401.4 139.6C401.867 139.334 402.2 139 402.467 138.534C402.734 138.067 402.867 137.534 403 136.867C403.134 136.2 403.134 135.334 403.134 134.267V132.867C403.134 132.334 403.4 132.067 403.934 132.067H408.6C409.134 132.067 409.4 132.334 409.4 132.867V140.134C409.534 140.534 409.267 140.8 408.8 140.8Z" fill="black"/>
<path d="M413.134 140.667C412.6 140.667 412.4 140.4 412.4 139.933V132.6C412.4 132.133 412.667 131.867 413.134 131.867C413.6 131.867 413.867 132.133 413.867 132.6V135.067H416.467C417.6 135.067 418.4 135.333 419 135.8C419.6 136.267 419.867 136.933 419.867 137.867C419.867 138.733 419.6 139.4 419 139.933C418.4 140.467 417.6 140.667 416.534 140.667H413.134ZM413.8 139.667H416.267C416.934 139.667 417.467 139.533 417.8 139.267C418.2 139 418.334 138.533 418.334 137.933C418.334 137.333 418.134 136.867 417.8 136.6C417.4 136.333 416.934 136.2 416.2 136.2H413.734V139.667H413.8Z" fill="black"/>
<path d="M425.933 140.867C424.533 140.867 423.467 140.467 422.667 139.667C421.867 138.867 421.467 137.8 421.467 136.4C421.467 135.533 421.667 134.733 422 134C422.333 133.333 422.867 132.8 423.467 132.4C424.067 132 424.8 131.867 425.667 131.867C426.867 131.867 427.8 132.267 428.467 133C429.133 133.733 429.467 134.8 429.467 136.133C429.467 136.533 429.267 136.667 428.867 136.667H422.933C423 137.667 423.267 138.4 423.8 138.933C424.333 139.467 425.067 139.733 426 139.733C426.4 139.733 426.8 139.667 427.2 139.6C427.6 139.467 428 139.333 428.4 139.067C428.667 138.867 428.933 138.867 429.067 138.933C429.2 139 429.333 139.2 429.333 139.4C429.333 139.6 429.2 139.8 429 140C428.6 140.267 428.133 140.533 427.6 140.667C426.933 140.733 426.4 140.867 425.933 140.867ZM425.667 132.867C424.867 132.867 424.2 133.133 423.733 133.667C423.267 134.2 423 134.867 422.867 135.667H428.133C428.067 134.8 427.867 134.067 427.467 133.6C427.067 133.133 426.467 132.867 425.667 132.867Z" fill="black"/>
<path d="M73.0669 124.334C72.4669 123.734 72.2002 122.867 72.2002 121.6V71.7336C72.2002 70.5336 72.4669 69.6002 73.0669 69.0002C73.6669 68.4002 74.6669 68.1336 76.0669 68.1336H81.2668C82.2002 68.1336 82.9335 68.2669 83.4002 68.5336C83.8669 68.8002 84.4002 69.2669 84.9335 70.0002L108.467 103.134V71.8003C108.467 70.6003 108.734 69.6669 109.334 69.0002C109.934 68.4002 110.867 68.0669 112.2 68.0669H118.467C119.867 68.0669 120.867 68.3336 121.4 68.9336C121.934 69.5336 122.267 70.4669 122.267 71.7336V121.534C122.267 122.734 122 123.667 121.4 124.267C120.867 124.867 119.867 125.134 118.467 125.134H113.2C112.334 125.134 111.6 125 111.134 124.734C110.667 124.467 110.134 124 109.6 123.267L86.0002 90.2002V121.534C86.0002 122.734 85.7335 123.667 85.1335 124.267C84.6002 124.867 83.6002 125.134 82.2002 125.134H75.9335C74.6002 125.2 73.6669 124.934 73.0669 124.334Z" fill="white"/>
</svg>
