<svg width="197" height="184" viewBox="0 0 197 184" fill="none" xmlns="http://www.w3.org/2000/svg">
<path d="M52.3966 30.6113C52.3966 30.6113 53.993 71.4578 17.7476 71.4578C17.7476 71.4578 59.2513 86.2001 61.0354 106.201C61.0354 106.201 59.7208 69.8615 91.3651 65.5421C91.3651 65.5421 58.1245 53.6168 52.3966 30.6113Z" fill="#E2E528"/>
<path d="M145.921 14.5545C145.921 14.5545 125.733 21.3153 118.972 0C118.972 0 124.606 24.6957 113.15 29.4846C113.15 29.4846 130.146 23.7567 138.597 41.5038C138.503 41.5038 133.526 22.1604 145.921 14.5545Z" fill="#5FE6E9"/>
<path d="M123.103 41.0342C123.103 41.0342 135.31 59.5325 124.605 75.8711C124.605 75.8711 143.01 60.3776 156.438 75.7772C156.438 75.7772 145.451 56.9033 160.663 42.4427C160.663 42.5366 141.601 55.307 123.103 41.0342Z" fill="#8666DF"/>
<path d="M114.09 45.1661C110.803 33.5225 109.489 30.0482 105.357 34.0859C101.225 38.1236 98.7839 40.6589 98.7839 40.6589C98.7839 40.6589 97.1876 40.1893 93.6194 40.2832C90.0512 40.1893 88.4549 40.6589 88.4549 40.6589C88.4549 40.6589 86.0135 38.1236 81.8819 34.0859C77.7503 30.0482 76.4357 33.5225 73.1492 45.1661C69.8627 56.8097 67.7969 85.1674 70.3322 90.9892C72.0224 94.933 83.0087 96.7171 93.6194 96.7171C104.23 96.7171 115.216 94.8391 116.907 90.9892C119.442 85.1674 117.47 56.7158 114.09 45.1661Z" fill="#2A2669"/>
<path d="M78.4072 97.8437C78.4072 97.8437 91.1776 105.637 118.503 96.9047C139.254 90.3317 137.658 74.5565 147.33 77.9369C160.664 82.6319 141.696 104.511 115.498 106.013C87.2338 107.797 78.4072 97.8437 78.4072 97.8437Z" fill="#2A2669"/>
<path d="M0.375594 146.202C0.0938943 145.921 0 145.545 0 144.982V122.915C0 122.352 0.0938943 121.976 0.375594 121.694C0.657294 121.413 1.03289 121.319 1.69019 121.319H4.03769C4.50719 121.319 4.78889 121.413 4.97669 121.507C5.16449 121.601 5.4462 121.882 5.634 122.164L16.0569 136.906V122.915C16.0569 122.352 16.1508 121.976 16.4325 121.694C16.7142 121.413 17.0898 121.319 17.7471 121.319H20.5641C21.2214 121.319 21.597 121.413 21.8787 121.694C22.1604 121.976 22.2543 122.352 22.2543 122.915V144.982C22.2543 145.545 22.1604 145.921 21.8787 146.202C21.597 146.484 21.2214 146.578 20.5641 146.578H18.2166C17.841 146.578 17.5593 146.484 17.2776 146.39C17.0898 146.296 16.8081 146.108 16.6203 145.733L6.1035 131.084V144.982C6.1035 145.545 6.00958 145.921 5.72788 146.202C5.44618 146.484 5.07061 146.578 4.41331 146.578H1.59631C1.12681 146.578 0.657294 146.484 0.375594 146.202Z" fill="#2A2669"/>
<path d="M30.5175 146.108C28.9212 145.451 27.6066 144.418 26.7615 143.009C25.8225 141.601 25.353 139.911 25.353 137.845C25.353 134.652 26.1981 132.211 27.9822 130.614C29.7663 128.924 32.2077 128.079 35.4942 128.079C38.6868 128.079 41.1282 128.924 42.8184 130.52C44.5086 132.117 45.2598 134.464 45.2598 137.375C45.2598 138.408 44.7903 138.971 43.8513 138.971H31.1748C31.1748 140.286 31.6443 141.319 32.6772 142.07C33.7101 142.821 35.0247 143.197 36.8088 143.197C37.8417 143.197 38.7807 143.103 39.5319 142.915C40.2831 142.727 41.0343 142.446 41.7855 141.976C42.0672 141.882 42.1611 141.788 42.3489 141.788C42.5367 141.788 42.7245 141.882 42.8184 142.164L43.9452 144.136C44.0391 144.324 44.133 144.418 44.133 144.605C44.133 144.793 44.0391 144.981 43.7574 145.169C42.7245 145.826 41.6916 146.296 40.377 146.577C39.1563 146.859 37.7479 147.047 36.0577 147.047C33.898 147.141 32.1138 146.859 30.5175 146.108ZM39.7197 135.873C39.7197 134.652 39.3441 133.619 38.6868 132.962C38.0295 132.305 36.9027 131.929 35.4942 131.929C34.0857 131.929 32.9589 132.305 32.2077 132.962C31.4565 133.713 31.0809 134.652 31.0809 135.873H39.7197Z" fill="#2A2669"/>
<path d="M47.8886 146.296C47.7008 146.108 47.6069 145.827 47.6069 145.357C47.6069 144.418 47.7008 143.761 47.8886 143.385C48.0764 142.916 48.5459 142.352 49.2032 141.695L57.4664 133.338H49.391C48.8276 133.338 48.3581 133.244 48.0764 132.962C47.7947 132.681 47.7008 132.305 47.7008 131.742V130.333C47.7008 129.77 47.7947 129.394 48.0764 129.112C48.3581 128.831 48.7337 128.737 49.391 128.737H63.8516C64.3211 128.737 64.6028 128.831 64.7906 129.019C64.9784 129.206 65.0723 129.488 65.0723 129.958C65.0723 130.897 64.9784 131.554 64.6967 132.023C64.415 132.493 64.0394 133.056 63.3821 133.807L55.4945 142.258H63.7577C64.3211 142.258 64.7906 142.352 65.0723 142.634C65.354 142.916 65.4479 143.291 65.4479 143.855V145.169C65.4479 145.733 65.354 146.108 65.0723 146.39C64.7906 146.672 64.415 146.766 63.7577 146.766H48.9215C48.452 146.578 48.0764 146.484 47.8886 146.296Z" fill="#2A2669"/>
<path d="M68.7349 144.982C67.3264 143.48 66.5752 141.414 66.5752 138.691C66.5752 136.625 67.0447 134.747 67.9837 133.151C68.9227 131.554 70.3312 130.334 72.0214 129.488C73.8055 128.643 75.7774 128.174 78.031 128.174C79.8151 128.174 81.3175 128.362 82.726 128.737C84.0406 129.113 85.3552 129.676 86.3881 130.427V145.451C86.3881 145.921 86.2942 146.203 86.1064 146.297C85.9186 146.484 85.6369 146.484 85.1674 146.484H82.2565C81.9748 146.484 81.787 146.39 81.5992 146.297C81.5053 146.203 81.3175 146.015 81.3175 145.827L80.9419 144.512C80.1907 145.358 79.2517 146.015 78.2188 146.39C77.1859 146.766 75.8713 146.954 74.3689 146.954C72.0214 147.142 70.1434 146.39 68.7349 144.982ZM79.5334 141.977C80.3785 141.32 80.7541 140.475 80.7541 139.442V132.963C80.0029 132.587 79.1578 132.399 78.031 132.399C76.4347 132.399 75.1201 132.963 74.0872 133.996C73.1482 135.122 72.5848 136.625 72.5848 138.503C72.5848 140.005 72.9604 141.132 73.6177 141.789C74.275 142.541 75.3079 142.916 76.6225 142.916C77.7493 142.916 78.6883 142.634 79.5334 141.977Z" fill="#2A2669"/>
<path d="M94.3692 146.484C92.679 146.015 91.3644 145.357 90.3315 144.7V122.915C90.3315 122.352 90.4254 121.976 90.7071 121.694C90.9888 121.413 91.3644 121.319 92.0217 121.319H94.7449C95.4022 121.319 95.7777 121.413 96.0594 121.694C96.3411 121.976 96.435 122.352 96.435 122.915V129.582C96.9984 129.113 97.7496 128.831 98.6886 128.549C99.6276 128.267 100.567 128.174 101.6 128.174C104.51 128.174 106.67 128.925 108.173 130.427C109.675 131.93 110.426 134.089 110.426 136.906C110.426 140.099 109.487 142.634 107.703 144.418C105.919 146.202 103.196 147.141 99.6276 147.141C97.7496 147.141 95.9655 146.954 94.3692 146.484ZM103.008 141.413C103.853 140.474 104.229 138.972 104.229 137C104.229 135.404 103.947 134.277 103.29 133.526C102.632 132.775 101.6 132.399 100.191 132.399C99.1581 132.399 98.2191 132.681 97.4679 133.244C96.7167 133.808 96.3411 134.559 96.3411 135.592V142.352C96.7167 142.54 97.0923 142.728 97.6557 142.822C98.2191 142.916 98.6886 143.01 99.252 143.01C100.942 142.916 102.163 142.446 103.008 141.413Z" fill="#2A2669"/>
<path d="M114.088 145.451C112.868 144.324 112.21 142.634 112.21 140.38V130.427C112.21 129.863 112.304 129.488 112.586 129.206C112.868 128.924 113.243 128.831 113.901 128.831H116.718C117.375 128.831 117.751 128.924 118.032 129.206C118.314 129.488 118.408 129.863 118.408 130.427V140.193C118.408 141.132 118.69 141.883 119.159 142.352C119.629 142.822 120.38 143.01 121.319 143.01C122.352 143.01 123.197 142.728 123.76 142.164C124.417 141.601 124.699 140.85 124.699 139.911V130.427C124.699 129.863 124.793 129.488 125.075 129.206C125.356 128.924 125.732 128.831 126.389 128.831H129.112C129.77 128.831 130.145 128.924 130.427 129.206C130.709 129.488 130.803 129.863 130.803 130.427V145.639C130.803 146.108 130.709 146.39 130.615 146.484C130.427 146.672 130.145 146.672 129.676 146.672H126.765C126.202 146.672 125.92 146.484 125.826 146.014L125.638 144.606C124.042 146.296 121.788 147.141 118.877 147.141C116.999 147.141 115.309 146.578 114.088 145.451Z" fill="#2A2669"/>
<path d="M133.995 137.564C133.995 135.686 134.371 134.089 135.028 132.587C135.685 131.084 136.812 130.052 138.127 129.3C139.535 128.549 141.131 128.174 143.009 128.174C144.042 128.174 145.075 128.267 145.92 128.549C146.766 128.831 147.423 129.113 147.986 129.582V122.915C147.986 122.352 148.08 121.882 148.362 121.694C148.644 121.413 149.019 121.319 149.676 121.319H152.399C152.963 121.319 153.432 121.413 153.714 121.694C153.996 121.976 154.09 122.352 154.09 122.915V144.606C153.057 145.357 151.742 145.921 150.146 146.39C148.55 146.86 146.766 147.141 144.981 147.141C137.563 147.141 133.995 143.949 133.995 137.564ZM147.986 142.259V135.404C147.986 134.371 147.704 133.62 147.047 133.15C146.39 132.681 145.545 132.399 144.418 132.399C142.916 132.399 141.883 132.869 141.131 133.808C140.38 134.747 140.099 136.061 140.099 137.657C140.099 139.535 140.474 140.85 141.319 141.695C142.164 142.54 143.385 142.916 144.981 142.916C146.202 142.916 147.235 142.728 147.986 142.259Z" fill="#2A2669"/>
<path d="M176.626 146.015C176.626 146.202 176.532 146.296 176.438 146.484C176.344 146.578 176.156 146.672 175.969 146.672H171.274C170.992 146.672 170.71 146.672 170.616 146.578C170.522 146.484 170.335 146.39 170.147 146.202L164.231 138.878C164.137 138.784 164.043 138.69 163.949 138.503V144.982C163.949 145.545 163.855 145.921 163.574 146.202C163.292 146.484 162.916 146.578 162.259 146.578H159.442C158.879 146.578 158.409 146.484 158.128 146.202C157.846 145.921 157.752 145.545 157.752 144.982V122.915C157.752 122.352 157.846 121.976 158.128 121.694C158.409 121.413 158.785 121.319 159.442 121.319H162.259C162.916 121.319 163.292 121.413 163.574 121.694C163.855 121.976 163.949 122.352 163.949 122.915V136.155L164.231 135.873L169.959 129.206C170.147 129.019 170.241 128.831 170.428 128.831C170.616 128.737 170.804 128.737 171.18 128.737H175.781C175.969 128.737 176.156 128.831 176.25 128.925C176.344 129.019 176.438 129.206 176.438 129.394C176.438 129.582 176.344 129.864 176.156 129.958L169.302 137.376L176.438 145.357C176.532 145.545 176.626 145.733 176.626 146.015Z" fill="#2A2669"/>
<path d="M178.41 144.982C177.001 143.48 176.25 141.414 176.25 138.691C176.25 136.625 176.72 134.747 177.659 133.151C178.598 131.554 180.006 130.334 181.696 129.488C183.48 128.643 185.452 128.174 187.706 128.174C189.49 128.174 190.992 128.362 192.401 128.737C193.715 129.113 195.03 129.676 196.063 130.427V145.451C196.063 145.921 195.969 146.203 195.781 146.297C195.593 146.484 195.312 146.484 194.842 146.484H191.931C191.65 146.484 191.462 146.39 191.274 146.297C191.18 146.203 190.992 146.015 190.992 145.827L190.617 144.512C189.865 145.358 188.926 146.015 187.894 146.39C186.861 146.766 185.546 146.954 184.044 146.954C181.696 147.142 179.818 146.39 178.41 144.982ZM189.208 141.977C190.053 141.32 190.429 140.475 190.429 139.442V132.963C189.678 132.587 188.833 132.399 187.706 132.399C186.11 132.399 184.795 132.963 183.762 133.996C182.823 135.122 182.26 136.625 182.26 138.503C182.26 140.005 182.635 141.132 183.293 141.789C183.95 142.541 184.983 142.916 186.297 142.916C187.424 142.916 188.363 142.634 189.208 141.977Z" fill="#2A2669"/>
<path d="M65.6359 182.823C65.3542 182.542 65.2603 182.166 65.2603 181.603V169.677H63.7579C63.1945 169.677 62.725 169.583 62.5372 169.302C62.3494 169.02 62.1616 168.644 62.1616 168.081V166.954C62.1616 166.391 62.2555 166.015 62.5372 165.734C62.725 165.452 63.1945 165.358 63.7579 165.358H65.2603V164.419C65.2603 162.165 65.8237 160.475 67.0444 159.254C68.2651 158.034 70.0492 157.376 72.4906 157.376C74.932 157.376 76.9039 157.846 78.3124 158.879C78.5941 159.067 78.688 159.254 78.688 159.442C78.688 159.63 78.5941 159.724 78.5002 160.006L77.3734 161.884C77.1856 162.165 77.0917 162.259 76.81 162.259C76.7161 162.259 76.5283 162.165 76.3405 162.071C75.4954 161.602 74.7442 161.414 73.8991 161.414C72.9601 161.414 72.3028 161.602 71.9272 162.071C71.5516 162.541 71.3638 163.198 71.3638 164.137V165.264H75.2137C75.7771 165.264 76.2466 165.358 76.4344 165.64C76.6222 165.921 76.81 166.297 76.81 166.86V167.987C76.81 168.551 76.7161 168.926 76.4344 169.208C76.1527 169.49 75.7771 169.583 75.2137 169.583H71.3638V181.509C71.3638 182.072 71.2699 182.448 70.9882 182.729C70.7065 183.011 70.3309 183.105 69.6736 183.105H66.8566C66.2932 183.199 65.9176 183.105 65.6359 182.823Z" fill="#2A2669"/>
<path d="M79.9088 182.072C78.6881 180.945 78.0308 179.255 78.0308 177.001V167.048C78.0308 166.485 78.1247 166.109 78.4064 165.827C78.6881 165.546 79.0637 165.452 79.721 165.452H82.538C83.1953 165.452 83.5709 165.546 83.8526 165.827C84.1343 166.109 84.2282 166.485 84.2282 167.048V176.814C84.2282 177.753 84.5099 178.504 84.9794 178.973C85.4489 179.443 86.2001 179.631 87.1391 179.631C88.172 179.631 89.0171 179.349 89.5805 178.785C90.2378 178.222 90.5195 177.471 90.5195 176.532V167.048C90.5195 166.485 90.6134 166.109 90.8951 165.827C91.1768 165.546 91.5524 165.452 92.2097 165.452H94.9328C95.5901 165.452 95.9657 165.546 96.2474 165.827C96.5291 166.109 96.623 166.485 96.623 167.048V182.26C96.623 182.729 96.5291 183.011 96.4352 183.105C96.2474 183.293 95.9657 183.293 95.4962 183.293H92.4914C91.928 183.293 91.6463 183.105 91.5524 182.635L91.3646 181.227C89.7683 182.917 87.5147 183.762 84.6038 183.762C82.7258 183.762 81.1295 183.199 79.9088 182.072Z" fill="#2A2669"/>
<path d="M100.849 182.824C100.567 182.542 100.473 182.166 100.473 181.603V166.391C100.473 165.922 100.567 165.64 100.661 165.546C100.849 165.358 101.13 165.358 101.6 165.358H104.605C104.886 165.358 105.168 165.452 105.262 165.546C105.45 165.64 105.544 165.828 105.544 166.109L105.638 167.424C106.389 166.673 107.422 166.015 108.549 165.546C109.675 165.076 111.084 164.889 112.492 164.889C114.558 164.889 116.154 165.452 117.375 166.579C118.596 167.706 119.253 169.302 119.253 171.556V181.791C119.253 182.354 119.159 182.73 118.878 183.011C118.596 183.293 118.22 183.387 117.563 183.387H114.746C114.089 183.387 113.713 183.293 113.431 183.011C113.15 182.73 113.056 182.354 113.056 181.791V171.743C113.056 170.804 112.868 170.053 112.398 169.678C111.929 169.302 111.272 169.02 110.333 169.02C109.3 169.02 108.455 169.302 107.703 169.865C106.952 170.429 106.577 171.18 106.577 172.025V181.603C106.577 182.166 106.483 182.542 106.201 182.824C105.919 183.105 105.544 183.199 104.886 183.199H102.163C101.6 183.199 101.13 183.105 100.849 182.824Z" fill="#2A2669"/>
</svg>
