<svg width="280" height="474" viewBox="0 0 280 474" fill="none" xmlns="http://www.w3.org/2000/svg">
<path d="M163 81.5C118.008 81.5 81.4773 45.0251 81.4773 0C81.4773 44.9796 44.9922 81.4545 0 81.5C44.9922 81.5 81.4773 117.975 81.4773 163C81.4773 118.02 118.008 81.5 163 81.5Z" fill="#2A2669"/>
<path d="M328 81.5C283.008 81.5 246.477 45.0251 246.477 0C246.477 44.9796 209.992 81.4545 165 81.5C209.992 81.5 246.477 117.975 246.477 163C246.477 118.02 283.008 81.5 328 81.5Z" fill="#8666DF"/>
<path d="M164 235C118.732 235 81.9771 198.301 81.9771 153C81.9771 198.256 45.2682 234.954 0 235C45.2682 235 81.9771 271.699 81.9771 317C82.0229 271.744 118.732 235 164 235Z" fill="#E2E528"/>
<path d="M328 235C283.008 235 246.477 198.301 246.477 153C246.477 198.256 209.992 234.954 165 235C209.992 235 246.477 271.699 246.477 317C246.523 271.744 283.008 235 328 235Z" fill="#5FE6E9"/>
<path d="M164 392.5C118.732 392.5 81.9771 356.025 81.9771 311C81.9771 355.98 45.2682 392.455 0 392.5C45.2682 392.5 81.9771 428.975 81.9771 474C82.0229 429.02 118.732 392.5 164 392.5Z" stroke="#606060" stroke-miterlimit="10"/>
</svg>
