<svg width="25" height="24" viewBox="0 0 25 24" fill="none" xmlns="http://www.w3.org/2000/svg">
<path d="M25 1.9375V6.93687C25 7.7752 24.0085 8.18609 23.4351 7.5998L22.0713 6.20492L12.7701 15.7175C12.4121 16.0837 11.8317 16.0837 11.4737 15.7175L10.6095 14.8337C10.2515 14.4675 10.2515 13.8739 10.6095 13.5079L19.9108 3.99516L18.5472 2.60043C17.9715 2.01172 18.3792 1 19.1954 1H24.0833C24.5896 1 25 1.41973 25 1.9375ZM18.5462 11.5779L17.9351 12.2029C17.85 12.2899 17.7825 12.3933 17.7364 12.507C17.6904 12.6208 17.6667 12.7427 17.6667 12.8658V18.5H5.44444V6H15.5278C15.7709 5.99999 16.004 5.90122 16.1759 5.72543L16.787 5.10043C17.3645 4.5098 16.9555 3.5 16.1389 3.5H4.83333C3.8208 3.5 3 4.33945 3 5.375V19.125C3 20.1605 3.8208 21 4.83333 21H18.2778C19.2903 21 20.1111 20.1605 20.1111 19.125V12.2408C20.1111 11.4055 19.1237 10.9873 18.5462 11.5779Z" fill="white"/>
</svg>
