<svg width="153" height="201" viewBox="0 0 153 201" fill="none" xmlns="http://www.w3.org/2000/svg">
<path d="M139.914 39.5695C129.67 3.27815 125.573 -7.55069 112.695 5.03421C99.8175 17.6191 92.2081 25.5213 92.2081 25.5213C92.2081 25.5213 87.2326 24.0578 76.1111 24.3505C64.9895 24.0578 60.0141 25.5213 60.0141 25.5213C60.0141 25.5213 52.4046 17.6191 39.5271 5.03421C26.6495 -7.55069 22.5521 3.27815 12.3086 39.5695C2.06507 75.8608 -4.37372 164.248 3.52843 182.393C8.79653 194.686 43.0391 200.246 76.1111 200.246C109.183 200.246 143.426 194.393 148.694 182.393C156.596 164.248 150.45 75.5682 139.914 39.5695Z" fill="white"/>
</svg>
