<svg width="186" height="32" viewBox="0 0 186 32" fill="none" xmlns="http://www.w3.org/2000/svg">
<path fill-rule="evenodd" clip-rule="evenodd" d="M0.325684 1.29561C0.325684 3.18773 0.669507 6.54674 1.06838 8.55037C1.6412 11.4281 2.5927 14.2048 3.98884 17.0721C6.02572 21.2559 8.26424 24.3511 11.7518 27.8069C13.5314 29.5702 16.2588 31.835 16.6026 31.835C16.9168 31.835 19.1351 29.9612 20.6911 28.3816C26.6279 22.3547 30.4095 14.7892 31.5069 6.74369C31.6352 5.80167 31.7918 3.97322 31.8545 2.68035L31.9686 0.329834H16.1471H0.325684V1.29561ZM30.4569 2.43293C30.4565 3.76439 30.1007 6.77734 29.7147 8.71532C28.3314 15.66 24.4438 22.7148 19.1995 27.7969C18.4486 28.5245 17.5576 29.3327 17.2191 29.5932L16.6038 30.0667L16.0179 29.6445C14.0879 28.2538 11.3192 25.4708 9.25368 22.8453C6.00308 18.7133 3.38687 13.0827 2.46354 8.23103C2.12624 6.45915 1.79153 3.58278 1.79153 2.45668V1.81437H16.1243H30.457L30.4569 2.43293ZM179.028 2.80686C176.012 3.44373 174.059 6.68084 174.836 9.75251C175.549 12.571 177.74 14.286 180.462 14.1561C182.508 14.0587 184.048 13.0264 185.095 11.0523C186.282 8.81148 185.598 5.37874 183.666 3.88612C182.423 2.92629 180.539 2.48785 179.028 2.80686ZM110.435 3.4759C109.115 3.71342 106.963 4.50583 105.927 5.13561C104.699 5.88249 102.917 7.57008 102.034 8.82385C100.378 11.1735 99.6554 13.5351 99.6355 16.6597C99.6196 19.1501 99.8875 20.3806 100.922 22.5662C101.533 23.8566 101.875 24.3305 103.066 25.5366C105.166 27.6646 107.502 28.8951 110.317 29.3578C111.832 29.6069 115.15 29.5589 116.999 29.2611C118.828 28.9667 121.539 28.1974 122.503 27.6996L123.131 27.3746V24.1563C123.131 19.942 123.334 19.4361 125.121 19.1961C125.737 19.1133 125.9 19.0267 125.9 18.7828C125.9 18.487 125.659 18.4742 120.118 18.4742C114.572 18.4742 114.336 18.4869 114.336 18.7836C114.336 19.0399 114.491 19.1061 115.239 19.1689C115.79 19.2153 116.313 19.3736 116.582 19.5762C117.323 20.1326 117.442 20.8305 117.393 24.3122L117.349 27.4639L116.454 27.7812C115.092 28.2639 112.138 28.2421 110.891 27.7403C107.831 26.5086 106.341 23.5694 105.942 17.9793C105.734 15.0739 106.428 10.7224 107.417 8.72752C108.72 6.09924 110.821 4.76959 113.668 4.77041C116.059 4.77124 117.977 5.57519 119.702 7.30089C120.761 8.35985 121.782 9.93792 122.264 11.2577C122.459 11.7914 122.643 12.0412 122.841 12.0412C123.112 12.0412 123.131 11.755 123.131 7.67004C123.131 3.57008 123.113 3.29891 122.838 3.29891C122.653 3.29891 122.417 3.56414 122.201 4.01495C121.599 5.27037 121.292 5.29165 118.381 4.27919C115.898 3.41585 115.884 3.41305 113.607 3.36456C112.351 3.33783 110.923 3.38781 110.435 3.4759ZM182.44 4.07284C184.08 5.00447 185.159 7.02971 184.975 8.83078C184.548 13.0272 179.737 14.935 176.879 12.0412C175.975 11.1255 175.513 10.0235 175.439 8.60992C175.383 7.52373 175.427 7.3022 175.89 6.35062C176.474 5.14798 177.531 4.10847 178.561 3.72398C179.663 3.3121 181.372 3.46567 182.44 4.07284ZM39.3433 4.49478C39.1233 6.17742 38.7401 11.0827 38.8221 11.1658C39.0598 11.4066 39.3689 10.9987 39.638 10.0895C40.2706 7.95029 41.6902 6.34122 43.5936 5.60555C44.4256 5.2839 44.9536 5.22682 47.786 5.15227C49.6606 5.10295 50.9916 5.12884 50.9441 5.21396C50.8986 5.29462 47.701 10.6865 43.838 17.1958L36.8143 29.0309H47.8055C53.8507 29.0309 58.7968 29.0028 58.7968 28.9687C58.7968 28.7602 59.6302 21.0838 59.7079 20.5773C59.7903 20.0394 59.7608 19.9587 59.482 19.9587C59.2346 19.9587 59.1176 20.138 58.9707 20.7422C58.6212 22.181 57.4902 24.2513 56.519 25.2303C54.588 27.1768 53.4029 27.5206 48.1418 27.661C44.3608 27.7618 44.2495 27.7556 44.3647 27.4518C44.4298 27.2796 47.5689 21.9417 51.34 15.5899C55.1112 9.23804 58.2261 3.98542 58.2621 3.91746C58.2979 3.8495 54.0766 3.79375 48.8811 3.79375H39.435L39.3433 4.49478ZM60.2626 4.12167C60.2626 4.40703 60.3696 4.45355 61.0255 4.45355C62.0676 4.45355 63.0992 4.98006 63.3807 5.65569C63.5585 6.08258 63.6015 8.18979 63.6015 16.4948C63.6015 26.1453 63.5826 26.8392 63.3057 27.3532C62.9448 28.0229 62.1842 28.3711 61.0822 28.3711C60.3713 28.3711 60.2626 28.4148 60.2626 28.701C60.2626 29.0251 60.3713 29.0309 66.5451 29.0309C72.4408 29.0309 72.8243 29.0131 72.7732 28.7422C72.7311 28.5192 72.4969 28.4319 71.7433 28.3582C70.6705 28.2535 70.2757 28.0892 69.7889 27.5443C69.4737 27.1917 69.4638 26.8989 69.4219 16.6838C69.382 6.93041 69.3993 6.1446 69.6662 5.60818C70.0366 4.86377 70.851 4.45421 71.9606 4.45388C72.6986 4.45355 72.8196 4.41066 72.7728 4.16489C72.7219 3.89684 72.2723 3.87309 66.4904 3.83301C60.3449 3.79045 60.2626 3.79425 60.2626 4.12167ZM73.2924 4.10484C73.2924 4.34913 73.4567 4.44101 74.0566 4.53223C74.7081 4.63103 74.9604 4.79268 75.7668 5.62732L76.7127 6.60629V16.3816V26.1568L76.3463 26.889C75.9106 27.7594 75.2531 28.1819 74.1226 28.3175C73.4569 28.3973 73.2924 28.4778 73.2924 28.7239C73.2924 29.0154 73.5066 29.0309 77.5271 29.0309C81.6531 29.0309 81.7618 29.0225 81.7618 28.701C81.7618 28.4234 81.652 28.3706 81.0695 28.3674C80.2081 28.363 79.1578 27.893 78.7045 27.3096C78.051 26.4682 77.9952 25.5803 78.0475 16.8704L78.0971 8.586L86.1658 19.0147C91.9186 26.4499 94.3378 29.4584 94.5945 29.496L94.9544 29.5486L94.9554 18.2795C94.9559 10.6634 95.0137 6.8006 95.1336 6.36348C95.3922 5.41965 96.0285 4.85899 97.1221 4.61107C97.8385 4.44876 98.049 4.33214 98.049 4.09742C98.049 3.81091 97.8278 3.79375 94.14 3.79375C90.3397 3.79375 90.2311 3.80299 90.2311 4.12365C90.2311 4.38658 90.3398 4.45355 90.7666 4.45355C91.447 4.45355 92.6449 5.06814 93.042 5.62089C93.2099 5.85478 93.414 6.33726 93.4956 6.69305C93.6856 7.52324 93.6992 19.3482 93.5097 19.2298C93.4319 19.181 90.7456 15.6879 87.5403 11.4675L81.7124 3.79375H77.5025C73.4854 3.79375 73.2924 3.8081 73.2924 4.10484ZM126.172 3.90377C125.839 4.24027 126.133 4.41957 127.12 4.48324C128.258 4.55664 128.911 4.9022 129.277 5.62402C129.593 6.24653 129.57 26.3569 129.253 27.1264C128.937 27.8919 128.341 28.2406 127.153 28.3559C126.372 28.4318 126.136 28.5179 126.094 28.7422C126.042 29.0147 126.624 29.0309 136.475 29.0309C142.215 29.0309 146.911 28.9751 146.911 28.907C146.911 28.8389 147.13 27.1874 147.399 25.237C147.971 21.0863 147.972 21.0721 147.626 21.1425C147.474 21.1735 147.2 21.638 146.973 22.2512C146.448 23.6658 146.041 24.328 145.054 25.3741C143.515 27.0036 141.848 27.5897 138.686 27.6131C135.188 27.639 135.283 27.8022 135.21 21.657L135.154 16.9896L135.942 16.9906C138.27 16.9933 139.571 18.36 140.206 21.4683C140.416 22.4966 140.529 22.7628 140.759 22.7628C141.03 22.7628 141.047 22.3699 141.047 16.1649C141.047 9.92604 141.031 9.56695 140.755 9.56695C140.52 9.56695 140.424 9.7926 140.269 10.7076C139.715 13.9778 138.337 15.5051 135.939 15.5051H135.184V10.3735V5.24216L138.156 5.30765C141.008 5.37066 141.17 5.39227 142.146 5.84291C143.179 6.31977 144.228 7.29214 144.676 8.18732C144.926 8.68728 145.149 9.36538 145.442 10.5154C145.575 11.0404 145.7 11.2164 145.94 11.2164C146.248 11.2164 146.259 11.0822 146.259 7.50509V3.79375H136.27C130.775 3.79375 126.231 3.84324 126.172 3.90377ZM149.354 4.07763C149.354 4.36018 149.491 4.42039 150.305 4.49511C150.828 4.54311 151.473 4.69618 151.739 4.8354C152.711 5.34476 152.689 5.09421 152.735 15.9999C152.784 27.5292 152.795 27.4101 151.64 27.9999C151.188 28.2307 150.618 28.3711 150.134 28.3711C149.462 28.3711 149.354 28.4169 149.354 28.701C149.354 29.0251 149.462 29.0309 155.543 29.0309C161.623 29.0309 161.732 29.0251 161.732 28.701C161.732 28.4187 161.62 28.3698 160.958 28.3618C159.907 28.3491 159.142 28.0506 158.734 27.4934C158.41 27.0505 158.391 26.7973 158.341 22.2472L158.289 17.4665L159.135 17.5166L159.981 17.5669L163.829 23.2577L167.677 28.9484L171.464 28.9926C175.005 29.034 175.25 29.0178 175.25 28.7427C175.25 28.5393 175.003 28.3595 174.45 28.1604C173.88 27.9554 173.464 27.6471 173.009 27.0909C172.21 26.1147 166.292 17.3911 166.292 17.1897C166.292 17.1084 166.604 16.9487 166.985 16.8349C169.62 16.0471 171.316 13.9188 171.471 11.2057C171.632 8.40258 170.227 5.95161 167.822 4.83639C166.139 4.05635 164.984 3.95161 156.887 3.84588C149.428 3.74839 149.354 3.7507 149.354 4.07763ZM9.93677 6.47416L9.9384 8.82468L10.3239 7.99994C10.5361 7.54633 10.9568 6.93767 11.259 6.64752C12.2018 5.74163 12.7419 5.60818 15.4676 5.60818C16.8142 5.60818 17.9159 5.64579 17.9159 5.69181C17.9159 5.77297 10.8801 18.3443 10.2312 19.4226L9.90859 19.9587H16.2738H22.6392L22.6278 17.3608C22.6169 14.9111 22.603 14.8004 22.3854 15.4226C21.8797 16.8681 21.2776 17.66 20.2775 18.1951C19.7128 18.4974 19.2809 18.5525 17.0367 18.6093C14.5666 18.6718 14.4526 18.6606 14.562 18.3683C14.6252 18.1997 16.4059 14.9814 18.519 11.2164C20.6321 7.45148 22.3913 4.31532 22.4282 4.24736C22.4652 4.1794 19.6694 4.12365 16.2153 4.12365H9.93514L9.93677 6.47416ZM162.709 5.56777C163.353 5.76538 163.82 6.06014 164.369 6.61503C165.322 7.578 165.688 8.71136 165.698 10.7216C165.71 13.2065 164.883 14.8839 163.252 15.6834C162.621 15.9927 162.138 16.0687 160.402 16.1322L158.312 16.2086V10.7709C158.312 7.78023 158.367 5.27631 158.434 5.20654C158.629 5.00431 161.726 5.26608 162.709 5.56777ZM177.677 5.3413C177.806 5.49816 177.85 6.45915 177.82 8.42666L177.775 11.2844L177.368 11.3989C177.139 11.4634 177.674 11.5196 178.589 11.5275C180.001 11.5396 180.164 11.5138 179.811 11.3334C179.437 11.1422 179.4 11.022 179.356 9.85132C179.292 8.14146 179.521 8.17478 180.797 10.0618L181.801 11.5463H182.797C183.71 11.5463 183.765 11.5267 183.457 11.3088C182.978 10.969 181.401 8.60942 181.521 8.41247C181.576 8.32159 181.722 8.24736 181.844 8.24736C181.967 8.24736 182.219 8.05173 182.405 7.81272C183.029 7.00893 182.751 5.80662 181.84 5.36868C181.107 5.01618 177.391 4.99161 177.677 5.3413ZM181.063 5.87078C181.181 6.03326 181.277 6.45223 181.277 6.80192C181.277 7.6481 180.706 8.24736 179.9 8.24736H179.322V6.87284C179.322 6.11672 179.361 5.45907 179.408 5.41124C179.584 5.23276 180.858 5.58641 181.063 5.87078Z" fill="#23A595"/>
</svg>
