<svg width="179" height="46" viewBox="0 0 179 46" fill="none" xmlns="http://www.w3.org/2000/svg">
<path fill-rule="evenodd" clip-rule="evenodd" d="M38.784 6.96633C34.7119 2.89405 29.0866 0.375 22.874 0.375C16.6613 0.375 11.036 2.89405 6.96393 6.96633C2.89393 11.0365 0.375 16.662 0.375 22.875C0.375 25.8289 0.945679 28.6531 1.98252 31.2412C3.05907 33.9274 4.63732 36.3566 6.6023 38.4137C8.6906 40.6003 11.2137 42.3647 14.0337 43.5709C16.7491 44.7332 19.7384 45.375 22.874 45.375C29.0866 45.375 34.7119 42.856 38.784 38.7858C42.8561 34.7135 45.375 29.088 45.375 22.875C45.375 16.662 42.8561 11.0365 38.784 6.96424V6.96633ZM1.93026 27.8964C1.54562 26.2867 1.34285 24.6059 1.34285 22.875C1.34285 16.9296 3.75308 11.5445 7.64959 7.64783C11.5461 3.75115 16.9289 1.34081 22.874 1.34081C28.819 1.34081 34.2039 3.75115 38.1004 7.64783C39.0766 8.62409 39.9609 9.69443 40.7364 10.8442L27.9369 16.9255C26.1496 13.8901 24.379 10.8505 22.6419 7.80671C19.8596 12.4873 17.1254 17.2202 14.4099 21.9656L1.93026 27.8943V27.8964ZM14.1089 24.516L16.4104 20.5211L22.7757 31.1638H18.0849L14.1089 24.516ZM16.9623 31.1638H10.2814L13.5591 25.4735L16.9623 31.1638ZM16.9623 19.5657L19.2638 15.5708L28.5912 31.1638H23.9003L16.9623 19.5657ZM19.8136 14.6134L22.6419 9.70279L35.3056 31.1617H29.7137L19.8136 14.6134ZM2.8793 30.8816C2.62009 30.2356 2.39223 29.575 2.19574 28.8998L13.5111 23.5377C12.0582 26.0797 10.6075 28.6239 9.15676 31.1659H6.70891H2.99636C2.95664 31.0718 2.91901 30.9778 2.88139 30.8837L2.8793 30.8816ZM38.1004 38.1022C34.2039 41.9989 28.8211 44.4092 22.874 44.4092C19.868 44.4092 17.0083 43.7946 14.412 42.6845C11.7133 41.5306 9.29891 39.8415 7.30258 37.7489C7.21896 37.6632 7.13744 37.5754 7.05591 37.4876H38.6899C38.4976 37.6966 38.3011 37.9015 38.0983 38.1022H38.1004ZM39.5637 36.4841C38.8718 35.3134 38.1757 34.1407 37.4796 32.97H36.3696L38.4662 36.5218H7.19597L9.24038 32.97H8.12202C7.46145 34.124 6.79879 35.2779 6.13614 36.4277C5.05958 35.0981 4.13563 33.639 3.39772 32.0753H42.346C41.5956 33.6599 40.6591 35.1399 39.5616 36.482L39.5637 36.4841ZM36.4051 31.1638C33.7607 26.7236 31.0955 22.2792 28.4679 17.8265L41.3029 11.7285C43.2741 14.9813 44.4092 18.7964 44.4092 22.8771C44.4092 25.8142 43.8218 28.6134 42.7557 31.1638H36.4051Z" fill="#8D765F" stroke="#8D765F" stroke-width="0.75"/>
<path fill-rule="evenodd" clip-rule="evenodd" d="M70.903 23.1668C70.0382 23.4939 69.1236 23.6575 68.1592 23.6575C66.7418 23.6575 65.4514 23.3223 64.2909 22.652C63.1303 21.9817 62.2047 21.0807 61.5139 19.9492C60.8231 18.8177 60.4777 17.5682 60.4777 16.2034C60.4777 14.8386 60.8231 13.573 61.5139 12.4441C62.2047 11.3126 63.1303 10.4117 64.2909 9.73596C65.4514 9.06026 66.7418 8.72241 68.1592 8.72241C69.9415 8.72241 71.3672 9.1407 72.4393 9.9746L73.7297 8.37383C73.1881 7.96091 72.4089 7.57747 71.3893 7.22622C70.3698 6.87228 69.2921 6.69531 68.1592 6.69531C66.3604 6.69531 64.7191 7.12433 63.2409 7.97968C61.7598 8.83502 60.58 9.97996 59.6985 11.4172C58.8171 12.8517 58.375 14.4471 58.375 16.2007C58.375 17.9543 58.8171 19.5363 59.6985 20.9735C60.58 22.4107 61.7598 23.5556 63.2409 24.4109C64.7219 25.2663 66.3604 25.6953 68.1592 25.6953C69.3916 25.6953 70.5549 25.4888 71.6491 25.0759C72.7433 24.663 73.5833 24.2045 74.1691 23.695L72.7985 22.172C72.4007 22.5072 71.7679 22.8397 70.903 23.1641V23.1668ZM81.0824 25.4379H83.1023V8.91278H93.3258V25.4352H95.3457V6.96613H81.0824V25.4379ZM102.754 25.4245H115.436V23.4644H104.762V17.3644L112.339 16.1015L111.994 14.1789L104.762 15.3909V8.91278H115.436V6.95272H102.754V25.4245ZM135.179 6.95272H132.706L126.26 14.9887L124.146 15.4016V6.95272H122.14V25.4111H124.146V17.3751L127.163 16.7959L134.09 25.4245H136.71L128.547 15.2354L135.179 6.95272ZM141.509 8.92619H148.423V25.4245H150.443V8.92619H157.356V6.96613H141.509V8.92619ZM177.449 10.2669C176.833 9.26136 176.01 8.46232 174.976 7.86706C173.943 7.27448 172.799 6.97685 171.539 6.97685L164.109 6.96345V25.4352H166.129V8.91278H171.511C172.849 8.91278 173.99 9.37129 174.935 10.2856C175.88 11.2 176.35 12.31 176.35 13.6078C176.35 14.9056 175.888 16.0049 174.968 16.9032C174.045 17.8014 172.904 18.268 171.539 18.3028H170.865L170.881 20.2495H171.542C172.799 20.2495 173.946 19.9519 174.979 19.3539C176.013 18.756 176.836 17.9543 177.452 16.9488C178.068 15.9433 178.375 14.8278 178.375 13.6078C178.375 12.3878 178.068 11.2724 177.452 10.2669H177.449Z" fill="#8D765F"/>
<path fill-rule="evenodd" clip-rule="evenodd" d="M62.1227 32.6983C61.7131 32.6983 61.3325 32.7914 60.9868 32.9747C60.6411 33.1579 60.3593 33.4103 60.1414 33.7317C59.9235 34.0531 59.7927 34.4166 59.7492 34.8191H58.9793V32.8425H58.375V37.4416H58.9793V35.3809H59.7492C59.7898 35.8044 59.9148 36.1829 60.1298 36.5164C60.3447 36.8498 60.6294 37.1112 60.9839 37.3004C61.3383 37.4897 61.7334 37.5858 62.1721 37.5858C62.6108 37.5858 63.0088 37.4807 63.3604 37.2704C63.7148 37.0601 63.9908 36.7717 64.1912 36.3992C64.3917 36.0297 64.4905 35.6122 64.4905 35.1526C64.4905 34.4436 64.2668 33.8579 63.8194 33.3922C63.372 32.9296 62.8055 32.6953 62.1227 32.6953V32.6983ZM63.3865 36.4924C63.064 36.8408 62.6544 37.015 62.1547 37.015C61.6288 37.015 61.196 36.8378 60.859 36.4863C60.522 36.1319 60.3535 35.6813 60.3535 35.1315C60.3535 34.5818 60.522 34.1553 60.859 33.8008C61.196 33.4463 61.6172 33.2721 62.1256 33.2721C62.634 33.2721 63.0466 33.4523 63.3778 33.8128C63.709 34.1733 63.8746 34.6239 63.8746 35.1646C63.8746 35.7053 63.7148 36.1469 63.3923 36.4954L63.3865 36.4924ZM70.1063 33.0468C69.7489 32.8365 69.3509 32.7314 68.9151 32.7314C68.5316 32.7314 68.1917 32.8095 67.8925 32.9627C67.5933 33.1159 67.3521 33.3382 67.1691 33.6326V32.8425H66.5648V39.0548H67.1691V36.6486C67.3637 36.943 67.6107 37.1652 67.907 37.3185C68.2034 37.4717 68.5345 37.5498 68.9006 37.5498C69.3364 37.5498 69.7373 37.4446 70.0976 37.2343C70.4578 37.0241 70.7425 36.7327 70.9488 36.3662C71.1551 35.9967 71.2596 35.5912 71.2596 35.1436C71.2596 34.696 71.158 34.2814 70.9517 33.9149C70.7454 33.5454 70.4665 33.2571 70.1092 33.0468H70.1063ZM70.144 36.4563C69.8099 36.8018 69.3916 36.976 68.8919 36.976C68.3922 36.976 67.9709 36.7988 67.6339 36.4473C67.294 36.0958 67.1255 35.6603 67.1255 35.1436C67.1255 34.6269 67.294 34.1883 67.631 33.8338C67.968 33.4794 68.3806 33.2991 68.8686 33.2991C69.3858 33.2991 69.8099 33.4733 70.144 33.8218C70.4781 34.1703 70.6466 34.6149 70.6466 35.1586C70.6466 35.7023 70.4781 36.1078 70.144 36.4533V36.4563ZM73.9324 36.5554V32.8425H73.3282V37.4416H73.9324L76.6401 33.7257V37.4416H77.2386V32.8425H76.6401L73.9324 36.5584V36.5554ZM82.038 32.8425H81.3553L79.6877 36.8799H79.1124V38.502H79.525L79.7487 37.4416H83.6533L83.8712 38.502H84.2837V36.8799H83.7085L82.038 32.8425ZM80.3239 36.8799L81.6981 33.5514L83.0723 36.8799H80.3239ZM86.759 36.5584V32.8425H86.1547V37.4416H86.759L89.4666 33.7257V37.4416H90.0651V32.8425H89.4666L86.759 36.5584ZM94.9401 35.0504C94.5624 35.1015 94.2544 35.1285 94.0191 35.1285C93.7635 35.1285 93.5572 35.1165 93.4003 35.0895C93.2463 35.0625 93.1185 35.0144 93.0197 34.9453C92.9209 34.8762 92.8541 34.7861 92.8193 34.6749C92.7844 34.5668 92.767 34.4196 92.767 34.2364V32.8425H92.1627V34.2394C92.1627 34.7921 92.3341 35.1916 92.674 35.435C92.7757 35.5131 92.9064 35.5731 93.072 35.6212C93.2347 35.6693 93.3916 35.6933 93.5368 35.6933C94.022 35.6933 94.4898 35.6663 94.9401 35.6122V37.4446H95.5385V32.8425H94.9401V35.0504ZM102.18 34.5788C102.139 34.3745 102.072 34.1763 101.974 33.981C101.779 33.5965 101.5 33.2901 101.131 33.0648C100.762 32.8395 100.358 32.7284 99.9167 32.7284C99.4751 32.7284 99.1062 32.8335 98.7546 33.0438C98.4031 33.2541 98.1242 33.5424 97.9208 33.9089C97.7175 34.2754 97.6158 34.6779 97.6158 35.1165C97.6158 35.45 97.6768 35.7684 97.7988 36.0688C97.9208 36.3692 98.0864 36.6275 98.2956 36.8438C98.5048 37.0601 98.7546 37.2313 99.0451 37.3575C99.3357 37.4837 99.6436 37.5468 99.9661 37.5468C100.451 37.5468 100.89 37.3966 101.288 37.0962C101.686 36.7958 101.965 36.4052 102.13 35.9186H101.503C101.378 36.234 101.175 36.4863 100.887 36.6816C100.599 36.8769 100.289 36.97 99.9487 36.97C99.4896 36.97 99.0945 36.8108 98.7575 36.4954C98.4205 36.1799 98.2404 35.7954 98.2172 35.3388H102.241C102.241 35.0324 102.221 34.7771 102.18 34.5728V34.5788ZM98.2317 34.7831C98.313 34.3385 98.5106 33.981 98.8185 33.7107C99.1294 33.4373 99.4925 33.3021 99.9138 33.3021C100.335 33.3021 100.716 33.4343 101.024 33.7016C101.332 33.966 101.538 34.3295 101.637 34.7861H98.2288L98.2317 34.7831ZM107.34 36.7717C107.107 36.9099 106.834 36.976 106.514 36.976C106.015 36.976 105.591 36.7988 105.245 36.4443C104.899 36.0898 104.728 35.6572 104.728 35.1436C104.728 34.6299 104.899 34.1883 105.239 33.8338C105.579 33.4794 105.997 33.2991 106.491 33.2991C106.819 33.2991 107.116 33.3802 107.38 33.5424C107.645 33.7047 107.862 33.936 108.037 34.2364H108.711C108.531 33.7737 108.243 33.4073 107.848 33.1369C107.453 32.8665 107.003 32.7314 106.5 32.7314C106.064 32.7314 105.663 32.8365 105.297 33.0498C104.931 33.2631 104.643 33.5514 104.434 33.9179C104.225 34.2844 104.118 34.69 104.118 35.1285C104.118 35.5671 104.222 35.9877 104.434 36.3572C104.646 36.7267 104.937 37.0211 105.309 37.2313C105.681 37.4446 106.09 37.5498 106.541 37.5498C107.098 37.5498 107.584 37.3845 107.99 37.0541C108.138 36.9399 108.266 36.8108 108.371 36.6696C108.475 36.5284 108.595 36.3331 108.72 36.0838H108.037C107.804 36.4052 107.572 36.6335 107.34 36.7687V36.7717ZM113.403 32.8425L111.369 34.8912V32.8425H110.765V37.4416H111.369V35.2727L113.394 37.4416H114.181L111.962 35.0685L114.181 32.8425H113.403ZM119.733 33.6566C119.509 33.3322 119.26 33.0978 118.981 32.9537C118.702 32.8065 118.368 32.7344 117.978 32.7344C117.54 32.7344 117.142 32.8395 116.784 33.0498C116.427 33.2601 116.145 33.5514 115.942 33.9209C115.739 34.2904 115.637 34.702 115.637 35.1556C115.637 35.6092 115.741 36.0207 115.948 36.3842C116.154 36.7507 116.439 37.0361 116.805 37.2434C117.168 37.4506 117.578 37.5528 118.031 37.5528C118.406 37.5528 118.725 37.4807 118.989 37.3395C119.254 37.1983 119.504 36.961 119.739 36.6335V37.4416H120.343V32.8425H119.739V33.6566H119.733ZM119.239 36.4473C118.911 36.8018 118.501 36.979 118.019 36.979C117.537 36.979 117.11 36.8018 116.764 36.4443C116.421 36.0868 116.247 35.6512 116.247 35.1315C116.247 34.6119 116.415 34.1943 116.752 33.8368C117.089 33.4824 117.496 33.3021 117.973 33.3021C118.475 33.3021 118.896 33.4763 119.231 33.8248C119.568 34.1733 119.736 34.6089 119.736 35.1315C119.736 35.6542 119.57 36.0928 119.242 36.4473H119.239ZM122.763 33.233C122.484 33.4914 122.345 33.8188 122.345 34.2153C122.345 34.5398 122.441 34.8221 122.633 35.0595C122.824 35.2968 123.089 35.453 123.426 35.5341L122.139 37.4446H122.821L124.076 35.5852H125.061V37.4446H125.66V32.8425H123.873C123.411 32.8425 123.042 32.9717 122.763 33.23V33.233ZM125.061 33.4073V35.0204H124.03C123.312 35.0204 122.955 34.753 122.955 34.2153C122.955 33.6776 123.312 33.4073 124.03 33.4073H125.061ZM134.012 32.8455L131.979 34.8942V32.8425H131.374V37.4416H131.979V35.2727L134.004 37.4416H134.791L132.571 35.0685L134.791 32.8425H134.012V32.8455ZM139.773 33.0498C139.425 32.8395 139.035 32.7344 138.603 32.7344C137.92 32.7344 137.356 32.9627 136.912 33.4193C136.467 33.8759 136.244 34.4526 136.244 35.1496C136.244 35.6032 136.345 36.0147 136.551 36.3812C136.758 36.7477 137.04 37.0361 137.403 37.2434C137.766 37.4506 138.17 37.5558 138.617 37.5558C139.271 37.5558 139.811 37.3275 140.241 36.8739C140.671 36.4203 140.883 35.8465 140.883 35.1586C140.883 34.702 140.784 34.2874 140.587 33.9179C140.389 33.5484 140.116 33.2601 139.768 33.0498H139.773ZM139.808 36.4713C139.494 36.8108 139.094 36.982 138.603 36.982C138.112 36.982 137.682 36.8108 137.35 36.4653C137.019 36.1199 136.854 35.6843 136.854 35.1586C136.854 34.6329 137.016 34.1853 137.339 33.8338C137.661 33.4824 138.068 33.3051 138.553 33.3051C139.038 33.3051 139.468 33.4794 139.791 33.8278C140.113 34.1763 140.276 34.6209 140.276 35.1646C140.276 35.7083 140.119 36.1289 139.805 36.4683L139.808 36.4713ZM145.45 36.5795L143.899 32.8485H142.96V37.4476H143.565V33.5244L145.189 37.4416H145.709L147.336 33.5244V37.4416H147.934V32.8425H147.002L145.45 36.5735V36.5795ZM150.18 37.4446H150.784V33.4043H153.408V37.4416H154.012V32.8425H150.18V37.4416V37.4446ZM160.18 33.6596C159.956 33.3352 159.706 33.1009 159.427 32.9567C159.148 32.8095 158.814 32.7374 158.425 32.7374C157.986 32.7374 157.588 32.8425 157.231 33.0528C156.873 33.2631 156.592 33.5545 156.388 33.9239C156.185 34.2934 156.083 34.705 156.083 35.1586C156.083 35.6122 156.188 36.0237 156.394 36.3872C156.6 36.7507 156.885 37.0391 157.251 37.2464C157.614 37.4536 158.024 37.5558 158.477 37.5558C158.852 37.5558 159.172 37.4837 159.436 37.3425C159.7 37.2013 159.95 36.964 160.185 36.6365V37.4446H160.79V32.8425H160.185V33.6566L160.18 33.6596ZM159.686 36.4503C159.357 36.8048 158.948 36.982 158.466 36.982C157.983 36.982 157.556 36.8048 157.211 36.4473C156.868 36.0898 156.693 35.6542 156.693 35.1346C156.693 34.6149 156.862 34.1973 157.199 33.8398C157.536 33.4854 157.943 33.3051 158.419 33.3051C158.922 33.3051 159.343 33.4794 159.677 33.8278C160.014 34.1763 160.183 34.6119 160.183 35.1346C160.183 35.6572 160.017 36.0958 159.689 36.4503H159.686ZM166.292 34.8221H163.628V32.8425H163.024V37.4416H163.628V35.3809H166.292V37.4416H166.896V32.8425H166.292V34.8161V34.8221ZM169.741 36.5645V32.8425H169.136V37.4416H169.741L172.448 33.7257V37.4416H173.047V32.8425H172.448L169.741 36.5584V36.5645ZM176.588 32.8425C176.126 32.8425 175.757 32.9717 175.479 33.23C175.2 33.4884 175.06 33.8158 175.06 34.2123C175.06 34.5368 175.156 34.8191 175.348 35.0564C175.54 35.2938 175.804 35.45 176.141 35.5311L174.854 37.4416H175.537L176.792 35.5821H177.777V37.4416H178.375V32.8425H176.588ZM177.777 35.0174H176.745C176.028 35.0174 175.67 34.75 175.67 34.2123C175.67 33.6746 176.028 33.4043 176.745 33.4043H177.777V35.0174Z" fill="#8D765F"/>
</svg>
