<svg width="1200" height="645" viewBox="0 0 1200 645" fill="none" xmlns="http://www.w3.org/2000/svg">
<g clip-path="url(#clip0_980_941)">
<rect width="1200" height="645" rx="5" fill="#E7E2D6"/>
<path fill-rule="evenodd" clip-rule="evenodd" d="M1222.84 57.3417C1221.66 57.8449 1221.91 58.7359 1223.37 59.2246C1224.28 59.529 1224.47 59.8708 1224.02 60.3478C1223.16 61.2558 1213.27 61.1836 1211.63 60.2572C1209.04 58.7942 1193.79 59.6707 1194.37 61.2499C1195.17 63.47 1192.86 64.3051 1187.32 63.7954C1177.29 62.8749 1170.01 62.4839 1170.24 62.8802C1170.37 63.098 1169.78 63.6084 1168.94 64.0138C1166.29 65.2866 1167.68 66.7142 1171.58 66.7391C1173.52 66.7522 1172.76 68.4461 1170.43 69.3036C1169.2 69.7563 1167.53 69.7714 1165.43 69.3495C1163.69 69.0012 1162.16 68.7164 1162.04 68.7164C1161.32 68.7164 1161.99 66.7043 1162.9 66.1368C1166.47 63.9167 1159.93 63.5821 1155.51 65.7576C1153.68 66.6564 1151.77 67.3965 1151.26 67.4017C1150.74 67.4076 1149.54 67.8426 1148.59 68.3681C1147.64 68.8936 1145.82 69.5076 1144.55 69.7333C1140.39 70.474 1134.12 73.2997 1131.86 75.4555C1130.63 76.62 1129.12 77.9117 1128.49 78.3257C1126.84 79.4062 1128.1 81.3232 1131.02 82.1886C1132.28 82.5632 1133.51 83.1608 1133.75 83.5171C1133.98 83.8727 1134.91 84.6573 1135.81 85.2596C1137.74 86.5559 1138.48 89.9891 1137.14 91.4088C1136.65 91.9179 1136.45 92.3345 1136.69 92.3345C1136.93 92.3345 1136.77 92.7773 1136.35 93.3186C1135.92 93.8598 1135.12 94.3046 1134.57 94.3066C1134.01 94.3092 1132.8 94.7251 1131.88 95.231C1128.48 97.1073 1113.93 97.7095 1106.6 96.278C1101.21 95.2257 1100.28 95.597 1104.67 97.043C1108.09 98.1675 1116.77 98.7691 1120.69 98.153C1121.82 97.9759 1122.68 98.2974 1122.68 98.895C1122.68 99.2559 1122.21 99.5511 1121.63 99.5511C1120.85 99.5511 1120.76 99.744 1121.27 100.284C1122.38 101.457 1118.22 105.456 1115.9 105.456C1114.1 105.456 1112.28 107.371 1113.18 108.322C1113.4 108.55 1113.25 108.736 1112.85 108.736C1112.45 108.736 1112.13 108.423 1112.13 108.041C1112.13 107.659 1111.87 107.512 1111.56 107.715C1110.53 108.386 1109.14 107.356 1108.73 105.626C1108.04 102.715 1107.02 101.711 1105.29 102.232C1104.44 102.49 1104.11 102.73 1104.55 102.766C1105 102.802 1105.2 103.117 1105 103.466C1104.79 103.815 1103.8 103.926 1102.78 103.712C1101.66 103.474 1100.95 103.597 1100.95 104.032C1100.95 104.983 1097.97 108.075 1097.04 108.101C1095.89 108.133 1098.55 110.048 1099.75 110.048C1100.32 110.048 1101.17 110.533 1101.64 111.127C1102.4 112.093 1102.33 112.151 1100.94 111.682C1094.01 109.336 1092.33 109.295 1091.28 111.447C1090.12 113.808 1087.99 114.027 1088.12 111.772C1088.18 110.757 1088.5 110.333 1089.05 110.555C1089.75 110.836 1089.75 110.661 1089.08 109.534C1088.17 107.987 1085.61 106.565 1084.75 107.126C1084.43 107.333 1084.18 106.939 1084.18 106.252C1084.18 104.885 1086 102.831 1087.21 102.831C1087.63 102.831 1087.81 102.556 1087.62 102.221C1087.42 101.885 1087.5 101.455 1087.79 101.265C1088.44 100.838 1087.97 96.8921 1087.13 95.7807C1086.79 95.3307 1085.08 94.5119 1083.32 93.9608L1080.14 92.9597L1078.45 95.107C1077.52 96.2885 1076.75 97.5554 1076.74 97.9228C1076.73 98.2902 1075.99 99.7276 1075.1 101.117C1073.22 104.032 1073.69 104.773 1077.4 104.79C1081.07 104.806 1082.93 108.176 1080.7 110.775C1079.61 112.048 1079.99 113.328 1081.46 113.328C1083.01 113.328 1082.15 115.489 1080.41 115.981C1077.04 116.933 1061.74 125.354 1060.6 126.886C1059.94 127.772 1057.69 130.117 1055.58 132.097L1051.76 135.697L1045.58 135.584C1042.18 135.522 1039.23 135.655 1039.02 135.878C1038.1 136.85 1040.01 139.37 1041.73 139.45C1042.7 139.496 1044.33 139.811 1045.36 140.151L1047.22 140.77L1044.42 140.879L1041.63 140.989L1044.11 142.231L1046.6 143.473L1044.42 143.479C1043.23 143.483 1041.87 143.23 1041.4 142.916C1040.24 142.143 1035.46 144.803 1036.34 145.732C1037.33 146.775 1037.07 147.695 1036.05 146.794C1035.5 146.317 1034.67 146.193 1034.03 146.491C1033.43 146.77 1031.56 147.172 1029.88 147.385C1026.02 147.872 1024.52 150.69 1027.05 152.703C1027.95 153.424 1028.33 154.224 1028.08 154.904C1027.53 156.418 1026.62 156.226 1026.19 154.507C1025.92 153.39 1025.66 153.224 1025.11 153.809C1024.55 154.393 1024.16 154.345 1023.46 153.604C1022.51 152.6 1021.14 152.674 1021.12 153.73C1021.09 156.122 1017.46 156.899 1016.78 154.66C1016.33 153.152 1016.24 153.133 1013.46 153.976C1011.43 154.591 1007.78 154.239 1007.78 153.428C1007.78 153.203 1009.04 152.312 1010.57 151.451C1013.66 149.724 1013.89 149.155 1012.28 147.218C1011.68 146.496 1011.52 146.109 1011.93 146.357C1012.33 146.605 1012.86 146.463 1013.11 146.041C1013.38 145.578 1013.29 145.447 1012.89 145.713C1012.52 145.955 1012.03 145.848 1011.82 145.475C1011.6 145.102 1011.16 144.971 1010.83 145.182C1010.51 145.393 1010.38 145.804 1010.55 146.095C1010.72 146.386 1009.84 146.254 1008.59 145.8C1007.21 145.297 1005.66 145.177 1004.61 145.493C1003.67 145.778 1002.73 145.823 1002.51 145.593C1002.29 145.364 998.985 145.144 995.163 145.105C991.341 145.066 987.594 144.822 986.837 144.562C985.706 144.173 985.389 144.385 985.065 145.751C984.722 147.195 981.896 149.411 980.399 149.411C979.881 149.411 980.16 145.845 980.758 144.823C981.303 143.892 969.398 142.31 964.301 142.636C954.901 143.237 953.952 144.236 960.371 146.773C967.342 149.528 969.486 151.85 965.629 152.47C964.527 152.647 964.252 152.459 964.523 151.715C964.769 151.037 964.496 150.723 963.66 150.723C962.988 150.723 962.437 150.428 962.437 150.067C962.437 149.707 962.018 149.411 961.506 149.411C960.993 149.411 960.574 149.707 960.574 150.067C960.574 150.428 960.164 150.723 959.662 150.723C959.077 150.723 958.888 150.343 959.135 149.663C959.457 148.776 959.315 148.719 958.262 149.314C956.982 150.037 950.883 149.648 949.705 148.767C947.533 147.144 931.371 144.431 930.7 145.577C930.335 146.202 930.038 146.203 929.328 145.58C928.609 144.95 928.352 144.976 928.087 145.705C927.872 146.296 927.179 146.509 926.148 146.301C925.265 146.123 924.195 146.268 923.769 146.624C922.759 147.471 918.195 149.075 917.441 148.847C917.119 148.75 916.21 149.034 915.423 149.479C914.637 149.924 913.827 150.113 913.624 149.899C913.422 149.685 911.954 149.928 910.363 150.437C906.394 151.71 904.243 151.612 902.186 150.065C901.106 149.252 900.002 148.919 899.296 149.192C898.241 149.6 898.249 149.514 899.394 148.099C900.439 146.809 900.469 146.629 899.581 146.971C898.83 147.26 898.625 147.103 898.871 146.426C899.061 145.903 899.434 145.475 899.699 145.475C899.964 145.475 900.332 144.866 900.516 144.122C900.7 143.378 901.222 142.823 901.675 142.888C903.929 143.211 904.738 142.869 903.922 141.936C903.481 141.432 902.893 141.167 902.614 141.345C902.335 141.524 902.195 141.131 902.303 140.471C902.411 139.811 902.22 139.265 901.879 139.257C900.81 139.232 898.158 136.069 898.968 135.784C899.373 135.641 899.705 135.116 899.705 134.616C899.705 134.049 899.328 133.86 898.701 134.114C897.854 134.457 897.805 134.308 898.39 133.154C898.771 132.402 899.686 131.584 900.422 131.338C901.16 131.09 902.347 130.228 903.063 129.422C903.778 128.615 905.378 127.605 906.617 127.178C909.299 126.253 910.611 124.811 911.033 122.326C911.35 120.45 910.122 119.109 908.613 119.684C908.217 119.835 907.719 119.66 907.506 119.296C907.293 118.932 906.638 118.797 906.052 118.995C905.145 119.302 905.125 119.25 905.916 118.649C906.732 118.029 906.722 117.94 905.837 117.931C905.281 117.925 904.478 117.478 904.053 116.937C903.519 116.257 903.495 115.953 903.977 115.953C904.36 115.953 904.674 116.248 904.674 116.609C904.674 116.969 905.155 117.265 905.744 117.265C906.64 117.265 906.599 117.105 905.484 116.281C904.168 115.308 902.189 115.546 902.189 116.679C902.189 117.001 901.88 117.265 901.502 117.265C901.124 117.265 900.975 116.822 901.172 116.281C901.389 115.681 901.173 115.296 900.617 115.296C900.116 115.296 899.705 114.97 899.705 114.57C899.705 114.171 899.286 114.014 898.773 114.222C898.261 114.429 897.842 114.316 897.842 113.971C897.842 113.625 897.212 113.323 896.444 113.299C895.676 113.275 894.115 113.231 892.976 113.2C891.595 113.164 891.181 112.961 891.734 112.591C892.605 112.008 892.056 111.786 890.229 111.983C889.628 112.048 888.684 111.621 888.13 111.037C887.576 110.451 886.704 110.142 886.192 110.35C885.681 110.557 884.878 110.39 884.409 109.979C883.757 109.407 883.552 109.443 883.537 110.132C883.524 110.756 883.329 110.688 882.9 109.912C882.52 109.224 881.885 108.951 881.258 109.205C880.478 109.521 880.333 109.35 880.646 108.488C881.089 107.268 880.372 107.508 878.493 109.206C877.703 109.921 877.361 109.95 877 109.334C876.682 108.788 876.792 108.702 877.345 109.064C877.81 109.368 878.006 109.336 877.804 108.99C877.609 108.657 876.029 108.395 874.292 108.408C872.192 108.424 871.134 108.161 871.134 107.623C871.134 107.178 870.506 106.459 869.738 106.025C868.871 105.535 868.637 105.132 869.121 104.962C869.549 104.811 869.733 104.403 869.529 104.056C869.306 103.674 868.767 103.761 868.167 104.275C867.318 105.005 867.233 104.962 867.582 103.979C867.806 103.348 867.718 102.831 867.388 102.831C867.057 102.831 866.786 103.127 866.786 103.487C866.786 103.848 866.506 104.143 866.165 104.143C865.823 104.143 865.544 103.701 865.544 103.159C865.544 102.618 865.789 102.175 866.087 102.175C866.386 102.175 866.631 101.437 866.631 100.535C866.631 99.6331 866.409 98.895 866.138 98.895C865.867 98.895 865.133 98.7271 864.508 98.5217C863.773 98.281 863.872 98.4673 864.787 99.0479C866.324 100.023 866.034 100.863 864.161 100.863C863.515 100.863 863.163 100.561 863.379 100.191C863.596 99.8214 863.543 99.5609 863.261 99.6128C861.954 99.8522 861.196 99.4684 861.196 98.567C861.196 97.9549 860.61 97.5829 859.643 97.5829C858.789 97.5829 858.09 97.9274 858.09 98.3485C858.09 98.7691 857.906 98.9187 857.68 98.6805C857.455 98.4424 856.879 98.8366 856.402 99.5576C855.775 100.502 855.24 100.709 854.482 100.298C853.905 99.9847 853.013 99.8791 852.5 100.063C851.822 100.308 851.891 100.016 852.752 98.9908C853.403 98.2167 853.679 97.5829 853.367 97.5829C853.055 97.5829 852.455 98.1648 852.035 98.8767C851.586 99.6351 850.882 100.014 850.332 99.7906C849.817 99.5819 849.395 99.7374 849.395 100.137C849.395 100.536 849.721 100.863 850.12 100.863C850.518 100.863 850.675 101.042 850.469 101.259C850.263 101.478 849.238 101.205 848.191 100.654C847.145 100.103 846.289 99.8929 846.289 100.187C846.289 100.482 845.8 100.92 845.202 101.16C844.369 101.495 844.286 101.416 844.843 100.823C845.399 100.23 845.195 99.6823 843.976 98.4876C842.034 96.587 841.694 96.5241 842.555 98.2239C843.079 99.2592 843.034 99.4494 842.329 99.1634C841.843 98.9665 841.261 99.1207 841.036 99.5065C840.153 101.015 838.799 100.263 839.219 98.4968C839.482 97.3881 839.336 96.5975 838.805 96.2505C838.128 95.8089 838.127 95.5328 838.797 94.6805C839.846 93.3441 839.601 93.3763 836.662 94.9587C835.322 95.6804 833.508 96.2708 832.632 96.2708C831.08 96.2708 828.898 98.2147 828.898 99.597C828.898 99.9756 828.614 100.099 828.267 99.8726C827.92 99.6456 827.778 99.2165 827.953 98.9187C828.127 98.6201 827.866 98.2127 827.373 98.0133C826.748 97.7601 826.576 97.9877 826.802 98.7645C827.083 99.7223 827.028 99.7138 826.414 98.7022C825.95 97.9365 825.282 97.6656 824.504 97.9267C823.847 98.1471 823.308 98.0441 823.308 97.6971C823.308 97.3507 822.903 96.9033 822.408 96.7025C821.822 96.465 821.622 96.6526 821.836 97.2405C822.063 97.865 821.806 98.0441 821.002 97.8224C819.949 97.5318 819.08 94.8997 820.087 95.0505C820.321 95.0853 821.072 95.0604 821.755 94.9948L822.998 94.8754L821.755 94.3545C818.924 93.1664 815.859 92.8941 816.211 93.8618C816.396 94.3722 816.094 94.9731 815.54 95.1975C814.984 95.4232 814.73 95.9402 814.972 96.3541C815.277 96.8757 814.817 97.0115 813.458 96.8009C811.504 96.4978 810.617 97.7509 812.283 98.4607C812.857 98.7048 812.837 98.8052 812.208 98.8432C811.576 98.8819 811.53 99.1181 812.029 99.7538C812.534 100.395 812.395 100.891 811.485 101.715C810.457 102.644 810.265 102.665 810.265 101.841C810.265 101.303 810.754 100.854 811.352 100.842C812.332 100.824 812.342 100.743 811.452 100.022C810.91 99.5826 810.584 98.8537 810.728 98.4023C810.88 97.9254 810.637 97.7246 810.147 97.9234C809.654 98.1235 808.845 97.4425 808.197 96.2839C806.95 94.054 806.41 93.8683 805.296 95.2867C804.465 96.3436 803.127 96.6677 803.71 95.6705C803.903 95.3405 803.788 94.9718 803.455 94.8505C802.109 94.3623 804.547 91.3215 807.983 89.2018C809.974 87.9737 811.443 86.8 811.248 86.594C811.053 86.388 810.403 86.6688 809.803 87.2185C809.203 87.7683 804.599 89.6171 799.572 91.3274C794.544 93.0378 790.492 94.7422 790.566 95.1155C790.639 95.4888 789.931 96.0235 788.992 96.3036C787.315 96.8042 786.536 96.0425 788.06 95.393C788.487 95.2113 788.207 95.0387 787.439 95.0105C786.635 94.981 786.041 95.3471 786.041 95.8726C786.041 96.8055 784.253 97.8801 783.69 97.2857C783.519 97.1053 783.838 96.7714 784.4 96.5444C784.961 96.3167 785.42 95.8562 785.42 95.5216C785.42 95.1864 784.791 95.2716 784.023 95.7112C782.564 96.5444 780.39 97.0371 778.277 97.0135C777.146 97.0004 777.132 97.0574 778.114 97.6466C778.842 98.0842 779.616 98.0553 780.496 97.5573C782.24 96.5719 782.707 97.2234 781.692 99.2263L780.861 100.867L779.436 99.8811C777.543 98.5716 777.002 98.6346 778.035 100.043C778.734 100.996 778.643 100.981 777.503 99.9539C776.261 98.8347 776.092 98.8189 775.74 99.7899C775.312 100.967 773.619 101.277 773.619 100.178C773.619 99.1647 771.513 99.7204 771.023 100.863C770.677 101.669 770.593 101.639 770.557 100.699C770.512 99.5137 769.271 99.0387 769.271 100.207C769.271 100.568 768.782 100.854 768.184 100.842C767.219 100.824 767.235 100.717 768.34 99.8804C769.023 99.3635 769.92 98.6346 770.332 98.2613C771.529 97.1788 771.987 97.476 771.055 98.731C770.283 99.7715 770.305 99.7945 771.29 98.979C771.888 98.4837 772.377 97.4045 772.377 96.5805C772.377 95.124 777.287 92.4913 778.202 93.457C779.228 94.5421 780.408 92.9544 779.81 91.2927C779.305 89.892 779.389 89.3881 780.233 88.736C780.812 88.2892 781.35 87.5138 781.429 87.0125C781.508 86.512 781.759 85.6145 781.987 85.0194C782.406 83.9206 777.787 82.4648 776.89 83.4128C776.685 83.6286 776.984 83.8057 777.553 83.8057C778.122 83.8057 778.588 84.0518 778.588 84.3522C778.588 85.4485 777.806 85.6788 776.658 84.9217C775.747 84.3207 775.203 84.3306 774.24 84.9657C773.504 85.4511 772.998 85.5154 772.998 85.1231C772.998 84.7596 773.277 84.4618 773.619 84.4618C773.961 84.4618 774.24 84.1666 774.24 83.8057C774.24 83.4449 773.245 83.1497 772.03 83.1497C769.659 83.1497 769.582 81.8756 771.948 81.7857C773.185 81.7385 773.161 81.6768 771.681 81.1034C770.376 80.5976 769.463 80.8036 767.085 82.1394C765.453 83.0559 763.782 83.8057 763.374 83.8057C762.013 83.8057 758.714 85.8566 758.089 87.0913C757.749 87.7611 756.912 88.4965 756.228 88.7262C755.545 88.9551 754.986 89.5653 754.986 90.0822C754.986 90.5992 754.583 91.0224 754.091 91.0224C752.897 91.0224 752.407 91.9664 752.897 93.3179C753.24 94.2613 753.516 94.1518 754.814 92.5569L756.33 90.6943L755.092 92.6828C753.168 95.7702 751.352 95.5413 751.564 92.238C751.677 90.4759 751.45 89.4944 750.874 89.2615C750.403 89.0706 750.017 88.633 750.017 88.2892C750.017 87.9455 750.366 87.8864 750.793 88.1574C751.245 88.4441 751.18 88.1344 750.638 87.4173C749.786 86.2909 749.806 86.224 750.862 86.6425C751.753 86.9955 751.931 86.8603 751.638 86.056C751.43 85.4806 751.259 84.8869 751.259 84.736C751.259 84.5851 750.071 84.4526 748.619 84.4421C746.468 84.4257 746.188 84.2938 747.104 83.7309C747.723 83.3511 748.642 83.2074 749.147 83.4115C750.494 83.9579 751.048 81.8087 749.807 80.8502C748.217 79.6221 748.569 78.5809 750.926 77.5411C752.109 77.0188 753.397 75.9606 753.787 75.1898C754.314 74.1499 754.625 74.0043 754.988 74.6255C755.366 75.2718 755.906 75.1419 757.346 74.0581C759.44 72.4835 761.601 72.2775 763.986 73.425C767.164 74.9549 768.148 72.4218 765.028 70.741C761.871 69.0399 759.853 68.9999 758.896 70.6183C758.46 71.3564 755.801 72.7033 752.379 73.9196C746.645 75.9593 733.114 86.4923 735.258 87.2474C735.69 87.3996 735.496 87.9238 734.761 88.5963C729.064 93.8054 727.719 94.9167 725.98 95.8549C723.437 97.2254 722.148 97.2083 720.657 95.7821L719.459 94.6379L717.932 96.6021C716.698 98.1911 716.443 98.3157 716.597 97.2549C716.701 96.5332 717.067 95.7322 717.408 95.4744C718.225 94.859 718.236 93.4439 717.429 92.8318C717.044 92.5392 718.021 91.1378 719.877 89.3225C722.536 86.7232 722.832 86.1951 721.998 85.5449C717.675 82.18 719.123 78.5278 724.551 79.1057C726.157 79.277 730.706 77.7792 731.447 76.8351C732.013 76.1161 731.88 75.9331 730.791 75.9331C729.209 75.9331 725.524 72.3313 726.099 71.3479C726.313 70.9831 727.589 70.6846 728.936 70.6846C730.282 70.6846 731.383 70.4137 731.383 70.0823C731.383 69.751 731.54 69.0478 731.732 68.5203C732.278 67.0153 729.139 66.2215 720.687 65.7281C716.492 65.4827 711.928 65.0707 710.542 64.8116C706.547 64.0657 705.679 66.6531 709.279 68.5741C713.036 70.5796 719.818 72.5741 720.289 71.813C720.507 71.4607 721.026 71.3951 721.444 71.6674C723.657 73.1127 718.782 75.2567 714.211 74.8486C710.552 74.5219 709.515 74.6544 708.311 75.6011C707.388 76.3267 707.251 76.6075 707.936 76.3621C709.143 75.9311 709.388 77.1605 708.475 79.0585C708.173 79.6851 707.567 81.009 707.128 82.0016C706.688 82.9935 706.114 83.8057 705.851 83.8057C704.978 83.8057 701.322 87.6988 701.761 88.162C701.997 88.4119 702.191 88.2722 702.191 87.8516C702.191 87.4305 702.471 87.086 702.812 87.086C703.154 87.086 703.433 87.5289 703.433 88.0701C703.433 88.7301 702.808 89.0542 701.533 89.0542C700.254 89.0542 699.778 88.8062 700.077 88.2964C701.523 85.8244 700.96 83.4541 698.619 82.1571C697.338 81.4472 696.067 80.4946 695.794 80.04C695.52 79.5853 694.417 79.2133 693.34 79.2133C690.404 79.2133 692.052 78.0252 695.359 77.7582L698.154 77.5332L696.29 76.6829C695.266 76.2152 692.191 75.7257 689.458 75.5939C686.725 75.4627 684.979 75.5066 685.576 75.6923C687.088 76.1607 686.948 77.2012 685.43 76.782C682.434 75.9541 682.032 77.2898 684.829 78.7777C686.716 79.7821 687.536 80.6075 687.411 81.3764C687.295 82.0869 687.822 82.7416 688.834 83.1484C690.482 83.8103 690.2 85.8848 688.278 87.2402C686.966 88.1652 686.743 87.729 687.618 85.9471C688.427 84.3011 688.399 84.1128 687.271 83.6719C686.595 83.4082 686.042 82.8873 686.042 82.5146C686.042 82.1426 685.204 81.8376 684.179 81.8376C682.074 81.8376 681.669 82.8184 683.558 83.3399C685.282 83.8162 685.111 85.0103 683.247 85.5043C682.393 85.7306 681.694 86.1971 681.694 86.5395C681.694 86.8826 681.373 86.9535 680.979 86.6963C680.482 86.3722 680.605 85.9655 681.385 85.3639C682.404 84.5766 682.413 84.4605 681.482 84.0833C680.92 83.8549 680.614 83.4042 680.803 83.0808C680.992 82.758 680.324 82.4936 679.319 82.4936C678.014 82.4936 677.399 82.8689 677.166 83.8057C676.966 84.6166 676.319 85.1179 675.475 85.1179C674.55 85.1179 674.217 85.419 674.446 86.0475C674.918 87.3478 673.151 87.9133 672.494 86.6721C672.198 86.1131 671.708 85.705 671.406 85.7641C671.103 85.8238 670.746 85.524 670.612 85.0982C670.438 84.5504 670.946 84.4579 672.345 84.782C674.759 85.3422 674.807 83.8727 672.456 81.3501C670.916 79.6962 671.263 78.4792 673.366 78.1532C674.116 78.0364 674.296 78.3985 674.08 79.5893C673.834 80.948 674.03 81.1802 675.414 81.1717C676.689 81.1638 676.837 81.0254 676.104 80.5255C675.048 79.8045 676.11 79.5748 679.52 79.7881L681.384 79.9042L680.178 78.9024C679.515 78.3519 678.343 77.9012 677.575 77.9012C676.806 77.9012 676.005 77.606 675.794 77.2452C675.571 76.8633 676.188 76.5891 677.269 76.5891C684.556 76.5891 683.105 73.9911 675.607 73.6126C673.455 73.5043 671.26 73.0346 670.729 72.5695C669.932 71.8701 669.436 71.9219 667.881 72.8647C666.186 73.8921 665.892 73.9058 664.946 73.0018C663.77 71.8773 661.412 71.6536 661.094 72.6357C660.98 72.9874 660.203 73.0858 659.368 72.8535L657.848 72.4323L659.057 71.9324C660.394 71.38 658.706 71.0632 655.763 71.3151C654.193 71.4496 653.864 70.3723 655.297 69.7911C655.809 69.5837 656.229 69.6284 656.229 69.8914C656.229 70.5278 665.31 70.4963 665.914 69.858C667.114 68.5905 662.033 66.7529 659.047 67.3735C658.717 67.4417 657.081 66.8218 655.411 65.9951L652.374 64.4927L651.526 65.7176C650.921 66.5921 650.45 66.7535 649.882 66.2812C648.731 65.3233 644.819 67.1386 645.283 68.4146C645.474 68.9415 645.36 69.3725 645.029 69.3725C644.698 69.3725 644.427 69.818 644.427 70.3618C644.427 71.1753 644.641 71.2108 645.626 70.5613C646.505 69.9813 646.675 69.4742 646.262 68.66C645.834 67.8157 645.994 67.468 646.927 67.2101C647.602 67.0238 648.154 67.1065 648.154 67.3945C648.154 67.6825 648.843 68.1011 649.685 68.3241C650.79 68.6167 651.106 69.032 650.822 69.8147C650.595 70.4386 650.683 70.7332 651.029 70.5075C651.983 69.8842 653.202 71.0159 652.792 72.145C652.415 73.1822 649.396 74.2024 649.396 73.2924C649.396 73.0228 648.558 72.6718 647.533 72.513C646.508 72.3543 645.67 72.4396 645.67 72.7033C645.67 72.9664 644.272 73.2846 642.564 73.4092C640.856 73.5345 639.458 73.4512 639.458 73.2242C639.459 72.9979 638.649 72.4573 637.658 72.0243C635.831 71.2245 634.692 68.4114 635.882 67.6346C636.772 67.0533 635.065 66.1027 633.247 66.1677L631.695 66.2228L633.247 66.7194L634.8 67.216L633.097 67.7081C632.159 67.979 631.547 68.4639 631.736 68.7866C631.924 69.1088 631.713 69.3968 631.266 69.4256C630.818 69.4552 631.259 69.8554 632.246 70.3152C634.034 71.1491 633.602 72.351 631.78 71.6123C631.252 71.3984 630.187 71.693 629.411 72.2664C628.636 72.8398 628.344 73.3088 628.761 73.3088C629.179 73.3088 629.521 73.734 629.521 74.2542C629.521 74.7745 629.844 75.4102 630.238 75.6674C630.66 75.9429 630.787 75.8491 630.548 75.4397C630.293 75.0041 630.598 74.8696 631.363 75.0808C632.035 75.2665 632.749 75.9619 632.948 76.6265C633.187 77.4197 633.674 77.6998 634.366 77.4433C635.152 77.152 635.25 77.2498 634.749 77.8264C634.038 78.6439 632.005 78.1663 632.005 77.1815C632.005 76.8627 631.461 77.0943 630.795 77.6965C630.129 78.2988 629.726 79.0336 629.9 79.3301C630.074 79.6267 629.779 79.8694 629.247 79.8694C628.021 79.8694 628.007 78.9371 629.216 77.6611C630.219 76.6016 628.146 74.2247 626.918 75.0264C626.622 75.2193 625.851 74.6905 625.203 73.8507L624.026 72.3247L625.257 71.9967C627.034 71.523 626.985 70.5226 625.173 70.2765C624.319 70.1604 622.551 69.9026 621.245 69.7031C619.939 69.5044 619.004 69.57 619.167 69.8488C619.536 70.4812 607.729 70.4957 606.778 69.8639C606.397 69.6106 605.57 70.0036 604.941 70.7371C603.681 72.2086 601.45 72.0105 599.614 70.2628C599.006 69.6841 598.437 69.5457 598.216 69.9236C598.011 70.2733 596.762 70.4064 595.44 70.2195C592.804 69.8455 592.18 70.3454 592.85 72.2946L593.291 73.5772L594.463 72.1306C595.601 70.7279 597.031 70.0764 596.325 71.2823C596.133 71.6116 597.165 72.0827 598.618 72.3293C600.071 72.5767 601.863 73.1822 602.601 73.6756C603.337 74.1683 605.014 74.638 606.327 74.7194C607.64 74.8014 609.327 75.2783 610.077 75.7809C611.076 76.4494 611.742 76.5091 612.562 76.0052C613.512 75.422 613.374 75.3137 611.664 75.2967C610.553 75.2862 609.645 74.9654 609.645 74.5849C609.645 74.1689 610.821 73.9728 612.595 74.0928C614.533 74.224 615.493 74.5717 615.393 75.1058C615.301 75.5919 616.233 76.0859 617.711 76.3359C619.197 76.5865 620.022 77.026 619.781 77.4387C619.533 77.8619 619.775 77.9642 620.413 77.7051C620.981 77.4748 621.454 77.4984 621.463 77.7576C621.472 78.0174 622.59 78.9529 623.948 79.8373C625.305 80.7216 626.415 81.8625 626.415 82.3723C626.415 83.0283 626.959 83.2146 628.28 83.0093C629.557 82.8118 630.467 83.0979 631.171 83.9192C631.736 84.5786 631.898 85.1179 631.531 85.1179C631.165 85.1179 630.411 85.3015 629.857 85.5266C629.225 85.7824 628.916 85.6283 629.03 85.1139C629.129 84.6619 628.581 84.2322 627.813 84.1587C627.044 84.0852 626.415 84.387 626.415 84.8292C626.415 85.7339 625.043 86.43 623.259 86.43C622.603 86.43 622.067 86.7252 622.067 87.086C622.067 88.0301 620.366 87.8956 619.994 86.922C619.744 86.266 619.671 86.266 619.632 86.922C619.605 87.3734 619.024 87.7421 618.341 87.7421C617.658 87.7421 617.099 88.0373 617.099 88.3981C617.099 88.759 616.37 89.0542 615.479 89.0542C614.32 89.0542 613.958 88.7839 614.205 88.1036C614.73 86.6596 612.786 86.3427 609.614 87.3543L606.789 88.2564L603.271 86.5231C601.336 85.5699 599.743 84.6068 599.73 84.3837C599.683 83.5354 604.43 83.2159 606.648 83.9173L608.963 84.6501L613.011 81.768C619.056 77.4636 618.002 75.1386 611.869 79.2468C608.373 81.5889 607.51 81.4361 610.287 78.9667L612.225 77.2452H610.661C609.801 77.2452 608.925 76.9499 608.714 76.5891C607.979 75.3341 601.415 75.8386 599.086 77.3298L596.912 78.7213L598.004 77.4335L599.096 76.1463L597.953 75.0533C597.072 74.2109 596.149 74.0554 593.93 74.3769C591.316 74.7554 590.848 74.6052 588.836 72.7394C586.615 70.6794 583.567 69.9675 583.549 71.5047C583.542 72.0512 583.339 71.9967 582.937 71.3407C582.437 70.5239 582.33 70.579 582.305 71.6687C582.277 72.8811 582.176 72.8562 580.983 71.3407C579.936 70.0102 579.089 69.6841 576.501 69.6146C569.839 69.4355 569.209 69.3568 569.567 68.744C569.769 68.3983 569.157 68.5445 568.206 69.0681C567.255 69.5916 565.779 70.0272 564.925 70.0358C564.071 70.0443 561.276 70.6498 558.714 71.3813C556.152 72.1128 553.426 72.8798 552.658 73.0864C551.177 73.484 550.668 75.8773 552.037 76.0059C552.464 76.0466 553.558 76.12 554.469 76.1699C555.379 76.2204 556.316 76.4638 556.551 76.7111C556.786 76.9591 557.687 76.8765 558.554 76.5288C561.297 75.4272 560.774 76.3936 557.768 77.9793C556.179 78.8171 555.253 79.607 555.71 79.7343C556.166 79.8615 557.211 80.3129 558.031 80.7374C558.851 81.1618 561.557 81.5095 564.042 81.5095C567.959 81.5095 568.382 81.6184 567.21 82.3257C565.698 83.2376 557.583 82.8276 556.571 81.7877C556.247 81.4544 555.521 81.1815 554.959 81.1815C554.01 81.1815 551.882 79.2606 551.882 78.4031C551.882 78.1945 552.484 78.1906 553.221 78.3939C554.139 78.6478 554.421 78.5251 554.116 78.0049C553.572 77.0739 550.238 76.9959 549.708 77.9012C549.497 78.2621 548.633 78.5573 547.788 78.5573C545.594 78.5573 544.705 81.1074 546.369 82.6242C547.929 84.0445 548.342 86.2135 547.146 86.6983C546.641 86.9036 546.386 86.7993 546.58 86.468C547.021 85.7136 546.513 85.3927 543.962 84.8148C542.354 84.4506 541.944 84.5681 541.944 85.3941C541.944 86.098 541.397 86.4149 540.236 86.384C538.756 86.344 538.694 86.2692 539.77 85.8257C540.453 85.5443 541.012 84.9033 541.012 84.4021C541.012 83.9009 541.835 83.3399 542.842 83.1556L544.671 82.821L542.91 81.974C541.942 81.5076 540.633 80.433 540.002 79.5853C538.621 77.7307 532.974 76.309 527.192 76.3602C522.99 76.3975 522.555 76.2112 524.708 75.2973C525.779 74.8427 525.851 74.6944 525.019 74.6623C523.888 74.619 523.45 73.3088 524.566 73.3088C524.915 73.3088 525.513 72.5846 525.895 71.6989C526.277 70.8139 527.03 69.9997 527.57 69.8901C528.382 69.7248 528.319 69.463 527.202 68.3641C525.843 67.0264 520.32 65.095 519.707 65.7432C519.525 65.9354 519.843 66.0922 520.412 66.0922C520.981 66.0922 521.447 66.314 521.447 66.5843C521.447 67.0514 519.062 67.0369 513.802 66.537L511.435 66.3126L513.008 67.9738C514.097 69.1232 515.256 69.6349 516.772 69.6349C519.386 69.6349 519.636 70.3533 517.255 71.0225C516.316 71.2862 515.874 71.6306 516.274 71.7868C516.793 71.9902 516.704 72.6233 515.963 73.999L514.925 75.9258L511.82 75.5263C510.112 75.3065 508.404 74.7174 508.025 74.2175C507.213 73.1481 504.584 73.0136 503.655 73.9944C502.954 74.7351 497.434 75.2809 496.853 74.6669C496.659 74.4609 496.313 74.2824 496.085 74.27C494.867 74.2011 492.823 72.433 493.096 71.6825C493.513 70.5331 492.855 69.8908 492.001 70.6144C490.523 71.8668 486.916 72.2736 487.852 71.0822C488.321 70.4852 488.556 69.839 488.372 69.6454C488.023 69.2767 470.425 78.4326 468.429 80.0216L467.274 80.9414L468.749 82.7521C469.776 84.0137 470.88 84.5969 472.389 84.6763C473.795 84.7498 474.709 85.192 474.999 85.9379C475.485 87.189 477.046 87.4777 477.659 86.43C478.156 85.581 479.211 85.581 479.211 86.43C479.211 87.3976 477.046 89.5154 475.539 90.0199C474.359 90.4162 472.354 93.4399 472.396 94.7619C472.405 95.0505 473.174 96.1842 474.104 97.2805C475.034 98.3768 475.542 98.8813 475.231 98.401C473.107 95.1083 486.09 95.3169 489.032 98.6228C489.821 99.5098 490.715 100.073 491.019 99.8752C491.323 99.6764 491.875 100.113 492.246 100.845C492.732 101.805 492.731 102.175 492.24 102.175C491.866 102.175 491.76 102.516 492.003 102.933C492.284 103.412 492.173 103.512 491.703 103.204C491.293 102.937 490.53 103.094 490.006 103.553C489.346 104.132 488.926 104.171 488.636 103.682C488.357 103.213 487.913 103.323 487.306 104.013C486.498 104.931 486.516 105 487.462 104.617C488.048 104.379 488.528 104.471 488.528 104.82C488.528 105.17 488.249 105.456 487.907 105.456C487.565 105.456 487.286 105.797 487.286 106.213C487.286 106.699 487.676 106.617 488.373 105.985C490.234 104.297 490.87 104.116 491.251 105.166C491.482 105.803 491.365 106.014 490.936 105.734C490.56 105.488 490.049 105.635 489.8 106.061C489.551 106.487 488.603 106.919 487.695 107.021C486.785 107.123 485.833 107.451 485.577 107.749C485.321 108.046 485.442 108.09 485.846 107.846C487.103 107.085 487.473 108.773 486.261 109.743C484.763 110.942 485.91 110.926 487.907 109.72C488.761 109.204 490.475 108.772 491.716 108.759C493.411 108.742 494.051 108.421 494.286 107.473C494.505 106.587 494.342 106.314 493.737 106.559C493.264 106.751 492.876 106.743 492.876 106.541C492.876 106.054 496.944 104.811 499.863 104.407C503.059 103.964 502.795 104.62 499.416 105.519C497.89 105.925 496.282 106.722 495.845 107.291C495.159 108.184 495.219 108.258 496.29 107.833C496.973 107.562 500.187 107.073 503.433 106.747C506.68 106.421 510.347 105.889 511.583 105.566C513.2 105.142 514.418 105.238 515.925 105.907C517.331 106.532 519.245 106.721 521.752 106.484C524.091 106.263 525.02 106.341 524.242 106.694C523.559 107.004 522.51 107.165 521.913 107.05C521.315 106.936 520.826 107.1 520.826 107.413C520.826 107.727 521.315 108.119 521.913 108.284L523 108.584L521.913 108.66C521.315 108.702 520.826 108.982 520.826 109.282C520.826 110.356 521.592 110.606 522.922 109.966C523.905 109.493 524.766 109.587 526.086 110.31C527.594 111.136 527.721 111.376 526.839 111.733C526.256 111.97 525.363 111.798 524.855 111.353C524.114 110.703 523.93 110.721 523.922 111.444C523.914 112.199 523.827 112.201 523.379 111.454C523.035 110.883 522.702 110.807 522.447 111.243C521.901 112.176 524.303 112.925 527.658 112.867C529.196 112.841 530.856 113.155 531.349 113.566C532.037 114.14 532.137 114.123 531.778 113.492C531.465 112.943 531.733 112.672 532.591 112.672C533.756 112.672 534.04 113.105 533.774 114.476C533.722 114.747 533.225 114.887 532.669 114.788C532.114 114.688 530.729 115.621 529.592 116.859L527.526 119.111L528.989 119.955C529.794 120.42 531.292 120.757 532.317 120.706C533.992 120.622 533.941 120.683 531.819 121.309C529.245 122.066 528.676 124.327 531.15 123.965C531.858 123.861 532.794 124.231 533.229 124.785C533.768 125.471 533.799 125.793 533.324 125.793C532.941 125.793 532.627 125.507 532.627 125.158C532.627 124.809 532.206 124.693 531.691 124.902C530.588 125.349 527.466 123.373 527.955 122.538C528.763 121.155 525.417 117.312 522.167 115.89C520.129 114.999 518.593 113.846 518.185 112.9C517.82 112.053 517.007 111.36 516.378 111.36C514.751 111.36 514.966 110.388 516.789 109.511C517.643 109.1 518.337 108.389 518.332 107.93C518.326 107.382 518.166 107.334 517.866 107.789C517.293 108.66 514.351 109.833 511.496 110.328C510.247 110.545 508.009 111.842 506.277 113.353C503.927 115.404 502.854 115.935 501.504 115.71C499.524 115.38 498.122 116.685 498.713 118.31C498.983 119.052 499.544 119.254 500.581 118.979C502.248 118.537 503.168 119.908 502.02 121.121C501.505 121.665 501.72 121.869 502.845 121.903C504.106 121.942 504.174 122.03 503.24 122.419L502.114 122.888L503.64 124.628C504.481 125.585 505.337 126.19 505.544 125.972C505.75 125.753 505.919 126.197 505.919 126.957C505.919 127.718 506.173 128.505 506.482 128.708C507.413 129.314 506.515 131.552 505.194 131.916C504.517 132.103 503.811 132.875 503.624 133.631C503.354 134.72 503.103 134.848 502.42 134.249C501.886 133.781 501.768 133.211 502.109 132.759C503.524 130.882 503.55 129.074 502.162 129.074C501.111 129.074 500.879 128.778 501.131 127.759C501.383 126.74 501.085 126.359 499.806 126.066C498.898 125.857 497.317 125.342 496.292 124.92C495.267 124.498 493.311 124.118 491.944 124.074C490.578 124.031 487.62 123.782 485.371 123.519C482.076 123.136 481.096 123.24 480.321 124.059C479.792 124.618 479.142 124.868 478.876 124.614C478.61 124.361 478.568 124.67 478.782 125.301C478.997 125.932 478.91 126.449 478.59 126.449C478.27 126.449 478.156 126.856 478.336 127.353C478.707 128.374 474.725 129.466 473.515 128.676C473.106 128.409 472.978 128.505 473.212 128.904C473.433 129.282 473.182 129.767 472.654 129.982C472.104 130.205 471.856 130.094 472.073 129.722C472.282 129.366 472.166 129.074 471.816 129.074C470.849 129.074 469.763 131.534 470.514 132.025C470.857 132.248 471.137 132.118 471.137 131.737C471.137 131.355 471.417 131.042 471.758 131.042C472.1 131.042 472.379 131.475 472.379 132.006C472.379 132.626 472.766 132.837 473.466 132.599C474.325 132.308 474.37 132.368 473.68 132.886C473.2 133.247 472.139 133.414 471.323 133.258C469.167 132.845 467.516 134.704 469.427 135.393C471.348 136.086 471.813 136.103 473.777 135.55C475.793 134.983 475.967 135.626 474.243 137.274C473.391 138.089 473 138.195 473 137.613C473 136.978 472.209 136.862 469.875 137.154C468.156 137.369 466.89 137.305 467.062 137.01C467.235 136.715 466.615 136.608 465.685 136.772C464.755 136.935 463.318 137.069 462.493 137.07C461.668 137.071 460.597 137.489 460.114 137.999C459.631 138.509 459.002 138.774 458.717 138.588C458.432 138.401 457.478 138.538 456.599 138.892C454.624 139.685 453.345 139.219 452.933 137.557C452.299 134.997 447.819 136.089 447.442 138.896C447.263 140.229 446.741 140.618 444.513 141.082C442.702 141.459 441.704 142.043 441.506 142.839C441.178 144.166 438.239 145.058 437.317 144.112C436.993 143.779 436.457 143.507 436.127 143.507C435.797 143.507 435.708 143.698 435.929 143.932C436.333 144.358 434.386 146.444 433.037 147.031C432.542 147.246 432.608 147.56 433.249 148.04C434.258 148.793 432.4 149.125 428.591 148.871C427.17 148.776 426.949 148.902 427.659 149.397C428.309 149.851 428.356 150.075 427.814 150.14C427.388 150.19 426.759 150.306 426.417 150.395C426.075 150.485 425.516 150.596 425.175 150.641C424.833 150.687 424.554 151.303 424.554 152.013C424.554 153.479 422.316 155.116 421.941 153.924C421.803 153.49 420.569 153.966 418.86 155.111C408.657 161.945 387.527 169.928 375.804 171.376C371.423 171.917 367.696 172.51 367.521 172.695C367.347 172.879 367.478 173.029 367.812 173.029C368.146 173.029 369.004 173.605 369.719 174.308C370.586 175.162 372.017 175.625 374.028 175.702C379.952 175.928 380.227 176.632 374.554 177.051C363.036 177.903 359.296 178.719 357.211 180.838C356.16 181.906 354.469 182.996 353.455 183.261C352.44 183.525 350.763 184.268 349.728 184.911C348.693 185.554 346.377 186.257 344.581 186.473C342.785 186.689 339.949 187.59 338.28 188.476C336.61 189.362 334.889 190.087 334.457 190.087C333.308 190.087 328.281 193.313 328.281 194.051C328.281 194.397 327.589 194.679 326.743 194.679C325.897 194.679 324.29 195.268 323.172 195.989C322.053 196.709 320.579 197.305 319.896 197.313C319.213 197.321 317.431 198.202 315.937 199.272C314.443 200.342 312.963 201.049 312.649 200.844C312.335 200.639 311.741 200.742 311.328 201.073C310.917 201.405 309.601 202.07 308.405 202.553C307.21 203.034 305.03 204.265 303.561 205.286C302.092 206.309 300.549 207.144 300.132 207.144C299.715 207.144 297.843 208.026 295.971 209.104C294.099 210.182 290.471 212.149 287.909 213.475C285.347 214.802 278.778 218.692 273.313 222.119C251.397 235.861 250.359 236.692 256.947 235.233C261.355 234.256 262.642 234.715 261.831 236.971C261.203 238.714 261.705 239.152 262.892 237.899C263.275 237.494 263.441 236.756 263.26 236.259C263.079 235.762 263.241 235.355 263.619 235.355C263.997 235.355 264.236 235.006 264.151 234.58C263.977 233.711 269.257 232.209 273.649 231.878C275.201 231.76 276.808 231.444 277.221 231.175C277.633 230.905 277.971 230.957 277.971 231.291C277.971 232.773 283.816 232.801 284.87 231.325C285.545 230.38 286.52 229.921 287.772 229.959C288.929 229.993 290.098 229.502 290.795 228.688C291.42 227.958 292.494 227.056 293.181 226.683C293.957 226.262 293.63 226.895 292.318 228.353C291.156 229.645 289.409 230.886 288.436 231.112C287.463 231.338 286.666 231.76 286.666 232.05C286.666 232.525 284.861 233.392 283.25 233.69C278.439 234.58 277.275 234.957 276.846 235.765C276.522 236.378 275.029 236.807 272.654 236.968C270.624 237.106 268.755 237.243 268.499 237.271C268.243 237.3 268.033 237.766 268.033 238.307C268.033 238.87 267.473 239.291 266.725 239.291C266.006 239.291 264.585 240.031 263.567 240.936C261.576 242.705 260.285 242.523 260.775 240.54C261.031 239.505 260.892 239.42 259.88 239.992C259.221 240.364 258.82 240.904 258.987 241.192C259.156 241.479 258.456 242.562 257.433 243.597L255.572 245.481L254.072 243.636L252.571 241.792L251.244 242.774L249.916 243.756L251.056 244.456C251.682 244.841 251.975 245.165 251.707 245.176C251.439 245.186 251.502 245.753 251.848 246.436C252.338 247.403 252.24 247.764 251.403 248.082C248.75 249.088 246.993 249.775 243.818 251.047C241.944 251.798 239.708 252.414 238.849 252.415C237.99 252.416 236.379 253.002 235.269 253.717C233.139 255.09 232.425 254.245 234.338 252.614C235.822 251.349 243.901 247.164 244.859 247.164C245.326 247.164 245.477 246.731 245.238 246.072C244.982 245.369 245.085 245.139 245.525 245.427C245.9 245.672 246.41 245.528 246.658 245.105C246.926 244.647 246.839 244.512 246.443 244.77C246.078 245.009 245.681 244.894 245.562 244.515C245.188 243.331 242.153 243.613 239.658 245.063C238.912 245.497 238 245.852 237.633 245.852C236.603 245.852 223.509 252.851 221.266 254.6C220.171 255.453 218.18 256.597 216.841 257.14C214.803 257.968 213.107 260.285 214.54 260.285C216.5 260.285 214.809 262.615 212.809 262.67C211.526 262.706 209.723 263.257 208.801 263.895C207.88 264.533 206.97 264.89 206.779 264.69C206.589 264.488 207.177 263.912 208.086 263.409C209.458 262.65 209.591 262.364 208.869 261.731C207.842 260.83 203.643 262.589 188.22 270.383C160.951 284.163 152.825 288.76 153.549 289.997C153.764 290.365 153.651 290.478 153.299 290.248C152.355 289.632 148.885 291.652 147.753 293.476C147.214 294.345 146.392 295.056 145.927 295.056C145.462 295.056 144.624 295.794 144.064 296.696C143.504 297.598 142.83 298.336 142.566 298.336C141.158 298.336 133.069 304.081 129.835 307.377C127.786 309.466 125.318 311.703 124.352 312.349C123.295 313.056 122.731 313.895 122.935 314.458C123.122 314.972 123.004 315.394 122.673 315.394C121.314 315.394 122.195 317.234 123.698 317.537C126.326 318.068 134.601 317.335 136.324 316.418C137.196 315.955 139.11 315.413 140.576 315.215L143.242 314.855L140.887 317.466C139.591 318.902 135.387 322.303 131.544 325.025C123.106 331 123.151 330.753 130.612 330.129C141.414 329.225 142.192 329.162 147.227 328.784C149.96 328.579 153.733 328.438 155.612 328.47C157.491 328.503 160.565 328.232 162.444 327.868C167.184 326.95 171.931 326.731 172.803 327.39C176.019 329.816 196.173 324.166 197.059 320.591C197.224 319.924 198.657 318.763 200.243 318.011C201.829 317.258 203.965 316.168 204.99 315.59C206.015 315.012 207.692 314.086 208.717 313.531C209.742 312.976 212.345 311.249 214.501 309.693C216.658 308.138 218.624 306.865 218.87 306.865C219.115 306.865 221.124 305.859 223.333 304.63C227.685 302.209 233.282 300.524 244.431 298.28C248.359 297.489 252.692 296.417 254.058 295.897C255.424 295.377 258.08 294.694 259.959 294.38C261.837 294.065 265.052 293.51 267.101 293.146C269.151 292.783 272.998 292.33 275.65 292.14C278.303 291.951 281.098 291.658 281.862 291.488C282.626 291.319 285.47 291.013 288.182 290.808C290.894 290.603 294.674 290.008 296.582 289.485C298.489 288.964 302.091 288.411 304.585 288.258C308.182 288.038 309.372 287.695 310.34 286.598C311.805 284.937 312.351 284.884 313.667 286.275C314.591 287.25 314.768 287.242 315.886 286.173C316.554 285.535 317.101 285.189 317.101 285.407C317.101 285.625 317.957 285.488 319.002 285.103C320.141 284.684 320.78 284.064 320.597 283.559C320.254 282.615 322.056 280.623 323.25 280.623C323.675 280.623 324.441 280.18 324.954 279.639C325.466 279.097 326.774 278.632 327.859 278.605C331.261 278.519 334.188 277.055 334.133 275.468C334.097 274.44 334.451 274.062 335.454 274.062C336.208 274.062 337.172 273.619 337.598 273.078C338.023 272.537 338.756 272.094 339.226 272.094C339.697 272.094 340.082 271.808 340.082 271.458C340.082 271.109 340.465 270.979 340.934 271.168C341.402 271.358 342.259 271.013 342.837 270.403C343.595 269.602 344.077 269.491 344.565 270.006C345.024 270.491 345.611 270.512 346.391 270.071C347.023 269.713 348.308 269.506 349.246 269.609C350.556 269.754 350.931 269.528 350.863 268.637C350.815 267.999 351.095 267.54 351.485 267.618C352.881 267.895 354.932 266.756 355.312 265.49C355.526 264.782 355.937 264.357 356.227 264.547C356.817 264.932 362.392 261.545 362.422 260.782C362.473 259.529 365.242 257.022 366.214 257.348C367.724 257.854 371.138 254.63 371.138 252.699C371.138 251.119 373.702 249.132 375.744 249.132C376.261 249.132 377.64 248.246 378.807 247.164C380.435 245.654 381.528 245.196 383.506 245.196C385.217 245.196 386.203 244.867 386.439 244.217C386.635 243.679 387.878 242.896 389.203 242.478C390.527 242.058 391.761 241.215 391.945 240.603C392.29 239.456 395.273 237.667 395.841 238.267C396.017 238.453 395.701 238.791 395.14 239.018C394.578 239.245 394.119 239.979 394.119 240.647C394.119 241.514 393.361 242.094 391.479 242.667C390.027 243.109 387.861 244.262 386.666 245.23C385.47 246.197 383.893 247.185 383.161 247.426C382.43 247.666 381.688 248.44 381.514 249.146C381.118 250.743 378.217 251.969 375.956 251.493C374.453 251.177 374.099 251.452 372.953 253.825C371.639 256.544 368.953 259.629 367.898 259.629C367.583 259.629 366.106 260.515 364.616 261.597C363.127 262.68 361.589 263.565 361.199 263.565C360.518 263.565 358.716 265.134 358.716 265.726C358.716 265.884 359.904 265.783 361.355 265.503C364.403 264.912 365.303 265.231 362.671 265.968C360.362 266.615 360.13 266.666 359.05 266.763C358.551 266.809 357.573 267.492 356.876 268.282C356.18 269.071 355.61 269.474 355.61 269.177C355.61 268.88 355.033 269.412 354.327 270.359C353.622 271.306 353.214 272.371 353.421 272.724C353.64 273.099 352.944 273.343 351.754 273.308C349.25 273.235 347.977 273.541 347.427 274.348C347.178 274.715 346.645 274.643 346.106 274.17C344.673 272.914 339.462 275.752 340.365 277.296C340.59 277.679 340.052 278.34 339.169 278.765C338.287 279.189 337.667 279.855 337.792 280.243C337.916 280.633 337.574 281.314 337.031 281.758C336.105 282.517 337.252 282.538 341.826 281.845C342.062 281.809 342.606 281.814 343.032 281.857C344.021 281.956 344.058 283.247 343.072 283.247C342.667 283.247 341.675 283.904 340.866 284.706C339.644 285.918 339.303 286.006 338.845 285.224C338.381 284.431 338.089 284.48 336.985 285.535C335.482 286.971 335.199 287.053 329.213 287.77C328.871 287.81 329.57 288.478 330.766 289.252L332.939 290.661L330.766 291.44C329.053 292.055 328.585 292.577 328.564 293.901C328.548 294.826 328.185 296.027 327.757 296.572C327.098 297.41 327.275 297.631 328.912 298.01C330.661 298.416 330.741 298.538 329.757 299.299L328.67 300.138L330.09 300.614C332.879 301.549 334.765 301.472 335.512 300.394C336.393 299.121 337.783 298.968 338.219 300.096C338.449 300.69 339.255 300.554 341.324 299.57C344.483 298.069 347.536 297.48 347.536 298.372C347.536 298.699 348.232 299.152 349.084 299.378C349.936 299.604 350.472 300.064 350.274 300.401C349.944 300.966 351.236 300.8 354.678 299.834C355.693 299.549 355.579 299.858 354.057 301.517C353.032 302.634 351.565 303.556 350.796 303.566C349.185 303.587 349.081 304.1 350.216 306.411C350.813 307.625 351.275 307.914 351.924 307.48C353.893 306.165 360.473 307.631 358.578 308.962C357.362 309.817 361.141 312.877 362.748 312.338C363.837 311.974 363.884 312.053 363.138 313.003C362.216 314.177 362.218 314.177 368.498 314.28C369.95 314.303 371.138 314.564 371.138 314.858C371.138 315.153 371.469 315.394 371.874 315.394C372.279 315.394 373.319 316.058 374.184 316.87C375.05 317.681 375.41 317.864 374.985 317.275C374.36 316.408 374.378 316.136 375.082 315.85C376.022 315.469 377.613 318.349 377.021 319.36C376.607 320.067 378.242 320.477 383.364 320.954C385.658 321.168 387.362 321.045 387.594 320.649C387.807 320.285 388.261 319.986 388.602 319.986C388.944 319.986 389.022 320.331 388.774 320.754C388.472 321.27 388.664 321.384 389.359 321.102C390.011 320.838 390.392 321.013 390.392 321.576C390.392 322.961 391.628 323.106 395.672 322.195C397.721 321.734 398.367 321.469 397.106 321.608C395.391 321.795 394.894 321.64 395.13 320.989C395.5 319.97 400.712 318.44 401.674 319.068C402.036 319.304 402.513 319.188 402.735 318.81C402.956 318.432 403.974 317.907 404.995 317.644L406.852 317.166L405.765 318.463C404.242 320.282 404.39 320.636 406.697 320.688C409.375 320.75 411.193 321.547 411.228 322.677C411.243 323.181 411.593 323.521 412.004 323.43C412.416 323.34 412.752 323.579 412.752 323.961C412.752 324.343 413.075 324.445 413.47 324.188C413.916 323.897 414.018 324.008 413.74 324.483C412.348 326.862 424.176 329.172 427.662 327.201C429.919 325.925 433.87 321.519 433.87 320.277C433.87 317.796 435.866 315.548 438.386 315.191C439.743 314.999 441.168 314.49 441.554 314.06C442.09 313.462 441.927 313.383 440.861 313.723C439.014 314.312 439.524 312.798 442.462 308.968C445.346 305.21 447.389 308.153 445.071 312.728C444.22 314.408 444.613 314.435 449.302 313.027C451.482 312.373 453.639 311.145 454.988 309.791C456.184 308.591 457.933 307.409 458.876 307.165C460.855 306.65 461.678 305.614 460.643 304.939C458.492 303.535 465.053 300.841 470.713 300.804C473.912 300.784 474.242 300.686 472.69 300.214C471.665 299.904 469.723 299.778 468.374 299.936C467.026 300.093 465.682 300.064 465.387 299.872C464.443 299.256 467.032 297.723 469.052 297.701C471.13 297.679 472.118 296.354 470.964 295.136C470.581 294.731 469.797 294.4 469.221 294.4C468.646 294.4 467.172 293.226 465.944 291.791C464.717 290.355 463.356 289.319 462.922 289.487C461.896 289.885 460.157 288.721 460.785 288.058C461.05 287.778 461.484 287.921 461.75 288.376C462.104 288.98 462.668 289.028 463.843 288.556C465.061 288.067 465.631 288.14 466.196 288.859C466.606 289.38 467.326 289.807 467.797 289.807C468.267 289.807 468.653 290.09 468.653 290.434C468.653 290.778 469.7 291.259 470.982 291.501C472.263 291.743 473.779 292.373 474.352 292.9C475.846 294.277 477.693 293.699 477.511 291.913C477.405 290.88 477.696 290.464 478.521 290.464C479.159 290.464 480.028 290.021 480.454 289.479C480.879 288.938 481.596 288.495 482.047 288.495C482.498 288.495 483.288 287.862 483.802 287.087C484.533 285.985 485.454 285.648 488.029 285.542C489.841 285.467 491.413 285.363 491.524 285.311C491.634 285.258 491.144 284.437 490.437 283.486C488.651 281.088 488.813 280.648 491.325 281.078C493.172 281.395 493.7 281.183 494.826 279.671C495.673 278.534 496.558 278.004 497.28 278.204C498.002 278.403 498.76 277.95 499.383 276.945C499.919 276.081 500.841 275.383 501.431 275.394L502.503 275.414L501.416 276.083C500.819 276.451 500.329 277.16 500.329 277.659C500.329 278.158 499.706 278.775 498.944 279.03C497.899 279.381 494.119 282.865 494.118 283.48C494.118 283.532 495.207 283.532 496.539 283.48C498.731 283.395 502.814 281.095 502.814 279.947C502.814 279.711 503.862 279.209 505.143 278.83C506.424 278.452 508.8 277.75 510.422 277.271C512.045 276.792 513.373 276.224 513.373 276.011C513.373 275.389 515.955 272.635 516.248 272.944C516.394 273.098 516.255 273.941 515.94 274.817L515.366 276.411L520.217 275.915C526.366 275.288 527.461 275.058 530.219 273.815C531.457 273.258 532.598 272.938 532.755 273.104C533.812 274.22 536.924 273.784 537.098 272.496C537.256 271.328 537.642 271.143 539.56 271.319C541.053 271.456 542.013 271.204 542.355 270.585C542.641 270.066 543.574 269.436 544.428 269.184C545.612 268.836 545.76 268.891 545.049 269.417C543.722 270.399 545.907 270.39 547.646 269.406C548.638 268.845 548.861 268.875 548.651 269.538C548.333 270.545 545.405 272.357 543.128 272.956C542.242 273.189 540.825 274.111 539.979 275.004C538.247 276.834 534.121 277.522 533.3 276.118C532.904 275.442 532.374 275.468 530.594 276.254C529.377 276.791 528.219 277.06 528.022 276.852C527.825 276.644 527.363 277.386 526.995 278.5C526.241 280.786 523.948 281.935 520.142 281.935C516.867 281.935 515.095 282.969 513.934 285.556L512.943 287.766L514.866 287.43C518.791 286.743 523.031 285.681 524.042 285.13C525.694 284.232 527.143 285.138 526.663 286.769C526.282 288.062 526.339 288.093 527.42 287.183C529.283 285.617 531.471 284.436 532.879 284.24C533.594 284.139 534.739 283.861 535.422 283.621L536.664 283.184L535.509 284.035C534.873 284.504 533.14 285.717 531.658 286.731L528.962 288.576L529.686 290.256C530.519 292.185 529.137 293.709 524.05 296.472C522.54 297.292 521.147 298.398 520.955 298.929C520.35 300.594 516.419 303.883 514.183 304.596L512.04 305.278L513.709 307.041C514.628 308.012 515.229 309.218 515.046 309.721C514.704 310.662 524.16 316.05 526.153 316.05C527.643 316.05 526.767 315.156 523.681 313.527C520.684 311.947 519.56 310.801 521.004 310.801C521.483 310.801 522.356 310.24 522.944 309.554C524.042 308.273 526.798 307.449 530.948 307.161C534.119 306.942 537.116 305.575 536.734 304.523C536.174 302.981 539 301.499 541.012 302.28C542.111 302.706 541.985 302.899 539.925 303.951C538.645 304.605 537.596 305.338 537.596 305.58C537.596 306.334 547.107 306.891 549.397 306.271C552.908 305.32 556.282 304.932 555.939 305.517C555.765 305.816 554.571 306.268 553.286 306.521C552.001 306.775 550.566 307.318 550.097 307.728C549.628 308.137 547.951 308.539 546.37 308.62C538.915 309.002 533.699 311.669 533.364 315.27C533.245 316.556 532.825 317.362 532.277 317.362C531.786 317.362 531.385 317.657 531.385 318.018C531.385 318.379 531.813 318.674 532.336 318.674C532.859 318.674 533.448 319.117 533.645 319.658C534.099 320.908 535.494 320.934 535.941 319.702C536.556 318.01 539.576 319.972 539.156 321.79C538.915 322.831 539.093 323.266 539.758 323.266C540.277 323.266 540.702 323.59 540.702 323.987C540.702 324.474 541.857 324.575 544.273 324.296C546.238 324.07 549.337 323.747 551.161 323.578C552.985 323.409 554.708 323.12 554.99 322.936C555.505 322.6 560.969 321.825 562.13 321.923C563.434 322.034 567.139 322.091 568.031 322.015C568.859 321.943 568.859 321.864 568.031 321.298C567.228 320.75 567.244 320.661 568.149 320.652C571.119 320.624 569.9 323.697 566.569 324.637C565.152 325.036 562.736 325.914 561.198 326.587C559.661 327.26 556.447 328.412 554.056 329.146C547.589 331.131 547.599 331.111 550.985 334.912L553.923 338.21L555.988 337.299C559.533 335.734 561.115 337.295 558.717 339.992L557.443 341.425L559.856 344.647C563.616 349.664 565.412 354.101 563.683 354.101C562.388 354.101 563.195 355.606 567.45 361.133C574.483 370.27 576.344 374.409 579.259 387.406C581.254 396.297 580.388 403.961 577.39 403.961C576.814 403.961 575.521 405.135 574.516 406.57C572.59 409.321 572.224 409.483 568.472 409.243C565.313 409.04 562.631 410.812 563.796 412.332C564.395 413.112 564.406 413.265 563.838 412.905C562.746 412.212 562.872 413.119 564.242 415.82C566.03 419.343 566.786 422.727 565.977 423.581C565.485 424.101 565.51 424.299 566.067 424.299C566.524 424.299 566.311 424.895 565.546 425.762C564.837 426.567 564.088 427.969 563.883 428.878C563.679 429.788 563.279 430.847 562.993 431.233C562.683 431.653 563.585 433.758 565.244 436.481C568.858 442.413 570.724 446.318 571.692 449.967C572.53 453.127 575.549 457.102 577.113 457.102C578.713 457.102 580.152 458.981 578.931 459.477C578.284 459.739 578.136 460.139 578.505 460.623C578.818 461.032 579.07 462.118 579.065 463.038C579.06 463.957 579.957 466.878 581.058 469.53C582.16 472.181 583.639 476.891 584.344 479.996C585.063 483.156 586.189 486.305 586.906 487.151C587.731 488.126 587.951 488.823 587.526 489.119C586.567 489.785 585.422 493.686 585.422 496.285C585.422 498.653 582.671 502.37 580.919 502.37C579.009 502.37 575.913 507.665 577.295 508.568C577.636 508.791 577.739 509.454 577.525 510.043C577.265 510.759 577.377 510.956 577.863 510.639C578.263 510.378 578.59 509.74 578.59 509.22C578.59 508.671 579.188 508.274 580.018 508.274C580.804 508.274 581.75 507.953 582.122 507.561C582.608 507.047 582.914 507.048 583.216 507.563C583.511 508.068 583.991 508.075 584.851 507.589C585.521 507.211 586.362 507.093 586.72 507.326C587.744 507.995 592.254 508.308 592.254 507.711C592.254 506.795 595.436 505.587 596.718 506.017C597.469 506.269 598.412 505.966 599.187 505.226L600.441 504.028L601.222 505.157C601.652 505.777 602.193 506.086 602.424 505.842C603.015 505.218 613.074 505.05 613.991 505.649C615.346 506.534 613.505 507.106 608.497 507.359C601.704 507.702 596.342 508.373 595.981 508.926C595.353 509.891 591.648 511.555 590.13 511.555C588.945 511.555 588.66 511.812 588.952 512.614C589.33 513.657 588.707 513.618 585.657 512.411C585.274 512.259 584.539 512.581 584.023 513.126C583.508 513.67 582.939 513.961 582.759 513.771C582.58 513.582 581.371 513.737 580.073 514.115C578.416 514.599 577.591 514.596 577.306 514.108C576.909 513.43 576.318 514.756 575.544 518.061C575.121 519.871 573.621 520.724 573.621 519.154C573.621 518.582 573.467 518.115 573.279 518.115C572.315 518.115 569.233 520.248 568.713 521.275C568.262 522.166 567.572 522.387 565.899 522.181L563.683 521.908L563.588 524.112C563.536 525.324 563.429 526.611 563.349 526.972C563.27 527.333 563.173 527.906 563.133 528.245C563.094 528.585 562.667 528.293 562.185 527.596C561.703 526.9 561.439 526.108 561.598 525.836C562.95 523.526 557.854 523.727 556.229 526.048C556.059 526.292 555.39 526.6 554.743 526.732C552.813 527.126 552.069 528.986 553.277 530.396C554.843 532.225 554.49 534.534 552.75 533.835C552.001 533.534 551.253 533.431 551.089 533.605C550.923 533.779 550.61 533.17 550.392 532.251C549.71 529.383 547.266 530.465 546.817 533.834C546.676 534.896 546.095 535.572 545.116 535.815C544.299 536.017 543.405 536.826 543.129 537.612C542.76 538.667 542.841 538.956 543.436 538.715C544.188 538.41 546.451 541.237 546.639 542.717C546.686 543.078 546.766 543.672 546.818 544.036C546.87 544.401 547.623 545.507 548.49 546.496C549.359 547.485 549.897 548.294 549.689 548.294C548.918 548.294 543.474 544.702 542.762 543.726C541.401 541.856 540.564 543.765 541.308 547.041C541.995 550.065 542.619 555.51 542.278 555.51C542.169 555.51 541.461 554.118 540.704 552.417L539.328 549.324L538.462 550.574C537.986 551.262 537.596 552.26 537.596 552.793C537.596 554.688 536.744 552.824 536.575 550.558C536.481 549.29 535.973 547.798 535.447 547.242C534.921 546.686 534.491 545.504 534.491 544.615C534.491 542.51 532.474 543.476 531.253 546.167C530.804 547.156 530.161 547.97 529.824 547.976C529.487 547.981 528.843 548.232 528.393 548.533C527.943 548.835 527.431 548.929 527.255 548.742C526.937 548.406 524.553 550.616 524.553 551.246C524.553 551.426 524.972 551.574 525.484 551.574C525.997 551.574 526.416 551.84 526.416 552.166C526.416 552.491 527.184 553.057 528.124 553.423C529.063 553.789 530.644 554.852 531.637 555.784C532.63 556.716 534.091 557.479 534.883 557.479C535.736 557.479 536.741 558.149 537.343 559.119C537.902 560.021 538.901 560.759 539.562 560.759C540.223 560.759 541.553 561.19 542.517 561.717C543.482 562.243 544.449 562.487 544.667 562.257C544.884 562.027 545.409 562.308 545.832 562.881C546.311 563.53 547.469 563.897 548.897 563.851C550.158 563.811 551.835 564.114 552.623 564.525C553.931 565.207 556.046 565.786 566.167 568.235C568.046 568.689 570.282 569.47 571.136 569.97C571.99 570.469 572.934 570.804 573.232 570.712C573.531 570.62 574.253 571 574.836 571.557C575.419 572.115 576.097 572.358 576.344 572.097C576.59 571.837 576.608 572.132 576.382 572.752C576.08 573.583 576.294 573.88 577.197 573.88C577.871 573.88 579.158 574.492 580.058 575.24C580.958 575.987 581.695 576.42 581.695 576.2C581.695 575.981 582.254 576.118 582.937 576.504C583.621 576.891 584.18 577.583 584.18 578.044C584.18 580.724 589.503 582.579 590.36 580.198C591.137 578.039 594.146 575.616 594.969 576.485C595.757 577.318 596.804 577.381 596.329 576.567C596.022 576.044 600.285 575.235 603.745 575.159C605.119 575.129 613.635 576.212 617.21 576.872C619.993 577.385 623.005 576.398 627.61 573.465C629.516 572.251 631.922 571.258 632.961 571.258C634.151 571.256 635.641 570.539 636.998 569.314L639.148 567.372L644.546 567.346C647.515 567.331 650.097 567.58 650.284 567.9C650.47 568.219 651.929 568.687 653.524 568.94C656.457 569.404 663.061 573.797 663.061 575.283C663.061 575.671 663.52 575.803 664.08 575.575C664.871 575.254 664.947 575.356 664.419 576.029C663.898 576.692 664.315 577.564 666.194 579.735C667.545 581.297 668.651 583.11 668.651 583.765C668.651 584.419 668.899 585.117 669.203 585.316C669.507 585.514 669.942 586.462 670.17 587.423C670.399 588.383 671.338 589.98 672.258 590.97C673.178 591.96 674.699 593.669 675.639 594.766C676.579 595.862 677.837 596.752 678.434 596.742C679.032 596.732 681.337 597.079 683.558 597.514C688.862 598.553 693.992 597.712 697.606 595.212C698.395 594.665 699.329 594.218 699.68 594.218C700.031 594.218 701.04 593.553 701.923 592.742C704.715 590.172 705.787 590.08 706.881 592.314C707.586 593.755 708.231 594.249 709.223 594.112C710.957 593.872 713.319 595.583 717.343 599.992C719.089 601.906 720.936 603.538 721.447 603.619C721.959 603.701 722.745 604.01 723.195 604.307C723.645 604.603 724.162 604.688 724.346 604.494C724.529 604.301 725.386 604.427 726.252 604.774C727.58 605.307 728.445 604.995 731.803 602.771C734.774 600.803 736.678 600.036 739.327 599.738C741.278 599.518 743.634 599.25 744.563 599.141C745.492 599.032 746.7 598.471 747.247 597.893C747.794 597.315 748.634 596.842 749.113 596.842C749.592 596.842 750.899 595.428 752.019 593.7C753.483 591.441 754.386 590.631 755.236 590.815C755.886 590.956 756.656 590.623 756.946 590.074C757.237 589.525 758.709 588.578 760.217 587.97C762.148 587.191 763.07 586.394 763.336 585.272C763.593 584.192 764.284 583.561 765.491 583.305C766.558 583.08 767.543 582.289 767.961 581.32C768.343 580.435 768.941 579.897 769.289 580.124C769.638 580.352 769.846 580.178 769.753 579.738C769.658 579.296 771.23 578.251 773.267 577.401C775.294 576.555 777.111 575.638 777.305 575.364C777.498 575.089 778.885 574.777 780.387 574.671C781.89 574.565 783.644 574.182 784.285 573.819C784.927 573.456 786.488 573.019 787.753 572.849C789.018 572.677 791.177 572.212 792.551 571.815C793.924 571.416 796.026 571.001 797.221 570.891C807.492 569.942 813.873 569.608 814.886 569.966C815.548 570.201 816.806 569.998 817.681 569.516C818.555 569.034 819.798 568.638 820.441 568.635C824.721 568.621 832.962 563.763 832.212 561.698C831.702 560.296 833.201 558.135 834.682 558.135C836.768 558.135 841.91 554.165 843.494 551.332C843.896 550.614 845.277 550.079 847.402 549.819C851.135 549.362 853.315 547.263 852.996 544.434C852.86 543.229 853.589 541.933 855.761 539.52C857.384 537.718 858.712 536.026 858.712 535.76C858.712 535.494 859.597 535.072 860.678 534.82C862.811 534.326 863.133 534.093 866.781 530.416C868.651 528.532 869.731 527.956 871.398 527.956C872.887 527.956 873.77 527.569 874.195 526.732C874.61 525.912 875.744 525.397 877.633 525.172C882.641 524.576 882.806 524.097 881.09 515.175C880.674 513.016 880.28 509.326 880.213 506.974C880.147 504.622 879.77 502.085 879.375 501.335C878.982 500.586 878.77 498.534 878.906 496.775C879.041 495.015 878.911 493.267 878.615 492.888C877.824 491.875 877.34 486.049 878.011 485.611C878.328 485.404 878.587 485.712 878.587 486.296C878.587 487.916 879.685 486.844 880.108 484.813C880.598 482.458 883.615 480.385 888.028 479.371C890.842 478.725 891.606 478.276 891.755 477.185C891.859 476.419 892.49 475.712 893.183 475.584C893.867 475.459 896.95 474.071 900.035 472.5L905.645 469.644L906.639 466.489C907.759 462.937 907.813 457.087 906.738 455.714C905.729 454.424 904.997 449.885 905.799 449.885C906.772 449.885 910.264 445.982 910.264 444.894C910.264 444.369 910.681 443.77 911.192 443.564C911.702 443.356 911.984 442.955 911.817 442.67C911.363 441.894 913.758 441.439 919.045 441.297C923.658 441.172 927.655 440.047 927.655 438.872C927.655 434.613 922.788 425.864 919.791 424.737C917.443 423.853 918.534 419.848 921.237 419.43C922.981 419.161 922.96 417.258 921.184 414.799C920.302 413.577 919.581 412.132 919.581 411.589C919.581 411.045 919.277 410.401 918.905 410.158C918.534 409.916 918.38 409.113 918.563 408.373C918.746 407.635 918.587 406.421 918.21 405.676C917.375 404.028 917.468 399.775 918.378 397.979C918.898 396.953 918.765 396.096 917.775 394.09C915.361 389.199 914.584 382.104 915.838 376.407C916.74 372.307 916.974 370.518 917.046 367.157C917.08 365.564 917.754 363.878 919.115 361.98C920.225 360.432 921.469 358.542 921.881 357.781C922.291 357.02 923.345 355.659 924.22 354.757C925.096 353.855 926.692 352.158 927.766 350.985C928.84 349.812 930.162 348.843 930.705 348.831C931.975 348.803 934.487 346.597 934.487 345.51C934.487 343.725 937.113 339.069 938.405 338.562C941.759 337.246 945.028 334.67 945.36 333.081C945.899 330.504 948.022 327.203 949.14 327.203C950.428 327.203 953.746 324.262 955.089 321.929C955.794 320.706 957.191 319.756 959.437 318.975C963.027 317.727 965.115 316.247 965.437 314.722C965.549 314.189 966.038 313.288 966.524 312.718C967.009 312.148 967.406 311.336 967.406 310.913C967.406 310.491 967.684 310.145 968.024 310.145C968.363 310.145 969.878 308.858 971.388 307.285C973.68 304.899 974.67 304.35 977.358 303.972C979.776 303.634 980.658 303.212 980.888 302.286C981.203 301.01 986.904 297.68 988.772 297.68C989.353 297.68 990.583 297.278 991.505 296.786C993.668 295.633 1001.72 293.744 1004.47 293.744C1006.59 293.744 1010.26 292.172 1010.26 291.263C1010.26 290.771 1012.57 289.611 1015.11 288.828C1015.89 288.585 1016.91 288.719 1017.38 289.125C1018.37 289.995 1021.09 289.412 1022.11 288.11C1022.58 287.514 1023.4 287.346 1024.46 287.627C1025.89 288.001 1026 287.925 1025.31 287.041C1024.66 286.208 1024.68 285.958 1025.42 285.66C1025.97 285.435 1026.19 284.778 1025.98 283.95C1025.8 283.211 1025.36 282.796 1025 283.028C1024.63 283.272 1024.54 283.132 1024.8 282.693C1025.04 282.276 1025.81 281.935 1026.51 281.935C1027.23 281.935 1027.9 281.397 1028.08 280.676C1028.25 279.984 1029.23 279.052 1030.25 278.605C1031.27 278.159 1032.47 277.411 1032.91 276.945C1034.26 275.524 1041.38 275.229 1042.75 276.537L1043.9 277.637L1044.94 276.24C1046.15 274.608 1054.17 273.203 1057.6 274.02C1058.72 274.287 1059.78 274.533 1059.95 274.566C1060.12 274.599 1061.05 274.942 1062.01 275.328C1062.97 275.714 1064.15 276.03 1064.62 276.03C1065.09 276.03 1066.24 277.079 1067.16 278.36L1068.84 280.689L1072.01 280.228C1073.75 279.974 1076.63 279.818 1078.42 279.881C1081.07 279.974 1081.6 279.815 1081.31 279.015C1080.84 277.735 1082.39 274.062 1083.4 274.062C1084.33 274.062 1084.34 273.95 1083.59 271.854C1083.13 270.582 1083.26 269.865 1084.17 268.637L1085.35 267.057L1081.81 263.095C1079.87 260.916 1077.85 258.985 1077.33 258.804C1076.82 258.624 1075.99 257.628 1075.49 256.592C1075 255.556 1074.08 253.911 1073.46 252.936C1071.05 249.149 1070.22 243.227 1072.1 243.227C1072.58 243.227 1073.15 242.488 1073.36 241.584C1073.76 239.893 1076.07 238.427 1079.52 237.666C1084.09 236.656 1088.17 225.523 1083.97 225.512C1083.57 225.511 1082.68 224.626 1082 223.546C1080.62 221.357 1079.73 221.101 1078.59 222.562C1077.5 223.943 1076.31 223.785 1075.91 222.208C1075.23 219.451 1081.21 216.763 1084.33 218.422C1085.14 218.852 1085.42 218.732 1085.42 217.959C1085.42 216.672 1089.03 215.008 1091.77 215.035C1092.89 215.046 1095.02 214.865 1096.51 214.633C1098.01 214.398 1099.8 214.514 1100.54 214.894C1101.28 215.27 1104.3 215.712 1107.25 215.877L1112.63 216.176L1112.05 214.4C1111.41 212.489 1107.16 211.741 1107.16 213.541C1107.16 214.631 1105.49 214.593 1104.86 213.489C1104.26 212.436 1098.03 210.223 1097.2 210.766C1096.87 210.978 1095.9 210.399 1095.03 209.481C1093.17 207.518 1093.64 205.805 1096.48 204.258C1099.34 202.695 1103 198.789 1102.62 197.717C1102.19 196.549 1097.38 195.662 1094.63 196.244C1093.45 196.492 1092.32 196.33 1091.73 195.83C1090.99 195.194 1090.87 195.191 1091.23 195.818C1091.57 196.422 1091.17 196.53 1089.64 196.243C1085.88 195.537 1082.44 191.986 1082.05 188.415C1081.93 187.35 1081.8 186.244 1081.76 185.958C1081.72 185.672 1081.21 185.524 1080.62 185.63C1080.03 185.736 1079.51 185.527 1079.48 185.166C1079.28 183.206 1078.42 182.198 1077.58 182.934C1077.11 183.348 1076.72 183.428 1076.72 183.111C1076.72 182.203 1073.28 180.829 1072.15 181.286C1071.51 181.547 1071.13 181.362 1071.13 180.78C1071.13 180.246 1072.3 179.531 1073.94 179.07C1077.58 178.039 1078.59 178.071 1078.59 179.216C1078.59 179.732 1079.21 180.249 1079.98 180.364C1080.99 180.515 1081.32 180.945 1081.18 181.886L1080.99 183.198L1081.87 181.886C1083.83 178.96 1083.72 177.172 1081.53 176.605L1079.52 176.083L1082.62 175.694C1085.16 175.377 1085.47 175.209 1084.33 174.779C1083.56 174.49 1082.93 173.978 1082.93 173.642C1082.93 173.07 1083.49 172.913 1086.17 172.734C1086.76 172.695 1088.99 171.307 1091.14 169.65C1099.22 163.412 1105.3 161.438 1118.96 160.614C1140.74 159.301 1169.72 162.004 1185.05 166.778C1186.73 167.301 1188.38 167.547 1188.72 167.325C1189.06 167.103 1189.16 167.223 1188.94 167.592C1188.17 168.918 1190.72 170.257 1194.56 170.534C1196.91 170.704 1198.85 171.226 1199.52 171.87C1202.11 174.329 1209.02 172.728 1209.02 169.67C1209.02 169.276 1209.74 168.357 1210.62 167.627C1211.49 166.897 1211.98 166.067 1211.7 165.781C1211.05 165.113 1204.42 163.135 1201.45 162.722C1200.2 162.547 1199 161.955 1198.81 161.407C1198.33 160.097 1203.73 160.649 1208.69 162.416C1211.2 163.313 1211.93 163.399 1211.41 162.741C1211.02 162.248 1210.86 161.682 1211.05 161.483C1211.56 160.946 1217.09 161.937 1217.09 162.567C1217.09 164.951 1224.48 163.839 1226.34 161.174L1227.75 159.172L1226.75 157.565C1224.64 154.169 1228.14 151.309 1236.58 149.527C1243.34 148.1 1244.13 147.707 1241.55 147.063C1238.44 146.29 1233.93 143.429 1234.28 142.455C1234.66 141.408 1232.16 140.227 1229.57 140.227C1228.5 140.227 1227.1 139.485 1225.91 138.277C1224.84 137.205 1223.24 136.133 1222.34 135.895C1221.44 135.656 1220.99 135.271 1221.35 135.038C1222.32 134.407 1221.4 133.274 1218.96 132.09C1217.12 131.196 1217.04 131.086 1218.47 131.374C1219.4 131.561 1221.36 131.43 1222.82 131.082C1225.56 130.432 1226.39 130.757 1226.64 132.589C1226.89 134.332 1231.81 138.379 1233.39 138.141C1234.43 137.985 1235.04 138.438 1235.73 139.899C1237 142.58 1242.87 143.622 1244.46 141.449C1245.6 139.89 1249.84 139.889 1249.52 141.448C1249.43 141.94 1249.84 142.748 1250.46 143.244L1251.57 144.147L1250.02 145.426C1247.72 147.326 1249.49 147.75 1255.8 146.804C1261.7 145.92 1263.33 143.621 1258.64 142.815C1254.82 142.16 1253.26 140.034 1257 140.587C1258.11 140.751 1260.28 141.025 1261.81 141.196C1263.35 141.366 1266.49 142.211 1268.79 143.073C1271.1 143.935 1273.61 144.571 1274.38 144.486C1275.16 144.4 1276.26 144.293 1276.83 144.247C1278.39 144.122 1278.14 140.373 1276.51 139.453L1275.25 138.742L1276.45 137.775C1278.8 135.883 1285.8 132.893 1290.88 131.618C1297.25 130.017 1297.84 129.78 1297.84 128.825C1297.84 128.404 1298.64 127.034 1299.61 125.779C1302.85 121.625 1302.8 119.491 1299.44 117.294C1297.42 115.978 1291.88 115.306 1290.49 116.21C1290.11 116.462 1288.96 116.024 1287.96 115.235C1286.6 114.177 1285.62 113.908 1284.22 114.205C1283.15 114.431 1282.31 114.331 1282.31 113.976C1282.31 113.053 1273.91 108.736 1272.11 108.736C1270.54 108.736 1270.24 111.374 1271.75 111.905C1272.09 112.026 1272.37 112.376 1272.37 112.681C1272.37 113.585 1266.87 112.746 1264.08 111.417C1261.37 110.124 1256.74 110.065 1256.34 111.317C1256.22 111.702 1255.72 112.016 1255.24 112.016C1254.67 112.016 1254.36 112.735 1254.36 114.064C1254.36 115.838 1254.23 116 1253.4 115.272C1252.87 114.809 1252.58 114.039 1252.76 113.561C1253.13 112.521 1251.73 111.659 1248.77 111.117C1247.57 110.898 1246.95 110.888 1247.37 111.094C1249 111.882 1248.05 112.511 1245.98 112.016C1244.75 111.723 1243.8 111.753 1243.8 112.085C1243.8 112.408 1244.08 112.672 1244.42 112.672C1246.38 112.672 1244.62 113.787 1242.52 113.873C1240.82 113.944 1240.14 113.742 1240.43 113.252C1240.66 112.852 1240.47 112.268 1240 111.953C1239.35 111.521 1239.46 111.378 1240.44 111.37C1241.16 111.365 1242.23 110.799 1242.81 110.113C1243.67 109.11 1244.6 108.899 1247.55 109.033C1251.19 109.2 1256.93 108.085 1256.87 107.221C1256.86 106.972 1256.84 106.528 1256.84 106.234C1256.84 105.94 1258.59 105.79 1260.73 105.898L1264.61 106.097L1259.64 103.557C1256.85 102.129 1253.68 99.9054 1252.4 98.4798C1251.15 97.0843 1249.26 95.2539 1248.2 94.4122C1247.14 93.5705 1246.43 92.612 1246.63 92.282C1246.82 91.952 1246.19 92.0117 1245.23 92.4139C1242.84 93.4196 1239.44 93.8532 1240.7 92.9938C1241.49 92.4513 1241.46 92.3528 1240.5 92.3443C1239.85 92.3384 1239.56 92.0333 1239.8 91.6213C1240.1 91.1076 1240.4 91.1076 1240.89 91.6213C1241.26 92.0137 1242.26 92.3345 1243.12 92.3345C1245.08 92.3345 1244.14 91.2244 1241.81 90.7816C1235.94 89.6689 1235.04 87.2369 1239.43 84.3529C1241.17 83.2074 1242.38 82.0993 1242.11 81.8901C1241.85 81.6808 1241.63 81.0667 1241.63 80.5255C1241.63 79.7762 1240.81 79.5289 1238.21 79.4889C1236.3 79.4594 1233.91 78.9463 1232.78 78.3237C1231.33 77.5247 1230.76 77.44 1230.76 78.0233C1230.76 78.4694 1230.2 77.6788 1229.52 76.2663C1227.95 73.0162 1228.53 72.3589 1232.76 72.6154C1240.18 73.0641 1242.97 72.9801 1244.79 72.2552C1245.85 71.8353 1248.16 71.2823 1249.92 71.0264C1251.68 70.7705 1253.12 70.2726 1253.12 69.9203C1253.12 68.8805 1251.43 67.4043 1250.24 67.4043C1249.39 67.4043 1249.31 67.2292 1249.89 66.6171C1250.47 66.005 1250.8 66.005 1251.38 66.6171C1252.41 67.7101 1253.15 67.6018 1252.72 66.4202C1252.53 65.879 1251.96 65.4362 1251.46 65.4362C1250.86 65.4362 1250.67 65.0255 1250.92 64.2166C1251.45 62.4531 1249.82 61.2958 1247.56 61.8213C1246.51 62.0647 1244.63 61.8921 1243.34 61.4316C1242.06 60.9763 1240.12 60.6784 1239.03 60.7703C1237.78 60.8753 1236.64 60.4974 1235.93 59.7422C1234.17 57.8902 1225.35 56.2724 1222.84 57.3417ZM1177.14 63.9056C1176.91 64.1457 1176.54 64.1457 1176.31 63.9056C1176.08 63.6648 1176.27 63.468 1176.72 63.468C1177.18 63.468 1177.36 63.6648 1177.14 63.9056ZM644.013 66.5298C644.241 66.7699 644.614 66.7699 644.842 66.5298C645.069 66.289 644.883 66.0922 644.427 66.0922C643.972 66.0922 643.786 66.289 644.013 66.5298ZM585.422 72.6528C585.422 73.0136 585.299 73.3088 585.148 73.3088C584.997 73.3088 584.701 73.0136 584.49 72.6528C584.279 72.2919 584.403 71.9967 584.764 71.9967C585.126 71.9967 585.422 72.2919 585.422 72.6528ZM582.109 73.7464C581.881 73.9865 581.509 73.9865 581.281 73.7464C581.053 73.5057 581.24 73.3088 581.695 73.3088C582.15 73.3088 582.337 73.5057 582.109 73.7464ZM522.522 75.729C522.75 76.4533 520.876 77.5168 520.35 76.9611C520.186 76.7872 520.226 76.1653 520.439 75.5788C520.848 74.453 522.148 74.5468 522.522 75.729ZM564.571 76.0079C564.125 76.7702 561.991 76.7571 561.542 75.9888C561.349 75.6588 561.542 75.2645 561.971 75.1117C563.124 74.7016 564.964 75.3354 564.571 76.0079ZM599.086 75.277C599.086 75.6378 599.349 75.9331 599.671 75.9331C599.992 75.9331 600.428 75.6378 600.639 75.277C600.85 74.9162 600.587 74.6209 600.055 74.6209C599.522 74.6209 599.086 74.9162 599.086 75.277ZM683.558 75.277C683.558 75.7579 683.744 75.9547 683.972 75.7146C684.199 75.4738 684.199 75.0802 683.972 74.8394C683.744 74.5993 683.558 74.7961 683.558 75.277ZM573.31 75.9331C573.768 76.7164 572.551 76.7164 570.826 75.9331C569.716 75.4299 569.762 75.3643 571.255 75.3229C572.174 75.298 573.099 75.5722 573.31 75.9331ZM625.484 76.5891C625.272 76.9499 624.68 77.2452 624.168 77.2452C623.656 77.2452 623.409 76.9499 623.62 76.5891C623.831 76.2283 624.423 75.9331 624.936 75.9331C625.448 75.9331 625.695 76.2283 625.484 76.5891ZM589.075 78.2988C589.205 78.4156 589.814 78.2273 590.427 77.8802C591.041 77.5338 591.983 77.4282 592.52 77.646C593.688 78.119 593.81 79.6208 592.72 80.1049C592.164 80.3516 592.252 80.6554 593.03 81.1763C594.607 82.2306 594.378 82.9765 592.099 84.2C590.988 84.797 589.961 85.398 589.815 85.5364C589.381 85.9478 591.863 87.6988 592.913 87.7211C593.447 87.7329 594.483 88.3325 595.217 89.0542C596.266 90.0868 597.409 90.3663 600.576 90.3663C604.512 90.3663 606.323 91.2592 604.63 92.3647C604.176 92.6612 603.61 92.7773 603.374 92.6231C603.137 92.4683 602.791 92.7616 602.604 93.2746C602.338 94.0061 602.794 94.1563 604.713 93.9713C607.637 93.6886 607.814 94.2331 605.294 95.7479C602.96 97.1506 602.822 98.4988 605.142 97.2201C607.552 95.8923 608.348 96.034 609.024 97.911C609.349 98.813 609.948 99.5511 610.355 99.5511C610.761 99.5511 610.885 99.7728 610.628 100.043C610.157 100.541 609.83 100.634 608.017 100.781C606.636 100.893 608.122 102.831 609.588 102.831C610.186 102.831 610.621 103.352 610.621 104.069C610.621 105.486 609.429 105.258 607.471 103.468C606.788 102.843 605.165 101.937 603.865 101.452C601.734 100.66 601.607 100.489 602.586 99.7335C603.519 99.0131 603.223 98.895 600.478 98.895C598.565 98.895 597.086 98.5598 596.788 98.0592C595.974 96.69 593.207 95.084 590.86 94.6189C588.477 94.1465 583.558 89.8664 583.981 88.6337C584.122 88.2223 583.498 87.271 582.594 86.5198L580.95 85.1539L583.511 84.7216C584.919 84.4841 586.187 84.0905 586.329 83.8471C586.653 83.2934 580.477 78.9693 580.032 79.439C579.432 80.0721 580.514 81.1815 581.732 81.1815C582.395 81.1815 582.937 81.4826 582.937 81.85C582.937 82.6878 580.033 82.0193 578.085 80.7334C575.964 79.3341 576.738 78.2771 580.191 77.8586C582.993 77.5187 588.51 77.7923 589.075 78.2988ZM765.545 77.9012C765.545 78.3821 765.731 78.5789 765.959 78.3388C766.186 78.0981 766.186 77.7044 765.959 77.4636C765.731 77.2235 765.545 77.4203 765.545 77.9012ZM633.869 79.9396C633.869 80.3391 634.302 80.49 634.833 80.2748C635.431 80.0328 635.639 80.1535 635.381 80.595C635.152 80.9854 634.299 81.1704 633.485 81.0063C632.671 80.8417 632.005 80.9617 632.005 81.2727C632.005 81.583 631.682 81.8376 631.288 81.8376C630.881 81.8376 631.057 81.2694 631.695 80.5255C632.938 79.0743 633.869 78.8236 633.869 79.9396ZM637.595 80.1587C637.595 80.3181 637.272 80.6586 636.878 80.9158C636.434 81.2064 636.329 81.0962 636.605 80.6271C637.047 79.8707 637.595 79.6116 637.595 80.1587ZM639.252 80.9631C639.024 81.2032 638.651 81.2032 638.423 80.9631C638.196 80.7223 638.382 80.5255 638.838 80.5255C639.293 80.5255 639.479 80.7223 639.252 80.9631ZM556.326 82.2286C557.1 82.7337 556.964 83.8057 556.126 83.8057C555.728 83.8057 555.614 83.584 555.874 83.3137C556.134 83.0434 554.992 82.4562 553.338 82.0101L550.329 81.1979L553.065 81.5417C554.569 81.7306 556.037 82.0396 556.326 82.2286ZM769.064 82.9312C768.836 83.1713 768.464 83.1713 768.236 82.9312C768.009 82.6904 768.195 82.4936 768.65 82.4936C769.105 82.4936 769.292 82.6904 769.064 82.9312ZM562.441 83.7519C562.441 85.2589 561.584 86.43 560.482 86.43H559.277L560.393 84.8102C561.538 83.1497 562.441 82.6826 562.441 83.7519ZM701.777 84.2433C702.005 84.4834 702.377 84.4834 702.605 84.2433C702.833 84.0026 702.646 83.8057 702.191 83.8057C701.736 83.8057 701.549 84.0026 701.777 84.2433ZM527.427 86.3762C528.837 87.0526 531.772 87.7873 533.949 88.0091C543.918 89.0247 545.654 89.6368 542.41 90.9922L541.012 91.5761L542.895 92.0091C543.931 92.2466 545.469 93.0135 546.312 93.7122L547.844 94.983L544.676 94.571C541.224 94.1229 540.525 94.7271 540.434 98.239C540.398 99.616 539.898 100.044 537.316 100.907C535.624 101.472 534.551 102.137 534.93 102.385C535.31 102.633 536.135 102.644 536.764 102.409C537.584 102.102 537.728 102.189 537.272 102.716C536.923 103.119 535.945 103.532 535.099 103.632C532.997 103.882 532.397 100.319 534.445 99.7538C535.794 99.3812 536.176 97.9497 535.112 97.2549C534.114 96.6034 534.397 95.5393 535.513 95.7499C536.076 95.8562 536.671 95.5327 536.836 95.0315C537.009 94.5047 536.858 94.3013 536.477 94.55C536.115 94.7868 535.667 94.7206 535.481 94.403C535.295 94.0861 533.809 93.4636 532.178 93.0194C530.546 92.5759 528.652 91.9717 527.969 91.6764C521.111 88.717 519.029 86.9633 520.891 85.7175C522.26 84.8023 524.647 85.0431 527.427 86.3762ZM628.072 85.5554C627.844 85.7956 627.471 85.7956 627.243 85.5554C627.016 85.3147 627.202 85.1179 627.657 85.1179C628.113 85.1179 628.299 85.3147 628.072 85.5554ZM1075.08 85.5718C1074.35 85.7234 1073.23 86.4496 1072.6 87.1851L1071.45 88.5234L1072.98 89.8329C1074.96 91.5242 1078.87 90.9909 1081.02 88.736C1083.67 85.9576 1080.75 84.4008 1075.08 85.5718ZM672.999 86.43C672.999 86.9109 673.185 87.1077 673.413 86.8676C673.64 86.6268 673.64 86.2331 673.413 85.9924C673.185 85.7523 672.999 85.9491 672.999 86.43ZM685.727 87.0788C685.945 87.4501 685.695 87.5604 685.143 87.3366C684.067 86.9004 683.87 86.43 684.763 86.43C685.085 86.43 685.518 86.7219 685.727 87.0788ZM558.087 88.116C562.012 88.2505 565.31 88.6337 565.415 88.9669C565.526 89.3186 566.385 89.2615 567.467 88.8305C568.97 88.2308 569.435 88.2696 569.881 89.0319C570.698 90.4293 570.152 90.8912 567.68 90.8912C565.386 90.8912 564.029 91.6371 565.391 92.1508C566.331 92.5057 566.428 93.6466 565.518 93.6466C565.161 93.6466 564.17 94.3847 563.316 95.2867C561.361 97.352 560.51 97.457 562.333 95.4088C563.926 93.6164 563.96 93.3769 562.797 92.1488C562.03 91.3386 561.364 91.3937 557.828 92.5582C553.355 94.0323 553.064 94.4627 555.149 96.5234C556.416 97.7758 556.569 98.2469 556.307 100.102C556.264 100.405 555.497 101.005 554.602 101.436C553.241 102.091 553.031 102.065 553.317 101.278C553.523 100.712 553.196 100.208 552.5 100.016C551.673 99.7879 551.439 99.2992 551.684 98.3118C551.882 97.5134 551.733 96.9269 551.333 96.9269C550.739 96.9269 547.876 94.3932 548.31 94.2521C548.396 94.2246 548.98 94.0993 549.61 93.974C551.435 93.6085 551.662 92.9558 550.328 91.9061C545.943 88.4546 545.941 88.4526 546.913 87.748C547.425 87.3767 548.543 87.2527 549.397 87.4718C550.251 87.6916 554.162 87.9809 558.087 88.116ZM671.55 87.5236C671.322 87.7637 670.949 87.7637 670.721 87.5236C670.494 87.2828 670.68 87.086 671.135 87.086C671.591 87.086 671.777 87.2828 671.55 87.5236ZM534.374 89.5023C534.822 89.6919 535.358 89.6683 535.564 89.4505C535.771 89.2326 535.404 89.0778 534.75 89.106C534.026 89.1375 533.879 89.293 534.374 89.5023ZM1242.87 89.7102C1243.08 90.0711 1243.53 90.3663 1243.87 90.3663C1244.22 90.3663 1244.32 90.0711 1244.11 89.7102C1243.9 89.3494 1243.45 89.0542 1243.11 89.0542C1242.77 89.0542 1242.66 89.3494 1242.87 89.7102ZM538.216 90.613C539.07 91.1398 539.885 91.4475 540.028 91.2966C540.413 90.8892 539.947 90.5789 538.217 90.0927L536.664 89.6558L538.216 90.613ZM578.443 90.3269C579.036 90.6655 580.285 91.1129 581.218 91.3202C582.151 91.5275 583.865 92.5785 585.027 93.6558C586.339 94.8734 587.825 95.6148 588.951 95.6148C591.155 95.6148 592.254 96.6645 592.254 98.7684C592.254 99.9631 592.502 100.247 593.273 99.9342C594.691 99.3595 596.602 100.107 596.602 101.235C596.602 101.756 597.19 102.175 597.92 102.175C599.022 102.175 599.111 102.337 598.465 103.159C597.845 103.949 597.86 104.357 598.54 105.222C599.298 106.188 599.224 106.249 597.839 105.812C596.988 105.543 595.981 104.91 595.602 104.405C595.222 103.901 594.44 103.487 593.863 103.487C593.286 103.487 592.007 103.047 591.02 102.508C590.034 101.969 588.852 101.681 588.394 101.866C587.935 102.052 587.057 101.815 586.44 101.34L585.321 100.475L586.769 100.505C587.565 100.521 588.283 100.24 588.363 99.8791C588.444 99.5183 587.465 99.1896 586.19 99.1489C580.583 98.9705 580.34 98.9082 580.004 97.5534C579.822 96.8153 578.66 95.6443 577.423 94.9515C574.016 93.043 572.149 91.2894 572.636 90.4562C573.164 89.5541 576.944 89.4701 578.443 90.3269ZM1081.38 91.0224C1081.59 91.3832 1081.9 91.6784 1082.07 91.6784C1082.25 91.6784 1082.21 91.3832 1082 91.0224C1081.79 90.6615 1081.48 90.3663 1081.31 90.3663C1081.14 90.3663 1081.17 90.6615 1081.38 91.0224ZM523.662 92.3981C528.804 93.4012 529.331 94.403 526.368 97.5324C524.992 98.9862 523.873 99.5511 522.368 99.5511C521.219 99.5511 520.106 99.8463 519.894 100.207C519.534 100.824 514.615 101.179 514.615 100.589C514.615 99.5931 515.493 98.239 516.139 98.239C518.004 98.239 519.699 95.7925 518.844 94.3361C518.123 93.1066 518.57 92.0215 519.935 91.6883C519.958 91.683 521.635 92.0019 523.662 92.3981ZM749.913 92.6625C750.084 92.8429 749.671 92.9905 748.997 92.9905C748.322 92.9905 747.228 93.4091 746.566 93.9202C745.389 94.8288 743.806 94.2771 743.806 92.9584C743.806 91.9612 749.01 91.7086 749.913 92.6625ZM1083.05 92.0202C1083.45 92.444 1095.2 95.6148 1096.37 95.6148C1097.94 95.6148 1097.24 94.5906 1095.56 94.4437C1094.65 94.3643 1091.55 93.7096 1088.68 92.9886C1083.08 91.5833 1082.55 91.4928 1083.05 92.0202ZM811.391 93.4386C811.839 93.6282 812.375 93.6046 812.581 93.3868C812.787 93.169 812.421 93.0141 811.766 93.0424C811.042 93.0738 810.895 93.2293 811.391 93.4386ZM1230.95 94.0658C1231.71 94.8669 1230.78 95.437 1229.23 95.124C1228.37 94.9502 1227.82 94.5474 1228.01 94.2279C1228.4 93.5561 1230.36 93.4485 1230.95 94.0658ZM777.035 95.6148C776.824 95.9756 777.104 96.2708 777.656 96.2708C778.209 96.2708 778.489 95.9756 778.277 95.6148C778.066 95.2539 777.787 94.9587 777.656 94.9587C777.526 94.9587 777.246 95.2539 777.035 95.6148ZM1098.05 95.3963C1098.27 95.6364 1098.65 95.6364 1098.88 95.3963C1099.1 95.1555 1098.92 94.9587 1098.46 94.9587C1098.01 94.9587 1097.82 95.1555 1098.05 95.3963ZM824.861 96.2708C824.65 96.6316 824.773 96.9269 825.135 96.9269C825.496 96.9269 825.793 96.6316 825.793 96.2708C825.793 95.91 825.67 95.6148 825.519 95.6148C825.368 95.6148 825.072 95.91 824.861 96.2708ZM773.283 96.9708C773.058 97.3553 773.041 97.8473 773.246 98.0638C773.451 98.2803 773.619 98.1222 773.619 97.7128C773.619 97.2877 774.062 97.148 774.653 97.3868C775.348 97.6689 775.539 97.5547 775.237 97.0384C774.677 96.0812 773.821 96.0517 773.283 96.9708ZM860.535 99.5111C861.229 99.9749 861.264 100.313 860.695 101.038C859.663 102.352 860.421 102.86 862.293 102.109C864.215 101.337 865.39 102.261 864.017 103.464C863.315 104.08 863.059 104.097 863.059 103.529C863.059 103.103 862.758 102.95 862.39 103.19C861.436 103.813 856.116 101.536 856.415 100.632C856.551 100.218 857.25 99.9008 857.967 99.9277C858.684 99.9546 859.128 99.7328 858.954 99.4356C858.536 98.7212 859.416 98.7632 860.535 99.5111ZM490.392 100.863C489.595 101.406 489.618 101.501 490.547 101.509C491.144 101.515 491.634 101.224 491.634 100.863C491.634 100.063 491.564 100.063 490.392 100.863ZM494.739 101.597C494.739 101.958 494.46 102.07 494.118 101.847C493.777 101.624 493.497 101.147 493.497 100.786C493.497 100.425 493.777 100.312 494.118 100.535C494.46 100.758 494.739 101.236 494.739 101.597ZM862.749 100.863C862.96 101.224 862.836 101.519 862.475 101.519C862.113 101.519 861.817 101.224 861.817 100.863C861.817 100.502 861.94 100.207 862.091 100.207C862.242 100.207 862.538 100.502 862.749 100.863ZM885.924 109.184C886.372 109.374 886.908 109.35 887.114 109.132C887.321 108.914 886.954 108.76 886.299 108.788C885.576 108.819 885.429 108.975 885.924 109.184ZM888.409 109.84C888.857 110.03 889.393 110.006 889.599 109.788C889.805 109.57 889.439 109.416 888.784 109.444C888.06 109.475 887.913 109.631 888.409 109.84ZM1236.97 110.376C1238.42 110.966 1238.73 111.274 1237.9 111.301C1236.07 111.361 1233.86 110.635 1233.86 109.971C1233.86 109.233 1234.3 109.29 1236.97 110.376ZM540.391 112.672C540.18 113.033 539.728 113.328 539.386 113.328C539.045 113.328 538.938 113.033 539.149 112.672C539.36 112.311 539.812 112.016 540.154 112.016C540.495 112.016 540.602 112.311 540.391 112.672ZM546.98 113.29C547.685 112.892 548.416 112.729 548.605 112.929C548.794 113.128 548.171 113.604 547.22 113.986C545.4 114.717 541.323 113.797 541.323 112.655C541.323 112.34 542.307 112.517 543.511 113.049C545.174 113.783 546.006 113.841 546.98 113.29ZM521.924 113.438C522.286 113.82 522.947 114.003 523.396 113.845C523.861 113.681 523.579 113.384 522.739 113.152C521.706 112.866 521.463 112.952 521.924 113.438ZM551.675 113.11C551.447 113.35 551.074 113.35 550.846 113.11C550.619 112.869 550.805 112.672 551.261 112.672C551.716 112.672 551.902 112.869 551.675 113.11ZM536.354 113.618C536.354 113.777 536.031 114.118 535.636 114.375C535.192 114.665 535.088 114.555 535.363 114.086C535.805 113.33 536.354 113.07 536.354 113.618ZM538.01 114.422C537.782 114.662 537.596 114.465 537.596 113.984C537.596 113.503 537.782 113.307 538.01 113.547C538.238 113.788 538.238 114.181 538.01 114.422ZM539.803 114.585C539.61 114.915 539.803 115.334 540.232 115.517C540.703 115.717 540.581 115.869 539.925 115.901C538.825 115.953 538.494 115.224 539.253 114.422C539.857 113.783 540.21 113.887 539.803 114.585ZM542.979 115.734C542.751 115.974 542.565 115.777 542.565 115.296C542.565 114.816 542.751 114.619 542.979 114.859C543.207 115.1 543.207 115.493 542.979 115.734ZM539.77 119.889C539.559 120.25 539.053 120.54 538.646 120.535C538.202 120.528 538.279 120.271 538.838 119.889C540.031 119.074 540.246 119.074 539.77 119.889ZM537.13 120.323C536.704 120.506 536.005 120.506 535.577 120.323C535.151 120.141 535.5 119.992 536.354 119.992C537.208 119.992 537.558 120.141 537.13 120.323ZM507.451 123.675C507.791 124.612 507.701 124.607 506.672 123.623C506.032 123.011 505.276 122.732 504.993 123.004C504.709 123.275 504.672 123.141 504.908 122.706C505.45 121.708 506.943 122.277 507.451 123.675ZM1071.75 122.513C1071.75 122.874 1071.63 123.169 1071.48 123.169C1071.33 123.169 1071.03 122.874 1070.82 122.513C1070.61 122.152 1070.73 121.857 1071.1 121.857C1071.46 121.857 1071.75 122.152 1071.75 122.513ZM1074.03 122.951C1073.8 123.191 1073.43 123.191 1073.2 122.951C1072.97 122.71 1073.16 122.513 1073.62 122.513C1074.07 122.513 1074.26 122.71 1074.03 122.951ZM480.247 126.887C480.019 127.127 479.833 126.93 479.833 126.449C479.833 125.969 480.019 125.772 480.247 126.012C480.474 126.253 480.474 126.646 480.247 126.887ZM504.677 134.995C504.677 135.705 501.591 137.185 501.128 136.696C500.921 136.479 502.97 135.087 504.522 134.392C504.608 134.354 504.677 134.625 504.677 134.995ZM504.331 138.197C504.522 138.524 504.119 138.638 503.435 138.449C501.985 138.048 501.802 137.602 503.088 137.602C503.58 137.602 504.139 137.87 504.331 138.197ZM506.54 138.914C506.54 139.275 506.261 139.571 505.919 139.571C505.578 139.571 505.298 139.275 505.298 138.914C505.298 138.554 505.578 138.258 505.919 138.258C506.261 138.258 506.54 138.554 506.54 138.914ZM436.562 142.632C436.789 142.872 437.162 142.872 437.39 142.632C437.617 142.392 437.431 142.195 436.976 142.195C436.521 142.195 436.334 142.392 436.562 142.632ZM925.792 144.163C925.792 144.644 925.978 144.841 926.206 144.601C926.433 144.36 926.433 143.966 926.206 143.725C925.978 143.485 925.792 143.682 925.792 144.163ZM1014.66 146.295C1014.6 147.593 1015.55 147.83 1016.22 146.685C1016.48 146.238 1016.39 146.106 1016 146.362C1015.64 146.6 1015.2 146.424 1015.02 145.971C1014.83 145.474 1014.69 145.602 1014.66 146.295ZM1008.19 147.225C1007.96 147.465 1007.78 147.268 1007.78 146.787C1007.78 146.306 1007.96 146.109 1008.19 146.35C1008.42 146.59 1008.42 146.984 1008.19 147.225ZM434.906 147.225C434.678 147.465 434.305 147.465 434.077 147.225C433.85 146.984 434.036 146.787 434.491 146.787C434.947 146.787 435.133 146.984 434.906 147.225ZM897.842 148.099C897.842 148.46 897.562 148.755 897.221 148.755C896.879 148.755 896.599 148.46 896.599 148.099C896.599 147.738 896.879 147.443 897.221 147.443C897.562 147.443 897.842 147.738 897.842 148.099ZM1013.99 148.755C1013.99 149.116 1014.27 149.411 1014.61 149.411C1014.95 149.411 1015.23 149.116 1015.23 148.755C1015.23 148.394 1014.95 148.099 1014.61 148.099C1014.27 148.099 1013.99 148.394 1013.99 148.755ZM1008.81 155.097C1008.59 155.338 1008.21 155.338 1007.99 155.097C1007.76 154.857 1007.94 154.66 1008.4 154.66C1008.86 154.66 1009.04 154.857 1008.81 155.097ZM213.996 263.198C213.996 263.358 213.717 263.67 213.375 263.893C213.034 264.116 212.754 263.986 212.754 263.604C212.754 263.222 213.034 262.909 213.375 262.909C213.717 262.909 213.996 263.039 213.996 263.198ZM503.849 273.844C503.621 274.084 503.435 273.887 503.435 273.406C503.435 272.925 503.621 272.728 503.849 272.968C504.076 273.209 504.076 273.603 503.849 273.844ZM460.578 285.504C460.578 285.664 460.255 286.004 459.861 286.261C459.417 286.552 459.312 286.442 459.587 285.973C460.03 285.216 460.578 284.957 460.578 285.504ZM519.584 310.911C519.584 311.211 519.321 311.457 518.999 311.457C518.678 311.457 518.271 311.211 518.095 310.911C517.919 310.61 518.182 310.364 518.679 310.364C519.177 310.364 519.584 310.61 519.584 310.911ZM565.236 524.02C565.447 524.38 565.48 524.676 565.309 524.676C565.138 524.676 564.826 524.38 564.615 524.02C564.403 523.659 564.37 523.364 564.541 523.364C564.712 523.364 565.024 523.659 565.236 524.02ZM563.476 529.706C563.248 529.946 562.875 529.946 562.647 529.706C562.42 529.465 562.606 529.268 563.062 529.268C563.517 529.268 563.703 529.465 563.476 529.706Z" fill="#FDFCF9"/>
</g>
<defs>
<clipPath id="clip0_980_941">
<rect width="1200" height="645" rx="5" fill="white"/>
</clipPath>
</defs>
</svg>
