<svg width="88" height="88" viewBox="0 0 88 88" fill="none" xmlns="http://www.w3.org/2000/svg">
<path fill-rule="evenodd" clip-rule="evenodd" d="M33.0444 52.3883C35.5395 53.7282 38.3114 54.6169 41.2502 54.9446L37.7717 64.4877L35.1548 59.7596L29.6568 61.6801L33.0444 52.3883ZM21 32.2927C21 39.7518 24.6016 46.3852 30.1567 50.5458L24.0977 67.1658L33.5953 63.8472L38.4005 72.5302L43.3737 58.8856L50.4319 78.25L55.237 69.5671L64.734 72.8857L56.7642 51.0253C62.6951 46.9058 66.5855 40.045 66.5855 32.2927C66.5855 19.7243 56.3606 9.5 43.7927 9.5C31.2249 9.5 21 19.7255 21 32.2927ZM45.5237 55.0204C48.4868 54.7969 51.2936 54.0042 53.8348 52.7519L59.1748 67.4005L53.6775 65.4795L51.0606 70.2082L45.5237 55.0204ZM43.7927 12.8459C33.0697 12.8459 24.3444 21.5709 24.3444 32.2942C24.3444 43.0166 33.0694 51.7426 43.7927 51.7426C54.5161 51.7426 63.2411 43.0175 63.2411 32.2942C63.2411 21.5718 54.5161 12.8459 43.7927 12.8459ZM32.7422 33.6725L42.6942 44.255L54.975 24.6885L52.1417 22.9109L42.1634 38.8088L35.1788 31.3815L32.7422 33.6725Z" fill="#6C96F9"/>
</svg>
