<svg width="88" height="88" viewBox="0 0 88 88" fill="none" xmlns="http://www.w3.org/2000/svg">
<path d="M43.7799 66.4871C42.2203 66.4871 40.724 67.1068 39.6213 68.2099C38.5181 69.3126 37.8984 70.8089 37.8984 72.3685C37.8984 73.9281 38.5181 75.4244 39.6213 76.5271C40.724 77.6304 42.2203 78.25 43.7799 78.25C45.3395 78.25 46.8358 77.6303 47.9385 76.5271C49.0417 75.4245 49.6614 73.9281 49.6614 72.3685C49.6593 70.8095 49.039 69.3142 47.9369 68.2121C46.8342 67.1094 45.339 66.4892 43.7799 66.4871ZM43.7799 75.8671C42.8522 75.8671 41.9623 75.4985 41.3065 74.8421C40.6501 74.1862 40.2814 73.2962 40.2814 72.3686C40.2814 71.441 40.6501 70.551 41.3065 69.8952C41.9623 69.2388 42.8523 68.8701 43.7799 68.8701C44.7075 68.8701 45.5976 69.2388 46.2534 69.8952C46.9098 70.551 47.2784 71.441 47.2784 72.3686C47.2773 73.2963 46.9082 74.1852 46.2523 74.841C45.5964 75.4968 44.7075 75.866 43.7799 75.8671Z" fill="#6C96F9"/>
<path d="M70.6784 66.4871C69.1188 66.4871 67.6225 67.1068 66.5197 68.2099C65.4165 69.3126 64.7969 70.8089 64.7969 72.3685C64.7969 73.9281 65.4166 75.4244 66.5197 76.5271C67.6224 77.6304 69.1188 78.25 70.6784 78.25C72.238 78.25 73.7342 77.6303 74.837 76.5271C75.9402 75.4245 76.5598 73.9281 76.5598 72.3685C76.5577 70.8095 75.9375 69.3142 74.8353 68.2121C73.7326 67.1094 72.2374 66.4892 70.6784 66.4871ZM70.6784 75.8671C69.7507 75.8671 68.8607 75.4985 68.2049 74.8421C67.5485 74.1862 67.1799 73.2962 67.1799 72.3686C67.1799 71.441 67.5485 70.551 68.2049 69.8952C68.8608 69.2388 69.7507 68.8701 70.6784 68.8701C71.606 68.8701 72.496 69.2388 73.1518 69.8952C73.8082 70.551 74.1768 71.441 74.1768 72.3686C74.1758 73.2963 73.8066 74.1852 73.1507 74.841C72.4949 75.4968 71.606 75.866 70.6784 75.8671Z" fill="#6C96F9"/>
<path d="M16.8815 66.4871C15.3219 66.4871 13.8256 67.1068 12.7229 68.2099C11.6196 69.3126 11 70.8089 11 72.3685C11 73.9281 11.6197 75.4244 12.7229 76.5271C13.8256 77.6304 15.3219 78.25 16.8815 78.25C18.4411 78.25 19.9373 77.6303 21.0401 76.5271C22.1433 75.4245 22.7629 73.9281 22.7629 72.3685C22.7608 70.8095 22.1406 69.3142 21.0384 68.2121C19.9358 67.1094 18.4405 66.4892 16.8815 66.4871ZM16.8815 75.8671C15.9538 75.8671 15.0638 75.4985 14.408 74.8421C13.7516 74.1862 13.383 73.2962 13.383 72.3686C13.383 71.441 13.7516 70.551 14.408 69.8952C15.0639 69.2388 15.9539 68.8701 16.8815 68.8701C17.8091 68.8701 18.6991 69.2388 19.3549 69.8952C20.0113 70.551 20.38 71.441 20.38 72.3686C20.3789 73.2963 20.0097 74.1852 19.3539 74.841C18.698 75.4968 17.8091 75.866 16.8815 75.8671Z" fill="#6C96F9"/>
<path d="M26.8433 49.6846H42.5877V56.2379H20.4799C18.1463 56.2379 16.225 58.0757 16.225 60.4088V63.8823C16.225 64.5403 16.7586 65.0738 17.4166 65.0738C18.0746 65.0738 18.6081 64.5403 18.6081 63.8823V60.4088C18.6081 59.3896 19.4608 58.6215 20.4799 58.6215H42.5877V63.8829C42.5877 64.5408 43.1212 65.0744 43.7792 65.0744C44.4372 65.0744 44.9708 64.5408 44.9708 63.8829V58.621H67.0472C68.0664 58.621 68.9505 59.3901 68.9505 60.4083V63.8812C68.9505 64.5392 69.484 65.0727 70.142 65.0727C70.8 65.0727 71.3336 64.5392 71.3336 63.8812V60.4088C71.3336 58.0757 69.3803 56.2385 67.0472 56.2385H44.9708V49.6846H60.7151C64.0604 49.6825 67.2674 48.3532 69.6334 45.9887C71.9994 43.6242 73.3303 40.4178 73.3346 37.073C73.3346 36.981 73.324 36.8889 73.3022 36.7996C73.232 33.9299 72.0452 31.2011 69.9936 29.1936C67.9425 27.1861 65.1887 26.0585 62.3184 26.0499C62.0833 26.0499 61.8418 26.0531 61.5955 26.0627V26.0632C61.2466 20.5588 58.3491 15.5326 53.7613 12.4724C49.173 9.41163 43.4196 8.66757 38.2035 10.4596C32.9879 12.2522 28.9069 16.3751 27.1687 21.6099C23.5452 22.2259 20.2568 24.1057 17.8871 26.9154C15.5174 29.7256 14.2194 33.2837 14.2237 36.9593V36.9997V37.0306C14.2232 37.047 14.2227 37.0561 14.2227 37.0731C14.2264 40.4178 15.5578 43.6248 17.9239 45.9893C20.2904 48.3537 23.498 49.6831 26.8432 49.6847L26.8433 49.6846ZM16.6069 37.0247C16.6069 30.3223 21.6012 24.6728 28.2241 23.8987C28.7044 23.8354 29.1013 23.4913 29.2311 23.0243C30.5832 18.247 34.169 14.423 38.8494 12.7677C43.5298 11.1123 48.7231 11.8309 52.7772 14.6959C56.8321 17.5608 59.2444 22.2152 59.2471 27.1797C59.2471 27.2398 59.2471 27.2973 59.2455 27.3585H59.2461C59.2376 27.7202 59.3939 28.0659 59.6711 28.2984C59.9477 28.5308 60.3152 28.6255 60.67 28.5548C63.1962 28.1313 65.7813 28.8303 67.7511 30.4681C69.7203 32.1059 70.8783 34.5204 70.923 37.0815C70.923 37.1624 70.9315 37.2432 70.949 37.3225C70.8804 39.9918 69.7724 42.5284 67.8606 44.3924C65.9494 46.2563 63.3855 47.3003 60.7152 47.3014H26.8433C24.1406 47.2998 21.548 46.2307 19.6304 44.3258C17.7133 42.421 16.6265 39.8357 16.6069 37.1331C16.608 37.1214 16.6085 37.1091 16.6085 37.0974C16.6096 37.073 16.608 37.0485 16.6042 37.0246L16.6069 37.0247Z" fill="#6C96F9"/>
<path d="M32.8474 41.5972C33.124 41.5978 33.3894 41.4877 33.5846 41.2919L34.4932 40.3834L37.1257 42.9941C37.5321 43.3973 38.1879 43.3973 38.5943 42.9941L42.3513 39.2653C42.5481 39.07 42.6588 38.8046 42.6593 38.5275C42.6598 38.2503 42.5503 37.9838 42.354 37.7881L39.7215 35.1556L45.279 29.5975C46.9572 30.7789 49.1179 31.0363 51.0265 30.2816C52.9356 29.5273 54.3362 27.8623 54.7526 25.8528C55.1696 23.8431 54.5462 21.7586 53.0951 20.3069C51.644 18.8558 49.5593 18.2324 47.5497 18.6493C45.5395 19.0658 43.8746 20.467 43.1204 22.3755C42.3656 24.2841 42.623 26.4447 43.8044 28.1229L32.1094 39.8179C31.8115 40.1164 31.7227 40.5648 31.8844 40.9541C32.0456 41.3435 32.4259 41.5973 32.8472 41.5973L32.8474 41.5972ZM40.1401 38.5216L37.8603 40.7844L35.9687 38.9078L38.2475 36.6291L40.1401 38.5216ZM48.7787 20.6257C49.8389 20.6257 50.8559 21.047 51.606 21.7965C52.356 22.5465 52.7773 23.5636 52.7773 24.6237C52.7773 25.6844 52.356 26.7014 51.606 27.4515C50.8559 28.201 49.8388 28.6223 48.7787 28.6223C47.7181 28.6223 46.7015 28.201 45.9515 27.4515C45.2015 26.7015 44.7802 25.6844 44.7802 24.6237C44.7818 23.5641 45.2031 22.5481 45.9525 21.7986C46.702 21.0497 47.718 20.6279 48.7776 20.6263L48.7787 20.6257Z" fill="#6C96F9"/>
</svg>
