<svg width="88" height="88" viewBox="0 0 88 88" fill="none" xmlns="http://www.w3.org/2000/svg">
<path fill-rule="evenodd" clip-rule="evenodd" d="M71.5727 9.50001H17.1773C13.2186 9.50001 10 12.7187 10 16.6773V52.9409C10 56.8996 13.2186 60.1182 17.1773 60.1182H29.6429V66.9176H27.7544C23.7957 66.9176 20.577 70.1363 20.577 74.095V75.9835H15.6662C14.2288 75.9835 14.2041 78.25 15.6662 78.25H73.083C74.538 78.25 74.5547 75.9835 73.0835 75.9835H68.1727L68.1732 74.0945C68.1732 70.1358 64.9545 66.9171 60.9958 66.9171H59.1073V60.1177L71.5729 60.1182C75.5316 60.1182 78.7502 56.8996 78.7502 52.9409V16.6773C78.7502 12.7186 75.5316 9.5 71.5729 9.5L71.5727 9.50001ZM60.9956 69.1846C63.7002 69.1846 65.9065 71.3904 65.9065 74.0955V75.984H22.8435V74.095C22.8435 71.3904 25.0498 69.1841 27.7544 69.1841L60.9956 69.1846ZM31.9097 66.9182V60.1187H56.8408V66.9182H31.9097ZM76.484 52.9412C76.484 55.6458 74.2778 57.852 71.5732 57.852H17.1779C14.4732 57.852 12.267 55.6458 12.267 52.9412V51.0526H76.4833L76.484 52.9412ZM76.484 48.7861H12.2665V16.6773C12.2665 13.9727 14.4727 11.7665 17.1773 11.7665H71.5727C74.2773 11.7665 76.4835 13.9722 76.4835 16.6773L76.484 48.7861ZM28.8876 54.4523C28.8876 55.0781 28.3801 55.5855 27.7543 55.5855C27.1285 55.5855 26.6211 55.0781 26.6211 54.4523C26.6211 53.8265 27.1285 53.3191 27.7543 53.3191C28.3801 53.3191 28.8876 53.8265 28.8876 54.4523ZM23.2192 55.5855C23.845 55.5855 24.3524 55.0781 24.3524 54.4523C24.3524 53.8265 23.845 53.3191 23.2192 53.3191C22.5934 53.3191 22.0859 53.8265 22.0859 54.4523C22.0859 55.0781 22.5934 55.5855 23.2192 55.5855ZM19.8212 54.4523C19.8212 55.0781 19.3137 55.5855 18.6879 55.5855C18.0621 55.5855 17.5547 55.0781 17.5547 54.4523C17.5547 53.8265 18.0621 53.3191 18.6879 53.3191C19.3137 53.3191 19.8212 53.8265 19.8212 54.4523ZM42.8326 40.9001C41.2588 42.4739 38.5349 42.4795 36.956 40.9001L36.9557 40.9003L30.5474 34.491C28.9269 32.8705 28.9269 30.2348 30.5474 28.6143C32.1208 27.0399 34.8573 27.0425 36.4256 28.6123L39.8946 32.0808L52.3232 19.6521C53.9432 18.0332 56.5784 18.0316 58.1989 19.6521C59.8208 21.2752 59.8208 23.9104 58.2019 25.5308L42.8326 40.9001ZM34.823 30.2148C34.093 29.4848 32.8834 29.4837 32.1524 30.2148C31.4137 30.9534 31.4143 32.1525 32.1504 32.8881L38.5587 39.2974C39.2943 40.0335 40.4943 40.0325 41.2304 39.2974L56.5997 23.9282C57.3358 23.1921 57.3348 21.9936 56.5997 21.2575C55.8606 20.5204 54.662 20.5173 53.9259 21.2544L40.6962 34.4842C40.2535 34.9268 39.5361 34.9268 39.0935 34.4842L34.823 30.2148Z" fill="#6C96F9"/>
</svg>
