<svg width="88" height="89" viewBox="0 0 88 89" fill="none" xmlns="http://www.w3.org/2000/svg">
<path d="M72.3736 55.0673C71.2871 53.5085 69.2181 53.0362 67.5649 53.9621L55.6043 60.6506C55.623 60.4901 55.6421 60.3291 55.6421 60.1591C55.6421 58.2036 54.055 56.607 52.0996 56.607H44.4191C43.002 56.607 41.5563 56.1629 40.2528 55.3222C38.6753 54.3114 36.3888 53.7351 33.9701 53.7351C31.0129 53.7351 28.245 54.6232 26.7711 56.0498C25.7224 57.051 24.3336 57.6935 22.8223 57.9013V56.1159C22.8223 55.1713 22.0476 54.3967 21.103 54.3967H16.7193C15.7746 54.3967 15 55.1713 15 56.1159V72.7808C15 73.7255 15.7746 74.5001 16.7193 74.5001H21.0934C22.0381 74.5001 22.8127 73.7254 22.8127 72.7808V71.1463C24.5132 70.9288 26.3178 70.8157 28.2168 70.8157C34.2159 70.8157 38.9206 71.9022 39.034 71.9209L39.3176 71.9587C39.5538 71.987 39.7995 72.0248 40.0453 72.0531C41.1126 72.1853 42.19 72.2514 43.2669 72.2514C48.2457 72.2514 53.2717 70.8813 57.7027 68.2835L71.2221 60.3667C72.1102 59.8378 72.7243 58.9875 72.9509 57.9767C73.1771 56.9563 72.9787 55.9268 72.3737 55.0669L72.3736 55.0673ZM21.4047 72.7721C21.4047 72.9422 21.2725 73.0744 21.1025 73.0744H16.7192C16.5491 73.0744 16.4169 72.9422 16.4169 72.7721V56.1061C16.4169 55.9361 16.5491 55.8039 16.7192 55.8039H21.0933C21.2634 55.8039 21.3956 55.9361 21.3956 56.1061V72.7721H21.4047ZM71.5708 57.6471C71.429 58.28 71.051 58.7998 70.5035 59.1211L56.9841 67.0379C51.8636 70.0515 45.9115 71.3269 40.2246 70.6374C39.9884 70.6091 39.7427 70.5809 39.5161 70.543L39.2986 70.5143C39.2512 70.5048 34.3764 69.3804 28.2264 69.3804C26.337 69.3804 24.5229 69.4844 22.8223 69.6923L22.8228 59.3286C24.7122 59.1111 26.441 58.3274 27.7541 57.0709C28.9823 55.8901 31.3632 55.1532 33.9707 55.1532C36.1245 55.1532 38.1369 55.6538 39.4879 56.5137C41.0184 57.5058 42.7191 58.0251 44.4192 58.0251H52.0997C53.271 58.0251 54.2252 58.9793 54.2252 60.1602C54.2252 60.7269 54.0078 61.2563 53.6111 61.6529C53.5637 61.6907 53.5167 61.7286 53.4789 61.7755C53.0822 62.1061 52.6099 62.2762 52.0997 62.2762H42.9642C42.5767 62.2762 42.2557 62.5976 42.2557 62.9847C42.2557 63.3722 42.5771 63.6932 42.9642 63.6932H52.0997C52.8178 63.6932 53.5168 63.4757 54.1121 63.0695C54.1782 63.0508 54.2443 63.0316 54.3009 62.9938L68.2545 55.1901C69.2653 54.6234 70.541 54.9161 71.2117 55.8608C71.5805 56.4093 71.7127 57.0329 71.5709 57.6471L71.5708 57.6471Z" fill="#6C96F9"/>
<path d="M29.891 39.5067H31.1096V40.9994C31.1096 41.3017 31.2984 41.5757 31.5915 41.6701L34.6809 42.7283C34.9075 43.4651 35.2098 44.1927 35.569 44.8917L34.1329 47.8297C34.0007 48.1037 34.0572 48.4247 34.2651 48.6422L37.3732 51.7411C37.5907 51.9586 37.9116 52.0056 38.1857 51.8733L41.1237 50.4468C41.8135 50.8056 42.5408 51.1079 43.2967 51.3445L44.3549 54.4339C44.4493 54.7174 44.7233 54.9158 45.0256 54.9158H49.4184C49.7207 54.9158 49.9947 54.727 50.0891 54.4339L51.1473 51.3445C51.8936 51.1083 52.6213 50.8156 53.3203 50.4468L56.2583 51.8733C56.5323 52.0056 56.8533 51.949 57.0708 51.7411L60.1697 48.6422C60.3872 48.4247 60.4341 48.1037 60.3019 47.8297L58.8754 44.8917C59.2342 44.2019 59.5365 43.4746 59.7731 42.7187L62.8624 41.6605C63.146 41.5661 63.3444 41.2921 63.3444 40.9898V39.4972H64.563C64.9506 39.4972 65.2715 39.1757 65.2715 38.7886C65.2715 38.4011 64.9501 38.0801 64.563 38.0801H60.151V22.1524C60.151 21.7648 59.8296 21.4438 59.4425 21.4438H55.4558C55.0683 21.4438 54.7473 21.7653 54.7473 22.1524V38.0801H53.3302L53.3298 26.6117C53.3298 26.2242 53.0084 25.9032 52.6213 25.9032H48.6437C48.2562 25.9032 47.9352 26.2246 47.9352 26.6117V38.0901H46.5181V33.168C46.5181 32.7804 46.1967 32.4594 45.8096 32.4594H41.8321C41.4446 32.4594 41.1236 32.7809 41.1236 33.168V38.0901H39.7065V30.6079C39.7065 30.2204 39.3851 29.8994 38.998 29.8994H35.0204C34.6329 29.8994 34.3119 30.2208 34.3119 30.6079V38.0806H29.8999C29.5124 38.0806 29.1914 38.402 29.1914 38.7891C29.1918 39.1766 29.5033 39.5072 29.8908 39.5072L29.891 39.5067ZM61.918 40.4893L58.9608 41.5C58.7433 41.5757 58.5732 41.7549 58.5071 41.982C58.2614 42.8701 57.9026 43.7295 57.4585 44.5328C57.345 44.7312 57.3358 44.9769 57.4398 45.1848L58.8099 47.9906L56.429 50.3714L53.6233 49.0014C53.4154 48.8974 53.1696 48.907 52.9713 49.0201C52.1684 49.4737 51.3085 49.823 50.4204 50.0687C50.1938 50.1348 50.0142 50.3049 49.9385 50.5223L48.9277 53.4795H45.536L44.5253 50.5223C44.4496 50.3049 44.2704 50.1348 44.0433 50.0687C43.1552 49.823 42.2958 49.4641 41.4925 49.0201C41.2941 48.9065 41.0484 48.8974 40.8405 49.0014L38.0347 50.3714L35.6447 47.9906L37.0148 45.1848C37.1188 44.9769 37.1092 44.7312 36.9961 44.5328C36.552 43.7108 36.1932 42.8513 35.957 41.982C35.8909 41.7553 35.7209 41.5757 35.5034 41.5L32.5462 40.4893V39.5067H38.8193C39.1782 43.843 42.8156 47.2534 47.2372 47.2534C51.6588 47.2534 55.3053 43.843 55.6641 39.5067H61.9373L61.9368 40.4893H61.918ZM54.2183 39.5067C53.8595 43.0588 50.8549 45.8364 47.218 45.8364C43.5806 45.8364 40.5765 43.0589 40.2268 39.5067H54.2183ZM56.1646 22.8608H58.7246V38.0804H56.1646V22.8608ZM49.353 27.3202H51.913V38.0902H49.353V27.3202ZM42.5319 33.8765H45.0919V38.0902H42.5319V33.8765ZM35.7203 31.3165H38.2803V38.0806H35.7203V31.3165Z" fill="#6C96F9"/>
<path d="M36.3428 27.8303C36.5224 27.8303 36.7016 27.7642 36.8434 27.6224L41.4441 23.0216L44.8358 26.4133C45.1098 26.6873 45.5634 26.6873 45.837 26.4133L55.3316 16.9186V18.7232C55.3316 19.1107 55.6531 19.4317 56.0402 19.4317C56.4277 19.4317 56.7487 19.1103 56.7487 18.7232V15.2085C56.7487 14.821 56.4273 14.5 56.0402 14.5H52.5259C52.1384 14.5 51.8174 14.8214 51.8174 15.2085C51.8174 15.596 52.1388 15.917 52.5259 15.917H54.3305L45.3364 24.9111L41.9448 21.5194C41.6708 21.2454 41.2171 21.2454 40.9436 21.5194L35.8422 26.6208C35.5682 26.8948 35.5682 27.3484 35.8422 27.622C35.9836 27.7546 36.1631 27.8303 36.3428 27.8303Z" fill="#6C96F9"/>
</svg>
