<svg width="88" height="89" viewBox="0 0 88 89" fill="none" xmlns="http://www.w3.org/2000/svg">
<path d="M73.9999 44.5C73.9999 52.5133 70.8797 60.0466 65.2133 65.7133C59.5468 71.38 52.0134 74.5 43.9999 74.5C37.1743 74.5 30.6037 72.1918 25.304 67.9637L25.5377 70.5925C25.5789 71.0598 25.2339 71.4732 24.7657 71.5144C24.2974 71.5557 23.8849 71.2106 23.8437 70.7424L23.4259 66.0364C23.3847 65.5691 23.7297 65.1557 24.1979 65.1145L28.9048 64.6966C29.3708 64.6546 29.7856 65.0005 29.8268 65.4687C29.868 65.936 29.5229 66.3495 29.0547 66.3907L26.3581 66.6305C31.3582 70.6214 37.5578 72.8011 43.999 72.8011C59.604 72.8011 72.2976 60.1063 72.2976 44.5013C72.2976 40.4219 71.4484 36.4858 69.7746 32.8032C69.5799 32.3757 69.7693 31.8716 70.1968 31.6769C70.6242 31.4823 71.1284 31.6717 71.3222 32.0991C73.099 36.0041 73.9992 40.1769 73.9992 44.501L73.9999 44.5ZM15.7001 44.5C15.7001 28.895 28.3948 16.2003 43.9998 16.2003C50.4415 16.2003 56.6418 18.3796 61.6407 22.3709L58.9441 22.6107C58.4768 22.6519 58.1308 23.0649 58.1721 23.5327C58.2133 24 58.6245 24.345 59.094 24.3047L63.8009 23.8869C64.0254 23.8672 64.2332 23.7584 64.3778 23.5857C64.5225 23.413 64.5927 23.1898 64.5729 22.9649L64.1551 18.2589C64.1139 17.7916 63.7001 17.4457 63.2332 17.4869C62.7658 17.5281 62.4199 17.9411 62.4611 18.4089L62.6948 21.0367C57.3952 16.8082 50.8249 14.5 44 14.5C35.9867 14.5 28.4534 17.6202 22.7867 23.2867C17.1211 28.9531 14 36.4865 14 44.5C14 48.8236 14.9001 52.9964 16.6757 56.9018C16.8186 57.2153 17.1268 57.4007 17.4503 57.4007C17.5683 57.4007 17.6875 57.3757 17.8019 57.324C18.2294 57.1294 18.4188 56.6256 18.2241 56.1978C16.5494 52.5155 15.7002 48.5794 15.7002 44.4996L15.7001 44.5ZM23.417 49.0004C22.15 49.0004 21.1197 47.9697 21.1197 46.703V42.297C21.1197 41.03 22.1504 39.9997 23.417 39.9997C25.397 39.9997 26.635 38.7151 27.1325 37.513C27.6306 36.3109 27.6635 34.5274 26.2636 33.1271C25.3679 32.2315 25.3679 30.7742 26.2636 29.8781L29.3794 26.7622C30.2751 25.8666 31.7333 25.8666 32.6285 26.7622C34.0288 28.1621 35.8118 28.1292 37.0144 27.6316C38.2165 27.134 39.501 25.8959 39.501 23.9161C39.501 22.6491 40.5317 21.6188 41.7983 21.6188H46.2044C47.4714 21.6188 48.5017 22.6495 48.5017 23.9161C48.5017 25.896 49.7862 27.1341 50.9884 27.6316C52.1905 28.1297 53.974 28.1625 55.3743 26.7627C56.2699 25.867 57.7281 25.867 58.6233 26.7627L61.7392 29.8785C62.6348 30.7742 62.6348 32.2315 61.7392 33.1276C60.3388 34.5279 60.3721 36.3113 60.8702 37.5134C61.3678 38.7156 62.6059 40.0001 64.5857 40.0001C65.8527 40.0001 66.883 41.0308 66.883 42.2974V46.7035C66.883 47.9705 65.8523 49.0008 64.5857 49.0008C62.6058 49.0008 61.3677 50.2853 60.8702 51.4875C60.3722 52.6896 60.3393 54.4731 61.7392 55.8733C62.6348 56.769 62.6348 58.2263 61.7392 59.1224L58.6233 62.2382C57.7272 63.1339 56.2694 63.1339 55.3743 62.2382C53.9739 60.8379 52.1905 60.8712 50.9884 61.3693C49.7862 61.8669 48.5017 63.105 48.5017 65.0848C48.5017 66.3518 47.471 67.3821 46.2044 67.3821H41.7983C40.5313 67.3821 39.501 66.3514 39.501 65.0848C39.501 63.1018 38.2173 61.8629 37.0156 61.3652C35.8144 60.8676 34.0309 60.8356 32.6284 62.2381C31.7323 63.1338 30.2754 63.1338 29.3793 62.2381L26.2635 59.1223C25.3678 58.2266 25.3678 56.7693 26.2635 55.8732C27.6638 54.4729 27.6305 52.6895 27.1324 51.4874C26.634 50.2848 25.3967 49.0002 23.4169 49.0002L23.417 49.0004ZM23.417 47.3002C25.7744 47.3002 27.8003 48.6554 28.7038 50.8361C29.6074 53.0177 29.1335 55.4078 27.4667 57.0747C27.2334 57.3079 27.2334 57.6863 27.4667 57.9191L30.5825 61.0349C30.8149 61.2673 31.1941 61.2681 31.4269 61.0349C32.5365 59.9253 33.9653 59.3431 35.4388 59.3431C36.181 59.3431 36.936 59.4908 37.6669 59.7933C39.8471 60.696 41.2018 62.7237 41.2018 65.0833C41.2018 65.4125 41.4696 65.6804 41.7989 65.6804H46.205C46.5342 65.6804 46.8021 65.4125 46.8021 65.0833C46.8021 62.7259 48.1572 60.7 50.3379 59.7965C52.5186 58.8929 54.9096 59.3668 56.5765 61.0336C56.8089 61.266 57.1881 61.2669 57.4205 61.0336L60.5363 57.9178C60.7695 57.6846 60.7695 57.3062 60.5363 57.0734C58.8694 55.4065 58.3956 53.0164 59.2992 50.8348C60.2028 48.6532 62.2282 47.299 64.5859 47.299C64.9152 47.299 65.183 47.0311 65.183 46.7019V42.2958C65.183 41.9665 64.9152 41.6987 64.5859 41.6987C62.2286 41.6987 60.2026 40.3436 59.2992 38.1629C58.3956 35.9813 58.8695 33.5911 60.5363 31.9242C60.7695 31.691 60.7695 31.3126 60.5363 31.0798L57.4205 27.964C57.1872 27.7308 56.8089 27.7317 56.5765 27.964C54.9096 29.6309 52.5186 30.1048 50.3379 29.2021C48.1563 28.2985 46.8021 26.273 46.8021 23.9153C46.8021 23.586 46.5342 23.3182 46.205 23.3182H41.7989C41.4696 23.3182 41.2018 23.586 41.2018 23.9153C41.2018 26.2726 39.8467 28.2986 37.666 29.2021C35.4844 30.1056 33.0942 29.6317 31.4273 27.964C31.195 27.7317 30.8157 27.7317 30.583 27.964L27.4671 31.0798C27.2339 31.3131 27.2339 31.6914 27.4671 31.9242C29.134 33.5911 29.6079 35.9813 28.7043 38.1629C27.8007 40.3445 25.7752 41.6987 23.4175 41.6987C23.0882 41.6987 22.8204 41.9665 22.8204 42.2958V46.7019C22.8199 47.0324 23.0878 47.3002 23.417 47.3002ZM32.5646 44.5001C32.5646 38.1948 37.6949 33.0646 44.0001 33.0646C50.3052 33.0646 55.4356 38.1949 55.4356 44.5001C55.4356 50.8053 50.3052 55.9356 44.0001 55.9356C37.6949 55.9356 32.5646 50.8053 32.5646 44.5001ZM34.2647 44.5001C34.2647 49.868 38.6321 54.2355 44.0001 54.2355C49.368 54.2355 53.7354 49.868 53.7354 44.5001C53.7354 39.1322 49.368 34.7647 44.0001 34.7647C38.6321 34.7647 34.2647 39.1322 34.2647 44.5001ZM37.6993 48.9316C37.2297 48.9316 36.8487 48.551 36.8487 48.081C36.8487 47.6115 37.2293 47.2305 37.6993 47.2305H38.6879V45.3497H37.6993C37.2297 45.3497 36.8487 44.9692 36.8487 44.4992C36.8487 44.0292 37.2293 43.6487 37.6993 43.6487H38.6879V41.7679H37.6993C37.2297 41.7679 36.8487 41.3873 36.8487 40.9173C36.8487 40.4478 37.2293 40.0668 37.6993 40.0668H39.0316C39.1749 39.8555 39.3569 39.6736 39.5686 39.5298V38.1974C39.5686 37.7279 39.9492 37.3469 40.4192 37.3469C40.8887 37.3469 41.2697 37.7275 41.2697 38.1974V39.1861H43.1505V38.1974C43.1505 37.7279 43.531 37.3469 44.001 37.3469C44.471 37.3469 44.8515 37.7275 44.8515 38.1974V39.1861H46.7323V38.1974C46.7323 37.7279 47.1129 37.3469 47.5829 37.3469C48.0524 37.3469 48.4334 37.7275 48.4334 38.1974V39.5298C48.6447 39.6731 48.8266 39.8551 48.9704 40.0668H50.3028C50.7723 40.0668 51.1533 40.4474 51.1533 40.9173C51.1533 41.3869 50.7728 41.7679 50.3028 41.7679H49.3141V43.6487H50.3028C50.7723 43.6487 51.1533 44.0292 51.1533 44.4992C51.1533 44.9692 50.7728 45.3497 50.3028 45.3497H49.3141V47.2305H50.3028C50.7723 47.2305 51.1533 47.6111 51.1533 48.081C51.1533 48.5506 50.7728 48.9316 50.3028 48.9316H48.9704C48.8271 49.1429 48.6451 49.3248 48.4334 49.4686V50.801C48.4334 51.2705 48.0528 51.6515 47.5829 51.6515C47.1133 51.6515 46.7323 51.2709 46.7323 50.801V49.8123H44.8515V50.801C44.8515 51.2705 44.471 51.6515 44.001 51.6515C43.531 51.6515 43.1505 51.2709 43.1505 50.801V49.8123H41.2697V50.801C41.2697 51.2705 40.8891 51.6515 40.4192 51.6515C39.9496 51.6515 39.5686 51.2709 39.5686 50.801V49.4686C39.3573 49.3253 39.1754 49.1433 39.0316 48.9316H37.6993ZM40.6888 40.888C40.5257 40.888 40.3885 41.0257 40.3885 41.1883V47.8114C40.3885 47.9745 40.5262 48.1118 40.6888 48.1118H47.312C47.4751 48.1118 47.6123 47.9741 47.6123 47.8114V41.1888C47.6123 41.0257 47.4746 40.8884 47.312 40.8884L40.6888 40.888Z" fill="#6C96F9"/>
</svg>
