<svg width="88" height="89" viewBox="0 0 88 89" fill="none" xmlns="http://www.w3.org/2000/svg">
<path d="M32.2808 57.6254V36.6431C35.0493 35.3273 37.2281 33.0263 38.3911 30.1901C39.5537 27.3538 39.6173 24.1856 38.5698 21.305C37.5218 18.4239 35.4372 16.0375 32.724 14.6112C32.4327 14.4609 32.0849 14.4722 31.8037 14.64C31.5229 14.8083 31.3488 15.11 31.3433 15.4373V25.9537H21.9686V15.4373C21.9627 15.11 21.7886 14.8087 21.5078 14.6409C21.227 14.4726 20.8792 14.4613 20.5879 14.6112C17.8747 16.0374 15.7901 18.4239 14.7421 21.305C13.6942 24.1856 13.7582 27.3538 14.9208 30.1901C16.0838 33.0264 18.2626 35.3273 21.0311 36.6431V57.6254C18.9189 59.2095 17.5725 61.6109 17.3231 64.2396C17.0737 66.8683 17.9442 69.4798 19.7212 71.4331C21.4978 73.3862 24.0156 74.4999 26.6561 74.4999C29.2965 74.4999 31.8143 73.3862 33.5909 71.4331C35.368 69.4799 36.2385 66.8684 35.989 64.2396C35.7396 61.6108 34.3932 59.2095 32.281 57.6254L32.2808 57.6254ZM26.6559 72.6239C24.496 72.6239 22.441 71.6931 21.0172 70.0693C19.593 68.4455 18.9381 66.2863 19.2205 64.1452C19.5026 62.0037 20.6941 60.0881 22.49 58.8883C22.7499 58.7146 22.906 58.4224 22.906 58.1094V36.0418C22.906 35.6664 22.6825 35.3274 22.3376 35.1801C20.0484 34.2367 18.1688 32.5108 17.0346 30.3098C15.9005 28.1093 15.5854 25.5768 16.1457 23.1653C16.7061 20.7538 18.1052 18.6198 20.0936 17.1446V26.8918C20.0936 27.4095 20.5134 27.8293 21.0311 27.8293H32.2808C32.7985 27.8293 33.2183 27.4095 33.2183 26.8918V17.1446C35.2067 18.6199 36.6057 20.7539 37.1661 23.1653C37.7265 25.5768 37.4114 28.1093 36.2772 30.3098C35.143 32.5108 33.2635 34.2367 30.9742 35.1801C30.6294 35.3274 30.4059 35.6664 30.4059 36.0418V58.1094V58.109C30.4059 58.422 30.562 58.7142 30.8219 58.8878C32.6178 60.0877 33.8093 62.0033 34.0914 64.1448C34.3739 66.2859 33.7189 68.445 32.2946 70.0689C30.8708 71.6927 28.8159 72.6235 26.656 72.6235L26.6559 72.6239Z" fill="#6C96F9"/>
<path d="M26.6562 58.5619C27.1739 58.5619 27.5937 58.1421 27.5937 57.6244V36.0625C27.5937 35.5448 27.1739 35.125 26.6562 35.125C26.1385 35.125 25.7188 35.5448 25.7188 36.0625V57.6244C25.7188 58.1421 26.1385 58.5619 26.6562 58.5619Z" fill="#6C96F9"/>
<path d="M26.6561 60.9053C25.5375 60.9053 24.4644 61.3497 23.6729 62.1407C22.8819 62.9321 22.4375 64.0052 22.4375 65.1239C22.4375 66.2427 22.882 67.3157 23.6729 68.1071C24.4643 68.8981 25.5374 69.3425 26.6561 69.3425C27.7749 69.3425 28.8479 68.8981 29.6393 68.1071C30.4303 67.3157 30.8748 66.2427 30.8748 65.1239C30.8735 64.0056 30.4286 62.933 29.6376 62.1424C28.8471 61.3514 27.7744 60.9066 26.6561 60.9053ZM26.6561 67.4676C26.0346 67.4676 25.4383 67.2207 24.9988 66.7812C24.5593 66.3418 24.3124 65.7454 24.3124 65.1239C24.3124 64.5024 24.5594 63.906 24.9988 63.4665C25.4382 63.0271 26.0346 62.7802 26.6561 62.7802C27.2777 62.7802 27.874 63.0271 28.3135 63.4665C28.753 63.906 28.9998 64.5024 28.9998 65.1239C28.999 65.7454 28.7521 66.3409 28.3126 66.7804C27.8732 67.2198 27.2776 67.4667 26.6561 67.4676Z" fill="#6C96F9"/>
<path d="M71.3925 52.9348H69.7365C69.4305 51.825 68.9877 50.7573 68.4181 49.7566L69.5938 48.5831C70.0784 48.0541 70.3345 47.3544 70.3061 46.6375C70.278 45.9201 69.9675 45.2434 69.4422 44.7537L68.1168 43.4262C67.6267 42.9022 66.9492 42.5933 66.2322 42.5657C65.5153 42.5385 64.8168 42.7955 64.2882 43.281L63.1151 44.4532C62.1132 43.8848 61.0452 43.442 59.9352 43.1344V41.4808C59.9059 40.7626 59.5933 40.0855 59.0663 39.5971C58.539 39.1086 57.8397 38.8487 57.1215 38.8743H55.2466C54.5284 38.8487 53.8294 39.1086 53.3025 39.5971C52.7756 40.0855 52.4634 40.7626 52.4345 41.4808V43.1348C51.3247 43.4416 50.257 43.8844 49.2559 44.4527L48.082 43.2813H48.0815C47.5538 42.7945 46.8545 42.5372 46.1372 42.5648C45.4198 42.5924 44.7422 42.9025 44.253 43.4282L42.928 44.7527C42.3777 45.2956 42.0638 46.0338 42.055 46.8068C42.0491 47.4723 42.3103 48.1122 42.7799 48.5843L43.95 49.7565V49.7561C43.3809 50.7572 42.9381 51.8249 42.6317 52.9347H40.9773C40.2592 52.9644 39.5821 53.2775 39.094 53.8052C38.606 54.333 38.3466 55.0327 38.3729 55.7509V57.6217C38.347 58.3398 38.606 59.0391 39.0944 59.5665C39.5824 60.0942 40.2596 60.4073 40.9773 60.437H42.6314C42.9381 61.5468 43.3809 62.6149 43.9497 63.616L42.7808 64.7858C42.2702 65.298 42.007 66.0066 42.0597 66.7281C42.1078 67.4438 42.4171 68.1168 42.9281 68.6198L44.2527 69.9428V69.9432C44.7419 70.4688 45.4191 70.7798 46.1364 70.8078C46.8542 70.8354 47.5536 70.5785 48.0817 70.0926L49.2556 68.9186C50.2567 69.4882 51.3244 69.9319 52.4347 70.2386V71.8918C52.4635 72.6099 52.7757 73.2871 53.3027 73.7755C53.8296 74.2639 54.5285 74.5238 55.2467 74.4983H57.1217C57.8398 74.5238 58.5391 74.2639 59.066 73.7755C59.5934 73.2871 59.906 72.6099 59.9353 71.8918V70.2386C61.0456 69.9314 62.1137 69.4878 63.1152 68.9182L64.2887 70.093C64.8177 70.5785 65.5171 70.835 66.2344 70.807C66.9521 70.779 67.6293 70.4684 68.119 69.9432L69.4431 68.6186H69.4427C69.9675 68.1281 70.2772 67.4501 70.3053 66.7324C70.3329 66.0147 70.0763 65.315 69.5917 64.785L68.4186 63.6157C68.9878 62.615 69.4306 61.5474 69.7365 60.4371H71.3926C72.1104 60.4074 72.7876 60.0943 73.2755 59.5666C73.7639 59.0392 74.0229 58.3399 73.997 57.6218V55.751C74.0234 55.0328 73.7639 54.3331 73.2759 53.8053C72.7879 53.2776 72.1107 52.9646 71.3925 52.9348ZM72.122 57.6218C72.1664 58.0788 71.8462 58.4915 71.3925 58.5622H69.0028C68.5621 58.5622 68.1808 58.8694 68.0871 59.2996C67.7803 60.705 67.2249 62.0442 66.4469 63.2541C66.2087 63.6254 66.2614 64.1129 66.5741 64.4243L68.2644 66.1096C68.5406 66.4804 68.4749 67.0027 68.1159 67.2936L66.7933 68.6166C66.5016 68.9707 65.9852 69.0364 65.6139 68.7673L63.9231 67.0743C63.6118 66.763 63.1263 66.7098 62.7551 66.9467C61.5443 67.7247 60.2042 68.2805 58.7984 68.5889C58.3678 68.6823 58.0602 69.0635 58.0602 69.5047V71.8918C57.9907 72.3459 57.5789 72.6669 57.1214 72.6234H55.2465C54.7895 72.6665 54.3785 72.3455 54.3094 71.8918V69.5047C54.3094 69.064 54.0022 68.6827 53.5712 68.5889C52.1663 68.2813 50.827 67.7255 49.6171 66.9476C49.245 66.7157 48.7625 66.7676 48.449 67.074L46.7565 68.7664C46.3862 69.0364 45.8697 68.9711 45.5784 68.617L44.2534 67.2936C44.0672 67.1149 43.9525 66.8743 43.9312 66.6169C43.9136 66.4311 43.9772 66.2469 44.1061 66.1118L45.7944 64.423L45.794 64.4234C46.1054 64.1121 46.1581 63.6257 45.9208 63.255C45.1436 62.0442 44.5886 60.7049 44.281 59.2996C44.1869 58.8693 43.8056 58.5622 43.3649 58.5622H40.9773C40.5207 58.4965 40.1976 58.0804 40.2478 57.6218V55.751C40.1976 55.2919 40.5203 54.8754 40.9773 54.8097H43.3649C43.8056 54.8097 44.1869 54.5025 44.2806 54.0723C44.5886 52.6674 45.1436 51.3281 45.9208 50.1178C46.1581 49.747 46.1054 49.2611 45.7944 48.9502L44.1045 47.2577C43.8354 46.8869 43.9007 46.3708 44.2535 46.0791L45.5781 44.7546H45.5785C45.8702 44.4009 46.3871 44.3365 46.7566 44.6077L48.4495 46.2973C48.7605 46.6078 49.246 46.6605 49.6164 46.4237C50.828 45.6473 52.1673 45.0923 53.5726 44.7839C54.0029 44.6897 54.3096 44.3084 54.3096 43.8682V41.481C54.3787 41.0273 54.7897 40.7063 55.2467 40.7494H57.1216C57.5791 40.7059 57.9909 41.0269 58.0604 41.481V43.8682C58.0604 44.3084 58.3671 44.6897 58.7978 44.7839C60.2036 45.0932 61.5441 45.6485 62.7565 46.4244C63.1273 46.66 63.612 46.6069 63.9225 46.2968L65.6137 44.6068C65.9841 44.3377 66.4993 44.4018 66.7923 44.7533L68.1157 46.0788H68.1161C68.4693 46.3705 68.5358 46.8865 68.2676 47.2586L66.5738 48.9489C66.2616 49.2607 66.2089 49.7474 66.447 50.1187C67.225 51.3286 67.7803 52.6674 68.0872 54.0724C68.1814 54.5026 68.5626 54.8098 69.0029 54.8098H71.3927C71.8468 54.8809 72.1665 55.2936 72.1221 55.751L72.122 57.6218Z" fill="#6C96F9"/>
<path d="M56.1873 48.7188C54.0742 48.7188 52.0473 49.5583 50.5528 51.0528C49.0583 52.5469 48.2188 54.5737 48.2188 56.6873C48.2188 58.8008 49.0583 60.8277 50.5528 62.3218C52.0473 63.8163 54.0742 64.6558 56.1873 64.6558C58.3008 64.6558 60.3277 63.8163 61.8222 62.3218C63.3163 60.8277 64.1558 58.8008 64.1558 56.6873C64.1537 54.5746 63.3133 52.549 61.8196 51.0554C60.3256 49.5613 58.2999 48.7213 56.1873 48.7188ZM56.1873 62.7809C54.5714 62.7809 53.0216 62.1389 51.8787 60.9959C50.7357 59.8534 50.0937 58.3036 50.0937 56.6873C50.0937 55.071 50.7357 53.5212 51.8787 52.3787C53.0216 51.2357 54.5714 50.5937 56.1873 50.5937C57.8036 50.5937 59.3534 51.2357 60.4963 52.3787C61.6389 53.5212 62.2809 55.071 62.2809 56.6873C62.2792 58.3027 61.6368 59.8517 60.4942 60.9942C59.3521 62.1363 57.8032 62.7792 56.1873 62.7809Z" fill="#6C96F9"/>
<path d="M71.1523 22.7022H71.1397C71.105 22.6147 71.069 22.5281 71.0317 22.4419L71.0401 22.4335H71.0405C71.5724 21.8752 71.8621 21.1294 71.8462 20.3589C71.8298 19.588 71.5093 18.8548 70.9547 18.3195L70.183 17.5465H70.1826C69.6159 16.979 68.8484 16.6568 68.0461 16.6501C67.3053 16.645 66.5934 16.9368 66.069 17.4603L66.0594 17.4699C65.9724 17.4323 65.8849 17.3963 65.797 17.3611L65.7974 17.349C65.7798 16.5781 65.4576 15.8453 64.9014 15.3112C64.3448 14.7772 63.599 14.4859 62.8277 14.5005H61.7341C60.9632 14.4859 60.2179 14.7776 59.6612 15.3112C59.105 15.8452 58.7827 16.578 58.7655 17.349V17.3607C58.6777 17.3959 58.5902 17.4319 58.5031 17.4695L58.4923 17.4586L58.4927 17.4591C57.9683 16.9363 57.2572 16.645 56.5169 16.6501C55.7159 16.6563 54.9495 16.9778 54.3833 17.5449L53.6091 18.3187C53.0399 18.8854 52.7168 19.6538 52.7109 20.4569C52.7067 21.1985 53.0005 21.9112 53.5258 22.4348L53.5312 22.4402C53.4936 22.5269 53.4576 22.6143 53.4224 22.7022H53.4107C52.6394 22.7202 51.9065 23.0425 51.3729 23.5995C50.8393 24.1566 50.548 24.9023 50.5631 25.6736V26.7648C50.548 27.5357 50.8393 28.2814 51.3729 28.8381C51.9065 29.3952 52.6393 29.7174 53.4107 29.735H53.4224C53.4571 29.8229 53.4936 29.91 53.5312 29.997L53.5233 30.005H53.5228C52.9591 30.5737 52.6653 31.3563 52.716 32.1557C52.7632 32.8973 53.0809 33.5962 53.6091 34.1193L54.3829 34.8923V34.8919C54.9487 35.4603 55.7158 35.7821 56.5173 35.7884C57.2573 35.793 57.9688 35.5017 58.4928 34.9794L58.5037 34.9685C58.5903 35.0062 58.6778 35.0426 58.7657 35.0773V35.089C58.7698 35.8888 59.1147 36.6489 59.7144 37.1783C60.2715 37.6704 60.9905 37.9408 61.7342 37.9374H62.8278C63.5991 37.9521 64.3449 37.6608 64.9015 37.1268C65.4577 36.5928 65.78 35.86 65.7976 35.089V35.0773C65.8854 35.0425 65.9725 35.0061 66.0595 34.9685L66.0688 34.9777C66.5931 35.5008 67.305 35.7925 68.0458 35.7879C68.8473 35.7816 69.614 35.4602 70.1802 34.8931L70.9541 34.1189C71.5082 33.5844 71.8284 32.8525 71.8459 32.0832C71.8631 31.3135 71.5756 30.5681 71.0466 30.0095L71.0324 29.9953C71.0696 29.9091 71.1056 29.8224 71.1403 29.735H71.1529H71.1525C71.9238 29.7174 72.6566 29.3951 73.1903 28.8381C73.7239 28.2815 74.0152 27.5357 74.0001 26.7644V25.6733C74.0152 24.9024 73.7239 24.1566 73.1903 23.5996C72.6567 23.0425 71.9239 22.7199 71.1525 22.7023L71.1523 22.7022ZM72.1249 26.7643C72.1571 27.3347 71.7227 27.8244 71.1523 27.86H69.7586C69.5657 28.7435 69.2166 29.5852 68.7278 30.3455L69.7159 31.3307C70.0926 31.7597 70.0536 32.4122 69.628 32.7934L68.8559 33.5656C68.4729 33.9849 67.8255 34.0234 67.3948 33.6526L66.4084 32.6653V32.6649C65.6475 33.1533 64.8054 33.5028 63.9224 33.6961V35.089C63.8872 35.6594 63.3984 36.0942 62.8275 36.0624H61.7339C61.1635 36.0942 60.6751 35.659 60.6404 35.089V33.6961C59.7573 33.5028 58.9161 33.1537 58.1553 32.6649L57.168 33.6522V33.6526C56.7382 34.0238 56.0907 33.9853 55.7078 33.5656L54.9348 32.7934C54.5075 32.413 54.469 31.7584 54.8486 31.3307L55.8333 30.3455C55.3453 29.5847 54.9967 28.743 54.8034 27.86H53.4105C52.8397 27.8253 52.4049 27.3352 52.4379 26.7647V25.6736C52.4049 25.1027 52.8397 24.6127 53.4105 24.5771H54.8034C54.9967 23.6945 55.3458 22.8532 55.8333 22.0924L54.8486 21.1064C54.469 20.6787 54.5075 20.0245 54.9348 19.6445L55.7078 18.8715C56.0911 18.453 56.7382 18.4153 57.168 18.7857L58.1553 19.7713C58.9165 19.2842 59.7578 18.9355 60.6404 18.7418V17.3489C60.6751 16.7789 61.1639 16.3441 61.7339 16.3755H62.8275C63.398 16.3437 63.8872 16.7789 63.9224 17.3489V18.7418C64.805 18.9359 65.6467 19.2846 66.4084 19.7713L67.3948 18.7857C67.8259 18.417 68.4712 18.4547 68.8559 18.8715L69.628 19.6445C70.0537 20.0249 70.0926 20.6774 69.7159 21.1064L68.7278 22.0924C69.2166 22.8529 69.5657 23.6941 69.7586 24.5771H71.1523C71.7227 24.6131 72.1571 25.1028 72.1249 25.6732V26.7643Z" fill="#6C96F9"/>
<path d="M62.2811 22.0005C61.1625 22.0005 60.0894 22.4449 59.2979 23.2359C58.5069 24.0273 58.0625 25.1004 58.0625 26.2191C58.0625 27.3379 58.507 28.4109 59.2979 29.2023C60.0893 29.9933 61.1624 30.4378 62.2811 30.4378C63.3999 30.4378 64.4729 29.9933 65.2643 29.2023C66.0553 28.4109 66.4998 27.3379 66.4998 26.2191C66.4985 25.1008 66.0536 24.0282 65.2626 23.2376C64.4721 22.4466 63.3994 22.0018 62.2811 22.0005ZM62.2811 28.5628C61.6596 28.5628 61.0633 28.3159 60.6238 27.8765C60.1843 27.437 59.9374 26.8406 59.9374 26.2191C59.9374 25.5976 60.1844 25.0012 60.6238 24.5618C61.0632 24.1223 61.6596 23.8754 62.2811 23.8754C62.9027 23.8754 63.499 24.1223 63.9385 24.5618C64.378 25.0012 64.6248 25.5976 64.6248 26.2191C64.6248 26.8406 64.3779 27.437 63.9385 27.8765C63.499 28.3159 62.9027 28.5628 62.2811 28.5628Z" fill="#6C96F9"/>
</svg>
