<svg width="88" height="89" viewBox="0 0 88 89" fill="none" xmlns="http://www.w3.org/2000/svg">
<path d="M74.8547 72.5661H69.1654C70.9684 70.3847 70.7946 67.0657 68.6508 64.921C67.488 63.7597 63.2696 60.7572 59.9342 59.1482C61.9698 54.8816 61.5235 49.6596 58.4903 45.8246V15.4669C58.4903 14.9325 58.0573 14.5 57.5234 14.5H28.03C28.0222 14.5 28.0157 14.5041 28.0079 14.5046C27.7919 14.5092 27.5782 14.578 27.4052 14.7229L17.7451 22.8556C17.4291 23.1217 17.403 23.4381 17.403 23.8413V63.0043C17.403 63.5387 17.8359 63.9712 18.3698 63.9712H41.1997C45.3479 66.936 50.8722 67.103 55.229 64.4001C56.8082 67.6007 59.4282 71.2328 60.6698 72.5662H12.9669C12.433 72.5662 12 72.9988 12 73.5331C12 74.0675 12.433 74.5 12.9669 74.5H74.8541C75.388 74.5 75.821 74.0675 75.821 73.5331C75.8214 72.9988 75.3885 72.5662 74.8546 72.5662L74.8547 72.5661ZM27.0614 17.5409V22.628H21.0188L27.0614 17.5409ZM19.3374 24.8086H28.0301C28.564 24.8086 28.997 24.376 28.997 23.8417L28.9974 16.4341H56.557V43.8387C51.5845 39.7721 44.2174 40.056 39.5805 44.6914C39.2222 45.0492 38.8961 45.4294 38.587 45.8206L27.3445 45.8211C26.8106 45.8211 26.3776 46.2536 26.3776 46.788C26.3776 47.3223 26.8106 47.7549 27.3445 47.7549H37.3187C36.245 49.7905 35.7102 52.1333 35.9162 54.6891H27.3441C26.8102 54.6891 26.3772 55.1216 26.3772 55.656C26.3772 56.1903 26.8102 56.6228 27.3441 56.6228H36.229C36.7083 58.6231 37.6688 60.4729 39.0557 62.0374L19.3374 62.0379L19.3374 24.8086ZM40.9461 61.2474C36.797 57.0992 36.7007 50.2976 40.9461 46.0604C43.04 43.967 45.7902 42.9203 48.5404 42.9203C58.1307 42.9203 62.828 54.554 56.1337 61.2484C51.9891 65.3934 45.1646 65.4663 40.9466 61.2484L40.9461 61.2474ZM62.2038 71.3753C61.1177 70.2805 58.3212 66.4194 56.8126 63.2371C57.0461 63.0357 57.2809 62.8358 57.5015 62.6147C58.0565 62.0601 58.5459 61.4611 58.9762 60.8318C62.2493 62.377 66.358 65.3644 67.2832 66.2891C68.7986 67.8045 68.8899 70.1805 67.4868 71.585C66.1305 72.9417 63.7463 72.9179 62.2038 71.3753Z" fill="#6C96F9"/>
<path d="M27.3497 30.026H48.5428C49.0767 30.026 49.5097 29.5935 49.5097 29.0591C49.5097 28.5248 49.0767 28.0923 48.5428 28.0923L27.3497 28.0918C26.8158 28.0918 26.3828 28.5243 26.3828 29.0587C26.3828 29.5935 26.8158 30.026 27.3497 30.026Z" fill="#6C96F9"/>
<path d="M27.3497 38.8888H48.5428C49.0767 38.8888 49.5097 38.4563 49.5097 37.922C49.5097 37.3876 49.0767 36.9551 48.5428 36.9551H27.3497C26.8158 36.9551 26.3828 37.3876 26.3828 37.922C26.3828 38.4563 26.8158 38.8888 27.3497 38.8888Z" fill="#6C96F9"/>
<path d="M52.2917 50.6175L47.4936 55.4156L45.0452 52.9672C44.6677 52.5897 44.0554 52.5897 43.6778 52.9672C43.2999 53.3447 43.3003 53.957 43.6778 54.3345L46.8101 57.4668C46.9991 57.6558 47.2463 57.7503 47.494 57.7503C47.7412 57.7503 47.9889 57.6558 48.1779 57.4668L53.6595 51.9852C54.037 51.6077 54.037 50.9954 53.6595 50.6178C53.2811 50.2394 52.6697 50.2394 52.2918 50.6174L52.2917 50.6175Z" fill="#6C96F9"/>
</svg>
