<svg width="15" height="15" viewBox="0 0 15 15" fill="none" xmlns="http://www.w3.org/2000/svg">
<path d="M14.9062 7.375C14.9062 3.36133 11.6543 0.109375 7.64062 0.109375C3.62695 0.109375 0.375 3.36133 0.375 7.375C0.375 11.3887 3.62695 14.6406 7.64062 14.6406C11.6543 14.6406 14.9062 11.3887 14.9062 7.375ZM1.78125 7.375C1.78125 4.15234 4.38867 1.51562 7.64062 1.51562C10.8633 1.51562 13.5 4.15234 13.5 7.375C13.5 10.627 10.8633 13.2344 7.64062 13.2344C4.38867 13.2344 1.78125 10.627 1.78125 7.375ZM3.89062 7.96094C3.89062 8.16602 4.03711 8.3125 4.24219 8.3125H7.64062V10.2754C7.64062 10.5977 7.99219 10.7734 8.22656 10.5391L11.127 7.63867C11.2734 7.49219 11.2734 7.28711 11.127 7.14062L8.22656 4.24023C7.99219 4.00586 7.64062 4.18164 7.64062 4.47461V6.4375H4.24219C4.03711 6.4375 3.89062 6.61328 3.89062 6.78906V7.96094Z" fill="white"/>
</svg>
