<svg width="23" height="24" viewBox="0 0 23 24" fill="none" xmlns="http://www.w3.org/2000/svg">
<path d="M9.5 17.25L18.3125 8.4375L16.5625 6.6875L9.5 13.75L5.9375 10.1875L4.1875 11.9375L9.5 17.25ZM2.5 23.25C1.8125 23.25 1.22375 23.0054 0.733752 22.5163C0.243752 22.0271 -0.000831211 21.4383 2.12224e-06 20.75V3.25C2.12224e-06 2.5625 0.245002 1.97375 0.735002 1.48375C1.225 0.993752 1.81334 0.749169 2.5 0.750002H20C20.6875 0.750002 21.2763 0.995002 21.7663 1.485C22.2563 1.975 22.5008 2.56334 22.5 3.25V20.75C22.5 21.4375 22.255 22.0263 21.765 22.5163C21.275 23.0063 20.6867 23.2508 20 23.25H2.5Z" fill="#6C96F9"/>
</svg>
