<svg width="23" height="23" viewBox="0 0 23 23" fill="none" xmlns="http://www.w3.org/2000/svg">
<path d="M14.032 11.5L19.2727 6.25929C19.5118 6.02019 19.6602 5.68894 19.6602 5.32354C19.6602 4.59244 19.0677 4 18.3366 4C17.9713 4 17.6404 4.14831 17.4009 4.3878L12.1602 9.62801L6.91945 4.3878C6.67995 4.14831 6.34909 4 5.98369 4C5.2526 4 4.66016 4.59244 4.66016 5.32354C4.66016 5.68889 4.80846 6.01979 5.04796 6.25929L10.2882 11.5L5.04796 16.7407C4.80846 16.9802 4.66016 17.3111 4.66016 17.6765C4.66016 18.4076 5.2526 19 5.98369 19C6.34905 19 6.67995 18.8517 6.91945 18.6122L12.1602 13.372L17.4009 18.6127C17.6404 18.8518 17.9712 19.0001 18.3366 19.0001C19.0677 19.0001 19.6602 18.4077 19.6602 17.6766C19.6602 17.3112 19.5118 16.9803 19.2724 16.7408L14.032 11.5Z" fill="white"/>
</svg>
