<svg width="88" height="89" viewBox="0 0 88 89" fill="none" xmlns="http://www.w3.org/2000/svg">
<path d="M33.7979 35.2837H33.6479V35.4337V37.7003V37.8503H33.7979H36.0646H36.2146V37.7003V35.4337V35.2837H36.0646H33.7979ZM37.1979 39.817H32.6646C32.1221 39.817 31.6813 39.3762 31.6813 38.8337V34.3003C31.6813 33.7578 32.1221 33.317 32.6646 33.317H37.1979C37.7404 33.317 38.1813 33.7578 38.1813 34.3003V38.8337C38.1813 39.3762 37.7404 39.817 37.1979 39.817Z" fill="#6C96F9" stroke="#F5F8FF" stroke-width="0.3"/>
<path d="M42.8663 35.2837H42.7163V35.4337V37.7003V37.8503H42.8663H45.1329H45.2829V37.7003V35.4337V35.2837H45.1329H42.8663ZM46.2663 39.817H41.7329C41.1904 39.817 40.7496 39.3762 40.7496 38.8337V34.3003C40.7496 33.7578 41.1904 33.317 41.7329 33.317H46.2663C46.8088 33.317 47.2496 33.7578 47.2496 34.3003V38.8337C47.2496 39.3762 46.8088 39.817 46.2663 39.817Z" fill="#6C96F9" stroke="#F5F8FF" stroke-width="0.3"/>
<path d="M33.7979 44.3501H33.6479V44.5001V46.7667V46.9167H33.7979H36.0646H36.2146V46.7667V44.5001V44.3501H36.0646H33.7979ZM37.1979 48.8834H32.6646C32.1221 48.8834 31.6813 48.4426 31.6813 47.9001V43.3667C31.6813 42.8242 32.1221 42.3834 32.6646 42.3834H37.1979C37.7404 42.3834 38.1813 42.8242 38.1813 43.3667V47.9001C38.1813 48.4426 37.7404 48.8834 37.1979 48.8834Z" fill="#6C96F9" stroke="#F5F8FF" stroke-width="0.3"/>
<path d="M42.8663 44.3501H42.7163V44.5001V46.7667V46.9167H42.8663H45.1329H45.2829V46.7667V44.5001V44.3501H45.1329H42.8663ZM46.2663 48.8834H41.7329C41.1904 48.8834 40.7496 48.4426 40.7496 47.9001V43.3667C40.7496 42.8242 41.1904 42.3834 41.7329 42.3834H46.2663C46.8088 42.3834 47.2496 42.8242 47.2496 43.3667V47.9001C47.2496 48.4426 46.8088 48.8834 46.2663 48.8834Z" fill="#6C96F9" stroke="#F5F8FF" stroke-width="0.3"/>
<path d="M51.9366 35.2837H51.7866V35.4337V37.7003V37.8503H51.9366H54.2033H54.3533V37.7003V35.4337V35.2837H54.2033H51.9366ZM55.3366 39.817H50.8033C50.2607 39.817 49.8199 39.3762 49.8199 38.8337V34.3003C49.8199 33.7578 50.2607 33.317 50.8033 33.317H55.3366C55.8791 33.317 56.3199 33.7578 56.3199 34.3003V38.8337C56.3199 39.3762 55.8791 39.817 55.3366 39.817Z" fill="#6C96F9" stroke="#F5F8FF" stroke-width="0.3"/>
<path d="M33.7979 26.2168H33.6479V26.3668V28.6334V28.7834H33.7979H36.0646H36.2146V28.6334V26.3668V26.2168H36.0646H33.7979ZM37.1979 30.7501H32.6646C32.1221 30.7501 31.6813 30.3093 31.6813 29.7668V25.2334C31.6813 24.6909 32.1221 24.2501 32.6646 24.2501H37.1979C37.7404 24.2501 38.1813 24.6909 38.1813 25.2334V29.7668C38.1813 30.3093 37.7404 30.7501 37.1979 30.7501Z" fill="#6C96F9" stroke="#F5F8FF" stroke-width="0.3"/>
<path d="M42.8663 26.2168H42.7163V26.3668V28.6334V28.7834H42.8663H45.1329H45.2829V28.6334V26.3668V26.2168H45.1329H42.8663ZM46.2663 30.7501H41.7329C41.1904 30.7501 40.7496 30.3093 40.7496 29.7668V25.2334C40.7496 24.6909 41.1904 24.2501 41.7329 24.2501H46.2663C46.8088 24.2501 47.2496 24.6909 47.2496 25.2334V29.7668C47.2496 30.3093 46.8088 30.7501 46.2663 30.7501Z" fill="#6C96F9" stroke="#F5F8FF" stroke-width="0.3"/>
<path d="M51.9366 26.2168H51.7866V26.3668V28.6334V28.7834H51.9366H54.2033H54.3533V28.6334V26.3668V26.2168H54.2033H51.9366ZM55.3366 30.7501H50.8033C50.2607 30.7501 49.8199 30.3093 49.8199 29.7668V25.2334C49.8199 24.6909 50.2607 24.2501 50.8033 24.2501H55.3366C55.8791 24.2501 56.3199 24.6909 56.3199 25.2334V29.7668C56.3199 30.3093 55.8791 30.7501 55.3366 30.7501Z" fill="#6C96F9" stroke="#F5F8FF" stroke-width="0.3"/>
<path d="M33.7979 17.1499H33.6479V17.2999V19.5665V19.7165H33.7979H36.0646H36.2146V19.5665V17.2999V17.1499H36.0646H33.7979ZM37.1979 21.6832H32.6646C32.1221 21.6832 31.6813 21.2424 31.6813 20.6999V16.1665C31.6813 15.624 32.1221 15.1832 32.6646 15.1832H37.1979C37.7404 15.1832 38.1813 15.624 38.1813 16.1665V20.6999C38.1813 21.2424 37.7404 21.6832 37.1979 21.6832Z" fill="#6C96F9" stroke="#F5F8FF" stroke-width="0.3"/>
<path d="M42.8663 17.1499H42.7163V17.2999V19.5665V19.7165H42.8663H45.1329H45.2829V19.5665V17.2999V17.1499H45.1329H42.8663ZM46.2663 21.6832H41.7329C41.1904 21.6832 40.7496 21.2424 40.7496 20.6999V16.1665C40.7496 15.624 41.1904 15.1832 41.7329 15.1832H46.2663C46.8088 15.1832 47.2496 15.624 47.2496 16.1665V20.6999C47.2496 21.2424 46.8088 21.6832 46.2663 21.6832Z" fill="#6C96F9" stroke="#F5F8FF" stroke-width="0.3"/>
<path d="M51.9366 17.1499H51.7866V17.2999V19.5665V19.7165H51.9366H54.2033H54.3533V19.5665V17.2999V17.1499H54.2033H51.9366ZM55.3366 21.6832H50.8033C50.2607 21.6832 49.8199 21.2424 49.8199 20.6999V16.1665C49.8199 15.624 50.2607 15.1832 50.8033 15.1832H55.3366C55.8791 15.1832 56.3199 15.624 56.3199 16.1665V20.6999C56.3199 21.2424 55.8791 21.6832 55.3366 21.6832Z" fill="#6C96F9" stroke="#F5F8FF" stroke-width="0.3"/>
<path d="M51.9366 44.3501H51.7866V44.5001V46.7667V46.9167H51.9366H54.2033H54.3533V46.7667V44.5001V44.3501H54.2033H51.9366ZM55.3366 48.8834H50.8033C50.2607 48.8834 49.8199 48.4426 49.8199 47.9001V43.3667C49.8199 42.8242 50.2607 42.3834 50.8033 42.3834H55.3366C55.8791 42.3834 56.3199 42.8242 56.3199 43.3667V47.9001C56.3199 48.4426 55.8791 48.8834 55.3366 48.8834Z" fill="#6C96F9" stroke="#F5F8FF" stroke-width="0.3"/>
<mask id="path-13-inside-1_757_13410" fill="white">
<path d="M76.8667 26.3667H61V11.6333C61 11.01 60.49 10.5 59.8667 10.5H28.1333C27.51 10.5 27 11.01 27 11.6333V26.3667H11.1333C10.51 26.3667 10 26.8767 10 27.5V77.3667C10 77.99 10.51 78.5 11.1333 78.5H76.8667C77.49 78.5 78 77.99 78 77.3667V27.5C78 26.8767 77.49 26.3667 76.8667 26.3667ZM66.6667 28.6333H70.0667V32.0333H66.6667V28.6333ZM66.6667 34.3H70.0667V37.7H66.6667V34.3ZM66.6667 39.9667H70.0667V43.3667H66.6667V39.9667ZM66.6667 45.6333H70.0667V49.0333H66.6667V45.6333ZM66.6667 51.3H70.0667V54.7H66.6667V51.3ZM66.6667 56.9667H70.0667V60.3667H66.6667V56.9667ZM66.6667 62.6333H70.0667V66.0333H66.6667V62.6333ZM66.6667 68.3H70.0667V71.7H66.6667V68.3ZM61 28.6333H64.4V32.0333H61V28.6333ZM61 34.3H64.4V37.7H61V34.3ZM61 39.9667H64.4V43.3667H61V39.9667ZM61 45.6333H64.4V49.0333H61V45.6333ZM61 51.3H64.4V54.7H61V51.3ZM61 56.9667H64.4V60.3667H61V56.9667ZM61 62.6333H64.4V66.0333H61V62.6333ZM61 68.3H64.4V71.7H61V68.3ZM29.2667 12.7667H58.7333V71.7H54.2V58.1H55.3333C55.9567 58.1 56.4667 57.59 56.4667 56.9667V52.4333C56.4667 51.81 55.9567 51.3 55.3333 51.3H32.6667C32.0433 51.3 31.5333 51.81 31.5333 52.4333V56.9667C31.5333 57.59 32.0433 58.1 32.6667 58.1H33.8V71.7H29.2667V12.7667ZM33.8 55.8333V53.5667H54.2V55.8333H33.8ZM51.9333 58.1V71.7H45.1333V58.1H51.9333ZM42.8667 58.1V71.7H36.0667V58.1H42.8667ZM23.6 28.6333H27V32.0333H23.6V28.6333ZM23.6 34.3H27V37.7H23.6V34.3ZM23.6 39.9667H27V43.3667H23.6V39.9667ZM23.6 45.6333H27V49.0333H23.6V45.6333ZM23.6 51.3H27V54.7H23.6V51.3ZM23.6 56.9667H27V60.3667H23.6V56.9667ZM23.6 62.6333H27V66.0333H23.6V62.6333ZM23.6 68.3H27V71.7H23.6V68.3ZM17.9333 28.6333H21.3333V32.0333H17.9333V28.6333ZM17.9333 34.3H21.3333V37.7H17.9333V34.3ZM17.9333 39.9667H21.3333V43.3667H17.9333V39.9667ZM17.9333 45.6333H21.3333V49.0333H17.9333V45.6333ZM17.9333 51.3H21.3333V54.7H17.9333V51.3ZM17.9333 56.9667H21.3333V60.3667H17.9333V56.9667ZM17.9333 62.6333H21.3333V66.0333H17.9333V62.6333ZM17.9333 68.3H21.3333V71.7H17.9333V68.3ZM12.2667 28.6333H15.6667V32.0333H12.2667V28.6333ZM12.2667 34.3H15.6667V37.7H12.2667V34.3ZM12.2667 39.9667H15.6667V43.3667H12.2667V39.9667ZM12.2667 45.6333H15.6667V49.0333H12.2667V45.6333ZM12.2667 51.3H15.6667V54.7H12.2667V51.3ZM12.2667 56.9667H15.6667V60.3667H12.2667V56.9667ZM12.2667 62.6333H15.6667V66.0333H12.2667V62.6333ZM12.2667 68.3H15.6667V71.7H12.2667V68.3ZM75.7333 76.2333H12.2667V73.9667H75.7333V76.2333ZM75.7333 71.7H72.3333V68.3H75.7333V71.7ZM75.7333 66.0333H72.3333V62.6333H75.7333V66.0333ZM75.7333 60.3667H72.3333V56.9667H75.7333V60.3667ZM75.7333 54.7H72.3333V51.3H75.7333V54.7ZM75.7333 49.0333H72.3333V45.6333H75.7333V49.0333ZM75.7333 43.3667H72.3333V39.9667H75.7333V43.3667ZM75.7333 37.7H72.3333V34.3H75.7333V37.7ZM75.7333 32.0333H72.3333V28.6333H75.7333V32.0333Z"/>
</mask>
<path d="M76.8667 26.3667H61V11.6333C61 11.01 60.49 10.5 59.8667 10.5H28.1333C27.51 10.5 27 11.01 27 11.6333V26.3667H11.1333C10.51 26.3667 10 26.8767 10 27.5V77.3667C10 77.99 10.51 78.5 11.1333 78.5H76.8667C77.49 78.5 78 77.99 78 77.3667V27.5C78 26.8767 77.49 26.3667 76.8667 26.3667ZM66.6667 28.6333H70.0667V32.0333H66.6667V28.6333ZM66.6667 34.3H70.0667V37.7H66.6667V34.3ZM66.6667 39.9667H70.0667V43.3667H66.6667V39.9667ZM66.6667 45.6333H70.0667V49.0333H66.6667V45.6333ZM66.6667 51.3H70.0667V54.7H66.6667V51.3ZM66.6667 56.9667H70.0667V60.3667H66.6667V56.9667ZM66.6667 62.6333H70.0667V66.0333H66.6667V62.6333ZM66.6667 68.3H70.0667V71.7H66.6667V68.3ZM61 28.6333H64.4V32.0333H61V28.6333ZM61 34.3H64.4V37.7H61V34.3ZM61 39.9667H64.4V43.3667H61V39.9667ZM61 45.6333H64.4V49.0333H61V45.6333ZM61 51.3H64.4V54.7H61V51.3ZM61 56.9667H64.4V60.3667H61V56.9667ZM61 62.6333H64.4V66.0333H61V62.6333ZM61 68.3H64.4V71.7H61V68.3ZM29.2667 12.7667H58.7333V71.7H54.2V58.1H55.3333C55.9567 58.1 56.4667 57.59 56.4667 56.9667V52.4333C56.4667 51.81 55.9567 51.3 55.3333 51.3H32.6667C32.0433 51.3 31.5333 51.81 31.5333 52.4333V56.9667C31.5333 57.59 32.0433 58.1 32.6667 58.1H33.8V71.7H29.2667V12.7667ZM33.8 55.8333V53.5667H54.2V55.8333H33.8ZM51.9333 58.1V71.7H45.1333V58.1H51.9333ZM42.8667 58.1V71.7H36.0667V58.1H42.8667ZM23.6 28.6333H27V32.0333H23.6V28.6333ZM23.6 34.3H27V37.7H23.6V34.3ZM23.6 39.9667H27V43.3667H23.6V39.9667ZM23.6 45.6333H27V49.0333H23.6V45.6333ZM23.6 51.3H27V54.7H23.6V51.3ZM23.6 56.9667H27V60.3667H23.6V56.9667ZM23.6 62.6333H27V66.0333H23.6V62.6333ZM23.6 68.3H27V71.7H23.6V68.3ZM17.9333 28.6333H21.3333V32.0333H17.9333V28.6333ZM17.9333 34.3H21.3333V37.7H17.9333V34.3ZM17.9333 39.9667H21.3333V43.3667H17.9333V39.9667ZM17.9333 45.6333H21.3333V49.0333H17.9333V45.6333ZM17.9333 51.3H21.3333V54.7H17.9333V51.3ZM17.9333 56.9667H21.3333V60.3667H17.9333V56.9667ZM17.9333 62.6333H21.3333V66.0333H17.9333V62.6333ZM17.9333 68.3H21.3333V71.7H17.9333V68.3ZM12.2667 28.6333H15.6667V32.0333H12.2667V28.6333ZM12.2667 34.3H15.6667V37.7H12.2667V34.3ZM12.2667 39.9667H15.6667V43.3667H12.2667V39.9667ZM12.2667 45.6333H15.6667V49.0333H12.2667V45.6333ZM12.2667 51.3H15.6667V54.7H12.2667V51.3ZM12.2667 56.9667H15.6667V60.3667H12.2667V56.9667ZM12.2667 62.6333H15.6667V66.0333H12.2667V62.6333ZM12.2667 68.3H15.6667V71.7H12.2667V68.3ZM75.7333 76.2333H12.2667V73.9667H75.7333V76.2333ZM75.7333 71.7H72.3333V68.3H75.7333V71.7ZM75.7333 66.0333H72.3333V62.6333H75.7333V66.0333ZM75.7333 60.3667H72.3333V56.9667H75.7333V60.3667ZM75.7333 54.7H72.3333V51.3H75.7333V54.7ZM75.7333 49.0333H72.3333V45.6333H75.7333V49.0333ZM75.7333 43.3667H72.3333V39.9667H75.7333V43.3667ZM75.7333 37.7H72.3333V34.3H75.7333V37.7ZM75.7333 32.0333H72.3333V28.6333H75.7333V32.0333Z" fill="#6C96F9" stroke="#F5F8FF" stroke-width="0.6" mask="url(#path-13-inside-1_757_13410)"/>
</svg>
