<svg width="88" height="89" viewBox="0 0 88 89" fill="none" xmlns="http://www.w3.org/2000/svg">
<mask id="path-1-inside-1_757_13411" fill="white">
<path d="M16.5824 32.3525C15.7077 32.3525 15.0014 33.0593 15.0014 33.9334L15 44.6699C15 45.5431 15.7068 46.2513 16.581 46.2513L21.2676 46.2527C21.7035 47.6615 22.2701 49.0236 22.9597 50.319L19.6418 53.6369C19.3451 53.9335 19.1782 54.3356 19.1782 54.7534C19.1782 55.1735 19.3456 55.5751 19.6418 55.8712L24.584 60.8135C23.2133 61.814 22.1084 63.0073 21.6876 64.4161L20.4534 68.5529C20.204 69.389 20.6795 70.2712 21.516 70.5207C21.6672 70.565 21.8193 70.585 21.97 70.585C22.6506 70.585 23.2801 70.1434 23.4847 69.4567L24.7176 65.3213C25.3366 63.2568 29.9927 61.2065 33.5796 60.2193L35.0042 65.0309C35.1306 65.4577 35.4325 65.813 35.8335 66.0066C36.2346 66.2003 36.6991 66.2146 37.1117 66.0496L39.5092 65.0809L40.1006 66.6586L37.3521 76.4922C37.1184 77.3344 37.6106 78.2057 38.4514 78.4413C38.5935 78.4809 38.7361 78.5 38.8768 78.5C39.5679 78.5 40.2036 78.0426 40.3982 77.3435L42.954 68.1939H44.5655L47.1704 77.3287C47.4093 78.1695 48.2854 78.6569 49.1253 78.4161C49.9647 78.1771 50.4521 77.3025 50.2108 76.4611L47.4142 66.6543L47.9979 65.0929L50.3692 66.0491C50.5599 66.1245 50.7607 66.1617 50.9606 66.1617C51.1966 66.1617 51.4317 66.1106 51.6487 66.0062C52.0493 65.8126 52.3503 65.4587 52.4767 65.0304L53.9132 60.1849C57.5116 61.1564 62.2597 63.2272 62.8864 65.3222C63.969 68.9354 64.1225 69.4456 64.123 69.4513C64.3257 70.141 64.9548 70.5845 65.6377 70.5845C65.7874 70.5845 65.9381 70.564 66.0884 70.5201C66.9244 70.2735 67.4033 69.3931 67.1552 68.5552C67.1552 68.5552 67.0088 68.0592 65.9158 64.4156C65.4956 63.0068 64.3929 61.8154 63.0247 60.8158L67.9669 55.8736C68.5845 55.256 68.5845 54.2569 67.9683 53.6383L64.6518 50.3203C65.3415 49.0207 65.908 47.6568 66.3426 46.2513H71.0278C71.8991 46.2513 72.6087 45.5426 72.6087 44.6698L72.6102 33.9349C72.6102 33.5147 72.4428 33.1132 72.1466 32.817C71.8504 32.5208 71.4479 32.3549 71.0301 32.3549H66.3435C65.9109 30.9475 65.3443 29.5854 64.6527 28.2844L67.9692 24.9664C68.5854 24.3502 68.5854 23.3497 67.9678 22.7311L60.3752 15.1395C59.759 14.5233 58.7585 14.5233 58.1385 15.1395L54.822 18.4545C53.5205 17.7663 52.1585 17.2011 50.7545 16.7672V12.0815C50.7545 11.6613 50.5871 11.2597 50.2909 10.9636C49.9947 10.6674 49.5922 10.5 49.173 10.5L38.4371 10.5005C37.5638 10.5005 36.8556 11.2092 36.8556 12.0819V16.7657C35.4496 17.2002 34.0891 17.7663 32.7881 18.4544L29.4716 15.138C29.1749 14.8423 28.7729 14.6773 28.3527 14.6773C27.9326 14.6773 27.5324 14.8432 27.2363 15.1394L19.6442 22.7315C19.028 23.3491 19.028 24.3497 19.6442 24.9669L22.9592 28.2819C22.2696 29.581 21.703 30.9421 21.2704 32.3524L16.5824 32.3525ZM35.9203 56.9916L36.0572 56.8638L40.6108 61.2281L37.5423 62.4662L35.9203 56.9916ZM44.6613 64.9858H42.849L42.4426 63.8984L43.7389 63.3776L45.0628 63.9117L44.6613 64.9858ZM49.9403 62.4667L46.8675 61.2285L51.4229 56.8643L51.5627 56.9935L49.9403 62.4667ZM24.0021 34.3174C24.4866 32.3807 25.254 30.5331 26.2793 28.8291C26.6537 28.2053 26.555 27.4098 26.0418 26.8966L22.9967 23.8501L28.3515 18.4953L31.3981 21.5404C31.9088 22.0545 32.7038 22.1518 33.3257 21.7808C35.0412 20.7535 36.8902 19.9857 38.8226 19.4973C39.5242 19.3185 40.0159 18.6875 40.0159 17.9654V13.6637L47.5908 13.6622V17.9664C47.5908 18.6885 48.082 19.3194 48.784 19.4983C50.7164 19.9867 52.564 20.753 54.2786 21.7785C54.9005 22.1481 55.6964 22.0513 56.2082 21.5395L59.2562 18.4945L64.6124 23.8507L61.5659 26.8987C61.0551 27.4143 60.955 28.2074 61.3298 28.8297C62.3571 30.5418 63.1231 32.3908 63.61 34.3228C63.786 35.0243 64.4184 35.5175 65.1433 35.5175H69.4461L69.4446 43.0909H65.1434C64.4185 43.0909 63.7856 43.5821 63.61 44.2856C63.1217 46.2218 62.3538 48.0709 61.3299 49.7801C60.9555 50.4021 61.0556 51.198 61.566 51.7098L64.6125 54.7563L60.2105 59.1583C58.1354 58.1558 56.0322 57.4943 54.8099 57.1581L54.8686 56.9554C55.0393 56.3812 54.87 55.7593 54.4327 55.3497L52.4868 53.5298C51.8735 52.9575 50.9197 52.9618 50.3116 53.545L43.7373 59.848L37.163 53.545C36.5554 52.9627 35.6015 52.9584 34.9873 53.5317L33.0444 55.3516C32.607 55.7612 32.4396 56.3817 32.6099 56.9555L32.6805 57.1906C31.4438 57.5368 29.4083 58.1854 27.3963 59.1569L22.9943 54.7549L26.0437 51.7069C26.5579 51.1947 26.6551 50.3982 26.2798 49.7759C25.2573 48.0733 24.488 46.2257 23.9964 44.2823C23.8189 43.5822 23.188 43.0905 22.4645 43.0905L18.1603 43.0891L18.1617 35.5142H22.4669C23.1923 35.5137 23.8232 35.0225 24.0021 34.3176L24.0021 34.3174Z"/>
</mask>
<path d="M16.5824 32.3525C15.7077 32.3525 15.0014 33.0593 15.0014 33.9334L15 44.6699C15 45.5431 15.7068 46.2513 16.581 46.2513L21.2676 46.2527C21.7035 47.6615 22.2701 49.0236 22.9597 50.319L19.6418 53.6369C19.3451 53.9335 19.1782 54.3356 19.1782 54.7534C19.1782 55.1735 19.3456 55.5751 19.6418 55.8712L24.584 60.8135C23.2133 61.814 22.1084 63.0073 21.6876 64.4161L20.4534 68.5529C20.204 69.389 20.6795 70.2712 21.516 70.5207C21.6672 70.565 21.8193 70.585 21.97 70.585C22.6506 70.585 23.2801 70.1434 23.4847 69.4567L24.7176 65.3213C25.3366 63.2568 29.9927 61.2065 33.5796 60.2193L35.0042 65.0309C35.1306 65.4577 35.4325 65.813 35.8335 66.0066C36.2346 66.2003 36.6991 66.2146 37.1117 66.0496L39.5092 65.0809L40.1006 66.6586L37.3521 76.4922C37.1184 77.3344 37.6106 78.2057 38.4514 78.4413C38.5935 78.4809 38.7361 78.5 38.8768 78.5C39.5679 78.5 40.2036 78.0426 40.3982 77.3435L42.954 68.1939H44.5655L47.1704 77.3287C47.4093 78.1695 48.2854 78.6569 49.1253 78.4161C49.9647 78.1771 50.4521 77.3025 50.2108 76.4611L47.4142 66.6543L47.9979 65.0929L50.3692 66.0491C50.5599 66.1245 50.7607 66.1617 50.9606 66.1617C51.1966 66.1617 51.4317 66.1106 51.6487 66.0062C52.0493 65.8126 52.3503 65.4587 52.4767 65.0304L53.9132 60.1849C57.5116 61.1564 62.2597 63.2272 62.8864 65.3222C63.969 68.9354 64.1225 69.4456 64.123 69.4513C64.3257 70.141 64.9548 70.5845 65.6377 70.5845C65.7874 70.5845 65.9381 70.564 66.0884 70.5201C66.9244 70.2735 67.4033 69.3931 67.1552 68.5552C67.1552 68.5552 67.0088 68.0592 65.9158 64.4156C65.4956 63.0068 64.3929 61.8154 63.0247 60.8158L67.9669 55.8736C68.5845 55.256 68.5845 54.2569 67.9683 53.6383L64.6518 50.3203C65.3415 49.0207 65.908 47.6568 66.3426 46.2513H71.0278C71.8991 46.2513 72.6087 45.5426 72.6087 44.6698L72.6102 33.9349C72.6102 33.5147 72.4428 33.1132 72.1466 32.817C71.8504 32.5208 71.4479 32.3549 71.0301 32.3549H66.3435C65.9109 30.9475 65.3443 29.5854 64.6527 28.2844L67.9692 24.9664C68.5854 24.3502 68.5854 23.3497 67.9678 22.7311L60.3752 15.1395C59.759 14.5233 58.7585 14.5233 58.1385 15.1395L54.822 18.4545C53.5205 17.7663 52.1585 17.2011 50.7545 16.7672V12.0815C50.7545 11.6613 50.5871 11.2597 50.2909 10.9636C49.9947 10.6674 49.5922 10.5 49.173 10.5L38.4371 10.5005C37.5638 10.5005 36.8556 11.2092 36.8556 12.0819V16.7657C35.4496 17.2002 34.0891 17.7663 32.7881 18.4544L29.4716 15.138C29.1749 14.8423 28.7729 14.6773 28.3527 14.6773C27.9326 14.6773 27.5324 14.8432 27.2363 15.1394L19.6442 22.7315C19.028 23.3491 19.028 24.3497 19.6442 24.9669L22.9592 28.2819C22.2696 29.581 21.703 30.9421 21.2704 32.3524L16.5824 32.3525ZM35.9203 56.9916L36.0572 56.8638L40.6108 61.2281L37.5423 62.4662L35.9203 56.9916ZM44.6613 64.9858H42.849L42.4426 63.8984L43.7389 63.3776L45.0628 63.9117L44.6613 64.9858ZM49.9403 62.4667L46.8675 61.2285L51.4229 56.8643L51.5627 56.9935L49.9403 62.4667ZM24.0021 34.3174C24.4866 32.3807 25.254 30.5331 26.2793 28.8291C26.6537 28.2053 26.555 27.4098 26.0418 26.8966L22.9967 23.8501L28.3515 18.4953L31.3981 21.5404C31.9088 22.0545 32.7038 22.1518 33.3257 21.7808C35.0412 20.7535 36.8902 19.9857 38.8226 19.4973C39.5242 19.3185 40.0159 18.6875 40.0159 17.9654V13.6637L47.5908 13.6622V17.9664C47.5908 18.6885 48.082 19.3194 48.784 19.4983C50.7164 19.9867 52.564 20.753 54.2786 21.7785C54.9005 22.1481 55.6964 22.0513 56.2082 21.5395L59.2562 18.4945L64.6124 23.8507L61.5659 26.8987C61.0551 27.4143 60.955 28.2074 61.3298 28.8297C62.3571 30.5418 63.1231 32.3908 63.61 34.3228C63.786 35.0243 64.4184 35.5175 65.1433 35.5175H69.4461L69.4446 43.0909H65.1434C64.4185 43.0909 63.7856 43.5821 63.61 44.2856C63.1217 46.2218 62.3538 48.0709 61.3299 49.7801C60.9555 50.4021 61.0556 51.198 61.566 51.7098L64.6125 54.7563L60.2105 59.1583C58.1354 58.1558 56.0322 57.4943 54.8099 57.1581L54.8686 56.9554C55.0393 56.3812 54.87 55.7593 54.4327 55.3497L52.4868 53.5298C51.8735 52.9575 50.9197 52.9618 50.3116 53.545L43.7373 59.848L37.163 53.545C36.5554 52.9627 35.6015 52.9584 34.9873 53.5317L33.0444 55.3516C32.607 55.7612 32.4396 56.3817 32.6099 56.9555L32.6805 57.1906C31.4438 57.5368 29.4083 58.1854 27.3963 59.1569L22.9943 54.7549L26.0437 51.7069C26.5579 51.1947 26.6551 50.3982 26.2798 49.7759C25.2573 48.0733 24.488 46.2257 23.9964 44.2823C23.8189 43.5822 23.188 43.0905 22.4645 43.0905L18.1603 43.0891L18.1617 35.5142H22.4669C23.1923 35.5137 23.8232 35.0225 24.0021 34.3176L24.0021 34.3174Z" fill="#6C96F9" stroke="#F5F8FF" mask="url(#path-1-inside-1_757_13411)"/>
<path d="M54.4135 28.6923L54.4135 28.6923C60.2618 34.542 60.2618 44.0618 54.4135 49.9099C53.892 50.4314 53.8921 51.2722 54.4134 51.793L54.4135 51.7931C54.6731 52.0527 55.0137 52.1834 55.3532 52.1834C55.6928 52.1834 56.0348 52.0525 56.2943 51.7931L54.4135 28.6923ZM54.4135 28.6923C48.5641 22.8425 39.0431 22.844 33.1934 28.6937C27.3438 34.5417 27.3437 44.0594 33.1931 49.9086C33.6978 50.4167 33.7114 51.2257 33.2355 51.7479L33.1921 51.7914C32.6736 52.3111 31.8283 52.3112 31.3093 51.7914L31.3091 51.7912C27.9738 48.4553 26.1367 44.0177 26.1367 39.2987C26.1367 34.5821 27.9737 30.1483 31.3092 26.8109C34.6472 23.4736 39.0822 21.6353 43.8041 21.6353C48.5219 21.6353 52.9589 23.4718 56.2942 26.8091L56.4711 26.6323M54.4135 28.6923L56.4711 26.6323M56.4711 26.6323L56.2942 26.8091C63.1801 33.6987 63.1801 44.9058 56.2943 51.7931L56.4711 26.6323Z" fill="#6C96F9" stroke="#F5F8FF" stroke-width="0.5"/>
<path d="M54.5614 72.1717H58.9567C59.6919 72.1717 60.2876 71.5767 60.2876 70.8407C60.2876 70.105 59.6927 69.5098 58.9567 69.5098H54.5614C53.8262 69.5098 53.2305 70.1047 53.2305 70.8406C53.2305 70.8406 53.2305 70.8407 53.2305 70.8407M54.5614 72.1717L52.9805 70.8407M54.5614 72.1717C53.8268 72.1717 53.2309 71.5769 53.2305 70.8407M54.5614 72.1717L53.2305 70.8407M53.2305 70.8407H52.9805M52.9805 70.8407C52.9809 71.7149 53.6887 72.4217 54.5614 72.4217H58.9567C59.8299 72.4217 60.5376 71.7149 60.5376 70.8407C60.5376 69.967 59.8308 69.2598 58.9567 69.2598H54.5614C53.6882 69.2598 52.9805 69.9666 52.9805 70.8407Z" fill="#6C96F9" stroke="#F5F8FF" stroke-width="0.5"/>
<path d="M54.5144 39.4757L54.5144 39.4728C54.5187 39.2658 54.5218 39.0625 54.5118 38.8705L54.5118 38.8691C54.429 37.0848 53.8827 35.3661 52.8819 33.7558L52.8817 33.7556C51.9416 32.2393 50.6875 30.9965 49.1471 30.0557C47.5704 29.0956 45.8626 28.5804 44.0763 28.5236L44.0756 28.5236C42.3189 28.4621 40.6296 28.8385 39.0556 29.6392L39.0546 29.6397C37.0483 30.6501 35.4656 32.1648 34.3453 34.1459C33.4605 35.7148 32.9974 37.3591 32.9611 39.0368L54.5144 39.4757ZM54.5144 39.4757L54.5123 39.7011L54.5123 39.7031C54.5095 42.7848 54.0135 45.5065 53.0013 48.0342C51.936 50.693 49.9619 53.0487 47.4406 54.6595L47.4398 54.66C46.3943 55.3333 45.2371 55.9337 43.6921 55.9337C43.3364 55.9337 42.9776 55.903 42.5908 55.8388L42.5904 55.8387M54.5144 39.4757L42.5904 55.8387M42.5904 55.8387C40.9016 55.5613 39.8693 54.7863 38.6542 53.7594C36.5792 52.0057 35.0684 49.9316 34.2788 47.7607C33.7072 46.18 33.3247 44.4544 33.1095 42.4821M42.5904 55.8387L33.1095 42.4821M36.781 46.8521L36.7807 46.8513C36.2831 45.4702 35.9474 43.9448 35.7577 42.1923C35.6454 41.1704 35.6006 40.1281 35.6242 39.0929C35.6486 37.8514 36.0017 36.6281 36.6647 35.4537L36.6647 35.4536C37.518 33.9437 38.7265 32.7865 40.2594 32.0138C41.3471 31.4595 42.5074 31.177 43.7022 31.177H43.7062V31.177L43.9804 31.1813L43.9848 31.1814L43.9848 31.1814C45.3147 31.2258 46.5865 31.613 47.7601 32.3275L47.7605 32.3277C48.9388 33.0479 49.903 34.0013 50.6188 35.158C51.3848 36.3916 51.7898 37.6476 51.8535 39.0006L51.8535 39.0013C51.8591 39.1253 51.8575 39.2464 51.856 39.3598C51.8557 39.3822 51.8554 39.4043 51.8552 39.4261L51.8552 39.4277L51.8505 39.7048C51.8488 42.4286 51.4175 44.8303 50.5311 47.0427L36.781 46.8521ZM36.781 46.8521C37.4169 48.5976 38.6632 50.2812 40.3738 51.7253C41.413 52.605 42.0103 53.0456 43.0238 53.2117C43.5391 53.297 43.9762 53.3044 44.4479 53.1797C44.9127 53.0569 45.3937 52.8102 46.0045 52.4184M36.781 46.8521L46.0045 52.4184M33.1095 42.4821C32.9871 41.3444 32.9366 40.1853 32.9611 39.0368L33.1095 42.4821ZM46.0045 52.4184C48.0609 51.1048 49.6683 49.1986 50.5311 47.0428L46.0045 52.4184Z" fill="#6C96F9" stroke="#F5F8FF" stroke-width="0.5"/>
</svg>
