<svg width="88" height="88" viewBox="0 0 88 88" fill="none" xmlns="http://www.w3.org/2000/svg">
<path d="M50.3236 39.3697L50.3234 39.3696L50.321 39.376C50.1672 39.7861 50.1101 40.2402 50.1029 40.6919H47.5007L48.4189 39.6361L48.4189 39.6361L48.4215 39.6329C48.6269 39.3761 48.7835 39.1198 48.936 38.8207H50.5325L50.5605 38.8486L50.3236 39.3697Z" fill="#6C96F9" stroke="#F5F8FF" stroke-width="0.2"/>
<mask id="path-2-inside-1_757_13412" fill="white">
<path d="M77.8719 22.682L76.1193 18.4333C75.9069 17.9022 75.2695 17.6367 74.7385 17.8491L72.6673 18.6988C71.8707 17.5836 70.8616 16.6277 69.7464 15.7779L70.5961 13.7068C70.8086 13.1757 70.543 12.5384 70.012 12.326L65.7633 10.5733C65.2322 10.3609 64.5949 10.6264 64.3825 11.1575L63.5327 13.2287C62.1519 13.0163 60.7711 13.0163 59.4433 13.2287L58.5936 11.1575C58.3812 10.6264 57.7439 10.3609 57.2128 10.5733L52.9641 12.326C52.433 12.5384 52.1675 13.1757 52.3799 13.7068L53.2297 15.7779C52.1144 16.5746 51.1585 17.5836 50.3088 18.6988L48.2376 17.8491C47.7065 17.6367 47.0692 17.9022 46.8568 18.4333L45.1042 22.682C44.8917 23.213 45.1573 23.8503 45.6884 24.0628L47.7595 24.9125C47.5471 26.2933 47.5471 27.6741 47.7595 29.0019L45.6884 29.8516C45.1573 30.0641 44.8917 30.7014 45.1042 31.2325L46.8568 35.4811C47.0692 36.0122 47.7065 36.2778 48.2376 36.0653L50.3088 35.2156C50.893 36.0653 51.6365 36.8088 52.3799 37.4461L49.5651 44.5096H41.5989L46.6441 38.1898C47.4407 37.1807 47.2814 35.7468 46.3255 34.8971L34.9072 25.6032C34.2699 25.1252 33.4734 24.9659 32.7297 25.1783C31.1895 23.6381 26.6754 18.6991 25.6132 11.4236C25.507 10.8394 24.9759 10.4145 24.3918 10.5207C24.1263 10.5738 23.8607 10.68 23.7014 10.8925L10.2647 27.5691C9.89293 28.0471 9.94604 28.6844 10.424 29.0561C10.6364 29.2154 10.902 29.3217 11.1675 29.2685C18.3371 28.7906 24.0725 32.1364 25.9844 33.3579C25.8251 34.2077 26.1438 35.0574 26.7811 35.5885L32.1981 39.9964L28.5868 44.5107H24.8692C24.763 44.5107 24.6036 44.5107 24.4974 44.5638L16.0001 40.7932H29.7026L27.1003 38.6688H11.0622C10.478 38.6688 10 39.1468 10 39.731C10 39.8903 10.0531 40.0497 10.1062 40.1559C10.0531 40.2621 10.0531 40.3683 10.0531 40.5276L10.1062 71.5429C10.1062 71.9677 10.3718 72.3395 10.7435 72.4988L24.0734 78.3938C24.2327 78.4469 24.3389 78.5 24.4983 78.5H76.9158C77.5 78.5 77.978 78.022 77.978 77.4378V45.5729C77.978 44.9887 77.5 44.5107 76.9158 44.5107H76.7565L72.083 42.705C71.7643 43.0768 71.3395 43.3954 70.8616 43.5547L69.6932 44.0327L70.8616 44.5107H59.284L60.771 40.8462C61.6738 40.8993 62.6297 40.8462 63.5326 40.7399L64.3824 42.8111C64.5948 43.3422 65.2321 43.6077 65.7632 43.3953L70.0118 41.6427C70.5429 41.4302 70.8085 40.7929 70.596 40.2618L69.7463 38.1907C70.8616 37.3941 71.8175 36.385 72.6672 35.2698L74.7383 36.1195C75.2694 36.3319 75.9067 36.0664 76.1192 35.5353L77.8718 31.2867C78.0842 30.7556 77.8187 30.1183 77.2876 29.9058L75.2164 29.0561C75.4289 27.6753 75.4289 26.2945 75.2164 24.9667L77.2876 24.117C77.8718 23.8514 78.1373 23.2141 77.8718 22.6831L77.8719 22.682ZM22.9051 46.2086L19.1876 55.237L15.6294 53.9624L12.4429 41.5345L22.9051 46.2086ZM23.8611 76.0027L12.2304 70.8511V48.9171L13.8237 55.0245C13.9299 55.3431 14.1423 55.6618 14.5141 55.768L19.5593 57.6267C20.0904 57.8392 20.6746 57.5736 20.8871 57.0425L23.9143 49.6605V76.0023L23.8611 76.0027ZM13.3456 27.1431L23.9673 14.0256C25.1887 18.8054 27.6318 23.1071 31.1369 26.6126L27.1006 31.6048C22.9582 28.8963 18.2316 27.3561 13.3459 27.1437L13.3456 27.1431ZM28.1091 33.9941C28.0029 33.941 28.0029 33.7817 28.056 33.6754L33.2606 27.2493C33.3138 27.1962 33.3669 27.1962 33.42 27.1962C33.4731 27.1962 33.5262 27.1962 33.5793 27.2493L44.9975 36.5432C45.1037 36.5963 45.1037 36.7556 44.9975 36.8087L39.7929 43.2349C39.7398 43.288 39.7398 43.288 39.6867 43.288C39.6336 43.288 39.5805 43.288 39.5274 43.2349L33.7385 38.5082L28.1091 33.9941ZM33.8448 41.4293L37.0845 44.0847L36.7127 44.5095H31.3487L33.8448 41.4293ZM75.8532 76.3751H25.9314V51.2012L30.4987 60.0702C30.658 60.442 31.0298 60.6544 31.4547 60.6544H70.9138C71.3387 60.6544 71.7104 60.3889 71.8698 60.0171L75.7998 51.1481V76.3742L75.8532 76.3751ZM75.4814 46.7935L70.2238 58.5305H32.0926L26.0913 46.7935H75.4814ZM61.036 34.6314L56.9998 44.5095H51.8482L56.681 32.7725C56.8403 32.4008 56.7872 31.9759 56.5217 31.6573C56.1499 31.2324 55.8312 30.7544 55.6188 30.2234C54.5567 27.8866 54.8753 25.1782 56.5217 23.1599C56.7341 22.8413 57.1059 22.682 57.4776 22.682C57.6369 22.682 57.8494 22.7351 58.0087 22.7882C58.3273 22.9475 58.5929 23.1599 58.6991 23.5317C58.9115 23.9566 58.8584 24.4876 58.5398 24.8595C57.3714 26.2403 57.2652 28.2052 58.3273 29.6923C59.1771 30.9137 60.6109 31.4979 62.0449 31.2325C63.8506 30.9138 65.1782 29.4268 65.2846 27.6211C65.2846 27.5149 65.3377 27.4087 65.3377 27.3024C65.497 26.9838 65.7626 26.7183 66.0812 26.612C66.5061 26.4527 66.9841 26.5058 67.3558 26.7714C67.7276 27.0369 67.94 27.5149 67.8869 27.9397C67.6745 30.4889 66.0282 32.6664 63.6382 33.5692C63.1071 33.7817 62.523 33.8879 61.9919 33.941C61.5671 33.9941 61.1953 34.2596 61.036 34.6314ZM73.6751 23.3193C73.1972 23.5317 72.9316 24.0097 73.0378 24.5407C73.4096 26.187 73.4096 27.8865 73.0378 29.5329C72.9316 30.0108 73.1972 30.5419 73.6751 30.7543L75.5339 31.5509L74.5779 33.8345L72.7192 33.0379C72.2412 32.8255 71.7101 33.0379 71.4446 33.4628C70.5418 34.8966 69.3203 36.0651 67.9395 36.9679C67.5146 37.2335 67.3553 37.8176 67.5146 38.2425L68.3112 40.1012L66.0276 41.0572L65.231 39.1985C65.0717 38.8267 64.6999 38.5612 64.275 38.5612H64.0626C63.3191 38.7205 62.5224 38.8267 61.7258 38.8267L62.8411 36.0651C63.3722 35.9589 63.9033 35.8526 64.3813 35.6402C67.5678 34.4718 69.7453 31.5508 70.0638 28.205C70.2232 26.2931 68.8424 24.6469 66.9305 24.4875C66.3994 24.4344 65.8152 24.5406 65.3373 24.753C64.4875 25.1248 63.7971 25.7621 63.4785 26.6117C63.3723 26.9304 63.2661 27.249 63.2661 27.6208C63.213 28.4705 62.6288 29.1078 61.7791 29.2671C61.1418 29.3733 60.5045 29.1078 60.1328 28.5767C59.6548 27.8863 59.7079 26.9834 60.239 26.3461C61.4604 24.8591 61.2481 22.6816 59.8141 21.4602C58.3802 20.2387 56.2028 20.4511 54.9813 21.885C52.8038 24.4874 52.3259 28.0988 53.7599 31.1789C53.9723 31.6569 54.291 32.1349 54.6096 32.5597L53.4413 35.4276C52.804 34.7903 52.2729 34.153 51.795 33.4095C51.5294 32.9846 50.9452 32.8253 50.5204 32.9846L48.6616 33.7812L47.7057 31.4976L49.5644 30.701C50.0424 30.4886 50.3079 30.0106 50.2017 29.4796C49.8299 27.8333 49.8299 26.1338 50.2017 24.4874C50.3079 24.0094 50.0424 23.4783 49.5644 23.266L47.7057 22.4693L48.6616 20.1858L50.5204 20.9824C50.9983 21.1948 51.5294 20.9824 51.795 20.5575C52.6978 19.1236 53.9193 17.9551 55.3001 17.0524C55.725 16.7868 55.8843 16.2026 55.725 15.7778L54.9283 13.919L57.2119 12.9631L58.0086 14.8218C58.221 15.2998 58.699 15.5653 59.23 15.4591C60.8763 15.0874 62.5758 15.0874 64.1691 15.4591C64.6471 15.5653 65.1782 15.2998 65.3906 14.8218L66.1872 12.9631L68.4708 13.919L67.6742 15.7778C67.4617 16.2557 67.6742 16.7868 68.099 17.0524C69.5329 17.9552 70.7014 19.1767 71.6042 20.5575C71.8697 20.9824 72.4539 21.1417 72.8788 20.9824L74.7375 20.1858L75.6934 22.4693L73.6751 23.3193Z"/>
</mask>
<path d="M77.8719 22.682L76.1193 18.4333C75.9069 17.9022 75.2695 17.6367 74.7385 17.8491L72.6673 18.6988C71.8707 17.5836 70.8616 16.6277 69.7464 15.7779L70.5961 13.7068C70.8086 13.1757 70.543 12.5384 70.012 12.326L65.7633 10.5733C65.2322 10.3609 64.5949 10.6264 64.3825 11.1575L63.5327 13.2287C62.1519 13.0163 60.7711 13.0163 59.4433 13.2287L58.5936 11.1575C58.3812 10.6264 57.7439 10.3609 57.2128 10.5733L52.9641 12.326C52.433 12.5384 52.1675 13.1757 52.3799 13.7068L53.2297 15.7779C52.1144 16.5746 51.1585 17.5836 50.3088 18.6988L48.2376 17.8491C47.7065 17.6367 47.0692 17.9022 46.8568 18.4333L45.1042 22.682C44.8917 23.213 45.1573 23.8503 45.6884 24.0628L47.7595 24.9125C47.5471 26.2933 47.5471 27.6741 47.7595 29.0019L45.6884 29.8516C45.1573 30.0641 44.8917 30.7014 45.1042 31.2325L46.8568 35.4811C47.0692 36.0122 47.7065 36.2778 48.2376 36.0653L50.3088 35.2156C50.893 36.0653 51.6365 36.8088 52.3799 37.4461L49.5651 44.5096H41.5989L46.6441 38.1898C47.4407 37.1807 47.2814 35.7468 46.3255 34.8971L34.9072 25.6032C34.2699 25.1252 33.4734 24.9659 32.7297 25.1783C31.1895 23.6381 26.6754 18.6991 25.6132 11.4236C25.507 10.8394 24.9759 10.4145 24.3918 10.5207C24.1263 10.5738 23.8607 10.68 23.7014 10.8925L10.2647 27.5691C9.89293 28.0471 9.94604 28.6844 10.424 29.0561C10.6364 29.2154 10.902 29.3217 11.1675 29.2685C18.3371 28.7906 24.0725 32.1364 25.9844 33.3579C25.8251 34.2077 26.1438 35.0574 26.7811 35.5885L32.1981 39.9964L28.5868 44.5107H24.8692C24.763 44.5107 24.6036 44.5107 24.4974 44.5638L16.0001 40.7932H29.7026L27.1003 38.6688H11.0622C10.478 38.6688 10 39.1468 10 39.731C10 39.8903 10.0531 40.0497 10.1062 40.1559C10.0531 40.2621 10.0531 40.3683 10.0531 40.5276L10.1062 71.5429C10.1062 71.9677 10.3718 72.3395 10.7435 72.4988L24.0734 78.3938C24.2327 78.4469 24.3389 78.5 24.4983 78.5H76.9158C77.5 78.5 77.978 78.022 77.978 77.4378V45.5729C77.978 44.9887 77.5 44.5107 76.9158 44.5107H76.7565L72.083 42.705C71.7643 43.0768 71.3395 43.3954 70.8616 43.5547L69.6932 44.0327L70.8616 44.5107H59.284L60.771 40.8462C61.6738 40.8993 62.6297 40.8462 63.5326 40.7399L64.3824 42.8111C64.5948 43.3422 65.2321 43.6077 65.7632 43.3953L70.0118 41.6427C70.5429 41.4302 70.8085 40.7929 70.596 40.2618L69.7463 38.1907C70.8616 37.3941 71.8175 36.385 72.6672 35.2698L74.7383 36.1195C75.2694 36.3319 75.9067 36.0664 76.1192 35.5353L77.8718 31.2867C78.0842 30.7556 77.8187 30.1183 77.2876 29.9058L75.2164 29.0561C75.4289 27.6753 75.4289 26.2945 75.2164 24.9667L77.2876 24.117C77.8718 23.8514 78.1373 23.2141 77.8718 22.6831L77.8719 22.682ZM22.9051 46.2086L19.1876 55.237L15.6294 53.9624L12.4429 41.5345L22.9051 46.2086ZM23.8611 76.0027L12.2304 70.8511V48.9171L13.8237 55.0245C13.9299 55.3431 14.1423 55.6618 14.5141 55.768L19.5593 57.6267C20.0904 57.8392 20.6746 57.5736 20.8871 57.0425L23.9143 49.6605V76.0023L23.8611 76.0027ZM13.3456 27.1431L23.9673 14.0256C25.1887 18.8054 27.6318 23.1071 31.1369 26.6126L27.1006 31.6048C22.9582 28.8963 18.2316 27.3561 13.3459 27.1437L13.3456 27.1431ZM28.1091 33.9941C28.0029 33.941 28.0029 33.7817 28.056 33.6754L33.2606 27.2493C33.3138 27.1962 33.3669 27.1962 33.42 27.1962C33.4731 27.1962 33.5262 27.1962 33.5793 27.2493L44.9975 36.5432C45.1037 36.5963 45.1037 36.7556 44.9975 36.8087L39.7929 43.2349C39.7398 43.288 39.7398 43.288 39.6867 43.288C39.6336 43.288 39.5805 43.288 39.5274 43.2349L33.7385 38.5082L28.1091 33.9941ZM33.8448 41.4293L37.0845 44.0847L36.7127 44.5095H31.3487L33.8448 41.4293ZM75.8532 76.3751H25.9314V51.2012L30.4987 60.0702C30.658 60.442 31.0298 60.6544 31.4547 60.6544H70.9138C71.3387 60.6544 71.7104 60.3889 71.8698 60.0171L75.7998 51.1481V76.3742L75.8532 76.3751ZM75.4814 46.7935L70.2238 58.5305H32.0926L26.0913 46.7935H75.4814ZM61.036 34.6314L56.9998 44.5095H51.8482L56.681 32.7725C56.8403 32.4008 56.7872 31.9759 56.5217 31.6573C56.1499 31.2324 55.8312 30.7544 55.6188 30.2234C54.5567 27.8866 54.8753 25.1782 56.5217 23.1599C56.7341 22.8413 57.1059 22.682 57.4776 22.682C57.6369 22.682 57.8494 22.7351 58.0087 22.7882C58.3273 22.9475 58.5929 23.1599 58.6991 23.5317C58.9115 23.9566 58.8584 24.4876 58.5398 24.8595C57.3714 26.2403 57.2652 28.2052 58.3273 29.6923C59.1771 30.9137 60.6109 31.4979 62.0449 31.2325C63.8506 30.9138 65.1782 29.4268 65.2846 27.6211C65.2846 27.5149 65.3377 27.4087 65.3377 27.3024C65.497 26.9838 65.7626 26.7183 66.0812 26.612C66.5061 26.4527 66.9841 26.5058 67.3558 26.7714C67.7276 27.0369 67.94 27.5149 67.8869 27.9397C67.6745 30.4889 66.0282 32.6664 63.6382 33.5692C63.1071 33.7817 62.523 33.8879 61.9919 33.941C61.5671 33.9941 61.1953 34.2596 61.036 34.6314ZM73.6751 23.3193C73.1972 23.5317 72.9316 24.0097 73.0378 24.5407C73.4096 26.187 73.4096 27.8865 73.0378 29.5329C72.9316 30.0108 73.1972 30.5419 73.6751 30.7543L75.5339 31.5509L74.5779 33.8345L72.7192 33.0379C72.2412 32.8255 71.7101 33.0379 71.4446 33.4628C70.5418 34.8966 69.3203 36.0651 67.9395 36.9679C67.5146 37.2335 67.3553 37.8176 67.5146 38.2425L68.3112 40.1012L66.0276 41.0572L65.231 39.1985C65.0717 38.8267 64.6999 38.5612 64.275 38.5612H64.0626C63.3191 38.7205 62.5224 38.8267 61.7258 38.8267L62.8411 36.0651C63.3722 35.9589 63.9033 35.8526 64.3813 35.6402C67.5678 34.4718 69.7453 31.5508 70.0638 28.205C70.2232 26.2931 68.8424 24.6469 66.9305 24.4875C66.3994 24.4344 65.8152 24.5406 65.3373 24.753C64.4875 25.1248 63.7971 25.7621 63.4785 26.6117C63.3723 26.9304 63.2661 27.249 63.2661 27.6208C63.213 28.4705 62.6288 29.1078 61.7791 29.2671C61.1418 29.3733 60.5045 29.1078 60.1328 28.5767C59.6548 27.8863 59.7079 26.9834 60.239 26.3461C61.4604 24.8591 61.2481 22.6816 59.8141 21.4602C58.3802 20.2387 56.2028 20.4511 54.9813 21.885C52.8038 24.4874 52.3259 28.0988 53.7599 31.1789C53.9723 31.6569 54.291 32.1349 54.6096 32.5597L53.4413 35.4276C52.804 34.7903 52.2729 34.153 51.795 33.4095C51.5294 32.9846 50.9452 32.8253 50.5204 32.9846L48.6616 33.7812L47.7057 31.4976L49.5644 30.701C50.0424 30.4886 50.3079 30.0106 50.2017 29.4796C49.8299 27.8333 49.8299 26.1338 50.2017 24.4874C50.3079 24.0094 50.0424 23.4783 49.5644 23.266L47.7057 22.4693L48.6616 20.1858L50.5204 20.9824C50.9983 21.1948 51.5294 20.9824 51.795 20.5575C52.6978 19.1236 53.9193 17.9551 55.3001 17.0524C55.725 16.7868 55.8843 16.2026 55.725 15.7778L54.9283 13.919L57.2119 12.9631L58.0086 14.8218C58.221 15.2998 58.699 15.5653 59.23 15.4591C60.8763 15.0874 62.5758 15.0874 64.1691 15.4591C64.6471 15.5653 65.1782 15.2998 65.3906 14.8218L66.1872 12.9631L68.4708 13.919L67.6742 15.7778C67.4617 16.2557 67.6742 16.7868 68.099 17.0524C69.5329 17.9552 70.7014 19.1767 71.6042 20.5575C71.8697 20.9824 72.4539 21.1417 72.8788 20.9824L74.7375 20.1858L75.6934 22.4693L73.6751 23.3193Z" fill="#6C96F9" stroke="#F5F8FF" stroke-width="0.4" mask="url(#path-2-inside-1_757_13412)"/>
</svg>
