<svg width="88" height="88" viewBox="0 0 88 88" fill="none" xmlns="http://www.w3.org/2000/svg">
<mask id="path-1-inside-1_757_13413" fill="white">
<path d="M12.2669 64.8997C12.2634 62.7944 13.0982 60.7746 14.5867 59.2862C16.0752 57.7977 18.095 56.9627 20.2003 56.9664H22.6405L23.6165 62.8188H23.616C23.6858 63.2377 23.9838 63.5823 24.3881 63.7118C24.7918 63.8413 25.2345 63.7341 25.5351 63.4345L30.4002 58.5688V78.5H32.6669V58.5688L37.5321 63.434V63.4345C37.8099 63.7118 38.2116 63.8256 38.5936 63.7351C38.9756 63.645 39.2837 63.3637 39.4082 62.9913L40.5415 59.5913L38.3882 58.8749L37.8326 60.5339L34.2692 56.9665H38.3335V49.28C41.484 47.236 43.5408 43.8764 43.9288 40.1409L44.0659 38.833H49.6668C49.9673 38.833 50.2557 38.7136 50.4682 38.5011C50.6807 38.2886 50.8001 38.0002 50.8001 37.6996V28.6329C50.8001 28.3324 50.6807 28.044 50.4682 27.8315C50.2557 27.619 49.9673 27.4996 49.6668 27.4996H48.5335C48.5335 21.4261 45.2933 15.8141 40.0334 12.7779C34.7736 9.7407 28.2933 9.7407 23.0334 12.7779C17.7736 15.8146 14.5334 21.4266 14.5334 27.4996H13.4001C12.7742 27.4996 12.2667 28.0071 12.2667 28.6329V37.6996C12.2667 38.0002 12.3861 38.2886 12.5986 38.5011C12.8111 38.7136 13.0995 38.833 13.4001 38.833H14.5334V42.233C14.5334 42.4384 14.5896 42.6403 14.6953 42.8168L18.0953 48.4835L20.0377 47.3163L16.8001 41.9193V38.833H19.0009L19.1381 40.1409C19.5261 43.8764 21.5828 47.2359 24.7334 49.28V54.6998H20.2C17.4936 54.6968 14.8976 55.7704 12.9841 57.6839C11.0707 59.5974 9.99703 62.1934 10 64.8998V78.4999H12.2667L12.2669 64.8997ZM25.49 60.2748L24.938 56.9664H28.798L25.49 60.2748ZM36.0675 54.6997H27.0008V50.4533C29.9177 51.582 33.1506 51.582 36.0675 50.4533V54.6997ZM48.5342 36.5663H44.3044L45.0209 29.7663H48.5342L48.5342 36.5663ZM14.5341 36.5663V29.7663H18.0474L18.7639 36.5663H14.5341ZM17.9917 27.4997H16.8007C16.8007 22.2357 19.6088 17.372 24.1674 14.74C28.726 12.1086 34.3422 12.1086 38.9008 14.74C43.4594 17.3719 46.2675 22.2357 46.2675 27.4997H45.0764C44.7015 22.9238 42.0417 18.8463 38.0042 16.66C33.9672 14.4733 29.0989 14.4733 25.0613 16.66C21.0243 18.8463 18.364 22.9237 17.9896 27.4997H17.9917ZM31.5335 17.2996C34.3774 17.3042 37.1157 18.3768 39.2057 20.305C41.2957 22.2332 42.5855 24.8763 42.8192 27.7106L39.2052 23.3737V23.3732C38.9057 23.0149 38.4179 22.8773 37.9752 23.0251C33.7631 24.4357 29.2217 24.5343 24.9516 23.3074L23.9098 23.0094H23.9103C23.4368 22.8743 22.9298 23.061 22.6566 23.4708L20.3387 26.9477H20.3392C20.7435 24.2672 22.0949 21.8199 24.1485 20.0501C26.2021 18.2803 28.822 17.3043 31.533 17.2998L31.5335 17.2996ZM21.3921 39.9042L20.4425 30.8794L24.0838 25.4166L24.3307 25.488H24.3312C28.7846 26.766 33.5112 26.7387 37.9493 25.4085L42.6117 31.0039L41.6747 39.9041C41.3175 43.2743 39.3103 46.2473 36.3177 47.8375C33.325 49.4281 29.7372 49.4281 26.7446 47.8375C23.7519 46.2473 21.7447 43.2743 21.3881 39.9041L21.3921 39.9042Z"/>
</mask>
<path d="M12.2669 64.8997C12.2634 62.7944 13.0982 60.7746 14.5867 59.2862C16.0752 57.7977 18.095 56.9627 20.2003 56.9664H22.6405L23.6165 62.8188H23.616C23.6858 63.2377 23.9838 63.5823 24.3881 63.7118C24.7918 63.8413 25.2345 63.7341 25.5351 63.4345L30.4002 58.5688V78.5H32.6669V58.5688L37.5321 63.434V63.4345C37.8099 63.7118 38.2116 63.8256 38.5936 63.7351C38.9756 63.645 39.2837 63.3637 39.4082 62.9913L40.5415 59.5913L38.3882 58.8749L37.8326 60.5339L34.2692 56.9665H38.3335V49.28C41.484 47.236 43.5408 43.8764 43.9288 40.1409L44.0659 38.833H49.6668C49.9673 38.833 50.2557 38.7136 50.4682 38.5011C50.6807 38.2886 50.8001 38.0002 50.8001 37.6996V28.6329C50.8001 28.3324 50.6807 28.044 50.4682 27.8315C50.2557 27.619 49.9673 27.4996 49.6668 27.4996H48.5335C48.5335 21.4261 45.2933 15.8141 40.0334 12.7779C34.7736 9.7407 28.2933 9.7407 23.0334 12.7779C17.7736 15.8146 14.5334 21.4266 14.5334 27.4996H13.4001C12.7742 27.4996 12.2667 28.0071 12.2667 28.6329V37.6996C12.2667 38.0002 12.3861 38.2886 12.5986 38.5011C12.8111 38.7136 13.0995 38.833 13.4001 38.833H14.5334V42.233C14.5334 42.4384 14.5896 42.6403 14.6953 42.8168L18.0953 48.4835L20.0377 47.3163L16.8001 41.9193V38.833H19.0009L19.1381 40.1409C19.5261 43.8764 21.5828 47.2359 24.7334 49.28V54.6998H20.2C17.4936 54.6968 14.8976 55.7704 12.9841 57.6839C11.0707 59.5974 9.99703 62.1934 10 64.8998V78.4999H12.2667L12.2669 64.8997ZM25.49 60.2748L24.938 56.9664H28.798L25.49 60.2748ZM36.0675 54.6997H27.0008V50.4533C29.9177 51.582 33.1506 51.582 36.0675 50.4533V54.6997ZM48.5342 36.5663H44.3044L45.0209 29.7663H48.5342L48.5342 36.5663ZM14.5341 36.5663V29.7663H18.0474L18.7639 36.5663H14.5341ZM17.9917 27.4997H16.8007C16.8007 22.2357 19.6088 17.372 24.1674 14.74C28.726 12.1086 34.3422 12.1086 38.9008 14.74C43.4594 17.3719 46.2675 22.2357 46.2675 27.4997H45.0764C44.7015 22.9238 42.0417 18.8463 38.0042 16.66C33.9672 14.4733 29.0989 14.4733 25.0613 16.66C21.0243 18.8463 18.364 22.9237 17.9896 27.4997H17.9917ZM31.5335 17.2996C34.3774 17.3042 37.1157 18.3768 39.2057 20.305C41.2957 22.2332 42.5855 24.8763 42.8192 27.7106L39.2052 23.3737V23.3732C38.9057 23.0149 38.4179 22.8773 37.9752 23.0251C33.7631 24.4357 29.2217 24.5343 24.9516 23.3074L23.9098 23.0094H23.9103C23.4368 22.8743 22.9298 23.061 22.6566 23.4708L20.3387 26.9477H20.3392C20.7435 24.2672 22.0949 21.8199 24.1485 20.0501C26.2021 18.2803 28.822 17.3043 31.533 17.2998L31.5335 17.2996ZM21.3921 39.9042L20.4425 30.8794L24.0838 25.4166L24.3307 25.488H24.3312C28.7846 26.766 33.5112 26.7387 37.9493 25.4085L42.6117 31.0039L41.6747 39.9041C41.3175 43.2743 39.3103 46.2473 36.3177 47.8375C33.325 49.4281 29.7372 49.4281 26.7446 47.8375C23.7519 46.2473 21.7447 43.2743 21.3881 39.9041L21.3921 39.9042Z" fill="#6C96F9" stroke="#F5F8FF" stroke-width="0.4" mask="url(#path-1-inside-1_757_13413)"/>
<path d="M50.9008 74.0663H52.9675V78.3997H50.9008V74.0663Z" fill="#6C96F9" stroke="#F5F8FF" stroke-width="0.2"/>
<path d="M26.9021 33.1661C26.9021 34.3626 25.9319 35.3328 24.7354 35.3328C23.5389 35.3328 22.5688 34.3626 22.5688 33.1661C22.5688 31.9696 23.5389 30.9994 24.7354 30.9994C25.9319 30.9994 26.9021 31.9696 26.9021 33.1661Z" fill="#6C96F9" stroke="#F5F8FF" stroke-width="0.2"/>
<path d="M40.5017 33.1661C40.5017 34.3626 39.5315 35.3328 38.335 35.3328C37.1385 35.3328 36.1684 34.3626 36.1684 33.1661C36.1684 31.9696 37.1385 30.9994 38.335 30.9994C39.5315 30.9994 40.5017 31.9696 40.5017 33.1661Z" fill="#6C96F9" stroke="#F5F8FF" stroke-width="0.2"/>
<path d="M31.1006 36.6662H32.567V38.7328L29.2676 38.7328C29.2675 38.7328 29.2674 38.7328 29.2673 38.7328C28.9103 38.7309 28.5791 38.5449 28.3919 38.241C28.2046 37.9366 28.188 37.5569 28.3476 37.2378L28.3582 37.2166V37.2161L30.5696 32.7933L32.4194 33.7173L31.0112 36.5213L30.9384 36.6662H31.1006Z" fill="#6C96F9" stroke="#F5F8FF" stroke-width="0.2"/>
<path d="M30.5977 41.1994L30.598 41.1994C32.3422 41.1942 34.0151 40.5147 35.2675 39.3053L36.729 40.7669C35.0875 42.3623 32.8894 43.2591 30.5975 43.2661C30.5975 43.2661 30.5974 43.2661 30.5974 43.2661L29.3695 43.2661V41.1994L30.5977 41.1994Z" fill="#6C96F9" stroke="#F5F8FF" stroke-width="0.2"/>
<path d="M18.0355 68.3998H20.1022V78.3998H18.0355V68.3998Z" fill="#6C96F9" stroke="#F5F8FF" stroke-width="0.2"/>
<path d="M42.9691 69.5331H45.0358V78.3998H42.9691V69.5331Z" fill="#6C96F9" stroke="#F5F8FF" stroke-width="0.2"/>
<mask id="path-9-inside-2_757_13413" fill="white">
<path d="M76.864 51.2997H73.8687C73.6284 50.5555 73.3289 49.8314 72.9732 49.1353L75.0901 47.0183V47.0178C75.5328 46.5756 75.5328 45.8582 75.0901 45.4155L70.2815 40.6069C69.8388 40.1642 69.1214 40.1642 68.6792 40.6069L66.5617 42.7238C65.8656 42.3676 65.142 42.0681 64.3973 41.8283V38.833C64.3973 38.5325 64.2779 38.2441 64.0654 38.0316C63.8529 37.8191 63.5645 37.6997 63.2639 37.6997H56.4639C55.8381 37.6997 55.3306 38.2072 55.3306 38.833V41.8283C54.5863 42.0686 53.8623 42.3681 53.1661 42.7238L51.0492 40.6069H51.0487C50.6065 40.1642 49.889 40.1642 49.4463 40.6069L44.6377 45.4155C44.195 45.8582 44.195 46.5756 44.6377 47.0178L46.7561 49.1348L46.7556 49.1353C46.3984 49.8309 46.0989 50.555 45.859 51.2997H42.8638C42.2379 51.2997 41.7305 51.8072 41.7305 52.4331V59.2331C41.7305 59.5336 41.8499 59.822 42.0624 60.0345C42.2749 60.247 42.5633 60.3664 42.8638 60.3664H45.859C46.0994 61.1107 46.3989 61.8347 46.7546 62.5309L44.6376 64.6478V64.6483C44.1949 65.0905 44.1949 65.808 44.6376 66.2507L49.4462 71.0593C49.8889 71.502 50.6064 71.502 51.0486 71.0593L53.1655 68.9423H53.166C53.8622 69.2985 54.5857 69.598 55.3305 69.8379V72.8331C55.3305 73.1336 55.4499 73.422 55.6624 73.6345C55.8749 73.847 56.1633 73.9664 56.4638 73.9664H63.2638C63.5644 73.9664 63.8528 73.847 64.0653 73.6345C64.2778 73.422 64.3972 73.1336 64.3972 72.8331V69.8379C65.1414 69.5975 65.8655 69.298 66.5617 68.9423L68.6786 71.0593H68.6791C69.1213 71.502 69.8387 71.502 70.2814 71.0593L75.09 66.2507C75.5327 65.808 75.5327 65.0905 75.09 64.6483L72.972 62.5309C73.3292 61.8352 73.6288 61.1112 73.8686 60.3664H76.8638C77.1644 60.3664 77.4528 60.247 77.6653 60.0345C77.8778 59.822 77.9972 59.5336 77.9972 59.2331V52.4331C77.9972 52.1325 77.8778 51.8441 77.6653 51.6316C77.4528 51.4191 77.1645 51.2997 76.864 51.2997ZM75.7306 58.0997H73.0172C72.5007 58.0997 72.0493 58.4494 71.9203 58.9497C71.6304 60.075 71.1842 61.1542 70.5943 62.156C70.3317 62.6012 70.4035 63.1674 70.7688 63.5332L72.6854 65.4498L69.4802 68.655L67.5626 66.7384V66.7379C67.1958 66.3746 66.6306 66.3028 66.1843 66.5634C65.184 67.1538 64.1053 67.6 62.9807 67.8894C62.4803 68.0184 62.1307 68.4697 62.1307 68.9863V71.6997H57.5973V68.9863C57.5973 68.4697 57.2477 68.0184 56.7473 67.8894C55.6226 67.6 54.5439 67.1538 53.5437 66.5634C53.0979 66.3003 52.5308 66.3721 52.1654 66.7379L50.2478 68.6545L47.0426 65.4493L48.9592 63.5317C49.325 63.1664 49.3968 62.5992 49.1337 62.1534C48.5433 61.1531 48.097 60.0744 47.8077 58.9498C47.6786 58.4494 47.2273 58.0998 46.7107 58.0998H43.9973V53.5664H46.7107C47.2273 53.5664 47.6786 53.2168 47.8077 52.7164C48.0976 51.5912 48.5438 50.5119 49.1337 49.5102C49.3963 49.0649 49.3245 48.4988 48.9592 48.1329L47.0426 46.2164L50.2478 43.0112L52.1654 44.9277V44.9283C52.5307 45.2941 53.0979 45.3659 53.5437 45.1028C54.5439 44.5124 55.6227 44.0661 56.7473 43.7767C57.2477 43.6477 57.5973 43.1964 57.5973 42.6798V39.9664H62.1307V42.6798C62.1307 43.1964 62.4803 43.6477 62.9807 43.7767C64.1054 44.0662 65.1841 44.5124 66.1843 45.1028C66.6301 45.3659 67.1972 45.2941 67.5626 44.9283L69.4802 43.0117L72.6854 46.2169L70.7688 48.1345C70.403 48.4998 70.3312 49.067 70.5943 49.5128C71.1847 50.513 71.631 51.5917 71.9203 52.7164C72.0493 53.2168 72.5007 53.5664 73.0172 53.5664H75.7306V58.0997Z"/>
</mask>
<path d="M76.864 51.2997H73.8687C73.6284 50.5555 73.3289 49.8314 72.9732 49.1353L75.0901 47.0183V47.0178C75.5328 46.5756 75.5328 45.8582 75.0901 45.4155L70.2815 40.6069C69.8388 40.1642 69.1214 40.1642 68.6792 40.6069L66.5617 42.7238C65.8656 42.3676 65.142 42.0681 64.3973 41.8283V38.833C64.3973 38.5325 64.2779 38.2441 64.0654 38.0316C63.8529 37.8191 63.5645 37.6997 63.2639 37.6997H56.4639C55.8381 37.6997 55.3306 38.2072 55.3306 38.833V41.8283C54.5863 42.0686 53.8623 42.3681 53.1661 42.7238L51.0492 40.6069H51.0487C50.6065 40.1642 49.889 40.1642 49.4463 40.6069L44.6377 45.4155C44.195 45.8582 44.195 46.5756 44.6377 47.0178L46.7561 49.1348L46.7556 49.1353C46.3984 49.8309 46.0989 50.555 45.859 51.2997H42.8638C42.2379 51.2997 41.7305 51.8072 41.7305 52.4331V59.2331C41.7305 59.5336 41.8499 59.822 42.0624 60.0345C42.2749 60.247 42.5633 60.3664 42.8638 60.3664H45.859C46.0994 61.1107 46.3989 61.8347 46.7546 62.5309L44.6376 64.6478V64.6483C44.1949 65.0905 44.1949 65.808 44.6376 66.2507L49.4462 71.0593C49.8889 71.502 50.6064 71.502 51.0486 71.0593L53.1655 68.9423H53.166C53.8622 69.2985 54.5857 69.598 55.3305 69.8379V72.8331C55.3305 73.1336 55.4499 73.422 55.6624 73.6345C55.8749 73.847 56.1633 73.9664 56.4638 73.9664H63.2638C63.5644 73.9664 63.8528 73.847 64.0653 73.6345C64.2778 73.422 64.3972 73.1336 64.3972 72.8331V69.8379C65.1414 69.5975 65.8655 69.298 66.5617 68.9423L68.6786 71.0593H68.6791C69.1213 71.502 69.8387 71.502 70.2814 71.0593L75.09 66.2507C75.5327 65.808 75.5327 65.0905 75.09 64.6483L72.972 62.5309C73.3292 61.8352 73.6288 61.1112 73.8686 60.3664H76.8638C77.1644 60.3664 77.4528 60.247 77.6653 60.0345C77.8778 59.822 77.9972 59.5336 77.9972 59.2331V52.4331C77.9972 52.1325 77.8778 51.8441 77.6653 51.6316C77.4528 51.4191 77.1645 51.2997 76.864 51.2997ZM75.7306 58.0997H73.0172C72.5007 58.0997 72.0493 58.4494 71.9203 58.9497C71.6304 60.075 71.1842 61.1542 70.5943 62.156C70.3317 62.6012 70.4035 63.1674 70.7688 63.5332L72.6854 65.4498L69.4802 68.655L67.5626 66.7384V66.7379C67.1958 66.3746 66.6306 66.3028 66.1843 66.5634C65.184 67.1538 64.1053 67.6 62.9807 67.8894C62.4803 68.0184 62.1307 68.4697 62.1307 68.9863V71.6997H57.5973V68.9863C57.5973 68.4697 57.2477 68.0184 56.7473 67.8894C55.6226 67.6 54.5439 67.1538 53.5437 66.5634C53.0979 66.3003 52.5308 66.3721 52.1654 66.7379L50.2478 68.6545L47.0426 65.4493L48.9592 63.5317C49.325 63.1664 49.3968 62.5992 49.1337 62.1534C48.5433 61.1531 48.097 60.0744 47.8077 58.9498C47.6786 58.4494 47.2273 58.0998 46.7107 58.0998H43.9973V53.5664H46.7107C47.2273 53.5664 47.6786 53.2168 47.8077 52.7164C48.0976 51.5912 48.5438 50.5119 49.1337 49.5102C49.3963 49.0649 49.3245 48.4988 48.9592 48.1329L47.0426 46.2164L50.2478 43.0112L52.1654 44.9277V44.9283C52.5307 45.2941 53.0979 45.3659 53.5437 45.1028C54.5439 44.5124 55.6227 44.0661 56.7473 43.7767C57.2477 43.6477 57.5973 43.1964 57.5973 42.6798V39.9664H62.1307V42.6798C62.1307 43.1964 62.4803 43.6477 62.9807 43.7767C64.1054 44.0662 65.1841 44.5124 66.1843 45.1028C66.6301 45.3659 67.1972 45.2941 67.5626 44.9283L69.4802 43.0117L72.6854 46.2169L70.7688 48.1345C70.403 48.4998 70.3312 49.067 70.5943 49.5128C71.1847 50.513 71.631 51.5917 71.9203 52.7164C72.0493 53.2168 72.5007 53.5664 73.0172 53.5664H75.7306V58.0997Z" fill="#6C96F9" stroke="#F5F8FF" stroke-width="0.4" mask="url(#path-9-inside-2_757_13413)"/>
<path d="M54.1897 50.153C52.683 51.6594 51.8366 53.7024 51.8366 55.8333C51.8366 57.9642 52.6829 60.0074 54.1897 61.5136C55.696 63.0203 57.7392 63.8667 59.8699 63.8667H59.8701C61.9998 63.864 64.0414 63.0167 65.5476 61.511L65.5476 61.511C67.0533 60.0048 67.9007 57.9631 67.9033 55.8334V55.8333C67.9033 53.7024 67.0569 51.6593 65.5502 50.153C64.0439 48.6463 62.0008 47.8 59.8699 47.8C57.739 47.8 55.6959 48.6463 54.1897 50.153ZM54.1897 50.153L54.2604 50.2238M54.1897 50.153L54.2604 50.2238M54.2604 50.2238C52.7724 51.7113 51.9366 53.7289 51.9366 55.8333C51.9366 57.9377 52.7724 59.9554 54.2604 61.4429M54.2604 50.2238V61.4429M54.2604 61.4429C55.748 62.9308 57.7657 63.7667 59.8699 63.7667C61.9732 63.7641 63.9895 62.9272 65.4769 61.4403L54.2604 61.4429ZM52.7282 48.6916L52.7282 48.6916C54.622 46.7974 57.1911 45.7333 59.8699 45.7333C62.5477 45.7364 65.1147 46.8014 67.0085 48.6947C68.9018 50.5884 69.967 53.1556 69.97 55.8334C69.9699 58.5122 68.9059 61.0813 67.0117 62.975L67.0116 62.975C65.1179 64.8692 62.5488 65.9333 59.8699 65.9333C57.1911 65.9333 54.622 64.8693 52.7282 62.975L52.7282 62.975C50.834 61.0812 49.7699 58.5122 49.7699 55.8333C49.7699 53.1545 50.8339 50.5854 52.7282 48.6916Z" fill="#6C96F9" stroke="#F5F8FF" stroke-width="0.2"/>
<path d="M55.9294 51.8967C55.9294 51.8967 55.9294 51.8967 55.9294 51.8967C56.9738 50.853 58.3897 50.2665 59.8658 50.2665C61.3416 50.2686 62.7566 50.8555 63.8003 51.8988C64.8436 52.9425 65.4306 54.3576 65.4326 55.8333C65.4325 57.3095 64.8461 58.7254 63.8024 59.7697C63.8024 59.7697 63.8024 59.7697 63.8024 59.7697L55.9294 51.8967ZM55.9294 51.8967C54.8856 52.941 54.2992 54.357 54.2992 55.8332C54.2992 57.3094 54.8857 58.7253 55.9294 59.7697L55.9294 51.8967ZM57.391 58.3082C58.0471 58.9645 58.9378 59.3332 59.8659 59.3332C60.7939 59.3332 61.6846 58.9643 62.3408 58.3082C62.9971 57.652 63.3658 56.7612 63.3658 55.8332C63.3658 54.9052 62.997 54.0146 62.3408 53.3583C61.6847 52.702 60.7939 52.3333 59.8659 52.3333C58.9379 52.3333 58.0472 52.7022 57.391 53.3583C56.7347 54.0145 56.366 54.9053 56.366 55.8332C56.366 56.7612 56.7348 57.6519 57.391 58.3082Z" fill="#6C96F9" stroke="#F5F8FF" stroke-width="0.2"/>
</svg>
