<svg width="88" height="89" viewBox="0 0 88 89" fill="none" xmlns="http://www.w3.org/2000/svg">
<path d="M14.6852 37.8502H23.4518V39.8169H14.6852V37.8502Z" fill="#6C96F9" stroke="#F5F8FF" stroke-width="0.3"/>
<path d="M14.6852 42.3834H23.4518V44.3501H14.6852V42.3834Z" fill="#6C96F9" stroke="#F5F8FF" stroke-width="0.3"/>
<path d="M14.6852 46.9166H23.4518V48.8833H14.6852V46.9166Z" fill="#6C96F9" stroke="#F5F8FF" stroke-width="0.3"/>
<path d="M14.6852 51.4498H23.4518V53.4165H14.6852V51.4498Z" fill="#6C96F9" stroke="#F5F8FF" stroke-width="0.3"/>
<path d="M14.6852 55.983H23.4518V57.9497H14.6852V55.983Z" fill="#6C96F9" stroke="#F5F8FF" stroke-width="0.3"/>
<path d="M14.6852 60.5167H23.4518V62.4834H14.6852V60.5167Z" fill="#6C96F9" stroke="#F5F8FF" stroke-width="0.3"/>
<path d="M14.6852 65.0499H23.4518V67.0166H14.6852V65.0499Z" fill="#6C96F9" stroke="#F5F8FF" stroke-width="0.3"/>
<path d="M29.4195 19.7169H32.5195V21.6836H29.4195V19.7169Z" fill="#6C96F9" stroke="#F5F8FF" stroke-width="0.3"/>
<path d="M35.0816 19.7169H38.1816V21.6836H35.0816V19.7169Z" fill="#6C96F9" stroke="#F5F8FF" stroke-width="0.3"/>
<path d="M29.4195 24.2501H32.5195V26.2168H29.4195V24.2501Z" fill="#6C96F9" stroke="#F5F8FF" stroke-width="0.3"/>
<path d="M35.0816 24.2501H38.1816V26.2168H35.0816V24.2501Z" fill="#6C96F9" stroke="#F5F8FF" stroke-width="0.3"/>
<path d="M29.4195 28.7838H32.5195V30.7505H29.4195V28.7838Z" fill="#6C96F9" stroke="#F5F8FF" stroke-width="0.3"/>
<path d="M35.0816 28.7838H38.1816V30.7505H35.0816V28.7838Z" fill="#6C96F9" stroke="#F5F8FF" stroke-width="0.3"/>
<path d="M29.4195 33.317H32.5195V35.2837H29.4195V33.317Z" fill="#6C96F9" stroke="#F5F8FF" stroke-width="0.3"/>
<path d="M35.0816 33.317H38.1816V35.2837H35.0816V33.317Z" fill="#6C96F9" stroke="#F5F8FF" stroke-width="0.3"/>
<path d="M29.4195 37.8502H32.5195V39.8169H29.4195V37.8502Z" fill="#6C96F9" stroke="#F5F8FF" stroke-width="0.3"/>
<path d="M35.0816 37.8502H38.1816V39.8169H35.0816V37.8502Z" fill="#6C96F9" stroke="#F5F8FF" stroke-width="0.3"/>
<path d="M29.4195 42.3834H32.5195V44.3501H29.4195V42.3834Z" fill="#6C96F9" stroke="#F5F8FF" stroke-width="0.3"/>
<path d="M35.0816 42.3834H38.1816V44.3501H35.0816V42.3834Z" fill="#6C96F9" stroke="#F5F8FF" stroke-width="0.3"/>
<path d="M29.4195 46.9166H32.5195V48.8833H29.4195V46.9166Z" fill="#6C96F9" stroke="#F5F8FF" stroke-width="0.3"/>
<path d="M35.0816 46.9166H38.1816V48.8833H35.0816V46.9166Z" fill="#6C96F9" stroke="#F5F8FF" stroke-width="0.3"/>
<path d="M29.4195 51.4498H32.5195V53.4165H29.4195V51.4498Z" fill="#6C96F9" stroke="#F5F8FF" stroke-width="0.3"/>
<path d="M35.0816 51.4498H38.1816V53.4165H35.0816V51.4498Z" fill="#6C96F9" stroke="#F5F8FF" stroke-width="0.3"/>
<path d="M29.4195 55.983H32.5195V57.9497H29.4195V55.983Z" fill="#6C96F9" stroke="#F5F8FF" stroke-width="0.3"/>
<path d="M35.0816 55.983H38.1816V57.9497H35.0816V55.983Z" fill="#6C96F9" stroke="#F5F8FF" stroke-width="0.3"/>
<path d="M29.4195 60.5167H32.5195V62.4834H29.4195V60.5167Z" fill="#6C96F9" stroke="#F5F8FF" stroke-width="0.3"/>
<path d="M35.0816 60.5167H38.1816V62.4834H35.0816V60.5167Z" fill="#6C96F9" stroke="#F5F8FF" stroke-width="0.3"/>
<path d="M29.4195 65.0499H32.5195V67.0166H29.4195V65.0499Z" fill="#6C96F9" stroke="#F5F8FF" stroke-width="0.3"/>
<path d="M35.0816 65.0499H38.1816V67.0166H35.0816V65.0499Z" fill="#6C96F9" stroke="#F5F8FF" stroke-width="0.3"/>
<path d="M45.2809 46.9166H48.3809V48.8833H45.2809V46.9166Z" fill="#6C96F9" stroke="#F5F8FF" stroke-width="0.3"/>
<path d="M50.9508 46.9166H54.0508V48.8833H50.9508V46.9166Z" fill="#6C96F9" stroke="#F5F8FF" stroke-width="0.3"/>
<path d="M45.2809 51.4498H48.3809V53.4165H45.2809V51.4498Z" fill="#6C96F9" stroke="#F5F8FF" stroke-width="0.3"/>
<path d="M50.9508 51.4498H54.0508V53.4165H50.9508V51.4498Z" fill="#6C96F9" stroke="#F5F8FF" stroke-width="0.3"/>
<path d="M45.2809 55.983H48.3809V57.9497H45.2809V55.983Z" fill="#6C96F9" stroke="#F5F8FF" stroke-width="0.3"/>
<path d="M50.9508 55.983H54.0508V57.9497H50.9508V55.983Z" fill="#6C96F9" stroke="#F5F8FF" stroke-width="0.3"/>
<path d="M45.2809 60.5167H48.3809V62.4834H45.2809V60.5167Z" fill="#6C96F9" stroke="#F5F8FF" stroke-width="0.3"/>
<path d="M50.9508 60.5167H54.0508V62.4834H50.9508V60.5167Z" fill="#6C96F9" stroke="#F5F8FF" stroke-width="0.3"/>
<path d="M45.2809 65.0499H48.3809V67.0166H45.2809V65.0499Z" fill="#6C96F9" stroke="#F5F8FF" stroke-width="0.3"/>
<path d="M50.9508 65.0499H54.0508V67.0166H50.9508V65.0499Z" fill="#6C96F9" stroke="#F5F8FF" stroke-width="0.3"/>
<mask id="path-40-inside-1_757_13409" fill="white">
<path d="M73.4667 28.6333V24.1H65.5333V17.3H63.2667V24.1H55.3333V28.6333H50.8V42.2333H42.8667V15.0333H34.9333V10.5H32.6667V15.0333H24.7333V28.6333H20.2V24.1H17.9333V28.6333H12.2667V33.1667H10V78.5H78V28.6333H73.4667ZM57.6 26.3667H71.2V28.6333H57.6V26.3667ZM14.5333 30.9H23.6V33.1667H14.5333V30.9ZM17.9333 76.2333V71.7H20.2V76.2333H17.9333ZM25.8667 76.2333H22.4667V69.4333H15.6667V76.2333H12.2667V35.4333H25.8667V76.2333ZM32.6667 76.2333V71.7H34.9333V76.2333H32.6667ZM40.6 76.2333H37.2V69.4333H30.4V76.2333H28.1333V33.1667H27V17.3H40.6V76.2333ZM48.5333 76.2333V71.7H50.8V76.2333H48.5333ZM56.4667 76.2333H53.0667V69.4333H46.2667V76.2333H42.8667V44.5H56.4667V76.2333ZM63.2667 76.2333V71.7H65.5333V76.2333H63.2667ZM75.7333 76.2333H67.8V69.4333H61V76.2333H58.7333V67.1667H73.4667V64.9H58.7333V62.6333H73.4667V60.3667H58.7333V58.1H73.4667V55.8333H58.7333V53.5667H73.4667V51.3H58.7333V49.0333H73.4667V46.7667H58.7333V44.5H73.4667V42.2333H53.0667V30.9H75.7333V76.2333Z"/>
</mask>
<path d="M73.4667 28.6333V24.1H65.5333V17.3H63.2667V24.1H55.3333V28.6333H50.8V42.2333H42.8667V15.0333H34.9333V10.5H32.6667V15.0333H24.7333V28.6333H20.2V24.1H17.9333V28.6333H12.2667V33.1667H10V78.5H78V28.6333H73.4667ZM57.6 26.3667H71.2V28.6333H57.6V26.3667ZM14.5333 30.9H23.6V33.1667H14.5333V30.9ZM17.9333 76.2333V71.7H20.2V76.2333H17.9333ZM25.8667 76.2333H22.4667V69.4333H15.6667V76.2333H12.2667V35.4333H25.8667V76.2333ZM32.6667 76.2333V71.7H34.9333V76.2333H32.6667ZM40.6 76.2333H37.2V69.4333H30.4V76.2333H28.1333V33.1667H27V17.3H40.6V76.2333ZM48.5333 76.2333V71.7H50.8V76.2333H48.5333ZM56.4667 76.2333H53.0667V69.4333H46.2667V76.2333H42.8667V44.5H56.4667V76.2333ZM63.2667 76.2333V71.7H65.5333V76.2333H63.2667ZM75.7333 76.2333H67.8V69.4333H61V76.2333H58.7333V67.1667H73.4667V64.9H58.7333V62.6333H73.4667V60.3667H58.7333V58.1H73.4667V55.8333H58.7333V53.5667H73.4667V51.3H58.7333V49.0333H73.4667V46.7667H58.7333V44.5H73.4667V42.2333H53.0667V30.9H75.7333V76.2333Z" fill="#6C96F9" stroke="#F5F8FF" stroke-width="0.6" mask="url(#path-40-inside-1_757_13409)"/>
<path d="M55.484 33.317H73.3173V35.2837H55.484V33.317Z" fill="#6C96F9" stroke="#F5F8FF" stroke-width="0.3"/>
<path d="M55.484 37.8502H73.3173V39.8169H55.484V37.8502Z" fill="#6C96F9" stroke="#F5F8FF" stroke-width="0.3"/>
</svg>
