<svg width="88" height="88" viewBox="0 0 88 88" fill="none" xmlns="http://www.w3.org/2000/svg">
<mask id="path-1-inside-1_757_13414" fill="white">
<path d="M77.239 55.065C77.6401 54.4469 78.1389 53.6784 77.9668 52.702C77.8606 52.1016 77.5369 51.6018 77.2511 51.1615C77.0669 50.8776 76.8585 50.5555 76.8228 50.3527C76.7865 50.1489 76.8731 49.7754 76.9491 49.4458C77.094 48.8167 77.2581 48.104 76.9934 47.3753C76.7226 46.6299 76.1026 46.1613 75.6054 45.7849C75.3432 45.5866 75.0452 45.3616 74.9521 45.1995C74.853 45.0274 74.8057 44.6499 74.7634 44.3178C74.6869 43.7053 74.5913 42.9423 74.0885 42.3444C73.5827 41.7425 72.8439 41.516 72.2495 41.3333C71.9314 41.2357 71.5716 41.125 71.4242 41.0017C71.2762 40.8779 71.1041 40.5412 70.9516 40.2442C70.6692 39.6926 70.3174 39.0056 69.6394 38.6131C68.963 38.2215 68.1926 38.2598 67.575 38.2905C67.2403 38.3071 66.8619 38.3257 66.6782 38.2588C66.5946 38.2281 66.4894 38.1551 66.3762 38.0625C66.2161 30.7457 63.284 23.8912 58.0836 18.7131C52.7638 13.4171 45.6997 10.5 38.1931 10.5C22.6471 10.5 10 23.1476 10 38.6931C10 54.2385 22.6476 66.8861 38.1931 66.8861C42.1096 66.8861 45.8929 66.0985 49.448 64.5474C49.5023 64.5715 49.5572 64.5947 49.611 64.6163L45.6286 73.1702C45.4564 73.5406 45.5037 73.976 45.7524 74.3006C46.001 74.6247 46.4092 74.7838 46.8113 74.7138L51.4224 73.908L53.7743 77.9544C53.971 78.2931 54.3329 78.5 54.723 78.5C54.7396 78.5 54.7562 78.4995 54.7728 78.4995C55.181 78.4809 55.5448 78.2373 55.7174 77.8669L59.6325 69.4574C59.9094 69.3733 60.1721 69.2626 60.4212 69.1584C60.7317 69.0276 61.0835 68.8796 61.2808 68.8786H61.2813C61.4645 68.8786 61.8057 69.023 62.1072 69.1499C62.6115 69.3633 63.2235 69.622 63.8939 69.5903L66.7244 76.1622C66.8859 76.5371 67.2428 76.7918 67.6504 76.822C67.6776 76.824 67.7053 76.825 67.7325 76.825C68.1099 76.825 68.4632 76.6303 68.6645 76.3066L71.1326 72.3302L75.7181 73.2689C76.1187 73.3514 76.5314 73.2034 76.7891 72.8863C77.0468 72.5693 77.1072 72.1354 76.9456 71.7605L73.6934 64.2101C73.8353 64.1049 73.9702 63.9827 74.091 63.8387C74.5938 63.2383 74.6894 62.4732 74.7669 61.8578C74.8082 61.5261 74.855 61.1512 74.9516 60.9836C75.0477 60.8175 75.3482 60.5905 75.6139 60.3897C76.1102 60.0152 76.7262 59.5492 76.996 58.8114C77.2637 58.0771 77.0931 57.3276 76.9547 56.7257C76.8802 56.3986 76.7952 56.0291 76.8299 55.8319C76.8601 55.6487 77.0614 55.3381 77.2391 55.0648L77.239 55.065ZM12.1935 38.6931C12.1935 24.3569 23.8571 12.6929 38.1936 12.6929C51.8044 12.6929 63.0433 23.255 64.1088 36.611C63.3745 36.5063 62.7192 36.7816 62.1379 37.0257C61.8274 37.1566 61.4756 37.3046 61.2783 37.3046H61.2778C61.0946 37.3046 60.7533 37.1601 60.4519 37.0333C59.8761 36.7897 59.159 36.4867 58.3753 36.6251C57.5907 36.7635 57.021 37.2935 56.5636 37.7188C56.324 37.9412 56.0527 38.1939 55.8806 38.2568C55.6949 38.3237 55.3139 38.3051 54.9772 38.2885C54.327 38.2563 53.5896 38.2195 52.9173 38.6081C52.2343 39.0027 51.8815 39.6932 51.5982 40.2478C51.4477 40.5423 51.2771 40.8769 51.1317 40.9987C50.9822 41.1241 50.6198 41.2363 50.2997 41.3354C50.0577 41.4099 49.7919 41.4935 49.5272 41.6052C47.6917 39.7022 45.428 38.3097 42.9502 37.5251C45.21 35.9951 46.6993 33.4067 46.6993 30.4776C46.6993 25.788 42.8834 21.972 38.1937 21.972C33.5041 21.972 29.6881 25.7879 29.6881 30.4776C29.6881 33.4067 31.1763 35.994 33.4361 37.524C27.0695 39.5457 22.4439 45.5117 22.4439 52.5392C22.4439 53.1452 22.9346 53.6359 23.5405 53.6359H44.6267C44.756 54.1688 45.0469 54.6213 45.3076 55.0235C45.4918 55.3073 45.7002 55.6294 45.7359 55.8323C45.7722 56.0361 45.6856 56.4095 45.6096 56.7392C45.4652 57.3683 45.3006 58.0809 45.5653 58.8097C45.8361 59.555 46.4551 60.0236 46.9533 60.4001C47.2155 60.5984 47.5135 60.8233 47.6071 60.9854C47.7062 61.1575 47.7535 61.535 47.7948 61.8672C47.8311 62.154 47.8713 62.4746 47.9559 62.7947C44.8586 64.0529 41.5812 64.6917 38.1936 64.6917C23.8574 64.6922 12.1934 53.0295 12.1934 38.6928L12.1935 38.6931ZM45.6059 49.459C45.6804 49.7861 45.7654 50.1565 45.7307 50.3518C45.6975 50.538 45.4962 50.848 45.319 51.1213C45.2521 51.2245 45.1821 51.3327 45.1137 51.4439L24.6807 51.4434C25.2409 44.4794 31.0871 38.9841 38.1936 38.9841C41.9189 38.9841 45.4575 40.5106 48.0137 43.196C47.8884 43.5831 47.8386 43.9791 47.7948 44.3269C47.7536 44.6586 47.7067 45.0335 47.6101 45.2001C47.514 45.3662 47.2135 45.5932 46.9478 45.793C46.4516 46.1674 45.8345 46.6335 45.5648 47.3718C45.2976 48.1066 45.4687 48.856 45.6066 49.4589L45.6059 49.459ZM38.193 36.7908C34.7122 36.7908 31.8813 33.9597 31.8813 30.4791C31.8813 26.9984 34.7123 24.1674 38.193 24.1674C41.6736 24.1674 44.5047 26.9993 44.5047 30.4791C44.5047 33.9593 41.6736 36.7908 38.193 36.7908ZM54.6151 75.036L52.9352 72.1456C52.7046 71.749 52.2507 71.5376 51.7982 71.6166L48.5048 72.1924L51.5049 65.7478C51.5396 65.8132 51.5733 65.8791 51.6055 65.943C51.8879 66.4946 52.2397 67.1816 52.9176 67.5742C53.594 67.9652 54.3636 67.9275 54.9821 67.8968C55.3157 67.8801 55.6947 67.8615 55.8789 67.9285C56.0571 67.9939 56.3319 68.2496 56.5739 68.475C56.804 68.6894 57.0631 68.9305 57.3631 69.1343L54.6151 75.036ZM70.8221 70.0289C70.3716 69.9362 69.9126 70.135 69.67 70.5251L67.907 73.3662L65.8531 68.5975C65.9019 68.5532 65.9492 68.5089 65.995 68.4661C66.2346 68.2437 66.5059 67.991 66.678 67.9281C66.8637 67.8612 67.2447 67.8798 67.5814 67.8964C68.2317 67.9286 68.969 67.9654 69.6413 67.5768C70.3253 67.1818 70.6776 66.4917 70.9604 65.9371C71.1109 65.6426 71.2815 65.309 71.4264 65.1862C71.4813 65.1394 71.5653 65.0961 71.6645 65.0533L74.0964 70.6997L70.8221 70.0289ZM75.8071 53.0824C75.8297 53.2077 75.5499 53.6395 75.3999 53.87C75.1085 54.3194 74.7783 54.8283 74.6676 55.4528C74.5554 56.0865 74.6933 56.6869 74.8141 57.2159C74.8755 57.4851 74.9786 57.9351 74.9328 58.0609C74.8855 58.1907 74.5126 58.4721 74.2896 58.6402C73.8573 58.9663 73.3681 59.3352 73.05 59.8863C72.7304 60.4389 72.655 61.0489 72.587 61.5864C72.5523 61.8632 72.4944 62.3252 72.4073 62.4299C72.3203 62.5336 71.8759 62.6705 71.6116 62.7525C71.0933 62.9125 70.5054 63.0942 70.0162 63.5054C69.5305 63.9136 69.2527 64.4576 69.0076 64.9378C68.8808 65.1874 68.6674 65.6046 68.5456 65.6751C68.4253 65.7395 67.9663 65.7173 67.691 65.7038C67.1475 65.6766 66.532 65.6459 65.9311 65.8638C65.3397 66.0782 64.8948 66.4919 64.5017 66.8573C64.2813 67.0626 63.9486 67.3711 63.8021 67.3978C63.6557 67.4225 63.2369 67.2468 62.9596 67.1296C62.4664 66.9212 61.9072 66.6847 61.2797 66.6847H61.2776C60.638 66.6852 60.0698 66.9252 59.5684 67.1361C59.3153 67.2428 58.89 67.42 58.7566 67.4024C58.6177 67.3777 58.275 67.0581 58.0696 66.8674C57.6751 66.5 57.2276 66.0832 56.6328 65.8663C56.2362 65.7214 55.8341 65.6852 55.4496 65.6852C55.2518 65.6852 55.0595 65.6947 54.8753 65.7038C54.598 65.7174 54.1345 65.7405 54.0172 65.6731C53.8985 65.6046 53.6866 65.1899 53.5597 64.9418C53.3126 64.4591 53.0328 63.9131 52.5436 63.5024C52.0559 63.0937 51.4696 62.914 50.9527 62.7555C50.6859 62.6735 50.2395 62.5366 50.1499 62.4309C50.0644 62.3277 50.007 61.8692 49.9728 61.5959C49.9053 61.0569 49.8293 60.4459 49.5077 59.8893C49.1922 59.3427 48.706 58.9753 48.2772 58.6512C48.0532 58.4816 47.6773 58.1983 47.6285 58.0629C47.5862 57.9376 47.6878 57.4957 47.7477 57.2314C47.87 56.698 48.0094 56.0935 47.8967 55.4519C47.7835 54.8102 47.4463 54.2898 47.1488 53.8308C46.9847 53.5782 46.7819 53.2641 46.7537 53.1026C46.7311 52.9762 47.0109 52.5454 47.1609 52.3149C47.4523 51.866 47.7825 51.3572 47.8932 50.7321C48.0054 50.0995 47.8675 49.4985 47.7467 48.969C47.6853 48.6998 47.5827 48.2498 47.6279 48.124C47.6753 47.9942 48.0487 47.7123 48.2711 47.5437C48.7025 47.2181 49.1917 46.8487 49.5107 46.2976C49.8303 45.745 49.9058 45.1355 49.9728 44.5984C50.0075 44.3216 50.0654 43.8591 50.1524 43.7544C50.2395 43.6507 50.6839 43.5138 50.9481 43.4318C51.4665 43.2718 52.0543 43.0901 52.5436 42.6789C53.0292 42.2707 53.3066 41.7267 53.5521 41.2466C53.68 40.9969 53.8924 40.5797 54.0142 40.5092C54.1344 40.4448 54.5934 40.467 54.8687 40.4806C55.4123 40.5077 56.0278 40.5384 56.6287 40.3205C57.2201 40.1056 57.665 39.6924 58.0576 39.327C58.278 39.1217 58.6107 38.8132 58.7571 38.7865C58.9036 38.7623 59.3223 38.9375 59.5991 39.0547C60.0924 39.2631 60.6505 39.4996 61.2791 39.4996H61.2821C61.9208 39.4991 62.489 39.2601 62.9913 39.0482C63.2445 38.9415 63.6677 38.7633 63.8036 38.782C63.9425 38.8066 64.2853 39.1262 64.4906 39.3169C64.8852 39.6844 65.3326 40.1011 65.9275 40.318C66.5279 40.5374 67.1419 40.5067 67.6845 40.4805C67.9618 40.4669 68.4253 40.4438 68.5426 40.5112C68.6603 40.5797 68.8732 40.9944 69.0001 41.2425C69.2472 41.7252 69.527 42.2722 70.0162 42.6819C70.5039 43.0906 71.0902 43.2703 71.6071 43.4288C71.8739 43.5108 72.3213 43.6477 72.4099 43.7534C72.4954 43.8566 72.5533 44.3151 72.587 44.5884C72.6545 45.1274 72.7305 45.7384 73.0521 46.2945C73.3676 46.8411 73.8533 47.2085 74.2826 47.5326C74.5217 47.7128 74.8825 47.9865 74.9319 48.1209C74.9741 48.2462 74.8725 48.6876 74.8116 48.9513C74.6893 49.4848 74.5494 50.0893 74.6626 50.7319C74.7758 51.3736 75.113 51.894 75.4105 52.353C75.5751 52.6062 75.7789 52.9203 75.8071 53.0824ZM61.2802 41.3483C54.8039 41.3483 49.5355 46.6167 49.5355 53.0929C49.5355 59.5691 54.804 64.8376 61.2802 64.8376C67.7564 64.8376 73.0249 59.5691 73.0249 53.0929C73.0249 46.6167 67.7555 41.3483 61.2802 41.3483ZM61.2802 62.6444C56.0138 62.6444 51.7293 58.36 51.7293 53.0936C51.7293 47.8272 56.0138 43.5427 61.2802 43.5427C66.5466 43.5427 70.8311 47.8272 70.8311 53.0936C70.8311 58.3594 66.5466 62.6444 61.2802 62.6444ZM63.8444 49.4137L62.2953 45.623C62.1267 45.2103 61.7256 44.9415 61.2802 44.9415C60.8343 44.9415 60.4332 45.2113 60.2651 45.623L58.716 49.4137L54.6319 49.7157C54.1875 49.7489 53.8075 50.0474 53.6701 50.4711C53.5327 50.8949 53.6651 51.3594 54.0048 51.6473L57.1313 54.292L56.1564 58.2695C56.0502 58.7023 56.2163 59.1558 56.5771 59.418C56.938 59.6802 57.4207 59.6978 57.7991 59.4633L61.2813 57.3073L64.7635 59.4633C64.9407 59.573 65.141 59.6279 65.3408 59.6279C65.5678 59.6279 65.7937 59.5574 65.9855 59.418C66.3464 59.1563 66.5124 58.7023 66.4062 58.2695L65.4314 54.292L68.5578 51.6473C68.8981 51.3594 69.0304 50.8944 68.8925 50.4711C68.7551 50.0474 68.3747 49.7489 67.9308 49.7157L63.8444 49.4137ZM63.4941 53.0561C63.176 53.3253 63.0381 53.7506 63.1373 54.1547L63.635 56.1855L61.8574 55.0843C61.5036 54.8649 61.0562 54.8649 60.7024 55.0843L58.9247 56.1855L59.4225 54.1547C59.5217 53.7506 59.3832 53.3248 59.0657 53.0566L57.4692 51.7058L59.5544 51.5518C59.9691 51.5211 60.3314 51.2579 60.4885 50.8734L61.2791 48.9382L62.0698 50.8734C62.2268 51.2589 62.5892 51.5221 63.0039 51.5518L65.0891 51.7058L63.4941 53.0561Z"/>
</mask>
<path d="M77.239 55.065C77.6401 54.4469 78.1389 53.6784 77.9668 52.702C77.8606 52.1016 77.5369 51.6018 77.2511 51.1615C77.0669 50.8776 76.8585 50.5555 76.8228 50.3527C76.7865 50.1489 76.8731 49.7754 76.9491 49.4458C77.094 48.8167 77.2581 48.104 76.9934 47.3753C76.7226 46.6299 76.1026 46.1613 75.6054 45.7849C75.3432 45.5866 75.0452 45.3616 74.9521 45.1995C74.853 45.0274 74.8057 44.6499 74.7634 44.3178C74.6869 43.7053 74.5913 42.9423 74.0885 42.3444C73.5827 41.7425 72.8439 41.516 72.2495 41.3333C71.9314 41.2357 71.5716 41.125 71.4242 41.0017C71.2762 40.8779 71.1041 40.5412 70.9516 40.2442C70.6692 39.6926 70.3174 39.0056 69.6394 38.6131C68.963 38.2215 68.1926 38.2598 67.575 38.2905C67.2403 38.3071 66.8619 38.3257 66.6782 38.2588C66.5946 38.2281 66.4894 38.1551 66.3762 38.0625C66.2161 30.7457 63.284 23.8912 58.0836 18.7131C52.7638 13.4171 45.6997 10.5 38.1931 10.5C22.6471 10.5 10 23.1476 10 38.6931C10 54.2385 22.6476 66.8861 38.1931 66.8861C42.1096 66.8861 45.8929 66.0985 49.448 64.5474C49.5023 64.5715 49.5572 64.5947 49.611 64.6163L45.6286 73.1702C45.4564 73.5406 45.5037 73.976 45.7524 74.3006C46.001 74.6247 46.4092 74.7838 46.8113 74.7138L51.4224 73.908L53.7743 77.9544C53.971 78.2931 54.3329 78.5 54.723 78.5C54.7396 78.5 54.7562 78.4995 54.7728 78.4995C55.181 78.4809 55.5448 78.2373 55.7174 77.8669L59.6325 69.4574C59.9094 69.3733 60.1721 69.2626 60.4212 69.1584C60.7317 69.0276 61.0835 68.8796 61.2808 68.8786H61.2813C61.4645 68.8786 61.8057 69.023 62.1072 69.1499C62.6115 69.3633 63.2235 69.622 63.8939 69.5903L66.7244 76.1622C66.8859 76.5371 67.2428 76.7918 67.6504 76.822C67.6776 76.824 67.7053 76.825 67.7325 76.825C68.1099 76.825 68.4632 76.6303 68.6645 76.3066L71.1326 72.3302L75.7181 73.2689C76.1187 73.3514 76.5314 73.2034 76.7891 72.8863C77.0468 72.5693 77.1072 72.1354 76.9456 71.7605L73.6934 64.2101C73.8353 64.1049 73.9702 63.9827 74.091 63.8387C74.5938 63.2383 74.6894 62.4732 74.7669 61.8578C74.8082 61.5261 74.855 61.1512 74.9516 60.9836C75.0477 60.8175 75.3482 60.5905 75.6139 60.3897C76.1102 60.0152 76.7262 59.5492 76.996 58.8114C77.2637 58.0771 77.0931 57.3276 76.9547 56.7257C76.8802 56.3986 76.7952 56.0291 76.8299 55.8319C76.8601 55.6487 77.0614 55.3381 77.2391 55.0648L77.239 55.065ZM12.1935 38.6931C12.1935 24.3569 23.8571 12.6929 38.1936 12.6929C51.8044 12.6929 63.0433 23.255 64.1088 36.611C63.3745 36.5063 62.7192 36.7816 62.1379 37.0257C61.8274 37.1566 61.4756 37.3046 61.2783 37.3046H61.2778C61.0946 37.3046 60.7533 37.1601 60.4519 37.0333C59.8761 36.7897 59.159 36.4867 58.3753 36.6251C57.5907 36.7635 57.021 37.2935 56.5636 37.7188C56.324 37.9412 56.0527 38.1939 55.8806 38.2568C55.6949 38.3237 55.3139 38.3051 54.9772 38.2885C54.327 38.2563 53.5896 38.2195 52.9173 38.6081C52.2343 39.0027 51.8815 39.6932 51.5982 40.2478C51.4477 40.5423 51.2771 40.8769 51.1317 40.9987C50.9822 41.1241 50.6198 41.2363 50.2997 41.3354C50.0577 41.4099 49.7919 41.4935 49.5272 41.6052C47.6917 39.7022 45.428 38.3097 42.9502 37.5251C45.21 35.9951 46.6993 33.4067 46.6993 30.4776C46.6993 25.788 42.8834 21.972 38.1937 21.972C33.5041 21.972 29.6881 25.7879 29.6881 30.4776C29.6881 33.4067 31.1763 35.994 33.4361 37.524C27.0695 39.5457 22.4439 45.5117 22.4439 52.5392C22.4439 53.1452 22.9346 53.6359 23.5405 53.6359H44.6267C44.756 54.1688 45.0469 54.6213 45.3076 55.0235C45.4918 55.3073 45.7002 55.6294 45.7359 55.8323C45.7722 56.0361 45.6856 56.4095 45.6096 56.7392C45.4652 57.3683 45.3006 58.0809 45.5653 58.8097C45.8361 59.555 46.4551 60.0236 46.9533 60.4001C47.2155 60.5984 47.5135 60.8233 47.6071 60.9854C47.7062 61.1575 47.7535 61.535 47.7948 61.8672C47.8311 62.154 47.8713 62.4746 47.9559 62.7947C44.8586 64.0529 41.5812 64.6917 38.1936 64.6917C23.8574 64.6922 12.1934 53.0295 12.1934 38.6928L12.1935 38.6931ZM45.6059 49.459C45.6804 49.7861 45.7654 50.1565 45.7307 50.3518C45.6975 50.538 45.4962 50.848 45.319 51.1213C45.2521 51.2245 45.1821 51.3327 45.1137 51.4439L24.6807 51.4434C25.2409 44.4794 31.0871 38.9841 38.1936 38.9841C41.9189 38.9841 45.4575 40.5106 48.0137 43.196C47.8884 43.5831 47.8386 43.9791 47.7948 44.3269C47.7536 44.6586 47.7067 45.0335 47.6101 45.2001C47.514 45.3662 47.2135 45.5932 46.9478 45.793C46.4516 46.1674 45.8345 46.6335 45.5648 47.3718C45.2976 48.1066 45.4687 48.856 45.6066 49.4589L45.6059 49.459ZM38.193 36.7908C34.7122 36.7908 31.8813 33.9597 31.8813 30.4791C31.8813 26.9984 34.7123 24.1674 38.193 24.1674C41.6736 24.1674 44.5047 26.9993 44.5047 30.4791C44.5047 33.9593 41.6736 36.7908 38.193 36.7908ZM54.6151 75.036L52.9352 72.1456C52.7046 71.749 52.2507 71.5376 51.7982 71.6166L48.5048 72.1924L51.5049 65.7478C51.5396 65.8132 51.5733 65.8791 51.6055 65.943C51.8879 66.4946 52.2397 67.1816 52.9176 67.5742C53.594 67.9652 54.3636 67.9275 54.9821 67.8968C55.3157 67.8801 55.6947 67.8615 55.8789 67.9285C56.0571 67.9939 56.3319 68.2496 56.5739 68.475C56.804 68.6894 57.0631 68.9305 57.3631 69.1343L54.6151 75.036ZM70.8221 70.0289C70.3716 69.9362 69.9126 70.135 69.67 70.5251L67.907 73.3662L65.8531 68.5975C65.9019 68.5532 65.9492 68.5089 65.995 68.4661C66.2346 68.2437 66.5059 67.991 66.678 67.9281C66.8637 67.8612 67.2447 67.8798 67.5814 67.8964C68.2317 67.9286 68.969 67.9654 69.6413 67.5768C70.3253 67.1818 70.6776 66.4917 70.9604 65.9371C71.1109 65.6426 71.2815 65.309 71.4264 65.1862C71.4813 65.1394 71.5653 65.0961 71.6645 65.0533L74.0964 70.6997L70.8221 70.0289ZM75.8071 53.0824C75.8297 53.2077 75.5499 53.6395 75.3999 53.87C75.1085 54.3194 74.7783 54.8283 74.6676 55.4528C74.5554 56.0865 74.6933 56.6869 74.8141 57.2159C74.8755 57.4851 74.9786 57.9351 74.9328 58.0609C74.8855 58.1907 74.5126 58.4721 74.2896 58.6402C73.8573 58.9663 73.3681 59.3352 73.05 59.8863C72.7304 60.4389 72.655 61.0489 72.587 61.5864C72.5523 61.8632 72.4944 62.3252 72.4073 62.4299C72.3203 62.5336 71.8759 62.6705 71.6116 62.7525C71.0933 62.9125 70.5054 63.0942 70.0162 63.5054C69.5305 63.9136 69.2527 64.4576 69.0076 64.9378C68.8808 65.1874 68.6674 65.6046 68.5456 65.6751C68.4253 65.7395 67.9663 65.7173 67.691 65.7038C67.1475 65.6766 66.532 65.6459 65.9311 65.8638C65.3397 66.0782 64.8948 66.4919 64.5017 66.8573C64.2813 67.0626 63.9486 67.3711 63.8021 67.3978C63.6557 67.4225 63.2369 67.2468 62.9596 67.1296C62.4664 66.9212 61.9072 66.6847 61.2797 66.6847H61.2776C60.638 66.6852 60.0698 66.9252 59.5684 67.1361C59.3153 67.2428 58.89 67.42 58.7566 67.4024C58.6177 67.3777 58.275 67.0581 58.0696 66.8674C57.6751 66.5 57.2276 66.0832 56.6328 65.8663C56.2362 65.7214 55.8341 65.6852 55.4496 65.6852C55.2518 65.6852 55.0595 65.6947 54.8753 65.7038C54.598 65.7174 54.1345 65.7405 54.0172 65.6731C53.8985 65.6046 53.6866 65.1899 53.5597 64.9418C53.3126 64.4591 53.0328 63.9131 52.5436 63.5024C52.0559 63.0937 51.4696 62.914 50.9527 62.7555C50.6859 62.6735 50.2395 62.5366 50.1499 62.4309C50.0644 62.3277 50.007 61.8692 49.9728 61.5959C49.9053 61.0569 49.8293 60.4459 49.5077 59.8893C49.1922 59.3427 48.706 58.9753 48.2772 58.6512C48.0532 58.4816 47.6773 58.1983 47.6285 58.0629C47.5862 57.9376 47.6878 57.4957 47.7477 57.2314C47.87 56.698 48.0094 56.0935 47.8967 55.4519C47.7835 54.8102 47.4463 54.2898 47.1488 53.8308C46.9847 53.5782 46.7819 53.2641 46.7537 53.1026C46.7311 52.9762 47.0109 52.5454 47.1609 52.3149C47.4523 51.866 47.7825 51.3572 47.8932 50.7321C48.0054 50.0995 47.8675 49.4985 47.7467 48.969C47.6853 48.6998 47.5827 48.2498 47.6279 48.124C47.6753 47.9942 48.0487 47.7123 48.2711 47.5437C48.7025 47.2181 49.1917 46.8487 49.5107 46.2976C49.8303 45.745 49.9058 45.1355 49.9728 44.5984C50.0075 44.3216 50.0654 43.8591 50.1524 43.7544C50.2395 43.6507 50.6839 43.5138 50.9481 43.4318C51.4665 43.2718 52.0543 43.0901 52.5436 42.6789C53.0292 42.2707 53.3066 41.7267 53.5521 41.2466C53.68 40.9969 53.8924 40.5797 54.0142 40.5092C54.1344 40.4448 54.5934 40.467 54.8687 40.4806C55.4123 40.5077 56.0278 40.5384 56.6287 40.3205C57.2201 40.1056 57.665 39.6924 58.0576 39.327C58.278 39.1217 58.6107 38.8132 58.7571 38.7865C58.9036 38.7623 59.3223 38.9375 59.5991 39.0547C60.0924 39.2631 60.6505 39.4996 61.2791 39.4996H61.2821C61.9208 39.4991 62.489 39.2601 62.9913 39.0482C63.2445 38.9415 63.6677 38.7633 63.8036 38.782C63.9425 38.8066 64.2853 39.1262 64.4906 39.3169C64.8852 39.6844 65.3326 40.1011 65.9275 40.318C66.5279 40.5374 67.1419 40.5067 67.6845 40.4805C67.9618 40.4669 68.4253 40.4438 68.5426 40.5112C68.6603 40.5797 68.8732 40.9944 69.0001 41.2425C69.2472 41.7252 69.527 42.2722 70.0162 42.6819C70.5039 43.0906 71.0902 43.2703 71.6071 43.4288C71.8739 43.5108 72.3213 43.6477 72.4099 43.7534C72.4954 43.8566 72.5533 44.3151 72.587 44.5884C72.6545 45.1274 72.7305 45.7384 73.0521 46.2945C73.3676 46.8411 73.8533 47.2085 74.2826 47.5326C74.5217 47.7128 74.8825 47.9865 74.9319 48.1209C74.9741 48.2462 74.8725 48.6876 74.8116 48.9513C74.6893 49.4848 74.5494 50.0893 74.6626 50.7319C74.7758 51.3736 75.113 51.894 75.4105 52.353C75.5751 52.6062 75.7789 52.9203 75.8071 53.0824ZM61.2802 41.3483C54.8039 41.3483 49.5355 46.6167 49.5355 53.0929C49.5355 59.5691 54.804 64.8376 61.2802 64.8376C67.7564 64.8376 73.0249 59.5691 73.0249 53.0929C73.0249 46.6167 67.7555 41.3483 61.2802 41.3483ZM61.2802 62.6444C56.0138 62.6444 51.7293 58.36 51.7293 53.0936C51.7293 47.8272 56.0138 43.5427 61.2802 43.5427C66.5466 43.5427 70.8311 47.8272 70.8311 53.0936C70.8311 58.3594 66.5466 62.6444 61.2802 62.6444ZM63.8444 49.4137L62.2953 45.623C62.1267 45.2103 61.7256 44.9415 61.2802 44.9415C60.8343 44.9415 60.4332 45.2113 60.2651 45.623L58.716 49.4137L54.6319 49.7157C54.1875 49.7489 53.8075 50.0474 53.6701 50.4711C53.5327 50.8949 53.6651 51.3594 54.0048 51.6473L57.1313 54.292L56.1564 58.2695C56.0502 58.7023 56.2163 59.1558 56.5771 59.418C56.938 59.6802 57.4207 59.6978 57.7991 59.4633L61.2813 57.3073L64.7635 59.4633C64.9407 59.573 65.141 59.6279 65.3408 59.6279C65.5678 59.6279 65.7937 59.5574 65.9855 59.418C66.3464 59.1563 66.5124 58.7023 66.4062 58.2695L65.4314 54.292L68.5578 51.6473C68.8981 51.3594 69.0304 50.8944 68.8925 50.4711C68.7551 50.0474 68.3747 49.7489 67.9308 49.7157L63.8444 49.4137ZM63.4941 53.0561C63.176 53.3253 63.0381 53.7506 63.1373 54.1547L63.635 56.1855L61.8574 55.0843C61.5036 54.8649 61.0562 54.8649 60.7024 55.0843L58.9247 56.1855L59.4225 54.1547C59.5217 53.7506 59.3832 53.3248 59.0657 53.0566L57.4692 51.7058L59.5544 51.5518C59.9691 51.5211 60.3314 51.2579 60.4885 50.8734L61.2791 48.9382L62.0698 50.8734C62.2268 51.2589 62.5892 51.5221 63.0039 51.5518L65.0891 51.7058L63.4941 53.0561Z" fill="#6C96F9" stroke="#F5F8FF" stroke-width="0.2" mask="url(#path-1-inside-1_757_13414)"/>
</svg>
