<svg width="88" height="89" viewBox="0 0 88 89" fill="none" xmlns="http://www.w3.org/2000/svg">
<path d="M46.8862 35.7872L46.7948 35.8967L46.9289 35.9453C50.2382 37.146 52.6124 40.3129 52.6124 44.0319V47.9029C52.6124 48.3828 52.2235 48.7706 51.7447 48.7706H48.8415H48.7415V48.8706V61.4514C48.7415 61.9313 48.3526 62.3191 47.8737 62.3191H40.1317C39.6529 62.3191 39.264 61.9313 39.264 61.4514V48.8706V48.7706H39.164H36.2607C35.7819 48.7706 35.393 48.3828 35.393 47.9029V44.0319C35.393 40.3129 37.7671 37.1459 41.0765 35.9453L41.2105 35.8967L41.1192 35.7872C40.5724 35.1321 40.2317 34.3015 40.2317 33.3866V31.4511C40.2317 29.3716 41.9232 27.6801 44.0027 27.6801C46.0822 27.6801 47.7737 29.3716 47.7737 31.4511V33.3866C47.7737 34.3016 47.433 35.1321 46.8862 35.7872ZM37.1284 46.9351V47.0351H37.2284H39.1639H39.2639V46.9351V43.1641H40.9994V44.9996V45.0996H41.0994H46.9059H47.0059V44.9996V43.1641H48.7414V46.9351V47.0351H48.8414H50.7769H50.8769V46.9351V44.0319C50.8769 40.2421 47.7932 37.1576 44.0026 37.1576C40.2121 37.1576 37.1284 40.2421 37.1284 44.0319V46.9351ZM44.8704 60.4836V60.5836H44.9704H46.9059H47.0059V60.4836V46.9351V46.8351H46.9059H41.0994H40.9994V46.9351V60.4836V60.5836H41.0994H43.0349H43.1349V60.4836V48.9706H44.8704V60.4836ZM41.9671 31.4511V33.3866C41.9671 34.5094 42.8799 35.4221 44.0026 35.4221C45.1254 35.4221 46.0381 34.5094 46.0381 33.3866V31.4511C46.0381 30.3283 45.1254 29.4156 44.0026 29.4156C42.8799 29.4156 41.9671 30.3283 41.9671 31.4511Z" fill="#6C96F9" stroke="#F5F8FF" stroke-width="0.2"/>
<path d="M73.644 21.1597L73.6442 21.1599C73.8023 21.3173 73.8994 21.5341 73.8994 21.7743V39.1938C73.8994 39.6738 73.5105 40.0616 73.0317 40.0616H65.2897H65.1897V40.1616V45.9681C65.1897 46.1992 65.0986 46.4194 64.9358 46.581L64.9355 46.5813L57.8961 53.6208L57.8412 53.6756L57.8807 53.7424C58.2131 54.3046 58.4154 54.9491 58.4154 55.6456C58.4154 57.725 56.7239 59.4166 54.6444 59.4166C52.565 59.4166 50.8734 57.725 50.8734 55.6456C50.8734 53.5661 52.565 51.8746 54.6444 51.8746C55.3409 51.8746 55.9854 52.0769 56.5476 52.4093L56.6144 52.4488L56.6692 52.3939L63.4249 45.6383L63.4542 45.609V45.5676V40.1615V40.0615H63.3542H53.6767C53.1978 40.0615 52.8089 39.6737 52.8089 39.1938V15.9678C52.8089 15.4878 53.1978 15.1 53.6767 15.1H67.2252C67.4655 15.1 67.6822 15.1971 67.8391 15.3548L67.8393 15.355L73.644 21.1597ZM68.2632 18.2334L68.0925 18.0627V18.3041V20.8069V20.9069H68.1925H70.6952H70.9366L70.7659 20.7362L68.2632 18.2334ZM72.0635 38.3265H72.1635V38.2265V22.7425V22.6425H72.0635H67.2247C66.7459 22.6425 66.3569 22.2547 66.3569 21.7747V16.936V16.836H66.2569H54.6439H54.5439V16.936V38.2265V38.3265H54.6439H63.3537H63.4537V38.2265V36.391H65.1892V38.2265V38.3265H65.2892H72.0635ZM52.6084 55.646C52.6084 56.7688 53.5212 57.6815 54.6439 57.6815C55.7667 57.6815 56.6794 56.7688 56.6794 55.646C56.6794 54.5233 55.7667 53.6105 54.6439 53.6105C53.5212 53.6105 52.6084 54.5233 52.6084 55.646Z" fill="#6C96F9" stroke="#F5F8FF" stroke-width="0.2"/>
<path d="M56.6781 18.9711H64.2201V20.7066H56.6781V18.9711Z" fill="#6C96F9" stroke="#F5F8FF" stroke-width="0.2"/>
<path d="M56.6781 22.8422H64.2201V24.5777H56.6781V22.8422Z" fill="#6C96F9" stroke="#F5F8FF" stroke-width="0.2"/>
<path d="M56.6781 26.7133H70.0266V28.4488H56.6781V26.7133Z" fill="#6C96F9" stroke="#F5F8FF" stroke-width="0.2"/>
<path d="M56.6781 30.5834H70.0266V32.3189H56.6781V30.5834Z" fill="#6C96F9" stroke="#F5F8FF" stroke-width="0.2"/>
<path d="M34.935 55.9981L34.9352 55.9983C35.0934 56.1557 35.1905 56.3724 35.1905 56.6126V74.0321C35.1905 74.5121 34.8016 74.8999 34.3228 74.8999H14.9678C14.4889 74.8999 14.1 74.5121 14.1 74.0321V50.8061C14.1 50.3261 14.4889 49.9383 14.9678 49.9383H21.742H21.842V49.8383V43.0641C21.842 42.8329 21.9331 42.6127 22.0959 42.4511L22.0961 42.4509L31.0711 33.4759L31.126 33.421L31.0865 33.3543C30.7541 32.792 30.5517 32.1475 30.5517 31.4511C30.5517 29.3716 32.2433 27.6801 34.3227 27.6801C36.4022 27.6801 38.0937 29.3716 38.0937 31.4511C38.0937 33.5306 36.4022 35.2221 34.3227 35.2221C33.6263 35.2221 32.9818 35.0197 32.4195 34.6873L32.3528 34.6479L32.2979 34.7027L23.6068 43.3939L23.5775 43.4232V43.4646V49.8384V49.9384H23.6775H28.5162C28.7565 49.9384 28.9732 50.0355 29.1301 50.1932L29.1303 50.1934L34.935 55.9981ZM29.5546 53.0718L29.3839 52.9011V53.1425V55.6452V55.7452H29.4839H31.9867H32.2281L32.0574 55.5745L29.5546 53.0718ZM33.3549 73.1649H33.4549V73.0649V57.5809V57.4809H33.3549H28.5162C28.0373 57.4809 27.6484 57.0931 27.6484 56.6131V51.7744V51.6744H27.5484H23.6774H23.5774V51.7744V53.6099H21.8419V51.7744V51.6744H21.7419H15.9354H15.8354V51.7744V73.0649V73.1649H15.9354H33.3549ZM36.3582 31.4516C36.3582 30.3288 35.4455 29.4161 34.3227 29.4161C33.1999 29.4161 32.2872 30.3288 32.2872 31.4516C32.2872 32.5743 33.1999 33.4871 34.3227 33.4871C35.4455 33.4871 36.3582 32.5743 36.3582 31.4516Z" fill="#6C96F9" stroke="#F5F8FF" stroke-width="0.2"/>
<path d="M17.975 57.682H25.517V59.4175H17.975V57.682Z" fill="#6C96F9" stroke="#F5F8FF" stroke-width="0.2"/>
<path d="M17.975 61.5512H31.3235V63.2867H17.975V61.5512Z" fill="#6C96F9" stroke="#F5F8FF" stroke-width="0.2"/>
<path d="M17.975 65.4232H31.3235V67.1587H17.975V65.4232Z" fill="#6C96F9" stroke="#F5F8FF" stroke-width="0.2"/>
<path d="M17.975 69.2934H31.3235V71.0289H17.975V69.2934Z" fill="#6C96F9" stroke="#F5F8FF" stroke-width="0.2"/>
</svg>
