<svg width="88" height="89" viewBox="0 0 88 89" fill="none" xmlns="http://www.w3.org/2000/svg">
<mask id="path-1-inside-1_796_72173" fill="white">
<path d="M47.2113 34.2725L45.0494 28.8281C44.862 28.3575 44.4072 28.0487 43.9004 28.0487C43.3939 28.0487 42.9387 28.3575 42.7517 28.8281L40.5899 34.2725L34.7431 34.6464C34.2377 34.679 33.8033 35.0166 33.6466 35.4979C33.4904 35.9796 33.6434 36.5079 34.0331 36.8311L38.5424 40.5703L37.0924 46.2464C36.965 46.7375 37.151 47.2565 37.5612 47.555C37.9713 47.8535 38.5224 47.8712 38.9512 47.5996L43.8994 44.4663L48.8487 47.5996C49.277 47.8707 49.8266 47.8531 50.2368 47.5555C50.6464 47.2574 50.8329 46.7398 50.7074 46.2492L49.2561 40.574L53.7664 36.8311C54.1561 36.5079 54.309 35.9796 54.1523 35.4979C53.9961 35.0166 53.5613 34.679 53.0563 34.6464L47.2113 34.2725ZM47.0778 39.1669H47.0783C46.7105 39.4719 46.5514 39.9616 46.6695 40.4243L47.5433 43.8431L44.562 41.9557C44.1584 41.7004 43.6441 41.7004 43.24 41.9557L40.2588 43.8431L41.1321 40.4243C41.2507 39.9616 41.0921 39.4719 40.7242 39.1669L38.0076 36.9143L41.5288 36.6888V36.6892C42.0045 36.6576 42.4198 36.3553 42.5955 35.9126L43.898 32.6328L45.2001 35.9126C45.3764 36.3554 45.7912 36.6576 46.2669 36.6892L49.7881 36.9148L47.0778 39.1669ZM66.536 35.0705H66.5364C66.1095 34.466 65.7668 33.8066 65.5162 33.1104C65.3743 32.3743 65.3371 31.6219 65.4064 30.8751C65.4539 29.5912 65.5069 28.1356 64.7833 26.901C64.0588 25.6668 62.7656 25.0064 61.6276 24.4275C60.9617 24.1355 60.3413 23.7486 59.7861 23.2794C59.3164 22.7241 58.9295 22.1033 58.6375 21.4374C58.058 20.2985 57.4014 19.0081 56.1636 18.2827C54.9257 17.5572 53.4743 17.6158 52.1894 17.6595H52.1899C51.4436 17.7283 50.6911 17.6916 49.9551 17.5493C49.2589 17.2991 48.5995 16.9564 47.995 16.5295C46.8543 15.8129 45.5657 15 44.0325 15C42.4993 15 41.2098 15.8129 40.07 16.5332C39.4655 16.9601 38.8061 17.3028 38.1099 17.5525C37.3738 17.6948 36.6214 17.732 35.8751 17.6632C34.5912 17.6158 33.1356 17.5628 31.901 18.2859C30.6663 19.009 30.0065 20.3018 29.4271 21.4406H29.4275C29.135 22.1065 28.7481 22.7269 28.2789 23.2826C27.7232 23.7523 27.1029 24.1387 26.4369 24.4308C25.2981 25.0106 24.0077 25.6673 23.2822 26.9047C22.5567 28.142 22.6153 29.5953 22.6595 30.8793C22.7283 31.6256 22.6911 32.378 22.5488 33.1138C22.2991 33.8104 21.9559 34.4693 21.5295 35.0739C20.812 36.2136 20 37.5064 20 39.0363C20 40.5662 20.8129 41.859 21.5295 42.9988V42.9992C21.9559 43.6038 22.2991 44.2627 22.5493 44.9593C22.6916 45.695 22.7283 46.4474 22.6595 47.1938C22.6121 48.4777 22.5591 49.9333 23.2827 51.168C24.0067 52.4026 25.2981 53.0625 26.4374 53.6419C27.1033 53.9339 27.7237 54.3208 28.2789 54.7905C28.5328 55.0616 28.7509 55.3643 28.9281 55.6912L23.4496 69.1434C23.2501 69.6308 23.3821 70.1912 23.7779 70.5386C24.1736 70.8864 24.7465 70.9445 25.204 70.6841L31.5767 67.0667L33.6107 74.1067C33.7558 74.6131 34.2064 74.9721 34.7324 75H34.7989H34.7993C35.3016 75 35.754 74.6954 35.9433 74.2299L40.9037 62.0467V62.0472C41.8361 62.6615 42.9168 63.014 44.0324 63.0665C45.148 63.014 46.2292 62.6624 47.1615 62.0476L52.1219 74.2308H52.1224C52.3117 74.6959 52.7641 75 53.2664 75H53.3329C53.8588 74.9726 54.3094 74.6145 54.4554 74.1085L56.4885 67.0685L62.8617 70.686H62.8621C63.3202 70.9459 63.8922 70.8873 64.2879 70.5395C64.6837 70.1921 64.8153 69.6322 64.6167 69.1448L59.1369 55.689C59.3141 55.3617 59.5322 55.0585 59.7861 54.7869C60.3418 54.3177 60.9621 53.9308 61.6281 53.6392C62.7669 53.0598 64.0573 52.4032 64.7828 51.1653C65.5082 49.9275 65.4496 48.4751 65.4055 47.1912C65.3366 46.4448 65.3738 45.6924 65.5161 44.9563C65.7659 44.2602 66.1091 43.6008 66.5355 42.9967C67.253 41.856 68.065 40.5633 68.065 39.0343C68.065 37.5047 67.2521 36.2111 66.5355 35.0713L66.536 35.0705ZM34.997 69.9999L33.5178 64.8772C33.4131 64.5131 33.1467 64.2169 32.7956 64.0736C32.4445 63.9304 32.0473 63.9565 31.7176 64.1439L27.0804 66.7763L30.4737 58.4431V58.4436C30.8504 58.9844 31.3363 59.441 31.8995 59.7843C33.1342 60.5074 34.5898 60.4511 35.8737 60.4069V60.4065C36.62 60.3381 37.3725 60.3748 38.1085 60.5167C38.3303 60.5813 38.5457 60.6664 38.7521 60.7701L34.997 69.9999ZM56.3456 64.1452C56.0159 63.9578 55.6188 63.9317 55.2677 64.075C54.9166 64.2177 54.6506 64.514 54.5455 64.8785L53.0691 69.9999L49.3113 60.7701C49.5182 60.6664 49.734 60.5818 49.9558 60.5167C50.6919 60.3749 51.4448 60.3377 52.1911 60.4065C53.475 60.4539 54.9297 60.5069 56.1643 59.7833C56.7284 59.4406 57.2139 58.9835 57.5896 58.4413L60.9834 66.7746L56.3456 64.1452ZM64.4435 41.68C63.8813 42.4845 63.4395 43.3671 63.133 44.2999C62.9145 45.2774 62.847 46.2823 62.9331 47.2803C62.9712 48.3196 63.007 49.3008 62.6475 49.9151C62.2881 50.5289 61.4217 50.9684 60.5042 51.4353C59.6026 51.8362 58.7702 52.3779 58.0377 53.0392C57.4894 53.6256 57.0342 54.2924 56.6868 55.0165L56.6761 55.0369C56.5942 55.1937 56.5133 55.3508 56.4343 55.5075C55.9674 56.425 55.5261 57.2913 54.9137 57.6504C54.3013 58.0089 53.3182 57.9736 52.2798 57.9364C51.2818 57.8503 50.2765 57.9178 49.299 58.1363C48.3666 58.4432 47.4835 58.8846 46.679 59.4473C45.7378 60.0388 44.8492 60.5973 44.0317 60.5973C43.2142 60.5973 42.3255 60.0388 41.3853 59.4473C40.5812 58.8837 39.6986 58.441 38.7667 58.1331C38.1282 57.9717 37.4711 57.8969 36.8132 57.9113C36.4686 57.9113 36.1245 57.9238 35.785 57.9364C34.7461 57.9745 33.7649 58.0103 33.1511 57.6504C32.5373 57.2905 32.0978 56.4251 31.6309 55.5076C31.5509 55.3509 31.4695 55.1928 31.3877 55.0356L31.3774 55.0161L31.3779 55.0165C31.031 54.2925 30.5753 53.6256 30.027 53.0393C29.2946 52.3794 28.4621 51.8391 27.5605 51.4392C26.643 50.9723 25.7767 50.531 25.4176 49.9186C25.0591 49.3062 25.0935 48.3231 25.1316 47.2847H25.1321C25.2191 46.2868 25.1526 45.2814 24.9354 44.3034C24.6285 43.3711 24.1867 42.4884 23.6245 41.6839C23.0329 40.7427 22.474 39.8541 22.474 39.0366C22.474 38.2191 23.0325 37.3304 23.6245 36.3892V36.3897C24.1867 35.5847 24.6284 34.7021 24.9354 33.7697C25.1526 32.7918 25.2191 31.7869 25.1321 30.7889C25.094 29.75 25.0582 28.7688 25.4176 28.155C25.7771 27.5412 26.6434 27.1008 27.5609 26.6344H27.5605C28.4621 26.2331 29.2945 25.6918 30.027 25.031C30.6883 24.2981 31.2291 23.4658 31.6304 22.5645C32.0973 21.6465 32.5386 20.7807 33.151 20.4212C33.7634 20.0617 34.7465 20.098 35.7849 20.1357H35.7854C36.7833 20.2221 37.7887 20.1547 38.7666 19.9357C39.699 19.6292 40.5811 19.1879 41.3857 18.6257C42.3269 18.0309 43.2155 17.4724 44.033 17.4724C44.8505 17.4724 45.7392 18.0309 46.6794 18.6225C47.4844 19.1851 48.367 19.6269 49.2994 19.9339C50.2773 20.1524 51.2827 20.2203 52.2807 20.1338C53.3195 20.0952 54.3008 20.0599 54.9146 20.4194C55.5289 20.7783 55.966 21.641 56.4329 22.559C56.8342 23.4607 57.3755 24.293 58.0363 25.0255C58.7687 25.6868 59.6015 26.2276 60.5028 26.6289C61.4203 27.0958 62.2866 27.5362 62.6457 28.1491C63.0042 28.7616 62.9698 29.7446 62.9316 30.7831C62.8456 31.781 62.9131 32.7868 63.1316 33.7643C63.4385 34.6972 63.8798 35.5798 64.4421 36.3843C65.034 37.325 65.5925 38.2142 65.5925 39.0317C65.593 39.8492 65.0327 40.7397 64.4435 41.6804L64.4435 41.68ZM44.033 22.9171C39.759 22.9171 35.6598 24.6154 32.6375 27.6375C29.6148 30.6597 27.9171 34.7588 27.9171 39.033C27.9171 43.3074 29.6149 47.4062 32.6375 50.4289C35.6598 53.4511 39.7589 55.1489 44.033 55.1489C48.3071 55.1489 52.4062 53.451 55.4285 50.4289C58.4512 47.4062 60.1489 43.3076 60.1489 39.033C60.1442 34.7603 58.4451 30.6639 55.4233 27.6426C52.4021 24.6213 48.3057 22.9217 44.033 22.9171ZM44.033 52.6763C40.4146 52.6763 36.9441 51.2389 34.3851 48.6804C31.8266 46.1218 30.3892 42.6513 30.3892 39.0325C30.3892 35.4141 31.8266 31.9436 34.3851 29.3851C36.9441 26.8261 40.4146 25.3887 44.033 25.3887C47.6514 25.3887 51.1218 26.8261 53.6809 29.3851C56.2394 31.9436 57.6768 35.4142 57.6768 39.0325C57.6726 42.6499 56.2338 46.1181 53.6762 48.6757C51.1182 51.2338 47.6505 52.6726 44.033 52.6763Z"/>
</mask>
<path d="M47.2113 34.2725L45.0494 28.8281C44.862 28.3575 44.4072 28.0487 43.9004 28.0487C43.3939 28.0487 42.9387 28.3575 42.7517 28.8281L40.5899 34.2725L34.7431 34.6464C34.2377 34.679 33.8033 35.0166 33.6466 35.4979C33.4904 35.9796 33.6434 36.5079 34.0331 36.8311L38.5424 40.5703L37.0924 46.2464C36.965 46.7375 37.151 47.2565 37.5612 47.555C37.9713 47.8535 38.5224 47.8712 38.9512 47.5996L43.8994 44.4663L48.8487 47.5996C49.277 47.8707 49.8266 47.8531 50.2368 47.5555C50.6464 47.2574 50.8329 46.7398 50.7074 46.2492L49.2561 40.574L53.7664 36.8311C54.1561 36.5079 54.309 35.9796 54.1523 35.4979C53.9961 35.0166 53.5613 34.679 53.0563 34.6464L47.2113 34.2725ZM47.0778 39.1669H47.0783C46.7105 39.4719 46.5514 39.9616 46.6695 40.4243L47.5433 43.8431L44.562 41.9557C44.1584 41.7004 43.6441 41.7004 43.24 41.9557L40.2588 43.8431L41.1321 40.4243C41.2507 39.9616 41.0921 39.4719 40.7242 39.1669L38.0076 36.9143L41.5288 36.6888V36.6892C42.0045 36.6576 42.4198 36.3553 42.5955 35.9126L43.898 32.6328L45.2001 35.9126C45.3764 36.3554 45.7912 36.6576 46.2669 36.6892L49.7881 36.9148L47.0778 39.1669ZM66.536 35.0705H66.5364C66.1095 34.466 65.7668 33.8066 65.5162 33.1104C65.3743 32.3743 65.3371 31.6219 65.4064 30.8751C65.4539 29.5912 65.5069 28.1356 64.7833 26.901C64.0588 25.6668 62.7656 25.0064 61.6276 24.4275C60.9617 24.1355 60.3413 23.7486 59.7861 23.2794C59.3164 22.7241 58.9295 22.1033 58.6375 21.4374C58.058 20.2985 57.4014 19.0081 56.1636 18.2827C54.9257 17.5572 53.4743 17.6158 52.1894 17.6595H52.1899C51.4436 17.7283 50.6911 17.6916 49.9551 17.5493C49.2589 17.2991 48.5995 16.9564 47.995 16.5295C46.8543 15.8129 45.5657 15 44.0325 15C42.4993 15 41.2098 15.8129 40.07 16.5332C39.4655 16.9601 38.8061 17.3028 38.1099 17.5525C37.3738 17.6948 36.6214 17.732 35.8751 17.6632C34.5912 17.6158 33.1356 17.5628 31.901 18.2859C30.6663 19.009 30.0065 20.3018 29.4271 21.4406H29.4275C29.135 22.1065 28.7481 22.7269 28.2789 23.2826C27.7232 23.7523 27.1029 24.1387 26.4369 24.4308C25.2981 25.0106 24.0077 25.6673 23.2822 26.9047C22.5567 28.142 22.6153 29.5953 22.6595 30.8793C22.7283 31.6256 22.6911 32.378 22.5488 33.1138C22.2991 33.8104 21.9559 34.4693 21.5295 35.0739C20.812 36.2136 20 37.5064 20 39.0363C20 40.5662 20.8129 41.859 21.5295 42.9988V42.9992C21.9559 43.6038 22.2991 44.2627 22.5493 44.9593C22.6916 45.695 22.7283 46.4474 22.6595 47.1938C22.6121 48.4777 22.5591 49.9333 23.2827 51.168C24.0067 52.4026 25.2981 53.0625 26.4374 53.6419C27.1033 53.9339 27.7237 54.3208 28.2789 54.7905C28.5328 55.0616 28.7509 55.3643 28.9281 55.6912L23.4496 69.1434C23.2501 69.6308 23.3821 70.1912 23.7779 70.5386C24.1736 70.8864 24.7465 70.9445 25.204 70.6841L31.5767 67.0667L33.6107 74.1067C33.7558 74.6131 34.2064 74.9721 34.7324 75H34.7989H34.7993C35.3016 75 35.754 74.6954 35.9433 74.2299L40.9037 62.0467V62.0472C41.8361 62.6615 42.9168 63.014 44.0324 63.0665C45.148 63.014 46.2292 62.6624 47.1615 62.0476L52.1219 74.2308H52.1224C52.3117 74.6959 52.7641 75 53.2664 75H53.3329C53.8588 74.9726 54.3094 74.6145 54.4554 74.1085L56.4885 67.0685L62.8617 70.686H62.8621C63.3202 70.9459 63.8922 70.8873 64.2879 70.5395C64.6837 70.1921 64.8153 69.6322 64.6167 69.1448L59.1369 55.689C59.3141 55.3617 59.5322 55.0585 59.7861 54.7869C60.3418 54.3177 60.9621 53.9308 61.6281 53.6392C62.7669 53.0598 64.0573 52.4032 64.7828 51.1653C65.5082 49.9275 65.4496 48.4751 65.4055 47.1912C65.3366 46.4448 65.3738 45.6924 65.5161 44.9563C65.7659 44.2602 66.1091 43.6008 66.5355 42.9967C67.253 41.856 68.065 40.5633 68.065 39.0343C68.065 37.5047 67.2521 36.2111 66.5355 35.0713L66.536 35.0705ZM34.997 69.9999L33.5178 64.8772C33.4131 64.5131 33.1467 64.2169 32.7956 64.0736C32.4445 63.9304 32.0473 63.9565 31.7176 64.1439L27.0804 66.7763L30.4737 58.4431V58.4436C30.8504 58.9844 31.3363 59.441 31.8995 59.7843C33.1342 60.5074 34.5898 60.4511 35.8737 60.4069V60.4065C36.62 60.3381 37.3725 60.3748 38.1085 60.5167C38.3303 60.5813 38.5457 60.6664 38.7521 60.7701L34.997 69.9999ZM56.3456 64.1452C56.0159 63.9578 55.6188 63.9317 55.2677 64.075C54.9166 64.2177 54.6506 64.514 54.5455 64.8785L53.0691 69.9999L49.3113 60.7701C49.5182 60.6664 49.734 60.5818 49.9558 60.5167C50.6919 60.3749 51.4448 60.3377 52.1911 60.4065C53.475 60.4539 54.9297 60.5069 56.1643 59.7833C56.7284 59.4406 57.2139 58.9835 57.5896 58.4413L60.9834 66.7746L56.3456 64.1452ZM64.4435 41.68C63.8813 42.4845 63.4395 43.3671 63.133 44.2999C62.9145 45.2774 62.847 46.2823 62.9331 47.2803C62.9712 48.3196 63.007 49.3008 62.6475 49.9151C62.2881 50.5289 61.4217 50.9684 60.5042 51.4353C59.6026 51.8362 58.7702 52.3779 58.0377 53.0392C57.4894 53.6256 57.0342 54.2924 56.6868 55.0165L56.6761 55.0369C56.5942 55.1937 56.5133 55.3508 56.4343 55.5075C55.9674 56.425 55.5261 57.2913 54.9137 57.6504C54.3013 58.0089 53.3182 57.9736 52.2798 57.9364C51.2818 57.8503 50.2765 57.9178 49.299 58.1363C48.3666 58.4432 47.4835 58.8846 46.679 59.4473C45.7378 60.0388 44.8492 60.5973 44.0317 60.5973C43.2142 60.5973 42.3255 60.0388 41.3853 59.4473C40.5812 58.8837 39.6986 58.441 38.7667 58.1331C38.1282 57.9717 37.4711 57.8969 36.8132 57.9113C36.4686 57.9113 36.1245 57.9238 35.785 57.9364C34.7461 57.9745 33.7649 58.0103 33.1511 57.6504C32.5373 57.2905 32.0978 56.4251 31.6309 55.5076C31.5509 55.3509 31.4695 55.1928 31.3877 55.0356L31.3774 55.0161L31.3779 55.0165C31.031 54.2925 30.5753 53.6256 30.027 53.0393C29.2946 52.3794 28.4621 51.8391 27.5605 51.4392C26.643 50.9723 25.7767 50.531 25.4176 49.9186C25.0591 49.3062 25.0935 48.3231 25.1316 47.2847H25.1321C25.2191 46.2868 25.1526 45.2814 24.9354 44.3034C24.6285 43.3711 24.1867 42.4884 23.6245 41.6839C23.0329 40.7427 22.474 39.8541 22.474 39.0366C22.474 38.2191 23.0325 37.3304 23.6245 36.3892V36.3897C24.1867 35.5847 24.6284 34.7021 24.9354 33.7697C25.1526 32.7918 25.2191 31.7869 25.1321 30.7889C25.094 29.75 25.0582 28.7688 25.4176 28.155C25.7771 27.5412 26.6434 27.1008 27.5609 26.6344H27.5605C28.4621 26.2331 29.2945 25.6918 30.027 25.031C30.6883 24.2981 31.2291 23.4658 31.6304 22.5645C32.0973 21.6465 32.5386 20.7807 33.151 20.4212C33.7634 20.0617 34.7465 20.098 35.7849 20.1357H35.7854C36.7833 20.2221 37.7887 20.1547 38.7666 19.9357C39.699 19.6292 40.5811 19.1879 41.3857 18.6257C42.3269 18.0309 43.2155 17.4724 44.033 17.4724C44.8505 17.4724 45.7392 18.0309 46.6794 18.6225C47.4844 19.1851 48.367 19.6269 49.2994 19.9339C50.2773 20.1524 51.2827 20.2203 52.2807 20.1338C53.3195 20.0952 54.3008 20.0599 54.9146 20.4194C55.5289 20.7783 55.966 21.641 56.4329 22.559C56.8342 23.4607 57.3755 24.293 58.0363 25.0255C58.7687 25.6868 59.6015 26.2276 60.5028 26.6289C61.4203 27.0958 62.2866 27.5362 62.6457 28.1491C63.0042 28.7616 62.9698 29.7446 62.9316 30.7831C62.8456 31.781 62.9131 32.7868 63.1316 33.7643C63.4385 34.6972 63.8798 35.5798 64.4421 36.3843C65.034 37.325 65.5925 38.2142 65.5925 39.0317C65.593 39.8492 65.0327 40.7397 64.4435 41.6804L64.4435 41.68ZM44.033 22.9171C39.759 22.9171 35.6598 24.6154 32.6375 27.6375C29.6148 30.6597 27.9171 34.7588 27.9171 39.033C27.9171 43.3074 29.6149 47.4062 32.6375 50.4289C35.6598 53.4511 39.7589 55.1489 44.033 55.1489C48.3071 55.1489 52.4062 53.451 55.4285 50.4289C58.4512 47.4062 60.1489 43.3076 60.1489 39.033C60.1442 34.7603 58.4451 30.6639 55.4233 27.6426C52.4021 24.6213 48.3057 22.9217 44.033 22.9171ZM44.033 52.6763C40.4146 52.6763 36.9441 51.2389 34.3851 48.6804C31.8266 46.1218 30.3892 42.6513 30.3892 39.0325C30.3892 35.4141 31.8266 31.9436 34.3851 29.3851C36.9441 26.8261 40.4146 25.3887 44.033 25.3887C47.6514 25.3887 51.1218 26.8261 53.6809 29.3851C56.2394 31.9436 57.6768 35.4142 57.6768 39.0325C57.6726 42.6499 56.2338 46.1181 53.6762 48.6757C51.1182 51.2338 47.6505 52.6726 44.033 52.6763Z" fill="#6C96F9" stroke="#F5F8FF" stroke-width="0.6" mask="url(#path-1-inside-1_796_72173)"/>
</svg>
