<svg width="88" height="89" viewBox="0 0 88 89" fill="none" xmlns="http://www.w3.org/2000/svg">
<path d="M73.0623 36.9997H69.3124L69.312 15.4374C69.312 14.9217 68.8903 14.5 68.3746 14.5H19.625C19.1093 14.5 18.6876 14.9221 18.6876 15.4374V28.5626H14.9374C14.4217 28.5626 14 28.9843 14 29.5001V73.5626C14 74.0783 14.4217 74.5 14.9374 74.5H73.0621C73.5778 74.5 73.9995 74.0783 73.9995 73.5626V37.9371C73.9995 37.4213 73.5774 36.9997 73.0621 36.9997H73.0623ZM20.5627 16.3744H67.4372V36.9997H44.3845L36.219 28.8342C36.0498 28.6654 35.8154 28.5623 35.5625 28.5623H20.5623L20.5627 16.3744ZM72.1253 72.624H15.8757V30.4365H35.1784L43.3439 38.602C43.5126 38.7707 43.7474 38.8739 44.0003 38.8739H72.1257L72.1253 72.624Z" fill="#6C96F9"/>
<path d="M24.3124 21.0624H63.6868C64.2026 21.0624 64.6243 20.6407 64.6243 20.1249C64.6243 19.6092 64.2026 19.1875 63.6868 19.1875H24.3124C23.7967 19.1875 23.375 19.6092 23.375 20.1249C23.375 20.6407 23.7971 21.0624 24.3124 21.0624Z" fill="#6C96F9"/>
<path d="M64.6254 24.8124C64.6254 24.2967 64.2037 23.875 63.6879 23.875H24.3124C23.7967 23.875 23.375 24.2967 23.375 24.8124C23.375 25.3282 23.7967 25.7499 24.3124 25.7499H63.6868C64.2121 25.7503 64.6247 25.3282 64.6247 24.8124H64.6254Z" fill="#6C96F9"/>
<path d="M63.6877 28.5625H43.0624C42.5467 28.5625 42.125 28.9842 42.125 29.4999C42.125 30.0157 42.5467 30.4374 43.0624 30.4374H63.6877C64.2035 30.4374 64.6252 30.0157 64.6252 29.4999C64.6252 28.9842 64.2125 28.5625 63.6877 28.5625Z" fill="#6C96F9"/>
<path d="M43.0627 42.625C35.8251 42.625 29.9375 48.5125 29.9375 55.7502C29.9375 62.9877 35.825 68.8753 43.0627 68.8753C50.3003 68.8753 56.1878 62.9878 56.1878 55.7502C56.1878 48.5126 50.3003 42.625 43.0627 42.625ZM43.0627 67.0003C36.8566 67.0003 31.8125 61.9566 31.8125 55.7502C31.8125 49.5441 36.8562 44.5 43.0627 44.5C49.2691 44.5 54.3128 49.5437 54.3128 55.7502C54.3128 61.9562 49.2691 67.0003 43.0627 67.0003Z" fill="#6C96F9"/>
<path d="M47.7503 52.9367C47.7503 50.3492 45.6501 48.249 43.0627 48.249C40.4752 48.249 38.375 50.3492 38.375 52.9367C38.375 54.3243 38.9749 55.6088 40.0061 56.4896L39.3215 61.2429C39.284 61.5148 39.3591 61.7867 39.5373 61.9931C39.716 62.1899 39.9789 62.3116 40.2508 62.3116H45.8758C46.1477 62.3116 46.4102 62.1899 46.5884 61.9926C46.7667 61.7863 46.8508 61.5144 46.8042 61.2425L46.1197 56.4892C47.1504 55.6087 47.7503 54.3242 47.7503 52.9367ZM44.6005 55.2898C44.291 55.4866 44.1318 55.8431 44.1879 56.2087L44.7973 60.4367H41.3379L41.9474 56.2087C42.0035 55.8431 41.8347 55.4866 41.5347 55.2898C40.7285 54.774 40.2507 53.8931 40.2507 52.9367C40.2507 51.3898 41.5162 50.1244 43.063 50.1244C44.6099 50.1244 45.8754 51.3898 45.8754 52.9367C45.8754 53.8931 45.3972 54.774 44.6005 55.2898Z" fill="#6C96F9"/>
</svg>
