<svg width="241" height="46" viewBox="0 0 241 46" fill="none" xmlns="http://www.w3.org/2000/svg">
<path d="M57.0004 20.1526L38.4922 29.1403V45.964L56.9897 36.9854V20.1706H57.0004V20.1526Z" fill="#6C96F9"/>
<path d="M38.4698 29.1583L19.9188 20.1526L19.8867 20.1796V36.9764L38.4484 45.982L38.4698 46L38.4912 45.991L38.5019 46L38.4805 45.982L38.4912 45.964V29.1403L38.4698 29.1583Z" fill="#257DE3"/>
<path d="M18.5943 0.0179944L18.605 0L18.5943 0.00899722V0L18.5515 0.0179944L18.498 0.0359861V16.8598L18.5729 16.8418L37.1025 25.8474V25.8204V9.02366L18.5943 0.0179944Z" fill="#6C96F9"/>
<path d="M0 9.01444V25.8292L0.0106929 25.8472L18.4975 16.8595V0.0357666L0 9.01444Z" fill="#257DE3"/>
<path d="M17.2252 20.1526L0 28.5105V45.3433L17.2145 36.9854V20.1706H17.2252V20.1526Z" fill="#6C96F9"/>
<path d="M56.9899 0.656738L39.7754 9.01464V25.8294L39.7861 25.8474L56.9899 17.4895V0.656738Z" fill="#257DE3"/>
<path d="M71.0008 18.6445C71.0008 17.2192 71.5758 16.1502 71.5758 16.1502C72.1492 15.0828 73.1338 14.3969 73.1338 14.3969C74.1199 13.7127 75.4321 13.3563 75.4321 13.3563C76.7459 13 78.2236 13 78.2236 13C80.0288 13 81.6971 13.4115 81.6971 13.4115C83.3669 13.8214 84.6523 14.5341 84.6523 14.5341V19.1916C83.4205 18.2598 81.8609 17.8214 81.8609 17.8214C80.3029 17.3831 78.6331 17.3831 78.6331 17.3831C77.2374 17.4115 76.7191 17.7395 76.7191 17.7395C76.1993 18.069 76.1993 18.6161 76.1993 18.6161C76.1993 19.2467 76.9365 19.6299 76.9365 19.6299C77.6753 20.013 78.7702 20.4245 78.7702 20.4245C79.865 20.836 81.1772 21.246 81.1772 21.246C82.491 21.6575 83.5575 22.4521 83.5575 22.4521C84.624 23.2467 85.4179 24.3157 85.4179 24.3157C86.2119 25.3831 86.1567 27.1364 86.1567 27.1364C86.1567 28.836 85.555 29.9586 85.555 29.9586C84.9532 31.0828 83.9135 31.767 83.9135 31.767C82.8738 32.4529 81.4513 32.7257 81.4513 32.7257C80.0288 33 78.4961 33 78.4961 33C76.4167 33 74.5578 32.5617 74.5578 32.5617C72.6974 32.1234 71.1379 31.2467 71.1379 31.2467V26.4521C72.8612 27.6299 74.6665 28.1234 74.6665 28.1234C76.4718 28.6169 78.1133 28.6169 78.1133 28.6169C79.6177 28.6169 80.2746 28.3425 80.2746 28.3425C80.9315 28.0682 80.9583 27.3287 80.9583 27.3287C80.9583 26.6445 80.2195 26.2061 80.2195 26.2061C79.4822 25.7678 78.3874 25.3831 78.3874 25.3831C77.2926 25 75.9803 24.5349 75.9803 24.5349C74.6665 24.0682 73.6001 23.3287 73.6001 23.3287C72.532 22.5893 71.7396 21.4935 71.7396 21.4935C70.9457 20.3977 71.0008 18.6445 71.0008 18.6445Z" fill="#6C96F9"/>
<path d="M97.4368 13V33H92.1582V13H97.4368Z" fill="#6C96F9"/>
<path d="M103.436 33V13H108.43L116.247 24.4857C116.189 23.772 116.161 22.8857 116.161 22.8857C116.132 21.9994 116.132 21.1707 116.132 21.1707V13H121.411V33H116.418L108.601 21.5423C108.657 22.2576 108.686 23.1143 108.686 23.1143C108.714 23.971 108.714 24.8293 108.714 24.8293V33H103.436Z" fill="#6C96F9"/>
<path d="M127.412 33L135.259 13H140.964L148.811 33H143.389L142.249 29.8577H133.974L132.834 33H127.412ZM135.544 25.5709H140.68L138.625 19.7993C138.482 19.4277 138.369 19.0002 138.369 19.0002C138.254 18.571 138.112 17.7718 138.112 17.7718C137.969 18.571 137.854 19.0002 137.854 19.0002C137.741 19.4277 137.598 19.7993 137.598 19.7993L135.544 25.5709Z" fill="#6C96F9"/>
<path d="M162.713 13C164.568 13 166.137 13.3141 166.137 13.3141C167.706 13.6281 168.905 14.4569 168.905 14.4569C170.103 15.2856 170.73 16.5715 170.73 16.5715C171.358 17.8574 171.415 19.8569 171.415 19.8569C171.415 21.8284 170.76 23.1422 170.76 23.1422C170.103 24.4577 168.905 25.2289 168.905 25.2289C167.706 26.0001 166.166 26.3717 166.166 26.3717C164.625 26.7433 162.713 26.7154 162.713 26.7154H160.089V33H154.811V13H162.713ZM165.994 19.8569C165.994 19.1712 165.767 18.742 165.767 18.742C165.539 18.3145 165.082 18.0284 165.082 18.0284C164.625 17.7423 164.111 17.6847 164.111 17.6847C163.598 17.6288 162.971 17.5712 162.971 17.5712H160.089V22.1425H162.971C163.569 22.1425 164.111 22.057 164.111 22.057C164.653 21.9715 165.082 21.6854 165.082 21.6854C165.509 21.3992 165.737 20.9997 165.737 20.9997C165.966 20.6001 165.994 19.8569 165.994 19.8569Z" fill="#6C96F9"/>
<path d="M177.415 18.6445C177.415 17.2192 177.988 16.1502 177.988 16.1502C178.563 15.0828 179.548 14.3969 179.548 14.3969C180.534 13.7127 181.846 13.3563 181.846 13.3563C183.16 13 184.638 13 184.638 13C186.443 13 188.111 13.4115 188.111 13.4115C189.779 13.8214 191.066 14.5341 191.066 14.5341V19.1916C189.835 18.2598 188.275 17.8214 188.275 17.8214C186.715 17.3831 185.047 17.3831 185.047 17.3831C183.651 17.4115 183.132 17.7395 183.132 17.7395C182.612 18.069 182.612 18.6161 182.612 18.6161C182.612 19.2467 183.351 19.6299 183.351 19.6299C184.089 20.013 185.184 20.4245 185.184 20.4245C186.279 20.836 187.591 21.246 187.591 21.246C188.905 21.6575 189.972 22.4521 189.972 22.4521C191.038 23.2467 191.832 24.3157 191.832 24.3157C192.626 25.3831 192.571 27.1364 192.571 27.1364C192.571 28.836 191.969 29.9586 191.969 29.9586C191.367 31.0828 190.328 31.767 190.328 31.767C189.288 32.4529 187.865 32.7257 187.865 32.7257C186.443 33 184.91 33 184.91 33C182.831 33 180.97 32.5617 180.97 32.5617C179.11 32.1234 177.552 31.2467 177.552 31.2467V26.4521C179.275 27.6299 181.081 28.1234 181.081 28.1234C182.886 28.6169 184.527 28.6169 184.527 28.6169C186.032 28.6169 186.689 28.3425 186.689 28.3425C187.346 28.0682 187.372 27.3287 187.372 27.3287C187.372 26.6445 186.634 26.2061 186.634 26.2061C185.895 25.7678 184.801 25.3831 184.801 25.3831C183.707 25 182.393 24.5349 182.393 24.5349C181.081 24.0682 180.014 23.3287 180.014 23.3287C178.946 22.5893 178.154 21.4935 178.154 21.4935C177.36 20.3977 177.415 18.6445 177.415 18.6445Z" fill="#6C96F9"/>
<path d="M206.361 33V26.1711L198.572 13H204.564L208.987 21.2578L213.409 13H219.401L211.612 26.1711V33H206.361Z" fill="#6C96F9"/>
<path d="M225.401 18.6445C225.401 17.2192 225.976 16.1502 225.976 16.1502C226.55 15.0828 227.534 14.3969 227.534 14.3969C228.52 13.7127 229.833 13.3563 229.833 13.3563C231.146 13 232.624 13 232.624 13C234.429 13 236.097 13.4115 236.097 13.4115C237.767 13.8214 239.053 14.5341 239.053 14.5341V19.1916C237.821 18.2598 236.261 17.8214 236.261 17.8214C234.703 17.3831 233.034 17.3831 233.034 17.3831C231.638 17.4115 231.118 17.7395 231.118 17.7395C230.6 18.069 230.6 18.6161 230.6 18.6161C230.6 19.2467 231.337 19.6299 231.337 19.6299C232.076 20.013 233.171 20.4245 233.171 20.4245C234.265 20.836 235.578 21.246 235.578 21.246C236.891 21.6575 237.958 22.4521 237.958 22.4521C239.024 23.2467 239.818 24.3157 239.818 24.3157C240.612 25.3831 240.557 27.1364 240.557 27.1364C240.557 28.836 239.955 29.9586 239.955 29.9586C239.354 31.0828 238.314 31.767 238.314 31.767C237.274 32.4529 235.852 32.7257 235.852 32.7257C234.429 33 232.896 33 232.896 33C230.817 33 228.958 32.5617 228.958 32.5617C227.098 32.1234 225.538 31.2467 225.538 31.2467V26.4521C227.262 27.6299 229.067 28.1234 229.067 28.1234C230.872 28.6169 232.514 28.6169 232.514 28.6169C234.018 28.6169 234.675 28.3425 234.675 28.3425C235.332 28.0682 235.359 27.3287 235.359 27.3287C235.359 26.6445 234.62 26.2061 234.62 26.2061C233.883 25.7678 232.788 25.3831 232.788 25.3831C231.693 25 230.381 24.5349 230.381 24.5349C229.067 24.0682 228 23.3287 228 23.3287C226.932 22.5893 226.14 21.4935 226.14 21.4935C225.346 20.3977 225.401 18.6445 225.401 18.6445Z" fill="#6C96F9"/>
</svg>
