<svg width="25" height="24" viewBox="0 0 25 24" fill="none" xmlns="http://www.w3.org/2000/svg">
<path d="M3.74705 4.76458L3.74735 4.76428C4.09071 4.41899 4.49593 4.25 4.97655 4.25H20.914C21.3946 4.25 21.8003 4.419 22.1443 4.76443C22.4877 5.10913 22.6562 5.51645 22.6562 6V18C22.6562 18.4835 22.4877 18.8912 22.1443 19.2366C21.8003 19.5813 21.3947 19.75 20.914 19.75H4.97655C4.49579 19.75 4.09052 19.5812 3.7472 19.2366C3.40309 18.8911 3.23438 18.4834 3.23438 18V6C3.23438 5.51659 3.40308 5.10932 3.74705 4.76458ZM21.164 8V7.54784L20.7811 7.78827L13.3374 12.4619C13.2745 12.4996 13.2093 12.5273 13.1413 12.5456L13.1413 12.5456L13.1392 12.5462C13.0671 12.5662 13.0027 12.575 12.9453 12.575C12.8878 12.575 12.8234 12.5662 12.7514 12.5462L12.7493 12.5456C12.6813 12.5273 12.6161 12.4996 12.5532 12.462L5.22655 7.86177V6.8V6.787V6.775H4.97655H4.72655V6.787V6.8V7.54784V8V8.25V18V18.25H4.97655H20.914H21.164V18V8ZM12.8124 11.2118L12.9453 11.2951L13.0781 11.2118L21.0469 6.21177L21.7828 5.75H20.914H4.97655H4.10775L4.84368 6.21177L12.8124 11.2118Z" fill="white" stroke="#474747" stroke-width="0.5"/>
</svg>
