<svg width="24" height="24" viewBox="0 0 24 24" fill="none" xmlns="http://www.w3.org/2000/svg">
<path d="M11.9535 4.47998C11.2009 4.47998 10.4653 4.70402 9.83952 5.12377C9.21378 5.54351 8.72608 6.14012 8.43808 6.83813C8.15009 7.53614 8.07473 8.30422 8.22155 9.04523C8.36837 9.78623 8.73077 10.4669 9.26292 11.0011C9.79506 11.5354 10.4731 11.8992 11.2112 12.0466C11.9493 12.194 12.7144 12.1183 13.4096 11.8292C14.1049 11.5401 14.6992 11.0505 15.1173 10.4223C15.5354 9.79406 15.7586 9.05551 15.7586 8.29998C15.7586 7.28685 15.3577 6.31522 14.6441 5.59883C13.9305 4.88244 12.9627 4.47998 11.9535 4.47998ZM11.9535 10.7866C11.4636 10.7866 10.9847 10.6408 10.5774 10.3676C10.1701 10.0943 9.85258 9.70597 9.6651 9.25159C9.47763 8.79721 9.42858 8.29722 9.52415 7.81486C9.61973 7.33249 9.85563 6.88941 10.202 6.54164C10.5484 6.19388 10.9898 5.95704 11.4703 5.86109C11.9508 5.76515 12.4488 5.81439 12.9014 6.0026C13.354 6.19081 13.7408 6.50953 14.013 6.91846C14.2852 7.32739 14.4304 7.80816 14.4304 8.29998C14.4287 8.95833 14.1669 9.58911 13.7026 10.054C13.2383 10.5189 12.6093 10.78 11.9535 10.78V10.7866Z" fill="white"/>
<path d="M11.9535 1.33325C9.88507 1.33499 7.90138 2.15838 6.43568 3.62358C4.96999 5.08879 4.14138 7.07674 4.13086 9.15325C4.13086 12.2666 5.8707 14.8733 7.14569 16.7733L7.37811 17.1199C8.64665 18.9657 10.0075 20.7457 11.4554 22.4533L11.9601 23.0466L12.4648 22.4533C13.9126 20.7456 15.2734 18.9655 16.5421 17.1199L16.7746 16.7666C18.0429 14.8666 19.7828 12.2666 19.7828 9.15325C19.7722 7.07559 18.9427 5.08663 17.4756 3.62123C16.0084 2.15584 14.0231 1.33323 11.9535 1.33325ZM15.6656 15.9999L15.4265 16.3533C14.2843 18.0733 12.7703 19.9999 11.9535 20.9533C11.1699 19.9999 9.62263 18.0733 8.48045 16.3533L8.24803 15.9999C7.07264 14.2399 5.45898 11.8333 5.45898 9.12659C5.45898 8.27037 5.62696 7.42253 5.95334 6.63149C6.27972 5.84045 6.75811 5.12169 7.36118 4.51625C7.96425 3.91081 8.68019 3.43055 9.46814 3.10289C10.2561 2.77523 11.1006 2.60659 11.9535 2.60659C12.8064 2.60659 13.6509 2.77523 14.4388 3.10289C15.2268 3.43055 15.9427 3.91081 16.5458 4.51625C17.1489 5.12169 17.6272 5.84045 17.9536 6.63149C18.28 7.42253 18.448 8.27037 18.448 9.12659C18.448 11.8599 16.841 14.2666 15.6656 15.9999Z" fill="white"/>
</svg>
