<svg width="88" height="89" viewBox="0 0 88 89" fill="none" xmlns="http://www.w3.org/2000/svg">
<path d="M57.9919 39.7286L57.9919 39.7286C57.6219 39.3601 57.4124 38.8606 57.4094 38.3383V38.0842C57.4114 37.5617 57.62 37.0613 57.9902 36.6925L57.9902 36.6925C58.3602 36.324 58.8617 36.1169 59.3841 36.1174H59.3844H59.6311C60.1529 36.1174 60.6527 36.3244 61.0215 36.6932L61.0215 36.6932C61.3903 37.062 61.5974 37.5624 61.5974 38.0836V38.3388C61.5958 38.8602 61.3883 39.3596 61.0199 39.728C60.6514 40.0965 60.152 40.3044 59.6308 40.3054C59.6307 40.3054 59.6306 40.3054 59.6306 40.3054H59.3849C59.3848 40.3054 59.3847 40.3054 59.3846 40.3054C58.8625 40.3044 58.3619 40.0972 57.9919 39.7286Z" fill="#6C96F9" stroke="#F5F8FF" stroke-width="0.6"/>
<mask id="path-2-inside-1_792_94127" fill="white">
<path d="M75.5862 32.5664C75.4291 32.5664 74.3628 32.5588 73.5546 32.5664C72.4193 30.7538 70.9967 29.1376 69.3423 27.7817C68.9735 27.4836 68.793 27.2248 68.7694 26.1503C68.7536 25.5539 68.793 24.9033 68.8241 24.2051C68.973 21.3266 69.177 17.3731 65.6081 15.3027C63.6078 14.1416 61.0745 14.2439 58.6819 15.585H58.683C56.5202 16.8204 54.6205 18.4667 53.0902 20.432C51.9138 20.2202 50.831 20.0791 49.7958 19.9926C42.1418 19.1621 34.4053 20.4117 27.4019 23.6086L27.3943 23.5851H27.3937C23.9894 25.1898 20.9742 27.5152 18.5569 30.3996C16.1397 33.2847 14.3773 36.6599 13.3931 40.2923C12.4963 40.4291 11.6626 40.834 11.0005 41.4534C9.93574 42.4453 9.43508 43.9023 9.66491 45.3391C9.8947 46.7759 10.8248 48.0042 12.1456 48.6148C12.1068 49.8541 12.1675 51.095 12.3262 52.3244C12.5932 54.4822 13.177 56.5887 14.0595 58.576C13.4259 58.5081 12.7869 58.5108 12.1533 58.5842C10.7051 58.6148 9.26993 58.8741 7.90204 59.3529C6.83458 59.6784 5.90329 60.3454 5.25114 61.2509L5 61.6744V71.3614L5.25114 71.7849C6.09045 73.2048 7.9337 73.7458 9.43185 74.0828C11.3589 74.5178 13.3466 74.6136 15.3069 74.3657C16.7968 74.2546 18.2489 73.841 19.5735 73.15C20.3723 73.5953 21.2346 73.9154 22.1308 74.0987C23.1004 74.3011 24.0895 74.3985 25.08 74.3892H35.0575C36.5195 74.3876 37.9349 73.8733 39.0571 72.936C40.1792 71.9988 40.937 70.6978 41.1991 69.2593H49.137C49.3137 70.3147 49.7705 71.3034 50.4583 72.1224C51.1466 72.9414 52.0417 73.5618 53.0506 73.918C54.4656 74.3443 55.945 74.5166 57.4195 74.428L64.228 74.4044C65.6559 74.5139 67.0829 74.1883 68.3227 73.471C69.3852 72.6957 70.132 71.5615 70.4248 70.279C70.7131 68.8652 70.8111 67.4197 70.7148 65.9803C74.1142 63.2457 76.527 59.4749 77.5857 55.2422C79.2654 54.8548 80.7619 53.9044 81.826 52.5491C82.8907 51.1933 83.4592 49.5142 83.4373 47.7906V40.4492C83.5073 38.3433 82.7036 36.3025 81.2165 34.8093C79.7295 33.3167 77.6919 32.5047 75.586 32.566L75.5862 32.5664ZM17.8087 70.0749C17.2517 70.4119 15.9106 70.9454 13.1728 70.9454C12.5731 70.9486 11.9734 70.9196 11.3765 70.8589C10.3797 70.8075 9.40524 70.5399 8.52156 70.0749V62.9604C9.40519 62.4954 10.3797 62.2278 11.3765 62.1759C11.9735 62.1157 12.5731 62.0867 13.1728 62.09C14.2326 62.0746 15.2901 62.1802 16.3259 62.4035C16.8474 62.5069 17.348 62.6951 17.8087 62.9605V70.0749ZM30.6176 70.8595C30.6176 70.8595 26.4917 70.8906 25.9817 70.8989C25.4718 70.8989 24.9542 70.8912 24.4442 70.8595V70.8589C23.4364 70.8239 22.4439 70.6007 21.5186 70.2002C21.4568 70.175 21.3966 70.146 21.3381 70.1143V52.2936C22.2195 51.8296 23.1907 51.5621 24.1853 51.5095C24.7817 51.4461 25.3814 51.4143 25.9816 51.4149C28.7271 51.4149 30.0681 51.956 30.6175 52.2936L30.6176 70.8595ZM79.9071 47.7681V47.7675C79.9246 48.7923 79.5558 49.7865 78.8741 50.5525C78.1929 51.3179 77.2481 51.7994 76.2281 51.9012L76.1263 51.9247C75.2252 51.9942 74.4926 52.6781 74.3612 53.5722C73.5564 57.5258 71.3536 61.0565 68.1567 63.518C67.4946 63.9973 67.122 64.7808 67.1685 65.5966L67.1762 65.9024C67.2741 67.0793 67.2134 68.2638 66.9962 69.4244C66.913 69.8654 66.6805 70.2648 66.3374 70.5537C65.6705 70.8404 64.9412 70.9509 64.2195 70.8754L57.3956 70.9066L57.3951 70.9072C56.3314 70.9788 55.2634 70.8727 54.2343 70.5931C53.7315 70.4142 53.2987 70.0799 52.9983 69.6384C52.698 69.1968 52.5458 68.6716 52.5639 68.1381C52.5623 67.4996 52.3078 66.8884 51.8564 66.437C51.4056 65.9856 50.7939 65.7312 50.1553 65.7301H40.186C39.5474 65.7301 38.9352 65.984 38.4833 66.4354C38.0319 66.8867 37.778 67.4995 37.778 68.138C37.7775 68.8597 37.4908 69.5518 36.9803 70.0622C36.4704 70.5722 35.7783 70.8594 35.0566 70.86H34.1468V51.0083L33.888 50.5848C33.5039 49.9573 31.8017 47.8946 25.9813 47.8946C25.3773 47.8946 24.8203 47.9181 24.2951 47.9575V47.9564C23.0717 48.0286 21.8646 48.2743 20.7102 48.6863C19.6427 49.008 18.7131 49.676 18.067 50.5843L17.8082 51.0078V58.2086C16.7588 56.2368 16.0831 54.0881 15.8155 51.8706C15.6114 50.3331 15.7684 45.7525 15.7684 45.7525L14.1369 45.5643C13.6193 45.5096 13.1171 45.1955 13.1329 44.6385C13.1411 44.4011 13.2462 44.1773 13.4235 44.0192C13.6319 43.8452 13.8967 43.7533 14.1687 43.7604H14.1998C14.7585 43.837 15.3247 43.6881 15.7739 43.3467C16.2226 43.0053 16.5169 42.4992 16.5924 41.9406C18.201 35.2688 22.7428 29.6831 28.9462 26.7476L29.1185 26.6611L29.1262 26.6535C35.5255 23.8734 42.5332 22.7901 49.4737 23.508C50.7217 23.6207 51.9627 23.7991 53.1915 24.0414C54.0291 24.2767 54.922 23.9397 55.3958 23.2098C56.7193 21.3545 58.4291 19.8077 60.4075 18.6763C61.1604 18.2369 62.6114 17.6411 63.8354 18.3545C65.4275 19.2803 65.4593 21.1154 65.3099 24.0333C65.2705 24.7549 65.2316 25.516 65.247 26.2218H65.2475C65.1501 27.8857 65.8592 29.4942 67.1531 30.5441C68.631 31.7768 69.8861 33.2547 70.8632 34.9129C71.0706 35.3063 71.3901 35.6291 71.7807 35.8414C72.172 36.0537 72.6168 36.1456 73.0594 36.1051C73.5535 36.0893 75.0203 36.0975 75.5614 36.0975L75.562 36.0969C76.7372 36.0214 77.8883 36.4559 78.7206 37.2891C79.5528 38.123 79.9856 39.2753 79.9073 40.4504C79.9073 40.4504 79.915 46.9214 79.9073 47.7684L79.9071 47.7681Z"/>
</mask>
<path d="M75.5862 32.5664C75.4291 32.5664 74.3628 32.5588 73.5546 32.5664C72.4193 30.7538 70.9967 29.1376 69.3423 27.7817C68.9735 27.4836 68.793 27.2248 68.7694 26.1503C68.7536 25.5539 68.793 24.9033 68.8241 24.2051C68.973 21.3266 69.177 17.3731 65.6081 15.3027C63.6078 14.1416 61.0745 14.2439 58.6819 15.585H58.683C56.5202 16.8204 54.6205 18.4667 53.0902 20.432C51.9138 20.2202 50.831 20.0791 49.7958 19.9926C42.1418 19.1621 34.4053 20.4117 27.4019 23.6086L27.3943 23.5851H27.3937C23.9894 25.1898 20.9742 27.5152 18.5569 30.3996C16.1397 33.2847 14.3773 36.6599 13.3931 40.2923C12.4963 40.4291 11.6626 40.834 11.0005 41.4534C9.93574 42.4453 9.43508 43.9023 9.66491 45.3391C9.8947 46.7759 10.8248 48.0042 12.1456 48.6148C12.1068 49.8541 12.1675 51.095 12.3262 52.3244C12.5932 54.4822 13.177 56.5887 14.0595 58.576C13.4259 58.5081 12.7869 58.5108 12.1533 58.5842C10.7051 58.6148 9.26993 58.8741 7.90204 59.3529C6.83458 59.6784 5.90329 60.3454 5.25114 61.2509L5 61.6744V71.3614L5.25114 71.7849C6.09045 73.2048 7.9337 73.7458 9.43185 74.0828C11.3589 74.5178 13.3466 74.6136 15.3069 74.3657C16.7968 74.2546 18.2489 73.841 19.5735 73.15C20.3723 73.5953 21.2346 73.9154 22.1308 74.0987C23.1004 74.3011 24.0895 74.3985 25.08 74.3892H35.0575C36.5195 74.3876 37.9349 73.8733 39.0571 72.936C40.1792 71.9988 40.937 70.6978 41.1991 69.2593H49.137C49.3137 70.3147 49.7705 71.3034 50.4583 72.1224C51.1466 72.9414 52.0417 73.5618 53.0506 73.918C54.4656 74.3443 55.945 74.5166 57.4195 74.428L64.228 74.4044C65.6559 74.5139 67.0829 74.1883 68.3227 73.471C69.3852 72.6957 70.132 71.5615 70.4248 70.279C70.7131 68.8652 70.8111 67.4197 70.7148 65.9803C74.1142 63.2457 76.527 59.4749 77.5857 55.2422C79.2654 54.8548 80.7619 53.9044 81.826 52.5491C82.8907 51.1933 83.4592 49.5142 83.4373 47.7906V40.4492C83.5073 38.3433 82.7036 36.3025 81.2165 34.8093C79.7295 33.3167 77.6919 32.5047 75.586 32.566L75.5862 32.5664ZM17.8087 70.0749C17.2517 70.4119 15.9106 70.9454 13.1728 70.9454C12.5731 70.9486 11.9734 70.9196 11.3765 70.8589C10.3797 70.8075 9.40524 70.5399 8.52156 70.0749V62.9604C9.40519 62.4954 10.3797 62.2278 11.3765 62.1759C11.9735 62.1157 12.5731 62.0867 13.1728 62.09C14.2326 62.0746 15.2901 62.1802 16.3259 62.4035C16.8474 62.5069 17.348 62.6951 17.8087 62.9605V70.0749ZM30.6176 70.8595C30.6176 70.8595 26.4917 70.8906 25.9817 70.8989C25.4718 70.8989 24.9542 70.8912 24.4442 70.8595V70.8589C23.4364 70.8239 22.4439 70.6007 21.5186 70.2002C21.4568 70.175 21.3966 70.146 21.3381 70.1143V52.2936C22.2195 51.8296 23.1907 51.5621 24.1853 51.5095C24.7817 51.4461 25.3814 51.4143 25.9816 51.4149C28.7271 51.4149 30.0681 51.956 30.6175 52.2936L30.6176 70.8595ZM79.9071 47.7681V47.7675C79.9246 48.7923 79.5558 49.7865 78.8741 50.5525C78.1929 51.3179 77.2481 51.7994 76.2281 51.9012L76.1263 51.9247C75.2252 51.9942 74.4926 52.6781 74.3612 53.5722C73.5564 57.5258 71.3536 61.0565 68.1567 63.518C67.4946 63.9973 67.122 64.7808 67.1685 65.5966L67.1762 65.9024C67.2741 67.0793 67.2134 68.2638 66.9962 69.4244C66.913 69.8654 66.6805 70.2648 66.3374 70.5537C65.6705 70.8404 64.9412 70.9509 64.2195 70.8754L57.3956 70.9066L57.3951 70.9072C56.3314 70.9788 55.2634 70.8727 54.2343 70.5931C53.7315 70.4142 53.2987 70.0799 52.9983 69.6384C52.698 69.1968 52.5458 68.6716 52.5639 68.1381C52.5623 67.4996 52.3078 66.8884 51.8564 66.437C51.4056 65.9856 50.7939 65.7312 50.1553 65.7301H40.186C39.5474 65.7301 38.9352 65.984 38.4833 66.4354C38.0319 66.8867 37.778 67.4995 37.778 68.138C37.7775 68.8597 37.4908 69.5518 36.9803 70.0622C36.4704 70.5722 35.7783 70.8594 35.0566 70.86H34.1468V51.0083L33.888 50.5848C33.5039 49.9573 31.8017 47.8946 25.9813 47.8946C25.3773 47.8946 24.8203 47.9181 24.2951 47.9575V47.9564C23.0717 48.0286 21.8646 48.2743 20.7102 48.6863C19.6427 49.008 18.7131 49.676 18.067 50.5843L17.8082 51.0078V58.2086C16.7588 56.2368 16.0831 54.0881 15.8155 51.8706C15.6114 50.3331 15.7684 45.7525 15.7684 45.7525L14.1369 45.5643C13.6193 45.5096 13.1171 45.1955 13.1329 44.6385C13.1411 44.4011 13.2462 44.1773 13.4235 44.0192C13.6319 43.8452 13.8967 43.7533 14.1687 43.7604H14.1998C14.7585 43.837 15.3247 43.6881 15.7739 43.3467C16.2226 43.0053 16.5169 42.4992 16.5924 41.9406C18.201 35.2688 22.7428 29.6831 28.9462 26.7476L29.1185 26.6611L29.1262 26.6535C35.5255 23.8734 42.5332 22.7901 49.4737 23.508C50.7217 23.6207 51.9627 23.7991 53.1915 24.0414C54.0291 24.2767 54.922 23.9397 55.3958 23.2098C56.7193 21.3545 58.4291 19.8077 60.4075 18.6763C61.1604 18.2369 62.6114 17.6411 63.8354 18.3545C65.4275 19.2803 65.4593 21.1154 65.3099 24.0333C65.2705 24.7549 65.2316 25.516 65.247 26.2218H65.2475C65.1501 27.8857 65.8592 29.4942 67.1531 30.5441C68.631 31.7768 69.8861 33.2547 70.8632 34.9129C71.0706 35.3063 71.3901 35.6291 71.7807 35.8414C72.172 36.0537 72.6168 36.1456 73.0594 36.1051C73.5535 36.0893 75.0203 36.0975 75.5614 36.0975L75.562 36.0969C76.7372 36.0214 77.8883 36.4559 78.7206 37.2891C79.5528 38.123 79.9856 39.2753 79.9073 40.4504C79.9073 40.4504 79.915 46.9214 79.9073 47.7684L79.9071 47.7681Z" fill="#6C96F9" stroke="#F5F8FF" stroke-width="1.2" mask="url(#path-2-inside-1_792_94127)"/>
</svg>
