<svg width="69" height="69" viewBox="0 0 69 69" fill="none" xmlns="http://www.w3.org/2000/svg">
<g clip-path="url(#clip0_792_94887)">
<mask id="path-1-inside-1_792_94887" fill="white">
<path fill-rule="evenodd" clip-rule="evenodd" d="M68.0348 64.2044L61.9116 42.2861V10.7001C61.9091 9.799 61.5415 8.93584 60.8897 8.29883C60.2378 7.66183 59.3546 7.3026 58.4326 7.30008H54.9534V1.63335C54.9534 1.33281 54.8313 1.04441 54.6138 0.831909C54.3964 0.619409 54.1013 0.5 53.7937 0.5H14.3638C13.7234 0.5 13.2041 1.00748 13.2041 1.63335V7.30008H9.72503C8.80296 7.30261 7.91973 7.66184 7.26791 8.29883C6.61609 8.93584 6.24852 9.799 6.24593 10.7001V42.2861L0.12283 64.2044C-0.162947 65.228 0.0560431 66.3233 0.716147 67.1663C1.37573 68.0087 2.4003 68.5019 3.48592 68.5H64.6718C65.7575 68.502 66.7821 68.0087 67.4416 67.1663C68.1017 66.3233 68.3207 65.2279 68.0349 64.2044H68.0348ZM37.7314 14.0988L52.6339 3.81933V24.3789L37.7314 14.0988ZM18.0158 25.4323L32.4305 15.4817L33.4049 16.1617C33.8098 16.4339 34.3451 16.4339 34.7499 16.1617L35.7243 15.4817L50.1402 25.4323H18.0158ZM50.1402 2.76538L34.078 13.8494L18.0158 2.76538H50.1402ZM15.5227 3.81929L30.4252 14.0988L15.5227 24.3783V3.81929ZM8.56451 10.6988C8.56451 10.0729 9.0838 9.56542 9.72422 9.56542H13.2033V26.5656C13.2033 26.8662 13.3255 27.1546 13.543 27.3671C13.7604 27.5796 14.0555 27.699 14.363 27.699H53.7929C54.1005 27.699 54.3956 27.5796 54.613 27.3671C54.8305 27.1546 54.9526 26.8662 54.9526 26.5656V9.56542H58.4317C58.7393 9.56542 59.0344 9.68483 59.2518 9.89733C59.4693 10.1098 59.5914 10.3982 59.5914 10.6988V41.2991H8.56451V10.6988ZM65.5981 65.7911C65.378 66.0739 65.0337 66.2378 64.6703 66.2333H3.48435C3.12091 66.2378 2.77663 66.0739 2.55659 65.7911C2.33708 65.5107 2.26408 65.146 2.35933 64.8054L8.28522 43.5659H59.8688L65.7947 64.8054C65.89 65.146 65.817 65.5107 65.5974 65.7911H65.5981ZM44.4839 58.0251C44.3549 57.5202 43.8911 57.166 43.3588 57.166H24.8036C24.2714 57.166 23.8075 57.5202 23.6786 58.0251L22.5189 62.5585C22.4324 62.897 22.5106 63.2552 22.7301 63.5305C22.9501 63.8052 23.2872 63.9661 23.6439 63.9661H44.5185C44.8752 63.9661 45.2123 63.8052 45.4323 63.5305C45.6518 63.2552 45.73 62.897 45.6436 62.5585L44.4839 58.0251ZM25.1294 61.6994L25.7093 59.4327H42.454L43.0339 61.6994H25.1294ZM39.8783 36.7656H28.2813V39.0323H39.8783V36.7656ZM10.8828 45.8325H15.5216V48.0992H10.8828V45.8325ZM22.4826 45.8325H17.8438V48.0992H22.4826V45.8325ZM24.8008 45.8325H29.4396V48.0992H24.8008V45.8325ZM43.3537 45.8325H38.7148V48.0992H43.3537V45.8325ZM45.6797 45.8325H50.3185V48.0992H45.6797V45.8325ZM57.2718 45.8327H52.6329V48.0994H57.2718V45.8327ZM31.7617 45.8325H36.4005V48.0992H31.7617V45.8325ZM15.5216 50.3662H10.8828V52.6329H15.5216V50.3662ZM17.8438 50.3662H22.4826V52.6329H17.8438V50.3662ZM29.4396 50.3662H24.8008V52.6329H29.4396V50.3662ZM38.7148 50.3662H43.3537V52.6329H38.7148V50.3662ZM50.3185 50.3662H45.6797V52.6329H50.3185V50.3662ZM52.6329 50.366H57.2718V52.6327H52.6329V50.366ZM36.4005 50.3662H31.7617V52.6329H36.4005V50.3662Z"/>
</mask>
<path fill-rule="evenodd" clip-rule="evenodd" d="M68.0348 64.2044L61.9116 42.2861V10.7001C61.9091 9.799 61.5415 8.93584 60.8897 8.29883C60.2378 7.66183 59.3546 7.3026 58.4326 7.30008H54.9534V1.63335C54.9534 1.33281 54.8313 1.04441 54.6138 0.831909C54.3964 0.619409 54.1013 0.5 53.7937 0.5H14.3638C13.7234 0.5 13.2041 1.00748 13.2041 1.63335V7.30008H9.72503C8.80296 7.30261 7.91973 7.66184 7.26791 8.29883C6.61609 8.93584 6.24852 9.799 6.24593 10.7001V42.2861L0.12283 64.2044C-0.162947 65.228 0.0560431 66.3233 0.716147 67.1663C1.37573 68.0087 2.4003 68.5019 3.48592 68.5H64.6718C65.7575 68.502 66.7821 68.0087 67.4416 67.1663C68.1017 66.3233 68.3207 65.2279 68.0349 64.2044H68.0348ZM37.7314 14.0988L52.6339 3.81933V24.3789L37.7314 14.0988ZM18.0158 25.4323L32.4305 15.4817L33.4049 16.1617C33.8098 16.4339 34.3451 16.4339 34.7499 16.1617L35.7243 15.4817L50.1402 25.4323H18.0158ZM50.1402 2.76538L34.078 13.8494L18.0158 2.76538H50.1402ZM15.5227 3.81929L30.4252 14.0988L15.5227 24.3783V3.81929ZM8.56451 10.6988C8.56451 10.0729 9.0838 9.56542 9.72422 9.56542H13.2033V26.5656C13.2033 26.8662 13.3255 27.1546 13.543 27.3671C13.7604 27.5796 14.0555 27.699 14.363 27.699H53.7929C54.1005 27.699 54.3956 27.5796 54.613 27.3671C54.8305 27.1546 54.9526 26.8662 54.9526 26.5656V9.56542H58.4317C58.7393 9.56542 59.0344 9.68483 59.2518 9.89733C59.4693 10.1098 59.5914 10.3982 59.5914 10.6988V41.2991H8.56451V10.6988ZM65.5981 65.7911C65.378 66.0739 65.0337 66.2378 64.6703 66.2333H3.48435C3.12091 66.2378 2.77663 66.0739 2.55659 65.7911C2.33708 65.5107 2.26408 65.146 2.35933 64.8054L8.28522 43.5659H59.8688L65.7947 64.8054C65.89 65.146 65.817 65.5107 65.5974 65.7911H65.5981ZM44.4839 58.0251C44.3549 57.5202 43.8911 57.166 43.3588 57.166H24.8036C24.2714 57.166 23.8075 57.5202 23.6786 58.0251L22.5189 62.5585C22.4324 62.897 22.5106 63.2552 22.7301 63.5305C22.9501 63.8052 23.2872 63.9661 23.6439 63.9661H44.5185C44.8752 63.9661 45.2123 63.8052 45.4323 63.5305C45.6518 63.2552 45.73 62.897 45.6436 62.5585L44.4839 58.0251ZM25.1294 61.6994L25.7093 59.4327H42.454L43.0339 61.6994H25.1294ZM39.8783 36.7656H28.2813V39.0323H39.8783V36.7656ZM10.8828 45.8325H15.5216V48.0992H10.8828V45.8325ZM22.4826 45.8325H17.8438V48.0992H22.4826V45.8325ZM24.8008 45.8325H29.4396V48.0992H24.8008V45.8325ZM43.3537 45.8325H38.7148V48.0992H43.3537V45.8325ZM45.6797 45.8325H50.3185V48.0992H45.6797V45.8325ZM57.2718 45.8327H52.6329V48.0994H57.2718V45.8327ZM31.7617 45.8325H36.4005V48.0992H31.7617V45.8325ZM15.5216 50.3662H10.8828V52.6329H15.5216V50.3662ZM17.8438 50.3662H22.4826V52.6329H17.8438V50.3662ZM29.4396 50.3662H24.8008V52.6329H29.4396V50.3662ZM38.7148 50.3662H43.3537V52.6329H38.7148V50.3662ZM50.3185 50.3662H45.6797V52.6329H50.3185V50.3662ZM52.6329 50.366H57.2718V52.6327H52.6329V50.366ZM36.4005 50.3662H31.7617V52.6329H36.4005V50.3662Z" fill="#6C96F9"/>
<path d="M61.9116 42.2861H61.7116V42.3136L61.719 42.34L61.9116 42.2861ZM68.0348 64.2044L67.8421 64.2582L67.883 64.4044H68.0348V64.2044ZM61.9116 10.7001H62.1116V10.6995L61.9116 10.7001ZM60.8897 8.29883L61.0295 8.1558L61.0295 8.1558L60.8897 8.29883ZM58.4326 7.30008L58.4331 7.10008H58.4326V7.30008ZM54.9534 7.30008H54.7534V7.50008H54.9534V7.30008ZM54.6138 0.831909L54.7536 0.688871V0.68887L54.6138 0.831909ZM13.2041 7.30008V7.50008H13.4041V7.30008H13.2041ZM9.72503 7.30008V7.10008L9.72448 7.10008L9.72503 7.30008ZM7.26791 8.29883L7.12813 8.1558L7.12813 8.1558L7.26791 8.29883ZM6.24593 10.7001L6.04593 10.6995V10.7001H6.24593ZM6.24593 42.2861L6.43856 42.34L6.44593 42.3136V42.2861H6.24593ZM0.12283 64.2044L-0.0697948 64.1506L-0.0698027 64.1506L0.12283 64.2044ZM0.716147 67.1663L0.873621 67.043L0.873612 67.043L0.716147 67.1663ZM3.48592 68.5V68.3H3.48556L3.48592 68.5ZM64.6718 68.5L64.6722 68.3H64.6718V68.5ZM67.4416 67.1663L67.2842 67.043L67.2841 67.043L67.4416 67.1663ZM68.0349 64.2044L68.2276 64.1506L68.1868 64.0044H68.0349V64.2044ZM52.6339 3.81933H52.8339V3.43841L52.5203 3.6547L52.6339 3.81933ZM37.7314 14.0988L37.6178 13.9342L37.3792 14.0988L37.6178 14.2635L37.7314 14.0988ZM52.6339 24.3789L52.5203 24.5435L52.8339 24.7598V24.3789H52.6339ZM32.4305 15.4817L32.545 15.3176L32.4312 15.2382L32.3169 15.3171L32.4305 15.4817ZM18.0158 25.4323L17.9021 25.2677L17.374 25.6323H18.0158V25.4323ZM33.4049 16.1617L33.2904 16.3257L33.2933 16.3276L33.4049 16.1617ZM34.7499 16.1617L34.8615 16.3277L34.8644 16.3257L34.7499 16.1617ZM35.7243 15.4817L35.8379 15.3171L35.7236 15.2382L35.6098 15.3176L35.7243 15.4817ZM50.1402 25.4323V25.6323H50.782L50.2538 25.2677L50.1402 25.4323ZM34.078 13.8494L33.9644 14.014L34.078 14.0924L34.1916 14.014L34.078 13.8494ZM50.1402 2.76538L50.2538 2.93L50.7822 2.56538H50.1402V2.76538ZM18.0158 2.76538V2.56538H17.3738L17.9022 2.93L18.0158 2.76538ZM30.4252 14.0988L30.5388 14.2634L30.7775 14.0988L30.5388 13.9342L30.4252 14.0988ZM15.5227 3.81929L15.6363 3.65466L15.3227 3.43837V3.81929H15.5227ZM15.5227 24.3783H15.3227V24.7592L15.6363 24.543L15.5227 24.3783ZM13.2033 9.56542H13.4033V9.36542H13.2033V9.56542ZM54.9526 9.56542V9.36542H54.7526V9.56542H54.9526ZM59.2518 9.89733L59.3916 9.7543L59.3916 9.7543L59.2518 9.89733ZM59.5914 41.2991V41.4991H59.7915V41.2991H59.5914ZM8.56451 41.2991H8.36451V41.4991H8.56451V41.2991ZM64.6703 66.2333L64.6728 66.0333H64.6703V66.2333ZM65.5981 65.7911L65.7559 65.9139L66.007 65.5911H65.5981V65.7911ZM3.48435 66.2333V66.0333L3.48185 66.0333L3.48435 66.2333ZM2.55659 65.7911L2.71444 65.6683L2.71405 65.6678L2.55659 65.7911ZM2.35933 64.8054L2.55194 64.8593L2.55198 64.8592L2.35933 64.8054ZM8.28522 43.5659V43.3659H8.13338L8.09258 43.5121L8.28522 43.5659ZM59.8688 43.5659L60.0615 43.5121L60.0206 43.3659H59.8688V43.5659ZM65.7947 64.8054L65.6021 64.8592L65.6021 64.8593L65.7947 64.8054ZM65.5974 65.7911L65.44 65.6677L65.1868 65.9911H65.5974V65.7911ZM44.4839 58.0251L44.2901 58.0746L44.2901 58.0747L44.4839 58.0251ZM23.6786 58.0251L23.8723 58.0747L23.8724 58.0746L23.6786 58.0251ZM22.5189 62.5585L22.3251 62.5089L22.3251 62.509L22.5189 62.5585ZM22.7301 63.5305L22.5737 63.6552L22.574 63.6555L22.7301 63.5305ZM45.4323 63.5305L45.5884 63.6555L45.5887 63.6552L45.4323 63.5305ZM45.6436 62.5585L45.8373 62.509L45.8373 62.5089L45.6436 62.5585ZM25.7093 59.4327V59.2327H25.554L25.5155 59.3831L25.7093 59.4327ZM25.1294 61.6994L24.9356 61.6498L24.8718 61.8994H25.1294V61.6994ZM42.454 59.4327L42.6478 59.3831L42.6093 59.2327H42.454V59.4327ZM43.0339 61.6994V61.8994H43.2915L43.2276 61.6498L43.0339 61.6994ZM28.2813 36.7656V36.5656H28.0812V36.7656H28.2813ZM39.8783 36.7656H40.0783V36.5656H39.8783V36.7656ZM28.2813 39.0323H28.0812V39.2323H28.2813V39.0323ZM39.8783 39.0323V39.2323H40.0783V39.0323H39.8783ZM15.5216 45.8325H15.7216V45.6325H15.5216V45.8325ZM10.8828 45.8325V45.6325H10.6828V45.8325H10.8828ZM15.5216 48.0992V48.2992H15.7216V48.0992H15.5216ZM10.8828 48.0992H10.6828V48.2992H10.8828V48.0992ZM17.8438 45.8325V45.6325H17.6437V45.8325H17.8438ZM22.4826 45.8325H22.6826V45.6325H22.4826V45.8325ZM17.8438 48.0992H17.6437V48.2992H17.8438V48.0992ZM22.4826 48.0992V48.2992H22.6826V48.0992H22.4826ZM29.4396 45.8325H29.6396V45.6325H29.4396V45.8325ZM24.8008 45.8325V45.6325H24.6008V45.8325H24.8008ZM29.4396 48.0992V48.2992H29.6396V48.0992H29.4396ZM24.8008 48.0992H24.6008V48.2992H24.8008V48.0992ZM38.7148 45.8325V45.6325H38.5148V45.8325H38.7148ZM43.3537 45.8325H43.5537V45.6325H43.3537V45.8325ZM38.7148 48.0992H38.5148V48.2992H38.7148V48.0992ZM43.3537 48.0992V48.2992H43.5537V48.0992H43.3537ZM50.3185 45.8325H50.5185V45.6325H50.3185V45.8325ZM45.6797 45.8325V45.6325H45.4797V45.8325H45.6797ZM50.3185 48.0992V48.2992H50.5185V48.0992H50.3185ZM45.6797 48.0992H45.4797V48.2992H45.6797V48.0992ZM52.6329 45.8327V45.6327H52.4329V45.8327H52.6329ZM57.2718 45.8327H57.4718V45.6327H57.2718V45.8327ZM52.6329 48.0994H52.4329V48.2994H52.6329V48.0994ZM57.2718 48.0994V48.2994H57.4718V48.0994H57.2718ZM36.4005 45.8325H36.6005V45.6325H36.4005V45.8325ZM31.7617 45.8325V45.6325H31.5617V45.8325H31.7617ZM36.4005 48.0992V48.2992H36.6005V48.0992H36.4005ZM31.7617 48.0992H31.5617V48.2992H31.7617V48.0992ZM10.8828 50.3662V50.1662H10.6828V50.3662H10.8828ZM15.5216 50.3662H15.7216V50.1662H15.5216V50.3662ZM10.8828 52.6329H10.6828V52.8329H10.8828V52.6329ZM15.5216 52.6329V52.8329H15.7216V52.6329H15.5216ZM22.4826 50.3662H22.6826V50.1662H22.4826V50.3662ZM17.8438 50.3662V50.1662H17.6437V50.3662H17.8438ZM22.4826 52.6329V52.8329H22.6826V52.6329H22.4826ZM17.8438 52.6329H17.6437V52.8329H17.8438V52.6329ZM24.8008 50.3662V50.1662H24.6008V50.3662H24.8008ZM29.4396 50.3662H29.6396V50.1662H29.4396V50.3662ZM24.8008 52.6329H24.6008V52.8329H24.8008V52.6329ZM29.4396 52.6329V52.8329H29.6396V52.6329H29.4396ZM43.3537 50.3662H43.5537V50.1662H43.3537V50.3662ZM38.7148 50.3662V50.1662H38.5148V50.3662H38.7148ZM43.3537 52.6329V52.8329H43.5537V52.6329H43.3537ZM38.7148 52.6329H38.5148V52.8329H38.7148V52.6329ZM45.6797 50.3662V50.1662H45.4797V50.3662H45.6797ZM50.3185 50.3662H50.5185V50.1662H50.3185V50.3662ZM45.6797 52.6329H45.4797V52.8329H45.6797V52.6329ZM50.3185 52.6329V52.8329H50.5185V52.6329H50.3185ZM57.2718 50.366H57.4718V50.166H57.2718V50.366ZM52.6329 50.366V50.166H52.4329V50.366H52.6329ZM57.2718 52.6327V52.8327H57.4718V52.6327H57.2718ZM52.6329 52.6327H52.4329V52.8327H52.6329V52.6327ZM31.7617 50.3662V50.1662H31.5617V50.3662H31.7617ZM36.4005 50.3662H36.6005V50.1662H36.4005V50.3662ZM31.7617 52.6329H31.5617V52.8329H31.7617V52.6329ZM36.4005 52.6329V52.8329H36.6005V52.6329H36.4005ZM61.719 42.34L67.8421 64.2582L68.2274 64.1506L62.1043 42.2323L61.719 42.34ZM61.7116 10.7001V42.2861H62.1116V10.7001H61.7116ZM60.7499 8.44187C61.3639 9.0419 61.7092 9.85395 61.7116 10.7007L62.1116 10.6995C62.1089 9.74404 61.7191 8.82978 61.0295 8.1558L60.7499 8.44187ZM58.432 7.50008C59.3026 7.50246 60.1357 7.84169 60.7499 8.44187L61.0295 8.1558C60.34 7.48197 59.4066 7.10275 58.4331 7.10008L58.432 7.50008ZM54.9534 7.50008H58.4326V7.10008H54.9534V7.50008ZM54.7534 1.63335V7.30008H55.1534V1.63335H54.7534ZM54.474 0.974946C54.6535 1.15029 54.7534 1.38733 54.7534 1.63335H55.1534C55.1534 1.27829 55.0091 0.938523 54.7536 0.688871L54.474 0.974946ZM53.7937 0.7C54.0497 0.7 54.2944 0.799445 54.474 0.974947L54.7536 0.68887C54.4983 0.439374 54.1528 0.3 53.7937 0.3V0.7ZM14.3638 0.7H53.7937V0.3H14.3638V0.7ZM13.4041 1.63335C13.4041 1.12225 13.8295 0.7 14.3638 0.7V0.3C13.6173 0.3 13.0041 0.892714 13.0041 1.63335H13.4041ZM13.4041 7.30008V1.63335H13.0041V7.30008H13.4041ZM9.72503 7.50008H13.2041V7.10008H9.72503V7.50008ZM7.4077 8.44187C8.02184 7.8417 8.85494 7.50247 9.72557 7.50008L9.72448 7.10008C8.75099 7.10275 7.81763 7.48198 7.12813 8.1558L7.4077 8.44187ZM6.44593 10.7007C6.44836 9.85395 6.79371 9.0419 7.4077 8.44187L7.12813 8.1558C6.43847 8.82978 6.04867 9.74404 6.04593 10.6995L6.44593 10.7007ZM6.44593 42.2861V10.7001H6.04593V42.2861H6.44593ZM0.315455 64.2582L6.43856 42.34L6.05331 42.2323L-0.0697948 64.1506L0.315455 64.2582ZM0.873612 67.043C0.252435 66.2497 0.046916 65.22 0.315463 64.2582L-0.0698027 64.1506C-0.372811 65.2359 -0.140349 66.3969 0.558683 67.2896L0.873612 67.043ZM3.48556 68.3C2.46048 68.3018 1.49456 67.836 0.873621 67.043L0.558674 67.2896C1.25691 68.1813 2.34012 68.702 3.48627 68.7L3.48556 68.3ZM64.6718 68.3H3.48592V68.7H64.6718V68.3ZM67.2841 67.043C66.6633 67.836 65.6973 68.3019 64.6722 68.3L64.6715 68.7C65.8177 68.7021 66.9009 68.1814 67.5991 67.2896L67.2841 67.043ZM67.8423 64.2582C68.1109 65.22 67.9053 66.2497 67.2842 67.043L67.5991 67.2896C68.2981 66.3969 68.5306 65.2358 68.2276 64.1506L67.8423 64.2582ZM68.0348 64.4044H68.0349V64.0044H68.0348V64.4044ZM52.5203 3.6547L37.6178 13.9342L37.8449 14.2635L52.7475 3.98396L52.5203 3.6547ZM52.8339 24.3789V3.81933H52.4339V24.3789H52.8339ZM37.6178 14.2635L52.5203 24.5435L52.7475 24.2143L37.8449 13.9342L37.6178 14.2635ZM32.3169 15.3171L17.9021 25.2677L18.1294 25.5969L32.5442 15.6462L32.3169 15.3171ZM33.5194 15.9977L32.545 15.3176L32.3161 15.6457L33.2904 16.3257L33.5194 15.9977ZM34.6383 15.9957C34.301 16.2225 33.8539 16.2225 33.5165 15.9957L33.2933 16.3276C33.7656 16.6452 34.3892 16.6452 34.8615 16.3276L34.6383 15.9957ZM35.6098 15.3176L34.6354 15.9977L34.8644 16.3257L35.8387 15.6457L35.6098 15.3176ZM50.2538 25.2677L35.8379 15.3171L35.6106 15.6463L50.0266 25.5969L50.2538 25.2677ZM18.0158 25.6323H50.1402V25.2323H18.0158V25.6323ZM34.1916 14.014L50.2538 2.93L50.0266 2.60077L33.9644 13.6848L34.1916 14.014ZM17.9022 2.93L33.9644 14.014L34.1916 13.6848L18.1294 2.60077L17.9022 2.93ZM50.1402 2.56538H18.0158V2.96538H50.1402V2.56538ZM30.5388 13.9342L15.6363 3.65466L15.4092 3.98393L30.3117 14.2634L30.5388 13.9342ZM15.6363 24.543L30.5388 14.2634L30.3117 13.9342L15.4092 24.2137L15.6363 24.543ZM15.3227 3.81929V24.3783H15.7227V3.81929H15.3227ZM9.72422 9.36542C8.9777 9.36542 8.36451 9.95814 8.36451 10.6988H8.76451C8.76451 10.1877 9.18989 9.76542 9.72422 9.76542V9.36542ZM13.2033 9.36542H9.72422V9.76542H13.2033V9.36542ZM13.4033 26.5656V9.56542H13.0033V26.5656H13.4033ZM13.6827 27.224C13.5033 27.0487 13.4033 26.8116 13.4033 26.5656H13.0033C13.0033 26.9207 13.1477 27.2604 13.4032 27.5101L13.6827 27.224ZM14.363 27.499C14.1071 27.499 13.8623 27.3995 13.6827 27.224L13.4032 27.5101C13.6585 27.7596 14.0039 27.899 14.363 27.899V27.499ZM53.7929 27.499H14.363V27.899H53.7929V27.499ZM54.4732 27.224C54.2936 27.3995 54.0489 27.499 53.7929 27.499V27.899C54.152 27.899 54.4975 27.7596 54.7528 27.5101L54.4732 27.224ZM54.7526 26.5656C54.7526 26.8116 54.6526 27.0487 54.4732 27.224L54.7528 27.5101C55.0083 27.2604 55.1526 26.9207 55.1526 26.5656H54.7526ZM54.7526 9.56542V26.5656H55.1526V9.56542H54.7526ZM58.4317 9.36542H54.9526V9.76542H58.4317V9.36542ZM59.3916 9.7543C59.1363 9.50479 58.7908 9.36542 58.4317 9.36542V9.76542C58.6877 9.76542 58.9325 9.86487 59.112 10.0404L59.3916 9.7543ZM59.7915 10.6988C59.7915 10.3437 59.6471 10.0039 59.3916 9.7543L59.112 10.0404C59.2915 10.2157 59.3914 10.4528 59.3914 10.6988H59.7915ZM59.7915 41.2991V10.6988H59.3914V41.2991H59.7915ZM8.56451 41.4991H59.5914V41.0991H8.56451V41.4991ZM8.36451 10.6988V41.2991H8.76451V10.6988H8.36451ZM64.6678 66.4333C65.0927 66.4386 65.4967 66.247 65.7559 65.9139L65.4402 65.6683C65.2593 65.9008 64.9748 66.0371 64.6728 66.0333L64.6678 66.4333ZM3.48435 66.4333H64.6703V66.0333H3.48435V66.4333ZM2.39874 65.9139C2.65791 66.247 3.06199 66.4386 3.48685 66.4333L3.48185 66.0333C3.17983 66.0371 2.89534 65.9008 2.71444 65.6683L2.39874 65.9139ZM2.16673 64.7516C2.05419 65.1539 2.1407 65.5844 2.39913 65.9144L2.71405 65.6678C2.53346 65.4371 2.47397 65.138 2.55194 64.8593L2.16673 64.7516ZM8.09258 43.5121L2.16669 64.7517L2.55198 64.8592L8.47786 43.6196L8.09258 43.5121ZM59.8688 43.3659H8.28522V43.7659H59.8688V43.3659ZM65.9873 64.7517L60.0615 43.5121L59.6762 43.6196L65.6021 64.8592L65.9873 64.7517ZM65.7549 65.9144C66.0134 65.5844 66.0998 65.1539 65.9873 64.7516L65.6021 64.8593C65.6801 65.138 65.6206 65.4371 65.44 65.6677L65.7549 65.9144ZM65.5981 65.5911H65.5974V65.9911H65.5981V65.5911ZM43.3588 57.366C43.8025 57.366 44.1844 57.6609 44.2901 58.0746L44.6776 57.9757C44.5254 57.3795 43.9796 56.966 43.3588 56.966V57.366ZM24.8036 57.366H43.3588V56.966H24.8036V57.366ZM23.8724 58.0746C23.978 57.6609 24.36 57.366 24.8036 57.366V56.966C24.1828 56.966 23.637 57.3795 23.4848 57.9757L23.8724 58.0746ZM22.7126 62.6081L23.8723 58.0747L23.4848 57.9756L22.3251 62.5089L22.7126 62.6081ZM22.8865 63.4058C22.7055 63.1789 22.6419 62.885 22.7126 62.608L22.3251 62.509C22.2229 62.909 22.3156 63.3316 22.5737 63.6552L22.8865 63.4058ZM23.6439 63.7661C23.3471 63.7661 23.0678 63.6321 22.8862 63.4054L22.574 63.6555C22.8325 63.9782 23.2273 64.1661 23.6439 64.1661V63.7661ZM44.5185 63.7661H23.6439V64.1661H44.5185V63.7661ZM45.2762 63.4054C45.0947 63.6321 44.8153 63.7661 44.5185 63.7661V64.1661C44.9352 64.1661 45.3299 63.9782 45.5884 63.6555L45.2762 63.4054ZM45.4498 62.608C45.5205 62.885 45.4569 63.1789 45.276 63.4058L45.5887 63.6552C45.8468 63.3316 45.9395 62.909 45.8373 62.509L45.4498 62.608ZM44.2901 58.0747L45.4498 62.6081L45.8373 62.5089L44.6776 57.9756L44.2901 58.0747ZM25.5155 59.3831L24.9356 61.6498L25.3232 61.7489L25.903 59.4823L25.5155 59.3831ZM42.454 59.2327H25.7093V59.6327H42.454V59.2327ZM43.2276 61.6498L42.6478 59.3831L42.2603 59.4823L42.8401 61.7489L43.2276 61.6498ZM25.1294 61.8994H43.0339V61.4994H25.1294V61.8994ZM28.2813 36.9656H39.8783V36.5656H28.2813V36.9656ZM28.4813 39.0323V36.7656H28.0812V39.0323H28.4813ZM39.8783 38.8323H28.2813V39.2323H39.8783V38.8323ZM39.6783 36.7656V39.0323H40.0783V36.7656H39.6783ZM15.5216 45.6325H10.8828V46.0325H15.5216V45.6325ZM15.7216 48.0992V45.8325H15.3216V48.0992H15.7216ZM10.8828 48.2992H15.5216V47.8992H10.8828V48.2992ZM10.6828 45.8325V48.0992H11.0828V45.8325H10.6828ZM17.8438 46.0325H22.4826V45.6325H17.8438V46.0325ZM18.0438 48.0992V45.8325H17.6437V48.0992H18.0438ZM22.4826 47.8992H17.8438V48.2992H22.4826V47.8992ZM22.2826 45.8325V48.0992H22.6826V45.8325H22.2826ZM29.4396 45.6325H24.8008V46.0325H29.4396V45.6325ZM29.6396 48.0992V45.8325H29.2396V48.0992H29.6396ZM24.8008 48.2992H29.4396V47.8992H24.8008V48.2992ZM24.6008 45.8325V48.0992H25.0008V45.8325H24.6008ZM38.7148 46.0325H43.3537V45.6325H38.7148V46.0325ZM38.9148 48.0992V45.8325H38.5148V48.0992H38.9148ZM43.3537 47.8992H38.7148V48.2992H43.3537V47.8992ZM43.1537 45.8325V48.0992H43.5537V45.8325H43.1537ZM50.3185 45.6325H45.6797V46.0325H50.3185V45.6325ZM50.5185 48.0992V45.8325H50.1185V48.0992H50.5185ZM45.6797 48.2992H50.3185V47.8992H45.6797V48.2992ZM45.4797 45.8325V48.0992H45.8797V45.8325H45.4797ZM52.6329 46.0327H57.2718V45.6327H52.6329V46.0327ZM52.833 48.0994V45.8327H52.4329V48.0994H52.833ZM57.2718 47.8994H52.6329V48.2994H57.2718V47.8994ZM57.0718 45.8327V48.0994H57.4718V45.8327H57.0718ZM36.4005 45.6325H31.7617V46.0325H36.4005V45.6325ZM36.6005 48.0992V45.8325H36.2005V48.0992H36.6005ZM31.7617 48.2992H36.4005V47.8992H31.7617V48.2992ZM31.5617 45.8325V48.0992H31.9617V45.8325H31.5617ZM10.8828 50.5662H15.5216V50.1662H10.8828V50.5662ZM11.0828 52.6329V50.3662H10.6828V52.6329H11.0828ZM15.5216 52.4329H10.8828V52.8329H15.5216V52.4329ZM15.3216 50.3662V52.6329H15.7216V50.3662H15.3216ZM22.4826 50.1662H17.8438V50.5662H22.4826V50.1662ZM22.6826 52.6329V50.3662H22.2826V52.6329H22.6826ZM17.8438 52.8329H22.4826V52.4329H17.8438V52.8329ZM17.6437 50.3662V52.6329H18.0438V50.3662H17.6437ZM24.8008 50.5662H29.4396V50.1662H24.8008V50.5662ZM25.0008 52.6329V50.3662H24.6008V52.6329H25.0008ZM29.4396 52.4329H24.8008V52.8329H29.4396V52.4329ZM29.2396 50.3662V52.6329H29.6396V50.3662H29.2396ZM43.3537 50.1662H38.7148V50.5662H43.3537V50.1662ZM43.5537 52.6329V50.3662H43.1537V52.6329H43.5537ZM38.7148 52.8329H43.3537V52.4329H38.7148V52.8329ZM38.5148 50.3662V52.6329H38.9148V50.3662H38.5148ZM45.6797 50.5662H50.3185V50.1662H45.6797V50.5662ZM45.8797 52.6329V50.3662H45.4797V52.6329H45.8797ZM50.3185 52.4329H45.6797V52.8329H50.3185V52.4329ZM50.1185 50.3662V52.6329H50.5185V50.3662H50.1185ZM57.2718 50.166H52.6329V50.566H57.2718V50.166ZM57.4718 52.6327V50.366H57.0718V52.6327H57.4718ZM52.6329 52.8327H57.2718V52.4327H52.6329V52.8327ZM52.4329 50.366V52.6327H52.833V50.366H52.4329ZM31.7617 50.5662H36.4005V50.1662H31.7617V50.5662ZM31.9617 52.6329V50.3662H31.5617V52.6329H31.9617ZM36.4005 52.4329H31.7617V52.8329H36.4005V52.4329ZM36.2005 50.3662V52.6329H36.6005V50.3662H36.2005Z" fill="#F5F8FF" mask="url(#path-1-inside-1_792_94887)"/>
</g>
<defs>
<clipPath id="clip0_792_94887">
<rect width="69" height="68" fill="white" transform="translate(0 0.5)"/>
</clipPath>
</defs>
</svg>
