<svg width="74" height="64" viewBox="0 0 74 64" fill="none" xmlns="http://www.w3.org/2000/svg">
<g clip-path="url(#clip0_792_94883)">
<mask id="path-1-inside-1_792_94883" fill="white">
<path fill-rule="evenodd" clip-rule="evenodd" d="M5.1035 23.1799H3.82764C2.81208 23.1799 1.83861 23.5782 1.1215 24.2875C0.403259 24.9957 0 25.957 0 26.96V59.7199C0 60.7228 0.403259 61.6842 1.1215 62.3924C1.83861 63.1017 2.81205 63.4999 3.82764 63.4999H17.8621C18.8776 63.4999 19.8511 63.1017 20.5682 62.3924C21.2865 61.6842 21.6897 60.7229 21.6897 59.7199V43.3399H31.7012L30.7905 49.6399H26.7931C25.7776 49.6399 24.8041 50.0382 24.087 50.7475C23.3688 51.4557 22.9655 52.417 22.9655 53.42V55.94C22.9655 56.6352 23.5374 57.2 24.2414 57.2H39.5517V59.72C39.5517 60.7229 39.9549 61.6843 40.6732 62.3924C41.3903 63.1018 42.3637 63.5 43.3793 63.5H70.1724C71.1879 63.5 72.1614 63.1018 72.8785 62.3924C73.5967 61.6843 74 60.7229 74 59.72V15.6201C74 14.6171 73.5967 13.6558 72.8785 12.9476C72.1614 12.2383 71.188 11.84 70.1724 11.84H68.8965V4.28005C68.8965 3.27712 68.4932 2.31575 67.775 1.60756C67.0579 0.898245 66.0844 0.5 65.0689 0.5H8.93106C7.9155 0.5 6.94203 0.898245 6.22493 1.60756C5.50668 2.31575 5.10342 3.27709 5.10342 4.28005L5.1035 23.1799ZM19.1379 58.4598V59.7198C19.1379 60.054 19.0041 60.3752 18.7643 60.6108C18.5257 60.8476 18.2004 60.9798 17.8621 60.9798H3.82764C3.48931 60.9798 3.16407 60.8476 2.92542 60.6108C2.68563 60.3752 2.55178 60.054 2.55178 59.7198V58.4598H19.1379ZM71.4482 57.1998V59.7198C71.4482 60.054 71.3143 60.3752 71.0745 60.6108C70.8359 60.8476 70.5107 60.9798 70.1723 60.9798H43.3793C43.0409 60.9798 42.7157 60.8476 42.4771 60.6108C42.2373 60.3752 42.1034 60.054 42.1034 59.7198V57.1998H71.4482ZM2.55178 30.7399V55.9398H19.1379V30.7399H2.55178ZM39.5517 52.1599H26.7931C26.4548 52.1599 26.1295 52.292 25.8909 52.5289C25.6511 52.7645 25.5172 53.0857 25.5172 53.4199V54.6799H39.5517V52.1599ZM42.1034 20.6599V54.6799H71.4482V20.6599H42.1034ZM39.5517 49.6399V43.3399H34.2785L33.3678 49.6399H39.5517ZM21.6897 38.2999V40.8199H39.5517V38.2999H21.6897ZM66.3447 11.84V4.27999C66.3447 3.94587 66.2109 3.62468 65.9711 3.38899C65.7324 3.15218 65.4072 3.01999 65.0689 3.01999H8.93107C8.59274 3.01999 8.26751 3.15218 8.02886 3.38899C7.78907 3.62468 7.65521 3.94587 7.65521 4.27999V23.1799H17.8621C18.8776 23.1799 19.8511 23.5782 20.5682 24.2875C21.2865 24.9957 21.6897 25.957 21.6897 26.96V35.78H39.5518V15.62C39.5518 14.6171 39.955 13.6557 40.6733 12.9475C41.3904 12.2382 42.3638 11.84 43.3794 11.84H66.3447ZM19.1379 28.2199H2.55178V26.9599C2.55178 26.6258 2.68563 26.3046 2.92542 26.0689C3.16407 25.8321 3.48931 25.6999 3.82764 25.6999H17.8621C18.2004 25.6999 18.5257 25.8321 18.7643 26.0689C19.0041 26.3046 19.1379 26.6258 19.1379 26.9599V28.2199ZM71.4482 18.14H42.1034V15.62C42.1034 15.2858 42.2373 14.9646 42.4771 14.729C42.7157 14.4922 43.0409 14.36 43.3793 14.36H70.1723C70.5107 14.36 70.8359 14.4922 71.0745 14.729C71.3143 14.9646 71.4482 15.2858 71.4482 15.62V18.14Z"/>
</mask>
<path fill-rule="evenodd" clip-rule="evenodd" d="M5.1035 23.1799H3.82764C2.81208 23.1799 1.83861 23.5782 1.1215 24.2875C0.403259 24.9957 0 25.957 0 26.96V59.7199C0 60.7228 0.403259 61.6842 1.1215 62.3924C1.83861 63.1017 2.81205 63.4999 3.82764 63.4999H17.8621C18.8776 63.4999 19.8511 63.1017 20.5682 62.3924C21.2865 61.6842 21.6897 60.7229 21.6897 59.7199V43.3399H31.7012L30.7905 49.6399H26.7931C25.7776 49.6399 24.8041 50.0382 24.087 50.7475C23.3688 51.4557 22.9655 52.417 22.9655 53.42V55.94C22.9655 56.6352 23.5374 57.2 24.2414 57.2H39.5517V59.72C39.5517 60.7229 39.9549 61.6843 40.6732 62.3924C41.3903 63.1018 42.3637 63.5 43.3793 63.5H70.1724C71.1879 63.5 72.1614 63.1018 72.8785 62.3924C73.5967 61.6843 74 60.7229 74 59.72V15.6201C74 14.6171 73.5967 13.6558 72.8785 12.9476C72.1614 12.2383 71.188 11.84 70.1724 11.84H68.8965V4.28005C68.8965 3.27712 68.4932 2.31575 67.775 1.60756C67.0579 0.898245 66.0844 0.5 65.0689 0.5H8.93106C7.9155 0.5 6.94203 0.898245 6.22493 1.60756C5.50668 2.31575 5.10342 3.27709 5.10342 4.28005L5.1035 23.1799ZM19.1379 58.4598V59.7198C19.1379 60.054 19.0041 60.3752 18.7643 60.6108C18.5257 60.8476 18.2004 60.9798 17.8621 60.9798H3.82764C3.48931 60.9798 3.16407 60.8476 2.92542 60.6108C2.68563 60.3752 2.55178 60.054 2.55178 59.7198V58.4598H19.1379ZM71.4482 57.1998V59.7198C71.4482 60.054 71.3143 60.3752 71.0745 60.6108C70.8359 60.8476 70.5107 60.9798 70.1723 60.9798H43.3793C43.0409 60.9798 42.7157 60.8476 42.4771 60.6108C42.2373 60.3752 42.1034 60.054 42.1034 59.7198V57.1998H71.4482ZM2.55178 30.7399V55.9398H19.1379V30.7399H2.55178ZM39.5517 52.1599H26.7931C26.4548 52.1599 26.1295 52.292 25.8909 52.5289C25.6511 52.7645 25.5172 53.0857 25.5172 53.4199V54.6799H39.5517V52.1599ZM42.1034 20.6599V54.6799H71.4482V20.6599H42.1034ZM39.5517 49.6399V43.3399H34.2785L33.3678 49.6399H39.5517ZM21.6897 38.2999V40.8199H39.5517V38.2999H21.6897ZM66.3447 11.84V4.27999C66.3447 3.94587 66.2109 3.62468 65.9711 3.38899C65.7324 3.15218 65.4072 3.01999 65.0689 3.01999H8.93107C8.59274 3.01999 8.26751 3.15218 8.02886 3.38899C7.78907 3.62468 7.65521 3.94587 7.65521 4.27999V23.1799H17.8621C18.8776 23.1799 19.8511 23.5782 20.5682 24.2875C21.2865 24.9957 21.6897 25.957 21.6897 26.96V35.78H39.5518V15.62C39.5518 14.6171 39.955 13.6557 40.6733 12.9475C41.3904 12.2382 42.3638 11.84 43.3794 11.84H66.3447ZM19.1379 28.2199H2.55178V26.9599C2.55178 26.6258 2.68563 26.3046 2.92542 26.0689C3.16407 25.8321 3.48931 25.6999 3.82764 25.6999H17.8621C18.2004 25.6999 18.5257 25.8321 18.7643 26.0689C19.0041 26.3046 19.1379 26.6258 19.1379 26.9599V28.2199ZM71.4482 18.14H42.1034V15.62C42.1034 15.2858 42.2373 14.9646 42.4771 14.729C42.7157 14.4922 43.0409 14.36 43.3793 14.36H70.1723C70.5107 14.36 70.8359 14.4922 71.0745 14.729C71.3143 14.9646 71.4482 15.2858 71.4482 15.62V18.14Z" fill="#6C96F9" stroke="#F5F8FF" stroke-width="0.4" mask="url(#path-1-inside-1_792_94883)"/>
</g>
<defs>
<clipPath id="clip0_792_94883">
<rect width="74" height="63" fill="white" transform="translate(0 0.5)"/>
</clipPath>
</defs>
</svg>
