<svg width="88" height="89" viewBox="0 0 88 89" fill="none" xmlns="http://www.w3.org/2000/svg">
<mask id="path-1-outside-1_792_92065" maskUnits="userSpaceOnUse" x="11" y="13.5" width="65" height="62" fill="black">
<rect fill="white" x="11" y="13.5" width="65" height="62"/>
<path d="M43.8543 52.4231C48.2234 52.4231 51.7775 48.869 51.7775 44.4999C51.7775 40.1307 48.2234 36.5767 43.8543 36.5767C39.4852 36.5767 35.9311 40.1307 35.9311 44.4999C35.9311 48.869 39.4852 52.4231 43.8543 52.4231ZM43.8543 38.3828C47.2278 38.3828 49.9714 41.1273 49.9714 44.4999C49.9714 47.8729 47.2268 50.6179 43.8543 50.6179C40.4813 50.6179 37.7372 47.8734 37.7372 44.4999C37.7372 41.1264 40.4808 38.3828 43.8543 38.3828ZM32.0419 54.2809L34.0738 56.3123C34.422 56.6614 34.8865 56.8532 35.379 56.8532C35.872 56.8532 36.3361 56.6614 36.6842 56.3123C37.4774 55.5191 38.4862 55.5373 39.1653 55.8189C39.8445 56.1005 40.5711 56.8006 40.5711 57.9224C40.5711 58.9409 41.3997 59.7686 42.4173 59.7686H45.2903C46.3088 59.7686 47.1364 58.94 47.1364 57.9224C47.1364 56.8024 47.863 56.1032 48.5427 55.8212C49.2223 55.5395 50.231 55.5209 51.0228 56.3127C51.7429 57.0324 52.9136 57.0328 53.6342 56.3127L55.6661 54.2808C56.3863 53.5607 56.3863 52.3895 55.6661 51.6694C54.8743 50.8776 54.8929 49.8689 55.1746 49.1893C55.4562 48.5097 56.1563 47.783 57.2754 47.783C58.2939 47.783 59.1215 46.9544 59.1215 45.9368V43.0639C59.1215 42.0453 58.2929 41.2177 57.2754 41.2177C56.1554 41.2177 55.4562 40.4911 55.1746 39.8114C54.8929 39.1318 54.8743 38.1231 55.6661 37.3313C56.0152 36.9822 56.207 36.5186 56.207 36.0261C56.207 35.5327 56.0152 35.069 55.6661 34.7209L53.6342 32.6889C52.9141 31.9688 51.7429 31.9693 51.0228 32.6889C50.231 33.4807 49.2223 33.4621 48.5427 33.1805C47.8631 32.8989 47.1364 32.1988 47.1364 31.0797C47.1364 30.0612 46.3078 29.2336 45.2903 29.2336H42.4173C41.3987 29.2336 40.5711 30.0621 40.5711 31.0797C40.5711 32.1997 39.8445 32.8989 39.1648 33.1805C38.4852 33.4621 37.4765 33.4807 36.6847 32.6889C36.3356 32.3398 35.872 32.148 35.3795 32.148C34.8865 32.148 34.4224 32.3398 34.0743 32.6889L32.0428 34.7209C31.6937 35.069 31.5019 35.5336 31.5019 36.0261C31.5019 36.5195 31.6937 36.9831 32.0428 37.3313C32.8346 38.1231 32.816 39.1318 32.5344 39.8114C32.2528 40.491 31.5526 41.2177 30.4331 41.2177C29.4146 41.2177 28.587 42.0463 28.587 43.0639V45.9368C28.587 46.9554 29.4156 47.783 30.4331 47.783C31.5531 47.783 32.2523 48.5096 32.5344 49.1893C32.816 49.8689 32.8346 50.8776 32.0428 51.6694C31.3222 52.3895 31.3222 53.5607 32.0419 54.2809ZM30.4317 45.9773C30.4093 45.9773 30.3907 45.9592 30.3907 45.9364V43.0634C30.3907 43.041 30.4089 43.0224 30.4317 43.0224C32.1125 43.0224 33.5571 42.056 34.2008 40.5018C34.8451 38.9465 34.5066 37.2423 33.3187 36.0545C33.3154 36.0512 33.3071 36.0428 33.3071 36.0251C33.3071 36.0084 33.3154 36 33.3187 35.9967L35.3506 33.9648C35.3539 33.9616 35.3623 33.9532 35.379 33.9532C35.3958 33.9532 35.4046 33.9616 35.4083 33.9648C36.5972 35.1528 38.3009 35.4912 39.8556 34.8469C41.4109 34.2027 42.3763 32.7588 42.3763 31.0778C42.3763 31.055 42.3944 31.0368 42.4172 31.0368H45.2902C45.3126 31.0368 45.3312 31.055 45.3312 31.0778C45.3312 32.7587 46.2976 34.2027 47.8518 34.8469C49.4071 35.4912 51.1108 35.1528 52.3001 33.9648C52.3159 33.949 52.342 33.949 52.3578 33.9648L54.3897 35.9967C54.393 36 54.4014 36.0084 54.4014 36.0251C54.4014 36.0419 54.393 36.0507 54.3897 36.0545C53.2008 37.2433 52.8633 38.947 53.5076 40.5018C54.1519 42.057 55.5958 43.0224 57.2767 43.0224C57.2991 43.0224 57.3177 43.0405 57.3177 43.0634V45.9364C57.3177 45.9587 57.2996 45.9773 57.2767 45.9773C55.5959 45.9773 54.1518 46.9437 53.5076 48.4979C52.8634 50.0532 53.2018 51.7574 54.3897 52.9462C54.4055 52.962 54.4055 52.9881 54.3897 53.0039L52.3578 55.0358C52.342 55.0517 52.3154 55.0517 52.3001 55.0358C51.1112 53.847 49.4075 53.5086 47.8518 54.1537C46.2966 54.7975 45.3312 56.2419 45.3312 57.9229C45.3312 57.9452 45.313 57.9638 45.2902 57.9638H42.4172C42.3949 57.9638 42.3763 57.9457 42.3763 57.9229C42.3763 56.2406 41.4108 54.7952 39.8565 54.1518C39.3356 53.9358 38.7979 53.8306 38.2682 53.8306C37.2181 53.8306 36.1987 54.2459 35.4077 55.0367C35.4045 55.04 35.3961 55.0484 35.3784 55.0484C35.3617 55.0484 35.3533 55.04 35.35 55.0367L33.3181 53.0048C33.3023 52.989 33.3023 52.9629 33.3181 52.9471C34.507 51.7582 34.8445 50.0545 34.2002 48.4988C33.5569 46.9436 32.1124 45.9772 30.4316 45.9772L30.4317 45.9773ZM57.4468 19.8678C59.9564 21.2555 62.2321 23.0118 64.212 25.087C64.3823 25.2657 64.6188 25.3663 64.8655 25.3663H68.1961V28.1384C68.1961 28.5121 68.427 28.8482 68.7766 28.9814C68.8813 29.0219 68.9907 29.0409 69.0992 29.0409C69.351 29.0409 69.5968 28.9353 69.7713 28.7407L75.4784 22.3731C75.7856 22.0305 75.7856 21.511 75.4784 21.1685L69.7713 14.8009C69.5218 14.5221 69.1262 14.4262 68.7766 14.5602C68.427 14.6938 68.1961 15.0295 68.1961 15.4033V18.1753L57.8835 18.1763C57.472 18.1763 57.1126 18.4551 57.0098 18.8536C56.9069 19.2511 57.087 19.6681 57.4468 19.8678ZM69.0982 19.9805C69.5967 19.9805 70.0012 19.5764 70.0012 19.0774V17.7629L73.5939 21.7713L70.0012 25.7797V24.4647C70.0012 23.9662 69.5972 23.5617 69.0982 23.5617H65.2476C63.9517 22.2383 62.5412 21.041 61.0302 19.981L69.0982 19.9805ZM69.7703 60.2589C69.5208 59.9801 69.1251 59.8842 68.7756 60.0183C68.426 60.1519 68.1951 60.4875 68.1951 60.8613V63.6333L43.8552 63.6338C33.3053 63.6338 24.7218 55.0501 24.7218 44.5004C24.7218 38.2622 27.7782 32.3978 32.8982 28.8144C33.2208 28.5886 33.3599 28.179 33.2417 27.8038C33.1235 27.4277 32.7743 27.1726 32.381 27.1726H24.4537C24.1883 27.1726 23.9365 27.2894 23.7647 27.4915C19.7447 32.2354 17.5304 38.2761 17.5304 44.5002C17.5304 59.0147 29.3396 70.8253 43.8556 70.8253H68.1954V73.5974C68.1954 73.9712 68.4263 74.3073 68.7759 74.4404C68.8806 74.4809 68.99 74.5 69.0985 74.5C69.3503 74.5 69.5961 74.3943 69.7707 74.1998L75.4777 67.8322C75.7849 67.4896 75.7849 66.9701 75.4777 66.6275L69.7703 60.2589ZM70.0003 71.2372V69.9222C70.0003 69.4236 69.5962 69.0191 69.0972 69.0191H43.8553C30.3358 69.0191 19.3355 58.0199 19.3355 44.4993C19.3355 38.8408 21.2998 33.345 24.8763 28.9766H29.8049C25.4521 32.9221 22.9169 38.5551 22.9169 44.4993C22.9169 56.0451 32.3101 65.4381 43.8557 65.4381H69.0989C69.5974 65.4381 70.002 65.0341 70.002 64.5351V63.2201L73.5946 67.2285L70.0003 71.2372ZM17.9386 28.741C18.1881 29.0199 18.5838 29.1158 18.9334 28.9817C19.283 28.8481 19.5138 28.5125 19.5138 28.1387V25.3666L43.8537 25.3662C54.4037 25.3662 62.9872 33.9489 62.9872 44.4996C62.9872 50.7386 59.9308 56.6022 54.8108 60.1856C54.4882 60.4113 54.349 60.821 54.4672 61.1962C54.5855 61.5723 54.9346 61.8274 55.3279 61.8274H63.2544C63.5198 61.8274 63.7716 61.7105 63.9434 61.5085C67.9643 56.7646 70.1787 50.7239 70.1787 44.4998C70.1787 29.9853 58.3695 18.1746 43.8535 18.1746H19.5136V15.4026C19.5136 15.0288 19.2827 14.6927 18.9331 14.5595C18.5836 14.4259 18.1879 14.5218 17.9384 14.8002L12.2313 21.1678C11.9241 21.5104 11.9241 22.0299 12.2313 22.3724L17.9386 28.741ZM17.7077 17.7628V19.0778C17.7077 19.5763 18.1118 19.9808 18.6108 19.9808H43.8539C57.3734 19.9808 68.3737 30.9801 68.3737 44.5007C68.3737 50.1592 66.4094 55.6549 62.8334 60.0233H57.9048C62.2576 56.0778 64.7928 50.4448 64.7928 44.5007C64.7928 32.9549 55.3995 23.5618 43.8539 23.5618H18.6108C18.1122 23.5618 17.7077 23.9659 17.7077 24.4649V25.7799L14.1159 21.771L17.7077 17.7628ZM30.262 69.1321C27.7538 67.7454 25.4772 65.9895 23.4968 63.9129C23.3265 63.7342 23.09 63.6336 22.8433 63.6336H19.5127V60.8616C19.5127 60.4878 19.2818 60.1517 18.9322 60.0186C18.5826 59.885 18.187 59.9809 17.9374 60.2592L12.2304 66.6268C11.9232 66.9694 11.9232 67.4889 12.2304 67.8315L17.9374 74.199C18.112 74.3936 18.3578 74.4993 18.6096 74.4993C18.7171 74.4993 18.827 74.4797 18.9322 74.4397C19.2818 74.3061 19.5127 73.9705 19.5127 73.5967V70.8251H29.8243C30.2358 70.8251 30.5952 70.5463 30.698 70.1478C30.8019 69.7488 30.6218 69.3309 30.262 69.1321ZM18.6106 69.0195C18.1121 69.0195 17.7076 69.4235 17.7076 69.9225V71.2375L14.1158 67.2291L17.7084 63.2207V64.5357C17.7084 65.0342 18.1125 65.4387 18.6115 65.4387H22.462C23.7579 66.7621 25.1689 67.9598 26.6794 69.0194L18.6106 69.0195Z"/>
</mask>
<path d="M43.8543 52.4231C48.2234 52.4231 51.7775 48.869 51.7775 44.4999C51.7775 40.1307 48.2234 36.5767 43.8543 36.5767C39.4852 36.5767 35.9311 40.1307 35.9311 44.4999C35.9311 48.869 39.4852 52.4231 43.8543 52.4231ZM43.8543 38.3828C47.2278 38.3828 49.9714 41.1273 49.9714 44.4999C49.9714 47.8729 47.2268 50.6179 43.8543 50.6179C40.4813 50.6179 37.7372 47.8734 37.7372 44.4999C37.7372 41.1264 40.4808 38.3828 43.8543 38.3828ZM32.0419 54.2809L34.0738 56.3123C34.422 56.6614 34.8865 56.8532 35.379 56.8532C35.872 56.8532 36.3361 56.6614 36.6842 56.3123C37.4774 55.5191 38.4862 55.5373 39.1653 55.8189C39.8445 56.1005 40.5711 56.8006 40.5711 57.9224C40.5711 58.9409 41.3997 59.7686 42.4173 59.7686H45.2903C46.3088 59.7686 47.1364 58.94 47.1364 57.9224C47.1364 56.8024 47.863 56.1032 48.5427 55.8212C49.2223 55.5395 50.231 55.5209 51.0228 56.3127C51.7429 57.0324 52.9136 57.0328 53.6342 56.3127L55.6661 54.2808C56.3863 53.5607 56.3863 52.3895 55.6661 51.6694C54.8743 50.8776 54.8929 49.8689 55.1746 49.1893C55.4562 48.5097 56.1563 47.783 57.2754 47.783C58.2939 47.783 59.1215 46.9544 59.1215 45.9368V43.0639C59.1215 42.0453 58.2929 41.2177 57.2754 41.2177C56.1554 41.2177 55.4562 40.4911 55.1746 39.8114C54.8929 39.1318 54.8743 38.1231 55.6661 37.3313C56.0152 36.9822 56.207 36.5186 56.207 36.0261C56.207 35.5327 56.0152 35.069 55.6661 34.7209L53.6342 32.6889C52.9141 31.9688 51.7429 31.9693 51.0228 32.6889C50.231 33.4807 49.2223 33.4621 48.5427 33.1805C47.8631 32.8989 47.1364 32.1988 47.1364 31.0797C47.1364 30.0612 46.3078 29.2336 45.2903 29.2336H42.4173C41.3987 29.2336 40.5711 30.0621 40.5711 31.0797C40.5711 32.1997 39.8445 32.8989 39.1648 33.1805C38.4852 33.4621 37.4765 33.4807 36.6847 32.6889C36.3356 32.3398 35.872 32.148 35.3795 32.148C34.8865 32.148 34.4224 32.3398 34.0743 32.6889L32.0428 34.7209C31.6937 35.069 31.5019 35.5336 31.5019 36.0261C31.5019 36.5195 31.6937 36.9831 32.0428 37.3313C32.8346 38.1231 32.816 39.1318 32.5344 39.8114C32.2528 40.491 31.5526 41.2177 30.4331 41.2177C29.4146 41.2177 28.587 42.0463 28.587 43.0639V45.9368C28.587 46.9554 29.4156 47.783 30.4331 47.783C31.5531 47.783 32.2523 48.5096 32.5344 49.1893C32.816 49.8689 32.8346 50.8776 32.0428 51.6694C31.3222 52.3895 31.3222 53.5607 32.0419 54.2809ZM30.4317 45.9773C30.4093 45.9773 30.3907 45.9592 30.3907 45.9364V43.0634C30.3907 43.041 30.4089 43.0224 30.4317 43.0224C32.1125 43.0224 33.5571 42.056 34.2008 40.5018C34.8451 38.9465 34.5066 37.2423 33.3187 36.0545C33.3154 36.0512 33.3071 36.0428 33.3071 36.0251C33.3071 36.0084 33.3154 36 33.3187 35.9967L35.3506 33.9648C35.3539 33.9616 35.3623 33.9532 35.379 33.9532C35.3958 33.9532 35.4046 33.9616 35.4083 33.9648C36.5972 35.1528 38.3009 35.4912 39.8556 34.8469C41.4109 34.2027 42.3763 32.7588 42.3763 31.0778C42.3763 31.055 42.3944 31.0368 42.4172 31.0368H45.2902C45.3126 31.0368 45.3312 31.055 45.3312 31.0778C45.3312 32.7587 46.2976 34.2027 47.8518 34.8469C49.4071 35.4912 51.1108 35.1528 52.3001 33.9648C52.3159 33.949 52.342 33.949 52.3578 33.9648L54.3897 35.9967C54.393 36 54.4014 36.0084 54.4014 36.0251C54.4014 36.0419 54.393 36.0507 54.3897 36.0545C53.2008 37.2433 52.8633 38.947 53.5076 40.5018C54.1519 42.057 55.5958 43.0224 57.2767 43.0224C57.2991 43.0224 57.3177 43.0405 57.3177 43.0634V45.9364C57.3177 45.9587 57.2996 45.9773 57.2767 45.9773C55.5959 45.9773 54.1518 46.9437 53.5076 48.4979C52.8634 50.0532 53.2018 51.7574 54.3897 52.9462C54.4055 52.962 54.4055 52.9881 54.3897 53.0039L52.3578 55.0358C52.342 55.0517 52.3154 55.0517 52.3001 55.0358C51.1112 53.847 49.4075 53.5086 47.8518 54.1537C46.2966 54.7975 45.3312 56.2419 45.3312 57.9229C45.3312 57.9452 45.313 57.9638 45.2902 57.9638H42.4172C42.3949 57.9638 42.3763 57.9457 42.3763 57.9229C42.3763 56.2406 41.4108 54.7952 39.8565 54.1518C39.3356 53.9358 38.7979 53.8306 38.2682 53.8306C37.2181 53.8306 36.1987 54.2459 35.4077 55.0367C35.4045 55.04 35.3961 55.0484 35.3784 55.0484C35.3617 55.0484 35.3533 55.04 35.35 55.0367L33.3181 53.0048C33.3023 52.989 33.3023 52.9629 33.3181 52.9471C34.507 51.7582 34.8445 50.0545 34.2002 48.4988C33.5569 46.9436 32.1124 45.9772 30.4316 45.9772L30.4317 45.9773ZM57.4468 19.8678C59.9564 21.2555 62.2321 23.0118 64.212 25.087C64.3823 25.2657 64.6188 25.3663 64.8655 25.3663H68.1961V28.1384C68.1961 28.5121 68.427 28.8482 68.7766 28.9814C68.8813 29.0219 68.9907 29.0409 69.0992 29.0409C69.351 29.0409 69.5968 28.9353 69.7713 28.7407L75.4784 22.3731C75.7856 22.0305 75.7856 21.511 75.4784 21.1685L69.7713 14.8009C69.5218 14.5221 69.1262 14.4262 68.7766 14.5602C68.427 14.6938 68.1961 15.0295 68.1961 15.4033V18.1753L57.8835 18.1763C57.472 18.1763 57.1126 18.4551 57.0098 18.8536C56.9069 19.2511 57.087 19.6681 57.4468 19.8678ZM69.0982 19.9805C69.5967 19.9805 70.0012 19.5764 70.0012 19.0774V17.7629L73.5939 21.7713L70.0012 25.7797V24.4647C70.0012 23.9662 69.5972 23.5617 69.0982 23.5617H65.2476C63.9517 22.2383 62.5412 21.041 61.0302 19.981L69.0982 19.9805ZM69.7703 60.2589C69.5208 59.9801 69.1251 59.8842 68.7756 60.0183C68.426 60.1519 68.1951 60.4875 68.1951 60.8613V63.6333L43.8552 63.6338C33.3053 63.6338 24.7218 55.0501 24.7218 44.5004C24.7218 38.2622 27.7782 32.3978 32.8982 28.8144C33.2208 28.5886 33.3599 28.179 33.2417 27.8038C33.1235 27.4277 32.7743 27.1726 32.381 27.1726H24.4537C24.1883 27.1726 23.9365 27.2894 23.7647 27.4915C19.7447 32.2354 17.5304 38.2761 17.5304 44.5002C17.5304 59.0147 29.3396 70.8253 43.8556 70.8253H68.1954V73.5974C68.1954 73.9712 68.4263 74.3073 68.7759 74.4404C68.8806 74.4809 68.99 74.5 69.0985 74.5C69.3503 74.5 69.5961 74.3943 69.7707 74.1998L75.4777 67.8322C75.7849 67.4896 75.7849 66.9701 75.4777 66.6275L69.7703 60.2589ZM70.0003 71.2372V69.9222C70.0003 69.4236 69.5962 69.0191 69.0972 69.0191H43.8553C30.3358 69.0191 19.3355 58.0199 19.3355 44.4993C19.3355 38.8408 21.2998 33.345 24.8763 28.9766H29.8049C25.4521 32.9221 22.9169 38.5551 22.9169 44.4993C22.9169 56.0451 32.3101 65.4381 43.8557 65.4381H69.0989C69.5974 65.4381 70.002 65.0341 70.002 64.5351V63.2201L73.5946 67.2285L70.0003 71.2372ZM17.9386 28.741C18.1881 29.0199 18.5838 29.1158 18.9334 28.9817C19.283 28.8481 19.5138 28.5125 19.5138 28.1387V25.3666L43.8537 25.3662C54.4037 25.3662 62.9872 33.9489 62.9872 44.4996C62.9872 50.7386 59.9308 56.6022 54.8108 60.1856C54.4882 60.4113 54.349 60.821 54.4672 61.1962C54.5855 61.5723 54.9346 61.8274 55.3279 61.8274H63.2544C63.5198 61.8274 63.7716 61.7105 63.9434 61.5085C67.9643 56.7646 70.1787 50.7239 70.1787 44.4998C70.1787 29.9853 58.3695 18.1746 43.8535 18.1746H19.5136V15.4026C19.5136 15.0288 19.2827 14.6927 18.9331 14.5595C18.5836 14.4259 18.1879 14.5218 17.9384 14.8002L12.2313 21.1678C11.9241 21.5104 11.9241 22.0299 12.2313 22.3724L17.9386 28.741ZM17.7077 17.7628V19.0778C17.7077 19.5763 18.1118 19.9808 18.6108 19.9808H43.8539C57.3734 19.9808 68.3737 30.9801 68.3737 44.5007C68.3737 50.1592 66.4094 55.6549 62.8334 60.0233H57.9048C62.2576 56.0778 64.7928 50.4448 64.7928 44.5007C64.7928 32.9549 55.3995 23.5618 43.8539 23.5618H18.6108C18.1122 23.5618 17.7077 23.9659 17.7077 24.4649V25.7799L14.1159 21.771L17.7077 17.7628ZM30.262 69.1321C27.7538 67.7454 25.4772 65.9895 23.4968 63.9129C23.3265 63.7342 23.09 63.6336 22.8433 63.6336H19.5127V60.8616C19.5127 60.4878 19.2818 60.1517 18.9322 60.0186C18.5826 59.885 18.187 59.9809 17.9374 60.2592L12.2304 66.6268C11.9232 66.9694 11.9232 67.4889 12.2304 67.8315L17.9374 74.199C18.112 74.3936 18.3578 74.4993 18.6096 74.4993C18.7171 74.4993 18.827 74.4797 18.9322 74.4397C19.2818 74.3061 19.5127 73.9705 19.5127 73.5967V70.8251H29.8243C30.2358 70.8251 30.5952 70.5463 30.698 70.1478C30.8019 69.7488 30.6218 69.3309 30.262 69.1321ZM18.6106 69.0195C18.1121 69.0195 17.7076 69.4235 17.7076 69.9225V71.2375L14.1158 67.2291L17.7084 63.2207V64.5357C17.7084 65.0342 18.1125 65.4387 18.6115 65.4387H22.462C23.7579 66.7621 25.1689 67.9598 26.6794 69.0194L18.6106 69.0195Z" fill="#6C96F9"/>
<path d="M43.8543 52.4231C48.2234 52.4231 51.7775 48.869 51.7775 44.4999C51.7775 40.1307 48.2234 36.5767 43.8543 36.5767C39.4852 36.5767 35.9311 40.1307 35.9311 44.4999C35.9311 48.869 39.4852 52.4231 43.8543 52.4231ZM43.8543 38.3828C47.2278 38.3828 49.9714 41.1273 49.9714 44.4999C49.9714 47.8729 47.2268 50.6179 43.8543 50.6179C40.4813 50.6179 37.7372 47.8734 37.7372 44.4999C37.7372 41.1264 40.4808 38.3828 43.8543 38.3828ZM32.0419 54.2809L34.0738 56.3123C34.422 56.6614 34.8865 56.8532 35.379 56.8532C35.872 56.8532 36.3361 56.6614 36.6842 56.3123C37.4774 55.5191 38.4862 55.5373 39.1653 55.8189C39.8445 56.1005 40.5711 56.8006 40.5711 57.9224C40.5711 58.9409 41.3997 59.7686 42.4173 59.7686H45.2903C46.3088 59.7686 47.1364 58.94 47.1364 57.9224C47.1364 56.8024 47.863 56.1032 48.5427 55.8212C49.2223 55.5395 50.231 55.5209 51.0228 56.3127C51.7429 57.0324 52.9136 57.0328 53.6342 56.3127L55.6661 54.2808C56.3863 53.5607 56.3863 52.3895 55.6661 51.6694C54.8743 50.8776 54.8929 49.8689 55.1746 49.1893C55.4562 48.5097 56.1563 47.783 57.2754 47.783C58.2939 47.783 59.1215 46.9544 59.1215 45.9368V43.0639C59.1215 42.0453 58.2929 41.2177 57.2754 41.2177C56.1554 41.2177 55.4562 40.4911 55.1746 39.8114C54.8929 39.1318 54.8743 38.1231 55.6661 37.3313C56.0152 36.9822 56.207 36.5186 56.207 36.0261C56.207 35.5327 56.0152 35.069 55.6661 34.7209L53.6342 32.6889C52.9141 31.9688 51.7429 31.9693 51.0228 32.6889C50.231 33.4807 49.2223 33.4621 48.5427 33.1805C47.8631 32.8989 47.1364 32.1988 47.1364 31.0797C47.1364 30.0612 46.3078 29.2336 45.2903 29.2336H42.4173C41.3987 29.2336 40.5711 30.0621 40.5711 31.0797C40.5711 32.1997 39.8445 32.8989 39.1648 33.1805C38.4852 33.4621 37.4765 33.4807 36.6847 32.6889C36.3356 32.3398 35.872 32.148 35.3795 32.148C34.8865 32.148 34.4224 32.3398 34.0743 32.6889L32.0428 34.7209C31.6937 35.069 31.5019 35.5336 31.5019 36.0261C31.5019 36.5195 31.6937 36.9831 32.0428 37.3313C32.8346 38.1231 32.816 39.1318 32.5344 39.8114C32.2528 40.491 31.5526 41.2177 30.4331 41.2177C29.4146 41.2177 28.587 42.0463 28.587 43.0639V45.9368C28.587 46.9554 29.4156 47.783 30.4331 47.783C31.5531 47.783 32.2523 48.5096 32.5344 49.1893C32.816 49.8689 32.8346 50.8776 32.0428 51.6694C31.3222 52.3895 31.3222 53.5607 32.0419 54.2809ZM30.4317 45.9773C30.4093 45.9773 30.3907 45.9592 30.3907 45.9364V43.0634C30.3907 43.041 30.4089 43.0224 30.4317 43.0224C32.1125 43.0224 33.5571 42.056 34.2008 40.5018C34.8451 38.9465 34.5066 37.2423 33.3187 36.0545C33.3154 36.0512 33.3071 36.0428 33.3071 36.0251C33.3071 36.0084 33.3154 36 33.3187 35.9967L35.3506 33.9648C35.3539 33.9616 35.3623 33.9532 35.379 33.9532C35.3958 33.9532 35.4046 33.9616 35.4083 33.9648C36.5972 35.1528 38.3009 35.4912 39.8556 34.8469C41.4109 34.2027 42.3763 32.7588 42.3763 31.0778C42.3763 31.055 42.3944 31.0368 42.4172 31.0368H45.2902C45.3126 31.0368 45.3312 31.055 45.3312 31.0778C45.3312 32.7587 46.2976 34.2027 47.8518 34.8469C49.4071 35.4912 51.1108 35.1528 52.3001 33.9648C52.3159 33.949 52.342 33.949 52.3578 33.9648L54.3897 35.9967C54.393 36 54.4014 36.0084 54.4014 36.0251C54.4014 36.0419 54.393 36.0507 54.3897 36.0545C53.2008 37.2433 52.8633 38.947 53.5076 40.5018C54.1519 42.057 55.5958 43.0224 57.2767 43.0224C57.2991 43.0224 57.3177 43.0405 57.3177 43.0634V45.9364C57.3177 45.9587 57.2996 45.9773 57.2767 45.9773C55.5959 45.9773 54.1518 46.9437 53.5076 48.4979C52.8634 50.0532 53.2018 51.7574 54.3897 52.9462C54.4055 52.962 54.4055 52.9881 54.3897 53.0039L52.3578 55.0358C52.342 55.0517 52.3154 55.0517 52.3001 55.0358C51.1112 53.847 49.4075 53.5086 47.8518 54.1537C46.2966 54.7975 45.3312 56.2419 45.3312 57.9229C45.3312 57.9452 45.313 57.9638 45.2902 57.9638H42.4172C42.3949 57.9638 42.3763 57.9457 42.3763 57.9229C42.3763 56.2406 41.4108 54.7952 39.8565 54.1518C39.3356 53.9358 38.7979 53.8306 38.2682 53.8306C37.2181 53.8306 36.1987 54.2459 35.4077 55.0367C35.4045 55.04 35.3961 55.0484 35.3784 55.0484C35.3617 55.0484 35.3533 55.04 35.35 55.0367L33.3181 53.0048C33.3023 52.989 33.3023 52.9629 33.3181 52.9471C34.507 51.7582 34.8445 50.0545 34.2002 48.4988C33.5569 46.9436 32.1124 45.9772 30.4316 45.9772L30.4317 45.9773ZM57.4468 19.8678C59.9564 21.2555 62.2321 23.0118 64.212 25.087C64.3823 25.2657 64.6188 25.3663 64.8655 25.3663H68.1961V28.1384C68.1961 28.5121 68.427 28.8482 68.7766 28.9814C68.8813 29.0219 68.9907 29.0409 69.0992 29.0409C69.351 29.0409 69.5968 28.9353 69.7713 28.7407L75.4784 22.3731C75.7856 22.0305 75.7856 21.511 75.4784 21.1685L69.7713 14.8009C69.5218 14.5221 69.1262 14.4262 68.7766 14.5602C68.427 14.6938 68.1961 15.0295 68.1961 15.4033V18.1753L57.8835 18.1763C57.472 18.1763 57.1126 18.4551 57.0098 18.8536C56.9069 19.2511 57.087 19.6681 57.4468 19.8678ZM69.0982 19.9805C69.5967 19.9805 70.0012 19.5764 70.0012 19.0774V17.7629L73.5939 21.7713L70.0012 25.7797V24.4647C70.0012 23.9662 69.5972 23.5617 69.0982 23.5617H65.2476C63.9517 22.2383 62.5412 21.041 61.0302 19.981L69.0982 19.9805ZM69.7703 60.2589C69.5208 59.9801 69.1251 59.8842 68.7756 60.0183C68.426 60.1519 68.1951 60.4875 68.1951 60.8613V63.6333L43.8552 63.6338C33.3053 63.6338 24.7218 55.0501 24.7218 44.5004C24.7218 38.2622 27.7782 32.3978 32.8982 28.8144C33.2208 28.5886 33.3599 28.179 33.2417 27.8038C33.1235 27.4277 32.7743 27.1726 32.381 27.1726H24.4537C24.1883 27.1726 23.9365 27.2894 23.7647 27.4915C19.7447 32.2354 17.5304 38.2761 17.5304 44.5002C17.5304 59.0147 29.3396 70.8253 43.8556 70.8253H68.1954V73.5974C68.1954 73.9712 68.4263 74.3073 68.7759 74.4404C68.8806 74.4809 68.99 74.5 69.0985 74.5C69.3503 74.5 69.5961 74.3943 69.7707 74.1998L75.4777 67.8322C75.7849 67.4896 75.7849 66.9701 75.4777 66.6275L69.7703 60.2589ZM70.0003 71.2372V69.9222C70.0003 69.4236 69.5962 69.0191 69.0972 69.0191H43.8553C30.3358 69.0191 19.3355 58.0199 19.3355 44.4993C19.3355 38.8408 21.2998 33.345 24.8763 28.9766H29.8049C25.4521 32.9221 22.9169 38.5551 22.9169 44.4993C22.9169 56.0451 32.3101 65.4381 43.8557 65.4381H69.0989C69.5974 65.4381 70.002 65.0341 70.002 64.5351V63.2201L73.5946 67.2285L70.0003 71.2372ZM17.9386 28.741C18.1881 29.0199 18.5838 29.1158 18.9334 28.9817C19.283 28.8481 19.5138 28.5125 19.5138 28.1387V25.3666L43.8537 25.3662C54.4037 25.3662 62.9872 33.9489 62.9872 44.4996C62.9872 50.7386 59.9308 56.6022 54.8108 60.1856C54.4882 60.4113 54.349 60.821 54.4672 61.1962C54.5855 61.5723 54.9346 61.8274 55.3279 61.8274H63.2544C63.5198 61.8274 63.7716 61.7105 63.9434 61.5085C67.9643 56.7646 70.1787 50.7239 70.1787 44.4998C70.1787 29.9853 58.3695 18.1746 43.8535 18.1746H19.5136V15.4026C19.5136 15.0288 19.2827 14.6927 18.9331 14.5595C18.5836 14.4259 18.1879 14.5218 17.9384 14.8002L12.2313 21.1678C11.9241 21.5104 11.9241 22.0299 12.2313 22.3724L17.9386 28.741ZM17.7077 17.7628V19.0778C17.7077 19.5763 18.1118 19.9808 18.6108 19.9808H43.8539C57.3734 19.9808 68.3737 30.9801 68.3737 44.5007C68.3737 50.1592 66.4094 55.6549 62.8334 60.0233H57.9048C62.2576 56.0778 64.7928 50.4448 64.7928 44.5007C64.7928 32.9549 55.3995 23.5618 43.8539 23.5618H18.6108C18.1122 23.5618 17.7077 23.9659 17.7077 24.4649V25.7799L14.1159 21.771L17.7077 17.7628ZM30.262 69.1321C27.7538 67.7454 25.4772 65.9895 23.4968 63.9129C23.3265 63.7342 23.09 63.6336 22.8433 63.6336H19.5127V60.8616C19.5127 60.4878 19.2818 60.1517 18.9322 60.0186C18.5826 59.885 18.187 59.9809 17.9374 60.2592L12.2304 66.6268C11.9232 66.9694 11.9232 67.4889 12.2304 67.8315L17.9374 74.199C18.112 74.3936 18.3578 74.4993 18.6096 74.4993C18.7171 74.4993 18.827 74.4797 18.9322 74.4397C19.2818 74.3061 19.5127 73.9705 19.5127 73.5967V70.8251H29.8243C30.2358 70.8251 30.5952 70.5463 30.698 70.1478C30.8019 69.7488 30.6218 69.3309 30.262 69.1321ZM18.6106 69.0195C18.1121 69.0195 17.7076 69.4235 17.7076 69.9225V71.2375L14.1158 67.2291L17.7084 63.2207V64.5357C17.7084 65.0342 18.1125 65.4387 18.6115 65.4387H22.462C23.7579 66.7621 25.1689 67.9598 26.6794 69.0194L18.6106 69.0195Z" stroke="#F5F8FF" stroke-width="0.4" mask="url(#path-1-outside-1_792_92065)"/>
</svg>
