<svg width="88" height="89" viewBox="0 0 88 89" fill="none" xmlns="http://www.w3.org/2000/svg">
<path d="M57.6885 51.372L57.6885 51.3719L57.7034 51.3488C58.33 50.3789 58.9745 49.3813 59.4621 48.0815C59.954 46.7704 60.285 45.1558 60.285 42.9519C60.285 34.2453 53.205 27.152 44.4851 27.152C35.7647 27.152 28.6852 34.2457 28.6852 42.9519C28.6852 45.1556 29.0127 46.7701 29.5029 48.0813C29.9928 49.3914 30.6436 50.3945 31.2819 51.3723C31.9811 52.445 32.6845 53.5293 33.2148 55.0614C33.7451 56.5934 34.104 58.5783 34.104 61.4491C34.104 64.2609 36.3758 66.5471 39.1883 66.5471H49.7541C52.5535 66.5471 54.8379 64.2611 54.8662 61.4501V61.4491C54.8662 58.5783 55.225 56.5967 55.7554 55.0663C56.2845 53.5393 56.9859 52.4566 57.6836 51.3794L57.6885 51.372ZM56.3388 50.5163L56.3388 50.5164L56.3161 50.5517C55.6095 51.6485 54.8496 52.8282 54.2659 54.4948C53.6758 56.1795 53.2671 58.3571 53.2671 61.449C53.2671 63.4043 51.6952 64.9888 49.7409 64.9888H39.1751C37.2342 64.9888 35.6489 63.404 35.6489 61.449C35.6489 58.3572 35.2437 56.1796 34.6553 54.4949C34.067 52.8103 33.297 51.6233 32.577 50.5161L32.5621 50.493C31.9357 49.5233 31.3568 48.6273 30.9318 47.4852C30.5038 46.3353 30.2302 44.9316 30.2302 42.9518C30.2302 35.1033 36.6226 28.7106 44.4714 28.7106H44.4719C52.3208 28.7106 58.7129 35.1029 58.6858 42.9514V42.9518C58.6858 44.9315 58.4123 46.3351 57.9843 47.485C57.5594 48.6264 56.9808 49.5222 56.3548 50.4917L56.3388 50.5163Z" fill="#6C96F9" stroke="#6C96F9" stroke-width="0.2"/>
<path d="M40.4501 70.5666H48.4901C49.6184 70.5666 50.5324 69.6526 50.5324 68.5244V65.7538C50.5324 65.3183 50.1888 64.9747 49.7533 64.9747C49.3178 64.9747 48.9742 65.3183 48.9742 65.7538V68.5244C48.9742 68.7953 48.761 69.0084 48.4901 69.0084H40.4501C40.1792 69.0084 39.966 68.7953 39.966 68.5244V65.7538C39.966 65.3183 39.6224 64.9747 39.1869 64.9747C38.7514 64.9747 38.4078 65.3183 38.4078 65.7538V68.5244C38.4078 69.6526 39.3218 70.5666 40.4501 70.5666Z" fill="#6C96F9" stroke="#6C96F9" stroke-width="0.2"/>
<path d="M42.8133 74.5998H46.127C47.2552 74.5998 48.1692 73.6858 48.1692 72.5576V69.787C48.1692 69.3515 47.8256 69.0079 47.3901 69.0079C46.9546 69.0079 46.611 69.3515 46.611 69.787V72.5576C46.611 72.8285 46.3978 73.0416 46.127 73.0416H42.8133C42.5424 73.0416 42.3293 72.8285 42.3293 72.5576V69.787C42.3293 69.3515 41.9857 69.0079 41.5502 69.0079C41.1147 69.0079 40.7711 69.3515 40.7711 69.787V72.5576C40.7711 73.6858 41.6851 74.5998 42.8133 74.5998Z" fill="#6C96F9" stroke="#6C96F9" stroke-width="0.2"/>
<path d="M45.2512 65.768V65.7679V53.5995C45.2512 53.164 44.9076 52.8204 44.4721 52.8204C44.0366 52.8204 43.693 53.164 43.693 53.5995V65.7679C43.693 66.2034 44.0366 66.547 44.4721 66.547C44.894 66.547 45.2507 66.1896 45.2512 65.768Z" fill="#6C96F9" stroke="#6C96F9" stroke-width="0.2"/>
<path d="M39.7125 49.6192C39.7125 52.2412 41.8487 54.3774 44.4707 54.3774C47.079 54.3774 49.229 52.2414 49.229 49.6192C49.229 46.9971 47.0928 44.8609 44.4707 44.8609C41.8487 44.8609 39.7125 46.9971 39.7125 49.6192ZM41.2708 49.6328C41.2708 47.8681 42.7061 46.4329 44.4707 46.4329C46.2219 46.4329 47.6707 47.8684 47.6707 49.6328C47.6707 51.3975 46.2354 52.8328 44.4707 52.8328C42.7061 52.8328 41.2708 51.3975 41.2708 49.6328Z" fill="#6C96F9" stroke="#6C96F9" stroke-width="0.2"/>
<path d="M58.709 63.3211L58.7082 63.3204L53.6975 59.3421C53.6975 59.3421 53.6974 59.342 53.6973 59.3419C53.3533 59.0757 53.3076 58.5777 53.5716 58.2503C53.838 57.9068 54.3358 57.8614 54.6629 58.1254C54.6631 58.1256 54.6633 58.1257 54.6635 58.1259L59.1288 61.6688L65.1683 55.6292L60.552 49.8053L58.709 63.3211ZM58.709 63.3211C58.8475 63.4287 59.0184 63.4913 59.1915 63.4913C59.3941 63.4913 59.5973 63.4135 59.7531 63.2439L66.7708 56.2262C66.7711 56.2259 66.7715 56.2256 66.7718 56.2253C67.0537 55.9576 67.0832 55.5055 66.8343 55.1946L62.079 49.2136C62.3325 48.6767 62.5621 48.1279 62.768 47.5671L70.3528 46.6914L70.3533 46.6913C70.7445 46.6442 71.039 46.3017 71.039 45.9129V35.9852C71.039 35.5815 70.7428 35.2537 70.3533 35.2068L70.3528 35.2067L62.768 34.3309C62.5624 33.7701 62.3325 33.2213 62.079 32.6845L66.8327 26.7054C66.833 26.705 66.8333 26.7047 66.8336 26.7043C67.0858 26.4035 67.0508 25.9518 66.7728 25.6738L66.7727 25.6737L59.7407 18.6546C59.7404 18.6542 59.74 18.6538 59.7397 18.6535C59.472 18.3716 59.02 18.3422 58.7091 18.5911L52.727 23.3471C52.191 23.106 51.6425 22.877 51.0817 22.671L50.2059 15.0862L50.2058 15.0857C50.1587 14.6945 49.8162 14.4 49.4274 14.4H39.4997C39.096 14.4 38.7683 14.6962 38.7213 15.0857L38.7212 15.0862L37.8456 22.6696C37.2842 22.8635 36.7353 23.0931 36.199 23.3463L30.218 18.591C29.9051 18.3409 29.4676 18.3733 29.1883 18.6526L22.1667 25.6738L22.1666 25.6738C21.8876 25.9533 21.8549 26.3906 22.1049 26.7031C22.105 26.7033 22.1051 26.7034 22.1052 26.7035L26.8473 32.7249C26.6061 33.261 26.377 33.8096 26.171 34.3705L18.5862 35.2463L18.5857 35.2464C18.1945 35.2935 17.9 35.636 17.9 36.0248V45.9525C17.9 46.3562 18.1962 46.6839 18.5857 46.7309L18.5862 46.731L26.1696 47.6066C26.3635 48.168 26.5931 48.7169 26.8463 49.2532L22.091 55.2342C21.8409 55.5471 21.8733 55.9846 22.1526 56.2639L29.1718 63.2831C29.1722 63.2834 29.1725 63.2838 29.1728 63.2841C29.4405 63.566 29.8926 63.5955 30.2035 63.3466L35.2138 59.3685C35.2139 59.3684 35.2141 59.3683 35.2142 59.3682C35.5591 59.1012 35.603 58.6172 35.3404 58.2776C35.0735 57.9323 34.5893 57.8883 34.2495 58.1509L34.2485 58.1517L29.7826 61.6952L23.743 55.6557L28.3588 49.8324C28.3589 49.8322 28.359 49.832 28.3592 49.8319C28.5597 49.585 28.5926 49.2571 28.4512 48.9897C28.0603 48.2349 27.7362 47.4388 27.4661 46.6285C27.3719 46.3314 27.1066 46.1297 26.8116 46.0984C26.8114 46.0983 26.8113 46.0983 26.8111 46.0983L19.431 45.2395V36.6984L26.8106 35.8396C26.8109 35.8396 26.8111 35.8395 26.8114 35.8395C27.1244 35.8078 27.3729 35.5889 27.4659 35.3101C27.7362 34.5003 28.0737 33.7033 28.452 32.9465L28.4521 32.9466L28.454 32.9425C28.5764 32.6672 28.5475 32.3418 28.3594 32.1063C28.3594 32.1062 28.3593 32.1062 28.3593 32.1061L23.7428 26.2819L29.7556 20.2165L35.5786 24.832C35.5787 24.8321 35.5789 24.8322 35.579 24.8323C35.8258 25.0328 36.1536 25.0658 36.421 24.9245C37.1896 24.5335 37.9856 24.2094 38.7827 23.9393C39.0797 23.845 39.2812 23.5797 39.3126 23.2848C39.3126 23.2846 39.3126 23.2845 39.3126 23.2844L40.1715 15.9042H48.7126L49.5714 23.2838C49.5714 23.2841 49.5714 23.2844 49.5714 23.2846C49.6032 23.5976 49.8221 23.8461 50.1009 23.9391C50.9107 24.2094 51.7077 24.5469 52.4644 24.9252L52.4644 24.9253L52.4685 24.9272C52.7437 25.0497 53.0691 25.0207 53.3047 24.8326C53.3047 24.8326 53.3048 24.8325 53.3048 24.8325L59.1287 20.2162L65.1683 26.2558L60.5518 32.08L60.5518 32.08M58.709 63.3211L60.5518 32.08M60.5518 32.08L60.5502 32.0821M60.5518 32.08L60.5502 32.0821M60.5502 32.0821C60.3656 32.3281 60.3325 32.6546 60.4738 32.9219C60.8647 33.6766 61.1887 34.4727 61.4588 35.2829C61.553 35.5801 61.8184 35.7817 62.1134 35.8131C62.1135 35.8131 62.1137 35.8131 62.1138 35.8131L69.494 36.672V45.2131L60.5502 32.0821ZM60.473 48.9648C60.8513 48.2081 61.1888 47.4111 61.4591 46.6014C61.4591 46.6014 61.4591 46.6014 61.4591 46.6014L60.473 48.9648ZM60.473 48.9648C60.3341 49.2422 60.3637 49.5693 60.5518 49.805L60.473 48.9648Z" fill="#6C96F9" stroke="#6C96F9" stroke-width="0.2"/>
</svg>
