<svg width="86" height="60" viewBox="0 0 86 60" fill="none" xmlns="http://www.w3.org/2000/svg">
<g clip-path="url(#clip0_792_94885)">
<path d="M52.1081 48.9395H51.9665L51.9195 49.0731C51.4188 50.4954 50.0866 51.5736 48.5173 51.5736H37.3956C35.8213 51.5736 34.494 50.5789 33.9946 49.0764L33.9491 48.9395H33.8049H14.976C14.211 48.9395 13.5999 48.3271 13.5999 47.5595C13.5999 46.7913 14.2115 46.1794 14.976 46.1794H35.2936C36.0587 46.1794 36.6697 46.7918 36.6697 47.5595V47.9104C36.6697 48.3545 37.0054 48.8129 37.5704 48.8129H48.6927C49.1369 48.8129 49.5934 48.4756 49.5934 47.9104V47.91L49.5928 47.5595C49.5928 47.5593 49.5928 47.5592 49.5928 47.5591C49.593 46.7911 50.2045 46.1794 50.9689 46.1794H71.0135C71.8005 46.2627 72.4006 46.892 72.4006 47.5595C72.4006 48.3277 71.7891 48.9395 71.0246 48.9395H52.1081ZM6.3929 46.1794H6.5929L6.5929 45.9794L6.59351 5.59229C6.59351 2.89242 8.78127 0.7 11.4729 0.7H74.4402C77.0445 0.7 79.2375 2.71995 79.495 5.42602V5.5923V46.0672V46.2672H79.695H84.5119C85.1884 46.2672 85.7998 46.8794 85.7998 47.5595V51.686C85.7998 55.8783 82.3861 59.3 78.2055 59.3H7.79428C3.61382 59.3 0.2 55.8784 0.2 51.686V47.5595C0.2 46.7913 0.811568 46.1794 1.57606 46.1794H6.3929ZM83.1343 49.1395L83.1343 48.9395H82.9343H78.1174C77.3524 48.9395 76.7414 48.3271 76.7414 47.5595V5.67977V5.6645L76.7391 5.64941C76.5523 4.43308 75.5229 3.37246 74.352 3.37246L11.3847 3.37308C10.1351 3.37308 9.17065 4.34137 9.17065 5.59227V47.5598C9.17065 48.328 8.55908 48.9398 7.79459 48.9398H3.06516H2.86516V49.1398V51.7739C2.86516 54.518 5.05623 56.7147 7.79396 56.7147H78.2052C80.9436 56.7147 83.134 54.5173 83.134 51.7739L83.1343 49.1395ZM44.7175 38.306L45.0579 37.9648H44.5759H26.3601C23.848 37.9648 21.8285 35.9517 21.7429 33.3332V17.7084C21.7429 15.099 23.8408 13.0793 26.3597 13.0793C26.3597 13.0793 26.3597 13.0793 26.3597 13.0793L29.1618 13.0799H29.1619C29.9264 13.0799 30.5379 13.6918 30.5379 14.46C30.5379 15.2276 29.9269 15.84 29.1619 15.84H26.3591C25.2849 15.84 24.4078 16.7201 24.4078 17.7958L24.4084 33.4239C24.4084 34.4996 25.2854 35.3797 26.3597 35.3797L44.488 35.3809L44.97 35.381L44.6296 35.0397L42.7902 33.1956C42.2547 32.6588 42.2547 31.82 42.7902 31.2832C43.3254 30.7466 44.1612 30.7466 44.6964 31.2831L49.1626 35.7607C49.392 35.9907 49.5422 36.2922 49.5422 36.6728C49.5422 36.9714 49.3875 37.3596 49.1626 37.585L44.6964 42.0625C44.4716 42.2879 44.0846 42.4429 43.7873 42.4429C43.4899 42.4429 43.103 42.2879 42.8781 42.0625C42.3427 41.5257 42.3427 40.6869 42.8781 40.1501L44.7175 38.306ZM41.2474 15.8393L40.7654 15.8393L41.1058 16.1806L42.9452 18.0246C43.4806 18.5615 43.4806 19.4003 42.9452 19.9371C42.7203 20.1625 42.3334 20.3175 42.036 20.3175C41.7387 20.3175 41.3517 20.1625 41.1269 19.9371L36.6603 15.4586L36.5187 15.5998L36.6603 15.4586C36.1249 14.9218 36.1249 14.0829 36.6603 13.5461L41.1265 9.06858C41.6617 8.53203 42.4976 8.53202 43.0327 9.06857C43.5682 9.60541 43.5682 10.4442 43.0327 10.981L41.1933 12.8251L40.853 13.1664H41.3349H59.6383C62.2399 13.1664 64.2552 15.2689 64.2552 17.7954V33.5113C64.2552 36.1207 62.1572 38.1403 59.6384 38.1403L56.8356 38.1397C56.0711 38.1397 55.4595 37.5279 55.4595 36.7597C55.4595 35.992 56.0706 35.3796 56.8356 35.3796H59.6383C60.7126 35.3796 61.5897 34.4996 61.5897 33.4238V17.7957C61.5897 16.72 60.7126 15.8399 59.6384 15.8399L41.2474 15.8393Z" fill="#6C96F9" stroke="#F5F8FF" stroke-width="0.4"/>
</g>
<defs>
<clipPath id="clip0_792_94885">
<rect width="86" height="59" fill="white" transform="translate(0 0.5)"/>
</clipPath>
</defs>
</svg>
