<svg width="88" height="89" viewBox="0 0 88 89" fill="none" xmlns="http://www.w3.org/2000/svg">
<path d="M39.2595 22.9616L38.7891 25.7054C38.6854 26.3103 38.9296 26.9101 39.4257 27.2713C39.7065 27.4748 40.0345 27.5785 40.365 27.5785C40.619 27.5785 40.875 27.5174 41.1112 27.3929L43.5756 26.0974L46.0395 27.3929C46.5828 27.6782 47.2283 27.6311 47.7251 27.2713C48.2212 26.9106 48.4653 26.3108 48.3616 25.7054L47.8913 22.9616L49.8843 21.0186C50.3239 20.5909 50.4792 19.9622 50.2902 19.3783C50.1007 18.7943 49.6055 18.377 48.9977 18.2887L46.2429 17.8883L45.0109 15.3921C44.7395 14.8419 44.1892 14.5 43.576 14.5H43.5755C42.9617 14.5 42.4119 14.8419 42.14 15.3921L40.9085 17.8883L38.1537 18.2887C37.5464 18.377 37.0513 18.7943 36.8612 19.3783C36.6722 19.9623 36.827 20.5909 37.2666 21.0181L39.2596 22.9611L39.2595 22.9616ZM41.2561 19.6348C41.7776 19.5589 42.2281 19.2319 42.4613 18.7596L43.5752 16.5025L44.6891 18.7596C44.9223 19.232 45.3728 19.5589 45.8943 19.6348L48.385 19.9965L46.5828 21.7535C46.2058 22.1211 46.0336 22.651 46.1229 23.17L46.5481 25.6503L44.3208 24.4793C44.0877 24.3568 43.8316 24.2957 43.5761 24.2957C43.3201 24.2957 43.0646 24.3568 42.8313 24.4793L40.6036 25.6503L41.0288 23.17C41.1176 22.651 40.9459 22.1211 40.5688 21.7535L38.7667 19.9965L41.2574 19.6348H41.2561ZM67.0117 25.0688C66.8222 24.4848 66.327 24.0676 65.7192 23.9792L62.9644 23.5788L61.7324 21.0827C61.461 20.5319 60.9108 20.1906 60.2975 20.1906C59.6832 20.1906 59.1335 20.5329 58.862 21.0827L57.6306 23.5788L54.8754 23.9792C54.2681 24.0676 53.7729 24.4848 53.5834 25.0683C53.3938 25.6518 53.5491 26.2805 53.9882 26.7086L55.9818 28.6517L55.5114 31.3955C55.4077 32.0003 55.6513 32.6002 56.148 32.9609C56.6452 33.3216 57.2912 33.3687 57.8335 33.083L60.298 31.7875L62.7619 33.083C62.9985 33.2075 63.2541 33.2685 63.5081 33.2685C63.8386 33.2685 64.1665 33.1648 64.4474 32.9614C64.9435 32.6007 65.1876 32.0008 65.0839 31.3955L64.6136 28.6516L66.6066 26.7086C67.0462 26.2809 67.2015 25.6523 67.0125 25.0683L67.0117 25.0688ZM63.3048 27.4439C62.9277 27.8116 62.7556 28.3415 62.8449 28.8605L63.2701 31.3408L61.0428 30.1698C60.5759 29.9247 60.0187 29.9247 59.5533 30.1698L57.3255 31.3413L57.7507 28.8604C57.8395 28.342 57.6678 27.8125 57.2907 27.4439L55.4882 25.687L57.9789 25.3253C58.4994 25.2494 58.9499 24.9229 59.1841 24.4501L60.298 22.1929L61.4119 24.4501C61.6451 24.9224 62.0956 25.2494 62.6171 25.3253L65.1078 25.687L63.3057 27.4439L63.3048 27.4439ZM29.2574 33.0829C29.7997 33.3692 30.4472 33.3221 30.9429 32.9609C31.4396 32.6002 31.6832 32.0003 31.5795 31.3955L31.1092 28.6517L33.1027 26.7086C33.5423 26.2804 33.6971 25.6518 33.5076 25.0683C33.3181 24.4843 32.8229 24.0676 32.2156 23.9792L29.4604 23.5788L28.2289 21.0827C27.9575 20.5319 27.4072 20.1906 26.7935 20.1906C26.1797 20.1906 25.6299 20.5329 25.3585 21.0827L24.1266 23.5788L21.3718 23.9792C20.7645 24.0676 20.2693 24.4848 20.0792 25.0688C19.8902 25.6528 20.045 26.2815 20.4846 26.7086L22.4776 28.6516L22.0073 31.3955C21.9036 32.0003 22.1477 32.6002 22.6439 32.9614C22.9247 33.1648 23.2527 33.2685 23.5831 33.2685C23.8371 33.2685 24.0932 33.2075 24.3293 33.083L26.7938 31.7875L29.2582 33.083L29.2574 33.0829ZM23.8209 31.3414L24.2461 28.8611C24.3349 28.3421 24.1632 27.8122 23.7861 27.4446L21.984 25.6877L24.4747 25.3259C24.9962 25.25 25.4467 24.9231 25.6799 24.4507L26.7938 22.1936L27.9082 24.4516C28.1414 24.9234 28.5919 25.2499 29.1129 25.3258L31.6036 25.6876L29.8006 27.4455C29.4235 27.8136 29.2523 28.3431 29.3411 28.8615L29.7663 31.3423L27.5391 30.1713C27.3059 30.0483 27.0498 29.9868 26.7938 29.9868C26.5383 29.9868 26.2823 30.0483 26.0491 30.1709L23.8213 31.3418L23.8209 31.3414ZM58.6723 60.5989L50.4132 57.0647L47.9646 55.8204V54.76C49.8371 53.4606 51.2809 51.3623 51.9782 48.8477C52.0694 48.8561 52.1583 48.878 52.2515 48.878C53.9236 48.878 55.2841 47.5175 55.2841 45.8454C55.2841 44.7211 54.6614 43.7486 53.75 43.2251V41.9931C53.75 33.6258 48.4911 30.6442 43.57 30.6442C38.649 30.6442 33.3906 33.6258 33.3906 41.9931V43.1993C32.4529 43.7158 31.8089 44.7012 31.8089 45.8454C31.8089 47.5174 33.1694 48.8779 34.8414 48.8779C34.9496 48.8779 35.0558 48.8611 35.1625 48.8497C35.8233 51.2308 37.1546 53.2363 38.8847 54.5462V55.9444L36.6798 57.0648L28.433 60.5935C26.0802 61.5585 24.5599 63.8246 24.5599 66.3669V70.4588C24.5599 70.823 24.7817 71.1499 25.1201 71.2849C25.6044 71.4779 33.3738 74.5005 43.9596 74.5C49.4154 74.5 55.62 73.6972 61.9594 71.2902C62.3047 71.1593 62.533 70.8283 62.533 70.4591V66.3672C62.533 63.8248 61.0127 61.5589 58.6722 60.5988L58.6723 60.5989ZM47.8043 57.734L48.9301 58.3061L47.5766 62.0115L45.7403 60.1137C46.7411 59.6721 47.4982 58.7987 47.8043 57.734ZM52.3273 47.0922C52.3968 46.5524 52.4434 46.0032 52.4434 45.44C52.4434 45.1572 52.4345 44.8798 52.4166 44.6084C53.0299 44.6903 53.5057 45.2107 53.5057 45.8453C53.5057 46.5107 52.9833 47.0515 52.3273 47.0917L52.3273 47.0922ZM43.57 32.4241C48.9093 32.4241 51.9717 35.9122 51.9717 41.9947V42.2036C51.6849 41.308 51.2711 40.5027 50.7243 39.7981C50.5551 39.5803 50.305 39.4746 50.0495 39.4667C50.0406 39.4657 50.0331 39.4602 50.0237 39.4592L46.2905 39.1729C45.9809 39.1471 45.6822 39.2881 45.5006 39.5401C45.3195 39.7917 45.2823 40.1196 45.4034 40.4054L45.7234 41.1621C42.3753 40.8743 40.2686 38.9879 39.6736 38.384C39.6627 38.3627 39.6627 38.3389 39.6498 38.3181C39.4945 38.0605 39.2276 37.9261 38.9487 37.9062C38.9041 37.8998 38.8614 37.8993 38.8167 37.8998C38.7855 37.9023 38.7557 37.9047 38.7249 37.9102C38.5542 37.9296 38.3865 37.9816 38.2461 38.1012C38.2248 38.1191 38.2159 38.1444 38.197 38.1642C37.0563 38.9085 35.8238 40.1523 35.1684 42.1971V41.9941C35.1684 35.9121 38.2307 32.4235 43.5695 32.4235L43.57 32.4241ZM33.5871 45.8462C33.5871 45.1942 34.0887 44.6638 34.7253 44.6043C34.7074 44.8742 34.6965 45.1516 34.6965 45.4408C34.6965 46.0055 34.7437 46.5562 34.8131 47.098C34.1349 47.0826 33.5871 46.5284 33.5871 45.8467L33.5871 45.8462ZM36.4747 45.4403C36.4747 42.9819 37.2423 41.144 38.7496 39.9572C39.8854 40.9897 42.589 42.9768 46.5856 42.9768C46.7592 42.9768 46.9354 42.9728 47.114 42.9654C47.4052 42.9525 47.6712 42.7982 47.827 42.5521C47.9828 42.306 48.0081 41.9993 47.8945 41.7304L47.6097 41.0566L49.5417 41.205C50.285 42.3149 50.6656 43.7349 50.6656 45.4403C50.6656 50.3831 47.4826 54.4045 43.5704 54.4045C39.6576 54.4045 36.4753 50.3831 36.4753 45.4403L36.4747 45.4403ZM43.5699 56.1828C44.4804 56.1828 45.3586 56.0146 46.1862 55.705V56.7142C46.1862 57.7839 45.3159 58.6542 44.2458 58.6542H42.7608C41.6042 58.6542 40.6629 57.7129 40.6629 56.5563V55.5779C41.5754 55.9624 42.5508 56.1822 43.57 56.1822L43.5699 56.1828ZM39.1034 57.8286C39.472 58.8854 40.2833 59.7344 41.3168 60.1511L39.5162 62.0117L38.1627 58.3063L39.1034 57.828L39.1034 57.8286ZM60.755 69.8418C44.7964 75.6519 29.4284 70.9135 26.3393 69.8373V66.3682C26.3393 64.5503 27.4264 62.9303 29.1207 62.2351L36.5443 59.0586L38.0085 63.0662C38.1851 63.549 38.5905 63.9007 39.0936 64.0079C39.1978 64.0298 39.302 64.0407 39.4052 64.0407C39.8021 64.0407 40.1837 63.8814 40.4675 63.5887L42.5365 61.4502V67.5099C42.5365 68.0011 42.9344 68.399 43.4256 68.399C43.9168 68.399 44.3148 68.0011 44.3148 67.5099V61.1982L46.6274 63.5887C46.9107 63.8819 47.2928 64.0407 47.6897 64.0407C47.7929 64.0407 47.8976 64.0298 48.0013 64.0079C48.5044 63.9008 48.9098 63.549 49.0864 63.0662L50.5506 59.0586L57.9866 62.2406C59.6686 62.9302 60.7558 64.5508 60.7558 66.3682V69.8419L60.755 69.8418ZM52.9131 67.5793C52.9131 68.0705 52.5152 68.4685 52.024 68.4685H48.0487C47.5575 68.4685 47.1596 68.0705 47.1596 67.5793C47.1596 67.0881 47.5575 66.6902 48.0487 66.6902H52.024C52.5152 66.6902 52.9131 67.0881 52.9131 67.5793Z" fill="#6C96F9"/>
</svg>
