<svg width="24" height="24" viewBox="0 0 24 24" fill="none" xmlns="http://www.w3.org/2000/svg">
<path d="M16.436 1.875H7.47118C6.9766 1.87746 6.50298 2.0758 6.15326 2.4269C5.80353 2.778 5.60597 3.25348 5.60352 3.75V20.25C5.60597 20.7465 5.80353 21.222 6.15326 21.5731C6.50298 21.9242 6.9766 22.1225 7.47118 22.125H16.436C16.9306 22.1225 17.4042 21.9242 17.7539 21.5731C18.1036 21.222 18.3012 20.7465 18.3037 20.25V3.75C18.3012 3.25348 18.1036 2.778 17.7539 2.4269C17.4042 2.0758 16.9306 1.87746 16.436 1.875ZM6.35058 5.625H17.5566V18.375H6.35058V5.625ZM7.47118 2.625H16.436C16.7332 2.625 17.0182 2.74353 17.2284 2.9545C17.4385 3.16548 17.5566 3.45163 17.5566 3.75V4.875H6.35058V3.75C6.35058 3.45163 6.46865 3.16548 6.6788 2.9545C6.88895 2.74353 7.17398 2.625 7.47118 2.625ZM16.436 21.375H7.47118C7.17398 21.375 6.88895 21.2565 6.6788 21.0455C6.46865 20.8345 6.35058 20.5484 6.35058 20.25V19.125H17.5566V20.25C17.5566 20.5484 17.4385 20.8345 17.2284 21.0455C17.0182 21.2565 16.7332 21.375 16.436 21.375Z" fill="white"/>
</svg>
