<svg width="88" height="89" viewBox="0 0 88 89" fill="none" xmlns="http://www.w3.org/2000/svg">
<path d="M64.5405 29.744L64.0141 30.1855H64.6891C70.1206 32.1993 74.1192 36.9861 74.7395 42.8838L74.7396 42.8847C74.8163 43.5888 74.3081 44.2198 73.6016 44.3037H73.4459C72.8019 44.3037 72.2322 43.7986 72.168 43.1415L72.1677 43.1393C71.4749 36.6512 65.8396 31.7676 59.0591 31.7518H59.0585H59.012L58.9656 31.7518L58.9644 31.7518C52.2004 31.7833 46.5495 36.6506 45.8564 43.1084C45.7787 43.8204 45.1305 44.3362 44.4365 44.2592L44.4359 44.2591C43.7227 44.1815 43.2078 43.5475 43.285 42.8387L43.2851 42.8385C43.9216 36.9557 47.9399 32.16 53.3767 30.1703L53.7846 30.021L53.4507 29.7433C51.577 28.1847 50.395 25.8639 50.395 23.2586C50.395 18.5728 54.2586 14.75 58.996 14.75C63.7328 14.75 67.597 18.5728 67.597 23.2586C67.597 25.8478 66.3994 28.1847 64.5405 29.744ZM52.9628 23.2586V23.5086H52.9683C53.1018 26.6496 55.7375 29.1676 58.9479 29.1834H58.9491H58.9801L59.011 29.1834L59.0123 29.1834C62.3064 29.1671 64.9971 26.5308 64.9971 23.2586C64.9971 19.9862 62.2909 17.3339 58.98 17.3339C55.6696 17.3339 52.9628 19.9862 52.9628 23.2586Z" fill="#6C96F9" stroke="#F5F8FF" stroke-width="0.5"/>
<path d="M32.6008 53.9638L32.5276 53.8906C32.0238 53.3867 31.2109 53.3867 30.707 53.8906C30.707 53.8906 30.707 53.8906 30.707 53.8906L29.612 54.9857L29.4352 55.1625L29.2584 54.9857L28.1633 53.8906C27.6595 53.3867 26.8466 53.3867 26.3427 53.8906M32.6008 53.9638L26.3427 53.8906M32.6008 53.9638H32.6276M32.6008 53.9638H32.6276M26.3427 53.8906C25.8389 54.3945 25.8389 55.2073 26.3427 55.7112M26.3427 53.8906L26.3427 55.7112M26.3427 55.7112C26.3427 55.7112 26.3427 55.7112 26.3427 55.7112L26.3427 55.7112ZM32.6276 53.9638C33.0625 54.4704 33.0398 55.231 32.5597 55.7112L31.4646 56.8063L31.2878 56.983L31.4646 57.1598L32.5597 58.2549C32.5597 58.2549 32.5597 58.2549 32.5597 58.2549C33.0628 58.758 33.0636 59.5691 32.562 60.0731C32.2984 60.322 31.9752 60.4494 31.6414 60.4494C31.3007 60.4494 30.9805 60.3328 30.7231 60.0755L29.628 58.9804L29.4512 58.8036L29.2744 58.9804L28.1818 60.073C27.9182 60.3219 27.5949 60.4494 27.2611 60.4494C26.9203 60.4494 26.6001 60.3328 26.3427 60.0755C26.3427 60.0755 26.3427 60.0755 26.3427 60.0755L32.6276 53.9638Z" fill="#6C96F9" stroke="#F5F8FF" stroke-width="0.5"/>
<path d="M18.875 56.9819C18.875 51.152 23.59 46.4375 29.4194 46.4375C35.2492 46.4375 39.9637 51.1525 39.9637 56.9819C39.9637 62.8117 35.2487 67.5262 29.4194 67.5262C23.5895 67.5262 18.875 62.8112 18.875 56.9819ZM21.4594 56.9819C21.4594 61.3758 25.0254 64.9418 29.4194 64.9418C33.8133 64.9418 37.3793 61.3758 37.3793 56.9819C37.3793 52.5879 33.8133 49.0219 29.4194 49.0219C25.0254 49.0219 21.4594 52.5879 21.4594 56.9819Z" fill="#6C96F9" stroke="#F5F8FF" stroke-width="0.5"/>
<path d="M54.0951 46.4375C59.925 46.4375 64.6395 51.1525 64.6395 56.9819C64.6395 62.8117 59.9245 67.5262 54.0951 67.5262C48.2653 67.5262 43.5508 62.8112 43.5508 56.9819C43.5508 51.152 48.2658 46.4375 54.0951 46.4375ZM54.0951 49.0219C49.7012 49.0219 46.1352 52.5879 46.1352 56.9819C46.1352 61.3758 49.7012 64.9418 54.0951 64.9418C58.4891 64.9418 62.0551 61.3758 62.0551 56.9819C62.0551 52.5879 58.4891 49.0219 54.0951 49.0219Z" fill="#6C96F9" stroke="#F5F8FF" stroke-width="0.5"/>
<path d="M55.2417 60.7097L55.2474 60.7139C55.0664 61.0751 54.7111 61.3283 54.301 61.3922L54.301 61.392L54.2901 61.3942C54.2416 61.4039 54.1891 61.4047 54.1082 61.4047C53.7539 61.4047 53.4206 61.2739 53.1794 61.02L53.1794 61.02L53.1775 61.018L50.0936 57.8412L50.0937 57.8412L50.091 57.8386C49.5896 57.3371 49.6017 56.5123 50.1174 56.0225L50.1175 56.0225L50.122 56.018C50.6235 55.5165 51.4483 55.5287 51.9381 56.0443L51.9381 56.0444L51.94 56.0464L53.5126 57.6655L53.7573 57.9174L53.9153 57.6038L56.0578 53.3491C56.0579 53.3489 56.058 53.3487 56.0581 53.3485C56.3824 52.7143 57.1579 52.458 57.7878 52.7797L57.9014 52.557L57.7878 52.7797C58.4224 53.1037 58.6789 53.8795 58.3572 54.5096L58.3565 54.511L55.2417 60.7097Z" fill="#6C96F9" stroke="#F5F8FF" stroke-width="0.5"/>
<path d="M24.5448 32.8498C24.5448 33.5631 23.9665 34.1415 23.2526 34.1415C22.5393 34.1415 21.9609 33.5631 21.9609 32.8498C21.9609 32.1359 22.5394 31.5576 23.2526 31.5576C23.9664 31.5576 24.5448 32.136 24.5448 32.8498Z" fill="#6C96F9" stroke="#F5F8FF" stroke-width="0.5"/>
<path d="M30.7133 32.8498C30.7133 33.563 30.1345 34.1415 29.4211 34.1415C28.7072 34.1415 28.1289 33.5631 28.1289 32.8498C28.1289 32.136 28.7073 31.5576 29.4211 31.5576C30.1345 31.5576 30.7133 32.136 30.7133 32.8498Z" fill="#6C96F9" stroke="#F5F8FF" stroke-width="0.5"/>
<path d="M36.8808 32.8498C36.8808 33.5631 36.3024 34.1415 35.5891 34.1415C34.8752 34.1415 34.2969 33.5631 34.2969 32.8498C34.2969 32.136 34.8753 31.5576 35.5891 31.5576C36.3023 31.5576 36.8808 32.1359 36.8808 32.8498Z" fill="#6C96F9" stroke="#F5F8FF" stroke-width="0.5"/>
<path d="M17.0844 40.3248H16.8344V40.5748V68.3313C16.8344 70.1654 18.3342 71.6651 20.1683 71.6651H63.3455C65.1796 71.6651 66.6794 70.1654 66.6794 68.3313V50.768C66.6794 50.0578 67.2614 49.4758 67.9716 49.4758C68.6818 49.4758 69.2638 50.0578 69.2638 50.768V68.3312C69.2638 71.6013 66.6155 74.2495 63.3455 74.2495H20.1683C16.8983 74.2495 14.25 71.6013 14.25 68.3312V31.3226C14.25 28.0526 16.8983 25.4043 20.1683 25.4043H43.2987C44.0089 25.4043 44.5909 25.9863 44.5909 26.6965C44.5909 27.4067 44.0089 27.9887 43.2987 27.9887H20.1683C18.335 27.9887 16.8344 29.4722 16.8344 31.3226V37.4909V37.7409L17.0844 37.7409L37.1312 37.7404C37.8414 37.7404 38.4234 38.3223 38.4234 39.0326C38.4234 39.7428 37.8414 40.3248 37.1312 40.3248H17.0844Z" fill="#6C96F9" stroke="#F5F8FF" stroke-width="0.5"/>
</svg>
