<svg width="88" height="89" viewBox="0 0 88 89" fill="none" xmlns="http://www.w3.org/2000/svg">
<path d="M19.9086 55.1451C19.9086 47.7292 25.9412 41.6967 33.357 41.6967C40.7729 41.6967 46.8055 47.7292 46.8055 55.1451C46.8055 62.561 40.7729 68.5936 33.357 68.5936C25.9412 68.5936 19.9086 62.561 19.9086 55.1451ZM21.6441 55.1451C21.6441 61.6038 26.8983 66.8581 33.357 66.8581C39.8158 66.8581 45.07 61.6038 45.07 55.1451C45.07 48.6864 39.8158 43.4322 33.357 43.4322C26.8983 43.4322 21.6441 48.6864 21.6441 55.1451Z" fill="#6C96F9" stroke="#F5F8FF" stroke-width="0.2"/>
<path d="M41.0851 53.8045C40.998 53.2971 40.8604 52.7989 40.6763 52.3216L42.2859 51.6742C42.519 52.2723 42.6916 52.8965 42.799 53.5321L41.0851 53.8045Z" fill="#6C96F9" stroke="#F5F8FF" stroke-width="0.2"/>
<path d="M42.9067 55.8476C42.86 56.4919 42.7483 57.1289 42.5749 57.7454L40.9087 57.2577C41.0464 56.7649 41.1347 56.256 41.1743 55.7407L42.9067 55.8476Z" fill="#6C96F9" stroke="#F5F8FF" stroke-width="0.2"/>
<path d="M39.2658 60.2982C39.6038 59.911 39.9051 59.4891 40.1619 59.0421L41.6771 59.8898C41.3578 60.4477 40.9818 60.9732 40.5589 61.4558L39.2658 60.2982Z" fill="#6C96F9" stroke="#F5F8FF" stroke-width="0.2"/>
<path d="M33.5382 45.5679H33.5626C34.9953 45.581 36.158 46.7509 36.1587 48.1871L36.131 48.6647L35.2981 55.2614L35.298 55.2622C35.1822 56.2386 34.3471 56.9807 33.3564 56.9807C32.3659 56.9807 31.5306 56.2389 31.4139 55.2536L31.4139 55.2533L30.5531 48.1832C30.5564 46.7412 31.7317 45.5679 33.1753 45.5679H33.5382ZM33.5756 55.0503L33.5757 55.0499L34.4242 48.1396L34.425 48.1397L34.4249 48.127C34.4229 47.6951 34.0211 47.3034 33.5373 47.3034H33.1744C32.6955 47.3034 32.3037 47.6861 32.2886 48.1619L32.2882 48.1618L32.2888 48.1714L32.313 48.5533L32.3128 48.5533L32.3136 48.5595L33.1361 55.0425L33.1362 55.0427C33.153 55.1742 33.264 55.2317 33.3567 55.2317C33.4449 55.2317 33.5595 55.1779 33.5756 55.0503Z" fill="#6C96F9" stroke="#F5F8FF" stroke-width="0.2"/>
<path d="M30.5531 61.9198C30.5531 60.3744 31.8109 59.1166 33.3564 59.1166C34.9018 59.1166 36.1596 60.3744 36.1596 61.9198C36.1596 63.4653 34.9018 64.7231 33.3564 64.7231C31.8109 64.7231 30.5531 63.4653 30.5531 61.9198ZM32.2886 61.9198C32.2886 62.5091 32.7671 62.9876 33.3564 62.9876C33.9456 62.9876 34.4241 62.5091 34.4241 61.9198C34.4241 61.3306 33.9456 60.8521 33.3564 60.8521C32.7671 60.8521 32.2886 61.3306 32.2886 61.9198Z" fill="#6C96F9" stroke="#F5F8FF" stroke-width="0.2"/>
<mask id="path-7-inside-1_795_121698" fill="white">
<path d="M48.3957 46.3872L48.8554 45.4679H67.226C70.9605 45.4679 74.0002 42.4281 74.0002 38.6936C74.0002 35.3065 71.5013 32.4923 68.1928 31.9998C68.1937 31.9726 68.1937 31.9454 68.1937 31.9195C68.1937 27.6505 64.7206 24.1775 60.4517 24.1775C59.1132 24.1775 57.8535 24.5192 56.7539 25.1193C54.7951 22.1357 51.4884 20.3065 47.871 20.3065C45.8889 20.3065 44.039 20.8612 42.4487 21.8073C41.0494 20.6671 39.2667 20.1216 37.4039 20.3557C35.8883 16.8208 32.4161 14.5 28.5162 14.5C23.1802 14.5 18.8388 18.8415 18.8388 24.1775C18.8388 24.8532 18.9161 25.5167 19.0526 26.1682C16.2065 26.5398 14 28.9734 14 31.9194C14 35.1216 16.6043 37.7259 19.8065 37.7259H29.1084L28.9132 38.3122C27.4024 38.7101 25.9546 39.311 24.5972 40.1042L22.2155 38.913L17.1223 44.0063L18.3134 46.388C17.5206 47.7459 16.9196 49.1936 16.5214 50.7039L14 51.5443V58.7453L16.5218 59.5864C16.9197 61.0972 17.5207 62.545 18.3139 63.9024L17.1227 66.2841L22.2159 71.3773L24.5977 70.1862C25.9555 70.979 27.4033 71.5799 28.9136 71.9782L29.7539 74.5H36.9549L37.7961 71.9782C39.3069 71.5803 40.7546 70.9794 42.112 70.1862L44.4938 71.3773L49.587 66.2841L48.3958 63.9024C49.1886 62.5445 49.7896 61.0968 50.1879 59.5864L52.7097 58.7461V51.5451L50.1879 50.7039C49.7891 49.1936 49.1882 47.7459 48.3954 46.3871L48.3957 46.3872ZM55.1885 26.2592C53.6682 27.6732 52.71 29.6844 52.71 31.9197H54.6455C54.6455 28.7175 57.2497 26.1132 60.4519 26.1132C63.6541 26.1132 66.2584 28.7175 66.2584 31.9197C66.2584 32.1655 66.2372 32.4308 66.1906 32.7539L66.1102 33.8552H67.2262C69.8944 33.8552 72.0649 36.0257 72.0649 38.6939C72.0649 41.3621 69.8944 43.5326 67.2262 43.5326H49.1133L44.494 38.9133L42.1122 40.1045C40.7544 39.3117 39.3067 38.7107 37.7963 38.3125L36.9556 35.7907H34.3254C35.2236 34.5965 36.6462 33.8552 38.1934 33.8552C40.2413 33.8552 42.0752 35.1522 42.7565 37.0807L44.5827 36.4361C43.7446 34.0643 41.6631 32.3784 39.2282 32.0009C39.1863 31.6535 39.1612 31.3031 39.1612 30.9519C39.1612 26.149 43.068 22.2422 47.8709 22.2422C50.8623 22.2422 53.5922 23.7711 55.1882 26.2592L55.1885 26.2592ZM19.8066 35.7907C17.6719 35.7907 15.9356 34.0544 15.9356 31.9197C15.9356 29.785 17.6719 28.0487 19.8066 28.0487C21.9413 28.0487 23.6776 29.785 23.6776 31.9197H25.6131C25.6131 29.1482 23.6604 26.8282 21.0599 26.2537C20.8729 25.5819 20.7744 24.8872 20.7744 24.1777C20.7744 19.9088 24.2474 16.4358 28.5163 16.4358C31.8645 16.4358 34.8183 18.5743 35.8664 21.7566L36.1481 22.612L37.0208 22.3925C38.4029 22.0482 39.7266 22.3066 40.8066 23.0108C38.6158 24.9626 37.226 27.7942 37.226 30.9519C37.226 31.2993 37.2502 31.6458 37.2839 31.9914C35.0282 32.2981 33.0742 33.7286 32.0918 35.7907L19.8066 35.7907ZM50.7745 57.3509L48.5543 58.0914L48.4325 58.622C48.0493 60.2914 47.3891 61.8803 46.4719 63.3453L46.1833 63.8068L47.2322 65.9038L44.1121 69.024L42.015 67.975L41.5536 68.2636C40.0886 69.1812 38.4997 69.841 36.8303 70.2242L36.2997 70.346L35.5605 72.5649H31.1486L30.4081 70.3447L29.8776 70.2229C28.2082 69.8396 26.6192 69.1795 25.1542 68.2623L24.6928 67.9737L22.5975 69.0231L19.4774 65.9029L20.5263 63.8059L20.2377 63.3444C19.3201 61.8794 18.6604 60.2905 18.2771 58.6211L18.1553 58.0905L15.9356 57.3509V52.939L18.1557 52.1985L18.2776 51.6679C18.6608 49.9986 19.3209 48.4096 20.2382 46.9446L20.5268 46.4832L19.4774 44.3879L22.5975 41.2677L24.6946 42.3167L25.156 42.0281C26.621 41.1105 28.21 40.4507 29.8794 40.0675L30.4099 39.9457L31.1495 37.7259H35.5606L36.3011 39.9461L36.8316 40.068C38.501 40.4512 40.09 41.1113 41.555 42.0286L42.0164 42.3172L44.1135 41.2682L47.2336 44.3883L46.1846 46.4854L46.4732 46.9468C47.3908 48.4118 48.0506 50.0008 48.4338 51.6702L48.5556 52.2007L50.7745 52.9399V57.3509Z"/>
</mask>
<path d="M48.3957 46.3872L48.8554 45.4679H67.226C70.9605 45.4679 74.0002 42.4281 74.0002 38.6936C74.0002 35.3065 71.5013 32.4923 68.1928 31.9998C68.1937 31.9726 68.1937 31.9454 68.1937 31.9195C68.1937 27.6505 64.7206 24.1775 60.4517 24.1775C59.1132 24.1775 57.8535 24.5192 56.7539 25.1193C54.7951 22.1357 51.4884 20.3065 47.871 20.3065C45.8889 20.3065 44.039 20.8612 42.4487 21.8073C41.0494 20.6671 39.2667 20.1216 37.4039 20.3557C35.8883 16.8208 32.4161 14.5 28.5162 14.5C23.1802 14.5 18.8388 18.8415 18.8388 24.1775C18.8388 24.8532 18.9161 25.5167 19.0526 26.1682C16.2065 26.5398 14 28.9734 14 31.9194C14 35.1216 16.6043 37.7259 19.8065 37.7259H29.1084L28.9132 38.3122C27.4024 38.7101 25.9546 39.311 24.5972 40.1042L22.2155 38.913L17.1223 44.0063L18.3134 46.388C17.5206 47.7459 16.9196 49.1936 16.5214 50.7039L14 51.5443V58.7453L16.5218 59.5864C16.9197 61.0972 17.5207 62.545 18.3139 63.9024L17.1227 66.2841L22.2159 71.3773L24.5977 70.1862C25.9555 70.979 27.4033 71.5799 28.9136 71.9782L29.7539 74.5H36.9549L37.7961 71.9782C39.3069 71.5803 40.7546 70.9794 42.112 70.1862L44.4938 71.3773L49.587 66.2841L48.3958 63.9024C49.1886 62.5445 49.7896 61.0968 50.1879 59.5864L52.7097 58.7461V51.5451L50.1879 50.7039C49.7891 49.1936 49.1882 47.7459 48.3954 46.3871L48.3957 46.3872ZM55.1885 26.2592C53.6682 27.6732 52.71 29.6844 52.71 31.9197H54.6455C54.6455 28.7175 57.2497 26.1132 60.4519 26.1132C63.6541 26.1132 66.2584 28.7175 66.2584 31.9197C66.2584 32.1655 66.2372 32.4308 66.1906 32.7539L66.1102 33.8552H67.2262C69.8944 33.8552 72.0649 36.0257 72.0649 38.6939C72.0649 41.3621 69.8944 43.5326 67.2262 43.5326H49.1133L44.494 38.9133L42.1122 40.1045C40.7544 39.3117 39.3067 38.7107 37.7963 38.3125L36.9556 35.7907H34.3254C35.2236 34.5965 36.6462 33.8552 38.1934 33.8552C40.2413 33.8552 42.0752 35.1522 42.7565 37.0807L44.5827 36.4361C43.7446 34.0643 41.6631 32.3784 39.2282 32.0009C39.1863 31.6535 39.1612 31.3031 39.1612 30.9519C39.1612 26.149 43.068 22.2422 47.8709 22.2422C50.8623 22.2422 53.5922 23.7711 55.1882 26.2592L55.1885 26.2592ZM19.8066 35.7907C17.6719 35.7907 15.9356 34.0544 15.9356 31.9197C15.9356 29.785 17.6719 28.0487 19.8066 28.0487C21.9413 28.0487 23.6776 29.785 23.6776 31.9197H25.6131C25.6131 29.1482 23.6604 26.8282 21.0599 26.2537C20.8729 25.5819 20.7744 24.8872 20.7744 24.1777C20.7744 19.9088 24.2474 16.4358 28.5163 16.4358C31.8645 16.4358 34.8183 18.5743 35.8664 21.7566L36.1481 22.612L37.0208 22.3925C38.4029 22.0482 39.7266 22.3066 40.8066 23.0108C38.6158 24.9626 37.226 27.7942 37.226 30.9519C37.226 31.2993 37.2502 31.6458 37.2839 31.9914C35.0282 32.2981 33.0742 33.7286 32.0918 35.7907L19.8066 35.7907ZM50.7745 57.3509L48.5543 58.0914L48.4325 58.622C48.0493 60.2914 47.3891 61.8803 46.4719 63.3453L46.1833 63.8068L47.2322 65.9038L44.1121 69.024L42.015 67.975L41.5536 68.2636C40.0886 69.1812 38.4997 69.841 36.8303 70.2242L36.2997 70.346L35.5605 72.5649H31.1486L30.4081 70.3447L29.8776 70.2229C28.2082 69.8396 26.6192 69.1795 25.1542 68.2623L24.6928 67.9737L22.5975 69.0231L19.4774 65.9029L20.5263 63.8059L20.2377 63.3444C19.3201 61.8794 18.6604 60.2905 18.2771 58.6211L18.1553 58.0905L15.9356 57.3509V52.939L18.1557 52.1985L18.2776 51.6679C18.6608 49.9986 19.3209 48.4096 20.2382 46.9446L20.5268 46.4832L19.4774 44.3879L22.5975 41.2677L24.6946 42.3167L25.156 42.0281C26.621 41.1105 28.21 40.4507 29.8794 40.0675L30.4099 39.9457L31.1495 37.7259H35.5606L36.3011 39.9461L36.8316 40.068C38.501 40.4512 40.09 41.1113 41.555 42.0286L42.0164 42.3172L44.1135 41.2682L47.2336 44.3883L46.1846 46.4854L46.4732 46.9468C47.3908 48.4118 48.0506 50.0008 48.4338 51.6702L48.5556 52.2007L50.7745 52.9399V57.3509Z" fill="#6C96F9" stroke="#F5F8FF" stroke-width="0.4" mask="url(#path-7-inside-1_795_121698)"/>
<path d="M24.5477 24.0776H22.8118C22.8648 21.0098 25.3497 18.5249 28.4174 18.472V20.2078C26.3068 20.2602 24.6001 21.9669 24.5477 24.0776Z" fill="#6C96F9" stroke="#F5F8FF" stroke-width="0.2"/>
<path d="M41.1984 30.852C41.2516 27.2518 44.1718 24.3317 47.7719 24.2785V26.0142C45.1277 26.067 42.9869 28.2077 42.9341 30.852H41.1984Z" fill="#6C96F9" stroke="#F5F8FF" stroke-width="0.2"/>
<path d="M60.5531 29.8867V28.1501C62.5533 28.2025 64.1705 29.8196 64.2228 31.8198H62.4862C62.4355 30.7765 61.5965 29.9374 60.5531 29.8867Z" fill="#6C96F9" stroke="#F5F8FF" stroke-width="0.2"/>
<path d="M67.3282 37.6311V35.8928C68.8276 35.9456 70.0315 37.1822 70.0315 38.6943C70.0315 40.2397 68.7737 41.4975 67.2282 41.4975H57.6508V39.762H67.2282C67.8174 39.762 68.296 39.2835 68.296 38.6943C68.296 38.1388 67.8707 37.6816 67.3282 37.6311Z" fill="#6C96F9" stroke="#F5F8FF" stroke-width="0.2"/>
<path d="M53.7797 39.7621H55.5152V41.4976H53.7797V39.7621Z" fill="#6C96F9" stroke="#F5F8FF" stroke-width="0.2"/>
<path d="M49.9086 39.7621H51.6441V41.4976H49.9086V39.7621Z" fill="#6C96F9" stroke="#F5F8FF" stroke-width="0.2"/>
<path d="M63.7781 65.5073L65.0054 64.2801L66.799 66.0737L65.5718 67.301L63.7781 65.5073Z" fill="#6C96F9" stroke="#F5F8FF" stroke-width="0.2"/>
<path d="M54.1024 55.8306L55.3296 54.6033L63.8979 63.1716L62.6706 64.3989L54.1024 55.8306Z" fill="#6C96F9" stroke="#F5F8FF" stroke-width="0.2"/>
<path d="M66.6844 62.604L67.9116 61.3768L69.7053 63.1704L68.478 64.3976L66.6844 62.604Z" fill="#6C96F9" stroke="#F5F8FF" stroke-width="0.2"/>
<path d="M63.7781 59.7007L65.0054 58.4735L66.799 60.2671L65.5718 61.4943L63.7781 59.7007Z" fill="#6C96F9" stroke="#F5F8FF" stroke-width="0.2"/>
<path d="M53.1336 49.0562L54.3609 47.8289L63.8969 57.365L62.6696 58.5922L53.1336 49.0562Z" fill="#6C96F9" stroke="#F5F8FF" stroke-width="0.2"/>
<path d="M69.5867 59.7007L70.814 58.4735L72.6076 60.2671L71.3804 61.4943L69.5867 59.7007Z" fill="#6C96F9" stroke="#F5F8FF" stroke-width="0.2"/>
<path d="M59.911 50.0239L61.1382 48.7967L69.7065 57.365L68.4792 58.5922L59.911 50.0239Z" fill="#6C96F9" stroke="#F5F8FF" stroke-width="0.2"/>
</svg>
