<svg width="41" height="40" viewBox="0 0 41 40" fill="none" xmlns="http://www.w3.org/2000/svg">
<path d="M18.0061 0.0894279C16.9738 0.230198 16.2856 0.344898 15.8998 0.438744L15.5661 0.522163L15.5974 5.48035C15.6182 8.20709 15.6443 12.5136 15.66 15.0526C15.6756 17.5917 15.6965 19.9274 15.7121 20.2454C15.7694 21.5176 16.1813 22.4456 17.0729 23.2902C17.5421 23.7334 18.0739 24.0514 18.6839 24.2599C19.1896 24.432 20.1437 24.4893 20.785 24.3851C22.4273 24.1244 23.8037 22.8627 24.2416 21.2256C24.3876 20.6886 24.398 19.6824 24.2729 19.1453C23.9862 17.9775 23.3032 16.9973 22.3751 16.4342C22.0102 16.2101 21.322 15.9494 20.6494 15.7825L20.4252 15.7252L20.4409 14.1454C20.4617 12.279 20.4565 12.2894 20.9153 12.2894C21.1969 12.2894 22.1457 12.5396 22.7922 12.7847C24.5284 13.4364 25.9882 14.6929 26.9058 16.33C27.9068 18.1026 28.1519 20.2976 27.5836 22.3309C27.2447 23.5352 26.6816 24.4737 25.6597 25.5321C24.763 26.4653 24.0852 26.9085 22.761 27.4298C21.786 27.8157 21.2229 27.9356 20.248 27.9669C18.7882 28.0138 17.954 27.8313 16.6036 27.1796C15.7747 26.7781 15.1699 26.3558 14.5442 25.7354C12.9853 24.2078 12.2867 22.5134 12.0834 19.7971C12 18.7178 12.0573 15.0631 12.172 13.671C12.2763 12.4406 12.2971 10.0684 12.2398 5.74625C12.2033 2.9413 12.1668 1.71609 12.1147 1.66395C12.099 1.64831 11.7966 1.77865 11.4369 1.95592L10.7904 2.27395L10.8217 7.2947C10.8425 10.6992 10.8321 12.7273 10.7956 13.5928C10.6131 17.5343 10.707 20.5635 11.0667 22.2996C11.317 23.504 11.9687 24.8543 12.7977 25.897C13.1313 26.3193 14.2366 27.3569 14.6746 27.6592C15.8476 28.483 17.1771 29.0252 18.6317 29.2651C19.3564 29.385 20.811 29.3902 21.4732 29.2703C23.9914 28.8115 25.983 27.6123 27.4897 25.6363C28.3865 24.4581 28.8714 23.3945 29.1946 21.8825C29.3302 21.236 29.3823 19.8492 29.2989 19.1401C28.9131 15.9181 26.9058 13.1079 24.0122 11.7472C23.1103 11.3196 22.3022 11.085 20.8058 10.8243L20.4252 10.7618L20.4409 9.18726C20.4565 7.4094 20.4669 7.37291 20.8319 7.30513C21.1812 7.23735 22.9747 7.60752 24.0539 7.96726C26.3062 8.71282 28.5481 10.3499 30.2008 12.4406C31.718 14.3644 32.4531 16.1266 32.766 18.5718C32.8702 19.3852 32.8807 20.8659 32.792 21.5958C32.5574 23.5196 31.8119 25.5216 30.7222 27.1483C30.1591 27.9877 29.7942 28.4257 29.0121 29.2077C24.518 33.6758 17.6464 34.192 12.5578 30.4381C11.2805 29.4945 9.94057 28.0763 9.17417 26.8459C8.58502 25.9022 7.80297 24.1713 7.63614 23.4414C7.44844 22.6437 7.37024 20.9858 7.3181 16.6949C7.30246 15.3446 7.28161 13.5615 7.26597 12.7325C7.25033 11.8984 7.22426 9.73991 7.20862 7.93598C7.18776 6.12684 7.16691 4.64095 7.15648 4.63052C7.09913 4.57317 4.83119 7.00274 4.18991 7.80564C1.78641 10.8087 0.404794 14.3801 0.0398377 18.4884C-0.0383671 19.4217 0.00334214 21.7991 0.123256 22.6333C0.571631 25.8657 1.61436 28.6863 3.28795 31.1889C4.1482 32.4715 4.76341 33.2274 5.83221 34.2962C6.78631 35.2555 7.09392 35.5267 7.99066 36.1992C10.0813 37.7737 12.5474 38.952 15.1959 39.635C16.6349 40.0104 16.5306 40 19.9352 40C23.3136 40 23.5274 39.9843 24.7786 39.6611C29.1477 38.5349 33.0475 36.0532 35.769 32.6696C37.5938 30.3964 39.0276 27.3777 39.721 24.3538C39.9608 23.2954 39.9869 22.9774 40.0182 20.7355C40.0651 17.2371 39.9452 16.2778 39.1735 13.9317C37.5052 8.90572 33.7931 4.51061 29.2937 2.2531C27.2395 1.22079 25.0028 0.543015 22.3074 0.136353C21.2542 -0.0252724 19.0071 -0.0461273 18.0061 0.0894279Z" fill="#6C96F9"/>
</svg>
