<svg width="41" height="40" viewBox="0 0 41 40" fill="none" xmlns="http://www.w3.org/2000/svg">
<path d="M35.8946 31.6019C35.1369 31.6019 34.4345 31.8071 33.8188 32.1544L31.4431 29.7787C31.009 29.3446 30.3066 29.3446 29.8725 29.7787C29.4383 30.2128 29.4384 30.9152 29.8725 31.3493L32.2481 33.725C31.9009 34.3406 31.6957 35.0431 31.6957 35.8008C31.6957 38.1133 33.582 39.9997 35.8945 39.9997C38.2071 39.9997 40.0934 38.1213 40.0934 35.8008C40.0934 33.4803 38.215 31.6019 35.8946 31.6019ZM35.8946 37.7739C34.8054 37.7739 33.9214 36.8899 33.9214 35.8007C33.9214 34.7115 34.8054 33.8275 35.8946 33.8275C36.9838 33.8275 37.8677 34.7115 37.8677 35.8007C37.8756 36.8899 36.9838 37.7739 35.8946 37.7739Z" fill="#6C96F9"/>
<path d="M9.5098 27.9716H30.4725C31.3881 27.9716 31.8616 26.9771 31.4275 26.2905L28.5309 21.4208V10.9156C28.5309 10.3 28.0336 9.80273 27.418 9.80273H12.5724C11.9568 9.80273 11.4595 10.3 11.4595 10.9156V21.4208L8.55504 26.2905C8.14463 26.9377 8.5945 27.9716 9.51002 27.9716H9.5098ZM13.6771 12.0284H26.3052V20.6155H13.6771V12.0284ZM13.2035 22.841H26.7943L28.5306 25.7533H11.4668L13.2035 22.841Z" fill="#6C96F9"/>
<path d="M31.4509 10.2209L33.8266 7.84518C34.4422 8.19246 35.1447 8.39766 35.9024 8.39766C38.2149 8.39766 40.1013 6.51924 40.1013 4.19877C40.1013 1.87829 38.2149 0.0078125 35.8945 0.0078125C33.582 0.0078125 31.6956 1.89417 31.6956 4.2067C31.6956 4.96439 31.9009 5.66681 32.2481 6.28248L29.8724 8.65816C29.4384 9.09225 29.4384 9.79469 29.8724 10.2288C30.3144 10.655 31.0168 10.6549 31.4509 10.2209ZM35.8945 2.22544C36.9837 2.22544 37.8676 3.10941 37.8676 4.19861C37.8676 5.2878 36.9837 6.17177 35.8945 6.17177C34.8053 6.17177 33.9213 5.2878 33.9213 4.19861C33.9213 3.10941 34.8053 2.22544 35.8945 2.22544Z" fill="#6C96F9"/>
<path d="M4.19888 8.3978C4.95657 8.3978 5.65898 8.19259 6.27465 7.84532L8.65033 10.221C9.08442 10.6551 9.78686 10.6551 10.221 10.221C10.6551 9.78691 10.6551 9.08447 10.221 8.65035L7.84531 6.27467C8.19258 5.65905 8.39778 4.95658 8.39778 4.19889C8.39778 1.88635 6.51937 0 4.19889 0C1.87842 0 0 1.88635 0 4.19889C0 6.51143 1.88634 8.3978 4.19888 8.3978ZM4.19888 2.22581C5.28807 2.22581 6.17204 3.10978 6.17204 4.19898C6.17204 5.28817 5.28807 6.17214 4.19888 6.17214C3.10968 6.17214 2.22571 5.28817 2.22571 4.19898C2.21782 3.10978 3.10968 2.22581 4.19888 2.22581Z" fill="#6C96F9"/>
<path d="M8.64241 29.7787L6.26673 32.1544C5.65111 31.8071 4.94864 31.6019 4.19095 31.6019C1.88628 31.6019 0 33.4803 0 35.8008C0 38.1133 1.88635 39.9997 4.19889 39.9997C6.51143 39.9997 8.39778 38.1213 8.39778 35.8008C8.39778 35.0431 8.19257 34.3407 7.84531 33.725L10.221 31.3493C10.6551 30.9153 10.6551 30.2128 10.221 29.7787C9.779 29.3446 9.07653 29.3446 8.64241 29.7787ZM4.19889 37.7741C3.1097 37.7741 2.22573 36.8902 2.22573 35.801C2.22573 34.7118 3.1097 33.8278 4.19889 33.8278C5.28809 33.8278 6.17206 34.7118 6.17206 35.801C6.17206 36.8902 5.28809 37.7741 4.19889 37.7741Z" fill="#6C96F9"/>
</svg>
