<svg width="40" height="40" viewBox="0 0 40 40" fill="none" xmlns="http://www.w3.org/2000/svg">
<path d="M38.5714 8.57143C39.3603 8.57143 40 7.9324 40 7.14286V1.42857C40 0.639029 39.3603 0 38.5714 0H32.8571C32.0682 0 31.4286 0.639029 31.4286 1.42857V2.85714H8.57143V1.42857C8.57143 0.639029 7.93176 0 7.14286 0H1.42857C0.639665 0 0 0.639029 0 1.42857V7.14286C0 7.9324 0.639665 8.57143 1.42857 8.57143H2.85714V31.4286H1.42857C0.639665 31.4286 0 32.0676 0 32.8571V38.5714C0 39.361 0.639665 40 1.42857 40H7.14286C7.93176 40 8.57143 39.361 8.57143 38.5714V37.1429H31.4286V38.5714C31.4286 39.361 32.0682 40 32.8571 40H38.5714C39.3603 40 40 39.361 40 38.5714V32.8571C40 32.0676 39.3603 31.4286 38.5714 31.4286H37.1429V8.57143H38.5714ZM34.2857 31.4286H32.8571C32.0682 31.4286 31.4286 32.0676 31.4286 32.8571V34.2857H8.57143V32.8571C8.57143 32.0676 7.93176 31.4286 7.14286 31.4286H5.71429V8.57143H7.14286C7.93176 8.57143 8.57143 7.9324 8.57143 7.14286V5.71429H31.4286V7.14286C31.4286 7.9324 32.0682 8.57143 32.8571 8.57143H34.2857V31.4286Z" fill="#6C96F9"/>
<path d="M29.0236 17.216L25.7143 16.1126V12.8569C25.7143 9.70601 23.1509 7.14258 20 7.14258C16.8491 7.14258 14.2857 9.70601 14.2857 12.8569V16.1126L10.9764 17.2156C10.3935 17.4105 10 17.9561 10 18.5711C10 28.5711 19.0857 32.5254 19.0857 32.5254C19.3507 32.7464 19.6753 32.8567 20.0002 32.8567C20.3252 32.8567 20.6498 32.7464 20.9148 32.5254C20.9148 32.5254 30.0005 28.5711 30.0005 18.5711C30.0005 17.956 29.607 17.4104 29.0241 17.2159L29.0236 17.216ZM21.4286 24.2855C21.4286 25.0744 20.7889 25.7141 20 25.7141C19.2111 25.7141 18.5714 25.0744 18.5714 24.2855V22.8569C18.5714 22.068 19.2111 21.4284 20 21.4284C20.7889 21.4284 21.4286 22.068 21.4286 22.8569V24.2855ZM22.8571 15.1606L20.4518 14.359C20.3048 14.3102 20.1524 14.2856 20 14.2856C19.8476 14.2856 19.6951 14.3102 19.5478 14.359L17.1428 15.1606V12.857C17.1428 11.2811 18.4241 9.99988 20 9.99988C21.5759 9.99988 22.8571 11.2811 22.8571 12.857L22.8571 15.1606Z" fill="#6C96F9"/>
</svg>
