<svg width="28" height="29" viewBox="0 0 28 29" fill="none" xmlns="http://www.w3.org/2000/svg">
<path d="M24.7947 9.59796H3.0862C2.60643 9.59786 2.14634 9.40636 1.80712 9.06558C1.46791 8.7248 1.27734 8.26265 1.27734 7.78076V25.8372C1.27727 26.0758 1.32401 26.3121 1.41488 26.5326C1.50576 26.7531 1.63899 26.9534 1.80697 27.1221C1.97495 27.2909 2.17439 27.4247 2.39388 27.516C2.61338 27.6073 2.84863 27.6543 3.0862 27.6542H24.7945C25.0321 27.6543 25.2674 27.6074 25.4869 27.5161C25.7064 27.4248 25.9059 27.2909 26.0739 27.1222C26.2419 26.9535 26.3751 26.7531 26.466 26.5326C26.5569 26.3122 26.6037 26.0758 26.6036 25.8372V11.4148C26.6037 11.1762 26.5569 10.9399 26.466 10.7194C26.3752 10.4989 26.2419 10.2986 26.074 10.1299C25.906 9.96113 25.7065 9.82729 25.487 9.73599C25.2676 9.64469 25.0323 9.59773 24.7947 9.59777V9.59796Z" fill="url(#paint0_linear_792_92519)"/>
<path d="M22.5975 1.39257L2.67947 6.01127C2.21198 6.11966 1.80651 6.41015 1.55225 6.81882C1.298 7.22749 1.21579 7.72086 1.32371 8.19041L1.85783 10.514C1.9658 10.9836 2.25502 11.3908 2.66188 11.6462C3.06875 11.9015 3.55994 11.9841 4.02742 11.8758L23.9455 7.25727C24.413 7.14887 24.8185 6.85838 25.0727 6.44971C25.327 6.04105 25.4092 5.54767 25.3013 5.07812L24.7671 2.75449C24.6592 2.28494 24.37 1.87769 23.9631 1.62231C23.5562 1.36694 23.065 1.28418 22.5975 1.39257Z" fill="url(#paint1_linear_792_92519)"/>
<path d="M1.27734 21.6357H26.6036V25.8376C26.6033 26.3194 26.4127 26.7814 26.0735 27.1221C25.7344 27.4628 25.2744 27.6543 24.7947 27.6546H3.0862C2.60652 27.6543 2.14657 27.4628 1.80741 27.1221C1.46824 26.7814 1.27759 26.3194 1.27734 25.8376V21.6357Z" fill="#5A4CDB"/>
<path d="M9.75703 15.6168H1.27734V21.6355H9.75703V15.6168ZM18.1239 9.59814H24.7947C25.2744 9.59844 25.7343 9.78995 26.0735 10.1306C26.4126 10.4713 26.6033 10.9332 26.6036 11.415V15.6168H18.1239V9.59814Z" fill="#AA72E1"/>
<path d="M26.6005 15.6167H9.75391V21.6354H26.6005V15.6167Z" fill="#885EDE"/>
<path d="M18.1239 9.59814H1.27734V15.6168H18.1239V9.59814Z" fill="#C689E6"/>
<path d="M1.27734 19.8184V21.6354H3.0862C2.60646 21.6353 2.1464 21.4438 1.80719 21.1031C1.46798 20.7623 1.27739 20.3002 1.27734 19.8184Z" fill="#5A4CDB"/>
<path d="M1.27734 13.7998V15.6168H3.0862C2.60646 15.6167 2.1464 15.4252 1.80719 15.0845C1.46798 14.7438 1.27739 14.2817 1.27734 13.7998Z" fill="#AA72E1"/>
<path d="M1.27734 7.78076V9.59777H3.0862C2.60646 9.59768 2.1464 9.4062 1.80719 9.06546C1.46798 8.72472 1.27739 8.26262 1.27734 7.78076Z" fill="#C689E6"/>
<defs>
<linearGradient id="paint0_linear_792_92519" x1="-0.695246" y1="12.6725" x2="27.9821" y2="24.2358" gradientUnits="userSpaceOnUse">
<stop stop-color="#FCCEF5"/>
<stop offset="1" stop-color="#5A4CDB"/>
</linearGradient>
<linearGradient id="paint1_linear_792_92519" x1="5.67794" y1="0.470625" x2="20.9998" y2="12.7321" gradientUnits="userSpaceOnUse">
<stop stop-color="#5A4CDB"/>
<stop offset="1" stop-color="#AD58DB"/>
</linearGradient>
</defs>
</svg>
