<svg width="28" height="29" viewBox="0 0 28 29" fill="none" xmlns="http://www.w3.org/2000/svg">
<path d="M25.6819 14.9539C25.6824 14.8637 25.6595 14.7748 25.6155 14.6961C25.5715 14.6175 25.5079 14.5516 25.431 14.505L25.4283 14.5033L25.4183 14.4976L17.259 9.6956C17.2238 9.67195 17.1873 9.65033 17.1497 9.63085C16.9943 9.55095 16.8222 9.50928 16.6477 9.50928C16.4731 9.50928 16.3011 9.55095 16.1457 9.63085C16.108 9.65032 16.0715 9.67194 16.0363 9.6956L7.87703 14.4976L7.86702 14.5033L7.8644 14.505C7.78665 14.5526 7.7226 14.6197 7.67857 14.6998C7.63454 14.7798 7.61206 14.87 7.61333 14.9615C7.61461 15.0529 7.6396 15.1424 7.68585 15.2212C7.73209 15.3 7.79799 15.3653 7.87703 15.4107L16.0363 20.2122C16.0714 20.2358 16.1078 20.2575 16.1452 20.277C16.3006 20.3568 16.473 20.3984 16.6475 20.3984C16.8219 20.3984 16.9939 20.3568 17.1493 20.277C17.187 20.2575 17.2237 20.2359 17.259 20.2122L25.4183 15.4102C25.4987 15.3646 25.5656 15.2983 25.6119 15.2181C25.6582 15.1378 25.6824 15.0466 25.6819 14.9539Z" fill="#123B6D"/>
<path d="M8.51953 11.7778H13.9399V16.7684H8.51953V11.7778Z" fill="#0364B8"/>
<path d="M24.8294 7.06254V5.02073C24.8282 4.88548 24.8005 4.7518 24.7479 4.62731C24.6952 4.50281 24.6187 4.38996 24.5227 4.29518C24.4266 4.2004 24.3129 4.12555 24.188 4.07491C24.0631 4.02427 23.9296 3.99883 23.7949 4.00004H9.31185C9.1772 3.99883 9.04362 4.02427 8.91876 4.07491C8.79389 4.12555 8.68018 4.2004 8.58412 4.29518C8.48806 4.38996 8.41152 4.50281 8.35888 4.62731C8.30625 4.7518 8.27854 4.88548 8.27734 5.02073V7.06254H24.8294Z" fill="#0358A7"/>
<path d="M8.27734 6.625H13.9399V11.875H8.27734V6.625Z" fill="#0078D4"/>
<path d="M13.9375 6.625H19.6001L24.827 11.875V17.125H19.6001L13.9375 11.875V6.625Z" fill="#28A8EA"/>
<path d="M19.6016 6.625H24.8285V11.875H19.6016V6.625Z" fill="#50D9FF"/>
<path d="M13.9375 11.875H19.6001V17.125H13.9375V11.875Z" fill="#0078D4"/>
<path d="M13.9375 17.125H19.6001V22.375H13.9375V17.125Z" fill="#0364B8"/>
<path d="M8.51953 16.7686H13.9399V21.3054H8.51953V16.7686Z" fill="#14447D"/>
<path d="M19.6016 17.125H24.8285V21.9375H19.6016V17.125Z" fill="#0078D4"/>
<path d="M25.4463 15.3518V15.3523L25.4367 15.3579L25.4341 15.3593L17.172 19.7968C17.1362 19.8186 17.0992 19.8384 17.0613 19.8563C16.9023 19.9306 16.7289 19.969 16.5535 19.9688C16.5434 19.9688 16.5343 19.9657 16.5243 19.9657L16.0608 19.7102C16.0228 19.6918 15.9859 19.6714 15.9502 19.6489L7.6737 15.0849L7.67108 15.0836L7.66673 15.0814L7.40625 14.9375V23.922C7.41592 24.2171 7.54172 24.4963 7.75607 24.6984C7.97041 24.9005 8.2558 25.009 8.54965 25H24.5882C24.8305 25.0008 25.067 24.9259 25.2651 24.7856L25.2477 24.776C25.3857 24.6804 25.4989 24.553 25.5777 24.4044C25.6565 24.2558 25.6987 24.0904 25.7007 23.922V14.9375C25.6995 15.0232 25.6753 15.107 25.6305 15.18C25.5857 15.2529 25.522 15.3123 25.4463 15.3518Z" fill="url(#paint0_linear_792_92081)"/>
<path d="M25.4467 15.3523L25.4363 15.3579L25.4341 15.3593L17.172 19.7968C17.1362 19.8186 17.0993 19.8385 17.0613 19.8563C16.902 19.9304 16.7286 19.9687 16.553 19.9687C16.3775 19.9687 16.204 19.9304 16.0447 19.8563C16.0068 19.8385 15.9698 19.8186 15.9341 19.7968L7.67326 15.3593L7.67065 15.3579L7.66063 15.3523C7.58485 15.3127 7.52117 15.2532 7.47637 15.1802C7.43157 15.1071 7.40734 15.0233 7.40625 14.9375V23.922C7.4158 24.2172 7.54157 24.4964 7.75594 24.6986C7.97032 24.9007 8.25577 25.0091 8.54965 25H24.5573C24.8511 25.0091 25.1366 24.9007 25.351 24.6986C25.5653 24.4964 25.6911 24.2172 25.7007 23.922V14.9375C25.6996 15.0232 25.6754 15.1071 25.6307 15.1801C25.586 15.2531 25.5224 15.3126 25.4467 15.3523Z" fill="#1490DF"/>
<path d="M8.55183 25H24.5882C24.8305 25.0007 25.067 24.9258 25.2651 24.7856L16.0608 19.7102C16.0228 19.6918 15.9859 19.6714 15.9502 19.6489L7.6737 15.0849L7.67108 15.0836L7.66673 15.0814L7.40625 14.9375V23.8914C7.41186 24.1909 7.53569 24.476 7.75051 24.6839C7.96534 24.8918 8.25357 25.0055 8.55183 25Z" fill="#28A8EA"/>
<path opacity="0.5" d="M24.8294 15.1868V15.6812L17.1719 19.798C17.1371 19.8199 17.0979 19.8374 17.063 19.8549C16.9039 19.931 16.7296 19.9699 16.5534 19.9687H16.5273L16.0612 19.7105C16.022 19.693 15.9871 19.6712 15.9479 19.6493L8.27734 15.4187V14.9199L16.1614 19.2643C16.2006 19.2905 16.2267 19.3037 16.2485 19.3168L16.6318 19.5268C16.7163 19.5194 16.7989 19.4972 16.8757 19.4612C16.8975 19.448 23.1699 16.0793 24.8294 15.1868Z" fill="#0A2767"/>
<path opacity="0.2" d="M14.3755 9.39438V20.9181C14.3765 20.9769 14.3707 21.0357 14.3581 21.0931C14.3185 21.3298 14.1964 21.5446 14.0137 21.6992C13.831 21.8539 13.5996 21.9383 13.3606 21.9375H7.40625V14.9375L7.6284 15.06C7.61987 15.0257 7.61549 14.9904 7.61533 14.955C7.61483 14.8643 7.63787 14.7751 7.68217 14.6961C7.72648 14.617 7.79051 14.551 7.86797 14.5044C7.87232 14.5 7.87668 14.5 7.88103 14.4956L8.52134 14.1194V11.875H8.27741V8.375H13.3606C13.4937 8.37477 13.6255 8.40087 13.7485 8.45179C13.8715 8.50272 13.9833 8.57749 14.0776 8.67182C14.1718 8.76615 14.2466 8.87821 14.2978 9.00158C14.3489 9.12496 14.3753 9.25724 14.3755 9.39088V9.39438Z" fill="black"/>
<path opacity="0.1" d="M14.8111 9.39437V20.0431C14.8075 20.4284 14.6535 20.7968 14.3823 21.0693C14.111 21.3417 13.7442 21.4964 13.3606 21.5H7.40625V14.9375L7.6284 15.06C7.61987 15.0257 7.61549 14.9904 7.61533 14.955C7.61483 14.8643 7.63787 14.7751 7.68217 14.6961C7.72648 14.617 7.79051 14.551 7.86797 14.5044C7.87232 14.5 7.87668 14.5 7.88103 14.4956L8.52134 14.1194V11.875H8.27741V7.9375H13.3606C13.7449 7.93888 14.113 8.09282 14.3848 8.36574C14.6565 8.63866 14.8098 9.00841 14.8111 9.39437Z" fill="black"/>
<path opacity="0.2" d="M14.3755 9.39438V20.0431C14.3758 20.1768 14.3498 20.3091 14.2991 20.4327C14.2484 20.5562 14.174 20.6686 14.08 20.7632C13.9861 20.8579 13.8746 20.933 13.7517 20.9844C13.6289 21.0357 13.4972 21.0623 13.3641 21.0625H7.40625V14.9375L7.6284 15.06C7.61987 15.0257 7.61549 14.9904 7.61533 14.955C7.61483 14.8643 7.63787 14.7751 7.68217 14.6961C7.72648 14.617 7.79051 14.551 7.86797 14.5044C7.87232 14.5 7.87668 14.5 7.88103 14.4956L8.52134 14.1194V11.875H8.27741V8.375H13.3606C13.4937 8.37477 13.6255 8.40087 13.7485 8.45179C13.8715 8.50272 13.9833 8.57749 14.0776 8.67182C14.1718 8.76615 14.2466 8.87821 14.2978 9.00158C14.3489 9.12496 14.3753 9.25724 14.3755 9.39088V9.39438Z" fill="black"/>
<path opacity="0.1" d="M13.94 9.39438V20.0431C13.9402 20.1768 13.9142 20.3091 13.8635 20.4327C13.8128 20.5562 13.7384 20.6686 13.6445 20.7632C13.5505 20.8579 13.439 20.933 13.3161 20.9844C13.1933 21.0357 13.0616 21.0623 12.9285 21.0625H7.40625V14.9375L7.6284 15.06C7.61987 15.0257 7.61549 14.9904 7.61533 14.955C7.61483 14.8643 7.63787 14.7751 7.68217 14.6961C7.72648 14.617 7.79051 14.551 7.86797 14.5044C7.87232 14.5 7.87668 14.5 7.88103 14.4956L8.52134 14.1194V11.875H8.27741V8.375H12.9251C13.0581 8.37477 13.1899 8.40087 13.3129 8.45179C13.4359 8.50272 13.5477 8.57749 13.642 8.67182C13.7362 8.76615 13.8111 8.87821 13.8622 9.00158C13.9133 9.12496 13.9397 9.25724 13.94 9.39088V9.39438Z" fill="black"/>
<path d="M12.9222 8.375H2.7584C2.19716 8.375 1.74219 8.83198 1.74219 9.39569V19.6043C1.74219 20.168 2.19716 20.625 2.7584 20.625H12.9222C13.4835 20.625 13.9385 20.168 13.9385 19.6043V9.39569C13.9385 8.83198 13.4835 8.375 12.9222 8.375Z" fill="#0F78D4"/>
<path d="M5.11007 12.8562C5.34417 12.3553 5.72203 11.9362 6.1951 11.6527C6.71905 11.3514 7.31564 11.2012 7.91913 11.2187C8.47817 11.2063 9.02982 11.3486 9.51379 11.6299C9.96937 11.9025 10.3362 12.3023 10.5696 12.7805C10.8238 13.307 10.9505 13.8864 10.9394 14.4715C10.9519 15.0831 10.8216 15.6892 10.5588 16.2412C10.3199 16.736 9.94196 17.1498 9.47154 17.4312C8.96872 17.7216 8.39621 17.8679 7.81633 17.8542C7.24537 17.8678 6.68162 17.7239 6.18639 17.4382C5.72711 17.1652 5.35585 16.7651 5.11704 16.2858C4.86108 15.7667 4.73278 15.1936 4.74287 14.6145C4.73171 14.0081 4.85739 13.4069 5.1105 12.8562H5.11007ZM6.26653 15.6816C6.39128 15.9981 6.60271 16.2726 6.87635 16.4735C7.1554 16.6697 7.48974 16.7709 7.83027 16.7622C8.19257 16.7764 8.54966 16.672 8.84779 16.4647C9.11832 16.2639 9.32429 15.9878 9.44018 15.6707C9.57036 15.3171 9.6346 14.9425 9.62966 14.5655C9.63376 14.1852 9.57352 13.8069 9.4515 13.4468C9.34381 13.1227 9.14503 12.8367 8.87915 12.6235C8.5886 12.4056 8.23217 12.295 7.86991 12.3102C7.52225 12.3013 7.1807 12.4031 6.89421 12.6012C6.61517 12.8026 6.39897 13.0797 6.27089 13.4C5.98744 14.1336 5.98589 14.9469 6.26653 15.6816Z" fill="white"/>
<path opacity="0.05" d="M17.6041 19.564L17.1703 19.7967C16.9836 19.9101 16.7694 19.9696 16.5513 19.9687L16.5273 19.9682L25.2477 24.7772C25.37 24.6897 25.4725 24.5771 25.5484 24.4468C25.6242 24.3166 25.6717 24.1717 25.6876 24.0217L17.6041 19.564Z" fill="black"/>
<path opacity="0.05" d="M25.2494 24.778C25.3722 24.6896 25.4757 24.5769 25.5535 24.4468L17.1459 19.811C17.1177 19.8272 17.089 19.8422 17.0596 19.8561C16.9004 19.9305 16.7269 19.9689 16.5513 19.9685L16.5273 19.9681L25.2494 24.778Z" fill="black"/>
<defs>
<linearGradient id="paint0_linear_792_92081" x1="16.5535" y1="14.9375" x2="16.5535" y2="25.0004" gradientUnits="userSpaceOnUse">
<stop stop-color="#35B8F1"/>
<stop offset="1" stop-color="#28A8EA"/>
</linearGradient>
</defs>
</svg>
