<svg width="40" height="40" viewBox="0 0 40 40" fill="none" xmlns="http://www.w3.org/2000/svg">
<path d="M9.82031 17.5591V40.0001H32.268V17.5591H9.82031ZM30.3953 19.4319V24.5156H11.693V19.4319H30.3953ZM30.3953 26.3881V31.1713L11.693 31.1716V26.3881L30.3953 26.3881ZM11.693 38.1273V33.0436H30.3953L30.3956 38.1273H11.693Z" fill="#6C96F9"/>
<path d="M13.2695 20.8594H21.385V22.7319H13.2695V20.8594Z" fill="#6C96F9"/>
<path d="M13.2695 27.8438H21.385V29.7162H13.2695V27.8438Z" fill="#6C96F9"/>
<path d="M13.2695 34.8276H21.385V36.7001H13.2695V34.8276Z" fill="#6C96F9"/>
<path d="M6.75467 33.118C5.41447 31.3858 4.67611 29.1855 4.67611 26.9224C4.67611 26.5609 4.69668 26.1912 4.73783 25.8176C1.83855 24.1495 0 20.879 0 17.2912C0 13.3047 2.23599 9.77528 5.62182 8.31996C6.39709 3.60888 11.2322 0 16.923 0C21.4397 0 25.4829 2.23825 27.3154 5.66103C28.3036 5.21723 29.8962 4.59186 31.0125 4.59186C35.1622 4.59186 38.5382 8.23703 38.5382 12.7169C38.5382 14.4819 38.0131 16.1733 37.0439 17.5726C38.9334 19.3393 39.9999 21.655 39.9999 24.0477C39.9999 27.4068 37.9886 30.4723 34.6204 32.2481L33.7472 30.5918C36.4897 29.1461 38.1274 26.6998 38.1274 24.0478C38.1274 21.9189 37.0805 19.9268 35.1788 18.4397L34.3964 17.8277L35.0531 17.0828C36.0929 15.9038 36.665 14.3534 36.665 12.7172C36.665 9.2697 34.1289 6.46481 31.0118 6.46481C30.1219 6.46481 28.2589 7.25053 27.2942 7.74558L26.3778 8.21551L25.9964 7.25903C24.7133 4.03713 21.0665 1.87263 16.9224 1.87263C11.9576 1.87263 7.77978 5.03642 7.4111 9.07534L7.35624 9.67459L6.78866 9.87412C3.84758 10.907 1.87159 13.8876 1.87159 17.2918C1.87159 20.4082 3.55306 23.218 6.1558 24.4491L6.79946 24.7538L6.67766 25.4556C6.59046 25.9562 6.54703 26.45 6.54703 26.9232C6.54703 28.7738 7.14628 30.567 8.23443 31.9728L6.75467 33.118Z" fill="#6C96F9"/>
</svg>
