<svg width="40" height="40" viewBox="0 0 40 40" fill="none" xmlns="http://www.w3.org/2000/svg">
<path fill-rule="evenodd" clip-rule="evenodd" d="M16.6536 0.000277106C16.0416 0.000277106 15.5452 0.496655 15.5452 1.1087V2.56478C15.278 2.66529 15.0145 2.77508 14.7547 2.89353L13.7245 1.86301V1.86332C13.2915 1.43066 12.5898 1.43066 12.1568 1.86332L7.60591 6.41421C7.17324 6.84719 7.17324 7.54892 7.60591 7.98192L8.63643 9.01244C8.51798 9.27223 8.40819 9.53542 8.30768 9.80294H6.8516L6.85129 9.80263C6.23924 9.80263 5.74287 10.299 5.74287 10.9111V13.3503H5.00154C3.48553 13.3503 2.23047 14.6054 2.23047 16.1214V31.234H1.10843C0.496378 31.234 0 31.7304 0 32.3424V38.8916C0 39.5039 0.496378 40 1.10843 40H38.635C39.2471 40 39.7435 39.5039 39.7435 38.8916V32.3424C39.7435 31.7304 39.2471 31.234 38.635 31.234H37.513V16.1214C37.513 14.6054 36.2579 13.3503 34.7419 13.3503H34.0006V10.9111C34.0006 10.299 33.5042 9.80263 32.8922 9.80263H31.4398C31.3393 9.53419 31.2295 9.26945 31.1104 9.00844L32.1372 7.98196C32.5699 7.54898 32.5699 6.84725 32.1372 6.41425L27.5863 1.86336C27.1534 1.4307 26.4516 1.4307 26.0186 1.86336L24.9921 2.89016C24.7311 2.77109 24.4664 2.6613 24.198 2.56078V1.10843C24.198 0.496377 23.7016 0 23.0895 0L16.6536 0.000277106ZM17.7621 2.21713H21.9815V3.35367V3.35336C21.9815 3.84355 22.3031 4.27533 22.7726 4.41539C23.4369 4.61394 24.0789 4.87992 24.6888 5.20926V5.20957C25.1199 5.44245 25.6531 5.36451 25.9995 5.01813L26.803 4.21468L29.7865 7.19825L28.9831 8.0017V8.00139C28.6364 8.34808 28.5588 8.88093 28.7917 9.3121C29.121 9.92198 29.3873 10.564 29.5855 11.2283C29.7259 11.6978 30.1577 12.0195 30.6476 12.0195H31.7841V13.3505H25.6169C25.2337 10.5266 22.797 8.33164 19.8721 8.33164C16.9473 8.33164 14.5106 10.5266 14.1272 13.3505H7.95994V12.0195H9.09869H9.09838C9.58734 12.0195 10.0188 11.6987 10.1598 11.2305C10.3593 10.5677 10.6259 9.92692 10.9559 9.31831C11.1897 8.88688 11.1121 8.35311 10.765 8.00609L9.95693 7.19829L12.9405 4.21472L13.7486 5.02284C14.0956 5.36953 14.6294 5.44716 15.0608 5.21335C15.6695 4.88335 16.31 4.61676 16.973 4.41726H16.9727C17.4413 4.27623 17.762 3.84479 17.762 3.35586L17.7621 2.21713ZM19.8719 10.5485C21.5949 10.5485 23.0174 11.7396 23.3691 13.3506H16.3746C16.726 11.7396 18.1489 10.5485 19.8719 10.5485ZM5.00153 15.5674H34.7422C35.0685 15.5674 35.2964 15.7954 35.2964 16.1216V31.2343H29.2282V31.234C28.751 31.2343 28.3273 31.5398 28.1767 31.9926L27.7282 33.3407H12.0155L11.5671 31.9926H11.5667C11.4158 31.5398 10.9921 31.2343 10.5149 31.234H4.44668V16.1213C4.44668 15.7951 4.67461 15.5671 5.00089 15.5671L5.00153 15.5674ZM2.21685 33.4511H3.3324V33.4508C3.33518 33.4511 3.33797 33.4514 3.34075 33.4517C3.34353 33.4514 3.34632 33.4511 3.3491 33.4508H9.71979L10.1682 34.7986V34.7989C10.3188 35.2517 10.7425 35.5572 11.2201 35.5572H28.5313C29.0085 35.5572 29.4322 35.2517 29.5828 34.7989L30.0313 33.4508H36.4023C36.4051 33.4511 36.4078 33.4514 36.4106 33.4517C36.4134 33.4514 36.4162 33.4511 36.419 33.4508H37.5345V37.7831H2.22477L2.21685 33.4511Z" fill="#6C96F9"/>
</svg>
