<svg width="44" height="40" viewBox="0 0 44 40" fill="none" xmlns="http://www.w3.org/2000/svg">
<path d="M33.8559 9.54196C33.8544 9.91819 33.828 10.293 33.78 10.6659C33.8009 10.5091 33.8223 10.3522 33.8432 10.195C33.7189 11.1086 33.4652 11.997 33.1103 12.8474C33.1699 12.7064 33.2292 12.5655 33.2888 12.4242C32.913 13.3089 32.4305 14.143 31.8439 14.9052C31.9361 14.7856 32.0286 14.6663 32.1208 14.5467C31.6296 15.1766 31.0716 15.7491 30.4395 16.2388C30.5591 16.1466 30.6784 16.0541 30.798 15.962C30.3094 16.3342 29.7846 16.6504 29.2197 16.8933C29.3606 16.8336 29.5016 16.7744 29.6429 16.7147C29.147 16.9222 28.632 17.0675 28.0993 17.1401C28.2561 17.1192 28.413 17.0978 28.5702 17.0769C28.0967 17.1358 27.6226 17.1358 27.1492 17.0769C27.306 17.0978 27.4629 17.1192 27.6201 17.1401C27.0874 17.0675 26.5724 16.9222 26.0765 16.7147C26.2174 16.7744 26.3584 16.8336 26.4997 16.8933C25.9351 16.6504 25.4101 16.3342 24.9214 15.962C25.041 16.0541 25.1602 16.1466 25.2799 16.2388C24.6478 15.7494 24.0898 15.1767 23.5986 14.5467C23.6907 14.6663 23.7833 14.7856 23.8754 14.9052C23.2892 14.143 22.8063 13.3089 22.4305 12.4242C22.4902 12.5651 22.5494 12.7061 22.6091 12.8474C22.2542 11.997 22.0008 11.1086 21.8761 10.195C21.8971 10.3518 21.9184 10.5087 21.9394 10.6659C21.8461 9.94128 21.8393 9.21268 21.9343 8.48806C21.9134 8.64491 21.892 8.80176 21.8711 8.95897C21.9661 8.28061 22.1465 7.62177 22.4106 6.98966C22.351 7.13061 22.2917 7.27157 22.2321 7.41287C22.4956 6.79776 22.8331 6.2213 23.2401 5.69004C23.148 5.80967 23.0554 5.92893 22.9633 6.04856C23.372 5.52415 23.8415 5.05507 24.3659 4.64595C24.2463 4.7381 24.127 4.83063 24.0074 4.92279C24.5387 4.51584 25.1151 4.17828 25.7302 3.91477C25.5893 3.97441 25.4483 4.03368 25.307 4.09331C25.9391 3.82912 26.5979 3.64914 27.2763 3.55373C27.1195 3.57469 26.9626 3.59601 26.8054 3.61698C27.5062 3.52518 28.2124 3.52518 28.9131 3.61698C28.7563 3.59601 28.5994 3.57469 28.4422 3.55373C29.1206 3.64878 29.7794 3.82913 30.4115 4.09331C30.2706 4.03368 30.1296 3.9744 29.9883 3.91477C30.6034 4.17824 31.1799 4.5158 31.7111 4.92279C31.5915 4.83063 31.4722 4.73811 31.3526 4.64595C31.877 5.0547 32.3461 5.52417 32.7552 6.04856C32.6631 5.92893 32.5705 5.80967 32.4784 5.69004C32.8853 6.22132 33.2229 6.7978 33.4864 7.41287C33.4268 7.27193 33.3675 7.13097 33.3079 6.98966C33.572 7.62177 33.752 8.28061 33.8474 8.95897C33.8265 8.80212 33.8052 8.64527 33.7842 8.48806C33.8308 8.83827 33.8543 9.18919 33.8558 9.54196C33.8597 10.4683 34.6671 11.3558 35.6267 11.3129C36.5826 11.2703 37.402 10.5348 37.3976 9.54196C37.3886 7.56072 36.7742 5.54404 35.5779 3.95454C34.9025 3.0568 34.1529 2.31701 33.2327 1.66678C32.4373 1.10443 31.5215 0.684114 30.5912 0.401463C28.6786 -0.179318 26.487 -0.137758 24.6152 0.577104C22.6448 1.32956 20.9961 2.62052 19.8341 4.3885C18.7514 6.03648 18.2125 8.10126 18.3383 10.0681C18.4669 12.0811 19.1149 14.0595 20.1782 15.7733C21.1981 17.4174 22.6308 18.9442 24.3875 19.8037C26.2282 20.7043 28.3634 20.9609 30.3146 20.2374C32.3201 19.4936 33.8947 18.1072 35.1314 16.3854C36.2153 14.8765 36.984 13.045 37.2489 11.2035C37.3285 10.6506 37.395 10.1009 37.3971 9.54214C37.4007 8.61582 36.58 7.72854 35.6262 7.7712C34.6642 7.8142 33.86 8.54895 33.8556 9.54177L33.8559 9.54196Z" fill="#6C96F9"/>
<path d="M39.9456 36.452H37.604H32.0083H25.2435H19.3941C18.445 36.452 17.4934 36.4304 16.5447 36.452C16.531 36.4524 16.5172 36.452 16.5031 36.452V39.9938C17.944 39.9324 19.0503 38.8388 19.0695 37.3841C19.072 37.185 19.0695 36.9855 19.0695 36.786V34.0845V27.0912V25.4081C18.7771 25.9177 18.4847 26.4277 18.1923 26.9372C18.5252 26.6983 18.8772 26.497 19.2523 26.3319C19.1114 26.3915 18.9704 26.4508 18.8291 26.5104C19.5682 26.1985 20.377 26.0207 21.1461 25.8009C22.1974 25.5006 23.2491 25.1999 24.3005 24.8996C24.555 24.827 24.8094 24.7543 25.0635 24.6817C24.9066 24.7026 24.7498 24.7239 24.5926 24.7449H30.3068H31.1276C30.9707 24.7239 30.8139 24.7026 30.6567 24.6817C32.3528 25.1663 34.0489 25.651 35.7453 26.1356C36.1136 26.2408 36.4804 26.3409 36.8357 26.4869C36.6947 26.4273 36.5538 26.368 36.4125 26.3084C36.8494 26.4945 37.2578 26.7312 37.6362 27.0182C37.5166 26.926 37.3973 26.8335 37.2777 26.7413C37.6485 27.0301 37.9799 27.3594 38.2708 27.7284C38.1787 27.6087 38.0862 27.4895 37.994 27.3698C38.2813 27.7446 38.5198 28.149 38.7085 28.582C38.6489 28.4411 38.5896 28.3001 38.53 28.1588C38.9311 29.1137 39.0562 30.2059 39.2557 31.216C39.5242 32.5767 39.7931 33.9374 40.0616 35.2985C40.1328 35.6599 40.2185 36.0217 40.2716 36.3867C40.2506 36.2299 40.2293 36.073 40.2083 35.9158C40.2286 36.0998 40.2279 36.2797 40.2047 36.4633C40.2257 36.3065 40.247 36.1496 40.268 35.9924C40.2398 36.1688 40.1932 36.3365 40.1256 36.502C40.1852 36.3611 40.2445 36.2201 40.3041 36.0788C40.2326 36.2396 40.1458 36.3878 40.0406 36.5291C40.1328 36.4095 40.2253 36.2902 40.3175 36.1706C40.208 36.3083 40.0873 36.4297 39.9503 36.54C40.0699 36.4478 40.1892 36.3553 40.3088 36.2631C40.1668 36.3701 40.0175 36.4579 39.8552 36.5306C39.9962 36.4709 40.1371 36.4117 40.2785 36.352C40.109 36.4211 39.9373 36.468 39.7562 36.4959C39.9131 36.4749 40.0699 36.4536 40.2271 36.4326C40.1328 36.4442 40.0399 36.4503 39.9456 36.4521C39.02 36.4677 38.1314 37.2556 38.1747 38.2231C38.2169 39.1693 38.9531 40.0106 39.9456 39.994C41.1404 39.9738 42.2315 39.4407 42.9608 38.4967C43.2865 38.0753 43.5496 37.5935 43.6605 37.0666C43.7914 36.4468 43.7769 35.9235 43.6641 35.3032C43.5691 34.7795 43.4578 34.2588 43.3548 33.7365C43.0111 31.9962 42.6677 30.2557 42.324 28.5155C42.0663 27.2108 41.4819 26.0449 40.6207 25.0337C39.6962 23.948 38.4045 23.2111 37.0446 22.8226C35.3883 22.3492 33.7319 21.8761 32.0756 21.4026C31.6086 21.2693 31.1663 21.2031 30.6802 21.2031H28.0115H25.2308C24.7425 21.2031 24.2897 21.2183 23.8151 21.3538C22.1454 21.8309 20.4757 22.3079 18.806 22.7854C18.3318 22.9209 17.8764 23.0901 17.4239 23.2914C16.8167 23.5614 16.1315 23.952 15.769 24.5144C15.5904 24.7913 15.5344 25.1375 15.5272 25.462C15.5171 25.9221 15.5272 26.384 15.5272 26.8444V32.6222V37.2096C15.5272 37.3277 15.5308 37.4452 15.5156 37.5627C15.5366 37.4058 15.5579 37.249 15.5789 37.0917C15.5644 37.1586 15.5467 37.2172 15.5214 37.2804C15.581 37.1395 15.6403 36.9985 15.6999 36.8572C15.6699 36.9172 15.6389 36.9685 15.5998 37.0231C15.692 36.9035 15.7845 36.7842 15.8767 36.6646C15.8337 36.7152 15.791 36.7575 15.7404 36.8008C15.86 36.7087 15.9793 36.6161 16.0989 36.524C16.0447 36.563 15.993 36.5941 15.933 36.6241C16.074 36.5645 16.2149 36.5052 16.3562 36.4456C16.2926 36.4709 16.2341 36.4886 16.1676 36.503C16.3244 36.4821 16.4813 36.4607 16.6385 36.4398C16.5937 36.4474 16.5485 36.4513 16.503 36.4513C15.5789 36.4907 14.688 37.2378 14.732 38.2223C14.775 39.1818 15.5102 39.9932 16.503 39.9932H18.8446H24.4402H31.2051H37.0545C38.004 39.9932 38.9548 40.0095 39.9039 39.9932C39.9176 39.9929 39.9314 39.9932 39.9454 39.9932C40.8718 39.9932 41.7593 39.1786 41.7164 38.2223C41.6734 37.2635 40.9383 36.4521 39.9454 36.4521L39.9456 36.452Z" fill="#6C96F9"/>
<path d="M15.5274 25.1799V29.3653V35.9639C15.5274 36.4865 15.5827 37.0423 15.5158 37.5624C15.5368 37.4055 15.5581 37.2487 15.5791 37.0915C15.5646 37.1583 15.5469 37.2169 15.5216 37.2801C15.5813 37.1392 15.6405 36.9982 15.7002 36.8569C15.6702 36.9169 15.6391 36.9682 15.6001 37.0228C15.6922 36.9032 15.7847 36.7839 15.8769 36.6643C15.8339 36.7149 15.7912 36.7572 15.7406 36.8005C15.8603 36.7084 15.9795 36.6159 16.0992 36.5237C16.045 36.5627 15.9933 36.5938 15.9333 36.6238C16.0742 36.5642 16.2152 36.5049 16.3565 36.4453C16.2929 36.4706 16.2343 36.4883 16.1678 36.5027C16.3247 36.4818 16.4815 36.4604 16.6387 36.4395C16.1519 36.502 15.6322 36.451 15.1432 36.451H11.8197H4.25723H3.00672C2.81662 36.451 2.62109 36.4637 2.43208 36.4395C2.58893 36.4604 2.74578 36.4818 2.903 36.5027C2.83614 36.4883 2.77758 36.4706 2.71398 36.4453C2.85492 36.5049 2.99588 36.5642 3.13719 36.6238C3.07719 36.5938 3.02551 36.5627 2.9713 36.5237C3.09093 36.6159 3.21018 36.7084 3.32981 36.8005C3.27922 36.7575 3.23657 36.7149 3.19356 36.6643C3.28572 36.7839 3.37824 36.9032 3.4704 37.0228C3.43137 36.9686 3.40029 36.9169 3.37029 36.8569C3.42992 36.9979 3.4892 37.1388 3.54883 37.2801C3.52353 37.2165 3.50582 37.1583 3.49137 37.0915C3.51233 37.2483 3.53365 37.4052 3.55461 37.5624C3.49932 37.1323 3.54305 36.6744 3.54305 36.2421V33.2894V26.6601C3.54305 26.1321 3.48703 25.5697 3.55461 25.0438C3.53365 25.2007 3.51233 25.3576 3.49137 25.5148C3.50582 25.4479 3.52353 25.3893 3.54883 25.3257C3.4892 25.4667 3.42992 25.6076 3.37029 25.7489C3.40029 25.689 3.43137 25.6373 3.4704 25.5831C3.37824 25.7027 3.28572 25.8219 3.19356 25.9416C3.23657 25.891 3.27921 25.8483 3.32981 25.8053C3.21018 25.8975 3.09093 25.99 2.9713 26.0822C3.02551 26.0431 3.07719 26.012 3.13719 25.9821C2.99624 26.0417 2.85528 26.101 2.71398 26.1606C2.77758 26.1353 2.83613 26.1176 2.903 26.1031C2.74615 26.1241 2.5893 26.1454 2.43208 26.1664C2.9189 26.1039 3.43862 26.1548 3.92796 26.1548H7.25149H14.814H16.0645C16.2542 26.1548 16.4501 26.1422 16.6387 26.1664C16.4819 26.1454 16.325 26.1241 16.1678 26.1031C16.2347 26.1176 16.2932 26.1353 16.3565 26.1606C16.2155 26.101 16.0746 26.0417 15.9333 25.9821C15.9933 26.0121 16.0446 26.0431 16.0992 26.0822C15.9795 25.99 15.8603 25.8975 15.7407 25.8053C15.7913 25.8483 15.8335 25.891 15.8769 25.9416C15.7848 25.8219 15.6922 25.7027 15.6001 25.5831C15.6391 25.6373 15.6702 25.6889 15.7002 25.7489C15.6405 25.608 15.5813 25.467 15.5216 25.3257C15.5469 25.3893 15.5646 25.4479 15.5791 25.5148C15.5581 25.3579 15.5368 25.2011 15.5159 25.0438C15.5238 25.089 15.5274 25.1342 15.5274 25.1797C15.5668 26.1039 16.3138 26.9947 17.2984 26.9507C18.2243 26.9091 19.1116 26.1711 19.0693 25.1797C19.0075 23.7273 17.9059 22.6264 16.4419 22.6123C16.2301 22.6101 16.0183 22.6123 15.8069 22.6123H12.9348H5.21614H2.84168C2.48028 22.6123 2.11742 22.6199 1.77159 22.7446C0.661708 23.1446 0 24.1233 0 25.2972V31.3537V37.3249C0 38.5158 0.732219 39.5733 1.89557 39.9043C2.21397 39.995 2.53995 39.9932 2.86518 39.9932H5.2772H13.0237H15.8532C16.0541 39.9932 16.2551 39.9957 16.456 39.9932C17.9092 39.9751 19.0144 38.8699 19.069 37.4261C19.0888 36.8999 19.069 36.369 19.069 35.8425V32.2591V25.572V25.1802C19.069 24.2539 18.2543 23.3664 17.298 23.4093C16.3389 23.4519 15.5274 24.187 15.5274 25.1799Z" fill="#6C96F9"/>
<path d="M12.0237 20.1134V24.3737L13.7946 22.6028H6.34161H5.27401C5.86419 23.193 6.45476 23.7835 7.04495 24.3737V20.4528C7.04495 20.138 7.04567 19.8272 7.08687 19.5139C7.06591 19.6707 7.04459 19.8276 7.02363 19.9848C7.07784 19.6223 7.17397 19.2732 7.31312 18.9342C7.25348 19.0752 7.19421 19.2161 7.13458 19.3574C7.28565 19.0065 7.47755 18.6809 7.71103 18.3784C7.61887 18.498 7.52635 18.6173 7.43419 18.7369C7.65645 18.459 7.90619 18.2114 8.18592 17.9917C8.06629 18.0838 7.94703 18.1763 7.8274 18.2685C8.12484 18.043 8.44324 17.8587 8.78582 17.7109C8.64488 17.7705 8.50392 17.8298 8.36262 17.8894C8.71752 17.7448 9.08254 17.6476 9.46241 17.5956C9.30556 17.6165 9.14871 17.6378 8.9915 17.6588C9.36014 17.6158 9.7266 17.6158 10.0949 17.6613C9.93805 17.6404 9.7812 17.6191 9.62399 17.5981C10.0082 17.6519 10.379 17.7531 10.7367 17.9028C10.5958 17.8431 10.4548 17.7839 10.3135 17.7242C10.6402 17.867 10.9453 18.0455 11.2301 18.2606C11.1104 18.1684 10.9912 18.0759 10.8715 17.9837C11.1686 18.215 11.4324 18.4792 11.6641 18.7763C11.5719 18.6567 11.4794 18.5374 11.3873 18.4178C11.6019 18.7026 11.7805 19.0076 11.9236 19.3343C11.864 19.1934 11.8047 19.0524 11.7451 18.9111C11.8947 19.2689 11.9962 19.6397 12.0497 20.0238C12.0288 19.867 12.0075 19.7101 11.9865 19.5529C12.0103 19.7394 12.0222 19.9255 12.0237 20.1134C12.0313 21.0394 12.8329 21.9273 13.7947 21.8844C14.7477 21.8418 15.5738 21.1063 15.5656 20.1135C15.5573 19.1055 15.3065 18.1351 14.8392 17.2442C14.3852 16.3786 13.6982 15.6876 12.9121 15.1227C12.2432 14.6417 11.4151 14.3074 10.6006 14.1871C9.96415 14.0927 9.39459 14.0624 8.75666 14.1484C8.09708 14.2369 7.52928 14.4122 6.91929 14.6865C5.97567 15.1108 5.2207 15.826 4.60951 16.6465C3.98283 17.4882 3.67347 18.485 3.54515 19.5139C3.44974 20.279 3.50322 21.0744 3.50322 21.8432V24.3738C3.50322 25.3312 4.31458 26.1448 5.27416 26.1448H12.7272H13.7948C14.7522 26.1448 15.5657 25.3334 15.5657 24.3738V20.1135C15.5657 19.1872 14.7511 18.2996 13.7948 18.3426C12.8352 18.3856 12.0238 19.1207 12.0238 20.1135L12.0237 20.1134Z" fill="#6C96F9"/>
<path d="M9.53415 34.0399C10.4605 34.0399 11.348 33.2253 11.3051 32.269C11.2621 31.3095 10.527 30.498 9.53415 30.498C8.60784 30.498 7.72029 31.3127 7.76322 32.269C7.80622 33.2285 8.54133 34.0399 9.53415 34.0399Z" fill="#6C96F9"/>
</svg>
