<svg width="37" height="40" viewBox="0 0 37 40" fill="none" xmlns="http://www.w3.org/2000/svg">
<path d="M16.3474 34.8914C16.3474 34.1081 16.0831 33.3337 15.5545 32.5681C15.026 31.8025 14.4388 31.0021 13.7931 30.167C13.146 29.332 12.5582 28.4635 12.0296 27.5617C11.5011 26.6599 11.2375 25.6974 11.2388 24.6743C11.2388 22.699 11.937 21.0132 13.3333 19.6169C14.7297 18.2205 16.4155 17.5223 18.3908 17.5223C20.3661 17.5223 22.0519 18.2205 23.4483 19.6169C24.8446 21.0132 25.5428 22.699 25.5428 24.6743C25.5428 25.696 25.2785 26.6585 24.7499 27.5617C24.2214 28.4649 23.6342 29.3326 22.9885 30.165C22.3414 31.0001 21.7536 31.8004 21.225 32.566C20.6965 33.3316 20.4329 34.1068 20.4342 34.8914H16.3474ZM18.3908 40C17.8118 40 17.3262 39.8038 16.9338 39.4115C16.5415 39.0192 16.346 38.5342 16.3474 37.9566V36.9349H20.4342V37.9566C20.4342 38.5355 20.2381 39.0212 19.8457 39.4135C19.4534 39.8059 18.9684 40.0014 18.3908 40ZM30.6513 33.8697C30.3448 33.5632 30.1657 33.1716 30.1139 32.6948C30.0621 32.218 30.1732 31.7922 30.447 31.4176C31.1622 30.2937 31.716 29.0759 32.1083 27.764C32.5006 26.4521 32.6961 25.0816 32.6948 23.6526C32.6948 21.7795 32.3624 20.0167 31.6976 18.3642C31.0328 16.7118 30.1051 15.2392 28.9144 13.9464C28.5398 13.5036 28.3443 13.018 28.328 12.4894C28.3116 11.9608 28.5071 11.4929 28.9144 11.0856C29.3231 10.6769 29.8169 10.4725 30.3959 10.4725C30.9749 10.4725 31.4517 10.6769 31.8263 11.0856C33.3589 12.7203 34.5679 14.6105 35.4534 16.7561C36.3389 18.9017 36.7816 21.2005 36.7816 23.6526C36.7816 25.4917 36.5262 27.2545 36.0153 28.941C35.5045 30.6275 34.7893 32.1853 33.8697 33.6143C33.4951 34.1933 32.9842 34.4998 32.3372 34.5338C31.6901 34.5679 31.1281 34.3465 30.6513 33.8697ZM2.91188 33.6143C1.99234 32.1839 1.27714 30.6255 0.766283 28.9389C0.255428 27.2524 0 25.4903 0 23.6526C0 18.5441 1.78799 14.2018 5.36398 10.6258C8.93997 7.04981 13.2822 5.26181 18.3908 5.26181H18.7995L16.9604 3.42273C16.5858 3.04811 16.3985 2.57131 16.3985 1.99234C16.3985 1.41337 16.5858 0.936569 16.9604 0.561941C17.335 0.187314 17.8118 0 18.3908 0C18.9698 0 19.4466 0.187314 19.8212 0.561941L25.1341 5.87484C25.3384 6.07918 25.4828 6.30055 25.5673 6.53895C25.6518 6.77735 25.6947 7.03278 25.696 7.30524C25.696 7.57769 25.6531 7.83312 25.5673 8.07152C25.4815 8.30992 25.3371 8.53129 25.1341 8.73563L19.8212 14.0485C19.4125 14.4572 18.9357 14.6534 18.3908 14.637C17.8459 14.6207 17.3691 14.4075 16.9604 13.9974C16.5517 13.5888 16.3474 13.1031 16.3474 12.5405C16.3474 11.9779 16.5517 11.4929 16.9604 11.0856L18.6973 9.34866H18.3908C14.4402 9.34866 11.0685 10.745 8.27586 13.5377C5.48318 16.3304 4.08684 19.702 4.08684 23.6526C4.08684 25.083 4.28301 26.4541 4.67535 27.766C5.06769 29.0779 5.62077 30.2951 6.33461 31.4176C6.60707 31.7922 6.71809 32.218 6.66769 32.6948C6.61728 33.1716 6.43814 33.5632 6.13027 33.8697C5.65347 34.3465 5.09153 34.5679 4.44444 34.5338C3.79736 34.4998 3.2865 34.1933 2.91188 33.6143Z" fill="#6C96F9"/>
</svg>
