<svg width="47" height="40" viewBox="0 0 47 40" fill="none" xmlns="http://www.w3.org/2000/svg">
<path fill-rule="evenodd" clip-rule="evenodd" d="M4.62334 0C2.09388 0 0.000343306 2.09345 0.000343306 4.623L0 29.225C0 31.7545 2.09345 33.8449 4.623 33.8449H14.4338L12.4783 37.774C11.9678 38.7957 12.709 39.9976 13.8512 40H32.3012C33.4433 39.9976 34.1846 38.7957 33.674 37.774L31.7096 33.8452H41.5327C44.0621 33.8452 46.1409 31.7549 46.1409 29.2254L46.1405 4.62335C46.1405 2.09389 44.0622 8.78381e-05 41.5327 8.78381e-05L4.62334 0ZM4.62334 3.07602H41.5321C42.4106 3.07602 43.0759 3.74444 43.0759 4.623V24.6145H20.0057C19.9529 24.6118 19.8997 24.6118 19.8465 24.6145C17.7939 24.7206 17.9531 27.7997 20.0057 27.6936H43.0759V29.2258C43.0759 30.1044 42.4106 30.7696 41.5321 30.7696H4.62334C3.74482 30.7696 3.07637 30.1043 3.07637 29.2258V27.6936H7.69937C9.75195 27.6936 9.75195 24.6145 7.69937 24.6145H3.07637V4.62388C3.07637 3.74536 3.74479 3.0769 4.62334 3.0769V3.07602ZM13.8479 24.6143C12.9986 24.6143 12.3099 25.303 12.3099 26.1524C12.3099 27.0017 12.9986 27.6904 13.8479 27.6904C14.6972 27.6904 15.3859 27.0017 15.3859 26.1524C15.3859 25.303 14.6972 24.6143 13.8479 24.6143ZM17.8701 33.8459H28.282L29.8139 36.922H16.3382L17.8701 33.8459Z" fill="#6C96F9"/>
</svg>
