<svg width="37" height="26" viewBox="0 0 37 26" fill="none" xmlns="http://www.w3.org/2000/svg">
<path fill-rule="evenodd" clip-rule="evenodd" d="M0.835838 0C0.374034 0 0 0.374339 0 0.835838V25.0773C0 25.5388 0.374049 25.9131 0.835838 25.9131H35.9442C36.406 25.9131 36.78 25.5388 36.78 25.0773V0.835838C36.78 0.374324 36.406 0 35.9442 0H0.835838ZM1.67168 1.67168H35.1082V4.91069H1.67168V1.67168ZM1.67168 6.58274H35.1082V24.2414H1.67168V6.58274ZM3.87768 2.19433C3.25057 2.19433 2.71531 2.7296 2.71531 3.35669C2.71531 3.98379 3.23776 4.51906 3.87768 4.51906C4.52403 4.51906 5.04004 3.98379 5.04004 3.35669C5.04004 2.7296 4.5109 2.19433 3.87768 2.19433ZM3.87768 2.84739C4.14969 2.84739 4.387 3.09724 4.387 3.35671C4.387 3.61618 4.13686 3.86603 3.87768 3.86603C3.60392 3.86603 3.36835 3.61618 3.36835 3.35671C3.36835 3.09724 3.5908 2.84739 3.87768 2.84739ZM9.02405 3.35669C9.02405 2.7296 9.55318 2.19433 10.1864 2.19433C10.8196 2.19433 11.3488 2.7296 11.3488 3.35669C11.3488 3.98379 10.8328 4.51906 10.1864 4.51906C9.54008 4.51906 9.02405 3.98379 9.02405 3.35669ZM10.6957 3.35671C10.6957 3.09724 10.4733 2.84739 10.1864 2.84739C9.89954 2.84739 9.67709 3.09724 9.67709 3.35671C9.67709 3.61618 9.91265 3.86603 10.1864 3.86603C10.4602 3.86603 10.6957 3.61618 10.6957 3.35671ZM7.0409 2.19433C6.40767 2.19433 5.87854 2.7296 5.87854 3.35669C5.87854 3.98379 6.39457 4.51906 7.0409 4.51906C7.68726 4.51906 8.20327 3.98379 8.20327 3.35669C8.20327 2.7296 7.67412 2.19433 7.0409 2.19433ZM7.0409 2.84739C7.32779 2.84739 7.55023 3.09724 7.55023 3.35671C7.55023 3.61618 7.31466 3.86603 7.0409 3.86603C6.76714 3.86603 6.53158 3.61618 6.53158 3.35671C6.53158 3.09724 6.75403 2.84739 7.0409 2.84739ZM17.9603 8.47674C18.0751 8.40764 18.2052 8.36741 18.339 8.35925C18.5081 8.34845 18.6769 8.38956 18.8221 8.47674L23.5504 11.3112C23.8023 11.4628 23.9559 11.7353 23.9553 12.0295H23.955V14.8639C23.955 16.7266 23.5218 18.1178 22.623 19.2131C21.7241 20.3085 20.467 21.086 18.8221 22.0735C18.5571 22.2329 18.2253 22.2329 17.9603 22.0735C16.3174 21.0863 15.0576 20.3085 14.1594 19.2131C13.2612 18.1179 12.8402 16.7266 12.8402 14.8639V12.0295C12.8393 11.7353 12.9932 11.4628 13.2451 11.3112L17.9603 8.47674ZM22.2832 12.4994L18.3912 10.1747L14.5119 12.4994V14.8635C14.5119 16.4951 14.8084 17.3697 15.4524 18.1551C16.0291 18.8583 17.0337 19.5323 18.3912 20.3624C19.7512 19.5317 20.7527 18.8586 21.3299 18.1551C21.9742 17.3693 22.2832 16.495 22.2832 14.8635V12.4994Z" fill="#6C96F9"/>
</svg>
