<svg width="42" height="42" viewBox="0 0 42 42" fill="none" xmlns="http://www.w3.org/2000/svg">
<mask id="path-1-outside-1_796_70734" maskUnits="userSpaceOnUse" x="0" y="0" width="42" height="42" fill="black">
<rect fill="white" width="42" height="42"/>
<path d="M40.8502 26.8333C40.5675 26.0006 39.8934 25.3965 38.9518 25.1314C37.9405 24.847 36.6262 24.9386 35.0452 25.4037L27.8647 27.5161C27.4942 26.7655 26.8143 26.1714 25.9436 25.9389L20.8356 24.5742C17.1021 21.9624 15.1028 22.7151 12.1626 24.1555C10.5407 24.9499 8.89245 25.7327 7.21205 26.5262L7.08013 26.2262C6.69336 25.3465 5.66262 24.9446 4.78241 25.3309L2.04604 26.5312C1.61694 26.7197 1.28785 27.0615 1.11914 27.4946C0.950403 27.9275 0.961128 28.4027 1.14987 28.8312L6.0442 39.958C6.33124 40.6103 6.97258 41 7.64408 41C7.87747 41 8.11522 40.9527 8.34194 40.8533L11.0783 39.653C11.5074 39.4645 11.8365 39.1227 12.0052 38.6892C12.174 38.2564 12.1629 37.7812 11.9745 37.3526L11.497 36.2668L13.9387 35.0776C14.5934 34.7589 15.2516 34.7021 15.9509 34.9048L21.6921 36.5672C22.1146 36.6898 22.5506 36.7418 22.993 36.7418C24.5213 36.7418 26.1235 36.1169 27.4699 35.5919C27.5885 35.5455 27.7044 35.5006 27.8184 35.4565L38.5881 31.2974C40.3358 30.6219 41.4141 28.4941 40.8502 26.8333ZM10.9488 38.277C10.8899 38.4278 10.7743 38.5475 10.6229 38.6139L7.88654 39.8143C7.57834 39.9494 7.21709 39.809 7.08167 39.5008L2.18733 28.3748C2.12065 28.2232 2.1163 28.0571 2.17516 27.9063C2.23401 27.7555 2.3497 27.6358 2.50104 27.5694L5.23742 26.3691C5.31715 26.334 5.40007 26.3175 5.48212 26.3175C5.71726 26.3175 5.94195 26.4537 6.04227 26.6825L10.9366 37.8092C11.003 37.9606 11.0074 38.1266 10.9488 38.277ZM38.1789 30.2394L27.4092 34.3985C27.2944 34.4426 27.1773 34.4887 27.0572 34.5354C25.4809 35.1503 23.518 35.9158 22.0063 35.4779L16.265 33.8155C15.2972 33.5354 14.3471 33.6169 13.4416 34.0579L11.0396 35.2281L7.6685 27.5645C9.36227 26.7643 11.0236 25.9754 12.6612 25.1738C15.4028 23.8308 16.9861 23.2379 20.2638 25.5588C20.3189 25.5976 20.3798 25.6263 20.4453 25.6437L25.6508 27.0345C26.6502 27.3016 27.2457 28.3317 26.9787 29.3311C26.85 29.8126 26.5392 30.2165 26.104 30.4678C25.6685 30.7195 25.1634 30.7874 24.6822 30.6589L17.7644 28.8106C17.4623 28.7297 17.1512 28.9092 17.0703 29.2119C16.9894 29.514 17.1689 29.8251 17.4716 29.906L24.3893 31.7543C25.1635 31.9613 25.9736 31.8529 26.6711 31.4496C27.3687 31.046 27.8665 30.398 28.0736 29.6238C28.1646 29.284 28.193 28.9419 28.1663 28.6099L35.3639 26.4929C37.7388 25.7941 39.3885 26.0583 39.7758 27.1994C40.1435 28.2795 39.3523 29.786 38.1789 30.2394ZM20.1398 17.4033C20.8612 17.4033 21.3117 17.8713 21.4932 18.3091C21.6747 18.7469 21.6869 19.3966 21.1766 19.9066C20.7202 20.3629 20.7202 21.1054 21.1766 21.5618L22.4761 22.8613C22.9324 23.3177 23.6746 23.3177 24.1313 22.8613C24.6422 22.3505 25.2917 22.362 25.7294 22.5435C26.1672 22.725 26.6349 23.1762 26.6349 23.8984C26.6349 24.5435 27.1599 25.0686 27.8051 25.0686H29.6427C30.2878 25.0686 30.8129 24.5435 30.8129 23.8984C30.8129 23.1771 31.2808 22.7265 31.7186 22.545C32.1564 22.3635 32.8061 22.3514 33.3161 22.8616C33.537 23.0826 33.831 23.2046 34.1436 23.2046C34.4561 23.2046 34.7501 23.0829 34.971 22.8616L36.2702 21.5624C36.4914 21.3415 36.6132 21.0475 36.6132 20.735C36.6132 20.4225 36.4914 20.1285 36.2702 19.9076C35.7602 19.3976 35.7724 18.7481 35.9536 18.3101C36.1351 17.8723 36.5856 17.4043 37.307 17.4043C37.9521 17.4043 38.4772 16.8793 38.4772 16.2341V15.3153C38.4772 15.0022 38.2235 14.7485 37.9103 14.7485L35.7726 14.7482L35.7706 13.5337H36.2623C36.4493 13.8257 36.7758 14.0196 37.1486 14.0196C37.7302 14.0196 38.2011 13.5485 38.2011 12.9672C38.2011 12.3856 37.73 11.9147 37.1486 11.9147C36.7764 11.9147 36.4499 12.1086 36.2629 12.4006H35.2035C35.0527 12.4006 34.9086 12.4603 34.8025 12.5667C34.6961 12.6731 34.6367 12.8178 34.6367 12.968L34.6401 14.7485H33.2142C32.9011 14.7485 32.6474 15.0022 32.6474 15.3153C32.6474 17.4785 30.8878 19.2381 28.7246 19.2381C26.5614 19.2381 24.8018 17.4785 24.8018 15.3153C24.8018 15.0021 24.5481 14.7485 24.235 14.7485H22.8091L22.8125 12.968C22.8128 12.8172 22.7531 12.6731 22.6467 12.5667C22.5403 12.4603 22.3959 12.4006 22.2457 12.4006H21.1863C20.9993 12.1086 20.6729 11.9147 20.3006 11.9147C19.719 11.9147 19.2481 12.3858 19.2481 12.9672C19.2481 13.5488 19.7195 14.0196 20.3006 14.0196C20.6728 14.0196 20.9993 13.8257 21.1869 13.5337H21.6786L21.6766 14.7482H19.5363C19.2231 14.7482 18.9694 15.0019 18.9694 15.315V16.2338C18.9694 16.8786 19.4944 17.4033 20.1398 17.4033ZM20.103 15.8815H23.6984C23.9811 18.4039 26.1269 20.3708 28.7235 20.3708C31.3201 20.3708 33.4657 18.4033 33.7486 15.8815H37.3441V16.2334C37.3441 16.2537 37.3275 16.2703 37.3073 16.2703C36.2365 16.2703 35.3169 16.8855 34.9063 17.8756C34.4958 18.8664 34.7115 19.9519 35.4682 20.7086C35.4708 20.7112 35.4789 20.7193 35.4789 20.7347C35.4789 20.7497 35.4708 20.7582 35.4682 20.7608L34.169 22.06C34.1664 22.0626 34.1583 22.0707 34.1429 22.0707C34.1278 22.0707 34.1194 22.0626 34.1168 22.06C33.3601 21.3033 32.274 21.0875 31.2839 21.4981C30.2937 21.908 29.6785 22.8283 29.6785 23.899C29.6785 23.9193 29.662 23.9358 29.6417 23.9358H27.8041C27.7838 23.9358 27.7672 23.9193 27.7672 23.899C27.7672 22.8274 27.152 21.9069 26.1622 21.497C25.8305 21.3598 25.4881 21.2926 25.1509 21.2926C24.4814 21.2926 23.8325 21.5567 23.3289 22.0606C23.3263 22.0632 23.3182 22.0713 23.3028 22.0713C23.2878 22.0713 23.2794 22.0632 23.2767 22.0606L21.9776 20.7614C21.9633 20.7472 21.9633 20.7237 21.9776 20.7095C22.7343 19.9528 22.95 18.8667 22.5394 17.8766C22.1295 16.8864 21.2092 16.2712 20.1385 16.2712C20.1182 16.2712 20.1017 16.2547 20.1017 16.2344L20.1019 15.8815L20.103 15.8815ZM33.4178 10.9865C33.4906 11.0025 33.5663 11.0118 33.644 11.0118C34.2256 11.0118 34.6965 10.5403 34.6965 9.95928C34.6965 9.37768 34.2253 8.9068 33.644 8.9068C33.0624 8.9068 32.5915 9.37795 32.5915 9.95928C32.5915 10.0367 32.6005 10.1127 32.6167 10.1854L30.0177 12.7844C29.9113 12.8908 29.8519 13.0346 29.8519 13.1854V14.7485H27.5957V13.1854C27.5957 13.0352 27.5359 12.8911 27.4298 12.7844L24.8308 10.1854C24.8468 10.1127 24.8561 10.037 24.8561 9.95928C24.8561 9.37768 24.3849 8.9068 23.8036 8.9068C23.222 8.9068 22.7511 9.37795 22.7511 9.95928C22.7511 10.5409 23.2225 11.0118 23.8036 11.0118C23.881 11.0118 23.957 11.0028 24.0297 10.9865L26.4631 13.4199V14.7484H26.1332C25.8201 14.7484 25.5664 15.0021 25.5664 15.3152C25.5664 17.0565 26.983 18.4738 28.7249 18.4738C30.4669 18.4738 31.8835 17.0571 31.8835 15.3152C31.8835 15.0021 31.6298 14.7484 31.3167 14.7484H30.9867V13.4199L33.4178 10.9865ZM28.7232 17.3393C27.8035 17.3393 27.0251 16.7226 26.7793 15.8815H30.6673C30.4211 16.7229 29.6426 17.3393 28.7232 17.3393ZM22.2056 4.50094C21.9844 4.27972 21.9844 3.92079 22.2056 3.69956C23.9466 1.95851 26.2612 1 28.723 1C31.1848 1 33.4991 1.95911 35.2402 3.69986C35.4614 3.92108 35.4614 4.28001 35.2402 4.50124C35.1294 4.612 34.9841 4.66709 34.8392 4.66709C34.6942 4.66709 34.549 4.61171 34.4382 4.50124C32.9111 2.97418 30.8813 2.13338 28.7227 2.13338C26.5636 2.13338 24.5338 2.97418 23.0067 4.50094C22.7863 4.72217 22.4274 4.72217 22.2056 4.50094ZM32.5099 6.43015C31.4987 5.41886 30.1537 4.86159 28.7237 4.86159C27.2932 4.86159 25.9484 5.41827 24.9368 6.42985C24.7156 6.65107 24.3567 6.65107 24.1354 6.42985C23.9142 6.20863 23.9142 5.84969 24.1354 5.62846C25.3613 4.40319 26.9904 3.72821 28.7236 3.72821C30.4569 3.72821 32.086 4.40318 33.3118 5.62898C33.533 5.85021 33.533 6.20914 33.3118 6.43037C33.201 6.54112 33.0558 6.59621 32.9108 6.59621C32.7658 6.59592 32.6204 6.54119 32.5099 6.43015ZM28.7234 6.45653C29.728 6.45653 30.672 6.84736 31.3823 7.558C31.6036 7.77922 31.6036 8.13815 31.3823 8.35938C31.2716 8.47014 31.1263 8.52523 30.9814 8.52523C30.8364 8.52523 30.6911 8.46985 30.5804 8.35938C30.0843 7.86331 29.4247 7.58991 28.7231 7.58991C28.0212 7.58991 27.3619 7.86303 26.8658 8.35938C26.6446 8.5806 26.2857 8.5806 26.0645 8.35938C25.8432 8.13816 25.8432 7.77923 26.0645 7.558C26.7751 6.84795 27.7194 6.45653 28.7234 6.45653Z"/>
</mask>
<path d="M40.8502 26.8333C40.5675 26.0006 39.8934 25.3965 38.9518 25.1314C37.9405 24.847 36.6262 24.9386 35.0452 25.4037L27.8647 27.5161C27.4942 26.7655 26.8143 26.1714 25.9436 25.9389L20.8356 24.5742C17.1021 21.9624 15.1028 22.7151 12.1626 24.1555C10.5407 24.9499 8.89245 25.7327 7.21205 26.5262L7.08013 26.2262C6.69336 25.3465 5.66262 24.9446 4.78241 25.3309L2.04604 26.5312C1.61694 26.7197 1.28785 27.0615 1.11914 27.4946C0.950403 27.9275 0.961128 28.4027 1.14987 28.8312L6.0442 39.958C6.33124 40.6103 6.97258 41 7.64408 41C7.87747 41 8.11522 40.9527 8.34194 40.8533L11.0783 39.653C11.5074 39.4645 11.8365 39.1227 12.0052 38.6892C12.174 38.2564 12.1629 37.7812 11.9745 37.3526L11.497 36.2668L13.9387 35.0776C14.5934 34.7589 15.2516 34.7021 15.9509 34.9048L21.6921 36.5672C22.1146 36.6898 22.5506 36.7418 22.993 36.7418C24.5213 36.7418 26.1235 36.1169 27.4699 35.5919C27.5885 35.5455 27.7044 35.5006 27.8184 35.4565L38.5881 31.2974C40.3358 30.6219 41.4141 28.4941 40.8502 26.8333ZM10.9488 38.277C10.8899 38.4278 10.7743 38.5475 10.6229 38.6139L7.88654 39.8143C7.57834 39.9494 7.21709 39.809 7.08167 39.5008L2.18733 28.3748C2.12065 28.2232 2.1163 28.0571 2.17516 27.9063C2.23401 27.7555 2.3497 27.6358 2.50104 27.5694L5.23742 26.3691C5.31715 26.334 5.40007 26.3175 5.48212 26.3175C5.71726 26.3175 5.94195 26.4537 6.04227 26.6825L10.9366 37.8092C11.003 37.9606 11.0074 38.1266 10.9488 38.277ZM38.1789 30.2394L27.4092 34.3985C27.2944 34.4426 27.1773 34.4887 27.0572 34.5354C25.4809 35.1503 23.518 35.9158 22.0063 35.4779L16.265 33.8155C15.2972 33.5354 14.3471 33.6169 13.4416 34.0579L11.0396 35.2281L7.6685 27.5645C9.36227 26.7643 11.0236 25.9754 12.6612 25.1738C15.4028 23.8308 16.9861 23.2379 20.2638 25.5588C20.3189 25.5976 20.3798 25.6263 20.4453 25.6437L25.6508 27.0345C26.6502 27.3016 27.2457 28.3317 26.9787 29.3311C26.85 29.8126 26.5392 30.2165 26.104 30.4678C25.6685 30.7195 25.1634 30.7874 24.6822 30.6589L17.7644 28.8106C17.4623 28.7297 17.1512 28.9092 17.0703 29.2119C16.9894 29.514 17.1689 29.8251 17.4716 29.906L24.3893 31.7543C25.1635 31.9613 25.9736 31.8529 26.6711 31.4496C27.3687 31.046 27.8665 30.398 28.0736 29.6238C28.1646 29.284 28.193 28.9419 28.1663 28.6099L35.3639 26.4929C37.7388 25.7941 39.3885 26.0583 39.7758 27.1994C40.1435 28.2795 39.3523 29.786 38.1789 30.2394ZM20.1398 17.4033C20.8612 17.4033 21.3117 17.8713 21.4932 18.3091C21.6747 18.7469 21.6869 19.3966 21.1766 19.9066C20.7202 20.3629 20.7202 21.1054 21.1766 21.5618L22.4761 22.8613C22.9324 23.3177 23.6746 23.3177 24.1313 22.8613C24.6422 22.3505 25.2917 22.362 25.7294 22.5435C26.1672 22.725 26.6349 23.1762 26.6349 23.8984C26.6349 24.5435 27.1599 25.0686 27.8051 25.0686H29.6427C30.2878 25.0686 30.8129 24.5435 30.8129 23.8984C30.8129 23.1771 31.2808 22.7265 31.7186 22.545C32.1564 22.3635 32.8061 22.3514 33.3161 22.8616C33.537 23.0826 33.831 23.2046 34.1436 23.2046C34.4561 23.2046 34.7501 23.0829 34.971 22.8616L36.2702 21.5624C36.4914 21.3415 36.6132 21.0475 36.6132 20.735C36.6132 20.4225 36.4914 20.1285 36.2702 19.9076C35.7602 19.3976 35.7724 18.7481 35.9536 18.3101C36.1351 17.8723 36.5856 17.4043 37.307 17.4043C37.9521 17.4043 38.4772 16.8793 38.4772 16.2341V15.3153C38.4772 15.0022 38.2235 14.7485 37.9103 14.7485L35.7726 14.7482L35.7706 13.5337H36.2623C36.4493 13.8257 36.7758 14.0196 37.1486 14.0196C37.7302 14.0196 38.2011 13.5485 38.2011 12.9672C38.2011 12.3856 37.73 11.9147 37.1486 11.9147C36.7764 11.9147 36.4499 12.1086 36.2629 12.4006H35.2035C35.0527 12.4006 34.9086 12.4603 34.8025 12.5667C34.6961 12.6731 34.6367 12.8178 34.6367 12.968L34.6401 14.7485H33.2142C32.9011 14.7485 32.6474 15.0022 32.6474 15.3153C32.6474 17.4785 30.8878 19.2381 28.7246 19.2381C26.5614 19.2381 24.8018 17.4785 24.8018 15.3153C24.8018 15.0021 24.5481 14.7485 24.235 14.7485H22.8091L22.8125 12.968C22.8128 12.8172 22.7531 12.6731 22.6467 12.5667C22.5403 12.4603 22.3959 12.4006 22.2457 12.4006H21.1863C20.9993 12.1086 20.6729 11.9147 20.3006 11.9147C19.719 11.9147 19.2481 12.3858 19.2481 12.9672C19.2481 13.5488 19.7195 14.0196 20.3006 14.0196C20.6728 14.0196 20.9993 13.8257 21.1869 13.5337H21.6786L21.6766 14.7482H19.5363C19.2231 14.7482 18.9694 15.0019 18.9694 15.315V16.2338C18.9694 16.8786 19.4944 17.4033 20.1398 17.4033ZM20.103 15.8815H23.6984C23.9811 18.4039 26.1269 20.3708 28.7235 20.3708C31.3201 20.3708 33.4657 18.4033 33.7486 15.8815H37.3441V16.2334C37.3441 16.2537 37.3275 16.2703 37.3073 16.2703C36.2365 16.2703 35.3169 16.8855 34.9063 17.8756C34.4958 18.8664 34.7115 19.9519 35.4682 20.7086C35.4708 20.7112 35.4789 20.7193 35.4789 20.7347C35.4789 20.7497 35.4708 20.7582 35.4682 20.7608L34.169 22.06C34.1664 22.0626 34.1583 22.0707 34.1429 22.0707C34.1278 22.0707 34.1194 22.0626 34.1168 22.06C33.3601 21.3033 32.274 21.0875 31.2839 21.4981C30.2937 21.908 29.6785 22.8283 29.6785 23.899C29.6785 23.9193 29.662 23.9358 29.6417 23.9358H27.8041C27.7838 23.9358 27.7672 23.9193 27.7672 23.899C27.7672 22.8274 27.152 21.9069 26.1622 21.497C25.8305 21.3598 25.4881 21.2926 25.1509 21.2926C24.4814 21.2926 23.8325 21.5567 23.3289 22.0606C23.3263 22.0632 23.3182 22.0713 23.3028 22.0713C23.2878 22.0713 23.2794 22.0632 23.2767 22.0606L21.9776 20.7614C21.9633 20.7472 21.9633 20.7237 21.9776 20.7095C22.7343 19.9528 22.95 18.8667 22.5394 17.8766C22.1295 16.8864 21.2092 16.2712 20.1385 16.2712C20.1182 16.2712 20.1017 16.2547 20.1017 16.2344L20.1019 15.8815L20.103 15.8815ZM33.4178 10.9865C33.4906 11.0025 33.5663 11.0118 33.644 11.0118C34.2256 11.0118 34.6965 10.5403 34.6965 9.95928C34.6965 9.37768 34.2253 8.9068 33.644 8.9068C33.0624 8.9068 32.5915 9.37795 32.5915 9.95928C32.5915 10.0367 32.6005 10.1127 32.6167 10.1854L30.0177 12.7844C29.9113 12.8908 29.8519 13.0346 29.8519 13.1854V14.7485H27.5957V13.1854C27.5957 13.0352 27.5359 12.8911 27.4298 12.7844L24.8308 10.1854C24.8468 10.1127 24.8561 10.037 24.8561 9.95928C24.8561 9.37768 24.3849 8.9068 23.8036 8.9068C23.222 8.9068 22.7511 9.37795 22.7511 9.95928C22.7511 10.5409 23.2225 11.0118 23.8036 11.0118C23.881 11.0118 23.957 11.0028 24.0297 10.9865L26.4631 13.4199V14.7484H26.1332C25.8201 14.7484 25.5664 15.0021 25.5664 15.3152C25.5664 17.0565 26.983 18.4738 28.7249 18.4738C30.4669 18.4738 31.8835 17.0571 31.8835 15.3152C31.8835 15.0021 31.6298 14.7484 31.3167 14.7484H30.9867V13.4199L33.4178 10.9865ZM28.7232 17.3393C27.8035 17.3393 27.0251 16.7226 26.7793 15.8815H30.6673C30.4211 16.7229 29.6426 17.3393 28.7232 17.3393ZM22.2056 4.50094C21.9844 4.27972 21.9844 3.92079 22.2056 3.69956C23.9466 1.95851 26.2612 1 28.723 1C31.1848 1 33.4991 1.95911 35.2402 3.69986C35.4614 3.92108 35.4614 4.28001 35.2402 4.50124C35.1294 4.612 34.9841 4.66709 34.8392 4.66709C34.6942 4.66709 34.549 4.61171 34.4382 4.50124C32.9111 2.97418 30.8813 2.13338 28.7227 2.13338C26.5636 2.13338 24.5338 2.97418 23.0067 4.50094C22.7863 4.72217 22.4274 4.72217 22.2056 4.50094ZM32.5099 6.43015C31.4987 5.41886 30.1537 4.86159 28.7237 4.86159C27.2932 4.86159 25.9484 5.41827 24.9368 6.42985C24.7156 6.65107 24.3567 6.65107 24.1354 6.42985C23.9142 6.20863 23.9142 5.84969 24.1354 5.62846C25.3613 4.40319 26.9904 3.72821 28.7236 3.72821C30.4569 3.72821 32.086 4.40318 33.3118 5.62898C33.533 5.85021 33.533 6.20914 33.3118 6.43037C33.201 6.54112 33.0558 6.59621 32.9108 6.59621C32.7658 6.59592 32.6204 6.54119 32.5099 6.43015ZM28.7234 6.45653C29.728 6.45653 30.672 6.84736 31.3823 7.558C31.6036 7.77922 31.6036 8.13815 31.3823 8.35938C31.2716 8.47014 31.1263 8.52523 30.9814 8.52523C30.8364 8.52523 30.6911 8.46985 30.5804 8.35938C30.0843 7.86331 29.4247 7.58991 28.7231 7.58991C28.0212 7.58991 27.3619 7.86303 26.8658 8.35938C26.6446 8.5806 26.2857 8.5806 26.0645 8.35938C25.8432 8.13816 25.8432 7.77923 26.0645 7.558C26.7751 6.84795 27.7194 6.45653 28.7234 6.45653Z" fill="#6C96F9"/>
<path d="M40.8502 26.8333C40.5675 26.0006 39.8934 25.3965 38.9518 25.1314C37.9405 24.847 36.6262 24.9386 35.0452 25.4037L27.8647 27.5161C27.4942 26.7655 26.8143 26.1714 25.9436 25.9389L20.8356 24.5742C17.1021 21.9624 15.1028 22.7151 12.1626 24.1555C10.5407 24.9499 8.89245 25.7327 7.21205 26.5262L7.08013 26.2262C6.69336 25.3465 5.66262 24.9446 4.78241 25.3309L2.04604 26.5312C1.61694 26.7197 1.28785 27.0615 1.11914 27.4946C0.950403 27.9275 0.961128 28.4027 1.14987 28.8312L6.0442 39.958C6.33124 40.6103 6.97258 41 7.64408 41C7.87747 41 8.11522 40.9527 8.34194 40.8533L11.0783 39.653C11.5074 39.4645 11.8365 39.1227 12.0052 38.6892C12.174 38.2564 12.1629 37.7812 11.9745 37.3526L11.497 36.2668L13.9387 35.0776C14.5934 34.7589 15.2516 34.7021 15.9509 34.9048L21.6921 36.5672C22.1146 36.6898 22.5506 36.7418 22.993 36.7418C24.5213 36.7418 26.1235 36.1169 27.4699 35.5919C27.5885 35.5455 27.7044 35.5006 27.8184 35.4565L38.5881 31.2974C40.3358 30.6219 41.4141 28.4941 40.8502 26.8333ZM10.9488 38.277C10.8899 38.4278 10.7743 38.5475 10.6229 38.6139L7.88654 39.8143C7.57834 39.9494 7.21709 39.809 7.08167 39.5008L2.18733 28.3748C2.12065 28.2232 2.1163 28.0571 2.17516 27.9063C2.23401 27.7555 2.3497 27.6358 2.50104 27.5694L5.23742 26.3691C5.31715 26.334 5.40007 26.3175 5.48212 26.3175C5.71726 26.3175 5.94195 26.4537 6.04227 26.6825L10.9366 37.8092C11.003 37.9606 11.0074 38.1266 10.9488 38.277ZM38.1789 30.2394L27.4092 34.3985C27.2944 34.4426 27.1773 34.4887 27.0572 34.5354C25.4809 35.1503 23.518 35.9158 22.0063 35.4779L16.265 33.8155C15.2972 33.5354 14.3471 33.6169 13.4416 34.0579L11.0396 35.2281L7.6685 27.5645C9.36227 26.7643 11.0236 25.9754 12.6612 25.1738C15.4028 23.8308 16.9861 23.2379 20.2638 25.5588C20.3189 25.5976 20.3798 25.6263 20.4453 25.6437L25.6508 27.0345C26.6502 27.3016 27.2457 28.3317 26.9787 29.3311C26.85 29.8126 26.5392 30.2165 26.104 30.4678C25.6685 30.7195 25.1634 30.7874 24.6822 30.6589L17.7644 28.8106C17.4623 28.7297 17.1512 28.9092 17.0703 29.2119C16.9894 29.514 17.1689 29.8251 17.4716 29.906L24.3893 31.7543C25.1635 31.9613 25.9736 31.8529 26.6711 31.4496C27.3687 31.046 27.8665 30.398 28.0736 29.6238C28.1646 29.284 28.193 28.9419 28.1663 28.6099L35.3639 26.4929C37.7388 25.7941 39.3885 26.0583 39.7758 27.1994C40.1435 28.2795 39.3523 29.786 38.1789 30.2394ZM20.1398 17.4033C20.8612 17.4033 21.3117 17.8713 21.4932 18.3091C21.6747 18.7469 21.6869 19.3966 21.1766 19.9066C20.7202 20.3629 20.7202 21.1054 21.1766 21.5618L22.4761 22.8613C22.9324 23.3177 23.6746 23.3177 24.1313 22.8613C24.6422 22.3505 25.2917 22.362 25.7294 22.5435C26.1672 22.725 26.6349 23.1762 26.6349 23.8984C26.6349 24.5435 27.1599 25.0686 27.8051 25.0686H29.6427C30.2878 25.0686 30.8129 24.5435 30.8129 23.8984C30.8129 23.1771 31.2808 22.7265 31.7186 22.545C32.1564 22.3635 32.8061 22.3514 33.3161 22.8616C33.537 23.0826 33.831 23.2046 34.1436 23.2046C34.4561 23.2046 34.7501 23.0829 34.971 22.8616L36.2702 21.5624C36.4914 21.3415 36.6132 21.0475 36.6132 20.735C36.6132 20.4225 36.4914 20.1285 36.2702 19.9076C35.7602 19.3976 35.7724 18.7481 35.9536 18.3101C36.1351 17.8723 36.5856 17.4043 37.307 17.4043C37.9521 17.4043 38.4772 16.8793 38.4772 16.2341V15.3153C38.4772 15.0022 38.2235 14.7485 37.9103 14.7485L35.7726 14.7482L35.7706 13.5337H36.2623C36.4493 13.8257 36.7758 14.0196 37.1486 14.0196C37.7302 14.0196 38.2011 13.5485 38.2011 12.9672C38.2011 12.3856 37.73 11.9147 37.1486 11.9147C36.7764 11.9147 36.4499 12.1086 36.2629 12.4006H35.2035C35.0527 12.4006 34.9086 12.4603 34.8025 12.5667C34.6961 12.6731 34.6367 12.8178 34.6367 12.968L34.6401 14.7485H33.2142C32.9011 14.7485 32.6474 15.0022 32.6474 15.3153C32.6474 17.4785 30.8878 19.2381 28.7246 19.2381C26.5614 19.2381 24.8018 17.4785 24.8018 15.3153C24.8018 15.0021 24.5481 14.7485 24.235 14.7485H22.8091L22.8125 12.968C22.8128 12.8172 22.7531 12.6731 22.6467 12.5667C22.5403 12.4603 22.3959 12.4006 22.2457 12.4006H21.1863C20.9993 12.1086 20.6729 11.9147 20.3006 11.9147C19.719 11.9147 19.2481 12.3858 19.2481 12.9672C19.2481 13.5488 19.7195 14.0196 20.3006 14.0196C20.6728 14.0196 20.9993 13.8257 21.1869 13.5337H21.6786L21.6766 14.7482H19.5363C19.2231 14.7482 18.9694 15.0019 18.9694 15.315V16.2338C18.9694 16.8786 19.4944 17.4033 20.1398 17.4033ZM20.103 15.8815H23.6984C23.9811 18.4039 26.1269 20.3708 28.7235 20.3708C31.3201 20.3708 33.4657 18.4033 33.7486 15.8815H37.3441V16.2334C37.3441 16.2537 37.3275 16.2703 37.3073 16.2703C36.2365 16.2703 35.3169 16.8855 34.9063 17.8756C34.4958 18.8664 34.7115 19.9519 35.4682 20.7086C35.4708 20.7112 35.4789 20.7193 35.4789 20.7347C35.4789 20.7497 35.4708 20.7582 35.4682 20.7608L34.169 22.06C34.1664 22.0626 34.1583 22.0707 34.1429 22.0707C34.1278 22.0707 34.1194 22.0626 34.1168 22.06C33.3601 21.3033 32.274 21.0875 31.2839 21.4981C30.2937 21.908 29.6785 22.8283 29.6785 23.899C29.6785 23.9193 29.662 23.9358 29.6417 23.9358H27.8041C27.7838 23.9358 27.7672 23.9193 27.7672 23.899C27.7672 22.8274 27.152 21.9069 26.1622 21.497C25.8305 21.3598 25.4881 21.2926 25.1509 21.2926C24.4814 21.2926 23.8325 21.5567 23.3289 22.0606C23.3263 22.0632 23.3182 22.0713 23.3028 22.0713C23.2878 22.0713 23.2794 22.0632 23.2767 22.0606L21.9776 20.7614C21.9633 20.7472 21.9633 20.7237 21.9776 20.7095C22.7343 19.9528 22.95 18.8667 22.5394 17.8766C22.1295 16.8864 21.2092 16.2712 20.1385 16.2712C20.1182 16.2712 20.1017 16.2547 20.1017 16.2344L20.1019 15.8815L20.103 15.8815ZM33.4178 10.9865C33.4906 11.0025 33.5663 11.0118 33.644 11.0118C34.2256 11.0118 34.6965 10.5403 34.6965 9.95928C34.6965 9.37768 34.2253 8.9068 33.644 8.9068C33.0624 8.9068 32.5915 9.37795 32.5915 9.95928C32.5915 10.0367 32.6005 10.1127 32.6167 10.1854L30.0177 12.7844C29.9113 12.8908 29.8519 13.0346 29.8519 13.1854V14.7485H27.5957V13.1854C27.5957 13.0352 27.5359 12.8911 27.4298 12.7844L24.8308 10.1854C24.8468 10.1127 24.8561 10.037 24.8561 9.95928C24.8561 9.37768 24.3849 8.9068 23.8036 8.9068C23.222 8.9068 22.7511 9.37795 22.7511 9.95928C22.7511 10.5409 23.2225 11.0118 23.8036 11.0118C23.881 11.0118 23.957 11.0028 24.0297 10.9865L26.4631 13.4199V14.7484H26.1332C25.8201 14.7484 25.5664 15.0021 25.5664 15.3152C25.5664 17.0565 26.983 18.4738 28.7249 18.4738C30.4669 18.4738 31.8835 17.0571 31.8835 15.3152C31.8835 15.0021 31.6298 14.7484 31.3167 14.7484H30.9867V13.4199L33.4178 10.9865ZM28.7232 17.3393C27.8035 17.3393 27.0251 16.7226 26.7793 15.8815H30.6673C30.4211 16.7229 29.6426 17.3393 28.7232 17.3393ZM22.2056 4.50094C21.9844 4.27972 21.9844 3.92079 22.2056 3.69956C23.9466 1.95851 26.2612 1 28.723 1C31.1848 1 33.4991 1.95911 35.2402 3.69986C35.4614 3.92108 35.4614 4.28001 35.2402 4.50124C35.1294 4.612 34.9841 4.66709 34.8392 4.66709C34.6942 4.66709 34.549 4.61171 34.4382 4.50124C32.9111 2.97418 30.8813 2.13338 28.7227 2.13338C26.5636 2.13338 24.5338 2.97418 23.0067 4.50094C22.7863 4.72217 22.4274 4.72217 22.2056 4.50094ZM32.5099 6.43015C31.4987 5.41886 30.1537 4.86159 28.7237 4.86159C27.2932 4.86159 25.9484 5.41827 24.9368 6.42985C24.7156 6.65107 24.3567 6.65107 24.1354 6.42985C23.9142 6.20863 23.9142 5.84969 24.1354 5.62846C25.3613 4.40319 26.9904 3.72821 28.7236 3.72821C30.4569 3.72821 32.086 4.40318 33.3118 5.62898C33.533 5.85021 33.533 6.20914 33.3118 6.43037C33.201 6.54112 33.0558 6.59621 32.9108 6.59621C32.7658 6.59592 32.6204 6.54119 32.5099 6.43015ZM28.7234 6.45653C29.728 6.45653 30.672 6.84736 31.3823 7.558C31.6036 7.77922 31.6036 8.13815 31.3823 8.35938C31.2716 8.47014 31.1263 8.52523 30.9814 8.52523C30.8364 8.52523 30.6911 8.46985 30.5804 8.35938C30.0843 7.86331 29.4247 7.58991 28.7231 7.58991C28.0212 7.58991 27.3619 7.86303 26.8658 8.35938C26.6446 8.5806 26.2857 8.5806 26.0645 8.35938C25.8432 8.13816 25.8432 7.77923 26.0645 7.558C26.7751 6.84795 27.7194 6.45653 28.7234 6.45653Z" stroke="#6C96F9" stroke-width="0.4" mask="url(#path-1-outside-1_796_70734)"/>
</svg>
