<svg width="29" height="40" viewBox="0 0 29 40" fill="none" xmlns="http://www.w3.org/2000/svg">
<path d="M21.5579 33.3325C21.1829 33.7506 19.3125 35.903 19.3125 37.2414C19.3125 38.227 19.8384 39.1377 20.6918 39.6306C21.5453 40.1232 22.597 40.1232 23.4504 39.6306C24.3039 39.1376 24.8298 38.2269 24.8298 37.2414C24.8298 35.9031 22.9594 33.7507 22.5844 33.3325C22.4502 33.1931 22.2648 33.1143 22.0711 33.1143C21.8775 33.1143 21.6921 33.1931 21.5579 33.3325ZM22.0711 38.6208C21.7053 38.6201 21.355 38.4748 21.0964 38.2162C20.8378 37.9576 20.6924 37.6072 20.6918 37.2415C20.9671 36.3544 21.4384 35.541 22.0711 34.8612C22.7038 35.541 23.1752 36.3544 23.4504 37.2415C23.4498 37.6072 23.3045 37.9576 23.0459 38.2162C22.7873 38.4748 22.4368 38.6201 22.0711 38.6208Z" fill="#6C96F9"/>
<path d="M28.7587 12.6208C28.6343 12.4865 28.4588 12.4114 28.2759 12.4139H26.207V4.82765C26.2094 4.64477 26.1343 4.46927 26.0001 4.34489L21.8621 0.206955C21.7378 0.0727207 21.5623 -0.00240058 21.3794 5.85349e-05H3.44832C3.26482 -0.0017888 3.0884 0.0702553 2.95879 0.200185C2.82886 0.329801 2.75681 0.506219 2.75866 0.689715V11.0346H0.689691C0.506195 11.0327 0.329778 11.1048 0.200162 11.2347C0.0702384 11.3643 -0.00180967 11.5407 3.46694e-05 11.7242V26.8967C-0.00181266 27.0801 0.0702321 27.2566 0.200162 27.3862C0.329778 27.5161 0.506195 27.5882 0.689691 27.5863H4.13797V29.6553C4.13612 29.8388 4.20817 30.0152 4.3381 30.1448C4.46771 30.2747 4.64413 30.3468 4.82763 30.3449H7.58625C7.76975 30.3468 7.94617 30.2747 8.07578 30.1448C8.20571 30.0152 8.27775 29.8388 8.27591 29.6553V28.9656H17.2414C17.7904 28.965 18.3171 29.1827 18.7051 29.5709C19.0933 29.9589 19.311 30.4856 19.3104 31.0346C19.3085 31.2181 19.3806 31.3945 19.5105 31.5241C19.6401 31.654 19.8165 31.7261 20 31.7242H24.138C24.3215 31.7261 24.4979 31.654 24.6275 31.5241C24.7574 31.3945 24.8295 31.2181 24.8276 31.0346C24.8292 29.8342 24.5404 28.6513 23.9862 27.5863H28.2759C28.4594 27.5881 28.6358 27.5161 28.7654 27.3862C28.8954 27.2565 28.9674 27.0801 28.9656 26.8966V13.1035C28.968 12.9206 28.8929 12.7451 28.7587 12.6208ZM4.13758 1.37976H20.6893V4.82805C20.6875 5.01154 20.7595 5.18796 20.8895 5.31758C21.0191 5.4475 21.1955 5.51955 21.379 5.5177H24.8273V12.4143L9.25522 12.4281L8.06893 11.2418C7.94455 11.1076 7.76905 11.0325 7.58617 11.0349H4.13789L4.13758 1.37976ZM6.8962 28.966H5.51689V23.4488H6.8962V28.966ZM15.1721 23.4488V22.0695H16.5514V23.4488H15.1721ZM27.5859 26.2074H23.0893C21.8036 24.6467 19.9448 23.6676 17.9307 23.49V22.0695H19.9997C20.3805 22.0695 20.6893 21.7606 20.6893 21.3798C20.6893 20.9989 20.3805 20.6901 19.9997 20.6901H11.7238C11.3429 20.6901 11.0341 20.9989 11.0341 21.3798C11.0341 21.7606 11.3429 22.0695 11.7238 22.0695H13.7928V23.4488H8.27551V22.7591C8.27736 22.5756 8.20532 22.3992 8.07539 22.2696C7.94577 22.1397 7.76935 22.0676 7.58586 22.0695H4.82723C4.64374 22.0676 4.46732 22.1396 4.3377 22.2696C4.20778 22.3992 4.13573 22.5756 4.13758 22.7591V26.2074H1.37895V12.4143H7.29612L8.48241 13.6006C8.61049 13.7292 8.78352 13.8034 8.96517 13.8074L27.5859 13.7936V26.2074Z" fill="#6C96F9"/>
<path d="M7.58809 5.51701H18.6226C19.0034 5.51701 19.3122 5.2082 19.3122 4.82735C19.3122 4.4465 19.0034 4.1377 18.6226 4.1377H7.58809C7.20725 4.1377 6.89844 4.4465 6.89844 4.82735C6.89844 5.2082 7.20725 5.51701 7.58809 5.51701Z" fill="#6C96F9"/>
<path d="M21.3812 9.6547C21.7621 9.6547 22.0709 9.34589 22.0709 8.96505C22.0709 8.5842 21.7621 8.27539 21.3812 8.27539H7.58809C7.20725 8.27539 6.89844 8.5842 6.89844 8.96505C6.89844 9.34589 7.20725 9.6547 7.58809 9.6547H21.3812Z" fill="#6C96F9"/>
</svg>
