<svg width="62" height="30" viewBox="0 0 62 30" fill="none" xmlns="http://www.w3.org/2000/svg">
<path d="M4.38281 1.9994V3.99892H7.26673H10.1507V16.9958V29.9927H12.1886H14.2266V14.9963V-0.000114441H9.30471H4.38281V1.9994Z" fill="#6C96F9"/>
<path d="M30.3003 0.0533543C27.8855 0.29945 25.8399 0.960829 23.8788 2.13747C23.3789 2.4374 23.3635 2.44509 22.3407 3.22182C21.6486 3.75246 20.4258 4.95987 19.9182 5.61356C19.7721 5.80582 19.626 5.96732 19.5952 5.9827C19.5645 5.99808 19.5337 6.0596 19.5337 6.11344C19.5337 6.16727 19.5029 6.22879 19.4722 6.24417C19.2568 6.32877 18.134 8.33598 17.7111 9.38188C16.9574 11.2353 16.5959 13.2579 16.6498 15.3035C16.7267 18.1875 17.5572 20.8714 19.1107 23.1939C19.8259 24.2552 20.049 24.5244 21.0641 25.5318C22.4484 26.9084 23.3559 27.5621 24.8786 28.3004C26.5551 29.1156 27.601 29.4309 29.9927 29.8154C30.731 29.9385 32.1307 29.9462 46.1658 29.9692L61.5236 30V27.9928V25.9933L46.8579 25.9856C38.7829 25.9856 32.0461 25.9702 31.8769 25.9471C29.2929 25.6857 28.0624 25.3857 26.6935 24.6936C24.7401 23.7092 23.2097 22.2557 22.1254 20.3562C21.1333 18.6258 20.6873 16.957 20.6873 14.9959C20.6873 13.3425 21.041 11.7275 21.7255 10.2663C22.2407 9.16655 23.5789 7.41312 24.4248 6.72867C24.6325 6.56717 24.817 6.40567 24.8401 6.3826C25.0785 6.09805 26.4782 5.29056 27.5318 4.82144C28.9314 4.2062 30.8771 3.91397 32.569 4.07546C33.6688 4.17544 34.3763 4.33694 35.376 4.69839C39.3981 6.17496 42.2052 9.88945 42.5205 14.15L42.5666 14.8037L44.5969 14.8267L46.6272 14.8421L46.5733 14.0961C46.4272 11.9736 45.8658 9.87407 45.0122 8.26676C44.9507 8.13603 44.8199 7.89762 44.7353 7.72843C44.5892 7.45158 43.974 6.45951 43.8202 6.26724C43.7894 6.2211 43.5587 5.92887 43.3126 5.61356C42.8204 4.98294 41.5592 3.7217 40.9516 3.25258C39.9134 2.4374 38.5445 1.63759 37.3371 1.11464C36.2989 0.668591 34.5301 0.214853 33.2842 0.084116C32.5844 0.00721169 30.9156 -0.00816917 30.3003 0.0533543Z" fill="#6C96F9"/>
<path d="M53.8089 0.307129C53.0322 0.507081 52.4092 1.01465 52.017 1.77601C51.8325 2.13746 51.8017 2.28358 51.8017 2.84498C51.794 3.391 51.8325 3.56788 51.994 3.92164C52.2785 4.52919 52.6784 4.93679 53.2706 5.23671C53.7397 5.47512 53.8397 5.49819 54.4395 5.4905C55.2547 5.4905 55.77 5.27517 56.3237 4.72914C57.608 3.43715 57.2004 1.22229 55.547 0.4917C55.0855 0.284058 54.255 0.199462 53.8089 0.307129ZM55.3393 0.968508C55.8469 1.20691 56.0699 1.40686 56.3391 1.88367C56.639 2.39893 56.6544 3.2295 56.3852 3.77553C55.5854 5.4059 53.2475 5.42128 52.4862 3.80629C52.0786 2.95265 52.317 1.81446 53.0091 1.28382C53.8089 0.683961 54.5241 0.583985 55.3393 0.968508Z" fill="#6C96F9"/>
<path d="M53.4492 2.86047V4.19092H53.7415H54.026L54.0029 3.66797L53.9722 3.15271H54.3644C54.8104 3.15271 54.9104 3.26037 54.9104 3.74487C54.9104 3.90637 54.9412 4.06787 54.9719 4.11401C55.0335 4.19861 55.6102 4.22168 55.5564 4.13708C55.541 4.11401 55.5026 3.8833 55.4795 3.6372C55.4487 3.39111 55.3872 3.12963 55.3334 3.05273C55.2488 2.92968 55.2565 2.88354 55.3795 2.76049C55.4718 2.66821 55.5256 2.50671 55.5256 2.33752C55.5256 1.72228 55.218 1.53771 54.1798 1.53771H53.4492V2.86047ZM54.8412 2.06835C54.995 2.1914 55.0104 2.24523 54.9489 2.4298C54.872 2.63745 54.8335 2.65283 54.4259 2.6759L53.9876 2.69897V2.30676V1.92223H54.3259C54.5413 1.92223 54.7258 1.97607 54.8412 2.06835Z" fill="#6C96F9"/>
<path d="M0 7.88212V9.84319H2.19178H4.38356V19.9177V29.9922H6.30618H8.22879V17.9566V5.92105H4.1144H0V7.88212Z" fill="#6C96F9"/>
<path d="M30.3378 6.4981C28.7613 6.7442 27.3308 7.37481 26.1619 8.32843C25.4467 8.91291 24.5084 10.0588 24.0393 10.9201C23.6471 11.643 23.2703 12.8043 23.1165 13.7656C23.0549 14.127 23.0549 15.719 23.1165 16.1496C23.1857 16.7033 23.4241 17.6339 23.5702 17.9569C23.624 18.0799 23.7625 18.3952 23.8778 18.649C24.3085 19.6257 25.3467 20.9331 26.3003 21.7021C26.8002 22.102 27.7999 22.6788 28.3767 22.8942C29.0766 23.1556 29.2919 23.2172 30.2147 23.4017C31.0222 23.5632 31.153 23.5632 46.2801 23.5863L61.5226 23.6094V21.6868V19.7641L47.0492 19.7565C39.0818 19.7565 32.4142 19.7411 32.222 19.718C30.3993 19.5257 29.8917 19.395 29.1688 18.9259C27.7846 18.0338 27.077 16.8725 26.9463 15.2806C26.8386 14.0732 27.3462 12.6659 28.1922 11.8045C28.9304 11.0509 29.1842 10.8817 30.1225 10.5202C30.507 10.3664 30.7146 10.3433 31.6067 10.3433C32.8141 10.3433 33.2756 10.4741 34.1523 11.0432C35.3135 11.8122 36.1133 13.0888 36.2748 14.4347L36.321 14.8423H38.259H40.197L40.1662 14.3962C40.1201 13.8194 39.9355 12.8735 39.7509 12.2813C39.5663 11.7199 38.8973 10.328 38.705 10.1126C38.6281 10.028 38.4743 9.83576 38.3589 9.68195C37.9667 9.15131 37.413 8.5976 36.8747 8.19769C36.2902 7.76703 35.2981 7.15179 35.1751 7.15179C35.129 7.15179 34.9521 7.08258 34.7752 6.99798C33.7216 6.49041 31.7682 6.26739 30.3378 6.4981Z" fill="#6C96F9"/>
</svg>
