<svg width="29" height="29" viewBox="0 0 29 29" fill="none" xmlns="http://www.w3.org/2000/svg">
<path d="M26.5798 14.3906V14.6094C26.5714 17.3625 25.4788 20.0006 23.5405 21.9474C21.6023 23.8941 18.9758 24.9916 16.2347 25H16.0169C14.657 24.9997 13.3106 24.7289 12.0553 24.2032C10.8001 23.6776 9.66094 22.9076 8.70352 21.9375C8.56414 21.7975 8.42475 21.6488 8.29408 21.5C8.16776 21.36 8.0458 21.2113 7.92819 21.0625C6.46677 19.2321 5.67082 16.9557 5.67188 14.6094V14.3906C5.67029 12.2317 6.34541 10.127 7.6015 8.375C7.70265 8.22349 7.81169 8.07745 7.92819 7.9375C8.89375 6.71123 10.1229 5.72011 11.5236 5.03826C12.9243 4.3564 14.4604 4.00147 16.0169 4H16.2347C18.9758 4.00842 21.6023 5.10585 23.5405 7.05265C25.4788 8.99945 26.5714 11.6375 26.5798 14.3906Z" fill="#D35230"/>
<path d="M26.5789 14.5V14.4002C26.5709 11.6444 25.4774 9.00376 23.5373 7.05509C21.5971 5.10641 18.9681 4.00808 16.2243 4H16.125V14.5H26.5789Z" fill="#FF8F6B"/>
<path d="M5.67188 14.4002V14.5H16.1258V4H16.0269C13.2831 4.00796 10.6539 5.10624 8.71372 7.05493C6.77349 9.00362 5.67992 11.6443 5.67188 14.4002Z" fill="#ED6C47"/>
<path opacity="0.2" d="M15.2547 9.39438V20.9181C15.2556 20.9769 15.2498 21.0357 15.2372 21.0931C15.1976 21.3298 15.0755 21.5446 14.8928 21.6992C14.7101 21.8539 14.4787 21.9383 14.2398 21.9375H8.70352C8.56414 21.7975 8.42475 21.6488 8.29408 21.5C8.16776 21.36 8.0458 21.2113 7.92819 21.0625C6.46677 19.2321 5.67082 16.9557 5.67188 14.6094V14.3906C5.67029 12.2317 6.34541 10.127 7.6015 8.375H14.2398C14.3731 8.37477 14.5052 8.40098 14.6284 8.45213C14.7517 8.50327 14.8636 8.57835 14.9579 8.67306C15.0522 8.76776 15.127 8.88023 15.1779 9.00401C15.2288 9.12779 15.2549 9.26045 15.2547 9.39438Z" fill="black"/>
<path opacity="0.1" d="M15.6902 9.39437V20.0431C15.6866 20.4284 15.5326 20.7968 15.2614 21.0693C14.9902 21.3417 14.6233 21.4964 14.2398 21.5H8.29408C8.16776 21.36 8.0458 21.2113 7.92819 21.0625C6.46677 19.2321 5.67082 16.9557 5.67188 14.6094V14.3906C5.67029 12.2317 6.34541 10.127 7.6015 8.375C7.70265 8.22349 7.81169 8.07745 7.92819 7.9375H14.2398C14.624 7.93888 14.9922 8.09282 15.2639 8.36574C15.5356 8.63866 15.6889 9.00841 15.6902 9.39437Z" fill="black"/>
<path opacity="0.2" d="M15.2547 9.39438V20.0431C15.2549 20.1771 15.2288 20.3097 15.1779 20.4335C15.127 20.5573 15.0522 20.6697 14.9579 20.7644C14.8636 20.8592 14.7517 20.9342 14.6284 20.9854C14.5052 21.0365 14.3731 21.0627 14.2398 21.0625H7.92819C6.46677 19.2321 5.67082 16.9557 5.67188 14.6094V14.3906C5.67029 12.2317 6.34541 10.127 7.6015 8.375H14.2398C14.3731 8.37477 14.5052 8.40098 14.6284 8.45213C14.7517 8.50327 14.8636 8.57835 14.9579 8.67306C15.0522 8.76776 15.127 8.88023 15.1779 9.00401C15.2288 9.12779 15.2549 9.26045 15.2547 9.39438Z" fill="black"/>
<path opacity="0.1" d="M14.8191 9.39438V20.0431C14.8193 20.1771 14.7932 20.3097 14.7423 20.4335C14.6914 20.5573 14.6166 20.6697 14.5223 20.7644C14.428 20.8592 14.3161 20.9342 14.1928 20.9854C14.0696 21.0365 13.9375 21.0627 13.8042 21.0625H7.92819C6.46677 19.2321 5.67082 16.9557 5.67188 14.6094V14.3906C5.67029 12.2317 6.34541 10.127 7.6015 8.375H13.8042C13.9375 8.37477 14.0696 8.40098 14.1928 8.45213C14.3161 8.50327 14.428 8.57835 14.5223 8.67306C14.6166 8.76776 14.6914 8.88023 14.7423 9.00401C14.7932 9.12779 14.8193 9.26045 14.8191 9.39438Z" fill="black"/>
<path d="M13.8007 8.375H3.63774C3.07626 8.375 2.62109 8.83217 2.62109 9.39612V19.6039C2.62109 20.1678 3.07626 20.625 3.63774 20.625H13.8007C14.3622 20.625 14.8174 20.1678 14.8174 19.6039V9.39612C14.8174 8.83217 14.3622 8.375 13.8007 8.375Z" fill="#C43E1C"/>
<path d="M8.92169 11.0686C9.57047 11.0246 10.2131 11.2187 10.7302 11.6146C10.9454 11.8145 11.1134 12.0601 11.222 12.3335C11.3305 12.6069 11.377 12.9012 11.3579 13.1949C11.3653 13.61 11.258 14.0191 11.0478 14.3766C10.8372 14.7249 10.5305 15.0044 10.1648 15.1811C9.75129 15.3796 9.29716 15.4779 8.83893 15.4681H7.58402V17.8744H6.29688V11.0686H8.92169ZM7.58402 14.4286H8.6917C9.04408 14.4547 9.39342 14.3474 9.67089 14.1276C9.78596 14.0134 9.87512 13.8756 9.93226 13.7236C9.98939 13.5716 10.0132 13.409 10.0019 13.2469C10.0019 12.4974 9.57898 12.1226 8.73308 12.1226H7.58402V14.4286Z" fill="white"/>
</svg>
