<svg width="42" height="40" viewBox="0 0 42 40" fill="none" xmlns="http://www.w3.org/2000/svg">
<path d="M8.87886 5.87595C8.87886 6.89982 8.04893 7.72945 7.02537 7.72945C6.00181 7.72945 5.17188 6.89982 5.17188 5.87595C5.17188 4.85239 6.00181 4.02246 7.02537 4.02246C8.04893 4.02246 8.87886 4.85239 8.87886 5.87595Z" fill="#6C96F9"/>
<path d="M15.914 5.87595C15.914 6.89982 15.0844 7.72945 14.0605 7.72945C13.037 7.72945 12.207 6.89982 12.207 5.87595C12.207 4.85239 13.037 4.02246 14.0605 4.02246C15.0844 4.02246 15.914 4.85239 15.914 5.87595Z" fill="#6C96F9"/>
<path d="M39.8519 0H1.22019C0.896599 0 0.586281 0.128775 0.357366 0.357366C0.128474 0.586257 0 0.896583 0 1.2205V29.0445C0 29.3681 0.128474 29.6784 0.357366 29.9073C0.586258 30.1362 0.896583 30.265 1.22019 30.265H7.98936V27.8244H2.44309V2.44307H19.5814V7.55901H38.629V27.8248H33.0827V30.2655H39.8519C40.1755 30.2655 40.4858 30.1367 40.7147 29.9078C40.9436 29.6789 41.072 29.3686 41.072 29.045V1.22096C41.072 0.89707 40.9436 0.586751 40.7147 0.357829C40.4858 0.129238 40.1755 0.000463259 39.8519 0.000463259V0ZM35.986 5.35805H22.2245V3.0655H35.986V5.35805Z" fill="#6C96F9"/>
<path d="M30.819 25.7412C29.1486 25.0792 28.5569 22.8521 28.5569 21.1467V21.147C28.5533 20.9926 28.5686 20.8385 28.6024 20.6877C28.613 20.6343 28.6253 20.5719 28.6389 20.4956H28.6392C28.6736 20.2938 28.5795 20.0921 28.4028 19.9892C26.0267 18.6336 23.336 17.9261 20.6006 17.9376H20.474C17.739 17.9259 15.0487 18.6334 12.6734 19.9892C12.4954 20.0918 12.4004 20.2947 12.4354 20.4971C12.4493 20.5719 12.4614 20.6343 12.4734 20.697H12.4737C12.5066 20.8445 12.5214 20.9956 12.5178 21.147C12.5178 22.8524 11.9243 25.0796 10.2556 25.7415V25.7412C10.0705 25.8145 9.94892 25.9936 9.94922 26.193V33.7037C9.94952 33.8783 10.0433 34.0393 10.1947 34.1262L20.3662 39.9408C20.4108 39.9661 20.4594 39.9842 20.5095 39.9942L20.5384 40.0002L20.5674 39.9942H20.5677C20.6186 39.9839 20.6675 39.9655 20.7124 39.9393L30.8824 34.1261C31.0332 34.0387 31.1261 33.8779 31.1264 33.7036V26.1929C31.1267 25.9936 31.0051 25.8144 30.82 25.7412L30.819 25.7412ZM30.1522 33.4214L20.5381 38.9191L10.9225 33.4214V26.5087L11.0018 26.4643C12.5377 25.6208 13.4913 23.5828 13.4913 21.147H13.491C13.4928 21.02 13.4868 20.893 13.4729 20.767L13.4608 20.6632L13.5522 20.6144C15.6843 19.4874 18.061 18.9017 20.4728 18.9093H20.6024C23.0141 18.902 25.3908 19.4874 27.523 20.6144L27.6162 20.6632L27.6023 20.767C27.589 20.893 27.583 21.02 27.5842 21.147C27.5842 23.5846 28.5375 25.6208 30.0737 26.4643L30.153 26.5087L30.1522 33.4214Z" fill="#6C96F9"/>
<path d="M26.056 22.9958C26.0563 22.7401 26.0792 22.485 26.1244 22.2331C24.4302 21.2404 22.5016 20.7168 20.5378 20.7168C18.574 20.7168 16.6457 21.2403 14.9511 22.2331C14.9952 22.485 15.0178 22.7401 15.0184 22.9958C15.0214 24.6267 14.1613 26.1376 12.7578 26.9679V32.557L20.5376 37.0477L28.3189 32.557V26.9679C26.9142 26.1382 26.0537 24.6271 26.0567 22.9958H26.056ZM24.4909 27.1612L20.3013 31.7364C20.1506 31.9007 19.9407 31.9984 19.7178 32.0081C19.706 32.0084 19.6943 32.0087 19.6825 32.0087C19.4714 32.0087 19.2684 31.9294 19.1134 31.7864L16.6351 29.4987C16.2943 29.1844 16.2732 28.6537 16.5874 28.3132C16.9017 27.9727 17.4324 27.9513 17.7729 28.2656L19.6324 29.9818L23.2528 26.0278L23.2531 26.0281C23.4033 25.8635 23.6126 25.7655 23.8349 25.7555C24.0574 25.7456 24.2749 25.8246 24.4389 25.9751C24.6033 26.1253 24.701 26.3349 24.7106 26.5574C24.7203 26.7797 24.6413 26.9971 24.4905 27.1612L24.4909 27.1612Z" fill="#6C96F9"/>
</svg>
