<svg width="41" height="40" viewBox="0 0 41 40" fill="none" xmlns="http://www.w3.org/2000/svg">
<path d="M35.0814 11.6004H33.2939C32.7188 7.283 30.076 3.51619 26.2113 1.50719C22.3473 -0.502398 17.7455 -0.502398 13.8814 1.50719C10.0168 3.51619 7.37384 7.283 6.79884 11.6004H5.01135C3.68233 11.6004 2.40751 12.1282 1.46767 13.068C0.527866 14.0078 0 15.2827 0 16.6123V21.6243V21.6237C0 23.4142 0.954948 25.0689 2.50539 25.9639C4.05632 26.8594 5.96688 26.8594 7.51736 25.9639C9.06785 25.0689 10.0233 23.4142 10.0233 21.6237V13.2709C10.0233 9.68993 11.9339 6.38118 15.0347 4.5907C18.1362 2.80022 21.9571 2.80022 25.0585 4.5907C28.1594 6.38118 30.0699 9.69008 30.0699 13.2709V28.3059C30.0699 29.6349 29.542 30.9098 28.6022 31.8496C27.6624 32.7894 26.3875 33.3179 25.0586 33.3179H24.7492C24.2195 31.8193 23.0106 30.6611 21.491 30.196C19.9714 29.7309 18.3214 30.0136 17.0437 30.9587C15.766 31.9037 15.0127 33.3988 15.0127 34.9883C15.0127 36.5771 15.766 38.0723 17.0437 39.0173C18.3215 39.9624 19.9715 40.2456 21.491 39.7806C23.0106 39.3151 24.2195 38.1567 24.7492 36.6588H25.0586C27.2738 36.6588 29.3981 35.779 30.9649 34.2123C32.531 32.6461 33.4114 30.5212 33.4114 28.306V26.6356H35.0818C36.4108 26.6356 37.6856 26.1077 38.6254 25.1673C39.5652 24.2275 40.0931 22.9526 40.0931 21.6236V16.6122C40.0931 15.2826 39.5652 14.0078 38.6254 13.068C37.6856 12.1282 36.4107 11.6003 35.0818 11.6003L35.0814 11.6004ZM6.6819 21.6236C6.6819 22.5465 5.93438 23.294 5.0115 23.294C4.08917 23.294 3.34109 22.5464 3.34109 21.6236V16.6122C3.34109 15.6893 4.0892 14.9412 5.0115 14.9412H6.6819V21.6236ZM20.0467 36.6586C19.3708 36.6586 18.7619 36.2513 18.5032 35.6273C18.2445 35.0033 18.3878 34.2843 18.8656 33.8065C19.3434 33.3288 20.0618 33.186 20.6858 33.4447C21.3104 33.7034 21.7171 34.3123 21.7171 34.9882C21.7171 35.431 21.5411 35.8563 21.2276 36.1692C20.9147 36.4827 20.4895 36.6586 20.0467 36.6586ZM36.7523 21.6236C36.7523 22.067 36.5763 22.4917 36.2628 22.8052C35.95 23.118 35.5246 23.294 35.0818 23.294H33.4114V14.9412H35.0818C35.5246 14.9412 35.95 15.1172 36.2628 15.4306C36.5763 15.7441 36.7523 16.1688 36.7523 16.6122V21.6236Z" fill="#6C96F9"/>
</svg>
