<svg width="49" height="40" viewBox="0 0 49 40" fill="none" xmlns="http://www.w3.org/2000/svg">
<path fill-rule="evenodd" clip-rule="evenodd" d="M34.9193 8.30114C37.9771 8.30114 40.7124 10.2415 41.7486 13.0808L41.7494 13.0816C45.5912 14.218 48.2299 17.7182 48.2295 21.7684C48.2295 26.7754 44.1563 30.8486 39.1493 30.8486H37.5274C37.0146 30.8486 36.6 30.4339 36.6 29.9212C36.6 29.4087 37.0146 28.994 37.5274 28.994H39.1493C43.1336 28.994 46.3746 25.753 46.3746 21.7687C46.3746 18.4056 44.0866 15.5191 40.8105 14.751C40.4815 14.6741 40.2216 14.4248 40.1295 14.0997C39.4755 11.7781 37.3326 10.1569 34.9196 10.1569C34.3445 10.1569 33.7644 10.2543 33.1943 10.4452C32.9875 10.539 31.4694 11.2759 31.6284 12.7049C31.6843 13.2141 31.3178 13.672 30.8086 13.7294C30.7742 13.7329 30.7399 13.7347 30.7055 13.7347C30.2388 13.7347 29.8368 13.3845 29.7841 12.9096C29.5595 10.8896 30.913 9.67457 31.7923 9.10797C30.6659 4.86767 26.7935 1.85578 22.3431 1.85578C16.9531 1.85578 12.5676 6.2452 12.5676 11.6404C12.5772 11.6985 12.5807 11.7565 12.5793 11.8143C12.6791 12.6921 13.1699 14.7231 14.4586 15.153C14.9445 15.3145 15.2069 15.8397 15.0447 16.3259C14.9151 16.7147 14.5539 16.9601 14.1654 16.9601C14.0683 16.9601 13.9695 16.9449 13.8718 16.9123C11.7952 16.22 11.0706 13.8402 10.8305 12.6086C10.5692 12.5817 10.3177 12.5682 10.072 12.5682C5.54159 12.5682 1.85511 16.2547 1.85511 20.7861C1.85511 25.3122 5.54159 28.9941 10.072 28.9941H10.7013C11.214 28.9941 11.6287 29.4085 11.6287 29.9212C11.6287 30.4339 11.214 30.8486 10.7013 30.8486H10.072C4.51762 30.8486 0 26.3342 0 20.7857C0 15.2312 4.51744 10.7125 10.072 10.7128C10.294 10.7128 10.5185 10.721 10.747 10.7383C11.2075 4.73964 16.2328 0 22.3429 0C27.57 0 32.1269 3.49455 33.5318 8.43889C33.9918 8.34753 34.4564 8.30114 34.9193 8.30114ZM23.4651 20.1059C23.826 19.7524 24.4018 19.7524 24.7623 20.1059L34.3755 29.516C34.6457 29.7799 34.7279 30.1801 34.5859 30.5296C34.4435 30.8784 34.1039 31.1065 33.7271 31.1065H31.2436L31.2432 39.0726C31.2432 39.585 30.8286 40 30.3158 40H17.9103C17.3976 40 16.9829 39.585 16.9829 39.0726V31.1065H14.4993C14.1225 31.1065 13.7829 30.8784 13.6406 30.5296C13.4986 30.18 13.5811 29.7799 13.8509 29.516L23.4651 20.1059ZM29.3891 30.1787C29.3891 29.6664 29.8041 29.2513 30.3165 29.2513H31.4541L24.1134 22.0668L16.7723 29.2513H17.9101C18.4225 29.2513 18.8375 29.6663 18.8375 30.1787V38.1449H29.3891V30.1787Z" fill="#6C96F9"/>
</svg>
