<svg width="29" height="29" viewBox="0 0 29 29" fill="none" xmlns="http://www.w3.org/2000/svg">
<path d="M17.3074 4H9.16199C8.6393 4 8.16016 4.4375 8.16016 4.9625V9.25L17.3074 16.425L26.4546 14.5V9.25L17.3074 4Z" fill="#21A366"/>
<path d="M25.4501 4H17.3047V9.25H26.4519V5.00625C26.4519 4.48125 26.0163 4 25.4501 4Z" fill="#33C481"/>
<path d="M8.16016 9.25V23.9938C8.16016 24.5188 8.59574 25 9.11844 25H25.4527C25.9754 25 26.4546 24.5625 26.4546 24.0375V19.75L8.16016 9.25Z" fill="#185C37"/>
<path d="M8.16016 9.25H17.3074V14.5H8.16016V9.25Z" fill="#107C41"/>
<path opacity="0.2" d="M15.1295 9.38125V21.0625C15.0423 21.5438 14.6068 21.8938 14.1276 21.8938H8.16016V8.375H14.1276C14.6503 8.375 15.1295 8.8125 15.1295 9.38125Z" fill="black"/>
<path opacity="0.1" d="M15.565 9.38125V20.0125C15.565 20.8 14.9117 21.4563 14.1276 21.4563H8.16016V7.9375H14.1276C14.9117 7.9375 15.565 8.59375 15.565 9.38125Z" fill="black"/>
<path opacity="0.2" d="M15.1295 9.38125V20.0125C15.1295 20.5375 14.6939 21.0188 14.1712 21.0188H8.16016V8.375H14.1276C14.6503 8.375 15.1295 8.8125 15.1295 9.38125Z" fill="black"/>
<path opacity="0.1" d="M14.6939 9.38125V20.0125C14.6939 20.5375 14.2583 21.0188 13.7356 21.0188H8.16016V8.375H13.692C14.2147 8.375 14.6939 8.8125 14.6939 9.38125Z" fill="black"/>
<path d="M3.49793 8.375H13.647C14.1697 8.375 14.6488 8.8125 14.6488 9.3375V19.575C14.6488 20.1 14.2132 20.5813 13.6905 20.5813H3.49793C2.97523 20.625 2.53965 20.2312 2.49609 19.75V9.38125C2.49609 8.85625 2.93167 8.375 3.49793 8.375Z" fill="#107C41"/>
<path d="M5.63281 17.8251L7.76716 14.5001L5.80705 11.1751H7.37514L8.46409 13.2751C8.50765 13.4063 8.59476 13.5813 8.68188 13.7126C8.769 13.5376 8.81256 13.4063 8.89967 13.2313L10.0322 11.1313H11.4696L9.46593 14.4563L11.5132 17.7813H9.98862L8.769 15.4626C8.72544 15.3751 8.68188 15.2438 8.63832 15.1563C8.59476 15.2438 8.55121 15.3751 8.50765 15.4626L7.24446 17.7813L5.63281 17.8251Z" fill="white"/>
<path d="M17.3047 14.5H26.4519V19.75H17.3047V14.5Z" fill="#107C41"/>
</svg>
