<svg width="49" height="40" viewBox="0 0 49 40" fill="none" xmlns="http://www.w3.org/2000/svg">
<path d="M11.7812 20.1416H27.2427V25.1124H11.7812V20.1416Z" fill="#6C96F9"/>
<path d="M28.9141 20.1416H36.2229V25.1124H28.9141V20.1416Z" fill="#6C96F9"/>
<path d="M11.7812 12.666H19.093V18.4697H11.7812V12.666Z" fill="#6C96F9"/>
<path d="M20.7656 26.7847H36.2252V32.5867H20.7656V26.7847Z" fill="#6C96F9"/>
<path d="M20.7656 12.666H36.2252V18.4697H20.7656V12.666Z" fill="#6C96F9"/>
<path d="M11.7812 26.7847H19.093V32.5867H11.7812V26.7847Z" fill="#6C96F9"/>
<path d="M0 0V35.9156C0 38.1692 1.83074 40 4.08757 40H43.9226C46.1761 40 48.007 38.1693 48.007 35.9156V0H0ZM39.4082 2.87506H43.7004V6.06942H39.4082V2.87506ZM32.4636 2.87506H36.7591V6.06942H32.4636V2.87506ZM44.9701 36.7057H3.03462V8.55164H44.9719V36.7057H44.9701Z" fill="#6C96F9"/>
</svg>
