<svg width="41" height="40" viewBox="0 0 41 40" fill="none" xmlns="http://www.w3.org/2000/svg">
<path d="M25.0741 4.77617C25.7334 4.77617 26.268 5.31077 26.268 5.97009V13.1343C26.268 13.7939 25.7335 14.3285 25.0741 14.3285H15.5221C14.8628 14.3285 14.3282 13.7939 14.3282 13.1343V5.97009C14.3282 5.31077 14.8628 4.77617 15.5221 4.77617V2.98604C15.5221 1.33735 16.8574 0 18.5056 0H22.0909C23.7396 0 25.0745 1.33506 25.0745 2.98604L25.0741 4.77617ZM32.2384 25.6717C29.271 25.6717 26.8653 23.266 26.8653 20.2987C26.8653 17.3311 29.271 14.9257 32.2384 14.9257C35.206 14.9257 37.6114 17.3311 37.6114 20.2987C37.6114 23.266 35.206 25.6717 32.2384 25.6717ZM29.2535 27.4627H35.2235C38.1909 27.4627 40.5966 29.8684 40.5966 32.836V38.8061C40.5966 39.4654 40.062 40 39.4024 40H25.0746C24.415 40 23.8804 39.4654 23.8804 38.8061V32.836C23.8804 29.8684 26.2861 27.4627 29.2537 27.4627H29.2535ZM8.35793 25.6717C5.39031 25.6717 2.9849 23.266 2.9849 20.2987C2.9849 17.3311 5.39031 14.9257 8.35793 14.9257C11.3253 14.9257 13.7309 17.3311 13.7309 20.2987C13.7309 23.266 11.3253 25.6717 8.35793 25.6717ZM5.37274 27.4627H11.3428C14.3104 27.4627 16.7161 29.8684 16.7161 32.836V38.8061C16.7161 39.4654 16.1815 40 15.5219 40H1.1942C0.534609 40 0 39.4654 0 38.8061V32.836C0 29.8684 2.40569 27.4627 5.37302 27.4627H5.37274ZM16.7162 7.16429V11.9405H23.8804V7.16429H16.7162ZM22.6863 4.77646V2.98633C22.6863 2.65403 22.4207 2.3884 22.0909 2.3884H18.5056C18.1772 2.3884 17.9101 2.6557 17.9101 2.98633V4.77646H22.6863ZM32.2384 23.2834C33.8871 23.2834 35.2235 21.9469 35.2235 20.2985C35.2235 18.6498 33.8871 17.3133 32.2384 17.3133C30.5897 17.3133 29.2535 18.6498 29.2535 20.2985C29.2535 21.9469 30.5897 23.2834 32.2384 23.2834ZM38.2084 32.8355C38.2084 31.1868 36.872 29.8503 35.2235 29.8503H29.2535C27.6048 29.8503 26.2683 31.1868 26.2683 32.8355V37.6114H38.2082L38.2084 32.8355ZM8.358 23.2834C10.0067 23.2834 11.3429 21.9469 11.3429 20.2985C11.3429 18.6498 10.0067 17.3133 8.358 17.3133C6.7093 17.3133 5.37281 18.6498 5.37281 20.2985C5.37281 21.9469 6.7093 23.2834 8.358 23.2834ZM14.3281 32.8355C14.3281 31.1868 12.9916 29.8503 11.3429 29.8503H5.37281C3.7244 29.8503 2.38791 31.1868 2.38791 32.8355V37.6114H14.3278L14.3281 32.8355Z" fill="#6C96F9"/>
</svg>
