<svg width="29" height="29" viewBox="0 0 29 29" fill="none" xmlns="http://www.w3.org/2000/svg">
<path d="M25.5632 4H9.30151C9.03196 4 8.77344 4.10755 8.58284 4.29899C8.39224 4.49044 8.28516 4.75009 8.28516 5.02083V9.25L17.8679 11.4375L26.5796 9.25V5.02083C26.5796 4.75009 26.4725 4.49044 26.2819 4.29899C26.0913 4.10755 25.8328 4 25.5632 4Z" fill="#41A5EE"/>
<path d="M26.5796 9.25H8.28516V14.5L17.8679 17.125L26.5796 14.5V9.25Z" fill="#2B7CD3"/>
<path d="M8.28516 14.5V19.75L17.8679 22.8125L26.5796 19.75V14.5H8.28516Z" fill="#185ABD"/>
<path d="M9.30151 25H25.5632C25.8328 25 26.0913 24.8924 26.2819 24.701C26.4725 24.5096 26.5796 24.2499 26.5796 23.9792V19.75H8.28516V23.9792C8.28516 24.2499 8.39224 24.5096 8.58284 24.701C8.77344 24.8924 9.03196 25 9.30151 25Z" fill="#103F91"/>
<path opacity="0.2" d="M15.2545 9.39441V20.9181C15.2554 20.9769 15.2496 21.0356 15.237 21.093C15.1974 21.3297 15.0754 21.5446 14.8927 21.6993C14.7099 21.8539 14.4785 21.9384 14.2395 21.9375H8.28516V8.375H14.2395C14.3729 8.37477 14.5049 8.40097 14.6282 8.45212C14.7514 8.50327 14.8634 8.57835 14.9577 8.67306C15.052 8.76776 15.1268 8.88024 15.1777 9.00402C15.2286 9.12781 15.2547 9.26047 15.2545 9.39441Z" fill="black"/>
<path opacity="0.1" d="M15.69 9.39441V20.0431C15.6864 20.4284 15.5325 20.7968 15.2612 21.0693C14.99 21.3417 14.6231 21.4964 14.2395 21.5H8.28516V7.9375H14.2395C14.6238 7.93885 14.992 8.09278 15.2637 8.36571C15.5354 8.63864 15.6887 9.00843 15.69 9.39441Z" fill="black"/>
<path opacity="0.2" d="M15.2545 9.39441V20.0431C15.2547 20.177 15.2286 20.3097 15.1777 20.4335C15.1268 20.5573 15.052 20.6697 14.9577 20.7644C14.8634 20.8592 14.7514 20.9342 14.6282 20.9854C14.5049 21.0365 14.3729 21.0627 14.2395 21.0625H8.28516V8.375H14.2395C14.3729 8.37477 14.5049 8.40097 14.6282 8.45212C14.7514 8.50327 14.8634 8.57835 14.9577 8.67306C15.052 8.76776 15.1268 8.88024 15.1777 9.00402C15.2286 9.12781 15.2547 9.26047 15.2545 9.39441Z" fill="black"/>
<path opacity="0.1" d="M14.8189 9.39441V20.0431C14.8191 20.177 14.793 20.3097 14.7421 20.4335C14.6912 20.5573 14.6164 20.6697 14.5221 20.7644C14.4278 20.8592 14.3159 20.9342 14.1926 20.9854C14.0694 21.0365 13.9373 21.0627 13.8039 21.0625H8.28516V8.375H13.8039C13.9373 8.37477 14.0694 8.40097 14.1926 8.45212C14.3159 8.50327 14.4278 8.57835 14.5221 8.67306C14.6164 8.76776 14.6912 8.88024 14.7421 9.00402C14.793 9.12781 14.8191 9.26047 14.8189 9.39441Z" fill="black"/>
<path d="M13.801 8.375H3.63745C3.07613 8.375 2.62109 8.83204 2.62109 9.39583V19.6042C2.62109 20.168 3.07613 20.625 3.63745 20.625H13.801C14.3623 20.625 14.8174 20.168 14.8174 19.6042V9.39583C14.8174 8.83204 14.3623 8.375 13.801 8.375Z" fill="#185ABD"/>
<path d="M6.79015 16.2026C6.81009 16.36 6.82314 16.4972 6.82931 16.6145H6.85234C6.86155 16.5034 6.87921 16.3692 6.90532 16.2119C6.93136 16.0546 6.9567 15.9219 6.98134 15.814L8.05014 11.1821H9.43224L10.5379 15.7446C10.6027 16.0281 10.6489 16.3156 10.6761 16.6052H10.6945C10.7152 16.3254 10.7536 16.0472 10.8097 15.7723L11.6942 11.1821H12.9519L11.404 17.8175H9.93435L8.87938 13.4217C8.84864 13.2952 8.81408 13.1302 8.77571 12.9266C8.73726 12.723 8.71346 12.5749 8.70431 12.4824H8.68588C8.67357 12.5904 8.64977 12.7508 8.61447 12.9636C8.57918 13.1764 8.55077 13.3337 8.52925 13.4356L7.53874 17.8175H6.04612L4.48438 11.1821H5.7651L6.72794 15.8232C6.74938 15.9189 6.77011 16.0453 6.79015 16.2026Z" fill="white"/>
</svg>
