<svg width="40" height="40" viewBox="0 0 40 40" fill="none" xmlns="http://www.w3.org/2000/svg">
<path d="M4.99998 37.5002C4.99998 38.8809 3.88045 40 2.49977 40C1.11908 40 0 38.8809 0 37.5002C0 36.1195 1.11908 35 2.49977 35C3.88045 35 4.99998 36.1195 4.99998 37.5002Z" fill="#6C96F9"/>
<path d="M15 37.5002C15 38.8809 13.8809 40 12.5002 40C11.1195 40 10 38.8809 10 37.5002C10 36.1195 11.1195 35 12.5002 35C13.8809 35 15 36.1195 15 37.5002Z" fill="#6C96F9"/>
<path d="M25 37.5002C25 38.8809 23.8805 40 22.4998 40C21.1191 40 20 38.8809 20 37.5002C20 36.1195 21.1191 35 22.4998 35C23.8805 35 25 36.1195 25 37.5002Z" fill="#6C96F9"/>
<path d="M33.7497 15H28.125C26.4674 15 24.8774 15.6587 23.7056 16.8306C22.5333 18.0029 21.875 19.5924 21.875 21.25V30.0002H26.8751V21.25C26.8751 20.5598 27.4344 20.0001 28.125 20.0001H33.7497C34.0815 20.0001 34.3993 20.1318 34.6339 20.3663C34.868 20.6004 34.9996 20.9187 34.9996 21.25V33.75C34.9996 34.0817 34.868 34.3995 34.6339 34.6341C34.3993 34.8682 34.0815 34.9999 33.7497 34.9999H30V40H33.7502H33.7497C35.4073 40 36.9973 39.3417 38.1691 38.1694C39.3415 36.9975 39.9997 35.4076 39.9997 33.75V21.25C39.9997 19.5924 39.3414 18.0029 38.1691 16.8306C36.9973 15.6587 35.4073 15 33.7497 15Z" fill="#6C96F9"/>
<path d="M30.6248 11.2501H35.6249V6.24998C35.6249 4.59239 34.9666 3.00244 33.7943 1.83057C32.6224 0.658256 31.0325 0 29.3749 0H6.24998C4.59239 0 3.00245 0.6583 1.83057 1.83057C0.658258 3.00244 0 4.59239 0 6.24998V23.7499C0 25.4075 0.658302 26.997 1.83057 28.1693C3.00245 29.3412 4.59239 29.9999 6.24998 29.9999H17.4999V24.9998H6.24998C5.55941 24.9998 5.00009 24.44 5.00009 23.7499V6.24998C5.00009 5.55941 5.55943 5.00009 6.24998 5.00009H29.3749C29.7062 5.00009 30.0245 5.13176 30.2586 5.36586C30.4932 5.60042 30.6248 5.91823 30.6248 6.25L30.6248 11.2501Z" fill="#6C96F9"/>
</svg>
