<svg width="40" height="40" viewBox="0 0 40 40" fill="none" xmlns="http://www.w3.org/2000/svg">
<path d="M30.6444 0H8.74052C7.95222 0.0011753 7.19649 0.314688 6.63904 0.872394C6.08165 1.42978 5.76785 2.1855 5.76665 2.97387V10.6613L0.374923 15.215C0.137516 15.4148 0.000293355 15.7092 0 16.0195V36.2384C0.0011753 37.2357 0.397843 38.1918 1.10302 38.897C1.80819 39.6022 2.76431 39.9988 3.76157 40H35.6237C36.621 39.9988 37.5771 39.6022 38.2823 38.897C38.9875 38.1918 39.3841 37.2357 39.3853 36.2384V16.0195C39.385 15.7092 39.2478 15.4148 39.0104 15.215L33.6228 10.6613V2.97387C33.6216 2.18497 33.3075 1.42834 32.749 0.870965C32.1907 0.313281 31.4338 7.52498e-05 30.6449 7.52498e-05L30.6444 0ZM7.86873 2.9738C7.86873 2.74285 7.9607 2.5216 8.12435 2.35882C8.28801 2.19604 8.50985 2.10495 8.7405 2.10613H30.6444C30.8744 2.10613 31.0951 2.1975 31.2579 2.36029C31.4207 2.52307 31.512 2.74373 31.512 2.97379V19.5867L19.6921 27.9609L7.86834 19.5867L7.86873 2.9738ZM5.76258 18.1087L2.74238 15.9731L5.76672 13.4203L5.76258 18.1087ZM35.6194 37.9064L3.76175 37.9067C3.32307 37.9055 2.90259 37.7307 2.59262 37.4204C2.28234 37.1104 2.10751 36.69 2.10634 36.2513V18.1046L14.2588 26.6977L5.5732 33.3487C5.10778 33.6978 5.01346 34.3577 5.36252 34.8232C5.71159 35.2883 6.37152 35.3826 6.83697 35.0339L16.0619 27.9738L19.0865 30.1179C19.4512 30.3762 19.9392 30.3762 20.3039 30.1179L23.3282 27.978L32.5321 35.0213C32.9975 35.3701 33.6574 35.2757 34.0065 34.8106C34.3553 34.3452 34.261 33.6853 33.7958 33.3362L25.1268 26.6978L37.2792 18.1047V36.2551C37.2781 36.6938 37.1032 37.1143 36.793 37.4246C36.483 37.7346 36.0625 37.9094 35.6238 37.9106L35.6194 37.9064ZM36.6431 15.9687L33.6187 18.1086L33.6184 13.4162L36.6431 15.9687Z" fill="#6C96F9"/>
<path d="M16.0325 20.7329H23.3535C24.0707 20.7329 24.7586 20.4479 25.2657 19.9408C25.7729 19.4336 26.0579 18.7457 26.0579 18.0285V13.9722C26.0567 13.3132 25.8152 12.6776 25.3782 12.1843C24.9416 11.691 24.3401 11.3742 23.6864 11.2931V9.05621C23.6852 8.08483 23.2986 7.15339 22.6116 6.46611C21.9246 5.77915 20.9932 5.39273 20.0215 5.3916H19.3645C18.3928 5.39278 17.4614 5.77915 16.7744 6.46611C16.0874 7.15337 15.7008 8.08483 15.6996 9.05621V11.2931C15.0458 11.3742 14.4443 11.6909 14.0077 12.1843C13.5708 12.6776 13.3293 13.3132 13.3281 13.9722V18.0285C13.3281 18.7458 13.6131 19.4336 14.1203 19.9408C14.6274 20.4479 15.3153 20.7329 16.0325 20.7329ZM17.8058 9.05659C17.8069 8.64376 17.9715 8.24798 18.2635 7.9559C18.5556 7.66384 18.9514 7.4993 19.3645 7.49813H20.0174C20.4305 7.4993 20.826 7.66384 21.1181 7.9559C21.4102 8.24797 21.5747 8.64375 21.5759 9.05659V11.2723H17.785L17.8058 9.05659ZM15.4343 13.9726C15.4343 13.642 15.7023 13.3743 16.0326 13.3743H23.3535C23.6838 13.3743 23.9517 13.642 23.9517 13.9726V18.0288C23.9517 18.3591 23.6838 18.6271 23.3535 18.6271H16.0326C15.7023 18.6271 15.4343 18.3591 15.4343 18.0288V13.9726Z" fill="#6C96F9"/>
</svg>
