<svg width="29" height="29" viewBox="0 0 29 29" fill="none" xmlns="http://www.w3.org/2000/svg">
<g clip-path="url(#clip0_792_92585)">
<path d="M15.8494 20.625H9.91826L7.59126 23.843L5.61328 25.2598V25.4375H15.8494C16.4848 25.4375 17.0942 25.184 17.5435 24.7327C17.9927 24.2815 18.2451 23.6694 18.2451 23.0312C18.2451 22.3931 17.9927 21.781 17.5435 21.3298C17.0942 20.8785 16.4848 20.625 15.8494 20.625Z" fill="#103F91"/>
<path d="M20.2051 14.0625H14.6638L11.1836 18.875H20.2051C20.8405 18.875 21.4498 18.6215 21.8991 18.1702C22.3484 17.719 22.6008 17.1069 22.6008 16.4688C22.6008 15.8306 22.3484 15.2185 21.8991 14.7673C21.4498 14.316 20.8405 14.0625 20.2051 14.0625Z" fill="#185ABD"/>
<path d="M24.5613 7.5H19.4099L15.9297 12.3125H24.5613C25.1967 12.3125 25.8061 12.059 26.2554 11.6077C26.7046 11.1565 26.957 10.5444 26.957 9.90625C26.957 9.26807 26.7046 8.65603 26.2554 8.20477C25.8061 7.75351 25.1967 7.5 24.5613 7.5Z" fill="#185ABD"/>
<path opacity="0.1" d="M7.59126 23.8428L5.61328 25.2599V25.4375H7.99068L8.6789 24.9449L11.8025 20.625H9.91813L7.59126 23.8428Z" fill="black"/>
<path opacity="0.1" d="M19.4095 7.5L15.9297 12.3125H17.8136L21.2939 7.5H19.4095Z" fill="black"/>
<path opacity="0.1" d="M11.1836 18.875H13.0675L16.5478 14.0625H14.6635L11.1836 18.875Z" fill="black"/>
<path opacity="0.1" d="M7.59126 23.8428L5.61328 25.2599V25.4375H7.24061L8.3679 24.6299L11.2641 20.625H9.91813L7.59126 23.8428Z" fill="black"/>
<path opacity="0.1" d="M11.1836 18.875H12.5291L16.0094 14.0625H14.6635L11.1836 18.875Z" fill="black"/>
<path opacity="0.1" d="M19.4095 7.5L15.9297 12.3125H17.2752L20.7555 7.5H19.4095Z" fill="black"/>
<path opacity="0.1" d="M7.59126 23.8428L5.61328 25.2599V25.4375H6.49054L8.05733 24.3153L10.7257 20.625H9.91813L7.59126 23.8428Z" fill="black"/>
<path opacity="0.1" d="M19.4095 7.5L15.9297 12.3125H16.7373L20.2171 7.5H19.4095Z" fill="black"/>
<path opacity="0.1" d="M11.1836 18.875H11.9912L15.471 14.0625H14.6635L11.1836 18.875Z" fill="black"/>
<path d="M2.77125 25.9322L12.3463 14.9479L19.8678 5.40903L15.778 2.84033L15.2664 3.13941L2.71298 20.4244L1.38775 24.8537C1.36386 24.9365 1.36571 25.0247 1.39304 25.1065C1.42037 25.1883 1.47188 25.2598 1.5407 25.3114L1.54139 25.3119L2.77125 25.9322Z" fill="#41A5EE"/>
<path d="M3.51759 26.719C3.58648 26.7609 3.66594 26.7818 3.7464 26.7793C3.82686 26.7768 3.90489 26.751 3.97111 26.7051L7.74692 24.0003L20.2437 6.71906L18.0285 4.23291L2.48438 25.8599L3.51759 26.719Z" fill="#2B7CD3"/>
<path d="M20.2435 6.71937L21.6212 4.80232C21.7374 4.6373 21.679 4.49035 21.5368 4.29411C20.5049 2.87027 17.4292 1.0612 17.0253 1.0984C16.9517 1.09444 16.8782 1.10632 16.8096 1.13324C16.741 1.16016 16.6789 1.2015 16.6276 1.25448L15.2461 3.16885L20.2435 6.71937Z" fill="#103F91"/>
<path d="M3.21451 24.8481L1.54362 25.3119L0.971682 27.2138C0.94407 27.3766 1.11732 27.6091 1.24659 27.716C1.37587 27.8228 1.78933 27.9851 1.95466 27.8857L3.51883 26.7191C3.52566 26.723 3.21451 24.8481 3.21451 24.8481Z" fill="#103F91"/>
</g>
<defs>
<clipPath id="clip0_792_92585">
<rect width="27.8772" height="28" fill="white" transform="translate(0.386719 0.5)"/>
</clipPath>
</defs>
</svg>
