<svg width="41" height="40" viewBox="0 0 41 40" fill="none" xmlns="http://www.w3.org/2000/svg">
<path d="M32.076 25.6693C31.5703 25.6693 31.1487 26.0909 31.1487 26.5966V31.8652C31.1487 32.076 30.9802 32.2869 30.7271 32.2869L8.09286 32.2866C7.88205 32.2866 7.67124 32.1181 7.67124 31.8649L7.67154 2.23392C7.67154 2.02311 7.84001 1.8123 8.09315 1.8123H30.7695C30.9803 1.8123 31.1911 1.98077 31.1911 2.23392V6.65968C31.1911 7.16538 31.6128 7.58697 32.1184 7.58697C32.6241 7.58697 33.0457 7.16535 33.0457 6.65968L33.0451 2.23392C33.0451 1.01174 32.0335 0 30.8112 0H8.09269C6.8705 0 5.85877 1.01166 5.85877 2.23392V5.90084L2.23392 5.90113C1.01174 5.90113 0 6.9128 0 8.13505V37.7661C0 38.9883 1.01166 40 2.23392 40H24.9103C26.1325 40 27.1442 38.9883 27.1442 37.7661V34.0992H30.8111C32.0333 34.0992 33.0451 33.0875 33.0451 31.8652V26.5966C33.003 26.0906 32.5814 25.6693 32.0757 25.6693H32.076ZM25.3319 37.724C25.3319 37.9348 25.1635 38.1033 24.9103 38.1033H2.23394C2.02313 38.1033 1.85466 37.9348 1.85466 37.724V8.09298C1.85466 7.88217 2.02313 7.7137 2.23394 7.7137H5.90086V31.8653C5.90086 33.0875 6.91252 34.0992 8.13478 34.0992H25.3739L25.3742 37.7244L25.3319 37.724Z" fill="#6C96F9"/>
<path d="M14.7095 6.19639C12.8973 6.32282 11.4219 7.84022 11.4219 9.69479C11.4219 11.5914 13.0657 13.1932 14.9624 13.1932C16.817 13.1932 18.292 11.7178 18.4188 9.90554C18.4188 9.77912 18.3344 9.69473 18.2079 9.69473H15.1311C15.0047 9.69473 14.9203 9.61035 14.9203 9.48393V6.4071C14.92 6.28067 14.7936 6.19629 14.7095 6.19629L14.7095 6.19639Z" fill="#6C96F9"/>
<path d="M19.4712 8.4301C19.5977 8.4301 19.6821 8.34572 19.6821 8.21929C19.5556 6.44902 18.1647 5.05809 16.3944 4.93164C16.268 4.93164 16.1836 5.01602 16.1836 5.14245V8.21928C16.1836 8.3457 16.268 8.43009 16.3944 8.43009L19.4712 8.4301Z" fill="#6C96F9"/>
<path d="M20.0631 21.3281H12.1812C11.6755 21.3281 11.2539 21.7497 11.2539 22.2554C11.2539 22.7611 11.6755 23.1827 12.1812 23.1827H20.0631C20.5688 23.1827 20.9904 22.7611 20.9904 22.2554C20.9904 21.7494 20.5691 21.3281 20.0631 21.3281Z" fill="#6C96F9"/>
<path d="M11.2539 27.7349C11.2539 28.2406 11.6755 28.6622 12.1812 28.6622H26.7227C27.2284 28.6622 27.65 28.2406 27.65 27.7349C27.65 27.2292 27.2284 26.8076 26.7227 26.8076H12.1812C11.6755 26.8076 11.2539 27.2292 11.2539 27.7349Z" fill="#6C96F9"/>
<path d="M12.1812 17.7032H18.4192C18.9249 17.7032 19.3465 17.2816 19.3465 16.7759C19.3465 16.2702 18.9249 15.8486 18.4192 15.8486H12.1812C11.6755 15.8486 11.2539 16.2702 11.2539 16.7759C11.2539 17.2816 11.6755 17.7032 12.1812 17.7032Z" fill="#6C96F9"/>
<path d="M39.7886 25.5008L35.5737 21.2858C36.5853 20.0213 37.1754 18.3774 37.1754 16.6492C37.1754 12.4764 33.8034 9.10449 29.6307 9.10449C25.4578 9.10449 22.0859 12.4765 22.0859 16.6492C22.0856 20.8221 25.4574 24.194 29.6299 24.194C31.4002 24.194 33.002 23.6039 34.2665 22.5922L38.4815 26.8072C38.6499 26.9756 38.9031 27.06 39.1136 27.06C39.3244 27.06 39.5772 26.9756 39.7457 26.8072C40.1253 26.4279 40.1253 25.8799 39.788 25.5006L39.7886 25.5008ZM23.8983 16.6494C23.8983 13.4882 26.4694 10.9171 29.6306 10.9171C32.7918 10.9171 35.3629 13.4882 35.3629 16.6494C35.3629 19.8106 32.7918 22.3817 29.6306 22.3817C26.4694 22.3817 23.8983 19.8106 23.8983 16.6494Z" fill="#6C96F9"/>
</svg>
