<svg width="36" height="40" viewBox="0 0 36 40" fill="none" xmlns="http://www.w3.org/2000/svg">
<path fill-rule="evenodd" clip-rule="evenodd" d="M17.6005 0L34.4763 5.12803C34.4763 5.12803 40.5377 33.9393 17.6005 40C-5.33669 33.9395 0.72469 5.12803 0.72469 5.12803L17.6005 0ZM9.68414 22.8952C9.68414 27.2682 13.2279 30.8109 17.6005 30.8109C21.9721 30.8109 25.5158 27.2682 25.5152 22.8956C25.5152 21.2035 24.9827 19.6379 24.0791 18.3514V13.9564C24.0791 10.3833 21.1732 7.47679 17.6002 7.47679C14.0274 7.47679 11.1202 10.383 11.1202 13.9564V18.351C10.2166 19.6376 9.68414 21.2038 9.68414 22.8952ZM17.601 10.499C15.6943 10.499 14.1437 12.0496 14.1437 13.9563V15.7722C15.1886 15.2645 16.3612 14.9794 17.601 14.9794C18.8408 14.9794 20.0134 15.2645 21.0576 15.7722V13.9563C21.0576 12.0496 19.5077 10.499 17.601 10.499ZM17.6009 19.1428C16.4656 19.1428 15.5466 20.0628 15.5466 21.1974C15.5466 21.8884 15.8891 22.4986 16.4122 22.8715V26.1034C16.4122 26.3347 16.5995 26.5227 16.8318 26.5227H18.3697C18.6014 26.5227 18.79 26.3347 18.79 26.1034V22.8715C19.3127 22.4986 19.6559 21.8887 19.6559 21.1974C19.6552 20.0628 18.7353 19.1428 17.6009 19.1428Z" fill="#6C96F9"/>
</svg>
