<svg width="40" height="40" viewBox="0 0 40 40" fill="none" xmlns="http://www.w3.org/2000/svg">
<path d="M9.76164 0.0990944C9.02068 0.200134 8.4818 0.307911 8.145 0.415684C6.49467 0.94783 5.32934 1.54734 4.23137 2.42302C3.32201 3.14377 2.14995 4.45729 1.64474 5.3195C1.28774 5.93921 0.742119 7.12475 0.546774 7.71078C-0.362587 10.4793 -0.126827 13.6452 1.17322 16.2116L1.45614 16.7707L1.36183 17.2894C1.22711 18.091 1.17322 20.617 1.26753 21.688C1.56391 24.955 2.58105 27.7976 4.4604 30.6132C5.04643 31.4889 5.90864 32.5262 6.69002 33.3076C7.12112 33.732 8.30666 34.7626 8.79839 35.1331C9.08804 35.3554 9.89636 35.901 9.93004 35.901C9.94351 35.901 10.085 35.9886 10.2466 36.0963C10.57 36.3119 12.1462 37.1269 12.7187 37.3694C13.938 37.8814 15.7163 38.3731 17.2049 38.6089C18.1008 38.7436 18.4376 38.7638 20.1688 38.7571C21.5631 38.7503 22.2771 38.7234 22.6678 38.6493L23.2202 38.555L23.6109 38.7436C23.9948 38.9322 24.6415 39.2084 25.2343 39.4239C26.4939 39.9022 28.5484 40.1177 30.1044 39.9359C31.6402 39.754 33.4387 39.1275 34.7522 38.3125C36.0253 37.5244 37.3523 36.2041 38.2078 34.8771C39.6493 32.6475 40.2488 29.9868 39.9053 27.3799C39.7302 26.0529 39.4001 24.9819 38.7602 23.6482L38.5513 23.2171L38.6457 22.6715C38.7197 22.274 38.7467 21.5735 38.7534 20.105C38.7534 18.3267 38.7332 17.9765 38.6052 17.1749C38.1809 14.6152 37.2378 12.0218 36.0523 10.1829C35.6885 9.61034 35.1429 8.80202 35.0621 8.70772C34.9813 8.61341 34.9206 8.53931 34.6984 8.2564C33.6341 6.88226 31.6402 5.08374 30.1179 4.13396C27.7131 2.63183 25.3084 1.76289 22.3917 1.33178C21.5294 1.2038 18.0739 1.22401 17.3262 1.35873L16.7671 1.45977L16.208 1.18359C14.1468 0.173187 11.9441 -0.197292 9.76164 0.0990944ZM12.8265 3.09662C13.9582 3.33238 14.9147 3.71633 15.8173 4.28889L16.1878 4.52465L16.8951 4.38319C19.3537 3.90494 21.4823 3.94535 23.8062 4.51792C26.669 5.2252 29.1614 6.6465 31.2495 8.75487C32.5496 10.0684 33.3512 11.1596 34.1325 12.6954C34.8802 14.1571 35.4663 15.922 35.6616 17.2624C35.6818 17.4443 35.7155 17.6531 35.7357 17.734C35.83 18.2459 35.9041 19.775 35.8704 20.5496C35.8233 21.5668 35.8367 21.4725 35.5875 22.8062L35.4124 23.756L35.7155 24.2207C36.5979 25.5949 36.9953 27.0095 37.0021 28.8282C37.0021 29.9261 36.8943 30.5863 36.5642 31.5361C36.3621 32.1221 35.7155 33.3952 35.5336 33.5838C35.473 33.6377 35.3787 33.7724 35.3113 33.8802C35.1092 34.2305 33.9304 35.315 33.3377 35.7056C31.8962 36.6554 30.2795 37.1269 28.6561 37.0798C28.2318 37.0663 27.4976 36.9922 27.2753 36.9451C27.2551 36.9383 27.0597 36.8979 26.8374 36.8508C26.0426 36.6756 24.7964 36.1368 24.1228 35.6787L23.8332 35.4834L23.0787 35.6248C21.7315 35.8808 20.8424 35.9616 19.6299 35.9347C19.0034 35.9145 18.4241 35.8943 18.3501 35.8808C18.276 35.8606 18.0469 35.8269 17.8449 35.8C15.723 35.5238 13.5271 34.7357 11.6208 33.5569C11.284 33.348 10.9674 33.1392 10.9202 33.0921C10.8663 33.0449 10.7653 32.9708 10.6845 32.9237C10.3409 32.7485 9.59324 32.1019 8.71756 31.2195C7.99007 30.4987 6.97966 29.2458 6.56203 28.5453C6.00968 27.6224 5.68635 27.0297 5.55163 26.6727C5.49774 26.5447 5.36302 26.2079 5.24851 25.9317C4.13707 23.271 3.82721 20.0175 4.41324 17.121C4.59512 16.2251 4.59512 16.2588 4.23811 15.7266C3.75985 15.0261 3.33548 14.0157 3.12667 13.1063C2.81681 11.7389 2.85049 10.3648 3.23444 8.99063C3.96867 6.3299 5.95579 4.22827 8.54242 3.3728C8.85901 3.26502 9.29012 3.13704 9.4922 3.08988C10.4285 2.88107 11.7824 2.88107 12.8265 3.09662Z" fill="#6C96F9"/>
<path d="M17.6391 8.5935C15.3287 8.94377 13.5975 9.72515 12.4255 10.9376C11.3208 12.0962 10.7482 13.7937 10.8627 15.6124C10.9974 17.8892 12.055 19.4654 14.1027 20.4421C15.1603 20.9473 15.4028 21.0214 19.761 22.1261C20.5424 22.3282 21.4719 22.564 21.8357 22.6516C23.2031 23.0018 23.9036 23.534 24.1596 24.4231C24.4964 25.575 23.6881 26.8548 22.1994 27.5554C20.7781 28.2155 18.2252 28.0269 16.9723 27.1647C16.4671 26.8144 15.8945 26.2216 15.3287 25.4605C15.066 25.1102 14.7359 24.706 14.5945 24.5646C13.7592 23.7361 12.2705 23.7091 11.4488 24.504C10.9368 25.0024 10.8021 25.3055 10.8088 26.033C10.8088 26.9222 11.085 27.6362 11.7384 28.4849C12.8835 29.9534 14.7157 30.9369 17.235 31.4353C18.0972 31.6105 18.2521 31.6172 20.1315 31.6172C22.0378 31.6172 22.1523 31.6105 22.9943 31.4353C24.0788 31.1996 24.6917 30.9975 25.554 30.5798C27.5276 29.6233 28.6997 28.1751 29.2049 26.0465C29.3867 25.2786 29.3531 23.7967 29.1375 22.9614C28.8277 21.7893 28.4033 21.0349 27.568 20.2266C26.7395 19.4183 25.8032 18.8929 24.3078 18.4146C24.1394 18.3607 22.8057 18.0441 21.344 17.7141C18.5822 17.0876 18.4071 17.0472 17.7469 16.8316C16.5614 16.4477 15.8272 15.7 15.8204 14.8782C15.8137 13.8341 16.521 12.9719 17.72 12.5543C18.6495 12.2242 20.475 12.2579 21.573 12.6216C22.4284 12.9113 22.8461 13.2077 23.9036 14.272C24.7793 15.1611 24.9208 15.2756 25.3047 15.4171C25.6685 15.5518 25.8099 15.572 26.2814 15.5451C28.3359 15.4103 28.9893 13.5377 27.6354 11.6516C27.3996 11.3148 26.7058 10.6884 26.1939 10.3449C24.8669 9.45571 23.1559 8.836 21.3574 8.58003C20.4885 8.45878 18.4677 8.46552 17.6391 8.5935Z" fill="#6C96F9"/>
</svg>
