<svg width="88" height="89" viewBox="0 0 88 89" fill="none" xmlns="http://www.w3.org/2000/svg">
<path d="M45.5563 44.0335C47.66 44.0335 49.2964 45.6381 49.3551 47.6013V47.7104V54.7475C49.3551 65.5287 40.5333 74.35 29.7525 74.35C18.9718 74.35 10.15 65.5282 10.15 54.7475V47.7104C10.15 45.6944 11.8113 44.0335 13.827 44.0335H14.8147H14.9647V43.8835V29.4387C14.9647 21.3725 21.565 14.65 29.7534 14.65C37.9418 14.65 44.5421 21.3721 44.5421 29.4387V43.8835V44.0335H44.6921H45.5563ZM18.8884 44.0335H19.0384V43.8835V29.4387C19.0384 23.5979 23.9072 18.8478 29.7525 18.8478C35.5957 18.8478 40.3434 23.5953 40.3434 29.4387V43.8835V44.0335H40.4934H42.2219H42.3719V43.8835V29.4387C42.3719 22.4424 36.7493 16.8196 29.7529 16.8196C22.7564 16.8196 17.1338 22.4422 17.1338 29.4387V43.8835V44.0335H17.2838H18.8884ZM38.0238 44.0335H38.1738V43.8835V29.4387C38.1738 24.7881 34.4032 21.0171 29.7522 21.0171C25.1045 21.0171 21.2072 24.7848 21.2072 29.4387V43.8835V44.0335H21.3572H38.0238ZM47.1864 54.7476V54.5976H47.1858V47.7105C47.1858 46.8785 46.4926 46.2024 45.5542 46.2024H13.8265C13.0029 46.2024 12.3184 46.8869 12.3184 47.7105V54.7476C12.3184 64.3363 20.1634 72.1816 29.7524 72.1816C39.3415 72.1816 47.1864 64.3366 47.1864 54.7476Z" fill="#6C96F9" stroke="#F5F8FF" stroke-width="0.3"/>
<path d="M31.2997 60.0407L31.2073 60.0791V60.1791V64.2529C31.2073 65.0343 30.5337 65.7079 29.7524 65.7079C28.971 65.7079 28.2974 65.0343 28.2974 64.2529V60.1791V60.0791L28.2051 60.0407C26.7747 59.4446 25.7047 58.0147 25.7047 56.3521C25.7047 54.0891 27.4895 52.3048 29.7521 52.3048H29.7528C31.8894 52.3048 33.6766 54.0866 33.6766 56.3521C33.6766 58.0227 32.723 59.4476 31.2997 60.0407Z" fill="#6C96F9" stroke="#F5F8FF" stroke-width="0.3"/>
</svg>
