<svg width="88" height="89" viewBox="0 0 88 89" fill="none" xmlns="http://www.w3.org/2000/svg">
<path fill-rule="evenodd" clip-rule="evenodd" d="M43.5288 35.4873C45.8956 35.486 48.1894 34.6648 50.0191 33.1638C51.8494 31.6628 53.103 29.5738 53.5676 27.2527C53.6662 26.7745 53.3604 26.3062 52.8828 26.2039C52.4077 26.1102 51.945 26.4148 51.8427 26.8887C51.2925 29.6394 49.4169 31.9399 46.8335 33.0328C44.2496 34.125 41.2923 33.8683 38.9359 32.3462C36.5789 30.8247 35.1283 28.2351 35.0613 25.4303C34.9943 22.6256 36.3198 19.9696 38.6011 18.3372C40.8817 16.7041 43.8236 16.3058 46.4566 17.2741C49.0895 18.2416 51.073 20.4497 51.7534 23.1714C51.9215 23.5771 52.36 23.7991 52.7868 23.6949C53.2129 23.5907 53.4994 23.1907 53.461 22.7534C52.8358 20.2587 51.295 18.0904 49.1446 16.6793C46.9942 15.2682 44.3916 14.7175 41.8542 15.1373C39.3168 15.5566 37.0299 16.9149 35.4476 18.9432C33.866 20.9714 33.1049 23.52 33.3158 26.0836C33.5266 28.6472 34.694 31.0368 36.5864 32.7792C38.4781 34.5215 40.9565 35.4879 43.5288 35.4873ZM47.4063 22.2906L42.8983 26.8079L39.6438 23.5355C39.2977 23.1968 38.7445 23.1968 38.399 23.5355C38.0597 23.881 38.0597 24.4348 38.399 24.7803L42.2755 28.6481C42.6204 28.9812 43.1668 28.9812 43.5117 28.6481L48.6511 23.5354C48.9903 23.19 48.9903 22.6361 48.6511 22.2906C48.3056 21.952 47.7524 21.952 47.4063 22.2906ZM69.7429 36.2334L72.6059 39.0964L72.6059 39.0962C72.9204 39.3555 73.1164 39.7307 73.1486 40.1364C73.1542 40.5408 72.9935 40.9297 72.7039 41.2125L66.4797 47.4367C66.1944 47.7226 65.8074 47.8826 65.4036 47.8826C64.9998 47.8826 64.6128 47.7226 64.3281 47.4367L63.7767 46.8766L56.4231 54.2389L59.1527 56.9686C59.8251 57.6423 60.214 58.5478 60.2388 59.4986C60.2636 60.4502 59.9225 61.3744 59.2861 62.0821C58.6144 62.8115 57.6722 63.2326 56.6811 63.2469H56.3337C56.4181 64.3093 56.0323 65.3557 55.2775 66.1086C54.5226 66.8616 53.4756 67.2456 52.4125 67.1587C52.4963 68.225 52.1092 69.2738 51.3544 70.0311C50.6032 70.7829 49.5593 71.1668 48.4999 71.0806V71.3647C48.495 72.3298 48.1085 73.2528 47.425 73.9338C46.7421 74.6148 45.8174 74.9981 44.8529 75C43.8878 75.0013 42.9618 74.6216 42.2758 73.9437L39.9816 71.6495L39.2881 72.3429C38.6835 72.9476 37.8628 73.2869 37.0075 73.2869C36.1522 73.2869 35.3323 72.9476 34.7269 72.3429C34.2865 71.91 33.9783 71.3617 33.8375 70.76C33.4504 70.9144 33.0361 70.9901 32.6193 70.9827C31.762 70.987 30.939 70.6477 30.3342 70.0399C29.7096 69.4103 29.3691 68.5526 29.3914 67.6662H29.2941C28.4368 67.6681 27.6144 67.3288 27.009 66.7235C26.403 66.1174 26.0637 65.295 26.0662 64.4384V64.3491H25.9682C25.1123 64.3484 24.2911 64.0073 23.6863 63.4013C23.0816 62.7952 22.7429 61.9741 22.7436 61.1175C22.7448 60.2616 23.086 59.441 23.6919 58.8363L28.5293 54.0969C28.3773 53.8898 28.2074 53.6962 28.0225 53.5188H28.0219L23.0606 48.5575L22.8205 48.8062C22.5334 49.0891 22.1476 49.2484 21.7444 49.2509C21.3412 49.2522 20.9536 49.0921 20.6689 48.8062L14.4447 42.582C14.1588 42.2967 13.9988 41.9097 14 41.5059C14.0025 41.1034 14.1619 40.717 14.4447 40.4298L25.6569 29.1196C25.9422 28.8343 26.3293 28.6737 26.7331 28.6737C27.1368 28.6737 27.5239 28.8343 27.8092 29.1196L34.0333 35.3438C34.6182 35.9417 34.6182 36.8976 34.0333 37.4961L33.6779 37.8515L38.364 42.5375L39.7955 41.106C40.6782 40.2197 41.8021 39.6124 43.0271 39.3594C44.2521 39.1063 45.5248 39.2192 46.6866 39.6832C47.5307 40.0168 48.4542 40.0969 49.343 39.9133C50.2325 39.7303 51.0487 39.2918 51.6925 38.6517L53.5775 36.7841L53.0261 36.224C52.7414 35.9405 52.5807 35.5547 52.5807 35.1528C52.5807 34.7509 52.7414 34.3651 53.0261 34.081H53.0267L59.2508 27.8569C59.5361 27.5715 59.9232 27.4109 60.3263 27.4109C60.7301 27.4109 61.1172 27.5715 61.4025 27.8569L66.8445 33.317C67.0591 33.4652 67.1986 33.7003 67.2247 33.9602C67.2507 34.22 67.1608 34.4781 66.9797 34.666C66.7979 34.8539 66.5436 34.9532 66.2825 34.9364C66.022 34.9197 65.782 34.7888 65.6263 34.5792V34.5798L60.2908 29.2443L54.4314 35.0952L65.3416 46.0321L71.1658 40.1459L68.4981 37.4782C68.2326 37.1241 68.2679 36.6285 68.5806 36.3159C68.8938 36.0033 69.3887 35.9679 69.7429 36.2334ZM24.5131 61.1222C24.5131 61.5129 24.6687 61.8875 24.9454 62.1629L24.9452 62.1631C25.5103 62.7071 26.4035 62.7114 26.9729 62.1718L32.3617 56.783C32.9385 56.2241 32.9813 55.3129 32.4591 54.7026C32.1911 54.4043 31.8109 54.23 31.4102 54.2225C31.0188 54.2213 30.6436 54.3782 30.3694 54.6579L24.9454 60.082C24.6687 60.3574 24.5131 60.732 24.5131 61.1222ZM29.3027 65.9062C29.6897 65.9074 30.0613 65.7536 30.3342 65.4795L30.3249 65.4529L36.3804 59.3973C36.9399 58.8266 36.9399 57.9136 36.3804 57.343C36.1069 57.0614 35.7335 56.8983 35.3403 56.8896C34.952 56.892 34.5811 57.049 34.3088 57.3256L28.2533 63.4078C27.9791 63.6807 27.8253 64.0523 27.8265 64.4393C27.824 64.8307 27.9791 65.2065 28.257 65.4826C28.5342 65.758 28.9113 65.9112 29.3027 65.9062ZM32.6191 69.232C33.0099 69.2283 33.3833 69.072 33.6599 68.796L34.6287 67.8006L38.5859 63.8434C39.1447 63.2727 39.1447 62.3597 38.5859 61.7891C38.3148 61.5044 37.9383 61.3437 37.5457 61.345C37.1556 61.3431 36.7816 61.4969 36.5049 61.7717L31.579 66.7243C31.0083 67.2968 31.0083 68.2235 31.579 68.796C31.8544 69.0732 32.2284 69.2302 32.6191 69.232ZM37.9725 71.1257L40.6402 68.4579L40.6309 68.458C41.191 67.8935 41.2065 66.988 40.6663 66.4043C40.3921 66.119 40.0132 65.9584 39.6174 65.9596C39.2254 65.9596 38.8489 66.1128 38.568 66.3863L35.9002 69.0541C35.3805 69.634 35.404 70.5197 35.9554 71.0711C36.5062 71.6219 37.3919 71.646 37.9725 71.1257ZM57.9434 60.8822C58.6257 60.1088 58.5829 58.9365 57.846 58.2145L46.5717 47.109C45.7281 46.5607 44.6173 46.6755 43.904 47.3844V47.385L41.3609 49.9367C40.4393 50.859 39.0958 51.2206 37.8361 50.8844C36.5763 50.5477 35.5913 49.5646 35.2527 48.3055C34.914 47.0463 35.2731 45.7023 36.1942 44.7794L37.155 43.8186L32.469 39.1326L31.1708 40.4307C30.9959 40.6106 30.7533 40.7086 30.5028 40.6999C30.2522 40.6919 30.0165 40.5777 29.8546 40.3867C29.5153 40.0406 29.5153 39.4874 29.8546 39.1419V39.1412L32.5843 36.4116L26.7248 30.5607L15.8592 41.4628L21.7187 47.3223L26.9914 42.0402C27.3369 41.7015 27.8902 41.7015 28.2363 42.0402C28.5749 42.3863 28.5749 42.9395 28.2363 43.285H28.2369L24.2797 47.2422L29.241 52.2036C29.4507 52.4132 29.6467 52.6359 29.8278 52.8703C30.3308 52.5838 30.9033 52.4424 31.4814 52.4616C32.2479 52.4777 32.9835 52.7674 33.5554 53.2772C34.1279 53.7877 34.4988 54.4855 34.6024 55.2447C34.8449 55.1914 35.0924 55.1647 35.3405 55.1647C36.2063 55.1666 37.0343 55.5195 37.6347 56.1428C38.0745 56.5987 38.371 57.1737 38.4863 57.797C38.6017 58.4198 38.5316 59.063 38.2835 59.6461C39.2536 59.8743 40.0643 60.5373 40.4798 61.4429C40.8954 62.3484 40.8687 63.3954 40.4091 64.2792C41.5218 64.5776 42.3914 65.4465 42.6904 66.5592C42.9893 67.6726 42.6724 68.8604 41.858 69.6766V69.676L41.1466 70.3874L43.4408 72.6904C43.7937 73.0458 44.2744 73.2443 44.775 73.2418C45.278 73.2443 45.7612 73.0458 46.1166 72.6898C46.4726 72.3344 46.6711 71.8512 46.6686 71.3482C46.6711 70.8477 46.4726 70.367 46.1172 70.0141C45.8517 69.6605 45.8871 69.1649 46.2003 68.8517C46.5129 68.5391 47.0085 68.5038 47.362 68.7692C48.115 69.3969 49.2215 69.3467 49.9143 68.6539C50.6071 67.9611 50.6574 66.8545 50.0297 66.1016C49.8653 65.936 49.7729 65.7127 49.7723 65.4795C49.7667 65.245 49.8604 65.0192 50.0297 64.8567C50.3745 64.5236 50.921 64.5236 51.2659 64.8567C52.0182 65.4844 53.1253 65.4342 53.8181 64.7414C54.511 64.0486 54.5612 62.9421 53.9335 62.1897C53.7691 62.0241 53.6767 61.8002 53.6755 61.567C53.6767 61.3337 53.7691 61.1105 53.9335 60.9448C54.279 60.6056 54.8322 60.6056 55.1783 60.9448C55.5542 61.3133 56.0659 61.5093 56.5919 61.4869C57.1067 61.4795 57.5948 61.2606 57.9434 60.8822ZM49.6563 47.5444L55.1164 52.9951L62.47 45.6587L54.823 38.0029L52.9287 39.8972C52.0443 40.7817 50.9204 41.3877 49.696 41.6402C48.4717 41.8932 47.1995 41.7816 46.0372 41.3201C45.1918 40.9784 44.2632 40.894 43.3695 41.077C42.4757 41.2606 41.6563 41.7041 41.0137 42.3516H41.0131L37.3852 45.9795C36.6533 46.7183 36.6533 47.9085 37.3852 48.6472C37.7351 49.0082 38.217 49.2104 38.7194 49.2073C39.2243 49.211 39.7093 49.0088 40.0622 48.6472L42.6226 46.1041C43.249 45.4789 44.0702 45.0869 44.9504 44.9933C45.8305 44.899 46.7163 45.1093 47.46 45.5881C47.9859 45.9317 48.6365 46.026 49.2382 45.8461H49.2388L53.8002 44.5392C54.0353 44.4313 54.3057 44.4307 54.5408 44.5386C54.7765 44.6465 54.9532 44.8512 55.0252 45.1C55.0971 45.3487 55.0568 45.616 54.9154 45.8331C54.7746 46.0496 54.5457 46.1941 54.2889 46.2282L49.6563 47.5444Z" fill="#6C96F9"/>
</svg>
