<svg width="144" height="126" viewBox="0 0 144 126" fill="none" xmlns="http://www.w3.org/2000/svg">
<path d="M73.1672 94.8481C72.8552 96.3121 71.4272 98.1121 70.0233 98.7961C68.5592 99.5041 70.2152 99.4681 43.2393 99.4681H18.3633V100.728V101.988H43.3833C68.4033 101.988 68.4152 101.988 69.1592 101.736C70.1553 101.4 70.8993 100.908 71.6912 100.056C72.8672 98.7961 73.3712 97.3201 73.2992 95.3881C73.2632 94.4881 73.2512 94.4281 73.1672 94.8481Z" fill="#6C96F9"/>
<path d="M75.4223 58.8603C75.1583 59.0883 74.5823 59.5203 74.1383 59.8323L73.3223 60.3963L73.3103 77.2563C73.2983 86.5323 73.3103 94.6443 73.3223 95.2803C73.3703 97.3443 72.8783 98.7843 71.6903 100.056C70.8983 100.908 70.1543 101.4 69.1583 101.736C68.4143 101.988 68.4023 101.988 43.3823 101.988H18.3623V100.704C18.3623 100.008 18.3263 99.4563 18.2903 99.5043C18.2423 99.5403 18.2543 100.716 18.3023 102.108L18.3863 104.628L44.9303 104.604L71.4623 104.568L72.4223 104.244C73.5023 103.872 74.5943 103.26 75.3743 102.588L75.9023 102.132L75.9383 80.7363C75.9623 68.9643 75.9623 59.1363 75.9383 58.8843L75.9023 58.4523L75.4223 58.8603Z" fill="#6C96F9"/>
<path d="M71.4624 97.6923L70.9824 98.2083L71.4984 97.7283C71.9664 97.2963 72.0624 97.1883 71.9664 97.1883C71.9424 97.1883 71.7144 97.4163 71.4624 97.6923Z" fill="#6C96F9"/>
<path d="M69.3433 26.5082C71.1913 27.1682 72.6193 28.7642 73.1353 30.7202C73.2793 31.2602 73.3153 33.6842 73.3153 45.8642V60.3602L73.6873 60.1442C73.8793 60.0242 74.4553 59.6162 74.9473 59.2322L75.8353 58.5362V44.9522C75.8353 35.9642 75.7873 31.2002 75.7153 30.8882C75.4993 30.0962 75.2113 29.4842 74.6833 28.7282C73.5553 27.1082 71.8753 26.2682 69.8113 26.2682L68.6953 26.2802L69.3433 26.5082Z" fill="#6C96F9"/>
<path d="M4.38066 26.3762C3.98466 26.4842 3.42066 26.7122 3.12066 26.8682C2.38866 27.2402 1.06866 28.5962 0.672664 29.3522C-0.0473356 30.7802 0.00066436 28.4642 0.00066436 62.8082C0.00066436 97.1522 -0.0473356 94.8362 0.672664 96.2642C1.34466 97.5962 3.16866 98.9882 4.70466 99.3482C5.04066 99.4202 16.4047 99.4682 36.4806 99.4682C70.5846 99.4682 68.4126 99.5042 69.9246 98.7962C70.7406 98.4002 71.9406 97.2962 72.4446 96.4442C72.6606 96.0842 72.9486 95.3642 73.0806 94.8482C73.3206 93.9002 73.3206 93.6122 73.2966 62.4482L73.2606 31.0082L72.9966 30.3122C72.3126 28.5122 70.9566 27.1562 69.1566 26.4722L68.4606 26.2082L36.7806 26.1842C6.91266 26.1602 5.06466 26.1722 4.38066 26.3762ZM48.7206 46.1882V49.4282H40.1406H31.5606V54.4082V59.3882H39.6006H47.6406V62.6282V65.8682H39.6006H31.5606V71.0282V76.1882L40.5966 76.2122L49.6206 76.2482L49.6566 79.4522L49.6806 82.6682H36.6606H23.6407V62.8082V42.9482H36.1806H48.7206V46.1882Z" fill="#6C96F9"/>
<path d="M94.6822 63.1083C91.2982 63.7083 88.5382 65.1603 86.0422 67.6683C83.6782 70.0203 82.3222 72.4803 81.5302 75.8283C81.3262 76.6683 81.3142 77.8443 81.2782 92.2683L81.2422 107.808L89.3062 115.86C97.7182 124.248 97.8742 124.392 99.5182 125.04C101.066 125.652 100.394 125.64 119.162 125.604C138.53 125.568 136.982 125.628 138.806 124.776C141.41 123.564 143.342 121.08 143.882 118.248C143.978 117.72 144.002 112.8 143.978 100.068L143.942 82.6083L143.678 81.8883C143.27 80.7483 143.054 80.2683 142.598 79.5603C142.334 79.1283 139.286 75.9843 134.186 70.8723L126.182 62.8683L111.062 62.8803C96.8902 62.8923 95.8582 62.9043 94.6822 63.1083Z" fill="#6C96F9"/>
<path d="M18.2852 103.368L18.2972 104.688H44.1571H70.0171L44.1931 104.664L18.3692 104.628L18.3212 103.332L18.2852 102.048V103.368Z" fill="#6C96F9"/>
<path d="M78.0344 56.1362C77.8184 56.4482 77.2664 57.1082 76.8104 57.6003L75.9824 58.5002L75.9344 80.3162L75.8984 102.132L76.3904 101.58C77.0864 100.776 77.7104 99.6722 78.0944 98.5682L78.4184 97.6082L78.4544 80.2082C78.4664 70.6322 78.4664 61.1762 78.4544 59.1962L78.4184 55.5723L78.0344 56.1362Z" fill="#6C96F9"/>
<path d="M75.4802 102.552C74.6642 103.344 73.2962 104.052 71.7482 104.472C71.0282 104.676 69.4202 104.688 44.6162 104.688H18.2402V105.972V107.268H44.4962C62.1722 107.268 70.9202 107.22 71.2802 107.136C73.2362 106.692 75.0002 105.036 75.6002 103.092C75.7322 102.66 75.8282 102.3 75.8162 102.288C75.7922 102.276 75.6482 102.384 75.4802 102.552Z" fill="#6C96F9"/>
<path d="M100.86 0.156143C99.8282 0.420143 98.8562 0.828148 98.0402 1.33215C97.4762 1.69215 95.0882 3.99615 89.2562 9.81614L81.2522 17.7961L81.2042 33.1681C81.1682 48.5161 81.1682 48.5281 80.9042 49.6921C80.4602 51.6601 79.6562 53.6881 78.7682 55.0921L78.4802 55.5361L78.4562 76.5721L78.4202 97.6081L78.0962 98.5681C77.7242 99.6481 77.1002 100.752 76.3682 101.604C76.0322 101.988 75.8042 102.432 75.6242 103.02C75.0122 105.024 73.2722 106.68 71.2802 107.136C70.9202 107.22 62.1722 107.268 44.4962 107.268H18.2402V111.996C18.2402 114.708 18.3002 117.132 18.3722 117.672C18.8882 121.44 21.5522 124.452 25.1762 125.376C26.1242 125.628 26.3642 125.628 43.4282 125.628C62.9402 125.628 61.4162 125.7 63.6002 124.644L64.8602 124.044L73.0442 115.872L81.2282 107.7L81.2642 92.1601L81.3002 76.6081L81.6242 75.3961C82.5002 72.0841 83.8682 69.7321 86.2082 67.4521C88.4642 65.2681 90.7922 64.0081 94.0802 63.1921C95.0882 62.9401 95.3042 62.9401 110.592 62.9041L126.072 62.8561L134.184 54.7321C142.716 46.1881 142.824 46.0561 143.436 44.3881C144.012 42.8041 144 43.4281 144 25.0561C144 8.14814 144 7.81214 143.76 6.87614C142.956 3.73215 140.76 1.40414 137.58 0.336143L136.74 0.0481491L119.1 0.0361481C105.42 0.012146 101.328 0.0481491 100.86 0.156143Z" fill="#6C96F9"/>
<path d="M49.6055 79.488C49.6055 81.264 49.6295 82.02 49.6415 81.144C49.6655 80.28 49.6655 78.816 49.6415 77.904C49.6295 76.992 49.6055 77.7 49.6055 79.488Z" fill="#6C96F9"/>
<path d="M81.1816 32.6882C81.1816 40.8722 81.1936 44.2082 81.2056 40.0922C81.2296 35.9762 81.2296 29.2802 81.2056 25.2122C81.1936 21.1442 81.1816 24.5042 81.1816 32.6882Z" fill="#6C96F9"/>
<path d="M18.2402 24.8282V26.1482H44.4362C73.3322 26.1482 71.2442 26.0882 72.7682 26.9042C73.7042 27.3962 74.7122 28.4042 75.2042 29.3402C75.9842 30.8042 75.9602 30.2402 75.9602 45.0482L75.9722 58.4882L76.6322 57.7682C77.7362 56.5682 78.7322 55.1882 79.3442 54.0482C79.6562 53.4482 79.9202 52.9082 79.9082 52.8482C79.9082 52.7762 79.6322 53.2682 79.2842 53.9282L78.6602 55.1282L78.6002 42.9482C78.5282 29.4122 78.5882 30.2882 77.7002 28.4762C76.6202 26.2682 74.7722 24.6842 72.3002 23.8442L71.4602 23.5682L44.8562 23.5322L18.2402 23.5082V24.8282Z" fill="#6C96F9"/>
<path d="M81.0371 48.1682C81.0371 48.4922 81.0611 48.6242 81.0851 48.4322C81.1091 48.2522 81.1091 47.9882 81.0851 47.8322C81.0611 47.6882 81.0371 47.8322 81.0371 48.1682Z" fill="#6C96F9"/>
<path d="M80.4699 50.9403C80.4219 51.1083 80.4099 51.2763 80.4339 51.3123C80.4699 51.3363 80.5299 51.2163 80.5659 51.0363C80.6139 50.8683 80.6259 50.7003 80.6019 50.6643C80.5659 50.6403 80.5059 50.7603 80.4699 50.9403Z" fill="#6C96F9"/>
<path d="M80.0543 52.2003C79.9823 52.4163 79.9463 52.6083 79.9703 52.6323C79.9943 52.6563 80.0783 52.5123 80.1503 52.2963C80.2223 52.0803 80.2583 51.8883 80.2343 51.8643C80.2103 51.8403 80.1263 51.9843 80.0543 52.2003Z" fill="#6C96F9"/>
<path d="M25.3562 0.180073C24.9482 0.264072 24.2642 0.504074 23.8202 0.696072C20.7722 2.07607 18.8762 4.58407 18.3602 7.90807C18.2882 8.37607 18.2402 11.6881 18.2402 16.0921V23.5081L44.8562 23.5321L71.4602 23.5681L72.3002 23.8441C74.7722 24.6841 76.6202 26.2681 77.7002 28.4761C78.5882 30.2881 78.5282 29.4121 78.6002 42.9481L78.6602 55.1281L79.2722 53.9281C79.9802 52.5601 80.4362 51.2881 80.7962 49.7281C81.0482 48.6721 81.0482 48.3481 81.0842 33.2281L81.1322 17.8081L73.0562 9.75607C64.5122 1.22407 64.6202 1.32007 62.7602 0.576073C61.2602 -0.0239258 61.8242 7.24792e-05 43.3802 7.24792e-05C29.3162 0.0120735 25.9682 0.0480728 25.3562 0.180073Z" fill="#6C96F9"/>
<path d="M23.7598 62.8083V82.6683H36.6598H49.5598V79.4883V76.3083H40.4998H31.4398V71.0883V65.8683H39.4798H47.5198V62.6883V59.5083L39.5158 59.4843L31.4998 59.4483L31.4638 54.4323L31.4398 49.4283H40.0198H48.5998V46.1883V42.9483H36.1798H23.7598V62.8083Z" fill="#ECECEC" fill-opacity="0.5"/>
</svg>
