<svg width="116" height="126" viewBox="0 0 116 126" fill="none" xmlns="http://www.w3.org/2000/svg">
<path d="M51.343 109.585C51.343 107.125 50.513 104.693 48.8529 102.288C47.1928 99.8836 45.3487 97.3699 43.3207 94.7471C41.2884 92.1244 39.4421 89.3968 37.7821 86.5644C36.122 83.7319 35.2941 80.7091 35.2983 77.4959C35.2983 71.2919 37.4911 65.9972 41.8767 61.6116C46.2622 57.2261 51.557 55.0333 57.7609 55.0333C63.9649 55.0333 69.2596 57.2261 73.6452 61.6116C78.0307 65.9972 80.2235 71.2919 80.2235 77.4959C80.2235 80.7048 79.3934 83.7277 77.7334 86.5644C76.0733 89.4011 74.2292 92.1265 72.2011 94.7407C70.1688 97.3635 68.3226 99.8772 66.6625 102.282C65.0024 104.686 64.1745 107.121 64.1788 109.585H51.343ZM57.7609 125.63C55.9425 125.63 54.4172 125.014 53.185 123.782C51.9527 122.549 51.3388 121.026 51.343 119.212V116.003H64.1788V119.212C64.1788 121.031 63.5627 122.556 62.3304 123.788C61.0982 125.02 59.575 125.634 57.7609 125.63ZM96.2682 106.376C95.3055 105.414 94.7429 104.184 94.5803 102.686C94.4177 101.189 94.7664 99.8515 95.6264 98.6749C97.8727 95.1451 99.6119 91.32 100.844 87.1997C102.076 83.0794 102.69 78.7752 102.686 74.2869C102.686 68.4039 101.642 62.8674 99.5541 57.6775C97.4662 52.4876 94.5525 47.8624 90.813 43.802C89.6364 42.4115 89.0224 40.8862 88.9711 39.2261C88.9197 37.566 89.5337 36.0963 90.813 34.817C92.0966 33.5334 93.6476 32.8916 95.466 32.8916C97.2843 32.8916 98.7819 33.5334 99.9585 34.817C104.772 39.9513 108.569 45.8878 111.35 52.6266C114.131 59.3654 115.522 66.5855 115.522 74.2869C115.522 80.063 114.72 85.5995 113.115 90.8964C111.511 96.1933 109.264 101.086 106.376 105.574C105.2 107.393 103.595 108.355 101.563 108.462C99.5306 108.569 97.7657 107.874 96.2682 106.376ZM9.14548 105.574C6.25743 101.082 4.01117 96.1869 2.4067 90.89C0.802235 85.5931 0 80.0588 0 74.2869C0 58.2423 5.61564 44.6043 16.8469 33.373C28.0782 22.1417 41.7162 16.526 57.7609 16.526H59.0445L53.2684 10.7499C52.0918 9.57334 51.5035 8.07583 51.5035 6.25743C51.5035 4.43903 52.0918 2.94153 53.2684 1.76492C54.445 0.588306 55.9425 0 57.7609 0C59.5793 0 61.0768 0.588306 62.2534 1.76492L78.9399 18.4514C79.5817 19.0932 80.0352 19.7885 80.3005 20.5372C80.5658 21.286 80.7005 22.0882 80.7048 22.9439C80.7048 23.7996 80.5701 24.6019 80.3005 25.3506C80.031 26.0994 79.5774 26.7946 78.9399 27.4364L62.2534 44.1229C60.9698 45.4065 59.4723 46.0226 57.7609 45.9713C56.0495 45.9199 54.552 45.2503 53.2684 43.9625C51.9848 42.6789 51.343 41.1536 51.343 39.3865C51.343 37.6195 51.9848 36.0963 53.2684 34.817L58.7236 29.3618H57.7609C45.353 29.3618 34.7635 33.7473 25.9924 42.5184C17.2213 51.2896 12.8358 61.8791 12.8358 74.2869C12.8358 78.7795 13.4519 83.0859 14.6841 87.2061C15.9163 91.3264 17.6534 95.1493 19.8954 98.6749C20.7511 99.8515 21.0998 101.189 20.9415 102.686C20.7832 104.184 20.2206 105.414 19.2536 106.376C17.7561 107.874 15.9912 108.569 13.9589 108.462C11.9266 108.355 10.3221 107.393 9.14548 105.574Z" fill="#6C96F9"/>
</svg>
