<svg width="183" height="89" viewBox="0 0 183 89" fill="none" xmlns="http://www.w3.org/2000/svg">
<path d="M13.0078 5.93181V11.8636H21.5633H30.1188V50.4204V88.9772H36.1647H42.2106V44.4886V-7.62939e-06H27.6092H13.0078V5.93181Z" fill="#6C96F9"/>
<path d="M89.8905 0.159691C82.7267 0.889755 76.658 2.85181 70.8402 6.34246C69.3573 7.23223 69.3117 7.25505 66.2773 9.55933C64.224 11.1335 60.5965 14.7154 59.0907 16.6547C58.6572 17.2251 58.2237 17.7042 58.1325 17.7498C58.0412 17.7954 57.95 17.9779 57.95 18.1376C57.95 18.2973 57.8587 18.4799 57.7674 18.5255C57.1286 18.7765 53.7977 24.7311 52.5429 27.8339C50.307 33.3322 49.2347 39.3325 49.3945 45.4012C49.6226 53.9567 52.0866 61.919 56.6951 68.809C58.8169 71.9574 59.4785 72.756 62.4901 75.7447C66.5967 79.8285 69.2888 81.7678 73.8062 83.958C78.7797 86.3763 81.8825 87.3117 88.9779 88.4524C91.1681 88.8175 95.3204 88.8403 136.957 88.9087L182.518 89V83.0454V77.1136L139.01 77.0907C115.055 77.0907 95.0694 77.0451 94.5675 76.9767C86.9018 76.201 83.2514 75.3112 79.1904 73.2579C73.3955 70.3376 68.8554 66.0256 65.6385 60.3904C62.6954 55.2571 61.3722 50.3063 61.3722 44.4886C61.3722 39.5834 62.4216 34.7924 64.4521 30.4576C65.9807 27.1951 69.9505 21.9933 72.4601 19.9628C73.0761 19.4837 73.6236 19.0046 73.6921 18.9362C74.3993 18.092 78.5516 15.6965 81.6772 14.3048C85.8295 12.4796 91.6016 11.6126 96.6208 12.0918C99.8833 12.3884 101.982 12.8675 104.948 13.9397C116.88 18.3202 125.208 29.3396 126.143 41.979L126.28 43.9182L132.303 43.9867L138.326 44.0323L138.166 41.8193C137.733 35.5224 136.067 29.294 133.535 24.5257C133.352 24.1379 132.965 23.4306 132.714 22.9287C132.28 22.1074 130.455 19.1643 129.999 18.5939C129.907 18.457 129.223 17.5901 128.493 16.6547C127.033 14.7839 123.291 11.0423 121.489 9.65059C118.409 7.23223 114.348 4.85951 110.766 3.30811C107.686 1.98486 102.439 0.638794 98.7426 0.250946C96.6665 0.0227966 91.7157 -0.0228271 89.8905 0.159691Z" fill="#6C96F9"/>
<path d="M159.635 0.912561C157.331 1.50574 155.483 3.01151 154.319 5.27016C153.772 6.34245 153.68 6.77593 153.68 8.4414C153.658 10.0612 153.772 10.586 154.251 11.6355C155.095 13.4378 156.281 14.647 158.038 15.5368C159.43 16.244 159.726 16.3125 161.506 16.2896C163.924 16.2896 165.453 15.6508 167.095 14.031C170.906 10.1981 169.696 3.62751 164.791 1.46011C163.422 0.844117 160.958 0.593156 159.635 0.912561ZM164.175 2.87462C165.681 3.58188 166.343 4.17506 167.141 5.58957C168.031 7.11815 168.077 9.58214 167.278 11.202C164.905 16.0387 157.97 16.0843 155.711 11.2932C154.502 8.76081 155.209 5.38424 157.262 3.81002C159.635 2.03048 161.757 1.73389 164.175 2.87462Z" fill="#6C96F9"/>
<path d="M158.562 8.48702V12.434H159.429H160.274L160.205 10.8826L160.114 9.35398H161.277C162.601 9.35398 162.897 9.67338 162.897 11.1107C162.897 11.5898 162.989 12.0689 163.08 12.2058C163.262 12.4568 164.973 12.5252 164.814 12.2743C164.768 12.2058 164.654 11.5214 164.586 10.7913C164.494 10.0612 164.312 9.28554 164.152 9.05739C163.901 8.69235 163.924 8.55547 164.289 8.19043C164.563 7.91666 164.722 7.43755 164.722 6.93562C164.722 5.11045 163.81 4.5629 160.73 4.5629H158.562V8.48702ZM162.692 6.13711C163.148 6.50215 163.194 6.66185 163.011 7.2094C162.783 7.8254 162.669 7.87103 161.46 7.93947L160.16 8.00791V6.84437V5.70363H161.163C161.802 5.70363 162.35 5.86333 162.692 6.13711Z" fill="#6C96F9"/>
<path d="M0 23.385V29.2028H6.50218H13.0044V59.09V88.9772H18.708H24.4117V53.2722V17.5673H12.2058H0V23.385Z" fill="#6C96F9"/>
<path d="M90.0052 19.2783C85.3282 20.0084 81.0846 21.8792 77.6168 24.7082C75.495 26.4422 72.7117 29.8415 71.32 32.3968C70.1564 34.5414 69.0385 37.9864 68.5822 40.8382C68.3997 41.9105 68.3997 46.6331 68.5822 47.9108C68.7875 49.5534 69.4948 52.314 69.9283 53.2722C70.088 53.6372 70.4986 54.5726 70.8409 55.3255C72.1185 58.223 75.1985 62.1015 78.0275 64.3829C79.5104 65.5693 82.4763 67.2804 84.1874 67.9192C86.2636 68.6949 86.9024 68.8774 89.6401 69.425C92.0357 69.9041 92.4235 69.9041 137.3 69.9725L182.519 70.041V64.3373V58.6337L139.581 58.6108C115.945 58.6108 96.1651 58.5652 95.5948 58.4968C90.1877 57.9264 88.6819 57.5385 86.5373 56.1469C82.4307 53.5004 80.3318 50.0553 79.9439 45.3327C79.6245 41.7508 81.1303 37.5757 83.6399 35.0205C85.8301 32.7846 86.583 32.2827 89.3664 31.2104C90.5071 30.7541 91.1231 30.6857 93.7696 30.6857C97.3515 30.6857 98.7204 31.0735 101.321 32.7618C104.766 35.0433 107.139 38.8305 107.618 42.8231L107.755 44.0323H113.504H119.254L119.162 42.709C119.025 40.9979 118.478 38.1917 117.93 36.435C117.383 34.7695 115.398 30.64 114.828 30.0012C114.599 29.7503 114.143 29.1799 113.801 28.7236C112.637 27.1494 110.995 25.5068 109.398 24.3204C107.664 23.0428 104.721 21.2176 104.356 21.2176C104.219 21.2176 103.694 21.0123 103.169 20.7613C100.044 19.2555 94.2487 18.5939 90.0052 19.2783Z" fill="#6C96F9"/>
</svg>
