<svg width="111" height="126" viewBox="0 0 111 126" fill="none" xmlns="http://www.w3.org/2000/svg">
<path fill-rule="evenodd" clip-rule="evenodd" d="M55.2788 0L108.282 16.1059C108.282 16.1059 127.319 106.595 55.2788 125.63C-16.7612 106.595 2.27607 16.1059 2.27607 16.1059L55.2788 0ZM30.4155 71.9082C30.4155 85.6426 41.5455 96.7694 55.2788 96.7694C69.0088 96.7694 80.1389 85.6426 80.1368 71.9093C80.1368 66.5948 78.4644 61.6778 75.6264 57.6371V43.8335C75.6264 32.6114 66.4999 23.4827 55.2777 23.4827C44.0567 23.4827 34.9258 32.6103 34.9258 43.8335V57.636C32.0877 61.6767 30.4155 66.5959 30.4155 71.9082ZM55.2793 32.9745C49.2909 32.9745 44.4209 37.8446 44.4209 43.833V49.5364C47.7025 47.9418 51.3855 47.0464 55.2793 47.0464C59.1732 47.0464 62.8561 47.9418 66.1357 49.5364V43.833C66.1357 37.8446 61.2678 32.9745 55.2793 32.9745ZM55.2791 60.1227C51.7134 60.1227 48.8271 63.0123 48.8271 66.5757C48.8271 68.746 49.9028 70.6626 51.5457 71.8336V81.9843C51.5457 82.7109 52.1339 83.3011 52.8636 83.3011H57.6936C58.4212 83.3011 59.0136 82.7109 59.0136 81.9843V71.8336C60.6554 70.6625 61.7332 68.7471 61.7332 66.5757C61.7311 63.0123 58.8417 60.1227 55.2791 60.1227Z" fill="#6C96F9"/>
</svg>
