<svg width="88" height="89" viewBox="0 0 88 89" fill="none" xmlns="http://www.w3.org/2000/svg">
<mask id="path-1-inside-1_795_127147" fill="white">
<path d="M13.2611 15.001C12.5691 15.075 12.0007 15.693 12.0007 16.3849V27.5577C12.0007 28.2993 12.6684 28.9421 13.3851 28.9421H34.3223C35.0639 28.9421 35.7311 28.2992 35.7311 27.5577V16.3849C35.7311 15.6681 35.0635 15.0005 34.3223 15.0005L13.2611 15.001ZM37.6826 15.001C36.9906 15.075 36.4223 15.693 36.4223 16.3849V27.5577C36.4223 28.2993 37.0899 28.9421 37.8067 28.9421H51.4513C52.4649 28.0769 53.0829 27.4589 53.0829 27.4589C53.3798 27.1377 53.8245 26.9149 54.2693 26.8657C54.3681 26.8409 54.4669 26.8409 54.5661 26.8409V16.3849C54.5661 15.6681 53.8985 15.0005 53.1573 15.0005H37.684L37.6826 15.001ZM56.5182 15.001C55.8267 15.075 55.2579 15.693 55.2579 16.3849V26.9645C55.4554 27.0384 55.6535 27.162 55.8511 27.2856C55.8511 27.2856 56.6915 27.9533 58.051 28.9416H70.6081C71.3249 28.9416 71.9925 28.2988 71.9925 27.5572V16.3844C71.9925 15.6676 71.3249 15 70.6081 15H56.5188L56.5182 15.001ZM14.7933 17.7942H32.9363V26.1738H14.7933V17.7942ZM39.2148 17.7942H51.7719V26.1738H39.2148V17.7942ZM58.0505 17.7942H69.1983V26.1738H58.0505V17.7942ZM53.5765 27.9533C53.5765 27.9533 51.0554 30.4994 47.3225 33.0701C43.5901 35.6657 38.6957 38.2116 34.2709 38.3844C33.5541 38.3844 32.9361 39.0521 32.9361 39.7688C32.9361 65.2779 53.9966 74.8701 53.9966 74.8701C54.3425 75.0433 54.763 75.0433 55.109 74.8701C55.109 74.8701 76.1695 65.2794 76.1695 39.7688C76.1695 39.052 75.5515 38.4092 74.8595 38.3844C72.0167 38.2365 66.9247 35.6657 62.7967 33.0453C58.6687 30.4254 55.4307 27.8298 55.4307 27.8298C55.2084 27.657 54.9115 27.5577 54.6147 27.5334C54.2191 27.5086 53.8977 27.7305 53.5765 27.9533ZM13.2606 29.6589C12.5686 29.7085 12.0002 30.3513 12.0002 31.0433V42.2161C12.0002 42.9329 12.6679 43.6005 13.3846 43.6005H25.9417C26.6833 43.6005 27.3505 42.9328 27.3505 42.2161V31.0433C27.3505 30.3265 26.6829 29.6589 25.9417 29.6589H13.2606ZM28.0425 31.0433V42.2161C28.0425 42.9329 28.7102 43.6005 29.4513 43.6005H32.4177C32.3189 42.6861 32.2693 41.7712 32.2445 40.8073H30.8357V32.4526H47.0016C48.4352 31.439 49.6216 30.4998 50.6104 29.6842C43.5656 29.6345 36.4962 29.6593 29.4515 29.6593C28.6851 29.8078 28.067 30.4253 28.0425 31.0433ZM59.0142 29.6589C60.2005 30.4993 61.585 31.4384 63.1422 32.4521H69.1981V35.7893C70.1869 36.2589 71.1261 36.6545 71.9913 36.9508V31.0433C71.9913 30.3265 71.3237 29.6589 70.6069 29.6589L59.0142 29.6589ZM54.639 30.7713C55.7018 31.562 57.9762 33.2924 61.3129 35.4185C65.1198 37.8161 69.47 40.2384 73.3261 40.9061C72.7334 62.9059 56.1959 71.2362 54.5652 72.0023C52.9336 71.2364 36.3973 62.9059 35.7795 40.956C40.6491 40.3628 45.2963 37.8659 48.8797 35.3696C51.8705 33.2932 53.6993 31.6365 54.639 30.7713ZM14.7927 32.452H24.5567V40.8067H14.7927V32.452ZM13.2603 44.2924C12.5683 44.3664 12 45.0092 12 45.7012V56.8741C12 57.5908 12.6676 58.2584 13.3844 58.2584H34.3216C35.0632 58.2584 35.7304 57.5908 35.7304 56.8741V56.5529C34.5192 53.8833 33.5304 50.8925 32.9372 47.5802V55.4654H14.7942V47.0858H32.8388C32.6903 46.1957 32.5667 45.2565 32.4675 44.2926L13.2603 44.2924ZM51.7712 44.2924L53.1556 51.288C52.4636 51.98 51.0544 52.6724 51.0544 54.7732C51.0544 56.8744 52.8339 58.2584 54.5644 58.2584C56.2699 58.2584 58.0496 56.8741 58.0496 54.7732C58.0496 52.672 56.6408 51.98 55.9484 51.288L57.3328 44.2924H51.7712ZM13.2603 58.9498C12.5683 59.0243 12 59.6671 12 60.359V71.5069C12 72.2485 12.6676 72.9157 13.3844 72.9157H30.1434C30.8601 72.9157 31.5277 72.2481 31.5277 71.5069V60.359C31.5277 59.6174 30.8601 58.9502 30.1434 58.9502L13.2603 58.9498ZM33.5049 58.9498C32.8129 59.0238 32.2198 59.6666 32.2198 60.3586V71.5065C32.2198 72.2481 32.8874 72.9153 33.6286 72.9153H49.3984C48.3356 72.1489 47.1244 71.2346 45.8388 70.1221H35.0121V61.7425H38.5469C37.9785 60.8773 37.4097 59.9382 36.8909 58.9493L33.5049 58.9498ZM71.8189 59.6666C71.0033 61.1002 70.1133 62.435 69.199 63.6711V70.1226H63.2666C62.0058 71.235 60.7703 72.1495 59.707 72.9158H70.6078C71.3246 72.9158 71.9922 72.2482 71.9922 71.507V60.3591C71.9922 60.1119 71.9425 59.889 71.8189 59.6666ZM14.7926 61.743H28.7337V70.1226H14.7926V61.743Z"/>
</mask>
<path d="M13.2611 15.001C12.5691 15.075 12.0007 15.693 12.0007 16.3849V27.5577C12.0007 28.2993 12.6684 28.9421 13.3851 28.9421H34.3223C35.0639 28.9421 35.7311 28.2992 35.7311 27.5577V16.3849C35.7311 15.6681 35.0635 15.0005 34.3223 15.0005L13.2611 15.001ZM37.6826 15.001C36.9906 15.075 36.4223 15.693 36.4223 16.3849V27.5577C36.4223 28.2993 37.0899 28.9421 37.8067 28.9421H51.4513C52.4649 28.0769 53.0829 27.4589 53.0829 27.4589C53.3798 27.1377 53.8245 26.9149 54.2693 26.8657C54.3681 26.8409 54.4669 26.8409 54.5661 26.8409V16.3849C54.5661 15.6681 53.8985 15.0005 53.1573 15.0005H37.684L37.6826 15.001ZM56.5182 15.001C55.8267 15.075 55.2579 15.693 55.2579 16.3849V26.9645C55.4554 27.0384 55.6535 27.162 55.8511 27.2856C55.8511 27.2856 56.6915 27.9533 58.051 28.9416H70.6081C71.3249 28.9416 71.9925 28.2988 71.9925 27.5572V16.3844C71.9925 15.6676 71.3249 15 70.6081 15H56.5188L56.5182 15.001ZM14.7933 17.7942H32.9363V26.1738H14.7933V17.7942ZM39.2148 17.7942H51.7719V26.1738H39.2148V17.7942ZM58.0505 17.7942H69.1983V26.1738H58.0505V17.7942ZM53.5765 27.9533C53.5765 27.9533 51.0554 30.4994 47.3225 33.0701C43.5901 35.6657 38.6957 38.2116 34.2709 38.3844C33.5541 38.3844 32.9361 39.0521 32.9361 39.7688C32.9361 65.2779 53.9966 74.8701 53.9966 74.8701C54.3425 75.0433 54.763 75.0433 55.109 74.8701C55.109 74.8701 76.1695 65.2794 76.1695 39.7688C76.1695 39.052 75.5515 38.4092 74.8595 38.3844C72.0167 38.2365 66.9247 35.6657 62.7967 33.0453C58.6687 30.4254 55.4307 27.8298 55.4307 27.8298C55.2084 27.657 54.9115 27.5577 54.6147 27.5334C54.2191 27.5086 53.8977 27.7305 53.5765 27.9533ZM13.2606 29.6589C12.5686 29.7085 12.0002 30.3513 12.0002 31.0433V42.2161C12.0002 42.9329 12.6679 43.6005 13.3846 43.6005H25.9417C26.6833 43.6005 27.3505 42.9328 27.3505 42.2161V31.0433C27.3505 30.3265 26.6829 29.6589 25.9417 29.6589H13.2606ZM28.0425 31.0433V42.2161C28.0425 42.9329 28.7102 43.6005 29.4513 43.6005H32.4177C32.3189 42.6861 32.2693 41.7712 32.2445 40.8073H30.8357V32.4526H47.0016C48.4352 31.439 49.6216 30.4998 50.6104 29.6842C43.5656 29.6345 36.4962 29.6593 29.4515 29.6593C28.6851 29.8078 28.067 30.4253 28.0425 31.0433ZM59.0142 29.6589C60.2005 30.4993 61.585 31.4384 63.1422 32.4521H69.1981V35.7893C70.1869 36.2589 71.1261 36.6545 71.9913 36.9508V31.0433C71.9913 30.3265 71.3237 29.6589 70.6069 29.6589L59.0142 29.6589ZM54.639 30.7713C55.7018 31.562 57.9762 33.2924 61.3129 35.4185C65.1198 37.8161 69.47 40.2384 73.3261 40.9061C72.7334 62.9059 56.1959 71.2362 54.5652 72.0023C52.9336 71.2364 36.3973 62.9059 35.7795 40.956C40.6491 40.3628 45.2963 37.8659 48.8797 35.3696C51.8705 33.2932 53.6993 31.6365 54.639 30.7713ZM14.7927 32.452H24.5567V40.8067H14.7927V32.452ZM13.2603 44.2924C12.5683 44.3664 12 45.0092 12 45.7012V56.8741C12 57.5908 12.6676 58.2584 13.3844 58.2584H34.3216C35.0632 58.2584 35.7304 57.5908 35.7304 56.8741V56.5529C34.5192 53.8833 33.5304 50.8925 32.9372 47.5802V55.4654H14.7942V47.0858H32.8388C32.6903 46.1957 32.5667 45.2565 32.4675 44.2926L13.2603 44.2924ZM51.7712 44.2924L53.1556 51.288C52.4636 51.98 51.0544 52.6724 51.0544 54.7732C51.0544 56.8744 52.8339 58.2584 54.5644 58.2584C56.2699 58.2584 58.0496 56.8741 58.0496 54.7732C58.0496 52.672 56.6408 51.98 55.9484 51.288L57.3328 44.2924H51.7712ZM13.2603 58.9498C12.5683 59.0243 12 59.6671 12 60.359V71.5069C12 72.2485 12.6676 72.9157 13.3844 72.9157H30.1434C30.8601 72.9157 31.5277 72.2481 31.5277 71.5069V60.359C31.5277 59.6174 30.8601 58.9502 30.1434 58.9502L13.2603 58.9498ZM33.5049 58.9498C32.8129 59.0238 32.2198 59.6666 32.2198 60.3586V71.5065C32.2198 72.2481 32.8874 72.9153 33.6286 72.9153H49.3984C48.3356 72.1489 47.1244 71.2346 45.8388 70.1221H35.0121V61.7425H38.5469C37.9785 60.8773 37.4097 59.9382 36.8909 58.9493L33.5049 58.9498ZM71.8189 59.6666C71.0033 61.1002 70.1133 62.435 69.199 63.6711V70.1226H63.2666C62.0058 71.235 60.7703 72.1495 59.707 72.9158H70.6078C71.3246 72.9158 71.9922 72.2482 71.9922 71.507V60.3591C71.9922 60.1119 71.9425 59.889 71.8189 59.6666ZM14.7926 61.743H28.7337V70.1226H14.7926V61.743Z" fill="#6C96F9" stroke="#F5F8FF" stroke-width="0.8" mask="url(#path-1-inside-1_795_127147)"/>
</svg>
