<svg width="88" height="89" viewBox="0 0 88 89" fill="none" xmlns="http://www.w3.org/2000/svg">
<path d="M70.0002 15H31.9999C30.939 15 29.9216 15.4215 29.1716 16.1715C28.4216 16.9219 28.0001 17.9393 28.0001 18.9998V36.0002H17.9998C16.9393 36.0002 15.9218 36.4216 15.1715 37.1717C14.4215 37.9221 14 38.9395 14 40V63.9999C14 65.0609 14.4215 66.0783 15.1715 66.8283C15.9219 67.5787 16.9393 68.0002 17.9998 68.0002H19.0001V71.91C18.9976 72.7274 19.3203 73.5126 19.8966 74.0918C20.4733 74.6715 21.2563 74.9983 22.0737 75C22.7384 74.9996 23.3845 74.7811 23.9127 74.3781L32.336 68.0002H55.9995C57.0604 68.0002 58.0778 67.5787 58.8278 66.8283C59.5778 66.0783 59.9993 65.0608 59.9993 63.9999V50.2814L64.0854 53.3815C64.6977 53.8427 65.4607 54.0582 66.2237 53.985C66.987 53.9121 67.6951 53.556 68.2087 52.9868C68.7226 52.418 69.0047 51.6772 68.9993 50.9105V47.0006H69.9995C71.0601 47.0006 72.0776 46.5792 72.8279 45.8287C73.5779 45.0787 73.9994 44.0613 73.9994 43.0003V19.0004C73.9994 17.9399 73.5779 16.9224 72.8279 16.1721C72.0775 15.4221 71.06 15.0006 69.9995 15.0006L70.0002 15ZM58.0002 63.9995C58.0002 64.5302 57.7893 65.0387 57.4143 65.4137C57.0393 65.7891 56.5304 65.9996 56.0001 65.9996H32.0002C31.7838 65.9996 31.5733 66.0699 31.4 66.1997L22.7102 72.7797C22.3938 73.0225 21.9657 73.0614 21.6103 72.8798C21.2361 72.7015 20.9988 72.3235 21.0001 71.9096V66.9995C21.0001 66.7346 20.895 66.4801 20.7075 66.2926C20.5196 66.1051 20.2656 65.9996 20.0002 65.9996H18.0001C17.4698 65.9996 16.9609 65.7891 16.5859 65.4137C16.2109 65.0387 16.0004 64.5302 16.0004 63.9995V39.9996C16.0004 39.4693 16.2109 38.9604 16.5859 38.5854C16.9609 38.2104 17.4698 37.9999 18.0001 37.9999H56.0003C56.5306 37.9999 57.0395 38.2104 57.4145 38.5854C57.7895 38.9604 58.0004 39.4693 58.0004 39.9996L58.0002 63.9995ZM71.9995 42.9996C71.9995 43.5303 71.789 44.0388 71.414 44.4137C71.039 44.7892 70.53 44.9997 69.9998 44.9997H67.9997C67.4472 44.9997 66.9998 45.4475 66.9998 45.9995V50.9097C67.0057 51.3236 66.7717 51.704 66.3996 51.8857C66.043 52.0686 65.6128 52.0296 65.2948 51.7856L59.9996 47.7728V39.9995C59.9996 38.939 59.5781 37.9215 58.8281 37.1712C58.0781 36.4212 57.0607 35.9997 55.9997 35.9997H29.9994V18.9994C29.9994 18.4691 30.2104 17.9602 30.5854 17.5852C30.9604 17.2102 31.4693 16.9997 31.9996 16.9997H69.9998C70.5301 16.9997 71.039 17.2102 71.414 17.5852C71.789 17.9602 71.9995 18.4691 71.9995 18.9994L71.9995 42.9996Z" fill="#6C96F9"/>
<path d="M51 40C50.2044 40 49.4414 40.3164 48.8789 40.8789C48.3164 41.4414 48 42.2044 48 43V53.0003C48 54.0721 48.5721 55.0623 49.5 55.598C50.4283 56.1342 51.5721 56.1342 52.5 55.598C53.4283 55.0623 54 54.0721 54 53.0003V43C54 42.2044 53.684 41.4414 53.1215 40.8789C52.559 40.3164 51.7956 40 51 40ZM51.9999 52.9996L52.0003 53C52.0003 53.5521 51.5525 53.9999 51 53.9999C50.448 53.9999 50.0002 53.5521 50.0002 53V42.9998C50.0002 42.4477 50.448 41.9999 51 41.9999C51.5525 41.9999 52.0003 42.4477 52.0003 42.9998L51.9999 52.9996Z" fill="#6C96F9"/>
<path d="M51 57.999C50.2044 57.999 49.4414 58.3154 48.8789 58.8779C48.3164 59.4404 48 60.2034 48 60.999C48 61.7947 48.3164 62.5581 48.8789 63.1206C49.4414 63.6831 50.2044 63.999 51 63.999C51.7956 63.999 52.559 63.6831 53.1215 63.1206C53.684 62.5581 54 61.7947 54 60.999C54 60.2034 53.684 59.4404 53.1215 58.8779C52.559 58.3154 51.7956 57.999 51 57.999ZM51 61.9993C50.5957 61.9993 50.2312 61.7557 50.0763 61.382C49.9215 61.0082 50.0068 60.578 50.2931 60.2921C50.579 60.0058 51.0092 59.9205 51.383 60.0753C51.7567 60.2302 52.0003 60.5947 52.0003 60.999C52.0003 61.2644 51.8948 61.5188 51.7073 61.7063C51.5198 61.8938 51.2654 61.9993 51 61.9993Z" fill="#6C96F9"/>
<path d="M19.9999 44.0001H31.9998C32.5523 44.0001 32.9997 43.5523 32.9997 42.9999C32.9997 42.4478 32.5523 42 31.9998 42H19.9999C19.4474 42 19 42.4478 19 42.9999C19 43.5523 19.4474 44.0001 19.9999 44.0001Z" fill="#6C96F9"/>
<path d="M43.9998 49H19.9999C19.4474 49 19 49.4478 19 50.0003C19 50.5523 19.4474 51.0001 19.9999 51.0001H43.9998C44.5522 51.0001 44.9996 50.5523 44.9996 50.0003C44.9996 49.4478 44.5522 49 43.9998 49Z" fill="#6C96F9"/>
<path d="M43.9998 54H31.9999C31.4474 54 31 54.4478 31 54.9999C31 55.5523 31.4474 56.0001 31.9999 56.0001H43.9998C44.5523 56.0001 44.9997 55.5523 44.9997 54.9999C44.9997 54.4478 44.5523 54 43.9998 54Z" fill="#6C96F9"/>
<path d="M19.9999 56.0001H28C28.552 56.0001 28.9998 55.5523 28.9998 54.9999C28.9998 54.4478 28.552 54 28 54H19.9999C19.4474 54 19 54.4478 19 54.9999C19 55.5523 19.4474 56.0001 19.9999 56.0001Z" fill="#6C96F9"/>
<path d="M34.9998 59H19.9999C19.4474 59 19 59.4474 19 59.9999C19 60.5523 19.4474 60.9997 19.9999 60.9997H34.9998C35.5523 60.9997 35.9997 60.5523 35.9997 59.9999C35.9997 59.4474 35.5523 59 34.9998 59Z" fill="#6C96F9"/>
<path d="M67.0001 21H34.9999C34.4474 21 34 21.4478 34 21.9999C34 22.5523 34.4474 23.0001 34.9999 23.0001H67.0001C67.5522 23.0001 68 22.5523 68 21.9999C68 21.4478 67.5522 21 67.0001 21Z" fill="#6C96F9"/>
<path d="M67.0002 26H49.0003C48.4478 26 48 26.4474 48 26.9999C48 27.5523 48.4478 27.9997 49.0003 27.9997H67.0002C67.5522 27.9997 68.0001 27.5523 68.0001 26.9999C68.0001 26.4474 67.5522 26 67.0002 26Z" fill="#6C96F9"/>
<path d="M34.9999 27.9997H44.9997C45.5521 27.9997 46 27.5523 46 26.9999C46 26.4474 45.5521 26 44.9997 26H34.9999C34.4474 26 34 26.4474 34 26.9999C34 27.5523 34.4474 27.9997 34.9999 27.9997Z" fill="#6C96F9"/>
<path d="M67.0001 31H34.9999C34.4474 31 34 31.4478 34 32.0003C34 32.5523 34.4474 33.0001 34.9999 33.0001H67.0001C67.5522 33.0001 68 32.5523 68 32.0003C68 31.4478 67.5522 31 67.0001 31Z" fill="#6C96F9"/>
</svg>
