<svg width="88" height="89" viewBox="0 0 88 89" fill="none" xmlns="http://www.w3.org/2000/svg">
<path d="M69 14.5H19C16.2433 14.5 14 16.7433 14 19.5V69.5C14 72.2567 16.2433 74.5 19 74.5H69C71.7567 74.5 74 72.2567 74 69.5V19.5C74 16.7433 71.7567 14.5 69 14.5ZM69 72.5H19C17.3455 72.5 16 71.1545 16 69.5V19.5C16 17.8455 17.3455 16.5 19 16.5H69C70.6545 16.5 72 17.8455 72 19.5V28.6581H20C19.4473 28.6581 19 29.1058 19 29.6581C19 30.2103 19.4473 30.6581 20 30.6581H72V69.5003C72 71.1549 70.6545 72.5003 69 72.5003V72.5Z" fill="#6C96F9"/>
<path d="M24 26.5791C26.2063 26.5791 28 24.7845 28 22.5791C28 20.3737 26.2063 18.5791 24 18.5791C21.7937 18.5791 20 20.3737 20 22.5791C20 24.7845 21.7937 26.5791 24 26.5791ZM24 20.5791C25.1027 20.5791 26 21.476 26 22.5791C26 23.6822 25.1027 24.5791 24 24.5791C22.8973 24.5791 22 23.6822 22 22.5791C22 21.476 22.8973 20.5791 24 20.5791Z" fill="#6C96F9"/>
<path d="M34.8086 26.5791C37.0149 26.5791 38.8086 24.7845 38.8086 22.5791C38.8086 20.3737 37.0149 18.5791 34.8086 18.5791C32.6023 18.5791 30.8086 20.3737 30.8086 22.5791C30.8086 24.7845 32.6023 26.5791 34.8086 26.5791ZM34.8086 20.5791C35.9113 20.5791 36.8086 21.476 36.8086 22.5791C36.8086 23.6822 35.9113 24.5791 34.8086 24.5791C33.7059 24.5791 32.8086 23.6822 32.8086 22.5791C32.8086 21.476 33.7059 20.5791 34.8086 20.5791Z" fill="#6C96F9"/>
<path d="M45.6211 26.5791C47.8274 26.5791 49.6211 24.7845 49.6211 22.5791C49.6211 20.3737 47.8274 18.5791 45.6211 18.5791C43.4148 18.5791 41.6211 20.3737 41.6211 22.5791C41.6211 24.7845 43.4148 26.5791 45.6211 26.5791ZM45.6211 20.5791C46.7238 20.5791 47.6211 21.476 47.6211 22.5791C47.6211 23.6822 46.7238 24.5791 45.6211 24.5791C44.5184 24.5791 43.6211 23.6822 43.6211 22.5791C43.6211 21.476 44.5184 20.5791 45.6211 20.5791Z" fill="#6C96F9"/>
<path d="M64.7636 48.0711C60.4805 40.6742 52.5236 36.0791 44.0001 36.0791C35.4767 36.0791 27.5201 40.6737 23.2367 48.07L21.4943 51.077C21.3144 51.3873 21.3144 51.7695 21.4943 52.0793L23.2353 55.0868C27.5197 62.4833 35.4765 67.0777 43.9999 67.0777C48.8339 67.0777 53.5156 65.6232 57.5371 62.8706C57.9933 62.5585 58.1094 61.9367 57.7978 61.4804C57.487 61.0259 56.8661 60.9085 56.4081 61.2202C52.7197 63.7438 48.4295 65.0778 44 65.0778C36.1876 65.0778 28.8949 60.8653 24.9658 54.084L23.5144 51.5778L24.9667 49.0715C28.8943 42.2902 36.1872 38.0778 43.9998 38.0778C51.8123 38.0778 59.105 42.2902 63.033 49.0719L64.4852 51.5778L63.0339 54.084C62.0357 55.8063 60.8076 57.3867 59.3807 58.781C58.9861 59.1671 58.9785 59.8006 59.3651 60.1957C59.7508 60.5908 60.3848 60.5979 60.7789 60.2118C62.3347 58.6904 63.6763 56.9663 64.7642 55.0863L66.5052 52.0792C66.6851 51.7689 66.6851 51.3868 66.5052 51.077L64.7628 48.0702L64.7636 48.0711Z" fill="#6C96F9"/>
<path d="M59.573 51.0768C56.3583 45.5264 50.3904 42.0781 44.0005 42.0781C37.6105 42.0781 31.6428 45.5264 28.4279 51.0768C28.248 51.387 28.248 51.7696 28.4279 52.079C31.6426 57.6298 37.6096 61.0781 44.0005 61.0781C50.3913 61.0781 56.3582 57.6298 59.573 52.079C59.753 51.7696 59.753 51.3866 59.573 51.0768ZM44.0005 59.0781C38.5161 59.0781 33.3813 56.2187 30.4622 51.5781C33.3832 46.9376 38.517 44.0781 44.0005 44.0781C49.4848 44.0781 54.6188 46.9376 57.5388 51.5781C54.6186 56.2187 49.4839 59.0781 44.0005 59.0781Z" fill="#6C96F9"/>
<path d="M44 46.5791C41.2433 46.5791 39 48.8224 39 51.5791C39 54.3358 41.2433 56.5791 44 56.5791C46.7567 56.5791 49 54.3358 49 51.5791C49 48.8224 46.7567 46.5791 44 46.5791ZM44 54.5791C42.3455 54.5791 41 53.2336 41 51.5791C41 49.9246 42.3455 48.5791 44 48.5791C45.6545 48.5791 47 49.9246 47 51.5791C47 53.2336 45.6545 54.5791 44 54.5791Z" fill="#6C96F9"/>
</svg>
