<svg width="88" height="89" viewBox="0 0 88 89" fill="none" xmlns="http://www.w3.org/2000/svg">
<mask id="path-1-inside-1_792_96323" fill="white">
<path d="M29.5837 24.2572H19.721C19.1872 24.2572 18.7529 24.6902 18.7529 25.2252V35.0857C18.7529 35.6208 19.1872 36.0538 19.721 36.0538H29.5842C30.1166 36.0538 30.55 35.6208 30.55 35.0857L30.5496 25.2252C30.5496 24.6902 30.1161 24.2572 29.5837 24.2572ZM28.6157 34.1181H20.6891V26.1924H28.6157V34.1181ZM21.5159 31.8398C21.1382 31.4594 21.1382 30.8492 21.5159 30.4703C21.8949 30.0926 22.5055 30.0926 22.8846 30.4703L23.5146 31.1002L26.3149 27.1573C26.6238 26.7216 27.2276 26.6187 27.6647 26.9294C28.0991 27.2383 28.2025 27.8421 27.8927 28.2778L24.4305 33.1559C24.2655 33.3875 24.0079 33.535 23.7215 33.5602C23.6949 33.5615 23.6684 33.5629 23.641 33.5629C23.3856 33.5629 23.1401 33.4608 22.9571 33.2787L21.5159 31.8398ZM29.5837 40.4777H19.7209C19.1872 40.4777 18.7529 40.9098 18.7529 41.4444V51.3063C18.7529 51.84 19.1872 52.2744 19.7209 52.2744H29.5842C30.1165 52.2744 30.55 51.84 30.55 51.3063L30.5495 41.4449C30.5495 40.9098 30.1161 40.4777 29.5837 40.4777ZM28.6156 50.3382H20.6891V42.4116H28.6156V50.3382ZM29.5837 56.696H19.7209C19.1872 56.696 18.7529 57.1281 18.7529 57.6627V67.5259C18.7529 68.061 19.1872 68.4926 19.7209 68.4926H29.5842C30.1165 68.4926 30.55 68.0605 30.55 67.5259L30.5495 57.6627C30.5495 57.1276 30.1161 56.696 29.5837 56.696ZM28.6156 66.5574H20.6891V58.6321H28.6156V66.5574ZM21.5159 64.2777C21.1382 63.9 21.1382 63.2872 21.5159 62.909C21.8949 62.5313 22.5055 62.5313 22.8846 62.909L23.5146 63.5389L26.3149 59.5961C26.6238 59.1604 27.2276 59.056 27.6647 59.3672C28.0991 59.6761 28.2025 60.28 27.8927 60.717L24.4305 65.5951C24.2655 65.8267 24.0078 65.9742 23.7214 65.998C23.6949 66.0021 23.6684 66.003 23.6409 66.003C23.3855 66.003 23.14 65.9009 22.9571 65.7188L21.5159 64.2777ZM21.5159 48.0581C21.1382 47.6804 21.1382 47.0675 21.5159 46.6893C21.8949 46.3116 22.5055 46.3116 22.8846 46.6893L23.5146 47.3202L26.3149 43.3759C26.6238 42.9416 27.2276 42.8373 27.6647 43.1471C28.0991 43.4564 28.2025 44.0612 27.8927 44.4969L24.4305 49.3741C24.2655 49.607 24.0078 49.7545 23.7214 49.7797C23.6949 49.7824 23.6684 49.7837 23.6409 49.7837C23.3855 49.7837 23.14 49.6816 22.9571 49.4995L21.5159 48.0581ZM32.5463 28.0399C32.5463 27.5048 32.9793 27.0718 33.5144 27.0718H43.494C44.029 27.0718 44.462 27.5048 44.462 28.0399C44.462 28.5736 44.029 29.0066 43.494 29.0066H33.5144C32.9793 29.0066 32.5463 28.5736 32.5463 28.0399ZM32.5463 32.2736C32.5463 31.7372 32.9793 31.3069 33.5144 31.3069H47.4261C47.9598 31.3069 48.3928 31.7377 48.3928 32.2736C48.3928 32.8073 47.9598 33.2417 47.4261 33.2417H33.5144C32.9793 33.2417 32.5463 32.8074 32.5463 32.2736ZM41.2104 44.2574C41.2104 44.7924 40.7774 45.2254 40.2436 45.2254L33.5144 45.2259C32.9793 45.2259 32.5463 44.7929 32.5463 44.2578C32.5463 43.7241 32.9793 43.292 33.5144 43.292H40.2432C40.7773 43.292 41.2104 43.7236 41.2104 44.2574ZM41.2104 48.4925C41.2104 49.0262 40.7774 49.4592 40.2436 49.4592L33.5144 49.4596C32.9793 49.4596 32.5463 49.0266 32.5463 48.4929C32.5463 47.9592 32.9793 47.5248 33.5144 47.5248H40.2432C40.7773 47.5244 41.2104 47.9588 41.2104 48.4925ZM41.2104 60.4773C41.2104 61.0111 40.7774 61.4454 40.2436 61.4454H33.5144C32.9793 61.4454 32.5463 61.0111 32.5463 60.4773C32.5463 59.9423 32.9793 59.5106 33.5144 59.5106H40.2432C40.7773 59.5102 41.2104 59.9423 41.2104 60.4773ZM41.2104 64.7111C41.2104 65.2461 40.7774 65.6791 40.2436 65.6791H33.5144C32.9793 65.6791 32.5463 65.2461 32.5463 64.7111C32.5463 64.176 32.9793 63.743 33.5144 63.743H40.2432C40.7773 63.7435 41.2104 64.176 41.2104 64.7111ZM47.3551 58.0915C47.3551 63.7794 51.7327 68.4606 57.2934 68.9542V71.2208C57.2934 71.7559 57.7264 72.1889 58.2614 72.1889C58.7952 72.1889 59.2295 71.7559 59.2295 71.2208V68.9542C64.7905 68.4605 69.1664 63.7799 69.1664 58.0915C69.1664 52.0786 64.2739 47.1847 58.261 47.1847C52.249 47.1847 47.3551 52.0786 47.3551 58.0915ZM67.2305 58.0915C67.2305 63.038 63.2081 67.063 58.2616 67.063C53.3147 67.063 49.2914 63.0379 49.2914 58.0915C49.2914 53.1446 53.3147 49.1213 58.2616 49.1213C63.2081 49.1213 67.2305 53.1446 67.2305 58.0915ZM72.0425 44.1867H65.1973L59.2297 41.978V27.0291C59.2297 26.7724 59.1267 26.5269 58.9455 26.3453L47.3831 14.7828C47.2019 14.6016 46.9564 14.5 46.6992 14.5H15.9681C15.4344 14.5 15 14.933 15 15.4667V73.5333C15 74.067 15.4343 74.5 15.9681 74.5H58.2616C58.2881 74.5 58.3169 74.4987 58.3435 74.496C66.0372 73.8381 72.2046 67.7847 73.0057 60.1054C73.0084 60.0712 73.0107 60.0375 73.0107 60.0046V45.1559C73.0107 44.6208 72.5763 44.1874 72.0426 44.1874L72.0425 44.1867ZM16.9353 16.4345H45.7327V27.0293C45.7327 27.5643 46.1656 27.9973 46.6994 27.9973H52.4507C52.9857 27.9973 53.4174 27.5643 53.4174 27.0293C53.4174 26.4956 52.9853 26.0612 52.4507 26.0612H47.6666V17.8032L57.2942 27.4295V41.9778L51.324 44.1864H44.4797C43.9459 44.1864 43.5116 44.6194 43.5116 45.1545V60.0044C43.5116 60.0372 43.5143 60.0714 43.5165 60.1051C44.0781 65.4944 47.2849 70.0788 51.8042 72.5654L16.9362 72.5658L16.9353 16.4345ZM71.0745 59.954C70.3519 66.6603 64.9774 71.9469 58.262 72.5604C51.5453 71.9476 46.1712 66.6612 45.4472 59.954V46.1216H51.4993C51.6139 46.1216 51.7263 46.1018 51.8342 46.0623L57.2947 44.0403V45.8407C57.2947 46.3771 57.7277 46.8088 58.2627 46.8088C58.7964 46.8088 59.2308 46.3767 59.2308 45.8407V44.0403L64.6898 46.0623C64.7968 46.1014 64.9102 46.1216 65.0239 46.1216H71.076V59.954H71.0745ZM54.2505 55.8618C54.2505 57.1496 54.8598 58.3384 55.8769 59.0874V63.3657C55.8769 63.8994 56.3099 64.3324 56.8436 64.3324H59.6772C60.2109 64.3324 60.6439 63.8994 60.6439 63.3657V59.0874C61.6609 58.3383 62.2716 57.15 62.2716 55.8618C62.2716 53.651 60.4712 51.852 58.2604 51.852C56.0495 51.852 54.2505 53.651 54.2505 55.8618ZM60.3363 55.8618C60.3363 56.6347 59.911 57.3384 59.2271 57.7004C58.9074 57.8681 58.7095 58.1973 58.7095 58.5565V62.3977L57.8121 62.3973V58.5561C57.8121 58.1968 57.6142 57.8677 57.2945 57.7C56.6106 57.3385 56.1853 56.6352 56.1853 55.8614C56.1853 54.717 57.1169 53.7863 58.2617 53.7863C59.406 53.7868 60.3363 54.7175 60.3363 55.8618Z"/>
</mask>
<path d="M29.5837 24.2572H19.721C19.1872 24.2572 18.7529 24.6902 18.7529 25.2252V35.0857C18.7529 35.6208 19.1872 36.0538 19.721 36.0538H29.5842C30.1166 36.0538 30.55 35.6208 30.55 35.0857L30.5496 25.2252C30.5496 24.6902 30.1161 24.2572 29.5837 24.2572ZM28.6157 34.1181H20.6891V26.1924H28.6157V34.1181ZM21.5159 31.8398C21.1382 31.4594 21.1382 30.8492 21.5159 30.4703C21.8949 30.0926 22.5055 30.0926 22.8846 30.4703L23.5146 31.1002L26.3149 27.1573C26.6238 26.7216 27.2276 26.6187 27.6647 26.9294C28.0991 27.2383 28.2025 27.8421 27.8927 28.2778L24.4305 33.1559C24.2655 33.3875 24.0079 33.535 23.7215 33.5602C23.6949 33.5615 23.6684 33.5629 23.641 33.5629C23.3856 33.5629 23.1401 33.4608 22.9571 33.2787L21.5159 31.8398ZM29.5837 40.4777H19.7209C19.1872 40.4777 18.7529 40.9098 18.7529 41.4444V51.3063C18.7529 51.84 19.1872 52.2744 19.7209 52.2744H29.5842C30.1165 52.2744 30.55 51.84 30.55 51.3063L30.5495 41.4449C30.5495 40.9098 30.1161 40.4777 29.5837 40.4777ZM28.6156 50.3382H20.6891V42.4116H28.6156V50.3382ZM29.5837 56.696H19.7209C19.1872 56.696 18.7529 57.1281 18.7529 57.6627V67.5259C18.7529 68.061 19.1872 68.4926 19.7209 68.4926H29.5842C30.1165 68.4926 30.55 68.0605 30.55 67.5259L30.5495 57.6627C30.5495 57.1276 30.1161 56.696 29.5837 56.696ZM28.6156 66.5574H20.6891V58.6321H28.6156V66.5574ZM21.5159 64.2777C21.1382 63.9 21.1382 63.2872 21.5159 62.909C21.8949 62.5313 22.5055 62.5313 22.8846 62.909L23.5146 63.5389L26.3149 59.5961C26.6238 59.1604 27.2276 59.056 27.6647 59.3672C28.0991 59.6761 28.2025 60.28 27.8927 60.717L24.4305 65.5951C24.2655 65.8267 24.0078 65.9742 23.7214 65.998C23.6949 66.0021 23.6684 66.003 23.6409 66.003C23.3855 66.003 23.14 65.9009 22.9571 65.7188L21.5159 64.2777ZM21.5159 48.0581C21.1382 47.6804 21.1382 47.0675 21.5159 46.6893C21.8949 46.3116 22.5055 46.3116 22.8846 46.6893L23.5146 47.3202L26.3149 43.3759C26.6238 42.9416 27.2276 42.8373 27.6647 43.1471C28.0991 43.4564 28.2025 44.0612 27.8927 44.4969L24.4305 49.3741C24.2655 49.607 24.0078 49.7545 23.7214 49.7797C23.6949 49.7824 23.6684 49.7837 23.6409 49.7837C23.3855 49.7837 23.14 49.6816 22.9571 49.4995L21.5159 48.0581ZM32.5463 28.0399C32.5463 27.5048 32.9793 27.0718 33.5144 27.0718H43.494C44.029 27.0718 44.462 27.5048 44.462 28.0399C44.462 28.5736 44.029 29.0066 43.494 29.0066H33.5144C32.9793 29.0066 32.5463 28.5736 32.5463 28.0399ZM32.5463 32.2736C32.5463 31.7372 32.9793 31.3069 33.5144 31.3069H47.4261C47.9598 31.3069 48.3928 31.7377 48.3928 32.2736C48.3928 32.8073 47.9598 33.2417 47.4261 33.2417H33.5144C32.9793 33.2417 32.5463 32.8074 32.5463 32.2736ZM41.2104 44.2574C41.2104 44.7924 40.7774 45.2254 40.2436 45.2254L33.5144 45.2259C32.9793 45.2259 32.5463 44.7929 32.5463 44.2578C32.5463 43.7241 32.9793 43.292 33.5144 43.292H40.2432C40.7773 43.292 41.2104 43.7236 41.2104 44.2574ZM41.2104 48.4925C41.2104 49.0262 40.7774 49.4592 40.2436 49.4592L33.5144 49.4596C32.9793 49.4596 32.5463 49.0266 32.5463 48.4929C32.5463 47.9592 32.9793 47.5248 33.5144 47.5248H40.2432C40.7773 47.5244 41.2104 47.9588 41.2104 48.4925ZM41.2104 60.4773C41.2104 61.0111 40.7774 61.4454 40.2436 61.4454H33.5144C32.9793 61.4454 32.5463 61.0111 32.5463 60.4773C32.5463 59.9423 32.9793 59.5106 33.5144 59.5106H40.2432C40.7773 59.5102 41.2104 59.9423 41.2104 60.4773ZM41.2104 64.7111C41.2104 65.2461 40.7774 65.6791 40.2436 65.6791H33.5144C32.9793 65.6791 32.5463 65.2461 32.5463 64.7111C32.5463 64.176 32.9793 63.743 33.5144 63.743H40.2432C40.7773 63.7435 41.2104 64.176 41.2104 64.7111ZM47.3551 58.0915C47.3551 63.7794 51.7327 68.4606 57.2934 68.9542V71.2208C57.2934 71.7559 57.7264 72.1889 58.2614 72.1889C58.7952 72.1889 59.2295 71.7559 59.2295 71.2208V68.9542C64.7905 68.4605 69.1664 63.7799 69.1664 58.0915C69.1664 52.0786 64.2739 47.1847 58.261 47.1847C52.249 47.1847 47.3551 52.0786 47.3551 58.0915ZM67.2305 58.0915C67.2305 63.038 63.2081 67.063 58.2616 67.063C53.3147 67.063 49.2914 63.0379 49.2914 58.0915C49.2914 53.1446 53.3147 49.1213 58.2616 49.1213C63.2081 49.1213 67.2305 53.1446 67.2305 58.0915ZM72.0425 44.1867H65.1973L59.2297 41.978V27.0291C59.2297 26.7724 59.1267 26.5269 58.9455 26.3453L47.3831 14.7828C47.2019 14.6016 46.9564 14.5 46.6992 14.5H15.9681C15.4344 14.5 15 14.933 15 15.4667V73.5333C15 74.067 15.4343 74.5 15.9681 74.5H58.2616C58.2881 74.5 58.3169 74.4987 58.3435 74.496C66.0372 73.8381 72.2046 67.7847 73.0057 60.1054C73.0084 60.0712 73.0107 60.0375 73.0107 60.0046V45.1559C73.0107 44.6208 72.5763 44.1874 72.0426 44.1874L72.0425 44.1867ZM16.9353 16.4345H45.7327V27.0293C45.7327 27.5643 46.1656 27.9973 46.6994 27.9973H52.4507C52.9857 27.9973 53.4174 27.5643 53.4174 27.0293C53.4174 26.4956 52.9853 26.0612 52.4507 26.0612H47.6666V17.8032L57.2942 27.4295V41.9778L51.324 44.1864H44.4797C43.9459 44.1864 43.5116 44.6194 43.5116 45.1545V60.0044C43.5116 60.0372 43.5143 60.0714 43.5165 60.1051C44.0781 65.4944 47.2849 70.0788 51.8042 72.5654L16.9362 72.5658L16.9353 16.4345ZM71.0745 59.954C70.3519 66.6603 64.9774 71.9469 58.262 72.5604C51.5453 71.9476 46.1712 66.6612 45.4472 59.954V46.1216H51.4993C51.6139 46.1216 51.7263 46.1018 51.8342 46.0623L57.2947 44.0403V45.8407C57.2947 46.3771 57.7277 46.8088 58.2627 46.8088C58.7964 46.8088 59.2308 46.3767 59.2308 45.8407V44.0403L64.6898 46.0623C64.7968 46.1014 64.9102 46.1216 65.0239 46.1216H71.076V59.954H71.0745ZM54.2505 55.8618C54.2505 57.1496 54.8598 58.3384 55.8769 59.0874V63.3657C55.8769 63.8994 56.3099 64.3324 56.8436 64.3324H59.6772C60.2109 64.3324 60.6439 63.8994 60.6439 63.3657V59.0874C61.6609 58.3383 62.2716 57.15 62.2716 55.8618C62.2716 53.651 60.4712 51.852 58.2604 51.852C56.0495 51.852 54.2505 53.651 54.2505 55.8618ZM60.3363 55.8618C60.3363 56.6347 59.911 57.3384 59.2271 57.7004C58.9074 57.8681 58.7095 58.1973 58.7095 58.5565V62.3977L57.8121 62.3973V58.5561C57.8121 58.1968 57.6142 57.8677 57.2945 57.7C56.6106 57.3385 56.1853 56.6352 56.1853 55.8614C56.1853 54.717 57.1169 53.7863 58.2617 53.7863C59.406 53.7868 60.3363 54.7175 60.3363 55.8618Z" fill="#6C96F9" stroke="#F5F8FF" stroke-width="0.2" mask="url(#path-1-inside-1_792_96323)"/>
</svg>
