<svg width="88" height="89" viewBox="0 0 88 89" fill="none" xmlns="http://www.w3.org/2000/svg">
<g clip-path="url(#clip0_792_98346)">
<path d="M21.0334 61.6666H36.2336L35.0804 69.7069C33.9536 69.8498 32.9179 70.3984 32.1666 71.2498C31.4157 72.1016 31.001 73.198 31 74.3337V75.0002H57.6678V74.3337C57.6669 73.198 57.2522 72.1016 56.5013 71.2498C55.7499 70.3984 54.7141 69.8498 53.5874 69.7069L52.4342 61.6666H67.6676C68.7256 61.6581 69.7381 61.234 70.4863 60.4853C71.2346 59.7371 71.6587 58.7251 71.6676 57.6665V27.033C71.6622 25.9705 71.2404 24.9527 70.4922 24.1982C69.7439 23.4441 68.7296 23.0133 67.6676 22.9995C67.2992 22.9995 67.0006 23.2982 67.0006 23.666C67.0006 24.0343 67.2993 24.333 67.6676 24.333C68.3769 24.3433 69.0542 24.6321 69.5533 25.1375C70.052 25.6424 70.3323 26.3232 70.3341 27.033V53.6665H18.3335V27.033C18.3353 26.3232 18.6157 25.6424 19.1143 25.1375C19.6134 24.6321 20.2907 24.3433 21 24.333C21.1768 24.333 21.3465 24.2625 21.4715 24.1375C21.5965 24.0125 21.667 23.8428 21.667 23.666C21.667 23.4892 21.5965 23.3196 21.4715 23.1946C21.3465 23.0696 21.1768 22.9995 21 22.9995C19.938 23.0134 18.9237 23.4442 18.1754 24.1982C17.4272 24.9526 17.0054 25.9705 17 27.033V57.6665C17.0089 58.7308 17.4379 59.7478 18.1933 60.4974C18.9486 61.2465 19.9696 61.6666 21.0335 61.6666H21.0334ZM56.267 73.6667H32.3993C32.5533 72.914 32.9622 72.2372 33.5573 71.7515C34.1529 71.2653 34.8976 71.0002 35.6663 71.0002H52.999C53.7678 71.0002 54.5124 71.2653 55.108 71.7515C55.7031 72.2372 56.112 72.914 56.2661 73.6667H56.267ZM52.2334 69.6667H36.4333L37.5801 61.6666H51.0866L52.2334 69.6667ZM70.3342 55.0002V57.6668C70.3239 58.3708 70.0396 59.0431 69.5418 59.5413C69.044 60.0391 68.3717 60.3235 67.6677 60.3337H21.034C20.3242 60.3319 19.6434 60.0516 19.1385 59.5525C18.6335 59.0538 18.3443 58.3766 18.334 57.6667V55.0002L70.3342 55.0002Z" fill="#6C96F9"/>
<path d="M65.6699 52.3337C65.8467 52.3337 66.0163 52.2631 66.1414 52.1381C66.2664 52.0131 66.3364 51.8435 66.3364 51.6667V15H22.3359V51.6667C22.3359 52.035 22.6346 52.3337 23.0025 52.3337C23.3708 52.3337 23.6694 52.035 23.6694 51.6667V20.3338H65.0025V51.6667C65.0025 51.8435 65.073 52.0131 65.198 52.1381C65.323 52.2632 65.4926 52.3337 65.6694 52.3337H65.6699ZM23.6694 18.9996V16.333H65.0025V18.9996H23.6694Z" fill="#6C96F9"/>
<path d="M25 16.9995H26.3335V18.333H25V16.9995Z" fill="#6C96F9"/>
<path d="M27.668 16.9995H29.0015V18.333H27.668V16.9995Z" fill="#6C96F9"/>
<path d="M30.3359 16.9995H31.6694V18.333H30.3359V16.9995Z" fill="#6C96F9"/>
<path d="M61.1005 30.499H27.667C27.2987 30.499 27 30.7977 27 31.1655C27 31.5339 27.2987 31.8325 27.667 31.8325H61.1005C61.4688 31.8325 61.7675 31.5338 61.7675 31.1655C61.7675 30.7977 61.4688 30.499 61.1005 30.499Z" fill="#6C96F9"/>
<path d="M27.667 28.4991H35.6671C35.8439 28.4991 36.0135 28.429 36.1385 28.304C36.2635 28.179 36.3336 28.0094 36.3336 27.8326V22.499C36.3336 22.3223 36.2635 22.1526 36.1385 22.0276C36.0135 21.9026 35.8439 21.8325 35.6671 21.8325H27.667C27.2987 21.8325 27 22.1307 27 22.499V27.8326C27 28.0094 27.0705 28.179 27.1955 28.304C27.3205 28.429 27.4902 28.4991 27.667 28.4991ZM28.3335 23.1656H35.0001V27.1656H28.3335V23.1656Z" fill="#6C96F9"/>
<path d="M39.167 23.1661H45.8336C46.2019 23.1661 46.5001 22.8678 46.5001 22.4995C46.5001 22.1312 46.2019 21.833 45.8336 21.833H39.167C38.7987 21.833 38.5 22.1312 38.5 22.4995C38.5 22.8678 38.7987 23.1661 39.167 23.1661Z" fill="#6C96F9"/>
<path d="M39.167 25.8325H44.5403C44.9086 25.8325 45.2068 25.5338 45.2068 25.1655C45.2068 24.7977 44.9086 24.499 44.5403 24.499H39.167C38.7987 24.499 38.5 24.7977 38.5 25.1655C38.5 25.5339 38.7987 25.8325 39.167 25.8325Z" fill="#6C96F9"/>
<path d="M61.1015 24.499H47.3345C46.9662 24.499 46.668 24.7977 46.668 25.1655C46.668 25.5339 46.9662 25.8325 47.3345 25.8325H61.1015C61.4698 25.8325 61.7685 25.5338 61.7685 25.1655C61.7685 24.7977 61.4698 24.499 61.1015 24.499Z" fill="#6C96F9"/>
<path d="M39.167 28.499H55.9466C56.3149 28.499 56.6131 28.2003 56.6131 27.8325C56.6131 27.4642 56.3149 27.1655 55.9466 27.1655H39.167C38.7987 27.1655 38.5 27.4642 38.5 27.8325C38.5 28.2004 38.7987 28.499 39.167 28.499Z" fill="#6C96F9"/>
<path d="M61.0998 27.1665H57.94C57.5716 27.1665 57.2734 27.4652 57.2734 27.8335C57.2734 28.2013 57.5717 28.5 57.94 28.5H61.0998C61.4681 28.5 61.7667 28.2013 61.7667 27.8335C61.7667 27.4652 61.4681 27.1665 61.0998 27.1665Z" fill="#6C96F9"/>
<path d="M61.1005 42.499H27.667C27.2987 42.499 27 42.7977 27 43.1655C27 43.5339 27.2987 43.8325 27.667 43.8325H61.1005C61.4688 43.8325 61.7675 43.5338 61.7675 43.1655C61.7675 42.7977 61.4688 42.499 61.1005 42.499Z" fill="#6C96F9"/>
<path d="M27.667 40.4996H35.6671C35.8439 40.4996 36.0135 40.4295 36.1385 40.3045C36.2635 40.1795 36.3336 40.0099 36.3336 39.8331V34.4995C36.3336 34.3227 36.2635 34.1531 36.1385 34.0281C36.0135 33.9031 35.8439 33.833 35.6671 33.833H27.667C27.2987 33.833 27 34.1312 27 34.4995V39.8331C27 40.0099 27.0705 40.1795 27.1955 40.3045C27.3205 40.4295 27.4902 40.4996 27.667 40.4996ZM28.3335 35.1661H35.0001V39.1661H28.3335V35.1661Z" fill="#6C96F9"/>
<path d="M39.167 35.1665H45.8336C46.2019 35.1665 46.5001 34.8683 46.5001 34.5C46.5001 34.1317 46.2019 33.8335 45.8336 33.8335H39.167C38.7987 33.8335 38.5 34.1317 38.5 34.5C38.5 34.8683 38.7987 35.1665 39.167 35.1665Z" fill="#6C96F9"/>
<path d="M39.167 37.833H44.5403C44.9086 37.833 45.2068 37.5343 45.2068 37.166C45.2068 36.7982 44.9086 36.4995 44.5403 36.4995H39.167C38.7987 36.4995 38.5 36.7982 38.5 37.166C38.5 37.5343 38.7987 37.833 39.167 37.833Z" fill="#6C96F9"/>
<path d="M61.1015 36.499H47.3345C46.9662 36.499 46.668 36.7977 46.668 37.1655C46.668 37.5339 46.9662 37.8325 47.3345 37.8325H61.1015C61.4698 37.8325 61.7685 37.5338 61.7685 37.1655C61.7685 36.7977 61.4698 36.499 61.1015 36.499Z" fill="#6C96F9"/>
<path d="M39.167 40.4995H55.9466C56.3149 40.4995 56.6131 40.2008 56.6131 39.833C56.6131 39.4647 56.3149 39.166 55.9466 39.166H39.167C38.7987 39.166 38.5 39.4647 38.5 39.833C38.5 40.2008 38.7987 40.4995 39.167 40.4995Z" fill="#6C96F9"/>
<path d="M61.0998 39.167H57.94C57.5716 39.167 57.2734 39.4657 57.2734 39.834C57.2734 40.2018 57.5717 40.5005 57.94 40.5005H61.0998C61.4681 40.5005 61.7667 40.2018 61.7667 39.834C61.7667 39.4656 61.4681 39.167 61.0998 39.167Z" fill="#6C96F9"/>
<path d="M27.667 45.167C27.2987 45.167 27 45.4657 27 45.834V51.1675V51.1671C27 51.3439 27.0705 51.5135 27.1955 51.6385C27.3205 51.7635 27.4902 51.834 27.667 51.834H35.6671C35.8439 51.834 36.0135 51.7635 36.1385 51.6385C36.2635 51.5135 36.3336 51.3439 36.3336 51.1671V45.8335V45.834C36.3336 45.6572 36.2635 45.4875 36.1385 45.3625C36.0135 45.2375 35.8439 45.167 35.6671 45.167H27.667ZM35.0005 50.5005H28.3335V46.5005H35.0001L35.0005 50.5005Z" fill="#6C96F9"/>
<path d="M39.167 46.4995H45.8336C46.2019 46.4995 46.5001 46.2008 46.5001 45.833C46.5001 45.4647 46.2019 45.166 45.8336 45.166H39.167C38.7987 45.166 38.5 45.4647 38.5 45.833C38.5 46.2009 38.7987 46.4995 39.167 46.4995Z" fill="#6C96F9"/>
<path d="M39.167 49.167H44.5403C44.9086 49.167 45.2068 48.8688 45.2068 48.5005C45.2068 48.1322 44.9086 47.834 44.5403 47.834H39.167C38.7987 47.834 38.5 48.1322 38.5 48.5005C38.5 48.8688 38.7987 49.167 39.167 49.167Z" fill="#6C96F9"/>
<path d="M61.1015 47.833H47.3345C46.9662 47.833 46.668 48.1312 46.668 48.4995C46.668 48.8678 46.9662 49.1661 47.3345 49.1661H61.1015C61.4698 49.1661 61.7685 48.8678 61.7685 48.4995C61.7685 48.1312 61.4698 47.833 61.1015 47.833Z" fill="#6C96F9"/>
<path d="M39.167 51.833H55.9466C56.3149 51.833 56.6131 51.5343 56.6131 51.166C56.6131 50.7982 56.3149 50.4995 55.9466 50.4995H39.167C38.7987 50.4995 38.5 50.7982 38.5 51.166C38.5 51.5343 38.7987 51.833 39.167 51.833Z" fill="#6C96F9"/>
<path d="M61.0998 50.499H57.94C57.5716 50.499 57.2734 50.7977 57.2734 51.1655C57.2734 51.5339 57.5717 51.8325 57.94 51.8325H61.0998C61.4681 51.8325 61.7667 51.5338 61.7667 51.1655C61.7667 50.7977 61.4681 50.499 61.0998 50.499Z" fill="#6C96F9"/>
</g>
<defs>
<clipPath id="clip0_792_98346">
<rect width="55" height="60" fill="white" transform="translate(17 15)"/>
</clipPath>
</defs>
</svg>
