<svg width="88" height="89" viewBox="0 0 88 89" fill="none" xmlns="http://www.w3.org/2000/svg">
<path d="M24.0915 64.4789V64.41L24.0491 64.3557L16.4205 54.6011C16.2939 54.3475 16.2 54.1466 16.2 53.9569V42.057C16.2 40.038 17.8641 38.3738 19.8831 38.3738C21.9021 38.3738 23.5663 40.038 23.5663 42.057V49.4474V49.5256L23.6193 49.5831L25.1225 51.2115L25.3188 51.4243L25.4483 51.1653C25.5735 50.9149 25.6866 50.691 25.9119 50.4657L25.9183 50.4593L25.9241 50.4523C27.109 49.0304 29.2382 48.7979 30.6529 49.9769L30.6546 49.9783L34.0344 52.7322C35.8721 54.3259 36.9694 56.5263 36.9694 58.9674V66.4831V66.6831H37.1694H37.2946C37.625 66.6831 37.8847 66.7924 38.0613 66.969C38.238 67.1457 38.3472 67.4054 38.3472 67.7358V73.2473C38.3472 73.5776 38.238 73.8374 38.0613 74.014C37.8847 74.1907 37.625 74.2999 37.2946 74.2999H23.8915C23.5612 74.2999 23.3015 74.1907 23.1248 74.014C22.9481 73.8374 22.8389 73.5776 22.8389 73.2473V67.7358C22.8389 67.4054 22.9481 67.1457 23.1248 66.969C23.3015 66.7924 23.5612 66.6831 23.8915 66.6831H24.0915V66.4831V64.4789ZM24.9449 71.8701V72.0701H25.1449H35.7174H35.9174H36.0427V71.8701H36.1174V68.8638V68.6638H35.9174H25.1449H24.9449V68.8638V71.8701ZM27.1205 55.902L21.9042 50.8099C21.9039 50.8096 21.9036 50.8093 21.9034 50.809C21.7904 50.6959 21.7135 50.5906 21.6637 50.4786C21.6142 50.3672 21.587 50.239 21.587 50.0745V42.1829C21.587 41.3209 20.8711 40.6051 20.0091 40.6051C19.1471 40.6051 18.4312 41.3209 18.4312 42.1829V53.7071V53.776L18.4737 53.8303L26.1023 63.5849C26.2289 63.8386 26.3228 64.0394 26.3228 64.2291V66.6091V66.8091H26.5228H34.7901H34.9901V66.6091V59.0934C34.9901 57.4037 34.2106 55.7189 32.7873 54.5544L32.787 54.5541L29.4049 51.7984L29.405 51.7982L29.3985 51.7934C29.1171 51.5823 28.7896 51.4687 28.4682 51.4876C28.1425 51.5067 27.8381 51.6618 27.6154 51.9587C27.1704 52.552 27.3249 53.2889 27.7592 53.7232L27.759 53.7234L27.7669 53.7305L29.0154 54.8542C29.4348 55.2771 29.4336 55.8997 29.0119 56.3214C28.5889 56.7444 27.964 56.7444 27.541 56.3214L27.3361 56.1166C27.3274 56.0856 27.314 56.0561 27.2959 56.029C27.2607 55.9762 27.2153 55.9435 27.1759 55.9238C27.1564 55.9141 27.1376 55.9071 27.1205 55.902Z" fill="#6C96F9" stroke="#F5F8FF" stroke-width="0.4"/>
<path d="M65.3622 49.5944L65.4265 49.535V49.4474V42.057C65.4265 40.038 67.0907 38.3738 69.1097 38.3738C71.1287 38.3738 72.7928 40.038 72.7928 42.057V53.9569C72.7928 54.1464 72.6991 54.3471 72.5727 54.6004L64.8195 64.3545L64.776 64.4091V64.4789V66.3579V66.5579H64.976C65.3064 66.5579 65.5661 66.6671 65.7427 66.8438C65.9194 67.0204 66.0286 67.2802 66.0286 67.6105V73.122C66.0286 73.4524 65.9194 73.7121 65.7427 73.8888C65.5661 74.0654 65.3064 74.1747 64.976 74.1747H51.5729C51.2426 74.1747 50.9829 74.0654 50.8062 73.8888C50.6296 73.7121 50.5203 73.4524 50.5203 73.122V67.6105C50.5203 67.2802 50.6296 67.0204 50.8062 66.8438C50.9829 66.6671 51.2426 66.5579 51.5729 66.5579H51.6982H51.8982V66.3579V58.8421C51.8982 56.401 52.9955 54.2006 54.8332 52.6069L58.2098 49.8556C59.6368 48.7879 61.7669 48.9152 62.9434 50.3271L62.9492 50.334L62.9557 50.3404C63.181 50.5657 63.294 50.7896 63.4192 51.04L63.5383 51.2781L63.7338 51.0976L65.3622 49.5944ZM52.7508 71.8701V72.0701H52.9508H63.5234H63.7234H63.8487V71.8701H63.9234V68.8638V68.6638H63.7234H52.9508H52.7508V68.8638V71.8701ZM54.0034 66.3586V66.5586H54.2034H62.4708H62.6708V66.3586V63.9786C62.6708 63.7893 62.7643 63.5888 62.8905 63.3358L70.7684 53.5822L70.8128 53.5272V53.4566V41.9324C70.8128 41.0704 70.097 40.3545 69.2349 40.3545C68.3729 40.3545 67.6571 41.0704 67.6571 41.9324V49.824C67.6571 50.0243 67.5512 50.3464 67.3422 50.557L61.8334 55.6902L61.7697 55.7495V55.7618H61.7616L61.703 55.8204L61.4525 56.0709C61.0296 56.4939 60.4046 56.4939 59.9817 56.0709C59.5599 55.6492 59.5587 55.0266 59.9781 54.6037L61.2203 53.4857C61.8163 53.0313 61.815 52.1422 61.3596 51.6867C60.9252 51.2524 60.1884 51.0979 59.595 51.5429L59.5949 51.5428L59.5887 51.5478L56.2108 54.3002C54.7783 55.3443 54.0034 57.0345 54.0034 58.8428V66.3586Z" fill="#6C96F9" stroke="#F5F8FF" stroke-width="0.4"/>
<path d="M38.7429 34.3389L38.7431 34.3389L38.7452 34.3285L39.622 29.8191L39.6428 29.7122L39.5643 29.6367L36.3075 26.5052L36.2946 26.4928L36.2798 26.4829C35.9973 26.2946 35.8747 25.8948 35.9871 25.4452C36.0868 25.0463 36.3774 24.8325 36.8335 24.7165L41.3321 24.0917L41.4364 24.0772L41.4835 23.983L43.4877 19.9746L43.488 19.9748L43.4926 19.964C43.6395 19.6213 44.0191 19.4275 44.4362 19.4275C44.8533 19.4275 45.2329 19.6213 45.3797 19.964L45.3794 19.9641L45.3847 19.9746L47.3888 23.983L47.4359 24.0772L47.5402 24.0917L52.0389 24.7165C52.4949 24.8325 52.7855 25.0463 52.8853 25.4452L52.8871 25.4527L52.8895 25.46C52.9863 25.7502 52.8952 26.1739 52.5634 26.5066L49.308 29.6367L49.2296 29.7122L49.2503 29.8191L50.1272 34.3285L50.1269 34.3286L50.1295 34.3389C50.2304 34.7426 50.0312 35.1575 49.7213 35.3699C49.4648 35.4981 49.2621 35.5935 49.0709 35.5935C48.9419 35.5935 48.8318 35.5931 48.739 35.5798C48.6437 35.5662 48.6025 35.5433 48.586 35.5268L48.5648 35.5056L48.5384 35.4916L44.53 33.3621L44.4362 33.3123L44.3423 33.3621L40.3363 35.4904C39.9183 35.6983 39.4955 35.5997 39.1608 35.3766C38.8454 35.1662 38.6409 34.7468 38.7429 34.3389ZM42.3067 26.0735H42.2972L42.2878 26.0745L39.6572 26.325L39.2345 26.3652L39.5348 26.6655L41.4137 28.5444C41.5185 28.6492 41.6287 28.8131 41.6973 28.9915C41.7669 29.1725 41.7834 29.3405 41.7412 29.4671L41.737 29.4798L41.7345 29.493L41.2334 32.1235L41.1557 32.5312L41.523 32.3379L43.9011 31.0862C44.0124 31.0308 44.0867 31.0075 44.1559 30.9959C44.2304 30.9835 44.307 30.983 44.4362 30.983C44.5651 30.983 44.6752 30.9834 44.768 30.9966C44.8634 31.0103 44.9046 31.0332 44.9211 31.0497L44.9425 31.0711L44.9693 31.0852L47.3493 32.3379L47.7166 32.5312L47.6389 32.1235L47.1415 29.5121C47.1435 29.3482 47.1718 29.1565 47.2265 28.9785C47.2842 28.7911 47.3655 28.6376 47.4586 28.5444L49.3376 26.6655L49.6204 26.3827L49.2244 26.3261L46.5939 25.9503L46.5798 25.9483H46.5656C46.1309 25.9483 45.8455 25.7356 45.7533 25.4587L45.7495 25.4473L45.7443 25.4364L44.6169 23.0564L44.4315 22.665L44.2538 23.0599L43.1415 25.5317C43.0208 25.6522 42.884 25.7857 42.7371 25.8926C42.5764 26.0094 42.431 26.0735 42.3067 26.0735Z" fill="#6C96F9" stroke="#F5F8FF" stroke-width="0.4"/>
<path d="M32.59 41.9732L32.5512 41.89L32.4629 41.8652L28.4594 40.7392C28.3082 40.6879 28.1477 40.5828 28.0094 40.4445C27.8699 40.3049 27.7641 40.1427 27.7133 39.9903C27.6202 39.7111 27.6972 39.4112 28.0407 39.0676L28.0465 39.0619L28.0517 39.0557L32.3106 34.0452L32.3963 33.9445L32.3371 33.8262C31.473 32.098 30.9804 30.2495 30.9804 28.1536C30.9804 20.7483 37.0287 14.7 44.434 14.7C51.8358 14.7 57.8901 20.7458 58.2634 28.1586C58.2625 30.1286 57.7695 32.1004 56.9066 33.8262L56.8475 33.9445L56.9331 34.0452L61.192 39.0557L61.1972 39.0619L61.203 39.0676C61.2955 39.1602 61.3749 39.3112 61.4157 39.4879C61.4563 39.6637 61.4538 39.8444 61.4052 39.9903C61.3544 40.1427 61.2486 40.3049 61.109 40.4445C60.9707 40.5828 60.8103 40.6879 60.6591 40.7392L56.6555 41.8652L56.5672 41.89L56.5284 41.9732L54.7813 45.717C54.665 45.8894 54.5243 46.0556 54.3753 46.1775C54.22 46.3046 54.0761 46.3672 53.9539 46.3672H53.8286C53.4955 46.3672 53.1781 46.2565 52.9734 46.0554L48.72 41.0514L48.6354 40.9518L48.5102 40.9893C47.2719 41.3608 45.9137 41.6072 44.5592 41.6072C43.2048 41.6072 41.8465 41.3608 40.6083 40.9893L40.4831 40.9518L40.3984 41.0514L36.145 46.0554C35.9403 46.2565 35.6229 46.3672 35.2898 46.3672H35.1897C34.7301 46.2475 34.4441 46.0283 34.3522 45.7524L34.3485 45.7415L34.3437 45.731L32.59 41.9732ZM58.0165 39.2437L58.3119 39.1594L58.1152 38.9234L55.61 35.9171L55.4416 35.7151L55.2919 35.9313C54.1848 37.5305 52.5809 38.8895 50.8477 39.8799L50.636 40.0008L50.796 40.1848L53.3012 43.0658L53.5063 43.3016L53.6345 43.0166L54.7601 40.5153C54.8625 40.313 55.0702 40.102 55.3904 39.9941L58.0165 39.2437ZM33.5687 36.0492L33.4164 35.8512L33.2565 36.0431L30.7513 39.0494L30.5546 39.2853L30.85 39.3697L33.4805 40.1213L33.5074 40.129H33.5354C33.7962 40.129 33.9888 40.2931 34.0973 40.6186L34.1005 40.6282L34.1046 40.6374L35.232 43.1426L35.3602 43.4276L35.5653 43.1918L38.0705 40.3108L38.2305 40.1268L38.0188 40.0059C36.2912 39.0187 34.8074 37.6596 33.5687 36.0492ZM55.7816 28.1536C55.7816 21.9053 50.6816 16.8052 44.4332 16.8052C38.1849 16.8052 33.0849 21.9053 33.0849 28.1536C33.0849 34.4019 38.1849 39.502 44.4332 39.502C50.6816 39.502 55.7816 34.4019 55.7816 28.1536Z" fill="#6C96F9" stroke="#F5F8FF" stroke-width="0.4"/>
</svg>
