<svg width="40" height="40" viewBox="0 0 40 40" fill="none" xmlns="http://www.w3.org/2000/svg">
<path fill-rule="evenodd" clip-rule="evenodd" d="M36.0487 29.3623L30.8865 25.3467C29.185 24.0237 26.7653 24.1744 25.2431 25.6982L23.718 27.2221C18.0943 26.2408 14.6855 22.3477 12.9823 16.1341C12.9823 16.1329 14.331 14.7858 14.331 14.7858C15.8546 13.2619 16.0042 10.8427 14.6826 9.14235L10.667 3.97863C9.91362 3.01166 8.783 2.41381 7.55947 2.33813C6.33634 2.26121 5.14023 2.71417 4.27303 3.58006C3.41291 4.44148 2.45295 5.40144 1.66973 6.18304C0.315587 7.5375 -0.268269 9.48119 0.115978 11.3579C0.117567 11.3595 0.117567 11.3608 0.117567 11.3624C3.37731 26.9324 12.8623 36.4539 28.6407 39.8732C28.6422 39.8732 28.6435 39.8732 28.6451 39.8745C30.5262 40.2763 32.4827 39.6994 33.8457 38.3424C34.6346 37.5678 35.5902 36.6123 36.4475 35.755C37.3134 34.8891 37.766 33.6914 37.6906 32.4695C37.6137 31.2464 37.017 30.1145 36.0485 29.3623L36.0487 29.3623ZM29.1379 27.5949L34.3013 31.6109C34.6233 31.8617 34.8226 32.239 34.8484 32.6462C34.8738 33.0534 34.7228 33.4523 34.4339 33.7413C33.5823 34.5928 32.6338 35.5413 31.8493 36.3119C31.8464 36.3144 31.8436 36.3173 31.8407 36.3201C31.1599 37.001 30.1818 37.2899 29.2403 37.0894C14.6793 33.932 5.91614 25.1527 2.90613 10.7845C2.71509 9.84619 3.00721 8.87475 3.68363 8.19837L6.28661 5.59539C6.57587 5.30613 6.97447 5.15547 7.38328 5.18089C7.79047 5.20663 8.16777 5.40466 8.4186 5.72794L12.4342 10.8913C12.8745 11.4581 12.8246 12.2642 12.3176 12.7725L10.3938 14.6949C10.0419 15.0468 9.89953 15.5567 10.0178 16.0407C12.0328 24.2904 16.5598 29.1842 24.0344 30.1501C24.4715 30.207 24.9114 30.0573 25.2232 29.7442L27.2569 27.7121C27.7639 27.2035 28.5712 27.1539 29.138 27.5951L29.1379 27.5949ZM19.9444 8.54456C26.2314 8.54456 31.3367 13.6498 31.3367 19.9369C31.3367 20.723 31.9746 21.3609 32.7607 21.3609C33.5468 21.3609 34.1847 20.723 34.1847 19.9369C34.1847 12.0776 27.8036 5.69648 19.9444 5.69648C19.1583 5.69648 18.5203 6.33443 18.5203 7.12052C18.5203 7.90661 19.1583 8.54456 19.9444 8.54456ZM19.9444 13.7578C23.355 13.7578 26.1234 16.5262 26.1234 19.9369C26.1234 20.723 26.7613 21.3609 27.5474 21.3609C28.3335 21.3609 28.9715 20.723 28.9715 19.9369C28.9715 14.954 24.9273 10.9101 19.9447 10.9101C19.1586 10.9101 18.5206 11.548 18.5206 12.3341C18.5206 13.1202 19.1586 13.7582 19.9447 13.7582L19.9444 13.7578ZM19.9444 2.84808C29.3756 2.84808 37.0328 10.5052 37.0328 19.9365C37.0328 20.7226 37.6708 21.3606 38.4569 21.3606C39.2429 21.3606 39.8809 20.7226 39.8809 19.9365C39.8809 8.9332 30.9477 0 19.9444 0C19.1583 0 18.5203 0.637953 18.5203 1.42404C18.5203 2.21012 19.1583 2.84808 19.9444 2.84808Z" fill="#6C96F9"/>
</svg>
