<svg width="88" height="89" viewBox="0 0 88 89" fill="none" xmlns="http://www.w3.org/2000/svg">
<path d="M73.1169 40.5624L69.5172 39.5527V39.5522C69.2873 38.3509 68.9717 37.1671 68.5731 36.0105L71.1729 33.3456V33.346C71.4608 33.0527 71.5403 32.6135 71.3729 32.238C70.5327 30.3637 69.5025 28.5802 68.2981 26.9166C68.0575 26.584 67.6379 26.4327 67.2401 26.5345L63.6333 27.4585C62.8316 26.5353 61.9655 25.6698 61.0428 24.8676L61.9669 21.2607H61.9664C62.0691 20.863 61.9173 20.443 61.5848 20.2019C59.9207 18.9966 58.1377 17.965 56.2629 17.1239C55.8879 16.9565 55.4482 17.036 55.1549 17.3239L52.4899 19.9237H52.4904C51.3333 19.5251 50.1495 19.2095 48.9478 18.9801L47.938 15.3803H47.9376C47.8269 14.9848 47.4854 14.6973 47.0765 14.6553C45.0307 14.4482 42.9692 14.4482 40.9233 14.6553C40.5144 14.6973 40.1729 14.9848 40.0622 15.3803L39.0524 18.9801H39.052C37.8507 19.2095 36.6669 19.5251 35.5103 19.9237L32.8453 17.3239H32.8458C32.5525 17.036 32.1132 16.9565 31.7378 17.1239C29.863 17.9649 28.08 18.9966 26.4163 20.2019C26.0838 20.4425 25.9324 20.8621 26.0342 21.2599L26.9583 24.8667C26.0351 25.6684 25.1696 26.5345 24.3674 27.4571L20.7605 26.5331V26.5336C20.3628 26.4295 19.9423 26.5813 19.7025 26.9152C18.4973 28.5793 17.4657 30.3623 16.625 32.2371C16.4577 32.6121 16.5367 33.0518 16.825 33.3451L19.4249 36.0101V36.0096C19.0258 37.1667 18.7106 38.3505 18.4807 39.5522L14.881 40.562V40.5624C14.4855 40.6731 14.198 41.0146 14.156 41.4235C13.948 43.4689 13.948 45.5304 14.156 47.5758C14.1975 47.9851 14.485 48.3271 14.881 48.4378L18.4807 49.4466C18.7102 50.6488 19.0258 51.8327 19.4249 52.9897L16.825 55.6547V55.6542C16.5367 55.9475 16.4577 56.3868 16.625 56.7622C17.4656 58.6366 18.4963 60.42 19.7016 62.0837C19.9422 62.4162 20.3619 62.5676 20.7596 62.4658L24.3664 61.5417C25.1682 62.4649 26.0342 63.3304 26.9569 64.1326L26.0328 67.7395H26.0333C25.9311 68.1372 26.0828 68.5564 26.415 68.7974C28.0791 70.0027 29.862 71.0343 31.7369 71.875C32.1119 72.0424 32.5516 71.9633 32.8448 71.675L35.5098 69.0751H35.5094C36.6664 69.4742 37.8502 69.7894 39.052 70.0193L40.0617 73.619H40.0622C40.1729 74.0145 40.5144 74.302 40.9233 74.344C42.9686 74.552 45.0302 74.552 47.0755 74.344C47.4849 74.3025 47.8268 74.015 47.9375 73.619L48.9464 70.0193C50.1486 69.7889 51.3324 69.4733 52.4895 69.0743L55.1544 71.6741H55.154C55.4473 71.962 55.8865 72.0415 56.2619 71.8741C58.1363 71.0335 59.9197 70.0032 61.5834 68.7984C61.916 68.5578 62.0673 68.1382 61.9655 67.7404L61.0415 64.1336C61.9646 63.3319 62.8302 62.4658 63.6324 61.5431L67.2392 62.4672V62.4667C67.637 62.569 68.0561 62.4172 68.2972 62.0851C69.5025 60.4209 70.5341 58.638 71.3747 56.7631C71.5421 56.3882 71.4631 55.9485 71.1747 55.6552L68.5749 52.9902V52.9907C68.974 51.8336 69.2891 50.6498 69.519 49.4481L73.1188 48.4383V48.4379C73.5143 48.3272 73.8018 47.9857 73.8437 47.5768C74.0518 45.5309 74.0518 43.4695 73.8437 41.4236C73.8018 41.0142 73.5129 40.6727 73.1169 40.5624ZM71.917 46.699L68.3824 47.6918H68.382C68.0083 47.7967 67.7293 48.1087 67.6659 48.4918C67.416 49.9926 67.0231 51.4656 66.4923 52.8915C66.357 53.2539 66.4432 53.6615 66.7133 53.9383L69.2711 56.5582C68.6377 57.8799 67.9021 59.1505 67.0713 60.3579L63.5247 59.45H63.5242C63.1493 59.3526 62.752 59.4821 62.5065 59.7821C61.5364 60.9553 60.457 62.0342 59.2835 63.0037C58.9848 63.2505 58.8558 63.6474 58.9518 64.0228L59.8598 67.5694C58.6528 68.4011 57.3822 69.1368 56.06 69.7693L53.4401 67.2114C53.1638 66.94 52.7553 66.8538 52.3933 66.9904C50.9671 67.5212 49.494 67.9145 47.9936 68.1653C47.6106 68.2287 47.2986 68.5077 47.1937 68.8813L46.1995 72.412C44.7354 72.5271 43.264 72.5271 41.7998 72.412L40.807 68.8773C40.7017 68.5037 40.3901 68.2247 40.0071 68.1613C38.5063 67.9113 37.0332 67.5181 35.6074 66.9873C35.2449 66.8507 34.8365 66.9369 34.5601 67.2083L31.9402 69.7662H31.9407C30.6185 69.1332 29.3479 68.3975 28.1409 67.5663L29.0489 64.0197C29.1444 63.6448 29.015 63.2484 28.7168 63.0019C27.5454 62.0319 26.4687 60.9534 25.5009 59.7811C25.254 59.4825 24.8572 59.353 24.4817 59.449L20.9351 60.357C20.1039 59.1495 19.3683 57.879 18.7353 56.5573L21.2932 53.9373C21.5632 53.6606 21.6489 53.253 21.5141 52.8905C20.9834 51.4647 20.5901 49.9916 20.3402 48.4908C20.2772 48.1078 19.9982 47.7958 19.6246 47.6909L16.0878 46.6999C16.0298 45.9669 16.0016 45.229 16.0016 44.5C16.0016 43.771 16.0298 43.0331 16.0878 42.3002L19.6224 41.3074C19.996 41.202 20.275 40.8904 20.3384 40.5074C20.5884 39.0066 20.9817 37.5336 21.5124 36.1077C21.6472 35.7453 21.5611 35.3377 21.2914 35.0605L18.7336 32.441C19.3666 31.1188 20.1023 29.8483 20.9334 28.6413L24.48 29.5492C24.855 29.6448 25.2514 29.5153 25.4978 29.2171C26.4678 28.0458 27.5463 26.969 28.7186 26.0012C29.0173 25.7544 29.1467 25.3575 29.0507 24.9821L28.1428 21.4355C29.3502 20.6043 30.6208 19.8686 31.9425 19.2356L34.5624 21.7935C34.8383 22.0649 35.2472 22.1511 35.6092 22.0145C37.0351 21.4842 38.5086 21.0909 40.0089 20.8405C40.3919 20.7776 40.704 20.4986 40.8089 20.1249L41.7999 16.5881C43.264 16.473 44.7355 16.473 46.1996 16.5881L47.1924 20.1228C47.2977 20.4964 47.6093 20.7754 47.9923 20.8388C49.4931 21.0888 50.9662 21.482 52.392 22.0128C52.7545 22.1493 53.1629 22.0632 53.4393 21.7918L56.0592 19.2339H56.0588C57.381 19.8669 58.6515 20.6026 59.8585 21.4338L58.9505 24.9804C58.855 25.3553 58.9845 25.7517 59.2826 25.9981C60.4558 26.9682 61.5347 28.0476 62.5043 29.2211C62.7511 29.5198 63.148 29.6492 63.5234 29.5528L67.07 28.6448V28.6453C67.9016 29.8523 68.6373 31.1228 69.2698 32.445L66.712 35.0649V35.0645C66.4423 35.3417 66.3562 35.7493 66.491 36.1118C67.0218 37.5376 67.4146 39.0106 67.665 40.5115C67.7284 40.8945 68.0074 41.206 68.381 41.3114L71.9156 42.3042C71.9736 43.0363 72.0018 43.7741 72.0018 44.504C72.0018 45.2339 71.9696 45.9669 71.9116 46.6999L71.917 46.699Z" fill="#6C96F9"/>
<path d="M43.9984 24.502C38.6943 24.502 33.6076 26.609 29.8577 30.3596C26.1071 34.1098 24 39.1965 24 44.5004C24 49.8042 26.1071 54.8912 29.8577 58.6411C33.6078 62.3917 38.6945 64.4988 43.9984 64.4988C49.3023 64.4988 54.3892 62.3917 58.1391 58.6411C61.8898 54.891 63.9968 49.8042 63.9968 44.5004C63.9906 39.1981 61.8818 34.1149 58.1325 30.3665C54.3836 26.6171 49.3006 24.5084 43.9986 24.5022L43.9984 24.502ZM61.9457 45.5005C61.7243 49.5717 60.1196 53.4455 57.3969 56.4806L55.31 54.3999L53.8972 55.8127L55.9778 57.8997C52.9427 60.6222 49.0689 62.227 44.9978 62.4485V59.4996H42.9979V62.4485C38.9268 62.2271 35.053 60.6223 32.0179 57.8997L34.0985 55.8127L32.6857 54.3999L30.6037 56.4819C27.8793 53.4468 26.2728 49.573 26.0499 45.5005H28.9989V43.5007H26.0499C26.2727 39.4286 27.8793 35.5548 30.6037 32.5206L32.6857 34.6013L34.0985 33.1884L32.0165 31.1064C35.0516 28.382 38.9254 26.7755 42.9979 26.5527V29.5016H44.9978V26.5527C49.0698 26.7754 52.9436 28.382 55.9778 31.1064L53.8972 33.1884L55.31 34.6013L57.3969 32.5206C60.1195 35.5557 61.7243 39.4295 61.9457 43.5007H58.9968V45.5005H61.9457Z" fill="#6C96F9"/>
<path d="M51.4443 35.6692L44.1877 40.5078C44.1247 40.5011 44.0627 40.5011 43.9997 40.5011C42.9391 40.5011 41.9217 40.9225 41.1713 41.6724C40.4214 42.4228 40 43.4402 40 44.5008C40 45.5614 40.4214 46.5788 41.1713 47.3292C41.9217 48.0791 42.9391 48.5005 43.9997 48.5005C45.0603 48.5005 46.0778 48.0791 46.8281 47.3292C47.5781 46.5788 47.9995 45.5614 47.9995 44.5008C47.9995 44.4387 47.9995 44.3758 47.9923 44.3137L52.8308 37.0562H52.8313C53.096 36.6598 53.0438 36.1312 52.7067 35.7938C52.3693 35.4567 51.8407 35.4045 51.4443 35.6692ZM46.1236 43.5115V43.512C45.9866 43.7258 45.9321 43.9825 45.9696 44.2338C45.9861 44.3218 45.996 44.411 45.9995 44.5008C45.9995 45.0311 45.7888 45.54 45.4139 45.915C45.0389 46.2899 44.53 46.5006 43.9997 46.5006C43.4694 46.5006 42.9605 46.2899 42.5855 45.915C42.2105 45.54 41.9998 45.0311 41.9998 44.5008C41.9998 43.9704 42.2105 43.4615 42.5855 43.0866C42.9605 42.7116 43.4694 42.5009 43.9997 42.5009C44.0956 42.5049 44.1912 42.5161 44.2858 42.5339C44.5304 42.5692 44.7795 42.5134 44.9858 42.3768L48.3904 40.1069L46.1236 43.5115Z" fill="#6C96F9"/>
</svg>
