<svg width="51" height="46" viewBox="0 0 51 46" fill="none" xmlns="http://www.w3.org/2000/svg">
<g clip-path="url(#clip0_271_9871)">
<path fill-rule="evenodd" clip-rule="evenodd" d="M10.0928 0.721014L0.97608 20.5334C0.941388 20.6071 0.930394 20.6903 0.944706 20.7709C0.959019 20.8516 0.997886 20.9253 1.05562 20.9815L25.6778 45.3918C25.7477 45.4612 25.8409 45.5 25.9378 45.5C26.0347 45.5 26.1278 45.4612 26.1978 45.3918L50.8199 20.983C50.8777 20.9268 50.9165 20.8531 50.9309 20.7725C50.9452 20.6918 50.9342 20.6086 50.8995 20.5349L41.7827 0.722538C41.7533 0.655999 41.706 0.599633 41.6464 0.560175C41.5869 0.520717 41.5176 0.499837 41.4469 0.500029H10.4316C10.3606 0.499115 10.2908 0.519492 10.2307 0.558703C10.1705 0.597915 10.1227 0.654285 10.0928 0.721014Z" fill="#50AF95"/>
<path fill-rule="evenodd" clip-rule="evenodd" d="M29.1013 22.5679C28.9245 22.5817 28.0112 22.638 25.974 22.638C24.3536 22.638 23.2031 22.5878 22.7995 22.5679C16.5376 22.2829 11.8635 21.1552 11.8635 19.8049C11.8635 18.4546 16.5376 17.3283 22.7995 17.0388V21.4447C23.209 21.4752 24.3816 21.5468 26.002 21.5468C27.9464 21.5468 28.9201 21.463 29.0954 21.4463V17.0418C35.3441 17.3298 40.0078 18.4576 40.0078 19.8049C40.0078 21.1521 35.3456 22.2799 29.0954 22.5664L29.1013 22.5679ZM29.1013 16.5861V12.6435H37.8218V6.63116H14.079V12.6435H22.7981V16.5846C15.7112 16.9214 10.3817 18.3738 10.3817 20.1143C10.3817 21.8547 15.7112 23.3056 22.7981 23.6439V36.2781H29.0998V23.6393C36.1705 23.3025 41.4912 21.8516 41.4912 20.1127C41.4912 18.3738 36.1749 16.9229 29.0998 16.5846L29.1013 16.5861Z" fill="white"/>
</g>
<defs>
<clipPath id="clip0_271_9871">
<rect width="50" height="45" fill="white" transform="translate(0.937866 0.5)"/>
</clipPath>
</defs>
</svg>
