<svg width="17" height="16" viewBox="0 0 17 16" fill="none" xmlns="http://www.w3.org/2000/svg">
<path fill-rule="evenodd" clip-rule="evenodd" d="M14.9109 4.26025H14.8129V4.20878H3.61803C2.34645 4.20878 1.3204 5.30907 1.3204 6.67084V8.92495L0.390923 5.15142C0.147028 4.3129 0.636182 3.36908 1.46635 3.15996L12.3202 0.0673189C13.1024 -0.194154 13.9817 0.330255 14.1778 1.22114L14.9109 4.26025ZM3.57016 5.09826H14.8142C15.6454 5.09826 16.3305 5.83179 16.3294 6.72296V14.3753C16.3294 15.2653 15.6454 16 14.8142 16H3.57016C2.7389 16 2.05469 15.2665 2.05469 14.3753V6.72296C2.05469 5.83179 2.7389 5.09826 3.57016 5.09826ZM14.8152 14.9011C15.0591 14.9011 15.3032 14.6908 15.3032 14.3767H15.3521V12.4378H3.08203V14.3767C3.08203 14.6384 3.27709 14.9011 3.57009 14.9011H14.8152ZM3.08203 8.66256H15.3032V6.72374C15.3032 6.46197 15.1082 6.2005 14.8141 6.2005H3.57009C3.32593 6.2005 3.08203 6.40962 3.08203 6.72374V8.66256Z" fill="#4A90E2"/>
</svg>
