<svg width="17" height="16" viewBox="0 0 17 16" fill="none" xmlns="http://www.w3.org/2000/svg">
<path fill-rule="evenodd" clip-rule="evenodd" d="M8.17888 2.92792L1.61434 8.00989L0.558615 6.59672C0.483302 6.49588 0.450396 6.36873 0.467177 6.2432C0.483927 6.1177 0.549021 6.00407 0.648084 5.92741L8.17888 0.0974392C8.34672 -0.0324797 8.57907 -0.0324797 8.74694 0.0974392L16.2777 5.92741C16.3767 6.00407 16.4418 6.1177 16.4586 6.2432C16.4754 6.36876 16.4425 6.49588 16.3672 6.59676L15.3115 8.00989L8.74694 2.92792C8.57907 2.798 8.34672 2.798 8.17888 2.92792ZM8.87429 12.3691C8.87429 13.2646 9.58994 13.9932 10.4697 13.9932C11.3493 13.9932 12.065 13.2646 12.065 12.3691C12.065 11.4736 11.3494 10.7451 10.4697 10.7451C9.58994 10.7451 8.87429 11.4736 8.87429 12.3691ZM6.75925 13.9298C6.83288 13.9728 6.91313 13.9933 6.99235 13.9933C7.15494 13.9933 7.313 13.9071 7.39975 13.7533L10.34 8.53752C10.469 8.3087 10.3914 8.0168 10.1666 7.88551C9.94182 7.75426 9.65507 7.83324 9.5261 8.06207L6.58581 13.2778C6.45685 13.5066 6.53447 13.7985 6.75925 13.9298ZM6.45619 7.82214C5.5765 7.82214 4.86081 8.55069 4.86081 9.44619C4.86081 10.3417 5.5765 11.0702 6.45619 11.0702C7.33591 11.0702 8.05157 10.3417 8.05157 9.44619C8.05157 8.55069 7.33591 7.82214 6.45619 7.82214ZM2.7134 15.5223V8.35915L8.46291 3.90816L14.2122 8.359V15.5223C14.2122 15.7861 14.0021 16 13.743 16H3.18262C2.92349 16 2.7134 15.7861 2.7134 15.5223ZM10.4695 11.7012C10.1072 11.7012 9.8125 12.0012 9.8125 12.3699C9.8125 12.7387 10.1072 13.0387 10.4695 13.0387C10.8317 13.0387 11.1264 12.7387 11.1264 12.3699C11.1264 12.0012 10.8317 11.7012 10.4695 11.7012ZM5.79883 9.44609C5.79883 9.07736 6.09352 8.77734 6.45577 8.77734C6.81799 8.77734 7.11274 9.07736 7.11274 9.44609C7.11274 9.81485 6.81802 10.1149 6.45577 10.1149C6.09352 10.1149 5.79883 9.81485 5.79883 9.44609Z" fill="#4A90E2"/>
</svg>
