<svg width="22" height="17" viewBox="0 0 22 17" fill="none" xmlns="http://www.w3.org/2000/svg">
<path d="M10.6989 0.363635V5.47727C10.6989 6.86932 10.4148 8.26136 9.84659 9.65341C9.29261 11.0312 8.58239 12.3168 7.71591 13.5099C6.86364 14.6889 5.98295 15.6761 5.07386 16.4716L0.215909 14C0.8125 12.9773 1.34517 11.7912 1.81392 10.4418C2.28267 9.09233 2.51705 7.4375 2.51705 5.47727V0.363635H10.6989ZM21.267 0.363635V5.47727C21.267 6.86932 20.983 8.26136 20.4148 9.65341C19.8608 11.0312 19.1506 12.3168 18.2841 13.5099C17.4318 14.6889 16.5511 15.6761 15.642 16.4716L10.7841 14C11.3807 12.9773 11.9134 11.7912 12.3821 10.4418C12.8509 9.09233 13.0852 7.4375 13.0852 5.47727V0.363635H21.267Z" fill="#4AD1A9"/>
</svg>
