<svg width="19" height="18" viewBox="0 0 19 18" fill="none" xmlns="http://www.w3.org/2000/svg">
<path d="M17.077 8.28744L10.1845 15.1799C9.34016 16.0243 8.19493 16.4987 7.00079 16.4987C5.80666 16.4987 4.66143 16.0243 3.81704 15.1799C2.97266 14.3356 2.49829 13.1903 2.49829 11.9962C2.49829 10.8021 2.97266 9.65682 3.81704 8.81244L10.7095 1.91994C11.2725 1.35702 12.036 1.04077 12.832 1.04077C13.6281 1.04077 14.3916 1.35702 14.9545 1.91994C15.5175 2.48286 15.8337 3.24635 15.8337 4.04244C15.8337 4.83853 15.5175 5.60202 14.9545 6.16494L8.05454 13.0574C7.77308 13.3389 7.39134 13.497 6.99329 13.497C6.59525 13.497 6.2135 13.3389 5.93204 13.0574C5.65058 12.776 5.49246 12.3942 5.49246 11.9962C5.49246 11.5981 5.65058 11.2164 5.93204 10.9349L12.2995 4.57494" stroke="#307FE2" stroke-linecap="round" stroke-linejoin="round"/>
</svg>
