<svg width="24" height="24" viewBox="0 0 24 24" fill="none" xmlns="http://www.w3.org/2000/svg">
<g clip-path="url(#clip0_328_4970)">
<path fill-rule="evenodd" clip-rule="evenodd" d="M22.7204 6.1875C22.8873 5.65875 22.7204 5.27437 21.9822 5.27437H19.5273C18.9081 5.27437 18.6222 5.61094 18.4553 5.97094C18.4553 5.97094 17.1925 9.04594 15.429 11.0395C14.8572 11.6161 14.5951 11.8083 14.2853 11.8083C14.1184 11.8083 13.9037 11.6161 13.9037 11.0878V6.16266C13.9037 5.53828 13.7134 5.25 13.1889 5.25H9.32825C8.94668 5.25 8.70856 5.53828 8.70856 5.82656C8.70856 6.42703 9.59028 6.57141 9.68543 8.25281V11.9062C9.68543 12.6989 9.54481 12.8438 9.23262 12.8438C8.39872 12.8438 6.37325 9.74484 5.15825 6.21375C4.922 5.51437 4.682 5.25 4.06231 5.25H1.58403C0.869185 5.25 0.750122 5.58609 0.750122 5.94656C0.750122 6.59531 1.58403 9.86203 4.63418 14.1858C6.65965 17.1389 9.54293 18.7261 12.1403 18.7261C13.7134 18.7261 13.9037 18.3656 13.9037 17.7652V15.5311C13.9037 14.8106 14.0467 14.6906 14.5473 14.6906C14.9045 14.6906 15.5481 14.8823 17.0017 16.2998C18.6695 17.9813 18.9554 18.75 19.885 18.75H22.3393C23.0542 18.75 23.3879 18.3895 23.1972 17.693C22.9829 16.9964 22.1725 15.9877 21.1239 14.7867C20.552 14.1145 19.6942 13.3697 19.4322 13.0092C19.075 12.5287 19.1701 12.3366 19.4322 11.9044C19.4082 11.9044 22.4111 7.62844 22.7204 6.18563" fill="#222222"/>
</g>
<defs>
<clipPath id="clip0_328_4970">
<rect width="24" height="24" fill="white"/>
</clipPath>
</defs>
</svg>
