<svg width="14" height="24" viewBox="0 0 14 24" fill="none" xmlns="http://www.w3.org/2000/svg">
<g clip-path="url(#clip0_328_4977)">
<path d="M7.00028 0C3.56027 0 0.761865 2.7785 0.761865 6.19426C0.761865 9.60974 3.56027 12.387 7.00028 12.387C10.4402 12.387 13.2372 9.60974 13.2372 6.19426C13.2372 2.7785 10.4402 0 7.00028 0ZM7.00028 3.62926C8.424 3.62926 9.58175 4.78046 9.58175 6.19426C9.58175 7.60745 8.42402 8.75777 7.00028 8.75777C5.57626 8.75777 4.4173 7.60747 4.4173 6.19426C4.4173 4.78046 5.57626 3.62926 7.00028 3.62926ZM1.857 12.5977C1.23979 12.5882 0.632855 12.8903 0.280773 13.4475C-0.257284 14.2963 0.000470176 15.4164 0.853269 15.9502C1.98129 16.653 3.20534 17.1516 4.47473 17.439L0.988466 20.9025C0.274779 21.6115 0.275383 22.7599 0.989215 23.469C1.347 23.8229 1.81364 24 2.28146 24C2.7488 24 3.21701 23.8226 3.57371 23.4683L6.9988 20.0655L10.4269 23.4683C11.14 24.1771 12.2963 24.1771 13.0106 23.4683C13.7246 22.7597 13.7246 21.6101 13.0106 20.9025L9.52286 17.4398C10.7926 17.1524 12.0171 16.6535 13.1443 15.9503C13.9988 15.4164 14.2569 14.2951 13.7191 13.4475C13.1806 12.5985 12.0531 12.3428 11.198 12.8775C8.6441 14.4728 5.35341 14.4717 2.80031 12.8775C2.50642 12.6937 2.1803 12.6027 1.857 12.5977Z" fill="#222222"/>
</g>
<defs>
<clipPath id="clip0_328_4977">
<rect width="14" height="24" fill="white"/>
</clipPath>
</defs>
</svg>
