<svg width="220" height="83" viewBox="0 0 220 83" fill="none" xmlns="http://www.w3.org/2000/svg">
<path d="M84.8985 3.5354V23.5711H80.2547V15.8107C78.3541 16.7354 76.3639 17.2068 74.284 17.2068C71.738 17.2068 69.7836 16.6085 68.421 15.4299C67.0583 14.2513 66.377 12.42 66.377 9.97221V3.5354H71.0208V9.64584C71.0208 10.9151 71.3973 11.8761 72.1325 12.4925C72.8676 13.109 73.9254 13.4354 75.2881 13.4354C77.0273 13.4354 78.6769 13.0546 80.2547 12.3112V3.5354H84.8985Z" fill="white"/>
<path d="M108.154 3.5354V23.5711H103.743V21.0145C103.008 21.9211 102.075 22.6101 100.982 23.0997C99.888 23.5892 98.6867 23.825 97.3957 23.825C94.7421 23.825 92.6622 23.0816 91.1202 21.5947C89.5783 20.1079 88.8252 17.8958 88.8252 14.9766V3.5354H93.469V14.342C93.469 16.137 93.8635 17.4788 94.6703 18.3673C95.4772 19.2557 96.6247 19.6909 98.1308 19.6909C99.7624 19.6909 101.071 19.1651 102.04 18.1316C103.008 17.098 103.51 15.5931 103.51 13.653V3.5354H108.154Z" fill="white"/>
<path d="M116.186 22.5198C114.554 21.6495 113.281 20.4165 112.367 18.8572C111.453 17.2979 110.986 15.5209 110.986 13.5446C110.986 11.5682 111.453 9.80939 112.367 8.25005C113.281 6.69071 114.554 5.494 116.168 4.60554C117.782 3.73521 119.629 3.30005 121.708 3.30005C123.663 3.30005 125.366 3.69895 126.854 4.49675C128.325 5.29455 129.436 6.45499 130.171 7.94181L126.603 10.0451C126.03 9.12038 125.33 8.43137 124.47 7.95994C123.609 7.48851 122.677 7.27093 121.673 7.27093C119.933 7.27093 118.499 7.83302 117.369 8.97532C116.24 10.1176 115.666 11.6407 115.666 13.5264C115.666 15.4303 116.222 16.9533 117.351 18.0775C118.481 19.2198 119.915 19.7819 121.673 19.7819C122.695 19.7819 123.627 19.5462 124.47 19.0929C125.33 18.6215 126.03 17.9325 126.603 17.0077L130.171 19.111C129.4 20.616 128.289 21.7764 126.818 22.5742C125.348 23.3902 123.645 23.7891 121.726 23.7891C119.664 23.8435 117.818 23.3902 116.186 22.5198Z" fill="white"/>
<path d="M163.485 5.51256C164.938 6.98124 165.673 9.1752 165.673 12.0944V23.5719H161.029V12.6928C161.029 10.934 160.653 9.62849 159.882 8.74003C159.111 7.85157 158.017 7.41641 156.582 7.41641C155.023 7.41641 153.767 7.94223 152.835 8.97575C151.903 10.0093 151.419 11.4961 151.419 13.4181V23.5719H146.775V12.6928C146.775 10.934 146.398 9.62849 145.627 8.74003C144.856 7.85157 143.763 7.41641 142.328 7.41641C140.75 7.41641 139.495 7.9241 138.563 8.95761C137.631 9.99113 137.164 11.4779 137.164 13.4181V23.5719H132.521V3.53619H136.931V6.09278C137.666 5.18619 138.599 4.49718 139.71 4.02575C140.822 3.55432 142.059 3.3186 143.422 3.3186C144.91 3.3186 146.219 3.60871 147.366 4.1708C148.514 4.73289 149.428 5.56696 150.092 6.673C150.917 5.62135 151.957 4.80542 153.247 4.20707C154.538 3.62685 155.955 3.3186 157.515 3.3186C160.043 3.3186 162.015 4.04388 163.485 5.51256Z" fill="white"/>
<path d="M171.482 21.9936C169.958 20.5975 169.205 18.5667 169.205 15.9195V3.5354H173.813V10.7338C174.387 10.2623 175.158 9.86342 176.144 9.53705C177.13 9.21067 178.26 9.04749 179.515 9.04749C181.935 9.04749 183.836 9.66397 185.199 10.9151C186.561 12.1662 187.243 13.9431 187.243 16.2458C187.243 18.6936 186.436 20.6156 184.804 22.0118C183.19 23.4079 181.003 24.0969 178.26 24.0969C175.247 24.0969 173.006 23.3898 171.482 21.9936ZM181.397 19.4189C182.133 18.603 182.509 17.5695 182.509 16.3184C182.509 15.1217 182.133 14.1607 181.379 13.4354C180.626 12.7101 179.551 12.3475 178.17 12.3475C177.148 12.3475 176.269 12.5469 175.516 12.9458C174.763 13.3447 174.19 13.9068 173.795 14.6321V16.3184C173.795 17.6601 174.172 18.7299 174.943 19.4914C175.714 20.253 176.807 20.6338 178.242 20.6338C179.604 20.6519 180.662 20.2348 181.397 19.4189ZM189.717 3.5354H194.361V23.5711H189.717V3.5354Z" fill="white"/>
<path d="M213.618 17.6786L216.074 20.5616C215.213 21.6314 214.102 22.4473 212.739 22.9913C211.376 23.5352 209.852 23.8253 208.131 23.8253C205.961 23.8253 204.043 23.3902 202.375 22.5198C200.726 21.6495 199.435 20.4165 198.538 18.8572C197.642 17.2979 197.176 15.5209 197.176 13.5446C197.176 11.5863 197.606 9.84565 198.485 8.26818C199.363 6.70884 200.582 5.494 202.124 4.60554C203.666 3.73521 205.424 3.30005 207.378 3.30005C209.225 3.30005 210.928 3.69895 212.434 4.51488C213.958 5.33082 215.159 6.49126 216.056 7.9962C216.952 9.50115 217.383 11.2781 217.383 13.3088L202.214 16.3187C202.68 17.461 203.433 18.3495 204.473 18.9479C205.513 19.5462 206.768 19.8544 208.221 19.8544C210.39 19.8544 212.183 19.1292 213.618 17.6786ZM203.254 8.75774C202.196 9.88192 201.676 11.405 201.676 13.2907V13.327L212.882 11.1511C212.56 9.91818 211.914 8.93906 210.928 8.19565C209.942 7.45225 208.776 7.07148 207.378 7.07148C205.675 7.07148 204.294 7.63356 203.254 8.75774Z" fill="white"/>
<path d="M95.5848 35.0127V50.2253C95.5848 52.8907 93.4511 55.0484 90.8154 55.0484H71.1463C68.5106 55.0484 66.377 52.8907 66.377 50.2253V35.0127H71.0208V51.0775H78.7127V35.0127H83.3566V51.0775H90.9589V35.0127H95.5848Z" fill="white"/>
<path d="M130.781 36.9899C132.234 38.4585 132.969 40.6525 132.969 43.5717V55.0492H128.325V44.1701C128.325 42.4113 127.948 41.1058 127.177 40.2173C126.406 39.3289 125.313 38.8937 123.878 38.8937C122.318 38.8937 121.063 39.4195 120.131 40.453C119.199 41.4866 118.715 42.9734 118.715 44.8954V55.0673H114.071V44.1882C114.071 42.4294 113.694 41.1239 112.923 40.2355C112.152 39.347 111.058 38.9118 109.624 38.9118C108.046 38.9118 106.791 39.4195 105.859 40.453C104.926 41.4866 104.46 42.9734 104.46 44.9135V55.0855H99.8164V35.0135H104.227V37.5701C104.962 36.6635 105.895 35.9745 107.006 35.503C108.118 35.0316 109.355 34.7959 110.718 34.7959C112.206 34.7959 113.515 35.086 114.662 35.6481C115.81 36.2102 116.724 37.0443 117.388 38.1503C118.212 37.0986 119.252 36.2827 120.543 35.6844C121.834 35.1041 123.251 34.7959 124.811 34.7959C127.357 34.7959 129.329 35.5212 130.781 36.9899Z" fill="white"/>
<path d="M140.535 53.9971C138.921 53.1268 137.666 51.8938 136.77 50.3345C135.873 48.7751 135.407 46.9982 135.407 45.0218C135.407 43.0455 135.855 41.2867 136.77 39.7273C137.666 38.168 138.921 36.9713 140.535 36.0828C142.149 35.2125 143.942 34.7773 145.95 34.7773C147.976 34.7773 149.787 35.2125 151.401 36.0828C153.014 36.9532 154.269 38.168 155.166 39.7273C156.062 41.2867 156.529 43.0455 156.529 45.0218C156.529 46.9982 156.08 48.7751 155.166 50.3345C154.269 51.8938 153.014 53.1087 151.401 53.9971C149.787 54.8675 147.976 55.3026 145.95 55.3026C143.942 55.3026 142.149 54.8675 140.535 53.9971ZM150.181 49.5729C151.293 48.4306 151.849 46.9076 151.849 45.04C151.849 43.1724 151.293 41.6493 150.181 40.507C149.07 39.3647 147.653 38.7845 145.95 38.7845C144.247 38.7845 142.848 39.3647 141.736 40.507C140.643 41.6493 140.087 43.1724 140.087 45.04C140.087 46.9076 140.643 48.4306 141.736 49.5729C142.83 50.7153 144.247 51.2955 145.95 51.2955C147.653 51.2955 149.07 50.7153 150.181 49.5729Z" fill="white"/>
<path d="M174.583 36.0651C176.125 36.9173 177.327 38.114 178.187 39.6734C179.048 41.2327 179.46 43.0278 179.46 45.0767C179.46 47.1074 179.048 48.8844 178.241 50.4437C177.416 52.003 176.287 53.1997 174.816 54.0519C173.346 54.9041 171.643 55.3212 169.724 55.3212C166.981 55.3212 164.829 54.4327 163.27 52.6558V62.3382H158.59V45.1129C158.59 43.0822 159.038 41.2871 159.917 39.7278C160.813 38.1684 162.05 36.9536 163.646 36.0833C165.242 35.2129 167.089 34.7959 169.186 34.7959C171.248 34.7959 173.041 35.2129 174.583 36.0651ZM173.239 49.5915C174.332 48.4311 174.87 46.9261 174.87 45.0767C174.87 43.2272 174.332 41.7041 173.239 40.5437C172.145 39.3651 170.746 38.7849 169.007 38.7849C167.25 38.7849 165.834 39.3651 164.776 40.5074C163.718 41.6497 163.18 43.1728 163.18 45.0404C163.18 46.908 163.718 48.4311 164.794 49.5915C165.869 50.7519 167.268 51.3322 169.007 51.3322C170.746 51.3322 172.145 50.7519 173.239 49.5915Z" fill="white"/>
<path d="M184.248 53.4709C182.724 52.0748 181.971 50.044 181.971 47.3968V35.0127H186.579V42.211C187.152 41.7396 187.923 41.3407 188.91 41.0143C189.896 40.688 191.025 40.5248 192.28 40.5248C194.701 40.5248 196.602 41.1413 197.964 42.3924C199.327 43.6435 200.008 45.4204 200.008 47.7231C200.008 50.1709 199.201 52.0929 197.57 53.4891C195.956 54.8852 193.769 55.5742 191.025 55.5742C188.031 55.5742 185.772 54.8671 184.248 53.4709ZM194.181 50.8962C194.916 50.0803 195.293 49.0468 195.293 47.7957C195.293 46.599 194.916 45.638 194.163 44.9127C193.41 44.1874 192.334 43.8248 190.954 43.8248C189.932 43.8248 189.053 44.0242 188.3 44.4231C187.547 44.822 186.973 45.3841 186.579 46.1094V47.7957C186.579 49.1374 186.955 50.2072 187.726 50.9687C188.497 51.7303 189.591 52.111 191.025 52.111C192.388 52.111 193.428 51.7121 194.181 50.8962ZM202.483 35.0127H207.126V55.0484H202.483V35.0127Z" fill="white"/>
<path d="M55.3675 40.9054V15.3394V15.1944C55.2958 8.73944 51.2974 3.49933 46.4026 3.49933H43.6593H37.3479H30.3911V3.4812L29.8532 3.49933H16.872H16.2624H16.1907C10.1662 3.49933 5.18169 8.15922 4.55414 14.0883C4.55414 14.1609 4.53621 14.2153 4.53621 14.2878C4.53621 14.3603 4.51828 14.4328 4.51828 14.5054C4.51828 14.5779 4.50035 14.6504 4.50035 14.7411C4.50035 14.7774 4.50035 14.8136 4.50035 14.868C4.50035 14.8861 4.50035 14.9043 4.50035 14.9224C4.50035 15.0131 4.50035 15.1219 4.48242 15.2125V15.4301V43.2263C4.48242 43.2806 4.48242 43.335 4.48242 43.3894C4.48242 43.4438 4.48242 43.4801 4.48242 43.5345C4.48242 43.6433 4.50035 43.7339 4.50035 43.8427C4.50035 43.879 4.50035 43.9153 4.51828 43.9515C4.51828 43.9697 4.51828 44.0059 4.51828 44.0241C4.51828 44.0785 4.53621 44.151 4.53621 44.2054C4.55414 44.296 4.55414 44.3686 4.57207 44.4592C4.57207 44.4774 4.57207 44.5136 4.59 44.5317C4.59 44.6043 4.60793 44.6768 4.60793 44.7493C4.62586 44.8944 4.66172 45.0576 4.67965 45.2026C4.69758 45.2752 4.71551 45.3658 4.71551 45.4383C5.6658 50.3158 9.61038 54.1416 14.5232 54.8669H14.5411C15.0969 54.9576 15.6886 54.9938 16.2624 54.9938H43.5876C50.0782 54.9938 55.3675 49.6449 55.3675 43.0812V41.4856L55.4034 40.9416C55.3854 40.9235 55.3854 40.9235 55.3675 40.9054ZM52.4091 41.1411V41.54V43.0449C52.4091 47.9587 48.4466 51.9658 43.5876 51.9658H19.6511C25.4425 47.596 30.8394 40.3796 34.3895 31.4949C34.5509 31.0779 34.7123 30.6609 34.8736 30.2438C34.8916 30.2076 34.8916 30.1894 34.9095 30.1532C35.2681 29.1922 35.5908 28.2493 35.8777 27.3065C35.788 27.1614 35.7163 27.0164 35.6267 26.8532C34.3716 24.6048 33.2779 22.157 32.3634 19.6004C30.8573 15.3938 29.8891 11.0059 29.4767 6.52735C29.4767 6.50922 29.4767 6.49109 29.4767 6.47296H30.0146H30.5704C30.9828 10.8246 31.9152 15.1219 33.3854 19.2197C34.2102 21.5587 35.1964 23.7708 36.3259 25.8378C36.4156 26.001 36.5052 26.146 36.577 26.3092C37.2942 27.5785 38.0472 28.8114 38.8541 29.9356C42.6911 35.3752 47.4963 39.0741 52.4091 40.3796V40.9416V41.1411Z" fill="white"/>
<path d="M11.624 79.104H13.108L12.478 82.198H11.512L11.96 80H3.406L2.944 82.198H1.992L2.622 79.104H3.056C3.70933 79.0667 4.26933 78.544 4.736 77.536C5.212 76.5187 5.65533 75.1233 6.066 73.35L6.794 70.2H13.402L11.624 79.104ZM6.948 73.518C6.60267 75.002 6.248 76.2247 5.884 77.186C5.52 78.138 5.09533 78.7773 4.61 79.104H10.602L12.198 71.096H7.508L6.948 73.518ZM15.6045 76.598C15.5952 76.6633 15.5905 76.7613 15.5905 76.892C15.5905 77.6387 15.8005 78.208 16.2205 78.6C16.6498 78.992 17.2845 79.188 18.1245 79.188C18.6098 79.188 19.0625 79.1087 19.4825 78.95C19.9118 78.782 20.2618 78.5533 20.5325 78.264L20.9805 78.978C20.6352 79.3233 20.2012 79.594 19.6785 79.79C19.1652 79.9767 18.6192 80.07 18.0405 80.07C16.9765 80.07 16.1365 79.79 15.5205 79.23C14.9138 78.67 14.6105 77.9047 14.6105 76.934C14.6105 76.1127 14.7832 75.3707 15.1285 74.708C15.4832 74.0453 15.9685 73.5273 16.5845 73.154C17.2098 72.7713 17.9098 72.58 18.6845 72.58C19.6645 72.58 20.4438 72.86 21.0225 73.42C21.6012 73.9707 21.8905 74.7313 21.8905 75.702C21.8905 75.9727 21.8578 76.2713 21.7925 76.598H15.6045ZM18.6565 73.42C17.9192 73.42 17.2892 73.6393 16.7665 74.078C16.2438 74.5167 15.8892 75.1093 15.7025 75.856H20.9525C20.9618 75.7907 20.9665 75.702 20.9665 75.59C20.9665 74.8993 20.7565 74.3673 20.3365 73.994C19.9165 73.6113 19.3565 73.42 18.6565 73.42ZM30.6448 72.636L29.1608 80H28.1668L29.4548 73.518H25.9408L25.4928 75.338C25.2034 76.458 24.9234 77.3633 24.6528 78.054C24.3821 78.7353 24.0741 79.2487 23.7288 79.594C23.3928 79.93 22.9961 80.098 22.5388 80.098C22.3521 80.098 22.1094 80.0607 21.8107 79.986L22.0487 79.132C22.2167 79.1693 22.3287 79.188 22.3847 79.188C22.8608 79.188 23.2621 78.8753 23.5888 78.25C23.9248 77.6153 24.2654 76.612 24.6108 75.24L25.2548 72.636H30.6448ZM33.4705 72.636H34.4645L33.2745 78.586L39.3225 72.636H40.2745L38.8045 80H37.7825L39.0005 74.05L32.9525 80H31.9865L33.4705 72.636ZM45.7971 76.262L48.1631 80H47.0291L45.0131 76.724H43.2771L42.6191 80H41.6251L43.1091 72.636H44.1031L43.4451 75.87H45.0831L48.3451 72.636H49.4651L45.7971 76.262ZM57.7748 72.636L56.3048 80H55.3528L55.5908 78.838C55.2361 79.23 54.8161 79.5333 54.3308 79.748C53.8454 79.9627 53.3088 80.07 52.7208 80.07C52.0954 80.07 51.5401 79.944 51.0548 79.692C50.5694 79.44 50.1914 79.0807 49.9208 78.614C49.6501 78.138 49.5148 77.5827 49.5148 76.948C49.5148 76.1173 49.6921 75.3707 50.0468 74.708C50.4108 74.0453 50.9101 73.5273 51.5448 73.154C52.1794 72.7713 52.8888 72.58 53.6728 72.58C54.3728 72.58 54.9608 72.72 55.4368 73C55.9128 73.2707 56.2581 73.6627 56.4728 74.176L56.7808 72.636H57.7748ZM52.9308 79.188C53.5374 79.188 54.0834 79.0433 54.5688 78.754C55.0541 78.4553 55.4321 78.0447 55.7028 77.522C55.9828 76.99 56.1228 76.3973 56.1228 75.744C56.1228 75.0253 55.9081 74.4653 55.4788 74.064C55.0588 73.6533 54.4661 73.448 53.7008 73.448C53.0941 73.448 52.5481 73.5973 52.0628 73.896C51.5774 74.1947 51.1948 74.61 50.9148 75.142C50.6441 75.6647 50.5088 76.2527 50.5088 76.906C50.5088 77.6247 50.7188 78.1847 51.1388 78.586C51.5681 78.9873 52.1654 79.188 52.9308 79.188ZM65.6071 73.518H62.8071L61.5191 80H60.5251L61.8131 73.518H59.0411L59.2091 72.636H65.7891L65.6071 73.518ZM67.2123 72.636H68.2063L67.5623 75.898H72.1823L72.8403 72.636H73.8343L72.3643 80H71.3703L72.0143 76.752H67.3943L66.7363 80H65.7423L67.2123 72.636ZM83.4779 72.636L82.0079 80H81.0559L81.2939 78.838C80.9392 79.23 80.5192 79.5333 80.0339 79.748C79.5486 79.9627 79.0119 80.07 78.4239 80.07C77.7986 80.07 77.2432 79.944 76.7579 79.692C76.2726 79.44 75.8946 79.0807 75.6239 78.614C75.3532 78.138 75.2179 77.5827 75.2179 76.948C75.2179 76.1173 75.3952 75.3707 75.7499 74.708C76.1139 74.0453 76.6132 73.5273 77.2479 73.154C77.8826 72.7713 78.5919 72.58 79.3759 72.58C80.0759 72.58 80.6639 72.72 81.1399 73C81.6159 73.2707 81.9612 73.6627 82.1759 74.176L82.4839 72.636H83.4779ZM78.6339 79.188C79.2406 79.188 79.7866 79.0433 80.2719 78.754C80.7572 78.4553 81.1352 78.0447 81.4059 77.522C81.6859 76.99 81.8259 76.3973 81.8259 75.744C81.8259 75.0253 81.6112 74.4653 81.1819 74.064C80.7619 73.6533 80.1692 73.448 79.4039 73.448C78.7972 73.448 78.2512 73.5973 77.7659 73.896C77.2806 74.1947 76.8979 74.61 76.6179 75.142C76.3472 75.6647 76.2119 76.2527 76.2119 76.906C76.2119 77.6247 76.4219 78.1847 76.8419 78.586C77.2712 78.9873 77.8686 79.188 78.6339 79.188ZM91.9683 72.636L90.5123 80H89.6023L90.0923 77.522H87.8243H87.5583L85.3603 80H84.2263L86.6343 77.368C85.6729 77.0787 85.1923 76.4393 85.1923 75.45C85.1923 74.5727 85.5189 73.8867 86.1723 73.392C86.8256 72.888 87.7169 72.636 88.8463 72.636H91.9683ZM90.8903 73.504H88.7763C87.9643 73.504 87.3343 73.672 86.8863 74.008C86.4383 74.344 86.2142 74.82 86.2142 75.436C86.2142 76.3413 86.8023 76.794 87.9783 76.794H90.2463L90.8903 73.504ZM100.552 76.262L102.722 80H101.658L99.9082 76.934L96.9542 80H95.7782L99.4882 76.192L97.4442 72.636H98.4942L100.146 75.52L102.918 72.636H104.066L100.552 76.262ZM105.849 72.636H106.843L105.653 78.586L111.701 72.636H112.653L111.183 80H110.161L111.379 74.05L105.331 80H104.365L105.849 72.636ZM123.706 72.636L122.236 80H121.326L122.488 74.176L118.526 79.104H118.078L116.09 74.12L114.914 80H114.004L115.474 72.636H116.468L118.526 77.942L122.768 72.636H123.706ZM132.079 72.636L130.609 80H129.615L130.217 76.962C129.321 77.3167 128.472 77.494 127.669 77.494C126.894 77.494 126.288 77.34 125.849 77.032C125.42 76.7147 125.205 76.2527 125.205 75.646C125.205 75.4873 125.228 75.282 125.275 75.03L125.751 72.636H126.745L126.269 75.044C126.241 75.184 126.227 75.3193 126.227 75.45C126.227 75.8607 126.372 76.1687 126.661 76.374C126.95 76.5793 127.356 76.682 127.879 76.682C128.626 76.682 129.466 76.486 130.399 76.094L131.085 72.636H132.079ZM134.902 72.636H135.896L134.706 78.586L140.754 72.636H141.706L140.236 80H139.214L140.432 74.05L134.384 80H133.418L134.902 72.636ZM146.487 80.07C145.796 80.07 145.194 79.944 144.681 79.692C144.167 79.4307 143.771 79.0667 143.491 78.6C143.22 78.124 143.085 77.5733 143.085 76.948C143.085 76.1173 143.267 75.3707 143.631 74.708C143.995 74.0453 144.503 73.5273 145.157 73.154C145.81 72.7713 146.547 72.58 147.369 72.58C148.05 72.58 148.633 72.706 149.119 72.958C149.613 73.2007 149.996 73.5647 150.267 74.05L149.427 74.54C149.007 73.812 148.293 73.448 147.285 73.448C146.678 73.448 146.127 73.5973 145.633 73.896C145.147 74.1947 144.765 74.6053 144.485 75.128C144.214 75.6507 144.079 76.2433 144.079 76.906C144.079 77.6247 144.289 78.1847 144.709 78.586C145.138 78.9873 145.745 79.188 146.529 79.188C147.005 79.188 147.443 79.0993 147.845 78.922C148.255 78.7353 148.591 78.4693 148.853 78.124L149.567 78.67C149.24 79.1087 148.801 79.454 148.251 79.706C147.709 79.9487 147.121 80.07 146.487 80.07ZM157.468 73.518H154.668L153.38 80H152.386L153.674 73.518H150.902L151.07 72.636H157.65L157.468 73.518ZM161.776 76.262L164.142 80H163.008L160.992 76.724H159.256L158.598 80H157.604L159.088 72.636H160.082L159.424 75.87H161.062L164.324 72.636H165.444L161.776 76.262ZM173.753 72.636L172.283 80H171.331L171.569 78.838C171.215 79.23 170.795 79.5333 170.309 79.748C169.824 79.9627 169.287 80.07 168.699 80.07C168.074 80.07 167.519 79.944 167.033 79.692C166.548 79.44 166.17 79.0807 165.899 78.614C165.629 78.138 165.493 77.5827 165.493 76.948C165.493 76.1173 165.671 75.3707 166.025 74.708C166.389 74.0453 166.889 73.5273 167.523 73.154C168.158 72.7713 168.867 72.58 169.651 72.58C170.351 72.58 170.939 72.72 171.415 73C171.891 73.2707 172.237 73.6627 172.451 74.176L172.759 72.636H173.753ZM168.909 79.188C169.516 79.188 170.062 79.0433 170.547 78.754C171.033 78.4553 171.411 78.0447 171.681 77.522C171.961 76.99 172.101 76.3973 172.101 75.744C172.101 75.0253 171.887 74.4653 171.457 74.064C171.037 73.6533 170.445 73.448 169.679 73.448C169.073 73.448 168.527 73.5973 168.041 73.896C167.556 74.1947 167.173 74.61 166.893 75.142C166.623 75.6647 166.487 76.2527 166.487 76.906C166.487 77.6247 166.697 78.1847 167.117 78.586C167.547 78.9873 168.144 79.188 168.909 79.188ZM190.416 72.636L188.932 80H178.768L180.238 72.636H181.232L179.958 79.132H183.556L184.844 72.636H185.838L184.55 79.132H188.134L189.422 72.636H190.416ZM198.238 73.518H195.438L194.15 80H193.156L194.444 73.518H191.672L191.84 72.636H198.42L198.238 73.518ZM201.405 80.07C200.733 80.07 200.145 79.944 199.641 79.692C199.137 79.4307 198.745 79.0667 198.465 78.6C198.195 78.124 198.059 77.5733 198.059 76.948C198.059 76.1173 198.241 75.3707 198.605 74.708C198.969 74.0453 199.473 73.5273 200.117 73.154C200.771 72.7713 201.503 72.58 202.315 72.58C203.342 72.58 204.154 72.86 204.751 73.42C205.358 73.98 205.661 74.736 205.661 75.688C205.661 76.5187 205.479 77.27 205.115 77.942C204.751 78.6047 204.243 79.1273 203.589 79.51C202.945 79.8833 202.217 80.07 201.405 80.07ZM201.475 79.188C202.082 79.188 202.628 79.0433 203.113 78.754C203.599 78.4553 203.977 78.0447 204.247 77.522C204.527 76.99 204.667 76.3973 204.667 75.744C204.667 75.0253 204.453 74.4653 204.023 74.064C203.603 73.6533 203.011 73.448 202.245 73.448C201.639 73.448 201.093 73.5973 200.607 73.896C200.122 74.1947 199.739 74.61 199.459 75.142C199.189 75.6647 199.053 76.2527 199.053 76.906C199.053 77.6247 199.263 78.1847 199.683 78.586C200.113 78.9873 200.71 79.188 201.475 79.188ZM212.109 72.58C212.734 72.58 213.29 72.706 213.775 72.958C214.27 73.21 214.652 73.5693 214.923 74.036C215.194 74.5027 215.329 75.0533 215.329 75.688C215.329 76.5187 215.147 77.27 214.783 77.942C214.428 78.6047 213.934 79.1273 213.299 79.51C212.664 79.8833 211.95 80.07 211.157 80.07C210.457 80.07 209.869 79.9347 209.393 79.664C208.917 79.384 208.572 78.9827 208.357 78.46L207.517 82.716H206.523L208.525 72.636H209.477L209.239 73.812C209.594 73.4107 210.014 73.1073 210.499 72.902C210.984 72.6873 211.521 72.58 212.109 72.58ZM211.143 79.188C211.75 79.188 212.291 79.0433 212.767 78.754C213.252 78.4553 213.63 78.0447 213.901 77.522C214.181 76.9993 214.321 76.4067 214.321 75.744C214.321 75.0253 214.106 74.4653 213.677 74.064C213.257 73.6533 212.664 73.448 211.899 73.448C211.292 73.448 210.746 73.5973 210.261 73.896C209.785 74.1853 209.407 74.596 209.127 75.128C208.856 75.6507 208.721 76.2433 208.721 76.906C208.721 77.6247 208.931 78.1847 209.351 78.586C209.78 78.9873 210.378 79.188 211.143 79.188Z" fill="white"/>
</svg>
