<svg width="50" height="50" viewBox="0 0 50 50" fill="none" xmlns="http://www.w3.org/2000/svg">
<g clip-path="url(#clip0_304_3194)">
<path d="M30.8333 29.1667H29.9167C29.7483 29.167 29.584 29.1155 29.446 29.0192C29.3079 28.9229 29.2028 28.7864 29.145 28.6284C29.0438 28.363 28.9343 28.101 28.8167 27.8425C28.7454 27.6892 28.7231 27.5176 28.753 27.3512C28.7828 27.1847 28.8632 27.0315 28.9833 26.9125L29.6367 26.2584C30.6066 25.2799 30.6048 23.702 29.6325 22.7259L27.2775 20.3709C26.3001 19.3992 24.7216 19.3992 23.7442 20.3709L23.0908 21.0234C22.9715 21.143 22.8184 21.2232 22.6521 21.253C22.4857 21.2828 22.3143 21.2608 22.1608 21.19C21.9013 21.0727 21.639 20.9615 21.3742 20.8567C21.2153 20.7993 21.078 20.6942 20.9812 20.5557C20.8844 20.4173 20.8327 20.2523 20.8333 20.0834V19.1667C20.8333 17.786 19.7141 16.6667 18.3333 16.6667H15C13.6193 16.6667 12.5 17.786 12.5 19.1667V20.0834C12.5003 20.2517 12.4488 20.416 12.3525 20.5541C12.2562 20.6921 12.1197 20.7972 11.9617 20.855C11.695 20.9567 11.4342 21.0659 11.1758 21.1834C11.0224 21.2543 10.8509 21.2764 10.6846 21.2466C10.5182 21.2167 10.365 21.1365 10.2458 21.0167L9.59167 20.3634C8.61438 19.3923 7.03646 19.3923 6.05917 20.3634L3.70417 22.7259C2.7325 23.7032 2.7325 25.2818 3.70417 26.2592L4.35667 26.9125C4.47676 27.0315 4.55721 27.1847 4.58704 27.3512C4.61687 27.5176 4.59462 27.6892 4.52333 27.8425C4.40562 28.1013 4.29585 28.3637 4.19417 28.6292C4.13599 28.7881 4.03 28.9252 3.89077 29.0214C3.75154 29.1177 3.58592 29.1684 3.41667 29.1667H2.5C1.11927 29.1667 0 30.286 0 31.6667V35C0 36.3807 1.11927 37.5 2.5 37.5H3.41667C3.58499 37.4997 3.74933 37.5512 3.88738 37.6475C4.02543 37.7438 4.1305 37.8803 4.18833 38.0384C4.29 38.305 4.39917 38.5659 4.51667 38.8242C4.58795 38.9775 4.6102 39.1491 4.58037 39.3155C4.55055 39.482 4.4701 39.6352 4.35 39.7542L3.69667 40.4084C2.72562 41.3856 2.72562 42.9636 3.69667 43.9409L6.05167 46.2959C7.02906 47.2675 8.6076 47.2675 9.585 46.2959L10.2383 45.6434C10.3576 45.5237 10.5108 45.4435 10.6771 45.4137C10.8434 45.3839 11.0149 45.4059 11.1683 45.4767C11.4279 45.594 11.6902 45.7052 11.955 45.81C12.1147 45.8667 12.2528 45.9716 12.3504 46.1101C12.448 46.2486 12.5003 46.4139 12.5 46.5834V47.5C12.5 48.8807 13.6193 50 15 50H18.3333C19.7141 50 20.8333 48.8807 20.8333 47.5V46.5834C20.833 46.415 20.8845 46.2507 20.9808 46.1126C21.0771 45.9746 21.2136 45.8695 21.3717 45.8117C21.6383 45.71 21.8992 45.6009 22.1575 45.4834C22.3109 45.4124 22.4824 45.3903 22.6488 45.4201C22.8151 45.45 22.9683 45.5302 23.0875 45.65L23.7417 46.3034C24.7203 47.2728 26.2978 47.271 27.2742 46.2992L29.6292 43.9442C30.6008 42.9668 30.6008 41.3882 29.6292 40.4109L28.9767 39.7575C28.8566 39.6385 28.7761 39.4853 28.7463 39.3189C28.7165 39.1524 28.7387 38.9808 28.81 38.8275C28.9273 38.568 29.0385 38.3057 29.1433 38.0409C29.2007 37.882 29.3059 37.7447 29.4443 37.6479C29.5827 37.5511 29.7477 37.4994 29.9167 37.5H30.8333C32.2141 37.5 33.3333 36.3807 33.3333 35V31.6667C33.3333 30.286 32.2141 29.1667 30.8333 29.1667ZM31.6667 35C31.6667 35.221 31.5789 35.433 31.4226 35.5893C31.2663 35.7456 31.0543 35.8334 30.8333 35.8334H29.9167C29.4105 35.8352 28.9168 35.9902 28.5004 36.2778C28.0839 36.5654 27.7643 36.9723 27.5833 37.445C27.4952 37.6778 27.3996 37.9076 27.2967 38.1342C27.0874 38.5962 27.0231 39.1109 27.1124 39.6102C27.2016 40.1095 27.4402 40.57 27.7967 40.9309L28.4483 41.5834C28.5258 41.6607 28.5872 41.7525 28.6291 41.8536C28.6711 41.9547 28.6927 42.0631 28.6927 42.1725C28.6928 42.2819 28.6713 42.3903 28.6295 42.4914C28.5876 42.5926 28.5263 42.6845 28.449 42.7619L28.4483 42.7625L26.0933 45.1175C25.9371 45.2737 25.7251 45.3615 25.5042 45.3615C25.2832 45.3615 25.0713 45.2737 24.915 45.1175L24.2617 44.465C23.901 44.1083 23.4405 43.8695 22.9411 43.7802C22.4417 43.6909 21.927 43.7554 21.465 43.965C21.2388 44.0676 21.0096 44.1632 20.7775 44.2517C20.3052 44.4326 19.8986 44.752 19.6111 45.1681C19.3236 45.5843 19.1687 46.0776 19.1667 46.5834V47.5C19.1667 47.721 19.0789 47.933 18.9226 48.0893C18.7663 48.2456 18.5543 48.3334 18.3333 48.3334H15C14.779 48.3334 14.567 48.2456 14.4107 48.0893C14.2545 47.933 14.1667 47.721 14.1667 47.5V46.5834C14.1648 46.0772 14.0099 45.5835 13.7222 45.1671C13.4346 44.7506 13.0277 44.4309 12.555 44.25C12.3222 44.1619 12.0924 44.0663 11.8658 43.9634C11.4038 43.7542 10.8892 43.69 10.3899 43.7792C9.89061 43.8685 9.43012 44.107 9.06917 44.4634L8.41667 45.115C8.33932 45.1924 8.24749 45.2539 8.1464 45.2958C8.04532 45.3378 7.93696 45.3594 7.82753 45.3594C7.71809 45.3595 7.60971 45.338 7.50858 45.2962C7.40745 45.2543 7.31555 45.193 7.23812 45.1156L7.2375 45.115L4.8825 42.7625C4.72627 42.6062 4.63851 42.3943 4.63851 42.1734C4.63851 41.9524 4.72627 41.7405 4.8825 41.5842L5.535 40.9309C5.89143 40.57 6.13004 40.1095 6.21931 39.6102C6.30857 39.1109 6.24431 38.5962 6.035 38.1342C5.9324 37.908 5.8368 37.6787 5.74833 37.4467C5.56788 36.9739 5.24859 36.5668 4.83243 36.2788C4.41627 35.9909 3.92273 35.8356 3.41667 35.8334H2.5C2.27899 35.8334 2.06702 35.7456 1.91074 35.5893C1.75446 35.433 1.66667 35.221 1.66667 35V31.6667C1.66667 31.4457 1.75446 31.2337 1.91074 31.0774C2.06702 30.9212 2.27899 30.8334 2.5 30.8334H3.41667C3.92279 30.8315 4.41651 30.6765 4.83295 30.3889C5.24939 30.1013 5.56908 29.6944 5.75 29.2217C5.83833 28.9884 5.93385 28.7587 6.03667 28.5325C6.24595 28.0705 6.3102 27.5559 6.22093 27.0565C6.13166 26.5572 5.89307 26.0967 5.53667 25.7359L4.88167 25.0834C4.80424 25.006 4.7428 24.9142 4.70087 24.8131C4.65893 24.712 4.63732 24.6037 4.63726 24.4942C4.6372 24.3848 4.6587 24.2764 4.70053 24.1753C4.74236 24.0741 4.8037 23.9822 4.88104 23.9048L4.88167 23.9042L7.23667 21.5492C7.39294 21.393 7.60486 21.3052 7.82583 21.3052C8.0468 21.3052 8.25873 21.393 8.415 21.5492L9.06833 22.2017C9.42903 22.5584 9.88954 22.7972 10.3889 22.8865C10.8883 22.9758 11.403 22.9113 11.865 22.7017C12.0912 22.5991 12.3204 22.5035 12.5525 22.415C13.0255 22.2347 13.4328 21.9155 13.7209 21.4993C14.009 21.0831 14.1644 20.5895 14.1667 20.0834V19.1667C14.1667 18.9457 14.2545 18.7337 14.4107 18.5774C14.567 18.4212 14.779 18.3334 15 18.3334H18.3333C18.5543 18.3334 18.7663 18.4212 18.9226 18.5774C19.0789 18.7337 19.1667 18.9457 19.1667 19.1667V20.0834C19.1685 20.5895 19.3235 21.0832 19.6111 21.4996C19.8988 21.9161 20.3056 22.2358 20.7783 22.4167C21.0117 22.505 21.2414 22.6005 21.4675 22.7034C21.9295 22.913 22.4442 22.9774 22.9436 22.8882C23.443 22.7989 23.9035 22.5601 24.2642 22.2034L24.9167 21.5517C25.0736 21.3964 25.2855 21.3093 25.5063 21.3093C25.727 21.3093 25.9389 21.3964 26.0958 21.5517L28.4508 23.9067C28.6071 24.063 28.6948 24.2749 28.6948 24.4959C28.6948 24.7168 28.6071 24.9287 28.4508 25.085L27.7983 25.7384C27.4419 26.0992 27.2033 26.5597 27.1141 27.059C27.0248 27.5584 27.0891 28.073 27.2983 28.535C27.4009 28.7612 27.4965 28.9905 27.585 29.2225C27.7659 29.6948 28.0853 30.1014 28.5015 30.3889C28.9176 30.6764 29.4109 30.8313 29.9167 30.8334H30.8333C31.0543 30.8334 31.2663 30.9212 31.4226 31.0774C31.5789 31.2337 31.6667 31.4457 31.6667 31.6667V35Z" fill="#307FE2"/>
<path d="M24.15 33C24.1424 32.8003 24.1268 32.601 24.1033 32.4025C24.0767 32.1892 24.045 31.9775 24.0008 31.77C23.9717 31.6342 23.9333 31.5 23.8967 31.365C23.8502 31.194 23.7977 31.0247 23.7392 30.8575C23.6983 30.7417 23.6558 30.6267 23.6125 30.5125C23.5052 30.2456 23.3825 29.9852 23.245 29.7325C23.2342 29.7133 23.2275 29.6925 23.2167 29.6733C22.9999 29.2875 22.7489 28.9218 22.4667 28.5808C22.4425 28.5508 22.415 28.5225 22.39 28.4933C22.2759 28.3577 22.1566 28.2265 22.0325 28.1C21.9675 28.0325 21.8992 27.9692 21.8308 27.9042C21.7475 27.8267 21.6642 27.75 21.5808 27.6767C21.48 27.5891 21.3769 27.504 21.2717 27.4217L21.135 27.32C19.8456 26.3542 18.2777 25.8325 16.6667 25.8333C16.5833 25.8333 16.5 25.8458 16.4167 25.8492C16.238 25.8537 16.0595 25.8648 15.8817 25.8825C15.7875 25.8925 15.6925 25.9033 15.5983 25.9167C15.3267 25.9524 15.0571 26.0028 14.7908 26.0675C10.7782 27.1044 8.36595 31.1979 9.40282 35.2105C9.73833 36.5089 10.4156 37.6936 11.3642 38.6414C12.3128 39.5892 13.4981 40.2655 14.7967 40.6C14.81 40.6 14.8242 40.6042 14.8383 40.6075C15.1261 40.6793 15.4177 40.735 15.7117 40.7742C15.9058 40.7983 16.1 40.8033 16.295 40.8125C16.425 40.8192 16.545 40.8383 16.6808 40.8383C16.9183 40.8383 17.165 40.8225 17.4167 40.7975C17.4433 40.7975 17.47 40.79 17.5 40.7867C17.7068 40.7642 17.9126 40.7327 18.1167 40.6925C18.2 40.6767 18.2775 40.6558 18.3575 40.6375C18.5061 40.6037 18.6536 40.5657 18.8 40.5233C18.9167 40.4883 19.03 40.4475 19.1442 40.4075C19.2583 40.3675 19.3767 40.3242 19.495 40.2792C19.6133 40.2342 19.7125 40.1825 19.82 40.1325C19.96 40.0683 20.0992 40.005 20.2367 39.93H20.2417C21.0194 39.5137 21.7377 38.9949 22.3775 38.3875C22.5503 38.2262 22.7006 38.0423 22.8242 37.8408C23.4746 36.7981 23.9019 35.6319 24.0792 34.4158C24.1025 34.255 24.1233 34.0942 24.1358 33.93C24.1475 33.7792 24.1558 33.6292 24.1592 33.4792C24.1592 33.4317 24.1658 33.3867 24.1658 33.3392C24.1667 33.2217 24.155 33.1133 24.15 33ZM22.4892 33.5458C22.4892 33.615 22.4833 33.6842 22.4792 33.7525C22.4636 33.9555 22.4385 34.1577 22.4042 34.3583C22.2504 35.2139 21.9077 36.0243 21.4011 36.7307C20.8946 37.4371 20.2368 38.0216 19.4758 38.4417C19.375 38.4949 19.2727 38.5455 19.1692 38.5933L19.1 38.6267C18.6159 38.8465 18.1048 39.0011 17.58 39.0867C17.5433 39.0925 17.5058 39.0992 17.4683 39.1042C17.3642 39.1192 17.2617 39.1317 17.16 39.1408C17.0247 39.1524 16.8891 39.1594 16.7533 39.1617H16.5792C16.382 39.1594 16.1851 39.1472 15.9892 39.125L15.8892 39.1133C15.66 39.0834 15.4327 39.0405 15.2083 38.985C12.0873 38.1861 10.2048 35.0084 11.0036 31.8874C11.2627 30.8749 11.7891 29.9506 12.5278 29.2111C13.2665 28.4717 14.1902 27.9443 15.2025 27.6842V27.6833C15.6812 27.5626 16.173 27.501 16.6667 27.5C16.9049 27.5014 17.1429 27.5175 17.3792 27.5483C17.4425 27.5558 17.505 27.5675 17.5675 27.5767C17.7475 27.605 17.9258 27.6408 18.1017 27.6858C18.1592 27.7008 18.2167 27.7142 18.2733 27.73C18.7165 27.8579 19.143 28.0375 19.5442 28.265C19.6083 28.3025 19.6708 28.3417 19.7342 28.3808C19.8658 28.4642 19.9933 28.5475 20.1192 28.6425C20.1867 28.6917 20.255 28.74 20.32 28.7925C20.4835 28.9231 20.6401 29.0622 20.7892 29.2092C20.8483 29.2692 20.9025 29.335 20.96 29.3975C21.0558 29.5017 21.1492 29.6083 21.2383 29.7208C21.2999 29.7989 21.3597 29.8783 21.4175 29.9592C21.5008 30.0792 21.5842 30.2042 21.6592 30.3308C21.7008 30.4 21.7425 30.4675 21.785 30.5383C21.8925 30.7361 21.9882 30.9401 22.0717 31.1492C22.105 31.2325 22.1333 31.3158 22.1633 31.3992C22.2175 31.5525 22.2642 31.7075 22.305 31.8642C22.3258 31.9475 22.3492 32.0217 22.3667 32.1025C22.4153 32.3277 22.4506 32.5556 22.4725 32.785C22.4775 32.8458 22.4775 32.9075 22.4817 32.9683C22.4933 33.16 22.4967 33.3525 22.4892 33.5458ZM47.5 17.5H44.8792C44.7088 17.5017 44.5421 17.4499 44.4028 17.3518C44.2634 17.2537 44.1584 17.1143 44.1025 16.9533C43.8441 16.1792 43.5313 15.4243 43.1667 14.6942C43.0912 14.5404 43.066 14.3668 43.0948 14.1979C43.1235 14.029 43.2046 13.8735 43.3267 13.7533L45.185 11.8925C46.1604 10.9164 46.1604 9.33448 45.185 8.35833L41.6417 4.82083C40.6655 3.84542 39.0837 3.84542 38.1075 4.82083L36.25 6.6775C36.13 6.79952 35.9746 6.8807 35.806 6.90957C35.6373 6.93843 35.4638 6.91351 35.31 6.83833C34.5798 6.47179 33.8246 6.15739 33.05 5.8975C32.8884 5.8422 32.7483 5.73741 32.6496 5.59801C32.5508 5.4586 32.4985 5.29165 32.5 5.12083V2.5C32.5 1.11927 31.3807 0 30 0H25C23.6193 0 22.5 1.11927 22.5 2.5V5.12083C22.5018 5.29125 22.4499 5.4579 22.3518 5.59726C22.2537 5.73662 22.1144 5.84165 21.9533 5.8975C21.1791 6.15733 20.4242 6.47144 19.6942 6.8375C19.5405 6.91323 19.3668 6.93853 19.1979 6.9098C19.0289 6.88107 18.8734 6.79978 18.7533 6.6775L16.8925 4.81917C15.9152 3.84656 14.3356 3.84656 13.3583 4.81917L9.82167 8.35583C8.84574 9.33208 8.84574 10.9146 9.82167 11.8908L12.5542 14.6283C12.7111 14.7804 12.9215 14.8647 13.14 14.8631C13.3585 14.8615 13.5677 14.7742 13.7224 14.6199C13.8771 14.4656 13.9651 14.2567 13.9673 14.0382C13.9695 13.8197 13.8858 13.609 13.7342 13.4517L11 10.715C10.8438 10.5587 10.756 10.3468 10.756 10.1258C10.756 9.90486 10.8438 9.69294 11 9.53667L14.5367 6C14.6929 5.84377 14.9049 5.75601 15.1258 5.75601C15.3468 5.75601 15.5587 5.84377 15.715 6L17.5767 7.85833C17.9439 8.22775 18.4183 8.472 18.9323 8.55638C19.4464 8.64075 19.9739 8.56096 20.44 8.32833C21.1001 7.99781 21.7826 7.71406 22.4825 7.47917C22.9751 7.3124 23.4028 6.99493 23.7051 6.5717C24.0073 6.14847 24.1688 5.6409 24.1667 5.12083V2.5C24.1667 2.27899 24.2545 2.06702 24.4108 1.91074C24.567 1.75446 24.779 1.66667 25 1.66667H30C30.221 1.66667 30.433 1.75446 30.5893 1.91074C30.7455 2.06702 30.8333 2.27899 30.8333 2.5V5.12083C30.8313 5.6408 30.9928 6.14824 31.295 6.57133C31.5973 6.99443 32.025 7.31173 32.5175 7.47833C33.2177 7.7133 33.9005 7.99734 34.5608 8.32833C35.0271 8.55976 35.5543 8.63881 36.068 8.55433C36.5816 8.46984 37.0558 8.22608 37.4233 7.8575L39.285 6C39.4413 5.84377 39.6532 5.75601 39.8742 5.75601C40.0951 5.75601 40.3071 5.84377 40.4633 6L44 9.5375C44.156 9.69374 44.2436 9.90548 44.2436 10.1263C44.2436 10.347 44.156 10.5588 44 10.715L42.1417 12.5767C41.7726 12.9441 41.5286 13.4185 41.4442 13.9324C41.3598 14.4464 41.4394 14.9738 41.6717 15.44C42.0022 16.1001 42.286 16.7826 42.5208 17.4825C42.6875 17.9752 43.0049 18.403 43.4282 18.7052C43.8514 19.0075 44.3591 19.1689 44.8792 19.1667H47.5C47.721 19.1667 47.933 19.2545 48.0893 19.4107C48.2455 19.567 48.3333 19.779 48.3333 20V25C48.3333 25.221 48.2455 25.433 48.0893 25.5893C47.933 25.7455 47.721 25.8333 47.5 25.8333H44.8792C44.3592 25.8313 43.8518 25.9928 43.4287 26.295C43.0056 26.5973 42.6883 27.0249 42.5217 27.5175C42.2868 28.2178 42.0027 28.9006 41.6717 29.5608C41.4399 30.027 41.3606 30.5543 41.4451 31.0681C41.5296 31.5818 41.7736 32.056 42.1425 32.4233L44.0008 34.285C44.1571 34.4413 44.2448 34.6532 44.2448 34.8742C44.2448 35.0951 44.1571 35.3071 44.0008 35.4633L40.4625 39C40.3063 39.156 40.0945 39.2436 39.8738 39.2436C39.653 39.2436 39.4412 39.156 39.285 39L36.5467 36.2675C36.3929 36.1088 36.1824 36.0176 35.9614 36.0141C35.7404 36.0106 35.5271 36.095 35.3683 36.2488C35.288 36.3266 35.2241 36.4198 35.1806 36.5228C35.137 36.6259 35.1146 36.7366 35.1148 36.8485C35.115 36.9603 35.1376 37.071 35.1815 37.1739C35.2253 37.2769 35.2894 37.3699 35.37 37.4475L38.1075 40.18C39.0837 41.1554 40.6655 41.1554 41.6417 40.18L45.1783 36.6442C46.1543 35.6679 46.1543 34.0854 45.1783 33.1092L43.3225 31.25C43.2006 31.1299 43.1195 30.9746 43.0906 30.8059C43.0618 30.6373 43.0866 30.4638 43.1617 30.31C43.5282 29.5798 43.8426 28.8246 44.1025 28.05C44.1578 27.8884 44.2626 27.7483 44.402 27.6495C44.5414 27.5508 44.7084 27.4985 44.8792 27.5H47.5C48.8807 27.5 50 26.3807 50 25V20C50 18.6193 48.8807 17.5 47.5 17.5Z" fill="#307FE2"/>
<path d="M35.16 14.84C30.9269 10.6157 24.0731 10.6157 19.84 14.84C19.6882 14.9972 19.6042 15.2077 19.6061 15.4262C19.608 15.6447 19.6956 15.8537 19.8502 16.0082C20.0047 16.1627 20.2137 16.2503 20.4322 16.2522C20.6507 16.2541 20.8612 16.1701 21.0183 16.0183C24.5741 12.4146 30.3779 12.3757 33.9817 15.9315C37.5854 19.4872 37.6243 25.2911 34.0685 28.8948C34.0398 28.924 34.0108 28.9529 33.9817 28.9817C33.8227 29.1352 33.7313 29.3456 33.7274 29.5666C33.7236 29.7876 33.8077 30.0011 33.9613 30.16C34.039 30.2405 34.1321 30.3045 34.2351 30.3482C34.338 30.3919 34.4488 30.4144 34.5606 30.4144C34.6725 30.4144 34.7832 30.3919 34.8862 30.3482C34.9892 30.3045 35.0823 30.2405 35.16 30.16C39.3843 25.9269 39.3843 19.0731 35.16 14.84Z" fill="#307FE2"/>
</g>
<defs>
<clipPath id="clip0_304_3194">
<rect width="50" height="50" fill="white"/>
</clipPath>
</defs>
</svg>
