<svg width="50" height="50" viewBox="0 0 50 50" fill="none" xmlns="http://www.w3.org/2000/svg">
<g clip-path="url(#clip0_304_2646)">
<path d="M14.8099 21.5709L14.8082 21.6028C14.685 23.764 15.8936 25.7886 17.8882 26.7592L17.9086 26.7692C18.6119 27.1064 19.188 27.6614 19.5517 28.3522L19.5599 28.3673C20.5649 30.2839 22.6435 31.4458 24.8595 31.3293L24.8931 31.3274C25.6968 31.2823 26.4945 31.49 27.1744 31.9216C28.0941 32.4977 29.157 32.8032 30.2417 32.8032C31.3264 32.8032 32.3893 32.4977 33.309 31.9216C33.9889 31.49 34.7866 31.2823 35.5903 31.3274L35.624 31.3293C37.8362 31.4466 39.9176 30.2838 40.9248 28.364L40.9298 28.3535C41.2946 27.6611 41.8726 27.1048 42.578 26.7674L42.5943 26.7592C44.589 25.7881 45.798 23.7639 45.6744 21.6023L45.6725 21.5723C45.6315 20.811 45.8427 20.0575 46.2734 19.4289C47.5139 17.6168 47.5139 15.2275 46.2739 13.4152C45.8432 12.7869 45.6318 12.0337 45.6725 11.2726L45.6744 11.2407C45.798 9.07903 44.5888 7.05491 42.5925 6.08334L42.5744 6.07425C41.8726 5.73836 41.2973 5.18529 40.9334 4.49675L40.9229 4.47623C39.9176 2.55957 37.8362 1.39815 35.624 1.51423L35.5899 1.5161C34.7865 1.56121 33.9891 1.35345 33.3094 0.921923H33.3085C32.3888 0.34579 31.326 0.0402832 30.2412 0.0402832C29.1565 0.0402832 28.0936 0.34579 27.174 0.921923C26.4939 1.3531 25.6963 1.56068 24.8927 1.51563L24.8589 1.51376C22.6463 1.39628 20.5654 2.5591 19.5604 4.4753L19.5527 4.48952C19.1888 5.18132 18.6119 5.7372 17.9077 6.07472L17.8885 6.08381C15.8941 7.05444 14.6851 9.07915 14.8086 11.2407L14.8104 11.2708C14.8515 12.0319 14.6403 12.7853 14.2095 13.4138C12.9691 15.2261 12.9691 17.616 14.2095 19.4279C14.6401 20.0563 14.8512 20.8098 14.8099 21.5709ZM15.7418 14.4727C16.4067 13.503 16.7328 12.3402 16.6691 11.1655L16.6672 11.1336C16.6353 10.4333 16.8114 9.73917 17.1733 9.13911C17.5352 8.53904 18.0667 8.05993 18.7004 7.76237L18.7163 7.75456C19.7793 7.24471 20.65 6.40527 21.1991 5.36073L21.2081 5.34348C21.8758 4.06959 23.2745 3.29745 24.7599 3.3767L24.7926 3.37798C25.9811 3.44507 27.1608 3.13799 28.1663 2.49978C28.7884 2.10997 29.5075 1.90326 30.2413 1.90326C30.9751 1.90326 31.6941 2.10997 32.3163 2.49978C33.3219 3.13727 34.5011 3.44449 35.6894 3.37857L35.7221 3.3767C37.2148 3.29838 38.6067 4.06959 39.2726 5.33976L39.2848 5.36307C39.8338 6.40606 40.7036 7.24428 41.7653 7.75363L41.7808 7.76143C43.0971 8.40246 43.8962 9.72589 43.8157 11.134L43.8139 11.1673C43.7504 12.3418 44.0766 13.5044 44.7416 14.4739C45.1342 15.0474 45.3442 15.7266 45.3441 16.422C45.3439 17.1173 45.1335 17.7964 44.7407 18.3697C44.0761 19.3398 43.7503 20.5026 43.8139 21.6774L43.8157 21.7088C43.8961 23.1169 43.0971 24.4408 41.7803 25.0823L41.7667 25.0887C40.7025 25.5994 39.8311 26.4402 39.2816 27.4861L39.2749 27.4998C38.6066 28.7737 37.2103 29.5463 35.7226 29.4666L35.6903 29.4648C34.5016 29.3984 33.3218 29.7056 32.3158 30.3435C31.6938 30.7331 30.9749 30.9397 30.2413 30.9397C29.5077 30.9397 28.7888 30.7331 28.1668 30.3435C27.2521 29.763 26.1914 29.4552 25.1085 29.4561C25.0036 29.4561 24.8981 29.4589 24.7926 29.4648L24.76 29.4661C24.0419 29.5117 23.3258 29.3506 22.6962 29.0018C22.0666 28.653 21.5498 28.1311 21.2068 27.4976L21.1972 27.4797C20.6489 26.4371 19.7798 25.5991 18.7187 25.09L18.7012 25.0814C17.3845 24.4403 16.5854 23.1163 16.6664 21.7088L16.6681 21.6755C16.7313 20.501 16.4052 19.3385 15.7405 18.3688C15.3481 17.7953 15.1382 17.1162 15.1384 16.421C15.1387 15.7257 15.349 15.0468 15.7418 14.4736V14.4727Z" fill="#307FE2"/>
<path d="M24.2349 26.0608C24.6708 26.3336 25.245 26.2001 25.5172 25.7635L36.5448 8.06888C36.6096 7.96499 36.6533 7.84935 36.6734 7.72855C36.6935 7.60776 36.6897 7.48418 36.6621 7.36487C36.6345 7.24556 36.5838 7.13286 36.5127 7.0332C36.4417 6.93354 36.3517 6.84887 36.248 6.78403C36.1443 6.71918 36.0288 6.67544 35.9082 6.65529C35.7876 6.63514 35.6643 6.63898 35.5451 6.66659C35.426 6.69419 35.3135 6.74503 35.214 6.8162C35.1145 6.88736 35.03 6.97746 34.9652 7.08135L23.9381 24.776C23.8733 24.8799 23.8296 24.9955 23.8095 25.1163C23.7893 25.2371 23.7931 25.3607 23.8207 25.48C23.8482 25.5993 23.899 25.712 23.9701 25.8117C24.0411 25.9113 24.1311 25.996 24.2348 26.0608H24.2349ZM25.2231 16.4677C27.4898 16.4677 29.3344 14.3612 29.3344 11.7719C29.3344 9.18263 27.4898 7.07692 25.2231 7.07692C22.9563 7.07692 21.1122 9.18298 21.1122 11.7721C21.1122 14.3613 22.9562 16.4678 25.2231 16.4678V16.4677ZM25.2231 8.9416C26.4635 8.9416 27.4726 10.2113 27.4726 11.772C27.4726 13.3327 26.4635 14.6029 25.2231 14.6029C23.983 14.6029 22.974 13.3323 22.974 11.7719C22.974 10.2118 23.983 8.9416 25.2231 8.9416ZM31.1485 21.0723C31.1485 23.6615 32.9925 25.7676 35.2594 25.7676C37.5263 25.7676 39.3707 23.6611 39.3707 21.0724C39.3707 18.4841 37.5266 16.3772 35.2598 16.3772C32.9925 16.3772 31.1485 18.4826 31.1485 21.0723ZM37.5089 21.0723C37.5089 22.633 36.4998 23.9028 35.2594 23.9028C34.0193 23.9028 33.0103 22.633 33.0103 21.0724C33.0103 19.5118 34.0193 18.242 35.2594 18.242C36.4998 18.242 37.5089 19.5106 37.5089 21.0723ZM49.8792 36.5554C48.6466 34.3641 45.9129 33.5296 43.6698 34.6596L36.3775 38.1106C35.8827 37.1891 35.1541 36.4146 34.265 35.8652C33.376 35.3159 32.3581 35.011 31.3139 34.9815L24.5822 34.7957C23.516 34.7649 22.4704 34.4944 21.5226 34.0043L20.8376 33.6488C19.1095 32.7467 17.1892 32.2766 15.2405 32.2787C13.2918 32.2808 11.3724 32.7549 9.64627 33.6607L9.68909 32.1064C9.6925 31.984 9.67179 31.8621 9.62815 31.7476C9.5845 31.6332 9.51878 31.5285 9.43473 31.4396C9.35068 31.3506 9.24995 31.2791 9.1383 31.2291C9.02665 31.1792 8.90626 31.1517 8.78402 31.1484L1.40231 30.945C1.28011 30.9416 1.15845 30.9624 1.04427 31.0061C0.930088 31.0498 0.825628 31.1156 0.736856 31.1998C0.648084 31.284 0.57674 31.3849 0.5269 31.4967C0.47706 31.6085 0.4497 31.729 0.446383 31.8514L0.000480663 48.0769C-0.00291265 48.1993 0.0178047 48.3212 0.0614493 48.4356C0.105094 48.55 0.170811 48.6547 0.254847 48.7436C0.338883 48.8326 0.439591 48.9041 0.551221 48.9541C0.66285 49.004 0.783213 49.0315 0.905435 49.0348L8.28727 49.2383H8.3131C8.55552 49.2381 8.78831 49.1433 8.96205 48.974C9.1358 48.8047 9.23681 48.5742 9.24366 48.3315L9.2646 47.5552L11.1823 46.5267C11.9348 46.1211 12.8154 46.0246 13.6376 46.2577L25.0889 49.4768C25.1089 49.4829 25.1289 49.4873 25.1494 49.492C25.9773 49.6653 26.8209 49.7524 27.6667 49.7519C29.4576 49.753 31.2276 49.3661 32.8553 48.6178C32.8952 48.5995 32.9339 48.5787 32.9708 48.5549L49.5742 37.7973C49.7737 37.6683 49.9163 37.4679 49.973 37.237C50.0297 37.0061 49.9962 36.7623 49.8792 36.5554ZM1.88742 47.1958L2.28189 32.8352L7.80285 32.9872L7.40768 47.3485L1.88742 47.1958ZM32.0163 46.9514C29.994 47.8655 27.7354 48.1179 25.5617 47.6725L14.1409 44.4623C12.8559 44.0984 11.4799 44.2491 10.3037 44.8826L9.32371 45.408L9.58646 35.8596C12.6914 33.7908 16.6741 33.5782 19.9814 35.3041L20.6664 35.6596C21.8636 36.2789 23.1845 36.6206 24.5313 36.6596L31.2631 36.8452C33.154 36.8994 34.7598 38.2479 35.1436 40.1036L25.1164 39.8273C24.9942 39.8239 24.8725 39.8447 24.7583 39.8884C24.6442 39.9321 24.5397 39.9979 24.4509 40.0821C24.3622 40.1663 24.2908 40.2671 24.241 40.3789C24.1911 40.4907 24.1638 40.6113 24.1605 40.7337C24.1571 40.8561 24.1778 40.978 24.2214 41.0924C24.2651 41.2068 24.3308 41.3114 24.4148 41.4004C24.4989 41.4893 24.5996 41.5609 24.7112 41.6108C24.8228 41.6608 24.9432 41.6882 25.0654 41.6916L36.1313 41.9966H36.1576C36.3999 41.9963 36.6326 41.9014 36.8063 41.7321C36.9799 41.5628 37.0809 41.3324 37.0877 41.0897C37.0989 40.6845 37.0687 40.2791 36.9976 39.8799L44.4758 36.3403L44.4976 36.3298C45.0155 36.0671 45.6013 35.9694 46.1763 36.05C46.7513 36.1305 47.2879 36.3855 47.7139 36.7805L32.0163 46.9514Z" fill="#307FE2"/>
</g>
<defs>
<clipPath id="clip0_304_2646">
<rect width="50" height="50" fill="white"/>
</clipPath>
</defs>
</svg>
