<svg width="50" height="50" viewBox="0 0 50 50" fill="none" xmlns="http://www.w3.org/2000/svg">
<g clip-path="url(#clip0_304_413)">
<path d="M42.9281 38.8417C42.0808 38.8423 41.2524 38.5916 40.5476 38.1213C39.8428 37.6511 39.2933 36.9823 38.9686 36.1997C38.6439 35.4171 38.5586 34.5557 38.7236 33.7246C38.8885 32.8935 39.2962 32.13 39.8951 31.5307C40.494 30.9313 41.2572 30.5231 42.0882 30.3576C42.9192 30.192 43.7806 30.2767 44.5634 30.6008C45.3463 30.9249 46.0154 31.4739 46.4862 32.1783C46.957 32.8828 47.2083 33.7111 47.2083 34.5584C47.2078 35.6937 46.7567 36.7823 45.9542 37.5854C45.1518 38.3885 44.0634 38.8403 42.9281 38.8417ZM42.9281 31.8375C42.3898 31.8369 41.8635 31.996 41.4156 32.2945C40.9678 32.5931 40.6186 33.0179 40.4122 33.515C40.2057 34.0121 40.1514 34.5593 40.256 35.0872C40.3607 35.6152 40.6196 36.1003 41 36.4812C41.3803 36.862 41.8651 37.1214 42.393 37.2267C42.9209 37.3319 43.4681 37.2782 43.9655 37.0724C44.4628 36.8665 44.8879 36.5178 45.187 36.0703C45.4862 35.6228 45.6458 35.0966 45.6458 34.5584C45.6455 33.8374 45.3592 33.146 44.8497 32.6358C44.3402 32.1257 43.6491 31.8386 42.9281 31.8375ZM20.3562 38.8417C19.5089 38.8425 18.6803 38.592 17.9754 38.1218C17.2705 37.6517 16.7208 36.983 16.396 36.2004C16.0711 35.4178 15.9857 34.5564 16.1505 33.7253C16.3153 32.8941 16.7229 32.1305 17.3218 31.5311C17.9207 30.9316 18.6839 30.5232 19.5149 30.3576C20.3459 30.192 21.2073 30.2766 21.9903 30.6007C22.7732 30.9248 23.4424 31.4738 23.9132 32.1782C24.3841 32.8827 24.6354 33.711 24.6354 34.5584C24.6346 35.6934 24.1836 36.7818 23.3814 37.5847C22.5792 38.3877 21.4913 38.8398 20.3562 38.8417ZM20.3562 31.8375C19.8179 31.8367 19.2915 31.9956 18.8435 32.294C18.3955 32.5925 18.0461 33.0172 17.8395 33.5143C17.633 34.0113 17.5785 34.5585 17.683 35.0866C17.7875 35.6147 18.0463 36.0999 18.4267 36.4808C18.807 36.8617 19.2918 37.1213 19.8197 37.2266C20.3476 37.3319 20.8949 37.2783 21.3923 37.0725C21.8897 36.8667 22.3149 36.5179 22.6141 36.0704C22.9132 35.6229 23.0729 35.0967 23.0729 34.5584C23.0723 33.8376 22.7861 33.1465 22.2768 32.6365C21.7676 32.1265 21.0769 31.8392 20.3562 31.8375Z" fill="#307FE2"/>
<path d="M48.5634 35.3396H46.427C46.2198 35.3396 46.0211 35.2573 45.8746 35.1108C45.7281 34.9643 45.6457 34.7656 45.6457 34.5584C45.6457 34.3512 45.7281 34.1525 45.8746 34.0059C46.0211 33.8594 46.2198 33.7771 46.427 33.7771H48.3426V29.6344C48.3421 29.0743 48.1987 28.5236 47.9259 28.0344L43.6968 20.4521C43.6607 20.3874 43.6079 20.3335 43.544 20.296C43.4801 20.2584 43.4074 20.2386 43.3332 20.2386H37.5697V33.7803H39.4301C39.6373 33.7803 39.836 33.8626 39.9825 34.0091C40.1291 34.1556 40.2114 34.3543 40.2114 34.5615C40.2114 34.7687 40.1291 34.9674 39.9825 35.1139C39.836 35.2604 39.6373 35.3428 39.4301 35.3428H36.7885C36.5813 35.3428 36.3825 35.2604 36.236 35.1139C36.0895 34.9674 36.0072 34.7687 36.0072 34.5615V19.4573C36.0072 19.2501 36.0895 19.0514 36.236 18.9049C36.3825 18.7584 36.5813 18.6761 36.7885 18.6761H43.3332C43.6857 18.6759 44.0318 18.7699 44.3358 18.9482C44.6398 19.1266 44.8906 19.3829 45.0624 19.6907L49.2905 27.274C49.6925 27.9958 49.9037 28.8082 49.9041 29.6344V33.999C49.9035 34.3544 49.7621 34.6951 49.5108 34.9464C49.2595 35.1977 48.9188 35.3391 48.5634 35.3396ZM16.8572 35.3396H9.36658C9.15938 35.3396 8.96066 35.2573 8.81415 35.1108C8.66764 34.9643 8.58533 34.7656 8.58533 34.5584V28.55C8.58533 28.3428 8.66764 28.1441 8.81415 27.9976C8.96066 27.8511 9.15938 27.7688 9.36658 27.7688C9.57378 27.7688 9.77249 27.8511 9.919 27.9976C10.0655 28.1441 10.1478 28.3428 10.1478 28.55V33.7771H16.8572C17.0644 33.7771 17.2631 33.8594 17.4096 34.0059C17.5561 34.1525 17.6385 34.3512 17.6385 34.5584C17.6385 34.7656 17.5561 34.9643 17.4096 35.1108C17.2631 35.2573 17.0644 35.3396 16.8572 35.3396ZM9.36658 25.7782C9.15938 25.7782 8.96066 25.6959 8.81415 25.5493C8.66764 25.4028 8.58533 25.2041 8.58533 24.9969V19.7511C8.58533 19.5439 8.66764 19.3452 8.81415 19.1987C8.96066 19.0521 9.15938 18.9698 9.36658 18.9698C9.57378 18.9698 9.77249 19.0521 9.919 19.1987C10.0655 19.3452 10.1478 19.5439 10.1478 19.7511V25C10.147 25.2067 10.0643 25.4046 9.9179 25.5505C9.77148 25.6963 9.57324 25.7782 9.36658 25.7782Z" fill="#307FE2"/>
<path d="M36.7885 35.3396H23.8541C23.6469 35.3396 23.4482 35.2573 23.3017 35.1108C23.1552 34.9643 23.0729 34.7656 23.0729 34.5584C23.0729 34.3512 23.1552 34.1524 23.3017 34.0059C23.4482 33.8594 23.6469 33.7771 23.8541 33.7771H36.0073V13.3386H10.1479V16.5563C10.1479 16.7635 10.0656 16.9622 9.91906 17.1087C9.77255 17.2552 9.57383 17.3375 9.36663 17.3375C9.15943 17.3375 8.96072 17.2552 8.81421 17.1087C8.66769 16.9622 8.58538 16.7635 8.58538 16.5563V13.1948C8.58594 12.8185 8.73573 12.4578 9.0019 12.1918C9.26808 11.9259 9.62889 11.7763 10.0052 11.7761H36.151C36.5271 11.7766 36.8877 11.9263 37.1536 12.1922C37.4196 12.4582 37.5692 12.8187 37.5698 13.1948V34.5584C37.5698 34.7656 37.4874 34.9643 37.3409 35.1108C37.1944 35.2573 36.9957 35.3396 36.7885 35.3396ZM12.4552 29.3313H2.53955C2.33235 29.3313 2.13364 29.249 1.98712 29.1024C1.84061 28.9559 1.7583 28.7572 1.7583 28.55C1.7583 28.3428 1.84061 28.1441 1.98712 27.9976C2.13364 27.8511 2.33235 27.7688 2.53955 27.7688H12.4552C12.6624 27.7688 12.8611 27.8511 13.0076 27.9976C13.1541 28.1441 13.2364 28.3428 13.2364 28.55C13.2364 28.7572 13.1541 28.9559 13.0076 29.1024C12.8611 29.249 12.6624 29.3313 12.4552 29.3313Z" fill="#307FE2"/>
<path d="M20.3562 25.7781H6.51973C6.31253 25.7781 6.11382 25.6958 5.96731 25.5493C5.82079 25.4028 5.73848 25.2041 5.73848 24.9969C5.73848 24.7897 5.82079 24.591 5.96731 24.4445C6.11382 24.298 6.31253 24.2156 6.51973 24.2156H20.3562C20.5634 24.2156 20.7621 24.298 20.9086 24.4445C21.0551 24.591 21.1374 24.7897 21.1374 24.9969C21.1374 25.2041 21.0551 25.4028 20.9086 25.5493C20.7621 25.6958 20.5634 25.7781 20.3562 25.7781ZM6.08953 21.6531H0.686401C0.479201 21.6531 0.280487 21.5708 0.133974 21.4243C-0.0125386 21.2778 -0.0948486 21.0791 -0.0948486 20.8719C-0.0948486 20.6647 -0.0125386 20.466 0.133974 20.3195C0.280487 20.173 0.479201 20.0907 0.686401 20.0907H6.08953C6.29673 20.0907 6.49544 20.173 6.64195 20.3195C6.78847 20.466 6.87078 20.6647 6.87078 20.8719C6.87078 21.0791 6.78847 21.2778 6.64195 21.4243C6.49544 21.5708 6.29673 21.6531 6.08953 21.6531ZM14.7531 17.3375H5.21557C5.00837 17.3375 4.80965 17.2552 4.66314 17.1087C4.51663 16.9622 4.43432 16.7635 4.43432 16.5563C4.43432 16.3491 4.51663 16.1504 4.66314 16.0038C4.80965 15.8573 5.00837 15.775 5.21557 15.775H14.7531C14.9603 15.775 15.159 15.8573 15.3055 16.0038C15.452 16.1504 15.5343 16.3491 15.5343 16.5563C15.5343 16.7635 15.452 16.9622 15.3055 17.1087C15.159 17.2552 14.9603 17.3375 14.7531 17.3375Z" fill="#307FE2"/>
</g>
<defs>
<clipPath id="clip0_304_413">
<rect width="50" height="50" fill="white"/>
</clipPath>
</defs>
</svg>
