<svg width="50" height="50" viewBox="0 0 50 50" fill="none" xmlns="http://www.w3.org/2000/svg">
<g clip-path="url(#clip0_304_298)">
<path d="M39.7082 33.7699V31.6623C39.7082 30.7178 38.949 29.9488 38.0046 29.9365C37.0937 29.9247 36.3306 30.6228 36.2613 31.531C36.2325 31.9082 36.1231 32.2748 35.9404 32.606C35.7578 32.9373 35.5062 33.2255 35.2026 33.4512L29.7841 37.4413" stroke="#307FE2" stroke-width="1.5" stroke-miterlimit="10" stroke-linecap="round" stroke-linejoin="round"/>
<path d="M34.4455 34.014L34.367 32.8782C34.2921 31.7947 33.396 30.9513 32.3099 30.9421C31.2418 30.933 30.3404 31.7348 30.2249 32.7967C30.186 33.1544 30.0709 33.4996 29.8873 33.809C29.7037 34.1185 29.456 34.385 29.1607 34.5906L27.1129 35.9756M16.7139 44.5979L19.1286 43.4916C19.952 43.1144 20.8377 42.8916 21.7417 42.8345L31.0156 42.2484C32.7752 42.1372 34.4709 41.5476 35.9199 40.5431L38.6806 38.6291" stroke="#307FE2" stroke-width="1.5" stroke-miterlimit="10" stroke-linecap="round" stroke-linejoin="round"/>
<path d="M41.0131 37.012L41.9892 36.3353C43.1473 35.5324 44.0459 34.4089 44.5747 33.1027C45.0632 31.896 44.1751 30.5785 42.8733 30.5785C42.5257 30.5785 42.1853 30.6772 41.8916 30.8631C41.5979 31.049 41.3631 31.3145 41.2143 31.6286L40.6887 32.739C40.5012 33.1349 40.2023 33.4676 39.8286 33.6961L34.8553 36.7377C34.1031 37.1978 33.2384 37.4413 32.3566 37.4413H21.3419L25.354 37.4236C26.3207 37.4152 27.0999 36.6291 27.0999 35.6624C27.0999 34.6898 26.3114 33.9012 25.3386 33.9012H21.9813C21.2528 33.9012 20.5452 33.6577 19.9709 33.2095C19.4466 32.8003 18.8156 32.5508 18.1532 32.491C17.4909 32.4311 16.8253 32.5634 16.2362 32.8719L11.8328 35.1781M7.74119 41.9402L11.3604 48.7686C11.4762 48.9871 11.6737 49.1511 11.9098 49.2248C12.1458 49.2985 12.4015 49.276 12.6211 49.1622L16.8889 46.9504C17.3519 46.7105 17.5304 46.139 17.2863 45.6782L11.3631 34.4975C11.2485 34.2812 11.0539 34.1182 10.8209 34.0434C10.5878 33.9686 10.3348 33.9878 10.1157 34.0969L5.80945 36.2416C5.33728 36.4768 5.15174 37.0548 5.39871 37.5208L6.41394 39.4364M29.6955 6.26575L28.605 6.01575C28.5423 6.00137 28.4832 5.97448 28.4311 5.93669C28.3791 5.8989 28.3353 5.85099 28.3022 5.79583L25.4093 0.96438C25.224 0.655103 24.7759 0.655103 24.5906 0.96438L21.6975 5.79573C21.6645 5.85089 21.6206 5.8988 21.5686 5.9366C21.5166 5.97439 21.4575 6.00128 21.3948 6.01565L15.9059 7.27405C15.5546 7.35461 15.416 7.78088 15.653 8.05256L19.3539 12.297C19.3962 12.3455 19.4282 12.402 19.4481 12.4631C19.4679 12.5243 19.4752 12.5888 19.4695 12.6529L18.9702 18.262C18.9383 18.6211 19.3008 18.8846 19.6325 18.7432L24.8128 16.535C24.8719 16.5098 24.9355 16.4968 24.9998 16.4968C25.0641 16.4968 25.1277 16.5098 25.1869 16.535L30.3672 18.7432C30.6988 18.8846 31.0614 18.6211 31.0295 18.262L30.5302 12.6529C30.5245 12.5888 30.5318 12.5243 30.5516 12.4631C30.5715 12.402 30.6035 12.3455 30.6458 12.297L34.3467 8.05256C34.5836 7.78088 34.4451 7.35461 34.0937 7.27405L32.5273 6.91497M10.0925 14.3228L12.0836 17.6479C12.1063 17.6858 12.1365 17.7188 12.1723 17.7448C12.2081 17.7708 12.2487 17.7894 12.2919 17.7992L16.0695 18.6654C16.3114 18.7208 16.4067 19.0142 16.2436 19.2012L13.6966 22.1224C13.6675 22.1557 13.6454 22.1946 13.6317 22.2367C13.6181 22.2788 13.613 22.3232 13.617 22.3673L13.9606 26.2278C13.9826 26.4749 13.7331 26.6562 13.5049 26.5589L9.93953 25.0391C9.89882 25.0217 9.85502 25.0128 9.81077 25.0128C9.76652 25.0128 9.72272 25.0217 9.68201 25.0391L6.11677 26.5588C5.88855 26.6561 5.63894 26.4748 5.66101 26.2277L6.00467 22.3672C6.00859 22.3231 6.00356 22.2787 5.98989 22.2366C5.97621 22.1945 5.95416 22.1556 5.92508 22.1223L3.37801 19.2012C3.21492 19.0142 3.31023 18.7208 3.55213 18.6654L7.32976 17.7992C7.37289 17.7894 7.41358 17.7708 7.44937 17.7448C7.48517 17.7188 7.51534 17.6858 7.53806 17.6479L9.52918 14.3228C9.65662 14.11 9.96502 14.11 10.0925 14.3228ZM40.4709 14.3228L42.462 17.6479C42.4847 17.6858 42.5149 17.7188 42.5507 17.7448C42.5865 17.7708 42.6272 17.7894 42.6703 17.7992L46.4479 18.6654C46.6898 18.7208 46.7851 19.0142 46.622 19.2012L44.075 22.1224C44.0459 22.1557 44.0238 22.1946 44.0102 22.2367C43.9965 22.2788 43.9915 22.3232 43.9954 22.3673L44.339 26.2278C44.361 26.4749 44.1115 26.6562 43.8833 26.5589L40.3179 25.0391C40.2771 25.0217 40.2333 25.0128 40.1891 25.0128C40.1448 25.0128 40.101 25.0217 40.0603 25.0391L36.4951 26.5588C36.2669 26.6561 36.0173 26.4748 36.0393 26.2277L36.383 22.3672C36.3869 22.3231 36.3819 22.2787 36.3682 22.2366C36.3545 22.1945 36.3325 22.1556 36.3034 22.1223L33.7563 19.2011C33.5932 19.0141 33.6886 18.7207 33.9304 18.6653L37.7081 17.7991C37.7512 17.7893 37.7919 17.7707 37.8277 17.7447C37.8635 17.7187 37.8937 17.6857 37.9164 17.6478L39.9075 14.3227C40.0349 14.11 40.3433 14.11 40.4709 14.3228Z" stroke="#307FE2" stroke-width="1.5" stroke-miterlimit="10" stroke-linecap="round" stroke-linejoin="round"/>
</g>
<defs>
<clipPath id="clip0_304_298">
<rect width="50" height="50" fill="white"/>
</clipPath>
</defs>
</svg>
