<svg width="50" height="50" viewBox="0 0 50 50" fill="none" xmlns="http://www.w3.org/2000/svg">
<path d="M22.3516 2.64954H5.01699C4.83576 2.64959 4.66196 2.72161 4.53381 2.84976C4.40566 2.97791 4.33365 3.1517 4.33359 3.33293V26.6758C3.88718 26.4022 3.37368 26.2577 2.8501 26.2582C1.27861 26.2583 0 27.5368 0 29.1085C0 30.6802 1.27861 31.9587 2.8501 31.9587H3.48271C2.54398 33.0465 2.02777 34.4357 2.02832 35.8726C2.03259 36.051 2.10646 36.2207 2.23416 36.3454C2.36185 36.47 2.53325 36.5398 2.71172 36.5398C2.89019 36.5398 3.06158 36.47 3.18928 36.3454C3.31698 36.2207 3.39085 36.051 3.39512 35.8726C3.39453 34.8635 3.72412 33.8818 4.33359 33.0776V46.6671C4.33365 46.8483 4.40566 47.0221 4.53381 47.1503C4.66196 47.2784 4.83576 47.3505 5.01699 47.3505H15.6513C15.8325 47.3505 16.0063 47.2785 16.1345 47.1503C16.2627 47.0222 16.3347 46.8484 16.3347 46.6671V39.2457C16.3347 36.3421 15.2166 33.5597 13.2368 31.4675C19.2209 28.3968 23.035 22.2078 23.035 15.4312V3.33293C23.035 3.24319 23.0173 3.15431 22.983 3.07139C22.9486 2.98847 22.8983 2.91313 22.8348 2.84967C22.7714 2.78621 22.696 2.73587 22.6131 2.70153C22.5302 2.66719 22.4413 2.64952 22.3516 2.64954ZM4.33359 30.592H2.8501C2.03223 30.592 1.3667 29.9265 1.3667 29.1085C1.3667 28.2906 2.03223 27.625 2.8501 27.625C3.66807 27.625 4.33359 28.2906 4.33359 29.1085V30.592ZM14.9679 39.2456V45.9837H10.979V41.7712C10.9747 41.5928 10.9009 41.4231 10.7732 41.2984C10.6455 41.1738 10.4741 41.104 10.2956 41.104C10.1171 41.104 9.94574 41.1738 9.81804 41.2984C9.69035 41.4231 9.61647 41.5928 9.61221 41.7712V45.9837H8.33066V39.9656C8.3264 39.7872 8.25252 39.6176 8.12483 39.4929C7.99713 39.3682 7.82574 39.2984 7.64727 39.2984C7.46879 39.2984 7.2974 39.3682 7.1697 39.4929C7.04201 39.6176 6.96813 39.7872 6.96387 39.9656V45.9837H5.70039V31.9587H11.792C13.8135 33.8383 14.9679 36.4795 14.9679 39.2456ZM21.6683 15.4311C21.6683 21.9571 17.8397 27.8914 11.9041 30.592H5.70039V4.01624H6.96387V11.0374C6.96813 11.2158 7.04201 11.3855 7.1697 11.5102C7.2974 11.6349 7.46879 11.7047 7.64727 11.7047C7.82574 11.7047 7.99713 11.6349 8.12483 11.5102C8.25252 11.3855 8.3264 11.2158 8.33066 11.0374V4.01624H13.8256V9.95393C13.8299 10.1324 13.9037 10.302 14.0314 10.4267C14.1591 10.5514 14.3305 10.6212 14.509 10.6212C14.6875 10.6212 14.8588 10.5514 14.9865 10.4267C15.1142 10.302 15.1881 10.1324 15.1924 9.95393V4.01624H16.7147V14.408C16.719 14.5865 16.7929 14.7561 16.9206 14.8808C17.0483 15.0055 17.2197 15.0753 17.3981 15.0753C17.5766 15.0753 17.748 15.0055 17.8757 14.8808C18.0034 14.7561 18.0773 14.5865 18.0815 14.408V4.01624H21.6685V15.4311H21.6683ZM50 29.1085C50 27.5368 48.7214 26.2583 47.1498 26.2583C46.6262 26.2577 46.1127 26.4023 45.6663 26.6759V3.33293C45.6663 3.1517 45.5942 2.97791 45.4661 2.84976C45.3379 2.72161 45.1641 2.64959 44.9829 2.64954H27.6483C27.4671 2.64959 27.2933 2.72161 27.1652 2.84976C27.037 2.97791 26.965 3.1517 26.9649 3.33293V15.4311C26.9649 22.2078 30.7791 28.3967 36.7631 31.4674C34.7834 33.5597 33.6652 36.342 33.6652 39.2456V46.667C33.6653 46.8482 33.7373 47.022 33.8655 47.1502C33.9936 47.2783 34.1674 47.3504 34.3486 47.3504H44.9829C45.1641 47.3504 45.3379 47.2783 45.4661 47.1502C45.5942 47.022 45.6663 46.8482 45.6663 46.667V33.0776C46.2758 33.8819 46.6054 34.8635 46.6048 35.8727C46.6091 36.0511 46.6829 36.2208 46.8106 36.3455C46.9383 36.4701 47.1097 36.5399 47.2882 36.5399C47.4667 36.5399 47.6381 36.4701 47.7657 36.3455C47.8934 36.2208 47.9673 36.0511 47.9716 35.8727C47.9721 34.4358 47.4559 33.0467 46.5172 31.9588H47.1498C48.7214 31.9587 50 30.6802 50 29.1085ZM28.3316 15.4311V4.01624H31.9186V14.408C31.9228 14.5865 31.9967 14.7561 32.1244 14.8808C32.2521 15.0055 32.4235 15.0753 32.602 15.0753C32.7804 15.0753 32.9518 15.0055 33.0795 14.8808C33.2072 14.7561 33.2811 14.5865 33.2854 14.408V4.01624H34.8077V9.95393C34.812 10.1324 34.8859 10.302 35.0135 10.4267C35.1412 10.5514 35.3126 10.6212 35.4911 10.6212C35.6696 10.6212 35.841 10.5514 35.9687 10.4267C36.0964 10.302 36.1702 10.1324 36.1745 9.95393V4.01624H41.6694V11.0374C41.6737 11.2158 41.7476 11.3855 41.8753 11.5102C42.003 11.6349 42.1744 11.7047 42.3528 11.7047C42.5313 11.7047 42.7027 11.6349 42.8304 11.5102C42.9581 11.3855 43.032 11.2158 43.0362 11.0374V4.01624H44.2998V30.592H38.0961C32.1603 27.8913 28.3316 21.957 28.3316 15.4311ZM44.2996 45.9837H43.0359V39.9656C43.0317 39.7872 42.9578 39.6176 42.8301 39.4929C42.7024 39.3682 42.531 39.2984 42.3525 39.2984C42.1741 39.2984 42.0027 39.3682 41.875 39.4929C41.7473 39.6176 41.6734 39.7872 41.6691 39.9656V45.9837H40.3877V41.7712C40.3834 41.5928 40.3096 41.4231 40.1819 41.2984C40.0542 41.1738 39.8828 41.104 39.7043 41.104C39.5258 41.104 39.3544 41.1738 39.2267 41.2984C39.099 41.4231 39.0252 41.5928 39.0209 41.7712V45.9837H35.0319V39.2456C35.0319 36.4794 36.1863 33.8383 38.208 31.9587H44.2996V45.9837ZM45.6663 30.592V29.1085C45.6663 28.2906 46.3318 27.625 47.1498 27.625C47.9678 27.625 48.6333 28.2906 48.6333 29.1085C48.6333 29.9265 47.9678 30.592 47.1498 30.592H45.6663Z" fill="#307FE2"/>
</svg>
