<svg width="50" height="50" viewBox="0 0 50 50" fill="none" xmlns="http://www.w3.org/2000/svg">
<path d="M13.4141 30.6649C13.567 29.8932 13.8491 29.1528 14.2485 28.475C14.7719 27.5836 13.425 26.7914 12.9008 27.6828C12.4131 28.512 12.0684 29.4173 11.8813 30.3609C11.6805 31.3758 13.2117 31.6883 13.4141 30.6649ZM17.336 38.4008C16.3496 37.936 15.4839 37.2498 14.8064 36.3955C14.1288 35.5412 13.6577 34.542 13.4297 33.4758C13.218 32.4641 11.6875 32.7852 11.9008 33.7961C12.1788 35.099 12.754 36.3201 13.5816 37.3642C14.4092 38.4082 15.4668 39.2469 16.6719 39.8149C17.6102 40.2555 18.2664 38.8367 17.336 38.4008Z" fill="#307FE2"/>
<path d="M45.3125 23.4375C45.3125 19.6648 43.3922 16.332 40.4781 14.3656C41.2529 13.7849 41.8815 13.0314 42.3139 12.165C42.7463 11.2986 42.9705 10.3433 42.9688 9.375C42.9688 5.92891 40.1648 3.125 36.7188 3.125C33.2727 3.125 30.4688 5.92891 30.4688 9.375C30.4688 10.5914 30.8102 11.7969 31.5469 12.8773C30.6868 13.1066 29.8581 13.4409 29.0797 13.8727C28.4086 12.0904 27.2097 10.5554 25.6431 9.47251C24.0766 8.38965 22.2169 7.81053 20.3125 7.8125C12.4766 7.8125 8.16562 16.868 12.918 22.95C11.2534 24.3012 9.99225 26.0839 9.27222 28.1034C8.55219 30.1228 8.40099 32.3013 8.83516 34.4008C5.49844 34.6914 3.125 37.5062 3.125 40.625C3.125 44.0711 5.92891 46.875 9.375 46.875C10.6854 46.8757 11.9627 46.4637 13.0256 45.6974C14.0886 44.9312 14.8833 43.8496 15.2969 42.6062C16.8623 43.3574 18.5762 43.7482 20.3125 43.75C26.0758 43.75 30.8695 39.5648 31.8406 34.0758C32.6711 34.2734 33.5203 34.375 34.375 34.375C40.4062 34.375 45.3125 29.4687 45.3125 23.4375ZM32.0312 9.375C32.0312 6.78984 34.1336 4.6875 36.7188 4.6875C39.3039 4.6875 41.4062 6.78984 41.4062 9.375C41.4097 10.2243 41.1801 11.0582 40.7424 11.7861C40.3048 12.514 39.6759 13.1079 38.9242 13.5031C37.4982 12.8437 35.9461 12.5015 34.375 12.5C34.0117 12.5 33.6516 12.5242 33.293 12.5594C32.4769 11.7007 32.0248 10.5596 32.0312 9.375ZM9.375 45.3125C6.78984 45.3125 4.6875 43.2102 4.6875 40.625C4.6875 38.1109 6.71406 35.982 9.27813 35.9383C10.1342 38.3469 11.7515 40.4111 13.8852 41.8187C13.3063 44.0289 11.3719 45.3125 9.375 45.3125ZM31.5992 28.8711C31.3203 27.8766 29.8156 28.2961 30.0945 29.2922C31.9062 35.775 27.0078 42.1875 20.3125 42.1875C14.7125 42.1875 10.1562 37.6313 10.1562 32.0312C10.1562 26.4312 14.7125 21.875 20.3125 21.875C23.0586 21.875 25.6313 22.9531 27.5547 24.9117C28.2781 25.6477 29.3945 24.5547 28.6695 23.8164C27.5819 22.7028 26.2818 21.8189 24.8463 21.2171C23.4108 20.6152 21.8691 20.3076 20.3125 20.3125C18.0719 20.3125 15.9844 20.9555 14.2023 22.0508C10.1602 16.9828 13.7555 9.375 20.3125 9.375C21.9616 9.37271 23.5689 9.89336 24.9035 10.8621C26.238 11.8308 27.2311 13.1978 27.7398 14.7664C26.5188 15.7031 25.4852 16.8828 24.7539 18.2352C24.2617 19.1469 25.6398 19.8859 26.1289 18.9781C26.9322 17.4911 28.1227 16.2491 29.5744 15.3837C31.0261 14.5184 32.6849 14.0618 34.375 14.0625C39.5445 14.0625 43.75 18.268 43.75 23.4375C43.75 28.607 39.5445 32.8125 34.375 32.8125C33.5742 32.8125 32.7813 32.7055 32.007 32.5031C32.0555 31.3094 31.9695 30.1938 31.5992 28.8711Z" fill="#307FE2"/>
<path d="M29.9641 16.9883C28.9334 17.6969 28.0867 18.6413 27.4945 19.743C27.0039 20.6578 28.3828 21.3898 28.8719 20.4812C29.345 19.5994 30.0225 18.8436 30.8477 18.2773C31.6984 17.6938 30.8188 16.4063 29.9641 16.9883ZM15.1742 13.6305C14.4485 14.6745 14.0604 15.916 14.0625 17.1875C14.0625 18.0406 14.232 18.868 14.5656 19.6492C14.9711 20.5969 16.4109 19.9891 16.0023 19.0344C15.7525 18.4507 15.6241 17.8224 15.625 17.1875C15.625 16.2289 15.9133 15.3078 16.4586 14.5219C17.0477 13.6711 15.7625 12.782 15.1742 13.6305ZM35.4164 10.2375C35.2453 9.98255 35.1546 9.68207 35.1562 9.375C35.1562 8.77266 35.5102 8.21719 36.057 7.95859C36.9945 7.51719 36.3227 6.10234 35.3906 6.54531C34.8547 6.79943 34.4016 7.19998 34.0836 7.7007C33.7656 8.20141 33.5958 8.78186 33.5938 9.375C33.5937 10.0008 33.7766 10.6016 34.1227 11.1133C34.6969 11.9594 36.0023 11.1016 35.4164 10.2375ZM9.375 42.1875C8.51328 42.1875 7.8125 41.4867 7.8125 40.625C7.8125 39.5906 6.25 39.5914 6.25 40.625C6.25 42.3484 7.65156 43.75 9.375 43.75C10.4086 43.75 10.4094 42.1875 9.375 42.1875ZM7.8125 12.5C10.3977 12.5 12.5 10.3977 12.5 7.8125C12.5 5.22734 10.3977 3.125 7.8125 3.125C5.22734 3.125 3.125 5.22734 3.125 7.8125C3.125 10.3977 5.22734 12.5 7.8125 12.5ZM7.8125 4.6875C9.53594 4.6875 10.9375 6.08906 10.9375 7.8125C10.9375 9.53594 9.53594 10.9375 7.8125 10.9375C6.08906 10.9375 4.6875 9.53594 4.6875 7.8125C4.6875 6.08906 6.08906 4.6875 7.8125 4.6875ZM41.0156 35.1562C37.7844 35.1562 35.1562 37.7844 35.1562 41.0156C35.1562 44.2469 37.7844 46.875 41.0156 46.875C44.2469 46.875 46.875 44.2469 46.875 41.0156C46.875 37.7844 44.2469 35.1562 41.0156 35.1562ZM41.0156 45.3125C38.6461 45.3125 36.7188 43.3844 36.7188 41.0156C36.7188 38.6469 38.6461 36.7188 41.0156 36.7188C43.3852 36.7188 45.3125 38.6469 45.3125 41.0156C45.3125 43.3844 43.3852 45.3125 41.0156 45.3125Z" fill="#307FE2"/>
<path d="M41.0156 42.1875C40.3695 42.1875 39.8438 41.6617 39.8438 41.0156C39.8438 40.8084 39.7614 40.6097 39.6149 40.4632C39.4684 40.3167 39.2697 40.2344 39.0625 40.2344C38.8553 40.2344 38.6566 40.3167 38.5101 40.4632C38.3636 40.6097 38.2812 40.8084 38.2812 41.0156C38.2812 42.5234 39.5078 43.75 41.0156 43.75C41.2228 43.75 41.4215 43.6677 41.5681 43.5212C41.7146 43.3747 41.7969 43.176 41.7969 42.9688C41.7969 42.7615 41.7146 42.5628 41.5681 42.4163C41.4215 42.2698 41.2228 42.1875 41.0156 42.1875Z" fill="#307FE2"/>
</svg>
