<svg width="220" height="83" viewBox="0 0 220 83" fill="none" xmlns="http://www.w3.org/2000/svg">
<path d="M11.624 79.104H13.108L12.478 82.198H11.512L11.96 80H3.406L2.944 82.198H1.992L2.622 79.104H3.056C3.70934 79.0667 4.26934 78.544 4.736 77.536C5.212 76.5187 5.65534 75.1233 6.066 73.35L6.794 70.2H13.402L11.624 79.104ZM6.948 73.518C6.60267 75.002 6.248 76.2247 5.884 77.186C5.52 78.138 5.09534 78.7773 4.61 79.104H10.602L12.198 71.096H7.508L6.948 73.518Z" fill="#969696"/>
<path d="M15.6045 76.598C15.5952 76.6633 15.5905 76.7613 15.5905 76.892C15.5905 77.6387 15.8005 78.208 16.2205 78.6C16.6498 78.992 17.2845 79.188 18.1245 79.188C18.6098 79.188 19.0625 79.1087 19.4825 78.95C19.9118 78.782 20.2618 78.5533 20.5325 78.264L20.9805 78.978C20.6352 79.3233 20.2012 79.594 19.6785 79.79C19.1652 79.9767 18.6192 80.07 18.0405 80.07C16.9765 80.07 16.1365 79.79 15.5205 79.23C14.9138 78.67 14.6105 77.9047 14.6105 76.934C14.6105 76.1127 14.7832 75.3707 15.1285 74.708C15.4832 74.0453 15.9685 73.5273 16.5845 73.154C17.2098 72.7713 17.9098 72.58 18.6845 72.58C19.6645 72.58 20.4438 72.86 21.0225 73.42C21.6012 73.9707 21.8905 74.7313 21.8905 75.702C21.8905 75.9727 21.8578 76.2713 21.7925 76.598H15.6045ZM18.6565 73.42C17.9192 73.42 17.2892 73.6393 16.7665 74.078C16.2438 74.5167 15.8892 75.1093 15.7025 75.856H20.9525C20.9618 75.7907 20.9665 75.702 20.9665 75.59C20.9665 74.8993 20.7565 74.3673 20.3365 73.994C19.9165 73.6113 19.3565 73.42 18.6565 73.42Z" fill="#969696"/>
<path d="M30.6448 72.636L29.1608 80H28.1668L29.4548 73.518H25.9408L25.4928 75.338C25.2034 76.458 24.9234 77.3633 24.6528 78.054C24.3821 78.7353 24.0741 79.2487 23.7288 79.594C23.3928 79.93 22.9961 80.098 22.5388 80.098C22.3521 80.098 22.1094 80.0607 21.8108 79.986L22.0488 79.132C22.2168 79.1693 22.3288 79.188 22.3848 79.188C22.8608 79.188 23.2621 78.8753 23.5888 78.25C23.9248 77.6153 24.2654 76.612 24.6108 75.24L25.2548 72.636H30.6448Z" fill="#969696"/>
<path d="M33.4705 72.636H34.4645L33.2745 78.586L39.3225 72.636H40.2745L38.8045 80H37.7825L39.0005 74.05L32.9525 80H31.9865L33.4705 72.636Z" fill="#969696"/>
<path d="M45.7971 76.262L48.1631 80H47.0291L45.0131 76.724H43.2771L42.6191 80H41.6251L43.1091 72.636H44.1031L43.4451 75.87H45.0831L48.3451 72.636H49.4651L45.7971 76.262Z" fill="#969696"/>
<path d="M57.7748 72.636L56.3048 80H55.3528L55.5908 78.838C55.2361 79.23 54.8161 79.5333 54.3308 79.748C53.8455 79.9627 53.3088 80.07 52.7208 80.07C52.0955 80.07 51.5401 79.944 51.0548 79.692C50.5695 79.44 50.1915 79.0807 49.9208 78.614C49.6501 78.138 49.5148 77.5827 49.5148 76.948C49.5148 76.1173 49.6921 75.3707 50.0468 74.708C50.4108 74.0453 50.9101 73.5273 51.5448 73.154C52.1795 72.7713 52.8888 72.58 53.6728 72.58C54.3728 72.58 54.9608 72.72 55.4368 73C55.9128 73.2707 56.2581 73.6627 56.4728 74.176L56.7808 72.636H57.7748ZM52.9308 79.188C53.5375 79.188 54.0835 79.0433 54.5688 78.754C55.0541 78.4553 55.4321 78.0447 55.7028 77.522C55.9828 76.99 56.1228 76.3973 56.1228 75.744C56.1228 75.0253 55.9081 74.4653 55.4788 74.064C55.0588 73.6533 54.4661 73.448 53.7008 73.448C53.0941 73.448 52.5481 73.5973 52.0628 73.896C51.5775 74.1947 51.1948 74.61 50.9148 75.142C50.6441 75.6647 50.5088 76.2527 50.5088 76.906C50.5088 77.6247 50.7188 78.1847 51.1388 78.586C51.5681 78.9873 52.1655 79.188 52.9308 79.188Z" fill="#969696"/>
<path d="M65.6071 73.518H62.8071L61.5191 80H60.5251L61.8131 73.518H59.0411L59.2091 72.636H65.7891L65.6071 73.518Z" fill="#969696"/>
<path d="M67.2123 72.636H68.2063L67.5623 75.898H72.1823L72.8403 72.636H73.8343L72.3643 80H71.3703L72.0143 76.752H67.3943L66.7363 80H65.7423L67.2123 72.636Z" fill="#969696"/>
<path d="M83.4779 72.636L82.0079 80H81.0559L81.2939 78.838C80.9392 79.23 80.5192 79.5333 80.0339 79.748C79.5486 79.9627 79.0119 80.07 78.4239 80.07C77.7986 80.07 77.2432 79.944 76.7579 79.692C76.2726 79.44 75.8946 79.0807 75.6239 78.614C75.3532 78.138 75.2179 77.5827 75.2179 76.948C75.2179 76.1173 75.3952 75.3707 75.7499 74.708C76.1139 74.0453 76.6132 73.5273 77.2479 73.154C77.8826 72.7713 78.5919 72.58 79.3759 72.58C80.0759 72.58 80.6639 72.72 81.1399 73C81.6159 73.2707 81.9612 73.6627 82.1759 74.176L82.4839 72.636H83.4779ZM78.6339 79.188C79.2406 79.188 79.7866 79.0433 80.2719 78.754C80.7572 78.4553 81.1352 78.0447 81.4059 77.522C81.6859 76.99 81.8259 76.3973 81.8259 75.744C81.8259 75.0253 81.6112 74.4653 81.1819 74.064C80.7619 73.6533 80.1692 73.448 79.4039 73.448C78.7972 73.448 78.2512 73.5973 77.7659 73.896C77.2806 74.1947 76.8979 74.61 76.6179 75.142C76.3472 75.6647 76.2119 76.2527 76.2119 76.906C76.2119 77.6247 76.4219 78.1847 76.8419 78.586C77.2712 78.9873 77.8686 79.188 78.6339 79.188Z" fill="#969696"/>
<path d="M91.9683 72.636L90.5123 80H89.6023L90.0923 77.522H87.5583L85.3603 80H84.2263L86.6343 77.368C85.6729 77.0787 85.1923 76.4393 85.1923 75.45C85.1923 74.5727 85.5189 73.8867 86.1723 73.392C86.8256 72.888 87.7169 72.636 88.8463 72.636H91.9683ZM90.8903 73.504H88.7763C87.9643 73.504 87.3343 73.672 86.8863 74.008C86.4383 74.344 86.2143 74.82 86.2143 75.436C86.2143 76.3413 86.8023 76.794 87.9783 76.794H90.2463L90.8903 73.504Z" fill="#969696"/>
<path d="M100.552 76.262L102.722 80H101.658L99.9082 76.934L96.9542 80H95.7782L99.4882 76.192L97.4442 72.636H98.4942L100.146 75.52L102.918 72.636H104.066L100.552 76.262Z" fill="#969696"/>
<path d="M105.849 72.636H106.843L105.653 78.586L111.701 72.636H112.653L111.183 80H110.161L111.379 74.05L105.331 80H104.365L105.849 72.636Z" fill="#969696"/>
<path d="M123.706 72.636L122.236 80H121.326L122.488 74.176L118.526 79.104H118.078L116.09 74.12L114.914 80H114.004L115.474 72.636H116.468L118.526 77.942L122.768 72.636H123.706Z" fill="#969696"/>
<path d="M132.079 72.636L130.609 80H129.615L130.217 76.962C129.321 77.3167 128.472 77.494 127.669 77.494C126.894 77.494 126.288 77.34 125.849 77.032C125.42 76.7147 125.205 76.2527 125.205 75.646C125.205 75.4873 125.228 75.282 125.275 75.03L125.751 72.636H126.745L126.269 75.044C126.241 75.184 126.227 75.3193 126.227 75.45C126.227 75.8607 126.372 76.1687 126.661 76.374C126.95 76.5793 127.356 76.682 127.879 76.682C128.626 76.682 129.466 76.486 130.399 76.094L131.085 72.636H132.079Z" fill="#969696"/>
<path d="M134.902 72.636H135.896L134.706 78.586L140.754 72.636H141.706L140.236 80H139.214L140.432 74.05L134.384 80H133.418L134.902 72.636Z" fill="#969696"/>
<path d="M146.487 80.07C145.796 80.07 145.194 79.944 144.681 79.692C144.167 79.4307 143.771 79.0667 143.491 78.6C143.22 78.124 143.085 77.5733 143.085 76.948C143.085 76.1173 143.267 75.3707 143.631 74.708C143.995 74.0453 144.503 73.5273 145.157 73.154C145.81 72.7713 146.547 72.58 147.369 72.58C148.05 72.58 148.633 72.706 149.119 72.958C149.613 73.2007 149.996 73.5647 150.267 74.05L149.427 74.54C149.007 73.812 148.293 73.448 147.285 73.448C146.678 73.448 146.127 73.5973 145.633 73.896C145.147 74.1947 144.765 74.6053 144.485 75.128C144.214 75.6507 144.079 76.2433 144.079 76.906C144.079 77.6247 144.289 78.1847 144.709 78.586C145.138 78.9873 145.745 79.188 146.529 79.188C147.005 79.188 147.443 79.0993 147.845 78.922C148.255 78.7353 148.591 78.4693 148.853 78.124L149.567 78.67C149.24 79.1087 148.801 79.454 148.251 79.706C147.709 79.9487 147.121 80.07 146.487 80.07Z" fill="#969696"/>
<path d="M157.468 73.518H154.668L153.38 80H152.386L153.674 73.518H150.902L151.07 72.636H157.65L157.468 73.518Z" fill="#969696"/>
<path d="M161.776 76.262L164.142 80H163.008L160.992 76.724H159.256L158.598 80H157.604L159.088 72.636H160.082L159.424 75.87H161.062L164.324 72.636H165.444L161.776 76.262Z" fill="#969696"/>
<path d="M173.753 72.636L172.283 80H171.331L171.569 78.838C171.215 79.23 170.795 79.5333 170.309 79.748C169.824 79.9627 169.287 80.07 168.699 80.07C168.074 80.07 167.519 79.944 167.033 79.692C166.548 79.44 166.17 79.0807 165.899 78.614C165.629 78.138 165.493 77.5827 165.493 76.948C165.493 76.1173 165.671 75.3707 166.025 74.708C166.389 74.0453 166.889 73.5273 167.523 73.154C168.158 72.7713 168.867 72.58 169.651 72.58C170.351 72.58 170.939 72.72 171.415 73C171.891 73.2707 172.237 73.6627 172.451 74.176L172.759 72.636H173.753ZM168.909 79.188C169.516 79.188 170.062 79.0433 170.547 78.754C171.033 78.4553 171.411 78.0447 171.681 77.522C171.961 76.99 172.101 76.3973 172.101 75.744C172.101 75.0253 171.887 74.4653 171.457 74.064C171.037 73.6533 170.445 73.448 169.679 73.448C169.073 73.448 168.527 73.5973 168.041 73.896C167.556 74.1947 167.173 74.61 166.893 75.142C166.623 75.6647 166.487 76.2527 166.487 76.906C166.487 77.6247 166.697 78.1847 167.117 78.586C167.547 78.9873 168.144 79.188 168.909 79.188Z" fill="#969696"/>
<path d="M190.416 72.636L188.932 80H178.768L180.238 72.636H181.232L179.958 79.132H183.556L184.844 72.636H185.838L184.55 79.132H188.134L189.422 72.636H190.416Z" fill="#969696"/>
<path d="M198.238 73.518H195.438L194.15 80H193.156L194.444 73.518H191.672L191.84 72.636H198.42L198.238 73.518Z" fill="#969696"/>
<path d="M201.405 80.07C200.733 80.07 200.145 79.944 199.641 79.692C199.137 79.4307 198.745 79.0667 198.465 78.6C198.195 78.124 198.059 77.5733 198.059 76.948C198.059 76.1173 198.241 75.3707 198.605 74.708C198.969 74.0453 199.473 73.5273 200.117 73.154C200.771 72.7713 201.503 72.58 202.315 72.58C203.342 72.58 204.154 72.86 204.751 73.42C205.358 73.98 205.661 74.736 205.661 75.688C205.661 76.5187 205.479 77.27 205.115 77.942C204.751 78.6047 204.243 79.1273 203.589 79.51C202.945 79.8833 202.217 80.07 201.405 80.07ZM201.475 79.188C202.082 79.188 202.628 79.0433 203.113 78.754C203.599 78.4553 203.977 78.0447 204.247 77.522C204.527 76.99 204.667 76.3973 204.667 75.744C204.667 75.0253 204.453 74.4653 204.023 74.064C203.603 73.6533 203.011 73.448 202.245 73.448C201.639 73.448 201.093 73.5973 200.607 73.896C200.122 74.1947 199.739 74.61 199.459 75.142C199.189 75.6647 199.053 76.2527 199.053 76.906C199.053 77.6247 199.263 78.1847 199.683 78.586C200.113 78.9873 200.71 79.188 201.475 79.188Z" fill="#969696"/>
<path d="M212.109 72.58C212.734 72.58 213.29 72.706 213.775 72.958C214.27 73.21 214.652 73.5693 214.923 74.036C215.194 74.5027 215.329 75.0533 215.329 75.688C215.329 76.5187 215.147 77.27 214.783 77.942C214.428 78.6047 213.934 79.1273 213.299 79.51C212.664 79.8833 211.95 80.07 211.157 80.07C210.457 80.07 209.869 79.9347 209.393 79.664C208.917 79.384 208.572 78.9827 208.357 78.46L207.517 82.716H206.523L208.525 72.636H209.477L209.239 73.812C209.594 73.4107 210.014 73.1073 210.499 72.902C210.984 72.6873 211.521 72.58 212.109 72.58ZM211.143 79.188C211.75 79.188 212.291 79.0433 212.767 78.754C213.252 78.4553 213.63 78.0447 213.901 77.522C214.181 76.9993 214.321 76.4067 214.321 75.744C214.321 75.0253 214.106 74.4653 213.677 74.064C213.257 73.6533 212.664 73.448 211.899 73.448C211.292 73.448 210.746 73.5973 210.261 73.896C209.785 74.1853 209.407 74.596 209.127 75.128C208.856 75.6507 208.721 76.2433 208.721 76.906C208.721 77.6247 208.931 78.1847 209.351 78.586C209.78 78.9873 210.378 79.188 211.143 79.188Z" fill="#969696"/>
<g clip-path="url(#clip0_307_4562)">
<path d="M51.863 16.083V41.939C50.8772 41.8846 49.8731 41.7758 48.8873 41.6308V41.4676C43.7757 40.1802 38.7918 36.4632 34.7755 30.8786C33.954 29.7363 33.169 28.5214 32.4387 27.2341C32.0736 28.4126 31.672 29.5912 31.2338 30.7698C31.2156 30.806 31.2156 30.8242 31.1973 30.8604C31.033 31.2775 30.8687 31.6945 30.7044 32.0934C30.3028 31.6945 29.9012 31.2956 29.5178 30.8786C26.1587 40.2346 20.8462 47.8319 15.0956 52.3648C13.7082 53.4527 12.3025 54.3775 10.8785 55.1027C10.8055 55.139 10.7507 55.1753 10.6777 55.1934C10.6777 55.1934 10.6777 55.1934 10.6594 55.1934C4.98184 54.3775 0.582166 49.5181 0.545654 43.6797V43.6615C0.545654 43.6434 0.545654 43.6253 0.545654 43.589V16.0648C0.545654 16.0104 0.545654 15.9742 0.545654 15.9198C0.545654 15.8291 0.545654 15.7203 0.545654 15.6297C0.545654 15.6115 0.545654 15.5934 0.545654 15.5753C0.545654 15.539 0.545654 15.5027 0.545654 15.4484C0.545654 15.3758 0.545654 15.3033 0.56391 15.2308C1.00205 9.17473 6.13196 4.35165 12.339 4.35165H40.0332C46.4775 4.35165 51.7535 9.53736 51.8448 15.9198C51.863 15.9742 51.863 16.0286 51.863 16.083Z" fill="white"/>
<path d="M82.4418 4.44231V24.478H77.7136V16.7176C75.7784 17.6423 73.752 18.1137 71.6343 18.1137C69.042 18.1137 67.0521 17.5154 65.6647 16.3368C64.2772 15.1582 63.5835 13.3269 63.5835 10.8791V4.44231H68.3118V10.5527C68.3118 11.822 68.6951 12.783 69.4436 13.3994C70.1921 14.0159 71.2692 14.3423 72.6567 14.3423C74.4275 14.3423 76.107 13.9615 77.7136 13.2181V4.44231H82.4418Z" fill="#307FE2"/>
<path d="M106.12 4.44231V24.478H101.629V21.9214C100.88 22.828 99.931 23.517 98.8174 24.0066C97.7038 24.4962 96.4806 24.7319 95.1662 24.7319C92.4643 24.7319 90.3466 23.9885 88.7766 22.5016C87.2066 21.0148 86.4399 18.8027 86.4399 15.8835V4.44231H91.1682V15.2489C91.1682 17.044 91.5698 18.3857 92.3913 19.2742C93.2128 20.1626 94.3812 20.5978 95.9147 20.5978C97.576 20.5978 98.9087 20.072 99.8945 19.0385C100.88 18.0049 101.391 16.5 101.391 14.5599V4.44231H106.12Z" fill="#307FE2"/>
<path d="M114.298 23.4264C112.637 22.556 111.341 21.3231 110.41 19.7637C109.479 18.2044 109.004 16.4275 109.004 14.4511C109.004 12.4747 109.479 10.7159 110.41 9.15659C111.341 7.59725 112.637 6.40055 114.28 5.51209C115.923 4.64176 117.804 4.20659 119.921 4.20659C121.911 4.20659 123.645 4.60549 125.161 5.4033C126.658 6.2011 127.79 7.36154 128.538 8.84835L124.905 10.9516C124.321 10.0269 123.609 9.33791 122.733 8.86648C121.856 8.39505 120.907 8.17747 119.885 8.17747C118.114 8.17747 116.653 8.73956 115.503 9.88187C114.353 11.0242 113.769 12.5473 113.769 14.433C113.769 16.3368 114.335 17.8599 115.485 18.9841C116.635 20.1264 118.096 20.6885 119.885 20.6885C120.925 20.6885 121.875 20.4527 122.733 19.9995C123.609 19.528 124.321 18.839 124.905 17.9143L128.538 20.0176C127.753 21.5225 126.621 22.683 125.124 23.4808C123.627 24.2967 121.893 24.6956 119.94 24.6956C117.84 24.75 115.96 24.2967 114.298 23.4264Z" fill="#307FE2"/>
<path d="M162.457 6.41868C163.936 7.88736 164.685 10.0813 164.685 13.0005V24.478H159.956V13.5989C159.956 11.8401 159.573 10.5346 158.788 9.64615C158.003 8.75769 156.889 8.32253 155.429 8.32253C153.841 8.32253 152.563 8.84835 151.613 9.88187C150.664 10.9154 150.171 12.4022 150.171 14.3242V24.478H145.443V13.5989C145.443 11.8401 145.06 10.5346 144.275 9.64615C143.49 8.75769 142.376 8.32253 140.916 8.32253C139.309 8.32253 138.031 8.83022 137.082 9.86374C136.132 10.8973 135.658 12.3841 135.658 14.3242V24.478H130.93V4.44231H135.42V6.9989C136.169 6.09231 137.118 5.4033 138.25 4.93187C139.382 4.46044 140.642 4.22472 142.029 4.22472C143.544 4.22472 144.877 4.51483 146.045 5.07692C147.214 5.63901 148.145 6.47308 148.82 7.57912C149.66 6.52747 150.719 5.71154 152.033 5.11319C153.348 4.53297 154.79 4.22472 156.378 4.22472C158.952 4.22472 160.961 4.95 162.457 6.41868Z" fill="#307FE2"/>
<path d="M170.6 22.9005C169.048 21.5044 168.281 19.4736 168.281 16.8264V4.44231H172.973V11.6407C173.557 11.1692 174.342 10.7703 175.346 10.444C176.35 10.1176 177.5 9.95439 178.778 9.95439C181.243 9.95439 183.178 10.5709 184.565 11.822C185.953 13.0731 186.647 14.85 186.647 17.1527C186.647 19.6005 185.825 21.5225 184.164 22.9187C182.521 24.3148 180.294 25.0038 177.5 25.0038C174.433 25.0038 172.151 24.2967 170.6 22.9005ZM180.695 20.3258C181.444 19.5099 181.827 18.4764 181.827 17.2253C181.827 16.0286 181.444 15.0676 180.677 14.3423C179.91 13.617 178.815 13.2544 177.409 13.2544C176.368 13.2544 175.474 13.4538 174.707 13.8527C173.94 14.2516 173.356 14.8137 172.955 15.539V17.2253C172.955 18.567 173.338 19.6368 174.123 20.3983C174.908 21.1599 176.022 21.5407 177.482 21.5407C178.87 21.5588 179.947 21.1418 180.695 20.3258ZM189.166 4.44231H193.894V24.478H189.166V4.44231Z" fill="#307FE2"/>
<path d="M213.501 18.5852L216.002 21.4681C215.126 22.5379 213.994 23.3538 212.606 23.8978C211.219 24.4418 209.667 24.7319 207.915 24.7319C205.706 24.7319 203.752 24.2967 202.055 23.4264C200.375 22.556 199.061 21.3231 198.148 19.7637C197.235 18.2044 196.76 16.4275 196.76 14.4511C196.76 12.4929 197.198 10.7522 198.093 9.17472C198.988 7.61538 200.229 6.40055 201.799 5.51209C203.369 4.64176 205.158 4.20659 207.148 4.20659C209.028 4.20659 210.763 4.60549 212.296 5.42143C213.848 6.23736 215.071 7.3978 215.984 8.90275C216.897 10.4077 217.335 12.1846 217.335 14.2154L201.89 17.2253C202.365 18.3676 203.132 19.256 204.19 19.8544C205.249 20.4527 206.527 20.761 208.006 20.761C210.215 20.761 212.041 20.0357 213.501 18.5852ZM202.949 9.66428C201.872 10.7885 201.343 12.3115 201.343 14.1973V14.2335L212.753 12.0577C212.424 10.8247 211.767 9.8456 210.763 9.1022C209.759 8.35879 208.572 7.97802 207.148 7.97802C205.414 7.97802 204.008 8.54011 202.949 9.66428Z" fill="#307FE2"/>
<path d="M93.3224 35.194V50.4066C93.3224 53.072 91.1499 55.2297 88.4663 55.2297H68.4396C65.7559 55.2297 63.5835 53.072 63.5835 50.4066V35.194H68.3118V51.2588H76.1436V35.194H80.8718V51.2588H88.6123V35.194H93.3224Z" fill="#307FE2"/>
<path d="M129.159 37.1703C130.637 38.639 131.386 40.833 131.386 43.7522V55.2297H126.658V44.3505C126.658 42.5918 126.274 41.2863 125.489 40.3978C124.704 39.5093 123.591 39.0742 122.13 39.0742C120.542 39.0742 119.264 39.6 118.315 40.6335C117.365 41.667 116.872 43.1538 116.872 45.0758V55.2478H112.144V44.3687C112.144 42.6099 111.761 41.3044 110.976 40.4159C110.191 39.5275 109.077 39.0923 107.617 39.0923C106.01 39.0923 104.732 39.6 103.783 40.6335C102.834 41.667 102.359 43.1538 102.359 45.094V55.2659H97.6308V35.194H102.122V37.7505C102.87 36.844 103.82 36.1549 104.951 35.6835C106.083 35.2121 107.343 34.9764 108.73 34.9764C110.246 34.9764 111.578 35.2665 112.747 35.8286C113.915 36.3907 114.846 37.2247 115.522 38.3308C116.361 37.2791 117.42 36.4632 118.735 35.8648C120.049 35.2846 121.491 34.9764 123.079 34.9764C125.672 34.9764 127.68 35.7016 129.159 37.1703Z" fill="#307FE2"/>
<path d="M139.09 54.178C137.447 53.3077 136.169 52.0747 135.256 50.5154C134.343 48.956 133.869 47.1791 133.869 45.2027C133.869 43.2264 134.325 41.4676 135.256 39.9082C136.169 38.3489 137.447 37.1522 139.09 36.2637C140.733 35.3934 142.559 34.9582 144.603 34.9582C146.666 34.9582 148.51 35.3934 150.153 36.2637C151.796 37.1341 153.074 38.3489 153.987 39.9082C154.9 41.4676 155.374 43.2264 155.374 45.2027C155.374 47.1791 154.918 48.956 153.987 50.5154C153.074 52.0747 151.796 53.2896 150.153 54.178C148.51 55.0483 146.666 55.4835 144.603 55.4835C142.559 55.4835 140.733 55.0483 139.09 54.178ZM148.912 49.7538C150.043 48.6115 150.609 47.0885 150.609 45.2209C150.609 43.3533 150.043 41.8302 148.912 40.6879C147.78 39.5456 146.338 38.9654 144.603 38.9654C142.869 38.9654 141.445 39.5456 140.313 40.6879C139.199 41.8302 138.634 43.3533 138.634 45.2209C138.634 47.0885 139.199 48.6115 140.313 49.7538C141.427 50.8962 142.869 51.4764 144.603 51.4764C146.338 51.4764 147.78 50.8962 148.912 49.7538Z" fill="#307FE2"/>
<path d="M173.758 36.2456C175.328 37.0978 176.551 38.2945 177.427 39.8538C178.304 41.4132 178.724 43.2082 178.724 45.2571C178.724 47.2879 178.304 49.0648 177.482 50.6242C176.642 52.1835 175.492 53.3802 173.995 54.2324C172.498 55.0846 170.764 55.5016 168.811 55.5016C166.017 55.5016 163.827 54.6132 162.238 52.8363V62.5187H157.474V45.2934C157.474 43.2626 157.93 41.4676 158.825 39.9082C159.737 38.3489 160.997 37.1341 162.622 36.2637C164.247 35.3934 166.127 34.9764 168.263 34.9764C170.362 34.9764 172.188 35.3934 173.758 36.2456ZM172.389 49.772C173.502 48.6115 174.05 47.1066 174.05 45.2571C174.05 43.4077 173.502 41.8846 172.389 40.7242C171.275 39.5456 169.851 38.9654 168.08 38.9654C166.291 38.9654 164.849 39.5456 163.772 40.6879C162.695 41.8302 162.147 43.3533 162.147 45.2209C162.147 47.0885 162.695 48.6115 163.79 49.772C164.886 50.9324 166.309 51.5126 168.08 51.5126C169.851 51.5126 171.275 50.9324 172.389 49.772Z" fill="#307FE2"/>
<path d="M183.598 53.6522C182.046 52.256 181.279 50.2253 181.279 47.578V35.194H185.971V42.3923C186.555 41.9209 187.34 41.522 188.344 41.1956C189.348 40.8692 190.499 40.706 191.777 40.706C194.241 40.706 196.176 41.3225 197.564 42.5736C198.951 43.8247 199.645 45.6017 199.645 47.9044C199.645 50.3522 198.823 52.2742 197.162 53.6703C195.519 55.0665 193.292 55.7555 190.499 55.7555C187.45 55.7555 185.15 55.0484 183.598 53.6522ZM193.712 51.0775C194.46 50.2615 194.843 49.228 194.843 47.9769C194.843 46.7802 194.46 45.8192 193.693 45.094C192.927 44.3687 191.831 44.006 190.426 44.006C189.385 44.006 188.49 44.2055 187.724 44.6044C186.957 45.0033 186.373 45.5654 185.971 46.2907V47.9769C185.971 49.3187 186.354 50.3885 187.14 51.15C187.925 51.9115 189.038 52.2923 190.499 52.2923C191.886 52.2923 192.945 51.8934 193.712 51.0775ZM202.164 35.194H206.892V55.2297H202.164V35.194Z" fill="#307FE2"/>
<path d="M39.9967 4.35165H12.4303C6.69795 4.35165 1.89665 8.41319 0.801292 13.7984C0.636988 14.5599 0.563965 15.3396 0.563965 16.1555V43.5527C0.563965 43.589 0.563965 43.6434 0.563965 43.6797C0.563965 43.8791 0.582221 44.0786 0.582221 44.278C0.582221 44.3143 0.582221 44.3505 0.582221 44.3868C0.983851 49.917 5.23748 54.3956 10.6777 55.1934C11.2437 55.2841 11.8279 55.3203 12.4121 55.3203H39.9967C46.5506 55.3203 51.8631 50.0258 51.8631 43.5346V16.1374C51.8631 9.64615 46.5323 4.35165 39.9967 4.35165ZM48.8874 43.5165C48.8874 48.394 44.8893 52.3467 39.9967 52.3467H12.4303C7.51947 52.3467 3.53968 48.3758 3.53968 43.5165V16.1374C3.53968 11.2599 7.53772 7.30714 12.4303 7.30714H39.9967C44.9076 7.30714 48.8874 11.278 48.8874 16.1374V43.5165Z" fill="url(#paint0_linear_307_4562)"/>
<path d="M31.4388 27.2159C31.0737 28.3945 30.672 29.5731 30.2339 30.7516C30.2156 30.7879 30.2156 30.806 30.1974 30.8423C30.0331 31.2593 29.8688 31.6764 29.7045 32.0753C26.1263 40.8874 20.6861 48.0313 14.8442 52.3467C13.3289 53.4709 11.7772 54.4137 10.2254 55.1209C10.1159 55.1027 9.98809 55.0846 9.87855 55.0665C4.3105 54.1599 -0.0161491 49.7538 -0.417779 44.3687C-0.417779 44.3324 -0.417779 44.2962 -0.417779 44.2599C-0.436035 44.0604 -0.436035 43.861 -0.436035 43.6615C-0.436035 43.6253 -0.436035 43.5709 -0.436035 43.5346V16.0648C-0.436035 16.0104 -0.436035 15.9742 -0.436035 15.9198C-0.436035 15.8291 -0.436035 15.7203 -0.436035 15.6297C-0.436035 15.6115 -0.436035 15.5934 -0.436035 15.5753C-0.436035 15.539 -0.436035 15.5027 -0.436035 15.4483C-0.399523 14.8863 -0.3265 14.3242 -0.216964 13.7802C0.933158 8.43132 6.0083 4.35165 12.051 4.35165H32.6802C32.9358 5.29451 33.1366 6.29176 33.2826 7.30714C34.1954 13.1093 33.6295 20.0538 31.4388 27.2159Z" fill="url(#paint1_linear_307_4562)"/>
<path d="M51.8632 16.083V41.939C50.8774 41.8665 49.8733 41.7214 48.8875 41.4676C43.7758 40.1802 38.792 36.4632 34.7757 30.8786C33.9542 29.7363 33.1691 28.5214 32.4389 27.2341C31.2158 25.0764 30.1204 22.7011 29.1894 20.1264C27.6559 15.9198 26.7248 11.5863 26.3232 7.32527C26.2319 6.32802 26.1589 5.3489 26.1406 4.36978H42.8448C47.7739 4.36978 51.8084 9.55549 51.8815 15.9379C51.8632 15.9742 51.8632 16.0286 51.8632 16.083Z" fill="url(#paint2_linear_307_4562)"/>
</g>
<defs>
<linearGradient id="paint0_linear_307_4562" x1="19.4687" y1="2.30639" x2="32.7859" y2="57.3892" gradientUnits="userSpaceOnUse">
<stop stop-color="#1892FF"/>
<stop offset="1" stop-color="#307FE2"/>
</linearGradient>
<linearGradient id="paint1_linear_307_4562" x1="11.124" y1="4.19385" x2="22.7096" y2="52.1143" gradientUnits="userSpaceOnUse">
<stop offset="0.4341" stop-color="#1892FF"/>
<stop offset="1" stop-color="#307FE2"/>
</linearGradient>
<linearGradient id="paint2_linear_307_4562" x1="36.6051" y1="1.81815" x2="46.6099" y2="43.2001" gradientUnits="userSpaceOnUse">
<stop stop-color="#69C8FF"/>
<stop offset="1" stop-color="#307FE2"/>
</linearGradient>
<clipPath id="clip0_307_4562">
<rect width="220" height="66" fill="white"/>
</clipPath>
</defs>
</svg>
