<svg width="46" height="46" viewBox="0 0 46 46" fill="none" xmlns="http://www.w3.org/2000/svg">
<path d="M45.9934 6.36377C45.9934 2.85477 43.1388 0 39.6298 0C36.5813 0 34.0278 2.1551 33.4098 5.02155H24.5831C23.3834 5.02155 22.2556 5.48863 21.407 6.33691L1.32255 26.4166C0.474002 27.265 0.00656129 28.3931 0.00656129 29.593C0.00647145 30.793 0.473732 31.9212 1.32228 32.7697L13.2368 44.6842C14.0852 45.5326 15.2132 45.9999 16.4131 45.9999C17.6129 45.9999 18.7409 45.5326 19.5894 44.6842L26.538 37.7356C26.8888 37.3847 26.8888 36.8159 26.538 36.4649C26.1871 36.1142 25.6184 36.1142 25.2674 36.4649L18.3188 43.4136C17.2679 44.4644 15.5581 44.4644 14.5072 43.4136L2.59271 31.4992C2.08359 30.9901 1.80319 30.3132 1.80328 29.5931C1.80328 28.8731 2.08368 28.1964 2.59289 27.6873L22.6775 7.60761C23.1865 7.09866 23.8633 6.81836 24.5831 6.81836H33.2839C33.3911 8.34673 34.0358 9.76945 35.1298 10.8634C35.4807 11.2144 36.0495 11.2144 36.4004 10.8635C36.7513 10.5127 36.7513 9.94392 36.4004 9.593C35.646 8.83843 35.188 7.86635 35.0852 6.81827H36.4982C37.9843 6.81827 39.1934 8.02735 39.1934 9.51349V21.4228C39.1934 22.1427 38.9131 22.8195 38.404 23.3285L30.9849 30.7477C30.634 31.0985 30.634 31.6674 30.9849 32.0183C31.3358 32.369 31.9045 32.369 32.2555 32.0183L39.6746 24.5992C40.523 23.7507 40.9903 22.6227 40.9903 21.4228V12.5807C43.8874 11.9552 45.9934 9.39876 45.9934 6.36377V6.36377ZM40.9902 10.7254V9.51349C40.9902 7.03658 38.9751 5.02146 36.4982 5.02146H35.2645C35.8392 3.15628 37.5786 1.79681 39.6298 1.79681C42.1479 1.79681 44.1966 3.84554 44.1966 6.36377C44.1966 8.40593 42.8688 10.1461 40.9902 10.7254V10.7254Z" fill="#4986EB"/>
<path d="M12.3962 29.5444C12.747 29.1936 12.747 28.6247 12.3962 28.2738C12.0453 27.9231 11.4766 27.9231 11.1256 28.2738L8.96286 30.4366C8.61203 30.7874 8.61203 31.3563 8.96286 31.7072L14.299 37.0434C14.4745 37.2188 14.7044 37.3066 14.9343 37.3066C15.1642 37.3066 15.3941 37.2188 15.5696 37.0434C15.9204 36.6926 15.9204 36.1237 15.5696 35.7728L13.4862 33.6894L14.8418 32.3337C15.1927 31.9829 15.1927 31.414 14.8418 31.0631C14.4909 30.7124 13.9222 30.7124 13.5712 31.0631L12.2155 32.4188L10.8685 31.0717L12.3962 29.5444Z" fill="#4986EB"/>
<path d="M23.0011 29.2409C23.4711 29.2409 23.8665 28.8754 23.8968 28.3997C23.9284 27.9045 23.5526 27.4775 23.0574 27.4459L20.0874 27.2566C20.337 26.8274 20.4786 26.3418 20.4943 25.8368C20.5191 25.0422 20.232 24.3039 19.686 23.7578C18.5711 22.6429 16.7218 22.6779 15.5633 23.8362L14.1452 25.2543C14.145 25.2546 14.1447 25.2549 14.1444 25.2552C14.1441 25.2555 14.1438 25.2557 14.1435 25.256C13.7927 25.6068 13.7927 26.1757 14.1435 26.5266L19.4798 31.8628C19.6552 32.0381 19.8851 32.1259 20.115 32.1259C20.3449 32.1259 20.5748 32.0381 20.7503 31.8628C21.1011 31.512 21.1011 30.9431 20.7503 30.5922L19.1555 28.9975L22.9429 29.239C22.9625 29.2402 22.9819 29.2409 23.0011 29.2409V29.2409ZM16.834 25.1068C17.2839 24.6568 18.0081 24.6209 18.4155 25.0283C18.6072 25.22 18.7076 25.4871 18.6984 25.7807C18.6889 26.0876 18.5571 26.3897 18.337 26.6098C18.1569 26.7899 17.8466 27.1028 17.5632 27.389C17.2834 27.112 16.9796 26.8108 16.8063 26.6376C16.6581 26.4894 16.3449 26.1778 16.0531 25.8876L16.834 25.1068Z" fill="#4986EB"/>
<path d="M31.7508 20.8624L33.9993 18.614C34.3501 18.2631 34.3501 17.6943 33.9993 17.3434C33.6484 16.9926 33.0797 16.9926 32.7287 17.3434L31.1155 18.9565L29.7179 17.559L31.1653 16.1116C31.5161 15.7607 31.5161 15.1919 31.1653 14.8409C30.8143 14.4902 30.2457 14.4902 29.8946 14.8409L28.4473 16.2884L27.0497 14.8907L28.6629 13.2775C29.0138 12.9267 29.0138 12.3578 28.6629 12.0069C28.312 11.6562 27.7433 11.6562 27.3923 12.0069L25.1439 14.2554C24.793 14.6062 24.793 15.1751 25.1439 15.526L27.8116 18.1937L27.812 18.1942C27.812 18.1942 27.8123 18.1944 27.8125 18.1946L30.4801 20.8623C30.6487 21.0308 30.8771 21.1255 31.1154 21.1255C31.3537 21.1255 31.5823 21.0309 31.7508 20.8624Z" fill="#4986EB"/>
<path d="M25.9051 26.3361C26.1433 26.3361 26.3718 26.2414 26.5403 26.0729L28.7888 23.8245C29.1396 23.4736 29.1396 22.9048 28.7888 22.5539C28.4379 22.2031 27.8692 22.2031 27.5182 22.5539L25.905 24.167L24.5074 22.7695L25.9549 21.3221C26.3058 20.9712 26.3058 20.4024 25.9549 20.0514C25.6041 19.7009 25.0354 19.7007 24.6843 20.0514L23.2369 21.4989L21.8393 20.1013L23.4526 18.4881C23.8034 18.1373 23.8034 17.5684 23.4526 17.2175C23.1017 16.8668 22.533 16.8668 22.182 17.2175L19.9336 19.4659C19.5827 19.8168 19.5827 20.3856 19.9336 20.7366L25.2697 26.0728C25.4383 26.2414 25.6667 26.3361 25.9051 26.3361V26.3361Z" fill="#4986EB"/>
<path d="M28.7615 33.3434C28.5252 33.3434 28.2934 33.4395 28.1263 33.6066C27.9593 33.7737 27.8631 34.0055 27.8631 34.2418C27.8631 34.4781 27.9592 34.7099 28.1263 34.877C28.2934 35.044 28.5252 35.1402 28.7615 35.1402C28.9978 35.1402 29.2296 35.0441 29.3967 34.877C29.5637 34.7099 29.66 34.4781 29.66 34.2418C29.66 34.0055 29.5638 33.7737 29.3967 33.6066C29.2296 33.4395 28.9978 33.3434 28.7615 33.3434Z" fill="#4986EB"/>
</svg>
