<svg width="46" height="46" viewBox="0 0 46 46" fill="none" xmlns="http://www.w3.org/2000/svg">
<g clip-path="url(#clip0_9_205)">
<path d="M23 0C13.6301 0 6.00739 7.62269 6.00739 16.9926C6.00739 20.0773 7.39078 23.3948 7.44876 23.5348C7.89556 24.5953 8.77718 26.2426 9.4129 27.2082L21.0638 44.8615C21.5406 45.5852 22.2463 46 23 46C23.7537 46 24.4594 45.5852 24.9362 44.8625L36.5881 27.2082C37.2248 26.2426 38.1054 24.5953 38.5522 23.5348C38.6102 23.3958 39.9926 20.0783 39.9926 16.9926C39.9926 7.62269 32.3699 0 23 0ZM36.709 22.7591C36.3102 23.7097 35.4896 25.242 34.9188 26.1076L23.2669 43.762C23.037 44.1108 22.964 44.1108 22.7341 43.762L11.0822 26.1076C10.5114 25.242 9.69078 23.7087 9.29196 22.7581C9.27496 22.7171 8.00652 19.6635 8.00652 16.9926C8.00652 8.72521 14.7326 1.99913 23 1.99913C31.2674 1.99913 37.9935 8.72521 37.9935 16.9926C37.9935 19.6674 36.722 22.7291 36.709 22.7591Z" fill="#4986EB"/>
<path d="M23 7.99753C18.0392 7.99753 14.0039 12.0338 14.0039 16.9936C14.0039 21.9535 18.0392 25.9897 23 25.9897C27.9608 25.9897 31.9961 21.9535 31.9961 16.9936C31.9961 12.0338 27.9608 7.99753 23 7.99753ZM23 23.9906C19.1427 23.9906 16.003 20.8519 16.003 16.9936C16.003 13.1353 19.1427 9.99666 23 9.99666C26.8573 9.99666 29.997 13.1353 29.997 16.9936C29.997 20.8519 26.8573 23.9906 23 23.9906Z" fill="#4986EB"/>
</g>
<defs>
<clipPath id="clip0_9_205">
<rect width="46" height="46" fill="white"/>
</clipPath>
</defs>
</svg>
