<svg width="46" height="46" viewBox="0 0 46 46" fill="none" xmlns="http://www.w3.org/2000/svg">
<path d="M40.8129 9.66803L38.0867 9.2718L36.8675 6.80145C36.4562 5.96724 35.2658 5.96759 34.8541 6.80145L33.6349 9.2718L30.9087 9.66803C29.9885 9.80174 29.6207 10.9336 30.2865 11.5828L32.2592 13.5057L31.7935 16.221C31.6359 17.1412 32.6028 17.8354 33.4226 17.4044L35.861 16.1224L38.2994 17.4044C39.122 17.8371 40.0854 17.138 39.9282 16.221L39.4625 13.5057L41.4352 11.5828C42.1013 10.9336 41.7335 9.80174 40.8129 9.66803V9.66803ZM38.437 12.6234C38.1724 12.8813 38.052 13.2527 38.1141 13.6169L38.523 15.9992L36.3832 14.8744C36.0565 14.7024 35.6655 14.7024 35.3384 14.8744L33.199 15.9992L33.6075 13.6166C33.67 13.2527 33.5493 12.8813 33.2847 12.6234L31.5538 10.936L33.9458 10.5886C34.3115 10.5352 34.6274 10.3057 34.7909 9.97441L35.8606 7.80693L36.9303 9.97441C37.0939 10.3057 37.4101 10.5352 37.7758 10.5886L40.1679 10.936L38.437 12.6234Z" fill="#4986EB"/>
<path d="M4.95789 6.80145L3.73869 9.2718L1.01249 9.66803C0.091942 9.80174 -0.275505 10.9336 0.390251 11.5828L2.36295 13.5057L1.89724 16.2207C1.73931 17.1409 2.70654 17.8354 3.52601 17.4044L5.96478 16.1224L8.40319 17.4044C9.22582 17.8375 10.1892 17.1373 10.032 16.221L9.56625 13.5057L11.5389 11.5828C12.2051 10.9336 11.8369 9.80139 10.9167 9.66768L8.19051 9.27145L6.97131 6.8011C6.55964 5.96724 5.36956 5.96759 4.95789 6.80145ZM7.03448 9.97441C7.19802 10.3057 7.51423 10.5352 7.87992 10.5886L10.2717 10.936L8.54112 12.623C8.27615 12.8813 8.15542 13.2527 8.21789 13.6169L8.6264 15.9992L6.48699 14.8748C6.15991 14.7028 5.7693 14.7024 5.44221 14.8748L3.30245 15.9996L3.71131 13.6173C3.77378 13.253 3.65305 12.8817 3.38844 12.6234L1.65754 10.9364L4.04928 10.5886C4.41497 10.5356 4.73118 10.3061 4.89472 9.97441L5.96442 7.80693L7.03448 9.97441Z" fill="#4986EB"/>
<path d="M9.28163 42.9541C9.28163 43.1317 9.13739 43.2763 8.95981 43.2763H6.88708C6.51472 43.2763 6.21326 43.5777 6.21326 43.9501C6.21326 44.3221 6.51472 44.6239 6.88708 44.6239H8.95981C9.78244 44.6239 10.4668 44.0248 10.603 43.2405L11.0799 43.2401H11.0813C13.4337 43.2401 13.3657 46.0004 17.0815 46H17.0879H28.9048C30.3377 46 31.5036 44.8341 31.5036 43.4012C31.5036 42.7211 31.2411 42.1013 30.8118 41.6377C31.4425 41.179 31.8643 40.4543 31.8917 39.64C31.9138 38.9736 31.6875 38.3405 31.2526 37.8432C31.9272 37.388 32.3834 36.6362 32.4108 35.788C32.4353 35.0338 32.1427 34.3322 31.6103 33.816C33.4633 32.2644 32.3711 29.2259 29.9432 29.2259C29.9429 29.2259 29.9418 29.2259 29.9415 29.2259H22.4002C23.5134 25.8269 23.4797 26.1028 23.4797 22.117C23.4797 20.4896 22.1556 19.1655 20.5282 19.1655C19.0535 19.1655 17.7957 20.2682 17.6027 21.7303C17.1184 25.391 16.533 25.7711 13.9921 28.218C13.2997 28.8848 12.3886 29.2522 11.4274 29.2522H10.5405C10.3173 28.5928 9.69365 28.1162 8.95981 28.1162H1.66983C0.748932 28.1162 0 28.8651 0 29.786V42.9544C0 43.875 0.748932 44.6239 1.66983 44.6239H3.7422C4.11456 44.6239 4.41603 44.3224 4.41603 43.9501C4.41603 43.5781 4.11456 43.2763 3.7422 43.2763H1.66983C1.49225 43.2763 1.34766 43.132 1.34766 42.9544V29.7857C1.34766 29.6081 1.49225 29.4638 1.66983 29.4638H8.95981C9.13739 29.4638 9.28163 29.6081 9.28163 29.7857V42.9541ZM10.6293 30.5995H11.427C12.7389 30.5995 13.9819 30.0984 14.9267 29.1887C17.6104 26.6046 18.3997 25.9838 18.9384 21.9068C19.0434 21.1122 19.7267 20.5132 20.5282 20.5132C21.4123 20.5132 22.1317 21.2326 22.1317 22.1167C22.1317 26.0487 22.1998 25.5072 20.9708 29.2589C20.7588 29.906 21.2421 30.5732 21.9233 30.5732H29.9418H29.9429C30.6336 30.5732 31.1954 31.1323 31.1961 31.8201C31.1965 32.5112 30.6346 33.0741 29.9443 33.0744C28.7451 33.0755 31.7556 33.0751 26.7197 33.0751C26.3477 33.0751 26.0459 33.377 26.0459 33.749C26.0459 34.1213 26.3477 34.4228 26.7197 34.4228H29.7814H29.7832H29.7846C30.5034 34.4228 31.087 35.0233 31.0635 35.7441C31.0421 36.4106 30.4584 36.9532 29.7621 36.9532C28.2071 36.9532 30.2303 36.9539 26.7197 36.9539C26.3477 36.9539 26.0459 37.2557 26.0459 37.6277C26.0459 37.9997 26.3477 38.3015 26.7197 38.3015C31.379 38.3015 27.5855 38.3008 29.2943 38.3008C29.9948 38.3008 30.5683 38.8781 30.5444 39.5951C30.5223 40.2609 29.9387 40.8027 29.2438 40.8027C29.2438 40.8027 29.1585 40.8035 26.7197 40.8035C26.3474 40.8035 26.0459 41.1053 26.0459 41.4773C26.0459 41.8496 26.3474 42.1511 26.7197 42.1511H28.9202C29.6028 42.1595 30.1556 42.7168 30.1556 43.4016C30.1556 44.0912 29.5944 44.6523 28.9048 44.6523H17.0875C17.0854 44.6523 17.0836 44.6523 17.0819 44.6523C13.95 44.6523 14.2329 41.8925 11.0824 41.8925C11.0813 41.8925 11.0803 41.8925 11.0796 41.8925L10.6293 41.8928V30.5995Z" fill="#4986EB"/>
<path d="M26.3091 9.38972C26.0427 9.64943 26.0375 10.0762 26.2972 10.3426C26.5572 10.6093 26.9836 10.6145 27.25 10.3548L29.6358 8.02943C30.4661 7.21979 30.0074 5.80861 28.8602 5.64191L24.2627 4.97404C24.2459 4.97159 24.2311 4.96106 24.2238 4.94562L22.1679 0.779816C21.6548 -0.260056 20.1706 -0.259705 19.6579 0.779816L17.6016 4.94562C17.5943 4.96106 17.5795 4.97159 17.5627 4.97404L12.9652 5.64191C11.8179 5.80896 11.3596 7.22014 12.1896 8.02943L15.5163 11.2719C15.5286 11.2838 15.5342 11.301 15.5314 11.3179L14.7459 15.8967C14.5491 17.0436 15.7546 17.9094 16.7766 17.3721L20.8887 15.2103C20.9037 15.2025 20.9216 15.2022 20.9367 15.2103L25.0488 17.3721C26.0747 17.9115 27.2756 17.0394 27.0795 15.8967L26.566 12.9035C26.5032 12.5364 26.1543 12.2896 25.7883 12.3528C25.4212 12.416 25.1748 12.7641 25.238 13.1312L25.7514 16.1245C25.7536 16.1378 25.7567 16.1564 25.7307 16.1754C25.7048 16.194 25.6883 16.1856 25.6763 16.1792L21.5642 14.0174C21.1564 13.8029 20.6693 13.8029 20.2615 14.0174L16.1494 16.1792C16.1375 16.1856 16.121 16.194 16.095 16.1754C16.069 16.1564 16.0722 16.1378 16.0743 16.1245L16.8597 11.546C16.9376 11.0918 16.7874 10.6286 16.4572 10.3071L13.1305 7.06432C13.121 7.05484 13.1073 7.04185 13.1175 7.01132C13.1274 6.98044 13.146 6.97798 13.1593 6.97588L17.7568 6.30801C18.2126 6.24168 18.6064 5.95531 18.8107 5.54224L20.8665 1.37608C20.8725 1.36415 20.8809 1.34731 20.9129 1.34731C20.9452 1.34731 20.9532 1.36415 20.9595 1.37608L23.0154 5.54188C23.2193 5.95531 23.6131 6.24168 24.0693 6.30766L28.6668 6.97588C28.6801 6.97763 28.6984 6.98044 28.7086 7.01097C28.7184 7.04185 28.7051 7.05484 28.6956 7.06432L26.3091 9.38972Z" fill="#4986EB"/>
</svg>
