<svg width="46" height="46" viewBox="0 0 46 46" fill="none" xmlns="http://www.w3.org/2000/svg">
<path d="M31.0859 28.6602C30.5898 28.6602 30.1875 29.0624 30.1875 29.5586V35.7578C30.1875 38.2348 28.1723 40.25 25.6953 40.25H15.9951C15.499 40.25 15.097 40.6519 15.0966 41.1478L15.0954 42.9341L12.951 40.7898C12.8122 40.4711 12.4945 40.25 12.127 40.25H6.28906C3.81207 40.25 1.79688 38.2348 1.79688 35.7578V21.9219C1.79688 19.4449 3.81207 17.4297 6.28906 17.4297H15.3633C15.8594 17.4297 16.2617 17.0275 16.2617 16.5312C16.2617 16.035 15.8594 15.6328 15.3633 15.6328H6.28906C2.82127 15.6328 0 18.4541 0 21.9219V35.7578C0 39.2256 2.82127 42.0469 6.28906 42.0469H11.6669L15.3569 45.7368C15.5288 45.9087 15.7585 46 15.9924 46C16.108 46 16.2247 45.9776 16.3357 45.9317C16.6714 45.7928 16.8904 45.4654 16.8906 45.1022L16.8928 42.0469H25.6953C29.1631 42.0469 31.9844 39.2256 31.9844 35.7578V29.5586C31.9844 29.0624 31.5821 28.6602 31.0859 28.6602Z" fill="#4986EB"/>
<path d="M32.9417 0H30.6678C23.4674 0 17.6094 5.85799 17.6094 13.0584C17.6094 20.2589 23.4674 26.1168 30.6677 26.1168H32.9416C34.0654 26.1168 35.1778 25.974 36.2559 25.6919L39.6149 29.049C39.7868 29.2207 40.0164 29.312 40.2502 29.312C40.366 29.312 40.4828 29.2896 40.5939 29.2435C40.9296 29.1044 41.1484 28.7769 41.1484 28.4135V23.2155C42.5706 22.0638 43.7519 20.609 44.581 18.9837C45.5227 17.1378 46 15.1442 46 13.0584C46 5.85799 40.142 0 32.9417 0ZM39.7094 22.0598C39.4842 22.2295 39.3516 22.4953 39.3516 22.7775V26.2454L37.153 24.048C36.9819 23.8771 36.7525 23.7851 36.5178 23.7851C36.4298 23.7851 36.3408 23.7981 36.254 23.8248C35.1846 24.1534 34.0702 24.32 32.9417 24.32H30.6678C24.4581 24.32 19.4062 19.2681 19.4062 13.0584C19.4062 6.84879 24.4582 1.79688 30.6678 1.79688H32.9417C39.1513 1.79688 44.2031 6.84879 44.2031 13.0584C44.2031 16.628 42.5653 19.9089 39.7094 22.0598Z" fill="#4986EB"/>
<path d="M35.8506 9.83079C35.721 7.94991 34.2048 6.43371 32.3238 6.30407C31.2575 6.23084 30.24 6.59049 29.4611 7.31759C28.6929 8.03464 28.2524 9.04825 28.2524 10.0986C28.2524 10.5948 28.6548 10.9971 29.1509 10.9971C29.647 10.9971 30.0493 10.5948 30.0493 10.0986C30.0493 9.53629 30.2759 9.0151 30.6872 8.6312C31.0982 8.24766 31.6352 8.05782 32.2004 8.09681C33.1912 8.16509 33.9898 8.96371 34.0581 9.95442C34.1271 10.955 33.4706 11.8393 32.4972 12.057C31.7086 12.2335 31.1578 12.9188 31.1578 13.7235V15.882C31.1578 16.3782 31.5601 16.7805 32.0562 16.7805C32.5525 16.7805 32.9547 16.3782 32.9546 15.882V13.7953C34.7649 13.358 35.9795 11.7014 35.8506 9.83079Z" fill="#4986EB"/>
<path d="M32.6915 18.8007C32.5244 18.6336 32.2926 18.5375 32.0563 18.5375C31.82 18.5375 31.5882 18.6336 31.4211 18.8007C31.254 18.9678 31.1578 19.1996 31.1578 19.4359C31.1578 19.6731 31.2541 19.9049 31.4211 20.072C31.5882 20.2391 31.82 20.3343 32.0563 20.3343C32.2926 20.3343 32.5244 20.2391 32.6915 20.072C32.8586 19.904 32.9547 19.6731 32.9547 19.4359C32.9547 19.1996 32.8585 18.9678 32.6915 18.8007Z" fill="#4986EB"/>
<path d="M24.707 27.8516H5.75C5.25388 27.8516 4.85156 28.2538 4.85156 28.75C4.85156 29.2462 5.25388 29.6484 5.75 29.6484H24.707C25.2032 29.6484 25.6055 29.2462 25.6055 28.75C25.6055 28.2538 25.2031 27.8516 24.707 27.8516Z" fill="#4986EB"/>
<path d="M25.3421 33.1461C25.1751 32.9789 24.9433 32.8828 24.707 32.8828C24.4707 32.8828 24.2389 32.9789 24.0718 33.1461C23.9046 33.3132 23.8086 33.545 23.8086 33.7812C23.8086 34.0175 23.9047 34.2493 24.0718 34.4164C24.2389 34.5836 24.4707 34.6797 24.707 34.6797C24.9433 34.6797 25.1751 34.5836 25.3421 34.4164C25.5093 34.2493 25.6055 34.0184 25.6055 33.7812C25.6055 33.545 25.5092 33.3132 25.3421 33.1461Z" fill="#4986EB"/>
<path d="M21.1732 32.8828H5.75C5.25388 32.8828 4.85156 33.285 4.85156 33.7812C4.85156 34.2775 5.25388 34.6797 5.75 34.6797H21.1732C21.6694 34.6797 22.0716 34.2775 22.0716 33.7812C22.0716 33.285 21.6693 32.8828 21.1732 32.8828Z" fill="#4986EB"/>
<path d="M18.8672 22.8203H5.75C5.25388 22.8203 4.85156 23.2225 4.85156 23.7188C4.85156 24.215 5.25388 24.6172 5.75 24.6172H18.8672C19.3634 24.6172 19.7656 24.215 19.7656 23.7188C19.7656 23.2225 19.3633 22.8203 18.8672 22.8203Z" fill="#4986EB"/>
</svg>
