<svg width="46" height="46" viewBox="0 0 46 46" fill="none" xmlns="http://www.w3.org/2000/svg">
<path d="M35.5557 44.6523H36.9033V46H35.5557V44.6523Z" fill="#4986EB"/>
<path d="M36.4324 31.0271L32.8907 29.909L36.9247 21.0873C38.5237 17.5908 37.7672 15.8175 36.6221 13.1333L33.2187 5.12091C32.4729 3.36501 30.9045 1.96255 28.6832 1.06501C27.0078 0.388215 24.9363 0 23 0C21.0637 0 18.9922 0.388215 17.3169 1.06501C15.0955 1.96246 13.5271 3.36501 12.7814 5.12091L11.4158 8.33615L12.6563 8.863L14.0218 5.64776C15.4634 2.25337 20.3437 1.34766 23 1.34766C25.6563 1.34766 30.5365 2.25337 31.9783 5.64776L35.2364 13.319L35.3825 13.6621C36.3304 15.884 36.8742 17.1621 36.1732 19.3261C34.9617 17.4523 33.304 15.1266 31.2973 13.1894C28.5753 10.5615 25.7836 9.22911 23 9.22911C20.2164 9.22911 17.4247 10.5616 14.7027 13.1894C12.6961 15.1266 11.0383 17.4523 9.82684 19.3261C9.12588 17.1621 9.66961 15.8841 10.6174 13.6623L12.1292 10.1037L10.8887 9.57689L9.3778 13.1335C8.23283 15.8176 7.47635 17.5908 9.0753 21.0873L13.1093 29.909L9.56764 31.0271C5.67812 32.255 3.70605 34.2849 3.70605 37.0603V45.9999H34.208V44.6523H23.6738V34.7767L32.0025 31.0418L36.0266 32.3122C39.337 33.3574 40.9463 34.9104 40.9463 37.0603V44.6523H38.251V46H42.2939V37.0604C42.2939 34.2849 40.3218 32.2551 36.4324 31.0271V31.0271ZM18.0906 29.7496L20.4652 32.4652L15.9303 30.4316L18.0906 29.7496ZM19.036 28.7835L19.4355 26.8681C20.525 27.3554 21.7313 27.6269 22.9999 27.6269C24.2686 27.6269 25.4748 27.3554 26.5644 26.8681L26.9639 28.7835L23 33.3168L19.036 28.7835ZM28.2712 28.4506L27.7998 26.191C30.1829 24.6238 31.7596 21.9265 31.7596 18.8672V15.6338C33.3262 17.4246 34.6154 19.3636 35.5486 20.8559L31.5957 29.5002L28.2712 28.4506ZM23 10.5768C25.4224 10.5768 27.8991 11.782 30.3613 14.159C30.3783 14.1755 30.395 14.1922 30.412 14.2086V18.8672C30.412 22.9542 27.087 26.2792 23 26.2792C18.913 26.2792 15.588 22.9542 15.588 18.8672V14.2087C15.605 14.1923 15.6217 14.1755 15.6387 14.159C18.1009 11.782 20.5776 10.5768 23 10.5768V10.5768ZM10.4514 20.8559C11.3846 19.3637 12.6738 17.4246 14.2403 15.6339V18.8672C14.2403 21.9265 15.8171 24.6239 18.2002 26.191L17.7289 28.4506L14.4044 29.5001L10.4514 20.8559ZM5.05371 44.6523V37.0604C5.05371 34.9105 6.66299 33.3575 9.97338 32.3123L13.9975 31.0419L22.3262 34.7767V44.6523H5.05371ZM25.5348 32.4652L27.9094 29.7496L30.0697 30.4316L25.5348 32.4652Z" fill="#4986EB"/>
<path d="M22.3262 22.5732H23.6738V23.9208H22.3262V22.5732Z" fill="#4986EB"/>
<path d="M23 14.4872C24.1146 14.4872 25.0215 15.394 25.0215 16.5087C25.0215 17.6233 24.1146 18.5302 23 18.5302H22.3262V21.2255H23.6738V19.8102C25.2097 19.4972 26.3691 18.1358 26.3691 16.5088C26.3691 14.651 24.8578 13.1396 23 13.1396C21.1423 13.1396 19.6309 14.651 19.6309 16.5088H20.9785C20.9785 15.394 21.8853 14.4872 23 14.4872V14.4872Z" fill="#4986EB"/>
<path d="M28.7413 4.87025H30.0889V6.21791H28.7413V4.87025Z" fill="#4986EB"/>
<path d="M26.046 3.5226H27.3936V4.87025H26.046V3.5226Z" fill="#4986EB"/>
</svg>
