<svg width="46" height="46" viewBox="0 0 46 46" fill="none" xmlns="http://www.w3.org/2000/svg">
<path d="M43.3699 43.6446L41.335 31.731C41.1156 30.4474 40.2051 29.4163 38.9583 29.0402L33.4696 27.3841C33.3559 26.0424 32.8058 24.7766 31.8903 23.7746C31.158 22.9732 30.2369 22.3897 29.2216 22.0677C29.3953 21.8749 29.5564 21.6827 29.7042 21.4948C31.0095 19.8347 31.7083 18.0059 31.8862 16.7578H32.3096C33.4109 16.7578 34.3069 15.8619 34.3069 14.7605V13.7367C34.3069 13.0016 33.8935 12.3356 33.2717 11.99V9.52793C33.2717 9.15589 32.9701 8.85428 32.598 8.85428C32.226 8.85428 31.9245 9.1558 31.9245 9.52793V12.2919C31.6621 12.3374 31.3491 12.4161 31.0289 12.551C30.9961 12.5629 30.9642 12.5768 30.934 12.5934C30.8617 12.6264 30.7893 12.6611 30.7171 12.7003V7.27177C30.7171 5.77201 29.4971 4.55193 27.9973 4.55193H26.138C25.4967 4.55193 24.8702 4.77537 24.3737 5.18129L24.1912 5.33043C23.8561 5.60445 23.4331 5.75539 23.0002 5.75539C22.5672 5.75539 22.1442 5.60445 21.809 5.33043L21.6267 5.18129C21.1302 4.77546 20.5037 4.55193 19.8624 4.55193H18.0029C16.5031 4.55193 15.2831 5.77201 15.2831 7.27177V12.7003C15.2109 12.6611 15.1385 12.6264 15.0662 12.5934C15.036 12.5768 15.0042 12.5629 14.9714 12.551C14.6512 12.4161 14.3381 12.3374 14.0758 12.2919V5.30303C14.0758 3.1218 15.8504 1.34721 18.0316 1.34721H27.9685C30.1498 1.34721 31.9243 3.1218 31.9243 5.30303V6.36193C31.9243 6.73397 32.2259 7.03557 32.5978 7.03557C32.9698 7.03557 33.2715 6.73406 33.2715 6.36193V5.30303C33.2715 2.37897 30.8925 0 27.9685 0H18.0316C15.1075 0 12.7286 2.37897 12.7286 5.30303V11.9901C12.1068 12.3357 11.6933 13.0016 11.6933 13.7367V14.7606C11.6933 15.862 12.5894 16.7579 13.6907 16.7579H14.1141C14.2919 18.0059 14.9908 19.8348 16.296 21.4948C16.4437 21.6826 16.6047 21.8746 16.7782 22.0672C14.4441 22.8086 12.7419 24.9072 12.5307 27.3841L7.04178 29.0402C5.79502 29.4163 4.88436 30.4474 4.66514 31.731L3.83876 36.569C3.77614 36.9358 4.02267 37.2837 4.38932 37.3463C4.75588 37.4091 5.10403 37.1625 5.16674 36.7958L5.99312 31.9578C6.12573 31.1812 6.67665 30.5575 7.43089 30.33L12.5075 28.7982V30.1307C11.3439 30.3449 10.3537 31.1442 9.94589 32.2518C9.83763 32.5457 9.77033 32.8535 9.7459 33.1665L9.25526 39.4641C9.21824 39.9385 9.38239 40.4109 9.70538 40.76C10.0284 41.1091 10.4865 41.3094 10.9622 41.3094H11.8021C12.1741 41.3094 12.4757 41.0079 12.4757 40.6358C12.4757 40.2637 12.1741 39.9622 11.8021 39.9622H10.9622C10.8608 39.9622 10.7632 39.9196 10.6943 39.8451C10.6255 39.7707 10.5905 39.6701 10.5984 39.569L11.0891 33.2713C11.1039 33.0816 11.1446 32.8952 11.2102 32.7172C11.4939 31.9468 12.2601 31.4251 13.1169 31.4191L13.2279 31.4183C13.2331 31.4182 13.2382 31.4182 13.2433 31.4182C14.0761 31.4182 14.8133 31.8904 15.1242 32.6245C15.2115 32.8303 15.2645 33.0479 15.2819 33.2713L15.7727 39.5691C15.7805 39.6701 15.7456 39.7707 15.6768 39.8452C15.6079 39.9196 15.5103 39.9622 15.4088 39.9622H14.569C14.1969 39.9622 13.8953 40.2637 13.8953 40.6358C13.8953 41.0078 14.1969 41.3094 14.569 41.3094H15.4088C15.8846 41.3094 16.3428 41.1092 16.6657 40.76C16.9887 40.4107 17.1529 39.9384 17.1159 39.4642L16.6251 33.1665C16.5963 32.798 16.5087 32.4387 16.3647 32.0988C15.9209 31.0515 14.9721 30.3233 13.8546 30.1263V28.3918L16.1703 27.6931C16.3809 28.1368 16.7985 29.0957 17.6255 31.1628C18.4589 33.2484 19.4949 35.9217 20.4885 38.5205C20.4956 38.5423 20.5038 38.5636 20.5129 38.5845C21.176 40.3194 21.8192 42.0188 22.3693 43.4846C22.4679 43.7475 22.7192 43.9216 23 43.9216C23.2808 43.9216 23.5321 43.7475 23.6307 43.4846C24.1807 42.0188 24.8239 40.3194 25.4871 38.5845C25.4963 38.5636 25.5044 38.5422 25.5115 38.5205C26.5044 35.9232 27.5398 33.2516 28.3729 31.1666C29.201 29.0969 29.6189 28.1372 29.8297 27.6931L32.1453 28.3918V32.3705C30.5409 32.6822 29.3255 34.0972 29.3255 35.7915C29.3255 37.7134 30.8891 39.277 32.811 39.277C34.733 39.277 36.2965 37.7134 36.2965 35.7915C36.2965 34.1028 35.0892 32.6912 33.4925 32.3734V28.7983L38.5692 30.3301C39.3234 30.5576 39.8743 31.1813 40.007 31.9579L42.0419 43.8714C42.0757 44.069 42.0232 44.2622 41.8939 44.4153C41.7647 44.5684 41.5831 44.6529 41.3827 44.6529H4.61735C4.4169 44.6529 4.23542 44.5685 4.10613 44.4153C3.97694 44.2622 3.92429 44.0691 3.95807 43.8714L4.62965 39.9397C4.69228 39.5729 4.44574 39.225 4.07909 39.1624C3.71253 39.0995 3.36438 39.3463 3.30167 39.7129L2.63009 43.6447C2.52992 44.2315 2.69262 44.8291 3.07644 45.2841C3.46043 45.7391 4.02204 46 4.61735 46H41.3827C41.978 46 42.5397 45.7391 42.9236 45.284C43.3074 44.829 43.4701 44.2314 43.3699 43.6446ZM31.9324 13.6642C32.2913 13.5748 32.5794 13.5764 32.5826 13.5765C32.6987 13.578 32.8116 13.5509 32.9118 13.4983C32.9418 13.573 32.9595 13.6532 32.9595 13.7367V14.7606C32.9595 15.1191 32.6679 15.4107 32.3094 15.4107H31.9324V13.6642ZM14.0676 15.4107H13.6906C13.3321 15.4107 13.0405 15.1191 13.0405 14.7606V13.7367C13.0405 13.6532 13.0583 13.573 13.0882 13.4984C13.1883 13.551 13.3012 13.5781 13.4174 13.5765C13.4225 13.5774 13.7098 13.5758 14.0676 13.6646V15.4107ZM15.4149 16.166V14.3963C15.619 14.4575 15.8422 14.4491 16.0483 14.3631C16.4019 14.2156 16.6303 13.873 16.6303 13.4902V7.27177C16.6303 6.51493 17.2461 5.89914 18.0029 5.89914H19.8622C20.1936 5.89914 20.5173 6.01459 20.7738 6.22429L20.9561 6.37343C21.5312 6.84367 22.2571 7.10251 23 7.10251C23.7429 7.10251 24.4688 6.84358 25.0439 6.37343L25.2262 6.22429C25.4827 6.01459 25.8065 5.89914 26.1378 5.89914H27.9971C28.754 5.89914 29.3697 6.51493 29.3697 7.27177V13.4903C29.3697 13.873 29.5981 14.2157 29.9517 14.3632C30.0697 14.4125 30.1933 14.4364 30.3159 14.4364C30.4073 14.4364 30.4979 14.423 30.5852 14.3969V16.166C30.5852 17.1496 29.9052 19.0595 28.6451 20.6621C28.2277 21.193 27.6911 21.7633 27.0305 22.2618C27.0095 22.2758 26.9895 22.291 26.9704 22.3071C25.947 23.0638 24.631 23.6435 23 23.6435C21.369 23.6435 20.053 23.0638 19.0295 22.307C19.0104 22.291 18.9905 22.2758 18.9696 22.2618C18.309 21.7633 17.7724 21.193 17.3549 20.6621C16.0949 19.0595 15.4149 17.1496 15.4149 16.166ZM27.4131 27.0493L23 30.3478L18.5869 27.0493C19.0245 26.493 19.2697 25.779 19.2697 25.1419V24.056C20.3075 24.6141 21.5458 24.9908 23 24.9908C24.4542 24.9908 25.6926 24.6141 26.7303 24.056V25.1419C26.7303 25.779 26.9755 26.493 27.4131 27.0493ZM17.4627 26.2974C17.1029 26.1603 16.7041 26.1379 16.3269 26.2402C16.3103 26.2441 16.2942 26.2485 16.2784 26.2532L13.9512 26.9554C14.3448 25.02 15.9164 23.4795 17.9225 23.1811V25.1419C17.9225 25.5645 17.7338 26.0014 17.4627 26.2974ZM19.2909 31.7049C19.2896 31.7017 19.2884 31.6986 19.2872 31.6955C19.2531 31.6092 19.2194 31.524 19.186 31.4398C19.1799 31.4246 19.1739 31.4094 19.1679 31.3943C19.1352 31.3119 19.1028 31.2301 19.0708 31.1497C19.0685 31.1441 19.0663 31.1385 19.064 31.1327C18.9642 30.8818 18.868 30.6411 18.7755 30.4105C18.7687 30.3938 18.762 30.3768 18.7552 30.3602C18.7287 30.2941 18.7025 30.2289 18.6765 30.1646C18.667 30.141 18.6576 30.1176 18.6482 30.0942C18.623 30.0319 18.598 29.9699 18.5734 29.9093C18.566 29.8911 18.5588 29.8735 18.5516 29.8554C18.5069 29.7453 18.4633 29.6379 18.4207 29.5333C18.4092 29.505 18.3974 29.4761 18.386 29.4482C18.3693 29.4074 18.353 29.3677 18.3367 29.3277C18.3191 29.2846 18.3014 29.2418 18.2842 29.1998C18.2777 29.184 18.271 29.1674 18.2645 29.1518C18.2593 29.1392 18.2545 29.1276 18.2494 29.1151C18.1716 28.9261 18.0977 28.7479 18.0275 28.5804C18.027 28.579 18.0263 28.5777 18.0258 28.5763C17.9884 28.4871 17.9519 28.4 17.9167 28.317C17.8985 28.2739 17.8805 28.2316 17.8629 28.1901L21.6584 31.0268L20.0724 31.7006C20.0697 31.7017 20.0668 31.7029 20.064 31.7042L19.4019 31.9855C19.3643 31.8905 19.3276 31.7974 19.2909 31.7049ZM20.8982 35.8294C20.7651 35.4841 20.6311 35.1369 20.4968 34.79C20.2867 34.2474 20.0861 33.7316 19.8941 33.2401L20.1455 33.1333L21.1726 34.3272L20.8982 35.8294ZM23.013 41.3043C22.9937 41.2642 22.9707 41.2264 22.9441 41.1912C22.6397 40.3867 22.2534 39.3686 21.8258 38.2486L22.4547 34.8053H23.5453L24.1742 38.2486C23.7261 39.422 23.3237 40.4831 23.013 41.3043ZM23.7979 33.4582H22.2021L21.447 32.5804L23 31.9207L24.553 32.5804L23.7979 33.4582ZM25.5032 34.79C25.3689 35.1369 25.2349 35.4841 25.1018 35.8294L24.8274 34.3271L25.8545 33.1332L26.1059 33.24C25.9139 33.7315 25.7133 34.2474 25.5032 34.79ZM28.0834 28.317C28.05 28.3957 28.0153 28.4782 27.98 28.5625C27.9755 28.5735 27.9708 28.5845 27.9662 28.5956C27.9313 28.6791 27.8957 28.7645 27.8588 28.8533C27.8564 28.8592 27.8539 28.8654 27.8515 28.8713C27.8197 28.9479 27.7871 29.027 27.7539 29.1076C27.7477 29.1227 27.7419 29.1366 27.7357 29.1518C27.7283 29.1698 27.7204 29.189 27.7129 29.2072C27.6982 29.2432 27.6832 29.2798 27.6681 29.3165C27.6496 29.3617 27.6312 29.4067 27.6122 29.4529C27.6062 29.4677 27.6 29.483 27.5939 29.4979C27.547 29.6128 27.4988 29.7312 27.4496 29.8528C27.4419 29.8719 27.4342 29.8906 27.4265 29.9099C27.4022 29.97 27.3774 30.0314 27.3525 30.0931C27.3428 30.1172 27.333 30.1413 27.3232 30.1658C27.2975 30.2295 27.2715 30.294 27.2453 30.3594C27.2379 30.3776 27.2305 30.3963 27.2231 30.4146C27.1317 30.6421 27.037 30.8794 26.9386 31.1266C26.9353 31.1348 26.9321 31.1428 26.9289 31.1511C26.8971 31.2309 26.8649 31.3122 26.8324 31.394C26.8264 31.4093 26.8202 31.4246 26.8141 31.4399C26.7805 31.5246 26.7467 31.6101 26.7123 31.697C26.7117 31.6986 26.7111 31.7002 26.7105 31.7017C26.6734 31.7953 26.6362 31.8895 26.5983 31.9856L25.9356 31.7041C25.9332 31.7031 25.9309 31.7021 25.9286 31.7011L24.3418 31.027L28.1373 28.1903C28.1195 28.2316 28.1015 28.2738 28.0834 28.317ZM29.7216 26.2532C29.7215 26.2532 29.7213 26.2532 29.7212 26.2532C29.7207 26.253 29.72 26.2529 29.7195 26.2526C29.3287 26.1354 28.9118 26.1548 28.5374 26.2974C28.2662 26.0014 28.0776 25.5645 28.0776 25.1419V23.1801C30.0963 23.4777 31.6631 25.0037 32.0516 26.9562L29.7216 26.2532ZM34.9493 35.7915C34.9493 36.9706 33.99 37.9298 32.811 37.9298C31.632 37.9298 30.6727 36.9706 30.6727 35.7915C30.6727 34.6124 31.632 33.6532 32.811 33.6532C33.99 33.6532 34.9493 34.6124 34.9493 35.7915Z" fill="white"/>
</svg>
