<svg width="20" height="21" viewBox="0 0 20 21" fill="none" xmlns="http://www.w3.org/2000/svg">
<path d="M5.29158 5.79163C4.08325 6.99996 3.33325 8.65829 3.33325 10.5C3.33325 12.2681 4.03563 13.9638 5.28587 15.214C6.53612 16.4642 8.23181 17.1666 9.99992 17.1666C11.768 17.1666 13.4637 16.4642 14.714 15.214C15.9642 13.9638 16.6666 12.2681 16.6666 10.5C16.6666 7.39163 14.5416 4.79996 11.6666 4.05829L11.6666 5.79163C13.6083 6.47496 14.9999 8.32496 14.9999 10.5C14.9999 11.826 14.4731 13.0978 13.5355 14.0355C12.5978 14.9732 11.326 15.5 9.99992 15.5C8.67384 15.5 7.40207 14.9732 6.46438 14.0355C5.5267 13.0978 4.99992 11.826 4.99992 10.5C4.99992 9.11663 5.57492 7.88329 6.48325 6.98329L9.16658 9.66663L9.16658 3.83329L3.33325 3.83329L5.29158 5.79163Z" fill="#415769"/>
</svg>
