<svg width="20" height="20" viewBox="0 0 20 20" fill="none" xmlns="http://www.w3.org/2000/svg">
<path d="M9.48329 14.7035C9.80108 14.5117 10.199 14.5117 10.5168 14.7035L13.121 16.2753C13.8783 16.7324 14.8126 16.0534 14.6116 15.192L13.9205 12.2294C13.8361 11.8679 13.959 11.4895 14.2396 11.2464L16.5454 9.24886C17.2135 8.67009 16.8572 7.57267 15.9765 7.49673L12.9412 7.23499C12.5723 7.20318 12.2512 6.9702 12.1066 6.62941L10.9205 3.83522C10.5757 3.02286 9.42434 3.02286 9.07951 3.83522L7.89346 6.62941C7.74881 6.9702 7.42771 7.20318 7.05887 7.23499L4.02052 7.49699C3.14029 7.57289 2.78373 8.66943 3.45097 9.24852L5.75367 11.247C6.0334 11.4898 6.15603 11.8673 6.07237 12.2281L5.38431 15.1956C5.18466 16.0567 6.11844 16.7344 6.8752 16.2776L9.48329 14.7035Z" fill="#4986EB"/>
</svg>
