<svg width="35" height="34" viewBox="0 0 35 34" fill="none" xmlns="http://www.w3.org/2000/svg">
<g clip-path="url(#clip0_60_4142)">
<path d="M17.8379 34C27.229 34 34.8379 26.3911 34.8379 17C34.8379 7.60892 27.229 0 17.8379 0C8.44681 0 0.837891 7.60892 0.837891 17C0.837891 26.3911 8.44681 34 17.8379 34ZM8.61681 16.6317L25.0076 10.3119C25.7684 10.0371 26.4328 10.4975 26.1863 11.6478L26.1877 11.6464L23.3969 24.7945C23.1901 25.7267 22.6361 25.9533 21.8612 25.5142L17.6112 22.3819L15.5613 24.3568C15.3346 24.5834 15.1434 24.7747 14.7042 24.7747L15.006 20.4496L22.8826 13.3337C23.2255 13.0319 22.8061 12.8619 22.3542 13.1623L12.6203 19.2907L8.42414 17.9817C7.51322 17.6927 7.49339 17.0708 8.61681 16.6317Z" fill="white"/>
</g>
<defs>
<clipPath id="clip0_60_4142">
<rect width="34" height="34" fill="white" transform="translate(0.837891)"/>
</clipPath>
</defs>
</svg>
