<svg width="34" height="34" viewBox="0 0 34 34" fill="none" xmlns="http://www.w3.org/2000/svg">
<path fill-rule="evenodd" clip-rule="evenodd" d="M28.9085 4.94133C25.7267 1.75667 21.4965 0.00141667 16.9901 0C7.70383 0 0.145917 7.5565 0.141667 16.847C0.14025 19.8163 0.916583 22.7148 2.39133 25.2705L0 34L8.93067 31.6568C11.3914 32.9998 14.1624 33.7067 16.9816 33.7082H16.9887C26.2735 33.7082 33.8328 26.1502 33.8371 16.8597C33.8399 12.359 32.0889 8.12458 28.9085 4.94133ZM16.9901 30.8621H16.9844C14.4712 30.8621 12.0077 30.1863 9.85717 28.9099L9.34575 28.6068L4.046 29.9965L5.46125 24.8285L5.12833 24.2987C3.72583 22.0688 2.98633 19.4919 2.98775 16.847C2.99058 9.12617 9.2735 2.84467 16.9972 2.84467C20.7372 2.84467 24.2533 4.30383 26.8968 6.95017C29.5403 9.59792 30.9953 13.1155 30.9938 16.8569C30.9896 24.5806 24.7081 30.8621 16.9901 30.8621ZM24.6713 20.3745C24.2505 20.1634 22.1808 19.1448 21.794 19.0046C21.4087 18.8643 21.1282 18.7935 20.8463 19.2142C20.5643 19.635 19.7597 20.5842 19.5132 20.8661C19.2681 21.1466 19.0216 21.182 18.6008 20.9709C18.1801 20.7598 16.8229 20.3164 15.215 18.8813C13.9641 17.765 13.1183 16.3866 12.8733 15.9644C12.6282 15.5422 12.8478 15.3156 13.0574 15.1059C13.2473 14.9175 13.4782 14.6143 13.6893 14.3678C13.9018 14.1242 13.9712 13.9485 14.1128 13.6666C14.2531 13.3861 14.1837 13.1396 14.0774 12.9285C13.9712 12.7188 13.1297 10.6462 12.7798 9.80333C12.4383 8.98167 12.0913 9.09358 11.832 9.08083C11.5869 9.06808 11.3064 9.06667 11.0245 9.06667C10.744 9.06667 10.2878 9.1715 9.9025 9.59367C9.51717 10.0158 8.42917 11.0344 8.42917 13.1056C8.42917 15.1782 9.93792 17.1799 10.1476 17.4604C10.3573 17.7409 13.1155 21.9937 17.3386 23.817C18.343 24.2505 19.1278 24.5097 19.7384 24.7038C20.7471 25.024 21.6651 24.9787 22.3904 24.871C23.1993 24.7506 24.8809 23.8524 25.2323 22.8692C25.5836 21.8861 25.5836 21.0417 25.4773 20.8675C25.3725 20.6904 25.092 20.5856 24.6713 20.3745Z" fill="white"/>
</svg>
