<svg width="50" height="50" viewBox="0 0 50 50" fill="none" xmlns="http://www.w3.org/2000/svg">
<path d="M21.8757 10.4167C25.4671 10.4167 28.9115 11.8434 31.4511 14.3829C33.9906 16.9225 35.4173 20.3669 35.4173 23.9583C35.4173 27.3125 34.1882 30.3958 32.1673 32.7708L32.7298 33.3333H34.3757L40.6257 38.5417L37.5007 41.6667L31.2507 36.4583V34.8125L30.6882 34.25C28.3132 36.2708 25.2298 37.5 21.8757 37.5C18.2842 37.5 14.8398 36.0733 12.3002 33.5337C9.76069 30.9942 8.33398 27.5498 8.33398 23.9583C8.33398 20.3669 9.76069 16.9225 12.3002 14.3829C14.8398 11.8434 18.2842 10.4167 21.8757 10.4167ZM21.8757 14.5833C16.6673 14.5833 12.5007 18.75 12.5007 23.9583C12.5007 29.1667 16.6673 33.3333 21.8757 33.3333C27.084 33.3333 31.2507 29.1667 31.2507 23.9583C31.2507 18.75 27.084 14.5833 21.8757 14.5833Z" fill="#415769"/>
</svg>
