<svg width="21" height="21" viewBox="0 0 21 21" fill="none" xmlns="http://www.w3.org/2000/svg">
<path d="M8.83463 9.85956C8.835 10.029 8.76499 10.1916 8.63998 10.3117C8.51498 10.4318 8.3452 10.4996 8.16797 10.5001H2.83464C2.74685 10.4999 2.65996 10.4832 2.57894 10.4509C2.49791 10.4186 2.42434 10.3714 2.36242 10.3119C2.30051 10.2524 2.25147 10.1818 2.2181 10.1042C2.18474 10.0266 2.1677 9.94347 2.16797 9.85956V2.80727C2.16779 2.72333 2.18491 2.64017 2.21835 2.56255C2.25179 2.48493 2.3009 2.41437 2.36287 2.35489C2.42484 2.29542 2.49845 2.24819 2.57952 2.21591C2.66058 2.18362 2.7475 2.16692 2.83532 2.16675L8.16865 2.17524C8.34577 2.17594 8.51537 2.24377 8.64022 2.36385C8.76508 2.48394 8.835 2.64646 8.83463 2.81577V9.85956Z" stroke="#D80F3C" stroke-width="2" stroke-linecap="round" stroke-linejoin="round"/>
<path d="M18.8346 5.73958C18.8334 5.89811 18.7624 6.0497 18.6374 6.16105C18.5124 6.27239 18.3436 6.33438 18.168 6.3334H12.8346C12.7477 6.33397 12.6614 6.31906 12.5808 6.28951C12.5002 6.25997 12.4269 6.21638 12.365 6.16123C12.3031 6.10608 12.2538 6.04045 12.22 5.9681C12.1862 5.89575 12.1685 5.8181 12.168 5.73958V2.76861C12.1691 2.61024 12.2397 2.45874 12.3645 2.3474C12.4892 2.23605 12.6578 2.17397 12.8333 2.17479L18.1666 2.16676C18.3424 2.16561 18.5115 2.22751 18.6368 2.33886C18.762 2.45021 18.8332 2.60189 18.8346 2.76059V5.73958Z" stroke="#D80F3C" stroke-width="2" stroke-linecap="round" stroke-linejoin="round"/>
<path d="M8.83464 18.1187C8.8341 18.2131 8.81639 18.3065 8.78253 18.3936C8.74867 18.4806 8.69931 18.5596 8.63728 18.626C8.57524 18.6923 8.50175 18.7448 8.42099 18.7804C8.34023 18.816 8.25379 18.8341 8.1666 18.8335L2.83327 18.8239C2.65766 18.8246 2.48895 18.7499 2.3642 18.616C2.23945 18.4821 2.16887 18.3 2.16797 18.1098V14.5476C2.16842 14.4533 2.18602 14.36 2.21977 14.273C2.25353 14.1861 2.30277 14.1072 2.36469 14.0409C2.4266 13.9745 2.49997 13.9221 2.58061 13.8865C2.66125 13.8509 2.74757 13.8329 2.83464 13.8335H8.16797C8.34376 13.8325 8.51271 13.9072 8.63772 14.0411C8.76272 14.175 8.83355 14.3571 8.83464 14.5476V18.1187Z" stroke="#D80F3C" stroke-width="2" stroke-linecap="round" stroke-linejoin="round"/>
<path d="M12.8353 18.8334C12.7474 18.8332 12.6605 18.8148 12.5794 18.7793C12.4983 18.7437 12.4246 18.6917 12.3626 18.6262C12.3006 18.5607 12.2516 18.483 12.2182 18.3975C12.1848 18.3121 12.1677 18.2205 12.168 18.1281V10.372C12.1677 10.2797 12.1847 10.1882 12.2181 10.1028C12.2514 10.0174 12.3005 9.93971 12.3624 9.87422C12.4243 9.80872 12.4979 9.75669 12.5789 9.7211C12.6599 9.6855 12.7468 9.66703 12.8346 9.66675H18.168C18.2558 9.66703 18.3427 9.6855 18.4237 9.7211C18.5047 9.75669 18.5783 9.80872 18.6402 9.87422C18.7021 9.93971 18.7512 10.0174 18.7845 10.1028C18.8179 10.1882 18.8349 10.2797 18.8346 10.372V18.1188C18.835 18.3051 18.7651 18.4839 18.6403 18.6161C18.5154 18.7483 18.3458 18.8231 18.1686 18.8241L12.8353 18.8334Z" stroke="#D80F3C" stroke-width="2" stroke-linecap="round" stroke-linejoin="round"/>
</svg>
