<svg width="21" height="21" viewBox="0 0 21 21" fill="none" xmlns="http://www.w3.org/2000/svg">
<g clip-path="url(#clip0_4116_948)">
<path d="M19.6395 5.15074C19.5526 5.06306 19.4492 4.99353 19.3352 4.94619C19.2212 4.89885 19.0989 4.87465 18.9755 4.875H18.3125V3.3125C18.3122 3.06395 18.2134 2.82565 18.0376 2.6499C17.8618 2.47414 17.6236 2.37528 17.375 2.375H3.88387C3.15217 2.37501 2.45045 2.66568 1.93306 3.18306C1.41568 3.70045 1.12501 4.40217 1.125 5.13387V15.8661C1.12501 16.5978 1.41568 17.2995 1.93306 17.8169C2.45045 18.3343 3.15217 18.625 3.88387 18.625H18.9386C19.1865 18.6245 19.4242 18.526 19.5999 18.3509C19.7755 18.1759 19.8748 17.9385 19.8761 17.6905L19.9129 5.8157C19.9137 5.69228 19.8899 5.56993 19.843 5.45577C19.7961 5.34161 19.7269 5.23793 19.6395 5.15074ZM18.6271 17.375H3.88387C3.48369 17.375 3.0999 17.216 2.81694 16.9331C2.53397 16.6501 2.375 16.2663 2.375 15.8661V5.13387C2.375 4.73369 2.53397 4.3499 2.81694 4.06694C3.0999 3.78397 3.48369 3.625 3.88387 3.625H17.0625V4.875H3.9375V6.125H18.662L18.6271 17.375Z" fill="black" stroke="black" stroke-width="0.5"/>
<path d="M15.8125 10.8125H17.0625V12.0625H15.8125V10.8125Z" fill="black" stroke="black" stroke-width="0.5"/>
</g>
<defs>
<clipPath id="clip0_4116_948">
<rect width="20" height="20" fill="white" transform="translate(0.5 0.5)"/>
</clipPath>
</defs>
</svg>
