<svg width="21" height="20" viewBox="0 0 21 20" fill="none" xmlns="http://www.w3.org/2000/svg">
<path d="M18.4861 15.1667C19.0384 15.1667 19.4861 14.719 19.4861 14.1667C19.4861 13.6145 19.0384 13.1667 18.4861 13.1667V15.1667ZM1.82812 13.1667C1.27584 13.1667 0.828125 13.6145 0.828125 14.1667C0.828125 14.719 1.27584 15.1667 1.82812 15.1667V13.1667ZM4.32682 7.50008L3.32682 7.50008V7.50008H4.32682ZM15.9874 7.50008L16.9874 7.50008V7.50008L15.9874 7.50008ZM11.5989 17.5L12.4641 18.0016C12.6434 17.6922 12.6439 17.3106 12.4654 17.0008C12.2869 16.6909 11.9565 16.5 11.5989 16.5V17.5ZM8.71711 17.5V16.5C8.35952 16.5 8.02915 16.6909 7.85063 17.0008C7.67212 17.3106 7.67264 17.6922 7.852 18.0016L8.71711 17.5ZM18.4861 13.1667H1.82812V15.1667H18.4861V13.1667ZM1.82812 15.1667C3.76089 15.1667 5.32682 13.5993 5.32682 11.6667H3.32682C3.32682 12.4957 2.65534 13.1667 1.82812 13.1667V15.1667ZM5.32682 11.6667V7.50008H3.32682V11.6667H5.32682ZM5.32682 7.50008C5.32682 4.83021 7.48991 2.66675 10.1571 2.66675V0.666748C6.38436 0.666748 3.32682 3.72663 3.32682 7.50008L5.32682 7.50008ZM10.1571 2.66675C12.8243 2.66675 14.9874 4.83021 14.9874 7.50008L16.9874 7.50008C16.9874 3.72663 13.9299 0.666748 10.1571 0.666748V2.66675ZM14.9874 7.50008V11.6667H16.9874V7.50008H14.9874ZM14.9874 11.6667C14.9874 13.5993 16.5533 15.1667 18.4861 15.1667V13.1667C17.6589 13.1667 16.9874 12.4957 16.9874 11.6667H14.9874ZM10.7338 16.9984C10.6146 17.2041 10.3952 17.3304 10.158 17.3304V19.3304C11.1087 19.3304 11.9873 18.8239 12.4641 18.0016L10.7338 16.9984ZM10.158 17.3304C9.9209 17.3304 9.70145 17.2041 9.58223 16.9984L7.852 18.0016C8.32879 18.8239 9.20733 19.3304 10.158 19.3304V17.3304ZM8.71711 18.5H11.5989V16.5H8.71711V18.5Z" fill="#696969"/>
</svg>
