<svg width="22" height="20" viewBox="0 0 22 20" fill="none" xmlns="http://www.w3.org/2000/svg">
<path d="M17.5259 5.83331H3.50526C2.53734 5.83331 1.75269 6.57951 1.75269 7.49998V15.8333C1.75269 16.7538 2.53734 17.5 3.50526 17.5H17.5259C18.4938 17.5 19.2785 16.7538 19.2785 15.8333V7.49998C19.2785 6.57951 18.4938 5.83331 17.5259 5.83331Z" stroke="#18BCC0" stroke-linecap="round" stroke-linejoin="round"/>
<path d="M14.0206 17.5V4.16667C14.0206 3.72464 13.8359 3.30072 13.5072 2.98816C13.1786 2.67559 12.7328 2.5 12.268 2.5H8.76283C8.29802 2.5 7.85224 2.67559 7.52357 2.98816C7.1949 3.30072 7.01025 3.72464 7.01025 4.16667V17.5" stroke="#18BCC0" stroke-linecap="round" stroke-linejoin="round"/>
</svg>
