<svg width="35" height="35" viewBox="0 0 35 35" fill="none" xmlns="http://www.w3.org/2000/svg">
<g clip-path="url(#clip0_4085_2806)">
<path d="M32.6654 11.468V23.5325C32.6661 24.3858 32.4431 25.2244 32.0187 25.9646C31.5942 26.7048 30.9831 27.3208 30.2463 27.7512L19.9329 33.7595C19.1941 34.1904 18.3541 34.4175 17.4987 34.4175C16.6433 34.4175 15.8033 34.1904 15.0644 33.7595L4.75112 27.7512C4.01431 27.3208 3.40321 26.7048 2.97875 25.9646C2.55429 25.2244 2.3313 24.3858 2.33203 23.5325V11.468C2.3313 10.6147 2.55429 9.77615 2.97875 9.03593C3.40321 8.29571 4.01431 7.6797 4.75112 7.24934L15.0644 1.241C15.8033 0.810072 16.6433 0.583008 17.4987 0.583008C18.3541 0.583008 19.1941 0.810072 19.9329 1.241L30.2463 7.24934C30.9831 7.6797 31.5942 8.29571 32.0187 9.03593C32.4431 9.77615 32.6661 10.6147 32.6654 11.468V11.468Z" fill="#AFCEDF"/>
<path d="M17.5013 32.0833C17.0588 32.0829 16.6242 31.9654 16.2419 31.7426L5.92797 25.7348C5.54428 25.5092 5.22619 25.1873 5.00519 24.801C4.78418 24.4146 4.66794 23.9773 4.66797 23.5322V11.4677C4.66794 11.0225 4.78425 10.5851 5.00536 10.1987C5.22648 9.81235 5.54472 9.49048 5.92855 9.265L16.2419 3.25667C16.6241 3.03357 17.0587 2.91602 17.5013 2.91602C17.9439 2.91602 18.3785 3.03357 18.7607 3.25667L29.0746 9.265C29.4583 9.49059 29.7764 9.8125 29.9974 10.1989C30.2184 10.5852 30.3347 11.0226 30.3346 11.4677V23.5322C30.3347 23.9773 30.2184 24.4146 29.9974 24.801C29.7764 25.1873 29.4583 25.5092 29.0746 25.7348L18.7607 31.7432C18.3783 31.9658 17.9438 32.0831 17.5013 32.0833V32.0833Z" fill="#E8EDF2"/>
<path d="M9.89333 3.57924L4.45842 6.74499C3.63484 7.22821 2.95174 7.91813 2.4767 8.74645C2.00166 9.57477 1.75116 10.5128 1.75 11.4677V23.5322C1.75082 24.4875 2.00121 25.426 2.47637 26.2548C2.95154 27.0836 3.63498 27.7738 4.459 28.2572L14.7718 34.2655C15.6001 34.7474 16.5414 35.0013 17.4997 35.0013C18.4581 35.0013 19.3993 34.7474 20.2277 34.2655L30.541 28.2572C31.365 27.7738 32.0485 27.0836 32.5236 26.2548C32.9988 25.426 33.2492 24.4875 33.25 23.5322V11.4677C33.2492 10.5123 32.9988 9.5738 32.5236 8.74503C32.0485 7.91626 31.365 7.22601 30.541 6.74265L20.2283 0.737237C19.3997 0.255796 18.4585 0.00219727 17.5003 0.00219727C16.542 0.00219727 15.6009 0.255796 14.7723 0.737237L11.9583 2.37699C11.8374 2.46032 11.7524 2.58617 11.7202 2.72943C11.6881 2.87268 11.7111 3.02281 11.7847 3.14983C11.8584 3.27686 11.9772 3.37144 12.1175 3.41471C12.2578 3.45797 12.4093 3.44673 12.5417 3.38324L15.358 1.7429C16.0081 1.36521 16.7467 1.16626 17.4985 1.16626C18.2504 1.16626 18.9889 1.36521 19.6391 1.7429L29.9524 7.75124C30.6007 8.13124 31.1384 8.67411 31.5122 9.32601C31.886 9.97791 32.0829 10.7162 32.0833 11.4677V23.5322C32.0828 24.2831 31.8861 25.0209 31.5128 25.6724C31.1394 26.324 30.6024 26.8667 29.9548 27.2468L19.6403 33.2552C18.9901 33.6329 18.2516 33.8318 17.4997 33.8318C16.7478 33.8318 16.0093 33.6329 15.3592 33.2552L5.04525 27.2468C4.39764 26.8667 3.86057 26.324 3.48722 25.6724C3.11387 25.0209 2.91719 24.2831 2.91667 23.5322V11.4677C2.91725 10.7167 3.11395 9.97898 3.48729 9.32744C3.86064 8.6759 4.39768 8.13317 5.04525 7.75299L10.4802 4.58724C10.6102 4.50762 10.7039 4.38026 10.7412 4.23243C10.7784 4.08459 10.7564 3.92804 10.6797 3.79628C10.603 3.66452 10.4777 3.56803 10.3307 3.52746C10.1838 3.48689 10.0268 3.50548 9.89333 3.57924V3.57924Z" fill="#1B1B1B"/>
<path d="M4.08203 11.4676V23.5321C4.08221 24.0792 4.22531 24.6168 4.49717 25.0915C4.76903 25.5663 5.1602 25.9618 5.63195 26.2388L15.9459 32.2471C16.4171 32.5222 16.953 32.6671 17.4987 32.6671C18.0444 32.6671 18.5803 32.5222 19.0515 32.2471L29.366 26.2388C29.8376 25.9616 30.2287 25.5661 30.5004 25.0914C30.7722 24.6166 30.9152 24.0791 30.9154 23.5321V11.4676C30.9152 10.9206 30.7721 10.383 30.5002 9.90826C30.2284 9.4335 29.8372 9.03801 29.3654 8.76096L19.0515 2.75321C18.5786 2.48312 18.0433 2.34106 17.4987 2.34106C16.9541 2.34106 16.4188 2.48312 15.9459 2.75321L5.63253 8.76155C5.1608 9.03852 4.7696 9.43389 4.49764 9.90853C4.22569 10.3832 4.08243 10.9206 4.08203 11.4676V11.4676ZM6.21936 9.76897L16.5327 3.76063C16.8259 3.58951 17.1592 3.49933 17.4987 3.49933C17.8382 3.49933 18.1715 3.58951 18.4647 3.76063L28.778 9.76897C29.0737 9.94308 29.3188 10.1914 29.4891 10.4893C29.6593 10.7873 29.7488 11.1245 29.7487 11.4676V23.5321C29.7488 23.8752 29.6594 24.2124 29.4893 24.5103C29.3191 24.8082 29.0742 25.0566 28.7786 25.2308L18.4647 31.2391C18.1705 31.4071 17.8375 31.4955 17.4987 31.4955C17.1599 31.4955 16.8269 31.4071 16.5327 31.2391L6.21936 25.2308C5.92367 25.0567 5.67857 24.8084 5.50832 24.5104C5.33808 24.2125 5.24858 23.8753 5.2487 23.5321V11.4676C5.24858 11.1245 5.33808 10.7873 5.50832 10.4893C5.67857 10.1914 5.92367 9.94308 6.21936 9.76897V9.76897Z" fill="#1B1B1B"/>
<path d="M8.01379 15.2105L8.57104 16.1393L11.9803 21.8213L8.01379 15.2105ZM8.01379 15.2105V16.2936M8.01379 15.2105V16.2936M8.01379 16.2936V21.552C8.01379 21.6907 7.9587 21.8237 7.86064 21.9218C7.76257 22.0199 7.62957 22.075 7.49088 22.075C7.3522 22.075 7.21919 22.0199 7.12113 21.9218C7.02306 21.8237 6.96797 21.6907 6.96797 21.552L6.96797 13.323C6.96797 13.323 6.96797 13.323 6.96797 13.3229C6.96802 13.2087 7.00551 13.0975 7.07469 13.0066C7.14389 12.9156 7.24099 12.8498 7.35114 12.8193C7.46128 12.7887 7.5784 12.7951 7.68457 12.8375C7.79071 12.8798 7.88007 12.9557 7.93897 13.0536C7.93898 13.0537 7.939 13.0537 7.93902 13.0537L11.3482 18.7357L11.9054 19.6644V18.5813V13.3229C11.9054 13.1842 11.9605 13.0512 12.0586 12.9532C12.1567 12.8551 12.2897 12.8 12.4284 12.8C12.567 12.8 12.7 12.8551 12.7981 12.9532C12.8962 13.0512 12.9513 13.1842 12.9513 13.3229V21.552V21.5521M8.01379 16.2936L12.9513 21.5521M12.9513 21.5521C12.9513 21.6665 12.9138 21.7777 12.8446 21.8688C12.7755 21.9597 12.6785 22.0255 12.5685 22.0561C12.5227 22.0686 12.4755 22.0749 12.428 22.075L12.4284 22.3748L12.4284 22.075C12.3382 22.0749 12.2495 22.0516 12.171 22.0071C12.0925 21.9627 12.0268 21.8988 11.9804 21.8215L12.9513 21.5521Z" fill="#F66C78" stroke="black" stroke-width="0.6"/>
<path d="M16.8529 18.0436H16.5529V18.3436V21.6353C16.5529 21.774 16.4978 21.907 16.3997 22.005C16.3016 22.1031 16.1686 22.1582 16.0299 22.1582C15.8913 22.1582 15.7583 22.1031 15.6602 22.005C15.5621 21.907 15.507 21.774 15.507 21.6353V13.4062C15.507 13.2675 15.5621 13.1345 15.6602 13.0364C15.7583 12.9383 15.8913 12.8833 16.0299 12.8833H20.9674C21.1061 12.8833 21.2391 12.9383 21.3372 13.0364C21.4352 13.1345 21.4903 13.2675 21.4903 13.4062C21.4903 13.5449 21.4352 13.6779 21.3372 13.7759C21.2391 13.874 21.1061 13.9291 20.9674 13.9291H16.8529H16.5529V14.2291V16.6978V16.9978H16.8529H18.4987C18.6374 16.9978 18.7704 17.0529 18.8684 17.151C18.9665 17.249 19.0216 17.382 19.0216 17.5207C19.0216 17.6594 18.9665 17.7924 18.8684 17.8905C18.7704 17.9885 18.6374 18.0436 18.4987 18.0436H16.8529Z" fill="#F66C78" stroke="black" stroke-width="0.6"/>
<path d="M25.6867 14.2291V13.9291H25.3867H23.7409C23.6022 13.9291 23.4692 13.874 23.3711 13.7759C23.2731 13.6779 23.218 13.5449 23.218 13.4062C23.218 13.2675 23.2731 13.1345 23.3711 13.0364C23.4692 12.9383 23.6022 12.8833 23.7409 12.8833H28.6784C28.817 12.8833 28.95 12.9383 29.0481 13.0364C29.1462 13.1345 29.2013 13.2675 29.2013 13.4062C29.2013 13.5449 29.1462 13.6779 29.0481 13.7759C28.95 13.874 28.817 13.9291 28.6784 13.9291H27.0325H26.7325V14.2291V21.6353C26.7325 21.774 26.6774 21.907 26.5794 22.005C26.4813 22.1031 26.3483 22.1582 26.2096 22.1582C26.0709 22.1582 25.9379 22.1031 25.8399 22.005C25.7418 21.907 25.6867 21.774 25.6867 21.6353V14.2291Z" fill="#F66C78" stroke="black" stroke-width="0.6"/>
</g>
<defs>
<clipPath id="clip0_4085_2806">
<rect width="35" height="35" fill="white"/>
</clipPath>
</defs>
</svg>
