<svg width="35" height="35" viewBox="0 0 35 35" fill="none" xmlns="http://www.w3.org/2000/svg">
<path d="M17.499 34.4873C26.8809 34.4873 34.4863 26.8818 34.4863 17.5C34.4863 8.11817 26.8809 0.512695 17.499 0.512695C8.11719 0.512695 0.511719 8.11817 0.511719 17.5C0.511719 26.8818 8.11719 34.4873 17.499 34.4873Z" fill="#E8EDF2"/>
<path d="M34 17.5C34 26.6127 26.6127 34 17.5 34C8.3873 34 1 26.6127 1 17.5C1 8.3873 8.3873 1 17.5 1C26.6127 1 34 8.3873 34 17.5ZM2.71442 17.5C2.71442 25.6659 9.33415 32.2856 17.5 32.2856C25.6659 32.2856 32.2856 25.6659 32.2856 17.5C32.2856 9.33415 25.6659 2.71442 17.5 2.71442C9.33415 2.71442 2.71442 9.33415 2.71442 17.5Z" fill="#AFCEDF"/>
<path d="M17.499 32.2919C25.6683 32.2919 32.2909 25.6693 32.2909 17.5C32.2909 9.33059 25.6683 2.70801 17.499 2.70801C9.32961 2.70801 2.70703 9.33059 2.70703 17.5C2.70703 25.6693 9.32961 32.2919 17.499 32.2919Z" fill="#E8EDF2"/>
<path d="M22.5071 9.40251H17.5393C17.5367 9.40251 17.5343 9.4021 17.5319 9.4021C17.5294 9.4021 17.527 9.40244 17.5245 9.40251H12.5567C11.8501 9.40251 11.2773 9.97898 11.2773 10.69C11.2773 11.4011 11.8501 11.9775 12.5567 11.9775H16.2526V24.31C16.2526 25.0211 16.8254 25.5975 17.532 25.5975C18.2385 25.5975 18.8113 25.0211 18.8113 24.31V11.9775H22.5072C23.2138 11.9775 23.7866 11.4011 23.7866 10.6901C23.7864 9.97892 23.2136 9.40251 22.5071 9.40251Z" fill="#F66C78"/>
<path d="M17.4965 19.123C15.599 19.123 13.8088 18.9088 12.4553 18.5199C10.8624 18.0621 10.0547 17.4226 10.0547 16.6191C10.0547 15.7586 11.0242 15.0642 12.8583 14.611C13.133 14.5432 13.4111 14.7109 13.479 14.9857C13.5469 15.2606 13.3791 15.5385 13.1043 15.6064C11.4237 16.0217 11.0801 16.5108 11.0801 16.6191C11.0801 16.7622 11.4855 17.1742 12.7385 17.5343C14.0025 17.8974 15.6923 18.0975 17.4966 18.0975C19.301 18.0975 20.9907 17.8974 22.2547 17.5343C23.5077 17.1741 23.9131 16.7622 23.9131 16.6191C23.9131 16.5147 23.585 16.0407 21.9796 15.6292C21.7054 15.5589 21.54 15.2796 21.6103 15.0053C21.6806 14.731 21.96 14.5657 22.2343 14.636C24.0034 15.0894 24.9386 15.7752 24.9386 16.6191C24.9386 17.4226 24.1309 18.062 22.538 18.5198C21.1842 18.9088 19.3939 19.123 17.4965 19.123Z" fill="#E8EDF2"/>
<path d="M29.8744 5.12559C26.5691 1.82034 22.1744 0 17.5 0C12.8256 0 8.4309 1.82034 5.12559 5.12559C1.82034 8.43097 0 12.8256 0 17.5C0 22.1744 1.82034 26.569 5.12559 29.8744C8.4309 33.1797 12.8256 35 17.5 35C24.4697 35 30.771 30.8699 33.5532 24.4782C33.6662 24.2186 33.5474 23.9165 33.2877 23.8035C33.0282 23.6905 32.7261 23.8094 32.613 24.069C29.9938 30.0864 24.0615 33.9746 17.5 33.9746C13.0994 33.9746 8.96232 32.261 5.85067 29.1493C2.73902 26.0377 1.02539 21.9006 1.02539 17.5C1.02539 13.0994 2.73902 8.96232 5.85067 5.85067C8.96232 2.73902 13.0994 1.02539 17.5 1.02539C21.9006 1.02539 26.0377 2.73902 29.1493 5.85067C32.261 8.96232 33.9746 13.0994 33.9746 17.5C33.9746 18.9731 33.7802 20.4336 33.3968 21.841C33.3224 22.1142 33.4836 22.396 33.7567 22.4704C34.0298 22.5447 34.3117 22.3837 34.3862 22.1105C34.7935 20.6153 35 19.0641 35 17.5C35 12.8256 33.1797 8.43097 29.8744 5.12559Z" fill="#1B1B1B"/>
<path d="M3.24559 13.5013C2.96996 13.4346 2.69324 13.6035 2.62646 13.8786C2.34037 15.0575 2.19531 16.2758 2.19531 17.5C2.19531 21.588 3.78727 25.4313 6.67791 28.322C9.56855 31.2126 13.4119 32.8046 17.5 32.8046C21.588 32.8046 25.4313 31.2126 28.322 28.322C31.2126 25.4313 32.8046 21.588 32.8046 17.5C32.8046 13.4119 31.2126 9.56862 28.322 6.67791C25.4313 3.78727 21.588 2.19531 17.5 2.19531C14.4155 2.19531 11.4424 3.1088 8.90185 4.83706C6.42238 6.52383 4.50586 8.87436 3.35975 11.6346C3.25119 11.8961 3.37513 12.1961 3.63667 12.3047C3.89808 12.4131 4.19811 12.2893 4.3068 12.0279C5.37621 9.45248 7.16463 7.2591 9.47866 5.68492C11.8483 4.0728 14.622 3.2207 17.5 3.2207C25.3736 3.2207 31.7792 9.62639 31.7792 17.5C31.7792 25.3735 25.3736 31.7792 17.5 31.7792C9.62632 31.7792 3.2207 25.3735 3.2207 17.5C3.2207 16.3573 3.35599 15.2202 3.62286 14.1204C3.68972 13.8453 3.52073 13.5681 3.24559 13.5013Z" fill="#1B1B1B"/>
<path d="M13.1082 15.6068C13.383 15.5388 13.5509 15.2609 13.4829 14.986C13.415 14.7112 13.1369 14.5435 12.8622 14.6113C11.0281 15.0645 10.0586 15.7589 10.0586 16.6194C10.0586 17.4229 10.8663 18.0624 12.4592 18.5202C13.385 18.7862 14.5153 18.9704 15.7444 19.0603V24.3103C15.7444 25.303 16.5483 26.1105 17.5364 26.1105C18.5246 26.1105 19.3285 25.303 19.3285 24.3103V19.0545C20.5295 18.9628 21.6341 18.781 22.5417 18.5202C24.1346 18.0624 24.9423 17.4229 24.9423 16.6194C24.9423 15.7755 24.0071 15.0897 22.238 14.6363C21.9637 14.5661 21.6843 14.7314 21.614 15.0057C21.5437 15.2799 21.7092 15.5593 21.9833 15.6296C23.5887 16.041 23.9168 16.515 23.9168 16.6194C23.9168 16.7626 23.5114 17.1746 22.2584 17.5346C21.4342 17.7714 20.4284 17.9384 19.3284 18.0262V12.4904H22.5116C23.4998 12.4904 24.3037 11.6829 24.3037 10.6902C24.3037 9.69756 23.4998 8.89003 22.5116 8.89003H17.5552C17.5409 8.88949 17.5288 8.88955 17.5165 8.89003H12.5612C11.573 8.89003 10.7691 9.69756 10.7691 10.6902C10.7691 11.6829 11.573 12.4904 12.5612 12.4904H15.7443V18.0319C14.6162 17.9457 13.5844 17.7766 12.7423 17.5346C11.4893 17.1745 11.0839 16.7626 11.0839 16.6194C11.0841 16.5111 11.4276 16.022 13.1082 15.6068ZM18.3031 24.3103C18.3031 24.7375 17.9592 25.0851 17.5364 25.0851C17.1137 25.0851 16.7698 24.7375 16.7698 24.3103V19.1124C17.0111 19.1195 17.2548 19.1232 17.5004 19.1232C17.7706 19.1232 18.0382 19.1184 18.303 19.1098V24.3103H18.3031ZM16.2571 11.465H12.5613C12.1386 11.465 11.7946 11.1175 11.7946 10.6902C11.7946 10.263 12.1386 9.91542 12.5613 9.91542H17.5359H17.5366C17.5394 9.91542 17.5414 9.91549 17.5439 9.91549H22.5118C22.9346 9.91549 23.2785 10.263 23.2785 10.6903C23.2785 11.1175 22.9346 11.4651 22.5118 11.4651H18.8159C18.5327 11.4651 18.3032 11.6946 18.3032 11.9778V18.084C18.0388 18.0929 17.7712 18.098 17.5006 18.098C17.2546 18.098 17.0109 18.0939 16.77 18.0866V11.9778C16.7698 11.6945 16.5403 11.465 16.2571 11.465Z" fill="#1B1B1B"/>
</svg>
