<svg width="35" height="35" viewBox="0 0 35 35" fill="none" xmlns="http://www.w3.org/2000/svg">
<path d="M34 17.5C34 8.38696 26.613 1 17.5 1C8.38696 1 1 8.38696 1 17.5C1 26.613 8.38696 34 17.5 34C26.613 34 34 26.613 34 17.5Z" fill="#AFCEDF"/>
<path d="M17.5 34C13.0925 34 8.94888 32.2837 5.83273 29.1673C2.71632 26.0509 1 21.9075 1 17.5C1 13.0925 2.71632 8.94913 5.83273 5.83273C8.94913 2.71632 13.0925 1 17.5 1C21.9075 1 26.0509 2.71632 29.1673 5.83273C32.2837 8.94913 34 13.0925 34 17.5C34 21.9075 32.2837 26.0511 29.1673 29.1675C26.0509 32.2837 21.9075 34 17.5 34ZM17.5 2.28906C9.11253 2.28906 2.28906 9.11279 2.28906 17.5C2.28906 25.8875 9.11253 32.7109 17.5 32.7109C25.8875 32.7109 32.7109 25.8875 32.7109 17.5C32.7109 9.11279 25.8875 2.28906 17.5 2.28906Z" fill="#1B1B1B"/>
<path d="M29.6719 17.5C29.6719 10.7765 24.2218 5.32617 17.498 5.32617C10.7745 5.32617 5.32422 10.7765 5.32422 17.5C5.32422 24.2235 10.7745 29.6738 17.498 29.6738C24.2215 29.6738 29.6719 24.2235 29.6719 17.5Z" fill="#E8EDF2"/>
<path d="M17.5204 31C15.2862 31 13.0587 30.4481 11.0974 29.3912C10.7485 29.203 10.6178 28.7675 10.806 28.4182C10.9939 28.0689 11.4295 27.9384 11.7788 28.1267C16.4298 30.6336 22.2904 29.7717 26.03 26.0309C28.3088 23.7518 29.5638 20.7211 29.5638 17.4979C29.5638 14.2745 28.3088 11.2441 26.03 8.96473C21.3263 4.25988 13.6719 4.2596 8.96784 8.96501C5.22817 12.7055 4.36646 18.5672 6.87248 23.2193C7.0607 23.5686 6.93026 24.004 6.58104 24.1923C6.23209 24.3803 5.79619 24.2498 5.60825 23.9008C4.25931 21.397 3.73364 18.4586 4.12747 15.6271C4.53476 12.6997 5.85734 10.0444 7.95242 7.94907C13.2163 2.68364 21.7815 2.68364 27.0457 7.94907C29.5958 10.4997 31 13.8907 31 17.4979C31 21.1049 29.5955 24.4961 27.0457 27.0468C24.9507 29.1424 22.2963 30.4652 19.3695 30.8726C18.7563 30.9579 18.1381 31 17.5204 31Z" fill="#1B1B1B"/>
<path d="M20.4368 22.6916L20.4366 22.6917C19.7306 23.112 18.967 23.3269 18.1696 23.3269C16.1143 23.3269 14.3718 21.881 13.6006 19.8616L13.4711 19.5224H13.8341H17.3816C17.6211 19.5224 17.8152 19.3283 17.8152 19.0888C17.8152 18.8493 17.6211 18.6552 17.3816 18.6552H13.4835H13.2661L13.2359 18.4399C13.193 18.133 13.1697 17.8184 13.1697 17.4971C13.1697 17.2477 13.1845 17.0031 13.2104 16.7633L13.2346 16.5402H13.459H18.4185C18.6581 16.5402 18.8523 16.346 18.8523 16.1066C18.8523 15.8673 18.6581 15.673 18.4185 15.673H13.7612H13.4115L13.5247 15.3421C14.2532 13.213 16.0438 11.6672 18.1696 11.6672C18.967 11.6672 19.7306 11.8822 20.4366 12.3024L20.4368 22.6916ZM20.4368 22.6916C20.6425 22.569 20.9085 22.6366 21.0309 22.8424C21.1534 23.0481 21.0858 23.3142 20.88 23.4367L20.88 23.4367C20.0468 23.9326 19.1092 24.1938 18.1696 24.1938C15.6285 24.1938 13.4347 22.3315 12.6286 19.6992L12.5744 19.5224H12.3895H11.0352C10.7959 19.5224 10.6016 19.3283 10.6016 19.0888C10.6016 18.8494 10.7959 18.6552 11.0352 18.6552H12.1046H12.3852L12.3529 18.3765C12.3196 18.0884 12.3023 17.795 12.3023 17.4971C12.3023 17.2658 12.3126 17.0375 12.3328 16.8126L12.3572 16.5402H12.0838H11.0352C10.7959 16.5402 10.6016 16.3461 10.6016 16.1066C10.6016 15.8672 10.7959 15.673 11.0352 15.673H12.3308H12.5211M20.4368 22.6916L12.5211 15.673M12.5211 15.673L12.5718 15.4896M12.5211 15.673L12.5718 15.4896M12.5718 15.4896C13.3266 12.755 15.5661 10.8 18.1696 10.8C19.1094 10.8 20.0468 11.0612 20.8803 11.5572C21.0859 11.6795 21.1535 11.9456 21.0309 12.1515C20.9085 12.3573 20.6424 12.4248 20.4366 12.3024L12.5718 15.4896Z" fill="#F66C78" stroke="#1B1B1B" stroke-width="0.5"/>
</svg>
