<svg width="16" height="17" viewBox="0 0 16 17" fill="none" xmlns="http://www.w3.org/2000/svg">
<g clip-path="url(#clip0_401_6113)">
<path d="M1 12.5V14.5C1 15.0515 1.4485 15.5 2 15.5H14C14.5515 15.5 15 15.0515 15 14.5V12.5C15 12.224 14.776 12 14.5 12C14.224 12 14 12.224 14 12.5V14.5H2V12.5C2 12.224 1.776 12 1.5 12C1.224 12 1 12.224 1 12.5Z" fill="#1B1B1B"/>
<path d="M11.8539 7.8535C12.0494 7.658 12.0494 7.342 11.8539 7.1465C11.6584 6.951 11.3424 6.951 11.1469 7.1465L8.50036 9.793V1C8.50036 0.724 8.27636 0.5 8.00036 0.5C7.72436 0.5 7.50036 0.724 7.50036 1V9.793L4.85386 7.1465C4.65836 6.951 4.34236 6.951 4.14686 7.1465C3.95136 7.342 3.95136 7.658 4.14686 7.8535L7.64686 11.3535C7.84486 11.552 8.16236 11.5455 8.35436 11.3535L11.8539 7.8535Z" fill="#1B1B1B"/>
</g>
<defs>
<clipPath id="clip0_401_6113">
<rect width="16" height="16" fill="white" transform="matrix(-1 0 0 1 16 0.5)"/>
</clipPath>
</defs>
</svg>
