<svg width="338" height="338" viewBox="0 0 338 338" fill="none" xmlns="http://www.w3.org/2000/svg">
<path d="M213.402 332.063C235.49 326.048 256.125 315.609 274.056 301.379C291.988 287.148 306.841 269.423 317.715 249.279L258.366 217.241C251.831 229.347 242.906 239.998 232.13 248.549C221.355 257.1 208.955 263.374 195.682 266.988L213.402 332.063Z" fill="#F66C78"/>
<path d="M25.2096 257.799C44.5887 289.179 73.7011 313.358 108.105 326.648C142.51 339.937 180.317 341.607 215.759 331.403L197.098 266.591C175.8 272.723 153.081 271.72 132.407 263.734C111.733 255.748 94.2387 241.218 82.5934 222.361L25.2096 257.799Z" fill="#FFBD7B"/>
<path d="M213.157 5.87078C180.373 -3.00357 145.675 -1.7938 113.588 9.34237C81.5018 20.4785 53.5149 41.0243 33.2772 68.3008C13.0395 95.5772 1.49001 128.319 0.134621 162.256C-1.22077 196.193 7.68087 229.751 25.6789 258.555L82.8754 222.815C72.0601 205.507 66.7109 185.341 67.5254 164.947C68.3399 144.554 75.2802 124.879 87.4414 108.488C99.6027 92.0968 116.421 79.7504 135.702 73.0585C154.984 66.3665 175.834 65.6396 195.535 70.9723L213.157 5.87078Z" fill="#18BCC0"/>
<path d="M317.555 249.575C329.733 227.124 336.663 202.204 337.825 176.688C338.987 151.173 334.35 125.726 324.264 102.261C314.177 78.795 298.903 57.9209 279.589 41.2071C260.275 24.4933 237.424 12.3746 212.753 5.76201L195.292 70.907C210.117 74.8806 223.849 82.163 235.455 92.2066C247.061 102.25 256.24 114.794 262.301 128.895C268.362 142.996 271.149 158.287 270.45 173.62C269.752 188.953 265.588 203.928 258.27 217.419L317.555 249.575Z" fill="#A5B4FA"/>
</svg>
