<svg width="33" height="32" viewBox="0 0 33 32" fill="none" xmlns="http://www.w3.org/2000/svg">
<g clip-path="url(#clip0_401_6267)">
<path d="M16.7144 0C13.5499 0 10.4564 0.938384 7.82524 2.69649C5.19405 4.45459 3.14329 6.95345 1.93229 9.87707C0.721288 12.8007 0.404435 16.0177 1.0218 19.1214C1.63916 22.2251 3.16301 25.0761 5.40065 27.3137C7.63829 29.5513 10.4892 31.0752 13.5929 31.6926C16.6966 32.3099 19.9137 31.9931 22.8373 30.7821C25.7609 29.5711 28.2598 27.5203 30.0179 24.8891C31.776 22.2579 32.7144 19.1645 32.7144 16C32.7144 11.7565 31.0287 7.68687 28.0281 4.68629C25.0275 1.68571 20.9578 0 16.7144 0V0ZM20.7691 14.4842L20.5038 16.7137C20.4924 16.8171 20.443 16.9127 20.3653 16.9819C20.2875 17.0511 20.1869 17.0891 20.0828 17.0884H17.767V23.6989C17.7676 23.7779 17.7369 23.8538 17.6817 23.9102C17.6265 23.9666 17.5512 23.9989 17.4723 24H15.1144C15.0751 23.9995 15.0363 23.9912 15.0003 23.9756C14.9642 23.9601 14.9316 23.9376 14.9042 23.9095C14.8768 23.8813 14.8553 23.8481 14.8408 23.8116C14.8263 23.7751 14.8191 23.7361 14.8196 23.6968L14.8323 17.0884H13.0786C12.9669 17.0884 12.8598 17.0441 12.7808 16.9651C12.7019 16.8861 12.6575 16.779 12.6575 16.6674V14.44C12.6575 14.3283 12.7019 14.2212 12.7808 14.1423C12.8598 14.0633 12.9669 14.0189 13.0786 14.0189H14.8196V11.8589C14.8196 9.36 16.308 8 18.4828 8H20.2659C20.3776 8 20.4847 8.04436 20.5637 8.12332C20.6426 8.20229 20.687 8.30938 20.687 8.42105V10.2968C20.687 10.4085 20.6426 10.5156 20.5637 10.5946C20.4847 10.6735 20.3776 10.7179 20.2659 10.7179H19.1733C17.9902 10.7368 17.767 11.3032 17.767 12.1495V14.0126H20.3607C20.4194 14.014 20.4772 14.0276 20.5304 14.0526C20.5836 14.0776 20.6309 14.1135 20.6694 14.1579C20.7078 14.2023 20.7366 14.2543 20.7538 14.3105C20.7709 14.3667 20.7762 14.4259 20.7691 14.4842Z" fill="#D80F3C"/>
</g>
<defs>
<clipPath id="clip0_401_6267">
<rect width="32" height="32" fill="white" transform="translate(0.714355)"/>
</clipPath>
</defs>
</svg>
