<svg width="33" height="32" viewBox="0 0 33 32" fill="none" xmlns="http://www.w3.org/2000/svg">
<path d="M16.7145 18.5284C18.1109 18.5284 19.2429 17.3964 19.2429 16C19.2429 14.6036 18.1109 13.4716 16.7145 13.4716C15.318 13.4716 14.186 14.6036 14.186 16C14.186 17.3964 15.318 18.5284 16.7145 18.5284Z" fill="#A1ADB7"/>
<path d="M19.948 9.61047H13.4806C12.6431 9.61047 11.8399 9.94318 11.2477 10.5354C10.6555 11.1276 10.3228 11.9308 10.3228 12.7684V19.2336C10.3228 20.0712 10.6555 20.8744 11.2477 21.4666C11.8399 22.0588 12.6431 22.3915 13.4806 22.3915H19.948C20.7855 22.3915 21.5888 22.0588 22.181 21.4666C22.7732 20.8744 23.1059 20.0712 23.1059 19.2336V12.7663C23.1054 11.9291 22.7724 11.1264 22.1802 10.5347C21.5881 9.94289 20.7852 9.61047 19.948 9.61047ZM16.7143 20.1389C15.8956 20.1393 15.0952 19.8969 14.4143 19.4424C13.7334 18.9878 13.2025 18.3416 12.8889 17.5853C12.5754 16.8291 12.4931 15.9968 12.6526 15.1938C12.812 14.3908 13.206 13.6531 13.7848 13.074C14.3636 12.495 15.1011 12.1006 15.904 11.9407C16.7069 11.7808 17.5392 11.8627 18.2956 12.1759C19.0521 12.4891 19.6986 13.0196 20.1535 13.7003C20.6084 14.3809 20.8512 15.1813 20.8512 15.9999C20.8501 17.097 20.4139 18.1487 19.6384 18.9247C18.8629 19.7006 17.8113 20.1372 16.7143 20.1389ZM20.8764 12.8842C20.6739 12.8846 20.4758 12.8249 20.3072 12.7126C20.1386 12.6003 20.0072 12.4406 19.9295 12.2535C19.8518 12.0665 19.8313 11.8606 19.8707 11.6619C19.9101 11.4632 20.0076 11.2807 20.1509 11.1375C20.2941 10.9943 20.4766 10.8968 20.6752 10.8574C20.8739 10.818 21.0798 10.8384 21.2669 10.9161C21.4539 10.9938 21.6137 11.1253 21.7259 11.2939C21.8382 11.4625 21.8979 11.6606 21.8975 11.8631C21.8969 12.1337 21.7892 12.3931 21.5978 12.5845C21.4065 12.7758 21.1471 12.8836 20.8764 12.8842Z" fill="#A1ADB7"/>
<path d="M16.7144 0C13.5499 0 10.4564 0.938384 7.82524 2.69649C5.19405 4.45459 3.14329 6.95345 1.93229 9.87707C0.721288 12.8007 0.404435 16.0177 1.0218 19.1214C1.63916 22.2251 3.16301 25.0761 5.40065 27.3137C7.63829 29.5513 10.4892 31.0752 13.5929 31.6926C16.6966 32.3099 19.9137 31.9931 22.8373 30.7821C25.7609 29.5711 28.2598 27.5203 30.0179 24.8891C31.776 22.2579 32.7144 19.1645 32.7144 16C32.7144 11.7565 31.0287 7.68687 28.0281 4.68629C25.0275 1.68571 20.9578 0 16.7144 0V0ZM24.7144 19.2337C24.7132 20.4974 24.2107 21.7091 23.3171 22.6027C22.4235 23.4964 21.2118 23.9989 19.948 24H13.4807C12.2171 23.9983 11.0057 23.4956 10.1122 22.6021C9.21873 21.7086 8.71603 20.4973 8.71436 19.2337V12.7663C8.71603 11.5027 9.21873 10.2914 10.1122 9.39787C11.0057 8.50437 12.2171 8.00167 13.4807 8H19.948C21.2116 8.00167 22.423 8.50437 23.3165 9.39787C24.21 10.2914 24.7127 11.5027 24.7144 12.7663V19.2337Z" fill="#A1ADB7"/>
</svg>
