<svg width="40" height="40" viewBox="0 0 40 40" fill="none" xmlns="http://www.w3.org/2000/svg">
<path d="M32.926 6H6.19507C5.53777 6 5 6.71703 5 7.59343V31.2202C5 32.0966 5.53777 32.8136 6.19507 32.8136H32.926C33.5833 32.8136 34.1211 32.0966 34.1211 31.2202V7.59343C34.1211 6.71703 33.5833 6 32.926 6Z" fill="#E8EDF2"/>
<path d="M7.42968 31.8052V8.17839C7.42968 7.30199 7.96745 6.58496 8.62475 6.58496H6.63257C5.97527 6.58496 5.4375 7.30199 5.4375 8.17839V31.8052C5.4375 32.6816 5.97527 33.3986 6.63257 33.3986H8.62475C7.96745 33.3986 7.42968 32.6816 7.42968 31.8052Z" fill="#AFCEDF"/>
<path d="M20.5 23.5V11.2225C20.5 10.8252 19.8982 10.0001 19.5 10.0001H9.5C9.10191 10.0001 8.5 10.8252 8.5 11.2225V23.5001L20.5 23.5Z" fill="#F66C78"/>
<path d="M12 10.5001L9 10.5001C8.51201 10.5001 8 11.3002 8 11.6669V23.0001H11.1128V11.6669C11.1128 11.3002 12 10.0001 12 10.5001Z" fill="#D80F3C"/>
<path d="M13 21.0885C13.3547 22.1933 14.0809 23 15.0322 23C15.8899 23 16.6344 22.2223 17 21.0898L16.3191 20.6727C16.2837 20.6511 16.2512 20.613 16.2265 20.5616C16.1989 20.5043 16.1826 20.4337 16.1825 20.3582L16.1819 19.005C15.8506 19.3477 15.4553 19.5479 15.0307 19.5479C14.5625 19.5479 14.1517 19.3426 13.8166 19V20.3562C13.8166 20.4459 13.7989 20.5115 13.7735 20.5611C13.7254 20.6549 13.6492 20.6905 13.6085 20.7154L13 21.0885Z" fill="#FFBD86"/>
<path d="M15 20.9373V19.455C14.5446 19.4477 14.1443 19.2788 13.8165 19V20.128C13.8165 20.2026 13.7988 20.2571 13.7734 20.2984C13.7253 20.3764 13.6491 20.406 13.6084 20.4268L13 20.737C13.205 21.2683 13.5344 21.7163 13.9595 22C14.1884 21.889 14.3962 21.7965 14.5647 21.725C14.8244 21.6148 15 21.2962 15 20.9373Z" fill="#F6A96C"/>
<path d="M19.9192 22.0075L16.5 21C16.1074 21.7625 15.4483 22 14.5 22C13.4479 22 12.3807 21.7434 12 21L10.0807 22.0075C9.71486 22.1513 9.26889 22.4953 9 23.0014V23.3088C9 23.6889 9.68259 23.5 10.0807 23.5H20C20.3981 23.5 20.5 23.6889 20.5 23.3088V23.0014C20.2597 22.5415 20.3631 22.1819 19.9192 22.0075Z" fill="#18BCC0"/>
<path d="M13 21.6988C12.4974 21.5463 12.1113 21.2968 11.8787 21L9.10255 21.6717C8.72929 21.7676 8.27431 21.9969 8 22.3342V22.5392C8 22.7926 8.33226 23 8.73844 23H9.74685C10.1373 22.4318 11.8378 21.9617 13 21.6988Z" fill="#0BB0B4"/>
<path d="M31.4421 10.6079H23.2339C22.9957 10.6079 22.8027 10.8653 22.8027 11.1827V12.4624C22.8027 12.7798 22.9957 13.0371 23.2339 13.0371H31.4421C31.6803 13.0371 31.8733 12.7798 31.8733 12.4624V11.1827C31.8732 10.8653 31.6802 10.6079 31.4421 10.6079Z" fill="#FF656F"/>
<path d="M25.357 12.4624V11.1827C25.357 10.8653 25.55 10.6079 25.7881 10.6079H23.2339C22.9957 10.6079 22.8027 10.8653 22.8027 11.1827V12.4624C22.8027 12.7798 22.9957 13.0371 23.2339 13.0371H25.7881C25.55 13.0372 25.357 12.7799 25.357 12.4624Z" fill="#D80F3C"/>
<path d="M17.5348 15C17.454 15.0915 17.3497 15.1471 17.236 15.1471C17.1734 15.1471 17.0606 15.1382 17.0017 15.1215V17.5327C17.0017 17.5627 17.0006 17.5923 17 17.6221C17.6054 17.687 18.1919 17.0921 18.1919 16.3675C18.1919 15.8156 17.9254 15.1772 17.5348 15Z" fill="#FFBD86"/>
<path d="M17.7389 15.1433C17.6757 15.082 17.6074 15.033 17.5348 15C17.454 15.0915 17.3497 15.1471 17.236 15.1471C17.1734 15.1471 17.0606 15.1382 17.0017 15.1215V17.5327C17.0017 17.5627 17.0006 17.5923 17 17.6221C17.266 17.6506 17.5283 17.5516 17.7389 17.3704V15.1433H17.7389Z" fill="#F6A96C"/>
<path d="M12.1902 17.4557V15.0701H11.8357C11.7403 15.0701 11.6496 15.0448 11.5663 15C11.2437 15.2168 11 15.7911 11 16.2904C11 17.0141 11.5855 17.61 12.1919 17.545C12.1912 17.5153 12.1902 17.4856 12.1902 17.4557Z" fill="#FFBD86"/>
<path d="M12.1902 14.3704C11.9214 14.139 11.7372 13.7733 11.7372 13.3674C11.7372 12.9285 11.9255 12.4319 12.1902 12.1708V12.147H11.8357C11.7403 12.147 11.6496 12.1217 11.5663 12.0769C11.2437 12.2937 11 12.868 11 13.3673C11 14.091 11.5855 14.6869 12.1919 14.6219C12.1912 14.5921 12.1902 14.5625 12.1902 14.5326V14.3704H12.1902Z" fill="#F6A96C"/>
<path d="M16.2869 14.0541C16.2869 13.9983 16.2225 13.979 16.1997 14.0282C15.9067 14.6634 15.3293 15.0957 14.6645 15.0957H12V17.1439C12 18.6367 13.0092 20 14.5356 20C15.8945 20 17 18.7187 17 17.1439V15.073C16.594 14.9732 16.2869 14.5532 16.2869 14.0541Z" fill="#FED2A4"/>
<path d="M13.8273 19.0882V17H13V19.0882C13 20.6101 13.637 22 14.6006 22C14.7387 22 14.8725 21.9658 15 21.9023C14.2803 21.5608 13.8273 20.3715 13.8273 19.0882Z" fill="#FFBD86"/>
<path d="M17.1462 13.0274C16.9001 13.0438 16.6743 12.9103 16.627 12.7013C16.5472 12.3493 16.3452 12 15.5562 12H12.819C11.8144 12 11 12.7026 11 13.5694V15.3392C11 15.7042 11.3429 16 11.7659 16H14.8726C15.5675 16 16.171 15.6637 16.4772 15.1695C16.5009 15.1312 16.5683 15.1462 16.5683 15.1896C16.5683 15.6353 16.9911 16 17.5076 16C17.7784 16 18 15.8088 18 15.5752V13.7304C18 13.3069 17.5718 12.9992 17.1462 13.0274Z" fill="#665E68"/>
<path d="M12.5234 15.3392V13.5694C12.5234 12.7026 13.2895 12 14.2344 12H12.711C11.7661 12 11 12.7026 11 13.5694V15.3392C11 15.7042 11.3226 16 11.7204 16H13.2438C12.846 16 12.5234 15.7042 12.5234 15.3392Z" fill="#544E55"/>
<path d="M31.874 17.4724H25.7461C25.5033 17.4724 25.3066 17.7347 25.3066 18.0583C25.3066 18.382 25.5033 18.6443 25.7461 18.6443H31.874C32.1168 18.6443 32.3135 18.382 32.3135 18.0583C32.3135 17.7347 32.1167 17.4724 31.874 17.4724Z" fill="#696969"/>
<path d="M31.874 19.979H25.7461C25.5033 19.979 25.3066 20.2413 25.3066 20.5649C25.3066 20.8886 25.5033 21.1509 25.7461 21.1509H31.874C32.1168 21.1509 32.3135 20.8886 32.3135 20.5649C32.3135 20.2413 32.1167 19.979 31.874 19.979Z" fill="#696969"/>
<path d="M32.3146 11.191C32.3146 10.551 31.9241 10.0303 31.4441 10.0303H23.2358C22.7558 10.0303 22.3652 10.551 22.3652 11.191V12.4707C22.3652 13.1107 22.7558 13.6314 23.2358 13.6314H31.444C31.924 13.6314 32.3146 13.1107 32.3146 12.4707V11.191H32.3146ZM31.4357 12.4595H23.2441V11.2021H31.4357V12.4595Z" fill="#696969"/>
<path d="M31.874 14.9661H25.7461C25.5033 14.9661 25.3066 15.2283 25.3066 15.552C25.3066 15.8757 25.5033 16.1379 25.7461 16.1379H31.874C32.1168 16.1379 32.3135 15.8757 32.3135 15.552C32.3135 15.2283 32.1167 14.9661 31.874 14.9661Z" fill="#696969"/>
<path d="M31.874 22.4856H25.7461C25.5033 22.4856 25.3066 22.7479 25.3066 23.0715C25.3066 23.3952 25.5033 23.6575 25.7461 23.6575H31.874C32.1168 23.6575 32.3135 23.3952 32.3135 23.0715C32.3135 22.7479 32.1167 22.4856 31.874 22.4856Z" fill="#696969"/>
<path d="M31.874 24.9919H25.7461C25.5033 24.9919 25.3066 25.2542 25.3066 25.5779C25.3066 25.9016 25.5033 26.1638 25.7461 26.1638H31.874C32.1168 26.1638 32.3135 25.9016 32.3135 25.5779C32.3135 25.2542 32.1167 24.9919 31.874 24.9919Z" fill="#696969"/>
<path d="M31.874 27.4985H25.7461C25.5033 27.4985 25.3066 27.7608 25.3066 28.0845C25.3066 28.4081 25.5033 28.6704 25.7461 28.6704H31.874C32.1168 28.6704 32.3135 28.4081 32.3135 28.0845C32.3135 27.7608 32.1167 27.4985 31.874 27.4985Z" fill="#696969"/>
<path d="M24.0181 19.979H22.8047C22.5619 19.979 22.3652 20.2413 22.3652 20.5649C22.3652 20.8886 22.5619 21.1509 22.8047 21.1509H24.0181C24.2609 21.1509 24.4576 20.8886 24.4576 20.5649C24.4576 20.2413 24.2608 19.979 24.0181 19.979Z" fill="#696969"/>
<path d="M24.0181 14.9661H22.8047C22.5619 14.9661 22.3652 15.2283 22.3652 15.552C22.3652 15.8757 22.5619 16.1379 22.8047 16.1379H24.0181C24.2609 16.1379 24.4576 15.8757 24.4576 15.552C24.4576 15.2283 24.2608 14.9661 24.0181 14.9661Z" fill="#696969"/>
<path d="M24.0181 24.9919H22.8047C22.5619 24.9919 22.3652 25.2542 22.3652 25.5779C22.3652 25.9016 22.5619 26.1638 22.8047 26.1638H24.0181C24.2609 26.1638 24.4576 25.9016 24.4576 25.5779C24.4576 25.2542 24.2608 24.9919 24.0181 24.9919Z" fill="#696969"/>
<path d="M9.1721 10.8228H13.4706C13.7143 10.8228 13.9118 10.6386 13.9118 10.4114C13.9118 10.1841 13.7143 10 13.4706 10H9.1721C8.52582 10 8 10.4903 8 11.093V22.907C8 23.5097 8.52576 24 9.1721 24H19.8279C20.4742 24 21 23.5097 21 22.907V11.093C21 10.4903 20.4742 10 19.8279 10H15.5294C15.2857 10 15.0883 10.1841 15.0883 10.4114C15.0883 10.6386 15.2857 10.8228 15.5294 10.8228H19.8279C19.985 10.8228 20.1177 10.9465 20.1177 11.093V21.4961C19.9657 21.3936 19.8039 21.3082 19.6354 21.2436C19.6325 21.2424 19.6297 21.2414 19.6268 21.2403L16.3048 20.0406L16.3044 19.6198C16.8559 19.2166 17.2458 18.63 17.3675 17.9591C18.0267 17.8349 18.5514 17.322 18.5514 16.6928C18.5514 16.2842 18.3492 15.8917 18.0347 15.634C18.0487 15.5749 18.0567 15.5138 18.0567 15.4509V13.6164C18.0567 12.9388 17.4273 12.4416 16.7755 12.4888C16.7739 12.4889 16.7724 12.4889 16.7709 12.4889C16.7591 12.4889 16.752 12.4855 16.7519 12.4868C16.6061 11.7914 16.1202 11.4389 15.308 11.4389H12.7231C11.5327 11.4389 10.5643 12.342 10.5643 13.4521V15.21C10.5643 15.4442 10.645 15.6607 10.7808 15.8383C10.5741 16.082 10.4486 16.3885 10.4486 16.6928C10.4486 17.3183 10.9685 17.8337 11.6314 17.9589C11.7512 18.633 12.1381 19.2147 12.6936 19.6152V20.0399L9.3731 21.2404C9.37028 21.2415 9.36745 21.2425 9.36463 21.2436C9.19798 21.3076 9.03563 21.3941 8.88234 21.4987V11.093C8.88234 10.9465 9.01505 10.8228 9.1721 10.8228ZM17.4085 16.2604C17.4223 16.2566 17.4358 16.252 17.4493 16.2476C17.5784 16.3507 17.6692 16.5243 17.6692 16.6927C17.6692 16.8518 17.5572 16.9899 17.4085 17.0743V16.2604ZM11.5915 17.0744C11.444 16.9906 11.3309 16.8528 11.3309 16.6928C11.3309 16.547 11.4163 16.3857 11.5392 16.2801C11.5565 16.2827 11.5739 16.2856 11.5915 16.2875V17.0744ZM11.7287 15.473C11.5731 15.473 11.4466 15.355 11.4466 15.2099V13.452C11.4466 12.7957 12.0192 12.2617 12.7231 12.2617H15.308C15.7722 12.2617 15.8361 12.4065 15.8861 12.6449C15.9723 13.0564 16.3833 13.3428 16.8432 13.309C16.9951 13.2994 17.1744 13.4284 17.1744 13.6164V15.4508C17.1744 15.4619 17.1626 15.4729 17.1506 15.4729C17.1199 15.4729 17.09 15.47 17.061 15.4645C17.0593 15.4641 17.0578 15.4636 17.0562 15.4633C16.8556 15.4228 16.7048 15.2561 16.7048 15.0572C16.7048 14.5879 16.0275 14.4254 15.7885 14.8428C15.5656 15.2314 15.1341 15.4729 14.6623 15.4729H11.7287V15.473ZM12.4738 17.5109V16.2957H14.6624C15.1956 16.2957 15.6984 16.1135 16.0857 15.7965C16.2025 15.9423 16.3531 16.0632 16.5262 16.1496V17.5109C16.5262 18.5443 15.621 19.3675 14.5351 19.3675C13.2549 19.3675 12.4738 18.4332 12.4738 17.5109ZM16.0544 20.8325C15.218 21.7598 13.6987 21.6633 12.9449 20.8316C13.1402 20.761 13.2919 20.7186 13.4279 20.5624C13.5915 20.3741 13.576 20.1872 13.576 20.0519C14.1452 20.2232 14.8074 20.246 15.4225 20.0592C15.4226 20.1828 15.4066 20.3609 15.563 20.5522C15.7008 20.722 15.8493 20.7584 16.0544 20.8325ZM9.69668 22.0058L12.0887 21.1411C13.188 22.6607 15.7406 22.7516 16.9103 21.1416L19.3037 22.0059C19.6304 22.1325 19.9226 22.386 20.1177 22.7088V22.907C20.1177 23.0535 19.985 23.1772 19.828 23.1772H9.1721C9.01505 23.1772 8.88234 23.0535 8.88234 22.907V22.7082C9.1134 22.3348 9.45816 22.0985 9.69668 22.0058Z" fill="#696969"/>
<path d="M33.3655 6.00732H6.63452C5.7333 6.00732 5 6.98498 5 8.18669V31.8135C5 33.0152 5.7333 33.9928 6.63452 33.9928H33.3655C34.2668 33.9928 35 33.0151 35 31.8135V21.3673C35 21.0436 34.8033 20.7813 34.5605 20.7813C34.3178 20.7813 34.1211 21.0436 34.1211 21.3673V31.8135C34.1211 32.369 33.7821 32.821 33.3655 32.821H6.63452C6.21787 32.821 5.8789 32.369 5.8789 31.8135V8.18669C5.8789 7.63115 6.21787 7.17919 6.63452 7.17919H33.3655C33.7821 7.17919 34.1211 7.63115 34.1211 8.18669V18.6329C34.1211 18.9566 34.3178 19.2188 34.5605 19.2188C34.8033 19.2188 35 18.9566 35 18.6329V8.18669C35 6.98498 34.2668 6.00732 33.3655 6.00732Z" fill="#696969"/>
</svg>
