<svg width="40" height="40" viewBox="0 0 40 40" fill="none" xmlns="http://www.w3.org/2000/svg">
<path d="M29.5977 12.5049L33.1003 13.9744L32.3091 15.1769L28.8064 13.7073L29.5977 12.5049Z" fill="#B1DBFC"/>
<path d="M29.5977 12.5051L31.3442 13.2379L30.5529 14.4403L28.8064 13.7076L29.5977 12.5051Z" fill="#8BCAFF"/>
<path d="M26.1865 6.4043H13.3356L5.50781 12.6548V32.2679C5.50781 32.9948 6.24569 33.584 7.15596 33.584H26.1865C27.0968 33.584 27.8346 32.9948 27.8346 32.2679V7.72035C27.8346 6.9935 27.0967 6.4043 26.1865 6.4043Z" fill="#E8EDF2"/>
<path d="M8.31044 32.2681V10.417L5.50781 12.6549V32.2681C5.50781 32.9949 6.24569 33.5841 7.15596 33.5841H9.95859C9.04839 33.5841 8.31044 32.9949 8.31044 32.2681Z" fill="#AFCEDF"/>
<path d="M28.8242 13.6765L30.5756 14.4113L22.6734 26.4205L20.922 25.6857L28.8242 13.6765Z" fill="#FFBD7B"/>
<path d="M30.5781 14.4114L32.3295 15.1462L24.4273 27.1554L22.676 26.4206L30.5781 14.4114Z" fill="#FFBD7B"/>
<path d="M22.8566 28.2147L24.4275 27.1631L20.9239 25.6931L20.7305 27.3226L22.8566 28.2147Z" fill="#FED2A4"/>
<path d="M20.7342 27.3228L20.5413 28.9484C20.5026 29.2747 20.9786 29.4744 21.2931 29.2639L22.8603 28.2148L20.7342 27.3228Z" fill="#695D67"/>
<path d="M30.375 11.3188L33.8777 12.7884L33.083 13.9961L29.5803 12.5265L30.375 11.3188Z" fill="#DFEBFA"/>
<path d="M30.375 11.3188L32.1215 12.0516L31.3268 13.2593L29.5803 12.5265L30.375 11.3188Z" fill="#B1DBFC"/>
<path d="M5.50781 12.6548H11.6874C12.5977 12.6548 13.3356 12.0656 13.3356 11.3388V6.4043L5.50781 12.6548Z" fill="#AFCEDF"/>
<path d="M13.3355 8.65879V6.4043L5.50781 12.6548H8.33121L13.3355 8.65879Z" fill="#91B5C9"/>
<path d="M33.7272 10.6174L32.7103 10.1907C32.0237 9.9026 31.1745 10.1135 30.8137 10.6618L30.3398 11.382L33.8435 12.852L34.3173 12.1318C34.6781 11.5835 34.414 10.9055 33.7272 10.6174Z" fill="#F66C78"/>
<path d="M32.5512 11.3996C32.8587 10.9324 33.3818 10.6472 33.8314 10.6665C33.7976 10.6493 33.7634 10.6325 33.7273 10.6174L32.7103 10.1907C32.0237 9.9026 31.1745 10.1135 30.8137 10.6618L30.3398 11.3819L32.0819 12.1128L32.5512 11.3996Z" fill="#D80F3C"/>
<path d="M20.7342 27.3228L20.5413 28.9484C20.5026 29.2747 20.9786 29.4744 21.2931 29.2639L21.4594 29.1527L22.0345 27.8683L20.7342 27.3228Z" fill="#554E56"/>
<path d="M20.7305 27.3226L22.0308 27.8682L22.6756 26.4281L20.9239 25.6931L20.7305 27.3226Z" fill="#FFBD86"/>
<path d="M20.6031 14.4788C20.8868 14.4788 21.1167 14.2952 21.1167 14.0686C21.1167 13.842 20.8868 13.6584 20.6031 13.6584H12.7558C12.4721 13.6584 12.2422 13.842 12.2422 14.0686C12.2422 14.2952 12.4721 14.4788 12.7558 14.4788H20.6031Z" fill="black"/>
<path d="M8.31641 15.9497C8.31641 16.1763 8.54632 16.3599 8.83006 16.3599H24.5244C24.8081 16.3599 25.038 16.1763 25.038 15.9497C25.038 15.7231 24.8081 15.5396 24.5244 15.5396H8.83006C8.54632 15.5396 8.31641 15.7232 8.31641 15.9497Z" fill="black"/>
<path d="M8.83006 18.241H24.5244C24.8081 18.241 25.038 18.0574 25.038 17.8308C25.038 17.6042 24.8081 17.4207 24.5244 17.4207H8.83006C8.54632 17.4207 8.31641 17.6042 8.31641 17.8308C8.31641 18.0574 8.54632 18.241 8.83006 18.241Z" fill="black"/>
<path d="M33.9743 10.26L32.9573 9.83325C32.0208 9.44043 30.859 9.72913 30.367 10.4768C30.277 10.6136 28.3557 13.5334 28.3541 13.5359V7.7262C28.3541 6.77437 27.3843 6 26.1923 6H13.3413C13.2122 6 13.0781 6.04058 12.9788 6.11966C12.979 6.11949 12.9786 6.11982 12.9788 6.11966L5.1504 12.3706C5.1506 12.3704 5.15019 12.3707 5.1504 12.3706C5.05143 12.4499 5 12.5572 5 12.6606V32.2738C5 33.2256 5.96978 34 7.1618 34H26.1923C27.3843 34 28.3541 33.2256 28.3541 32.2738V29.6063C28.3541 29.3797 28.1241 29.1962 27.8404 29.1962C27.5567 29.1962 27.3267 29.3797 27.3267 29.6063V32.2738C27.3267 32.7733 26.8178 33.1797 26.1923 33.1797H7.1618C6.53624 33.1797 6.02731 32.7733 6.02731 32.2738V13.0708H8.22896C8.51271 13.0708 8.74262 12.8872 8.74262 12.6606C8.74262 12.4341 8.51271 12.2505 8.22896 12.2505H6.75368L12.8277 7.40038V11.3446C12.8277 11.8441 12.3187 12.2505 11.6932 12.2505H10.626C10.3423 12.2505 10.1124 12.4341 10.1124 12.6606C10.1124 12.8872 10.3423 13.0708 10.626 13.0708H11.6932C12.8852 13.0708 13.855 12.2964 13.855 11.3446V6.82031H26.1923C26.8178 6.82031 27.3267 7.22675 27.3267 7.7262V15.097L24.559 19.3031C24.5181 19.3009 8.87076 19.3017 8.8298 19.3017C8.54606 19.3017 8.31615 19.4853 8.31615 19.7119C8.31615 19.9384 8.54606 20.122 8.8298 20.122H24.0201L23.322 21.1828H8.82994C8.5462 21.1828 8.31629 21.3664 8.31629 21.5929C8.31629 21.8195 8.5462 22.0031 8.82994 22.0031H22.7824L22.0843 23.0639H8.82994C8.5462 23.0639 8.31629 23.2474 8.31629 23.474C8.31629 23.7006 8.5462 23.8842 8.82994 23.8842H21.5445L20.8465 24.9449H8.82994C8.5462 24.9449 8.31629 25.1285 8.31629 25.355C8.31629 25.5816 8.5462 25.7652 8.82994 25.7652H20.4068L20.2809 26.826H8.82994C8.5462 26.826 8.31629 27.0095 8.31629 27.2361C8.31629 27.4627 8.5462 27.6463 8.82994 27.6463H20.1836L20.0577 28.707H8.82994C8.5462 28.707 8.31629 28.8906 8.31629 29.1172C8.31629 29.3438 8.5462 29.5273 8.82994 29.5273H20.3007C20.6554 29.8205 21.2316 29.848 21.6262 29.5838C21.9587 29.3613 24.4315 27.7059 24.7642 27.4831C24.808 27.4538 24.8579 27.4072 24.8889 27.3596L27.3268 23.6549V27.692C27.3268 27.9186 27.5567 28.1022 27.8405 28.1022C28.1242 28.1022 28.3541 27.9186 28.3541 27.692V22.0938C28.7124 21.5494 34.405 12.8985 34.7801 12.3283C35.2721 11.5807 34.9105 10.6528 33.9743 10.26ZM29.0509 14.2406C29.1844 14.2966 29.8322 14.5683 29.8933 14.594C29.577 15.0746 22.7816 25.4016 22.4667 25.8802L21.6243 25.5268C21.898 25.1106 28.7064 14.7641 29.0509 14.2406ZM21.0683 28.8871L21.1763 27.9761L21.9464 28.2992L21.0683 28.8871ZM22.7974 27.7296C22.4646 27.5899 21.6262 27.2381 21.2812 27.0934L21.3698 26.3466C22.6874 26.8995 22.2003 26.6951 23.5173 27.2477L22.7974 27.7296ZM24.2185 26.6151C23.9964 26.522 24.1622 26.5916 23.3761 26.2617L30.8027 14.9755L31.6451 15.3289C31.5009 15.5481 24.9886 25.4448 24.2185 26.6151ZM32.1229 14.6027C30.7847 14.0413 30.7944 14.0453 29.5287 13.5144L29.8073 13.091C29.9308 13.1428 32.2613 14.1207 32.4014 14.1795L32.1229 14.6027ZM32.8793 13.4533C32.7558 13.4015 30.4253 12.4236 30.2852 12.3648L30.5637 11.9416L33.1579 13.0299L32.8793 13.4533ZM33.8707 11.9468L33.6358 12.3037C32.8595 11.978 33.9527 12.4367 31.0416 11.2153L31.2764 10.8583C31.5049 10.511 32.0448 10.377 32.4794 10.5594L33.4963 10.9862C33.9312 11.1686 34.0992 11.5996 33.8707 11.9468Z" fill="#696969"/>
</svg>
