<svg width="40" height="40" viewBox="0 0 40 40" fill="none" xmlns="http://www.w3.org/2000/svg">
<path d="M5.29492 10.625V32.747C5.29492 33.3009 5.9669 33.75 6.79579 33.75H33.2027C34.0316 33.75 34.7036 33.3009 34.7036 32.747V10.625H5.29492Z" fill="#E8EDF2"/>
<path d="M32.948 6.53442H9.63086V10.5615H34.4205V7.9238C34.4205 7.15649 33.7612 6.53442 32.948 6.53442Z" fill="#AFCEDF"/>
<path d="M10.1964 6H7.00717C6.06154 6 5.29492 6.57154 5.29492 7.27654V9.7H10.1964V6Z" fill="#F66C78"/>
<path d="M9.21608 6H6.70825C5.92763 6 5.29492 6.57155 5.29492 7.27656V9.7H7.80283V7.27656C7.80275 6.57155 8.43554 6 9.21608 6Z" fill="#D80F3C"/>
<path d="M30.6017 23.2585H9.3874C8.72149 23.2585 8.18164 23.7679 8.18164 24.3963V33.6745C8.18164 34.3028 8.72149 34.8122 9.3874 34.8122H30.6018C31.2677 34.8122 31.8074 34.3028 31.8074 33.6745V24.3963C31.8074 23.7679 31.2676 23.2585 30.6017 23.2585Z" fill="#E8EDF2"/>
<path d="M30.8558 18.1267H9.13329C8.6099 18.1267 8.18164 18.5308 8.18164 19.0247V20.2718C8.18164 20.7657 8.60983 21.1698 9.13329 21.1698H30.8559C31.3793 21.1698 31.8075 20.7657 31.8075 20.2718V19.0247C31.8074 18.5307 31.3792 18.1267 30.8558 18.1267Z" fill="#E8EDF2"/>
<path d="M30.8558 13.0283H9.13329C8.6099 13.0283 8.18164 13.4324 8.18164 13.9263V15.1735C8.18164 15.6673 8.60983 16.0714 9.13329 16.0714H30.8559C31.3793 16.0714 31.8075 15.6673 31.8075 15.1735V13.9263C31.8074 13.4324 31.3792 13.0283 30.8558 13.0283Z" fill="#E8EDF2"/>
<path d="M14.5158 27.2751H9.13329C8.6099 27.2751 8.18164 27.6793 8.18164 28.1731V29.4203C8.18164 29.9141 8.60983 30.3183 9.13329 30.3183H14.5158C15.0391 30.3183 15.4674 29.9142 15.4674 29.4203V28.1731C15.4673 27.6792 15.0391 27.2751 14.5158 27.2751Z" fill="#18BCC0"/>
<path d="M11.7561 20.2716V19.0244C11.7561 18.5306 12.1844 18.1265 12.7077 18.1265H9.13329C8.6099 18.1265 8.18164 18.5306 8.18164 19.0244V20.2716C8.18164 20.7655 8.6099 21.1696 9.13329 21.1696H12.7077C12.1844 21.1696 11.7561 20.7655 11.7561 20.2716Z" fill="#AFCEDF"/>
<path d="M11.7561 15.1732V13.926C11.7561 13.4322 12.1844 13.0281 12.7077 13.0281H9.13329C8.6099 13.0281 8.18164 13.4322 8.18164 13.926V15.1732C8.18164 15.6671 8.6099 16.0712 9.13329 16.0712H12.7077C12.1844 16.0712 11.7561 15.6671 11.7561 15.1732Z" fill="#AFCEDF"/>
<path d="M11.7561 29.42V28.1729C11.7561 27.679 12.1844 27.2749 12.7077 27.2749H9.13329C8.6099 27.2749 8.18164 27.679 8.18164 28.1729V29.42C8.18164 29.9139 8.6099 30.318 9.13329 30.318H12.7077C12.1844 30.318 11.7561 29.914 11.7561 29.42Z" fill="#0BB0B4"/>
<path d="M7.55828 32.9591V10H5V32.9591C5 33.5339 5.64549 34 6.44172 34H9C8.20378 34.0001 7.55828 33.534 7.55828 32.9591Z" fill="#AFCEDF"/>
<path d="M31.5734 7.56055H12.592C12.2747 7.56055 12.0176 7.74861 12.0176 7.98059C12.0176 8.21257 12.2747 8.40063 12.592 8.40063H31.5734C31.8907 8.40063 32.1478 8.21257 32.1478 7.98059C32.1478 7.74861 31.8906 7.56055 31.5734 7.56055Z" fill="#696969"/>
<path d="M7.61328 20.1074C7.61328 20.7228 8.2978 21.2234 9.13932 21.2234H30.8619C31.7033 21.2234 32.3879 20.7228 32.3879 20.1074V19.1409C32.3879 18.5255 31.7034 18.0249 30.8619 18.0249H9.13932C8.29788 18.0249 7.61328 18.5255 7.61328 19.1409V20.1074ZM8.76206 19.1409C8.76206 18.9913 8.93483 18.865 9.13932 18.865H30.8619C31.0664 18.865 31.2392 18.9913 31.2392 19.1409V20.1074C31.2392 20.257 31.0664 20.3833 30.8619 20.3833H9.13932C8.93483 20.3833 8.76206 20.257 8.76206 20.1074V19.1409Z" fill="#696969"/>
<path d="M9.13932 15.6735H30.8619C31.7033 15.6735 32.3879 15.1729 32.3879 14.5576V13.591C32.3879 12.9757 31.7034 12.4751 30.8619 12.4751H9.13932C8.29788 12.4751 7.61328 12.9757 7.61328 13.591V14.5576C7.61328 15.1728 8.29788 15.6735 9.13932 15.6735ZM8.76206 13.591C8.76206 13.4414 8.93483 13.3151 9.13932 13.3151H30.8619C31.0664 13.3151 31.2392 13.4414 31.2392 13.591V14.5575C31.2392 14.707 31.0664 14.8333 30.8619 14.8333H9.13932C8.93483 14.8333 8.76206 14.707 8.76206 14.5575V13.591Z" fill="#696969"/>
<path d="M9.13932 27.2749C8.29788 27.2749 7.61328 27.7755 7.61328 28.3909V29.3574C7.61328 29.9728 8.2978 30.4734 9.13932 30.4734H14.5218C15.3632 30.4734 16.0478 29.9728 16.0478 29.3574V28.3909C16.0478 27.7755 15.3633 27.2749 14.5218 27.2749H9.13932ZM14.899 28.3909V29.3574C14.899 29.507 14.7263 29.6333 14.5218 29.6333H9.13932C8.93483 29.6333 8.76206 29.507 8.76206 29.3574V28.3909C8.76206 28.2413 8.93483 28.115 9.13932 28.115H14.5218C14.7263 28.115 14.899 28.2413 14.899 28.3909Z" fill="#696969"/>
<path d="M21.3402 34.6749H32.9532C34.0817 34.6749 35 34.0035 35 33.1781V7.49681C35 6.67145 34.0817 6 32.9532 6H7.04673C5.91818 6 5 6.67145 5 7.49681V33.1782C5 34.0035 5.91818 34.675 7.04681 34.675H18.6597C18.977 34.675 19.2341 34.487 19.2341 34.255C19.2341 34.0229 18.977 33.8349 18.6597 33.8349H7.04673C6.55153 33.8349 6.1487 33.5403 6.1487 33.1782V9.96105H33.8512V33.1782C33.8512 33.5403 33.4483 33.8349 32.9531 33.8349H21.3402C21.0229 33.8349 20.7658 34.0229 20.7658 34.255C20.7658 34.487 21.0229 34.6749 21.3402 34.6749ZM9.21485 9.12097H6.14877V7.49681C6.14877 7.13467 6.55161 6.84008 7.04673 6.84008H9.21485V9.12097ZM10.3636 9.12097V6.84008H32.9532C33.4484 6.84008 33.8512 7.13467 33.8512 7.49681V9.12097H10.3636Z" fill="#696969"/>
</svg>
