<svg width="40" height="40" viewBox="0 0 40 40" fill="none" xmlns="http://www.w3.org/2000/svg">
<path d="M34.8453 6.57764H5.14427C4.41393 6.57764 3.81641 7.29466 3.81641 8.17107V31.7979C3.81641 32.6743 4.41393 33.3913 5.14427 33.3913H34.8453C35.5757 33.3913 36.1732 32.6743 36.1732 31.7979V8.17107C36.1732 7.29466 35.5757 6.57764 34.8453 6.57764V6.57764Z" fill="#E8EDF2"/>
<path d="M6.02994 31.7979V8.17107C6.02994 7.29466 6.62746 6.57764 7.3578 6.57764H5.14427C4.41393 6.57764 3.81641 7.29466 3.81641 8.17107V31.7979C3.81641 32.6743 4.41393 33.3913 5.14427 33.3913H7.3578C6.62746 33.3913 6.02994 32.6743 6.02994 31.7979Z" fill="#AFCEDF"/>
<path d="M32.2243 10.9927H11.1091C10.4965 10.9927 10 11.2045 10 11.4659V12.5195C10 12.7808 10.4965 12.9927 11.1091 12.9927H32.2243C32.8368 12.9927 33.3333 12.7808 33.3333 12.5195V11.4659C33.3332 11.2045 32.8367 10.9927 32.2243 10.9927V10.9927Z" fill="#FF656F"/>
<path d="M12.8381 12.455V11.1754C12.8381 10.8579 13.0525 10.6006 13.3171 10.6006H10.479C10.2145 10.6006 10 10.8579 10 11.1754V12.455C10 12.7725 10.2145 13.0298 10.479 13.0298H13.3171C13.0525 13.0299 12.8381 12.7725 12.8381 12.455Z" fill="#D80F3C"/>
<path d="M31.9718 16.9927H13.023C12.2723 16.9927 11.6641 17.2165 11.6641 17.4927C11.6641 17.7689 12.2723 17.9927 13.023 17.9927H31.9718C32.7225 17.9927 33.3307 17.7689 33.3307 17.4927C33.3307 17.2165 32.7223 16.9927 31.9718 16.9927V16.9927Z" fill="#696969"/>
<path d="M31.9718 19.9927H13.023C12.2723 19.9927 11.6641 20.2165 11.6641 20.4927C11.6641 20.7689 12.2723 20.9927 13.023 20.9927H31.9718C32.7225 20.9927 33.3307 20.7689 33.3307 20.4927C33.3307 20.2165 32.7223 19.9927 31.9718 19.9927V19.9927Z" fill="#696969"/>
<path d="M33.332 11.282C33.332 10.5711 32.3507 9.99268 31.1446 9.99268H10.5194C9.31331 9.99268 8.33203 10.5711 8.33203 11.282V12.7034C8.33203 13.4143 9.31331 13.9927 10.5194 13.9927H31.1445C32.3506 13.9927 33.3319 13.4143 33.3319 12.7034V11.282H33.332ZM31.1236 12.691H10.5405V11.2943H31.1236V12.691Z" fill="#696969"/>
<path d="M31.9718 14.9927H13.023C12.2723 14.9927 11.6641 15.2165 11.6641 15.4927C11.6641 15.7689 12.2723 15.9927 13.023 15.9927H31.9718C32.7225 15.9927 33.3307 15.7689 33.3307 15.4927C33.3307 15.2165 32.7223 14.9927 31.9718 14.9927Z" fill="#696969"/>
<path d="M31.9718 21.9927H13.023C12.2723 21.9927 11.6641 22.2165 11.6641 22.4927C11.6641 22.7689 12.2723 22.9927 13.023 22.9927H31.9718C32.7225 22.9927 33.3307 22.7689 33.3307 22.4927C33.3307 22.2165 32.7223 21.9927 31.9718 21.9927V21.9927Z" fill="#696969"/>
<path d="M31.9718 24.9927H13.023C12.2723 24.9927 11.6641 25.2165 11.6641 25.4927C11.6641 25.7689 12.2723 25.9927 13.023 25.9927H31.9718C32.7225 25.9927 33.3307 25.7689 33.3307 25.4927C33.3307 25.2165 32.7223 24.9927 31.9718 24.9927V24.9927Z" fill="#696969"/>
<path d="M31.9718 26.9927H13.023C12.2723 26.9927 11.6641 27.2165 11.6641 27.4927C11.6641 27.7689 12.2723 27.9927 13.023 27.9927H31.9718C32.7225 27.9927 33.3307 27.7689 33.3307 27.4927C33.3307 27.2165 32.7223 26.9927 31.9718 26.9927V26.9927Z" fill="#696969"/>
<path d="M10.1686 19.9717H8.82031C8.55059 19.9717 8.33203 20.2339 8.33203 20.5576C8.33203 20.8813 8.55059 21.1436 8.82031 21.1436H10.1686C10.4383 21.1436 10.6568 20.8813 10.6568 20.5576C10.6568 20.2339 10.4382 19.9717 10.1686 19.9717Z" fill="#696969"/>
<path d="M10.1686 14.9587H8.82031C8.55059 14.9587 8.33203 15.221 8.33203 15.5447C8.33203 15.8683 8.55059 16.1306 8.82031 16.1306H10.1686C10.4383 16.1306 10.6568 15.8683 10.6568 15.5447C10.6568 15.221 10.4382 14.9587 10.1686 14.9587Z" fill="#696969"/>
<path d="M10.1686 24.9846H8.82031C8.55059 24.9846 8.33203 25.2469 8.33203 25.5706C8.33203 25.8942 8.55059 26.1565 8.82031 26.1565H10.1686C10.4383 26.1565 10.6568 25.8942 10.6568 25.5706C10.6568 25.2469 10.4382 24.9846 10.1686 24.9846Z" fill="#696969"/>
<path d="M34.8492 6H5.14817C4.14681 6 3.33203 6.97765 3.33203 8.17937V31.8061C3.33203 33.0079 4.14681 33.9855 5.14817 33.9855H34.8492C35.8507 33.9855 36.6654 33.0078 36.6654 31.8061V21.3599C36.6654 21.0363 36.4468 20.774 36.1771 20.774C35.9074 20.774 35.6888 21.0363 35.6888 21.3599V31.8061C35.6888 32.3617 35.3122 32.8136 34.8492 32.8136H5.14817C4.68522 32.8136 4.30859 32.3617 4.30859 31.8061V8.17937C4.30859 7.62382 4.68522 7.17187 5.14817 7.17187H34.8492C35.3121 7.17187 35.6888 7.62382 35.6888 8.17937V18.6256C35.6888 18.9492 35.9074 19.2115 36.1771 19.2115C36.4468 19.2115 36.6654 18.9492 36.6654 18.6256V8.17937C36.6654 6.97765 35.8507 6 34.8492 6V6Z" fill="#696969"/>
</svg>
