<svg width="20" height="21" viewBox="0 0 20 21" fill="none" xmlns="http://www.w3.org/2000/svg">
<path d="M11.0441 11.6287C10.8943 11.7761 10.8259 11.8256 10.6252 11.9076C10.4244 11.9895 10.2078 12.0336 9.98805 12.0372C9.76833 12.0407 9.55009 12.0037 9.34633 11.9282C9.14258 11.8528 8.95748 11.7405 8.8021 11.5981C8.64671 11.4556 8.52421 11.286 8.44191 11.0992C8.35961 10.9124 8.3192 10.7124 8.32307 10.511C8.32695 10.3096 8.37504 10.1109 8.46448 9.92693C8.55392 9.74293 8.68287 9.57733 8.84364 9.44001M13 13.5C12.0676 14.1515 11.1722 14.4824 10 14.5C6.18182 14.5 4 10.5 4 10.5C4.67849 9.34096 5.61953 8.32831 6.76 7.53001L13 13.5ZM8.85455 6.62001C9.23 6.53945 9.6144 6.49918 10 6.50001C13.6884 6.50796 16 10.5 16 10.5C15.5 11.0992 14.9522 11.5446 14.5 12.0372L8.85455 6.62001Z" stroke="#A1ADB7" stroke-linecap="round" stroke-linejoin="round"/>
<path d="M4 4.5L16 16.5" stroke="#A1ADB7" stroke-linecap="round" stroke-linejoin="round"/>
</svg>
