<svg width="16" height="15" viewBox="0 0 16 15" fill="none" xmlns="http://www.w3.org/2000/svg">
<g clip-path="url(#clip0_200_3099)">
<path d="M14.2929 6.86678L8.16621 12.9934C7.41565 13.744 6.39766 14.1657 5.33621 14.1657C4.27475 14.1657 3.25677 13.744 2.50621 12.9934C1.75565 12.2429 1.33398 11.2249 1.33398 10.1634C1.33398 9.10199 1.75565 8.08401 2.50621 7.33344L8.63288 1.20678C9.13325 0.706401 9.8119 0.425293 10.5195 0.425293C11.2272 0.425293 11.9058 0.706401 12.4062 1.20678C12.9066 1.70715 13.1877 2.38581 13.1877 3.09344C13.1877 3.80108 12.9066 4.47973 12.4062 4.98011L6.27288 11.1068C6.02269 11.357 5.68336 11.4975 5.32954 11.4975C4.97572 11.4975 4.6364 11.357 4.38621 11.1068C4.13602 10.8566 3.99547 10.5173 3.99547 10.1634C3.99547 9.80962 4.13602 9.4703 4.38621 9.22011L10.0462 3.56678" stroke="#A1ADB7" stroke-linecap="round" stroke-linejoin="round"/>
</g>
<defs>
<clipPath id="clip0_200_3099">
<rect width="16" height="15" fill="white"/>
</clipPath>
</defs>
</svg>
