<svg width="33" height="32" viewBox="0 0 33 32" fill="none" xmlns="http://www.w3.org/2000/svg">
<g clip-path="url(#clip0_401_6276)">
<path d="M16.7144 0C13.5499 0 10.4564 0.938384 7.82524 2.69649C5.19405 4.45459 3.14329 6.95345 1.93229 9.87707C0.721288 12.8007 0.404435 16.0177 1.0218 19.1214C1.63916 22.2251 3.16301 25.0761 5.40065 27.3137C7.63829 29.5513 10.4892 31.0752 13.5929 31.6926C16.6966 32.3099 19.9137 31.9931 22.8373 30.7821C25.7609 29.5711 28.2598 27.5203 30.0179 24.8891C31.776 22.2579 32.7144 19.1645 32.7144 16C32.7144 11.7565 31.0287 7.68687 28.0281 4.68629C25.0275 1.68571 20.9578 0 16.7144 0V0ZM24.6828 11.1579C24.3046 11.726 23.8425 12.2335 23.3123 12.6632C23.2454 12.7189 23.1918 12.7888 23.1554 12.8678C23.119 12.9468 23.1007 13.033 23.1017 13.12V13.1726C23.0956 14.3136 22.886 15.4442 22.4828 16.5116C22.0673 17.6318 21.4501 18.6665 20.6617 19.5642C19.6023 20.7703 18.2393 21.671 16.7144 22.1726C15.7123 22.4979 14.6647 22.6606 13.6112 22.6547C11.9399 22.6545 10.2984 22.2122 8.85331 21.3726C8.80153 21.3432 8.76076 21.2977 8.7372 21.2429C8.71365 21.1882 8.70858 21.1273 8.72278 21.0695C8.73736 21.0126 8.77056 20.9621 8.81711 20.9263C8.86366 20.8904 8.92087 20.8712 8.97963 20.8716H9.37963C10.6496 20.8738 11.8913 20.497 12.9459 19.7895C12.3177 19.6869 11.7299 19.4131 11.2471 18.9983C10.7642 18.5834 10.4051 18.0435 10.2091 17.4379C10.1991 17.4076 10.1973 17.3751 10.2038 17.3439C10.2104 17.3126 10.2251 17.2836 10.2465 17.2599C10.2679 17.2362 10.2952 17.2185 10.3256 17.2087C10.356 17.199 10.3884 17.1974 10.4196 17.2042C10.6112 17.2403 10.8057 17.2586 11.0007 17.2589H11.0744C10.467 16.9802 9.95344 16.5314 9.59587 15.9668C9.23829 15.4022 9.05203 14.7461 9.05963 14.0779C9.05984 14.0466 9.06815 14.016 9.08375 13.9889C9.09934 13.9618 9.12169 13.9392 9.14861 13.9233C9.17553 13.9074 9.20611 13.8987 9.23737 13.8981C9.26863 13.8976 9.29951 13.9051 9.32699 13.92C9.57397 14.0579 9.83898 14.1606 10.1144 14.2253C9.57054 13.6869 9.22073 12.9833 9.11977 12.2247C9.01881 11.4662 9.1724 10.6956 9.55647 10.0337C9.57121 10.0084 9.59186 9.98705 9.61665 9.97149C9.64144 9.95592 9.66964 9.94661 9.69882 9.94433C9.72801 9.94205 9.75731 9.94689 9.78421 9.95842C9.81112 9.96994 9.83483 9.98783 9.85331 10.0105C10.6144 10.951 11.5564 11.7293 12.6235 12.2996C13.6905 12.8698 14.8611 13.2204 16.0659 13.3305H16.0828C16.1005 13.33 16.1179 13.3259 16.134 13.3184C16.15 13.311 16.1644 13.3003 16.1762 13.2871C16.1881 13.2739 16.1971 13.2585 16.2027 13.2417C16.2084 13.2249 16.2105 13.2071 16.2091 13.1895C16.1622 12.767 16.1893 12.3395 16.2891 11.9263C16.4249 11.3647 16.7038 10.8477 17.0985 10.4257C17.4932 10.0037 17.9904 9.69093 18.5417 9.5179C18.8955 9.4074 19.2638 9.35063 19.6344 9.34947C20.4746 9.34851 21.2863 9.65474 21.9165 10.2105C21.9981 10.2836 22.1038 10.324 22.2133 10.3242C22.2489 10.3235 22.2842 10.3185 22.3186 10.3095C22.9103 10.1597 23.4775 9.92571 24.0028 9.61474C24.0342 9.59537 24.0708 9.58618 24.1076 9.58843C24.1445 9.59068 24.1797 9.60426 24.2085 9.62731C24.2373 9.65036 24.2583 9.68175 24.2686 9.71719C24.2789 9.75262 24.2779 9.79037 24.2659 9.82526C24.0908 10.3764 23.7785 10.874 23.3586 11.2716C23.7372 11.1823 24.1065 11.0576 24.4617 10.8989C24.4966 10.8859 24.5346 10.8838 24.5706 10.8931C24.6066 10.9024 24.6389 10.9226 24.6631 10.9509C24.6872 10.9792 24.7021 11.0142 24.7056 11.0513C24.7091 11.0883 24.7012 11.1255 24.6828 11.1579Z" fill="#A1ADB7"/>
</g>
<defs>
<clipPath id="clip0_401_6276">
<rect width="32" height="32" fill="white" transform="translate(0.714355)"/>
</clipPath>
</defs>
</svg>
