<svg width="33" height="32" viewBox="0 0 33 32" fill="none" xmlns="http://www.w3.org/2000/svg">
<g clip-path="url(#clip0_401_6271)">
<path d="M14.8008 12.9347L19.7924 16L14.8008 19.0673V12.9347Z" fill="#A1ADB7"/>
<path d="M16.7144 0C13.5499 0 10.4564 0.938384 7.82524 2.69649C5.19405 4.45459 3.14329 6.95345 1.93229 9.87707C0.721288 12.8007 0.404435 16.0177 1.0218 19.1214C1.63916 22.2251 3.16301 25.0761 5.40065 27.3137C7.63829 29.5513 10.4892 31.0752 13.5929 31.6926C16.6966 32.3099 19.9137 31.9931 22.8373 30.7821C25.7609 29.5711 28.2598 27.5203 30.0179 24.8891C31.776 22.2579 32.7144 19.1645 32.7144 16C32.7144 11.7565 31.0287 7.68687 28.0281 4.68629C25.0275 1.68571 20.9578 0 16.7144 0V0ZM24.3396 19.8505C24.0196 20.8337 22.9607 21.4316 21.9859 21.5684C18.4814 21.9411 14.9473 21.9411 11.4428 21.5684C10.468 21.4316 9.4091 20.8337 9.0891 19.8505C8.59017 17.3085 8.59017 14.6936 9.0891 12.1516C9.4091 11.1579 10.468 10.5705 11.4512 10.4337C14.9557 10.061 18.4899 10.061 21.9944 10.4337C22.9691 10.5705 24.028 11.1663 24.348 12.1516C24.8442 14.6942 24.8413 17.309 24.3396 19.8505Z" fill="#A1ADB7"/>
</g>
<defs>
<clipPath id="clip0_401_6271">
<rect width="32" height="32" fill="white" transform="translate(0.714355)"/>
</clipPath>
</defs>
</svg>
