<svg width="32.000000" height="32.000000" viewBox="0 0 32 32" fill="none" xmlns="http://www.w3.org/2000/svg" xmlns:xlink="http://www.w3.org/1999/xlink">
	<desc>
			Created with Pixso.
	</desc>
	<defs>
		<clipPath id="clip345_184">
			<rect id="har_6" width="32.000000" height="32.000000" fill="white" fill-opacity="0"/>
		</clipPath>
	</defs>
	<rect id="har_6" width="32.000000" height="32.000000" fill="#FFFFFF" fill-opacity="0"/>
	<g clip-path="url(#clip345_184)">
		<path id="Vector" d="M29.28 9.03C29.32 8.98 29.36 8.93 29.37 8.87C29.39 8.82 29.4 8.76 29.39 8.7C29.38 8.64 29.35 8.58 29.31 8.54C29.28 8.49 29.23 8.45 29.18 8.42C28.34 8.03 27.4 7.9 26.48 8.06C25.57 8.22 24.73 8.66 24.07 9.32C22.8 10.59 22.35 12.6 22.95 14.28L14.28 22.92C13.8 22.75 13.3 22.67 12.79 22.67C11.5 22.67 10.25 23.18 9.36 24.07C8.71 24.72 8.27 25.55 8.1 26.45C7.93 27.35 8.03 28.28 8.4 29.12C8.43 29.18 8.46 29.23 8.51 29.26C8.56 29.3 8.62 29.33 8.68 29.34C8.74 29.35 8.8 29.35 8.86 29.33C8.92 29.31 8.97 29.28 9.01 29.24L11.63 26.61C11.81 26.43 12.08 26.41 12.23 26.56L13.36 27.74C13.52 27.9 13.52 28.16 13.34 28.33L10.73 30.95C10.69 31 10.66 31.05 10.64 31.1C10.62 31.16 10.62 31.22 10.63 31.28C10.64 31.34 10.66 31.4 10.7 31.44C10.74 31.49 10.78 31.53 10.84 31.55C11.44 31.84 12.11 31.99 12.78 32C13.96 32 15.08 31.52 15.94 30.66C17.22 29.38 17.66 27.38 17.07 25.7L25.73 17.06C26.21 17.23 26.72 17.31 27.23 17.31C28.51 17.31 29.76 16.8 30.65 15.91C31.3 15.26 31.74 14.43 31.91 13.53C32.09 12.63 31.98 11.7 31.61 10.86C31.59 10.8 31.55 10.75 31.5 10.71C31.45 10.68 31.4 10.65 31.34 10.64C31.28 10.63 31.22 10.63 31.16 10.65C31.1 10.67 31.05 10.7 31 10.74L28.38 13.37C28.3 13.45 28.19 13.49 28.08 13.49C27.97 13.49 27.86 13.44 27.78 13.36L26.65 12.24C26.61 12.2 26.58 12.16 26.56 12.1C26.54 12.05 26.53 12 26.53 11.94C26.53 11.89 26.54 11.83 26.56 11.78C26.58 11.73 26.61 11.68 26.65 11.65L29.28 9.03ZM26.12 12.77L27.25 13.89C27.7 14.34 28.47 14.34 28.91 13.9L31.11 11.69C31.29 12.34 31.29 13.02 31.11 13.67C30.94 14.32 30.6 14.91 30.12 15.38C29.37 16.13 28.32 16.56 27.23 16.56C26.72 16.56 26.23 16.47 25.78 16.28C25.72 16.25 25.64 16.24 25.57 16.25C25.49 16.27 25.43 16.3 25.37 16.36L16.36 25.34C16.31 25.39 16.28 25.46 16.26 25.53C16.25 25.6 16.25 25.68 16.28 25.75C16.89 27.18 16.52 29.02 15.41 30.14C14.93 30.62 14.33 30.96 13.67 31.13C13.01 31.29 12.32 31.28 11.67 31.08L13.88 28.86C14.34 28.39 14.35 27.67 13.9 27.22L12.77 26.04C12.33 25.6 11.56 25.63 11.1 26.08L8.9 28.29C8.73 27.64 8.73 26.96 8.9 26.31C9.08 25.66 9.42 25.07 9.9 24.6C10.64 23.85 11.7 23.42 12.79 23.42C13.3 23.42 13.78 23.51 14.23 23.7C14.3 23.73 14.37 23.74 14.45 23.73C14.52 23.71 14.59 23.68 14.64 23.62L23.65 14.64C23.7 14.59 23.74 14.52 23.75 14.45C23.77 14.38 23.76 14.3 23.73 14.23C23.13 12.8 23.5 10.96 24.6 9.84C25.08 9.36 25.68 9.02 26.34 8.85C27 8.69 27.69 8.7 28.35 8.9L26.12 11.12C26.01 11.23 25.93 11.35 25.87 11.5C25.81 11.64 25.78 11.79 25.78 11.94C25.78 12.1 25.81 12.25 25.87 12.39C25.93 12.53 26.01 12.66 26.12 12.77Z" fill="#232C5E" fill-opacity="1.000000" fill-rule="nonzero"/>
		<path id="Vector" d="M29.92 30.95C29.84 31.03 29.73 31.08 29.61 31.08C29.5 31.08 29.39 31.03 29.3 30.95L21.77 23.46C21.7 23.4 21.61 23.37 21.51 23.37C21.42 23.37 21.32 23.41 21.26 23.48C21.19 23.55 21.15 23.64 21.15 23.73C21.14 23.83 21.18 23.92 21.24 24L28.77 31.48C29 31.7 29.3 31.83 29.62 31.83C29.93 31.83 30.23 31.7 30.46 31.47L31.53 30.36C31.64 30.25 31.73 30.12 31.79 29.98C31.85 29.84 31.88 29.68 31.88 29.53C31.88 29.38 31.85 29.22 31.79 29.08C31.73 28.94 31.64 28.81 31.53 28.7L24.03 21.22C23.96 21.15 23.86 21.11 23.76 21.11C23.66 21.12 23.57 21.15 23.5 21.22C23.43 21.29 23.39 21.39 23.39 21.49C23.39 21.58 23.43 21.68 23.5 21.75L31 29.23C31.17 29.41 31.17 29.66 31 29.83L29.92 30.95ZM12.39 10.37L10.14 8.12C10.07 8.05 9.97 8.01 9.87 8.01C9.77 8.01 9.68 8.05 9.61 8.12L8.1 9.62C8.03 9.69 8 9.78 8 9.88C8 9.98 8.03 10.08 8.1 10.15L10.36 12.39C10.43 12.46 10.52 12.5 10.62 12.5C10.72 12.5 10.82 12.46 10.89 12.39L11.37 11.91L17.11 17.63C17.15 17.67 17.19 17.7 17.24 17.72C17.28 17.74 17.33 17.75 17.38 17.75C17.43 17.75 17.48 17.74 17.53 17.72C17.57 17.7 17.61 17.67 17.65 17.64C17.68 17.6 17.71 17.56 17.73 17.51C17.75 17.47 17.76 17.42 17.76 17.37C17.76 17.32 17.75 17.27 17.73 17.22C17.71 17.18 17.68 17.14 17.64 17.1L11.9 11.38L12.39 10.9C12.42 10.86 12.45 10.82 12.47 10.77C12.49 10.73 12.5 10.68 12.5 10.63C12.5 10.58 12.49 10.53 12.47 10.49C12.45 10.44 12.42 10.4 12.39 10.37ZM10.62 11.6L8.9 9.88L9.87 8.91L11.59 10.63L10.62 11.6Z" fill="#232C5E" fill-opacity="1.000000" fill-rule="nonzero"/>
	</g>
</svg>
