<svg width="32.000000" height="32.000000" viewBox="0 0 32 32" fill="none" xmlns="http://www.w3.org/2000/svg" xmlns:xlink="http://www.w3.org/1999/xlink">
	<desc>
			Created with Pixso.
	</desc>
	<defs>
		<clipPath id="clip345_179">
			<rect id="har_5" width="32.000000" height="32.000000" fill="white" fill-opacity="0"/>
		</clipPath>
	</defs>
	<rect id="har_5" width="32.000000" height="32.000000" fill="#FFFFFF" fill-opacity="0"/>
	<g clip-path="url(#clip345_179)">
		<path id="Vector" d="M12.28 27.34C9.89 26.57 7.91 25.15 6.35 23.08C4.8 21.02 4.02 18.65 4.02 15.98C4.02 15.28 4.08 14.59 4.19 13.91C4.31 13.22 4.49 12.55 4.75 11.9L1.85 13.57L1.21 12.42L6.4 9.42L9.4 14.6L8.25 15.29L6.24 11.83C5.95 12.48 5.73 13.16 5.59 13.86C5.45 14.56 5.38 15.28 5.38 16C5.38 18.4 6.09 20.52 7.52 22.38C8.94 24.25 10.76 25.5 12.98 26.16L12.28 27.34ZM20.28 10.64L20.28 9.3L24.24 9.3C23.24 8.04 22.01 7.06 20.57 6.38C19.13 5.7 17.6 5.36 16 5.36C14.58 5.36 13.27 5.61 12.04 6.12C10.81 6.62 9.73 7.32 8.78 8.21L8.09 7.01C9.15 6.08 10.35 5.35 11.69 4.82C13.03 4.29 14.45 4.02 15.97 4.02C17.71 4.02 19.35 4.37 20.9 5.07C22.45 5.77 23.8 6.77 24.95 8.08L24.95 4.64L26.28 4.64L26.28 10.64L20.28 10.64ZM20.46 30.51L15.27 27.48L18.27 22.33L19.42 23L17.34 26.54C19.98 26.2 22.19 25.03 23.96 23.03C25.72 21.03 26.61 18.68 26.61 16C26.61 15.53 26.58 15.07 26.52 14.62C26.46 14.17 26.36 13.73 26.23 13.3L27.62 13.3C27.73 13.73 27.81 14.16 27.86 14.61C27.92 15.05 27.94 15.5 27.94 15.97C27.94 18.87 27.03 21.41 25.21 23.61C23.39 25.81 21.07 27.17 18.25 27.7L21.13 29.36L20.46 30.51Z" fill="#232C5E" fill-opacity="1.000000" fill-rule="nonzero"/>
	</g>
</svg>
