<svg width="32.000000" height="32.000000" viewBox="0 0 32 32" fill="none" xmlns="http://www.w3.org/2000/svg" xmlns:xlink="http://www.w3.org/1999/xlink">
	<desc>
			Created with Pixso.
	</desc>
	<defs>
		<clipPath id="clip345_162">
			<rect id="har_2" width="32.000000" height="32.000000" fill="white" fill-opacity="0"/>
		</clipPath>
	</defs>
	<rect id="har_2" width="32.000000" height="32.000000" fill="#FFFFFF" fill-opacity="0"/>
	<g clip-path="url(#clip345_162)">
		<path id="Vector" d="M29.05 19.26C28.76 19.04 28.42 18.89 28.06 18.82C27.7 18.75 27.33 18.76 26.97 18.86L21.24 20.15C21.48 19.73 21.61 19.26 21.61 18.78C21.61 18.05 21.32 17.35 20.8 16.84C20.27 16.33 19.56 16.04 18.82 16.04L13 16.04C12.57 16.04 12.14 16.12 11.75 16.28C11.35 16.44 10.99 16.68 10.69 16.97L7.92 19.69L4.39 19.69C4.02 19.69 3.67 19.83 3.4 20.09C3.14 20.35 3 20.7 3 21.06L3 25.63C3 25.99 3.14 26.34 3.4 26.59C3.67 26.85 4.02 27 4.39 27L16.49 27C16.53 27 16.57 26.99 16.61 26.98L24.06 25.16C24.08 25.15 24.1 25.14 24.13 25.13L28.64 23.24L28.67 23.23C29.03 23.05 29.35 22.79 29.58 22.46C29.81 22.13 29.95 21.75 29.98 21.35C30.02 20.95 29.96 20.55 29.79 20.19C29.63 19.82 29.38 19.5 29.05 19.26L29.05 19.26ZM3.93 25.63L3.93 21.06C3.93 20.94 3.97 20.82 4.06 20.74C4.15 20.65 4.27 20.6 4.39 20.6L7.65 20.6L7.65 26.08L4.39 26.08C4.27 26.08 4.15 26.03 4.06 25.95C3.97 25.86 3.93 25.75 3.93 25.63ZM28.26 22.41L23.79 24.28L16.44 26.08L8.58 26.08L8.58 20.34L11.35 17.62C11.57 17.41 11.82 17.24 12.1 17.12C12.39 17.01 12.69 16.95 13 16.95L18.82 16.95C19.31 16.95 19.79 17.14 20.14 17.49C20.49 17.83 20.68 18.29 20.68 18.78C20.68 19.26 20.49 19.73 20.14 20.07C19.79 20.41 19.31 20.6 18.82 20.6L15.56 20.6C15.44 20.6 15.32 20.65 15.23 20.74C15.15 20.82 15.1 20.94 15.1 21.06C15.1 21.18 15.15 21.3 15.23 21.38C15.32 21.47 15.44 21.52 15.56 21.52L19.29 21.52C19.32 21.52 19.36 21.51 19.39 21.51L27.19 19.75L27.21 19.75C27.56 19.66 27.93 19.69 28.25 19.86C28.57 20.02 28.82 20.29 28.95 20.62C29.08 20.95 29.08 21.32 28.95 21.65C28.82 21.98 28.57 22.25 28.25 22.41L28.26 22.41ZM21.61 13.3C21.96 13.3 22.3 13.25 22.63 13.16C22.79 13.88 23.16 14.53 23.7 15.03C24.24 15.54 24.93 15.87 25.66 15.99C26.4 16.11 27.15 16.01 27.83 15.7C28.51 15.39 29.08 14.89 29.46 14.27C29.85 13.64 30.03 12.91 29.99 12.18C29.94 11.45 29.68 10.75 29.23 10.17C28.77 9.59 28.15 9.15 27.44 8.92C26.73 8.69 25.97 8.67 25.25 8.87C25.1 8.2 24.76 7.58 24.27 7.09C23.78 6.6 23.16 6.25 22.47 6.09C21.79 5.93 21.07 5.97 20.41 6.19C19.74 6.41 19.16 6.82 18.72 7.35C18.27 7.89 18 8.54 17.92 9.22C17.83 9.91 17.95 10.6 18.25 11.22C18.56 11.84 19.03 12.37 19.63 12.74C20.22 13.1 20.91 13.3 21.61 13.3ZM29.06 12.39C29.06 12.93 28.9 13.46 28.59 13.91C28.28 14.36 27.85 14.71 27.34 14.92C26.83 15.12 26.26 15.18 25.72 15.07C25.18 14.97 24.68 14.71 24.29 14.32C23.9 13.94 23.64 13.45 23.53 12.92C23.42 12.39 23.48 11.84 23.69 11.34C23.9 10.84 24.26 10.41 24.72 10.11C25.18 9.81 25.72 9.65 26.27 9.65C27.01 9.65 27.72 9.94 28.24 10.45C28.77 10.96 29.06 11.66 29.06 12.39ZM21.61 6.91C22.28 6.91 22.93 7.14 23.44 7.57C23.94 8 24.28 8.59 24.38 9.24C23.84 9.55 23.39 9.99 23.07 10.51C22.75 11.03 22.57 11.62 22.54 12.23C22.16 12.36 21.75 12.41 21.35 12.37C20.94 12.34 20.55 12.21 20.2 12.01C19.85 11.81 19.55 11.53 19.31 11.21C19.08 10.88 18.93 10.5 18.86 10.11C18.79 9.72 18.81 9.31 18.92 8.93C19.02 8.54 19.21 8.19 19.48 7.88C19.74 7.58 20.07 7.33 20.44 7.16C20.8 6.99 21.21 6.91 21.61 6.91Z" fill="#232C5E" fill-opacity="1.000000" fill-rule="nonzero"/>
	</g>
</svg>
