<svg width="40" height="40" viewBox="0 0 40 40" fill="none" xmlns="http://www.w3.org/2000/svg">
<path d="M14.3498 35.2956H3.21675V30.5911H14.3251V35.2956H14.3498ZM16.5911 28.2266H1V40H3.21675V37.6355H16.5419V28.2266H16.5911ZM3.21675 7.06897L7.67488 2.36453V18.8424H3.21675V7.06897ZM1 21.1823H9.86699V0H6.5665L1 5.8867V21.1823ZM14.3498 2.36453H18.8079V18.8424H14.3498V2.36453ZM12.133 21.1823H21V0H12.133V21.1823ZM36.5419 21.1823H38.7586V0H35.4089V0.0246305L32.0591 3.5468V0H28.7094L23.1921 5.8867V21.1823H25.4089V7.06897L29.867 2.36453V21.1823H32.0837V7.06897L36.5419 2.36453V21.1823ZM1 25.8867H38.7832V23.5222H1V25.8867ZM29.8916 30.5911H36.5419V35.2956H29.8916V30.5911ZM27.6749 35.2956H21V30.5911H27.6749V35.2956ZM29.8916 37.6355H38.7832V28.2266H18.8079V37.6355H27.6749V40H29.8916V37.6355Z" fill="#384249"/>
</svg>
