<svg width="200" height="50" viewBox="0 0 200 50" fill="none" xmlns="http://www.w3.org/2000/svg">
<path d="M108.956 6.49609L90.5957 8.8946V14.3278L108.956 12.6893V6.49609Z" fill="#E4003A"/>
<path fill-rule="evenodd" clip-rule="evenodd" d="M105.481 18.9493L90.5964 8.90234V14.3227L95.2375 17.4664L96.1506 17.9991C94.4832 18.0191 93.6847 18.3578 92.8826 18.8421C90.5908 20.2238 89.4012 22.6536 89.4012 26.2392C89.4012 32.281 92.7361 35.1416 99.0889 35.1416C105.442 35.1416 108.794 32.281 108.794 26.2392C108.794 22.7424 107.66 20.3513 105.481 18.9493ZM99.0889 30.7238C95.9395 30.7238 94.9483 29.5773 94.9483 26.2856C94.9483 22.9939 95.9321 21.8474 99.0889 21.8474C102.246 21.8474 103.213 22.9716 103.213 26.2856C103.213 29.5993 102.263 30.7238 99.0889 30.7238ZM52.859 26.2856C52.859 29.5829 53.8428 30.7238 56.9996 30.7238C60.1565 30.7238 61.1238 29.5773 61.1238 26.2856C61.1238 22.9939 60.1713 21.8474 56.9996 21.8474C53.8276 21.8474 52.859 22.9716 52.859 26.2856ZM47.3119 26.2376C47.3119 20.1958 50.6691 17.4312 56.9996 17.4312C63.3303 17.4312 66.7021 20.1958 66.7021 26.2376C66.7021 32.2791 63.3672 35.14 56.9996 35.14C50.632 35.14 47.3119 32.2791 47.3119 26.2376ZM31.7214 20.0238C32.3254 19.2581 34.7619 17.4089 37.7594 17.4089C42.7485 17.4089 45.4998 20.0978 45.4998 26.206C45.4998 32.3139 42.7449 35.0288 37.7427 35.0288C34.7282 35.0288 32.3087 33.2129 31.6882 32.4306V40.5044H26.4023V17.8047H31.7214V20.0238ZM31.7252 26.1929C31.7252 29.4865 32.7164 30.6311 35.8658 30.6311V30.6238C39.0375 30.6238 39.9881 29.503 39.9881 26.1929C39.9881 22.8828 39.0227 21.7547 35.8658 21.7547C32.709 21.7547 31.7252 22.8992 31.7252 26.1929ZM145.166 17.812V23.9757H138.148V17.812H132.829V34.4926H138.148V28.2436H145.166V34.4926H150.487V17.812H145.166ZM118.381 35.0288C113.375 35.0288 110.624 32.3083 110.624 26.206C110.624 20.1143 113.373 17.4089 118.363 17.4089C121.358 17.4089 123.795 19.2581 124.402 20.0127V17.7936H129.722V34.4942H124.434V32.4306C123.813 33.2129 121.394 35.0288 118.381 35.0288ZM120.258 21.7435C117.084 21.7435 116.134 22.868 116.134 26.1817C116.132 29.479 117.103 30.6202 120.258 30.6202C123.413 30.6202 124.397 29.4921 124.397 26.1817C124.397 22.8716 123.432 21.7435 120.258 21.7435ZM82.1369 28.3288C81.7218 30.0728 80.6103 30.7235 78.2016 30.7235C75.0521 30.7235 74.0626 29.5769 74.0626 26.2853C74.0626 22.9936 75.0521 21.8471 78.2016 21.8471C80.6103 21.8471 81.7218 22.4961 82.1385 24.2513L87.6856 23.8314C86.8574 19.4672 83.6096 17.4384 78.2016 17.4384C71.871 17.4384 68.5158 20.203 68.5158 26.2448C68.5158 32.2863 71.8504 35.1472 78.2016 35.1472C83.6058 35.1472 86.8204 33.0761 87.6689 28.7543L82.1369 28.3288ZM164.582 25.7325L173 34.4906H166.162L158.829 26.8107V27.2138V28.6579V34.4906H153.605V17.812H158.829V25.0575L165.968 17.812H172.548L164.582 25.7325Z" fill="#00274F"/>
</svg>
