<svg width="48" height="48" viewBox="0 0 48 48" fill="none" xmlns="http://www.w3.org/2000/svg">
<path d="M45 39.7484H41.25V21.6621C41.2498 21.3513 41.1853 21.0439 41.0604 20.7592C40.9355 20.4746 40.753 20.2189 40.5244 20.0084L25.5131 5.83524C25.0972 5.45705 24.5547 5.24828 23.9926 5.25001C23.4304 5.25175 22.8892 5.46387 22.4756 5.84461L7.48688 19.999C7.25505 20.2096 7.06976 20.4664 6.94287 20.7528C6.81598 21.0391 6.75029 21.3489 6.75 21.6621V39.7484H3C2.80109 39.7484 2.61032 39.8274 2.46967 39.968C2.32902 40.1087 2.25 40.2994 2.25 40.4984C2.25 40.6973 2.32902 40.888 2.46967 41.0287C2.61032 41.1693 2.80109 41.2484 3 41.2484H45C45.1989 41.2484 45.3897 41.1693 45.5303 41.0287C45.671 40.888 45.75 40.6973 45.75 40.4984C45.75 40.2994 45.671 40.1087 45.5303 39.968C45.3897 39.8274 45.1989 39.7484 45 39.7484ZM8.25 21.6621C8.25119 21.5558 8.27447 21.4509 8.31837 21.3541C8.36227 21.2572 8.42582 21.1706 8.505 21.0996L23.4938 6.94524C23.6312 6.82242 23.8091 6.75453 23.9934 6.75453C24.1778 6.75453 24.3557 6.82242 24.4931 6.94524L39.5044 21.1165C39.5827 21.1876 39.645 21.2745 39.6874 21.3715C39.7297 21.4684 39.751 21.5732 39.75 21.679V39.7484H29.25V29.9984C29.25 29.4016 29.0129 28.8293 28.591 28.4074C28.169 27.9854 27.5967 27.7484 27 27.7484H21C20.4033 27.7484 19.831 27.9854 19.409 28.4074C18.9871 28.8293 18.75 29.4016 18.75 29.9984V39.7484H8.25V21.6621ZM27.75 39.7484H20.25V29.9984C20.25 29.7994 20.329 29.6087 20.4697 29.468C20.6103 29.3274 20.8011 29.2484 21 29.2484H27C27.1989 29.2484 27.3897 29.3274 27.5303 29.468C27.671 29.6087 27.75 29.7994 27.75 29.9984V39.7484Z" fill="#333333"/>
</svg>
