<svg id="Слой_1" data-name="Слой 1" xmlns="http://www.w3.org/2000/svg" xmlns:xlink="http://www.w3.org/1999/xlink" viewBox="0 0 1080 1080"><defs><style>.cls-1{fill:url(#Безымянный_градиент_36);}.cls-2{fill:url(#Безымянный_градиент_36-2);}.cls-3{fill:url(#Безымянный_градиент_36-3);}.cls-4{fill:url(#Безымянный_градиент_36-4);}.cls-5{fill:url(#Безымянный_градиент_36-5);}.cls-6{fill:url(#Безымянный_градиент_36-6);}.cls-7{fill:url(#Безымянный_градиент_36-7);}.cls-8{fill:url(#Безымянный_градиент_45);}.cls-9{fill:url(#Безымянный_градиент_40);}.cls-10{fill:url(#Безымянный_градиент_40-2);}.cls-11{fill:url(#Безымянный_градиент_45-2);}</style><linearGradient id="Безымянный_градиент_36" x1="226.2" y1="780.85" x2="226.2" y2="680.38" gradientUnits="userSpaceOnUse"><stop offset="0" stop-color="#242752"/><stop offset="0.34" stop-color="#212a5a"/><stop offset="0.87" stop-color="#19316e"/><stop offset="1" stop-color="#163375"/></linearGradient><linearGradient id="Безымянный_градиент_36-2" x1="310.78" y1="780.85" x2="310.78" y2="680.38" xlink:href="#Безымянный_градиент_36"/><linearGradient id="Безымянный_градиент_36-3" x1="398.34" y1="780.85" x2="398.34" y2="680.38" xlink:href="#Безымянный_градиент_36"/><linearGradient id="Безымянный_градиент_36-4" x1="530.28" y1="801.81" x2="530.28" y2="666.36" xlink:href="#Безымянный_градиент_36"/><linearGradient id="Безымянный_градиент_36-5" x1="630.42" y1="782.58" x2="630.42" y2="678.66" xlink:href="#Безымянный_градиент_36"/><linearGradient id="Безымянный_градиент_36-6" x1="738.08" y1="780.85" x2="738.08" y2="680.38" xlink:href="#Безымянный_градиент_36"/><linearGradient id="Безымянный_градиент_36-7" x1="843.18" y1="780.85" x2="843.18" y2="680.38" xlink:href="#Безымянный_градиент_36"/><linearGradient id="Безымянный_градиент_45" x1="540" y1="630.11" x2="540" y2="352.18" gradientUnits="userSpaceOnUse"><stop offset="0" stop-color="#242752"/><stop offset="0.34" stop-color="#222c5f"/><stop offset="0.96" stop-color="#1e3b82"/><stop offset="1" stop-color="#1e3c85"/></linearGradient><linearGradient id="Безымянный_градиент_40" x1="618.41" y1="601.37" x2="760.2" y2="355.78" gradientUnits="userSpaceOnUse"><stop offset="0" stop-color="#1f5ab6"/><stop offset="0.26" stop-color="#2460be"/><stop offset="0.66" stop-color="#326fd2"/><stop offset="1" stop-color="#4281ea"/></linearGradient><linearGradient id="Безымянный_градиент_40-2" x1="329.56" y1="601.37" x2="471.35" y2="355.78" xlink:href="#Безымянный_градиент_40"/><linearGradient id="Безымянный_градиент_45-2" x1="499.01" y1="519.34" x2="499.01" y2="278.19" xlink:href="#Безымянный_градиент_45"/></defs><title>logo 3doma color</title><path class="cls-1" d="M216.6,780.85v-87l4.42,5.46H190v-19h72.41v19h-31l4.3-5.46v87Z"/><path class="cls-2" d="M274.58,780.85V680.38h36.14q11.22,0,19.33,4.38a30.32,30.32,0,0,1,12.52,12.56Q347,705.49,347,716.7t-4.42,19.44a30.85,30.85,0,0,1-12.52,12.56q-8.12,4.45-19.33,4.45H285.19L294,742.67v38.18ZM294,745.26l-8.83-11h24.46q8.82,0,13.36-4.6t4.53-12.91q0-8.33-4.53-12.85t-13.36-4.52H285.19L294,688.28Z"/><path class="cls-3" d="M359.75,780.85V680.38h19.09V746l40-65.6h18.13V780.85H417.85v-65.3L378,780.85Z"/><path class="cls-4" d="M483,801.81v-39.9h94.6v39.9h-17.9v-21H500.87l-.12,21Zm63.82-31.43V685.31H518.29L517.81,714q-.36,9.33-1,17.72a136.67,136.67,0,0,1-2,15.15,57.57,57.57,0,0,1-3.34,11.48,14.17,14.17,0,0,1-5.25,6.75l-20.64-3.16a8.19,8.19,0,0,0,7.1-3.59,29.08,29.08,0,0,0,4.47-10.55,104.38,104.38,0,0,0,2.45-15.93q.78-9.12,1.13-20l1.08-45.46h64.06v104Z"/><path class="cls-5" d="M630.42,782.58a42.6,42.6,0,0,1-18.13-3.88,43.68,43.68,0,0,1-14.55-10.91,50.33,50.33,0,0,1-9.61-16.5,64.74,64.74,0,0,1,0-41.41,50.56,50.56,0,0,1,9.61-16.44,44.13,44.13,0,0,1,14.49-10.91,42.48,42.48,0,0,1,18.19-3.87,42.37,42.37,0,0,1,32.69,14.64,50.53,50.53,0,0,1,9.6,16.51,65.17,65.17,0,0,1,0,41.55,50.45,50.45,0,0,1-9.6,16.58,42.45,42.45,0,0,1-32.69,14.64Zm0-19.67a22.63,22.63,0,0,0,10.32-2.37A25.2,25.2,0,0,0,649,753.8a32.24,32.24,0,0,0,5.55-10.19,43.81,43.81,0,0,0,0-26A32.13,32.13,0,0,0,649,707.44a25.36,25.36,0,0,0-8.29-6.75,22.63,22.63,0,0,0-10.32-2.37A23,23,0,0,0,620,700.69a24.66,24.66,0,0,0-8.29,6.75,33,33,0,0,0-5.48,10.19,43.81,43.81,0,0,0,0,26,33.12,33.12,0,0,0,5.48,10.19,24.51,24.51,0,0,0,8.29,6.74A23,23,0,0,0,630.42,762.91Z"/><path class="cls-6" d="M691,780.85V680.38h16l35.55,70.91h-8.35L769,680.38h16l.12,100.47H767l-.12-67h3.46l-28,56.27h-8.71l-28.39-56.27h3.93v67Z"/><path class="cls-7" d="M796.36,780.85l37.1-100.47h19.08L890,780.85H869.72l-30.66-88.7h7.76l-30.66,88.7Zm18.72-21.53,4.9-17.65h43.18l5,17.65Z"/><polyline class="cls-8" points="699.15 539.67 699.15 405.03 661.04 374.66 632.84 352.18 604.39 374.32 632.59 396.8 664.09 421.91 664.09 539.67 664.09 574.72 664.09 595.05 415.91 595.05 415.91 539.67 380.85 539.67 380.85 630.11 699.15 630.11 699.15 574.72"/><path class="cls-9" d="M684.42,312l-51.58,40.14-28.45,22.14-32.14,25v175.4h70.81V539.67H607.3V416.47l25.29-19.67L661,374.66l23.38-18.2,77.12,60v123.2H699.15v35.05H796.6V399.32Z"/><path class="cls-10" d="M493.28,388.06l14.47,11.26v175.4H283.4V399.32L395.58,312l51.58,40.14,28.45,22.14-28.2,22.48L419,374.66l-23.38-18.2-77.12,60v123.2H472.7V416.47L464.39,410Z"/><polygon class="cls-11" points="415.91 519.34 415.91 421.91 447.41 396.8 475.61 374.32 540 323 588.38 361.56 617.16 339.69 540 278.19 447.16 352.18 418.96 374.66 380.85 405.03 380.85 519.34 415.91 519.34"/></svg>