<svg width="157" height="140" viewBox="0 0 157 140" fill="none" xmlns="http://www.w3.org/2000/svg">
<path d="M6.88992 111.349V92.0775L7.86862 93.287H1V89.0781H17.0334V93.287H10.1692L11.1214 92.0775V111.349H6.88992Z" fill="url(#paint0_linear_3001_1469)"/>
<path d="M19.7283 111.346V89.0898H27.7306C29.3869 89.0898 30.8136 89.4133 32.0107 90.0601C33.1913 90.6904 34.1567 91.6593 34.783 92.8423C35.4369 94.0489 35.7639 95.4799 35.7639 97.1354C35.7639 98.7908 35.4377 100.226 34.7852 101.442C34.1532 102.621 33.1893 103.588 32.013 104.224C30.8143 104.881 29.3876 105.21 27.7328 105.21H22.0776L24.0284 102.888V111.346H19.7283ZM24.0284 103.462L22.0732 101.025H27.4892C28.7912 101.025 29.7773 100.686 30.4475 100.006C31.1177 99.3269 31.452 98.3736 31.4505 97.1464C31.4505 95.9163 31.1162 94.9674 30.4475 94.2999C29.7788 93.6324 28.7927 93.2987 27.4892 93.2987H22.0776L24.0284 90.8398V103.462Z" fill="url(#paint1_linear_3001_1469)"/>
<path d="M38.5857 111.346V89.0898H42.8127V103.626L51.6697 89.0943H55.6842V111.346H51.4505V96.8806L42.6267 111.346H38.5857Z" fill="url(#paint2_linear_3001_1469)"/>
<path d="M65.8784 115.999V107.161H86.8253V115.999H82.8618V111.347H69.8353L69.8087 115.999H65.8784ZM80.0098 109.037V90.1925H73.6925L73.5862 96.5479C73.5331 97.9257 73.4593 99.2341 73.3648 100.473C73.2799 101.599 73.132 102.72 72.922 103.829C72.7643 104.7 72.5165 105.552 72.1824 106.372C71.9581 106.978 71.5521 107.501 71.0199 107.867L66.4497 107.167C66.7577 107.179 67.0637 107.113 67.3388 106.974C67.6138 106.834 67.8489 106.627 68.0218 106.372C68.5034 105.667 68.8399 104.872 69.0116 104.035C69.2831 102.875 69.4644 101.695 69.5541 100.506C69.6692 99.1596 69.7526 97.6828 69.8043 96.076L70.0434 86.0059H84.228V109.044L80.0098 109.037Z" fill="url(#paint3_linear_3001_1469)"/>
<path d="M98.521 111.734C97.136 111.746 95.7654 111.452 94.5066 110.875C93.2751 110.304 92.1774 109.481 91.2848 108.458C90.3489 107.386 89.6266 106.146 89.1569 104.803C88.1531 101.828 88.1531 98.605 89.1569 95.6298C89.6293 94.292 90.3514 93.0561 91.2848 91.988C92.1755 90.9689 93.2681 90.1459 94.4933 89.5713C95.7561 88.9914 97.1316 88.6986 98.521 88.714C99.8911 88.693 101.249 88.9724 102.5 89.5327C103.75 90.093 104.863 90.9204 105.759 91.957C106.694 93.0298 107.415 94.2711 107.885 95.6143C108.889 98.6001 108.889 101.832 107.885 104.818C107.418 106.167 106.696 107.414 105.759 108.491C104.862 109.527 103.749 110.354 102.499 110.914C101.249 111.474 99.8909 111.754 98.521 111.734ZM98.521 107.377C99.3135 107.385 100.097 107.205 100.806 106.852C101.515 106.49 102.139 105.981 102.635 105.359C103.178 104.687 103.594 103.922 103.864 103.102C104.447 101.226 104.447 99.2177 103.864 97.3421C103.594 96.5229 103.178 95.7595 102.635 95.0893C102.136 94.466 101.511 93.9563 100.8 93.594C100.09 93.2407 99.3069 93.0608 98.5144 93.069C97.717 93.0614 96.929 93.2413 96.2138 93.594C95.5 93.9522 94.8734 94.4626 94.3782 95.0893C93.844 95.7643 93.4332 96.5285 93.1647 97.3465C92.5822 99.2221 92.5822 101.23 93.1647 103.106C93.4337 103.924 93.8444 104.688 94.3782 105.363C94.8728 105.99 95.4996 106.5 96.2138 106.856C96.9314 107.209 97.7218 107.387 98.521 107.377Z" fill="url(#paint4_linear_3001_1469)"/>
<path d="M111.935 111.346V89.0898H115.478L123.349 104.798H121.5L129.206 89.0898H132.749L132.775 111.346H128.763L128.737 96.504H129.503L123.303 108.969H121.374L115.088 96.504H115.958V111.346H111.935Z" fill="url(#paint5_linear_3001_1469)"/>
<path d="M135.266 111.346L143.481 89.0898H147.705L156 111.346H151.509L144.72 91.6971H146.439L139.65 111.346H135.266ZM139.411 106.576L140.496 102.667H150.057L151.164 106.576H139.411Z" fill="url(#paint6_linear_3001_1469)"/>
<path d="M113.739 57.9268V28.1017L105.3 21.3742L99.0561 16.3945L92.7565 21.2989L99.0007 26.2786L105.976 31.8409V57.9268V65.691V70.1944H51.0222V57.9268H43.259V77.9608H113.739V65.691" fill="url(#paint7_linear_3001_1469)"/>
<path d="M110.479 7.49609L99.0575 16.3878L92.758 21.2922L85.6414 26.8301V65.6842H101.321V57.9289H93.4023V30.638L99.0022 26.2808L105.293 21.3764L110.47 17.3447L127.546 30.6358V57.9267H113.74V65.6909H135.318V26.839L110.479 7.49609Z" fill="url(#paint8_linear_3001_1469)"/>
<path d="M68.1525 24.3447L71.3565 26.839V65.6931H21.6797V26.839L46.5192 7.49609L57.9403 16.3878L64.2399 21.2922L57.9957 26.2719L51.705 21.3764L46.5281 17.3447L29.4517 30.6358V57.9267H63.5955V30.638L61.7555 29.2048L68.1525 24.3447Z" fill="url(#paint9_linear_3001_1469)"/>
<path d="M51.0222 53.4189V31.8365L57.9971 26.2742L64.2413 21.2945L78.4989 9.92619L89.2115 18.4679L95.5841 13.6233L78.4989 0L57.9418 16.3901L51.6976 21.3698L43.259 28.0972V53.4189H51.0222Z" fill="url(#paint10_linear_3001_1469)"/>
<path d="M6.016 125.208C5.41867 125.208 4.90133 125.32 4.464 125.544C4.03733 125.768 3.68533 126.067 3.408 126.44C3.13067 126.813 2.92267 127.251 2.784 127.752C2.656 128.243 2.592 128.76 2.592 129.304C2.592 129.859 2.66133 130.387 2.8 130.888C2.93867 131.389 3.14667 131.832 3.424 132.216C3.712 132.589 4.07467 132.888 4.512 133.112C4.94933 133.336 5.46667 133.448 6.064 133.448C6.8 133.448 7.41333 133.288 7.904 132.968C8.40533 132.648 8.72 132.216 8.848 131.672H10.704C10.6187 132.216 10.4373 132.701 10.16 133.128C9.89333 133.555 9.55733 133.917 9.152 134.216C8.74667 134.504 8.27733 134.728 7.744 134.888C7.21067 135.037 6.64 135.112 6.032 135.112C5.14667 135.112 4.368 134.968 3.696 134.68C3.03467 134.392 2.48 133.992 2.032 133.48C1.584 132.968 1.248 132.36 1.024 131.656C0.8 130.952 0.688 130.179 0.688 129.336C0.688 128.515 0.8 127.752 1.024 127.048C1.25867 126.333 1.6 125.72 2.048 125.208C2.496 124.685 3.05067 124.28 3.712 123.992C4.384 123.693 5.16267 123.544 6.048 123.544C7.296 123.544 8.32533 123.837 9.136 124.424C9.94667 125.011 10.4373 125.875 10.608 127.016H8.784C8.64533 126.461 8.336 126.024 7.856 125.704C7.376 125.373 6.76267 125.208 6.016 125.208ZM18.1642 123.688L22.4202 135H20.3883L19.5562 132.712H14.4202L13.5722 135H11.5562L15.8442 123.688H18.1642ZM18.9802 131.048L16.9963 125.528L14.9962 131.048H18.9802ZM25.9955 128.6H31.4195V123.688H33.2755V135H31.4195V130.264H25.9955V135H24.1395V123.688H25.9955V128.6ZM38.0811 135H36.2251V123.688H38.0811V128.632H39.5371L43.0251 123.688H45.1531L41.1211 129.176L45.2011 135H43.0411L39.7131 130.28H38.0811V135ZM51.2706 135H49.4146V125.352H45.8146V123.688H54.8546V125.352H51.2706V135ZM56.4227 128.632H61.5267V130.2H56.4227V128.632ZM73.4472 135H71.5912V125.352H66.1192V135H64.2632V123.688H73.4472V135ZM76.3957 135V123.688H84.2517V125.352H78.2517V128.568H83.5637V130.248H78.2517V133.352H84.2517V135H76.3957ZM90.8631 135H89.0071V125.352H85.4071V123.688H94.4471V125.352H90.8631V135ZM96.2232 135V123.688H104.079V125.352H98.0792V128.568H103.391V130.248H98.0792V133.352H104.079V135H96.2232ZM106.403 135V123.688H110.547C111.197 123.688 111.779 123.763 112.291 123.912C112.813 124.051 113.256 124.275 113.619 124.584C113.981 124.893 114.259 125.293 114.451 125.784C114.653 126.264 114.755 126.84 114.755 127.512C114.755 128.131 114.653 128.685 114.451 129.176C114.248 129.667 113.96 130.083 113.587 130.424C113.213 130.755 112.76 131.011 112.227 131.192C111.704 131.373 111.117 131.464 110.467 131.464H108.243V135H106.403ZM108.243 129.816H110.371C110.723 129.816 111.048 129.773 111.347 129.688C111.656 129.603 111.923 129.469 112.147 129.288C112.371 129.107 112.547 128.877 112.675 128.6C112.813 128.323 112.888 127.992 112.899 127.608C112.899 126.808 112.691 126.232 112.275 125.88C111.869 125.528 111.272 125.352 110.483 125.352H108.243V129.816ZM117.004 123.688H124.956V125.352H118.86V128.184H121.452C122.071 128.184 122.636 128.237 123.148 128.344C123.671 128.44 124.108 128.616 124.46 128.872C124.823 129.128 125.1 129.469 125.292 129.896C125.495 130.312 125.596 130.829 125.596 131.448C125.596 132.131 125.468 132.701 125.212 133.16C124.967 133.619 124.636 133.987 124.22 134.264C123.804 134.531 123.329 134.723 122.796 134.84C122.263 134.947 121.708 135 121.132 135H117.004V123.688ZM118.86 133.352H121.004C121.345 133.352 121.681 133.336 122.012 133.304C122.343 133.261 122.636 133.176 122.892 133.048C123.148 132.92 123.356 132.733 123.516 132.488C123.676 132.243 123.756 131.912 123.756 131.496C123.756 131.112 123.681 130.808 123.532 130.584C123.383 130.36 123.185 130.195 122.94 130.088C122.705 129.971 122.433 129.901 122.124 129.88C121.815 129.848 121.5 129.832 121.18 129.832H118.86V133.352ZM132.299 129.96C132.31 129.928 132.32 129.891 132.331 129.848C132.352 129.795 132.39 129.699 132.443 129.56C132.496 129.421 132.576 129.219 132.683 128.952C132.79 128.685 132.934 128.328 133.115 127.88C133.296 127.421 133.52 126.851 133.787 126.168C134.064 125.485 134.4 124.653 134.795 123.672H136.843L133.323 131.96C133.131 132.376 132.902 132.792 132.635 133.208C132.379 133.613 132.059 133.96 131.675 134.248C131.291 134.536 130.854 134.733 130.363 134.84C129.872 134.947 129.286 135 128.603 135V133.32C128.827 133.32 129.056 133.315 129.291 133.304C129.526 133.293 129.76 133.245 129.995 133.16C130.24 133.064 130.475 132.92 130.699 132.728C130.923 132.536 131.131 132.259 131.323 131.896L126.875 123.672H129.035L132.299 129.96ZM138.378 135V123.688H142.522C143.173 123.688 143.754 123.763 144.266 123.912C144.789 124.051 145.232 124.275 145.594 124.584C145.957 124.893 146.234 125.293 146.426 125.784C146.629 126.264 146.73 126.84 146.73 127.512C146.73 128.131 146.629 128.685 146.426 129.176C146.224 129.667 145.936 130.083 145.562 130.424C145.189 130.755 144.736 131.011 144.202 131.192C143.68 131.373 143.093 131.464 142.442 131.464H140.218V135H138.378ZM140.218 129.816H142.346C142.698 129.816 143.024 129.773 143.322 129.688C143.632 129.603 143.898 129.469 144.122 129.288C144.346 129.107 144.522 128.877 144.65 128.6C144.789 128.323 144.864 127.992 144.874 127.608C144.874 126.808 144.666 126.232 144.25 125.88C143.845 125.528 143.248 125.352 142.458 125.352H140.218V129.816ZM148.979 135V123.688H156.547V125.352H150.835V135H148.979Z" fill="#6F6F6F"/>
<defs>
<linearGradient id="paint0_linear_3001_1469" x1="9.0156" y1="111.349" x2="9.0156" y2="89.0936" gradientUnits="userSpaceOnUse">
<stop stop-color="#242752"/>
<stop offset="0.34" stop-color="#212A5A"/>
<stop offset="0.87" stop-color="#19316E"/>
<stop offset="1" stop-color="#163375"/>
</linearGradient>
<linearGradient id="paint1_linear_3001_1469" x1="27.7439" y1="111.346" x2="27.7439" y2="89.0898" gradientUnits="userSpaceOnUse">
<stop stop-color="#242752"/>
<stop offset="0.34" stop-color="#212A5A"/>
<stop offset="0.87" stop-color="#19316E"/>
<stop offset="1" stop-color="#163375"/>
</linearGradient>
<linearGradient id="paint2_linear_3001_1469" x1="47.1305" y1="111.346" x2="47.1305" y2="89.0898" gradientUnits="userSpaceOnUse">
<stop stop-color="#242752"/>
<stop offset="0.34" stop-color="#212A5A"/>
<stop offset="0.87" stop-color="#19316E"/>
<stop offset="1" stop-color="#163375"/>
</linearGradient>
<linearGradient id="paint3_linear_3001_1469" x1="76.3474" y1="115.999" x2="76.3474" y2="85.9948" gradientUnits="userSpaceOnUse">
<stop stop-color="#242752"/>
<stop offset="0.34" stop-color="#212A5A"/>
<stop offset="0.87" stop-color="#19316E"/>
<stop offset="1" stop-color="#163375"/>
</linearGradient>
<linearGradient id="paint4_linear_3001_1469" x1="98.521" y1="111.734" x2="98.521" y2="88.714" gradientUnits="userSpaceOnUse">
<stop stop-color="#242752"/>
<stop offset="0.34" stop-color="#212A5A"/>
<stop offset="0.87" stop-color="#19316E"/>
<stop offset="1" stop-color="#163375"/>
</linearGradient>
<linearGradient id="paint5_linear_3001_1469" x1="122.36" y1="111.346" x2="122.36" y2="89.0898" gradientUnits="userSpaceOnUse">
<stop stop-color="#242752"/>
<stop offset="0.34" stop-color="#212A5A"/>
<stop offset="0.87" stop-color="#19316E"/>
<stop offset="1" stop-color="#163375"/>
</linearGradient>
<linearGradient id="paint6_linear_3001_1469" x1="145.633" y1="111.346" x2="145.633" y2="89.0898" gradientUnits="userSpaceOnUse">
<stop stop-color="#242752"/>
<stop offset="0.34" stop-color="#212A5A"/>
<stop offset="0.87" stop-color="#19316E"/>
<stop offset="1" stop-color="#163375"/>
</linearGradient>
<linearGradient id="paint7_linear_3001_1469" x1="78.4989" y1="77.9608" x2="78.4989" y2="16.3945" gradientUnits="userSpaceOnUse">
<stop stop-color="#242752"/>
<stop offset="0.34" stop-color="#222C5F"/>
<stop offset="0.96" stop-color="#1E3B82"/>
<stop offset="1" stop-color="#1E3C85"/>
</linearGradient>
<linearGradient id="paint8_linear_3001_1469" x1="95.8624" y1="71.5965" x2="127.278" y2="17.2054" gradientUnits="userSpaceOnUse">
<stop stop-color="#1F5AB6"/>
<stop offset="0.26" stop-color="#2460BE"/>
<stop offset="0.66" stop-color="#326FD2"/>
<stop offset="1" stop-color="#4281EA"/>
</linearGradient>
<linearGradient id="paint9_linear_3001_1469" x1="31.9007" y1="71.5965" x2="63.3161" y2="17.2054" gradientUnits="userSpaceOnUse">
<stop stop-color="#1F5AB6"/>
<stop offset="0.26" stop-color="#2460BE"/>
<stop offset="0.66" stop-color="#326FD2"/>
<stop offset="1" stop-color="#4281EA"/>
</linearGradient>
<linearGradient id="paint10_linear_3001_1469" x1="69.4227" y1="53.4189" x2="69.4227" y2="0" gradientUnits="userSpaceOnUse">
<stop stop-color="#242752"/>
<stop offset="0.34" stop-color="#222C5F"/>
<stop offset="0.96" stop-color="#1E3B82"/>
<stop offset="1" stop-color="#1E3C85"/>
</linearGradient>
</defs>
</svg>
