<svg width="496" height="340" viewBox="0 0 496 340" fill="none" xmlns="http://www.w3.org/2000/svg">
<g opacity="0.1">
<path d="M402 252.466V122.152L365.123 92.7577L337.836 71L310.306 92.4286L337.594 114.186L368.075 138.49V252.466V286.39V306.066H127.925V252.466H94V340H402V286.39" fill="#3F7DE5"/>
<path d="M387.495 33L337.605 71.8092L310.087 93.2151L279 117.386V286.971H347.49V253.122H312.902V134.006L337.363 114.988L364.842 93.5825L387.456 75.9859L462.05 133.997V253.112H401.743V287H496V117.425L387.495 33Z" fill="#3F7DE5"/>
<path d="M203.004 106.535L217 117.422V287H0V117.422L108.505 33L158.395 71.8077L185.913 93.2129L158.637 114.947L131.158 93.5802L108.544 75.9843L33.9501 133.993V253.104H183.098V134.003L175.061 127.747L203.004 106.535Z" fill="#3F7DE5"/>
<path d="M127.827 233V138.863L158.219 114.601L185.428 92.8811L247.553 43.2956L294.232 80.5524L322 59.4215L247.553 0L157.978 71.4894L130.77 93.2097L94 122.553V233H127.827Z" fill="#3F7DE5"/>
</g>
</svg>
