<svg width="209" height="169" viewBox="0 0 209 169" fill="none" xmlns="http://www.w3.org/2000/svg">
<rect width="209" height="169" fill="white"/>
<path d="M35.444 132.877C34.5043 132.877 33.7038 132.674 33.0426 132.267C32.3813 131.856 31.8745 131.285 31.5221 130.554C31.174 129.823 31 128.975 31 128.01C31 127.045 31.174 126.197 31.5221 125.466C31.8745 124.735 32.3813 124.166 33.0426 123.759C33.7038 123.348 34.5043 123.143 35.444 123.143C36.3794 123.143 37.1777 123.348 37.839 123.759C38.5046 124.166 39.0115 124.735 39.3595 125.466C39.7075 126.197 39.8816 127.045 39.8816 128.01C39.8816 128.975 39.7075 129.823 39.3595 130.554C39.0115 131.285 38.5046 131.856 37.839 132.267C37.1777 132.674 36.3794 132.877 35.444 132.877ZM35.444 131.586C36.1097 131.594 36.6622 131.449 37.1016 131.151C37.5453 130.848 37.8782 130.428 38.1 129.892C38.3219 129.351 38.4328 128.724 38.4328 128.01C38.4328 127.296 38.3219 126.673 38.1 126.141C37.8782 125.604 37.5453 125.187 37.1016 124.888C36.6622 124.59 36.1097 124.439 35.444 124.434C34.7784 124.426 34.2237 124.57 33.78 124.869C33.3406 125.167 33.0099 125.587 32.7881 126.128C32.5662 126.669 32.4531 127.296 32.4487 128.01C32.4444 128.724 32.5531 129.349 32.775 129.885C32.9969 130.417 33.3297 130.833 33.7734 131.131C34.2215 131.43 34.7784 131.581 35.444 131.586Z" fill="#232C5E"/>
<path d="M44.4983 135.603V132.806C43.8109 132.914 43.1867 132.84 42.6254 132.585C42.0642 132.33 41.6183 131.914 41.2877 131.339C40.957 130.764 40.7917 130.045 40.7917 129.184C40.7917 128.324 40.957 127.603 41.2877 127.023C41.6183 126.444 42.0642 126.026 42.6254 125.771C43.1867 125.516 43.8109 125.442 44.4983 125.55V123.428H45.7252V125.55C46.4126 125.442 47.0368 125.516 47.5981 125.771C48.1593 126.026 48.6052 126.444 48.9358 127.023C49.2665 127.603 49.4318 128.324 49.4318 129.184C49.4318 130.045 49.2665 130.764 48.9358 131.339C48.6052 131.914 48.1593 132.33 47.5981 132.585C47.0368 132.84 46.4126 132.914 45.7252 132.806V135.603H44.4983ZM44.4983 131.579V126.783C44.1459 126.723 43.8262 126.734 43.539 126.816C43.2563 126.898 43.0148 127.043 42.8147 127.251C42.6146 127.454 42.4601 127.72 42.3514 128.049C42.2426 128.373 42.1882 128.752 42.1882 129.184C42.1882 129.617 42.2426 129.996 42.3514 130.32C42.4645 130.645 42.6233 130.911 42.8277 131.118C43.0366 131.322 43.2824 131.464 43.5651 131.547C43.8479 131.625 44.159 131.635 44.4983 131.579ZM45.7252 131.579C46.0645 131.635 46.3756 131.625 46.6584 131.547C46.9411 131.469 47.1848 131.328 47.3892 131.125C47.5981 130.922 47.7569 130.658 47.8656 130.333C47.9787 130.004 48.0353 129.621 48.0353 129.184C48.0353 128.743 47.9809 128.36 47.8721 128.036C47.7634 127.707 47.6089 127.441 47.4088 127.238C47.2087 127.03 46.9651 126.887 46.6779 126.809C46.3952 126.731 46.0776 126.723 45.7252 126.783V131.579Z" fill="#232C5E"/>
<path d="M56.8084 125.674V132.682H55.4967V127.809L51.9728 132.682H50.8634V125.674H52.1751V130.45L55.7055 125.674H56.8084Z" fill="#232C5E"/>
<path d="M64.5835 134.065V132.682H58.6255V125.674H59.9894V131.404H63.2066V125.674H64.5704V131.462H65.9474V134.065H64.5835Z" fill="#232C5E"/>
<path d="M72.9316 125.674V132.682H71.6199V127.809L68.096 132.682H66.9866V125.674H68.2983V130.45L71.8287 125.674H72.9316Z" fill="#232C5E"/>
<path d="M76.7456 132.877C76.2235 132.877 75.7863 132.782 75.4339 132.591C75.0815 132.397 74.8139 132.142 74.6312 131.826C74.4529 131.506 74.3637 131.155 74.3637 130.774C74.3637 130.42 74.4268 130.108 74.5529 129.84C74.6791 129.572 74.8662 129.345 75.1141 129.159C75.3621 128.968 75.6666 128.815 76.0277 128.698C76.341 128.607 76.6955 128.527 77.0914 128.458C77.4873 128.388 77.9028 128.324 78.3379 128.263C78.7773 128.202 79.2123 128.142 79.643 128.081L79.1471 128.354C79.1558 127.804 79.0383 127.398 78.7947 127.134C78.5554 126.866 78.1421 126.731 77.5548 126.731C77.185 126.731 76.8456 126.818 76.5368 126.991C76.2279 127.16 76.0125 127.441 75.8907 127.835L74.6182 127.445C74.7922 126.844 75.1228 126.366 75.6101 126.011C76.1017 125.656 76.7543 125.479 77.5678 125.479C78.1986 125.479 78.7468 125.587 79.2123 125.803C79.6822 126.015 80.0259 126.353 80.2434 126.816C80.3565 127.045 80.4261 127.287 80.4522 127.543C80.4783 127.798 80.4914 128.073 80.4914 128.367V132.682H79.2841V131.079L79.519 131.287C79.2275 131.824 78.8556 132.224 78.4031 132.488C77.955 132.747 77.4025 132.877 76.7456 132.877ZM76.987 131.767C77.3742 131.767 77.707 131.7 77.9855 131.566C78.2639 131.428 78.4879 131.252 78.6576 131.04C78.8273 130.828 78.9382 130.608 78.9904 130.379C79.0644 130.171 79.1057 129.937 79.1144 129.678C79.1275 129.418 79.134 129.21 79.134 129.055L79.5778 129.217C79.1471 129.282 78.7555 129.34 78.4031 129.392C78.0507 129.444 77.731 129.496 77.4438 129.548C77.161 129.595 76.9087 129.654 76.6868 129.723C76.4998 129.788 76.3323 129.866 76.1844 129.957C76.0408 130.048 75.9255 130.158 75.8385 130.288C75.7558 130.417 75.7145 130.575 75.7145 130.761C75.7145 130.943 75.7602 131.112 75.8515 131.268C75.9429 131.419 76.0821 131.54 76.2692 131.631C76.4563 131.722 76.6955 131.767 76.987 131.767Z" fill="#232C5E"/>
<path d="M81.5333 132.682V131.534C81.7944 131.581 81.9923 131.575 82.1272 131.514C82.2664 131.449 82.3686 131.333 82.4339 131.164C82.5035 130.995 82.5622 130.777 82.6101 130.508C82.684 130.115 82.7471 129.667 82.7993 129.165C82.8559 128.659 82.9059 128.112 82.9494 127.523C82.9929 126.935 83.0321 126.318 83.0669 125.674H88.1309V132.682H86.7605V126.952H84.2937C84.2676 127.294 84.2372 127.657 84.2024 128.042C84.1719 128.423 84.1371 128.802 84.098 129.178C84.0588 129.554 84.0175 129.907 83.974 130.236C83.9305 130.565 83.8848 130.846 83.8369 131.079C83.7499 131.547 83.6216 131.919 83.4519 132.196C83.2866 132.468 83.0517 132.643 82.7471 132.721C82.4426 132.803 82.038 132.79 81.5333 132.682Z" fill="#232C5E"/>
<path d="M89.9542 132.682V125.674H91.3246V128.107H92.7146C92.9147 128.107 93.1279 128.112 93.3541 128.12C93.5847 128.129 93.7827 128.15 93.948 128.185C94.3265 128.263 94.6528 128.393 94.9268 128.574C95.2053 128.756 95.4206 128.998 95.5729 129.301C95.7252 129.6 95.8013 129.968 95.8013 130.405C95.8013 131.015 95.6403 131.501 95.3184 131.865C95.0008 132.224 94.5701 132.466 94.0263 132.591C93.8523 132.63 93.6456 132.656 93.4063 132.669C93.1714 132.678 92.9561 132.682 92.7603 132.682H89.9542ZM91.3246 131.592H92.8386C92.9474 131.592 93.0714 131.588 93.2106 131.579C93.3498 131.57 93.4781 131.551 93.5956 131.521C93.8044 131.46 93.9915 131.337 94.1568 131.151C94.3221 130.965 94.4048 130.716 94.4048 130.405C94.4048 130.084 94.3221 129.829 94.1568 129.639C93.9958 129.448 93.7914 129.325 93.5434 129.269C93.4259 129.239 93.3063 129.219 93.1845 129.21C93.0627 129.202 92.9474 129.197 92.8386 129.197H91.3246V131.592Z" fill="#232C5E"/>
<path d="M97.0408 132.682V125.674H98.4047V128.536H101.844V125.674H103.208V132.682H101.844V129.814H98.4047V132.682H97.0408Z" fill="#232C5E"/>
<path d="M105.032 132.682V125.674H106.403V128.107H107.329C107.529 128.107 107.745 128.112 107.975 128.12C108.206 128.129 108.402 128.15 108.563 128.185C108.941 128.263 109.27 128.393 109.548 128.574C109.827 128.756 110.04 128.998 110.188 129.301C110.34 129.6 110.416 129.968 110.416 130.405C110.416 131.015 110.257 131.501 109.94 131.865C109.622 132.224 109.191 132.466 108.648 132.591C108.474 132.63 108.267 132.656 108.028 132.669C107.793 132.678 107.575 132.682 107.375 132.682H105.032ZM106.403 131.592H107.453C107.566 131.592 107.693 131.588 107.832 131.579C107.971 131.57 108.099 131.551 108.217 131.521C108.421 131.46 108.606 131.337 108.772 131.151C108.937 130.965 109.02 130.716 109.02 130.405C109.02 130.084 108.937 129.829 108.772 129.639C108.611 129.448 108.406 129.325 108.158 129.269C108.045 129.239 107.925 129.219 107.799 129.21C107.677 129.202 107.562 129.197 107.453 129.197H106.403V131.592ZM111.193 132.682V125.674H112.556V132.682H111.193Z" fill="#232C5E"/>
<path d="M117.527 124.869C117.183 124.869 116.868 124.785 116.581 124.616C116.298 124.447 116.072 124.222 115.902 123.941C115.732 123.66 115.647 123.346 115.647 123H116.731C116.731 123.216 116.809 123.402 116.966 123.558C117.122 123.714 117.309 123.792 117.527 123.792C117.749 123.792 117.936 123.714 118.088 123.558C118.245 123.402 118.323 123.216 118.323 123H119.406C119.406 123.346 119.321 123.66 119.152 123.941C118.982 124.222 118.754 124.447 118.466 124.616C118.184 124.785 117.87 124.869 117.527 124.869ZM120.32 125.674V132.682H119.008V127.809L115.484 132.682H114.375V125.674H115.687V130.45L119.217 125.674H120.32Z" fill="#232C5E"/>
<path d="M124.75 132.682V125.674H130.695V132.682H129.331V126.952H126.114V132.682H124.75Z" fill="#232C5E"/>
<path d="M134.509 132.877C133.987 132.877 133.549 132.782 133.197 132.591C132.845 132.397 132.577 132.142 132.394 131.826C132.216 131.506 132.127 131.155 132.127 130.774C132.127 130.42 132.19 130.108 132.316 129.84C132.442 129.572 132.629 129.345 132.877 129.159C133.125 128.968 133.43 128.815 133.791 128.698C134.104 128.607 134.459 128.527 134.855 128.458C135.251 128.388 135.666 128.324 136.101 128.263C136.54 128.202 136.975 128.142 137.406 128.081L136.91 128.354C136.919 127.804 136.801 127.398 136.558 127.134C136.319 126.866 135.905 126.731 135.318 126.731C134.948 126.731 134.609 126.818 134.3 126.991C133.991 127.16 133.776 127.441 133.654 127.835L132.381 127.445C132.555 126.844 132.886 126.366 133.373 126.011C133.865 125.656 134.517 125.479 135.331 125.479C135.962 125.479 136.51 125.587 136.975 125.803C137.445 126.015 137.789 126.353 138.007 126.816C138.12 127.045 138.189 127.287 138.215 127.543C138.241 127.798 138.255 128.073 138.255 128.367V132.682H137.047V131.079L137.282 131.287C136.991 131.824 136.619 132.224 136.166 132.488C135.718 132.747 135.166 132.877 134.509 132.877ZM134.75 131.767C135.137 131.767 135.47 131.7 135.749 131.566C136.027 131.428 136.251 131.252 136.421 131.04C136.59 130.828 136.701 130.608 136.754 130.379C136.828 130.171 136.869 129.937 136.878 129.678C136.891 129.418 136.897 129.21 136.897 129.055L137.341 129.217C136.91 129.282 136.519 129.34 136.166 129.392C135.814 129.444 135.494 129.496 135.207 129.548C134.924 129.595 134.672 129.654 134.45 129.723C134.263 129.788 134.095 129.866 133.948 129.957C133.804 130.048 133.689 130.158 133.602 130.288C133.519 130.417 133.478 130.575 133.478 130.761C133.478 130.943 133.523 131.112 133.615 131.268C133.706 131.419 133.845 131.54 134.032 131.631C134.219 131.722 134.459 131.767 134.75 131.767Z" fill="#232C5E"/>
<path d="M143.258 132.877C142.583 132.877 142.018 132.715 141.561 132.39C141.104 132.061 140.758 131.618 140.523 131.06C140.288 130.502 140.171 129.872 140.171 129.172C140.171 128.471 140.286 127.841 140.517 127.283C140.752 126.725 141.095 126.286 141.548 125.966C142.005 125.641 142.566 125.479 143.232 125.479C143.893 125.479 144.463 125.641 144.941 125.966C145.424 126.286 145.796 126.725 146.057 127.283C146.318 127.837 146.449 128.466 146.449 129.172C146.449 129.872 146.318 130.504 146.057 131.066C145.801 131.625 145.433 132.066 144.954 132.39C144.48 132.715 143.915 132.877 143.258 132.877ZM139.943 135.797V125.674H141.156V130.716H141.313V135.797H139.943ZM143.068 131.65C143.503 131.65 143.862 131.54 144.145 131.32C144.432 131.099 144.645 130.803 144.785 130.43C144.928 130.054 145 129.634 145 129.172C145 128.713 144.928 128.298 144.785 127.926C144.645 127.553 144.43 127.257 144.139 127.036C143.847 126.816 143.475 126.706 143.023 126.706C142.596 126.706 142.244 126.809 141.966 127.017C141.691 127.225 141.487 127.515 141.352 127.887C141.222 128.259 141.156 128.687 141.156 129.172C141.156 129.656 141.222 130.084 141.352 130.456C141.483 130.828 141.689 131.121 141.972 131.333C142.255 131.545 142.62 131.65 143.068 131.65Z" fill="#232C5E"/>
<path d="M149.71 132.682V126.894H147.302V125.674H153.482V126.894H151.074V132.682H149.71Z" fill="#232C5E"/>
<path d="M154.715 132.682V125.674H156.079V128.536H159.518V125.674H160.882V132.682H159.518V129.814H156.079V132.682H154.715Z" fill="#232C5E"/>
<path d="M165.839 132.877C165.138 132.877 164.523 132.726 163.992 132.423C163.465 132.116 163.054 131.689 162.758 131.144C162.467 130.595 162.321 129.959 162.321 129.236C162.321 128.471 162.465 127.807 162.752 127.244C163.043 126.682 163.448 126.247 163.966 125.94C164.483 125.633 165.086 125.479 165.773 125.479C166.491 125.479 167.102 125.646 167.607 125.979C168.112 126.307 168.488 126.777 168.736 127.387C168.988 127.997 169.088 128.722 169.036 129.561H167.672V129.068C167.664 128.254 167.507 127.653 167.202 127.264C166.902 126.874 166.443 126.68 165.826 126.68C165.143 126.68 164.629 126.894 164.285 127.322C163.942 127.75 163.77 128.369 163.77 129.178C163.77 129.948 163.942 130.545 164.285 130.969C164.629 131.389 165.125 131.599 165.773 131.599C166.2 131.599 166.567 131.503 166.876 131.313C167.189 131.118 167.433 130.841 167.607 130.482L168.945 130.904C168.671 131.532 168.255 132.018 167.698 132.364C167.142 132.706 166.522 132.877 165.839 132.877ZM163.326 129.561V128.503H168.358V129.561H163.326Z" fill="#232C5E"/>
<path d="M173.809 132.877C173.135 132.877 172.569 132.715 172.112 132.39C171.655 132.061 171.31 131.618 171.075 131.06C170.84 130.502 170.722 129.872 170.722 129.172C170.722 128.471 170.838 127.841 171.068 127.283C171.303 126.725 171.647 126.286 172.099 125.966C172.556 125.641 173.117 125.479 173.783 125.479C174.444 125.479 175.014 125.641 175.493 125.966C175.975 126.286 176.347 126.725 176.608 127.283C176.869 127.837 177 128.466 177 129.172C177 129.872 176.869 130.504 176.608 131.066C176.352 131.625 175.984 132.066 175.506 132.39C175.031 132.715 174.466 132.877 173.809 132.877ZM170.494 135.797V125.674H171.708V130.716H171.864V135.797H170.494ZM173.62 131.65C174.055 131.65 174.414 131.54 174.696 131.32C174.984 131.099 175.197 130.803 175.336 130.43C175.479 130.054 175.551 129.634 175.551 129.172C175.551 128.713 175.479 128.298 175.336 127.926C175.197 127.553 174.981 127.257 174.69 127.036C174.398 126.816 174.026 126.706 173.574 126.706C173.148 126.706 172.795 126.809 172.517 127.017C172.243 127.225 172.038 127.515 171.903 127.887C171.773 128.259 171.708 128.687 171.708 129.172C171.708 129.656 171.773 130.084 171.903 130.456C172.034 130.828 172.241 131.121 172.523 131.333C172.806 131.545 173.172 131.65 173.62 131.65Z" fill="#232C5E"/>
<path d="M39.9485 150V147.164C40.2704 147.164 40.5358 147.084 40.7446 146.924C40.9535 146.76 41.1188 146.537 41.2406 146.256C41.3668 145.97 41.4625 145.646 41.5277 145.282C41.5973 144.919 41.6495 144.536 41.6844 144.133C41.7366 143.588 41.7801 143.056 41.8149 142.537C41.854 142.014 41.8888 141.473 41.9193 140.915C41.9541 140.357 41.9911 139.749 42.0302 139.091L48.047 139.098V147.164H48.7452V150H47.3748V148.443H41.3124V150H39.9485ZM42.1868 147.164H46.6831V140.376L43.2897 140.37C43.2592 140.845 43.2331 141.298 43.2114 141.726C43.1896 142.154 43.1613 142.587 43.1265 143.024C43.0961 143.456 43.0569 143.922 43.0091 144.419C42.9612 144.895 42.9112 145.299 42.859 145.633C42.8068 145.961 42.7285 146.247 42.6241 146.489C42.524 146.731 42.3783 146.956 42.1868 147.164Z" fill="#232C5E"/>
<path d="M54.0973 148.637C53.1576 148.637 52.3571 148.434 51.6958 148.027C51.0345 147.616 50.5277 147.045 50.1753 146.314C49.8272 145.583 49.6532 144.735 49.6532 143.77C49.6532 142.805 49.8272 141.957 50.1753 141.226C50.5277 140.495 51.0345 139.926 51.6958 139.519C52.3571 139.108 53.1576 138.903 54.0973 138.903C55.0326 138.903 55.8309 139.108 56.4922 139.519C57.1578 139.926 57.6647 140.495 58.0127 141.226C58.3608 141.957 58.5348 142.805 58.5348 143.77C58.5348 144.735 58.3608 145.583 58.0127 146.314C57.6647 147.045 57.1578 147.616 56.4922 148.027C55.8309 148.434 55.0326 148.637 54.0973 148.637ZM54.0973 147.346C54.7629 147.354 55.3154 147.21 55.7548 146.911C56.1986 146.608 56.5314 146.189 56.7532 145.652C56.9751 145.111 57.0861 144.484 57.0861 143.77C57.0861 143.056 56.9751 142.433 56.7532 141.901C56.5314 141.365 56.1986 140.947 55.7548 140.649C55.3154 140.35 54.7629 140.199 54.0973 140.194C53.4316 140.186 52.8769 140.331 52.4332 140.629C51.9938 140.928 51.6632 141.347 51.4413 141.888C51.2194 142.429 51.1063 143.056 51.1019 143.77C51.0976 144.484 51.2064 145.109 51.4282 145.646C51.6501 146.178 51.9829 146.593 52.4267 146.892C52.8748 147.19 53.4316 147.341 54.0973 147.346Z" fill="#232C5E"/>
<path d="M59.8365 148.443V139.098H61.0698L64.4763 146.126L67.8632 139.098H69.1096V148.436H67.8175V142.044L64.783 148.443H64.163L61.122 142.044V148.443H59.8365Z" fill="#232C5E"/>
<path d="M75.8935 148.443V140.376H72.7677V139.098H80.3832V140.376H77.2574V148.443H75.8935Z" fill="#232C5E"/>
<path d="M81.4276 148.443V139.098H87.4312V140.376H82.7914V142.998H86.6482V144.276H82.7914V147.164H87.4312V148.443H81.4276Z" fill="#232C5E"/>
<path d="M88.2154 148.443L91.4195 143.712L88.3002 139.098H89.9708L92.2613 142.563L94.5388 139.098H96.2159L93.0966 143.712L96.2943 148.443H94.6237L92.2613 144.867L89.8925 148.443H88.2154Z" fill="#232C5E"/>
<path d="M97.3341 148.443V139.098H98.698V143.128H103.397V139.098H104.767V148.443H103.397V144.406H98.698V148.443H97.3341Z" fill="#232C5E"/>
<path d="M110.522 148.637C109.582 148.637 108.782 148.434 108.121 148.027C107.459 147.616 106.953 147.045 106.6 146.314C106.252 145.583 106.078 144.735 106.078 143.77C106.078 142.805 106.252 141.957 106.6 141.226C106.953 140.495 107.459 139.926 108.121 139.519C108.782 139.108 109.582 138.903 110.522 138.903C111.457 138.903 112.256 139.108 112.917 139.519C113.583 139.926 114.09 140.495 114.438 141.226C114.786 141.957 114.96 142.805 114.96 143.77C114.96 144.735 114.786 145.583 114.438 146.314C114.09 147.045 113.583 147.616 112.917 148.027C112.256 148.434 111.457 148.637 110.522 148.637ZM110.522 147.346C111.188 147.354 111.74 147.21 112.18 146.911C112.623 146.608 112.956 146.189 113.178 145.652C113.4 145.111 113.511 144.484 113.511 143.77C113.511 143.056 113.4 142.433 113.178 141.901C112.956 141.365 112.623 140.947 112.18 140.649C111.74 140.35 111.188 140.199 110.522 140.194C109.857 140.186 109.302 140.331 108.858 140.629C108.419 140.928 108.088 141.347 107.866 141.888C107.644 142.429 107.531 143.056 107.527 143.77C107.522 144.484 107.631 145.109 107.853 145.646C108.075 146.178 108.408 146.593 108.852 146.892C109.3 147.19 109.857 147.341 110.522 147.346Z" fill="#232C5E"/>
<path d="M116.261 148.443V139.098H117.625V143.128H122.324V139.098H123.694V148.443H122.324V144.406H117.625V148.443H116.261Z" fill="#232C5E"/>
<path d="M132.921 148.443H131.538V141.492L126.911 148.443H125.527V139.098H126.911V146.041L131.538 139.098H132.921V148.443Z" fill="#232C5E"/>
<path d="M134.742 148.443V139.098H136.106V143.459L140.041 139.098H141.738L137.581 143.66L142.045 148.443H140.296L136.106 143.978V148.443H134.742Z" fill="#232C5E"/>
<path d="M146.414 148.637C145.474 148.637 144.674 148.434 144.012 148.027C143.351 147.616 142.844 147.045 142.492 146.314C142.144 145.583 141.97 144.735 141.97 143.77C141.97 142.805 142.144 141.957 142.492 141.226C142.844 140.495 143.351 139.926 144.012 139.519C144.674 139.108 145.474 138.903 146.414 138.903C147.349 138.903 148.147 139.108 148.809 139.519C149.474 139.926 149.981 140.495 150.329 141.226C150.677 141.957 150.851 142.805 150.851 143.77C150.851 144.735 150.677 145.583 150.329 146.314C149.981 147.045 149.474 147.616 148.809 148.027C148.147 148.434 147.349 148.637 146.414 148.637ZM146.414 147.346C147.079 147.354 147.632 147.21 148.071 146.911C148.515 146.608 148.848 146.189 149.07 145.652C149.292 145.111 149.403 144.484 149.403 143.77C149.403 143.056 149.292 142.433 149.07 141.901C148.848 141.365 148.515 140.947 148.071 140.649C147.632 140.35 147.079 140.199 146.414 140.194C145.748 140.186 145.193 140.331 144.75 140.629C144.31 140.928 143.98 141.347 143.758 141.888C143.536 142.429 143.423 143.056 143.418 143.77C143.414 144.484 143.523 145.109 143.745 145.646C143.967 146.178 144.299 146.593 144.743 146.892C145.191 147.19 145.748 147.341 146.414 147.346Z" fill="#232C5E"/>
<path d="M151.246 148.443V147.281C151.467 147.303 151.65 147.292 151.794 147.248C151.942 147.201 152.066 147.11 152.166 146.976C152.266 146.837 152.351 146.638 152.42 146.379C152.494 146.119 152.566 145.784 152.636 145.373C152.731 144.85 152.812 144.311 152.877 143.757C152.942 143.203 152.997 142.654 153.04 142.109C153.088 141.559 153.127 141.029 153.158 140.519C153.188 140.008 153.212 139.535 153.229 139.098H159.396V148.443H158.032V140.376H154.508C154.487 140.722 154.461 141.109 154.43 141.538C154.4 141.966 154.363 142.42 154.319 142.9C154.276 143.381 154.221 143.876 154.156 144.387C154.095 144.897 154.017 145.41 153.921 145.925C153.843 146.366 153.747 146.764 153.634 147.119C153.521 147.473 153.369 147.77 153.177 148.008C152.986 148.241 152.736 148.397 152.427 148.475C152.118 148.557 151.724 148.546 151.246 148.443Z" fill="#232C5E"/>
<path d="M161.221 148.443V139.098H162.585V142.453H165.019C165.106 142.453 165.217 142.457 165.352 142.466C165.491 142.47 165.62 142.483 165.737 142.505C166.259 142.587 166.694 142.764 167.042 143.037C167.395 143.309 167.658 143.653 167.832 144.069C168.01 144.484 168.1 144.945 168.1 145.451C168.1 145.953 168.013 146.411 167.839 146.827C167.664 147.242 167.401 147.586 167.049 147.858C166.701 148.131 166.264 148.308 165.737 148.391C165.62 148.408 165.494 148.421 165.359 148.43C165.224 148.438 165.111 148.443 165.019 148.443H161.221ZM162.585 147.164H164.967C165.05 147.164 165.143 147.16 165.248 147.151C165.357 147.142 165.459 147.125 165.554 147.099C165.837 147.034 166.061 146.915 166.227 146.742C166.396 146.565 166.518 146.364 166.592 146.139C166.67 145.909 166.71 145.68 166.71 145.451C166.71 145.222 166.67 144.992 166.592 144.763C166.518 144.534 166.396 144.333 166.227 144.159C166.061 143.982 165.837 143.861 165.554 143.796C165.459 143.77 165.357 143.755 165.248 143.751C165.143 143.742 165.05 143.738 164.967 143.738H162.585V147.164Z" fill="#232C5E"/>
<path d="M46.674 111.276V95.824L47.4506 96.7937H42V93.4192H54.7234V96.7937H49.2763L50.0319 95.824V111.276H46.674Z" fill="url(#paint0_linear_319_104)"/>
<path d="M56.8615 111.277V93.4329H63.2117C64.5261 93.4329 65.6583 93.6922 66.6083 94.2108C67.5452 94.7161 68.3113 95.493 68.8082 96.4415C69.3272 97.4089 69.5866 98.5563 69.5866 99.8836C69.5866 101.211 69.3278 102.362 68.81 103.336C68.3085 104.281 67.5436 105.057 66.61 105.567C65.6589 106.094 64.5267 106.357 63.2135 106.357H58.7258L60.2738 104.496V111.277H56.8615ZM60.2738 104.956L58.7223 103.002H63.0202C64.0534 103.002 64.8359 102.73 65.3678 102.185C65.8996 101.641 66.1649 100.876 66.1637 99.8925C66.1637 98.9061 65.8984 98.1454 65.3678 97.6102C64.8371 97.075 64.0546 96.8074 63.0202 96.8074H58.7258L60.2738 94.836V104.956Z" fill="url(#paint1_linear_319_104)"/>
<path d="M71.827 111.277V93.4329H75.1814V105.087L82.2099 93.4364H85.3956V111.277H82.036V99.6793L75.0338 111.277H71.827Z" fill="url(#paint2_linear_319_104)"/>
<path d="M93.4838 115V107.913H110.106V115H106.961V111.27H96.6238L96.6027 115H93.4838ZM104.698 109.418V94.3087H99.6847L99.6004 99.4043C99.5582 100.509 99.4996 101.558 99.4246 102.551C99.3572 103.454 99.2399 104.353 99.0732 105.242C98.9481 105.941 98.7514 106.624 98.4863 107.281C98.3083 107.767 97.9861 108.186 97.5638 108.48L93.9371 107.919C94.1815 107.928 94.4243 107.875 94.6426 107.763C94.8609 107.652 95.0475 107.486 95.1847 107.281C95.5668 106.715 95.8338 106.078 95.9701 105.407C96.1855 104.477 96.3295 103.531 96.4006 102.578C96.492 101.498 96.5582 100.314 96.5992 99.026L96.7889 90.9519H108.045V109.423L104.698 109.418Z" fill="url(#paint3_linear_319_104)"/>
<path d="M119.388 111.585C118.289 111.594 117.201 111.359 116.202 110.896C115.225 110.438 114.354 109.778 113.646 108.958C112.903 108.099 112.33 107.104 111.957 106.027C111.161 103.642 111.161 101.058 111.957 98.6725C112.332 97.5999 112.905 96.609 113.646 95.7526C114.353 94.9355 115.22 94.2757 116.192 93.8149C117.194 93.35 118.286 93.1153 119.388 93.1276C120.475 93.1107 121.553 93.3348 122.545 93.784C123.538 94.2332 124.421 94.8967 125.132 95.7278C125.874 96.5879 126.446 97.5832 126.819 98.6601C127.616 101.054 127.616 103.646 126.819 106.04C126.448 107.121 125.875 108.121 125.132 108.984C124.42 109.815 123.537 110.478 122.545 110.927C121.553 111.376 120.475 111.601 119.388 111.585ZM119.388 108.091C120.017 108.098 120.638 107.953 121.201 107.67C121.764 107.38 122.259 106.972 122.653 106.473C123.084 105.934 123.414 105.321 123.628 104.663C124.09 103.159 124.09 101.549 123.628 100.045C123.414 99.3886 123.084 98.7765 122.653 98.2392C122.257 97.7395 121.761 97.3308 121.196 97.0403C120.633 96.757 120.012 96.6128 119.383 96.6194C118.75 96.6133 118.125 96.7575 117.557 97.0403C116.991 97.3275 116.494 97.7367 116.101 98.2392C115.677 98.7804 115.351 99.3931 115.138 100.049C114.675 101.553 114.675 103.163 115.138 104.667C115.351 105.323 115.677 105.935 116.101 106.477C116.493 106.979 116.99 107.388 117.557 107.674C118.127 107.956 118.754 108.099 119.388 108.091Z" fill="url(#paint4_linear_319_104)"/>
<path d="M130.032 111.277V93.4329H132.843L139.09 106.027H137.623L143.738 93.4329H146.549L146.57 111.277H143.386L143.365 99.3774H143.973L139.053 109.371H137.523L132.534 99.3774H133.225V111.277H130.032Z" fill="url(#paint5_linear_319_104)"/>
<path d="M148.546 111.277L155.065 93.4329H158.418L165 111.277H161.436L156.049 95.5233H157.413L152.025 111.277H148.546ZM151.836 107.453L152.696 104.318H160.284L161.162 107.453H151.836Z" fill="url(#paint6_linear_319_104)"/>
<path d="M131.464 68.4408V44.5277L124.768 39.1337L119.813 35.1411L114.814 39.0734L119.769 43.066L125.304 47.5257V68.4408V74.666V78.2768H81.6952V68.4408H75.5347V84.5037H131.464V74.666" fill="url(#paint7_linear_319_104)"/>
<path d="M128.877 28.0063L119.813 35.1355L114.814 39.0678L109.167 43.508V74.6604H121.609V68.4424H115.326V46.5611L119.769 43.0675L124.761 39.1353L128.87 35.9028L142.421 46.5593V68.4406H131.465V74.6657H148.588V43.5151L128.877 28.0063Z" fill="url(#paint8_linear_319_104)"/>
<path d="M95.2904 41.5152L97.833 43.5151V74.6675H58.4116V43.5151L78.1232 28.0063L87.1865 35.1355L92.1856 39.0678L87.2304 43.0604L82.2384 39.1353L78.1302 35.9028L64.5792 46.5593V68.4406H91.6742V46.5611L90.214 45.4119L95.2904 41.5152Z" fill="url(#paint9_linear_319_104)"/>
<path d="M81.6952 64.8302V47.5258L87.2302 43.0661L92.1853 39.0735L103.5 29.9586L112.001 36.8072L117.058 32.9229L103.5 22L87.1862 35.1412L82.2311 39.1338L75.5347 44.5278V64.8302H81.6952Z" fill="url(#paint10_linear_319_104)"/>
<defs>
<linearGradient id="paint0_linear_319_104" x1="48.3608" y1="111.276" x2="48.3608" y2="93.4316" gradientUnits="userSpaceOnUse">
<stop stop-color="#242752"/>
<stop offset="0.34" stop-color="#212A5A"/>
<stop offset="0.87" stop-color="#19316E"/>
<stop offset="1" stop-color="#163375"/>
</linearGradient>
<linearGradient id="paint1_linear_319_104" x1="63.2223" y1="111.277" x2="63.2223" y2="93.4329" gradientUnits="userSpaceOnUse">
<stop stop-color="#242752"/>
<stop offset="0.34" stop-color="#212A5A"/>
<stop offset="0.87" stop-color="#19316E"/>
<stop offset="1" stop-color="#163375"/>
</linearGradient>
<linearGradient id="paint2_linear_319_104" x1="78.6078" y1="111.277" x2="78.6078" y2="93.4329" gradientUnits="userSpaceOnUse">
<stop stop-color="#242752"/>
<stop offset="0.34" stop-color="#212A5A"/>
<stop offset="0.87" stop-color="#19316E"/>
<stop offset="1" stop-color="#163375"/>
</linearGradient>
<linearGradient id="paint3_linear_319_104" x1="101.792" y1="115" x2="101.792" y2="90.943" gradientUnits="userSpaceOnUse">
<stop stop-color="#242752"/>
<stop offset="0.34" stop-color="#212A5A"/>
<stop offset="0.87" stop-color="#19316E"/>
<stop offset="1" stop-color="#163375"/>
</linearGradient>
<linearGradient id="paint4_linear_319_104" x1="119.388" y1="111.585" x2="119.388" y2="93.1276" gradientUnits="userSpaceOnUse">
<stop stop-color="#242752"/>
<stop offset="0.34" stop-color="#212A5A"/>
<stop offset="0.87" stop-color="#19316E"/>
<stop offset="1" stop-color="#163375"/>
</linearGradient>
<linearGradient id="paint5_linear_319_104" x1="138.305" y1="111.277" x2="138.305" y2="93.4329" gradientUnits="userSpaceOnUse">
<stop stop-color="#242752"/>
<stop offset="0.34" stop-color="#212A5A"/>
<stop offset="0.87" stop-color="#19316E"/>
<stop offset="1" stop-color="#163375"/>
</linearGradient>
<linearGradient id="paint6_linear_319_104" x1="156.773" y1="111.277" x2="156.773" y2="93.4329" gradientUnits="userSpaceOnUse">
<stop stop-color="#242752"/>
<stop offset="0.34" stop-color="#212A5A"/>
<stop offset="0.87" stop-color="#19316E"/>
<stop offset="1" stop-color="#163375"/>
</linearGradient>
<linearGradient id="paint7_linear_319_104" x1="103.5" y1="84.5037" x2="103.5" y2="35.1411" gradientUnits="userSpaceOnUse">
<stop stop-color="#242752"/>
<stop offset="0.34" stop-color="#222C5F"/>
<stop offset="0.96" stop-color="#1E3B82"/>
<stop offset="1" stop-color="#1E3C85"/>
</linearGradient>
<linearGradient id="paint8_linear_319_104" x1="117.278" y1="79.4008" x2="142.595" y2="36.0171" gradientUnits="userSpaceOnUse">
<stop stop-color="#1F5AB6"/>
<stop offset="0.26" stop-color="#2460BE"/>
<stop offset="0.66" stop-color="#326FD2"/>
<stop offset="1" stop-color="#4281EA"/>
</linearGradient>
<linearGradient id="paint9_linear_319_104" x1="66.5226" y1="79.4008" x2="91.8399" y2="36.0171" gradientUnits="userSpaceOnUse">
<stop stop-color="#1F5AB6"/>
<stop offset="0.26" stop-color="#2460BE"/>
<stop offset="0.66" stop-color="#326FD2"/>
<stop offset="1" stop-color="#4281EA"/>
</linearGradient>
<linearGradient id="paint10_linear_319_104" x1="96.297" y1="64.8302" x2="96.297" y2="22" gradientUnits="userSpaceOnUse">
<stop stop-color="#242752"/>
<stop offset="0.34" stop-color="#222C5F"/>
<stop offset="0.96" stop-color="#1E3B82"/>
<stop offset="1" stop-color="#1E3C85"/>
</linearGradient>
</defs>
</svg>
