<svg width="155" height="116" viewBox="0 0 155 116" fill="none" xmlns="http://www.w3.org/2000/svg">
<path d="M5.88992 111.349V92.0775L6.86862 93.287H0V89.0781H16.0334V93.287H9.16923L10.1214 92.0775V111.349H5.88992Z" fill="white"/>
<path d="M18.7283 111.346V89.0898H26.7306C28.3869 89.0898 29.8136 89.4133 31.0107 90.0601C32.1913 90.6904 33.1567 91.6593 33.783 92.8423C34.4369 94.0489 34.7639 95.4799 34.7639 97.1354C34.7639 98.7908 34.4377 100.226 33.7852 101.442C33.1532 102.621 32.1893 103.588 31.013 104.224C29.8143 104.881 28.3876 105.21 26.7328 105.21H21.0776L23.0284 102.888V111.346H18.7283ZM23.0284 103.462L21.0732 101.025H26.4892C27.7912 101.025 28.7773 100.686 29.4475 100.006C30.1177 99.3269 30.452 98.3736 30.4505 97.1464C30.4505 95.9163 30.1162 94.9674 29.4475 94.2999C28.7788 93.6324 27.7927 93.2987 26.4892 93.2987H21.0776L23.0284 90.8398V103.462Z" fill="white"/>
<path d="M37.5857 111.346V89.0898H41.8127V103.626L50.6697 89.0943H54.6842V111.346H50.4505V96.8806L41.6267 111.346H37.5857Z" fill="white"/>
<path d="M64.8784 115.999V107.161H85.8253V115.999H81.8618V111.347H68.8353L68.8087 115.999H64.8784ZM79.0098 109.037V90.1925H72.6925L72.5862 96.5479C72.5331 97.9257 72.4593 99.2341 72.3648 100.473C72.2799 101.599 72.132 102.72 71.922 103.829C71.7643 104.7 71.5165 105.552 71.1824 106.372C70.9581 106.978 70.5521 107.501 70.0199 107.867L65.4497 107.167C65.7577 107.179 66.0637 107.113 66.3388 106.974C66.6138 106.834 66.8489 106.627 67.0218 106.372C67.5034 105.667 67.8399 104.872 68.0116 104.035C68.2831 102.875 68.4644 101.695 68.5541 100.506C68.6692 99.1596 68.7526 97.6828 68.8043 96.076L69.0434 86.0059H83.228V109.044L79.0098 109.037Z" fill="white"/>
<path d="M97.521 111.734C96.136 111.746 94.7654 111.452 93.5066 110.875C92.2751 110.304 91.1774 109.481 90.2848 108.458C89.3489 107.386 88.6266 106.146 88.1569 104.803C87.1531 101.828 87.1531 98.605 88.1569 95.6298C88.6293 94.292 89.3514 93.0561 90.2848 91.988C91.1755 90.9689 92.2681 90.1459 93.4933 89.5713C94.7561 88.9914 96.1316 88.6986 97.521 88.714C98.8911 88.693 100.249 88.9724 101.5 89.5327C102.75 90.093 103.863 90.9204 104.759 91.957C105.694 93.0298 106.415 94.2711 106.885 95.6143C107.889 98.6001 107.889 101.832 106.885 104.818C106.418 106.167 105.696 107.414 104.759 108.491C103.862 109.527 102.749 110.354 101.499 110.914C100.249 111.474 98.8909 111.754 97.521 111.734ZM97.521 107.377C98.3135 107.385 99.0967 107.205 99.8061 106.852C100.515 106.49 101.139 105.981 101.635 105.359C102.178 104.687 102.594 103.922 102.864 103.102C103.447 101.226 103.447 99.2177 102.864 97.3421C102.594 96.5229 102.178 95.7595 101.635 95.0893C101.136 94.466 100.511 93.9563 99.7995 93.594C99.09 93.2407 98.3069 93.0608 97.5144 93.069C96.717 93.0614 95.929 93.2413 95.2138 93.594C94.5 93.9522 93.8734 94.4626 93.3782 95.0893C92.844 95.7643 92.4332 96.5285 92.1647 97.3465C91.5822 99.2221 91.5822 101.23 92.1647 103.106C92.4337 103.924 92.8444 104.688 93.3782 105.363C93.8728 105.99 94.4996 106.5 95.2138 106.856C95.9314 107.209 96.7218 107.387 97.521 107.377Z" fill="white"/>
<path d="M110.935 111.346V89.0898H114.478L122.349 104.798H120.5L128.206 89.0898H131.749L131.775 111.346H127.763L127.737 96.504H128.503L122.303 108.969H120.374L114.088 96.504H114.958V111.346H110.935Z" fill="white"/>
<path d="M134.266 111.346L142.481 89.0898H146.705L155 111.346H150.509L143.72 91.6971H145.439L138.65 111.346H134.266ZM138.411 106.576L139.496 102.667H149.057L150.164 106.576H138.411Z" fill="white"/>
<path d="M112.739 57.9268V28.1017L104.3 21.3742L98.0558 16.3945L91.7563 21.2989L98.0005 26.2786L104.975 31.8409V57.9268V65.691V70.1944H50.022V57.9268H42.2588V77.9608H112.739V65.691" fill="white"/>
<path d="M109.479 7.49609L98.0575 16.3878L91.758 21.2922L84.6414 26.8301V65.6842H100.321V57.9289H92.4023V30.638L98.0022 26.2808L104.293 21.3764L109.47 17.3447L126.546 30.6358V57.9267H112.74V65.6909H134.318V26.839L109.479 7.49609Z" fill="white"/>
<path d="M67.1525 24.3447L70.3565 26.839V65.6931H20.6797V26.839L45.5192 7.49609L56.9403 16.3878L63.2399 21.2922L56.9957 26.2719L50.705 21.3764L45.5281 17.3447L28.4517 30.6358V57.9267H62.5955V30.638L60.7555 29.2048L67.1525 24.3447Z" fill="white"/>
<path d="M50.0222 53.4189V31.8365L56.9971 26.2742L63.2413 21.2945L77.4989 9.92619L88.2115 18.4679L94.5841 13.6233L77.4989 0L56.9418 16.3901L50.6976 21.3698L42.259 28.0972V53.4189H50.0222Z" fill="white"/>
</svg>
