<svg width="32" height="32" viewBox="0 0 32 32" fill="none" xmlns="http://www.w3.org/2000/svg">
<path d="M5.33278 26C4.66833 26 4.11367 25.78 3.66878 25.34C3.22293 24.899 3 24.35 3 23.6929V8.30714C3 7.65 3.22293 7.10143 3.66878 6.66143C4.11367 6.22048 4.66833 6 5.33278 6H26.6672C27.3317 6 27.8863 6.22048 28.3312 6.66143C28.7771 7.10143 29 7.65 29 8.30714V23.6929C29 24.35 28.7776 24.8986 28.3327 25.3386C27.8868 25.7795 27.3317 26 26.6672 26H5.33278ZM16 16.1643L4.44444 8.69286V23.6929C4.44444 23.949 4.52774 24.1595 4.69433 24.3243C4.86093 24.489 5.07374 24.5714 5.33278 24.5714H26.6672C26.9263 24.5714 27.1391 24.489 27.3057 24.3243C27.4723 24.1595 27.5556 23.949 27.5556 23.6929V8.69286L16 16.1643ZM16 14.5714L27.1107 7.42857H4.88933L16 14.5714ZM4.44444 8.69286V7.42857V23.6929C4.44444 23.949 4.52774 24.1595 4.69433 24.3243C4.86093 24.489 5.07374 24.5714 5.33278 24.5714H4.44444V8.69286Z" fill="#3F7DE5"/>
</svg>
