<svg width="24" height="24" viewBox="0 0 24 24" fill="none" xmlns="http://www.w3.org/2000/svg">
<path d="M5.00024 8.99984C5.00024 7.93902 5.42165 6.92164 6.17177 6.17153C6.92189 5.42141 7.93926 5 9.00008 5H15.0001C16.0609 5 17.0783 5.42141 17.8284 6.17153C18.5785 6.92164 18.9999 7.93902 18.9999 8.99984M5.00024 18.9997V17M18.9999 18.9997V17" stroke="#3F7DE5" stroke-linecap="round" stroke-linejoin="round"/>
<path d="M21 11.0001V14.9999C21 15.2626 20.9482 15.5227 20.8477 15.7653C20.7472 16.008 20.5999 16.2285 20.4141 16.4142C20.2284 16.6 20.0079 16.7473 19.7652 16.8478C19.5226 16.9483 19.2625 17.0001 18.9998 17.0001H5.00014C4.73747 17.0001 4.47738 16.9483 4.23471 16.8478C3.99204 16.7473 3.77154 16.6 3.58581 16.4142C3.40008 16.2285 3.25275 16.008 3.15223 15.7653C3.05171 15.5227 2.99998 15.2626 2.99998 14.9999V11.0001C2.99561 10.7062 3.05609 10.4149 3.17711 10.1471C3.29813 9.8792 3.47671 9.64131 3.70014 9.45033C3.92357 9.25935 4.18636 9.11997 4.46979 9.04212C4.75323 8.96427 5.05034 8.94986 5.33998 8.99991C5.82237 9.09679 6.25445 9.36243 6.55865 9.74915C6.86285 10.1359 7.01927 10.6183 6.99982 11.11V12.9998H17.0001V11.11C16.9807 10.6183 17.1371 10.1359 17.4413 9.74915C17.7455 9.36243 18.1776 9.09679 18.66 8.99991C18.9496 8.95003 19.2466 8.96457 19.53 9.04249C19.8134 9.12041 20.0761 9.2598 20.2995 9.45074C20.5228 9.64169 20.7014 9.87951 20.8225 10.1473C20.9436 10.4151 21.0042 10.7062 21 11.0001Z" stroke="#3F7DE5" stroke-linecap="round" stroke-linejoin="round"/>
</svg>
