<svg width="48" height="48" viewBox="0 0 48 48" fill="none" xmlns="http://www.w3.org/2000/svg">
<path d="M10.001 17.9997C10.001 15.878 10.8438 13.8433 12.344 12.3431C13.8443 10.8428 15.879 10 18.0007 10H30.0007C32.1223 10 34.1571 10.8428 35.6573 12.3431C37.1575 13.8433 38.0003 15.878 38.0003 17.9997M10.001 37.9994V34M38.0003 37.9994V34" stroke="#333333" stroke-width="1.5" stroke-linecap="round" stroke-linejoin="round"/>
<path d="M42.0004 22.0001V29.9998C42.0004 30.5252 41.897 31.0453 41.6959 31.5307C41.4949 32.016 41.2002 32.457 40.8288 32.8285C40.4573 33.1999 40.0163 33.4946 39.531 33.6956C39.0456 33.8967 38.5255 34.0001 38.0001 34.0001H10.0008C9.47543 34.0001 8.95525 33.8967 8.4699 33.6956C7.98456 33.4946 7.54357 33.1999 7.17211 32.8285C6.80064 32.457 6.50598 32.016 6.30495 31.5307C6.10391 31.0453 6.00044 30.5252 6.00044 29.9998V22.0001C5.99171 21.4123 6.11267 20.8299 6.35471 20.2941C6.59675 19.7584 6.95391 19.2826 7.40077 18.9007C7.84764 18.5187 8.37321 18.2399 8.94008 18.0842C9.50694 17.9285 10.1012 17.8997 10.6804 17.9998C11.6452 18.1936 12.5094 18.7249 13.1178 19.4983C13.7262 20.2717 14.039 21.2367 14.0001 22.22V25.9995H34.0008V22.22C33.9619 21.2367 34.2747 20.2717 34.8831 19.4983C35.4915 18.7249 36.3556 18.1936 37.3204 17.9998C37.8997 17.9001 38.4938 17.9291 39.0605 18.085C39.6272 18.2408 40.1526 18.5196 40.5994 18.9015C41.0462 19.2834 41.4033 19.759 41.6455 20.2946C41.8876 20.8301 42.0088 21.4125 42.0004 22.0001Z" stroke="#333333" stroke-width="1.5" stroke-linecap="round" stroke-linejoin="round"/>
</svg>
