<svg width="32" height="32" viewBox="0 0 32 32" fill="none" xmlns="http://www.w3.org/2000/svg">
<path fill-rule="evenodd" clip-rule="evenodd" d="M31.2066 22.4864C30.4813 21.0257 29.5255 19.6913 28.3759 18.5344C27.9914 18.0999 27.5889 17.6818 27.1693 17.2811L27.1186 17.2317C26.9628 17.0809 26.809 16.928 26.6573 16.7731C28.2288 14.5874 29.5735 12.2473 30.6706 9.78907L30.7146 9.6904L30.7453 9.5864C30.8906 9.1024 31.0559 8.1824 30.4693 7.3504C29.8613 6.49174 28.8893 6.33707 28.2373 6.33707H25.2413C24.6139 6.30848 23.9936 6.47907 23.4692 6.82442C22.9447 7.16976 22.5429 7.67217 22.3213 8.25974C21.6765 9.79526 20.8692 11.2574 19.9133 12.6211V9.1104C19.9133 8.65707 19.8706 7.89707 19.3839 7.25707C18.8026 6.48907 17.9613 6.33707 17.3773 6.33707H12.6226C12.0022 6.3228 11.4 6.54769 10.9408 6.96517C10.4816 7.38265 10.2006 7.96075 10.1559 8.57974L10.1519 8.63974V8.69974C10.1519 9.3464 10.4079 9.82374 10.6133 10.1237C10.7053 10.2584 10.8026 10.3811 10.8653 10.4584L10.8786 10.4757C10.9453 10.5584 10.9893 10.6131 11.0333 10.6744C11.1506 10.8317 11.3173 11.0771 11.3653 11.7091V13.6731C10.4108 12.0748 9.62824 10.3801 9.03059 8.61707L9.01992 8.58774L9.00925 8.55974C8.84659 8.1344 8.58659 7.51574 8.06525 7.04374C7.45725 6.4904 6.73725 6.33707 6.08259 6.33707H3.04259C2.37992 6.33707 1.58125 6.49174 0.985252 7.11974C0.399919 7.7384 0.333252 8.47974 0.333252 8.87174V9.0504L0.370585 9.22374C1.21232 13.1314 2.9469 16.7914 5.43859 19.9171C6.57775 21.7135 8.1243 23.2161 9.95278 24.303C11.7813 25.39 13.8402 26.0306 15.9626 26.1731L16.0173 26.1771H16.0733C17.0413 26.1771 18.0506 26.0931 18.8093 25.5877C19.8319 24.9051 19.9133 23.8584 19.9133 23.3357V21.8184C20.1759 22.0317 20.5013 22.3171 20.8999 22.7011C21.3826 23.1837 21.7666 23.6024 22.0959 23.9677L22.2719 24.1624C22.5279 24.4477 22.7799 24.7291 23.0093 24.9597C23.2973 25.2491 23.6533 25.5677 24.0986 25.8037C24.5826 26.0584 25.0906 26.1744 25.6293 26.1744H28.6706C29.3119 26.1744 30.2306 26.0224 30.8773 25.2731C31.5813 24.4571 31.5279 23.4557 31.3066 22.7371L31.2666 22.6077L31.2066 22.4864ZM23.5799 22.6277C23.1667 22.1658 22.7412 21.715 22.3039 21.2757L22.2999 21.2717C20.4906 19.5277 19.6466 19.2251 19.0493 19.2251C18.7306 19.2251 18.3799 19.2597 18.1519 19.5451C18.0493 19.6812 17.9819 19.8406 17.9559 20.0091C17.9238 20.2047 17.9095 20.4029 17.9133 20.6011V23.3357C17.9133 23.6757 17.8573 23.8184 17.6999 23.9224C17.4906 24.0624 17.0439 24.1757 16.0853 24.1757C14.2642 24.0518 12.4986 23.4975 10.9335 22.5582C9.36842 21.619 8.04861 20.3217 7.08259 18.7731L7.07192 18.7557L7.05859 18.7397C4.73741 15.8506 3.11971 12.4614 2.33325 8.83974C2.33859 8.6664 2.37592 8.56107 2.43725 8.49707C2.49992 8.4304 2.65325 8.33707 3.04259 8.33707H6.08259C6.41992 8.33707 6.59592 8.41174 6.72259 8.52507C6.86392 8.65574 6.98925 8.87574 7.13859 9.26774C7.88525 11.4624 8.89325 13.5157 9.84925 15.0251C10.3266 15.7784 10.7959 16.4064 11.2199 16.8504C11.4319 17.0717 11.6386 17.2557 11.8373 17.3864C12.0279 17.5117 12.2453 17.6117 12.4693 17.6117C12.5866 17.6117 12.7239 17.5984 12.8559 17.5411C12.9985 17.4781 13.1158 17.3692 13.1893 17.2317C13.3266 16.9811 13.3653 16.6117 13.3653 16.1277V11.6304C13.2946 10.5397 12.9653 9.92507 12.6453 9.48907C12.5804 9.40186 12.5138 9.31607 12.4453 9.23174L12.4279 9.2104C12.3711 9.14134 12.3168 9.07018 12.2653 8.99707C12.1996 8.91553 12.1601 8.81609 12.1519 8.71174C12.1624 8.60579 12.2129 8.50784 12.2932 8.43794C12.3736 8.36804 12.4775 8.33148 12.5839 8.33574H17.3773C17.6519 8.33574 17.7439 8.4024 17.7906 8.46507C17.8573 8.55174 17.9133 8.73174 17.9133 9.1104V15.1477C17.9133 15.8651 18.2439 16.3504 18.7239 16.3504C19.2759 16.3504 19.6746 16.0157 20.3706 15.3197L20.3826 15.3064L20.3933 15.2944C21.9546 13.3908 23.2302 11.2698 24.1799 8.9984L24.1853 8.9824C24.2566 8.78172 24.3917 8.60989 24.5698 8.49313C24.748 8.37637 24.9594 8.3211 25.1719 8.33574H28.2386C28.6546 8.33574 28.7906 8.4424 28.8359 8.50507C28.8826 8.57174 28.9159 8.7144 28.8359 8.9944C27.7407 11.4429 26.3868 13.7672 24.7973 15.9277L24.7866 15.9437C24.6333 16.1797 24.4639 16.4411 24.4399 16.7397C24.4133 17.0624 24.5519 17.3544 24.7959 17.6691C24.9733 17.9304 25.3399 18.2891 25.7119 18.6531L25.7466 18.6877C26.1359 19.0691 26.5586 19.4824 26.8973 19.8824L26.9066 19.8917L26.9159 19.9024C27.9258 20.9097 28.7656 22.0742 29.4026 23.3504C29.5039 23.6971 29.4426 23.8757 29.3626 23.9677C29.2706 24.0744 29.0639 24.1744 28.6719 24.1744H25.6293C25.4219 24.1795 25.2167 24.1312 25.0333 24.0344C24.8084 23.9036 24.6044 23.7401 24.4279 23.5491C24.2373 23.3584 24.0306 23.1277 23.7773 22.8464L23.5799 22.6277Z" fill="#3F7DE5"/>
</svg>
