<svg width="32" height="32" viewBox="0 0 32 32" fill="none" xmlns="http://www.w3.org/2000/svg">
<g clip-path="url(#clip0_3001_1467)">
<path d="M16.0003 1.66797C8.07695 1.67664 1.66029 8.10663 1.66895 16.03C1.67098 18.4344 2.27782 20.7996 3.43362 22.908L2.33362 29.668L9.09362 28.568C16.0336 32.3746 24.747 29.8353 28.5536 22.8946C32.3603 15.954 29.8216 7.24197 22.881 3.43464C20.7722 2.27782 18.4055 1.67027 16.0003 1.66797ZM8.83362 8.1813H12.7403C12.9171 8.1813 13.0867 8.25154 13.2117 8.37656C13.3367 8.50159 13.407 8.67116 13.407 8.84797C13.3851 9.73704 13.5345 10.622 13.847 11.4546C13.9815 11.7334 14.0111 12.0512 13.9303 12.35C13.8495 12.6488 13.6637 12.9084 13.407 13.0813L12.0403 14.4146C12.6463 15.598 13.4386 16.6762 14.387 17.608C15.3112 18.5718 16.385 19.38 17.567 20.0013L18.9003 18.6346C19.567 17.968 19.8736 17.968 20.527 18.1946C21.3596 18.5071 22.2446 18.6565 23.1336 18.6346C23.3078 18.6428 23.4727 18.7156 23.596 18.8389C23.7193 18.9622 23.7922 19.1271 23.8003 19.3013V23.208C23.7922 23.3822 23.7193 23.5471 23.596 23.6704C23.4727 23.7937 23.3078 23.8665 23.1336 23.8746C19.212 23.7038 15.4947 22.0781 12.707 19.3146C9.9392 16.5298 8.31271 12.8108 8.14695 8.88797C8.14854 8.70447 8.22079 8.52864 8.34867 8.39703C8.47655 8.26542 8.65024 8.18816 8.83362 8.1813Z" stroke="#3F7DE5" stroke-width="1.5" stroke-linecap="round" stroke-linejoin="round"/>
</g>
<defs>
<clipPath id="clip0_3001_1467">
<rect width="32" height="32" fill="white"/>
</clipPath>
</defs>
</svg>
