<svg width="159" height="120" viewBox="0 0 159 120" fill="none" xmlns="http://www.w3.org/2000/svg">
<rect width="159" height="120" fill="#D50038"/>
<path d="M39.1757 85.5574H38V84.9277H41V85.5574H39.8243V88.9857H39.1757V85.5574Z" fill="#E6C885"/>
<path d="M46.6243 88.0528H44.3228L43.873 88.9857H43L45.0635 84.9277H45.91L48 88.9857H47.1005L46.6243 88.0528ZM46.3333 87.4698L45.4603 85.6973L44.5873 87.4698H46.3333Z" fill="#E6C885"/>
<path d="M49.6383 88.8489C49.3617 88.7577 49.1702 88.6437 49 88.507L49.234 87.937C49.383 88.0738 49.5745 88.165 49.7872 88.2562C50 88.3474 50.234 88.3702 50.4468 88.3702C50.7234 88.3702 50.9362 88.3246 51.0638 88.2334C51.1915 88.1422 51.2766 88.0054 51.2766 87.8686C51.2766 87.7546 51.234 87.6634 51.1702 87.5951C51.0851 87.5267 51 87.4583 50.8723 87.4127C50.766 87.3671 50.5957 87.3215 50.4043 87.2759C50.1277 87.2075 49.8936 87.1391 49.7234 87.0707C49.5532 87.0023 49.4043 86.8883 49.2766 86.7287C49.1489 86.5692 49.0851 86.364 49.0851 86.1132C49.0851 85.8852 49.1489 85.7029 49.2553 85.5205C49.3617 85.3381 49.5319 85.2013 49.766 85.0873C50 84.9733 50.2553 84.9277 50.5957 84.9277C50.8298 84.9277 51.0426 84.9505 51.2553 85.0189C51.4681 85.0873 51.6596 85.1557 51.8298 85.2697L51.617 85.8396C51.4468 85.7484 51.2766 85.6573 51.1064 85.6117C50.9362 85.5661 50.766 85.5433 50.5957 85.5433C50.3192 85.5433 50.1277 85.5889 50 85.6801C49.8723 85.7712 49.8085 85.908 49.8085 86.0676C49.8085 86.1816 49.8511 86.2728 49.9149 86.3412C50 86.4096 50.0851 86.478 50.2128 86.5008C50.3191 86.5464 50.4894 86.592 50.6809 86.6376C50.9574 86.7059 51.1915 86.7743 51.3617 86.8427C51.5319 86.9111 51.6809 87.0251 51.8085 87.1847C51.9362 87.3443 52 87.5495 52 87.8002C52 88.0282 51.9362 88.2106 51.8298 88.393C51.7234 88.5754 51.5532 88.7121 51.3192 88.8261C51.0851 88.9401 50.8085 88.9857 50.4894 88.9857C50.1915 88.9857 49.9149 88.9401 49.6383 88.8489Z" fill="#E6C885"/>
<path d="M55.1757 85.5574H54V84.9277H57V85.5574H55.8243V88.9857H55.1757V85.5574Z" fill="#E6C885"/>
<path d="M63 88.356V88.9857H60V84.9277H62.9308V85.5574H60.7385V86.6069H62.6769V87.2366H60.7385V88.356H63Z" fill="#E6C885"/>
<path d="M69.2234 88.7152C68.8511 88.5348 68.5585 88.3094 68.3191 87.9938C68.1064 87.6781 68 87.34 68 86.9567C68 86.5735 68.1064 86.2353 68.3191 85.9197C68.5319 85.6041 68.8245 85.3786 69.2234 85.1983C69.5957 85.0179 70.0213 84.9277 70.5 84.9277C70.9787 84.9277 71.4043 85.0179 71.7766 85.1983C72.1489 85.3786 72.4415 85.6041 72.6809 85.9197C72.8936 86.2353 73 86.5735 73 86.9567C73 87.34 72.8936 87.6781 72.6809 87.9938C72.4681 88.3094 72.1755 88.5348 71.7766 88.7152C71.4043 88.8955 70.9787 88.9857 70.5 88.9857C70.0213 88.9857 69.5957 88.8955 69.2234 88.7152ZM71.3245 88.1741C71.5638 88.0614 71.7766 87.881 71.9096 87.6781C72.0426 87.4752 72.1223 87.2273 72.1223 86.9793C72.1223 86.7087 72.0426 86.4833 71.9096 86.2804C71.7766 86.0775 71.5638 85.8971 71.3245 85.7844C71.0851 85.6717 70.7926 85.6041 70.5 85.6041C70.2074 85.6041 69.9149 85.6717 69.6755 85.7844C69.4362 85.8971 69.2234 86.0775 69.0904 86.2804C68.9574 86.4833 68.8777 86.7313 68.8777 86.9793C68.8777 87.2498 68.9574 87.4752 69.0904 87.6781C69.2234 87.881 69.4362 88.0614 69.6755 88.1741C69.9149 88.2868 70.2074 88.3545 70.5 88.3545C70.7926 88.3545 71.0851 88.2868 71.3245 88.1741Z" fill="#E6C885"/>
<path d="M76.7559 85.5574V86.7935H78.7402V87.4231H76.7559V88.9857H76V84.9277H79V85.5574H76.7559Z" fill="#E6C885"/>
<path d="M89 89.5283C88.8469 89.6935 88.6684 89.8115 88.4898 89.8822C88.2857 89.953 88.0816 90.0002 87.852 90.0002C87.5459 90.0002 87.2653 89.9294 87.0102 89.8115C86.7551 89.6935 86.4745 89.4576 86.1429 89.1509C85.7347 89.1273 85.3776 89.0093 85.0459 88.8206C84.7143 88.6318 84.4592 88.3723 84.2806 88.0656C84.102 87.7589 84 87.4286 84 87.0511C84 86.65 84.102 86.2961 84.3061 85.9658C84.5102 85.6355 84.7908 85.3996 85.1735 85.2109C85.5306 85.0221 85.9388 84.9277 86.398 84.9277C86.8571 84.9277 87.2653 85.0221 87.6225 85.2109C87.9796 85.3996 88.2602 85.6355 88.4898 85.9658C88.6939 86.2961 88.7959 86.65 88.7959 87.0511C88.7959 87.3814 88.7194 87.6645 88.5918 87.9476C88.4643 88.2307 88.2602 88.4667 88.0051 88.6554C87.75 88.8442 87.4694 88.9857 87.1378 89.0801C87.2653 89.198 87.3929 89.2924 87.4949 89.3396C87.6225 89.3868 87.75 89.4104 87.8776 89.4104C88.1582 89.4104 88.4133 89.2924 88.6429 89.0801L89 89.5283ZM85.0459 87.8061C85.1735 88.0184 85.3775 88.2071 85.6071 88.3251C85.8367 88.4431 86.1173 88.5139 86.398 88.5139C86.6786 88.5139 86.9592 88.4431 87.1888 88.3251C87.4184 88.2071 87.6225 88.0184 87.75 87.8061C87.8776 87.5937 87.9541 87.3342 87.9541 87.0747C87.9541 86.7916 87.8776 86.5556 87.75 86.3433C87.6225 86.131 87.4184 85.9422 87.1888 85.8243C86.9592 85.7063 86.6786 85.6355 86.398 85.6355C86.1173 85.6355 85.8367 85.7063 85.6071 85.8243C85.3775 85.9422 85.1735 86.131 85.0459 86.3433C84.9184 86.5556 84.8418 86.8152 84.8418 87.0747C84.8418 87.3342 84.8929 87.5937 85.0459 87.8061Z" fill="#E6C885"/>
<path d="M91.5263 88.5246C91.1842 88.2248 91 87.7637 91 87.1873V84.9277H91.8421V87.1642C91.8421 87.9482 92.2368 88.3401 93 88.3401C93.7632 88.3401 94.1579 87.9482 94.1579 87.1642V84.9277H95V87.1873C95 87.7637 94.8158 88.2248 94.4737 88.5246C94.1316 88.8474 93.6316 88.9857 93 88.9857C92.3684 88.9857 91.8684 88.8243 91.5263 88.5246Z" fill="#E6C885"/>
<path d="M99.6243 88.0528H97.3227L96.873 88.9857H96L98.0635 84.9277H98.91L101 88.9857H100.101L99.6243 88.0528ZM99.3598 87.4698L98.4868 85.6973L97.6138 87.4698H99.3598Z" fill="#E6C885"/>
<path d="M102 84.9277H102.78V88.356H105V88.9857H102V84.9277Z" fill="#E6C885"/>
<path d="M108 84.9277H109V88.9857H108V84.9277Z" fill="#E6C885"/>
<path d="M113.176 85.5574H112V84.9277H115V85.5574H113.824V88.9857H113.176V85.5574Z" fill="#E6C885"/>
<path d="M118.367 87.5631V88.9857H117.609V87.5631L116 84.9277H116.828L118.036 86.9101L119.243 84.9277H120L118.367 87.5631Z" fill="#E6C885"/>
<path d="M74.1246 31.4792C72.1226 34.5147 71.9309 36.5883 72.0161 38.0419C72.08 39.5169 72.7828 41.1415 74.4866 41.2911C75.1682 41.3552 75.7432 41.1842 76.1266 40.8208C76.5099 40.4574 76.7016 39.9016 76.6803 39.2817C76.659 38.8969 76.3608 37.935 75.1043 37.7426C75.2959 37.9564 75.658 38.4267 75.6154 39.0466C75.5728 39.7306 75.1895 40.1368 74.5718 40.1368C74.5505 40.1368 74.5079 40.1368 74.4866 40.1368C73.3365 40.0726 73.1875 38.1915 73.1875 37.9777C73.1236 36.6951 73.2939 34.8781 75.1043 32.1205C75.4024 31.6503 75.7645 31.18 76.1479 30.6456L76.2118 30.5601C77.5748 28.7003 79.1083 26.6054 79.9389 23.8905L80.0028 23.7195L80.0667 23.8905C80.9186 26.6054 82.452 28.7003 83.7938 30.5601L83.8364 30.6028C84.2197 31.1372 84.5818 31.6289 84.9013 32.0992C86.7329 34.8568 86.882 36.6738 86.8181 37.9564C86.8181 38.1701 86.6903 40.0299 85.5189 40.1154C84.5605 40.1795 84.3901 39.3886 84.3688 39.0466C84.3262 38.4053 84.6883 37.9991 84.88 37.8281C84.454 37.8067 84.092 37.9136 83.8151 38.1488C83.4104 38.4908 83.2826 39.0038 83.2826 39.2176C83.2613 39.8375 83.4743 40.4147 83.879 40.7995C84.2836 41.1842 84.8374 41.3339 85.5189 41.2911C87.244 41.1415 87.9256 39.5169 87.9895 38.0419C88.0534 36.5883 87.883 34.5147 85.881 31.4792L85.8597 31.4365C85.5189 30.9235 85.1781 30.4104 84.7522 29.8974C81.6214 26.0068 80.3009 21.1757 80.0241 20C79.7259 21.1971 78.4054 26.0282 75.2959 29.8974C74.87 30.4318 74.5079 30.9662 74.1885 31.4579L74.1246 31.4792Z" fill="url(#paint0_linear_3003_764)"/>
<path d="M78.9646 42.3192C80.1004 40.8611 80.3147 39.0999 79.5432 37.6039C78.836 36.2404 77.4216 35.445 75.3215 35.2178C75.2786 35.2935 75.15 35.4829 75.1072 35.6912C75.0429 35.9753 75 36.1268 75 36.2025C76.7573 36.3919 77.9574 37.0168 78.4717 38.0205C79.0718 39.1946 78.9003 40.577 78.0003 41.7322C78.086 41.77 78.2788 41.8647 78.4931 41.9973C78.7075 42.1109 78.8789 42.2435 78.9646 42.3192Z" fill="url(#paint1_linear_3003_764)"/>
<path d="M84.892 35.6963C84.8272 35.4858 84.7192 35.2943 84.676 35.2178C82.5807 35.4283 81.1551 36.2514 80.4423 37.6296C79.6863 39.1035 79.9023 40.8071 81.0687 42.3192C81.1551 42.2618 81.3279 42.1087 81.5439 41.9938C81.7599 41.879 81.9543 41.7641 82.0407 41.7258C81.1335 40.5391 80.9391 39.2183 81.5223 38.0698C82.0407 37.0553 83.2504 36.4045 85 36.2323C84.9784 36.1557 84.9568 35.9834 84.892 35.6963Z" fill="url(#paint2_linear_3003_764)"/>
<path d="M63 40.2902L64.2895 40.2699C64.4737 39.9859 66.3158 37.2062 69.7789 36.3743C69.8342 35.9685 69.9079 35.583 70 35.2178C65.6526 36.1511 63.3684 39.4989 63 40.2902Z" fill="url(#paint3_linear_3003_764)"/>
<path d="M91.0753 47.0309C92.8042 46.7582 94.3434 45.2268 95.3133 43.9891C96.2199 42.8353 96.8313 41.7025 97 41.4088L96.1566 41.3669C95.7982 41.3459 87.3223 40.9054 83.6958 42.7095C81.3976 43.8423 80.006 45.3736 79.5633 47.2197L79.5 47.4504L79.4367 47.2197C78.994 45.3736 77.6024 43.8423 75.3042 42.7095C71.6777 40.9054 63.2018 41.3669 62.8434 41.3669L62 41.4088C62.3373 42.0591 64.8253 46.5274 67.9247 47.0309C69.2952 47.2406 69.991 46.2966 70.1175 45.6463C70.2229 45.1219 70.1175 44.6604 69.8645 44.3038C69.6114 43.9471 69.2108 43.7374 68.747 43.6535C68.3886 43.6115 68.0512 43.6744 67.8404 43.8632C67.6928 43.9891 67.5873 44.1779 67.5663 44.3877C67.756 44.3247 68.1988 44.1989 68.6205 44.4716C68.8313 44.5975 68.9578 44.7863 69 44.996C69.0422 45.1848 68.9789 45.3527 68.8524 45.5415C68.5783 45.8981 68.1777 45.8771 67.9458 45.8561C66.5331 45.7302 64.5934 43.6115 63.9187 42.5626L63.8554 42.4787H63.9608C66.9127 42.4158 72.2259 42.4787 74.7349 43.7164C78.3193 45.4995 79.247 48.4364 77.4548 52.4641L78.762 52.2334C79.0572 51.5201 79.2681 50.8069 79.4157 50.1146L79.4789 49.8419L79.5422 50.1146C79.6687 50.8069 79.9006 51.5201 80.1958 52.2334L81.503 52.4641C79.7319 48.4364 80.6386 45.4995 84.2229 43.7164C86.753 42.4577 92.0663 42.3948 94.997 42.4787H95.1024L95.0392 42.5626C94.3645 43.6115 92.4458 45.7302 91.0331 45.8561C90.7801 45.8771 90.3795 45.919 90.1054 45.5415C89.9789 45.3736 89.9367 45.1848 89.9578 44.996C90 44.8072 90.1265 44.6184 90.3373 44.4716C90.759 44.1989 91.2018 44.3247 91.3916 44.3877C91.3705 44.1779 91.2651 43.9891 91.1175 43.8632C90.9066 43.6744 90.5693 43.5905 90.2108 43.6535C89.747 43.7164 89.3464 43.9471 89.0934 44.3038C88.8404 44.6604 88.756 45.1219 88.8404 45.6463C89.009 46.2966 89.7048 47.2616 91.0753 47.0309Z" fill="url(#paint4_linear_3003_764)"/>
<path d="M68.8074 39.025L68.582 39.0465L68.7664 38.9393C69.2787 38.6178 69.8934 38.4249 70.3852 38.2749C70.3443 37.9534 70.3238 37.6105 70.3238 37.2461C69.8934 37.3533 68.7049 37.7176 67.7418 38.382C66.8811 38.9822 66.2254 39.7323 66 39.9895H66.041C66.1844 39.9895 66.3689 39.9895 66.6148 39.9895C67.0246 39.9895 67.6189 40.0109 68.541 40.0324C70.0369 40.1181 70.6311 40.2253 70.9795 40.2896H71C70.8156 39.9252 70.6516 39.4966 70.5902 39.1965C70.4262 39.1322 69.2172 39.0036 68.8074 39.025Z" fill="url(#paint5_linear_3003_764)"/>
<path d="M90.4797 40.0324C91.9837 39.9681 92.5732 39.9681 92.9593 39.9895H93C92.7764 39.7323 92.126 38.9822 91.2724 38.382C90.3171 37.7176 89.1382 37.3533 88.7114 37.2461C88.7317 37.589 88.6911 37.9319 88.6504 38.2749C89.1382 38.4249 89.748 38.5964 90.2561 38.9393L90.439 39.0465L90.2154 39.025C89.7886 39.0036 88.6098 39.1322 88.4065 39.1965C88.3455 39.4751 88.2033 39.9252 88 40.2896H88.0203C88.4268 40.2253 88.9959 40.1181 90.4797 40.0324Z" fill="url(#paint6_linear_3003_764)"/>
<path d="M89 35.2178C89.0921 35.583 89.1658 35.9685 89.2211 36.3743C92.6842 37.2062 94.5263 39.9859 94.7105 40.2699L96 40.2902C95.6316 39.4786 93.3289 36.1308 89 35.2178Z" fill="url(#paint7_linear_3003_764)"/>
<path d="M85.1123 47.6476C85.0472 47.6049 84.982 47.5621 84.9169 47.5194L84.8518 47.4767L84.9169 47.434C85.5031 47.0282 86.3282 46.7078 87.2401 46.537C87.2184 46.4088 87.1967 46.1312 87.1967 45.8962C87.1967 45.704 87.2618 45.4691 87.2835 45.3623C85.5465 45.6613 84.3958 46.3661 83.9833 46.6651L83.9398 46.6865L83.5925 46.3448C83.5273 46.2807 83.4839 46.238 83.4622 46.1953L82.5503 46.9214C82.724 47.1136 82.876 47.2631 82.9845 47.3699L83.0279 47.4126L82.9845 47.4554C82.724 47.733 82.5286 48.032 82.3983 48.267C81.7252 49.4203 82.0943 50.3173 82.1595 50.4454L83.8096 51.4493L88 49.3348L86.9795 48.8223C86.4367 48.5019 85.8722 48.1602 85.1123 47.6476ZM83.8747 50.1037L83.1799 49.6766V49.6552C83.1582 49.4416 83.2885 49.0572 83.4839 48.7155C83.5707 48.5446 83.701 48.3737 83.853 48.2242L83.8964 48.1815L83.9398 48.2242C84.1135 48.3737 84.2872 48.5019 84.4609 48.6087C84.8083 48.8436 85.134 49.0358 85.4163 49.2281L85.5031 49.2708L83.8747 50.1037Z" fill="url(#paint8_linear_3003_764)"/>
<path d="M76.8405 49.6282C76.9057 49.5206 77.2748 48.7678 76.6017 47.8C76.4714 47.6028 76.276 47.3519 76.0155 47.1188L75.9721 47.083L76.0155 47.0472C76.124 46.9755 76.276 46.85 76.4497 46.6707L75.5378 46.0613C75.5378 46.0613 75.5378 46.0613 75.5161 46.0793L75.0601 46.4736L75.0167 46.4557C74.6042 46.2047 73.4535 45.6132 71.7165 45.3623C71.7382 45.4698 71.8033 45.6491 71.8033 45.8104C71.8251 46.0076 71.7816 46.2585 71.7599 46.3481C72.6501 46.5094 73.4752 46.7783 74.0831 47.1009L74.1482 47.1368L74.0831 47.1726C74.018 47.2085 73.9528 47.2443 73.8877 47.2802C73.1278 47.7103 72.5633 47.9971 71.9988 48.2301L71 48.6603L75.1904 50.4348L76.8405 49.6282ZM73.5186 48.6603L73.6054 48.6245C73.9094 48.4631 74.2134 48.3018 74.5608 48.1047C74.7345 48.015 74.9082 47.9075 75.0819 47.782L75.1253 47.7462L75.1687 47.782C75.3207 47.9254 75.451 48.0509 75.5378 48.1943C75.7332 48.4811 75.8418 48.8037 75.8418 48.9829V49.0009L75.147 49.3593L73.5186 48.6603Z" fill="url(#paint9_linear_3003_764)"/>
<path d="M79.5299 34.3779L80.0448 35.2175L80.5821 34.3779C80.6716 34.258 81.0746 33.6183 81.5895 32.9187C82.1045 32.239 82.5522 31.7392 82.6418 31.6393L83 31.2595L82.6194 30.8997C82.6194 30.8997 81.9925 30.32 81.4776 29.6003C81.0075 28.9806 80.694 28.4009 80.5821 28.181V28.161L80.0448 27.1016L79.4851 28.161C79.3955 28.301 79.0149 29.0206 78.5672 29.6003C78.1418 30.16 77.5597 30.7397 77.403 30.9197L77 31.3195L77.4254 31.6793C77.4254 31.6793 77.9851 32.159 78.5672 32.9386C79.1493 33.7582 79.5299 34.3779 79.5299 34.3779ZM78.7015 31.2395C79.0597 30.8597 79.3507 30.5199 79.5746 30.22C79.709 30.0601 79.8209 29.8802 79.9776 29.6403L80.0224 29.5603L80.0672 29.6403C80.1791 29.8202 80.3134 30.0001 80.4701 30.2C80.806 30.6398 81.1418 31.0196 81.3657 31.2595L81.3881 31.2995L81.3657 31.3394C81.097 31.6593 80.8284 31.9791 80.5821 32.319C80.403 32.5388 80.2463 32.7587 80.1119 32.9586L80.0672 33.0386L80.0224 32.9586C79.8657 32.7387 79.709 32.5388 79.5522 32.319C79.2836 31.9591 78.9925 31.6193 78.6791 31.2995L78.6567 31.2595L78.7015 31.2395Z" fill="url(#paint10_linear_3003_764)"/>
<path d="M97 62.3007V58.5508H79V62.3007H79.617V62.1385C79.617 61.5101 79.8085 61.0237 80.1915 60.6588C81.2128 59.7061 83.4468 59.7467 85.2553 59.767C85.5319 59.767 85.8085 59.767 86.0638 59.767V78.8406H89.9787V59.7872C90.2553 59.7872 90.5532 59.7872 90.8511 59.7872C92.7234 59.7872 94.8723 59.767 95.8511 60.6994C96.234 61.0642 96.4043 61.5304 96.4043 62.1385V62.3007H97Z" fill="white"/>
<path d="M75.6163 73.4843L64.5467 59.6263L64.4848 59.5654H58V60.1538H58.1652C59.6315 60.1538 60.3337 60.9857 60.3337 62.6901C60.3337 63.3799 60.375 79.693 60.375 79.693V79.8553H61.7794V62.4669L75.6163 79.7944L75.6783 79.8553H77V59.5654H75.5957V73.4843H75.6163Z" fill="white"/>
<path d="M50.0252 58.5508H42.4701V59.1571H42.638C43.3725 59.1571 44.0021 59.44 44.3379 59.925C44.7576 60.5313 44.7576 61.4407 44.3169 62.5724C44.191 62.8755 44.086 63.2191 43.9601 63.5626C43.8342 63.9466 43.6873 64.371 43.5404 64.7145L38.0839 78.5981L38 78.8406H39.574L42.5121 71.3835H50.8856L53.7817 78.7396L53.8237 78.8406H58L50.0672 58.6922L50.0252 58.5508ZM50.319 69.9285L43.0367 69.9487L46.6884 60.7131L50.319 69.9285Z" fill="white"/>
<path d="M33.0591 69.2854C32.1748 68.7291 31.3111 68.3788 30.2828 67.9873C29.7686 67.7813 28.5347 67.3074 28.1645 67.1838L28.0617 67.1426C27.1362 66.7923 26.2725 66.4214 25.5116 66.03C24.7506 65.6591 24.1337 65.2058 23.6812 64.6907C23.2288 64.1962 23.0231 63.5987 23.0231 62.857C23.0231 61.8474 23.3933 61.2705 24.1954 60.6524C24.9769 60.0343 26.1697 59.7252 27.7121 59.7252C28.8843 59.7252 29.8509 59.9106 30.6941 60.2815C33.3882 61.4765 34.0257 62.4655 34.3959 64.0314L34.437 64.1962L35.054 64.1138L34.2519 59.1071L33.6967 59.1689L33.6555 59.2307C33.635 59.2513 33.3265 59.7046 32.6067 59.581C31.8252 59.4367 31.4756 59.3337 30.7969 59.1071L30.4679 59.0041C29.5424 58.695 28.4936 58.5508 27.383 58.5508C26.0874 58.5508 24.874 58.7774 23.8252 59.2307C22.7558 59.684 21.892 60.3433 21.2545 61.1469C20.617 61.971 20.2879 62.96 20.2879 64.0314C20.2879 65.1234 20.5347 66.0712 21.0488 66.8335C21.5424 67.5959 22.2005 68.2552 23.0231 68.7909C23.5373 69.1205 24.1131 69.4502 24.874 69.8005V69.7799C25.1208 69.9241 25.9229 70.2538 28.5347 71.3251L28.8638 71.4694C28.9871 71.5106 29.09 71.5724 29.2134 71.6136C29.5424 71.7578 29.8509 71.8815 30.1388 72.0257L30.2211 72.0669C30.3239 72.1081 30.4267 72.1699 30.5296 72.2111C31.2905 72.582 31.8869 73.0353 32.3393 73.5092C32.8123 74.0243 33.0591 74.6424 33.0591 75.3841C33.0591 76.4349 32.6478 76.9294 31.8046 77.5681C30.9614 78.2068 29.6658 78.5365 28 78.5365C26.7455 78.5365 25.6761 78.3511 24.7712 77.9596C21.8715 76.744 21.09 75.6313 20.6787 74.0243L20.6375 73.88L20 73.9624L20.8843 79.2988L21.3985 79.1958L21.4396 79.1546C21.4602 79.134 21.8715 78.7219 22.7147 78.7631C23.3522 78.8043 23.7224 78.928 24.2365 79.1134C24.4627 79.1958 24.6889 79.2782 24.9974 79.3812C26.0051 79.6903 27.1157 79.8551 28.329 79.8551C29.7275 79.8551 31.0231 79.6285 32.1748 79.1546C33.3265 78.6807 34.2725 78.0214 34.9512 77.1766C35.6504 76.3319 36 75.3223 36 74.2097C36 73.0765 35.7326 72.1081 35.1774 71.3251C34.6427 70.5216 33.9434 69.8417 33.0591 69.2854Z" fill="white"/>
<path d="M138.839 79.1702C138.637 79.1702 138.435 79.1299 138.233 79.0292C138.032 78.9284 137.83 78.8075 137.628 78.6262C137.427 78.465 137.245 78.2635 137.063 78.062C136.882 77.8606 136.72 77.6591 136.579 77.4777C136.014 76.6718 132.282 71.6144 132.282 71.6144C132.282 71.6144 133.573 71.0906 134.098 70.8488C134.744 70.5465 135.288 70.1839 135.692 69.7003C136.095 69.1966 136.398 68.6122 136.579 67.9675C136.761 67.3227 136.841 66.5974 136.841 65.7914C136.841 64.8041 136.7 63.9176 136.398 63.1519C136.095 62.3661 135.611 61.7214 134.945 61.1773C134.28 60.6535 133.392 60.2505 132.303 59.9684C131.233 59.7065 129.882 59.5654 128.329 59.5654H118V60.19H118.161C118.847 60.19 119.372 60.3714 119.715 60.7341C120.32 61.3587 120.3 62.3661 120.3 62.9101V79.7545H123.89V71.7958L127.36 71.8159C128.389 71.8562 128.752 72.5816 129.418 73.5286C129.519 73.6696 129.64 73.8308 129.741 73.992C130.669 75.2815 131.637 76.5912 132.605 77.8807C132.968 78.4046 133.452 78.8478 134.017 79.2508C134.582 79.6538 135.329 79.8553 136.216 79.8553H139V79.2105H138.839V79.1702ZM123.931 60.855H128.349C130.124 60.855 131.415 61.2378 132.141 62.0034C132.888 62.7691 133.251 64.1795 133.251 65.7914C133.251 67.4235 132.867 68.4108 132.141 69.1563C131.314 69.9824 129.983 70.4458 128.349 70.4458H123.931V60.855Z" fill="white"/>
<path d="M109.025 58.5508H101.47V59.1571H101.638C102.373 59.1571 103.002 59.44 103.338 59.925C103.758 60.5313 103.758 61.4407 103.317 62.5724C103.191 62.8755 103.086 63.2191 102.96 63.5626C102.834 63.9466 102.687 64.371 102.54 64.7145L97.0839 78.5981L97 78.8406H98.574L101.512 71.3835H109.886L112.782 78.7396L112.824 78.8406H117L109.067 58.6922L109.025 58.5508ZM109.34 69.9285L102.058 69.9487L105.709 60.7131L109.34 69.9285Z" fill="white"/>
<defs>
<linearGradient id="paint0_linear_3003_764" x1="76.3692" y1="21.5244" x2="82.6329" y2="48.8272" gradientUnits="userSpaceOnUse">
<stop stop-color="#FFDD94"/>
<stop offset="0.2264" stop-color="#FFDD94"/>
<stop offset="0.2849" stop-color="#EFC981"/>
<stop offset="0.4811" stop-color="#BD914D"/>
<stop offset="0.5746" stop-color="#A97C3B"/>
<stop offset="0.6429" stop-color="#AF8240"/>
<stop offset="0.7455" stop-color="#C09450"/>
<stop offset="0.8696" stop-color="#DCB36C"/>
<stop offset="1" stop-color="#FFDD94"/>
</linearGradient>
<linearGradient id="paint1_linear_3003_764" x1="73.9089" y1="23.7144" x2="78.8497" y2="48.1766" gradientUnits="userSpaceOnUse">
<stop stop-color="#FFDD94"/>
<stop offset="0.2264" stop-color="#FFDD94"/>
<stop offset="0.2849" stop-color="#EFC981"/>
<stop offset="0.4811" stop-color="#BD914D"/>
<stop offset="0.5746" stop-color="#A97C3B"/>
<stop offset="0.6429" stop-color="#AF8240"/>
<stop offset="0.7455" stop-color="#C09450"/>
<stop offset="0.8696" stop-color="#DCB36C"/>
<stop offset="1" stop-color="#FFDD94"/>
</linearGradient>
<linearGradient id="paint2_linear_3003_764" x1="78.4893" y1="22.5179" x2="83.4964" y2="47.2383" gradientUnits="userSpaceOnUse">
<stop stop-color="#FFDD94"/>
<stop offset="0.2264" stop-color="#FFDD94"/>
<stop offset="0.2849" stop-color="#EFC981"/>
<stop offset="0.4811" stop-color="#BD914D"/>
<stop offset="0.5746" stop-color="#A97C3B"/>
<stop offset="0.6429" stop-color="#AF8240"/>
<stop offset="0.7455" stop-color="#C09450"/>
<stop offset="0.8696" stop-color="#DCB36C"/>
<stop offset="1" stop-color="#FFDD94"/>
</linearGradient>
<linearGradient id="paint3_linear_3003_764" x1="63.8916" y1="25.1887" x2="70.3499" y2="50.8414" gradientUnits="userSpaceOnUse">
<stop stop-color="#FFDD94"/>
<stop offset="0.2264" stop-color="#FFDD94"/>
<stop offset="0.2849" stop-color="#EFC981"/>
<stop offset="0.4811" stop-color="#BD914D"/>
<stop offset="0.5746" stop-color="#A97C3B"/>
<stop offset="0.6429" stop-color="#AF8240"/>
<stop offset="0.7455" stop-color="#C09450"/>
<stop offset="0.8696" stop-color="#DCB36C"/>
<stop offset="1" stop-color="#FFDD94"/>
</linearGradient>
<linearGradient id="paint4_linear_3003_764" x1="75.0256" y1="21.894" x2="81.1242" y2="48.7106" gradientUnits="userSpaceOnUse">
<stop stop-color="#FFDD94"/>
<stop offset="0.2264" stop-color="#FFDD94"/>
<stop offset="0.2849" stop-color="#EFC981"/>
<stop offset="0.4811" stop-color="#BD914D"/>
<stop offset="0.5746" stop-color="#A97C3B"/>
<stop offset="0.6429" stop-color="#AF8240"/>
<stop offset="0.7455" stop-color="#C09450"/>
<stop offset="0.8696" stop-color="#DCB36C"/>
<stop offset="1" stop-color="#FFDD94"/>
</linearGradient>
<linearGradient id="paint5_linear_3003_764" x1="64.9465" y1="23.8146" x2="71.4629" y2="51.0722" gradientUnits="userSpaceOnUse">
<stop stop-color="#FFDD94"/>
<stop offset="0.2264" stop-color="#FFDD94"/>
<stop offset="0.2849" stop-color="#EFC981"/>
<stop offset="0.4811" stop-color="#BD914D"/>
<stop offset="0.5746" stop-color="#A97C3B"/>
<stop offset="0.6429" stop-color="#AF8240"/>
<stop offset="0.7455" stop-color="#C09450"/>
<stop offset="0.8696" stop-color="#DCB36C"/>
<stop offset="1" stop-color="#FFDD94"/>
</linearGradient>
<linearGradient id="paint6_linear_3003_764" x1="85.9446" y1="18.9142" x2="92.5086" y2="46.1476" gradientUnits="userSpaceOnUse">
<stop stop-color="#FFDD94"/>
<stop offset="0.2264" stop-color="#FFDD94"/>
<stop offset="0.2849" stop-color="#EFC981"/>
<stop offset="0.4811" stop-color="#BD914D"/>
<stop offset="0.5746" stop-color="#A97C3B"/>
<stop offset="0.6429" stop-color="#AF8240"/>
<stop offset="0.7455" stop-color="#C09450"/>
<stop offset="0.8696" stop-color="#DCB36C"/>
<stop offset="1" stop-color="#FFDD94"/>
</linearGradient>
<linearGradient id="paint7_linear_3003_764" x1="88.7584" y1="19.7633" x2="95.2167" y2="45.416" gradientUnits="userSpaceOnUse">
<stop stop-color="#FFDD94"/>
<stop offset="0.2264" stop-color="#FFDD94"/>
<stop offset="0.2849" stop-color="#EFC981"/>
<stop offset="0.4812" stop-color="#BD914D"/>
<stop offset="0.5747" stop-color="#A97C3B"/>
<stop offset="0.643" stop-color="#AF8240"/>
<stop offset="0.7455" stop-color="#C09450"/>
<stop offset="0.8697" stop-color="#DCB36C"/>
<stop offset="1" stop-color="#FFDD94"/>
</linearGradient>
<linearGradient id="paint8_linear_3003_764" x1="78.5266" y1="21.2467" x2="84.6721" y2="48.5794" gradientUnits="userSpaceOnUse">
<stop stop-color="#FFDD94"/>
<stop offset="0.2264" stop-color="#FFDD94"/>
<stop offset="0.2849" stop-color="#EFC981"/>
<stop offset="0.4811" stop-color="#BD914D"/>
<stop offset="0.5746" stop-color="#A97C3B"/>
<stop offset="0.6429" stop-color="#AF8240"/>
<stop offset="0.7455" stop-color="#C09450"/>
<stop offset="0.8696" stop-color="#DCB36C"/>
<stop offset="1" stop-color="#FFDD94"/>
</linearGradient>
<linearGradient id="paint9_linear_3003_764" x1="68.0789" y1="27.2732" x2="72.4697" y2="50.5424" gradientUnits="userSpaceOnUse">
<stop stop-color="#FFDD94"/>
<stop offset="0.2264" stop-color="#FFDD94"/>
<stop offset="0.2849" stop-color="#EFC981"/>
<stop offset="0.4811" stop-color="#BD914D"/>
<stop offset="0.5746" stop-color="#A97C3B"/>
<stop offset="0.6429" stop-color="#AF8240"/>
<stop offset="0.7455" stop-color="#C09450"/>
<stop offset="0.8696" stop-color="#DCB36C"/>
<stop offset="1" stop-color="#FFDD94"/>
</linearGradient>
<linearGradient id="paint10_linear_3003_764" x1="77.3677" y1="20.9513" x2="82.6334" y2="46.7522" gradientUnits="userSpaceOnUse">
<stop stop-color="#FFDD94"/>
<stop offset="0.2264" stop-color="#FFDD94"/>
<stop offset="0.2849" stop-color="#EFC981"/>
<stop offset="0.4811" stop-color="#BD914D"/>
<stop offset="0.5746" stop-color="#A97C3B"/>
<stop offset="0.6429" stop-color="#AF8240"/>
<stop offset="0.7455" stop-color="#C09450"/>
<stop offset="0.8696" stop-color="#DCB36C"/>
<stop offset="1" stop-color="#FFDD94"/>
</linearGradient>
</defs>
</svg>
