<svg width="24" height="24" viewBox="0 0 24 24" fill="none" xmlns="http://www.w3.org/2000/svg">
<circle cx="12" cy="12" r="11.5" stroke="white"/>
<path d="M5.6 16V15.208C5.784 15.2 5.936 15.176 6.056 15.136C6.184 15.096 6.28 15.004 6.344 14.86C6.416 14.716 6.452 14.484 6.452 14.164V9.568C6.452 9.352 6.456 9.144 6.464 8.944C6.48 8.744 6.492 8.592 6.5 8.488C6.372 8.496 6.212 8.504 6.02 8.512C5.828 8.512 5.688 8.516 5.6 8.524V7.6H11.6L11.672 9.928H10.88C10.88 9.488 10.804 9.156 10.652 8.932C10.5 8.708 10.312 8.56 10.088 8.488C9.864 8.408 9.644 8.372 9.428 8.38L8.996 8.392C8.828 8.392 8.684 8.416 8.564 8.464C8.444 8.504 8.352 8.6 8.288 8.752C8.224 8.896 8.192 9.124 8.192 9.436V11.524H9.428L9.38 10.492H10.304V13.408H9.512C9.512 13.072 9.46 12.828 9.356 12.676C9.252 12.524 9.108 12.432 8.924 12.4C8.748 12.36 8.552 12.344 8.336 12.352H8.192V14.032C8.192 14.248 8.188 14.456 8.18 14.656C8.172 14.856 8.16 15.008 8.144 15.112C8.232 15.104 8.348 15.1 8.492 15.1C8.636 15.092 8.776 15.088 8.912 15.088C9.056 15.08 9.156 15.076 9.212 15.076V16H5.6ZM12.9396 9.22C12.9396 9.076 12.9396 8.912 12.9396 8.728C12.9476 8.536 12.9596 8.352 12.9756 8.176C12.8476 8.184 12.6956 8.192 12.5196 8.2C12.3516 8.2 12.2236 8.204 12.1356 8.212V7.3C12.5116 7.3 12.8236 7.28 13.0716 7.24C13.3276 7.2 13.5276 7.152 13.6716 7.096C13.8236 7.04 13.9276 6.988 13.9836 6.94H14.6316V10.456C14.9036 10.216 15.1796 10.048 15.4596 9.952C15.7396 9.856 16.0036 9.808 16.2516 9.808C16.7316 9.808 17.1516 9.932 17.5116 10.18C17.8796 10.428 18.1636 10.78 18.3636 11.236C18.5716 11.692 18.6756 12.228 18.6756 12.844C18.6756 13.484 18.5556 14.06 18.3156 14.572C18.0836 15.076 17.7516 15.472 17.3196 15.76C16.8876 16.048 16.3676 16.192 15.7596 16.192C15.5436 16.192 15.2676 16.144 14.9316 16.048C14.6036 15.96 14.2996 15.768 14.0196 15.472L13.6596 16H12.9396V9.22ZM14.6316 14.2C14.6316 14.472 14.6756 14.688 14.7636 14.848C14.8516 15.008 14.9636 15.124 15.0996 15.196C15.2356 15.268 15.3716 15.308 15.5076 15.316C15.8676 15.324 16.1476 15.22 16.3476 15.004C16.5556 14.788 16.6996 14.504 16.7796 14.152C16.8676 13.792 16.9116 13.416 16.9116 13.024C16.9116 12.656 16.8676 12.308 16.7796 11.98C16.6916 11.652 16.5516 11.388 16.3596 11.188C16.1676 10.98 15.9156 10.88 15.6036 10.888C15.4036 10.896 15.2196 10.948 15.0516 11.044C14.8836 11.132 14.7436 11.252 14.6316 11.404V14.2Z" fill="white"/>
</svg>
