<svg width="24" height="24" viewBox="0 0 24 24" fill="none" xmlns="http://www.w3.org/2000/svg">
<circle cx="12" cy="12" r="11.5" stroke="white"/>
<path d="M10.044 8.392C9.868 8.4 9.716 8.424 9.588 8.464C9.46 8.504 9.36 8.596 9.288 8.74C9.224 8.876 9.192 9.108 9.192 9.436V14.032C9.192 14.248 9.188 14.456 9.18 14.656C9.172 14.856 9.16 15.008 9.144 15.112C9.272 15.096 9.432 15.088 9.624 15.088C9.824 15.08 9.964 15.076 10.044 15.076V16H6.6V15.208C6.784 15.2 6.936 15.176 7.056 15.136C7.184 15.096 7.28 15.004 7.344 14.86C7.416 14.716 7.452 14.484 7.452 14.164V9.568C7.452 9.352 7.456 9.144 7.464 8.944C7.48 8.744 7.492 8.592 7.5 8.488C7.372 8.496 7.212 8.504 7.02 8.512C6.828 8.512 6.688 8.516 6.6 8.524V7.6H10.044V8.392ZM13.5134 19.252C12.8254 19.252 12.2814 19.176 11.8814 19.024C11.4814 18.88 11.1974 18.688 11.0294 18.448C10.8614 18.208 10.7774 17.952 10.7774 17.68C10.7774 17.512 10.8134 17.344 10.8854 17.176C10.9574 17.008 11.0734 16.844 11.2334 16.684C11.4014 16.532 11.6294 16.404 11.9174 16.3C11.5894 16.212 11.3574 16.072 11.2214 15.88C11.0934 15.68 11.0294 15.468 11.0294 15.244C11.0294 15.036 11.1134 14.804 11.2814 14.548C11.4494 14.284 11.7534 14.084 12.1934 13.948C11.8574 13.812 11.5814 13.6 11.3654 13.312C11.1494 13.024 11.0334 12.676 11.0174 12.268C11.0014 11.788 11.1214 11.364 11.3774 10.996C11.6334 10.62 11.9694 10.328 12.3854 10.12C12.8014 9.912 13.2374 9.808 13.6934 9.808C13.9014 9.808 14.1414 9.836 14.4134 9.892C14.6854 9.948 14.9214 10.044 15.1214 10.18C15.2094 9.932 15.3214 9.7 15.4574 9.484C15.6014 9.26 15.7734 9.08 15.9734 8.944C16.1734 8.8 16.3974 8.728 16.6454 8.728C16.9174 8.728 17.1214 8.8 17.2574 8.944C17.4014 9.08 17.4734 9.264 17.4734 9.496C17.4734 9.592 17.4494 9.7 17.4014 9.82C17.3614 9.932 17.2854 10.028 17.1734 10.108C17.0694 10.188 16.9214 10.228 16.7294 10.228C16.6094 10.228 16.4894 10.184 16.3694 10.096C16.2494 10 16.1774 9.888 16.1534 9.76C16.0494 9.792 15.9454 9.896 15.8414 10.072C15.7374 10.248 15.6774 10.404 15.6614 10.54C15.8934 10.74 16.0694 10.972 16.1894 11.236C16.3094 11.5 16.3694 11.784 16.3694 12.088C16.3694 12.552 16.2374 12.964 15.9734 13.324C15.7174 13.676 15.3814 13.956 14.9654 14.164C14.5574 14.364 14.1174 14.464 13.6454 14.464C13.5414 14.464 13.4254 14.46 13.2974 14.452C13.1694 14.436 13.0454 14.428 12.9254 14.428C12.7494 14.428 12.6014 14.46 12.4814 14.524C12.3614 14.588 12.3014 14.676 12.3014 14.788C12.3014 14.94 12.4174 15.044 12.6494 15.1C12.8814 15.156 13.2774 15.2 13.8374 15.232C14.4534 15.264 14.9894 15.344 15.4454 15.472C15.9094 15.592 16.2694 15.784 16.5254 16.048C16.7814 16.312 16.9094 16.676 16.9094 17.14C16.9094 17.484 16.8094 17.784 16.6094 18.04C16.4094 18.304 16.1414 18.524 15.8054 18.7C15.4774 18.884 15.1134 19.02 14.7134 19.108C14.3134 19.204 13.9134 19.252 13.5134 19.252ZM13.8614 18.424C14.4294 18.424 14.8574 18.32 15.1454 18.112C15.4414 17.904 15.5894 17.688 15.5894 17.464C15.5894 17.296 15.5254 17.156 15.3974 17.044C15.2694 16.94 15.0774 16.856 14.8214 16.792C14.5734 16.728 14.2534 16.688 13.8614 16.672C13.6854 16.656 13.4814 16.644 13.2494 16.636C13.0174 16.628 12.8134 16.608 12.6374 16.576C12.5174 16.672 12.4254 16.792 12.3614 16.936C12.2974 17.08 12.2614 17.22 12.2534 17.356C12.2374 17.676 12.3734 17.932 12.6614 18.124C12.9574 18.324 13.3574 18.424 13.8614 18.424ZM13.6934 13.66C13.9094 13.66 14.0894 13.592 14.2334 13.456C14.3854 13.32 14.4974 13.148 14.5694 12.94C14.6494 12.732 14.6894 12.52 14.6894 12.304C14.6894 12.024 14.6534 11.756 14.5814 11.5C14.5094 11.236 14.3974 11.024 14.2454 10.864C14.1014 10.696 13.9134 10.612 13.6814 10.612C13.3614 10.612 13.1134 10.756 12.9374 11.044C12.7614 11.332 12.6734 11.66 12.6734 12.028C12.6734 12.308 12.7134 12.576 12.7934 12.832C12.8734 13.08 12.9894 13.28 13.1414 13.432C13.2934 13.584 13.4774 13.66 13.6934 13.66Z" fill="white"/>
</svg>
