<svg width="31" height="28" viewBox="0 0 31 28" fill="none" xmlns="http://www.w3.org/2000/svg">
<path d="M8 -5.00679e-06L10.7 2C9.96667 2.93333 9.2 4.26666 8.4 6C7.6 7.73333 6.96667 9.63333 6.5 11.7C6.03333 13.7667 5.9 15.8333 6.1 17.9C6.56667 17.7 7 17.5667 7.4 17.5C7.8 17.3667 8.2 17.3 8.6 17.3C9.93333 17.3 11.0333 17.7667 11.9 18.7C12.7667 19.6333 13.2 20.8 13.2 22.2C13.2 24.0667 12.6667 25.5 11.6 26.5C10.5333 27.5 9.23333 28 7.7 28C5.43333 28 3.66667 27.1333 2.4 25.4C1.2 23.6 0.6 21.4333 0.6 18.9C0.6 17.1667 0.9 15.1333 1.5 12.8C2.16667 10.4 3.03333 8.03333 4.1 5.7C5.23333 3.36666 6.53333 1.46666 8 -5.00679e-06ZM25.6 -5.00679e-06L28.3 2C27.5667 2.93333 26.8 4.26666 26 6C25.2 7.73333 24.5667 9.63333 24.1 11.7C23.6333 13.7667 23.5 15.8333 23.7 17.9C24.1667 17.7 24.6 17.5667 25 17.5C25.4 17.3667 25.8 17.3 26.2 17.3C27.5333 17.3 28.6333 17.7667 29.5 18.7C30.3667 19.6333 30.8 20.8 30.8 22.2C30.8 24.0667 30.2667 25.5 29.2 26.5C28.1333 27.5 26.8333 28 25.3 28C23.0333 28 21.2667 27.1333 20 25.4C18.8 23.6 18.2 21.4333 18.2 18.9C18.2 17.1667 18.5 15.1333 19.1 12.8C19.7667 10.4 20.6333 8.03333 21.7 5.7C22.8333 3.36666 24.1333 1.46666 25.6 -5.00679e-06Z" fill="white"/>
</svg>
