<svg width="24" height="24" viewBox="0 0 24 24" fill="none" xmlns="http://www.w3.org/2000/svg">
<path d="M19.5 3.375H4.5C4.20163 3.375 3.91548 3.49353 3.7045 3.7045C3.49353 3.91548 3.375 4.20163 3.375 4.5V19.5C3.375 19.7984 3.49353 20.0845 3.7045 20.2955C3.91548 20.5065 4.20163 20.625 4.5 20.625H19.5C19.7984 20.625 20.0845 20.5065 20.2955 20.2955C20.5065 20.0845 20.625 19.7984 20.625 19.5V4.5C20.625 4.20163 20.5065 3.91548 20.2955 3.7045C20.0845 3.49353 19.7984 3.375 19.5 3.375ZM16.875 10.125V19.875H12.375V10.125H16.875ZM11.625 19.875H7.125V10.125H11.625V19.875ZM19.875 19.5C19.875 19.5995 19.8355 19.6948 19.7652 19.7652C19.6948 19.8355 19.5995 19.875 19.5 19.875H17.625V9.75C17.625 9.65054 17.5855 9.55516 17.5152 9.48483C17.4448 9.41451 17.3495 9.375 17.25 9.375H6.75C6.65054 9.375 6.55516 9.41451 6.48483 9.48483C6.41451 9.55516 6.375 9.65054 6.375 9.75V19.875H4.5C4.40054 19.875 4.30516 19.8355 4.23484 19.7652C4.16451 19.6948 4.125 19.5995 4.125 19.5V4.5C4.125 4.40054 4.16451 4.30516 4.23484 4.23484C4.30516 4.16451 4.40054 4.125 4.5 4.125H19.5C19.5995 4.125 19.6948 4.16451 19.7652 4.23484C19.8355 4.30516 19.875 4.40054 19.875 4.5V19.5ZM13.875 6.75C13.875 6.84946 13.8355 6.94484 13.7652 7.01517C13.6948 7.08549 13.5995 7.125 13.5 7.125H10.5C10.4005 7.125 10.3052 7.08549 10.2348 7.01517C10.1645 6.94484 10.125 6.84946 10.125 6.75C10.125 6.65054 10.1645 6.55516 10.2348 6.48483C10.3052 6.41451 10.4005 6.375 10.5 6.375H13.5C13.5995 6.375 13.6948 6.41451 13.7652 6.48483C13.8355 6.55516 13.875 6.65054 13.875 6.75Z" fill="#98A2B3"/>
</svg>
