<svg width="24" height="24" viewBox="0 0 24 24" fill="none" xmlns="http://www.w3.org/2000/svg">
<path d="M18.2501 10.5H19.6401C21.4921 10.5 22.0421 10.765 21.9971 12.084C21.9241 14.267 20.9391 16.804 17.0001 17.5" stroke="#98A2B3" stroke-width="1.5" stroke-linecap="round" stroke-linejoin="round"/>
<path d="M11.309 2.5C10.762 2.839 10 4 10 5.5M7.54001 4C7.54001 4 7.00001 4.5 7.00001 5.5M14.001 4C13.728 4.17 13.5 5 13.5 5.5M5.94601 20.615C2.57201 18.02 2.07501 14.34 2.00101 10.5C1.97001 8.841 2.45101 8.5 4.65901 8.5H15.341C17.549 8.5 18.031 8.841 17.999 10.5C17.925 14.34 17.429 18.02 14.054 20.615C13.094 21.353 12.284 21.5 10.919 21.5H9.08101C7.71701 21.5 6.90701 21.354 5.94601 20.615Z" stroke="#98A2B3" stroke-width="1.5" stroke-linecap="round" stroke-linejoin="round"/>
</svg>
