<svg width="24" height="24" viewBox="0 0 24 24" fill="none" xmlns="http://www.w3.org/2000/svg">
<path d="M12 22C17.5228 22 22 17.5228 22 12C22 6.47715 17.5228 2 12 2C6.47715 2 2 6.47715 2 12C2 17.5228 6.47715 22 12 22Z" stroke="#98A2B3" stroke-width="1.8" stroke-linecap="round" stroke-linejoin="round"/>
<path d="M14 5.738C14 5.738 12.885 6.238 12.102 5.857C11.146 5.391 10.199 3.447 12.092 2M8.009 9H8M16 9H15.991M8 15C8.46574 15.621 9.06966 16.125 9.76393 16.4721C10.4582 16.8193 11.2238 17 12 17C12.7762 17 13.5418 16.8193 14.2361 16.4721C14.9303 16.125 15.5343 15.621 16 15" stroke="#98A2B3" stroke-width="1.8" stroke-linecap="round" stroke-linejoin="round"/>
</svg>
