<svg width="24" height="24" viewBox="0 0 24 24" fill="none" xmlns="http://www.w3.org/2000/svg">
<path d="M18 6.23101L17.9998 6.13001L18.1 13.346V10.846C18.1 10.5046 18.1822 10.1818 18.3464 9.89527C18.4277 9.75349 18.5291 9.62059 18.6505 9.49872C18.7678 9.38103 18.8954 9.28216 19.0314 9.20209C19.054 9.18876 19.0769 9.17596 19.1 9.16367V9.14601V8.84501V7.23101V7.23001C19.1 6.89491 18.9957 6.65249 18.7866 6.44341C18.5775 6.23433 18.3351 6.13001 18 6.13001V6.23101ZM18 6.23101H6C5.71667 6.23101 5.47933 6.32668 5.288 6.51801C5.09667 6.70934 5.00067 6.94701 5 7.23101V9.14601C5.3 9.31401 5.54167 9.54935 5.725 9.85201C5.90833 10.1547 6 10.486 6 10.846V12.446V13.346H6.9H17.1H18V12.446V10.846C18 10.486 18.0917 10.1547 18.275 9.85201C18.4583 9.54935 18.7 9.31401 19 9.14601V7.23101C19 6.94768 18.904 6.71001 18.712 6.51801C18.52 6.32601 18.2827 6.23034 18 6.23101ZM2.635 9.36601C3.05767 9.01935 3.51267 8.84601 4 8.84601L4.538 17.846H4C3.436 17.846 2.96167 17.6537 2.577 17.269C2.19233 16.8843 2 16.41 2 15.846V10.846C2 10.2053 2.21167 9.71201 2.635 9.36601ZM17.9991 5.33101H6.00012H17.9991ZM5.2139 6.44391C5.42291 6.23511 5.66536 6.13063 6 6.13001L5.9 13.346V10.846C5.9 10.505 5.8184 10.1819 5.65398 9.89503C5.57226 9.75247 5.47008 9.61887 5.34729 9.49651C5.23042 9.38004 5.10342 9.28215 4.96823 9.20275C4.94571 9.18952 4.92296 9.17681 4.9 9.16461V9.14601V8.84601V7.23101C4.9 7.23093 4.9 7.23085 4.9 7.23078C4.90005 6.89579 5.00437 6.65344 5.2134 6.44441C5.21356 6.44424 5.21373 6.44407 5.2139 6.44391Z" stroke="#98A2B3" stroke-width="1.8"/>
</svg>
