<svg width="24" height="24" viewBox="0 0 24 24" fill="none" xmlns="http://www.w3.org/2000/svg">
<path d="M12 14.4382C12 14.1582 12 14.0181 12.0545 13.9112C12.1024 13.8171 12.1789 13.7406 12.273 13.6927C12.38 13.6382 12.52 13.6382 12.8 13.6382H17.7C17.98 13.6382 18.12 13.6382 18.227 13.6927C18.3211 13.7406 18.3976 13.8171 18.4455 13.9112C18.5 14.0181 18.5 14.1582 18.5 14.4382V16.8382C18.5 17.1182 18.5 17.2582 18.4455 17.3652C18.3976 17.4593 18.3211 17.5358 18.227 17.5837C18.12 17.6382 17.98 17.6382 17.7 17.6382H12.8C12.52 17.6382 12.38 17.6382 12.273 17.5837C12.1789 17.5358 12.1024 17.4593 12.0545 17.3652C12 17.2582 12 17.1182 12 16.8382V14.4382Z" stroke="#98A2B3" stroke-width="1.5" stroke-linecap="round" stroke-linejoin="round"/>
<path d="M2 7.80008C2 6.11992 2 5.27984 2.32698 4.63811C2.6146 4.07362 3.07354 3.61468 3.63803 3.32706C4.27976 3.00008 5.11984 3.00008 6.8 3.00008H17.2C18.8802 3.00008 19.7202 3.00008 20.362 3.32706C20.9265 3.61468 21.3854 4.07362 21.673 4.63811C22 5.27984 22 6.11992 22 7.80008V16.3382C22 18.0183 22 18.8584 21.673 19.5002C21.3854 20.0646 20.9265 20.5236 20.362 20.8112C19.7202 21.1382 18.8802 21.1382 17.2 21.1382H6.8C5.11984 21.1382 4.27976 21.1382 3.63803 20.8112C3.07354 20.5236 2.6146 20.0646 2.32698 19.5002C2 18.8584 2 18.0183 2 16.3382V7.80008Z" stroke="#98A2B3" stroke-width="1.5" stroke-linecap="round" stroke-linejoin="round"/>
</svg>
