<svg width="16" height="16" viewBox="0 0 16 16" fill="none" xmlns="http://www.w3.org/2000/svg">
<path d="M5.9987 14V9.06667C5.9987 8.6933 5.9987 8.50661 6.07136 8.36401C6.13528 8.23857 6.23727 8.13658 6.36271 8.07266C6.50531 8 6.692 8 7.06537 8H8.93203C9.3054 8 9.49209 8 9.63469 8.07266C9.76014 8.13658 9.86212 8.23857 9.92604 8.36401C9.9987 8.50661 9.9987 8.6933 9.9987 9.06667V14M1.33203 6.33333L7.3587 1.81333C7.58821 1.6412 7.70296 1.55514 7.82899 1.52196C7.94024 1.49268 8.05717 1.49268 8.16841 1.52196C8.29444 1.55514 8.4092 1.6412 8.6387 1.81333L14.6654 6.33333M2.66537 5.33333V11.8667C2.66537 12.6134 2.66537 12.9868 2.81069 13.272C2.93852 13.5229 3.1425 13.7268 3.39338 13.8547C3.6786 14 4.05196 14 4.7987 14H11.1987C11.9454 14 12.3188 14 12.604 13.8547C12.8549 13.7268 13.0589 13.5229 13.1867 13.272C13.332 12.9868 13.332 12.6134 13.332 11.8667V5.33333L9.2787 2.29333C8.81969 1.94907 8.59018 1.77695 8.33812 1.71059C8.11563 1.65202 7.88177 1.65202 7.65928 1.71059C7.40722 1.77695 7.17771 1.94907 6.7187 2.29333L2.66537 5.33333Z" stroke="#376DF6" stroke-width="1.33333" stroke-linecap="round" stroke-linejoin="round"/>
</svg>
