<svg width="129" height="44" viewBox="0 0 129 44" fill="none" xmlns="http://www.w3.org/2000/svg">
<path d="M12.9938 26.2132H5.049L3.7125 30H0.42075L7.1775 10.8435H10.4693L17.721 30H14.4293L12.9938 26.2132ZM11.8058 23.0947L8.88525 15.447L6.16275 23.0947H11.8058ZM17.2223 14.358V10.8435H31.0823V14.358H25.7858V30H22.5188V14.358H17.2223ZM33.6426 30V10.8435H36.9096V26.4607H44.0128V30H33.6426ZM57.5631 26.2132H49.6183L48.2818 30H44.9901L51.7468 10.8435H55.0386L62.2903 30H58.9986L57.5631 26.2132ZM56.3751 23.0947L53.4546 15.447L50.7321 23.0947H56.3751ZM70.8395 14.061C69.833 14.061 69.008 14.2672 68.3645 14.6797C67.7375 15.0757 67.424 15.5872 67.424 16.2142C67.424 16.7587 67.6633 17.196 68.1418 17.526C68.6368 17.856 69.2473 18.153 69.9733 18.417C70.7158 18.681 71.516 18.9532 72.374 19.2337C73.232 19.4977 74.024 19.8442 74.75 20.2732C75.4925 20.6857 76.103 21.2137 76.5815 21.8572C77.0765 22.5007 77.3158 23.3257 77.2993 24.3322C77.2993 25.2232 77.1343 26.0317 76.8043 26.7577C76.4743 27.4672 76.004 28.0777 75.3935 28.5892C74.783 29.1007 74.057 29.4967 73.2155 29.7772C72.374 30.0578 71.4335 30.198 70.394 30.198C69.14 30.198 67.9355 30.0165 66.7805 29.6535C65.6255 29.2905 64.6355 28.7872 63.8105 28.1437L64.355 24.5302C64.652 24.7942 65.0398 25.05 65.5183 25.2975C66.0133 25.545 66.5413 25.7677 67.1023 25.9657C67.6798 26.1637 68.2655 26.3287 68.8595 26.4607C69.47 26.5762 70.031 26.634 70.5425 26.634C71.5655 26.634 72.3823 26.4442 72.9928 26.0647C73.6198 25.6852 73.9333 25.1902 73.9333 24.5797C73.9333 24.0682 73.6858 23.664 73.1908 23.367C72.7123 23.0535 72.1018 22.773 71.3593 22.5255C70.6333 22.2615 69.8413 21.9975 68.9833 21.7335C68.1418 21.4695 67.3498 21.123 66.6073 20.694C65.8813 20.265 65.2708 19.7287 64.7758 19.0852C64.2973 18.4252 64.058 17.5755 64.058 16.536C64.058 15.645 64.223 14.8365 64.553 14.1105C64.8995 13.368 65.3698 12.741 65.9638 12.2295C66.5743 11.7015 67.3003 11.2972 68.1418 11.0167C68.9998 10.7197 69.9403 10.5712 70.9633 10.5712C72.1018 10.5712 73.1825 10.728 74.2055 11.0415C75.2285 11.3385 76.1113 11.7757 76.8538 12.3532L76.2845 15.9667C76.004 15.7192 75.6493 15.4882 75.2203 15.2737C74.7913 15.0427 74.3293 14.8365 73.8343 14.655C73.3393 14.4735 72.8278 14.3332 72.2998 14.2342C71.7883 14.1187 71.3015 14.061 70.8395 14.061Z" fill="black"/>
<rect x="85.1875" y="0.6875" width="42.625" height="42.625" rx="10.3125" fill="black"/>
<rect x="85.1875" y="0.6875" width="42.625" height="42.625" rx="10.3125" stroke="black" stroke-width="1.375"/>
<path d="M110.64 28.5271V23.8747L105.953 15.3369H108.85L112.003 21.0458L115.139 15.3369H118.036L113.349 23.8747V28.5271H110.64Z" fill="white"/>
<path d="M104.879 23.3294C104.879 25.1017 104.453 26.4366 103.601 27.3342C102.76 28.2203 101.533 28.6634 99.92 28.6634C98.2954 28.6634 97.0627 28.2203 96.222 27.3342C95.3813 26.4366 94.9609 25.1017 94.9609 23.3294V15.3369H97.6705V23.3294C97.6705 24.1815 97.8637 24.8006 98.25 25.1869C98.6476 25.5732 99.2043 25.7663 99.92 25.7663C100.624 25.7663 101.175 25.5732 101.573 25.1869C101.971 24.8006 102.17 24.1815 102.17 23.3294V15.3369H104.879V23.3294Z" fill="white"/>
</svg>
