<svg width="20" height="20" viewBox="0 0 20 20" fill="none" xmlns="http://www.w3.org/2000/svg">
<path d="M17.918 17.9162H1.66797L6.2513 12.4995H13.3346L17.918 17.9162Z" stroke="#2963F5" stroke-width="1.25" stroke-linecap="round" stroke-linejoin="round"/>
<path d="M7.5 7.08301V14.583" stroke="#2963F5" stroke-width="1.25" stroke-linecap="round" stroke-linejoin="round"/>
<path d="M9.9997 9.22399V4.89294C9.98953 4.47701 9.7217 4.0803 9.25402 3.78844C8.78634 3.49659 8.15633 3.33301 7.5 3.33301C6.84367 3.33301 6.21366 3.49659 5.74598 3.78844C5.2783 4.0803 5.01047 4.47701 5.0003 4.89294L5.0003 9.22399C4.99516 9.43411 5.05603 9.64277 5.17934 9.83784C5.30266 10.0329 5.48596 10.2105 5.71859 10.3602C5.95122 10.51 6.22852 10.6289 6.53435 10.71C6.84019 10.7912 7.16844 10.833 7.5 10.833C7.83156 10.833 8.15982 10.7912 8.46565 10.71C8.77148 10.6289 9.04878 10.51 9.28141 10.3602C9.51404 10.2105 9.69734 10.0329 9.82066 9.83784C9.94397 9.64277 10.0048 9.43411 9.9997 9.22399Z" stroke="#2963F5" stroke-width="1.25" stroke-linecap="round" stroke-linejoin="round"/>
</svg>
