<svg width="16" height="16" viewBox="0 0 16 16" fill="none" xmlns="http://www.w3.org/2000/svg">
<path d="M7.33203 7.33333H4.13203C3.38529 7.33333 3.01193 7.33333 2.72671 7.47866C2.47583 7.60649 2.27185 7.81046 2.14402 8.06135C1.9987 8.34656 1.9987 8.71993 1.9987 9.46667V14M13.9987 14V4.13333C13.9987 3.3866 13.9987 3.01323 13.8534 2.72801C13.7255 2.47713 13.5216 2.27316 13.2707 2.14532C12.9855 2 12.6121 2 11.8654 2H9.46536C8.71863 2 8.34526 2 8.06004 2.14532C7.80916 2.27316 7.60519 2.47713 7.47736 2.72801C7.33203 3.01323 7.33203 3.3866 7.33203 4.13333V14M14.6654 14H1.33203M9.66536 4.66667H11.6654M9.66536 7.33333H11.6654M9.66536 10H11.6654" stroke="#376DF6" stroke-width="1.33333" stroke-linecap="round" stroke-linejoin="round"/>
</svg>
