<svg width="48" height="49" viewBox="0 0 48 49" fill="none" xmlns="http://www.w3.org/2000/svg">
<path fill-rule="evenodd" clip-rule="evenodd" d="M24 48.7496C37.2548 48.7496 48 37.8366 48 24.3748C48 10.913 37.2548 0 24 0C10.7452 0 0 10.913 0 24.3748C0 37.8366 10.7452 48.7496 24 48.7496Z" fill="#FCC62D"/>
<path fill-rule="evenodd" clip-rule="evenodd" d="M13.5259 29.1856L13.7293 28.399C13.1901 28.2601 12.8134 27.7744 12.8136 27.2183V14.217C12.8136 13.5438 13.36 12.9981 14.034 12.9981H30.3061C30.9801 12.9981 31.5265 13.5438 31.5265 14.217V14.6233H32.3401V14.217C32.3387 13.0956 31.4288 12.1869 30.3061 12.1855H14.034C12.9112 12.1869 12.0013 13.0956 12 14.217V27.2183C11.9999 28.1449 12.6276 28.9541 13.5259 29.1856ZM20.1367 28.0314H20.9503V24.3748H20.1367V28.0314ZM14.4386 14.6246H13.625V13.812H14.4386V14.6246ZM15.2539 14.6246H16.0675V13.812H15.2539V14.6246ZM17.6964 14.6246H16.8828V13.812H17.6964V14.6246ZM35.0203 34.9387L34.3751 35.5831L30.9531 32.1654C31.1748 31.9561 31.3796 31.7297 31.5654 31.4881L35.0203 34.9387ZM22.1719 28.0304C22.1719 25.3377 24.3575 23.1549 27.0535 23.1549C29.7495 23.1549 31.9351 25.3377 31.9351 28.0304C31.9351 30.723 29.7495 32.9058 27.0535 32.9058C24.3586 32.903 22.1748 30.7218 22.1719 28.0304ZM32.5052 29.6556H33.1521V28.843H32.6802C32.8334 27.8596 32.7153 26.853 32.3385 25.9316V21.9361H31.5249V24.5233C31.2833 24.2151 31.0107 23.9325 30.7112 23.6799V20.3109H29.8976V23.1119C29.6372 22.9612 29.3651 22.8314 29.084 22.7239V18.6858H28.2704V22.4773C28.0024 22.4195 27.7305 22.3813 27.4568 22.3631V19.4983H26.6432V22.3631C26.3696 22.3813 26.0977 22.4195 25.8296 22.4773V21.1235H25.016V22.7239C24.7349 22.8314 24.4628 22.9612 24.2024 23.1119V20.7172H23.3888V23.6799C23.0894 23.9325 22.8168 24.2151 22.5752 24.5233V21.5298H21.7616V25.9316C21.3848 26.853 21.2667 27.8596 21.4199 28.843H16.0664V29.6556H21.5948C22.4871 32.6612 25.6499 34.3754 28.6593 33.4843C29.2524 33.3087 29.8127 33.0376 30.3183 32.6817L34.0849 36.4435C34.2437 36.6021 34.5012 36.6021 34.6601 36.4435L35.8805 35.2246C36.0393 35.066 36.0393 34.8088 35.8805 34.6501L32.022 30.7965C32.2247 30.4351 32.3868 30.0525 32.5052 29.6556ZM27.0525 31.2804C25.8913 31.2789 24.8189 30.6596 24.2383 29.6552H29.8668C29.2862 30.6596 28.2137 31.2789 27.0525 31.2804ZM25.0174 25.4983V28.0315H25.831V25.0205C26.0919 24.9151 26.3654 24.8441 26.6446 24.8092V28.0315H27.4582V24.8092C27.7375 24.8441 28.011 24.9151 28.2719 25.0205V28.0315H29.0855V25.4983C30.0891 26.2936 30.5262 27.6069 30.1989 28.8441H23.904C23.5767 27.6069 24.0138 26.2936 25.0174 25.4983ZM27.0524 23.9682C24.8057 23.9682 22.9844 25.7872 22.9844 28.0311C22.9844 30.275 24.8057 32.094 27.0524 32.094C29.2991 32.094 31.1204 30.275 31.1204 28.0311C31.118 25.7882 29.2981 23.9706 27.0524 23.9682ZM14.4414 17.4661V30.4674C14.4428 31.5887 15.3526 32.4975 16.4754 32.4988H21.7638V31.6862H16.4754C15.8014 31.6862 15.255 31.1405 15.255 30.4674V17.4661C15.255 16.7929 15.8014 16.2472 16.4754 16.2472H32.7475C33.4215 16.2472 33.9679 16.7929 33.9679 17.4661V30.4674C33.9678 30.7642 33.8594 31.0508 33.6628 31.2734L34.273 31.811C34.6008 31.44 34.7817 30.9622 34.7815 30.4674V17.4661C34.7801 16.3447 33.8702 15.436 32.7475 15.4346H16.4754C15.3526 15.436 14.4428 16.3447 14.4414 17.4661ZM16.88 17.8738H16.0664V17.0612H16.88V17.8738ZM17.6953 17.8738H18.5089V17.0612H17.6953V17.8738ZM20.1339 17.8738H19.3203V17.0612H20.1339V17.8738ZM16.8828 28.0305H17.6964V25.5928H16.8828V28.0305ZM19.3214 28.0304H18.5078V23.1549H19.3214V28.0304Z" fill="#0A090B"/>
</svg>
