<svg width="205" height="48" viewBox="0 0 205 48" fill="none" xmlns="http://www.w3.org/2000/svg">
<g clip-path="url(#clip0_701_5626)">
<path d="M59.6515 23.2769L57.4242 16.6671L55.1969 23.2982H59.6515V23.2769ZM70.0309 31.1167H62.2832L61.4773 28.6965H53.3735L52.5679 31.0955H44.8202L53.1381 10.5564H61.7156L70.0309 31.1167Z" fill="white"/>
<path d="M77.1868 31.1167H71.0964V16.2348H77.1868V17.8759C77.7088 17.3128 78.4424 16.8405 79.3901 16.4296C80.3378 16.0186 81.2855 15.8025 82.1851 15.8025V21.094C81.8531 20.9846 81.3792 20.9419 80.8118 20.9419C79.034 20.9419 77.8267 21.2888 77.1868 21.9773V31.1167Z" fill="white"/>
<path d="M91.1426 31.4822C89.3168 31.4822 87.9193 31.0927 86.9716 30.2947C86.0239 29.497 85.526 28.3307 85.526 26.7965V21.0299H82.8248V16.2347H85.526V12.1733H91.6166V16.2347H94.9336V21.0299H91.6166V25.198C91.6166 25.5875 91.7342 25.9105 91.9966 26.1907C92.2324 26.4495 92.5643 26.6017 92.9685 26.6017C93.5843 26.6017 93.9857 26.5135 94.1758 26.3215L95.2655 30.511C94.4597 31.138 93.0864 31.4822 91.1426 31.4822Z" fill="white"/>
<path d="M104.625 21.353H96.5217V25.9535H104.625V21.353Z" fill="white"/>
<path d="M139.364 31.4823C136.732 31.4823 134.553 30.7698 132.8 29.3235C131.07 27.8773 130.195 25.9985 130.195 23.6637C130.195 21.3528 131.07 19.4742 132.8 18.0252C134.529 16.5789 136.711 15.8665 139.364 15.8665C141.045 15.8665 142.491 16.1467 143.701 16.7097C144.887 17.2727 145.763 17.9185 146.309 18.6763L142.4 22.0252C141.784 21.182 140.882 20.7711 139.651 20.7711C138.751 20.7711 137.993 21.0299 137.375 21.5262C136.759 22.0226 136.451 22.735 136.451 23.6637C136.451 24.5923 136.759 25.3048 137.375 25.8225C137.991 26.34 138.748 26.599 139.651 26.599C140.812 26.599 141.736 26.1668 142.4 25.302L146.309 28.6938C145.763 29.4275 144.911 30.076 143.701 30.6578C142.491 31.202 141.045 31.4823 139.364 31.4823Z" fill="white"/>
<path d="M155.146 31.4822C153.32 31.4822 151.923 31.0927 150.975 30.2947C150.028 29.497 149.529 28.3307 149.529 26.7965V21.0299H146.828V16.2347H149.529V12.1733H155.62V16.2347H158.937V21.0299H155.62V25.198C155.62 25.5875 155.738 25.9105 156 26.1907C156.236 26.4495 156.568 26.6017 156.972 26.6017C157.588 26.6017 157.989 26.5135 158.179 26.3215L159.269 30.511C158.463 31.138 157.087 31.4822 155.146 31.4822Z" fill="white"/>
<path d="M167.276 31.1167H161.185V16.2349H167.276V31.1167ZM166.66 14.2469C165.996 14.8527 165.19 15.1542 164.243 15.1542C163.295 15.1542 162.489 14.8527 161.825 14.2469C161.161 13.6412 160.829 12.9074 160.829 12.0428C160.829 11.1782 161.161 10.4444 161.825 9.83867C162.489 9.23292 163.295 8.9314 164.243 8.9314C165.19 8.9314 165.996 9.23292 166.66 9.83867C167.324 10.4444 167.656 11.1782 167.656 12.0428C167.656 12.91 167.324 13.6439 166.66 14.2469Z" fill="white"/>
<path d="M181.232 31.1167H174.788L168.462 16.2349H174.882L177.987 24.7445L181.138 16.2349H187.561L181.232 31.1167Z" fill="white"/>
<path d="M199.217 21.8705C198.909 20.683 198.01 20.0773 196.516 20.0773C195.094 20.0773 194.216 20.683 193.839 21.8705H199.217ZM196.706 31.4823C194.098 31.4823 191.919 30.7698 190.19 29.366C188.46 27.9625 187.606 26.0385 187.606 23.6637C187.606 21.4595 188.436 19.6236 190.117 18.1133C191.775 16.6216 193.908 15.8665 196.516 15.8665C198.981 15.8665 200.994 16.6216 202.606 18.1346C204.194 19.6477 204.999 21.6757 204.999 24.2481V25.3928H193.911C194.101 25.9105 194.478 26.3428 195.097 26.711C195.713 27.0793 196.47 27.274 197.418 27.274C197.94 27.274 198.604 27.1648 199.386 26.9725C200.191 26.7778 200.783 26.519 201.163 26.2388L203.674 29.6518C202.917 30.2575 201.873 30.711 200.593 31.0125C199.313 31.3115 198.01 31.4823 196.706 31.4823Z" fill="white"/>
<path d="M119.861 23.277L117.633 16.6673L115.406 23.2984H119.861V23.277ZM130.24 31.117H122.492L121.686 28.718H113.583L112.777 31.117H105.029L113.347 10.5779H121.925L130.24 31.117Z" fill="white"/>
<path d="M48.5872 43.0553L48.0412 41.457L47.495 43.0553H48.5872ZM51.0744 44.9365H49.203L49.0131 44.3523H47.0694L46.8792 44.9365H45.0081L46.9999 39.9893H49.0612L51.0744 44.9365Z" fill="white"/>
<path d="M57.4481 43.8344C57.6624 43.8344 57.8283 43.7704 57.9701 43.6397C58.1119 43.5089 58.1842 43.3382 58.1842 43.1219C58.1842 42.9057 58.1119 42.7324 57.9701 42.6257C57.8283 42.4949 57.6624 42.4307 57.4481 42.4307C57.3544 42.4307 57.234 42.4522 57.1161 42.4949C56.9983 42.5374 56.9021 42.6042 56.8565 42.6682V43.5757C56.9288 43.6397 56.9983 43.7064 57.1161 43.7489C57.2579 43.8129 57.3544 43.8344 57.4481 43.8344ZM57.9701 45.0219C57.5203 45.0219 57.1642 44.8697 56.8565 44.5469V46.2974H55.3867V41.3502H56.8565V41.7184C57.1403 41.4167 57.5203 41.2434 57.9701 41.2434C58.468 41.2434 58.8936 41.4167 59.2016 41.7397C59.5336 42.0624 59.6754 42.5374 59.6754 43.1219C59.6754 43.7277 59.5094 44.1812 59.2016 44.5042C58.8697 44.8484 58.468 45.0219 57.9701 45.0219Z" fill="white"/>
<path d="M66.8078 42.7111C66.7356 42.4309 66.524 42.2789 66.1679 42.2789C65.836 42.2789 65.6219 42.4309 65.528 42.7111H66.8078ZM66.216 45.0219C65.5763 45.0219 65.0543 44.8484 64.6526 44.5044C64.2511 44.1601 64.0368 43.7064 64.0368 43.1434C64.0368 42.6256 64.2269 42.1721 64.6286 41.8039C65.0301 41.4356 65.5521 41.2649 66.1679 41.2649C66.7595 41.2649 67.2335 41.4381 67.6377 41.8039C68.0152 42.1721 68.2053 42.6471 68.2053 43.2714V43.5516H65.528C65.5763 43.6824 65.67 43.7891 65.8118 43.8746C65.9538 43.9626 66.1437 44.0054 66.3795 44.0054C66.4973 44.0054 66.6633 43.9839 66.8532 43.9411C67.0433 43.8986 67.1854 43.8319 67.279 43.7679L67.8706 44.5896C67.6805 44.7419 67.445 44.8484 67.137 44.9126C66.8318 44.9791 66.524 45.0219 66.216 45.0219Z" fill="white"/>
<path d="M74.2241 44.9366H72.7568V41.3501H74.2241V42.4736H75.41V41.3501H76.8797V44.9366H75.41V43.6396H74.2241V44.9366Z" fill="white"/>
<path d="M83.6065 42.5163L83.5128 43.0766C83.4647 43.3781 83.371 43.6156 83.2051 43.7891H84.4124V42.5136H83.6065V42.5163ZM81.4996 45.8439V43.8131C81.6655 43.8131 81.7834 43.7704 81.8798 43.6611C81.9735 43.5756 82.0458 43.3596 82.0939 43.0554L82.3777 41.3501H85.9088V43.7704H86.3344V45.8439H84.8647V44.9366H82.9693V45.8439H81.4996Z" fill="white"/>
<path d="M92.5653 44.1572C92.8489 44.1572 93.039 44.0932 93.1327 43.9624V43.7677C93.039 43.6369 92.8489 43.5729 92.5653 43.5729C92.2331 43.5729 92.0432 43.6797 92.0432 43.8744C92.0672 44.0504 92.2331 44.1572 92.5653 44.1572ZM94.6025 44.9364H93.1327V44.5897C93.0148 44.7204 92.8731 44.8272 92.6348 44.8912C92.4205 44.9792 92.185 45.0004 91.9468 45.0004C91.6149 45.0004 91.3069 44.8912 91.023 44.6989C90.7395 44.5042 90.5974 44.2027 90.5974 43.8344C90.5974 43.5542 90.6697 43.3382 90.8117 43.1432C90.9535 42.9699 91.1195 42.8417 91.3096 42.7749C91.4998 42.7109 91.7111 42.6897 91.9254 42.6897C92.4928 42.6897 92.8731 42.8204 93.1113 43.0792V42.7109C93.1113 42.5802 93.039 42.4734 92.9212 42.3882C92.8036 42.3027 92.6134 42.2574 92.3752 42.2574C91.9949 42.2574 91.6174 42.3667 91.2854 42.6042L90.7876 41.7824C91.2854 41.4142 91.9012 41.2434 92.6348 41.2434C92.8945 41.2434 93.1327 41.2647 93.347 41.3074C93.5611 41.3502 93.7726 41.4382 93.9625 41.5449C94.1527 41.6517 94.2947 41.8037 94.4123 42.0199C94.506 42.2147 94.5783 42.4734 94.5783 42.7537V44.9364H94.6025Z" fill="white"/>
<path d="M107.302 44.1572C107.586 44.1572 107.776 44.0932 107.87 43.9624V43.7677C107.776 43.6369 107.586 43.5729 107.302 43.5729C106.97 43.5729 106.78 43.6797 106.78 43.8744C106.807 44.0504 106.973 44.1572 107.302 44.1572ZM109.342 44.9364H107.872V44.5897C107.755 44.7204 107.613 44.8272 107.374 44.8912C107.16 44.9792 106.925 45.0004 106.686 45.0004C106.354 45.0004 106.047 44.8912 105.763 44.6989C105.479 44.5069 105.337 44.2027 105.337 43.8344C105.337 43.5542 105.409 43.3382 105.551 43.1432C105.693 42.9699 105.859 42.8417 106.049 42.7749C106.239 42.7109 106.451 42.6897 106.665 42.6897C107.233 42.6897 107.613 42.8204 107.851 43.0792V42.7109C107.851 42.5802 107.779 42.4734 107.661 42.3882C107.543 42.3027 107.353 42.2574 107.115 42.2574C106.735 42.2574 106.357 42.3667 106.025 42.6042L105.527 41.7824C106.025 41.4142 106.641 41.2434 107.374 41.2434C107.634 41.2434 107.872 41.2647 108.087 41.3074C108.301 41.3502 108.512 41.4382 108.702 41.5449C108.892 41.6542 109.034 41.8037 109.152 42.0199C109.246 42.2147 109.318 42.4734 109.318 42.7537V44.9364H109.342Z" fill="white"/>
<path d="M116.45 44.9366H114.981V42.5161H113.939V41.3713H117.492V42.5161H116.45V44.9366Z" fill="white"/>
<path d="M124.294 44.9366H122.825V42.5161H121.781V41.3713H125.336V42.5161H124.294V44.9366Z" fill="white"/>
<path d="M131.994 43.8344C132.208 43.8344 132.374 43.7704 132.516 43.6397C132.658 43.5089 132.73 43.3382 132.73 43.1219C132.73 42.9057 132.658 42.7324 132.516 42.6257C132.374 42.4949 132.208 42.4307 131.994 42.4307C131.9 42.4307 131.78 42.4522 131.662 42.4949C131.544 42.5374 131.448 42.6042 131.402 42.6682V43.5757C131.472 43.6397 131.544 43.7064 131.662 43.7489C131.78 43.8129 131.9 43.8344 131.994 43.8344ZM132.492 45.0219C132.042 45.0219 131.686 44.8697 131.378 44.5469V46.2974H129.909V41.3502H131.378V41.7184C131.662 41.4167 132.042 41.2434 132.492 41.2434C132.99 41.2434 133.416 41.4167 133.723 41.7397C134.055 42.0624 134.197 42.5374 134.197 43.1219C134.197 43.7277 134.031 44.1812 133.723 44.5042C133.416 44.8484 132.99 45.0219 132.492 45.0219Z" fill="white"/>
<path d="M140.501 44.1572C140.785 44.1572 140.975 44.0932 141.069 43.9624V43.7677C140.975 43.6369 140.785 43.5729 140.501 43.5729C140.169 43.5729 139.979 43.6797 139.979 43.8744C140.003 44.0504 140.169 44.1572 140.501 44.1572ZM142.563 44.9364H141.093V44.5897C140.975 44.7204 140.833 44.8272 140.595 44.8912C140.381 44.9792 140.145 45.0004 139.907 45.0004C139.575 45.0004 139.267 44.8912 138.983 44.6989C138.7 44.5042 138.558 44.2027 138.558 43.8344C138.558 43.5542 138.63 43.3382 138.772 43.1432C138.914 42.9699 139.08 42.8417 139.27 42.7749C139.46 42.7109 139.672 42.6897 139.886 42.6897C140.453 42.6897 140.834 42.8204 141.072 43.0792V42.7109C141.072 42.5802 140.999 42.4734 140.882 42.3882C140.764 42.3027 140.574 42.2574 140.335 42.2574C139.955 42.2574 139.578 42.3667 139.246 42.6042L138.748 41.7824C139.246 41.4142 139.862 41.2434 140.595 41.2434C140.855 41.2434 141.093 41.2647 141.307 41.3074C141.522 41.3502 141.733 41.4382 141.923 41.5449C142.113 41.6517 142.255 41.8037 142.373 42.0199C142.466 42.2147 142.539 42.4734 142.539 42.7537V44.9364H142.563Z" fill="white"/>
<path d="M151.639 44.9366H149.837L149.173 43.7919L148.889 44.1361V44.9366H147.419V41.3501H148.889V42.6256L149.789 41.3501H151.542L150.193 42.9699L151.639 44.9366Z" fill="white"/>
<path d="M159.103 45.8439V44.9366H156.022V41.3501H157.491V43.7704H158.675V41.3501H160.144V43.7704H160.57V45.8439H159.103Z" fill="white"/>
<path d="M166.542 44.9366H165.145V41.3501H166.612V42.9486L167.798 41.3501H169.268V44.9366H167.798V43.2289L166.542 44.9366Z" fill="white"/>
<path d="M176.067 43.8344C176.281 43.8344 176.469 43.7704 176.589 43.6396C176.707 43.5089 176.779 43.3381 176.779 43.1434C176.779 42.9486 176.707 42.7751 176.589 42.6471C176.471 42.5164 176.281 42.4521 176.067 42.4521C175.853 42.4521 175.687 42.5164 175.545 42.6471C175.427 42.7779 175.355 42.9486 175.355 43.1434C175.355 43.3594 175.427 43.5116 175.545 43.6396C175.687 43.7679 175.853 43.8344 176.067 43.8344ZM177.679 44.4829C177.277 44.8511 176.731 45.0219 176.067 45.0219C175.403 45.0219 174.86 44.8484 174.456 44.4829C174.054 44.1146 173.864 43.6851 173.864 43.1434C173.864 42.6016 174.054 42.1721 174.456 41.8039C174.857 41.4356 175.379 41.2649 176.067 41.2649C176.731 41.2649 177.275 41.4381 177.679 41.8039C178.08 42.1721 178.271 42.6016 178.271 43.1434C178.271 43.6851 178.08 44.1146 177.679 44.4829Z" fill="white"/>
<path d="M184.337 44.9366H182.867V41.3501H184.337V42.4736H185.52V41.3501H186.99V44.9366H185.52V43.6396H184.337V44.9366Z" fill="white"/>
<path d="M193.814 43.8344C194.028 43.8344 194.216 43.7704 194.336 43.6396C194.454 43.5089 194.526 43.3381 194.526 43.1434C194.526 42.9486 194.454 42.7751 194.336 42.6471C194.219 42.5164 194.028 42.4521 193.814 42.4521C193.6 42.4521 193.434 42.5164 193.292 42.6471C193.174 42.7779 193.102 42.9486 193.102 43.1434C193.102 43.3594 193.174 43.5116 193.292 43.6396C193.437 43.7679 193.603 43.8344 193.814 43.8344ZM195.426 44.4829C195.024 44.8511 194.478 45.0219 193.814 45.0219C193.15 45.0219 192.607 44.8484 192.203 44.4829C191.801 44.1146 191.611 43.6851 191.611 43.1434C191.611 42.6016 191.801 42.1721 192.203 41.8039C192.604 41.4356 193.126 41.2649 193.814 41.2649C194.478 41.2649 195.022 41.4381 195.426 41.8039C195.828 42.1721 196.018 42.6016 196.018 43.1434C196.018 43.6851 195.83 44.1146 195.426 44.4829Z" fill="white"/>
<path d="M203.153 43.9414C203.225 43.9414 203.271 43.9199 203.295 43.8986C203.343 43.8771 203.367 43.8346 203.367 43.7891C203.367 43.6799 203.295 43.6156 203.153 43.6156H202.087V43.9414H203.153ZM203.08 42.6471C203.129 42.6471 203.174 42.6256 203.198 42.6043C203.222 42.5831 203.247 42.5403 203.247 42.4948C203.247 42.4523 203.222 42.4308 203.198 42.3856C203.174 42.3641 203.126 42.3428 203.08 42.3428H202.085V42.6444H203.08V42.6471ZM203.554 44.9366H200.639V41.3501H203.458C203.862 41.3501 204.192 41.4356 204.406 41.6303C204.62 41.8251 204.738 42.0413 204.738 42.2573C204.738 42.4523 204.666 42.6256 204.548 42.7751C204.43 42.9274 204.264 43.0126 204.05 43.0766C204.288 43.1194 204.451 43.2074 204.596 43.3781C204.738 43.5304 204.81 43.7251 204.81 43.9414C204.81 44.2214 204.692 44.4376 204.478 44.6324C204.267 44.8271 203.956 44.9366 203.554 44.9366Z" fill="white"/>
<path d="M1.22776 -0.000732422L0.541077 15.682L6.57469 15.9445L7.26136 0.261741L1.22776 -0.000732422Z" fill="#3C80C3"/>
<path d="M7.16411 0.258789L6.47607 15.9412L20.1028 16.5336L20.7908 0.851184L7.16411 0.258789ZM14.2719 9.21942C13.6535 9.21942 13.1529 8.72042 13.1529 8.10402C13.1529 7.4876 13.6535 6.9886 14.2719 6.9886C14.8904 6.9886 15.391 7.4876 15.391 8.10402C15.3883 8.72042 14.8877 9.21942 14.2719 9.21942Z" fill="#166DC4"/>
<path d="M33.1219 15.8875L27.0938 16.2553L28.056 31.9239L34.0842 31.5561L33.1219 15.8875Z" fill="#656CB1"/>
<path d="M27.1919 16.251L13.5759 17.0809L14.537 32.75L28.153 31.92L27.1919 16.251ZM18.3144 22.8794C17.696 22.9008 17.1793 22.4204 17.1579 21.804C17.1365 21.1876 17.6184 20.6726 18.2368 20.6513C18.8526 20.6299 19.3719 21.1102 19.3933 21.7266C19.4147 22.3404 18.9329 22.8581 18.3144 22.8794ZM23.476 28.4325C22.8576 28.4538 22.3409 27.9735 22.3194 27.357C22.298 26.7408 22.7799 26.2255 23.3983 26.2043C24.0141 26.183 24.5334 26.6633 24.5549 27.2798C24.5763 27.8935 24.0944 28.411 23.476 28.4325Z" fill="#545EC9"/>
<path d="M0.683696 31.4644L-0.00299072 47.1471L6.03331 47.4096L6.71998 31.7269L0.683696 31.4644Z" fill="#57A8EA"/>
<path d="M6.62329 31.7249L5.93793 47.4073L19.5646 47.9998L20.2526 32.3174L6.62329 31.7249ZM10.9201 45.1286C10.3044 45.1018 9.82514 44.5816 9.85192 43.9678C9.87869 43.3541 10.4007 42.8764 11.0165 42.9031C11.6322 42.9299 12.1114 43.4501 12.0847 44.0638C12.0579 44.6803 11.5359 45.1553 10.9201 45.1286ZM11.1075 40.8351C10.4918 40.8084 10.0125 40.2881 10.0393 39.6743C10.0661 39.0606 10.5881 38.5828 11.2039 38.6096C11.8196 38.6361 12.2988 39.1566 12.2721 39.7704C12.2453 40.3866 11.7233 40.8616 11.1075 40.8351ZM11.2949 36.5416C10.6792 36.5149 10.2 35.9944 10.2267 35.3806C10.2535 34.7671 10.7755 34.2894 11.3913 34.3161C12.007 34.3426 12.4862 34.8631 12.4595 35.4769C12.4354 36.0931 11.9107 36.5681 11.2949 36.5416ZM16.51 45.3713C15.8943 45.3446 15.415 44.8243 15.4418 44.2106C15.4686 43.5968 15.9906 43.1191 16.6064 43.1458C17.2221 43.1726 17.7013 43.6929 17.6746 44.3066C17.6505 44.9231 17.1284 45.4008 16.51 45.3713ZM16.7001 41.0806C16.0843 41.0538 15.6051 40.5336 15.6319 39.9198C15.6587 39.3061 16.1807 38.8284 16.7965 38.8551C17.4122 38.8816 17.8914 39.4021 17.8646 40.0158C17.8378 40.6296 17.3158 41.1071 16.7001 41.0806ZM16.8875 36.7871C16.2717 36.7604 15.7925 36.2399 15.8193 35.6261C15.846 35.0124 16.3681 34.5349 16.9838 34.5616C17.5996 34.5881 18.0788 35.1086 18.052 35.7224C18.0253 36.3361 17.5032 36.8136 16.8875 36.7871Z" fill="#7DB1E2"/>
</g>
<defs>
<clipPath id="clip0_701_5626">
<rect width="205" height="48" fill="white"/>
</clipPath>
</defs>
</svg>
