<svg id="Слой_1" data-name="Слой 1" xmlns="http://www.w3.org/2000/svg" viewBox="0 0 41 60"><defs><style>.cls-1{fill:#3c81c4;}.cls-2{fill:#545eca;}.cls-3{fill:#fff;}.cls-4{fill:#656cb2;}.cls-5{fill:#7db3e3;}</style></defs><path class="cls-1" d="M21,0h3V20H21Z"/><path class="cls-1" d="M21,0H41V20H21Z"/><path class="cls-1" d="M21,0H41V20H21Z"/><rect class="cls-2" y="20" width="3" height="20"/><path class="cls-3" d="M2,27.92c.12,0,.21-.65.21-1.45S2.08,25,2,25s-.22.65-.22,1.44S1.84,27.92,2,27.92Z"/><path class="cls-3" d="M1,35c.12,0,.22-.65.22-1.44s-.1-1.45-.22-1.45-.21.65-.21,1.45S.92,35,1,35Z"/><path class="cls-4" d="M0,20H20V40H0Z"/><path class="cls-4" d="M1,20H21V40H1Z"/><path class="cls-5" d="M21,40h3V60H21Z"/><path class="cls-5" d="M21,40H41V60H21Z"/><path class="cls-5" d="M21,40H41V60H21Z"/></svg>