<svg width="24" height="24" viewBox="0 0 24 24" fill="none" xmlns="http://www.w3.org/2000/svg">
<path d="M18 9.75H16.5C16.4994 9.15345 16.2622 8.5815 15.8403 8.15967C15.4185 7.73784 14.8466 7.5006 14.25 7.5V6C15.2442 6.00119 16.1973 6.39666 16.9003 7.09966C17.6033 7.80267 17.9988 8.7558 18 9.75Z" fill="white"/>
<path d="M21.0003 9.75001H19.5003C19.4987 8.35811 18.945 7.02367 17.9608 6.03945C16.9766 5.05523 15.6422 4.50159 14.2503 4.50001V3.00001C16.0399 3.00199 17.7556 3.71379 19.021 4.97923C20.2865 6.24467 20.9983 7.9604 21.0003 9.75001ZM15.25 16.1115L16.93 14.4315C17.1549 14.2066 17.4408 14.0526 17.7524 13.9886C18.0639 13.9246 18.3874 13.9534 18.6828 14.0715L20.7288 14.8905C21.0303 15.0112 21.2888 15.2194 21.4709 15.4884C21.653 15.7573 21.7503 16.0747 21.7503 16.3995V20.1203C21.7508 20.3414 21.7062 20.5603 21.6192 20.7636C21.5321 20.9669 21.4045 21.1504 21.2442 21.3026C21.0838 21.4549 20.8941 21.5729 20.6865 21.6493C20.479 21.7257 20.2581 21.7589 20.0373 21.747C5.69576 20.8545 2.79926 8.70751 2.26151 4.05601C2.23546 3.8286 2.25786 3.59826 2.32722 3.38013C2.39658 3.16201 2.51133 2.96104 2.66394 2.79044C2.81654 2.61984 3.00353 2.48349 3.21261 2.39034C3.42169 2.29719 3.64812 2.24937 3.87701 2.25001H7.53176C7.85656 2.25 8.17392 2.3473 8.44288 2.52938C8.71185 2.71146 8.9201 2.96995 9.04076 3.27151L9.85901 5.31751C9.97709 5.61284 10.0059 5.93633 9.94193 6.24788C9.87794 6.55944 9.72394 6.84538 9.49901 7.07026L7.81901 8.75026C7.81901 8.75026 8.75051 15.2993 15.25 16.1115Z" fill="white"/>
</svg>
