<svg width="32" height="32" viewBox="0 0 32 32" fill="none" xmlns="http://www.w3.org/2000/svg">
<path d="M16 0C7.16337 0 0 7.16337 0 16C0 24.8366 7.16337 32 16 32C24.8366 32 32 24.8366 32 16C32 7.16337 24.8366 0 16 0Z" fill="#40B3E0"/>
<path fill-rule="evenodd" clip-rule="evenodd" d="M16 2.5C8.54409 2.5 2.5 8.54409 2.5 16C2.5 23.4559 8.54409 29.5 16 29.5C23.4559 29.5 29.5 23.4559 29.5 16C29.5 8.54409 23.4559 2.5 16 2.5ZM0 16C0 7.16337 7.16337 0 16 0C24.8366 0 32 7.16337 32 16C32 24.8366 24.8366 32 16 32C7.16337 32 0 24.8366 0 16Z" fill="white"/>
<path d="M23.7858 9.20374L20.9279 23.6124C20.9279 23.6124 20.5283 24.6116 19.4292 24.132L12.8344 19.076L10.4364 17.917L6.39967 16.558C6.39967 16.558 5.78017 16.3382 5.72017 15.8586C5.66017 15.379 6.41967 15.1192 6.41967 15.1192L22.4667 8.82424C22.4667 8.82424 23.7857 8.24474 23.7857 9.20399" fill="white"/>
<path d="M12.3268 23.4504C12.3268 23.4504 12.1343 23.4324 11.8943 22.6729C11.6547 21.9135 10.4355 17.9167 10.4355 17.9167L20.1278 11.7617C20.1278 11.7617 20.6874 11.422 20.6674 11.7617C20.6674 11.7617 20.7673 11.8217 20.4674 12.1015C20.1678 12.3814 12.8537 18.956 12.8537 18.956" fill="#D2E5F1"/>
<path d="M15.3625 21.0144L12.7541 23.3926C12.7541 23.3926 12.5501 23.5474 12.3271 23.4504L12.8266 19.0329" fill="#B5CFE4"/>
</svg>
