<svg width="33" height="32" viewBox="0 0 33 32" fill="none" xmlns="http://www.w3.org/2000/svg">
<g clip-path="url(#clip0_701_5708)">
<path d="M31.8333 8.67594C31.6521 8.02958 31.2992 7.4444 30.812 6.98261C30.311 6.50661 29.6971 6.16612 29.028 5.99327C26.524 5.33327 16.492 5.33327 16.492 5.33327C12.3098 5.28569 8.12857 5.49497 3.972 5.95994C3.30292 6.14556 2.69008 6.49365 2.188 6.97327C1.69467 7.44794 1.33733 8.03327 1.15067 8.67461C0.702256 11.0903 0.484388 13.5431 0.499999 15.9999C0.483999 18.4546 0.701332 20.9066 1.15067 23.3253C1.33333 23.9639 1.68933 24.5466 2.184 25.0173C2.67867 25.4879 3.29467 25.8279 3.972 26.0079C6.50933 26.6666 16.492 26.6666 16.492 26.6666C20.6796 26.7143 24.8661 26.505 29.028 26.0399C29.6971 25.8671 30.311 25.5266 30.812 25.0506C31.299 24.5889 31.6516 24.0036 31.832 23.3573C32.2921 20.9425 32.5158 18.4887 32.5 16.0306C32.5346 13.5621 32.3112 11.0967 31.8333 8.67461V8.67594ZM13.3027 20.5653V11.4359L21.6493 16.0013L13.3027 20.5653Z" fill="white"/>
</g>
<defs>
<clipPath id="clip0_701_5708">
<rect width="32" height="32" fill="white" transform="translate(0.5)"/>
</clipPath>
</defs>
</svg>
