<svg width="16" height="16" viewBox="0 0 16 16" fill="none" xmlns="http://www.w3.org/2000/svg">
<g clip-path="url(#clip0_1_29)">
<path d="M10.8537 7.14592C10.9002 7.19236 10.9372 7.24754 10.9624 7.30828C10.9876 7.36903 11.0005 7.43415 11.0005 7.49992C11.0005 7.56568 10.9876 7.63081 10.9624 7.69155C10.9372 7.7523 10.9002 7.80747 10.8537 7.85392L7.85366 10.8539C7.80721 10.9005 7.75203 10.9374 7.69129 10.9626C7.63054 10.9878 7.56542 11.0008 7.49966 11.0008C7.43389 11.0008 7.36877 10.9878 7.30802 10.9626C7.24728 10.9374 7.1921 10.9005 7.14566 10.8539L5.64566 9.35392C5.59917 9.30743 5.56229 9.25224 5.53713 9.1915C5.51197 9.13076 5.49902 9.06566 5.49902 8.99992C5.49902 8.93417 5.51197 8.86907 5.53713 8.80833C5.56229 8.74759 5.59917 8.6924 5.64566 8.64592C5.73954 8.55203 5.86688 8.49929 5.99966 8.49929C6.0654 8.49929 6.1305 8.51223 6.19124 8.53739C6.25198 8.56255 6.30717 8.59943 6.35366 8.64592L7.49966 9.79292L10.1457 7.14592C10.1921 7.09935 10.2473 7.06241 10.308 7.0372C10.3688 7.012 10.4339 6.99902 10.4997 6.99902C10.5654 6.99902 10.6305 7.012 10.6913 7.0372C10.752 7.06241 10.8072 7.09935 10.8537 7.14592Z" fill="#CDCDCD"/>
<path d="M3.5 0C3.63261 0 3.75979 0.0526784 3.85355 0.146447C3.94732 0.240215 4 0.367392 4 0.5V1H12V0.5C12 0.367392 12.0527 0.240215 12.1464 0.146447C12.2402 0.0526784 12.3674 0 12.5 0C12.6326 0 12.7598 0.0526784 12.8536 0.146447C12.9473 0.240215 13 0.367392 13 0.5V1H14C14.5304 1 15.0391 1.21071 15.4142 1.58579C15.7893 1.96086 16 2.46957 16 3V14C16 14.5304 15.7893 15.0391 15.4142 15.4142C15.0391 15.7893 14.5304 16 14 16H2C1.46957 16 0.960859 15.7893 0.585786 15.4142C0.210714 15.0391 0 14.5304 0 14V3C0 2.46957 0.210714 1.96086 0.585786 1.58579C0.960859 1.21071 1.46957 1 2 1H3V0.5C3 0.367392 3.05268 0.240215 3.14645 0.146447C3.24021 0.0526784 3.36739 0 3.5 0V0ZM1 4V14C1 14.2652 1.10536 14.5196 1.29289 14.7071C1.48043 14.8946 1.73478 15 2 15H14C14.2652 15 14.5196 14.8946 14.7071 14.7071C14.8946 14.5196 15 14.2652 15 14V4H1Z" fill="#CDCDCD"/>
</g>
<defs>
<clipPath id="clip0_1_29">
<rect width="16" height="16" fill="white"/>
</clipPath>
</defs>
</svg>
