<svg width="19" height="20" viewBox="0 0 19 20" fill="none" xmlns="http://www.w3.org/2000/svg">
<path fill-rule="evenodd" clip-rule="evenodd" d="M3.2363 1.45623C4.59975 0.788955 6.8366 0 9.28458 0C11.6814 0 13.8594 0.756174 15.2156 1.41456L15.2923 1.45179C15.7012 1.65403 16.0313 1.84515 16.2635 2.00017L14.2111 5.00042C18.9426 9.83749 22.5974 20 9.28458 20C-4.02819 20 -0.471786 10.0219 4.30083 5.00042L2.26177 2.00017C2.41901 1.89738 2.61847 1.77793 2.85627 1.65125C2.97406 1.58791 3.10073 1.5229 3.2363 1.45679V1.45623ZM12.8921 4.96041L14.535 2.55855C13.0071 2.66856 11.1892 3.02747 9.43904 3.53418C8.18894 3.89532 6.79993 3.84032 5.51371 3.60308C5.18959 3.54299 4.8677 3.47146 4.54863 3.38862L5.61539 4.9593C7.90169 5.77326 10.6052 5.77326 12.8921 4.96041ZM4.97367 5.90605C7.64889 6.93947 10.8642 6.93947 13.5394 5.90494C14.6561 7.08209 15.5902 8.4198 16.3107 9.8736C17.0619 11.4059 17.4708 12.9377 17.4041 14.2579C17.3397 15.5318 16.8385 16.6203 15.694 17.4292C14.5011 18.2721 12.4948 18.8888 9.28403 18.8888C6.06987 18.8888 4.05415 18.2826 2.85016 17.4492C1.69728 16.6503 1.19113 15.5769 1.11946 14.3201C1.04445 13.0144 1.44448 11.4904 2.19288 9.94749C2.90683 8.47626 3.90302 7.06003 4.97367 5.90605ZM4.33473 2.17574C4.77921 2.30797 5.24369 2.42298 5.71484 2.51021C6.90938 2.73023 8.10726 2.76245 9.12957 2.46632C10.3209 2.11926 11.5326 1.8463 12.7576 1.64903C11.7353 1.34122 10.5397 1.1112 9.28403 1.1112C7.36998 1.1112 5.58483 1.64514 4.33473 2.17574Z" fill="#7A7A7A"/>
</svg>
