<svg width="19" height="20" viewBox="0 0 19 20" fill="none" xmlns="http://www.w3.org/2000/svg">
<path fill-rule="evenodd" clip-rule="evenodd" d="M3.2363 1.45623C4.59975 0.788955 6.8366 0 9.28458 0C11.6814 0 13.8594 0.756174 15.2156 1.41456L15.2923 1.45179C15.7012 1.65403 16.0313 1.84515 16.2635 2.00017L14.2111 5.00042C18.9426 9.83749 22.5974 20 9.28458 20C-4.02819 20 -0.471786 10.0219 4.30083 5.00042L2.26177 2.00017C2.41901 1.89738 2.61847 1.77793 2.85627 1.65125C2.97406 1.58791 3.10073 1.5229 3.2363 1.45679V1.45623ZM12.8921 4.96041L14.535 2.55855C13.0071 2.66856 11.1892 3.02747 9.43904 3.53418C8.18894 3.89532 6.79993 3.84032 5.51371 3.60308C5.18959 3.54299 4.8677 3.47146 4.54863 3.38862L5.61539 4.9593C7.90169 5.77326 10.6052 5.77326 12.8921 4.96041ZM4.97367 5.90605C7.64889 6.93947 10.8642 6.93947 13.5394 5.90494C14.6561 7.08209 15.5902 8.4198 16.3107 9.8736C17.0619 11.4059 17.4708 12.9377 17.4041 14.2579C17.3397 15.5318 16.8385 16.6203 15.694 17.4292C14.5011 18.2721 12.4948 18.8888 9.28403 18.8888C6.06987 18.8888 4.05415 18.2826 2.85016 17.4492C1.69728 16.6503 1.19113 15.5769 1.11946 14.3201C1.04445 13.0144 1.44448 11.4904 2.19288 9.94749C2.90683 8.47626 3.90302 7.06003 4.97367 5.90605ZM4.33473 2.17574C4.77921 2.30797 5.24369 2.42298 5.71484 2.51021C6.90938 2.73023 8.10726 2.76245 9.12957 2.46632C10.3209 2.11926 11.5326 1.8463 12.7576 1.64903C11.7353 1.34122 10.5397 1.1112 9.28403 1.1112C7.36998 1.1112 5.58483 1.64514 4.33473 2.17574Z" fill="#01AF4F"/>
<path d="M9.32044 13.4551C9.64449 13.4539 10.353 13.4513 10.3448 13.0007C10.3369 12.5398 9.65645 12.5676 9.32482 12.5813C9.28778 12.5827 9.25482 12.5842 9.22798 12.5845L9.24315 13.4557C9.26503 13.4551 9.29128 13.4551 9.32044 13.4551ZM9.28603 12.1855C9.55641 12.1852 10.1465 12.1846 10.1395 11.7748C10.1319 11.3557 9.56515 11.3805 9.28836 11.3927C9.25715 11.3942 9.23003 11.3953 9.20728 11.3956L9.22098 12.1858L9.28603 12.1855Z" fill="#01AF4F"/>
<path fill-rule="evenodd" clip-rule="evenodd" d="M8.6528 15.8952C10.5282 16.3628 12.4276 15.2215 12.8951 13.3466C13.3627 11.4715 12.2211 9.57211 10.3457 9.10486C8.47138 8.63702 6.57202 9.77862 6.10476 11.6541C5.63722 13.5289 6.77852 15.4283 8.65309 15.8955L8.6528 15.8952ZM9.90173 10.931C10.4133 10.9672 10.8205 11.1171 10.8739 11.5849C10.9135 11.9274 10.7735 12.1359 10.5463 12.2566C10.9255 12.3406 11.1661 12.5609 11.1282 13.0649C11.0812 13.6905 10.6184 13.8664 9.95394 13.916L9.96502 14.5722L9.56952 14.5795L9.55814 13.932C9.45577 13.9338 9.35076 13.9349 9.24197 13.9343L9.25364 14.5848L8.85813 14.5918L8.84647 13.9343L8.73476 13.9352C8.67817 13.9355 8.62101 13.9358 8.56384 13.937L8.04875 13.9457L8.11904 13.472C8.11904 13.472 8.41188 13.4715 8.40663 13.4671C8.51863 13.4647 8.54692 13.384 8.55305 13.3332L8.53525 12.2957L8.56355 12.2951H8.57696C8.56302 12.2936 8.54899 12.2929 8.53496 12.2931L8.52213 11.5523C8.5055 11.4723 8.45184 11.3802 8.29171 11.3831C8.29608 11.3773 8.00412 11.3881 8.00412 11.3881L7.99654 10.9657L8.54255 10.9564V10.9584C8.62451 10.957 8.7088 10.954 8.79426 10.9508L8.78317 10.3007L9.17868 10.294L9.18976 10.931C9.29535 10.9272 9.40152 10.9231 9.50564 10.9214L9.49456 10.2885L9.89035 10.2815L9.90173 10.9316V10.931Z" fill="#01AF4F"/>
</svg>
