<svg width="20" height="26" viewBox="0 0 20 26" fill="none" xmlns="http://www.w3.org/2000/svg">
<path d="M10 26C14.473 26 19 24.9695 19 23V14C19 12.0305 14.473 11 10 11C5.527 11 1 12.0305 1 14V23C1 24.9695 5.527 26 10 26ZM10 24.5C5.81275 24.5 3.25 23.5288 3.25 23V22.049C4.98362 22.6775 7.49913 23 10 23C12.5009 23 15.0164 22.6775 16.75 22.049V23C16.75 23.5288 14.1873 24.5 10 24.5ZM10 12.5C14.1873 12.5 16.75 13.4713 16.75 14C16.75 14.5287 14.1873 15.5 10 15.5C5.81275 15.5 3.25 14.5287 3.25 14C3.25 13.4713 5.81275 12.5 10 12.5ZM3.25 16.049C4.98362 16.6775 7.49913 17 10 17C12.5009 17 15.0164 16.6775 16.75 16.049V17C16.75 17.5287 14.1873 18.5 10 18.5C5.81275 18.5 3.25 17.5287 3.25 17V16.049ZM3.25 19.049C4.98362 19.6775 7.49913 20 10 20C12.5009 20 15.0164 19.6775 16.75 19.049V20C16.75 20.5288 14.1873 21.5 10 21.5C5.81275 21.5 3.25 20.5288 3.25 20V19.049Z" fill="#01AF4F"/>
<path d="M7 5.08511L9.33333 7L14 1" stroke="#01AF4F" stroke-width="2" stroke-linecap="round"/>
</svg>
