<svg width="20" height="20" viewBox="0 0 20 20" fill="none" xmlns="http://www.w3.org/2000/svg">
<path d="M7.99415 9.14252C7.54248 9.14252 7.18665 9.53835 7.18665 10.0217C7.18665 10.5033 7.55081 10.9008 7.99415 10.9008C8.44498 10.9008 8.80081 10.5033 8.80081 10.0217C8.80998 9.53752 8.44498 9.14252 7.99415 9.14252ZM10.8841 9.14252C10.4325 9.14252 10.0766 9.53835 10.0766 10.0217C10.0766 10.5033 10.4408 10.9008 10.8841 10.9008C11.335 10.9008 11.6908 10.5033 11.6908 10.0217C11.69 9.53752 11.335 9.14252 10.8841 9.14252Z" fill="#01AF4F"/>
<path d="M14.7317 2.5H4.12251C3.90889 2.50055 3.69747 2.54316 3.50032 2.62542C3.30318 2.70767 3.12416 2.82795 2.9735 2.97938C2.82283 3.13082 2.70347 3.31045 2.62223 3.50802C2.54099 3.70558 2.49946 3.91722 2.50001 4.13083V14.8342C2.50001 15.7367 3.22834 16.465 4.12251 16.465H13.1L12.6792 14.9992L13.6933 15.9417L14.6508 16.8283L16.3542 18.3333V4.13083C16.3547 3.91722 16.3132 3.70558 16.2319 3.50802C16.1507 3.31045 16.0313 3.13082 15.8807 2.97938C15.73 2.82795 15.551 2.70767 15.3539 2.62542C15.1567 2.54316 14.9453 2.50055 14.7317 2.5ZM11.675 12.8392C11.675 12.8392 11.39 12.4992 11.1533 12.1967C12.19 11.9033 12.5858 11.255 12.5858 11.255C12.2608 11.4683 11.9525 11.62 11.675 11.7233C10.6647 12.1461 9.5522 12.2615 8.47667 12.055C8.07926 11.9769 7.68985 11.8626 7.31334 11.7133C7.11477 11.6379 6.92179 11.5485 6.73584 11.4458C6.71167 11.4283 6.68834 11.4217 6.66501 11.4058C6.65252 11.3999 6.64144 11.3914 6.63251 11.3808C6.49001 11.3025 6.41084 11.2475 6.41084 11.2475C6.41084 11.2475 6.79084 11.8808 7.79667 12.1817C7.55917 12.4817 7.26584 12.8392 7.26584 12.8392C5.51667 12.7833 4.85251 11.6358 4.85251 11.6358C4.85251 9.08667 5.99251 7.02083 5.99251 7.02083C7.13251 6.165 8.21667 6.18917 8.21667 6.18917L8.29584 6.28417C6.87084 6.69667 6.21334 7.32167 6.21334 7.32167C6.21334 7.32167 6.38834 7.22667 6.68084 7.0925C7.52751 6.72083 8.20001 6.6175 8.47751 6.59333C8.52501 6.58583 8.56501 6.5775 8.61251 6.5775C9.98518 6.39251 11.381 6.65339 12.5942 7.32167C12.5942 7.32167 11.9683 6.72833 10.6225 6.31667L10.7333 6.19C10.7333 6.19 11.8183 6.16583 12.9575 7.02167C12.9575 7.02167 14.0975 9.0875 14.0975 11.6367C14.0975 11.6358 13.425 12.7833 11.675 12.8392Z" fill="#01AF4F"/>
</svg>
