<svg width="20" height="20" viewBox="0 0 20 20" fill="none" xmlns="http://www.w3.org/2000/svg">
<path fill-rule="evenodd" clip-rule="evenodd" d="M7.85749 7.47419H10.9525V9.01585C11.3983 8.12919 12.5417 7.33252 14.2592 7.33252C17.5517 7.33252 18.3333 9.09752 18.3333 12.3359V18.3334H15V13.0734C15 11.2292 14.5542 10.1892 13.4192 10.1892C11.845 10.1892 11.1908 11.31 11.1908 13.0725V18.3334H7.85749V7.47419ZM2.14166 18.1917H5.47499V7.33252H2.14166V18.1917ZM5.95249 3.79169C5.95261 4.07108 5.8972 4.34772 5.78948 4.60551C5.68175 4.8633 5.52387 5.09711 5.32499 5.29335C4.92199 5.69387 4.3765 5.91806 3.80832 5.91669C3.24115 5.91631 2.69692 5.69269 2.29332 5.29419C2.09517 5.09728 1.93781 4.86321 1.83028 4.60538C1.72274 4.34755 1.66714 4.07104 1.66666 3.79169C1.66666 3.22752 1.89166 2.68752 2.29416 2.28919C2.69739 1.89015 3.24186 1.66644 3.80916 1.66669C4.37749 1.66669 4.92249 1.89085 5.32499 2.28919C5.72666 2.68752 5.95249 3.22752 5.95249 3.79169Z" fill="#01AF4F"/>
</svg>
