<svg width="20" height="20" viewBox="0 0 20 20" fill="none" xmlns="http://www.w3.org/2000/svg">
<path fill-rule="evenodd" clip-rule="evenodd" d="M7.85746 7.47416H10.9525V9.01582C11.3983 8.12916 12.5416 7.33249 14.2591 7.33249C17.5516 7.33249 18.3333 9.09749 18.3333 12.3358V18.3333H15V13.0733C15 11.2292 14.5541 10.1892 13.4191 10.1892C11.845 10.1892 11.1908 11.31 11.1908 13.0725V18.3333H7.85746V7.47416ZM2.14163 18.1917H5.47496V7.33249H2.14163V18.1917ZM5.95246 3.79166C5.95258 4.07105 5.89717 4.34769 5.78945 4.60548C5.68172 4.86327 5.52384 5.09708 5.32496 5.29332C4.92196 5.69384 4.37647 5.91803 3.80829 5.91666C3.24112 5.91628 2.69688 5.69266 2.29329 5.29416C2.09514 5.09725 1.93778 4.86318 1.83025 4.60535C1.72271 4.34752 1.66711 4.07101 1.66663 3.79166C1.66663 3.22749 1.89163 2.68749 2.29413 2.28916C2.69736 1.89012 3.24183 1.66641 3.80913 1.66666C4.37746 1.66666 4.92246 1.89082 5.32496 2.28916C5.72662 2.68749 5.95246 3.22749 5.95246 3.79166Z" fill="white"/>
</svg>
