<svg width="28" height="32" viewBox="0 0 28 32" fill="none" xmlns="http://www.w3.org/2000/svg">
<path d="M2 2.66667C2 1.19391 3.25844 0 4.81081 0H19.5676L28 8V29.3333C28 30.8061 26.7416 32 25.1892 32H4.81081C3.25844 32 2 30.8061 2 29.3333V2.66667Z" fill="#EBEBF0"/>
<path d="M19 6V0L28 8H21.25C20.0074 8 19 7.10457 19 6Z" fill="#B0B7BD"/>
<g clip-path="url(#clip0_178_3165)">
<path d="M15.7242 26.2413H0.275997C0.123653 26.2413 0.00012207 26.1178 0.00012207 25.9654V16.0344C0.00012207 15.8821 0.123653 15.7585 0.275997 15.7585H15.7242C15.8766 15.7585 16.0001 15.8821 16.0001 16.0344V25.9654C16.0001 26.1178 15.8766 26.2413 15.7242 26.2413Z" fill="#FF4B55"/>
<path d="M2.65638 17.3979L2.91938 18.1864L3.75063 18.1929C3.85825 18.1937 3.90287 18.3311 3.81628 18.395L3.1476 18.8888L3.39831 19.6813C3.43075 19.7839 3.31394 19.8688 3.22638 19.8062L2.55013 19.3228L1.87388 19.8062C1.78632 19.8688 1.6695 19.7839 1.70194 19.6813L1.95266 18.8887L1.28397 18.395C1.19738 18.331 1.24201 18.1937 1.34963 18.1929L2.18088 18.1864L2.44388 17.3979C2.47794 17.2958 2.62235 17.2958 2.65638 17.3979Z" fill="#FFE15A"/>
<path d="M5.67486 17.5923L5.86345 17.8495L6.1678 17.7543C6.2072 17.742 6.23961 17.787 6.21548 17.8204L6.02917 18.0792L6.21373 18.3393C6.23764 18.3729 6.20492 18.4176 6.16561 18.405L5.86189 18.3078L5.67161 18.5637C5.64698 18.5968 5.59433 18.5795 5.59417 18.5383L5.59277 18.2194L5.29058 18.1175C5.25149 18.1043 5.25164 18.0489 5.29086 18.0359L5.59367 17.9361L5.59723 17.6172C5.59767 17.576 5.65045 17.5591 5.67486 17.5923Z" fill="#FFE15A"/>
<path d="M4.52667 16.8257L4.8437 16.8602L4.97895 16.5714C4.99648 16.534 5.05148 16.5404 5.05992 16.5808L5.12511 16.8929L5.44155 16.9323C5.48251 16.9374 5.49342 16.9917 5.45758 17.0123L5.18086 17.1707L5.2412 17.4838C5.24901 17.5244 5.20073 17.5515 5.17014 17.5238L4.93392 17.3096L4.6548 17.4637C4.61867 17.4837 4.57789 17.4461 4.59483 17.4084L4.72555 17.1176L4.49267 16.8997C4.46255 16.8716 4.48564 16.8213 4.52667 16.8257Z" fill="#FFE15A"/>
<path d="M5.02785 19.9161L4.83926 20.1733L4.53492 20.0781C4.49551 20.0658 4.4631 20.1107 4.48723 20.1442L4.67354 20.403L4.48898 20.663C4.46507 20.6966 4.49779 20.7414 4.5371 20.7288L4.84082 20.6316L5.0311 20.8875C5.05573 20.9206 5.10838 20.9033 5.10854 20.862L5.10995 20.5431L5.41213 20.4412C5.45126 20.428 5.45107 20.3726 5.41185 20.3597L5.10904 20.2598L5.10548 19.9409C5.10498 19.8997 5.05226 19.8828 5.02785 19.9161Z" fill="#FFE15A"/>
<path d="M6.17599 19.1958L5.85896 19.2303L5.72371 18.9415C5.70618 18.9041 5.65118 18.9105 5.64274 18.9509L5.57752 19.2631L5.26108 19.3024C5.22011 19.3075 5.20921 19.3618 5.24505 19.3824L5.52177 19.5408L5.46143 19.8539C5.45361 19.8945 5.5019 19.9216 5.53249 19.8939L5.76871 19.6797L6.04783 19.8338C6.08396 19.8538 6.12474 19.8162 6.1078 19.7786L5.97708 19.4877L6.20996 19.2698C6.24018 19.2417 6.21708 19.1914 6.17599 19.1958Z" fill="#FFE15A"/>
</g>
<defs>
<clipPath id="clip0_178_3165">
<rect width="16" height="16" fill="white" transform="translate(0 13)"/>
</clipPath>
</defs>
</svg>
