<svg width="313" height="203" viewBox="0 0 313 203" fill="none" xmlns="http://www.w3.org/2000/svg">
<path d="M5.52993 192.231V199.504H4.64925V193.154H4.60664L2.83107 194.333V193.438L4.64925 192.231H5.52993ZM12.6642 201.364V192.231H13.5022V201.364H12.6642ZM12.6642 199.617C12.2948 199.617 11.9587 199.551 11.6556 199.418C11.3526 199.283 11.0922 199.093 10.8744 198.847C10.6566 198.598 10.4885 198.301 10.3701 197.955C10.2518 197.61 10.1926 197.226 10.1926 196.805C10.1926 196.379 10.2518 195.993 10.3701 195.647C10.4885 195.299 10.6566 195.001 10.8744 194.752C11.0922 194.504 11.3526 194.313 11.6556 194.181C11.9587 194.046 12.2948 193.978 12.6642 193.978H12.9198V199.617H12.6642ZM12.6642 198.864H12.8062V194.731H12.6642C12.3848 194.731 12.1422 194.788 11.9362 194.901C11.7302 195.013 11.5598 195.165 11.4248 195.359C11.2922 195.551 11.1928 195.771 11.1265 196.02C11.0626 196.269 11.0306 196.53 11.0306 196.805C11.0306 197.169 11.0886 197.508 11.2047 197.82C11.3207 198.133 11.4994 198.385 11.7409 198.577C11.9823 198.769 12.2901 198.864 12.6642 198.864ZM13.5022 199.617H13.2466V193.978H13.5022C13.8716 193.978 14.2077 194.046 14.5108 194.181C14.8138 194.313 15.0742 194.504 15.292 194.752C15.5098 195.001 15.6779 195.299 15.7963 195.647C15.9146 195.993 15.9738 196.379 15.9738 196.805C15.9738 197.226 15.9146 197.61 15.7963 197.955C15.6779 198.301 15.5098 198.598 15.292 198.847C15.0742 199.093 14.8138 199.283 14.5108 199.418C14.2077 199.551 13.8716 199.617 13.5022 199.617ZM13.5022 198.864C13.784 198.864 14.0266 198.81 14.2302 198.701C14.4362 198.59 14.6055 198.438 14.738 198.247C14.873 198.052 14.9724 197.832 15.0363 197.586C15.1026 197.337 15.1358 197.077 15.1358 196.805C15.1358 196.44 15.0778 196.1 14.9618 195.786C14.8457 195.471 14.667 195.216 14.4255 195.022C14.1841 194.828 13.8763 194.731 13.5022 194.731H13.3602V198.864H13.5022ZM19.5418 199.617C19.0163 199.617 18.5629 199.501 18.1817 199.269C17.803 199.035 17.5106 198.708 17.3046 198.289C17.101 197.868 16.9992 197.378 16.9992 196.819C16.9992 196.26 17.101 195.768 17.3046 195.342C17.5106 194.913 17.797 194.579 18.164 194.34C18.5333 194.099 18.9642 193.978 19.4566 193.978C19.7407 193.978 20.0212 194.025 20.2982 194.12C20.5752 194.215 20.8273 194.369 21.0546 194.582C21.2819 194.792 21.463 195.072 21.5979 195.42C21.7329 195.768 21.8004 196.196 21.8004 196.705V197.06H17.5958V196.336H20.9481C20.9481 196.028 20.8865 195.754 20.7634 195.512C20.6427 195.271 20.4699 195.08 20.245 194.94C20.0224 194.801 19.7596 194.731 19.4566 194.731C19.1228 194.731 18.834 194.814 18.5901 194.98C18.3486 195.143 18.1628 195.356 18.0326 195.619C17.9024 195.882 17.8373 196.163 17.8373 196.464V196.947C17.8373 197.359 17.9083 197.708 18.0504 197.994C18.1948 198.279 18.3948 198.495 18.6505 198.644C18.9062 198.791 19.2033 198.864 19.5418 198.864C19.762 198.864 19.9609 198.834 20.1384 198.772C20.3183 198.708 20.4734 198.614 20.6036 198.488C20.7338 198.36 20.8344 198.202 20.9055 198.012L21.7151 198.239C21.6299 198.514 21.4867 198.756 21.2854 198.964C21.0842 199.17 20.8356 199.331 20.5397 199.447C20.2438 199.56 19.9111 199.617 19.5418 199.617ZM23.0752 199.504V194.049H25.3053C25.8924 194.049 26.3588 194.182 26.7045 194.447C27.0501 194.712 27.2229 195.062 27.2229 195.498C27.2229 195.829 27.1247 196.086 26.9282 196.269C26.7317 196.449 26.4796 196.57 26.1718 196.634C26.373 196.663 26.5683 196.734 26.7577 196.847C26.9495 196.961 27.1081 197.117 27.2336 197.316C27.3591 197.513 27.4218 197.754 27.4218 198.041C27.4218 198.32 27.3508 198.57 27.2087 198.79C27.0667 199.01 26.8631 199.184 26.5979 199.312C26.3328 199.44 26.0156 199.504 25.6462 199.504H23.0752ZM23.8707 198.737H25.6462C25.9351 198.737 26.1611 198.668 26.3245 198.531C26.4879 198.393 26.5695 198.206 26.5695 197.97C26.5695 197.688 26.4879 197.466 26.3245 197.306C26.1611 197.142 25.9351 197.06 25.6462 197.06H23.8707V198.737ZM23.8707 196.336H25.3053C25.5302 196.336 25.7232 196.305 25.8842 196.244C26.0451 196.18 26.1683 196.09 26.2535 195.974C26.3411 195.855 26.3849 195.716 26.3849 195.555C26.3849 195.325 26.289 195.145 26.0972 195.015C25.9055 194.882 25.6415 194.816 25.3053 194.816H23.8707V196.336Z" fill="#010101"/>
<path d="M49.1033 199.504V198.864L51.5039 196.237C51.7856 195.929 52.0176 195.661 52.1999 195.434C52.3822 195.204 52.5171 194.989 52.6047 194.788C52.6947 194.584 52.7397 194.371 52.7397 194.149C52.7397 193.893 52.6781 193.672 52.555 193.484C52.4343 193.297 52.2686 193.153 52.0579 193.051C51.8471 192.949 51.6104 192.899 51.3476 192.899C51.0683 192.899 50.8244 192.957 50.6161 193.073C50.4101 193.186 50.2503 193.346 50.1367 193.552C50.0254 193.758 49.9698 193.999 49.9698 194.276H49.1317C49.1317 193.85 49.23 193.476 49.4265 193.154C49.623 192.832 49.8905 192.581 50.229 192.401C50.5699 192.221 50.9523 192.132 51.376 192.132C51.8022 192.132 52.1798 192.221 52.5088 192.401C52.8379 192.581 53.096 192.824 53.283 193.129C53.47 193.435 53.5635 193.774 53.5635 194.149C53.5635 194.416 53.515 194.678 53.4179 194.933C53.3232 195.187 53.1575 195.47 52.9208 195.782C52.6864 196.092 52.3609 196.471 51.9442 196.918L50.3107 198.666V198.722H53.6914V199.504H49.1033ZM60.2006 201.364V192.231H61.0387V201.364H60.2006ZM60.2006 199.617C59.8313 199.617 59.4951 199.551 59.1921 199.418C58.8891 199.283 58.6286 199.093 58.4108 198.847C58.193 198.598 58.0249 198.301 57.9066 197.955C57.7882 197.61 57.729 197.226 57.729 196.805C57.729 196.379 57.7882 195.993 57.9066 195.647C58.0249 195.299 58.193 195.001 58.4108 194.752C58.6286 194.504 58.8891 194.313 59.1921 194.181C59.4951 194.046 59.8313 193.978 60.2006 193.978H60.4563V199.617H60.2006ZM60.2006 198.864H60.3427V194.731H60.2006C59.9213 194.731 59.6786 194.788 59.4726 194.901C59.2667 195.013 59.0962 195.165 58.9613 195.359C58.8287 195.551 58.7293 195.771 58.663 196.02C58.599 196.269 58.5671 196.53 58.5671 196.805C58.5671 197.169 58.6251 197.508 58.7411 197.82C58.8571 198.133 59.0358 198.385 59.2773 198.577C59.5188 198.769 59.8266 198.864 60.2006 198.864ZM61.0387 199.617H60.783V193.978H61.0387C61.408 193.978 61.7442 194.046 62.0472 194.181C62.3502 194.313 62.6106 194.504 62.8284 194.752C63.0462 195.001 63.2143 195.299 63.3327 195.647C63.4511 195.993 63.5103 196.379 63.5103 196.805C63.5103 197.226 63.4511 197.61 63.3327 197.955C63.2143 198.301 63.0462 198.598 62.8284 198.847C62.6106 199.093 62.3502 199.283 62.0472 199.418C61.7442 199.551 61.408 199.617 61.0387 199.617ZM61.0387 198.864C61.3204 198.864 61.5631 198.81 61.7667 198.701C61.9726 198.59 62.1419 198.438 62.2745 198.247C62.4094 198.052 62.5088 197.832 62.5728 197.586C62.6391 197.337 62.6722 197.077 62.6722 196.805C62.6722 196.44 62.6142 196.1 62.4982 195.786C62.3822 195.471 62.2034 195.216 61.962 195.022C61.7205 194.828 61.4127 194.731 61.0387 194.731H60.8966V198.864H61.0387ZM67.0783 199.617C66.5527 199.617 66.0993 199.501 65.7182 199.269C65.3394 199.035 65.047 198.708 64.8411 198.289C64.6375 197.868 64.5357 197.378 64.5357 196.819C64.5357 196.26 64.6375 195.768 64.8411 195.342C65.047 194.913 65.3335 194.579 65.7004 194.34C66.0697 194.099 66.5006 193.978 66.993 193.978C67.2771 193.978 67.5577 194.025 67.8347 194.12C68.1117 194.215 68.3638 194.369 68.5911 194.582C68.8183 194.792 68.9994 195.072 69.1344 195.42C69.2693 195.768 69.3368 196.196 69.3368 196.705V197.06H65.1322V196.336H68.4845C68.4845 196.028 68.423 195.754 68.2999 195.512C68.1791 195.271 68.0063 195.08 67.7814 194.94C67.5589 194.801 67.2961 194.731 66.993 194.731C66.6592 194.731 66.3704 194.814 66.1266 194.98C65.8851 195.143 65.6992 195.356 65.569 195.619C65.4388 195.882 65.3737 196.163 65.3737 196.464V196.947C65.3737 197.359 65.4447 197.708 65.5868 197.994C65.7312 198.279 65.9313 198.495 66.1869 198.644C66.4426 198.791 66.7397 198.864 67.0783 198.864C67.2984 198.864 67.4973 198.834 67.6749 198.772C67.8548 198.708 68.0099 198.614 68.1401 198.488C68.2703 198.36 68.3709 198.202 68.4419 198.012L69.2516 198.239C69.1663 198.514 69.0231 198.756 68.8219 198.964C68.6206 199.17 68.3721 199.331 68.0761 199.447C67.7802 199.56 67.4476 199.617 67.0783 199.617ZM70.6116 199.504V194.049H72.8418C73.4289 194.049 73.8953 194.182 74.2409 194.447C74.5866 194.712 74.7594 195.062 74.7594 195.498C74.7594 195.829 74.6611 196.086 74.4646 196.269C74.2681 196.449 74.016 196.57 73.7082 196.634C73.9095 196.663 74.1048 196.734 74.2942 196.847C74.4859 196.961 74.6446 197.117 74.77 197.316C74.8955 197.513 74.9582 197.754 74.9582 198.041C74.9582 198.32 74.8872 198.57 74.7452 198.79C74.6031 199.01 74.3995 199.184 74.1344 199.312C73.8692 199.44 73.552 199.504 73.1827 199.504H70.6116ZM71.4071 198.737H73.1827C73.4715 198.737 73.6976 198.668 73.8609 198.531C74.0243 198.393 74.106 198.206 74.106 197.97C74.106 197.688 74.0243 197.466 73.8609 197.306C73.6976 197.142 73.4715 197.06 73.1827 197.06H71.4071V198.737ZM71.4071 196.336H72.8418C73.0667 196.336 73.2596 196.305 73.4206 196.244C73.5816 196.18 73.7047 196.09 73.7899 195.974C73.8775 195.855 73.9213 195.716 73.9213 195.555C73.9213 195.325 73.8254 195.145 73.6337 195.015C73.4419 194.882 73.1779 194.816 72.8418 194.816H71.4071V196.336Z" fill="#010101"/>
<path d="M98.7847 199.603C98.3159 199.603 97.8981 199.523 97.5311 199.362C97.1666 199.201 96.8765 198.977 96.6611 198.69C96.448 198.402 96.332 198.067 96.3131 197.685H97.208C97.2269 197.92 97.3074 198.122 97.4495 198.293C97.5915 198.461 97.7774 198.591 98.007 198.683C98.2366 198.776 98.4911 198.822 98.7705 198.822C99.083 198.822 99.36 198.767 99.6015 198.658C99.8429 198.55 100.032 198.398 100.17 198.204C100.307 198.01 100.376 197.785 100.376 197.529C100.376 197.262 100.309 197.026 100.177 196.823C100.044 196.617 99.85 196.456 99.5943 196.34C99.3387 196.224 99.0262 196.166 98.6568 196.166H98.0745V195.384H98.6568C98.9457 195.384 99.199 195.332 99.4168 195.228C99.637 195.124 99.8086 194.977 99.9317 194.788C100.057 194.598 100.12 194.376 100.12 194.12C100.12 193.874 100.065 193.66 99.9566 193.477C99.8477 193.295 99.6938 193.153 99.4949 193.051C99.2984 192.949 99.0664 192.899 98.7989 192.899C98.5479 192.899 98.3112 192.945 98.0887 193.037C97.8685 193.127 97.6886 193.258 97.5489 193.431C97.4092 193.602 97.3335 193.808 97.3216 194.049H96.4693C96.4836 193.668 96.5984 193.334 96.8138 193.048C97.0292 192.759 97.311 192.534 97.659 192.373C98.0094 192.212 98.3941 192.132 98.8131 192.132C99.2629 192.132 99.6488 192.223 99.9708 192.405C100.293 192.585 100.54 192.823 100.713 193.119C100.886 193.415 100.972 193.734 100.972 194.078C100.972 194.487 100.864 194.836 100.649 195.125C100.436 195.414 100.146 195.614 99.779 195.725V195.782C100.238 195.858 100.597 196.053 100.855 196.368C101.113 196.681 101.242 197.068 101.242 197.529C101.242 197.925 101.134 198.28 100.919 198.595C100.706 198.907 100.415 199.153 100.045 199.333C99.676 199.513 99.2558 199.603 98.7847 199.603ZM107.737 201.364V192.231H108.575V201.364H107.737ZM107.737 199.617C107.368 199.617 107.032 199.551 106.729 199.418C106.426 199.283 106.165 199.093 105.947 198.847C105.73 198.598 105.561 198.301 105.443 197.955C105.325 197.61 105.266 197.226 105.266 196.805C105.266 196.379 105.325 195.993 105.443 195.647C105.561 195.299 105.73 195.001 105.947 194.752C106.165 194.504 106.426 194.313 106.729 194.181C107.032 194.046 107.368 193.978 107.737 193.978H107.993V199.617H107.737ZM107.737 198.864H107.879V194.731H107.737C107.458 194.731 107.215 194.788 107.009 194.901C106.803 195.013 106.633 195.165 106.498 195.359C106.365 195.551 106.266 195.771 106.199 196.02C106.136 196.269 106.104 196.53 106.104 196.805C106.104 197.169 106.162 197.508 106.278 197.82C106.394 198.133 106.572 198.385 106.814 198.577C107.055 198.769 107.363 198.864 107.737 198.864ZM108.575 199.617H108.319V193.978H108.575C108.944 193.978 109.281 194.046 109.584 194.181C109.887 194.313 110.147 194.504 110.365 194.752C110.583 195.001 110.751 195.299 110.869 195.647C110.988 195.993 111.047 196.379 111.047 196.805C111.047 197.226 110.988 197.61 110.869 197.955C110.751 198.301 110.583 198.598 110.365 198.847C110.147 199.093 109.887 199.283 109.584 199.418C109.281 199.551 108.944 199.617 108.575 199.617ZM108.575 198.864C108.857 198.864 109.1 198.81 109.303 198.701C109.509 198.59 109.678 198.438 109.811 198.247C109.946 198.052 110.045 197.832 110.109 197.586C110.176 197.337 110.209 197.077 110.209 196.805C110.209 196.44 110.151 196.1 110.035 195.786C109.919 195.471 109.74 195.216 109.498 195.022C109.257 194.828 108.949 194.731 108.575 194.731H108.433V198.864H108.575ZM114.615 199.617C114.089 199.617 113.636 199.501 113.255 199.269C112.876 199.035 112.584 198.708 112.378 198.289C112.174 197.868 112.072 197.378 112.072 196.819C112.072 196.26 112.174 195.768 112.378 195.342C112.584 194.913 112.87 194.579 113.237 194.34C113.606 194.099 114.037 193.978 114.53 193.978C114.814 193.978 115.094 194.025 115.371 194.12C115.648 194.215 115.9 194.369 116.128 194.582C116.355 194.792 116.536 195.072 116.671 195.42C116.806 195.768 116.873 196.196 116.873 196.705V197.06H112.669V196.336H116.021C116.021 196.028 115.959 195.754 115.836 195.512C115.716 195.271 115.543 195.08 115.318 194.94C115.095 194.801 114.833 194.731 114.53 194.731C114.196 194.731 113.907 194.814 113.663 194.98C113.422 195.143 113.236 195.356 113.106 195.619C112.975 195.882 112.91 196.163 112.91 196.464V196.947C112.91 197.359 112.981 197.708 113.123 197.994C113.268 198.279 113.468 198.495 113.723 198.644C113.979 198.791 114.276 198.864 114.615 198.864C114.835 198.864 115.034 198.834 115.211 198.772C115.391 198.708 115.546 198.614 115.677 198.488C115.807 198.36 115.907 198.202 115.978 198.012L116.788 198.239C116.703 198.514 116.56 198.756 116.358 198.964C116.157 199.17 115.909 199.331 115.613 199.447C115.317 199.56 114.984 199.617 114.615 199.617ZM118.148 199.504V194.049H120.378C120.965 194.049 121.432 194.182 121.777 194.447C122.123 194.712 122.296 195.062 122.296 195.498C122.296 195.829 122.198 196.086 122.001 196.269C121.805 196.449 121.553 196.57 121.245 196.634C121.446 196.663 121.641 196.734 121.831 196.847C122.022 196.961 122.181 197.117 122.307 197.316C122.432 197.513 122.495 197.754 122.495 198.041C122.495 198.32 122.424 198.57 122.282 198.79C122.14 199.01 121.936 199.184 121.671 199.312C121.406 199.44 121.088 199.504 120.719 199.504H118.148ZM118.944 198.737H120.719C121.008 198.737 121.234 198.668 121.397 198.531C121.561 198.393 121.642 198.206 121.642 197.97C121.642 197.688 121.561 197.466 121.397 197.306C121.234 197.142 121.008 197.06 120.719 197.06H118.944V198.737ZM118.944 196.336H120.378C120.603 196.336 120.796 196.305 120.957 196.244C121.118 196.18 121.241 196.09 121.326 195.974C121.414 195.855 121.458 195.716 121.458 195.555C121.458 195.325 121.362 195.145 121.17 195.015C120.978 194.882 120.714 194.816 120.378 194.816H118.944V196.336Z" fill="#010101"/>
<path d="M143.644 198.012V197.288L146.84 192.231H147.366V193.353H147.011L144.596 197.174V197.231H148.9V198.012H143.644ZM147.068 199.504V197.792V197.455V192.231H147.906V199.504H147.068ZM155.274 201.364V192.231H156.112V201.364H155.274ZM155.274 199.617C154.904 199.617 154.568 199.551 154.265 199.418C153.962 199.283 153.702 199.093 153.484 198.847C153.266 198.598 153.098 198.301 152.98 197.955C152.861 197.61 152.802 197.226 152.802 196.805C152.802 196.379 152.861 195.993 152.98 195.647C153.098 195.299 153.266 195.001 153.484 194.752C153.702 194.504 153.962 194.313 154.265 194.181C154.568 194.046 154.904 193.978 155.274 193.978H155.529V199.617H155.274ZM155.274 198.864H155.416V194.731H155.274C154.994 194.731 154.752 194.788 154.546 194.901C154.34 195.013 154.169 195.165 154.034 195.359C153.902 195.551 153.802 195.771 153.736 196.02C153.672 196.269 153.64 196.53 153.64 196.805C153.64 197.169 153.698 197.508 153.814 197.82C153.93 198.133 154.109 198.385 154.35 198.577C154.592 198.769 154.899 198.864 155.274 198.864ZM156.112 199.617H155.856V193.978H156.112C156.481 193.978 156.817 194.046 157.12 194.181C157.423 194.313 157.684 194.504 157.901 194.752C158.119 195.001 158.287 195.299 158.406 195.647C158.524 195.993 158.583 196.379 158.583 196.805C158.583 197.226 158.524 197.61 158.406 197.955C158.287 198.301 158.119 198.598 157.901 198.847C157.684 199.093 157.423 199.283 157.12 199.418C156.817 199.551 156.481 199.617 156.112 199.617ZM156.112 198.864C156.393 198.864 156.636 198.81 156.84 198.701C157.046 198.59 157.215 198.438 157.347 198.247C157.482 198.052 157.582 197.832 157.646 197.586C157.712 197.337 157.745 197.077 157.745 196.805C157.745 196.44 157.687 196.1 157.571 195.786C157.455 195.471 157.276 195.216 157.035 195.022C156.793 194.828 156.486 194.731 156.112 194.731H155.97V198.864H156.112ZM162.151 199.617C161.626 199.617 161.172 199.501 160.791 199.269C160.412 199.035 160.12 198.708 159.914 198.289C159.71 197.868 159.609 197.378 159.609 196.819C159.609 196.26 159.71 195.768 159.914 195.342C160.12 194.913 160.406 194.579 160.773 194.34C161.143 194.099 161.574 193.978 162.066 193.978C162.35 193.978 162.631 194.025 162.908 194.12C163.185 194.215 163.437 194.369 163.664 194.582C163.891 194.792 164.072 195.072 164.207 195.42C164.342 195.768 164.41 196.196 164.41 196.705V197.06H160.205V196.336H163.557C163.557 196.028 163.496 195.754 163.373 195.512C163.252 195.271 163.079 195.08 162.854 194.94C162.632 194.801 162.369 194.731 162.066 194.731C161.732 194.731 161.443 194.814 161.2 194.98C160.958 195.143 160.772 195.356 160.642 195.619C160.512 195.882 160.447 196.163 160.447 196.464V196.947C160.447 197.359 160.518 197.708 160.66 197.994C160.804 198.279 161.004 198.495 161.26 198.644C161.516 198.791 161.813 198.864 162.151 198.864C162.371 198.864 162.57 198.834 162.748 198.772C162.928 198.708 163.083 198.614 163.213 198.488C163.343 198.36 163.444 198.202 163.515 198.012L164.325 198.239C164.239 198.514 164.096 198.756 163.895 198.964C163.694 199.17 163.445 199.331 163.149 199.447C162.853 199.56 162.521 199.617 162.151 199.617ZM165.685 199.504V194.049H167.915C168.502 194.049 168.968 194.182 169.314 194.447C169.659 194.712 169.832 195.062 169.832 195.498C169.832 195.829 169.734 196.086 169.538 196.269C169.341 196.449 169.089 196.57 168.781 196.634C168.982 196.663 169.178 196.734 169.367 196.847C169.559 196.961 169.717 197.117 169.843 197.316C169.968 197.513 170.031 197.754 170.031 198.041C170.031 198.32 169.96 198.57 169.818 198.79C169.676 199.01 169.472 199.184 169.207 199.312C168.942 199.44 168.625 199.504 168.256 199.504H165.685ZM166.48 198.737H168.256C168.544 198.737 168.771 198.668 168.934 198.531C169.097 198.393 169.179 198.206 169.179 197.97C169.179 197.688 169.097 197.466 168.934 197.306C168.771 197.142 168.544 197.06 168.256 197.06H166.48V198.737ZM166.48 196.336H167.915C168.14 196.336 168.333 196.305 168.494 196.244C168.655 196.18 168.778 196.09 168.863 195.974C168.95 195.855 168.994 195.716 168.994 195.555C168.994 195.325 168.898 195.145 168.707 195.015C168.515 194.882 168.251 194.816 167.915 194.816H166.48V196.336Z" fill="#010101"/>
<path d="M193.956 199.603C193.539 199.603 193.164 199.52 192.83 199.355C192.497 199.189 192.229 198.962 192.028 198.673C191.827 198.384 191.717 198.055 191.698 197.685H192.55C192.583 198.015 192.732 198.287 192.997 198.502C193.265 198.715 193.584 198.822 193.956 198.822C194.254 198.822 194.52 198.752 194.752 198.612C194.986 198.473 195.169 198.281 195.302 198.037C195.437 197.791 195.504 197.513 195.504 197.203C195.504 196.885 195.435 196.602 195.295 196.354C195.158 196.103 194.968 195.905 194.727 195.761C194.485 195.616 194.209 195.543 193.899 195.541C193.677 195.538 193.448 195.573 193.214 195.644C192.98 195.712 192.787 195.801 192.635 195.91L191.811 195.81L192.252 192.231H196.03V193.012H192.99L192.735 195.157H192.777C192.926 195.039 193.113 194.94 193.338 194.862C193.563 194.784 193.797 194.745 194.041 194.745C194.486 194.745 194.883 194.852 195.231 195.065C195.581 195.275 195.856 195.564 196.055 195.931C196.256 196.298 196.357 196.717 196.357 197.188C196.357 197.652 196.253 198.067 196.044 198.431C195.838 198.793 195.554 199.08 195.192 199.291C194.83 199.499 194.418 199.603 193.956 199.603ZM202.81 201.364V192.231H203.648V201.364H202.81ZM202.81 199.617C202.441 199.617 202.104 199.551 201.801 199.418C201.498 199.283 201.238 199.093 201.02 198.847C200.802 198.598 200.634 198.301 200.516 197.955C200.398 197.61 200.338 197.226 200.338 196.805C200.338 196.379 200.398 195.993 200.516 195.647C200.634 195.299 200.802 195.001 201.02 194.752C201.238 194.504 201.498 194.313 201.801 194.181C202.104 194.046 202.441 193.978 202.81 193.978H203.066V199.617H202.81ZM202.81 198.864H202.952V194.731H202.81C202.531 194.731 202.288 194.788 202.082 194.901C201.876 195.013 201.706 195.165 201.571 195.359C201.438 195.551 201.339 195.771 201.272 196.02C201.208 196.269 201.176 196.53 201.176 196.805C201.176 197.169 201.234 197.508 201.35 197.82C201.466 198.133 201.645 198.385 201.887 198.577C202.128 198.769 202.436 198.864 202.81 198.864ZM203.648 199.617H203.392V193.978H203.648C204.017 193.978 204.354 194.046 204.657 194.181C204.96 194.313 205.22 194.504 205.438 194.752C205.656 195.001 205.824 195.299 205.942 195.647C206.06 195.993 206.12 196.379 206.12 196.805C206.12 197.226 206.06 197.61 205.942 197.955C205.824 198.301 205.656 198.598 205.438 198.847C205.22 199.093 204.96 199.283 204.657 199.418C204.354 199.551 204.017 199.617 203.648 199.617ZM203.648 198.864C203.93 198.864 204.172 198.81 204.376 198.701C204.582 198.59 204.751 198.438 204.884 198.247C205.019 198.052 205.118 197.832 205.182 197.586C205.248 197.337 205.282 197.077 205.282 196.805C205.282 196.44 205.224 196.1 205.108 195.786C204.992 195.471 204.813 195.216 204.571 195.022C204.33 194.828 204.022 194.731 203.648 194.731H203.506V198.864H203.648ZM209.688 199.617C209.162 199.617 208.709 199.501 208.328 199.269C207.949 199.035 207.656 198.708 207.45 198.289C207.247 197.868 207.145 197.378 207.145 196.819C207.145 196.26 207.247 195.768 207.45 195.342C207.656 194.913 207.943 194.579 208.31 194.34C208.679 194.099 209.11 193.978 209.602 193.978C209.887 193.978 210.167 194.025 210.444 194.12C210.721 194.215 210.973 194.369 211.2 194.582C211.428 194.792 211.609 195.072 211.744 195.42C211.879 195.768 211.946 196.196 211.946 196.705V197.06H207.742V196.336H211.094C211.094 196.028 211.032 195.754 210.909 195.512C210.788 195.271 210.616 195.08 210.391 194.94C210.168 194.801 209.905 194.731 209.602 194.731C209.269 194.731 208.98 194.814 208.736 194.98C208.494 195.143 208.309 195.356 208.178 195.619C208.048 195.882 207.983 196.163 207.983 196.464V196.947C207.983 197.359 208.054 197.708 208.196 197.994C208.341 198.279 208.541 198.495 208.796 198.644C209.052 198.791 209.349 198.864 209.688 198.864C209.908 198.864 210.107 198.834 210.284 198.772C210.464 198.708 210.619 198.614 210.749 198.488C210.88 198.36 210.98 198.202 211.051 198.012L211.861 198.239C211.776 198.514 211.632 198.756 211.431 198.964C211.23 199.17 210.981 199.331 210.686 199.447C210.39 199.56 210.057 199.617 209.688 199.617ZM213.221 199.504V194.049H215.451C216.038 194.049 216.505 194.182 216.85 194.447C217.196 194.712 217.369 195.062 217.369 195.498C217.369 195.829 217.271 196.086 217.074 196.269C216.878 196.449 216.625 196.57 216.318 196.634C216.519 196.663 216.714 196.734 216.904 196.847C217.095 196.961 217.254 197.117 217.379 197.316C217.505 197.513 217.568 197.754 217.568 198.041C217.568 198.32 217.497 198.57 217.355 198.79C217.213 199.01 217.009 199.184 216.744 199.312C216.479 199.44 216.161 199.504 215.792 199.504H213.221ZM214.016 198.737H215.792C216.081 198.737 216.307 198.668 216.47 198.531C216.634 198.393 216.715 198.206 216.715 197.97C216.715 197.688 216.634 197.466 216.47 197.306C216.307 197.142 216.081 197.06 215.792 197.06H214.016V198.737ZM214.016 196.336H215.451C215.676 196.336 215.869 196.305 216.03 196.244C216.191 196.18 216.314 196.09 216.399 195.974C216.487 195.855 216.531 195.716 216.531 195.555C216.531 195.325 216.435 195.145 216.243 195.015C216.051 194.882 215.787 194.816 215.451 194.816H214.016V196.336Z" fill="#010101"/>
<path d="M241.478 199.603C241.18 199.598 240.882 199.542 240.583 199.433C240.285 199.324 240.013 199.14 239.767 198.882C239.52 198.622 239.323 198.27 239.174 197.828C239.025 197.382 238.95 196.824 238.95 196.151C238.95 195.507 239.01 194.937 239.131 194.44C239.252 193.94 239.427 193.52 239.657 193.179C239.886 192.836 240.163 192.575 240.488 192.398C240.814 192.22 241.182 192.132 241.592 192.132C241.999 192.132 242.361 192.213 242.679 192.377C242.998 192.538 243.259 192.762 243.46 193.051C243.661 193.34 243.791 193.673 243.851 194.049H242.984C242.904 193.722 242.747 193.451 242.515 193.236C242.283 193.02 241.976 192.913 241.592 192.913C241.029 192.913 240.585 193.158 240.26 193.648C239.938 194.138 239.776 194.826 239.774 195.711H239.831C239.963 195.51 240.121 195.338 240.303 195.196C240.488 195.052 240.691 194.94 240.914 194.862C241.136 194.784 241.372 194.745 241.62 194.745C242.037 194.745 242.418 194.849 242.764 195.058C243.109 195.264 243.386 195.549 243.595 195.913C243.803 196.276 243.907 196.691 243.907 197.16C243.907 197.61 243.807 198.022 243.605 198.396C243.404 198.767 243.121 199.063 242.757 199.283C242.395 199.501 241.968 199.608 241.478 199.603ZM241.478 198.822C241.777 198.822 242.044 198.747 242.281 198.598C242.52 198.449 242.708 198.249 242.846 197.998C242.985 197.747 243.055 197.468 243.055 197.16C243.055 196.859 242.988 196.586 242.853 196.34C242.72 196.091 242.537 195.893 242.302 195.747C242.07 195.6 241.805 195.526 241.507 195.526C241.282 195.526 241.072 195.571 240.878 195.661C240.684 195.749 240.514 195.87 240.367 196.024C240.222 196.177 240.109 196.354 240.026 196.553C239.943 196.749 239.902 196.956 239.902 197.174C239.902 197.463 239.969 197.733 240.104 197.984C240.241 198.235 240.428 198.437 240.665 198.591C240.904 198.745 241.175 198.822 241.478 198.822ZM250.346 201.364V192.231H251.184V201.364H250.346ZM250.346 199.617C249.977 199.617 249.641 199.551 249.338 199.418C249.035 199.283 248.774 199.093 248.557 198.847C248.339 198.598 248.171 198.301 248.052 197.955C247.934 197.61 247.875 197.226 247.875 196.805C247.875 196.379 247.934 195.993 248.052 195.647C248.171 195.299 248.339 195.001 248.557 194.752C248.774 194.504 249.035 194.313 249.338 194.181C249.641 194.046 249.977 193.978 250.346 193.978H250.602V199.617H250.346ZM250.346 198.864H250.488V194.731H250.346C250.067 194.731 249.824 194.788 249.618 194.901C249.412 195.013 249.242 195.165 249.107 195.359C248.974 195.551 248.875 195.771 248.809 196.02C248.745 196.269 248.713 196.53 248.713 196.805C248.713 197.169 248.771 197.508 248.887 197.82C249.003 198.133 249.182 198.385 249.423 198.577C249.665 198.769 249.972 198.864 250.346 198.864ZM251.184 199.617H250.929V193.978H251.184C251.554 193.978 251.89 194.046 252.193 194.181C252.496 194.313 252.756 194.504 252.974 194.752C253.192 195.001 253.36 195.299 253.479 195.647C253.597 195.993 253.656 196.379 253.656 196.805C253.656 197.226 253.597 197.61 253.479 197.955C253.36 198.301 253.192 198.598 252.974 198.847C252.756 199.093 252.496 199.283 252.193 199.418C251.89 199.551 251.554 199.617 251.184 199.617ZM251.184 198.864C251.466 198.864 251.709 198.81 251.912 198.701C252.118 198.59 252.288 198.438 252.42 198.247C252.555 198.052 252.655 197.832 252.719 197.586C252.785 197.337 252.818 197.077 252.818 196.805C252.818 196.44 252.76 196.1 252.644 195.786C252.528 195.471 252.349 195.216 252.108 195.022C251.866 194.828 251.559 194.731 251.184 194.731H251.042V198.864H251.184ZM257.224 199.617C256.699 199.617 256.245 199.501 255.864 199.269C255.485 199.035 255.193 198.708 254.987 198.289C254.783 197.868 254.681 197.378 254.681 196.819C254.681 196.26 254.783 195.768 254.987 195.342C255.193 194.913 255.479 194.579 255.846 194.34C256.216 194.099 256.646 193.978 257.139 193.978C257.423 193.978 257.703 194.025 257.98 194.12C258.257 194.215 258.51 194.369 258.737 194.582C258.964 194.792 259.145 195.072 259.28 195.42C259.415 195.768 259.483 196.196 259.483 196.705V197.06H255.278V196.336H258.63C258.63 196.028 258.569 195.754 258.446 195.512C258.325 195.271 258.152 195.08 257.927 194.94C257.705 194.801 257.442 194.731 257.139 194.731C256.805 194.731 256.516 194.814 256.272 194.98C256.031 195.143 255.845 195.356 255.715 195.619C255.585 195.882 255.52 196.163 255.52 196.464V196.947C255.52 197.359 255.591 197.708 255.733 197.994C255.877 198.279 256.077 198.495 256.333 198.644C256.588 198.791 256.886 198.864 257.224 198.864C257.444 198.864 257.643 198.834 257.821 198.772C258.001 198.708 258.156 198.614 258.286 198.488C258.416 198.36 258.517 198.202 258.588 198.012L259.397 198.239C259.312 198.514 259.169 198.756 258.968 198.964C258.766 199.17 258.518 199.331 258.222 199.447C257.926 199.56 257.593 199.617 257.224 199.617ZM260.757 199.504V194.049H262.988C263.575 194.049 264.041 194.182 264.387 194.447C264.732 194.712 264.905 195.062 264.905 195.498C264.905 195.829 264.807 196.086 264.61 196.269C264.414 196.449 264.162 196.57 263.854 196.634C264.055 196.663 264.251 196.734 264.44 196.847C264.632 196.961 264.79 197.117 264.916 197.316C265.041 197.513 265.104 197.754 265.104 198.041C265.104 198.32 265.033 198.57 264.891 198.79C264.749 199.01 264.545 199.184 264.28 199.312C264.015 199.44 263.698 199.504 263.328 199.504H260.757ZM261.553 198.737H263.328C263.617 198.737 263.843 198.668 264.007 198.531C264.17 198.393 264.252 198.206 264.252 197.97C264.252 197.688 264.17 197.466 264.007 197.306C263.843 197.142 263.617 197.06 263.328 197.06H261.553V198.737ZM261.553 196.336H262.988C263.212 196.336 263.405 196.305 263.566 196.244C263.727 196.18 263.851 196.09 263.936 195.974C264.023 195.855 264.067 195.716 264.067 195.555C264.067 195.325 263.971 195.145 263.779 195.015C263.588 194.882 263.324 194.816 262.988 194.816H261.553V196.336Z" fill="#010101"/>
<path d="M286.355 199.504L289.607 193.069V193.012H285.857V192.231H290.517V193.055L287.278 199.504H286.355ZM296.883 201.364V192.231H297.721V201.364H296.883ZM296.883 199.617C296.514 199.617 296.177 199.551 295.874 199.418C295.571 199.283 295.311 199.093 295.093 198.847C294.875 198.598 294.707 198.301 294.589 197.955C294.47 197.61 294.411 197.226 294.411 196.805C294.411 196.379 294.47 195.993 294.589 195.647C294.707 195.299 294.875 195.001 295.093 194.752C295.311 194.504 295.571 194.313 295.874 194.181C296.177 194.046 296.514 193.978 296.883 193.978H297.139V199.617H296.883ZM296.883 198.864H297.025V194.731H296.883C296.604 194.731 296.361 194.788 296.155 194.901C295.949 195.013 295.778 195.165 295.644 195.359C295.511 195.551 295.412 195.771 295.345 196.02C295.281 196.269 295.249 196.53 295.249 196.805C295.249 197.169 295.307 197.508 295.423 197.82C295.539 198.133 295.718 198.385 295.96 198.577C296.201 198.769 296.509 198.864 296.883 198.864ZM297.721 199.617H297.465V193.978H297.721C298.09 193.978 298.426 194.046 298.729 194.181C299.032 194.313 299.293 194.504 299.511 194.752C299.729 195.001 299.897 195.299 300.015 195.647C300.133 195.993 300.193 196.379 300.193 196.805C300.193 197.226 300.133 197.61 300.015 197.955C299.897 198.301 299.729 198.598 299.511 198.847C299.293 199.093 299.032 199.283 298.729 199.418C298.426 199.551 298.09 199.617 297.721 199.617ZM297.721 198.864C298.003 198.864 298.245 198.81 298.449 198.701C298.655 198.59 298.824 198.438 298.957 198.247C299.092 198.052 299.191 197.832 299.255 197.586C299.321 197.337 299.354 197.077 299.354 196.805C299.354 196.44 299.296 196.1 299.18 195.786C299.064 195.471 298.886 195.216 298.644 195.022C298.403 194.828 298.095 194.731 297.721 194.731H297.579V198.864H297.721ZM303.761 199.617C303.235 199.617 302.782 199.501 302.4 199.269C302.022 199.035 301.729 198.708 301.523 198.289C301.32 197.868 301.218 197.378 301.218 196.819C301.218 196.26 301.32 195.768 301.523 195.342C301.729 194.913 302.016 194.579 302.383 194.34C302.752 194.099 303.183 193.978 303.675 193.978C303.959 193.978 304.24 194.025 304.517 194.12C304.794 194.215 305.046 194.369 305.273 194.582C305.501 194.792 305.682 195.072 305.817 195.42C305.952 195.768 306.019 196.196 306.019 196.705V197.06H301.814V196.336H305.167C305.167 196.028 305.105 195.754 304.982 195.512C304.861 195.271 304.689 195.08 304.464 194.94C304.241 194.801 303.978 194.731 303.675 194.731C303.341 194.731 303.053 194.814 302.809 194.98C302.567 195.143 302.381 195.356 302.251 195.619C302.121 195.882 302.056 196.163 302.056 196.464V196.947C302.056 197.359 302.127 197.708 302.269 197.994C302.413 198.279 302.614 198.495 302.869 198.644C303.125 198.791 303.422 198.864 303.761 198.864C303.981 198.864 304.18 198.834 304.357 198.772C304.537 198.708 304.692 198.614 304.822 198.488C304.953 198.36 305.053 198.202 305.124 198.012L305.934 198.239C305.849 198.514 305.705 198.756 305.504 198.964C305.303 199.17 305.054 199.331 304.758 199.447C304.462 199.56 304.13 199.617 303.761 199.617ZM307.294 199.504V194.049H309.524C310.111 194.049 310.578 194.182 310.923 194.447C311.269 194.712 311.442 195.062 311.442 195.498C311.442 195.829 311.343 196.086 311.147 196.269C310.95 196.449 310.698 196.57 310.39 196.634C310.592 196.663 310.787 196.734 310.976 196.847C311.168 196.961 311.327 197.117 311.452 197.316C311.578 197.513 311.64 197.754 311.64 198.041C311.64 198.32 311.569 198.57 311.427 198.79C311.285 199.01 311.082 199.184 310.817 199.312C310.551 199.44 310.234 199.504 309.865 199.504H307.294ZM308.089 198.737H309.865C310.154 198.737 310.38 198.668 310.543 198.531C310.707 198.393 310.788 198.206 310.788 197.97C310.788 197.688 310.707 197.466 310.543 197.306C310.38 197.142 310.154 197.06 309.865 197.06H308.089V198.737ZM308.089 196.336H309.524C309.749 196.336 309.942 196.305 310.103 196.244C310.264 196.18 310.387 196.09 310.472 195.974C310.56 195.855 310.604 195.716 310.604 195.555C310.604 195.325 310.508 195.145 310.316 195.015C310.124 194.882 309.86 194.816 309.524 194.816H308.089V196.336Z" fill="#010101"/>
<line x1="3.28125" y1="178.5" x2="312.5" y2="178.5" stroke="black" stroke-opacity="0.04" stroke-linecap="square"/>
<line x1="3.28125" y1="149.5" x2="312.5" y2="149.5" stroke="black" stroke-opacity="0.04" stroke-linecap="square"/>
<line x1="3.28125" y1="120.5" x2="312.5" y2="120.5" stroke="black" stroke-opacity="0.04" stroke-linecap="square" stroke-dasharray="4 7"/>
<line x1="3.28125" y1="92.5" x2="312.5" y2="92.5" stroke="black" stroke-opacity="0.04" stroke-linecap="square"/>
<line x1="3.28125" y1="64.5" x2="312.5" y2="64.5" stroke="black" stroke-opacity="0.04" stroke-linecap="square"/>
<line x1="3.28125" y1="36.5" x2="312.5" y2="36.5" stroke="black" stroke-opacity="0.04" stroke-linecap="square"/>
<line x1="3.28125" y1="8.5" x2="312.5" y2="8.5" stroke="black" stroke-opacity="0.04" stroke-linecap="square"/>
<rect x="5.66852" y="158" width="20.9425" height="21" rx="2" fill="#0098EA"/>
<rect x="289" y="23" width="20.9425" height="156" rx="2" fill="#0098EA"/>
<rect x="52.7892" y="128" width="20.9425" height="51" rx="2" fill="#0098EA"/>
<rect x="99.9099" y="105" width="20.9425" height="74" rx="2" fill="#0098EA"/>
<rect x="148.078" y="78" width="20.9425" height="101" rx="2" fill="#0098EA"/>
<rect x="194" y="52" width="20.9425" height="127" rx="2" fill="#0098EA"/>
<rect x="242" y="37" width="20.9425" height="142" rx="2" fill="#0098EA"/>
<rect x="286" width="26" height="18" rx="4" fill="#0098EA" fill-opacity="0.05"/>
<path d="M297.284 5.72727V13H296.404V6.65057H296.361L294.585 7.82955V6.93466L296.404 5.72727H297.284ZM301.521 13.9091V4.81818H302.103V13.9091H301.521ZM303.481 7.54545C303.438 7.18561 303.266 6.90625 302.963 6.70739C302.66 6.50852 302.288 6.40909 301.847 6.40909C301.526 6.40909 301.244 6.46117 301.002 6.56534C300.763 6.66951 300.576 6.81274 300.441 6.99503C300.309 7.17732 300.242 7.38447 300.242 7.61648C300.242 7.81061 300.289 7.97751 300.381 8.11719C300.476 8.2545 300.596 8.36932 300.743 8.46165C300.89 8.55161 301.044 8.62618 301.205 8.68537C301.366 8.74219 301.514 8.78835 301.649 8.82386L302.387 9.02273C302.577 9.07244 302.787 9.1411 303.019 9.22869C303.254 9.31629 303.477 9.43584 303.691 9.58736C303.906 9.73651 304.084 9.92827 304.223 10.1626C304.363 10.397 304.433 10.6847 304.433 11.0256C304.433 11.4186 304.33 11.7737 304.124 12.0909C303.92 12.4081 303.622 12.6603 303.229 12.8473C302.838 13.0343 302.364 13.1278 301.805 13.1278C301.284 13.1278 300.833 13.0438 300.452 12.8757C300.073 12.7076 299.775 12.4732 299.557 12.1726C299.342 11.8719 299.22 11.5227 299.191 11.125H300.1C300.124 11.3996 300.216 11.6269 300.377 11.8068C300.541 11.9844 300.747 12.117 300.995 12.2045C301.246 12.2898 301.516 12.3324 301.805 12.3324C302.141 12.3324 302.443 12.2779 302.71 12.169C302.978 12.0578 303.19 11.9039 303.346 11.7074C303.502 11.5085 303.58 11.2765 303.58 11.0114C303.58 10.7699 303.513 10.5734 303.378 10.4219C303.243 10.2704 303.066 10.1473 302.845 10.0526C302.625 9.95786 302.387 9.875 302.132 9.80398L301.237 9.5483C300.669 9.38494 300.219 9.15175 299.887 8.84872C299.556 8.54569 299.39 8.14915 299.39 7.65909C299.39 7.25189 299.5 6.89678 299.72 6.59375C299.943 6.28835 300.241 6.05161 300.615 5.88352C300.992 5.71307 301.412 5.62784 301.876 5.62784C302.345 5.62784 302.761 5.71188 303.126 5.87997C303.49 6.04569 303.779 6.27296 303.992 6.56179C304.208 6.85062 304.321 7.1785 304.333 7.54545H303.481Z" fill="#0098EA"/>
<rect x="239" y="14" width="26" height="18" rx="4" fill="#0098EA" fill-opacity="0.05"/>
<path d="M245.012 27.0994C244.477 27.0994 244.021 26.9538 243.645 26.6626C243.268 26.3691 242.98 25.9441 242.782 25.3878C242.583 24.8291 242.483 24.1544 242.483 23.3636C242.483 22.5777 242.583 21.9065 242.782 21.3501C242.983 20.7914 243.272 20.3653 243.648 20.0717C244.027 19.7758 244.481 19.6278 245.012 19.6278C245.542 19.6278 245.995 19.7758 246.372 20.0717C246.751 20.3653 247.039 20.7914 247.238 21.3501C247.44 21.9065 247.54 22.5777 247.54 23.3636C247.54 24.1544 247.441 24.8291 247.242 25.3878C247.043 25.9441 246.755 26.3691 246.379 26.6626C246.002 26.9538 245.547 27.0994 245.012 27.0994ZM245.012 26.3182C245.542 26.3182 245.954 26.0625 246.248 25.5511C246.541 25.0398 246.688 24.3106 246.688 23.3636C246.688 22.7339 246.62 22.1977 246.485 21.755C246.353 21.3123 246.161 20.9749 245.91 20.7429C245.662 20.5109 245.362 20.3949 245.012 20.3949C244.486 20.3949 244.075 20.6541 243.779 21.1726C243.484 21.6887 243.336 22.419 243.336 23.3636C243.336 23.9934 243.402 24.5284 243.534 24.9688C243.667 25.4091 243.858 25.7441 244.106 25.9737C244.357 26.2034 244.659 26.3182 245.012 26.3182ZM249.261 27.0568C249.085 27.0568 248.935 26.9941 248.81 26.8686C248.684 26.7431 248.621 26.5928 248.621 26.4176C248.621 26.2424 248.684 26.0921 248.81 25.9666C248.935 25.8411 249.085 25.7784 249.261 25.7784C249.436 25.7784 249.586 25.8411 249.712 25.9666C249.837 26.0921 249.9 26.2424 249.9 26.4176C249.9 26.5336 249.87 26.6402 249.811 26.7372C249.754 26.8343 249.677 26.9124 249.58 26.9716C249.486 27.0284 249.379 27.0568 249.261 27.0568ZM253.55 27.0994C253.252 27.0947 252.954 27.0379 252.656 26.929C252.357 26.8201 252.085 26.6366 251.839 26.3786C251.593 26.1181 251.395 25.7666 251.246 25.3239C251.097 24.8788 251.022 24.3201 251.022 23.6477C251.022 23.0038 251.082 22.4332 251.203 21.9361C251.324 21.4366 251.499 21.0163 251.729 20.6754C251.958 20.3321 252.235 20.0717 252.56 19.8942C252.886 19.7166 253.254 19.6278 253.664 19.6278C254.071 19.6278 254.433 19.7095 254.751 19.8729C255.07 20.0339 255.331 20.2588 255.532 20.5476C255.733 20.8364 255.863 21.169 255.923 21.5455H255.056C254.976 21.2187 254.819 20.9477 254.587 20.7322C254.355 20.5168 254.048 20.4091 253.664 20.4091C253.101 20.4091 252.657 20.6541 252.332 21.1442C252.01 21.6342 251.848 22.322 251.846 23.2074H251.903C252.035 23.0062 252.193 22.8345 252.375 22.6925C252.56 22.5481 252.763 22.4368 252.986 22.3587C253.208 22.2805 253.444 22.2415 253.692 22.2415C254.109 22.2415 254.49 22.3456 254.836 22.554C255.182 22.7599 255.459 23.0452 255.667 23.4098C255.875 23.772 255.979 24.1875 255.979 24.6562C255.979 25.1061 255.879 25.518 255.678 25.892C255.476 26.2637 255.193 26.5597 254.829 26.7798C254.467 26.9976 254.04 27.1042 253.55 27.0994ZM253.55 26.3182C253.849 26.3182 254.116 26.2436 254.353 26.0945C254.592 25.9453 254.78 25.7453 254.918 25.4943C255.057 25.2434 255.127 24.964 255.127 24.6562C255.127 24.3556 255.06 24.0821 254.925 23.8359C254.792 23.5874 254.609 23.3897 254.374 23.2429C254.142 23.0961 253.877 23.0227 253.579 23.0227C253.354 23.0227 253.144 23.0677 252.95 23.1577C252.756 23.2453 252.586 23.366 252.439 23.5199C252.295 23.6738 252.181 23.8501 252.098 24.049C252.015 24.2455 251.974 24.4527 251.974 24.6705C251.974 24.9593 252.041 25.2292 252.176 25.4801C252.313 25.7311 252.5 25.9335 252.737 26.0874C252.976 26.2412 253.247 26.3182 253.55 26.3182ZM259.521 27.9091V18.8182H260.103V27.9091H259.521ZM261.481 21.5455C261.438 21.1856 261.266 20.9062 260.963 20.7074C260.66 20.5085 260.288 20.4091 259.847 20.4091C259.526 20.4091 259.244 20.4612 259.002 20.5653C258.763 20.6695 258.576 20.8127 258.441 20.995C258.309 21.1773 258.242 21.3845 258.242 21.6165C258.242 21.8106 258.289 21.9775 258.381 22.1172C258.476 22.2545 258.596 22.3693 258.743 22.4616C258.89 22.5516 259.044 22.6262 259.205 22.6854C259.366 22.7422 259.514 22.7884 259.649 22.8239L260.387 23.0227C260.577 23.0724 260.787 23.1411 261.019 23.2287C261.254 23.3163 261.477 23.4358 261.691 23.5874C261.906 23.7365 262.084 23.9283 262.223 24.1626C262.363 24.397 262.433 24.6847 262.433 25.0256C262.433 25.4186 262.33 25.7737 262.124 26.0909C261.92 26.4081 261.622 26.6603 261.229 26.8473C260.838 27.0343 260.364 27.1278 259.805 27.1278C259.284 27.1278 258.833 27.0438 258.452 26.8757C258.073 26.7076 257.775 26.4732 257.557 26.1726C257.342 25.8719 257.22 25.5227 257.191 25.125H258.1C258.124 25.3996 258.216 25.6269 258.377 25.8068C258.541 25.9844 258.747 26.117 258.995 26.2045C259.246 26.2898 259.516 26.3324 259.805 26.3324C260.141 26.3324 260.443 26.2779 260.71 26.169C260.978 26.0578 261.19 25.9039 261.346 25.7074C261.502 25.5085 261.58 25.2765 261.58 25.0114C261.58 24.7699 261.513 24.5734 261.378 24.4219C261.243 24.2704 261.066 24.1473 260.845 24.0526C260.625 23.9579 260.387 23.875 260.132 23.804L259.237 23.5483C258.669 23.3849 258.219 23.1518 257.887 22.8487C257.556 22.5457 257.39 22.1491 257.39 21.6591C257.39 21.2519 257.5 20.8968 257.72 20.5938C257.943 20.2884 258.241 20.0516 258.615 19.8835C258.992 19.7131 259.412 19.6278 259.876 19.6278C260.345 19.6278 260.761 19.7119 261.126 19.88C261.49 20.0457 261.779 20.273 261.992 20.5618C262.208 20.8506 262.321 21.1785 262.333 21.5455H261.481Z" fill="#0098EA"/>
<rect x="191" y="30" width="26" height="18" rx="4" fill="#0098EA" fill-opacity="0.05"/>
<path d="M197.061 43.0994C196.526 43.0994 196.07 42.9538 195.693 42.6626C195.317 42.3691 195.029 41.9441 194.83 41.3878C194.632 40.8291 194.532 40.1544 194.532 39.3636C194.532 38.5777 194.632 37.9065 194.83 37.3501C195.032 36.7914 195.32 36.3653 195.697 36.0717C196.076 35.7758 196.53 35.6278 197.061 35.6278C197.591 35.6278 198.044 35.7758 198.421 36.0717C198.799 36.3653 199.088 36.7914 199.287 37.3501C199.488 37.9065 199.589 38.5777 199.589 39.3636C199.589 40.1544 199.49 40.8291 199.291 41.3878C199.092 41.9441 198.804 42.3691 198.428 42.6626C198.051 42.9538 197.596 43.0994 197.061 43.0994ZM197.061 42.3182C197.591 42.3182 198.003 42.0625 198.296 41.5511C198.59 41.0398 198.737 40.3106 198.737 39.3636C198.737 38.7339 198.669 38.1977 198.534 37.755C198.402 37.3123 198.21 36.9749 197.959 36.7429C197.71 36.5109 197.411 36.3949 197.061 36.3949C196.535 36.3949 196.124 36.6541 195.828 37.1726C195.532 37.6887 195.384 38.419 195.384 39.3636C195.384 39.9934 195.451 40.5284 195.583 40.9688C195.716 41.4091 195.906 41.7441 196.155 41.9737C196.406 42.2034 196.708 42.3182 197.061 42.3182ZM201.309 43.0568C201.134 43.0568 200.984 42.9941 200.858 42.8686C200.733 42.7431 200.67 42.5928 200.67 42.4176C200.67 42.2424 200.733 42.0921 200.858 41.9666C200.984 41.8411 201.134 41.7784 201.309 41.7784C201.485 41.7784 201.635 41.8411 201.76 41.9666C201.886 42.0921 201.949 42.2424 201.949 42.4176C201.949 42.5336 201.919 42.6402 201.86 42.7372C201.803 42.8343 201.726 42.9124 201.629 42.9716C201.534 43.0284 201.428 43.0568 201.309 43.0568ZM205.565 43.0994C205.148 43.0994 204.773 43.0166 204.439 42.8509C204.105 42.6851 203.838 42.4579 203.636 42.169C203.435 41.8802 203.325 41.5511 203.306 41.1818H204.158C204.192 41.5109 204.341 41.7831 204.606 41.9986C204.873 42.2116 205.193 42.3182 205.565 42.3182C205.863 42.3182 206.128 42.2483 206.36 42.1087C206.594 41.969 206.778 41.7772 206.911 41.5334C207.045 41.2872 207.113 41.009 207.113 40.6989C207.113 40.3816 207.043 40.0987 206.903 39.8501C206.766 39.5992 206.577 39.4015 206.335 39.2571C206.094 39.1127 205.818 39.0393 205.508 39.0369C205.285 39.0346 205.057 39.0689 204.822 39.1399C204.588 39.2086 204.395 39.2973 204.244 39.4062L203.42 39.3068L203.86 35.7273H207.638V36.5085H204.599L204.343 38.6534H204.386C204.535 38.535 204.722 38.4368 204.947 38.3587C205.172 38.2805 205.406 38.2415 205.65 38.2415C206.095 38.2415 206.491 38.348 206.839 38.5611C207.19 38.7718 207.464 39.0606 207.663 39.4276C207.865 39.7945 207.965 40.2135 207.965 40.6847C207.965 41.1487 207.861 41.563 207.653 41.9276C207.447 42.2898 207.163 42.5762 206.8 42.7869C206.438 42.9953 206.026 43.0994 205.565 43.0994ZM211.521 43.9091V34.8182H212.103V43.9091H211.521ZM213.481 37.5455C213.438 37.1856 213.266 36.9062 212.963 36.7074C212.66 36.5085 212.288 36.4091 211.847 36.4091C211.526 36.4091 211.244 36.4612 211.002 36.5653C210.763 36.6695 210.576 36.8127 210.441 36.995C210.309 37.1773 210.242 37.3845 210.242 37.6165C210.242 37.8106 210.289 37.9775 210.381 38.1172C210.476 38.2545 210.596 38.3693 210.743 38.4616C210.89 38.5516 211.044 38.6262 211.205 38.6854C211.366 38.7422 211.514 38.7884 211.649 38.8239L212.387 39.0227C212.577 39.0724 212.787 39.1411 213.019 39.2287C213.254 39.3163 213.477 39.4358 213.691 39.5874C213.906 39.7365 214.084 39.9283 214.223 40.1626C214.363 40.397 214.433 40.6847 214.433 41.0256C214.433 41.4186 214.33 41.7737 214.124 42.0909C213.92 42.4081 213.622 42.6603 213.229 42.8473C212.838 43.0343 212.364 43.1278 211.805 43.1278C211.284 43.1278 210.833 43.0438 210.452 42.8757C210.073 42.7076 209.775 42.4732 209.557 42.1726C209.342 41.8719 209.22 41.5227 209.191 41.125H210.1C210.124 41.3996 210.216 41.6269 210.377 41.8068C210.541 41.9844 210.747 42.117 210.995 42.2045C211.246 42.2898 211.516 42.3324 211.805 42.3324C212.141 42.3324 212.443 42.2779 212.71 42.169C212.978 42.0578 213.19 41.9039 213.346 41.7074C213.502 41.5085 213.58 41.2765 213.58 41.0114C213.58 40.7699 213.513 40.5734 213.378 40.4219C213.243 40.2704 213.066 40.1473 212.845 40.0526C212.625 39.9579 212.387 39.875 212.132 39.804L211.237 39.5483C210.669 39.3849 210.219 39.1518 209.887 38.8487C209.556 38.5457 209.39 38.1491 209.39 37.6591C209.39 37.2519 209.5 36.8968 209.72 36.5938C209.943 36.2884 210.241 36.0516 210.615 35.8835C210.992 35.7131 211.412 35.6278 211.876 35.6278C212.345 35.6278 212.761 35.7119 213.126 35.88C213.49 36.0457 213.779 36.273 213.992 36.5618C214.208 36.8506 214.321 37.1785 214.333 37.5455H213.481Z" fill="#0098EA"/>
<rect x="145" y="56" width="26" height="18" rx="4" fill="#0098EA" fill-opacity="0.05"/>
<path d="M150.582 69.0994C150.047 69.0994 149.591 68.9538 149.215 68.6626C148.838 68.3691 148.551 67.9441 148.352 67.3878C148.153 66.8291 148.054 66.1544 148.054 65.3636C148.054 64.5777 148.153 63.9065 148.352 63.3501C148.553 62.7914 148.842 62.3653 149.218 62.0717C149.597 61.7758 150.052 61.6278 150.582 61.6278C151.112 61.6278 151.566 61.7758 151.942 62.0717C152.321 62.3653 152.61 62.7914 152.809 63.3501C153.01 63.9065 153.11 64.5777 153.11 65.3636C153.11 66.1544 153.011 66.8291 152.812 67.3878C152.613 67.9441 152.326 68.3691 151.949 68.6626C151.573 68.9538 151.117 69.0994 150.582 69.0994ZM150.582 68.3182C151.112 68.3182 151.524 68.0625 151.818 67.5511C152.111 67.0398 152.258 66.3106 152.258 65.3636C152.258 64.7339 152.191 64.1977 152.056 63.755C151.923 63.3123 151.731 62.9749 151.48 62.7429C151.232 62.5109 150.932 62.3949 150.582 62.3949C150.056 62.3949 149.646 62.6541 149.35 63.1726C149.054 63.6887 148.906 64.419 148.906 65.3636C148.906 65.9934 148.972 66.5284 149.105 66.9688C149.237 67.4091 149.428 67.7441 149.676 67.9737C149.927 68.2034 150.229 68.3182 150.582 68.3182ZM154.831 69.0568C154.656 69.0568 154.505 68.9941 154.38 68.8686C154.254 68.7431 154.192 68.5928 154.192 68.4176C154.192 68.2424 154.254 68.0921 154.38 67.9666C154.505 67.8411 154.656 67.7784 154.831 67.7784C155.006 67.7784 155.156 67.8411 155.282 67.9666C155.407 68.0921 155.47 68.2424 155.47 68.4176C155.47 68.5336 155.441 68.6402 155.381 68.7372C155.325 68.8343 155.248 68.9124 155.151 68.9716C155.056 69.0284 154.949 69.0568 154.831 69.0568ZM156.789 67.5085V66.7841L159.985 61.7273H160.511V62.8494H160.156L157.741 66.6705V66.7273H162.045V67.5085H156.789ZM160.213 69V67.2884V66.951V61.7273H161.051V69H160.213ZM165.521 69.9091V60.8182H166.103V69.9091H165.521ZM167.481 63.5455C167.438 63.1856 167.266 62.9062 166.963 62.7074C166.66 62.5085 166.288 62.4091 165.847 62.4091C165.526 62.4091 165.244 62.4612 165.002 62.5653C164.763 62.6695 164.576 62.8127 164.441 62.995C164.309 63.1773 164.242 63.3845 164.242 63.6165C164.242 63.8106 164.289 63.9775 164.381 64.1172C164.476 64.2545 164.596 64.3693 164.743 64.4616C164.89 64.5516 165.044 64.6262 165.205 64.6854C165.366 64.7422 165.514 64.7884 165.649 64.8239L166.387 65.0227C166.577 65.0724 166.787 65.1411 167.019 65.2287C167.254 65.3163 167.477 65.4358 167.691 65.5874C167.906 65.7365 168.084 65.9283 168.223 66.1626C168.363 66.397 168.433 66.6847 168.433 67.0256C168.433 67.4186 168.33 67.7737 168.124 68.0909C167.92 68.4081 167.622 68.6603 167.229 68.8473C166.838 69.0343 166.364 69.1278 165.805 69.1278C165.284 69.1278 164.833 69.0438 164.452 68.8757C164.073 68.7076 163.775 68.4732 163.557 68.1726C163.342 67.8719 163.22 67.5227 163.191 67.125H164.1C164.124 67.3996 164.216 67.6269 164.377 67.8068C164.541 67.9844 164.747 68.117 164.995 68.2045C165.246 68.2898 165.516 68.3324 165.805 68.3324C166.141 68.3324 166.443 68.2779 166.71 68.169C166.978 68.0578 167.19 67.9039 167.346 67.7074C167.502 67.5085 167.58 67.2765 167.58 67.0114C167.58 66.7699 167.513 66.5734 167.378 66.4219C167.243 66.2704 167.066 66.1473 166.845 66.0526C166.625 65.9579 166.387 65.875 166.132 65.804L165.237 65.5483C164.669 65.3849 164.219 65.1518 163.887 64.8487C163.556 64.5457 163.39 64.1491 163.39 63.6591C163.39 63.2519 163.5 62.8968 163.72 62.5938C163.943 62.2884 164.241 62.0516 164.615 61.8835C164.992 61.7131 165.412 61.6278 165.876 61.6278C166.345 61.6278 166.761 61.7119 167.126 61.88C167.49 62.0457 167.779 62.273 167.992 62.5618C168.208 62.8506 168.321 63.1785 168.333 63.5455H167.481Z" fill="#0098EA"/>
<rect x="97" y="83" width="26" height="18" rx="4" fill="#0098EA" fill-opacity="0.05"/>
<path d="M102.904 96.0994C102.369 96.0994 101.914 95.9538 101.537 95.6626C101.161 95.3691 100.873 94.9441 100.674 94.3878C100.475 93.8291 100.376 93.1544 100.376 92.3636C100.376 91.5777 100.475 90.9065 100.674 90.3501C100.875 89.7914 101.164 89.3653 101.541 89.0717C101.919 88.7758 102.374 88.6278 102.904 88.6278C103.435 88.6278 103.888 88.7758 104.264 89.0717C104.643 89.3653 104.932 89.7914 105.131 90.3501C105.332 90.9065 105.433 91.5777 105.433 92.3636C105.433 93.1544 105.333 93.8291 105.134 94.3878C104.936 94.9441 104.648 95.3691 104.271 95.6626C103.895 95.9538 103.439 96.0994 102.904 96.0994ZM102.904 95.3182C103.435 95.3182 103.847 95.0625 104.14 94.5511C104.434 94.0398 104.58 93.3106 104.58 92.3636C104.58 91.7339 104.513 91.1977 104.378 90.755C104.245 90.3123 104.054 89.9749 103.803 89.7429C103.554 89.5109 103.255 89.3949 102.904 89.3949C102.379 89.3949 101.968 89.6541 101.672 90.1726C101.376 90.6887 101.228 91.419 101.228 92.3636C101.228 92.9934 101.294 93.5284 101.427 93.9688C101.56 94.4091 101.75 94.7441 101.999 94.9737C102.25 95.2034 102.552 95.3182 102.904 95.3182ZM107.153 96.0568C106.978 96.0568 106.828 95.9941 106.702 95.8686C106.577 95.7431 106.514 95.5928 106.514 95.4176C106.514 95.2424 106.577 95.0921 106.702 94.9666C106.828 94.8411 106.978 94.7784 107.153 94.7784C107.328 94.7784 107.479 94.8411 107.604 94.9666C107.73 95.0921 107.792 95.2424 107.792 95.4176C107.792 95.5336 107.763 95.6402 107.704 95.7372C107.647 95.8343 107.57 95.9124 107.473 95.9716C107.378 96.0284 107.272 96.0568 107.153 96.0568ZM111.466 96.0994C110.997 96.0994 110.579 96.0189 110.213 95.858C109.848 95.697 109.558 95.4732 109.343 95.1868C109.129 94.898 109.013 94.563 108.994 94.1818H109.889C109.908 94.4162 109.989 94.6186 110.131 94.7891C110.273 94.9571 110.459 95.0874 110.688 95.1797C110.918 95.272 111.173 95.3182 111.452 95.3182C111.764 95.3182 112.041 95.2637 112.283 95.1548C112.524 95.0459 112.714 94.8944 112.851 94.7003C112.988 94.5062 113.057 94.2812 113.057 94.0256C113.057 93.758 112.991 93.5225 112.858 93.3189C112.726 93.1129 112.531 92.9519 112.276 92.8359C112.02 92.7199 111.708 92.6619 111.338 92.6619H110.756V91.8807H111.338C111.627 91.8807 111.88 91.8286 112.098 91.7244C112.318 91.6203 112.49 91.4735 112.613 91.2841C112.739 91.0947 112.801 90.8722 112.801 90.6165C112.801 90.3703 112.747 90.156 112.638 89.9737C112.529 89.7914 112.375 89.6494 112.176 89.5476C111.98 89.4458 111.748 89.3949 111.48 89.3949C111.229 89.3949 110.993 89.4411 110.77 89.5334C110.55 89.6233 110.37 89.7547 110.23 89.9276C110.091 90.098 110.015 90.304 110.003 90.5455H109.151C109.165 90.1643 109.28 89.8305 109.495 89.544C109.711 89.2552 109.992 89.0303 110.34 88.8693C110.691 88.7083 111.075 88.6278 111.494 88.6278C111.944 88.6278 112.33 88.719 112.652 88.9013C112.974 89.0812 113.222 89.3191 113.394 89.6151C113.567 89.911 113.654 90.2306 113.654 90.5739C113.654 90.9834 113.546 91.3326 113.33 91.6214C113.117 91.9103 112.827 92.1103 112.46 92.2216V92.2784C112.92 92.3542 113.278 92.5495 113.536 92.8643C113.794 93.1768 113.923 93.5639 113.923 94.0256C113.923 94.4209 113.816 94.776 113.6 95.0909C113.387 95.4034 113.096 95.6496 112.727 95.8295C112.357 96.0095 111.937 96.0994 111.466 96.0994ZM117.521 96.9091V87.8182H118.103V96.9091H117.521ZM119.481 90.5455C119.438 90.1856 119.266 89.9062 118.963 89.7074C118.66 89.5085 118.288 89.4091 117.847 89.4091C117.526 89.4091 117.244 89.4612 117.002 89.5653C116.763 89.6695 116.576 89.8127 116.441 89.995C116.309 90.1773 116.242 90.3845 116.242 90.6165C116.242 90.8106 116.289 90.9775 116.381 91.1172C116.476 91.2545 116.596 91.3693 116.743 91.4616C116.89 91.5516 117.044 91.6262 117.205 91.6854C117.366 91.7422 117.514 91.7884 117.649 91.8239L118.387 92.0227C118.577 92.0724 118.787 92.1411 119.019 92.2287C119.254 92.3163 119.477 92.4358 119.691 92.5874C119.906 92.7365 120.084 92.9283 120.223 93.1626C120.363 93.397 120.433 93.6847 120.433 94.0256C120.433 94.4186 120.33 94.7737 120.124 95.0909C119.92 95.4081 119.622 95.6603 119.229 95.8473C118.838 96.0343 118.364 96.1278 117.805 96.1278C117.284 96.1278 116.833 96.0438 116.452 95.8757C116.073 95.7076 115.775 95.4732 115.557 95.1726C115.342 94.8719 115.22 94.5227 115.191 94.125H116.1C116.124 94.3996 116.216 94.6269 116.377 94.8068C116.541 94.9844 116.747 95.117 116.995 95.2045C117.246 95.2898 117.516 95.3324 117.805 95.3324C118.141 95.3324 118.443 95.2779 118.71 95.169C118.978 95.0578 119.19 94.9039 119.346 94.7074C119.502 94.5085 119.58 94.2765 119.58 94.0114C119.58 93.7699 119.513 93.5734 119.378 93.4219C119.243 93.2704 119.066 93.1473 118.845 93.0526C118.625 92.9579 118.387 92.875 118.132 92.804L117.237 92.5483C116.669 92.3849 116.219 92.1518 115.887 91.8487C115.556 91.5457 115.39 91.1491 115.39 90.6591C115.39 90.2519 115.5 89.8968 115.72 89.5938C115.943 89.2884 116.241 89.0516 116.615 88.8835C116.992 88.7131 117.412 88.6278 117.876 88.6278C118.345 88.6278 118.761 88.7119 119.126 88.88C119.49 89.0457 119.779 89.273 119.992 89.5618C120.208 89.8506 120.321 90.1785 120.333 90.5455H119.481Z" fill="#0098EA"/>
<rect x="50" y="105" width="26" height="18" rx="4" fill="#0098EA" fill-opacity="0.05"/>
<path d="M55.9434 118.099C55.4083 118.099 54.9526 117.954 54.5762 117.663C54.1998 117.369 53.9121 116.944 53.7132 116.388C53.5144 115.829 53.415 115.154 53.415 114.364C53.415 113.578 53.5144 112.906 53.7132 112.35C53.9145 111.791 54.2033 111.365 54.5797 111.072C54.9585 110.776 55.4131 110.628 55.9434 110.628C56.4737 110.628 56.927 110.776 57.3034 111.072C57.6822 111.365 57.9711 111.791 58.1699 112.35C58.3712 112.906 58.4718 113.578 58.4718 114.364C58.4718 115.154 58.3723 115.829 58.1735 116.388C57.9746 116.944 57.687 117.369 57.3105 117.663C56.9341 117.954 56.4784 118.099 55.9434 118.099ZM55.9434 117.318C56.4737 117.318 56.8856 117.062 57.1792 116.551C57.4727 116.04 57.6195 115.311 57.6195 114.364C57.6195 113.734 57.552 113.198 57.4171 112.755C57.2845 112.312 57.0927 111.975 56.8418 111.743C56.5932 111.511 56.2937 111.395 55.9434 111.395C55.4178 111.395 55.007 111.654 54.7111 112.173C54.4152 112.689 54.2672 113.419 54.2672 114.364C54.2672 114.993 54.3335 115.528 54.4661 115.969C54.5987 116.409 54.7892 116.744 55.0378 116.974C55.2888 117.203 55.5906 117.318 55.9434 117.318ZM60.1923 118.057C60.0171 118.057 59.8668 117.994 59.7413 117.869C59.6158 117.743 59.5531 117.593 59.5531 117.418C59.5531 117.242 59.6158 117.092 59.7413 116.967C59.8668 116.841 60.0171 116.778 60.1923 116.778C60.3675 116.778 60.5178 116.841 60.6433 116.967C60.7688 117.092 60.8315 117.242 60.8315 117.418C60.8315 117.534 60.8019 117.64 60.7427 117.737C60.6859 117.834 60.609 117.912 60.5119 117.972C60.4172 118.028 60.3107 118.057 60.1923 118.057ZM62.3212 118V117.361L64.7218 114.733C65.0035 114.425 65.2355 114.158 65.4178 113.93C65.6001 113.701 65.735 113.485 65.8226 113.284C65.9126 113.08 65.9576 112.867 65.9576 112.645C65.9576 112.389 65.896 112.168 65.7729 111.981C65.6522 111.794 65.4864 111.649 65.2757 111.548C65.065 111.446 64.8283 111.395 64.5655 111.395C64.2862 111.395 64.0423 111.453 63.834 111.569C63.628 111.683 63.4682 111.842 63.3546 112.048C63.2433 112.254 63.1877 112.496 63.1877 112.773H62.3496C62.3496 112.347 62.4479 111.973 62.6444 111.651C62.8408 111.329 63.1084 111.078 63.4469 110.898C63.7878 110.718 64.1702 110.628 64.5939 110.628C65.0201 110.628 65.3977 110.718 65.7267 110.898C66.0558 111.078 66.3139 111.32 66.5009 111.626C66.6879 111.931 66.7814 112.271 66.7814 112.645C66.7814 112.912 66.7329 113.174 66.6358 113.43C66.5411 113.683 66.3754 113.966 66.1387 114.278C65.9043 114.589 65.5788 114.967 65.1621 115.415L63.5286 117.162V117.219H66.9093V118H62.3212ZM70.5208 118.909V109.818H71.1032V118.909H70.5208ZM72.481 112.545C72.4384 112.186 72.2656 111.906 71.9625 111.707C71.6595 111.509 71.2878 111.409 70.8475 111.409C70.5255 111.409 70.2438 111.461 70.0023 111.565C69.7632 111.67 69.5762 111.813 69.4412 111.995C69.3087 112.177 69.2424 112.384 69.2424 112.616C69.2424 112.811 69.2885 112.978 69.3809 113.117C69.4756 113.254 69.5963 113.369 69.7431 113.462C69.8899 113.552 70.0437 113.626 70.2047 113.685C70.3657 113.742 70.5137 113.788 70.6486 113.824L71.3873 114.023C71.5766 114.072 71.7873 114.141 72.0194 114.229C72.2537 114.316 72.4775 114.436 72.6905 114.587C72.906 114.737 73.0835 114.928 73.2232 115.163C73.3629 115.397 73.4327 115.685 73.4327 116.026C73.4327 116.419 73.3297 116.774 73.1238 117.091C72.9202 117.408 72.6219 117.66 72.2289 117.847C71.8382 118.034 71.3636 118.128 70.8049 118.128C70.284 118.128 69.833 118.044 69.4519 117.876C69.0731 117.708 68.7748 117.473 68.557 117.173C68.3416 116.872 68.2196 116.523 68.1912 116.125H69.1003C69.124 116.4 69.2163 116.627 69.3773 116.807C69.5407 116.984 69.7466 117.117 69.9952 117.205C70.2462 117.29 70.516 117.332 70.8049 117.332C71.141 117.332 71.4429 117.278 71.7104 117.169C71.9779 117.058 72.1898 116.904 72.3461 116.707C72.5023 116.509 72.5804 116.277 72.5804 116.011C72.5804 115.77 72.513 115.573 72.378 115.422C72.2431 115.27 72.0655 115.147 71.8453 115.053C71.6252 114.958 71.3873 114.875 71.1316 114.804L70.2367 114.548C69.6685 114.385 69.2187 114.152 68.8873 113.849C68.5558 113.546 68.3901 113.149 68.3901 112.659C68.3901 112.252 68.5002 111.897 68.7203 111.594C68.9429 111.288 69.2412 111.052 69.6152 110.884C69.9917 110.713 70.4119 110.628 70.8759 110.628C71.3446 110.628 71.7613 110.712 72.1259 110.88C72.4905 111.046 72.7793 111.273 72.9924 111.562C73.2078 111.851 73.3214 112.179 73.3333 112.545H72.481Z" fill="#0098EA"/>
<rect x="2.5" y="135" width="26" height="18" rx="4" fill="#0098EA" fill-opacity="0.05"/>
<path d="M9.21875 148.099C8.68371 148.099 8.22798 147.954 7.85156 147.663C7.47514 147.369 7.1875 146.944 6.98864 146.388C6.78977 145.829 6.69034 145.154 6.69034 144.364C6.69034 143.578 6.78977 142.906 6.98864 142.35C7.18987 141.791 7.47869 141.365 7.85511 141.072C8.2339 140.776 8.68845 140.628 9.21875 140.628C9.74905 140.628 10.2024 140.776 10.5788 141.072C10.9576 141.365 11.2464 141.791 11.4453 142.35C11.6465 142.906 11.7472 143.578 11.7472 144.364C11.7472 145.154 11.6477 145.829 11.4489 146.388C11.25 146.944 10.9624 147.369 10.5859 147.663C10.2095 147.954 9.75379 148.099 9.21875 148.099ZM9.21875 147.318C9.74905 147.318 10.161 147.062 10.4545 146.551C10.7481 146.04 10.8949 145.311 10.8949 144.364C10.8949 143.734 10.8274 143.198 10.6925 142.755C10.5599 142.312 10.3681 141.975 10.1172 141.743C9.86861 141.511 9.56913 141.395 9.21875 141.395C8.69318 141.395 8.28243 141.654 7.98651 142.173C7.69058 142.689 7.54261 143.419 7.54261 144.364C7.54261 144.993 7.6089 145.528 7.74148 145.969C7.87405 146.409 8.06463 146.744 8.31321 146.974C8.56416 147.203 8.866 147.318 9.21875 147.318ZM13.4677 148.057C13.2925 148.057 13.1422 147.994 13.0167 147.869C12.8912 147.743 12.8285 147.593 12.8285 147.418C12.8285 147.242 12.8912 147.092 13.0167 146.967C13.1422 146.841 13.2925 146.778 13.4677 146.778C13.6429 146.778 13.7932 146.841 13.9187 146.967C14.0442 147.092 14.1069 147.242 14.1069 147.418C14.1069 147.534 14.0773 147.64 14.0181 147.737C13.9613 147.834 13.8844 147.912 13.7873 147.972C13.6926 148.028 13.5861 148.057 13.4677 148.057ZM17.2843 140.727V148H16.4036V141.651H16.361L14.5854 142.83V141.935L16.4036 140.727H17.2843ZM21.5208 148.909V139.818H22.1032V148.909H21.5208ZM23.481 142.545C23.4384 142.186 23.2656 141.906 22.9625 141.707C22.6595 141.509 22.2878 141.409 21.8475 141.409C21.5255 141.409 21.2438 141.461 21.0023 141.565C20.7632 141.67 20.5762 141.813 20.4412 141.995C20.3087 142.177 20.2424 142.384 20.2424 142.616C20.2424 142.811 20.2885 142.978 20.3809 143.117C20.4756 143.254 20.5963 143.369 20.7431 143.462C20.8899 143.552 21.0437 143.626 21.2047 143.685C21.3657 143.742 21.5137 143.788 21.6486 143.824L22.3873 144.023C22.5766 144.072 22.7873 144.141 23.0194 144.229C23.2537 144.316 23.4775 144.436 23.6905 144.587C23.906 144.737 24.0835 144.928 24.2232 145.163C24.3629 145.397 24.4327 145.685 24.4327 146.026C24.4327 146.419 24.3297 146.774 24.1238 147.091C23.9202 147.408 23.6219 147.66 23.2289 147.847C22.8382 148.034 22.3636 148.128 21.8049 148.128C21.284 148.128 20.833 148.044 20.4519 147.876C20.0731 147.708 19.7748 147.473 19.557 147.173C19.3416 146.872 19.2196 146.523 19.1912 146.125H20.1003C20.124 146.4 20.2163 146.627 20.3773 146.807C20.5407 146.984 20.7466 147.117 20.9952 147.205C21.2462 147.29 21.516 147.332 21.8049 147.332C22.141 147.332 22.4429 147.278 22.7104 147.169C22.9779 147.058 23.1898 146.904 23.3461 146.707C23.5023 146.509 23.5804 146.277 23.5804 146.011C23.5804 145.77 23.513 145.573 23.378 145.422C23.2431 145.27 23.0655 145.147 22.8453 145.053C22.6252 144.958 22.3873 144.875 22.1316 144.804L21.2367 144.548C20.6685 144.385 20.2187 144.152 19.8873 143.849C19.5558 143.546 19.3901 143.149 19.3901 142.659C19.3901 142.252 19.5002 141.897 19.7203 141.594C19.9429 141.288 20.2412 141.052 20.6152 140.884C20.9917 140.713 21.4119 140.628 21.8759 140.628C22.3446 140.628 22.7613 140.712 23.1259 140.88C23.4905 141.046 23.7793 141.273 23.9924 141.562C24.2078 141.851 24.3214 142.179 24.3333 142.545H23.481Z" fill="#0098EA"/>
</svg>
