<svg width="32" height="32" viewBox="0 0 32 32" fill="none" xmlns="http://www.w3.org/2000/svg">
<mask id="mask0_474_4811" style="mask-type:alpha" maskUnits="userSpaceOnUse" x="0" y="0" width="32" height="32">
<rect width="32" height="32" fill="#D9D9D9"/>
</mask>
<g mask="url(#mask0_474_4811)">
<path d="M7.33301 26.9997V7.07677C7.33301 6.40326 7.56634 5.83317 8.03301 5.3665C8.49967 4.89984 9.06976 4.6665 9.74327 4.6665H22.256C22.9295 4.6665 23.4996 4.89984 23.9663 5.3665C24.4329 5.83317 24.6663 6.40326 24.6663 7.07677V26.9997L15.9996 23.2818L7.33301 26.9997ZM9.33297 23.9331L15.9996 21.0665L22.6663 23.9331V7.07677C22.6663 6.97419 22.6236 6.88016 22.5381 6.79467C22.4526 6.7092 22.3586 6.66647 22.256 6.66647H9.74327C9.6407 6.66647 9.54666 6.7092 9.46117 6.79467C9.37571 6.88016 9.33297 6.97419 9.33297 7.07677V23.9331Z" fill="#BDA2EB"/>
</g>
</svg>
