<svg width="1415" height="935" viewBox="0 0 1415 935" fill="none" xmlns="http://www.w3.org/2000/svg">
<path opacity="0.2" d="M1279.54 926.955C1204.73 927.632 1143.34 867.302 1142.66 792.491C1142.27 749.697 1161.54 710.107 1195.2 684.159C1195.28 684.042 1195.59 683.348 1195.3 682.996C1173.5 654.762 1161.04 638.482 1158.15 634.548C1155.91 632.867 1154.83 632.777 1154.89 632.813C1150.93 633.624 1035.57 663.331 975.099 678.897C965.403 681.339 954.758 676.886 949.764 668.271L846.758 491.219C846.117 490.259 843.796 487.628 841.814 487.634L646.061 509.723C639.099 510.062 631.577 514.541 629.598 517.81L509.573 678.391C499.772 691.515 483.448 698.836 467.022 697.097L255.832 675.525C254.852 675.53 251.851 676.325 250.554 677.84C249.08 679.561 240.318 692.002 232.26 703.738C232.343 703.974 232.481 704.188 232.567 704.308C257.271 729.519 271.049 762.788 271.372 797.992C272.02 872.805 211.707 934.247 136.902 934.92C62.1029 935.58 0.67392 875.257 0.00692302 800.434C-0.658074 725.634 59.6689 664.204 134.462 663.532C155.991 663.337 176.627 668.069 195.043 677.544L214.353 650.147C215.538 648.454 215.781 646.799 215.194 645.789L128.37 461.106C120.93 445.27 122.806 426.732 133.276 412.763L257.447 244.44C266.189 232.736 281.666 226.347 297.177 226.284C297.177 226.284 305.774 226.093 307.212 226.241L498.6 247.549C507.518 248.573 514.49 248.545 528.112 236.642C528.112 236.642 567.07 200.965 570.638 197.696C572.69 195.82 573.26 191.997 572.614 190.252C566.654 173.826 561.159 156.081 560.954 136.873C560.307 62.0594 620.602 0.680428 695.402 0.00543152C770.23 -0.660565 831.653 59.6534 832.317 134.488C832.406 142.101 831.736 150.013 830.443 157.713C829.677 162.641 832.31 167.923 834.169 169.213C836.742 170.952 869.543 188.525 893.922 202.009C911.672 211.989 921.734 226.411 917.908 246.408C903.755 319.366 878.72 443.761 879.393 439.641C876.964 447.289 884.157 464.911 884.188 464.946C888.003 471.543 977.795 625.753 979.438 628.707C979.888 629.539 982.043 630.292 984.728 629.436C989.856 627.822 1152.92 586.289 1159.86 584.513C1168.52 582.324 1178.2 585.697 1183.6 592.741C1201.11 615.625 1234.51 659.308 1235.74 660.789C1236.12 661.319 1236.97 661.89 1238.2 661.778C1250.97 657.788 1264.06 655.736 1277.13 655.613C1351.94 654.952 1413.36 715.263 1414.03 790.074C1414.68 864.864 1354.34 926.292 1279.54 926.955ZM605.145 235.527C603.856 234.534 602.958 234.598 602.905 234.539C601.448 234.555 599.723 236.026 598.455 237.113L597.287 238.047C595.628 239.326 580.04 253.661 570.612 262.395C558.843 273.292 555.756 290.905 562.961 306.291L624.609 437.851C631.465 452.442 646.994 461.311 663.371 459.402L807.973 442.981C824.538 441.083 837.795 428.87 840.954 412.598L868.476 270.637C871.569 254.65 864.046 238.529 849.736 230.558C836.401 223.036 815.71 211.405 813.935 210.495C810.575 209.287 806.811 210.405 804.738 212.724C779.419 247.768 738.489 268.918 695.298 269.307C663.733 269.581 634.244 258.544 605.145 235.527ZM592.393 469.741L515.302 305.261C511.535 297.2 503.734 291.639 494.917 290.762L309.423 271.905C308.643 271.811 307.87 271.792 306.652 271.761C298.806 271.853 291.31 275.668 286.603 281.966L178.193 427.61C172.593 435.138 171.57 445.122 175.576 453.671L252.636 618.137C256.417 626.161 264.218 631.745 273.024 632.637L458.548 651.507C459.486 651.582 460.428 651.64 461.312 651.635C469.155 651.582 476.659 647.742 481.368 641.419L589.769 495.778C595.369 488.234 596.369 478.242 592.393 469.741Z" fill="#68C4BF" fill-opacity="0.8"/>
</svg>
