<svg width="1080" height="935" viewBox="0 0 1080 935" fill="none" xmlns="http://www.w3.org/2000/svg">
<path opacity="0.2" d="M1280.33 926.974C1205.52 927.651 1144.13 867.321 1143.46 792.51C1143.07 749.716 1162.34 710.126 1195.99 684.178C1196.07 684.061 1196.38 683.367 1196.1 683.015C1174.29 654.781 1161.83 638.501 1158.94 634.567C1156.71 632.886 1155.63 632.796 1155.68 632.832C1151.73 633.643 1036.36 663.35 975.892 678.916C966.196 681.358 955.551 676.905 950.557 668.29L847.551 491.238C846.91 490.278 844.589 487.647 842.607 487.653L646.854 509.742C639.892 510.081 632.37 514.56 630.391 517.829L510.366 678.41C500.565 691.534 484.241 698.855 467.815 697.116L256.625 675.544C255.645 675.549 252.644 676.344 251.347 677.859C249.873 679.58 241.111 692.021 233.053 703.757C233.136 703.993 233.274 704.207 233.36 704.327C258.064 729.538 271.842 762.807 272.165 798.011C272.813 872.824 212.5 934.266 137.695 934.939C62.896 935.599 1.46688 875.276 0.799892 800.453C0.134856 725.653 60.4619 664.223 135.255 663.551C156.784 663.356 177.42 668.088 195.836 677.563L215.146 650.166C216.331 648.473 216.574 646.818 215.987 645.808L129.163 461.125C121.723 445.289 123.599 426.751 134.069 412.782L258.24 244.459C266.982 232.755 282.459 226.366 297.97 226.303C297.97 226.303 306.567 226.112 308.005 226.26L499.393 247.568C508.311 248.592 515.283 248.564 528.905 236.661C528.905 236.661 567.863 200.984 571.431 197.715C573.483 195.839 574.053 192.016 573.407 190.271C567.447 173.845 561.952 156.1 561.747 136.892C561.1 62.078 621.395 0.698983 696.195 0.0239862C771.023 -0.642011 832.446 59.672 833.11 134.507C833.199 142.12 832.529 150.032 831.236 157.732C830.47 162.66 833.103 167.942 834.962 169.232C837.535 170.971 870.336 188.544 894.715 202.028C912.465 212.008 922.527 226.43 918.701 246.427C904.548 319.385 879.513 443.78 880.186 439.66C877.757 447.308 884.95 464.93 884.981 464.965C888.796 471.562 978.588 625.772 980.231 628.726C980.681 629.558 982.836 630.311 985.521 629.455C990.649 627.841 1153.72 586.308 1160.66 584.532C1169.32 582.343 1179 585.716 1184.39 592.76C1201.9 615.644 1235.31 659.327 1236.53 660.808C1236.91 661.338 1237.76 661.909 1239 661.797C1251.77 657.807 1264.85 655.755 1277.92 655.632C1352.73 654.971 1414.15 715.282 1414.83 790.093C1415.47 864.883 1355.14 926.311 1280.33 926.974ZM605.938 235.546C604.649 234.553 603.751 234.617 603.698 234.558C602.241 234.574 600.516 236.045 599.248 237.132L598.08 238.066C596.421 239.345 580.833 253.68 571.405 262.414C559.636 273.311 556.549 290.924 563.754 306.31L625.402 437.87C632.258 452.461 647.787 461.33 664.164 459.421L808.766 443C825.331 441.102 838.588 428.889 841.747 412.617L869.269 270.656C872.362 254.669 864.839 238.548 850.529 230.577C837.194 223.055 816.503 211.424 814.728 210.514C811.368 209.306 807.604 210.424 805.531 212.743C780.212 247.787 739.282 268.937 696.091 269.326C664.526 269.6 635.037 258.563 605.938 235.546ZM593.186 469.76L516.095 305.28C512.328 297.219 504.527 291.658 495.71 290.781L310.216 271.924C309.436 271.83 308.663 271.811 307.445 271.78C299.599 271.872 292.103 275.687 287.396 281.985L178.986 427.629C173.386 435.157 172.363 445.141 176.369 453.69L253.429 618.156C257.21 626.18 265.011 631.764 273.817 632.656L459.341 651.526C460.279 651.601 461.221 651.659 462.105 651.654C469.948 651.601 477.452 647.761 482.161 641.438L590.562 495.797C596.162 488.253 597.162 478.261 593.186 469.76Z" fill="#BDA2EB"/>
</svg>
