<svg width="1266" height="662" viewBox="0 0 1266 662" fill="none" xmlns="http://www.w3.org/2000/svg">
<path d="M912.43 475.09L855.868 342.148C850.052 328.474 837.309 318.842 822.56 317.043L679.212 299.681C664.464 297.886 649.881 304.092 640.952 315.964L554.087 431.451C545.158 443.323 543.24 459.056 549.057 472.728L605.604 605.633C611.421 619.306 624.082 629.045 638.826 630.844L782.267 648.185C797.014 649.985 811.608 643.721 820.538 631.849L907.396 516.366C916.327 504.496 918.245 488.762 912.43 475.09Z" fill="#FAF9FB"/>
<path d="M586.723 259.773L554.979 183.459C551.715 175.61 544.469 170.041 536.04 168.944L454.114 158.349C445.685 157.254 437.314 160.737 432.151 167.488L381.924 233.154C376.761 239.905 375.592 248.896 378.856 256.744L410.592 333.037C413.857 340.886 421.055 346.516 429.481 347.614L511.46 358.196C519.888 359.294 528.266 355.778 533.43 349.027L583.652 283.364C588.817 276.614 589.986 267.622 586.723 259.773Z" fill="#FCF4DB"/>
<circle opacity="0.15" cx="111.5" cy="466.5" r="111.5" fill="#C4686D"/>
<circle cx="1154.5" cy="454.5" r="111.5" fill="#EDF7F6"/>
<circle cx="795" cy="80" r="80" fill="#F0EEF4"/>
</svg>
