<svg width="36" height="34" viewBox="0 0 36 34" fill="none" xmlns="http://www.w3.org/2000/svg">
<path d="M18 33.53L15.39 31.19C12.36 28.46 9.855 26.105 7.875 24.125C5.895 22.145 4.32 20.3675 3.15 18.7925C1.98 17.2175 1.1625 15.77 0.6975 14.45C0.2325 13.13 0 11.78 0 10.4C0 7.58 0.945 5.225 2.835 3.335C4.725 1.445 7.08 0.5 9.9 0.5C11.46 0.5 12.945 0.83 14.355 1.49C15.765 2.15 16.98 3.08 18 4.28C19.02 3.08 20.235 2.15 21.645 1.49C23.055 0.83 24.54 0.5 26.1 0.5C28.92 0.5 31.275 1.445 33.165 3.335C35.055 5.225 36 7.58 36 10.4C36 11.78 35.7675 13.13 35.3025 14.45C34.8375 15.77 34.02 17.2175 32.85 18.7925C31.68 20.3675 30.105 22.145 28.125 24.125C26.145 26.105 23.64 28.46 20.61 31.19L18 33.53ZM18 28.67C20.88 26.09 23.25 23.8775 25.11 22.0325C26.97 20.1875 28.44 18.5825 29.52 17.2175C30.6 15.8525 31.35 14.6375 31.77 13.5725C32.19 12.5075 32.4 11.45 32.4 10.4C32.4 8.6 31.8 7.1 30.6 5.9C29.4 4.7 27.9 4.1 26.1 4.1C24.69 4.1 23.385 4.4975 22.185 5.2925C20.985 6.0875 20.16 7.1 19.71 8.33H16.29C15.84 7.1 15.015 6.0875 13.815 5.2925C12.615 4.4975 11.31 4.1 9.9 4.1C8.1 4.1 6.6 4.7 5.4 5.9C4.2 7.1 3.6 8.6 3.6 10.4C3.6 11.45 3.81 12.5075 4.23 13.5725C4.65 14.6375 5.4 15.8525 6.48 17.2175C7.56 18.5825 9.03 20.1875 10.89 22.0325C12.75 23.8775 15.12 26.09 18 28.67Z" fill="white"/>
</svg>
