<svg width="64" height="82" viewBox="0 0 64 82" fill="none" xmlns="http://www.w3.org/2000/svg">
<path fill-rule="evenodd" clip-rule="evenodd" d="M21.5253 80.9383C14.332 80.9383 7.20393 80.9383 0 80.9383C0 54.1986 0 27.5072 0 0.759766C7.19998 0.759766 14.3276 0.759766 21.5253 0.759766C21.5253 27.5039 21.5253 54.1918 21.5253 80.9383ZM19.7814 2.61169C19.5393 2.57279 19.3559 2.51794 19.1725 2.51771C13.6502 2.51209 8.12783 2.52919 2.60572 2.49451C1.62107 2.48841 1.70268 3.07854 1.70268 3.71787C1.70407 28.4671 1.70894 53.2159 1.68552 77.9652C1.68459 78.9455 1.98136 79.2188 2.9361 79.2108C8.18765 79.1686 13.4399 79.1918 18.6919 79.1876C19.0299 79.1874 19.3677 79.1443 19.7814 79.1161C19.7814 53.5874 19.7814 28.124 19.7814 2.61169Z" fill="white"/>
<path fill-rule="evenodd" clip-rule="evenodd" d="M44.7779 81.7228C34.0555 81.7223 25.5748 73.0952 25.5811 62.1951C25.5873 51.4349 34.1962 42.8821 45.0153 42.8877C55.5124 42.8931 64.0049 51.6901 63.9994 62.552C63.994 73.0882 55.3362 81.7233 44.7779 81.7228ZM44.7436 79.9705C54.2584 80.0065 62.1982 72.1168 62.2362 62.5879C62.2754 52.7365 54.5769 44.7113 45.0478 44.6702C35.2038 44.6278 27.3296 52.4466 27.3148 62.278C27.3002 72.0125 35.1034 79.9337 44.7436 79.9705Z" fill="white"/>
<path fill-rule="evenodd" clip-rule="evenodd" d="M44.726 38.8351C34.0706 38.8344 25.5785 30.2036 25.5811 19.3779C25.5836 8.5802 34.1656 -0.00421695 44.9537 1.5541e-06C55.5291 0.00445442 64.0082 8.78527 63.9996 19.7241C63.9913 30.2326 55.3146 38.836 44.726 38.8351ZM44.8405 37.0832C54.4737 37.0647 62.2427 29.155 62.2362 19.3718C62.2299 9.65358 54.3791 1.77224 44.7151 1.78255C35.1125 1.79263 27.2617 9.78529 27.3148 19.4975C27.3681 29.2581 35.1848 37.1017 44.8405 37.0832Z" fill="white"/>
<path fill-rule="evenodd" clip-rule="evenodd" d="M44.7317 32.9524C37.3467 32.9383 31.3704 26.8292 31.401 19.3252C31.4311 11.9311 37.4809 5.88925 44.8305 5.91316C52.2294 5.9373 58.1746 12.0213 58.1498 19.5438C58.1257 26.9445 52.0995 32.966 44.7317 32.9524ZM44.7546 31.1693C51.0982 31.1874 56.3771 25.914 56.4165 19.5195C56.4562 13.0881 51.171 7.69126 44.8082 7.66618C38.5029 7.6411 33.2027 12.9585 33.1651 19.3475C33.1271 25.8257 38.3478 31.1511 44.7546 31.1693Z" fill="white"/>
<path fill-rule="evenodd" clip-rule="evenodd" d="M44.8136 12.1173C48.9231 12.1377 52.0377 15.3315 52.0136 19.5004C51.9899 23.559 48.7916 26.8002 44.8064 26.8035C40.8077 26.8068 37.4789 23.4545 37.4859 19.4322C37.4928 15.3679 40.7695 12.0974 44.8136 12.1173ZM39.249 19.3429C39.1797 22.3312 41.7446 25.0046 44.7192 25.0444C47.6732 25.0838 50.294 22.4817 50.3327 19.4715C50.3709 16.5003 47.7564 13.8415 44.7869 13.8316C41.8596 13.8223 39.3186 16.3508 39.249 19.3429Z" fill="white"/>
<path fill-rule="evenodd" clip-rule="evenodd" d="M46.1958 19.3994C46.2134 20.2721 45.6322 20.8754 44.7574 20.8468C43.8924 20.8182 43.4023 20.3675 43.3956 19.4643C43.3891 18.585 43.8173 18.0759 44.696 18.0159C45.5675 17.9564 46.1782 18.5346 46.1958 19.3994Z" fill="white"/>
</svg>
