<svg width="365" height="658" viewBox="0 0 365 658" fill="none" xmlns="http://www.w3.org/2000/svg">
<path opacity="0.5" d="M101.266 605.371C94.6616 570.726 117.098 537.235 151.283 530.707C170.841 526.971 190.588 532.616 205.296 546.073C205.355 546.103 205.706 546.187 205.837 546.027C216.923 533.566 223.321 526.432 224.887 524.762C225.461 523.589 225.405 523.11 225.405 523.11C224.701 521.339 201.386 470.293 189.161 443.541C187.217 439.248 188.369 433.939 191.889 430.907L264.252 368.416C264.638 368.038 265.644 366.744 265.474 365.825L238.868 276.862C238.132 273.656 235.448 270.54 233.78 269.899L150.165 227.564C143.336 224.111 138.609 217.143 138.017 209.378L130.101 109.619C130.017 109.166 129.397 107.848 128.597 107.371C127.685 106.827 121.249 103.797 115.199 101.035C115.096 101.095 115.01 101.172 114.965 101.221C105.503 114.774 91.4301 123.931 75.3489 127.007C41.1635 133.529 7.95876 110.654 1.35404 76.0096C-5.25716 41.3659 17.1837 7.85998 51.3691 1.33838C85.5545 -5.18321 118.752 17.6861 125.363 52.3298C127.262 62.297 126.835 72.2682 124.049 81.5909L138.216 88.2732C139.097 88.6869 139.876 88.6577 140.286 88.3029L217.506 32.682C224.128 27.9119 232.766 27.2445 240.049 30.9392L327.554 74.5488C333.652 77.6349 337.716 82.1895 339.051 89.3741L339.303 90.7299C339.427 91.3998 339.623 92.0564 339.676 92.7395L346.449 186.671C346.739 190.898 347.338 194.122 353.926 199.454C353.926 199.454 373.54 214.561 375.339 215.946C376.373 216.746 378.165 216.684 378.913 216.239C385.931 212.116 393.588 208.084 402.366 206.399C436.551 199.878 469.729 222.751 476.34 257.394C482.946 292.046 460.512 325.55 426.321 332.08C422.838 332.747 419.163 333.097 415.529 333.134C413.207 333.192 411.014 334.849 410.578 335.82C410.002 337.157 404.72 353.832 400.6 366.263C397.531 375.326 391.776 381.191 382.302 381.077C347.717 380.573 288.659 379.297 290.604 379.268C286.899 378.774 279.428 383.593 279.428 383.593C276.735 385.914 213.707 440.38 212.493 441.386C212.155 441.66 211.991 442.723 212.605 443.9C213.779 446.141 246.534 518.335 247.929 521.405C249.661 525.241 248.931 530.01 246.16 533.1C237.168 543.12 219.979 562.246 219.41 562.936C219.203 563.158 219.011 563.601 219.162 564.164C222.058 569.754 224.106 575.651 225.264 581.707C231.869 616.352 209.441 649.855 175.251 656.385C141.071 662.898 107.871 640.016 101.266 605.371ZM360.93 235.092C361.274 234.416 361.171 234.007 361.191 233.97C361.06 233.301 360.243 232.624 359.641 232.124L359.112 231.659C358.386 230.999 350.513 224.961 345.719 221.313C339.743 216.751 331.416 216.783 324.988 221.408L269.958 260.935C263.863 265.329 261.107 273.267 263.367 280.701L283.065 346.414C285.329 353.942 292.035 359.076 299.752 359.191L367.046 360.16C374.621 360.267 381.367 355.44 383.811 348.138C386.133 341.327 389.714 330.763 389.983 329.864C390.251 328.204 389.414 326.552 388.185 325.781C370.012 316.949 356.882 299.72 353.066 279.721C350.276 265.103 352.847 250.507 360.93 235.092ZM252.657 248.639L321.442 199.219C324.814 196.799 326.697 192.719 326.359 188.556L319.365 100.943C319.337 100.575 319.284 100.217 319.191 99.6437C318.49 96.0169 316.113 92.8577 312.835 91.1977L237.037 53.0085C233.118 51.0395 228.464 51.3946 224.892 53.9607L156.092 103.377C152.74 105.793 150.85 109.874 151.18 114.032L158.177 201.658C158.212 202.1 158.266 202.538 158.345 202.959C159.039 206.587 161.423 209.751 164.713 211.402L240.505 249.593C244.437 251.559 249.096 251.196 252.657 248.639Z" fill="#D5ECEB"/>
</svg>
