<svg width="202" height="74" viewBox="0 0 202 74" fill="none" xmlns="http://www.w3.org/2000/svg">
<path d="M51.6962 7.06759C51.7159 10.9825 48.3466 14.1826 44.1852 14.2018C41.8042 14.213 39.6061 13.1964 38.1708 11.4296C38.1645 11.4251 38.1251 11.4088 38.1062 11.4236C36.5307 12.5588 35.6228 13.2076 35.4021 13.3581C35.3091 13.4745 35.3044 13.5308 35.3051 13.5279C35.3493 13.7355 36.9752 19.779 37.828 22.9465C37.9628 23.4544 37.7114 24.0105 37.2314 24.27L27.359 29.6226C27.3054 29.6559 27.1588 29.7768 27.1588 29.8806L28.3434 40.1289C28.36 40.4937 28.6075 40.8882 28.7895 40.992L37.6948 47.3077C38.4223 47.823 38.8258 48.6793 38.7257 49.5387L37.4773 60.5863C37.4773 60.6375 37.5214 60.7939 37.605 60.8621C37.7003 60.94 38.3907 61.4012 39.0417 61.8253C39.0551 61.8208 39.067 61.8142 39.0733 61.8097C40.4817 60.5226 42.3362 59.8085 44.294 59.7989C48.4554 59.7804 51.8594 62.9501 51.8791 66.8649C51.8996 70.7798 48.5295 73.9814 44.368 73.9999C40.2066 74.0185 36.8034 70.8495 36.7829 66.9346C36.7774 65.8084 37.0454 64.7288 37.5766 63.7679L36.057 62.7514C35.9625 62.6883 35.8702 62.6757 35.8143 62.7061L25.5211 67.2104C24.6384 67.5967 23.6082 67.4944 22.8327 66.9435L13.4979 60.4099C12.8485 59.9494 12.3306 59.2169 12.3306 58.4057V58.4042C12.3306 58.3286 12.4615 58.2545 12.4701 58.1788L13.7257 47.7903C13.784 47.3232 13.784 46.9592 13.1259 46.2437C13.1259 46.2437 11.15 44.1973 10.9687 44.0097C10.8647 43.9014 10.6527 43.8718 10.555 43.9051C9.63991 44.2128 8.65158 44.4976 7.58285 44.5035C3.42143 44.522 0.0205778 41.3531 8.59811e-05 37.4382C-0.0196177 33.5226 3.34971 30.321 7.51192 30.3017C7.93594 30.2995 8.37573 30.3358 8.80369 30.4055C9.07796 30.4463 9.37194 30.3099 9.44445 30.2127C9.5414 30.0785 10.5266 28.3658 11.2824 27.0927C11.8412 26.1659 12.6459 25.6424 13.7572 25.8471C17.8122 26.6034 24.7274 27.9402 24.4981 27.9039C24.9229 28.0329 25.9041 27.6599 25.9065 27.6584C26.2738 27.4597 34.8732 22.7938 35.038 22.7085C35.0837 22.6855 35.1262 22.5728 35.0797 22.432C34.9907 22.1635 32.7169 13.6205 32.6199 13.2572C32.5001 12.8035 32.6901 12.2978 33.0834 12.0168C34.3594 11.1055 36.7979 9.36683 36.8799 9.30307C36.909 9.28305 36.9413 9.23856 36.9358 9.17406C36.7175 8.50527 36.6056 7.82017 36.6016 7.13581C36.5819 3.22094 39.9505 0.0193523 44.1127 7.45432e-05C48.2733 -0.0177203 51.6765 3.15273 51.6962 7.06759ZM13.081 42.2124C13.0258 42.2791 13.0289 42.3258 13.0258 42.3296C13.0266 42.4052 13.1078 42.4956 13.1677 42.5624L13.2197 42.6239C13.2906 42.7107 14.0843 43.5292 14.5682 44.0245C15.1711 44.6436 16.1508 44.809 17.0075 44.4345L24.3404 41.2367C25.153 40.8808 25.6503 40.0704 25.5471 39.2132L24.6667 31.6423C24.5651 30.7748 23.8888 30.0785 22.984 29.9095L15.0939 28.4392C14.2057 28.2739 13.3072 28.6639 12.8603 29.4112C12.4386 30.1075 11.7868 31.1878 11.7356 31.2804C11.6678 31.4562 11.7301 31.6534 11.8578 31.7624C13.8013 33.0948 14.9686 35.2413 14.9804 37.5012C14.9891 39.1532 14.368 40.6939 13.081 42.2124ZM26.1059 42.9294L16.9397 46.928C16.4905 47.1238 16.18 47.5308 16.1287 47.992L15.0371 57.6954C15.0324 57.7362 15.0308 57.7762 15.0293 57.8407C15.0324 58.2507 15.2429 58.6437 15.592 58.8914L23.6689 64.5961C24.0867 64.8904 24.6415 64.9461 25.1175 64.7384L34.2853 60.7405C34.7322 60.5448 35.0435 60.1377 35.0955 59.6773L36.1871 49.9724C36.1926 49.9235 36.1957 49.8746 36.1957 49.8271C36.1934 49.4171 35.9822 49.0234 35.6314 48.7765L27.5553 43.0718C27.136 42.7774 26.5804 42.7225 26.1059 42.9294Z" fill="white"/>
<path d="M68.0742 33.6791L64.6182 28.851C64.4724 28.8672 64.2556 28.8749 63.9656 28.8749H60.1455V33.6791H57.0039V17.1953H63.9656C65.4308 17.1953 66.7084 17.4311 67.796 17.901C68.8844 18.3726 69.7175 19.0476 70.2976 19.9269C70.8777 20.8062 71.1677 21.8505 71.1677 23.06C71.1677 24.3003 70.8564 25.3677 70.2369 26.2623C69.6166 27.157 68.726 27.8251 67.5651 28.2643L71.4569 33.6798L68.0742 33.6791ZM66.9385 20.6334C66.2284 20.0682 65.1896 19.7856 63.8198 19.7856H60.1455V26.356H63.8198C65.1896 26.356 66.2284 26.0704 66.9385 25.4967C67.6463 24.9238 68.0017 24.1106 68.0017 23.06C68.0017 22.0064 67.647 21.1986 66.9385 20.6334Z" fill="white"/>
<path d="M87.3618 31.1134V33.6798H74.6719V17.1953H87.0229V19.7618H77.8142V24.0476H85.9841V26.568H77.8142V31.1134H87.3618Z" fill="white"/>
<path d="M92.3287 33.3726C91.1118 33.0125 90.1487 32.5341 89.4409 31.9358L90.5286 29.5575C91.2206 30.0913 92.0702 30.5274 93.0774 30.8638C94.0839 31.2017 95.0967 31.3706 96.111 31.3706C97.3681 31.3706 98.3068 31.174 98.9278 30.7816C99.5473 30.39 99.8579 29.8709 99.8579 29.2281C99.8579 28.7566 99.6845 28.368 99.3385 28.0616C98.9925 27.7552 98.5527 27.5164 98.0207 27.3428C97.4887 27.17 96.7636 26.9742 95.8454 26.7538C94.556 26.4558 93.5125 26.1579 92.7149 25.8599C91.9181 25.5612 91.2324 25.0943 90.661 24.4577C90.0888 23.8226 89.8027 22.9625 89.8027 21.8797C89.8027 20.9689 90.0557 20.1411 90.5648 19.3954C91.0724 18.6498 91.8369 18.0569 92.8607 17.6169C93.8837 17.1784 95.1369 16.958 96.6194 16.958C97.6503 16.958 98.6662 17.084 99.6648 17.3351C100.663 17.5862 101.526 17.9479 102.251 18.4179L101.26 20.7969C100.519 20.3738 99.7452 20.0513 98.9405 19.8316C98.1342 19.612 97.3523 19.5014 96.5949 19.5014C95.3536 19.5014 94.4315 19.7057 93.827 20.1142C93.2217 20.522 92.9206 21.0634 92.9206 21.7384C92.9206 22.2092 93.094 22.5947 93.4408 22.8926C93.7868 23.1913 94.2258 23.4256 94.7578 23.5991C95.289 23.7727 96.0149 23.9677 96.933 24.1881C98.1901 24.4707 99.221 24.7656 100.027 25.0713C100.833 25.3761 101.522 25.8446 102.095 26.472C102.666 27.1001 102.952 27.9487 102.952 29.0161C102.952 29.9277 102.698 30.7509 102.191 31.4889C101.683 32.2277 100.913 32.8167 99.8823 33.2559C98.8506 33.6944 97.5935 33.9148 96.111 33.9148C94.8066 33.9148 93.5448 33.7343 92.3287 33.3726Z" fill="white"/>
<path d="M106.07 17.1953H109.211V33.6798H106.07V17.1953Z" fill="white"/>
<path d="M113.779 17.1953H116.921V31.0896H125.768V33.6798H113.779V17.1953Z" fill="white"/>
<path d="M128.259 17.1953H131.401V33.6798H128.259V17.1953Z" fill="white"/>
<path d="M148.657 31.1134V33.6798H135.969V17.1953H148.32V19.7618H139.11V24.0476H147.279V26.568H139.11V31.1134H148.657Z" fill="white"/>
<path d="M167.194 17.1953V33.6798H164.608L155.279 22.5179V33.6798H152.162V17.1953H154.747L164.077 28.358V17.1953H167.194Z" fill="white"/>
<path d="M174.943 32.8197C173.565 32.0894 172.484 31.0804 171.704 29.7933C170.922 28.5062 170.532 27.0541 170.532 25.4368C170.532 23.8195 170.927 22.3666 171.717 21.0795C172.506 19.7925 173.59 18.7834 174.968 18.0539C176.346 17.3235 177.887 16.958 179.596 16.958C180.981 16.958 182.246 17.1945 183.389 17.6653C184.534 18.136 185.501 18.8187 186.29 19.7134L184.261 21.5748C183.035 20.287 181.529 19.6427 179.741 19.6427C178.581 19.6427 177.542 19.8892 176.624 20.3845C175.704 20.8799 174.988 21.5664 174.472 22.4457C173.956 23.3257 173.699 24.3217 173.699 25.4376C173.699 26.5518 173.956 27.5494 174.472 28.4287C174.988 29.3087 175.704 29.9953 176.624 30.489C177.542 30.9844 178.581 31.2316 179.741 31.2316C181.53 31.2316 183.036 30.5797 184.261 29.2765L186.29 31.1602C185.501 32.0556 184.53 32.7383 183.379 33.2098C182.226 33.6798 180.958 33.9163 179.571 33.9163C177.863 33.9148 176.32 33.5493 174.943 32.8197Z" fill="white"/>
<path d="M202 31.1134V33.6798H189.31V17.1953H201.661V19.7618H192.451V24.0476H200.622V26.568H192.451V31.1134H202Z" fill="white"/>
<path d="M72.037 43.167V60.008H68.8955V52.791H60.1455V60.008H57.0039V43.167H60.1455V50.1196H68.8955V43.167H72.037Z" fill="white"/>
<path d="M89.2718 57.386V60.008H76.5811V43.167H88.9321V45.7889H79.7226V50.1682H87.8925V52.7431H79.7226V57.386H89.2718Z" fill="white"/>
<path d="M92.7754 43.167H95.9169V57.3617H104.765V60.008H92.7754V43.167Z" fill="white"/>
<path d="M118.045 43.888C119.132 44.3705 119.966 45.0593 120.547 45.9576C121.127 46.8567 121.417 47.9229 121.417 49.1585C121.417 50.3769 121.128 51.44 120.547 52.3453C119.967 53.2523 119.132 53.9458 118.045 54.4267C116.957 54.9077 115.68 55.1493 114.214 55.1493H110.396V60.008H107.253V43.167H114.214C115.68 43.167 116.957 43.4086 118.045 43.888ZM117.186 51.6361C117.896 51.0595 118.251 50.2326 118.251 49.1585C118.251 48.0829 117.897 47.2568 117.186 46.6802C116.479 46.1027 115.438 45.814 114.069 45.814H110.396V52.5023H114.069C115.438 52.5015 116.479 52.2128 117.186 51.6361Z" fill="white"/>
</svg>
