<svg width="20" height="20" viewBox="0 0 20 20" fill="none" xmlns="http://www.w3.org/2000/svg">
<path d="M18.3153 10.2931C18.3258 9.66813 18.2631 9.04413 18.1286 8.43457H9.83398V11.8083H14.7028C14.6106 12.3998 14.4031 12.966 14.0927 13.4729C13.7823 13.9798 13.3755 14.4168 12.8967 14.7577L12.8797 14.8707L15.5025 16.9613L15.6841 16.98C17.3527 15.3941 18.315 13.0607 18.315 10.2931" fill="#4285F4"/>
<path d="M9.83571 19.1827C12.221 19.1827 14.2235 18.3745 15.6863 16.9806L12.8984 14.7582C12.1524 15.2937 11.1512 15.6675 9.83571 15.6675C8.71851 15.6608 7.63174 15.2922 6.72958 14.6141C5.82741 13.936 5.15568 12.9827 4.80968 11.8896L4.70614 11.8987L1.979 14.0704L1.94336 14.1724C2.67784 15.6787 3.80503 16.945 5.19889 17.8298C6.59274 18.7146 8.1983 19.183 9.83605 19.1827" fill="#34A853"/>
<path d="M4.80866 11.8893C4.61542 11.3106 4.5157 10.7033 4.51349 10.0914C4.51705 9.48049 4.61308 8.87391 4.79813 8.29345L4.79321 8.17293L2.03264 5.96631L1.94234 6.0105C1.32274 7.27633 1 8.67395 1 10.0913C1 11.5086 1.32274 12.9062 1.94234 14.1721L4.80866 11.8893Z" fill="#FBBC05"/>
<path d="M9.83409 4.51579C11.1 4.49556 12.3244 4.9807 13.2502 5.86939L15.7436 3.36427C14.1444 1.82053 12.0267 0.973497 9.83409 1.00063C8.19637 1.00023 6.59082 1.46861 5.19696 2.35338C3.80311 3.23816 2.67591 4.50446 1.94141 6.01069L4.79822 8.29364C5.14763 7.20073 5.82159 6.24823 6.72508 5.57045C7.62857 4.89266 8.71601 4.52377 9.83409 4.51579Z" fill="#EB4335"/>
</svg>
