<svg width="844" height="841" viewBox="0 0 844 841" fill="none" xmlns="http://www.w3.org/2000/svg">
<path d="M842.956 541.227L797.784 215.378C793.141 181.864 769.799 152.62 736.722 139.096L415.162 7.91707C382.085 -5.59809 344.206 -1.61409 315.783 18.3719L39.2736 212.787C10.8496 232.775 -3.79783 265.724 0.84937 299.233L46.0107 624.993C50.6563 658.506 73.7397 687.93 106.804 701.451L428.592 832.644C461.664 846.17 499.605 842.066 528.033 822.08L804.522 627.669C832.95 607.687 847.598 574.736 842.956 541.227Z" fill="white"/>
<path d="M809.517 535.714L767.725 235.068C763.43 204.146 741.889 177.157 711.375 164.667L414.73 43.5154C384.216 31.0334 349.279 34.6944 323.071 53.1224L68.1059 232.382C41.8966 250.812 28.3993 281.206 32.6987 312.123L74.4804 612.687C78.7784 643.608 100.081 670.763 130.584 683.251L427.438 804.415C457.947 816.907 492.942 813.136 519.154 794.708L774.101 615.451C800.314 597.027 813.812 566.632 809.517 535.714Z" fill="white"/>
</svg>
