<svg width="30" height="30" viewBox="0 0 30 30" fill="none" xmlns="http://www.w3.org/2000/svg">
<mask id="mask0_474_2315" style="mask-type:alpha" maskUnits="userSpaceOnUse" x="0" y="0" width="30" height="30">
<rect width="30" height="30" fill="#D9D9D9"/>
</mask>
<g mask="url(#mask0_474_2315)">
<path d="M7.87498 26.625C7.35936 26.625 6.91795 26.4414 6.55077 26.0742C6.18359 25.7071 6 25.2656 6 24.75V12.8625C6 12.3469 6.18359 11.9055 6.55077 11.5383C6.91795 11.1711 7.35936 10.9875 7.87498 10.9875H9.56251V8.43749C9.56251 6.93312 10.0929 5.65078 11.1535 4.59047C12.2142 3.53016 13.4971 3 15.002 3C16.5069 3 17.7891 3.53016 18.8484 4.59047C19.9078 5.65078 20.4375 6.93312 20.4375 8.43749V10.9875H22.125C22.6406 10.9875 23.082 11.1711 23.4492 11.5383C23.8164 11.9055 24 12.3469 24 12.8625V24.75C24 25.2656 23.8164 25.7071 23.4492 26.0742C23.082 26.4414 22.6406 26.625 22.125 26.625H7.87498ZM7.87498 24.75H22.125V12.8625H7.87498V24.75ZM15.0031 21C15.6073 21 16.1234 20.7889 16.5516 20.3666C16.9797 19.9443 17.1937 19.4367 17.1937 18.8437C17.1937 18.2625 16.9786 17.7453 16.5484 17.2922C16.1182 16.8391 15.601 16.6125 14.9968 16.6125C14.3927 16.6125 13.8766 16.8391 13.4484 17.2922C13.0203 17.7453 12.8063 18.2656 12.8063 18.8531C12.8063 19.4406 13.0214 19.9453 13.4516 20.3672C13.8818 20.7891 14.399 21 15.0031 21ZM11.4375 10.9875H18.5625V8.43749C18.5625 7.4479 18.2164 6.60676 17.5241 5.91406C16.8318 5.22134 15.9912 4.87498 15.0022 4.87498C14.0132 4.87498 13.1719 5.22134 12.4781 5.91406C11.7844 6.60676 11.4375 7.4479 11.4375 8.43749V10.9875Z" fill="#8A8894"/>
</g>
</svg>
