<svg width="208" height="80" viewBox="0 0 208 80" fill="none" xmlns="http://www.w3.org/2000/svg">
<path d="M53.5691 7.99097C53.5892 12.1539 50.1413 15.5567 45.8828 15.5772C43.4463 15.5891 41.1969 14.5081 39.7282 12.6293C39.7217 12.6246 39.6814 12.6072 39.6621 12.623C38.0498 13.8301 37.1207 14.5199 36.8948 14.68C36.7997 14.8038 36.7948 14.8637 36.7956 14.8606C36.8408 15.0813 38.5047 21.5078 39.3774 24.876C39.5153 25.416 39.258 26.0074 38.7668 26.2833L28.6642 31.975C28.6094 32.0105 28.4593 32.139 28.4593 32.2494L29.6716 43.147C29.6885 43.5349 29.9417 43.9544 30.1281 44.0647L39.241 50.7806C39.9855 51.3285 40.3984 52.2392 40.296 53.153L39.0184 64.9006C39.0184 64.955 39.0636 65.1213 39.1491 65.1938C39.2467 65.2766 39.9532 65.767 40.6194 66.218C40.6331 66.2133 40.6452 66.2062 40.6517 66.2015C42.0929 64.8327 43.9907 64.0735 45.9941 64.0632C50.2526 64.0435 53.736 67.4141 53.7562 71.577C53.7772 75.7399 50.3284 79.1443 46.07 79.164C41.8115 79.1837 38.3289 75.814 38.3079 71.6511C38.3022 70.4535 38.5765 69.3055 39.1201 68.2837L37.5651 67.2028C37.4683 67.1358 37.3739 67.1223 37.3167 67.1547L26.7834 71.9444C25.8801 72.3552 24.8259 72.2463 24.0323 71.6605L14.4797 64.7129C13.8152 64.2233 13.2853 63.4443 13.2853 62.5818V62.5802C13.2853 62.4998 13.4191 62.4209 13.428 62.3405L14.7128 51.2939C14.7725 50.7971 14.7725 50.41 14.0991 49.6492C14.0991 49.6492 12.0771 47.4731 11.8916 47.2737C11.7851 47.1585 11.5682 47.127 11.4681 47.1625C10.5318 47.4897 9.52037 47.7924 8.42672 47.7987C4.16823 47.8185 0.68805 44.4487 0.66708 40.2858C0.646917 36.1221 4.09484 32.7177 8.35413 32.6972C8.78804 32.6948 9.23809 32.7334 9.67603 32.8076C9.95671 32.8509 10.2575 32.7059 10.3317 32.6026C10.4309 32.4599 11.4391 30.6386 12.2126 29.2849C12.7844 28.2993 13.6079 27.7427 14.7451 27.9603C18.8947 28.7645 25.9712 30.186 25.7365 30.1474C26.1712 30.2846 27.1753 29.888 27.1778 29.8864C27.5536 29.6751 36.3537 24.7135 36.5222 24.6229C36.569 24.5984 36.6126 24.4786 36.565 24.3288C36.4738 24.0434 34.147 14.9591 34.0478 14.5728C33.9252 14.0903 34.1196 13.5525 34.522 13.2537C35.8278 12.2848 38.3232 10.4359 38.4071 10.3681C38.4369 10.3468 38.47 10.2995 38.4644 10.2309C38.241 9.51973 38.1264 8.79122 38.1224 8.06351C38.1022 3.9006 41.5493 0.496164 45.8086 0.475665C50.0663 0.456743 53.5489 3.82806 53.5691 7.99097ZM14.0531 45.3625C13.9966 45.4335 13.9998 45.4831 13.9966 45.4871C13.9974 45.5675 14.0805 45.6637 14.1418 45.7346L14.195 45.8001C14.2676 45.8923 15.0798 46.7627 15.575 47.2894C16.192 47.9478 17.1945 48.1236 18.0712 47.7254L25.5752 44.3249C26.4067 43.9465 26.9156 43.0847 26.81 42.1733L25.9091 34.1227C25.805 33.2002 25.113 32.4599 24.1871 32.2801L16.113 30.7166C15.204 30.5408 14.2846 30.9555 13.8273 31.7503C13.3958 32.4906 12.7288 33.6393 12.6763 33.7379C12.607 33.9248 12.6707 34.1345 12.8013 34.2504C14.7902 35.6672 15.9847 37.9497 15.9968 40.3528C16.0057 42.1094 15.3701 43.7478 14.0531 45.3625ZM27.3818 46.1249L18.0019 50.3769C17.5421 50.5851 17.2244 51.0179 17.1719 51.5083L16.0549 61.8265C16.05 61.8698 16.0484 61.9124 16.0468 61.981C16.05 62.417 16.2654 62.8349 16.6227 63.0982L24.888 69.1644C25.3155 69.4774 25.8833 69.5365 26.3704 69.3158L35.752 65.0646C36.2093 64.8564 36.5279 64.4236 36.5811 63.9339L37.6982 53.6142C37.7038 53.5622 37.707 53.5101 37.707 53.4597C37.7046 53.0237 37.4885 52.605 37.1295 52.3425L28.865 46.2763C28.436 45.9633 27.8673 45.9049 27.3818 46.1249Z" fill="#68C5C0"/>
<path d="M70.3285 36.2884L66.7919 31.1545C66.6427 31.1716 66.4209 31.1798 66.1241 31.1798H62.2148V36.2884H59V18.7603H66.1241C67.6234 18.7603 68.9308 19.0109 70.0438 19.5107C71.1577 20.0121 72.0102 20.7299 72.6038 21.6649C73.1974 22.5999 73.4942 23.7104 73.4942 24.9966C73.4942 26.3154 73.1756 27.4504 72.5417 28.4018C71.9069 29.3531 70.9955 30.0635 69.8075 30.5306L73.7902 36.2892L70.3285 36.2884ZM69.1663 22.4161C68.4396 21.8151 67.3766 21.5146 65.9749 21.5146H62.2148V28.5014H65.9749C67.3766 28.5014 68.4396 28.1976 69.1663 27.5876C69.8906 26.9784 70.2543 26.1137 70.2543 24.9966C70.2543 23.8762 69.8914 23.0171 69.1663 22.4161Z" fill="#68C5C0"/>
<path d="M90.066 33.5602V36.2892H77.0801V18.7603H89.7192V21.4893H80.2957V26.0467H88.6562V28.7268H80.2957V33.5602H90.066Z" fill="#68C5C0"/>
<path d="M95.1485 35.9629C93.9032 35.58 92.9176 35.0712 92.1934 34.4351L93.3064 31.9061C94.0145 32.4736 94.8839 32.9375 95.9147 33.2951C96.9446 33.6544 97.981 33.8341 99.019 33.8341C100.305 33.8341 101.266 33.625 101.902 33.2078C102.536 32.7913 102.853 32.2393 102.853 31.5558C102.853 31.0544 102.676 30.6412 102.322 30.3154C101.968 29.9896 101.518 29.7356 100.973 29.5511C100.429 29.3673 99.6868 29.1591 98.7472 28.9247C97.4277 28.6079 96.3599 28.2911 95.5437 27.9742C94.7283 27.6566 94.0266 27.1601 93.4419 26.4831C92.8563 25.8078 92.5636 24.8932 92.5636 23.7418C92.5636 22.7734 92.8225 21.8931 93.3435 21.1002C93.8629 20.3073 94.6452 19.6768 95.6929 19.2089C96.7398 18.7427 98.0222 18.5083 99.5392 18.5083C100.594 18.5083 101.634 18.6422 102.656 18.9092C103.678 19.1763 104.56 19.5609 105.302 20.0606L104.288 22.5904C103.53 22.1405 102.738 21.7975 101.914 21.564C101.089 21.3304 100.289 21.2129 99.5142 21.2129C98.244 21.2129 97.3003 21.4301 96.6817 21.8645C96.0623 22.2981 95.7542 22.8738 95.7542 23.5916C95.7542 24.0922 95.9316 24.5021 96.2865 24.8189C96.6406 25.1366 97.0898 25.3856 97.6342 25.5702C98.1778 25.7547 98.9206 25.9621 99.8602 26.1965C101.147 26.497 102.202 26.8106 103.027 27.1356C103.851 27.4598 104.556 27.9579 105.142 28.6251C105.727 29.293 106.02 30.1954 106.02 31.3304C106.02 32.2997 105.759 33.1751 105.241 33.9598C104.721 34.7454 103.933 35.3717 102.878 35.8388C101.823 36.3051 100.536 36.5395 99.019 36.5395C97.6842 36.5395 96.393 36.3476 95.1485 35.9629Z" fill="#68C5C0"/>
<path d="M109.21 18.7603H112.425V36.2892H109.21V18.7603Z" fill="#68C5C0"/>
<path d="M117.1 18.7603H120.314V33.5348H129.368V36.2892H117.1V18.7603Z" fill="#68C5C0"/>
<path d="M131.917 18.7603H135.132V36.2892H131.917V18.7603Z" fill="#68C5C0"/>
<path d="M152.791 33.5602V36.2892H139.807V18.7603H152.446V21.4893H143.021V26.0467H151.38V28.7268H143.021V33.5602H152.791Z" fill="#68C5C0"/>
<path d="M171.761 18.7603V36.2892H169.115L159.568 24.42V36.2892H156.378V18.7603H159.023L168.571 30.6302V18.7603H171.761Z" fill="#68C5C0"/>
<path d="M179.69 35.375C178.28 34.5984 177.175 33.5254 176.376 32.1568C175.575 30.7882 175.177 29.244 175.177 27.5243C175.177 25.8045 175.581 24.2596 176.389 22.8909C177.196 21.5223 178.306 20.4493 179.716 19.6736C181.126 18.897 182.703 18.5083 184.452 18.5083C185.87 18.5083 187.164 18.7598 188.334 19.2604C189.506 19.761 190.494 20.4869 191.303 21.4382L189.226 23.4176C187.972 22.0482 186.43 21.3631 184.6 21.3631C183.413 21.3631 182.35 21.6252 181.41 22.1519C180.469 22.6786 179.736 23.4087 179.209 24.3437C178.68 25.2795 178.417 26.3386 178.417 27.5251C178.417 28.71 178.68 29.7707 179.209 30.7057C179.736 31.6415 180.469 32.3716 181.41 32.8966C182.35 33.4233 183.413 33.6863 184.6 33.6863C186.431 33.6863 187.972 32.993 189.226 31.6072L191.303 33.6103C190.494 34.5625 189.501 35.2884 188.323 35.7898C187.143 36.2896 185.846 36.5411 184.427 36.5411C182.678 36.5395 181.1 36.1508 179.69 35.375Z" fill="#68C5C0"/>
<path d="M207.378 33.5602V36.2892H194.392V18.7603H207.031V21.4893H197.606V26.0467H205.968V28.7268H197.606V33.5602H207.378Z" fill="#68C5C0"/>
<path d="M74.3838 46.3774V64.2854H71.1689V56.6112H62.2148V64.2854H59V46.3774H62.2148V53.7706H71.1689V46.3774H74.3838Z" fill="#68C5C0"/>
<path d="M92.02 61.4974V64.2854H79.0332V46.3774H91.6724V49.1655H82.248V53.8223H90.6085V56.5603H82.248V61.4974H92.02Z" fill="#68C5C0"/>
<path d="M95.6055 46.3774H98.8203V61.4715H107.874V64.2854H95.6055V46.3774Z" fill="#68C5C0"/>
<path d="M121.465 47.1441C122.578 47.6572 123.431 48.3897 124.026 49.3449C124.619 50.3009 124.916 51.4347 124.916 52.7486C124.916 54.0442 124.62 55.1746 124.026 56.1373C123.432 57.1017 122.578 57.8392 121.465 58.3506C120.352 58.862 119.045 59.1189 117.545 59.1189H113.638V64.2854H110.422V46.3774H117.545C119.045 46.3774 120.352 46.6344 121.465 47.1441ZM120.587 55.3832C121.312 54.77 121.676 53.8907 121.676 52.7486C121.676 51.6048 121.313 50.7264 120.587 50.1132C119.862 49.4992 118.797 49.1922 117.396 49.1922H113.638V56.3042H117.396C118.797 56.3033 119.862 55.9963 120.587 55.3832Z" fill="#68C5C0"/>
</svg>
