<svg width="30" height="30" viewBox="0 0 30 30" fill="none" xmlns="http://www.w3.org/2000/svg">
<mask id="mask0_474_4982" style="mask-type:alpha" maskUnits="userSpaceOnUse" x="0" y="0" width="30" height="30">
<rect width="30" height="30" fill="#8A8894"/>
</mask>
<g mask="url(#mask0_474_4982)">
<path d="M5.87498 25C5.36873 25 4.92967 24.8141 4.5578 24.4422C4.18593 24.0703 4 23.6313 4 23.125V8.87498C4 8.36873 4.18593 7.92967 4.5578 7.5578C4.92967 7.18593 5.36873 7 5.87498 7H24.625C25.1313 7 25.5703 7.18593 25.9422 7.5578C26.3141 7.92967 26.5 8.36873 26.5 8.87498V23.125C26.5 23.6313 26.3141 24.0703 25.9422 24.4422C25.5703 24.8141 25.1313 25 24.625 25H5.87498ZM15.25 16.7125L5.87498 10.6562V23.125H24.625V10.6562L15.25 16.7125ZM15.25 14.8375L24.55 8.87498H5.96875L15.25 14.8375ZM5.87498 10.6562V8.87498V23.125V10.6562Z" fill="#8A8894"/>
</g>
</svg>
