<svg width="239" height="222" viewBox="0 0 239 222" fill="none" xmlns="http://www.w3.org/2000/svg">
<path d="M60.933 209.913L5.48364 133.363C-0.220014 125.49 -1.41974 115.257 2.38819 106.64L39.4654 22.9297C43.2749 14.3145 51.4777 8.55 60.9863 7.80661L153.486 0.571644C162.995 -0.171509 172.365 4.21897 178.067 12.0915L233.5 88.6207C239.203 96.4936 240.489 106.719 236.683 115.334L199.564 199.087C195.758 207.703 187.519 213.453 178.009 214.198L85.5143 221.43C76.0056 222.175 66.6358 217.784 60.933 209.913Z" fill="#47AFAA"/>
<path d="M60.933 209.913L5.48364 133.363C-0.220014 125.49 -1.41974 115.257 2.38819 106.64L39.4654 22.9297C43.2749 14.3145 51.4777 8.55 60.9863 7.80661L153.486 0.571644C162.995 -0.171509 172.365 4.21897 178.067 12.0915L233.5 88.6207C239.203 96.4936 240.489 106.719 236.683 115.334L199.564 199.087C195.758 207.703 187.519 213.453 178.009 214.198L85.5143 221.43C76.0056 222.175 66.6358 217.784 60.933 209.913Z" fill="black" fill-opacity="0.2"/>
</svg>
