<svg width="26" height="40" viewBox="0 0 26 40" fill="none" xmlns="http://www.w3.org/2000/svg">
<path d="M25.9083 3.82032C25.9182 5.93646 24.2296 7.66625 22.144 7.67667C20.9508 7.68268 19.8491 7.13321 19.1299 6.17814C19.1267 6.17573 19.107 6.16691 19.0975 6.17493C18.3079 6.78853 17.8529 7.13922 17.7423 7.22058C17.6957 7.2835 17.6937 7.31236 17.6937 7.31236C17.7158 7.42458 18.5307 10.6914 18.958 12.4035C19.0256 12.6781 18.8996 12.9787 18.659 13.1189L13.7114 16.0122C13.6845 16.0302 13.611 16.0956 13.611 16.1517L14.2047 21.6913C14.213 21.8885 14.337 22.1017 14.4283 22.1578L18.8913 25.5717C19.2559 25.8503 19.4581 26.3132 19.4079 26.7777L18.7823 32.7494C18.7823 32.777 18.8044 32.8616 18.8463 32.8985C18.8941 32.9405 19.2401 33.1898 19.5663 33.4191C19.573 33.4167 19.579 33.4131 19.5821 33.4107C20.288 32.7149 21.2174 32.3289 22.1986 32.3237C24.2841 32.3137 25.9901 34.0271 26 36.1432C26.0102 38.2593 24.3212 39.9899 22.2357 40C20.1501 40.01 18.4446 38.297 18.4343 36.1809C18.4315 35.5721 18.5658 34.9885 18.832 34.4691L18.0705 33.9197C18.0231 33.8856 17.9769 33.8788 17.9488 33.8952L12.7903 36.33C12.3479 36.5388 11.8316 36.4835 11.4429 36.1857L6.76467 32.654C6.43919 32.4051 6.2496 32.0919 6.2496 31.6534V31.5707C6.2496 31.5298 6.24525 31.4889 6.2496 31.448L6.87882 25.8326C6.90805 25.5801 6.90805 25.3833 6.57823 24.9966C6.57823 24.9966 5.58799 23.8904 5.49714 23.789C5.445 23.7305 5.33875 23.7145 5.28977 23.7325C4.83118 23.8988 4.33586 24.0527 3.80025 24.0559C1.7147 24.066 0.0103129 22.353 4.30907e-05 20.2369C-0.00983169 18.1203 1.67876 16.3897 3.76471 16.3793C3.97721 16.3781 4.19762 16.3977 4.4121 16.4354C4.54955 16.4575 4.69688 16.3837 4.73322 16.3312C4.78181 16.2587 5.27555 15.3329 5.65434 14.6447C5.93439 14.1437 6.33768 13.8608 6.89462 13.9714C8.92685 14.3802 12.3925 15.1028 12.2776 15.0832C12.4905 15.1529 12.9834 14.9505 12.9834 14.9505C13.1675 14.8431 17.4772 12.321 17.5598 12.2749C17.5827 12.2624 17.604 12.2015 17.5807 12.1254C17.5361 11.9803 16.3965 7.36245 16.3479 7.16607C16.2879 6.92079 16.3831 6.64746 16.5802 6.49556C17.2197 6.00299 18.4418 5.06315 18.4829 5.02869C18.4975 5.01786 18.5137 4.99382 18.5109 4.95895C18.4015 4.59744 18.3454 4.22712 18.3434 3.85719C18.3336 1.74105 20.0218 0.0104607 22.1077 4.02936e-05C24.1929 -0.00957854 25.8984 1.70418 25.9083 3.82032ZM6.55571 22.8175C6.52806 22.8536 6.52964 22.8788 6.52806 22.8808C6.52846 22.9217 6.56914 22.9706 6.59916 23.0067L6.62523 23.0399C6.66078 23.0868 7.05854 23.5293 7.30106 23.797C7.60323 24.1317 8.0942 24.2211 8.52356 24.0187L12.1986 22.2901C12.6058 22.0977 12.855 21.6596 12.8033 21.1963L12.3621 17.1039C12.3111 16.635 11.9722 16.2587 11.5188 16.1673L7.56452 15.3725C7.11937 15.2832 6.66908 15.494 6.44512 15.898C6.2338 16.2743 5.90714 16.8582 5.88146 16.9083C5.8475 17.0033 5.8787 17.1099 5.94269 17.1689C6.91674 17.8891 7.50172 19.0493 7.50764 20.2709C7.51199 21.1639 7.20074 21.9967 6.55571 22.8175ZM13.0833 23.2051L8.48959 25.3665C8.26445 25.4723 8.10882 25.6923 8.08315 25.9416L7.53608 31.1867C7.53371 31.2087 7.53292 31.2304 7.53213 31.2653C7.53371 31.4869 7.63918 31.6993 7.81416 31.8332L11.862 34.9168C12.0714 35.0759 12.3494 35.106 12.588 34.9938L17.1826 32.8327C17.4065 32.7269 17.5625 32.5069 17.5886 32.258L18.1357 27.0121C18.1384 26.9857 18.14 26.9592 18.14 26.9336C18.1388 26.7119 18.033 26.4991 17.8572 26.3657L13.8097 23.282C13.5996 23.1229 13.3211 23.0933 13.0833 23.2051Z" fill="white"/>
</svg>
