<svg width="160" height="51" viewBox="0 0 160 51" fill="none" xmlns="http://www.w3.org/2000/svg">
<path d="M0.000487722 29.8374L11.2266 27.1341L3.2724 18.7637L0.000487722 29.8374ZM158.201 50.5671C158.699 50.8077 159.297 50.5997 159.537 50.1026C159.778 49.6055 159.57 49.0074 159.073 48.7669L158.201 50.5671ZM7.19166 24.3824C23.1953 10.2513 39.0392 4.10254 54.1699 2.95727C69.3181 1.81068 83.8357 5.67317 97.1775 11.7053C110.522 17.7388 122.645 25.9214 132.998 33.3678C138.151 37.0744 142.918 40.6371 147.113 43.6076C151.315 46.5832 155.046 49.0401 158.201 50.5671L159.073 48.7669C156.08 47.3185 152.466 44.9476 148.269 41.9754C144.064 38.9982 139.377 35.493 134.165 31.7442C123.788 24.2798 111.534 16.0013 98.0015 9.88293C84.4661 3.76326 69.6055 -0.216791 54.019 0.962977C38.4149 2.14407 22.1676 8.49061 5.86787 22.8832L7.19166 24.3824Z" fill="black"/>
</svg>
