<svg width="188" height="126" viewBox="0 0 188 126" fill="none" xmlns="http://www.w3.org/2000/svg">
<path d="M180.999 125.288L175.819 114.968L187.346 115.641L180.999 125.288ZM1.14358 4.82882C0.597023 4.90822 0.0896002 4.52952 0.010202 3.98297C-0.0691961 3.43642 0.309503 2.92899 0.856057 2.8496L1.14358 4.82882ZM180.524 116.287C181.494 84.9727 172.826 62.127 158.84 45.5064C144.838 28.8669 125.435 18.3819 104.803 11.9409C63.5135 -0.949011 17.5766 2.4416 1.14358 4.82882L0.856057 2.8496C17.4207 0.443254 63.6992 -2.98623 105.399 10.0318C126.262 16.5448 146.046 27.1959 160.37 44.2187C174.71 61.2604 183.506 84.6034 182.523 116.349L180.524 116.287Z" fill="black"/>
</svg>
