<svg width="688" height="14" viewBox="0 0 688 14" fill="none" xmlns="http://www.w3.org/2000/svg">
<line x1="25.4815" y1="2.8193" x2="14.8193" y2="11.8923" stroke="#C9C8D3" stroke-width="4" stroke-linecap="round"/>
<line x1="62.773" y1="2.8193" x2="52.1108" y2="11.8923" stroke="#C9C8D3" stroke-width="4" stroke-linecap="round"/>
<line x1="100.773" y1="2.8193" x2="90.1108" y2="11.8923" stroke="#C9C8D3" stroke-width="4" stroke-linecap="round"/>
<line x1="138.773" y1="2.8193" x2="128.111" y2="11.8923" stroke="#C9C8D3" stroke-width="4" stroke-linecap="round"/>
<line x1="176.773" y1="2.8193" x2="166.111" y2="11.8923" stroke="#C9C8D3" stroke-width="4" stroke-linecap="round"/>
<line x1="214.773" y1="2.8193" x2="204.111" y2="11.8923" stroke="#C9C8D3" stroke-width="4" stroke-linecap="round"/>
<line x1="252.773" y1="2.8193" x2="242.111" y2="11.8923" stroke="#C9C8D3" stroke-width="4" stroke-linecap="round"/>
<line x1="290.773" y1="2.8193" x2="280.111" y2="11.8923" stroke="#C9C8D3" stroke-width="4" stroke-linecap="round"/>
<line x1="328.773" y1="2.8193" x2="318.111" y2="11.8923" stroke="#C9C8D3" stroke-width="4" stroke-linecap="round"/>
<line x1="366.773" y1="2.8193" x2="356.111" y2="11.8923" stroke="#C9C8D3" stroke-width="4" stroke-linecap="round"/>
<line x1="404.773" y1="2.8193" x2="394.111" y2="11.8923" stroke="#C9C8D3" stroke-width="4" stroke-linecap="round"/>
<line x1="442.773" y1="2.8193" x2="432.111" y2="11.8923" stroke="#C9C8D3" stroke-width="4" stroke-linecap="round"/>
<line x1="480.773" y1="2.8193" x2="470.111" y2="11.8923" stroke="#C9C8D3" stroke-width="4" stroke-linecap="round"/>
<line x1="518.773" y1="2.8193" x2="508.111" y2="11.8923" stroke="#C9C8D3" stroke-width="4" stroke-linecap="round"/>
<line x1="556.773" y1="2.8193" x2="546.111" y2="11.8923" stroke="#C9C8D3" stroke-width="4" stroke-linecap="round"/>
<line x1="594.773" y1="2.8193" x2="584.111" y2="11.8923" stroke="#C9C8D3" stroke-width="4" stroke-linecap="round"/>
<line x1="632.773" y1="2.8193" x2="622.111" y2="11.8923" stroke="#C9C8D3" stroke-width="4" stroke-linecap="round"/>
<line x1="670.773" y1="2.8193" x2="660.111" y2="11.8923" stroke="#C9C8D3" stroke-width="4" stroke-linecap="round"/>
<line x1="686" y1="2.28711" x2="2" y2="2.28711" stroke="#C9C8D3" stroke-width="4" stroke-linecap="round"/>
</svg>
