<svg width="742" height="507" viewBox="0 0 742 507" fill="none" xmlns="http://www.w3.org/2000/svg">
<path opacity="0.2" d="M0.370761 0.000976562C0.370761 0.000976562 58.5497 34.6458 62.4256 34.1362L267.403 27.3235C284.15 26.7599 300.434 35.1155 309.547 49.3452L427.341 231.796C427.971 232.576 430.527 234.462 432.566 234.53C434.883 234.606 450.419 233.651 464.944 232.582C465.079 232.365 465.161 232.119 465.202 231.974C469.541 196.126 487.302 163.852 515.209 141.087C574.541 92.7378 662.17 101.621 710.534 160.931C758.883 220.244 749.984 307.868 690.657 356.238C631.346 404.592 543.718 395.689 495.363 336.389C481.443 319.32 472.027 299.816 467.819 279.052L433.594 281.147C431.484 281.283 430.008 282.146 429.577 283.26L337.6 470.674C329.71 486.74 313.704 497.095 295.854 497.665L82.0419 506.118C67.1059 506.619 52.1079 498.344 42.1407 485.997C42.1407 485.997 36.4925 479.253 35.6913 478.01L3.37075 427.001L0.370774 60.0007L0.370761 0.000976562ZM47.8234 94.5818C47.8234 94.5818 7.39993 179.338 3.37077 187.5C-0.658385 195.662 -1.56595 336.899 3.37078 344.501C8.3075 352.103 70.7456 447.049 70.7456 447.049C71.1693 447.732 71.6474 448.362 72.4014 449.355C77.4911 455.562 85.3317 459.108 93.3707 458.841L278.993 452.302C288.585 451.961 297.212 446.395 301.478 437.73L383.555 271.039C387.545 262.889 387.019 253.088 382.101 245.485L278.555 85.2615C278.015 84.4645 277.46 83.6739 276.891 82.9712C271.834 76.7416 263.968 73.2052 255.908 73.4872L70.295 80.0303C60.69 80.3813 52.0703 85.9715 47.8234 94.5818Z" fill="#68C4BF" fill-opacity="0.8"/>
</svg>
