<svg width="779" height="114" viewBox="0 0 779 114" fill="none" xmlns="http://www.w3.org/2000/svg">
<path d="M47.132 3.10693C50.575 3.10693 54.61 3.31194 59.241 3.71994C63.87 4.13194 68.44 4.82694 72.948 5.80994V89.1589H53.77V58.5489H47.869C46.803 58.5489 45.779 58.5489 44.796 58.5489C43.812 58.5489 42.623 58.4699 41.231 58.3039C38.515 61.9919 35.53 66.6009 32.28 72.1339C29.031 77.6649 26.005 83.3409 23.208 89.1589H3C4.475 85.7999 6.05199 82.4809 7.73199 79.2019C9.41099 75.9249 11.113 72.8089 12.834 69.8579C14.555 66.9069 16.234 64.1839 17.875 61.6839C19.513 59.1839 21.028 56.9929 22.423 55.1059C20.62 54.2899 18.837 53.2019 17.075 51.8479C15.312 50.4959 13.734 48.8789 12.342 46.9929C10.948 45.1079 9.822 42.8749 8.961 40.2939C8.101 37.7119 7.66998 34.7419 7.66998 31.3809C7.66998 26.7099 8.59198 22.6119 10.437 19.0889C12.281 15.5659 14.903 12.6149 18.304 10.2369C21.704 7.85994 25.843 6.07794 30.721 4.88794C35.596 3.70094 41.067 3.10693 47.132 3.10693ZM46.272 19.5789C43.813 19.5789 41.456 19.7639 39.203 20.1319C36.948 20.5009 34.962 21.1159 33.241 21.9759C31.52 22.8369 30.125 24.0269 29.061 25.5419C27.995 27.0599 27.463 28.9639 27.463 31.2579C27.463 35.6029 28.999 38.5929 32.072 40.2319C35.145 41.8729 39.713 42.6909 45.779 42.6909H53.77V19.7019C52.786 19.6219 51.721 19.5789 50.574 19.5789C49.426 19.5789 47.993 19.5789 46.272 19.5789Z" stroke="#68C5C0" stroke-width="2.8347" stroke-miterlimit="10"/>
<path d="M142.84 89.1588C141.113 86.3878 139.079 83.3908 136.736 80.1728C134.392 76.9518 131.868 73.7078 129.162 70.4348C126.456 67.1668 123.625 64.0298 120.666 61.0288C117.708 58.0288 114.751 55.3788 111.796 53.0778V89.1598H92.6182V3.96777H111.796V35.9868C116.726 30.8088 121.736 25.3908 126.822 19.7368C131.908 14.0838 136.607 8.82777 140.915 3.96777H163.673C157.876 10.8718 152.042 17.5118 146.176 23.8838C140.31 30.2558 134.134 36.6678 127.654 43.1228C134.469 48.8088 141.045 55.5508 147.376 63.3518C153.707 71.1548 159.794 79.7578 165.641 89.1608H142.84V89.1588Z" stroke="#68C5C0" stroke-width="2.8347" stroke-miterlimit="10"/>
<path d="M176.703 3.9668H195.881V89.1588H176.703V3.9668Z" stroke="#68C5C0" stroke-width="2.8347" stroke-miterlimit="10"/>
<path d="M283.898 90.88C270.047 90.88 259.496 87.03 252.244 79.325C244.991 71.622 241.364 60.681 241.364 46.503C241.364 39.454 242.47 33.164 244.683 27.632C246.896 22.1 249.927 17.429 253.78 13.617C257.631 9.80599 262.22 6.91799 267.548 4.94899C272.875 2.98399 278.652 2 284.882 2C288.487 2 291.766 2.26799 294.716 2.79999C297.667 3.33399 300.249 3.94799 302.461 4.64299C304.674 5.34099 306.518 6.05799 307.993 6.79399C309.469 7.53099 310.532 8.10699 311.189 8.51599L305.657 24.005C303.033 22.612 299.981 21.424 296.499 20.44C293.015 19.457 289.061 18.965 284.636 18.965C281.686 18.965 278.797 19.456 275.969 20.44C273.142 21.424 270.641 23.003 268.47 25.173C266.298 27.346 264.556 30.152 263.245 33.593C261.933 37.036 261.278 41.216 261.278 46.133C261.278 50.068 261.709 53.736 262.569 57.136C263.429 60.537 264.822 63.466 266.749 65.925C268.674 68.384 271.193 70.331 274.31 71.765C277.423 73.201 281.194 73.917 285.62 73.917C288.405 73.917 290.906 73.753 293.119 73.423C295.332 73.099 297.299 72.708 299.02 72.257C300.741 71.808 302.257 71.294 303.568 70.72C304.878 70.148 306.067 69.615 307.133 69.122L312.42 84.489C309.715 86.128 305.904 87.604 300.987 88.913C296.069 90.224 290.372 90.88 283.898 90.88Z" stroke="#68C5C0" stroke-width="2.8347" stroke-miterlimit="10"/>
<path d="M394.784 3.9668V89.1588H375.606V20.1938H343.89V89.1588H324.712V3.9668H394.784Z" stroke="#68C5C0" stroke-width="2.8347" stroke-miterlimit="10"/>
<path d="M440.023 2.98389C452.725 2.98389 462.478 5.21589 469.281 9.68289C476.082 14.1509 479.485 21.4649 479.485 31.6269C479.485 41.8709 476.043 49.2659 469.158 53.8149C462.274 58.3629 452.439 60.6379 439.654 60.6379H433.631V89.1579H414.453V5.19489C418.633 4.37589 423.058 3.80189 427.729 3.47289C432.401 3.14789 436.498 2.98389 440.023 2.98389ZM441.252 19.3329C439.857 19.3329 438.486 19.3759 437.134 19.4559C435.781 19.5379 434.613 19.6219 433.631 19.7019V44.2879H439.654C446.293 44.2879 451.291 43.3879 454.652 41.5849C458.012 39.7819 459.693 36.4219 459.693 31.5049C459.693 29.1279 459.262 27.1609 458.402 25.6039C457.542 24.0469 456.312 22.7959 454.714 21.8549C453.116 20.9139 451.168 20.2549 448.874 19.8879C446.578 19.5179 444.037 19.3329 441.252 19.3329Z" stroke="#68C5C0" stroke-width="2.8347" stroke-miterlimit="10"/>
<path d="M542.417 89.1588C541.468 86.1998 540.451 83.1588 539.359 80.0398C538.268 76.9188 537.181 73.8108 536.099 70.7198H502.827C501.751 73.8268 500.671 76.9408 499.592 80.0658C498.511 83.1868 497.504 86.2218 496.572 89.1598H476.657C479.863 79.9818 482.904 71.4998 485.781 63.7138C488.658 55.9278 491.472 48.5918 494.226 41.7088C496.981 34.8238 499.693 28.2898 502.365 22.1008C505.036 15.9138 507.813 9.86877 510.69 3.96777H528.869C531.668 9.86777 534.426 15.9138 537.144 22.1008C539.86 28.2898 542.599 34.8248 545.357 41.7088C548.116 48.5918 550.935 55.9278 553.817 63.7138C556.698 71.4998 559.745 79.9828 562.956 89.1598H542.417V89.1588ZM519.376 23.2678C518.948 24.5028 518.322 26.1878 517.498 28.3168C516.674 30.4458 515.736 32.9088 514.684 35.6978C513.632 38.4888 512.455 41.5628 511.154 44.9188C509.854 48.2738 508.532 51.7938 507.189 55.4768H531.551C530.246 51.7828 528.985 48.2508 527.763 44.8858C526.542 41.5208 525.379 38.4428 524.281 35.6498C523.18 32.8588 522.216 30.3998 521.386 28.2728C520.556 26.1448 519.886 24.4768 519.376 23.2678Z" stroke="#68C5C0" stroke-width="2.8347" stroke-miterlimit="10"/>
<path d="M602.294 90.2668C597.622 90.2668 592.97 90.1219 588.34 89.8349C583.709 89.5479 578.894 88.8739 573.896 87.8079V5.19685C577.83 4.45985 582.132 3.90685 586.804 3.53685C591.475 3.16885 595.818 2.98486 599.835 2.98486C605.244 2.98486 610.223 3.37386 614.772 4.15086C619.32 4.93186 623.233 6.26285 626.512 8.14685C629.789 10.0339 632.352 12.5099 634.195 15.5849C636.039 18.6579 636.961 22.4498 636.961 26.9548C636.961 33.7598 633.683 39.1268 627.128 43.0598C632.537 45.1088 636.225 47.8959 638.192 51.4189C640.159 54.9439 641.141 58.9189 641.141 63.3429C641.141 72.2789 637.884 78.9989 631.369 83.5049C624.852 88.0129 615.158 90.2668 602.294 90.2668ZM592.581 37.4048H601.924C607.825 37.4048 612.045 36.6479 614.586 35.1299C617.126 33.6139 618.397 31.1769 618.397 27.8159C618.397 24.3749 617.085 21.9589 614.464 20.5629C611.84 19.1709 607.988 18.4739 602.908 18.4739C601.267 18.4739 599.506 18.4949 597.621 18.5349C595.735 18.5779 594.057 18.6798 592.581 18.8428V37.4048ZM592.581 52.0329V74.0378C593.975 74.2038 595.489 74.3269 597.13 74.4069C598.768 74.4889 600.572 74.5298 602.539 74.5298C608.275 74.5298 612.906 73.7118 616.431 72.0728C619.953 70.4318 621.717 67.4009 621.717 62.9749C621.717 59.0409 620.242 56.2339 617.292 54.5529C614.342 52.8729 610.119 52.0319 604.63 52.0319H592.581V52.0329Z" stroke="#68C5C0" stroke-width="2.8347" stroke-miterlimit="10"/>
<path d="M649.132 72.9328H661.425C664.456 67.6888 666.834 62.4838 668.555 57.3198C670.276 52.1578 671.566 46.9138 672.427 41.5858C673.288 36.2588 673.82 30.7678 674.026 25.1128C674.23 19.4568 674.333 13.5158 674.333 7.28578V3.96777H730.636V72.9338H745.265V111.905H726.825V89.1608H667.571V111.905H649.131L649.132 72.9328ZM692.403 20.1938C692.238 24.6188 691.952 29.1688 691.543 33.8398C691.132 38.5108 690.518 43.1218 689.699 47.6688C688.879 52.2188 687.794 56.6438 686.442 60.9458C685.089 65.2488 683.388 69.2428 681.34 72.9318H711.95V20.1938H692.403Z" stroke="#68C5C0" stroke-width="2.8347" stroke-miterlimit="10"/>
<path d="M757.558 3.9668H776.736V89.1588H757.558V3.9668Z" stroke="#68C5C0" stroke-width="2.8347" stroke-miterlimit="10"/>
</svg>
