<svg width="865" height="128" viewBox="0 0 865 128" fill="none" xmlns="http://www.w3.org/2000/svg">
<g opacity="0.2">
<path d="M29.1385 2.27393C30.8573 5.39993 32.8363 9.26092 35.0818 13.8559C37.3242 18.4519 39.6641 23.4259 42.0985 28.7759C44.5329 34.1299 46.9442 39.6019 49.3324 45.1899C51.7176 50.7809 53.96 56.0399 56.0627 60.9629C58.1634 56.0389 60.4058 50.7799 62.794 45.1899C65.1802 39.6019 67.5894 34.1299 70.0248 28.7759C72.4593 23.4259 74.7992 18.4519 77.0436 13.8559C79.2871 9.26092 81.2691 5.39993 82.9869 2.27393H103.269C104.22 8.81093 105.102 16.1289 105.912 24.2289C106.72 32.3289 107.433 40.7619 108.055 49.5239C108.672 58.2879 109.244 67.0749 109.768 75.8849C110.291 84.6959 110.743 92.9869 111.125 100.754H89.4137C89.1282 91.1859 88.7463 80.7659 88.2708 69.4899C87.7934 58.2169 87.0788 46.8469 86.1289 35.3849C84.4081 39.3639 82.4984 43.7689 80.3977 48.5999C78.295 53.4319 76.2174 58.2629 74.1639 63.0949C72.1105 67.9259 70.1284 72.5449 68.2187 76.9499C66.3089 81.3549 64.6836 85.1209 63.3468 88.2479H47.7775C46.4387 85.1209 44.8164 81.3549 42.9057 76.9499C40.9949 72.5449 39.0108 67.9259 36.9573 63.0949C34.9039 58.2629 32.8273 53.4319 30.7266 48.5999C28.6239 43.7689 26.7141 39.3639 24.9954 35.3849C24.0425 46.8479 23.3279 58.2169 22.8525 69.4899C22.375 80.7649 21.9951 91.1849 21.7096 100.754H0C0.378931 92.9859 0.833244 84.6949 1.35792 75.8849C1.88058 67.0739 2.45149 58.2869 3.07165 49.5239C3.6898 40.7619 4.40445 32.3289 5.21457 24.2289C6.02269 16.1289 6.90419 8.81093 7.85704 2.27393H29.1385Z" fill="#93D4D0"/>
<path d="M130.979 100.754V2.27393H197.825V20.8889H153.261V40.2159H192.827V58.4049H153.261V82.1359H201.111V100.753L130.979 100.754Z" fill="#93D4D0"/>
<path d="M290.952 2.27393V21.1739H261.099V100.754H238.816V21.1739H208.964V2.27393H290.952Z" fill="#93D4D0"/>
<path d="M396.221 51.442C396.221 59.876 394.958 67.288 392.436 73.682C389.912 80.077 386.46 85.43 382.08 89.741C377.699 94.053 372.485 97.297 366.44 99.475C360.391 101.653 353.893 102.743 346.942 102.743C340.18 102.743 333.801 101.653 327.803 99.475C321.803 97.296 316.564 94.052 312.091 89.741C307.614 85.43 304.092 80.077 301.521 73.682C298.95 67.287 297.664 59.875 297.664 51.442C297.664 43.012 298.997 35.598 301.663 29.204C304.328 22.808 307.923 17.433 312.447 13.074C316.969 8.718 322.207 5.449 328.159 3.268C334.109 1.09 340.372 0 346.942 0C353.703 0 360.083 1.09 366.082 3.268C372.081 5.449 377.316 8.717 381.794 13.074C386.269 17.432 389.793 22.807 392.364 29.204C394.936 35.598 396.221 43.012 396.221 51.442ZM320.661 51.442C320.661 56.274 321.256 60.633 322.447 64.516C323.637 68.403 325.351 71.742 327.591 74.535C329.826 77.331 332.564 79.487 335.802 81.001C339.04 82.519 342.753 83.275 346.943 83.275C351.036 83.275 354.729 82.518 358.014 81.001C361.298 79.487 364.059 77.331 366.298 74.535C368.534 71.742 370.248 68.403 371.439 64.516C372.629 60.633 373.224 56.274 373.224 51.442C373.224 46.611 372.628 42.23 371.439 38.297C370.247 34.367 368.533 31.004 366.298 28.207C364.058 25.414 361.298 23.258 358.014 21.742C354.728 20.227 351.036 19.468 346.943 19.468C342.752 19.468 339.039 20.25 335.802 21.813C332.564 23.376 329.826 25.557 327.591 28.35C325.351 31.145 323.637 34.509 322.447 38.44C321.256 42.372 320.661 46.706 320.661 51.442Z" fill="#93D4D0"/>
<path d="M406.219 81.9959H420.502C424.023 75.9329 426.787 69.9159 428.786 63.9469C430.785 57.9779 432.286 51.9179 433.286 45.7579C434.286 39.6019 434.904 33.2519 435.143 26.7149C435.379 20.1779 435.5 13.3109 435.5 6.10992V2.27393H500.918V81.9969H517.916V127.044H496.491V100.755H427.644V127.044H406.219V81.9959ZM456.496 21.0309C456.304 26.1459 455.972 31.4049 455.497 36.8039C455.017 42.2039 454.304 47.5339 453.354 52.7909C452.401 58.0489 451.14 63.1649 449.569 68.1389C447.998 73.1129 446.019 77.7319 443.641 81.9949H479.207V21.0309H456.496Z" fill="#93D4D0"/>
<path d="M532.198 100.754V2.27393H554.337V60.3949C557.766 55.2799 561.43 49.9509 565.335 44.4089C569.239 38.8659 573.167 33.5139 577.119 28.3499C581.07 23.1879 584.951 18.3299 588.761 13.7839C592.569 9.23692 596.046 5.39993 599.188 2.27393H617.328V100.754H595.331V36.2359C586.95 45.9959 579.047 56.3689 571.62 67.3569C564.193 78.3489 557.288 89.4799 550.91 100.753L532.198 100.754Z" fill="#93D4D0"/>
<path d="M698.533 100.754C696.527 97.5489 694.164 94.0859 691.441 90.3629C688.718 86.6419 685.785 82.8889 682.641 79.1089C679.497 75.3289 676.207 71.7029 672.77 68.2339C669.332 64.7669 665.898 61.7029 662.462 59.0429V100.754H640.181V2.27393H662.462V39.2859C668.191 33.2999 674.012 27.0379 679.922 20.5019C685.831 13.9659 691.291 7.89193 696.298 2.27393H722.739C716.003 10.2559 709.226 17.9299 702.41 25.2949C695.594 32.6619 688.419 40.0729 680.889 47.5349C688.806 54.1059 696.446 61.8999 703.803 70.9199C711.158 79.9399 718.23 89.8839 725.025 100.754H698.533Z" fill="#93D4D0"/>
<path d="M737.879 100.754V2.27393H760.018V60.3949C763.445 55.2799 767.11 49.9509 771.016 44.4089C774.92 38.8659 778.848 33.5139 782.8 28.3499C786.75 23.1879 790.632 18.3299 794.441 13.7839C798.248 9.23692 801.725 5.39993 804.868 2.27393H823.008V100.754H801.011V36.2359C792.631 45.9959 784.729 56.3689 777.301 67.3569C769.873 78.3489 762.968 89.4799 756.59 100.753L737.879 100.754Z" fill="#93D4D0"/>
<path d="M864.573 79.1528C864.762 81.4258 864.881 83.0388 864.929 83.9838C864.976 84.9318 865 85.7388 865 86.3998C865 89.2418 864.736 92.2518 864.215 95.4228C863.69 98.5988 862.951 101.794 862 105.016C861.048 108.236 859.859 111.457 858.429 114.679C857.001 117.898 855.38 120.978 853.572 123.916L836.861 119.795C839.05 113.542 840.574 107.667 841.432 102.173C842.288 96.6808 842.717 92.1328 842.717 88.5308C842.717 87.9618 842.693 87.2288 842.646 86.3288C842.597 85.4288 842.55 84.5048 842.502 83.5578C842.454 82.6128 842.407 81.7098 842.359 80.8578C842.311 80.0048 842.288 79.4368 842.288 79.1528H864.573Z" fill="#93D4D0"/>
</g>
</svg>
