<svg width="812" height="119" viewBox="0 0 812 119" fill="none" xmlns="http://www.w3.org/2000/svg">
<g opacity="0.6">
<path d="M75.741 2.25781V94.3438H55.012V19.7988H20.729V94.3438H0V2.25781H75.741Z" fill="#BDA2EB"/>
<path d="M124.639 1.19482C138.368 1.19482 148.91 3.6108 156.264 8.4368C163.616 13.2648 167.293 21.1728 167.293 32.1558C167.293 43.2298 163.571 51.2238 156.131 56.1398C148.69 61.0558 138.059 63.5148 124.24 63.5148H117.73V94.3428H97.001V3.5878C101.519 2.7028 106.302 2.08181 111.352 1.72681C116.401 1.37281 120.829 1.19482 124.639 1.19482ZM125.968 18.8668C124.461 18.8668 122.978 18.9138 121.517 19.0018C120.055 19.0898 118.793 19.1798 117.73 19.2678V45.8418H124.24C131.415 45.8418 136.818 44.8688 140.451 42.9198C144.082 40.9728 145.899 37.3398 145.899 32.0238C145.899 29.4558 145.433 27.3308 144.503 25.6468C143.572 23.9628 142.244 22.6118 140.517 21.5938C138.789 20.5738 136.684 19.8648 134.205 19.4668C131.725 19.0658 128.979 18.8668 125.968 18.8668Z" fill="#BDA2EB"/>
<path d="M235.317 94.3438C234.292 91.1448 233.191 87.8578 232.012 84.4868C230.833 81.1138 229.658 77.7548 228.488 74.4128H192.524C191.361 77.7718 190.194 81.1378 189.027 84.5148C187.859 87.8898 186.771 91.1688 185.764 94.3448H164.238C167.703 84.4228 170.989 75.2568 174.1 66.8388C177.21 58.4228 180.252 50.4948 183.229 43.0538C186.207 35.6128 189.138 28.5498 192.026 21.8588C194.914 15.1708 197.914 8.63779 201.024 2.25879H220.673C223.698 8.63779 226.679 15.1708 229.618 21.8588C232.554 28.5498 235.514 35.6128 238.495 43.0538C241.476 50.4948 244.524 58.4228 247.639 66.8388C250.753 75.2568 254.047 84.4228 257.518 94.3448H235.317V94.3438ZM210.413 23.1208C209.95 24.4568 209.273 26.2788 208.382 28.5778C207.491 30.8808 206.478 33.5408 205.34 36.5568C204.202 39.5748 202.93 42.8968 201.524 46.5238C200.119 50.1508 198.69 53.9558 197.239 57.9358H223.572C222.162 53.9418 220.798 50.1248 219.478 46.4888C218.158 42.8528 216.901 39.5238 215.714 36.5048C214.525 33.4868 213.482 30.8308 212.585 28.5298C211.688 26.2298 210.963 24.4278 210.413 23.1208Z" fill="#BDA2EB"/>
<path d="M345.085 76.8028H361.029V118.926H341.097V94.3438H269.342V2.25781H290.072V76.8028H324.354V2.25781H345.083V76.8028H345.085Z" fill="#BDA2EB"/>
<path d="M456.17 0C462.193 0 467.907 1.04099 473.311 3.12299C478.713 5.20499 483.431 8.26199 487.462 12.291C491.492 16.324 494.704 21.35 497.096 27.373C499.488 33.398 500.684 40.352 500.684 48.234C500.684 56.119 499.509 63.05 497.163 69.031C494.815 75.01 491.603 80.015 487.529 84.047C483.454 88.076 478.737 91.111 473.378 93.149C468.018 95.184 462.283 96.204 456.17 96.204C450.589 96.204 445.274 95.341 440.224 93.614C435.175 91.885 430.657 89.296 426.67 85.841C422.684 82.386 419.405 78.091 416.837 72.95C414.266 67.813 412.629 61.878 411.92 55.145H395.045V94.344H374.316V2.258H395.045V37.604H412.319C413.382 31.493 415.263 26.09 417.966 21.393C420.667 16.7 423.966 12.756 427.865 9.569C431.761 6.38 436.124 3.98701 440.954 2.39301C445.783 0.797005 450.855 0 456.17 0ZM456.17 78.133C463.522 78.133 469.212 75.475 473.245 70.16C477.275 64.844 479.291 57.535 479.291 48.234C479.291 38.933 477.275 31.582 473.245 26.177C469.213 20.773 463.522 18.072 456.17 18.072C448.816 18.072 443.081 20.773 438.962 26.177C434.843 31.581 432.783 38.933 432.783 48.234C432.783 57.535 434.843 64.843 438.962 70.16C443.081 75.475 448.816 78.133 456.17 78.133Z" fill="#BDA2EB"/>
<path d="M599.81 0C605.833 0 611.547 1.04099 616.951 3.12299C622.354 5.20499 627.071 8.26199 631.103 12.291C635.133 16.324 638.345 21.35 640.736 27.373C643.128 33.398 644.324 40.352 644.324 48.234C644.324 56.119 643.149 63.05 640.803 69.031C638.455 75.01 635.243 80.015 631.169 84.047C627.094 88.076 622.377 91.111 617.018 93.149C611.657 95.184 605.923 96.204 599.81 96.204C594.229 96.204 588.914 95.341 583.865 93.614C578.816 91.885 574.298 89.296 570.311 85.841C566.324 82.386 563.046 78.091 560.478 72.95C557.908 67.813 556.27 61.878 555.561 55.145H538.686V94.344H517.957V2.258H538.686V37.604H555.96C557.023 31.493 558.904 26.09 561.607 21.393C564.309 16.7 567.607 12.756 571.507 9.569C575.403 6.38 579.766 3.98701 584.595 2.39301C589.423 0.797005 594.495 0 599.81 0ZM599.81 78.133C607.162 78.133 612.853 75.475 616.885 70.16C620.914 64.844 622.931 57.535 622.931 48.234C622.931 38.933 620.914 31.582 616.885 26.177C612.853 20.773 607.162 18.072 599.81 18.072C592.456 18.072 586.721 20.773 582.602 26.177C578.483 31.581 576.423 38.933 576.423 48.234C576.423 57.535 578.483 64.843 582.602 70.16C586.721 75.475 592.457 78.133 599.81 78.133Z" fill="#BDA2EB"/>
<path d="M726.842 2.25781V19.9318H699.07V94.3438H678.341V19.9318H650.57V2.25781H726.842Z" fill="#BDA2EB"/>
<path d="M811.086 64.1798C811.086 74.4568 807.276 82.2518 799.659 87.5668C792.04 92.8808 781.409 95.5398 767.768 95.5398C763.958 95.5398 759.596 95.2738 754.68 94.7428C749.763 94.2118 744.913 93.3698 740.13 92.2178V2.25781H760.859V32.8218C762.008 32.7338 763.051 32.6868 763.981 32.6868C764.911 32.6868 765.862 32.6868 766.838 32.6868C781.808 32.6868 792.925 35.2568 800.19 40.3938C807.453 45.5328 811.086 53.4608 811.086 64.1798ZM764.978 50.2278C764.533 50.2278 763.915 50.2278 763.118 50.2278C762.32 50.2278 761.566 50.2728 760.859 50.3588V77.8668C761.833 77.9548 762.939 77.9978 764.18 77.9978C765.419 77.9978 766.925 77.9978 768.698 77.9978C771.443 77.9978 774.1 77.7788 776.671 77.3338C779.239 76.8928 781.498 76.1388 783.448 75.0758C785.396 74.0128 786.947 72.5968 788.099 70.8238C789.249 69.0528 789.827 66.8378 789.827 64.1788C789.827 61.4348 789.249 59.1768 788.099 57.4018C786.947 55.6318 785.286 54.2128 783.116 53.1498C780.945 52.0868 778.332 51.3358 775.277 50.8918C772.219 50.4508 768.786 50.2278 764.978 50.2278Z" fill="#BDA2EB"/>
</g>
</svg>
