<svg width="32" height="32" viewBox="0 0 32 32" fill="none" xmlns="http://www.w3.org/2000/svg">
<mask id="mask0_164_5151" style="mask-type:alpha" maskUnits="userSpaceOnUse" x="0" y="0" width="32" height="32">
<rect width="32" height="32" fill="#D9D9D9"/>
</mask>
<g mask="url(#mask0_164_5151)">
<path d="M6.66667 29.3337C5.93333 29.3337 5.30556 29.0725 4.78333 28.5503C4.26111 28.0281 4 27.4003 4 26.667V8.00033H6.66667V26.667H21.3333V29.3337H6.66667ZM12 24.0003C11.2667 24.0003 10.6389 23.7392 10.1167 23.217C9.59444 22.6948 9.33333 22.067 9.33333 21.3337V5.33366C9.33333 4.60033 9.59444 3.97255 10.1167 3.45033C10.6389 2.9281 11.2667 2.66699 12 2.66699H24C24.7333 2.66699 25.3611 2.9281 25.8833 3.45033C26.4056 3.97255 26.6667 4.60033 26.6667 5.33366V21.3337C26.6667 22.067 26.4056 22.6948 25.8833 23.217C25.3611 23.7392 24.7333 24.0003 24 24.0003H12ZM12 21.3337H24V5.33366H12V21.3337Z" fill="#9168C4"/>
</g>
</svg>
