<svg width="36" height="36" viewBox="0 0 36 36" fill="none" xmlns="http://www.w3.org/2000/svg">
<mask id="mask0_401_5150" style="mask-type:alpha" maskUnits="userSpaceOnUse" x="0" y="0" width="36" height="36">
<rect width="36" height="36" fill="white"/>
</mask>
<g mask="url(#mask0_401_5150)">
<path d="M7.50015 32.2209C5.9284 32.2209 4.80665 31.5144 4.1349 30.1013C3.46315 28.6883 3.6262 27.3812 4.62405 26.1801L12.7795 16.2459V7.98777H11.9366C11.3844 7.98777 10.9151 7.79456 10.5287 7.40813C10.1423 7.02171 9.94905 6.55241 9.94905 6.00023C9.94905 5.44806 10.1423 4.97876 10.5287 4.59233C10.9151 4.20591 11.3844 4.0127 11.9366 4.0127H24.0638C24.6159 4.0127 25.0852 4.20591 25.4717 4.59233C25.8581 4.97876 26.0513 5.44806 26.0513 6.00023C26.0513 6.55241 25.8581 7.02171 25.4717 7.40813C25.0852 7.79456 24.6159 7.98777 24.0638 7.98777H23.2208V16.2459L31.3763 26.1801C32.3741 27.3812 32.5372 28.6883 31.8654 30.1013C31.1937 31.5144 30.0719 32.2209 28.5002 32.2209H7.50015ZM8.05125 28.2459H27.9491L19.2458 17.6562V7.98777H16.7545V17.6562L8.05125 28.2459Z" fill="white"/>
</g>
</svg>
