<svg width="30" height="30" viewBox="0 0 30 30" fill="none" xmlns="http://www.w3.org/2000/svg">
<mask id="mask0_502_5992" style="mask-type:alpha" maskUnits="userSpaceOnUse" x="0" y="0" width="30" height="30">
<rect width="30" height="30" fill="#8A8894"/>
</mask>
<g mask="url(#mask0_502_5992)">
<path d="M24.75 26.229L16.6458 18.1248C16.0208 18.6526 15.2954 19.0658 14.4696 19.3644C13.6438 19.663 12.765 19.8123 11.8333 19.8123C9.57416 19.8123 7.66214 19.0294 6.09728 17.4634C4.53243 15.8974 3.75 13.9999 3.75 11.7707C3.75 9.54152 4.53299 7.64395 6.09897 6.07797C7.66493 4.51199 9.56597 3.729 11.8021 3.729C14.0382 3.729 15.9358 4.51199 17.4948 6.07797C19.0538 7.64395 19.8333 9.54257 19.8333 11.7738C19.8333 12.6745 19.6875 13.538 19.3958 14.3644C19.1042 15.1908 18.6806 15.9512 18.125 16.6457L26.25 24.729L24.75 26.229ZM11.8125 17.729C13.4618 17.729 14.8637 17.1474 16.0182 15.9842C17.1727 14.821 17.75 13.4165 17.75 11.7707C17.75 10.1248 17.1727 8.72032 16.0182 7.55713C14.8637 6.39394 13.4618 5.81235 11.8125 5.81235C10.1516 5.81235 8.73987 6.39394 7.57725 7.55713C6.41463 8.72032 5.83331 10.1248 5.83331 11.7707C5.83331 13.4165 6.41463 14.821 7.57725 15.9842C8.73987 17.1474 10.1516 17.729 11.8125 17.729Z" fill="#8A8894"/>
</g>
</svg>
