<svg width="487" height="135" viewBox="0 0 487 135" fill="none" xmlns="http://www.w3.org/2000/svg">
<path d="M38.88 23.365C52.83 23.365 63.54 25.84 71.01 30.79C78.48 35.65 82.215 43.66 82.215 54.82C82.215 66.07 78.435 74.215 70.875 79.255C63.315 84.205 52.515 86.68 38.475 86.68H31.86V118H10.8V25.795C15.39 24.895 20.25 24.265 25.38 23.905C30.51 23.545 35.01 23.365 38.88 23.365ZM40.23 41.32C38.7 41.32 37.17 41.365 35.64 41.455C34.2 41.545 32.94 41.635 31.86 41.725V68.725H38.475C45.765 68.725 51.255 67.735 54.945 65.755C58.635 63.775 60.48 60.085 60.48 54.685C60.48 52.075 59.985 49.915 58.995 48.205C58.095 46.495 56.745 45.145 54.945 44.155C53.235 43.075 51.12 42.355 48.6 41.995C46.08 41.545 43.29 41.32 40.23 41.32ZM151.091 118C150.101 114.76 148.976 111.43 147.716 108.01C146.546 104.59 145.376 101.17 144.206 97.75H107.756C106.586 101.17 105.371 104.59 104.111 108.01C102.941 111.43 101.861 114.76 100.871 118H79.0014C82.5114 107.92 85.8414 98.605 88.9914 90.055C92.1414 81.505 95.2014 73.45 98.1714 65.89C101.231 58.33 104.201 51.175 107.081 44.425C110.051 37.585 113.111 30.925 116.261 24.445H136.376C139.436 30.925 142.451 37.585 145.421 44.425C148.391 51.175 151.361 58.33 154.331 65.89C157.391 73.45 160.496 81.505 163.646 90.055C166.796 98.605 170.126 107.92 173.636 118H151.091ZM125.846 45.64C125.396 46.99 124.721 48.835 123.821 51.175C122.921 53.515 121.886 56.215 120.716 59.275C119.546 62.335 118.241 65.71 116.801 69.4C115.451 73.09 114.056 76.96 112.616 81.01H139.211C137.771 76.96 136.376 73.09 135.026 69.4C133.676 65.71 132.371 62.335 131.111 59.275C129.941 56.215 128.906 53.515 128.006 51.175C127.106 48.835 126.386 46.99 125.846 45.64ZM195.698 60.895H209.873C212.303 60.895 214.553 60.715 216.623 60.355C218.783 59.995 220.628 59.365 222.158 58.465C223.778 57.565 225.038 56.395 225.938 54.955C226.838 53.515 227.288 51.715 227.288 49.555C227.288 46.495 226.073 44.2 223.643 42.67C221.213 41.14 217.793 40.375 213.383 40.375C208.433 40.375 204.113 40.96 200.423 42.13C196.733 43.21 193.223 44.695 189.893 46.585L183.143 29.98C186.743 27.73 191.063 25.93 196.103 24.58C201.233 23.14 207.038 22.42 213.518 22.42C218.558 22.42 223.238 23.005 227.558 24.175C231.878 25.255 235.613 26.92 238.763 29.17C241.913 31.33 244.343 34.12 246.053 37.54C247.853 40.87 248.753 44.785 248.753 49.285C248.753 52.705 247.808 56.125 245.918 59.545C244.118 62.875 241.328 65.71 237.548 68.05C239.618 69.13 241.553 70.39 243.353 71.83C245.243 73.27 246.863 74.935 248.213 76.825C249.653 78.715 250.778 80.875 251.588 83.305C252.398 85.645 252.803 88.3 252.803 91.27C252.803 101.26 249.248 108.55 242.138 113.14C235.118 117.64 225.308 119.89 212.708 119.89C209.558 119.89 206.408 119.665 203.258 119.215C200.198 118.765 197.228 118.225 194.348 117.595C191.558 116.875 188.903 116.065 186.383 115.165C183.953 114.265 181.793 113.32 179.903 112.33L186.113 95.86C187.373 96.4 188.903 97.03 190.703 97.75C192.593 98.38 194.663 99.01 196.913 99.64C199.163 100.27 201.503 100.81 203.933 101.26C206.363 101.71 208.793 101.935 211.223 101.935C217.163 101.935 221.933 101.08 225.533 99.37C229.223 97.66 231.068 94.69 231.068 90.46C231.068 87.85 230.483 85.735 229.313 84.115C228.143 82.495 226.523 81.28 224.453 80.47C222.473 79.57 220.088 78.985 217.298 78.715C214.598 78.355 211.628 78.175 208.388 78.175H195.698V60.895ZM287.411 71.155C287.411 75.745 287.951 79.885 289.031 83.575C290.201 87.265 291.821 90.46 293.891 93.16C296.051 95.77 298.661 97.795 301.721 99.235C304.781 100.675 308.291 101.395 312.251 101.395C316.121 101.395 319.586 100.675 322.646 99.235C325.796 97.795 328.406 95.77 330.476 93.16C332.636 90.46 334.256 87.265 335.336 83.575C336.506 79.885 337.091 75.745 337.091 71.155C337.091 66.565 336.506 62.425 335.336 58.735C334.256 54.955 332.636 51.76 330.476 49.15C328.406 46.45 325.796 44.38 322.646 42.94C319.586 41.5 316.121 40.78 312.251 40.78C308.291 40.78 304.781 41.545 301.721 43.075C298.661 44.515 296.051 46.585 293.891 49.285C291.821 51.895 290.201 55.09 289.031 58.87C287.951 62.56 287.411 66.655 287.411 71.155ZM358.826 71.155C358.826 79.165 357.611 86.23 355.181 92.35C352.841 98.38 349.601 103.465 345.461 107.605C341.321 111.655 336.371 114.715 330.611 116.785C324.941 118.855 318.821 119.89 312.251 119.89C305.861 119.89 299.831 118.855 294.161 116.785C288.491 114.715 283.541 111.655 279.311 107.605C275.081 103.465 271.751 98.38 269.321 92.35C266.891 86.23 265.676 79.165 265.676 71.155C265.676 63.145 266.936 56.125 269.456 50.095C271.976 43.975 275.351 38.845 279.581 34.705C283.901 30.565 288.851 27.46 294.431 25.39C300.101 23.32 306.041 22.285 312.251 22.285C318.641 22.285 324.671 23.32 330.341 25.39C336.011 27.46 340.961 30.565 345.191 34.705C349.421 38.845 352.751 43.975 355.181 50.095C357.611 56.125 358.826 63.145 358.826 71.155ZM401.221 24.445C402.841 27.415 404.686 31.105 406.756 35.515C408.916 39.835 411.121 44.56 413.371 49.69C415.711 54.73 418.006 59.905 420.256 65.215C422.506 70.525 424.621 75.52 426.601 80.2C428.581 75.52 430.696 70.525 432.946 65.215C435.196 59.905 437.446 54.73 439.696 49.69C442.036 44.56 444.241 39.835 446.311 35.515C448.471 31.105 450.361 27.415 451.981 24.445H471.151C472.051 30.655 472.861 37.63 473.581 45.37C474.391 53.02 475.066 61.03 475.606 69.4C476.236 77.68 476.776 86.005 477.226 94.375C477.766 102.745 478.216 110.62 478.576 118H458.056C457.786 108.91 457.426 99.01 456.976 88.3C456.526 77.59 455.851 66.79 454.951 55.9C453.331 59.68 451.531 63.865 449.551 68.455C447.571 73.045 445.591 77.635 443.611 82.225C441.721 86.815 439.876 91.225 438.076 95.455C436.276 99.595 434.746 103.15 433.486 106.12H418.771C417.511 103.15 415.981 99.595 414.181 95.455C412.381 91.225 410.491 86.815 408.511 82.225C406.621 77.635 404.686 73.045 402.706 68.455C400.726 63.865 398.926 59.68 397.306 55.9C396.406 66.79 395.731 77.59 395.281 88.3C394.831 99.01 394.471 108.91 394.201 118H373.681C374.041 110.62 374.446 102.745 374.896 94.375C375.436 86.005 375.976 77.68 376.516 69.4C377.146 61.03 377.821 53.02 378.541 45.37C379.351 37.63 380.206 30.655 381.106 24.445H401.221Z" fill="#BDA2EB"/>
</svg>
