<svg width="716" height="142" viewBox="0 0 716 142" fill="none" xmlns="http://www.w3.org/2000/svg">
<path d="M53.46 126.89C38.25 126.89 26.64 122.66 18.63 114.2C10.71 105.74 6.75 93.725 6.75 78.155C6.75 70.415 7.965 63.53 10.395 57.5C12.825 51.38 16.155 46.25 20.385 42.11C24.615 37.88 29.655 34.685 35.505 32.525C41.355 30.365 47.7 29.285 54.54 29.285C58.5 29.285 62.1 29.6 65.34 30.23C68.58 30.77 71.415 31.445 73.845 32.255C76.275 32.975 78.3 33.74 79.92 34.55C81.54 35.36 82.71 35.99 83.43 36.44L77.355 53.45C74.475 51.92 71.1 50.615 67.23 49.535C63.45 48.455 59.13 47.915 54.27 47.915C51.03 47.915 47.835 48.455 44.685 49.535C41.625 50.615 38.88 52.37 36.45 54.8C34.11 57.14 32.22 60.2 30.78 63.98C29.34 67.76 28.62 72.35 28.62 77.75C28.62 82.07 29.07 86.12 29.97 89.9C30.96 93.59 32.49 96.785 34.56 99.485C36.72 102.185 39.51 104.345 42.93 105.965C46.35 107.495 50.49 108.26 55.35 108.26C58.41 108.26 61.155 108.08 63.585 107.72C66.015 107.36 68.175 106.955 70.065 106.505C71.955 105.965 73.62 105.38 75.06 104.75C76.5 104.12 77.805 103.535 78.975 102.995L84.78 119.87C81.81 121.67 77.625 123.29 72.225 124.73C66.825 126.17 60.57 126.89 53.46 126.89ZM170.629 31.445V49.4H142.414V125H121.354V49.4H93.1395V31.445H170.629ZM184.164 31.445H205.224V125H184.164V31.445ZM226.879 125V31.445H247.804V86.66C251.044 81.8 254.509 76.76 258.199 71.54C261.889 66.23 265.579 61.145 269.269 56.285C273.049 51.335 276.739 46.7 280.339 42.38C283.939 38.06 287.224 34.415 290.194 31.445H307.339V125H286.549V63.71C278.629 72.98 271.159 82.835 264.139 93.275C257.119 103.715 250.594 114.29 244.564 125H226.879ZM268.729 23.21C265.849 23.21 263.059 22.805 260.359 21.995C257.749 21.095 255.364 19.835 253.204 18.215C251.044 16.505 249.244 14.48 247.804 12.14C246.454 9.71 245.644 6.965 245.374 3.905L259.279 0.259997C259.999 3.68 261.169 6.10999 262.789 7.54999C264.499 8.98999 266.479 9.71 268.729 9.71C271.069 9.71 273.049 9.08 274.669 7.82C276.379 6.47 277.594 3.995 278.314 0.394995L292.084 4.04C291.814 7.09999 290.959 9.84499 289.519 12.275C288.169 14.615 286.414 16.595 284.254 18.215C282.184 19.835 279.799 21.095 277.099 21.995C274.399 22.805 271.609 23.21 268.729 23.21ZM384.135 125C382.245 121.94 379.995 118.655 377.385 115.145C374.865 111.545 372.075 107.99 369.015 104.48C366.045 100.88 362.94 97.46 359.7 94.22C356.46 90.89 353.22 87.965 349.98 85.445V125H328.92V31.445H349.98V66.815C355.47 61.055 360.96 55.07 366.45 48.86C372.03 42.56 377.205 36.755 381.975 31.445H406.95C400.56 39.005 394.125 46.295 387.645 53.315C381.255 60.335 374.505 67.4 367.395 74.51C374.865 80.72 382.065 88.1 388.995 96.65C396.015 105.2 402.72 114.65 409.11 125H384.135ZM421.205 31.445H442.265V125H421.205V31.445ZM506.58 126.89C491.37 126.89 479.76 122.66 471.75 114.2C463.83 105.74 459.87 93.725 459.87 78.155C459.87 70.415 461.085 63.53 463.515 57.5C465.945 51.38 469.275 46.25 473.505 42.11C477.735 37.88 482.775 34.685 488.625 32.525C494.475 30.365 500.82 29.285 507.66 29.285C511.62 29.285 515.22 29.6 518.46 30.23C521.7 30.77 524.535 31.445 526.965 32.255C529.395 32.975 531.42 33.74 533.04 34.55C534.66 35.36 535.83 35.99 536.55 36.44L530.475 53.45C527.595 51.92 524.22 50.615 520.35 49.535C516.57 48.455 512.25 47.915 507.39 47.915C504.15 47.915 500.955 48.455 497.805 49.535C494.745 50.615 492 52.37 489.57 54.8C487.23 57.14 485.34 60.2 483.9 63.98C482.46 67.76 481.74 72.35 481.74 77.75C481.74 82.07 482.19 86.12 483.09 89.9C484.08 93.59 485.61 96.785 487.68 99.485C489.84 102.185 492.63 104.345 496.05 105.965C499.47 107.495 503.61 108.26 508.47 108.26C511.53 108.26 514.275 108.08 516.705 107.72C519.135 107.36 521.295 106.955 523.185 106.505C525.075 105.965 526.74 105.38 528.18 104.75C529.62 104.12 530.925 103.535 532.095 102.995L537.9 119.87C534.93 121.67 530.745 123.29 525.345 124.73C519.945 126.17 513.69 126.89 506.58 126.89ZM623.75 31.445V49.4H595.535V125H574.475V49.4H546.26V31.445H623.75ZM709.374 94.355C709.374 104.795 705.504 112.715 697.764 118.115C690.024 123.515 679.224 126.215 665.364 126.215C661.494 126.215 657.039 125.945 651.999 125.405C647.049 124.865 642.144 124.01 637.284 122.84V31.445H658.344V62.495C659.514 62.405 660.549 62.36 661.449 62.36C662.439 62.36 663.429 62.36 664.419 62.36C679.629 62.36 690.924 64.97 698.304 70.19C705.684 75.41 709.374 83.465 709.374 94.355ZM662.529 80.18C662.079 80.18 661.449 80.18 660.639 80.18C659.829 80.18 659.064 80.225 658.344 80.315V108.26C659.334 108.35 660.459 108.395 661.719 108.395C662.979 108.395 664.509 108.395 666.309 108.395C669.099 108.395 671.799 108.17 674.409 107.72C677.019 107.27 679.314 106.505 681.294 105.425C683.274 104.345 684.849 102.905 686.019 101.105C687.189 99.305 687.774 97.055 687.774 94.355C687.774 91.565 687.189 89.27 686.019 87.47C684.849 85.67 683.139 84.23 680.889 83.15C678.729 82.07 676.074 81.305 672.924 80.855C669.864 80.405 666.399 80.18 662.529 80.18Z" fill="#93D4D0"/>
</svg>
