<?xml version="1.0" encoding="UTF-8"?> <!-- Generator: Adobe Illustrator 23.0.2, SVG Export Plug-In . SVG Version: 6.00 Build 0) --> <svg xmlns="http://www.w3.org/2000/svg" xmlns:xlink="http://www.w3.org/1999/xlink" id="Слой_1" x="0px" y="0px" viewBox="0 0 128 128" style="enable-background:new 0 0 128 128;" xml:space="preserve"> <style type="text/css"> .st0{fill:#35589A;} </style> <g> <path class="st0" d="M113.1,12.6L64.7,2.9c-0.4-0.1-0.8-0.1-1.2,0L15,12.6c-1.4,0.3-2.4,1.5-2.4,2.9v50.1c0,18.1,9.6,35,25,44.2 l24.9,14.9c0.4,0.3,0.9,0.5,1.5,0.5s1.2-0.2,1.5-0.4l24.9-14.9c15.5-9.3,25.1-26.2,25.1-44.1V15.5 C115.5,14.1,114.6,12.9,113.1,12.6z M109.5,17.9v47.7c0,16-8.5,30.9-22.1,39.1l-23.4,14l-23.5-14c-13.6-8.3-22.1-23.2-22.1-39.1 V17.9l45.6-9L109.5,17.9z"></path> <path class="st0" d="M46.8,57c-0.6-0.6-1.3-0.9-2.1-0.9s-1.5,0.3-2.1,0.9s-0.9,1.3-0.9,2.1s0.3,1.5,0.9,2.1L57,75.9 c0.6,0.6,1.3,0.9,2.1,0.9c0.9,0,1.7-0.3,2.2-1l29.2-29.1c0.6-0.6,0.9-1.3,0.9-2.1s-0.3-1.5-0.9-2.1s-1.3-0.9-2.1-0.9 c-0.8,0-1.5,0.3-2.1,0.9l-27,27L46.8,57z"></path> </g> </svg> 