<?xml version="1.0" encoding="UTF-8"?> <!-- Generator: Adobe Illustrator 23.0.2, SVG Export Plug-In . SVG Version: 6.00 Build 0) --> <svg xmlns="http://www.w3.org/2000/svg" xmlns:xlink="http://www.w3.org/1999/xlink" id="Слой_1" x="0px" y="0px" viewBox="0 0 128 128" style="enable-background:new 0 0 128 128;" xml:space="preserve"> <style type="text/css"> .st0{fill:#35589A;} </style> <g> <path class="st0" d="M107.1,18l-0.4-0.3l0.2-0.5c0.4-1.1,0.7-2.3,0.7-3.5c0-5.2-4.2-9.4-9.4-9.4c-5.2,0-9.4,4.2-9.4,9.4 s4.2,9.4,9.4,9.4c1.5,0,3.1-0.4,4.4-1.1l0.5-0.3l0.4,0.4c10.8,10.6,16.7,24.8,16.7,40c0,31-25.2,56.2-56.2,56.2 C33,118.2,7.8,93,7.8,62.1c0-11.6,3.7-23.2,10.4-32.6l0.3-0.5l0.5,0.2c1,0.4,2.1,0.6,3.2,0.6c5.2,0,9.4-4.2,9.4-9.4 S27.4,11,22.2,11s-9.4,4.2-9.4,9.4c0,1.6,0.4,3.3,1.3,4.7l0.2,0.4L14,25.9C6.5,36.3,2.3,49.2,2.3,62.1c0,34,27.7,61.7,61.7,61.7 s61.7-27.7,61.7-61.7C125.7,45.3,119.1,29.7,107.1,18z M98.2,17.6c-2.2,0-3.9-1.8-3.9-3.9c0-2.2,1.8-3.9,3.9-3.9 c2.2,0,3.9,1.8,3.9,3.9S100.3,17.6,98.2,17.6z M22.3,16.4c2.2,0,3.9,1.8,3.9,3.9c0,2.2-1.8,3.9-3.9,3.9c-2.2,0-3.9-1.8-3.9-3.9 C18.3,18.2,20.1,16.4,22.3,16.4z"></path> <path class="st0" d="M35.5,52l-0.2,0.5c-1,3.1-1.6,6.3-1.6,9.6c0,16.7,13.6,30.3,30.3,30.3s30.3-13.6,30.3-30.3c0-4.6-1-9-3-13.2 L91,48.5l0.3-0.4c1.2-1.6,1.8-3.5,1.8-5.4c0-5.2-4.2-9.4-9.4-9.4c-5.2,0-9.4,4.2-9.4,9.4s4.2,9.4,9.4,9.4c0.7,0,1.5-0.1,2.2-0.3 l0.6-0.2l0.3,0.6c1.4,3.1,2.1,6.5,2.1,9.9c0,13.7-11.1,24.8-24.8,24.8S39.3,75.8,39.3,62.1c0-2.4,0.4-4.9,1.1-7.3l0.2-0.6h0.8 c0.1,0,0.2,0,0.2,0c5.2,0,9.4-4.2,9.4-9.4s-4.2-9.4-9.4-9.4s-9.4,4.2-9.4,9.4c0,2.6,1.1,5,3,6.8L35.5,52z M41.5,48.8 c-2.2,0-3.9-1.8-3.9-3.9c0-2.2,1.8-3.9,3.9-3.9c2.2,0,3.9,1.8,3.9,3.9C45.5,47,43.7,48.8,41.5,48.8z M83.6,38.7 c2.2,0,3.9,1.8,3.9,3.9c0,2.2-1.8,3.9-3.9,3.9c-2.2,0-3.9-1.8-3.9-3.9S81.5,38.7,83.6,38.7z"></path> <path class="st0" d="M57.3,27.7c3.6,0,6.8-2,8.4-5.3L66,22h0.5c9.8,0.6,19,4.7,25.9,11.7c7.6,7.6,11.8,17.7,11.8,28.4 c0,22.1-18,40.1-40.1,40.1c-14.7,0-28.2-8-35.3-21l-0.3-0.5l0.4-0.4c1.8-1.8,2.8-4.2,2.8-6.7c0-5.2-4.2-9.4-9.4-9.4 s-9.4,4.2-9.4,9.4c0,5.2,4.2,9.4,9.4,9.4c0.2,0,0.3,0,0.5,0h0.7l0.2,0.4c7.9,15,23.4,24.3,40.3,24.3c25.1,0,45.6-20.5,45.6-45.6 c0-12.2-4.7-23.6-13.4-32.2C88.4,22,78.1,17.3,67.1,16.6h-0.5L66.4,16c-1.1-4.2-4.8-7.1-9.1-7.1c-5.2,0-9.4,4.2-9.4,9.4 S52.2,27.7,57.3,27.7z M57.3,14.4c2.2,0,3.9,1.8,3.9,3.9c0,2.2-1.8,3.9-3.9,3.9s-3.9-1.8-3.9-3.9C53.4,16.1,55.2,14.4,57.3,14.4z M22.3,69.7c2.2,0,3.9,1.8,3.9,3.9c0,2.2-1.8,3.9-3.9,3.9c-2.2,0-3.9-1.8-3.9-3.9C18.3,71.5,20.1,69.7,22.3,69.7z"></path> </g> </svg> 