<?xml version="1.0" encoding="UTF-8"?> <!-- Generator: Adobe Illustrator 23.0.2, SVG Export Plug-In . SVG Version: 6.00 Build 0) --> <svg xmlns="http://www.w3.org/2000/svg" xmlns:xlink="http://www.w3.org/1999/xlink" id="Слой_1" x="0px" y="0px" viewBox="0 0 128 128" style="enable-background:new 0 0 128 128;" xml:space="preserve"> <style type="text/css"> .st0{fill:#35589A;} </style> <g> <path class="st0" d="M86.6,87.5c0.7,0.3,1.3,0.4,1.9,0.3c1.3-0.1,2.4-0.6,3.3-1.4c0.9-0.9,1.4-2.2,1.4-3.6 c-0.1-7.3,4.5-13.6,11.4-15.8c0.6-0.2,1.1-0.4,1.5-0.8c1.1-0.8,1.8-2,1.9-3.2c0.2-1.3-0.1-2.7-0.9-3.8c-4.4-5.9-4.4-13.7-0.1-19.5 l0.5-0.7l0.3-0.9c0.4-1.2,0.3-2.6-0.3-3.7c-0.6-1.2-1.7-2.1-2.9-2.5c-6.9-2.2-11.5-8.6-11.4-15.8c0-0.6-0.1-1.1-0.3-1.7 c-0.4-1.2-1.3-2.2-2.6-2.9c-1.2-0.6-2.5-0.6-3.7-0.2c-1.7,0.6-3.4,0.9-5.3,0.9C76,12.2,71,9.6,67.9,5.3c-0.4-0.5-0.8-0.9-1.2-1.2 c-2.2-1.6-5.3-1.1-6.9,1.2C57,9.6,52,12.2,46.7,12.2c-1.8,0-3.6-0.3-5.2-0.9c-1.8-0.6-3.9-0.1-5.2,1.2c-0.9,0.9-1.4,2.2-1.4,3.5 c0.1,7.3-4.5,13.6-11.4,15.8c-0.5,0.1-1,0.4-1.6,0.8c-2.2,1.7-2.6,4.7-1,7c4.3,5.8,4.3,13.7,0,19.6c-0.3,0.4-0.6,0.9-0.8,1.5 c-0.4,1.3-0.3,2.5,0.3,3.8c0.6,1.1,1.7,2,2.9,2.4c6.9,2.2,11.5,8.5,11.4,15.7c-0.1,0.6,0,1.2,0.3,1.8c0.4,1.2,1.3,2.2,2.6,2.9 c1.3,0.5,2.5,0.6,3.7,0.2c1.7-0.6,3.6-0.9,5.4-0.9c5.3,0,10.2,2.5,13.3,6.9c0.3,0.4,0.7,0.8,1.2,1.2c0.8,0.6,1.9,0.9,2.9,0.9 c0.3,0,0.6,0,0.8-0.1c1.3-0.2,2.4-0.9,3.2-2C72.3,87.6,79.7,85.2,86.6,87.5z M25.7,37c8.6-3,14.4-11,14.6-20.1 c2,0.6,4.1,0.9,6.2,0.9c6.8,0,13.3-3.2,17.4-8.6c4.1,5.4,10.6,8.6,17.5,8.6c2.3,0,4.4-0.3,6.2-0.9c0.2,9,6,17,14.5,20.1 c-5.1,7.5-5.1,17.4,0,24.9c-8.5,3-14.3,11-14.6,20.1c-8.7-2.6-18.1,0.5-23.7,7.7c-4-5.4-10.4-8.7-17.2-8.7c-2.2,0-4.4,0.3-6.3,0.9 c-0.2-9.2-6-17.1-14.6-20.1C30.9,54.4,30.9,44.5,25.7,37z"></path> <path class="st0" d="M43.9,53C51,56.1,57,62.1,60.3,69.5c0.6,1.5,2.1,2.4,3.6,2.4c1.6,0,3-0.9,3.6-2.4c3.1-7.2,9.2-13.2,16.6-16.5 c1.4-0.7,2.3-2.1,2.3-3.6c0.1-1.6-0.9-3-2.4-3.6c-7.5-3.1-13.3-8.9-16.5-16.4c-0.6-1.5-2.1-2.5-3.7-2.5c-1.6,0-3,1-3.6,2.4 c-3.2,7.4-9,13.2-16.4,16.4c-1.5,0.6-2.5,2-2.5,3.6C41.5,50.9,42.4,52.3,43.9,53z M49.2,49.4C55.5,46,60.6,40.9,64,34.7 c3.4,6.3,8.5,11.4,14.9,14.8C72.6,53,67.4,58.2,64,64.4C60.4,58.1,55.3,52.8,49.2,49.4z"></path> <path class="st0" d="M49.7,93.5c-1.3-0.8-3-0.5-3.9,0.8l-12.6,19.2L27,100.6H14l13.1-20.1c0.8-1.3,0.5-3-0.8-3.9 c-1.3-0.8-3-0.5-3.9,0.8L3.7,106.2h19.8l9.1,18.6l17.9-27.4c0.4-0.6,0.6-1.4,0.4-2.2C50.7,94.5,50.3,93.9,49.7,93.5z"></path> <path class="st0" d="M105.5,77.4c-0.9-1.3-2.6-1.7-3.9-0.8c-0.6,0.4-1.1,1-1.2,1.8c-0.1,0.7,0,1.5,0.4,2.1l13.2,20.1h-13.1 l-6.3,12.9L82.1,94.3c-0.4-0.6-1-1.1-1.8-1.2c-0.7-0.1-1.5,0-2.1,0.4c-1.3,0.9-1.7,2.6-0.8,3.9l18,27.4l9.1-18.6h19.8L105.5,77.4z"></path> </g> </svg> 