<?xml version="1.0" encoding="UTF-8"?> <svg xmlns="http://www.w3.org/2000/svg" id="CUT" viewBox="0 0 1828.73 336.2"> <defs> <style>.cls-1{fill:#1d1d1b;}.cls-2{fill:#010101;}.cls-3{fill:#ef781a;}</style> </defs> <path class="cls-1" d="M375,176.45H358.38v33.76H343.92V130.34h14.46V164.1h16.88l25.92-33.76H416.7l-30.29,38.43,32.4,41.44h-17Z"></path> <path class="cls-1" d="M501.34,175.1h-64.8a25.12,25.12,0,0,0,9.27,17q7.9,6.4,19.66,6.4,14.32,0,23.06-9.64l8,9.34A35.06,35.06,0,0,1,483,207.8a50.88,50.88,0,0,1-40.46-1.89,37,37,0,0,1-15.14-14.54,41.65,41.65,0,0,1-5.35-21.09,42.3,42.3,0,0,1,5.2-20.95,37.19,37.19,0,0,1,14.31-14.54,40.73,40.73,0,0,1,20.57-5.2,39.94,39.94,0,0,1,20.42,5.2,36.59,36.59,0,0,1,14,14.54,44.25,44.25,0,0,1,5.05,21.4A41.76,41.76,0,0,1,501.34,175.1Zm-56.58-27a25.48,25.48,0,0,0-8.22,16.57h51.24a25.68,25.68,0,0,0-8.22-16.5q-7-6.4-17.4-6.4T444.76,148.13Z"></path> <path class="cls-1" d="M520.38,130.34h14.47v58.17l49-58.17h13.11v79.87H582.47V152l-48.83,58.17H520.38Zm20-15.74q-6.18-5.35-6.33-15.45h9.8a12.07,12.07,0,0,0,3.84,9q3.69,3.39,9.87,3.39t9.95-3.39a12,12,0,0,0,3.92-9h10.09q-.15,10.09-6.48,15.45T557.75,120Q546.61,120,540.42,114.6Z"></path> <path class="cls-1" d="M635.59,205.84a38.66,38.66,0,0,1-15-14.54,43.47,43.47,0,0,1,0-42,38.15,38.15,0,0,1,15-14.47,44.84,44.84,0,0,1,21.78-5.2A41.82,41.82,0,0,1,676.73,134a31.22,31.22,0,0,1,13.19,12.66l-11,7.08a24.63,24.63,0,0,0-9.35-8.59,26.71,26.71,0,0,0-12.35-2.86,28.67,28.67,0,0,0-14.09,3.46,24.73,24.73,0,0,0-9.79,9.87,32.5,32.5,0,0,0,0,29.54,24.61,24.61,0,0,0,9.79,9.87,28.56,28.56,0,0,0,14.09,3.46,26.59,26.59,0,0,0,12.35-2.86,24.63,24.63,0,0,0,9.35-8.59l11,6.93a31.59,31.59,0,0,1-13.19,12.74,41.23,41.23,0,0,1-19.36,4.44A44.33,44.33,0,0,1,635.59,205.84Z"></path> <path class="cls-1" d="M811.67,143H782.44v67.21H768V143H738.74V130.34h72.93Z"></path> <path class="cls-1" d="M896.64,175.1H831.85a25.07,25.07,0,0,0,9.26,17q7.92,6.4,19.67,6.4,14.31,0,23.05-9.64l8,9.34a35,35,0,0,1-13.49,9.65,50.88,50.88,0,0,1-40.46-1.89,37,37,0,0,1-15.14-14.54,41.65,41.65,0,0,1-5.35-21.09,42.3,42.3,0,0,1,5.2-20.95,37.26,37.26,0,0,1,14.31-14.54,40.76,40.76,0,0,1,20.57-5.2,39.91,39.91,0,0,1,20.42,5.2,36.46,36.46,0,0,1,14,14.54,44.25,44.25,0,0,1,5.05,21.4A41.76,41.76,0,0,1,896.64,175.1Zm-56.58-27a25.47,25.47,0,0,0-8.21,16.57h51.23a25.72,25.72,0,0,0-8.21-16.5q-7-6.4-17.41-6.4T840.06,148.13Z"></path> <path class="cls-1" d="M963.71,210.21l-23.06-30.59L917.3,210.21H901.18l31.49-40.84-30-39H918.8l22,28.79,21.85-28.79h15.83l-30.14,39,31.79,40.84Z"></path> <path class="cls-1" d="M993.51,130.34H1008v33.91h45.5V130.34H1068v79.87h-14.47V176.76H1008v33.45H993.51Z"></path> <path class="cls-1" d="M1106.74,205.84a38.29,38.29,0,0,1-14.85-14.54,44,44,0,0,1,0-42,37.78,37.78,0,0,1,14.85-14.47,46.47,46.47,0,0,1,42.72,0,37.88,37.88,0,0,1,14.76,14.47,44,44,0,0,1,0,42,38.4,38.4,0,0,1-14.76,14.54,45.92,45.92,0,0,1-42.72,0Zm35.18-10.93a25,25,0,0,0,9.57-9.94,32.85,32.85,0,0,0,0-29.39,24.59,24.59,0,0,0-9.57-9.87,29.19,29.19,0,0,0-27.57,0,25.11,25.11,0,0,0-9.65,9.87,32.27,32.27,0,0,0,0,29.39,25.49,25.49,0,0,0,9.65,9.94,28.61,28.61,0,0,0,27.57,0Z"></path> <path class="cls-1" d="M1256.59,130.34v79.87h-14.46V143h-34.36l-.9,17.78a190,190,0,0,1-2.87,26.9q-2.12,10.77-6.93,17.25t-13.41,6.48a34.39,34.39,0,0,1-8.89-1.35l.9-12.21a16.26,16.26,0,0,0,3.62.45,9.76,9.76,0,0,0,9-5.27,33.29,33.29,0,0,0,3.92-12.51q.9-7.23,1.66-20.64l1.35-29.54Z"></path> <path class="cls-1" d="M1295.11,205.84a38.29,38.29,0,0,1-14.85-14.54,44,44,0,0,1,0-42,37.78,37.78,0,0,1,14.85-14.47,46.47,46.47,0,0,1,42.72,0,37.88,37.88,0,0,1,14.76,14.47,44,44,0,0,1,0,42,38.4,38.4,0,0,1-14.76,14.54,45.92,45.92,0,0,1-42.72,0Zm35.18-10.93a25,25,0,0,0,9.57-9.94,32.85,32.85,0,0,0,0-29.39,24.59,24.59,0,0,0-9.57-9.87,29.19,29.19,0,0,0-27.57,0,25.11,25.11,0,0,0-9.65,9.87,32.27,32.27,0,0,0,0,29.39,25.49,25.49,0,0,0,9.65,9.94,28.61,28.61,0,0,0,27.57,0Z"></path> <path class="cls-1" d="M1457.77,197.55v31.19h-13.56V210.21h-66.76v18.53h-13.71V197.55H1368q7.68-.45,10.55-10.85t3.92-29.38l1.2-27h61.93v67.21Zm-64.57-14.24q-1.89,9.87-6.86,14.24h44.76V143h-34.66l-.75,15.37A174.33,174.33,0,0,1,1393.2,183.31Z"></path> <path class="cls-1" d="M1552,176.45h-15.52v33.76H1522V176.45h-15.52l-22,33.76h-17.17l27.42-41.29-25.32-38.58h15.38l21.54,33.76H1522V130.34h14.47V164.1h15.67l21.55-33.76h15.52l-25.32,38.73,27.43,41.14h-17.18Z"></path> <path class="cls-1" d="M1604.93,130.34h14.46v58.17l49-58.17h13.11v79.87H1667V152l-48.82,58.17h-13.26Z"></path> <path class="cls-1" d="M1720.14,205.84a38.69,38.69,0,0,1-15-14.54,43.47,43.47,0,0,1,0-42,38.17,38.17,0,0,1,15-14.47,44.8,44.8,0,0,1,21.77-5.2,41.82,41.82,0,0,1,19.36,4.37,31.22,31.22,0,0,1,13.19,12.66l-11,7.08a24.6,24.6,0,0,0-9.34-8.59,26.78,26.78,0,0,0-12.36-2.86,28.7,28.7,0,0,0-14.09,3.46,24.79,24.79,0,0,0-9.79,9.87,32.58,32.58,0,0,0,0,29.54,24.67,24.67,0,0,0,9.79,9.87,28.59,28.59,0,0,0,14.09,3.46,26.66,26.66,0,0,0,12.36-2.86,24.6,24.6,0,0,0,9.34-8.59l11,6.93a31.59,31.59,0,0,1-13.19,12.74,41.23,41.23,0,0,1-19.36,4.44A44.29,44.29,0,0,1,1720.14,205.84Z"></path> <path class="cls-2" d="M247.43,74.73V237.82A162.64,162.64,0,0,0,199.65,122.5Z"></path> <path class="cls-2" d="M247.43,237.82H84.33L199.65,122.5A162.64,162.64,0,0,1,247.43,237.82Z"></path> <path class="cls-3" d="M247.43,237.82H84.33V74.73a163.11,163.11,0,0,1,163.1,163.09Z"></path> </svg> 