<?xml version="1.0" encoding="UTF-8"?> <!-- Generator: Adobe Illustrator 23.0.2, SVG Export Plug-In . SVG Version: 6.00 Build 0) --> <svg xmlns="http://www.w3.org/2000/svg" xmlns:xlink="http://www.w3.org/1999/xlink" id="Слой_1" x="0px" y="0px" viewBox="0 0 128 128" style="enable-background:new 0 0 128 128;" xml:space="preserve"> <style type="text/css"> .st0{fill:#F06124;} </style> <g id="Layer_2"> <g> <path class="st0" d="M117.9,40.3c0,0,0-0.1,0-0.2V40h-0.1v-0.3c0,0,0-0.1,0-0.2v-0.1v-0.1c-0.1-0.2-0.1-0.3-0.2-0.4L94.8,5.6 c-0.4-0.7-1.2-1-2-1H35.1c-0.8,0-1.5,0.4-2,1L10.5,38.9c-0.1,0.1-0.1,0.2-0.2,0.3l-0.1,0.2v0.1c0,0.1,0,0.1,0,0.1 c0,0.1,0,0.2-0.1,0.2c0,0.1,0,0.3,0,0.4V121c0,1.3,1.1,2.4,2.4,2.4h103.1c1.3,0,2.4-1.1,2.4-2.4L117.9,40.3L117.9,40.3z M91.6,9.3 l0.1,0.1L111,37.9H76.5v-0.2L73.2,9.3H91.6z M59.5,9.3h9v0.2l3.2,28.4H56.2L59.5,9.3z M56,42.9h0.2v-0.3H72v20l-6.6-4.7 c-0.8-0.6-1.9-0.6-2.7,0L56,62.6V42.9z M36.4,9.3h18.3l-3.2,28.6H16.9L36.4,9.3z M113.2,118.7H14.8V42.6h36.4v24.5 c0,0.9,0.5,1.7,1.3,2.1s1.7,0.3,2.5-0.2l9-6.4l9,6.4c0.7,0.5,1.6,0.6,2.5,0.2c0.8-0.4,1.3-1.2,1.3-2.1V42.7h36.4 C113.2,42.7,113.2,118.7,113.2,118.7z"></path> <path class="st0" d="M44.8,90.3H26.2c-1.3,0-2.4,1.1-2.4,2.4s1.1,2.4,2.4,2.4h18.6c1.3,0,2.4-1.1,2.4-2.4 C47.1,91.3,46,90.3,44.8,90.3z"></path> <path class="st0" d="M35.5,101.3h-9.3c-1.3,0-2.4,1.1-2.4,2.4s1.1,2.4,2.4,2.4h9.3c1.3,0,2.4-1.1,2.4-2.4S36.7,101.3,35.5,101.3z"></path> </g> </g> </svg> 