<?xml version="1.0" encoding="UTF-8"?> <!-- Generator: Adobe Illustrator 23.0.2, SVG Export Plug-In . SVG Version: 6.00 Build 0) --> <svg xmlns="http://www.w3.org/2000/svg" xmlns:xlink="http://www.w3.org/1999/xlink" id="Слой_1" x="0px" y="0px" viewBox="0 0 128 128" style="enable-background:new 0 0 128 128;" xml:space="preserve"> <style type="text/css"> .st0{fill:#F06124;} </style> <g> <path class="st0" d="M64,76.1c-5.6,0-10.2,4.6-10.2,10.2S58.4,96.5,64,96.5s10.2-4.6,10.2-10.2C74.2,80.6,69.7,76.1,64,76.1z M64,92c-3.1,0-5.7-2.5-5.7-5.7s2.5-5.7,5.7-5.7c3.2,0,5.7,2.5,5.7,5.7S67.1,92,64,92z"></path> <path class="st0" d="M28.5,15.6c-5.6,0-10.2,4.6-10.2,10.2S22.9,36,28.5,36s10.2-4.6,10.2-10.2S34.1,15.6,28.5,15.6z M28.6,31.5 c-3.1,0-5.7-2.5-5.7-5.7c0-3.1,2.5-5.7,5.7-5.7c3.1,0,5.7,2.5,5.7,5.7C34.3,28.9,31.7,31.5,28.6,31.5z"></path> <path class="st0" d="M99.5,7.6C86,7.6,74.9,17.7,73.5,31v0.3H54.6V31C53.2,17.7,42,7.7,28.6,7.7C14.1,7.7,2.4,19.4,2.4,33.8 s11.7,26.1,26.1,26.1c3.2,0,6.3-0.6,9.3-1.7l0.3-0.1l9,16.2l-0.2,0.2c-5.7,5-9,12.2-9,19.7c0,14.4,11.7,26.1,26.1,26.1 s26.1-11.7,26.1-26.1c0-8.1-3.7-15.6-10.1-20.6l-0.3-0.2l8.8-16l0.3,0.1c3.4,1.5,7,2.3,10.7,2.3c14.4,0,26.1-11.7,26.1-26.1 S113.9,7.6,99.5,7.6z M9.7,44.4L9.5,44C7.8,40.8,7,37.4,7,33.8c0-12,9.7-21.7,21.7-21.7c11.9,0,21.6,9.7,21.6,21.7 c0,3.6-0.9,7-2.5,10.2l-0.2,0.4l-0.4-0.3c-4.9-4.3-11.1-6.6-17.6-6.6h-1.9c-6.5,0-12.5,2.3-17.6,6.6L9.7,44.4z M28.5,55.4 c-6,0-11.8-2.6-16-7l-0.3-0.3l0.3-0.3C16.7,44.1,22,42,27.6,42h1.9c5.5,0,10.8,2.1,15,5.8l0.3,0.3l-0.3,0.3 C40.3,52.8,34.5,55.4,28.5,55.4z M79.9,108.9c-4.1,4.5-10,7-16,7s-11.8-2.6-16-7l-0.3-0.3l0.3-0.3c4.2-3.7,9.6-5.8,15-5.8h1.9 c5.5,0,10.8,2.1,15,5.8l0.3,0.3L79.9,108.9z M85.7,94.3c0,3.5-0.9,6.9-2.6,10.2l-0.2,0.4l-0.4-0.3c-4.9-4.3-11.1-6.6-17.6-6.6H63 c-6.5,0-12.5,2.3-17.6,6.6l-0.4,0.3l-0.2-0.4c-1.7-3.2-2.5-6.6-2.5-10.2c0-12,9.7-21.7,21.7-21.7C76,72.6,85.7,82.3,85.7,94.3z M75.7,70.8l-0.3-0.2C71.8,69,68,68.1,64,68.1c-4.4,0-8.8,1.1-12.7,3.3L51,71.6L42.4,56l0.3-0.2c6.8-4.4,11.1-11.4,11.9-19.3v-0.3 h18.9v0.3c0.8,7.3,4.6,14,10.6,18.4l0.3,0.2L75.7,70.8z M115.4,48.4c-4.1,4.5-10,7-16,7s-11.8-2.6-16-7l-0.3-0.3l0.3-0.3 c4.1-3.7,9.5-5.8,15.1-5.8h1.9c5.5,0,10.8,2.1,15,5.8l0.3,0.3L115.4,48.4z M118.4,44.4l-0.4-0.3c-5-4.3-11.2-6.6-17.7-6.6h-1.9 c-6.5,0-12.5,2.3-17.6,6.6l-0.4,0.3V44c-1.7-3.2-2.5-6.6-2.5-10.2c0-12,9.7-21.7,21.7-21.7s21.7,9.7,21.7,21.7 c0,3.6-0.9,7-2.5,10.2L118.4,44.4z"></path> <path class="st0" d="M99.5,15.6c-5.6,0-10.2,4.6-10.2,10.2S93.9,36,99.5,36s10.2-4.6,10.2-10.2S105.1,15.6,99.5,15.6z M99.5,31.5 c-3.1,0-5.7-2.5-5.7-5.7c0-3.1,2.5-5.7,5.7-5.7s5.7,2.5,5.7,5.7C105.2,28.9,102.6,31.5,99.5,31.5z"></path> </g> </svg> 