<?xml version="1.0" encoding="UTF-8"?> <!-- Generator: Adobe Illustrator 23.0.2, SVG Export Plug-In . SVG Version: 6.00 Build 0) --> <svg xmlns="http://www.w3.org/2000/svg" xmlns:xlink="http://www.w3.org/1999/xlink" id="Слой_1" x="0px" y="0px" viewBox="0 0 128 128" style="enable-background:new 0 0 128 128;" xml:space="preserve"> <style type="text/css"> .st0{fill:#F06124;} </style> <g> <path class="st0" d="M14.1,91.6c-1.4,0-2.4,1.1-2.4,2.5v19.2c0,1.4,1.1,2.4,2.4,2.4s2.4-1.1,2.4-2.4V94.1 C16.5,92.7,15.4,91.6,14.1,91.6z"></path> <path class="st0" d="M123.1,12.3H7.7c-1.4,0-2.4,1.1-2.4,2.4v71.2C3.4,89.2,2.4,93,2.4,96.8v16.4c0,1.4,1.1,2.4,2.4,2.4 s2.4-1.1,2.4-2.4V96.8c0-9.5,7.8-17.3,17.3-17.3h4.2c10.6,0,13.6,1.1,19.7,3.1l7.9,2.8c0.9,0.3,2,0.1,2.6-0.7L74.2,68 c0.8-0.9,2.2-1.1,3.2-0.4c1.2,0.7,1.6,2.2,0.9,3.4c-0.1,0.2-0.2,0.3-0.3,0.4L59.7,91.9c-0.8,0.9-1.9,1.3-3,1.1l-11.9-3.8 c-0.6-0.2-1.3-0.1-1.9,0.1c-0.6,0.3-1,0.8-1.2,1.4c-0.1,0.2-0.1,0.5-0.1,0.8v21.8c0,1.3,1.1,2.4,2.5,2.5c0.7,0,1.3-0.3,1.7-0.7 c0.5-0.5,0.7-1.1,0.7-1.7v-7.1h76.7c1.4,0,2.4-1.1,2.4-2.5v-89C125.6,13.4,124.5,12.3,123.1,12.3z M83.6,69.4c-0.1-2-1-3.8-2.5-5.1 c-0.4-0.4-0.9-0.7-1.4-1c-3-1.7-6.8-1.1-9.2,1.4L56.4,80.2L50,78c-3.8-1.3-6.6-2.3-10.8-2.9c5.6-5.1,6.7-13.5,2.6-19.9 c-2.2-3.5-5.7-6-9.8-7c-4.1-0.9-8.3-0.2-11.9,2s-6,5.7-7,9.8c-0.9,4.1-0.2,8.3,2,11.9c0.8,1.3,1.8,2.5,3,3.5 c-3,0.9-5.8,2.4-8.2,4.5V17.2h110.6v84h-74v-6.4l9,2.9c2.9,0.6,5.9-0.3,7.9-2.5l18.3-20.4l0,0C83,73.3,83.7,71.4,83.6,69.4z M28.6,52.8c6,0,10.8,4.9,10.8,10.8c0,6-4.9,10.8-10.8,10.8s-10.8-4.9-10.8-10.8C17.8,57.7,22.6,52.8,28.6,52.8z"></path> <path class="st0" d="M48.8,31.1h58.1c0.7,0,1.3-0.3,1.7-0.7c0.5-0.5,0.7-1.1,0.7-1.7c0-0.7-0.3-1.3-0.7-1.7 c-0.5-0.5-1.1-0.7-1.7-0.7H48.8c-1.3,0-2.4,1.1-2.4,2.4c0,0.7,0.3,1.3,0.7,1.7S48.1,31.1,48.8,31.1z"></path> <path class="st0" d="M95.8,39.4c-0.7,0-1.3,0.3-1.7,0.7c-0.5,0.5-0.7,1.1-0.7,1.7c0,1.4,1.1,2.4,2.5,2.5H107c0.7,0,1.3-0.3,1.7-0.7 c0.5-0.5,0.7-1.1,0.7-1.7c0-0.7-0.3-1.3-0.7-1.7s-1.1-0.7-1.7-0.7L95.8,39.4L95.8,39.4z"></path> <path class="st0" d="M84.8,41.8c0-0.7-0.3-1.3-0.7-1.7c-0.5-0.5-1.1-0.7-1.7-0.7H48.8c-0.7,0-1.3,0.3-1.7,0.7s-0.7,1.1-0.7,1.7 c0,1.3,1.1,2.4,2.4,2.4h33.6C83.7,44.3,84.8,43.2,84.8,41.8z"></path> <path class="st0" d="M106.8,57.5c0.7,0,1.3-0.3,1.7-0.7c0.5-0.5,0.7-1.1,0.7-1.7c0-0.7-0.3-1.3-0.7-1.7c-0.5-0.5-1.1-0.7-1.7-0.7 H85.1c-1.3,0-2.4,1.1-2.4,2.5c0,1.3,1.1,2.4,2.4,2.4L106.8,57.5L106.8,57.5z"></path> <path class="st0" d="M60.1,52.6H48.8c-0.7,0-1.3,0.3-1.7,0.7c-0.5,0.5-0.7,1.1-0.7,1.7c0,1.3,1.1,2.4,2.4,2.4h11.4 c0.7,0,1.3-0.3,1.7-0.7s0.7-1.1,0.7-1.7C62.6,53.7,61.5,52.6,60.1,52.6z"></path> </g> </svg> 