<?xml version="1.0" encoding="UTF-8"?> <!-- Generator: Adobe Illustrator 23.0.2, SVG Export Plug-In . SVG Version: 6.00 Build 0) --> <svg xmlns="http://www.w3.org/2000/svg" xmlns:xlink="http://www.w3.org/1999/xlink" id="Слой_1" x="0px" y="0px" viewBox="0 0 64 64" style="enable-background:new 0 0 64 64;" xml:space="preserve"> <style type="text/css"> .st0{fill:#F06124;} </style> <g> <path class="st0" d="M60,58.6h-1.6V18c0-0.8-0.6-1.4-1.4-1.4H25c-0.3,0-0.6,0.1-0.8,0.3l-18,14c-0.3,0.3-0.5,0.7-0.5,1.1v26.6H4 c-0.8,0-1.4,0.6-1.4,1.4s0.6,1.4,1.4,1.4h56c0.8,0,1.4-0.6,1.4-1.4S60.8,58.6,60,58.6z M50.6,49.4v9.3h-5.3v-9.3H50.6z M36.6,39.4 v19.3H13.4V39.4H36.6z M52,46.6h-8c-0.8,0-1.4,0.6-1.4,1.4v10.6h-3.3V38c0-0.8-0.6-1.4-1.4-1.4H12c-0.8,0-1.4,0.6-1.4,1.4v20.6H8.4 v-26l17.1-13.3h30.2v39.3h-2.3V48C53.4,47.2,52.8,46.6,52,46.6z"></path> <path class="st0" d="M18,45.4h14c0.8,0,1.4-0.6,1.4-1.4s-0.6-1.4-1.4-1.4H18c-0.8,0-1.4,0.6-1.4,1.4S17.2,45.4,18,45.4z"></path> <path class="st0" d="M18,50.4h14c0.8,0,1.4-0.6,1.4-1.4s-0.6-1.4-1.4-1.4H18c-0.8,0-1.4,0.6-1.4,1.4S17.2,50.4,18,50.4z"></path> <path class="st0" d="M27,32.6h-4c-0.8,0-1.4,0.6-1.4,1.4s0.6,1.4,1.4,1.4h4c0.8,0,1.4-0.6,1.4-1.4S27.8,32.6,27,32.6z"></path> <path class="st0" d="M51,26.6h-8c-0.8,0-1.4,0.6-1.4,1.4v4c0,0.8,0.6,1.4,1.4,1.4h8c0.8,0,1.4-0.6,1.4-1.4v-4 C52.4,27.2,51.8,26.6,51,26.6z M49.6,29.4v1.3h-1.3v-1.3H49.6z M45.6,29.4v1.3h-1.3v-1.3H45.6z"></path> <path class="st0" d="M18,55.4h14c0.8,0,1.4-0.6,1.4-1.4s-0.6-1.4-1.4-1.4H18c-0.8,0-1.4,0.6-1.4,1.4S17.2,55.4,18,55.4z"></path> <path class="st0" d="M50,42.6h-4c-0.8,0-1.4,0.6-1.4,1.4s0.6,1.4,1.4,1.4h4c0.8,0,1.4-0.6,1.4-1.4S50.8,42.6,50,42.6z"></path> </g> </svg> 