<?xml version="1.0" encoding="UTF-8"?> <svg xmlns="http://www.w3.org/2000/svg" viewBox="0 0 24 24"> <path d="M21.5 8H17V6.5A2.503 2.503 0 0 0 14.5 4h-11A2.503 2.503 0 0 0 1 6.5v9a2.5 2.5 0 0 0 2.046 2.454A2.497 2.497 0 0 0 7.949 18h6.102a2.5 2.5 0 0 0 4.898 0H21.5a1.502 1.502 0 0 0 1.5-1.5v-7A1.502 1.502 0 0 0 21.5 8Zm0 1a.5.5 0 0 1 .5.5V12h-1.5a3.505 3.505 0 0 1-3.464-3ZM2 15.5v-9A1.502 1.502 0 0 1 3.5 5h11A1.502 1.502 0 0 1 16 6.5v8.55A2.507 2.507 0 0 0 14.05 17h-6.1a2.496 2.496 0 0 0-4.878-.07A1.497 1.497 0 0 1 2 15.5ZM5.5 19A1.5 1.5 0 1 1 7 17.5 1.502 1.502 0 0 1 5.5 19Zm11 0a1.5 1.5 0 1 1 1.5-1.5 1.502 1.502 0 0 1-1.5 1.5Zm5-2h-2.55A2.507 2.507 0 0 0 17 15.05v-3.757A4.475 4.475 0 0 0 20.5 13H22v3.5a.5.5 0 0 1-.5.5Z" fill="#f06124" class="fill-000000"></path> </svg> 