<?xml version="1.0" encoding="UTF-8"?> <!-- Generator: Adobe Illustrator 23.0.2, SVG Export Plug-In . SVG Version: 6.00 Build 0) --> <svg xmlns="http://www.w3.org/2000/svg" xmlns:xlink="http://www.w3.org/1999/xlink" id="Слой_1" x="0px" y="0px" viewBox="0 0 50 50" style="enable-background:new 0 0 50 50;" xml:space="preserve"> <style type="text/css"> .st0{fill:#F06124;} </style> <path class="st0" d="M49.1,27.4c0-4.2-2.1-7.6-5-8.2c-0.3-0.9-1-1.5-1.8-1.8C41.4,8.7,34,1.8,25,1.8c-9,0-16.4,6.8-17.3,15.5 c-0.9,0.3-1.5,1-1.9,1.8c-2.9,0.6-5,4-5,8.2c0,4.2,2.1,7.6,5,8.2c0.4,1.2,1.6,2,2.8,2c1.7,0,3-1.3,3-3V20.2c0-1.2-0.7-2.3-1.8-2.8 C10.8,9.9,17.2,4,25,4c7.8,0,14.2,5.9,15.1,13.4c-1.1,0.5-1.8,1.5-1.8,2.8v14.4c0,1.3,0.8,2.3,1.9,2.8c-0.3,3.6-2.6,5.7-6.5,5.7h-3 c-0.4-1.1-1.5-1.9-2.8-1.9h-4.8c-1.7,0-3,1.3-3,3s1.3,3,3,3h4.8c1.3,0,2.4-0.8,2.8-1.9h3c5.1,0,8.4-3,8.7-7.9c0.8-0.3,1.5-1,1.8-1.8 C47,35,49.1,31.6,49.1,27.4z M44.3,21.6c1.5,0.8,2.6,3.1,2.6,5.8c0,2.7-1.1,5.1-2.6,5.8V21.6z M41.3,35.4c-0.5,0-0.8-0.4-0.8-0.8 V20.2c0-0.5,0.4-0.8,0.8-0.8s0.8,0.4,0.8,0.8v14.4C42.2,35.1,41.8,35.4,41.3,35.4z M9.5,34.6c0,0.5-0.4,0.8-0.8,0.8 s-0.8-0.4-0.8-0.8V20.2c0-0.5,0.4-0.8,0.8-0.8s0.8,0.4,0.8,0.8V34.6z M5.7,21.6v11.7C4.1,32.4,3,30,3,27.4S4.1,22.4,5.7,21.6z M23.1,43.4h4.8c0.5,0,0.8,0.4,0.8,0.8S28.3,45,27.9,45h-4.8c-0.5,0-0.8-0.4-0.8-0.8S22.6,43.4,23.1,43.4z"></path> </svg> 