<?xml version="1.0" encoding="UTF-8"?> <!-- Generator: Adobe Illustrator 23.0.2, SVG Export Plug-In . SVG Version: 6.00 Build 0) --> <svg xmlns="http://www.w3.org/2000/svg" xmlns:xlink="http://www.w3.org/1999/xlink" id="Слой_1" x="0px" y="0px" viewBox="0 0 60 60" style="enable-background:new 0 0 60 60;" xml:space="preserve"> <style type="text/css"> .st0{fill:#F06124;} </style> <g> <path class="st0" d="M43,34.7c0,1.7,1.4,3.1,3.1,3.1s3.1-1.4,3.1-3.1s-1.4-3.1-3.1-3.1S43,33,43,34.7z M45.3,34.7 c0-0.4,0.3-0.7,0.7-0.7c0.4,0,0.7,0.3,0.7,0.7s-0.3,0.7-0.7,0.7C45.7,35.4,45.3,35.1,45.3,34.7z"></path> <path class="st0" d="M12.1,48.6c-0.7,0-1.2,0.5-1.2,1.2s0.5,1.2,1.2,1.2h17c0.7,0,1.2-0.5,1.2-1.2s-0.5-1.2-1.2-1.2H12.1z"></path> <path class="st0" d="M2.6,39.7c0.7,0,1.2-0.5,1.2-1.2V28.4h49.8c0.7,0,1.2-0.5,1.2-1.2S54.3,26,53.6,26h-51c-0.7,0-1.2,0.5-1.2,1.2 v11.3C1.4,39.2,2,39.7,2.6,39.7z"></path> <path class="st0" d="M12.1,33.5c-0.7,0-1.2,0.5-1.2,1.2s0.5,1.2,1.2,1.2h17c0.7,0,1.2-0.5,1.2-1.2s-0.5-1.2-1.2-1.2H12.1z"></path> <path class="st0" d="M35.4,34.7c0,1.7,1.4,3.1,3.1,3.1s3.1-1.4,3.1-3.1s-1.4-3.1-3.1-3.1S35.4,33,35.4,34.7z M37.8,34.7 c0-0.4,0.3-0.7,0.7-0.7c0.4,0,0.7,0.3,0.7,0.7s-0.3,0.7-0.7,0.7C38.1,35.4,37.8,35.1,37.8,34.7z"></path> <path class="st0" d="M35.4,49.8c0,1.7,1.4,3.1,3.1,3.1s3.1-1.4,3.1-3.1s-1.4-3.1-3.1-3.1S35.4,48.1,35.4,49.8z M37.8,49.8 c0-0.4,0.3-0.7,0.7-0.7c0.4,0,0.7,0.3,0.7,0.7s-0.3,0.7-0.7,0.7C38.1,50.5,37.8,50.2,37.8,49.8z"></path> <path class="st0" d="M53.6,1.4H6.4c-2.6,0-5,2.4-5,5v17c0,0.7,0.5,1.2,1.2,1.2s1.2-0.5,1.2-1.2v-17c0-1.2,1.4-2.6,2.6-2.6h47.2 c1.2,0,2.6,1.4,2.6,2.6v47.2c0,1.2-1.4,2.6-2.6,2.6H6.4c-1.2,0-2.6-1.4-2.6-2.6V43.5h49.8c0.7,0,1.2-0.5,1.2-1.2s-0.5-1.2-1.2-1.2 h-51c-0.7,0-1.2,0.5-1.2,1.2v11.3c0,2.6,2.4,5,5,5h47.2c2.6,0,5-2.4,5-5V6.4C58.6,3.9,56.1,1.4,53.6,1.4z"></path> <path class="st0" d="M43,49.8c0,1.7,1.4,3.1,3.1,3.1s3.1-1.4,3.1-3.1s-1.4-3.1-3.1-3.1S43,48.1,43,49.8z M45.3,49.8 c0-0.4,0.3-0.7,0.7-0.7c0.4,0,0.7,0.3,0.7,0.7s-0.3,0.7-0.7,0.7C45.7,50.5,45.3,50.2,45.3,49.8z"></path> </g> </svg> 