<svg width="1920" height="980" viewBox="0 0 1920 980" fill="none" xmlns="http://www.w3.org/2000/svg">
<path fill-rule="evenodd" clip-rule="evenodd" d="M323.202 720.076C334.632 718.197 343.352 708.272 343.352 696.311C343.352 683.009 332.568 672.225 319.266 672.225C305.964 672.225 295.181 683.009 295.181 696.311C295.181 708.272 303.901 718.198 315.331 720.076V883.181H323.202V720.076ZM335.48 696.311C335.48 705.265 328.221 712.525 319.266 712.525C310.311 712.525 303.052 705.265 303.052 696.311C303.052 687.356 310.311 680.097 319.266 680.097C328.221 680.097 335.48 687.356 335.48 696.311Z" fill="url(#paint0_linear_4109_967)" fill-opacity="0.53"/>
<path fill-rule="evenodd" clip-rule="evenodd" d="M152.29 547.612C164.783 545.715 174.356 534.928 174.356 521.906C174.356 507.545 162.715 495.904 148.354 495.904C133.994 495.904 122.352 507.545 122.352 521.906C122.352 534.928 131.926 545.715 144.418 547.612V719.709H18.8916V834.378H26.7631V727.581H152.29V547.612ZM166.485 521.906C166.485 531.919 158.368 540.036 148.354 540.036C138.341 540.036 130.224 531.919 130.224 521.906C130.224 511.893 138.341 503.775 148.354 503.775C158.368 503.775 166.485 511.893 166.485 521.906Z" fill="url(#paint1_linear_4109_967)" fill-opacity="0.53"/>
<path fill-rule="evenodd" clip-rule="evenodd" d="M1792.36 286.766C1779.87 288.663 1770.3 299.449 1770.3 312.472C1770.3 326.832 1781.94 338.474 1796.3 338.474C1810.66 338.474 1822.3 326.832 1822.3 312.472C1822.3 299.449 1812.73 288.663 1800.23 286.766L1800.23 114.668L1925.76 114.668L1925.76 0L1917.89 6.88147e-07L1917.89 106.797L1792.36 106.797L1792.36 286.766ZM1778.17 312.472C1778.17 302.459 1786.29 294.341 1796.3 294.341C1806.31 294.341 1814.43 302.459 1814.43 312.472C1814.43 322.485 1806.31 330.602 1796.3 330.602C1786.29 330.602 1778.17 322.485 1778.17 312.472Z" fill="url(#paint2_linear_4109_967)" fill-opacity="0.53"/>
<path fill-rule="evenodd" clip-rule="evenodd" d="M0 7.87158V317.221H326.667V180.257H506.322C507.865 193.145 518.835 203.137 532.139 203.137C546.499 203.137 558.141 191.495 558.141 177.135C558.141 162.774 546.499 151.133 532.139 151.133C519.4 151.133 508.801 160.293 506.569 172.386H318.795V309.349H7.87149V7.87158H0ZM550.269 177.135C550.269 187.148 542.152 195.265 532.139 195.265C522.125 195.265 514.008 187.148 514.008 177.135C514.008 167.121 522.125 159.004 532.139 159.004C542.152 159.004 550.269 167.121 550.269 177.135Z" fill="url(#paint3_linear_4109_967)" fill-opacity="0.53"/>
<path fill-rule="evenodd" clip-rule="evenodd" d="M1752.03 501.885C1750.15 490.455 1740.22 481.735 1728.26 481.735C1714.96 481.735 1704.18 492.518 1704.18 505.82C1704.18 519.122 1714.96 529.906 1728.26 529.906C1740.22 529.906 1750.15 521.186 1752.03 509.756L1915.13 509.756V501.885L1752.03 501.885ZM1728.26 489.606C1737.22 489.606 1744.48 496.866 1744.48 505.82C1744.48 514.775 1737.22 522.034 1728.26 522.034C1719.31 522.034 1712.05 514.775 1712.05 505.82C1712.05 496.866 1719.31 489.606 1728.26 489.606Z" fill="url(#paint4_linear_4109_967)" fill-opacity="0.53"/>
<path fill-rule="evenodd" clip-rule="evenodd" d="M1736.48 629.719C1750.84 629.719 1762.48 641.36 1762.48 655.721C1762.48 669.024 1752.49 679.995 1739.6 681.537L1739.6 861.193H1876.56V980H1868.69V869.064H1731.73L1731.73 681.29C1719.63 679.058 1710.47 668.459 1710.47 655.721C1710.47 641.36 1722.12 629.719 1736.48 629.719ZM1736.48 637.59C1746.49 637.59 1754.61 645.708 1754.61 655.721C1754.61 665.734 1746.49 673.851 1736.48 673.851C1726.46 673.851 1718.35 665.734 1718.35 655.721C1718.35 645.708 1726.46 637.59 1736.48 637.59Z" fill="url(#paint5_linear_4109_967)" fill-opacity="0.53"/>
<defs>
<linearGradient id="paint0_linear_4109_967" x1="319.266" y1="672.225" x2="366.024" y2="883.181" gradientUnits="userSpaceOnUse">
<stop stop-color="white"/>
<stop offset="1" stop-color="white" stop-opacity="0"/>
</linearGradient>
<linearGradient id="paint1_linear_4109_967" x1="173.96" y1="495.904" x2="96.624" y2="834.378" gradientUnits="userSpaceOnUse">
<stop stop-color="white"/>
<stop offset="1" stop-color="white" stop-opacity="0"/>
</linearGradient>
<linearGradient id="paint2_linear_4109_967" x1="1795.49" y1="338.474" x2="1956.06" y2="-9.30402e-06" gradientUnits="userSpaceOnUse">
<stop stop-color="white"/>
<stop offset="1" stop-color="white" stop-opacity="0"/>
</linearGradient>
<linearGradient id="paint3_linear_4109_967" x1="539.984" y1="154.281" x2="-104.691" y2="139.325" gradientUnits="userSpaceOnUse">
<stop stop-color="white"/>
<stop offset="1" stop-color="white" stop-opacity="0"/>
</linearGradient>
<linearGradient id="paint4_linear_4109_967" x1="1704.18" y1="505.349" x2="1915.13" y2="505.349" gradientUnits="userSpaceOnUse">
<stop stop-color="white"/>
<stop offset="1" stop-color="white" stop-opacity="0"/>
</linearGradient>
<linearGradient id="paint5_linear_4109_967" x1="1793.52" y1="629.719" x2="1877.35" y2="980.787" gradientUnits="userSpaceOnUse">
<stop stop-color="white"/>
<stop offset="1" stop-color="white" stop-opacity="0"/>
</linearGradient>
</defs>
</svg>
