<svg width="345" height="845" viewBox="0 0 345 845" fill="none" xmlns="http://www.w3.org/2000/svg">
<g clip-path="url(#clip0_4208_42123)">
<path d="M119.682 449.137C115.992 449.137 96.8958 447.803 83.1909 421.217C82.673 420.217 83.0707 418.976 84.0694 418.458C85.0681 417.939 86.2981 418.338 86.8159 419.338C98.7083 442.395 114.818 444.794 119.007 445.025C130.52 425.505 131.288 407.577 131.204 401.891H124.925C124.518 404.169 123.473 407.855 120.801 409.929C119.118 411.244 117.019 411.717 114.725 411.281C112.321 410.828 110.462 409.596 109.343 407.707C107.706 404.947 108.011 401.493 108.409 399.484L104.34 397.076C103.24 399.262 101.224 402.401 98.3107 403.669C96.5629 404.429 94.6949 404.419 92.8916 403.651C91.1346 402.892 89.9139 401.567 89.3405 399.808C88.2493 396.419 89.8861 392.15 91.0328 389.788C88.1846 387.557 82.9874 381.945 84.652 371.388C85.8912 363.536 84.3931 356.961 80.8512 354.637C79.4271 353.711 78.3729 354.841 78.0862 355.211C77.9475 355.387 76.7731 356.989 78.1972 358.313C78.789 358.859 79.5103 359.397 80.3611 359.906C80.9622 360.267 81.3321 360.906 81.3506 361.6C81.4061 363.545 81.7113 380.741 75.8021 386.557C74.9975 387.344 73.7121 387.334 72.9168 386.538C72.1308 385.732 72.14 384.436 72.9353 383.649C76.6066 380.037 77.3094 368.24 77.2817 362.795C76.5881 362.323 75.9593 361.832 75.4137 361.323C72.6486 358.748 73.037 355.035 74.8588 352.701C76.9395 350.025 80.3149 349.423 83.0707 351.22C88.1106 354.516 90.2098 362.304 88.6747 372.037C86.9362 383.066 94.3157 387.159 94.6394 387.325C95.1295 387.584 95.4994 388.048 95.6474 388.585C95.7954 389.122 95.7214 389.705 95.4347 390.187C94.1955 392.261 92.5032 396.363 93.2153 398.567C93.4187 399.206 93.8164 399.613 94.4914 399.91C95.259 400.243 95.9526 400.252 96.6646 399.938C99.0505 398.91 100.937 394.919 101.464 393.465C101.668 392.891 102.121 392.437 102.694 392.233C103.267 392.029 103.896 392.085 104.423 392.4L111.784 396.752C112.607 397.243 112.987 398.224 112.691 399.141C112.33 400.271 111.664 403.651 112.848 405.642C113.366 406.503 114.226 407.04 115.465 407.281C116.612 407.494 117.509 407.318 118.286 406.716C120.311 405.142 120.995 401.04 121.078 399.734C121.143 398.65 122.04 397.817 123.113 397.817H133.146C134.201 397.817 135.079 398.623 135.181 399.678C135.264 400.623 137.114 423.088 121.883 448.165C121.541 448.739 120.93 449.1 120.264 449.146C120.191 449.146 119.987 449.165 119.663 449.165L119.682 449.137Z" fill="#383D48"/>
<path d="M85.0037 422.329C84.6245 422.329 84.2546 422.227 83.9217 422.023C67.0448 411.457 68.1915 386.409 68.247 385.353C68.3025 384.279 69.181 383.436 70.2445 383.417H70.5404C74.4799 383.417 77.8183 384.89 80.4631 387.798C89.1188 397.336 87.1214 419.541 87.0381 420.486C86.9734 421.19 86.5388 421.81 85.9099 422.125C85.6232 422.264 85.3181 422.338 85.0037 422.338V422.329ZM72.316 387.64C72.4269 393.104 73.6291 408.013 83.1726 416.374C83.3576 409.892 82.9877 396.632 77.4484 390.539C75.9965 388.946 74.3134 387.992 72.316 387.64Z" fill="#383D48"/>
<path d="M168.269 418.976C167.483 418.976 166.743 418.513 166.41 417.773C164.81 414.198 161.953 413.902 157.782 413.846C156.478 413.828 155.239 413.809 154.129 413.578C146.722 412.004 145.686 403.632 146.176 399.438C146.306 398.317 147.332 397.521 148.433 397.641C149.552 397.771 150.356 398.78 150.236 399.901C150.199 400.243 149.358 408.383 154.989 409.577C155.701 409.726 156.737 409.744 157.847 409.753C160.27 409.781 163.497 409.827 166.244 411.494V372.379C166.244 371.25 167.15 370.342 168.278 370.342C169.406 370.342 170.322 371.259 170.322 372.379V416.921C170.322 417.884 169.647 418.717 168.713 418.921C168.574 418.958 168.426 418.967 168.287 418.967L168.269 418.976Z" fill="#383D48"/>
<path d="M168.269 380.121H162.258C161.129 380.121 160.214 379.204 160.214 378.084C160.214 376.963 161.12 376.037 162.258 376.037H168.269C169.397 376.037 170.312 376.954 170.312 378.084C170.312 379.213 169.397 380.121 168.269 380.121Z" fill="#383D48"/>
<path d="M168.269 418.976C168.13 418.976 167.982 418.967 167.843 418.93C166.9 418.726 166.234 417.893 166.234 416.93V372.389C166.234 371.259 167.141 370.351 168.269 370.351C169.397 370.351 170.313 371.268 170.313 372.389V411.504C173.05 409.827 176.277 409.79 178.709 409.763C179.81 409.744 180.846 409.735 181.567 409.587C187.236 408.374 186.329 399.993 186.32 399.91C186.191 398.789 186.986 397.771 188.114 397.641C189.215 397.493 190.25 398.317 190.371 399.438C190.861 403.632 189.825 412.004 182.418 413.578C181.308 413.819 180.078 413.828 178.774 413.846C174.603 413.902 171.755 414.207 170.146 417.773C169.804 418.513 169.064 418.976 168.278 418.976H168.269Z" fill="#383D48"/>
<path d="M174.055 380.084H168.034C166.906 380.084 166 379.167 166 378.047C166 376.926 166.906 376 168.034 376H174.055C175.183 376 176.098 376.917 176.098 378.047C176.098 379.176 175.183 380.084 174.055 380.084Z" fill="#383D48"/>
<path d="M179.312 534.525H165.264C164.136 534.525 163.221 533.618 163.221 532.488V504.355C163.221 503.226 164.136 502.309 165.264 502.309H179.312C180.44 502.309 181.355 503.226 181.355 504.355V532.488C181.355 533.618 180.44 534.525 179.312 534.525ZM167.308 530.441H177.277V506.393H167.308V530.441Z" fill="#383D48"/>
<path d="M182.659 543.229H161.916C160.788 543.229 159.882 542.313 159.882 541.183V532.478C159.882 531.349 160.797 530.432 161.916 530.432H182.659C183.778 530.432 184.693 531.349 184.693 532.478V541.183C184.693 542.313 183.778 543.229 182.659 543.229ZM163.96 539.146H180.615V534.525H163.96V539.146Z" fill="#383D48"/>
<path d="M172.283 561.991C171.155 561.991 170.239 561.074 170.239 559.944V542.526C170.239 541.396 171.155 540.479 172.283 540.479C173.411 540.479 174.317 541.396 174.317 542.526V559.944C174.317 561.074 173.411 561.991 172.283 561.991Z" fill="#383D48"/>
<path d="M174.586 598.828H170.276C170.073 598.828 169.87 598.791 169.666 598.735C123.252 584.28 132.722 539.183 132.824 538.729C133.046 537.748 133.97 537.081 134.951 537.136C153.64 538.359 163.267 515.523 163.368 515.292C163.794 514.245 164.996 513.745 166.032 514.18C167.077 514.606 167.567 515.801 167.141 516.847C166.725 517.875 156.886 541.248 136.513 541.276C135.274 549.23 132.491 582.696 170.591 594.744H174.281C212.455 582.669 209.606 549.221 208.358 541.276C187.976 541.248 178.146 517.866 177.721 516.847C177.295 515.801 177.785 514.606 178.83 514.18C179.875 513.745 181.068 514.245 181.494 515.292C181.586 515.523 191.231 538.414 209.912 537.136C210.901 537.072 211.817 537.748 212.039 538.729C212.14 539.183 221.619 584.271 175.205 598.735C175.011 598.8 174.808 598.828 174.595 598.828H174.586Z" fill="#383D48"/>
<path d="M210.873 553.277H133.998C132.87 553.277 131.954 552.36 131.954 551.23C131.954 550.101 132.87 549.184 133.998 549.184H210.873C212.001 549.184 212.908 550.101 212.908 551.23C212.908 552.36 212.001 553.277 210.873 553.277Z" fill="#383D48"/>
<path d="M141.156 540.785C140.027 540.785 139.121 539.868 139.121 538.738V526.45C139.121 525.32 140.027 524.404 141.156 524.404H158.569C159.688 524.404 160.603 525.32 160.603 526.45C160.603 527.58 159.688 528.497 158.569 528.497H143.199V538.738C143.199 539.868 142.284 540.785 141.156 540.785Z" fill="#383D48"/>
<path d="M203.706 540.785C202.578 540.785 201.672 539.868 201.672 538.738V528.497H185.822C184.703 528.497 183.787 527.58 183.787 526.45C183.787 525.32 184.703 524.404 185.822 524.404H203.706C204.835 524.404 205.75 525.32 205.75 526.45V538.738C205.75 539.868 204.835 540.785 203.706 540.785Z" fill="#383D48"/>
<path d="M179.312 225.393H165.264C164.136 225.393 163.221 224.476 163.221 223.346V195.214C163.221 194.084 164.136 193.167 165.264 193.167H179.312C180.44 193.167 181.355 194.084 181.355 195.214V223.346C181.355 224.476 180.44 225.393 179.312 225.393ZM167.308 221.309H177.277V197.26H167.308V221.309Z" fill="#383D48"/>
<path d="M182.659 234.097H161.916C160.788 234.097 159.882 233.18 159.882 232.051V223.346C159.882 222.216 160.797 221.3 161.916 221.3H182.659C183.778 221.3 184.693 222.216 184.693 223.346V232.051C184.693 233.18 183.778 234.097 182.659 234.097ZM163.96 230.004H180.615V225.383H163.96V230.004Z" fill="#383D48"/>
<path d="M172.283 252.849C171.155 252.849 170.239 251.932 170.239 250.803V233.384C170.239 232.254 171.155 231.338 172.283 231.338C173.411 231.338 174.317 232.254 174.317 233.384V250.803C174.317 251.932 173.411 252.849 172.283 252.849Z" fill="#383D48"/>
<path d="M174.586 289.695H170.276C170.073 289.695 169.87 289.658 169.666 289.603C123.252 275.138 132.722 230.051 132.824 229.597C133.046 228.615 133.97 227.939 134.951 228.004C153.64 229.263 163.267 206.391 163.368 206.159C163.794 205.113 164.996 204.622 166.032 205.048C167.077 205.474 167.567 206.669 167.141 207.715C166.725 208.734 156.886 232.116 136.513 232.143C135.274 240.098 132.491 273.564 170.591 285.612H174.281C212.455 273.536 209.606 240.089 208.358 232.143C187.976 232.116 178.146 208.734 177.721 207.715C177.295 206.669 177.785 205.474 178.83 205.048C179.875 204.613 181.068 205.113 181.494 206.159C181.586 206.391 191.231 229.236 209.912 228.004C210.901 227.939 211.817 228.615 212.039 229.597C212.14 230.051 221.619 275.138 175.205 289.603C175.011 289.658 174.808 289.695 174.595 289.695H174.586Z" fill="#383D48"/>
<path d="M210.873 244.144H133.998C132.87 244.144 131.954 243.228 131.954 242.098C131.954 240.968 132.87 240.052 133.998 240.052H210.873C212.001 240.052 212.908 240.968 212.908 242.098C212.908 243.228 212.001 244.144 210.873 244.144Z" fill="#383D48"/>
<path d="M141.156 231.652C140.027 231.652 139.121 230.736 139.121 229.606V217.318C139.121 216.188 140.027 215.271 141.156 215.271H158.569C159.688 215.271 160.603 216.188 160.603 217.318C160.603 218.447 159.688 219.364 158.569 219.364H143.199V229.606C143.199 230.736 142.284 231.652 141.156 231.652Z" fill="#383D48"/>
<path d="M203.706 231.652C202.578 231.652 201.672 230.736 201.672 229.606V219.364H185.822C184.703 219.364 183.787 218.447 183.787 217.318C183.787 216.188 184.703 215.271 185.822 215.271H203.706C204.835 215.271 205.75 216.188 205.75 217.318V229.606C205.75 230.736 204.835 231.652 203.706 231.652Z" fill="#383D48"/>
<path d="M116.095 675.53C114.93 675.511 114.033 674.576 114.051 673.455L118.074 449.128C118.092 447.998 119.082 447.192 120.154 447.118C121.283 447.137 122.18 448.072 122.161 449.202L118.138 673.529C118.12 674.641 117.214 675.539 116.104 675.539L116.095 675.53Z" fill="#383D48"/>
<path d="M120.875 408.948C119.71 408.929 118.813 407.994 118.831 406.864L123.085 170.054C123.104 168.924 124.028 168.044 125.166 168.044C126.294 168.063 127.191 168.998 127.173 170.128L122.919 406.938C122.9 408.059 121.994 408.948 120.884 408.948H120.875Z" fill="#383D48"/>
<path d="M223.709 449.146C223.403 449.146 223.2 449.137 223.126 449.128C222.46 449.081 221.859 448.72 221.517 448.146C206.305 423.097 207.609 400.651 207.664 399.706C207.738 398.632 208.626 397.799 209.698 397.799H219.732C220.805 397.799 221.702 398.641 221.767 399.715C221.859 401.132 222.543 405.142 224.569 406.707C225.336 407.3 226.233 407.475 227.38 407.262C228.628 407.022 229.488 406.494 229.997 405.623C231.19 403.642 230.515 400.253 230.154 399.123C229.867 398.215 230.237 397.224 231.06 396.743L238.422 392.391C238.939 392.085 239.577 392.02 240.151 392.224C240.724 392.428 241.177 392.881 241.381 393.446C241.908 394.9 243.794 398.882 246.18 399.919C246.902 400.234 247.595 400.225 248.353 399.891C249.028 399.604 249.417 399.188 249.63 398.558C250.342 396.354 248.64 392.252 247.41 390.177C247.123 389.687 247.05 389.113 247.207 388.566C247.355 388.02 247.725 387.566 248.233 387.307C248.538 387.149 255.918 383.056 254.179 372.028C252.644 362.295 254.744 354.517 259.783 351.211C262.53 349.405 265.905 350.016 267.995 352.692C269.817 355.026 270.215 358.739 267.44 361.314C266.895 361.823 266.275 362.314 265.582 362.786C265.554 368.24 266.257 380.028 269.919 383.64C270.714 384.436 270.733 385.723 269.937 386.529C269.151 387.335 267.857 387.344 267.052 386.547C261.161 380.732 261.467 363.536 261.513 361.591C261.531 360.897 261.91 360.249 262.502 359.887C263.353 359.378 264.074 358.85 264.657 358.304C266.09 356.97 264.916 355.368 264.777 355.193C264.49 354.822 263.436 353.692 262.012 354.618C258.461 356.943 256.972 363.517 258.211 371.37C259.867 381.927 254.688 387.538 251.831 389.77C252.977 392.131 254.614 396.4 253.523 399.79C252.959 401.549 251.729 402.873 249.981 403.633C248.178 404.401 246.31 404.42 244.562 403.651C241.64 402.382 239.633 399.252 238.523 397.058L234.454 399.465C234.852 401.475 235.157 404.92 233.52 407.688C232.401 409.568 230.543 410.809 228.147 411.263C225.863 411.698 223.755 411.226 222.063 409.911C219.399 407.827 218.345 404.142 217.947 401.873H211.714C211.77 407.624 212.935 425.588 224.421 445.025C228.564 444.831 244.118 442.507 256.066 419.328C256.584 418.319 257.823 417.93 258.822 418.449C259.82 418.967 260.218 420.199 259.7 421.208C245.977 447.804 227.315 449.137 223.727 449.137L223.709 449.146Z" fill="#383D48"/>
<path d="M257.869 422.329C257.564 422.329 257.25 422.264 256.963 422.116C256.334 421.801 255.909 421.18 255.835 420.477C255.742 419.532 253.745 397.326 262.41 387.788C265.055 384.881 268.384 383.408 272.332 383.408H272.619C273.692 383.427 274.57 384.279 274.626 385.344C274.681 386.408 275.837 411.448 258.951 422.014C258.618 422.218 258.239 422.319 257.869 422.319V422.329ZM270.557 387.659C268.504 388.02 266.849 388.964 265.424 390.539C259.876 396.641 259.515 409.902 259.7 416.384C269.244 408.022 270.446 393.141 270.557 387.659Z" fill="#383D48"/>
<path d="M226.769 675.53C225.66 675.53 224.744 674.631 224.735 673.511L221.6 449.192C221.581 448.063 222.488 447.137 223.616 447.118C224.827 447.072 225.669 448.007 225.687 449.137L228.822 673.455C228.841 674.585 227.934 675.52 226.806 675.53H226.779H226.769Z" fill="#383D48"/>
<path d="M223.08 410.318C221.961 410.318 221.054 409.42 221.036 408.309L217.716 170.128C217.698 168.998 218.595 168.072 219.723 168.054C220.87 168.054 221.776 168.952 221.794 170.063L225.114 408.244C225.133 409.374 224.226 410.3 223.098 410.318H223.07H223.08Z" fill="#383D48"/>
<path d="M218.946 184.694H125.13C124.001 184.694 123.086 183.777 123.086 182.648C123.086 181.518 124.001 180.601 125.13 180.601H218.946C220.075 180.601 220.99 181.518 220.99 182.648C220.99 183.777 220.075 184.694 218.946 184.694Z" fill="#383D48"/>
<path d="M223.69 170.128H120.876C119.748 170.128 118.832 169.211 118.832 168.081V159.544C118.832 158.414 119.748 157.497 120.876 157.497H223.69C224.819 157.497 225.734 158.414 225.734 159.544V168.081C225.734 169.211 224.819 170.128 223.69 170.128ZM122.919 166.044H221.656V161.59H122.919V166.044Z" fill="#383D48"/>
<path d="M222.766 161.59H121.856C114.439 161.59 107.309 158.441 102.316 152.95L96.536 146.607C95.9904 146.005 95.8516 145.144 96.1753 144.403C96.5082 143.662 97.2388 143.181 98.0433 143.181H246.837C247.66 143.181 248.4 143.671 248.724 144.422C249.038 145.172 248.89 146.042 248.326 146.635L241.954 153.348C236.979 158.58 229.997 161.59 222.784 161.59H222.766ZM102.658 147.274L105.321 150.2C109.547 154.839 115.577 157.506 121.847 157.506H222.756C228.86 157.506 234.769 154.969 238.967 150.533L242.065 147.274H102.667H102.658Z" fill="#383D48"/>
<path d="M243.277 147.274H100.79C99.6616 147.274 98.7461 146.357 98.7461 145.227V126.892C98.7461 125.762 99.6616 124.846 100.79 124.846H243.267C244.396 124.846 245.311 125.762 245.311 126.892V145.227C245.311 146.357 244.396 147.274 243.267 147.274H243.277ZM102.834 143.19H241.233V128.939H102.834V143.19Z" fill="#383D48"/>
<path d="M211.168 128.929H132.906C131.778 128.929 130.862 128.013 130.862 126.883V103.519C130.862 102.39 131.778 101.473 132.906 101.473H211.168C212.297 101.473 213.203 102.39 213.203 103.519V126.883C213.203 128.013 212.297 128.929 211.168 128.929ZM134.94 124.846H209.125V105.575H134.94V124.846Z" fill="#383D48"/>
<path d="M213.934 105.566H130.65C129.521 105.566 128.615 104.649 128.615 103.519V94.4816C128.615 93.3518 129.531 92.4351 130.65 92.4351H213.934C215.052 92.4351 215.968 93.3518 215.968 94.4816V103.519C215.968 104.649 215.052 105.566 213.934 105.566ZM132.693 101.482H211.89V96.5281H132.693V101.482Z" fill="#383D48"/>
<path d="M206.647 18.9093H137.919C136.791 18.9093 135.875 17.9925 135.875 16.8628V9.82506C135.875 8.69532 136.791 7.77856 137.919 7.77856H206.647C207.784 7.77856 208.691 8.69532 208.691 9.82506V16.8628C208.691 17.9925 207.784 18.9093 206.647 18.9093ZM139.953 14.8256H204.603V11.8808H139.953V14.8256Z" fill="#383D48"/>
<path d="M193.857 11.8808H150.708C149.58 11.8808 148.664 10.964 148.664 9.8343V2.0465C148.664 0.916757 149.58 0 150.708 0H193.857C194.985 0 195.901 0.916757 195.901 2.0465V9.8343C195.901 10.964 194.985 11.8808 193.857 11.8808ZM152.751 7.79707H191.823V4.093H152.751V7.79707Z" fill="#383D48"/>
<path d="M191.601 26.947H152.474C151.346 26.947 150.431 26.0302 150.431 24.9005V16.8627C150.431 15.7329 151.346 14.8162 152.474 14.8162H191.601C192.729 14.8162 193.635 15.7329 193.635 16.8627V24.9005C193.635 26.0302 192.729 26.947 191.601 26.947ZM154.509 22.8633H189.557V18.9092H154.509V22.8633Z" fill="#383D48"/>
<path d="M197.122 33.9847H146.954C145.826 33.9847 144.91 33.068 144.91 31.9383V24.9005C144.91 23.7708 145.826 22.8633 146.954 22.8633H197.122C198.25 22.8633 199.166 23.78 199.166 24.9005V31.9383C199.166 33.068 198.25 33.9847 197.122 33.9847ZM148.998 29.901H195.088V26.9563H148.998V29.901Z" fill="#383D48"/>
<path d="M177.341 49.0511H166.724C157.736 49.0511 150.421 41.7356 150.421 32.7254V31.9291C150.421 30.7993 151.336 29.8826 152.465 29.8826H191.591C192.719 29.8826 193.626 30.7993 193.626 31.9291V32.7254C193.626 41.7263 186.32 49.0511 177.322 49.0511H177.341ZM154.573 33.9848C155.202 40.1428 160.408 44.9674 166.724 44.9674H177.341C183.657 44.9674 188.872 40.1428 189.501 33.9848H154.573Z" fill="#383D48"/>
<path d="M162.628 96.528C162.508 96.528 162.379 96.5188 162.258 96.491C161.297 96.3058 160.594 95.4631 160.594 94.4815V31.9383C160.594 30.8086 161.5 29.8918 162.628 29.8918C163.756 29.8918 164.672 30.8086 164.672 31.9383V83.6194L179.542 45.4397C179.949 44.384 181.142 43.8654 182.187 44.2822C183.241 44.6896 183.759 45.8749 183.352 46.9306L164.542 95.2316C164.228 96.028 163.46 96.5373 162.637 96.5373L162.628 96.528Z" fill="#383D48"/>
<path d="M181.447 96.528C180.614 96.528 179.856 96.0187 179.542 95.2224L160.723 46.9213C160.316 45.8656 160.834 44.6803 161.888 44.2729C162.933 43.8562 164.126 44.384 164.533 45.4304L179.403 83.6101V31.9383C179.403 30.8086 180.318 29.8918 181.447 29.8918C182.575 29.8918 183.481 30.8086 183.481 31.9383V94.4815C183.481 95.4631 182.778 96.3058 181.826 96.491C181.696 96.5188 181.567 96.528 181.447 96.528Z" fill="#383D48"/>
<path d="M243.277 114.863H100.79C99.6616 114.863 98.7461 113.946 98.7461 112.817V103.519C98.7461 102.39 99.6616 101.473 100.79 101.473H243.267C244.396 101.473 245.311 102.39 245.311 103.519V112.817C245.311 113.946 244.396 114.863 243.267 114.863H243.277ZM102.834 110.779H241.233V105.575H102.834V110.779Z" fill="#383D48"/>
<path d="M100.79 128.929C99.6616 128.929 98.7461 128.013 98.7461 126.883V103.519C98.7461 102.39 99.6616 101.473 100.79 101.473C101.918 101.473 102.834 102.39 102.834 103.519V126.883C102.834 128.013 101.918 128.929 100.79 128.929Z" fill="#383D48"/>
<path d="M243.277 128.929C242.158 128.929 241.242 128.013 241.242 126.883V105.779C241.242 104.649 242.158 103.732 243.277 103.732C244.396 103.732 245.32 104.649 245.32 105.779V126.883C245.32 128.013 244.405 128.929 243.277 128.929Z" fill="#383D48"/>
<path d="M177.035 809.969C172.643 809.969 172.347 809.08 172.023 808.107C171.737 807.237 171.681 805.061 171.885 801.616C163.516 787.781 165.152 774.419 165.994 770.131C159.881 765.288 160.464 759.214 160.852 755.121C160.991 753.769 161.148 752.083 160.843 751.574C158.744 748.083 157.273 730.007 156.876 724.544C156.793 723.423 157.643 722.432 158.762 722.358C159.9 722.293 160.871 723.127 160.945 724.247C161.749 735.202 163.238 747.639 164.348 749.472C165.347 751.148 165.143 753.269 164.921 755.519C164.542 759.482 164.107 763.983 169.425 767.594C170.146 768.076 170.479 768.983 170.248 769.826C170.211 769.974 166.29 784.948 175.704 800.014C175.935 800.375 176.037 800.801 176.009 801.227C175.917 802.811 175.852 804.672 175.87 805.857C177.193 805.904 179.523 805.811 181.872 805.635C179.754 795.597 175.01 772.409 175.648 768.918C175.759 768.307 175.954 767.529 176.185 766.622C177.581 761.14 178.608 755.565 174.539 752.917C173.595 752.306 173.327 751.028 173.938 750.083C174.557 749.139 175.815 748.87 176.767 749.481C183.638 753.945 181.363 762.853 180.143 767.631C179.939 768.418 179.764 769.104 179.671 769.65C179.338 771.928 182.806 790.458 186.348 807.043C186.468 807.607 186.348 808.2 186.006 808.682C185.663 809.145 185.136 809.45 184.554 809.506C181.225 809.839 178.811 809.978 177.054 809.978L177.035 809.969Z" fill="#383D48"/>
<path d="M184.323 809.497C183.204 809.497 182.289 808.589 182.289 807.45C182.289 783.976 194.828 758.788 197.455 753.75C196.881 752.695 195.799 751.648 194.81 750.861C192.406 755.862 186.265 769.289 181.688 785.022C181.373 786.105 180.236 786.735 179.154 786.411C178.081 786.096 177.452 784.957 177.767 783.874C183.667 763.585 192.119 747.055 192.211 746.898C192.461 746.398 192.914 746.027 193.441 745.87C193.968 745.713 194.551 745.777 195.032 746.055C195.577 746.37 200.451 749.259 201.662 753.269C201.82 753.787 201.764 754.352 201.496 754.834C201.348 755.112 186.358 782.818 186.358 807.441C186.358 808.58 185.442 809.487 184.314 809.487L184.323 809.497Z" fill="#383D48"/>
<path d="M211.742 809.95C209.439 809.95 199.175 809.395 193.404 799.912L184.841 798.292C183.731 798.088 183 797.014 183.204 795.903C183.417 794.791 184.48 794.06 185.59 794.273L195.078 796.069C195.679 796.18 196.188 796.56 196.493 797.097C200.035 803.57 206.258 805.274 209.643 805.709C208.283 798.356 203.53 776.586 193.228 765.863C192.442 765.048 192.47 763.751 193.284 762.973C194.088 762.195 195.392 762.223 196.169 763.038C209.523 776.947 213.924 806.367 214.1 807.617C214.183 808.191 214.017 808.765 213.656 809.209C213.296 809.654 212.759 809.922 212.177 809.95C212.13 809.95 211.973 809.959 211.733 809.959L211.742 809.95Z" fill="#383D48"/>
<path d="M198.657 791.411C197.788 791.411 196.993 790.865 196.715 789.994C194.718 783.827 189.78 773.308 189.733 773.206C189.252 772.187 189.696 770.965 190.714 770.483C191.74 769.992 192.951 770.437 193.432 771.465C193.645 771.9 198.528 782.327 200.608 788.735C200.951 789.809 200.368 790.967 199.295 791.309C199.092 791.374 198.879 791.402 198.666 791.402L198.657 791.411Z" fill="#383D48"/>
<path d="M234.63 804.968C230.099 804.968 223.912 802.94 219.714 801.329C219.529 801.255 219.344 801.153 219.187 801.033L206.444 790.985C205.556 790.282 205.408 789.004 206.102 788.115C206.804 787.226 208.081 787.078 208.968 787.772L221.462 797.625C227.639 799.958 234.214 801.375 236.119 800.838C234.963 799.449 229.933 796.977 224.846 795.338C224.264 795.152 223.792 794.717 223.57 794.152C219.141 783.049 210.892 776.29 210.799 776.234C210.55 776.03 210.346 775.762 210.217 775.465C205.528 764.835 197.621 759.667 197.547 759.621C196.604 759.01 196.327 757.751 196.928 756.797C197.538 755.843 198.787 755.565 199.739 756.167C200.1 756.399 208.534 761.862 213.749 773.373C215.506 774.891 222.636 781.466 226.992 791.745C230.589 792.958 238.662 796.032 240.114 799.653C240.53 800.69 240.475 801.792 239.957 802.746C239.069 804.357 237.09 804.978 234.621 804.978L234.63 804.968Z" fill="#383D48"/>
<path d="M189.714 741.842C189.39 741.842 189.048 741.758 188.752 741.592C181.077 737.434 172.55 741.277 172.467 741.314C171.441 741.786 170.229 741.332 169.758 740.314C169.286 739.295 169.73 738.073 170.756 737.601C171.173 737.406 181.243 732.878 190.685 737.99C191.674 738.536 192.044 739.767 191.508 740.768C191.138 741.453 190.435 741.832 189.714 741.832V741.842Z" fill="#383D48"/>
<path d="M140.045 782.605C138.732 782.605 137.918 782.457 137.78 782.429C137.225 782.318 136.735 781.975 136.439 781.494C136.143 781.003 136.05 780.42 136.208 779.873C137.761 774.252 134.044 747.703 132.481 737.943C132.462 737.841 132.453 737.721 132.453 737.619C132.453 736.443 132.453 732.915 148.516 729.979C149.663 724.896 152.372 713.635 154.351 711.329C156.21 709.153 161.509 707.875 164.718 707.273C164.367 702.56 164.311 691.587 171.312 690.54C177.387 689.624 183.13 688.762 186.024 693.096C187.939 695.976 188.503 705.31 188.669 709.801L204.64 714.83L217.734 709.422C218.141 709.255 218.585 709.227 219.011 709.329L227.038 711.366C229.229 711.922 230.755 713.83 230.829 716.126C230.912 718.358 229.599 720.247 227.509 720.932C224.402 721.858 220.805 720.469 218.853 719.515C216.995 721.238 213.166 724.618 210.003 726.21C206.508 727.961 197.649 727.961 193.515 727.84C193.302 731.424 192.766 738.082 191.591 740.647C191.129 741.638 192.71 745.407 194.837 748.389C195.494 749.305 195.281 750.583 194.366 751.241C193.441 751.898 192.174 751.685 191.508 750.768C190.223 748.953 186.135 742.74 187.874 738.943C188.762 737.017 189.363 729.757 189.539 725.636C189.557 725.09 189.797 724.581 190.204 724.21C190.602 723.849 191.148 723.655 191.684 723.682C196.696 723.932 205.602 723.849 208.172 722.562C211.853 720.719 217.032 715.617 217.078 715.571C217.744 714.904 218.779 714.793 219.584 715.283C221.184 716.265 224.393 717.617 226.205 717.08C226.603 716.95 226.779 716.691 226.76 716.293C226.76 716.163 226.695 715.524 226.048 715.358L218.668 713.487L205.518 718.923C205.074 719.108 204.584 719.126 204.131 718.988L186.071 713.293C185.238 713.033 184.665 712.265 184.637 711.394C184.489 704.912 183.676 696.948 182.64 695.402C181.391 693.531 178.46 693.633 171.922 694.615C168.399 695.143 168.417 704.532 168.963 708.746C169.111 709.848 168.343 710.866 167.233 711.033C163.238 711.626 158.346 712.978 157.449 714.024C156.395 715.339 153.908 724.497 152.206 732.22C152.03 733.026 151.374 733.656 150.56 733.804C144.262 734.878 138.011 736.739 136.605 737.925C137.428 743.138 141.322 768.594 140.517 778.53C144.438 778.419 153.556 776.577 162.156 763.344C162.767 762.399 164.034 762.131 164.977 762.742C165.92 763.362 166.188 764.622 165.578 765.575C155.683 780.799 144.697 782.614 140.045 782.614V782.605Z" fill="#383D48"/>
<path d="M142.856 754.565C142.385 754.565 141.913 754.398 141.534 754.084C140.979 753.611 140.72 752.88 140.84 752.167C141.423 748.87 142.015 739.573 137.835 736.045C136.975 735.322 136.864 734.026 137.585 733.165C138.307 732.294 139.592 732.183 140.461 732.915C145.196 736.906 145.529 744.675 145.251 749.259C149.154 747.361 155.526 743.536 156.922 738.193C157.199 737.1 158.328 736.443 159.41 736.73C160.501 737.017 161.157 738.137 160.871 739.23C158.291 749.12 144.133 754.241 143.522 754.454C143.3 754.528 143.069 754.565 142.838 754.565H142.856Z" fill="#383D48"/>
<path d="M149.034 780.42C148.747 780.42 148.461 780.355 148.193 780.234C147.166 779.771 146.713 778.549 147.185 777.53C153.149 764.409 144.836 752.259 144.752 752.139C144.105 751.213 144.327 749.944 145.252 749.296C146.177 748.648 147.444 748.879 148.091 749.805C148.488 750.38 157.81 764.001 150.893 779.234C150.551 779.984 149.811 780.438 149.034 780.438V780.42Z" fill="#383D48"/>
<path d="M173.808 807.487H131.482C130.354 807.487 129.438 806.58 129.438 805.45V782.679C129.438 781.799 129.993 781.022 130.826 780.734L137.512 778.484C138.584 778.132 139.74 778.697 140.101 779.771C140.462 780.836 139.888 782.003 138.816 782.364L133.517 784.151V803.413H173.808C174.937 803.413 175.843 804.329 175.843 805.459C175.843 806.589 174.937 807.496 173.808 807.496V807.487Z" fill="#383D48"/>
<path d="M152.65 807.487C151.3 807.348 150.487 806.339 150.616 805.218C152.826 785.198 165.56 779.225 166.096 778.975C167.132 778.521 168.334 778.975 168.797 779.994C169.259 781.021 168.806 782.225 167.789 782.698C167.326 782.92 156.618 788.078 154.676 805.663C154.555 806.709 153.677 807.478 152.65 807.478V807.487Z" fill="#383D48"/>
<path d="M179.903 720.228C178.839 720.228 177.452 720.191 175.686 720.071C174.234 719.978 173.022 719.312 172.162 718.145C169.508 714.515 171.265 706.681 171.635 705.153C171.913 704.051 173.013 703.384 174.104 703.653C175.196 703.93 175.861 705.032 175.593 706.125C174.872 709.079 174.317 714.181 175.445 715.728C175.584 715.913 175.695 715.978 175.935 715.987C180.596 716.293 182.251 716.015 182.27 716.015C183.352 715.83 184.434 716.552 184.637 717.654C184.841 718.756 184.138 719.812 183.047 720.034C182.834 720.08 181.946 720.228 179.893 720.228H179.903Z" fill="#383D48"/>
<path d="M142.524 735.498C141.461 735.498 140.554 734.665 140.49 733.591C138.391 701.995 166.041 696.884 166.318 696.837C167.419 696.652 168.482 697.393 168.676 698.504C168.871 699.615 168.122 700.671 167.012 700.865C166.022 701.041 142.718 705.458 144.568 733.322C144.642 734.443 143.791 735.424 142.663 735.498C142.617 735.498 142.57 735.498 142.524 735.498Z" fill="#383D48"/>
<path d="M212.085 716.033C211.437 716.033 210.799 715.728 210.402 715.145C201.866 702.736 186.154 700.912 185.997 700.893C184.878 700.773 184.064 699.763 184.185 698.643C184.305 697.522 185.304 696.698 186.423 696.828C187.144 696.902 204.132 698.847 213.758 712.829C214.397 713.765 214.165 715.033 213.241 715.672C212.889 715.913 212.482 716.033 212.085 716.033Z" fill="#383D48"/>
<path d="M197.112 752.185C196.382 752.185 195.679 751.787 195.309 751.102C194.782 750.102 195.161 748.87 196.151 748.333C212.297 739.749 210.161 723.479 210.059 722.794C209.902 721.682 210.679 720.645 211.788 720.478C212.898 720.321 213.934 721.09 214.1 722.192C214.128 722.386 216.8 741.981 198.056 751.945C197.75 752.111 197.427 752.185 197.103 752.185H197.112Z" fill="#383D48"/>
<path d="M150.209 807.487H85.6609C84.5327 807.487 83.6172 806.58 83.6172 805.45V708.005C83.6172 706.875 84.5327 705.958 85.6609 705.958H150.635C151.763 705.958 152.678 706.875 152.678 708.005C152.678 709.135 151.763 710.042 150.635 710.042H87.6954V803.403H150.209C151.337 803.403 152.244 804.32 152.244 805.45C152.244 806.58 151.337 807.487 150.209 807.487Z" fill="#383D48"/>
<path d="M120.117 728.109H85.6511C84.5229 728.109 83.6074 727.192 83.6074 726.072C83.6074 724.951 84.5229 724.025 85.6511 724.025H120.117C121.245 724.025 122.161 724.933 122.161 726.072C122.161 727.211 121.245 728.109 120.117 728.109Z" fill="#383D48"/>
<path d="M109.076 749.88H85.6609C84.5327 749.88 83.6172 748.963 83.6172 747.833C83.6172 746.703 84.5327 745.796 85.6609 745.796H109.076C110.204 745.796 111.12 746.713 111.12 747.833C111.12 748.954 110.204 749.88 109.076 749.88Z" fill="#383D48"/>
<path d="M138.113 770.65H85.6609C84.5327 770.65 83.6172 769.733 83.6172 768.613C83.6172 767.492 84.5327 766.566 85.6609 766.566H138.113C139.241 766.566 140.157 767.483 140.157 768.613C140.157 769.743 139.241 770.65 138.113 770.65Z" fill="#383D48"/>
<path d="M111.878 807.487C110.75 807.487 109.834 806.579 109.834 805.45V739.804C109.834 738.675 110.75 737.767 111.878 737.767C113.006 737.767 113.921 738.675 113.921 739.804V805.45C113.921 806.579 113.006 807.487 111.878 807.487Z" fill="#383D48"/>
<path d="M130.141 791.411H111.886C110.758 791.411 109.843 790.495 109.843 789.374C109.843 788.254 110.758 787.337 111.886 787.337H130.141C131.269 787.337 132.185 788.244 132.185 789.374C132.185 790.504 131.269 791.411 130.141 791.411Z" fill="#383D48"/>
<path d="M258.591 807.487H213.435C212.306 807.487 211.391 806.58 211.391 805.45C211.391 804.32 212.306 803.403 213.435 803.403H256.547V710.042H206.684C205.556 710.042 204.649 709.125 204.649 708.005C204.649 706.885 205.556 705.958 206.684 705.958H258.591C259.719 705.958 260.625 706.875 260.625 708.005V805.45C260.625 806.58 259.71 807.487 258.591 807.487Z" fill="#383D48"/>
<path d="M258.59 728.109H224.134C223.005 728.109 222.09 727.192 222.09 726.072C222.09 724.951 223.005 724.025 224.134 724.025H258.59C259.718 724.025 260.625 724.933 260.625 726.072C260.625 727.211 259.709 728.109 258.59 728.109Z" fill="#383D48"/>
<path d="M258.59 749.88H235.175C234.056 749.88 233.141 748.963 233.141 747.833C233.141 746.703 234.056 745.796 235.175 745.796H258.59C259.718 745.796 260.624 746.713 260.624 747.833C260.624 748.954 259.709 749.88 258.59 749.88Z" fill="#383D48"/>
<path d="M258.59 770.65H208.82C207.691 770.65 206.785 769.733 206.785 768.613C206.785 767.492 207.691 766.566 208.82 766.566H258.59C259.718 766.566 260.625 767.483 260.625 768.613C260.625 769.743 259.709 770.65 258.59 770.65Z" fill="#383D48"/>
<path d="M232.364 797.356C231.236 797.356 230.32 796.439 230.32 795.31V739.795C230.32 738.665 231.236 737.758 232.364 737.758C233.492 737.758 234.399 738.665 234.399 739.795V795.31C234.399 796.439 233.492 797.356 232.364 797.356Z" fill="#383D48"/>
<path d="M235.323 710.042C234.195 710.042 233.28 709.125 233.28 708.005V675.53H109.954V708.005C109.954 709.125 109.038 710.042 107.91 710.042C106.782 710.042 105.866 709.125 105.866 708.005V673.492C105.866 672.363 106.782 671.446 107.91 671.446H235.323C236.442 671.446 237.358 672.363 237.358 673.492V708.005C237.358 709.125 236.442 710.042 235.323 710.042Z" fill="#383D48"/>
<path d="M154.537 688.836H107.92C106.791 688.836 105.876 687.929 105.876 686.799C105.876 685.669 106.791 684.762 107.92 684.762H154.537C155.665 684.762 156.581 685.679 156.581 686.799C156.581 687.92 155.665 688.836 154.537 688.836Z" fill="#383D48"/>
<path d="M131.223 708.459C130.095 708.459 129.18 707.542 129.18 706.422V688.049C129.18 686.92 130.095 686.003 131.223 686.003C132.352 686.003 133.267 686.92 133.267 688.049V706.422C133.267 707.551 132.352 708.459 131.223 708.459Z" fill="#383D48"/>
<path d="M202.892 706.394C201.764 706.394 200.849 705.486 200.849 704.356V673.483C200.849 672.353 201.764 671.437 202.892 671.437C204.021 671.437 204.927 672.353 204.927 673.483V704.356C204.927 705.486 204.011 706.394 202.892 706.394Z" fill="#383D48"/>
<path d="M235.166 693.902H195.106C193.987 693.902 193.071 692.994 193.071 691.864C193.071 690.735 193.987 689.818 195.106 689.818H235.166C236.295 689.818 237.21 690.735 237.21 691.864C237.21 692.994 236.295 693.902 235.166 693.902Z" fill="#383D48"/>
<path d="M229.211 832.943H114.023C112.895 832.943 111.988 832.036 111.988 830.906V818.849C111.988 817.72 112.904 816.812 114.023 816.812H229.211C230.339 816.812 231.245 817.72 231.245 818.849V830.906C231.245 832.036 230.33 832.943 229.211 832.943ZM116.066 828.86H227.176V820.877H116.066V828.86Z" fill="#383D48"/>
<path d="M245.052 845H100.493C99.3652 845 98.459 844.083 98.459 842.953V830.897C98.459 829.767 99.3745 828.859 100.493 828.859H245.061C246.189 828.859 247.105 829.767 247.105 830.897V842.953C247.105 844.083 246.189 845 245.061 845H245.052ZM102.528 840.916H243.017V832.943H102.528V840.916Z" fill="#383D48"/>
<path d="M185.211 845H20.1043C18.9761 845 18.0605 844.083 18.0605 842.953V805.441C18.0605 804.311 18.9761 803.394 20.1043 803.394H85.6605C86.7887 803.394 87.7042 804.311 87.7042 805.441C87.7042 806.57 86.7887 807.478 85.6605 807.478H22.148V840.907H185.211C186.339 840.907 187.255 841.814 187.255 842.944C187.255 844.074 186.339 844.991 185.211 844.991V845Z" fill="#383D48"/>
<path d="M23.1097 845H2.04372C0.915512 845 0 844.083 0 842.954C0 841.824 0.915512 840.916 2.04372 840.916H23.1097C24.2379 840.916 25.1535 841.824 25.1535 842.954C25.1535 844.083 24.2379 845 23.1097 845Z" fill="#383D48"/>
<path d="M100.494 832.943H23.1101C21.9819 832.943 21.0664 832.036 21.0664 830.906C21.0664 829.776 21.9819 828.869 23.1101 828.869H100.494C101.622 828.869 102.538 829.776 102.538 830.906C102.538 832.036 101.622 832.943 100.494 832.943Z" fill="#383D48"/>
<path d="M71.9461 832.943C70.8179 832.943 69.9023 832.036 69.9023 830.906V805.45C69.9023 804.32 70.8179 803.403 71.9461 803.403C73.0743 803.403 73.9898 804.32 73.9898 805.45V830.906C73.9898 832.036 73.0743 832.943 71.9461 832.943Z" fill="#383D48"/>
<path d="M324.905 845H159.789C158.661 845 157.755 844.083 157.755 842.953C157.755 841.824 158.661 840.916 159.789 840.916H322.861V807.487H259.349C258.221 807.487 257.314 806.58 257.314 805.45C257.314 804.32 258.221 803.403 259.349 803.403H324.905C326.033 803.403 326.94 804.32 326.94 805.45V842.963C326.94 844.092 326.033 845.009 324.905 845.009V845Z" fill="#383D48"/>
<path d="M342.956 845H321.89C320.762 845 319.855 844.083 319.855 842.954C319.855 841.824 320.762 840.916 321.89 840.916H342.956C344.093 840.916 345 841.824 345 842.954C345 844.083 344.093 845 342.956 845Z" fill="#383D48"/>
<path d="M321.89 832.943H244.506C243.387 832.943 242.472 832.036 242.472 830.906C242.472 829.776 243.387 828.869 244.506 828.869H321.89C323.018 828.869 323.924 829.776 323.924 830.906C323.924 832.036 323.009 832.943 321.89 832.943Z" fill="#383D48"/>
<path d="M273.063 832.943C271.935 832.943 271.02 832.036 271.02 830.906V805.45C271.02 804.32 271.935 803.403 273.063 803.403C274.191 803.403 275.098 804.32 275.098 805.45V830.906C275.098 832.036 274.191 832.943 273.063 832.943Z" fill="#383D48"/>
<path d="M273.479 724.562C273.285 724.562 273.081 724.553 272.878 724.535C268.013 724.109 264.934 720.192 263.667 718.191H258.581C257.453 718.191 256.537 717.275 256.537 716.154C256.537 715.034 257.453 714.108 258.581 714.108H264.841C265.618 714.108 266.33 714.552 266.682 715.256C266.7 715.293 269.132 720.099 273.229 720.46C276.484 720.738 277.622 713.765 277.622 713.691C277.77 712.691 278.63 711.941 279.647 711.941H286.176C286.564 711.941 286.943 712.043 287.276 712.256C288.118 712.783 290.901 714.098 292.483 713.209C293.786 712.469 294.48 710.061 294.415 706.449C294.406 706.079 294.498 705.709 294.683 705.394C296.422 702.384 298.947 697.198 299.714 693.856C294.452 693.448 281.866 690.698 274.524 674.317C274.172 673.53 274.348 672.594 274.986 671.992C275.615 671.4 276.558 671.261 277.326 671.659C277.39 671.696 283.771 674.946 291.123 674.696C294.443 674.594 296.376 674.28 297.791 674.039C299.742 673.715 301.166 673.474 303.126 674.789C306.724 677.197 304.134 682.984 303.839 683.642C303.348 684.669 302.137 685.095 301.129 684.623C300.112 684.142 299.668 682.929 300.149 681.901C300.861 680.382 301.129 678.558 300.861 678.178C300.278 677.789 300.25 677.78 298.466 678.076C297.032 678.317 294.859 678.678 291.271 678.789C287.276 678.91 283.577 678.169 280.775 677.345C289.07 690.476 301.286 689.874 301.85 689.818C302.396 689.79 302.932 689.966 303.339 690.327C303.746 690.689 303.996 691.198 304.024 691.744C304.273 696.319 299.788 704.671 298.512 706.949C298.503 711.987 297.143 715.293 294.489 716.784C291.123 718.673 287.119 716.849 285.639 716.015H281.358C280.433 719.821 278.066 724.553 273.497 724.553L273.479 724.562Z" fill="#383D48"/>
<path d="M264.185 768.344C262.335 768.344 260.44 768.298 258.47 768.178C257.351 768.113 256.491 767.15 256.546 766.029C256.611 764.909 257.573 764.029 258.701 764.103C275.56 765.048 287.766 761.807 296.061 754.204C304.486 746.481 308.879 734.017 309.47 716.099C309.896 703.338 312.763 696.106 313.983 693.569L311.69 688.976C311.348 688.29 311.412 687.475 311.866 686.855L313.872 684.095C314.261 683.568 314.871 683.253 315.528 683.253H317.987C319.966 681.327 322.306 678.252 322.14 676.456C322.112 676.104 321.973 675.687 321.243 675.243C317.803 673.141 308.86 676.91 304.033 679.771C303.062 680.345 301.804 680.021 301.24 679.058C300.667 678.086 300.99 676.826 301.952 676.252C303.45 675.363 316.739 667.705 323.37 671.742C325.515 673.048 326.098 674.826 326.209 676.085C326.643 680.873 320.817 686.225 320.151 686.827C319.772 687.161 319.282 687.346 318.792 687.346H316.563L315.898 688.262L318.108 692.67C318.422 693.3 318.394 694.05 318.024 694.652C317.997 694.717 314.048 701.486 313.558 716.228C312.929 735.304 308.111 748.713 298.826 757.214C290.67 764.687 279.305 768.344 264.194 768.344H264.185Z" fill="#383D48"/>
<path d="M298.966 731.294C297.874 731.294 296.968 730.433 296.931 729.331C296.672 722.858 303.303 702.745 304.061 700.467C304.413 699.402 305.568 698.819 306.641 699.171C307.714 699.532 308.287 700.69 307.936 701.764C305.948 707.737 300.824 724.321 301.019 729.165C301.065 730.294 300.186 731.248 299.058 731.294H298.975H298.966Z" fill="#383D48"/>
<path d="M70.8086 724.562C66.2403 724.562 63.8729 719.83 62.9574 716.024H58.6758C57.1869 716.849 53.192 718.682 49.8258 716.784C47.1625 715.293 45.8031 711.987 45.7939 706.949C44.5177 704.671 40.0326 696.319 40.2823 691.744C40.3101 691.198 40.5597 690.689 40.9666 690.327C41.3735 689.966 41.9191 689.772 42.4647 689.818C43.0381 689.846 55.2449 690.476 63.54 677.345C60.7287 678.178 57.0389 678.91 53.044 678.789C49.4559 678.678 47.2827 678.317 45.8494 678.076C44.0646 677.78 44.0368 677.789 43.4542 678.197C43.1768 678.558 43.4542 680.382 44.1663 681.901C44.6379 682.919 44.2033 684.142 43.1861 684.623C42.1688 685.095 40.9574 684.67 40.4765 683.642C40.1713 682.984 37.582 677.206 41.1886 674.789C43.1398 673.483 44.5547 673.724 46.5244 674.048C47.9301 674.28 49.8628 674.604 53.1827 674.706C60.6363 674.937 66.9154 671.705 66.9801 671.668C67.7477 671.27 68.6909 671.409 69.3198 672.002C69.9486 672.603 70.1335 673.53 69.7821 674.326C62.4395 690.707 49.8536 693.457 44.5917 693.865C45.35 697.217 47.8838 702.393 49.6224 705.403C49.8073 705.718 49.8998 706.088 49.8998 706.459C49.8351 710.079 50.5194 712.478 51.8326 713.219C53.4231 714.117 56.2067 712.793 57.0574 712.256C57.3811 712.052 57.7695 711.941 58.1487 711.941H64.6682C65.6855 711.941 66.5455 712.691 66.6934 713.7C66.7027 713.774 67.9049 720.738 71.086 720.469C75.1827 720.108 77.6148 715.302 77.6426 715.256C77.9847 714.561 78.6968 714.117 79.4736 714.117H85.7342C86.8624 714.117 87.778 715.034 87.778 716.163C87.778 717.293 86.8624 718.201 85.7342 718.201H80.6481C79.3811 720.201 76.3017 724.118 71.4375 724.544C71.234 724.562 71.0306 724.572 70.8364 724.572L70.8086 724.562Z" fill="#383D48"/>
<path d="M80.1028 768.344C64.9923 768.344 53.627 764.686 45.4706 757.213C36.186 748.703 31.368 735.295 30.7392 716.228C30.2491 701.486 26.3096 694.707 26.2633 694.643C25.9027 694.041 25.8749 693.291 26.1801 692.67L28.381 688.253L27.7152 687.336H25.4958C24.9964 687.336 24.5155 687.151 24.1364 686.818C23.4706 686.216 17.6353 680.863 18.07 676.076C18.1809 674.816 18.7728 673.039 20.9182 671.733C27.5488 667.705 40.8375 675.354 42.3357 676.243C43.3067 676.817 43.6211 678.067 43.0477 679.048C42.4744 680.011 41.2259 680.336 40.2549 679.761C35.4277 676.9 26.476 673.14 23.0452 675.233C22.3054 675.678 22.1759 676.104 22.1482 676.446C21.9817 678.243 24.3213 681.317 26.3096 683.243H28.7694C29.426 683.243 30.0364 683.558 30.4155 684.086L32.4222 686.845C32.8661 687.466 32.9401 688.281 32.5979 688.966L30.3045 693.559C31.5345 696.106 34.4012 703.329 34.8174 716.089C35.4092 734.007 39.7926 746.462 48.2264 754.195C56.5215 761.797 68.7375 765.038 85.5867 764.094C86.7611 764.02 87.6766 764.899 87.7413 766.02C87.8061 767.14 86.9368 768.113 85.8178 768.168C83.8574 768.279 81.9524 768.335 80.1121 768.335L80.1028 768.344Z" fill="#383D48"/>
<path d="M45.3227 731.294C44.1205 731.248 43.242 730.294 43.2882 729.174C43.4824 724.331 38.3593 707.746 36.3618 701.773C36.0011 700.699 36.5837 699.541 37.6472 699.18C38.7199 698.819 39.8759 699.402 40.2273 700.476C40.9856 702.754 47.6161 722.868 47.3572 729.34C47.3109 730.442 46.4139 731.304 45.3227 731.304V731.294Z" fill="#383D48"/>
</g>
<defs>
<clipPath id="clip0_4208_42123">
<rect width="345" height="845" fill="white"/>
</clipPath>
</defs>
</svg>
