<svg width="171" height="100" viewBox="0 0 171 100" fill="none" xmlns="http://www.w3.org/2000/svg">
<path d="M27.5676 94.7759H26V94H30V94.7759H28.4324V99H27.5676V94.7759Z" fill="#E6C885"/>
<path d="M37.3492 97.8506H34.5873L34.0476 99H33L35.4762 94H36.4921L39 99H37.9206L37.3492 97.8506ZM37 97.1322L35.9524 94.9483L34.9048 97.1322H37Z" fill="#E6C885"/>
<path d="M42.8511 98.8315C42.4823 98.7191 42.227 98.5787 42 98.4101L42.3121 97.7079C42.5106 97.8764 42.766 97.9888 43.0496 98.1011C43.3333 98.2135 43.6454 98.2416 43.9291 98.2416C44.2979 98.2416 44.5816 98.1854 44.7518 98.073C44.922 97.9607 45.0355 97.7921 45.0355 97.6236C45.0355 97.4831 44.9787 97.3708 44.8936 97.2865C44.7801 97.2023 44.6667 97.118 44.4965 97.0618C44.3546 97.0056 44.1277 96.9494 43.8723 96.8933C43.5035 96.809 43.1915 96.7247 42.9645 96.6404C42.7376 96.5562 42.539 96.4157 42.3688 96.2191C42.1986 96.0225 42.1135 95.7697 42.1135 95.4607C42.1135 95.1798 42.1986 94.9551 42.3404 94.7303C42.4823 94.5056 42.7092 94.3371 43.0213 94.1966C43.3333 94.0562 43.6738 94 44.1277 94C44.4397 94 44.7234 94.0281 45.0071 94.1124C45.2908 94.1966 45.5461 94.2809 45.7731 94.4213L45.4894 95.1236C45.2624 95.0112 45.0355 94.8989 44.8085 94.8427C44.5816 94.7865 44.3546 94.7584 44.1277 94.7584C43.7589 94.7584 43.5035 94.8146 43.3333 94.927C43.1631 95.0393 43.078 95.2079 43.078 95.4045C43.078 95.5449 43.1348 95.6573 43.2199 95.7416C43.3333 95.8258 43.4468 95.9101 43.617 95.9382C43.7589 95.9944 43.9858 96.0506 44.2411 96.1067C44.6099 96.191 44.922 96.2753 45.1489 96.3596C45.3759 96.4438 45.5745 96.5843 45.7447 96.7809C45.9149 96.9775 46 97.2303 46 97.5393C46 97.8202 45.9149 98.045 45.7731 98.2697C45.6312 98.4944 45.4043 98.6629 45.0922 98.8034C44.7801 98.9438 44.4114 99 43.9858 99C43.5887 99 43.2199 98.9438 42.8511 98.8315Z" fill="#E6C885"/>
<path d="M50.5676 94.7759H49V94H53V94.7759H51.4324V99H50.5676V94.7759Z" fill="#E6C885"/>
<path d="M62 98.2241V99H58V94H61.9077V94.7759H58.9846V96.069H61.5692V96.8448H58.9846V98.2241H62Z" fill="#E6C885"/>
<path d="M71.4681 98.6667C71.0213 98.4444 70.6702 98.1667 70.383 97.7778C70.1277 97.3889 70 96.9722 70 96.5C70 96.0278 70.1277 95.6111 70.383 95.2222C70.6383 94.8333 70.9894 94.5556 71.4681 94.3333C71.9149 94.1111 72.4255 94 73 94C73.5745 94 74.0851 94.1111 74.5319 94.3333C74.9787 94.5556 75.3298 94.8333 75.617 95.2222C75.8723 95.6111 76 96.0278 76 96.5C76 96.9722 75.8723 97.3889 75.617 97.7778C75.3617 98.1667 75.0106 98.4444 74.5319 98.6667C74.0851 98.8889 73.5745 99 73 99C72.4255 99 71.9149 98.8889 71.4681 98.6667ZM73.9894 98C74.2766 97.8611 74.5319 97.6389 74.6915 97.3889C74.8511 97.1389 74.9468 96.8333 74.9468 96.5278C74.9468 96.1944 74.8511 95.9167 74.6915 95.6667C74.5319 95.4167 74.2766 95.1944 73.9894 95.0556C73.7021 94.9167 73.3511 94.8333 73 94.8333C72.6489 94.8333 72.2979 94.9167 72.0106 95.0556C71.7234 95.1944 71.4681 95.4167 71.3085 95.6667C71.1489 95.9167 71.0532 96.2222 71.0532 96.5278C71.0532 96.8611 71.1489 97.1389 71.3085 97.3889C71.4681 97.6389 71.7234 97.8611 72.0106 98C72.2979 98.1389 72.6489 98.2222 73 98.2222C73.3511 98.2222 73.7021 98.1389 73.9894 98Z" fill="#E6C885"/>
<path d="M81.0079 94.7759V96.2989H83.6535V97.0747H81.0079V99H80V94H84V94.7759H81.0079Z" fill="#E6C885"/>
<path d="M98 99.4419C97.8163 99.6372 97.602 99.7767 97.3878 99.8605C97.1429 99.9442 96.898 100 96.6224 100C96.2551 100 95.9184 99.9163 95.6122 99.7767C95.3061 99.6372 94.9694 99.3581 94.5714 98.9954C94.0816 98.9674 93.6531 98.8279 93.2551 98.6047C92.8571 98.3814 92.551 98.0744 92.3367 97.7116C92.1225 97.3488 92 96.9581 92 96.5116C92 96.0372 92.1225 95.6186 92.3674 95.2279C92.6122 94.8372 92.949 94.5581 93.4082 94.3349C93.8367 94.1116 94.3265 94 94.8775 94C95.4286 94 95.9184 94.1116 96.3469 94.3349C96.7755 94.5581 97.1122 94.8372 97.3878 95.2279C97.6327 95.6186 97.7551 96.0372 97.7551 96.5116C97.7551 96.9023 97.6633 97.2372 97.5102 97.5721C97.3571 97.907 97.1122 98.1861 96.8061 98.4093C96.5 98.6326 96.1633 98.8 95.7653 98.9116C95.9184 99.0512 96.0714 99.1628 96.1939 99.2186C96.3469 99.2744 96.5 99.3023 96.6531 99.3023C96.9898 99.3023 97.2959 99.1628 97.5714 98.9116L98 99.4419ZM93.2551 97.4047C93.4082 97.6558 93.6531 97.8791 93.9286 98.0186C94.2041 98.1581 94.5408 98.2419 94.8775 98.2419C95.2143 98.2419 95.551 98.1581 95.8265 98.0186C96.102 97.8791 96.3469 97.6558 96.5 97.4047C96.6531 97.1535 96.7449 96.8465 96.7449 96.5395C96.7449 96.2047 96.6531 95.9256 96.5 95.6744C96.3469 95.4233 96.102 95.2 95.8265 95.0605C95.551 94.9209 95.2143 94.8372 94.8775 94.8372C94.5408 94.8372 94.2041 94.9209 93.9286 95.0605C93.6531 95.2 93.4082 95.4233 93.2551 95.6744C93.102 95.9256 93.0102 96.2326 93.0102 96.5395C93.0102 96.8465 93.0714 97.1535 93.2551 97.4047Z" fill="#E6C885"/>
<path d="M102.658 98.4318C102.23 98.0625 102 97.4943 102 96.7841V94H103.053V96.7557C103.053 97.7216 103.546 98.2045 104.5 98.2045C105.454 98.2045 105.947 97.7216 105.947 96.7557V94H107V96.7841C107 97.4943 106.77 98.0625 106.342 98.4318C105.914 98.8295 105.289 99 104.5 99C103.711 99 103.086 98.8011 102.658 98.4318Z" fill="#E6C885"/>
<path d="M114.349 97.8506H111.587L111.048 99H110L112.476 94H113.492L116 99H114.921L114.349 97.8506ZM114.032 97.1322L112.984 94.9483L111.937 97.1322H114.032Z" fill="#E6C885"/>
<path d="M119 94H120.041V98.2241H123V99H119V94Z" fill="#E6C885"/>
<path d="M127 94H128V99H127V94Z" fill="#E6C885"/>
<path d="M133.568 94.7759H132V94H136V94.7759H134.432V99H133.568V94.7759Z" fill="#E6C885"/>
<path d="M141.959 97.2471V99H141.012V97.2471L139 94H140.036L141.544 96.4425L143.053 94H144L141.959 97.2471Z" fill="#E6C885"/>
<path d="M77.0541 16.1647C74.1762 20.4391 73.9006 23.359 74.0231 25.4059C74.115 27.4829 75.1253 29.7707 77.5745 29.9814C78.5542 30.0717 79.3809 29.8309 79.9319 29.3191C80.483 28.8074 80.7586 28.0248 80.7279 27.1518C80.6973 26.61 80.2687 25.2554 78.4624 24.9845C78.7379 25.2855 79.2584 25.9477 79.1972 26.8207C79.1359 27.7839 78.5848 28.3559 77.697 28.3559C77.6664 28.3559 77.6051 28.3559 77.5745 28.3559C75.9213 28.2656 75.707 25.6166 75.707 25.3156C75.6151 23.5095 75.86 20.9508 78.4624 17.0677C78.891 16.4055 79.4115 15.7432 79.9626 14.9907L80.0544 14.8703C82.0138 12.2514 84.2181 9.30145 85.4121 5.47852L85.504 5.23771L85.5958 5.47852C86.8205 9.30145 89.0248 12.2514 90.9536 14.8703L91.0148 14.9305C91.5659 15.683 92.0863 16.3754 92.5456 17.0376C95.1785 20.9207 95.3928 23.4794 95.301 25.2855C95.301 25.5865 95.1173 28.2054 93.4334 28.3258C92.0557 28.4161 91.8108 27.3023 91.7802 26.8207C91.719 25.9176 92.2394 25.3457 92.515 25.1049C91.9027 25.0748 91.3822 25.2253 90.9842 25.5564C90.4025 26.038 90.2188 26.7605 90.2188 27.0615C90.1882 27.9345 90.4943 28.7472 91.076 29.289C91.6577 29.8309 92.4537 30.0416 93.4334 29.9814C95.9133 29.7707 96.893 27.4829 96.9848 25.4059C97.0767 23.359 96.8318 20.4391 93.9539 16.1647L93.9233 16.1045C93.4334 15.382 92.9436 14.6596 92.3313 13.9371C87.8308 8.4586 85.9326 1.6556 85.5346 0C85.106 1.6857 83.2078 8.4887 78.7379 13.9371C78.1256 14.6897 77.6051 15.4422 77.1459 16.1346L77.0541 16.1647Z" fill="url(#paint0_linear_3003_1625)"/>
<path d="M83.5505 32C85.1406 29.7413 85.4406 27.0133 84.3605 24.696C83.3704 22.584 81.3903 21.352 78.45 21C78.39 21.1173 78.21 21.4107 78.15 21.7333C78.06 22.1733 78 22.408 78 22.5253C80.4602 22.8187 82.1403 23.7867 82.8604 25.3413C83.7005 27.16 83.4605 29.3013 82.2004 31.0907C82.3204 31.1493 82.5904 31.296 82.8904 31.5013C83.1904 31.6773 83.4305 31.8827 83.5505 32Z" fill="url(#paint1_linear_3003_1625)"/>
<path d="M92.8488 21.7412C92.7581 21.4151 92.6069 21.1186 92.5464 21C89.613 21.3261 87.6171 22.6011 86.6192 24.7358C85.5608 27.0189 85.8632 29.6577 87.4962 32C87.6171 31.9111 87.8591 31.6739 88.1615 31.496C88.4639 31.3181 88.7361 31.1402 88.857 31.0809C87.5869 29.2426 87.3147 27.1968 88.1312 25.4178C88.857 23.8464 90.5505 22.8383 93 22.5714C92.9698 22.4528 92.9395 22.186 92.8488 21.7412Z" fill="url(#paint2_linear_3003_1625)"/>
<path d="M61 28L63.0263 27.972C63.3158 27.58 66.2105 23.744 71.6526 22.596C71.7395 22.036 71.8553 21.504 72 21C65.1684 22.288 61.5789 26.908 61 28Z" fill="url(#paint3_linear_3003_1625)"/>
<path d="M101.536 38.21C104.006 37.819 106.205 35.6234 107.59 33.8488C108.886 32.1946 109.759 30.5704 110 30.1493L108.795 30.0892C108.283 30.0591 96.1747 29.4275 90.994 32.0141C87.7108 33.6383 85.7229 35.8339 85.0904 38.4807L85 38.8116L84.9096 38.4807C84.2771 35.8339 82.2892 33.6383 79.006 32.0141C73.8253 29.4275 61.7169 30.0892 61.2048 30.0892L60 30.1493C60.4819 31.0817 64.0361 37.4882 68.4639 38.21C70.4217 38.5108 71.4157 37.1573 71.5964 36.2249C71.747 35.473 71.5964 34.8113 71.2349 34.3C70.8735 33.7887 70.3012 33.4879 69.6386 33.3676C69.1265 33.3074 68.6446 33.3977 68.3434 33.6684C68.1325 33.8488 67.9819 34.1195 67.9518 34.4203C68.2229 34.33 68.8554 34.1496 69.4578 34.5406C69.759 34.7211 69.9398 34.9918 70 35.2925C70.0602 35.5632 69.9699 35.8038 69.7892 36.0745C69.3976 36.5858 68.8253 36.5558 68.494 36.5257C66.4759 36.3452 63.7048 33.3074 62.741 31.8036L62.6506 31.6833H62.8012C67.0181 31.593 74.6084 31.6833 78.1928 33.4578C83.3133 36.0144 84.6386 40.2252 82.0783 46L83.9458 45.6691C84.3675 44.6465 84.6687 43.6239 84.8795 42.6314L84.9699 42.2404L85.0602 42.6314C85.241 43.6239 85.5723 44.6465 85.994 45.6691L87.8614 46C85.3313 40.2252 86.6265 36.0144 91.747 33.4578C95.3614 31.6532 102.952 31.563 107.139 31.6833H107.289L107.199 31.8036C106.235 33.3074 103.494 36.3452 101.476 36.5257C101.114 36.5558 100.542 36.6159 100.151 36.0745C99.9699 35.8339 99.9096 35.5632 99.9398 35.2925C100 35.0218 100.181 34.7511 100.482 34.5406C101.084 34.1496 101.717 34.33 101.988 34.4203C101.958 34.1195 101.807 33.8488 101.596 33.6684C101.295 33.3977 100.813 33.2773 100.301 33.3676C99.6386 33.4578 99.0663 33.7887 98.7048 34.3C98.3434 34.8113 98.2229 35.473 98.3434 36.2249C98.5843 37.1573 99.5783 38.5409 101.536 38.21Z" fill="url(#paint4_linear_3003_1625)"/>
<path d="M68.9303 27.338L68.6148 27.3662L68.873 27.2254C69.5902 26.8028 70.4508 26.5493 71.1393 26.3521C71.082 25.9296 71.0533 25.4789 71.0533 25C70.4508 25.1408 68.7869 25.6197 67.4385 26.493C66.2336 27.2817 65.3156 28.2676 65 28.6056H65.0574C65.2582 28.6056 65.5164 28.6056 65.8607 28.6056C66.4344 28.6056 67.2664 28.6338 68.5574 28.662C70.6516 28.7746 71.4836 28.9155 71.9713 29H72C71.7418 28.5211 71.5123 27.9577 71.4262 27.5634C71.1967 27.4789 69.5041 27.3099 68.9303 27.338Z" fill="url(#paint5_linear_3003_1625)"/>
<path d="M100.472 28.662C102.577 28.5775 103.402 28.5775 103.943 28.6056H104C103.687 28.2676 102.776 27.2817 101.581 26.493C100.244 25.6197 98.5935 25.1408 97.9959 25C98.0244 25.4507 97.9675 25.9014 97.9106 26.3521C98.5935 26.5493 99.4472 26.7746 100.159 27.2254L100.415 27.3662L100.102 27.338C99.5041 27.3099 97.8537 27.4789 97.5691 27.5634C97.4837 27.9296 97.2846 28.5211 97 29H97.0285C97.5976 28.9155 98.3943 28.7746 100.472 28.662Z" fill="url(#paint6_linear_3003_1625)"/>
<path d="M98 21C98.1447 21.504 98.2605 22.036 98.3474 22.596C103.789 23.744 106.684 27.58 106.974 27.972L109 28C108.421 26.88 104.803 22.26 98 21Z" fill="url(#paint7_linear_3003_1625)"/>
<path d="M93.1497 38.3789C93.0629 38.3158 92.976 38.2526 92.8892 38.1895L92.8023 38.1263L92.8892 38.0632C93.6708 37.4632 94.7709 36.9895 95.9868 36.7368C95.9578 36.5474 95.9289 36.1368 95.9289 35.7895C95.9289 35.5053 96.0157 35.1579 96.0447 35C93.7287 35.4421 92.1944 36.4842 91.6444 36.9263L91.5865 36.9579L91.1233 36.4526C91.0364 36.3579 90.9785 36.2947 90.9496 36.2316L89.7337 37.3053C89.9653 37.5895 90.1679 37.8105 90.3127 37.9684L90.3706 38.0316L90.3127 38.0947C89.9653 38.5053 89.7048 38.9474 89.5311 39.2947C88.6336 41 89.1258 42.3263 89.2126 42.5158L91.4128 44L97 40.8737L95.6394 40.1158C94.9156 39.6421 94.163 39.1368 93.1497 38.3789ZM91.4996 42.0105L90.5732 41.3789V41.3474C90.5443 41.0316 90.718 40.4632 90.9785 39.9579C91.0943 39.7053 91.268 39.4526 91.4707 39.2316L91.5286 39.1684L91.5865 39.2316C91.8181 39.4526 92.0497 39.6421 92.2813 39.8C92.7444 40.1474 93.1787 40.4316 93.555 40.7158L93.6708 40.7789L91.4996 42.0105Z" fill="url(#paint8_linear_3003_1625)"/>
<path d="M80.7874 41.7279C80.8742 41.5583 81.3664 40.371 80.4689 38.8445C80.2952 38.5336 80.0347 38.1378 79.6873 37.7703L79.6294 37.7138L79.6873 37.6572C79.832 37.5442 80.0347 37.3463 80.2663 37.0636L79.0504 36.1025C79.0504 36.1025 79.0504 36.1025 79.0215 36.1307L78.4135 36.7527L78.3556 36.7244C77.8056 36.3286 76.2713 35.3958 73.9553 35C73.9843 35.1696 74.0711 35.4523 74.0711 35.7067C74.1001 36.0177 74.0422 36.4134 74.0132 36.5548C75.2002 36.8092 76.3002 37.2332 77.1108 37.742L77.1977 37.7986L77.1108 37.8551C77.024 37.9117 76.9371 37.9682 76.8503 38.0247C75.837 38.7032 75.0844 39.1555 74.3317 39.523L73 40.2014L78.5872 43L80.7874 41.7279ZM76.3581 40.2014L76.4739 40.1449C76.8792 39.8905 77.2845 39.636 77.7477 39.3251C77.9793 39.1837 78.2109 39.0141 78.4425 38.8163L78.5004 38.7597L78.5583 38.8163C78.7609 39.0424 78.9346 39.2403 79.0504 39.4664C79.311 39.9187 79.4557 40.4276 79.4557 40.7102V40.7385L78.5293 41.3039L76.3581 40.2014Z" fill="url(#paint9_linear_3003_1625)"/>
<path d="M84.3731 21.7586L85.0597 23L85.7761 21.7586C85.8955 21.5813 86.4328 20.6355 87.1194 19.601C87.806 18.5961 88.403 17.8571 88.5224 17.7094L89 17.1478L88.4925 16.6158C88.4925 16.6158 87.6567 15.7586 86.9701 14.6946C86.3433 13.7783 85.9254 12.9212 85.7761 12.5961V12.5665L85.0597 11L84.3134 12.5665C84.194 12.7734 83.6866 13.8374 83.0896 14.6946C82.5224 15.5222 81.7463 16.3793 81.5373 16.6453L81 17.2365L81.5672 17.7685C81.5672 17.7685 82.3134 18.4778 83.0896 19.6305C83.8657 20.8424 84.3731 21.7586 84.3731 21.7586ZM83.2687 17.1182C83.7463 16.5567 84.1343 16.0542 84.4328 15.6108C84.6119 15.3744 84.7612 15.1084 84.9702 14.7537L85.0298 14.6355L85.0896 14.7537C85.2388 15.0197 85.4179 15.2857 85.6269 15.5813C86.0746 16.2315 86.5224 16.7931 86.8209 17.1478L86.8507 17.2069L86.8209 17.266C86.4627 17.7389 86.1045 18.2118 85.7761 18.7143C85.5373 19.0394 85.3284 19.3645 85.1492 19.6601L85.0896 19.7783L85.0298 19.6601C84.8209 19.335 84.6119 19.0394 84.403 18.7143C84.0448 18.1823 83.6567 17.6798 83.2388 17.2069L83.209 17.1478L83.2687 17.1182Z" fill="url(#paint10_linear_3003_1625)"/>
<path d="M111 60.5445V55H85V60.5445H85.8913V60.3047C85.8913 59.3756 86.1678 58.6563 86.721 58.1169C88.1962 56.7083 91.4232 56.7682 94.0355 56.7982C94.435 56.7982 94.8345 56.7982 95.2033 56.7982V85H100.858V56.8282C101.258 56.8282 101.688 56.8282 102.118 56.8282C104.823 56.8282 107.927 56.7982 109.34 58.1768C109.894 58.7163 110.139 59.4056 110.139 60.3047V60.5445H111Z" fill="white"/>
<path d="M80.9609 76.58L64.6478 56.09L64.5565 56H55V56.87H55.2435C57.4044 56.87 58.4391 58.1 58.4391 60.62C58.4391 61.64 58.5 85.76 58.5 85.76V86H60.5696V60.29L80.9609 85.91L81.0522 86H83V56H80.9304V76.58H80.9609Z" fill="white"/>
<path d="M42.4365 55H31.4816V55.8964H31.7251C32.7901 55.8964 33.703 56.3147 34.1899 57.0319C34.7985 57.9283 34.7985 59.2729 34.1595 60.9462C33.9769 61.3944 33.8248 61.9024 33.6422 62.4104C33.4596 62.9781 33.2466 63.6056 33.0336 64.1135L25.1217 84.6414L25 85H27.2823L31.5425 73.9741H43.6842L47.8835 84.8506L47.9444 85H54L42.4974 55.2092L42.4365 55ZM42.8625 71.8227L32.3033 71.8526L37.5981 58.1972L42.8625 71.8227Z" fill="white"/>
<path d="M18.7725 70.6199C17.5013 69.8104 16.2596 69.3008 14.7815 68.7311C14.0424 68.4313 12.2686 67.7418 11.7365 67.5619L11.5887 67.5019C10.2584 66.9923 9.01671 66.4526 7.92288 65.883C6.82905 65.3433 5.94216 64.6837 5.29177 63.9342C4.64139 63.2147 4.34576 62.3453 4.34576 61.266C4.34576 59.7969 4.87789 58.9575 6.03085 58.058C7.15424 57.1586 8.86889 56.7089 11.0861 56.7089C12.7712 56.7089 14.1607 56.9787 15.3727 57.5184C19.2455 59.2573 20.162 60.6963 20.6941 62.9749L20.7532 63.2147L21.6401 63.0948L20.4871 55.8095L19.6889 55.8994L19.6298 55.9894C19.6003 56.0193 19.1568 56.6789 18.1221 56.499C16.9987 56.2892 16.4961 56.1393 15.5206 55.8095L15.0476 55.6596C13.7172 55.2099 12.2095 55 10.6131 55C8.75064 55 7.00643 55.3298 5.49872 55.9894C3.96144 56.6489 2.7198 57.6083 1.80334 58.7776C0.886891 59.9768 0.41388 61.4159 0.41388 62.9749C0.41388 64.5638 0.768639 65.9429 1.50771 67.0522C2.21723 68.1615 3.16324 69.1209 4.34576 69.9004C5.08483 70.3801 5.9126 70.8598 7.00643 71.3694V71.3395C7.36118 71.5493 8.51414 72.029 12.2686 73.588L12.7416 73.7979C12.919 73.8578 13.0668 73.9478 13.2442 74.0077C13.7172 74.2176 14.1607 74.3975 14.5745 74.6073L14.6928 74.6673C14.8406 74.7273 14.9884 74.8172 15.1362 74.8772C16.2301 75.4168 17.0874 76.0764 17.7378 76.766C18.4177 77.5155 18.7725 78.4149 18.7725 79.4942C18.7725 81.0232 18.1812 81.7427 16.9691 82.6721C15.7571 83.6015 13.8946 84.0812 11.5 84.0812C9.69666 84.0812 8.15938 83.8114 6.85861 83.2418C2.69023 81.4729 1.56684 79.854 0.975579 77.5155L0.916454 77.3056L0 77.4255L1.27121 85.1905L2.01028 85.0406L2.06941 84.9807C2.09897 84.9507 2.69023 84.3511 3.90231 84.411C4.81876 84.471 5.3509 84.6509 6.08998 84.9207C6.41517 85.0406 6.74036 85.1605 7.1838 85.3104C8.63239 85.7602 10.2288 86 11.973 86C13.9833 86 15.8458 85.6702 17.5013 84.9807C19.1568 84.2911 20.5167 83.3317 21.4923 82.1025C22.4974 80.8733 23 79.4043 23 77.7853C23 76.1364 22.6157 74.7273 21.8175 73.588C21.0488 72.4188 20.0437 71.4294 18.7725 70.6199Z" fill="white"/>
<path d="M170.762 84.9871C170.464 84.9871 170.166 84.9275 169.868 84.7785C169.571 84.6296 169.273 84.4508 168.975 84.1827C168.677 83.9444 168.409 83.6465 168.141 83.3486C167.873 83.0506 167.635 82.7527 167.427 82.4846C166.593 81.293 161.084 73.8153 161.084 73.8153C161.084 73.8153 162.989 73.0407 163.764 72.6832C164.717 72.2363 165.521 71.7001 166.116 70.9851C166.712 70.2403 167.158 69.3764 167.427 68.423C167.695 67.4697 167.814 66.3972 167.814 65.2056C167.814 63.7458 167.605 62.435 167.159 61.3029C166.712 60.141 165.997 59.1877 165.014 58.3833C164.032 57.6087 162.721 57.0129 161.113 56.5958C159.535 56.2085 157.54 56 155.247 56H140V56.9235H140.238C141.251 56.9235 142.025 57.1917 142.531 57.7279C143.425 58.6514 143.395 60.141 143.395 60.9454V85.851H148.695V74.0834L153.817 74.1132C155.336 74.1728 155.872 75.2453 156.855 76.6455C157.004 76.854 157.183 77.0924 157.331 77.3307C158.701 79.2373 160.131 81.1738 161.56 83.0804C162.096 83.855 162.811 84.5104 163.645 85.1063C164.478 85.7021 165.58 86 166.89 86H171V85.0467H170.762V84.9871ZM148.755 57.9067H155.277C157.897 57.9067 159.803 58.4727 160.875 59.6048C161.977 60.7368 162.513 62.8222 162.513 65.2056C162.513 67.6187 161.947 69.0784 160.875 70.1807C159.654 71.4022 157.689 72.0874 155.277 72.0874H148.755V57.9067Z" fill="white"/>
<path d="M128.437 55H117.482V55.8964H117.725C118.79 55.8964 119.703 56.3147 120.19 57.0319C120.799 57.9283 120.799 59.2729 120.159 60.9462C119.977 61.3944 119.825 61.9024 119.642 62.4104C119.46 62.9781 119.247 63.6056 119.034 64.1135L111.122 84.6414L111 85H113.282L117.542 73.9741H129.684L133.884 84.8506L133.944 85H140L128.497 55.2092L128.437 55ZM128.893 71.8227L118.334 71.8526L123.629 58.1972L128.893 71.8227Z" fill="white"/>
<defs>
<linearGradient id="paint0_linear_3003_1625" x1="80.2807" y1="2.14662" x2="88.9385" y2="40.6712" gradientUnits="userSpaceOnUse">
<stop stop-color="#FFDD94"/>
<stop offset="0.2264" stop-color="#FFDD94"/>
<stop offset="0.2849" stop-color="#EFC981"/>
<stop offset="0.4811" stop-color="#BD914D"/>
<stop offset="0.5746" stop-color="#A97C3B"/>
<stop offset="0.6429" stop-color="#AF8240"/>
<stop offset="0.7455" stop-color="#C09450"/>
<stop offset="0.8696" stop-color="#DCB36C"/>
<stop offset="1" stop-color="#FFDD94"/>
</linearGradient>
<linearGradient id="paint1_linear_3003_1625" x1="76.4725" y1="3.18158" x2="84.8664" y2="40.7429" gradientUnits="userSpaceOnUse">
<stop stop-color="#FFDD94"/>
<stop offset="0.2264" stop-color="#FFDD94"/>
<stop offset="0.2849" stop-color="#EFC981"/>
<stop offset="0.4811" stop-color="#BD914D"/>
<stop offset="0.5746" stop-color="#A97C3B"/>
<stop offset="0.6429" stop-color="#AF8240"/>
<stop offset="0.7455" stop-color="#C09450"/>
<stop offset="0.8696" stop-color="#DCB36C"/>
<stop offset="1" stop-color="#FFDD94"/>
</linearGradient>
<linearGradient id="paint2_linear_3003_1625" x1="83.885" y1="1.32823" x2="92.3911" y2="39.2843" gradientUnits="userSpaceOnUse">
<stop stop-color="#FFDD94"/>
<stop offset="0.2264" stop-color="#FFDD94"/>
<stop offset="0.2849" stop-color="#EFC981"/>
<stop offset="0.4811" stop-color="#BD914D"/>
<stop offset="0.5746" stop-color="#A97C3B"/>
<stop offset="0.6429" stop-color="#AF8240"/>
<stop offset="0.7455" stop-color="#C09450"/>
<stop offset="0.8696" stop-color="#DCB36C"/>
<stop offset="1" stop-color="#FFDD94"/>
</linearGradient>
<linearGradient id="paint3_linear_3003_1625" x1="62.4011" y1="7.15988" x2="70.3361" y2="43.0501" gradientUnits="userSpaceOnUse">
<stop stop-color="#FFDD94"/>
<stop offset="0.2264" stop-color="#FFDD94"/>
<stop offset="0.2849" stop-color="#EFC981"/>
<stop offset="0.4811" stop-color="#BD914D"/>
<stop offset="0.5746" stop-color="#A97C3B"/>
<stop offset="0.6429" stop-color="#AF8240"/>
<stop offset="0.7455" stop-color="#C09450"/>
<stop offset="0.8696" stop-color="#DCB36C"/>
<stop offset="1" stop-color="#FFDD94"/>
</linearGradient>
<linearGradient id="paint4_linear_3003_1625" x1="78.6081" y1="2.1696" x2="87.3806" y2="40.6045" gradientUnits="userSpaceOnUse">
<stop stop-color="#FFDD94"/>
<stop offset="0.2264" stop-color="#FFDD94"/>
<stop offset="0.2849" stop-color="#EFC981"/>
<stop offset="0.4811" stop-color="#BD914D"/>
<stop offset="0.5746" stop-color="#A97C3B"/>
<stop offset="0.6429" stop-color="#AF8240"/>
<stop offset="0.7455" stop-color="#C09450"/>
<stop offset="0.8696" stop-color="#DCB36C"/>
<stop offset="1" stop-color="#FFDD94"/>
</linearGradient>
<linearGradient id="paint5_linear_3003_1625" x1="63.525" y1="7.34718" x2="71.6171" y2="43.4028" gradientUnits="userSpaceOnUse">
<stop stop-color="#FFDD94"/>
<stop offset="0.2264" stop-color="#FFDD94"/>
<stop offset="0.2849" stop-color="#EFC981"/>
<stop offset="0.4811" stop-color="#BD914D"/>
<stop offset="0.5746" stop-color="#A97C3B"/>
<stop offset="0.6429" stop-color="#AF8240"/>
<stop offset="0.7455" stop-color="#C09450"/>
<stop offset="0.8696" stop-color="#DCB36C"/>
<stop offset="1" stop-color="#FFDD94"/>
</linearGradient>
<linearGradient id="paint6_linear_3003_1625" x1="94.1224" y1="0.906705" x2="102.274" y2="36.9339" gradientUnits="userSpaceOnUse">
<stop stop-color="#FFDD94"/>
<stop offset="0.2264" stop-color="#FFDD94"/>
<stop offset="0.2849" stop-color="#EFC981"/>
<stop offset="0.4811" stop-color="#BD914D"/>
<stop offset="0.5746" stop-color="#A97C3B"/>
<stop offset="0.6429" stop-color="#AF8240"/>
<stop offset="0.7455" stop-color="#C09450"/>
<stop offset="0.8696" stop-color="#DCB36C"/>
<stop offset="1" stop-color="#FFDD94"/>
</linearGradient>
<linearGradient id="paint7_linear_3003_1625" x1="97.6203" y1="-0.327206" x2="105.555" y2="35.563" gradientUnits="userSpaceOnUse">
<stop stop-color="#FFDD94"/>
<stop offset="0.2264" stop-color="#FFDD94"/>
<stop offset="0.2849" stop-color="#EFC981"/>
<stop offset="0.4812" stop-color="#BD914D"/>
<stop offset="0.5747" stop-color="#A97C3B"/>
<stop offset="0.643" stop-color="#AF8240"/>
<stop offset="0.7455" stop-color="#C09450"/>
<stop offset="0.8697" stop-color="#DCB36C"/>
<stop offset="1" stop-color="#FFDD94"/>
</linearGradient>
<linearGradient id="paint8_linear_3003_1625" x1="84.3688" y1="-0.656579" x2="94.335" y2="39.3148" gradientUnits="userSpaceOnUse">
<stop stop-color="#FFDD94"/>
<stop offset="0.2264" stop-color="#FFDD94"/>
<stop offset="0.2849" stop-color="#EFC981"/>
<stop offset="0.4811" stop-color="#BD914D"/>
<stop offset="0.5746" stop-color="#A97C3B"/>
<stop offset="0.6429" stop-color="#AF8240"/>
<stop offset="0.7455" stop-color="#C09450"/>
<stop offset="0.8696" stop-color="#DCB36C"/>
<stop offset="1" stop-color="#FFDD94"/>
</linearGradient>
<linearGradient id="paint9_linear_3003_1625" x1="69.1052" y1="6.47084" x2="77.1854" y2="42.673" gradientUnits="userSpaceOnUse">
<stop stop-color="#FFDD94"/>
<stop offset="0.2264" stop-color="#FFDD94"/>
<stop offset="0.2849" stop-color="#EFC981"/>
<stop offset="0.4811" stop-color="#BD914D"/>
<stop offset="0.5746" stop-color="#A97C3B"/>
<stop offset="0.6429" stop-color="#AF8240"/>
<stop offset="0.7455" stop-color="#C09450"/>
<stop offset="0.8696" stop-color="#DCB36C"/>
<stop offset="1" stop-color="#FFDD94"/>
</linearGradient>
<linearGradient id="paint10_linear_3003_1625" x1="81.4903" y1="1.90639" x2="90.0455" y2="39.7076" gradientUnits="userSpaceOnUse">
<stop stop-color="#FFDD94"/>
<stop offset="0.2264" stop-color="#FFDD94"/>
<stop offset="0.2849" stop-color="#EFC981"/>
<stop offset="0.4811" stop-color="#BD914D"/>
<stop offset="0.5746" stop-color="#A97C3B"/>
<stop offset="0.6429" stop-color="#AF8240"/>
<stop offset="0.7455" stop-color="#C09450"/>
<stop offset="0.8696" stop-color="#DCB36C"/>
<stop offset="1" stop-color="#FFDD94"/>
</linearGradient>
</defs>
</svg>
