<svg width="48" height="48" viewBox="0 0 48 48" fill="none" xmlns="http://www.w3.org/2000/svg">
<g clip-path="url(#clip0_14_140)">
<path d="M20.9191 31.0743C21.0812 31.2568 21.3245 31.3582 21.5677 31.3582C21.811 31.3582 22.034 31.2568 22.2164 31.0743L33.7705 18.2432C34.0947 17.8987 34.0543 17.3513 33.7096 17.027C33.3651 16.7028 32.8177 16.7432 32.4934 17.0879L21.588 29.2095L15.5677 22.3784C15.2636 22.0135 14.7164 21.9933 14.3515 22.2973C13.9867 22.6013 13.9664 23.1486 14.2704 23.5135L20.9191 31.0743Z" fill="#9D9D9D"/>
<path d="M5.4325 6.89193V34.6825C5.4325 37.3582 8.473 40.3177 14.7365 43.7433C19.1555 46.1554 23.6555 47.919 23.696 47.9393C23.7974 47.9799 23.8987 48.0001 24.0001 48.0001C24.1015 48.0001 24.2028 47.9799 24.3042 47.9393C24.3448 47.919 28.8448 46.1555 33.2637 43.7433C39.5273 40.3177 42.5678 37.3582 42.5678 34.6825V6.89193C42.5678 6.42569 42.1826 6.04056 41.7164 6.04056C35.1083 6.04056 30.8313 4.4798 28.3988 3.18247C25.8041 1.78375 24.7094 0.385122 24.6893 0.344562C24.5271 0.121581 24.2636 0 24 0C23.7365 0 23.4731 0.121581 23.3108 0.344562C23.2703 0.405402 18.973 6.04047 6.28376 6.04047C5.81762 6.04056 5.4325 6.42569 5.4325 6.89193ZM7.1554 7.74329C17.3918 7.54059 22.3379 3.79057 24.0202 2.12841C25.7027 3.79057 30.6486 7.54059 40.885 7.74329V34.6825C40.885 35.7771 39.7904 38.2298 32.4932 42.2231C28.8243 44.2298 25.1148 45.7704 24.0405 46.2164C22.9662 45.7704 19.2364 44.2299 15.5878 42.2231C8.27021 38.2298 7.19596 35.7771 7.19596 34.6825V7.74329H7.1554Z" fill="#9D9D9D"/>
<path d="M17.1081 40.9459C19.6216 42.2838 22.0743 43.3783 23.6959 44.0675C23.7973 44.1081 23.9189 44.1284 24.0405 44.1284C24.162 44.1284 24.2634 44.1081 24.385 44.0675C26.0066 43.3783 28.4593 42.2838 30.9728 40.9459C37.358 37.5405 38.7161 35.4729 38.9593 34.9256C39.0201 34.804 39.0404 34.6824 39.0404 34.5608V10.3378C39.0404 9.89183 38.6959 9.52699 38.2499 9.48643C31.2972 8.91888 26.9594 6.72964 24.5472 4.98645C24.2431 4.76347 23.8377 4.76347 23.5337 4.98645C21.1215 6.72973 16.7837 8.91888 9.83093 9.48643C9.38497 9.52699 9.04041 9.89183 9.04041 10.3378V34.5608C9.04041 34.6824 9.06068 34.804 9.12152 34.9256C9.36488 35.4729 10.7229 37.5404 17.1081 40.9459ZM10.7432 11.1283C17.1892 10.4796 21.4459 8.45264 24.0203 6.72964C26.5946 8.47292 30.8514 10.4796 37.2973 11.1283V34.3378C36.973 34.8243 35.5339 36.5675 30.1217 39.4459C27.8311 40.6621 25.5811 41.6756 24.0001 42.3648C22.419 41.6959 20.1691 40.6621 17.8785 39.4459C12.4866 36.5675 11.0271 34.8242 10.7029 34.3378V11.1283H10.7432Z" fill="#9D9D9D"/>
</g>
<defs>
<clipPath id="clip0_14_140">
<rect width="48" height="48" fill="white"/>
</clipPath>
</defs>
</svg>
