<svg width="48" height="48" viewBox="0 0 48 48" fill="none" xmlns="http://www.w3.org/2000/svg">
<g clip-path="url(#clip0_14_120)">
<path d="M47.475 36.1031H40.8562V15.4219H37.7812V0.88125H31.9594H27.5625H21.7406V15.4125H18.6656V36.1031H13.5469V0H0.524994V4.59375H8.95312V44.2875H12.7969H13.5469H16.4062C16.7625 46.3969 18.6 48.0094 20.8125 48.0094C23.025 48.0094 24.8625 46.3969 25.2187 44.2875H34.3031C34.6594 46.3969 36.4969 48.0094 38.7094 48.0094C40.9219 48.0094 42.7594 46.3969 43.1156 44.2875H47.475V36.1031ZM12.0469 42.7781H10.4531V3.09375H2.02499V1.5H12.0469V42.7781ZM30.4594 2.38125V3.77812H29.0625V2.38125H30.4594ZM23.2406 2.38125H27.5625V5.27812H31.9594V2.38125H36.2812V15.4125H32.5781H26.9625H23.2594V2.38125H23.2406ZM28.4531 16.9219H31.0687V19.5375H28.4531V16.9219ZM20.1656 16.9219H26.9531V21.0375H32.5687V16.9219H39.3562V36.1125H20.1656V16.9219ZM20.8125 46.5C19.1719 46.5 17.8406 45.1687 17.8406 43.5281C17.8406 41.8875 19.1719 40.5563 20.8125 40.5563C22.4531 40.5563 23.7844 41.8875 23.7844 43.5281C23.7844 45.1687 22.4531 46.5 20.8125 46.5ZM38.7094 46.5C37.0687 46.5 35.7375 45.1687 35.7375 43.5281C35.7375 41.8875 37.0687 40.5563 38.7094 40.5563C40.35 40.5563 41.6812 41.8875 41.6812 43.5281C41.6812 45.1687 40.3406 46.5 38.7094 46.5ZM45.975 42.7781H43.1156C42.7594 40.6687 40.9219 39.0563 38.7094 39.0563C36.4969 39.0563 34.6594 40.6687 34.3031 42.7781H25.2187C24.8625 40.6687 23.025 39.0563 20.8125 39.0563C18.6 39.0563 16.7625 40.6687 16.4062 42.7781H13.5469V37.6031H18.6656H40.8562H45.975V42.7781ZM20.8125 41.3531C19.6125 41.3531 18.6375 42.3281 18.6375 43.5281C18.6375 44.7281 19.6125 45.7031 20.8125 45.7031C22.0125 45.7031 22.9875 44.7281 22.9875 43.5281C22.9875 42.3281 22.0125 41.3531 20.8125 41.3531ZM20.8125 44.2125C20.4375 44.2125 20.1375 43.9125 20.1375 43.5375C20.1375 43.1625 20.4375 42.8625 20.8125 42.8625C21.1875 42.8625 21.4875 43.1625 21.4875 43.5375C21.4875 43.9125 21.1875 44.2125 20.8125 44.2125ZM38.7094 41.3531C37.5094 41.3531 36.5344 42.3281 36.5344 43.5281C36.5344 44.7281 37.5094 45.7031 38.7094 45.7031C39.9094 45.7031 40.8844 44.7281 40.8844 43.5281C40.8844 42.3281 39.9094 41.3531 38.7094 41.3531ZM38.7094 44.2125C38.3344 44.2125 38.0344 43.9125 38.0344 43.5375C38.0344 43.1625 38.3344 42.8625 38.7094 42.8625C39.0844 42.8625 39.3844 43.1625 39.3844 43.5375C39.3844 43.9125 39.0844 44.2125 38.7094 44.2125ZM31.7156 29.5312H37.0969V31.0312H31.7156V29.5312ZM31.7156 32.4563H37.0969V33.9563H31.7156V32.4563ZM34.9125 12.3H31.1344V10.8H34.9125V12.3ZM34.9125 14.3531H31.1344V12.8531H34.9125V14.3531Z" fill="#9D9D9D"/>
</g>
<defs>
<clipPath id="clip0_14_120">
<rect width="48" height="48" fill="white"/>
</clipPath>
</defs>
</svg>
