<svg width="48" height="48" viewBox="0 0 48 48" fill="none" xmlns="http://www.w3.org/2000/svg">
<g clip-path="url(#clip0_14_136)">
<path d="M46.141 33.1198C46.155 33.0912 46.1675 33.0619 46.1775 33.0319C49.0214 26.4681 48.5132 18.4213 44.8195 12.2709C46.7914 9.91358 44.23 6.53778 41.429 7.84395C40.9368 7.34093 40.42 6.85884 39.8844 6.403C40.9356 3.54532 37.4272 1.20105 35.2422 3.33616C28.8914 0.12928 20.9924 0.169893 14.6767 3.44468C12.43 1.06374 8.65676 3.6166 10.017 6.60391C9.238 7.28513 8.50059 8.02103 7.82069 8.79923C7.23364 9.47116 8.29716 10.3921 8.88017 9.72487C9.51272 9.00098 10.1981 8.31619 10.922 7.68159C12.3218 8.69127 14.3516 8.17691 15.1196 6.6357C17.654 7.36523 20.0742 8.41224 22.3294 9.75601C22.1406 10.4369 22.2177 11.1972 22.5417 11.8257C20.6855 13.4291 19.014 15.2429 17.5624 17.2307C16.2224 16.8258 14.7453 17.5035 14.1626 18.7725C11.2075 18.7884 8.24313 19.1062 5.33273 19.7214C5.07574 19.2425 4.68612 18.8457 4.21378 18.5799C4.7606 16.4475 5.62668 14.419 6.79328 12.5434C7.25812 11.7959 6.08477 11.0188 5.59864 11.8003C4.35832 13.7944 3.43708 15.9508 2.85444 18.2176C-0.515546 18.2748 -1.08131 22.9368 2.12689 23.8337C2.07961 30.4688 4.94837 36.9197 9.92297 41.3141C8.88524 44.1173 12.2542 46.4295 14.4775 44.4523C20.9659 47.9025 29.1661 47.903 35.6549 44.4534C37.9162 46.6898 41.5379 44.1914 40.2642 41.2678C42.828 38.9892 44.8197 36.2024 46.141 33.1198ZM45.2546 31.5465C43.3074 29.6119 41.1764 27.8569 38.9013 26.3164C39.2244 25.3043 38.9436 24.1655 38.189 23.4184C40.1022 20.2374 41.6041 16.8265 42.6613 13.2634C43.0136 13.2646 43.3523 13.1996 43.6644 13.082C46.9039 18.5532 47.4964 25.6074 45.2546 31.5465ZM12.8842 39.4986C12.2922 33.6999 13.331 27.9148 15.9022 22.6869C17.4995 23.1853 19.2259 22.1349 19.5361 20.4953C24.3866 21.0932 29.0582 22.5173 33.4422 24.735C33.2314 25.5546 33.4059 26.4583 33.9082 27.1401C28.9665 33.4007 22.4435 38.1116 14.9779 40.8116C14.5256 40.0953 13.7648 39.5942 12.8842 39.4986ZM34.7593 25.4479C34.7593 24.6507 35.4031 24.0022 36.1944 24.0022C38.0982 24.0815 38.0977 26.8145 36.1944 26.8935C35.4031 26.8935 34.7593 26.245 34.7593 25.4479ZM44.1027 10.411C44.1027 11.2081 43.4589 11.8566 42.6675 11.8566C40.7636 11.7773 40.7641 9.04431 42.6675 8.96534C43.4589 8.96534 44.1027 9.61382 44.1027 10.411ZM40.354 8.75721C39.3818 10.1233 39.833 12.0981 41.2988 12.9101C40.2747 16.347 38.8228 19.6371 36.9757 22.7059C36.5896 22.5949 36.1609 22.5673 35.7639 22.6281C33.8333 18.5054 31.0241 14.792 27.5924 11.8259C27.9166 11.197 27.9939 10.438 27.8048 9.7562C29.977 8.46204 32.3037 7.44214 34.7368 6.71712C35.5454 8.2784 37.7148 8.71922 39.0616 7.55047C39.5079 7.93446 39.94 8.33786 40.354 8.75721ZM23.6319 10.5199C23.6319 9.72272 24.2757 9.07423 25.0671 9.07423C26.971 9.15349 26.9704 11.8864 25.0671 11.9654C24.2757 11.9654 23.6319 11.3169 23.6319 10.5199ZM37.2383 3.9188C38.0297 3.9188 38.6735 4.56729 38.6735 5.36443C38.5946 7.28222 35.8819 7.28175 35.8032 5.36443C35.8032 4.56729 36.447 3.9188 37.2383 3.9188ZM12.5764 6.80997C11.785 6.80997 11.1412 6.16149 11.1412 5.36434C11.2202 3.44646 13.9329 3.44712 14.0116 5.36434C14.0116 6.16149 13.3677 6.80997 12.5764 6.80997ZM15.4158 5.25648C15.4085 5.0612 15.3816 4.87108 15.337 4.68762C21.2256 1.64244 28.5821 1.58936 34.5161 4.546C34.4398 4.80102 34.3981 5.07067 34.3967 5.3499C31.8374 6.10699 29.3903 7.17642 27.1057 8.5352C26.0075 7.39927 24.1271 7.3989 23.0286 8.53511C20.6478 7.11902 18.0922 6.01826 15.4158 5.25648ZM23.4731 12.8802C24.4243 13.5294 25.7096 13.5295 26.6609 12.8803C29.9373 15.7092 32.6213 19.2503 34.47 23.1826C34.3447 23.2789 34.2277 23.3855 34.12 23.501C29.498 21.1567 24.5656 19.6661 19.4422 19.0664C19.3039 18.6477 19.0716 18.2718 18.7702 17.964C20.1452 16.0961 21.7232 14.3901 23.4731 12.8802ZM16.7445 18.5167C17.5359 18.5167 18.1797 19.1651 18.1797 19.9623C18.1007 21.8802 15.388 21.8796 15.3093 19.9623C15.3094 19.1651 15.9532 18.5167 16.7445 18.5167ZM1.39361 21.0695C1.39361 20.2724 2.03741 19.6239 2.82874 19.6239C4.73255 19.7031 4.73199 22.4361 2.82874 22.5151C2.0375 22.5151 1.39361 21.8667 1.39361 21.0695ZM3.53369 23.8331C3.53369 23.8331 5.67039 23.3672 5.67039 21.0881C5.67039 21.0881 11.1532 20.2117 13.9117 20.1809C13.9635 20.8624 14.2545 21.4774 14.7009 21.9415C11.9595 27.4566 10.8538 33.5712 11.4902 39.6985C11.2162 39.8127 10.9639 39.9689 10.7408 40.1587C6.15145 36.0474 3.53369 29.1589 3.53369 23.8331ZM12.5764 43.7796C11.785 43.7796 11.1412 43.1311 11.1412 42.334C11.1412 41.5368 11.785 40.8884 12.5764 40.8884C13.3571 40.8884 14.0116 41.5646 14.0116 42.334C14.0116 43.1311 13.3677 43.7796 12.5764 43.7796ZM25.0671 45.644C21.6529 45.644 18.2767 44.8263 15.2592 43.2739C15.3817 42.9228 15.4357 42.5229 15.4119 42.1503C23.1347 39.3667 29.8832 34.5019 34.9954 28.0333C35.4155 28.2302 35.8815 28.3207 36.3446 28.2964C36.6571 29.4563 36.904 30.6397 37.0791 31.823C37.2131 32.7288 38.6053 32.5264 38.4709 31.6172C38.285 30.3608 38.022 29.1041 37.688 27.8734C37.8561 27.7687 38.0124 27.6467 38.1548 27.5102C40.5022 29.1038 42.6908 30.9333 44.6735 32.958C43.4439 35.6762 41.6542 38.1374 39.3804 40.1711C39.1555 40.0023 38.9048 39.8665 38.6357 39.7699C38.774 38.4621 38.8342 37.1417 38.8139 35.8357C38.7997 34.9167 37.3929 34.9383 37.4072 35.8575C37.4268 37.1128 37.3686 38.3821 37.235 39.6392C35.5759 39.9031 34.4908 41.6234 34.948 43.2357C31.9115 44.8128 28.5092 45.644 25.0671 45.644ZM37.6813 43.9019C36.89 43.9019 36.2462 43.2534 36.2462 42.4563C36.3252 40.5384 39.0378 40.5391 39.1165 42.4563C39.1165 43.2534 38.4727 43.9019 37.6813 43.9019Z" fill="#9D9D9D"/>
</g>
<defs>
<clipPath id="clip0_14_136">
<rect width="48" height="48" fill="white"/>
</clipPath>
</defs>
</svg>
