<svg width="48" height="48" viewBox="0 0 48 48" fill="none" xmlns="http://www.w3.org/2000/svg">
<path d="M39.6173 11.1077C40.4901 7.73068 40.1071 5.10511 38.501 3.49899C37.3187 2.31671 35.602 1.79752 33.3981 1.95465C31.4474 2.09415 29.2026 2.76024 26.7242 3.93193C25.8212 3.81097 24.9111 3.75018 24 3.74996C18.6294 3.74996 13.4787 5.88343 9.68109 9.68105C5.88348 13.4787 3.75 18.6293 3.75 24C3.75022 24.9111 3.81101 25.8211 3.93197 26.7242C2.76009 29.2025 2.09447 31.4474 1.95469 33.398C1.79719 35.6017 2.31675 37.3187 3.49903 38.5009C4.54463 39.5465 6.02213 40.074 7.85841 40.074C8.95631 40.0583 10.0479 39.9046 11.1075 39.6167C14.9922 42.8236 19.9326 44.4676 24.9643 44.2276C29.9959 43.9877 34.7575 41.8812 38.3195 38.3193C41.8815 34.7574 43.9881 29.9959 44.2281 24.9642C44.4681 19.9326 42.8243 14.9921 39.6175 11.1074L39.6173 11.1077ZM33.5048 3.4509C35.255 3.32593 36.5791 3.69877 37.44 4.55968C38.2088 5.32843 38.9347 6.8378 38.3861 9.75024C38.3635 9.72727 38.3414 9.70393 38.3186 9.68105C35.8304 7.18124 32.7292 5.37896 29.3254 4.45468C30.857 3.88121 32.2757 3.53874 33.505 3.4509H33.5048ZM20.8391 5.5178L20.2678 8.08721C20.2276 8.26835 20.2559 8.45797 20.3473 8.61944C20.4387 8.78091 20.5868 8.90276 20.7628 8.96143L24.907 10.3429L25.5385 12.2367C25.5913 12.3949 25.6952 12.531 25.8339 12.6235L27.6443 13.8303L27.0894 16.05L22.4853 19.3386L20.6834 18.1373L17.7 15.9C17.5556 15.7916 17.3769 15.739 17.1968 15.7518C17.0167 15.7646 16.8473 15.842 16.7197 15.9696L14.4697 18.2196C14.4 18.2893 14.3448 18.3719 14.3071 18.4629C14.2694 18.5539 14.25 18.6515 14.25 18.75V22.1893L13.0781 23.3612L9.4711 24.804C9.33024 24.8603 9.20978 24.958 9.12563 25.0843L7.62563 27.3343C7.54364 27.4574 7.49993 27.602 7.5 27.75V31.125L6.8625 31.6031C5.79677 29.2102 5.24733 26.6195 5.25 24C5.25 14.7384 12 7.02483 20.839 5.5178H20.8391ZM4.55972 37.4402C3.69881 36.5794 3.32578 35.2554 3.45094 33.505C3.53878 32.2757 3.88125 30.8569 4.45472 29.3256C5.37901 32.7294 7.18128 35.8307 9.6811 38.3189C9.70397 38.3417 9.72741 38.3638 9.75038 38.3865C6.83775 38.9348 5.32856 38.209 4.55972 37.4402ZM14.0531 35.477L12.9014 33.75L14.0827 31.9781L15.4441 30.6167L17.9459 29.3657L19.8338 30.6242C19.957 30.7064 20.1019 30.7501 20.25 30.75H21.4394L22.4421 31.7531C20.0263 33.6616 17.5898 35.2406 15.2813 36.399L14.0531 35.477ZM23.5089 32.8192L24.22 33.5303C24.3117 33.6219 24.4255 33.6881 24.5503 33.7226C24.6752 33.7571 24.8069 33.7587 24.9325 33.7272L27.2588 33.1459L27.7094 34.5L27.157 36.157L25.2633 36.7885C25.1139 36.8382 24.9839 36.9337 24.8918 37.0614C24.7996 37.1891 24.75 37.3425 24.75 37.5V39.3486L22.8339 40.626C22.6788 40.7294 22.5677 40.887 22.5224 41.0679L22.125 42.6562C21.1772 42.5619 20.2379 42.3951 19.3156 42.1573L18.7426 38.1437C18.717 37.965 18.6278 37.8015 18.4914 37.6832C18.355 37.565 18.1805 37.4999 18 37.5H16.75L16.6123 37.3968C18.8588 36.2062 21.1981 34.6552 23.5086 32.8192H23.5089ZM16.05 38.85C16.1798 38.9473 16.3377 39 16.5 39H17.3495L17.7308 41.6707C15.9888 41.0502 14.3483 40.1751 12.8628 39.0738C13.594 38.8121 14.3433 38.5025 15.1106 38.1451L16.05 38.85ZM23.6489 42.7455L23.9072 41.7132L25.9161 40.374C26.0188 40.3055 26.103 40.2127 26.1613 40.1038C26.2195 39.995 26.25 39.8734 26.25 39.75V38.0405L27.9872 37.4614C28.0976 37.4246 28.198 37.3626 28.2803 37.2803C28.3626 37.1979 28.4247 37.0976 28.4615 36.9872L29.2115 34.7372C29.2629 34.5832 29.2629 34.4167 29.2115 34.2628L28.4615 32.0128C28.4017 31.8335 28.2765 31.6835 28.1109 31.5925C27.9453 31.5016 27.7514 31.4766 27.5681 31.5224L24.9801 32.1692L24.6759 31.865C25.3759 31.2767 26.0704 30.6642 26.7596 30.0275L25.7404 28.9269C25.0373 29.578 24.3277 30.2027 23.6114 30.8011L22.2802 29.4698C22.1396 29.3291 21.9489 29.2501 21.75 29.25H20.4771L18.4161 27.876C18.3061 27.8026 18.1786 27.7596 18.0466 27.7514C17.9147 27.7432 17.7828 27.77 17.6646 27.8291L14.6646 29.3291C14.5924 29.3652 14.5266 29.4126 14.4697 29.4697L12.9697 30.9697C12.9347 31.0047 12.9033 31.0429 12.8759 31.084L11.3759 33.334C11.2938 33.4572 11.2499 33.602 11.2499 33.7501C11.2499 33.8981 11.2938 34.0429 11.3759 34.1661L12.8759 36.4161C12.9231 36.4868 12.982 36.549 13.05 36.6L13.74 37.1175C13.0049 37.4359 12.2531 37.7145 11.4879 37.9518C9.89953 36.5267 8.56434 34.8425 7.53919 32.9708L8.7 32.1C8.79315 32.0301 8.86875 31.9395 8.92082 31.8354C8.97289 31.7312 9 31.6164 9 31.5V27.977L10.2448 26.1098L13.7785 24.6963C13.8728 24.6586 13.9585 24.6021 14.0303 24.5303L15.5303 23.0303C15.6 22.9607 15.6552 22.878 15.6929 22.787C15.7306 22.696 15.75 22.5985 15.75 22.5V19.0606L17.3203 17.4902L19.8 19.35C19.8111 19.3583 19.8224 19.3663 19.8339 19.374L22.0839 20.874C22.2106 20.9584 22.3599 21.0023 22.5121 20.9999C22.6643 20.9974 22.8121 20.9487 22.9359 20.8603L28.1859 17.1103C28.331 17.0067 28.4344 16.8548 28.4776 16.6818L29.2276 13.6818C29.2652 13.5317 29.2554 13.3737 29.1997 13.2293C29.1439 13.085 29.0448 12.9614 28.9161 12.8756L26.8802 11.5183L26.2115 9.51202C26.1747 9.40158 26.1126 9.30123 26.0303 9.21891C25.948 9.13659 25.8476 9.07456 25.7372 9.03774L21.8789 7.75233L22.4202 5.31718C22.9413 5.27349 23.4679 5.24996 24 5.24996C26.6336 5.24907 29.2377 5.80425 31.6419 6.87917C34.0461 7.95408 36.1963 9.52451 37.9517 11.4877C37.3746 13.3741 36.4205 15.4326 35.1111 17.614L36.3971 18.3859C37.5579 16.4519 38.4542 14.6007 39.0743 12.8631C40.8797 15.2957 42.0655 18.1313 42.5294 21.1249L40.1076 22.6107C39.9402 22.7134 39.8198 22.8776 39.7721 23.0681L38.3719 28.6687L34.2628 30.0385C34.1135 30.0883 33.9836 30.1838 33.8916 30.3115C33.7996 30.4392 33.75 30.5926 33.75 30.75V34.9393L32.4697 36.2196C32.3533 36.336 32.2785 36.4873 32.2566 36.6504C32.2348 36.8135 32.2672 36.9792 32.3488 37.1221L33.9332 39.8953C30.9575 41.7642 27.514 42.7538 24 42.75C23.8826 42.75 23.7656 42.7476 23.6489 42.7455ZM35.1758 39.0461L33.9355 36.8752L35.0304 35.7803C35.1 35.7107 35.1552 35.628 35.1929 35.537C35.2306 35.446 35.25 35.3485 35.25 35.25V31.2905L39.2372 29.9614C39.3569 29.9215 39.4646 29.8521 39.5503 29.7595C39.636 29.6669 39.697 29.5542 39.7276 29.4318L41.1534 23.729L42.709 22.7747C42.7352 23.1799 42.75 23.5882 42.75 24C42.7498 26.9251 42.0646 29.8096 40.7494 32.4223C39.4341 35.0351 37.5253 37.3036 35.1758 39.0461Z" fill="#9D9D9D"/>
<path d="M37.5 27V21C37.5 20.837 37.4469 20.6785 37.3488 20.5484C37.2507 20.4183 37.1129 20.3236 36.9563 20.2788L31.7063 18.7788C31.5715 18.7402 31.4285 18.7402 31.2937 18.7788L26.0437 20.2788C25.8871 20.3236 25.7493 20.4183 25.6512 20.5484C25.5531 20.6785 25.5 20.837 25.5 21V27C25.5 27.1629 25.5531 27.3214 25.6512 27.4515C25.7493 27.5817 25.8871 27.6763 26.0437 27.7211L31.2937 29.2211C31.4285 29.2596 31.5715 29.2596 31.7063 29.2211L36.9563 27.7211C37.1129 27.6763 37.2507 27.5817 37.3488 27.4515C37.4469 27.3214 37.5 27.1629 37.5 27ZM31.5 20.28L34.0199 21L31.5 21.72L28.9801 21L31.5 20.28ZM27 21.9943L30.75 23.0657V27.5056L27 26.4343V21.9943ZM32.25 27.5056V23.0657L36 21.9943V26.4343L32.25 27.5056Z" fill="#9D9D9D"/>
<path d="M23.25 14.25H24.75V15.75H23.25V14.25Z" fill="#9D9D9D"/>
<path d="M13.5 11.25H15V12.75H13.5V11.25Z" fill="#9D9D9D"/>
<path d="M9.75 20.25H11.25V21.75H9.75V20.25Z" fill="#9D9D9D"/>
<path d="M16.5 31.5H18V33H16.5V31.5Z" fill="#9D9D9D"/>
<path d="M21 36.75H22.5V38.25H21V36.75Z" fill="#9D9D9D"/>
<path d="M36.75 32.25H38.25V33.75H36.75V32.25Z" fill="#9D9D9D"/>
</svg>
