<svg width="174" height="93" viewBox="0 0 174 93" fill="none" xmlns="http://www.w3.org/2000/svg">
<g clip-path="url(#clip0_17_248)">
<path fill-rule="evenodd" clip-rule="evenodd" d="M87.0691 0.130371H91.57L95.8833 0.317861C199.79 8.42669 199.787 84.2653 95.8833 92.3742L91.57 92.5617H82.5683C56.4446 92.2179 10.5422 81.8874 1.17792 53.3768L0.61531 51.1269L0.240241 48.6896C-1.60698 17.8261 45.5269 2.8958 69.6283 1.0678L78.255 0.317861L82.5683 0.130371H87.0691ZM87.0691 4.0676H91.1949L95.3207 4.25509C193.095 11.5327 193.095 81.3062 95.3207 88.4369L91.1949 88.6244H82.9434C58.9013 88.5338 15.1243 79.0594 6.24137 52.8143L5.67877 50.752L5.49123 48.5021C3.42522 20.0009 48.715 6.71743 70.566 4.81756L74.6918 4.44258L78.8176 4.25509L82.9434 4.0676H87.0691ZM87.0691 9.31725L91.0074 9.50474H94.9456C186.047 16.2355 186.075 76.5846 94.9456 83.1873L91.0074 83.3748H83.1309C62.08 83.2154 19.7314 75.2253 11.6799 52.0644L11.1173 50.1895L10.9298 48.3146C9.03253 22.582 52.6189 11.6671 71.6912 10.0672L75.4419 9.87972L79.1926 9.50474H83.1309L87.0691 9.31725ZM87.0691 7.62987H91.0074L94.9456 7.81736C188.057 14.4107 188.06 78.372 94.9456 84.8747L91.0074 85.0622H83.1309C61.3049 85.0965 18.1186 76.3596 10.1796 52.2519L9.61701 50.377L9.24194 48.3146C8.1136 21.4321 50.8748 10.1453 71.3162 8.37982L75.2544 8.00484L79.1926 7.81736L83.1309 7.62987H87.0691ZM24.6198 62.0012V30.8783H33.8091L45.4363 49.2521V30.8783H53.8754V62.0012H44.8737L33.0589 43.2525V62.0012H24.6198ZM59.689 62.0012V30.8783H68.5031V54.5017H77.8799V62.0012H59.689ZM79.1926 62.0012L83.881 30.8783H92.6952L98.1337 49.8145L103.76 30.8783H112.574L117.262 62.0012H108.636L106.385 44.0024L100.947 62.0012H95.3207L90.0697 44.0024L87.6317 62.0012H79.1926ZM120.638 62.0012V30.8783H129.452V44.0024L139.016 30.8783H149.331L137.329 45.8773L149.706 62.0012H138.641L129.452 48.6896V62.0012" fill="#9D9D9D"/>
</g>
<defs>
<clipPath id="clip0_17_248">
<rect width="174" height="92.6916" fill="white"/>
</clipPath>
</defs>
</svg>
