<svg width="117" height="105" viewBox="0 0 117 105" fill="none" xmlns="http://www.w3.org/2000/svg">
<path d="M56.1976 19.0034C53.3803 22.4172 50.6291 26.3099 48.8186 30.0417H51.4569C52.3076 28.3007 54.9002 24.8177 56.1976 23.3004V19.0034Z" fill="#9D9D9D"/>
<path d="M56.1976 26.4224C55.706 27.0781 54.072 29.4091 53.7592 30.0421H56.1538C56.1976 29.9744 56.1976 26.4224 56.1976 26.4224Z" fill="#9D9D9D"/>
<path d="M56.1976 12.8037H39.449V30.042H46.9174C49.3974 25.2917 52.7546 20.9707 56.1976 17.2162V12.8037Z" fill="#9D9D9D"/>
<path d="M42.088 48.6811H43.5841C44.8808 43.5928 47.4322 36.8991 50.4496 31.7153H47.946C44.9703 37.1453 43.295 42.9608 42.088 48.6811Z" fill="#9D9D9D"/>
<path d="M45.6428 48.6811H47.3648C49.1975 43.1631 51.5008 37.0773 55.2816 31.7153H52.7547C49.3327 37.1928 47.2744 43.2548 45.6428 48.6811Z" fill="#9D9D9D"/>
<path d="M39.4492 48.6811H39.6961C40.3208 44.8148 42.8925 37.1928 45.9991 31.7153H39.4492V48.6811Z" fill="#9D9D9D"/>
<path d="M49.1747 48.6813H51.7038C53.1107 45.7433 54.4081 42.6875 56.1973 39.7265V34.0918C52.978 38.7768 50.9182 44.3175 49.1747 48.6813Z" fill="#9D9D9D"/>
<path d="M53.67 48.6812H56.1534L56.1982 43.9795C54.9677 45.7885 54.3173 47.5077 53.67 48.6812Z" fill="#9D9D9D"/>
<path d="M68.8326 11.0178L68.1846 10.7916C67.0426 11.6758 65.7012 12.7598 65.7012 12.7598H63.6429C65.8132 10.1811 70.6643 6.51582 73.2829 4.66207L72.7219 4.43457C67.8026 7.73807 62.5251 11.4033 57.8517 17.1021V21.2648C60.9606 17.4868 64.8276 14.1843 68.8326 11.0178Z" fill="#9D9D9D"/>
<path d="M75.7857 11.1531L75.0505 10.9744C74.1316 11.4479 73.2143 12.1026 72.4106 12.7596H70.5087C71.2239 11.8776 74.6022 9.75111 74.6022 9.75111L73.84 9.41211C67.4218 13.6639 62.392 18.3704 57.8525 24.1836V27.9596C62.8178 21.2656 68.0478 16.2199 75.7857 11.1531Z" fill="#9D9D9D"/>
<path d="M62.9273 10.994L62.2346 10.6777C62.2346 10.6777 60.5581 12.0127 59.6843 12.8032H57.8525V15.5187C59.0373 14.1835 60.6701 12.7137 62.9273 10.994Z" fill="#9D9D9D"/>
<path d="M76.6578 18.5056L76.1658 17.8499C75.719 18.1891 75.0038 18.7091 74.5565 19.0481V16.1066C75.2272 15.5414 76.7493 14.4099 77.9338 13.6194L77.1504 13.2339C70.3079 17.6904 63.2427 23.9334 59.0811 30.0426H63.3757C67.6023 25.0196 72.0311 21.6259 76.6578 18.5056Z" fill="#9D9D9D"/>
<path d="M77.5749 23.2104C76.6811 23.7541 75.4281 24.8169 74.6212 25.4046L74.6012 24.0931C74.6012 24.0931 77.1279 22.1939 78.6714 21.2194L78.3106 20.6089C74.3978 23.1209 70.5525 26.3781 66.6632 30.0419H70.7324C73.2131 27.7346 75.1812 25.6546 77.7548 23.8669L77.5749 23.2104Z" fill="#9D9D9D"/>
<path d="M77.06 27.5765L76.5025 27.0112C75.4932 27.9857 74.3097 29.1387 73.3276 30.042H74.7133C75.2283 29.3185 76.2554 28.233 77.06 27.5765Z" fill="#9D9D9D"/>
<path d="M57.8302 31.7163L57.8527 37.1451C58.9937 35.4968 60.1994 33.7071 62.0099 31.7163H57.8302Z" fill="#9D9D9D"/>
<path d="M57.8524 41.194V48.5923C60.446 43.0505 64.6042 36.3758 69.2569 31.7168H65.2089C62.5481 34.498 59.5744 38.5498 57.8524 41.194Z" fill="#9D9D9D"/>
<path d="M71.8503 31.7161C67.0438 37.1923 62.9724 42.6878 60.4893 48.6818H74.6015V31.7161C74.6228 31.6496 71.8503 31.7161 71.8503 31.7161Z" fill="#9D9D9D"/>
<path d="M12.7337 88.1601V75.1991C17.9693 75.4811 20.7028 73.7724 20.6549 68.2664V60.9576C20.7935 56.4501 18.3845 54.3599 12.964 54.3599H7.8252V88.1601H12.7337ZM12.7337 58.3924C14.6833 58.2486 15.7442 58.4864 15.7442 61.6206V69.6459C15.6055 71.2131 14.1682 71.1654 12.7337 71.1654V58.3924Z" fill="#9D9D9D"/>
<path d="M25.8213 54.3604C25.8213 54.3604 28.0907 65.1864 28.5083 68.7451H28.5978C28.7387 66.0839 31.1956 54.3604 31.1956 54.3604H35.7818L27.8124 88.1606H23.1345L26.0543 75.5341L20.7722 54.3604H25.8213Z" fill="#9D9D9D"/>
<path d="M44.1278 66.8429V59.9614C44.1278 58.249 43.6207 57.8729 42.6463 57.8729C41.6257 57.8729 41.12 58.249 41.12 59.9614V82.8367C41.12 84.5524 41.6257 84.9289 42.6463 84.9289C43.6207 84.9289 44.1278 84.5524 44.1278 82.8367V75.5342H49.0348V83.272C49.0348 87.6855 45.6581 88.9689 42.5999 88.9689C39.5921 88.9689 36.2091 87.6855 36.2091 83.272V59.5342C36.2091 55.116 39.5921 53.8354 42.5999 53.8354C45.6581 53.8354 49.0348 55.116 49.0348 59.5342V66.8429H44.1278Z" fill="#9D9D9D"/>
<path d="M50.4734 88.1601H54.9215L55.9858 78.9939H59.4585L60.3823 88.1601H65.3419L61.5929 54.3599H54.2238L50.4734 88.1601ZM56.448 74.5804L57.6564 60.5289H57.9809L58.9964 74.5804H56.448Z" fill="#9D9D9D"/>
<path d="M67.4749 88.1592V54.3584H78.4026V58.7736H72.3818V88.1592H67.4749Z" fill="#9D9D9D"/>
<path d="M85.1633 88.1601V75.1991C90.3988 75.4811 93.1325 73.7724 93.0833 68.2664V60.9576C93.2215 56.4501 90.8191 54.3599 85.3961 54.3599H80.2563V88.1601H85.1633ZM85.1633 58.3924C87.1117 58.2486 88.1763 58.4864 88.1763 61.6206V69.6459C88.0325 71.2131 86.6019 71.1654 85.1633 71.1654V58.3924Z" fill="#9D9D9D"/>
<path d="M94.8987 83.1291C94.8987 87.5394 98.2831 88.8216 101.289 88.8216C104.349 88.8216 107.729 87.5394 107.729 83.1291V59.3881C107.729 54.9716 104.349 53.6929 101.289 53.6929C98.2831 53.6929 94.8987 54.9716 94.8987 59.3881V83.1291ZM99.8069 59.8139C99.8069 58.1109 100.319 57.7281 101.34 57.7281C102.312 57.7281 102.818 58.1109 102.818 59.8139V82.6989C102.818 84.4064 102.312 84.7874 101.34 84.7874C100.319 84.7874 99.8069 84.4064 99.8069 82.6989V59.8139Z" fill="#9D9D9D"/>
<path d="M8.35657 93.7976V98.6036H9.15603V94.4699H11.4459V93.7976H8.35657ZM16.1999 94.3881C17.3496 94.3881 17.4304 95.6236 17.4304 96.4141C17.4304 97.6951 16.6759 98.0404 16.173 98.0404C15.3019 98.0404 14.8978 97.2319 14.8978 96.1869C14.8978 95.5601 14.9606 94.3881 16.1999 94.3881ZM14.0984 100.502H14.8978V98.0404C15.1222 98.4311 15.5443 98.7399 16.1819 98.7399C17.7986 98.7399 18.2476 97.2044 18.2476 96.0599C18.2476 94.6969 17.5381 93.6611 16.2807 93.6611C15.4546 93.6611 15.1042 94.0884 14.8437 94.4789V93.7976H14.0984V100.502ZM20.6485 93.7976L22.4088 98.7309C22.0225 99.7211 21.9687 99.8391 21.5646 99.8391C21.3489 99.8391 21.1783 99.7939 21.0795 99.7574V100.493C21.2053 100.53 21.3041 100.566 21.4208 100.566C22.3369 100.566 22.5435 100.303 22.8937 99.4759C23.5493 97.9314 24.4293 95.3694 24.9861 93.7976H24.1061L22.8398 97.7134H22.8217L21.5555 93.7976H20.6485ZM27.6474 93.7976V98.6036H28.4469V94.4699H30.6651V98.6036H31.4643V93.7976H27.6474ZM34.6105 93.7976V98.6036H35.41V94.4699H37.6282V98.6036H38.4274V93.7976H34.6105ZM42.2831 95.2604C42.3281 94.8969 42.4539 94.3336 43.3609 94.3336C44.1153 94.3336 44.4655 94.5789 44.4655 95.1059C44.4655 95.6054 44.3758 95.7054 43.1273 95.8054C41.457 95.9326 41.3131 96.7774 41.3131 97.3499C41.3131 98.1856 41.9238 98.7399 42.7952 98.7399C43.7202 98.7399 44.1961 98.2946 44.5105 97.9586C44.5463 98.3219 44.6452 98.6944 45.3547 98.6944C45.5343 98.6944 45.651 98.6399 45.7857 98.6036V98.0131C45.696 98.0314 45.5971 98.0494 45.5252 98.0494C45.3636 98.0494 45.2647 97.9494 45.2647 97.7496V95.0059C45.2647 93.7704 43.8818 93.6611 43.5044 93.6611C42.3281 93.6611 41.5467 94.1064 41.5467 95.2604H42.2831ZM44.4655 96.9411C44.4655 97.5861 43.7471 98.0676 43.0015 98.0676C42.4089 98.0676 42.1304 97.7496 42.1304 97.2226C42.1304 96.6139 42.7591 96.5049 43.1543 96.4504C44.1423 96.3231 44.3397 96.2506 44.4655 96.1506V96.9411Z" fill="#9D9D9D"/>
<path d="M58.1161 98.6038L55.7002 96.0691L58.0081 93.7978H56.9934L54.9549 95.8873V93.7978H54.1554V98.6038H54.9549V96.4233L56.9754 98.6038H58.1161ZM60.2474 96.1963C60.2474 97.4318 60.9299 98.7401 62.4478 98.7401C63.9654 98.7401 64.648 97.4318 64.648 96.1963C64.648 94.9606 63.9654 93.6613 62.4478 93.6613C60.9299 93.6613 60.2474 94.9606 60.2474 96.1963ZM61.0646 96.1963C61.0646 95.5511 61.3073 94.3611 62.4478 94.3611C63.5883 94.3611 63.8307 95.5511 63.8307 96.1963C63.8307 96.8413 63.5883 98.0406 62.4478 98.0406C61.3073 98.0406 61.0646 96.8413 61.0646 96.1963ZM67.534 93.7978V98.6038H68.3154V95.8146C68.3154 95.3058 68.2704 94.7788 68.2704 94.7788H68.3334L69.8241 98.6038H70.3989L71.8898 94.7788H71.9526C71.9526 94.7788 71.9076 95.3058 71.9076 95.8146V98.6038H72.6891V93.7978H71.5844L70.1204 97.5681L68.6567 93.7978H67.534ZM75.8352 93.7978V98.6038H76.6347V94.4701H78.8529V98.6038H79.6522V93.7978H75.8352ZM83.5079 95.2606C83.5528 94.8971 83.6786 94.3338 84.5856 94.3338C85.3401 94.3338 85.6902 94.5791 85.6902 95.1061C85.6902 95.6056 85.6005 95.7056 84.352 95.8056C82.6817 95.9328 82.5379 96.7776 82.5379 97.3501C82.5379 98.1858 83.1485 98.7401 84.0199 98.7401C84.9449 98.7401 85.4209 98.2948 85.7352 97.9588C85.7711 98.3221 85.8699 98.6946 86.5794 98.6946C86.7591 98.6946 86.8757 98.6401 87.0104 98.6038V98.0133C86.9207 98.0316 86.8218 98.0496 86.7499 98.0496C86.5883 98.0496 86.4895 97.9496 86.4895 97.7498V95.0061C86.4895 93.7706 85.1065 93.6613 84.7292 93.6613C83.5528 93.6613 82.7714 94.1066 82.7714 95.2606H83.5079ZM85.6902 96.9413C85.6902 97.5863 84.9718 98.0678 84.2263 98.0678C83.6336 98.0678 83.3551 97.7498 83.3551 97.2228C83.3551 96.6141 83.9838 96.5051 84.379 96.4506C85.367 96.3233 85.5645 96.2508 85.6902 96.1508V96.9413ZM90.6148 93.7978H89.8153V98.6038H90.6148V96.4051H92.833V98.6038H93.6322V93.7978H92.833V95.7328H90.6148V93.7978ZM97.5779 93.7978H96.7784V98.6038H97.6137L99.9397 95.0061H99.9577V98.6038H100.757V93.7978H99.9219L97.5957 97.3956H97.5779V93.7978ZM107.244 92.0078H106.615C106.597 92.4076 106.436 92.6983 105.888 92.6983C105.34 92.6983 105.179 92.4076 105.161 92.0078H104.532C104.532 92.4168 104.693 93.2616 105.888 93.2616C107.082 93.2616 107.244 92.4168 107.244 92.0078ZM107.882 98.6038V93.7978H107.047L104.72 97.3956H104.703V93.7978H103.903V98.6038H104.738L107.064 95.0061H107.082V98.6038H107.882Z" fill="#9D9D9D"/>
</svg>
