<svg width="174" height="86" viewBox="0 0 174 86" fill="none" xmlns="http://www.w3.org/2000/svg">
<path d="M53.743 26.6694H64.786V30.2736H59.5328V55.5978H53.743V26.6694ZM71.333 44.7379L72.3253 30.2736H72.6576L73.6499 44.7379H71.333ZM64.9213 55.5978H70.5901L71.1263 47.9151H73.8563L74.3951 55.5978H80.0613L77.042 26.6694H67.9406L64.9213 55.5978ZM88.3533 45.473V50.9265C88.3533 51.6617 88.923 51.875 89.2553 51.875C89.8012 51.875 90.181 51.4245 90.181 50.9265V44.1928C90.181 43.2916 90.0148 42.2958 87.8547 42.2958H85.5045V39.1185H87.9496C89.5876 39.1185 90.181 38.7391 90.181 36.9606V31.2222C90.181 30.7241 89.8012 30.2736 89.255 30.2736C88.923 30.2736 88.3533 30.4632 88.3533 31.2222V35.9408H82.5609V31.8387C82.5609 29.8231 82.7983 26.6694 86.8573 26.6694H91.6525C95.7117 26.6694 95.9729 29.8231 95.9729 31.8387V36.4623C95.9729 39.616 93.7652 40.4697 92.0324 40.3985V40.6831C95.9253 40.5883 95.9729 43.5757 95.9729 44.5955V50.4287C95.9729 52.4679 95.7117 55.5978 91.6525 55.5978H86.8573C82.7983 55.5978 82.5609 52.4676 82.5609 50.4285V45.473H88.3533ZM99.7712 26.6694H113.183V55.5978H107.391V30.2736H105.563V55.5978H99.7712V26.6694ZM122.773 42.5802V30.2739H123.533C124.15 30.2739 124.601 30.7952 124.601 31.7202V41.1336C124.601 42.0586 124.15 42.5799 123.533 42.5799L122.773 42.5802ZM116.981 55.5978H122.773V45.7574H126.096C130.132 45.7574 130.393 42.6274 130.393 40.5881V31.8387C130.393 29.8231 130.132 26.6694 126.097 26.6694H116.981V55.5978ZM141.811 50.9265C141.811 51.4245 141.431 51.875 140.886 51.875C140.553 51.875 139.984 51.6617 139.984 50.9265V31.2222C139.984 30.4632 140.553 30.2736 140.886 30.2736C141.431 30.2736 141.811 30.7241 141.811 31.2222V50.9265ZM134.191 50.4287C134.191 52.4679 134.452 55.5978 138.488 55.5978H143.307C147.342 55.5978 147.603 52.4676 147.603 50.4285V31.8387C147.603 29.8231 147.342 26.6694 143.307 26.6694H138.488C134.453 26.6694 134.191 29.8231 134.191 31.8387V50.4287ZM166.451 26.6694H174V55.5978H168.208V37.4583H167.994L165.003 55.5978H160.374L157.407 37.4583H157.194V55.5978H151.401V26.6694H158.926L162.701 47.0141L166.451 26.6694ZM46.2369 15.9993C44.4639 8.2455 40.0199 1.93827 39.4075 0.918457C38.439 2.36475 34.895 7.93733 33.0933 14.1022C31.1253 21.0023 30.8357 27.1199 31.5149 33.1189C32.189 39.1418 34.7358 45.3307 34.7358 45.3307C36.0891 48.5555 38.1162 52.0409 39.4362 53.7483C41.3706 51.2349 45.8169 43.7418 47.2032 33.9727C47.9747 28.5189 48.0079 23.753 46.2369 15.9993ZM39.4075 51.804C38.5365 50.1678 37.1832 47.0614 37.055 42.2242C37.0218 37.5769 38.89 33.5694 39.4362 32.7397C39.9227 33.5697 41.532 37.0551 41.7244 41.8212C41.8549 46.4688 40.3072 50.1438 39.4075 51.804ZM45.722 29.159C45.6555 32.1232 45.3017 35.2531 44.8507 37.1264C45.0121 33.9016 44.6253 29.3726 43.8845 25.8159C43.1439 22.2827 41.0478 16.355 39.3745 13.628C37.8291 16.2364 35.9251 21.358 34.9282 25.7922C33.9264 30.2261 33.8981 35.6088 33.8981 37.2212C33.632 35.8695 32.9674 31.0088 33.1549 26.1479C33.3117 22.1407 34.2516 17.9911 34.7668 16.0941C36.7322 9.76308 38.9565 5.70835 39.3742 5.06799C39.7922 5.70835 42.5931 10.7116 44.0459 15.9517C45.4918 21.1921 45.7836 26.2189 45.722 29.1593" fill="#9D9D9D"/>
<path d="M42.4151 55.5503H28.9343V64.5846C28.9463 64.5846 28.9557 64.5608 28.9675 64.5608C32.1437 61.3836 37.295 61.3836 40.4735 64.5608C43.6497 67.7145 43.6497 72.8599 40.4735 76.0374C40.4592 76.0609 40.4448 76.0609 40.4308 76.0847C40.4141 76.0847 40.3975 76.1084 40.3832 76.1322C37.2142 79.2622 33.0743 80.827 28.9343 80.827C24.7755 80.827 20.6165 79.2622 17.4452 76.0847C11.8523 70.5123 11.19 61.8576 15.4534 55.5503C16.0387 54.6826 16.7057 53.8728 17.4452 53.1318C20.6165 49.9545 24.7755 48.3894 28.9343 48.3894V26.6694C12.9539 26.6694 0 39.5923 0 55.5503C0 71.5084 12.9539 84.455 28.9343 84.455C37.2663 84.455 44.7724 80.9218 50.0516 75.3022V55.5503H42.4151ZM174 64.0495H53.743V84.455H174V64.0495ZM163.601 78.2947H165.127V75.2146H163.601V78.2947ZM163.601 72.9046H165.91L167.456 73.6748L167.837 74.4447L168.219 75.9847V76.7546C168.178 82.2713 164.625 80.2518 160.891 80.605V67.8995H163.601V72.9046ZM143.546 67.8995V70.2095H141.619V80.605H138.548V70.2095H136.621V67.8995H143.546ZM115.421 77.1397H115.803L116.566 76.7546V71.3645H115.421V77.1397ZM112.33 71.3648H111.165V76.7546L111.948 77.1397H112.33V71.3648ZM115.421 67.8995V69.0545H117.349L118.493 69.8244L119.276 70.5946L119.657 72.1347V76.3698L119.276 77.9099L118.493 78.6798L117.349 79.4497H115.421V80.6047H112.33V79.4497H110.403L109.238 78.6798L108.476 77.9099L108.094 76.3698V72.1347L108.475 70.5946L109.238 69.8244L110.403 69.0545H112.33V67.8995H115.421ZM90.3598 67.8995V70.2095H88.0473V72.9046H90.3598V75.2146H88.0473V78.2947H90.7454V80.6047H84.9637V67.8995H90.3598ZM62.6082 72.9046H64.15V67.8995H66.8481V80.605H64.15V75.2146H62.6082V80.605H59.5246V67.8995H62.6082V72.9046Z" fill="#9D9D9D"/>
</svg>
