<svg width="153" height="105" viewBox="0 0 153 105" fill="none" xmlns="http://www.w3.org/2000/svg">
<path d="M22.361 15.552V46.629L49.3569 62.181L76.3617 46.629V15.552L49.3569 0L22.361 15.552Z" fill="#9D9D9D"/>
<path d="M22.361 15.5518L49.3569 62.1808L76.3617 15.5518H22.361Z" fill="#242424"/>
<path d="M76.452 15.552V46.629L103.457 62.181L130.462 46.629V15.552L103.457 0L76.452 15.552Z" fill="#9D9D9D"/>
<path d="M103.457 0L130.462 46.629H76.452L103.457 0Z" fill="#242424"/>
<path d="M13.9938 78.2372C14.5351 79.5933 20.1287 94.3097 22.3039 99.7744C23.587 102.949 24.6195 103.521 25.3613 103.732C25.8246 103.881 26.3083 103.956 26.7948 103.953C27.0053 103.953 27.1456 103.953 27.1456 104.164C27.1456 104.375 26.8249 104.445 26.4339 104.445C26.043 104.445 23.2964 104.445 20.8404 104.375C20.1588 104.375 19.7678 104.375 19.7678 104.124C19.7747 104.061 19.8036 104.002 19.8494 103.958C19.8952 103.914 19.9551 103.887 20.0184 103.883C20.1128 103.84 20.1915 103.768 20.2435 103.678C20.2956 103.588 20.3185 103.484 20.3091 103.381C20.3183 103.223 20.2944 103.066 20.239 102.919L16.9209 94.1289C16.8987 94.0628 16.8551 94.0061 16.7969 93.9679C16.7388 93.9296 16.6695 93.912 16.6001 93.9179H8.9316C8.85047 93.9199 8.77221 93.9485 8.70884 93.9993C8.64546 94.0501 8.60047 94.1203 8.58075 94.1992L6.44558 100.518C6.14997 101.286 5.98069 102.096 5.94437 102.919C5.94437 103.632 6.68617 103.923 7.29765 103.923H7.6485C7.89911 103.923 8.00936 103.993 8.00936 104.134C8.00936 104.275 7.79885 104.415 7.47808 104.415C6.61599 104.415 5.09231 104.315 4.69134 104.315C4.29037 104.315 2.34567 104.415 0.681641 104.415C0.210502 104.415 0 104.345 0 104.134C0 103.923 0.140347 103.923 0.320783 103.923C0.50122 103.923 1.0726 103.923 1.32321 103.853C2.96718 103.632 3.6789 102.276 4.33048 100.488L12.4 78.3477C12.831 77.1724 12.9714 76.9614 13.1819 76.9614C13.3924 76.9614 13.5728 77.1322 13.9938 78.2372ZM16.139 92.6321C16.3095 92.6321 16.3094 92.5216 16.2794 92.381L12.8912 82.7375C12.7809 82.4462 12.7107 82.3457 12.6105 82.3457C12.5102 82.3457 12.43 82.4864 12.3599 82.7375L9.22229 92.4111C9.15212 92.5819 9.2223 92.6623 9.33257 92.6623L16.139 92.6321Z" fill="#9D9D9D"/>
<path d="M35.2352 94.159C35.2352 99.4127 35.3856 101.703 36.0271 102.346C36.6687 102.989 37.5207 103.16 40.2975 103.16C42.192 103.16 43.7558 103.16 44.6079 102.095C45.0862 101.463 45.4059 100.726 45.5401 99.9451C45.5401 99.6638 45.6504 99.483 45.8609 99.483C46.0714 99.483 46.0714 99.6236 46.0714 100.025C45.9869 101.226 45.8092 102.418 45.5401 103.592C45.2895 104.415 45.1793 104.596 43.2947 104.596C38.1623 104.596 35.8066 104.385 33.7416 104.385C33.4208 104.385 31.3157 104.486 30.2532 104.486C29.8622 104.486 29.6818 104.415 29.6818 104.204C29.6818 103.993 29.7519 103.993 29.9625 103.993C30.3244 103.983 30.6841 103.932 31.0351 103.843C31.7468 103.702 31.9272 102.918 32.0375 101.834C32.2179 100.337 32.2179 97.5141 32.2179 94.0786V87.8103C32.2179 82.2352 32.2179 81.2307 32.1478 80.0955C32.0776 78.9604 31.7869 78.3075 30.6141 78.0865C30.2279 78.0057 29.8355 77.9587 29.4412 77.9458C29.3009 77.9458 29.1605 77.8755 29.1605 77.7349C29.1605 77.5942 29.3309 77.4536 29.7219 77.4536C31.3258 77.4536 33.5712 77.5541 33.7316 77.5541C33.892 77.5541 36.5083 77.4536 37.5809 77.4536C37.9718 77.4536 38.1523 77.5239 38.1523 77.7349C38.1523 77.9458 38.0119 77.9458 37.8716 77.9458C37.4753 77.9557 37.0801 77.9927 36.6887 78.0563C35.6863 78.2371 35.3756 78.8399 35.3054 80.0654C35.2352 81.2909 35.2252 82.205 35.2252 87.7802L35.2352 94.159Z" fill="#9D9D9D"/>
<path d="M53.349 87.8103C53.349 82.2352 53.349 81.2307 53.2789 80.0955C53.2087 78.9604 52.918 78.3075 51.7452 78.0865C51.3327 78.001 50.9132 77.9539 50.4921 77.9458C50.3518 77.9458 50.2014 77.8755 50.2014 77.7349C50.2014 77.5942 50.3819 77.4536 50.7728 77.4536C52.3767 77.4536 54.6221 77.5541 54.7825 77.5541C55.1735 77.5541 57.88 77.4536 58.9927 77.4536C61.2381 77.4536 63.6239 77.6646 65.5085 79.0207C66.2582 79.5905 66.8695 80.323 67.2966 81.1633C67.7236 82.0036 67.9554 82.9298 67.9744 83.8726C67.9744 86.5245 66.8617 89.1664 63.654 92.1298C66.5811 95.8767 69.0069 99.0611 71.0719 101.271C72.1727 102.617 73.7143 103.528 75.4224 103.843C75.8796 103.919 76.3424 103.956 76.8058 103.953C76.9862 103.953 77.1266 104.054 77.1266 104.164C77.1266 104.275 76.916 104.445 76.2745 104.445H73.7384C72.4312 104.571 71.1145 104.339 69.9292 103.772C68.3955 102.949 67.1524 101.201 65.1175 98.5186C63.6239 96.5598 61.9498 94.159 61.2381 93.2348C61.1806 93.1662 61.1083 93.1117 61.0267 93.0751C60.9451 93.0386 60.8563 93.0211 60.767 93.0238L56.3864 92.9535C56.206 92.9535 56.1358 93.054 56.1358 93.2348V94.0886C56.1358 97.5241 56.1358 100.347 56.3162 101.844C56.4265 102.848 56.637 103.662 57.7096 103.853C58.2407 103.935 58.7763 103.985 59.3135 104.003C59.524 104.003 59.5941 104.104 59.5941 104.214C59.5941 104.325 59.4137 104.496 59.0228 104.496C57.068 104.496 54.8226 104.395 54.6422 104.395C54.4617 104.395 52.3566 104.496 51.2941 104.496C50.8931 104.496 50.7227 104.425 50.7227 104.214C50.7227 104.003 50.7929 104.003 51.0034 104.003C51.3653 103.993 51.725 103.942 52.0759 103.853C52.7877 103.712 52.9681 102.929 53.0784 101.844C53.2588 100.347 53.2588 97.5241 53.2588 94.0886L53.349 87.8103ZM56.1959 90.9143C56.1932 91.0026 56.2152 91.0899 56.2595 91.1663C56.3038 91.2426 56.3686 91.305 56.4465 91.3463C57.6449 91.7741 58.9147 91.9652 60.1856 91.9088C61.1255 91.9642 62.0596 91.7293 62.862 91.2358C64.1051 90.3819 65.0373 88.4532 65.0373 85.731C65.0373 81.2708 62.6816 78.5887 58.8724 78.5887C58.0713 78.5697 57.2707 78.6439 56.4866 78.8097C56.3987 78.8383 56.3225 78.8951 56.27 78.9714C56.2174 79.0476 56.1914 79.1391 56.1959 79.2316V90.9143Z" fill="#9D9D9D"/>
<path d="M90.1981 76.9507C98.2175 76.9507 104.232 82.0236 104.232 90.3411C104.232 98.3773 98.6085 104.947 90.0177 104.947C80.2541 104.947 76.1842 97.3427 76.1842 90.8835C76.1542 85.1276 80.3643 76.9507 90.1981 76.9507ZM90.9499 103.591C94.1577 103.591 100.784 101.732 100.784 91.3456C100.784 82.7669 95.5812 78.1662 89.9475 78.1662C83.9931 78.1662 79.5424 82.0939 79.5424 89.9091C79.5624 98.2367 84.5745 103.591 90.9499 103.591Z" fill="#9D9D9D"/>
<path d="M122.777 82.3657C122.556 82.3657 122.526 82.1849 122.486 81.8936C122.426 81.2803 122.271 80.6804 122.025 80.1155C121.814 79.7238 120.852 78.217 117.574 78.217C117.005 78.1622 116.431 78.2298 115.891 78.4155C115.35 78.6011 114.856 78.9003 114.44 79.2932C114.024 79.6861 113.697 80.1634 113.48 80.6933C113.264 81.2232 113.162 81.7934 113.184 82.3657C113.184 84.3747 114.186 85.6505 117.534 88.3929L119.639 90.0704C122.316 92.2101 123.739 94.5306 123.739 97.5743C123.739 101.592 120.782 104.998 115.329 104.998C113.68 105.031 112.044 104.687 110.547 103.993C110.056 103.742 110.016 103.601 110.016 102.637C110.016 100.849 110.156 99.4226 110.196 98.85C110.196 98.4583 110.297 98.2775 110.477 98.2775C110.658 98.2775 110.728 98.388 110.728 98.6692C110.717 99.1139 110.754 99.5585 110.838 99.9952C111.369 102.637 113.725 103.642 116.111 103.642C116.762 103.687 117.415 103.598 118.03 103.38C118.645 103.162 119.209 102.819 119.686 102.374C120.164 101.928 120.545 101.389 120.806 100.79C121.067 100.191 121.202 99.544 121.203 98.8902C121.203 96.4191 120.201 94.9926 117.113 92.4612L115.509 91.1352C111.73 88.0312 110.868 85.8112 110.868 83.3903C110.868 79.563 113.725 76.9613 118.246 76.9613C119.362 76.9459 120.476 77.0639 121.564 77.3129C121.97 77.4212 122.387 77.4819 122.807 77.4937C123.098 77.4937 123.168 77.564 123.168 77.7448C123.168 77.9257 123.027 79.101 123.027 81.5319C123.027 82.0945 122.957 82.3657 122.777 82.3657Z" fill="#9D9D9D"/>
<path d="M139.848 78.2372C140.379 79.5933 145.973 94.3097 148.148 99.7744C149.431 102.949 150.464 103.521 151.216 103.732C151.676 103.881 152.156 103.956 152.639 103.953C152.86 103.953 153 103.953 153 104.164C153 104.375 152.679 104.445 152.288 104.445C151.747 104.445 149.151 104.445 146.685 104.375C146.013 104.375 145.622 104.375 145.622 104.124C145.627 104.06 145.655 104 145.702 103.955C145.748 103.911 145.809 103.885 145.873 103.883C145.965 103.838 146.042 103.766 146.092 103.676C146.142 103.586 146.164 103.483 146.153 103.381C146.163 103.223 146.139 103.066 146.083 102.919L142.765 94.1289C142.743 94.0628 142.699 94.0061 142.641 93.9679C142.583 93.9296 142.514 93.912 142.444 93.9179H134.786C134.606 93.9179 134.505 94.0184 134.425 94.1992L132.29 100.518C131.994 101.286 131.825 102.096 131.789 102.919C131.789 103.632 132.541 103.923 133.142 103.923H133.503C133.753 103.923 133.864 103.993 133.864 104.134C133.864 104.275 133.643 104.415 133.322 104.415C132.47 104.415 130.937 104.315 130.546 104.315C130.155 104.315 128.19 104.415 126.536 104.415C126.075 104.415 125.864 104.345 125.864 104.134C125.864 103.923 126.005 103.923 126.185 103.923C126.366 103.923 126.927 103.923 127.188 103.853C128.822 103.632 129.533 102.276 130.195 100.488L138.274 78.3477C138.705 77.1724 138.846 76.9614 139.066 76.9614C139.287 76.9614 139.417 77.1322 139.848 78.2372ZM141.983 92.6321C142.164 92.6321 142.164 92.5216 142.124 92.381L138.705 82.7375C138.595 82.4462 138.525 82.3457 138.415 82.3457C138.304 82.3457 138.234 82.4864 138.164 82.7375L135.067 92.4111C134.996 92.5819 135.067 92.6623 135.177 92.6623L141.983 92.6321Z" fill="#9D9D9D"/>
</svg>
