<svg width="210" height="57" viewBox="0 0 210 57" fill="none" xmlns="http://www.w3.org/2000/svg">
<path d="M54.8039 26.6657V21.6465H76.1204V26.6657H68.3212V48.805H62.603V26.6657H54.8039Z" fill="#FDFDFD"/>
<path d="M79.9675 29.1297V32.78H80.0375C80.2823 32.1777 80.6145 31.6119 81.0167 31.0826C81.4364 30.5716 81.9086 30.1153 82.4332 29.7502C82.9753 29.3852 83.5349 29.0932 84.1469 28.8924C84.7589 28.6916 85.3885 28.5821 86.0355 28.5821C86.3677 28.5821 86.7524 28.6369 87.1721 28.7646V33.7839C86.9273 33.7291 86.63 33.6926 86.2978 33.6561C85.9655 33.6196 85.6333 33.6013 85.3185 33.6013C84.3742 33.6013 83.5698 33.7656 82.9053 34.0941C82.2408 34.4227 81.7162 34.879 81.314 35.4448C80.9118 36.0106 80.632 36.6859 80.4572 37.4342C80.2823 38.2008 80.1949 39.0221 80.1949 39.8982V48.7685H75.0187V29.1297H79.9675Z" fill="#FDFDFD"/>
<path d="M89.0607 26.0817V21.6282H94.2368V26.0817H89.0607ZM94.2368 29.1297V48.805H89.0607V29.1297H94.2368Z" fill="#FDFDFD"/>
<path d="M97.7342 35.171C97.8042 33.9116 98.1189 32.853 98.6435 32.0134C99.1856 31.1739 99.8501 30.4986 100.689 30.0058C101.511 29.4947 102.438 29.1297 103.47 28.9289C104.502 28.7099 105.533 28.6004 106.583 28.6004C107.527 28.6004 108.489 28.6734 109.468 28.8012C110.447 28.9472 111.322 29.2209 112.126 29.6225C112.93 30.024 113.577 30.5898 114.102 31.3199C114.609 32.05 114.871 32.999 114.871 34.1854V44.4246C114.871 45.3189 114.924 46.1585 115.011 46.9798C115.116 47.7829 115.274 48.4035 115.518 48.805H110.272C110.167 48.4947 110.097 48.1844 110.027 47.8742C109.975 47.5639 109.923 47.2354 109.905 46.9068C109.083 47.8012 108.104 48.4217 106.985 48.7685C105.866 49.1153 104.729 49.2978 103.557 49.2978C102.666 49.2978 101.826 49.1883 101.039 48.951C100.27 48.7137 99.5878 48.367 98.9933 47.8924C98.4162 47.4179 97.9615 46.7973 97.6293 46.0672C97.297 45.3372 97.1396 44.4611 97.1396 43.439C97.1396 42.3256 97.332 41.4131 97.6992 40.683C98.0839 39.9529 98.5561 39.3871 99.1506 38.9491C99.7452 38.511 100.427 38.2008 101.197 37.9817C101.966 37.7627 102.735 37.5985 103.505 37.4707C104.274 37.3429 105.044 37.2334 105.796 37.1604C106.548 37.0874 107.212 36.9779 107.807 36.8136C108.401 36.6494 108.856 36.4486 109.188 36.1566C109.52 35.8646 109.678 35.4448 109.66 34.879C109.66 34.2949 109.573 33.8386 109.38 33.4918C109.188 33.1451 108.961 32.8895 108.646 32.6888C108.349 32.5062 107.982 32.3785 107.597 32.3055C107.195 32.2507 106.757 32.2142 106.303 32.2142C105.289 32.2142 104.484 32.4332 103.89 32.9078C103.295 33.3823 102.963 34.1306 102.875 35.1892H97.7342V35.171ZM109.695 39.1681C109.468 39.3689 109.206 39.5331 108.873 39.6427C108.541 39.7522 108.191 39.8434 107.824 39.9347C107.439 40.0077 107.055 40.0807 106.635 40.1172C106.215 40.172 105.813 40.2267 105.393 40.2997C105.009 40.3727 104.624 40.4822 104.239 40.61C103.855 40.7378 103.54 40.902 103.26 41.121C102.98 41.3401 102.753 41.6138 102.578 41.9424C102.403 42.2709 102.316 42.6907 102.316 43.2017C102.316 43.6763 102.403 44.0961 102.578 44.4246C102.753 44.7531 102.98 45.0086 103.278 45.2094C103.575 45.4102 103.907 45.5379 104.292 45.611C104.676 45.684 105.079 45.7205 105.498 45.7205C106.513 45.7205 107.3 45.5379 107.859 45.1912C108.419 44.8444 108.838 44.4063 109.101 43.9135C109.363 43.4208 109.538 42.9097 109.59 42.4169C109.643 41.9059 109.678 41.5043 109.678 41.194V39.1681H109.695Z" fill="#FDFDFD"/>
<path d="M123.772 21.6282V48.7867H118.596V21.6282H123.772Z" fill="#FDFDFD"/>
<path d="M144.791 28.8742C144.459 28.3084 144.022 27.7973 143.515 27.3775C143.008 26.9395 142.431 26.6109 141.784 26.3737C141.137 26.1364 140.472 26.0086 139.755 26.0086C138.461 26.0086 137.377 26.2642 136.468 26.7935C135.576 27.3045 134.841 28.0163 134.282 28.8924C133.722 29.7685 133.32 30.7541 133.058 31.8857C132.795 32.999 132.673 34.1489 132.673 35.3535C132.673 36.5034 132.795 37.5985 133.058 38.6753C133.32 39.7522 133.722 40.7195 134.282 41.5773C134.841 42.4352 135.576 43.1287 136.468 43.658C137.359 44.1691 138.461 44.4428 139.755 44.4428C141.504 44.4428 142.868 43.877 143.847 42.7637C144.826 41.6503 145.438 40.1719 145.648 38.3468H151.192C151.052 40.0442 150.667 41.5773 150.055 42.9462C149.443 44.3151 148.639 45.4832 147.642 46.4505C146.645 47.4179 145.473 48.1479 144.144 48.659C142.815 49.17 141.346 49.4255 139.738 49.4255C137.744 49.4255 135.961 49.0605 134.369 48.3487C132.778 47.6186 131.431 46.633 130.347 45.3554C129.246 44.0961 128.424 42.5994 127.829 40.8838C127.252 39.1681 126.955 37.3247 126.955 35.3535C126.955 33.3276 127.252 31.4476 127.829 29.6955C128.406 27.9616 129.246 26.4467 130.347 25.1508C131.449 23.8549 132.778 22.8511 134.369 22.1028C135.961 21.3727 137.744 21.0077 139.738 21.0077C141.172 21.0077 142.518 21.2267 143.795 21.6465C145.071 22.0845 146.208 22.7051 147.222 23.5264C148.236 24.3477 149.058 25.3698 149.723 26.5927C150.387 27.8156 150.789 29.2027 150.964 30.7723H145.421C145.351 30.0788 145.141 29.4582 144.791 28.8742Z" fill="#FDFDFD"/>
<path d="M154.042 34.6964C154.497 33.4188 155.161 32.3237 156.018 31.4294C156.875 30.5351 157.889 29.8232 159.078 29.3304C160.267 28.8377 161.596 28.5821 163.083 28.5821C164.569 28.5821 165.916 28.8377 167.105 29.3304C168.311 29.8232 169.325 30.5168 170.182 31.4294C171.039 32.3237 171.686 33.4188 172.158 34.6964C172.613 35.9741 172.858 37.3977 172.858 38.9673C172.858 40.537 172.63 41.9606 172.158 43.22C171.704 44.4793 171.039 45.5744 170.182 46.4688C169.325 47.3631 168.311 48.0567 167.105 48.5495C165.898 49.024 164.552 49.2795 163.083 49.2795C161.596 49.2795 160.267 49.0423 159.078 48.5495C157.889 48.0749 156.875 47.3814 156.018 46.4688C155.161 45.5744 154.514 44.4793 154.042 43.22C153.587 41.9606 153.342 40.537 153.342 38.9673C153.342 37.4159 153.57 35.9741 154.042 34.6964ZM158.728 41.2853C158.868 42.0336 159.131 42.7089 159.48 43.293C159.83 43.8953 160.302 44.3698 160.879 44.7166C161.456 45.0634 162.191 45.2459 163.065 45.2459C163.94 45.2459 164.674 45.0634 165.269 44.7166C165.863 44.3698 166.335 43.8953 166.685 43.293C167.035 42.6907 167.28 42.0336 167.437 41.2853C167.577 40.537 167.664 39.7704 167.664 38.9856C167.664 38.2008 167.594 37.4342 167.437 36.6676C167.297 35.9011 167.035 35.244 166.685 34.6599C166.335 34.0759 165.863 33.6013 165.269 33.2363C164.674 32.8713 163.94 32.6888 163.065 32.6888C162.191 32.6888 161.456 32.8713 160.879 33.2363C160.302 33.6013 159.83 34.0759 159.48 34.6599C159.131 35.244 158.886 35.9193 158.728 36.6676C158.589 37.4342 158.501 38.2008 158.501 38.9856C158.519 39.7704 158.589 40.537 158.728 41.2853Z" fill="#FDFDFD"/>
<path d="M180.64 29.1297V31.7944H180.709C181.391 30.7723 182.213 29.9875 183.175 29.44C184.137 28.8742 185.239 28.6004 186.48 28.6004C187.669 28.6004 188.753 28.8377 189.75 29.3305C190.729 29.805 191.481 30.6628 191.989 31.8857C192.548 31.0279 193.3 30.2613 194.262 29.6042C195.224 28.9472 196.36 28.6186 197.672 28.6186C198.668 28.6186 199.595 28.7464 200.435 29.0019C201.292 29.2574 202.008 29.659 202.621 30.2248C203.233 30.7906 203.705 31.5207 204.037 32.415C204.369 33.3093 204.544 34.4044 204.544 35.6638V48.8232H199.368V37.6715C199.368 37.0144 199.35 36.3939 199.298 35.8098C199.246 35.2257 199.123 34.7147 198.896 34.2949C198.668 33.8569 198.354 33.5283 197.934 33.2728C197.514 33.0173 196.937 32.8895 196.203 32.8895C195.468 32.8895 194.891 33.0355 194.437 33.3276C193.982 33.6196 193.632 34.0029 193.387 34.4774C193.125 34.952 192.968 35.4813 192.88 36.0836C192.793 36.6859 192.758 37.2882 192.758 37.8905V48.8415H187.582V37.8175C187.582 37.2334 187.564 36.6494 187.547 36.0836C187.529 35.5178 187.424 34.9885 187.232 34.5139C187.057 34.0394 186.742 33.6378 186.323 33.3458C185.903 33.0538 185.274 32.9078 184.452 32.9078C184.207 32.9078 183.892 32.9625 183.49 33.072C183.088 33.1816 182.703 33.4006 182.318 33.7109C181.934 34.0211 181.619 34.4774 181.357 35.0797C181.094 35.682 180.954 36.4486 180.954 37.4159V48.8232H175.743V29.1297H180.64Z" fill="#FDFDFD"/>
<path d="M9.40793 35.2622L13.1501 42.0336L9.40793 48.805L5.66574 42.0336L9.40793 35.2622Z" fill="#FDFDFD"/>
<path d="M13.1501 28.5091L16.8923 35.2622L13.1501 42.0336L9.40793 35.2622L13.1501 28.5091Z" fill="#FDFDFD"/>
<path d="M16.8923 21.7378L20.6345 28.4909L16.8923 35.2622L13.1501 28.5091L16.8923 21.7378Z" fill="#FDFDFD"/>
<path d="M20.617 14.9664L24.3767 21.7378L20.6345 28.4909L16.8923 21.7378L20.617 14.9664Z" fill="#FDFDFD"/>
<path d="M24.3592 8.19501L28.1189 14.9664L24.3767 21.7378L20.617 14.9664L24.3592 8.19501Z" fill="#FDFDFD"/>
<path d="M31.8611 21.7378L39.3455 21.7195L43.0877 28.4909H35.6033L31.8611 21.7378Z" fill="#FDFDFD"/>
<path d="M24.3592 8.19501H31.8436L35.6033 14.9664H28.1189L24.3592 8.19501Z" fill="#FDFDFD"/>
<path d="M39.3455 35.2622H46.8299L50.5721 42.0154H43.0877L39.3455 35.2622Z" fill="#FDFDFD"/>
<path d="M24.3767 35.2622L28.1189 42.0336L24.3767 48.7867L20.6345 42.0336L24.3767 35.2622Z" fill="#FDFDFD"/>
<path d="M28.1189 28.4909L31.8611 35.2622L28.1189 42.0336L24.3767 35.2622L28.1189 28.4909Z" fill="#FDFDFD"/>
<path d="M31.8611 21.7378L35.6033 28.4909L31.8611 35.2622L28.1189 28.4909L31.8611 21.7378Z" fill="#FDFDFD"/>
<path d="M5.66574 42.0336H13.1501L16.8923 48.805H9.40793L5.66574 42.0336Z" fill="#FDFDFD"/>
<path d="M20.6345 42.0336H28.1189L31.8611 48.7867H24.3767L20.6345 42.0336Z" fill="#FDFDFD"/>
<path d="M39.3455 35.2622L43.0877 42.0154L39.3455 48.7867L35.6033 42.0336L39.3455 35.2622Z" fill="#FDFDFD"/>
<path d="M35.6033 42.0336L43.0877 42.0154L46.8299 48.7867H39.3455L35.6033 42.0336Z" fill="#FDFDFD"/>
</svg>
