<svg class="svgicon" id="svg112" preserveAspectRatio="xMidYMid meet" xmlns="http://www.w3.org/2000/svg" viewBox="0 0 60 60"><rect x="0" y="0" width="60" height="60" style="fill: rgb(255, 255, 255)" rx="50%" ry="50%"></rect><g transform="scale(0.6) translate(20, 20)"><path class="st0" d="M53.854,48.854c-0.368-2.021-0.753-3.858-1.106-4.99c-0.857-2.756-6.627-5.113-14.57-6.095"></path><path class="st0" d="M21.689,37.774c-7.892,0.986-13.582,3.34-14.438,6.09c-0.354,1.132-0.739,2.969-1.106,4.99"></path><polyline class="st0" points="38.541,38.013 38.542,38.001 36.87,36.925 34.563,36.238 "></polyline><polyline class="st0" points="25.313,36.275 23.13,36.925 21.465,37.998 "></polyline><path class="st0" d="M35.06,37.549c0,0-1.124-1.684-0.355-5.329"></path><path class="st0" d="M25.23,31.924c0.895,3.85-0.291,5.625-0.291,5.625"></path><path class="st0" d="M41.779,16.162C41.779,3.825,36.506,1,30.001,1c-6.507,0-11.78,2.825-11.78,15.162 c0,4.173,0.826,7.443,2.063,9.967c2.723,5.552,7.435,7.494,9.717,7.494c2.281,0,6.993-1.942,9.715-7.494 C40.953,23.604,41.779,20.335,41.779,16.162z"></path><path class="st0" d="M18.499,20.354c1.917-2.853,2.425-4.238,2.425-4.238c1.201-1.902-0.613-5.146,1.33-5.987 c2.525-1.092,1.784,1.304,7.613,1.304c5.827,0,4.864-2.461,7.375-1.424c2.086,0.862,0.499,3.537,1.847,6.106 c0,0,2.195,1.168,2.162,4.238"></path><path class="st0" d="M41.775,16.618c1.481,0.501,2.546,1.902,2.546,3.552c0,1.926-1.454,3.514-3.325,3.724"></path><path class="st0" d="M18.235,16.614c-1.486,0.498-2.557,1.901-2.557,3.555c0,1.98,1.536,3.602,3.483,3.738"></path><path class="st0" d="M34.233,42.048c-0.829,0.792-2.273,1.796-4.271,1.796c-1.961,0-3.362-0.967-4.176-1.751"></path><polyline class="st0" points="21.465,37.998 21.458,38.001 21.525,45.379 23.706,44.89 22.104,47.848 29.71,59 "></polyline><path class="st0" d="M29.71,59c-0.997-4.3-4.253-18.339-4.271-18.358l-0.499-3.093"></path><path class="st0" d="M35.06,37.549l-0.498,3.093C34.543,40.661,31.287,54.7,30.29,59"></path><polyline class="st0" points="30.29,59 37.896,47.848 36.294,44.89 38.475,45.379 38.541,38.013 "></polyline></g></svg>