<svg class="svgicon" id="svg110" preserveAspectRatio="xMidYMid meet" xmlns="http://www.w3.org/2000/svg" viewBox="0 0 60 60"><rect x="0" y="0" width="60" height="60" style="fill: rgb(255, 255, 255)" rx="50%" ry="50%"></rect><g transform="scale(0.6) translate(20, 20)"><line class="st1" x1="43.279" y1="15.88" x2="43.279" y2="39.167"></line><line class="st1" x1="16.721" y1="39.167" x2="16.721" y2="15.88"></line><path class="st1" d="M50.936,51.54c-0.422-2.98-0.916-6.055-1.352-7.678c-0.684-2.55-4.988-4.758-11.044-5.853"></path><path class="st1" d="M21.458,37.997c-6.066,1.09-10.356,3.305-11.043,5.865c-0.436,1.623-0.929,4.697-1.351,7.678"></path><polyline class="st1" points="25.502,35.681 24.691,35.789 24.939,37.546 29.961,41.293 35.06,37.546 35.309,35.789 34.531,35.687 "></polyline><path class="st1" d="M35.06,37.546c0,0-1.258-1.884-0.203-5.979"></path><path class="st1" d="M25.147,31.579c1.048,4.087-0.208,5.968-0.208,5.968"></path><path class="st1" d="M19.355,16.161c0,4.173,0.747,7.442,1.865,9.966c2.46,5.551,6.718,7.493,8.779,7.493 s6.319-1.941,8.779-7.493c1.118-2.524,1.864-5.793,1.864-9.966"></path><path class="st1" d="M43.243,16.161C43.243,3.825,37.313,1,30,1l0,0l0,0l0,0l0,0c-7.313,0-13.242,2.825-13.242,15.161 c0,0,17.367-0.193,17.367-4.685C34.125,15.968,43.243,16.161,43.243,16.161z"></path><line class="st1" x1="38.54" y1="38.009" x2="35.309" y2="35.789"></line><line class="st1" x1="21.458" y1="37.997" x2="24.691" y2="35.789"></line><polyline class="st1" points="42.679,54.208 42.679,48.267 32.469,48.267 32.469,54.24 "></polyline><polyline class="st1" points="38.588,51.056 38.588,53.416 35.467,53.416 35.467,51.056 "></polyline></g></svg>