<svg class="svgicon" id="svg144" preserveAspectRatio="xMidYMid meet" xmlns="http://www.w3.org/2000/svg" viewBox="0 0 128 128"><rect x="0" y="0" width="128" height="128" style="fill: transparent" rx="50%" ry="50%"></rect><g transform="scale(0.6) translate(42.66666666666667, 42.66666666666667)"><path style="fill: rgb(66, 165, 245)" class="st0" d="M48.097,15.739c0.042-0.004,0.079-0.006,0.112-0.008c0.031,0.075,0.068,0.179,0.109,0.313 c0.017,0.057,0.036,0.112,0.057,0.168l8.195,22.154c0.035,0.092,0.058,0.192,0.069,0.281c-1.168,0.762-1.632,2.285-1.027,3.587 c0.482,1.04,1.513,1.651,2.587,1.651c0.402,0,0.81-0.085,1.198-0.266c2.961-1.374,3.493-4.719,2.503-7.272l-8.152-22.037 c-0.935-3-3.111-4.505-6.136-4.252c-1.568,0.134-2.731,1.515-2.598,3.082C45.149,14.709,46.518,15.865,48.097,15.739z"></path><path style="fill: rgb(66, 165, 245)" class="st0" d="M79.297,82.402c-0.534-0.539-1.26-0.843-2.019-0.845c-0.003,0-0.005,0-0.007,0 c-0.756,0-1.48,0.301-2.016,0.835c-0.507,0.506-0.895,0.949-1.257,1.363c-0.622,0.712-0.996,1.142-1.903,1.748 c-0.697,0.463-1.681,0.13-2.222-0.68l-22.249-33.52c-0.615-0.921-0.49-2.266,0.25-2.762c0.883-0.587,1.017-0.636,1.66-0.863 c0.447-0.159,1.057-0.375,2.029-0.788c1.419-0.602,2.103-2.221,1.544-3.657L41.862,14.338c-0.285-0.731-0.858-1.313-1.585-1.608 c-0.729-0.294-1.544-0.276-2.257,0.05c-3.831,1.753-7.168,4.017-10.226,6.945c-3.212,3.148-6.564,7.769-7.799,10.745 c-0.172,0.412-0.243,0.859-0.21,1.304c0.908,12.188,9.079,31.691,20.329,48.529c11.075,16.58,26.313,31.943,37.057,37.36 c0.398,0.2,0.838,0.305,1.283,0.305h0.003c4.213-0.004,9.75-2.174,11.962-3.118c4.092-1.797,8.318-4.367,10.518-6.397 c0.568-0.524,0.899-1.257,0.917-2.03s-0.28-1.52-0.824-2.069L79.297,82.402z"></path><path style="fill: rgb(66, 165, 245)" class="st0" d="M106.854,94.795c-0.063-0.078-0.132-0.152-0.204-0.223L89.336,77.573c-1.947-1.847-5.317-2.623-7.724-0.427 c-1.163,1.061-1.245,2.864-0.184,4.025c0.987,1.081,2.615,1.229,3.772,0.391c0.067,0.033,0.136,0.074,0.177,0.112l17.089,16.778 c0.078,0.19,0.109,0.616-0.062,0.926c-0.76,1.379-0.259,3.112,1.119,3.873c0.437,0.24,0.908,0.354,1.374,0.354 c1.005,0,1.979-0.532,2.498-1.474C108.674,99.816,108.447,96.73,106.854,94.795z"></path></g></svg>