<svg class="svgicon" id="svg90" preserveAspectRatio="xMidYMid meet" xmlns="http://www.w3.org/2000/svg" viewBox="0 0 128 128"><rect x="0" y="0" width="128" height="128" style="fill: transparent" rx="50%" ry="50%"></rect><g transform="scale(0.4) translate(96, 96)"><path class="st0" d="M61.266,103.383h-26.76c-1.191,0-2.271-0.706-2.748-1.799c-0.479-1.093-0.264-2.365,0.547-3.239l22.119-23.883 l8.865-10.478l-8.656-10.586L32.32,29.673c-0.818-0.872-1.043-2.147-0.568-3.246s1.559-1.81,2.754-1.81h26.76 c0.861,0,1.682,0.371,2.252,1.018l32.227,36.616c1.002,1.139,0.998,2.847-0.012,3.979l-32.229,36.149 C62.936,103.018,62.121,103.383,61.266,103.383z"></path></g></svg>