<svg class="svgicon" id="svg58" preserveAspectRatio="xMinYMid meet" xmlns="http://www.w3.org/2000/svg" viewBox="0 0 60 60"><rect x="0" y="0" width="60" height="60" style="fill: transparent" rx="50%" ry="50%"></rect><g transform="scale(0.6) translate(20, 20)"><path fill="rgb(66, 165, 245)" d="M8.086,0C7.021,0,6.157,0.863,6.157,1.928v56.144C6.157,59.137,7.021,60,8.086,60 c1.064,0,1.928-0.863,1.928-1.928V1.928C10.014,0.863,9.15,0,8.086,0z"></path><path fill="rgb(66, 165, 245)" d="M52.538,14.042L14.319,0.974C13.73,0.773,13.08,0.868,12.573,1.23c-0.506,0.361-0.806,0.946-0.806,1.568 v26.134c0,0.623,0.3,1.207,0.806,1.569c0.331,0.236,0.725,0.359,1.122,0.359c0.209,0,0.42-0.034,0.624-0.104l38.219-13.067 c0.78-0.267,1.305-1,1.305-1.825S53.318,14.309,52.538,14.042z M15.623,26.236V5.496l30.331,10.37L15.623,26.236z"></path></g></svg>