<svg class="svgicon" id="svg54" preserveAspectRatio="xMinYMid meet" xmlns="http://www.w3.org/2000/svg" viewBox="0 0 60 60"><rect x="0" y="0" width="60" height="60" style="fill: transparent" rx="50%" ry="50%"></rect><g transform="scale(0.6) translate(20, 20)"><path fill="rgb(66, 165, 245)" d="M50.352,13.578c-0.007-0.007-0.012-0.017-0.019-0.024L38.164,0.575c-0.487-0.521-1.205-0.687-1.847-0.504 H10.936c-1.017,0-1.841,0.824-1.841,1.841v56.247c0,1.017,0.824,1.841,1.841,1.841h38.128c1.017,0,1.841-0.824,1.841-1.841V14.893 C50.905,14.377,50.692,13.913,50.352,13.578z M38.736,6.568l6.078,6.483h-6.078V6.568z M12.777,56.317V3.754h22.278v11.139 c0,1.017,0.824,1.841,1.841,1.841h10.327v39.584H12.777z"></path></g></svg>