<svg class="svgicon" id="svg50" preserveAspectRatio="xMinYMid meet" xmlns="http://www.w3.org/2000/svg" viewBox="0 0 60 60"><rect x="0" y="0" width="60" height="60" style="fill: transparent" rx="50%" ry="50%"></rect><g transform="scale(0.6) translate(20, 20)"><path fill="rgb(66, 165, 245)" d="M21.159,3.173c0.023-0.002,0.044-0.003,0.062-0.004c0.018,0.041,0.038,0.099,0.062,0.173 c0.009,0.032,0.02,0.063,0.031,0.095l4.556,12.314c0.019,0.051,0.032,0.107,0.038,0.157c-0.649,0.423-0.906,1.27-0.571,1.993 c0.269,0.578,0.841,0.918,1.438,0.918c0.224,0,0.45-0.048,0.666-0.147c1.646-0.764,1.941-2.623,1.392-4.043l-4.532-12.25 c-0.52-1.668-1.729-2.504-3.41-2.363c-0.873,0.074-1.519,0.842-1.444,1.713C19.521,2.601,20.281,3.243,21.159,3.173z"></path><path fill="rgb(66, 165, 245)" d="M38.503,40.229c-0.297-0.3-0.7-0.469-1.122-0.47c0,0-0.002,0-0.004,0c-0.42,0-0.823,0.167-1.12,0.465 c-0.282,0.281-0.497,0.527-0.698,0.758c-0.346,0.396-0.555,0.634-1.059,0.972c-0.388,0.257-0.934,0.072-1.234-0.378L20.897,22.943 c-0.343-0.513-0.272-1.26,0.139-1.535c0.491-0.327,0.565-0.354,0.923-0.48c0.248-0.088,0.588-0.208,1.128-0.438 c0.789-0.335,1.169-1.235,0.858-2.033L17.693,2.394c-0.158-0.406-0.477-0.729-0.881-0.894s-0.858-0.154-1.254,0.027 c-2.13,0.975-3.984,2.232-5.685,3.861c-1.785,1.75-3.649,4.317-4.336,5.973c-0.095,0.229-0.135,0.478-0.116,0.725 c0.505,6.775,5.047,17.616,11.301,26.977c6.156,9.217,14.627,17.757,20.6,20.768c0.221,0.111,0.465,0.17,0.713,0.17h0.002 c2.342-0.002,5.42-1.209,6.649-1.733c2.274-0.999,4.624-2.428,5.847-3.556c0.316-0.292,0.5-0.699,0.51-1.129 s-0.156-0.846-0.459-1.15L38.503,40.229z M43.428,55.358c-1.927,0.822-3.805,1.363-5.034,1.458 c-5.44-2.918-13.37-11.032-19.036-19.514C13.505,28.543,9.23,18.554,8.615,12.248c0.586-1.176,1.977-3.126,3.464-4.585 c1.017-0.973,2.105-1.793,3.299-2.482l5.038,12.944c-0.306,0.13-0.617,0.301-1.14,0.648c-1.863,1.248-2.328,3.964-1.016,5.926 l12.367,18.633c0.8,1.197,2.099,1.913,3.474,1.913c0.768,0,1.514-0.227,2.158-0.656c0.513-0.343,0.869-0.653,1.161-0.948 l9.644,9.739C46.092,54.027,44.798,54.757,43.428,55.358z"></path><path fill="rgb(66, 165, 245)" d="M53.822,47.119c-0.035-0.044-0.073-0.085-0.113-0.124l-9.625-9.449c-1.083-1.027-2.956-1.459-4.294-0.238 c-0.646,0.59-0.692,1.593-0.103,2.238c0.55,0.601,1.454,0.683,2.098,0.217c0.037,0.019,0.075,0.042,0.098,0.062l9.5,9.327 c0.043,0.105,0.061,0.342-0.034,0.515c-0.422,0.767-0.144,1.729,0.622,2.152c0.243,0.134,0.505,0.197,0.764,0.197 c0.559,0,1.1-0.296,1.389-0.819C54.834,49.91,54.707,48.194,53.822,47.119z"></path></g></svg>