<svg class="svgicon" id="svg52" preserveAspectRatio="xMinYMid meet" xmlns="http://www.w3.org/2000/svg" viewBox="0 0 60 60"><rect x="0" y="0" width="60" height="60" style="fill: transparent" rx="50%" ry="50%"></rect><g transform="scale(0.6) translate(20, 20)"><path fill="rgb(66, 165, 245)" d="M48.851,13.399L19.953,42.297l-7.81-7.811c-0.753-0.753-1.972-0.753-2.725,0 c-0.753,0.752-0.753,1.973,0,2.725l9.172,9.173c0.376,0.377,0.869,0.564,1.362,0.564s0.986-0.188,1.362-0.564l30.261-30.259 c0.752-0.753,0.752-1.973,0-2.726C50.823,12.646,49.604,12.647,48.851,13.399z"></path><path fill="rgb(66, 165, 245)" d="M55.584,0H4.415C1.98,0,0,1.981,0,4.416v51.168C0,58.019,1.98,60,4.415,60h51.169 C58.019,60,60,58.019,60,55.584V4.416C60,1.981,58.019,0,55.584,0z M56.146,55.584c0,0.311-0.252,0.562-0.562,0.562H4.415 c-0.31,0-0.562-0.251-0.562-0.562V4.416c0-0.31,0.252-0.562,0.562-0.562h51.169c0.31,0,0.562,0.252,0.562,0.562V55.584z"></path></g></svg>