<svg class="svgicon" id="svg56" preserveAspectRatio="xMinYMid meet" xmlns="http://www.w3.org/2000/svg" viewBox="0 0 60 60"><rect x="0" y="0" width="60" height="60" style="fill: transparent" rx="50%" ry="50%"></rect><g transform="scale(0.6) translate(20, 20)"><path fill="rgb(66, 165, 245)" d="M57.82,3.323c-1.328-1.325-3.292-2.026-5.683-2.026c-2.874,0-5.804,0.998-7.289,2.484 c-0.601,0.602-4.22,4.451-8.788,9.328l-25.39-1.762c-0.345-0.02-0.681,0.083-0.945,0.265l-9.032,6.113 c-0.514,0.342-0.776,0.957-0.67,1.552c0.1,0.602,0.546,1.093,1.141,1.249l22.46,5.881c-2.951,3.158-5.586,5.98-7.39,7.914 l-7.542-0.545c-0.822-0.062-1.639,0.375-2.059,1.094l-2.212,3.832c-0.318,0.557-0.379,1.223-0.177,1.791 c0.2,0.604,0.652,1.09,1.248,1.338l10.721,4.41l3.114,10.5c0.176,0.578,0.588,1.064,1.186,1.357 c0.287,0.133,0.604,0.201,0.918,0.201c0.287,0,0.567-0.055,0.846-0.168l4.795-1.994c0.895-0.369,1.438-1.264,1.353-2.219 l-0.659-7.834c3.229-3.199,6.111-6.055,8.702-8.621l4.848,20.047c0.139,0.574,0.581,1.016,1.114,1.141 c0.11,0.031,0.287,0.053,0.401,0.053c0.461,0,0.895-0.203,1.188-0.553l6.48-7.666c0.268-0.314,0.4-0.732,0.365-1.145l-2.121-24.043 c6.305-6.25,8.454-8.385,8.891-8.82c1.296-1.296,2.194-3.688,2.344-6.244C60.143,7.379,59.357,4.861,57.82,3.323z M3.971,18.607 l6.904-4.673l22.923,1.591c-2.654,2.836-5.496,5.875-8.182,8.749L3.971,18.607z M48.271,49.145l-4.927,5.828L38.599,35.35 c3.028-3,5.6-5.549,7.774-7.703L48.271,49.145z M56.133,10.01c-0.103,1.758-0.692,3.213-1.222,3.743 c-0.749,0.749-6.565,6.519-30.026,29.763l-0.469,0.467c-0.405,0.4-0.611,0.961-0.564,1.529l0.635,7.529l-1.992,0.828l-2.85-9.607 c-0.165-0.559-0.574-1.012-1.113-1.232l-9.826-4.043l0.748-1.295l7.422,0.535c0.582,0.037,1.15-0.18,1.547-0.605 c4.599-4.928,27.618-29.585,29.15-31.118c0.651-0.651,2.583-1.355,4.565-1.355c0.77,0,2.177,0.117,2.959,0.899 C55.846,6.796,56.233,8.278,56.133,10.01z"></path></g></svg>