<svg width="31" height="30" viewBox="0 0 31 30" fill="none" xmlns="http://www.w3.org/2000/svg">
<path fill-rule="evenodd" clip-rule="evenodd" d="M13 2.5H18.3C20.9522 2.5 23.4957 3.55357 25.3711 5.42893C27.2464 7.3043 28.3 9.84784 28.3 12.5V17.8C28.3 23.3228 23.8228 27.8 18.3 27.8H13C7.47715 27.8 3 23.3228 3 17.8V12.5C3 6.97715 7.47715 2.5 13 2.5ZM20.9875 16.0875H23.15V16.125C23.6678 16.125 24.0875 15.7053 24.0875 15.1875C24.0875 14.6697 23.6678 14.25 23.15 14.25H20.9625C20.3155 14.2479 19.6944 14.5044 19.2375 14.9625L16.55 17.65V11.4C16.6713 10.8221 16.3716 10.2381 15.8314 9.99967C15.2911 9.76124 14.6577 9.9334 14.3125 10.4125L10.7125 14.0375C10.6052 14.1504 10.4558 14.2138 10.3 14.2125H8.15C7.63223 14.2125 7.2125 14.6322 7.2125 15.15C7.2125 15.6678 7.63223 16.0875 8.15 16.0875H10.3C10.9515 16.0815 11.5749 15.8213 12.0375 15.3625L14.6625 12.675V18.925C14.628 19.4753 14.9581 19.9831 15.475 20.175C15.6321 20.2453 15.803 20.2795 15.975 20.275C16.3225 20.2734 16.6551 20.134 16.9 19.8875L20.5875 16.25C20.6961 16.1481 20.8386 16.0902 20.9875 16.0875Z" fill="#4318FF"/>
</svg>
