<svg width="24" height="24" viewBox="0 0 24 24" fill="none" xmlns="http://www.w3.org/2000/svg">
<path d="M12 20.27C11.8012 20.2698 11.6105 20.1907 11.47 20.05L4.47 13.05C4.28243 12.857 4.21204 12.5787 4.28533 12.3198C4.35863 12.0609 4.56447 11.8608 4.82533 11.7948C5.08619 11.7288 5.36243 11.807 5.55 12L12 18.45L18.45 12C18.637 11.7993 18.9186 11.7167 19.1843 11.7846C19.45 11.8524 19.6575 12.0599 19.7254 12.3257C19.7932 12.5914 19.7106 12.873 19.51 13.06L12.51 20.06C12.3728 20.1922 12.1905 20.2673 12 20.27Z" fill="#4318FF"/>
<path d="M12 20.2598C11.588 20.2544 11.2554 19.9217 11.25 19.5098V4.50977C11.25 4.24182 11.3929 3.99422 11.625 3.86025C11.8571 3.72627 12.1429 3.72627 12.375 3.86025C12.6071 3.99422 12.75 4.24182 12.75 4.50977V19.5098C12.7446 19.9217 12.412 20.2544 12 20.2598Z" fill="#4318FF"/>
<path d="M11.9996 21.0002C11.6019 20.9998 11.2206 20.8415 10.9396 20.5602L3.93956 13.5602C3.35414 12.972 3.35638 12.0206 3.94456 11.4352C4.53274 10.8497 5.48414 10.852 6.06956 11.4402L11.9996 17.3902L17.9196 11.4602C18.505 10.872 19.4564 10.8697 20.0446 11.4552C20.6327 12.0406 20.635 12.992 20.0496 13.5802L13.0496 20.5802C12.7678 20.8518 12.391 21.0025 11.9996 21.0002Z" fill="#4318FF"/>
<path d="M12 21C11.1716 21 10.5 20.3284 10.5 19.5V4.5C10.5 3.67157 11.1716 3 12 3C12.8284 3 13.5 3.67157 13.5 4.5V19.5C13.5 20.3284 12.8284 21 12 21Z" fill="#4318FF"/>
</svg>
