<svg width="18" height="18" viewBox="0 0 18 18" fill="none" xmlns="http://www.w3.org/2000/svg">
<path fill-rule="evenodd" clip-rule="evenodd" d="M16.7175 5.85001V5.9475C16.7038 6.32259 16.5637 6.68203 16.32 6.9675L11.775 12.12L9.68253 14.4975C9.37038 14.8494 8.92289 15.0513 8.45253 15.0525C8.34782 15.0636 8.24224 15.0636 8.13753 15.0525H8.09253C8.00673 15.0401 7.92329 15.0148 7.84503 14.9775H7.76253C7.69209 14.9485 7.62433 14.9133 7.56003 14.8725L7.48503 14.82L7.34253 14.715L6.30753 15.75C6.10897 15.9482 5.838 16.0566 5.55753 16.05C5.35591 16.0428 5.16062 15.9777 4.99503 15.8625C4.80736 16.0532 4.56233 16.177 4.29753 16.215L2.41503 16.4325H2.30253C2.10788 16.4357 1.91961 16.3631 1.77753 16.23L1.43253 15.885C1.11684 15.4702 1.18648 14.8799 1.59003 14.55L2.64003 13.5C2.3499 13.089 2.39736 12.5288 2.75253 12.1725L3.78753 11.1375C3.75249 11.0918 3.71995 11.0442 3.69003 10.995C3.66517 10.9669 3.64259 10.9368 3.62253 10.905L3.52503 10.71L3.47253 10.605C3.41253 10.5375 3.41253 10.47 3.41253 10.395V10.29C3.40484 10.2102 3.40484 10.1298 3.41253 10.05V9.9675V9.69C3.41714 9.67793 3.41714 9.66458 3.41253 9.6525C3.48914 9.31949 3.67052 9.01982 3.93003 8.79751L7.91253 5.2875L11.4525 2.175C11.7625 1.9053 12.1592 1.75621 12.57 1.755C13.0152 1.75574 13.4416 1.93389 13.755 2.25L16.26 4.71C16.4898 4.93745 16.6487 5.22662 16.7175 5.54251C16.714 5.5573 16.714 5.57271 16.7175 5.5875C16.7249 5.67485 16.7249 5.76266 16.7175 5.85001ZM8.43003 13.9725C8.58041 13.9739 8.72351 13.9078 8.82003 13.7925L10.86 11.445L15.435 6.255C15.6331 6.04426 15.6331 5.71575 15.435 5.505L12.96 3.03C12.8546 2.92449 12.7117 2.86514 12.5625 2.86501C12.43 2.86431 12.3019 2.91236 12.2025 3.00001L8.67753 6.1275L4.61253 9.7125C4.56774 9.75939 4.52985 9.81243 4.50003 9.87V9.9075C4.4895 9.95189 4.4895 9.99812 4.50003 10.0425C4.48868 10.102 4.48868 10.163 4.50003 10.2225C4.53778 10.2776 4.58956 10.3216 4.65003 10.35C4.64481 10.3671 4.64481 10.3854 4.65003 10.4025L8.06253 13.8525C8.11955 13.9042 8.18567 13.9449 8.25753 13.9725C8.30224 13.9797 8.34781 13.9797 8.39253 13.9725H8.43003ZM2.43753 15.2925L3.08253 14.655L3.59253 15.1575L2.43753 15.2925ZM3.61503 12.9075L5.55753 14.88L6.53253 13.8825L4.58253 11.9325L3.61503 12.9075Z" fill="#0B1C3F"/>
<path d="M12.2625 5.40752L8.88753 8.78252C8.66819 9.00213 8.66819 9.3579 8.88753 9.57752C8.99244 9.68374 9.13573 9.74322 9.28503 9.74252C9.43484 9.7459 9.57915 9.686 9.68253 9.57752L13.0575 6.20252C13.1647 6.09805 13.2252 5.95471 13.2252 5.80502C13.2252 5.65533 13.1647 5.51198 13.0575 5.40752C12.8379 5.18818 12.4821 5.18818 12.2625 5.40752Z" fill="#0B1C3F"/>
</svg>
