<svg width="30" height="30" viewBox="0 0 30 30" fill="none" xmlns="http://www.w3.org/2000/svg">
<path d="M26.3061 12.4811C22.826 11.9016 19.2669 12.8797 16.5717 15.1562C13.8764 17.4328 12.3169 20.7781 12.3061 24.3061C12.3007 24.9768 12.3593 25.6465 12.4811 26.3061C6.46569 25.2847 2.1772 19.908 2.51908 13.8161C2.86097 7.72414 7.72414 2.86097 13.8161 2.51908C19.908 2.1772 25.2847 6.46569 26.3061 12.4811Z" fill="#4318FF"/>
<path d="M26.4686 15.7311C26.4719 18.5368 25.3589 21.2285 23.3749 23.2124C21.391 25.1963 18.6993 26.3094 15.8936 26.3061C15.3027 26.3131 14.7124 26.2629 14.1311 26.1561C14.0209 25.5793 13.9665 24.9933 13.9686 24.4061C13.9686 18.5636 18.7012 13.8255 24.5436 13.8186C25.1392 13.8151 25.7336 13.8695 26.3186 13.9811C26.4185 14.5591 26.4687 15.1445 26.4686 15.7311Z" fill="#4318FF"/>
</svg>
