<svg width="31" height="30" viewBox="0 0 31 30" fill="none" xmlns="http://www.w3.org/2000/svg">
<path d="M11.65 15H11.75C14.5114 15 16.75 12.7614 16.75 10V8.03751C16.7467 6.91592 16.2963 5.84196 15.4985 5.05358C14.7008 4.2652 13.6215 3.82752 12.5 3.83751H10.85C8.53325 3.84437 6.65686 5.72076 6.64999 8.03751V10C6.64999 12.7614 8.88857 15 11.65 15Z" fill="#4318FF"/>
<path d="M22.375 14.0625C24.4461 14.0625 26.125 12.3836 26.125 10.3125V8.87504C26.1251 7.14506 24.7299 5.73877 23 5.72504H21.75C20.0201 5.73877 18.6249 7.14506 18.625 8.87504V10.3125C18.625 12.3836 20.3039 14.0625 22.375 14.0625Z" fill="#4318FF"/>
<path d="M28.4875 19.275L28.2875 18.2875C28.0511 16.9319 26.8761 15.9413 25.5 15.9375H17.875C16.9432 15.9395 16.0746 16.409 15.5625 17.1875H6.74999C5.86584 17.1881 5.01568 17.5282 4.37499 18.1375C3.82453 18.6419 3.43716 19.2991 3.26249 20.025C3.26249 20.0875 3.26249 20.15 3.26249 20.2V20.525L2.99999 21.525C2.73263 22.619 2.97113 23.7753 3.64958 24.6742C4.32803 25.5732 5.37458 26.1196 6.49999 26.1625H16.85C17.1156 26.1616 17.3801 26.128 17.6375 26.0625H17.8C17.9878 26.009 18.1716 25.9421 18.35 25.8625L18.55 25.75C18.6992 25.6658 18.8413 25.5696 18.975 25.4625L19.175 25.3C19.2979 25.1854 19.4148 25.0644 19.525 24.9375C19.525 24.875 19.6375 24.825 19.6875 24.75C19.8272 24.5665 19.9486 24.3697 20.05 24.1625C20.1033 24.0489 20.1492 23.932 20.1875 23.8125C20.2366 23.6986 20.2784 23.5817 20.3125 23.4625C20.3125 23.3375 20.375 23.2125 20.4 23.0875V22.9H25.75C26.6327 22.8739 27.4558 22.4487 27.988 21.744C28.5202 21.0393 28.7039 20.1311 28.4875 19.275Z" fill="#4318FF"/>
</svg>
