<svg width="24" height="24" viewBox="0 0 24 24" fill="none" xmlns="http://www.w3.org/2000/svg">
<path d="M8.36002 11.82H10.36C11.1884 11.82 11.86 11.1484 11.86 10.32C11.86 9.49157 11.1884 8.82 10.36 8.82H4.74002C4.5512 8.81974 4.36422 8.85713 4.19002 8.93C3.81846 9.0781 3.52267 9.37029 3.37002 9.74C3.3062 9.913 3.27238 10.0956 3.27002 10.28V15.88C3.27002 16.7084 3.94159 17.38 4.77002 17.38C5.59845 17.38 6.27002 16.7084 6.27002 15.88V13.88L10.13 17.75C10.4129 18.0287 10.793 18.1864 11.19 18.19C11.7963 18.1895 12.3427 17.824 12.5746 17.2638C12.8065 16.7037 12.6785 16.059 12.25 15.63L8.36002 11.82Z" fill="#A3AED0"/>
<path d="M20.76 13.68V8.08C20.76 7.25157 20.0885 6.58 19.26 6.58C18.4316 6.58 17.76 7.25157 17.76 8.08V10.08L13.9 6.19C13.309 5.63928 12.388 5.65553 11.8168 6.22676C11.2456 6.79798 11.2293 7.71898 11.78 8.31L15.64 12.18H13.64C12.8116 12.18 12.14 12.8516 12.14 13.68C12.14 14.5084 12.8116 15.18 13.64 15.18H19.23C19.4188 15.1803 19.6058 15.1429 19.78 15.07C20.1516 14.9219 20.4474 14.6297 20.6 14.26C20.6948 14.0805 20.7494 13.8826 20.76 13.68Z" fill="#A3AED0"/>
</svg>
