<svg width="24" height="24" viewBox="0 0 24 24" fill="none" xmlns="http://www.w3.org/2000/svg">
<path d="M12.5202 19.73C12.7172 19.7304 12.9069 19.6552 13.0502 19.52L20.0502 12.52C20.3426 12.2272 20.3426 11.7528 20.0502 11.46L13.0502 4.46C12.7574 4.16755 12.283 4.16755 11.9902 4.46C11.8472 4.59929 11.7666 4.79041 11.7666 4.99C11.7666 5.18959 11.8472 5.38071 11.9902 5.52L18.4502 12L12.0002 18.45C11.8572 18.5893 11.7766 18.7804 11.7766 18.98C11.7766 19.1796 11.8572 19.3707 12.0002 19.51C12.1357 19.6521 12.3239 19.7317 12.5202 19.73Z" fill="#A3AED0"/>
<path d="M4.48047 12.75H19.4805C19.8947 12.75 20.2305 12.4142 20.2305 12C20.2305 11.5858 19.8947 11.25 19.4805 11.25H4.48047C4.06626 11.25 3.73047 11.5858 3.73047 12C3.73047 12.4142 4.06626 12.75 4.48047 12.75Z" fill="#A3AED0"/>
<path d="M12.5202 19.73C12.7172 19.7304 12.9069 19.6552 13.0502 19.52L20.0502 12.52C20.3426 12.2272 20.3426 11.7528 20.0502 11.46L13.0502 4.46C12.7574 4.16755 12.283 4.16755 11.9902 4.46C11.8472 4.59929 11.7666 4.79041 11.7666 4.99C11.7666 5.18959 11.8472 5.38071 11.9902 5.52L18.4502 12L12.0002 18.45C11.8572 18.5893 11.7766 18.7804 11.7766 18.98C11.7766 19.1796 11.8572 19.3707 12.0002 19.51C12.1357 19.6521 12.3239 19.7317 12.5202 19.73Z" fill="#A3AED0"/>
<path d="M4.48047 12.75H19.4805C19.8947 12.75 20.2305 12.4142 20.2305 12C20.2305 11.5858 19.8947 11.25 19.4805 11.25H4.48047C4.06626 11.25 3.73047 11.5858 3.73047 12C3.73047 12.4142 4.06626 12.75 4.48047 12.75Z" fill="#A3AED0"/>
</svg>
