<svg width="30" height="30" viewBox="0 0 30 30" fill="none" xmlns="http://www.w3.org/2000/svg">
<path d="M27.8676 16.35L22.0551 10.55C21.8243 10.3145 21.5098 10.1797 21.1801 10.175C20.846 10.1764 20.5264 10.3114 20.2926 10.55L14.4801 16.35C14.2435 16.5847 14.1104 16.9042 14.1104 17.2375C14.1104 17.5708 14.2435 17.8903 14.4801 18.125C14.7148 18.3616 15.0343 18.4947 15.3676 18.4947C15.7009 18.4947 16.0204 18.3616 16.2551 18.125L19.9301 14.45V25C19.9301 25.6903 20.4897 26.25 21.1801 26.25C21.8705 26.25 22.4301 25.6903 22.4301 25V14.45L26.0926 18.125C26.5827 18.6151 27.3774 18.6151 27.8676 18.125C28.3577 17.6348 28.3577 16.8401 27.8676 16.35Z" fill="#4318FF"/>
<path d="M15.0051 11.6125C14.7704 11.3759 14.4509 11.2428 14.1176 11.2428C13.7843 11.2428 13.4648 11.3759 13.2301 11.6125L9.56761 15.2875V5C9.56761 4.30964 9.00797 3.75 8.31761 3.75C7.62726 3.75 7.06761 4.30964 7.06761 5V15.2875L3.39261 11.6125C2.90246 11.1223 2.10777 11.1223 1.61761 11.6125C1.12746 12.1027 1.12746 12.8973 1.61761 13.3875L7.43011 19.1875C7.91766 19.6722 8.70507 19.6722 9.19261 19.1875L15.0051 13.3875C15.2418 13.1528 15.3749 12.8333 15.3749 12.5C15.3749 12.1667 15.2418 11.8472 15.0051 11.6125Z" fill="#4318FF"/>
</svg>
