<svg width="24" height="24" viewBox="0 0 24 24" fill="none" xmlns="http://www.w3.org/2000/svg">
<path fill-rule="evenodd" clip-rule="evenodd" d="M12.35 7.12C11.005 7.0904 9.70474 7.60409 8.74313 8.545C7.78152 9.48591 7.23967 10.7746 7.23999 12.12C7.23252 13.1951 7.56502 14.2451 8.18999 15.12C9.1888 16.4565 9.74474 18.0719 9.77999 19.74C9.93958 20.9992 11.0107 21.9431 12.28 21.9431C13.5492 21.9431 14.6204 20.9992 14.78 19.74C14.7293 18.1424 15.2269 16.5756 16.19 15.3C16.8713 14.4459 17.2542 13.3922 17.28 12.3C17.3252 9.51745 15.1314 7.2124 12.35 7.12ZM13.35 19.43H11.09C10.7226 19.3698 10.4529 19.0523 10.4529 18.68C10.4529 18.3077 10.7226 17.9902 11.09 17.93H13.39C13.7574 17.9902 14.0271 18.3077 14.0271 18.68C14.0271 19.0523 13.7574 19.3698 13.39 19.43H13.35ZM14.93 11.96C14.9244 12.3704 15.2497 12.7091 15.66 12.72L15.7 12.73C16.1009 12.7246 16.4246 12.4009 16.43 12C16.4487 10.9374 16.0438 9.911 15.3046 9.1474C14.5654 8.38381 13.5527 7.94578 12.49 7.93C12.0758 7.93 11.74 8.26579 11.74 8.68C11.74 9.09421 12.0758 9.43 12.49 9.43C13.8475 9.48858 14.9206 10.6013 14.93 11.96Z" fill="#A3AED0"/>
<path d="M12.28 6.21C12.692 6.20461 13.0246 5.87196 13.03 5.46V2.75C13.03 2.48205 12.8871 2.23446 12.655 2.10048C12.423 1.96651 12.1371 1.96651 11.905 2.10048C11.673 2.23446 11.53 2.48205 11.53 2.75V5.46C11.5354 5.87196 11.8681 6.20461 12.28 6.21Z" fill="#A3AED0"/>
<path d="M19.59 4.87001C19.2972 4.57755 18.8228 4.57755 18.53 4.87001L16.66 6.73001C16.4458 6.94449 16.3817 7.26685 16.4977 7.54693C16.6137 7.82701 16.8868 8.00974 17.19 8.01C17.389 8.01094 17.5801 7.93164 17.72 7.79L19.59 5.93001C19.8824 5.63719 19.8824 5.16282 19.59 4.87001Z" fill="#A3AED0"/>
<path d="M21.63 11.03H19C18.5858 11.03 18.25 11.3658 18.25 11.78C18.25 12.1942 18.5858 12.53 19 12.53H21.63C22.0442 12.53 22.38 12.1942 22.38 11.78C22.38 11.3658 22.0442 11.03 21.63 11.03Z" fill="#A3AED0"/>
<path d="M5.38 11.03H2.75C2.33579 11.03 2 11.3658 2 11.78C2 12.1942 2.33579 12.53 2.75 12.53H5.38C5.79421 12.53 6.13 12.1942 6.13 11.78C6.13 11.3658 5.79421 11.03 5.38 11.03Z" fill="#A3AED0"/>
<path d="M7.79001 7.79C7.93296 7.65071 8.01359 7.45959 8.01359 7.26C8.01359 7.06041 7.93296 6.86929 7.79001 6.73L5.93002 4.87C5.74304 4.66935 5.46146 4.58675 5.19573 4.65461C4.92999 4.72248 4.72249 4.92998 4.65463 5.19571C4.58677 5.46144 4.66936 5.74303 4.87002 5.93L6.73002 7.79C6.8699 7.93164 7.06095 8.01094 7.26002 8.01C7.45931 8.01209 7.65079 7.93261 7.79001 7.79Z" fill="#A3AED0"/>
</svg>
