<svg width="24" height="25" viewBox="0 0 24 25" fill="none" xmlns="http://www.w3.org/2000/svg">
<path d="M22.0784 9.64416C21.9786 6.29594 19.2844 3.63705 15.8917 3.63705C14.794 3.63705 13.0977 4.42487 12.3992 5.70507C12.2994 6.00051 11.9002 6.00051 11.8005 5.70507C11.0022 4.52335 9.4056 3.73553 8.20818 3.73553C4.91526 3.73553 2.12127 6.39441 2.02148 9.64416V9.74264V9.84112C2.02148 11.5152 2.71998 13.0909 3.91741 14.2726C3.91741 14.2726 3.91741 14.2726 3.91741 14.3711C4.01719 14.4695 8.80689 18.6056 11.0022 20.4766C11.6009 20.969 12.499 20.969 13.0977 20.4766C15.2929 18.6056 19.9829 14.4695 20.1824 14.3711C20.1824 14.3711 20.1824 14.3711 20.1824 14.2726C21.3799 13.1893 22.0784 11.6137 22.0784 9.84112V9.64416Z" fill="#4318FF"/>
</svg>
