<svg width="18" height="18" viewBox="0 0 18 18" fill="none" xmlns="http://www.w3.org/2000/svg">
<path fill-rule="evenodd" clip-rule="evenodd" d="M11.2146 11.4227C11.5533 11.4236 11.8852 11.517 12.1746 11.6927H12.1671C13.0398 12.2132 13.3362 13.3359 12.8341 14.2193C12.332 15.1027 11.2157 15.4226 10.322 14.9391C9.42824 14.4557 9.08505 13.3464 9.54964 12.4427L7.35215 10.2002C7.19347 10.2968 7.0217 10.37 6.84215 10.4177C6.69263 10.4561 6.53901 10.4762 6.38465 10.4777C5.4331 10.4825 4.62883 9.7738 4.51387 8.82922C4.39891 7.88463 5.00972 7.00372 5.93465 6.78017C6.08192 6.74425 6.23306 6.72662 6.38465 6.72767C6.7717 6.72797 7.1491 6.84853 7.46465 7.07267L9.54964 4.98767C9.23901 4.40726 9.25832 3.70589 9.60041 3.14345C9.94249 2.58101 10.5564 2.24129 11.2146 2.25017C11.5526 2.24846 11.8846 2.33924 12.1746 2.51267C12.7641 2.83689 13.1359 3.45097 13.1498 4.12359C13.1638 4.79621 12.8179 5.42519 12.2423 5.77359C11.6668 6.12199 10.9491 6.13689 10.3596 5.81267L8.15465 8.01767C8.17912 8.07094 8.19919 8.12612 8.21465 8.18267C8.31428 8.58635 8.27464 9.01185 8.10214 9.39017L10.3521 11.6402C10.6186 11.5009 10.914 11.4264 11.2146 11.4227ZM11.2146 3.37517C10.9514 3.37364 10.7065 3.51027 10.5696 3.73517C10.4674 3.90662 10.4377 4.11176 10.4871 4.30517C10.5304 4.49828 10.6529 4.6643 10.8246 4.76267C10.9397 4.83399 11.0718 4.87287 11.2071 4.87517C11.4719 4.87512 11.7171 4.73544 11.8521 4.50767C12.0646 4.15339 11.9506 3.69399 11.5971 3.48017C11.4823 3.40928 11.3496 3.37284 11.2146 3.37517ZM6.38464 9.35267C6.03162 9.36295 5.71926 9.12556 5.63465 8.78267C5.58742 8.58827 5.61983 8.38306 5.72465 8.21267C5.82694 8.04449 5.99126 7.92327 6.18214 7.87517H6.36214C6.71517 7.86488 7.02753 8.10228 7.11214 8.44517C7.15953 8.63623 7.1299 8.83826 7.02964 9.00767L6.98464 9.06017C6.88515 9.20248 6.73936 9.30586 6.57214 9.35267H6.38464ZM11.2071 14.0102C11.4704 14.0117 11.7152 13.8751 11.8521 13.6502C12.0401 13.3044 11.9287 12.8722 11.5971 12.6602C11.4821 12.5888 11.35 12.55 11.2146 12.5477C10.9498 12.5477 10.7047 12.6874 10.5696 12.9152C10.3572 13.2694 10.4712 13.7289 10.8246 13.9427C10.9433 14.0005 11.0758 14.0239 11.2071 14.0102Z" fill="#0B1C3F"/>
</svg>
