<svg width="24" height="24" viewBox="0 0 24 24" fill="none" xmlns="http://www.w3.org/2000/svg">
<path fill-rule="evenodd" clip-rule="evenodd" d="M19.9382 7.66945C18.512 4.24481 15.1704 2.01016 11.4607 2.00025C7.46246 1.9792 3.90737 4.54018 2.66105 8.33922C1.41473 12.1383 2.7619 16.3075 5.99559 18.6589C9.22927 21.0104 13.6107 21.0069 16.8407 18.6503L19.7207 21.5303C20.0135 21.8227 20.4878 21.8227 20.7807 21.5303C21.0731 21.2374 21.0731 20.7631 20.7807 20.4703L17.9907 17.6803C20.5968 15.0401 21.3644 11.0941 19.9382 7.66945ZM18.6011 14.1692C17.4036 17.0549 14.5849 18.9343 11.4607 18.9303V18.8903C7.22037 18.8848 3.77812 15.4605 3.75066 11.2203C3.74662 8.09599 5.62605 5.27729 8.51172 4.07982C11.3974 2.88235 14.7203 3.5422 16.9295 5.75139C19.1387 7.96058 19.7986 11.2835 18.6011 14.1692Z" fill="#2B3674"/>
</svg>
