<svg width="24" height="24" viewBox="0 0 24 24" fill="none" xmlns="http://www.w3.org/2000/svg">
<path d="M16.64 22H7.35997C6.34915 21.9632 5.40754 21.477 4.79232 20.6741C4.1771 19.8713 3.95254 18.8356 4.17997 17.85L4.41997 16.71C4.69601 15.1668 6.02259 14.0327 7.58997 14H16.41C17.9774 14.0327 19.3039 15.1668 19.58 16.71L19.82 17.85C20.0474 18.8356 19.8228 19.8713 19.2076 20.6741C18.5924 21.477 17.6508 21.9632 16.64 22Z" fill="#A3AED0"/>
<path d="M12.5 12H11.5C9.29081 12 7.49995 10.2091 7.49995 8V5.36C7.49729 4.46806 7.85043 3.61188 8.48113 2.98118C9.11183 2.35048 9.96801 1.99733 10.86 2H13.14C14.0319 1.99733 14.8881 2.35048 15.5188 2.98118C16.1495 3.61188 16.5026 4.46806 16.5 5.36V8C16.5 9.06087 16.0785 10.0783 15.3284 10.8284C14.5782 11.5786 13.5608 12 12.5 12Z" fill="#A3AED0"/>
</svg>
