<svg width="43" height="42" viewBox="0 0 43 42" fill="none" xmlns="http://www.w3.org/2000/svg">
<path fill-rule="evenodd" clip-rule="evenodd" d="M26.8995 27.7286C27.7223 27.7309 28.529 27.9623 29.2324 28.3976H29.2141C31.3349 29.6874 32.0551 32.4694 30.8349 34.6583C29.6148 36.8473 26.9021 37.6398 24.7302 36.4419C22.5583 35.244 21.7243 32.4952 22.8533 30.256L17.5131 24.6994C17.1275 24.9388 16.7101 25.1203 16.2737 25.2384C15.9104 25.3335 15.5371 25.3834 15.162 25.387C12.8496 25.399 10.8951 23.6429 10.6157 21.3024C10.3364 18.9618 11.8207 16.7791 14.0684 16.2251C14.4263 16.1361 14.7936 16.0924 15.162 16.095C16.1025 16.0958 17.0197 16.3945 17.7865 16.9499L22.8533 11.7836C22.0984 10.3454 22.1453 8.6075 22.9767 7.21385C23.808 5.8202 25.2998 4.97842 26.8995 5.00042C27.7207 4.99619 28.5275 5.22112 29.2324 5.65086C30.6649 6.45423 31.5683 7.97583 31.6022 9.64249C31.6361 11.3092 30.7955 12.8677 29.3969 13.731C27.9983 14.5943 26.2542 14.6312 24.8217 13.8278L19.4633 19.2915C19.5228 19.4235 19.5715 19.5602 19.6091 19.7003C19.8512 20.7006 19.7549 21.7549 19.3357 22.6924L24.8035 28.2675C25.4509 27.9224 26.169 27.7378 26.8995 27.7286ZM26.899 7.788C26.2591 7.7842 25.6642 8.12277 25.3315 8.68003C25.083 9.10486 25.0109 9.61317 25.131 10.0924C25.2363 10.5709 25.5339 10.9823 25.9512 11.226C26.2307 11.4028 26.5519 11.4991 26.8807 11.5048C27.5242 11.5047 28.12 11.1586 28.4482 10.5942C28.9645 9.71633 28.6875 8.57799 27.8285 8.04818C27.5494 7.87253 27.2268 7.78223 26.899 7.788ZM15.1612 22.5994C14.3033 22.6249 13.5442 22.0367 13.3386 21.1871C13.2239 20.7054 13.3026 20.1969 13.5573 19.7747C13.8059 19.3579 14.2052 19.0576 14.6691 18.9384H15.1065C15.9644 18.9129 16.7235 19.5011 16.9291 20.3508C17.0443 20.8242 16.9723 21.3248 16.7286 21.7446L16.6193 21.8747C16.3775 22.2273 16.0232 22.4834 15.6169 22.5994H15.1612ZM26.8813 34.1401C27.5211 34.1439 28.1161 33.8053 28.4488 33.248C28.9054 32.3912 28.6348 31.3202 27.8291 30.795C27.5496 30.6182 27.2284 30.5219 26.8995 30.5162C26.2561 30.5163 25.6603 30.8624 25.3321 31.4268C24.8157 32.3047 25.0928 33.443 25.9518 33.9728C26.2402 34.1162 26.5622 34.1742 26.8813 34.1401Z" fill="#4318FF"/>
</svg>
