<svg width="30" height="30" viewBox="0 0 30 30" fill="none" xmlns="http://www.w3.org/2000/svg">
<path fill-rule="evenodd" clip-rule="evenodd" d="M7.5 1.25H23.75C26.5114 1.25 28.75 3.48858 28.75 6.25V22.5C28.75 25.2614 26.5114 27.5 23.75 27.5H7.5C4.73858 27.5 2.5 25.2614 2.5 22.5V6.25C2.5 3.48858 4.73858 1.25 7.5 1.25ZM22.5 15.9375C23.0178 15.9375 23.4375 15.5178 23.4375 15V11.2C23.4308 10.685 23.015 10.2692 22.5 10.2625H18.75C18.2322 10.2625 17.8125 10.6822 17.8125 11.2C17.8125 11.7178 18.2322 12.1375 18.75 12.1375H19.8625L15.4125 16.5875L12.9125 14.0875C12.2491 13.4264 11.1759 13.4264 10.5125 14.0875L7.3 17.3C6.93443 17.666 6.93443 18.259 7.3 18.625C7.47485 18.802 7.71367 18.9012 7.9625 18.9C8.21161 18.9026 8.45096 18.8033 8.625 18.625L11.7625 15.625L14.2625 18.125C14.9259 18.7861 15.9991 18.7861 16.6625 18.125L21.5625 13.1875V15C21.5625 15.5178 21.9822 15.9375 22.5 15.9375Z" fill="#4318FF"/>
</svg>
