<svg width="24" height="24" viewBox="0 0 24 24" fill="none" xmlns="http://www.w3.org/2000/svg">
<path d="M18.3143 11.219C18.0727 11.219 17.8495 11.3479 17.7287 11.5571C17.6079 11.7664 17.6079 12.0241 17.7287 12.2333C17.8495 12.4425 18.0727 12.5714 18.3143 12.5714H21.8953H22V11.2H21.8953L18.3143 11.219Z" fill="#A3AED0"/>
<path d="M21.8952 14.381H18.3143C16.9415 14.381 15.8286 13.2681 15.8286 11.8952C15.8286 10.5224 16.9415 9.40952 18.3143 9.40952H21.8952H22V7.80952C22 5.70558 20.2944 4 18.1905 4H5.80952C3.70558 4 2 5.70558 2 7.80952V15.981C2 18.0849 3.70558 19.7905 5.80952 19.7905H18.1905C20.2944 19.7905 22 18.0849 22 15.981V14.3619L21.8952 14.381Z" fill="#A3AED0"/>
</svg>
