<svg width="32" height="32" viewBox="0 0 32 32" fill="none" xmlns="http://www.w3.org/2000/svg">
<path fill-rule="evenodd" clip-rule="evenodd" d="M2 15.9997C2 15.7345 2.10536 15.4801 2.29289 15.2926C2.48043 15.1051 2.73478 14.9997 3 14.9997L26.586 14.9997L20.292 8.70771C20.1042 8.51994 19.9987 8.26526 19.9987 7.99971C19.9987 7.73416 20.1042 7.47948 20.292 7.29171C20.4798 7.10393 20.7344 6.99845 21 6.99845C21.2655 6.99845 21.5202 7.10393 21.708 7.29171L29.708 15.2917C29.8011 15.3846 29.875 15.495 29.9254 15.6164C29.9758 15.7379 30.0018 15.8682 30.0018 15.9997C30.0018 16.1312 29.9758 16.2615 29.9254 16.383C29.875 16.5045 29.8011 16.6148 29.708 16.7077L21.708 24.7077C21.5202 24.8955 21.2656 25.001 21 25.001C20.7344 25.001 20.4798 24.8955 20.292 24.7077C20.1042 24.5199 19.9987 24.2653 19.9987 23.9997C19.9987 23.7342 20.1042 23.4795 20.292 23.2917L26.586 16.9997L3 16.9997C2.73478 16.9997 2.48043 16.8944 2.29289 16.7068C2.10536 16.5193 2 16.2649 2 15.9997Z" fill="white"/>
</svg>
