<svg width="146" height="189" viewBox="0 0 146 189" fill="none" xmlns="http://www.w3.org/2000/svg">
<rect x="-3.59282" y="23.0784" width="121.21" height="253.94" rx="38.066" transform="rotate(-12.7115 -3.59282 23.0784)" fill="#855CF6" stroke="white" stroke-width="6.01042"/>
<path d="M89.9657 83.634C90.0601 84.0781 89.7326 84.6074 89.0018 85.1916C88.2711 85.7758 87.1514 86.4035 85.7068 87.0388C84.2621 87.6741 82.5208 88.3046 80.5822 88.8943C78.6436 89.484 76.5457 90.0214 74.4082 90.4757C72.2708 90.93 70.1357 91.2924 68.1248 91.5422C66.1139 91.792 64.2667 91.9243 62.6885 91.9315C61.1104 91.9387 59.8322 91.8207 58.927 91.5842C58.0218 91.3477 57.5074 90.9974 57.413 90.5533M58.7629 86.5105C58.8599 88.6992 57.8676 93.1078 53.122 93.2328M87.6597 81.1004C88.4613 83.1394 91.1611 86.7632 95.5472 84.9472" stroke="black" stroke-width="3.02545"/>
<circle cx="56.3282" cy="70.9001" r="11.2374" transform="rotate(-12 56.3282 70.9001)" fill="white"/>
<circle cx="82.5392" cy="65.3283" r="11.2374" transform="rotate(-12 82.5392 65.3283)" fill="white"/>
<circle cx="56.4943" cy="70.6438" r="4.97039" transform="rotate(-12 56.4943 70.6438)" fill="black"/>
<circle cx="82.7062" cy="65.0725" r="4.97039" transform="rotate(-12 82.7062 65.0725)" fill="black"/>
</svg>
