<svg width="142" height="172" viewBox="0 0 142 172" fill="none" xmlns="http://www.w3.org/2000/svg">
<path d="M152.058 158.352L130.665 17.8886C129.78 12.0749 122.934 9.40325 118.345 13.0802L7.46022 101.919C2.87484 105.593 3.97607 112.859 9.45461 114.997L141.732 166.622C147.211 168.76 152.943 164.161 152.058 158.352Z" fill="#FB8073" stroke="white" stroke-width="5.4079"/>
<path d="M72.8858 74.6849C76.9154 78.1522 87.0508 85.7594 95.3549 88.4502" stroke="black" stroke-width="2.49468"/>
<path d="M114.328 77.9202C113.683 79.4878 113.52 81.2355 113.848 83.0637C114.177 84.8918 114.99 86.7645 116.241 88.5749C117.492 90.3853 119.157 92.098 121.141 93.615C123.124 95.132 125.388 96.4238 127.802 97.4165" stroke="black" stroke-width="2.49468"/>
<path d="M86.8686 105.373C87.5539 103.706 87.9042 101.921 87.8996 100.12C87.895 98.3177 87.5356 96.5344 86.8418 94.8715C86.148 93.2086 85.1335 91.6986 83.8561 90.4278C82.5788 89.1569 81.0636 88.1501 79.3972 87.4649C77.7308 86.7796 75.9457 86.4293 74.1439 86.4339C72.342 86.4385 70.5588 86.7979 68.8958 87.4917C67.2329 88.1855 65.723 89.2 64.4521 90.4774C63.1813 91.7547 62.1745 93.2698 61.4892 94.9363L86.8686 105.373Z" fill="white"/>
<path d="M78.8904 102.285C79.1574 101.635 79.2981 100.942 79.3046 100.243C79.3111 99.5445 79.1832 98.8547 78.9282 98.2131C78.6732 97.5715 78.2961 96.9907 77.8184 96.5038C77.3408 96.0169 76.7719 95.6334 76.1442 95.3753C75.5166 95.1172 74.8426 94.9896 74.1606 94.9996C73.4785 95.0096 72.8019 95.1571 72.1693 95.4337C71.5368 95.7103 70.9606 96.1106 70.4737 96.6116C69.9869 97.1127 69.5989 97.7048 69.3319 98.354L78.8904 102.285Z" fill="black"/>
<path d="M123.455 120.418C124.14 118.751 124.49 116.966 124.486 115.164C124.481 113.363 124.121 111.579 123.428 109.916C122.734 108.253 121.719 106.744 120.442 105.473C119.165 104.202 117.65 103.195 115.983 102.51C114.317 101.825 112.532 101.474 110.73 101.479C108.928 101.483 107.145 101.843 105.482 102.537C103.819 103.23 102.309 104.245 101.038 105.522C99.7672 106.8 98.7604 108.315 98.0752 109.981L123.455 120.418Z" fill="white"/>
<path d="M115.476 117.33C115.743 116.68 115.884 115.987 115.891 115.288C115.897 114.589 115.769 113.9 115.514 113.258C115.259 112.616 114.882 112.036 114.404 111.549C113.927 111.062 113.358 110.678 112.73 110.42C112.103 110.162 111.429 110.034 110.746 110.044C110.064 110.055 109.388 110.202 108.755 110.479C108.123 110.755 107.547 111.155 107.06 111.657C106.573 112.158 106.185 112.75 105.918 113.399L115.476 117.33Z" fill="black"/>
<path d="M103.061 118.004C102.616 119.086 101.847 120.023 100.798 120.76C99.7494 121.498 98.4411 122.022 96.9481 122.302C95.4551 122.583 93.8066 122.615 92.0967 122.396C90.3869 122.177 88.6491 121.711 86.9827 121.026C85.3162 120.341 83.7538 119.449 82.3845 118.402C81.0152 117.355 79.8659 116.172 79.0022 114.923C78.1385 113.673 77.5773 112.38 77.3507 111.118C77.1241 109.856 77.2365 108.65 77.6815 107.568" stroke="black" stroke-width="2.49468"/>
</svg>
