<svg width="32" height="32" viewBox="0 0 32 32" fill="none" xmlns="http://www.w3.org/2000/svg">
<path d="M1.98438 16.173C1.98438 23.6194 7.95143 29.752 15.3619 29.752C22.7724 29.752 29.7183 23.9199 29.7183 16.4735C29.7183 9.02715 23.86 2.59403 16.4495 2.59403C9.03903 2.59403 1.98438 8.72661 1.98438 16.173Z" fill="#FFE772"/>
<path d="M17.99 7.18132C17.8245 7.18132 17.6559 7.2282 17.5056 7.32602C16.326 8.09643 15.1491 9.07867 13.9739 10.2248C13.8124 10.3824 13.5962 10.4711 13.3706 10.4734C11.848 10.4883 10.3381 10.6556 8.84099 10.9662C8.33881 11.0705 8.03333 11.5852 8.17901 12.079C8.68857 13.8057 9.19848 15.5243 9.73893 16.4083C9.86347 16.6121 9.89368 16.8583 9.83158 17.089C9.42306 18.6096 9.10919 20.0978 8.91719 21.5449C8.85005 22.0501 9.22635 22.5085 9.73256 22.5389C11.3022 22.6347 12.8259 22.5686 14.2931 22.3035C14.5274 22.261 14.7681 22.3132 14.9624 22.4522C16.2491 23.371 17.5677 24.1438 18.9241 24.7435C19.3864 24.9479 19.9255 24.7118 20.098 24.2345C20.6197 22.7909 21.0265 21.3165 21.2961 19.804C21.3367 19.5757 21.4612 19.3713 21.6509 19.2397C22.7063 18.5088 23.8634 17.3768 25.0648 16.0724C25.3994 15.7094 25.3749 15.1333 24.9996 14.8132C23.9959 13.9565 22.6163 13.1405 21.1074 12.3381C20.9057 12.2311 20.7523 12.051 20.6838 11.8324C20.3206 10.6701 19.6029 9.20819 18.758 7.63871C18.5992 7.3439 18.2995 7.18132 17.991 7.18132C17.9906 7.18132 17.9903 7.18132 17.99 7.18132Z" fill="#E0CB64"/>
<path d="M0.865234 15.9993C0.865234 24.1065 7.36871 30.7021 15.3613 30.7021C23.7493 30.7021 30.8361 24.1068 30.8361 16.2998C30.8361 8.02703 24.382 1.29674 16.4489 1.29674C8.14783 1.29674 0.865234 8.16701 0.865234 15.9993ZM3.10153 15.9993C3.10153 9.36411 9.33882 3.54388 16.4489 3.54388C23.1487 3.54388 28.5995 9.26663 28.5995 16.2998C28.5995 22.7748 22.4136 28.4547 15.3613 28.4547C8.60133 28.4547 3.10153 22.8672 3.10153 15.9993Z" fill="#E0CB64"/>
</svg>
