<svg width="32" height="32" viewBox="0 0 32 32" fill="none" xmlns="http://www.w3.org/2000/svg">
<path d="M3.03516 15.7607C3.03516 22.6487 8.55468 28.3213 15.4094 28.3213C22.2641 28.3213 28.689 22.9267 28.689 16.0387C28.689 9.15084 23.2701 3.2002 16.4154 3.2002C9.56071 3.2002 3.03516 8.87284 3.03516 15.7607Z" fill="#FB8073"/>
<path d="M2 15.6C2 23.0992 8.01572 29.2002 15.4088 29.2002C23.1677 29.2002 29.7231 23.0995 29.7231 15.878C29.7231 8.22571 23.753 2.00019 16.4149 2.00019C8.7364 2.00019 2 8.35519 2 15.6ZM4.06858 15.6C4.06858 9.46251 9.83807 4.0788 16.4149 4.0788C22.6122 4.0788 27.6542 9.37234 27.6542 15.878C27.6542 21.8674 21.9322 27.1213 15.4088 27.1213C9.15589 27.1213 4.06858 21.9529 4.06858 15.6Z" fill="#DC6E62"/>
<path d="M11.0405 16.1679C11.1788 14.3994 11.1832 12.5085 11.6465 10.8019C11.8354 10.1125 12.0189 9.14669 12.8916 9.20251C13.2434 9.27185 13.9825 9.54253 14.2591 9.78084C14.6139 10.0153 15.2563 10.3094 15.5844 10.555C17.6671 11.9099 20.7164 13.7132 21.3203 14.358C21.9243 15.0027 22.5043 15.6643 22.3846 16.591C22.3885 16.6458 22.3885 16.7008 22.3846 16.7556C22.3074 17.5679 21.464 17.8722 20.8521 18.1289C19.3861 18.7709 14.331 21.1128 13.5062 21.1519C12.8278 21.1826 11.862 21.3528 11.3272 20.7946C10.7924 20.2363 10.8563 19.3986 10.8004 18.6841C10.9897 16.9421 10.9563 17.0191 11.0405 16.1679Z" fill="white"/>
</svg>
