<svg width="32" height="32" viewBox="0 0 32 32" fill="none" xmlns="http://www.w3.org/2000/svg">
<path d="M23.6773 3.4268C17.5292 4.9521 10.0223 7.16047 6.67302 8.54546C6.44745 8.63851 6.31964 8.87727 6.37047 9.11453C7.71365 15.3695 9.73174 21.8038 11.7673 27.3335L10.7606 26.6128L8.45442 28.7664C8.86856 29.1272 12.4954 29.6634 12.9748 29.5946C12.976 29.5946 12.9772 29.5943 12.9781 29.594C13.0115 29.5934 13.0452 29.5904 13.0789 29.5826C19.0778 28.2521 25.4289 26.6469 29.4107 24.9672C29.6389 24.8705 29.765 24.6282 29.7111 24.3879C28.0606 17.0594 26.8344 8.88564 24.8199 4.00125C24.6659 3.62935 24.3041 3.39777 23.9152 3.39777C23.8364 3.39777 23.7564 3.40705 23.6773 3.4268Z" fill="#469568"/>
<path d="M21.3625 2.82044C21.3357 2.82044 21.3107 2.82313 21.2876 2.82881C15.3825 4.29428 8.93996 7.21833 5.72274 8.54826C5.5062 8.63772 5.38379 8.86691 5.43251 9.09519C6.87585 15.8176 7.95767 22.1115 10.14 27.8061C10.2263 28.0314 12.1454 28.8928 13.2856 28.6567C19.1426 27.4455 23.7385 25.9346 27.562 24.321C27.7816 24.2289 27.9028 23.9958 27.8507 23.7648C26.2657 16.7262 25.088 8.87498 23.1526 4.18388C22.9842 3.77547 21.8638 2.82044 21.3628 2.82044C21.3628 2.82044 21.3628 2.82044 21.3625 2.82044Z" fill="url(#paint0_linear_269_18787)"/>
<path d="M19.4358 2.67831C13.2877 4.20392 5.78107 6.41229 2.43152 7.79698C2.20625 7.89003 2.07843 8.12879 2.12926 8.36635C3.63245 15.3652 5.98017 22.5929 8.2524 28.5218C8.34263 28.7563 8.59135 28.8892 8.83767 28.8344C14.8366 27.5036 21.188 25.8984 25.1692 24.2184C25.3974 24.1224 25.5238 23.8803 25.4693 23.6395C23.8191 16.3112 22.5932 8.13746 20.5781 3.25307C20.4244 2.88087 20.0626 2.64929 19.6734 2.64929C19.5949 2.64929 19.5152 2.65857 19.4358 2.67831Z" fill="#4ED78B"/>
<path d="M13.8175 9.32732C11.7973 9.70012 9.98343 11.0507 9.05469 12.8743C8.12625 14.6976 8.10459 16.9515 8.99754 18.7924C9.74613 20.3357 11.1344 21.58 12.785 22.0698C14.4359 22.5596 16.3249 22.2562 17.6813 21.1998C19.0378 20.1442 19.7927 18.3403 19.5018 16.6517C19.2501 15.1898 18.2257 13.8829 16.8627 13.283C15.8762 12.8489 14.6915 12.7896 13.7336 13.283C12.7757 13.7764 12.1185 14.8741 12.296 15.9327C12.4734 16.991 13.5859 17.8499 14.6395 17.6196C14.979 17.5454 15.3399 17.2973 15.3225 16.9518C15.2996 16.5098 14.7032 16.3076 14.5796 15.8824C14.487 15.5641 14.7153 15.214 15.025 15.0923C15.3345 14.9702 15.6924 15.0375 15.9902 15.1862C16.8561 15.6185 17.2717 16.733 16.9869 17.6543C16.7018 18.5758 15.8013 19.2469 14.8392 19.3597C13.8767 19.4728 12.8903 19.0686 12.2066 18.3855C11.5233 17.7021 11.1284 16.7651 11.0054 15.8088C10.855 14.642 11.1158 13.3931 11.8701 12.4862C12.6241 11.58 13.9059 11.0839 15.0431 11.4085C15.5793 11.562 16.0518 11.8765 16.5234 12.1733C16.995 12.4698 17.4904 12.7579 18.0414 12.8471C18.5917 12.9365 19.2155 12.7866 19.5503 12.3429C20.4107 11.203 18.7923 10.2889 17.9821 9.90059C17.0564 9.45688 16.0284 9.22021 15.0007 9.22021C14.604 9.22021 14.2082 9.25552 13.8175 9.32732Z" fill="#3CC679"/>
<path d="M19.8991 2.40933C18.7012 2.62056 16.1811 3.18006 16.1953 3.51217C16.2118 3.89664 18.4089 3.6486 18.4089 3.6486C18.4089 3.6486 18.4765 4.48874 18.8988 4.67395C19.3211 4.85855 19.8787 4.5058 19.8787 4.5058C19.8787 4.5058 21.2808 6.20314 21.4823 5.8106C21.6378 5.50751 20.8811 3.60611 20.5262 2.7522C20.4369 2.53618 20.2269 2.40065 19.999 2.40065C19.9659 2.40065 19.9325 2.40334 19.8991 2.40933ZM5.9346 6.36291C5.91265 6.36291 5.88978 6.36591 5.86632 6.37279C4.74389 6.69443 2.05571 7.50704 2.00579 7.92562C1.94233 8.4549 2.41121 11.4487 2.89242 11.3006C3.37394 11.1525 3.4374 9.37523 3.4374 9.37523C3.4374 9.37523 3.96944 9.41293 4.3496 9.16071C4.72946 8.90878 4.43833 7.72396 4.43833 7.72396C4.43833 7.72396 5.60016 7.36852 6.11506 6.74768C6.24709 6.58881 6.12198 6.36291 5.9349 6.36291C5.9349 6.36291 5.9349 6.36291 5.9346 6.36291ZM24.4228 21.4795C24.4228 21.4795 23.815 21.6977 23.815 22.2856C23.815 22.8741 24.406 23.0925 24.406 23.0925C24.406 23.0925 22.5644 24.7423 22.8008 25.1187C23.0378 25.4957 25.7068 24.5209 25.825 24C25.9432 23.4791 25.4307 20.26 24.6818 19.9623C24.6761 19.9602 24.6706 19.959 24.6652 19.959C24.498 19.9587 24.3738 20.9586 24.4228 21.4795ZM7.09011 25.8532C7.34816 26.8008 7.92863 28.7237 8.42428 28.861C9.08444 29.0438 11.0917 28.7156 11.1275 28.3356C11.163 27.9548 9.51994 27.8052 9.51994 27.8052C9.51994 27.8052 9.80987 27.2603 9.32655 26.8115C8.84323 26.3624 8.25284 26.5952 8.25284 26.5952C8.25284 26.5952 7.88231 26.0546 7.42125 25.6459C7.38125 25.6106 7.33523 25.595 7.29012 25.595C7.16681 25.595 7.05161 25.7117 7.09011 25.8532Z" fill="#FFE772"/>
<defs>
<linearGradient id="paint0_linear_269_18787" x1="16.8972" y1="16.7015" x2="51.3013" y2="139.46" gradientUnits="userSpaceOnUse">
<stop stop-color="#FFD187"/>
<stop offset="0.00053443" stop-color="#FFD187"/>
<stop offset="0.5" stop-color="#E48E0E"/>
<stop offset="0.500005" stop-color="#E48E0E"/>
<stop offset="1" stop-color="#5B3600"/>
</linearGradient>
</defs>
</svg>
