<svg width="32" height="32" viewBox="0 0 32 32" fill="none" xmlns="http://www.w3.org/2000/svg">
<path d="M27.9712 1.66443C17.3529 2.18944 9.19914 3.98897 2.85498 5.63006C1.85063 5.8897 1.17146 6.84656 1.25267 7.90078C1.67289 13.3406 3.42002 19.3112 5.52302 23.9737C5.883 24.7721 6.67704 25.2734 7.5377 25.2429C14.152 25.0058 16.9855 24.8699 22.3032 23.5862C19.9798 25.2482 17.8094 27.0589 15.8071 29.0314C15.4239 29.409 15.8052 30.0558 16.3149 29.8973C21.8437 28.1726 26.8153 26.1322 29.587 22.8427C30.8409 17.4372 30.8764 10.0749 30.1905 3.60563C30.0727 2.49757 29.1566 1.66213 28.0756 1.66213C28.0408 1.66213 28.0063 1.6629 27.9712 1.66443Z" fill="#855CF6"/>
<path d="M12.2577 13.907C12.3909 15.0407 11.2668 16.0941 10.1555 16.2301C9.04448 16.3667 8.03564 15.558 7.90168 14.424C7.76847 13.2904 8.8615 12.2579 9.97287 12.1216C11.0839 11.9853 12.1245 12.7734 12.2577 13.907ZM16.4966 11.3217C15.3856 11.458 14.2922 12.4905 14.4258 13.6241C14.5594 14.7581 15.5686 15.5668 16.6796 15.4305C17.7906 15.2942 18.9155 14.2411 18.7819 13.1071C18.6483 11.9735 17.608 11.1858 16.4966 11.3217ZM23.0208 10.5218C21.9098 10.6581 20.8168 11.6905 20.95 12.8246C21.0836 13.9582 22.0928 14.7665 23.2034 14.6306C24.3148 14.4943 25.4396 13.4408 25.306 12.3072C25.1724 11.1735 24.1318 10.3854 23.0208 10.5218Z" fill="white"/>
</svg>
