<svg width="32" height="32" viewBox="0 0 32 32" fill="none" xmlns="http://www.w3.org/2000/svg">
<path d="M15.875 1.29707L15.741 1.37105C15.5999 1.44926 15.4437 1.50053 15.2924 1.55505C15.1028 1.62319 14.9254 1.69556 14.7567 1.80783C12.2947 3.44951 13.4025 7.07521 13.8113 9.42983C13.8355 9.57066 13.8639 9.71085 13.8881 9.85168C13.9032 9.93865 13.9378 10.1145 13.9414 10.2203C13.8806 10.2904 13.7861 10.3751 13.7263 10.4322C13.6417 10.5137 13.5525 10.5935 13.4701 10.6769C13.3466 10.8012 13.2443 10.9391 13.1319 11.0725C13.0443 11.177 12.9319 11.2639 12.8404 11.3681C11.8231 12.5224 10.7107 13.9142 10.16 15.3547C10.0136 15.7178 9.88847 16.0877 9.78455 16.4667C9.72246 16.6929 9.6914 16.9253 9.65316 17.1557C9.63617 17.2592 9.6107 17.4828 9.57083 17.573L9.51787 17.694L9.52246 17.8267C9.54566 18.4933 9.46722 19.1381 9.56133 19.8065C9.6061 20.1216 9.67277 20.4325 9.75349 20.7405C9.78781 20.8709 9.84075 21.0017 9.88683 21.1289C9.9182 21.2152 9.96657 21.3424 9.97539 21.4326L9.99205 21.6079L10.1041 21.7448C10.1564 21.8094 10.193 21.9249 10.229 22.0012C10.2924 22.1378 10.3666 22.2686 10.4404 22.4003C10.5849 22.658 10.7499 22.9465 10.9476 23.1691C11.3424 23.8359 12.3224 24.6258 13.1009 25.0866C13.0231 25.0824 12.9447 25.084 12.8662 25.0914C12.3437 25.143 11.8927 25.4555 11.696 25.9465C11.1675 27.2656 12.1499 29.1244 13.2264 29.9113C13.4979 30.1099 13.7881 30.2764 14.1015 30.4013C14.2943 30.4782 14.4947 30.5263 14.6976 30.571C14.8064 30.5947 14.9381 30.6165 15.0407 30.6587L15.1482 30.7021H16.241L16.3629 30.6434C16.4593 30.5967 16.6129 30.5665 16.7178 30.5366C16.9731 30.463 17.2241 30.3793 17.4659 30.2693C18.2012 29.9366 18.7636 29.4191 19.1554 28.7178C19.5525 28.0065 19.7672 27.3098 19.7064 26.4901C19.6747 26.0653 19.5747 25.6535 19.5084 25.2352C20.1966 24.8659 20.9825 24.1332 21.4038 23.5293C22.075 22.5668 22.3541 21.7724 22.5109 20.6162L22.5145 20.5893L22.5152 20.5613C22.5374 19.9224 22.4832 19.3068 22.2884 18.6945C21.6361 16.6433 19.8577 15.3047 17.7172 15.1999L17.4299 13.5699C17.3087 12.8806 17.1649 12.1959 17.0368 11.508C17.0195 11.4148 16.9675 11.1555 16.975 11.053C17.0361 10.9625 17.1904 10.8246 17.2655 10.7447C17.6583 10.3271 17.993 9.86564 18.2995 9.38375C19.2717 7.85662 19.9678 5.7415 19.5263 3.93887C19.3296 3.13636 18.9593 2.40817 18.2675 1.92012C18.0463 1.7637 17.8077 1.64461 17.5571 1.54206C17.4178 1.48528 17.2646 1.4379 17.1332 1.36716L17.0022 1.29707H15.875ZM16.274 7.11156C16.1917 6.61734 16.0992 6.11987 16.0531 5.6211C16.0162 5.22164 16.0574 4.67711 16.2322 4.31205C16.2574 4.25915 16.3139 4.14817 16.3662 4.11734C16.4021 4.09593 16.4718 4.12741 16.5035 4.14233C16.6734 4.22346 16.7839 4.69626 16.8015 4.86598C16.8652 5.46988 16.6466 6.25584 16.4329 6.8195C16.3878 6.93957 16.3384 7.05996 16.2855 7.1797L16.274 7.11156ZM13.7414 22.0619C12.9103 21.2766 12.4143 20.1836 12.3437 19.0488C12.263 17.7566 12.6502 16.5699 13.2888 15.4569C13.628 14.8656 14.0891 14.2435 14.5597 13.712L14.9652 16.0358C14.4544 16.4031 13.9692 16.9976 13.6878 17.5334C13.2414 18.3823 13.1002 19.3837 13.3427 20.3144C13.5032 20.929 13.9705 21.4167 14.6231 21.4894C15.1182 21.5452 15.5822 21.3382 15.874 20.9634C15.8871 21.0329 15.8995 21.102 15.912 21.1717C16.0152 21.7383 16.1172 22.3056 16.2116 22.8738C16.2283 22.9724 16.2446 23.0714 16.2603 23.17C15.311 23.1061 14.4388 22.7203 13.7414 22.0619ZM18.2515 18.1467C19.625 18.6357 20.0551 20.3212 19.2995 21.5696C19.2044 21.727 19.0809 21.897 18.9492 22.0554L18.2515 18.1467ZM14.726 27.4847C14.2933 26.9028 14.5982 26.2652 14.1848 25.6749C14.16 25.6395 14.1342 25.6061 14.1071 25.574C14.5767 25.7622 15.0593 25.8985 15.5786 25.9429C15.8659 25.9676 16.1538 25.9673 16.4417 25.967C16.5525 25.967 16.6629 25.9666 16.7734 25.9679C16.8554 26.3554 16.9227 26.7876 16.7646 27.1514C16.576 27.5859 16.2142 27.8342 15.7388 27.8621C15.7142 27.8637 15.6894 27.8643 15.6639 27.8643C15.3352 27.8643 14.9211 27.7469 14.726 27.4847Z" fill="#855CF6"/>
</svg>
