<svg width="32" height="32" viewBox="0 0 32 32" fill="none" xmlns="http://www.w3.org/2000/svg">
<path d="M28.3405 10.5708C27.4455 14.7787 25.0914 25.8581 24.1679 30.2022C21.5314 31.1712 17.3967 31.2184 14.3698 31.0093V31.0099L14.1111 30.9912V30.9905C11.1451 30.7724 6.95691 30.0981 4.57953 28.776C4.45166 25.0048 4.02307 12.3346 3.90332 8.79159C7.78636 9.00374 12.1271 9.23998 16.0125 9.45146L16.0128 9.44711C16.0771 9.45381 16.207 9.46318 16.2713 9.46619L16.2709 9.47021C20.1465 9.82424 24.467 10.2164 28.3405 10.5708Z" fill="#FFA9D8"/>
<path d="M16.271 9.47028L17.0943 9.5459L15.1949 31.0582C14.927 31.0445 14.6516 31.0288 14.3695 31.0093L14.3699 31.01L14.1107 30.9913V30.9909C13.88 30.9725 13.6547 30.9531 13.4339 30.9324L15.3333 9.4144L16.0122 9.4512L16.0125 9.44719C16.0771 9.45422 16.207 9.46325 16.2713 9.46593L16.271 9.47028ZM21.7002 9.96519L18.7248 31.0826C18.1744 31.1054 17.5797 31.1164 16.939 31.1091L19.9419 9.8049L21.7002 9.96519ZM12.4752 9.25946L11.7016 30.738C11.0683 30.654 10.4844 30.5593 9.94355 30.4609L10.7101 9.16309L12.4752 9.25946ZM7.92778 30.0172C7.21605 29.8321 6.62881 29.6458 6.15658 29.4754L6.00977 8.90677L7.77758 9.00314L7.92778 30.0172ZM26.3863 10.3922L22.642 30.6332C22.1522 30.7366 21.5389 30.8414 20.795 30.926L24.6246 10.2319L26.3863 10.3922Z" fill="#FFE0F2"/>
<path d="M28.3414 10.5702C28.7213 12.855 3.17727 11.0146 3.90389 8.79098C3.524 6.50684 29.0677 8.3466 28.3414 10.5702Z" fill="white"/>
<path d="M29.3676 11.0208L29.2228 12.6614C27.8907 14.7923 20.723 14.4226 15.7227 14.2027C10.7917 13.7075 3.56921 13.0088 2.66602 10.7283L2.81215 9.07427C2.80911 9.01905 2.81249 8.96317 2.82669 8.90662C2.51413 5.66311 30.195 7.64576 29.3835 10.8407C29.3893 10.9026 29.3818 10.9625 29.3676 11.0208Z" fill="#DF6AAD"/>
<path d="M21.686 11.652C22.4076 10.4296 21.9201 8.67888 18.8618 9.08913C18.8618 9.08913 20.66 8.33957 19.8181 6.62697C18.9758 4.91503 16.2814 5.67329 15.8149 6.4871L15.3481 7.30057C14.8312 6.11901 13.0316 7.35611 13.9274 8.48012C13.3878 8.34225 11.9725 8.51625 11.6444 9.46391C11.1752 10.4862 12.8422 11.0393 13.608 11.2351C14.3702 11.312 15.1587 11.381 15.9665 11.4399C18.0259 11.5898 19.9723 11.6577 21.686 11.652Z" fill="#FFE772"/>
<path d="M12.9964 8.49121C12.9934 8.48819 12.99 8.48517 12.9873 8.48248C13.1118 8.46065 13.2319 8.44923 13.3425 8.44453C13.2315 8.45259 13.1152 8.4677 12.9964 8.49121Z" fill="#D76A5A"/>
<path d="M13.0015 8.49609C12.9995 8.49475 12.9981 8.49307 12.9961 8.49139C13.1148 8.46822 13.2315 8.4531 13.3425 8.44504C13.3482 8.44437 13.3547 8.44437 13.3608 8.44437C13.2468 8.45411 13.125 8.47124 13.0015 8.49609Z" fill="#FFCD8B"/>
<path d="M16.4619 6.46382C16.2762 7.55302 19.1065 8.0332 19.2824 6.93195C19.4681 5.84275 16.6378 5.36257 16.4619 6.46382Z" fill="#FFF7D7"/>
<path d="M13.3877 8.44238C13.4476 8.43765 13.5051 8.43528 13.5592 8.4346C13.5606 8.43596 13.5616 8.43731 13.5626 8.43832C13.5068 8.43765 13.4482 8.439 13.3877 8.44238Z" fill="#CF3B49"/>
<path d="M15.6445 9.16211C15.6473 9.15586 15.6501 9.1503 15.6525 9.1444C15.6532 9.14406 15.6539 9.14406 15.6549 9.14371C15.6515 9.14996 15.648 9.15586 15.6445 9.16211Z" fill="#E76056"/>
<path d="M18.4561 7.53906C18.4821 7.50694 18.5071 7.47515 18.5328 7.44236C18.5802 7.45273 18.6536 7.45072 18.7449 7.43533C18.7926 7.43165 18.8393 7.42629 18.8857 7.4196C18.7605 7.47883 18.614 7.51832 18.4561 7.53906Z" fill="#ED877B"/>
<path d="M13.1052 7.57824C13.8471 9.99356 17.0086 9.42169 18.5325 7.44306C21.4295 7.48321 21.7928 2.11183 17.1872 4.10752C17.1872 4.10752 18.7084 2.89819 17.4236 1.48039C16.1385 0.0625916 13.7584 1.52356 13.5352 2.43273L13.3122 3.34191C12.4875 2.34607 11.0999 4.0242 12.2741 4.86143C11.7166 4.87582 10.4041 5.42728 10.351 6.42781C10.1359 7.85632 13.1052 7.57824 13.1052 7.57824Z" fill="#FFE772"/>
<path d="M13.5596 8.43457C13.3668 8.20703 13.2115 7.92293 13.106 7.57793C13.106 7.57793 13.1053 7.57793 13.1039 7.57793C13.1053 7.57793 13.106 7.57793 13.106 7.57793C13.2122 7.92293 13.3674 8.20703 13.5603 8.43457C13.5603 8.43457 13.5599 8.43457 13.5596 8.43457ZM13.1016 7.57827H13.1029H13.1016Z" fill="#DB715B"/>
<path d="M20.3477 6.43457C20.6267 5.97781 20.7401 5.43237 20.6599 4.94683C20.667 4.93713 20.6741 4.92742 20.6812 4.91739C20.8179 5.53376 20.6639 6.03101 20.3845 6.41617C20.372 6.42219 20.3598 6.42821 20.3477 6.43457Z" fill="#FFCFA8"/>
<path d="M13.5613 8.43848C13.5605 8.43767 13.5597 8.43659 13.5586 8.43552C13.5589 8.43552 13.5591 8.43552 13.5591 8.43552C13.5599 8.43659 13.5607 8.43767 13.5616 8.43848H13.5613Z" fill="#E97756"/>
<path d="M13.568 8.44434L13.5625 8.43768C13.5625 8.43768 13.5629 8.43805 13.5629 8.43768C13.5647 8.4399 13.5669 8.44212 13.5688 8.44434C13.5684 8.44434 13.5684 8.44434 13.568 8.44434Z" fill="#F79866"/>
<path d="M13.9871 8.8125C13.8339 8.71211 13.6935 8.58964 13.5684 8.44408C13.5687 8.44408 13.5687 8.44408 13.569 8.44408C13.6939 8.58964 13.8346 8.71211 13.9871 8.8125Z" fill="#F79260"/>
<path d="M16.3418 8.99219L16.3473 8.99071C16.3459 8.99108 16.3436 8.99182 16.3418 8.99219Z" fill="#F4885C"/>
<path d="M17.2891 8.55469C17.4433 8.46032 17.5932 8.35626 17.738 8.24282C17.7376 8.24315 17.7373 8.24315 17.7369 8.24349C17.5928 8.35692 17.4433 8.46066 17.2894 8.55469H17.2891ZM17.9585 8.05844C18.1117 7.92191 18.2565 7.77468 18.3912 7.61741C18.2565 7.77468 18.1121 7.92158 17.9588 8.05811C17.9588 8.05811 17.9585 8.05811 17.9585 8.05844Z" fill="#F79866"/>
<path d="M16.3477 8.99023C16.6687 8.8865 16.9873 8.7396 17.2897 8.55422H17.2901C16.9873 8.7396 16.6687 8.8865 16.3477 8.99023Z" fill="#F4885C"/>
<path d="M18.3945 7.61328L18.3989 7.60855L18.3945 7.61328Z" fill="#F79866"/>
<path d="M18.5332 7.4427C18.6056 7.44372 18.6763 7.44135 18.7456 7.4356C18.654 7.45116 18.5809 7.45319 18.5332 7.4427Z" fill="#F7996D"/>
<path d="M11.3816 5.12598C11.3779 5.1243 11.3742 5.1223 11.3701 5.12029C11.4841 5.06541 11.5961 5.02191 11.7009 4.98744C11.5968 5.02525 11.4885 5.07177 11.3816 5.12598Z" fill="#FFD4B2"/>
<path d="M19.585 10.6762C19.5407 11.0275 19.564 11.3444 19.6432 11.6262C23.3361 11.7276 26.3001 11.5305 27.6112 11.1002C27.7391 10.1418 27.0128 9.16268 24.7416 9.14896C24.7416 9.14896 26.6285 8.6564 26.0379 6.84407C25.4473 5.03175 22.6721 5.4082 22.0943 6.14906L21.5169 6.88992C21.1728 5.64813 19.2153 6.62255 19.9432 7.85999C19.4277 7.64885 18.0022 7.62408 17.5428 8.51686C16.7584 9.73489 19.585 10.6762 19.585 10.6762Z" fill="#FFE772"/>
<path d="M19.6101 11.4932C19.558 11.2455 19.5472 10.9728 19.5851 10.676C19.5475 10.9732 19.5587 11.2455 19.6108 11.4928C19.6104 11.4928 19.6104 11.4932 19.6101 11.4932Z" fill="#F79866"/>
<path d="M19.6432 11.626C19.631 11.5825 19.6202 11.5383 19.6104 11.4931C19.6107 11.4931 19.6107 11.4928 19.611 11.4928C19.6205 11.538 19.6313 11.5825 19.6435 11.626H19.6432Z" fill="#F7915F"/>
<path d="M19.0903 10.4814C19.0893 10.4811 19.0883 10.4808 19.0876 10.4804C19.0883 10.4808 19.0893 10.4811 19.0903 10.4814ZM19.0849 10.4791C18.8221 10.3643 18.4936 10.203 18.1969 10.0056C18.4936 10.203 18.8221 10.3643 19.0849 10.4791ZM17.4805 8.62696C17.4977 8.59049 17.5187 8.55334 17.5424 8.5162C17.5427 8.51587 17.543 8.51553 17.543 8.5152C17.543 8.51553 17.5427 8.51587 17.5427 8.5162C17.5187 8.55334 17.4981 8.59049 17.4805 8.62696Z" fill="#F79866"/>
<path d="M18.1973 10.0059C17.6584 9.64647 17.2248 9.16696 17.4808 8.62721C17.2248 9.16696 17.6584 9.64647 18.1973 10.0059Z" fill="#F4885C"/>
<path d="M18.1543 7.94727C18.2311 7.90644 18.3096 7.87264 18.3884 7.84487C18.3894 7.84788 18.3901 7.85056 18.3911 7.85357C18.3099 7.88001 18.2307 7.91079 18.1543 7.94727Z" fill="#F79866"/>
<path d="M19.0198 7.74177C19.0171 7.73873 19.0141 7.73501 19.0117 7.73196C19.1382 7.72757 19.2587 7.73298 19.3686 7.74414C19.2576 7.73636 19.1399 7.73501 19.0198 7.74177Z" fill="#F69667"/>
<path d="M14.2394 11.2959C15.1338 10.0759 14.7675 8.10693 11.5427 8.5396C11.5427 8.5396 13.3413 7.78971 12.499 6.07744C11.6571 4.36517 8.96272 5.12376 8.4959 5.93723L8.02942 6.7507C7.51254 5.56948 5.71292 6.80625 6.60867 7.93025C6.06913 7.79272 4.65379 7.96673 4.32533 8.91438C4.27053 9.03418 4.24516 9.14761 4.24414 9.25469C5.39258 10.025 9.32535 10.8371 14.2394 11.2959Z" fill="#FFE772"/>
<path d="M4.24316 9.25488C4.24418 9.1478 4.26989 9.03437 4.32469 8.91457C4.32503 8.91424 4.32503 8.9139 4.32536 8.91357C4.32503 8.9139 4.32503 8.91424 4.32469 8.91457C4.26989 9.03437 4.24452 9.1478 4.24316 9.25488ZM4.85003 8.26506C4.92005 8.21454 4.99278 8.17003 5.0672 8.13188C5.06821 8.13423 5.06923 8.13724 5.07058 8.13992C4.99413 8.17706 4.92005 8.21855 4.85003 8.26506Z" fill="#DB715B"/>
<path d="M5.6771 7.94238C5.67406 7.9397 5.67067 7.93634 5.66797 7.93399C5.79245 7.91182 5.9122 7.9004 6.02248 7.89603C5.91186 7.90376 5.7955 7.91921 5.6771 7.94238Z" fill="#D76A5A"/>
<path d="M4.65748 12.2763C4.4261 12.1819 4.21096 12.0829 4.01206 11.9795L4.01172 11.9724C4.18255 12.0624 4.37469 12.1511 4.58712 12.2378C6.03155 12.8267 8.3998 13.3253 11.1043 13.6921C10.9196 13.6676 10.7349 13.6425 10.5505 13.6171C9.60845 13.4856 8.67955 13.336 7.80782 13.1603C7.18337 13.0345 6.58835 12.8953 6.03798 12.7404C5.53666 12.5992 5.07254 12.4452 4.65748 12.2763ZM13.4536 13.9695C14.8882 14.1154 16.3658 14.2244 17.8109 14.292C17.4273 14.277 17.0498 14.2609 16.6801 14.2449C16.3543 14.2305 16.0346 14.2161 15.7234 14.2027C15.4613 14.1763 15.1923 14.1495 14.9183 14.1217C14.4434 14.0735 13.9529 14.0233 13.4536 13.9695ZM20.4362 14.3673C23.5521 14.3971 26.2596 14.194 27.6767 13.6951L27.6753 13.7014C27.1134 13.8965 26.4413 14.0394 25.6937 14.1425C25.1244 14.2208 24.5118 14.2756 23.8704 14.3125C22.9811 14.3633 22.0373 14.3794 21.08 14.374C20.8659 14.3727 20.6507 14.3703 20.4362 14.3673Z" fill="#E54056"/>
</svg>
