<svg width="329" height="287" viewBox="0 0 329 287" fill="none" xmlns="http://www.w3.org/2000/svg">
<mask id="path-1-outside-1_269_19064" maskUnits="userSpaceOnUse" x="-3.40106" y="0.446688" width="320.246" height="293.416" fill="black">
<rect fill="white" x="-3.40106" y="0.446688" width="320.246" height="293.416"/>
<path fill-rule="evenodd" clip-rule="evenodd" d="M164.23 273.16L163.168 163.845L148.304 167.457L164.033 87.2456L134.844 95.4476L154.801 43.0765C137.012 28.7905 112.711 19.1131 88.0934 19.3983C63.4761 19.6834 39.6126 29.5256 21.9457 53.586C2.4011 80.437 7.43153 123.648 32.7181 166.209C57.6505 208.966 102.99 250.344 164.23 273.16Z"/>
</mask>
<path fill-rule="evenodd" clip-rule="evenodd" d="M164.23 273.16L163.168 163.845L148.304 167.457L164.033 87.2456L134.844 95.4476L154.801 43.0765C137.012 28.7905 112.711 19.1131 88.0934 19.3983C63.4761 19.6834 39.6126 29.5256 21.9457 53.586C2.4011 80.437 7.43153 123.648 32.7181 166.209C57.6505 208.966 102.99 250.344 164.23 273.16Z" fill="#FEA8D9"/>
<path d="M286.912 155.792L291.161 157.858L291.166 157.848L291.171 157.838L286.912 155.792ZM288.072 42.6805L291.651 39.5968L291.645 39.5894L291.638 39.582L288.072 42.6805ZM166.236 277.438C226.385 249.227 268.977 203.496 291.161 157.858L282.663 153.727C261.422 197.425 220.411 241.592 162.224 268.883L166.236 277.438ZM291.171 157.838C312.804 112.791 315.197 66.9295 291.651 39.5968L284.492 45.7642C304.298 68.7551 303.735 109.848 282.653 153.747L291.171 157.838ZM291.638 39.582C271 15.8249 244.916 7.48217 219.017 9.3066L219.681 18.7326C242.898 17.0971 265.991 24.4676 284.505 45.7791L291.638 39.582ZM219.017 9.3066C193.244 11.1221 168.814 23.2893 151.552 39.647L158.051 46.5059C173.911 31.4765 196.337 20.377 219.681 18.7326L219.017 9.3066ZM164.23 273.16L160.931 282.015L173.812 286.815L173.679 273.069L164.23 273.16ZM154.801 43.0765L163.631 46.4414L166.08 40.0149L160.718 35.7088L154.801 43.0765ZM21.9457 53.586L14.3291 47.9934L14.3175 48.0092L14.3059 48.0251L21.9457 53.586ZM32.7181 166.209L40.881 161.449L40.8616 161.416L40.8418 161.382L32.7181 166.209ZM134.844 95.4476L126.014 92.0827L119.33 109.622L137.4 104.545L134.844 95.4476ZM164.033 87.2456L173.306 89.064L176.261 73.9943L161.477 78.1486L164.033 87.2456ZM148.304 167.457L139.031 165.639L136.19 180.124L150.535 176.639L148.304 167.457ZM163.168 163.845L172.617 163.753L172.502 151.853L160.937 154.663L163.168 163.845ZM160.718 35.7088C141.423 20.2136 115.035 9.63617 87.984 9.94954L88.2029 28.847C110.386 28.59 132.601 37.3674 148.885 50.4442L160.718 35.7088ZM87.984 9.94954C60.6784 10.2659 33.9134 21.3216 14.3291 47.9934L29.5623 59.1787C45.3118 37.7295 66.2738 29.101 88.2029 28.847L87.984 9.94954ZM14.3059 48.0251C-8.62147 79.5234 -1.36109 127.348 24.5943 171.035L40.8418 161.382C16.2242 119.947 13.4237 81.3505 29.5855 59.147L14.3059 48.0251ZM24.5552 170.969C50.5996 215.633 97.6688 258.445 160.931 282.015L167.529 264.306C108.312 242.242 64.7013 202.299 40.881 161.449L24.5552 170.969ZM145.972 39.7116L126.014 92.0827L143.674 98.8125L163.631 46.4414L145.972 39.7116ZM137.4 104.545L166.589 96.3427L161.477 78.1486L132.288 86.3506L137.4 104.545ZM154.76 85.4273L139.031 165.639L157.577 169.275L173.306 89.064L154.76 85.4273ZM150.535 176.639L165.399 173.027L160.937 154.663L146.073 158.275L150.535 176.639ZM153.72 163.937L154.781 273.252L173.679 273.069L172.617 163.753L153.72 163.937Z" fill="white" mask="url(#path-1-outside-1_269_19064)"/>
<path d="M166.47 265.021C228.129 243.361 274.239 202.844 300.333 160.585C326.055 118.485 331.897 75.3772 312.861 48.1632C295.65 23.7746 271.976 13.4851 247.369 12.7367C222.761 11.9883 198.282 21.2068 180.227 35.1554L155.104 85.2542L184.97 80.029L161.254 158.252L176.407 156.153L166.47 265.021Z" fill="#FEA8D9"/>
<path d="M139.253 102.316C139.253 106.061 138.117 109.769 135.91 113.229C133.703 116.689 130.468 119.833 126.39 122.481C122.312 125.129 117.47 127.23 112.142 128.663C106.813 130.096 101.102 130.834 95.335 130.834" stroke="black" stroke-width="5.51212"/>
<path d="M178.567 102.07C178.567 105.815 179.703 109.523 181.91 112.983C184.118 116.443 187.352 119.587 191.431 122.235C195.509 124.883 200.35 126.984 205.679 128.417C211.007 129.85 216.718 130.588 222.485 130.588" stroke="black" stroke-width="5.51212"/>
<path d="M145.523 181.243C145.523 177.262 144.739 173.32 143.215 169.642C141.692 165.964 139.459 162.621 136.643 159.806C133.828 156.991 130.486 154.758 126.808 153.234C123.13 151.711 119.188 150.927 115.206 150.927C111.225 150.927 107.283 151.711 103.605 153.234C99.9264 154.758 96.5844 156.991 93.7692 159.806C90.954 162.621 88.7209 165.964 87.1974 169.642C85.6738 173.32 84.8896 177.262 84.8896 181.243L145.523 181.243Z" fill="white"/>
<path d="M126.624 181.637C126.624 180.086 126.329 178.55 125.755 177.117C125.181 175.684 124.34 174.382 123.28 173.285C122.22 172.188 120.961 171.318 119.576 170.725C118.191 170.131 116.706 169.825 115.206 169.825C113.707 169.825 112.222 170.131 110.837 170.725C109.452 171.318 108.193 172.188 107.133 173.285C106.072 174.382 105.231 175.684 104.657 177.117C104.084 178.55 103.788 180.086 103.788 181.637H126.624Z" fill="black"/>
<path d="M232.929 181.243C232.929 177.262 232.145 173.32 230.622 169.642C229.098 165.964 226.865 162.621 224.05 159.806C221.235 156.991 217.892 154.758 214.214 153.234C210.536 151.711 206.594 150.927 202.613 150.927C198.631 150.927 194.689 151.711 191.011 153.234C187.333 154.758 183.991 156.991 181.175 159.806C178.36 162.621 176.127 165.964 174.604 169.642C173.08 173.32 172.296 177.262 172.296 181.243L232.929 181.243Z" fill="white"/>
<path d="M214.031 181.637C214.031 180.086 213.735 178.55 213.161 177.117C212.588 175.684 211.747 174.382 210.686 173.285C209.626 172.188 208.367 171.318 206.982 170.725C205.597 170.131 204.112 169.825 202.613 169.825C201.113 169.825 199.628 170.131 198.243 170.725C196.858 171.318 195.599 172.188 194.539 173.285C193.479 174.382 192.638 175.684 192.064 177.117C191.49 178.55 191.195 180.086 191.195 181.637H214.031Z" fill="black"/>
<path d="M174.068 193.45C174.068 196.035 173.283 198.595 171.76 200.983C170.236 203.372 168.003 205.542 165.188 207.37C162.373 209.198 159.031 210.648 155.353 211.637C151.674 212.627 147.732 213.136 143.751 213.136" stroke="black" stroke-width="5.51212"/>
</svg>
