<svg width="166" height="150" viewBox="0 0 166 150" fill="none" xmlns="http://www.w3.org/2000/svg">
<mask id="path-1-outside-1_269_17025" maskUnits="userSpaceOnUse" x="-7.34713" y="-7.62582" width="179.96" height="163.38" fill="black">
<rect fill="white" x="-7.34713" y="-7.62582" width="179.96" height="163.38"/>
<path d="M159.383 88.7261L151.582 64.9946C139.781 29.0991 101.116 9.56612 65.221 21.3664C29.3256 33.1667 9.79257 71.8317 21.5928 107.727L29.3943 131.459C32.4997 140.905 42.6747 146.045 52.1209 142.94L147.902 111.453C157.348 108.347 162.489 98.1722 159.383 88.7261Z"/>
</mask>
<path d="M159.383 88.7261L151.582 64.9946C139.781 29.0991 101.116 9.56612 65.221 21.3664C29.3256 33.1667 9.79257 71.8317 21.5928 107.727L29.3943 131.459C32.4997 140.905 42.6747 146.045 52.1209 142.94L147.902 111.453C157.348 108.347 162.489 98.1722 159.383 88.7261Z" fill="#855CF6"/>
<path d="M146.451 66.6814L154.252 90.4129L164.514 87.0393L156.713 63.3077L146.451 66.6814ZM34.5255 129.772L26.724 106.04L16.4617 109.414L24.2632 133.145L34.5255 129.772ZM146.215 106.321L50.434 137.809L53.8077 148.071L149.589 116.584L146.215 106.321ZM66.9078 26.4975C99.9694 15.6289 135.582 33.6198 146.451 66.6814L156.713 63.3077C143.981 24.5785 102.264 3.50338 63.5342 16.2352L66.9078 26.4975ZM63.5342 16.2352C24.8049 28.9671 3.72983 70.6846 16.4617 109.414L26.724 106.04C15.8553 72.9787 33.8462 37.3662 66.9078 26.4975L63.5342 16.2352ZM24.2632 133.145C28.3001 145.425 41.5276 152.108 53.8077 148.071L50.434 137.809C43.8217 139.982 36.6992 136.384 34.5255 129.772L24.2632 133.145ZM154.252 90.4129C156.426 97.0252 152.828 104.148 146.215 106.321L149.589 116.584C161.869 112.547 168.551 99.3193 164.514 87.0393L154.252 90.4129Z" fill="white" mask="url(#path-1-outside-1_269_17025)"/>
<path d="M103.545 81.7337C103.693 82.1829 103.413 82.7677 102.722 83.4547C102.031 84.1417 100.943 84.9175 99.5183 85.7376C98.094 86.5578 96.3621 87.4064 94.4213 88.2349C92.4805 89.0634 90.3688 89.8556 88.207 90.5663C86.0451 91.277 83.8753 91.8923 81.8215 92.377C79.7677 92.8616 77.87 93.2063 76.2369 93.3912C74.6038 93.576 73.2672 93.5976 72.3035 93.4545C71.3397 93.3115 70.7677 93.0066 70.62 92.5574M71.5632 88.22C71.9097 90.4751 71.3779 95.1511 66.4787 95.814M100.873 79.37C101.932 81.3908 105.134 84.8391 109.471 82.4658" stroke="black" stroke-width="3.15075"/>
<circle cx="67.2879" cy="72.3319" r="11.7028" transform="rotate(-18.1978 67.2879 72.3319)" fill="white"/>
<circle cx="93.7986" cy="63.6165" r="11.7028" transform="rotate(-18.1978 93.7986 63.6165)" fill="white"/>
<circle cx="67.4313" cy="72.0479" r="5.17624" transform="rotate(-18.1978 67.4313 72.0479)" fill="black"/>
<circle cx="93.9421" cy="63.3326" r="5.17624" transform="rotate(-18.1978 93.9421 63.3326)" fill="black"/>
</svg>
