<svg width="241" height="241" viewBox="0 0 241 241" fill="none" xmlns="http://www.w3.org/2000/svg">
<path d="M143.87 29.2407C140.323 20.2936 128.374 18.6324 122.521 26.2728L102.574 52.3127C100.882 54.5216 97.9968 55.448 95.3351 54.6369L63.9578 45.075C54.7514 42.2694 46.0023 50.576 48.3267 59.9155L56.2487 91.7464C56.9207 94.4466 55.846 97.2802 53.5523 98.8554L26.513 117.425C18.5795 122.874 19.6188 134.893 28.37 138.899L58.1957 152.552C60.7258 153.71 62.271 156.317 62.0725 159.092L59.7325 191.811C59.0459 201.411 69.091 208.092 77.6791 203.747L106.949 188.941C109.432 187.685 112.434 188.102 114.48 189.988L138.601 212.217C145.679 218.739 157.165 215.051 159.123 205.628L165.797 173.512C166.363 170.788 168.561 168.701 171.311 168.277L203.729 163.278C213.241 161.811 217.52 150.531 211.373 143.125L190.425 117.884C188.648 115.743 188.387 112.723 189.77 110.309L206.074 81.8461C210.858 73.4948 204.707 63.1167 195.084 63.3046L162.288 63.945C159.506 63.9993 156.983 62.3209 155.958 59.7343L143.87 29.2407Z" fill="#FFE772" stroke="white" stroke-width="5.71703"/>
<path d="M112.096 118.98C112.428 116.594 112.286 114.166 111.68 111.835C111.073 109.504 110.014 107.315 108.561 105.393C107.109 103.472 105.292 101.855 103.215 100.636C101.137 99.4165 98.8403 98.6181 96.4545 98.2864C94.0688 97.9548 91.641 98.0962 89.3099 98.7028C86.9788 99.3094 84.79 100.369 82.8685 101.822C80.9469 103.274 79.3303 105.091 78.1109 107.168C76.8914 109.245 76.0931 111.542 75.7614 113.928L112.096 118.98Z" fill="white"/>
<path d="M100.739 117.641C100.868 116.712 100.819 115.767 100.594 114.86C100.37 113.953 99.9744 113.103 99.4304 112.357C98.8864 111.612 98.2046 110.986 97.4239 110.514C96.6432 110.043 95.7789 109.737 94.8804 109.612C93.9818 109.487 93.0666 109.546 92.187 109.786C91.3074 110.027 90.4807 110.443 89.7539 111.012C89.0272 111.581 88.4147 112.291 87.9515 113.102C87.4882 113.913 87.1833 114.809 87.054 115.739L100.739 117.641Z" fill="black"/>
<path d="M164.474 126.262C164.806 123.876 164.664 121.448 164.058 119.117C163.451 116.786 162.391 114.597 160.939 112.675C159.487 110.754 157.67 109.137 155.593 107.918C153.515 106.698 151.218 105.9 148.832 105.568C146.447 105.237 144.019 105.378 141.688 105.985C139.357 106.591 137.168 107.651 135.246 109.104C133.325 110.556 131.708 112.373 130.489 114.45C129.269 116.527 128.471 118.824 128.139 121.21L164.474 126.262Z" fill="white"/>
<path d="M153.117 124.923C153.246 123.994 153.197 123.049 152.972 122.142C152.748 121.235 152.352 120.385 151.808 119.639C151.264 118.894 150.583 118.268 149.802 117.796C149.021 117.325 148.157 117.019 147.258 116.894C146.36 116.769 145.445 116.828 144.565 117.068C143.685 117.309 142.859 117.725 142.132 118.294C141.405 118.863 140.793 119.573 140.329 120.384C139.866 121.195 139.561 122.091 139.432 123.021L153.117 124.923Z" fill="black"/>
<path d="M104.196 132.552C103.981 134.101 104.238 135.701 104.952 137.259C105.666 138.817 106.823 140.304 108.358 141.634C109.892 142.964 111.774 144.111 113.896 145.01C116.018 145.91 118.338 146.543 120.724 146.875M107.585 128.935C106.954 131.172 104.26 135.206 98.54 133.449" stroke="black" stroke-width="3.33494"/>
</svg>
