<svg width="177" height="191" viewBox="0 0 177 191" fill="none" xmlns="http://www.w3.org/2000/svg">
<path d="M116.61 21.8263L114.866 23.4051L116.61 21.8263C114.535 19.5349 111.396 18.5242 108.374 19.1751L39.164 34.082C36.1423 34.7328 33.6974 36.9463 32.7501 39.8885L11.0549 107.28C10.1077 110.222 10.8021 113.446 12.8766 115.737L60.3914 168.222C62.4659 170.513 65.6053 171.524 68.6269 170.873L137.837 155.966C140.859 155.315 143.304 153.102 144.251 150.159L165.946 82.7683C166.893 79.8261 166.199 76.6019 164.124 74.3105L116.61 21.8263Z" fill="#FB8073" stroke="white" stroke-width="4.71916"/>
<path d="M84.8234 84.751C85.4327 82.8584 85.6632 80.8642 85.5019 78.8825C85.3405 76.9008 84.7904 74.9702 83.8829 73.2011C82.9755 71.4319 81.7284 69.8589 80.213 68.5717C78.6976 67.2845 76.9435 66.3084 75.0509 65.6991C73.1583 65.0898 71.1641 64.8592 69.1824 65.0206C67.2007 65.1819 65.2701 65.7321 63.501 66.6395C61.7318 67.547 60.1588 68.794 58.8716 70.3094C57.5844 71.8248 56.6082 73.5789 55.9989 75.4715L84.8234 84.751Z" fill="white"/>
<path d="M103.785 96.4328C103.389 97.6618 102.624 98.7588 101.534 99.661C100.445 100.563 99.051 101.253 97.4329 101.691C95.8148 102.13 94.0041 102.307 92.1041 102.215C90.2042 102.122 88.2521 101.761 86.3595 101.152C84.4668 100.542 82.6707 99.697 81.0735 98.6638C79.4763 97.6305 78.1095 96.4297 77.0509 95.1298C75.9924 93.83 75.2629 92.4565 74.9042 91.0879C74.5454 89.7193 74.5644 88.3824 74.9601 87.1534" stroke="black" stroke-width="2.75285"/>
<path d="M75.7787 82.0458C76.0161 81.3084 76.1108 80.533 76.0573 79.764C76.0039 78.9949 75.8033 78.2472 75.4671 77.5635C75.131 76.8798 74.6658 76.2736 74.098 75.7794C73.5303 75.2852 72.8713 74.9127 72.1584 74.6832C71.4456 74.4537 70.693 74.3718 69.9436 74.4419C69.1943 74.5121 68.4627 74.7331 67.7908 75.0922C67.1189 75.4514 66.5198 75.9417 66.0277 76.5351C65.5356 77.1286 65.1602 77.8135 64.9228 78.5509L75.7787 82.0458Z" fill="black"/>
<path d="M126.375 98.128C126.984 96.2353 127.215 94.2412 127.054 92.2595C126.892 90.2777 126.342 88.3472 125.435 86.578C124.527 84.8089 123.28 83.2358 121.765 81.9486C120.249 80.6614 118.495 79.6853 116.603 79.076C114.71 78.4667 112.716 78.2362 110.734 78.3975C108.752 78.5589 106.822 79.109 105.053 80.0165C103.284 80.9239 101.711 82.171 100.423 83.6864C99.1361 85.2018 98.16 86.9559 97.5507 88.8485L126.375 98.128Z" fill="white"/>
<path d="M117.33 95.4228C117.568 94.6854 117.663 93.91 117.609 93.1409C117.556 92.3718 117.355 91.6241 117.019 90.9404C116.683 90.2568 116.218 89.6505 115.65 89.1563C115.082 88.6621 114.423 88.2897 113.71 88.0602C112.997 87.8307 112.245 87.7487 111.495 87.8189C110.746 87.8891 110.014 88.11 109.343 88.4692C108.671 88.8283 108.072 89.3186 107.579 89.9121C107.087 90.5055 106.712 91.1905 106.475 91.9279L117.33 95.4228Z" fill="black"/>
</svg>
