<svg width="68" height="68" viewBox="0 0 68 68" fill="none" xmlns="http://www.w3.org/2000/svg">
<path d="M34.0764 62.3878C49.7945 62.3878 62.5408 49.6805 62.5408 33.9999C62.5408 18.3193 49.7945 5.61207 34.0764 5.61207C18.3584 5.61207 5.61207 18.3193 5.61207 33.9999C5.61207 49.6805 18.3584 62.3878 34.0764 62.3878Z" fill="#FEA8D9" stroke="white" stroke-width="1.83641"/>
<path d="M31.7542 29.65C31.7542 30.4874 31.5893 31.3167 31.2688 32.0904C30.9483 32.8641 30.4786 33.5671 29.8864 34.1593C29.2942 34.7515 28.5912 35.2212 27.8175 35.5417C27.0438 35.8622 26.2146 36.0271 25.3771 36.0271C24.5397 36.0271 23.7104 35.8622 22.9367 35.5417C22.163 35.2212 21.46 34.7515 20.8678 34.1593C20.2756 33.5671 19.8059 32.8641 19.4854 32.0904C19.1649 31.3167 19 30.4874 19 29.65" stroke="black" stroke-width="1.5"/>
<path d="M48.8223 29.65C48.8223 30.4874 48.6574 31.3167 48.3369 32.0904C48.0164 32.8641 47.5467 33.5671 46.9545 34.1593C46.3624 34.7515 45.6594 35.2212 44.8856 35.5417C44.1119 35.8622 43.2827 36.0271 42.4452 36.0271C41.6078 36.0271 40.7785 35.8622 40.0048 35.5417C39.2311 35.2212 38.5281 34.7515 37.9359 34.1593C37.3438 33.5671 36.874 32.8641 36.5535 32.0904C36.2331 31.3167 36.0681 30.4874 36.0681 29.65" stroke="black" stroke-width="1.5"/>
<path d="M41.1322 38.8402C41.1322 39.456 40.9454 40.0658 40.5826 40.6347C40.2197 41.2036 39.6878 41.7205 39.0172 42.1559C38.3467 42.5913 37.5506 42.9367 36.6745 43.1724C35.7984 43.408 34.8594 43.5293 33.9111 43.5293C32.9628 43.5293 32.0238 43.408 31.1477 43.1724C30.2716 42.9367 29.4755 42.5913 28.805 42.1559C28.1344 41.7205 27.6025 41.2036 27.2396 40.6347C26.8767 40.0658 26.6899 39.456 26.6899 38.8402" stroke="black" stroke-width="1.5"/>
</svg>
