<svg width="68" height="68" viewBox="0 0 68 68" fill="none" xmlns="http://www.w3.org/2000/svg">
<path d="M34.0764 62.3878C49.7945 62.3878 62.5408 49.6805 62.5408 33.9999C62.5408 18.3193 49.7945 5.61207 34.0764 5.61207C18.3584 5.61207 5.61207 18.3193 5.61207 33.9999C5.61207 49.6805 18.3584 62.3878 34.0764 62.3878Z" fill="#4ED78B" stroke="white" stroke-width="1.83641"/>
<path d="M33.6028 34.5265C33.6028 37.2198 31.4195 39.4031 28.7262 39.4031C26.0329 39.4031 23.8496 37.2198 23.8496 34.5265C23.8496 31.8332 26.0329 29.6499 28.7262 29.6499C31.4195 29.6499 33.6028 31.8332 33.6028 34.5265Z" fill="white"/>
<path d="M33.6028 34.4327C33.6028 35.624 32.6371 36.5897 31.4459 36.5897C30.2546 36.5897 29.2889 35.624 29.2889 34.4327C29.2889 33.2415 30.2546 32.2758 31.4459 32.2758C32.6371 32.2758 33.6028 33.2415 33.6028 34.4327Z" fill="black"/>
<path d="M45.2317 34.5265C45.2317 37.2198 43.0484 39.4031 40.3551 39.4031C37.6619 39.4031 35.4785 37.2198 35.4785 34.5265C35.4785 31.8332 37.6619 29.6499 40.3551 29.6499C43.0484 29.6499 45.2317 31.8332 45.2317 34.5265Z" fill="white"/>
<path d="M45.2317 34.4327C45.2317 35.624 44.266 36.5897 43.0748 36.5897C41.8835 36.5897 40.9178 35.624 40.9178 34.4327C40.9178 33.2415 41.8835 32.2758 43.0748 32.2758C44.266 32.2758 45.2317 33.2415 45.2317 34.4327Z" fill="black"/>
<path d="M41.7619 42.2165C41.7619 42.8322 41.5751 43.442 41.2122 44.0109C40.8493 44.5798 40.3174 45.0967 39.6468 45.5321C38.9763 45.9675 38.1802 46.3129 37.3041 46.5486C36.428 46.7842 35.489 46.9055 34.5407 46.9055C33.5924 46.9055 32.6534 46.7842 31.7773 46.5486C30.9012 46.3129 30.1051 45.9675 29.4346 45.5321C28.7641 45.0967 28.2322 44.5798 27.8693 44.0109C27.5064 43.442 27.3196 42.8322 27.3196 42.2165" stroke="black" stroke-width="1.31294"/>
</svg>
