<svg width="210" height="205" viewBox="0 0 210 205" fill="none" xmlns="http://www.w3.org/2000/svg">
<path d="M76.5173 31.6633C77.9768 25.6232 85.4258 23.4317 89.9238 27.719L198.599 131.304C203.093 135.587 201.274 143.137 195.313 144.891L51.3734 187.239C45.4119 188.993 39.7947 183.631 41.253 177.596L76.5173 31.6633Z" fill="#4ED78B" stroke="white" stroke-width="5.71429"/>
<path d="M95.7286 127.034C97.6586 133.594 104.541 137.347 111.101 135.417C117.66 133.487 121.414 126.605 119.484 120.045C117.554 113.485 110.671 109.732 104.112 111.662C97.5519 113.592 93.7987 120.474 95.7286 127.034Z" fill="white"/>
<path d="M95.6614 126.806C96.5151 129.707 99.5592 131.367 102.461 130.514C105.362 129.66 107.022 126.616 106.168 123.715C105.315 120.813 102.271 119.153 99.3693 120.007C96.4679 120.86 94.8078 123.904 95.6614 126.806Z" fill="black"/>
<path d="M67.4054 135.367C69.3353 141.927 76.2176 145.68 82.7774 143.75C89.3372 141.82 93.0905 134.938 91.1605 128.378C89.2306 121.819 82.3482 118.065 75.7885 119.995C69.2287 121.925 65.4754 128.808 67.4054 135.367Z" fill="white"/>
<path d="M67.3382 135.139C68.1918 138.04 71.2359 139.7 74.1374 138.847C77.0388 137.993 78.6989 134.949 77.8453 132.048C76.9916 129.146 73.9475 127.486 71.0461 128.34C68.1446 129.193 66.4845 132.237 67.3382 135.139Z" fill="black"/>
<path d="M82.7384 155.427C82.8796 155.907 83.4744 156.248 84.4887 156.431C85.503 156.615 86.9171 156.636 88.6501 156.495C90.3832 156.354 92.4012 156.053 94.5891 155.609C96.777 155.165 99.0919 154.586 101.402 153.907C103.711 153.227 105.971 152.46 108.05 151.648C110.13 150.837 111.99 149.997 113.523 149.177C115.057 148.358 116.234 147.574 116.987 146.87C117.74 146.167 118.055 145.558 117.914 145.078M114.488 141.867C115.54 144.039 118.812 147.792 123.477 145.426M83.646 151.763C83.9374 154.159 83.2194 159.086 78.0168 159.624" stroke="black" stroke-width="3.33333"/>
</svg>
