<svg width="182" height="182" viewBox="0 0 182 182" fill="none" xmlns="http://www.w3.org/2000/svg">
<path d="M11.4259 87.2252L13.0395 89.3224L11.4259 87.2252C4.33271 92.6826 1.99253 102.371 3.07047 110.754C4.13917 119.066 8.8027 127.488 17.3117 129.395L24.5876 131.026C31.2144 132.512 36.96 140.681 37.0409 151.452L37.0464 152.189C37.1212 162.134 41.101 170.515 47.043 175.217C53.1052 180.015 61.1363 180.845 68.2071 175.561L80.017 166.737C86.9025 161.593 95.0984 161.593 101.984 166.737L113.794 175.561C120.865 180.845 128.896 180.015 134.958 175.217C140.9 170.515 144.88 162.134 144.954 152.189L144.96 151.452C145.041 140.681 150.786 132.512 157.413 131.026L164.689 129.395C173.198 127.488 177.862 119.066 178.93 110.754C180.008 102.371 177.668 92.6826 170.575 87.2252C167.526 84.8792 165.351 80.8507 164.528 76.1303C163.707 71.4309 164.284 66.3386 166.39 62.1038C170.379 54.0825 169.881 44.8314 166.639 37.9095C163.424 31.0459 157.009 25.6904 148.945 27.3829L132.488 30.8368C125.746 32.2517 118.511 28.4501 114.092 19.883L113.288 18.3233C108.102 8.26909 99.7527 2.81818 91.0005 2.81818C82.2482 2.81818 73.8993 8.26909 68.7133 18.3233L71.1372 19.5735L68.7133 18.3233L67.9089 19.883C63.49 28.4501 56.2549 32.2517 49.5131 30.8368L33.0562 27.3829C24.9921 25.6904 18.5768 31.0459 15.3622 37.9095C12.1202 44.8314 11.6221 54.0825 15.611 62.1038C17.7169 66.3386 18.2935 71.4309 17.4733 76.1303C16.6495 80.8507 14.4751 84.8792 11.4259 87.2252Z" fill="#FEA8D9" stroke="white" stroke-width="5.45455"/>
<path d="M87.3805 61.3771C87.3805 63.5389 86.7248 65.6795 85.4508 67.6767C84.1768 69.674 82.3094 71.4887 79.9553 73.0173C77.6012 74.546 74.8065 75.7585 71.7308 76.5858C68.655 77.4131 65.3585 77.8389 62.0293 77.8389" stroke="black" stroke-width="3.18182"/>
<path d="M110.075 61.2351C110.075 63.3969 110.73 65.5375 112.004 67.5348C113.278 69.532 115.146 71.3467 117.5 72.8754C119.854 74.404 122.649 75.6165 125.724 76.4438C128.8 77.2711 132.097 77.6969 135.426 77.6969" stroke="black" stroke-width="3.18182"/>
<path d="M96.4547 101.256C96.4547 107.783 91.1635 113.074 84.6365 113.074C78.1095 113.074 72.8184 107.783 72.8184 101.256C72.8184 94.7288 78.1095 89.4376 84.6365 89.4376C91.1635 89.4376 96.4547 94.7288 96.4547 101.256Z" fill="white"/>
<path d="M96.4547 101.029C96.4547 103.915 94.1144 106.256 91.2275 106.256C88.3405 106.256 86.0002 103.915 86.0002 101.029C86.0002 98.1416 88.3405 95.8012 91.2275 95.8012C94.1144 95.8012 96.4547 98.1416 96.4547 101.029Z" fill="black"/>
<path d="M124.636 101.256C124.636 107.783 119.345 113.074 112.818 113.074C106.291 113.074 101 107.783 101 101.256C101 94.7288 106.291 89.4376 112.818 89.4376C119.345 89.4376 124.636 94.7288 124.636 101.256Z" fill="white"/>
<path d="M124.636 101.029C124.636 103.915 122.296 106.256 119.409 106.256C116.522 106.256 114.182 103.915 114.182 101.029C114.182 98.1416 116.522 95.8012 119.409 95.8012C122.296 95.8012 124.636 98.1416 124.636 101.029Z" fill="black"/>
<path d="M92.5918 123.756C92.5918 125.248 93.0444 126.726 93.9239 128.104C94.8034 129.483 96.0924 130.736 97.7174 131.791C99.3425 132.846 101.272 133.683 103.395 134.254C105.518 134.826 107.794 135.119 110.092 135.119M95.3191 119.892C95.016 122.089 93.0009 126.256 87.3645 125.347" stroke="black" stroke-width="3.18182"/>
</svg>
