<svg width="306" height="327" viewBox="0 0 306 327" fill="none" xmlns="http://www.w3.org/2000/svg">
<path fill-rule="evenodd" clip-rule="evenodd" d="M233.634 238.241C221.97 252.619 211.488 268.073 195.018 276.128C177.71 284.593 158.035 288.942 139.798 284.134C121.637 279.345 112.629 260.054 96.6935 250.205C68.5043 232.781 18.0312 237.616 11.1001 204.584C4.6358 173.777 54.0518 160.142 72.2814 133.864C89.4539 109.11 85.741 65.1133 114.039 56.1994C142.957 47.0901 164.245 83.9738 191.305 96.3717C211.832 105.776 238.392 102.68 253.091 119.909C267.946 137.32 271.769 163.032 267.957 186.215C264.518 207.132 247.042 221.712 233.634 238.241Z" fill="#855CF6"/>
<mask id="path-2-outside-1_571_21669" maskUnits="userSpaceOnUse" x="102.534" y="0.53418" width="203" height="299" fill="black">
<rect fill="white" x="102.534" y="0.53418" width="203" height="299"/>
<path d="M296.591 17.6158L219.99 150L296.591 282.384C298.926 286.42 296.007 291.466 291.336 291.466H116.611C111.94 291.466 109.021 286.42 111.356 282.384L187.957 150L111.356 17.6158C109.021 13.5795 111.94 8.53418 116.611 8.53418H291.336C296.007 8.53418 298.926 13.5795 296.591 17.6158Z"/>
</mask>
<path d="M296.591 17.6158L219.99 150L296.591 282.384C298.926 286.42 296.007 291.466 291.336 291.466H116.611C111.94 291.466 109.021 286.42 111.356 282.384L187.957 150L111.356 17.6158C109.021 13.5795 111.94 8.53418 116.611 8.53418H291.336C296.007 8.53418 298.926 13.5795 296.591 17.6158Z" fill="#FB8073"/>
<path d="M219.99 150L223.383 151.963L224.519 150L223.383 148.036L219.99 150ZM187.957 150L184.564 148.036L183.428 150L184.564 151.963L187.957 150ZM212.622 170.561L223.383 151.963L216.596 148.036L205.835 166.634L212.622 170.561ZM184.564 151.963L195.325 170.561L202.112 166.634L191.351 148.036L184.564 151.963ZM205.835 133.365L216.596 151.963L223.383 148.036L212.622 129.438L205.835 133.365ZM191.351 151.963L202.112 133.365L195.325 129.438L184.564 148.036L191.351 151.963ZM219.99 150L213.203 146.073L210.931 150L213.203 153.927L219.99 150ZM296.591 17.6158L303.378 21.5428L303.378 21.5428L296.591 17.6158ZM111.356 17.6158L104.569 21.5428L104.569 21.5428L111.356 17.6158ZM187.957 150L194.744 153.927L197.016 150L194.744 146.073L187.957 150ZM296.591 282.384L303.378 278.457L303.378 278.457L296.591 282.384ZM111.356 282.384L104.569 278.457L104.569 278.457L111.356 282.384ZM226.776 153.927L303.378 21.5428L289.804 13.6888L213.203 146.073L226.776 153.927ZM291.336 0.69312H116.611V16.3752H291.336V0.69312ZM104.569 21.5428L181.17 153.927L194.744 146.073L118.143 13.6888L104.569 21.5428ZM116.611 0.69312C105.931 0.69312 99.1941 12.2532 104.569 21.5428L118.143 13.6888C118.847 14.9058 117.949 16.3752 116.611 16.3752V0.69312ZM303.378 21.5428C308.753 12.2531 302.016 0.69312 291.336 0.69312V16.3752C289.998 16.3752 289.1 14.9059 289.804 13.6888L303.378 21.5428ZM213.203 153.927L289.804 286.311L303.378 278.457L226.776 146.073L213.203 153.927ZM291.336 283.625H116.611V299.307H291.336V283.625ZM118.143 286.311L194.744 153.927L181.17 146.073L104.569 278.457L118.143 286.311ZM116.611 283.625C117.949 283.625 118.847 285.094 118.143 286.311L104.569 278.457C99.1941 287.747 105.931 299.307 116.611 299.307V283.625ZM289.804 286.311C289.1 285.094 289.998 283.625 291.336 283.625V299.307C302.016 299.307 308.753 287.747 303.378 278.457L289.804 286.311Z" fill="white" mask="url(#path-2-outside-1_571_21669)"/>
<path d="M200.298 224.649C200.298 233.844 192.844 241.298 183.649 241.298C174.454 241.298 167 233.844 167 224.649C167 215.454 174.454 208 183.649 208C192.844 208 200.298 215.454 200.298 224.649Z" fill="white"/>
<path d="M200.298 224.329C200.298 228.396 197.001 231.693 192.934 231.693C188.867 231.693 185.57 228.396 185.57 224.329C185.57 220.262 188.867 216.965 192.934 216.965C197.001 216.965 200.298 220.262 200.298 224.329Z" fill="black"/>
<path d="M240 224.649C240 233.844 232.546 241.298 223.351 241.298C214.156 241.298 206.702 233.844 206.702 224.649C206.702 215.454 214.156 208 223.351 208C232.546 208 240 215.454 240 224.649Z" fill="white"/>
<path d="M240 224.329C240 228.396 236.703 231.693 232.636 231.693C228.569 231.693 225.272 228.396 225.272 224.329C225.272 220.262 228.569 216.965 232.636 216.965C236.703 216.965 240 220.262 240 224.329Z" fill="black"/>
<path d="M227.833 256.346C227.833 257.019 227.196 257.685 225.957 258.306C224.718 258.928 222.902 259.493 220.612 259.968C218.323 260.444 215.605 260.821 212.614 261.079C209.623 261.336 206.417 261.469 203.18 261.469C199.942 261.469 196.736 261.336 193.745 261.079C190.754 260.821 188.036 260.444 185.747 259.968C183.458 259.493 181.642 258.928 180.403 258.306C179.164 257.685 178.526 257.019 178.526 256.346M181.728 250.903C181.194 254.105 178.398 260.188 171.482 258.907M225.272 251.964C225.806 255.166 228.602 261.249 235.518 259.968" stroke="black" stroke-width="4.48246"/>
</svg>
