<svg width="24" height="25" viewBox="0 0 24 25" fill="none" xmlns="http://www.w3.org/2000/svg">
<path fill-rule="evenodd" clip-rule="evenodd" d="M19.4071 6.14289C18.1109 4.84664 15.8162 3.5 13 3.5C10.1916 3.5 7.94562 4.79016 6.64289 6.09289C5.555 7.18078 4.43162 8.97193 4.09858 11.1844L3.70711 10.7929C3.31658 10.4024 2.68342 10.4024 2.29289 10.7929C1.90237 11.1834 1.90237 11.8166 2.29289 12.2071L4.29289 14.2071C4.6532 14.5674 5.2268 14.5992 5.6247 14.2809L8.12469 12.2809C8.55596 11.9359 8.62588 11.3066 8.28087 10.8753C7.93586 10.444 7.30657 10.3741 6.87531 10.7191L6.09968 11.3396C6.38561 9.68017 7.24044 8.32377 8.05711 7.50711C9.05057 6.51364 10.8084 5.5 13 5.5C15.1838 5.5 16.9929 6.55716 17.9929 7.55711C18.9864 8.55057 20 10.3084 20 12.5C20 14.6838 18.9428 16.4929 17.9429 17.4929C16.9494 18.4864 15.1916 19.5 13 19.5C12.4477 19.5 12 19.9477 12 20.5C12 21.0523 12.4477 21.5 13 21.5C15.8084 21.5 18.0544 20.2098 19.3571 18.9071C20.6534 17.6109 22 15.3162 22 12.5C22 9.69161 20.7098 7.44562 19.4071 6.14289ZM13 9C13 8.44772 12.5523 8 12 8C11.4477 8 11 8.44772 11 9V13.375C11 13.6634 11.1245 13.9377 11.3415 14.1276L14.3415 16.7526C14.7571 17.1163 15.3889 17.0741 15.7526 16.6585C16.1163 16.2429 16.0741 15.6111 15.6585 15.2474L13 12.9212V9Z" fill="#C5B1FF"/>
</svg>
