<svg width="32" height="32" viewBox="0 0 32 32" fill="none" xmlns="http://www.w3.org/2000/svg">
<mask id="path-1-inside-1_269_18575" fill="white">
<path d="M15.9987 28.6487C21.8399 26.1956 26.0672 22.0078 28.3475 17.7674C30.5928 13.5445 30.9085 9.33919 28.9088 6.81599C27.1021 4.55563 24.7516 3.69704 22.3661 3.76713C19.9805 3.83721 17.6651 4.87103 15.9987 6.32537C14.3324 4.87103 12.017 3.83721 9.63139 3.76713C7.24583 3.69704 4.89535 4.55563 3.08864 6.81599C1.08898 9.33919 1.40471 13.5445 3.68503 17.7674C5.93026 22.0078 10.1576 26.1956 15.9987 28.6487Z"/>
</mask>
<path d="M15.9987 28.6487L15.2243 30.4927L15.9987 30.8179L16.7732 30.4927L15.9987 28.6487ZM28.3475 17.7674L30.109 18.7146L30.1134 18.7063L28.3475 17.7674ZM28.9088 6.81599L30.4763 5.57376L30.4711 5.56727L28.9088 6.81599ZM15.9987 6.32537L14.6836 7.8322L15.9987 8.97995L17.3138 7.8322L15.9987 6.32537ZM3.08864 6.81599L1.52636 5.56726L1.52119 5.57377L3.08864 6.81599ZM3.68503 17.7674L5.45255 16.8315L5.44873 16.8243L5.44484 16.8171L3.68503 17.7674ZM16.7732 30.4927C23.037 27.862 27.6123 23.3573 30.109 18.7146L26.5861 16.8201C24.5221 20.6583 20.6427 24.5291 15.2243 26.8047L16.7732 30.4927ZM30.1134 18.7063C32.4853 14.2453 33.2293 9.04757 30.4763 5.57377L27.3414 8.05821C28.5877 9.63081 28.7003 12.8437 26.5816 16.8285L30.1134 18.7063ZM30.4711 5.56727C28.2363 2.77129 25.2617 1.68119 22.3073 1.76799L22.4248 5.76626C24.2416 5.71289 25.968 6.33996 27.3466 8.06472L30.4711 5.56727ZM22.3073 1.76799C19.4068 1.85321 16.658 3.09544 14.6836 4.81854L17.3138 7.8322C18.6723 6.64661 20.5542 5.82122 22.4248 5.76626L22.3073 1.76799ZM17.3138 4.81854C15.3395 3.09544 12.5907 1.85321 9.69013 1.76799L9.57266 5.76626C11.4432 5.82122 13.3252 6.64661 14.6836 7.8322L17.3138 4.81854ZM9.69013 1.76799C6.73579 1.68119 3.7612 2.77129 1.52637 5.56727L4.65091 8.06472C6.02951 6.33996 7.75588 5.71289 9.57266 5.76626L9.69013 1.76799ZM1.52119 5.57377C-1.23413 9.05047 -0.486796 14.2509 1.92521 18.7177L5.44484 16.8171C3.29622 12.8381 3.41208 9.62791 4.65609 8.05821L1.52119 5.57377ZM1.91751 18.7033C4.3814 23.3566 8.96206 27.8627 15.2243 30.4927L16.7732 26.8047C11.3532 24.5285 7.47913 20.6589 5.45255 16.8315L1.91751 18.7033Z" fill="black" mask="url(#path-1-inside-1_269_18575)"/>
</svg>
