<svg width="163" height="54" viewBox="0 0 163 54" fill="none" xmlns="http://www.w3.org/2000/svg">
<g clip-path="url(#clip0_470_21556)">
<mask id="mask0_470_21556" style="mask-type:alpha" maskUnits="userSpaceOnUse" x="-15" y="10" width="66" height="50">
<path d="M28.4946 59.3472H-14.2979C-14.2979 53.6891 -12.8799 47.799 -10.454 42.1494C-3.21038 25.2802 13.0196 10.5552 27.3189 10.5552C45.052 10.5552 49.229 19.966 49.229 30.5155C49.229 33.1769 49.229 31.1259 49.229 33.6205C49.229 33.6782 47.7585 33.6782 44.8174 33.6205C44.8174 33.1457 44.8174 32.1107 44.8174 30.5155C44.8174 19.4264 28.4946 18.9829 28.4946 30.5155C28.4946 40.8187 24.9653 57.5729 50.3319 53.3591L28.4946 59.3472Z" fill="white"/>
</mask>
<g mask="url(#mask0_470_21556)">
<path d="M28.4946 59.3472H-14.2979C-14.2979 53.6891 -12.8799 47.799 -10.454 42.1494C-3.21038 25.2802 13.0196 10.5552 27.3189 10.5552C45.052 10.5552 49.229 19.966 49.229 30.5155C49.229 33.1769 49.229 31.1259 49.229 33.6205C49.229 33.6782 47.7585 33.6782 44.8174 33.6205C44.8174 33.1457 44.8174 32.1107 44.8174 30.5155C44.8174 19.4264 28.4946 18.9829 28.4946 30.5155C28.4946 40.8187 24.9653 57.5729 50.3319 53.3591L28.4946 59.3472Z" fill="#FFA900"/>
<path fill-rule="evenodd" clip-rule="evenodd" d="M23.2002 16.7646C25.3708 16.7646 27.2362 18.0419 28.053 19.8696C27.2359 21.6975 25.3706 22.9745 23.2002 22.9745C21.0298 22.9745 19.1646 21.6975 18.3477 19.87C19.1643 18.0419 21.0297 16.7646 23.2002 16.7646Z" fill="white"/>
<path d="M23.2009 22.0882C24.4191 22.0882 25.4067 21.0953 25.4067 19.8704C25.4067 18.6455 24.4191 17.6526 23.2009 17.6526C21.9827 17.6526 20.9951 18.6455 20.9951 19.8704C20.9951 21.0953 21.9827 22.0882 23.2009 22.0882Z" fill="#5E0000"/>
</g>
<path d="M34.9728 33.6204C31.8847 38.056 35.3642 42.4916 39.3844 42.4916C43.4045 42.4916 46.6635 40.9892 46.6635 36.9471" stroke="black" stroke-width="1.25676" stroke-linecap="round" stroke-dasharray="0.31 2.2"/>
<path d="M16.9418 18.2199C17.4396 16.1936 19.3222 14.3641 21.8953 13.6709C23.923 13.1246 25.9303 13.405 27.3942 14.2848" stroke="white" stroke-width="0.942573" stroke-linecap="round"/>
<path d="M47.0232 35.8392C48.2414 35.8392 49.229 34.8463 49.229 33.6214C49.229 32.3965 48.2414 31.4036 47.0232 31.4036C45.8049 31.4036 44.8174 32.3965 44.8174 33.6214C44.8174 34.8463 45.8049 35.8392 47.0232 35.8392Z" fill="#5E0000"/>
<path fill-rule="evenodd" clip-rule="evenodd" d="M6.25823 11.2627C8.12898 10.7138 10.2321 11.181 11.7073 12.6643C13.1825 14.1476 13.6472 16.2621 13.1013 18.1431C11.2307 18.6922 9.12735 18.2251 7.652 16.7417C6.20559 15.2874 5.73065 13.2262 6.22718 11.3734L6.25823 11.2627Z" fill="#5E0000"/>
</g>
<path d="M77.5055 48.4099L70.0139 39.8479C69.7017 39.4895 69.7407 39.2107 70.0139 38.8921L77.2714 31.2859C77.4275 31.1267 77.5445 30.9275 77.5445 30.6886C77.5445 30.2904 77.2714 29.8921 76.7251 29.8921H74.423C74.0718 29.8921 73.6817 30.2505 73.4475 30.4895L67.2045 37.1399C67.0484 37.2992 66.9704 37.339 66.8923 37.339C66.7753 37.339 66.6973 37.2594 66.6973 37.0603V22.3258C66.6973 21.8877 66.3461 21.5293 65.9169 21.5293H63.9659C63.5367 21.5293 63.1855 21.8877 63.1855 22.3258V49.0072C63.1855 49.4453 63.5367 49.8037 63.9659 49.8037H65.9169C66.3461 49.8037 66.6973 49.4453 66.6973 49.0072V42.0382C66.6973 41.8391 66.7753 41.7594 66.8923 41.7594C66.9704 41.7594 67.0484 41.7992 67.2045 41.9585L73.3305 49.0868C73.6036 49.4054 73.9548 49.8037 74.462 49.8037H76.9592C77.4665 49.8037 77.7786 49.4453 77.7786 49.0072C77.7786 48.7683 77.7006 48.609 77.5055 48.4099Z" fill="black"/>
<path d="M81.3294 25.5514H83.9827C84.3339 25.5514 84.607 25.2727 84.607 24.9143V22.1665C84.607 21.8479 84.3339 21.5293 83.9827 21.5293H81.3294C80.9782 21.5293 80.7051 21.8479 80.7051 22.1665V24.9143C80.7051 25.2727 80.9782 25.5514 81.3294 25.5514ZM81.6415 49.8037H83.6705C84.0997 49.8037 84.4509 49.4453 84.4509 49.0072V30.6886C84.4509 30.2505 84.0997 29.8921 83.6705 29.8921H81.6415C81.2123 29.8921 80.8612 30.2505 80.8612 30.6886V49.0072C80.8612 49.4453 81.2123 49.8037 81.6415 49.8037Z" fill="black"/>
<path d="M96.352 50.2019C99.5125 50.2019 100.098 48.6886 100.917 48.6886C101.229 48.6886 101.424 48.8877 101.698 49.5249C101.776 49.724 101.932 49.8037 102.244 49.8037H103.57C104 49.8037 104.351 49.4452 104.351 49.0072V22.3258C104.351 21.8877 104 21.5293 103.57 21.5293H101.62C101.19 21.5293 100.839 21.8877 100.839 22.3258V29.4939C100.839 30.4098 100.644 30.7682 100.137 30.7682C99.4345 30.7682 98.6151 29.4939 96.0398 29.4939C93.4255 29.4939 91.2405 30.7284 90.0699 32.8789C89.2115 34.5116 88.8213 36.6621 88.8213 39.8479C88.8213 42.8744 89.2115 45.0249 90.0309 46.7771C91.1624 48.9275 93.5036 50.2019 96.352 50.2019ZM96.7031 46.6178C95.0643 46.6178 93.6987 46.0205 93.0353 44.786C92.372 43.5514 92.333 42.1576 92.333 39.8479C92.333 37.5382 92.411 36.1444 93.0353 34.9098C93.6596 33.6753 95.0643 33.078 96.7031 33.078C98.3419 33.078 99.7076 33.6753 100.371 34.9098C101.034 36.1444 101.073 37.5382 101.073 39.8479C101.073 42.1576 101.034 43.5514 100.371 44.786C99.7076 46.0205 98.3419 46.6178 96.7031 46.6178Z" fill="black"/>
<path d="M116.213 50.2019C120.661 50.2019 123.47 47.8523 123.47 44.1488C123.47 40.6045 121.714 38.8921 117.11 37.9762C113.637 37.2594 112.467 36.5426 112.467 35.0691C112.467 33.6753 113.754 32.8789 115.978 32.8789C118.242 32.8789 119.373 33.7151 119.529 35.4674C119.568 35.9452 119.88 36.2638 120.31 36.2638H122.261C122.807 36.2638 123.041 35.9452 123.041 35.1089C123.041 31.6443 120.31 29.4939 115.861 29.4939C111.764 29.4939 108.838 31.8833 108.838 35.1886C108.838 38.4939 110.906 40.3656 115.471 41.162C118.905 41.7594 119.958 42.4762 119.958 44.1488C119.958 45.8612 118.554 46.7771 115.978 46.7771C113.247 46.7771 111.842 45.662 111.569 43.3125C111.53 42.7948 111.218 42.516 110.789 42.516H108.838C108.253 42.516 108.058 42.8346 108.058 43.7505C108.058 47.7328 111.179 50.2019 116.213 50.2019Z" fill="black"/>
<path d="M134.863 50.2019C136.97 50.2019 138.687 49.724 139.857 48.8081C141.301 47.693 142.198 46.1001 142.433 44.2284C142.511 43.7505 142.238 43.432 141.769 43.432H139.779C139.35 43.432 138.999 43.6709 138.882 44.109C138.687 44.7859 138.297 45.3435 137.711 45.8213C136.97 46.339 135.994 46.6178 134.863 46.6178C133.731 46.6178 132.717 46.2992 132.015 45.7019C130.922 44.8258 130.415 43.4718 130.415 41.401C130.415 41.162 130.571 41.0028 130.805 41.0028H141.886C142.316 41.0028 142.667 40.6443 142.667 40.2063V37.8169C142.667 35.1488 141.886 32.9585 140.443 31.5249C139.077 30.1709 137.204 29.4939 134.941 29.4939C132.561 29.4939 130.649 30.2107 129.244 31.6443C127.566 33.3966 126.669 36.224 126.669 39.8479C126.669 43.87 127.527 46.4983 129.478 48.37C130.805 49.6045 132.6 50.2019 134.863 50.2019ZM130.844 37.9364C130.61 37.9364 130.454 37.7771 130.454 37.5382C130.454 36.0249 130.883 34.7904 131.741 33.9143C132.522 33.1178 133.653 32.6797 134.941 32.6797C136.19 32.6797 137.243 33.1178 137.984 33.9143C138.843 34.7904 139.272 36.0249 139.272 37.5382C139.272 37.7771 139.116 37.9364 138.882 37.9364H130.844Z" fill="black"/>
<path d="M154.529 50.2019C156.636 50.2019 158.353 49.724 159.523 48.8081C160.967 47.693 161.865 46.1001 162.099 44.2284C162.177 43.7505 161.904 43.432 161.435 43.432H159.445C159.016 43.432 158.665 43.6709 158.548 44.109C158.353 44.7859 157.963 45.3435 157.377 45.8213C156.636 46.339 155.661 46.6178 154.529 46.6178C153.397 46.6178 152.383 46.2992 151.681 45.7019C150.588 44.8258 150.081 43.4718 150.081 41.401C150.081 41.162 150.237 41.0028 150.471 41.0028H161.552C161.982 41.0028 162.333 40.6443 162.333 40.2063V37.8169C162.333 35.1488 161.552 32.9585 160.109 31.5249C158.743 30.1709 156.87 29.4939 154.607 29.4939C152.227 29.4939 150.315 30.2107 148.91 31.6443C147.232 33.3966 146.335 36.224 146.335 39.8479C146.335 43.87 147.193 46.4983 149.144 48.37C150.471 49.6045 152.266 50.2019 154.529 50.2019ZM150.51 37.9364C150.276 37.9364 150.12 37.7771 150.12 37.5382C150.12 36.0249 150.549 34.7904 151.407 33.9143C152.188 33.1178 153.319 32.6797 154.607 32.6797C155.856 32.6797 156.909 33.1178 157.65 33.9143C158.509 34.7904 158.938 36.0249 158.938 37.5382C158.938 37.7771 158.782 37.9364 158.548 37.9364H150.51Z" fill="black"/>
<defs>
<clipPath id="clip0_470_21556">
<rect width="52.939" height="53.2276" fill="white" transform="translate(0.702148 0.353027)"/>
</clipPath>
</defs>
</svg>
