<svg width="399" height="265" viewBox="0 0 399 265" fill="none" xmlns="http://www.w3.org/2000/svg">
<path d="M146.792 26.4256C136.639 26.4256 126.901 30.4589 119.722 37.6384C112.542 44.8178 108.509 54.5552 108.509 64.7085V212.292C108.509 222.445 112.542 232.182 119.722 239.362C126.901 246.541 136.639 250.575 146.792 250.575H252.209C262.362 250.575 272.099 246.541 279.279 239.362C286.458 232.182 290.492 222.445 290.492 212.292V64.7085C290.492 54.5552 286.458 44.8178 279.279 37.6384C272.099 30.4589 262.362 26.4256 252.209 26.4256H146.792Z" fill="#855CF6" stroke="white" stroke-width="13.3158"/>
<path fill-rule="evenodd" clip-rule="evenodd" d="M130.147 58.6054C130.147 55.8096 131.258 53.1283 133.235 51.1513C135.212 49.1744 137.893 48.0637 140.689 48.0637H258.312C261.108 48.0637 263.789 49.1744 265.766 51.1513C267.743 53.1283 268.853 55.8096 268.853 58.6054V127.404C268.853 130.199 267.743 132.881 265.766 134.858C263.789 136.835 261.108 137.945 258.312 137.945H140.689C137.893 137.945 135.212 136.835 133.235 134.858C131.258 132.881 130.147 130.199 130.147 127.404V58.6054ZM157.334 165.687C154.538 165.687 151.857 166.797 149.88 168.774C147.903 170.751 146.792 173.432 146.792 176.228C146.792 179.024 147.903 181.705 149.88 183.682C151.857 185.659 154.538 186.77 157.334 186.77H157.439C160.235 186.77 162.916 185.659 164.893 183.682C166.87 181.705 167.981 179.024 167.981 176.228C167.981 173.432 166.87 170.751 164.893 168.774C162.916 166.797 160.235 165.687 157.439 165.687H157.334ZM188.959 176.228C188.959 173.432 190.069 170.751 192.046 168.774C194.023 166.797 196.704 165.687 199.5 165.687H199.606C202.402 165.687 205.083 166.797 207.06 168.774C209.037 170.751 210.147 173.432 210.147 176.228C210.147 179.024 209.037 181.705 207.06 183.682C205.083 185.659 202.402 186.77 199.606 186.77H199.5C196.704 186.77 194.023 185.659 192.046 183.682C190.069 181.705 188.959 179.024 188.959 176.228ZM199.5 197.312C196.704 197.312 194.023 198.422 192.046 200.399C190.069 202.376 188.959 205.057 188.959 207.853C188.959 210.649 190.069 213.33 192.046 215.307C194.023 217.284 196.704 218.395 199.5 218.395H199.606C202.402 218.395 205.083 217.284 207.06 215.307C209.037 213.33 210.147 210.649 210.147 207.853C210.147 205.057 209.037 202.376 207.06 200.399C205.083 198.422 202.402 197.312 199.606 197.312H199.5ZM146.792 207.853C146.792 205.057 147.903 202.376 149.88 200.399C151.857 198.422 154.538 197.312 157.334 197.312H157.439C160.235 197.312 162.916 198.422 164.893 200.399C166.87 202.376 167.981 205.057 167.981 207.853C167.981 210.649 166.87 213.33 164.893 215.307C162.916 217.284 160.235 218.395 157.439 218.395H157.334C154.538 218.395 151.857 217.284 149.88 215.307C147.903 213.33 146.792 210.649 146.792 207.853ZM252.209 176.228C252.209 173.432 251.098 170.751 249.121 168.774C247.144 166.797 244.463 165.687 241.667 165.687C238.871 165.687 236.19 166.797 234.213 168.774C232.236 170.751 231.125 173.432 231.125 176.228V207.853C231.125 210.649 232.236 213.33 234.213 215.307C236.19 217.284 238.871 218.395 241.667 218.395C244.463 218.395 247.144 217.284 249.121 215.307C251.098 213.33 252.209 210.649 252.209 207.853V176.228Z" fill="#FEA8D9"/>
<path d="M209.25 115.096C209.25 116.738 208.752 118.363 207.785 119.88C206.817 121.396 205.399 122.774 203.612 123.935C201.824 125.096 199.702 126.016 197.367 126.645C195.031 127.273 192.528 127.596 190 127.596" stroke="black" stroke-width="3.5"/>
<path d="M195.923 76.2692C195.923 79.575 195.272 82.8484 194.007 85.9025C192.742 88.9567 190.888 91.7317 188.55 94.0693C186.213 96.4068 183.438 98.261 180.384 99.5261C177.33 100.791 174.056 101.442 170.75 101.442C167.445 101.442 164.171 100.791 161.117 99.5261C158.063 98.261 155.288 96.4068 152.95 94.0693C150.613 91.7317 148.759 88.9567 147.493 85.9025C146.228 82.8484 145.577 79.575 145.577 76.2692L195.923 76.2692Z" fill="black"/>
<path d="M192 76.2692C192 79.0169 191.45 81.7376 190.382 84.2761C189.314 86.8146 187.749 89.1212 185.776 91.0641C183.803 93.007 181.46 94.5481 178.882 95.5996C176.304 96.6511 173.54 97.1923 170.75 97.1923C167.959 97.1923 165.196 96.6511 162.618 95.5996C160.04 94.5481 157.697 93.007 155.724 91.0641C153.751 89.1212 152.185 86.8146 151.117 84.2761C150.05 81.7376 149.5 79.0169 149.5 76.2692L192 76.2692Z" fill="black"/>
<path d="M172.415 75.9998L176.379 78.2882L163.557 100.462L159.307 98.8269L172.415 75.9998Z" fill="white"/>
<path d="M255.423 76.2692C255.423 79.575 254.772 82.8484 253.507 85.9025C252.242 88.9567 250.388 91.7317 248.05 94.0693C245.713 96.4068 242.938 98.261 239.884 99.5261C236.83 100.791 233.556 101.442 230.25 101.442C226.945 101.442 223.671 100.791 220.617 99.5261C217.563 98.261 214.788 96.4068 212.45 94.0693C210.113 91.7317 208.259 88.9567 206.993 85.9025C205.728 82.8484 205.077 79.575 205.077 76.2692L255.423 76.2692Z" fill="black"/>
<path d="M251.5 76.2692C251.5 79.0169 250.95 81.7376 249.882 84.2761C248.814 86.8146 247.249 89.1212 245.276 91.0641C243.303 93.007 240.96 94.5481 238.382 95.5996C235.804 96.6511 233.04 97.1923 230.25 97.1923C227.459 97.1923 224.696 96.6511 222.118 95.5996C219.54 94.5481 217.197 93.007 215.224 91.0641C213.251 89.1212 211.685 86.8146 210.617 84.2761C209.55 81.7376 209 79.0169 209 76.2692L251.5 76.2692Z" fill="black"/>
<path d="M232.623 75.9998L236.587 78.2882L223.765 100.462L219.515 98.8269L232.623 75.9998Z" fill="white"/>
<rect x="141" y="73" width="119" height="5.88462" fill="#855CF6"/>
</svg>
