<svg width="399" height="265" viewBox="0 0 399 265" fill="none" xmlns="http://www.w3.org/2000/svg">
<path d="M211.114 18.8254C205.979 9.92464 193.139 9.92464 188.005 18.8254L63.9492 233.875C58.8192 242.768 65.2277 253.896 75.5037 253.896H323.615C333.891 253.896 340.299 242.768 335.169 233.875L211.114 18.8254Z" fill="#4ED78B" stroke="white" stroke-width="9.44935"/>
<path d="M218.253 117.743C218.253 121.099 219.32 124.422 221.391 127.522C223.462 130.623 226.498 133.44 230.325 135.813C234.153 138.186 238.696 140.068 243.697 141.352C248.698 142.636 254.057 143.297 259.47 143.297" stroke="black" stroke-width="4.85338"/>
<path d="M181.357 102C181.357 105.356 180.291 108.679 178.22 111.779C176.149 114.879 173.113 117.696 169.285 120.069C165.458 122.442 160.914 124.324 155.914 125.609C150.913 126.893 145.554 127.554 140.141 127.554" stroke="black" stroke-width="4.85338"/>
<path d="M203.272 171.031C203.272 180.987 211.343 189.058 221.299 189.058C231.255 189.058 239.326 180.987 239.326 171.031C239.326 161.075 231.255 153.004 221.299 153.004C211.343 153.004 203.272 161.075 203.272 171.031Z" fill="white"/>
<path d="M212.979 170.684C212.979 175.088 216.549 178.658 220.952 178.658C225.356 178.658 228.926 175.088 228.926 170.684C228.926 166.281 225.356 162.711 220.952 162.711C216.549 162.711 212.979 166.281 212.979 170.684Z" fill="black"/>
<path d="M160.285 171.031C160.285 180.987 168.356 189.058 178.312 189.058C188.268 189.058 196.339 180.987 196.339 171.031C196.339 161.075 188.268 153.004 178.312 153.004C168.356 153.004 160.285 161.075 160.285 171.031Z" fill="white"/>
<path d="M169.992 170.684C169.992 175.088 173.562 178.658 177.965 178.658C182.369 178.658 185.939 175.088 185.939 170.684C185.939 166.281 182.369 162.711 177.965 162.711C173.562 162.711 169.992 166.281 169.992 170.684Z" fill="black"/>
<path d="M209.166 205.351C209.166 207.628 208.475 209.882 207.134 211.985C205.792 214.088 203.826 215.998 201.347 217.608C198.868 219.218 195.926 220.494 192.687 221.365C189.449 222.236 185.977 222.685 182.472 222.685M205.005 199.458C205.468 202.809 208.542 209.165 217.139 207.778" stroke="black" stroke-width="4.85338"/>
</svg>
