<svg width="48" height="48" viewBox="0 0 48 48" fill="none" xmlns="http://www.w3.org/2000/svg">
<rect width="48" height="48" rx="16" fill="#FB8073"/>
<path d="M14.4392 14.4392C14.158 14.7205 14 15.1019 14 15.4997C14 15.8974 14.158 16.2789 14.4392 16.5602L21.8642 23.9852L14.4392 31.4102C14.1659 31.6931 14.0148 32.072 14.0182 32.4653C14.0216 32.8586 14.1793 33.2348 14.4575 33.5129C14.7356 33.791 15.1118 33.9488 15.5051 33.9522C15.8984 33.9556 16.2773 33.8044 16.5602 33.5312L25.0457 25.0457C25.3269 24.7644 25.4849 24.3829 25.4849 23.9852C25.4849 23.5874 25.3269 23.206 25.0457 22.9247L16.5602 14.4392C16.2789 14.158 15.8974 14 15.4997 14C15.1019 14 14.7205 14.158 14.4392 14.4392Z" fill="white"/>
<path d="M34.5452 14.4392C34.8264 14.7205 34.9844 15.1019 34.9844 15.4997C34.9844 15.8974 34.8264 16.2789 34.5452 16.5602L27.1202 23.9852L34.5452 31.4102C34.8184 31.6931 34.9696 32.072 34.9662 32.4653C34.9628 32.8586 34.805 33.2348 34.5269 33.5129C34.2488 33.791 33.8726 33.9488 33.4793 33.9522C33.086 33.9556 32.7071 33.8044 32.4242 33.5312L23.9387 25.0457C23.6575 24.7644 23.4995 24.3829 23.4995 23.9852C23.4995 23.5874 23.6575 23.206 23.9387 22.9247L32.4242 14.4392C32.7055 14.158 33.0869 14 33.4847 14C33.8824 14 34.2639 14.158 34.5452 14.4392Z" fill="white"/>
</svg>
