<svg width="32" height="32" viewBox="0 0 32 32" fill="none" xmlns="http://www.w3.org/2000/svg">
<circle cx="16" cy="16" r="16" fill="#4ED78B"/>
<path d="M13.528 9.53636C13.528 10.077 13.3562 10.6123 13.0225 11.1118C12.6888 11.6113 12.1997 12.0652 11.5831 12.4474C10.9665 12.8297 10.2345 13.133 9.42882 13.3399C8.62319 13.5468 7.75971 13.6533 6.8877 13.6533" stroke="black" stroke-width="0.781915"/>
<path d="M19.472 7.00005C19.472 7.54068 19.6438 8.07603 19.9775 8.57551C20.3112 9.075 20.8003 9.52884 21.4169 9.91113C22.0335 10.2934 22.7655 10.5967 23.5712 10.8036C24.3768 11.0105 25.2403 11.1169 26.1123 11.1169" stroke="black" stroke-width="0.781915"/>
<path d="M14.6011 19.5176C14.6011 18.9529 14.4898 18.3937 14.2737 17.8719C14.0576 17.3501 13.7408 16.876 13.3415 16.4767C12.9421 16.0774 12.468 15.7606 11.9463 15.5445C11.4245 15.3283 10.8653 15.2171 10.3005 15.2171C9.73578 15.2171 9.17655 15.3283 8.65479 15.5445C8.13302 15.7606 7.65894 16.0774 7.2596 16.4767C6.86026 16.876 6.54348 17.3501 6.32736 17.8719C6.11124 18.3937 6 18.9529 6 19.5176L14.6011 19.5176Z" fill="white"/>
<path d="M11.9202 19.5735C11.9202 19.3535 11.8783 19.1356 11.7969 18.9323C11.7155 18.729 11.5962 18.5443 11.4458 18.3887C11.2954 18.2331 11.1169 18.1097 10.9204 18.0255C10.7238 17.9413 10.5132 17.898 10.3005 17.898C10.0878 17.898 9.87722 17.9413 9.68071 18.0255C9.4842 18.1097 9.30565 18.2331 9.15524 18.3887C9.00484 18.5443 8.88554 18.729 8.80414 18.9323C8.72275 19.1356 8.68085 19.3535 8.68085 19.5735H11.9202Z" fill="black"/>
<path d="M27.0005 19.5176C27.0005 18.9529 26.8892 18.3937 26.6731 17.8719C26.457 17.3501 26.1402 16.876 25.7409 16.4767C25.3415 16.0774 24.8675 15.7606 24.3457 15.5445C23.8239 15.3283 23.2647 15.2171 22.6999 15.2171C22.1352 15.2171 21.576 15.3283 21.0542 15.5445C20.5324 15.7606 20.0584 16.0774 19.659 16.4767C19.2597 16.876 18.9429 17.3501 18.7268 17.8719C18.5107 18.3937 18.3994 18.9529 18.3994 19.5176L27.0005 19.5176Z" fill="white"/>
<path d="M24.3196 19.5735C24.3196 19.3535 24.2777 19.1356 24.1963 18.9323C24.1149 18.729 23.9956 18.5443 23.8452 18.3887C23.6948 18.2331 23.5163 18.1097 23.3198 18.0255C23.1233 17.9413 22.9126 17.898 22.6999 17.898C22.4872 17.898 22.2766 17.9413 22.0801 18.0255C21.8836 18.1097 21.7051 18.2331 21.5547 18.3887C21.4043 18.5443 21.285 18.729 21.2036 18.9323C21.1222 19.1356 21.0803 19.3535 21.0803 19.5735H24.3196Z" fill="black"/>
<path d="M20.8003 21.249C20.8003 21.6157 20.689 21.9788 20.4729 22.3176C20.2568 22.6565 19.94 22.9643 19.5407 23.2236C19.1413 23.4829 18.6673 23.6886 18.1455 23.829C17.6237 23.9693 17.0645 24.0415 16.4998 24.0415C15.935 24.0415 15.3758 23.9693 14.854 23.829C14.3322 23.6886 13.8582 23.4829 13.4588 23.2236C13.0595 22.9643 12.7427 22.6565 12.5266 22.3176C12.3105 21.9788 12.1992 21.6157 12.1992 21.249" stroke="black" stroke-width="0.781915"/>
</svg>
