<svg width="48" height="48" viewBox="0 0 48 48" fill="none" xmlns="http://www.w3.org/2000/svg">
<g clip-path="url(#clip0_510_14893)">
<path d="M32.9974 52.5224C43.8374 52.5224 52.628 43.7588 52.628 32.9446C52.628 22.1304 43.8374 13.3668 32.9974 13.3668C22.1573 13.3668 13.3668 22.1304 13.3668 32.9446C13.3668 43.7588 22.1573 52.5224 32.9974 52.5224Z" fill="#FB8073" stroke="white" stroke-width="1.26649"/>
<path d="M23.7264 24.3632C23.7264 26.2206 22.2206 27.7264 20.3632 27.7264C18.5057 27.7264 17 26.2206 17 24.3632C17 22.5057 18.5057 21 20.3632 21C22.2206 21 23.7264 22.5057 23.7264 24.3632Z" fill="white"/>
<path d="M23.7264 24.2985C23.7264 25.1201 23.0604 25.7861 22.2388 25.7861C21.4172 25.7861 20.7512 25.1201 20.7512 24.2985C20.7512 23.4769 21.4172 22.8109 22.2388 22.8109C23.0604 22.8109 23.7264 23.4769 23.7264 24.2985Z" fill="black"/>
<path d="M31.7459 24.3632C31.7459 26.2206 30.2402 27.7264 28.3827 27.7264C26.5253 27.7264 25.0195 26.2206 25.0195 24.3632C25.0195 22.5057 26.5253 21 28.3827 21C30.2402 21 31.7459 22.5057 31.7459 24.3632Z" fill="white"/>
<path d="M31.7459 24.2985C31.7459 25.1201 31.0799 25.7861 30.2583 25.7861C29.4368 25.7861 28.7708 25.1201 28.7708 24.2985C28.7708 23.4769 29.4368 22.8109 30.2583 22.8109C31.0799 22.8109 31.7459 23.4769 31.7459 24.2985Z" fill="black"/>
<path d="M29.3528 29.6667C29.3528 30.0913 29.224 30.5119 28.9737 30.9042C28.7234 31.2965 28.3566 31.653 27.8941 31.9533C27.4317 32.2536 26.8827 32.4918 26.2785 32.6543C25.6743 32.8169 25.0267 32.9005 24.3727 32.9005C23.7187 32.9005 23.0711 32.8169 22.4669 32.6543C21.8627 32.4918 21.3137 32.2536 20.8512 31.9533C20.3888 31.653 20.0219 31.2965 19.7717 30.9042C19.5214 30.5119 19.3926 30.0913 19.3926 29.6667" stroke="black" stroke-width="0.905473"/>
</g>
<defs>
<clipPath id="clip0_510_14893">
<rect width="48" height="48" fill="white"/>
</clipPath>
</defs>
</svg>
