<svg width="48" height="48" viewBox="0 0 48 48" fill="none" xmlns="http://www.w3.org/2000/svg">
<mask id="path-1-outside-1_510_14866" maskUnits="userSpaceOnUse" x="4" y="7" width="41" height="34" fill="black">
<rect fill="white" x="4" y="7" width="41" height="34"/>
<path d="M43 34.9128V27.5C43 17.2827 34.7173 9 24.5 9C14.2827 9 6 17.2827 6 27.5V34.9128C6 37.2382 7.88512 39.1234 10.2105 39.1234H38.7895C41.1149 39.1234 43 37.2382 43 34.9128Z"/>
</mask>
<path d="M43 34.9128V27.5C43 17.2827 34.7173 9 24.5 9C14.2827 9 6 17.2827 6 27.5V34.9128C6 37.2382 7.88512 39.1234 10.2105 39.1234H38.7895C41.1149 39.1234 43 37.2382 43 34.9128Z" fill="#4ED78B"/>
<path d="M41.7368 27.5V34.9128H44.2632V27.5H41.7368ZM7.26316 34.9128V27.5H4.73684V34.9128H7.26316ZM38.7895 37.8602H10.2105V40.3865H38.7895V37.8602ZM24.5 10.2632C34.0196 10.2632 41.7368 17.9804 41.7368 27.5H44.2632C44.2632 16.5851 35.4149 7.73684 24.5 7.73684V10.2632ZM24.5 7.73684C13.5851 7.73684 4.73684 16.5851 4.73684 27.5H7.26316C7.26316 17.9804 14.9804 10.2632 24.5 10.2632V7.73684ZM4.73684 34.9128C4.73684 37.9359 7.18749 40.3865 10.2105 40.3865V37.8602C8.58274 37.8602 7.26316 36.5406 7.26316 34.9128H4.73684ZM41.7368 34.9128C41.7368 36.5406 40.4173 37.8602 38.7895 37.8602V40.3865C41.8125 40.3865 44.2632 37.9359 44.2632 34.9128H41.7368Z" fill="white" mask="url(#path-1-outside-1_510_14866)"/>
<path d="M29.2467 27.7431C29.2467 27.871 29.1255 27.9976 28.89 28.1157C28.6545 28.2339 28.3093 28.3412 27.8742 28.4316C27.4391 28.522 26.9225 28.5937 26.354 28.6427C25.7855 28.6916 25.1762 28.7168 24.5608 28.7168C23.9454 28.7168 23.3361 28.6916 22.7676 28.6427C22.1991 28.5937 21.6825 28.522 21.2474 28.4316C20.8123 28.3412 20.4671 28.2339 20.2316 28.1157C19.9962 27.9976 19.8749 27.871 19.8749 27.7431M20.4835 26.7086C20.3821 27.3171 19.8506 28.4734 18.5361 28.23M28.7598 26.9103C28.8612 27.5188 29.3927 28.6751 30.7072 28.4316" stroke="black" stroke-width="0.736842"/>
<circle cx="20.727" cy="22.266" r="3.16447" fill="white"/>
<circle cx="28.2729" cy="22.266" r="3.16447" fill="white"/>
<circle cx="20.7874" cy="22.2053" r="1.39967" fill="black"/>
<circle cx="28.3342" cy="22.2053" r="1.39967" fill="black"/>
</svg>
