<svg width="24" height="24" viewBox="0 0 24 24" fill="none" xmlns="http://www.w3.org/2000/svg">
<path d="M2.45383 7.94016C2.73512 7.65895 3.11658 7.50098 3.51433 7.50098C3.91207 7.50098 4.29353 7.65895 4.57483 7.94016L11.9998 15.3652L19.4248 7.94016C19.7077 7.66692 20.0866 7.51573 20.4799 7.51915C20.8732 7.52256 21.2494 7.68032 21.5275 7.95843C21.8056 8.23654 21.9634 8.61276 21.9668 9.00605C21.9702 9.39935 21.819 9.77825 21.5458 10.0612L13.0603 18.5467C12.779 18.8279 12.3976 18.9858 11.9998 18.9858C11.6021 18.9858 11.2206 18.8279 10.9393 18.5467L2.45383 10.0612C2.17262 9.77986 2.01465 9.3984 2.01465 9.00066C2.01465 8.60291 2.17262 8.22145 2.45383 7.94016Z" fill="#AAAAAA"/>
</svg>
