<svg width="48" height="48" viewBox="0 0 48 48" fill="none" xmlns="http://www.w3.org/2000/svg">
<g clip-path="url(#clip0_510_14876)">
<mask id="path-1-outside-1_510_14876" maskUnits="userSpaceOnUse" x="12" y="14" width="42" height="37" fill="black">
<rect fill="white" x="12" y="14" width="42" height="37"/>
<path d="M32.9801 49.1807C40.7682 45.9098 46.4047 40.3261 49.4451 34.6723C52.4388 29.0418 52.8598 23.4347 50.1935 20.0704C47.7846 17.0566 44.6506 15.9118 41.4699 16.0053C38.2891 16.0987 35.2019 17.4771 32.9801 19.4162C30.7582 17.4771 27.671 16.0987 24.4903 16.0053C21.3095 15.9118 18.1756 17.0566 15.7666 20.0704C13.1004 23.4347 13.5214 29.0418 16.5618 34.6723C19.5555 40.3261 25.1919 45.9098 32.9801 49.1807Z"/>
</mask>
<path d="M32.9801 49.1807C40.7682 45.9098 46.4047 40.3261 49.4451 34.6723C52.4388 29.0418 52.8598 23.4347 50.1935 20.0704C47.7846 17.0566 44.6506 15.9118 41.4699 16.0053C38.2891 16.0987 35.2019 17.4771 32.9801 19.4162C30.7582 17.4771 27.671 16.0987 24.4903 16.0053C21.3095 15.9118 18.1756 17.0566 15.7666 20.0704C13.1004 23.4347 13.5214 29.0418 16.5618 34.6723C19.5555 40.3261 25.1919 45.9098 32.9801 49.1807Z" fill="#FEA8D9"/>
<path d="M32.9801 49.1807L32.5072 50.3068L32.9801 50.5054L33.453 50.3068L32.9801 49.1807ZM49.4451 34.6723L50.5208 35.2507L50.5236 35.2456L49.4451 34.6723ZM50.1935 20.0704L51.1508 19.3118L51.1476 19.3078L50.1935 20.0704ZM32.9801 19.4162L32.177 20.3364L32.9801 21.0374L33.7832 20.3364L32.9801 19.4162ZM15.7666 20.0704L14.8126 19.3078L14.8094 19.3118L15.7666 20.0704ZM16.5618 34.6723L17.6412 34.1007L17.6365 34.0919L16.5618 34.6723ZM33.453 50.3068C41.4993 46.9275 47.3483 41.1502 50.5208 35.2507L48.3694 34.0938C45.4611 39.502 40.0372 44.8922 32.5072 48.0546L33.453 50.3068ZM50.5236 35.2456C53.5945 29.4698 54.277 23.2566 51.1508 19.3118L49.2363 20.829C51.4425 23.6128 51.2831 28.6138 48.3667 34.0989L50.5236 35.2456ZM51.1476 19.3078C48.4772 15.9669 44.9621 14.6808 41.434 14.7844L41.5057 17.2261C44.3391 17.1429 47.092 18.1463 49.2395 20.833L51.1476 19.3078ZM41.434 14.7844C37.9388 14.8871 34.5869 16.3928 32.177 18.496L33.7832 20.3364C35.817 18.5615 38.6395 17.3103 41.5057 17.2261L41.434 14.7844ZM33.7832 18.496C31.3733 16.3928 28.0214 14.8871 24.5262 14.7844L24.4544 17.2261C27.3207 17.3103 30.1432 18.5615 32.177 20.3364L33.7832 18.496ZM24.5262 14.7844C20.9981 14.6808 17.483 15.9669 14.8126 19.3078L16.7207 20.833C18.8682 18.1463 21.621 17.1429 24.4544 17.2261L24.5262 14.7844ZM14.8094 19.3118C11.6817 23.2584 12.3663 29.4732 15.4871 35.2526L17.6365 34.0919C14.6765 28.6104 14.5191 23.611 16.7238 20.829L14.8094 19.3118ZM15.4824 35.2438C18.6096 41.1498 24.4618 46.9279 32.5072 50.3068L33.453 48.0546C25.922 44.8918 20.5013 39.5024 17.6412 34.1007L15.4824 35.2438Z" fill="white" mask="url(#path-1-outside-1_510_14876)"/>
<path d="M21.3425 16.5552C21.3425 17.0479 21.186 17.5357 20.8819 17.9908C20.5779 18.4459 20.1322 18.8594 19.5704 19.2078C19.0085 19.5561 18.3415 19.8324 17.6074 20.0209C16.8733 20.2095 16.0866 20.3065 15.292 20.3065" stroke="black" stroke-width="0.712468"/>
<path d="M26.7591 14.2442C26.7591 14.7368 26.9156 15.2246 27.2196 15.6797C27.5237 16.1349 27.9694 16.5484 28.5312 16.8967C29.0931 17.2451 29.7601 17.5214 30.4941 17.7099C31.2282 17.8984 32.015 17.9954 32.8096 17.9954" stroke="black" stroke-width="0.712468"/>
<path d="M22.3205 25.65C22.3205 25.1354 22.2192 24.6258 22.0223 24.1504C21.8253 23.675 21.5367 23.243 21.1728 22.8791C20.809 22.5153 20.377 22.2266 19.9015 22.0297C19.4261 21.8328 18.9166 21.7314 18.402 21.7314C17.8874 21.7314 17.3778 21.8328 16.9024 22.0297C16.427 22.2266 15.995 22.5153 15.6311 22.8791C15.2672 23.243 14.9786 23.675 14.7817 24.1504C14.5848 24.6258 14.4834 25.1354 14.4834 25.65L22.3205 25.65Z" fill="white"/>
<path d="M19.8778 25.7009C19.8778 25.5004 19.8396 25.3019 19.7655 25.1166C19.6913 24.9314 19.5826 24.7631 19.4455 24.6213C19.3085 24.4796 19.1458 24.3671 18.9667 24.2904C18.7877 24.2137 18.5958 24.1742 18.402 24.1742C18.2082 24.1742 18.0163 24.2137 17.8372 24.2904C17.6581 24.3671 17.4954 24.4796 17.3584 24.6213C17.2214 24.7631 17.1127 24.9314 17.0385 25.1166C16.9643 25.3019 16.9261 25.5004 16.9261 25.7009H19.8778Z" fill="black"/>
<path d="M33.6184 25.65C33.6184 25.1354 33.517 24.6258 33.3201 24.1504C33.1232 23.675 32.8345 23.243 32.4707 22.8791C32.1068 22.5152 31.6748 22.2266 31.1994 22.0297C30.724 21.8327 30.2144 21.7314 29.6998 21.7314C29.1852 21.7314 28.6757 21.8327 28.2003 22.0297C27.7248 22.2266 27.2928 22.5152 26.929 22.8791C26.5651 23.243 26.2765 23.675 26.0795 24.1504C25.8826 24.6258 25.7812 25.1354 25.7813 25.65L33.6184 25.65Z" fill="white"/>
<path d="M31.1757 25.7008C31.1757 25.5004 31.1375 25.3018 31.0633 25.1166C30.9891 24.9314 30.8804 24.7631 30.7434 24.6213C30.6063 24.4795 30.4437 24.3671 30.2646 24.2903C30.0855 24.2136 29.8936 24.1741 29.6998 24.1741C29.506 24.1741 29.3141 24.2136 29.1351 24.2903C28.956 24.3671 28.7933 24.4795 28.6563 24.6213C28.5192 24.7631 28.4105 24.9314 28.3363 25.1166C28.2622 25.3018 28.224 25.5004 28.224 25.7008H31.1757Z" fill="black"/>
<path d="M26.0104 27.2277C26.0104 27.5618 25.909 27.8927 25.7121 28.2014C25.5152 28.5102 25.2265 28.7907 24.8626 29.0269C24.4988 29.2632 24.0668 29.4507 23.5914 29.5785C23.1159 29.7064 22.6064 29.7722 22.0918 29.7722" stroke="black" stroke-width="0.712468"/>
</g>
<defs>
<clipPath id="clip0_510_14876">
<rect width="48" height="48" fill="white"/>
</clipPath>
</defs>
</svg>
