<svg width="60" height="60" viewBox="0 0 60 60" fill="none" xmlns="http://www.w3.org/2000/svg">
<path d="M5.68945 29.551C5.68945 42.4659 16.0386 53.1021 28.8911 53.1021C41.7437 53.1021 53.7905 42.9871 53.7905 30.0723C53.7905 17.1575 43.63 6.00002 30.7774 6.00002C17.9249 6.00002 5.68945 16.6362 5.68945 29.551Z" fill="#FB8073"/>
<path d="M3.75 29.2497C3.75 43.3106 15.0295 54.75 28.8916 54.75C43.4395 54.75 55.7308 43.3112 55.7308 29.771C55.7308 15.4228 44.5369 3.75 30.7779 3.75C16.3807 3.75 3.75 15.6656 3.75 29.2497ZM7.62858 29.2497C7.62858 17.7418 18.4464 7.64738 30.7779 7.64738C42.3979 7.64738 51.8516 17.5728 51.8516 29.771C51.8516 41.0009 41.1229 50.852 28.8916 50.852C17.1673 50.852 7.62858 41.1612 7.62858 29.2497Z" fill="#DC6E62"/>
<path d="M20.7002 30.3145C20.9595 26.9985 20.9677 23.4531 21.8364 20.2532C22.1906 18.9605 22.5348 17.1497 24.171 17.2543C24.8306 17.3843 26.2165 17.8919 26.7351 18.3387C27.4003 18.7783 28.6048 19.3298 29.2201 19.7903C33.1251 22.3306 38.8425 25.7118 39.9749 26.9208C41.1073 28.1298 42.1948 29.3701 41.9703 31.1077C41.9777 31.2105 41.9777 31.3137 41.9703 31.4165C41.8257 32.9395 40.2443 33.5099 39.0969 33.9914C36.3482 35.1951 26.8699 39.5861 25.3234 39.6594C24.0513 39.717 22.2404 40.0362 21.2377 38.9895C20.235 37.9428 20.3548 36.3721 20.25 35.0323C20.605 31.7661 20.5422 31.9105 20.7002 30.3145Z" fill="white"/>
</svg>
