<svg width="32" height="32" viewBox="0 0 32 32" fill="none" xmlns="http://www.w3.org/2000/svg">
<path d="M13.3327 24.0003C15.6993 23.9998 17.9978 23.2076 19.862 21.7497L25.7233 27.611L27.6087 25.7257L21.7474 19.8643C23.206 17.9999 23.9988 15.7009 23.9993 13.3337C23.9993 7.45233 19.214 2.66699 13.3327 2.66699C7.45135 2.66699 2.66602 7.45233 2.66602 13.3337C2.66602 19.215 7.45135 24.0003 13.3327 24.0003ZM13.3327 5.33366C17.7447 5.33366 21.3327 8.92166 21.3327 13.3337C21.3327 17.7457 17.7447 21.3337 13.3327 21.3337C8.92068 21.3337 5.33268 17.7457 5.33268 13.3337C5.33268 8.92166 8.92068 5.33366 13.3327 5.33366Z" fill="black"/>
<path d="M15.2161 11.4481C15.7214 11.9548 16.0001 12.6241 16.0001 13.3334H18.6668C18.6679 12.6327 18.5302 11.9386 18.2615 11.2914C17.9929 10.6442 17.5986 10.0567 17.1014 9.56278C15.0828 7.54678 11.5828 7.54678 9.56543 9.56278L11.4481 11.4508C12.4614 10.4401 14.2081 10.4428 15.2161 11.4481Z" fill="black"/>
</svg>
