<svg width="32" height="32" viewBox="0 0 32 32" fill="none" xmlns="http://www.w3.org/2000/svg">
<path d="M16.0004 3.2002C17.2734 3.2002 18.4943 3.70591 19.3945 4.60608C20.2947 5.50626 20.8004 6.72716 20.8004 8.0002V9.6002H22.4004C23.2491 9.6002 24.063 9.93734 24.6631 10.5375C25.2632 11.1376 25.6004 11.9515 25.6004 12.8002V24.0002C25.6004 24.8489 25.2632 25.6628 24.6631 26.2629C24.063 26.8631 23.2491 27.2002 22.4004 27.2002H9.60039C8.7517 27.2002 7.93777 26.8631 7.33765 26.2629C6.73753 25.6628 6.40039 24.8489 6.40039 24.0002V12.8002C6.40039 11.9515 6.73753 11.1376 7.33765 10.5375C7.93777 9.93734 8.7517 9.6002 9.60039 9.6002H11.2004V8.0002C11.2004 6.72716 11.7061 5.50626 12.6063 4.60608C13.5065 3.70591 14.7274 3.2002 16.0004 3.2002ZM16.0004 16.8002C15.576 16.8002 15.1691 16.9688 14.869 17.2688C14.569 17.5689 14.4004 17.9758 14.4004 18.4002C14.4004 18.8245 14.569 19.2315 14.869 19.5316C15.1691 19.8316 15.576 20.0002 16.0004 20.0002C16.4247 20.0002 16.8317 19.8316 17.1318 19.5316C17.4318 19.2315 17.6004 18.8245 17.6004 18.4002C17.6004 17.9758 17.4318 17.5689 17.1318 17.2688C16.8317 16.9688 16.4247 16.8002 16.0004 16.8002ZM16.0004 6.4002C15.576 6.4002 15.1691 6.56877 14.869 6.86882C14.569 7.16888 14.4004 7.57585 14.4004 8.0002V9.6002H17.6004V8.0002C17.6004 7.57585 17.4318 7.16888 17.1318 6.86882C16.8317 6.56877 16.4247 6.4002 16.0004 6.4002Z" fill="black"/>
</svg>
