<svg width="60" height="60" viewBox="0 0 60 60" fill="none" xmlns="http://www.w3.org/2000/svg">
<path d="M8.99635 52.016C8.61726 52.1368 8.30389 52.3355 8.15968 52.6058C7.15082 54.4968 9.42107 56.5962 12.4964 56.8343C12.8718 56.8635 13.2442 56.81 13.5515 56.6855C23.3207 52.7249 26.7726 42.5724 27.2959 35.2258L25.1985 34.9415C22.9446 42.1101 16.1746 49.727 8.99635 52.016Z" fill="#4ED78B"/>
<path d="M23.346 3.15793C21.5406 3.15854 19.3178 3.84436 16.5809 5.51973C1.47526 14.7689 18.9138 25.2397 18.9138 25.2397C18.9138 25.2397 3.61956 22.7916 6.73378 36.7942C10.0318 51.6217 26.2333 35.9838 26.2333 35.9838C26.2333 35.9838 27.4247 52.5043 42.1999 46.8361C56.9751 41.1679 39.3619 28.8237 39.3619 28.8237C39.3619 28.8237 61.1134 27.0274 50.9036 14.088C40.6933 1.14785 31.1358 17.1708 31.1358 17.1708C31.1358 17.1708 31.504 3.15915 23.346 3.15793C23.3454 3.15793 23.3466 3.15793 23.346 3.15793Z" fill="#4ED78B"/>
<path d="M21.999 16.7565C22.4444 18.7034 23.6736 22.1544 26.9977 24.6523C27.4322 24.9785 28.0461 24.6347 28.0115 24.0928C27.9032 22.3792 27.0963 19.1341 23.003 16.112C22.8832 16.0233 22.7505 15.9838 22.6215 15.9838C22.243 15.9838 21.9005 16.3258 21.999 16.7565ZM40.1495 20.9073C38.1707 21.1983 34.6281 22.1526 31.8747 25.2652C31.5139 25.6722 31.8102 26.31 32.3536 26.3186C34.0738 26.3441 37.3772 25.7943 40.7142 21.9576C41.0805 21.5366 40.7756 20.9006 40.2487 20.9C40.2164 20.9 40.183 20.9024 40.1495 20.9073ZM15.9464 34.1712C15.5521 34.6128 15.9093 35.3077 16.4965 35.2294C18.4802 34.967 22.0355 34.0643 24.8333 30.9911C25.1997 30.589 24.9131 29.9475 24.3691 29.9317C24.2973 29.9293 24.223 29.9281 24.1458 29.9281C22.3739 29.9281 19.1976 30.5404 15.9464 34.1712ZM30.6815 32.0912C31.1269 34.0388 32.356 37.4897 35.6802 39.987C36.114 40.3132 36.728 39.9694 36.6939 39.4275C36.585 37.7139 35.7788 34.4688 31.6855 31.4473C31.565 31.358 31.4318 31.3186 31.304 31.3186C30.9255 31.3179 30.5829 31.6606 30.6815 32.0912Z" fill="#3D9162"/>
</svg>
