<svg width="60" height="60" viewBox="0 0 60 60" fill="none" xmlns="http://www.w3.org/2000/svg">
<path d="M29.7654 2.43243L29.5142 2.57116C29.2495 2.71779 28.9566 2.81393 28.6729 2.91615C28.3175 3.04392 27.9848 3.1796 27.6686 3.39012C23.0522 6.46826 25.1294 13.2665 25.896 17.6814C25.9413 17.9454 25.9946 18.2083 26.04 18.4723C26.0682 18.6354 26.1331 18.9652 26.1398 19.1635C26.0259 19.295 25.8488 19.4538 25.7366 19.5609C25.5779 19.7136 25.4107 19.8633 25.2563 20.0196C25.0246 20.2527 24.8329 20.5112 24.6221 20.7613C24.4579 20.9572 24.2471 21.1203 24.0755 21.3156C22.168 23.4799 20.0823 26.0895 19.0498 28.7904C18.7753 29.4713 18.5406 30.1649 18.3458 30.8756C18.2294 31.2996 18.1711 31.7353 18.0994 32.1673C18.0676 32.3614 18.0198 32.7806 17.9451 32.9498L17.8458 33.1767L17.8544 33.4256C17.8979 34.6753 17.7508 35.8843 17.9273 37.1377C18.0112 37.7285 18.1362 38.3114 18.2876 38.8888C18.3519 39.1334 18.4512 39.3786 18.5376 39.6171C18.5964 39.779 18.6871 40.0175 18.7036 40.1866L18.7348 40.5152L18.945 40.772C19.0431 40.893 19.1117 41.1096 19.1791 41.2526C19.298 41.5088 19.4371 41.754 19.5755 42.001C19.8464 42.4841 20.1558 43.025 20.5265 43.4424C21.2667 44.6928 23.1043 46.1738 24.5639 47.0378C24.418 47.0299 24.271 47.0329 24.1239 47.0469C23.1442 47.1436 22.2986 47.7296 21.9297 48.6501C20.9389 51.1235 22.7808 54.6087 24.7992 56.0842C25.3084 56.4565 25.8525 56.7687 26.4401 57.0029C26.8016 57.1471 27.1772 57.2372 27.5577 57.3211C27.7618 57.3656 28.0087 57.4063 28.2011 57.4854L28.4027 57.567H30.4517L30.6803 57.4568C30.861 57.3692 31.149 57.3126 31.3457 57.2566C31.8243 57.1185 32.2949 56.9615 32.7483 56.7553C34.127 56.1316 35.1815 55.1612 35.9161 53.8463C36.6606 52.5126 37.0632 51.2062 36.9492 49.6693C36.8898 48.8728 36.7023 48.1007 36.5779 47.3164C37.8684 46.624 39.342 45.2501 40.1318 44.1178C41.3904 42.3132 41.9137 40.8237 42.2078 38.6558L42.2145 38.6053L42.2157 38.553C42.2574 37.3549 42.1557 36.2007 41.7905 35.0526C40.5675 31.2066 37.2329 28.6967 33.2195 28.5002L32.6809 25.4439C32.4535 24.1516 32.1839 22.8678 31.9437 21.5779C31.9112 21.4032 31.8138 20.9171 31.8279 20.7248C31.9425 20.5551 32.2317 20.2965 32.3726 20.1468C33.1092 19.3637 33.7366 18.4985 34.3114 17.595C36.1343 14.7316 37.4394 10.7657 36.6116 7.38581C36.2427 5.88111 35.5485 4.51575 34.2513 3.60065C33.8365 3.30738 33.3892 3.08407 32.9192 2.8918C32.6582 2.78532 32.3708 2.6965 32.1245 2.56386L31.8788 2.43243H29.7654ZM30.5136 13.3346C30.3592 12.4079 30.1858 11.4752 30.0994 10.54C30.0302 9.791 30.1073 8.77002 30.4352 8.08552C30.4823 7.98634 30.5883 7.77826 30.6864 7.72045C30.7538 7.68029 30.8843 7.73932 30.9438 7.7673C31.2624 7.91941 31.4695 8.80592 31.5026 9.12414C31.6221 10.2565 31.2121 11.7301 30.8114 12.787C30.7268 13.0121 30.6343 13.2379 30.5351 13.4624L30.5136 13.3346ZM25.7648 41.3664C24.2066 39.894 23.2765 37.8447 23.1442 35.717C22.9928 33.2941 23.7189 31.069 24.9162 28.9821C25.5522 27.8735 26.4168 26.7071 27.2992 25.7104L28.0596 30.0675C27.1018 30.7563 26.1919 31.871 25.6644 32.8755C24.8273 34.4672 24.5627 36.3449 25.0173 38.0899C25.3182 39.2423 26.1944 40.1568 27.418 40.2931C28.3463 40.3978 29.2164 40.0096 29.7636 39.3068C29.7881 39.437 29.8114 39.5666 29.8347 39.6974C30.0283 40.7598 30.2195 41.8234 30.3966 42.8888C30.4278 43.0737 30.4585 43.2593 30.4879 43.4443C28.7078 43.3244 27.0724 42.601 25.7648 41.3664ZM34.2213 34.0255C36.7967 34.9424 37.603 38.1027 36.1864 40.4434C36.008 40.7385 35.7765 41.0573 35.5295 41.3542L34.2213 34.0255ZM27.611 51.5342C26.7998 50.4432 27.3714 49.2476 26.5963 48.1409C26.5498 48.0746 26.5014 48.0119 26.4505 47.9516C27.331 48.3045 28.236 48.5601 29.2097 48.6435C29.7483 48.6897 30.2881 48.6891 30.8279 48.6885C31.0356 48.6885 31.2428 48.6879 31.4499 48.6903C31.6037 49.4168 31.7299 50.2272 31.4333 50.9093C31.0798 51.724 30.4015 52.1895 29.5099 52.2418C29.464 52.2449 29.4174 52.2461 29.3696 52.2461C28.7532 52.2461 27.9768 52.0258 27.611 51.5342Z" fill="#855CF6"/>
</svg>
