<svg width="61" height="60" viewBox="0 0 61 60" fill="none" xmlns="http://www.w3.org/2000/svg">
<path d="M52.9474 3.12117C33.0382 4.10556 17.7499 7.4797 5.85456 10.5567C3.9714 11.0436 2.69796 12.8377 2.85021 14.8143C3.63813 25.0141 6.91401 36.209 10.8571 44.9511C11.5321 46.4481 13.0209 47.3881 14.6346 47.3308C27.0365 46.8862 32.3492 46.6313 42.32 44.2244C37.9636 47.3408 33.8942 50.7357 30.1398 54.4342C29.4213 55.1422 30.1363 56.355 31.0919 56.0579C41.4584 52.8241 50.7801 48.9982 55.977 42.8305C58.3282 32.6952 58.3948 18.8908 57.1087 6.76092C56.8877 4.68331 55.1702 3.11687 53.1432 3.11687C53.0779 3.11687 53.0134 3.11831 52.9474 3.12117Z" fill="#855CF6"/>
<path d="M23.4842 26.0757C23.734 28.2013 21.6263 30.1765 19.5425 30.4314C17.4594 30.6877 15.5678 29.1714 15.3166 27.0451C15.0669 24.9195 17.1163 22.9837 19.2001 22.7281C21.2832 22.4725 23.2344 23.9502 23.4842 26.0757ZM31.4322 21.2282C29.3491 21.4838 27.2989 23.4197 27.5494 25.5452C27.7999 27.6715 29.6922 29.1878 31.7753 28.9323C33.8584 28.6767 35.9675 26.7022 35.717 24.5759C35.4665 22.4503 33.516 20.9734 31.4322 21.2282ZM43.665 19.7284C41.5818 19.9839 39.5324 21.9198 39.7822 24.0461C40.0327 26.1717 41.9249 27.6873 44.0073 27.4324C46.0912 27.1768 48.2002 25.2016 47.9498 23.076C47.6993 20.9504 45.7481 19.4728 43.665 19.7284Z" fill="white"/>
</svg>
