<svg width="61" height="60" viewBox="0 0 61 60" fill="none" xmlns="http://www.w3.org/2000/svg">
<path d="M44.894 6.42402C33.3663 9.28397 19.2908 13.4247 13.0109 16.0215C12.588 16.196 12.3483 16.6437 12.4436 17.0885C14.9621 28.8167 18.746 40.8809 22.5627 51.2492L20.6752 49.8977L16.3511 53.9358C17.1276 54.6123 23.9279 55.6176 24.8268 55.4886C24.8291 55.4886 24.8313 55.488 24.833 55.4875C24.8956 55.4863 24.9588 55.4807 25.0219 55.4661C36.2699 52.9714 48.1783 49.9617 55.644 46.8122C56.072 46.631 56.3083 46.1766 56.2074 45.7262C53.1126 31.9852 50.8135 16.6594 47.0363 7.50113C46.7476 6.80382 46.0692 6.36961 45.34 6.36961C45.1923 6.36961 45.0423 6.387 44.894 6.42402Z" fill="#469568"/>
<path d="M40.5556 5.28746C40.5054 5.28746 40.4586 5.29251 40.4152 5.30317C29.3432 8.05092 17.2634 13.5335 11.2311 16.0271C10.8251 16.1949 10.5956 16.6246 10.6869 17.0526C13.3932 29.6571 15.4216 41.4581 19.5134 52.1355C19.6753 52.558 23.2737 54.1731 25.4115 53.7304C36.3933 51.4595 45.0106 48.6265 52.1797 45.6011C52.5914 45.4283 52.8187 44.9913 52.7211 44.5582C49.7493 31.3608 47.5409 16.6397 43.9121 7.84391C43.5963 7.07815 41.4957 5.28746 40.5562 5.28746C40.5562 5.28746 40.5562 5.28746 40.5556 5.28746Z" fill="url(#paint0_linear_510_1180)"/>
<path d="M36.9422 5.02098C25.4146 7.8815 11.3396 12.0222 5.05922 14.6185C4.63684 14.7929 4.39717 15.2406 4.49248 15.6861C7.31096 28.8088 11.7129 42.3608 15.9734 53.4774C16.1425 53.9173 16.6089 54.1663 17.0708 54.0637C28.3187 51.5684 40.2277 48.5586 47.6923 45.4086C48.1203 45.2286 48.3572 44.7747 48.2551 44.3231C45.1609 30.5827 42.8623 15.2569 39.084 6.09866C38.7959 5.40078 38.1175 4.96657 37.3877 4.96657C37.2406 4.96657 37.0911 4.98396 36.9422 5.02098Z" fill="#4ED78B"/>
<path d="M26.4077 17.4875C22.6198 18.1865 19.2188 20.7188 17.4774 24.1381C15.7366 27.5568 15.696 31.7828 17.3703 35.2346C18.7739 38.1282 21.3769 40.4614 24.4717 41.3797C27.5671 42.298 31.1091 41.7292 33.6524 39.7483C36.1957 37.7691 37.6111 34.3869 37.0658 31.2207C36.5938 28.4796 34.6731 26.0292 32.1174 24.9044C30.2677 24.0904 28.0464 23.9793 26.2504 24.9044C24.4543 25.8295 23.2221 27.8878 23.5548 29.8726C23.8875 31.8568 25.9735 33.4674 27.9489 33.0355C28.5856 32.8963 29.2623 32.4313 29.2296 31.7833C29.1867 30.9547 28.0684 30.5755 27.8367 29.7783C27.663 29.1814 28.091 28.5251 28.6718 28.2968C29.2521 28.0679 29.9232 28.1941 30.4815 28.4729C32.105 29.2835 32.8843 31.3732 32.3503 33.1005C31.8157 34.8284 30.1273 36.0867 28.3233 36.2982C26.5188 36.5103 24.6691 35.7524 23.3873 34.4716C22.1061 33.1903 21.3657 31.4333 21.135 29.6403C20.8531 27.4525 21.342 25.1109 22.7563 23.4105C24.17 21.7112 26.5735 20.7811 28.7057 21.3898C29.7111 21.6776 30.5971 22.2672 31.4813 22.8237C32.3655 23.3796 33.2943 23.9199 34.3274 24.0871C35.3594 24.2548 36.529 23.9737 37.1566 23.1418C38.77 21.0044 35.7355 19.2906 34.2163 18.5624C32.4806 17.7304 30.5531 17.2867 28.6262 17.2867C27.8823 17.2867 27.1402 17.3529 26.4077 17.4875Z" fill="#3CC679"/>
<path d="M37.8108 4.51627C35.5647 4.91233 30.8396 5.96139 30.8661 6.5841C30.8972 7.30497 35.0166 6.8399 35.0166 6.8399C35.0166 6.8399 35.1435 8.41518 35.9352 8.76244C36.727 9.10857 37.7725 8.44715 37.7725 8.44715C37.7725 8.44715 40.4015 11.6297 40.7793 10.8937C41.0709 10.3254 39.652 6.76024 38.9866 5.15916C38.8191 4.75413 38.4255 4.5 37.9981 4.5C37.936 4.5 37.8734 4.50505 37.8108 4.51627ZM11.6274 11.9292C11.5862 11.9292 11.5433 11.9349 11.4994 11.9478C9.3948 12.5508 4.35447 14.0745 4.26085 14.8593C4.14187 15.8517 5.02102 21.465 5.9233 21.1873C6.82613 20.9096 6.94513 17.5773 6.94513 17.5773C6.94513 17.5773 7.9427 17.648 8.6555 17.1751C9.36773 16.7027 8.82186 14.4812 8.82186 14.4812C8.82186 14.4812 11.0003 13.8147 11.9657 12.6507C12.2133 12.3528 11.9787 11.9292 11.6279 11.9292C11.6279 11.9292 11.6279 11.9292 11.6274 11.9292ZM46.2928 40.2729C46.2928 40.2729 45.1531 40.6819 45.1531 41.7842C45.1531 42.8877 46.2612 43.2972 46.2612 43.2972C46.2612 43.2972 42.8083 46.3906 43.2516 47.0963C43.6959 47.8031 48.7002 45.9754 48.9218 44.9987C49.1434 44.022 48.1825 37.9863 46.7783 37.4281C46.7676 37.4242 46.7575 37.4219 46.7473 37.4219C46.4338 37.4214 46.2009 39.2962 46.2928 40.2729ZM13.794 48.4735C14.2778 50.2502 15.3662 53.8557 16.2955 54.1132C17.5333 54.456 21.2969 53.8406 21.3641 53.1281C21.4306 52.414 18.3499 52.1335 18.3499 52.1335C18.3499 52.1335 18.8935 51.1119 17.9873 50.2704C17.0811 49.4283 15.9741 49.8648 15.9741 49.8648C15.9741 49.8648 15.2793 48.8511 14.4148 48.0848C14.3398 48.0186 14.2536 47.9894 14.169 47.9894C13.9378 47.9894 13.7218 48.2082 13.794 48.4735Z" fill="#FFE772"/>
<defs>
<linearGradient id="paint0_linear_510_1180" x1="32.1833" y1="31.3145" x2="96.6909" y2="261.486" gradientUnits="userSpaceOnUse">
<stop stop-color="#FFD187"/>
<stop offset="0.00053443" stop-color="#FFD187"/>
<stop offset="0.5" stop-color="#E48E0E"/>
<stop offset="0.500005" stop-color="#E48E0E"/>
<stop offset="1" stop-color="#5B3600"/>
</linearGradient>
</defs>
</svg>
