<svg width="60" height="60" viewBox="0 0 60 60" fill="none" xmlns="http://www.w3.org/2000/svg">
<path d="M3.71875 30.3255C3.71875 44.2874 14.907 55.786 28.8016 55.786C42.6963 55.786 55.7198 44.8509 55.7198 30.889C55.7198 16.927 44.7355 4.8649 30.8409 4.8649C16.9462 4.8649 3.71875 16.3635 3.71875 30.3255Z" fill="#FFE772"/>
<path d="M33.7304 13.4662C33.4202 13.4662 33.1042 13.5541 32.8222 13.7375C30.6105 15.182 28.4038 17.0237 26.2003 19.1728C25.8975 19.4681 25.4922 19.6345 25.0692 19.6389C22.2143 19.6667 19.3833 19.9804 16.5761 20.5629C15.6345 20.7583 15.0618 21.7235 15.3349 22.6494C16.2903 25.8869 17.2464 29.1092 18.2598 30.7669C18.4933 31.1489 18.5499 31.6106 18.4335 32.0432C17.6675 34.8942 17.079 37.6846 16.719 40.3978C16.5931 41.3452 17.2987 42.2047 18.2478 42.2617C21.1909 42.4413 24.0477 42.3173 26.7989 41.8202C27.2382 41.7405 27.6894 41.8385 28.0539 42.0991C30.4663 43.8219 32.9386 45.2709 35.482 46.3954C36.3487 46.7786 37.3596 46.3359 37.6831 45.441C38.6612 42.7341 39.424 39.9697 39.9294 37.1338C40.0056 36.7056 40.239 36.3223 40.5947 36.0757C42.5735 34.7051 44.7431 32.5826 46.9957 30.1369C47.6232 29.4564 47.5772 28.3762 46.8736 27.776C44.9917 26.1696 42.4048 24.6397 39.5757 23.1351C39.1974 22.9346 38.9098 22.5969 38.7814 22.187C38.1004 20.0076 36.7547 17.2666 35.1705 14.3238C34.8728 13.771 34.3107 13.4662 33.7323 13.4662C33.7317 13.4662 33.7311 13.4662 33.7304 13.4662Z" fill="#E0CB64"/>
<path d="M1.62207 29.9997C1.62207 45.2006 13.8161 57.5676 28.8021 57.5676C44.5296 57.5676 57.8175 45.2013 57.8175 30.5632C57.8175 15.0517 45.716 2.43243 30.8414 2.43243C15.2769 2.43243 1.62207 15.3142 1.62207 29.9997ZM5.81513 29.9997C5.81513 17.5588 17.51 6.64582 30.8414 6.64582C43.4036 6.64582 53.6238 17.376 53.6238 30.5632C53.6238 42.7037 42.0252 53.3535 28.8021 53.3535C16.1273 53.3535 5.81513 42.877 5.81513 29.9997Z" fill="#E0CB64"/>
</svg>
