<svg width="60" height="60" viewBox="0 0 60 60" fill="none" xmlns="http://www.w3.org/2000/svg">
<path d="M53.1401 19.82C51.4618 27.7098 47.048 48.4837 45.3165 56.6289C40.373 58.4459 32.6204 58.5343 26.945 58.1422V58.1435L26.4598 58.1083V58.1071C20.8986 57.698 13.0458 56.4337 8.5882 53.9548C8.34845 46.8838 7.54484 23.1272 7.32031 16.484C14.601 16.8818 22.7399 17.3248 30.025 17.7213L30.0256 17.7132C30.1462 17.7257 30.3897 17.7433 30.5102 17.7489L30.5096 17.7564C37.7763 18.4203 45.8771 19.1556 53.1401 19.82Z" fill="#FFA9D8"/>
<path d="M30.5093 17.7564L32.053 17.8982L28.4917 58.2337C27.9893 58.208 27.473 58.1785 26.9441 58.1421L26.9447 58.1434L26.4589 58.1082V58.1076C26.0263 58.0731 25.6039 58.0367 25.1897 57.9978L28.7511 17.6516L30.024 17.7206L30.0247 17.7131C30.1458 17.7263 30.3894 17.7432 30.5099 17.7482L30.5093 17.7564ZM40.6892 18.6843L35.1102 58.2795C34.0783 58.3222 32.9632 58.3429 31.7619 58.3291L37.3923 18.3838L40.6892 18.6843ZM23.3922 17.3611L21.9416 57.6333C20.7543 57.4758 19.6596 57.2982 18.6454 57.1138L20.0826 17.1804L23.3922 17.3611ZM14.8658 56.2818C13.5313 55.9349 12.4302 55.5854 11.5448 55.266L11.2695 16.6998L14.5842 16.8805L14.8658 56.2818ZM49.4756 19.4849L42.455 57.4369C41.5365 57.6308 40.3866 57.8272 38.9919 57.9859L46.1724 19.1844L49.4756 19.4849Z" fill="#FFE0F2"/>
<path d="M53.1409 19.8196C53.8532 24.1036 5.95812 20.6528 7.32052 16.4836C6.60824 12.2008 54.5027 15.6504 53.1409 19.8196Z" fill="white"/>
<path d="M55.0655 20.6639L54.7941 23.7402C52.2963 27.7356 38.8569 27.0423 29.4813 26.6301C20.2356 25.7015 6.69348 24.3914 5 20.1156L5.274 17.0142C5.26829 16.9107 5.27463 16.8059 5.30127 16.6999C4.71522 10.6183 56.6169 14.3358 55.0953 20.3264C55.1061 20.4425 55.0922 20.5548 55.0655 20.6639Z" fill="#DF6AAD"/>
<path d="M40.6632 21.8475C42.0161 19.5556 41.1021 16.2729 35.3678 17.0421C35.3678 17.0421 38.7395 15.6367 37.1608 12.4256C35.5815 9.21569 30.5296 10.6374 29.655 12.1633L28.7797 13.6886C27.8105 11.4731 24.4363 13.7927 26.1158 15.9002C25.1041 15.6417 22.4504 15.968 21.8351 17.7448C20.9554 19.6616 24.0811 20.6987 25.517 21.0658C26.946 21.2101 28.4245 21.3393 29.9391 21.4497C33.8005 21.7308 37.4501 21.8582 40.6632 21.8475Z" fill="#FFE772"/>
<path d="M24.3697 15.9221C24.364 15.9164 24.3576 15.9107 24.3525 15.9057C24.5859 15.8648 24.8111 15.8433 25.0185 15.8345C24.8105 15.8496 24.5923 15.878 24.3697 15.9221Z" fill="#D76A5A"/>
<path d="M24.3793 15.9305C24.3755 15.928 24.3729 15.9249 24.3691 15.9217C24.5918 15.8783 24.8106 15.8499 25.0186 15.8348C25.0294 15.8336 25.0415 15.8336 25.0529 15.8336C24.8391 15.8518 24.6108 15.8839 24.3793 15.9305Z" fill="#FFCD8B"/>
<path d="M30.867 12.1205C30.5188 14.1627 35.8257 15.0631 36.1555 12.9982C36.5037 10.956 31.1968 10.0556 30.867 12.1205Z" fill="#FFF7D7"/>
<path d="M25.1035 15.8297C25.2158 15.8208 25.3236 15.8164 25.4251 15.8151C25.4276 15.8176 25.4295 15.8202 25.4314 15.8221C25.3268 15.8208 25.217 15.8233 25.1035 15.8297Z" fill="#CF3B49"/>
<path d="M29.335 17.1802C29.3402 17.1685 29.3454 17.158 29.3499 17.147C29.3512 17.1463 29.3525 17.1463 29.3545 17.1457C29.348 17.1574 29.3415 17.1685 29.335 17.1802Z" fill="#E76056"/>
<path d="M34.6064 14.137C34.6553 14.0767 34.7022 14.0171 34.7504 13.9556C34.8392 13.9751 34.9769 13.9713 35.1481 13.9425C35.2375 13.9356 35.3251 13.9255 35.412 13.913C35.1773 14.024 34.9026 14.0981 34.6064 14.137Z" fill="#ED877B"/>
<path d="M24.5747 14.209C25.9657 18.7377 31.8935 17.6654 34.7508 13.9555C40.1827 14.0308 40.8639 3.95946 32.2284 7.7014C32.2284 7.7014 35.0807 5.4339 32.6717 2.77552C30.2622 0.117146 25.7995 2.85646 25.3809 4.56116L24.9629 6.26586C23.4166 4.39866 20.8148 7.54517 23.0163 9.11497C21.9711 9.14195 19.5101 10.1759 19.4106 12.0519C19.0072 14.7304 24.5747 14.209 24.5747 14.209Z" fill="#FFE772"/>
<path d="M25.4252 15.8154C25.0637 15.3888 24.7725 14.8561 24.5747 14.2092C24.5747 14.2092 24.5734 14.2092 24.5708 14.2092C24.5734 14.2092 24.5747 14.2092 24.5747 14.2092C24.7738 14.8561 25.0649 15.3888 25.4265 15.8154C25.4265 15.8154 25.4258 15.8154 25.4252 15.8154ZM24.5664 14.2099H24.5689H24.5664Z" fill="#DB715B"/>
<path d="M38.1543 12.0646C38.6776 11.2082 38.89 10.1855 38.7397 9.27513C38.753 9.25693 38.7664 9.23874 38.7797 9.21992C39.0359 10.3756 38.7473 11.308 38.2234 12.0301C38.2 12.0414 38.1771 12.0527 38.1543 12.0646Z" fill="#FFCFA8"/>
<path d="M25.4315 15.8223C25.4295 15.8202 25.4275 15.8176 25.4248 15.8149C25.4255 15.8149 25.4261 15.8149 25.4261 15.8149C25.4282 15.8176 25.4302 15.8202 25.4322 15.8223H25.4315Z" fill="#E97756"/>
<path d="M25.4411 15.8333L25.4307 15.8209C25.4307 15.8209 25.4314 15.8216 25.4314 15.8209C25.4348 15.825 25.439 15.8292 25.4425 15.8333C25.4418 15.8333 25.4418 15.8333 25.4411 15.8333Z" fill="#F79866"/>
<path d="M26.2256 16.5243C25.9383 16.336 25.6751 16.1064 25.4404 15.8335C25.4411 15.8335 25.4411 15.8335 25.4417 15.8335C25.6757 16.1064 25.9396 16.336 26.2256 16.5243Z" fill="#F79260"/>
<path d="M30.6416 16.8604L30.652 16.8576C30.6492 16.8583 30.6451 16.8597 30.6416 16.8604Z" fill="#F4885C"/>
<path d="M32.4189 16.0396C32.7082 15.8627 32.9891 15.6676 33.2606 15.4549C33.26 15.4555 33.2593 15.4555 33.2587 15.4561C32.9885 15.6688 32.7082 15.8633 32.4196 16.0396H32.4189ZM33.6741 15.1092C33.9615 14.8532 34.2329 14.5771 34.4854 14.2822C34.2329 14.5771 33.9621 14.8526 33.6748 15.1086C33.6748 15.1086 33.6741 15.1086 33.6741 15.1092Z" fill="#F79866"/>
<path d="M30.6523 16.8568C31.2543 16.6623 31.8517 16.3868 32.4188 16.0392H32.4194C31.8517 16.3868 31.2543 16.6623 30.6523 16.8568Z" fill="#F4885C"/>
<path d="M34.4902 14.2761L34.4984 14.2672L34.4902 14.2761Z" fill="#F79866"/>
<path d="M34.751 13.9555C34.8867 13.9574 35.0193 13.953 35.1493 13.9422C34.9774 13.9714 34.8404 13.9752 34.751 13.9555Z" fill="#F7996D"/>
<path d="M21.3419 9.61102C21.3349 9.60789 21.3279 9.60412 21.3203 9.60036C21.5341 9.49746 21.744 9.4159 21.9406 9.35127C21.7453 9.42217 21.5423 9.50938 21.3419 9.61102Z" fill="#FFD4B2"/>
<path d="M36.7237 20.0179C36.6406 20.6766 36.6844 21.2708 36.8328 21.7991C43.757 21.9892 49.3144 21.6197 51.7728 20.8128C52.0126 19.0159 50.6508 17.18 46.3924 17.1543C46.3924 17.1543 49.9303 16.2307 48.8229 12.8326C47.7155 9.43454 42.512 10.1404 41.4286 11.5295L40.346 12.9186C39.7009 10.5902 36.0304 12.4173 37.3954 14.7375C36.4288 14.3416 33.756 14.2952 32.8946 15.9691C31.4238 18.2529 36.7237 20.0179 36.7237 20.0179Z" fill="#FFE772"/>
<path d="M36.7709 21.5503C36.6732 21.086 36.6529 20.5747 36.7239 20.0181C36.6535 20.5753 36.6745 21.086 36.7721 21.5497C36.7715 21.5497 36.7715 21.5503 36.7709 21.5503Z" fill="#F79866"/>
<path d="M36.832 21.7993C36.8092 21.7178 36.7889 21.6349 36.7705 21.5502C36.7711 21.5502 36.7711 21.5496 36.7718 21.5496C36.7895 21.6343 36.8098 21.7178 36.8327 21.7993H36.832Z" fill="#F7915F"/>
<path d="M35.7968 19.6538C35.7949 19.6532 35.793 19.6525 35.7917 19.6519C35.793 19.6525 35.7949 19.6532 35.7968 19.6538ZM35.7866 19.6494C35.2938 19.4342 34.6779 19.1318 34.1217 18.7616C34.6779 19.1318 35.2938 19.4342 35.7866 19.6494ZM32.7783 16.1766C32.8107 16.1082 32.85 16.0386 32.8944 15.9689C32.895 15.9683 32.8957 15.9677 32.8957 15.9671C32.8957 15.9677 32.895 15.9683 32.895 15.9689C32.85 16.0386 32.8113 16.1082 32.7783 16.1766Z" fill="#F79866"/>
<path d="M34.1218 18.7618C33.1114 18.0879 32.2983 17.1888 32.7784 16.1768C32.2983 17.1888 33.1114 18.0879 34.1218 18.7618Z" fill="#F4885C"/>
<path d="M34.041 14.9007C34.185 14.8242 34.3321 14.7608 34.4799 14.7087C34.4818 14.7144 34.4831 14.7194 34.485 14.725C34.3328 14.7746 34.1844 14.8323 34.041 14.9007Z" fill="#F79866"/>
<path d="M35.6627 14.5163C35.6576 14.5105 35.6519 14.5036 35.6475 14.4979C35.8847 14.4896 36.1105 14.4998 36.3166 14.5207C36.1086 14.5061 35.8878 14.5036 35.6627 14.5163Z" fill="#F69667"/>
<path d="M26.6992 21.1804C28.3762 18.8928 27.6893 15.2011 21.6429 16.0124C21.6429 16.0124 25.0152 14.6063 23.4359 11.3958C21.8572 8.1853 16.8053 9.60766 15.9301 11.1329L15.0554 12.6582C14.0863 10.4434 10.712 12.7623 12.3915 14.8698C11.3799 14.612 8.7261 14.9382 8.11023 16.7151C8.00748 16.9397 7.95991 17.1524 7.95801 17.3532C10.1113 18.7975 17.4853 20.3202 26.6992 21.1804Z" fill="#FFE772"/>
<path d="M7.95703 17.3527C7.95893 17.1519 8.00714 16.9393 8.10989 16.7146C8.11052 16.714 8.11052 16.7134 8.11116 16.7128C8.11052 16.7134 8.11052 16.714 8.10989 16.7146C8.00714 16.9393 7.95957 17.1519 7.95703 17.3527ZM9.0949 15.4968C9.22619 15.4021 9.36256 15.3186 9.50209 15.2471C9.504 15.2515 9.5059 15.2571 9.50844 15.2622C9.36509 15.3318 9.22619 15.4096 9.0949 15.4968Z" fill="#DB715B"/>
<path d="M10.6451 14.8922C10.6393 14.8871 10.633 14.8808 10.6279 14.8764C10.8613 14.8349 11.0859 14.8135 11.2926 14.8053C11.0852 14.8198 10.867 14.8487 10.6451 14.8922Z" fill="#D76A5A"/>
<path d="M8.73229 23.018C8.29846 22.8411 7.89507 22.6553 7.52212 22.4615L7.52148 22.4483C7.84179 22.6171 8.20205 22.7833 8.60037 22.9458C11.3087 24.0501 15.7491 24.985 20.8201 25.6726C20.4738 25.6268 20.1275 25.5797 19.7818 25.5321C18.0154 25.2855 16.2737 25.005 14.6392 24.6756C13.4683 24.4397 12.3527 24.1787 11.3207 23.8882C10.3807 23.6235 9.51053 23.3348 8.73229 23.018ZM25.225 26.1927C27.9149 26.4663 30.6854 26.6708 33.395 26.7976C32.6757 26.7693 31.9679 26.7392 31.2746 26.7091C30.6638 26.6821 30.0644 26.6551 29.4809 26.6301C28.9894 26.5805 28.4851 26.5303 27.9714 26.4782C27.0809 26.3879 26.1612 26.2938 25.225 26.1927ZM38.3175 26.9387C44.1597 26.9946 49.2363 26.6137 51.8932 25.6783L51.8907 25.6902C50.8372 26.056 49.5769 26.3239 48.1752 26.5171C47.1077 26.6639 45.9591 26.7668 44.7565 26.8358C43.089 26.9312 41.3194 26.9613 39.5245 26.9513C39.123 26.9488 38.7196 26.9444 38.3175 26.9387Z" fill="#E54056"/>
</svg>
