<svg width="399" height="265" viewBox="0 0 399 265" fill="none" xmlns="http://www.w3.org/2000/svg">
<path d="M146.792 26.4256C136.639 26.4256 126.901 30.459 119.722 37.6384C112.542 44.8178 108.509 54.5552 108.509 64.7085V212.292C108.509 222.445 112.542 232.183 119.722 239.362C126.901 246.541 136.639 250.575 146.792 250.575H252.209C262.362 250.575 272.099 246.541 279.279 239.362C286.458 232.183 290.492 222.445 290.492 212.292V64.7085C290.492 54.5552 286.458 44.8178 279.279 37.6384C272.099 30.459 262.362 26.4256 252.209 26.4256H146.792Z" fill="#4ED78B" stroke="white" stroke-width="13.3158"/>
<path fill-rule="evenodd" clip-rule="evenodd" d="M130.147 58.6054C130.147 55.8096 131.258 53.1283 133.235 51.1513C135.212 49.1744 137.893 48.0638 140.689 48.0638H258.312C261.108 48.0638 263.789 49.1744 265.766 51.1513C267.743 53.1283 268.853 55.8096 268.853 58.6054V127.404C268.853 130.2 267.743 132.881 265.766 134.858C263.789 136.835 261.108 137.945 258.312 137.945H140.689C137.893 137.945 135.212 136.835 133.235 134.858C131.258 132.881 130.147 130.2 130.147 127.404V58.6054ZM157.334 165.687C154.538 165.687 151.857 166.797 149.88 168.774C147.903 170.751 146.792 173.432 146.792 176.228C146.792 179.024 147.903 181.705 149.88 183.682C151.857 185.659 154.538 186.77 157.334 186.77H157.439C160.235 186.77 162.916 185.659 164.893 183.682C166.87 181.705 167.981 179.024 167.981 176.228C167.981 173.432 166.87 170.751 164.893 168.774C162.916 166.797 160.235 165.687 157.439 165.687H157.334ZM188.959 176.228C188.959 173.432 190.069 170.751 192.046 168.774C194.023 166.797 196.704 165.687 199.5 165.687H199.606C202.402 165.687 205.083 166.797 207.06 168.774C209.037 170.751 210.147 173.432 210.147 176.228C210.147 179.024 209.037 181.705 207.06 183.682C205.083 185.659 202.402 186.77 199.606 186.77H199.5C196.704 186.77 194.023 185.659 192.046 183.682C190.069 181.705 188.959 179.024 188.959 176.228ZM199.5 197.312C196.704 197.312 194.023 198.422 192.046 200.399C190.069 202.376 188.959 205.057 188.959 207.853C188.959 210.649 190.069 213.33 192.046 215.307C194.023 217.284 196.704 218.395 199.5 218.395H199.606C202.402 218.395 205.083 217.284 207.06 215.307C209.037 213.33 210.147 210.649 210.147 207.853C210.147 205.057 209.037 202.376 207.06 200.399C205.083 198.422 202.402 197.312 199.606 197.312H199.5ZM146.792 207.853C146.792 205.057 147.903 202.376 149.88 200.399C151.857 198.422 154.538 197.312 157.334 197.312H157.439C160.235 197.312 162.916 198.422 164.893 200.399C166.87 202.376 167.981 205.057 167.981 207.853C167.981 210.649 166.87 213.33 164.893 215.307C162.916 217.284 160.235 218.395 157.439 218.395H157.334C154.538 218.395 151.857 217.284 149.88 215.307C147.903 213.33 146.792 210.649 146.792 207.853ZM252.209 176.228C252.209 173.432 251.098 170.751 249.121 168.774C247.144 166.797 244.463 165.687 241.667 165.687C238.871 165.687 236.19 166.797 234.213 168.774C232.236 170.751 231.125 173.432 231.125 176.228V207.853C231.125 210.649 232.236 213.33 234.213 215.307C236.19 217.284 238.871 218.395 241.667 218.395C244.463 218.395 247.144 217.284 249.121 215.307C251.098 213.33 252.209 210.649 252.209 207.853V176.228Z" fill="#FFE772"/>
<path d="M184.423 53.1624C184.423 55.9049 183.552 58.6206 181.859 61.1543C180.166 63.688 177.685 65.9902 174.557 67.9294C171.43 69.8687 167.716 71.407 163.63 72.4565C159.543 73.506 155.163 74.0461 150.739 74.0461" stroke="black" stroke-width="3.9664"/>
<path d="M214.577 40.296C214.577 43.0385 215.448 45.7541 217.141 48.2878C218.834 50.8216 221.315 53.1238 224.443 55.063C227.57 57.0022 231.284 58.5405 235.37 59.59C239.457 60.6395 243.837 61.1797 248.261 61.1797" stroke="black" stroke-width="3.9664"/>
<path d="M189.867 103.794C189.867 100.929 189.303 98.0927 188.207 95.4459C187.11 92.7992 185.503 90.3943 183.478 88.3685C181.452 86.3428 179.047 84.7359 176.4 83.6396C173.754 82.5433 170.917 81.979 168.052 81.979C165.187 81.979 162.35 82.5433 159.704 83.6396C157.057 84.7359 154.652 86.3428 152.626 88.3685C150.601 90.3943 148.994 92.7992 147.897 95.4459C146.801 98.0927 146.237 100.929 146.237 103.794L189.867 103.794Z" fill="white"/>
<path d="M176.268 104.078C176.268 102.961 176.056 101.856 175.643 100.825C175.23 99.7938 174.625 98.8568 173.862 98.0675C173.099 97.2783 172.193 96.6522 171.196 96.2251C170.199 95.798 169.131 95.5781 168.052 95.5781C166.973 95.5781 165.905 95.798 164.908 96.2251C163.911 96.6522 163.005 97.2783 162.242 98.0675C161.479 98.8568 160.874 99.7938 160.461 100.825C160.048 101.856 159.836 102.961 159.836 104.078H176.268Z" fill="black"/>
<path d="M252.763 103.794C252.763 100.929 252.199 98.0927 251.103 95.4459C250.006 92.7992 248.399 90.3943 246.374 88.3685C244.348 86.3428 241.943 84.7359 239.296 83.6396C236.65 82.5433 233.813 81.979 230.948 81.979C228.083 81.979 225.246 82.5433 222.6 83.6396C219.953 84.7359 217.548 86.3428 215.522 88.3685C213.497 90.3943 211.89 92.7992 210.793 95.4459C209.697 98.0927 209.133 100.929 209.133 103.794L252.763 103.794Z" fill="white"/>
<path d="M239.164 104.078C239.164 102.961 238.952 101.856 238.539 100.825C238.126 99.7938 237.521 98.8568 236.758 98.0675C235.995 97.2783 235.089 96.6522 234.092 96.2251C233.095 95.798 232.027 95.5781 230.948 95.5781C229.869 95.5781 228.801 95.798 227.804 96.2251C226.807 96.6522 225.901 97.2783 225.138 98.0675C224.375 98.8568 223.77 99.7938 223.357 100.825C222.944 101.856 222.732 102.961 222.732 104.078H239.164Z" fill="black"/>
<path d="M221.315 112.577C221.315 114.437 220.751 116.279 219.654 117.998C218.558 119.717 216.951 121.278 214.925 122.594C212.9 123.909 210.495 124.952 207.848 125.664C205.201 126.376 202.365 126.743 199.5 126.743C196.635 126.743 193.798 126.376 191.151 125.664C188.505 124.952 186.1 123.909 184.074 122.594C182.048 121.278 180.441 119.717 179.345 117.998C178.249 116.279 177.685 114.437 177.685 112.577" stroke="black" stroke-width="3.9664"/>
<path d="M312.627 113C313.486 116.723 313.156 120.681 311.657 124.648C310.157 128.614 307.517 132.512 303.887 136.117C300.258 139.723 295.71 142.967 290.503 145.663C285.295 148.359 279.531 150.455 273.54 151.831" stroke="black" stroke-width="5.51212"/>
</svg>
