<svg width="399" height="265" viewBox="0 0 399 265" fill="none" xmlns="http://www.w3.org/2000/svg">
<g clip-path="url(#clip0_269_16143)">
<path d="M126.976 64.2727C126.976 40.3739 146.35 21 170.249 21H225.885C249.784 21 269.158 40.3739 269.158 64.2727V283.727C269.158 307.626 249.784 327 225.885 327H170.249C146.35 327 126.976 307.626 126.976 283.727V64.2727Z" fill="#FFE772"/>
<path d="M193.277 135.549C193.759 136.94 194.659 138.171 195.924 139.173C197.189 140.174 198.796 140.925 200.652 141.384C202.507 141.843 204.576 142 206.74 141.847C208.904 141.693 211.121 141.232 213.263 140.49M194.572 131.066C194.999 133.212 194.466 137.747 188.918 138.72" stroke="black" stroke-width="5"/>
<rect x="140.093" y="97.2194" width="132.638" height="6.07593" fill="#4ED78B" stroke="#4ED78B" stroke-width="0.270855"/>
<mask id="path-4-outside-1_269_16143" maskUnits="userSpaceOnUse" x="152.385" y="85.6187" width="55" height="49" fill="black">
<rect fill="white" x="152.385" y="85.6187" width="55" height="49"/>
<path d="M179.529 129.939C189.026 125.965 195.899 119.179 199.607 112.309C203.257 105.467 203.771 98.6532 200.52 94.565C197.582 90.9026 193.76 89.5115 189.882 89.625C186.003 89.7386 182.239 91.4136 179.529 93.77C176.82 91.4136 173.055 89.7386 169.177 89.625C165.298 89.5115 161.477 90.9026 158.539 94.565C155.288 98.6532 155.801 105.467 159.509 112.309C163.159 119.179 170.032 125.965 179.529 129.939Z"/>
</mask>
<path d="M179.529 129.939C189.026 125.965 195.899 119.179 199.607 112.309C203.257 105.467 203.771 98.6532 200.52 94.565C197.582 90.9026 193.76 89.5115 189.882 89.625C186.003 89.7386 182.239 91.4136 179.529 93.77C176.82 91.4136 173.055 89.7386 169.177 89.625C165.298 89.5115 161.477 90.9026 158.539 94.565C155.288 98.6532 155.801 105.467 159.509 112.309C163.159 119.179 170.032 125.965 179.529 129.939Z" fill="black"/>
<path d="M179.529 129.939L177.997 133.601L179.529 134.242L181.062 133.601L179.529 129.939ZM199.607 112.309L203.1 114.194L203.104 114.186L203.109 114.177L199.607 112.309ZM200.52 94.565L203.626 92.0945L203.621 92.088L203.616 92.0816L200.52 94.565ZM179.529 93.77L176.925 96.7649L179.529 99.0303L182.134 96.7649L179.529 93.77ZM158.539 94.565L155.443 92.0816L155.438 92.088L155.433 92.0945L158.539 94.565ZM159.509 112.309L163.014 110.447L163.006 110.432L162.998 110.418L159.509 112.309ZM181.062 133.601C191.396 129.276 198.961 121.864 203.1 114.194L196.114 110.424C192.838 116.495 186.657 122.654 177.997 126.278L181.062 133.601ZM203.109 114.177C207.012 106.862 208.38 98.0724 203.626 92.0945L197.413 97.0355C199.162 99.234 199.503 104.072 196.105 110.441L203.109 114.177ZM203.616 92.0816C199.827 87.3576 194.768 85.5112 189.766 85.6577L189.998 93.5924C192.753 93.5118 195.337 94.4476 197.423 97.0484L203.616 92.0816ZM189.766 85.6577C184.869 85.801 180.246 87.8867 176.925 90.7752L182.134 96.7649C184.232 94.9406 187.137 93.6762 189.998 93.5924L189.766 85.6577ZM182.134 90.7752C178.813 87.8867 174.19 85.801 169.293 85.6577L169.061 93.5924C171.921 93.6762 174.827 94.9406 176.925 96.7649L182.134 90.7752ZM169.293 85.6577C164.291 85.5112 159.232 87.3576 155.443 92.0816L161.635 97.0484C163.721 94.4476 166.305 93.5118 169.061 93.5924L169.293 85.6577ZM155.433 92.0945C150.674 98.0782 152.049 106.873 156.019 114.2L162.998 110.418C159.554 104.061 159.902 99.2282 161.646 97.0355L155.433 92.0945ZM156.004 114.171C160.09 121.862 167.666 129.277 177.997 133.601L181.062 126.278C172.399 122.652 166.228 116.497 163.014 110.447L156.004 114.171Z" fill="#4ED78B" mask="url(#path-4-outside-1_269_16143)"/>
<mask id="path-6-outside-2_269_16143" maskUnits="userSpaceOnUse" x="214.158" y="85.6187" width="55" height="49" fill="black">
<rect fill="white" x="214.158" y="85.6187" width="55" height="49"/>
<path d="M241.303 129.939C250.8 125.965 257.673 119.179 261.38 112.309C265.031 105.467 265.544 98.6532 262.293 94.565C259.356 90.9026 255.534 89.5115 251.655 89.625C247.777 89.7386 244.012 91.4136 241.303 93.77C238.593 91.4136 234.829 89.7386 230.95 89.625C227.072 89.5115 223.25 90.9026 220.312 94.565C217.061 98.6532 217.575 105.467 221.282 112.309C224.933 119.179 231.806 125.965 241.303 129.939Z"/>
</mask>
<path d="M241.303 129.939C250.8 125.965 257.673 119.179 261.38 112.309C265.031 105.467 265.544 98.6532 262.293 94.565C259.356 90.9026 255.534 89.5115 251.655 89.625C247.777 89.7386 244.012 91.4136 241.303 93.77C238.593 91.4136 234.829 89.7386 230.95 89.625C227.072 89.5115 223.25 90.9026 220.312 94.565C217.061 98.6532 217.575 105.467 221.282 112.309C224.933 119.179 231.806 125.965 241.303 129.939Z" fill="black"/>
<path d="M241.303 129.939L239.77 133.601L241.303 134.242L242.835 133.601L241.303 129.939ZM261.38 112.309L264.873 114.194L264.878 114.186L264.882 114.177L261.38 112.309ZM262.293 94.565L265.4 92.0945L265.394 92.088L265.389 92.0816L262.293 94.565ZM241.303 93.77L238.698 96.7649L241.303 99.0303L243.907 96.7649L241.303 93.77ZM220.312 94.565L217.216 92.0816L217.211 92.088L217.206 92.0945L220.312 94.565ZM221.282 112.309L224.787 110.447L224.78 110.432L224.772 110.418L221.282 112.309ZM242.835 133.601C253.169 129.276 260.735 121.864 264.873 114.194L257.887 110.424C254.611 116.495 248.43 122.654 239.77 126.278L242.835 133.601ZM264.882 114.177C268.785 106.862 270.154 98.0724 265.4 92.0945L259.187 97.0355C260.935 99.234 261.277 104.072 257.879 110.441L264.882 114.177ZM265.389 92.0816C261.6 87.3576 256.541 85.5112 251.539 85.6577L251.771 93.5924C254.527 93.5118 257.111 94.4476 259.197 97.0484L265.389 92.0816ZM251.539 85.6577C246.642 85.801 242.019 87.8867 238.698 90.7752L243.907 96.7649C246.005 94.9406 248.911 93.6762 251.771 93.5924L251.539 85.6577ZM243.907 90.7752C240.586 87.8867 235.963 85.801 231.066 85.6577L230.834 93.5924C233.695 93.6762 236.6 94.9406 238.698 96.7649L243.907 90.7752ZM231.066 85.6577C226.064 85.5112 221.005 87.3576 217.216 92.0816L223.409 97.0484C225.495 94.4476 228.079 93.5118 230.834 93.5924L231.066 85.6577ZM217.206 92.0945C212.447 98.0782 213.822 106.873 217.792 114.2L224.772 110.418C221.327 104.061 221.675 99.2282 223.419 97.0355L217.206 92.0945ZM217.777 114.171C221.864 121.862 229.44 129.277 239.77 133.601L242.835 126.278C234.172 122.652 228.002 116.497 224.787 110.447L217.777 114.171Z" fill="#4ED78B" mask="url(#path-6-outside-2_269_16143)"/>
<path d="M194.754 96.0072C196.184 97.1267 197.341 98.5559 198.138 100.187L196.014 101.196C195.373 99.8944 194.448 98.7537 193.305 97.8592C192.162 96.9646 190.832 96.3398 189.415 96.0307L189.884 93.7259C191.659 94.1079 193.324 94.8877 194.754 96.0072Z" fill="white" stroke="#4ED78B" stroke-width="0.270855"/>
<path d="M257.036 96.0072C258.467 97.1267 259.624 98.5559 260.421 100.187L258.296 101.196C257.656 99.8944 256.73 98.7537 255.587 97.8592C254.444 96.9646 253.114 96.3398 251.697 96.0307L252.166 93.7259C253.941 94.1079 255.606 94.8877 257.036 96.0072Z" fill="white" stroke="#4ED78B" stroke-width="0.270855"/>
<path d="M142.518 173.793C138.699 173.914 134.88 172.823 131.28 170.583C127.679 168.343 124.367 164.998 121.533 160.738C118.699 156.479 116.399 151.388 114.763 145.757C113.127 140.126 112.189 134.065 112 127.92" stroke="black" stroke-width="5.51212"/>
<path d="M111.358 128.17C110.275 127.172 106.5 124 105.5 114" stroke="black" stroke-width="5"/>
<path d="M110.001 125.342C110.311 126.782 111.206 128.08 112.636 129.163C114.066 130.247 116.001 131.094 118.332 131.656C120.664 132.219 123.345 132.485 126.223 132.441C129.101 132.397 132.119 132.043 135.105 131.399" stroke="black" stroke-width="5"/>
<ellipse cx="114.894" cy="124.338" rx="7.5" ry="5" transform="rotate(73.7983 114.894 124.338)" fill="black"/>
</g>
<defs>
<clipPath id="clip0_269_16143">
<rect width="399" height="265" fill="white"/>
</clipPath>
</defs>
</svg>
