<svg width="241" height="241" viewBox="0 0 241 241" fill="none" xmlns="http://www.w3.org/2000/svg">
<path d="M144.37 29.2407C140.823 20.2936 128.874 18.6324 123.021 26.2728L103.074 52.3127C101.382 54.5216 98.4968 55.448 95.8351 54.6369L64.4578 45.075C55.2514 42.2694 46.5023 50.576 48.8267 59.9155L56.7487 91.7464C57.4207 94.4466 56.346 97.2802 54.0523 98.8554L27.013 117.425C19.0795 122.874 20.1188 134.893 28.87 138.899L58.6957 152.552C61.2258 153.71 62.771 156.317 62.5725 159.092L60.2325 191.811C59.5459 201.411 69.591 208.092 78.1791 203.747L107.449 188.941C109.932 187.685 112.934 188.102 114.98 189.988L139.101 212.217C146.179 218.739 157.665 215.051 159.623 205.628L166.297 173.512C166.863 170.788 169.061 168.701 171.811 168.277L204.229 163.278C213.741 161.811 218.02 150.531 211.873 143.125L190.925 117.884C189.148 115.743 188.887 112.723 190.27 110.309L206.574 81.8461C211.358 73.4948 205.207 63.1167 195.584 63.3046L162.788 63.945C160.006 63.9993 157.483 62.3209 156.458 59.7343L144.37 29.2407Z" fill="#4ED78B" stroke="white" stroke-width="5.71703"/>
<path d="M112.596 118.98C112.928 116.594 112.786 114.166 112.18 111.835C111.573 109.504 110.514 107.315 109.061 105.393C107.609 103.472 105.792 101.855 103.715 100.636C101.637 99.4165 99.3403 98.6181 96.9545 98.2864C94.5688 97.9548 92.141 98.0962 89.8099 98.7028C87.4788 99.3094 85.29 100.369 83.3685 101.822C81.4469 103.274 79.8303 105.091 78.6109 107.168C77.3914 109.245 76.5931 111.542 76.2614 113.928L112.596 118.98Z" fill="white"/>
<path d="M101.239 117.641C101.368 116.712 101.319 115.767 101.094 114.86C100.87 113.953 100.474 113.103 99.9304 112.357C99.3864 111.612 98.7046 110.986 97.9239 110.514C97.1432 110.043 96.2789 109.737 95.3804 109.612C94.4818 109.487 93.5666 109.546 92.687 109.786C91.8074 110.027 90.9807 110.443 90.2539 111.012C89.5272 111.581 88.9147 112.291 88.4515 113.102C87.9882 113.913 87.6833 114.809 87.554 115.739L101.239 117.641Z" fill="black"/>
<path d="M164.974 126.262C165.306 123.876 165.164 121.448 164.558 119.117C163.951 116.786 162.891 114.597 161.439 112.675C159.987 110.754 158.17 109.137 156.093 107.918C154.015 106.698 151.718 105.9 149.332 105.568C146.947 105.237 144.519 105.378 142.188 105.985C139.857 106.591 137.668 107.651 135.746 109.104C133.825 110.556 132.208 112.373 130.989 114.45C129.769 116.527 128.971 118.824 128.639 121.21L164.974 126.262Z" fill="white"/>
<path d="M153.617 124.923C153.746 123.994 153.697 123.049 153.472 122.142C153.248 121.235 152.852 120.385 152.308 119.639C151.764 118.894 151.083 118.268 150.302 117.796C149.521 117.325 148.657 117.019 147.758 116.894C146.86 116.769 145.945 116.828 145.065 117.068C144.185 117.309 143.359 117.725 142.632 118.294C141.905 118.863 141.293 119.573 140.829 120.384C140.366 121.195 140.061 122.091 139.932 123.021L153.617 124.923Z" fill="black"/>
<path d="M104.696 132.552C104.481 134.101 104.738 135.701 105.452 137.259C106.166 138.817 107.323 140.304 108.858 141.634C110.392 142.964 112.274 144.111 114.396 145.01C116.518 145.91 118.838 146.543 121.224 146.875M108.085 128.935C107.454 131.172 104.76 135.206 99.04 133.449" stroke="black" stroke-width="3.33494"/>
</svg>
