<svg width="1440" height="1024" viewBox="0 0 1440 1024" fill="none" xmlns="http://www.w3.org/2000/svg">
<path d="M857 691.996C857 691.996 403.605 622.89 176.193 803.392C-174.264 1081.56 259.528 2033.67 -151.787 2082.47C-358.918 2107.05 -645 1826.5 -645 1826.5" stroke="#FAFAFA" stroke-width="344" stroke-linecap="round"/>
<path d="M759.816 516.952C759.816 516.952 311.682 419.39 73.3389 585.19C-293.963 840.699 78.9183 1818.27 -334.656 1841.04C-542.925 1852.51 -810.743 1554.47 -810.743 1554.47" stroke="#FAFAFA" stroke-width="18" stroke-linecap="round" stroke-dasharray="36 36"/>
<path d="M1699.07 716.792C1699.07 716.792 1260.15 849.815 1009.33 703.57C622.809 478.196 916.466 -526.023 502.394 -515.707C293.875 -510.511 50.7015 -192.047 50.7015 -192.047" stroke="#FAFAFA" stroke-width="18" stroke-linecap="round" stroke-dasharray="36 36"/>
<path d="M1608 512.004C1608 512.004 1154.61 581.11 927.193 400.608C576.736 122.443 1010.53 -829.667 599.213 -878.475C392.082 -903.053 106 -622.5 106 -622.5" stroke="#FAFAFA" stroke-width="344" stroke-linecap="round"/>
</svg>
