<svg width="399" height="265" viewBox="0 0 399 265" fill="none" xmlns="http://www.w3.org/2000/svg">
<path d="M213.842 15.4181C207.75 4.6329 192.25 4.63289 186.158 15.4181L165.392 52.1835C163.627 55.3075 160.121 56.9967 156.599 56.4351L114.999 49.8002C102.771 47.85 93.142 60.0146 97.738 71.4895L113.443 110.7C114.779 114.036 113.909 117.851 111.267 120.27L80.1591 148.762C71.0453 157.11 74.4749 172.248 86.3194 175.809L126.67 187.938C130.088 188.966 132.521 192.019 132.76 195.607L135.57 237.771C136.392 250.117 150.341 256.885 160.512 249.807L195.123 225.722C198.057 223.68 201.944 223.68 204.878 225.722L239.489 249.807C249.659 256.885 263.608 250.117 264.431 237.771L267.24 195.607C267.479 192.019 269.912 188.966 273.331 187.938L313.681 175.809C325.526 172.248 328.955 157.11 319.841 148.762L288.733 120.27C286.092 117.851 285.222 114.036 286.558 110.7L302.263 71.4895C306.859 60.0146 297.23 47.85 285.002 49.8002L243.401 56.4351C239.88 56.9967 236.373 55.3075 234.609 52.1835L213.842 15.4181Z" fill="#FEA8D9" stroke="white" stroke-width="7.34159"/>
<path d="M183.722 88.7623C183.722 91.7234 182.781 94.6555 180.953 97.3912C179.126 100.127 176.447 102.613 173.069 104.706C169.692 106.8 165.683 108.461 161.27 109.594C156.858 110.728 152.129 111.311 147.353 111.311" stroke="black" stroke-width="4.2826"/>
<path d="M216.279 74.8702C216.279 77.8313 217.219 80.7634 219.047 83.4991C220.875 86.2348 223.554 88.7206 226.931 90.8144C230.308 92.9082 234.318 94.5691 238.73 95.7023C243.143 96.8355 247.872 97.4187 252.648 97.4187" stroke="black" stroke-width="4.2826"/>
<path d="M196.941 135.783C196.941 144.568 189.82 151.69 181.034 151.69C172.249 151.69 165.128 144.568 165.128 135.783C165.128 126.998 172.249 119.876 181.034 119.876C189.82 119.876 196.941 126.998 196.941 135.783Z" fill="white"/>
<path d="M196.941 135.477C196.941 139.363 193.791 142.513 189.906 142.513C186.02 142.513 182.87 139.363 182.87 135.477C182.87 131.591 186.02 128.441 189.906 128.441C193.791 128.441 196.941 131.591 196.941 135.477Z" fill="black"/>
<path d="M234.873 135.783C234.873 144.568 227.751 151.69 218.966 151.69C210.181 151.69 203.059 144.568 203.059 135.783C203.059 126.998 210.181 119.876 218.966 119.876C227.751 119.876 234.873 126.998 234.873 135.783Z" fill="white"/>
<path d="M234.873 135.477C234.873 139.363 231.723 142.513 227.837 142.513C223.951 142.513 220.801 139.363 220.801 135.477C220.801 131.591 223.951 128.441 227.837 128.441C231.723 128.441 234.873 131.591 234.873 135.477Z" fill="black"/>
<path d="M194.691 160.457C198.043 160.457 201.395 160.457 204.748 160.457C206.084 160.457 206.571 161.236 205.395 162.281C203.213 164.22 199.673 164.866 197.077 166.048C196.465 166.327 191.109 168.741 193.515 168.741C196.524 168.741 199.634 168.589 202.566 169.388C203.044 169.519 208.398 171.476 206.895 172.422C205.53 173.282 203.265 173.231 201.731 173.513C199.926 173.846 198.072 174.57 196.225 174.57" stroke="black" stroke-width="3.83223" stroke-linecap="round"/>
<ellipse cx="216" cy="180.5" rx="6" ry="8.5" fill="black"/>
<path d="M218 160.457L220.555 186.005" stroke="black" stroke-width="4.39" stroke-linecap="round"/>
<path d="M213.968 184.089L266.944 194.925C268.415 195.226 269.681 193.86 269.268 192.416L262.509 168.76" stroke="black" stroke-width="5.39" stroke-linecap="round"/>
</svg>
