<svg width="178" height="191" viewBox="0 0 178 191" fill="none" xmlns="http://www.w3.org/2000/svg">
<path d="M117.11 21.8263L115.366 23.4051L117.11 21.8263C115.035 19.5349 111.896 18.5242 108.874 19.1751L39.664 34.082C36.6423 34.7328 34.1974 36.9463 33.2501 39.8885L11.5549 107.28C10.6077 110.222 11.3021 113.446 13.3766 115.737L60.8914 168.222C62.9659 170.513 66.1053 171.524 69.1269 170.873L138.337 155.966C141.359 155.315 143.804 153.102 144.751 150.159L166.446 82.7683C167.393 79.8261 166.699 76.6019 164.624 74.3105L117.11 21.8263Z" fill="#FEA8D9" stroke="white" stroke-width="4.71916"/>
<path d="M85.3234 84.751C85.9327 82.8584 86.1632 80.8642 86.0019 78.8825C85.8405 76.9008 85.2904 74.9702 84.3829 73.2011C83.4755 71.4319 82.2284 69.8589 80.713 68.5717C79.1976 67.2845 77.4435 66.3084 75.5509 65.6991C73.6583 65.0898 71.6641 64.8592 69.6824 65.0206C67.7007 65.1819 65.7701 65.7321 64.001 66.6395C62.2318 67.547 60.6588 68.794 59.3716 70.3094C58.0844 71.8248 57.1082 73.5789 56.4989 75.4715L85.3234 84.751Z" fill="white"/>
<path d="M104.285 96.4328C103.889 97.6618 103.124 98.7588 102.034 99.661C100.945 100.563 99.551 101.253 97.9329 101.691C96.3148 102.13 94.5041 102.307 92.6041 102.215C90.7042 102.122 88.7521 101.761 86.8595 101.152C84.9668 100.542 83.1707 99.697 81.5735 98.6638C79.9763 97.6305 78.6095 96.4297 77.5509 95.1298C76.4924 93.83 75.7629 92.4565 75.4042 91.0879C75.0454 89.7193 75.0644 88.3824 75.4601 87.1534" stroke="black" stroke-width="2.75285"/>
<path d="M76.2787 82.0458C76.5161 81.3084 76.6108 80.533 76.5573 79.764C76.5039 78.9949 76.3033 78.2472 75.9671 77.5635C75.631 76.8798 75.1658 76.2736 74.598 75.7794C74.0303 75.2852 73.3713 74.9127 72.6584 74.6832C71.9456 74.4537 71.193 74.3718 70.4436 74.4419C69.6943 74.5121 68.9627 74.7331 68.2908 75.0922C67.6189 75.4514 67.0198 75.9417 66.5277 76.5351C66.0356 77.1286 65.6602 77.8135 65.4228 78.5509L76.2787 82.0458Z" fill="black"/>
<path d="M126.875 98.128C127.484 96.2353 127.715 94.2412 127.554 92.2595C127.392 90.2777 126.842 88.3472 125.935 86.578C125.027 84.8089 123.78 83.2358 122.265 81.9486C120.749 80.6614 118.995 79.6853 117.103 79.076C115.21 78.4667 113.216 78.2362 111.234 78.3975C109.252 78.5589 107.322 79.109 105.553 80.0165C103.784 80.9239 102.211 82.171 100.923 83.6864C99.6361 85.2018 98.66 86.9559 98.0507 88.8485L126.875 98.128Z" fill="white"/>
<path d="M117.83 95.4228C118.068 94.6854 118.163 93.91 118.109 93.1409C118.056 92.3718 117.855 91.6241 117.519 90.9404C117.183 90.2568 116.718 89.6505 116.15 89.1563C115.582 88.6621 114.923 88.2897 114.21 88.0602C113.497 87.8307 112.745 87.7487 111.995 87.8189C111.246 87.8891 110.514 88.11 109.843 88.4692C109.171 88.8283 108.572 89.3186 108.079 89.9121C107.587 90.5055 107.212 91.1905 106.975 91.9279L117.83 95.4228Z" fill="black"/>
</svg>
