<svg width="150" height="150" viewBox="0 0 150 150" fill="none" xmlns="http://www.w3.org/2000/svg">
<circle cx="75" cy="75" r="75" fill="#4ED78B"/>
<path d="M61.2561 48.0405C61.2561 50.4648 60.4859 52.8654 58.9895 55.1051C57.4932 57.3449 55.2999 59.38 52.5349 61.0942C49.77 62.8084 46.4875 64.1682 42.875 65.096C39.2624 66.0237 35.3904 66.5012 31.4802 66.5012" stroke="black" stroke-width="3.50621"/>
<path d="M87.9106 36.667C87.9106 39.0913 88.6808 41.4918 90.1772 43.7316C91.6736 45.9713 93.8669 48.0064 96.6318 49.7207C99.3968 51.4349 102.679 52.7947 106.292 53.7224C109.904 54.6502 113.776 55.1277 117.687 55.1277" stroke="black" stroke-width="3.50621"/>
<path d="M66.0683 92.7978C66.0683 90.2654 65.5695 87.7577 64.6003 85.4181C63.6312 83.0784 62.2108 80.9526 60.4201 79.1619C58.6294 77.3712 56.5035 75.9507 54.1638 74.9816C51.8242 74.0125 49.3166 73.5137 46.7841 73.5137C44.2517 73.5137 41.7441 74.0125 39.4044 74.9816C37.0648 75.9507 34.9389 77.3712 33.1482 79.1619C31.3575 80.9526 29.937 83.0784 28.9679 85.4181C27.9988 87.7577 27.5 90.2654 27.5 92.7978L66.0683 92.7978Z" fill="white"/>
<path d="M54.047 93.0482C54.047 92.0616 53.8591 91.0846 53.4941 90.173C53.1291 89.2615 52.5942 88.4332 51.9197 87.7355C51.2453 87.0379 50.4447 86.4844 49.5635 86.1069C48.6823 85.7293 47.7379 85.5349 46.7841 85.5349C45.8304 85.5349 44.8859 85.7293 44.0048 86.1069C43.1236 86.4844 42.3229 87.0379 41.6485 87.7355C40.9741 88.4332 40.4391 89.2615 40.0741 90.173C39.7091 91.0846 39.5213 92.0616 39.5213 93.0482H54.047Z" fill="black"/>
<path d="M121.667 92.7978C121.667 90.2654 121.168 87.7577 120.199 85.4181C119.23 83.0784 117.809 80.9526 116.018 79.1619C114.228 77.3712 112.102 75.9507 109.762 74.9816C107.423 74.0125 104.915 73.5137 102.383 73.5137C99.8501 73.5137 97.3425 74.0125 95.0028 74.9816C92.6631 75.9507 90.5373 77.3712 88.7466 79.1619C86.9559 80.9526 85.5354 83.0784 84.5663 85.4181C83.5972 87.7577 83.0984 90.2654 83.0984 92.7978L121.667 92.7978Z" fill="white"/>
<path d="M109.645 93.0482C109.645 92.0616 109.458 91.0846 109.093 90.173C108.728 89.2615 108.193 88.4332 107.518 87.7355C106.844 87.0379 106.043 86.4844 105.162 86.1069C104.281 85.7293 103.336 85.5349 102.383 85.5349C101.429 85.5349 100.484 85.7293 99.6031 86.1069C98.722 86.4844 97.9213 87.0379 97.2469 87.7355C96.5725 88.4332 96.0375 89.2615 95.6725 90.173C95.3075 91.0846 95.1197 92.0616 95.1197 93.0482H109.645Z" fill="black"/>
<path d="M93.8676 100.562C93.8676 102.206 93.3688 103.834 92.3997 105.354C91.4305 106.873 90.0101 108.253 88.2194 109.416C86.4287 110.579 84.3028 111.501 81.9632 112.131C79.6235 112.76 77.1159 113.084 74.5834 113.084C72.051 113.084 69.5434 112.76 67.2037 112.131C64.8641 111.501 62.7382 110.579 60.9475 109.416C59.1568 108.253 57.7364 106.873 56.7672 105.354C55.7981 103.834 55.2993 102.206 55.2993 100.562" stroke="black" stroke-width="3.50621"/>
</svg>
