<svg width="167" height="150" viewBox="0 0 167 150" fill="none" xmlns="http://www.w3.org/2000/svg">
<mask id="path-1-outside-1_269_16064" maskUnits="userSpaceOnUse" x="-6.84713" y="-7.62582" width="179.96" height="163.38" fill="black">
<rect fill="white" x="-6.84713" y="-7.62582" width="179.96" height="163.38"/>
<path d="M159.883 88.7261L152.082 64.9946C140.281 29.0991 101.616 9.56612 65.721 21.3664C29.8256 33.1667 10.2926 71.8317 22.0928 107.727L29.8943 131.459C32.9997 140.905 43.1747 146.045 52.6209 142.94L148.402 111.453C157.848 108.347 162.989 98.1722 159.883 88.7261Z"/>
</mask>
<path d="M159.883 88.7261L152.082 64.9946C140.281 29.0991 101.616 9.56612 65.721 21.3664C29.8256 33.1667 10.2926 71.8317 22.0928 107.727L29.8943 131.459C32.9997 140.905 43.1747 146.045 52.6209 142.94L148.402 111.453C157.848 108.347 162.989 98.1722 159.883 88.7261Z" fill="#FFE772"/>
<path d="M146.951 66.6814L154.752 90.4129L165.014 87.0393L157.213 63.3077L146.951 66.6814ZM35.0255 129.772L27.224 106.04L16.9617 109.414L24.7632 133.145L35.0255 129.772ZM146.715 106.321L50.934 137.809L54.3077 148.071L150.089 116.584L146.715 106.321ZM67.4078 26.4975C100.469 15.6289 136.082 33.6198 146.951 66.6814L157.213 63.3077C144.481 24.5785 102.764 3.50338 64.0342 16.2352L67.4078 26.4975ZM64.0342 16.2352C25.3049 28.9671 4.22983 70.6846 16.9617 109.414L27.224 106.04C16.3553 72.9787 34.3462 37.3662 67.4078 26.4975L64.0342 16.2352ZM24.7632 133.145C28.8001 145.425 42.0276 152.108 54.3077 148.071L50.934 137.809C44.3217 139.982 37.1992 136.384 35.0255 129.772L24.7632 133.145ZM154.752 90.4129C156.926 97.0252 153.328 104.148 146.715 106.321L150.089 116.584C162.369 112.547 169.051 99.3193 165.014 87.0393L154.752 90.4129Z" fill="white" mask="url(#path-1-outside-1_269_16064)"/>
<path d="M104.045 81.7337C104.193 82.1829 103.913 82.7677 103.222 83.4547C102.531 84.1417 101.443 84.9175 100.018 85.7376C98.594 86.5578 96.8621 87.4064 94.9213 88.2349C92.9805 89.0634 90.8688 89.8556 88.707 90.5663C86.5451 91.277 84.3753 91.8923 82.3215 92.377C80.2677 92.8616 78.37 93.2063 76.7369 93.3912C75.1038 93.576 73.7672 93.5976 72.8035 93.4545C71.8397 93.3115 71.2677 93.0066 71.12 92.5574M72.0632 88.22C72.4097 90.4751 71.8779 95.1511 66.9787 95.814M101.373 79.37C102.432 81.3908 105.634 84.8391 109.971 82.4658" stroke="black" stroke-width="3.15075"/>
<circle cx="67.7879" cy="72.3319" r="11.7028" transform="rotate(-18.1978 67.7879 72.3319)" fill="white"/>
<circle cx="94.2986" cy="63.6165" r="11.7028" transform="rotate(-18.1978 94.2986 63.6165)" fill="white"/>
<circle cx="67.9313" cy="72.0479" r="5.17624" transform="rotate(-18.1978 67.9313 72.0479)" fill="black"/>
<circle cx="94.4421" cy="63.3326" r="5.17624" transform="rotate(-18.1978 94.4421 63.3326)" fill="black"/>
</svg>
