<svg width="87" height="73" viewBox="0 0 87 73" fill="none" xmlns="http://www.w3.org/2000/svg">
<mask id="path-1-outside-1_269_15960" maskUnits="userSpaceOnUse" x="0" y="0" width="87" height="73" fill="black">
<rect fill="white" width="87" height="73"/>
<path d="M81 49.0565V43.5C81 22.7893 64.2107 6 43.5 6C22.7893 6 6 22.7893 6 43.5V49.0565C6 59 14.0608 67.0608 24.0043 67.0608H62.9957C72.9392 67.0608 81 59 81 49.0565Z"/>
</mask>
<path d="M81 49.0565V43.5C81 22.7893 64.2107 6 43.5 6C22.7893 6 6 22.7893 6 43.5V49.0565C6 59 14.0608 67.0608 24.0043 67.0608H62.9957C72.9392 67.0608 81 59 81 49.0565Z" fill="#FEA8D9"/>
<path d="M75.5987 43.5V49.0565H86.4013V43.5H75.5987ZM11.4013 49.0565V43.5H0.598708V49.0565H11.4013ZM62.9957 61.6595L24.0043 61.6595L24.0043 72.4621H62.9957V61.6595ZM43.5 11.4013C61.2276 11.4013 75.5987 25.7724 75.5987 43.5H86.4013C86.4013 19.8063 67.1937 0.598708 43.5 0.598708V11.4013ZM43.5 0.598708C19.8063 0.598708 0.598708 19.8063 0.598708 43.5H11.4013C11.4013 25.7724 25.7724 11.4013 43.5 11.4013V0.598708ZM0.598708 49.0565C0.598708 61.9831 11.0777 72.4621 24.0043 72.4621L24.0043 61.6595C17.0439 61.6595 11.4013 56.017 11.4013 49.0565H0.598708ZM75.5987 49.0565C75.5987 56.017 69.9562 61.6595 62.9957 61.6595V72.4621C75.9222 72.4621 86.4013 61.9831 86.4013 49.0565H75.5987Z" fill="white" mask="url(#path-1-outside-1_269_15960)"/>
<path d="M53.1217 43.9934C53.1217 44.2525 52.876 44.5092 52.3986 44.7487C51.9213 44.9881 51.2217 45.2057 50.3397 45.389C49.4576 45.5722 48.4106 45.7176 47.2582 45.8168C46.1058 45.916 44.8706 45.967 43.6233 45.967C42.376 45.967 41.1408 45.916 39.9884 45.8168C38.836 45.7176 37.789 45.5722 36.907 45.389C36.0249 45.2057 35.3253 44.9881 34.848 44.7487C34.3706 44.5092 34.1249 44.2525 34.1249 43.9934M35.3585 41.8963C35.1529 43.1299 34.0756 45.4736 31.4111 44.9802M52.1348 42.3051C52.3404 43.5387 53.4177 45.8824 56.0822 45.389" stroke="black" stroke-width="1.15"/>
<circle cx="35.852" cy="32.8915" r="6.41447" fill="white"/>
<circle cx="51.1479" cy="32.8914" r="6.41447" fill="white"/>
<circle cx="35.9758" cy="32.7681" r="2.83717" fill="black"/>
<circle cx="51.2717" cy="32.7681" r="2.83717" fill="black"/>
</svg>
