<svg width="166" height="150" viewBox="0 0 166 150" fill="none" xmlns="http://www.w3.org/2000/svg">
<mask id="path-1-outside-1_269_15996" maskUnits="userSpaceOnUse" x="-7.57369" y="-7.62582" width="179.96" height="163.38" fill="black">
<rect fill="white" x="-7.57369" y="-7.62582" width="179.96" height="163.38"/>
<path d="M159.157 88.7261L151.355 64.9946C139.555 29.0991 100.89 9.56612 64.9945 21.3664C29.099 33.1667 9.56601 71.8317 21.3663 107.727L29.1678 131.459C32.2731 140.905 42.4481 146.045 51.8943 142.94L147.676 111.453C157.122 108.347 162.262 98.1722 159.157 88.7261Z"/>
</mask>
<path d="M159.157 88.7261L151.355 64.9946C139.555 29.0991 100.89 9.56612 64.9945 21.3664C29.099 33.1667 9.56601 71.8317 21.3663 107.727L29.1678 131.459C32.2731 140.905 42.4481 146.045 51.8943 142.94L147.676 111.453C157.122 108.347 162.262 98.1722 159.157 88.7261Z" fill="#FB8073"/>
<path d="M146.224 66.6814L154.026 90.4129L164.288 87.0393L156.486 63.3077L146.224 66.6814ZM34.2989 129.772L26.4974 106.04L16.2351 109.414L24.0366 133.145L34.2989 129.772ZM145.989 106.321L50.2075 137.809L53.5811 148.071L149.362 116.584L145.989 106.321ZM66.6813 26.4975C99.7429 15.6289 135.355 33.6198 146.224 66.6814L156.486 63.3077C143.754 24.5785 102.037 3.50338 63.3077 16.2352L66.6813 26.4975ZM63.3077 16.2352C24.5784 28.9671 3.50326 70.6846 16.2351 109.414L26.4974 106.04C15.6287 72.9787 33.6197 37.3662 66.6813 26.4975L63.3077 16.2352ZM24.0366 133.145C28.0736 145.425 41.3011 152.108 53.5811 148.071L50.2075 137.809C43.5952 139.982 36.4726 136.384 34.2989 129.772L24.0366 133.145ZM154.026 90.4129C156.199 97.0252 152.601 104.148 145.989 106.321L149.362 116.584C161.642 112.547 168.325 99.3193 164.288 87.0393L154.026 90.4129Z" fill="white" mask="url(#path-1-outside-1_269_15996)"/>
<path d="M103.318 81.7337C103.466 82.1829 103.186 82.7677 102.495 83.4547C101.805 84.1417 100.716 84.9175 99.2917 85.7376C97.8675 86.5578 96.1355 87.4064 94.1947 88.2349C92.2539 89.0634 90.1423 89.8556 87.9804 90.5663C85.8185 91.277 83.6487 91.8923 81.5949 92.377C79.5411 92.8616 77.6435 93.2063 76.0104 93.3912C74.3773 93.576 73.0407 93.5976 72.0769 93.4545C71.1132 93.3115 70.5411 93.0066 70.3935 92.5574M71.3366 88.22C71.6831 90.4751 71.1513 95.1511 66.2522 95.814M100.646 79.37C101.705 81.3908 104.908 84.8391 109.245 82.4658" stroke="black" stroke-width="3.15075"/>
<circle cx="67.0613" cy="72.3319" r="11.7028" transform="rotate(-18.1978 67.0613 72.3319)" fill="white"/>
<circle cx="93.572" cy="63.6165" r="11.7028" transform="rotate(-18.1978 93.572 63.6165)" fill="white"/>
<circle cx="67.2048" cy="72.0479" r="5.17624" transform="rotate(-18.1978 67.2048 72.0479)" fill="black"/>
<circle cx="93.7155" cy="63.3326" r="5.17624" transform="rotate(-18.1978 93.7155 63.3326)" fill="black"/>
</svg>
