<svg width="241" height="241" viewBox="0 0 241 241" fill="none" xmlns="http://www.w3.org/2000/svg">
<path d="M143.643 29.2407C140.097 20.2936 128.148 18.6324 122.295 26.2728L102.348 52.3127C100.656 54.5216 97.7702 55.448 95.1086 54.6369L63.7312 45.075C54.5248 42.2694 45.7758 50.576 48.1002 59.9155L56.0222 91.7464C56.6942 94.4466 55.6194 97.2802 53.3257 98.8554L26.2865 117.425C18.3529 122.874 19.3923 134.893 28.1434 138.899L57.9692 152.552C60.4992 153.71 62.0445 156.317 61.846 159.092L59.5059 191.811C58.8193 201.411 68.8644 208.092 77.4526 203.747L106.723 188.941C109.206 187.685 112.207 188.102 114.253 189.988L138.375 212.217C145.452 218.739 156.939 215.051 158.897 205.628L165.57 173.512C166.136 170.788 168.334 168.701 171.084 168.277L203.503 163.278C213.015 161.811 217.293 150.531 211.147 143.125L190.198 117.884C188.421 115.743 188.16 112.723 189.543 110.309L205.848 81.8461C210.632 73.4948 204.48 63.1167 194.858 63.3046L162.062 63.945C159.28 63.9993 156.756 62.3209 155.731 59.7343L143.643 29.2407Z" fill="#4ED78B" stroke="white" stroke-width="5.71703"/>
<path d="M111.87 118.98C112.201 116.594 112.06 114.166 111.453 111.835C110.847 109.504 109.787 107.315 108.335 105.393C106.882 103.472 105.065 101.855 102.988 100.636C100.911 99.4165 98.6138 98.6181 96.228 98.2864C93.8422 97.9548 91.4144 98.0962 89.0833 98.7028C86.7522 99.3094 84.5634 100.369 82.6419 101.822C80.7204 103.274 79.1037 105.091 77.8843 107.168C76.6649 109.245 75.8665 111.542 75.5348 113.928L111.87 118.98Z" fill="white"/>
<path d="M100.512 117.641C100.641 116.712 100.592 115.767 100.368 114.86C100.143 113.953 99.7478 113.103 99.2038 112.357C98.6598 111.612 97.978 110.986 97.1973 110.514C96.4166 110.043 95.5523 109.737 94.6538 109.612C93.7553 109.487 92.8401 109.546 91.9605 109.786C91.0809 110.027 90.2541 110.443 89.5274 111.012C88.8006 111.581 88.1881 112.291 87.7249 113.102C87.2617 113.913 86.9567 114.809 86.8275 115.739L100.512 117.641Z" fill="black"/>
<path d="M164.249 126.262C164.58 123.876 164.439 121.448 163.832 119.117C163.226 116.786 162.166 114.597 160.713 112.675C159.261 110.754 157.444 109.137 155.367 107.918C153.29 106.698 150.993 105.9 148.607 105.568C146.221 105.237 143.793 105.378 141.462 105.985C139.131 106.591 136.942 107.651 135.021 109.104C133.099 110.556 131.483 112.373 130.263 114.45C129.044 116.527 128.245 118.824 127.914 121.21L164.249 126.262Z" fill="white"/>
<path d="M152.89 124.923C153.019 123.994 152.97 123.049 152.746 122.142C152.521 121.235 152.126 120.385 151.582 119.639C151.038 118.894 150.356 118.268 149.575 117.796C148.795 117.325 147.93 117.019 147.032 116.894C146.133 116.769 145.218 116.828 144.338 117.068C143.459 117.309 142.632 117.725 141.905 118.294C141.179 118.863 140.566 119.573 140.103 120.384C139.64 121.195 139.335 122.091 139.205 123.021L152.89 124.923Z" fill="black"/>
<path d="M103.97 132.552C103.754 134.101 104.011 135.701 104.725 137.259C105.439 138.817 106.596 140.304 108.131 141.634C109.666 142.964 111.548 144.111 113.67 145.01C115.791 145.91 118.111 146.543 120.497 146.875M107.359 128.935C106.727 131.172 104.034 135.206 98.3135 133.449" stroke="black" stroke-width="3.33494"/>
</svg>
