<svg width="177" height="191" viewBox="0 0 177 191" fill="none" xmlns="http://www.w3.org/2000/svg">
<path d="M116.383 21.8263L114.639 23.4051L116.383 21.8263C114.309 19.5349 111.169 18.5242 108.147 19.1751L38.9374 34.082C35.9157 34.7328 33.4708 36.9463 32.5236 39.8885L10.8283 107.28C9.88114 110.222 10.5756 113.446 12.6501 115.737L60.1648 168.222C62.2393 170.513 65.3787 171.524 68.4004 170.873L137.61 155.966C140.632 155.315 143.077 153.102 144.024 150.159L165.719 82.7683C166.667 79.8261 165.972 76.6019 163.898 74.3105L116.383 21.8263Z" fill="#FEA8D9" stroke="white" stroke-width="4.71916"/>
<path d="M84.5968 84.751C85.2061 82.8584 85.4367 80.8642 85.2753 78.8825C85.1139 76.9008 84.5638 74.9702 83.6564 73.2011C82.7489 71.4319 81.5019 69.8589 79.9865 68.5717C78.4711 67.2845 76.717 66.3084 74.8243 65.6991C72.9317 65.0898 70.9376 64.8592 68.9558 65.0206C66.9741 65.1819 65.0435 65.7321 63.2744 66.6395C61.5053 67.547 59.9322 68.794 58.645 70.3094C57.3578 71.8248 56.3817 73.5789 55.7724 75.4715L84.5968 84.751Z" fill="white"/>
<path d="M103.558 96.4328C103.162 97.6618 102.398 98.7588 101.308 99.661C100.218 100.563 98.8244 101.253 97.2063 101.691C95.5883 102.13 93.7776 102.307 91.8776 102.215C89.9776 102.122 88.0256 101.761 86.1329 101.152C84.2403 100.542 82.4441 99.697 80.8469 98.6638C79.2498 97.6305 77.8829 96.4297 76.8244 95.1298C75.7658 93.83 75.0364 92.4565 74.6776 91.0879C74.3189 89.7193 74.3379 88.3824 74.7335 87.1534" stroke="black" stroke-width="2.75285"/>
<path d="M75.5522 82.0458C75.7896 81.3084 75.8842 80.533 75.8308 79.764C75.7773 78.9949 75.5768 78.2472 75.2406 77.5635C74.9044 76.8798 74.4392 76.2736 73.8715 75.7794C73.3038 75.2852 72.6447 74.9127 71.9319 74.6832C71.2191 74.4537 70.4665 74.3718 69.7171 74.4419C68.9677 74.5121 68.2362 74.7331 67.5643 75.0922C66.8924 75.4514 66.2933 75.9417 65.8012 76.5351C65.3091 77.1286 64.9336 77.8135 64.6962 78.5509L75.5522 82.0458Z" fill="black"/>
<path d="M126.149 98.128C126.758 96.2353 126.988 94.2412 126.827 92.2595C126.666 90.2777 126.116 88.3472 125.208 86.578C124.301 84.8089 123.054 83.2358 121.538 81.9486C120.023 80.6614 118.269 79.6853 116.376 79.076C114.483 78.4667 112.489 78.2362 110.508 78.3975C108.526 78.5589 106.595 79.109 104.826 80.0165C103.057 80.9239 101.484 82.171 100.197 83.6864C98.9096 85.2018 97.9334 86.9559 97.3241 88.8485L126.149 98.128Z" fill="white"/>
<path d="M117.104 95.4228C117.341 94.6854 117.436 93.91 117.383 93.1409C117.329 92.3718 117.129 91.6241 116.792 90.9404C116.456 90.2568 115.991 89.6505 115.423 89.1563C114.856 88.6621 114.196 88.2897 113.484 88.0602C112.771 87.8307 112.018 87.7487 111.269 87.8189C110.519 87.8891 109.788 88.11 109.116 88.4692C108.444 88.8283 107.845 89.3186 107.353 89.9121C106.861 90.5055 106.485 91.1905 106.248 91.9279L117.104 95.4228Z" fill="black"/>
</svg>
