<svg width="312" height="290" viewBox="0 0 312 290" fill="none" xmlns="http://www.w3.org/2000/svg">
<path fill-rule="evenodd" clip-rule="evenodd" d="M9.77129 169.482C12.6176 151.224 13.9027 132.635 24.0774 117.397C34.7696 101.383 49.5749 87.7197 67.7411 82.6636C85.8308 77.6287 103.306 89.6928 122.018 90.1372C155.119 90.9233 196.277 61.3124 218.864 86.2523C239.93 109.513 204.108 146.166 201.572 177.978C199.184 207.946 224.503 243.947 204.545 265.889C184.15 288.311 147.228 267.294 117.629 270.265C95.1756 272.519 73.7948 288.576 52.4416 281.156C30.862 273.658 14.6381 253.452 6.27826 231.573C-1.2644 211.833 6.49935 190.471 9.77129 169.482Z" fill="#FB8073"/>
<path d="M180.482 11.8254C175.347 2.92466 162.507 2.92465 157.373 11.8254L33.3174 226.875C28.1873 235.768 34.5959 246.896 44.8719 246.896H292.983C303.259 246.896 309.667 235.768 304.537 226.875L180.482 11.8254Z" fill="#4ED78B" stroke="white" stroke-width="9.44935"/>
<path d="M187.622 110.744C187.622 114.099 188.688 117.422 190.759 120.523C192.831 123.623 195.867 126.44 199.694 128.813C203.521 131.186 208.065 133.068 213.065 134.352C218.066 135.636 223.426 136.297 228.838 136.297" stroke="black" stroke-width="4.85338"/>
<path d="M150.726 95.0001C150.726 98.3558 149.66 101.679 147.588 104.779C145.517 107.879 142.481 110.696 138.654 113.069C134.826 115.442 130.283 117.324 125.282 118.609C120.282 119.893 114.922 120.554 109.509 120.554" stroke="black" stroke-width="4.85338"/>
<path d="M172.641 164.031C172.641 173.987 180.712 182.058 190.667 182.058C200.623 182.058 208.694 173.987 208.694 164.031C208.694 154.075 200.623 146.004 190.667 146.004C180.712 146.004 172.641 154.075 172.641 164.031Z" fill="white"/>
<path d="M172.641 163.684C172.641 168.088 176.21 171.658 180.614 171.658C185.018 171.658 188.587 168.088 188.587 163.684C188.587 159.281 185.018 155.711 180.614 155.711C176.21 155.711 172.641 159.281 172.641 163.684Z" fill="black"/>
<path d="M129.653 164.031C129.653 173.987 137.724 182.058 147.68 182.058C157.636 182.058 165.707 173.987 165.707 164.031C165.707 154.075 157.636 146.004 147.68 146.004C137.724 146.004 129.653 154.075 129.653 164.031Z" fill="white"/>
<path d="M129.653 163.684C129.653 168.088 133.223 171.658 137.627 171.658C142.03 171.658 145.6 168.088 145.6 163.684C145.6 159.281 142.03 155.711 137.627 155.711C133.223 155.711 129.653 159.281 129.653 163.684Z" fill="black"/>
<path d="M178.534 198.351C178.534 200.628 177.843 202.882 176.502 204.985C175.161 207.088 173.194 208.998 170.716 210.608C168.237 212.218 165.294 213.494 162.056 214.365C158.817 215.236 155.346 215.685 151.84 215.685M174.374 192.458C174.836 195.809 177.91 202.165 186.507 200.778" stroke="black" stroke-width="4.85338"/>
</svg>
