<svg width="32" height="32" viewBox="0 0 32 32" fill="none" xmlns="http://www.w3.org/2000/svg">
<path d="M13.3332 24C15.6998 23.9995 17.9982 23.2072 19.8625 21.7493L25.7238 27.6107L27.6092 25.7253L21.7478 19.864C23.2065 17.9995 23.9993 15.7006 23.9998 13.3333C23.9998 7.45199 19.2145 2.66666 13.3332 2.66666C7.45184 2.66666 2.6665 7.45199 2.6665 13.3333C2.6665 19.2147 7.45184 24 13.3332 24ZM13.3332 5.33332C17.7452 5.33332 21.3332 8.92132 21.3332 13.3333C21.3332 17.7453 17.7452 21.3333 13.3332 21.3333C8.92117 21.3333 5.33317 17.7453 5.33317 13.3333C5.33317 8.92132 8.92117 5.33332 13.3332 5.33332Z" fill="#AEAEAE"/>
<path d="M15.2161 11.448C15.7214 11.9547 16.0001 12.624 16.0001 13.3333H18.6668C18.6679 12.6326 18.5302 11.9385 18.2615 11.2913C17.9929 10.6441 17.5986 10.0566 17.1014 9.56266C15.0828 7.54666 11.5828 7.54666 9.56543 9.56266L11.4481 11.4507C12.4614 10.44 14.2081 10.4427 15.2161 11.448Z" fill="#AEAEAE"/>
</svg>
