<svg width="428" height="356" viewBox="0 0 428 356" fill="none" xmlns="http://www.w3.org/2000/svg">
<path fill-rule="evenodd" clip-rule="evenodd" d="M233.634 209.24C221.97 223.618 211.488 239.073 195.018 247.128C177.71 255.593 158.035 259.941 139.798 255.133C121.637 250.345 112.629 231.054 96.6935 221.204C68.5043 203.78 18.0312 208.615 11.1001 175.584C4.6358 144.777 54.0518 131.141 72.2814 104.864C89.4539 80.1097 85.741 36.1128 114.039 27.199C142.957 18.0896 164.245 54.9733 191.305 67.3712C211.832 76.7758 238.392 73.6793 253.091 90.9082C267.946 108.32 271.769 134.032 267.957 157.215C264.518 178.132 247.042 192.712 233.634 209.24Z" fill="#855CF6"/>
<path d="M276.38 45.357C268.539 31.4753 248.59 31.4753 240.749 45.357L214.02 92.6776C211.749 96.6985 207.236 98.8728 202.703 98.1498L149.159 89.6101C133.42 87.1 121.027 102.757 126.943 117.526L147.156 167.995C148.876 172.288 147.756 177.199 144.356 180.312L104.317 216.984C92.5867 227.728 97.0009 247.212 112.246 251.795L164.181 267.407C168.58 268.73 171.712 272.659 172.02 277.278L175.636 331.546C176.694 347.437 194.648 356.148 207.739 347.039L252.287 316.038C256.063 313.411 261.066 313.411 264.842 316.038L309.39 347.039C322.481 356.148 340.434 347.437 341.493 331.546L345.109 277.278C345.416 272.659 348.548 268.73 352.948 267.407L404.883 251.795C420.128 247.212 424.542 227.728 412.812 216.984L372.772 180.312C369.373 177.199 368.253 172.288 369.972 167.995L390.186 117.526C396.102 102.757 383.708 87.1 367.97 89.6101L314.426 98.1498C309.893 98.8728 305.38 96.6985 303.109 92.6776L276.38 45.357Z" fill="#FEA8D9" stroke="white" stroke-width="9.44935"/>
<path d="M236.07 142.136C236.07 145.947 234.859 149.721 232.506 153.242C230.154 156.763 226.706 159.963 222.359 162.658C218.012 165.353 212.852 167.491 207.173 168.949C201.493 170.408 195.406 171.158 189.259 171.158" stroke="black" stroke-width="5.51212"/>
<path d="M277.973 124.256C277.973 128.067 279.184 131.841 281.537 135.362C283.889 138.883 287.337 142.082 291.684 144.777C296.031 147.472 301.191 149.61 306.87 151.069C312.55 152.527 318.637 153.278 324.784 153.278" stroke="black" stroke-width="5.51212"/>
<path d="M243.635 212.499C243.635 208.518 242.851 204.576 241.328 200.898C239.804 197.219 237.571 193.877 234.756 191.062C231.941 188.247 228.599 186.014 224.92 184.49C221.242 182.967 217.3 182.183 213.319 182.183C209.337 182.183 205.395 182.967 201.717 184.49C198.039 186.014 194.697 188.247 191.882 191.062C189.066 193.877 186.833 197.219 185.31 200.898C183.786 204.576 183.002 208.518 183.002 212.499L243.635 212.499Z" fill="white"/>
<path d="M224.737 212.893C224.737 211.342 224.441 209.806 223.867 208.373C223.294 206.94 222.453 205.638 221.392 204.541C220.332 203.444 219.073 202.574 217.688 201.98C216.303 201.387 214.818 201.081 213.319 201.081C211.819 201.081 210.334 201.387 208.949 201.98C207.564 202.574 206.305 203.444 205.245 204.541C204.185 205.638 203.344 206.94 202.77 208.373C202.196 209.806 201.901 211.342 201.901 212.893H224.737Z" fill="black"/>
<path d="M331.042 212.499C331.042 208.518 330.257 204.576 328.734 200.898C327.21 197.219 324.977 193.877 322.162 191.062C319.347 188.247 316.005 186.014 312.327 184.49C308.648 182.967 304.706 182.183 300.725 182.183C296.744 182.183 292.801 182.967 289.123 184.49C285.445 186.014 282.103 188.247 279.288 191.062C276.473 193.877 274.239 197.219 272.716 200.898C271.192 204.576 270.408 208.518 270.408 212.499L331.042 212.499Z" fill="white"/>
<path d="M312.143 212.893C312.143 211.342 311.848 209.806 311.274 208.373C310.7 206.94 309.859 205.638 308.799 204.541C307.738 203.444 306.48 202.574 305.094 201.98C303.709 201.387 302.224 201.081 300.725 201.081C299.225 201.081 297.741 201.387 296.355 201.98C294.97 202.574 293.711 203.444 292.651 204.541C291.591 205.638 290.75 206.94 290.176 208.373C289.602 209.806 289.307 211.342 289.307 212.893H312.143Z" fill="black"/>
<path d="M286.945 231.398C286.945 232.225 286.161 233.044 284.637 233.809C283.113 234.573 280.88 235.267 278.065 235.852C275.25 236.437 271.908 236.901 268.23 237.218C264.551 237.535 260.609 237.698 256.628 237.698C252.647 237.698 248.704 237.535 245.026 237.218C241.348 236.901 238.006 236.437 235.191 235.852C232.376 235.267 230.143 234.573 228.619 233.809C227.095 233.044 226.311 232.225 226.311 231.398M230.249 224.705C229.592 228.642 226.154 236.123 217.649 234.548M283.795 226.009C284.451 229.947 287.89 237.427 296.394 235.853" stroke="black" stroke-width="5.51212"/>
<path d="M410.79 174.867C410.098 178.625 408.223 182.126 405.271 185.171C402.319 188.215 398.348 190.743 393.585 192.61C388.822 194.477 383.359 195.647 377.51 196.052C371.66 196.458 365.538 196.091 359.492 194.974" stroke="black" stroke-width="5.51212"/>
<path d="M388.037 180.765C393.104 180.764 398.024 179.063 402.016 175.933L414.564 188.515L418.6 184.468L406.052 171.886C409.175 167.884 410.872 162.949 410.873 157.868C410.873 145.243 400.628 134.97 388.037 134.97C375.446 134.97 365.201 145.243 365.201 157.868C365.201 170.492 375.446 180.765 388.037 180.765ZM388.037 140.695C397.483 140.695 405.164 148.397 405.164 157.868C405.164 167.338 397.483 175.04 388.037 175.04C378.592 175.04 370.91 167.338 370.91 157.868C370.91 148.397 378.592 140.695 388.037 140.695Z" fill="black"/>
<path d="M392.068 153.82C393.15 154.908 393.746 156.345 393.746 157.867H399.455C399.458 156.363 399.163 154.873 398.588 153.484C398.013 152.095 397.169 150.833 396.104 149.773C391.783 145.446 384.29 145.446 379.971 149.773L384.001 153.826C386.171 151.657 389.91 151.662 392.068 153.82Z" fill="black"/>
</svg>
