<svg width="70" height="70" viewBox="0 0 70 70" fill="none" xmlns="http://www.w3.org/2000/svg">
<circle cx="35" cy="35" r="35" fill="#FEA8D9"/>
<path d="M29.6101 20.4973C28.9779 21.5923 28.0198 22.4848 26.7904 23.1239C25.561 23.763 24.0844 24.1361 22.445 24.2219C20.8056 24.3078 19.0354 24.1047 17.2355 23.6243C15.4357 23.1438 13.6414 22.3955 11.9551 21.4219" stroke="black" stroke-width="1.86098"/>
<path d="M40.0559 20.4133C40.6881 21.5083 41.6463 22.4009 42.8756 23.0399C44.105 23.679 45.5816 24.0521 47.221 24.138C48.8604 24.2238 50.6306 24.0207 52.4305 23.5403C54.2303 23.0598 56.0246 22.3115 57.7109 21.3379" stroke="black" stroke-width="1.86098"/>
<path d="M33.5031 39.4689C33.5031 43.2864 30.4084 46.3811 26.5909 46.3811C22.7734 46.3811 19.6787 43.2864 19.6787 39.4689C19.6787 35.6513 22.7734 32.5566 26.5909 32.5566C30.4084 32.5566 33.5031 35.6513 33.5031 39.4689Z" fill="white"/>
<path d="M33.5031 39.3359C33.5031 41.0244 32.1343 42.3933 30.4458 42.3933C28.7573 42.3933 27.3885 41.0244 27.3885 39.3359C27.3885 37.6474 28.7573 36.2786 30.4458 36.2786C32.1343 36.2786 33.5031 37.6474 33.5031 39.3359Z" fill="black"/>
<path d="M49.9865 39.4689C49.9865 43.2864 46.8918 46.3811 43.0743 46.3811C39.2568 46.3811 36.1621 43.2864 36.1621 39.4689C36.1621 35.6513 39.2568 32.5566 43.0743 32.5566C46.8918 32.5566 49.9865 35.6513 49.9865 39.4689Z" fill="white"/>
<path d="M49.9865 39.3359C49.9865 41.0244 48.6177 42.3933 46.9292 42.3933C45.2407 42.3933 43.8719 41.0244 43.8719 39.3359C43.8719 37.6474 45.2407 36.2786 46.9292 36.2786C48.6177 36.2786 49.9865 37.6474 49.9865 39.3359Z" fill="black"/>
<path d="M39.9502 50.3693C39.9502 51.2421 39.6855 52.1063 39.1711 52.9127C38.6567 53.7191 37.9028 54.4518 36.9524 55.069C36.0019 55.6861 34.8736 56.1757 33.6318 56.5097C32.3899 56.8437 31.059 57.0156 29.7148 57.0156" stroke="black" stroke-width="1.86098"/>
</svg>
