<svg width="115" height="140" viewBox="0 0 115 140" fill="none" xmlns="http://www.w3.org/2000/svg">
<path d="M77.7575 3.35394H37.3939C18.5942 3.35394 3.35394 18.5942 3.35394 37.3939V196.606C3.35394 215.406 18.5942 230.646 37.3939 230.646H77.7575C96.5573 230.646 111.798 215.406 111.798 196.606V37.3939C111.798 18.5942 96.5573 3.35394 77.7575 3.35394Z" fill="#855CF6" stroke="white" stroke-width="5.29211"/>
<path d="M55.7818 89.6291C56.2638 91.0203 57.1631 92.2517 58.4284 93.253C59.6937 94.2542 61.3001 95.0057 63.1559 95.4646C65.0118 95.9234 67.0807 96.0806 69.2447 95.9272C71.4086 95.7737 73.6251 95.3127 75.7676 94.5703M57.0763 85.146C57.5035 87.2921 56.9707 91.8276 51.4223 92.8008" stroke="black" stroke-width="3.13939"/>
<rect x="15.5534" y="61.3337" width="96.1534" height="4.33367" fill="#FB8073" stroke="#FB8073" stroke-width="0.270855"/>
<mask id="path-4-outside-1_585_21670" maskUnits="userSpaceOnUse" x="23.3359" y="51.7822" width="42" height="38" fill="black">
<rect fill="white" x="23.3359" y="51.7822" width="42" height="38"/>
<path d="M44.1271 85.0345C51.017 82.1509 56.0034 77.2283 58.6932 72.2438C61.3416 67.28 61.714 62.3367 59.3553 59.3707C57.2242 56.7137 54.4516 55.7045 51.6377 55.7869C48.8238 55.8692 46.0927 57.0845 44.1271 58.794C42.1615 57.0845 39.4303 55.8692 36.6164 55.7869C33.8025 55.7045 31.0299 56.7137 28.8988 59.3707C26.5401 62.3367 26.9125 67.28 29.6023 72.2438C32.2507 77.2283 37.2371 82.1509 44.1271 85.0345Z"/>
</mask>
<path d="M44.1271 85.0345C51.017 82.1509 56.0034 77.2283 58.6932 72.2438C61.3416 67.28 61.714 62.3367 59.3553 59.3707C57.2242 56.7137 54.4516 55.7045 51.6377 55.7869C48.8238 55.8692 46.0927 57.0845 44.1271 58.794C42.1615 57.0845 39.4303 55.8692 36.6164 55.7869C33.8025 55.7045 31.0299 56.7137 28.8988 59.3707C26.5401 62.3367 26.9125 67.28 29.6023 72.2438C32.2507 77.2283 37.2371 82.1509 44.1271 85.0345Z" fill="black"/>
<path d="M44.1271 85.0345L42.5947 88.6959L44.1271 89.3372L45.6594 88.6959L44.1271 85.0345ZM58.6932 72.2438L62.1862 74.1287L62.1906 74.1205L62.195 74.1122L58.6932 72.2438ZM59.3553 59.3707L62.4618 56.9002L62.4567 56.8938L62.4515 56.8873L59.3553 59.3707ZM44.1271 58.794L41.5223 61.7889L44.1271 64.0543L46.7318 61.7889L44.1271 58.794ZM28.8988 59.3707L25.8026 56.8873L25.7975 56.8938L25.7923 56.9002L28.8988 59.3707ZM29.6023 72.2438L33.1073 70.3815L33.0997 70.3671L33.092 70.3529L29.6023 72.2438ZM45.6594 88.6959C53.3864 85.462 59.0651 79.9125 62.1862 74.1287L55.2002 70.3589C52.9418 74.5441 48.6476 78.8399 42.5947 81.3732L45.6594 88.6959ZM62.195 74.1122C65.0959 68.675 66.3233 61.7559 62.4618 56.9002L56.2488 61.8412C57.1047 62.9175 57.5872 65.8849 55.1914 70.3755L62.195 74.1122ZM62.4515 56.8873C59.4688 53.1687 55.4588 51.7042 51.5216 51.8195L51.7539 59.7542C53.4444 59.7047 54.9795 60.2588 56.2591 61.8541L62.4515 56.8873ZM51.5216 51.8195C47.6895 51.9317 44.0997 53.5575 41.5223 55.7992L46.7318 61.7889C48.0856 60.6114 49.9581 59.8068 51.7539 59.7542L51.5216 51.8195ZM46.7318 55.7992C44.1544 53.5575 40.5646 51.9317 36.7326 51.8195L36.5002 59.7542C38.296 59.8068 40.1685 60.6114 41.5223 61.7889L46.7318 55.7992ZM36.7326 51.8195C32.7953 51.7042 28.7853 53.1687 25.8026 56.8873L31.995 61.8541C33.2746 60.2588 34.8097 59.7047 36.5002 59.7542L36.7326 51.8195ZM25.7923 56.9002C21.9262 61.7617 23.1602 68.6862 26.1126 74.1348L33.092 70.3529C30.6649 65.8737 31.154 62.9117 32.0053 61.8412L25.7923 56.9002ZM26.0972 74.1061C29.1816 79.9112 34.8709 85.4633 42.5947 88.6959L45.6594 81.3732C39.6034 78.8386 35.3197 74.5454 33.1073 70.3815L26.0972 74.1061Z" fill="#FB8073" mask="url(#path-4-outside-1_585_21670)"/>
<mask id="path-6-outside-2_585_21670" maskUnits="userSpaceOnUse" x="68.1514" y="51.7822" width="42" height="38" fill="black">
<rect fill="white" x="68.1514" y="51.7822" width="42" height="38"/>
<path d="M88.9425 85.0345C95.8324 82.1509 100.819 77.2283 103.509 72.2438C106.157 67.28 106.529 62.3367 104.171 59.3707C102.04 56.7137 99.2671 55.7045 96.4532 55.7869C93.6392 55.8692 90.9081 57.0845 88.9425 58.794C86.9769 57.0845 84.2457 55.8692 81.4318 55.7869C78.6179 55.7045 75.8454 56.7137 73.7142 59.3707C71.3555 62.3367 71.728 67.28 74.4177 72.2438C77.0661 77.2283 82.0525 82.1509 88.9425 85.0345Z"/>
</mask>
<path d="M88.9425 85.0345C95.8324 82.1509 100.819 77.2283 103.509 72.2438C106.157 67.28 106.529 62.3367 104.171 59.3707C102.04 56.7137 99.2671 55.7045 96.4532 55.7869C93.6392 55.8692 90.9081 57.0845 88.9425 58.794C86.9769 57.0845 84.2457 55.8692 81.4318 55.7869C78.6179 55.7045 75.8454 56.7137 73.7142 59.3707C71.3555 62.3367 71.728 67.28 74.4177 72.2438C77.0661 77.2283 82.0525 82.1509 88.9425 85.0345Z" fill="black"/>
<path d="M88.9425 85.0345L87.4101 88.6959L88.9425 89.3372L90.4748 88.6959L88.9425 85.0345ZM103.509 72.2438L107.002 74.1287L107.006 74.1205L107.01 74.1122L103.509 72.2438ZM104.171 59.3707L107.277 56.9002L107.272 56.8938L107.267 56.8873L104.171 59.3707ZM88.9425 58.794L86.3378 61.7889L88.9425 64.0543L91.5472 61.7889L88.9425 58.794ZM73.7142 59.3707L70.6181 56.8873L70.6129 56.8938L70.6077 56.9002L73.7142 59.3707ZM74.4177 72.2438L77.9228 70.3815L77.9151 70.3671L77.9074 70.3529L74.4177 72.2438ZM90.4748 88.6959C98.2019 85.462 103.88 79.9125 107.002 74.1287L100.016 70.3589C97.7572 74.5441 93.463 78.8399 87.4101 81.3732L90.4748 88.6959ZM107.01 74.1122C109.911 68.675 111.139 61.7559 107.277 56.9002L101.064 61.8412C101.92 62.9175 102.403 65.8849 100.007 70.3755L107.01 74.1122ZM107.267 56.8873C104.284 53.1687 100.274 51.7042 96.337 51.8195L96.5693 59.7542C98.2599 59.7047 99.7949 60.2588 101.075 61.8541L107.267 56.8873ZM96.337 51.8195C92.505 51.9317 88.9152 53.5575 86.3378 55.7992L91.5472 61.7889C92.901 60.6114 94.7735 59.8068 96.5693 59.7542L96.337 51.8195ZM91.5472 55.7992C88.9698 53.5575 85.38 51.9317 81.548 51.8195L81.3157 59.7542C83.1115 59.8068 84.984 60.6114 86.3378 61.7889L91.5472 55.7992ZM81.548 51.8195C77.6107 51.7042 73.6007 53.1687 70.6181 56.8873L76.8104 61.8541C78.09 60.2588 79.6251 59.7047 81.3157 59.7542L81.548 51.8195ZM70.6077 56.9002C66.7416 61.7617 67.9756 68.6862 70.928 74.1348L77.9074 70.3529C75.4803 65.8737 75.9694 62.9117 76.8207 61.8412L70.6077 56.9002ZM70.9127 74.1061C73.9971 79.9112 79.6863 85.4633 87.4101 88.6959L90.4748 81.3732C84.4188 78.8386 80.1352 74.5454 77.9228 70.3815L70.9127 74.1061Z" fill="#FB8073" mask="url(#path-6-outside-2_585_21670)"/>
<path d="M55.1492 60.4464C56.1725 61.2474 57.0022 62.2678 57.5774 63.4319L56.1031 64.132C55.6366 63.1966 54.9673 62.3764 54.1434 61.7314C53.3194 61.0865 52.3624 60.6338 51.3424 60.4057L51.6678 58.8064C52.9359 59.0852 54.1258 59.6454 55.1492 60.4464Z" fill="white" stroke="#FB8073" stroke-width="0.270855"/>
<path d="M100.335 60.4464C101.358 61.2474 102.188 62.2678 102.763 63.4319L101.289 64.132C100.822 63.1966 100.153 62.3764 99.3289 61.7314C98.5049 61.0865 97.548 60.6338 96.5279 60.4057L96.8534 58.8064C98.1215 59.0852 99.3114 59.6454 100.335 60.4464Z" fill="white" stroke="#FB8073" stroke-width="0.270855"/>
</svg>
