<svg width="71" height="70" viewBox="0 0 71 70" fill="none" xmlns="http://www.w3.org/2000/svg">
<circle cx="35.5" cy="35" r="35" fill="#4ED78B"/>
<path d="M28.9235 19.6133C28.9235 20.8098 28.5434 21.9946 27.8048 23.1C27.0663 24.2055 25.9838 25.2099 24.6191 26.056C23.2545 26.902 21.6344 27.5732 19.8514 28.0311C18.0684 28.4889 16.1574 28.7246 14.2275 28.7246" stroke="black" stroke-width="1.7305"/>
<path d="M42.0785 14C42.0785 15.1965 42.4586 16.3813 43.1971 17.4868C43.9357 18.5922 45.0182 19.5966 46.3828 20.4427C47.7475 21.2887 49.3675 21.9599 51.1505 22.4178C52.9335 22.8757 54.8445 23.1113 56.7744 23.1113" stroke="black" stroke-width="1.7305"/>
<path d="M31.2982 41.7033C31.2982 40.4534 31.052 39.2157 30.5737 38.061C30.0954 36.9063 29.3943 35.857 28.5105 34.9732C27.6267 34.0894 26.5774 33.3884 25.4227 32.91C24.268 32.4317 23.0303 32.1855 21.7804 32.1855C20.5305 32.1855 19.2929 32.4317 18.1381 32.91C16.9834 33.3884 15.9342 34.0894 15.0504 34.9732C14.1666 35.857 13.4655 36.9063 12.9872 38.061C12.5089 39.2157 12.2627 40.4534 12.2627 41.7033L31.2982 41.7033Z" fill="white"/>
<path d="M25.365 41.8269C25.365 41.3399 25.2723 40.8577 25.0922 40.4078C24.912 39.9579 24.648 39.5491 24.3151 39.2048C23.9823 38.8604 23.5871 38.5873 23.1522 38.4009C22.7173 38.2146 22.2512 38.1187 21.7804 38.1187C21.3097 38.1187 20.8436 38.2146 20.4087 38.4009C19.9738 38.5873 19.5786 38.8604 19.2457 39.2048C18.9129 39.5491 18.6488 39.9579 18.4687 40.4078C18.2885 40.8577 18.1958 41.3399 18.1958 41.8269H25.365Z" fill="black"/>
<path d="M58.7386 41.7033C58.7386 40.4534 58.4924 39.2157 58.0141 38.061C57.5358 36.9063 56.8347 35.857 55.9509 34.9732C55.0671 34.0894 54.0179 33.3884 52.8631 32.91C51.7084 32.4317 50.4707 32.1855 49.2209 32.1855C47.971 32.1855 46.7333 32.4317 45.5786 32.91C44.4238 33.3884 43.3746 34.0894 42.4908 34.9732C41.607 35.857 40.9059 36.9063 40.4276 38.061C39.9493 39.2157 39.7031 40.4534 39.7031 41.7033L58.7386 41.7033Z" fill="white"/>
<path d="M52.8055 41.8269C52.8055 41.3399 52.7127 40.8577 52.5326 40.4078C52.3525 39.9579 52.0884 39.5491 51.7556 39.2048C51.4227 38.8604 51.0275 38.5873 50.5926 38.4009C50.1577 38.2146 49.6916 38.1187 49.2209 38.1187C48.7501 38.1187 48.284 38.2146 47.8491 38.4009C47.4142 38.5873 47.019 38.8604 46.6862 39.2048C46.3533 39.5491 46.0893 39.9579 45.9091 40.4078C45.729 40.8577 45.6363 41.3399 45.6363 41.8269H52.8055Z" fill="black"/>
<path d="M45.0189 45.5355C45.0189 46.3471 44.7727 47.1508 44.2944 47.9006C43.8161 48.6504 43.115 49.3317 42.2312 49.9056C41.3474 50.4795 40.2982 50.9348 39.1434 51.2454C37.9887 51.556 36.751 51.7158 35.5011 51.7158C34.2512 51.7158 33.0136 51.556 31.8589 51.2454C30.7041 50.9348 29.6549 50.4795 28.7711 49.9056C27.8873 49.3317 27.1862 48.6504 26.7079 47.9006C26.2296 47.1508 25.9834 46.3471 25.9834 45.5355" stroke="black" stroke-width="1.7305"/>
</svg>
