<svg width="48" height="48" viewBox="0 0 48 48" fill="none" xmlns="http://www.w3.org/2000/svg">
<rect width="48" height="48" rx="16" fill="#FB8073"/>
<path d="M19.9397 14.4538C19.6585 14.7351 19.5005 15.1166 19.5005 15.5143C19.5005 15.9121 19.6585 16.2935 19.9397 16.5748L27.3647 23.9998L19.9397 31.4248C19.6664 31.7077 19.5152 32.0866 19.5187 32.4799C19.5221 32.8732 19.6798 33.2494 19.9579 33.5275C20.2361 33.8056 20.6123 33.9634 21.0056 33.9668C21.3989 33.9702 21.7778 33.819 22.0607 33.5458L30.5462 25.0603C30.8274 24.779 30.9853 24.3976 30.9853 23.9998C30.9853 23.6021 30.8274 23.2206 30.5462 22.9393L22.0607 14.4538C21.7794 14.1726 21.3979 14.0146 21.0002 14.0146C20.6024 14.0146 20.221 14.1726 19.9397 14.4538Z" fill="white"/>
</svg>
