<svg width="142" height="101" viewBox="0 0 142 101" fill="none" xmlns="http://www.w3.org/2000/svg">
<mask id="path-1-outside-1_269_15370" maskUnits="userSpaceOnUse" x="0" y="-17.4494" width="143" height="119" fill="black">
<rect fill="white" y="-17.4494" width="143" height="119"/>
<path d="M137.391 78.2337V54.2462C137.391 17.9635 107.978 -11.4494 71.6956 -11.4494C35.4129 -11.4494 6 17.9635 6 54.2462V78.2337C6 87.7818 13.7403 95.522 23.2883 95.522H120.103C129.651 95.522 137.391 87.7818 137.391 78.2337Z"/>
</mask>
<path d="M137.391 78.2337V54.2462C137.391 17.9635 107.978 -11.4494 71.6956 -11.4494C35.4129 -11.4494 6 17.9635 6 54.2462V78.2337C6 87.7818 13.7403 95.522 23.2883 95.522H120.103C129.651 95.522 137.391 87.7818 137.391 78.2337Z" fill="#4ED78B"/>
<path d="M132.205 54.2462V78.2337H142.578V54.2462H132.205ZM11.1865 78.2337V54.2462H0.813507V78.2337H11.1865ZM120.103 90.3355H23.2883V100.709H120.103V90.3355ZM71.6956 -6.26291C105.114 -6.26291 132.205 20.8279 132.205 54.2462H142.578C142.578 15.0991 110.843 -16.6359 71.6956 -16.6359V-6.26291ZM71.6956 -16.6359C32.5485 -16.6359 0.813507 15.0991 0.813507 54.2462H11.1865C11.1865 20.8279 38.2773 -6.26291 71.6956 -6.26291V-16.6359ZM0.813507 78.2337C0.813507 90.6462 10.8758 100.709 23.2883 100.709V90.3355C16.6047 90.3355 11.1865 84.9174 11.1865 78.2337H0.813507ZM132.205 78.2337C132.205 84.9174 126.787 90.3355 120.103 90.3355V100.709C132.515 100.709 142.578 90.6462 142.578 78.2337H132.205Z" fill="white" mask="url(#path-1-outside-1_269_15370)"/>
<path d="M88.5519 55.1103C88.5519 55.5644 88.1215 56.014 87.2852 56.4335C86.449 56.853 85.2233 57.2342 83.6781 57.5553C82.133 57.8763 80.2986 58.131 78.2797 58.3048C76.2609 58.4786 74.0971 58.568 71.9119 58.568C69.7267 58.568 67.5629 58.4786 65.544 58.3048C63.5252 58.131 61.6908 57.8763 60.1456 57.5553C58.6004 57.2342 57.3747 56.853 56.5385 56.4335C55.7023 56.014 55.2719 55.5644 55.2719 55.1103M57.4329 51.4366C57.0727 53.5976 55.1854 57.7036 50.5176 56.8392M86.823 52.1527C87.1832 54.3138 89.0705 58.4198 93.7384 57.5553" stroke="black" stroke-width="3.02545"/>
<circle cx="58.297" cy="35.6611" r="11.2374" fill="white"/>
<circle cx="85.0938" cy="35.6611" r="11.2374" fill="white"/>
<circle cx="58.5134" cy="35.445" r="4.97039" fill="black"/>
<circle cx="85.3102" cy="35.445" r="4.97039" fill="black"/>
</svg>
