<svg width="167" height="219" viewBox="0 0 167 219" fill="none" xmlns="http://www.w3.org/2000/svg">
<rect x="-3.59282" y="23.5054" width="121.21" height="253.94" rx="38.066" transform="rotate(-12.7115 -3.59282 23.5054)" fill="#FFA9D8" stroke="white" stroke-width="6.01042"/>
<path d="M62.1177 66.7033C62.6098 68.8849 62.6673 71.142 62.2871 73.3458C61.9069 75.5496 61.0964 77.6569 59.9018 79.5474C58.7071 81.438 57.1519 83.0747 55.3247 84.3642C53.4975 85.6536 51.4343 86.5706 49.2528 87.0627C47.0712 87.5548 44.8141 87.6124 42.6103 87.2321C40.4065 86.8519 38.2992 86.0414 36.4087 84.8468C34.5181 83.6522 32.8814 82.0969 31.5919 80.2697C30.3025 78.4425 29.3855 76.3793 28.8934 74.1978" stroke="black" stroke-width="3.50608"/>
<path d="M106.58 56.6741C107.072 58.8556 107.129 61.1127 106.749 63.3165C106.369 65.5203 105.558 67.6276 104.364 69.5181C103.169 71.4087 101.614 73.0454 99.7866 74.3349C97.9595 75.6243 95.8962 76.5413 93.7147 77.0334C91.5331 77.5255 89.276 77.5831 87.0722 77.2029C84.8684 76.8226 82.7611 76.0121 80.8706 74.8175C78.98 73.6229 77.3433 72.0676 76.0539 70.2404C74.7644 68.4132 73.8474 66.35 73.3553 64.1685" stroke="black" stroke-width="3.50608"/>
<path d="M93.0496 83C93.4115 84.6041 93.2832 86.3022 92.6722 87.9974C92.0611 89.6926 90.9793 91.3517 89.4884 92.88C87.9975 94.4082 86.1267 95.7757 83.983 96.9044C81.8392 98.033 79.4644 98.9007 76.9941 99.458" stroke="black" stroke-width="3.50608"/>
</svg>
