<svg width="155" height="110" viewBox="0 0 155 110" fill="none" xmlns="http://www.w3.org/2000/svg">
<mask id="path-1-outside-1_269_15396" maskUnits="userSpaceOnUse" x="-3.71925" y="-59.5354" width="162.295" height="172.427" fill="black">
<rect fill="white" x="-3.71925" y="-59.5354" width="162.295" height="172.427"/>
<path fill-rule="evenodd" clip-rule="evenodd" d="M84.784 21.0853C84.2318 22.8747 84.9951 24.8078 86.6208 25.7372L146.683 60.0773C149.596 61.7426 149.288 66.038 146.167 67.2702L54.9965 103.268C51.8758 104.501 48.7161 101.575 49.7054 98.3685L70.1056 32.2581C70.6578 30.4687 69.8945 28.5357 68.2688 27.6062L8.20629 -6.73381C5.29356 -8.39913 5.60191 -12.6946 8.72264 -13.9268L99.8931 -49.925C103.014 -51.1572 106.174 -48.2311 105.184 -45.0251L84.784 21.0853Z"/>
</mask>
<path fill-rule="evenodd" clip-rule="evenodd" d="M84.784 21.0853C84.2318 22.8747 84.9951 24.8078 86.6208 25.7372L146.683 60.0773C149.596 61.7426 149.288 66.038 146.167 67.2702L54.9965 103.268C51.8758 104.501 48.7161 101.575 49.7054 98.3685L70.1056 32.2581C70.6578 30.4687 69.8945 28.5357 68.2688 27.6062L8.20629 -6.73381C5.29356 -8.39913 5.60191 -12.6946 8.72264 -13.9268L99.8931 -49.925C103.014 -51.1572 106.174 -48.2311 105.184 -45.0251L84.784 21.0853Z" fill="#FFE772"/>
<path d="M105.184 -45.0251L110.917 -43.2559L105.184 -45.0251ZM70.1056 32.2581L75.8389 34.0273L70.1056 32.2581ZM68.2688 27.6062L71.2469 22.3974L68.2688 27.6062ZM146.683 60.0773L149.661 54.8685L146.683 60.0773ZM84.784 21.0853L90.5173 22.8545L84.784 21.0853ZM83.6428 30.946L143.705 65.286L149.661 54.8685L89.5989 20.5285L83.6428 30.946ZM143.963 61.6895L52.793 97.6877L57.2001 108.849L148.371 72.851L143.963 61.6895ZM55.4386 100.138L75.8389 34.0273L64.3724 30.489L43.9721 96.5994L55.4386 100.138ZM71.2469 22.3974L11.1843 -11.9426L5.22824 -1.52505L65.2908 32.815L71.2469 22.3974ZM10.9262 -8.34608L102.097 -44.3443L97.6895 -55.5057L6.51911 -19.5075L10.9262 -8.34608ZM99.451 -46.7942L79.0508 19.3161L90.5173 22.8545L110.917 -43.2559L99.451 -46.7942ZM102.097 -44.3443C100.536 -43.7282 98.9564 -45.1912 99.451 -46.7942L110.917 -43.2559C113.391 -51.271 105.491 -58.5862 97.6895 -55.5057L102.097 -44.3443ZM11.1843 -11.9426C12.6407 -11.1099 12.4865 -8.96219 10.9262 -8.34608L6.51911 -19.5075C-1.28271 -16.427 -2.05357 -5.68833 5.22824 -1.52505L11.1843 -11.9426ZM75.8389 34.0273C77.2193 29.5537 75.3112 24.7212 71.2469 22.3974L65.2908 32.815C64.4779 32.3502 64.0963 31.3837 64.3724 30.489L75.8389 34.0273ZM52.793 97.6877C54.3534 97.0716 55.9333 98.5347 55.4386 100.138L43.9721 96.5994C41.4989 104.614 49.3983 111.93 57.2001 108.849L52.793 97.6877ZM143.705 65.286C142.249 64.4534 142.403 62.3056 143.963 61.6895L148.371 72.851C156.172 69.7705 156.943 59.0318 149.661 54.8685L143.705 65.286ZM89.5989 20.5285C90.4117 20.9932 90.7933 21.9597 90.5173 22.8545L79.0508 19.3161C77.6703 23.7897 79.5784 28.6223 83.6428 30.946L89.5989 20.5285Z" fill="white" mask="url(#path-1-outside-1_269_15396)"/>
<path d="M105.317 66.0952C104.836 67.4302 103.955 68.6063 102.724 69.5563C101.493 70.5063 99.9363 71.2116 98.1425 71.632C96.3488 72.0524 94.3532 72.1796 92.2698 72.0063C90.1864 71.8331 88.0559 71.3628 86 70.6223M104.122 61.76C103.685 63.8231 104.146 68.1999 109.481 69.2028" stroke="black" stroke-width="3.02545"/>
<path d="M79.3732 48.1335C80.1156 50.1887 80.446 52.37 80.3454 54.5529C80.2449 56.7358 79.7153 58.8774 78.7871 60.8557C77.8588 62.8339 76.55 64.6099 74.9354 66.0824C73.3207 67.5548 71.4319 68.6948 69.3767 69.4372C67.3215 70.1796 65.1402 70.51 62.9573 70.4095C60.7744 70.3089 58.6327 69.7794 56.6545 68.8511C54.6762 67.9228 52.9002 66.614 51.4278 64.9994C49.9554 63.3847 48.8154 61.4959 48.0729 59.4407L79.3732 48.1335Z" fill="white"/>
<path d="M69.5437 51.4545C69.833 52.2552 69.9669 53.1032 69.938 53.95C69.909 54.7968 69.7177 55.6258 69.3749 56.3897C69.0321 57.1536 68.5446 57.8375 67.9402 58.4023C67.3357 58.967 66.6262 59.4016 65.8522 59.6812C65.0782 59.9609 64.2547 60.08 63.4289 60.0319C62.6031 59.9839 61.7911 59.7695 61.0392 59.401C60.2874 59.0325 59.6104 58.5172 59.0469 57.8844C58.4835 57.2516 58.0446 56.5138 57.7553 55.7131L69.5437 51.4545Z" fill="black"/>
<path d="M117.935 34.2033C118.677 36.2585 119.008 38.4398 118.907 40.6227C118.806 42.8056 118.277 44.9473 117.349 46.9255C116.42 48.9037 115.112 50.6798 113.497 52.1522C111.882 53.6246 109.993 54.7646 107.938 55.507C105.883 56.2495 103.702 56.5798 101.519 56.4793C99.3359 56.3787 97.1942 55.8492 95.216 54.9209C93.2378 53.9927 91.4617 52.6838 89.9893 51.0692C88.5169 49.4546 87.3769 47.5657 86.6345 45.5105L117.935 34.2033Z" fill="white"/>
<path d="M108.105 37.5243C108.394 38.3251 108.528 39.173 108.499 40.0198C108.471 40.8666 108.279 41.6956 107.936 42.4595C107.594 43.2235 107.106 43.9073 106.502 44.4721C105.897 45.0369 105.188 45.4715 104.414 45.7511C103.64 46.0307 102.816 46.1499 101.99 46.1018C101.165 46.0537 100.353 45.8393 99.6007 45.4708C98.8489 45.1023 98.1719 44.587 97.6084 43.9542C97.045 43.3214 96.6061 42.5836 96.3168 41.7829L108.105 37.5243Z" fill="black"/>
<path d="M68.8104 32C69.1722 33.6041 69.0439 35.3022 68.4329 36.9974C67.8219 38.6926 66.74 40.3517 65.2491 41.88C63.7582 43.4082 61.8875 44.7757 59.7437 45.9044C57.6 47.033 55.2252 47.9007 52.7549 48.4579" stroke="black" stroke-width="3.50608"/>
<path d="M84.5922 21.9092C84.7479 23.5462 85.3986 25.1199 86.5072 26.5405C87.6158 27.9611 89.1605 29.2008 91.0532 30.1888C92.9459 31.1768 95.1494 31.8937 97.5381 32.2986C99.9267 32.7035 102.454 32.7885 104.975 32.5487" stroke="black" stroke-width="3.50608"/>
</svg>
