<svg width="160" height="153" viewBox="0 0 160 153" fill="none" xmlns="http://www.w3.org/2000/svg">
<path d="M8.16104 43.2051L9.45766 45.4509L8.16104 43.2051C5.21908 44.9037 3.40675 48.0427 3.40675 51.4398V129.248C3.40675 132.645 5.21908 135.784 8.16104 137.483L75.5448 176.387C78.4868 178.085 82.1115 178.085 85.0534 176.387L152.437 137.483C155.379 135.784 157.191 132.645 157.191 129.248V51.4398C157.191 48.0427 155.379 44.9037 152.437 43.2051L85.0534 4.30106C82.1115 2.60252 78.4868 2.60252 75.5448 4.30106L8.16104 43.2051Z" fill="#FB8073" stroke="white" stroke-width="5.18649"/>
<path d="M72.9919 80.8353C72.9919 78.6501 72.5615 76.4863 71.7253 74.4674C70.889 72.4485 69.6633 70.6142 68.1182 69.069C66.573 67.5238 64.7386 66.2981 62.7198 65.4619C60.7009 64.6257 58.5371 64.1953 56.3519 64.1953C54.1667 64.1953 52.0029 64.6257 49.9841 65.4619C47.9652 66.2981 46.1308 67.5238 44.5857 69.069C43.0405 70.6142 41.8148 72.4485 40.9786 74.4674C40.1423 76.4863 39.7119 78.6501 39.7119 80.8353L72.9919 80.8353Z" fill="white"/>
<path d="M96.7634 86.6701C96.7634 88.0891 96.333 89.4941 95.4968 90.8051C94.6605 92.116 93.4348 93.3072 91.8897 94.3105C90.3445 95.3139 88.5101 96.1098 86.4913 96.6528C84.4724 97.1958 82.3086 97.4753 80.1234 97.4753C77.9382 97.4753 75.7744 97.1958 73.7555 96.6528C71.7367 96.1098 69.9023 95.3139 68.3571 94.3105C66.812 93.3072 65.5863 92.116 64.75 90.8051C63.9138 89.4941 63.4834 88.0891 63.4834 86.6701" stroke="black" stroke-width="3.02545"/>
<path d="M62.619 81.0514C62.619 80.2 62.4569 79.357 62.1419 78.5704C61.827 77.7839 61.3654 77.0692 60.7834 76.4672C60.2015 75.8651 59.5106 75.3876 58.7503 75.0618C57.9899 74.736 57.175 74.5683 56.352 74.5683C55.529 74.5683 54.714 74.736 53.9537 75.0618C53.1933 75.3876 52.5025 75.8651 51.9205 76.4672C51.3386 77.0692 50.877 77.7839 50.562 78.5704C50.2471 79.357 50.085 80.2 50.085 81.0514L62.619 81.0514Z" fill="black"/>
<path d="M120.968 80.8352C120.968 78.65 120.537 76.4862 119.701 74.4674C118.865 72.4485 117.639 70.6141 116.094 69.069C114.549 67.5238 112.714 66.2981 110.695 65.4619C108.676 64.6256 106.513 64.1952 104.328 64.1952C102.142 64.1952 99.9785 64.6256 97.9596 65.4619C95.9408 66.2981 94.1064 67.5238 92.5612 69.069C91.0161 70.6141 89.7904 72.4485 88.9541 74.4674C88.1179 76.4862 87.6875 78.65 87.6875 80.8352L120.968 80.8352Z" fill="white"/>
<path d="M110.595 81.0514C110.595 80.2 110.432 79.357 110.118 78.5704C109.803 77.7839 109.341 77.0692 108.759 76.4671C108.177 75.8651 107.486 75.3876 106.726 75.0618C105.965 74.736 105.151 74.5683 104.328 74.5683C103.505 74.5683 102.69 74.736 101.929 75.0618C101.169 75.3876 100.478 75.8651 99.8961 76.4671C99.3142 77.0692 98.8525 77.7839 98.5376 78.5704C98.2226 79.357 98.0605 80.2 98.0605 81.0514L110.595 81.0514Z" fill="black"/>
</svg>
