<svg width="248" height="197" viewBox="0 0 248 197" fill="none" xmlns="http://www.w3.org/2000/svg">
<path d="M104.146 -10.2947C97.5216 -15.983 87.2245 -12.2742 85.7489 -3.66853L80.7196 25.6613C80.293 28.1493 78.3667 30.111 75.887 30.5829L46.6537 36.1462C38.0764 37.7785 34.5559 48.1414 40.3641 54.6607L60.1594 76.8796C61.8386 78.7643 62.1713 81.4935 60.9941 83.7265L47.117 110.051C43.0453 117.774 48.9524 126.988 57.6707 126.512L87.3843 124.888C89.9048 124.751 92.246 126.192 93.2579 128.505L105.187 155.767C108.687 163.766 119.573 164.892 124.637 157.779L141.893 133.536C143.357 131.479 145.944 130.548 148.383 131.199L177.135 138.87C185.571 141.121 193.239 133.312 190.835 124.918L182.64 96.3106C181.945 93.884 182.83 91.2807 184.859 89.7796L208.784 72.0835C215.803 66.8913 214.479 56.0271 206.417 52.6735L178.942 41.2438C176.611 40.2743 175.127 37.9598 175.219 35.4372L176.3 5.69892C176.617 -3.02657 167.298 -8.76476 159.649 -4.55291L133.583 9.80194C131.372 11.0196 128.637 10.7367 126.722 9.09219L104.146 -10.2947Z" fill="#855CF6" stroke="white" stroke-width="5.18649"/>
<path d="M116.501 75.1805C115.761 73.1246 114.623 71.2347 113.152 69.6187C111.681 68.0026 109.906 66.6922 107.929 65.762C105.952 64.8319 103.81 64.3003 101.628 64.1977C99.4447 64.0951 97.2631 64.4234 95.2072 65.1639C93.1513 65.9044 91.2614 67.0426 89.6454 68.5135C88.0293 69.9844 86.7188 71.7592 85.7887 73.7365C84.8586 75.7139 84.327 77.8551 84.2244 80.0378C84.1218 82.2206 84.4501 84.4023 85.1906 86.4582L116.501 75.1805Z" fill="white"/>
<path d="M106.816 78.8989C106.527 78.0979 106.089 77.3597 105.526 76.7264C104.963 76.0931 104.287 75.5771 103.535 75.2079C102.784 74.8387 101.972 74.6235 101.146 74.5747C100.32 74.5258 99.4967 74.6442 98.7224 74.9231C97.9481 75.202 97.2382 75.6359 96.6332 76.2001C96.0283 76.7643 95.5401 77.4477 95.1966 78.2113C94.8531 78.9749 94.661 79.8037 94.6312 80.6505C94.6014 81.4972 94.7346 82.3453 95.0231 83.1463L106.816 78.8989Z" fill="black"/>
<path d="M161.638 58.9232C160.898 56.8673 159.76 54.9774 158.289 53.3613C156.818 51.7453 155.043 50.4348 153.066 49.5047C151.088 48.5745 148.947 48.043 146.764 47.9404C144.581 47.8377 142.4 48.166 140.344 48.9065C138.288 49.647 136.398 50.7852 134.782 52.2561C133.166 53.727 131.856 55.5018 130.925 57.4792C129.995 59.4565 129.464 61.5977 129.361 63.7805C129.258 65.9633 129.587 68.1449 130.327 70.2008L161.638 58.9232Z" fill="white"/>
<path d="M151.952 62.6415C151.664 61.8405 151.226 61.1023 150.663 60.469C150.1 59.8357 149.423 59.3197 148.672 58.9505C147.92 58.5813 147.108 58.3662 146.283 58.3173C145.457 58.2684 144.633 58.3868 143.859 58.6657C143.085 58.9446 142.375 59.3785 141.77 59.9427C141.165 60.5069 140.677 61.1903 140.333 61.9539C139.99 62.7175 139.798 63.5463 139.768 64.3931C139.738 65.2399 139.871 66.0879 140.16 66.8889L151.952 62.6415Z" fill="black"/>
<path d="M115.885 89.4137C116.366 90.7487 117.247 91.9248 118.478 92.8748C119.709 93.8248 121.266 94.5302 123.06 94.9505C124.853 95.3709 126.849 95.4981 128.932 95.3249C131.016 95.1516 133.146 94.6813 135.202 93.9408M117.08 85.0786C117.517 87.1416 117.057 91.5184 111.721 92.5213" stroke="black" stroke-width="3.02545"/>
</svg>
