<svg width="399" height="265" viewBox="0 0 399 265" fill="none" xmlns="http://www.w3.org/2000/svg">
<mask id="path-1-outside-1_269_17169" maskUnits="userSpaceOnUse" x="112.621" y="4.62093" width="175" height="258" fill="black">
<rect fill="white" x="112.621" y="4.62093" width="175" height="258"/>
<path d="M279.672 19.4332L213.778 133.314L279.672 247.194C281.681 250.667 279.17 255.007 275.152 255.007H124.848C120.83 255.007 118.319 250.667 120.328 247.194L186.222 133.314L120.328 19.4332C118.319 15.9611 120.83 11.6209 124.848 11.6209H275.152C279.17 11.6209 281.681 15.9611 279.672 19.4332Z"/>
</mask>
<path d="M279.672 19.4332L213.778 133.314L279.672 247.194C281.681 250.667 279.17 255.007 275.152 255.007H124.848C120.83 255.007 118.319 250.667 120.328 247.194L186.222 133.314L120.328 19.4332C118.319 15.9611 120.83 11.6209 124.848 11.6209H275.152C279.17 11.6209 281.681 15.9611 279.672 19.4332Z" fill="#FEA8D9"/>
<path d="M213.778 133.314L216.697 135.003L217.674 133.314L216.697 131.625L213.778 133.314ZM186.222 133.314L183.303 131.625L182.326 133.314L183.303 135.003L186.222 133.314ZM207.439 151.001L216.697 135.003L210.858 131.625L201.601 147.623L207.439 151.001ZM183.303 135.003L192.56 151.001L198.399 147.623L189.142 131.625L183.303 135.003ZM201.601 119.004L210.858 135.003L216.697 131.625L207.439 115.626L201.601 119.004ZM189.142 135.003L198.399 119.004L192.56 115.626L183.303 131.625L189.142 135.003ZM213.778 133.314L207.939 129.936L205.985 133.314L207.939 136.692L213.778 133.314ZM279.672 19.4332L285.51 22.8113V22.8113L279.672 19.4332ZM120.328 19.4332L114.49 22.8113H114.49L120.328 19.4332ZM186.222 133.314L192.061 136.692L194.015 133.314L192.061 129.936L186.222 133.314ZM279.672 247.194L285.51 243.816L279.672 247.194ZM120.328 247.194L126.166 250.573H126.166L120.328 247.194ZM219.616 136.692L285.51 22.8113L273.834 16.0551L207.939 129.936L219.616 136.692ZM275.152 4.87582H124.848V18.366H275.152V4.87582ZM114.49 22.8113L180.384 136.692L192.061 129.936L126.166 16.0551L114.49 22.8113ZM124.848 4.87582C115.661 4.87582 109.866 14.8201 114.49 22.8113L126.166 16.0551C126.772 17.102 126 18.366 124.848 18.366V4.87582ZM285.51 22.8113C290.134 14.8201 284.339 4.87582 275.152 4.87582V18.366C274 18.366 273.228 17.1021 273.834 16.0551L285.51 22.8113ZM207.939 136.692L273.834 250.573L285.51 243.816L219.616 129.936L207.939 136.692ZM275.152 248.262H124.848V261.752H275.152V248.262ZM126.166 250.573L192.061 136.692L180.384 129.936L114.49 243.816L126.166 250.573ZM124.848 248.262C126 248.262 126.772 249.526 126.166 250.573L114.49 243.816C109.866 251.808 115.661 261.752 124.848 261.752V248.262ZM273.834 250.573C273.228 249.526 274 248.262 275.152 248.262V261.752C284.339 261.752 290.134 251.808 285.51 243.816L273.834 250.573Z" fill="white" mask="url(#path-1-outside-1_269_17169)"/>
<path d="M188.286 169.81C188.286 172.031 187.612 174.23 186.303 176.282C184.995 178.334 183.076 180.199 180.657 181.769C178.239 183.34 175.367 184.586 172.207 185.436C169.047 186.286 165.66 186.723 162.24 186.723" stroke="black" stroke-width="3.2691"/>
<path d="M211.603 169.664C211.603 171.885 212.276 174.084 213.585 176.136C214.894 178.188 216.813 180.053 219.231 181.623C221.65 183.194 224.521 184.44 227.682 185.29C230.842 186.14 234.229 186.577 237.649 186.577" stroke="black" stroke-width="3.2691"/>
<path d="M197.609 210.782C197.609 217.488 192.173 222.925 185.467 222.925C178.761 222.925 173.324 217.488 173.324 210.782C173.324 204.076 178.761 198.64 185.467 198.64C192.173 198.64 197.609 204.076 197.609 210.782Z" fill="white"/>
<path d="M191.071 210.549C191.071 213.515 188.666 215.919 185.7 215.919C182.734 215.919 180.33 213.515 180.33 210.549C180.33 207.583 182.734 205.178 185.7 205.178C188.666 205.178 191.071 207.583 191.071 210.549Z" fill="black"/>
<path d="M226.564 210.782C226.564 217.488 221.128 222.925 214.422 222.925C207.716 222.925 202.279 217.488 202.279 210.782C202.279 204.076 207.716 198.64 214.422 198.64C221.128 198.64 226.564 204.076 226.564 210.782Z" fill="white"/>
<path d="M220.026 210.549C220.026 213.515 217.621 215.919 214.655 215.919C211.689 215.919 209.285 213.515 209.285 210.549C209.285 207.583 211.689 205.178 214.655 205.178C217.621 205.178 220.026 207.583 220.026 210.549Z" fill="black"/>
<path d="M208.934 229.93C208.934 231.463 208.469 232.981 207.566 234.398C206.662 235.814 205.338 237.101 203.668 238.186C201.998 239.27 200.016 240.13 197.835 240.717C195.653 241.303 193.315 241.605 190.954 241.605" stroke="black" stroke-width="3.2691"/>
<path d="M226.125 230.228C226.125 232.557 224.306 234.444 222.062 234.444C219.819 234.444 218 232.557 218 230.228C218 227.899 219.819 226.011 222.062 226.011C224.306 226.011 226.125 227.899 226.125 230.228Z" fill="#855CF6"/>
<path d="M222.062 220L225.866 228.703H218.259L222.062 220Z" fill="#855CF6"/>
</svg>
