<svg width="36" height="45" viewBox="0 0 36 45" fill="none" xmlns="http://www.w3.org/2000/svg">
<g clip-path="url(#clip0_61_709)">
<path d="M31.4675 17.8168H29.2345V11.3151C29.2362 9.82566 28.9432 8.35077 28.3726 6.9763C27.802 5.60182 26.9652 4.35523 25.9108 3.30909C23.7748 1.18439 20.8915 -0.00732422 17.8869 -0.00732422C14.8824 -0.00732422 11.9991 1.18439 9.86305 3.30909C8.80863 4.35519 7.97172 5.60177 7.40103 6.97624C6.83034 8.35072 6.53729 9.82563 6.53893 11.3151V17.8168H4.53208C2.03312 17.8168 0 19.8494 0 22.3472V40.4696C0 42.9697 2.03312 44.9981 4.53208 44.9981H31.4675C33.9669 44.9981 36 42.9655 36 40.4696V22.3472C36 19.8494 33.9669 17.8168 31.4675 17.8168ZM2.19497 41.8829C2.14806 41.8083 2.10818 41.731 2.07065 41.6522C1.89508 41.283 1.80449 40.8788 1.80561 40.4696V22.3472C1.80398 21.9902 1.87293 21.6365 2.00847 21.3066C2.14401 20.9766 2.34343 20.6771 2.59512 20.4254C2.90803 20.1142 3.29178 19.8846 3.71301 19.7565C3.79901 19.7307 3.88674 19.7087 3.97618 19.6904C3.88642 19.7084 3.7987 19.7304 3.71301 19.7565C3.29178 19.8846 2.90803 20.1142 2.59512 20.4254C2.34306 20.6773 2.1434 20.9772 2.00777 21.3076C1.87214 21.6379 1.80326 21.9921 1.80514 22.3495V40.4696C1.80395 40.879 1.89454 41.2834 2.07018 41.6527C2.10771 41.7315 2.14946 41.8088 2.1945 41.8834C2.26186 41.995 2.33745 42.1014 2.42061 42.2018C2.4755 42.2687 2.53413 42.3329 2.59512 42.3942C2.71847 42.517 2.85325 42.6276 2.99762 42.7244C3.10684 42.7976 3.2213 42.8626 3.34007 42.9188C3.42008 42.9569 3.50197 42.9909 3.58541 43.0207C3.50196 42.9907 3.42007 42.9566 3.34007 42.9183C3.2213 42.8621 3.10684 42.7972 2.99762 42.724C2.85325 42.6271 2.71847 42.5165 2.59512 42.3938C2.53413 42.3324 2.4755 42.2683 2.42061 42.2013C2.33745 42.101 2.26186 41.9945 2.1945 41.8829H2.19497ZM27.1488 11.3156V17.8168H8.62553V11.3151C8.62553 6.2328 12.78 2.09819 17.8867 2.09819C22.9934 2.09819 27.1484 6.2328 27.1484 11.3151L27.1488 11.3156ZM9.00176 7.82013C9.11497 7.53238 9.24163 7.25171 9.38174 6.97811C9.24194 7.25139 9.11528 7.53207 9.00176 7.82013ZM23.7923 3.8327C23.6122 3.69213 23.4271 3.558 23.2369 3.43032C23.4271 3.55769 23.6122 3.69181 23.7923 3.8327ZM23.7126 1.9312C23.8865 2.03875 24.0574 2.15102 24.2253 2.26801C24.0561 2.15102 23.8852 2.03875 23.7126 1.9312ZM20.9603 2.31141C18.9647 1.65005 16.8106 1.65005 14.815 2.31141C14.3002 2.48319 13.801 2.69892 13.3227 2.95625C13.0522 3.10154 12.79 3.25877 12.536 3.42796C12.3456 3.55533 12.1603 3.68945 11.9801 3.83034C12.1603 3.68977 12.3456 3.55564 12.536 3.42796C12.79 3.25783 13.0522 3.10059 13.3227 2.95625C13.8005 2.69899 14.2993 2.48326 14.8136 2.31141C16.8092 1.65005 18.9633 1.65005 20.9589 2.31141C21.4729 2.4834 21.9713 2.69913 22.4488 2.95625C21.9718 2.6992 21.4738 2.48347 20.9603 2.31141ZM11.4576 4.27328C11.5701 4.17139 11.6852 4.07217 11.8028 3.97563C11.6855 4.07186 11.5705 4.17108 11.4576 4.27328ZM10.8116 4.91671C10.6577 5.08495 10.5103 5.25792 10.3692 5.4356C10.5106 5.25634 10.658 5.08338 10.8116 4.91671ZM8.66072 5.21672C8.74359 5.09093 8.82928 4.96765 8.91779 4.84689C8.8296 4.9686 8.74391 5.09187 8.66072 5.21672ZM31.4675 42.9004H4.53208C3.16087 42.9004 2.0866 41.8324 2.0866 40.4696V22.3472C2.0866 20.9844 3.16087 19.9164 4.53208 19.9164H31.4675C32.8391 19.9164 33.9134 20.9844 33.9134 22.3472V40.4696C33.9134 41.8324 32.8377 42.9004 31.4675 42.9004ZM33.76 20.8631C33.7891 20.9103 33.8163 20.9532 33.8426 20.9995C33.8163 20.9532 33.7891 20.9079 33.76 20.8631ZM3.97618 43.1287C3.88642 43.1108 3.7987 43.0887 3.71301 43.0626C3.79901 43.0887 3.88674 43.1108 3.97618 43.1287ZM28.3699 7.77249C28.3122 7.60172 28.2498 7.43238 28.1823 7.26539C28.2517 7.43238 28.3141 7.60172 28.3718 7.77249H28.3699ZM27.1615 5.28936C27.2262 5.38842 27.29 5.48843 27.3519 5.58985C27.2896 5.48843 27.2258 5.38842 27.1615 5.28936ZM25.7124 3.51051C25.5873 3.38472 25.4592 3.26302 25.3282 3.14541C25.4596 3.26396 25.5876 3.38551 25.7124 3.51004V3.51051ZM24.8352 2.72558C24.9346 2.8053 25.0331 2.88643 25.1298 2.96993C25.0331 2.88596 24.9346 2.80482 24.8352 2.7251V2.72558ZM22.2696 1.17928C22.0801 1.09784 21.8878 1.02126 21.6926 0.949558C21.8878 1.02189 22.0801 1.09846 22.2696 1.17928ZM18.474 0.298588C18.2798 0.28821 18.084 0.283021 17.8867 0.283021C18.0837 0.283021 18.2795 0.28821 18.474 0.298588ZM34.906 19.8532C34.9229 19.8763 34.9393 19.9004 34.9558 19.923C34.9393 19.9013 34.9229 19.8782 34.906 19.8551V19.8532Z" fill="#6C96F9"/>
<path d="M17.9997 25.2477C17.4257 25.2465 16.8571 25.3593 16.3266 25.5794C15.796 25.7996 15.3139 26.1229 14.9078 26.5308C14.1311 27.2996 13.6725 28.3353 13.6239 29.4301C13.5754 30.5249 13.9405 31.5976 14.646 32.4329C15.2466 33.1471 16.0564 33.652 16.9597 33.8754V36.517C16.9613 36.7938 17.0712 37.0588 17.2657 37.2546C17.4602 37.4504 17.7235 37.5613 17.9987 37.5633H18.003C18.2788 37.5628 18.5433 37.4526 18.7387 37.2568C18.934 37.061 19.0444 36.7954 19.0458 36.518V33.8735C19.9476 33.6488 20.756 33.1437 21.3557 32.4301C21.8866 31.7901 22.2248 31.0111 22.3306 30.1845C22.4364 29.358 22.3053 28.5182 21.9529 27.7639C21.6005 27.0097 21.0412 26.3722 20.341 25.9265C19.6407 25.4808 18.8284 25.2453 17.9997 25.2477ZM17.9997 31.9027C16.7134 31.9027 15.7057 30.9017 15.7057 29.6243C15.7057 28.378 16.6871 27.377 17.9396 27.3459H17.9997C19.286 27.3459 20.2936 28.3469 20.2936 29.6243C20.2936 30.9017 19.286 31.9027 17.9997 31.9027ZM16.4239 27.5917C15.9587 27.9496 15.6303 28.4578 15.4941 29.0307C15.3579 29.6037 15.4222 30.2063 15.6762 30.7371C15.4208 30.2065 15.3557 29.6035 15.492 29.0302C15.6283 28.4569 15.9575 27.9487 16.4239 27.5917ZM17.0371 32.0027C17.0047 31.99 16.9728 31.9763 16.9409 31.9621C16.9723 31.9763 17.0047 31.99 17.0371 32.0027ZM18.5171 37.077C18.5063 37.0864 18.4965 37.0963 18.4857 37.1053C18.4965 37.0973 18.5063 37.0873 18.5171 37.077ZM18.4603 37.1241C18.4491 37.1326 18.4383 37.1416 18.427 37.1491C18.4383 37.1425 18.4491 37.1336 18.4603 37.1241ZM18.3994 37.1661C18.3876 37.1732 18.3764 37.1807 18.3642 37.1874C18.3764 37.1817 18.389 37.1741 18.3994 37.1671V37.1661ZM18.3337 37.202C18.3215 37.2076 18.3098 37.2142 18.2976 37.2194C18.3098 37.2152 18.3215 37.2086 18.3337 37.2029V37.202ZM20.1388 28.1898C20.0919 28.1219 20.045 28.0558 19.9915 27.9926C20.0436 28.0558 20.0928 28.1219 20.1388 28.1898ZM14.5151 31.772C14.5428 31.8192 14.5719 31.8617 14.6014 31.9055C14.5719 31.8617 14.5423 31.8173 14.5151 31.772ZM16.3916 33.3872C15.7108 33.0944 15.1207 32.6231 14.6831 32.0225C15.1201 32.6228 15.7093 33.0941 16.3892 33.3872C16.5525 33.4574 16.7202 33.5168 16.8912 33.565C16.7203 33.5168 16.5528 33.4574 16.3897 33.3872H16.3916ZM17.9997 37.2798C18.0138 37.2798 18.0278 37.2798 18.0414 37.2798C18.0288 37.2798 18.0161 37.2798 18.003 37.2798H17.9997ZM18.2647 37.2326L18.2277 37.2463C18.2403 37.2421 18.2525 37.2369 18.2647 37.2322V37.2326ZM18.193 37.2553C18.1803 37.2586 18.1676 37.2624 18.1545 37.2647C18.1676 37.2619 18.1803 37.2581 18.193 37.2548V37.2553ZM18.1184 37.2704C18.1052 37.2704 18.0926 37.2751 18.079 37.2765C18.0926 37.2746 18.1076 37.2718 18.1184 37.2699V37.2704ZM18.5406 37.0576C18.5509 37.0473 18.5607 37.0359 18.5706 37.0251C18.5598 37.0355 18.5499 37.0468 18.5396 37.0572L18.5406 37.0576ZM18.7306 36.7444C18.7352 36.7284 18.739 36.7119 18.7432 36.6972C18.7381 36.7114 18.7343 36.7279 18.7296 36.7439L18.7306 36.7444ZM18.5898 37.0034C18.5992 36.9921 18.6081 36.9798 18.6166 36.9675C18.6072 36.9793 18.5983 36.9916 18.5889 37.0029L18.5898 37.0034ZM18.6339 36.9444C18.6424 36.9326 18.6494 36.9194 18.6569 36.9067C18.6485 36.9189 18.6414 36.9317 18.633 36.9439L18.6339 36.9444ZM18.6724 36.8817C18.6794 36.868 18.686 36.8543 18.6921 36.8402C18.685 36.8538 18.6785 36.8675 18.6705 36.8812L18.6724 36.8817ZM18.7047 36.8147C18.7108 36.8001 18.716 36.785 18.7212 36.7699C18.7174 36.7845 18.7099 36.7996 18.7038 36.8142L18.7047 36.8147ZM18.761 36.5953C18.7639 36.5693 18.7653 36.5432 18.7653 36.517C18.765 36.5431 18.7632 36.569 18.7601 36.5949L18.761 36.5953ZM18.7493 36.6713C18.7531 36.6538 18.7554 36.6359 18.7578 36.618C18.7545 36.6354 18.7521 36.6524 18.7484 36.6708L18.7493 36.6713ZM20.0839 33.1461C20.1843 33.0867 20.2819 33.0238 20.3767 32.9575C20.2813 33.0232 20.1834 33.0859 20.083 33.1457L20.0839 33.1461ZM20.516 32.8513C20.6098 32.7796 20.6961 32.7046 20.7815 32.6258C20.6952 32.7041 20.607 32.7791 20.515 32.8508L20.516 32.8513ZM20.9068 32.5046C20.9884 32.4225 21.0667 32.3367 21.1413 32.248C21.0658 32.3362 20.9874 32.4221 20.9058 32.5041L20.9068 32.5046ZM22.0617 30.1772C22.0777 30.0569 22.0889 29.9347 22.0945 29.8116C22.0889 29.9333 22.0777 30.0554 22.0617 30.1757V30.1772ZM21.4519 27.4218C21.4162 27.3662 21.3791 27.3119 21.3411 27.2586C21.3773 27.3124 21.4143 27.3648 21.45 27.4204L21.4519 27.4218ZM21.283 27.1789C21.2436 27.1261 21.2028 27.0747 21.161 27.0242C21.1193 26.9737 21.0756 26.9242 21.0315 26.8756C20.9874 26.827 20.9419 26.7813 20.8955 26.7341C20.9424 26.7813 20.9893 26.8284 21.0315 26.8756C21.0738 26.9228 21.1188 26.9737 21.161 27.0242C21.2032 27.0747 21.2417 27.1237 21.2811 27.1775L21.283 27.1789Z" fill="#6C96F9"/>
</g>
<defs>
<clipPath id="clip0_61_709">
<rect width="36" height="45" fill="white"/>
</clipPath>
</defs>
</svg>
