<svg width="44" height="43" viewBox="0 0 44 43" fill="none" xmlns="http://www.w3.org/2000/svg">
<g clip-path="url(#clip0_61_713)">
<path d="M39.5488 21.381H35.4896C35.2922 20.7557 34.9004 20.2097 34.3714 19.8223C33.8423 19.435 33.2034 19.2265 32.5477 19.2272C31.8921 19.227 31.2535 19.4357 30.7245 19.823C30.1955 20.2102 29.8037 20.756 29.6058 21.381H25.5477C25.3059 21.3868 25.076 21.4869 24.9071 21.6599C24.7381 21.8329 24.6436 22.0651 24.6436 22.3069C24.6436 22.5487 24.7381 22.781 24.9071 22.954C25.076 23.127 25.3059 23.2271 25.5477 23.2328H29.6037C29.6311 23.3211 29.6626 23.4072 29.6973 23.4913C29.9397 24.0767 30.3565 24.5732 30.891 24.9135C31.4255 25.2537 32.0518 25.421 32.6848 25.3928C33.3178 25.3646 33.9267 25.1421 34.4288 24.7556C34.9309 24.3692 35.3018 23.8375 35.4911 23.2328H39.5488C39.7906 23.2271 40.0205 23.127 40.1894 22.954C40.3583 22.781 40.4529 22.5487 40.4529 22.3069C40.4529 22.0651 40.3583 21.8329 40.1894 21.6599C40.0205 21.4869 39.7906 21.3868 39.5488 21.381ZM33.0189 23.4493C32.8339 23.526 32.633 23.5565 32.4336 23.5381C32.2342 23.5197 32.0423 23.4529 31.8744 23.3437C31.7066 23.2344 31.5679 23.0859 31.4704 22.911C31.3729 22.736 31.3195 22.54 31.3148 22.3398C31.3148 22.3287 31.3148 22.3172 31.3148 22.3061C31.3148 22.2951 31.3148 22.2799 31.3148 22.2673C31.3263 21.9483 31.4612 21.6462 31.6909 21.4245C31.9207 21.2029 32.2274 21.079 32.5467 21.079C32.8321 21.0786 33.1089 21.1772 33.3298 21.3581C33.5506 21.539 33.7018 21.791 33.7576 22.0709C33.8134 22.3509 33.7703 22.6416 33.6357 22.8933C33.5011 23.1451 33.2833 23.3423 33.0195 23.4514L33.0189 23.4493Z" fill="#6C96F9"/>
<path d="M43.4692 9.37455V3.6416C43.4669 2.67651 43.0825 1.75163 42.4 1.06921C41.7176 0.386783 40.7927 0.00235811 39.8276 0L4.11084 0C3.14575 0.00235811 2.22087 0.386783 1.53844 1.06921C0.856021 1.75163 0.471596 2.67651 0.469238 3.6416V39.3584C0.471734 40.3234 0.856204 41.2482 1.5386 41.9306C2.22099 42.613 3.14579 42.9975 4.11084 43H39.8276C40.7927 42.9975 41.7175 42.613 42.3999 41.9306C43.0823 41.2482 43.4667 40.3234 43.4692 39.3584V9.37455ZM2.32103 10.3102H41.6159V39.3579C41.6142 39.8322 41.425 40.2866 41.0897 40.622C40.7543 40.9574 40.2998 41.1465 39.8255 41.1482H4.11137C3.63696 41.1465 3.18247 40.9573 2.84706 40.6218C2.51165 40.2863 2.32256 39.8318 2.32103 39.3573V10.3102ZM2.32103 8.45837V3.64108C2.32283 3.16685 2.51205 2.71257 2.84743 2.37729C3.18281 2.04202 3.63714 1.85293 4.11137 1.85127H39.8276C40.3019 1.85307 40.7561 2.04229 41.0914 2.37767C41.4267 2.71304 41.6158 3.16738 41.6174 3.6416V8.45784L2.32103 8.45837ZM41.6684 2.86306C41.6942 2.92313 41.7168 2.9845 41.7362 3.04693C41.7171 2.98452 41.6949 2.92315 41.6694 2.86306H41.6684ZM41.369 2.36977C41.4509 2.46888 41.523 2.57567 41.5843 2.68865C41.5233 2.57571 41.4515 2.46893 41.37 2.36977H41.369ZM41.0989 2.10133C41.1483 2.1423 41.1956 2.18538 41.2408 2.23056C41.1956 2.18363 41.1483 2.14055 41.0989 2.10133ZM4.11084 0.210133H39.8276C40.23 0.210495 40.6292 0.281622 41.007 0.420266C41.1121 0.45879 41.2147 0.502217 41.3148 0.550548C41.415 0.598878 41.5122 0.651412 41.6064 0.708147C41.5119 0.651061 41.4147 0.598528 41.3148 0.550548C41.215 0.502568 41.1124 0.45914 41.007 0.420266C40.6292 0.281622 40.23 0.210495 39.8276 0.210133H4.11084ZM2.47601 0.625145C2.57319 0.572612 2.67301 0.524281 2.77597 0.480679C2.87894 0.437076 2.9861 0.398727 3.09117 0.365106C2.984 0.400128 2.87894 0.438652 2.77597 0.480679C2.6709 0.524281 2.57319 0.572087 2.47601 0.625145C2.37882 0.678204 2.28426 0.735465 2.19285 0.796929C2.28426 0.73564 2.37864 0.678379 2.47601 0.625145Z" fill="#6C96F9"/>
<path d="M8.90719 2.33302C8.30199 2.08228 7.6322 2.03279 6.99672 2.19188C6.36124 2.35097 5.79376 2.7102 5.37809 3.21651C4.96241 3.72283 4.72058 4.3494 4.68828 5.00369C4.65599 5.65798 4.83496 6.30532 5.19876 6.8501C5.56256 7.39489 6.0919 7.80824 6.70863 8.02913C7.32535 8.25003 7.99676 8.26674 8.62371 8.07681C9.25066 7.88687 9.79992 7.50036 10.1904 6.97435C10.5808 6.44834 10.7918 5.81072 10.7921 5.15563C10.7951 4.55084 10.6172 3.95897 10.2814 3.45601C9.94551 2.95305 9.46696 2.56198 8.90719 2.33302ZM8.19904 6.26513C7.97943 6.35639 7.73768 6.38045 7.50438 6.33426C7.27109 6.28808 7.05674 6.17372 6.88846 6.00567C6.72018 5.83762 6.60554 5.62342 6.55904 5.39019C6.51254 5.15696 6.53628 4.91517 6.62725 4.69544C6.71457 4.48423 6.86027 4.30229 7.04728 4.17092C7.23429 4.03954 7.45487 3.96418 7.68317 3.95367H7.73938C8.01735 3.95367 8.28672 4.05005 8.50159 4.2264C8.71645 4.40274 8.86353 4.64814 8.91774 4.92077C8.97196 5.1934 8.92996 5.47639 8.79891 5.72153C8.66786 5.96667 8.45586 6.15878 8.19904 6.26513ZM6.99341 6.35706C6.98658 6.35338 6.98027 6.34918 6.97397 6.34498C6.98342 6.34866 6.98973 6.35286 6.99656 6.35654L6.99341 6.35706ZM7.88752 2.31516C7.87596 2.31516 7.86441 2.31516 7.85285 2.31516C7.86493 2.31411 7.87649 2.31411 7.88805 2.31516H7.88752Z" fill="#6C96F9"/>
<path d="M15.2583 2.33302C14.6531 2.08228 13.9833 2.03279 13.3478 2.19188C12.7123 2.35097 12.1448 2.7102 11.7292 3.21651C11.3135 3.72283 11.0717 4.3494 11.0394 5.00369C11.0071 5.65798 11.186 6.30532 11.5498 6.8501C11.9136 7.39489 12.443 7.80824 13.0597 8.02913C13.6764 8.25003 14.3478 8.26674 14.9748 8.07681C15.6017 7.88687 16.151 7.50036 16.5414 6.97435C16.9319 6.44834 17.1429 5.81072 17.1432 5.15563C17.1462 4.55084 16.9683 3.95897 16.6325 3.45601C16.2966 2.95305 15.818 2.56198 15.2583 2.33302ZM14.548 6.26513C14.3284 6.35639 14.0866 6.38045 13.8534 6.33426C13.6201 6.28808 13.4057 6.17372 13.2374 6.00567C13.0692 5.83762 12.9545 5.62342 12.908 5.39019C12.8615 5.15696 12.8853 4.91517 12.9762 4.69544C13.0635 4.48427 13.2091 4.30235 13.396 4.17097C13.5829 4.0396 13.8034 3.96422 14.0316 3.95367H14.0878C14.3658 3.95354 14.6353 4.04984 14.8503 4.22615C15.0652 4.40245 15.2124 4.64785 15.2667 4.92051C15.321 5.19317 15.279 5.47622 15.1479 5.72142C15.0169 5.96661 14.8049 6.15876 14.548 6.26513ZM14.2402 2.31516C14.2286 2.31516 14.2171 2.31516 14.2055 2.31516C14.216 2.31411 14.2276 2.31411 14.2391 2.31516H14.2402Z" fill="#6C96F9"/>
<path d="M21.6098 2.33302C21.0046 2.08228 20.3348 2.03279 19.6994 2.19188C19.0639 2.35097 18.4964 2.7102 18.0807 3.21651C17.6651 3.72283 17.4232 4.3494 17.3909 5.00369C17.3586 5.65798 17.5376 6.30532 17.9014 6.8501C18.2652 7.39489 18.7945 7.80824 19.4113 8.02913C20.028 8.25003 20.6994 8.26674 21.3263 8.07681C21.9533 7.88687 22.5026 7.50036 22.893 6.97435C23.2835 6.44834 23.4944 5.81072 23.4947 5.15563C23.4977 4.55084 23.3199 3.95897 22.984 3.45601C22.6482 2.95305 22.1696 2.56198 21.6098 2.33302ZM20.9017 6.26513C20.7396 6.33258 20.5646 6.36372 20.3892 6.35634C20.2138 6.34897 20.0421 6.30326 19.8862 6.22244C19.7303 6.14161 19.594 6.02763 19.4869 5.8885C19.3798 5.74937 19.3044 5.58847 19.2662 5.4171C19.2279 5.24574 19.2276 5.06807 19.2653 4.89658C19.303 4.72509 19.3779 4.56394 19.4845 4.42446C19.5912 4.28498 19.7271 4.17056 19.8827 4.08922C20.0383 4.00789 20.2099 3.96162 20.3853 3.95367H20.4415C20.7195 3.95354 20.989 4.04984 21.2039 4.22615C21.4189 4.40245 21.566 4.64785 21.6203 4.92051C21.6746 5.19317 21.6327 5.47622 21.5016 5.72142C21.3706 5.96661 21.1585 6.15876 20.9017 6.26513ZM20.5902 2.31516C20.5786 2.31516 20.5665 2.31516 20.555 2.31516C20.567 2.31411 20.5791 2.31411 20.5896 2.31516H20.5902Z" fill="#6C96F9"/>
<path d="M38.3285 4.22949H24.8211C24.5756 4.22949 24.3402 4.32701 24.1666 4.5006C23.993 4.67419 23.8955 4.90963 23.8955 5.15513C23.8955 5.40062 23.993 5.63606 24.1666 5.80965C24.3402 5.98324 24.5756 6.08076 24.8211 6.08076H38.3285C38.574 6.08076 38.8094 5.98324 38.983 5.80965C39.1566 5.63606 39.2541 5.40062 39.2541 5.15513C39.2541 4.90963 39.1566 4.67419 38.983 4.5006C38.8094 4.32701 38.574 4.22949 38.3285 4.22949Z" fill="#6C96F9"/>
<path d="M5.10653 27.7901L5.06188 27.8163C4.5487 28.1146 4.17397 28.6034 4.0191 29.1764C3.86892 29.7311 3.93953 30.3223 4.2161 30.826L4.24447 30.8785L4.42308 31.1863C4.72159 31.6991 5.21032 32.0735 5.78316 32.2281C5.97157 32.279 6.16587 32.3048 6.36103 32.3048C6.75487 32.3044 7.14168 32.2004 7.48261 32.0032C7.54902 31.9655 7.62507 31.948 7.70129 31.9532C7.77752 31.9583 7.85055 31.9858 7.91128 32.0321L7.93597 32.0537C8.77712 32.8002 9.76094 33.3683 10.8279 33.7237L10.8474 33.7305C10.9149 33.7573 10.9736 33.8023 11.0169 33.8606C11.0602 33.9189 11.0865 33.9881 11.0927 34.0604V34.092C11.0948 34.6853 11.3315 35.2536 11.7512 35.673C12.1708 36.0924 12.7394 36.3287 13.3327 36.3304H13.691C14.2844 36.3298 14.8534 36.0942 15.2734 35.6751C15.6934 35.2559 15.9302 34.6874 15.9321 34.0941C15.9324 34.0158 15.9563 33.9395 16.0007 33.8751C16.0452 33.8107 16.108 33.7612 16.1811 33.7332L16.1989 33.7274C17.2646 33.3701 18.2474 32.8016 19.0882 32.0558C19.1603 31.9908 19.2539 31.9549 19.3509 31.9549C19.4199 31.9551 19.4876 31.9732 19.5474 32.0074C19.802 32.1546 20.0832 32.2501 20.3747 32.2886C20.6663 32.3271 20.9626 32.3077 21.2467 32.2316C21.5308 32.1555 21.7971 32.0241 22.0304 31.845C22.2637 31.666 22.4594 31.4427 22.6064 31.1879L22.6348 31.1391L22.785 30.8801C23.0814 30.3652 23.1614 29.7539 23.0076 29.1801C22.8537 28.6063 22.4786 28.117 21.9644 27.8195L21.9266 27.7974C21.8672 27.7525 21.8219 27.6916 21.7957 27.6218C21.7696 27.5521 21.7638 27.4763 21.779 27.4034C22.0023 26.303 22.0023 25.169 21.779 24.0686C21.7643 23.9952 21.7707 23.9191 21.7975 23.8492C21.8243 23.7793 21.8703 23.7184 21.9303 23.6736L21.9644 23.6536C22.2195 23.5068 22.4431 23.3111 22.6225 23.0777C22.8019 22.8444 22.9336 22.578 23.0099 22.2937C23.0863 22.0095 23.1059 21.713 23.0675 21.4211C23.0292 21.1293 22.9337 20.8479 22.7866 20.593L22.7262 20.488H22.7235L22.6053 20.2847C22.4584 20.0298 22.2627 19.8064 22.0293 19.6272C21.796 19.4481 21.5296 19.3167 21.2454 19.2407C20.9612 19.1647 20.6648 19.1455 20.3731 19.1842C20.0815 19.2228 19.8004 19.3187 19.5458 19.4662C19.4749 19.5066 19.393 19.5236 19.3119 19.515C19.2307 19.5063 19.1543 19.4723 19.0935 19.4179C18.252 18.6708 17.2679 18.1019 16.2005 17.7457C16.1234 17.7201 16.0564 17.6707 16.0092 17.6047C15.962 17.5386 15.937 17.4592 15.9378 17.378C15.936 16.7844 15.6995 16.2156 15.2798 15.7959C14.8601 15.3761 14.2914 15.1394 13.6978 15.1375H13.3401C12.7467 15.1392 12.1781 15.3756 11.7583 15.7949C11.3385 16.2142 11.1015 16.7825 11.099 17.3759C11.1 17.4571 11.075 17.5366 11.0278 17.6027C10.9806 17.6688 10.9135 17.7182 10.8363 17.7436C9.76921 18.1005 8.78519 18.6692 7.94333 19.4158C7.87089 19.4799 7.77742 19.5152 7.68066 19.515C7.61202 19.5151 7.54459 19.497 7.48524 19.4625C7.23041 19.3155 6.94911 19.22 6.6574 19.1817C6.36569 19.1434 6.06929 19.1629 5.78512 19.2392C5.50096 19.3154 5.2346 19.4469 5.00126 19.6261C4.76791 19.8053 4.57216 20.0287 4.42518 20.2836L4.24657 20.5909C4.09936 20.8458 4.00383 21.1271 3.96543 21.4189C3.92702 21.7107 3.94651 22.0072 4.02277 22.2914C4.09902 22.5756 4.23056 22.8421 4.40985 23.0754C4.58914 23.3088 4.81267 23.5046 5.06766 23.6515L5.09603 23.6678C5.15656 23.7116 5.20323 23.7719 5.23052 23.8414C5.2578 23.911 5.26455 23.9869 5.24995 24.0602C5.02852 25.1606 5.02852 26.2941 5.24995 27.3945C5.26626 27.4672 5.26143 27.5431 5.23602 27.6132C5.21061 27.6833 5.16568 27.7447 5.10653 27.7901ZM19.312 19.7241C19.3231 19.7241 19.3346 19.7241 19.3457 19.7241C19.3346 19.7236 19.3231 19.7231 19.312 19.722V19.7241ZM19.3472 31.7448C19.3357 31.7448 19.3246 31.7448 19.3131 31.7448C19.3225 31.7442 19.3336 31.7432 19.3451 31.7432L19.3472 31.7448ZM6.02429 21.1977C6.05006 21.1532 6.08435 21.1143 6.12518 21.0831C6.16601 21.0519 6.2126 21.0291 6.26227 21.0159C6.29515 21.0071 6.32907 21.0026 6.36313 21.0028C6.43059 21.0029 6.49679 21.021 6.55488 21.0553C6.96143 21.2918 7.43198 21.3947 7.90015 21.3495C8.36831 21.3042 8.81045 21.1131 9.1642 20.8032C9.81979 20.2217 10.5865 19.7792 11.4179 19.5024C11.863 19.3537 12.2501 19.0687 12.5244 18.6878C12.7986 18.3069 12.9461 17.8494 12.9461 17.3801V17.3454C12.9552 17.2488 12.9999 17.1589 13.0716 17.0934C13.1432 17.0279 13.2367 16.9913 13.3338 16.9908H13.6915C13.7947 16.9915 13.8935 17.0329 13.9664 17.106C14.0393 17.1791 14.0804 17.2779 14.0808 17.3811C14.0796 17.85 14.2262 18.3072 14.4997 18.688C14.7732 19.0688 15.1596 19.3537 15.6042 19.5024C16.4357 19.7792 17.2023 20.2217 17.8579 20.8032C18.2103 21.1146 18.6516 21.3075 19.1195 21.3546C19.5874 21.4017 20.0583 21.3007 20.4657 21.0658C20.5098 21.04 20.5586 21.0232 20.6092 21.0163C20.6599 21.0095 20.7114 21.0127 20.7608 21.0259C20.8102 21.0391 20.8565 21.062 20.897 21.0932C20.9375 21.1244 20.9714 21.1633 20.9968 21.2077L21.1754 21.515C21.2226 21.5975 21.238 21.6945 21.2187 21.7876C21.1993 21.8807 21.1465 21.9635 21.0703 22.0204L21.0309 22.0435C20.6248 22.2791 20.3029 22.6363 20.1106 23.0647C19.9183 23.4931 19.8654 23.971 19.9592 24.4311C20.1337 25.2889 20.1337 26.1731 19.9592 27.031C19.8655 27.4917 19.9188 27.9702 20.1115 28.3991C20.3043 28.8279 20.6268 29.1855 21.0336 29.4212L21.0735 29.4443C21.1495 29.501 21.2021 29.5835 21.2215 29.6763C21.2408 29.7691 21.2256 29.8658 21.1785 29.9481L21.1502 29.997L20.9989 30.2591C20.9731 30.3036 20.9389 30.3426 20.898 30.3737C20.8572 30.4049 20.8106 30.4278 20.7609 30.4409C20.7289 30.4495 20.6958 30.4539 20.6627 30.454C20.5934 30.4539 20.5253 30.4358 20.4651 30.4015C20.0582 30.1665 19.5877 30.0654 19.1202 30.1126C18.6527 30.1597 18.2118 30.3527 17.86 30.6642C17.2045 31.246 16.4381 31.6893 15.6069 31.9675C15.1621 32.1164 14.7754 32.4016 14.502 32.7827C14.2285 33.1637 14.082 33.6213 14.0834 34.0904C14.0824 34.1931 14.0411 34.2914 13.9682 34.3638C13.8953 34.4363 13.7969 34.4771 13.6941 34.4775H13.3364C13.2336 34.4774 13.1351 34.4365 13.0624 34.3638C12.9897 34.2912 12.9488 34.1926 12.9487 34.0899C12.9488 33.6206 12.8013 33.1631 12.5272 32.7823C12.253 32.4014 11.8661 32.1164 11.421 31.9675C10.5896 31.6895 9.823 31.2461 9.16735 30.6642C8.75585 30.2997 8.22459 30.0994 7.67488 30.1015H7.66648C7.27779 30.1018 6.89596 30.204 6.55908 30.3978C6.51502 30.4241 6.4661 30.4411 6.41528 30.448C6.36445 30.4549 6.31276 30.4514 6.26332 30.4377C6.21414 30.4249 6.16804 30.4023 6.12771 30.3714C6.08739 30.3404 6.05365 30.3017 6.02849 30.2576L5.84725 29.9439C5.80059 29.861 5.78552 29.764 5.80484 29.6708C5.82415 29.5776 5.87654 29.4945 5.95232 29.437L5.98962 29.4154C6.398 29.1799 6.72168 28.8215 6.91456 28.3913C7.10744 27.9611 7.15971 27.481 7.06392 27.0194C6.88951 26.1616 6.88951 25.2774 7.06392 24.4195C7.15793 23.9591 7.10477 23.4808 6.91198 23.0522C6.71919 22.6236 6.39652 22.2665 5.98962 22.0314L5.94602 22.0062C5.87167 21.9481 5.82062 21.8652 5.80211 21.7727C5.78361 21.6802 5.79888 21.5841 5.84515 21.5018L6.02429 21.1977ZM6.34947 30.6579C6.33213 30.6579 6.31532 30.6579 6.29694 30.6547C6.31532 30.6563 6.33213 30.6573 6.34947 30.6579ZM6.57852 30.6169C6.56223 30.6237 6.54594 30.629 6.52913 30.6342C6.54594 30.6269 6.56328 30.6237 6.57852 30.6169ZM6.50917 30.64C6.48669 30.6459 6.46389 30.6504 6.44088 30.6537C6.46442 30.6505 6.48775 30.6459 6.51075 30.64H6.50917ZM7.66648 30.3117H7.67646C7.65124 30.3117 7.62393 30.3117 7.60081 30.3117C7.62077 30.3117 7.64284 30.3117 7.66648 30.3117ZM7.53935 30.3159C7.51571 30.3159 7.49207 30.3201 7.4679 30.3227C7.49049 30.318 7.51413 30.3148 7.53777 30.3117L7.53935 30.3159ZM7.40801 30.3285C7.38437 30.3316 7.36021 30.3364 7.33604 30.3406C7.35863 30.3337 7.3828 30.329 7.40644 30.3259L7.40801 30.3285ZM7.27826 30.35C7.25409 30.3547 7.22993 30.361 7.20524 30.3668C7.22835 30.3584 7.25252 30.3521 7.27668 30.3474L7.27826 30.35ZM7.15008 30.3794C7.12539 30.3863 7.1007 30.3941 7.076 30.402C7.09912 30.3915 7.12381 30.3836 7.1485 30.3768L7.15008 30.3794ZM7.024 30.4178C6.99878 30.4262 6.97146 30.4362 6.94835 30.4456C6.97199 30.4335 6.9972 30.4236 7.02242 30.4167L7.024 30.4178ZM6.90107 30.4635C6.87375 30.475 6.84854 30.4871 6.82122 30.4997C6.84591 30.4845 6.87218 30.4724 6.89949 30.4609L6.90107 30.4635ZM20.4252 30.609C20.4032 30.5999 20.3818 30.5893 20.3611 30.5775C20.3817 30.5906 20.4031 30.6024 20.4252 30.6127V30.609ZM20.4951 30.6337C20.4778 30.6284 20.4615 30.6232 20.4426 30.6164C20.4597 30.6243 20.4772 30.6313 20.4951 30.6374V30.6337ZM20.5896 30.6537C20.6112 30.6537 20.6322 30.6573 20.6537 30.6579C20.6322 30.661 20.6112 30.66 20.5896 30.6573V30.6537ZM20.5135 30.6389C20.5361 30.645 20.5591 30.6497 20.5823 30.6531C20.5595 30.6509 20.5369 30.6474 20.5145 30.6426L20.5135 30.6389ZM20.8145 30.6389C20.7914 30.6447 20.7688 30.6489 20.7457 30.6526C20.7698 30.6521 20.7924 30.6479 20.8155 30.6421L20.8145 30.6389ZM20.7247 30.6547C20.7078 30.6547 20.6916 30.6547 20.6747 30.6579C20.6947 30.6605 20.7089 30.6594 20.7257 30.6579L20.7247 30.6547ZM21.1381 21.0364C21.1531 21.0559 21.1668 21.0765 21.1791 21.0979C21.167 21.0776 21.1537 21.0581 21.1391 21.0396L21.1381 21.0364ZM21.1244 21.0196C21.1134 21.0059 21.1013 20.9928 21.0892 20.9797C21.1024 20.996 21.115 21.0091 21.1255 21.0227L21.1244 21.0196ZM21.0745 20.9671C21.058 20.9507 21.0405 20.9355 21.022 20.9214C21.0408 20.9358 21.0587 20.9514 21.0756 20.9681L21.0745 20.9671ZM20.9626 20.883C20.9818 20.8938 21.0003 20.9059 21.0178 20.9193C21.0006 20.9063 20.9825 20.8945 20.9637 20.8841L20.9626 20.883ZM20.898 20.8504C20.9138 20.8573 20.929 20.8646 20.9442 20.8725C20.9301 20.8657 20.9148 20.8583 20.8991 20.8515L20.898 20.8504ZM20.6737 20.8016C20.6913 20.8016 20.7088 20.8026 20.7262 20.8047C20.7091 20.8032 20.6919 20.8027 20.6747 20.8032L20.6737 20.8016ZM20.7462 20.8074C20.7671 20.8101 20.7878 20.8141 20.8082 20.8194C20.7881 20.8145 20.7678 20.8108 20.7472 20.8084L20.7462 20.8074ZM20.814 20.8205C20.8362 20.8267 20.8581 20.8341 20.8796 20.8426C20.8584 20.8345 20.8369 20.8275 20.815 20.8215L20.814 20.8205ZM20.4462 20.8415C20.4625 20.8352 20.4793 20.8294 20.4956 20.8247C20.4809 20.8305 20.4641 20.8363 20.4478 20.8426L20.4462 20.8415ZM20.5166 20.8189C20.5371 20.8137 20.5577 20.8094 20.5786 20.8063C20.5583 20.8098 20.5381 20.8144 20.5182 20.82L20.5166 20.8189ZM20.5849 20.8053C20.6078 20.8025 20.6307 20.8011 20.6537 20.8011C20.6312 20.8016 20.6088 20.8033 20.5865 20.8063L20.5849 20.8053ZM20.3611 20.8814C20.3823 20.8696 20.404 20.8589 20.4263 20.8494C20.4045 20.8593 20.3833 20.8703 20.3627 20.8825L20.3611 20.8814ZM8.3762 21.0275C8.38618 21.0238 8.39669 21.0206 8.40667 21.0164L8.3762 21.0275ZM6.53229 20.8184C6.54857 20.8236 6.56538 20.8294 6.58167 20.8357C6.56328 20.8278 6.54647 20.8221 6.53018 20.8168L6.53229 20.8184ZM6.6011 20.8436C6.62283 20.8526 6.64389 20.8632 6.66414 20.8751C6.64326 20.8625 6.62149 20.8515 6.599 20.842L6.6011 20.8436ZM6.37311 20.7948C6.39594 20.7948 6.41874 20.7962 6.4414 20.799C6.41808 20.7956 6.39457 20.7937 6.37101 20.7932L6.37311 20.7948ZM6.44351 20.799C6.4667 20.8024 6.48967 20.8071 6.51232 20.8131C6.48901 20.8065 6.46533 20.8012 6.4414 20.7974L6.44351 20.799ZM6.20973 20.8142C6.23275 20.8083 6.25607 20.8038 6.2796 20.8005C6.2554 20.8032 6.23137 20.8072 6.20763 20.8126L6.20973 20.8142ZM6.30009 20.7984C6.31743 20.7984 6.33476 20.7953 6.35262 20.7948C6.33266 20.7937 6.31532 20.7948 6.30061 20.7969L6.30009 20.7984ZM6.35105 32.0936H6.38572H6.36365H6.35105ZM7.45635 31.7826C7.47736 31.7742 7.4989 31.7674 7.52044 31.7611C7.4968 31.7674 7.47526 31.7742 7.45635 31.7826ZM7.38017 31.8194C7.40072 31.8076 7.42194 31.7971 7.44374 31.7878C7.42123 31.797 7.3993 31.8075 7.37807 31.8194H7.38017ZM7.6691 31.7406C7.64645 31.7407 7.62383 31.7421 7.60134 31.7448C7.62296 31.7422 7.6447 31.7408 7.66648 31.7406H7.6691ZM7.59818 31.7453C7.57612 31.7484 7.55458 31.7527 7.53252 31.7579C7.55248 31.7527 7.57402 31.7484 7.59608 31.7453H7.59818ZM7.73582 31.7432C7.74976 31.7443 7.76361 31.7462 7.77732 31.749C7.76292 31.7462 7.74836 31.7442 7.73372 31.7432H7.73582ZM7.78836 31.75C7.80464 31.7532 7.82145 31.7569 7.83774 31.7616C7.81725 31.7569 7.80044 31.7532 7.78415 31.75H7.78836ZM8.08149 31.8945C8.06844 31.8826 8.05476 31.8713 8.04051 31.8609C8.05333 31.8715 8.0656 31.8827 8.07729 31.8945H8.08149ZM7.98273 31.8215C7.97338 31.8157 7.96374 31.8104 7.95383 31.8057C7.9616 31.8106 7.96913 31.8159 7.97642 31.8215H7.98273ZM19.2506 31.7527C19.2338 31.7558 19.2175 31.7595 19.2012 31.7642C19.2112 31.7595 19.2275 31.7558 19.2443 31.7527H19.2506ZM19.186 31.7684C19.1744 31.7721 19.1634 31.7752 19.1529 31.7794C19.1571 31.7752 19.1681 31.7721 19.1797 31.7684H19.186ZM19.5127 31.7642C19.5348 31.7703 19.5566 31.7777 19.5779 31.7863C19.5559 31.7776 19.5334 31.7702 19.5106 31.7642H19.5127ZM19.3619 31.7432C19.3851 31.7435 19.4083 31.745 19.4313 31.7479C19.4076 31.745 19.3837 31.7434 19.3598 31.7432H19.3619ZM19.4323 31.7479C19.4549 31.7511 19.4775 31.7558 19.5001 31.7611C19.4754 31.7558 19.4528 31.7511 19.4302 31.7479H19.4323ZM19.5899 31.791C19.6121 31.8004 19.6337 31.8111 19.6546 31.823C19.633 31.811 19.6107 31.8003 19.5878 31.791H19.5899ZM19.5758 19.6821C19.5542 19.6905 19.5332 19.6973 19.5117 19.7036C19.5322 19.6968 19.5532 19.69 19.5747 19.6816L19.5758 19.6821ZM19.6519 19.6453C19.6312 19.657 19.6098 19.6675 19.5878 19.6768C19.6094 19.6682 19.6304 19.6583 19.6509 19.6474L19.6519 19.6453ZM19.3619 19.7241C19.3851 19.7241 19.4076 19.7241 19.4308 19.7199C19.4066 19.722 19.384 19.7231 19.3609 19.7236L19.3619 19.7241ZM19.4329 19.7194C19.4552 19.7163 19.4773 19.7119 19.4991 19.7063C19.4776 19.7117 19.4558 19.7159 19.4339 19.7189L19.4329 19.7194ZM19.2963 19.7194C19.2815 19.7183 19.2667 19.7163 19.2522 19.7136C19.2664 19.7168 19.2807 19.7193 19.2952 19.721L19.2963 19.7194ZM19.1802 19.6968C19.1686 19.6937 19.1576 19.69 19.146 19.6858C19.1586 19.6916 19.1712 19.6952 19.1812 19.7L19.1802 19.6968ZM18.9916 19.6028C18.9779 19.5923 18.9643 19.5818 18.9511 19.5697C18.9664 19.5833 18.98 19.5949 18.9937 19.6043L18.9916 19.6028ZM8.03631 19.6007C8.05055 19.5904 8.06423 19.5793 8.07729 19.5676C8.06501 19.5805 8.05203 19.5928 8.03841 19.6043L8.03631 19.6007ZM7.73425 19.7173C7.75053 19.7173 7.76629 19.7136 7.78258 19.7105C7.76839 19.7173 7.75263 19.7194 7.73635 19.721L7.73425 19.7173ZM7.78415 19.7105C7.80096 19.7073 7.81725 19.7036 7.83353 19.6989C7.81935 19.7073 7.80306 19.711 7.78625 19.7141L7.78415 19.7105ZM7.90183 19.6763C7.91186 19.6727 7.92168 19.6684 7.93124 19.6637C7.92193 19.6697 7.91228 19.6751 7.90235 19.68L7.90183 19.6763ZM7.52201 19.6984C7.49997 19.6926 7.47837 19.6852 7.4574 19.6763C7.47764 19.6857 7.49854 19.6936 7.51991 19.7L7.52201 19.6984ZM7.67278 19.7194C7.64961 19.7193 7.62646 19.7179 7.60344 19.7152C7.62569 19.7191 7.64814 19.7217 7.67068 19.7231L7.67278 19.7194ZM7.60291 19.7152C7.57991 19.7119 7.55712 19.7073 7.53462 19.7015C7.55635 19.7085 7.57845 19.7143 7.60081 19.7189L7.60291 19.7152ZM7.44531 19.6711C7.42312 19.6618 7.40154 19.6511 7.3807 19.639C7.40059 19.6522 7.42129 19.6642 7.44269 19.6747L7.44531 19.6711Z" fill="#6C96F9"/>
<path d="M9.57001 29.6718C10.5672 30.6701 11.9065 31.2523 13.3167 31.3003H13.5179C14.979 31.2972 16.3805 30.7204 17.4207 29.6942C18.4608 28.6681 19.0565 27.2745 19.0794 25.8135C19.1023 24.3526 18.5507 22.941 17.5433 21.8827C16.5358 20.8244 15.1531 20.2039 13.6928 20.1549C13.6324 20.1549 13.5715 20.1517 13.5116 20.1517C12.4092 20.1521 11.3317 20.4792 10.4153 21.0919C9.49889 21.7045 8.78468 22.5751 8.36298 23.5936C7.94128 24.6121 7.83102 25.7327 8.04615 26.8139C8.26127 27.895 8.79212 28.8881 9.57158 29.6676L9.57001 29.6718ZM15.0266 29.1365C14.5197 29.362 13.9687 29.4714 13.4141 29.4567C12.8594 29.442 12.315 29.3036 11.8207 29.0517C11.3263 28.7997 10.8945 28.4405 10.5568 28.0003C10.219 27.5601 9.98384 27.05 9.86844 26.5072C9.75303 25.9645 9.7603 25.4029 9.88972 24.8633C10.0191 24.3238 10.2674 23.82 10.6165 23.3886C10.9655 22.9573 11.4065 22.6094 11.9072 22.3703C12.4079 22.1312 12.9557 22.007 13.5105 22.0067H13.6413C14.4835 22.0357 15.291 22.3495 15.9319 22.8966C16.5728 23.4438 17.0093 24.1921 17.1701 25.0193C17.3309 25.8466 17.2064 26.7039 16.8171 27.4513C16.4278 28.1986 15.7966 28.792 15.0266 29.1344V29.1365ZM10.9091 28.6821C10.865 28.6437 10.8219 28.6038 10.7793 28.5628C10.8213 28.6038 10.8644 28.6437 10.9086 28.6831L10.9091 28.6821ZM13.4832 29.6671C13.4412 29.6671 13.3997 29.6671 13.3577 29.6644C13.3971 29.666 13.4386 29.6671 13.4806 29.6671H13.4832ZM13.302 29.6618C13.2599 29.6618 13.2174 29.6566 13.1754 29.6529C13.2148 29.6566 13.2573 29.6592 13.2993 29.6618H13.302ZM13.1312 29.6492C13.0755 29.6434 13.0199 29.6371 12.9642 29.6292C13.0172 29.6371 13.0729 29.6434 13.1297 29.6492H13.1312ZM12.929 29.6235C12.8843 29.6166 12.8402 29.6093 12.7961 29.6014C12.8376 29.6093 12.8817 29.6166 12.9264 29.6235H12.929ZM12.742 29.5904C12.702 29.5825 12.6626 29.5741 12.6238 29.5646C12.66 29.5762 12.6994 29.5825 12.7393 29.5904H12.742ZM12.5728 29.5531C12.5203 29.5394 12.4641 29.5252 12.4105 29.5095C12.4614 29.5237 12.5161 29.5394 12.5702 29.5531H12.5728ZM12.401 29.5068C12.3485 29.4916 12.2991 29.4753 12.2487 29.458C12.2965 29.4753 12.3474 29.4916 12.3984 29.5068H12.401ZM12.1982 29.4401C12.1604 29.427 12.1231 29.4128 12.0853 29.3986C12.1205 29.4128 12.1578 29.427 12.1956 29.4401H12.1982ZM12.0333 29.3776C11.9907 29.3608 11.9487 29.3424 11.9067 29.3251C11.9461 29.3424 11.9881 29.3608 12.0307 29.3776H12.0333ZM11.8757 29.3104C11.8232 29.2867 11.7738 29.262 11.7239 29.2363C11.7717 29.261 11.8226 29.2867 11.8736 29.3104H11.8757ZM11.6813 29.2142C11.6445 29.1948 11.6078 29.1748 11.571 29.1538C11.6062 29.1748 11.6424 29.1948 11.6792 29.2142H11.6813ZM11.5237 29.1255C11.4869 29.1039 11.4507 29.0813 11.415 29.0587C11.4486 29.0813 11.4827 29.1034 11.5195 29.1255H11.5237ZM11.3756 29.034C11.3278 29.0031 11.28 28.971 11.2332 28.9374C11.2758 28.971 11.3236 29.0031 11.3714 29.034H11.3756ZM11.2059 28.9174C11.1681 28.8896 11.1308 28.8617 11.0935 28.8328C11.1266 28.8617 11.1639 28.8896 11.2017 28.9174H11.2059ZM11.0483 28.7976C11.0157 28.7714 10.9832 28.7451 10.9511 28.7167C10.9805 28.7446 11.0131 28.7714 11.0457 28.7976H11.0483ZM13.7075 29.6634C13.6476 29.666 13.5877 29.6676 13.5279 29.6676C13.5862 29.6676 13.6461 29.666 13.7075 29.6634ZM14.7104 29.4811C14.6521 29.5 14.5932 29.5174 14.5344 29.5336C14.5932 29.5174 14.6531 29.5 14.7104 29.4811ZM14.4955 29.5431C14.4477 29.5552 14.3999 29.5667 14.3521 29.5772C14.3989 29.5667 14.4467 29.5552 14.4955 29.5431ZM14.3027 29.5877C14.2428 29.5998 14.1829 29.6114 14.1231 29.6208C14.1803 29.6114 14.2418 29.5998 14.3017 29.5877H14.3027ZM14.1194 29.6214C14.0605 29.6303 14.0012 29.6377 13.9423 29.6445C14.0001 29.6377 14.0595 29.6287 14.1183 29.6214H14.1194ZM13.8919 29.6492C13.8431 29.6539 13.7942 29.6576 13.7453 29.6608C13.7932 29.6576 13.842 29.6539 13.8909 29.6492H13.8919ZM9.9556 21.7156C9.97609 21.6973 9.99658 21.6789 10.0176 21.6631C9.99763 21.6789 9.97767 21.6962 9.95665 21.7156H9.9556ZM10.4904 21.2964C10.5109 21.2828 10.5308 21.2686 10.5513 21.2555C10.5356 21.2686 10.5156 21.2828 10.4951 21.2964H10.4904ZM13.5279 20.3676H13.4569H13.5126H13.5279ZM13.2594 20.3734C13.2337 20.3734 13.2069 20.3766 13.1827 20.3782C13.2074 20.3755 13.2347 20.3734 13.2584 20.3724L13.2594 20.3734ZM12.856 20.4076C12.8218 20.4118 12.7882 20.417 12.754 20.4218C12.7871 20.416 12.8208 20.4107 12.8549 20.4065L12.856 20.4076ZM12.7231 20.426C12.6784 20.4323 12.6343 20.4396 12.5901 20.4475C12.6332 20.4386 12.6773 20.4312 12.722 20.4249L12.7231 20.426ZM12.5655 20.4517C12.5292 20.4585 12.4935 20.4648 12.4578 20.4722C12.493 20.4638 12.5287 20.4575 12.5649 20.4506L12.5655 20.4517ZM12.1431 20.5457C12.1179 20.5526 12.0906 20.5589 12.0669 20.5662C12.0916 20.5578 12.1173 20.5515 12.1426 20.5447L12.1431 20.5457ZM12.0128 20.582C11.9881 20.5893 11.9629 20.5962 11.9382 20.604C11.9624 20.593 11.9876 20.5883 12.0123 20.5809L12.0128 20.582ZM10.8371 21.0831C10.8581 21.0711 10.8791 21.059 10.9007 21.0474C10.8786 21.0579 10.8576 21.07 10.8366 21.0821L10.8371 21.0831ZM9.81691 21.8433C9.78434 21.8743 9.75177 21.9058 9.71973 21.9384C9.75177 21.9063 9.78434 21.8743 9.81691 21.8433Z" fill="#6C96F9"/>
<path d="M25.5472 16.3962H34.4484C34.4752 16.4829 34.5062 16.5674 34.5404 16.6499C34.8179 17.3215 35.3232 17.8737 35.9676 18.2096C36.6119 18.5455 37.354 18.6435 38.0635 18.4864C38.7729 18.3293 39.4043 17.9272 39.8467 17.3508C40.289 16.7743 40.514 16.0603 40.4822 15.3344C40.4503 14.6085 40.1635 13.917 39.6723 13.3815C39.1811 12.8461 38.5169 12.5009 37.7964 12.4066C37.076 12.3123 36.3453 12.475 35.7329 12.8661C35.1205 13.2572 34.6655 13.8516 34.4479 14.5449H25.5472C25.3017 14.5449 25.0663 14.6424 24.8927 14.816C24.7191 14.9896 24.6216 15.2251 24.6216 15.4706C24.6216 15.716 24.7191 15.9515 24.8927 16.1251C25.0663 16.2987 25.3017 16.3962 25.5472 16.3962ZM37.8636 16.6095C37.7138 16.6717 37.5531 16.7038 37.3908 16.704C37.0652 16.7042 36.7527 16.5753 36.5218 16.3456C36.2909 16.1159 36.1605 15.8041 36.1589 15.4784V15.4621C36.1605 15.2393 36.2225 15.0211 36.3382 14.8307C36.4539 14.6403 36.6191 14.4848 36.8161 14.3807C37.0132 14.2767 37.2347 14.228 37.4573 14.2398C37.6798 14.2516 37.8949 14.3235 38.0798 14.4478C38.2647 14.5722 38.4125 14.7443 38.5074 14.9459C38.6023 15.1475 38.6408 15.3711 38.6188 15.5928C38.5968 15.8146 38.5151 16.0262 38.3824 16.2052C38.2497 16.3842 38.071 16.5239 37.8652 16.6095H37.8636ZM35.5553 13.2621C35.5648 13.2537 35.5748 13.2458 35.5847 13.2379C35.5732 13.2421 35.5616 13.25 35.5537 13.2584L35.5553 13.2621ZM35.7912 13.0834C35.8017 13.0761 35.8127 13.0693 35.8238 13.0624C35.8112 13.0677 35.8001 13.0745 35.7896 13.0808L35.7912 13.0834Z" fill="#6C96F9"/>
<path d="M27.7036 32.2333C28.3598 32.2328 28.9988 32.0232 29.5278 31.635C30.0568 31.2467 30.4483 30.7 30.6455 30.0742H39.5488C39.7906 30.0684 40.0205 29.9683 40.1894 29.7953C40.3583 29.6223 40.4529 29.3901 40.4529 29.1483C40.4529 28.9064 40.3583 28.6742 40.1894 28.5012C40.0205 28.3282 39.7906 28.2281 39.5488 28.2224H30.646C30.4496 27.596 30.0583 27.0488 29.5291 26.6604C28.9999 26.2721 28.3605 26.0628 27.7041 26.0633C27.2956 26.0579 26.8901 26.1338 26.5112 26.2864C26.1322 26.4391 25.7873 26.6655 25.4965 26.9525C25.2058 27.2395 24.9749 27.5813 24.8173 27.9583C24.6598 28.3352 24.5786 28.7397 24.5786 29.1483C24.5786 29.5568 24.6598 29.9613 24.8173 30.3382C24.9749 30.7152 25.2058 31.0571 25.4965 31.3441C25.7873 31.6311 26.1322 31.8575 26.5112 32.0101C26.8901 32.1627 27.2956 32.2386 27.7041 32.2333H27.7036ZM28.1764 30.2895C27.9318 30.3911 27.6609 30.4113 27.4039 30.3471C27.1469 30.2829 26.9174 30.1377 26.7492 29.9331C26.5811 29.7284 26.4832 29.475 26.4701 29.2105C26.457 28.9459 26.5293 28.6841 26.6764 28.4638C26.8235 28.2435 27.0376 28.0764 27.287 27.9871C27.5364 27.8978 27.8079 27.8911 28.0614 27.968C28.3149 28.0448 28.5369 28.2012 28.6947 28.414C28.8525 28.6268 28.9377 28.8847 28.9376 29.1496C28.9375 29.3935 28.8651 29.632 28.7295 29.8348C28.5939 30.0376 28.4013 30.1957 28.1759 30.289L28.1764 30.2895ZM26.8647 26.4016C26.8767 26.3974 26.8894 26.3942 26.9014 26.3905C26.8867 26.3926 26.8741 26.3958 26.862 26.4L26.8647 26.4016Z" fill="#6C96F9"/>
<path d="M39.5488 35.0654H35.4922C35.3564 34.6354 35.1285 34.2402 34.8243 33.9074C34.52 33.5746 34.1468 33.3122 33.7308 33.1385C33.335 32.9737 32.9093 32.8933 32.4807 32.9023C32.0521 32.9113 31.6301 33.0097 31.2417 33.191C30.8533 33.3723 30.507 33.6327 30.2248 33.9554C29.9427 34.2782 29.731 34.6562 29.6032 35.0654H25.5477C25.3059 35.0712 25.076 35.1712 24.9071 35.3442C24.7381 35.5173 24.6436 35.7495 24.6436 35.9913C24.6436 36.2331 24.7381 36.4653 24.9071 36.6383C25.076 36.8114 25.3059 36.9114 25.5477 36.9172H29.6064C29.6337 37.0023 29.6636 37.0858 29.6973 37.1667C29.9293 37.7313 30.3242 38.214 30.8317 38.5531C31.3392 38.8923 31.9363 39.0726 32.5467 39.0711H32.6197C33.2621 39.0547 33.8834 38.8385 34.3972 38.4524C34.9109 38.0664 35.2915 37.5297 35.4859 36.9172H39.5488C39.7906 36.9114 40.0205 36.8114 40.1894 36.6383C40.3583 36.4653 40.4529 36.2331 40.4529 35.9913C40.4529 35.7495 40.3583 35.5173 40.1894 35.3442C40.0205 35.1712 39.7906 35.0712 39.5488 35.0654ZM33.0174 37.1279C32.8329 37.2038 32.6329 37.2339 32.4342 37.2156C32.2356 37.1972 32.0445 37.131 31.8771 37.0225C31.7097 36.914 31.5712 36.7665 31.4733 36.5928C31.3755 36.419 31.3212 36.224 31.3153 36.0247C31.3153 36.0136 31.3153 36.0026 31.3153 35.9921C31.3153 35.9816 31.3153 35.9611 31.3153 35.9453C31.3262 35.6256 31.4608 35.3225 31.6909 35.1002C31.9209 34.8778 32.2283 34.7534 32.5482 34.7533C32.8344 34.7524 33.112 34.8509 33.3336 35.0321C33.5551 35.2133 33.7068 35.4658 33.7627 35.7465C33.8185 36.0272 33.7751 36.3185 33.6398 36.5707C33.5045 36.8229 33.2858 37.0202 33.021 37.1289L33.0174 37.1279Z" fill="#6C96F9"/>
</g>
<defs>
<clipPath id="clip0_61_713">
<rect width="43" height="43" fill="white" transform="translate(0.469238)"/>
</clipPath>
</defs>
</svg>
