<svg width="50" height="40" viewBox="0 0 50 40" fill="none" xmlns="http://www.w3.org/2000/svg">
<g clip-path="url(#clip0_61_662)">
<path fill-rule="evenodd" clip-rule="evenodd" d="M7.02988 18.9237V20.9847H9.32749V18.9237H7.02988ZM7.02988 18.9237V20.9847H9.32749V18.9237H7.02988ZM7.02988 18.9237V20.9847H9.32749V18.9237H7.02988ZM7.02988 18.9237V20.9847H9.32749V18.9237H7.02988ZM7.02988 18.9237V20.9847H9.32749V18.9237H7.02988ZM7.02988 18.9237V20.9847H9.32749V18.9237H7.02988ZM7.02988 18.9237V20.9847H9.32749V18.9237H7.02988ZM7.02988 18.9237V20.9847H9.32749V18.9237H7.02988ZM49.0173 1.19881L48.9088 1.09033C48.5667 0.744927 48.1596 0.470724 47.7109 0.283577C47.2622 0.0964288 46.7808 4.79501e-05 46.2946 5.07727e-06H12.742C11.814 -0.00153604 10.9197 0.347807 10.2386 0.977947L10.1267 1.08978C9.78071 1.43135 9.50608 1.83831 9.31884 2.28698C9.1316 2.73565 9.03549 3.21706 9.0361 3.70321V15.0969H2.63264C1.93532 15.0976 1.26672 15.3746 0.77328 15.8672C0.279837 16.3597 0.00177546 17.0277 0 17.7248L0 37.3681C0.00352762 38.065 0.282027 38.7324 0.77498 39.2252C1.26793 39.7181 1.93551 39.9965 2.63264 40H13.7247C14.4226 39.9991 15.0917 39.7215 15.5851 39.2281C16.0785 38.7347 16.3561 38.0658 16.3568 37.3681V29.5284H25.5697V33.5486H22.013V35.6096H37.0219V33.5486H33.4653V29.5284H46.2924C47.2747 29.5272 48.2165 29.1365 48.9112 28.4421C49.6058 27.7477 49.9966 26.8061 49.9978 25.824V3.70657C49.9999 2.77678 49.6495 1.88073 49.0173 1.19881ZM14.2947 37.4369L14.2454 37.4861L13.8427 37.8892L13.7935 37.9384H2.63152C2.5563 37.9393 2.48167 37.9251 2.41202 37.8967C2.34236 37.8683 2.27908 37.8262 2.22589 37.7731C2.1727 37.7199 2.13067 37.6566 2.10226 37.587C2.07386 37.5174 2.05965 37.4428 2.06047 37.3676V17.6572L2.10969 17.608L2.51295 17.2048L2.56217 17.1556H13.7236C13.7987 17.1548 13.8732 17.169 13.9427 17.1973C14.0123 17.2256 14.0755 17.2674 14.1286 17.3204C14.1818 17.3734 14.2239 17.4365 14.2524 17.5059C14.2809 17.5754 14.2953 17.6498 14.2947 17.7248V37.4369ZM12.9797 15.0633C12.7202 15.0633 12.4551 15.0706 12.1743 15.0784C11.8802 15.0868 11.5759 15.0952 11.2638 15.0952H11.096V3.70377C11.1047 3.42971 11.1736 3.16091 11.2979 2.9165C11.4025 2.7057 11.5049 2.57262 11.6027 2.52006C11.908 2.2257 12.3156 2.06115 12.7398 2.06101H46.2924C46.5665 2.06907 46.8355 2.13781 47.0799 2.2623C47.2913 2.36686 47.4244 2.46918 47.477 2.56703C47.7714 2.87226 47.936 3.27973 47.9362 3.70377V21.5019H16.3563V21.3341V17.7265C16.3563 17.3816 16.288 17.0402 16.1555 16.7218C16.0229 16.4034 15.8286 16.1143 15.5839 15.8713C14.9149 15.2009 14.0586 15.0633 12.9797 15.0633ZM31.4032 33.5486H27.6296V29.5278H31.4026L31.4032 33.5486ZM47.4289 27.0391C47.1554 27.3242 46.7717 27.4685 46.2901 27.469H16.3563V23.5629H47.9356V23.7306C47.9356 23.9079 47.9434 24.1052 47.9513 24.3138C47.9882 25.2504 48.0307 26.4162 47.4289 27.0391ZM7.02988 20.9847H9.32749V18.9237H7.02988V20.9847ZM7.02988 18.9237V20.9847H9.32749V18.9237H7.02988ZM7.02988 18.9237V20.9847H9.32749V18.9237H7.02988ZM7.02988 18.9237V20.9847H9.32749V18.9237H7.02988ZM7.02988 18.9237V20.9847H9.32749V18.9237H7.02988ZM7.02988 18.9237V20.9847H9.32749V18.9237H7.02988ZM7.02988 18.9237V20.9847H9.32749V18.9237H7.02988Z" fill="#6C96F9"/>
</g>
<defs>
<clipPath id="clip0_61_662">
<rect width="50" height="40" fill="white"/>
</clipPath>
</defs>
</svg>
