<svg width="39" height="41" viewBox="0 0 39 41" fill="none" xmlns="http://www.w3.org/2000/svg">
<g clip-path="url(#clip0_61_515)">
<path d="M37.8529 19.361H16.6328C16.596 19.3623 16.5593 19.366 16.5229 19.3721C16.2584 17.9311 15.4931 16.628 14.3604 15.6897C13.2276 14.7515 11.7992 14.2375 10.324 14.2375C8.84886 14.2375 7.42045 14.7515 6.28769 15.6897C5.15493 16.628 4.38963 17.9311 4.12515 19.3721C4.09111 19.3721 4.05562 19.361 4.02207 19.361H1.15357C0.853413 19.3671 0.567635 19.4898 0.357544 19.7028C0.147453 19.9157 0.0297852 20.2019 0.0297852 20.5C0.0297852 20.7981 0.147453 21.0843 0.357544 21.2972C0.567635 21.5102 0.853413 21.6329 1.15357 21.639H4.02207C4.05663 21.6374 4.09105 21.6337 4.12515 21.6279C4.66481 24.5484 7.23431 26.7642 10.324 26.7642C11.7994 26.763 13.2276 26.2483 14.3602 25.3096C15.4928 24.3708 16.2581 23.0675 16.5229 21.6265C16.5565 21.6265 16.5968 21.6376 16.6328 21.6376H37.8529C38.1531 21.6314 38.4389 21.5087 38.649 21.2958C38.859 21.0829 38.9767 20.7966 38.9767 20.4986C38.9767 20.2005 38.859 19.9143 38.649 19.7013C38.4389 19.4884 38.1531 19.3657 37.8529 19.3595V19.361ZM10.324 24.4862C9.52991 24.4863 8.7536 24.2525 8.09327 23.8145C7.43295 23.3765 6.91827 22.754 6.61433 22.0255C6.31038 21.2971 6.23083 20.4955 6.38574 19.7222C6.54064 18.9488 6.92303 18.2385 7.48456 17.6809C8.04609 17.1234 8.76153 16.7437 9.54039 16.5899C10.3193 16.4361 11.1266 16.5151 11.8602 16.8169C12.5939 17.1187 13.2209 17.6297 13.662 18.2853C14.1032 18.941 14.3386 19.7118 14.3385 20.5002C14.3371 21.5569 13.9137 22.57 13.1611 23.3172C12.4086 24.0644 11.3883 24.4848 10.324 24.4862Z" fill="#6C96F9"/>
<path d="M37.8531 5.12528H32.1161C32.0792 5.12636 32.0425 5.13007 32.0062 5.13638C31.7417 3.69542 30.9764 2.39227 29.8437 1.454C28.7109 0.515737 27.2825 0.00183105 25.8073 0.00183105C24.3321 0.00183105 22.9037 0.515737 21.771 1.454C20.6382 2.39227 19.8729 3.69542 19.6084 5.13638C19.5744 5.13638 19.5389 5.12528 19.5053 5.12528H1.14692C0.842735 5.12528 0.551012 5.24525 0.335924 5.45881C0.120835 5.67237 0 5.96202 0 6.26404C0 6.56606 0.120835 6.85571 0.335924 7.06927C0.551012 7.28284 0.842735 7.40281 1.14692 7.40281H19.4995C19.5341 7.40129 19.5685 7.39758 19.6026 7.39171C20.1427 10.3122 22.7142 12.528 25.802 12.528C27.2772 12.527 28.7054 12.0125 29.8381 11.0741C30.9707 10.1356 31.7362 8.83261 32.0013 7.39171C32.0349 7.39171 32.0752 7.40281 32.1107 7.40281H37.8477C38.1519 7.40281 38.4436 7.28284 38.6587 7.06927C38.8738 6.85571 38.9947 6.56606 38.9947 6.26404C38.9947 5.96202 38.8738 5.67237 38.6587 5.45881C38.4436 5.24525 38.1519 5.12528 37.8477 5.12528H37.8531ZM25.8093 10.25C25.0151 10.2501 24.2388 10.0163 23.5785 9.57834C22.9182 9.14035 22.4035 8.51776 22.0995 7.78932C21.7956 7.06088 21.7161 6.2593 21.871 5.48597C22.0259 4.71264 22.4083 4.00228 22.9698 3.44474C23.5313 2.8872 24.2467 2.50752 25.0256 2.35372C25.8045 2.19992 26.6118 2.27891 27.3454 2.58069C28.0791 2.88247 28.7061 3.39349 29.1473 4.04913C29.5884 4.70477 29.8238 5.47556 29.8237 6.26404C29.8224 7.32079 29.3991 8.33388 28.6465 9.08111C27.8939 9.82834 26.8736 10.2487 25.8093 10.25Z" fill="#6C96F9"/>
<path d="M37.8529 33.5982H34.9844C34.9476 33.5996 34.9109 33.6033 34.8745 33.6093C34.61 32.1684 33.8447 30.8652 32.712 29.927C31.5792 28.9887 30.1508 28.4748 28.6756 28.4748C27.2005 28.4748 25.772 28.9887 24.6393 29.927C23.5065 30.8652 22.7412 32.1684 22.4767 33.6093C22.4432 33.6093 22.4072 33.5982 22.3737 33.5982H1.14673C0.846577 33.6044 0.560799 33.7271 0.350708 33.94C0.140617 34.1529 0.0229492 34.4392 0.0229492 34.7372C0.0229492 35.0353 0.140617 35.3215 0.350708 35.5345C0.560799 35.7474 0.846577 35.8701 1.14673 35.8763H22.3673C22.4019 35.8747 22.4363 35.871 22.4704 35.8652C23.0101 38.7857 25.5796 41.001 28.6693 41.001C30.1446 41 31.5729 40.4855 32.7056 39.547C33.8383 38.6084 34.6038 37.3052 34.8687 35.8642C34.9022 35.8642 34.9426 35.8753 34.9786 35.8753H37.8471C38.1472 35.8692 38.433 35.7465 38.6431 35.5335C38.8532 35.3206 38.9708 35.0344 38.9708 34.7363C38.9708 34.4382 38.8532 34.152 38.6431 33.939C38.433 33.7261 38.1472 33.6034 37.8471 33.5973L37.8529 33.5982ZM28.6766 38.7225C27.8825 38.7225 27.1062 38.4888 26.4459 38.0509C25.7856 37.6129 25.2709 36.9903 24.9669 36.2619C24.663 35.5335 24.5834 34.7319 24.7383 33.9586C24.8931 33.1853 25.2755 32.4749 25.837 31.9174C26.3984 31.3598 27.1138 30.9801 27.8927 30.8263C28.6715 30.6724 29.4788 30.7513 30.2125 31.053C30.9461 31.3547 31.5732 31.8657 32.0144 32.5213C32.4556 33.1768 32.6911 33.9476 32.6911 34.736C32.6898 35.7928 32.2664 36.806 31.5139 37.5533C30.7613 38.3006 29.7409 38.721 28.6766 38.7225Z" fill="#6C96F9"/>
</g>
<defs>
<clipPath id="clip0_61_515">
<rect width="39" height="41" fill="white"/>
</clipPath>
</defs>
</svg>
