<svg width="39" height="45" viewBox="0 0 39 45" fill="none" xmlns="http://www.w3.org/2000/svg">
<g clip-path="url(#clip0_61_500)">
<path d="M38.2536 6.32195L19.9848 0.0574917H19.9446C19.9118 0.0608374 19.8786 0.0574628 19.8472 0.0475755C19.8157 0.0376882 19.7866 0.0214975 19.7616 0L19.3694 0L19.3454 0.0250195L19.3138 0.0574917H19.2282L0.837381 6.32355H0.833635C0.32104 6.47846 0 6.93786 0 7.52289V20.9738C0.00369201 25.6544 1.35003 30.2368 3.88084 34.1825C6.42081 38.1596 10.009 41.2976 14.2521 43.2571C15.8455 43.9864 17.5099 44.5511 19.2191 44.9425C19.2749 44.9453 19.33 44.9568 19.3823 44.9766C19.4163 44.9907 19.4525 44.9986 19.4893 45C19.5706 45.0089 19.6528 44.9929 19.7247 44.9542L19.7365 44.9484L19.7493 44.9452C21.4618 44.5536 23.1293 43.9879 24.7255 43.2571C28.9802 41.2652 32.5783 38.1112 35.1004 34.1628C37.6307 30.2242 38.9767 25.6481 38.9797 20.9738V7.51224V7.5016C39.0915 6.96501 38.6822 6.51466 38.2536 6.32195ZM36.5826 8.48321V20.9738C36.5826 29.5236 31.5417 37.3919 23.7409 41.0198C22.1785 41.7336 20.8516 42.185 19.5674 42.4406L19.5444 42.4448L19.5214 42.4395C17.9162 42.0551 16.5528 41.5878 15.3532 41.0192C7.55408 37.45 2.51482 29.5811 2.51482 20.9738V8.40762L2.58705 8.3826L19.5128 2.56157L19.5476 2.54933L19.5824 2.56157L36.5103 8.3826L36.5826 8.40762V8.48321Z" fill="#6C96F9"/>
<path d="M11.8037 21.8729C11.7609 21.883 11.7181 21.8947 11.6753 21.9086C11.7181 21.8947 11.7609 21.8825 11.8037 21.8729Z" fill="#6C96F9"/>
<path d="M27.8415 18.145L17.4527 28.4797C17.2451 28.6426 16.9299 28.8342 16.5966 28.8342C16.2798 28.8236 15.9775 28.7 15.7447 28.4861L11.2614 24.0257C10.8098 23.5226 10.8071 22.7795 11.255 22.3307C11.4956 22.1151 11.8076 21.9952 12.1314 21.9938C12.2851 21.9922 12.4377 22.0208 12.5802 22.0781C12.7227 22.1354 12.8524 22.2202 12.9619 22.3276L16.4799 25.8329L16.5939 25.9458L26.1352 16.4538C26.3756 16.2377 26.6877 16.1175 27.0117 16.1163C27.1647 16.1149 27.3165 16.1436 27.4583 16.2007C27.6002 16.2577 27.7293 16.3422 27.8383 16.449C28.291 16.9515 28.2926 17.6968 27.8415 18.145Z" fill="#6C96F9"/>
<path d="M26.3701 16.1057C26.4108 16.086 26.452 16.0679 26.4943 16.0524C26.452 16.0681 26.4106 16.0858 26.3701 16.1057Z" fill="#6C96F9"/>
</g>
<defs>
<clipPath id="clip0_61_500">
<rect width="39" height="45" fill="white"/>
</clipPath>
</defs>
</svg>
