<svg width="45" height="44" viewBox="0 0 45 44" fill="none" xmlns="http://www.w3.org/2000/svg">
<rect y="0.0693359" width="44.8276" height="43.0345" rx="16" fill="#FFF8EB"/>
<rect x="0.5" y="0.569336" width="43.8276" height="42.0345" rx="15.5" stroke="#FFA900" stroke-opacity="0.45"/>
<path d="M21.6033 9.81699C21.9701 9.07374 23.0299 9.07374 23.3967 9.81699L26.5288 16.1632C26.6744 16.4583 26.956 16.6629 27.2817 16.7102L34.2852 17.7279C35.1054 17.8471 35.4329 18.855 34.8394 19.4336L29.7716 24.3734C29.5359 24.6031 29.4284 24.9341 29.484 25.2585L30.6804 32.2337C30.8205 33.0506 29.963 33.6736 29.2294 33.2879L22.9653 29.9946C22.674 29.8415 22.326 29.8415 22.0347 29.9946L15.7706 33.2879C15.037 33.6736 14.1795 33.0506 14.3196 32.2337L15.516 25.2585C15.5716 24.9341 15.4641 24.6031 15.2284 24.3734L10.1606 19.4336C9.56711 18.855 9.89462 17.8471 10.7148 17.7279L17.7183 16.7102C18.044 16.6629 18.3256 16.4583 18.4712 16.1632L21.6033 9.81699Z" stroke="#FFD481" stroke-width="3"/>
</svg>
