<svg width="45" height="44" viewBox="0 0 45 44" fill="none" xmlns="http://www.w3.org/2000/svg">
<rect width="44.8276" height="43.0345" rx="16" fill="#FFF8EB"/>
<rect x="0.5" y="0.5" width="43.8276" height="42.0345" rx="15.5" stroke="#FFA900" stroke-opacity="0.45"/>
<path d="M18.38 31.61C18.08 32.13 17.71 32.43 17.27 32.51C16.83 32.59 16.42 32.52 16.04 32.3C15.66 32.08 15.39 31.76 15.23 31.34C15.09 30.9 15.17 30.43 15.47 29.93L26.24 11.27C26.54 10.75 26.91 10.45 27.35 10.37C27.79 10.27 28.2 10.33 28.58 10.55C28.96 10.77 29.22 11.1 29.36 11.54C29.5 11.96 29.43 12.42 29.15 12.92L18.38 31.61ZM14.6 23.45C12.86 23.45 11.51 22.87 10.55 21.71C9.59 20.53 9.11 18.95 9.11 16.97C9.11 14.99 9.59 13.42 10.55 12.26C11.53 11.1 12.88 10.52 14.6 10.52C16.32 10.52 17.66 11.11 18.62 12.29C19.6 13.45 20.09 15.01 20.09 16.97C20.09 18.95 19.6 20.53 18.62 21.71C17.66 22.87 16.32 23.45 14.6 23.45ZM14.6 20.57C15.18 20.57 15.63 20.29 15.95 19.73C16.29 19.15 16.46 18.23 16.46 16.97C16.46 15.71 16.29 14.81 15.95 14.27C15.63 13.71 15.18 13.43 14.6 13.43C14 13.43 13.54 13.7 13.22 14.24C12.9 14.78 12.74 15.69 12.74 16.97C12.74 18.27 12.9 19.2 13.22 19.76C13.54 20.3 14 20.57 14.6 20.57ZM30.05 32.33C28.31 32.33 26.96 31.75 26 30.59C25.04 29.41 24.56 27.82 24.56 25.82C24.56 23.84 25.04 22.28 26 21.14C26.98 19.98 28.33 19.4 30.05 19.4C31.77 19.4 33.11 19.98 34.07 21.14C35.05 22.3 35.54 23.86 35.54 25.82C35.54 27.82 35.06 29.41 34.1 30.59C33.14 31.75 31.79 32.33 30.05 32.33ZM30.05 29.42C30.65 29.42 31.11 29.14 31.43 28.58C31.75 28.02 31.91 27.1 31.91 25.82C31.91 24.58 31.74 23.68 31.4 23.12C31.08 22.56 30.63 22.28 30.05 22.28C29.45 22.28 28.99 22.55 28.67 23.09C28.35 23.63 28.19 24.54 28.19 25.82C28.19 27.12 28.35 28.05 28.67 28.61C28.99 29.15 29.45 29.42 30.05 29.42Z" fill="#FFA900" fill-opacity="0.45"/>
</svg>
