<svg width="45" height="44" viewBox="0 0 45 44" fill="none" xmlns="http://www.w3.org/2000/svg">
<rect y="0.034668" width="44.8276" height="43.0345" rx="16" fill="#FFF8EB"/>
<rect x="0.5" y="0.534668" width="43.8276" height="42.0345" rx="15.5" stroke="#FFA900" stroke-opacity="0.45"/>
<path d="M30.6014 21.204L27.5376 24.2956H25.9176C26.052 23.9138 26.1252 23.5032 26.1252 23.0759C26.1252 21.0606 24.4968 19.4168 22.5002 19.4168H16.6545L15.25 18.9446V16.9778C15.25 16.3041 14.709 15.7581 14.0417 15.7581H9.20832C8.54098 15.7581 8 16.3041 8 16.9778V34.0538C8 34.7275 8.54098 35.2735 9.20832 35.2735H14.0416C14.709 35.2735 15.2499 34.7275 15.2499 34.0538V32.8336H22.4471C25.868 32.8336 29.2178 31.8491 32.105 29.995L32.311 29.8283L35.7282 26.3777C37.14 24.9543 37.14 22.6289 35.728 21.2035C34.3159 19.7781 32.0122 19.7781 30.6014 21.204ZM12.8333 32.8341H10.4167V18.1975H12.8334V32.8341H12.8333ZM34.0197 24.6523L30.6975 28.0069C28.2231 29.5667 25.365 30.3942 22.4471 30.3942H15.2502V21.5158L16.0768 21.7937C16.1999 21.8351 16.3288 21.8562 16.4585 21.8562H22.5002C23.1621 21.8562 23.7086 22.4078 23.7086 23.0759C23.7086 23.7439 23.162 24.2956 22.5002 24.2956C20.8892 24.2956 20.8892 26.735 22.5002 26.735H28.0381C28.3585 26.735 28.6657 26.6065 28.8923 26.3779L32.3107 22.9285C32.7784 22.4559 33.5511 22.4559 34.0191 22.9283C34.4872 23.4008 34.4873 24.1809 34.0197 24.6523Z" fill="#FFD481"/>
<path d="M35.7915 6H26.1248C25.4575 6 24.9165 6.54609 24.9165 7.21974V16.9778C24.9165 17.6515 25.4575 18.1976 26.1248 18.1976H35.7915C36.4588 18.1976 36.9998 17.6515 36.9998 16.9778V7.21974C36.9998 6.54609 36.4588 6 35.7915 6ZM34.5831 15.7581H27.3331V8.43953H29.7498V10.8791C29.7498 11.5527 30.2908 12.0988 30.9581 12.0988C31.6255 12.0988 32.1664 11.5527 32.1664 10.8791V8.43953H34.5831V15.7581Z" fill="#FFD481"/>
</svg>
