<svg width="532" height="145" viewBox="0 0 532 145" fill="none" xmlns="http://www.w3.org/2000/svg">
<path d="M123.612 19.6436L67.7892 79.4112L67.6577 79.6742C66.3427 82.3042 64.9181 84.9781 63.3839 87.6958C61.8497 90.4573 60.1621 93.1312 58.3211 95.7174C56.48 98.3474 54.4637 100.824 52.272 103.147C50.1241 105.47 47.779 107.487 45.2366 109.196C42.6943 110.95 39.9327 112.33 36.952 113.339C33.9713 114.347 30.7714 114.851 27.3524 114.851C24.1963 114.851 21.128 114.303 18.1472 113.207C15.1665 112.155 12.5146 110.599 10.1914 108.539C7.91203 106.479 6.071 103.936 4.66831 100.912C3.26563 97.8872 2.56429 94.4243 2.56429 90.5231C2.56429 88.9451 2.7177 87.2355 3.02454 85.3945C3.37521 83.5973 3.83547 81.7782 4.40531 79.9372C5.01899 78.0962 5.72033 76.3209 6.50934 74.6114C7.34218 72.9018 8.21886 71.3676 9.13938 70.0088C15.1885 61.1543 23.6484 54.645 34.5192 50.4808C38.9026 48.8151 43.5052 47.5439 48.3269 46.6672C53.1486 45.7905 58.2115 45.3084 63.5154 45.2207L60.4908 52.5848C50.4967 53.1985 41.3573 55.5655 33.0727 59.6859C26.3223 63.1049 20.9307 67.5322 16.898 72.9676C12.8653 78.403 10.8489 83.8822 10.8489 89.4053C10.8489 91.9038 11.2434 94.2051 12.0324 96.3092C12.8653 98.457 14.0049 100.298 15.4515 101.832C16.9418 103.366 18.7171 104.572 20.7773 105.449C22.8375 106.325 25.0949 106.764 27.5496 106.764C30.3112 106.764 33.0289 106.238 35.7027 105.186C38.4204 104.177 41.0505 102.665 43.5928 100.649C46.1352 98.6762 48.5242 96.2434 50.7597 93.3504C53.0391 90.4573 55.1431 87.1479 57.0718 83.422C57.291 82.9836 57.6197 82.348 58.058 81.5152C58.5402 80.6385 59.2196 79.2139 60.0963 77.2414C61.0168 75.2689 62.2223 72.5512 63.7126 69.0883C65.203 65.6254 67.0878 61.0448 69.3672 55.3463C71.6904 49.6479 74.4739 42.6564 77.7176 34.3718C80.9613 26.0434 84.7967 16.0492 89.224 4.38939H97.5743L73.7068 63.9597L129.595 4.84965L129.792 4.38939H150.109L147.085 12.0822H135.513L106.319 84.5397H96.7853L123.612 19.6436ZM127.77 85C126.236 84.9123 124.942 84.5397 123.89 83.8822C122.838 83.1809 121.984 82.3042 121.326 81.2522C120.713 80.2002 120.296 79.0386 120.077 77.7674C119.858 76.4524 119.814 75.1374 119.945 73.8223C120.121 72.4635 120.45 71.1704 120.932 69.943C121.458 68.6719 122.159 67.5541 123.036 66.5897H131.189C130.224 67.7294 129.348 69.0664 128.559 70.6006C127.77 72.0909 127.222 73.5155 126.915 74.8744C126.608 76.1894 126.608 77.3071 126.915 78.2277C127.266 79.1482 128.099 79.5865 129.414 79.5427C130.816 78.9728 132.131 78.0962 133.359 76.9126C134.63 75.7291 135.791 74.3484 136.843 72.7703C137.939 71.1485 138.947 69.417 139.868 67.576C140.788 65.735 141.643 63.894 142.432 62.0529C143.221 60.1681 143.923 58.3709 144.536 56.6614C145.194 54.908 145.807 53.33 146.377 51.9273H138.356L141.643 45.155H172.875L163.736 69.68C162.508 72.6607 161.895 74.4141 161.895 74.9401C161.895 77.3948 163.977 78.6222 168.141 78.6222H178.135L175.439 85.1973H167.286C164.086 85.1973 161.916 85.0877 160.777 84.8685C159.637 84.6055 158.475 84.0137 157.292 83.0932C155.1 81.4275 154.004 79.2797 154.004 76.6496C154.004 75.2469 154.947 72.2882 156.832 67.7733L162.947 51.9273H153.15C152.361 53.9875 151.506 56.223 150.585 58.6339C149.665 61.0448 148.635 63.4556 147.495 65.8665C146.399 68.2774 145.172 70.6225 143.813 72.9018C142.498 75.1812 141.03 77.1976 139.408 78.9509C137.786 80.7043 136.011 82.1289 134.082 83.2247C132.153 84.3206 130.049 84.9123 127.77 85ZM217.98 74.5456C216.402 77.0003 214.583 79.0167 212.523 80.5947C210.506 82.1289 208.358 83.2905 206.079 84.0795C203.844 84.8685 201.542 85.3288 199.175 85.4603C196.808 85.5918 194.507 85.4603 192.271 85.0658C188.94 84.4959 186.354 83.3562 184.513 81.6467C182.716 79.8933 181.729 77.4167 181.554 74.2169C181.379 70.9731 182.058 66.9185 183.592 62.0529C185.126 57.1874 187.559 51.2917 190.891 44.3659L199.438 44.4317L192.732 58.1736C194.354 56.5956 196.282 55.434 198.518 54.6888C200.753 53.9437 203.033 53.6149 205.356 53.7026C207.679 53.7902 209.893 54.2943 211.997 55.2148C214.145 56.1354 215.876 57.4723 217.191 59.2256C218.55 60.979 219.361 63.1269 219.624 65.6692C219.887 68.2116 219.339 71.1704 217.98 74.5456ZM210.945 72.1786C212.172 69.3732 212.523 67.0719 211.997 65.2747C211.515 63.4337 210.528 62.0749 209.038 61.1982C207.591 60.3215 205.816 59.9051 203.712 59.9489C201.608 59.9489 199.57 60.3872 197.597 61.2639C195.625 62.0968 193.871 63.368 192.337 65.0775C190.847 66.7432 189.97 68.7814 189.707 71.1923C189.444 73.2087 189.663 74.8524 190.365 76.1236C191.11 77.3948 192.14 78.3372 193.455 78.9509C194.77 79.5208 196.26 79.8057 197.926 79.8057C199.636 79.7618 201.323 79.4331 202.989 78.8194C204.698 78.2057 206.276 77.351 207.723 76.2551C209.213 75.1154 210.419 73.7566 211.339 72.1786H210.945ZM257.694 69.3513C256.729 71.6745 256.247 73.3402 256.247 74.3484C256.247 76.4962 258.417 77.5701 262.756 77.5701H272.553L269.923 84.3425H261.376C257.957 84.3425 255.392 83.9918 253.683 83.2905C251.973 82.5891 250.636 81.3399 249.672 79.5427C248.971 79.981 248.225 80.4632 247.436 80.9892C245.858 82.0412 244.719 82.7645 244.017 83.159C242.22 84.1233 239.831 84.6055 236.851 84.6055C234.133 84.6055 232.073 84.4521 230.67 84.1452C229.267 83.8384 227.996 83.2686 226.856 82.4357C224.095 80.3755 222.714 77.4825 222.714 73.7566C222.714 71.6526 223.635 68.1459 225.476 63.2365L232.642 44.4974H240.467L232.642 65.3405C231.327 68.8034 230.67 71.1704 230.67 72.4416C230.67 75.9921 233.168 77.7674 238.166 77.7674C239.656 77.7674 241.037 77.4386 242.308 76.7811C243.579 76.1236 245.727 74.6552 248.751 72.3758L259.6 44.4974H267.227L257.694 69.3513ZM281.627 84.8685H274.066L289.32 45.155H296.75L291.095 60.1462L311.741 60.0147L317.724 45.5495H325.22L315.489 69.5485C314.261 72.5292 313.648 74.2826 313.648 74.8086C313.648 77.2633 315.73 78.4907 319.894 78.4907H329.888L327.192 85.0658H319.039C315.839 85.0658 313.67 84.9562 312.53 84.737C311.39 84.474 310.229 83.8822 309.045 82.9617C306.853 81.296 305.757 79.1482 305.757 76.5181C305.757 75.1154 306.7 72.1567 308.585 67.6418L309.374 65.735H288.991L287.61 69.5485L281.627 84.8685ZM369.47 85.1315H351.257C345.252 85.1315 340.978 84.2329 338.436 82.4357C336.638 81.2084 335.192 79.4988 334.096 77.3071C333.044 75.0716 332.518 72.7484 332.518 70.3375C332.518 67.576 333.241 64.4857 334.688 61.0667C336.178 57.6476 338.041 54.7108 340.277 52.256C342.688 49.6698 345.449 47.6316 348.561 46.1412C351.717 44.6509 354.83 43.9057 357.898 43.9057C361.624 43.9057 364.692 44.9358 367.103 46.996C369.514 49.0562 370.719 51.6862 370.719 54.8861C370.719 57.2531 369.952 59.5982 368.418 61.9214H360.265C362.281 59.2914 363.29 57.1655 363.29 55.5436C363.29 54.1409 362.742 52.9793 361.646 52.0588C360.55 51.0945 359.191 50.6123 357.569 50.6123C354.588 50.6123 351.432 51.9492 348.101 54.6231C345.69 56.5518 343.718 58.9188 342.183 61.7242C340.693 64.4857 339.948 67.1158 339.948 69.6143C339.948 71.2361 340.342 72.7703 341.131 74.2169C341.964 75.6195 343.038 76.6716 344.353 77.3729C345.887 78.2057 348.737 78.6222 352.901 78.6222H372.1L369.47 85.1315ZM380.122 84.9342H372.495L389.853 45.0892H397.612L380.122 84.9342ZM398.532 64.8145L411.156 85.4603H402.74L389.59 63.631L413.194 45.2865H425.293L398.532 64.8145ZM457.05 69.3513C456.086 71.6745 455.604 73.3402 455.604 74.3484C455.604 76.4962 457.774 77.5701 462.113 77.5701H471.91L469.28 84.3425H460.732C457.313 84.3425 454.749 83.9918 453.04 83.2905C451.33 82.5891 449.993 81.3399 449.029 79.5427C448.327 79.981 447.582 80.4632 446.793 80.9892C445.215 82.0412 444.075 82.7645 443.374 83.159C441.577 84.1233 439.188 84.6055 436.207 84.6055C433.49 84.6055 431.429 84.4521 430.027 84.1452C428.624 83.8384 427.353 83.2686 426.213 82.4357C423.452 80.3755 422.071 77.4825 422.071 73.7566C422.071 71.6526 422.991 68.1459 424.832 63.2365L431.999 44.4974H439.824L431.999 65.3405C430.684 68.8034 430.027 71.1704 430.027 72.4416C430.027 75.9921 432.525 77.7674 437.522 77.7674C439.013 77.7674 440.393 77.4386 441.665 76.7811C442.936 76.1236 445.084 74.6552 448.108 72.3758L458.957 44.4974H466.584L457.05 69.3513ZM510.046 69.3513C509.081 71.6745 508.599 73.3402 508.599 74.3484C508.599 76.4962 510.769 77.5701 515.108 77.5701H524.905L522.275 84.3425H513.728C510.309 84.3425 507.744 83.9918 506.035 83.2905C504.325 82.5891 502.988 81.3399 502.024 79.5427C501.323 79.981 500.577 80.4632 499.788 80.9892C498.21 82.0412 497.071 82.7645 496.369 83.159C494.572 84.1233 492.183 84.6055 489.203 84.6055C486.485 84.6055 484.425 84.4521 483.022 84.1452C481.619 83.8384 480.348 83.2686 479.208 82.4357C476.447 80.3755 475.066 77.4825 475.066 73.7566C475.066 71.6526 475.987 68.1459 477.828 63.2365L484.994 44.4974H492.819L484.994 65.3405C483.679 68.8034 483.022 71.1704 483.022 72.4416C483.022 75.9921 485.52 77.7674 490.518 77.7674C492.008 77.7674 493.389 77.4386 494.66 76.7811C495.931 76.1236 498.079 74.6552 501.103 72.3758L511.952 44.4974H519.579L510.046 69.3513ZM518.988 23.9174C518.067 27.205 516.577 29.8569 514.517 31.8733C512.5 33.8458 509.673 34.8321 506.035 34.8321C501.213 34.8321 498.188 34.4156 496.961 33.5828C496.435 33.2321 495.953 32.7938 495.515 32.2678C495.12 31.6979 494.769 31.1062 494.463 30.4925C494.2 29.835 494.002 29.1994 493.871 28.5857C493.739 27.9282 493.674 27.3365 493.674 26.8104C493.674 26.0214 493.893 25.0571 494.331 23.9174L499.065 23.4572C499.021 23.6763 498.999 23.8736 498.999 24.0489C498.999 24.1804 498.999 24.29 498.999 24.3777C498.999 25.7365 499.569 26.8324 500.709 27.6652C501.892 28.4542 503.492 28.8487 505.509 28.8487C509.629 28.8487 512.5 27.0515 514.122 23.4572L518.988 23.9174Z" fill="#FF0000"/>
<rect x="318.545" y="95.1699" width="201.745" height="47.5852" rx="23.7926" fill="#FF0000"/>
<path d="M349.657 130.664C347.505 130.664 345.636 130.226 344.05 129.348C342.465 128.47 341.233 127.224 340.355 125.61C339.478 123.968 339.039 122.043 339.039 119.834C339.039 117.625 339.478 115.714 340.355 114.1C341.233 112.486 342.465 111.24 344.05 110.363C345.636 109.485 347.505 109.046 349.657 109.046C351.809 109.046 353.678 109.485 355.263 110.363C356.849 111.24 358.081 112.486 358.958 114.1C359.836 115.714 360.275 117.625 360.275 119.834C360.275 122.043 359.836 123.968 358.958 125.61C358.081 127.224 356.849 128.47 355.263 129.348C353.678 130.226 351.809 130.664 349.657 130.664ZM349.657 126.63C351.243 126.63 352.517 126.063 353.479 124.931C354.442 123.77 354.924 122.071 354.924 119.834C354.924 117.569 354.442 115.884 353.479 114.78C352.517 113.647 351.243 113.081 349.657 113.081C348.071 113.081 346.797 113.647 345.834 114.78C344.872 115.884 344.39 117.569 344.39 119.834C344.39 122.071 344.872 123.77 345.834 124.931C346.797 126.063 348.071 126.63 349.657 126.63ZM367.871 130.58C366.087 130.58 365.195 129.673 365.195 127.861V111.807C365.195 110.023 366.087 109.131 367.871 109.131C369.627 109.131 370.504 110.023 370.504 111.807V117.498H379.678V111.807C379.678 110.023 380.556 109.131 382.312 109.131C384.096 109.131 384.988 110.023 384.988 111.807V127.861C384.988 129.673 384.096 130.58 382.312 130.58C380.556 130.58 379.678 129.673 379.678 127.861V121.66H370.504V127.861C370.504 129.673 369.627 130.58 367.871 130.58ZM407.685 130.58C405.929 130.58 405.052 129.673 405.052 127.861V113.633H398.511V116.054C398.511 119.99 398.015 123.104 397.024 125.398C396.062 127.691 394.476 129.305 392.267 130.24C391.503 130.551 390.837 130.594 390.271 130.367C389.705 130.141 389.28 129.773 388.997 129.263C388.742 128.725 388.685 128.159 388.827 127.564C388.969 126.969 389.393 126.474 390.101 126.077C391.517 125.256 392.451 124.039 392.904 122.425C393.386 120.811 393.626 118.631 393.626 115.884V112.444C393.626 110.462 394.617 109.471 396.6 109.471H407.388C409.37 109.471 410.361 110.462 410.361 112.444V127.861C410.361 129.673 409.469 130.58 407.685 130.58ZM423.259 130.664C421.758 130.664 420.413 130.381 419.224 129.815C418.063 129.22 417.143 128.428 416.463 127.437C415.812 126.446 415.486 125.327 415.486 124.081C415.486 122.552 415.883 121.349 416.676 120.471C417.468 119.565 418.757 118.914 420.541 118.517C422.324 118.121 424.717 117.923 427.718 117.923H429.205V117.031C429.205 115.615 428.894 114.596 428.271 113.973C427.648 113.35 426.6 113.038 425.128 113.038C424.306 113.038 423.415 113.137 422.452 113.336C421.517 113.534 420.526 113.874 419.479 114.355C418.799 114.666 418.233 114.709 417.78 114.482C417.327 114.228 417.015 113.845 416.845 113.336C416.704 112.798 416.732 112.26 416.93 111.722C417.157 111.184 417.596 110.787 418.247 110.532C419.55 109.994 420.795 109.612 421.985 109.386C423.202 109.159 424.306 109.046 425.298 109.046C428.327 109.046 430.578 109.754 432.051 111.169C433.523 112.557 434.259 114.723 434.259 117.668V127.861C434.259 129.673 433.438 130.58 431.796 130.58C430.125 130.58 429.29 129.673 429.29 127.861V126.927C428.809 128.088 428.044 129.008 426.996 129.688C425.949 130.339 424.703 130.664 423.259 130.664ZM424.363 127.012C425.751 127.012 426.897 126.53 427.803 125.568C428.738 124.605 429.205 123.387 429.205 121.915V120.981H427.761C425.099 120.981 423.245 121.193 422.197 121.618C421.178 122.014 420.668 122.75 420.668 123.826C420.668 124.761 420.994 125.525 421.645 126.12C422.296 126.715 423.202 127.012 424.363 127.012ZM442.65 130.58C441.007 130.58 440.186 129.631 440.186 127.734V111.679C440.186 109.98 440.993 109.131 442.607 109.131C444.193 109.131 444.986 109.98 444.986 111.679V123.317L454.372 110.83C454.684 110.433 455.066 110.051 455.519 109.683C455.972 109.315 456.595 109.131 457.388 109.131C459.002 109.131 459.809 110.065 459.809 111.934V128.031C459.809 129.73 459.016 130.58 457.43 130.58C455.816 130.58 455.009 129.73 455.009 128.031V116.394L445.623 128.881C445.34 129.277 444.971 129.659 444.518 130.027C444.094 130.395 443.471 130.58 442.65 130.58ZM449.997 106.837C448.242 106.837 446.713 106.441 445.41 105.648C444.108 104.827 443.188 103.68 442.65 102.208C442.253 101.132 442.522 100.438 443.457 100.127C444.278 99.8434 444.943 100.197 445.453 101.188C446.387 103.001 447.902 103.907 449.997 103.907C452.093 103.907 453.608 103.001 454.542 101.188C455.052 100.197 455.717 99.8434 456.538 100.127C456.963 100.268 457.246 100.523 457.388 100.891C457.558 101.231 457.515 101.67 457.26 102.208C456.552 103.68 455.604 104.827 454.415 105.648C453.225 106.441 451.753 106.837 449.997 106.837ZM468.495 130.58C466.711 130.58 465.819 129.673 465.819 127.861V111.807C465.819 110.023 466.711 109.131 468.495 109.131C470.25 109.131 471.128 110.023 471.128 111.807V117.498H480.302V111.807C480.302 110.023 481.18 109.131 482.936 109.131C484.72 109.131 485.611 110.023 485.611 111.807V127.861C485.611 129.673 484.72 130.58 482.936 130.58C481.18 130.58 480.302 129.673 480.302 127.861V121.66H471.128V127.861C471.128 129.673 470.25 130.58 468.495 130.58Z" fill="white"/>
<ellipse cx="501.709" cy="118.962" rx="7.96362" ry="7.93094" fill="#FFA900"/>
</svg>
