<svg width="1918" height="688" viewBox="0 0 1918 688" fill="none" xmlns="http://www.w3.org/2000/svg">
<g opacity="0.25" clip-path="url(#clip0_4208_40127)">
<path opacity="0.5" fill-rule="evenodd" clip-rule="evenodd" d="M1900.2 84.3664C1901.62 82.9573 1903.93 82.9573 1905.35 84.3664L1982.74 161.333L1977.59 166.459L1902.77 92.0442L1827.96 166.459L1822.81 161.333L1900.2 84.3664Z" fill="white"/>
<path opacity="0.5" fill-rule="evenodd" clip-rule="evenodd" d="M227.996 602.161C229.416 600.752 231.723 600.752 233.143 602.161L310.534 679.128L305.386 684.253L230.57 609.839L155.753 684.253L150.605 679.128L227.996 602.161Z" fill="white"/>
<path opacity="0.5" fill-rule="evenodd" clip-rule="evenodd" d="M1063.24 345.666C1064.66 344.257 1066.97 344.257 1068.39 345.666L1145.78 422.632L1140.63 427.758L1065.81 353.344L990.996 427.758L985.848 422.632L1063.24 345.666Z" fill="white"/>
<path opacity="0.5" fill-rule="evenodd" clip-rule="evenodd" d="M1350.37 631.252C1351.79 629.843 1354.1 629.843 1355.52 631.252L1432.91 708.218L1427.76 713.344L1352.94 638.93L1278.13 713.344L1272.98 708.218L1350.37 631.252Z" fill="white"/>
<path opacity="0.5" fill-rule="evenodd" clip-rule="evenodd" d="M774.556 58.5373C775.976 57.1282 778.283 57.1282 779.703 58.5373L857.094 135.504L851.946 140.629L777.129 66.215L702.313 140.629L697.165 135.504L774.556 58.5373Z" fill="white"/>
<path opacity="0.5" fill-rule="evenodd" clip-rule="evenodd" d="M1063.24 541.405C1064.66 542.814 1066.97 542.814 1068.39 541.405L1145.78 464.438L1140.63 459.312L1065.81 533.727L990.996 459.312L985.848 464.438L1063.24 541.405Z" fill="white"/>
<path opacity="0.5" fill-rule="evenodd" clip-rule="evenodd" d="M774.556 254.276C775.976 255.685 778.283 255.685 779.703 254.276L857.094 177.309L851.946 172.184L777.129 246.598L702.313 172.184L697.165 177.309L774.556 254.276Z" fill="white"/>
<path opacity="0.5" fill-rule="evenodd" clip-rule="evenodd" d="M214.007 316.586C215.427 315.177 217.734 315.177 219.154 316.586L296.545 393.552L291.397 398.678L216.58 324.264L141.764 398.678L136.616 393.552L214.007 316.586Z" fill="white"/>
<path opacity="0.5" fill-rule="evenodd" clip-rule="evenodd" d="M501.126 602.161C502.546 600.752 504.853 600.752 506.273 602.161L583.664 679.128L578.516 684.253L503.7 609.839L428.883 684.253L423.735 679.128L501.126 602.161Z" fill="white"/>
<path opacity="0.5" fill-rule="evenodd" clip-rule="evenodd" d="M214.007 512.325C215.427 513.734 217.734 513.734 219.154 512.325L296.545 435.358L291.397 430.232L216.58 504.647L141.764 430.232L136.616 435.358L214.007 512.325Z" fill="white"/>
<path opacity="0.5" fill-rule="evenodd" clip-rule="evenodd" d="M1336.37 345.677C1337.79 344.268 1340.1 344.268 1341.52 345.677L1418.91 422.643L1413.76 427.769L1338.94 353.355L1264.13 427.769L1258.98 422.643L1336.37 345.677Z" fill="white"/>
<path opacity="0.5" fill-rule="evenodd" clip-rule="evenodd" d="M1623.49 631.252C1624.91 629.843 1627.22 629.843 1628.64 631.252L1706.03 708.218L1700.88 713.344L1626.06 638.93L1551.24 713.344L1546.1 708.218L1623.49 631.252Z" fill="white"/>
<path opacity="0.5" fill-rule="evenodd" clip-rule="evenodd" d="M1047.69 58.5373C1049.11 57.1282 1051.41 57.1282 1052.83 58.5373L1130.22 135.504L1125.08 140.629L1050.26 66.215L975.442 140.629L970.295 135.504L1047.69 58.5373Z" fill="white"/>
<path opacity="0.5" fill-rule="evenodd" clip-rule="evenodd" d="M1336.37 541.405C1337.79 542.814 1340.1 542.814 1341.52 541.405L1418.91 464.438L1413.76 459.312L1338.94 533.727L1264.13 459.312L1258.98 464.438L1336.37 541.405Z" fill="white"/>
<path opacity="0.5" fill-rule="evenodd" clip-rule="evenodd" d="M1047.69 254.276C1049.11 255.685 1051.41 255.685 1052.83 254.276L1130.22 177.309L1125.08 172.184L1050.26 246.598L975.442 172.184L970.295 177.309L1047.69 254.276Z" fill="white"/>
<path opacity="0.5" fill-rule="evenodd" clip-rule="evenodd" d="M1748.5 -62.7645C1749.92 -64.1736 1752.23 -64.1736 1753.65 -62.7645L1831.04 14.2018L1825.89 19.3277L1751.08 -55.0867L1676.26 19.3277L1671.11 14.2018L1748.5 -62.7645Z" fill="white"/>
<path opacity="0.5" fill-rule="evenodd" clip-rule="evenodd" d="M76.2992 455.029C77.7192 453.62 80.0267 453.62 81.4467 455.029L158.837 531.996L153.69 537.122L78.873 462.707L4.05622 537.122L-1.09131 531.996L76.2992 455.029Z" fill="white"/>
<path opacity="0.5" fill-rule="evenodd" clip-rule="evenodd" d="M1198.67 484.11C1200.09 482.7 1202.4 482.7 1203.82 484.11L1281.21 561.076L1276.06 566.202L1201.25 491.787L1126.43 566.202L1121.28 561.076L1198.67 484.11Z" fill="white"/>
<path opacity="0.5" fill-rule="evenodd" clip-rule="evenodd" d="M909.977 196.982C911.397 195.573 913.705 195.573 915.125 196.982L992.515 273.948L987.368 279.074L912.551 204.659L837.734 279.074L832.587 273.948L909.977 196.982Z" fill="white"/>
<path opacity="0.5" fill-rule="evenodd" clip-rule="evenodd" d="M1198.67 679.848C1200.09 681.257 1202.4 681.257 1203.82 679.848L1281.21 602.882L1276.06 597.756L1201.25 672.17L1126.43 597.756L1121.28 602.882L1198.67 679.848Z" fill="white"/>
<path opacity="0.5" fill-rule="evenodd" clip-rule="evenodd" d="M622.858 107.133C624.278 108.542 626.586 108.542 628.006 107.133L705.396 30.1669L700.249 25.041L625.432 99.4554L550.615 25.041L545.468 30.1669L622.858 107.133Z" fill="white"/>
<path opacity="0.5" fill-rule="evenodd" clip-rule="evenodd" d="M909.989 392.72C911.409 394.129 913.716 394.129 915.136 392.72L992.527 315.754L987.379 310.628L912.562 385.042L837.746 310.628L832.598 315.754L909.989 392.72Z" fill="white"/>
<path opacity="0.5" d="M346.878 687.127H335.95V694.372H346.878V687.127Z" fill="white"/>
<path opacity="0.5" d="M109.836 401.552H98.9082V408.797H109.836V401.552Z" fill="white"/>
<path opacity="0.5" d="M396.955 687.127H386.027V694.372H396.955V687.127Z" fill="white"/>
<path opacity="0.5" d="M1182.13 430.644H1171.2V437.889H1182.13V430.644Z" fill="white"/>
<path opacity="0.5" d="M893.437 143.503H882.509V150.748H893.437V143.503Z" fill="white"/>
<path opacity="0.5" d="M1205.81 454.63H1198.52V465.492H1205.81V454.63Z" fill="white"/>
<path opacity="0.5" d="M917.111 167.502H909.822V178.364H917.111V167.502Z" fill="white"/>
<path opacity="0.5" d="M1232.2 430.644H1221.27V437.889H1232.2V430.644Z" fill="white"/>
<path opacity="0.5" d="M943.514 143.503H932.587V150.748H943.514V143.503Z" fill="white"/>
<path opacity="0.5" fill-rule="evenodd" clip-rule="evenodd" d="M76.2993 178.098C77.7193 176.689 80.0268 176.689 81.4469 178.098L158.837 255.064L153.69 260.19L78.8731 185.776L4.06745 260.19L-1.08008 255.064L76.3104 178.098H76.2993Z" fill="white"/>
<path opacity="0.5" fill-rule="evenodd" clip-rule="evenodd" d="M363.418 463.673C364.838 462.264 367.146 462.264 368.566 463.673L445.956 540.639L440.809 545.765L365.992 471.351L291.175 545.765L286.028 540.639L363.418 463.673Z" fill="white"/>
<path opacity="0.5" fill-rule="evenodd" clip-rule="evenodd" d="M76.2993 373.826C77.7193 375.235 80.0268 375.235 81.4469 373.826L158.837 296.859L153.69 291.733L78.8731 366.148L4.06745 291.733L-1.08008 296.859L76.3104 373.826H76.2993Z" fill="white"/>
<path opacity="0.5" fill-rule="evenodd" clip-rule="evenodd" d="M363.418 659.412C364.838 660.821 367.146 660.821 368.566 659.412L445.956 582.445L440.809 577.319L365.992 651.734L291.175 577.319L286.028 582.445L363.418 659.412Z" fill="white"/>
<path opacity="0.5" fill-rule="evenodd" clip-rule="evenodd" d="M1198.67 207.178C1200.09 205.769 1202.4 205.769 1203.82 207.178L1281.21 284.144L1276.06 289.27L1201.25 214.856L1126.43 289.27L1121.28 284.144L1198.67 207.178Z" fill="white"/>
<path opacity="0.5" fill-rule="evenodd" clip-rule="evenodd" d="M1485.79 492.764C1487.21 491.355 1489.52 491.355 1490.94 492.764L1568.33 569.73L1563.18 574.856L1488.37 500.442L1413.55 574.856L1408.4 569.73L1485.79 492.764Z" fill="white"/>
<path opacity="0.5" fill-rule="evenodd" clip-rule="evenodd" d="M909.989 -79.951C911.409 -81.3601 913.716 -81.3601 915.136 -79.951L992.527 -2.98472L987.379 2.14119L912.562 -72.2732L837.746 2.14119L832.598 -2.98472L909.989 -79.951Z" fill="white"/>
<path opacity="0.5" fill-rule="evenodd" clip-rule="evenodd" d="M1198.67 402.916C1200.09 404.326 1202.4 404.326 1203.82 402.916L1281.21 325.95L1276.06 320.824L1201.25 395.239L1126.43 320.824L1121.28 325.95L1198.67 402.916Z" fill="white"/>
<path opacity="0.5" fill-rule="evenodd" clip-rule="evenodd" d="M1485.79 688.502C1487.21 689.911 1489.52 689.911 1490.94 688.502L1568.33 611.536L1563.18 606.41L1488.37 680.825L1413.55 606.41L1408.4 611.536L1485.79 688.502Z" fill="white"/>
<path opacity="0.5" fill-rule="evenodd" clip-rule="evenodd" d="M909.989 115.788C911.409 117.197 913.716 117.197 915.136 115.788L992.527 38.8212L987.379 33.6953L912.562 108.11L837.746 33.6953L832.598 38.8212L909.989 115.788Z" fill="white"/>
<path opacity="0.5" fill-rule="evenodd" clip-rule="evenodd" d="M1062.58 617.983C1064 616.574 1066.31 616.574 1067.73 617.983L1145.12 694.949L1139.97 700.075L1065.16 625.66L990.341 700.075L985.193 694.949L1062.58 617.983Z" fill="white"/>
<path opacity="0.5" fill-rule="evenodd" clip-rule="evenodd" d="M486.782 45.2677C488.202 43.8587 490.509 43.8587 491.929 45.2677L569.32 122.234L564.172 127.36L489.355 52.9455L414.539 127.36L409.391 122.234L486.782 45.2677Z" fill="white"/>
<path opacity="0.5" fill-rule="evenodd" clip-rule="evenodd" d="M773.901 330.855C775.321 329.446 777.628 329.446 779.048 330.855L856.439 407.821L851.291 412.947L776.475 338.532L701.658 412.947L696.51 407.821L773.901 330.855Z" fill="white"/>
<path opacity="0.5" fill-rule="evenodd" clip-rule="evenodd" d="M486.782 241.006C488.202 242.415 490.509 242.415 491.929 241.006L569.32 164.04L564.172 158.914L489.355 233.328L414.539 158.914L409.391 164.04L486.782 241.006Z" fill="white"/>
<path opacity="0.5" fill-rule="evenodd" clip-rule="evenodd" d="M773.901 526.593C775.321 528.002 777.628 528.002 779.048 526.593L856.439 449.627L851.291 444.501L776.475 518.915L701.658 444.501L696.51 449.627L773.901 526.593Z" fill="white"/>
<path opacity="0.5" fill-rule="evenodd" clip-rule="evenodd" d="M1609.14 74.3586C1610.56 72.9495 1612.87 72.9495 1614.29 74.3586L1691.68 151.325L1686.53 156.451L1611.72 82.0363L1536.9 156.451L1531.75 151.325L1609.14 74.3586Z" fill="white"/>
<path opacity="0.5" fill-rule="evenodd" clip-rule="evenodd" d="M1896.27 359.934C1897.69 358.525 1900 358.525 1901.42 359.934L1978.81 436.9L1973.66 442.026L1898.85 367.612L1824.03 442.026L1818.88 436.9L1896.27 359.934Z" fill="white"/>
<path opacity="0.5" fill-rule="evenodd" clip-rule="evenodd" d="M1609.14 270.098C1610.56 271.507 1612.87 271.507 1614.29 270.098L1691.68 193.132L1686.53 188.006L1611.72 262.42L1536.9 188.006L1531.75 193.132L1609.14 270.098Z" fill="white"/>
<path opacity="0.5" fill-rule="evenodd" clip-rule="evenodd" d="M1896.26 555.684C1897.68 557.093 1899.99 557.093 1901.41 555.684L1978.8 478.718L1973.65 473.592L1898.84 548.006L1824.02 473.592L1818.87 478.718L1896.26 555.684Z" fill="white"/>
<path opacity="0.5" d="M333.731 411.715H322.804V418.96H333.731V411.715Z" fill="white"/>
<path opacity="0.5" d="M357.405 435.713H350.117V446.575H357.405V435.713Z" fill="white"/>
<path opacity="0.5" d="M383.809 411.715H372.881V418.96H383.809V411.715Z" fill="white"/>
<path opacity="0.5" d="M1456.1 440.806H1445.18V448.051H1456.1V440.806Z" fill="white"/>
<path opacity="0.5" d="M1167.42 153.666H1156.49V160.911H1167.42V153.666Z" fill="white"/>
<path opacity="0.5" d="M1479.78 464.805H1472.49V475.667H1479.78V464.805Z" fill="white"/>
<path opacity="0.5" d="M1191.1 177.665H1183.81V188.527H1191.1V177.665Z" fill="white"/>
<path opacity="0.5" d="M1506.18 440.806H1495.25V448.051H1506.18V440.806Z" fill="white"/>
<path opacity="0.5" d="M1217.49 153.666H1206.56V160.911H1217.49V153.666Z" fill="white"/>
<path opacity="0.5" d="M606.506 140.407H595.579V147.652H606.506V140.407Z" fill="white"/>
<path opacity="0.5" d="M893.636 425.983H882.709V433.228H893.636V425.983Z" fill="white"/>
<path opacity="0.5" d="M630.18 164.406H622.892V175.268H630.18V164.406Z" fill="white"/>
<path opacity="0.5" d="M917.311 449.981H910.022V460.843H917.311V449.981Z" fill="white"/>
<path opacity="0.5" d="M656.584 140.407H645.656V147.652H656.584V140.407Z" fill="white"/>
<path opacity="0.5" d="M943.703 425.983H932.775V433.228H943.703V425.983Z" fill="white"/>
<path opacity="0.5" d="M1728.88 169.499H1717.95V176.744H1728.88V169.499Z" fill="white"/>
<path opacity="0.5" d="M1752.55 193.486H1745.26V204.348H1752.55V193.486Z" fill="white"/>
<path opacity="0.5" d="M1778.95 169.499H1768.02V176.744H1778.95V169.499Z" fill="white"/>
<path opacity="0.5" fill-rule="evenodd" clip-rule="evenodd" d="M349.074 183.712C350.494 182.303 352.802 182.303 354.222 183.712L431.612 260.678L426.465 265.804L351.648 191.39L276.831 265.804L271.684 260.678L349.074 183.712Z" fill="white"/>
<path opacity="0.5" fill-rule="evenodd" clip-rule="evenodd" d="M636.204 469.287C637.624 467.878 639.932 467.878 641.352 469.287L718.742 546.254L713.594 551.38L638.778 476.965L563.961 551.38L558.813 546.254L636.204 469.287Z" fill="white"/>
<path opacity="0.5" fill-rule="evenodd" clip-rule="evenodd" d="M349.074 379.451C350.494 380.86 352.802 380.86 354.222 379.451L431.612 302.484L426.465 297.358L351.648 371.773L276.831 297.358L271.684 302.484L349.074 379.451Z" fill="white"/>
<path opacity="0.5" fill-rule="evenodd" clip-rule="evenodd" d="M60.3905 92.311C61.8105 93.72 64.118 93.72 65.538 92.311L142.929 15.3447L137.781 10.2188L62.9643 84.6332L-11.8525 10.2188L-17 15.3447L60.3905 92.311Z" fill="white"/>
<path opacity="0.5" fill-rule="evenodd" clip-rule="evenodd" d="M636.204 665.037C637.624 666.446 639.932 666.446 641.352 665.037L718.742 588.07L713.594 582.944L638.778 657.359L563.961 582.944L558.813 588.07L636.204 665.037Z" fill="white"/>
<path opacity="0.5" fill-rule="evenodd" clip-rule="evenodd" d="M1471.45 212.803C1472.87 211.394 1475.17 211.394 1476.59 212.803L1553.99 289.769L1548.84 294.895L1474.02 220.481L1399.2 294.895L1394.06 289.769L1471.45 212.803Z" fill="white"/>
<path opacity="0.5" fill-rule="evenodd" clip-rule="evenodd" d="M1758.57 498.378C1759.99 496.969 1762.29 496.969 1763.71 498.378L1841.1 575.344L1835.96 580.47L1761.14 506.056L1686.32 580.47L1681.18 575.344L1758.57 498.378Z" fill="white"/>
<path opacity="0.5" fill-rule="evenodd" clip-rule="evenodd" d="M1182.76 -74.3368C1184.18 -75.7458 1186.49 -75.7458 1187.91 -74.3368L1265.3 2.62954L1260.15 7.75546L1185.34 -66.659L1110.52 7.75546L1105.37 2.62954L1182.76 -74.3368Z" fill="white"/>
<path opacity="0.5" fill-rule="evenodd" clip-rule="evenodd" d="M1471.45 408.541C1472.87 409.95 1475.17 409.95 1476.59 408.541L1553.99 331.575L1548.84 326.449L1474.02 400.864L1399.2 326.449L1394.06 331.575L1471.45 408.541Z" fill="white"/>
<path opacity="0.5" fill-rule="evenodd" clip-rule="evenodd" d="M1758.57 694.117C1759.99 695.526 1762.29 695.526 1763.71 694.117L1841.1 617.15L1835.96 612.024L1761.14 686.439L1686.32 612.024L1681.18 617.15L1758.57 694.117Z" fill="white"/>
<path opacity="0.5" fill-rule="evenodd" clip-rule="evenodd" d="M1182.76 121.413C1184.18 122.822 1186.49 122.822 1187.91 121.413L1265.3 44.4462L1260.15 39.3203L1185.34 113.735L1110.52 39.3203L1105.37 44.4462L1182.76 121.413Z" fill="white"/>
<path opacity="0.5" d="M332.533 130.233H321.605V137.478H332.533V130.233Z" fill="white"/>
<path opacity="0.5" d="M619.663 415.82H608.736V423.065H619.663V415.82Z" fill="white"/>
<path opacity="0.5" d="M356.207 154.231H348.918V165.093H356.207V154.231Z" fill="white"/>
<path opacity="0.5" d="M643.327 439.818H636.038V450.68H643.327V439.818Z" fill="white"/>
<path opacity="0.5" d="M382.611 130.233H371.683V137.478H382.611V130.233Z" fill="white"/>
<path opacity="0.5" d="M669.73 415.82H658.802V423.065H669.73V415.82Z" fill="white"/>
<path opacity="0.5" d="M1454.91 159.325H1443.98V166.57H1454.91V159.325Z" fill="white"/>
<path opacity="0.5" d="M1742.03 444.9H1731.1V452.145H1742.03V444.9Z" fill="white"/>
<path opacity="0.5" d="M1478.57 183.323H1471.28V194.185H1478.57V183.323Z" fill="white"/>
<path opacity="0.5" d="M1765.7 468.898H1758.41V479.76H1765.7V468.898Z" fill="white"/>
<path opacity="0.5" d="M1504.97 159.325H1494.04V166.57H1504.97V159.325Z" fill="white"/>
<path opacity="0.5" d="M1792.09 444.9H1781.16V452.145H1792.09V444.9Z" fill="white"/>
<path opacity="0.5" fill-rule="evenodd" clip-rule="evenodd" d="M789.454 617.983C790.874 616.574 793.182 616.574 794.602 617.983L871.992 694.949L866.844 700.075L792.028 625.66L717.211 700.075L712.063 694.949L789.454 617.983Z" fill="white"/>
<path opacity="0.5" fill-rule="evenodd" clip-rule="evenodd" d="M213.652 45.2677C215.072 43.8587 217.379 43.8587 218.799 45.2677L296.19 122.234L291.042 127.36L216.225 52.9455L141.409 127.36L136.261 122.234L213.652 45.2677Z" fill="white"/>
<path opacity="0.5" fill-rule="evenodd" clip-rule="evenodd" d="M500.771 330.855C502.191 329.446 504.498 329.446 505.918 330.855L583.309 407.821L578.161 412.947L503.345 338.532L428.528 412.947L423.38 407.821L500.771 330.855Z" fill="white"/>
<path opacity="0.5" fill-rule="evenodd" clip-rule="evenodd" d="M213.652 241.006C215.072 242.415 217.379 242.415 218.799 241.006L296.19 164.04L291.042 158.914L216.225 233.328L141.409 158.914L136.261 164.04L213.652 241.006Z" fill="white"/>
<path opacity="0.5" fill-rule="evenodd" clip-rule="evenodd" d="M500.771 526.581C502.191 527.991 504.498 527.991 505.918 526.581L583.309 449.615L578.161 444.489L503.345 518.904L428.528 444.489L423.38 449.615L500.771 526.581Z" fill="white"/>
<path opacity="0.5" fill-rule="evenodd" clip-rule="evenodd" d="M1336.02 74.3586C1337.44 72.9495 1339.75 72.9495 1341.17 74.3586L1418.56 151.325L1413.42 156.451L1338.6 82.0363L1263.78 156.451L1258.63 151.325L1336.02 74.3586Z" fill="white"/>
<path opacity="0.5" fill-rule="evenodd" clip-rule="evenodd" d="M1911.83 647.085C1913.25 645.676 1915.55 645.676 1916.97 647.085L1994.37 724.051L1989.22 729.177L1914.4 654.763L1839.58 729.177L1834.44 724.051L1911.83 647.085Z" fill="white"/>
<path opacity="0.5" fill-rule="evenodd" clip-rule="evenodd" d="M1623.14 359.934C1624.56 358.525 1626.87 358.525 1628.29 359.934L1705.68 436.9L1700.53 442.026L1625.72 367.612L1550.9 442.026L1545.75 436.9L1623.14 359.934Z" fill="white"/>
<path opacity="0.5" fill-rule="evenodd" clip-rule="evenodd" d="M1336.02 270.098C1337.44 271.507 1339.75 271.507 1341.17 270.098L1418.56 193.132L1413.42 188.006L1338.6 262.42L1263.78 188.006L1258.63 193.132L1336.02 270.098Z" fill="white"/>
<path opacity="0.5" fill-rule="evenodd" clip-rule="evenodd" d="M1623.14 555.672C1624.56 557.081 1626.87 557.081 1628.29 555.672L1705.68 478.706L1700.53 473.58L1625.72 547.994L1550.9 473.58L1545.75 478.706L1623.14 555.672Z" fill="white"/>
<path opacity="0.5" fill-rule="evenodd" clip-rule="evenodd" d="M924.877 479.494C926.297 478.085 928.604 478.085 930.024 479.494L1007.41 556.461L1002.27 561.587L927.451 487.172L852.634 561.587L847.486 556.461L924.877 479.494Z" fill="white"/>
<path opacity="0.5" fill-rule="evenodd" clip-rule="evenodd" d="M636.204 192.366C637.624 190.957 639.932 190.957 641.352 192.366L718.742 269.333L713.594 274.459L638.778 200.044L563.961 274.459L558.813 269.333L636.204 192.366Z" fill="white"/>
<path opacity="0.5" fill-rule="evenodd" clip-rule="evenodd" d="M924.888 675.233C926.308 676.642 928.615 676.642 930.035 675.233L1007.43 598.267L1002.28 593.141L927.461 667.555L852.645 593.141L847.497 598.267L924.888 675.233Z" fill="white"/>
<path opacity="0.5" fill-rule="evenodd" clip-rule="evenodd" d="M349.074 102.518C350.494 103.927 352.802 103.927 354.222 102.518L431.612 25.5517L426.465 20.4258L351.648 94.8402L276.831 20.4258L271.684 25.5517L349.074 102.518Z" fill="white"/>
<path opacity="0.5" fill-rule="evenodd" clip-rule="evenodd" d="M636.204 388.093C637.624 389.502 639.932 389.502 641.352 388.093L718.742 311.127L713.594 306.001L638.778 380.415L563.961 306.001L558.813 311.127L636.204 388.093Z" fill="white"/>
<path opacity="0.5" fill-rule="evenodd" clip-rule="evenodd" d="M1471.45 -64.1297C1472.87 -65.5388 1475.17 -65.5388 1476.59 -64.1297L1553.99 12.8366L1548.84 17.9625L1474.02 -56.4519L1399.2 17.9625L1394.06 12.8366L1471.45 -64.1297Z" fill="white"/>
<path opacity="0.5" fill-rule="evenodd" clip-rule="evenodd" d="M1758.57 221.446C1759.99 220.037 1762.29 220.037 1763.71 221.446L1841.1 298.413L1835.96 303.539L1761.14 229.124L1686.32 303.539L1681.18 298.413L1758.57 221.446Z" fill="white"/>
<path opacity="0.5" fill-rule="evenodd" clip-rule="evenodd" d="M1471.45 131.609C1472.87 133.018 1475.17 133.018 1476.59 131.609L1553.99 54.6425L1548.84 49.5166L1474.02 123.931L1399.2 49.5166L1394.06 54.6425L1471.45 131.609Z" fill="white"/>
<path opacity="0.5" fill-rule="evenodd" clip-rule="evenodd" d="M1758.57 417.185C1759.99 418.594 1762.29 418.594 1763.71 417.185L1841.1 340.219L1835.96 335.093L1761.14 409.507L1686.32 335.093L1681.18 340.219L1758.57 417.185Z" fill="white"/>
<path opacity="0.5" fill-rule="evenodd" clip-rule="evenodd" d="M1899.56 280.272C1900.98 281.681 1903.29 281.681 1904.71 280.272L1982.1 203.306L1976.95 198.18L1902.13 272.594L1827.31 198.18L1822.17 203.306L1899.56 280.272Z" fill="white"/>
<path opacity="0.5" fill-rule="evenodd" clip-rule="evenodd" d="M1747.87 133.129C1749.29 134.538 1751.6 134.538 1753.02 133.129L1830.41 56.163L1825.26 51.0371L1750.45 125.452L1675.63 51.0371L1670.48 56.163L1747.87 133.129Z" fill="white"/>
<path opacity="0.5" fill-rule="evenodd" clip-rule="evenodd" d="M76.5653 650.025C77.9853 651.434 80.2928 651.434 81.7128 650.025L159.103 573.059L153.956 567.933L79.1391 642.347L4.32234 567.933L-0.825195 573.059L76.5653 650.025Z" fill="white"/>
<path opacity="0.5" d="M87.8363 311.293C85.7729 313.335 83.2879 314.366 80.4035 314.366C77.508 314.366 75.0451 313.346 73.0039 311.315L39.5449 277.875L45.7464 271.739L78.3622 304.337C79.1942 305.169 79.8932 305.601 80.47 305.635C81.0358 305.601 81.7458 305.158 82.5889 304.325L107.206 279.961C108.083 279.084 108.526 278.385 108.526 277.864C108.493 277.298 108.06 276.599 107.228 275.767L74.6125 243.17L80.8694 236.979L114.328 270.419C116.37 272.46 117.368 274.935 117.313 277.853C117.29 280.726 116.27 283.167 114.251 285.175L87.8474 311.304L87.8363 311.293Z" fill="white"/>
<path opacity="0.5" d="M374.956 596.869C372.893 598.911 370.407 599.943 367.523 599.943C364.628 599.943 362.165 598.922 360.124 596.891L326.665 563.451L332.866 557.315L365.482 589.913C366.314 590.745 367.013 591.178 367.59 591.211C368.155 591.178 368.865 590.734 369.709 589.902L394.326 565.537C395.202 564.66 395.646 563.961 395.646 563.44C395.613 562.874 395.18 562.175 394.348 561.343L361.732 528.746L367.989 522.555L401.448 555.995C403.489 558.037 404.488 560.511 404.432 563.429C404.41 566.302 403.389 568.743 401.37 570.752L374.967 596.88L374.956 596.869Z" fill="white"/>
<path opacity="0.5" d="M224.29 447.019C222.227 449.06 219.742 450.092 216.858 450.092C213.962 450.092 211.499 449.071 209.458 447.041L175.999 413.6L182.2 407.465L214.816 440.062C215.648 440.894 216.347 441.327 216.924 441.36C217.49 441.327 218.2 440.883 219.043 440.051L243.66 415.686C244.537 414.81 244.98 414.111 244.98 413.589C244.947 413.023 244.514 412.324 243.682 411.492L211.067 378.895L217.324 372.704L250.782 406.145C252.824 408.186 253.822 410.66 253.767 413.578C253.745 416.452 252.724 418.893 250.705 420.901L224.302 447.03L224.29 447.019Z" fill="white"/>
<path opacity="0.5" d="M511.41 732.595C509.346 734.636 506.861 735.668 503.977 735.668C501.081 735.668 498.618 734.647 496.577 732.617L463.118 699.177L469.32 693.041L501.935 725.638C502.767 726.47 503.466 726.903 504.043 726.936C504.609 726.903 505.319 726.459 506.162 725.627L530.779 701.262C531.656 700.386 532.1 699.687 532.1 699.165C532.066 698.6 531.634 697.901 530.802 697.069L498.186 664.471L504.443 658.28L537.902 691.721C539.943 693.762 540.941 696.236 540.886 699.154C540.864 702.028 539.843 704.469 537.824 706.477L511.421 732.606L511.41 732.595Z" fill="white"/>
<path opacity="0.5" d="M797.73 750.635C795.667 752.676 793.182 753.708 790.298 753.708C787.402 753.708 784.939 752.687 782.898 750.657L749.439 717.217L755.64 711.081L788.256 743.678C789.088 744.51 789.787 744.943 790.364 744.976C790.93 744.943 791.64 744.499 792.483 743.667L817.1 719.302C817.977 718.426 818.42 717.727 818.42 717.206C818.387 716.64 817.954 715.941 817.122 715.109L784.507 682.511L790.763 676.32L824.222 709.761C826.264 711.802 827.262 714.276 827.207 717.194C827.184 720.068 826.164 722.509 824.145 724.517L797.741 750.646L797.73 750.635Z" fill="white"/>
<path opacity="0.5" d="M221.928 177.92C219.864 179.962 217.379 180.993 214.495 180.993C211.599 180.993 209.136 179.973 207.095 177.942L173.636 144.502L179.838 138.366L212.454 170.963C213.286 171.796 213.984 172.228 214.561 172.262C215.127 172.228 215.837 171.784 216.68 170.952L241.297 146.588C242.174 145.711 242.618 145.012 242.618 144.491C242.584 143.925 242.152 143.226 241.32 142.394L208.704 109.797L214.961 103.605L248.42 137.046C250.461 139.087 251.459 141.562 251.404 144.48C251.382 147.353 250.361 149.794 248.342 151.802L221.939 177.931L221.928 177.92Z" fill="white"/>
<path opacity="0.5" d="M509.047 463.495C506.983 465.537 504.498 466.569 501.614 466.569C498.718 466.569 496.256 465.548 494.214 463.517L460.755 430.077L466.957 423.941L499.573 456.539C500.405 457.371 501.104 457.804 501.68 457.837C502.246 457.804 502.956 457.36 503.799 456.528L528.417 432.163C529.293 431.286 529.737 430.587 529.737 430.066C529.703 429.5 529.271 428.801 528.439 427.969L495.823 395.372L502.08 389.181L535.539 422.621C537.58 424.663 538.579 427.137 538.523 430.055C538.501 432.928 537.48 435.369 535.461 437.378L509.058 463.506L509.047 463.495Z" fill="white"/>
<path opacity="0.5" d="M358.382 313.646C356.318 315.687 353.833 316.719 350.949 316.719C348.053 316.719 345.591 315.698 343.549 313.668L310.09 280.227L316.292 274.092L348.908 306.689C349.74 307.521 350.439 307.954 351.015 307.987C351.581 307.954 352.291 307.51 353.134 306.678L377.752 282.313C378.628 281.437 379.072 280.738 379.072 280.216C379.038 279.65 378.606 278.951 377.774 278.119L345.158 245.522L351.415 239.331L384.874 272.772C386.915 274.813 387.913 277.287 387.858 280.205C387.836 283.079 386.815 285.52 384.796 287.528L358.393 313.657L358.382 313.646Z" fill="white"/>
<path opacity="0.5" d="M645.501 599.221C643.437 601.262 640.952 602.294 638.068 602.294C635.172 602.294 632.71 601.273 630.668 599.243L597.209 565.803L603.411 559.667L636.027 592.264C636.859 593.096 637.558 593.529 638.135 593.562C638.7 593.529 639.41 593.085 640.253 592.253L664.871 567.889C665.747 567.012 666.191 566.313 666.191 565.792C666.158 565.226 665.725 564.527 664.893 563.695L632.277 531.097L638.534 524.906L671.993 558.347C674.034 560.388 675.033 562.862 674.977 565.78C674.955 568.654 673.934 571.095 671.915 573.103L645.512 599.232L645.501 599.221Z" fill="white"/>
<path opacity="0.5" d="M936.558 612.546C934.495 614.588 932.01 615.619 929.126 615.619C926.23 615.619 923.767 614.599 921.726 612.568L888.267 579.128L894.468 572.992L927.084 605.589C927.916 606.422 928.615 606.854 929.192 606.888C929.758 606.854 930.468 606.41 931.311 605.578L955.928 581.214C956.805 580.337 957.248 579.638 957.248 579.117C957.215 578.551 956.783 577.852 955.951 577.02L923.335 544.422L929.592 538.231L963.051 571.672C965.092 573.713 966.09 576.188 966.035 579.106C966.013 581.979 964.992 584.42 962.973 586.428L936.57 612.557L936.558 612.546Z" fill="white"/>
<path opacity="0.5" d="M360.745 39.8429C358.681 41.8844 356.196 42.9162 353.312 42.9162C350.416 42.9162 347.953 41.8955 345.912 39.8651L312.453 6.42463L318.655 0.289078L351.27 32.8863C352.102 33.7184 352.801 34.1511 353.378 34.1844C353.944 34.1511 354.654 33.7074 355.497 32.8752L380.114 8.51051C380.991 7.634 381.435 6.93501 381.435 6.41354C381.401 5.8477 380.969 5.14871 380.137 4.31658L347.521 -28.2806L353.778 -34.4717L387.237 -1.03122C389.278 1.01027 390.276 3.48446 390.221 6.40245C390.199 9.27607 389.178 11.717 387.159 13.7252L360.756 39.854L360.745 39.8429Z" fill="white"/>
<path opacity="0.5" d="M647.875 325.417C645.811 327.459 643.326 328.49 640.442 328.49C637.547 328.49 635.084 327.47 633.042 325.439L599.583 291.999L605.785 285.863L638.401 318.461C639.233 319.293 639.932 319.725 640.509 319.759C641.074 319.725 641.784 319.282 642.628 318.449L667.245 294.085C668.121 293.208 668.565 292.509 668.565 291.988C668.532 291.422 668.099 290.723 667.267 289.891L634.651 257.294L640.908 251.103L674.367 284.543C676.408 286.584 677.407 289.059 677.351 291.977C677.329 294.85 676.308 297.291 674.289 299.299L647.886 325.428L647.875 325.417Z" fill="white"/>
<path opacity="0.5" d="M1073.01 748.273C1070.95 750.314 1068.46 751.346 1065.58 751.346C1062.68 751.346 1060.22 750.325 1058.18 748.295L1024.72 714.854L1030.92 708.719L1063.54 741.316C1064.37 742.148 1065.07 742.581 1065.65 742.614C1066.21 742.581 1066.92 742.137 1067.76 741.305L1092.38 716.94C1093.26 716.064 1093.7 715.365 1093.7 714.843C1093.67 714.277 1093.24 713.578 1092.4 712.746L1059.79 680.149L1066.05 673.958L1099.5 707.398C1101.55 709.44 1102.54 711.914 1102.49 714.832C1102.47 717.706 1101.45 720.147 1099.43 722.155L1073.02 748.284L1073.01 748.273Z" fill="white"/>
<path opacity="0.5" d="M497.21 175.568C495.146 177.609 492.661 178.641 489.777 178.641C486.882 178.641 484.419 177.62 482.377 175.59L448.918 142.149L455.12 136.014L487.736 168.611C488.568 169.443 489.267 169.876 489.844 169.909C490.409 169.876 491.119 169.432 491.962 168.6L516.58 144.235C517.456 143.359 517.9 142.66 517.9 142.138C517.867 141.572 517.434 140.873 516.602 140.041L483.986 107.444L490.243 101.253L523.702 134.693C525.743 136.735 526.742 139.209 526.686 142.127C526.664 145.001 525.643 147.442 523.624 149.45L497.221 175.579L497.21 175.568Z" fill="white"/>
<path opacity="0.5" d="M784.329 461.143C782.266 463.184 779.781 464.216 776.896 464.216C774.001 464.216 771.538 463.195 769.497 461.165L736.038 427.724L742.239 421.589L774.855 454.186C775.687 455.018 776.386 455.451 776.963 455.484C777.529 455.451 778.239 455.007 779.082 454.175L803.699 429.81C804.575 428.934 805.019 428.235 805.019 427.713C804.986 427.148 804.553 426.449 803.721 425.616L771.105 393.019L777.362 386.828L810.821 420.269C812.862 422.31 813.861 424.784 813.805 427.702C813.783 430.576 812.762 433.017 810.743 435.025L784.34 461.154L784.329 461.143Z" fill="white"/>
<path opacity="0.5" d="M1071.44 478.397C1069.37 480.438 1066.89 481.47 1064 481.47C1061.11 481.47 1058.65 480.449 1056.6 478.419L1023.15 444.978L1029.35 438.843L1061.96 471.44C1062.79 472.272 1063.49 472.705 1064.07 472.738C1064.64 472.705 1065.35 472.261 1066.19 471.429L1090.81 447.064C1091.68 446.188 1092.13 445.489 1092.13 444.967C1092.09 444.401 1091.66 443.702 1090.83 442.87L1058.21 410.273L1064.47 404.082L1097.93 437.523C1099.97 439.564 1100.97 442.038 1100.91 444.956C1100.89 447.83 1099.87 450.271 1097.85 452.279L1071.45 478.408L1071.44 478.397Z" fill="white"/>
<path opacity="0.5" d="M782.753 191.256C780.69 193.298 778.205 194.329 775.32 194.329C772.425 194.329 769.962 193.309 767.921 191.278L734.462 157.838L740.663 151.702L773.279 184.299C774.111 185.132 774.81 185.564 775.387 185.598C775.953 185.564 776.663 185.12 777.506 184.288L802.123 159.924C803 159.047 803.443 158.348 803.443 157.827C803.41 157.261 802.977 156.562 802.145 155.73L769.529 123.132L775.786 116.941L809.245 150.382C811.287 152.423 812.285 154.898 812.23 157.816C812.207 160.689 811.187 163.13 809.168 165.138L782.764 191.267L782.753 191.256Z" fill="white"/>
<path opacity="0.5" d="M1207.89 614.122C1205.83 616.164 1203.34 617.196 1200.46 617.196C1197.56 617.196 1195.1 616.175 1193.06 614.144L1159.6 580.704L1165.8 574.568L1198.42 607.166C1199.25 607.998 1199.95 608.43 1200.52 608.464C1201.09 608.43 1201.8 607.987 1202.64 607.154L1227.26 582.79C1228.14 581.913 1228.58 581.214 1228.58 580.693C1228.55 580.127 1228.12 579.428 1227.28 578.596L1194.67 545.999L1200.92 539.808L1234.38 573.248C1236.42 575.29 1237.42 577.764 1237.37 580.682C1237.35 583.555 1236.32 585.996 1234.31 588.004L1207.9 614.133L1207.89 614.122Z" fill="white"/>
<path opacity="0.5" d="M632.088 41.4064C630.025 43.4479 627.54 44.4797 624.655 44.4797C621.76 44.4797 619.297 43.459 617.256 41.4286L583.797 7.98812L589.998 1.85257L622.614 34.4498C623.446 35.2819 624.145 35.7146 624.722 35.7479C625.288 35.7146 625.998 35.2708 626.841 34.4387L651.458 10.074C652.334 9.19749 652.778 8.4985 652.778 7.97704C652.745 7.41119 652.312 6.7122 651.48 5.88007L618.864 -26.7172L625.121 -32.9082L658.58 0.532253C660.622 2.57374 661.62 5.04793 661.565 7.96593C661.542 10.8395 660.522 13.2805 658.503 15.2887L632.099 41.4175L632.088 41.4064Z" fill="white"/>
<path opacity="0.5" d="M919.207 326.982C917.144 329.023 914.659 330.055 911.775 330.055C908.879 330.055 906.416 329.034 904.375 327.004L870.916 293.563L877.117 287.428L909.733 320.025C910.565 320.857 911.264 321.29 911.841 321.323C912.407 321.29 913.117 320.846 913.96 320.014L938.577 295.649C939.454 294.773 939.897 294.074 939.897 293.552C939.864 292.986 939.431 292.287 938.599 291.455L905.984 258.858L912.241 252.667L945.7 286.107C947.741 288.149 948.739 290.623 948.684 293.541C948.661 296.415 947.641 298.856 945.622 300.864L919.218 326.993L919.207 326.982Z" fill="white"/>
<path opacity="0.5" d="M1207.1 343.458C1205.04 345.5 1202.55 346.531 1199.67 346.531C1196.78 346.531 1194.31 345.511 1192.27 343.48L1158.81 310.04L1165.01 303.904L1197.63 336.502C1198.46 337.334 1199.16 337.766 1199.74 337.8C1200.3 337.766 1201.01 337.323 1201.86 336.49L1226.47 312.126C1227.35 311.249 1227.79 310.55 1227.79 310.029C1227.76 309.463 1227.33 308.764 1226.5 307.932L1193.88 275.335L1200.14 269.144L1233.6 302.584C1235.64 304.626 1236.64 307.1 1236.58 310.018C1236.56 312.891 1235.54 315.332 1233.52 317.34L1207.11 343.469L1207.1 343.458Z" fill="white"/>
<path opacity="0.5" d="M1494.22 629.033C1492.16 631.075 1489.67 632.107 1486.79 632.107C1483.89 632.107 1481.43 631.086 1479.39 629.056L1445.93 595.615L1452.13 589.48L1484.75 622.077C1485.58 622.909 1486.28 623.342 1486.86 623.375C1487.42 623.342 1488.13 622.898 1488.98 622.066L1513.59 597.701C1514.47 596.824 1514.91 596.125 1514.91 595.604C1514.88 595.038 1514.45 594.339 1513.61 593.507L1481 560.91L1487.26 554.719L1520.71 588.159C1522.76 590.201 1523.75 592.675 1523.7 595.593C1523.68 598.467 1522.66 600.907 1520.64 602.916L1494.23 629.044L1494.22 629.033Z" fill="white"/>
<path opacity="0.5" d="M918.42 56.3185C916.356 58.36 913.871 59.3918 910.987 59.3918C908.091 59.3918 905.629 58.3711 903.587 56.3407L870.128 22.9002L876.33 16.7647L908.946 49.3619C909.778 50.194 910.477 50.6267 911.054 50.66C911.619 50.6267 912.329 50.1829 913.173 49.3508L937.79 24.9861C938.666 24.1096 939.11 23.4106 939.11 22.8891C939.077 22.3233 938.644 21.6243 937.812 20.7922L905.196 -11.8051L911.453 -17.9961L944.912 15.4444C946.953 17.4859 947.952 19.96 947.896 22.878C947.874 25.7517 946.853 28.1926 944.834 30.2008L918.431 56.3296L918.42 56.3185Z" fill="white"/>
<path opacity="0.5" d="M1343.57 479.184C1341.51 481.225 1339.02 482.257 1336.14 482.257C1333.24 482.257 1330.78 481.236 1328.74 479.206L1295.28 445.766L1301.48 439.63L1334.09 472.227C1334.93 473.059 1335.63 473.492 1336.2 473.525C1336.77 473.492 1337.48 473.048 1338.32 472.216L1362.94 447.851C1363.81 446.975 1364.26 446.276 1364.26 445.754C1364.23 445.189 1363.79 444.49 1362.96 443.657L1330.34 411.06L1336.6 404.869L1370.06 438.31C1372.1 440.351 1373.1 442.825 1373.05 445.743C1373.02 448.617 1372 451.058 1369.98 453.066L1343.58 479.195L1343.57 479.184Z" fill="white"/>
<path opacity="0.5" d="M1054.87 192.044C1052.81 194.086 1050.33 195.117 1047.44 195.117C1044.55 195.117 1042.08 194.097 1040.04 192.066L1006.58 158.626L1012.78 152.49L1045.4 185.088C1046.23 185.92 1046.93 186.352 1047.51 186.386C1048.07 186.352 1048.78 185.909 1049.63 185.076L1074.24 160.712C1075.12 159.835 1075.56 159.136 1075.56 158.615C1075.53 158.049 1075.1 157.35 1074.27 156.518L1041.65 123.921L1047.91 117.729L1081.37 151.17C1083.41 153.211 1084.41 155.686 1084.35 158.604C1084.33 161.477 1083.31 163.918 1081.29 165.926L1054.89 192.055L1054.87 192.044Z" fill="white"/>
<path opacity="0.5" d="M1346.72 204.593C1344.66 206.634 1342.17 207.666 1339.29 207.666C1336.39 207.666 1333.93 206.645 1331.89 204.615L1298.43 171.175L1304.63 165.039L1337.25 197.636C1338.08 198.468 1338.78 198.901 1339.35 198.934C1339.92 198.901 1340.63 198.457 1341.47 197.625L1366.09 173.261C1366.97 172.384 1367.41 171.685 1367.41 171.164C1367.38 170.598 1366.94 169.899 1366.11 169.067L1333.5 136.469L1339.75 130.278L1373.21 163.719C1375.25 165.76 1376.25 168.234 1376.2 171.152C1376.17 174.026 1375.15 176.467 1373.13 178.475L1346.73 204.604L1346.72 204.593Z" fill="white"/>
<path opacity="0.5" d="M1633.84 490.168C1631.77 492.21 1629.29 493.241 1626.41 493.241C1623.51 493.241 1621.05 492.221 1619.01 490.19L1585.55 456.75L1591.75 450.614L1624.36 483.212C1625.2 484.044 1625.9 484.476 1626.47 484.51C1627.04 484.476 1627.75 484.033 1628.59 483.2L1653.21 458.836C1654.08 457.959 1654.53 457.26 1654.53 456.739C1654.49 456.173 1654.06 455.474 1653.23 454.642L1620.61 422.045L1626.87 415.854L1660.33 449.294C1662.37 451.335 1663.37 453.81 1663.31 456.728C1663.29 459.601 1662.27 462.042 1660.25 464.05L1633.85 490.179L1633.84 490.168Z" fill="white"/>
<path opacity="0.5" d="M1483.17 340.319C1481.11 342.36 1478.62 343.392 1475.74 343.392C1472.84 343.392 1470.38 342.371 1468.34 340.341L1434.88 306.9L1441.08 300.765L1473.7 333.362C1474.53 334.194 1475.23 334.627 1475.81 334.66C1476.37 334.627 1477.08 334.183 1477.93 333.351L1502.54 308.986C1503.42 308.11 1503.86 307.411 1503.86 306.889C1503.83 306.323 1503.4 305.624 1502.57 304.792L1469.95 272.195L1476.21 266.004L1509.67 299.444C1511.71 301.486 1512.7 303.96 1512.65 306.878C1512.63 309.752 1511.61 312.193 1509.59 314.201L1483.18 340.33L1483.17 340.319Z" fill="white"/>
<path opacity="0.5" d="M1770.3 625.894C1768.24 627.935 1765.76 628.967 1762.87 628.967C1759.98 628.967 1757.51 627.946 1755.47 625.916L1722.01 592.475L1728.21 586.34L1760.83 618.937C1761.66 619.769 1762.36 620.202 1762.94 620.235C1763.5 620.202 1764.21 619.758 1765.06 618.926L1789.67 594.561C1790.55 593.685 1790.99 592.986 1790.99 592.464C1790.96 591.898 1790.53 591.199 1789.7 590.367L1757.08 557.77L1763.34 551.579L1796.8 585.02C1798.84 587.061 1799.84 589.535 1799.78 592.453C1799.76 595.327 1798.74 597.768 1796.72 599.776L1770.31 625.905L1770.3 625.894Z" fill="white"/>
<path opacity="0.5" d="M1194.49 53.1788C1192.43 55.2203 1189.94 56.2522 1187.06 56.2522C1184.16 56.2522 1181.7 55.2314 1179.66 53.201L1146.2 19.7606L1152.4 13.625L1185.02 46.2223C1185.85 47.0544 1186.55 47.4871 1187.12 47.5204C1187.69 47.4871 1188.4 47.0433 1189.24 46.2112L1213.86 21.8465C1214.74 20.9699 1215.18 20.271 1215.18 19.7495C1215.15 19.1836 1214.71 18.4847 1213.88 17.6525L1181.27 -14.9447L1187.52 -21.1357L1220.98 12.3047C1223.02 14.3462 1224.02 16.8204 1223.97 19.7384C1223.94 22.612 1222.92 25.0529 1220.9 27.0611L1194.5 53.1899L1194.49 53.1788Z" fill="white"/>
<path opacity="0.5" d="M1484.76 67.3029C1482.7 69.3444 1480.21 70.3762 1477.33 70.3762C1474.43 70.3762 1471.97 69.3555 1469.93 67.3251L1436.47 33.8846L1442.67 27.7491L1475.29 60.3463C1476.12 61.1784 1476.82 61.6111 1477.39 61.6444C1477.96 61.6111 1478.67 61.1673 1479.51 60.3352L1504.13 35.9705C1505.01 35.094 1505.45 34.395 1505.45 33.8735C1505.42 33.3077 1504.98 32.6087 1504.15 31.7766L1471.54 -0.820683L1477.79 -7.01172L1511.25 26.4288C1513.29 28.4702 1514.29 30.9444 1514.24 33.8624C1514.21 36.736 1513.19 39.1769 1511.17 41.1851L1484.77 67.314L1484.76 67.3029Z" fill="white"/>
<path opacity="0.5" d="M1771.88 352.878C1769.82 354.92 1767.33 355.951 1764.45 355.951C1761.55 355.951 1759.09 354.931 1757.05 352.9L1723.59 319.46L1729.79 313.324L1762.4 345.921C1763.24 346.754 1763.94 347.186 1764.51 347.22C1765.08 347.186 1765.79 346.742 1766.63 345.91L1791.25 321.546C1792.13 320.669 1792.57 319.97 1792.57 319.449C1792.54 318.883 1792.1 318.184 1791.27 317.352L1758.65 284.754L1764.91 278.563L1798.37 312.004C1800.41 314.045 1801.41 316.52 1801.36 319.438C1801.33 322.311 1800.31 324.752 1798.29 326.76L1771.89 352.889L1771.88 352.878Z" fill="white"/>
<path opacity="0.5" d="M1621.21 203.027C1619.15 205.069 1616.66 206.101 1613.78 206.101C1610.88 206.101 1608.42 205.08 1606.38 203.05L1572.92 169.609L1579.12 163.474L1611.74 196.071C1612.57 196.903 1613.27 197.336 1613.85 197.369C1614.41 197.336 1615.12 196.892 1615.97 196.06L1640.58 171.695C1641.46 170.819 1641.9 170.12 1641.9 169.598C1641.87 169.032 1641.44 168.333 1640.61 167.501L1607.99 134.904L1614.25 128.713L1647.71 162.153C1649.75 164.195 1650.75 166.669 1650.69 169.587C1650.67 172.461 1649.65 174.902 1647.63 176.91L1621.22 203.039L1621.21 203.027Z" fill="white"/>
<path opacity="0.5" d="M1908.33 488.604C1906.27 490.645 1903.78 491.677 1900.9 491.677C1898 491.677 1895.54 490.656 1893.5 488.626L1860.04 455.185L1866.24 449.05L1898.86 481.647C1899.69 482.479 1900.39 482.912 1900.97 482.945C1901.53 482.912 1902.24 482.468 1903.09 481.636L1927.7 457.271C1928.58 456.395 1929.02 455.696 1929.02 455.174C1928.99 454.608 1928.56 453.909 1927.72 453.077L1895.11 420.48L1901.37 414.289L1934.82 447.729C1936.87 449.771 1937.86 452.245 1937.81 455.163C1937.79 458.037 1936.77 460.478 1934.75 462.486L1908.34 488.615L1908.33 488.604Z" fill="white"/>
<path opacity="0.5" d="M1909.91 215.588C1907.84 217.63 1905.36 218.661 1902.48 218.661C1899.58 218.661 1897.12 217.641 1895.08 215.61L1861.62 182.17L1867.82 176.034L1900.43 208.631C1901.27 209.464 1901.96 209.896 1902.54 209.93C1903.11 209.896 1903.82 209.452 1904.66 208.62L1929.28 184.256C1930.15 183.379 1930.6 182.68 1930.6 182.159C1930.56 181.593 1930.13 180.894 1929.3 180.062L1896.68 147.464L1902.94 141.273L1936.4 174.714C1938.44 176.755 1939.44 179.23 1939.38 182.148C1939.36 185.021 1938.34 187.462 1936.32 189.47L1909.92 215.599L1909.91 215.588Z" fill="white"/>
<path opacity="0.5" d="M238.613 732.484C236.549 734.525 234.064 735.557 231.18 735.557C228.284 735.557 225.822 734.536 223.78 732.506L190.321 699.065L196.523 692.93L229.139 725.527C229.971 726.359 230.67 726.792 231.246 726.825C231.812 726.792 232.522 726.348 233.365 725.516L257.982 701.151C258.859 700.275 259.303 699.576 259.303 699.054C259.269 698.488 258.837 697.789 258.005 696.957L225.389 664.36L231.646 658.169L265.105 691.609C267.146 693.651 268.144 696.125 268.089 699.043C268.067 701.917 267.046 704.358 265.027 706.366L238.624 732.495L238.613 732.484Z" fill="white"/>
<path opacity="0.5" d="M1759.24 65.7267C1757.18 67.7682 1754.69 68.8 1751.81 68.8C1748.91 68.8 1746.45 67.7793 1744.41 65.7489L1710.95 32.3084L1717.15 26.1729L1749.77 58.7701C1750.6 59.6022 1751.3 60.035 1751.88 60.0682C1752.44 60.035 1753.15 59.5912 1754 58.759L1778.61 34.3943C1779.49 33.5178 1779.93 32.8188 1779.93 32.2973C1779.9 31.7315 1779.47 31.0325 1778.63 30.2004L1746.02 -2.39685L1752.28 -8.58789L1785.73 24.8526C1787.78 26.8941 1788.77 29.3683 1788.72 32.2863C1788.7 35.1599 1787.68 37.6008 1785.66 39.609L1759.25 65.7378L1759.24 65.7267Z" fill="white"/>
<path opacity="0.5" d="M87.9477 582.623C85.8842 584.665 83.3992 585.697 80.5148 585.697C77.6193 585.697 75.1565 584.676 73.1152 582.645L39.6562 549.205L45.8577 543.069L78.4735 575.667C79.3056 576.499 80.0045 576.931 80.5814 576.965C81.1471 576.931 81.8572 576.488 82.7003 575.656L107.317 551.291C108.194 550.414 108.638 549.715 108.638 549.194C108.604 548.628 108.172 547.929 107.34 547.097L74.7238 514.5L80.9807 508.309L114.44 541.749C116.481 543.791 117.479 546.265 117.424 549.183C117.402 552.056 116.381 554.497 114.362 556.505L87.9588 582.634L87.9477 582.623Z" fill="white"/>
</g>
<defs>
<clipPath id="clip0_4208_40127">
<rect width="1918" height="688" fill="white"/>
</clipPath>
</defs>
</svg>
