<svg width="184" height="53" viewBox="0 0 184 53" fill="none" xmlns="http://www.w3.org/2000/svg">
<g clip-path="url(#clip0_4109_791)">
<path fill-rule="evenodd" clip-rule="evenodd" d="M6.46027 35.7406C4.671 35.7406 3.14674 35.1122 1.88841 33.8543C0.629163 32.5974 0 31.0746 0 29.288V0H5.36688V28.5423C5.36688 29.2704 5.48363 29.7669 5.71528 30.0309C5.98029 30.2634 6.47787 30.3788 7.20618 30.3788H28.5245C29.2862 30.3788 29.7838 30.2634 30.0154 30.0309C30.2471 29.7669 30.3638 29.2695 30.3638 28.5423V0H35.7807V29.2871C35.7807 31.0737 35.1349 32.5964 33.8423 33.8534C32.584 35.1112 31.0764 35.7397 29.3205 35.7397H6.46027V35.7406Z" fill="black"/>
<path fill-rule="evenodd" clip-rule="evenodd" d="M47.7126 35.7406V0H54.1229L67.9876 16.4805L81.8023 0H88.2617V35.7406H82.8457V7.19741L67.9876 24.8693L53.0786 7.19741V35.7406H47.7126Z" fill="black"/>
<path fill-rule="evenodd" clip-rule="evenodd" d="M107.629 14.8424H127.506C128.235 14.8424 128.715 14.7261 128.947 14.4954C129.179 14.2305 129.295 13.734 129.295 13.0059V7.19833C129.295 6.47019 129.179 5.9903 128.947 5.75866C128.715 5.4938 128.235 5.36183 127.506 5.36183H107.629C106.9 5.36183 106.404 5.4938 106.139 5.75866C105.906 5.9903 105.79 6.47019 105.79 7.19833V13.0059C105.79 13.734 105.906 14.2305 106.139 14.4954C106.404 14.727 106.9 14.8424 107.629 14.8424ZM107.629 30.3797H128.948C129.676 30.3797 130.157 30.2644 130.39 30.0318C130.654 29.7679 130.787 29.2704 130.787 28.5432V22.0407C130.787 21.3126 130.655 20.8327 130.39 20.6011C130.157 20.3362 129.677 20.2042 128.948 20.2042H107.629C106.9 20.2042 106.404 20.3362 106.139 20.6011C105.906 20.8327 105.79 21.3126 105.79 22.0407V28.5432C105.79 29.2714 105.906 29.7679 106.139 30.0318C106.404 30.2644 106.9 30.3797 107.629 30.3797ZM100.424 35.7406V0H128.253C130.041 0 131.565 0.62847 132.824 1.88633C134.083 3.14327 134.712 4.66599 134.712 6.45266V13.7497C134.712 14.1807 134.662 14.6098 134.564 15.0399C134.497 15.4699 134.365 15.8677 134.166 16.2313C134.829 17.1579 135.326 18.0189 135.657 18.8126C136.021 19.6062 136.204 20.4349 136.204 21.2941V29.2861C136.204 31.0728 135.558 32.5955 134.266 33.8525C133.007 35.1103 131.484 35.7388 129.695 35.7388H100.425L100.424 35.7406Z" fill="black"/>
<path fill-rule="evenodd" clip-rule="evenodd" d="M154.541 35.7407C152.753 35.7407 151.228 35.1122 149.971 33.8543C148.711 32.5974 148.081 31.0747 148.081 29.288V6.45363C148.081 4.66697 148.711 3.14425 149.971 1.88731C151.229 0.629446 152.753 0.000976562 154.541 0.000976562H177.351C179.172 0.000976562 180.713 0.629446 181.973 1.88731C183.231 3.14425 183.861 4.66697 183.861 6.45363V8.58821H178.444V7.19838C178.444 6.47024 178.312 5.99036 178.047 5.75872C177.815 5.49386 177.334 5.36189 176.606 5.36189H155.286C154.558 5.36189 154.061 5.49386 153.796 5.75872C153.564 5.99036 153.448 6.47024 153.448 7.19838V28.5433C153.448 29.2714 153.564 29.7679 153.796 30.0319C154.061 30.2644 154.558 30.3798 155.286 30.3798H176.606C177.334 30.3798 177.815 30.2644 178.047 30.0319C178.312 29.7679 178.444 29.2705 178.444 28.5433V21.5443H169.996V16.1335H183.861V29.288C183.861 31.0747 183.231 32.5974 181.973 33.8543C180.713 35.1122 179.172 35.7407 177.351 35.7407H154.541Z" fill="black"/>
<path fill-rule="evenodd" clip-rule="evenodd" d="M3.30987 52.989C2.27115 52.989 1.48354 52.7195 0.945182 52.1806C0.407753 51.6416 0.139038 50.9098 0.139038 49.9842V45.5701H1.43443V49.9408C1.43443 50.5305 1.59751 50.9975 1.92275 51.3389C2.24798 51.6813 2.71129 51.852 3.3108 51.852C3.91031 51.852 4.37176 51.6813 4.69329 51.3389C5.01482 50.9965 5.17605 50.5305 5.17605 49.9408V45.5701H6.47051V49.9731C6.47051 50.9052 6.2018 51.6416 5.66437 52.1806C5.12694 52.7195 4.34211 52.989 3.3108 52.989H3.30987ZM14.3689 52.858H13.1291L9.31147 47.6567V52.858H8.02813V45.5701H9.34483L13.0855 50.6292V45.5701H14.3689V52.858ZM17.2108 52.858H15.9274V45.5701H17.2108V52.858ZM21.7965 52.858H20.5132V46.6951H18.2967V45.5692H24.0129V46.6951H21.7965V52.858ZM30.1128 52.858H25.0989V45.5701H30.1128V46.696H26.3823V48.586H30.0359V49.7119H26.3823V51.733H30.1128V52.8589V52.858ZM34.15 52.858H31.4295V45.5701H34.15C35.2832 45.5701 36.2052 45.9088 36.915 46.5862C37.6247 47.2636 37.9787 48.1412 37.9787 49.2191C37.9787 50.297 37.6257 51.1645 36.9196 51.8419C36.2135 52.5193 35.2906 52.858 34.149 52.858H34.15ZM34.15 51.7321C34.9181 51.7321 35.5288 51.4921 35.9819 51.0113C36.435 50.5305 36.662 49.9334 36.662 49.2191C36.662 48.5048 36.4405 47.8791 35.9985 47.4057C35.5556 46.9323 34.9394 46.6951 34.15 46.6951H32.7128V51.7321H34.15ZM49.6409 52.858H48.3576V47.4491L46.1087 52.858H45.5601L43.3224 47.4491V52.858H42.0391V45.5701H43.8496L45.8353 50.3672L47.8322 45.5701H49.6428V52.858H49.6409ZM57.7811 52.858H56.3217L55.7843 51.4589H52.4272L51.8898 52.858H50.4304L53.3047 45.5701H54.9068L57.7811 52.858ZM55.422 50.3339L54.1053 46.8594L52.7886 50.3339H55.422ZM61.708 52.989C60.6109 52.989 59.6964 52.6374 58.9653 51.9342C58.2342 51.231 57.8682 50.3265 57.8682 49.2191C57.8682 48.1117 58.2342 47.2063 58.9653 46.5041C59.6964 45.8008 60.6109 45.4492 61.708 45.4492C62.9803 45.4492 63.9606 45.9956 64.6481 47.0882L63.5511 47.6456C63.3685 47.3328 63.11 47.0771 62.7773 46.8806C62.4447 46.684 62.088 46.5853 61.708 46.5853C60.9844 46.5853 60.3821 46.8326 59.903 47.3282C59.424 47.8237 59.184 48.4541 59.184 49.2182C59.184 49.9823 59.424 50.6136 59.903 51.1082C60.3821 51.6038 60.9834 51.8511 61.708 51.8511C62.0954 51.8511 62.454 51.7524 62.7829 51.5558C63.1118 51.3592 63.3676 51.1045 63.5511 50.7907L64.6481 51.3482C63.9458 52.4408 62.9664 52.9872 61.708 52.9872V52.989ZM72.0536 52.858H70.7702V49.6787H66.9637V52.858H65.6804V45.5701H66.9637V48.5528H70.7702V45.5701H72.0536V52.858ZM74.8954 52.858H73.6121V45.5701H74.8954V52.858ZM82.7947 52.858H81.5549L77.7373 47.6567V52.858H76.454V45.5701H77.7707L81.5114 50.6292V45.5701H82.7947V52.858ZM89.3662 52.858H84.3523V45.5701H89.3662V46.696H85.6357V48.586H89.2893V49.7119H85.6357V51.733H89.3662V52.8589V52.858ZM97.1997 52.858H93.5025V45.5701H97.1005C97.7519 45.5701 98.2616 45.7464 98.6313 46.0998C99.001 46.4533 99.1854 46.8953 99.1854 47.4278C99.1854 47.8653 99.0631 48.2344 98.8175 48.5371C98.5729 48.8398 98.2708 49.0272 97.9122 49.1001C98.307 49.1582 98.6415 49.3603 98.9157 49.7064C99.19 50.0525 99.3272 50.4474 99.3272 50.8923C99.3272 51.4746 99.1391 51.948 98.7619 52.3125C98.3848 52.6771 97.8641 52.8589 97.1988 52.8589L97.1997 52.858ZM96.8374 48.586C97.1589 48.586 97.4119 48.4984 97.5944 48.3239C97.777 48.1495 97.8687 47.9234 97.8687 47.6466C97.8687 47.3697 97.777 47.1334 97.5944 46.9581C97.4119 46.7837 97.1589 46.696 96.8374 46.696H94.7859V48.586H96.8374ZM96.8921 51.733C97.2432 51.733 97.5175 51.6435 97.7149 51.4654C97.9122 51.2872 98.0114 51.0372 98.0114 50.7169C98.0114 50.4327 97.9122 50.1946 97.7149 50.0008C97.5175 49.8079 97.2432 49.711 96.8921 49.711H94.7859V51.7321H96.8921V51.733ZM103.781 52.9899C102.743 52.9899 101.955 52.7205 101.417 52.1815C100.879 51.6425 100.611 50.9107 100.611 49.9851V45.571H101.905V49.9417C101.905 50.5314 102.068 50.9984 102.393 51.3398C102.719 51.6822 103.182 51.853 103.781 51.853C104.381 51.853 104.842 51.6822 105.164 51.3398C105.485 50.9975 105.647 50.5314 105.647 49.9417V45.571H106.941V49.974C106.941 50.9061 106.672 51.6425 106.135 52.1815C105.597 52.7205 104.813 52.9899 103.781 52.9899ZM109.782 52.8589H108.499V45.571H109.782V52.8589ZM115.848 52.8589H111.34V45.571H112.623V51.7339H115.848V52.8598V52.8589ZM119.732 52.8589H117.011V45.571H119.732C120.865 45.571 121.787 45.9097 122.497 46.5871C123.207 47.2645 123.561 48.1421 123.561 49.22C123.561 50.2979 123.208 51.1654 122.501 51.8428C121.795 52.5202 120.873 52.8589 119.731 52.8589H119.732ZM119.732 51.733C120.5 51.733 121.111 51.493 121.564 51.0122C122.017 50.5314 122.244 49.9343 122.244 49.22C122.244 48.5057 122.022 47.88 121.58 47.4066C121.138 46.9332 120.521 46.696 119.732 46.696H118.295V51.733H119.732ZM129.814 52.8589H124.8V45.571H129.814V46.6969H126.084V48.5869H129.737V49.7128H126.084V51.7339H129.814V52.8598V52.8589ZM136.792 52.8589H135.311L133.687 50.1383H132.415V52.8589H131.132V45.571H134.346C135.063 45.571 135.641 45.7824 136.08 46.205C136.519 46.6277 136.738 47.1777 136.738 47.8551C136.738 48.467 136.569 48.957 136.233 49.3243C135.896 49.6925 135.487 49.9159 135.004 49.9962L136.792 52.8589H136.792ZM134.169 49.0124C134.535 49.0124 134.835 48.9072 135.069 48.6958C135.303 48.4845 135.42 48.204 135.42 47.8542C135.42 47.5044 135.303 47.2239 135.069 47.0125C134.835 46.8012 134.535 46.696 134.169 46.696H132.414V49.0124H134.169ZM140.521 52.9899C139.263 52.9899 138.272 52.6042 137.548 51.8317L138.261 50.848C138.89 51.518 139.662 51.853 140.576 51.853C141.066 51.853 141.433 51.7542 141.678 51.5576C141.923 51.3611 142.046 51.1276 142.046 50.8581C142.046 50.5886 141.9 50.3607 141.607 50.1973C141.314 50.0331 140.959 49.9039 140.543 49.8097C140.126 49.7147 139.708 49.6021 139.287 49.4711C138.866 49.34 138.509 49.1176 138.218 48.8047C137.925 48.4919 137.778 48.0877 137.778 47.5921C137.778 46.9802 138.025 46.4717 138.519 46.0675C139.013 45.6633 139.654 45.4612 140.444 45.4612C141.571 45.4612 142.485 45.7999 143.187 46.4773L142.452 47.4278C141.896 46.8741 141.19 46.5973 140.335 46.5973C139.955 46.5973 139.653 46.6794 139.43 46.8427C139.206 47.007 139.095 47.2267 139.095 47.5035C139.095 47.6853 139.174 47.8385 139.331 47.9622C139.489 48.0858 139.692 48.1864 139.94 48.263C140.188 48.3396 140.465 48.4144 140.769 48.4873C141.072 48.5602 141.375 48.6497 141.679 48.7549C141.983 48.8601 142.259 48.9902 142.508 49.1425C142.756 49.2957 142.959 49.507 143.117 49.7765C143.274 50.046 143.353 50.3662 143.353 50.7381C143.353 51.3934 143.115 51.9323 142.639 52.355C142.164 52.7777 141.458 52.989 140.522 52.989L140.521 52.9899ZM150.867 53.001C149.784 53.001 148.873 52.6512 148.135 51.9517C147.396 51.2522 147.027 50.3422 147.027 49.22C147.027 48.0978 147.396 47.1897 148.135 46.4939C148.873 45.7981 149.784 45.4501 150.867 45.4501C152.125 45.4501 153.108 45.9568 153.818 46.9692L152.764 47.5589C152.56 47.2746 152.291 47.0421 151.958 46.8594C151.626 46.6775 151.261 46.5862 150.867 46.5862C150.143 46.5862 149.541 46.8335 149.062 47.3291C148.583 47.8247 148.343 48.455 148.343 49.2191C148.343 49.9832 148.583 50.6163 149.062 51.1147C149.541 51.6139 150.142 51.8631 150.867 51.8631C151.21 51.8631 151.537 51.7976 151.849 51.6665C152.159 51.5355 152.41 51.3823 152.6 51.2079V50.0718H150.417V48.9469H153.884V51.6785C153.087 52.5599 152.08 53.001 150.867 53.001ZM160.883 52.8589H159.402L157.779 50.1383H156.507V52.8589H155.223V45.571H158.438C159.155 45.571 159.732 45.7824 160.172 46.205C160.611 46.6277 160.829 47.1777 160.829 47.8551C160.829 48.467 160.661 48.957 160.324 49.3243C159.988 49.6925 159.579 49.9159 159.096 49.9962L160.884 52.8589H160.883ZM158.261 49.0124C158.627 49.0124 158.926 48.9072 159.161 48.6958C159.395 48.4845 159.512 48.204 159.512 47.8542C159.512 47.5044 159.395 47.2239 159.161 47.0125C158.926 46.8012 158.627 46.696 158.261 46.696H156.506V49.0124H158.261ZM168.212 51.924C167.509 52.6346 166.613 52.989 165.524 52.989C164.434 52.989 163.538 52.6337 162.836 51.924C162.133 51.2134 161.782 50.3127 161.782 49.22C161.782 48.1274 162.133 47.2257 162.836 46.516C163.538 45.8054 164.434 45.4511 165.524 45.4511C166.613 45.4511 167.509 45.8064 168.212 46.516C168.914 47.2267 169.265 48.1274 169.265 49.22C169.265 50.3127 168.914 51.2143 168.212 51.924ZM165.524 51.853C166.247 51.853 166.833 51.6038 167.279 51.1045C167.724 50.6053 167.948 49.9768 167.948 49.22C167.948 48.4633 167.724 47.8247 167.279 47.33C166.832 46.8344 166.247 46.5871 165.524 46.5871C164.8 46.5871 164.205 46.8344 163.763 47.33C163.32 47.8256 163.1 48.4559 163.1 49.22C163.1 49.9842 163.321 50.6154 163.763 51.1101C164.206 51.6056 164.793 51.853 165.524 51.853ZM173.675 52.989C172.636 52.989 171.849 52.7195 171.31 52.1806C170.773 51.6416 170.504 50.9098 170.504 49.9842V45.5701H171.799V49.9408C171.799 50.5305 171.962 50.9975 172.287 51.3389C172.612 51.6813 173.075 51.852 173.675 51.852C174.274 51.852 174.736 51.6813 175.057 51.3389C175.379 50.9965 175.54 50.5305 175.54 49.9408V45.5701H176.835V49.9731C176.835 50.9052 176.566 51.6416 176.029 52.1806C175.491 52.7195 174.706 52.989 173.675 52.989ZM179.676 52.858H178.392V45.5701H181.607C182.345 45.5701 182.929 45.7888 183.356 46.2253C183.784 46.6628 183.998 47.2054 183.998 47.8533C183.998 48.5011 183.784 49.0355 183.356 49.4757C182.928 49.9168 182.345 50.1364 181.607 50.1364H179.676V52.857V52.858ZM181.431 49.0115C181.797 49.0115 182.096 48.9063 182.33 48.6949C182.565 48.4836 182.682 48.203 182.682 47.8533C182.682 47.5035 182.565 47.223 182.33 47.0116C182.096 46.8003 181.797 46.6951 181.431 46.6951H179.676V49.0115H181.431Z" fill="black"/>
</g>
<defs>
<clipPath id="clip0_4109_791">
<rect width="184" height="53" fill="white"/>
</clipPath>
</defs>
</svg>
