<svg width="20" height="20" viewBox="0 0 20 20" fill="none" xmlns="http://www.w3.org/2000/svg">
<path d="M10.0004 13.3324C9.80568 13.3328 9.61699 13.265 9.46706 13.1408L4.46706 8.97409C4.29688 8.83264 4.18986 8.62938 4.16954 8.40903C4.14923 8.18867 4.21728 7.96927 4.35873 7.79909C4.50017 7.62891 4.70343 7.52189 4.92379 7.50157C5.14414 7.48126 5.36355 7.54931 5.53373 7.69076L10.0004 11.4241L14.4671 7.82409C14.5523 7.75487 14.6504 7.70318 14.7557 7.67198C14.8609 7.64079 14.9714 7.63071 15.0805 7.64233C15.1897 7.65394 15.2956 7.68702 15.3919 7.73967C15.4883 7.79231 15.5733 7.86348 15.6421 7.94909C15.7184 8.03477 15.7762 8.1353 15.8118 8.24436C15.8475 8.35342 15.8602 8.46867 15.8493 8.58289C15.8383 8.69711 15.8039 8.80784 15.7482 8.90813C15.6924 9.00843 15.6166 9.09614 15.5254 9.16576L10.5254 13.1908C10.3712 13.2954 10.1863 13.3452 10.0004 13.3324Z" fill="white"/>
</svg>
