<svg width="20" height="21" viewBox="0 0 20 21" fill="none" xmlns="http://www.w3.org/2000/svg">
<path d="M9.9999 13.8324C9.80519 13.8328 9.6165 13.765 9.46657 13.6408L4.46657 9.47409C4.29639 9.33264 4.18937 9.12938 4.16905 8.90903C4.14874 8.68867 4.21679 8.46927 4.35824 8.29909C4.49969 8.12891 4.70295 8.02189 4.9233 8.00157C5.14366 7.98126 5.36306 8.04931 5.53324 8.19076L9.9999 11.9241L14.4666 8.32409C14.5518 8.25487 14.6499 8.20318 14.7552 8.17198C14.8605 8.14079 14.9709 8.13071 15.0801 8.14233C15.1892 8.15394 15.2951 8.18702 15.3914 8.23967C15.4878 8.29231 15.5728 8.36348 15.6416 8.44909C15.7179 8.53477 15.7757 8.6353 15.8113 8.74436C15.847 8.85342 15.8598 8.96867 15.8488 9.08289C15.8379 9.19711 15.8034 9.30784 15.7477 9.40813C15.692 9.50843 15.6161 9.59614 15.5249 9.66576L10.5249 13.6908C10.3707 13.7954 10.1858 13.8452 9.9999 13.8324Z" fill="#00D45F"/>
</svg>
