<svg width="16" height="16" viewBox="0 0 16 16" fill="none" xmlns="http://www.w3.org/2000/svg">
<path fill-rule="evenodd" clip-rule="evenodd" d="M11 0.349609C11.359 0.349609 11.65 0.640624 11.65 0.999609V3.99961C11.65 4.35859 11.359 4.64961 11 4.64961C10.641 4.64961 10.35 4.35859 10.35 3.99961V0.999609C10.35 0.640624 10.641 0.349609 11 0.349609Z" fill="#272833"/>
<path fill-rule="evenodd" clip-rule="evenodd" d="M11 3.29961H5C3.50883 3.29961 2.3 4.50844 2.3 5.99961V11.9996C2.3 13.4908 3.50883 14.6996 5 14.6996H11C12.4912 14.6996 13.7 13.4908 13.7 11.9996V5.99961C13.7 4.50844 12.4912 3.29961 11 3.29961ZM5 1.99961C2.79086 1.99961 1 3.79047 1 5.99961V11.9996C1 14.2087 2.79086 15.9996 5 15.9996H11C13.2091 15.9996 15 14.2087 15 11.9996V5.99961C15 3.79047 13.2091 1.99961 11 1.99961H5Z" fill="#272833"/>
<path fill-rule="evenodd" clip-rule="evenodd" d="M14.65 5.99961C14.65 6.35859 14.359 6.64961 14 6.64961H2C1.64102 6.64961 1.35 6.35859 1.35 5.99961C1.35 5.64062 1.64102 5.34961 2 5.34961H14C14.359 5.34961 14.65 5.64062 14.65 5.99961Z" fill="#272833"/>
<path fill-rule="evenodd" clip-rule="evenodd" d="M5 0.349609C5.35898 0.349609 5.65 0.640624 5.65 0.999609V3.99961C5.65 4.35859 5.35898 4.64961 5 4.64961C4.64102 4.64961 4.35 4.35859 4.35 3.99961V0.999609C4.35 0.640624 4.64102 0.349609 5 0.349609Z" fill="#272833"/>
</svg>
