<svg width="18" height="18" viewBox="0 0 18 18" fill="none" xmlns="http://www.w3.org/2000/svg">
<path fill-rule="evenodd" clip-rule="evenodd" d="M12.3591 3.138C12.3952 3.16616 13.6033 4.10487 13.6033 4.10487C14.0423 4.36626 14.3853 4.83345 14.5153 5.38657C14.6445 5.93391 14.5507 6.49858 14.2496 6.97587C14.2475 6.97906 14.2455 6.9822 14.2386 6.99156L14.2331 6.99879C14.1843 7.0632 13.9718 7.33185 12.8995 8.67536C12.8895 8.69297 12.8782 8.70946 12.8659 8.72548C12.8478 8.7491 12.8281 8.77081 12.8071 8.79058C12.734 8.88267 12.6567 8.97944 12.5755 9.08118L12.4109 9.28731C12.0713 9.7126 11.6685 10.2169 11.1907 10.8151L10.9454 11.122C10.0228 12.2768 8.84127 13.7552 7.32766 15.6488C6.99623 16.0618 6.49943 16.3023 5.96582 16.3088L3.33815 16.342H3.33093C3.08037 16.342 2.8623 16.1702 2.80381 15.9254L2.21243 13.419C2.09039 12.8998 2.2117 12.3641 2.54459 11.9481L9.34661 3.44055C9.3495 3.43766 9.35166 3.43405 9.35455 3.43117C10.1005 2.53939 11.4493 2.40797 12.3591 3.138ZM8.58822 6.12263L3.39014 12.6247C3.26667 12.7793 3.22118 12.9786 3.26667 13.1699L3.75841 15.2531L5.95282 15.2257C6.1615 15.2235 6.3543 15.1304 6.4821 14.9715C7.14027 14.148 7.96747 13.113 8.81794 12.0488L9.11883 11.6722L9.42024 11.2951C10.2178 10.2969 11.0058 9.31067 11.6651 8.48519L8.58822 6.12263ZM10.1886 4.1222L9.26482 5.27635L12.3414 7.63823C12.9336 6.89648 13.3232 6.40795 13.3592 6.36138C13.4776 6.16931 13.5239 5.8978 13.4618 5.63641C13.3982 5.36852 13.2314 5.14106 12.991 4.99592C12.9397 4.96054 11.723 4.01605 11.6854 3.98645C11.2276 3.61963 10.5597 3.68317 10.1886 4.1222Z" fill="#9E9E9E"/>
</svg>
