<svg width="60" height="60" viewBox="0 0 60 60" fill="none" xmlns="http://www.w3.org/2000/svg">
<rect width="60" height="60" rx="8" fill="#FFF7DA"/>
<path d="M43.75 37.6756V31.2506C43.75 30.5876 43.4866 29.9517 43.0178 29.4828C42.5489 29.014 41.9131 28.7506 41.25 28.7506H31.25V22.3256C32.4283 22.0214 33.4552 21.2978 34.1383 20.2906C34.8213 19.2834 35.1135 18.0616 34.9602 16.8544C34.8068 15.6471 34.2184 14.5372 33.3053 13.7327C32.3922 12.9282 31.217 12.4844 30 12.4844C28.783 12.4844 27.6079 12.9282 26.6947 13.7327C25.7816 14.5372 25.1932 15.6471 25.0399 16.8544C24.8865 18.0616 25.1787 19.2834 25.8618 20.2906C26.5448 21.2978 27.5717 22.0214 28.75 22.3256V28.7506H18.75C18.087 28.7506 17.4511 29.014 16.9822 29.4828C16.5134 29.9517 16.25 30.5876 16.25 31.2506V37.6756C15.0717 37.9798 14.0448 38.7034 13.3618 39.7106C12.6787 40.7178 12.3865 41.9396 12.5399 43.1469C12.6932 44.3541 13.2816 45.464 14.1947 46.2685C15.1079 47.073 16.283 47.5168 17.5 47.5168C18.717 47.5168 19.8922 47.073 20.8053 46.2685C21.7184 45.464 22.3068 44.3541 22.4602 43.1469C22.6135 41.9396 22.3213 40.7178 21.6383 39.7106C20.9552 38.7034 19.9283 37.9798 18.75 37.6756V31.2506H41.25V37.6756C40.0717 37.9798 39.0448 38.7034 38.3618 39.7106C37.6787 40.7178 37.3865 41.9396 37.5399 43.1469C37.6932 44.3541 38.2816 45.464 39.1947 46.2685C40.1079 47.073 41.283 47.5168 42.5 47.5168C43.717 47.5168 44.8922 47.073 45.8053 46.2685C46.7184 45.464 47.3068 44.3541 47.4602 43.1469C47.6135 41.9396 47.3213 40.7178 46.6383 39.7106C45.9552 38.7034 44.9283 37.9798 43.75 37.6756ZM20 42.5006C20 42.9951 19.8534 43.4784 19.5787 43.8895C19.304 44.3007 18.9135 44.6211 18.4567 44.8103C17.9999 44.9995 17.4972 45.049 17.0123 44.9526C16.5273 44.8561 16.0819 44.618 15.7322 44.2684C15.3826 43.9187 15.1445 43.4733 15.048 42.9883C14.9516 42.5034 15.0011 42.0007 15.1903 41.5439C15.3795 41.0871 15.7 40.6966 16.1111 40.4219C16.5222 40.1472 17.0056 40.0006 17.5 40.0006C18.1631 40.0006 18.7989 40.264 19.2678 40.7328C19.7366 41.2017 20 41.8376 20 42.5006ZM27.5 17.5006C27.5 17.0062 27.6466 16.5228 27.9213 16.1117C28.196 15.7006 28.5865 15.3801 29.0433 15.1909C29.5001 15.0017 30.0028 14.9522 30.4877 15.0486C30.9727 15.1451 31.4181 15.3832 31.7678 15.7328C32.1174 16.0825 32.3555 16.5279 32.452 17.0129C32.5484 17.4978 32.4989 18.0005 32.3097 18.4573C32.1205 18.9141 31.8001 19.3046 31.3889 19.5793C30.9778 19.854 30.4945 20.0006 30 20.0006C29.337 20.0006 28.7011 19.7372 28.2322 19.2684C27.7634 18.7995 27.5 18.1636 27.5 17.5006ZM42.5 45.0006C42.0056 45.0006 41.5222 44.854 41.1111 44.5793C40.7 44.3046 40.3795 43.9141 40.1903 43.4573C40.0011 43.0005 39.9516 42.4978 40.048 42.0129C40.1445 41.5279 40.3826 41.0825 40.7322 40.7328C41.0819 40.3832 41.5273 40.1451 42.0123 40.0486C42.4972 39.9522 42.9999 40.0017 43.4567 40.1909C43.9135 40.3801 44.304 40.7006 44.5787 41.1117C44.8534 41.5228 45 42.0062 45 42.5006C45 43.1636 44.7366 43.7995 44.2678 44.2684C43.7989 44.7372 43.1631 45.0006 42.5 45.0006Z" fill="#F7CD36"/>
</svg>
