<svg width="60" height="60" viewBox="0 0 60 60" fill="none" xmlns="http://www.w3.org/2000/svg">
<rect width="60" height="60" rx="8" fill="#EDFAEF"/>
<path fill-rule="evenodd" clip-rule="evenodd" d="M46.4665 25.7173C46.8995 26.9804 46.5835 28.3796 45.6498 29.334L40.3165 34.8007C40.2808 34.8626 40.2808 34.9388 40.3165 35.0007L41.4665 42.534C41.6863 43.8752 41.1211 45.2243 40.0108 46.0082C38.9006 46.7921 37.4402 46.8733 36.2498 46.2173L30.0332 42.7673C29.9705 42.7347 29.8958 42.7347 29.8332 42.7673L23.6165 46.2173C22.4273 46.888 20.9582 46.8135 19.8429 46.026C18.7276 45.2386 18.1658 43.8791 18.3998 42.534L19.6332 34.9673C19.6638 34.8984 19.6638 34.8197 19.6332 34.7507L14.3665 29.334C13.4374 28.3774 13.1163 26.984 13.5332 25.7173C13.9524 24.4521 15.0481 23.5304 16.3665 23.334L23.4998 22.184C23.5715 22.1647 23.6319 22.1164 23.6665 22.0507L26.7998 15.384C27.3703 14.1307 28.6227 13.3283 29.9998 13.334C31.3934 13.3348 32.6551 14.1585 33.2165 15.434L36.3498 22.1007C36.3772 22.1655 36.4323 22.2144 36.4998 22.234L43.6498 23.334C44.9669 23.5251 46.06 24.4501 46.4665 25.7173ZM37.0165 35.5007C36.8389 34.3834 37.197 33.2476 37.9832 32.434L43.3165 26.9507C43.3649 26.8744 43.3649 26.777 43.3165 26.7007C43.2872 26.6211 43.217 26.5636 43.1332 26.5507L35.9998 25.4507C34.8263 25.2767 33.8185 24.5255 33.3165 23.4507L30.1998 16.784C30.1647 16.7066 30.0845 16.6598 29.9998 16.6674C29.9484 16.6627 29.8973 16.6799 29.8593 16.7148C29.8212 16.7497 29.7996 16.799 29.7998 16.8507L26.6665 23.5174C26.1876 24.5759 25.2125 25.326 24.0665 25.5174L16.9165 26.6174C16.8374 26.6325 16.7732 26.6903 16.7498 26.7674C16.7052 26.8447 16.7052 26.94 16.7498 27.0174L22.0165 32.4674C22.8097 33.2767 23.1689 34.4161 22.9832 35.534L21.7498 43.1007C21.7382 43.1909 21.7765 43.2802 21.8498 43.334H22.0665L28.2332 39.8507C29.3015 39.2605 30.5981 39.2605 31.6665 39.8507L38.0165 43.3007C38.0789 43.354 38.1708 43.354 38.2332 43.3007C38.3064 43.2469 38.3447 43.1575 38.3332 43.0674L37.0165 35.5007Z" fill="#00D45F"/>
</svg>
