<svg width="60" height="60" viewBox="0 0 60 60" fill="none" xmlns="http://www.w3.org/2000/svg">
<rect width="60" height="60" rx="8" fill="#F3F7FF"/>
<path d="M47.4062 30.7812L42.4062 18.2812L42.3281 18.1406L42.2344 18.0156C42.2188 18 42.2188 18 42.2188 17.9844L42.0938 17.8594H42.0781L41.9688 17.7812L41.9375 17.75L41.7969 17.6719H41.7812L41.6406 17.625H41.6094L41.4531 17.5937H40.9844L31.25 19.6875V16.25C31.25 15.9185 31.1183 15.6005 30.8839 15.3661C30.6495 15.1317 30.3315 15 30 15C29.6685 15 29.3505 15.1317 29.1161 15.3661C28.8817 15.6005 28.75 15.9185 28.75 16.25V20.25L18.4844 22.5312H18.375L18.2188 22.5938H18.1875L18.0625 22.6562C18.0625 22.6583 18.0621 22.6603 18.0613 22.6622C18.0605 22.6641 18.0594 22.6658 18.0579 22.6673C18.0565 22.6687 18.0548 22.6699 18.0529 22.6707C18.051 22.6715 18.0489 22.6719 18.0469 22.6719L17.9062 22.7813C17.9062 22.7854 17.9046 22.7894 17.9017 22.7923C17.8987 22.7952 17.8948 22.7969 17.8906 22.7969L17.7969 22.9062H17.7812C17.7397 22.9454 17.7076 22.9935 17.6875 23.0469L17.6562 23.0781L17.5938 23.2188H17.5781L12.5938 35.7812C12.5326 35.93 12.5008 36.0892 12.5 36.25C12.5 39.8906 16.3281 41.25 18.75 41.25C21.1719 41.25 25 39.8906 25 36.25C24.9992 36.0892 24.9674 35.93 24.9062 35.7812L20.4531 24.6562L28.75 22.8125V42.5H26.25C25.9185 42.5 25.6005 42.6317 25.3661 42.8661C25.1317 43.1005 25 43.4185 25 43.75C25 44.0815 25.1317 44.3995 25.3661 44.6339C25.6005 44.8683 25.9185 45 26.25 45H33.75C34.0815 45 34.3995 44.8683 34.6339 44.6339C34.8683 44.3995 35 44.0815 35 43.75C35 43.4185 34.8683 43.1005 34.6339 42.8661C34.3995 42.6317 34.0815 42.5 33.75 42.5H31.25V22.25L39.2031 20.4844L35.0938 30.7812C35.0326 30.93 35.0008 31.0892 35 31.25C35 34.8906 38.8281 36.25 41.25 36.25C43.6719 36.25 47.5 34.8906 47.5 31.25C47.4992 31.0892 47.4674 30.93 47.4062 30.7812ZM18.75 38.75C17.5781 38.75 15.1875 38.1875 15.0156 36.4688L18.75 27.1094L22.4844 36.4688C22.3125 38.1875 19.9219 38.75 18.75 38.75ZM41.25 33.75C40.0781 33.75 37.6875 33.1875 37.5156 31.4688L41.25 22.1094L44.9844 31.4688C44.8125 33.1875 42.4219 33.75 41.25 33.75Z" fill="#6693F7"/>
</svg>
