<svg width="24" height="24" viewBox="0 0 24 24" fill="none" xmlns="http://www.w3.org/2000/svg">
<path fill-rule="evenodd" clip-rule="evenodd" d="M18 19V16C18 15.4477 17.5523 15 17 15C16.4477 15 16 15.4477 16 16V19C16 19.5523 15.5523 20 15 20H5C4.44772 20 4 19.5523 4 19V5C4 4.44772 4.44772 4 5 4H15C15.5523 4 16 4.44772 16 5V8C16 8.55228 16.4477 9 17 9C17.5523 9 18 8.55228 18 8V5C18 3.34315 16.6569 2 15 2H5C3.34315 2 2 3.34315 2 5V19C2 20.6569 3.34315 22 5 22H15C16.6569 22 18 20.6569 18 19ZM19.71 9.29L21.71 11.29C21.8993 11.4778 22.0058 11.7334 22.0058 12C22.0058 12.2666 21.8993 12.5222 21.71 12.71L19.71 14.71C19.5222 14.8993 19.2666 15.0058 19 15.0058C18.7334 15.0058 18.4778 14.8993 18.29 14.71C18.1007 14.5222 17.9942 14.2666 17.9942 14C17.9942 13.7334 18.1007 13.4778 18.29 13.29L18.59 13H12C11.4477 13 11 12.5523 11 12C11 11.4477 11.4477 11 12 11H18.59L18.29 10.71C17.8979 10.3179 17.8979 9.68212 18.29 9.29C18.6821 8.89788 19.3179 8.89788 19.71 9.29Z" fill="#231F20"/>
</svg>
