<svg width="60" height="60" viewBox="0 0 60 60" fill="none" xmlns="http://www.w3.org/2000/svg">
<rect width="60" height="60" rx="8" fill="#EDFAEF"/>
<path fill-rule="evenodd" clip-rule="evenodd" d="M46.6654 18.334V41.6673C46.6654 44.4287 44.4268 46.6673 41.6654 46.6673H18.332C15.5706 46.6673 13.332 44.4287 13.332 41.6673V18.334C13.332 15.5726 15.5706 13.334 18.332 13.334H41.6654C44.4268 13.334 46.6654 15.5726 46.6654 18.334ZM28.332 20.0007H38.332C39.2525 20.0007 39.9987 20.7468 39.9987 21.6673C39.9987 22.5878 39.2525 23.334 38.332 23.334H28.332C27.4116 23.334 26.6654 22.5878 26.6654 21.6673C26.6654 20.7468 27.4116 20.0007 28.332 20.0007ZM23.332 21.6673C23.3294 21.4495 23.2841 21.2344 23.1987 21.034C23.1143 20.832 22.9959 20.646 22.8487 20.484C22.6867 20.3368 22.5007 20.2184 22.2987 20.134C21.678 19.873 20.9613 20.0111 20.482 20.484C20.3348 20.646 20.2164 20.832 20.132 21.034C20.0466 21.2344 20.0013 21.4495 19.9987 21.6673C19.9961 22.1103 20.1701 22.5361 20.482 22.8507C20.8014 23.1552 21.2241 23.3278 21.6654 23.334C21.884 23.3396 22.1009 23.294 22.2987 23.2007C22.5007 23.1162 22.6867 22.9979 22.8487 22.8507C23.1533 22.5313 23.3259 22.1086 23.332 21.6673ZM22.2987 28.4673C21.678 28.2063 20.9613 28.3444 20.482 28.8173C20.3277 28.9738 20.2084 29.1612 20.132 29.3673C20.0466 29.5677 20.0013 29.7829 19.9987 30.0007C19.9961 30.4437 20.1701 30.8695 20.482 31.184C20.8014 31.4885 21.2241 31.6612 21.6654 31.6673C21.8832 31.6647 22.0983 31.6194 22.2987 31.534C22.5007 31.4496 22.6867 31.3312 22.8487 31.184L23.0487 30.934C23.1118 30.8411 23.1622 30.7402 23.1987 30.634C23.2584 30.5415 23.3033 30.4403 23.332 30.334C23.3402 30.223 23.3402 30.1116 23.332 30.0007C23.3259 29.5594 23.1533 29.1367 22.8487 28.8173C22.6867 28.6701 22.5007 28.5517 22.2987 28.4673ZM28.332 28.334H38.332C39.2525 28.334 39.9987 29.0802 39.9987 30.0007C39.9987 30.9211 39.2525 31.6673 38.332 31.6673H28.332C27.4116 31.6673 26.6654 30.9211 26.6654 30.0007C26.6654 29.0802 27.4116 28.334 28.332 28.334ZM22.8487 37.1507C22.6867 37.0034 22.5007 36.8851 22.2987 36.8006C21.678 36.5397 20.9613 36.6777 20.482 37.1507C20.3303 37.3092 20.2114 37.4961 20.132 37.7006C19.9537 38.104 19.9537 38.5639 20.132 38.9673C20.2114 39.1719 20.3303 39.3588 20.482 39.5173C20.8014 39.8219 21.2241 39.9945 21.6654 40.0007C21.8832 39.998 22.0983 39.9527 22.2987 39.8673C22.5007 39.7829 22.6867 39.6645 22.8487 39.5173C23.0004 39.3588 23.1194 39.1719 23.1987 38.9673C23.377 38.5639 23.377 38.104 23.1987 37.7006C23.1194 37.4961 23.0004 37.3092 22.8487 37.1507ZM28.332 36.6673H38.332C39.2525 36.6673 39.9987 37.4135 39.9987 38.334C39.9987 39.2545 39.2525 40.0007 38.332 40.0007H28.332C27.4116 40.0007 26.6654 39.2545 26.6654 38.334C26.6654 37.4135 27.4116 36.6673 28.332 36.6673ZM41.6654 16.6673C42.5858 16.6673 43.332 17.4135 43.332 18.334V41.6673C43.332 42.5878 42.5858 43.334 41.6654 43.334H18.332C17.4116 43.334 16.6654 42.5878 16.6654 41.6673V18.334C16.6654 17.4135 17.4116 16.6673 18.332 16.6673H41.6654Z" fill="#00D45F"/>
</svg>
