<svg width="16" height="16" viewBox="0 0 16 16" fill="none" xmlns="http://www.w3.org/2000/svg">
<g clip-path="url(#clip0_884_27156)">
<circle cx="8" cy="5" r="2.35" stroke="black" stroke-width="1.3"/>
<mask id="path-2-inside-1_884_27156" fill="white">
<path d="M14 15C14 14.2121 13.8448 13.4319 13.5433 12.7039C13.2417 11.9759 12.7998 11.3145 12.2426 10.7574C11.6855 10.2002 11.0241 9.75825 10.2961 9.45672C9.56815 9.15519 8.78793 9 8 9C7.21207 9 6.43185 9.15519 5.7039 9.45672C4.97595 9.75825 4.31451 10.2002 3.75736 10.7574C3.20021 11.3145 2.75825 11.9759 2.45672 12.7039C2.15519 13.4319 2 14.2121 2 15L8 15H14Z"/>
</mask>
<path d="M14 15C14 14.2121 13.8448 13.4319 13.5433 12.7039C13.2417 11.9759 12.7998 11.3145 12.2426 10.7574C11.6855 10.2002 11.0241 9.75825 10.2961 9.45672C9.56815 9.15519 8.78793 9 8 9C7.21207 9 6.43185 9.15519 5.7039 9.45672C4.97595 9.75825 4.31451 10.2002 3.75736 10.7574C3.20021 11.3145 2.75825 11.9759 2.45672 12.7039C2.15519 13.4319 2 14.2121 2 15L8 15H14Z" stroke="black" stroke-width="2.6" mask="url(#path-2-inside-1_884_27156)"/>
</g>
<defs>
<clipPath id="clip0_884_27156">
<rect width="16" height="16" fill="white"/>
</clipPath>
</defs>
</svg>
