<svg width="29" height="28" viewBox="0 0 29 28" fill="none" xmlns="http://www.w3.org/2000/svg">
<path d="M24.125 8.09318H19.7828L19.9141 7.97286C20.2364 7.67247 20.495 7.31022 20.6744 6.90772C20.8537 6.50522 20.9501 6.07073 20.9579 5.63015C20.9657 5.18958 20.8846 4.75195 20.7196 4.34337C20.5546 3.9348 20.3089 3.56365 19.9974 3.25207C19.6858 2.94049 19.3146 2.69486 18.9061 2.52983C18.4975 2.3648 18.0599 2.28375 17.6193 2.29153C17.1787 2.2993 16.7442 2.39573 16.3417 2.57507C15.9392 2.75441 15.577 3.01298 15.2766 3.33536C14.9334 3.7047 14.6692 4.14013 14.5 4.61505C14.3308 4.14013 14.0666 3.7047 13.7234 3.33536C13.1014 2.75576 12.2787 2.44023 11.4287 2.45522C10.5786 2.47022 9.76752 2.81459 9.16634 3.41577C8.56516 4.01695 8.2208 4.82801 8.2058 5.67808C8.1908 6.52815 8.50634 7.35085 9.08594 7.97286L9.21719 8.09318H4.875C4.46889 8.09318 4.07941 8.2545 3.79224 8.54167C3.50508 8.82883 3.34375 9.21831 3.34375 9.62443V13.1244C3.34375 13.5305 3.50508 13.92 3.79224 14.2072C4.07941 14.4943 4.46889 14.6557 4.875 14.6557H5.09375V21.8744C5.09375 22.2805 5.25508 22.67 5.54224 22.9572C5.82941 23.2443 6.21889 23.4057 6.625 23.4057H22.375C22.7811 23.4057 23.1706 23.2443 23.4578 22.9572C23.7449 22.67 23.9062 22.2805 23.9062 21.8744V14.6557H24.125C24.5311 14.6557 24.9206 14.4943 25.2078 14.2072C25.4949 13.92 25.6562 13.5305 25.6562 13.1244V9.62443C25.6562 9.21831 25.4949 8.82883 25.2078 8.54167C24.9206 8.2545 24.5311 8.09318 24.125 8.09318ZM16.2063 4.26505C16.3838 4.06227 16.6011 3.89811 16.8447 3.78273C17.0882 3.66735 17.3529 3.60321 17.6223 3.59428C17.8916 3.58536 18.16 3.63183 18.4107 3.73084C18.6613 3.82984 18.889 3.97926 19.0796 4.16984C19.2702 4.36042 19.4196 4.5881 19.5186 4.83877C19.6176 5.08945 19.6641 5.35779 19.6551 5.62716C19.6462 5.89653 19.5821 6.1612 19.4667 6.40477C19.3513 6.64834 19.1872 6.86563 18.9844 7.04318C18.3391 7.68849 16.5234 7.99474 15.1781 8.0713C15.2547 6.72599 15.5609 4.91036 16.2063 4.26505ZM10.0156 4.26505C10.3846 3.8977 10.884 3.69147 11.4047 3.69147C11.9253 3.69147 12.4248 3.8977 12.7937 4.26505C13.4391 4.91036 13.7453 6.72599 13.8219 8.0713C12.4766 7.99474 10.6609 7.68849 10.0156 7.04318C9.64828 6.67422 9.44204 6.17476 9.44204 5.65411C9.44204 5.13346 9.64828 4.63401 10.0156 4.26505ZM4.65625 13.1244V9.62443C4.65625 9.56641 4.6793 9.51077 4.72032 9.46975C4.76134 9.42872 4.81698 9.40568 4.875 9.40568H13.8438V13.3432H4.875C4.81698 13.3432 4.76134 13.3201 4.72032 13.2791C4.6793 13.2381 4.65625 13.1824 4.65625 13.1244ZM6.40625 21.8744V14.6557H13.8438V22.0932H6.625C6.56698 22.0932 6.51134 22.0701 6.47032 22.0291C6.4293 21.9881 6.40625 21.9324 6.40625 21.8744ZM22.5938 21.8744C22.5938 21.9324 22.5707 21.9881 22.5297 22.0291C22.4887 22.0701 22.433 22.0932 22.375 22.0932H15.1562V14.6557H22.5938V21.8744ZM24.3438 13.1244C24.3438 13.1824 24.3207 13.2381 24.2797 13.2791C24.2387 13.3201 24.183 13.3432 24.125 13.3432H15.1562V9.40568H24.125C24.183 9.40568 24.2387 9.42872 24.2797 9.46975C24.3207 9.51077 24.3438 9.56641 24.3438 9.62443V13.1244Z" fill="white"/>
</svg>
