<svg width="28" height="28" viewBox="0 0 28 28" fill="none" xmlns="http://www.w3.org/2000/svg">
<path d="M23.625 8.09318H19.2828L19.4141 7.97286C19.7364 7.67247 19.995 7.31022 20.1744 6.90772C20.3537 6.50522 20.4501 6.07073 20.4579 5.63015C20.4657 5.18958 20.3846 4.75195 20.2196 4.34337C20.0546 3.9348 19.8089 3.56365 19.4974 3.25207C19.1858 2.94049 18.8146 2.69486 18.4061 2.52983C17.9975 2.3648 17.5599 2.28375 17.1193 2.29153C16.6787 2.2993 16.2442 2.39573 15.8417 2.57507C15.4392 2.75441 15.077 3.01298 14.7766 3.33536C14.4334 3.7047 14.1692 4.14013 14 4.61505C13.8308 4.14013 13.5666 3.7047 13.2234 3.33536C12.6014 2.75576 11.7787 2.44023 10.9287 2.45522C10.0786 2.47022 9.26752 2.81459 8.66634 3.41577C8.06516 4.01695 7.7208 4.82801 7.7058 5.67808C7.6908 6.52815 8.00634 7.35085 8.58594 7.97286L8.71719 8.09318H4.375C3.96889 8.09318 3.57941 8.2545 3.29224 8.54167C3.00508 8.82883 2.84375 9.21831 2.84375 9.62443V13.1244C2.84375 13.5305 3.00508 13.92 3.29224 14.2072C3.57941 14.4943 3.96889 14.6557 4.375 14.6557H4.59375V21.8744C4.59375 22.2805 4.75508 22.67 5.04224 22.9572C5.32941 23.2443 5.71889 23.4057 6.125 23.4057H21.875C22.2811 23.4057 22.6706 23.2443 22.9578 22.9572C23.2449 22.67 23.4062 22.2805 23.4062 21.8744V14.6557H23.625C24.0311 14.6557 24.4206 14.4943 24.7078 14.2072C24.9949 13.92 25.1562 13.5305 25.1562 13.1244V9.62443C25.1562 9.21831 24.9949 8.82883 24.7078 8.54167C24.4206 8.2545 24.0311 8.09318 23.625 8.09318ZM15.7063 4.26505C15.8838 4.06227 16.1011 3.89811 16.3447 3.78273C16.5882 3.66735 16.8529 3.60321 17.1223 3.59428C17.3916 3.58536 17.66 3.63183 17.9107 3.73084C18.1613 3.82984 18.389 3.97926 18.5796 4.16984C18.7702 4.36042 18.9196 4.5881 19.0186 4.83877C19.1176 5.08945 19.1641 5.35779 19.1551 5.62716C19.1462 5.89653 19.0821 6.1612 18.9667 6.40477C18.8513 6.64834 18.6872 6.86563 18.4844 7.04318C17.8391 7.68849 16.0234 7.99474 14.6781 8.0713C14.7547 6.72599 15.0609 4.91036 15.7063 4.26505ZM9.51562 4.26505C9.88459 3.8977 10.384 3.69147 10.9047 3.69147C11.4253 3.69147 11.9248 3.8977 12.2937 4.26505C12.9391 4.91036 13.2453 6.72599 13.3219 8.0713C11.9766 7.99474 10.1609 7.68849 9.51562 7.04318C9.14828 6.67422 8.94204 6.17476 8.94204 5.65411C8.94204 5.13346 9.14828 4.63401 9.51562 4.26505ZM4.15625 13.1244V9.62443C4.15625 9.56641 4.1793 9.51077 4.22032 9.46975C4.26134 9.42872 4.31698 9.40568 4.375 9.40568H13.3438V13.3432H4.375C4.31698 13.3432 4.26134 13.3201 4.22032 13.2791C4.1793 13.2381 4.15625 13.1824 4.15625 13.1244ZM5.90625 21.8744V14.6557H13.3438V22.0932H6.125C6.06698 22.0932 6.01134 22.0701 5.97032 22.0291C5.9293 21.9881 5.90625 21.9324 5.90625 21.8744ZM22.0938 21.8744C22.0938 21.9324 22.0707 21.9881 22.0297 22.0291C21.9887 22.0701 21.933 22.0932 21.875 22.0932H14.6562V14.6557H22.0938V21.8744ZM23.8438 13.1244C23.8438 13.1824 23.8207 13.2381 23.7797 13.2791C23.7387 13.3201 23.683 13.3432 23.625 13.3432H14.6562V9.40568H23.625C23.683 9.40568 23.7387 9.42872 23.7797 9.46975C23.8207 9.51077 23.8438 9.56641 23.8438 9.62443V13.1244Z" fill="#272833"/>
</svg>
