<svg width="60" height="60" viewBox="0 0 60 60" fill="none" xmlns="http://www.w3.org/2000/svg">
<rect width="60" height="60" rx="8" fill="#EDFAEF"/>
<path fill-rule="evenodd" clip-rule="evenodd" d="M36.465 34.35L44.565 42.435C44.849 42.7167 45.0087 43.1 45.0087 43.5C45.0087 43.9 44.849 44.2834 44.565 44.565C44.2834 44.849 43.9 45.0087 43.5 45.0087C43.1 45.0087 42.7167 44.849 42.435 44.565L34.35 36.465C32.2537 38.1105 29.665 39.0033 27 39C20.3726 39 15 33.6274 15 27C15 20.3726 20.3726 15 27 15C33.6274 15 39 20.3726 39 27C39.0033 29.665 38.1105 32.2537 36.465 34.35ZM27 18C22.0294 18 18 22.0294 18 27C18 31.9706 22.0294 36 27 36C31.9706 36 36 31.9706 36 27C36 22.0294 31.9706 18 27 18Z" fill="#00D45F"/>
</svg>
