<svg width="60" height="60" viewBox="0 0 60 60" fill="none" xmlns="http://www.w3.org/2000/svg">
<rect width="60" height="60" rx="8" fill="#EDFAEF"/>
<path fill-rule="evenodd" clip-rule="evenodd" d="M44.9987 30.3495C45.0066 30.2329 45.0066 30.116 44.9987 29.9995V17.9661C44.944 15.3584 42.79 13.2863 40.182 13.3328H18.1487C15.5408 13.2863 13.3867 15.3584 13.332 17.9661V38.6995C13.3867 41.3072 15.5408 43.3793 18.1487 43.3328H28.332C28.4263 43.3408 28.5211 43.3408 28.6154 43.3328C32.2006 47.8569 38.7746 48.618 43.2987 45.0328C47.8228 41.4476 48.5839 34.8736 44.9987 30.3495ZM18.1487 39.9995C17.3873 40.0293 16.7357 39.4582 16.6654 38.6995V17.9661C16.7357 17.2074 17.3873 16.6363 18.1487 16.6661H40.182C40.9434 16.6363 41.5951 17.2074 41.6654 17.9661V27.5328C38.4388 25.7674 34.5203 25.8343 31.356 27.709C28.1916 29.5837 26.2504 32.9881 26.2487 36.6661C26.2512 37.7996 26.4369 38.9253 26.7987 39.9995H18.1487ZM29.582 36.6661C29.582 40.5781 32.7533 43.7495 36.6654 43.7495C40.5736 43.7403 43.7395 40.5743 43.7487 36.6661C43.7487 32.7541 40.5774 29.5828 36.6654 29.5828C32.7533 29.5828 29.582 32.7541 29.582 36.6661ZM36.6654 23.3328H21.6654C20.7449 23.3328 19.9987 22.5866 19.9987 21.6661C19.9987 20.7457 20.7449 19.9995 21.6654 19.9995H36.6654C37.5858 19.9995 38.332 20.7457 38.332 21.6661C38.332 22.5866 37.5858 23.3328 36.6654 23.3328ZM40.0084 38.3328C40.0084 37.8884 39.8309 37.4624 39.5154 37.1495L38.332 35.9828V33.3328C38.332 32.4123 37.5858 31.6661 36.6654 31.6661C35.7449 31.6661 34.9987 32.4123 34.9987 33.3328V36.6661C34.9961 37.1091 35.1701 37.5349 35.482 37.8495L37.1487 39.5161C37.4616 39.8317 37.8876 40.0091 38.332 40.0091C38.7764 40.0091 39.2024 39.8317 39.5154 39.5161C39.8309 39.2032 40.0084 38.7772 40.0084 38.3328Z" fill="#00D45F"/>
</svg>
