<svg width="60" height="60" viewBox="0 0 60 60" fill="none" xmlns="http://www.w3.org/2000/svg">
<rect width="60" height="60" rx="8" fill="#EDFAEF"/>
<path d="M46.6657 18.3327V24.9993C46.6657 25.9198 45.9195 26.666 44.9991 26.666C44.0786 26.666 43.3324 25.9198 43.3324 24.9993V22.5327L32.9157 34.4327C32.5998 34.7923 32.1445 34.9987 31.6657 34.9993C31.203 35.0112 30.7563 34.83 30.4324 34.4993L26.6991 30.7327L16.1991 42.766C15.8147 43.2432 15.1994 43.4711 14.5969 43.3592C13.9944 43.2474 13.5019 42.814 13.3144 42.2306C13.1268 41.6472 13.2746 41.008 13.6991 40.566L25.3657 27.2327C25.6692 26.885 26.1032 26.6788 26.5643 26.663C27.0255 26.6472 27.4726 26.8233 27.7991 27.1493L31.6657 30.8827L41.1157 19.9993H38.3324C37.4119 19.9993 36.6657 19.2532 36.6657 18.3327C36.6657 17.4122 37.4119 16.666 38.3324 16.666H44.9991C45.9195 16.666 46.6657 17.4122 46.6657 18.3327Z" fill="#00D45F"/>
</svg>
