<svg width="16" height="17" viewBox="0 0 16 17" fill="none" xmlns="http://www.w3.org/2000/svg">
<path d="M14.3635 5.79279C14.1759 5.60532 13.9216 5.5 13.6565 5.5C13.3913 5.5 13.137 5.60532 12.9495 5.79279L7.99947 10.7428L3.04948 5.79279C2.86087 5.61063 2.60827 5.50983 2.34608 5.51211C2.08388 5.51439 1.83307 5.61956 1.64766 5.80497C1.46225 5.99038 1.35708 6.24119 1.3548 6.50338C1.35253 6.76558 1.45332 7.01818 1.63548 7.20679L7.29247 12.8638C7.48 13.0513 7.73431 13.1566 7.99947 13.1566C8.26463 13.1566 8.51894 13.0513 8.70647 12.8638L14.3635 7.20679C14.5509 7.01926 14.6562 6.76495 14.6562 6.49979C14.6562 6.23462 14.5509 5.98031 14.3635 5.79279Z" fill="#C4C4C4"/>
</svg>
