<svg width="90" height="90" viewBox="0 0 90 90" fill="none" xmlns="http://www.w3.org/2000/svg">
<path d="M45 90C56.9347 90 68.3807 85.2589 76.8198 76.8198C85.2589 68.3807 90 56.9347 90 45C90 33.0653 85.2589 21.6193 76.8198 13.1802C68.3807 4.74106 56.9347 2.32378e-06 45 0V13.4862C53.358 13.4862 61.3736 16.8064 67.2836 22.7164C73.1936 28.6264 76.5138 36.642 76.5138 45C76.5138 53.358 73.1936 61.3736 67.2836 67.2836C61.3736 73.1936 53.358 76.5138 45 76.5138L45 90Z" fill="#00D45F"/>
<path d="M0 45C-5.16623e-07 50.9095 1.16396 56.7611 3.42542 62.2208C5.68688 67.6804 9.00156 72.6412 13.1802 76.8198C17.3588 80.9984 22.3196 84.3131 27.7792 86.5746C33.2389 88.836 39.0905 90 45 90L45 76.5138C40.8615 76.5138 36.7636 75.6986 32.9402 74.1149C29.1168 72.5312 25.6427 70.2099 22.7164 67.2836C19.7901 64.3573 17.4688 60.8832 15.8851 57.0598C14.3014 53.2364 13.4862 49.1384 13.4862 45H0Z" fill="#F8D557"/>
<path d="M45 0C33.0653 -1.4232e-07 21.6193 4.74106 13.1802 13.1802C4.74106 21.6193 1.04337e-06 33.0653 0 45H13.4862C13.4862 36.642 16.8064 28.6264 22.7164 22.7164C28.6264 16.8064 36.642 13.4862 45 13.4862V0Z" fill="#ED6A50"/>
</svg>
