<svg width="20" height="21" viewBox="0 0 20 21" fill="none" xmlns="http://www.w3.org/2000/svg">
<path fill-rule="evenodd" clip-rule="evenodd" d="M14.167 6.33268C14.167 4.0315 12.3015 2.16602 10.0003 2.16602C7.69914 2.16602 5.83366 4.0315 5.83366 6.33268C5.83366 8.63387 7.69914 10.4993 10.0003 10.4993H9.16699C5.02486 10.4993 1.66699 13.8572 1.66699 17.9993C1.66699 18.4596 2.04009 18.8327 2.50033 18.8327H17.5003C17.9606 18.8327 18.3337 18.4596 18.3337 17.9993C18.3337 13.8572 14.9758 10.4993 10.8337 10.4993H10.0003C11.1054 10.4993 12.1652 10.0604 12.9466 9.27896C13.728 8.49756 14.167 7.43775 14.167 6.33268ZM9.16699 12.166C6.26668 12.1653 3.80632 14.2954 3.39199 17.166H16.6087C16.1943 14.2954 13.734 12.1653 10.8337 12.166H9.16699ZM7.50033 6.33268C7.50033 7.71339 8.61961 8.83268 10.0003 8.83268C10.6634 8.83268 11.2993 8.56929 11.7681 8.10045C12.2369 7.63161 12.5003 6.99572 12.5003 6.33268C12.5003 4.95197 11.381 3.83268 10.0003 3.83268C8.61961 3.83268 7.50033 4.95197 7.50033 6.33268Z" fill="#231F20"/>
</svg>
