<svg width="20" height="21" viewBox="0 0 20 21" fill="none" xmlns="http://www.w3.org/2000/svg">
<path fill-rule="evenodd" clip-rule="evenodd" d="M15.8337 16.3327V4.66602C15.8337 3.2853 14.7144 2.16602 13.3337 2.16602H6.66699C5.28628 2.16602 4.16699 3.2853 4.16699 4.66602V16.3327C4.16699 17.7134 5.28628 18.8327 6.66699 18.8327H13.3337C14.7144 18.8327 15.8337 17.7134 15.8337 16.3327ZM10.592 16.091C10.8284 15.8514 10.8975 15.493 10.767 15.1827C10.7265 15.0758 10.6673 14.977 10.592 14.891C10.5524 14.8552 10.5106 14.8218 10.467 14.791C10.4205 14.7595 10.3701 14.7343 10.317 14.716L10.167 14.666C9.88959 14.6129 9.60415 14.7038 9.40866 14.9077C9.33279 14.9869 9.27332 15.0804 9.23366 15.1827C9.10975 15.4922 9.18229 15.8458 9.41806 16.0816C9.65383 16.3174 10.0074 16.3899 10.317 16.266C10.418 16.2238 10.511 16.1646 10.592 16.091ZM14.167 4.66602C14.167 4.20578 13.7939 3.83268 13.3337 3.83268H6.66699C6.20676 3.83268 5.83366 4.20578 5.83366 4.66602V16.3327C5.83366 16.7929 6.20676 17.166 6.66699 17.166H13.3337C13.7939 17.166 14.167 16.7929 14.167 16.3327V4.66602ZM9.16699 4.66602H10.9337H10.9503C11.4106 4.66602 11.7837 5.03911 11.7837 5.49935C11.7837 5.95959 11.4106 6.33268 10.9503 6.33268H9.16699C8.70675 6.33268 8.33366 5.95959 8.33366 5.49935C8.33366 5.03911 8.70675 4.66602 9.16699 4.66602Z" fill="#231F20"/>
</svg>
