<svg width="20" height="21" viewBox="0 0 20 21" fill="none" xmlns="http://www.w3.org/2000/svg">
<path fill-rule="evenodd" clip-rule="evenodd" d="M4.16699 2.16602H6.66699C8.0477 2.16602 9.16699 3.2853 9.16699 4.66602V7.16602C9.16699 8.54673 8.0477 9.66602 6.66699 9.66602H4.16699C2.78628 9.66602 1.66699 8.54673 1.66699 7.16602V4.66602C1.66699 3.2853 2.78628 2.16602 4.16699 2.16602ZM6.66699 7.99935C7.12723 7.99935 7.50033 7.62625 7.50033 7.16602V4.66602C7.50033 4.20578 7.12723 3.83268 6.66699 3.83268H4.16699C3.70675 3.83268 3.33366 4.20578 3.33366 4.66602V7.16602C3.33366 7.62625 3.70675 7.99935 4.16699 7.99935H6.66699ZM6.66699 11.3327H4.16699C2.78628 11.3327 1.66699 12.452 1.66699 13.8327V16.3327C1.66699 17.7134 2.78628 18.8327 4.16699 18.8327H6.66699C8.0477 18.8327 9.16699 17.7134 9.16699 16.3327V13.8327C9.16699 12.452 8.0477 11.3327 6.66699 11.3327ZM6.66699 17.166C7.12723 17.166 7.50033 16.7929 7.50033 16.3327V13.8327C7.50033 13.3724 7.12723 12.9993 6.66699 12.9993H4.16699C3.70675 12.9993 3.33366 13.3724 3.33366 13.8327V16.3327C3.33366 16.7929 3.70675 17.166 4.16699 17.166H6.66699ZM15.8337 11.3327H13.3337C11.9529 11.3327 10.8337 12.452 10.8337 13.8327V16.3327C10.8337 17.7134 11.9529 18.8327 13.3337 18.8327H15.8337C17.2144 18.8327 18.3337 17.7134 18.3337 16.3327V13.8327C18.3337 12.452 17.2144 11.3327 15.8337 11.3327ZM15.8337 17.166C16.2939 17.166 16.667 16.7929 16.667 16.3327V13.8327C16.667 13.3724 16.2939 12.9993 15.8337 12.9993H13.3337C12.8734 12.9993 12.5003 13.3724 12.5003 13.8327V16.3327C12.5003 16.7929 12.8734 17.166 13.3337 17.166H15.8337ZM15.8337 2.16602H13.3337C11.9529 2.16602 10.8337 3.2853 10.8337 4.66602V7.16602C10.8337 8.54673 11.9529 9.66602 13.3337 9.66602H15.8337C17.2144 9.66602 18.3337 8.54673 18.3337 7.16602V4.66602C18.3337 3.2853 17.2144 2.16602 15.8337 2.16602ZM15.8337 7.99935C16.2939 7.99935 16.667 7.62625 16.667 7.16602V4.66602C16.667 4.20578 16.2939 3.83268 15.8337 3.83268H13.3337C12.8734 3.83268 12.5003 4.20578 12.5003 4.66602V7.16602C12.5003 7.62625 12.8734 7.99935 13.3337 7.99935H15.8337Z" fill="#231F20"/>
</svg>
