<svg width="151" height="37" viewBox="0 0 151 37" fill="none" xmlns="http://www.w3.org/2000/svg">
<path fill-rule="evenodd" clip-rule="evenodd" d="M125.303 13.498H119.715L126.118 21.8024L119.543 30.1424H124.859L128.776 25.1936L132.625 30.1424H138.214L131.605 21.6283L138.044 13.498H132.659L128.947 18.2024L125.303 13.498Z" fill="black"/>
<path fill-rule="evenodd" clip-rule="evenodd" d="M106.842 13.4984H118.458V30.1428H114.115V17.2824H106.409V30.1428H102.066V18.0432C102.066 15.5439 104.118 13.4984 106.626 13.4984H106.842ZM102.066 13.0665V13.5015H106.409V13.0665V12.3423V11.2269H111.324V6.89844H106.557C104.084 6.89844 102.066 8.90924 102.066 11.3742V12.3423V13.0665ZM118.458 6.89844H114.115V11.2269H118.458V6.89844Z" fill="black"/>
<path fill-rule="evenodd" clip-rule="evenodd" d="M71.2578 13.9313V17.7259H74.2331L74.2268 19.3109V25.167C74.2268 27.9036 76.4742 30.1435 79.2199 30.1435H83.4851V26.3592H80.426C79.4049 26.3592 78.57 25.527 78.57 24.5092V17.7259H83.4851V13.9416H78.57V10.3168L74.2426 10.2598V11.0187L74.2413 11.0296C74.0853 12.5915 72.8087 13.8092 71.2578 13.9313Z" fill="black"/>
<path fill-rule="evenodd" clip-rule="evenodd" d="M143.639 25.8145H139.297V30.143H143.639V25.8145Z" fill="black"/>
<path fill-rule="evenodd" clip-rule="evenodd" d="M48.8799 30.1428H52.6763V6.89844H48.8799V15.2918L48.51 14.9231C47.2554 13.6731 45.5749 13.2579 43.8428 13.2579C41.5017 13.2579 39.4613 13.994 37.8833 15.7441C36.3544 17.4398 35.6328 19.4408 35.6328 21.7176C35.6328 23.9894 36.3519 25.9861 37.8827 27.6733C39.4638 29.4149 41.5067 30.1428 43.8428 30.1428C45.5548 30.1428 47.2636 29.755 48.51 28.5124L48.8799 28.1437V30.1428ZM39.5689 21.7176C39.5689 20.4113 39.9954 19.2614 40.8731 18.2895C41.7558 17.3119 42.8714 16.8357 44.1895 16.8357C45.4843 16.8357 46.6244 17.2599 47.5933 18.117C48.6541 19.0549 49.0529 20.3285 49.0529 21.7176C49.0529 23.0953 48.6647 24.37 47.6102 25.3012C46.6382 26.1599 45.4862 26.5653 44.1895 26.5653C42.8821 26.5653 41.764 26.1076 40.8744 25.148C39.9816 24.1829 39.5689 23.0239 39.5689 21.7176Z" fill="black"/>
<path fill-rule="evenodd" clip-rule="evenodd" d="M96.6421 30.1427H100.985V19.6433C100.985 17.6834 100.314 16.0166 98.741 14.7958C97.0398 13.4752 94.8849 13.2578 92.7721 13.2578C90.8997 13.2578 89.1356 13.5044 87.5557 14.5224C85.9778 15.5391 85.0447 17.011 84.6282 18.8222L84.6225 18.8477H89.1003L89.1054 18.8347C89.7565 17.2919 91.3433 16.9083 92.8747 16.9083C93.8071 16.9083 94.7874 17.0585 95.594 17.5518C96.2326 17.9414 96.5704 18.5138 96.6321 19.2525L96.6516 19.4861H92.6696C90.7922 19.4861 88.4095 19.8784 86.7491 20.7778C85.1882 21.623 84.5703 23.0376 84.5703 24.7599C84.5703 26.3398 85.0302 27.7786 86.2672 28.8242C87.5733 29.929 89.7553 30.1427 91.4069 30.1427C93.0741 30.1427 94.9472 29.8754 96.2911 28.8131L96.6421 28.5354V30.1427ZM96.6421 22.7262V23.3856C96.6421 24.4129 96.2263 25.2217 95.3719 25.8009C94.4457 26.4285 93.368 26.6647 92.2606 26.6647C91.5107 26.6647 90.2926 26.6759 89.6722 26.2231C89.1878 25.8684 88.9135 25.4009 88.9135 24.7938C88.9135 24.118 89.6364 23.5321 90.1718 23.2165C90.8683 22.8056 91.8737 22.7262 92.6696 22.7262H96.6421Z" fill="black"/>
<path fill-rule="evenodd" clip-rule="evenodd" d="M65.8335 30.143H70.176V19.6436C70.176 17.6837 69.5053 16.017 67.9318 14.7962C66.2305 13.4755 64.0228 13.2539 61.91 13.2539C60.0376 13.2539 58.3263 13.5048 56.7465 14.5228C55.1691 15.5394 54.2354 17.0114 53.8189 18.8225L53.8133 18.8481H58.2911L58.2961 18.835C58.9473 17.2922 60.5347 16.9086 62.0655 16.9086C62.9985 16.9086 63.9781 17.0589 64.7853 17.5521C65.4233 17.9418 65.7618 18.5141 65.8228 19.2529L65.8423 19.4865H61.861C59.9829 19.4865 57.6009 19.8788 55.9399 20.7781C54.3795 21.6234 53.7617 23.038 53.7617 24.7602C53.7617 26.3402 54.2216 27.7789 55.4586 28.8246C56.7641 29.9294 58.9467 30.143 60.5976 30.143C62.2649 30.143 64.1386 29.8757 65.4818 28.8134L65.8335 28.5357V30.143ZM65.8335 22.7266V23.3859C65.8335 24.4132 65.417 25.2221 64.5626 25.8013C63.6365 26.4289 62.5593 26.6651 61.4514 26.6651C60.702 26.6651 59.4833 26.6763 58.8636 26.2234C58.3785 25.8687 58.1042 25.4013 58.1042 24.7942C58.1042 24.1184 58.8277 23.5325 59.3632 23.2169C60.0596 22.8059 61.0651 22.7266 61.861 22.7266H65.8335Z" fill="black"/>
<path fill-rule="evenodd" clip-rule="evenodd" d="M21.7939 13.2617H16.0194C11.3623 13.2617 7.55078 17.0609 7.55078 21.7026C7.55078 26.3445 11.3623 30.1434 16.0194 30.1434H31.2924L28.0641 24.4062H15.9256C14.4333 24.4062 13.2127 23.1899 13.2127 21.7026C13.2127 20.2153 14.4333 18.999 15.9256 18.999H25.0221L21.7939 13.2617Z" fill="#00D45F"/>
<path fill-rule="evenodd" clip-rule="evenodd" d="M18.207 6.89844C19.4006 9.01967 20.5973 11.1398 21.7908 13.2613H28.7028L28.5657 13.0161H28.5713C27.4231 10.9763 26.273 8.93791 25.1248 6.89844H18.207Z" fill="#00D45F"/>
</svg>
