<svg width="105" height="18" viewBox="0 0 105 18" fill="none" xmlns="http://www.w3.org/2000/svg">
<path fill-rule="evenodd" clip-rule="evenodd" d="M90.8504 5.10938H86.5388L91.4795 11.5376L86.4062 17.9933H90.5077L93.53 14.1626L96.4994 17.9933H100.812L95.7125 11.4028L100.68 5.10938H96.5256L93.662 8.75086L90.8504 5.10938Z" fill="white"/>
<path fill-rule="evenodd" clip-rule="evenodd" d="M76.6107 5.10885H85.5723V17.9928H82.2219V8.03796H76.2762V17.9928H72.9258V8.62684C72.9258 6.69224 74.5088 5.10885 76.4437 5.10885H76.6107ZM72.9258 4.77452V5.11128H76.2762V4.77452V4.21397V3.35055H80.0685V0H76.3903C74.4821 0 72.9258 1.55651 72.9258 3.46459V4.21397V4.77452ZM85.5723 0H82.2219V3.35055H85.5723V0Z" fill="white"/>
<path fill-rule="evenodd" clip-rule="evenodd" d="M49.1562 5.44356V8.38088H51.4514L51.447 9.60781V14.1409C51.447 16.2591 53.181 17.993 55.2994 17.993H58.5902V15.0637H56.23C55.4421 15.0637 54.798 14.4195 54.798 13.6317V8.38088H58.5902V5.45157H54.798V2.64574L51.4587 2.60156V3.18903L51.4577 3.19745C51.3378 4.40649 50.3524 5.34905 49.1562 5.44356Z" fill="white"/>
<path fill-rule="evenodd" clip-rule="evenodd" d="M104.999 14.6426H101.648V17.9931H104.999V14.6426Z" fill="white"/>
<path fill-rule="evenodd" clip-rule="evenodd" d="M31.8887 17.9928H34.8178V0H31.8887V6.49705L31.6031 6.21166C30.6355 5.24404 29.3387 4.92269 28.0023 4.92269C26.1959 4.92269 24.6217 5.49244 23.4045 6.84719C22.2248 8.15981 21.668 9.70868 21.668 11.4711C21.668 13.2296 22.2226 14.7752 23.4041 16.0812C24.6238 17.4294 26.1998 17.9928 28.0023 17.9928C29.3233 17.9928 30.6415 17.6926 31.6031 16.7307L31.8887 16.4454V17.9928ZM24.7049 11.4711C24.7049 10.4599 25.0341 9.5698 25.711 8.81752C26.3924 8.06073 27.2529 7.69214 28.2698 7.69214C29.2691 7.69214 30.1485 8.02049 30.896 8.68398C31.7143 9.40995 32.0223 10.3958 32.0223 11.4711C32.0223 12.5375 31.7229 13.5243 30.9092 14.2451C30.1592 14.9098 29.2705 15.2236 28.2698 15.2236C27.2611 15.2236 26.3983 14.8693 25.7122 14.1265C25.0231 13.3794 24.7049 12.4823 24.7049 11.4711Z" fill="white"/>
<path fill-rule="evenodd" clip-rule="evenodd" d="M68.7398 17.992H72.0903V9.86467C72.0903 8.34759 71.5728 7.0574 70.3592 6.1124C69.0461 5.09013 67.384 4.92188 65.7539 4.92188C64.3093 4.92188 62.9476 5.11275 61.7292 5.90075C60.5117 6.68774 59.7913 7.82711 59.4704 9.22909L59.4656 9.24885H62.9204L62.9243 9.23875C63.4272 8.04453 64.6515 7.74759 65.833 7.74759C66.5524 7.74759 67.3083 7.8639 67.9311 8.2457C68.4233 8.54734 68.6845 8.99035 68.732 9.56219L68.7466 9.74302H65.6748C64.2258 9.74302 62.3879 10.0467 61.1068 10.7429C59.9025 11.3971 59.4258 12.4921 59.4258 13.8253C59.4258 15.0483 59.7806 16.162 60.735 16.9714C61.7423 17.8266 63.4263 17.992 64.7005 17.992C65.9869 17.992 67.4321 17.7851 68.4689 16.9627L68.7398 16.7478V17.992ZM68.7398 12.2511V12.7615C68.7398 13.5567 68.4189 14.1828 67.7592 14.6312C67.0447 15.1169 66.2136 15.2998 65.3593 15.2998C64.7806 15.2998 63.8403 15.3084 63.3622 14.9579C62.9879 14.6833 62.7767 14.3215 62.7767 13.8516C62.7767 13.3284 63.3345 12.8749 63.7476 12.6306C64.285 12.3125 65.0607 12.2511 65.6748 12.2511H68.7398Z" fill="white"/>
<path fill-rule="evenodd" clip-rule="evenodd" d="M44.9704 17.9933H48.321V9.86602C48.321 8.34894 47.8036 7.05875 46.5896 6.11375C45.277 5.09147 43.5736 4.91992 41.9435 4.91992C40.4988 4.91992 39.1782 5.1141 37.9595 5.9021C36.7424 6.68909 36.0222 7.82845 35.7009 9.23044L35.6963 9.25019H39.151L39.155 9.2401C39.6576 8.04588 40.8822 7.74894 42.0633 7.74894C42.7829 7.74894 43.5391 7.86525 44.1617 8.24704C44.654 8.54869 44.915 8.9917 44.9624 9.56354L44.9774 9.74437H41.9053C40.4567 9.74437 38.6185 10.0481 37.3371 10.7442C36.1334 11.3985 35.6562 12.4935 35.6562 13.8266C35.6562 15.0496 36.0113 16.1633 36.9656 16.9727C37.973 17.8279 39.6568 17.9933 40.9309 17.9933C42.2172 17.9933 43.6626 17.7864 44.6992 16.9641L44.9704 16.7491V17.9933ZM44.9704 12.2525V12.7628C44.9704 13.558 44.6493 14.1842 43.9899 14.6325C43.2752 15.1183 42.4441 15.3011 41.5893 15.3011C41.0111 15.3011 40.071 15.3098 39.5928 14.9592C39.2185 14.6847 39.007 14.3228 39.007 13.8529C39.007 13.3298 39.5651 12.8763 39.9781 12.632C40.5155 12.3139 41.2913 12.2525 41.9053 12.2525H44.9704Z" fill="white"/>
<path fill-rule="evenodd" clip-rule="evenodd" d="M10.989 4.92578H6.53361C2.94041 4.92578 0 7.86659 0 11.4596C0 15.0528 2.94041 17.9934 6.53361 17.9934H18.3179L15.8268 13.5524H6.46128C5.30978 13.5524 4.36849 12.6109 4.36849 11.4596C4.36849 10.3083 5.30978 9.36683 6.46128 9.36683H13.4796L10.989 4.92578Z" fill="white"/>
<path fill-rule="evenodd" clip-rule="evenodd" d="M8.22266 0C9.14382 1.64199 10.0669 3.28315 10.988 4.92535H16.321L16.2148 4.73548H16.2193C15.3335 3.15657 14.446 1.5787 13.5602 0H8.22266Z" fill="white"/>
</svg>
