<svg width="36" height="36" viewBox="0 0 36 36" fill="none" xmlns="http://www.w3.org/2000/svg">
<rect width="36" height="36" rx="8" fill="#F3F7FF"/>
<path d="M23.625 21.5625C22.957 21.5625 22.3406 21.7969 21.8578 22.1883L17.0016 18.675C17.0829 18.2287 17.0829 17.7713 17.0016 17.325L21.8578 13.8117C22.3406 14.2031 22.957 14.4375 23.625 14.4375C25.1766 14.4375 26.4375 13.1766 26.4375 11.625C26.4375 10.0734 25.1766 8.8125 23.625 8.8125C22.0734 8.8125 20.8125 10.0734 20.8125 11.625C20.8125 11.8969 20.85 12.157 20.9227 12.4055L16.3102 15.7453C15.6258 14.8383 14.5383 14.25 13.3125 14.25C11.2406 14.25 9.5625 15.9281 9.5625 18C9.5625 20.0719 11.2406 21.75 13.3125 21.75C14.5383 21.75 15.6258 21.1617 16.3102 20.2547L20.9227 23.5945C20.85 23.843 20.8125 24.1055 20.8125 24.375C20.8125 25.9266 22.0734 27.1875 23.625 27.1875C25.1766 27.1875 26.4375 25.9266 26.4375 24.375C26.4375 22.8234 25.1766 21.5625 23.625 21.5625ZM23.625 10.4062C24.2977 10.4062 24.8438 10.9523 24.8438 11.625C24.8438 12.2977 24.2977 12.8438 23.625 12.8438C22.9523 12.8438 22.4062 12.2977 22.4062 11.625C22.4062 10.9523 22.9523 10.4062 23.625 10.4062ZM13.3125 20.0625C12.1758 20.0625 11.25 19.1367 11.25 18C11.25 16.8633 12.1758 15.9375 13.3125 15.9375C14.4492 15.9375 15.375 16.8633 15.375 18C15.375 19.1367 14.4492 20.0625 13.3125 20.0625ZM23.625 25.5938C22.9523 25.5938 22.4062 25.0477 22.4062 24.375C22.4062 23.7023 22.9523 23.1562 23.625 23.1562C24.2977 23.1562 24.8438 23.7023 24.8438 24.375C24.8438 25.0477 24.2977 25.5938 23.625 25.5938Z" fill="#6693F7"/>
</svg>
