<svg width="32" height="32" viewBox="0 0 32 32" fill="none" xmlns="http://www.w3.org/2000/svg">
<rect width="32" height="32" rx="16" fill="#F79A38"/>
<path d="M20.9905 18.2335C21.4103 17.8137 21.4703 17.214 21.1104 16.6143C20.8106 16.1346 20.2709 15.8947 19.6712 16.0146C19.4313 16.0746 19.1914 16.1945 18.9516 16.3745C17.0925 17.6338 14.5738 17.5738 12.7148 16.3145C12.5949 16.2545 12.4749 16.1945 12.355 16.1346C11.6953 15.8347 11.0357 15.9547 10.6759 16.5544C10.2561 17.1541 10.3161 17.8137 10.8558 18.3534C10.9757 18.4734 11.0956 18.5333 11.1556 18.6533L11.2156 18.7132C12.0552 19.3729 13.0746 19.7927 14.3939 19.9726L13.6143 20.7522C12.9547 21.4118 12.2351 22.1315 11.5754 22.7911C11.3955 22.971 11.1556 23.2709 11.1556 23.6906C11.1556 24.2304 11.4555 24.7701 11.9952 25.01C12.1751 25.1299 12.355 25.1299 12.5349 25.1299C12.8347 25.1299 13.1946 25.01 13.4344 24.7101C14.334 23.8106 15.0536 23.091 15.7732 22.3713C15.8332 22.3114 15.8332 22.3114 15.8332 22.3114C15.8332 22.3114 15.8932 22.3114 15.8932 22.3713C16.3729 22.9111 16.9126 23.3908 17.3924 23.9305C17.6323 24.1704 17.8721 24.4103 18.112 24.6502C18.4118 24.95 18.6517 25.0699 19.0115 25.0699C19.5513 25.1299 20.1509 24.7701 20.3908 24.2304C20.6307 23.7506 20.5108 23.1509 20.091 22.7911C19.4913 22.1914 18.8916 21.5318 18.2319 20.9321L17.2125 19.9126C17.7522 19.8526 18.3519 19.7327 18.8916 19.4928C19.7911 19.193 20.4508 18.7732 20.9905 18.2335Z" fill="white"/>
<path d="M15.8332 16.5544C18.4118 16.5544 20.5108 14.5154 20.5108 11.9367C20.5108 10.6774 20.031 9.47803 19.1315 8.5785C18.2319 7.67897 17.0925 7.19922 15.8932 7.19922C13.3145 7.19922 11.2756 9.29812 11.2156 11.8168C11.2156 13.0762 11.6953 14.2156 12.5949 15.1151C13.4344 16.0746 14.5738 16.5544 15.8332 16.5544ZM14.5139 10.5575C14.8737 10.1977 15.3534 10.0178 15.8332 10.0178C16.9126 10.0178 17.6922 10.8573 17.6922 11.8768C17.6922 12.9562 16.8527 13.7358 15.8332 13.7358C14.7537 13.7358 13.9742 12.8963 13.9742 11.8768C13.9742 11.397 14.1541 10.9173 14.5139 10.5575Z" fill="white"/>
<path d="M20.9905 18.2335C21.4103 17.8137 21.4703 17.214 21.1104 16.6143C20.8106 16.1346 20.2709 15.8947 19.6712 16.0146C19.4313 16.0746 19.1914 16.1945 18.9516 16.3745C17.0925 17.6338 14.5738 17.5738 12.7148 16.3145C12.5949 16.2545 12.4749 16.1945 12.355 16.1346C11.6953 15.8347 11.0357 15.9547 10.6759 16.5544C10.2561 17.1541 10.3161 17.8137 10.8558 18.3534C10.9757 18.4734 11.0956 18.5333 11.1556 18.6533L11.2156 18.7132C12.0552 19.3729 13.0746 19.7927 14.3939 19.9726L13.6143 20.7522C12.9547 21.4118 12.2351 22.1315 11.5754 22.7911C11.3955 22.971 11.1556 23.2709 11.1556 23.6906C11.1556 24.2304 11.4555 24.7701 11.9952 25.01C12.1751 25.1299 12.355 25.1299 12.5349 25.1299C12.8347 25.1299 13.1946 25.01 13.4344 24.7101C14.334 23.8106 15.0536 23.091 15.7732 22.3713C15.8332 22.3114 15.8332 22.3114 15.8332 22.3114C15.8332 22.3114 15.8932 22.3114 15.8932 22.3713C16.3729 22.9111 16.9126 23.3908 17.3924 23.9305C17.6323 24.1704 17.8721 24.4103 18.112 24.6502C18.4118 24.95 18.6517 25.0699 19.0115 25.0699C19.5513 25.1299 20.1509 24.7701 20.3908 24.2304C20.6307 23.7506 20.5108 23.1509 20.091 22.7911C19.4913 22.1914 18.8916 21.5318 18.2319 20.9321L17.2125 19.9126C17.7522 19.8526 18.3519 19.7327 18.8916 19.4928C19.7911 19.193 20.4508 18.7732 20.9905 18.2335Z" fill="white"/>
</svg>
