<svg width="36" height="36" viewBox="0 0 36 36" fill="none" xmlns="http://www.w3.org/2000/svg">
<rect width="36" height="36" rx="8" fill="#FEF6D8"/>
<path d="M25 24H11C10.4477 24 10 24.4477 10 25C10 25.5523 10.4477 26 11 26H25C25.5523 26 26 25.5523 26 25C26 24.4477 25.5523 24 25 24Z" fill="#F8D557"/>
<path d="M10 23V25C10 25.5523 10.4477 26 11 26C11.5523 26 12 25.5523 12 25V23C12 22.4477 11.5523 22 11 22C10.4477 22 10 22.4477 10 23Z" fill="#F8D557"/>
<path d="M24 23V25C24 25.5523 24.4477 26 25 26C25.5523 26 26 25.5523 26 25V23C26 22.4477 25.5523 22 25 22C24.4477 22 24 22.4477 24 23Z" fill="#F8D557"/>
<path d="M17.9995 21C17.7921 21.0016 17.5895 20.9387 17.4195 20.82L13.4195 18C13.2039 17.8471 13.0576 17.615 13.0126 17.3545C12.9677 17.0941 13.0276 16.8264 13.1795 16.61C13.2552 16.5019 13.3517 16.4098 13.4633 16.3391C13.5748 16.2684 13.6993 16.2206 13.8294 16.1982C13.9596 16.1759 14.0929 16.1796 14.2216 16.2091C14.3504 16.2386 14.472 16.2933 14.5795 16.37L17.9995 18.76L21.3995 16.2C21.6116 16.0409 21.8783 15.9725 22.1409 16.0101C22.4034 16.0476 22.6403 16.1878 22.7995 16.4C22.9586 16.6122 23.0269 16.8789 22.9894 17.1414C22.9519 17.404 22.8116 17.6409 22.5995 17.8L18.5995 20.8C18.4264 20.9298 18.2158 21 17.9995 21Z" fill="#F8D557"/>
<path d="M18 19C17.7348 19 17.4804 18.8946 17.2929 18.7071C17.1054 18.5196 17 18.2652 17 18V10C17 9.73478 17.1054 9.48043 17.2929 9.29289C17.4804 9.10536 17.7348 9 18 9C18.2652 9 18.5196 9.10536 18.7071 9.29289C18.8946 9.48043 19 9.73478 19 10V18C19 18.2652 18.8946 18.5196 18.7071 18.7071C18.5196 18.8946 18.2652 19 18 19Z" fill="#F8D557"/>
</svg>
