<svg width="32" height="32" viewBox="0 0 32 32" fill="none" xmlns="http://www.w3.org/2000/svg">
<rect width="32" height="32" rx="16" fill="#0077FF"/>
<path d="M16.7862 21.6004C10.773 21.6004 7.34311 17.3962 7.2002 10.4004H10.2123C10.3113 15.5351 12.5319 17.7101 14.2908 18.1585V10.4004H17.127V14.8288C18.8639 14.6382 20.6888 12.6202 21.3044 10.4004H24.1406C23.9086 11.5517 23.4462 12.6417 22.7823 13.6024C22.1183 14.5631 21.2672 15.3737 20.282 15.9836C21.3817 16.5408 22.353 17.3296 23.1318 18.2978C23.9106 19.266 24.4793 20.3916 24.8002 21.6004H21.6781C21.39 20.5505 20.8045 19.6106 19.9949 18.8987C19.1853 18.1867 18.1877 17.7342 17.127 17.598V21.6004H16.7862Z" fill="white"/>
</svg>
