<svg width="20" height="21" viewBox="0 0 20 21" fill="none" xmlns="http://www.w3.org/2000/svg">
<path fill-rule="evenodd" clip-rule="evenodd" d="M10.0001 2.26562C13.2217 2.26562 15.8334 4.8773 15.8334 8.09896C15.9501 10.7073 13.8584 14.1823 10.6751 18.5823C10.5184 18.7988 10.2673 18.9269 10.0001 18.9269C9.73284 18.9269 9.48181 18.7988 9.32509 18.5823C6.14175 14.174 4.05009 10.699 4.16675 8.09896C4.16675 4.8773 6.77843 2.26562 10.0001 2.26562ZM10.0001 16.6906C12.2251 13.5406 14.2834 10.2156 14.1668 8.17396V8.14896V8.09896C14.1668 5.79777 12.3013 3.93229 10.0001 3.93229C7.6989 3.93229 5.83342 5.79777 5.83342 8.09896V8.14896C5.71675 10.1906 7.77509 13.5156 10.0001 16.6906ZM10.0001 5.59896C8.61937 5.59896 7.50009 6.71825 7.50009 8.09896C7.50009 9.47967 8.61937 10.599 10.0001 10.599C11.3808 10.599 12.5001 9.47967 12.5001 8.09896C12.5001 7.43592 12.2367 6.80003 11.7679 6.33119C11.299 5.86235 10.6631 5.59896 10.0001 5.59896ZM9.16675 8.09896C9.16675 8.5592 9.53985 8.93229 10.0001 8.93229C10.4603 8.93229 10.8334 8.5592 10.8334 8.09896C10.8334 7.63872 10.4603 7.26562 10.0001 7.26562C9.53985 7.26562 9.16675 7.63872 9.16675 8.09896Z" fill="#00D45F"/>
</svg>
