<svg width="24" height="24" viewBox="0 0 24 24" fill="none" xmlns="http://www.w3.org/2000/svg">
<path d="M18 22.0009H6C5.46957 22.0009 4.96086 21.7902 4.58579 21.4151C4.21071 21.04 4 20.5313 4 20.0009V4.00088C4 3.47045 4.21071 2.96174 4.58579 2.58667C4.96086 2.21159 5.46957 2.00088 6 2.00088H13C13.009 1.99971 13.018 1.99971 13.027 2.00088H13.033C13.0424 2.00383 13.0522 2.00584 13.062 2.00688C13.15 2.01288 13.237 2.02988 13.321 2.05788H13.363C13.3815 2.0708 13.3988 2.08518 13.415 2.10088C13.5239 2.14932 13.6232 2.21708 13.708 2.30088L19.708 8.30088C19.7918 8.38567 19.8596 8.48494 19.908 8.59388C19.9167 8.6155 19.9244 8.63753 19.931 8.65988L19.941 8.68788C19.969 8.77088 19.985 8.85788 19.99 8.94588C19.9909 8.95584 19.9932 8.96562 19.997 8.97488V8.98088C19.9986 8.98744 19.9996 8.99414 20 9.00088V20.0009C20 20.5313 19.7893 21.04 19.4142 21.4151C19.0391 21.7902 18.5304 22.0009 18 22.0009ZM14.424 14.0009V19.0009H15.364V16.9609H16.824V16.1229H15.364V14.8419H17V14.0009H14.424ZM10.724 14.0009V19.0009H11.93C12.1798 19.0132 12.4292 18.9693 12.6597 18.8724C12.8902 18.7755 13.0961 18.628 13.262 18.4409C13.6069 18.0008 13.7797 17.4501 13.748 16.8919V16.0819C13.7713 15.5295 13.5936 14.9874 13.248 14.5559C12.923 14.1859 12.448 13.9819 11.955 14.0009H10.724ZM7 14.0009V19.0009H7.94V17.2419H8.566C8.984 17.2649 9.392 17.1099 9.69 16.8159C9.97389 16.4982 10.1212 16.0814 10.1 15.6559C10.1186 15.2201 9.97135 14.7935 9.688 14.4619C9.54958 14.3084 9.37889 14.1874 9.18818 14.1077C8.99747 14.028 8.79148 13.9915 8.585 14.0009H7ZM13 4.00088V9.00088H18L13 4.00088ZM11.946 18.1629H11.664V14.8419H12.006C12.1255 14.8348 12.2449 14.8579 12.3532 14.9089C12.4615 14.9599 12.5553 15.0373 12.626 15.1339C12.773 15.4369 12.836 15.7739 12.808 16.1099V16.9789C12.83 17.2989 12.761 17.6189 12.608 17.8999C12.5273 17.9941 12.4248 18.0673 12.3095 18.1131C12.1941 18.159 12.0694 18.176 11.946 18.1629ZM8.585 16.4009H7.939V14.8419H8.594C8.67444 14.8427 8.75334 14.864 8.82331 14.9037C8.89327 14.9434 8.952 15.0003 8.994 15.0689C9.102 15.2479 9.154 15.4539 9.144 15.6629C9.15654 15.8574 9.1049 16.0506 8.997 16.2129C8.94797 16.2744 8.8851 16.3235 8.81351 16.3562C8.74191 16.3889 8.66362 16.4042 8.585 16.4009Z" fill="#ED6A50"/>
</svg>
