<svg width="28" height="28" viewBox="0 0 28 28" fill="none" xmlns="http://www.w3.org/2000/svg">
<path d="M25.6654 13.989C25.6654 7.55482 20.4387 2.33398 13.9987 2.33398C7.5587 2.33398 2.33203 7.55482 2.33203 13.989C2.33203 17.5327 3.94203 20.7265 6.46203 22.8702C6.48536 22.8936 6.5087 22.8936 6.5087 22.9169C6.7187 23.0802 6.9287 23.2436 7.16203 23.4069C7.2787 23.4769 7.37203 23.5688 7.4887 23.6621C9.41671 24.9693 11.6926 25.6678 14.022 25.6673C16.3514 25.6678 18.6273 24.9693 20.5554 23.6621C20.672 23.5921 20.7654 23.5002 20.882 23.4288C21.092 23.2669 21.3254 23.1036 21.5354 22.9402C21.5587 22.9169 21.582 22.9169 21.582 22.8936C24.0554 20.725 25.6654 17.5327 25.6654 13.989ZM13.9987 24.1988C11.8054 24.1988 9.7987 23.4988 8.14203 22.3336C8.16536 22.1469 8.21203 21.9617 8.2587 21.775C8.39773 21.2691 8.60165 20.7834 8.86536 20.3298C9.12203 19.8865 9.42536 19.4898 9.7987 19.1398C10.1487 18.7898 10.5687 18.4646 10.9887 18.2079C11.432 17.9513 11.8987 17.7646 12.412 17.6246C12.9294 17.4852 13.4629 17.415 13.9987 17.4161C15.5892 17.4048 17.1213 18.0149 18.2687 19.1165C18.8054 19.6532 19.2254 20.2832 19.5287 21.005C19.692 21.425 19.8087 21.8684 19.8787 22.3336C18.1567 23.5442 16.1037 24.1954 13.9987 24.1988ZM10.4287 13.4071C10.2231 12.9364 10.1197 12.4274 10.1254 11.9138C10.1254 11.4019 10.2187 10.8886 10.4287 10.4219C10.6387 9.95523 10.9187 9.53669 11.2687 9.18669C11.6187 8.83669 12.0387 8.55815 12.5054 8.34815C12.972 8.13815 13.4854 8.04482 13.9987 8.04482C14.5354 8.04482 15.0254 8.13815 15.492 8.34815C15.9587 8.55815 16.3787 8.83815 16.7287 9.18669C17.0787 9.53669 17.3587 9.95669 17.5687 10.4219C17.7787 10.8886 17.872 11.4019 17.872 11.9138C17.872 12.4504 17.7787 12.9404 17.5687 13.4057C17.366 13.8654 17.0814 14.2845 16.7287 14.6423C16.3707 14.9945 15.9517 15.2786 15.492 15.4809C14.5278 15.8771 13.4462 15.8771 12.482 15.4809C12.0224 15.2786 11.6033 14.9945 11.2454 14.6423C10.8922 14.2897 10.6143 13.8689 10.4287 13.4057V13.4071ZM21.2554 21.145C21.2554 21.0984 21.232 21.075 21.232 21.0284C21.0025 20.2983 20.6643 19.6071 20.2287 18.9779C19.7927 18.3441 19.2569 17.7851 18.642 17.3227C18.1725 16.9695 17.6635 16.6719 17.1254 16.4361C17.3702 16.2746 17.597 16.0873 17.802 15.8775C18.1499 15.5341 18.4554 15.1503 18.712 14.7342C19.2288 13.8852 19.4957 12.9076 19.482 11.9138C19.4892 11.1781 19.3463 10.4486 19.062 9.77003C18.7813 9.11617 18.3773 8.5225 17.872 8.02148C17.3675 7.5257 16.7737 7.12985 16.122 6.85482C15.4423 6.57102 14.7119 6.42861 13.9754 6.43628C13.2387 6.42907 12.5083 6.57198 11.8287 6.85628C11.1714 7.13072 10.5761 7.53496 10.0787 8.04482C9.58293 8.5488 9.18706 9.1421 8.91203 9.79336C8.62773 10.472 8.48481 11.2014 8.49203 11.9371C8.49203 12.4504 8.56203 12.9404 8.70203 13.4057C8.84203 13.8957 9.0287 14.339 9.28537 14.7575C9.5187 15.1775 9.84537 15.5509 10.1954 15.9009C10.4054 16.1109 10.6387 16.2961 10.8954 16.4594C10.3555 16.7016 9.84641 17.007 9.3787 17.3694C8.77203 17.8361 8.23536 18.3946 7.79203 19.0013C7.35199 19.6278 7.0134 20.3198 6.7887 21.0517C6.76536 21.0984 6.76536 21.145 6.76536 21.1684C4.92203 19.3032 3.7787 16.7861 3.7787 13.989C3.7787 8.37148 8.37536 3.77919 13.9987 3.77919C19.622 3.77919 24.2187 8.37148 24.2187 13.989C24.2156 16.6723 23.1502 19.2451 21.2554 21.145Z" fill="#737373"/>
</svg>
