<svg width="28" height="28" viewBox="0 0 28 28" fill="none" xmlns="http://www.w3.org/2000/svg">
<path d="M25.6693 13.989C25.6693 7.55482 20.4426 2.33398 14.0026 2.33398C7.5626 2.33398 2.33594 7.55482 2.33594 13.989C2.33594 17.5327 3.94594 20.7265 6.46594 22.8702C6.48927 22.8936 6.5126 22.8936 6.5126 22.9169C6.7226 23.0802 6.9326 23.2436 7.16594 23.4069C7.2826 23.4769 7.37594 23.5688 7.4926 23.6621C9.42062 24.9693 11.6966 25.6678 14.0259 25.6673C16.3553 25.6678 18.6313 24.9693 20.5593 23.6621C20.6759 23.5921 20.7693 23.5002 20.8859 23.4288C21.0959 23.2669 21.3293 23.1036 21.5393 22.9402C21.5626 22.9169 21.5859 22.9169 21.5859 22.8936C24.0593 20.725 25.6693 17.5327 25.6693 13.989ZM14.0026 24.1988C11.8093 24.1988 9.8026 23.4988 8.14594 22.3336C8.16927 22.1469 8.21594 21.9617 8.2626 21.775C8.40164 21.2691 8.60555 20.7834 8.86927 20.3298C9.12594 19.8865 9.42927 19.4898 9.8026 19.1398C10.1526 18.7898 10.5726 18.4646 10.9926 18.2079C11.4359 17.9513 11.9026 17.7646 12.4159 17.6246C12.9333 17.4852 13.4668 17.415 14.0026 17.4161C15.5931 17.4048 17.1252 18.0149 18.2726 19.1165C18.8093 19.6532 19.2293 20.2832 19.5326 21.005C19.6959 21.425 19.8126 21.8684 19.8826 22.3336C18.1606 23.5442 16.1076 24.1954 14.0026 24.1988ZM10.4326 13.4071C10.227 12.9364 10.1236 12.4274 10.1293 11.9138C10.1293 11.4019 10.2226 10.8886 10.4326 10.4219C10.6426 9.95523 10.9226 9.53669 11.2726 9.18669C11.6226 8.83669 12.0426 8.55815 12.5093 8.34815C12.9759 8.13815 13.4893 8.04482 14.0026 8.04482C14.5393 8.04482 15.0293 8.13815 15.4959 8.34815C15.9626 8.55815 16.3826 8.83815 16.7326 9.18669C17.0826 9.53669 17.3626 9.95669 17.5726 10.4219C17.7826 10.8886 17.8759 11.4019 17.8759 11.9138C17.8759 12.4504 17.7826 12.9404 17.5726 13.4057C17.3699 13.8654 17.0853 14.2845 16.7326 14.6423C16.3746 14.9945 15.9556 15.2786 15.4959 15.4809C14.5317 15.8771 13.4501 15.8771 12.4859 15.4809C12.0263 15.2786 11.6072 14.9945 11.2493 14.6423C10.8961 14.2897 10.6182 13.8689 10.4326 13.4057V13.4071ZM21.2593 21.145C21.2593 21.0984 21.2359 21.075 21.2359 21.0284C21.0065 20.2983 20.6682 19.6071 20.2326 18.9779C19.7966 18.3441 19.2608 17.7851 18.6459 17.3227C18.1764 16.9695 17.6674 16.6719 17.1293 16.4361C17.3741 16.2746 17.6009 16.0873 17.8059 15.8775C18.1538 15.5341 18.4593 15.1503 18.7159 14.7342C19.2327 13.8852 19.4996 12.9076 19.4859 11.9138C19.4932 11.1781 19.3502 10.4486 19.0659 9.77003C18.7852 9.11617 18.3812 8.5225 17.8759 8.02148C17.3714 7.5257 16.7776 7.12985 16.1259 6.85482C15.4462 6.57102 14.7158 6.42861 13.9793 6.43628C13.2426 6.42907 12.5122 6.57198 11.8326 6.85628C11.1753 7.13072 10.5801 7.53496 10.0826 8.04482C9.58683 8.5488 9.19097 9.1421 8.91594 9.79336C8.63163 10.472 8.48872 11.2014 8.49594 11.9371C8.49594 12.4504 8.56594 12.9404 8.70594 13.4057C8.84594 13.8957 9.0326 14.339 9.28927 14.7575C9.5226 15.1775 9.84927 15.5509 10.1993 15.9009C10.4093 16.1109 10.6426 16.2961 10.8993 16.4594C10.3594 16.7016 9.85032 17.007 9.3826 17.3694C8.77594 17.8361 8.23927 18.3946 7.79594 19.0013C7.3559 19.6278 7.0173 20.3198 6.7926 21.0517C6.76927 21.0984 6.76927 21.145 6.76927 21.1684C4.92594 19.3032 3.7826 16.7861 3.7826 13.989C3.7826 8.37148 8.37927 3.77919 14.0026 3.77919C19.6259 3.77919 24.2226 8.37148 24.2226 13.989C24.2196 16.6723 23.1541 19.2451 21.2593 21.145Z" fill="#272833"/>
</svg>
