<svg width="24" height="25" viewBox="0 0 24 25" fill="none" xmlns="http://www.w3.org/2000/svg">
<path fill-rule="evenodd" clip-rule="evenodd" d="M12 22.5C6.47715 22.5 2 18.0228 2 12.5C2 6.97715 6.47715 2.5 12 2.5C14.6522 2.5 17.1957 3.55357 19.0711 5.42893C20.9464 7.3043 22 9.84784 22 12.5C22 18.0228 17.5228 22.5 12 22.5ZM13 13.5V7.5C13 6.94772 12.5523 6.5 12 6.5C11.4477 6.5 11 6.94772 11 7.5V13.5C11 14.0523 11.4477 14.5 12 14.5C12.5523 14.5 13 14.0523 13 13.5ZM12.38 16.58C12.4437 16.6019 12.5043 16.6322 12.56 16.67C12.6124 16.7069 12.6625 16.747 12.71 16.79C12.8927 16.9816 12.9963 17.2352 13 17.5C13.0015 17.7658 12.8972 18.0213 12.71 18.21C12.6128 18.2983 12.5012 18.3694 12.38 18.42C12.138 18.527 11.862 18.527 11.62 18.42C11.4988 18.3694 11.3872 18.2983 11.29 18.21C11.1028 18.0213 10.9985 17.7658 11 17.5C10.9985 17.2342 11.1028 16.9787 11.29 16.79C11.5264 16.5559 11.8638 16.4547 12.19 16.52C12.2562 16.5293 12.3205 16.5496 12.38 16.58ZM12 4.5C16.4183 4.5 20 8.08172 20 12.5C20 14.6217 19.1571 16.6566 17.6569 18.1569C16.1566 19.6571 14.1217 20.5 12 20.5C7.58172 20.5 4 16.9183 4 12.5C4 8.08172 7.58172 4.5 12 4.5Z" fill="#ED6A50"/>
</svg>
