<svg width="24" height="24" viewBox="0 0 24 24" fill="none" xmlns="http://www.w3.org/2000/svg">
<g clip-path="url(#clip0_663_28795)">
<path d="M24 18.0007C24 18.7079 23.719 19.3862 23.219 19.8863C22.7189 20.3864 22.0406 20.6673 21.3333 20.6673H2.66667C1.95942 20.6673 1.28115 20.3864 0.781049 19.8863C0.280952 19.3862 0 18.7079 0 18.0007V15.334H24V18.0007Z" fill="#DD272F"/>
<path d="M0 8.66602H24V15.3327H0V8.66602Z" fill="#2A4FAC"/>
<path d="M21.3333 3.33398H2.66667C1.95942 3.33398 1.28115 3.61494 0.781049 4.11503C0.280952 4.61513 0 5.29341 0 6.00065L0 8.66732H24V6.00065C24 5.29341 23.719 4.61513 23.219 4.11503C22.7189 3.61494 22.0406 3.33398 21.3333 3.33398V3.33398Z" fill="white"/>
</g>
<defs>
<clipPath id="clip0_663_28795">
<rect width="24" height="24" fill="white"/>
</clipPath>
</defs>
</svg>
