<svg width="32" height="32" viewBox="0 0 32 32" fill="none" xmlns="http://www.w3.org/2000/svg">
<path d="M14.3884 4.20235C14.5371 3.90123 14.767 3.6477 15.0522 3.47043C15.3375 3.29316 15.6666 3.19922 16.0024 3.19922C16.3382 3.19922 16.6673 3.29316 16.9526 3.47043C17.2378 3.6477 17.4677 3.90123 17.6164 4.20235L20.6584 10.3663L27.4604 11.3563C27.7929 11.4043 28.1054 11.5444 28.3625 11.7607C28.6195 11.977 28.8109 12.261 28.9149 12.5804C29.019 12.8999 29.0316 13.2421 28.9512 13.5683C28.8709 13.8945 28.7009 14.1917 28.4604 14.4263L23.5364 19.2243L24.6984 25.9983C24.7553 26.3295 24.7184 26.6699 24.5919 26.9811C24.4654 27.2924 24.2543 27.562 23.9825 27.7595C23.7108 27.957 23.3891 28.0745 23.054 28.0987C22.7189 28.1228 22.3837 28.0528 22.0864 27.8963L16.0024 24.6963L9.9184 27.8963C9.62107 28.0528 9.28589 28.1228 8.95079 28.0987C8.6157 28.0745 8.29406 27.957 8.02227 27.7595C7.75048 27.562 7.53938 27.2924 7.41287 26.9811C7.28636 26.6699 7.24948 26.3295 7.3064 25.9983L8.4664 19.2243L3.5464 14.4243C3.30654 14.1898 3.13701 13.8929 3.05692 13.5671C2.97684 13.2413 2.98939 12.8996 3.09317 12.5806C3.19695 12.2616 3.38782 11.9779 3.64425 11.7616C3.90067 11.5452 4.21245 11.4049 4.5444 11.3563L11.3444 10.3663L14.3884 4.20235ZM16.0004 5.45235L13.0924 11.3463C12.9633 11.6078 12.7726 11.8339 12.5367 12.0053C12.3009 12.1767 12.0269 12.2883 11.7384 12.3303L5.2324 13.2763L9.9404 17.8643C10.1492 18.0683 10.3053 18.32 10.3952 18.5977C10.4851 18.8753 10.5061 19.1707 10.4564 19.4583L9.3464 25.9383L15.1664 22.8783C15.4246 22.7428 15.7118 22.6719 16.0034 22.6719C16.295 22.6719 16.5822 22.7428 16.8404 22.8783L22.6604 25.9383L21.5484 19.4583C21.4987 19.1707 21.5197 18.8753 21.6096 18.5977C21.6995 18.32 21.8556 18.0683 22.0644 17.8643L26.7724 13.2763L20.2664 12.3303C19.9779 12.2883 19.7039 12.1767 19.4681 12.0053C19.2322 11.8339 19.0415 11.6078 18.9124 11.3463L16.0004 5.45235Z" fill="#CFCFCF"/>
</svg>
