<svg width="70" height="70" viewBox="0 0 70 70" fill="none" xmlns="http://www.w3.org/2000/svg">
<path d="M50.625 26.3535V21.666C50.625 21.2517 50.4604 20.8541 50.1674 20.5611C49.8744 20.2681 49.4768 20.1035 49.0625 20.1035H14.6875C14.2732 20.1035 13.8756 20.2681 13.5826 20.5611C13.2896 20.8541 13.125 21.2517 13.125 21.666V43.541C13.125 43.9554 13.2896 44.353 13.5826 44.6459C13.8756 44.9389 14.2732 45.1035 14.6875 45.1035H30.3125V48.2285H25.625C25.0666 48.2285 24.5508 48.5264 24.2718 49.0098C23.9928 49.4932 23.9928 50.0889 24.2718 50.5723C24.5508 51.0557 25.0666 51.3535 25.625 51.3535H38.125C38.6834 51.3535 39.1992 51.0557 39.4782 50.5723C39.7572 50.0889 39.7572 49.4932 39.4782 49.0098C39.1992 48.5264 38.6834 48.2285 38.125 48.2285H33.4375V45.1035H39.6875V27.916C39.6875 27.5017 39.8521 27.1041 40.1451 26.8111C40.4381 26.5181 40.8357 26.3535 41.25 26.3535H50.625Z" fill="#00D45F"/>
<path d="M55.3125 29.4785H44.375C43.9607 29.4785 43.5631 29.6431 43.2701 29.9361C42.9771 30.2291 42.8125 30.6267 42.8125 31.041V49.791C42.8125 50.2054 42.9771 50.603 43.2701 50.8959C43.5631 51.1889 43.9607 51.3535 44.375 51.3535H55.3125C55.7268 51.3535 56.1244 51.1889 56.4174 50.8959C56.7104 50.603 56.875 50.2054 56.875 49.791V31.041C56.875 30.6267 56.7104 30.2291 56.4174 29.9361C56.1244 29.6431 55.7268 29.4785 55.3125 29.4785Z" fill="#00D45F"/>
</svg>
