<svg width="70" height="70" viewBox="0 0 70 70" fill="none" xmlns="http://www.w3.org/2000/svg">
<path d="M61.25 36.459C61.25 21.9615 49.4975 10.209 35 10.209C20.5025 10.209 8.75 21.9615 8.75 36.459C8.75 50.9565 20.5025 62.709 35 62.709C49.4975 62.709 61.25 50.9565 61.25 36.459ZM22.925 36.459C22.925 29.7901 28.3312 24.384 35 24.384C41.6688 24.384 47.075 29.7901 47.075 36.459C47.075 43.1278 41.6688 48.534 35 48.534C28.3312 48.534 22.925 43.1278 22.925 36.459Z" fill="#EDFAEF"/>
<path d="M35 10.209C40.3258 10.209 45.5256 11.829 49.909 14.8538C54.2924 17.8786 57.6521 22.1653 59.5419 27.1445C61.4316 32.1237 61.7622 37.56 60.4896 42.7315C59.217 47.903 56.4014 52.5651 52.4168 56.0987C48.4321 59.6323 43.4669 61.8704 38.1803 62.5156C32.8938 63.1609 27.536 62.1828 22.8184 59.7113C18.1008 57.2398 14.2466 53.3918 11.7674 48.6782C9.2883 43.9647 8.30157 38.6085 8.93825 33.3209L23.0116 35.0155C22.7187 37.4478 23.1726 39.9116 24.313 42.0798C25.4534 44.2481 27.2264 46.0182 29.3965 47.1551C31.5666 48.2919 34.0311 48.7418 36.463 48.445C38.8948 48.1482 41.1788 47.1187 43.0117 45.4933C44.8447 43.8678 46.1398 41.7232 46.7252 39.3443C47.3106 36.9654 47.1586 34.4648 46.2893 32.1743C45.4199 29.8839 43.8745 27.912 41.8581 26.5206C39.8418 25.1292 37.4499 24.384 35 24.384L35 10.209Z" fill="#00D45F"/>
</svg>
