<svg width="24" height="25" viewBox="0 0 24 25" fill="none" xmlns="http://www.w3.org/2000/svg">
<path d="M14 10.5L14 17.5" stroke="#AEAEAE" stroke-width="2" stroke-linecap="round" stroke-linejoin="round"/>
<path d="M10 10.5L10 17.5" stroke="#AEAEAE" stroke-width="2" stroke-linecap="round" stroke-linejoin="round"/>
<path d="M6 6.5V5.5C5.44772 5.5 5 5.94772 5 6.5H6ZM18 6.5H19C19 5.94772 18.5523 5.5 18 5.5V6.5ZM6 7.5H18V5.5H6V7.5ZM17 6.5V20.5H19V6.5H17ZM17 20.5H7V22.5H17V20.5ZM7 20.5V6.5H5V20.5H7ZM7 20.5H7H5C5 21.6046 5.89543 22.5 7 22.5V20.5ZM17 20.5V22.5C18.1046 22.5 19 21.6046 19 20.5H17Z" fill="#AEAEAE"/>
<path d="M4 6.5H20" stroke="#AEAEAE" stroke-width="2" stroke-linecap="round" stroke-linejoin="round"/>
<path d="M16 6.5V7.5C16.5523 7.5 17 7.05228 17 6.5H16ZM8 6.5H7C7 7.05228 7.44772 7.5 8 7.5V6.5ZM9 4.5H15V2.5H9V4.5ZM15 4.5V6.5H17V4.5H15ZM16 5.5H8V7.5H16V5.5ZM9 6.5V4.5H7V6.5H9ZM15 4.5H17C17 3.39543 16.1046 2.5 15 2.5V4.5ZM9 2.5C7.89543 2.5 7 3.39543 7 4.5H9V4.5V2.5Z" fill="#AEAEAE"/>
</svg>
