<svg width="60" height="60" viewBox="0 0 60 60" fill="none" xmlns="http://www.w3.org/2000/svg">
<rect width="60" height="60" rx="8" fill="#EDFAEF"/>
<path d="M47.9844 30.5469L42.9844 18.0469C42.9834 18.0348 42.9778 18.0236 42.9688 18.0156C42.9688 18 42.9531 17.9688 42.9531 17.9531L42.9062 17.8594C42.8965 17.8521 42.8887 17.8427 42.8832 17.8318C42.8778 17.821 42.875 17.809 42.875 17.7969L42.7812 17.6719C42.7812 17.6562 42.7656 17.6406 42.75 17.625L42.6875 17.5469L42.6406 17.5L42.5781 17.4219L42.5312 17.375L42.4062 17.2812L42.375 17.25L42.2812 17.1875L42.2188 17.1406L42.1406 17.0938L42.0781 17.0625L41.9844 17.0312L41.875 16.9844L41.7969 16.9531H41L40.8594 16.9844H40.8281L31.875 18.9062V16.25C31.875 15.7527 31.6775 15.2758 31.3258 14.9242C30.9742 14.5725 30.4973 14.375 30 14.375C29.5027 14.375 29.0258 14.5725 28.6742 14.9242C28.3225 15.2758 28.125 15.7527 28.125 16.25V19.75L18.3438 21.9219L18.1719 21.9688H18.125L18.0156 22.0156H17.9531L17.8438 22.0781L17.7969 22.1094L17.6875 22.1719L17.625 22.2187L17.5469 22.2812L17.5 22.3438L17.4062 22.4375C17.4062 22.4531 17.3906 22.4531 17.3906 22.4688C17.3462 22.5028 17.3091 22.5452 17.2812 22.5938L17.25 22.625L17.1875 22.7188L17.1562 22.7656C17.132 22.8 17.1111 22.8367 17.0938 22.875V22.9062C17.0666 22.95 17.0455 22.9974 17.0312 23.0469H17.0156L12.0156 35.5469C11.924 35.77 11.8762 36.0088 11.875 36.25C11.875 38.1406 12.8438 39.75 14.6094 40.7812C15.8718 41.4975 17.2985 41.8741 18.75 41.8741C20.2015 41.8741 21.6282 41.4975 22.8906 40.7812C24.6562 39.75 25.625 38.1406 25.625 36.25C25.6238 36.0088 25.576 35.77 25.4844 35.5469L21.3125 25.1094L28.125 23.5938V41.875H26.25C25.7527 41.875 25.2758 42.0725 24.9242 42.4242C24.5725 42.7758 24.375 43.2527 24.375 43.75C24.375 44.2473 24.5725 44.7242 24.9242 45.0758C25.2758 45.4275 25.7527 45.625 26.25 45.625H33.75C34.2473 45.625 34.7242 45.4275 35.0758 45.0758C35.4275 44.7242 35.625 44.2473 35.625 43.75C35.625 43.2527 35.4275 42.7758 35.0758 42.4242C34.7242 42.0725 34.2473 41.875 33.75 41.875H31.875V22.75L38.1875 21.3438L34.5156 30.5469C34.424 30.77 34.3762 31.0088 34.375 31.25C34.375 33.1406 35.3438 34.75 37.1094 35.7812C38.3718 36.4975 39.7985 36.8741 41.25 36.8741C42.7015 36.8741 44.1282 36.4975 45.3906 35.7812C47.1562 34.75 48.125 33.1406 48.125 31.25C48.1238 31.0088 48.076 30.77 47.9844 30.5469ZM18.75 38.125C18.1719 38.125 15.9375 37.8281 15.6562 36.5312L18.75 28.7969L21.8438 36.5312C21.5625 37.8281 19.3281 38.125 18.75 38.125ZM41.25 33.125C40.6719 33.125 38.4375 32.8281 38.1562 31.5312L41.25 23.7969L44.3438 31.5312C44.0625 32.8281 41.8281 33.125 41.25 33.125Z" fill="#00D45F"/>
</svg>
