<svg width="60" height="60" viewBox="0 0 60 60" fill="none" xmlns="http://www.w3.org/2000/svg">
<rect width="60" height="60" rx="8" fill="#EDFAEF"/>
<path fill-rule="evenodd" clip-rule="evenodd" d="M46.6673 18.334V41.6673C46.6673 44.4287 44.4287 46.6673 41.6673 46.6673H18.334C15.5726 46.6673 13.334 44.4287 13.334 41.6673V18.334C13.334 15.5726 15.5726 13.334 18.334 13.334H41.6673C44.4287 13.334 46.6673 15.5726 46.6673 18.334ZM28.334 20.0007H38.334C39.2545 20.0007 40.0007 20.7468 40.0007 21.6673C40.0007 22.5878 39.2545 23.334 38.334 23.334H28.334C27.4135 23.334 26.6673 22.5878 26.6673 21.6673C26.6673 20.7468 27.4135 20.0007 28.334 20.0007ZM23.334 21.6673C23.3314 21.4495 23.2861 21.2344 23.2007 21.034C23.1162 20.832 22.9979 20.646 22.8507 20.484C22.6886 20.3368 22.5026 20.2184 22.3007 20.134C21.68 19.873 20.9633 20.0111 20.484 20.484C20.3368 20.646 20.2184 20.832 20.134 21.034C20.0486 21.2344 20.0033 21.4495 20.0007 21.6673C19.9981 22.1103 20.172 22.5361 20.484 22.8507C20.8034 23.1552 21.226 23.3278 21.6673 23.334C21.8859 23.3396 22.1029 23.294 22.3007 23.2007C22.5026 23.1162 22.6886 22.9979 22.8507 22.8507C23.1552 22.5313 23.3278 22.1086 23.334 21.6673ZM22.3007 28.4673C21.68 28.2063 20.9633 28.3444 20.484 28.8173C20.3296 28.9738 20.2103 29.1612 20.134 29.3673C20.0486 29.5677 20.0033 29.7829 20.0007 30.0007C19.9981 30.4437 20.172 30.8695 20.484 31.184C20.8034 31.4885 21.226 31.6612 21.6673 31.6673C21.8851 31.6647 22.1003 31.6194 22.3007 31.534C22.5026 31.4496 22.6886 31.3312 22.8507 31.184L23.0507 30.934C23.1137 30.8411 23.1642 30.7402 23.2007 30.634C23.2603 30.5415 23.3053 30.4403 23.334 30.334C23.3422 30.223 23.3422 30.1116 23.334 30.0007C23.3278 29.5594 23.1552 29.1367 22.8507 28.8173C22.6886 28.6701 22.5026 28.5517 22.3007 28.4673ZM28.334 28.334H38.334C39.2545 28.334 40.0007 29.0802 40.0007 30.0007C40.0007 30.9211 39.2545 31.6673 38.334 31.6673H28.334C27.4135 31.6673 26.6673 30.9211 26.6673 30.0007C26.6673 29.0802 27.4135 28.334 28.334 28.334ZM22.8507 37.1507C22.6886 37.0034 22.5026 36.8851 22.3007 36.8006C21.68 36.5397 20.9633 36.6777 20.484 37.1507C20.3322 37.3092 20.2133 37.4961 20.134 37.7006C19.9557 38.104 19.9557 38.5639 20.134 38.9673C20.2133 39.1719 20.3322 39.3588 20.484 39.5173C20.8034 39.8219 21.226 39.9945 21.6673 40.0007C21.8851 39.998 22.1003 39.9527 22.3007 39.8673C22.5026 39.7829 22.6886 39.6645 22.8507 39.5173C23.0024 39.3588 23.1213 39.1719 23.2007 38.9673C23.3789 38.5639 23.3789 38.104 23.2007 37.7006C23.1213 37.4961 23.0024 37.3092 22.8507 37.1507ZM28.334 36.6673H38.334C39.2545 36.6673 40.0007 37.4135 40.0007 38.334C40.0007 39.2545 39.2545 40.0007 38.334 40.0007H28.334C27.4135 40.0007 26.6673 39.2545 26.6673 38.334C26.6673 37.4135 27.4135 36.6673 28.334 36.6673ZM41.6673 16.6673C42.5878 16.6673 43.334 17.4135 43.334 18.334V41.6673C43.334 42.5878 42.5878 43.334 41.6673 43.334H18.334C17.4135 43.334 16.6673 42.5878 16.6673 41.6673V18.334C16.6673 17.4135 17.4135 16.6673 18.334 16.6673H41.6673Z" fill="#00D45F"/>
</svg>
