<svg width="221" height="68" viewBox="0 0 221 68" fill="none" xmlns="http://www.w3.org/2000/svg">
<g clip-path="url(#clip0_646_8487)">
<path d="M54.4005 17.8166C53.8092 18.4105 53.8092 19.3013 54.4005 19.7467C54.9918 20.3406 55.8788 20.3406 56.3222 19.7467C56.9136 19.1528 56.9136 18.262 56.3222 17.8166C55.7309 17.2227 54.844 17.2227 54.4005 17.8166Z" fill="#FEFEFE"/>
<path d="M68 16.9258H62.0869L60.6087 18.7074C60.313 19.0044 60.4608 19.1529 60.7565 19.3013L62.6782 20.1922L68.1478 17.6681C68.5913 17.5197 68.4435 16.9258 68 16.9258ZM45.9739 46.0262H38.7304C36.8087 47.214 36.2174 47.5109 33.7043 48.5502C33.5565 48.5502 33.4087 48.8472 33.5565 48.9957L40.0608 67.2577H43.7565L37.8435 50.4804C41.6869 50.4804 51 49.4411 56.0261 41.2751C54.4 43.6507 50.7043 46.0262 45.9739 46.0262ZM56.3217 19.7467C55.7304 20.3406 54.8435 20.3406 54.4 19.7467C53.8087 19.1529 53.8087 18.262 54.4 17.8166C54.9913 17.2227 55.8782 17.2227 56.3217 17.8166C55.1391 16.6288 53.2174 16.6288 52.1826 17.8166C51.1478 19.0044 51 20.786 52.1826 21.9738C53.3652 23.1616 55.2869 23.1616 56.3217 21.9738C57.3565 20.786 57.5043 19.0044 56.3217 17.8166C56.7652 18.4105 56.7652 19.1529 56.3217 19.7467ZM41.9826 53.0044L47.0087 67.2577H50.7043L45.3826 52.262C44.4956 52.559 43.313 52.7074 41.9826 53.0044ZM47.0087 35.1878C47.4522 34.5939 47.7478 34 48.1913 33.2577C48.0435 33.1092 47.8956 33.2577 47.7478 33.4061C40.2087 41.4236 32.9652 42.4629 27.3478 42.4629H18.7739C18.4782 42.4629 18.3304 42.166 18.4782 41.869C25.1304 32.6638 32.3739 25.3887 37.8435 20.786L23.5043 32.8122C22.3217 33.7031 20.9913 34.297 19.2174 34.297H1.18259C0.739107 34.297 0.886933 34.7424 0.886933 35.0393C2.06954 38.8996 5.61737 42.4629 11.5304 42.4629L7.24345 46.7686C7.09563 46.917 7.09563 47.3625 7.53911 47.3625H23.6522C35.1826 47.3625 42.4261 42.3144 47.0087 35.1878Z" fill="#00985F"/>
<path d="M207.843 67.2576H221V26.4279H207.843V41.4236H195.426V26.4279H182.27V67.2576H195.426V51.8166H207.843V67.2576ZM52.1826 21.9738C51 20.786 51 19.0044 52.1826 17.8166C53.3652 16.6288 55.287 16.6288 56.3217 17.8166C57.3565 19.0044 57.5043 20.786 56.3217 21.9738C55.1391 23.1616 53.2174 23.1616 52.1826 21.9738ZM55.8783 41.2751C60.9043 33.1092 62.6783 20.1921 62.6783 20.1921L60.7565 19.3013C60.4609 19.1528 60.4609 19.0044 60.6087 18.7074L62.087 16.9258C61.2 15.1441 57.9478 12.1747 53.2174 12.1747C50.4087 12.1747 47.8957 12.917 45.6783 14.4017C45.6783 14.4017 42.4261 16.6288 37.8435 20.6376C32.3739 25.3886 25.1304 32.5153 18.4783 41.7205C18.3304 42.0175 18.4783 42.3144 18.7739 42.3144H27.3478C32.9652 42.3144 40.2087 41.2751 47.7478 33.2576C47.8957 33.1092 48.0435 33.1092 48.1913 33.1092C48.3391 33.2576 48.3391 33.4061 48.3391 33.5546C47.1565 36.524 44.2 42.3144 38.7304 45.8777H45.9739C50.8522 45.8777 54.4 43.6507 55.8783 41.2751ZM48.487 51.0742L54.1043 67.1092H70.0696C66.8174 57.1616 63.2696 47.9563 59.8696 39.4935C57.2087 45.2838 54.6957 48.1048 48.487 51.0742ZM0 67.2576H16.113L21.5826 50.1834H5.91304C3.9913 55.2314 2.06957 60.8734 0 67.2576ZM21.7304 30.5852L29.8609 23.9039C31.6348 19.1528 33.4087 14.4017 35.1826 10.393C36.0696 12.4716 36.9565 14.6987 37.8435 16.9258C42.2783 13.214 45.087 10.9869 48.7826 9.9476C46.5652 5.04803 44.9391 1.48472 44.2 0H26.1652C24.687 3.26638 18.9217 15.2926 12.1217 31.476H18.6261C19.9565 31.476 20.9913 31.3275 21.7304 30.5852ZM121.365 62.655L122.252 67.1092H132.896V26.4279H119.739V54.786C118.557 56.1223 116.339 57.607 114.27 57.607C110.574 57.607 108.652 55.5284 108.652 51.6681V26.4279H95.4957V54.786C94.313 56.1223 91.8 57.607 89.5826 57.607C86.1826 57.607 84.2609 55.5284 84.2609 51.6681V26.4279H71.1043V53.4498C71.1043 63.2489 75.3913 68.1485 84.2609 68.1485C90.6174 68.1485 94.4609 65.7729 97.4174 62.655C99.487 66.3668 103.183 68.1485 108.652 68.1485C115.009 68 118.557 65.7729 121.365 62.655ZM163.2 54.6376C162.017 55.9738 160.096 57.4585 156.843 57.4585C153.296 57.4585 151.374 54.1921 151.374 47.8079C151.374 39.9389 153.443 36.0786 157.73 36.0786C160.243 36.0786 161.426 36.2271 163.2 36.6725V54.6376ZM152.261 68H152.704C158.617 68 162.609 65.9214 164.826 62.655L165.565 67.1092H176.357V28.0611C172.07 26.7249 167.043 25.5371 157.878 25.5371C144.722 25.5371 137.626 33.5546 137.626 48.4017C137.626 62.0611 142.652 68 152.261 68Z" fill="#DC000F"/>
</g>
<defs>
<clipPath id="clip0_646_8487">
<rect width="221" height="68" fill="white"/>
</clipPath>
</defs>
</svg>
