<svg width="96" height="96" viewBox="0 0 96 96" fill="none" xmlns="http://www.w3.org/2000/svg">
<mask id="mask0_1255_4238" style="mask-type:luminance" maskUnits="userSpaceOnUse" x="0" y="0" width="96" height="96">
<path d="M77.3708 96H18.6292C8.34105 96 0 87.8808 0 77.8663V18.1337C0 8.11924 8.34105 0 18.6292 0H77.3708C87.6589 0 96 8.11924 96 18.1337V77.8663C95.9974 87.8808 87.6589 96 77.3708 96Z" fill="white"/>
</mask>
<g mask="url(#mask0_1255_4238)">
<mask id="mask1_1255_4238" style="mask-type:luminance" maskUnits="userSpaceOnUse" x="-2" y="5" width="104" height="55">
<path d="M74.0094 36.9653C74.0094 38.6057 62.4268 39.9333 48.1416 39.9333C33.8563 39.9333 22.2738 38.6027 22.2738 36.9653L15.9895 59.0451C15.9895 59.0451 -1.19366 58.2417 -1.53071 57.8585C-1.86776 57.4721 8.74456 5 8.74456 5H85.8974L101.732 57.0674L79.8085 57.8799L74.0094 36.9653Z" fill="white"/>
</mask>
<g mask="url(#mask1_1255_4238)">
<path d="M48.2677 20.1595C47.0297 20.1595 45.7886 20.0614 44.5601 19.8682L24.5986 16.7039C24.3718 16.6671 24.2017 16.477 24.2017 16.2501C24.2017 16.0232 24.3686 15.8331 24.5986 15.7963L48.526 11.988C48.7811 11.9451 49.0268 12.1168 49.0678 12.3683C49.1087 12.6197 48.9355 12.8558 48.6772 12.8956L27.61 16.2531L44.7114 18.9637C47.0707 19.3378 49.4647 19.3378 51.824 18.9637L68.9253 16.2531L48.6772 12.8956C48.4189 12.8558 48.2456 12.6197 48.2865 12.3683C48.3275 12.1168 48.5701 11.9451 48.8284 11.9881L71.9368 15.7994C72.1636 15.8362 72.3336 16.0262 72.3336 16.2531C72.3336 16.48 72.1668 16.6701 71.9368 16.7069L51.9752 19.8713C50.7436 20.0614 49.5056 20.1595 48.2677 20.1595Z" fill="#453A33"/>
<path d="M48.6772 12.8956C48.9355 12.8558 49.1087 12.6197 49.0678 12.3683C49.0268 12.1168 48.7811 11.9451 48.526 11.988L24.5986 15.7963C24.3686 15.8331 24.2017 16.0232 24.2017 16.2501C24.2017 16.477 24.3718 16.6671 24.5986 16.7039L44.5601 19.8682C45.7886 20.0614 47.0297 20.1595 48.2677 20.1595C49.5056 20.1595 50.7436 20.0614 51.9752 19.8713L71.9368 16.7069C72.1668 16.6701 72.3336 16.48 72.3336 16.2531C72.3336 16.0262 72.1636 15.8362 71.9368 15.7994L48.8284 11.9881C48.5701 11.9451 48.3275 12.1168 48.2865 12.3683C48.2456 12.6197 48.4189 12.8558 48.6772 12.8956ZM48.6772 12.8956L27.61 16.2531L44.7114 18.9637C47.0707 19.3378 49.4647 19.3378 51.824 18.9637L68.9253 16.2531L48.6772 12.8956Z" stroke="#453A33" stroke-miterlimit="10"/>
<path d="M24.6742 68.173C24.4128 68.173 24.2017 67.9676 24.2017 67.7131V39.3874C24.2017 39.1329 24.4128 38.9275 24.6742 38.9275C24.9357 38.9275 25.1467 39.1329 25.1467 39.3874V67.7131C25.1436 67.9676 24.9325 68.173 24.6742 68.173Z" fill="#453A33"/>
<path d="M24.6742 33.3872C24.4128 33.3872 24.2017 33.1818 24.2017 32.9273V16.2471C24.2017 15.9926 24.4128 15.7871 24.6742 15.7871C24.9357 15.7871 25.1467 15.9926 25.1467 16.2471V32.9273C25.1436 33.1818 24.9325 33.3872 24.6742 33.3872Z" fill="#453A33" stroke="#453A33" stroke-miterlimit="10"/>
<path d="M71.8568 68.1727C71.5953 68.1727 71.3843 67.9673 71.3843 67.7128V39.0652C71.3843 38.8107 71.5953 38.6052 71.8568 38.6052C72.1182 38.6052 72.3293 38.8107 72.3293 39.0652V67.7128C72.3293 67.9673 72.1182 68.1727 71.8568 68.1727Z" fill="#453A33"/>
<path d="M71.8568 32.547C71.5953 32.547 71.3843 32.3416 71.3843 32.0871V16.2471C71.3843 15.9926 71.5953 15.7871 71.8568 15.7871C72.1182 15.7871 72.3293 15.9926 72.3293 16.2471V32.0871C72.3293 32.3416 72.1182 32.547 71.8568 32.547Z" fill="#453A33" stroke="#453A33" stroke-miterlimit="10"/>
<path d="M48.2679 71.8002C48.0064 71.8002 47.7954 71.5948 47.7954 71.3403V19.877C47.7954 19.6225 48.0064 19.417 48.2679 19.417C48.5293 19.417 48.7404 19.6225 48.7404 19.877V71.3403C48.7372 71.5948 48.5262 71.8002 48.2679 71.8002Z" fill="#453A33" stroke="#453A33" stroke-miterlimit="10"/>
<path d="M45.8483 24.8051C45.4797 24.7499 45.1805 24.3543 45.1836 23.9251C45.1868 23.4958 45.4891 23.1923 45.8577 23.2474C46.2262 23.3026 46.5255 23.6981 46.5223 24.1274C46.5192 24.5597 46.2168 24.8633 45.8483 24.8051Z" fill="#453A33"/>
<path d="M43.5073 21.7081C43.5105 21.2788 43.8129 20.9752 44.1815 21.0304C44.55 21.0856 44.8493 21.4811 44.8461 21.9104C44.843 22.3397 44.5405 22.6432 44.172 22.588C43.8034 22.5328 43.5073 22.1404 43.5073 21.7081Z" fill="#453A33"/>
<path d="M42.4777 24.2931C42.1091 24.2379 41.8099 23.8424 41.813 23.4131C41.8162 22.9839 42.1186 22.6803 42.4872 22.7355C42.8557 22.7907 43.155 23.1862 43.1518 23.6155C43.1518 24.0448 42.8494 24.3483 42.4777 24.2931Z" fill="#453A33"/>
<path d="M40.1406 21.1924C40.1438 20.7631 40.4463 20.4596 40.8148 20.5148C41.1834 20.57 41.4826 20.9655 41.4795 21.3948C41.4763 21.8241 41.1738 22.1276 40.8053 22.0724C40.4367 22.0172 40.1375 21.6247 40.1406 21.1924Z" fill="#453A33"/>
<path d="M39.11 23.778C38.7414 23.7228 38.4422 23.3272 38.4453 22.898C38.4485 22.4687 38.7509 22.1652 39.1195 22.2203C39.488 22.2755 39.7873 22.6711 39.7841 23.1004C39.781 23.5296 39.4817 23.8332 39.11 23.778Z" fill="#453A33"/>
<path d="M36.774 20.6807C36.7771 20.2514 37.0796 19.9479 37.4481 20.0031C37.8167 20.0583 38.1159 20.4538 38.1128 20.8831C38.1096 21.3123 37.8071 21.6159 37.4386 21.5607C37.07 21.5055 36.7708 21.11 36.774 20.6807Z" fill="#453A33"/>
<path d="M35.7433 23.2628C35.3747 23.2076 35.0755 22.8121 35.0786 22.3828C35.0818 21.9536 35.3843 21.65 35.7528 21.7052C36.1213 21.7604 36.4206 22.156 36.4174 22.5852C36.4143 23.0176 36.1118 23.318 35.7433 23.2628Z" fill="#453A33"/>
<path d="M33.4048 20.1656C33.408 19.7363 33.7104 19.4327 34.079 19.4879C34.4475 19.5431 34.7468 19.9387 34.7436 20.3679C34.7405 20.7972 34.438 21.1008 34.0695 21.0456C33.7009 20.9904 33.4017 20.5949 33.4048 20.1656Z" fill="#453A33"/>
<path d="M32.3756 22.7477C32.0071 22.6925 31.7078 22.297 31.711 21.8677C31.7141 21.4384 32.0166 21.1349 32.3851 21.1901C32.7537 21.2453 33.0529 21.6408 33.0498 22.0701C33.0466 22.5024 32.7442 22.806 32.3756 22.7477Z" fill="#453A33"/>
<path d="M30.0386 19.6504C30.0417 19.2212 30.3442 18.9176 30.7128 18.9728C31.0813 19.028 31.3806 19.4235 31.3774 19.8528C31.3743 20.2821 31.0718 20.5856 30.7032 20.5305C30.3347 20.4753 30.0354 20.0797 30.0386 19.6504Z" fill="#453A33"/>
<path d="M29.0084 22.2321C28.6399 22.1769 28.3406 21.7813 28.3438 21.3521C28.3469 20.9228 28.6494 20.6193 29.0179 20.6744C29.3865 20.7296 29.6857 21.1252 29.6826 21.5545C29.6794 21.9868 29.377 22.2903 29.0084 22.2321Z" fill="#453A33"/>
<path d="M26.6689 19.1356C26.6721 18.7063 26.9745 18.4027 27.343 18.4579C27.7116 18.5131 28.0108 18.9086 28.0077 19.3379C28.0045 19.7672 27.7021 20.0708 27.3336 20.0156C26.965 19.9604 26.6689 19.5648 26.6689 19.1356Z" fill="#453A33"/>
<path d="M45.8224 28.7238C45.4538 28.6686 45.1546 28.273 45.1577 27.8438C45.1609 27.4145 45.4633 27.111 45.8318 27.1661C46.2004 27.2213 46.4996 27.6168 46.4965 28.0461C46.4933 28.4784 46.1941 28.779 45.8224 28.7238Z" fill="#453A33"/>
<path d="M43.4859 25.6265C43.489 25.1972 43.7914 24.8937 44.1599 24.9489C44.5285 25.0041 44.8277 25.3996 44.8246 25.8289C44.8214 26.2581 44.5191 26.5617 44.1505 26.5065C43.782 26.4513 43.4827 26.0558 43.4859 25.6265Z" fill="#453A33"/>
<path d="M42.4557 28.2086C42.0871 28.1534 41.7879 27.7579 41.791 27.3286C41.7942 26.8994 42.0966 26.5958 42.4651 26.651C42.8337 26.7062 43.1329 27.1017 43.1298 27.531C43.1266 27.9633 42.8242 28.2669 42.4557 28.2086Z" fill="#453A33"/>
<path d="M40.333 25.1448C40.3362 24.8536 40.5378 24.6481 40.7898 24.6849C41.0418 24.7217 41.2433 24.9915 41.2402 25.2828C41.237 25.5741 41.0355 25.7796 40.7835 25.7428C40.5346 25.7029 40.333 25.4361 40.333 25.1448Z" fill="#453A33"/>
<path d="M39.089 27.6931C38.7204 27.6379 38.4212 27.2423 38.4243 26.813C38.4275 26.3838 38.7299 26.0802 39.0984 26.1354C39.467 26.1906 39.7662 26.5861 39.7631 27.0154C39.7599 27.4477 39.4575 27.7513 39.089 27.6931Z" fill="#453A33"/>
<path d="M36.7505 24.5964C36.7537 24.1672 37.056 23.8636 37.4246 23.9188C37.7931 23.974 38.0924 24.3696 38.0892 24.7988C38.0861 25.2281 37.7837 25.5316 37.4152 25.4765C37.0435 25.4213 36.7474 25.0288 36.7505 24.5964Z" fill="#453A33"/>
<path d="M35.7223 27.1782C35.3537 27.123 35.0545 26.7274 35.0576 26.2982C35.0608 25.8689 35.3632 25.5653 35.7317 25.6205C36.1003 25.6757 36.3995 26.0712 36.3964 26.5005C36.3932 26.9328 36.0908 27.2364 35.7223 27.1782Z" fill="#453A33"/>
<path d="M33.3838 24.0811C33.387 23.6518 33.6893 23.3483 34.0579 23.4035C34.4264 23.4586 34.7257 23.8542 34.7225 24.2835C34.7194 24.7127 34.417 25.0163 34.0485 24.9611C33.6799 24.9059 33.3807 24.5134 33.3838 24.0811Z" fill="#453A33"/>
<path d="M32.3507 26.6657C31.9822 26.6105 31.6829 26.2149 31.6861 25.7857C31.6892 25.3564 31.9916 25.0528 32.3601 25.108C32.7287 25.1632 33.028 25.5588 33.0249 25.9881C33.0249 26.4173 32.7224 26.7209 32.3507 26.6657Z" fill="#453A33"/>
<path d="M30.0132 23.5694C30.0163 23.1401 30.3188 22.8365 30.6873 22.8917C31.0559 22.9469 31.3551 23.3425 31.352 23.7717C31.3488 24.201 31.0464 24.5046 30.6778 24.4494C30.3093 24.3942 30.0132 23.9987 30.0132 23.5694Z" fill="#453A33"/>
<path d="M28.983 26.1508C28.6145 26.0956 28.3152 25.7 28.3184 25.2708C28.3215 24.8415 28.6239 24.538 28.9924 24.5931C29.361 24.6483 29.6603 25.0439 29.6572 25.4732C29.654 25.9024 29.3547 26.206 28.983 26.1508Z" fill="#453A33"/>
<path d="M26.6455 23.0543C26.6487 22.625 26.9511 22.3214 27.3197 22.3766C27.6882 22.4318 27.9875 22.8273 27.9843 23.2566C27.9812 23.6859 27.6787 23.9895 27.3102 23.9343C26.9416 23.8791 26.6424 23.4835 26.6455 23.0543Z" fill="#453A33"/>
<path d="M45.801 32.6417C45.4324 32.5865 45.1331 32.191 45.1363 31.7617C45.1394 31.3325 45.4419 31.0289 45.8104 31.0841C46.179 31.1393 46.4782 31.5348 46.4751 31.9641C46.4719 32.3934 46.1695 32.6969 45.801 32.6417Z" fill="#453A33"/>
<path d="M43.4639 29.542C43.467 29.1127 43.7694 28.8092 44.138 28.8644C44.5065 28.9196 44.8058 29.3151 44.8026 29.7444C44.7995 30.1736 44.4971 30.4772 44.1285 30.422C43.7568 30.3668 43.4607 29.9743 43.4639 29.542Z" fill="#453A33"/>
<path d="M42.4333 32.1271C42.0648 32.0719 41.7654 31.6763 41.7686 31.2471C41.7717 30.8178 42.0742 30.5143 42.4427 30.5695C42.8113 30.6247 43.1105 31.0202 43.1074 31.4494C43.1042 31.8787 42.8019 32.1823 42.4333 32.1271Z" fill="#453A33"/>
<path d="M40.0957 29.0303C40.0989 28.601 40.4012 28.2975 40.7698 28.3527C41.1383 28.4079 41.4376 28.8034 41.4344 29.2327C41.4313 29.662 41.1289 29.9655 40.7604 29.9103C40.3887 29.8551 40.0926 29.4596 40.0957 29.0303Z" fill="#453A33"/>
<path d="M39.0616 31.6118C38.6931 31.5566 38.3938 31.161 38.397 30.7317C38.4001 30.3025 38.7025 29.9989 39.0711 30.0541C39.4396 30.1093 39.7389 30.5048 39.7357 30.9341C39.7357 31.3664 39.4333 31.6669 39.0616 31.6118Z" fill="#453A33"/>
<path d="M36.7256 28.5151C36.7287 28.0859 37.0311 27.7823 37.3997 27.8375C37.7682 27.8927 38.0674 28.2883 38.0643 28.7175C38.0611 29.1468 37.7588 29.4503 37.3902 29.3952C37.0217 29.34 36.7256 28.9444 36.7256 28.5151Z" fill="#453A33"/>
<path d="M35.6964 31.0971C35.3279 31.0419 35.0286 30.6464 35.0318 30.2171C35.0349 29.7878 35.3373 29.4842 35.7058 29.5394C36.0744 29.5946 36.3736 29.9902 36.3705 30.4194C36.3673 30.8518 36.0681 31.1523 35.6964 31.0971Z" fill="#453A33"/>
<path d="M33.3589 28C33.3621 27.5707 33.6644 27.2672 34.033 27.3224C34.4015 27.3776 34.7008 27.7731 34.6976 28.2024C34.6945 28.6317 34.3921 28.9352 34.0236 28.88C33.655 28.8248 33.3558 28.4293 33.3589 28Z" fill="#453A33"/>
<path d="M32.3287 30.5817C31.9602 30.5265 31.6609 30.131 31.6641 29.7017C31.6672 29.2724 31.9696 28.9689 32.3382 29.0241C32.7067 29.0792 33.0059 29.4748 33.0028 29.9041C32.9996 30.3364 32.6973 30.64 32.3287 30.5817Z" fill="#453A33"/>
<path d="M29.9912 27.4844C29.9944 27.0551 30.2968 26.7516 30.6653 26.8068C31.0339 26.862 31.3331 27.2575 31.3299 27.6868C31.3268 28.1161 31.0244 28.4196 30.6559 28.3644C30.2873 28.3092 29.9881 27.9137 29.9912 27.4844Z" fill="#453A33"/>
<path d="M28.9606 30.0666C28.592 30.0114 28.2928 29.6158 28.2959 29.1866C28.2991 28.7573 28.6014 28.4537 28.97 28.5089C29.3385 28.5641 29.6378 28.9597 29.6346 29.3889C29.6315 29.8213 29.3291 30.1248 28.9606 30.0666Z" fill="#453A33"/>
<path d="M26.6231 26.9695C26.6262 26.5402 26.9286 26.2367 27.2971 26.2919C27.6657 26.3471 27.9649 26.7426 27.9618 27.1719C27.9586 27.6012 27.6563 27.9047 27.2877 27.8495C26.916 27.7943 26.6199 27.4018 26.6231 26.9695Z" fill="#453A33"/>
<path d="M45.776 36.5578C45.4074 36.5026 45.1082 36.1071 45.1114 35.6778C45.1145 35.2485 45.417 34.9449 45.7855 35.0001C46.1541 35.0553 46.4533 35.4509 46.4502 35.8801C46.4502 36.3125 46.1477 36.616 45.776 36.5578Z" fill="#453A33"/>
<path d="M43.439 33.4609C43.4421 33.0317 43.7445 32.7281 44.113 32.7833C44.4816 32.8385 44.7808 33.234 44.7777 33.6633C44.7745 34.0926 44.4722 34.3961 44.1036 34.341C43.7351 34.2858 43.439 33.8902 43.439 33.4609Z" fill="#453A33"/>
<path d="M42.4088 36.0426C42.0403 35.9874 41.741 35.5919 41.7442 35.1626C41.7473 34.7333 42.0498 34.4298 42.4183 34.485C42.7869 34.5402 43.0861 34.9357 43.083 35.365C43.0798 35.7973 42.7805 36.1009 42.4088 36.0426Z" fill="#453A33"/>
<path d="M40.0713 32.9454C40.0745 32.5161 40.3768 32.2125 40.7454 32.2677C41.1139 32.3229 41.4132 32.7184 41.41 33.1477C41.4069 33.577 41.1045 33.8806 40.736 33.8254C40.3674 33.7702 40.0682 33.3777 40.0713 32.9454Z" fill="#453A33"/>
<path d="M39.0406 35.5275C38.6721 35.4723 38.3729 35.0767 38.376 34.6475C38.3792 34.2182 38.6816 33.9147 39.0502 33.9699C39.4187 34.025 39.718 34.4206 39.7148 34.8499C39.7117 35.2822 39.4092 35.5857 39.0406 35.5275Z" fill="#453A33"/>
<path d="M36.7046 32.4305C36.7078 32.0012 37.0101 31.6976 37.3787 31.7528C37.7472 31.808 38.0465 32.2036 38.0433 32.6328C38.0402 33.0621 37.7378 33.3657 37.3693 33.3105C37.0007 33.2553 36.7015 32.8628 36.7046 32.4305Z" fill="#453A33"/>
<path d="M45.7526 40.4765C45.384 40.4213 45.0848 40.0258 45.0879 39.5965C45.0911 39.1672 45.3934 38.8636 45.762 38.9188C46.1305 38.974 46.4298 39.3696 46.4266 39.7988C46.4235 40.2281 46.1211 40.5316 45.7526 40.4765Z" fill="#453A33"/>
<path d="M43.416 37.3794C43.4192 36.9501 43.7216 36.6466 44.0901 36.7018C44.4587 36.757 44.758 37.1525 44.7548 37.5818C44.7517 38.011 44.4492 38.3146 44.0807 38.2594C43.7121 38.2042 43.4129 37.8087 43.416 37.3794Z" fill="#453A33"/>
<path d="M42.3863 39.9603C42.0178 39.9052 41.7186 39.5096 41.7217 39.0803C41.7249 38.6511 42.0272 38.3475 42.3958 38.4027C42.7643 38.4579 43.0636 38.8535 43.0604 39.2827C43.0573 39.7151 42.7549 40.0155 42.3863 39.9603Z" fill="#453A33"/>
<path d="M40.0498 36.8641C40.053 36.4348 40.3553 36.1312 40.7239 36.1864C41.0924 36.2416 41.3918 36.6372 41.3886 37.0664C41.3855 37.4957 41.083 37.7993 40.7145 37.7441C40.3459 37.6889 40.0467 37.2933 40.0498 36.8641Z" fill="#453A33"/>
<path d="M39.0197 39.4459C38.6511 39.3907 38.3519 38.9952 38.355 38.5659C38.3582 38.1367 38.6605 37.8331 39.0291 37.8883C39.3976 37.9435 39.6969 38.3391 39.6937 38.7683C39.6906 39.2007 39.3882 39.5011 39.0197 39.4459Z" fill="#453A33"/>
<path d="M36.6812 36.3494C36.6843 35.9202 36.9868 35.6166 37.3553 35.6718C37.7239 35.727 38.0231 36.1225 38.02 36.5518C38.0168 36.981 37.7144 37.2846 37.3458 37.2294C36.9741 37.1742 36.678 36.7787 36.6812 36.3494Z" fill="#453A33"/>
<path d="M41.4579 25.3164C41.4547 25.7456 41.1524 26.0492 40.7838 25.994C40.4153 25.9388 40.116 25.5433 40.1192 25.114C40.1223 24.6848 40.4247 24.3812 40.7932 24.4364C41.1618 24.4916 41.461 24.8871 41.4579 25.3164Z" fill="#453A33"/>
<path d="M50.7279 24.8051C51.0964 24.7499 51.3957 24.3543 51.3925 23.9251C51.3894 23.4958 51.0869 23.1923 50.7184 23.2474C50.3498 23.3026 50.0506 23.6981 50.0537 24.1274C50.0569 24.5597 50.3562 24.8633 50.7279 24.8051Z" fill="#453A33"/>
<path d="M53.0654 21.7081C53.0622 21.2788 52.7598 20.9752 52.3912 21.0304C52.0227 21.0856 51.7234 21.4811 51.7266 21.9104C51.7297 22.3397 52.0321 22.6432 52.4007 22.588C52.7692 22.5328 53.0685 22.1404 53.0654 21.7081Z" fill="#453A33"/>
<path d="M54.0936 24.2931C54.4622 24.2379 54.7614 23.8424 54.7583 23.4131C54.7551 22.9839 54.4527 22.6803 54.0841 22.7355C53.7156 22.7907 53.4163 23.1862 53.4195 23.6155C53.4226 24.0448 53.7251 24.3483 54.0936 24.2931Z" fill="#453A33"/>
<path d="M56.4326 21.1924C56.4294 20.7631 56.127 20.4596 55.7584 20.5148C55.3899 20.57 55.0906 20.9655 55.0938 21.3948C55.0969 21.8241 55.3993 22.1276 55.7678 22.0724C56.1364 22.0172 56.4357 21.6247 56.4326 21.1924Z" fill="#453A33"/>
<path d="M57.4632 23.778C57.8318 23.7228 58.131 23.3272 58.1279 22.898C58.1247 22.4687 57.8223 22.1652 57.4537 22.2203C57.0852 22.2755 56.7859 22.6711 56.7891 23.1004C56.7922 23.5296 57.0947 23.8332 57.4632 23.778Z" fill="#453A33"/>
<path d="M59.7993 20.6807C59.7961 20.2514 59.4937 19.9479 59.1251 20.0031C58.7566 20.0583 58.4573 20.4538 58.4605 20.8831C58.4636 21.3123 58.766 21.6159 59.1345 21.5607C59.5031 21.5055 59.8024 21.11 59.7993 20.6807Z" fill="#453A33"/>
<path d="M60.8299 23.2628C61.1985 23.2076 61.4977 22.8121 61.4946 22.3828C61.4914 21.9536 61.189 21.65 60.8204 21.7052C60.4519 21.7604 60.1526 22.156 60.1558 22.5852C60.1589 23.0145 60.4614 23.318 60.8299 23.2628Z" fill="#453A33"/>
<path d="M63.1664 20.1656C63.1632 19.7363 62.8609 19.4327 62.4923 19.4879C62.1238 19.5431 61.8245 19.9387 61.8277 20.3679C61.8308 20.7972 62.1332 21.1008 62.5017 21.0456C62.8734 20.9904 63.1695 20.5949 63.1664 20.1656Z" fill="#453A33"/>
<path d="M64.2005 22.7477C64.569 22.6925 64.8683 22.297 64.8651 21.8677C64.862 21.4384 64.5596 21.1349 64.191 21.1901C63.8225 21.2453 63.5232 21.6408 63.5264 22.0701C63.5264 22.5024 63.8288 22.806 64.2005 22.7477Z" fill="#453A33"/>
<path d="M66.5375 19.6504C66.5343 19.2212 66.232 18.9176 65.8634 18.9728C65.4949 19.028 65.1956 19.4235 65.1988 19.8528C65.2019 20.2821 65.5043 20.5856 65.8728 20.5305C66.2414 20.4753 66.5375 20.0797 66.5375 19.6504Z" fill="#453A33"/>
<path d="M67.5676 22.2321C67.9362 22.1769 68.2354 21.7813 68.2323 21.3521C68.2291 20.9228 67.9268 20.6193 67.5582 20.6744C67.1897 20.7296 66.8904 21.1252 66.8936 21.5545C66.8967 21.9868 67.1959 22.2903 67.5676 22.2321Z" fill="#453A33"/>
<path d="M69.9042 19.1356C69.901 18.7063 69.5986 18.4027 69.2301 18.4579C68.8615 18.5131 68.5623 18.9086 68.5655 19.3379C68.5686 19.7672 68.871 20.0708 69.2395 20.0156C69.6081 19.9604 69.9073 19.5648 69.9042 19.1356Z" fill="#453A33"/>
<path d="M50.7488 28.7238C51.1173 28.6686 51.4166 28.273 51.4134 27.8438C51.4103 27.4145 51.1079 27.111 50.7394 27.1661C50.3708 27.2213 50.0716 27.6168 50.0747 28.0461C50.0779 28.4784 50.3802 28.779 50.7488 28.7238Z" fill="#453A33"/>
<path d="M53.0879 25.6265C53.0847 25.1972 52.7823 24.8937 52.4138 24.9489C52.0452 25.0041 51.7459 25.3996 51.749 25.8289C51.7522 26.2581 52.0547 26.5617 52.4232 26.5065C52.7949 26.4513 53.091 26.0558 53.0879 25.6265Z" fill="#453A33"/>
<path d="M54.117 28.2086C54.4855 28.1534 54.7848 27.7579 54.7816 27.3286C54.7785 26.8994 54.4761 26.5958 54.1075 26.651C53.739 26.7062 53.4397 27.1017 53.4429 27.531C53.446 27.9633 53.7484 28.2669 54.117 28.2086Z" fill="#453A33"/>
<path d="M56.2398 25.1448C56.2367 24.8536 56.035 24.6481 55.783 24.6849C55.531 24.7217 55.3294 24.9915 55.3326 25.2828C55.3357 25.5741 55.5374 25.7796 55.7894 25.7428C56.0382 25.7029 56.2398 25.4361 56.2398 25.1448Z" fill="#453A33"/>
<path d="M57.4867 27.6931C57.8552 27.6379 58.1545 27.2423 58.1513 26.813C58.1482 26.3838 57.8457 26.0802 57.4772 26.1354C57.1086 26.1906 56.8094 26.5861 56.8125 27.0154C56.8157 27.4447 57.115 27.7513 57.4867 27.6931Z" fill="#453A33"/>
<path d="M59.8232 24.5964C59.8201 24.1672 59.5176 23.8636 59.149 23.9188C58.7805 23.974 58.4812 24.3696 58.4844 24.7988C58.4875 25.2281 58.79 25.5316 59.1586 25.4765C59.5271 25.4213 59.8232 25.0288 59.8232 24.5964Z" fill="#453A33"/>
<path d="M60.8539 27.1782C61.2224 27.123 61.5217 26.7274 61.5185 26.2982C61.5154 25.8689 61.2129 25.5653 60.8444 25.6205C60.4758 25.6757 60.1766 26.0712 60.1797 26.5005C60.1829 26.9328 60.4822 27.2364 60.8539 27.1782Z" fill="#453A33"/>
<path d="M63.1923 24.0811C63.1892 23.6518 62.8867 23.3483 62.5182 23.4035C62.1496 23.4586 61.8504 23.8542 61.8535 24.2835C61.8567 24.7127 62.1592 25.0163 62.5277 24.9611C62.8963 24.9059 63.1955 24.5134 63.1923 24.0811Z" fill="#453A33"/>
<path d="M64.223 26.6657C64.5916 26.6105 64.8908 26.2149 64.8877 25.7857C64.8845 25.3564 64.582 25.0528 64.2135 25.108C63.8449 25.1632 63.5457 25.5588 63.5489 25.9881C63.552 26.4173 63.8545 26.7209 64.223 26.6657Z" fill="#453A33"/>
<path d="M66.5605 23.5694C66.5574 23.1401 66.2549 22.8365 65.8863 22.8917C65.5178 22.9469 65.2186 23.3425 65.2217 23.7717C65.2249 24.201 65.5273 24.5046 65.8959 24.4494C66.2644 24.3942 66.5637 23.9987 66.5605 23.5694Z" fill="#453A33"/>
<path d="M67.5907 26.1508C67.9592 26.0956 68.2585 25.7 68.2553 25.2708C68.2522 24.8415 67.9497 24.538 67.5812 24.5931C67.2126 24.6483 66.9134 25.0439 66.9165 25.4732C66.9197 25.9024 67.2221 26.206 67.5907 26.1508Z" fill="#453A33"/>
<path d="M69.9272 23.0543C69.9241 22.625 69.6216 22.3214 69.253 22.3766C68.8845 22.4318 68.5853 22.8273 68.5884 23.2566C68.5916 23.6859 68.894 23.9895 69.2626 23.9343C69.6343 23.8791 69.9304 23.4835 69.9272 23.0543Z" fill="#453A33"/>
<path d="M50.7747 32.6417C51.1432 32.5865 51.4425 32.191 51.4393 31.7617C51.4362 31.3325 51.1338 31.0289 50.7653 31.0841C50.3967 31.1393 50.0975 31.5348 50.1006 31.9641C50.1006 32.3934 50.403 32.6969 50.7747 32.6417Z" fill="#453A33"/>
<path d="M53.1122 29.542C53.109 29.1127 52.8067 28.8092 52.4381 28.8644C52.0696 28.9196 51.7703 29.3151 51.7735 29.7444C51.7766 30.1736 52.079 30.4772 52.4475 30.422C52.8161 30.3668 53.1122 29.9743 53.1122 29.542Z" fill="#453A33"/>
<path d="M54.1428 32.1271C54.5114 32.0719 54.8106 31.6763 54.8075 31.2471C54.8043 30.8178 54.502 30.5143 54.1334 30.5695C53.7649 30.6247 53.4656 31.0202 53.4688 31.4494C53.4688 31.8787 53.7711 32.1823 54.1428 32.1271Z" fill="#453A33"/>
<path d="M56.4794 29.0303C56.4762 28.601 56.1738 28.2975 55.8053 28.3527C55.4367 28.4079 55.1375 28.8034 55.1406 29.2327C55.1438 29.662 55.4462 29.9655 55.8147 29.9103C56.1833 29.8551 56.4825 29.4596 56.4794 29.0303Z" fill="#453A33"/>
<path d="M57.5095 31.6118C57.8781 31.5566 58.1773 31.161 58.1742 30.7317C58.171 30.3025 57.8687 29.9989 57.5001 30.0541C57.1316 30.1093 56.8323 30.5048 56.8355 30.9341C56.8386 31.3664 57.141 31.6669 57.5095 31.6118Z" fill="#453A33"/>
<path d="M59.8461 28.5151C59.8429 28.0859 59.5405 27.7823 59.172 27.8375C58.8034 27.8927 58.5042 28.2883 58.5073 28.7175C58.5105 29.1468 58.8129 29.4503 59.1814 29.3952C59.55 29.34 59.8492 28.9444 59.8461 28.5151Z" fill="#453A33"/>
<path d="M60.8767 31.0971C61.2453 31.0419 61.5445 30.6464 61.5414 30.2171C61.5382 29.7878 61.2359 29.4842 60.8673 29.5394C60.4988 29.5946 60.1995 29.9902 60.2027 30.4194C60.2058 30.8518 60.5082 31.1523 60.8767 31.0971Z" fill="#453A33"/>
<path d="M63.2137 28C63.2106 27.5707 62.9082 27.2672 62.5397 27.3224C62.1711 27.3776 61.8719 27.7731 61.875 28.2024C61.8782 28.6317 62.1805 28.9352 62.5491 28.88C62.9176 28.8248 63.2169 28.4293 63.2137 28Z" fill="#453A33"/>
<path d="M64.2439 30.5817C64.6125 30.5265 64.9117 30.131 64.9086 29.7017C64.9054 29.2724 64.603 28.9689 64.2345 29.0241C63.8659 29.0792 63.5667 29.4748 63.5698 29.9041C63.573 30.3364 63.8754 30.64 64.2439 30.5817Z" fill="#453A33"/>
<path d="M66.5824 27.4844C66.5792 27.0551 66.2769 26.7516 65.9083 26.8068C65.5398 26.862 65.2405 27.2575 65.2437 27.6868C65.2468 28.1161 65.5492 28.4196 65.9177 28.3644C66.2894 28.3092 66.5855 27.9137 66.5824 27.4844Z" fill="#453A33"/>
<path d="M67.614 30.0666C67.9826 30.0114 68.2818 29.6158 68.2787 29.1866C68.2755 28.7573 67.9732 28.4537 67.6046 28.5089C67.2361 28.5641 66.9368 28.9597 66.94 29.3889C66.94 29.8213 67.2423 30.1248 67.614 30.0666Z" fill="#453A33"/>
<path d="M69.9526 26.9695C69.9495 26.5402 69.647 26.2367 69.2784 26.2919C68.9099 26.3471 68.6106 26.7426 68.6138 27.1719C68.6169 27.6012 68.9194 27.9047 69.288 27.8495C69.6565 27.7943 69.9526 27.4018 69.9526 26.9695Z" fill="#453A33"/>
<path d="M50.7963 36.5578C51.1648 36.5026 51.4641 36.1071 51.4609 35.6778C51.4578 35.2485 51.1553 34.9449 50.7867 35.0001C50.4182 35.0553 50.1189 35.4509 50.1221 35.8801C50.1252 36.3125 50.4246 36.616 50.7963 36.5578Z" fill="#453A33"/>
<path d="M53.1346 33.4609C53.1315 33.0317 52.8291 32.7281 52.4606 32.7833C52.092 32.8385 51.7928 33.234 51.7959 33.6633C51.7991 34.0926 52.1014 34.3961 52.47 34.341C52.8385 34.2858 53.1378 33.8902 53.1346 33.4609Z" fill="#453A33"/>
<path d="M54.163 36.0426C54.5315 35.9874 54.8308 35.5919 54.8276 35.1626C54.8245 34.7333 54.522 34.4298 54.1534 34.485C53.7849 34.5402 53.4856 34.9357 53.4888 35.365C53.4919 35.7973 53.7944 36.1009 54.163 36.0426Z" fill="#453A33"/>
<path d="M56.5023 32.9454C56.4992 32.5161 56.1968 32.2125 55.8282 32.2677C55.4597 32.3229 55.1604 32.7184 55.1636 33.1477C55.1667 33.577 55.4691 33.8806 55.8377 33.8254C56.2062 33.7702 56.5055 33.3777 56.5023 32.9454Z" fill="#453A33"/>
<path d="M57.5331 35.5275C57.9016 35.4723 58.2009 35.0767 58.1977 34.6475C58.1946 34.2182 57.8921 33.9147 57.5236 33.9699C57.155 34.025 56.8558 34.4206 56.8589 34.8499C56.8621 35.2822 57.1645 35.5857 57.5331 35.5275Z" fill="#453A33"/>
<path d="M59.869 32.4305C59.8659 32.0012 59.5635 31.6976 59.1949 31.7528C58.8264 31.808 58.5271 32.2036 58.5303 32.6328C58.5334 33.0621 58.8358 33.3657 59.2044 33.3105C59.5761 33.2553 59.8722 32.8628 59.869 32.4305Z" fill="#453A33"/>
<path d="M50.8191 40.4765C51.1877 40.4213 51.4869 40.0258 51.4838 39.5965C51.4806 39.1672 51.1782 38.8636 50.8097 38.9188C50.4411 38.974 50.1419 39.3696 50.145 39.7988C50.1482 40.2281 50.4506 40.5316 50.8191 40.4765Z" fill="#453A33"/>
<path d="M53.1557 37.3794C53.1526 36.9501 52.8501 36.6466 52.4816 36.7018C52.113 36.757 51.8138 37.1525 51.8169 37.5818C51.8201 38.011 52.1225 38.3146 52.4911 38.2594C52.8596 38.2042 53.1589 37.8087 53.1557 37.3794Z" fill="#453A33"/>
<path d="M54.1863 39.9603C54.5548 39.9052 54.8541 39.5096 54.8509 39.0803C54.8478 38.6511 54.5454 38.3475 54.1769 38.4027C53.8083 38.4579 53.5091 38.8535 53.5122 39.2827C53.5154 39.7151 53.8177 40.0155 54.1863 39.9603Z" fill="#453A33"/>
<path d="M56.5258 36.8641C56.5227 36.4348 56.2202 36.1312 55.8517 36.1864C55.4831 36.2416 55.1839 36.6372 55.187 37.0664C55.1902 37.4957 55.4926 37.7993 55.8612 37.7441C56.2297 37.6889 56.5258 37.2933 56.5258 36.8641Z" fill="#453A33"/>
<path d="M57.5565 39.4459C57.9251 39.3907 58.2243 38.9952 58.2212 38.5659C58.218 38.1367 57.9155 37.8331 57.547 37.8883C57.1784 37.9435 56.8792 38.3391 56.8823 38.7683C56.8823 39.2007 57.1848 39.5011 57.5565 39.4459Z" fill="#453A33"/>
<path d="M59.895 36.3494C59.8918 35.9202 59.5894 35.6166 59.2208 35.6718C58.8523 35.727 58.553 36.1225 58.5562 36.5518C58.5593 36.981 58.8617 37.2846 59.2302 37.2294C59.5988 37.1742 59.8981 36.7787 59.895 36.3494Z" fill="#453A33"/>
<path d="M55.1143 25.3164C55.1174 25.7456 55.4199 26.0492 55.7884 25.994C56.157 25.9388 56.4562 25.5433 56.4531 25.114C56.4499 24.6848 56.1476 24.3812 55.779 24.4364C55.4105 24.4916 55.1111 24.8871 55.1143 25.3164Z" fill="#453A33"/>
<path d="M34.292 57.892C34.1943 57.892 34.0935 57.8828 33.9959 57.8674L24.5963 56.3098C24.338 56.2668 24.1679 56.0308 24.212 55.7793C24.2561 55.5279 24.4987 55.3593 24.757 55.4022L34.1565 56.9598C34.3959 56.9997 34.6353 56.9322 34.8338 56.7697C35.0889 56.5612 35.2339 56.2362 35.2339 55.8805V34.138C35.2339 33.5983 34.8842 33.1323 34.4212 33.0556L24.5963 31.4275C24.338 31.3845 24.1679 31.1484 24.212 30.897C24.2561 30.6456 24.4987 30.477 24.757 30.5229L34.5818 32.1511C35.5079 32.3044 36.1788 33.1414 36.1788 34.138V55.8805C36.1788 56.5091 35.9111 57.0886 35.4449 57.4719C35.1047 57.7478 34.7046 57.892 34.292 57.892Z" fill="#453A33" stroke="#453A33" stroke-miterlimit="10"/>
<path d="M62.2433 57.8923C61.8306 57.8923 61.4306 57.7482 61.0967 57.4722C60.6305 57.0889 60.3628 56.5094 60.3628 55.8808V34.1383C60.3628 33.1418 61.0337 32.3047 61.9598 32.1514L71.7847 30.5233C72.043 30.4804 72.2856 30.649 72.3297 30.8973C72.3738 31.1488 72.2005 31.3849 71.9453 31.4278L62.1205 33.0559C61.6575 33.1326 61.3078 33.5986 61.3078 34.1383V55.8808C61.3078 56.2396 61.4527 56.5616 61.7078 56.7701C61.9063 56.9326 62.1457 57 62.3851 56.9602L71.7847 55.4025C72.043 55.3596 72.2856 55.5283 72.3297 55.7797C72.3738 56.0311 72.2005 56.2672 71.9453 56.3101L62.5457 57.8678C62.4418 57.8862 62.3409 57.8923 62.2433 57.8923Z" fill="#453A33" stroke="#453A33" stroke-miterlimit="10"/>
<path d="M29.6311 53.3544C29.6059 53.3544 29.5839 53.3513 29.5587 53.3482L24.5974 52.6062C24.3391 52.5663 24.1627 52.3333 24.2037 52.0819C24.2446 51.8304 24.484 51.6587 24.7423 51.6986L29.1586 52.3609V37.9987C29.1586 37.7442 29.3696 37.5388 29.6311 37.5388C29.8925 37.5388 30.1037 37.7442 30.1037 37.9987V52.8975C30.1037 53.0324 30.0438 53.1581 29.9399 53.247C29.8548 53.3176 29.7445 53.3544 29.6311 53.3544Z" fill="#453A33"/>
<path d="M29.6317 44.9164C29.5025 44.9164 29.3734 44.8643 29.2852 44.7662L12.5619 27.0006C12.4328 26.8626 12.4012 26.6602 12.4831 26.4916C12.565 26.323 12.7478 26.2187 12.9399 26.231L18.9721 26.6112C19.0918 26.6173 19.202 26.6694 19.2839 26.7522L29.9719 37.6771C30.0538 37.763 30.1011 37.8764 30.1011 37.993V44.4535C30.1011 44.6436 29.9814 44.8122 29.7987 44.8828C29.7483 44.9073 29.6915 44.9164 29.6317 44.9164ZM14.0518 27.2244L29.1624 43.2761V38.18L18.7296 27.5188L14.0518 27.2244Z" fill="#453A33" stroke="#453A33" stroke-miterlimit="10"/>
<path d="M11.283 56.0896C11.2074 56.0896 11.1317 56.0865 11.0561 56.0804L2.88819 55.4058C2.09124 55.3414 1.37935 54.9306 0.935204 54.2867C0.491054 53.6428 0.371364 52.8456 0.610764 52.1035L9.52522 24.4739C9.89377 23.3271 11.012 22.5974 12.2437 22.6985L20.4116 23.3731C21.2085 23.4375 21.9205 23.8483 22.3647 24.4923C22.8088 25.1392 22.9285 25.9334 22.6891 26.6754L21.974 28.8954C21.8921 29.1498 21.6149 29.2909 21.3535 29.2112C21.092 29.1314 20.9471 28.8616 21.029 28.6071L21.7441 26.3872C21.8921 25.9242 21.8197 25.4305 21.5425 25.0258C21.2653 24.6241 20.8212 24.3696 20.3266 24.3298L12.1586 23.6552C11.3932 23.5908 10.697 24.0476 10.4639 24.7621L1.54948 52.3917C1.40143 52.8547 1.47386 53.3484 1.75106 53.7531C2.02826 54.1548 2.47237 54.4093 2.96692 54.4492L11.1349 55.1237C11.9004 55.1881 12.5965 54.7313 12.8296 54.0168L19.2997 33.9914C19.3816 33.7369 19.6588 33.5959 19.9203 33.6756C20.1817 33.7553 20.3266 34.0251 20.2447 34.2796L13.7746 54.3051C13.4281 55.3783 12.4233 56.0896 11.283 56.0896Z" fill="#453A33" stroke="#453A33" stroke-miterlimit="10"/>
<path d="M10.426 50.1412C10.3756 50.1412 10.3284 50.1381 10.278 50.132L6.57042 49.7089C6.19557 49.6659 5.86164 49.4636 5.65689 49.1539C5.45214 48.8442 5.39862 48.4671 5.51202 48.1145L12.42 26.7061C12.4924 26.4823 12.7381 26.3566 12.9681 26.4271C13.198 26.4976 13.3272 26.7368 13.2547 26.9606L6.34672 48.3689C6.29947 48.5161 6.35305 48.6326 6.39085 48.6878C6.42865 48.743 6.51369 48.8411 6.67434 48.8595L10.3819 49.2827C10.5677 49.3011 10.7441 49.1938 10.8008 49.019L16.5906 31.0755C16.663 30.8517 16.9087 30.7259 17.1386 30.7965C17.3686 30.867 17.4977 31.1061 17.4253 31.33L11.6356 49.2735C11.4687 49.7947 10.9741 50.1412 10.426 50.1412Z" fill="#453A33" stroke="#453A33" stroke-miterlimit="10"/>
<path d="M66.1003 44.8852C65.9176 44.8177 65.7979 44.646 65.7979 44.4559V37.9954C65.7979 37.8789 65.8451 37.7654 65.927 37.6796L76.6149 26.7546C76.6968 26.6719 76.8071 26.6197 76.9268 26.6136L82.959 26.2334C83.1512 26.2211 83.3307 26.3254 83.4158 26.494C83.4977 26.6626 83.4693 26.865 83.337 27.003L66.6137 44.7687C66.5224 44.8668 66.3963 44.9189 66.2672 44.9189C66.2136 44.9158 66.1538 44.9066 66.1003 44.8852ZM77.1725 27.5181L66.7396 38.1794V43.2754L81.8503 27.2238L77.1725 27.5181Z" fill="#453A33" stroke="#453A33" stroke-miterlimit="10"/>
<path d="M84.619 56.0896C84.6946 56.0896 84.7701 56.0865 84.8457 56.0804L93.0136 55.4058C93.8106 55.3414 94.5225 54.9306 94.9666 54.2867C95.4108 53.6397 95.5306 52.8456 95.2912 52.1035L86.3766 24.4739C86.0081 23.3271 84.8898 22.5974 83.6581 22.6985L75.4902 23.3731C74.6933 23.4375 73.9814 23.8483 73.5373 24.4923C73.0931 25.1392 72.9734 25.9334 73.2128 26.6754L73.9278 28.8954C74.0097 29.1498 74.2869 29.2909 74.5484 29.2112C74.8098 29.1314 74.9547 28.8616 74.8728 28.6071L74.1578 26.3872C74.0097 25.9242 74.0822 25.4305 74.3594 25.0258C74.6366 24.6241 75.0808 24.3696 75.5753 24.3298L83.7432 23.6552C84.5087 23.5908 85.2048 24.0476 85.4379 24.7621L94.3524 52.3917C94.5005 52.8547 94.4281 53.3484 94.1509 53.7531C93.8737 54.1548 93.4295 54.4093 92.9349 54.4492L84.767 55.1237C84.0016 55.1881 83.3053 54.7313 83.0722 54.0168L76.6022 33.9914C76.5203 33.7369 76.2431 33.5959 75.9817 33.6756C75.7202 33.7553 75.5753 34.0251 75.6572 34.2796L82.1273 54.3051C82.4738 55.3783 83.4818 56.0896 84.619 56.0896Z" fill="#453A33" stroke="#453A33" stroke-miterlimit="10"/>
<path d="M85.474 50.1412C85.5244 50.1412 85.5717 50.1381 85.6221 50.132L89.3297 49.7089C89.7045 49.6659 90.0384 49.4636 90.2431 49.1539C90.4479 48.8442 90.5015 48.4671 90.3881 48.1145L83.4801 26.7061C83.4076 26.4823 83.162 26.3566 82.932 26.4271C82.7021 26.4976 82.5729 26.7368 82.6454 26.9606L89.5533 48.3689C89.6005 48.5161 89.547 48.6326 89.5092 48.6878C89.4714 48.743 89.3863 48.8411 89.2257 48.8595L85.5181 49.2827C85.3323 49.3011 85.1559 49.1938 85.0992 49.019L79.3094 31.0755C79.237 30.8517 78.9914 30.7259 78.7614 30.7965C78.5315 30.867 78.4023 31.1061 78.4747 31.33L84.2645 49.2735C84.4346 49.7947 84.9259 50.1412 85.474 50.1412Z" fill="#453A33" stroke="#453A33" stroke-miterlimit="10"/>
<path d="M66.7738 53.3545C66.6604 53.3545 66.5533 53.3146 66.4651 53.2441C66.3611 53.1583 66.3013 53.0295 66.3013 52.8946V37.9958C66.3013 37.7414 66.5123 37.5359 66.7738 37.5359C67.0352 37.5359 67.2462 37.7414 67.2462 37.9958V52.358L71.6626 51.6957C71.9209 51.6558 72.1602 51.8275 72.2012 52.079C72.2421 52.3304 72.0657 52.5634 71.8074 52.6033L66.8462 53.3453C66.821 53.3545 66.799 53.3545 66.7738 53.3545Z" fill="#453A33"/>
</g>
<path d="M74.2457 44.2587C74.0503 44.2587 73.8831 44.1443 73.8112 43.9805C73.7869 43.9252 73.7734 43.8643 73.7734 43.8003V43.7678V38.53V38.1277C73.7734 37.8741 73.9844 37.6693 74.2457 37.6693C74.507 37.6693 74.718 37.8741 74.718 38.1277V43.8003C74.718 44.0291 74.5463 44.2182 74.3209 44.253C74.2964 44.2568 74.2713 44.2587 74.2457 44.2587Z" fill="#453A33"/>
<path d="M60.8094 90H35.9093C28.24 90 22 83.9423 22 76.4971V38.1277C22 37.8741 22.211 37.6693 22.4723 37.6693C22.7336 37.6693 22.9446 37.8741 22.9446 38.1277V38.5306V76.4971C22.9446 83.438 28.7626 89.0862 35.9125 89.0862H60.8125C67.5678 89.0862 73.2371 83.9816 73.7415 77.4533C73.743 77.4341 73.7444 77.4149 73.7458 77.3957C73.7647 77.145 73.9883 76.9525 74.2496 76.9708C74.5109 76.9891 74.7061 77.2062 74.6872 77.4598C74.174 84.4925 68.0789 90 60.8094 90Z" fill="#453A33"/>
<path d="M74.2457 70.516C73.9844 70.516 73.7734 70.3112 73.7734 70.0575V50.8912C73.7734 50.6446 73.9728 50.4442 74.2239 50.4332C74.2311 50.4329 74.2384 50.4327 74.2457 50.4327C74.507 50.4327 74.718 50.6375 74.718 50.8912V70.0575C74.718 70.3043 74.5183 70.5048 74.2669 70.5155C74.2599 70.5158 74.2528 70.516 74.2457 70.516Z" fill="#453A33"/>
<path d="M74.2118 77.8846C73.9977 77.8846 73.8026 77.741 73.7522 77.5271C73.7465 77.5024 73.743 77.4777 73.7415 77.4533C73.7279 77.2326 73.8784 77.0295 74.108 76.98C77.7915 76.1701 81.2231 74.2995 84.0346 71.5672C88.7413 66.9979 90.9294 61.3193 89.7362 55.6712C89.6827 55.4236 89.8496 55.1821 90.1046 55.1302C90.3596 55.0782 90.6083 55.2402 90.6618 55.4878C91.9149 61.4324 89.6323 67.4289 84.702 72.2151C81.7647 75.0667 78.1724 77.0228 74.3189 77.8724C74.2811 77.8816 74.2465 77.8846 74.2118 77.8846ZM74.2496 70.5158C74.1551 70.5158 74.0639 70.4883 73.982 70.4363C73.8529 70.3508 73.7774 70.2102 73.7774 70.0574V50.891C73.7774 50.6618 73.9505 50.4693 74.1835 50.4387C74.197 50.4368 74.2105 50.435 74.2239 50.4332C74.7235 50.3665 75.2198 50.3317 75.7041 50.3317C78.0244 50.3317 80.0299 51.0866 81.5002 52.5109C85.1334 56.0379 84.2581 62.6305 79.5451 67.2058C78.0528 68.6545 76.2834 69.7884 74.4227 70.4853C74.369 70.5045 74.3178 70.5138 74.2669 70.5155C74.2611 70.5157 74.2554 70.5158 74.2496 70.5158ZM74.7187 51.2945V69.3697C76.2205 68.7126 77.6467 67.7498 78.8714 66.5579C83.2161 62.3401 84.0945 56.3283 80.8265 53.1558C79.5388 51.9058 77.7631 51.2425 75.6978 51.2425C75.3798 51.2456 75.0493 51.2639 74.7187 51.2945ZM89.7362 55.6712C89.3269 55.1271 86.484 48.6263 85.9929 48.1464C85.2499 47.4251 84.4187 46.7894 83.5246 46.2545C83.3042 46.1231 83.2318 45.8389 83.3703 45.625C83.5057 45.411 83.7953 45.3407 84.0188 45.4752C84.9759 46.0467 85.867 46.7283 86.6603 47.5015C87.2302 48.0547 89.6418 54.4945 90.1046 55.1302C90.5674 55.7629 90.2116 56.3038 89.7362 55.6712ZM83.5246 46.2545C81.9409 45.8444 76.3936 44.1113 74.3209 44.253C74.3085 44.2538 74.2963 44.2547 74.2843 44.2557C74.078 44.2728 73.8897 44.1572 73.8112 43.9805C73.7914 43.9361 73.7786 43.8879 73.7742 43.837C73.7722 43.8136 73.7719 43.7905 73.7734 43.7678C73.7881 43.5444 73.9683 43.3613 74.2055 43.3418C76.3621 43.1676 82.1928 45.0534 84.0188 45.4752C84.5194 45.5914 83.8426 46.3371 83.5246 46.2545Z" fill="#453A33"/>
<path d="M48.3572 40.8755C41.434 40.8755 34.9202 40.5668 30.0214 40.0044C25.9092 39.5341 23.9133 39.0023 22.9446 38.5306C22.0309 38.0857 22.0309 37.6943 22.0309 37.4585C22.0309 37.2048 22.2419 37 22.5032 37C22.755 37 22.9629 37.1926 22.9755 37.4371C23.0353 37.5349 23.7405 38.3998 30.5818 39.1456C35.3924 39.6713 41.7048 39.9585 48.3572 39.9585C55.0096 39.9585 61.322 39.6713 66.1326 39.1456C72.9739 38.3998 73.6823 37.5349 73.739 37.4371C73.7516 37.1926 73.9562 37 74.2112 37C74.4725 37 74.6835 37.2048 74.6835 37.4585C74.6835 37.6955 74.6835 38.0862 73.7734 38.53C72.8061 39.0018 70.8103 39.5335 66.693 40.0044C61.7943 40.5668 55.2804 40.8755 48.3572 40.8755Z" fill="#453A33"/>
<path fill-rule="evenodd" clip-rule="evenodd" d="M74.2457 44.2587C74.0503 44.2587 73.8831 44.1443 73.8112 43.9805C73.7914 43.9361 73.7786 43.8879 73.7742 43.837C73.7722 43.8136 73.7719 43.7905 73.7734 43.7678V38.53C72.8061 39.0018 70.8103 39.5335 66.693 40.0044C61.7943 40.5668 55.2804 40.8755 48.3572 40.8755C41.434 40.8755 34.9202 40.5668 30.0214 40.0044C25.9092 39.5341 23.9133 39.0023 22.9446 38.5306V76.4971C22.9446 83.438 28.7626 89.0862 35.9125 89.0862H60.8125C67.5678 89.0862 73.2371 83.9816 73.7415 77.4533C73.7279 77.2326 73.8784 77.0295 74.108 76.98C77.7915 76.1701 81.2231 74.2995 84.0346 71.5672C88.7413 66.9979 90.9294 61.3193 89.7362 55.6712C89.3269 55.1271 86.484 48.6263 85.9929 48.1464C85.2499 47.4251 84.4187 46.7894 83.5246 46.2545C81.9409 45.8444 76.3936 44.1113 74.3209 44.253C74.2964 44.2568 74.2713 44.2587 74.2457 44.2587ZM73.7734 70.0575C73.7734 70.3112 73.9844 70.516 74.2457 70.516C74.2528 70.516 74.2599 70.5158 74.2669 70.5155C74.5183 70.5048 74.718 70.3043 74.718 70.0575V50.8912C74.718 50.6375 74.507 50.4327 74.2457 50.4327C74.2384 50.4327 74.2311 50.4329 74.2239 50.4332C74.2105 50.435 74.197 50.4368 74.1835 50.4387C73.9505 50.4693 73.7774 50.6618 73.7774 50.891V70.0574C73.7774 70.2102 73.8529 70.3508 73.982 70.4363C74.0639 70.4883 74.1551 70.5158 74.2496 70.5158C74.2554 70.5158 74.2611 70.5157 74.2669 70.5155C74.2599 70.5158 74.2528 70.516 74.2457 70.516C73.9844 70.516 73.7734 70.3112 73.7734 70.0575V50.8912C73.7734 50.6446 73.9728 50.4442 74.2239 50.4332C74.7235 50.3665 75.2198 50.3317 75.7041 50.3317C78.0244 50.3317 80.0299 51.0866 81.5002 52.5109C85.1334 56.0379 84.2581 62.6305 79.5451 67.2058C78.0528 68.6545 76.2834 69.7884 74.4227 70.4853C74.369 70.5045 74.3178 70.5138 74.2669 70.5155C74.2611 70.5157 74.2554 70.5158 74.2496 70.5158C74.1551 70.5158 74.0639 70.4883 73.982 70.4363C73.8529 70.3508 73.7774 70.2102 73.7774 70.0574V50.891C73.7774 50.6618 73.9505 50.4693 74.1835 50.4387C74.197 50.4368 74.2105 50.435 74.2239 50.4332C73.9728 50.4442 73.7734 50.6446 73.7734 50.8912V70.0575Z" fill="#453A33"/>
<path d="M89.7362 55.6712C90.9294 61.3193 88.7413 66.9979 84.0346 71.5672C81.2231 74.2996 77.7915 76.1701 74.108 76.98C73.8784 77.0295 73.7279 77.2326 73.7415 77.4533M89.7362 55.6712C89.6827 55.4236 89.8496 55.1821 90.1046 55.1302M89.7362 55.6712C89.3269 55.1271 86.484 48.6263 85.9929 48.1464C85.2499 47.4251 84.4187 46.7894 83.5246 46.2545M89.7362 55.6712C90.2116 56.3038 90.5674 55.7629 90.1046 55.1302M90.1046 55.1302C90.3596 55.0782 90.6083 55.2402 90.6618 55.4878C91.9149 61.4324 89.6323 67.4289 84.702 72.2151C81.7647 75.0667 78.1724 77.0228 74.3189 77.8724C74.2811 77.8816 74.2465 77.8846 74.2118 77.8846C73.9977 77.8846 73.8026 77.741 73.7522 77.5271C73.7465 77.5024 73.743 77.4777 73.7415 77.4533M90.1046 55.1302C89.6418 54.4945 87.2302 48.0547 86.6603 47.5015C85.867 46.7283 84.9759 46.0467 84.0188 45.4752M83.5246 46.2545C83.3042 46.1231 83.2318 45.8389 83.3703 45.625C83.5057 45.411 83.7953 45.3407 84.0188 45.4752M83.5246 46.2545C83.8426 46.3371 84.5194 45.5914 84.0188 45.4752M83.5246 46.2545C81.9409 45.8444 76.3936 44.1113 74.3209 44.253M84.0188 45.4752C82.1928 45.0534 76.3621 43.1676 74.2055 43.3418C73.9683 43.3613 73.7881 43.5444 73.7734 43.7678M73.8112 43.9805C73.8831 44.1443 74.0503 44.2587 74.2457 44.2587C74.2713 44.2587 74.2964 44.2568 74.3209 44.253M73.8112 43.9805C73.7914 43.9361 73.7786 43.8879 73.7742 43.837C73.7722 43.8136 73.7719 43.7905 73.7734 43.7678M73.8112 43.9805C73.7869 43.9252 73.7734 43.8643 73.7734 43.8003V43.7678M73.8112 43.9805C73.8897 44.1572 74.078 44.2728 74.2843 44.2557C74.2963 44.2547 74.3085 44.2538 74.3209 44.253M73.7734 43.7678V38.53M73.7734 38.53C72.8061 39.0018 70.8103 39.5335 66.693 40.0044C61.7943 40.5668 55.2804 40.8755 48.3572 40.8755C41.434 40.8755 34.9202 40.5668 30.0214 40.0044C25.9092 39.5341 23.9133 39.0023 22.9446 38.5306M73.7734 38.53C74.6835 38.0862 74.6835 37.6955 74.6835 37.4585C74.6835 37.2048 74.4725 37 74.2112 37C73.9562 37 73.7516 37.1926 73.739 37.4371C73.6823 37.5349 72.9739 38.3998 66.1326 39.1456C61.322 39.6713 55.0096 39.9585 48.3572 39.9585C41.7048 39.9585 35.3924 39.6713 30.5818 39.1456C23.7405 38.3998 23.0353 37.5349 22.9755 37.4371C22.9629 37.1926 22.755 37 22.5032 37C22.2419 37 22.0309 37.2048 22.0309 37.4585C22.0309 37.6943 22.0309 38.0857 22.9446 38.5306M73.7734 38.53V38.1277C73.7734 37.8741 73.9844 37.6693 74.2457 37.6693C74.507 37.6693 74.718 37.8741 74.718 38.1277V43.8003C74.718 44.0291 74.5463 44.2182 74.3209 44.253M22.9446 38.5306V76.4971C22.9446 83.438 28.7626 89.0862 35.9125 89.0862H60.8125C67.5678 89.0862 73.2371 83.9816 73.7415 77.4533M22.9446 38.5306V38.1277C22.9446 37.8741 22.7336 37.6693 22.4723 37.6693C22.211 37.6693 22 37.8741 22 38.1277V76.4971C22 83.9423 28.24 90 35.9093 90H60.8094C68.0789 90 74.174 84.4925 74.6872 77.4598C74.7061 77.2062 74.5109 76.9891 74.2496 76.9708C73.9883 76.9525 73.7647 77.145 73.7458 77.3957C73.7444 77.4149 73.743 77.4341 73.7415 77.4533M74.2669 70.5155C74.2599 70.5158 74.2528 70.516 74.2457 70.516C73.9844 70.516 73.7734 70.3112 73.7734 70.0575V50.8912C73.7734 50.6446 73.9728 50.4442 74.2239 50.4332M74.2669 70.5155C74.5183 70.5048 74.718 70.3043 74.718 70.0575V50.8912C74.718 50.6375 74.507 50.4327 74.2457 50.4327C74.2384 50.4327 74.2311 50.4329 74.2239 50.4332M74.2669 70.5155C74.2611 70.5157 74.2554 70.5158 74.2496 70.5158C74.1551 70.5158 74.0639 70.4883 73.982 70.4363C73.8529 70.3508 73.7774 70.2102 73.7774 70.0574V50.891C73.7774 50.6618 73.9505 50.4693 74.1835 50.4387C74.197 50.4368 74.2105 50.435 74.2239 50.4332M74.2669 70.5155C74.3178 70.5138 74.369 70.5045 74.4227 70.4853C76.2834 69.7884 78.0528 68.6545 79.5451 67.2058C84.2581 62.6305 85.1334 56.0379 81.5002 52.5109C80.0299 51.0866 78.0244 50.3317 75.7041 50.3317C75.2198 50.3317 74.7235 50.3665 74.2239 50.4332M74.7187 51.2945V69.3697C76.2205 68.7126 77.6467 67.7498 78.8714 66.5579C83.2161 62.3401 84.0945 56.3283 80.8265 53.1558C79.5388 51.9058 77.7631 51.2425 75.6978 51.2425C75.3798 51.2456 75.0493 51.2639 74.7187 51.2945Z" stroke="#453A33" stroke-miterlimit="10"/>
</g>
</svg>
