<svg width="96" height="96" viewBox="0 0 96 96" fill="none" xmlns="http://www.w3.org/2000/svg">
<path d="M5.57445 53.6714C4.77951 53.6714 4.38206 53.089 4.38206 52.3124C4.38206 43.3814 10.3441 36.0036 20.6784 36.0036C31.0127 35.8094 38.1672 43.5755 38.1672 51.1474C38.1672 56.3895 36.5773 59.496 33.0001 61.8258C39.1609 64.9322 43.1356 70.3685 43.1356 77.1638C43.3344 87.2597 33.5963 96.1907 21.6721 95.9966C11.3378 95.9966 -0.387638 90.172 0.00983427 77.1638C0.00983427 75.6106 0.00985246 74.834 1.79848 74.834H9.54918C10.7416 74.834 11.1391 75.4164 11.1391 76.3872C11.1391 84.3474 17.1012 86.4831 20.8771 86.4831C26.6405 86.4831 31.2114 82.9884 31.2114 77.1638C31.2114 71.3392 27.6342 67.8445 20.4797 67.8445C19.2873 67.8445 18.6911 67.4562 18.6911 66.4854V60.2726C18.6911 59.3018 19.0885 58.7193 20.281 58.7193C24.8519 58.7193 27.2367 56.3895 27.2367 52.5065C27.2367 48.8176 25.0506 46.0995 20.6784 46.0995C17.2999 46.0995 15.3125 48.2351 14.7163 52.5065C14.7163 53.4772 14.1201 53.8655 13.3252 53.8655L5.57445 53.6714Z" fill="#453A33"/>
<path d="M50.8867 62.797C50.8867 62.6028 51.0854 62.4087 51.2842 62.4087H53.4703C53.669 62.4087 53.8678 62.6028 53.8678 62.797V76.3876C53.8678 76.5818 53.669 76.7759 53.4703 76.7759H51.2842C51.0854 76.7759 50.8867 76.5818 50.8867 76.3876V62.797Z" fill="#453A33"/>
<path d="M60.8233 76.3876C60.8233 76.5818 60.6246 76.7759 60.4259 76.7759H58.2398C58.041 76.7759 57.8423 76.5818 57.8423 76.3876V62.797C57.8423 62.6028 58.041 62.4087 58.2398 62.4087H60.6246C60.8233 62.4087 61.0221 62.6028 61.2208 62.797L68.3753 72.1163V62.797C68.3753 62.6028 68.574 62.4087 68.7728 62.4087H70.9589C71.1576 62.4087 71.3564 62.6028 71.3564 62.797V76.3876C71.3564 76.5818 71.1576 76.7759 70.9589 76.7759H68.7728C68.574 76.7759 68.3753 76.5818 68.1766 76.3876L60.8233 66.4859V76.3876Z" fill="#453A33"/>
<path d="M94.8082 36.5859C95.8019 36.5859 96.0006 37.1684 96.0006 37.945V93.4725C96.0006 94.4432 95.4044 95.0257 94.2119 95.0257H85.4676C84.2751 95.0257 83.6789 94.4432 83.6789 93.4725V46.876L77.1206 49.5941C76.9219 49.5941 76.7232 49.7883 76.5244 49.7883C76.127 49.7883 75.7295 49.5941 75.7295 49.2058V42.2163C75.7295 41.2456 75.9282 40.6631 76.7232 40.469L82.884 37.5567C84.2752 36.9742 85.4676 36.5859 86.4612 36.5859H94.8082Z" fill="#453A33"/>
<path d="M47.7057 57.7476C47.3083 57.7476 46.9108 57.5534 46.7121 57.3593C46.1159 56.7768 46.1159 56.0002 46.5133 55.2236C50.0906 51.3406 55.4565 49.0107 60.8224 49.0107C65.9895 49.0107 70.9579 50.9523 74.5351 54.6412C75.1314 55.2236 75.1314 56.1944 74.5351 56.7768C73.9389 57.3593 72.9453 57.3593 72.3491 56.7768C69.1693 53.6704 65.1946 52.1172 60.8224 52.1172C56.2514 52.1172 51.6805 54.0587 48.6994 57.3593C48.5007 57.5534 48.1032 57.7476 47.7057 57.7476Z" fill="#453A33"/>
<path d="M60.823 89.201C55.8546 89.201 51.2837 87.4536 47.7064 84.153C47.1102 83.5705 47.1102 82.5998 47.7064 82.0173C48.3026 81.4349 49.2963 81.4349 49.8925 82.0173C52.8736 84.7354 56.8483 86.2887 61.0218 86.2887C65.5927 86.2887 69.7662 84.5413 72.7472 81.4349C73.3434 80.8524 74.3371 80.8524 74.9333 81.4349C75.5295 82.0173 75.5295 82.9881 74.9333 83.5705C71.1573 87.2594 66.1889 89.201 60.823 89.201Z" fill="#453A33"/>
</svg>
