<svg width="96" height="80" viewBox="0 0 96 80" fill="none" xmlns="http://www.w3.org/2000/svg">
<g clip-path="url(#clip0_519_2156)">
<path d="M44.9193 58.8433C49.4674 65.3125 50.9833 71.7817 51.7413 76.3483C36.2022 84.7202 16.1151 78.251 5.88201 61.5071C-4.35105 44.7632 -0.94001 23.8334 13.8411 13.9393C14.2201 20.0279 15.7361 27.2582 19.9051 34.108C24.8322 42.0994 29.7592 45.5243 34.3072 48.5686C38.0972 50.8519 41.5083 53.5157 44.9193 58.8433ZM64.2485 21.1696C64.6275 19.6474 65.3855 18.5058 66.1435 16.9836C69.5545 10.5144 74.8605 5.94786 79.4086 2.90352C68.7965 -2.42408 56.2894 -0.140823 46.4353 7.47003C53.6364 10.1338 59.7004 15.0809 64.2485 21.1696ZM86.2306 7.08949C81.6825 9.75328 75.9975 13.9393 72.5864 20.4085C70.6914 23.8334 69.5545 26.8777 69.1754 29.5415C74.4815 41.7189 74.1024 55.4184 68.4174 66.0736C77.5135 64.1709 86.2305 57.7017 91.5366 48.1881C99.1166 34.108 96.8426 16.9836 86.2306 7.08949ZM21.4211 10.1338C21.4211 15.842 22.1792 23.0723 26.3482 29.922C30.5173 36.7718 34.3072 39.4356 38.4762 42.0994C42.6453 44.7632 46.8143 47.8076 51.3623 54.2768C55.5313 60.3655 57.4264 66.0736 58.5634 71.0206C69.5545 60.3654 71.4495 41.7189 62.3535 26.8777C53.2574 12.0365 35.8232 5.56731 21.4211 10.1338Z" fill="#453A33"/>
</g>
<defs>
<clipPath id="clip0_519_2156">
<rect width="96" height="80" fill="white"/>
</clipPath>
</defs>
</svg>
