<svg width="11" height="18" viewBox="0 0 11 18" fill="none" xmlns="http://www.w3.org/2000/svg">
<path d="M9.86033 9.61699C9.627 9.14199 8.96866 8.74199 8.09366 9.41699C6.902 10.367 5.002 10.367 5.002 10.367C5.002 10.367 3.102 10.367 1.91033 9.41699C1.03533 8.74199 0.376996 9.14199 0.143662 9.61699C-0.273004 10.4503 0.193662 10.8587 1.252 11.5337C2.16033 12.117 3.402 12.3337 4.202 12.417L3.53533 13.0837C2.58533 14.0253 1.66866 14.9337 1.04366 15.567C0.668662 15.9503 0.668662 16.5587 1.04366 16.917L1.16033 17.0503C1.53533 17.4253 2.152 17.4253 2.527 17.0503L5.002 14.567C5.96033 15.5087 6.86866 16.417 7.502 17.0503C7.877 17.4253 8.48533 17.4253 8.86866 17.0503L8.977 16.917C9.36033 16.5587 9.36033 15.9503 8.977 15.567L6.49366 13.0837L5.83533 12.4087C6.627 12.3337 7.85199 12.1087 8.752 11.5337C9.81033 10.8587 10.277 10.4503 9.86033 9.61699ZM5.002 2.80866C6.152 2.80866 7.08533 3.74199 7.08533 4.88366C7.08533 6.03366 6.152 6.95866 5.002 6.95866C3.852 6.95866 2.91866 6.03366 2.91866 4.88366C2.91866 3.74199 3.852 2.80866 5.002 2.80866ZM5.002 9.10033C7.33533 9.10033 9.21866 7.21699 9.21866 4.88366C9.21866 3.76533 8.77441 2.6928 7.98363 1.90203C7.19285 1.11125 6.12033 0.666992 5.002 0.666992C3.88367 0.666992 2.81114 1.11125 2.02036 1.90203C1.22958 2.6928 0.785329 3.76533 0.785329 4.88366C0.785329 7.21699 2.66866 9.10033 5.002 9.10033Z" fill="white"/>
</svg>
