<svg width="214" height="107" viewBox="0 0 214 107" fill="none" xmlns="http://www.w3.org/2000/svg">
<g clip-path="url(#clip0_646_8467)">
<path d="M213.787 0.213989H0.214844V106.786H213.787V0.213989Z" fill="#014171" stroke="white"/>
<path d="M188.678 62.2356C188.63 62.6155 188.486 63.6148 187.185 63.7446H175.752C174.45 63.6148 174.212 62.6155 174.163 62.2356V44.5859C174.212 44.2052 174.392 43.3958 175.694 43.266H187.19C188.492 43.3958 188.63 44.2052 188.678 44.5859V62.2356ZM192.637 36.616H170.205C166.834 36.8879 163.987 38.5973 163.607 42.4215V64.2729C163.987 68.0971 166.834 70.1231 170.205 70.395H192.637C196.007 70.1231 198.854 68.0971 199.234 64.2729V42.4215C198.854 38.5973 196.007 36.8879 192.637 36.616ZM101.854 43.266H91.825V36.616H122.438V43.266H112.41V70.395H101.854V43.266ZM88.6585 43.266V36.616H61.2121V70.395L89.0234 70.3877L89.0334 63.745H71.795L71.7967 56.5103H88.6584V49.8767H71.7967V43.266L88.6585 43.266ZM149.884 48.5017C149.884 49.2327 149.703 49.874 148.39 49.874H136.161V43.2436H148.406C149.896 43.2436 149.884 44.2184 149.884 44.8269V48.5017ZM152.809 57.2636C156.102 56.9999 159.385 54.7585 159.385 51.0774V42.7381C159.003 38.9317 156.147 36.8761 152.761 36.6051H125.605L125.606 70.395H136.161V57.2636H140.363L147.224 70.395H159.364L151.193 57.2636H152.809ZM39.3613 70.395L46.4337 49.1776V70.395H56.9899V36.616H42.7394L35.8778 53.506L29.0161 36.616H14.7656V70.395H25.3218V49.1776L32.4466 70.395H39.3613Z" fill="#FBC51D"/>
</g>
<defs>
<clipPath id="clip0_646_8467">
<rect width="214" height="107" fill="white"/>
</clipPath>
</defs>
</svg>
