<svg width="249" height="63" viewBox="0 0 249 63" fill="none" xmlns="http://www.w3.org/2000/svg">
<g clip-path="url(#clip0_646_8525)">
<path fill-rule="evenodd" clip-rule="evenodd" d="M171.552 29.1082C171.58 30.5582 172.801 31.7236 174.269 31.7236C175.737 31.7236 176.958 30.5582 176.958 29.1082V23.1185H185.821V29.1082C185.821 30.5582 187.069 31.7236 188.537 31.7236C190.005 31.7236 191.226 30.5582 191.226 29.1082V11.8574C191.226 10.4074 189.978 9.242 188.51 9.242C187.042 9.242 185.821 10.4074 185.821 11.8574V17.8471H176.93V11.8574C176.93 10.4074 175.709 9.242 174.241 9.242C172.773 9.242 171.552 10.4074 171.552 11.8574V29.1082ZM107.069 14.7303V29.1082C107.069 30.5853 108.318 31.7236 109.8 31.7236C111.309 31.7236 112.53 30.5717 112.53 29.1082V14.7303H116.618C118.114 14.7303 119.307 13.5649 119.307 12.0878C119.307 10.6649 118.1 9.47237 116.618 9.47237H102.981C101.486 9.47237 100.292 10.6649 100.292 12.0878C100.292 13.5649 101.499 14.7303 102.981 14.7303H107.069ZM88.0539 21.2349L81.729 10.5565C81.0019 9.35041 79.479 8.91677 78.1619 9.49947C76.8311 10.2583 76.4058 11.8574 77.1741 13.1312L84.72 25.7204C83.8007 26.3166 82.8129 26.5335 81.7428 26.6148C80.2748 26.7503 79.2869 27.7802 79.2869 29.1489C79.2869 30.775 80.6177 31.6829 81.976 31.6829C85.0355 31.6829 87.7109 30.1517 89.6453 28.0105C91.4015 26.0592 92.7323 23.5928 93.9808 21.2891L98.426 13.0499C99.0983 11.7761 98.6867 10.1093 97.3147 9.45882C96.025 8.84901 94.4473 9.39106 93.7613 10.6513L88.0539 21.2349ZM195.534 20.5031C195.534 26.9535 200.378 31.7236 206.949 31.7236C213.521 31.7236 218.364 26.9264 218.364 20.5031C218.364 14.0527 213.48 9.25555 206.949 9.25555C200.378 9.25555 195.534 14.0527 195.534 20.5031ZM212.89 20.5031C212.89 23.9452 210.475 26.5335 206.936 26.5335C203.382 26.5335 200.981 23.9316 200.981 20.5031C200.981 17.0611 203.396 14.4457 206.936 14.4457C210.489 14.4457 212.89 17.0611 212.89 20.5031ZM236.941 14.7438C238.436 14.7438 239.616 13.592 239.616 12.1555C239.616 10.7462 238.436 9.55368 236.941 9.55368H232.866C226.212 9.55368 221.479 14.2424 221.479 20.5438C221.479 26.8316 226.212 31.5339 232.866 31.5339H236.941C238.436 31.5339 239.616 30.382 239.616 28.932C239.616 27.5227 238.436 26.3302 236.941 26.3302H232.715C229.162 26.3302 226.829 23.8639 226.829 20.5302C226.829 17.1966 229.175 14.7303 232.715 14.7303H236.941V14.7438ZM137.747 30.9512C138.748 31.9675 140.436 32.0082 141.465 30.9918C142.466 30.0161 142.576 28.3358 141.575 27.3194L134.715 20.327L141.3 13.6055C142.288 12.5892 142.192 10.9224 141.191 9.97377C140.189 8.95742 138.501 8.99807 137.514 10.0144L130.709 16.9391C130.119 17.5489 129.707 17.6303 129.268 17.6303C128.596 17.6303 128.02 17.1695 128.02 16.4784V11.8574C128.02 10.4074 126.798 9.242 125.33 9.242C123.862 9.242 122.641 10.4074 122.641 11.8574V29.1218C122.641 30.5717 123.862 31.7372 125.33 31.7372C126.798 31.7372 128.02 30.5717 128.02 29.1218V24.2162C128.02 23.5522 128.596 23.0914 129.268 23.0914C129.707 23.0914 130.119 23.1727 130.709 23.7825L137.747 30.9512ZM144.442 20.5031C144.442 26.9535 149.285 31.7236 155.857 31.7236C162.429 31.7236 167.272 26.9264 167.272 20.5031C167.272 14.0527 162.388 9.25555 155.857 9.25555C149.285 9.25555 144.442 14.0527 144.442 20.5031ZM161.811 20.5031C161.811 23.9452 159.397 26.5335 155.857 26.5335C152.304 26.5335 149.903 23.9316 149.903 20.5031C149.903 17.0611 152.317 14.4457 155.857 14.4457C159.397 14.4457 161.811 17.0611 161.811 20.5031ZM246.298 18.3891C247.738 18.3891 249.014 17.2237 249.014 15.6924C249.014 14.2153 247.738 13.0364 246.298 13.0364C244.816 13.0364 243.567 14.2289 243.567 15.6924C243.554 17.2102 244.802 18.3891 246.298 18.3891ZM246.298 27.9699C247.738 27.9699 249.014 26.7638 249.014 25.2732C249.014 23.7961 247.738 22.6307 246.298 22.6307C244.816 22.6307 243.567 23.7961 243.567 25.2732C243.554 26.7503 244.802 27.9699 246.298 27.9699Z" fill="#13A538"/>
<path d="M81.3032 43.2151C83.9237 43.2151 85.3643 45.1394 85.3643 47.5109C85.3643 49.8823 83.9374 51.8066 81.3032 51.8066C78.6828 51.8066 77.2422 49.8823 77.2422 47.5109C77.2559 45.1394 78.6828 43.2151 81.3032 43.2151ZM81.3032 50.9258C83.2103 50.9258 84.3765 49.5978 84.3765 47.5109C84.3765 45.424 83.2103 44.0959 81.3032 44.0959C79.3962 44.0959 78.23 45.424 78.23 47.5109C78.23 49.5978 79.3962 50.9258 81.3032 50.9258Z" fill="black"/>
<path d="M94.1749 43.3913C94.5041 43.3913 94.655 43.6488 94.655 43.9333V51.102C94.655 51.3866 94.5041 51.644 94.1749 51.644C93.8456 51.644 93.6947 51.3866 93.6947 51.102V47.8226H88.6869V51.102C88.6869 51.3866 88.536 51.644 88.2068 51.644C87.8775 51.644 87.7266 51.3866 87.7266 51.102V43.9333C87.7266 43.6488 87.8775 43.3913 88.2068 43.3913C88.536 43.3913 88.6869 43.6488 88.6869 43.9333V46.9417H93.6947V43.9333C93.6947 43.6352 93.8456 43.3913 94.1749 43.3913Z" fill="black"/>
<path d="M97.8075 49.9366C98.2877 48.717 98.4935 46.2913 98.5758 43.8114C98.5758 43.5539 98.7679 43.3913 99.0423 43.3913H103.172C103.515 43.3913 103.68 43.6217 103.68 43.9062V51.102C103.68 51.3866 103.529 51.644 103.199 51.644C102.87 51.644 102.719 51.3866 102.719 51.102V44.2586H99.4676C99.3715 46.1422 99.2343 48.9067 98.5758 50.4244C98.1642 51.373 97.5742 51.7253 96.8882 51.7253C96.5453 51.7253 96.1611 51.5898 96.2023 51.1833C96.2571 50.7903 96.5041 50.8174 96.8196 50.8174C97.2724 50.8174 97.6017 50.438 97.8075 49.9366Z" fill="black"/>
<path d="M106.684 44.4618C106.547 44.1366 106.712 43.9604 106.973 43.8249C107.604 43.4997 108.674 43.2151 109.689 43.2151C111.925 43.2151 112.845 44.3398 112.845 46.1964V51.1019C112.845 51.3865 112.694 51.644 112.364 51.644C112.035 51.644 111.884 51.3865 111.884 51.1019V49.8417C111.473 50.7903 110.471 51.8066 108.633 51.8066C107 51.8066 105.875 50.98 105.875 49.3538C105.875 47.1856 107.864 46.5758 109.662 46.5758C110.622 46.5758 111.281 46.6571 111.898 46.7384V46.2641C111.898 44.9361 111.212 44.0959 109.607 44.0959C108.77 44.0959 108.152 44.2992 107.453 44.5702C107.165 44.6786 106.808 44.7464 106.684 44.4618ZM111.884 47.9038V47.5786C111.185 47.4837 110.691 47.416 109.785 47.416C108.098 47.416 106.849 47.9174 106.849 49.3132C106.849 50.2753 107.494 50.9258 108.742 50.9258C110.883 50.9258 111.884 49.1912 111.884 47.9038Z" fill="black"/>
<path d="M116.22 51.4001C116.124 51.5221 115.96 51.6305 115.726 51.6305C115.397 51.6305 115.246 51.373 115.246 51.0884V43.9198C115.246 43.6352 115.397 43.3777 115.726 43.3777C116.056 43.3777 116.206 43.6352 116.206 43.9198V50.0992L121.338 43.6216C121.475 43.4726 121.612 43.3913 121.818 43.3913C122.147 43.3913 122.298 43.6487 122.298 43.9333V51.102C122.298 51.3865 122.147 51.644 121.818 51.644C121.489 51.644 121.338 51.3865 121.338 51.102V44.9768L116.22 51.4001ZM116.508 40.803C116.412 40.5455 116.412 40.2745 116.646 40.1525C116.92 40.0035 117.153 40.1796 117.29 40.4235C117.592 40.9656 118.072 41.3721 118.827 41.3721C119.582 41.3721 120.048 40.9656 120.364 40.4235C120.501 40.1932 120.734 40.017 121.008 40.1525C121.242 40.2745 121.242 40.5591 121.146 40.803C120.912 41.3992 120.144 42.1852 118.827 42.1852C117.524 42.1852 116.755 41.3992 116.508 40.803Z" fill="black"/>
<path d="M131.187 43.3913C131.516 43.3913 131.667 43.6488 131.667 43.9333V51.102C131.667 51.3866 131.516 51.644 131.187 51.644C130.857 51.644 130.706 51.3866 130.706 51.102V47.8226H125.699V51.102C125.699 51.3866 125.548 51.644 125.218 51.644C124.889 51.644 124.738 51.3866 124.738 51.102V43.9333C124.738 43.6488 124.889 43.3913 125.218 43.3913C125.548 43.3913 125.699 43.6488 125.699 43.9333V46.9417H130.706V43.9333C130.72 43.6352 130.871 43.3913 131.187 43.3913Z" fill="black"/>
<path d="M134.414 47.0908C134.414 46.8333 134.606 46.6572 134.881 46.6572H139.353C139.628 46.6572 139.82 46.8469 139.82 47.0908C139.82 47.3618 139.628 47.5244 139.353 47.5244H134.881C134.606 47.5244 134.414 47.3618 134.414 47.0908Z" fill="black"/>
<path d="M143.507 51.102C143.507 51.3866 143.356 51.644 143.027 51.644C142.698 51.644 142.547 51.3866 142.547 51.102V43.9333C142.547 43.6488 142.698 43.3913 143.027 43.3913H147.17C147.445 43.3913 147.637 43.581 147.637 43.8249C147.637 44.096 147.445 44.2586 147.17 44.2586H143.507V51.102Z" fill="black"/>
<path d="M150.544 51.4001C150.448 51.5221 150.284 51.6305 150.051 51.6305C149.721 51.6305 149.57 51.373 149.57 51.0884V43.9198C149.57 43.6352 149.721 43.3777 150.051 43.3777C150.38 43.3777 150.531 43.6352 150.531 43.9198V50.0992L155.662 43.6217C155.799 43.4726 155.936 43.3913 156.142 43.3913C156.471 43.3913 156.622 43.6488 156.622 43.9333V51.102C156.622 51.3866 156.471 51.644 156.142 51.644C155.813 51.644 155.662 51.3866 155.662 51.102V44.9768L150.544 51.4001Z" fill="black"/>
<path d="M160.371 44.2586V51.102C160.371 51.3866 160.22 51.644 159.89 51.644C159.561 51.644 159.41 51.3866 159.41 51.102V43.9333C159.41 43.6488 159.575 43.3913 159.877 43.3913H165.611C165.941 43.3913 166.105 43.6488 166.105 43.9333V51.102C166.105 51.3866 165.954 51.644 165.625 51.644C165.296 51.644 165.145 51.3866 165.145 51.102V44.2586H160.371Z" fill="black"/>
<path d="M174.183 50.4244C174.485 50.2753 174.732 50.2753 174.869 50.5057C175.006 50.7361 174.883 50.9935 174.663 51.1426C173.964 51.6033 173.003 51.7931 172.07 51.7931C169.409 51.7931 168.133 50.1805 168.133 47.5515C168.133 45.0716 169.546 43.2015 172.015 43.2015C174.266 43.2015 175.267 44.787 175.267 46.3996C175.267 46.6571 175.253 46.901 175.212 47.1179C175.144 47.6193 174.924 47.9445 174.307 47.9445H169.093C169.23 49.8688 170.287 50.9122 172.057 50.9122C172.894 50.9258 173.552 50.7225 174.183 50.4244ZM169.107 47.1179H174.348C174.375 46.901 174.375 46.6842 174.375 46.481C174.348 45.0987 173.593 44.0959 171.961 44.0959C170.301 44.0959 169.244 45.1665 169.107 47.1179Z" fill="black"/>
<path d="M184.914 47.2534C184.914 49.6926 183.721 51.8066 180.908 51.8066C180.003 51.8066 179.179 51.644 178.535 51.2781V54.4627C178.535 54.7472 178.384 55.0047 178.054 55.0047C177.725 55.0047 177.574 54.7472 177.574 54.4627V43.9198C177.574 43.6352 177.725 43.3777 178.054 43.3777C178.384 43.3777 178.535 43.6352 178.535 43.9198V45.2884C179.083 43.9198 180.154 43.2151 181.635 43.2151C183.844 43.2151 184.914 44.8954 184.914 47.2534ZM178.535 48.6898V50.3431C179.262 50.7632 180.016 50.9393 180.922 50.9393C183.186 50.9393 183.926 49.2183 183.926 47.2669C183.926 45.4375 183.213 44.0959 181.498 44.0959C179.015 44.0959 178.535 46.6029 178.535 48.6898Z" fill="black"/>
<path d="M187.426 43.3913C187.701 43.3913 187.852 43.5268 188.03 43.7843L190.939 47.8497L193.93 43.8249C194.122 43.5675 194.286 43.4048 194.574 43.4048C194.904 43.4048 195.013 43.6759 195.013 43.9469V51.1155C195.013 51.4001 194.862 51.6576 194.533 51.6576C194.204 51.6576 194.053 51.4001 194.053 51.1155V45.0175L191.336 48.7034C191.062 49.0964 190.637 49.0422 190.404 48.7034L187.852 45.153V51.1155C187.852 51.4001 187.728 51.6576 187.413 51.6576C187.083 51.6576 186.974 51.4001 186.974 51.1155V43.9469C186.96 43.6217 187.097 43.3913 187.426 43.3913Z" fill="black"/>
<path d="M198.044 44.4618C197.907 44.1366 198.071 43.9604 198.332 43.8249C198.963 43.4997 200.033 43.2151 201.048 43.2151C203.285 43.2151 204.204 44.3398 204.204 46.1964V51.1019C204.204 51.3865 204.053 51.644 203.724 51.644C203.395 51.644 203.244 51.3865 203.244 51.1019V49.8417C202.832 50.7903 201.831 51.8066 199.992 51.8066C198.359 51.8066 197.234 50.98 197.234 49.3538C197.234 47.1856 199.224 46.5758 201.021 46.5758C201.981 46.5758 202.64 46.6571 203.257 46.7384V46.2641C203.257 44.9361 202.571 44.0959 200.966 44.0959C200.129 44.0959 199.512 44.2992 198.812 44.5702C198.524 44.6786 198.167 44.7464 198.044 44.4618ZM203.244 47.9038V47.5786C202.544 47.4837 202.05 47.416 201.145 47.416C199.457 47.416 198.208 47.9174 198.208 49.3132C198.208 50.2753 198.853 50.9258 200.102 50.9258C202.242 50.9258 203.244 49.1912 203.244 47.9038Z" fill="black"/>
<path d="M213.957 47.2534C213.957 49.6926 212.764 51.8066 209.951 51.8066C209.046 51.8066 208.222 51.644 207.578 51.2781V54.4627C207.578 54.7472 207.427 55.0047 207.097 55.0047C206.768 55.0047 206.617 54.7472 206.617 54.4627V43.9198C206.617 43.6352 206.768 43.3777 207.097 43.3777C207.427 43.3777 207.578 43.6352 207.578 43.9198V45.2884C208.126 43.9198 209.196 43.2151 210.678 43.2151C212.887 43.2151 213.957 44.8954 213.957 47.2534ZM207.578 48.6898V50.3431C208.305 50.7632 209.059 50.9393 209.965 50.9393C212.229 50.9393 212.969 49.2183 212.969 47.2669C212.969 45.4375 212.256 44.0959 210.541 44.0959C208.058 44.0959 207.578 46.6029 207.578 48.6898Z" fill="black"/>
<path d="M216.816 43.3913C217.145 43.3913 217.296 43.6488 217.296 43.9333V47.1992L221.001 43.6081C221.234 43.3777 221.508 43.31 221.728 43.5268C221.892 43.6894 221.879 43.9876 221.646 44.2179L218.202 47.416L222.043 50.7632C222.263 50.9665 222.331 51.2646 222.139 51.4814C221.934 51.7389 221.591 51.6169 221.357 51.4137L217.296 47.809V51.0884C217.296 51.373 217.145 51.6305 216.816 51.6305C216.487 51.6305 216.336 51.373 216.336 51.0884V43.9198C216.336 43.6352 216.487 43.3913 216.816 43.3913Z" fill="black"/>
<path d="M229.902 50.4244C230.204 50.2753 230.451 50.2753 230.588 50.5057C230.725 50.7361 230.602 50.9935 230.382 51.1426C229.682 51.6033 228.722 51.7931 227.789 51.7931C225.127 51.7931 223.852 50.1805 223.852 47.5515C223.852 45.0716 225.265 43.2015 227.734 43.2015C229.984 43.2015 230.986 44.787 230.986 46.3996C230.986 46.6571 230.972 46.901 230.931 47.1179C230.862 47.6193 230.643 47.9445 230.025 47.9445H224.812C224.949 49.8688 226.006 50.9122 227.775 50.9122C228.612 50.9258 229.271 50.7225 229.902 50.4244ZM224.826 47.1179H230.067C230.094 46.901 230.094 46.6842 230.094 46.481C230.067 45.0987 229.312 44.0959 227.679 44.0959C226.019 44.0959 224.963 45.1665 224.826 47.1179Z" fill="black"/>
<path d="M236.583 51.102C236.583 51.3866 236.432 51.644 236.103 51.644C235.773 51.644 235.622 51.3866 235.622 51.102V44.2586H232.892C232.618 44.2586 232.426 44.096 232.426 43.8249C232.426 43.5675 232.618 43.3913 232.892 43.3913H239.299C239.574 43.3913 239.766 43.581 239.766 43.8249C239.766 44.096 239.574 44.2586 239.299 44.2586H236.569V51.102H236.583Z" fill="black"/>
<path fill-rule="evenodd" clip-rule="evenodd" d="M58.2816 6.8163C58.2816 3.04904 55.1946 0 51.3805 0H6.90104C3.08695 0 0 3.04904 0 6.8163V34.2035C0 50.0992 13.0475 62.9864 29.1408 62.9864C45.2341 62.9864 58.2816 50.0992 58.2816 34.2035C58.2816 23.3082 58.2953 17.7251 58.2816 6.8163Z" fill="#FEC800"/>
<path fill-rule="evenodd" clip-rule="evenodd" d="M27.2223 41.8193C27.2223 40.3287 25.9875 39.1362 24.4509 39.1362C22.9417 39.1362 21.7344 40.3287 21.7344 41.8193C21.7344 43.31 22.9417 44.5296 24.4509 44.5296C25.9875 44.5296 27.2223 43.31 27.2223 41.8193ZM36.9633 41.8193C36.9633 40.3287 35.7285 39.1362 34.2194 39.1362C32.7102 39.1362 31.4754 40.3287 31.4754 41.8193C31.4754 43.31 32.7102 44.5296 34.2194 44.5296C35.7285 44.5296 36.9633 43.31 36.9633 41.8193Z" fill="black"/>
</g>
<defs>
<clipPath id="clip0_646_8525">
<rect width="249" height="63" fill="white"/>
</clipPath>
</defs>
</svg>
