<svg width="346" height="95" viewBox="0 0 346 95" fill="none" xmlns="http://www.w3.org/2000/svg">
<rect width="346" height="95" fill="url(#paint0_linear_646_8446)"/>
<g clip-path="url(#clip0_646_8446)">
<mask id="mask0_646_8446" style="mask-type:luminance" maskUnits="userSpaceOnUse" x="53" y="16" width="240" height="64">
<path d="M293 16H53V80H293V16Z" fill="white"/>
</mask>
<g mask="url(#mask0_646_8446)">
<path d="M60.4504 61.4885L53.125 34.4837H57.9302L63.5586 55.2248L69.5907 34.4819L74.07 34.4837L80.1232 55.335L85.7769 34.4888L90.582 34.4819L83.2535 61.4837L77.6837 61.478L71.8322 41.3112L65.9752 61.4832L60.4504 61.4885Z" fill="white"/>
<path d="M93.8984 34.4977H98.4725V61.471H93.8984V34.4977Z" fill="white"/>
<path d="M108.249 57.2399H119.385V61.471H103.77V34.4977H108.249V57.2399Z" fill="white"/>
<path d="M133.453 34.5288C137.206 34.5288 140.33 35.8355 142.79 38.4177C145.282 40.9999 146.544 44.2044 146.544 47.9999C146.544 51.7644 145.282 54.9688 142.79 57.5821C140.33 60.1644 137.206 61.471 133.453 61.471H122.695V34.4977H133.453V34.5288ZM133.453 57.271C136.039 57.271 138.153 56.3999 139.73 54.6577C141.371 52.9155 142.191 50.6755 142.191 48.031C142.191 45.3244 141.371 43.1466 139.73 41.4044C138.121 39.6621 136.008 38.791 133.453 38.791H127.206V57.271H133.453Z" fill="white"/>
<path d="M170.679 53.7655C170.679 55.9755 169.891 57.812 168.282 59.275C166.673 60.738 164.78 61.485 162.446 61.485H150.742V34.4977H161.594C163.834 34.4977 165.726 35.2448 167.272 36.6455C168.85 38.0773 169.607 39.8516 169.607 41.9682C169.607 44.3339 168.66 46.1393 166.831 47.4778C169.228 48.7229 170.679 50.964 170.679 53.7655ZM155.253 38.6688V45.7658H161.625C163.613 45.7658 165.127 44.2094 165.127 42.2173C165.127 40.2251 163.613 38.6688 161.625 38.6688H155.253ZM162.477 57.314C164.559 57.314 166.2 55.6642 166.2 53.5476C166.2 51.4309 164.559 49.7812 162.477 49.7812H155.253V57.3451H162.477V57.314Z" fill="white"/>
<path d="M179.416 57.2517H191.531V61.485H174.938V34.4977H191.341V38.731H179.416V45.7346H190.363V49.9368H179.416V57.2517Z" fill="white"/>
<path d="M211.154 61.485L205.349 51.6488H200.049V61.485H195.57V34.4977H206.516C208.977 34.4977 211.059 35.3381 212.731 37.0501C214.434 38.6999 215.318 40.7543 215.318 43.1822C215.318 46.6062 213.141 49.75 209.892 50.9951L216.106 61.485H211.154ZM200.049 38.6687V47.6956H206.485C208.882 47.6956 210.775 45.7035 210.775 43.1822C210.775 40.692 208.851 38.6687 206.485 38.6687H200.049Z" fill="white"/>
<path d="M235.099 61.4849L229.326 51.6436H224.026V61.4849H219.547V34.4836H230.493C232.954 34.4836 235.036 35.3245 236.708 37.0374C238.411 38.688 239.295 40.7434 239.295 43.1726C239.295 46.5984 237.118 49.7439 233.869 50.9896L240.083 61.4849H235.099ZM224.026 38.6568V47.6884H230.462C232.859 47.6884 234.752 45.6952 234.752 43.1726C234.752 40.6812 232.828 38.6568 230.462 38.6568H224.026Z" fill="white"/>
<path d="M243.359 34.4867H247.839V61.485H243.359V34.4867Z" fill="white"/>
<path d="M257.621 57.2517H269.735V61.4849H253.141V34.4977H269.545V38.731H257.621V45.7346H268.567V49.9368H257.621V57.2517Z" fill="white"/>
<path d="M272.859 55.3422L276.739 53.1022C277.843 56.1511 280.083 57.6444 283.521 57.6444C286.928 57.6444 288.6 56.2133 288.6 54.0978C288.6 52.9778 288.127 52.1689 287.244 51.6089C286.36 51.0178 284.72 50.3644 282.386 49.68C279.767 48.9022 278.474 48.4044 276.644 47.2222C274.878 45.9778 273.994 44.2044 273.994 41.7778C273.994 39.3822 274.846 37.5156 276.581 36.1156C278.285 34.6844 280.367 34 282.796 34C287.181 34 290.556 36.24 292.323 39.9422L288.537 42.0889C287.401 39.6 285.477 38.3244 282.796 38.3244C280.177 38.3244 278.505 39.6311 278.505 41.6844C278.505 43.6756 279.83 44.6089 284.026 45.8844C285.067 46.2267 285.824 46.4756 286.297 46.6622C286.802 46.8178 287.464 47.0978 288.316 47.44C289.2 47.7822 289.894 48.1867 290.304 48.5289C291.755 49.6489 293.3 51.4844 293.111 54.0667C293.111 56.4933 292.228 58.4533 290.43 59.8844C288.663 61.3156 286.329 62 283.427 62C278.127 61.9689 274.278 59.48 272.859 55.3422Z" fill="white"/>
</g>
</g>
<defs>
<linearGradient id="paint0_linear_646_8446" x1="-1.41892e-07" y1="48" x2="346" y2="48" gradientUnits="userSpaceOnUse">
<stop stop-color="#BE2081"/>
<stop offset="1" stop-color="#50327C"/>
</linearGradient>
<clipPath id="clip0_646_8446">
<rect width="240" height="64" fill="white" transform="translate(53 16)"/>
</clipPath>
</defs>
</svg>
