<svg width="18" height="12" viewBox="0 0 18 12" fill="none" xmlns="http://www.w3.org/2000/svg">
<path d="M7.33464 8.50033L11.6596 6.00033L7.33464 3.50033V8.50033ZM16.968 1.97533C17.0763 2.36699 17.1513 2.89199 17.2013 3.55866C17.2596 4.22533 17.2846 4.80033 17.2846 5.30033L17.3346 6.00033C17.3346 7.82533 17.2013 9.16699 16.968 10.0253C16.7596 10.7753 16.2763 11.2587 15.5263 11.467C15.1346 11.5753 14.418 11.6503 13.318 11.7003C12.2346 11.7587 11.243 11.7837 10.3263 11.7837L9.0013 11.8337C5.50964 11.8337 3.33464 11.7003 2.4763 11.467C1.7263 11.2587 1.24297 10.7753 1.03464 10.0253C0.926302 9.63366 0.851302 9.10866 0.801302 8.44199C0.742969 7.77533 0.717969 7.20033 0.717969 6.70033L0.667969 6.00033C0.667969 4.17533 0.801302 2.83366 1.03464 1.97533C1.24297 1.22533 1.7263 0.741992 2.4763 0.533659C2.86797 0.425326 3.58464 0.350325 4.68464 0.300325C5.76797 0.241992 6.75963 0.216992 7.6763 0.216992L9.0013 0.166992C12.493 0.166992 14.668 0.300326 15.5263 0.533659C16.2763 0.741992 16.7596 1.22533 16.968 1.97533Z" fill="white"/>
</svg>
