<svg width="22" height="25" viewBox="0 0 22 25" fill="none" xmlns="http://www.w3.org/2000/svg">
<g clip-path="url(#clip0_306_148)">
<path d="M9.59567 17.4534C9.78085 17.3149 9.9398 17.1445 10.065 16.9501C9.63248 16.8681 9.21167 16.7331 8.81211 16.5482C8.42645 16.3708 8.06651 16.1421 7.74206 15.8683H7.56043H6.90104H6.80204L6.81085 15.8779C6.65607 15.9107 6.54072 16.0252 6.54114 16.1607C6.54114 16.3209 6.70389 16.4518 6.9023 16.4518H7.4455C7.75875 16.6877 8.09622 16.8896 8.45221 17.0541C8.81953 17.2245 9.20265 17.3585 9.59609 17.4543L9.59567 17.4534Z" fill="#01AF4F"/>
<path d="M6.72407 9.17075L6.71526 9.17998H6.81425H7.35495H7.65571C8.02963 8.86283 8.45028 8.60532 8.90278 8.41655C9.30481 8.24834 9.72541 8.12851 10.1557 8.05959C10.0509 7.86795 9.92302 7.68988 9.77486 7.52939C9.09802 7.66192 8.44856 7.90828 7.85411 8.258C7.6812 8.36101 7.51426 8.47374 7.35411 8.59566H7.35201H6.81174C6.61333 8.59566 6.45142 8.72738 6.45142 8.88929C6.45142 9.02477 6.56719 9.14096 6.72239 9.17159" fill="#01AF4F"/>
<path d="M5.75674 10.7857L7.48829 10.7836H8.10658H8.32093L8.33771 10.7631L8.3419 10.758L8.37169 10.7228L8.37588 10.7182L8.38175 10.7115C8.41153 10.6775 8.44258 10.6439 8.47404 10.6108C8.5185 10.5647 8.56478 10.5201 8.61288 10.477L8.63217 10.4598C8.78933 10.3209 8.96007 10.1982 9.14182 10.0936C9.57604 9.84708 10.0553 9.69017 10.5512 9.63217C10.4984 9.43879 10.4371 9.24918 10.3671 9.06503C9.74253 9.14793 9.14234 9.36101 8.60533 9.69047C8.36961 9.83647 8.15109 10.0086 7.9539 10.2035L5.75297 10.206C5.55456 10.206 5.39265 10.3377 5.39307 10.4996C5.39307 10.6603 5.55582 10.7912 5.75381 10.7908" fill="#01AF4F"/>
<path d="M4.79196 12.0764L7.84986 12.0722C7.87705 11.8713 7.93167 11.6751 8.0122 11.4891H7.25716H6.93124H6.49751H5.75925L4.79196 11.4933C4.59355 11.4933 4.43164 11.625 4.43164 11.7869C4.43164 11.9488 4.59439 12.078 4.7928 12.078" fill="#01AF4F"/>
<path d="M8.01176 13.664C7.9306 13.4781 7.87541 13.2819 7.84776 13.0809H7.18333L4.78947 13.0838C4.59106 13.0838 4.42873 13.2156 4.42957 13.3775C4.42957 13.5382 4.59232 13.6712 4.79031 13.6712L7.27561 13.6678L8.01176 13.664Z" fill="#01AF4F"/>
<path d="M9.10193 15.7039C9.47988 15.8786 9.87977 16.0012 10.2907 16.0684C10.3272 15.9871 10.3582 15.9107 10.3846 15.8432C10.4269 15.7333 10.4663 15.6214 10.5029 15.5076C10.1426 15.4554 9.79181 15.3513 9.46141 15.1984C9.23811 15.0953 9.02706 14.9676 8.83221 14.8175C8.82257 14.8141 8.81837 14.8108 8.82005 14.8078L8.77433 14.7714H8.77223L8.71518 14.7231C8.69673 14.7072 8.67827 14.6912 8.66065 14.6749L8.61284 14.6304L8.60193 14.6199L8.56753 14.5868L8.53649 14.5557L8.5344 14.5532L8.52013 14.5385C8.46728 14.4843 8.41765 14.4283 8.37123 14.3707H8.14639H7.53943H5.8079C5.60949 14.3707 5.44758 14.5025 5.448 14.6644C5.44842 14.8263 5.61075 14.958 5.80915 14.9555L8.00965 14.953C8.32861 15.2634 8.6985 15.5166 9.10319 15.7018" fill="#01AF4F"/>
<path d="M13.9815 10.2768L13.9677 10.0994V10.0889V10.0856L13.9559 9.94671V9.94126C13.9226 9.55423 13.8807 9.17085 13.8301 8.79109C13.7558 8.2588 13.6623 7.72818 13.5553 7.19966C13.3974 6.39935 13.1932 5.60887 12.9438 4.83221C12.682 4.03104 12.359 3.24958 11.8532 2.52811C11.2886 1.72316 10.6367 0.856555 9.65223 0.346908C8.96389 -0.0108924 8.12874 -0.125825 7.37581 0.167798C6.59854 0.47023 6.07547 1.09061 5.76633 1.71981C5.51585 2.23776 5.37206 2.80079 5.34351 3.37542C5.7097 2.60445 6.36993 1.1615 7.65349 1.59942C10.4958 2.56754 11.974 7.52558 12.005 12.5054C11.9777 16.6526 10.9463 20.7869 8.95802 22.609C8.56079 22.9731 8.12664 23.2466 7.65349 23.406C6.36993 23.8443 5.7097 22.4014 5.34351 21.63C5.45424 21.8632 5.40684 22.2172 5.46934 22.4689C5.53576 22.7382 5.62951 23.0001 5.74913 23.2504C5.96472 23.7144 6.28472 24.1222 6.68411 24.4421C7.47354 25.0608 8.55408 25.1702 9.50919 24.7294C10.7407 24.161 11.5465 23.0515 12.1434 22.0448C12.7139 21.083 13.0243 20.0092 13.2894 18.9689C13.5225 18.0627 13.7025 17.1436 13.8284 16.2164C13.8787 15.8369 13.9207 15.4534 13.9542 15.0658V15.0608L13.966 14.9219V14.9182V14.9081C13.966 14.9081 13.9794 14.7307 13.9798 14.7307C14.0358 13.9885 14.0591 13.2455 14.0499 12.5017C14.0583 11.7578 14.0349 11.0148 13.9798 10.2726" fill="#01AF4F"/>
<path d="M9.83979 20.9665C10.2173 20.3038 10.5491 19.5131 10.8226 18.6137C10.3504 18.5348 9.8832 18.4286 9.42327 18.2958C8.28261 17.9661 7.2759 17.5019 6.40314 16.9032C5.57679 16.3358 4.94271 15.6627 4.50087 14.8839C4.06536 14.1299 3.8366 13.2743 3.8377 12.4036C3.8377 11.5906 4.08197 10.7928 4.5705 10.0101C5.05904 9.22737 5.73969 8.54071 6.61245 7.9501C7.45137 7.3827 8.4111 6.94926 9.49164 6.64976C9.92667 6.53024 10.3681 6.43529 10.8138 6.36536C10.7358 6.11033 10.6529 5.86326 10.565 5.62417C10.3647 5.0686 10.1182 4.53078 9.82805 4.01636C9.24141 4.10911 8.66017 4.23331 8.08686 4.38842C7.10137 4.65518 6.14564 5.02173 5.23451 5.48239L5.19257 5.50336L5.17872 5.51049L5.08099 5.56083L5.06086 5.57173L5.03778 5.58348C4.67411 5.77517 4.31966 5.97945 3.97738 6.20093C2.67481 7.06055 1.68628 8.01372 1.01178 9.06042C0.337288 10.1071 4.0001e-05 11.2138 4.0001e-05 12.3805C-0.00391217 13.5146 0.285059 14.6304 0.838966 15.62C1.39825 16.629 2.21844 17.5284 3.29953 18.3184C4.57917 19.2692 6.02464 19.9865 7.63593 20.4703C8.35897 20.6856 9.09587 20.8512 9.84147 20.9661" fill="#01AF4F"/>
<path d="M17.4459 16.6615C16.6867 17.352 15.7204 17.8795 14.547 18.2441C14.2886 18.3244 14.023 18.3953 13.7501 18.4568C13.7081 18.6452 13.6611 18.8343 13.6129 19.0252C13.4493 19.6691 13.2564 20.3771 12.9736 21.0755C14.5942 20.9077 16.0702 20.5582 17.4019 20.0269C19.3574 19.2483 20.89 18.1263 21.9996 16.6607L17.4459 16.6615Z" fill="#E8E8E8"/>
<path d="M17.5247 4.99162C16.1511 4.42702 14.6237 4.05888 12.9425 3.88718C13.0528 4.15563 13.1585 4.44506 13.2617 4.76092C13.4396 5.30622 13.5973 5.88592 13.7441 6.52266C14.0528 6.59187 14.3532 6.67115 14.6434 6.7626C15.8341 7.13843 16.8383 7.69842 17.656 8.44254H22C20.9958 6.95597 19.504 5.80566 17.5247 4.99162Z" fill="#E8E8E8"/>
</g>
<defs>
<clipPath id="clip0_306_148">
<rect width="22.0004" height="25" fill="white"/>
</clipPath>
</defs>
</svg>
