<svg width="18" height="22" viewBox="0 0 18 22" fill="none" xmlns="http://www.w3.org/2000/svg">
<path d="M17 8.176C17 12.9275 12.7333 17 9 17C5.26667 17 1 12.9275 1 8.176C1 4.327 4.14293 1 9 1C13.8571 1 17 4.327 17 8.176Z" stroke="#7A7A7A" stroke-width="1.5" stroke-linecap="round" stroke-linejoin="round"/>
<path d="M9.53333 1C11.5067 2.9095 13.2667 6.06 13.2667 9C13.2667 11.9035 11.464 15.096 9.53333 17" stroke="#7A7A7A" stroke-width="1.5" stroke-miterlimit="2" stroke-linecap="round" stroke-linejoin="round"/>
<path d="M8.46667 1C6.16427 3.0435 4.73334 5.853 4.73334 9C4.73334 12.1075 6.2144 14.962 8.46667 17" stroke="#7A7A7A" stroke-width="1.5" stroke-miterlimit="2" stroke-linecap="round" stroke-linejoin="round"/>
<path d="M7.93335 7.009C7.93335 7.009 10.6347 7.5175 12.7333 7.009C14.832 6.5 16.4667 5.5 16.4667 5.5" stroke="#7A7A7A" stroke-width="1.5" stroke-linecap="round" stroke-linejoin="round"/>
<path d="M1 9C1 9 3.66667 10.25 5.8 10.75C7.93333 11.25 10.0667 11 10.0667 11" stroke="#7A7A7A" stroke-width="1.5" stroke-linecap="round" stroke-linejoin="round"/>
<path d="M12.2 16.5L12.1968 16.515L12.2 16.5ZM12.1968 16.515L11.4533 20.0475C11.4533 20.0475 9.99999 21 8.99999 21C7.99999 21 6.54665 20.0475 6.54665 20.0475L5.79999 16.5L8.99999 17L12.1968 16.515Z" stroke="#7A7A7A" stroke-width="1.5" stroke-linecap="round" stroke-linejoin="round"/>
</svg>
