<svg width="20" height="20" viewBox="0 0 20 20" fill="none" xmlns="http://www.w3.org/2000/svg">
<path d="M10 0.75C11.1272 0.75 12.2082 1.19777 13.0052 1.9948L13.5226 1.4774L13.0052 1.9948C13.8022 2.79183 14.25 3.87283 14.25 5C14.25 6.12717 13.8022 7.20817 13.0052 8.0052C12.2082 8.80223 11.1272 9.25 10 9.25C8.87283 9.25 7.79183 8.80223 6.9948 8.0052C6.19777 7.20817 5.75 6.12717 5.75 5C5.75 3.87283 6.19777 2.79183 6.9948 1.9948C7.79183 1.19777 8.87283 0.75 10 0.75ZM10 13.25C12.6714 13.25 15.0517 13.7925 16.7365 14.6349C18.4658 15.4996 19.25 16.5557 19.25 17.5V19.25H0.75V17.5C0.75 16.5557 1.53415 15.4996 3.26354 14.6349C4.94825 13.7925 7.32859 13.25 10 13.25Z" stroke="#7A7A7A" stroke-width="1.5"/>
</svg>
