<svg width="20" height="17" viewBox="0 0 20 17" fill="none" xmlns="http://www.w3.org/2000/svg">
<path d="M14.3492 4.88828L10.7693 8.40759C10.3831 8.22157 9.9436 8.17805 9.52844 8.28472C9.11329 8.39139 8.7492 8.64137 8.50053 8.9905C8.25185 9.33963 8.1346 9.76543 8.16948 10.1926C8.20437 10.6199 8.38915 11.021 8.69117 11.3252C8.99319 11.6293 9.39301 11.8169 9.81997 11.8548C10.2469 11.8927 10.6735 11.7785 11.0244 11.5323C11.3753 11.2861 11.6279 10.9238 11.7375 10.5094C11.8471 10.095 11.8066 9.65521 11.6234 9.26773L15.2093 5.74842L14.3492 4.88828Z" fill="white"/>
<path d="M10 6.55808e-06C8.09358 -0.0021776 6.22636 0.541252 4.61885 1.56611C3.01135 2.59098 1.7307 4.05446 0.928169 5.78373C0.125636 7.513 -0.165263 9.43581 0.0898284 11.3251C0.34492 13.2144 1.13535 14.9912 2.36775 16.4457L2.54947 16.6577H17.4505L17.6322 16.4457C18.8647 14.9912 19.6551 13.2144 19.9102 11.3251C20.1653 9.43581 19.8744 7.513 19.0718 5.78373C18.2693 4.05446 16.9887 2.59098 15.3811 1.56611C13.7736 0.541252 11.9064 -0.0021776 10 6.55808e-06ZM16.869 15.4462H3.13098C2.0441 14.0862 1.38813 12.4325 1.24715 10.6973H3.33693V9.4858H1.24715C1.34859 7.56243 2.08334 5.72661 3.33693 4.26437L4.82098 5.74842L5.67506 4.89433L4.20313 3.40423C5.64675 2.12827 7.47198 1.36581 9.39427 1.2357V3.35577H10.6057V1.24176C12.7291 1.39575 14.7239 2.31731 16.2175 3.83438C17.7112 5.35144 18.6016 7.36028 18.7226 9.4858H16.6146V10.6973H18.7529C18.6119 12.4325 17.9559 14.0862 16.869 15.4462Z" fill="white"/>
</svg>
