<svg width="14" height="20" viewBox="0 0 14 20" fill="none" xmlns="http://www.w3.org/2000/svg">
<path d="M13.79 5.21429L8.89 0.214286C8.75 0.0714285 8.61 0 8.4 0H1.4C0.63 0 0 0.642857 0 1.42857V18.5714C0 19.3571 0.63 20 1.4 20H12.6C13.37 20 14 19.3571 14 18.5714V5.71429C14 5.5 13.93 5.35714 13.79 5.21429ZM8.4 1.71429L12.32 5.71429H8.4V1.71429ZM12.6 18.5714H1.4V1.42857H7V5.71429C7 6.5 7.63 7.14286 8.4 7.14286H12.6V18.5714Z" fill="#01AF4F"/>
<path d="M2.79999 14.2857H11.2V15.7143H2.79999V14.2857Z" fill="#01AF4F"/>
<path d="M2.79999 10H11.2V11.4286H2.79999V10Z" fill="#01AF4F"/>
</svg>
