<svg width="23" height="20" viewBox="0 0 23 20" fill="none" xmlns="http://www.w3.org/2000/svg">
<path d="M21.7486 13.19L21.745 13.1868C21.4921 12.9575 21.0516 12.9468 20.7307 13.2056L20.7291 13.2069L17.1203 16.0931C17.1202 16.0932 17.12 16.0934 17.1199 16.0935C16.5879 16.52 15.9261 16.7517 15.2443 16.75M21.7486 13.19L15.2449 16.25M21.7486 13.19C21.8306 13.263 21.8955 13.3526 21.9387 13.4522C21.9821 13.5524 22.0031 13.6609 22.0002 13.77C21.9974 13.8792 21.9707 13.9864 21.9221 14.0841C21.8736 14.1819 21.8042 14.2679 21.7189 14.3361L21.7189 14.3361L15.8117 19.0625M21.7486 13.19L15.8117 19.0625M15.2443 16.75C15.244 16.75 15.2438 16.75 15.2435 16.75L15.2449 16.25M15.2443 16.75H15.2449V16.25M15.2443 16.75H10.625C10.3266 16.75 10.0405 16.6315 9.8295 16.4205C9.61852 16.2095 9.5 15.9234 9.5 15.625C9.5 15.3266 9.61852 15.0405 9.8295 14.8295C10.0405 14.6185 10.3266 14.5 10.625 14.5H13.6832C14.0972 14.5 14.4342 14.2163 14.4884 13.8811L14.4894 13.8754L14.4894 13.8754C14.4966 13.8338 14.5002 13.7917 14.5 13.7496L14.5 13.7486C14.4996 13.5499 14.4204 13.3595 14.2798 13.2192C14.1392 13.0788 13.9487 13 13.75 13L7.50013 13L7.5 12.5M15.2449 16.25H10.625C10.4592 16.25 10.3003 16.1842 10.1831 16.0669C10.0658 15.9497 10 15.7908 10 15.625C10 15.4592 10.0658 15.3003 10.1831 15.1831C10.3003 15.0658 10.4592 15 10.625 15H13.6832C14.3043 15 14.8828 14.5742 14.982 13.9609C14.9943 13.8905 15.0003 13.8191 15 13.7477C14.9994 13.4165 14.8674 13.0992 14.6331 12.8653C14.3987 12.6314 14.0811 12.5 13.75 12.5H7.5M7.5 12.5C6.44594 12.5003 5.42401 12.8629 4.60547 13.527L2.78906 15H0.625C0.45924 15 0.300268 15.0658 0.183058 15.1831C0.065848 15.3003 0 15.4592 0 15.625V19.375C0 19.5408 0.065848 19.6997 0.183058 19.8169C0.300268 19.9342 0.45924 20 0.625 20H14.5613C15.1292 20.0004 15.6802 19.8076 16.1238 19.4531M7.5 12.5V13C6.56066 13.0003 5.64995 13.3234 4.92049 13.9152L4.92041 13.9153L3.104 15.3883L2.96632 15.5H2.78906H0.625C0.591847 15.5 0.560053 15.5132 0.536611 15.5366C0.51317 15.5601 0.5 15.5918 0.5 15.625V19.375C0.5 19.4082 0.51317 19.4399 0.536612 19.4634C0.560053 19.4868 0.591847 19.5 0.625 19.5H14.5613H14.5617C15.0159 19.5004 15.4566 19.3461 15.8115 19.0627M15.8115 19.0627L16.1238 19.4531M15.8115 19.0627C15.8115 19.0626 15.8116 19.0626 15.8117 19.0625M15.8115 19.0627L15.8117 19.0625M16.1238 19.4531L15.8117 19.0625M16.1238 19.4531L22.0312 14.7266C22.1733 14.6129 22.2889 14.4696 22.3699 14.3066C22.4509 14.1437 22.4953 13.965 22.5001 13.7831C22.5048 13.6012 22.4698 13.4204 22.3975 13.2535L15.8117 19.0625" stroke="#01AF4F"/>
<path d="M14.7435 6.36444C15.2064 6.36277 16.2185 6.35902 16.2068 5.71527C16.1956 5.05692 15.2235 5.09651 14.7497 5.11609C14.6968 5.11817 14.6497 5.12026 14.6114 5.12067L14.633 6.36527C14.6643 6.36444 14.7018 6.36444 14.7435 6.36444ZM14.6943 4.55067C15.0805 4.55025 15.9235 4.54942 15.9135 3.96399C15.9026 3.36523 15.093 3.40065 14.6976 3.41815C14.653 3.42024 14.6143 3.4219 14.5818 3.42232L14.6014 4.55108L14.6943 4.55067Z" fill="#01AF4F"/>
<path fill-rule="evenodd" clip-rule="evenodd" d="M13.7897 9.85034C16.4689 10.5183 19.1823 8.88783 19.8502 6.20946C20.5181 3.53067 18.8873 0.817304 16.2081 0.149796C13.5305 -0.518546 10.8172 1.11231 10.1497 3.79151C9.48174 6.46988 11.1122 9.18325 13.7901 9.85075L13.7897 9.85034ZM15.5739 2.75858C16.3047 2.81025 16.8864 3.02442 16.9627 3.69276C17.0193 4.18193 16.8193 4.47985 16.4947 4.65235C17.0364 4.77236 17.3802 5.08694 17.326 5.80695C17.2589 6.70071 16.5977 6.95197 15.6485 7.0228L15.6643 7.96031L15.0993 7.97073L15.0831 7.04572C14.9368 7.04822 14.7868 7.04988 14.6314 7.04905L14.6481 7.97823L14.083 7.98823L14.0664 7.04905L13.9068 7.0503C13.826 7.05072 13.7443 7.05113 13.6626 7.0528L12.9268 7.0653L13.0272 6.38863C13.0272 6.38863 13.4455 6.38779 13.438 6.38154C13.598 6.37821 13.6385 6.26279 13.6472 6.19029L13.6218 4.70819L13.6622 4.70735H13.6814C13.6615 4.70507 13.6414 4.7041 13.6214 4.70444L13.603 3.64609C13.5793 3.53192 13.5026 3.40025 13.2739 3.40442C13.2801 3.39609 12.863 3.4115 12.863 3.4115L12.8522 2.80816L13.6322 2.79483V2.79775C13.7493 2.79566 13.8697 2.7915 13.9918 2.78691L13.976 1.85815L14.541 1.84857L14.5568 2.75858C14.7076 2.75316 14.8593 2.74733 15.0081 2.74483L14.9922 1.84065L15.5576 1.83065L15.5739 2.75941V2.75858Z" fill="#01AF4F"/>
</svg>
