<svg width="20" height="20" viewBox="0 0 20 20" fill="none" xmlns="http://www.w3.org/2000/svg">
<path d="M17.7 5.22397C17.1233 5.47943 16.5117 5.64702 15.8854 5.72117C16.5451 5.32645 17.0387 4.70533 17.2744 3.97357C16.6543 4.34168 15.9758 4.60089 15.2682 4.73997C14.9726 4.42466 14.6153 4.17341 14.2186 4.00181C13.8219 3.83021 13.3942 3.74191 12.962 3.74237C11.2172 3.74237 9.80238 5.15677 9.80238 6.90197C9.80238 7.14937 9.83038 7.39077 9.88438 7.62217C7.25838 7.49037 4.93038 6.23237 3.37198 4.32057C3.09099 4.80279 2.94334 5.35107 2.94418 5.90917C2.94376 6.42937 3.07185 6.94162 3.31707 7.40041C3.56228 7.85919 3.91702 8.25029 4.34978 8.53897C3.84812 8.52304 3.35751 8.38755 2.91878 8.14377C2.91838 8.15697 2.91838 8.16997 2.91838 8.18357C2.91838 9.71397 4.00738 10.991 5.45258 11.2816C4.98723 11.4075 4.49932 11.426 4.02578 11.3356C4.42778 12.5906 5.59458 13.5044 6.97718 13.53C5.85796 14.4083 4.47588 14.8847 3.05318 14.8826C2.79818 14.8826 2.54678 14.8678 2.29938 14.8384C3.74404 15.7666 5.42541 16.2593 7.14258 16.2576C12.9542 16.2576 16.1322 11.4434 16.1322 7.26857C16.1322 7.13177 16.129 6.99517 16.123 6.85937C16.7419 6.41255 17.2759 5.85871 17.7 5.22397Z" fill="#01AF4F"/>
</svg>
