<svg width="20" height="20" viewBox="0 0 20 20" fill="none" xmlns="http://www.w3.org/2000/svg">
<g clip-path="url(#clip0_123_368)">
<path d="M19.5834 5.42249C19.4701 5.01852 19.2495 4.65278 18.945 4.36416C18.6319 4.06666 18.2482 3.85386 17.83 3.74583C16.265 3.33333 9.99502 3.33333 9.99502 3.33333C7.38113 3.30359 4.76788 3.43439 2.17003 3.72499C1.75185 3.841 1.36883 4.05856 1.05503 4.35833C0.746693 4.65499 0.523359 5.02083 0.406693 5.42166C0.126437 6.93145 -0.00973061 8.46445 2.6038e-05 9.99999C-0.00997396 11.5342 0.125859 13.0667 0.406693 14.5783C0.520859 14.9775 0.743359 15.3417 1.05253 15.6358C1.36169 15.93 1.74669 16.1425 2.17003 16.255C3.75586 16.6667 9.99502 16.6667 9.99502 16.6667C12.6122 16.6964 15.2288 16.5656 17.83 16.275C18.2482 16.167 18.6319 15.9542 18.945 15.6567C19.2494 15.3681 19.4697 15.0023 19.5825 14.5983C19.8701 13.0891 20.0099 11.5555 20 10.0192C20.0217 8.47633 19.882 6.93546 19.5834 5.42166V5.42249ZM8.00169 12.8533V7.14749L13.2184 10.0008L8.00169 12.8533Z" fill="white"/>
</g>
<defs>
<clipPath id="clip0_123_368">
<rect width="20" height="20" fill="white"/>
</clipPath>
</defs>
</svg>
