<svg width="20" height="20" viewBox="0 0 20 20" fill="none" xmlns="http://www.w3.org/2000/svg">
<path d="M17.7 5.224C17.1234 5.47946 16.5117 5.64705 15.8854 5.7212C16.5451 5.32648 17.0388 4.70536 17.2744 3.9736C16.6544 4.34171 15.9758 4.60093 15.2682 4.74C14.9726 4.42469 14.6154 4.17344 14.2187 4.00184C13.822 3.83024 13.3943 3.74194 12.962 3.7424C11.2172 3.7424 9.80244 5.1568 9.80244 6.902C9.80244 7.1494 9.83044 7.3908 9.88444 7.6222C7.25844 7.4904 4.93044 6.2324 3.37204 4.3206C3.09105 4.80282 2.9434 5.3511 2.94424 5.9092C2.94382 6.42941 3.07191 6.94166 3.31713 7.40044C3.56234 7.85922 3.91709 8.25032 4.34984 8.539C3.84818 8.52307 3.35758 8.38758 2.91884 8.1438C2.91844 8.157 2.91844 8.17 2.91844 8.1836C2.91844 9.714 4.00744 10.991 5.45264 11.2816C4.98729 11.4076 4.49938 11.426 4.02584 11.3356C4.42784 12.5906 5.59464 13.5044 6.97724 13.53C5.85802 14.4083 4.47594 14.8847 3.05324 14.8826C2.79824 14.8826 2.54684 14.8678 2.29944 14.8384C3.74411 15.7666 5.42547 16.2593 7.14264 16.2576C12.9542 16.2576 16.1322 11.4434 16.1322 7.2686C16.1322 7.1318 16.129 6.9952 16.123 6.8594C16.7419 6.41258 17.276 5.85874 17.7 5.224Z" fill="white"/>
</svg>
