<svg width="20" height="20" viewBox="0 0 20 20" fill="none" xmlns="http://www.w3.org/2000/svg">
<path d="M3.64332 6.05331C3.65353 5.95187 3.63986 5.84944 3.60339 5.75423C3.56693 5.65901 3.50868 5.57365 3.43332 5.50498L1.87666 3.61581V3.33331H6.70832L10.4433 11.5875L13.7267 3.33331H18.3333V3.61581L17.0025 4.89998C16.9461 4.94352 16.9026 5.00156 16.8766 5.0679C16.8506 5.13424 16.8432 5.20639 16.855 5.27665V14.7216C16.8432 14.7919 16.8506 14.8641 16.8766 14.9304C16.9026 14.9967 16.9461 15.0548 17.0025 15.0983L18.3025 16.3833V16.6666H11.7658V16.3841L13.1125 15.0675C13.245 14.9341 13.245 14.895 13.245 14.6916V7.05665L9.50166 16.635H8.99665L4.63832 7.05665V13.4766C4.60249 13.7458 4.69166 14.0183 4.87999 14.2133L6.63082 16.3533V16.635H1.66666V16.3533L3.41666 14.2133C3.50925 14.1167 3.57797 13.9998 3.61733 13.8719C3.65668 13.7439 3.66558 13.6086 3.64332 13.4766V6.05331Z" fill="#01AF4F"/>
</svg>
