<svg width="20" height="20" viewBox="0 0 20 20" fill="none" xmlns="http://www.w3.org/2000/svg">
<path d="M3.64329 6.05334C3.6535 5.9519 3.63983 5.84947 3.60336 5.75426C3.5669 5.65904 3.50865 5.57368 3.43329 5.50501L1.87663 3.61584V3.33334H6.70829L10.4433 11.5875L13.7266 3.33334H18.3333V3.61584L17.0025 4.90001C16.9461 4.94355 16.9026 5.00159 16.8766 5.06793C16.8506 5.13427 16.8431 5.20642 16.855 5.27668V14.7217C16.8431 14.7919 16.8506 14.8641 16.8766 14.9304C16.9026 14.9968 16.9461 15.0548 17.0025 15.0983L18.3025 16.3833V16.6667H11.7658V16.3842L13.1125 15.0675C13.245 14.9342 13.245 14.895 13.245 14.6917V7.05668L9.50163 16.635H8.99662L4.63829 7.05668V13.4767C4.60246 13.7458 4.69163 14.0183 4.87996 14.2133L6.63079 16.3533V16.635H1.66663V16.3533L3.41663 14.2133C3.50922 14.1167 3.57794 13.9998 3.61729 13.8719C3.65665 13.744 3.66555 13.6086 3.64329 13.4767V6.05334Z" fill="white"/>
</svg>
