<svg width="20" height="20" viewBox="0 0 20 20" fill="none" xmlns="http://www.w3.org/2000/svg">
<path fill-rule="evenodd" clip-rule="evenodd" d="M7.70574 2.10995C9.06216 1.96335 10.4317 1.96335 11.7881 2.10995L13.1758 2.25994C13.3746 2.28142 13.552 2.38831 13.6571 2.54992C13.7622 2.71154 13.7834 2.91002 13.7147 3.0884L11.7988 8.05797H13.8476C14.0616 8.05797 14.262 8.15765 14.3839 8.32471C14.5058 8.49176 14.5336 8.70495 14.4584 8.89521L14.2927 9.31417C13.1435 12.2208 11.5186 14.9371 9.47817 17.363L9.13832 17.7671C8.96536 17.9727 8.67444 18.0521 8.41288 17.9651C8.15131 17.8781 7.9762 17.6437 7.9762 17.3805V11.4727H6.39185C6.0539 11.4727 5.77189 11.2276 5.74202 10.908L5.63535 9.76665C5.45488 7.83557 5.45488 5.8931 5.63536 3.96201L5.74202 2.82069C5.76941 2.52758 6.01017 2.29321 6.31807 2.25994L7.70574 2.10995ZM11.6406 3.34098C10.3822 3.20497 9.11167 3.20497 7.8533 3.34098L6.99461 3.43379L6.93501 4.07153C6.76134 5.92975 6.76134 7.79892 6.93501 9.65713L6.98889 10.2337H8.62858C8.98888 10.2337 9.28096 10.5111 9.28096 10.8532V15.5652C10.7615 13.6305 11.9785 11.5244 12.9018 9.29695H10.8653C10.6522 9.29695 10.4526 9.19815 10.3306 9.03231C10.2085 8.86648 10.1794 8.65449 10.2527 8.4645L12.2044 3.40191L11.6406 3.34098Z" fill="white"/>
</svg>
