<svg width="25" height="20" viewBox="0 0 25 20" fill="none" xmlns="http://www.w3.org/2000/svg">
<path d="M9.03348 5.33333H8.3398C7.36831 5.33333 6.8822 5.33333 6.51114 5.47866C6.18475 5.60649 5.91958 5.81032 5.75327 6.0612C5.56421 6.34641 5.56421 6.72006 5.56421 7.4668V8M9.03348 5.33333H15.972M9.03348 5.33333V4M15.972 5.33333H16.6661C17.6375 5.33333 18.1226 5.33333 18.4937 5.47866C18.8201 5.60649 19.0861 5.81032 19.2524 6.0612C19.4413 6.34613 19.4413 6.71933 19.4413 7.46461V8M15.972 5.33333V4M5.56421 8V13.8668C5.56421 14.6135 5.56421 14.9867 5.75327 15.2719C5.91958 15.5228 6.18475 15.727 6.51114 15.8548C6.88184 16 7.36736 16 8.33695 16H16.6686C17.6382 16 18.123 16 18.4937 15.8548C18.8201 15.727 19.0861 15.5228 19.2524 15.2719C19.4413 14.987 19.4413 14.6143 19.4413 13.8691V8M5.56421 8H19.4413M15.972 13.3333H15.9738L15.9737 13.3347L15.972 13.3346V13.3333ZM12.5028 13.3333H12.5045L12.5045 13.3347L12.5028 13.3346V13.3333ZM9.03348 13.3333H9.03522L9.03518 13.3347L9.03348 13.3346V13.3333ZM15.9737 10.6667V10.668L15.972 10.668V10.6667H15.9737ZM12.5028 10.6667H12.5045L12.5045 10.668L12.5028 10.668V10.6667ZM9.03348 10.6667H9.03522L9.03518 10.668L9.03348 10.668V10.6667Z" stroke="white" stroke-width="1.5" stroke-linecap="round" stroke-linejoin="round"/>
</svg>
