<svg width="20" height="20" viewBox="0 0 20 20" fill="none" xmlns="http://www.w3.org/2000/svg">
<path d="M10 2C9.172 2 8.5 2.672 8.5 3.5C8.5 4.328 9.172 5 10 5C10.828 5 11.5 4.328 11.5 3.5C11.5 2.672 10.828 2 10 2ZM8.5 6.5C7.672 6.5 7 7.172 7 8C7 8.723 7.53852 9.26298 8.21802 9.40698L7.32849 13.718C6.98049 15.4595 8.2255 17 10 17H11.5C12.328 17 13 16.328 13 15.5C13 14.672 12.328 14 11.5 14H10.3285L11.4535 8.28198C11.6395 7.35348 10.9465 6.5 10 6.5C9.811 6.5 8.743 6.5 8.5 6.5Z" fill="white" stroke="url(#paint0_linear_1242_4217)" stroke-linecap="round" stroke-linejoin="round"/>
<defs>
<linearGradient id="paint0_linear_1242_4217" x1="10" y1="1.5" x2="10" y2="17.5" gradientUnits="userSpaceOnUse">
<stop stop-color="#3F9DD2"/>
<stop offset="1" stop-color="#52A9DA"/>
</linearGradient>
</defs>
</svg>
