<svg width="264" height="59" viewBox="0 0 264 59" fill="none" xmlns="http://www.w3.org/2000/svg">
<path d="M19.6103 21.74L19.6503 21.66C20.1836 23.98 20.4636 25.2067 20.4903 25.34C20.517 25.4467 20.597 25.66 20.7303 25.98L20.8503 26.26C21.197 27.14 21.5836 27.8333 22.0103 28.34C22.437 28.82 23.1303 29.14 24.0903 29.3C24.197 29.3 24.317 29.3133 24.4503 29.34C24.6103 29.3667 24.8503 29.38 25.1703 29.38C26.5303 29.38 28.0103 28.7267 29.6103 27.42C29.877 27.2067 30.1036 26.9667 30.2903 26.7C30.557 26.22 30.8103 25.8867 31.0503 25.7C31.477 25.4067 31.7036 25.1133 31.7303 24.82C31.757 24.5267 31.8503 24.26 32.0103 24.02C32.197 23.78 32.357 23.5133 32.4903 23.22C32.6236 22.9267 32.797 22.6733 33.0103 22.46C33.357 22.22 33.557 21.7133 33.6103 20.94C33.637 20.7 33.8103 20.22 34.1303 19.5C34.2636 19.2333 34.3703 18.98 34.4503 18.74C34.557 18.4733 34.6103 18.22 34.6103 17.98C34.6103 17.74 34.6636 17.4333 34.7703 17.06C34.9036 16.6867 34.9703 16.22 34.9703 15.66C34.9703 15.1 34.8636 14.5 34.6503 13.86C34.4636 13.22 34.2236 12.7 33.9303 12.3C33.557 11.74 33.1303 11.38 32.6503 11.22C32.1703 11.0333 31.6503 10.9133 31.0903 10.86C29.4636 10.86 28.3303 11.1933 27.6903 11.86C27.237 12.2867 26.8236 12.5533 26.4503 12.66C25.8103 12.82 25.2503 13.26 24.7703 13.98L24.6903 14.1C24.5303 14.26 24.4103 14.5133 24.3303 14.86L24.1703 15.46C24.0903 15.86 23.9436 16.2067 23.7303 16.5C23.5703 16.66 23.4903 16.8333 23.4903 17.02C23.4903 17.1267 23.5036 17.2333 23.5303 17.34C23.557 17.42 23.5703 17.5 23.5703 17.58L23.5303 17.9C23.5303 18.1133 23.6503 18.26 23.8903 18.34C24.157 18.42 24.357 18.5533 24.4903 18.74C24.6236 18.9 24.6903 19.1133 24.6903 19.38C24.6903 19.78 24.4236 20.14 23.8903 20.46C23.677 20.5667 23.4636 20.62 23.2503 20.62C22.2903 20.62 21.717 19.9267 21.5303 18.54C21.4503 18.0867 21.4103 17.7267 21.4103 17.46C21.4103 17.2467 21.4636 17.1267 21.5703 17.1C21.677 17.0467 21.757 16.9533 21.8103 16.82C21.8903 16.6867 22.0103 16.3267 22.1703 15.74L22.4103 15.1C22.6236 14.38 22.9703 13.9133 23.4503 13.7C23.5303 13.6467 23.6236 13.5933 23.7303 13.54C23.837 13.4867 24.0236 13.2467 24.2903 12.82C24.557 12.3933 24.9303 12.0467 25.4103 11.78L26.0103 11.38C26.677 10.8467 27.3036 10.5 27.8903 10.34L28.0903 10.3C28.9703 10.0067 29.9036 9.86 30.8903 9.86C31.6636 9.86 32.4236 9.96667 33.1703 10.18C33.9436 10.3667 34.5303 10.62 34.9303 10.94L35.1703 11.14C36.8236 12.3933 37.6503 14.3267 37.6503 16.94C37.6503 17.66 37.5703 18.26 37.4103 18.74L37.2903 19.38C37.2103 19.7533 37.1703 20.0467 37.1703 20.26C37.1703 20.4733 37.157 20.66 37.1303 20.82C37.1036 20.9533 37.0103 21.1133 36.8503 21.3C36.637 21.62 36.5036 22.0067 36.4503 22.46C36.317 23.1 36.0636 23.58 35.6903 23.9C35.3436 24.1933 35.1436 24.4733 35.0903 24.74C35.037 25.0067 34.9036 25.18 34.6903 25.26C34.5036 25.34 34.3303 25.5267 34.1703 25.82L33.4903 26.78C33.037 27.5 32.437 28.0067 31.6903 28.3C31.557 28.38 31.4236 28.5 31.2903 28.66C31.157 28.82 30.997 28.9267 30.8103 28.98C30.6503 29.0067 30.3836 29.1133 30.0103 29.3C28.3836 30.0467 26.757 30.42 25.1303 30.42C23.2903 30.42 21.7436 30.0333 20.4903 29.26C19.5036 28.6733 18.957 28.26 18.8503 28.02C18.7703 27.8333 18.557 27.46 18.2103 26.9C18.2103 26.9267 18.197 26.9533 18.1703 26.98C18.0103 27.1667 17.9303 27.34 17.9303 27.5C17.9303 27.58 17.9436 27.6467 17.9703 27.7C17.997 27.7533 18.0103 27.8733 18.0103 28.06L17.9303 28.5C17.717 28.9 17.5703 29.42 17.4903 30.06C17.357 30.86 17.2503 31.4067 17.1703 31.7C17.0636 32.1267 17.0103 32.46 17.0103 32.7C16.9836 33.26 16.9303 33.82 16.8503 34.38C16.7703 34.9133 16.717 35.42 16.6903 35.9V36.3C16.6903 36.5667 16.6636 36.8067 16.6103 37.02C16.6103 37.1 16.6236 37.1933 16.6503 37.3C16.677 37.4333 16.6903 37.6067 16.6903 37.82L16.6503 38.26L16.9703 38.74C17.317 39.46 17.9436 39.82 18.8503 39.82C19.2503 39.82 19.5836 39.6867 19.8503 39.42C20.0103 39.26 20.1836 39.18 20.3703 39.18C20.4236 39.18 20.477 39.1933 20.5303 39.22C20.5836 39.2467 20.6236 39.26 20.6503 39.26C20.757 39.3667 20.8103 39.5 20.8103 39.66C20.8103 40.2733 19.8903 40.58 18.0503 40.58C17.4903 40.58 16.9303 40.4867 16.3703 40.3L16.2103 40.34L16.2903 40.26L16.2503 40.22C15.5303 39.8733 15.117 39.5533 15.0103 39.26C14.957 39.1 14.877 38.9533 14.7703 38.82C14.6636 38.6867 14.517 38.5133 14.3303 38.3C14.1703 38.1133 14.0903 37.9133 14.0903 37.7L14.0503 37.34L14.0903 37.14C13.957 36.7933 13.8903 36.4467 13.8903 36.1C13.917 35.4867 13.9703 34.86 14.0503 34.22C14.157 33.5533 14.2103 32.9133 14.2103 32.3C14.2103 31.8467 14.5303 30.3133 15.1703 27.7L15.3703 26.82C15.4503 26.26 15.597 25.6867 15.8103 25.1C15.9436 24.78 16.0503 24.4467 16.1303 24.1L16.2903 23.3C16.397 22.66 16.5836 21.9267 16.8503 21.1C16.9036 20.86 16.9436 20.7267 16.9703 20.7C17.2636 19.58 17.477 18.8733 17.6103 18.58C17.7436 18.26 17.8636 18.02 17.9703 17.86V17.94L18.2503 16.98C17.717 14.6867 17.437 13.4733 17.4103 13.34C17.3836 13.2067 17.2903 12.94 17.1303 12.54C16.7303 11.5533 16.317 10.82 15.8903 10.34C15.4636 9.83333 14.7703 9.5 13.8103 9.34C13.7036 9.34 13.5703 9.32667 13.4103 9.3C13.2503 9.27333 13.0236 9.26 12.7303 9.26C11.3703 9.26 9.87698 9.91333 8.25031 11.22C8.01031 11.4333 7.79698 11.6733 7.61031 11.94C7.31698 12.4467 7.06365 12.78 6.85031 12.94C6.42365 13.2333 6.18365 13.5267 6.13031 13.82C6.10365 14.1133 5.99698 14.38 5.81031 14.62C5.65031 14.86 5.50365 15.1267 5.37031 15.42C5.26365 15.7133 5.10365 15.9667 4.89031 16.18C4.54365 16.4467 4.34365 16.9533 4.29031 17.7C4.23698 17.9667 4.06365 18.46 3.77031 19.18C3.63698 19.42 3.51698 19.6733 3.41031 19.94C3.33031 20.18 3.29031 20.42 3.29031 20.66C3.29031 20.9 3.22365 21.22 3.09031 21.62C2.98365 21.9933 2.93031 22.4467 2.93031 22.98C2.93031 23.54 3.02365 24.14 3.21031 24.78C3.42365 25.42 3.66365 25.94 3.93031 26.34C4.33031 26.9 4.77031 27.2733 5.25031 27.46C5.73031 27.62 6.25031 27.74 6.81031 27.82C8.43698 27.82 9.55698 27.4733 10.1703 26.78C10.6503 26.3533 11.077 26.0867 11.4503 25.98C12.0903 25.82 12.6636 25.3667 13.1703 24.62C13.3303 24.4333 13.4636 24.1533 13.5703 23.78C13.7036 23.06 13.9036 22.5267 14.1703 22.18C14.3303 21.9933 14.4103 21.8067 14.4103 21.62C14.4103 21.5133 14.397 21.42 14.3703 21.34C14.3436 21.2333 14.3303 21.1533 14.3303 21.1L14.3703 20.74C14.3703 20.5533 14.237 20.42 13.9703 20.34C13.7303 20.2333 13.5303 20.1 13.3703 19.94C13.237 19.7533 13.1703 19.5267 13.1703 19.26C13.1703 18.86 13.437 18.5 13.9703 18.18C14.2103 18.0733 14.437 18.02 14.6503 18.02C15.877 18.02 16.4903 19.0733 16.4903 21.18C16.4903 21.42 16.4236 21.5533 16.2903 21.58C16.157 21.6067 15.9303 22.1533 15.6103 23.22C15.317 24.1533 14.9303 24.7267 14.4503 24.94C14.3703 24.9933 14.2636 25.06 14.1303 25.14C14.0236 25.1933 13.837 25.4333 13.5703 25.86C13.3036 26.2867 12.8503 26.6867 12.2103 27.06C10.717 28.2067 8.98365 28.78 7.01031 28.78C5.17031 28.78 3.74365 28.3533 2.73031 27.5C1.07698 26.2733 0.250312 24.34 0.250312 21.7C0.250312 20.98 0.356979 20.2733 0.570312 19.58C0.676979 19.02 0.730312 18.6333 0.730312 18.42C0.730312 17.9933 0.836979 17.6333 1.05031 17.34C1.26365 17.02 1.39698 16.6333 1.45031 16.18C1.58365 15.54 1.83698 15.0733 2.21031 14.78C2.55698 14.46 2.74365 14.18 2.77031 13.94C2.82365 13.6733 2.95698 13.5 3.17031 13.42C3.38365 13.3133 3.58365 13.1133 3.77031 12.82C3.98365 12.5 4.19698 12.18 4.41031 11.86C4.86365 11.14 5.46365 10.6333 6.21031 10.34C6.31698 10.26 6.43698 10.14 6.57031 9.98C6.73031 9.82 6.89031 9.72667 7.05031 9.7C7.23698 9.67333 7.51698 9.55333 7.89031 9.34C9.51698 8.59333 11.1436 8.22 12.7703 8.22C14.6103 8.22 16.157 8.60667 17.4103 9.38C18.3703 9.99333 18.9036 10.42 19.0103 10.66C19.1436 10.8733 19.4503 11.3667 19.9303 12.14L20.0103 12.3C20.5703 10.9133 21.1703 9.58 21.8103 8.3C21.8903 8.14 22.0103 7.99333 22.1703 7.86C22.437 7.54 22.6103 7.20666 22.6903 6.86C22.7703 6.48666 22.9436 6.22 23.2103 6.06C23.3436 5.98 23.4503 5.87333 23.5303 5.74C24.437 4.40666 25.5036 3.27333 26.7303 2.34C28.1436 1.32667 29.2103 0.819999 29.9303 0.819999C30.3303 0.819999 30.637 0.966666 30.8503 1.26C30.957 1.36667 31.0103 1.52667 31.0103 1.74C31.0103 1.84666 30.9703 1.95333 30.8903 2.06C30.837 2.16666 30.637 2.22 30.2903 2.22H30.0503C29.357 2.22 28.7036 2.48667 28.0903 3.02L27.8503 3.22C26.8903 3.94 26.0903 4.87333 25.4503 6.02L25.1703 6.34C24.8236 6.76667 24.637 7.11333 24.6103 7.38C24.477 7.88666 24.3036 8.18 24.0903 8.26C23.9036 8.34 23.8103 8.47333 23.8103 8.66C23.8103 8.82 23.7836 8.99333 23.7303 9.18C23.677 9.36666 23.6503 9.48666 23.6503 9.54C23.437 9.91333 23.277 10.2467 23.1703 10.54C23.117 10.6733 23.037 10.7933 22.9303 10.9C22.8236 11.0067 22.7703 11.1533 22.7703 11.34C22.7703 11.82 22.717 12.1133 22.6103 12.22C22.237 12.8867 21.997 13.58 21.8903 14.3C21.8103 14.8067 21.6503 15.34 21.4103 15.9C21.277 16.2467 21.117 16.5 20.9303 16.66C20.7436 16.82 20.6503 17.1533 20.6503 17.66C20.6503 18.0867 20.6236 18.3533 20.5703 18.46C20.0903 19.7933 19.7703 20.8867 19.6103 21.74ZM38.8506 37.1C37.9706 37.1 37.5306 36.58 37.5306 35.54C37.5306 34.58 37.7973 33.5 38.3306 32.3C38.5173 31.8733 38.6773 31.4467 38.8106 31.02C38.944 30.5667 39.1973 29.9533 39.5706 29.18C39.704 28.9133 39.824 28.66 39.9306 28.42C40.064 28.1533 40.1306 27.9133 40.1306 27.7C40.1306 27.5133 40.0906 27.42 40.0106 27.42C39.8506 27.42 39.664 27.5533 39.4506 27.82C38.6506 28.7533 37.784 29.7 36.8506 30.66C36.6906 30.9 36.424 31.02 36.0506 31.02C35.864 31.02 35.7706 30.9533 35.7706 30.82C35.7706 30.74 35.784 30.6867 35.8106 30.66C35.9706 30.34 36.1573 30.1133 36.3706 29.98C36.584 29.82 36.744 29.6333 36.8506 29.42C36.984 29.2067 37.0906 29.0867 37.1706 29.06C37.2506 29.0333 37.424 28.9 37.6906 28.66C37.9573 28.3933 38.1173 28.22 38.1706 28.14C38.2506 28.06 38.2906 27.9933 38.2906 27.94C38.2906 27.86 38.3973 27.7133 38.6106 27.5C38.744 27.3667 38.864 27.2333 38.9706 27.1C39.0773 26.94 39.2506 26.7533 39.4906 26.54C39.864 26.2467 40.1173 25.9133 40.2506 25.54C40.3306 25.3267 40.424 25.1133 40.5306 24.9C40.664 24.66 40.984 24.4733 41.4906 24.34C41.7306 24.26 41.9973 24.14 42.2906 23.98C42.6373 23.7133 43.024 23.5133 43.4506 23.38C43.664 23.38 43.8373 23.42 43.9706 23.5C44.104 23.58 44.1973 23.6733 44.2506 23.78C44.304 23.86 44.3306 23.9667 44.3306 24.1C44.3306 24.3667 44.2506 24.6067 44.0906 24.82C44.0106 25.06 43.9706 25.3533 43.9706 25.7C43.9706 25.94 43.7973 26.3 43.4506 26.78C43.184 27.2333 43.0506 27.5 43.0506 27.58C43.0506 27.6333 43.0373 27.6867 43.0106 27.74C42.984 27.7933 42.944 27.8467 42.8906 27.9C42.864 27.9533 42.8373 28.0333 42.8106 28.14C42.784 28.22 42.7706 28.34 42.7706 28.5C42.7706 28.66 42.7173 28.82 42.6106 28.98C42.0506 29.86 41.504 31.1533 40.9706 32.86C40.7573 33.5533 40.6506 34.0333 40.6506 34.3C40.704 34.5133 40.8906 34.62 41.2106 34.62C41.6106 34.62 42.0773 34.4067 42.6106 33.98C43.2773 33.4733 43.6373 33.1267 43.6906 32.94C43.744 32.7533 43.9573 32.58 44.3306 32.42C44.864 32.0733 45.1973 31.78 45.3306 31.54C45.4106 31.4333 45.504 31.34 45.6106 31.26C45.7173 31.18 45.824 31.1 45.9306 31.02C46.144 30.9133 46.424 30.6867 46.7706 30.34C47.0106 30.1533 47.2106 29.94 47.3706 29.7C47.5573 29.46 47.7706 29.2333 48.0106 29.02C48.464 28.5667 48.8106 28.1 49.0506 27.62C49.3706 27.0333 49.7173 26.58 50.0906 26.26C50.4106 26.02 50.704 25.66 50.9706 25.18C51.1573 24.7267 51.3973 24.46 51.6906 24.38C51.744 24.38 51.8106 24.3533 51.8906 24.3C51.9973 24.22 52.1306 24.18 52.2906 24.18C52.3706 24.18 52.424 24.1933 52.4506 24.22C52.9573 24.54 53.2106 25.0733 53.2106 25.82C53.2106 26.0067 53.1973 26.1133 53.1706 26.14C52.9306 26.4867 52.7173 26.8867 52.5306 27.34C52.3706 27.7933 52.1706 28.1667 51.9306 28.46C51.4773 29.0733 51.1306 29.9933 50.8906 31.22C50.8106 31.5667 50.7173 31.8867 50.6106 32.18C50.5306 32.4733 50.4906 32.8067 50.4906 33.18C50.4906 33.9267 50.704 34.4867 51.1306 34.86C51.1573 34.86 51.1973 34.8733 51.2506 34.9C51.304 34.9267 51.3573 34.94 51.4106 34.94C51.704 34.94 52.0373 34.8333 52.4106 34.62C53.264 34.14 54.4906 33.06 56.0906 31.38L56.3706 31.1C56.7973 30.54 57.1573 30.26 57.4506 30.26L57.7306 30.3C57.864 30.3267 57.9306 30.3933 57.9306 30.5L57.8906 30.58C57.784 30.9 57.4906 31.2467 57.0106 31.62C56.8773 31.6733 56.5973 31.9133 56.1706 32.34C56.0106 32.5 55.9173 32.62 55.8906 32.7C55.864 32.7533 55.8373 32.8333 55.8106 32.94C55.784 33.0467 55.6373 33.1533 55.3706 33.26C54.944 33.4467 54.6373 33.7267 54.4506 34.1C54.3173 34.34 54.184 34.5 54.0506 34.58C53.9173 34.6333 53.784 34.7 53.6506 34.78C53.5173 34.8333 53.3973 34.9133 53.2906 35.02C53.0773 35.2867 52.8106 35.4467 52.4906 35.5L52.2106 35.62C51.8906 35.94 51.5573 36.1533 51.2106 36.26C50.944 36.34 50.6106 36.38 50.2106 36.38C49.9706 36.38 49.7973 36.3533 49.6906 36.3C49.6106 36.2467 49.544 36.18 49.4906 36.1C49.384 35.8867 49.1706 35.7533 48.8506 35.7C48.5306 35.62 48.3173 35.4867 48.2106 35.3C47.8906 34.7667 47.7306 34.18 47.7306 33.54C47.7306 32.8467 47.8506 32.1667 48.0906 31.5C48.1706 31.18 48.224 30.8067 48.2506 30.38C48.2506 30.2733 48.224 30.22 48.1706 30.22L48.0106 30.26C47.584 30.66 47.1306 31.0333 46.6506 31.38C46.1973 31.7 45.9306 31.9533 45.8506 32.14C45.664 32.4067 45.4506 32.58 45.2106 32.66C44.9973 32.74 44.6506 33.0467 44.1706 33.58C44.0106 33.7667 43.824 33.94 43.6106 34.1C43.424 34.26 43.1973 34.4733 42.9306 34.74C42.664 34.98 42.344 35.22 41.9706 35.46C41.5973 35.7 41.2906 35.9533 41.0506 36.22C40.8106 36.46 40.5173 36.6867 40.1706 36.9L39.9706 36.98C39.9173 36.98 39.8773 36.9667 39.8506 36.94H39.6906C39.3706 37.0467 39.0906 37.1 38.8506 37.1ZM68.0066 24.98C68.0599 25.0867 68.0866 25.22 68.0866 25.38C68.0866 25.7533 67.8866 26.2467 67.4866 26.86L66.5666 28.5L65.7666 30.42C65.7132 30.6067 65.6732 30.78 65.6466 30.94C65.6466 31.0733 65.6066 31.2467 65.5266 31.46C65.4732 31.6467 65.4199 31.8733 65.3666 32.14C65.2599 32.7267 65.1266 33.1 64.9666 33.26C64.8066 33.42 64.7266 33.7 64.7266 34.1C64.6466 34.3933 64.6066 34.6867 64.6066 34.98C64.6066 35.14 64.6199 35.2333 64.6466 35.26C64.6732 35.5 64.8599 35.62 65.2066 35.62C65.4199 35.62 65.5666 35.5933 65.6466 35.54C65.7532 35.4867 65.8732 35.4333 66.0066 35.38C66.1666 35.3267 66.3532 35.2467 66.5666 35.14L66.7266 34.9L67.2066 34.62C67.6866 34.4067 68.0466 34.1267 68.2866 33.78C68.5266 33.4067 68.6999 33.2067 68.8066 33.18C68.9132 33.1267 68.9932 33.0733 69.0466 33.02C69.3666 32.7533 69.6066 32.4867 69.7666 32.22C69.8466 32.14 69.9666 32.0467 70.1266 31.94C70.4199 31.7533 70.7532 31.4333 71.1266 30.98C71.6332 30.3667 71.9666 30.06 72.1266 30.06C72.4466 30.06 72.6066 30.1933 72.6066 30.46C72.6066 30.5667 72.5132 30.7533 72.3266 31.02C72.0066 31.4467 71.7532 31.7 71.5666 31.78L71.2866 31.86L70.9266 32.26C70.6866 32.6067 70.2599 32.9933 69.6466 33.42C69.0332 33.8467 68.4866 34.3667 68.0066 34.98C67.9532 35.0067 67.8599 35.02 67.7266 35.02C67.6199 35.02 67.4732 35.1533 67.2866 35.42L67.0466 35.7C66.7799 35.9133 66.2332 36.1667 65.4066 36.46C64.7932 36.6733 64.3399 36.78 64.0466 36.78L63.8466 36.74C63.1266 36.6067 62.6066 36.3 62.2866 35.82C62.1799 35.66 62.1266 35.2867 62.1266 34.7C62.1266 34.3 62.1532 33.98 62.2066 33.74C62.2866 33.4733 62.3532 33.2067 62.4066 32.94C62.7266 31.6067 63.1399 30.3533 63.6466 29.18L64.1266 27.98C64.4732 27.2867 64.7266 26.7 64.8866 26.22C65.0466 25.7133 65.2332 25.34 65.4466 25.1L65.5266 24.98C65.4732 24.82 65.2866 24.74 64.9666 24.74C64.7799 24.74 64.6466 24.7667 64.5666 24.82L63.6066 25.22L63.4466 25.46C63.2866 25.5667 63.1266 25.6467 62.9666 25.7C62.4866 25.94 62.1266 26.26 61.8866 26.66C61.6199 26.98 61.4332 27.1667 61.3266 27.22C61.2466 27.2467 61.1799 27.2867 61.1266 27.34C60.8066 27.6067 60.5666 27.8733 60.4066 28.14C60.3266 28.22 60.2066 28.3133 60.0466 28.42C59.7799 28.58 59.4466 28.9 59.0466 29.38C58.5666 29.9933 58.2332 30.3 58.0466 30.3C57.7266 30.3 57.5666 30.14 57.5666 29.82C57.5666 29.7667 57.6732 29.6067 57.8866 29.34C58.1799 28.9133 58.4199 28.66 58.6066 28.58L58.8866 28.5C59.0199 28.3667 59.1399 28.22 59.2466 28.06C59.5399 27.6867 59.9399 27.3267 60.4466 26.98C60.9532 26.6067 61.4199 26.2067 61.8466 25.78C62.0866 25.4867 62.2199 25.34 62.2466 25.34C62.2732 25.3133 62.3399 25.3 62.4466 25.3C62.5532 25.3 62.6999 25.18 62.8866 24.94L63.1266 24.66C63.3132 24.5 63.7666 24.2867 64.4866 24.02C64.5132 23.9933 64.5399 23.98 64.5666 23.98C64.6199 23.9533 64.6866 23.9267 64.7666 23.9C64.9532 23.8467 65.1666 23.78 65.4066 23.7C65.6732 23.62 65.9532 23.58 66.2466 23.58C66.2466 23.6067 66.2732 23.62 66.3266 23.62C66.4066 23.62 66.4732 23.6333 66.5266 23.66C66.6332 23.6067 66.7532 23.58 66.8866 23.58C67.0466 23.58 67.2066 23.6333 67.3666 23.74C67.5266 23.8467 67.6199 23.9933 67.6466 24.18V24.26C67.7266 24.34 67.8066 24.4333 67.8866 24.54C67.9399 24.62 67.9799 24.7667 68.0066 24.98ZM67.5434 58.58H66.7834C66.4634 58.5533 66.1301 58.4867 65.7834 58.38C65.0901 58.1667 64.7434 57.9133 64.7434 57.62C64.7434 57.4067 64.8101 57.2467 64.9434 57.14C65.0768 57.0333 65.2368 56.98 65.4234 56.98C65.7434 56.98 65.9301 57.0867 65.9834 57.3C66.2768 57.7533 66.7434 57.98 67.3834 57.98C67.6768 57.98 68.0101 57.94 68.3834 57.86C69.1834 57.6733 69.8768 57.38 70.4634 56.98C71.0234 56.6067 71.6901 55.98 72.4634 55.1L72.9034 54.74C73.2234 54.58 73.4901 54.3267 73.7034 53.98C74.1834 53.2067 74.6901 52.54 75.2234 51.98C75.8901 51.2867 76.5568 50.3133 77.2234 49.06L77.7434 48.14C78.0368 47.58 78.2901 47.0467 78.5034 46.54C78.7701 45.9 79.1034 45.22 79.5034 44.5L79.8634 44.06C79.8634 44.0333 79.8501 44.02 79.8234 44.02C79.8234 44.02 79.8234 43.98 79.8234 43.9C79.8234 43.8467 79.8368 43.8067 79.8634 43.78L80.1034 43.3C80.3434 42.7667 80.4634 42.3933 80.4634 42.18L80.5034 42.02C80.9301 41.22 81.2501 40.4867 81.4634 39.82C81.5701 39.5267 81.6901 39.1933 81.8234 38.82C81.9834 38.4733 82.1034 38.0867 82.1834 37.66C82.2368 37.3667 82.3034 37.0867 82.3834 36.82C82.5968 36.26 82.7568 35.6867 82.8634 35.1C82.9701 34.5133 83.1834 33.74 83.5034 32.78C83.8234 31.82 83.9834 31.2733 83.9834 31.14C84.0101 31.0067 84.0368 30.9 84.0634 30.82L84.2234 30.18C84.0634 30.2067 83.9168 30.3133 83.7834 30.5C83.6501 30.66 83.4901 30.8067 83.3034 30.94C83.0368 31.18 82.8234 31.4067 82.6634 31.62C82.3968 32.02 82.0901 32.3133 81.7434 32.5C81.6634 32.5533 81.5568 32.62 81.4234 32.7C81.2901 32.7533 81.1834 32.86 81.1034 33.02C81.0234 33.1533 80.7034 33.4733 80.1434 33.98C79.9034 34.14 79.6234 34.3533 79.3034 34.62C79.0101 34.86 78.7434 35.06 78.5034 35.22L78.1834 35.5C77.9968 35.6333 77.8101 35.7667 77.6234 35.9C77.4634 36.0333 76.9701 36.2867 76.1434 36.66C75.7168 36.9 75.1834 37.02 74.5434 37.02C74.4901 37.02 74.4101 36.98 74.3034 36.9C73.8501 36.5 73.6234 36.02 73.6234 35.46C73.5968 35.4067 73.5834 35.3267 73.5834 35.22L73.6634 34.74C73.7701 34.0467 73.9834 33.2733 74.3034 32.42C74.6234 31.54 74.8901 30.9267 75.1034 30.58C75.1568 30.4733 75.2101 30.3267 75.2634 30.14C75.3434 29.9267 75.4234 29.74 75.5034 29.58C75.7434 29.2067 75.8901 28.82 75.9434 28.42C75.9701 28.18 76.0368 27.9133 76.1434 27.62C76.1434 27.5667 76.0768 27.54 75.9434 27.54C75.8368 27.5133 75.7834 27.4733 75.7834 27.42C75.4634 27.82 74.9701 28.3133 74.3034 28.9C74.1168 29.06 73.9568 29.2333 73.8234 29.42C73.6101 29.74 73.3434 30.02 73.0234 30.26C72.8901 30.34 72.6901 30.5267 72.4234 30.82C72.1834 31.1133 71.9434 31.26 71.7034 31.26C71.5434 31.26 71.4634 31.18 71.4634 31.02L71.5434 30.78C71.6234 30.6467 71.7168 30.5533 71.8234 30.5C71.9301 30.42 72.0368 30.3 72.1434 30.14L72.2634 30.02C72.5301 29.7267 72.7034 29.5667 72.7834 29.54C72.9168 29.3533 73.1034 29.1667 73.3434 28.98L73.7034 28.62C73.9701 28.2467 74.1568 28.0067 74.2634 27.9C74.4501 27.66 74.6634 27.4333 74.9034 27.22C75.1701 26.98 75.5301 26.6067 75.9834 26.1C76.1434 25.8867 76.2368 25.74 76.2634 25.66C76.3168 25.58 76.4768 25.4067 76.7434 25.14L76.9034 24.9C77.0634 24.6067 77.2101 24.4467 77.3434 24.42C77.5034 24.3667 77.6234 24.3133 77.7034 24.26C77.8101 24.18 77.8634 24.1267 77.8634 24.1C77.8634 24.0733 77.8634 24.0467 77.8634 24.02C78.2368 23.5667 78.5301 23.34 78.7434 23.34C78.9034 23.34 79.0368 23.4067 79.1434 23.54C79.2501 23.6733 79.3301 23.8067 79.3834 23.94C79.4368 24.0467 79.4768 24.1133 79.5034 24.14C79.6368 24.54 79.7034 24.9 79.7034 25.22C79.7034 25.5667 79.6234 25.9533 79.4634 26.38C79.1968 26.86 78.9701 27.3533 78.7834 27.86L78.3434 28.86C78.3168 28.94 78.2234 29.0333 78.0634 29.14L77.9434 29.22L78.0234 29.58C77.5701 30.62 77.3301 31.22 77.3034 31.38C77.3034 31.5133 77.2368 31.66 77.1034 31.82C76.9968 31.9533 76.8901 32.1667 76.7834 32.46C76.6234 33.0467 76.5434 33.5667 76.5434 34.02C76.5434 34.3667 76.6234 34.58 76.7834 34.66C76.9701 34.7133 77.1168 34.74 77.2234 34.74C77.5168 34.74 77.7568 34.6467 77.9434 34.46L79.0234 33.7C79.3434 33.3267 79.6901 33.02 80.0634 32.78C80.5434 32.4333 81.2368 31.7667 82.1434 30.78L82.9834 29.9C83.8101 28.9933 84.6234 28.02 85.4234 26.98C85.7434 26.5 86.0368 25.9 86.3034 25.18C86.8101 23.98 87.2368 23.26 87.5834 23.02L87.8234 22.94C88.0634 22.94 88.2234 23.06 88.3034 23.3C88.5701 23.78 88.7034 24.14 88.7034 24.38L88.6634 24.7C88.6634 24.7533 88.6901 24.8333 88.7434 24.94C88.8234 25.02 88.8634 25.1933 88.8634 25.46C88.7568 25.9133 88.5701 26.3 88.3034 26.62C88.0368 26.94 87.8634 27.34 87.7834 27.82C87.6501 28.7267 87.3834 29.5667 86.9834 30.34C86.8234 30.7667 86.7034 31.1933 86.6234 31.62C86.5434 32.02 86.4234 32.4467 86.2634 32.9C86.1301 33.1667 85.9434 33.7667 85.7034 34.7C85.4901 35.4467 85.3034 36.02 85.1434 36.42C85.0368 36.9533 84.8368 37.6067 84.5434 38.38C84.2501 39.18 83.9968 39.7933 83.7834 40.22C83.5968 40.4867 83.4501 40.6333 83.3434 40.66C83.2634 40.7133 83.2101 40.7533 83.1834 40.78C83.1568 40.8333 83.1434 40.9133 83.1434 41.02C83.1434 41.1267 83.1568 41.2333 83.1834 41.34C83.2368 41.4467 83.2634 41.5533 83.2634 41.66L82.6634 42.98C82.2368 43.78 81.9301 44.38 81.7434 44.78C81.5034 45.3133 81.2901 45.6867 81.1034 45.9C80.8368 46.1933 80.6768 46.4867 80.6234 46.78C80.6234 46.8867 80.5968 46.9933 80.5434 47.1L80.0634 47.78C80.0101 47.8867 79.9834 48.0067 79.9834 48.14C79.9834 48.2733 79.9301 48.3933 79.8234 48.5C79.3434 49.0333 79.0368 49.46 78.9034 49.78C78.7701 50.1 78.6368 50.3 78.5034 50.38C78.3968 50.46 78.3168 50.58 78.2634 50.74C78.2101 50.9267 78.0501 51.1667 77.7834 51.46C77.5434 51.78 77.3034 52.1 77.0634 52.42C76.3434 53.38 75.7968 53.9933 75.4234 54.26L74.9034 54.74C74.6634 55.0067 74.4634 55.22 74.3034 55.38C74.1434 55.5667 73.9701 55.7133 73.7834 55.82C73.6234 55.9267 73.3168 56.1533 72.8634 56.5C72.7034 56.6067 72.5568 56.7267 72.4234 56.86C72.1301 57.2067 71.8101 57.3933 71.4634 57.42C71.0901 57.4733 70.7434 57.6067 70.4234 57.82C70.0768 58.06 69.7034 58.22 69.3034 58.3L68.9834 58.38C68.6368 58.5133 68.1568 58.58 67.5434 58.58ZM86.5737 56.9C86.3071 56.9 86.0404 56.7933 85.7737 56.58C85.7471 56.58 85.7337 56.5667 85.7337 56.54C85.6004 56.4867 85.4804 56.4067 85.3737 56.3C85.2404 56.1933 85.1737 55.9533 85.1737 55.58C85.1737 55.0733 85.2404 54.4333 85.3737 53.66C85.4804 52.9133 85.5871 52.3667 85.6937 52.02L85.8537 51.42C85.9071 51.0733 86.0137 50.7133 86.1737 50.34L87.0137 47.3C87.0937 47.06 87.2004 46.86 87.3337 46.7C87.4404 46.54 87.5071 46.42 87.5337 46.34C87.5604 46.26 87.6137 46.1533 87.6937 46.02C87.7471 45.9133 87.7738 45.78 87.7738 45.62C87.7738 45.2467 87.8537 44.9667 88.0137 44.78C88.2271 44.3533 88.3337 43.9 88.3337 43.42C88.3337 42.9667 88.4271 42.4867 88.6137 41.98C88.7737 41.4733 88.9471 40.9667 89.1338 40.46L89.5338 39.42L89.6138 39.3C89.9071 38.8733 90.0671 38.4467 90.0938 38.02C90.1204 37.8333 90.1738 37.62 90.2538 37.38C90.4671 36.8467 90.6671 36.2867 90.8538 35.7C91.0938 34.9 91.3871 34.1133 91.7337 33.34L92.5338 30.74C92.8271 29.9667 93.0004 29.4067 93.0538 29.06C93.1604 28.5267 93.3604 27.94 93.6538 27.3C94.0004 26.4467 94.1738 25.9533 94.1738 25.82C94.1738 25.74 94.1338 25.7 94.0538 25.7C93.9738 25.7 93.9071 25.7267 93.8538 25.78C93.8004 25.8333 93.6938 25.9267 93.5338 26.06C93.3738 26.1933 93.2671 26.3 93.2138 26.38C93.1604 26.46 93.1204 26.5267 93.0938 26.58C93.0671 26.6333 92.9871 26.6867 92.8538 26.74C92.6138 27.0067 92.4004 27.2733 92.2138 27.54C92.0271 27.8067 91.8404 28.0467 91.6538 28.26C91.1204 28.74 90.8004 29.0733 90.6938 29.26C89.8938 30.22 89.3204 30.7533 88.9737 30.86L88.8937 30.9C88.7337 30.9 88.6271 30.8733 88.5737 30.82C88.5204 30.7667 88.4937 30.7267 88.4937 30.7C88.4937 30.4867 88.8404 30.06 89.5338 29.42C90.3071 28.54 91.0138 27.7 91.6538 26.9C91.7071 26.8467 91.7871 26.8067 91.8938 26.78C92.1338 26.7 92.2938 26.5133 92.3738 26.22C92.4804 25.9 92.6671 25.6067 92.9338 25.34C93.1204 25.1533 93.2138 25.02 93.2138 24.94C93.2404 24.86 93.2671 24.7933 93.2938 24.74C93.3204 24.6867 93.3338 24.62 93.3338 24.54C93.3604 24.4333 93.7604 23.9533 94.5338 23.1L95.4138 22.14C95.4671 22.0867 95.5471 22.0333 95.6538 21.98C95.7604 21.9267 95.8804 21.8067 96.0138 21.62C96.2538 21.38 96.5071 21.22 96.7738 21.14C96.8004 21.14 96.9471 21.26 97.2138 21.5C97.4804 21.7133 97.6138 22.1 97.6138 22.66C97.6138 23.2467 97.5071 23.7533 97.2938 24.18C97.2938 24.58 96.9738 25.42 96.3338 26.7C96.1204 27.18 95.9738 27.54 95.8938 27.78C95.8938 28.2067 95.8404 28.58 95.7338 28.9L95.5338 29.3C95.2938 29.7533 95.1471 30.22 95.0938 30.7C95.0404 31.1533 94.9338 31.5 94.7738 31.74C94.6938 31.8733 94.6404 32.0333 94.6138 32.22C94.8271 32.22 95.0671 31.9533 95.3338 31.42C95.4404 31.2067 95.5471 31.0333 95.6538 30.9C95.8938 30.6333 96.2538 30.1533 96.7338 29.46C96.7871 29.4067 96.8538 29.38 96.9338 29.38C97.0138 29.38 97.0671 29.3667 97.0938 29.34C97.2804 29.0733 97.5338 28.78 97.8538 28.46C98.4671 27.74 99.1071 27.0467 99.7738 26.38C100.547 25.6067 101.347 24.94 102.174 24.38C103.027 23.82 103.867 23.54 104.694 23.54C105.147 23.54 105.547 23.6333 105.894 23.82C106.24 24.0067 106.494 24.34 106.654 24.82C106.814 25.3 106.894 25.8467 106.894 26.46L106.854 27.3C106.827 27.46 106.694 27.8467 106.454 28.46C106.294 29.4467 105.867 30.4733 105.174 31.54C104.987 31.8333 104.827 32.14 104.694 32.46C104.614 32.5933 104.494 32.7133 104.334 32.82C104.2 32.9267 104.094 33.0467 104.014 33.18C103.507 33.9533 102.747 34.6333 101.734 35.22C101.067 35.62 100.707 35.86 100.654 35.94C100.6 36.02 100.534 36.0867 100.454 36.14C99.7338 36.4333 99.0271 36.58 98.3338 36.58C97.3738 36.58 96.5604 36.26 95.8938 35.62L95.7738 35.5C95.6938 35.42 95.6404 35.3667 95.6138 35.34C95.6138 35.2867 95.6004 35.2467 95.5738 35.22C95.5738 35.1933 95.5604 35.18 95.5338 35.18C95.5071 35.1533 95.4804 35.14 95.4538 35.14C95.4271 35.1133 95.4138 35.02 95.4138 34.86C95.4138 34.6733 95.4671 34.58 95.5738 34.58C95.6271 34.58 95.6671 34.58 95.6938 34.58C95.7204 34.58 95.8938 34.6733 96.2138 34.86C96.5604 35.0467 96.9738 35.14 97.4538 35.14C98.3871 35.14 99.2271 34.7667 99.9738 34.02L100.014 33.98C100.227 33.8467 100.414 33.66 100.574 33.42C100.76 33.18 101.04 32.9133 101.414 32.62C101.494 32.5667 101.56 32.54 101.614 32.54C101.694 32.5133 101.774 32.4867 101.854 32.46C101.96 32.4333 102.04 32.26 102.094 31.94C102.12 31.8333 102.16 31.7133 102.214 31.58C102.294 31.4467 102.667 30.82 103.334 29.7C103.6 29.22 103.84 28.66 104.054 28.02C104.054 27.8067 104.094 27.5933 104.174 27.38C104.334 26.98 104.414 26.54 104.414 26.06C104.414 25.2867 104.187 24.8733 103.734 24.82C103.254 24.82 102.68 25.0467 102.014 25.5C101.374 25.9267 100.734 26.5267 100.094 27.3C99.5338 27.86 99.2004 28.1667 99.0938 28.22C99.0138 28.2467 98.9471 28.2867 98.8938 28.34C98.1738 29.06 97.6271 29.6867 97.2538 30.22C96.1871 31.5 95.5604 32.3 95.3738 32.62C94.9204 33.2067 94.4138 34.0467 93.8538 35.14C93.4538 35.9133 93.1471 36.4467 92.9338 36.74C92.8004 36.9267 92.6538 37.14 92.4938 37.38C92.3604 37.6467 92.2804 37.94 92.2538 38.26C92.1204 38.8467 91.9738 39.2867 91.8138 39.58C91.8138 39.6333 91.6538 40.0333 91.3338 40.78C91.2004 41.0467 91.1071 41.26 91.0538 41.42L91.0138 41.46C91.0138 41.6467 90.9871 41.78 90.9338 41.86C90.8804 41.94 90.7871 42.06 90.6538 42.22C90.5471 42.38 90.4938 42.58 90.4938 42.82C90.4938 43.06 90.2404 43.9533 89.7338 45.5C89.4671 46.3 89.2271 46.8733 89.0137 47.22L88.6137 48.18C88.5604 48.2867 88.5337 48.4867 88.5337 48.78C88.5337 49.0733 88.5071 49.2733 88.4537 49.38C88.0004 50.58 87.7071 51.7133 87.5737 52.78L87.5337 52.94C87.5071 53.1 87.4937 53.4467 87.4937 53.98C87.5204 54.3 87.5337 54.6467 87.5337 55.02C87.5337 55.3667 87.5204 55.6867 87.4937 55.98C87.4404 56.5933 87.1337 56.9 86.5737 56.9ZM118.127 36.78L117.927 36.74C117.207 36.6067 116.687 36.3 116.367 35.82C116.233 35.6333 116.167 35.2867 116.167 34.78C116.167 34.46 116.207 34.1133 116.287 33.74C116.393 33.34 116.487 32.9667 116.567 32.62C116.7 32.0867 116.86 31.54 117.047 30.98L116.847 30.9C116.527 31.2467 116.153 31.5533 115.727 31.82C115.62 31.9267 115.54 32.0333 115.487 32.14C115.433 32.2467 115.287 32.3533 115.047 32.46C114.833 32.5667 114.647 32.7267 114.487 32.94C114.407 33.0467 114.3 33.1667 114.167 33.3C114.06 33.4067 113.913 33.5533 113.727 33.74C113.567 33.9 113.38 34.06 113.167 34.22C112.767 34.4867 112.407 34.7533 112.087 35.02C111.607 35.3933 111.113 35.7267 110.607 36.02L110.367 36.18C110.127 36.3133 109.887 36.4333 109.647 36.54C109.407 36.6467 109.167 36.7 108.927 36.7C108.687 36.7 108.38 36.58 108.007 36.34C107.5 36.02 107.247 35.3667 107.247 34.38C107.247 33.34 107.42 32.4467 107.767 31.7V31.34C107.873 31.2333 107.967 31.1267 108.047 31.02C108.127 30.9133 108.18 30.7667 108.207 30.58C108.26 30.3933 108.367 30.22 108.527 30.06L108.767 29.98V29.7C108.847 29.4333 109.033 29.1267 109.327 28.78C109.7 28.3267 109.953 28.1 110.087 28.1C110.22 28.1 110.287 27.9133 110.287 27.54C110.313 27.3533 110.527 27.18 110.927 27.02C111.327 26.8333 111.527 26.6467 111.527 26.46C111.527 26.4333 111.527 26.3933 111.527 26.34C111.527 26.2867 111.727 26.14 112.127 25.9L112.647 25.5C112.94 25.26 113.22 25.0867 113.487 24.98C113.753 24.8467 113.993 24.7133 114.207 24.58C114.42 24.4467 114.633 24.38 114.847 24.38C115.087 24.38 115.273 24.3533 115.407 24.3C115.567 24.22 115.7 24.18 115.807 24.18C115.94 24.18 116.1 24.1267 116.287 24.02C116.473 23.9133 116.727 23.8333 117.047 23.78L117.607 23.74C119.393 23.74 120.7 24.1667 121.527 25.02C122.087 25.58 122.367 26.2067 122.367 26.9C122.367 27.1133 122.353 27.26 122.327 27.34C122.3 27.66 122.047 27.82 121.567 27.82C121.407 27.82 121.273 27.7667 121.167 27.66C121.087 27.5533 121.047 27.46 121.047 27.38C121.047 27.1933 121.073 27.0467 121.127 26.94C121.18 26.8067 121.233 26.7 121.287 26.62C121.367 26.5133 121.407 26.4067 121.407 26.3C121.407 26.1667 121.34 26.0067 121.207 25.82C121.1 25.6333 120.98 25.5 120.847 25.42C120.367 25.1 119.74 24.94 118.967 24.94C118.06 24.94 117.247 25.1267 116.527 25.5L116.287 25.54C116.073 25.54 115.82 25.6467 115.527 25.86C115.367 25.9933 115.153 26.2067 114.887 26.5C114.78 26.58 114.66 26.6333 114.527 26.66C114.26 26.7133 114.087 26.8333 114.007 27.02C113.953 27.2067 113.847 27.3 113.687 27.3C113.553 27.3 113.42 27.4333 113.287 27.7C113.18 27.94 113.047 28.1267 112.887 28.26C112.727 28.3667 112.62 28.42 112.567 28.42C112.46 28.5267 112.38 28.6733 112.327 28.86C112.193 29.18 112.033 29.4067 111.847 29.54C111.687 29.6733 111.407 30.0733 111.007 30.74L110.567 31.46C110.167 32.1533 109.873 32.94 109.687 33.82C109.66 33.9 109.647 34.0467 109.647 34.26C109.647 34.6867 109.82 34.9267 110.167 34.98C110.54 34.98 110.82 34.9133 111.007 34.78C111.193 34.6467 111.38 34.54 111.567 34.46C112.02 34.2733 112.327 34.06 112.487 33.82C112.647 33.5533 112.873 33.3267 113.167 33.14C113.487 32.9267 113.86 32.6067 114.287 32.18C114.713 31.7533 115.167 31.3667 115.647 31.02L116.607 29.86L116.887 29.22C117.1 28.7667 117.42 28.42 117.847 28.18C118.193 28.02 118.553 27.8333 118.927 27.62C118.953 27.5933 119.02 27.58 119.127 27.58C119.393 27.58 119.62 27.7 119.807 27.94C120.02 28.18 120.167 28.42 120.247 28.66C120.247 28.6867 120.26 28.74 120.287 28.82C120.313 28.8733 120.327 28.9533 120.327 29.06C120.327 29.22 120.3 29.38 120.247 29.54C120.22 29.7 120.207 29.8867 120.207 30.1C120.207 30.3133 120.06 30.6867 119.767 31.22C119.633 31.46 119.527 31.7667 119.447 32.14C119.34 32.7267 119.207 33.1 119.047 33.26C118.887 33.42 118.807 33.7 118.807 34.1C118.727 34.3933 118.687 34.6867 118.687 34.98C118.687 35.14 118.7 35.2333 118.727 35.26C118.753 35.5 118.94 35.62 119.287 35.62C119.527 35.62 119.833 35.4733 120.207 35.18C120.5 34.94 120.98 34.6067 121.647 34.18C121.913 34.02 122.193 33.78 122.487 33.46C122.647 33.3 122.78 33.2067 122.887 33.18C122.993 33.1267 123.073 33.0733 123.127 33.02C123.447 32.7533 123.687 32.4867 123.847 32.22C123.927 32.14 124.047 32.0467 124.207 31.94C124.5 31.7533 124.833 31.4333 125.207 30.98C125.713 30.3667 126.047 30.06 126.207 30.06C126.527 30.06 126.687 30.1933 126.687 30.46C126.687 30.5667 126.593 30.7533 126.407 31.02C126.087 31.4467 125.833 31.7 125.647 31.78L125.367 31.86C124.327 33.06 123.513 33.8733 122.927 34.3C122.793 34.4067 122.673 34.5 122.567 34.58C122.487 34.66 122.367 34.7133 122.207 34.74C122.073 34.7667 121.993 34.8333 121.967 34.94C121.94 35.0467 121.78 35.2067 121.487 35.42C121.06 35.74 120.62 35.9933 120.167 36.18L119.767 36.34C119.287 36.6333 118.74 36.78 118.127 36.78ZM135.24 38.78C134.733 38.78 134.387 38.6067 134.2 38.26C134.2 37.86 134.32 37.6067 134.56 37.5C134.667 37.4467 134.773 37.42 134.88 37.42C134.987 37.42 135.12 37.4467 135.28 37.5C135.413 37.5533 135.693 37.58 136.12 37.58C136.493 37.58 136.76 37.5533 136.92 37.5C137.213 37.42 137.44 37.26 137.6 37.02L137.76 36.9C137.92 36.7933 138.107 36.6467 138.32 36.46C138.533 36.2733 138.76 36.1133 139 35.98C139.24 35.8467 139.4 35.7133 139.48 35.58C139.56 35.4467 139.667 35.34 139.8 35.26C140.84 34.4067 141.8 33.42 142.68 32.3C142.707 32.2733 142.733 32.2467 142.76 32.22C142.813 32.1933 142.88 32.1667 142.96 32.14C143.067 31.9533 143.4 31.6067 143.96 31.1C144.173 30.86 144.307 30.7 144.36 30.62C144.44 30.5133 144.533 30.4067 144.64 30.3C144.747 30.1933 144.813 30.1133 144.84 30.06C144.893 29.98 144.933 29.94 144.96 29.94C145.013 29.9133 145.08 29.9 145.16 29.9C145.24 29.8733 145.32 29.7533 145.4 29.54C145.587 29.14 145.8 28.8733 146.04 28.74C146.28 28.6067 146.693 28.0867 147.28 27.18C147.467 26.94 147.587 26.78 147.64 26.7C147.72 26.5933 147.813 26.4867 147.92 26.38C148.053 26.2467 148.187 26.0733 148.32 25.86C148.48 25.62 148.68 25.3667 148.92 25.1L149 24.98C149.107 24.82 149.213 24.6733 149.32 24.54C149.453 24.38 149.533 24.26 149.56 24.18C149.613 24.0733 149.667 23.98 149.72 23.9C149.853 23.6867 150.067 23.58 150.36 23.58C150.52 23.58 150.68 23.6467 150.84 23.78C151 23.8867 151.08 24.02 151.08 24.18C151.08 24.34 151.213 24.5933 151.48 24.94C151.533 25.1 151.56 25.2467 151.56 25.38C151.56 25.7533 151.36 26.2467 150.96 26.86C150.693 27.26 150.387 27.8067 150.04 28.5C149.453 29.9133 149.147 30.7133 149.12 30.9C149.12 31.06 149.08 31.2467 149 31.46C148.947 31.6467 148.893 31.8733 148.84 32.14C148.68 32.78 148.547 33.1533 148.44 33.26C148.333 33.3667 148.267 33.4867 148.24 33.62C148.213 33.6467 148.2 33.7667 148.2 33.98C148.12 34.3533 148.08 34.6867 148.08 34.98C148.08 35.14 148.093 35.2333 148.12 35.26C148.147 35.5 148.333 35.62 148.68 35.62C148.893 35.62 149.093 35.5667 149.28 35.46C149.707 35.3 150.08 35.1 150.4 34.86C150.507 34.6733 150.64 34.54 150.8 34.46C151.28 33.7933 151.533 33.38 151.56 33.22C151.613 33.06 151.707 32.9133 151.84 32.78C152.347 32.2733 152.853 31.5933 153.36 30.74C153.44 30.66 153.533 30.58 153.64 30.5C153.747 30.42 153.907 30.26 154.12 30.02C154.173 29.94 154.253 29.8867 154.36 29.86C154.467 29.8333 154.547 29.74 154.6 29.58C154.76 29.18 154.96 28.9 155.2 28.74C155.467 28.58 155.853 28.1267 156.36 27.38C156.707 26.8733 156.947 26.5533 157.08 26.42C157.24 26.26 157.4 26.0467 157.56 25.78C157.747 25.5133 158.08 25.0867 158.56 24.5C158.667 24.3667 158.733 24.2467 158.76 24.14C158.947 23.7667 159.213 23.58 159.56 23.58C159.72 23.58 159.88 23.6333 160.04 23.74C160.2 23.8467 160.28 24.0067 160.28 24.22C160.307 24.4067 160.347 24.54 160.4 24.62C160.453 24.6733 160.52 24.7667 160.6 24.9C160.707 25.0067 160.76 25.1667 160.76 25.38C160.76 25.7533 160.56 26.2467 160.16 26.86L159.24 28.5C158.653 29.8867 158.347 30.6733 158.32 30.86C158.32 31.0467 158.28 31.2467 158.2 31.46C158.147 31.6467 158.093 31.8733 158.04 32.14C157.933 32.7267 157.8 33.1 157.64 33.26C157.4 33.5 157.28 34.0733 157.28 34.98C157.28 35.14 157.293 35.2333 157.32 35.26C157.347 35.5 157.533 35.62 157.88 35.62C158.093 35.62 158.24 35.5933 158.32 35.54C158.427 35.4867 158.547 35.4333 158.68 35.38C158.84 35.3267 159.027 35.2467 159.24 35.14L159.4 34.9L159.88 34.62C160.36 34.4067 160.72 34.1267 160.96 33.78C161.2 33.4067 161.373 33.1933 161.48 33.14C161.827 33.0333 162.147 32.7267 162.44 32.22C162.52 32.14 162.64 32.0467 162.8 31.94C163.093 31.7533 163.427 31.4333 163.8 30.98C164.307 30.3667 164.64 30.06 164.8 30.06C165.12 30.06 165.28 30.1933 165.28 30.46C165.28 30.5667 165.187 30.7533 165 31.02C164.653 31.4733 164.307 31.7533 163.96 31.86C163.293 32.6067 162.747 33.1267 162.32 33.42C161.707 33.8467 161.16 34.3667 160.68 34.98C160.627 35.0067 160.533 35.02 160.4 35.02C160.293 35.02 160.147 35.1533 159.96 35.42C159.667 35.7667 159.04 36.1133 158.08 36.46C157.467 36.6733 157.013 36.78 156.72 36.78C155.867 36.62 155.28 36.3 154.96 35.82C154.853 35.66 154.8 35.2867 154.8 34.7C154.8 34.3 154.827 33.98 154.88 33.74C154.96 33.4733 155.027 33.2067 155.08 32.94C155.4 31.6067 155.813 30.3533 156.32 29.18C156.32 29.1 156.28 29.06 156.2 29.06C156.12 29.1133 156.013 29.2067 155.88 29.34C155.773 29.4733 155.627 29.6067 155.44 29.74C155.147 29.9533 154.947 30.14 154.84 30.3C154.76 30.4333 154.667 30.54 154.56 30.62C154.48 30.7 154.413 30.7667 154.36 30.82C154.333 30.8733 154.293 30.9133 154.24 30.94V30.98C153.893 31.4067 153.413 32.06 152.8 32.94C152.48 33.34 152.227 33.6867 152.04 33.98L151.6 34.38C151.547 34.5133 151.493 34.6067 151.44 34.66C151.387 34.6867 151.333 34.74 151.28 34.82C151.253 34.8733 151.2 34.9267 151.12 34.98C151.067 35.0333 150.947 35.18 150.76 35.42C150.68 35.5267 150.56 35.62 150.4 35.7C150.08 35.94 149.667 36.1533 149.16 36.34C149.133 36.3667 149.093 36.3933 149.04 36.42C149.013 36.42 148.96 36.4333 148.88 36.46C148.693 36.5133 148.467 36.58 148.2 36.66C147.96 36.74 147.733 36.78 147.52 36.78C147.467 36.78 147.427 36.7667 147.4 36.74C146.68 36.6333 146.133 36.3267 145.76 35.82C145.653 35.66 145.6 35.2867 145.6 34.7C145.6 34.3 145.627 33.98 145.68 33.74C145.76 33.4733 145.827 33.2067 145.88 32.94C146.2 31.6067 146.613 30.3533 147.12 29.18C147.12 29.1 147.08 29.06 147 29.06C146.92 29.1133 146.827 29.2067 146.72 29.34C146.613 29.4733 146.453 29.6067 146.24 29.74C145.92 29.9533 145.733 30.1267 145.68 30.26C145.627 30.3667 145.533 30.4733 145.4 30.58C145.293 30.6867 145.2 30.7933 145.12 30.9C145.04 30.98 144.92 31.0733 144.76 31.18C144.627 31.26 144.44 31.5 144.2 31.9C143.96 32.1133 143.76 32.3133 143.6 32.5C143.44 32.66 143.347 32.7533 143.32 32.78C143.16 32.86 143 33.02 142.84 33.26C142.707 33.5 142.573 33.7 142.44 33.86H142.28C142.2 33.94 142.133 34.0467 142.08 34.18C142.053 34.2867 141.813 34.54 141.36 34.94C141.12 35.1533 140.973 35.3133 140.92 35.42C140.787 35.6333 140.493 35.8867 140.04 36.18L139.44 36.66C138.64 37.46 137.8 38.0333 136.92 38.38C136.28 38.6467 135.72 38.78 135.24 38.78ZM175.002 36.78L174.802 36.74C174.082 36.6067 173.562 36.3 173.242 35.82C173.108 35.6333 173.042 35.2867 173.042 34.78C173.042 34.46 173.082 34.1133 173.162 33.74C173.268 33.34 173.362 32.9667 173.442 32.62C173.575 32.0867 173.735 31.54 173.922 30.98L173.722 30.9C173.402 31.2467 173.028 31.5533 172.602 31.82C172.495 31.9267 172.415 32.0333 172.362 32.14C172.308 32.2467 172.162 32.3533 171.922 32.46C171.708 32.5667 171.522 32.7267 171.362 32.94C171.282 33.0467 171.175 33.1667 171.042 33.3C170.935 33.4067 170.788 33.5533 170.602 33.74C170.442 33.9 170.255 34.06 170.042 34.22C169.642 34.4867 169.282 34.7533 168.962 35.02C168.482 35.3933 167.988 35.7267 167.482 36.02L167.242 36.18C167.002 36.3133 166.762 36.4333 166.522 36.54C166.282 36.6467 166.042 36.7 165.802 36.7C165.562 36.7 165.255 36.58 164.882 36.34C164.375 36.02 164.122 35.3667 164.122 34.38C164.122 33.34 164.295 32.4467 164.642 31.7V31.34C164.748 31.2333 164.842 31.1267 164.922 31.02C165.002 30.9133 165.055 30.7667 165.082 30.58C165.135 30.3933 165.242 30.22 165.402 30.06L165.642 29.98V29.7C165.722 29.4333 165.908 29.1267 166.202 28.78C166.575 28.3267 166.828 28.1 166.962 28.1C167.095 28.1 167.162 27.9133 167.162 27.54C167.188 27.3533 167.402 27.18 167.802 27.02C168.202 26.8333 168.402 26.6467 168.402 26.46C168.402 26.4333 168.402 26.3933 168.402 26.34C168.402 26.2867 168.602 26.14 169.002 25.9L169.522 25.5C169.815 25.26 170.095 25.0867 170.362 24.98C170.628 24.8467 170.868 24.7133 171.082 24.58C171.295 24.4467 171.508 24.38 171.722 24.38C171.962 24.38 172.148 24.3533 172.282 24.3C172.442 24.22 172.575 24.18 172.682 24.18C172.815 24.18 172.975 24.1267 173.162 24.02C173.348 23.9133 173.602 23.8333 173.922 23.78L174.482 23.74C176.268 23.74 177.575 24.1667 178.402 25.02C178.962 25.58 179.242 26.2067 179.242 26.9C179.242 27.1133 179.228 27.26 179.202 27.34C179.175 27.66 178.922 27.82 178.442 27.82C178.282 27.82 178.148 27.7667 178.042 27.66C177.962 27.5533 177.922 27.46 177.922 27.38C177.922 27.1933 177.948 27.0467 178.002 26.94C178.055 26.8067 178.108 26.7 178.162 26.62C178.242 26.5133 178.282 26.4067 178.282 26.3C178.282 26.1667 178.215 26.0067 178.082 25.82C177.975 25.6333 177.855 25.5 177.722 25.42C177.242 25.1 176.615 24.94 175.842 24.94C174.935 24.94 174.122 25.1267 173.402 25.5L173.162 25.54C172.948 25.54 172.695 25.6467 172.402 25.86C172.242 25.9933 172.028 26.2067 171.762 26.5C171.655 26.58 171.535 26.6333 171.402 26.66C171.135 26.7133 170.962 26.8333 170.882 27.02C170.828 27.2067 170.722 27.3 170.562 27.3C170.428 27.3 170.295 27.4333 170.162 27.7C170.055 27.94 169.922 28.1267 169.762 28.26C169.602 28.3667 169.495 28.42 169.442 28.42C169.335 28.5267 169.255 28.6733 169.202 28.86C169.068 29.18 168.908 29.4067 168.722 29.54C168.562 29.6733 168.282 30.0733 167.882 30.74L167.442 31.46C167.042 32.1533 166.748 32.94 166.562 33.82C166.535 33.9 166.522 34.0467 166.522 34.26C166.522 34.6867 166.695 34.9267 167.042 34.98C167.415 34.98 167.695 34.9133 167.882 34.78C168.068 34.6467 168.255 34.54 168.442 34.46C168.895 34.2733 169.202 34.06 169.362 33.82C169.522 33.5533 169.748 33.3267 170.042 33.14C170.362 32.9267 170.735 32.6067 171.162 32.18C171.588 31.7533 172.042 31.3667 172.522 31.02L173.482 29.86L173.762 29.22C173.975 28.7667 174.295 28.42 174.722 28.18C175.068 28.02 175.428 27.8333 175.802 27.62C175.828 27.5933 175.895 27.58 176.002 27.58C176.268 27.58 176.495 27.7 176.682 27.94C176.895 28.18 177.042 28.42 177.122 28.66C177.122 28.6867 177.135 28.74 177.162 28.82C177.188 28.8733 177.202 28.9533 177.202 29.06C177.202 29.22 177.175 29.38 177.122 29.54C177.095 29.7 177.082 29.8867 177.082 30.1C177.082 30.3133 176.935 30.6867 176.642 31.22C176.508 31.46 176.402 31.7667 176.322 32.14C176.215 32.7267 176.082 33.1 175.922 33.26C175.762 33.42 175.682 33.7 175.682 34.1C175.602 34.3933 175.562 34.6867 175.562 34.98C175.562 35.14 175.575 35.2333 175.602 35.26C175.628 35.5 175.815 35.62 176.162 35.62C176.402 35.62 176.708 35.4733 177.082 35.18C177.375 34.94 177.855 34.6067 178.522 34.18C178.788 34.02 179.068 33.78 179.362 33.46C179.522 33.3 179.655 33.2067 179.762 33.18C179.868 33.1267 179.948 33.0733 180.002 33.02C180.322 32.7533 180.562 32.4867 180.722 32.22C180.802 32.14 180.922 32.0467 181.082 31.94C181.375 31.7533 181.708 31.4333 182.082 30.98C182.588 30.3667 182.922 30.06 183.082 30.06C183.402 30.06 183.562 30.1933 183.562 30.46C183.562 30.5667 183.468 30.7533 183.282 31.02C182.962 31.4467 182.708 31.7 182.522 31.78L182.242 31.86C181.202 33.06 180.388 33.8733 179.802 34.3C179.668 34.4067 179.548 34.5 179.442 34.58C179.362 34.66 179.242 34.7133 179.082 34.74C178.948 34.7667 178.868 34.8333 178.842 34.94C178.815 35.0467 178.655 35.2067 178.362 35.42C177.935 35.74 177.495 35.9933 177.042 36.18L176.642 36.34C176.162 36.6333 175.615 36.78 175.002 36.78ZM185.323 36.86C185.216 36.86 185.136 36.8333 185.083 36.78C185.029 36.7267 184.923 36.6733 184.763 36.62C184.629 36.5667 184.469 36.46 184.283 36.3C184.123 36.14 184.043 35.98 184.043 35.82C184.043 35.34 184.189 34.8067 184.483 34.22C184.669 33.82 184.789 33.42 184.843 33.02C185.003 32.14 185.229 31.6333 185.523 31.5C185.683 31.34 185.776 31.2333 185.803 31.18C185.803 30.4867 186.016 29.7133 186.443 28.86C186.549 28.6733 186.669 28.3133 186.803 27.78C186.909 27.4333 187.043 27.0867 187.203 26.74C187.283 26.66 187.323 26.5267 187.323 26.34C187.323 26.2067 187.296 26.1267 187.243 26.1C187.083 26.42 186.883 26.6733 186.643 26.86C186.403 27.0467 186.203 27.2467 186.043 27.46C185.776 27.86 185.283 28.3933 184.563 29.06C184.109 29.5133 183.843 29.8333 183.763 30.02C183.683 30.2067 183.589 30.3667 183.483 30.5C183.376 30.6333 183.189 30.7267 182.923 30.78C182.896 30.8067 182.816 30.82 182.683 30.82C182.496 30.82 182.349 30.7667 182.243 30.66L182.203 30.58L182.243 30.42C182.323 30.2333 182.416 30.1267 182.523 30.1C182.736 29.94 182.883 29.7933 182.963 29.66C183.043 29.5 183.189 29.3667 183.403 29.26C183.616 29.1533 183.789 28.9533 183.923 28.66C183.976 28.5533 184.029 28.4733 184.083 28.42C184.163 28.34 184.229 28.26 184.283 28.18L184.323 28.06C184.536 27.8467 184.683 27.7133 184.763 27.66C185.056 27.34 185.336 27.0067 185.603 26.66C185.896 26.2867 186.163 25.9667 186.403 25.7C186.643 25.4333 186.843 25.1267 187.003 24.78C187.296 24.1933 187.696 23.7267 188.203 23.38C188.549 23.14 188.856 23.02 189.123 23.02C189.416 23.02 189.589 23.2333 189.643 23.66C189.643 23.74 189.656 23.8467 189.683 23.98C189.736 24.0867 189.763 24.2467 189.763 24.46C189.763 25.02 189.683 25.5533 189.523 26.06L189.363 26.66C189.363 26.7133 189.336 26.8067 189.283 26.94C189.229 27.0733 189.176 27.2467 189.123 27.46C188.776 28.2867 188.603 28.8733 188.603 29.22C188.603 29.2467 188.643 29.26 188.723 29.26C188.989 29.26 189.483 28.8067 190.203 27.9L190.483 27.58C190.723 27.3667 190.923 27.1533 191.083 26.94C191.616 26.3533 192.016 26.06 192.283 26.06C192.363 26.06 192.429 26.0467 192.483 26.02C192.536 25.9667 192.576 25.8867 192.603 25.78C192.656 25.6733 192.709 25.5933 192.763 25.54C193.189 25.0867 193.803 24.66 194.603 24.26C195.003 23.9667 195.589 23.82 196.363 23.82C196.843 23.82 197.243 23.94 197.563 24.18C197.936 24.5267 198.123 24.98 198.123 25.54C198.123 26.0467 198.016 26.5533 197.803 27.06C197.803 27.0867 197.789 27.1133 197.763 27.14C197.763 27.14 197.763 27.1533 197.763 27.18C197.763 27.2067 197.736 27.2467 197.683 27.3C197.656 27.3267 197.643 27.5 197.643 27.82C197.643 28.0333 197.549 28.42 197.363 28.98C197.149 29.46 197.043 29.8333 197.043 30.1C197.149 29.94 197.296 29.82 197.483 29.74C197.669 29.66 197.803 29.5267 197.883 29.34C197.989 29.1267 198.123 28.9667 198.283 28.86C198.469 28.7533 198.603 28.62 198.683 28.46C198.923 27.9533 199.363 27.4333 200.003 26.9C200.056 26.8467 200.123 26.82 200.203 26.82C200.283 26.82 200.349 26.7933 200.403 26.74L200.763 26.22C201.803 25.2867 202.696 24.82 203.443 24.82L203.683 24.86C204.136 24.94 204.443 25.14 204.603 25.46C204.789 25.7533 204.923 26.26 205.003 26.98C205.003 27.1133 205.016 27.2333 205.043 27.34C205.043 27.5 205.016 27.6333 204.963 27.74C204.936 27.82 204.923 27.9267 204.923 28.06C204.923 28.14 204.949 28.2333 205.003 28.34C205.056 28.4467 205.083 28.54 205.083 28.62C205.083 29.3667 205.043 29.9133 204.963 30.26C204.936 30.3667 204.923 30.8733 204.923 31.78L204.883 32.3C204.883 32.94 205.069 33.4333 205.443 33.78C205.576 33.8867 205.776 33.94 206.043 33.94C206.416 33.94 206.749 33.8333 207.043 33.62C207.416 33.3267 208.083 32.7 209.043 31.74C209.149 31.66 209.256 31.5933 209.363 31.54C209.469 31.4867 209.563 31.42 209.643 31.34C209.723 31.26 209.816 31.14 209.923 30.98C210.136 30.42 210.389 30.1133 210.683 30.06L210.963 29.98C211.016 29.98 211.056 29.9933 211.083 30.02C211.216 30.0733 211.283 30.2067 211.283 30.42C211.283 30.5 211.256 30.5667 211.203 30.62C210.723 31.1 210.269 31.58 209.843 32.06C209.016 32.9933 208.163 33.78 207.283 34.42C207.096 34.5533 206.936 34.6467 206.803 34.7C206.669 34.7533 206.496 34.8733 206.283 35.06C206.096 35.22 205.603 35.4067 204.803 35.62C204.563 35.62 204.309 35.5933 204.043 35.54C203.483 35.4333 203.096 35.22 202.883 34.9C202.669 34.5533 202.563 34.3 202.563 34.14C202.536 34.1133 202.523 34.02 202.523 33.86L202.563 33.62C202.563 33.4867 202.509 33.3667 202.403 33.26C202.323 33.1267 202.283 32.9933 202.283 32.86C202.283 32.6733 202.296 32.5133 202.323 32.38C202.349 32.22 202.363 32.0733 202.363 31.94C202.363 31.54 202.336 31.14 202.283 30.74C202.229 30.34 202.203 29.8467 202.203 29.26C202.203 28.8867 202.229 28.4733 202.283 28.02V27.78C202.283 27.1933 202.096 26.9 201.723 26.9C201.403 26.9 201.096 27.0867 200.803 27.46C200.669 27.62 200.549 27.7267 200.443 27.78L200.243 27.9C200.083 27.98 199.963 28.0733 199.883 28.18C199.829 28.2867 199.763 28.3667 199.683 28.42C199.416 28.6333 199.229 28.9133 199.123 29.26C198.989 29.42 198.803 29.5933 198.563 29.78C198.109 30.1 197.869 30.3533 197.843 30.54C197.816 30.7267 197.736 30.86 197.603 30.94C197.523 31.0467 197.443 31.18 197.363 31.34C197.309 31.5 197.176 31.6467 196.963 31.78C196.829 31.9667 196.736 32.1933 196.683 32.46C196.576 32.8333 196.456 33.1133 196.323 33.3C196.216 33.46 196.123 33.62 196.043 33.78C195.989 33.94 195.963 34.1533 195.963 34.42C195.963 34.66 195.896 34.8067 195.763 34.86C195.629 34.8867 195.523 34.9133 195.443 34.94C195.389 34.9667 195.349 34.98 195.323 34.98C195.403 34.98 195.483 35.0067 195.563 35.06C195.669 35.1133 195.723 35.18 195.723 35.26C195.723 35.3133 195.669 35.42 195.563 35.58C195.483 35.7133 195.403 35.82 195.323 35.9C195.243 35.98 195.163 36.0467 195.083 36.1C195.003 36.1267 194.923 36.1667 194.843 36.22C194.656 36.3 194.456 36.34 194.243 36.34C194.056 36.34 193.869 36.2733 193.683 36.14C193.496 36.0067 193.363 35.9 193.283 35.82C193.203 35.7133 193.163 35.5933 193.163 35.46C193.163 35.3267 193.176 35.2333 193.203 35.18C193.256 35.02 193.283 34.7533 193.283 34.38C193.389 34.06 193.483 33.7667 193.563 33.5C193.643 33.2067 193.683 32.94 193.683 32.7C193.709 32.46 193.776 32.2067 193.883 31.94L194.323 30.78C194.349 30.6467 194.363 30.46 194.363 30.22C194.363 29.98 194.536 29.46 194.883 28.66C195.229 28.0467 195.403 27.4467 195.403 26.86C195.403 26.5667 195.323 26.2733 195.163 25.98C195.083 25.82 194.923 25.74 194.683 25.74C194.043 25.74 193.229 26.2333 192.243 27.22L191.483 27.86C191.349 27.9933 191.216 28.1667 191.083 28.38C190.976 28.5933 190.829 28.78 190.643 28.94C190.136 29.34 189.629 29.82 189.123 30.38C188.269 31.34 187.803 32.1267 187.723 32.74L187.523 33.34L187.323 33.42C187.216 33.58 187.149 33.7667 187.123 33.98C187.123 34.1667 187.043 34.3 186.883 34.38C186.803 34.38 186.749 34.42 186.723 34.5C186.696 34.58 186.669 34.6733 186.643 34.78C186.616 34.86 186.576 34.94 186.523 35.02C186.469 35.1 186.443 35.26 186.443 35.5V35.62C186.443 35.94 186.309 36.2333 186.043 36.5C185.803 36.74 185.563 36.86 185.323 36.86ZM213.502 36.82C213.449 36.82 213.409 36.8067 213.382 36.78C213.382 36.78 213.355 36.78 213.302 36.78C213.249 36.78 213.049 36.7533 212.702 36.7C212.382 36.6733 212.195 36.66 212.142 36.66C211.609 36.5267 211.209 36.3533 210.942 36.14C210.702 35.9 210.515 35.5533 210.382 35.1C210.249 34.9133 210.155 34.6867 210.102 34.42C209.969 33.9933 209.902 33.5667 209.902 33.14C209.902 32.7133 209.969 32.2867 210.102 31.86C210.155 31.6733 210.195 31.4733 210.222 31.26C210.222 31.02 210.275 30.7533 210.382 30.46C210.622 29.74 210.982 29.02 211.462 28.3C211.489 28.2467 211.555 28.18 211.662 28.1C211.795 28.02 211.915 27.8333 212.022 27.54C212.155 27.22 212.329 26.9667 212.542 26.78C212.649 26.7 212.742 26.6067 212.822 26.5C213.435 25.8067 214.049 25.22 214.662 24.74C215.595 24.0733 216.582 23.74 217.622 23.74C218.262 23.74 218.755 23.9533 219.102 24.38C219.475 24.78 219.662 25.2467 219.662 25.78C219.662 26.1 219.609 26.3933 219.502 26.66C219.369 27.0333 219.195 27.3133 218.982 27.5C218.769 27.66 218.635 27.8867 218.582 28.18C218.555 28.4467 218.409 28.6733 218.142 28.86C218.009 28.94 217.835 29.1267 217.622 29.42L217.422 29.66C217.022 30.06 216.529 30.3933 215.942 30.66C215.835 30.6867 215.742 30.7133 215.662 30.74C215.609 30.74 215.515 30.7533 215.382 30.78C215.249 30.78 215.035 30.9 214.742 31.14C214.449 31.38 214.115 31.5133 213.742 31.54C213.395 31.5667 213.102 31.66 212.862 31.82C212.782 31.9 212.702 32.14 212.622 32.54C212.542 32.9133 212.502 33.22 212.502 33.46C212.502 33.78 212.515 34.0333 212.542 34.22C212.729 35.2333 213.369 35.74 214.462 35.74C214.702 35.74 214.902 35.7267 215.062 35.7L215.222 35.66C215.835 35.5267 216.329 35.3667 216.702 35.18C217.102 34.9667 217.555 34.6867 218.062 34.34C218.329 34.1533 218.635 33.94 218.982 33.7C219.355 33.4333 219.769 33.1133 220.222 32.74L220.982 32.1L221.302 31.78C221.462 31.54 221.689 31.3533 221.982 31.22C222.089 31.1667 222.262 30.9667 222.502 30.62C222.929 29.9267 223.302 29.58 223.622 29.58C223.782 29.58 223.862 29.6333 223.862 29.74V30.06C223.835 30.2733 223.649 30.4867 223.302 30.7C223.169 30.78 223.049 30.8733 222.942 30.98C222.835 31.0867 222.689 31.3133 222.502 31.66C222.395 31.82 222.315 31.9267 222.262 31.98C222.209 32.0333 222.115 32.0733 221.982 32.1C221.849 32.1 221.742 32.1933 221.662 32.38C221.582 32.5667 221.422 32.7267 221.182 32.86C221.049 32.9133 220.915 32.9933 220.782 33.1C220.649 33.18 220.409 33.42 220.062 33.82L219.622 34.26C219.409 34.5 219.195 34.6467 218.982 34.7C218.795 34.7533 218.555 34.9133 218.262 35.18C217.729 35.6333 217.382 35.86 217.222 35.86C216.849 35.9133 216.462 36.06 216.062 36.3C215.662 36.5133 215.222 36.62 214.742 36.62L214.462 36.58C214.329 36.58 214.182 36.62 214.022 36.7C213.862 36.78 213.689 36.82 213.502 36.82ZM213.982 30.38C214.435 30.38 214.809 30.2733 215.102 30.06L215.462 29.94C215.782 29.8067 216.142 29.6067 216.542 29.34L216.862 28.94C217.929 27.98 218.462 26.8867 218.462 25.66C218.462 25.6067 218.435 25.5133 218.382 25.38C218.302 25.14 218.129 25.02 217.862 25.02C217.515 25.02 217.169 25.2067 216.822 25.58C216.395 26.06 216.022 26.3533 215.702 26.46C215.595 26.5133 215.502 26.58 215.422 26.66C215.342 26.7133 215.289 26.7933 215.262 26.9C215.262 27.0067 215.142 27.1267 214.902 27.26C214.555 27.5 214.342 27.8067 214.262 28.18C214.182 28.5267 214.022 28.86 213.782 29.18C213.542 29.5 213.422 29.86 213.422 30.26C213.609 30.34 213.795 30.38 213.982 30.38ZM220.441 56.9C220.174 56.9 219.908 56.7933 219.641 56.58C219.614 56.58 219.601 56.5667 219.601 56.54C219.468 56.4867 219.348 56.4067 219.241 56.3C219.108 56.1933 219.041 55.9533 219.041 55.58C219.041 55.0733 219.108 54.4333 219.241 53.66C219.348 52.9133 219.454 52.3667 219.561 52.02L219.721 51.42C219.774 51.0733 219.881 50.7133 220.041 50.34L220.881 47.3C220.961 47.06 221.068 46.86 221.201 46.7C221.308 46.54 221.374 46.42 221.401 46.34C221.428 46.26 221.481 46.1533 221.561 46.02C221.614 45.9133 221.641 45.78 221.641 45.62C221.641 45.2467 221.721 44.9667 221.881 44.78C222.094 44.3533 222.201 43.9 222.201 43.42C222.201 42.9667 222.294 42.4867 222.481 41.98C222.641 41.4733 222.814 40.9667 223.001 40.46L223.401 39.42L223.481 39.3C223.774 38.8733 223.934 38.4467 223.961 38.02C223.988 37.8333 224.041 37.62 224.121 37.38C224.334 36.8467 224.534 36.2867 224.721 35.7C224.961 34.9 225.254 34.1133 225.601 33.34L226.401 30.74C226.694 29.9667 226.868 29.4067 226.921 29.06C227.028 28.5267 227.228 27.94 227.521 27.3C227.868 26.4467 228.041 25.9533 228.041 25.82C228.041 25.74 228.001 25.7 227.921 25.7C227.841 25.7 227.774 25.7267 227.721 25.78C227.668 25.8333 227.561 25.9267 227.401 26.06C227.241 26.1933 227.134 26.3 227.081 26.38C227.028 26.46 226.988 26.5267 226.961 26.58C226.934 26.6333 226.854 26.6867 226.721 26.74C226.481 27.0067 226.268 27.2733 226.081 27.54C225.894 27.8067 225.708 28.0467 225.521 28.26C224.988 28.74 224.668 29.0733 224.561 29.26C223.761 30.22 223.188 30.7533 222.841 30.86L222.761 30.9C222.601 30.9 222.494 30.8733 222.441 30.82C222.388 30.7667 222.361 30.7267 222.361 30.7C222.361 30.4867 222.708 30.06 223.401 29.42C224.174 28.54 224.881 27.7 225.521 26.9C225.574 26.8467 225.654 26.8067 225.761 26.78C226.001 26.7 226.161 26.5133 226.241 26.22C226.348 25.9 226.534 25.6067 226.801 25.34C226.988 25.1533 227.081 25.02 227.081 24.94C227.108 24.86 227.134 24.7933 227.161 24.74C227.188 24.6867 227.201 24.62 227.201 24.54C227.228 24.4333 227.628 23.9533 228.401 23.1L229.281 22.14C229.334 22.0867 229.414 22.0333 229.521 21.98C229.628 21.9267 229.748 21.8067 229.881 21.62C230.121 21.38 230.374 21.22 230.641 21.14C230.668 21.14 230.814 21.26 231.081 21.5C231.348 21.7133 231.481 22.1 231.481 22.66C231.481 23.2467 231.374 23.7533 231.161 24.18C231.161 24.58 230.841 25.42 230.201 26.7C229.988 27.18 229.841 27.54 229.761 27.78C229.761 28.2067 229.708 28.58 229.601 28.9L229.401 29.3C229.161 29.7533 229.014 30.22 228.961 30.7C228.908 31.1533 228.801 31.5 228.641 31.74C228.561 31.8733 228.508 32.0333 228.481 32.22C228.694 32.22 228.934 31.9533 229.201 31.42C229.308 31.2067 229.414 31.0333 229.521 30.9C229.761 30.6333 230.121 30.1533 230.601 29.46C230.654 29.4067 230.721 29.38 230.801 29.38C230.881 29.38 230.934 29.3667 230.961 29.34C231.148 29.0733 231.401 28.78 231.721 28.46C232.334 27.74 232.974 27.0467 233.641 26.38C234.414 25.6067 235.214 24.94 236.041 24.38C236.894 23.82 237.734 23.54 238.561 23.54C239.014 23.54 239.414 23.6333 239.761 23.82C240.108 24.0067 240.361 24.34 240.521 24.82C240.681 25.3 240.761 25.8467 240.761 26.46L240.721 27.3C240.694 27.46 240.561 27.8467 240.321 28.46C240.161 29.4467 239.734 30.4733 239.041 31.54C238.854 31.8333 238.694 32.14 238.561 32.46C238.481 32.5933 238.361 32.7133 238.201 32.82C238.068 32.9267 237.961 33.0467 237.881 33.18C237.374 33.9533 236.614 34.6333 235.601 35.22C234.934 35.62 234.574 35.86 234.521 35.94C234.468 36.02 234.401 36.0867 234.321 36.14C233.601 36.4333 232.894 36.58 232.201 36.58C231.241 36.58 230.428 36.26 229.761 35.62L229.641 35.5C229.561 35.42 229.508 35.3667 229.481 35.34C229.481 35.2867 229.468 35.2467 229.441 35.22C229.441 35.1933 229.428 35.18 229.401 35.18C229.374 35.1533 229.348 35.14 229.321 35.14C229.294 35.1133 229.281 35.02 229.281 34.86C229.281 34.6733 229.334 34.58 229.441 34.58C229.494 34.58 229.534 34.58 229.561 34.58C229.588 34.58 229.761 34.6733 230.081 34.86C230.428 35.0467 230.841 35.14 231.321 35.14C232.254 35.14 233.094 34.7667 233.841 34.02L233.881 33.98C234.094 33.8467 234.281 33.66 234.441 33.42C234.628 33.18 234.908 32.9133 235.281 32.62C235.361 32.5667 235.428 32.54 235.481 32.54C235.561 32.5133 235.641 32.4867 235.721 32.46C235.828 32.4333 235.908 32.26 235.961 31.94C235.988 31.8333 236.028 31.7133 236.081 31.58C236.161 31.4467 236.534 30.82 237.201 29.7C237.468 29.22 237.708 28.66 237.921 28.02C237.921 27.8067 237.961 27.5933 238.041 27.38C238.201 26.98 238.281 26.54 238.281 26.06C238.281 25.2867 238.054 24.8733 237.601 24.82C237.121 24.82 236.548 25.0467 235.881 25.5C235.241 25.9267 234.601 26.5267 233.961 27.3C233.401 27.86 233.068 28.1667 232.961 28.22C232.881 28.2467 232.814 28.2867 232.761 28.34C232.041 29.06 231.494 29.6867 231.121 30.22C230.054 31.5 229.428 32.3 229.241 32.62C228.788 33.2067 228.281 34.0467 227.721 35.14C227.321 35.9133 227.014 36.4467 226.801 36.74C226.668 36.9267 226.521 37.14 226.361 37.38C226.228 37.6467 226.148 37.94 226.121 38.26C225.988 38.8467 225.841 39.2867 225.681 39.58C225.681 39.6333 225.521 40.0333 225.201 40.78C225.068 41.0467 224.974 41.26 224.921 41.42L224.881 41.46C224.881 41.6467 224.854 41.78 224.801 41.86C224.748 41.94 224.654 42.06 224.521 42.22C224.414 42.38 224.361 42.58 224.361 42.82C224.361 43.06 224.108 43.9533 223.601 45.5C223.334 46.3 223.094 46.8733 222.881 47.22L222.481 48.18C222.428 48.2867 222.401 48.4867 222.401 48.78C222.401 49.0733 222.374 49.2733 222.321 49.38C221.868 50.58 221.574 51.7133 221.441 52.78L221.401 52.94C221.374 53.1 221.361 53.4467 221.361 53.98C221.388 54.3 221.401 54.6467 221.401 55.02C221.401 55.3667 221.388 55.6867 221.361 55.98C221.308 56.5933 221.001 56.9 220.441 56.9ZM244.554 37.1C243.674 37.1 243.234 36.58 243.234 35.54C243.234 34.58 243.5 33.5 244.034 32.3C244.22 31.8733 244.38 31.4467 244.514 31.02C244.647 30.5667 244.9 29.9533 245.274 29.18C245.407 28.9133 245.527 28.66 245.634 28.42C245.767 28.1533 245.834 27.9133 245.834 27.7C245.834 27.5133 245.794 27.42 245.714 27.42C245.554 27.42 245.367 27.5533 245.154 27.82C244.354 28.7533 243.487 29.7 242.554 30.66C242.394 30.9 242.127 31.02 241.754 31.02C241.567 31.02 241.474 30.9533 241.474 30.82C241.474 30.74 241.487 30.6867 241.514 30.66C241.674 30.34 241.86 30.1133 242.074 29.98C242.287 29.82 242.447 29.6333 242.554 29.42C242.687 29.2067 242.794 29.0867 242.874 29.06C242.954 29.0333 243.127 28.9 243.394 28.66C243.66 28.3933 243.82 28.22 243.874 28.14C243.954 28.06 243.994 27.9933 243.994 27.94C243.994 27.86 244.1 27.7133 244.314 27.5C244.447 27.3667 244.567 27.2333 244.674 27.1C244.78 26.94 244.954 26.7533 245.194 26.54C245.567 26.2467 245.82 25.9133 245.954 25.54C246.034 25.3267 246.127 25.1133 246.234 24.9C246.367 24.66 246.687 24.4733 247.194 24.34C247.434 24.26 247.7 24.14 247.994 23.98C248.34 23.7133 248.727 23.5133 249.154 23.38C249.367 23.38 249.54 23.42 249.674 23.5C249.807 23.58 249.9 23.6733 249.954 23.78C250.007 23.86 250.034 23.9667 250.034 24.1C250.034 24.3667 249.954 24.6067 249.794 24.82C249.714 25.06 249.674 25.3533 249.674 25.7C249.674 25.94 249.5 26.3 249.154 26.78C248.887 27.2333 248.754 27.5 248.754 27.58C248.754 27.6333 248.74 27.6867 248.714 27.74C248.687 27.7933 248.647 27.8467 248.594 27.9C248.567 27.9533 248.54 28.0333 248.514 28.14C248.487 28.22 248.474 28.34 248.474 28.5C248.474 28.66 248.42 28.82 248.314 28.98C247.754 29.86 247.207 31.1533 246.674 32.86C246.46 33.5533 246.354 34.0333 246.354 34.3C246.407 34.5133 246.594 34.62 246.914 34.62C247.314 34.62 247.78 34.4067 248.314 33.98C248.98 33.4733 249.34 33.1267 249.394 32.94C249.447 32.7533 249.66 32.58 250.034 32.42C250.567 32.0733 250.9 31.78 251.034 31.54C251.114 31.4333 251.207 31.34 251.314 31.26C251.42 31.18 251.527 31.1 251.634 31.02C251.847 30.9133 252.127 30.6867 252.474 30.34C252.714 30.1533 252.914 29.94 253.074 29.7C253.26 29.46 253.474 29.2333 253.714 29.02C254.167 28.5667 254.514 28.1 254.754 27.62C255.074 27.0333 255.42 26.58 255.794 26.26C256.114 26.02 256.407 25.66 256.674 25.18C256.86 24.7267 257.1 24.46 257.394 24.38C257.447 24.38 257.514 24.3533 257.594 24.3C257.7 24.22 257.834 24.18 257.994 24.18C258.074 24.18 258.127 24.1933 258.154 24.22C258.66 24.54 258.914 25.0733 258.914 25.82C258.914 26.0067 258.9 26.1133 258.874 26.14C258.634 26.4867 258.42 26.8867 258.234 27.34C258.074 27.7933 257.874 28.1667 257.634 28.46C257.18 29.0733 256.834 29.9933 256.594 31.22C256.514 31.5667 256.42 31.8867 256.314 32.18C256.234 32.4733 256.194 32.8067 256.194 33.18C256.194 33.9267 256.407 34.4867 256.834 34.86C256.86 34.86 256.9 34.8733 256.954 34.9C257.007 34.9267 257.06 34.94 257.114 34.94C257.407 34.94 257.74 34.8333 258.114 34.62C258.967 34.14 260.194 33.06 261.794 31.38L262.074 31.1C262.5 30.54 262.86 30.26 263.154 30.26L263.434 30.3C263.567 30.3267 263.634 30.3933 263.634 30.5L263.594 30.58C263.487 30.9 263.194 31.2467 262.714 31.62C262.58 31.6733 262.3 31.9133 261.874 32.34C261.714 32.5 261.62 32.62 261.594 32.7C261.567 32.7533 261.54 32.8333 261.514 32.94C261.487 33.0467 261.34 33.1533 261.074 33.26C260.647 33.4467 260.34 33.7267 260.154 34.1C260.02 34.34 259.887 34.5 259.754 34.58C259.62 34.6333 259.487 34.7 259.354 34.78C259.22 34.8333 259.1 34.9133 258.994 35.02C258.78 35.2867 258.514 35.4467 258.194 35.5L257.914 35.62C257.594 35.94 257.26 36.1533 256.914 36.26C256.647 36.34 256.314 36.38 255.914 36.38C255.674 36.38 255.5 36.3533 255.394 36.3C255.314 36.2467 255.247 36.18 255.194 36.1C255.087 35.8867 254.874 35.7533 254.554 35.7C254.234 35.62 254.02 35.4867 253.914 35.3C253.594 34.7667 253.434 34.18 253.434 33.54C253.434 32.8467 253.554 32.1667 253.794 31.5C253.874 31.18 253.927 30.8067 253.954 30.38C253.954 30.2733 253.927 30.22 253.874 30.22L253.714 30.26C253.287 30.66 252.834 31.0333 252.354 31.38C251.9 31.7 251.634 31.9533 251.554 32.14C251.367 32.4067 251.154 32.58 250.914 32.66C250.7 32.74 250.354 33.0467 249.874 33.58C249.714 33.7667 249.527 33.94 249.314 34.1C249.127 34.26 248.9 34.4733 248.634 34.74C248.367 34.98 248.047 35.22 247.674 35.46C247.3 35.7 246.994 35.9533 246.754 36.22C246.514 36.46 246.22 36.6867 245.874 36.9L245.674 36.98C245.62 36.98 245.58 36.9667 245.554 36.94H245.394C245.074 37.0467 244.794 37.1 244.554 37.1Z" fill="#374248"/>
</svg>
