<svg width="275" height="78" viewBox="0 0 275 78" fill="none" xmlns="http://www.w3.org/2000/svg">
<path fill-rule="evenodd" clip-rule="evenodd" d="M275 21.1465C275.008 22.2045 274.18 23.0687 273.139 23.2591C265.703 24.6198 260.064 31.1741 260.064 39C260.064 46.826 265.703 53.3802 273.139 54.7409C274.18 54.9313 275.008 55.7955 275 56.8535C274.953 62.9511 274.694 66.4619 273.266 69.2638C271.732 72.2744 269.285 74.7221 266.274 76.2561C262.852 78 258.371 78 249.41 78H25.6C16.6392 78 12.1588 78 8.73618 76.2561C5.72559 74.7221 3.27789 72.2744 1.74393 69.2638C3.05176e-05 65.8413 3.05176e-05 61.3608 3.05176e-05 52.4V25.6C3.05176e-05 16.6392 3.05176e-05 12.1587 1.74393 8.73615C3.27789 5.72556 5.72559 3.27787 8.73618 1.7439C12.1588 0 16.6392 0 25.6 0H249.41C258.371 0 262.852 0 266.274 1.7439C269.285 3.27787 271.732 5.72556 273.266 8.73615C274.694 11.5381 274.953 15.0489 275 21.1465Z" fill="white"/>
</svg>
