<svg width="24" height="24" viewBox="0 0 24 24" fill="none" xmlns="http://www.w3.org/2000/svg">
<g filter="url(#filter0_b_3324_394)">
<path d="M12.8932 19C6.05996 19 2.1624 13.7447 2 5H5.42286C5.53529 11.4184 8.05871 14.1371 10.0575 14.6977V5H13.2805V10.5355C15.2542 10.2973 17.3279 7.77477 18.0275 5H21.2505C20.9869 6.43908 20.4614 7.80165 19.7069 9.0025C18.9524 10.2033 17.9852 11.2166 16.8657 11.979C18.1153 12.6756 19.2191 13.6615 20.1041 14.8717C20.9891 16.082 21.6353 17.489 22 19H18.4522C18.1248 17.6876 17.4594 16.5128 16.5394 15.6228C15.6194 14.7328 14.4858 14.1673 13.2805 13.997V19H12.8932Z" fill="url(#paint0_linear_3324_394)" fill-opacity="0.35"/>
<path d="M10.3075 14.6977V5.25H13.0305V10.5355V10.8175L13.3104 10.7837C14.3858 10.6539 15.45 9.91139 16.3226 8.88049C17.1611 7.88994 17.8475 6.60508 18.2201 5.25H20.9465C20.6733 6.5498 20.1806 7.7786 19.4952 8.8695C18.7582 10.0426 17.8147 11.0303 16.725 11.7723L16.3904 12.0002L16.744 12.1973C17.9606 12.8755 19.0375 13.8367 19.9023 15.0193C20.7067 16.1193 21.3102 17.3872 21.6781 18.75H18.645C18.2917 17.4711 17.6241 16.3242 16.7133 15.4431C15.7574 14.5185 14.5758 13.9275 13.3154 13.7495L13.0305 13.7092V13.997V18.75H12.8932C9.54837 18.75 6.94134 17.4678 5.1433 15.127C3.37359 12.8231 2.37044 9.47066 2.25578 5.25H5.17841C5.35115 11.5451 7.86352 14.342 9.98996 14.9384L10.3075 15.0275V14.6977Z" stroke="url(#paint1_linear_3324_394)" stroke-opacity="0.8" stroke-width="0.5"/>
<path d="M10.3075 14.6977V5.25H13.0305V10.5355V10.8175L13.3104 10.7837C14.3858 10.6539 15.45 9.91139 16.3226 8.88049C17.1611 7.88994 17.8475 6.60508 18.2201 5.25H20.9465C20.6733 6.5498 20.1806 7.7786 19.4952 8.8695C18.7582 10.0426 17.8147 11.0303 16.725 11.7723L16.3904 12.0002L16.744 12.1973C17.9606 12.8755 19.0375 13.8367 19.9023 15.0193C20.7067 16.1193 21.3102 17.3872 21.6781 18.75H18.645C18.2917 17.4711 17.6241 16.3242 16.7133 15.4431C15.7574 14.5185 14.5758 13.9275 13.3154 13.7495L13.0305 13.7092V13.997V18.75H12.8932C9.54837 18.75 6.94134 17.4678 5.1433 15.127C3.37359 12.8231 2.37044 9.47066 2.25578 5.25H5.17841C5.35115 11.5451 7.86352 14.342 9.98996 14.9384L10.3075 15.0275V14.6977Z" stroke="url(#paint2_linear_3324_394)" stroke-opacity="0.5" stroke-width="0.5"/>
</g>
<mask id="mask0_3324_394" style="mask-type:alpha" maskUnits="userSpaceOnUse" x="2" y="5" width="20" height="14">
<path d="M12.8932 19C6.05996 19 2.1624 13.7447 2 5H5.42286C5.53529 11.4184 8.05871 14.1371 10.0575 14.6977V5H13.2805V10.5355C15.2542 10.2973 17.3279 7.77477 18.0275 5H21.2505C20.9869 6.43908 20.4614 7.80165 19.7069 9.0025C18.9524 10.2033 17.9852 11.2166 16.8657 11.979C18.1153 12.6756 19.2191 13.6615 20.1041 14.8717C20.9891 16.082 21.6353 17.489 22 19H18.4522C18.1248 17.6876 17.4594 16.5128 16.5394 15.6228C15.6194 14.7328 14.4858 14.1673 13.2805 13.997V19H12.8932Z" fill="url(#paint3_linear_3324_394)" fill-opacity="0.5"/>
<path d="M10.3075 14.6977V5.25H13.0305V10.5355V10.8175L13.3104 10.7837C14.3858 10.6539 15.45 9.91139 16.3226 8.88049C17.1611 7.88994 17.8475 6.60508 18.2201 5.25H20.9465C20.6733 6.5498 20.1806 7.7786 19.4952 8.8695C18.7582 10.0426 17.8147 11.0303 16.725 11.7723L16.3904 12.0002L16.744 12.1973C17.9606 12.8755 19.0375 13.8367 19.9023 15.0193C20.7067 16.1193 21.3102 17.3872 21.6781 18.75H18.645C18.2917 17.4711 17.6241 16.3242 16.7133 15.4431C15.7574 14.5185 14.5758 13.9275 13.3154 13.7495L13.0305 13.7092V13.997V18.75H12.8932C9.54837 18.75 6.94134 17.4678 5.1433 15.127C3.37359 12.8231 2.37044 9.47066 2.25578 5.25H5.17841C5.35115 11.5451 7.86352 14.342 9.98996 14.9384L10.3075 15.0275V14.6977Z" stroke="url(#paint4_linear_3324_394)" stroke-opacity="0.8" stroke-width="0.5"/>
<path d="M10.3075 14.6977V5.25H13.0305V10.5355V10.8175L13.3104 10.7837C14.3858 10.6539 15.45 9.91139 16.3226 8.88049C17.1611 7.88994 17.8475 6.60508 18.2201 5.25H20.9465C20.6733 6.5498 20.1806 7.7786 19.4952 8.8695C18.7582 10.0426 17.8147 11.0303 16.725 11.7723L16.3904 12.0002L16.744 12.1973C17.9606 12.8755 19.0375 13.8367 19.9023 15.0193C20.7067 16.1193 21.3102 17.3872 21.6781 18.75H18.645C18.2917 17.4711 17.6241 16.3242 16.7133 15.4431C15.7574 14.5185 14.5758 13.9275 13.3154 13.7495L13.0305 13.7092V13.997V18.75H12.8932C9.54837 18.75 6.94134 17.4678 5.1433 15.127C3.37359 12.8231 2.37044 9.47066 2.25578 5.25H5.17841C5.35115 11.5451 7.86352 14.342 9.98996 14.9384L10.3075 15.0275V14.6977Z" stroke="url(#paint5_linear_3324_394)" stroke-opacity="0.5" stroke-width="0.5"/>
</mask>
<g mask="url(#mask0_3324_394)">
</g>
<defs>
<filter id="filter0_b_3324_394" x="-13" y="-10" width="50" height="44" filterUnits="userSpaceOnUse" color-interpolation-filters="sRGB">
<feFlood flood-opacity="0" result="BackgroundImageFix"/>
<feGaussianBlur in="BackgroundImageFix" stdDeviation="7.5"/>
<feComposite in2="SourceAlpha" operator="in" result="effect1_backgroundBlur_3324_394"/>
<feBlend mode="normal" in="SourceGraphic" in2="effect1_backgroundBlur_3324_394" result="shape"/>
</filter>
<linearGradient id="paint0_linear_3324_394" x1="-0.222222" y1="5" x2="14.4082" y2="24.3325" gradientUnits="userSpaceOnUse">
<stop stop-color="#AEDEFD" stop-opacity="0.95"/>
<stop offset="1" stop-color="#6198BA"/>
</linearGradient>
<linearGradient id="paint1_linear_3324_394" x1="3.45454" y1="4.51163" x2="8.80427" y2="14.2449" gradientUnits="userSpaceOnUse">
<stop stop-color="white"/>
<stop offset="1" stop-color="white" stop-opacity="0"/>
</linearGradient>
<linearGradient id="paint2_linear_3324_394" x1="22" y1="20.3023" x2="18.962" y2="11.178" gradientUnits="userSpaceOnUse">
<stop stop-color="white"/>
<stop offset="1" stop-color="white" stop-opacity="0"/>
</linearGradient>
<linearGradient id="paint3_linear_3324_394" x1="-0.222222" y1="5" x2="14.4082" y2="24.3325" gradientUnits="userSpaceOnUse">
<stop stop-color="#AEDEFD" stop-opacity="0.95"/>
<stop offset="1" stop-color="#6198BA"/>
</linearGradient>
<linearGradient id="paint4_linear_3324_394" x1="3.45454" y1="4.51163" x2="8.80427" y2="14.2449" gradientUnits="userSpaceOnUse">
<stop stop-color="white"/>
<stop offset="1" stop-color="white" stop-opacity="0"/>
</linearGradient>
<linearGradient id="paint5_linear_3324_394" x1="22" y1="20.3023" x2="18.962" y2="11.178" gradientUnits="userSpaceOnUse">
<stop stop-color="white"/>
<stop offset="1" stop-color="white" stop-opacity="0"/>
</linearGradient>
</defs>
</svg>
