<svg width="137" height="32" viewBox="0 0 137 32" fill="none" xmlns="http://www.w3.org/2000/svg">
<path fill-rule="evenodd" clip-rule="evenodd" d="M20.5607 14.8162C20.3793 14.5687 20.215 14.2769 20.0384 14.0002L18.4753 11.4983C17.7906 10.3631 17.0813 9.28457 16.39 8.16446C15.3927 6.54663 14.2008 4.74181 13.2611 3.16648C13.1393 2.96248 12.6378 2.07093 12.4423 1.97082C12.3034 1.89904 12.1325 1.83482 11.9861 1.76776C10.729 1.18976 9.45688 0.675044 8.24894 0.0876017C7.84944 -0.106953 7.59161 0.0857128 7.25066 0.257601C6.96166 0.403989 6.62639 0.554155 6.32605 0.688266L3.55506 1.97932C3.42001 2.04543 3.42379 2.03315 3.41623 2.18898C3.41151 2.2872 3.41907 2.41659 3.41907 2.51954C3.40207 11.2887 3.38507 20.0588 3.36618 28.8288C3.36618 29.098 3.32934 29.387 3.35957 29.6524C3.37562 29.7912 3.41245 29.9442 3.52012 30.0415C3.64006 30.1482 6.81055 31.5073 7.24027 31.7037C7.84188 31.9785 7.89383 32.0749 8.1781 31.9389L10.9906 30.6856C11.1767 30.6072 12.2732 30.1425 12.3884 30.033C12.5471 29.8809 12.548 29.8035 12.5452 29.5409C12.5282 27.738 12.5452 25.9256 12.5452 24.1217C12.5452 22.3179 12.5188 20.5177 12.5471 18.728L20.9252 29.9565C20.9998 30.0396 21.8716 30.4485 22.0066 30.5128C22.8254 30.9 23.6509 31.273 24.4735 31.6527C24.9495 31.8728 24.9873 32.1004 25.5322 31.8614C25.5445 31.8558 25.5568 31.8501 25.569 31.8454C25.5993 31.8321 25.6304 31.818 25.6606 31.8048C25.672 31.7991 25.6833 31.7944 25.6956 31.7896C25.7013 31.7868 25.7069 31.7849 25.7126 31.7821C25.7249 31.7764 25.7371 31.7717 25.7494 31.766C25.7674 31.7585 25.7853 31.75 25.8023 31.7424C25.808 31.7396 25.8136 31.7377 25.8193 31.7349C25.825 31.732 25.8306 31.7301 25.8363 31.7273C25.8429 31.7245 25.8486 31.7216 25.8552 31.7188C25.892 31.7028 25.9289 31.6867 25.9648 31.6697C26.0073 31.6508 26.0507 31.6319 26.0932 31.613C26.0989 31.6102 26.1045 31.6083 26.1111 31.6055C26.1603 31.5838 26.2094 31.562 26.2575 31.5413C26.2764 31.5328 26.2944 31.5252 26.3133 31.5167C26.3491 31.5006 26.385 31.4846 26.4209 31.4695C26.4445 31.4591 26.4681 31.4487 26.4918 31.4383C26.504 31.4327 26.5163 31.427 26.5286 31.4223C26.5399 31.4166 26.5522 31.4119 26.5645 31.4062C26.5701 31.4034 26.5768 31.4005 26.5824 31.3977C26.5881 31.3949 26.5938 31.393 26.6004 31.3902C26.6117 31.3854 26.624 31.3798 26.6363 31.375C26.6419 31.3722 26.6476 31.3703 26.6533 31.3675C26.6835 31.3543 26.7128 31.341 26.743 31.3278C26.7553 31.3231 26.7666 31.3174 26.7789 31.3127C26.7902 31.308 26.8025 31.3023 26.8138 31.2976C26.8195 31.2948 26.8251 31.2929 26.8308 31.29C26.8365 31.2872 26.8431 31.2853 26.8488 31.2815C26.8601 31.2768 26.8714 31.2712 26.8828 31.2664C26.9621 31.2315 27.0414 31.1965 27.1217 31.1616C27.1585 31.1455 27.1944 31.1295 27.2313 31.1134C27.236 31.1115 27.2398 31.1097 27.2445 31.1078C27.2568 31.103 27.269 31.0974 27.2813 31.0917C27.2983 31.0842 27.3153 31.0766 27.3323 31.069C27.338 31.0662 27.3436 31.0643 27.3503 31.0615C27.3559 31.0587 27.3625 31.0568 27.3682 31.053C27.3748 31.0502 27.3805 31.0483 27.3871 31.0445C27.405 31.0369 27.4239 31.0284 27.4419 31.0209C27.4532 31.0162 27.4655 31.0105 27.4768 31.0048C27.4825 31.002 27.4891 31.0001 27.4948 30.9973C27.5061 30.9925 27.5184 30.9869 27.5297 30.9822C27.5476 30.9737 27.5656 30.9661 27.5835 30.9585C27.6081 30.9482 27.6326 30.9368 27.6563 30.9264C27.6629 30.9236 27.6685 30.9217 27.6751 30.9179C27.6818 30.9151 27.6874 30.9123 27.694 30.9104C27.7006 30.9075 27.7063 30.9047 27.712 30.9019C27.7233 30.8962 27.7356 30.8915 27.7479 30.8858C27.7724 30.8754 27.796 30.8641 27.8215 30.8537C27.8329 30.849 27.8442 30.8433 27.8565 30.8386C27.8801 30.8282 27.9037 30.8178 27.9282 30.8065C27.9424 30.7999 27.9566 30.7942 27.9717 30.7876C29.9267 29.9121 29.7454 30.2304 29.7435 29.064L29.6906 2.66687C29.6896 2.00104 29.7595 2.06904 29.3128 1.87259C28.0501 1.31726 26.6551 0.629711 25.3783 0.0573796C25.0307 -0.0984531 24.7974 0.0979906 24.5132 0.233046C24.2572 0.353934 24.0003 0.473878 23.7359 0.592878C22.9737 0.93571 22.2106 1.28043 21.4579 1.64215C21.2473 1.74321 21.0319 1.8471 20.827 1.95948C20.7883 1.98026 20.6749 2.03787 20.6513 2.06809C20.6173 2.11343 20.6287 2.20409 20.6296 2.25982C20.6315 2.34293 20.6287 2.42982 20.6277 2.51387C20.6277 2.6357 20.6258 2.75754 20.6258 2.88031C20.6249 3.1457 20.623 3.41109 20.6221 3.67648C20.6211 3.8767 20.6202 4.07692 20.6192 4.27714C20.6192 4.30736 20.6192 4.33759 20.6192 4.36781C20.6192 4.50097 20.6183 4.63508 20.6173 4.76825C20.6173 4.83342 20.6173 4.89858 20.6164 4.96375C20.6164 4.99586 20.6164 5.02703 20.6164 5.05914C20.6164 5.09219 20.6164 5.12619 20.6164 5.15925C20.6164 5.25747 20.6154 5.35664 20.6145 5.45486C20.6145 5.55497 20.6136 5.65508 20.6136 5.75519C20.6136 5.78541 20.6136 5.81564 20.6136 5.84491C20.6136 5.87702 20.6136 5.90819 20.6136 5.9403C20.6136 6.00736 20.6136 6.07441 20.6126 6.14052C20.6126 6.20569 20.6126 6.27086 20.6117 6.33602C20.6117 6.40308 20.6117 6.46919 20.6117 6.53624C20.6117 6.56836 20.6117 6.59952 20.6117 6.63163C20.6117 6.69869 20.6117 6.7648 20.6117 6.83185C20.6117 6.86397 20.6117 6.89513 20.6117 6.92724C20.6117 6.99241 20.6117 7.05758 20.6107 7.12274C20.6107 7.18791 20.6107 7.25307 20.6107 7.31824C20.6107 7.34657 20.6107 7.37491 20.6107 7.40324C20.6107 7.4703 20.6107 7.53641 20.6107 7.60346C20.6107 7.69791 20.6098 7.79424 20.6088 7.88868C20.6069 8.12102 20.606 8.35335 20.6051 8.58568C20.6051 8.65274 20.6051 8.71885 20.6041 8.7859C20.6041 8.84918 20.6041 8.91246 20.6032 8.97668C20.6032 9.01068 20.6032 9.04373 20.6032 9.07679C20.6032 9.20712 20.6013 9.33746 20.6013 9.46779C20.6003 9.70012 20.5994 9.93151 20.5975 10.1638C20.5975 10.229 20.5975 10.2942 20.5975 10.3593C20.5975 10.4245 20.5975 10.4897 20.5966 10.5548C20.5966 10.5851 20.5966 10.6153 20.5966 10.6455C20.5956 10.7787 20.5956 10.9128 20.5947 11.0459C20.5947 11.1791 20.5928 11.3132 20.5928 11.4464C20.5909 11.8091 20.589 12.1717 20.5871 12.5334C20.5871 12.6336 20.5862 12.7337 20.5852 12.8338C20.5852 12.8659 20.5852 12.8971 20.5852 12.9292C20.5852 12.9575 20.5852 12.9858 20.5852 13.0142C20.5852 13.0472 20.5852 13.0803 20.5852 13.1143C20.5852 13.3126 20.5833 13.5119 20.5824 13.7102C20.5824 13.8774 20.5805 14.0445 20.5796 14.2108V14.411C20.5777 14.4743 20.5777 14.5375 20.5777 14.6018C20.5777 14.6735 20.5777 14.7453 20.5767 14.8171L20.5607 14.8162ZM4.27378 2.18993C4.39278 2.09265 7.84283 0.532433 7.90988 0.528656C7.94577 0.526767 11.3816 2.06809 11.5195 2.18993C11.3703 2.30515 8.00999 3.85875 7.9316 3.84175C7.80222 3.81248 4.36067 2.25793 4.27378 2.18993ZM21.4749 2.18993C21.5958 2.08887 25.0572 0.514489 25.1601 0.536211C25.2555 0.556989 25.9534 0.896987 26.0838 0.962154L28.8179 2.23337C28.6507 2.3467 27.2766 2.93131 26.9744 3.06542C26.7184 3.17876 25.2791 3.87292 25.1403 3.84081C24.9835 3.80492 21.5656 2.26265 21.4749 2.18993ZM12.2505 2.5337C12.7898 3.38087 13.3055 4.24598 13.8636 5.09125C14.9148 6.68263 16.0264 8.60457 17.0842 10.2177C17.632 11.0545 18.159 11.9167 18.6831 12.7554C19.2262 13.6233 19.739 14.4724 20.2915 15.3214C20.8468 16.1743 21.3464 17.0384 21.9037 17.8837L24.3205 21.7285C24.4622 21.958 24.5925 22.1932 24.7323 22.4236C24.8003 22.5351 24.8739 22.656 24.9542 22.758C25.0024 22.8184 25.1138 22.9554 25.2054 22.9091C25.3131 22.8552 25.3546 22.5681 25.3688 22.4642C25.4009 22.2281 25.416 21.9986 25.4151 21.7606C25.4151 21.7115 25.4141 21.6634 25.4141 21.6152V4.32247L29.2221 2.60548V29.6127C29.139 29.7459 28.4382 30.015 28.2446 30.1085L25.281 31.4449L23.1588 28.0506C22.4297 26.9286 21.7431 25.7726 21.0282 24.6535C20.3019 23.5173 19.6049 22.4066 18.8966 21.2563L16.7782 17.8837C16.0755 16.7334 15.3644 15.6369 14.6466 14.4865C13.6001 12.8083 12.4508 11.0365 11.444 9.37712C11.0747 8.76796 8.43877 4.65586 8.27821 4.3187L12.2505 2.5337ZM3.88562 2.6017L7.60105 4.2507C7.71627 4.32436 10.0481 8.09268 10.2833 8.48935C10.4703 8.80479 10.6771 9.11646 10.8754 9.43568L16.2068 17.9432C17.3496 19.8141 18.5877 21.72 19.7636 23.6117C20.5512 24.8801 21.3398 26.1447 22.1322 27.3952C22.9218 28.6409 23.7208 29.896 24.4744 31.138C24.192 31.0539 21.9178 29.9206 21.4466 29.692C21.2208 29.5825 21.2671 29.6231 21.1264 29.4257C21.0452 29.3124 20.9762 29.2208 20.8941 29.1084L8.2461 12.0622C8.01471 11.7467 7.68983 11.861 7.69172 12.3294C7.72572 18.6553 7.69833 25.069 7.68888 31.3968L3.88562 29.6533V2.6017ZM22.6611 18.151C22.2899 17.5626 21.9169 16.9836 21.5618 16.3943C21.3493 16.043 21.0848 15.7559 21.082 15.4461L21.0839 8.30424C21.0839 7.26535 21.031 3.28359 21.0943 2.59698L24.8919 4.31303C24.8919 4.53497 24.8919 4.75692 24.8919 4.97981V5.27542C24.8919 5.30847 24.8919 5.34247 24.8919 5.37553V5.86191C24.8919 5.99225 24.8919 6.12258 24.8919 6.25291C24.8919 6.65335 24.8919 7.0538 24.8919 7.45519C24.8919 7.82068 24.8919 8.18618 24.8919 8.55262V8.64801C24.8919 8.74813 24.8919 8.84824 24.8919 8.94835V9.44418C24.8919 9.77851 24.8919 10.1119 24.8919 10.4462V10.5463C24.8919 10.7466 24.8919 10.9477 24.8919 11.1479V11.6391C24.8919 11.7354 24.8919 11.8327 24.8919 11.929C24.8919 12.3965 24.8919 12.864 24.8919 13.3324V13.4278C24.8919 13.5279 24.8919 13.6281 24.8919 13.7282V14.3043C24.8919 14.5026 24.8919 14.7019 24.8919 14.9002V14.9899C24.8919 15.057 24.8919 15.124 24.8919 15.1902C24.8919 15.5878 24.8919 15.9844 24.8919 16.382V17.0686C24.8919 17.1688 24.8919 17.2689 24.8919 17.369C24.8919 17.5352 24.8919 17.7024 24.8919 17.8695C24.8919 18.0669 24.8919 18.2634 24.8919 18.4608V18.9623C24.8919 19.3278 24.8919 19.6942 24.8919 20.0597V20.1494C24.8919 20.3836 24.8919 20.6169 24.8919 20.8511C24.8919 21.1146 24.8919 21.3791 24.8919 21.6426C24.8919 21.6709 24.8938 21.6709 24.8787 21.6464C24.8078 21.5349 24.7379 21.4225 24.6671 21.3111C24.5783 21.1704 24.4886 21.0287 24.3998 20.888C24.311 20.7482 24.2232 20.6084 24.1354 20.4686C24.0825 20.3855 24.0296 20.3024 23.9767 20.2193C23.8879 20.0776 23.7982 19.9369 23.7094 19.7953C23.6377 19.6829 23.5668 19.5695 23.495 19.4562C23.4412 19.3712 23.3883 19.2871 23.3345 19.2021C23.2467 19.0624 23.1579 18.9226 23.07 18.7828C23.053 18.7564 23.036 18.729 23.019 18.7025C23.002 18.6751 22.985 18.6487 22.968 18.6223C22.9152 18.5391 22.8632 18.4551 22.8103 18.372C22.764 18.2983 22.7168 18.2246 22.6715 18.1519L22.6611 18.151ZM8.21777 12.9103C8.36888 13.0227 8.67677 13.4864 8.7901 13.6422L11.5148 17.3236C11.6536 17.5116 12.0069 17.8941 12.0239 18.1123L12.022 29.6118C11.9889 29.7204 10.2597 30.4589 10.1303 30.5222C9.81199 30.6771 9.50599 30.8037 9.17732 30.9585C8.93649 31.0728 8.45199 31.3193 8.21305 31.3807L8.21683 12.9093L8.21777 12.9103Z" fill="#FFB81C"/>
<g clip-path="url(#clip0_52_2437)">
<path d="M65.0639 10.9226V19.7365C65.0639 20.4767 65.6635 21.0762 66.4037 21.0762H76.7734V24.0002H66.1609C63.9419 24.0002 62.1416 22.2 62.1416 19.981V9.34C62.1416 8.59978 62.7411 8.00024 63.4814 8.00024H76.7734V10.9226H65.0639Z" fill="white"/>
<path d="M96.2778 8.00024V10.9226H89.9241V24.0002H87.0017V10.9226H80.6714V8.00024H96.2778Z" fill="white"/>
<path d="M75.426 14.4394H66.2588V17.3617H75.426V14.4394Z" fill="white"/>
<path d="M103.514 10.9226V19.7365C103.514 20.4767 104.114 21.0762 104.854 21.0762H115.224V24.0002H104.611C102.392 24.0002 100.592 22.2 100.592 19.981V9.34C100.592 8.59978 101.191 8.00024 101.932 8.00024H115.224V10.9226H103.514Z" fill="white"/>
<path d="M113.876 14.4394H104.709V17.3617H113.876V14.4394Z" fill="white"/>
<path d="M56.6467 8.00024V22.3724C56.6467 23.2718 55.9182 24.0002 55.0189 24.0002C54.5885 24.0002 54.1765 23.8261 53.8784 23.5163L53.7243 23.3555L51.5322 21.0762L43.4702 12.6994V24.0002H40.5479V9.78212C40.5479 8.7974 41.345 8.00024 42.3297 8.00024C42.7601 8.00024 43.1721 8.17609 43.4702 8.4859L45.8148 10.9226L53.7243 19.1403V8.00024H56.6467Z" fill="white"/>
<path d="M136.451 24.0002H132.608L130.112 21.0762L127.644 18.1857L125.147 21.0762L122.62 24.0002H118.758L121.285 21.0762L125.726 15.9366L121.446 10.9226L118.952 8.00024H122.794L125.289 10.9226L127.659 13.6992L130.059 10.9226L132.582 8.00024H136.444L133.919 10.9226L129.578 15.9483L133.954 21.0762L136.451 24.0002Z" fill="white"/>
</g>
<defs>
<clipPath id="clip0_52_2437">
<rect width="95.9029" height="16" fill="white" transform="translate(40.5483 8)"/>
</clipPath>
</defs>
</svg>
