<svg width="136" height="32" viewBox="0 0 136 32" fill="none" xmlns="http://www.w3.org/2000/svg">
<path fill-rule="evenodd" clip-rule="evenodd" d="M20.0612 14.8162C19.8798 14.5687 19.7155 14.2769 19.5389 14.0002L17.9758 11.4983C17.2911 10.3631 16.5818 9.28457 15.8905 8.16446C14.8932 6.54663 13.7013 4.74181 12.7616 3.16648C12.6397 2.96248 12.1382 2.07093 11.9427 1.97082C11.8039 1.89904 11.633 1.83482 11.4866 1.76776C10.2295 1.18976 8.95736 0.675044 7.74942 0.0876017C7.34993 -0.106953 7.09209 0.0857128 6.75115 0.257601C6.46215 0.403989 6.12687 0.554155 5.82654 0.688266L3.05555 1.97932C2.9205 2.04543 2.92428 2.03315 2.91672 2.18898C2.912 2.2872 2.91955 2.41659 2.91955 2.51954C2.90255 11.2887 2.88555 20.0587 2.86666 28.8288C2.86666 29.098 2.82983 29.387 2.86005 29.6524C2.87611 29.7912 2.91294 29.9442 3.02061 30.0415C3.14055 30.1482 6.31104 31.5073 6.74076 31.7037C7.34237 31.9785 7.39431 32.0749 7.67859 31.9389L10.4911 30.6856C10.6772 30.6072 11.7737 30.1425 11.8889 30.033C12.0476 29.8809 12.0485 29.8035 12.0457 29.5409C12.0287 27.738 12.0457 25.9256 12.0457 24.1217C12.0457 22.3179 12.0192 20.5177 12.0476 18.728L20.4257 29.9565C20.5003 30.0396 21.372 30.4485 21.5071 30.5128C22.3259 30.9 23.1514 31.273 23.974 31.6527C24.45 31.8728 24.4878 32.1004 25.0327 31.8614C25.045 31.8558 25.0572 31.8501 25.0695 31.8454C25.0997 31.8321 25.1309 31.818 25.1611 31.8048C25.1725 31.7991 25.1838 31.7944 25.1961 31.7896C25.2017 31.7868 25.2074 31.7849 25.2131 31.7821C25.2254 31.7764 25.2376 31.7717 25.2499 31.766C25.2679 31.7585 25.2858 31.75 25.3028 31.7424C25.3085 31.7396 25.3141 31.7377 25.3198 31.7349C25.3255 31.732 25.3311 31.7301 25.3368 31.7273C25.3434 31.7245 25.3491 31.7217 25.3557 31.7188C25.3925 31.7028 25.4294 31.6867 25.4652 31.6697C25.5077 31.6508 25.5512 31.6319 25.5937 31.613C25.5994 31.6102 25.605 31.6083 25.6116 31.6055C25.6607 31.5838 25.7099 31.562 25.758 31.5413C25.7769 31.5328 25.7949 31.5252 25.8137 31.5167C25.8496 31.5006 25.8855 31.4846 25.9214 31.4695C25.945 31.4591 25.9686 31.4487 25.9922 31.4383C26.0045 31.4327 26.0168 31.427 26.0291 31.4223C26.0404 31.4166 26.0527 31.4119 26.065 31.4062C26.0706 31.4034 26.0772 31.4005 26.0829 31.3977C26.0886 31.3949 26.0942 31.393 26.1009 31.3902C26.1122 31.3854 26.1245 31.3798 26.1367 31.375C26.1424 31.3722 26.1481 31.3703 26.1537 31.3675C26.184 31.3543 26.2132 31.341 26.2435 31.3278C26.2557 31.3231 26.2671 31.3174 26.2794 31.3127C26.2907 31.308 26.303 31.3023 26.3143 31.2976C26.32 31.2948 26.3256 31.2929 26.3313 31.29C26.337 31.2872 26.3436 31.2853 26.3492 31.2815C26.3606 31.2768 26.3719 31.2712 26.3832 31.2664C26.4626 31.2315 26.5419 31.1965 26.6222 31.1616C26.659 31.1455 26.6949 31.1295 26.7317 31.1134C26.7365 31.1115 26.7402 31.1097 26.745 31.1078C26.7572 31.103 26.7695 31.0974 26.7818 31.0917C26.7988 31.0842 26.8158 31.0766 26.8328 31.069C26.8385 31.0662 26.8441 31.0643 26.8507 31.0615C26.8564 31.0587 26.863 31.0568 26.8687 31.053C26.8753 31.0502 26.881 31.0483 26.8876 31.0445C26.9055 31.0369 26.9244 31.0284 26.9424 31.0209C26.9537 31.0162 26.966 31.0105 26.9773 31.0048C26.983 31.002 26.9896 31.0001 26.9952 30.9973C27.0066 30.9925 27.0189 30.9869 27.0302 30.9822C27.0481 30.9737 27.0661 30.9661 27.084 30.9585C27.1086 30.9482 27.1331 30.9368 27.1567 30.9264C27.1634 30.9236 27.169 30.9217 27.1756 30.9179C27.1822 30.9151 27.1879 30.9123 27.1945 30.9104C27.2011 30.9075 27.2068 30.9047 27.2125 30.9019C27.2238 30.8962 27.2361 30.8915 27.2483 30.8858C27.2729 30.8754 27.2965 30.8641 27.322 30.8537C27.3334 30.849 27.3447 30.8433 27.357 30.8386C27.3806 30.8282 27.4042 30.8178 27.4287 30.8065C27.4429 30.7999 27.4571 30.7942 27.4722 30.7876C29.4272 29.9121 29.2458 30.2304 29.244 29.064L29.1911 2.66687C29.1901 2.00104 29.26 2.06904 28.8133 1.87259C27.5506 1.31726 26.1556 0.629711 24.8787 0.0573796C24.5312 -0.0984531 24.2979 0.0979906 24.0136 0.233046C23.7577 0.353934 23.5008 0.473878 23.2364 0.592878C22.4742 0.93571 21.7111 1.28043 20.9584 1.64215C20.7478 1.74321 20.5324 1.8471 20.3275 1.95948C20.2888 1.98026 20.1754 2.03787 20.1518 2.06809C20.1178 2.11343 20.1292 2.20409 20.1301 2.25982C20.132 2.34293 20.1292 2.42982 20.1282 2.51387C20.1282 2.6357 20.1263 2.75754 20.1263 2.88031C20.1254 3.1457 20.1235 3.41109 20.1225 3.67648C20.1216 3.8767 20.1207 4.07692 20.1197 4.27714C20.1197 4.30736 20.1197 4.33759 20.1197 4.36781C20.1197 4.50097 20.1188 4.63508 20.1178 4.76825C20.1178 4.83342 20.1178 4.89858 20.1169 4.96375C20.1169 4.99586 20.1169 5.02703 20.1169 5.05914C20.1169 5.09219 20.1169 5.12619 20.1169 5.15925C20.1169 5.25747 20.1159 5.35664 20.115 5.45486C20.115 5.55497 20.114 5.65508 20.114 5.75519C20.114 5.78541 20.114 5.81564 20.114 5.84491C20.114 5.87702 20.114 5.90819 20.114 5.9403C20.114 6.00736 20.114 6.07441 20.1131 6.14052C20.1131 6.20569 20.1131 6.27086 20.1122 6.33602C20.1122 6.40308 20.1122 6.46919 20.1122 6.53624C20.1122 6.56835 20.1122 6.59952 20.1122 6.63163C20.1122 6.69869 20.1122 6.7648 20.1122 6.83185C20.1122 6.86396 20.1122 6.89513 20.1122 6.92724C20.1122 6.99241 20.1122 7.05758 20.1112 7.12274C20.1112 7.18791 20.1112 7.25307 20.1112 7.31824C20.1112 7.34657 20.1112 7.37491 20.1112 7.40324C20.1112 7.4703 20.1112 7.53641 20.1112 7.60346C20.1112 7.69791 20.1103 7.79424 20.1093 7.88868C20.1074 8.12102 20.1065 8.35335 20.1055 8.58568C20.1055 8.65274 20.1055 8.71885 20.1046 8.7859C20.1046 8.84918 20.1046 8.91246 20.1037 8.97668C20.1037 9.01068 20.1037 9.04373 20.1037 9.07679C20.1037 9.20712 20.1018 9.33746 20.1018 9.46779C20.1008 9.70012 20.0999 9.93151 20.098 10.1638C20.098 10.229 20.098 10.2942 20.098 10.3593C20.098 10.4245 20.098 10.4897 20.097 10.5548C20.097 10.5851 20.097 10.6153 20.097 10.6455C20.0961 10.7787 20.0961 10.9128 20.0952 11.0459C20.0952 11.1791 20.0933 11.3132 20.0933 11.4464C20.0914 11.8091 20.0895 12.1717 20.0876 12.5334C20.0876 12.6336 20.0867 12.7337 20.0857 12.8338C20.0857 12.8659 20.0857 12.8971 20.0857 12.9292C20.0857 12.9575 20.0857 12.9858 20.0857 13.0142C20.0857 13.0472 20.0857 13.0803 20.0857 13.1143C20.0857 13.3126 20.0838 13.5119 20.0829 13.7102C20.0829 13.8774 20.081 14.0445 20.08 14.2108V14.411C20.0782 14.4743 20.0782 14.5375 20.0782 14.6018C20.0782 14.6735 20.0782 14.7453 20.0772 14.8171L20.0612 14.8162ZM3.77427 2.18993C3.89327 2.09265 7.34331 0.532433 7.41037 0.528656C7.44626 0.526767 10.8821 2.06809 11.02 2.18993C10.8708 2.30515 7.51048 3.85875 7.43209 3.84175C7.3027 3.81248 3.86116 2.25793 3.77427 2.18993ZM20.9754 2.18993C21.0963 2.08887 24.5576 0.514489 24.6606 0.536211C24.756 0.556989 25.4539 0.896987 25.5842 0.962154L28.3184 2.23337C28.1512 2.3467 26.7771 2.93131 26.4749 3.06542C26.2189 3.17876 24.7796 3.87292 24.6407 3.84081C24.484 3.80492 21.066 2.26265 20.9754 2.18993ZM11.751 2.5337C12.2903 3.38087 12.806 4.24597 13.3641 5.09125C14.4153 6.68263 15.5269 8.60457 16.5847 10.2177C17.1324 11.0544 17.6594 11.9167 18.1836 12.7554C18.7267 13.6233 19.2395 14.4724 19.792 15.3214C20.3473 16.1743 20.8469 17.0384 21.4042 17.8837L23.821 21.7285C23.9626 21.958 24.093 22.1932 24.2328 22.4236C24.3008 22.5351 24.3744 22.656 24.4547 22.758C24.5029 22.8184 24.6143 22.9554 24.7059 22.9091C24.8136 22.8552 24.8551 22.5681 24.8693 22.4642C24.9014 22.2281 24.9165 21.9986 24.9156 21.7606C24.9156 21.7115 24.9146 21.6634 24.9146 21.6152V4.32247L28.7226 2.60548V29.6127C28.6395 29.7459 27.9387 30.015 27.7451 30.1085L24.7815 31.4449L22.6593 28.0506C21.9302 26.9286 21.2436 25.7726 20.5287 24.6535C19.8024 23.5173 19.1054 22.4066 18.3971 21.2563L16.2787 17.8837C15.576 16.7334 14.8648 15.6369 14.1471 14.4865C13.1006 12.8083 11.9512 11.0365 10.9445 9.37712C10.5752 8.76796 7.93926 4.65586 7.7787 4.3187L11.751 2.5337ZM3.38611 2.6017L7.10154 4.2507C7.21676 4.32436 9.54858 8.09268 9.78375 8.48935C9.97075 8.80479 10.1776 9.11646 10.3759 9.43568L15.7073 17.9432C16.8501 19.8141 18.0882 21.72 19.264 23.6117C20.0517 24.8801 20.8403 26.1447 21.6327 27.3952C22.4223 28.6409 23.2213 29.896 23.9749 31.138C23.6925 31.0539 21.4183 29.9206 20.947 29.692C20.7213 29.5825 20.7676 29.6231 20.6269 29.4257C20.5457 29.3124 20.4767 29.2208 20.3945 29.1084L7.74659 12.0622C7.5152 11.7467 7.19032 11.861 7.1922 12.3294C7.2262 18.6553 7.19882 25.069 7.18937 31.3968L3.38611 29.6533V2.6017ZM22.1616 18.151C21.7904 17.5626 21.4174 16.9836 21.0623 16.3943C20.8498 16.043 20.5853 15.7559 20.5825 15.4461L20.5844 8.30424C20.5844 7.26535 20.5315 3.28359 20.5948 2.59698L24.3924 4.31303C24.3924 4.53497 24.3924 4.75692 24.3924 4.97981V5.27542C24.3924 5.30847 24.3924 5.34247 24.3924 5.37553V5.86191C24.3924 5.99225 24.3924 6.12258 24.3924 6.25291C24.3924 6.65335 24.3924 7.0538 24.3924 7.45519C24.3924 7.82068 24.3924 8.18618 24.3924 8.55262V8.64801C24.3924 8.74812 24.3924 8.84824 24.3924 8.94835V9.44418C24.3924 9.77851 24.3924 10.1119 24.3924 10.4462V10.5463C24.3924 10.7466 24.3924 10.9477 24.3924 11.1479V11.6391C24.3924 11.7354 24.3924 11.8327 24.3924 11.929C24.3924 12.3965 24.3924 12.864 24.3924 13.3324V13.4278C24.3924 13.5279 24.3924 13.6281 24.3924 13.7282V14.3043C24.3924 14.5026 24.3924 14.7019 24.3924 14.9002V14.9899C24.3924 15.057 24.3924 15.124 24.3924 15.1902C24.3924 15.5878 24.3924 15.9844 24.3924 16.382V17.0686C24.3924 17.1688 24.3924 17.2689 24.3924 17.369C24.3924 17.5352 24.3924 17.7024 24.3924 17.8695C24.3924 18.0669 24.3924 18.2634 24.3924 18.4608V18.9623C24.3924 19.3278 24.3924 19.6942 24.3924 20.0597V20.1494C24.3924 20.3836 24.3924 20.6169 24.3924 20.8511C24.3924 21.1146 24.3924 21.3791 24.3924 21.6426C24.3924 21.6709 24.3943 21.6709 24.3791 21.6464C24.3083 21.5349 24.2384 21.4225 24.1676 21.3111C24.0788 21.1704 23.9891 21.0287 23.9003 20.888C23.8115 20.7482 23.7237 20.6084 23.6359 20.4686C23.583 20.3855 23.5301 20.3024 23.4772 20.2193C23.3884 20.0776 23.2987 19.9369 23.2099 19.7953C23.1381 19.6829 23.0673 19.5695 22.9955 19.4562C22.9417 19.3712 22.8888 19.2871 22.835 19.2021C22.7471 19.0624 22.6584 18.9226 22.5705 18.7828C22.5535 18.7564 22.5365 18.729 22.5195 18.7025C22.5025 18.6751 22.4855 18.6487 22.4685 18.6223C22.4156 18.5391 22.3637 18.4551 22.3108 18.372C22.2645 18.2983 22.2173 18.2246 22.172 18.1519L22.1616 18.151ZM7.71826 12.9103C7.86937 13.0227 8.17726 13.4864 8.29059 13.6422L11.0153 17.3236C11.1541 17.5116 11.5074 17.8941 11.5244 18.1123L11.5225 29.6118C11.4894 29.7204 9.76014 30.4589 9.63075 30.5222C9.31247 30.6771 9.00648 30.8037 8.67781 30.9585C8.43698 31.0728 7.95248 31.3193 7.71354 31.3807L7.71731 12.9093L7.71826 12.9103Z" fill="#FFB81C"/>
<g clip-path="url(#clip0_2010_2235)">
<path d="M64.5642 10.9225V19.7364C64.5642 20.4767 65.1637 21.0762 65.9039 21.0762H76.2736V24.0002H65.6611C63.4421 24.0002 61.6418 22.1999 61.6418 19.981V9.33997C61.6418 8.59975 62.2414 8.00021 62.9816 8.00021H76.2736V10.9225H64.5642Z" fill="#11111F"/>
<path d="M95.7778 8.00021V10.9225H89.4241V24.0002H86.5017V10.9225H80.1714V8.00021H95.7778Z" fill="#11111F"/>
<path d="M74.9265 14.4394H65.7593V17.3617H74.9265V14.4394Z" fill="#11111F"/>
<path d="M103.014 10.9225V19.7364C103.014 20.4767 103.614 21.0762 104.354 21.0762H114.724V24.0002H104.111C101.892 24.0002 100.092 22.1999 100.092 19.981V9.33997C100.092 8.59975 100.691 8.00021 101.432 8.00021H114.724V10.9225H103.014Z" fill="#11111F"/>
<path d="M113.376 14.4394H104.209V17.3617H113.376V14.4394Z" fill="#11111F"/>
<path d="M56.1471 8.00021V22.3724C56.1471 23.2717 55.4187 24.0002 54.5193 24.0002C54.089 24.0002 53.677 23.826 53.3789 23.5162L53.2248 23.3555L51.0326 21.0762L42.9707 12.6994V24.0002H40.0483V9.78209C40.0483 8.79737 40.8455 8.00021 41.8302 8.00021C42.2606 8.00021 42.6726 8.17606 42.9707 8.48587L45.3152 10.9225L53.2248 19.1403V8.00021H56.1471Z" fill="#11111F"/>
<path d="M135.951 24.0002H132.108L129.612 21.0762L127.144 18.1857L124.647 21.0762L122.12 24.0002H118.258L120.785 21.0762L125.226 15.9366L120.946 10.9225L118.452 8.00021H122.294L124.789 10.9225L127.159 13.6992L129.559 10.9225L132.083 8.00021H135.944L133.419 10.9225L129.078 15.9483L133.454 21.0762L135.951 24.0002Z" fill="#11111F"/>
</g>
<defs>
<clipPath id="clip0_2010_2235">
<rect width="95.9029" height="16" fill="white" transform="translate(40.0486 8)"/>
</clipPath>
</defs>
</svg>
