<svg width="21" height="23" viewBox="0 0 21 23" fill="none" xmlns="http://www.w3.org/2000/svg">
<path d="M4.12363 9.10667C4.12363 8.76659 4.35272 8.53987 4.69635 8.53987H12.6572C13.0009 8.53987 13.23 8.76659 13.23 9.10667C13.23 9.44675 13.0009 9.67348 12.6572 9.67348H4.69635C4.40999 9.67348 4.12363 9.44675 4.12363 9.10667ZM4.69635 13.3577H12.6572C13.0009 13.3577 13.23 13.131 13.23 12.7909C13.23 12.4508 13.0009 12.2241 12.6572 12.2241H4.69635C4.35272 12.2241 4.12363 12.4508 4.12363 12.7909C4.12363 13.131 4.40999 13.3577 4.69635 13.3577ZM4.69635 16.9852H9.3927C9.73634 16.9852 9.96543 16.7585 9.96543 16.4184C9.96543 16.0783 9.73634 15.8516 9.3927 15.8516H4.69635C4.35272 15.8516 4.12363 16.0783 4.12363 16.4184C4.12363 16.7585 4.40999 16.9852 4.69635 16.9852ZM19.7018 19.1957L16.0363 22.8233C15.9218 22.9366 15.75 22.9933 15.6354 22.9933C15.5209 22.9933 15.3491 22.9366 15.2345 22.8233C15.0054 22.5966 15.0054 22.2565 15.2345 22.0297L18.9 18.4022C20.1599 17.1553 20.16 16.0783 19.0145 14.9447C17.9263 13.8678 16.7236 13.9245 15.5209 15.1148L11.1682 19.4225C10.7672 19.8192 10.4809 20.7261 11.1682 21.4063C11.9127 22.1431 12.8291 21.803 13.1727 21.4063L17.01 17.6087C17.1818 17.4387 17.5254 17.0986 17.5254 16.8719C17.5254 16.8152 17.5254 16.7585 17.3536 16.5885C17.239 16.4751 17.0672 16.3617 16.9527 16.3617C16.7236 16.3617 16.38 16.6451 16.2081 16.8719L13.6309 19.4225C13.4018 19.6492 13.0581 19.6492 12.8291 19.4225C12.6 19.1957 12.6 18.8557 12.8291 18.6289L15.3491 16.0783C15.6354 15.7949 16.1509 15.2281 16.8954 15.2281C17.2963 15.2281 17.6972 15.3982 18.0981 15.7949C18.499 16.1917 18.6136 16.5885 18.6136 16.8719C18.6136 17.6087 18.0409 18.1188 17.7545 18.4022L13.9172 22.1998C13.4591 22.6532 12.7718 22.9366 12.0845 22.9366C11.4545 22.9366 10.8245 22.7099 10.3091 22.1998C9.16361 21.0662 9.3927 19.4791 10.3091 18.5723L14.6618 14.2646C15.1772 13.7544 15.6927 13.4144 16.2081 13.2443V5.19574H12.8291C12.4854 5.19574 12.2563 4.96902 12.2563 4.62894V1.51153H2.00454C1.54636 1.51153 1.14545 1.90829 1.14545 2.36174V19.8759C1.14545 20.3293 1.54636 20.7261 2.00454 20.7261H7.78907C8.13271 20.7261 8.3618 20.9528 8.3618 21.2929C8.3618 21.633 8.13271 21.8597 7.78907 21.8597H2.00454C0.916361 21.8597 0 20.9528 0 19.8759V2.36174C0 1.28481 0.916361 0.37793 2.00454 0.37793H13.23C13.2872 0.37793 13.3445 0.43461 13.4018 0.49129L17.3536 4.1755C17.4109 4.23218 17.4681 4.28886 17.4681 4.34554V4.40222C17.4681 4.4589 17.5254 4.51558 17.5254 4.57226V12.9609C18.3845 12.9609 19.1863 13.3577 19.9309 14.0945C21.4199 15.6816 21.3627 17.4953 19.7018 19.1957ZM13.4591 4.06214H15.4063L15.2345 3.8921L13.4591 2.19169V4.06214Z" fill="#222222"/>
</svg>
