<svg width="40" height="40" viewBox="0 0 40 40" fill="none" xmlns="http://www.w3.org/2000/svg">
<rect x="2" y="2" width="36" height="36" rx="3.6" fill="#FF9549" stroke="#FFDAA1" stroke-width="4"/>
<path d="M13.231 19.254C12.8814 19.255 12.5392 19.3544 12.244 19.5408C11.9488 19.7273 11.7127 19.993 11.5629 20.3074C11.4132 20.6218 11.356 20.9719 11.3979 21.3173C11.4398 21.6627 11.5792 21.9892 11.7998 22.2591L16.5032 27.9922C16.6709 28.1994 16.8858 28.3638 17.1302 28.4717C17.3746 28.5797 17.6413 28.628 17.9082 28.6128C18.4791 28.5823 18.9945 28.2784 19.3231 27.7788L29.0932 12.1219C29.0948 12.1194 29.0965 12.1168 29.0982 12.1142C29.1899 11.9741 29.1602 11.6966 28.9709 11.5222C28.919 11.4743 28.8577 11.4375 28.7909 11.4141C28.7241 11.3907 28.6532 11.3811 28.5825 11.386C28.5118 11.3909 28.4429 11.4101 28.38 11.4425C28.3171 11.4749 28.2615 11.5197 28.2166 11.5743C28.2131 11.5786 28.2095 11.5828 28.2058 11.587L18.3525 22.6646C18.3151 22.7067 18.2695 22.741 18.2186 22.7655C18.1676 22.79 18.1123 22.8042 18.0558 22.8072C17.9993 22.8103 17.9428 22.8021 17.8895 22.7832C17.8362 22.7644 17.7872 22.7351 17.7454 22.6972L14.4753 19.7361C14.1356 19.4263 13.6917 19.2543 13.231 19.254Z" fill="white"/>
</svg>
