<svg width="436" height="283" viewBox="0 0 436 283" fill="none" xmlns="http://www.w3.org/2000/svg">
<g opacity="0.05">
<path d="M427.299 283H314.191L210.749 180.618H141.144C119.876 180.618 102.474 163.232 102.474 141.983C102.474 131.358 107.308 121.7 114.075 114.939C119.876 109.143 126.643 105.28 134.377 104.314C136.31 103.348 139.211 103.348 142.111 103.348H220.417L233.951 89.8259L322.891 0H436L290.022 145.846L427.299 283Z" fill="white"/>
<path d="M273.588 283H142.111C102.474 283 67.6718 266.58 41.5698 241.468C15.4678 216.355 0 180.618 0 141.983C0 63.7474 63.8049 0 142.111 0H282.288L202.049 80.1672H142.111C131.477 80.1672 120.843 83.0649 112.142 87.8942C105.375 91.7577 98.6075 97.5529 93.7738 103.348C85.0732 113.973 80.2395 127.495 80.2395 141.983C80.2395 158.403 87.0066 173.857 97.6408 184.481C103.441 190.276 110.208 195.106 117.942 198.003C125.676 200.901 133.41 202.833 142.111 202.833H193.348L273.588 283Z" fill="white"/>
</g>
</svg>
