<svg width="36" height="36" viewBox="0 0 36 36" fill="none" xmlns="http://www.w3.org/2000/svg">
<g clip-path="url(#clip0_2010_304)">
<mask id="mask0_2010_304" style="mask-type:luminance" maskUnits="userSpaceOnUse" x="0" y="0" width="36" height="36">
<path d="M35.6374 0.34082H0.489929V35.4883H35.6374V0.34082Z" fill="white"/>
</mask>
<g mask="url(#mask0_2010_304)">
<path d="M34.5036 17.9145C34.5036 26.9539 27.103 34.3545 18.0636 34.3545C9.02428 34.3545 1.62372 26.9539 1.62372 17.9145C1.62372 8.87517 9.02428 1.47461 18.0636 1.47461C27.103 1.47461 34.5036 8.87517 34.5036 17.9145Z" stroke="#26A4E3" stroke-width="2.26758"/>
<path fill-rule="evenodd" clip-rule="evenodd" d="M9.38672 17.5853C14.1097 15.4985 17.2949 14.1804 18.8326 13.5214C23.3359 11.6542 24.2145 11.3247 24.8736 11.3247C24.9834 11.3247 25.3129 11.3247 25.5326 11.5444C25.6424 11.6542 25.7522 11.8739 25.7522 11.9837C25.7522 12.0936 25.7522 12.4231 25.7522 12.6427C25.5326 15.169 24.4342 21.4296 23.885 24.2853C23.6654 25.4935 23.226 25.9329 22.7867 25.9329C21.7982 26.0427 21.1391 25.2738 20.2605 24.7247C18.8326 23.7361 18.0637 23.187 16.6359 22.3083C14.9883 21.2099 16.0867 20.6607 16.9654 19.7821C17.1851 19.5624 21.3588 15.7181 21.4686 15.3886C21.4686 15.3886 21.4686 15.169 21.3588 15.0591C21.249 14.9493 21.1391 14.9493 21.0293 15.0591C20.9195 15.0591 18.6129 16.5968 14.2195 19.5624C13.5605 20.0017 13.0113 20.2214 12.4621 20.2214C11.9129 20.2214 10.8146 19.8919 9.93589 19.6722C8.94737 19.3427 8.06869 19.123 8.17852 18.5739C8.17852 18.2444 8.61787 17.9149 9.38672 17.5853Z" fill="#26A4E3"/>
</g>
</g>
<defs>
<clipPath id="clip0_2010_304">
<rect width="35.1474" height="35.1474" fill="white" transform="translate(0.489929 0.34082)"/>
</clipPath>
</defs>
</svg>
