<svg width="61" height="47" viewBox="0 0 61 47" fill="none" xmlns="http://www.w3.org/2000/svg">
<path fill-rule="evenodd" clip-rule="evenodd" d="M2.35851 13.0018L49.3847 0.495292C50.4048 0.223994 51.4619 0.836793 51.7331 1.85671L59.6195 31.5104C59.8907 32.5304 59.2777 33.5873 58.2576 33.8585L11.2314 46.3651C10.2079 46.6373 9.1509 46.0246 8.87963 45.0046L0.993279 15.3509C0.722034 14.331 1.33504 13.274 2.35851 13.0018Z" fill="#FFB229"/>
<path fill-rule="evenodd" clip-rule="evenodd" d="M2.35851 13.0018L49.3847 0.495292C50.4048 0.223994 51.4619 0.836793 51.7331 1.85671L52.8997 6.24304L35.9246 26.6492C33.7363 29.2785 30.2346 30.2098 27.0292 29.0149L2.15982 19.7372L0.993279 15.3509C0.722034 14.331 1.33504 13.274 2.35851 13.0018Z" fill="#E6A025"/>
<path fill-rule="evenodd" clip-rule="evenodd" d="M8.5251 43.6715L23.9601 25.1202L1.3478 16.6839L8.5251 43.6715ZM59.2651 30.1773L36.657 21.7435L52.0878 3.18973L59.2651 30.1773Z" fill="#FF9800"/>
<path fill-rule="evenodd" clip-rule="evenodd" d="M39.214 22.6962L36.657 21.7435L52.0878 3.18973L52.8998 6.24301L39.214 22.6962Z" fill="#E68900"/>
<path fill-rule="evenodd" clip-rule="evenodd" d="M2.35851 13.0018L49.3847 0.495292C50.4048 0.223994 51.4619 0.836793 51.7331 1.85671L52.0876 3.18976L33.9438 25.0026C32.4578 26.7892 30.111 27.4133 27.9305 26.6019L1.3478 16.6839L0.993279 15.3509C0.722034 14.331 1.33504 13.274 2.35851 13.0018Z" fill="#FFD54F"/>
<path fill-rule="evenodd" clip-rule="evenodd" d="M22.2142 27.2173L23.9601 25.1202L1.3478 16.6839L2.15982 19.7372L22.2142 27.2173Z" fill="#E68900"/>
</svg>
