<svg width="21" height="21" viewBox="0 0 21 21" fill="none" xmlns="http://www.w3.org/2000/svg">
<path d="M20 10.6296C20 15.8036 15.7278 20.0462 10.5 20.0462C5.27219 20.0462 1 15.8036 1 10.6296C1 5.45547 5.27219 1.21289 10.5 1.21289C15.7278 1.21289 20 5.45547 20 10.6296Z" stroke="white"/>
<path d="M5.75897 10.9051L5.75899 10.9051L5.76407 10.9029C7.80309 10.0094 9.33435 9.36751 10.339 8.94636C10.6556 8.81364 10.9199 8.70284 11.1313 8.61301C12.4143 8.08547 13.1681 7.78055 13.6477 7.60692C14.1338 7.43093 14.282 7.41211 14.3759 7.41211V7.41231V7.41309V7.41387V7.41465V7.41543V7.41622V7.417V7.41779V7.41857V7.41936V7.42015V7.42094V7.42173V7.42252V7.42332V7.42411V7.4249V7.4257V7.4265V7.42729V7.42809V7.42889V7.42969V7.43049V7.43129V7.43209V7.4329V7.4337V7.43451V7.43531V7.43612V7.43693V7.43774V7.43855V7.43936V7.44017V7.44098V7.44179V7.4426V7.44342V7.44423V7.44505V7.44586V7.44668V7.4475V7.44832V7.44913V7.44995V7.45077V7.45159V7.45242V7.45324V7.45406V7.45488V7.45571V7.45653V7.45736V7.45818V7.45901V7.45984V7.46067V7.46149V7.46232V7.46315V7.46398V7.46481V7.46564V7.46648V7.46731V7.46814V7.46897V7.46981V7.47064V7.47147V7.47231V7.47314V7.47398V7.47482V7.47565V7.47649V7.47733V7.47817V7.479V7.47984V7.48068V7.48152V7.48236V7.4832V7.48404V7.48488V7.48572V7.48656V7.48741V7.48825V7.48909V7.48993V7.49078V7.49162V7.49246V7.49331V7.49415V7.49499V7.49584V7.49668V7.49753V7.49837V7.49922V7.50006V7.50091V7.50176V7.5026V7.50345V7.50429V7.50514V7.50599V7.50683V7.50768V7.50853V7.50937V7.51022V7.51107V7.51191V7.51276V7.51361V7.51446V7.5153V7.51615V7.517V7.51785V7.51869V7.51954V7.52039V7.52123V7.52208V7.52293V7.52378V7.52462V7.52547V7.52632V7.52716V7.52801V7.52886V7.5297V7.53055V7.5314V7.53224V7.53309V7.53394V7.53478V7.53563V7.53647V7.53732V7.53816V7.53901V7.53985V7.5407V7.54154V7.54239V7.54323V7.54407V7.54492V7.54576V7.5466V7.54745V7.54829V7.54913V7.54997V7.55081V7.55165V7.55249V7.55333V7.55417V7.55501V7.55585V7.55669V7.55753V7.55837V7.55921V7.56004V7.56088V7.56172V7.56255V7.56339V7.56422V7.56506V7.56589V7.56673V7.56756V7.56839V7.56923V7.57006V7.57089V7.57172V7.57255V7.57338V7.57421V7.57504V7.57587V7.57669V7.57752V7.57835V7.57917V7.58V7.58082V7.58165V7.58247V7.58329V7.58411V7.58493V7.58576V7.58658V7.58739V7.58821V7.58903V7.58985V7.59066V7.59148V7.5923V7.59311V7.59392V7.59474V7.59555V7.59636V7.59717V7.59798V7.59879V7.5996V7.6004V7.60121V7.60202V7.60282V7.60363V7.60443V7.60523V7.60603V7.60683V7.60763V7.60843V7.60923V7.61003V7.61082V7.61162V7.61241V7.6132V7.614V7.61479V7.61558V7.61637V7.61716V7.61794V7.61873V7.61951V7.6203V7.62108V7.62186V7.62265V7.62343V7.62421V7.62498V7.62576V7.62654V7.62731V7.62808V7.62886V7.62963V7.6304V7.63117V7.63194V7.6327V7.63347V7.6337C14.2492 9.04318 13.6343 12.523 13.3225 14.1305L13.3225 14.1305L13.3216 14.1355C13.2662 14.4379 13.1921 14.5866 13.1464 14.6479C13.1436 14.6518 13.1411 14.655 13.1389 14.6578L13.1336 14.6583C13.008 14.6722 12.8877 14.6385 12.7083 14.5281C12.6148 14.4705 12.5198 14.4014 12.4019 14.3155L12.4005 14.3145C12.2911 14.2347 12.1634 14.1417 12.0246 14.055C11.9286 13.9891 11.8376 13.9264 11.7504 13.8665C11.1109 13.4264 10.6769 13.1277 9.95696 12.6882C9.83731 12.6085 9.76991 12.5489 9.73326 12.5107C9.75647 12.4832 9.79259 12.4446 9.84807 12.3919C9.8898 12.3523 9.93388 12.3125 9.98455 12.2667C9.99646 12.2559 10.0087 12.2448 10.0214 12.2334C10.0854 12.1754 10.1569 12.11 10.228 12.0395C10.2279 12.0396 10.228 12.0395 10.2281 12.0394C10.2287 12.0389 10.2316 12.036 10.2383 12.0297L10.2664 12.0032L10.3596 11.9164L10.6602 11.6376C10.9017 11.4137 11.2133 11.1241 11.5233 10.8322C11.8327 10.541 12.1432 10.2449 12.3813 10.0087C12.4998 9.89123 12.6045 9.78447 12.6834 9.6987C12.7224 9.65635 12.7601 9.6137 12.7915 9.57438C12.807 9.55489 12.8253 9.53088 12.8428 9.50449C12.8553 9.48564 12.889 9.43395 12.9123 9.36465L12.9384 9.28712V9.20534H12.4384C12.9384 9.20534 12.9384 9.20521 12.9384 9.20509V9.20484L12.9384 9.20432L12.9384 9.20325L12.9384 9.20095L12.9383 9.19567L12.938 9.18251C12.9376 9.17268 12.937 9.16045 12.9359 9.14633C12.9338 9.11878 12.9296 9.08057 12.9207 9.03676C12.9069 8.96812 12.8662 8.80149 12.728 8.66437L12.3811 9.01412L12.728 8.66437C12.6418 8.57887 12.4912 8.47292 12.2822 8.47292C12.1337 8.47292 12.0147 8.52634 11.9274 8.58794C11.9035 8.60019 11.8791 8.61388 11.8565 8.62695C11.8014 8.65875 11.7289 8.70319 11.6419 8.75789C11.4666 8.86815 11.2152 9.03115 10.8904 9.24458C10.2402 9.67185 9.28586 10.3079 8.03651 11.1442C7.69924 11.367 7.4851 11.4324 7.3134 11.4324C7.22514 11.4324 7.04633 11.4014 6.78184 11.3378C6.63434 11.3023 6.49647 11.2663 6.35563 11.2295C6.24579 11.2008 6.13415 11.1716 6.01472 11.1418C5.95649 11.1226 5.90336 11.1055 5.85289 11.0892C5.77692 11.0647 5.707 11.0421 5.63489 11.0176C5.61094 11.0094 5.58827 11.0015 5.56682 10.9939C5.62102 10.9663 5.68476 10.9366 5.75897 10.9051Z" fill="white" stroke="white"/>
</svg>
