<svg width="43" height="42" viewBox="0 0 43 42" fill="none" xmlns="http://www.w3.org/2000/svg">
<path d="M25.4914 26.2346H32.4191C32.6117 26.2346 32.7963 26.3111 32.9325 26.4473C33.0686 26.5834 33.1451 26.7681 33.1451 26.9606V28.3271C33.1451 28.5197 33.0686 28.7043 32.9325 28.8405C32.7963 28.9766 32.6117 29.0531 32.4191 29.0531H25.4914M25.4914 26.2346C25.2988 26.2346 25.1142 26.3111 24.978 26.4473C24.8419 26.5834 24.7654 26.7681 24.7654 26.9606V28.3271C24.7654 28.5197 24.8419 28.7043 24.978 28.8405C25.1142 28.9766 25.2988 29.0531 25.4914 29.0531M25.4914 26.2346L26.3445 26.2346M25.4914 29.0531L25.6333 29.0532M25.6333 29.0532H32.2772V30.3668C32.2772 31.0061 32.5823 31.6052 33.0951 31.987C33.8922 32.5804 34.4109 33.5293 34.4108 34.5935M25.6333 29.0532V30.3668C25.6333 31.0062 25.3282 31.6053 24.8154 31.9871M24.8154 31.9871C24.0183 32.5804 23.4996 33.5293 23.4996 34.5935M24.8154 31.9871C24.4998 32.2226 24.229 32.5126 24.016 32.8438C24.0097 32.8537 24.0035 32.8637 23.9972 32.8736M23.4996 34.5935V39.0155C23.4996 40.1091 24.3944 41.0039 25.4881 41.0039H32.4224C33.516 41.0039 34.4108 40.1091 34.4108 39.0155V34.5935M23.4996 34.5935C23.4996 33.9117 23.7134 33.2777 24.076 32.7538H27.5782M23.4996 34.5935L23.4997 38.0925H34.411L34.4108 34.5935M34.4108 34.5935C34.4108 33.9117 34.1973 33.2777 33.8347 32.7538H30.3952M38.4796 5.01383C33.7355 9.77309 30.8447 16.0685 30.3269 22.7684M34.8819 14.4148L35.9591 15.0072M36.4721 12.5223L37.2468 12.9649M31.4836 8.57506L32.5184 9.14199M5.8167 6.44571H17M5.76483 11.1942H25.0797M5.76483 13.9401H25.0797M5.76483 16.6859H25.0797M5.76483 19.4318H25.0797M5.76483 22.1776H25.0797M5.92224 30.6694H15.0797M5.92224 33.4153H15.0797M30.3446 10.7848V2.27715C30.3446 1.57397 29.7745 1.00391 29.0713 1.00391H2.77325C2.07007 1.00391 1.5 1.57397 1.5 2.27715L1.50858 37.7307C1.50858 38.4338 2.07864 39.0039 2.78183 39.0039H23.5M40.5668 1.8452C37.4024 2.25044 35.1797 4.06147 35.1797 4.06147C30.523 7.67115 29.1114 13.8279 28.6843 17.3512C28.5041 18.8372 29.5291 20.1997 31.0078 20.4327C31.5702 20.5213 32.1462 20.4349 32.6578 20.1851C33.1694 19.9354 33.5918 19.5344 33.8679 19.0365L35.6563 15.8113C36.4005 14.4854 37.2102 13.1956 38.1154 11.974C40.4574 8.81321 41.2449 4.66349 41.4927 2.778C41.5637 2.23861 41.1064 1.77615 40.5668 1.8452ZM31.4979 26.2346V25.7724C31.4979 25.3101 31.5094 24.8422 31.5323 24.3817C31.5667 23.6891 31.0331 23.0997 30.3404 23.0654C29.647 23.031 29.0585 23.5647 29.0242 24.2573C28.9992 24.762 28.9867 25.2672 28.9867 25.7724V26.2346H31.4979Z" stroke="#CBCBCB" stroke-width="1.2" stroke-miterlimit="10" stroke-linecap="round" stroke-linejoin="round"/>
</svg>
