<svg width="21" height="21" viewBox="0 0 21 21" fill="none" xmlns="http://www.w3.org/2000/svg">
<path d="M10.9128 12.0442C10.1657 12.0407 9.42344 11.9236 8.71152 11.6969C8.15276 11.5099 7.6536 11.1781 7.26499 10.7352C6.87639 10.2923 6.61226 9.75424 6.49955 9.17591C6.24856 7.96727 6.70622 6.68929 7.7542 5.6693C7.86679 5.55972 7.98377 5.45474 8.10486 5.35464C8.6335 4.91204 9.26191 4.60474 9.93585 4.45926C10.6098 4.31379 11.309 4.33452 11.9731 4.51965C12.6101 4.72304 13.1685 5.11855 13.5717 5.65191C13.9749 6.18528 14.2031 6.83035 14.2251 7.49861C14.274 8.28686 14.017 9.0636 13.5078 9.66724C13.3151 9.90988 13.0593 10.0947 12.7685 10.2015C12.4777 10.3083 12.163 10.3329 11.8591 10.2726C11.7337 10.2465 11.6149 10.1955 11.5097 10.1225C11.4045 10.0494 11.3151 9.95594 11.2468 9.84757C11.1856 9.74229 11.1462 9.62573 11.1311 9.50488C11.116 9.38403 11.1254 9.26137 11.1588 9.14425C11.4505 8.04226 11.7468 6.36762 11.7498 6.35096C11.7574 6.30784 11.7735 6.26665 11.797 6.22973C11.8205 6.19281 11.8511 6.16089 11.887 6.13578C11.9229 6.11068 11.9633 6.09289 12.0061 6.08343C12.0488 6.07396 12.093 6.07301 12.1361 6.08063C12.1792 6.08825 12.2204 6.10428 12.2574 6.12782C12.2943 6.15135 12.3262 6.18193 12.3513 6.21781C12.3764 6.25368 12.3942 6.29415 12.4037 6.3369C12.4131 6.37964 12.4141 6.42384 12.4065 6.46696C12.3941 6.53662 12.1021 8.18593 11.8035 9.31458C11.7929 9.34555 11.7889 9.37835 11.7914 9.41096C11.794 9.44357 11.8032 9.47531 11.8185 9.50424C11.8646 9.56797 11.9341 9.61077 12.0118 9.62324C12.1979 9.65431 12.3889 9.63394 12.5643 9.56432C12.7397 9.49471 12.8927 9.3785 13.0068 9.22825C13.4023 8.75514 13.6004 8.14792 13.5601 7.53261C13.5442 7.00064 13.3641 6.48664 13.0444 6.06112C12.7248 5.6356 12.2813 5.31942 11.7748 5.15598C11.2168 5.00249 10.6299 4.98708 10.0646 5.11106C9.49933 5.23504 8.97271 5.4947 8.53019 5.86763C8.42282 5.95666 8.31897 6.04984 8.21886 6.14696C7.70087 6.65095 6.87322 7.69694 7.15221 9.04025C7.24432 9.50144 7.45532 9.93055 7.76432 10.2851C8.07331 10.6396 8.46957 10.9073 8.91385 11.0616C10.4772 11.5602 12.7238 11.6205 13.9071 10.1489C13.9632 10.0822 14.0431 10.0401 14.1298 10.0317C14.2165 10.0232 14.303 10.049 14.371 10.1035C14.4389 10.158 14.4828 10.237 14.4932 10.3235C14.5036 10.41 14.4798 10.4971 14.4268 10.5662C13.5514 11.6549 12.2195 12.0442 10.9128 12.0442Z" fill="white"/>
<path d="M9.77184 10.3159C9.41945 10.322 9.07571 10.2066 8.79852 9.9889C8.15886 9.47691 8.1412 8.58726 8.32053 7.9816C8.38119 7.77994 8.46219 7.58494 8.56286 7.39994C8.81294 6.89531 9.21284 6.48028 9.70784 6.21163C10.0081 6.05589 10.3504 6.00085 10.6843 6.05463C11.0182 6.10841 11.326 6.26816 11.5621 6.51029C11.8027 6.77388 11.9839 7.08601 12.0935 7.42561C12.121 7.50838 12.115 7.59865 12.0768 7.67705C12.0385 7.75545 11.9711 7.81574 11.8889 7.84496C11.8067 7.87419 11.7163 7.87004 11.6372 7.83339C11.558 7.79674 11.4964 7.73052 11.4655 7.64894C11.3864 7.39813 11.2551 7.16693 11.0801 6.97061C10.9426 6.82991 10.7628 6.73803 10.5682 6.70896C10.3736 6.6799 10.1748 6.71524 10.0022 6.80962C9.63094 7.01898 9.33261 7.33686 9.14718 7.7206C9.0693 7.86444 9.00642 8.0159 8.95952 8.1726C8.82985 8.61059 8.85852 9.18258 9.21585 9.46858C9.60651 9.78257 10.2658 9.64991 10.6368 9.32991C10.9132 9.08098 11.1506 8.79199 11.3411 8.47259C11.3642 8.43538 11.3944 8.40309 11.43 8.37755C11.4656 8.35201 11.5058 8.33373 11.5485 8.32375C11.5911 8.31377 11.6353 8.31228 11.6785 8.31937C11.7217 8.32647 11.7631 8.342 11.8003 8.36509C11.8375 8.38818 11.8698 8.41838 11.8953 8.45395C11.9209 8.48952 11.9392 8.52977 11.9491 8.57241C11.9591 8.61505 11.9606 8.65923 11.9535 8.70244C11.9464 8.74565 11.9309 8.78704 11.9078 8.82425C11.6819 9.20052 11.4006 9.54065 11.0735 9.83324C10.709 10.1408 10.2487 10.3115 9.77184 10.3159Z" fill="white"/>
<path d="M19.5 20.7141H1.5003C1.23517 20.7138 0.980974 20.6084 0.793498 20.4209C0.606022 20.2334 0.500582 19.9792 0.500317 19.7141V7.38094C0.500277 7.31758 0.5183 7.25551 0.552272 7.20202C0.586245 7.14854 0.63476 7.10584 0.692131 7.07894C0.749503 7.05203 0.813354 7.04204 0.876201 7.05013C0.939047 7.05822 0.998287 7.08406 1.04697 7.12461L9.22551 13.9218C9.58427 14.2183 10.0351 14.3804 10.5005 14.3804C10.9659 14.3804 11.4167 14.2183 11.7755 13.9218L19.9533 7.12428C20.0021 7.08371 20.0613 7.05787 20.1242 7.04979C20.1871 7.04171 20.251 7.05173 20.3083 7.07867C20.3657 7.10562 20.4142 7.14836 20.4482 7.2019C20.4821 7.25544 20.5001 7.31755 20.5 7.38094V19.7141C20.4997 19.9792 20.3943 20.2334 20.2068 20.4209C20.0193 20.6084 19.7651 20.7138 19.5 20.7141ZM1.16697 8.09126V19.7141C1.16697 19.8025 1.20209 19.8873 1.2646 19.9498C1.32711 20.0123 1.4119 20.0474 1.5003 20.0474H19.5C19.5884 20.0474 19.6732 20.0123 19.7357 19.9498C19.7982 19.8873 19.8333 19.8025 19.8333 19.7141V8.09126L12.2008 14.4345C11.7224 14.8299 11.1211 15.0463 10.5004 15.0464C9.87977 15.0465 9.27844 14.8304 8.79985 14.4352L1.16697 8.09126Z" fill="white"/>
<path d="M0.833978 7.71427C0.76319 7.71441 0.694195 7.69201 0.63699 7.65031C0.579784 7.60861 0.537339 7.54979 0.515802 7.48236C0.494265 7.41492 0.494755 7.34238 0.517201 7.27525C0.539647 7.20811 0.582884 7.14987 0.640648 7.10895L3.6406 4.98231C3.71274 4.93117 3.80224 4.91078 3.88941 4.92563C3.97658 4.94047 4.05428 4.98934 4.10543 5.06148C4.15657 5.13362 4.17696 5.22312 4.16211 5.31029C4.14727 5.39746 4.0984 5.47516 4.02626 5.5263L1.02631 7.65294C0.970139 7.69289 0.902907 7.71433 0.833978 7.71427ZM20.1663 7.71427C20.0974 7.71433 20.0302 7.69289 19.974 7.65294L16.9741 5.5263C16.9027 5.47491 16.8545 5.39739 16.84 5.31063C16.8256 5.22387 16.846 5.13491 16.8968 5.06313C16.9477 4.99136 17.0248 4.94259 17.1115 4.92745C17.1981 4.91231 17.2872 4.93203 17.3594 4.98231L20.3593 7.10895C20.4171 7.14983 20.4603 7.20802 20.4827 7.27509C20.5052 7.34216 20.5057 7.41464 20.4843 7.48204C20.4628 7.54944 20.4205 7.60827 20.3634 7.65001C20.3063 7.69176 20.2371 7.71427 20.1663 7.71427ZM13.5801 3.04768C13.5111 3.04774 13.4437 3.0263 13.3874 2.98635L11.7941 1.85636C11.4358 1.55345 10.9824 1.38595 10.5132 1.38309C10.0439 1.38022 9.58856 1.54218 9.22651 1.8407L7.6132 2.98635C7.54107 3.03749 7.45157 3.05788 7.36439 3.04303C7.27722 3.02818 7.19952 2.97932 7.14838 2.90718C7.09724 2.83504 7.07685 2.74554 7.09169 2.65837C7.10654 2.5712 7.15541 2.4935 7.22754 2.44235L8.82085 1.31237C9.29818 0.922068 9.8965 0.71012 10.5131 0.712918C11.1297 0.715716 11.726 0.933086 12.1998 1.3277L13.7731 2.44235C13.8309 2.48327 13.8741 2.54152 13.8966 2.60866C13.919 2.67579 13.9195 2.74833 13.898 2.81576C13.8764 2.8832 13.834 2.94202 13.7768 2.98372C13.7196 3.02541 13.6506 3.04782 13.5798 3.04768H13.5801ZM1.05031 20.5341C0.981671 20.5342 0.914667 20.5131 0.858446 20.4738C0.802224 20.4344 0.759529 20.3786 0.73619 20.3141C0.712851 20.2495 0.710006 20.1794 0.728046 20.1131C0.746085 20.0469 0.784128 19.9879 0.836978 19.9441L8.44352 13.6242C8.47721 13.5962 8.51607 13.5751 8.55789 13.5622C8.59972 13.5492 8.64368 13.5447 8.68728 13.5487C8.73088 13.5527 8.77325 13.5653 8.81198 13.5857C8.85071 13.6061 8.88505 13.634 8.91302 13.6677C8.94099 13.7014 8.96205 13.7402 8.975 13.782C8.98795 13.8239 8.99254 13.8678 8.9885 13.9114C8.98446 13.955 8.97188 13.9974 8.95146 14.0361C8.93105 14.0749 8.9032 14.1092 8.86952 14.1372L1.26297 20.4571C1.20327 20.5068 1.12802 20.5341 1.05031 20.5341ZM19.9497 20.5341C19.8719 20.5341 19.7967 20.5069 19.737 20.4571L12.1305 14.1372C12.0959 14.1095 12.0672 14.0752 12.0461 14.0363C12.0249 13.9974 12.0117 13.9547 12.0073 13.9106C12.0028 13.8666 12.0072 13.8221 12.0201 13.7798C12.033 13.7374 12.0542 13.6981 12.0825 13.664C12.1108 13.63 12.1456 13.6019 12.1849 13.5814C12.2241 13.561 12.2671 13.5485 12.3112 13.5449C12.3553 13.5412 12.3997 13.5463 12.4418 13.56C12.484 13.5737 12.5229 13.5956 12.5565 13.6245L20.163 19.9444C20.2159 19.9882 20.2539 20.0472 20.2719 20.1135C20.29 20.1797 20.2871 20.2499 20.2638 20.3144C20.2405 20.379 20.1978 20.4347 20.1415 20.4741C20.0853 20.5135 20.0183 20.5342 19.9497 20.5341Z" fill="white"/>
<path d="M17.1667 10.2076C17.0783 10.2076 16.9935 10.1724 16.931 10.1099C16.8685 10.0474 16.8334 9.96264 16.8334 9.87424V3.05034C16.8324 3.05701 16.8191 3.04768 16.7967 3.04768H4.20359C4.1963 3.04724 4.189 3.04828 4.18212 3.05074C4.17525 3.05321 4.16894 3.05704 4.16359 3.06201L4.16693 9.87424C4.16693 9.96264 4.13181 10.0474 4.0693 10.1099C4.00678 10.1724 3.922 10.2076 3.8336 10.2076C3.74519 10.2076 3.66041 10.1724 3.5979 10.1099C3.53539 10.0474 3.50027 9.96264 3.50027 9.87424V3.04768C3.5055 2.86613 3.58245 2.69406 3.71426 2.56911C3.84608 2.44417 4.02203 2.37654 4.20359 2.38102H16.7967C16.9783 2.37654 17.1542 2.44417 17.2861 2.56911C17.4179 2.69406 17.4948 2.86613 17.5 3.04768V9.87424C17.5 9.96264 17.4649 10.0474 17.4024 10.1099C17.3399 10.1724 17.2551 10.2076 17.1667 10.2076Z" fill="white"/>
</svg>
