<svg width="20" height="20" viewBox="0 0 20 20" fill="none" xmlns="http://www.w3.org/2000/svg">
<path d="M2.36793 14.5356L2.42553 14.3305L2.31752 14.1469C1.47977 12.7227 1.06303 11.1851 1.06303 9.58789C1.06303 4.6243 5.17752 0.587891 10.2689 0.587891C12.721 0.587891 14.9859 1.5355 16.6544 3.24919L16.6543 3.24924L16.6605 3.25542C18.3956 4.97606 19.3487 7.22407 19.3487 9.65039C19.3487 14.6203 15.2278 18.7129 10.2059 18.7129C8.71797 18.7129 7.16062 18.2984 5.84293 17.5856L5.67045 17.4923L5.48054 17.5411L1.21601 18.6375L2.36793 14.5356Z" stroke="white"/>
<path d="M10.6402 13.2472L10.6387 13.2466C8.33185 12.3539 6.86341 10.106 6.61442 9.72488C6.60275 9.70703 6.59377 9.69327 6.58749 9.68393L6.18519 9.95439L6.58749 9.68393C6.57731 9.66879 6.56401 9.64959 6.54806 9.62657C6.45087 9.48626 6.25532 9.20398 6.06753 8.83153C5.84595 8.39206 5.66414 7.88057 5.66414 7.40039C5.66414 6.52952 6.05462 6.04677 6.29412 5.75067C6.31642 5.7231 6.33741 5.69715 6.35665 5.67265C6.42818 5.60627 6.49027 5.57163 6.5381 5.55266C6.59119 5.5316 6.63806 5.52539 6.67674 5.52539H6.67785H6.67896H6.68007H6.68118H6.68228H6.68339H6.6845H6.68561H6.68671H6.68782H6.68893H6.69004H6.69115H6.69225H6.69336H6.69447H6.69558H6.69668H6.69779H6.6989H6.7H6.70111H6.70222H6.70333H6.70443H6.70554H6.70665H6.70775H6.70886H6.70997H6.71107H6.71218H6.71329H6.71439H6.7155H6.71661H6.71771H6.71882H6.71992H6.72103H6.72213H6.72324H6.72434H6.72545H6.72656H6.72766H6.72877H6.72987H6.73097H6.73208H6.73318H6.73429H6.73539H6.73649H6.7376H6.7387H6.73981H6.74091H6.74201H6.74311H6.74422H6.74532H6.74642H6.74752H6.74863H6.74973H6.75083H6.75193H6.75303H6.75413H6.75523H6.75634H6.75744H6.75854H6.75964H6.76074H6.76184H6.76293H6.76403H6.76513H6.76623H6.76733H6.76843H6.76953H6.77062H6.77172H6.77282H6.77392H6.77501H6.77611H6.77721H6.7783H6.7794H6.78049H6.78159H6.78268H6.78378H6.78487H6.78597H6.78706H6.78815H6.78925H6.79034H6.79143H6.79253H6.79362H6.79471H6.7958H6.79689H6.79798H6.79908H6.80017H6.80126H6.80235H6.80343H6.80452H6.80561H6.8067H6.80779H6.80888H6.80996H6.81105H6.81214H6.81322H6.81431H6.8154H6.81648H6.81757H6.81865H6.81973H6.82082H6.8219H6.82299H6.82407H6.82515H6.82623H6.82731H6.8284H6.82948H6.83056H6.83164H6.83272H6.8338H6.83487H6.83595H6.83703H6.83811H6.83919H6.84026H6.84134H6.84242H6.84349H6.84457H6.84564H6.84671H6.84779H6.84886H6.84993H6.85101H6.85208H6.85315H6.85422H6.85529H6.85636H6.85743H6.8585H6.85957H6.86064H6.86171H6.86277H6.86384H6.86491H6.86597H6.86704H6.8681H6.86917H6.87023H6.8713H6.87236H6.87342H6.87448H6.87554H6.87661H6.87767H6.87873H6.87979H6.88084H6.8819H6.88296H6.88402H6.88507H6.88613H6.88719H6.88824H6.8893H6.89035H6.8914H6.89246H6.89351H6.89456H6.89561H6.89666H6.89771H6.89876H6.89981H6.90086H6.90191H6.90295H6.904H6.90505H6.90609H6.90714H6.90818H6.90923H6.91027H6.91131H6.91235H6.91339H6.91443H6.91547H6.91651H6.91755H6.91859H6.91963H6.92067H6.9217H6.92274H6.92377H6.92481H6.92584H6.92687H6.92791H6.92894H6.92997H6.931H6.93203H6.93306H6.93409H6.93511H6.93614H6.93717H6.93819H6.93922H6.94024H6.94127H6.94229H6.94331H6.94433H6.94535H6.94637H6.94739H6.94841H6.94943H6.95045H6.95146H6.95248H6.95349H6.95451H6.95552H6.95654H6.95755H6.95856H6.95957H6.96058H6.96159H6.9626H6.96361H6.96461H6.96562H6.96663H6.96763H6.96863H6.96964H6.97064H6.97164H6.97264H6.97364H6.97464H6.97564H6.97664H6.97764H6.97863H6.97963H6.98062H6.98162H6.98261H6.9836H6.98459H6.98558H6.98657H6.98756H6.98855H6.98954H6.99052H6.99151H6.99249H6.99348H6.99446H6.99544H6.99643H6.99741H6.99839H6.99936H7.00034H7.00132H7.0023H7.00327H7.00425H7.00522H7.00619H7.00717H7.00814H7.00911H7.01008H7.01104H7.01201H7.01298H7.01394H7.01491H7.01587H7.01684H7.0178H7.01876H7.01972H7.02068H7.02164H7.0226H7.02355H7.02451H7.02546H7.02642H7.02737H7.02832H7.02927H7.03023H7.03117H7.03212H7.03307H7.03402H7.03496H7.03591H7.03685H7.03779H7.03873H7.03968H7.04061H7.04155H7.04249H7.04343H7.04436H7.0453H7.04623H7.04717H7.0481H7.04903H7.04996H7.05089H7.05181H7.05274H7.05367H7.05459H7.05552H7.05644H7.05736H7.05828H7.0592H7.06012H7.06104H7.06195H7.06287H7.06378H7.0647H7.06561H7.06652H7.06743H7.06834H7.06925H7.07016H7.07106H7.07197H7.07287H7.07377H7.07468H7.07558H7.07648H7.07737H7.07827H7.07917H7.08006H7.08096H7.08185H7.08274H7.08363H7.08452H7.08541H7.0863H7.08719H7.08807H7.08895H7.08984H7.09072H7.0916H7.09248H7.09336H7.09424H7.09511H7.09599H7.09686H7.09773H7.09861H7.09948H7.10035H7.10121H7.10208H7.10295H7.10381H7.10467H7.10554H7.1064H7.10726H7.10812H7.10897H7.10983H7.11069H7.11154H7.11239H7.11324H7.11409H7.11494H7.11579H7.11664H7.11748H7.11833H7.11917H7.12001H7.12085H7.12169H7.12253H7.12337H7.1242H7.12504H7.12587H7.1267H7.12754H7.12836H7.12919H7.13002H7.13085H7.13167H7.13249H7.13332H7.13414H7.13496H7.13577H7.13659H7.13741H7.13822H7.13903H7.13985H7.14066H7.14146H7.14227H7.14308H7.14388H7.14469H7.14549H7.14629H7.14709H7.14789H7.14869H7.14948H7.15028H7.15107H7.15186H7.15266H7.15344H7.15423H7.15502H7.1558H7.15659H7.15737H7.15815H7.15893H7.15971H7.16049H7.16126H7.16204H7.16281H7.16358H7.16435H7.16512H7.16589H7.16666H7.16742H7.16818H7.16895H7.16971H7.17047H7.17122H7.17198H7.17274H7.17349H7.17424H7.17499H7.17574H7.17649H7.17724H7.17798H7.17872H7.17947H7.18021H7.18095C7.19607 5.52539 7.2083 5.52557 7.21806 5.52581C7.23288 5.54719 7.256 5.58586 7.28494 5.65149C7.38248 5.9088 7.55478 6.3434 7.71123 6.72351C7.79063 6.91642 7.86732 7.09865 7.92892 7.23813C7.95946 7.30726 7.9882 7.37028 8.01277 7.42035C8.02369 7.4426 8.03594 7.46671 8.04869 7.48965C8.04591 7.5029 8.04062 7.52359 8.03053 7.55358C7.98125 7.70021 7.95074 7.74535 7.9003 7.79536C7.81723 7.87774 7.73919 7.97453 7.6813 8.04632C7.67888 8.04933 7.6765 8.05229 7.67414 8.0552C7.60661 8.13891 7.56165 8.19369 7.52215 8.23286C7.51899 8.236 7.51536 8.23955 7.51133 8.24349C7.45611 8.29753 7.32472 8.42609 7.25296 8.60398C7.15748 8.8407 7.18719 9.08586 7.30171 9.313C7.45809 9.62314 8.00109 10.4202 8.79675 11.1439C9.66069 11.943 10.4584 12.275 10.7967 12.4158C10.8555 12.4403 10.9004 12.459 10.9294 12.4734C11.0877 12.5518 11.2958 12.6285 11.5236 12.6096C11.7675 12.5895 11.9649 12.4668 12.102 12.2862C12.3196 12.0599 12.7177 11.5524 12.9074 11.3033C12.9088 11.3037 12.9103 11.3041 12.9117 11.3045C12.9333 11.3101 12.9593 11.3168 12.985 11.3232C12.9835 11.3228 12.9838 11.3229 12.986 11.3237C12.9921 11.3258 13.0126 11.3327 13.0522 11.3488C13.1004 11.3684 13.1618 11.3952 13.2342 11.4284C13.3788 11.4945 13.5546 11.5797 13.734 11.6687C13.9129 11.7573 14.0923 11.8482 14.2435 11.9251C14.2811 11.9443 14.3172 11.9627 14.3514 11.9801C14.4523 12.0315 14.5355 12.0739 14.5849 12.0983C14.6443 12.1278 14.7009 12.1543 14.7483 12.1764C14.7561 12.1801 14.7637 12.1837 14.771 12.1871C14.8021 12.2017 14.8274 12.2137 14.8488 12.2242C14.8492 12.2603 14.8479 12.3042 14.8441 12.3553C14.8318 12.5197 14.7949 12.7341 14.72 12.9646C14.6441 13.1153 14.4439 13.3223 14.1531 13.5146C13.8533 13.7128 13.5659 13.8239 13.422 13.8417C13.3902 13.8456 13.3598 13.8496 13.3302 13.8535C13.1168 13.8815 12.9465 13.9038 12.6331 13.8586C12.2555 13.8042 11.6665 13.6481 10.6402 13.2472ZM14.8421 12.1283C14.8421 12.1282 14.8423 12.1292 14.8427 12.1313C14.8422 12.1293 14.8421 12.1283 14.8421 12.1283Z" fill="white" stroke="white"/>
</svg>
