<svg width="52" height="57" viewBox="0 0 52 57" fill="none" xmlns="http://www.w3.org/2000/svg">
<path d="M33.1821 49.2942C33.7586 47.8111 33.985 46.1885 34.1168 44.5793C34.256 42.9727 34.3322 41.3416 34.7548 39.7948C35.1286 38.2258 36.0097 36.879 37.1411 35.5124C38.247 34.1472 39.5855 32.7857 40.5579 30.9869C41.5065 29.1796 41.9617 27.0943 41.8942 25.0222C41.7593 20.8754 40.0506 16.7404 37.0887 13.5222C36.3464 12.7165 35.4999 12.0136 34.6051 11.385C34.1307 11.1147 33.6738 10.7887 33.1858 10.5728L31.7313 9.91044C29.7458 9.15203 27.6669 8.75696 25.6179 8.70452C23.5671 8.63594 21.5464 8.95279 19.6761 9.57318C17.8122 10.1973 16.0454 11.05 14.5606 12.2236C13.0806 13.3882 11.7763 14.7248 10.8215 16.2438C9.87691 17.7615 9.16129 19.358 8.7648 20.9933C7.90663 24.2856 8.59419 27.5848 9.8412 30.0817C11.0794 32.6211 12.7105 34.5613 14.1516 36.1864C15.6273 37.7126 16.2732 39.411 16.6879 40.8511C17.088 42.2922 17.2467 43.4633 17.3788 44.2509C17.5032 45.0416 17.5815 45.459 17.6404 45.4551C17.6906 45.4517 17.7203 45.0852 17.7127 44.4175C18.5085 45.037 21.4951 46.2095 25.3092 46.2948C28.7618 46.3963 31.5879 45.5724 32.7057 44.9872C32.6592 45.588 32.6009 46.1769 32.5102 46.7412C32.0757 46.5618 31.0775 46.7415 29.9393 46.9396C28.5747 47.1964 27.3946 47.4055 27.33 47.8666C27.2557 48.3093 28.5761 48.8733 30.2349 48.5695C31.1773 48.4006 31.9079 48.0083 32.3322 47.6294C32.237 48.0452 32.1278 48.4519 31.9873 48.8399C31.9209 49.0153 31.8396 49.176 31.7651 49.3435C31.2966 49.5563 30.7275 49.8828 30.1624 50.1555C29.6015 50.4094 29.0701 50.542 28.6575 50.6123C28.2459 50.6908 27.9025 50.7005 27.7752 50.898C27.6519 51.0757 27.8361 51.49 28.4409 51.7635C28.7751 51.9191 29.2254 51.982 29.7081 51.9463C27.6309 53.3379 25.0559 53.3319 23.1077 52.809C22.1155 52.5392 21.2159 52.1436 20.5119 51.6465C19.7969 51.1517 19.2984 50.516 18.9396 49.8922C18.237 48.6191 18.0718 47.4256 17.913 46.6545C17.7739 45.8697 17.7008 45.4505 17.6404 45.4551C17.5868 45.459 17.548 45.8825 17.5812 46.6922C17.6398 47.4911 17.6863 48.7276 18.3674 50.1895C18.7168 50.9057 19.2502 51.6709 20.0352 52.2762C20.5607 52.6875 21.1876 53.0117 21.8542 53.2985C21.817 53.5955 21.8482 53.994 22.0398 54.4732C22.4369 55.4901 23.7187 56.7337 25.5669 56.7357C27.3708 56.6975 28.6339 55.5511 29.1353 54.6541C29.4453 54.115 29.54 53.676 29.536 53.375C29.8226 53.2393 30.1065 53.0908 30.3806 52.9077C31.6659 52.1257 32.6111 50.7447 33.1821 49.2942ZM22.099 44.4317C22.2488 43.1347 22.3785 41.2786 22.4097 39.4499C22.4468 38.1201 22.4 36.5965 22.1965 34.9399C22.1132 34.1124 22.0256 33.2454 21.9347 32.3422C21.9131 32.0953 21.9177 31.8343 21.9304 31.5659C22.7963 31.1546 23.2517 30.8684 23.7669 30.5867C24.0311 30.4428 24.3828 30.2302 24.6478 30.031C25.7587 29.2062 26.5829 28.3209 27.5079 27.9964C28.399 27.6546 29.5369 27.7852 30.2137 28.2979C30.3642 28.407 30.4852 28.5436 30.5949 28.6873C30.2565 28.5493 29.8988 28.4946 29.6029 28.519C28.9083 28.4665 28.136 28.8627 27.7097 29.4194C27.2585 29.9644 27.014 30.78 27.2274 31.5554C27.4314 32.2909 27.9552 32.962 28.7958 33.2313C29.3306 33.384 29.8265 33.3035 30.2599 33.1386C30.1085 33.7011 29.9371 34.2532 29.746 34.7778C29.4728 35.5275 29.137 36.2785 28.925 37.0346C28.3697 38.9221 28.278 40.7753 28.5506 42.6555C28.679 43.48 28.8261 44.1177 28.9596 44.5836C26.6211 44.71 24.5435 44.6767 22.099 44.4317ZM20.5652 30.3696C19.5429 30.784 18.4654 30.8846 17.5571 30.6035C17.3476 30.5343 17.1748 30.443 17.0467 30.3345C16.899 30.1939 16.7596 30.0511 16.6703 29.8788C16.0739 28.8127 16.8082 27.1859 17.959 26.7224C18.727 26.3886 19.4715 26.5935 20.0009 27.2133C20.5425 27.834 20.7174 28.6593 20.7018 29.5679C20.7004 29.8136 20.6882 30.0655 20.6735 30.3212C20.6375 30.3359 20.6012 30.3555 20.5652 30.3696ZM29.226 31.7666C29.0035 31.7147 28.7473 31.4492 28.6677 31.1618C28.5838 30.8982 28.6543 30.5836 28.8516 30.3237C29.0616 30.0678 29.2951 29.9148 29.6168 29.9355C30.0283 29.9034 30.2242 30.0202 30.3698 30.1781C30.5132 30.3246 30.5807 30.659 30.5915 31.0124C30.1873 31.5183 29.5202 31.8927 29.226 31.7666ZM29.3294 44.562C29.2895 44.0819 29.2322 43.4273 29.1928 42.5969C29.1254 40.8047 29.302 39.1242 29.9274 37.3594C30.1559 36.6832 30.503 36.0027 30.836 35.2069C31.2661 34.1712 31.6623 33.0586 31.8467 31.9468C32.051 31.6844 32.2273 31.3942 32.3523 31.0753C32.9438 29.6912 32.4424 27.9147 31.1892 27.0007C29.9328 26.0853 28.3613 25.9544 26.942 26.4486C25.5122 26.9846 24.6038 28.0357 23.6757 28.6896C23.274 28.9843 23.0848 29.0655 22.1404 29.6016C22.1175 29.6144 22.0953 29.6248 22.0727 29.6373C22.0732 29.6246 22.0747 29.6126 22.0752 29.5999C22.1336 28.5776 21.95 27.2703 21.1184 26.2789C20.7157 25.7857 20.146 25.3544 19.4525 25.1656C18.7576 24.9701 18.0165 25.0534 17.3802 25.3099C16.0828 25.8297 15.1569 27.0543 14.9199 28.4541C14.7995 29.1572 14.8851 29.9561 15.2637 30.6505C15.4465 31.0008 15.7109 31.2978 15.9955 31.5594C16.3172 31.8377 16.6845 32.0208 17.0401 32.1418C18.2407 32.5335 19.5021 32.4264 20.6392 32.0712C20.6463 32.2033 20.6468 32.334 20.6624 32.4672C20.7902 33.3633 20.9127 34.2235 21.0297 35.0442C21.3063 36.677 21.4327 38.155 21.4837 39.4652C21.5305 40.7782 21.571 41.909 21.6042 42.8335C21.6212 43.4471 21.6396 43.9612 21.6609 44.3872C19.683 44.1738 18.2197 43.9207 17.7025 44.0119C17.6299 42.0259 17.3202 40.0376 16.5328 38.2142C16.1607 37.3339 15.565 36.4111 14.8553 35.5839C13.4986 33.9265 11.9909 31.9893 10.9023 29.5857C9.80747 27.2088 9.27352 24.2817 10.0971 21.328C10.4831 19.8539 11.1661 18.4034 12.0393 17.0433C12.9236 15.6784 14.1247 14.4867 15.4774 13.4437C16.8349 12.3923 18.4546 11.6359 20.1571 11.0804C21.8655 10.5283 23.7111 10.2517 25.5776 10.3271C29.2696 10.4676 33.2521 11.7163 35.8819 14.657C38.5516 17.5436 40.1413 21.3744 40.2717 25.0619C40.3431 26.9089 39.9483 28.7032 39.1607 30.2447C37.9641 32.5304 35.7356 34.4067 34.364 36.8391C33.8921 37.655 33.5608 38.5551 33.3454 39.4261C32.9064 41.1526 32.8593 42.8253 32.7533 44.3775C32.1267 44.3427 30.9044 44.4677 29.3294 44.562ZM28.2187 53.9246C27.6145 54.4673 26.6393 55.0656 25.5484 55.0792C24.4927 55.0914 23.5371 54.4565 23.0527 53.8852C23.0017 53.8279 22.9685 53.7746 22.9246 53.7182C24.7625 54.2679 26.55 54.3161 28.3236 53.8271C28.2865 53.8605 28.2579 53.8905 28.2187 53.9246Z" fill="#FF9549"/>
<path d="M4.42711 37.0942C3.16876 37.9898 2.25476 38.9259 2.47951 39.3284C2.69972 39.7251 4.04536 39.3981 5.38561 38.4455C6.72785 37.4958 7.48116 36.3333 7.17904 35.9943C6.87352 35.6494 5.68858 36.2029 4.42711 37.0942Z" fill="#FF9549"/>
<path d="M2.72809 25.5962C4.26107 25.7598 5.56108 25.5251 5.63165 25.0731C5.70222 24.621 4.481 24.1174 2.90381 23.949C1.32691 23.7807 0.0268982 24.0154 0.000540909 24.4722C-0.0258164 24.9288 1.19512 25.4327 2.72809 25.5962Z" fill="#FF9549"/>
<path d="M3.81445 15.2574C4.71315 15.8911 5.61666 16.2385 5.93437 15.905C6.24924 15.5776 5.77934 14.6177 4.77238 13.9061C3.7674 13.1919 2.70716 13.0657 2.50169 13.4707C2.29196 13.8808 2.91887 14.6191 3.81445 15.2574Z" fill="#FF9549"/>
<path d="M14.8474 7.69971C15.2212 7.43642 14.8598 6.27896 14.0399 5.11471C13.22 3.95045 12.2522 3.2201 11.8781 3.48339C11.5042 3.74668 11.8656 4.90413 12.6855 6.06839C13.5054 7.23264 14.4733 7.963 14.8474 7.69971Z" fill="#FF9549"/>
<path d="M22.3008 -6.10352e-05C21.8434 -6.10352e-05 21.4727 0.0302639 21.4727 0.0673909C21.4727 0.104801 21.8434 0.134843 22.3008 0.134843C22.7582 0.134843 23.1292 0.104801 23.1292 0.0673909C23.1292 0.0302639 22.7582 -6.10352e-05 22.3008 -6.10352e-05Z" fill="#FF9549"/>
<path d="M25.6364 2.98947C25.6815 1.47889 25.5061 0.207788 25.0503 0.135801C24.6025 0.0635313 24.0303 1.31054 23.9807 2.93676C23.9269 4.56297 24.4189 5.844 24.8701 5.80007C25.3295 5.75727 25.5854 4.50006 25.6364 2.98947Z" fill="#FF9549"/>
<path d="M38.3172 6.58401C39.6194 5.23497 40.2942 3.82216 39.9417 3.53563C39.5849 3.24429 38.3739 4.14043 37.124 5.43478C35.8773 6.73195 35.0273 7.97584 35.3317 8.32132C35.6316 8.66283 37.0174 7.9356 38.3172 6.58401Z" fill="#FF9549"/>
<path d="M43.048 16.4089C43.2357 16.8261 44.9531 16.4608 46.8846 15.593C48.8157 14.7255 50.2294 13.6836 50.0418 13.2665C49.8544 12.849 48.1367 13.2143 46.2055 14.0821C44.2744 14.9499 42.8607 15.9915 43.048 16.4089Z" fill="#FF9549"/>
<path d="M45.9472 27.3928C45.8435 27.8318 47.1687 28.5128 48.9401 28.5624C50.7108 28.6177 52.0743 28.0163 51.9964 27.5719C51.9215 27.1145 50.5807 26.9589 48.9888 26.9064C47.3969 26.8648 46.0493 26.9404 45.9472 27.3928Z" fill="#FF9549"/>
<path d="M44.3186 37.7221C44.0139 38.059 44.6436 39.1241 45.824 39.974C47.0025 40.8268 48.2112 41.0896 48.4354 40.6942C48.6635 40.2943 47.8913 39.4262 46.7936 38.631C45.6934 37.8397 44.6266 37.3797 44.3186 37.7221Z" fill="#FF9549"/>
<path d="M36.5376 22.2194C37.2529 23.6855 37.5431 24.7029 37.7877 24.6661C37.9938 24.6437 38.1205 23.5265 37.6318 21.8014C37.1588 20.0949 35.9478 17.7993 33.8047 16.0167C31.6615 14.2343 29.1839 13.4614 27.4197 13.3072C25.6345 13.1409 24.5589 13.4688 24.5745 13.6757C24.583 13.9228 25.6362 14.0229 27.208 14.4593C28.7744 14.8847 30.875 15.7358 32.7453 17.2903C34.6144 18.846 35.8339 20.757 36.5376 22.2194Z" fill="#FF9549"/>
</svg>
