<svg width="30" height="30" viewBox="0 0 30 30" fill="none" xmlns="http://www.w3.org/2000/svg">
<circle cx="14.601" cy="14.6325" r="14.601" fill="#FF9549"/>
<path d="M12.1622 19.6807L12.1627 19.6813C12.2878 19.8284 12.4487 19.9457 12.6322 20.0228C12.8158 20.1 13.0166 20.1347 13.2176 20.1238L13.218 20.1237C13.6482 20.1019 14.0367 19.8845 14.2855 19.5253L22.3148 7.2806L22.3153 7.27989L22.3209 7.27159L22.3209 7.27158C22.335 7.25108 22.3476 7.20527 22.3357 7.14246C22.3243 7.08248 22.2923 7.01917 22.2365 6.97023C22.2063 6.94373 22.1702 6.92304 22.1305 6.90978L22.1693 6.79361L22.1305 6.90978C22.0907 6.89652 22.0484 6.89105 22.006 6.89383C21.9637 6.89661 21.9227 6.90755 21.8855 6.92577L12.1622 19.6807ZM12.1622 19.6807L8.29638 15.1965C8.1303 15.0032 8.02602 14.77 7.99467 14.5242C7.96333 14.2784 8.00604 14.029 8.11833 13.8046C8.23066 13.5802 8.40831 13.3895 8.63162 13.2552C8.85491 13.1211 9.11434 13.0491 9.37985 13.0484C9.72977 13.0487 10.0659 13.1731 10.3221 13.3955L10.3224 13.3958M12.1622 19.6807L10.3224 13.3958M10.3224 13.3958L13.0103 15.712L13.0904 15.6191M10.3224 13.3958L13.0904 15.6191M13.0904 15.6191L13.0103 15.712C13.0569 15.7521 13.1112 15.7828 13.1697 15.8025C13.2282 15.8223 13.2901 15.8307 13.3518 15.8276C13.4136 15.8244 13.4743 15.8097 13.5303 15.784C13.5865 15.7583 13.6371 15.7221 13.679 15.6772L21.7778 7.01255L21.778 7.01239L21.6884 6.92866L13.0904 15.6191ZM12.0693 19.7608C12.2072 19.9228 12.3839 20.0514 12.5847 20.1359C12.7856 20.2203 13.0048 20.2581 13.2242 20.2462L12.0693 19.7608Z" fill="white"/>
<path d="M12.1622 19.6807L12.1627 19.6813C12.2878 19.8284 12.4487 19.9457 12.6322 20.0228C12.8158 20.1 13.0166 20.1347 13.2176 20.1238L13.218 20.1237C13.6482 20.1019 14.0367 19.8845 14.2855 19.5253L22.3148 7.2806L22.3153 7.27989L22.3209 7.27159L22.3209 7.27158C22.335 7.25108 22.3476 7.20527 22.3357 7.14246C22.3243 7.08248 22.2923 7.01917 22.2365 6.97023C22.2063 6.94373 22.1702 6.92304 22.1305 6.90978L22.1693 6.79361L22.1305 6.90978C22.0907 6.89652 22.0484 6.89105 22.006 6.89383C21.9637 6.89661 21.9227 6.90755 21.8855 6.92577L12.1622 19.6807ZM12.1622 19.6807L8.29638 15.1965C8.1303 15.0032 8.02602 14.77 7.99467 14.5242C7.96333 14.2784 8.00604 14.029 8.11833 13.8046C8.23066 13.5802 8.40831 13.3895 8.63162 13.2552C8.85491 13.1211 9.11434 13.0491 9.37985 13.0484C9.72977 13.0487 10.0659 13.1731 10.3221 13.3955L10.3224 13.3958M12.1622 19.6807L10.3224 13.3958M10.3224 13.3958L13.0103 15.712L13.0904 15.6191M10.3224 13.3958L13.0904 15.6191M13.0904 15.6191L13.0103 15.712C13.0569 15.7521 13.1112 15.7828 13.1697 15.8025C13.2282 15.8223 13.2901 15.8307 13.3518 15.8276C13.4136 15.8244 13.4743 15.8097 13.5303 15.784C13.5865 15.7583 13.6371 15.7221 13.679 15.6772L21.7778 7.01255L21.778 7.01239L21.6884 6.92866L13.0904 15.6191ZM12.0693 19.7608C12.2072 19.9228 12.3839 20.0514 12.5847 20.1359C12.7856 20.2203 13.0048 20.2581 13.2242 20.2462L12.0693 19.7608Z" stroke="white" stroke-width="0.245234"/>
<path d="M12.1622 19.6807L12.1627 19.6813C12.2878 19.8284 12.4487 19.9457 12.6322 20.0228C12.8158 20.1 13.0166 20.1347 13.2176 20.1238L13.218 20.1237C13.6482 20.1019 14.0367 19.8845 14.2855 19.5253L22.3148 7.2806L22.3153 7.27989L22.3209 7.27159L22.3209 7.27158C22.335 7.25108 22.3476 7.20527 22.3357 7.14246C22.3243 7.08248 22.2923 7.01917 22.2365 6.97023C22.2063 6.94373 22.1702 6.92304 22.1305 6.90978L22.1693 6.79361L22.1305 6.90978C22.0907 6.89652 22.0484 6.89105 22.006 6.89383C21.9637 6.89661 21.9227 6.90755 21.8855 6.92577L12.1622 19.6807ZM12.1622 19.6807L8.29638 15.1965C8.1303 15.0032 8.02602 14.77 7.99467 14.5242C7.96333 14.2784 8.00604 14.029 8.11833 13.8046C8.23066 13.5802 8.40831 13.3895 8.63162 13.2552C8.85491 13.1211 9.11434 13.0491 9.37985 13.0484C9.72977 13.0487 10.0659 13.1731 10.3221 13.3955L10.3224 13.3958M12.1622 19.6807L10.3224 13.3958M10.3224 13.3958L13.0103 15.712L13.0904 15.6191M10.3224 13.3958L13.0904 15.6191M13.0904 15.6191L13.0103 15.712C13.0569 15.7521 13.1112 15.7828 13.1697 15.8025C13.2282 15.8223 13.2901 15.8307 13.3518 15.8276C13.4136 15.8244 13.4743 15.8097 13.5303 15.784C13.5865 15.7583 13.6371 15.7221 13.679 15.6772L21.7778 7.01255L21.778 7.01239L21.6884 6.92866L13.0904 15.6191ZM12.0693 19.7608C12.2072 19.9228 12.3839 20.0514 12.5847 20.1359C12.7856 20.2203 13.0048 20.2581 13.2242 20.2462L12.0693 19.7608Z" stroke="#FF9549" stroke-width="0.245234"/>
</svg>
