<svg width="162" height="36" viewBox="0 0 162 36" fill="none" xmlns="http://www.w3.org/2000/svg">
<path d="M73.0827 10.4745H76.8586C76.4932 12.5452 75.8842 14.0068 75.0316 14.7376C74.1789 15.4685 72.5955 15.8339 70.2812 15.8339H63.3383C61.5113 15.8339 60.2932 15.5903 59.5624 15.1031C58.8316 14.6158 58.4662 13.6414 58.4662 12.4234C58.4662 11.8143 58.588 11.2053 58.7098 10.3527L59.4406 5.96771C59.806 3.65343 60.5368 2.19177 61.5113 1.33914C62.4857 0.486507 64.191 0.121094 66.5053 0.121094H72.7173C74.4226 0.121094 75.6406 0.364703 76.4932 0.851921C77.4677 1.46094 77.9549 2.43538 77.9549 3.89703C77.9549 4.38425 77.9549 4.99327 77.8331 5.6023H74.0571V4.99327C74.0571 4.38425 73.8135 3.89703 73.4481 3.65342C73.0827 3.40982 72.3519 3.28801 71.3774 3.28801H66.6271C65.409 3.28801 64.5564 3.53162 64.0692 3.77523C63.582 4.14064 63.3383 4.87147 63.0947 6.08952L62.3639 9.98726C62.2421 10.3527 62.2421 10.7181 62.2421 10.8399C62.2421 10.9617 62.2421 11.0835 62.2421 11.0835C62.2421 11.8143 62.4857 12.3015 62.8511 12.4234C63.2165 12.667 63.9474 12.7888 64.9218 12.7888H69.6722C70.8902 12.7888 71.6211 12.667 72.1083 12.3015C72.5955 12.0579 72.9609 11.4489 73.0827 10.4745Z" fill="white"/>
<path d="M93.7895 0.242898H88.3083L77.2241 15.9557H81.609L84.2887 12.0579H93.5459L94.8857 15.9557H99.2707L93.7895 0.242898ZM86.3594 9.01282L90.5008 3.16621H90.7444L92.5714 9.01282H86.3594Z" fill="white"/>
<path d="M120.83 0.242898L118.029 15.9557H114.253L116.445 3.40982H107.675L106.457 10.2309C106.092 12.1797 105.483 13.6414 104.63 14.494C103.777 15.4685 102.559 15.9557 101.098 15.9557H99.5143L100.123 12.7888C101.098 12.7888 101.707 12.5452 102.072 12.1797C102.438 11.8143 102.681 10.9617 102.925 9.74365L104.63 0.242898H120.83Z" fill="white"/>
<path d="M139.466 0.851921C138.735 0.364703 137.517 0.121094 135.812 0.121094H128.869C126.677 0.121094 125.093 0.486507 124.119 1.33914C123.144 2.19177 122.414 3.53162 122.048 5.7241L121.195 10.5963C121.074 11.2053 121.074 11.6925 121.074 12.3015C121.074 13.6414 121.439 14.494 122.292 15.1031C123.144 15.7121 124.362 15.9557 126.068 15.9557H132.889C135.081 15.9557 136.543 15.5903 137.517 14.7376C138.492 13.885 139.101 12.5452 139.466 10.5963L140.319 5.7241C140.441 4.99327 140.562 4.38425 140.562 3.77523C140.684 2.31358 140.319 1.46094 139.466 0.851921ZM136.786 5.96771L136.056 10.1091C135.934 11.2053 135.568 11.9361 135.081 12.1797C134.594 12.5452 133.863 12.667 132.645 12.667H127.651C126.677 12.667 126.068 12.5452 125.702 12.3015C125.337 12.0579 125.093 11.6925 125.093 10.9617C125.093 10.7181 125.093 10.5963 125.093 10.5963C125.093 10.4745 125.093 10.3527 125.215 9.98726L125.946 5.84591C126.189 4.74967 126.433 4.01884 126.92 3.65342C127.408 3.28801 128.26 3.0444 129.356 3.0444H134.229C135.203 3.0444 135.812 3.16621 136.299 3.40982C136.665 3.65342 136.908 4.14064 136.908 4.74967C136.908 5.23688 136.786 5.6023 136.786 5.96771Z" fill="white"/>
<path d="M147.505 0.242898L146.409 6.21132H156.032L157.128 0.242898H160.904L158.224 15.9557H154.448L155.666 9.50004H146.044L144.947 15.9557H141.171L143.729 0.242898H147.505Z" fill="white"/>
<path d="M63.9474 20.2188L62.9729 26.0655H65.1654L72.9609 20.2188H78.5639L68.0887 27.5271L76.2496 35.8098H70.6466L64.5564 29.1106H62.2421L61.0241 35.8098H57.2481L60.0496 20.2188H63.9474Z" fill="white"/>
<path d="M96.8346 20.8279C96.1038 20.3406 94.8857 20.097 93.1805 20.097H86.3594C84.1669 20.097 82.5835 20.4624 81.609 21.3151C80.6346 22.1677 79.9038 23.5076 79.5384 25.7L78.6857 30.5722C78.5639 31.1812 78.5639 31.6685 78.5639 32.2775C78.5639 33.6173 78.9293 34.47 79.782 35.079C80.6346 35.688 81.8526 35.9316 83.5579 35.9316H90.3789C92.5714 35.9316 94.0331 35.5662 95.0075 34.7136C95.982 33.8609 96.591 32.5211 96.9564 30.5722L97.809 25.7C97.9308 24.9692 98.0526 24.3602 98.0526 23.7512C98.0526 22.2895 97.5654 21.4369 96.8346 20.8279ZM94.0331 25.9437L93.3023 30.085C93.0586 31.1812 92.815 31.9121 92.3278 32.1557C91.8406 32.5211 91.1098 32.6429 89.8917 32.6429H84.8977C83.9233 32.6429 83.3143 32.5211 82.9489 32.2775C82.5835 32.0339 82.3399 31.6685 82.3399 30.9376C82.3399 30.694 82.3399 30.5722 82.3399 30.5722C82.3399 30.4504 82.3398 30.3286 82.4616 29.9632L83.1925 25.8218C83.4361 24.7256 83.6797 23.9948 84.1669 23.6294C84.6541 23.264 85.5068 23.0203 86.603 23.0203H91.4752C92.4496 23.0203 93.0586 23.1421 93.5459 23.3858C93.9113 23.6294 94.1549 24.1166 94.1549 24.7256C94.1549 25.2128 94.1549 25.5782 94.0331 25.9437Z" fill="white"/>
<path d="M116.811 25.7C117.054 24.9692 117.298 24.2384 117.298 23.264C117.298 22.1677 116.932 21.4369 116.08 20.9497C115.227 20.4625 114.131 20.2188 112.426 20.2188H101.098L98.2962 35.9316H110.355C112.182 35.9316 113.522 35.5662 114.496 34.8354C115.471 34.1046 116.08 33.0083 116.323 31.3031C116.323 31.1812 116.323 31.0594 116.445 30.8158C116.445 30.5722 116.445 30.4504 116.445 30.2068C116.445 29.476 116.323 28.867 115.836 28.5015C115.592 28.2579 115.105 27.8925 114.374 27.6489C115.714 27.4053 116.445 26.7963 116.811 25.7ZM112.426 32.3993C112.06 32.7647 111.329 33.0083 110.233 33.0083H102.681L103.29 29.476H110.964C111.695 29.476 112.182 29.5978 112.426 29.7196C112.669 29.8414 112.791 30.2068 112.791 30.5722C112.913 31.4249 112.791 32.0339 112.426 32.3993ZM112.791 25.9437C112.426 26.3091 111.938 26.5527 111.451 26.5527H103.777L104.386 23.1421H112.06C112.547 23.1421 112.913 23.264 113.156 23.5076C113.278 23.7512 113.4 23.9948 113.4 24.3602C113.4 24.9692 113.156 25.5782 112.791 25.9437Z" fill="white"/>
<path d="M124.971 20.2188L123.997 26.0655H126.189L133.985 20.2188H139.588L129.113 27.5271L137.274 35.8098H131.792L125.702 29.1106H123.388L122.17 35.8098H118.394L121.195 20.2188H124.971Z" fill="white"/>
<path d="M159.077 35.9316H155.301L157.493 23.3858H157.128L145.556 35.9316H139.101L141.902 20.3406H145.678L143.486 32.8865H143.973L155.666 20.3406H162L159.077 35.9316Z" fill="white"/>
<path d="M53.8376 35.8098H39.5865L26.5534 22.8985H17.7835C15.1038 22.8985 12.9113 20.7061 12.9113 18.0264C12.9113 16.6865 13.5203 15.4685 14.3729 14.6158C15.1038 13.885 15.9564 13.3978 16.9308 13.276C17.1744 13.1542 17.5399 13.1542 17.9053 13.1542H27.7714L29.4767 11.4489L40.6827 0.121094H54.9338L36.5414 18.5136L53.8376 35.8098Z" fill="white"/>
<path d="M34.4707 35.8098H17.9053C12.9113 35.8098 8.52632 33.7391 5.23759 30.5722C1.94887 27.4053 0 22.8985 0 18.0264C0 8.16019 8.0391 0.121094 17.9053 0.121094H35.5669L25.4571 10.2309H17.9053C16.5654 10.2309 15.2256 10.5963 14.1293 11.2053C13.2767 11.6925 12.4241 12.4234 11.815 13.1542C10.7188 14.494 10.1098 16.1993 10.1098 18.0264C10.1098 20.097 10.9624 22.0459 12.3023 23.3858C13.0331 24.1166 13.8857 24.7256 14.8602 25.091C15.8346 25.4564 16.809 25.7 17.9053 25.7H24.3609L34.4707 35.8098Z" fill="#FF9549"/>
</svg>
