<svg width="34" height="71" viewBox="0 0 34 71" fill="none" xmlns="http://www.w3.org/2000/svg">
<g opacity="0.8">
<path d="M34 37.9481V15.5448C34 6.97349 26.9919 0 18.378 0H15.622C7.0081 0 0 6.97349 0 15.5448V37.9481C0 46.5195 7.0081 53.4925 15.622 53.4925H18.378C26.9919 53.4925 34 46.5195 34 37.9481ZM1.74047 15.5448C1.74047 7.92835 7.96785 1.73172 15.6221 1.73172H18.3781C26.0324 1.73172 32.2598 7.92835 32.2598 15.5448V18.3068H1.74061L1.74047 15.5448ZM18.378 51.7609H15.622C7.96771 51.7609 1.74032 45.5646 1.74032 37.9483V20.0386H32.2595V37.9483C32.2597 45.5646 26.0323 51.7609 18.378 51.7609Z" fill="#FF9549"/>
<path d="M17.0001 4.61688C15.2139 4.61688 13.7607 6.06276 13.7607 7.83978V13.152C13.7607 14.9293 15.2138 16.3753 17.0001 16.3753C18.7863 16.3753 20.2394 14.9294 20.2394 13.152V7.83978C20.2394 6.06276 18.7862 4.61688 17.0001 4.61688ZM18.4991 13.1519C18.4991 13.9744 17.8267 14.6435 17.0001 14.6435C16.1734 14.6435 15.5011 13.9744 15.5011 13.1519V7.83978C15.5011 7.01763 16.1734 6.3486 17.0001 6.3486C17.8267 6.3486 18.4991 7.01763 18.4991 7.83978V13.1519ZM17.0001 55.183C16.8858 55.183 16.7726 55.2053 16.667 55.2488C16.5614 55.2923 16.4655 55.3561 16.3847 55.4365C16.3039 55.5169 16.2398 55.6124 16.1961 55.7175C16.1524 55.8225 16.1299 55.9351 16.1299 56.0489V68.044L12.5303 64.4622C12.1905 64.124 11.6398 64.124 11.3 64.4622C10.9601 64.8004 10.9601 65.3483 11.3 65.6865L16.3849 70.7464C16.5549 70.9155 16.7775 71 17.0002 71C17.2229 71 17.4456 70.9155 17.6155 70.7464L22.7005 65.6865C23.0403 65.3483 23.0403 64.8004 22.7005 64.4622C22.3606 64.124 21.8099 64.124 21.4701 64.4622L17.8705 68.044V56.0489C17.8704 55.8192 17.7787 55.599 17.6154 55.4366C17.4522 55.2743 17.2309 55.183 17.0001 55.183Z" fill="#FF9549"/>
</g>
</svg>
