<svg width="84" height="26" viewBox="0 0 84 26" fill="none" xmlns="http://www.w3.org/2000/svg">
<path d="M48.6332 12.6423L53.1137 8.16178C53.1537 8.12079 53.1845 8.07171 53.204 8.01783L55.5613 1.24707C55.5848 1.17952 55.5887 1.10672 55.5727 1.03701C55.5568 0.9673 55.5214 0.903509 55.4709 0.852952C55.4203 0.802395 55.3565 0.76712 55.2867 0.751172C55.217 0.735225 55.1442 0.73925 55.0767 0.762787L48.3097 3.12396C48.2559 3.14343 48.2069 3.17417 48.166 3.21412L43.6855 7.69466L37.1179 1.12705C36.5982 0.607335 35.7526 0.60743 35.2329 1.12709L31.8233 4.53668C31.3036 5.05639 31.3036 5.90203 31.8233 6.4217L38.3909 12.9893L32.1016 19.2786C31.6679 19.7123 31.429 20.2891 31.429 20.9024C31.429 21.5158 31.6679 22.0925 32.1016 22.5263L33.8015 24.2262C34.2493 24.6739 34.8373 24.8977 35.4253 24.8977C36.0134 24.8977 36.6015 24.6739 37.0493 24.2262L43.3385 17.9369L49.8897 24.488C50.1496 24.7479 50.4909 24.8778 50.8322 24.8778C51.1736 24.8778 51.5149 24.7479 51.7748 24.488L55.1843 21.0785C55.7041 20.5588 55.7041 19.7132 55.1843 19.1935L48.6332 12.6423ZM39.5501 20.6494L37.8831 18.9824L44.5545 12.311C44.5689 12.3002 44.583 12.2887 44.5961 12.2755L46.1623 10.7094C46.1751 10.6964 46.1869 10.6824 46.1977 10.6677L50.3198 6.54577L50.4076 7.77265C50.4141 7.86391 50.4533 7.94977 50.518 8.01447C50.5827 8.07917 50.6686 8.11838 50.7598 8.12492L51.9867 8.21271L39.5501 20.6494ZM37.9047 22.2948L34.0331 18.4232L35.1405 17.3158L37.0758 19.2512L37.0763 19.2516L39.0121 21.1874L37.9047 22.2948ZM43.9546 8.50169L43.955 8.50121L48.115 4.34123L48.2027 5.56778C48.2092 5.65907 48.2485 5.74496 48.3132 5.80968C48.3779 5.8744 48.4638 5.91362 48.5551 5.92015L49.7817 6.00779L37.3451 18.4444L35.6785 16.7778L43.9546 8.50169ZM51.9538 2.65827L53.6676 4.3721L52.5812 7.49246L51.1429 7.38955L51.0191 5.66061C51.0083 5.47634 50.851 5.31908 50.6668 5.30828L48.9381 5.18474L48.8353 3.74644L51.9538 2.65827ZM53.9454 3.57396L52.7516 2.37994L54.5838 1.74058L53.9454 3.57396ZM32.3614 5.88368C32.1383 5.66065 32.1383 5.29773 32.3614 5.07465L35.7709 1.66507C35.824 1.61191 35.8871 1.56977 35.9565 1.54106C36.0259 1.51235 36.1003 1.49764 36.1755 1.49777C36.3219 1.49777 36.4684 1.55355 36.5799 1.66507L37.1848 2.26999L35.8877 3.56725C35.852 3.6025 35.8236 3.64446 35.8042 3.69071C35.7848 3.73695 35.7748 3.78658 35.7746 3.83674C35.7745 3.88689 35.7842 3.93657 35.8034 3.98294C35.8225 4.0293 35.8506 4.07143 35.8861 4.10689C35.9215 4.14235 35.9636 4.17045 36.01 4.18957C36.0564 4.20869 36.1061 4.21845 36.1562 4.2183C36.2064 4.21815 36.256 4.20808 36.3022 4.18867C36.3485 4.16926 36.3904 4.14091 36.4257 4.10523L37.7228 2.80802L39.2274 4.31261L38.6459 4.89419C38.5745 4.96554 38.5344 5.06231 38.5345 5.16321C38.5345 5.2641 38.5746 5.36087 38.6459 5.43221C38.7173 5.50355 38.814 5.54362 38.9149 5.54361C39.0158 5.5436 39.1126 5.50351 39.1839 5.43216L39.7655 4.85058L41.2701 6.35517L39.9728 7.65238C39.9375 7.68771 39.9095 7.72965 39.8904 7.77581C39.8713 7.82197 39.8614 7.87144 39.8614 7.9214C39.8614 7.97136 39.8713 8.02083 39.8904 8.06699C39.9095 8.11314 39.9376 8.15508 39.9729 8.1904C40.0082 8.22573 40.0502 8.25375 40.0963 8.27286C40.1425 8.29198 40.1919 8.30181 40.2419 8.30181C40.2919 8.3018 40.3413 8.29196 40.3875 8.27283C40.4337 8.25371 40.4756 8.22569 40.5109 8.19036L41.8081 6.89319L43.1476 8.23268L38.9289 12.4513L32.3614 5.88368ZM36.5112 23.6882C35.9125 24.2869 34.9383 24.2869 34.3396 23.6882L32.6396 21.9883C32.3495 21.6982 32.1898 21.3126 32.1898 20.9024C32.1898 20.4923 32.3496 20.1066 32.6397 19.8166L33.4951 18.9611L37.3667 22.8328L36.5112 23.6882ZM54.6463 20.5405L51.2367 23.9501C51.0138 24.173 50.6508 24.1731 50.4278 23.9501L43.8766 17.3988L48.0952 13.1802L49.4405 14.5255L48.1432 15.8227C48.1079 15.858 48.0798 15.9 48.0607 15.9461C48.0416 15.9923 48.0318 16.0418 48.0318 16.0917C48.0318 16.1417 48.0416 16.1912 48.0607 16.2373C48.0799 16.2835 48.1079 16.3254 48.1432 16.3607C48.1786 16.3961 48.2205 16.4241 48.2667 16.4432C48.3128 16.4623 48.3623 16.4722 48.4122 16.4722C48.4622 16.4722 48.5117 16.4623 48.5578 16.4432C48.604 16.4241 48.6459 16.396 48.6813 16.3607L49.9784 15.0635L51.483 16.5681L50.9014 17.1497C50.8301 17.221 50.79 17.3178 50.79 17.4187C50.79 17.5196 50.8301 17.6163 50.9014 17.6877C50.9728 17.759 51.0696 17.7991 51.1705 17.7991C51.2714 17.7991 51.3681 17.759 51.4395 17.6877L52.021 17.1061L53.5256 18.6107L52.2284 19.9079C52.193 19.9432 52.165 19.9851 52.1459 20.0313C52.1268 20.0775 52.117 20.1269 52.117 20.1769C52.117 20.2269 52.1268 20.2763 52.1459 20.3225C52.165 20.3686 52.1931 20.4106 52.2284 20.4459C52.2637 20.4812 52.3057 20.5093 52.3518 20.5284C52.398 20.5475 52.4475 20.5573 52.4974 20.5573C52.5474 20.5573 52.5969 20.5475 52.643 20.5284C52.6892 20.5092 52.7311 20.4812 52.7664 20.4459L54.0637 19.1487L54.6463 19.7314C54.8694 19.9544 54.8694 20.3174 54.6463 20.5405Z" fill="white"/>
<path d="M81.1014 24.9812H67.023C66.2546 24.9803 65.5178 24.6808 64.9744 24.1482C64.431 23.6157 64.1254 22.8937 64.1245 22.1406V3.47432C64.1254 2.72123 64.431 1.99923 64.9744 1.46671C65.5178 0.934193 66.2546 0.634648 67.023 0.633789H81.1014C81.8699 0.634648 82.6066 0.934193 83.15 1.46671C83.6934 1.99923 83.9991 2.72123 83.9999 3.47432V22.1406C83.9991 22.8937 83.6934 23.6157 83.15 24.1482C82.6066 24.6808 81.8699 24.9803 81.1014 24.9812ZM67.023 1.44537C66.4741 1.44601 65.9479 1.65998 65.5598 2.04035C65.1716 2.42071 64.9533 2.9364 64.9527 3.47432V22.1406C64.9533 22.6786 65.1716 23.1942 65.5598 23.5746C65.9479 23.955 66.4741 24.1689 67.023 24.1696H81.1014C81.6503 24.1689 82.1766 23.955 82.5647 23.5746C82.9528 23.1942 83.1711 22.6786 83.1718 22.1406V3.47432C83.1711 2.9364 82.9528 2.42071 82.5647 2.04035C82.1766 1.65998 81.6503 1.44601 81.1014 1.44537H67.023Z" fill="white"/>
<path d="M75.3044 23.358H72.82C72.4906 23.358 72.1746 23.2297 71.9416 23.0014C71.7087 22.7731 71.5778 22.4635 71.5778 22.1406V20.5175C71.5778 20.1946 71.7087 19.885 71.9416 19.6567C72.1746 19.4284 72.4906 19.3001 72.82 19.3001H75.3044C75.6339 19.3001 75.9499 19.4284 76.1828 19.6567C76.4158 19.885 76.5467 20.1946 76.5467 20.5175V22.1406C76.5467 22.4635 76.4158 22.7731 76.1828 23.0014C75.9499 23.2297 75.6339 23.358 75.3044 23.358ZM72.82 20.1117C72.7102 20.1117 72.6049 20.1544 72.5272 20.2305C72.4496 20.3066 72.4059 20.4099 72.4059 20.5175V22.1406C72.4059 22.2483 72.4496 22.3515 72.5272 22.4276C72.6049 22.5037 72.7102 22.5464 72.82 22.5464H75.3044C75.4143 22.5464 75.5196 22.5037 75.5972 22.4276C75.6749 22.3515 75.7185 22.2483 75.7185 22.1406V20.5175C75.7185 20.4099 75.6749 20.3066 75.5972 20.2305C75.5196 20.1544 75.4143 20.1117 75.3044 20.1117H72.82ZM69.5074 23.358H67.023C66.6936 23.358 66.3776 23.2297 66.1446 23.0014C65.9117 22.7731 65.7808 22.4635 65.7808 22.1406V20.5175C65.7808 20.1946 65.9117 19.885 66.1446 19.6567C66.3776 19.4284 66.6936 19.3001 67.023 19.3001H69.5074C69.8369 19.3001 70.1529 19.4284 70.3858 19.6567C70.6188 19.885 70.7497 20.1946 70.7497 20.5175V22.1406C70.7497 22.4635 70.6188 22.7731 70.3858 23.0014C70.1529 23.2297 69.8369 23.358 69.5074 23.358ZM67.023 20.1117C66.9132 20.1117 66.8079 20.1544 66.7302 20.2305C66.6526 20.3066 66.6089 20.4099 66.6089 20.5175V22.1406C66.6089 22.2483 66.6526 22.3515 66.7302 22.4276C66.8079 22.5037 66.9132 22.5464 67.023 22.5464H69.5074C69.6173 22.5464 69.7226 22.5037 69.8002 22.4276C69.8779 22.3515 69.9215 22.2483 69.9215 22.1406V20.5175C69.9215 20.4099 69.8779 20.3066 69.8002 20.2305C69.7226 20.1544 69.6173 20.1117 69.5074 20.1117H67.023ZM81.1014 23.358H78.617C78.2876 23.358 77.9716 23.2297 77.7386 23.0014C77.5057 22.7731 77.3748 22.4635 77.3748 22.1406V15.648C77.3748 15.3251 77.5057 15.0155 77.7386 14.7872C77.9716 14.5589 78.2876 14.4306 78.617 14.4306H81.1014C81.4309 14.4306 81.7469 14.5589 81.9798 14.7872C82.2128 15.0155 82.3437 15.3251 82.3437 15.648V22.1406C82.3437 22.4635 82.2128 22.7731 81.9798 23.0014C81.7469 23.2297 81.4309 23.358 81.1014 23.358ZM78.617 15.2422C78.5072 15.2422 78.4019 15.285 78.3242 15.3611C78.2466 15.4372 78.2029 15.5404 78.2029 15.648V22.1406C78.2029 22.2483 78.2466 22.3515 78.3242 22.4276C78.4019 22.5037 78.5072 22.5464 78.617 22.5464H81.1014C81.2113 22.5464 81.3166 22.5037 81.3942 22.4276C81.4719 22.3515 81.5155 22.2483 81.5155 22.1406V15.648C81.5155 15.5404 81.4719 15.4372 81.3942 15.3611C81.3166 15.285 81.2113 15.2422 81.1014 15.2422H78.617ZM75.3044 18.4885H72.82C72.4906 18.4885 72.1746 18.3603 71.9416 18.132C71.7087 17.9037 71.5778 17.594 71.5778 17.2712V15.648C71.5778 15.3251 71.7087 15.0155 71.9416 14.7872C72.1746 14.5589 72.4906 14.4306 72.82 14.4306H75.3044C75.6339 14.4306 75.9499 14.5589 76.1828 14.7872C76.4158 15.0155 76.5467 15.3251 76.5467 15.648V17.2712C76.5467 17.594 76.4158 17.9037 76.1828 18.132C75.9499 18.3603 75.6339 18.4885 75.3044 18.4885ZM72.82 15.2422C72.7102 15.2422 72.6049 15.285 72.5272 15.3611C72.4496 15.4372 72.4059 15.5404 72.4059 15.648V17.2712C72.4059 17.3788 72.4496 17.482 72.5272 17.5581C72.6049 17.6342 72.7102 17.677 72.82 17.677H75.3044C75.4143 17.677 75.5196 17.6342 75.5972 17.5581C75.6749 17.482 75.7185 17.3788 75.7185 17.2712V15.648C75.7185 15.5404 75.6749 15.4372 75.5972 15.3611C75.5196 15.285 75.4143 15.2422 75.3044 15.2422H72.82ZM69.5074 18.4885H67.023C66.6936 18.4885 66.3776 18.3603 66.1446 18.132C65.9117 17.9037 65.7808 17.594 65.7808 17.2712V15.648C65.7808 15.3251 65.9117 15.0155 66.1446 14.7872C66.3776 14.5589 66.6936 14.4306 67.023 14.4306H69.5074C69.8369 14.4306 70.1529 14.5589 70.3858 14.7872C70.6188 15.0155 70.7497 15.3251 70.7497 15.648V17.2712C70.7497 17.594 70.6188 17.9037 70.3858 18.132C70.1529 18.3603 69.8369 18.4885 69.5074 18.4885ZM67.023 15.2422C66.9132 15.2422 66.8079 15.285 66.7302 15.3611C66.6526 15.4372 66.6089 15.5404 66.6089 15.648V17.2712C66.6089 17.3788 66.6526 17.482 66.7302 17.5581C66.8079 17.6342 66.9132 17.677 67.023 17.677H69.5074C69.6173 17.677 69.7226 17.6342 69.8002 17.5581C69.8779 17.482 69.9215 17.3788 69.9215 17.2712V15.648C69.9215 15.5404 69.8779 15.4372 69.8002 15.3611C69.7226 15.285 69.6173 15.2422 69.5074 15.2422H67.023ZM75.3044 13.6191H72.82C72.4906 13.6191 72.1746 13.4908 71.9416 13.2625C71.7087 13.0342 71.5778 12.7246 71.5778 12.4017V10.7785C71.5778 10.4557 71.7087 10.146 71.9416 9.91772C72.1746 9.68942 72.4906 9.56116 72.82 9.56116H75.3044C75.6339 9.56116 75.9499 9.68942 76.1828 9.91772C76.4158 10.146 76.5467 10.4557 76.5467 10.7785V12.4017C76.5467 12.7246 76.4158 13.0342 76.1828 13.2625C75.9499 13.4908 75.6339 13.6191 75.3044 13.6191ZM72.82 10.3727C72.7102 10.3727 72.6049 10.4155 72.5272 10.4916C72.4496 10.5677 72.4059 10.6709 72.4059 10.7785V12.4017C72.4059 12.5093 72.4496 12.6125 72.5272 12.6886C72.6049 12.7647 72.7102 12.8075 72.82 12.8075H75.3044C75.4143 12.8075 75.5196 12.7647 75.5972 12.6886C75.6749 12.6125 75.7185 12.5093 75.7185 12.4017V10.7785C75.7185 10.6709 75.6749 10.5677 75.5972 10.4916C75.5196 10.4155 75.4143 10.3727 75.3044 10.3727H72.82ZM69.5074 13.6191H67.023C66.6936 13.6191 66.3776 13.4908 66.1446 13.2625C65.9117 13.0342 65.7808 12.7246 65.7808 12.4017V10.7785C65.7808 10.4557 65.9117 10.146 66.1446 9.91772C66.3776 9.68942 66.6936 9.56116 67.023 9.56116H69.5074C69.8369 9.56116 70.1529 9.68942 70.3858 9.91772C70.6188 10.146 70.7497 10.4557 70.7497 10.7785V12.4017C70.7497 12.7246 70.6188 13.0342 70.3858 13.2625C70.1529 13.4908 69.8369 13.6191 69.5074 13.6191ZM67.023 10.3727C66.9132 10.3727 66.8079 10.4155 66.7302 10.4916C66.6526 10.5677 66.6089 10.6709 66.6089 10.7785V12.4017C66.6089 12.5093 66.6526 12.6125 66.7302 12.6886C66.8079 12.7647 66.9132 12.8075 67.023 12.8075H69.5074C69.6173 12.8075 69.7226 12.7647 69.8002 12.6886C69.8779 12.6125 69.9215 12.5093 69.9215 12.4017V10.7785C69.9215 10.6709 69.8779 10.5677 69.8002 10.4916C69.7226 10.4155 69.6173 10.3727 69.5074 10.3727H67.023ZM81.1014 13.6191H78.617C78.2876 13.6191 77.9716 13.4908 77.7386 13.2625C77.5057 13.0342 77.3748 12.7246 77.3748 12.4017V10.7785C77.3748 10.4557 77.5057 10.146 77.7386 9.91772C77.9716 9.68942 78.2876 9.56116 78.617 9.56116H81.1014C81.4309 9.56116 81.7469 9.68942 81.9798 9.91772C82.2128 10.146 82.3437 10.4557 82.3437 10.7785V12.4017C82.3437 12.7246 82.2128 13.0342 81.9798 13.2625C81.7469 13.4908 81.4309 13.6191 81.1014 13.6191ZM78.617 10.3727C78.5072 10.3727 78.4019 10.4155 78.3242 10.4916C78.2466 10.5677 78.2029 10.6709 78.2029 10.7785V12.4017C78.2029 12.5093 78.2466 12.6125 78.3242 12.6886C78.4019 12.7647 78.5072 12.8075 78.617 12.8075H81.1014C81.2113 12.8075 81.3166 12.7647 81.3942 12.6886C81.4719 12.6125 81.5155 12.5093 81.5155 12.4017V10.7785C81.5155 10.6709 81.4719 10.5677 81.3942 10.4916C81.3166 10.4155 81.2113 10.3727 81.1014 10.3727H78.617ZM81.1014 7.938H67.023C66.6936 7.938 66.3776 7.80974 66.1446 7.58144C65.9117 7.35314 65.7808 7.0435 65.7808 6.72063V3.47432C65.7808 3.15145 65.9117 2.84181 66.1446 2.61351C66.3776 2.38521 66.6936 2.25695 67.023 2.25695H81.1014C81.4309 2.25695 81.7469 2.38521 81.9798 2.61351C82.2128 2.84181 82.3437 3.15145 82.3437 3.47432V6.72063C82.3437 7.0435 82.2128 7.35314 81.9798 7.58144C81.7469 7.80974 81.4309 7.938 81.1014 7.938ZM67.023 3.06853C66.9132 3.06853 66.8079 3.11128 66.7302 3.18738C66.6526 3.26348 66.6089 3.36669 66.6089 3.47432V6.72063C66.6089 6.82826 66.6526 6.93147 66.7302 7.00757C66.8079 7.08367 66.9132 7.12642 67.023 7.12642H81.1014C81.2113 7.12642 81.3166 7.08367 81.3942 7.00757C81.4719 6.93147 81.5155 6.82826 81.5155 6.72063V3.47432C81.5155 3.36669 81.4719 3.26348 81.3942 3.18738C81.3166 3.11128 81.2113 3.06853 81.1014 3.06853H67.023Z" fill="white"/>
<path d="M79.8592 6.72063C79.5298 6.72063 79.2138 6.59238 78.9808 6.36407C78.7479 6.13577 78.617 5.82613 78.617 5.50326V4.69169C78.617 4.36882 78.7479 4.05918 78.9808 3.83088C79.2138 3.60257 79.5298 3.47432 79.8592 3.47432C80.1887 3.47432 80.5046 3.60257 80.7376 3.83088C80.9706 4.05918 81.1014 4.36882 81.1014 4.69169V5.50326C81.1014 5.82613 80.9706 6.13577 80.7376 6.36407C80.5046 6.59238 80.1887 6.72063 79.8592 6.72063ZM79.8592 4.2859C79.7494 4.2859 79.6441 4.32865 79.5664 4.40475C79.4888 4.48085 79.4452 4.58406 79.4452 4.69169V5.50326C79.4452 5.61089 79.4888 5.7141 79.5664 5.7902C79.6441 5.8663 79.7494 5.90905 79.8592 5.90905C79.969 5.90905 80.0744 5.8663 80.152 5.7902C80.2297 5.7141 80.2733 5.61089 80.2733 5.50326V4.69169C80.2733 4.58406 80.2297 4.48085 80.152 4.40475C80.0744 4.32865 79.969 4.2859 79.8592 4.2859Z" fill="white"/>
<path d="M7.54085 16.3671C7.86059 16.3671 8.11909 16.1185 8.11909 15.811C8.11909 15.5036 7.86059 15.255 7.54085 15.255H4.95576C5.25508 15.0261 5.56802 14.8298 5.90816 14.6597C6.89458 14.1103 8.1259 13.43 8.1259 11.9058C8.1259 10.6695 7.08506 9.67519 5.80612 9.67519C4.52718 9.67519 3.48634 10.676 3.48634 11.9058C3.48634 12.2133 3.74485 12.4618 4.06458 12.4618C4.38432 12.4618 4.64283 12.2133 4.64283 11.9058C4.64283 11.2909 5.15984 10.7872 5.80612 10.7872C6.45239 10.7872 6.96941 11.2844 6.96941 11.9058C6.96941 12.7235 6.35035 13.1225 5.32992 13.6916C4.46595 14.1691 3.48634 14.7121 3.48634 15.811C3.48634 16.1185 3.74485 16.3671 4.06458 16.3671H7.54085ZM18.5683 10.2247C18.5683 10.5321 18.8268 10.7807 19.1466 10.7807H21.1126L18.6295 15.5559C18.4867 15.8307 18.6023 16.1643 18.888 16.3082C19.1738 16.4455 19.5207 16.3343 19.6704 16.0596L22.5752 10.4798C22.7181 10.205 22.6024 9.87144 22.3167 9.73407C22.2351 9.69482 22.1466 9.67519 22.0582 9.67519H19.1534C18.8268 9.66865 18.5683 9.91722 18.5683 10.2247ZM12.1872 16.3671C12.5069 16.3671 12.7655 16.1185 12.7655 15.811V14.6925H13.3437C13.6634 14.6925 13.9219 14.4439 13.9219 14.1364C13.9219 13.829 13.6634 13.5804 13.3437 13.5804H12.7655V13.0244C12.7655 12.7169 12.5069 12.4684 12.1872 12.4684C11.8675 12.4684 11.609 12.7169 11.609 13.0244V13.5804H10.2892L12.1124 10.5125C12.2757 10.2508 12.1872 9.90414 11.9151 9.74715C11.643 9.59016 11.2824 9.67519 11.1192 9.93685C11.1124 9.94339 11.1124 9.94993 11.1056 9.96302L8.78578 13.8682C8.62931 14.1364 8.72455 14.4766 9.00347 14.627C9.09191 14.6728 9.18715 14.699 9.28919 14.699H11.609V15.8176C11.6022 16.1185 11.8607 16.3671 12.1872 16.3671ZM16.2621 9.53128L14.5206 16.2297C14.4458 16.5306 14.6294 16.8315 14.9424 16.9034C14.99 16.9165 15.0376 16.9231 15.0852 16.9231C15.3506 16.9231 15.5819 16.7465 15.6499 16.4979L17.3914 9.79948C17.473 9.50512 17.2962 9.19767 16.9832 9.11263C16.6771 9.03414 16.3574 9.20421 16.2689 9.50512C16.2689 9.5182 16.2689 9.52474 16.2621 9.53128Z" fill="white"/>
<path d="M22.7997 6.35216C22.5276 6.51569 22.446 6.86239 22.616 7.12405C26.0107 12.3506 24.3576 19.2322 18.9221 22.4963C14.8335 24.9494 9.58852 24.7204 5.75169 21.9142L6.98301 21.8422C7.30275 21.8226 7.54765 21.5544 7.52724 21.2469C7.50684 20.9395 7.22792 20.704 6.90818 20.7236L4.24146 20.8806C3.92172 20.9002 3.67682 21.1684 3.69723 21.4759L3.86049 24.0401C3.8809 24.3345 4.13261 24.5634 4.43874 24.5634H4.48636C4.80609 24.5438 5.051 24.2822 5.03059 23.9747L4.94895 22.7253C10.5205 26.8791 18.5343 25.9044 22.8541 20.5536C26.1331 16.4848 26.4324 10.8854 23.6024 6.52878C23.4324 6.26712 23.0718 6.18862 22.7997 6.35216ZM1.15295 13.0179C1.15295 6.85585 6.34354 1.85821 12.7519 1.85167C15.2893 1.85167 17.7588 2.64972 19.7792 4.12808L18.5479 4.20004C18.2282 4.20658 17.9765 4.46823 17.9833 4.77568C17.9901 5.08313 18.2622 5.32516 18.5819 5.31862H18.6159L21.2827 5.16162C21.6024 5.142 21.8473 4.8738 21.8269 4.56636L21.6636 2.00212C21.65 1.70122 21.3779 1.46573 21.065 1.47881C21.0582 1.47881 21.0514 1.47881 21.0446 1.47881C20.7248 1.49844 20.4799 1.76009 20.5003 2.06754L20.582 3.31695C15.0104 -0.830305 6.99662 0.144364 2.67679 5.50178C-0.59539 9.56399 -0.894716 15.1504 1.92848 19.5135C2.03732 19.677 2.221 19.7751 2.41828 19.7751C2.52713 19.7751 2.63598 19.7424 2.72441 19.6901C2.99653 19.5266 3.07816 19.1799 2.90809 18.9182C1.75841 17.152 1.15295 15.1046 1.15295 13.0179Z" fill="white"/>
</svg>
