<svg width="35" height="42" viewBox="0 0 35 42" fill="none" xmlns="http://www.w3.org/2000/svg">
<path d="M29.4423 41.5562H5.66962C4.37201 41.5547 3.12796 41.0489 2.21041 40.1497C1.29285 39.2505 0.776718 38.0313 0.775238 36.7597V5.23985C0.776718 3.96819 1.29285 2.74902 2.21041 1.84982C3.12796 0.95062 4.37201 0.44481 5.66962 0.443359H29.4423C30.74 0.44481 31.984 0.95062 32.9016 1.84982C33.8191 2.74902 34.3353 3.96819 34.3367 5.23985V36.7597C34.3353 38.0313 33.8191 39.2505 32.9016 40.1497C31.984 41.0489 30.74 41.5547 29.4423 41.5562ZM5.66962 1.81379C4.74277 1.81487 3.8542 2.17618 3.19881 2.81846C2.54343 3.46074 2.17474 4.33154 2.17363 5.23985V36.7597C2.17474 37.668 2.54343 38.5388 3.19881 39.1811C3.8542 39.8233 4.74277 40.1846 5.66962 40.1857H29.4423C30.3692 40.1846 31.2578 39.8233 31.9132 39.1811C32.5685 38.5388 32.9372 37.668 32.9383 36.7597V5.23985C32.9372 4.33154 32.5685 3.46074 31.9132 2.81846C31.2578 2.17618 30.3692 1.81487 29.4423 1.81379H5.66962Z" fill="url(#paint0_linear_2010_46)"/>
<path d="M29.4423 41.5562H5.66962C4.37201 41.5547 3.12796 41.0489 2.21041 40.1497C1.29285 39.2505 0.776718 38.0313 0.775238 36.7597V5.23985C0.776718 3.96819 1.29285 2.74902 2.21041 1.84982C3.12796 0.95062 4.37201 0.44481 5.66962 0.443359H29.4423C30.74 0.44481 31.984 0.95062 32.9016 1.84982C33.8191 2.74902 34.3353 3.96819 34.3367 5.23985V36.7597C34.3353 38.0313 33.8191 39.2505 32.9016 40.1497C31.984 41.0489 30.74 41.5547 29.4423 41.5562ZM5.66962 1.81379C4.74277 1.81487 3.8542 2.17618 3.19881 2.81846C2.54343 3.46074 2.17474 4.33154 2.17363 5.23985V36.7597C2.17474 37.668 2.54343 38.5388 3.19881 39.1811C3.8542 39.8233 4.74277 40.1846 5.66962 40.1857H29.4423C30.3692 40.1846 31.2578 39.8233 31.9132 39.1811C32.5685 38.5388 32.9372 37.668 32.9383 36.7597V5.23985C32.9372 4.33154 32.5685 3.46074 31.9132 2.81846C31.2578 2.17618 30.3692 1.81487 29.4423 1.81379H5.66962Z" fill="#FF9549"/>
<path d="M19.6536 38.8153H15.4584C14.9021 38.8153 14.3685 38.5987 13.9752 38.2132C13.5818 37.8277 13.3608 37.3049 13.3608 36.7597V34.0188C13.3608 33.4736 13.5818 32.9508 13.9752 32.5653C14.3685 32.1797 14.9021 31.9632 15.4584 31.9632H19.6536C20.2099 31.9632 20.7434 32.1797 21.1368 32.5653C21.5302 32.9508 21.7512 33.4736 21.7512 34.0188V36.7597C21.7512 37.3049 21.5302 37.8277 21.1368 38.2132C20.7434 38.5987 20.2099 38.8153 19.6536 38.8153ZM15.4584 33.3336C15.273 33.3336 15.0951 33.4058 14.964 33.5343C14.8329 33.6628 14.7592 33.8371 14.7592 34.0188V36.7597C14.7592 36.9414 14.8329 37.1157 14.964 37.2442C15.0951 37.3727 15.273 37.4449 15.4584 37.4449H19.6536C19.839 37.4449 20.0169 37.3727 20.148 37.2442C20.2791 37.1157 20.3528 36.9414 20.3528 36.7597V34.0188C20.3528 33.8371 20.2791 33.6628 20.148 33.5343C20.0169 33.4058 19.839 33.3336 19.6536 33.3336H15.4584ZM9.86481 38.8153H5.66962C5.11331 38.8153 4.57977 38.5987 4.1864 38.2132C3.79302 37.8277 3.57203 37.3049 3.57203 36.7597V34.0188C3.57203 33.4736 3.79302 32.9508 4.1864 32.5653C4.57977 32.1797 5.11331 31.9632 5.66962 31.9632H9.86481C10.4211 31.9632 10.9547 32.1797 11.348 32.5653C11.7414 32.9508 11.9624 33.4736 11.9624 34.0188V36.7597C11.9624 37.3049 11.7414 37.8277 11.348 38.2132C10.9547 38.5987 10.4211 38.8153 9.86481 38.8153ZM5.66962 33.3336C5.48418 33.3336 5.30634 33.4058 5.17522 33.5343C5.04409 33.6628 4.97042 33.8371 4.97042 34.0188V36.7597C4.97042 36.9414 5.04409 37.1157 5.17522 37.2442C5.30634 37.3727 5.48418 37.4449 5.66962 37.4449H9.86481C10.0502 37.4449 10.2281 37.3727 10.3592 37.2442C10.4903 37.1157 10.564 36.9414 10.564 36.7597V34.0188C10.564 33.8371 10.4903 33.6628 10.3592 33.5343C10.2281 33.4058 10.0502 33.3336 9.86481 33.3336H5.66962ZM29.4423 38.8153H25.2472C24.6908 38.8153 24.1573 38.5987 23.7639 38.2132C23.3706 37.8277 23.1496 37.3049 23.1496 36.7597V25.7962C23.1496 25.2511 23.3706 24.7282 23.7639 24.3427C24.1573 23.9572 24.6908 23.7406 25.2472 23.7406H29.4423C29.9987 23.7406 30.5322 23.9572 30.9256 24.3427C31.3189 24.7282 31.5399 25.2511 31.5399 25.7962V36.7597C31.5399 37.3049 31.3189 37.8277 30.9256 38.2132C30.5322 38.5987 29.9987 38.8153 29.4423 38.8153ZM25.2472 25.111C25.0617 25.111 24.8839 25.1832 24.7528 25.3117C24.6216 25.4402 24.548 25.6145 24.548 25.7962V36.7597C24.548 36.9414 24.6216 37.1157 24.7528 37.2442C24.8839 37.3727 25.0617 37.4449 25.2472 37.4449H29.4423C29.6278 37.4449 29.8056 37.3727 29.9368 37.2442C30.0679 37.1157 30.1415 36.9414 30.1415 36.7597V25.7962C30.1415 25.6145 30.0679 25.4402 29.9368 25.3117C29.8056 25.1832 29.6278 25.111 29.4423 25.111H25.2472ZM19.6536 30.5927H15.4584C14.9021 30.5927 14.3685 30.3762 13.9752 29.9907C13.5818 29.6052 13.3608 29.0823 13.3608 28.5371V25.7962C13.3608 25.2511 13.5818 24.7282 13.9752 24.3427C14.3685 23.9572 14.9021 23.7406 15.4584 23.7406H19.6536C20.2099 23.7406 20.7434 23.9572 21.1368 24.3427C21.5302 24.7282 21.7512 25.2511 21.7512 25.7962V28.5371C21.7512 29.0823 21.5302 29.6052 21.1368 29.9907C20.7434 30.3762 20.2099 30.5927 19.6536 30.5927ZM15.4584 25.111C15.273 25.111 15.0951 25.1832 14.964 25.3117C14.8329 25.4402 14.7592 25.6145 14.7592 25.7962V28.5371C14.7592 28.7188 14.8329 28.8931 14.964 29.0216C15.0951 29.1501 15.273 29.2223 15.4584 29.2223H19.6536C19.839 29.2223 20.0169 29.1501 20.148 29.0216C20.2791 28.8931 20.3528 28.7188 20.3528 28.5371V25.7962C20.3528 25.6145 20.2791 25.4402 20.148 25.3117C20.0169 25.1832 19.839 25.111 19.6536 25.111H15.4584ZM9.86481 30.5927H5.66962C5.11331 30.5927 4.57977 30.3762 4.1864 29.9907C3.79302 29.6052 3.57203 29.0823 3.57203 28.5371V25.7962C3.57203 25.2511 3.79302 24.7282 4.1864 24.3427C4.57977 23.9572 5.11331 23.7406 5.66962 23.7406H9.86481C10.4211 23.7406 10.9547 23.9572 11.348 24.3427C11.7414 24.7282 11.9624 25.2511 11.9624 25.7962V28.5371C11.9624 29.0823 11.7414 29.6052 11.348 29.9907C10.9547 30.3762 10.4211 30.5927 9.86481 30.5927ZM5.66962 25.111C5.48418 25.111 5.30634 25.1832 5.17522 25.3117C5.04409 25.4402 4.97042 25.6145 4.97042 25.7962V28.5371C4.97042 28.7188 5.04409 28.8931 5.17522 29.0216C5.30634 29.1501 5.48418 29.2223 5.66962 29.2223H9.86481C10.0502 29.2223 10.2281 29.1501 10.3592 29.0216C10.4903 28.8931 10.564 28.7188 10.564 28.5371V25.7962C10.564 25.6145 10.4903 25.4402 10.3592 25.3117C10.2281 25.1832 10.0502 25.111 9.86481 25.111H5.66962ZM19.6536 22.3702H15.4584C14.9021 22.3702 14.3685 22.1536 13.9752 21.7681C13.5818 21.3826 13.3608 20.8597 13.3608 20.3145V17.5737C13.3608 17.0285 13.5818 16.5056 13.9752 16.1201C14.3685 15.7346 14.9021 15.5181 15.4584 15.5181H19.6536C20.2099 15.5181 20.7434 15.7346 21.1368 16.1201C21.5302 16.5056 21.7512 17.0285 21.7512 17.5737V20.3145C21.7512 20.8597 21.5302 21.3826 21.1368 21.7681C20.7434 22.1536 20.2099 22.3702 19.6536 22.3702ZM15.4584 16.8885C15.273 16.8885 15.0951 16.9607 14.964 17.0892C14.8329 17.2177 14.7592 17.392 14.7592 17.5737V20.3145C14.7592 20.4963 14.8329 20.6706 14.964 20.7991C15.0951 20.9276 15.273 20.9998 15.4584 20.9998H19.6536C19.839 20.9998 20.0169 20.9276 20.148 20.7991C20.2791 20.6706 20.3528 20.4963 20.3528 20.3145V17.5737C20.3528 17.392 20.2791 17.2177 20.148 17.0892C20.0169 16.9607 19.839 16.8885 19.6536 16.8885H15.4584ZM9.86481 22.3702H5.66962C5.11331 22.3702 4.57977 22.1536 4.1864 21.7681C3.79302 21.3826 3.57203 20.8597 3.57203 20.3145V17.5737C3.57203 17.0285 3.79302 16.5056 4.1864 16.1201C4.57977 15.7346 5.11331 15.5181 5.66962 15.5181H9.86481C10.4211 15.5181 10.9547 15.7346 11.348 16.1201C11.7414 16.5056 11.9624 17.0285 11.9624 17.5737V20.3145C11.9624 20.8597 11.7414 21.3826 11.348 21.7681C10.9547 22.1536 10.4211 22.3702 9.86481 22.3702ZM5.66962 16.8885C5.48418 16.8885 5.30634 16.9607 5.17522 17.0892C5.04409 17.2177 4.97042 17.392 4.97042 17.5737V20.3145C4.97042 20.4963 5.04409 20.6706 5.17522 20.7991C5.30634 20.9276 5.48418 20.9998 5.66962 20.9998H9.86481C10.0502 20.9998 10.2281 20.9276 10.3592 20.7991C10.4903 20.6706 10.564 20.4963 10.564 20.3145V17.5737C10.564 17.392 10.4903 17.2177 10.3592 17.0892C10.2281 16.9607 10.0502 16.8885 9.86481 16.8885H5.66962ZM29.4423 22.3702H25.2472C24.6908 22.3702 24.1573 22.1536 23.7639 21.7681C23.3706 21.3826 23.1496 20.8597 23.1496 20.3145V17.5737C23.1496 17.0285 23.3706 16.5056 23.7639 16.1201C24.1573 15.7346 24.6908 15.5181 25.2472 15.5181H29.4423C29.9987 15.5181 30.5322 15.7346 30.9256 16.1201C31.3189 16.5056 31.5399 17.0285 31.5399 17.5737V20.3145C31.5399 20.8597 31.3189 21.3826 30.9256 21.7681C30.5322 22.1536 29.9987 22.3702 29.4423 22.3702ZM25.2472 16.8885C25.0617 16.8885 24.8839 16.9607 24.7528 17.0892C24.6216 17.2177 24.548 17.392 24.548 17.5737V20.3145C24.548 20.4963 24.6216 20.6706 24.7528 20.7991C24.8839 20.9276 25.0617 20.9998 25.2472 20.9998H29.4423C29.6278 20.9998 29.8056 20.9276 29.9368 20.7991C30.0679 20.6706 30.1415 20.4963 30.1415 20.3145V17.5737C30.1415 17.392 30.0679 17.2177 29.9368 17.0892C29.8056 16.9607 29.6278 16.8885 29.4423 16.8885H25.2472ZM29.4423 12.7772H5.66962C5.11331 12.7772 4.57977 12.5606 4.1864 12.1751C3.79302 11.7896 3.57203 11.2667 3.57203 10.7216V5.23985C3.57203 4.69466 3.79302 4.1718 4.1864 3.7863C4.57977 3.40079 5.11331 3.18421 5.66962 3.18421H29.4423C29.9987 3.18421 30.5322 3.40079 30.9256 3.7863C31.3189 4.1718 31.5399 4.69466 31.5399 5.23985V10.7216C31.5399 11.2667 31.3189 11.7896 30.9256 12.1751C30.5322 12.5606 29.9987 12.7772 29.4423 12.7772ZM5.66962 4.55464C5.48418 4.55464 5.30634 4.62683 5.17522 4.75533C5.04409 4.88384 4.97042 5.05812 4.97042 5.23985V10.7216C4.97042 10.9033 5.04409 11.0776 5.17522 11.2061C5.30634 11.3346 5.48418 11.4068 5.66962 11.4068H29.4423C29.6278 11.4068 29.8056 11.3346 29.9368 11.2061C30.0679 11.0776 30.1415 10.9033 30.1415 10.7216V5.23985C30.1415 5.05812 30.0679 4.88384 29.9368 4.75533C29.8056 4.62683 29.6278 4.55464 29.4423 4.55464H5.66962Z" fill="url(#paint1_linear_2010_46)"/>
<path d="M19.6536 38.8153H15.4584C14.9021 38.8153 14.3685 38.5987 13.9752 38.2132C13.5818 37.8277 13.3608 37.3049 13.3608 36.7597V34.0188C13.3608 33.4736 13.5818 32.9508 13.9752 32.5653C14.3685 32.1797 14.9021 31.9632 15.4584 31.9632H19.6536C20.2099 31.9632 20.7434 32.1797 21.1368 32.5653C21.5302 32.9508 21.7512 33.4736 21.7512 34.0188V36.7597C21.7512 37.3049 21.5302 37.8277 21.1368 38.2132C20.7434 38.5987 20.2099 38.8153 19.6536 38.8153ZM15.4584 33.3336C15.273 33.3336 15.0951 33.4058 14.964 33.5343C14.8329 33.6628 14.7592 33.8371 14.7592 34.0188V36.7597C14.7592 36.9414 14.8329 37.1157 14.964 37.2442C15.0951 37.3727 15.273 37.4449 15.4584 37.4449H19.6536C19.839 37.4449 20.0169 37.3727 20.148 37.2442C20.2791 37.1157 20.3528 36.9414 20.3528 36.7597V34.0188C20.3528 33.8371 20.2791 33.6628 20.148 33.5343C20.0169 33.4058 19.839 33.3336 19.6536 33.3336H15.4584ZM9.86481 38.8153H5.66962C5.11331 38.8153 4.57977 38.5987 4.1864 38.2132C3.79302 37.8277 3.57203 37.3049 3.57203 36.7597V34.0188C3.57203 33.4736 3.79302 32.9508 4.1864 32.5653C4.57977 32.1797 5.11331 31.9632 5.66962 31.9632H9.86481C10.4211 31.9632 10.9547 32.1797 11.348 32.5653C11.7414 32.9508 11.9624 33.4736 11.9624 34.0188V36.7597C11.9624 37.3049 11.7414 37.8277 11.348 38.2132C10.9547 38.5987 10.4211 38.8153 9.86481 38.8153ZM5.66962 33.3336C5.48418 33.3336 5.30634 33.4058 5.17522 33.5343C5.04409 33.6628 4.97042 33.8371 4.97042 34.0188V36.7597C4.97042 36.9414 5.04409 37.1157 5.17522 37.2442C5.30634 37.3727 5.48418 37.4449 5.66962 37.4449H9.86481C10.0502 37.4449 10.2281 37.3727 10.3592 37.2442C10.4903 37.1157 10.564 36.9414 10.564 36.7597V34.0188C10.564 33.8371 10.4903 33.6628 10.3592 33.5343C10.2281 33.4058 10.0502 33.3336 9.86481 33.3336H5.66962ZM29.4423 38.8153H25.2472C24.6908 38.8153 24.1573 38.5987 23.7639 38.2132C23.3706 37.8277 23.1496 37.3049 23.1496 36.7597V25.7962C23.1496 25.2511 23.3706 24.7282 23.7639 24.3427C24.1573 23.9572 24.6908 23.7406 25.2472 23.7406H29.4423C29.9987 23.7406 30.5322 23.9572 30.9256 24.3427C31.3189 24.7282 31.5399 25.2511 31.5399 25.7962V36.7597C31.5399 37.3049 31.3189 37.8277 30.9256 38.2132C30.5322 38.5987 29.9987 38.8153 29.4423 38.8153ZM25.2472 25.111C25.0617 25.111 24.8839 25.1832 24.7528 25.3117C24.6216 25.4402 24.548 25.6145 24.548 25.7962V36.7597C24.548 36.9414 24.6216 37.1157 24.7528 37.2442C24.8839 37.3727 25.0617 37.4449 25.2472 37.4449H29.4423C29.6278 37.4449 29.8056 37.3727 29.9368 37.2442C30.0679 37.1157 30.1415 36.9414 30.1415 36.7597V25.7962C30.1415 25.6145 30.0679 25.4402 29.9368 25.3117C29.8056 25.1832 29.6278 25.111 29.4423 25.111H25.2472ZM19.6536 30.5927H15.4584C14.9021 30.5927 14.3685 30.3762 13.9752 29.9907C13.5818 29.6052 13.3608 29.0823 13.3608 28.5371V25.7962C13.3608 25.2511 13.5818 24.7282 13.9752 24.3427C14.3685 23.9572 14.9021 23.7406 15.4584 23.7406H19.6536C20.2099 23.7406 20.7434 23.9572 21.1368 24.3427C21.5302 24.7282 21.7512 25.2511 21.7512 25.7962V28.5371C21.7512 29.0823 21.5302 29.6052 21.1368 29.9907C20.7434 30.3762 20.2099 30.5927 19.6536 30.5927ZM15.4584 25.111C15.273 25.111 15.0951 25.1832 14.964 25.3117C14.8329 25.4402 14.7592 25.6145 14.7592 25.7962V28.5371C14.7592 28.7188 14.8329 28.8931 14.964 29.0216C15.0951 29.1501 15.273 29.2223 15.4584 29.2223H19.6536C19.839 29.2223 20.0169 29.1501 20.148 29.0216C20.2791 28.8931 20.3528 28.7188 20.3528 28.5371V25.7962C20.3528 25.6145 20.2791 25.4402 20.148 25.3117C20.0169 25.1832 19.839 25.111 19.6536 25.111H15.4584ZM9.86481 30.5927H5.66962C5.11331 30.5927 4.57977 30.3762 4.1864 29.9907C3.79302 29.6052 3.57203 29.0823 3.57203 28.5371V25.7962C3.57203 25.2511 3.79302 24.7282 4.1864 24.3427C4.57977 23.9572 5.11331 23.7406 5.66962 23.7406H9.86481C10.4211 23.7406 10.9547 23.9572 11.348 24.3427C11.7414 24.7282 11.9624 25.2511 11.9624 25.7962V28.5371C11.9624 29.0823 11.7414 29.6052 11.348 29.9907C10.9547 30.3762 10.4211 30.5927 9.86481 30.5927ZM5.66962 25.111C5.48418 25.111 5.30634 25.1832 5.17522 25.3117C5.04409 25.4402 4.97042 25.6145 4.97042 25.7962V28.5371C4.97042 28.7188 5.04409 28.8931 5.17522 29.0216C5.30634 29.1501 5.48418 29.2223 5.66962 29.2223H9.86481C10.0502 29.2223 10.2281 29.1501 10.3592 29.0216C10.4903 28.8931 10.564 28.7188 10.564 28.5371V25.7962C10.564 25.6145 10.4903 25.4402 10.3592 25.3117C10.2281 25.1832 10.0502 25.111 9.86481 25.111H5.66962ZM19.6536 22.3702H15.4584C14.9021 22.3702 14.3685 22.1536 13.9752 21.7681C13.5818 21.3826 13.3608 20.8597 13.3608 20.3145V17.5737C13.3608 17.0285 13.5818 16.5056 13.9752 16.1201C14.3685 15.7346 14.9021 15.5181 15.4584 15.5181H19.6536C20.2099 15.5181 20.7434 15.7346 21.1368 16.1201C21.5302 16.5056 21.7512 17.0285 21.7512 17.5737V20.3145C21.7512 20.8597 21.5302 21.3826 21.1368 21.7681C20.7434 22.1536 20.2099 22.3702 19.6536 22.3702ZM15.4584 16.8885C15.273 16.8885 15.0951 16.9607 14.964 17.0892C14.8329 17.2177 14.7592 17.392 14.7592 17.5737V20.3145C14.7592 20.4963 14.8329 20.6706 14.964 20.7991C15.0951 20.9276 15.273 20.9998 15.4584 20.9998H19.6536C19.839 20.9998 20.0169 20.9276 20.148 20.7991C20.2791 20.6706 20.3528 20.4963 20.3528 20.3145V17.5737C20.3528 17.392 20.2791 17.2177 20.148 17.0892C20.0169 16.9607 19.839 16.8885 19.6536 16.8885H15.4584ZM9.86481 22.3702H5.66962C5.11331 22.3702 4.57977 22.1536 4.1864 21.7681C3.79302 21.3826 3.57203 20.8597 3.57203 20.3145V17.5737C3.57203 17.0285 3.79302 16.5056 4.1864 16.1201C4.57977 15.7346 5.11331 15.5181 5.66962 15.5181H9.86481C10.4211 15.5181 10.9547 15.7346 11.348 16.1201C11.7414 16.5056 11.9624 17.0285 11.9624 17.5737V20.3145C11.9624 20.8597 11.7414 21.3826 11.348 21.7681C10.9547 22.1536 10.4211 22.3702 9.86481 22.3702ZM5.66962 16.8885C5.48418 16.8885 5.30634 16.9607 5.17522 17.0892C5.04409 17.2177 4.97042 17.392 4.97042 17.5737V20.3145C4.97042 20.4963 5.04409 20.6706 5.17522 20.7991C5.30634 20.9276 5.48418 20.9998 5.66962 20.9998H9.86481C10.0502 20.9998 10.2281 20.9276 10.3592 20.7991C10.4903 20.6706 10.564 20.4963 10.564 20.3145V17.5737C10.564 17.392 10.4903 17.2177 10.3592 17.0892C10.2281 16.9607 10.0502 16.8885 9.86481 16.8885H5.66962ZM29.4423 22.3702H25.2472C24.6908 22.3702 24.1573 22.1536 23.7639 21.7681C23.3706 21.3826 23.1496 20.8597 23.1496 20.3145V17.5737C23.1496 17.0285 23.3706 16.5056 23.7639 16.1201C24.1573 15.7346 24.6908 15.5181 25.2472 15.5181H29.4423C29.9987 15.5181 30.5322 15.7346 30.9256 16.1201C31.3189 16.5056 31.5399 17.0285 31.5399 17.5737V20.3145C31.5399 20.8597 31.3189 21.3826 30.9256 21.7681C30.5322 22.1536 29.9987 22.3702 29.4423 22.3702ZM25.2472 16.8885C25.0617 16.8885 24.8839 16.9607 24.7528 17.0892C24.6216 17.2177 24.548 17.392 24.548 17.5737V20.3145C24.548 20.4963 24.6216 20.6706 24.7528 20.7991C24.8839 20.9276 25.0617 20.9998 25.2472 20.9998H29.4423C29.6278 20.9998 29.8056 20.9276 29.9368 20.7991C30.0679 20.6706 30.1415 20.4963 30.1415 20.3145V17.5737C30.1415 17.392 30.0679 17.2177 29.9368 17.0892C29.8056 16.9607 29.6278 16.8885 29.4423 16.8885H25.2472ZM29.4423 12.7772H5.66962C5.11331 12.7772 4.57977 12.5606 4.1864 12.1751C3.79302 11.7896 3.57203 11.2667 3.57203 10.7216V5.23985C3.57203 4.69466 3.79302 4.1718 4.1864 3.7863C4.57977 3.40079 5.11331 3.18421 5.66962 3.18421H29.4423C29.9987 3.18421 30.5322 3.40079 30.9256 3.7863C31.3189 4.1718 31.5399 4.69466 31.5399 5.23985V10.7216C31.5399 11.2667 31.3189 11.7896 30.9256 12.1751C30.5322 12.5606 29.9987 12.7772 29.4423 12.7772ZM5.66962 4.55464C5.48418 4.55464 5.30634 4.62683 5.17522 4.75533C5.04409 4.88384 4.97042 5.05812 4.97042 5.23985V10.7216C4.97042 10.9033 5.04409 11.0776 5.17522 11.2061C5.30634 11.3346 5.48418 11.4068 5.66962 11.4068H29.4423C29.6278 11.4068 29.8056 11.3346 29.9368 11.2061C30.0679 11.0776 30.1415 10.9033 30.1415 10.7216V5.23985C30.1415 5.05812 30.0679 4.88384 29.9368 4.75533C29.8056 4.62683 29.6278 4.55464 29.4423 4.55464H5.66962Z" fill="#FF9549"/>
<path d="M27.3448 10.7216C26.7884 10.7216 26.2549 10.505 25.8615 10.1195C25.4682 9.73397 25.2472 9.21111 25.2472 8.66592V7.29549C25.2472 6.7503 25.4682 6.22744 25.8615 5.84194C26.2549 5.45643 26.7884 5.23985 27.3448 5.23985C27.9011 5.23985 28.4346 5.45643 28.828 5.84194C29.2213 6.22744 29.4423 6.7503 29.4423 7.29549V8.66592C29.4423 9.21111 29.2213 9.73397 28.828 10.1195C28.4346 10.505 27.9011 10.7216 27.3448 10.7216ZM27.3448 6.61028C27.1593 6.61028 26.9815 6.68247 26.8503 6.81097C26.7192 6.93948 26.6456 7.11376 26.6456 7.29549V8.66592C26.6456 8.84765 26.7192 9.02194 26.8503 9.15044C26.9815 9.27894 27.1593 9.35113 27.3448 9.35113C27.5302 9.35113 27.708 9.27894 27.8392 9.15044C27.9703 9.02194 28.044 8.84765 28.044 8.66592V7.29549C28.044 7.11376 27.9703 6.93948 27.8392 6.81097C27.708 6.68247 27.5302 6.61028 27.3448 6.61028Z" fill="url(#paint2_linear_2010_46)"/>
<path d="M27.3448 10.7216C26.7884 10.7216 26.2549 10.505 25.8615 10.1195C25.4682 9.73397 25.2472 9.21111 25.2472 8.66592V7.29549C25.2472 6.7503 25.4682 6.22744 25.8615 5.84194C26.2549 5.45643 26.7884 5.23985 27.3448 5.23985C27.9011 5.23985 28.4346 5.45643 28.828 5.84194C29.2213 6.22744 29.4423 6.7503 29.4423 7.29549V8.66592C29.4423 9.21111 29.2213 9.73397 28.828 10.1195C28.4346 10.505 27.9011 10.7216 27.3448 10.7216ZM27.3448 6.61028C27.1593 6.61028 26.9815 6.68247 26.8503 6.81097C26.7192 6.93948 26.6456 7.11376 26.6456 7.29549V8.66592C26.6456 8.84765 26.7192 9.02194 26.8503 9.15044C26.9815 9.27894 27.1593 9.35113 27.3448 9.35113C27.5302 9.35113 27.708 9.27894 27.8392 9.15044C27.9703 9.02194 28.044 8.84765 28.044 8.66592V7.29549C28.044 7.11376 27.9703 6.93948 27.8392 6.81097C27.708 6.68247 27.5302 6.61028 27.3448 6.61028Z" fill="#FF9549"/>
<defs>
<linearGradient id="paint0_linear_2010_46" x1="7.13794" y1="0.443359" x2="35.1287" y2="45.5986" gradientUnits="userSpaceOnUse">
<stop stop-color="#B1D0B5"/>
<stop offset="1" stop-color="#83A187"/>
</linearGradient>
<linearGradient id="paint1_linear_2010_46" x1="7.13794" y1="0.443359" x2="35.1287" y2="45.5986" gradientUnits="userSpaceOnUse">
<stop stop-color="#B1D0B5"/>
<stop offset="1" stop-color="#83A187"/>
</linearGradient>
<linearGradient id="paint2_linear_2010_46" x1="7.13794" y1="0.443359" x2="35.1287" y2="45.5986" gradientUnits="userSpaceOnUse">
<stop stop-color="#B1D0B5"/>
<stop offset="1" stop-color="#83A187"/>
</linearGradient>
</defs>
</svg>
