<svg width="33" height="40" viewBox="0 0 33 40" fill="none" xmlns="http://www.w3.org/2000/svg">
<path d="M27.8912 40H4.76191C3.49941 39.9986 2.28904 39.5065 1.39632 38.6316C0.503603 37.7567 0.00144038 36.5706 0 35.3333V4.66667C0.00144038 3.42942 0.503603 2.24326 1.39632 1.36839C2.28904 0.49353 3.49941 0.00141157 4.76191 0H27.8912C29.1537 0.00141157 30.364 0.49353 31.2568 1.36839C32.1495 2.24326 32.6516 3.42942 32.6531 4.66667V35.3333C32.6516 36.5706 32.1495 37.7567 31.2568 38.6316C30.364 39.5065 29.1537 39.9986 27.8912 40ZM4.76191 1.33333C3.86014 1.33439 2.99562 1.68592 2.35797 2.31081C1.72033 2.93571 1.36163 3.78294 1.36055 4.66667V35.3333C1.36163 36.2171 1.72033 37.0643 2.35797 37.6892C2.99562 38.3141 3.86014 38.6656 4.76191 38.6667H27.8912C28.7929 38.6656 29.6575 38.3141 30.2951 37.6892C30.9328 37.0643 31.2915 36.2171 31.2925 35.3333V4.66667C31.2915 3.78294 30.9328 2.93571 30.2951 2.31081C29.6575 1.68592 28.7929 1.33439 27.8912 1.33333H4.76191Z" fill="#222222"/>
<path d="M18.3674 37.3333H14.2857C13.7445 37.3333 13.2254 37.1226 12.8426 36.7475C12.4599 36.3725 12.2449 35.8638 12.2449 35.3333V32.6667C12.2449 32.1362 12.4599 31.6275 12.8426 31.2525C13.2254 30.8774 13.7445 30.6667 14.2857 30.6667H18.3674C18.9086 30.6667 19.4277 30.8774 19.8104 31.2525C20.1932 31.6275 20.4082 32.1362 20.4082 32.6667V35.3333C20.4082 35.8638 20.1932 36.3725 19.8104 36.7475C19.4277 37.1226 18.9086 37.3333 18.3674 37.3333ZM14.2857 32C14.1053 32 13.9323 32.0702 13.8047 32.1953C13.6771 32.3203 13.6055 32.4899 13.6055 32.6667V35.3333C13.6055 35.5101 13.6771 35.6797 13.8047 35.8047C13.9323 35.9298 14.1053 36 14.2857 36H18.3674C18.5478 36 18.7208 35.9298 18.8484 35.8047C18.976 35.6797 19.0476 35.5101 19.0476 35.3333V32.6667C19.0476 32.4899 18.976 32.3203 18.8484 32.1953C18.7208 32.0702 18.5478 32 18.3674 32H14.2857ZM8.84354 37.3333H4.76191C4.22065 37.3333 3.70156 37.1226 3.31883 36.7475C2.9361 36.3725 2.72109 35.8638 2.72109 35.3333V32.6667C2.72109 32.1362 2.9361 31.6275 3.31883 31.2525C3.70156 30.8774 4.22065 30.6667 4.76191 30.6667H8.84354C9.3848 30.6667 9.90389 30.8774 10.2866 31.2525C10.6693 31.6275 10.8844 32.1362 10.8844 32.6667V35.3333C10.8844 35.8638 10.6693 36.3725 10.2866 36.7475C9.90389 37.1226 9.3848 37.3333 8.84354 37.3333ZM4.76191 32C4.58149 32 4.40846 32.0702 4.28088 32.1953C4.15331 32.3203 4.08164 32.4899 4.08164 32.6667V35.3333C4.08164 35.5101 4.15331 35.6797 4.28088 35.8047C4.40846 35.9298 4.58149 36 4.76191 36H8.84354C9.02396 36 9.19699 35.9298 9.32457 35.8047C9.45215 35.6797 9.52382 35.5101 9.52382 35.3333V32.6667C9.52382 32.4899 9.45215 32.3203 9.32457 32.1953C9.19699 32.0702 9.02396 32 8.84354 32H4.76191ZM27.8912 37.3333H23.8095C23.2683 37.3333 22.7492 37.1226 22.3665 36.7475C21.9837 36.3725 21.7687 35.8638 21.7687 35.3333V24.6667C21.7687 24.1362 21.9837 23.6275 22.3665 23.2525C22.7492 22.8774 23.2683 22.6667 23.8095 22.6667H27.8912C28.4324 22.6667 28.9515 22.8774 29.3343 23.2525C29.717 23.6275 29.932 24.1362 29.932 24.6667V35.3333C29.932 35.8638 29.717 36.3725 29.3343 36.7475C28.9515 37.1226 28.4324 37.3333 27.8912 37.3333ZM23.8095 24C23.6291 24 23.4561 24.0702 23.3285 24.1953C23.2009 24.3203 23.1293 24.4899 23.1293 24.6667V35.3333C23.1293 35.5101 23.2009 35.6797 23.3285 35.8047C23.4561 35.9298 23.6291 36 23.8095 36H27.8912C28.0716 36 28.2446 35.9298 28.3722 35.8047C28.4998 35.6797 28.5715 35.5101 28.5715 35.3333V24.6667C28.5715 24.4899 28.4998 24.3203 28.3722 24.1953C28.2446 24.0702 28.0716 24 27.8912 24H23.8095ZM18.3674 29.3333H14.2857C13.7445 29.3333 13.2254 29.1226 12.8426 28.7475C12.4599 28.3725 12.2449 27.8638 12.2449 27.3333V24.6667C12.2449 24.1362 12.4599 23.6275 12.8426 23.2525C13.2254 22.8774 13.7445 22.6667 14.2857 22.6667H18.3674C18.9086 22.6667 19.4277 22.8774 19.8104 23.2525C20.1932 23.6275 20.4082 24.1362 20.4082 24.6667V27.3333C20.4082 27.8638 20.1932 28.3725 19.8104 28.7475C19.4277 29.1226 18.9086 29.3333 18.3674 29.3333ZM14.2857 24C14.1053 24 13.9323 24.0702 13.8047 24.1953C13.6771 24.3203 13.6055 24.4899 13.6055 24.6667V27.3333C13.6055 27.5101 13.6771 27.6797 13.8047 27.8047C13.9323 27.9298 14.1053 28 14.2857 28H18.3674C18.5478 28 18.7208 27.9298 18.8484 27.8047C18.976 27.6797 19.0476 27.5101 19.0476 27.3333V24.6667C19.0476 24.4899 18.976 24.3203 18.8484 24.1953C18.7208 24.0702 18.5478 24 18.3674 24H14.2857ZM8.84354 29.3333H4.76191C4.22065 29.3333 3.70156 29.1226 3.31883 28.7475C2.9361 28.3725 2.72109 27.8638 2.72109 27.3333V24.6667C2.72109 24.1362 2.9361 23.6275 3.31883 23.2525C3.70156 22.8774 4.22065 22.6667 4.76191 22.6667H8.84354C9.3848 22.6667 9.90389 22.8774 10.2866 23.2525C10.6693 23.6275 10.8844 24.1362 10.8844 24.6667V27.3333C10.8844 27.8638 10.6693 28.3725 10.2866 28.7475C9.90389 29.1226 9.3848 29.3333 8.84354 29.3333ZM4.76191 24C4.58149 24 4.40846 24.0702 4.28088 24.1953C4.15331 24.3203 4.08164 24.4899 4.08164 24.6667V27.3333C4.08164 27.5101 4.15331 27.6797 4.28088 27.8047C4.40846 27.9298 4.58149 28 4.76191 28H8.84354C9.02396 28 9.19699 27.9298 9.32457 27.8047C9.45215 27.6797 9.52382 27.5101 9.52382 27.3333V24.6667C9.52382 24.4899 9.45215 24.3203 9.32457 24.1953C9.19699 24.0702 9.02396 24 8.84354 24H4.76191ZM18.3674 21.3333H14.2857C13.7445 21.3333 13.2254 21.1226 12.8426 20.7475C12.4599 20.3725 12.2449 19.8638 12.2449 19.3333V16.6667C12.2449 16.1362 12.4599 15.6275 12.8426 15.2525C13.2254 14.8774 13.7445 14.6667 14.2857 14.6667H18.3674C18.9086 14.6667 19.4277 14.8774 19.8104 15.2525C20.1932 15.6275 20.4082 16.1362 20.4082 16.6667V19.3333C20.4082 19.8638 20.1932 20.3725 19.8104 20.7475C19.4277 21.1226 18.9086 21.3333 18.3674 21.3333ZM14.2857 16C14.1053 16 13.9323 16.0702 13.8047 16.1953C13.6771 16.3203 13.6055 16.4899 13.6055 16.6667V19.3333C13.6055 19.5101 13.6771 19.6797 13.8047 19.8047C13.9323 19.9298 14.1053 20 14.2857 20H18.3674C18.5478 20 18.7208 19.9298 18.8484 19.8047C18.976 19.6797 19.0476 19.5101 19.0476 19.3333V16.6667C19.0476 16.4899 18.976 16.3203 18.8484 16.1953C18.7208 16.0702 18.5478 16 18.3674 16H14.2857ZM8.84354 21.3333H4.76191C4.22065 21.3333 3.70156 21.1226 3.31883 20.7475C2.9361 20.3725 2.72109 19.8638 2.72109 19.3333V16.6667C2.72109 16.1362 2.9361 15.6275 3.31883 15.2525C3.70156 14.8774 4.22065 14.6667 4.76191 14.6667H8.84354C9.3848 14.6667 9.90389 14.8774 10.2866 15.2525C10.6693 15.6275 10.8844 16.1362 10.8844 16.6667V19.3333C10.8844 19.8638 10.6693 20.3725 10.2866 20.7475C9.90389 21.1226 9.3848 21.3333 8.84354 21.3333ZM4.76191 16C4.58149 16 4.40846 16.0702 4.28088 16.1953C4.15331 16.3203 4.08164 16.4899 4.08164 16.6667V19.3333C4.08164 19.5101 4.15331 19.6797 4.28088 19.8047C4.40846 19.9298 4.58149 20 4.76191 20H8.84354C9.02396 20 9.19699 19.9298 9.32457 19.8047C9.45215 19.6797 9.52382 19.5101 9.52382 19.3333V16.6667C9.52382 16.4899 9.45215 16.3203 9.32457 16.1953C9.19699 16.0702 9.02396 16 8.84354 16H4.76191ZM27.8912 21.3333H23.8095C23.2683 21.3333 22.7492 21.1226 22.3665 20.7475C21.9837 20.3725 21.7687 19.8638 21.7687 19.3333V16.6667C21.7687 16.1362 21.9837 15.6275 22.3665 15.2525C22.7492 14.8774 23.2683 14.6667 23.8095 14.6667H27.8912C28.4324 14.6667 28.9515 14.8774 29.3343 15.2525C29.717 15.6275 29.932 16.1362 29.932 16.6667V19.3333C29.932 19.8638 29.717 20.3725 29.3343 20.7475C28.9515 21.1226 28.4324 21.3333 27.8912 21.3333ZM23.8095 16C23.6291 16 23.4561 16.0702 23.3285 16.1953C23.2009 16.3203 23.1293 16.4899 23.1293 16.6667V19.3333C23.1293 19.5101 23.2009 19.6797 23.3285 19.8047C23.4561 19.9298 23.6291 20 23.8095 20H27.8912C28.0716 20 28.2446 19.9298 28.3722 19.8047C28.4998 19.6797 28.5715 19.5101 28.5715 19.3333V16.6667C28.5715 16.4899 28.4998 16.3203 28.3722 16.1953C28.2446 16.0702 28.0716 16 27.8912 16H23.8095ZM27.8912 12H4.76191C4.22065 12 3.70156 11.7893 3.31883 11.4142C2.9361 11.0391 2.72109 10.5304 2.72109 10V4.66667C2.72109 4.13623 2.9361 3.62753 3.31883 3.25245C3.70156 2.87738 4.22065 2.66667 4.76191 2.66667H27.8912C28.4324 2.66667 28.9515 2.87738 29.3343 3.25245C29.717 3.62753 29.932 4.13623 29.932 4.66667V10C29.932 10.5304 29.717 11.0391 29.3343 11.4142C28.9515 11.7893 28.4324 12 27.8912 12ZM4.76191 4C4.58149 4 4.40846 4.07024 4.28088 4.19526C4.15331 4.32029 4.08164 4.48986 4.08164 4.66667V10C4.08164 10.1768 4.15331 10.3464 4.28088 10.4714C4.40846 10.5964 4.58149 10.6667 4.76191 10.6667H27.8912C28.0716 10.6667 28.2446 10.5964 28.3722 10.4714C28.4998 10.3464 28.5715 10.1768 28.5715 10V4.66667C28.5715 4.48986 28.4998 4.32029 28.3722 4.19526C28.2446 4.07024 28.0716 4 27.8912 4H4.76191Z" fill="#222222"/>
<path d="M25.8504 10C25.3091 10 24.79 9.78929 24.4073 9.41421C24.0246 9.03914 23.8095 8.53043 23.8095 8V6.66667C23.8095 6.13623 24.0246 5.62753 24.4073 5.25245C24.79 4.87738 25.3091 4.66667 25.8504 4.66667C26.3916 4.66667 26.9107 4.87738 27.2934 5.25245C27.6762 5.62753 27.8912 6.13623 27.8912 6.66667V8C27.8912 8.53043 27.6762 9.03914 27.2934 9.41421C26.9107 9.78929 26.3916 10 25.8504 10ZM25.8504 6C25.6699 6 25.4969 6.07024 25.3693 6.19526C25.2418 6.32029 25.1701 6.48986 25.1701 6.66667V8C25.1701 8.17681 25.2418 8.34638 25.3693 8.47141C25.4969 8.59643 25.6699 8.66667 25.8504 8.66667C26.0308 8.66667 26.2038 8.59643 26.3314 8.47141C26.459 8.34638 26.5306 8.17681 26.5306 8V6.66667C26.5306 6.48986 26.459 6.32029 26.3314 6.19526C26.2038 6.07024 26.0308 6 25.8504 6Z" fill="#222222"/>
</svg>
