<svg width="230" height="223" viewBox="0 0 230 223" fill="none" xmlns="http://www.w3.org/2000/svg">
<path d="M177.793 155.332H172.418C171.25 154.381 170.031 153.422 168.755 152.519C168.33 152.217 167.816 152.042 167.295 152.083C166.667 152.02 165.639 151.843 164.039 151.884V147.18C173.178 141.271 179.702 131.65 181.181 120.33L181.605 117.088C185.925 116.14 189.164 112.336 189.164 107.801C189.164 104.455 187.392 101.52 184.733 99.8229C185.204 98.9789 185.496 98.0248 185.496 96.9955V82.9483C185.695 71.8052 180.229 61.4083 170.841 55.1128C161.95 49.3734 154.767 49.4207 145.767 50.9455C145.889 50.124 146.062 48.9492 146.3 47.2612C146.639 45.1016 145.791 43.0191 144.032 41.6894C143.182 41.0435 142.17 40.635 141.103 40.5069C140.037 40.3788 138.955 40.5357 137.972 40.9613C137.24 41.2656 133.501 43.8967 130.762 47.0227C130.806 44.9495 130.617 42.5444 129.021 40.8909C127.681 39.5033 125.664 39.0353 123.823 39.2963C110.264 41.4877 100.423 52.9011 100.424 66.4307V97.0017C100.424 98.0337 100.718 98.99 101.191 99.8358C98.5458 101.536 96.7867 104.464 96.7867 107.8C96.7867 112.335 100.026 116.139 104.346 117.088L104.77 120.332C106.249 131.669 112.792 141.302 121.954 147.208V151.919C120.245 151.83 120.102 151.975 118.365 152.089C117.944 152.125 117.541 152.274 117.198 152.518C116.033 153.342 114.823 154.272 113.521 155.331H108.152C79.3651 155.331 55.9456 178.382 55.9456 206.716V220.677C55.9455 220.982 56.0064 221.284 56.1249 221.566C56.2435 221.848 56.4172 222.104 56.6364 222.32C56.8555 222.536 57.1156 222.707 57.4019 222.823C57.6882 222.94 57.995 223 58.3049 223H227.641C227.951 223 228.257 222.94 228.544 222.823C228.83 222.707 229.09 222.536 229.309 222.32C229.528 222.104 229.702 221.848 229.821 221.566C229.939 221.284 230 220.982 230 220.677V206.716C230 178.382 206.58 155.332 177.793 155.332ZM169.191 158.721C169.516 158.984 169.835 159.246 170.148 159.506C162.831 169.713 180.759 144.751 158.299 175.941L146.945 170.216C162.23 155.166 157.412 159.892 158.392 158.944C161.311 156.124 166.03 156.166 169.191 158.721ZM147.811 175.871C147.6 177.779 146.857 179.578 145.593 181.07H140.377C139.143 179.612 138.398 177.842 138.154 175.874L142.986 173.437L147.811 175.871ZM130.991 155.731C129.739 154.496 128.258 153.561 126.671 152.909V149.818C131.649 152.122 137.176 153.426 142.974 153.426C148.789 153.426 154.332 152.116 159.321 149.799V152.873C157.887 153.457 156.407 154.329 154.983 155.731L142.986 167.543L130.991 155.731ZM105.142 66.4307C105.141 55.1876 113.32 45.7028 124.702 43.8768C124.962 43.8768 125.423 43.9064 125.601 44.0922C126.162 44.673 126.06 46.8303 125.997 48.1189C125.9 50.1674 125.807 52.1 127.27 53.2664C129.52 55.0659 131.443 53.6292 133.089 51.563C134.308 50.0364 136.139 47.7402 140.018 45.1587C140.565 44.9955 140.992 45.2472 141.157 45.3741C141.378 45.5422 141.735 45.9186 141.632 46.5857C141.314 48.8271 141.116 50.1497 140.997 50.9481C140.292 55.6715 142.818 56.1908 147.571 55.349C151.978 54.5709 159.359 53.2576 168.218 58.974C176.253 64.364 180.949 73.2954 180.777 82.9076V96.9955C180.777 97.6966 180.197 98.2681 179.485 98.2681C178.772 98.2681 178.191 97.6966 178.191 96.9955L178.189 93.3315C177.988 86.637 174.1 80.5844 168.145 77.5875C167.153 77.0278 166.02 76.7578 164.877 76.8092C163.735 76.8606 162.632 77.2312 161.696 77.8777C152.549 84.1776 143.497 82.7267 142.763 82.8028C136.189 83.3314 129.598 81.5912 124.192 77.8689C122.274 76.5555 119.787 76.5374 117.183 77.826C112.755 80.0218 107.937 86.204 107.729 93.4063V97.0021C107.729 97.7054 107.148 98.2769 106.435 98.2769C105.722 98.2769 105.141 97.7054 105.141 97.0021V66.4307H105.142ZM109.448 119.738L108.789 114.695C108.716 114.135 108.438 113.62 108.008 113.247C107.577 112.874 107.023 112.669 106.45 112.669C103.723 112.669 101.505 110.484 101.505 107.8C101.505 105.069 103.677 102.93 106.45 102.93C109.641 102.93 112.448 100.345 112.448 97.0017L112.446 93.4717C112.595 88.3993 116.122 83.5534 119.306 81.9747C120.259 81.5027 121.075 81.3917 121.49 81.6775C127.74 85.981 135.35 88.0362 142.961 87.4465C150.544 88.018 158.161 85.981 164.407 81.6797C164.817 81.3983 165.362 81.3714 165.897 81.6704C170.421 83.948 173.324 88.467 173.473 93.3988V96.9946C173.473 100.352 176.309 102.929 179.499 102.929C182.273 102.929 184.445 105.068 184.445 107.8C184.445 110.483 182.227 112.668 179.499 112.668C178.925 112.668 178.371 112.874 177.94 113.247C177.51 113.621 177.232 114.136 177.159 114.696L176.502 119.737C174.34 136.294 159.926 148.78 142.974 148.78C126.023 148.78 111.61 136.296 109.448 119.738ZM116.908 158.597C119.035 156.886 121.902 156.14 124.502 157.012C127.4 157.985 128.041 159.729 139.027 170.215L127.676 175.941L115.808 159.496C116.172 159.194 116.539 158.894 116.908 158.597ZM60.6637 218.354V206.717C60.6637 180.943 81.967 159.978 108.152 159.978H110.622C111.115 161.306 110.426 159.929 125.011 180.27C125.339 180.725 125.823 181.048 126.374 181.18C126.925 181.313 127.505 181.246 128.01 180.991L133.739 178.101C134.262 180.283 135.293 182.314 136.75 184.035L130.001 212.279C129.787 213.18 130.12 214.133 130.89 214.695C137.732 219.711 135.372 217.981 135.883 218.354H60.6637ZM142.986 217.769C140.654 216.043 138.247 214.285 134.946 211.873L141.195 185.719H144.76C145.435 188.543 147.097 195.503 151.007 211.869C148.266 213.893 145.738 215.732 142.986 217.769ZM225.281 218.354H150.073L150.098 218.336C151.787 217.096 153.448 215.877 155.077 214.668C155.442 214.396 155.72 214.026 155.875 213.602C156.031 213.178 156.058 212.718 155.953 212.279L149.207 184.046C150.669 182.312 151.691 180.26 152.213 178.091L157.963 180.991C158.467 181.246 159.048 181.313 159.599 181.181C160.149 181.048 160.633 180.725 160.962 180.27C175.568 159.995 175.08 160.822 175.36 159.978H177.793C203.978 159.978 225.282 180.943 225.282 206.717L225.281 218.354Z" fill="#EDEDED"/>
<path d="M155.635 129.78C155.421 129.56 155.165 129.383 154.882 129.259C154.599 129.136 154.294 129.069 153.984 129.062C153.674 129.055 153.366 129.108 153.077 129.218C152.789 129.328 152.525 129.493 152.301 129.703C147.048 134.631 138.819 134.631 133.566 129.703C133.113 129.279 132.508 129.049 131.883 129.063C131.257 129.078 130.664 129.335 130.231 129.78C130.017 130.001 129.85 130.261 129.738 130.546C129.626 130.83 129.572 131.134 129.58 131.439C129.587 131.744 129.656 132.045 129.781 132.324C129.906 132.603 130.087 132.855 130.311 133.065C137.385 139.709 148.479 139.712 155.556 133.065C156.009 132.64 156.272 132.055 156.286 131.439C156.301 130.823 156.067 130.226 155.635 129.78ZM153.967 107.898C154.545 108.134 155.194 108.135 155.773 107.899C156.351 107.664 156.811 107.212 157.051 106.643C157.497 105.583 159.033 105.581 159.481 106.646C159.73 107.203 160.19 107.643 160.764 107.87C161.338 108.096 161.98 108.092 162.551 107.858C163.122 107.624 163.576 107.178 163.817 106.617C164.058 106.056 164.065 105.425 163.838 104.858C161.759 99.9543 154.733 100.032 152.695 104.86C152.454 105.429 152.453 106.069 152.692 106.639C152.931 107.208 153.389 107.661 153.967 107.898ZM131.984 107.896C132.562 107.659 133.02 107.206 133.259 106.636C133.497 106.067 133.496 105.427 133.256 104.858C131.208 100.02 124.174 99.9747 122.111 104.86C121.871 105.429 121.871 106.069 122.109 106.639C122.348 107.208 122.806 107.661 123.384 107.898C123.962 108.134 124.611 108.134 125.189 107.899C125.767 107.664 126.227 107.212 126.467 106.643C126.917 105.577 128.457 105.588 128.899 106.646C129.14 107.214 129.601 107.665 130.179 107.899C130.757 108.134 131.407 108.132 131.984 107.896ZM45.6441 71.7256C50.2253 71.7256 54.7224 71.2014 58.8601 70.149C65.9915 73.6542 74.1205 75.884 82.3681 76.5984H82.3704C84.3744 76.7833 86.3078 75.7244 87.146 73.7741C87.5438 72.8486 87.6323 71.8226 87.399 70.8443C87.1656 69.866 86.6224 68.9862 85.8478 68.3319C83.1201 66.0135 80.9477 63.1732 79.3741 60.022C87.0494 53.4319 91.2757 44.8499 91.2757 35.8548C91.2757 16.0842 70.8053 0 45.6441 0C20.4762 0.000442346 0 16.0846 0 35.8553C0 55.6348 20.4762 71.7256 45.6441 71.7256ZM45.6441 4.6464C68.2043 4.6464 86.5575 18.6458 86.5575 35.8553C86.5575 43.4866 82.905 50.8256 76.2709 56.5221C74.7045 57.8695 74.24 60.0135 75.1146 61.8577C76.9564 65.7371 79.53 69.0989 82.8254 71.9711H82.7828C75.1169 71.3062 67.5741 69.2396 60.9692 65.9932C60.015 65.5265 58.9243 65.4061 57.8889 65.653C53.9668 66.6014 49.8475 67.08 45.6441 67.08C23.0772 67.08 4.71814 53.0718 4.71814 35.8553C4.71814 18.6458 23.0772 4.6464 45.6441 4.6464Z" fill="#EDEDED"/>
<path d="M24.879 26.9805H66.3993C67.7021 26.9805 68.7586 25.9414 68.7586 24.6573C68.7586 23.3731 67.7025 22.3341 66.3993 22.3341H24.879C23.5763 22.3341 22.5197 23.3731 22.5197 24.6573C22.5197 25.9414 23.5759 26.9805 24.879 26.9805ZM24.879 38.1851H66.3993C67.7021 38.1851 68.7586 37.146 68.7586 35.8619C68.7586 34.5778 67.7025 33.5387 66.3993 33.5387H24.879C23.5763 33.5387 22.5197 34.5778 22.5197 35.8619C22.5197 37.146 23.5759 38.1851 24.879 38.1851ZM24.879 49.3915H50.2971C51.5999 49.3915 52.6564 48.3524 52.6564 47.0683C52.6564 45.7842 51.6003 44.7451 50.2971 44.7451H24.879C23.5763 44.7451 22.5197 45.7842 22.5197 47.0683C22.5197 48.3524 23.5759 49.3915 24.879 49.3915Z" fill="#EDEDED"/>
</svg>
