<svg width="172" height="190" viewBox="0 0 172 190" fill="none" xmlns="http://www.w3.org/2000/svg">
<path d="M66.6965 83.2898H45.219C44.4031 83.2898 43.6207 83.6127 43.0437 84.1874C42.4668 84.7621 42.1427 85.5416 42.1427 86.3544V148.904C42.1427 149.717 42.4668 150.496 43.0437 151.071C43.6207 151.646 44.4031 151.969 45.219 151.969H66.6965C67.5124 151.969 68.2949 151.646 68.8718 151.071C69.4487 150.496 69.7728 149.717 69.7728 148.904V86.3544C69.7728 85.5416 69.4487 84.7621 68.8718 84.1874C68.2949 83.6127 67.5124 83.2898 66.6965 83.2898ZM63.6202 145.84H48.2954V89.4189H63.6202V145.84ZM26.8164 104.794H5.33891C4.52302 104.794 3.74054 105.117 3.16361 105.692C2.58669 106.267 2.26257 107.046 2.26257 107.859V148.903C2.26257 149.716 2.58669 150.496 3.16361 151.07C3.74054 151.645 4.52302 151.968 5.33891 151.968H26.8164C27.6323 151.968 28.4148 151.645 28.9917 151.07C29.5686 150.496 29.8927 149.716 29.8927 148.903V107.859C29.8927 107.046 29.5686 106.267 28.9917 105.692C28.4148 105.117 27.6323 104.794 26.8164 104.794ZM23.74 145.839H8.41525V110.924H23.74V145.839ZM142.177 11.0689C122.177 28.7649 100.099 44.5196 76.4481 57.9482C54.0916 70.6418 29.7474 81.5906 4.0903 90.4911C3.76506 90.6042 3.42306 90.6621 3.07857 90.6623C2.35124 90.6628 1.64723 90.4066 1.09153 89.9391C0.535826 89.4717 0.164364 88.8232 0.0430788 88.1088C-0.0782064 87.3944 0.0585299 86.6603 0.429018 86.0368C0.799506 85.4133 1.37978 84.9407 2.06684 84.703C54.0324 66.6752 99.7141 40.4097 137.971 6.59239L129.447 7.0536C127.746 7.14936 126.3 5.84924 126.208 4.15955C126.186 3.75769 126.244 3.35546 126.378 2.97584C126.512 2.59622 126.72 2.24664 126.99 1.94706C127.26 1.64748 127.586 1.40377 127.95 1.22984C128.315 1.05592 128.71 0.955178 129.113 0.933383L146.289 0.00445306C146.744 -0.019994 147.199 0.0564425 147.62 0.228246C148.042 0.40005 148.42 0.662936 148.727 0.997933C149.034 1.33293 149.263 1.73168 149.396 2.16541C149.53 2.59914 149.566 3.05703 149.5 3.50604L147.022 20.4628C146.904 21.267 146.471 21.9917 145.817 22.4776C145.163 22.9635 144.342 23.1708 143.535 23.0538C142.727 22.9367 142 22.505 141.512 21.8536C141.024 21.2021 140.816 20.3844 140.934 19.5802L142.177 11.0689ZM149.532 104.589V43.6983C149.532 42.8855 149.208 42.106 148.631 41.5313C148.054 40.9566 147.272 40.6338 146.456 40.6338H124.978C124.162 40.6338 123.38 40.9566 122.803 41.5313C122.226 42.106 121.902 42.8855 121.902 43.6983V98.2313C117.711 98.5853 113.589 99.5128 109.653 100.987V63.8984C109.653 63.0856 109.328 62.3062 108.752 61.7314C108.175 61.1567 107.392 60.8339 106.576 60.8339H85.0988C84.2829 60.8339 83.5004 61.1567 82.9235 61.7314C82.3466 62.3062 82.0224 63.0856 82.0224 63.8984V129.644C80.4841 134.286 79.7019 139.142 79.7056 144.03C79.706 169.378 100.407 190 125.853 190C151.299 190 172 169.378 172 144.03C172 127.3 162.981 112.631 149.532 104.589ZM143.38 46.7628V101.508C138.505 99.5075 133.321 98.3594 128.054 98.1144V46.7628H143.38ZM88.1755 66.9633H103.5V103.826C97.4293 107.192 92.1926 111.87 88.1755 117.517V66.9633ZM125.853 183.871C103.8 183.871 85.8586 165.999 85.8586 144.03C85.8586 122.062 103.8 104.19 125.853 104.19C147.906 104.19 165.847 122.062 165.847 144.03C165.847 165.999 147.906 183.871 125.853 183.871ZM125.853 107.508C105.637 107.508 89.1895 123.892 89.1895 144.03C89.1895 164.169 105.637 180.553 125.853 180.553C146.07 180.553 162.517 164.169 162.517 144.03C162.517 123.892 146.07 107.508 125.853 107.508ZM125.853 174.424C109.03 174.424 95.3422 160.789 95.3422 144.03C95.3422 127.271 109.03 113.637 125.853 113.637C142.677 113.637 156.364 127.271 156.364 144.03C156.364 160.789 142.677 174.424 125.853 174.424ZM137.001 150.442C136.799 150.791 136.53 151.096 136.21 151.341C135.889 151.586 135.524 151.766 135.133 151.87C134.743 151.975 134.336 152.001 133.936 151.948C133.535 151.896 133.149 151.765 132.799 151.564L124.315 146.684C123.848 146.415 123.459 146.028 123.189 145.563C122.919 145.097 122.777 144.568 122.777 144.03V131.372C122.777 130.559 123.101 129.779 123.678 129.205C124.255 128.63 125.037 128.307 125.853 128.307C126.669 128.307 127.452 128.63 128.029 129.205C128.606 129.779 128.93 130.559 128.93 131.372V142.261L135.875 146.256C136.582 146.663 137.097 147.332 137.308 148.117C137.52 148.902 137.409 149.738 137.001 150.442ZM122.777 120.279V117.392C122.777 116.579 123.101 115.8 123.678 115.225C124.255 114.65 125.037 114.327 125.853 114.327C126.669 114.327 127.452 114.65 128.029 115.225C128.606 115.8 128.93 116.579 128.93 117.392V120.279C128.93 121.092 128.606 121.872 128.029 122.446C127.452 123.021 126.669 123.344 125.853 123.344C125.037 123.344 124.255 123.021 123.678 122.446C123.101 121.872 122.777 121.092 122.777 120.279ZM140.537 129.403C140.251 129.119 140.025 128.781 139.87 128.409C139.716 128.037 139.636 127.639 139.636 127.236C139.636 126.834 139.716 126.435 139.87 126.063C140.025 125.692 140.251 125.354 140.537 125.069L142.587 123.027C143.164 122.453 143.946 122.13 144.762 122.13C145.578 122.13 146.36 122.453 146.937 123.027C147.514 123.602 147.839 124.382 147.839 125.194C147.839 126.007 147.514 126.787 146.937 127.361L144.888 129.403C144.287 130.001 143.5 130.301 142.712 130.301C141.925 130.301 141.138 130.001 140.537 129.403ZM146.938 160.701C147.368 161.129 147.661 161.675 147.779 162.27C147.898 162.864 147.837 163.48 147.604 164.04C147.371 164.6 146.977 165.078 146.471 165.415C145.966 165.752 145.371 165.932 144.762 165.932C144.358 165.932 143.958 165.853 143.585 165.699C143.211 165.545 142.872 165.319 142.587 165.034L140.537 162.992C140.247 162.708 140.015 162.37 139.856 161.997C139.697 161.624 139.614 161.223 139.612 160.818C139.61 160.412 139.688 160.011 139.843 159.636C139.998 159.261 140.226 158.92 140.513 158.634C140.801 158.347 141.143 158.12 141.519 157.966C141.896 157.812 142.299 157.734 142.706 157.736C143.113 157.739 143.515 157.821 143.89 157.98C144.264 158.138 144.604 158.369 144.888 158.658L146.938 160.701ZM111.168 158.658C111.745 159.233 112.069 160.012 112.07 160.825C112.07 161.637 111.746 162.417 111.169 162.992L109.119 165.034C108.834 165.319 108.495 165.545 108.121 165.699C107.748 165.853 107.348 165.932 106.944 165.932C106.54 165.932 106.14 165.853 105.766 165.699C105.393 165.545 105.054 165.319 104.769 165.034C104.192 164.46 103.868 163.68 103.868 162.867C103.868 162.055 104.192 161.275 104.769 160.701L106.818 158.658C107.395 158.084 108.177 157.761 108.993 157.761C109.809 157.761 110.591 158.083 111.168 158.658ZM111.169 125.069C111.746 125.643 112.07 126.423 112.07 127.236C112.07 128.049 111.746 128.828 111.169 129.403C110.592 129.977 109.809 130.3 108.993 130.3C108.178 130.3 107.395 129.977 106.818 129.403L104.769 127.361C104.192 126.786 103.867 126.007 103.867 125.194C103.867 124.381 104.192 123.602 104.769 123.027C105.345 122.452 106.128 122.129 106.944 122.129C107.76 122.129 108.542 122.452 109.119 123.027L111.169 125.069ZM155.671 144.03C155.671 144.843 155.347 145.623 154.77 146.197C154.193 146.772 153.411 147.095 152.595 147.095H149.696C148.88 147.095 148.098 146.772 147.521 146.197C146.944 145.623 146.62 144.843 146.62 144.03C146.62 143.218 146.944 142.438 147.521 141.863C148.098 141.289 148.88 140.966 149.696 140.966H152.595C153.411 140.966 154.193 141.289 154.77 141.863C155.347 142.438 155.671 143.218 155.671 144.03ZM128.93 167.782V170.669C128.93 171.482 128.606 172.261 128.029 172.836C127.452 173.411 126.669 173.734 125.853 173.734C125.037 173.734 124.255 173.411 123.678 172.836C123.101 172.261 122.777 171.482 122.777 170.669V167.782C122.777 166.969 123.101 166.189 123.678 165.615C124.255 165.04 125.037 164.717 125.853 164.717C126.669 164.717 127.452 165.04 128.029 165.615C128.606 166.189 128.93 166.969 128.93 167.782ZM102.01 147.095H99.1115C98.2956 147.095 97.5131 146.772 96.9362 146.197C96.3593 145.623 96.0352 144.843 96.0352 144.03C96.0352 143.218 96.3593 142.438 96.9362 141.863C97.5131 141.289 98.2956 140.966 99.1115 140.966H102.01C102.826 140.966 103.609 141.289 104.185 141.863C104.762 142.438 105.087 143.218 105.087 144.03C105.087 144.843 104.762 145.623 104.185 146.197C103.609 146.772 102.826 147.095 102.01 147.095Z" fill="#ECECEC"/>
</svg>
