<svg width="172" height="155" viewBox="0 0 172 155" fill="none" xmlns="http://www.w3.org/2000/svg">
<path d="M27.5111 46.1685C25.4198 45.9989 23.3267 46.4728 21.5143 47.526C19.702 48.5793 18.2579 50.1612 17.3769 52.0582C16.4959 53.9551 16.2206 56.0757 16.5881 58.1334C16.9557 60.1912 17.9483 62.087 19.432 63.5649C20.9157 65.0428 22.8189 66.0315 24.8847 66.3975C26.9505 66.7635 29.0793 66.4892 30.9836 65.6115C32.8879 64.7339 34.4759 63.2953 35.5332 61.49C36.5905 59.6846 37.0661 57.5996 36.8958 55.5164C36.6982 53.1028 35.646 50.8378 33.927 49.1255C32.208 47.4133 29.9341 46.3652 27.5111 46.1685ZM27.5029 62.5841C26.1943 62.7555 24.8647 62.5142 23.7008 61.8943C22.5369 61.2743 21.5972 60.3068 21.0135 59.1276C20.4299 57.9484 20.2317 56.6167 20.4468 55.3196C20.6619 54.0224 21.2794 52.825 22.2126 51.8953C23.1459 50.9657 24.348 50.3505 25.6502 50.1363C26.9524 49.9221 28.2893 50.1195 29.4731 50.7008C30.6569 51.2822 31.6282 52.2183 32.2505 53.3777C32.8729 54.5371 33.1151 55.8615 32.9431 57.165C32.7607 58.5385 32.1288 59.8137 31.1453 60.7934C30.1619 61.773 28.8817 62.4024 27.5029 62.5841ZM56.3507 46.1685C54.2595 45.9988 52.1663 46.4726 50.3539 47.5258C48.5415 48.579 47.0973 50.1609 46.2163 52.0577C45.3352 53.9546 45.0598 56.0752 45.4273 58.133C45.7947 60.1908 46.7872 62.0866 48.2709 63.5646C49.7545 65.0425 51.6577 66.0313 53.7235 66.3974C55.7893 66.7635 57.9181 66.4892 59.8224 65.6117C61.7267 64.7342 63.3148 63.2956 64.3722 61.4903C65.4296 59.685 65.9053 57.6 65.7351 55.5168C65.5375 53.1033 64.4853 50.8382 62.7664 49.1259C61.0475 47.4136 58.7737 46.3654 56.3507 46.1685ZM56.3425 62.5841C55.0339 62.7555 53.7043 62.5144 52.5404 61.8945C51.3764 61.2747 50.4366 60.3072 49.8529 59.1281C49.2692 57.9489 49.0709 56.6173 49.2859 55.3201C49.5009 54.0229 50.1183 52.8254 51.0515 51.8957C51.9847 50.966 53.1868 50.3507 54.489 50.1364C55.7912 49.9221 57.128 50.1194 58.3119 50.7007C59.4957 51.282 60.467 52.218 61.0895 53.3773C61.7119 54.5367 61.9542 55.8611 61.7823 57.1646C61.6 58.5381 60.9682 59.8134 59.9848 60.7931C59.0015 61.7728 57.7213 62.4023 56.3425 62.5841ZM85.19 46.1685C83.0987 45.9988 81.0055 46.4726 79.1931 47.5258C77.3807 48.579 75.9365 50.1609 75.0555 52.0579C74.1745 53.9548 73.8991 56.0753 74.2666 58.1331C74.634 60.1909 75.6266 62.0868 77.1103 63.5647C78.594 65.0427 80.4972 66.0314 82.563 66.3974C84.6288 66.7635 86.7577 66.4892 88.662 65.6116C90.5663 64.734 92.1543 63.2953 93.2116 61.49C94.2689 59.6847 94.7446 57.5996 94.5743 55.5164C94.3766 53.1029 93.3244 50.838 91.6055 49.1257C89.8866 47.4135 87.6128 46.3654 85.19 46.1685ZM85.1813 62.5841C83.8727 62.7555 82.5432 62.5142 81.3793 61.8943C80.2154 61.2743 79.2756 60.3068 78.692 59.1276C78.1084 57.9484 77.9102 56.6167 78.1253 55.3196C78.3403 54.0224 78.9578 52.825 79.8911 51.8953C80.8244 50.9657 82.0265 50.3505 83.3287 50.1363C84.6309 49.9221 85.9678 50.1195 87.1516 50.7008C88.3354 51.2822 89.3066 52.2183 89.929 53.3777C90.5513 54.5371 90.7935 55.8615 90.6216 57.165C90.4391 58.5385 89.8073 59.8137 88.8238 60.7934C87.8404 61.773 86.5601 62.4024 85.1813 62.5841ZM146.153 88.4809C144.061 88.3113 141.968 88.7851 140.156 89.8383C138.343 90.8915 136.899 92.4734 136.018 94.3703C135.137 96.2672 134.862 98.3878 135.229 100.446C135.597 102.503 136.589 104.399 138.073 105.877C139.557 107.355 141.46 108.344 143.526 108.71C145.591 109.076 147.72 108.802 149.625 107.924C151.529 107.046 153.117 105.608 154.174 103.802C155.232 101.997 155.707 99.912 155.537 97.8288C155.339 95.4154 154.287 93.1504 152.568 91.4382C150.849 89.7259 148.575 88.6778 146.153 88.4809ZM146.144 104.897C144.835 105.068 143.506 104.827 142.342 104.207C141.178 103.587 140.238 102.619 139.655 101.44C139.071 100.261 138.873 98.9292 139.088 97.632C139.303 96.3349 139.92 95.1374 140.854 94.2077C141.787 93.2781 142.989 92.663 144.291 92.4487C145.594 92.2345 146.93 92.4319 148.114 93.0133C149.298 93.5947 150.269 94.5307 150.892 95.6901C151.514 96.8495 151.756 98.1739 151.584 99.4774C151.402 100.851 150.77 102.126 149.786 103.106C148.803 104.085 147.523 104.715 146.144 104.897ZM117.313 88.4809C115.222 88.3113 113.129 88.7851 111.316 89.8382C109.504 90.8914 108.06 92.4733 107.179 94.3702C106.298 96.2671 106.022 98.3876 106.39 100.445C106.757 102.503 107.75 104.399 109.233 105.877C110.717 107.355 112.62 108.344 114.686 108.71C116.752 109.076 118.881 108.802 120.785 107.924C122.689 107.047 124.277 105.608 125.335 103.803C126.392 101.997 126.868 99.9124 126.698 97.8292C126.5 95.4157 125.448 93.1507 123.729 91.4383C122.01 89.726 119.736 88.6778 117.313 88.4809ZM117.305 104.897C115.996 105.068 114.667 104.827 113.503 104.207C112.339 103.587 111.399 102.62 110.815 101.441C110.232 100.261 110.033 98.9297 110.248 97.6325C110.463 96.3354 111.081 95.1378 112.014 94.2081C112.947 93.2784 114.149 92.6632 115.452 92.4489C116.754 92.2346 118.091 92.4319 119.274 93.0132C120.458 93.5944 121.43 94.5304 122.052 95.6898C122.675 96.8491 122.917 98.1735 122.745 99.4771C122.563 100.851 121.931 102.126 120.947 103.106C119.964 104.085 118.684 104.715 117.305 104.897Z" fill="#ECECEC"/>
<path d="M162.403 128.707C168.675 119.545 172.02 108.708 172 97.6177C172 67.1233 147.095 42.3141 116.481 42.3141C114.185 42.3156 111.891 42.4563 109.612 42.7353C106.779 30.5663 99.8877 19.7139 90.0624 11.9515C80.2371 4.1892 68.0592 -0.0241178 55.5189 0.000103854C24.9059 0.000103854 7.95994e-05 24.8093 7.95994e-05 55.3036C-0.0188272 66.4007 3.3308 77.2443 9.60935 86.4111C9.87287 86.7935 15.9278 95.8973 3.5131 106.603C2.99238 107.047 2.61579 107.635 2.43107 108.293C2.24636 108.95 2.26184 109.648 2.47555 110.297C2.68502 110.926 3.07759 111.48 3.60346 111.888C4.12933 112.295 4.76481 112.537 5.42929 112.585C6.24383 112.646 7.19524 112.688 8.2729 112.688C13.7501 112.688 22.4815 111.601 33.0001 106.43C33.4521 106.207 33.9731 106.165 34.4553 106.313C38.3986 107.539 48.929 110.609 55.5189 110.609C57.8211 110.609 60.1211 110.467 62.4057 110.184C65.2702 122.333 72.1685 133.162 81.983 140.919C91.7975 148.675 103.953 152.904 116.481 152.919C123.071 152.919 133.599 149.85 137.543 148.624C138.028 148.475 138.551 148.518 139.004 148.743C149.522 153.915 158.252 155 163.729 155C164.806 155 165.758 154.958 166.573 154.897C167.237 154.85 167.873 154.607 168.398 154.2C168.924 153.792 169.317 153.238 169.526 152.609C169.74 151.96 169.755 151.262 169.571 150.605C169.386 149.947 169.009 149.359 168.488 148.915C156.073 138.21 162.127 129.106 162.403 128.707ZM34.1576 102.105C33.9074 102.022 33.6431 101.991 33.3804 102.012C33.1176 102.033 32.8618 102.106 32.628 102.227C21.2583 108.136 12.0939 108.934 7.00448 108.751C14.0321 102.297 15.3768 96.1645 15.234 92.0888C15.165 89.2905 14.3411 86.5623 12.8486 84.1905C7.02246 75.6776 3.91505 65.6094 3.93394 55.3064C3.93394 26.9719 27.0749 3.92067 55.5197 3.92067C62.2978 3.90636 69.012 5.22565 75.2769 7.80279C81.5419 10.3799 87.2342 14.1642 92.0271 18.9384C96.82 23.7125 100.619 29.3826 103.207 35.6232C105.794 41.8637 107.119 48.5518 107.105 55.3036C107.105 83.6377 83.9633 106.689 55.5189 106.689C48.0964 106.689 34.2961 102.148 34.1576 102.102V102.105ZM94.7363 94.4148C95.7997 96.1725 96.1668 98.2619 95.7659 100.275C95.365 102.288 94.2249 104.079 92.5685 105.3C90.9121 106.52 88.8584 107.081 86.8089 106.873C84.7593 106.665 82.8613 105.703 81.4858 104.175C86.3631 101.592 90.8285 98.3014 94.7363 94.4121V94.4148ZM139.372 144.537C139.138 144.416 138.882 144.342 138.62 144.321C138.357 144.3 138.093 144.332 137.842 144.415C137.704 144.461 123.904 149.002 116.481 149.002C104.887 148.987 93.6342 145.09 84.5324 137.936C75.4306 130.782 69.0081 120.787 66.2975 109.558C70.2711 108.775 74.1459 107.559 77.8517 105.93C79.7866 108.501 82.6639 110.205 85.8555 110.671C89.0472 111.136 92.2941 110.325 94.8878 108.415C97.4814 106.504 99.2112 103.65 99.6997 100.474C100.188 97.2974 99.3956 94.0578 97.495 91.4616C106.24 81.4308 111.05 68.589 111.038 55.3036C111.038 52.3846 110.81 49.47 110.357 46.5861C112.39 46.3492 114.435 46.2304 116.482 46.2304C144.926 46.2304 168.067 69.2816 168.067 97.6161C168.088 107.908 164.988 117.967 159.172 126.474C157.668 128.852 156.837 131.59 156.767 134.4C156.624 138.475 157.969 144.608 164.997 151.063C159.908 151.245 150.742 150.446 139.372 144.537Z" fill="#ECECEC"/>
</svg>
