<svg width="206" height="121" viewBox="0 0 206 121" fill="none" xmlns="http://www.w3.org/2000/svg">
<mask id="mask0_2045_812" style="mask-type:alpha" maskUnits="userSpaceOnUse" x="0" y="0" width="206" height="121">
<rect width="206" height="121" fill="#D9D9D9"/>
</mask>
<g mask="url(#mask0_2045_812)">
<path d="M123.58 78.2698C126.223 77.3677 128.066 75.4336 129.845 73.3183C131.022 71.8952 132.367 70.6395 133.627 69.3001C134.165 68.7641 134.709 68.1956 135.324 67.7758C135.747 67.4872 136.293 67.4247 136.793 67.2523C136.635 67.8958 136.708 68.7192 136.331 69.1177C134.705 70.7907 132.905 72.3288 131.247 73.9955C130.786 74.479 130.545 75.2075 130.226 75.8197C130.393 75.9871 130.593 76.1608 130.754 76.3607C131.6 75.7834 132.62 75.3411 133.324 74.6352C136.94 70.9557 140.447 67.1536 144.058 63.5066C145.933 61.5787 147.976 59.8183 149.987 58.0516C150.346 57.7505 150.943 57.7655 151.469 57.6318C151.31 58.1066 151.306 58.6451 150.999 59.0236C148.268 62.6058 145.447 66.1366 142.717 69.7188C141.956 70.717 141.458 71.9015 140.846 72.996C141.052 73.1372 141.219 73.3046 141.425 73.4458C142.386 72.6212 143.43 71.8803 144.313 70.9395C148.544 66.5027 152.723 61.9886 156.986 57.5581C158.452 56.0225 160.117 54.6607 161.699 53.2151C161.885 53.2851 162.065 53.3875 162.252 53.4575C162.08 53.9972 162.057 54.6332 161.743 55.0443C159.345 58.1179 156.889 61.1465 154.49 64.2201C153.288 65.7731 152.169 67.4099 151.083 69.0529C150.751 69.5614 150.631 70.1786 150.42 70.7446C150.562 70.8733 150.71 70.9695 150.852 71.0982C151.729 70.3585 152.665 69.6638 153.516 68.8855C158.549 64.0989 162.866 58.7014 167.1 53.2201C167.273 53.0177 167.368 52.6991 167.592 52.5742C168.047 52.2918 168.554 52.0869 169.029 51.8757C168.896 52.3893 168.878 52.9927 168.565 53.4038C165.553 57.4032 162.49 61.3252 159.504 65.3633C158.73 66.4266 158.265 67.786 157.666 68.9842C157.807 69.1129 157.923 69.2028 158.065 69.3315C158.782 68.7293 159.551 68.2046 160.185 67.5186C163.961 63.3643 167.936 59.3836 171.332 54.9531C173.704 51.8408 175.323 48.1437 177.11 44.6141C182.471 34.1938 187.87 23.7473 194.576 14.128C196.902 10.5683 199.846 7.43226 202.7 4.24497C203.333 3.55903 204.802 2.86686 205.477 3.16673C206.776 3.689 206.126 5.14709 205.679 6.07166C203.747 10.1798 201.918 14.4429 199.567 18.3011C195.433 24.9818 191.088 31.5538 186.51 37.9459C182.924 43.0136 178.816 47.6764 175.049 52.6417C173.84 54.2272 172.787 56.0451 171.964 57.8743C168.674 65.191 165.5 72.5976 162.3 79.9655C162.045 80.5902 161.881 81.2662 161.544 82.3132C164.668 81.1675 167.478 80.2642 170.191 79.1734C175.495 77.1031 180.755 74.9229 186.027 72.8464C186.425 72.6877 186.952 72.8914 187.408 72.9463C187.101 73.3249 186.865 73.8522 186.468 74.0109C181.972 75.8675 177.476 77.7241 172.928 79.5033C169.355 80.8989 165.743 82.152 162.132 83.4052C161.028 83.7638 160.439 84.391 160.058 85.4967C157.297 93.6918 154.447 101.836 151.654 110.024C151.59 110.181 151.501 110.298 151.335 110.637C149.439 110.099 147.567 109.432 145.614 109.019C136.988 107.072 128.401 105.099 119.732 103.38C115.04 102.468 110.235 101.971 105.467 101.449C104.163 101.297 102.79 101.67 101.5 101.959C88.2669 105.016 75.067 108.417 61.7685 111.125C49.8627 113.53 37.8071 115.332 25.7769 117.005C19.1647 117.911 12.416 118.318 5.74497 116.954C5.58431 116.923 5.42364 116.892 5.26298 116.86C0.320265 115.697 -0.71219 112.26 2.67264 108.4C5.44972 105.266 9.16994 103.797 12.9292 102.472C15.7582 101.471 18.7106 100.865 21.5597 100.104C21.5591 99.9356 21.5907 99.7731 21.5327 99.7282C18.1579 96.8469 17.5448 93.997 19.8561 89.8276C24.5234 81.4302 31.473 75.7016 40.6676 73.0053C42.2973 72.5131 44.2758 72.628 45.9662 73.0241C48.1644 73.5526 49.1213 75.4918 48.7761 77.9532C48.2363 81.7589 46.0428 84.6364 43.2957 87.1028C39.6136 90.4325 35.1882 92.2691 30.3674 93.0512C29.886 93.1262 29.3329 92.8838 28.8187 92.7838C29.2417 92.4952 29.6061 91.993 30.0554 91.9117C33.8806 91.1046 37.5245 89.8577 40.741 87.55C43.2591 85.7471 45.1977 83.4944 46.6274 80.7719C47.0935 79.9185 47.3214 78.9177 47.5109 77.9432C47.8571 75.8191 46.7281 74.2511 44.582 73.9687C41.5236 73.5763 38.7399 74.6871 36.1111 76.0302C30.2762 78.9413 25.3701 83.0782 21.8692 88.7356C20.7064 90.5998 19.7496 92.6051 19.9949 94.9453C20.1812 96.9032 21.1227 98.0639 22.9869 98.5949C25.9506 99.4745 28.8197 98.9536 31.7073 98.1664C39.9653 95.8275 47.0668 91.3758 53.5482 85.8259C53.6251 85.7734 53.6503 85.6435 53.7014 85.5523C50.2334 79.7199 52.6682 74.0574 56.5196 69.5133C58.3814 67.313 60.8479 65.4327 63.3608 63.9996C68.3097 61.1859 71.5568 62.3229 74.5491 68.0291C74.8751 67.553 75.0726 67.052 75.4312 66.7509C81.7203 61.3321 87.9194 55.8621 94.3439 50.6046C97.4761 48.0445 100.95 45.9555 104.327 43.679C104.597 43.4953 105.085 43.5566 105.457 43.5278C105.343 43.9439 105.377 44.4562 105.121 44.7435C99.7257 50.5384 94.163 56.1658 88.9096 62.0893C82.2869 69.5672 75.9154 77.2961 69.4344 84.9027C69.2616 85.1051 69.1469 85.3525 69.2002 85.936C70.5728 85.3937 72.0034 84.8964 73.3307 84.2442C76.5689 82.6825 79.067 80.6397 80.7636 77.0588C83.3023 71.72 87.74 67.7618 92.6942 64.5782C95.8923 62.5367 99.1811 60.715 103.143 60.5751C107.035 60.4552 108.983 63.1265 107.653 66.8798C106.476 70.1908 104.269 72.7959 101.72 75.0986C98.1151 78.3758 94.0705 80.8259 89.1592 81.3881C88.0678 81.5131 86.9362 81.1582 85.8437 80.9458C85.6509 80.9083 85.5592 80.3511 85.3911 80.015C85.7119 79.9088 86.0131 79.7314 86.3471 79.7289C88.1644 79.6439 90.1182 80.0575 91.7605 79.5003C98.2082 77.3825 103.108 73.2781 106.183 67.066C106.502 66.4537 106.648 65.7066 106.716 65.0119C106.891 63.4276 106.103 62.1619 104.555 62.0632C102.91 61.9458 101.125 62.0369 99.5854 62.5804C91.5734 65.5403 85.5219 70.9378 81.3654 78.4232C80.7013 79.6089 80.3334 80.987 80.0038 82.3389C79.3011 85.4387 80.9465 87.7814 84.1823 87.4329C87.4502 87.0905 90.7876 86.3909 93.7957 85.1552C101.088 82.1229 106.973 76.8953 112.156 70.9917C119.464 62.7368 126.52 54.2306 133.692 45.8145C133.781 45.697 133.813 45.5346 133.985 45.1635C132.658 45.8157 131.562 46.4792 130.355 46.8515C129.611 47.0776 128.391 47.1776 127.972 46.759C127.476 46.2243 127.305 45.0448 127.431 44.2264C127.684 42.927 128.296 41.6638 128.78 40.3757C128.67 40.2532 128.561 40.1308 128.425 39.9696C127.528 40.4694 126.495 40.808 125.765 41.4751C122.32 44.615 118.901 47.7935 115.572 51.0233C114.304 52.2265 113.255 53.6746 112.046 54.9227C111.796 55.1776 111.289 55.2138 110.897 55.34C110.973 54.9502 110.901 54.4642 111.112 54.2355C112.967 52.0678 114.797 49.8613 116.82 47.861C119.451 45.3046 122.224 42.877 124.991 40.4818C125.798 39.7622 126.804 39.2162 127.811 38.8388C128.382 38.6464 129.301 38.7239 129.732 39.0775C130.08 39.3474 130.128 40.3007 129.989 40.8467C129.767 41.815 129.205 42.6496 128.919 43.6055C128.728 44.2427 128.73 44.9174 128.637 45.9107C129.709 45.5458 130.498 45.4296 131.107 45.0423C133.844 43.3156 136.549 41.5827 139.208 39.7398C142.027 37.7594 144.769 35.6629 147.563 33.6438C147.8 33.4539 148.269 33.6126 148.667 33.6226C148.527 33.9999 148.465 34.4934 148.189 34.7096C146.78 35.7841 145.377 36.8261 143.896 37.7519C139.019 40.883 135.579 45.5409 131.842 49.8377C124.842 57.8827 118.074 66.1077 110.907 73.9854C105.858 79.5441 99.9902 84.1682 92.8636 86.8619C90.6698 87.6828 88.3791 88.3162 86.0551 88.6061C81.2338 89.2195 79.4695 87.8314 78.2525 82.9424C76.0276 84.0943 73.8091 85.2138 71.5906 86.3333C71.2957 86.4782 70.9818 86.7206 70.6799 86.7294C67.1286 86.8143 65.307 89.4943 63.195 91.7808C62.9838 92.0094 62.7858 92.3418 62.523 92.4929C62.1512 92.6904 61.7018 92.7716 61.3042 92.9302C61.3863 92.5079 61.3846 92.0019 61.6021 91.7408C62.5106 90.67 63.477 89.6442 64.661 88.3573C64.0378 88.3036 63.6907 88.2024 63.3825 88.2436C60.6155 88.5822 57.9812 88.2386 55.421 86.9991C54.9642 86.7755 54.0214 87.1653 53.4831 87.5326C49.8431 89.9603 46.3001 92.5753 42.6342 94.9642C40.9167 96.0799 38.9668 96.8471 37.1597 98.0803C39.2466 97.9803 41.3141 97.8091 43.4143 97.8129C53.4974 97.7505 63.5863 97.4869 73.6578 97.8269C83.3955 98.1693 93.129 99.2189 102.855 99.7949C104.467 99.9061 106.186 99.2964 107.777 98.8304C124.607 93.7415 141.417 88.5815 158.253 83.4602C159.491 83.0941 159.912 82.2994 160.39 81.2124C163.354 74.2031 166.343 67.2325 169.332 60.262C169.466 59.9171 169.568 59.566 169.386 58.9575C168.285 60.1595 167.21 61.4002 166.11 62.6021C163.914 64.9735 161.719 67.345 159.492 69.7101C159.236 69.9975 158.916 70.2724 158.589 70.4111C158.018 70.6035 157.222 70.9208 156.798 70.7034C156.405 70.4922 156.377 69.6101 156.259 69.0142C156.22 68.7031 156.347 68.3907 156.416 67.696C155.186 68.873 154.2 69.8275 153.182 70.7758C152.574 71.3318 151.953 71.9528 151.254 72.2889C150.741 72.5263 149.836 72.5525 149.462 72.2439C149.082 71.9678 148.867 71.0157 149.032 70.5084C149.388 69.364 149.995 68.3019 150.505 67.2212C150.671 66.8826 150.831 66.5765 150.733 66.0517C149.44 67.3849 148.185 68.6918 146.892 70.0249C145.529 71.378 144.249 72.8149 142.718 74.0006C142.013 74.5378 140.666 74.9501 140.029 74.624C138.877 74.0293 139.432 72.7211 139.936 71.8415C140.913 70.0761 142.07 68.4131 142.969 66.5314C142.432 67.0675 141.888 67.6359 141.35 68.1719C138.687 70.8907 136.114 73.6607 133.406 76.2695C131.562 78.0349 130.329 78.0312 128.893 76.8417C127.489 77.715 126.176 78.6396 124.778 79.3118C124.117 79.6217 123.026 79.7466 122.556 79.4192C122.06 79.0532 121.69 77.8687 121.907 77.2702C122.817 74.6489 123.983 72.0776 125.054 69.4875C125.946 67.301 127.024 65.1844 127.666 62.9155C128.275 60.8089 127.773 60.4753 125.655 60.7377C125.276 60.7989 124.844 60.4453 124.471 60.3054C124.721 60.0505 124.9 59.6469 125.182 59.567C129.789 58.1701 133.169 54.8492 136.55 51.6969C140.827 47.7074 144.756 43.2795 148.981 39.2126C151.568 36.715 154.412 34.436 157.25 32.1895C158.153 31.4886 159.397 31.0901 160.546 30.8414C161.868 30.5591 162.841 31.3887 162.486 32.7019C162.016 34.4311 161.109 36.0078 160.325 37.6421C160.261 37.7983 159.792 37.8083 159.484 37.8495C159.483 37.5122 159.359 37.1173 159.481 36.8375C159.965 35.718 160.539 34.6497 160.985 33.5565C161.119 33.2116 161.111 32.5694 160.917 32.3632C160.692 32.1508 160.024 32.1558 159.755 32.3395C157.858 33.5215 155.819 34.5747 154.218 36.1178C148.853 41.2442 143.771 46.6279 138.38 51.7156C135.685 54.2594 132.654 56.4684 129.739 58.7674C128.996 59.3309 128.689 59.7094 128.988 60.7452C129.845 63.5415 128.195 65.8504 127.131 68.2393C126.251 70.1922 125.094 72.0239 124.214 73.9767C123.634 75.2461 123.363 76.643 122.969 77.9824C123.194 78.0261 123.374 78.1286 123.58 78.2698ZM99.2428 101.048C99.2038 100.906 99.1648 100.763 99.1579 100.627C96.9929 100.442 94.8279 100.257 92.6503 100.137C82.9121 99.6261 73.1476 98.9076 63.4168 98.7014C56.1139 98.5289 48.8258 98.9662 41.505 99.2285C31.8723 99.5471 22.3515 100.663 13.158 103.696C9.55886 104.885 6.06988 106.364 3.543 109.412C1.0672 112.37 1.76813 114.596 5.49611 115.49C5.65678 115.521 5.81744 115.552 5.9781 115.583C12.4311 117.04 18.929 116.551 25.3616 115.711C36.2815 114.26 47.1687 112.635 58.0032 110.595C68.4589 108.616 78.7971 106.041 89.1938 103.679C92.518 102.876 95.8738 101.91 99.2428 101.048ZM108.758 100.134C110.461 100.465 112.113 100.887 113.803 101.114C125.876 102.653 137.816 104.873 149.364 108.77C150.431 109.112 150.648 108.682 150.947 107.83C153.472 100.5 156.062 93.182 158.588 85.8516C158.683 85.533 158.689 85.1631 158.733 84.9357C142.038 90.0171 125.414 95.0784 108.758 100.134ZM55.1636 84.8926C61.0613 79.6 66.799 74.4449 72.5171 69.2185C72.8052 68.9374 72.8477 68.204 72.7371 67.7442C71.9043 64.4807 69.2408 63.0863 65.8408 64.2795C60.0737 66.3272 56.2596 70.5078 54.0302 76.1428C52.9155 78.9602 52.8928 81.8215 55.1636 84.8926ZM177.255 47.6427C177.671 47.2179 177.991 46.943 178.253 46.6232C180.518 43.7257 182.782 40.8283 184.988 37.8859C191.714 28.8438 197.881 19.4231 203.006 9.36141C203.752 7.92207 204.197 6.32279 204.923 4.47488C199.408 7.11115 178.323 40.2648 177.255 47.6427ZM70.0212 81.7129C79.8176 70.6042 89.4028 59.7242 99.0201 48.8504C98.1284 49.149 97.4173 49.7187 96.7 50.321C90.3914 55.6685 84.1086 61.0548 77.7225 66.2861C75.423 68.1653 73.6635 70.1831 73.2626 73.2742C73.131 74.2937 72.6397 75.277 72.2512 76.2466C71.5503 77.9646 70.8495 79.6825 70.0212 81.7129ZM72.5065 71.8461C72.3584 71.7499 72.2104 71.6537 72.056 71.5899C66.7792 76.2616 61.5024 80.9332 56.1103 85.6835C58.9809 87.5564 61.947 87.2228 64.8482 86.7081C65.6057 86.5856 66.509 85.8847 66.8792 85.1813C68.0598 82.8823 69.086 80.5196 70.0865 78.1182C70.9211 76.0554 71.6977 73.9476 72.5065 71.8461Z" fill="url(#paint0_linear_2045_812)"/>
<path d="M123.58 78.2698C126.223 77.3677 128.066 75.4336 129.845 73.3183C131.022 71.8952 132.367 70.6395 133.627 69.3001C134.165 68.7641 134.709 68.1956 135.324 67.7758C135.747 67.4872 136.293 67.4247 136.793 67.2523C136.635 67.8958 136.708 68.7192 136.331 69.1177C134.705 70.7907 132.905 72.3288 131.247 73.9955C130.786 74.479 130.545 75.2075 130.226 75.8197C130.393 75.9871 130.593 76.1608 130.754 76.3607C131.6 75.7834 132.62 75.3411 133.324 74.6352C136.94 70.9557 140.447 67.1536 144.058 63.5066C145.933 61.5787 147.976 59.8183 149.987 58.0516C150.346 57.7505 150.943 57.7655 151.469 57.6318C151.31 58.1066 151.306 58.6451 150.999 59.0236C148.268 62.6058 145.447 66.1366 142.717 69.7188C141.956 70.717 141.458 71.9015 140.846 72.996C141.052 73.1372 141.219 73.3046 141.425 73.4458C142.386 72.6212 143.43 71.8803 144.313 70.9395C148.544 66.5027 152.723 61.9886 156.986 57.5581C158.452 56.0225 160.117 54.6607 161.699 53.2151C161.885 53.2851 162.065 53.3875 162.252 53.4575C162.08 53.9972 162.057 54.6332 161.743 55.0443C159.345 58.1179 156.889 61.1465 154.49 64.2201C153.288 65.7731 152.169 67.4099 151.083 69.0529C150.751 69.5614 150.631 70.1786 150.42 70.7446C150.562 70.8733 150.71 70.9695 150.852 71.0982C151.729 70.3585 152.665 69.6638 153.516 68.8855C158.549 64.0989 162.866 58.7014 167.1 53.2201C167.273 53.0177 167.368 52.6991 167.592 52.5742C168.047 52.2918 168.554 52.0869 169.029 51.8757C168.896 52.3893 168.878 52.9927 168.565 53.4038C165.553 57.4032 162.49 61.3252 159.504 65.3633C158.73 66.4266 158.265 67.786 157.666 68.9842C157.807 69.1129 157.923 69.2028 158.065 69.3315C158.782 68.7293 159.551 68.2046 160.185 67.5186C163.961 63.3643 167.936 59.3836 171.332 54.9531C173.704 51.8408 175.323 48.1437 177.11 44.6141C182.471 34.1938 187.87 23.7473 194.576 14.128C196.902 10.5683 199.846 7.43226 202.7 4.24497C203.333 3.55903 204.802 2.86686 205.477 3.16673C206.776 3.689 206.126 5.14709 205.679 6.07166C203.747 10.1798 201.918 14.4429 199.567 18.3011C195.433 24.9818 191.088 31.5538 186.51 37.9459C182.924 43.0136 178.816 47.6764 175.049 52.6417C173.84 54.2272 172.787 56.0451 171.964 57.8743C168.674 65.191 165.5 72.5976 162.3 79.9655C162.045 80.5902 161.881 81.2662 161.544 82.3132C164.668 81.1675 167.478 80.2642 170.191 79.1734C175.495 77.1031 180.755 74.9229 186.027 72.8464C186.425 72.6877 186.952 72.8914 187.408 72.9463C187.101 73.3249 186.865 73.8522 186.468 74.0109C181.972 75.8675 177.476 77.7241 172.928 79.5033C169.355 80.8989 165.743 82.152 162.132 83.4052C161.028 83.7638 160.439 84.391 160.058 85.4967C157.297 93.6918 154.447 101.836 151.654 110.024C151.59 110.181 151.501 110.298 151.335 110.637C149.439 110.099 147.567 109.432 145.614 109.019C136.988 107.072 128.401 105.099 119.732 103.38C115.04 102.468 110.235 101.971 105.467 101.449C104.163 101.297 102.79 101.67 101.5 101.959C88.2669 105.016 75.067 108.417 61.7685 111.125C49.8627 113.53 37.8071 115.332 25.7769 117.005C19.1647 117.911 12.416 118.318 5.74497 116.954C5.58431 116.923 5.42364 116.892 5.26298 116.86C0.320265 115.697 -0.71219 112.26 2.67264 108.4C5.44972 105.266 9.16994 103.797 12.9292 102.472C15.7582 101.471 18.7106 100.865 21.5597 100.104C21.5591 99.9356 21.5907 99.7731 21.5327 99.7282C18.1579 96.8469 17.5448 93.997 19.8561 89.8276C24.5234 81.4302 31.473 75.7016 40.6676 73.0053C42.2973 72.5131 44.2758 72.628 45.9662 73.0241C48.1644 73.5526 49.1213 75.4918 48.7761 77.9532C48.2363 81.7589 46.0428 84.6364 43.2957 87.1028C39.6136 90.4325 35.1882 92.2691 30.3674 93.0512C29.886 93.1262 29.3329 92.8838 28.8187 92.7838C29.2417 92.4952 29.6061 91.993 30.0554 91.9117C33.8806 91.1046 37.5245 89.8577 40.741 87.55C43.2591 85.7471 45.1977 83.4944 46.6274 80.7719C47.0935 79.9185 47.3214 78.9177 47.5109 77.9432C47.8571 75.8191 46.7281 74.2511 44.582 73.9687C41.5236 73.5763 38.7399 74.6871 36.1111 76.0302C30.2762 78.9413 25.3701 83.0782 21.8692 88.7356C20.7064 90.5998 19.7496 92.6051 19.9949 94.9453C20.1812 96.9032 21.1227 98.0639 22.9869 98.5949C25.9506 99.4745 28.8197 98.9536 31.7073 98.1664C39.9653 95.8275 47.0668 91.3758 53.5482 85.8259C53.6251 85.7734 53.6503 85.6435 53.7014 85.5523C50.2334 79.7199 52.6682 74.0574 56.5196 69.5133C58.3814 67.313 60.8479 65.4327 63.3608 63.9996C68.3097 61.1859 71.5568 62.3229 74.5491 68.0291C74.8751 67.553 75.0726 67.052 75.4312 66.7509C81.7203 61.3321 87.9194 55.8621 94.3439 50.6046C97.4761 48.0445 100.95 45.9555 104.327 43.679C104.597 43.4953 105.085 43.5566 105.457 43.5278C105.343 43.9439 105.377 44.4562 105.121 44.7435C99.7257 50.5384 94.163 56.1658 88.9096 62.0893C82.2869 69.5672 75.9154 77.2961 69.4344 84.9027C69.2616 85.1051 69.1469 85.3525 69.2002 85.936C70.5728 85.3937 72.0034 84.8964 73.3307 84.2442C76.5689 82.6825 79.067 80.6397 80.7636 77.0588C83.3023 71.72 87.74 67.7618 92.6942 64.5782C95.8923 62.5367 99.1811 60.715 103.143 60.5751C107.035 60.4552 108.983 63.1265 107.653 66.8798C106.476 70.1908 104.269 72.7959 101.72 75.0986C98.1151 78.3758 94.0705 80.8259 89.1592 81.3881C88.0678 81.5131 86.9362 81.1582 85.8437 80.9458C85.6509 80.9083 85.5592 80.3511 85.3911 80.015C85.7119 79.9088 86.0131 79.7314 86.3471 79.7289C88.1644 79.6439 90.1182 80.0575 91.7605 79.5003C98.2082 77.3825 103.108 73.2781 106.183 67.066C106.502 66.4537 106.648 65.7066 106.716 65.0119C106.891 63.4276 106.103 62.1619 104.555 62.0632C102.91 61.9458 101.125 62.0369 99.5854 62.5804C91.5734 65.5403 85.5219 70.9378 81.3654 78.4232C80.7013 79.6089 80.3334 80.987 80.0038 82.3389C79.3011 85.4387 80.9465 87.7814 84.1823 87.4329C87.4502 87.0905 90.7876 86.3909 93.7957 85.1552C101.088 82.1229 106.973 76.8953 112.156 70.9917C119.464 62.7368 126.52 54.2306 133.692 45.8145C133.781 45.697 133.813 45.5346 133.985 45.1635C132.658 45.8157 131.562 46.4792 130.355 46.8515C129.611 47.0776 128.391 47.1776 127.972 46.759C127.476 46.2243 127.305 45.0448 127.431 44.2264C127.684 42.927 128.296 41.6638 128.78 40.3757C128.67 40.2532 128.561 40.1308 128.425 39.9696C127.528 40.4694 126.495 40.808 125.765 41.4751C122.32 44.615 118.901 47.7935 115.572 51.0233C114.304 52.2265 113.255 53.6746 112.046 54.9227C111.796 55.1776 111.289 55.2138 110.897 55.34C110.973 54.9502 110.901 54.4642 111.112 54.2355C112.967 52.0678 114.797 49.8613 116.82 47.861C119.451 45.3046 122.224 42.877 124.991 40.4818C125.798 39.7622 126.804 39.2162 127.811 38.8388C128.382 38.6464 129.301 38.7239 129.732 39.0775C130.08 39.3474 130.128 40.3007 129.989 40.8467C129.767 41.815 129.205 42.6496 128.919 43.6055C128.728 44.2427 128.73 44.9174 128.637 45.9107C129.709 45.5458 130.498 45.4296 131.107 45.0423C133.844 43.3156 136.549 41.5827 139.208 39.7398C142.027 37.7594 144.769 35.6629 147.563 33.6438C147.8 33.4539 148.269 33.6126 148.667 33.6226C148.527 33.9999 148.465 34.4934 148.189 34.7096C146.78 35.7841 145.377 36.8261 143.896 37.7519C139.019 40.883 135.579 45.5409 131.842 49.8377C124.842 57.8827 118.074 66.1077 110.907 73.9854C105.858 79.5441 99.9902 84.1682 92.8636 86.8619C90.6698 87.6828 88.3791 88.3162 86.0551 88.6061C81.2338 89.2195 79.4695 87.8314 78.2525 82.9424C76.0276 84.0943 73.8091 85.2138 71.5906 86.3333C71.2957 86.4782 70.9818 86.7206 70.6799 86.7294C67.1286 86.8143 65.307 89.4943 63.195 91.7808C62.9838 92.0094 62.7858 92.3418 62.523 92.4929C62.1512 92.6904 61.7018 92.7716 61.3042 92.9302C61.3863 92.5079 61.3846 92.0019 61.6021 91.7408C62.5106 90.67 63.477 89.6442 64.661 88.3573C64.0378 88.3036 63.6907 88.2024 63.3825 88.2436C60.6155 88.5822 57.9812 88.2386 55.421 86.9991C54.9642 86.7755 54.0214 87.1653 53.4831 87.5326C49.8431 89.9603 46.3001 92.5753 42.6342 94.9642C40.9167 96.0799 38.9668 96.8471 37.1597 98.0803C39.2466 97.9803 41.3141 97.8091 43.4143 97.8129C53.4974 97.7505 63.5863 97.4869 73.6578 97.8269C83.3955 98.1693 93.129 99.2189 102.855 99.7949C104.467 99.9061 106.186 99.2964 107.777 98.8304C124.607 93.7415 141.417 88.5815 158.253 83.4602C159.491 83.0941 159.912 82.2994 160.39 81.2124C163.354 74.2031 166.343 67.2325 169.332 60.262C169.466 59.9171 169.568 59.566 169.386 58.9575C168.285 60.1595 167.21 61.4002 166.11 62.6021C163.914 64.9735 161.719 67.345 159.492 69.7101C159.236 69.9975 158.916 70.2724 158.589 70.4111C158.018 70.6035 157.222 70.9208 156.798 70.7034C156.405 70.4922 156.377 69.6101 156.259 69.0142C156.22 68.7031 156.347 68.3907 156.416 67.696C155.186 68.873 154.2 69.8275 153.182 70.7758C152.574 71.3318 151.953 71.9528 151.254 72.2889C150.741 72.5263 149.836 72.5525 149.462 72.2439C149.082 71.9678 148.867 71.0157 149.032 70.5084C149.388 69.364 149.995 68.3019 150.505 67.2212C150.671 66.8826 150.831 66.5765 150.733 66.0517C149.44 67.3849 148.185 68.6918 146.892 70.0249C145.529 71.378 144.249 72.8149 142.718 74.0006C142.013 74.5378 140.666 74.9501 140.029 74.624C138.877 74.0293 139.432 72.7211 139.936 71.8415C140.913 70.0761 142.07 68.4131 142.969 66.5314C142.432 67.0675 141.888 67.6359 141.35 68.1719C138.687 70.8907 136.114 73.6607 133.406 76.2695C131.562 78.0349 130.329 78.0312 128.893 76.8417C127.489 77.715 126.176 78.6396 124.778 79.3118C124.117 79.6217 123.026 79.7466 122.556 79.4192C122.06 79.0532 121.69 77.8687 121.907 77.2702C122.817 74.6489 123.983 72.0776 125.054 69.4875C125.946 67.301 127.024 65.1844 127.666 62.9155C128.275 60.8089 127.773 60.4753 125.655 60.7377C125.276 60.7989 124.844 60.4453 124.471 60.3054C124.721 60.0505 124.9 59.6469 125.182 59.567C129.789 58.1701 133.169 54.8492 136.55 51.6969C140.827 47.7074 144.756 43.2795 148.981 39.2126C151.568 36.715 154.412 34.436 157.25 32.1895C158.153 31.4886 159.397 31.0901 160.546 30.8414C161.868 30.5591 162.841 31.3887 162.486 32.7019C162.016 34.4311 161.109 36.0078 160.325 37.6421C160.261 37.7983 159.792 37.8083 159.484 37.8495C159.483 37.5122 159.359 37.1173 159.481 36.8375C159.965 35.718 160.539 34.6497 160.985 33.5565C161.119 33.2116 161.111 32.5694 160.917 32.3632C160.692 32.1508 160.024 32.1558 159.755 32.3395C157.858 33.5215 155.819 34.5747 154.218 36.1178C148.853 41.2442 143.771 46.6279 138.38 51.7156C135.685 54.2594 132.654 56.4684 129.739 58.7674C128.996 59.3309 128.689 59.7094 128.988 60.7452C129.845 63.5415 128.195 65.8504 127.131 68.2393C126.251 70.1922 125.094 72.0239 124.214 73.9767C123.634 75.2461 123.363 76.643 122.969 77.9824C123.194 78.0261 123.374 78.1286 123.58 78.2698ZM99.2428 101.048C99.2038 100.906 99.1648 100.763 99.1579 100.627C96.9929 100.442 94.8279 100.257 92.6503 100.137C82.9121 99.6261 73.1476 98.9076 63.4168 98.7014C56.1139 98.5289 48.8258 98.9662 41.505 99.2285C31.8723 99.5471 22.3515 100.663 13.158 103.696C9.55886 104.885 6.06988 106.364 3.543 109.412C1.0672 112.37 1.76813 114.596 5.49611 115.49C5.65678 115.521 5.81744 115.552 5.9781 115.583C12.4311 117.04 18.929 116.551 25.3616 115.711C36.2815 114.26 47.1687 112.635 58.0032 110.595C68.4589 108.616 78.7971 106.041 89.1938 103.679C92.518 102.876 95.8738 101.91 99.2428 101.048ZM108.758 100.134C110.461 100.465 112.113 100.887 113.803 101.114C125.876 102.653 137.816 104.873 149.364 108.77C150.431 109.112 150.648 108.682 150.947 107.83C153.472 100.5 156.062 93.182 158.588 85.8516C158.683 85.533 158.689 85.1631 158.733 84.9357C142.038 90.0171 125.414 95.0784 108.758 100.134ZM55.1636 84.8926C61.0613 79.6 66.799 74.4449 72.5171 69.2185C72.8052 68.9374 72.8477 68.204 72.7371 67.7442C71.9043 64.4807 69.2408 63.0863 65.8408 64.2795C60.0737 66.3272 56.2596 70.5078 54.0302 76.1428C52.9155 78.9602 52.8928 81.8215 55.1636 84.8926ZM177.255 47.6427C177.671 47.2179 177.991 46.943 178.253 46.6232C180.518 43.7257 182.782 40.8283 184.988 37.8859C191.714 28.8438 197.881 19.4231 203.006 9.36141C203.752 7.92207 204.197 6.32279 204.923 4.47488C199.408 7.11115 178.323 40.2648 177.255 47.6427ZM70.0212 81.7129C79.8176 70.6042 89.4028 59.7242 99.0201 48.8504C98.1284 49.149 97.4173 49.7187 96.7 50.321C90.3914 55.6685 84.1086 61.0548 77.7225 66.2861C75.423 68.1653 73.6635 70.1831 73.2626 73.2742C73.131 74.2937 72.6397 75.277 72.2512 76.2466C71.5503 77.9646 70.8495 79.6825 70.0212 81.7129ZM72.5065 71.8461C72.3584 71.7499 72.2104 71.6537 72.056 71.5899C66.7792 76.2616 61.5024 80.9332 56.1103 85.6835C58.9809 87.5564 61.947 87.2228 64.8482 86.7081C65.6057 86.5856 66.509 85.8847 66.8792 85.1813C68.0598 82.8823 69.086 80.5196 70.0865 78.1182C70.9211 76.0554 71.6977 73.9476 72.5065 71.8461Z" fill="#391479" fill-opacity="0.2" style="mix-blend-mode:multiply"/>
</g>
<defs>
<linearGradient id="paint0_linear_2045_812" x1="117.529" y1="-13.9516" x2="88.933" y2="133.13" gradientUnits="userSpaceOnUse">
<stop stop-color="#0C8DCE"/>
<stop offset="0.505" stop-color="#38AFEB"/>
<stop offset="1" stop-color="#0E82BC"/>
</linearGradient>
</defs>
</svg>
