<svg width="20" height="21" viewBox="0 0 20 21" fill="none" xmlns="http://www.w3.org/2000/svg">
<path d="M19.4959 9.68353L15.4757 13.1525L16.7005 18.3403C16.7681 18.622 16.7507 18.9173 16.6505 19.189C16.5503 19.4608 16.3718 19.6967 16.1376 19.8671C15.9034 20.0374 15.624 20.1346 15.3346 20.1462C15.0452 20.1578 14.7588 20.0834 14.5117 19.9323L10.0002 17.1557L5.48595 19.9323C5.23886 20.0825 4.95287 20.1562 4.66399 20.1442C4.3751 20.1321 4.09623 20.0349 3.8625 19.8647C3.62878 19.6945 3.45064 19.4589 3.35051 19.1877C3.25039 18.9164 3.23277 18.6216 3.29985 18.3403L4.52914 13.1525L0.508946 9.68353C0.290335 9.49459 0.132231 9.24543 0.05438 8.96717C-0.0234711 8.68891 -0.0176192 8.39388 0.0712046 8.11893C0.160028 7.84397 0.327888 7.60128 0.553819 7.42116C0.77975 7.24104 1.05374 7.13147 1.34157 7.10613L6.6125 6.68089L8.64582 1.76017C8.75588 1.49199 8.9432 1.2626 9.18396 1.10116C9.42473 0.939717 9.70806 0.853516 9.99795 0.853516C10.2878 0.853516 10.5712 0.939717 10.8119 1.10116C11.0527 1.2626 11.24 1.49199 11.3501 1.76017L13.3825 6.68089L18.6534 7.10613C18.9418 7.13053 19.2166 7.23948 19.4434 7.41936C19.6701 7.59923 19.8388 7.84202 19.9281 8.11731C20.0175 8.39259 20.0237 8.68814 19.9458 8.9669C19.868 9.24567 19.7096 9.49527 19.4905 9.68442L19.4959 9.68353Z" fill="#222222"/>
</svg>
