<svg width="41" height="37" viewBox="0 0 41 37" fill="none" xmlns="http://www.w3.org/2000/svg">
<path d="M37.2854 17.5109H36.0425V15.7852C35.1804 -5.07908 5.44536 -5.0798 4.5825 15.7852V17.5109H3.33964C2.53715 17.5117 1.76773 17.8307 1.20022 18.3981C0.632702 18.9655 0.313446 19.7349 0.3125 20.5373V24.2516C0.313634 25.0541 0.632951 25.8233 1.20043 26.3906C1.7679 26.958 2.53721 27.2771 3.33964 27.2781H4.5825V30.7738C4.58363 31.7665 4.97849 32.7182 5.68043 33.4201C6.38237 34.1221 7.33409 34.5169 8.32679 34.5181H14.7018C14.8372 34.9521 15.1075 35.3316 15.4733 35.6016C15.8391 35.8716 16.2814 36.018 16.7361 36.0195H19.7482C22.5961 35.9566 22.5939 31.6488 19.7482 31.5881H16.7361C16.2814 31.5896 15.8391 31.736 15.4733 32.006C15.1075 32.2759 14.8372 32.6555 14.7018 33.0895H8.32679C7.71285 33.0887 7.12428 32.8445 6.69016 32.4104C6.25605 31.9763 6.01183 31.3877 6.01107 30.7738V29.1552C7.99607 30.4281 10.9175 29.0559 10.8725 26.5952V18.1945C10.8704 17.7773 10.7827 17.365 10.6149 16.9831C10.4471 16.6012 10.2028 16.2577 9.89694 15.974C9.59111 15.6902 9.23034 15.4723 8.83692 15.3335C8.4435 15.1948 8.02579 15.1382 7.60964 15.1673C7.04646 15.1692 6.49518 15.3296 6.01893 15.6302C6.05658 11.8641 7.57909 8.26497 10.2556 5.61512C12.932 2.96527 16.5462 1.47881 20.3125 1.47881C24.0788 1.47881 27.693 2.96527 30.3694 5.61512C33.0459 8.26497 34.5684 11.8641 34.6061 15.6302C34.1298 15.3296 33.5785 15.1692 33.0154 15.1673C32.5992 15.1382 32.1815 15.1948 31.7881 15.3335C31.3947 15.4723 31.0339 15.6902 30.7281 15.974C30.4222 16.2577 30.1779 16.6012 30.0101 16.9831C29.8423 17.365 29.7546 17.7773 29.7525 18.1945V26.5945C29.7832 27.3493 30.0835 28.0681 30.599 28.6204C31.1144 29.1727 31.8108 29.5218 32.5617 29.6045C33.3126 29.6871 34.0683 29.4977 34.6915 29.0707C35.3147 28.6437 35.7641 28.0074 35.9582 27.2773H37.2854C38.0877 27.2764 38.8569 26.9574 39.4243 26.3902C39.9918 25.823 40.3112 25.0539 40.3125 24.2516V20.5373C40.3116 19.7349 39.9923 18.9655 39.4248 18.3981C38.8573 17.8307 38.0879 17.5117 37.2854 17.5109ZM4.5825 25.8495H3.33964C2.91592 25.8491 2.50964 25.6807 2.20995 25.3811C1.91026 25.0816 1.74164 24.6754 1.74107 24.2516V20.5373C1.74164 20.1136 1.91026 19.7074 2.20995 19.4079C2.50964 19.1083 2.91592 18.9399 3.33964 18.9395H4.5825V25.8495ZM16.7361 33.0166H19.7482C19.8542 33.0189 19.9585 33.0439 20.0539 33.09C20.1494 33.1361 20.2339 33.2021 20.3016 33.2837C20.3693 33.3652 20.4187 33.4603 20.4465 33.5626C20.4743 33.665 20.4797 33.772 20.4625 33.8766C20.4625 34.0661 20.3872 34.2478 20.2533 34.3817C20.1193 34.5157 19.9377 34.5909 19.7482 34.5909H16.7361C16.6301 34.5885 16.5259 34.5634 16.4305 34.5173C16.3351 34.4712 16.2507 34.4052 16.183 34.3237C16.1153 34.2421 16.0659 34.147 16.0381 34.0448C16.0102 33.9425 16.0047 33.8355 16.0218 33.7309C16.022 33.5415 16.0973 33.36 16.2312 33.226C16.3651 33.0921 16.5467 33.0168 16.7361 33.0166ZM7.60964 16.5945C7.8375 16.5661 8.06877 16.5862 8.28836 16.6533C8.50795 16.7204 8.71092 16.833 8.88402 16.9839C9.05712 17.1347 9.19645 17.3204 9.29293 17.5287C9.38941 17.7371 9.44086 17.9635 9.44393 18.1931V26.5945C9.42607 28.7273 6.02964 28.7302 6.01107 26.5945C6.00536 26.5831 6.01464 18.2438 6.01107 18.2245C6.00728 18.012 6.04581 17.8009 6.12441 17.6035C6.20301 17.4061 6.32011 17.2263 6.46889 17.0746C6.61768 16.9229 6.79516 16.8023 6.99101 16.7199C7.18686 16.6375 7.39715 16.5948 7.60964 16.5945ZM34.6139 26.5945C34.6109 26.8241 34.5594 27.0504 34.4629 27.2588C34.3665 27.4672 34.2271 27.6528 34.054 27.8037C33.8809 27.9545 33.6779 28.0672 33.4584 28.1343C33.2388 28.2014 33.0075 28.2214 32.7796 28.1931C32.3558 28.1927 31.9494 28.0241 31.6497 27.7244C31.35 27.4247 31.1814 27.0183 31.1811 26.5945V18.1945C31.1814 17.7706 31.35 17.3643 31.6497 17.0645C31.9494 16.7648 32.3558 16.5963 32.7796 16.5959C33.0101 16.5673 33.2441 16.5881 33.4658 16.657C33.6876 16.726 33.8921 16.8415 34.0657 16.9957C34.2393 17.15 34.378 17.3395 34.4726 17.5517C34.5671 17.7638 34.6153 17.9937 34.6139 18.2259C34.6139 18.2259 34.6189 26.5659 34.6139 26.5959V26.5945ZM38.8839 24.2516C38.8837 24.6756 38.7153 25.0822 38.4156 25.382C38.1158 25.6819 37.7093 25.8505 37.2854 25.8509H36.0425C36.0446 24.1723 36.0411 20.5916 36.0425 18.9402H37.2854C37.709 18.9406 38.1151 19.1089 38.4148 19.4083C38.7145 19.7077 38.8832 20.1137 38.8839 20.5373V24.2516Z" fill="#FF9549"/>
<path d="M20.3125 9.66734C18.9542 9.66602 17.6264 10.0696 16.4986 10.8266C15.3708 11.5836 14.4942 12.6597 13.981 13.9172C13.4677 15.1748 13.3409 16.5568 13.6169 17.8868C13.8929 19.2168 14.5591 20.4343 15.5304 21.3838V25.3838C15.5325 25.5236 15.5754 25.6598 15.6538 25.7757C15.7322 25.8915 15.8426 25.982 15.9716 26.0361C16.1006 26.0901 16.2426 26.1054 16.3802 26.08C16.5177 26.0546 16.6449 25.9896 16.7461 25.8931L19.4011 23.2802C20.3293 23.4055 21.2733 23.3387 22.1746 23.084C23.0759 22.8294 23.9153 22.3922 24.6406 21.7997C25.366 21.2073 25.9619 20.4721 26.3914 19.6397C26.8209 18.8074 27.0748 17.8957 27.1374 16.9612C27.2 16.0267 27.0699 15.0893 26.7552 14.2072C26.4405 13.325 25.9479 12.517 25.308 11.8331C24.668 11.1492 23.8944 10.604 23.0351 10.2315C22.1758 9.85895 21.2491 9.66693 20.3125 9.66734ZM19.2932 21.8145C19.1796 21.793 19.0624 21.7994 18.9517 21.833C18.841 21.8665 18.7401 21.9264 18.6575 22.0073L16.9589 23.6788V21.0731C16.959 20.9724 16.9377 20.8729 16.8966 20.7811C16.8555 20.6893 16.7954 20.6072 16.7204 20.5402C16.1504 20.0334 15.6939 19.4119 15.3808 18.7164C15.0676 18.021 14.9049 17.2672 14.9032 16.5045C15.1561 9.34734 25.4682 9.34591 25.7218 16.5045C25.7225 17.3013 25.5469 18.0885 25.2076 18.8095C24.8684 19.5305 24.3738 20.1676 23.7594 20.675C23.145 21.1824 22.426 21.5476 21.6538 21.7445C20.8817 21.9414 20.0756 21.9658 19.2932 21.8145Z" fill="#FF9549"/>
<path d="M17.7382 15.8809C17.5393 15.8809 17.3485 15.9599 17.2079 16.1006C17.0672 16.2412 16.9882 16.432 16.9882 16.6309C16.9882 16.8298 17.0672 17.0206 17.2079 17.1612C17.3485 17.3019 17.5393 17.3809 17.7382 17.3809C17.9371 17.3809 18.1279 17.3019 18.2685 17.1612C18.4092 17.0206 18.4882 16.8298 18.4882 16.6309C18.4882 16.432 18.4092 16.2412 18.2685 16.1006C18.1279 15.9599 17.9371 15.8809 17.7382 15.8809ZM20.3125 15.8809C20.1136 15.8809 19.9228 15.9599 19.7822 16.1006C19.6415 16.2412 19.5625 16.432 19.5625 16.6309C19.5625 16.8298 19.6415 17.0206 19.7822 17.1612C19.9228 17.3019 20.1136 17.3809 20.3125 17.3809C20.5114 17.3809 20.7022 17.3019 20.8428 17.1612C20.9835 17.0206 21.0625 16.8298 21.0625 16.6309C21.0625 16.432 20.9835 16.2412 20.8428 16.1006C20.7022 15.9599 20.5114 15.8809 20.3125 15.8809ZM22.8868 15.8809C22.6879 15.8809 22.4971 15.9599 22.3565 16.1006C22.2158 16.2412 22.1368 16.432 22.1368 16.6309C22.1368 16.8298 22.2158 17.0206 22.3565 17.1612C22.4971 17.3019 22.6879 17.3809 22.8868 17.3809C23.0857 17.3809 23.2765 17.3019 23.4171 17.1612C23.5578 17.0206 23.6368 16.8298 23.6368 16.6309C23.6368 16.432 23.5578 16.2412 23.4171 16.1006C23.2765 15.9599 23.0857 15.8809 22.8868 15.8809Z" fill="#FF9549"/>
</svg>
