<svg width="41" height="28" viewBox="0 0 41 28" fill="none" xmlns="http://www.w3.org/2000/svg">
<path d="M38.459 10.7781L36.114 8.90188L36.0858 8.8775L38.269 8.44062C38.4106 8.41241 38.538 8.33593 38.6296 8.22423C38.7211 8.11253 38.771 7.97253 38.7708 7.82812V5.95312C38.7708 5.78736 38.705 5.62839 38.5878 5.51118C38.4706 5.39397 38.3116 5.32812 38.1458 5.32812H35.0208C34.8551 5.32812 34.6961 5.39397 34.5789 5.51118C34.4617 5.62839 34.3958 5.78736 34.3958 5.95312V7.04813L34.3527 6.99C34.313 6.88387 34.2444 6.79098 34.1546 6.72187C33.8027 6.22375 33.5015 5.725 33.3052 5.29375L32.249 2.97062C31.5758 1.48875 29.7733 0.328125 28.1458 0.328125H13.1458C11.5183 0.328125 9.71584 1.48875 9.04272 2.97062L7.98709 5.29313C7.79084 5.72438 7.48959 6.22375 7.13772 6.72187C7.04809 6.79114 6.97949 6.88398 6.93959 6.99L6.89647 7.04813V5.95312C6.89647 5.78736 6.83062 5.62839 6.71341 5.51118C6.5962 5.39397 6.43723 5.32812 6.27147 5.32812H3.14584C2.98008 5.32812 2.82111 5.39397 2.7039 5.51118C2.58669 5.62839 2.52084 5.78736 2.52084 5.95312V7.82812C2.52084 8.12625 2.73084 8.3825 3.02334 8.44062L5.20647 8.8775L5.17834 8.90188L2.83272 10.7781C1.60647 11.7594 0.645844 13.7581 0.645844 15.3281V25.9531C0.645844 26.9869 1.48709 27.8281 2.52084 27.8281H7.52084C8.55459 27.8281 9.39584 26.9869 9.39584 25.9531V24.7031H31.8958V25.9531C31.8958 26.9869 32.7371 27.8281 33.7708 27.8281H38.7708C39.8046 27.8281 40.6458 26.9869 40.6458 25.9531V15.3281C40.6458 13.7581 39.6852 11.7594 38.459 10.7781ZM32.7796 23.4531L31.3465 22.02C30.7383 21.4119 29.6308 20.9531 28.7708 20.9531H12.2083C11.3483 20.9531 10.2408 21.4119 9.63272 22.02L8.19959 23.4531H3.77084C2.73709 23.4531 1.89584 22.6119 1.89584 21.5781V18.4531H2.52084V19.0781C2.52084 20.4569 3.64209 21.5781 5.02084 21.5781H6.89584C7.0616 21.5781 7.22057 21.5123 7.33779 21.3951C7.455 21.2779 7.52084 21.1189 7.52084 20.9531C7.52084 20.7874 7.455 20.6284 7.33779 20.5112C7.22057 20.394 7.0616 20.3281 6.89584 20.3281H5.02084C4.33147 20.3281 3.77084 19.7675 3.77084 19.0781V18.4531H5.02084C5.53959 18.4531 6.34584 18.7869 6.71272 19.1537C6.77063 19.212 6.83948 19.2582 6.91531 19.2897C6.99114 19.3213 7.07246 19.3375 7.15459 19.3375C7.23672 19.3375 7.31804 19.3213 7.39388 19.2897C7.46971 19.2582 7.53856 19.212 7.59647 19.1537C7.65456 19.0958 7.70065 19.0269 7.73209 18.9511C7.76353 18.8752 7.77972 18.794 7.77972 18.7119C7.77972 18.6298 7.76353 18.5485 7.73209 18.4727C7.70065 18.3969 7.65456 18.328 7.59647 18.27C6.98834 17.6619 5.88147 17.2031 5.02084 17.2031H1.89584V15.3281C1.89584 15.1075 1.93084 14.8694 1.98022 14.6262C2.38022 15.0437 2.96209 15.3281 3.77084 15.3281H8.77084C8.93659 15.3281 9.09554 15.2622 9.21272 15.145L10.0208 14.3369L10.829 15.145C10.8869 15.2031 10.9558 15.2492 11.0316 15.2806C11.1075 15.3121 11.1888 15.3282 11.2708 15.3281H18.5121L20.204 17.02C20.2619 17.0782 20.3307 17.1245 20.4066 17.156C20.4824 17.1875 20.5637 17.2038 20.6458 17.2038C20.728 17.2038 20.8093 17.1875 20.8851 17.156C20.961 17.1245 21.0298 17.0782 21.0877 17.02L22.7796 15.3281H30.0208C30.1865 15.3281 30.3458 15.2625 30.4627 15.145L31.2708 14.3369L32.079 15.145C32.1369 15.2031 32.2058 15.2492 32.2816 15.2806C32.3575 15.3121 32.4388 15.3282 32.5208 15.3281H37.5208C38.3296 15.3281 38.9115 15.0437 39.3115 14.6262C39.3608 14.8694 39.3958 15.1075 39.3958 15.3281V17.2031H36.2708C35.4108 17.2031 34.3033 17.6619 33.6952 18.27C33.6372 18.328 33.5912 18.3969 33.5598 18.4727C33.5284 18.5486 33.5122 18.6298 33.5122 18.7119C33.5122 18.7939 33.5284 18.8752 33.5598 18.951C33.5912 19.0268 33.6372 19.0957 33.6952 19.1537C33.7532 19.2118 33.8221 19.2578 33.898 19.2892C33.9738 19.3206 34.055 19.3368 34.1371 19.3368C34.2192 19.3368 34.3004 19.3206 34.3762 19.2892C34.452 19.2578 34.5209 19.2118 34.579 19.1537C34.9458 18.7869 35.7521 18.4531 36.2708 18.4531H37.5208V19.0781C37.5208 19.7675 36.9602 20.3281 36.2708 20.3281H34.3958C34.2301 20.3281 34.0711 20.394 33.9539 20.5112C33.8367 20.6284 33.7708 20.7874 33.7708 20.9531C33.7708 21.1189 33.8367 21.2779 33.9539 21.3951C34.0711 21.5123 34.2301 21.5781 34.3958 21.5781H36.2708C37.6496 21.5781 38.7708 20.4569 38.7708 19.0781V18.4531H39.3958V21.5781C39.3958 22.6119 38.5546 23.4531 37.5208 23.4531H32.7796ZM31.0121 23.4531H9.96709L10.5165 22.9037C10.8833 22.5369 11.6896 22.2031 12.2083 22.2031H28.7708C29.2896 22.2031 30.0958 22.5369 30.4627 22.9037L31.0121 23.4531ZM7.87084 7.82812H33.4208C34.0265 8.62875 34.7183 9.38625 35.3327 9.87813L36.0846 10.4794L31.664 12.2475L31.6627 12.2481C31.5848 12.2795 31.514 12.3263 31.4546 12.3856L29.7621 14.0781H22.5208C22.4388 14.078 22.3575 14.0942 22.2816 14.1256C22.2058 14.157 22.1369 14.2031 22.079 14.2612L20.6458 15.6944L19.2127 14.2612C19.1548 14.2031 19.0859 14.157 19.0101 14.1256C18.9342 14.0942 18.8529 14.078 18.7708 14.0781H11.5296L9.83772 12.3862C9.77828 12.3269 9.70749 12.2801 9.62959 12.2487L9.62834 12.2481L5.20772 10.48L5.95959 9.87875C6.57334 9.38625 7.26522 8.62875 7.87084 7.82812ZM38.734 13.09C38.6083 13.7431 38.2033 14.0781 37.5208 14.0781H32.7796L32.1546 13.4531L32.2471 13.3606L37.2065 11.3769L37.6777 11.7544C38.074 12.0712 38.4396 12.5531 38.734 13.09ZM35.6458 6.57812H37.5208V7.31563L35.6458 7.69063V6.57812ZM9.12397 5.81062L10.1796 3.48812C10.6508 2.4525 12.009 1.57812 13.1458 1.57812H28.1458C29.2827 1.57812 30.6408 2.4525 31.1115 3.4875L32.1677 5.81062C32.2777 6.05187 32.4208 6.3125 32.5777 6.57812H8.71397C8.87084 6.3125 9.01459 6.05187 9.12397 5.81062ZM3.77084 6.57812H5.64584V7.69063L3.77084 7.31563V6.57812ZM3.61334 11.7544L4.08459 11.3769L9.04459 13.3606L9.13709 13.4531L8.51209 14.0781H3.77084C3.08834 14.0781 2.68334 13.7431 2.55772 13.09C2.85209 12.5531 3.21709 12.0712 3.61334 11.7544ZM7.52084 26.5781H2.52084C2.17647 26.5781 1.89584 26.2975 1.89584 25.9531V24.0625C2.4338 24.4757 3.09254 24.7007 3.77084 24.7031H8.14584V25.9531C8.14584 26.2975 7.86522 26.5781 7.52084 26.5781ZM38.7708 26.5781H33.7708C33.4265 26.5781 33.1458 26.2975 33.1458 25.9531V24.7031H37.5208C38.2271 24.7031 38.8721 24.4587 39.3958 24.0625V25.9531C39.3958 26.2975 39.1152 26.5781 38.7708 26.5781Z" fill="#FF9549"/>
</svg>
