<svg width="132" height="117" viewBox="0 0 132 117" fill="none" xmlns="http://www.w3.org/2000/svg">
<path d="M121.899 56.6506H117.828V51.0237C115.005 -17.0067 17.6226 -17.0091 14.7967 51.0237V56.6506H10.7264C8.09823 56.6531 5.57839 57.6935 3.71977 59.5435C1.86116 61.3935 0.815597 63.902 0.8125 66.5186V78.6295C0.816214 81.2459 1.86198 83.7541 3.72046 85.604C5.57893 87.4539 8.09842 88.4945 10.7264 88.4975H14.7967V99.8957C14.8005 103.133 16.0936 106.236 18.3925 108.524C20.6913 110.813 23.8082 112.101 27.0593 112.104H47.9374C48.381 113.52 49.2661 114.757 50.4641 115.637C51.6621 116.518 53.1107 116.995 54.5997 117H64.4645C73.7912 116.795 73.7842 102.749 64.4645 102.551H54.5997C53.1107 102.556 51.6621 103.033 50.4641 103.913C49.2661 104.794 48.381 106.031 47.9374 107.446H27.0593C25.0487 107.444 23.1211 106.648 21.6993 105.232C20.2776 103.817 19.4778 101.898 19.4753 99.8957V94.6182C25.9762 98.7685 35.5439 94.2944 35.3965 86.271V58.8795C35.3896 57.5193 35.1025 56.1749 34.5529 54.9296C34.0034 53.6842 33.2031 52.5644 32.2015 51.6393C31.2 50.7141 30.0184 50.0034 28.73 49.551C27.4415 49.0986 26.0735 48.9142 24.7106 49.0091C22.8662 49.0151 21.0608 49.5382 19.5011 50.5183C19.6244 38.2384 24.6106 26.5031 33.376 17.863C42.1415 9.22281 53.9778 4.37606 66.3125 4.37606C78.6472 4.37606 90.4835 9.22281 99.249 17.863C108.014 26.5031 113.001 38.2384 113.124 50.5183C111.564 49.5383 109.759 49.0153 107.914 49.0091C106.551 48.9142 105.183 49.0986 103.895 49.551C102.607 50.0034 101.425 50.7141 100.423 51.6393C99.4219 52.5644 98.6216 53.6842 98.0721 54.9296C97.5225 56.1749 97.2354 57.5193 97.2285 58.8795V86.2687C97.329 88.7299 98.3126 91.0736 100.001 92.8744C101.689 94.6752 103.969 95.8136 106.429 96.083C108.888 96.3524 111.363 95.735 113.404 94.3427C115.445 92.9505 116.917 90.8758 117.552 88.4952H121.899C124.526 88.4921 127.045 87.4519 128.904 85.6025C130.762 83.7531 131.808 81.2455 131.812 78.6295V66.5186C131.809 63.902 130.764 61.3935 128.905 59.5435C127.047 57.6935 124.527 56.6531 121.899 56.6506ZM14.7967 83.8395H10.7264C9.33868 83.8383 8.00813 83.289 7.02665 82.3123C6.04518 81.3356 5.49293 80.0111 5.49107 78.6295V66.5186C5.49293 65.137 6.04518 63.8126 7.02665 62.8358C8.00813 61.8591 9.33868 61.3099 10.7264 61.3086H14.7967V83.8395ZM54.5997 107.209H64.4645C64.8115 107.216 65.153 107.298 65.4657 107.448C65.7783 107.598 66.0549 107.814 66.2767 108.079C66.4986 108.345 66.6604 108.656 66.7513 108.989C66.8422 109.323 66.8601 109.672 66.8037 110.013C66.8037 110.631 66.5573 111.223 66.1186 111.66C65.6799 112.097 65.0849 112.342 64.4645 112.342H54.5997C54.2527 112.334 53.9115 112.252 53.599 112.102C53.2865 111.952 53.0101 111.736 52.7884 111.471C52.5666 111.205 52.4048 110.895 52.3137 110.561C52.2226 110.228 52.2044 109.879 52.2604 109.538C52.261 108.92 52.5077 108.328 52.9463 107.892C53.3848 107.455 53.9795 107.209 54.5997 107.209ZM24.7106 53.6625C25.4569 53.5701 26.2143 53.6354 26.9334 53.8541C27.6526 54.0729 28.3173 54.4402 28.8842 54.9321C29.4511 55.424 29.9074 56.0294 30.2234 56.7088C30.5394 57.3881 30.7079 58.1262 30.7179 58.8748V86.2687C30.6594 93.2231 19.5361 93.2324 19.4753 86.2687C19.4566 86.2314 19.487 59.0402 19.4753 58.9773C19.4629 58.2846 19.5891 57.5963 19.8465 56.9526C20.1039 56.3089 20.4874 55.7226 20.9747 55.228C21.462 54.7333 22.0432 54.3402 22.6846 54.0714C23.326 53.8026 24.0147 53.6636 24.7106 53.6625ZM113.15 86.2687C113.14 87.0173 112.971 87.7554 112.655 88.4347C112.339 89.1141 111.883 89.7195 111.316 90.2114C110.749 90.7033 110.084 91.0706 109.365 91.2894C108.646 91.5081 107.889 91.5734 107.142 91.481C105.754 91.4798 104.423 90.9302 103.442 89.953C102.46 88.9758 101.908 87.6507 101.907 86.2687V58.8795C101.908 57.4975 102.46 56.1724 103.442 55.1952C104.423 54.2179 105.754 53.6684 107.142 53.6672C107.897 53.5737 108.663 53.6417 109.39 53.8665C110.116 54.0913 110.786 54.4678 111.354 54.9708C111.923 55.4738 112.377 56.0918 112.687 56.7835C112.996 57.4752 113.154 58.2247 113.15 58.982C113.15 58.982 113.166 86.1755 113.15 86.2733V86.2687ZM127.134 78.6295C127.133 80.0119 126.582 81.3376 125.6 82.3153C124.618 83.2931 123.287 83.8429 121.899 83.8442H117.828C117.835 78.371 117.824 66.6956 117.828 61.311H121.899C123.286 61.3122 124.616 61.8611 125.598 62.8373C126.579 63.8136 127.131 65.1374 127.134 66.5186V78.6295Z" fill="#EDEDED"/>
<path d="M66.3125 31.0757C61.8641 31.0714 57.5154 32.3874 53.8218 34.8557C50.1283 37.324 47.2577 40.8325 45.5767 44.933C43.8957 49.0334 43.4806 53.5398 44.3844 57.8763C45.2883 62.2127 47.47 66.1825 50.651 69.2785V82.321C50.6581 82.777 50.7986 83.2211 51.0552 83.5988C51.3119 83.9766 51.6737 84.2716 52.0962 84.4478C52.5187 84.6241 52.9836 84.6738 53.4341 84.591C53.8846 84.5082 54.301 84.2964 54.6324 83.9816L63.3276 75.4621C66.3674 75.8705 69.459 75.6528 72.4108 74.8224C75.3626 73.992 78.1116 72.5667 80.4872 70.6348C82.8628 68.703 84.8144 66.3058 86.221 63.5919C87.6276 60.878 88.4591 57.9054 88.664 54.8583C88.8689 51.8113 88.4428 48.7548 87.4122 45.8784C86.3816 43.0021 84.7683 40.3673 82.6726 38.1373C80.5769 35.9074 78.0433 34.13 75.229 32.9152C72.4148 31.7005 69.3799 31.0744 66.3125 31.0757ZM62.9743 70.6829C62.6021 70.613 62.2184 70.6336 61.8559 70.7431C61.4934 70.8526 61.1628 71.0477 60.8924 71.3118L55.3296 76.7616V68.2654C55.3297 67.9373 55.2602 67.6129 55.1255 67.3135C54.9909 67.0141 54.7941 66.7464 54.5482 66.528C52.6816 64.8754 51.1866 62.8489 50.1611 60.5813C49.1355 58.3137 48.6026 55.8559 48.5971 53.369C49.4252 30.0323 83.1975 30.0277 84.0279 53.369C84.0302 55.9673 83.4552 58.5338 82.3441 60.8848C81.233 63.2357 79.6133 65.3129 77.6012 66.9674C75.589 68.6219 73.2342 69.8128 70.7054 70.4548C68.1766 71.0967 65.5366 71.1762 62.9743 70.6829Z" fill="#EDEDED"/>
<path d="M57.8817 51.3358C57.2303 51.3358 56.6055 51.5935 56.1449 52.0521C55.6842 52.5107 55.4255 53.1327 55.4255 53.7813C55.4255 54.4299 55.6842 55.0519 56.1449 55.5105C56.6055 55.9691 57.2303 56.2267 57.8817 56.2267C58.5331 56.2267 59.1579 55.9691 59.6185 55.5105C60.0792 55.0519 60.338 54.4299 60.338 53.7813C60.338 53.1327 60.0792 52.5107 59.6185 52.0521C59.1579 51.5935 58.5331 51.3358 57.8817 51.3358ZM66.3125 51.3358C65.6611 51.3358 65.0363 51.5935 64.5757 52.0521C64.115 52.5107 63.8563 53.1327 63.8563 53.7813C63.8563 54.4299 64.115 55.0519 64.5757 55.5105C65.0363 55.9691 65.6611 56.2267 66.3125 56.2267C66.9639 56.2267 67.5887 55.9691 68.0493 55.5105C68.51 55.0519 68.7687 54.4299 68.7687 53.7813C68.7687 53.1327 68.51 52.5107 68.0493 52.0521C67.5887 51.5935 66.9639 51.3358 66.3125 51.3358ZM74.7433 51.3358C74.0918 51.3358 73.4671 51.5935 73.0065 52.0521C72.5458 52.5107 72.287 53.1327 72.287 53.7813C72.287 54.4299 72.5458 55.0519 73.0065 55.5105C73.4671 55.9691 74.0918 56.2267 74.7433 56.2267C75.3947 56.2267 76.0195 55.9691 76.4801 55.5105C76.9408 55.0519 77.1995 54.4299 77.1995 53.7813C77.1995 53.1327 76.9408 52.5107 76.4801 52.0521C76.0195 51.5935 75.3947 51.3358 74.7433 51.3358Z" fill="#EDEDED"/>
</svg>
