<svg width="41" height="50" viewBox="0 0 41 50" fill="none" xmlns="http://www.w3.org/2000/svg">
<path d="M26.6508 40.4848L22.8743 42.415C22.4547 42.6668 22.2868 43.1703 22.5386 43.506C22.7064 43.7578 22.9582 43.9256 23.2939 43.9256C23.4617 43.9256 23.5457 43.9256 23.7135 43.8417L27.49 41.9115C27.9096 41.6598 28.0774 41.1562 27.8257 40.8205C27.5739 40.4009 27.0704 40.2331 26.6508 40.4848Z" fill="#FF9549"/>
<path d="M40.6657 16.1476C38.4837 7.25188 30.7629 1.04168 21.7833 0.62207H19.6013C10.6217 1.04168 2.90093 7.25188 0.718971 16.1476C0.635049 16.4833 0.718971 16.8189 0.970736 16.9868C1.2225 17.1546 1.55819 17.2386 1.80995 17.1546L4.24368 16.0637L9.78251 25.9664L7.68447 27.0574C7.60055 27.0574 7.51662 27.1413 7.51662 27.2252L7.34878 27.3931V27.477C7.34878 27.5609 7.26486 27.6448 7.26486 27.7288V41.9115C7.26486 42.2472 7.4327 42.499 7.68447 42.6668L20.3566 49.1288C20.4406 49.2127 20.5245 49.2127 20.6923 49.2127C20.8602 49.2127 20.9441 49.2127 21.028 49.1288L33.7002 42.6668C33.9519 42.499 34.1198 42.2472 34.1198 41.9115V27.7288C34.1198 27.6448 34.1198 27.5609 34.0359 27.477V27.3931C34.0359 27.3092 33.9519 27.2252 33.868 27.2252L33.7002 27.0574L31.6021 25.9664L37.057 16.0637L39.4908 17.1546C39.7425 17.2386 40.1621 17.2386 40.33 16.9868C40.5817 16.735 40.7496 16.3993 40.6657 16.1476ZM31.5182 27.7288L29.0006 28.9876L18.1747 23.5327L20.6923 22.2739L31.5182 27.7288ZM20.6923 33.2676L9.86643 27.7288L12.7198 26.3021L23.5457 31.8409L20.6923 33.2676ZM16.3284 24.4558L27.1543 29.9946L25.3919 30.9178L14.566 25.379L16.3284 24.4558ZM26.2311 32.3445L28.1613 31.3374V34.7782L26.2311 35.7852V32.3445ZM19.8531 15.0566L17.9229 14.2174C16.2445 13.4621 14.3982 13.0425 12.5519 12.8746C12.9715 9.85345 14.566 5.82521 19.8531 2.38442V15.0566ZM21.5315 2.38442C26.8186 5.82521 28.497 9.85345 28.8327 12.8746C26.9864 13.0425 25.1402 13.4621 23.4617 14.2174L21.5315 15.0566V2.38442ZM16.6641 2.63619C12.5519 6.07698 11.2092 9.85345 10.8735 12.7907C8.69153 12.7907 6.42564 13.2942 4.41152 14.1335L2.90093 14.8048C5.0829 8.59463 10.286 4.06286 16.6641 2.63619ZM5.92211 15.3923C9.61466 14.0495 13.6429 14.1335 17.2515 15.728L19.8531 16.9029V20.8472L11.2931 25.2111L5.92211 15.3923ZM8.85937 29.1554L19.8531 34.7782V47.0307L8.85937 41.408V29.1554ZM21.5315 47.0307V34.7782L24.5527 33.2676V37.2119C24.5527 37.4637 24.7206 37.7994 24.9723 37.9672C25.1402 38.0511 25.2241 38.0511 25.3919 38.0511C25.5598 38.0511 25.6437 38.0511 25.8115 37.9672L29.4202 36.1209C29.6719 35.9531 29.8398 35.7013 29.8398 35.3656V30.4982L32.5253 29.1554V41.408L21.5315 47.0307ZM21.5315 20.7633V16.8189L24.1331 15.644C27.7417 14.0495 31.77 13.9656 35.4625 15.3084L30.0915 25.0433L21.5315 20.7633ZM37.057 14.2174C35.0429 13.2942 32.777 12.8746 30.5951 12.8746C30.2594 9.93737 28.9166 6.1609 24.8045 2.72011C31.1825 4.14678 36.3857 8.67855 38.5676 14.8887L37.057 14.2174Z" fill="#FF9549"/>
</svg>
