<svg width="41" height="41" viewBox="0 0 41 41" fill="none" xmlns="http://www.w3.org/2000/svg">
<path d="M38.6882 6.70128V2.03617C38.6882 1.68267 38.5477 1.34364 38.2978 1.09368C38.0478 0.843714 37.7088 0.703285 37.3553 0.703285H17.362C17.0085 0.703285 16.6694 0.843714 16.4195 1.09368C16.1695 1.34364 16.0291 1.68267 16.0291 2.03617V6.70128C16.0291 7.05479 16.1695 7.39381 16.4195 7.64378C16.6694 7.89374 17.0085 8.03417 17.362 8.03417H19.3613V11.3664C19.3613 11.6263 19.0947 11.0931 23.9264 19.3637C24.0972 19.6531 24.3709 19.8673 24.6928 19.9635V31.3597C24.6934 31.4695 24.7211 31.5774 24.7734 31.6739C24.8257 31.7704 24.9011 31.8525 24.9927 31.9129C27.1654 33.359 27.0854 33.359 27.3586 33.359C27.6319 33.359 27.5386 33.359 29.7245 31.9129C29.8162 31.8525 29.8915 31.7704 29.9438 31.6739C29.9962 31.5774 30.0238 31.4695 30.0244 31.3597V19.9702C30.3463 19.874 30.6201 19.6598 30.7908 19.3704C35.6159 11.0998 35.3559 11.6263 35.3559 11.3664V8.03417H37.3553C37.7088 8.03417 38.0478 7.89374 38.2978 7.64378C38.5477 7.39381 38.6882 7.05479 38.6882 6.70128ZM28.6915 24.3354L26.0257 26.1148V24.3887L28.6915 22.6093V24.3354ZM26.0257 27.7209L28.6915 25.9415V27.6676L26.0257 29.447V27.7209ZM28.6915 21.0032L26.0257 22.7826V20.0302H28.6915V21.0032ZM27.3586 31.8929L26.0257 31.0265L28.6915 29.2737V30.9998L27.3586 31.8929ZM34.0231 10.6999H26.6922C26.5154 10.6999 26.3459 10.7702 26.2209 10.8951C26.0959 11.0201 26.0257 11.1896 26.0257 11.3664C26.0257 11.5431 26.0959 11.7127 26.2209 11.8376C26.3459 11.9626 26.5154 12.0328 26.6922 12.0328H33.5299L29.6445 18.6973H25.0727L21.1873 12.0328H23.36C23.5367 12.0328 23.7062 11.9626 23.8312 11.8376C23.9562 11.7127 24.0264 11.5431 24.0264 11.3664C24.0264 11.1896 23.9562 11.0201 23.8312 10.8951C23.7062 10.7702 23.5367 10.6999 23.36 10.6999H20.6942V8.03417H34.0231V10.6999ZM37.3553 6.70128H17.362V2.03617H18.6948V3.36906C18.6948 3.54581 18.7651 3.71533 18.89 3.84031C19.015 3.96529 19.1845 4.03551 19.3613 4.03551C19.538 4.03551 19.7076 3.96529 19.8325 3.84031C19.9575 3.71533 20.0277 3.54581 20.0277 3.36906V2.03617H21.3606V3.36906C21.3606 3.54581 21.4308 3.71533 21.5558 3.84031C21.6808 3.96529 21.8503 4.03551 22.0271 4.03551C22.2038 4.03551 22.3733 3.96529 22.4983 3.84031C22.6233 3.71533 22.6935 3.54581 22.6935 3.36906V2.03617H24.0264V3.36906C24.0264 3.54581 24.0966 3.71533 24.2216 3.84031C24.3466 3.96529 24.5161 4.03551 24.6928 4.03551C24.8696 4.03551 25.0391 3.96529 25.1641 3.84031C25.2891 3.71533 25.3593 3.54581 25.3593 3.36906V2.03617H26.6922V3.36906C26.6922 3.54581 26.7624 3.71533 26.8874 3.84031C27.0124 3.96529 27.1819 4.03551 27.3586 4.03551C27.5354 4.03551 27.7049 3.96529 27.8299 3.84031C27.9548 3.71533 28.0251 3.54581 28.0251 3.36906V2.03617H29.358V3.36906C29.358 3.54581 29.4282 3.71533 29.5531 3.84031C29.6781 3.96529 29.8476 4.03551 30.0244 4.03551C30.2011 4.03551 30.3707 3.96529 30.4956 3.84031C30.6206 3.71533 30.6908 3.54581 30.6908 3.36906V2.03617H32.0237V3.36906C32.0237 3.54581 32.0939 3.71533 32.2189 3.84031C32.3439 3.96529 32.5134 4.03551 32.6902 4.03551C32.8669 4.03551 33.0364 3.96529 33.1614 3.84031C33.2864 3.71533 33.3566 3.54581 33.3566 3.36906V2.03617H34.6895V3.36906C34.6895 3.54581 34.7597 3.71533 34.8847 3.84031C35.0097 3.96529 35.1792 4.03551 35.3559 4.03551C35.5327 4.03551 35.7022 3.96529 35.8272 3.84031C35.9522 3.71533 36.0224 3.54581 36.0224 3.36906V2.03617H37.3553V6.70128Z" fill="#FF9549"/>
<path d="M40.0211 30.6933H34.3563C33.9748 30.7003 33.6033 30.8164 33.2856 31.0278C32.9679 31.2391 32.7174 31.537 32.5635 31.8862C31.7505 33.5923 27.092 35.3584 20.6942 35.3584C14.2963 35.3584 9.63121 33.5923 8.82481 31.8862C8.67098 31.537 8.42044 31.2391 8.10277 31.0278C7.7851 30.8164 7.41358 30.7003 7.03208 30.6933H1.3673C1.19055 30.6933 1.02104 30.7635 0.896058 30.8885C0.771075 31.0134 0.700861 31.183 0.700861 31.3597V40.0235C0.700861 40.2002 0.771075 40.3697 0.896058 40.4947C1.02104 40.6197 1.19055 40.6899 1.3673 40.6899H40.0211C40.1978 40.6899 40.3673 40.6197 40.4923 40.4947C40.6173 40.3697 40.6875 40.2002 40.6875 40.0235V31.3597C40.6875 31.183 40.6173 31.0134 40.4923 30.8885C40.3673 30.7635 40.1978 30.6933 40.0211 30.6933ZM39.3546 39.357H2.03375V32.0262H7.03208C7.16058 32.033 7.28433 32.077 7.38841 32.1527C7.49248 32.2284 7.57241 32.3326 7.61855 32.4527C8.80482 34.9518 14.183 36.6913 20.6942 36.6913C27.2053 36.6913 32.5835 34.9518 33.7698 32.4527C33.816 32.3326 33.8959 32.2284 34 32.1527C34.104 32.077 34.2278 32.033 34.3563 32.0262H39.3546V39.357Z" fill="#FF9549"/>
<path d="M22.2203 31.1664C22.2825 31.2286 22.3562 31.2779 22.4374 31.3115C22.5186 31.3451 22.6056 31.3624 22.6935 31.3624C22.7814 31.3624 22.8684 31.3451 22.9496 31.3115C23.0308 31.2779 23.1045 31.2286 23.1667 31.1664C23.2288 31.1043 23.2781 31.0305 23.3117 30.9493C23.3454 30.8682 23.3627 30.7811 23.3627 30.6933C23.3627 30.6054 23.3454 30.5184 23.3117 30.4372C23.2781 30.356 23.2288 30.2822 23.1667 30.2201L17.8351 24.8885C17.773 24.8264 17.6992 24.7771 17.618 24.7435C17.5369 24.7099 17.4498 24.6925 17.362 24.6925C17.2741 24.6925 17.1871 24.7099 17.1059 24.7435C17.0247 24.7771 16.9509 24.8264 16.8888 24.8885C16.8266 24.9507 16.7774 25.0244 16.7437 25.1056C16.7101 25.1868 16.6928 25.2738 16.6928 25.3617C16.6928 25.4496 16.7101 25.5366 16.7437 25.6178C16.7774 25.699 16.8266 25.7728 16.8888 25.8349L22.2203 31.1664ZM31.5506 31.1664C31.6125 31.2289 31.6862 31.2785 31.7674 31.3123C31.8486 31.3462 31.9357 31.3636 32.0237 31.3636C32.1117 31.3636 32.1988 31.3462 32.28 31.3123C32.3612 31.2785 32.4349 31.2289 32.4969 31.1664L37.8285 25.8349C37.8906 25.7728 37.9399 25.699 37.9735 25.6178C38.0071 25.5366 38.0245 25.4496 38.0245 25.3617C38.0245 25.2738 38.0071 25.1868 37.9735 25.1056C37.9399 25.0244 37.8906 24.9507 37.8285 24.8885C37.7663 24.8264 37.6926 24.7771 37.6114 24.7435C37.5302 24.7099 37.4432 24.6925 37.3553 24.6925C37.2674 24.6925 37.1804 24.7099 37.0992 24.7435C37.018 24.7771 36.9442 24.8264 36.8821 24.8885L31.5506 30.2201C31.4881 30.282 31.4385 30.3558 31.4047 30.437C31.3708 30.5182 31.3534 30.6053 31.3534 30.6933C31.3534 30.7812 31.3708 30.8684 31.4047 30.9496C31.4385 31.0308 31.4881 31.1045 31.5506 31.1664Z" fill="#FF9549"/>
<path d="M15.3626 24.0288C15.7307 24.0288 16.0291 23.7304 16.0291 23.3624C16.0291 22.9943 15.7307 22.6959 15.3626 22.6959C14.9946 22.6959 14.6962 22.9943 14.6962 23.3624C14.6962 23.7304 14.9946 24.0288 15.3626 24.0288Z" fill="#FF9549"/>
<path d="M39.3546 24.0288C39.7227 24.0288 40.0211 23.7304 40.0211 23.3624C40.0211 22.9943 39.7227 22.6959 39.3546 22.6959C38.9865 22.6959 38.6882 22.9943 38.6882 23.3624C38.6882 23.7304 38.9865 24.0288 39.3546 24.0288Z" fill="#FF9549"/>
<path d="M22.6935 26.6946C22.8184 26.694 22.9407 26.6583 23.0463 26.5916C23.152 26.5249 23.2367 26.4298 23.2909 26.3173C23.3451 26.2047 23.3666 26.0792 23.3529 25.955C23.3391 25.8308 23.2908 25.713 23.2133 25.615L20.5476 22.2827C20.4965 22.2059 20.43 22.1405 20.3523 22.0907C20.2746 22.0408 20.1874 22.0077 20.0963 21.9933C20.0051 21.979 19.912 21.9837 19.8227 22.0072C19.7335 22.0307 19.6501 22.0725 19.5779 22.13C19.5056 22.1874 19.4461 22.2592 19.403 22.3408C19.36 22.4225 19.3344 22.5121 19.3278 22.6042C19.3212 22.6962 19.3338 22.7886 19.3648 22.8756C19.3958 22.9625 19.4446 23.042 19.5079 23.1091L22.1737 26.4414C22.2358 26.5199 22.3147 26.5835 22.4047 26.6273C22.4947 26.6711 22.5934 26.6941 22.6935 26.6946ZM32.0237 26.6946C32.1238 26.6941 32.2225 26.6711 32.3125 26.6273C32.4025 26.5835 32.4815 26.5199 32.5436 26.4414L35.2093 23.1091C35.3191 22.9719 35.3701 22.7968 35.3514 22.622C35.3327 22.4473 35.2457 22.287 35.1094 22.1761C35.0408 22.1211 34.962 22.0802 34.8776 22.0558C34.7931 22.0314 34.7047 22.024 34.6173 22.0339C34.53 22.0438 34.4455 22.0709 34.3686 22.1136C34.2918 22.1563 34.2242 22.2138 34.1697 22.2827L31.5039 25.615C31.4264 25.713 31.3781 25.8308 31.3644 25.955C31.3507 26.0792 31.3721 26.2047 31.4263 26.3173C31.4805 26.4298 31.5653 26.5249 31.6709 26.5916C31.7765 26.6583 31.8988 26.694 32.0237 26.6946ZM10.9841 29.7602C11.2264 29.8633 11.4868 29.9174 11.7501 29.9195C12.0134 29.9217 12.2746 29.8718 12.5186 29.7727C12.7625 29.6736 12.9845 29.5273 13.1718 29.3422C13.3591 29.1571 13.508 28.9368 13.6099 28.6939C14.3285 27.113 14.4154 25.3172 13.8529 23.6742C13.2904 22.0313 12.121 20.6656 10.5842 19.8569C9.91622 19.5242 9.40605 18.942 9.16409 18.236C8.92213 17.5301 8.96784 16.7573 9.29132 16.0848C10.0076 14.5056 10.0932 12.7124 9.53077 11.0721C8.96832 9.43181 7.80028 8.06848 6.26567 7.26109C5.5989 6.92714 5.08987 6.34481 4.84808 5.63937C4.60628 4.93394 4.65106 4.16178 4.97277 3.48902C5.08993 3.24577 5.15662 2.98132 5.1688 2.7116C5.18098 2.44188 5.1384 2.17248 5.04364 1.91967C4.94887 1.66685 4.80388 1.43584 4.61741 1.24058C4.43095 1.04532 4.20686 0.889855 3.95867 0.783554C3.71048 0.677252 3.44334 0.62232 3.17334 0.622071C2.90335 0.621822 2.6361 0.676261 2.38772 0.782105C2.13934 0.887948 1.91496 1.043 1.72813 1.23792C1.54131 1.43283 1.39589 1.66357 1.30066 1.91621C0.57992 3.4961 0.491137 5.29192 1.05253 6.93519C1.61392 8.57847 2.78291 9.94459 4.31965 10.7533C4.98812 11.0872 5.49842 11.6707 5.74032 12.3777C5.98223 13.0847 5.93633 13.8585 5.61255 14.532C4.89432 16.1119 4.80759 17.9068 5.37015 19.5486C5.93271 21.1904 7.10195 22.5549 8.63821 23.3624C9.30668 23.6963 9.81697 24.2798 10.0589 24.9868C10.3008 25.6939 10.2549 26.4677 9.93111 27.1411C9.72432 27.6282 9.71904 28.1773 9.91641 28.6683C10.1138 29.1592 10.4977 29.5519 10.9841 29.7602ZM9.28466 22.2028C8.0425 21.5469 7.09762 20.4416 6.64304 19.1125C6.18846 17.7835 6.25848 16.331 6.83881 15.0518C7.29602 14.0766 7.35702 12.962 7.00897 11.9427C6.66091 10.9234 5.93096 10.0789 4.97277 9.58698C3.72876 8.93477 2.78154 7.83118 2.32548 6.50266C1.86942 5.17414 1.93911 3.72146 2.52025 2.4427C2.55203 2.35883 2.60042 2.28224 2.66251 2.21751C2.7246 2.15278 2.79911 2.10126 2.88159 2.06601C2.96407 2.03077 3.05281 2.01254 3.1425 2.01241C3.23219 2.01228 3.32099 2.03026 3.40356 2.06526C3.48614 2.10027 3.5608 2.15158 3.62308 2.21613C3.68535 2.28068 3.73396 2.35714 3.76598 2.44092C3.798 2.5247 3.81278 2.61408 3.80944 2.70371C3.80609 2.79334 3.78469 2.88137 3.74651 2.96253C3.29151 3.93882 3.23239 5.05341 3.58156 6.07235C3.93074 7.09129 4.66105 7.93535 5.61922 8.42737C6.86205 9.08072 7.80783 10.1848 8.26261 11.5132C8.71739 12.8416 8.64671 14.2937 8.06507 15.5717C7.60835 16.5477 7.54833 17.6629 7.89767 18.6823C8.247 19.7017 8.97841 20.5457 9.93777 21.0365C11.1799 21.6923 12.1248 22.7977 12.5794 24.1267C13.034 25.4558 12.964 26.9083 12.3836 28.1874C12.3138 28.35 12.1823 28.4783 12.0179 28.5439C11.8535 28.6095 11.6699 28.6071 11.5073 28.5373C11.3446 28.4675 11.2164 28.3359 11.1508 28.1716C11.0852 28.0072 11.0876 27.8236 11.1574 27.6609C11.6138 26.6859 11.6736 25.5717 11.3242 24.5534C10.9748 23.535 10.2435 22.6922 9.28466 22.2028ZM17.8885 12.626C17.6872 12.1401 17.3027 11.7531 16.8183 11.5484C16.3339 11.3438 15.7884 11.3381 15.2997 11.5325C14.8111 11.7269 14.4186 12.1058 14.2072 12.5873C13.9957 13.0688 13.9822 13.6141 14.1697 14.1055C14.8361 15.8382 14.2097 16.398 14.2097 16.398C13.7794 16.7006 13.4856 17.1605 13.392 17.6781C13.2985 18.1957 13.4127 18.7294 13.7099 19.1634C14.0072 19.5974 14.4634 19.8967 14.9799 19.9966C15.4963 20.0965 16.0313 19.9888 16.4689 19.6969C16.6089 19.6036 19.8011 17.411 17.8885 12.626ZM15.7292 18.584C15.619 18.6568 15.4897 18.6952 15.3576 18.6943C15.2255 18.6935 15.0967 18.6534 14.9875 18.5792C14.8782 18.505 14.7935 18.4001 14.744 18.2776C14.6945 18.1552 14.6825 18.0208 14.7095 17.8915C14.7282 17.8038 14.7644 17.7208 14.8159 17.6474C14.8674 17.574 14.9333 17.5117 15.0094 17.4644C15.256 17.2777 16.4356 16.1715 15.4093 13.6123C15.3769 13.5309 15.3609 13.4439 15.3621 13.3563C15.3633 13.2688 15.3818 13.1823 15.4165 13.1018C15.4511 13.0214 15.5013 12.9485 15.5641 12.8875C15.6269 12.8264 15.7011 12.7783 15.7825 12.7459C15.8639 12.7135 15.9509 12.6975 16.0384 12.6987C16.126 12.7 16.2125 12.7184 16.293 12.7531C16.3734 12.7878 16.4463 12.8379 16.5073 12.9007C16.5684 12.9635 16.6165 13.0377 16.6489 13.1191C18.1617 16.9045 15.8358 18.5173 15.7292 18.584Z" fill="#FF9549"/>
<path d="M4.69952 23.8089C4.65603 23.3828 4.47686 22.982 4.18841 22.6654C3.89996 22.3488 3.51747 22.1332 3.09727 22.0504C2.67707 21.9675 2.24137 22.0218 1.85434 22.2052C1.46731 22.3886 1.14941 22.6915 0.947445 23.0691C0.755145 23.4142 0.669341 23.8084 0.700861 24.2021C0.700861 24.362 1.10073 28.2008 6.21902 28.8672C6.74355 28.9212 7.26829 28.7669 7.68018 28.4377C8.09208 28.1085 8.35815 27.6306 8.42108 27.1071C8.48401 26.5835 8.33875 26.0562 8.01662 25.6388C7.69448 25.2213 7.22124 24.9471 6.69886 24.8752C4.86614 24.6486 4.69952 23.8089 4.69952 23.8089ZM7.14537 26.9345C7.13548 27.0223 7.10824 27.1072 7.06524 27.1844C7.02223 27.2615 6.96432 27.3294 6.89487 27.3839C6.82541 27.4385 6.74581 27.4787 6.66067 27.5022C6.57554 27.5258 6.48658 27.5321 6.39896 27.521C2.34031 27.0278 2.03375 24.2088 2.03375 24.0821C2.01897 23.9063 2.07452 23.7318 2.1882 23.5969C2.30189 23.462 2.46444 23.3776 2.64021 23.3624C2.72937 23.3542 2.81926 23.364 2.90452 23.3913C2.98978 23.4187 3.06867 23.4629 3.13647 23.5213C3.20427 23.5798 3.25959 23.6513 3.29914 23.7317C3.33869 23.812 3.36164 23.8994 3.36664 23.9888C3.41329 24.3021 3.81315 25.8615 6.55224 26.1948C6.72702 26.2164 6.88611 26.3064 6.99475 26.445C7.1034 26.5836 7.15276 26.7596 7.13205 26.9345H7.14537ZM4.69952 36.6913H4.03308C3.85633 36.6913 3.68682 36.7615 3.56183 36.8865C3.43685 37.0114 3.36664 37.181 3.36664 37.3577C3.36664 37.5345 3.43685 37.704 3.56183 37.829C3.68682 37.9539 3.85633 38.0242 4.03308 38.0242H4.69952C4.87628 38.0242 5.04579 37.9539 5.17077 37.829C5.29575 37.704 5.36597 37.5345 5.36597 37.3577C5.36597 37.181 5.29575 37.0114 5.17077 36.8865C5.04579 36.7615 4.87628 36.6913 4.69952 36.6913ZM12.0304 36.6913H7.3653C7.18855 36.6913 7.01904 36.7615 6.89405 36.8865C6.76907 37.0114 6.69886 37.181 6.69886 37.3577C6.69886 37.5345 6.76907 37.704 6.89405 37.829C7.01904 37.9539 7.18855 38.0242 7.3653 38.0242H12.0304C12.2072 38.0242 12.3767 37.9539 12.5017 37.829C12.6266 37.704 12.6969 37.5345 12.6969 37.3577C12.6969 37.181 12.6266 37.0114 12.5017 36.8865C12.3767 36.7615 12.2072 36.6913 12.0304 36.6913Z" fill="#FF9549"/>
</svg>
