<svg width="41" height="37" viewBox="0 0 41 37" fill="none" xmlns="http://www.w3.org/2000/svg">
<path fill-rule="evenodd" clip-rule="evenodd" d="M11.9716 10.2256C12.7759 10.6914 13.6891 10.9365 14.6186 10.9362C16.3827 10.9362 18.1027 10.0579 19.1066 8.48105H24.9989C25.089 8.48105 25.1781 8.46218 25.2605 8.42565C25.3428 8.38912 25.4166 8.33574 25.4771 8.26896L26.2072 7.46285L26.9373 8.26896C26.9978 8.33573 27.0716 8.3891 27.154 8.42562C27.2363 8.46215 27.3254 8.48102 27.4155 8.48102C27.5056 8.48102 27.5947 8.46215 27.677 8.42562C27.7594 8.3891 27.8332 8.33573 27.8937 8.26896L28.6237 7.46285L29.3538 8.26896C29.4143 8.33575 29.4881 8.38913 29.5704 8.42566C29.6528 8.46219 29.7419 8.48106 29.832 8.48105H30.6536C30.8167 8.48105 30.9738 8.41928 31.0932 8.30807L33.4677 6.09748C33.5326 6.03712 33.5843 5.96405 33.6197 5.88281C33.6551 5.80157 33.6734 5.71392 33.6734 5.62531C33.6734 5.5367 33.6551 5.44905 33.6197 5.36781C33.5843 5.28657 33.5326 5.2135 33.4677 5.15314L31.0932 2.94263C30.9738 2.83147 30.8167 2.76966 30.6536 2.76965H19.1073C18.6486 2.04983 18.0229 1.45134 17.2834 1.02502C14.7468 -0.439381 11.4917 0.432775 10.0272 2.96933C8.56268 5.50588 9.43492 8.76104 11.9716 10.2256ZM11.1446 3.61447C12.2535 1.69403 14.718 1.03373 16.6384 2.14241C17.2857 2.51534 17.816 3.06166 18.1695 3.71979C18.2246 3.82259 18.3066 3.9085 18.4067 3.9684C18.5068 4.0283 18.6213 4.05994 18.7379 4.05995H30.3997L32.0813 5.62531L30.3997 7.19076H30.118L29.1019 6.06877C29.0414 6.00198 28.9676 5.94859 28.8853 5.91205C28.8029 5.87552 28.7138 5.85664 28.6237 5.85663C28.5336 5.85662 28.4445 5.87549 28.3622 5.91201C28.2798 5.94853 28.206 6.00191 28.1455 6.06869L27.4154 6.8748L26.6852 6.06869C26.6247 6.00192 26.5509 5.94856 26.4686 5.91204C26.3862 5.87552 26.2971 5.85666 26.207 5.85667C26.1169 5.85667 26.0279 5.87555 25.9455 5.91208C25.8631 5.94861 25.7894 6.00199 25.7289 6.06877L24.7127 7.19076H18.7373C18.6208 7.19076 18.5065 7.22229 18.4065 7.28201C18.3065 7.34173 18.2245 7.4274 18.1693 7.52994C18.1502 7.56543 18.1307 7.60083 18.1103 7.63623C17.0015 9.55667 14.5371 10.2171 12.6165 9.10829C10.6963 7.99937 10.0359 5.53491 11.1446 3.61447ZM13.4985 7.658C14.6192 7.65792 15.5311 6.74609 15.5311 5.62523C15.5311 4.50445 14.6192 3.59254 13.4984 3.59254C12.3776 3.59254 11.4657 4.50437 11.4657 5.62523C11.4657 6.74609 12.3776 7.658 13.4985 7.658ZM13.4984 4.88291C13.9078 4.88291 14.2409 5.21589 14.2409 5.62523C14.2409 6.03466 13.9078 6.36771 13.4984 6.36771C13.0889 6.36771 12.756 6.03466 12.756 5.62523C12.756 5.21589 13.089 4.88291 13.4984 4.88291ZM7.50392 12.7699C7.52343 12.3479 7.88141 12.0217 8.30342 12.0412C8.40375 12.0459 8.5022 12.0702 8.59312 12.1129C8.68404 12.1556 8.76566 12.2158 8.83332 12.29C8.90098 12.3643 8.95335 12.4511 8.98744 12.5456C9.02154 12.6401 9.03669 12.7404 9.03203 12.8407C9.01251 13.2627 8.65454 13.5889 8.23253 13.5693C8.13219 13.5647 8.03375 13.5403 7.94283 13.4976C7.85191 13.4549 7.77029 13.3948 7.70263 13.3205C7.63497 13.2463 7.5826 13.1595 7.5485 13.065C7.51441 12.9705 7.49926 12.8702 7.50392 12.7699ZM40.5678 23.2776L35.9456 11.3547C35.7753 10.9152 35.4428 10.5679 35.0096 10.3767C34.5764 10.1855 34.0959 10.1742 33.6564 10.3446L31.3612 11.2343C30.4515 11.5869 29.9984 12.6139 30.351 13.5235L30.7028 14.4308L29.4248 15.1148C28.7242 15.4795 28.0306 15.2277 26.8653 14.7514C25.3018 14.1123 23.1837 13.2485 20.4269 14.9529C18.4314 13.7805 16.721 14.1805 15.3312 14.506C14.2664 14.7554 13.4255 14.9523 12.6203 14.4993C12.6053 14.4908 12.5899 14.4829 12.5742 14.4757L11.1087 13.7996L11.4964 12.9223C11.8907 12.03 11.4856 10.9832 10.5933 10.5887L8.34172 9.5936C7.44932 9.19918 6.40249 9.60433 6.00815 10.4966L0.838757 22.1927C0.648197 22.6239 0.63731 23.1045 0.808274 23.5461C0.979156 23.9876 1.31068 24.3357 1.7418 24.5263L3.99336 25.5215C4.21779 25.621 4.46058 25.6725 4.70608 25.6725C5.38558 25.6724 6.035 25.2789 6.32693 24.6185L6.57507 24.057C7.53787 24.4861 7.80044 24.5953 7.91109 24.6382C8.19229 24.7474 8.28446 25.1416 8.40277 25.7777C8.46801 26.1284 8.53599 26.4873 8.67413 26.8156L8.05641 27.9705C7.74714 28.5488 7.68206 29.2147 7.87326 29.8456C8.06455 30.4766 8.48833 30.9944 9.06662 31.3036C9.43941 31.5032 9.85758 31.6027 10.2803 31.5923C10.2254 31.9514 10.2513 32.3217 10.3601 32.6806C10.5513 33.3116 10.975 33.8294 11.5533 34.1387C12.3089 34.5427 13.1839 34.5099 13.8884 34.1287C14.1086 34.6016 14.4774 35.004 14.9568 35.2604C15.634 35.6226 16.4178 35.6356 17.0859 35.3513C17.2976 35.9032 17.7014 36.3602 18.223 36.6384C18.5779 36.8291 18.9745 36.929 19.3774 36.9291C19.6182 36.9291 19.8607 36.8935 20.0982 36.8216C20.6276 36.6612 21.0767 36.3366 21.3904 35.8948L22.0232 36.2583C22.3765 36.462 22.7772 36.5691 23.1851 36.5689C23.4015 36.5689 23.6201 36.539 23.8355 36.4786C24.4596 36.3037 24.9959 35.8792 25.3069 35.3139C25.5133 34.9391 25.6152 34.5157 25.602 34.0879C25.9851 34.1711 26.3862 34.1582 26.7756 34.0462C27.3986 33.8668 27.9129 33.4568 28.2237 32.8917C28.4429 32.4934 28.5434 32.0406 28.5132 31.5869C29.4702 31.7138 30.4522 31.2548 30.9445 30.3596C31.2782 29.753 31.3191 29.0596 31.1146 28.4439C31.1405 28.4373 31.1663 28.4304 31.1921 28.4231C31.8177 28.244 32.334 27.8333 32.6457 27.2665C32.9085 26.7887 32.9956 26.2386 32.9054 25.7093L34.773 24.93L34.9733 25.4465C35.2447 26.1467 35.9156 26.5763 36.625 26.5763C36.8372 26.5763 37.053 26.5379 37.2625 26.4567L39.5577 25.5668C40.4673 25.2143 40.9204 24.1873 40.5678 23.2776ZM4.51496 24.3414L2.26348 23.3463C2.14752 23.295 2.05808 23.2006 2.01155 23.0805C1.96502 22.9603 1.96768 22.8303 2.01889 22.7144L7.18828 11.0182C7.22594 10.9333 7.28746 10.8611 7.36536 10.8104C7.44327 10.7598 7.53421 10.7328 7.62714 10.7328C7.69361 10.7329 7.75935 10.7468 7.82012 10.7737L10.0716 11.7689C10.1877 11.8204 10.2786 11.9158 10.3245 12.0342C10.3703 12.1527 10.3674 12.2845 10.3162 12.4007L5.6584 22.9393L5.65824 22.9396L5.65808 22.9401L5.1468 24.0968C5.09534 24.2129 4.99992 24.3039 4.88146 24.3498C4.763 24.3956 4.6312 24.3926 4.51496 24.3414ZM9.67508 30.166C9.40065 30.0193 9.19928 29.7726 9.10807 29.4715C9.01679 29.1705 9.04743 28.8535 9.19412 28.5791L10.315 26.4836C10.6196 25.9139 11.3316 25.6984 11.9023 26.003C12.4403 26.2901 12.666 26.9461 12.4231 27.5041L10.9486 30.056C10.5843 30.3383 10.0837 30.3846 9.67508 30.166ZM12.1617 33.001C11.8874 32.8542 11.686 32.6076 11.5947 32.3065C11.5034 32.0055 11.5341 31.6885 11.6808 31.4142L12.0147 30.7899L13.5055 28.2096C13.8701 27.9224 14.3742 27.8739 14.7868 28.0941C15.237 28.3344 15.4796 28.8585 15.3812 29.3587L13.7523 32.5131C13.4446 33.0867 12.7313 33.3055 12.1617 33.001ZM15.5652 34.1228C15.1579 33.9049 14.9189 33.465 14.9495 33.0068L16.5234 29.9591C16.8843 29.6058 17.451 29.5195 17.8996 29.7589C18.3497 29.9991 18.5921 30.5226 18.4943 31.0226L17.0497 33.7991C16.7031 34.2532 16.0718 34.3936 15.5652 34.1228ZM19.7238 35.5868C19.4227 35.678 19.1057 35.6475 18.8314 35.5008C18.4096 35.2752 18.1712 34.8195 18.219 34.3471L19.6354 31.6248C19.9964 31.2706 20.5636 31.184 21.0121 31.4236C21.1647 31.5047 21.2972 31.6191 21.3995 31.7584C21.6679 32.1234 21.7045 32.6149 21.4929 33.0105L20.4183 35.0199C20.2715 35.2943 20.0249 35.4956 19.7238 35.5868ZM24.1762 34.6922C24.0311 34.956 23.78 35.1542 23.4872 35.2363C23.2042 35.3156 22.9124 35.2813 22.6657 35.1395L22.0168 34.7669L22.6307 33.6189C22.7869 33.327 22.8774 33.0105 22.9069 32.6897L23.6485 33.108C23.6748 33.1288 23.7025 33.1483 23.7326 33.1651C24.2734 33.4683 24.4725 34.1534 24.1762 34.6922ZM31.515 26.6447C31.3703 26.9079 31.1295 27.0989 30.837 27.1826C30.5512 27.2644 30.254 27.2312 29.9998 27.0893H29.9997L29.9985 27.0886L29.9979 27.0883C28.4383 26.2147 27.139 25.4857 25.8023 24.7204C25.654 24.6372 25.4787 24.616 25.3148 24.6613C25.1508 24.7067 25.0114 24.815 24.9269 24.9626C24.8424 25.1102 24.8196 25.2853 24.8635 25.4496C24.9074 25.614 25.0144 25.7543 25.1613 25.8401C26.5027 26.6079 27.8044 27.3384 29.3666 28.2134L29.3668 28.2136C29.908 28.5182 30.1085 29.2018 29.8138 29.7376C29.5163 30.2786 28.8342 30.4766 28.2932 30.1793L22.769 27.0709C22.6199 26.9879 22.444 26.9674 22.2799 27.0137C22.1157 27.06 21.9765 27.1695 21.8929 27.3182C21.8092 27.4669 21.7878 27.6427 21.8334 27.8071C21.8791 27.9714 21.9879 28.1111 22.1362 28.1954L26.5485 30.6782C26.5784 30.7032 26.6106 30.7261 26.6459 30.7459C27.187 31.0505 27.3876 31.7342 27.0928 32.2699C26.9486 32.5321 26.7091 32.7225 26.4184 32.8062C26.1311 32.8889 25.8314 32.8557 25.5745 32.713L22.3701 30.9056C22.1645 30.6504 21.9095 30.4395 21.6202 30.2856C21.0166 29.963 20.3299 29.9134 19.713 30.1098C19.6222 29.7934 19.4686 29.4984 19.2614 29.2426C19.0543 28.9867 18.7977 28.7752 18.5071 28.6206C18.2172 28.4653 17.899 28.3698 17.5715 28.3396C17.2439 28.3095 16.9137 28.3453 16.6002 28.4451C16.5094 28.1286 16.3559 27.8337 16.1487 27.5778C15.9415 27.3219 15.685 27.1104 15.3944 26.9557C14.9026 26.6935 14.3364 26.606 13.7884 26.7074C13.6848 25.9479 13.2301 25.2491 12.5097 24.8646C11.5372 24.3455 10.3688 24.5468 9.62129 25.2811C9.48234 24.5907 9.23807 23.7692 8.37801 23.4354C8.27406 23.395 7.96084 23.2618 7.09667 22.8767L10.587 14.9798L12.0113 15.6369C13.2463 16.3197 14.4556 16.0363 15.6255 15.7622C16.8097 15.4848 17.9391 15.221 19.26 15.8013C18.9473 16.064 18.6471 16.3411 18.3603 16.6317C17.2142 17.7899 15.7603 18.8865 14.0386 19.8913C13.8222 20.0177 13.677 20.2228 13.6296 20.4695C13.5826 20.7154 13.6413 20.9595 13.7943 21.156C14.9611 22.6572 16.2244 23.1438 17.4718 23.1437C18.7486 23.1436 20.0086 22.6336 21.1295 22.1798C22.6289 21.5727 23.9238 21.0486 24.9605 21.6394L31.0649 25.1188C31.2692 25.2346 31.4334 25.4097 31.5358 25.621V25.6211C31.6974 25.954 31.6898 26.3271 31.515 26.6447ZM32.3586 24.5394C32.1735 24.3222 31.952 24.139 31.704 23.998L25.5995 20.5187C24.0194 19.6181 22.3043 20.3125 20.6454 20.9841C18.5929 21.8148 16.8036 22.5391 15.1328 20.7415C16.7601 19.7517 18.1528 18.676 19.2774 17.5395C19.7847 17.0268 20.2953 16.5936 20.7963 16.2509L20.7993 16.2488L20.8002 16.2481C23.1586 14.6302 24.7948 15.2989 26.3771 15.9458C27.5462 16.4236 28.755 16.9179 30.027 16.256L31.1726 15.6428L34.3065 23.7266L32.3586 24.5394ZM39.3552 24.11C39.3302 24.1677 39.2939 24.2198 39.2487 24.2634C39.2034 24.3069 39.1499 24.3411 39.0913 24.3638L36.7961 25.2536C36.6776 25.2994 36.5458 25.2962 36.4296 25.245C36.3134 25.1937 36.2223 25.0984 36.1762 24.9801L31.554 13.0571C31.5082 12.9386 31.5113 12.8068 31.5626 12.6906C31.6139 12.5744 31.7091 12.4833 31.8275 12.4372L34.1228 11.5475C34.1772 11.5264 34.2351 11.5155 34.2935 11.5155C34.3596 11.5155 34.4259 11.5294 34.4888 11.5572C34.5464 11.5822 34.5985 11.6184 34.6421 11.6637C34.6857 11.709 34.7198 11.7625 34.7425 11.821L39.3648 23.744C39.3874 23.8026 39.3982 23.8651 39.3966 23.928C39.3949 23.9908 39.3809 24.0527 39.3552 24.11ZM34.3462 13.5562C34.3462 13.9774 34.0026 14.3211 33.5813 14.3211C33.16 14.3211 32.8164 13.9775 32.8164 13.5562C32.8164 13.1349 33.1599 12.7913 33.5813 12.7913C34.0026 12.7913 34.3462 13.135 34.3462 13.5562Z" fill="#FF9549"/>
</svg>
