<svg width="124" height="118" viewBox="0 0 124 118" fill="none" xmlns="http://www.w3.org/2000/svg">
<path d="M117.501 3.33242L114.246 1.71748C109.14 -0.814633 103.124 0.886594 100.829 5.51443L93.6171 20.0513C92.5471 22.2111 93.4889 24.8838 95.7523 26.119L94.1251 29.3957C91.7877 28.3232 89.0855 29.1886 88.0031 31.3632L85.651 36.1045C85.3607 36.6904 85.315 37.3676 85.524 37.9872C85.733 38.6068 86.1795 39.118 86.7654 39.4083L88.7773 40.4068L83.0474 51.9456H75.806V38.4763C75.806 37.6134 76.2819 36.7751 77.0807 36.2401C79.603 34.5419 81.669 32.2495 83.0969 29.5649C84.5247 26.8804 85.2706 23.8859 85.2688 20.8452C85.2721 17.5003 84.3725 14.2165 82.6649 11.3403C80.9573 8.46409 78.5051 6.10211 75.5669 4.50355C75.0859 4.24004 74.544 4.1077 73.9957 4.11982C73.4474 4.13193 72.9119 4.28808 72.443 4.57259C71.4765 5.14706 70.875 6.19985 70.875 7.32167V16.8411L66.861 20.145C66.7821 20.214 66.6022 20.2189 66.4715 20.1105L62.502 16.8411V7.32167C62.502 6.19985 61.9004 5.14952 60.9363 4.57259C60.4661 4.28815 59.9294 4.13208 59.3799 4.11996C58.8305 4.10785 58.2874 4.24012 57.8051 4.50355C54.8673 6.10244 52.4156 8.46456 50.7085 11.3407C49.0013 14.2169 48.1021 17.5005 48.1056 20.8452C48.1038 23.8855 48.8497 26.8797 50.2776 29.5639C51.7054 32.2481 53.7715 34.5399 56.2937 36.2376C57.0925 36.7776 57.5709 37.6134 57.5709 38.4763V51.9456H40.3145L32.3533 29.7138C32.1971 29.291 32.1313 28.8402 32.1602 28.3905C32.189 27.9407 32.3119 27.502 32.5209 27.1028C32.7656 26.6472 33.1736 26.3011 33.6631 26.1342C34.1525 25.9672 34.687 25.9918 35.159 26.2028C35.7425 26.4689 36.4067 26.4972 37.0107 26.2817L41.3081 24.7506C41.8562 24.5534 42.36 24.2499 42.7904 23.8574C43.2208 23.4649 43.5694 22.9912 43.8162 22.4636C44.063 21.9359 44.203 21.3647 44.2283 20.7827C44.2536 20.2008 44.1636 19.6195 43.9635 19.0725L40.0679 8.34734C39.2888 6.05438 36.769 4.83393 34.4218 5.63031L31.6851 6.6042C29.9 7.20826 28.4503 8.5791 27.5873 10.4924C27.4903 10.6928 27.3535 10.8714 27.1852 11.0172C27.0169 11.163 26.8207 11.273 26.6085 11.3405C26.1746 11.4934 25.7259 11.4884 25.4226 11.3306C23.4748 10.3025 21.3939 10.1003 19.5324 10.7636L13.4943 12.9801C9.53708 14.4348 6.27763 16.8362 4.06603 19.9157C-0.325106 26.0426 0.675906 32.1004 1.66706 35.17C2.09606 36.5014 3.27706 37.4531 4.67256 37.5961C6.05326 37.749 7.36 37.0784 7.98132 35.9763C8.64209 34.9531 9.37436 34.3243 10.3778 33.9274C11.581 33.4441 13.0801 33.5082 14.4953 34.1148C14.589 34.1542 14.6925 34.1887 14.7961 34.2183C15.7503 34.6202 16.9017 35.3451 17.3529 36.5902L22.8461 51.9456H13.0209C11.9828 51.9459 10.955 52.151 9.9963 52.5492C9.03761 52.9473 8.16688 53.5307 7.43399 54.2659C6.70111 55.0011 6.12045 55.8736 5.72529 56.8335C5.33013 57.7935 5.12823 58.8219 5.13115 59.86C5.13576 61.7105 5.79069 63.5005 6.98143 64.9171C8.17217 66.3336 9.82295 67.2866 11.6451 67.6092V104.075C11.6451 107.312 12.7941 110.288 14.7049 112.613H4.89199C4.23809 112.613 3.61097 112.873 3.14859 113.335C2.68621 113.797 2.42644 114.424 2.42644 115.078C2.42644 115.732 2.68621 116.359 3.14859 116.822C3.61097 117.284 4.23809 117.544 4.89199 117.544H119.422C120.075 117.544 120.703 117.284 121.165 116.822C121.627 116.359 121.887 115.732 121.887 115.078C121.887 114.424 121.627 113.797 121.165 113.335C120.703 112.873 120.075 112.613 119.422 112.613H109.609C111.591 110.208 112.674 107.188 112.671 104.072V67.6142C114.497 67.2973 116.152 66.3455 117.345 64.9266C118.537 63.5078 119.19 61.7133 119.187 59.86C119.187 55.496 115.647 51.9456 111.298 51.9456H99.6775L102.123 47.0268L104.138 48.0279C105.346 48.627 106.832 48.1437 107.441 46.9134L109.794 42.1746C110.837 40.0715 110.011 37.3915 107.658 36.1045L109.286 32.8278C111.66 33.9151 114.347 33.0003 115.408 30.8602L122.61 16.3431C124.91 11.7079 122.617 5.87193 117.501 3.33242ZM16.4135 29.551C16.3416 29.5236 16.2683 29.4997 16.1941 29.4795C13.6176 28.4391 10.9055 28.3972 8.55086 29.3489C7.54356 29.7409 6.61241 30.3058 5.79931 31.018C5.55276 28.6314 5.9645 25.7368 8.07501 22.7905C9.7072 20.5148 12.1727 18.7224 15.2004 17.6079L21.2164 15.3963C21.9191 15.1473 22.7105 15.4752 23.1395 15.6996C24.6706 16.4935 26.542 16.5971 28.2629 15.9881C30.0036 15.3692 31.4065 14.0822 32.0993 12.4895C32.262 12.1295 32.6319 11.4884 33.3074 11.2616L35.5905 10.448L39.1606 20.2806L36.1872 21.3408C34.6514 20.9075 33.0132 21.0172 31.5489 21.6514C30.0847 22.2856 28.884 23.4055 28.1495 24.8221C27.5356 25.987 27.2181 27.2851 27.2249 28.6018C27.2249 29.5387 27.3901 30.4707 27.7131 31.3755L35.016 51.7656H28.0213L21.9955 34.9235C21.1301 32.5294 19.1478 30.6186 16.4135 29.551ZM59.0527 32.1497C57.2 30.903 55.6823 29.2199 54.6332 27.2486C53.5842 25.2773 53.0359 23.0783 53.0367 20.8452C53.0367 16.9053 54.7207 13.2242 57.5709 10.665V18.0074C57.5711 18.3708 57.6517 18.7296 57.8068 19.0583C57.962 19.3869 58.1879 19.6772 58.4683 19.9083L63.323 23.9025C65.2708 25.5322 68.1727 25.5248 70.0367 23.9173L74.9061 19.9083C75.187 19.6774 75.4134 19.3872 75.5689 19.0586C75.7245 18.7299 75.8055 18.371 75.806 18.0074V10.6674C77.3492 12.0552 78.5561 13.7762 79.3351 15.6998C80.114 17.6235 80.4446 19.6993 80.3018 21.7698C80.159 23.8403 79.5465 25.851 78.5108 27.6495C77.4751 29.448 76.0434 30.987 74.3243 32.1497C72.1644 33.6069 70.875 35.9713 70.875 38.4763V51.9456H62.502V38.4763C62.502 35.9738 61.2125 33.6093 59.0527 32.1497ZM86.1564 67.7498H96.5117V78.6721C96.5117 78.9113 96.3194 79.1061 96.0778 79.1061H86.5928C86.4771 79.1061 86.3661 79.0601 86.2842 78.9783C86.2024 78.8964 86.1564 78.7854 86.1564 78.6697V67.7498ZM27.8018 67.7498H38.1596V78.6721C38.1596 78.9113 37.9624 79.1061 37.7232 79.1061H28.2383C28.1225 79.1061 28.0115 79.0601 27.9297 78.9783C27.8478 78.8964 27.8018 78.7854 27.8018 78.6697V67.7498ZM22.8708 67.7498V78.6721C22.8708 81.6308 25.2796 84.0372 28.2383 84.0372H37.7232C39.1462 84.0352 40.5103 83.4691 41.5164 82.4629C42.5226 81.4567 43.0888 80.0926 43.0907 78.6697V67.7473H81.2253V78.6697C81.2253 81.6283 83.6342 84.0372 86.5928 84.0372H96.0778C97.5007 84.0352 98.8648 83.4691 99.871 82.4629C100.877 81.4567 101.443 80.0926 101.445 78.6697V67.7473H107.74V104.072C107.74 106.329 106.846 108.495 105.252 110.093C103.658 111.691 101.496 112.592 99.2386 112.598H25.0774C22.8207 112.592 20.6587 111.69 19.0655 110.092C17.4723 108.494 16.578 106.329 16.5787 104.072V67.7498H22.8708ZM114.256 59.86C114.256 61.5711 112.846 62.8187 111.298 62.8187C-60.6743 62.7989 105.43 62.8113 13.0209 62.8187C11.3887 62.8187 10.0622 61.4897 10.0622 59.86C10.0622 58.1366 11.4479 56.8767 13.0209 56.8767H111.298C112.927 56.8767 114.256 58.2155 114.256 59.86ZM97.705 44.8399L94.2557 51.7681H88.6417L93.1955 42.5987L97.705 44.8399ZM118.194 14.1512L111.187 28.2739C108.837 27.2014 106.14 28.0742 105.062 30.2414L103.043 34.3095C101.995 36.4225 102.838 39.1001 105.181 40.3822L104.12 42.5124L91.1639 36.0872L92.2241 33.9496C94.5516 35.0122 97.2711 34.1542 98.3485 31.9821L100.365 27.9139C100.92 26.797 100.957 25.4804 100.469 24.297C100.027 23.2467 99.2377 22.3804 98.2327 21.8437L105.245 7.70383C106.332 5.51689 109.387 4.81174 112.055 6.13574L115.309 7.74821C117.989 9.07961 119.284 11.952 118.194 14.1512Z" fill="#EDEDED"/>
<path d="M27.2594 106.148C27.9133 106.148 28.5405 105.888 29.0028 105.426C29.4652 104.964 29.725 104.337 29.725 103.683V91.6951C29.725 91.0412 29.4652 90.4141 29.0028 89.9517C28.5405 89.4894 27.9133 89.2296 27.2594 89.2296C26.6055 89.2296 25.9784 89.4894 25.516 89.9517C25.0536 90.4141 24.7939 91.0412 24.7939 91.6951V103.683C24.7939 104.337 25.0536 104.964 25.516 105.426C25.9784 105.888 26.6055 106.148 27.2594 106.148ZM41.2194 106.148C41.8733 106.148 42.5004 105.888 42.9628 105.426C43.4251 104.964 43.6849 104.337 43.6849 103.683V91.6951C43.6849 91.0412 43.4251 90.4141 42.9628 89.9517C42.5004 89.4894 41.8733 89.2296 41.2194 89.2296C40.5654 89.2296 39.9383 89.4894 39.4759 89.9517C39.0136 90.4141 38.7538 91.0412 38.7538 91.6951V103.683C38.7538 104.337 39.0136 104.964 39.4759 105.426C39.9383 105.888 40.5654 106.148 41.2194 106.148ZM55.1793 106.148C55.8332 106.148 56.4603 105.888 56.9227 105.426C57.3851 104.964 57.6448 104.337 57.6448 103.683V79.5696C57.6448 78.9157 57.3851 78.2886 56.9227 77.8262C56.4603 77.3638 55.8332 77.104 55.1793 77.104C54.5254 77.104 53.8983 77.3638 53.4359 77.8262C52.9735 78.2886 52.7137 78.9157 52.7137 79.5696V103.683C52.7137 104.337 52.9735 104.964 53.4359 105.426C53.8983 105.888 54.5254 106.148 55.1793 106.148ZM69.1367 106.148C69.7906 106.148 70.4178 105.888 70.8801 105.426C71.3425 104.964 71.6023 104.337 71.6023 103.683V79.5696C71.6023 78.9157 71.3425 78.2886 70.8801 77.8262C70.4178 77.3638 69.7906 77.104 69.1367 77.104C68.4828 77.104 67.8557 77.3638 67.3933 77.8262C66.931 78.2886 66.6712 78.9157 66.6712 79.5696V103.683C66.6712 104.337 66.931 104.964 67.3933 105.426C67.8557 105.888 68.4828 106.148 69.1367 106.148ZM83.0967 106.148C83.7506 106.148 84.3777 105.888 84.8401 105.426C85.3024 104.964 85.5622 104.337 85.5622 103.683V91.6951C85.5622 91.0412 85.3024 90.4141 84.8401 89.9517C84.3777 89.4894 83.7506 89.2296 83.0967 89.2296C82.4428 89.2296 81.8156 89.4894 81.3533 89.9517C80.8909 90.4141 80.6311 91.0412 80.6311 91.6951V103.683C80.6311 104.337 80.8909 104.964 81.3533 105.426C81.8156 105.888 82.4428 106.148 83.0967 106.148ZM97.0566 106.148C97.7105 106.148 98.3376 105.888 98.8 105.426C99.2624 104.964 99.5221 104.337 99.5221 103.683V91.6951C99.5221 91.0412 99.2624 90.4141 98.8 89.9517C98.3376 89.4894 97.7105 89.2296 97.0566 89.2296C96.4027 89.2296 95.7756 89.4894 95.3132 89.9517C94.8508 90.4141 94.591 91.0412 94.591 91.6951V103.683C94.591 104.337 94.8508 104.964 95.3132 105.426C95.7756 105.888 96.4027 106.148 97.0566 106.148Z" fill="#EDEDED"/>
</svg>
