<svg width="118" height="118" viewBox="0 0 118 118" fill="none" xmlns="http://www.w3.org/2000/svg">
<path d="M76.8769 99.8468L71.8139 96.6821V70.642C71.8139 63.9277 68.4775 57.6984 62.8917 53.9733C60.5341 52.3975 57.8674 51.343 55.0697 50.8804L48.7856 49.833L47.6118 45.4757C50.3591 43.7887 52.4974 41.2703 53.7166 38.2859H54.83C58.9929 38.2859 62.3784 34.9004 62.3784 30.7375C62.3784 29.124 61.8594 27.6332 60.9932 26.4047L61.014 26.3651C61.9089 24.5682 62.3759 22.5886 62.3784 20.5811C62.3864 18.1772 61.7208 15.8191 60.457 13.7742C59.1932 11.7293 57.3818 10.0793 55.2282 9.01135L54.8092 8.80188C54.7551 6.59612 53.842 4.49864 52.2643 2.95618C50.6866 1.41373 48.569 0.5482 46.3626 0.543945H34.0719C27.0576 0.543945 21.3038 6.03728 20.8868 12.9478L20.5188 13.3158C19.4278 14.4006 18.5629 15.6911 17.974 17.1125C17.3851 18.5338 17.084 20.0579 17.0881 21.5964C17.0881 22.857 17.2881 24.1025 17.6882 25.2989L18.2033 26.8425C17.4803 28.0135 17.0944 29.3613 17.0881 30.7375C17.0881 34.9004 20.4735 38.2859 24.6364 38.2859H25.7479C26.9666 41.2706 29.1051 43.7892 31.8527 45.4757L30.6789 49.833L24.3949 50.8804C21.5812 51.3503 18.9487 52.39 16.5729 53.9733C13.8268 55.8007 11.5754 58.2789 10.019 61.1872C8.46264 64.0955 7.64969 67.3435 7.65257 70.642V92.4173C3.19714 94.544 0.104187 99.0787 0.104187 104.334C0.104187 111.617 6.03156 117.544 13.3139 117.544H62.92L76.8769 108.822C78.4338 107.846 79.3623 106.17 79.3623 104.334C79.3623 102.498 78.4338 100.822 76.8769 99.8468ZM62.92 91.1246H60.4913V79.802H68.0397V94.3232L62.92 91.1246ZM26.5235 94.8988H60.4913V102.447H26.5235V94.8988ZM22.7493 94.8988V113.77H18.9752V94.8988H22.7493ZM26.5235 106.221H60.4913V113.77H26.5235V106.221ZM50.1915 53.8941L46.5947 64.6014L42.2619 59.1855L47.9289 53.5185L50.1915 53.8941ZM54.83 34.5117H54.6998C54.7772 33.8927 54.83 33.2643 54.83 32.6246V26.9633C56.9115 26.9633 58.6042 28.656 58.6042 30.7375C58.6042 32.819 56.9115 34.5117 54.83 34.5117ZM24.6364 34.5117C22.555 34.5117 20.8623 32.819 20.8623 30.7375C20.8623 28.656 22.555 26.9633 24.6364 26.9633V32.6246C24.6364 33.2643 24.6893 33.8927 24.7667 34.5117H24.6364ZM24.6666 23.1891H24.6364C23.4136 23.1891 22.2738 23.5099 21.251 24.0289C20.7972 22.6406 20.7378 21.1536 21.0793 19.7336C21.4208 18.3135 22.1499 17.0162 23.1853 15.9861L24.6364 14.5349V13.7536C24.6364 8.5509 28.8692 4.31814 34.0719 4.31814H46.3626C47.6068 4.31964 48.7997 4.81458 49.6795 5.6944C50.5594 6.57423 51.0543 7.76709 51.0558 9.01135C51.0567 9.9961 50.7475 10.9561 50.172 11.7552C49.5965 12.5543 48.7839 13.1518 47.8496 13.463L46.6872 13.8499L47.8779 17.4297L49.0423 17.0428C50.1206 16.6822 51.1151 16.1076 51.966 15.3533C52.8169 14.5991 53.5067 13.6808 53.994 12.6534C55.8991 13.7346 57.3502 15.4667 58.081 17.5318C58.8117 19.5968 58.773 21.8561 57.972 23.8949C56.9882 23.4346 55.9161 23.1938 54.83 23.1891V19.4149H46.2852C41.0561 19.4149 35.8194 18.1789 31.1432 15.8389L30.2977 15.418L29.4542 15.8408C28.0735 16.5276 26.9016 17.571 26.0599 18.8631C25.2181 20.1551 24.7371 21.6487 24.6666 23.1891ZM28.4106 32.6246V23.6345C28.4106 22.0455 29.156 20.5925 30.3996 19.6716C35.3771 21.9822 40.7976 23.1825 46.2852 23.1891H51.0558V32.6246C51.0558 38.869 45.9776 43.9472 39.7332 43.9472C33.4888 43.9472 28.4106 38.869 28.4106 32.6246ZM39.7332 47.7214C41.2637 47.7214 42.7394 47.4893 44.132 47.0628L45.1756 50.9313L39.7332 56.3756L34.2908 50.9332L35.3344 47.0647C36.7271 47.4893 38.2028 47.7214 39.7332 47.7214ZM31.5376 53.5166L37.2045 59.1836L32.8717 64.5996L29.2749 53.8922L31.5376 53.5166ZM18.6676 57.1134C20.5802 55.8346 22.7439 54.9789 25.0139 54.6036L25.5045 54.5225L31.4979 72.3593L39.7332 62.0652L47.9685 72.3593L53.9619 54.5225L54.4526 54.6036C56.7226 54.9789 58.8862 55.8346 60.7989 57.1134C63.0278 58.5965 64.8554 60.6078 66.1187 62.9682C67.382 65.3286 68.042 67.9648 68.0397 70.642V76.0278H60.4913V68.4794H56.7171V91.1246H22.7493V68.4794H18.9752V76.0278H11.4268V70.642C11.4245 67.9648 12.0844 65.3286 13.3477 62.9682C14.6111 60.6078 16.4386 58.5965 18.6676 57.1134ZM11.4268 79.802H18.9752V91.1246H13.3139C12.6723 91.1246 12.0457 91.1869 11.4268 91.2756V79.802ZM3.87838 104.334C3.87838 99.1315 8.11114 94.8988 13.3139 94.8988H15.201V113.77H13.3139C8.11114 113.77 3.87838 109.537 3.87838 104.334ZM74.8747 105.623L64.2655 112.253V96.4179L74.8747 103.047C75.0935 103.184 75.274 103.373 75.3992 103.599C75.5243 103.824 75.59 104.077 75.59 104.335C75.59 104.593 75.5243 104.846 75.3992 105.072C75.274 105.297 75.0935 105.487 74.8747 105.623ZM83.1364 117.544H117.104V87.3504H83.1364V117.544ZM86.9106 91.1246H113.33V113.77H86.9106V91.1246Z" fill="#EDEDED"/>
<path d="M96.3461 105.44L92.019 101.113L89.3507 103.781L96.3461 110.777L110.89 96.233L108.222 93.5646L96.3461 105.44ZM83.1364 53.3827V83.5762H117.104V53.3827H83.1364ZM113.33 79.802H86.9106V57.1568H113.33V79.802Z" fill="#EDEDED"/>
<path d="M110.89 62.2652L108.222 59.5969L96.3461 71.4724L92.019 67.1452L89.3507 69.8136L96.3461 76.8091L110.89 62.2652ZM47.2816 32.6246H43.5074C43.5074 34.7061 41.8147 36.3988 39.7332 36.3988C37.6518 36.3988 35.959 34.7061 35.959 32.6246H32.1848C32.1848 36.7875 35.5703 40.173 39.7332 40.173C43.8962 40.173 47.2816 36.7875 47.2816 32.6246Z" fill="#EDEDED"/>
<path d="M34.0719 28.8504C35.1141 28.8504 35.959 28.0055 35.959 26.9633C35.959 25.9211 35.1141 25.0762 34.0719 25.0762C33.0297 25.0762 32.1848 25.9211 32.1848 26.9633C32.1848 28.0055 33.0297 28.8504 34.0719 28.8504Z" fill="#EDEDED"/>
<path d="M45.3945 28.8504C46.4367 28.8504 47.2816 28.0055 47.2816 26.9633C47.2816 25.9211 46.4367 25.0762 45.3945 25.0762C44.3523 25.0762 43.5074 25.9211 43.5074 26.9633C43.5074 28.0055 44.3523 28.8504 45.3945 28.8504Z" fill="#EDEDED"/>
<path d="M86.9106 19.4149H113.33V23.1891H86.9106V19.4149ZM86.9106 26.9633H113.33V30.7375H86.9106V26.9633ZM86.9106 34.5117H113.33V38.2859H86.9106V34.5117ZM86.9106 42.0601H90.6848V45.8343H86.9106V42.0601ZM94.459 42.0601H98.2332V45.8343H94.459V42.0601ZM109.556 42.0601H113.33V45.8343H109.556V42.0601ZM102.007 42.0601H105.782V45.8343H102.007V42.0601Z" fill="#EDEDED"/>
</svg>
