<svg width="41" height="41" viewBox="0 0 41 41" fill="none" xmlns="http://www.w3.org/2000/svg">
<path d="M27.2263 34.5717L25.4953 33.4898V24.5872C25.4953 22.2917 24.3547 20.1621 22.445 18.8885C21.639 18.3498 20.7273 17.9893 19.7708 17.8311L17.6224 17.473L17.2211 15.9834C18.1604 15.4066 18.8914 14.5456 19.3082 13.5253H19.6889C21.1121 13.5253 22.2695 12.3679 22.2695 10.9447C22.2695 10.393 22.0921 9.88336 21.796 9.46336L21.8031 9.44981C22.109 8.83548 22.2686 8.15869 22.2695 7.47239C22.2723 6.65054 22.0447 5.84436 21.6126 5.14524C21.1806 4.44612 20.5613 3.88203 19.825 3.51691L19.6818 3.4453C19.6633 2.69119 19.3511 1.9741 18.8117 1.44677C18.2723 0.919433 17.5484 0.623525 16.794 0.62207H12.5921C10.194 0.62207 8.22693 2.50013 8.08435 4.86272L7.95854 4.98852C7.58556 5.3594 7.28984 5.80058 7.08851 6.28652C6.88719 6.77245 6.78424 7.2935 6.78564 7.81949C6.78564 8.25046 6.85403 8.67626 6.9908 9.0853L7.16693 9.61304C6.91973 10.0134 6.78779 10.4742 6.78564 10.9447C6.78564 12.3679 7.94306 13.5253 9.36628 13.5253H9.74628C10.1629 14.5457 10.894 15.4068 11.8334 15.9834L11.4321 17.473L9.2837 17.8311C8.32177 17.9917 7.42177 18.3472 6.60951 18.8885C5.67069 19.5133 4.90096 20.3605 4.36887 21.3548C3.83678 22.3491 3.55885 23.4595 3.55983 24.5872V32.0317C2.03661 32.7588 0.979187 34.3092 0.979187 36.1059C0.979187 38.5956 3.00564 40.6221 5.49532 40.6221H22.4547L27.2263 37.6401C27.7585 37.3066 28.076 36.7337 28.076 36.1059C28.076 35.4782 27.7585 34.9053 27.2263 34.5717ZM22.4547 31.5898H21.6243V27.7188H24.205V32.6834L22.4547 31.5898ZM10.0114 32.8801H21.6243V35.4608H10.0114V32.8801ZM8.72112 32.8801V39.3317H7.4308V32.8801H8.72112ZM10.0114 36.7511H21.6243V39.3317H10.0114V36.7511ZM18.1031 18.8614L16.8734 22.5221L15.3921 20.6705L17.3295 18.733L18.1031 18.8614ZM19.6889 12.235H19.6443C19.6708 12.0234 19.6889 11.8085 19.6889 11.5898V9.65433C20.4005 9.65433 20.9792 10.233 20.9792 10.9447C20.9792 11.6563 20.4005 12.235 19.6889 12.235ZM9.36628 12.235C8.65467 12.235 8.07596 11.6563 8.07596 10.9447C8.07596 10.233 8.65467 9.65433 9.36628 9.65433V11.5898C9.36628 11.8085 9.38435 12.0234 9.4108 12.235H9.36628ZM9.37661 8.36401H9.36628C8.94822 8.36401 8.55854 8.47368 8.20886 8.6511C8.05372 8.17648 8.0334 7.66811 8.15016 7.18263C8.26691 6.69714 8.51617 6.2536 8.87015 5.90142L9.36628 5.4053V5.1382C9.36628 3.35949 10.8134 1.91239 12.5921 1.91239H16.794C17.2194 1.91291 17.6272 2.08212 17.928 2.38291C18.2288 2.6837 18.398 3.09152 18.3985 3.51691C18.3989 3.85358 18.2931 4.18179 18.0964 4.45498C17.8996 4.72817 17.6218 4.93245 17.3024 5.03884L16.905 5.1711L17.3121 6.39497L17.7102 6.26272C18.0788 6.13944 18.4188 5.94298 18.7097 5.68511C19.0006 5.42725 19.2364 5.11329 19.4031 4.76207C20.0544 5.13171 20.5505 5.72388 20.8003 6.42987C21.0501 7.13586 21.0369 7.90827 20.7631 8.6053C20.4267 8.44795 20.0602 8.36562 19.6889 8.36401V7.07368H16.7676C14.9798 7.07368 13.1895 6.6511 11.5908 5.8511L11.3018 5.70723L11.0134 5.85175C10.5414 6.08655 10.1407 6.44329 9.85292 6.88501C9.56514 7.32673 9.40069 7.83736 9.37661 8.36401ZM10.6566 11.5898V8.51626C10.6566 7.97304 10.9114 7.47626 11.3366 7.16142C13.0383 7.95139 14.8915 8.36173 16.7676 8.36401H18.3985V11.5898C18.3985 13.7247 16.6624 15.4608 14.5276 15.4608C12.3927 15.4608 10.6566 13.7247 10.6566 11.5898ZM14.5276 16.7511C15.0508 16.7511 15.5553 16.6717 16.0314 16.5259L16.3882 17.8485L14.5276 19.7098L12.6669 17.8492L13.0237 16.5266C13.4998 16.6717 14.0043 16.7511 14.5276 16.7511ZM11.7256 18.7324L13.6631 20.6698L12.1818 22.5214L10.9521 18.8608L11.7256 18.7324ZM7.32564 19.9621C7.97953 19.5248 8.71925 19.2323 9.49532 19.104L9.66306 19.0763L11.7121 25.1743L14.5276 21.655L17.3431 25.1743L19.3921 19.0763L19.5598 19.104C20.3359 19.2323 21.0756 19.5248 21.7295 19.9621C22.4915 20.4691 23.1163 21.1567 23.5483 21.9637C23.9802 22.7707 24.2058 23.6719 24.205 24.5872V26.4285H21.6243V23.8479H20.334V31.5898H8.72112V23.8479H7.4308V26.4285H4.85015V24.5872C4.84937 23.6719 5.07499 22.7707 5.5069 21.9637C5.93881 21.1567 6.56361 20.4691 7.32564 19.9621ZM4.85015 27.7188H7.4308V31.5898H5.49532C5.27596 31.5898 5.06177 31.6111 4.85015 31.6414V27.7188ZM2.26951 36.1059C2.26951 34.3272 3.71661 32.8801 5.49532 32.8801H6.14048V39.3317H5.49532C3.71661 39.3317 2.26951 37.8847 2.26951 36.1059ZM26.5418 36.5466L22.9147 38.813V33.3995L26.5418 35.6659C26.6166 35.7125 26.6783 35.7774 26.7211 35.8544C26.7638 35.9315 26.7863 36.0181 26.7863 36.1063C26.7863 36.1944 26.7638 36.2811 26.7211 36.3581C26.6783 36.4351 26.6166 36.5 26.5418 36.5466ZM29.3663 40.6221H40.9792V30.2995H29.3663V40.6221ZM30.6566 31.5898H39.6889V39.3317H30.6566V31.5898Z" fill="#FF9549"/>
<path d="M33.8824 36.484L32.4031 35.0047L31.4908 35.9169L33.8824 38.3085L38.8547 33.3363L37.9424 32.424L33.8824 36.484ZM29.3663 18.6866V29.0092H40.9792V18.6866H29.3663ZM39.6889 27.7188H30.6566V19.9769H39.6889V27.7188Z" fill="#FF9549"/>
<path d="M38.8547 21.7234L37.9424 20.8111L33.8824 24.8711L32.4031 23.3917L31.4908 24.304L33.8824 26.6956L38.8547 21.7234ZM17.1082 11.5898H15.8179C15.8179 12.3014 15.2392 12.8801 14.5276 12.8801C13.816 12.8801 13.2373 12.3014 13.2373 11.5898H11.9469C11.9469 13.013 13.1043 14.1705 14.5276 14.1705C15.9508 14.1705 17.1082 13.013 17.1082 11.5898Z" fill="#FF9549"/>
<path d="M12.5921 10.2995C12.9484 10.2995 13.2373 10.0106 13.2373 9.65433C13.2373 9.29802 12.9484 9.00917 12.5921 9.00917C12.2358 9.00917 11.9469 9.29802 11.9469 9.65433C11.9469 10.0106 12.2358 10.2995 12.5921 10.2995Z" fill="#FF9549"/>
<path d="M16.4631 10.2995C16.8194 10.2995 17.1082 10.0106 17.1082 9.65433C17.1082 9.29802 16.8194 9.00917 16.4631 9.00917C16.1067 9.00917 15.8179 9.29802 15.8179 9.65433C15.8179 10.0106 16.1067 10.2995 16.4631 10.2995Z" fill="#FF9549"/>
<path d="M30.6566 7.07368H39.6889V8.36401H30.6566V7.07368ZM30.6566 9.65433H39.6889V10.9447H30.6566V9.65433ZM30.6566 12.235H39.6889V13.5253H30.6566V12.235ZM30.6566 14.8156H31.9469V16.1059H30.6566V14.8156ZM33.2373 14.8156H34.5276V16.1059H33.2373V14.8156ZM38.3985 14.8156H39.6889V16.1059H38.3985V14.8156ZM35.8179 14.8156H37.1082V16.1059H35.8179V14.8156Z" fill="#FF9549"/>
</svg>
