<svg width="41" height="41" viewBox="0 0 41 41" fill="none" xmlns="http://www.w3.org/2000/svg">
<path d="M40.739 9.5604C40.6707 9.30686 40.5532 9.06925 40.393 8.86115C40.2329 8.65304 40.0334 8.47851 39.8058 8.34753C39.5781 8.2159 39.3267 8.13048 39.066 8.09614C38.8052 8.06179 38.5402 8.07921 38.2862 8.1474C37.774 8.28526 37.3376 8.62093 37.0729 9.08057L36.7396 9.66047C36.5873 9.57306 36.4067 9.54926 36.237 9.59423C36.0673 9.63921 35.9222 9.74933 35.8332 9.90068L34.1401 12.7865L33.5602 12.4532C33.4841 12.4092 33.4001 12.3807 33.313 12.3692C33.2258 12.3578 33.1373 12.3636 33.0524 12.3865C32.9675 12.4095 32.888 12.449 32.8184 12.5028C32.7488 12.5566 32.6905 12.6235 32.6469 12.6999C32.4662 13.0186 32.5762 13.4234 32.8936 13.6064L33.4736 13.9397L27.8079 23.758L26.4081 27.4975L25.7416 28.7437C25.5504 29.076 25.4589 29.4563 25.4778 29.8393C25.4967 30.2222 25.6253 30.5916 25.8482 30.9035L24.3485 32.743L23.9286 31.6901C23.8359 31.4601 23.6808 31.2605 23.4808 31.1138C23.2808 30.9672 23.0439 30.8792 22.7966 30.8598C22.5494 30.8404 22.3016 30.8903 22.0812 31.004C21.8607 31.1176 21.6764 31.2906 21.5489 31.5033L21.309 31.9099L21.0824 29.2437C21.0571 28.9377 20.927 28.6499 20.7141 28.4287C20.5012 28.2075 20.2185 28.0666 19.9137 28.0297C19.6089 27.9929 19.3007 28.0624 19.0412 28.2266C18.7818 28.3907 18.5869 28.6393 18.4895 28.9305L16.8497 33.8497C16.7947 34.0167 16.808 34.1988 16.8867 34.3561C16.9653 34.5135 17.103 34.6333 17.2697 34.6896C17.3347 34.72 17.4047 34.738 17.4763 34.7427C17.616 34.7431 17.7524 34.6996 17.866 34.6183C17.9797 34.537 18.0649 34.422 18.1097 34.2897L19.7425 29.3705L19.9759 32.0765C19.9992 32.3579 20.1113 32.6245 20.2959 32.8381C20.4806 33.0517 20.7282 33.2011 21.0032 33.2649C21.2783 33.3286 21.5664 33.3035 21.8262 33.193C22.086 33.0825 22.304 32.8924 22.4488 32.65L22.6954 32.2432L23.1088 33.2899C23.195 33.5067 23.3366 33.6971 23.5195 33.842C23.7024 33.987 23.9201 34.0813 24.1508 34.1157C24.3816 34.1501 24.6174 34.1233 24.8345 34.038C25.0517 33.9528 25.2427 33.8119 25.3884 33.6297L26.9414 31.6635C27.1133 31.7084 27.2903 31.7308 27.468 31.7302C27.8191 31.7329 28.1647 31.6431 28.4701 31.4699C28.7755 31.2967 29.0299 31.0461 29.2077 30.7434L29.8743 29.6303L32.4138 26.5443L38.1394 16.6058L38.7193 16.9391C38.7958 16.9828 38.8629 17.0413 38.9167 17.1111C38.9705 17.1809 39.0098 17.2607 39.0325 17.3459C39.0554 17.4305 39.0612 17.5188 39.0498 17.6057C39.0384 17.6926 39.01 17.7764 38.9661 17.8523L36.2999 22.4717C36.2501 22.5467 36.216 22.6311 36.1998 22.7197C36.1835 22.8083 36.1854 22.8993 36.2053 22.9871C36.2253 23.0749 36.2628 23.1578 36.3157 23.2307C36.3686 23.3037 36.4357 23.3651 36.513 23.4113C36.5891 23.4555 36.6731 23.4841 36.7603 23.4956C36.8475 23.5072 36.9361 23.5013 37.021 23.4784C37.1059 23.4555 37.1854 23.416 37.255 23.3622C37.3246 23.3084 37.3828 23.2413 37.4263 23.1649L40.0925 18.5456C40.2242 18.3179 40.3096 18.0665 40.3439 17.8057C40.3782 17.5449 40.3607 17.2799 40.2924 17.026C40.1545 16.5138 39.8188 16.0774 39.3592 15.8127L38.7793 15.4794L40.4457 12.5932C40.6276 12.2764 40.5205 11.8723 40.2057 11.6867L40.539 11.1068C40.6743 10.8756 40.7616 10.6196 40.796 10.3539C40.8303 10.0883 40.811 9.81841 40.739 9.5604ZM38.2261 9.74704C38.2698 9.67054 38.3283 9.60346 38.3981 9.5497C38.4679 9.49594 38.5477 9.45656 38.6328 9.43384C38.804 9.3915 38.9849 9.41533 39.1393 9.50058C39.2158 9.54429 39.2828 9.60272 39.3366 9.67249C39.3904 9.74226 39.4299 9.822 39.4527 9.90709C39.495 10.0783 39.4712 10.2591 39.386 10.4135L39.0527 10.9935L37.8927 10.3269L38.2261 9.74704ZM29.141 28.3573L27.8212 27.5905L28.7677 25.0577L30.8673 26.2707L29.141 28.3573ZM27.1413 30.2834C27.0054 30.1888 26.9097 30.0469 26.8727 29.8854C26.8358 29.724 26.8603 29.5546 26.9415 29.4102L27.2748 28.8305L28.4344 29.4971L28.1011 30.0702C28.055 30.1503 27.9927 30.22 27.9181 30.2747C27.8436 30.3295 27.7585 30.3681 27.6682 30.3882C27.5779 30.4082 27.4845 30.4092 27.3938 30.3912C27.3031 30.3732 27.2171 30.3365 27.1413 30.2834ZM31.6272 25.1778L29.3209 23.8447L34.6534 14.606L36.9596 15.9391L31.6272 25.1778ZM37.6262 14.7861L35.3199 13.453L36.653 11.1467L38.9593 12.4798L37.6262 14.7861ZM11.3305 29.9502L8.97127 32.3033L7.55801 30.8901C7.4331 30.7659 7.26415 30.6963 7.08805 30.6963C6.91195 30.6963 6.743 30.7659 6.61809 30.8901C6.5556 30.952 6.50601 31.0258 6.47216 31.107C6.43831 31.1882 6.42089 31.2753 6.42089 31.3633C6.42089 31.4513 6.43831 31.5384 6.47216 31.6197C6.50601 31.7009 6.5556 31.7746 6.61809 31.8366L8.03118 33.2497C8.28113 33.4977 8.61899 33.6367 8.97118 33.6363C9.32529 33.6383 9.66606 33.4993 9.91769 33.2497L12.2704 30.8901C12.3796 30.7625 12.4366 30.5985 12.43 30.4308C12.4235 30.2631 12.354 30.104 12.2353 29.9853C12.1166 29.8666 11.9575 29.7971 11.7898 29.7906C11.6221 29.784 11.4581 29.8411 11.3305 29.9502Z" fill="#FF9549"/>
<path d="M3.47871 31.7433C3.47871 34.8726 6.01536 37.409 9.1444 37.409C12.2734 37.409 14.8101 34.8726 14.8101 31.7433C14.8101 31.5665 14.7399 31.3969 14.6149 31.2719C14.4899 31.1469 14.3203 31.0767 14.1435 31.0767C13.9668 31.0767 13.7972 31.1469 13.6722 31.2719C13.5472 31.3969 13.477 31.5665 13.477 31.7433C13.477 34.136 11.5372 36.0759 9.1444 36.0759C6.75156 36.0759 4.81181 34.136 4.81181 31.7433C4.81181 29.3505 6.75156 27.4107 9.1444 27.4107C10.0823 27.4079 10.9953 27.7123 11.744 28.2773C11.814 28.3298 11.8936 28.368 11.9784 28.3897C12.0632 28.4115 12.1515 28.4163 12.2381 28.4039C12.3247 28.3915 12.4081 28.3621 12.4834 28.3175C12.5587 28.2729 12.6245 28.2139 12.677 28.1439C12.7295 28.0739 12.7678 27.9942 12.7895 27.9094C12.8113 27.8246 12.8161 27.7364 12.8038 27.6497C12.7914 27.5631 12.7621 27.4797 12.7175 27.4044C12.6729 27.329 12.6139 27.2632 12.5439 27.2107C11.7022 26.5794 10.7012 26.1949 9.6533 26.1004C8.60536 26.0059 7.5518 26.2051 6.61068 26.6756C5.66957 27.1462 4.87808 27.8695 4.3249 28.7645C3.77172 29.6596 3.47871 30.691 3.47871 31.7432V31.7433ZM24.8084 5.41445C24.9852 5.41445 25.1547 5.34422 25.2797 5.21922C25.4047 5.09422 25.4749 4.92468 25.4749 4.7479C25.4749 4.57112 25.4047 4.40158 25.2797 4.27657C25.1547 4.15157 24.9852 4.08134 24.8084 4.08134H7.47802C7.30124 4.08134 7.1317 4.15157 7.0067 4.27657C6.8817 4.40158 6.81147 4.57112 6.81147 4.7479V7.41411C6.81147 7.78238 7.10992 8.08066 7.47802 8.08066H24.8084C24.9852 8.08066 25.1547 8.01043 25.2797 7.88543C25.4047 7.76043 25.4749 7.59089 25.4749 7.41411C25.4749 7.23733 25.4047 7.06779 25.2797 6.94278C25.1547 6.81778 24.9852 6.74755 24.8084 6.74755H8.14457V5.41445H24.8084ZM9.47768 9.41376C9.3009 9.41376 9.13136 9.48399 9.00636 9.60899C8.88135 9.73399 8.81113 9.90353 8.81113 10.0803C8.81113 10.2571 8.88135 10.4266 9.00636 10.5516C9.13136 10.6766 9.3009 10.7469 9.47768 10.7469H22.8087C22.9855 10.7469 23.155 10.6766 23.28 10.5516C23.4051 10.4266 23.4753 10.2571 23.4753 10.0803C23.4753 9.90353 23.4051 9.73399 23.28 9.60899C23.155 9.48399 22.9855 9.41376 22.8087 9.41376H9.47768ZM26.808 14.0796H12.1439C11.9671 14.0796 11.7976 14.1499 11.6726 14.2749C11.5476 14.3999 11.4773 14.5694 11.4773 14.7462C11.4773 14.923 11.5476 15.0925 11.6726 15.2175C11.7976 15.3425 11.9671 15.4127 12.1439 15.4127H26.808C26.9848 15.4127 27.1544 15.3425 27.2794 15.2175C27.4044 15.0925 27.4746 14.923 27.4746 14.7462C27.4746 14.5694 27.4044 14.3999 27.2794 14.2749C27.1544 14.1499 26.9848 14.0796 26.808 14.0796ZM20.1425 18.7455C20.1425 18.5687 20.0723 18.3992 19.9473 18.2742C19.8223 18.1492 19.6527 18.0789 19.476 18.0789H6.14492C5.96814 18.0789 5.7986 18.1492 5.67359 18.2742C5.54859 18.3992 5.47837 18.5687 5.47837 18.7455C5.47837 18.9223 5.54859 19.0918 5.67359 19.2168C5.7986 19.3418 5.96814 19.412 6.14492 19.412H19.476C19.8441 19.412 20.1425 19.1138 20.1425 18.7455ZM26.808 18.0789H22.1422C21.9654 18.0789 21.7959 18.1492 21.6708 18.2742C21.5458 18.3992 21.4756 18.5687 21.4756 18.7455C21.4756 18.9223 21.5458 19.0918 21.6708 19.2168C21.7959 19.3418 21.9654 19.412 22.1422 19.412H26.808C26.9848 19.412 27.1544 19.3418 27.2794 19.2168C27.4044 19.0918 27.4746 18.9223 27.4746 18.7455C27.4746 18.5687 27.4044 18.3992 27.2794 18.2742C27.1544 18.1492 26.9848 18.0789 26.808 18.0789ZM12.8104 22.7448C12.9872 22.7448 13.1568 22.6746 13.2818 22.5496C13.4068 22.4246 13.477 22.255 13.477 22.0783C13.477 21.9015 13.4068 21.7319 13.2818 21.6069C13.1568 21.4819 12.9872 21.4117 12.8104 21.4117H6.14492C5.96814 21.4117 5.7986 21.4819 5.67359 21.6069C5.54859 21.7319 5.47837 21.9015 5.47837 22.0783C5.47837 22.255 5.54859 22.4246 5.67359 22.5496C5.7986 22.6746 5.96814 22.7448 6.14492 22.7448H12.8104ZM15.4766 22.7448H20.1425C20.3193 22.7448 20.4888 22.6746 20.6138 22.5496C20.7388 22.4246 20.8091 22.255 20.8091 22.0783C20.8091 21.9015 20.7388 21.7319 20.6138 21.6069C20.4888 21.4819 20.3193 21.4117 20.1425 21.4117H15.4766C15.2999 21.4117 15.1303 21.4819 15.0053 21.6069C14.8803 21.7319 14.8101 21.9015 14.8101 22.0783C14.8101 22.255 14.8803 22.4246 15.0053 22.5496C15.1303 22.6746 15.2999 22.7448 15.4766 22.7448Z" fill="#FF9549"/>
<path d="M30.8074 30.7434C30.6306 30.7434 30.461 30.8137 30.336 30.9387C30.211 31.0637 30.1408 31.2332 30.1408 31.41V38.0755C30.1408 38.4438 29.8424 38.7421 29.4742 38.7421H2.81216C2.44405 38.7421 2.1456 38.4438 2.1456 38.0755V2.08169C2.1456 1.90491 2.21583 1.73537 2.34083 1.61036C2.46584 1.48536 2.63538 1.41514 2.81216 1.41514H29.4742C29.651 1.41514 29.8206 1.48536 29.9456 1.61036C30.0706 1.73537 30.1408 1.90491 30.1408 2.08169V14.5995C30.1408 14.7763 30.211 14.9459 30.336 15.0709C30.461 15.1959 30.6306 15.2661 30.8074 15.2661C30.9841 15.2661 31.1537 15.1959 31.2787 15.0709C31.4037 14.9459 31.4739 14.7763 31.4739 14.5995V2.08169C31.4739 0.977378 30.5786 0.0820312 29.4742 0.0820312H2.81216C1.70785 0.0820312 0.8125 0.977378 0.8125 2.08169V38.0755C0.8125 39.1802 1.70785 40.0752 2.81216 40.0752H29.4742C30.5786 40.0752 31.4739 39.1802 31.4739 38.0755V31.41C31.4739 31.2332 31.4037 31.0637 31.2787 30.9387C31.1537 30.8137 30.9841 30.7434 30.8074 30.7434Z" fill="#FF9549"/>
</svg>
