<svg width="41" height="39" viewBox="0 0 41 39" fill="none" xmlns="http://www.w3.org/2000/svg">
<path d="M38.7305 1.53117L37.6695 1.00467C36.0047 0.179144 34.0434 0.733781 33.295 2.24256L30.9439 6.9819C30.595 7.68604 30.9021 8.55739 31.64 8.9601L31.1095 10.0284C30.3474 9.67872 29.4664 9.96086 29.1136 10.6698L28.3467 12.2156C28.2521 12.4066 28.2372 12.6274 28.3053 12.8294C28.3734 13.0314 28.519 13.198 28.71 13.2927L29.366 13.6183L27.4979 17.3801H25.1371V12.9889C25.1371 12.7075 25.2922 12.4342 25.5526 12.2598C26.3749 11.7061 27.0485 10.9588 27.514 10.0836C27.9795 9.20832 28.2227 8.23206 28.2221 7.24073C28.2232 6.15021 27.9299 5.07963 27.3732 4.14192C26.8165 3.20421 26.017 2.43416 25.0591 1.91299C24.9023 1.82708 24.7256 1.78393 24.5468 1.78788C24.3681 1.79183 24.1935 1.84274 24.0406 1.9355C23.7255 2.12279 23.5294 2.46602 23.5294 2.83176V5.93532L22.2208 7.01244C22.1951 7.03495 22.1364 7.03656 22.0938 7.00119L20.7996 5.93532V2.83176C20.7996 2.46602 20.6035 2.12359 20.2892 1.9355C20.1359 1.84276 19.9609 1.79188 19.7818 1.78793C19.6026 1.78398 19.4256 1.8271 19.2683 1.91299C18.3106 2.43426 17.5112 3.20437 16.9547 4.14206C16.3981 5.07976 16.105 6.15029 16.1061 7.24073C16.1055 8.23195 16.3487 9.2081 16.8142 10.0832C17.2797 10.9583 17.9533 11.7055 18.7756 12.259C19.036 12.435 19.192 12.7075 19.192 12.9889V17.3801H13.566L10.9705 10.1321C10.9196 9.99425 10.8981 9.84728 10.9075 9.70066C10.9169 9.55403 10.957 9.41101 11.0251 9.28083C11.1049 9.1323 11.2379 9.01948 11.3975 8.96505C11.5571 8.91062 11.7313 8.91862 11.8852 8.98743C12.0755 9.07419 12.292 9.08341 12.4889 9.01316L13.89 8.51398C14.0687 8.4497 14.2329 8.35073 14.3732 8.22277C14.5136 8.09481 14.6272 7.94038 14.7077 7.76835C14.7881 7.59632 14.8338 7.41009 14.842 7.22036C14.8502 7.03062 14.8209 6.84113 14.7557 6.66278L13.4856 3.16615C13.2316 2.41859 12.4101 2.0207 11.6449 2.28034L10.7526 2.59785C10.1707 2.79478 9.69803 3.24171 9.41669 3.86547C9.38507 3.93082 9.34046 3.98904 9.28559 4.03658C9.23073 4.08412 9.16676 4.11998 9.09758 4.14199C8.9561 4.19183 8.80981 4.19022 8.71094 4.13877C8.07592 3.80358 7.39749 3.73767 6.7906 3.9539L4.82204 4.67653C3.53191 5.15079 2.46925 5.93371 1.74822 6.93769C0.316615 8.93518 0.642967 10.9102 0.966104 11.9109C1.10597 12.345 1.491 12.6553 1.94596 12.7019C2.3961 12.7517 2.82213 12.5331 3.02469 12.1738C3.24012 11.8402 3.47885 11.6352 3.80601 11.5058C4.19828 11.3483 4.687 11.3692 5.14839 11.5669C5.17894 11.5798 5.2127 11.591 5.24646 11.6007C5.55754 11.7317 5.93292 11.968 6.08002 12.3739L7.87094 17.3801H4.66771C4.32927 17.3803 3.99418 17.4471 3.68162 17.5769C3.36907 17.7067 3.08519 17.8969 2.84625 18.1366C2.60732 18.3763 2.41801 18.6608 2.28918 18.9737C2.16035 19.2867 2.09452 19.622 2.09547 19.9604C2.09698 20.5637 2.3105 21.1473 2.69871 21.6091C3.08692 22.071 3.62511 22.3816 4.21917 22.4868V34.3754C4.21917 35.4308 4.59376 36.401 5.21672 37.159H2.0175C1.80432 37.159 1.59986 37.2437 1.44912 37.3944C1.29837 37.5452 1.21368 37.7496 1.21368 37.9628C1.21368 38.176 1.29837 38.3805 1.44912 38.5312C1.59986 38.682 1.80432 38.7667 2.0175 38.7667H39.3567C39.5699 38.7667 39.7743 38.682 39.9251 38.5312C40.0758 38.3805 40.1605 38.176 40.1605 37.9628C40.1605 37.7496 40.0758 37.5452 39.9251 37.3944C39.7743 37.2437 39.5699 37.159 39.3567 37.159H36.1575C36.8037 36.3751 37.1567 35.3905 37.1558 34.3746V22.4884C37.7511 22.3851 38.2908 22.0748 38.6795 21.6123C39.0683 21.1497 39.2811 20.5646 39.2803 19.9604C39.2803 18.5377 38.126 17.3801 36.7081 17.3801H32.9197L33.7171 15.7765L34.3738 16.1029C34.7677 16.2982 35.2524 16.1407 35.4509 15.7395L36.2177 14.1946C36.5578 13.5089 36.2885 12.6352 35.5216 12.2156L36.0522 11.1473C36.8262 11.5018 37.7024 11.2036 38.0481 10.5059L40.396 5.77295C41.146 4.26176 40.3984 2.35911 38.7305 1.53117ZM5.77377 10.079C5.75032 10.0701 5.72645 10.0623 5.70223 10.0557C4.86223 9.7165 3.97803 9.70284 3.21038 10.0131C2.88197 10.1409 2.5784 10.3251 2.31331 10.5573C2.23293 9.7792 2.36717 8.83551 3.05524 7.87494C3.58737 7.13301 4.39119 6.54864 5.37829 6.18531L7.33961 5.46428C7.5687 5.38309 7.82673 5.49 7.9666 5.56315C8.46577 5.82198 9.07587 5.85574 9.63694 5.6572C10.2044 5.45544 10.6618 5.03584 10.8877 4.51657C10.9407 4.39921 11.0613 4.19022 11.2816 4.11627L12.0259 3.85101L13.1898 7.05665L12.2204 7.4023C11.7197 7.26102 11.1856 7.29679 10.7083 7.50356C10.2309 7.71033 9.83943 8.07544 9.59996 8.53729C9.39983 8.91706 9.2963 9.34028 9.29853 9.76955C9.29853 10.075 9.35239 10.3789 9.45769 10.6739L11.8386 17.3215H9.55817L7.59362 11.8306C7.31148 11.05 6.66521 10.4271 5.77377 10.079ZM19.6751 10.9263C19.0711 10.5198 18.5763 9.97107 18.2342 9.32838C17.8922 8.68569 17.7135 7.96876 17.7137 7.24073C17.7137 5.95622 18.2628 4.75611 19.192 3.92174V6.31553C19.1921 6.43401 19.2183 6.551 19.2689 6.65815C19.3195 6.76529 19.3931 6.85992 19.4846 6.93527L21.0673 8.23747C21.7023 8.76879 22.6484 8.76638 23.2561 8.24229L24.8437 6.93527C24.9352 6.86 25.009 6.7654 25.0598 6.65825C25.1105 6.55111 25.1369 6.43407 25.1371 6.31553V3.92255C25.6402 4.37498 26.0336 4.93606 26.2876 5.56322C26.5416 6.19038 26.6493 6.86714 26.6028 7.54216C26.5562 8.21719 26.3565 8.87274 26.0189 9.45909C25.6812 10.0454 25.2144 10.5472 24.654 10.9263C23.9498 11.4013 23.5294 12.1722 23.5294 12.9889V17.3801H20.7996V12.9889C20.7996 12.173 20.3792 11.4021 19.6751 10.9263ZM28.5115 22.5327H31.8876V26.0936C31.8876 26.1716 31.8249 26.2351 31.7461 26.2351H28.6538C28.616 26.2351 28.5799 26.2201 28.5532 26.1934C28.5265 26.1667 28.5115 26.1305 28.5115 26.0928V22.5327ZM9.48662 22.5327H12.8635V26.0936C12.8635 26.1716 12.7992 26.2351 12.7212 26.2351H9.6289C9.59117 26.2351 9.55498 26.2201 9.5283 26.1934C9.50161 26.1667 9.48662 26.1305 9.48662 26.0928V22.5327ZM7.87898 22.5327V26.0936C7.87898 27.0582 8.66431 27.8427 9.6289 27.8427H12.7212C13.1851 27.8421 13.6298 27.6575 13.9579 27.3295C14.2859 27.0014 14.4705 26.5567 14.4711 26.0928V22.5318H26.9039V26.0928C26.9039 27.0574 27.6892 27.8427 28.6538 27.8427H31.7461C32.21 27.8421 32.6547 27.6575 32.9828 27.3295C33.3108 27.0014 33.4954 26.5567 33.496 26.0928V22.5318H35.5482V34.3746C35.5484 35.1104 35.2567 35.8164 34.7371 36.3375C34.2175 36.8585 33.5125 37.1523 32.7766 37.1542H8.5984C7.86267 37.1521 7.15781 36.8582 6.63839 36.3372C6.11898 35.8161 5.82741 35.1103 5.82762 34.3746V22.5327H7.87898ZM37.6727 19.9604C37.6727 20.5183 37.2129 20.925 36.7081 20.925C-19.3585 20.9186 34.795 20.9226 4.66771 20.925C4.13558 20.925 3.70312 20.4917 3.70312 19.9604C3.70312 19.3985 4.15487 18.9878 4.66771 18.9878H36.7081C37.2394 18.9878 37.6727 19.4243 37.6727 19.9604ZM32.2766 15.0635L31.1521 17.3223H29.3218L30.8064 14.3329L32.2766 15.0635ZM38.9564 5.05835L36.6719 9.66264C35.9059 9.31298 35.0265 9.59753 34.6752 10.3041L34.0169 11.6304C33.6753 12.3193 33.9502 13.1922 34.7138 13.6102L34.3682 14.3047L30.1441 12.21L30.4897 11.513C31.2485 11.8595 32.1351 11.5798 32.4864 10.8716L33.1439 9.54529C33.3248 9.18115 33.3368 8.75191 33.1777 8.36608C33.0337 8.02366 32.7763 7.74124 32.4486 7.56627L34.7347 2.95635C35.0892 2.24336 36.0851 2.01347 36.9549 2.44512L38.0159 2.97082C38.8897 3.40488 39.3117 4.34134 38.9564 5.05835Z" fill="#FF9549"/>
<path d="M9.30978 35.0514C9.52297 35.0514 9.72743 34.9667 9.87817 34.816C10.0289 34.6652 10.1136 34.4608 10.1136 34.2476V30.3394C10.1136 30.1262 10.0289 29.9217 9.87817 29.771C9.72743 29.6202 9.52297 29.5356 9.30978 29.5356C9.0966 29.5356 8.89214 29.6202 8.74139 29.771C8.59065 29.9217 8.50596 30.1262 8.50596 30.3394V34.2476C8.50596 34.4608 8.59065 34.6652 8.74139 34.816C8.89214 34.9667 9.0966 35.0514 9.30978 35.0514ZM13.861 35.0514C14.0742 35.0514 14.2787 34.9667 14.4294 34.816C14.5802 34.6652 14.6648 34.4608 14.6648 34.2476V30.3394C14.6648 30.1262 14.5802 29.9217 14.4294 29.771C14.2787 29.6202 14.0742 29.5356 13.861 29.5356C13.6478 29.5356 13.4434 29.6202 13.2926 29.771C13.1419 29.9217 13.0572 30.1262 13.0572 30.3394V34.2476C13.0572 34.4608 13.1419 34.6652 13.2926 34.816C13.4434 34.9667 13.6478 35.0514 13.861 35.0514ZM18.4123 35.0514C18.6255 35.0514 18.8299 34.9667 18.9807 34.816C19.1314 34.6652 19.2161 34.4608 19.2161 34.2476V26.3862C19.2161 26.173 19.1314 25.9685 18.9807 25.8178C18.8299 25.667 18.6255 25.5824 18.4123 25.5824C18.1991 25.5824 17.9946 25.667 17.8439 25.8178C17.6931 25.9685 17.6084 26.173 17.6084 26.3862V34.2476C17.6084 34.4608 17.6931 34.6652 17.8439 34.816C17.9946 34.9667 18.1991 35.0514 18.4123 35.0514ZM22.9627 35.0514C23.1759 35.0514 23.3804 34.9667 23.5311 34.816C23.6818 34.6652 23.7665 34.4608 23.7665 34.2476V26.3862C23.7665 26.173 23.6818 25.9685 23.5311 25.8178C23.3804 25.667 23.1759 25.5824 22.9627 25.5824C22.7495 25.5824 22.5451 25.667 22.3943 25.8178C22.2436 25.9685 22.1589 26.173 22.1589 26.3862V34.2476C22.1589 34.4608 22.2436 34.6652 22.3943 34.816C22.5451 34.9667 22.7495 35.0514 22.9627 35.0514ZM27.514 35.0514C27.7271 35.0514 27.9316 34.9667 28.0823 34.816C28.2331 34.6652 28.3178 34.4608 28.3178 34.2476V30.3394C28.3178 30.1262 28.2331 29.9217 28.0823 29.771C27.9316 29.6202 27.7271 29.5356 27.514 29.5356C27.3008 29.5356 27.0963 29.6202 26.9456 29.771C26.7948 29.9217 26.7101 30.1262 26.7101 30.3394V34.2476C26.7101 34.4608 26.7948 34.6652 26.9456 34.816C27.0963 34.9667 27.3008 35.0514 27.514 35.0514ZM32.0652 35.0514C32.2784 35.0514 32.4828 34.9667 32.6336 34.816C32.7843 34.6652 32.869 34.4608 32.869 34.2476V30.3394C32.869 30.1262 32.7843 29.9217 32.6336 29.771C32.4828 29.6202 32.2784 29.5356 32.0652 29.5356C31.852 29.5356 31.6476 29.6202 31.4968 29.771C31.3461 29.9217 31.2614 30.1262 31.2614 30.3394V34.2476C31.2614 34.4608 31.3461 34.6652 31.4968 34.816C31.6476 34.9667 31.852 35.0514 32.0652 35.0514Z" fill="#FF9549"/>
</svg>
