<svg width="117" height="104" viewBox="0 0 117 104" fill="none" xmlns="http://www.w3.org/2000/svg">
<path fill-rule="evenodd" clip-rule="evenodd" d="M98.1285 44.3493C96.8155 44.3493 95.4757 44.1921 94.1895 43.9302V72.2186C96.7351 71.5638 99.5219 71.5638 102.067 72.2186V43.9302C100.781 44.1921 99.4683 44.3493 98.1285 44.3493ZM17.9558 98.9616V89.7941C17.9558 88.7202 18.8668 88.2749 19.8047 88.2749V67.5824C10.7477 69.1278 3.91485 75.4927 3.91485 83.0887V98.9616H10.5334V85.4198C10.5334 83.4554 13.6149 83.4554 13.6149 85.4198V98.9616H17.9558ZM22.913 88.2749H24.3867V67.2157L22.913 67.2419V88.2749ZM27.4683 88.2749H54.2103V67.2157H51.1824L42.2327 85.0269C41.67 86.1271 40.0086 86.1271 39.4459 85.0269L30.4962 67.2157H27.4683V88.2749ZM57.2919 88.2749H58.7656V67.2419L57.2919 67.2157V88.2749ZM61.8471 88.2749C62.8118 88.2749 63.7228 88.7202 63.7228 89.7941V98.9616H68.0369V85.4198C68.0369 83.4554 71.1452 83.4554 71.1452 85.4198V98.9616H77.737V83.0887C77.737 75.4927 70.9309 69.1278 61.8471 67.5824V88.2749ZM60.6413 98.9616V91.3133H21.0373V98.9616H60.6413ZM60.1858 36.8581H58.846V46.209C58.846 52.4167 55.5233 57.891 50.5393 61.0342L51.3968 64.1773C54.3979 64.1773 57.4258 64.0464 60.4269 64.3345C71.9223 65.487 80.8185 73.4497 80.8185 83.0887V100.481C80.8185 101.319 80.1486 102 79.2911 102H2.38749C1.53003 102 0.833344 101.319 0.833344 100.481V83.0887C0.833344 71.9567 12.1947 64.2559 24.1188 64.1773H30.255L31.1393 61.0342C26.1285 57.891 22.8326 52.4167 22.8326 46.209V36.8581H21.4928C16.616 36.8581 15.4102 30.3098 19.7511 28.5025C20.5282 17.5277 29.9067 9.01494 40.8393 9.01494C51.7451 9.01494 61.1236 17.5277 61.9275 28.5025C66.2416 30.3098 65.0358 36.8581 60.1858 36.8581ZM21.3588 31.2004C19.6975 31.3575 19.8047 33.8459 21.4928 33.8459H60.1858C62.0079 33.8459 61.8203 31.1742 60.1858 31.1742H21.466L21.3588 31.2004ZM46.0109 28.162V12.7867C42.715 11.7914 38.9368 11.7914 35.6677 12.7867V28.162H46.0109ZM49.0924 14.044V28.162H58.7924C58.1493 22.0329 54.3711 16.7943 49.0924 14.044ZM32.5594 28.162V14.044C27.3075 16.7943 23.5293 22.0329 22.8862 28.162H32.5594ZM40.8393 63.8106C38.4009 63.8106 36.0697 63.3392 33.926 62.4748L33.0953 65.5394L40.8393 80.9408L48.5833 65.5394L47.7258 62.4748C45.6089 63.3392 43.2777 63.8106 40.8393 63.8106ZM25.9141 36.8581V46.209C25.9141 54.355 32.747 60.7985 40.8393 60.7985C48.9048 60.7985 55.7377 54.355 55.7377 46.209V36.8581H25.9141ZM98.1285 96.2637C97.2442 96.2637 91.5367 92.7801 90.3845 92.1252C89.9022 91.8371 89.6075 91.3395 89.6075 90.8156V82.9053C89.6075 82.3815 89.9022 81.8838 90.3845 81.5957L97.3514 77.6667C97.8337 77.4048 98.4232 77.4048 98.9056 77.6667L105.899 81.5957C106.382 81.8838 106.676 82.3815 106.676 82.9053V90.8156C106.676 91.3395 106.382 91.8371 105.899 92.1252C104.72 92.7801 99.0127 96.2637 98.1285 96.2637ZM92.6889 89.925L98.1285 93.0158L103.568 89.925V83.7959L98.1285 80.7313L92.6889 83.7959V89.925ZM98.1285 65.9585C97.271 65.9585 96.6011 65.2775 96.6011 64.4655V51.8405C96.6011 49.9022 99.6826 49.9022 99.6826 51.8405V64.4655C99.6826 65.2775 98.9859 65.9585 98.1285 65.9585ZM98.1285 102C89.6075 102 82.6674 95.1898 82.6674 86.8605C82.6674 80.9932 86.0972 75.9118 91.108 73.3973V42.9872C75.8077 36.9105 75.3789 15.5108 90.84 9.11972C91.8583 8.70063 93.0105 9.46023 93.0105 10.5079V24.495H103.273V10.5079C103.273 9.43403 104.425 8.70063 105.417 9.11972C120.905 15.4846 120.449 36.9367 105.176 42.9872V73.3973C110.187 75.9118 113.616 80.9932 113.616 86.8605C113.616 95.1898 106.676 102 98.1285 102ZM95.3417 75.0736C89.8486 76.3047 85.7489 81.1242 85.7489 86.8605C85.7489 93.5397 91.2956 98.9616 98.1285 98.9616C104.961 98.9616 110.508 93.5397 110.508 86.8605C110.508 78.9502 102.845 73.3711 95.3417 75.0736ZM95.6097 41.1013C104.801 42.5681 113.804 35.6008 113.804 26.0142C113.804 20.6446 110.937 15.7465 106.355 12.9701V26.0142C106.355 26.8524 105.658 27.5334 104.827 27.5334H91.4564C90.5989 27.5334 89.9022 26.8524 89.9022 26.0142V12.9701C77.6566 20.3565 81.3812 38.7964 95.6097 41.1013Z" fill="#FF9549"/>
</svg>
