<svg width="32" height="31" viewBox="0 0 32 31" fill="none" xmlns="http://www.w3.org/2000/svg">
<g clip-path="url(#clip0_1_1694)">
<mask id="mask0_1_1694" style="mask-type:luminance" maskUnits="userSpaceOnUse" x="0" y="0" width="32" height="32">
<path d="M31.5 0.00390625H0.5V31.0039H31.5V0.00390625Z" fill="white"/>
</mask>
<g mask="url(#mask0_1_1694)">
<path d="M4.17589 23.0386L4.28926 22.6315L4.07633 22.2664C2.80832 20.0927 2.17817 17.7476 2.17817 15.3109C2.17817 7.73845 8.40202 1.58594 16.0969 1.58594C19.8022 1.58594 23.2224 3.02909 25.7431 5.63991L25.7492 5.64622L25.7554 5.65242C28.3804 8.2774 29.8219 11.7056 29.8219 15.4078C29.8219 22.993 23.5853 29.2297 16.0001 29.2297C13.7552 29.2297 11.4002 28.5983 9.40703 27.5112L9.05993 27.3218L8.67721 27.4211L2.5102 29.0199L4.17589 23.0386Z" fill="url(#paint0_linear_1_1694)" stroke="white" stroke-width="2"/>
<path fill-rule="evenodd" clip-rule="evenodd" d="M12.2219 8.91641C11.9313 8.23828 11.6406 8.23828 11.35 8.23828C11.1563 8.23828 10.8656 8.23828 10.575 8.23828C10.2844 8.23828 9.89688 8.33516 9.50938 8.72266C9.21875 9.11016 8.25 10.0789 8.25 11.9195C8.25 13.7602 9.60625 15.6008 9.8 15.8914C9.99375 16.182 12.4156 20.1539 16.3875 21.7039C19.5844 22.9633 20.2625 22.7695 21.0375 22.6727C21.8125 22.5758 23.2656 21.7039 23.6531 20.832C23.9438 19.9602 23.9438 19.1852 23.8469 18.9914C23.75 18.7977 23.4594 18.7008 23.0719 18.507C22.6844 18.3133 20.8438 17.3445 20.4563 17.2477C20.0688 17.1508 19.875 17.0539 19.5844 17.4414C19.2938 17.8289 18.6156 18.7008 18.325 18.9914C18.1313 19.282 17.8406 19.282 17.4531 19.0883C17.0656 18.8945 15.8063 18.507 14.3531 17.1508C13.1906 16.0852 12.4156 14.9227 12.2219 14.5352C12.0281 14.1477 12.2219 13.9539 12.4156 13.7602C12.6094 13.5664 12.8031 13.2758 12.9969 13.082C13.1906 12.8883 13.2875 12.6945 13.3844 12.4039C13.4813 12.1133 13.4813 11.9195 13.3844 11.7258C13.2875 11.6289 12.5125 9.69141 12.2219 8.91641Z" fill="white"/>
</g>
</g>
<defs>
<linearGradient id="paint0_linear_1_1694" x1="15.9953" y1="30.4659" x2="15.9953" y2="0.547576" gradientUnits="userSpaceOnUse">
<stop stop-color="#20B038"/>
<stop offset="1" stop-color="#60D66A"/>
</linearGradient>
<clipPath id="clip0_1_1694">
<rect width="31" height="31" fill="white" transform="translate(0.5 0.00390625)"/>
</clipPath>
</defs>
</svg>
