<svg width="154" height="154" viewBox="0 0 154 154" fill="none" xmlns="http://www.w3.org/2000/svg">
<path d="M27.2607 118.709C25.1187 118.709 23.0596 119.244 21.2328 120.247C11.6095 107.911 6.32752 92.5872 6.32752 76.8883C6.32752 38.0012 37.9636 6.36521 76.851 6.36521C81.5786 6.36521 86.3038 6.83563 90.896 7.76362C92.5115 8.09047 94.0897 7.04457 94.4165 5.42671C94.7434 3.80884 93.6975 2.23299 92.0796 1.90498C87.0987 0.898779 81.9755 0.388672 76.851 0.388672C56.4175 0.388672 37.2061 8.3461 22.7572 22.7948C8.30843 37.2436 0.350952 56.4549 0.350952 76.8883C0.350952 94.0767 6.18744 110.851 16.8134 124.298C15.4453 126.342 14.7099 128.744 14.7099 131.26C14.7099 134.612 16.0161 137.764 18.3869 140.133C20.7565 142.504 23.9082 143.81 27.2607 143.81C30.6132 143.81 33.7649 142.504 36.1357 140.133C38.5064 137.764 39.8115 134.611 39.8115 131.258C39.8115 127.907 38.5064 124.754 36.1357 122.385C33.7649 120.014 30.6132 118.709 27.2607 118.709ZM31.9089 135.908C30.668 137.15 29.0163 137.834 27.2607 137.834C25.5051 137.834 23.8545 137.15 22.6125 135.908C21.3705 134.666 20.6865 133.015 20.6865 131.26C20.6865 129.503 21.3705 127.852 22.6125 126.61C23.8533 125.368 25.5051 124.685 27.2607 124.685C29.0163 124.685 30.6669 125.369 31.9089 126.61C33.1509 127.852 33.8349 129.503 33.8349 131.26C33.8349 133.015 33.1509 134.666 31.9089 135.908Z" fill="#D9D9D9" fill-opacity="0.5"/>
<path d="M136.886 29.476C140.135 24.6026 139.613 17.9396 135.316 13.6428C132.945 11.2732 129.794 9.96704 126.441 9.96704C123.089 9.96704 119.937 11.2732 117.566 13.6428C115.195 16.0136 113.89 19.1653 113.89 22.5178C113.89 25.8702 115.195 29.0219 117.566 31.3927C119.937 33.7635 123.089 35.0685 126.441 35.0685C128.583 35.0685 130.642 34.5339 132.469 33.53C142.092 45.8671 147.374 61.1902 147.374 76.8891C147.374 115.776 115.738 147.412 76.8508 147.412C72.1699 147.412 67.489 146.951 62.9401 146.041C61.3222 145.717 59.7475 146.767 59.423 148.385C59.0997 150.004 60.1491 151.577 61.7669 151.902C66.7011 152.888 71.7765 153.389 76.8508 153.389C97.2843 153.389 116.496 145.431 130.945 130.983C145.393 116.534 153.351 97.3225 153.351 76.8891C153.351 59.6995 147.513 42.9244 136.886 29.476ZM121.793 27.1671C120.551 25.9251 119.867 24.2745 119.867 22.5178C119.867 20.7622 120.551 19.1116 121.793 17.8696C123.034 16.6276 124.686 15.9436 126.441 15.9436C128.197 15.9436 129.848 16.6276 131.09 17.8696C133.653 20.433 133.653 24.6037 131.09 27.1671C129.848 28.4079 128.197 29.092 126.441 29.092C124.684 29.092 123.034 28.4079 121.793 27.1671Z" fill="#D9D9D9" fill-opacity="0.5"/>
<path d="M64.5195 128.287C64.5195 129.937 65.8584 131.275 67.5078 131.275H86.1928C87.8433 131.275 89.181 129.937 89.181 128.287V122.493C93.1102 121.436 96.8665 119.879 100.396 117.845L104.487 121.935C105.047 122.496 105.807 122.811 106.601 122.811C107.392 122.811 108.153 122.496 108.713 121.934L121.92 108.718C123.086 107.551 123.086 105.659 121.92 104.493L117.835 100.407C119.868 96.8771 121.425 93.1208 122.483 89.1917H128.254C129.905 89.1917 131.242 87.854 131.242 86.2034V67.5186C131.242 65.868 129.905 64.5303 128.254 64.5303H122.482C121.424 60.6024 119.868 56.846 117.835 53.3161L121.898 49.2528C122.458 48.6925 122.774 47.9314 122.774 47.1388C122.772 46.3462 122.457 45.5852 121.897 45.0249L108.68 31.8181C107.513 30.652 105.621 30.652 104.454 31.8193L100.396 35.878C96.8665 33.8445 93.1102 32.2874 89.181 31.2298V25.4902C89.181 23.8397 87.8433 22.502 86.1928 22.502H67.5078C65.8584 22.502 64.5195 23.8397 64.5195 25.4902V31.231C60.5916 32.2874 56.8352 33.8445 53.3053 35.878L49.2466 31.8193C48.0805 30.6532 46.1883 30.652 45.021 31.8181L31.8048 45.026C31.2433 45.5863 30.9282 46.3462 30.9282 47.1388C30.9282 47.9314 31.2433 48.6925 31.8036 49.2528L35.867 53.3161C33.8336 56.846 32.2764 60.6012 31.2188 64.5303H25.4582C23.8076 64.5303 22.4699 65.868 22.4699 67.5174L22.4594 86.2023C22.4582 86.9948 22.7734 87.7559 23.3337 88.3162C23.894 88.8765 24.6539 89.1917 25.4477 89.1917H31.2188C32.2764 93.1208 33.8336 96.8771 35.867 100.407L31.7815 104.493C30.6153 105.659 30.6142 107.551 31.7815 108.718L44.9883 121.934C45.5486 122.495 46.3085 122.811 47.1011 122.811H47.1023C47.8949 122.811 48.6548 122.496 49.2151 121.935L53.3041 117.845C56.8352 119.879 60.5916 121.436 64.5195 122.493V128.287ZM54.4761 111.561C53.2936 110.796 51.7376 110.962 50.7407 111.957L47.1023 115.596L38.1199 106.607L41.7549 102.97C42.7506 101.975 42.9163 100.419 42.1517 99.2362C39.4424 95.0433 37.5374 90.4477 36.4915 85.5754C36.195 84.1992 34.9787 83.2152 33.5698 83.2152H28.4372L28.4442 70.5068H33.5698C34.9787 70.5068 36.195 69.524 36.4915 68.1466C37.5374 63.2755 39.4424 58.6798 42.1517 54.4869C42.9163 53.3045 42.7506 51.7485 41.7549 50.7528L38.1432 47.14L47.1326 38.1577L50.7407 41.7669C51.7376 42.7626 53.2924 42.9272 54.4761 42.1638C58.6679 39.4545 63.2635 37.5495 68.1358 36.5036C69.5121 36.2071 70.4961 34.9896 70.4961 33.5819V28.4785H83.2045V33.5807C83.2045 34.9896 84.1873 36.2071 85.5647 36.5025C90.4359 37.5495 95.0327 39.4534 99.2245 42.1627C100.407 42.9272 101.963 42.7626 102.959 41.7658L106.568 38.1577L115.557 47.14L111.946 50.7516C110.949 51.7485 110.784 53.3045 111.549 54.4869C114.258 58.6798 116.162 63.2755 117.209 68.1466C117.504 69.524 118.722 70.5068 120.131 70.5068H125.266V83.2152H120.131C118.722 83.2152 117.506 84.1992 117.209 85.5754C116.163 90.4465 114.258 95.0433 111.549 99.2351C110.784 100.419 110.95 101.975 111.946 102.97L115.581 106.605L106.598 115.595L102.96 111.957C101.963 110.961 100.407 110.796 99.2245 111.561C95.0315 114.27 90.4359 116.174 85.5647 117.221C84.1873 117.517 83.2045 118.734 83.2045 120.142V125.298H70.4961V120.142C70.4961 118.735 69.5121 117.517 68.1358 117.221C63.2647 116.175 58.669 114.27 54.4761 111.561Z" fill="#D9D9D9" fill-opacity="0.5"/>
<path d="M101.542 76.889C101.542 63.2737 90.4658 52.1973 76.8504 52.1973C63.2351 52.1973 52.1586 63.2737 52.1586 76.889C52.1586 90.5043 63.2351 101.581 76.8504 101.581C90.4658 101.581 101.542 90.5043 101.542 76.889ZM58.1351 76.889C58.1351 66.569 66.5303 58.1738 76.8504 58.1738C87.1705 58.1738 95.5657 66.5701 95.5657 76.889C95.5657 87.2079 87.1705 95.6042 76.8504 95.6042C66.5303 95.6042 58.1351 87.209 58.1351 76.889Z" fill="#D9D9D9" fill-opacity="0.5"/>
<path d="M104.366 11.691C105.153 11.691 105.924 11.3711 106.479 10.8155C107.035 10.2564 107.355 9.48596 107.355 8.6992C107.355 7.91712 107.036 7.14554 106.479 6.58641C105.924 6.03078 105.153 5.71094 104.366 5.71094C103.577 5.71094 102.81 6.03078 102.255 6.58641C101.698 7.14554 101.378 7.91362 101.378 8.6992C101.378 9.48829 101.698 10.2564 102.255 10.8155C102.81 11.3711 103.577 11.691 104.366 11.691Z" fill="#D9D9D9" fill-opacity="0.5"/>
<path d="M49.4662 142.141C48.6806 142.141 47.909 142.46 47.3534 143.016C46.7977 143.572 46.4779 144.343 46.4779 145.129C46.4779 145.918 46.7977 146.686 47.3534 147.242C47.909 147.797 48.6806 148.117 49.4662 148.117C50.2518 148.117 51.0234 147.797 51.579 147.242C52.1346 146.686 52.4545 145.914 52.4545 145.129C52.4545 144.343 52.1346 143.572 51.579 143.016C51.0234 142.46 50.2518 142.141 49.4662 142.141Z" fill="#D9D9D9" fill-opacity="0.5"/>
</svg>
