<svg width="44" height="43" viewBox="0 0 44 43" fill="none" xmlns="http://www.w3.org/2000/svg">
<path d="M22.9442 18.346C22.6171 18.3291 22.3176 18.5368 22.2163 18.8559C22.214 18.8631 22.2118 18.8704 22.2098 18.8778L21.4546 21.5882L20.6713 18.8714C20.6691 18.8638 20.6668 18.8563 20.6643 18.8488C20.5598 18.5306 20.2573 18.3235 19.931 18.3468C19.6037 18.3693 19.3319 18.6151 19.2687 18.9518L18.4754 23.4485C18.4145 23.7936 18.6386 24.1238 18.9759 24.1861C19.313 24.2483 19.6359 24.0192 19.6968 23.674L20.1012 21.3815L20.7715 23.7059C20.7736 23.7134 20.7759 23.7208 20.7783 23.7283C20.8774 24.0301 21.1523 24.2322 21.4632 24.2322H21.4669C21.7793 24.2306 22.054 24.0253 22.1504 23.7213C22.1527 23.714 22.1549 23.7066 22.1569 23.6993L22.8039 21.3771L23.2341 23.6805C23.2984 24.0249 23.6241 24.2509 23.9601 24.1848C24.2967 24.1191 24.5174 23.7864 24.453 23.4421L23.6113 18.9364C23.546 18.6077 23.2715 18.365 22.9442 18.346Z" fill="#FF9549"/>
<path d="M38.6102 18.346C38.284 18.3291 37.9837 18.5369 37.8824 18.8559C37.8801 18.8632 37.8779 18.8705 37.8758 18.8778L37.1207 21.5883L36.3373 18.8715C36.3351 18.8639 36.3327 18.8563 36.3303 18.8489C36.2258 18.5307 35.9233 18.3231 35.5971 18.3468C35.2698 18.3693 34.998 18.6152 34.9347 18.9518L34.1414 23.4486C34.0806 23.7936 34.3046 24.1238 34.6419 24.1862C34.9787 24.2484 35.302 24.0192 35.3628 23.6741L35.7672 21.3816L36.4374 23.7059C36.4396 23.7136 36.442 23.7212 36.4445 23.7288C36.5437 24.0304 36.8185 24.2324 37.1292 24.2323H37.133C37.4453 24.2306 37.72 24.0254 37.8164 23.7216C37.8188 23.7142 37.821 23.7068 37.8231 23.6993L38.47 21.3773L38.9002 23.6805C38.9645 24.025 39.2902 24.251 39.6262 24.1849C39.9627 24.1191 40.1835 23.7865 40.1191 23.4421L39.2774 18.9364C39.212 18.6078 38.9376 18.365 38.6102 18.346Z" fill="#FF9549"/>
<path d="M25.8141 18.9799V23.5976C25.8141 23.9483 26.0918 24.2325 26.4346 24.2325C26.7774 24.2325 27.0551 23.9483 27.0551 23.5976V18.9799C27.0551 18.6291 26.7774 18.345 26.4346 18.345C26.0918 18.345 25.8141 18.6291 25.8141 18.9799Z" fill="#FF9549"/>
<path d="M16.4944 19.6148C16.8371 19.6148 17.115 19.3306 17.115 18.9799C17.115 18.6291 16.8371 18.345 16.4944 18.345H14.5928C14.2501 18.345 13.9723 18.6291 13.9723 18.9799V23.5976C13.9723 23.9483 14.2501 24.2325 14.5928 24.2325H16.4944C16.8371 24.2325 17.115 23.9483 17.115 23.5976C17.115 23.2469 16.8371 22.9627 16.4944 22.9627H15.2133V21.9236H16.3543C16.697 21.9236 16.9748 21.6394 16.9748 21.2887C16.9748 20.938 16.697 20.6538 16.3543 20.6538H15.2133V19.6148H16.4944Z" fill="#FF9549"/>
<path d="M29.0254 18.345C28.6826 18.345 28.4049 18.6291 28.4049 18.9799V22.1573C28.4049 22.8751 28.7395 23.4577 29.3994 23.8891C29.7469 24.1163 30.1389 24.2318 30.5645 24.2325H30.568C30.9342 24.2325 31.278 24.1509 31.5901 23.9901C32.5753 23.4825 32.7821 22.7114 32.7821 22.1541V18.98C32.7821 18.6292 32.5044 18.3451 32.1616 18.3451C31.8188 18.3451 31.5411 18.6292 31.5411 18.98V22.1541C31.5411 22.3714 31.4806 22.6249 31.0318 22.8561C30.8926 22.9279 30.7409 22.9628 30.5681 22.9628C30.5676 22.9628 30.5669 22.9628 30.5664 22.9628C30.3783 22.9625 30.2151 22.9155 30.0677 22.8192C29.7167 22.5897 29.6461 22.3959 29.6461 22.1575V18.98C29.6459 18.6291 29.3682 18.345 29.0254 18.345Z" fill="#FF9549"/>
<path d="M12.6223 20.18C12.6223 19.1682 11.7879 18.345 10.7624 18.345H9.56303C9.2205 18.345 8.94266 18.629 8.9425 18.9794L8.94101 23.5976C8.94101 23.9483 9.21884 24.2325 9.56154 24.2325C9.90424 24.2325 10.1821 23.9483 10.1821 23.5976V22.4433L11.5358 24.017C11.6584 24.1597 11.8297 24.2325 12.0019 24.2325C12.1475 24.2325 12.2937 24.1803 12.4116 24.0742C12.6688 23.8426 12.6939 23.4413 12.4675 23.1781L11.3777 21.9113C12.1017 21.6601 12.6223 20.979 12.6223 20.18ZM10.7624 20.7452C10.6264 20.7452 10.4015 20.7461 10.1826 20.7471L10.1832 19.6148H10.7624C11.0978 19.6148 11.3812 19.8736 11.3812 20.18C11.3812 20.4863 11.0978 20.7452 10.7624 20.7452Z" fill="#FF9549"/>
<path d="M4.41579 18.3451C4.07309 18.3451 3.79526 18.6292 3.79526 18.98V23.5977C3.79526 23.9484 4.07309 24.2326 4.41579 24.2326C4.75849 24.2326 5.03632 23.9484 5.03632 23.5977V22.2233C5.27411 22.2222 5.52406 22.221 5.6725 22.221C6.73071 22.221 7.5916 21.3517 7.5916 20.283C7.5916 19.2144 6.73071 18.345 5.6725 18.345L4.41579 18.3451ZM6.35053 20.283C6.35053 20.6452 6.04002 20.9513 5.6725 20.9513C5.52398 20.9513 5.27436 20.9524 5.03632 20.9535V19.6148H5.6725C6.04002 19.6148 6.35053 19.9209 6.35053 20.283Z" fill="#FF9549"/>
<path d="M1.40236 16.4517H42.523C42.8658 16.4517 43.1436 16.1675 43.1436 15.8168C43.1436 15.4661 42.8658 15.1819 42.523 15.1819H40.6656C40.6883 15.1171 40.711 15.0521 40.7343 14.9859C41.1082 13.9251 41.4945 12.828 41.0498 11.8839C40.5967 10.9235 39.5046 10.5466 38.4485 10.1821C37.7267 9.93302 36.9802 9.67542 36.6761 9.28602C36.3686 8.89162 36.2879 8.0859 36.2098 7.30675C36.0967 6.17639 35.9796 5.00767 35.1702 4.34628C34.5897 3.87189 33.8403 3.83862 33.3275 3.85479C32.985 3.86554 32.7158 4.15844 32.7264 4.50898C32.737 4.85953 33.0219 5.13863 33.3658 5.12398C33.8632 5.10832 34.2 5.1785 34.3958 5.33849C34.7981 5.66737 34.8883 6.56655 34.9753 7.43619C35.0716 8.39767 35.1711 9.392 35.7064 10.0783C36.2383 10.7593 37.1602 11.0775 38.052 11.3852C38.8651 11.6658 39.7059 11.956 39.9322 12.4354C40.1505 12.8988 39.8538 13.7409 39.5669 14.5552C39.4944 14.7611 39.4204 14.971 39.352 15.1817H35.5077C34.394 12.5979 32.607 10.3929 30.3165 8.7875C27.8511 7.05948 24.9624 6.14608 21.9627 6.14608C19.2031 6.14608 16.5107 6.9287 14.1769 8.40927C13.8856 8.59407 13.7959 8.98542 13.9765 9.2834C14.1571 9.58146 14.5396 9.67314 14.8309 9.48842C16.9682 8.13254 19.4343 7.41587 21.9627 7.41587C24.7109 7.41587 27.357 8.25241 29.6151 9.83508C31.5614 11.1993 33.1122 13.0349 34.141 15.1818H9.78544C10.4948 13.7084 11.4677 12.3535 12.6332 11.2228C12.8819 10.9815 12.8923 10.5797 12.6566 10.3252C12.4207 10.0707 12.028 10.0602 11.7793 10.3013C10.3613 11.6769 9.20479 13.3572 8.41629 15.1817H4.57345C4.50503 14.971 4.43115 14.761 4.35858 14.5552C4.07173 13.7409 3.77512 12.8988 3.9933 12.4356C4.21967 11.9554 5.06061 11.6653 5.87393 11.3847C6.76543 11.0772 7.68729 10.7591 8.2193 10.0779C8.75428 9.39192 8.85389 8.39759 8.95012 7.43602C9.03724 6.56647 9.12726 5.66712 9.52953 5.33849C9.928 5.01284 10.8017 5.12187 11.6465 5.22726C12.5869 5.34459 13.5594 5.46581 14.3359 5.08225C15.0971 4.70631 15.603 3.86215 16.0921 3.04576C16.543 2.29328 17.0092 1.51532 17.5247 1.39554C18.0058 1.28431 18.7363 1.76403 19.4431 2.22835C20.2493 2.75811 21.0829 3.3059 21.9625 3.3059C22.8422 3.3059 23.6759 2.75811 24.482 2.22835C25.1887 1.76403 25.9197 1.28414 26.4005 1.39554C26.916 1.51532 27.3822 2.29337 27.833 3.04576C28.3222 3.86215 28.828 4.70622 29.5897 5.0825C29.8187 5.19526 30.0828 5.2717 30.3749 5.30971C30.7142 5.3539 31.0254 5.10765 31.0687 4.75981C31.1118 4.41197 30.8712 4.09418 30.5312 4.04999C30.372 4.02934 30.2365 3.99175 30.1288 3.93885C29.6957 3.72493 29.2866 3.04229 28.8911 2.38217C28.3059 1.40553 27.7007 0.395537 26.6754 0.157409C25.6871 -0.0728465 24.7334 0.554176 23.8114 1.16004C23.1559 1.59075 22.478 2.03619 21.9625 2.03619C21.4471 2.03619 20.7693 1.59075 20.1137 1.16004C19.1918 0.554176 18.2385 -0.0725079 17.25 0.157409C16.2246 0.395537 15.6194 1.40553 15.0342 2.38217C14.6387 3.04229 14.2297 3.72484 13.7966 3.93885C13.3481 4.16021 12.5595 4.06202 11.7969 3.96687C10.6976 3.82973 9.56114 3.6881 8.75535 4.34628C7.94593 5.00759 7.82886 6.17639 7.71567 7.30667C7.63765 8.08581 7.55698 8.89162 7.24961 9.28568C6.94538 9.67525 6.19925 9.93268 5.47761 10.1816C4.42122 10.546 3.32883 10.9229 2.87559 11.8841C2.43104 12.8278 2.81743 13.9248 3.19115 14.9859C3.21449 15.0521 3.23724 15.117 3.25991 15.1818H1.40236C1.05966 15.1818 0.78183 15.466 0.78183 15.8167C0.78183 16.1674 1.05966 16.4517 1.40236 16.4517Z" fill="#FF9549"/>
<path d="M42.5231 26.1282H1.40236C1.05966 26.1282 0.78183 26.4124 0.78183 26.7631C0.78183 27.1138 1.05966 27.398 1.40236 27.398H3.25983C3.23732 27.4623 3.21473 27.5267 3.19165 27.5924C2.81759 28.6541 2.43079 29.752 2.87584 30.6959C3.32883 31.6566 4.42089 32.0334 5.47695 32.3977C6.19884 32.6468 6.94538 32.9044 7.24961 33.2943C7.55715 33.6883 7.63781 34.494 7.71584 35.273C7.82894 36.4032 7.94593 37.572 8.7556 38.2333C9.56114 38.8914 10.6977 38.7499 11.7967 38.6129C12.5595 38.5179 13.348 38.4197 13.7968 38.641C14.2299 38.8548 14.6388 39.5374 15.0344 40.1975C15.6196 41.1742 16.2248 42.1841 17.25 42.4226C17.3933 42.4559 17.5357 42.4711 17.6776 42.4711C18.514 42.4711 19.3254 41.9379 20.1138 41.4198C20.7695 40.9889 21.4473 40.5433 21.9628 40.5433C22.4782 40.5433 23.1561 40.9888 23.8117 41.4197C24.7338 42.0257 25.6874 42.6523 26.6755 42.4225C27.7009 42.1841 28.306 41.1742 28.8912 40.1975C29.2867 39.5374 29.6957 38.8549 30.1287 38.6411C30.5774 38.4196 31.3661 38.5179 32.1289 38.6129C33.228 38.7501 34.3644 38.8917 35.1699 38.2334C35.9796 37.572 36.0966 36.4032 36.2097 35.273C36.2877 34.494 36.3684 33.6884 36.676 33.2944C36.9802 32.9045 37.7267 32.6469 38.4485 32.3978C39.5047 32.0334 40.5967 31.6566 41.0497 30.6959C41.4947 29.7519 41.1079 28.654 40.7338 27.5924C40.7107 27.5267 40.6882 27.4624 40.6657 27.398H42.5231C42.8659 27.398 43.1437 27.1138 43.1437 26.7631C43.1437 26.4124 42.8658 26.1282 42.5231 26.1282ZM39.5662 28.023C39.8534 28.838 40.1504 29.6807 39.9319 30.1442C39.7056 30.6241 38.8649 30.9142 38.0518 31.1947C37.1601 31.5024 36.2379 31.8206 35.706 32.5021C35.1708 33.1878 35.0713 34.182 34.975 35.1435C34.8879 36.0131 34.7979 36.9123 34.3954 37.2412C33.9972 37.5666 33.1237 37.4578 32.2789 37.3524C31.3384 37.2352 30.366 37.1141 29.5893 37.4975C28.828 37.8731 28.3223 38.7174 27.833 39.5338C27.3821 40.2863 26.9158 41.0644 26.4003 41.1843C25.9204 41.2966 25.1891 40.8158 24.4822 40.3514C23.676 39.8214 22.8423 39.2736 21.9626 39.2736C21.083 39.2736 20.2493 39.8215 19.4429 40.3514C18.7363 40.8158 18.0059 41.2968 17.5249 41.1843C17.0094 41.0645 16.5431 40.2863 16.0923 39.5339C15.6031 38.7174 15.0972 37.8732 14.3359 37.4974C13.9381 37.3011 13.4893 37.2371 13.0195 37.2371C12.5719 37.2371 12.1052 37.2953 11.6465 37.3524C10.8017 37.4577 9.92816 37.5666 9.52978 37.241C9.12734 36.9123 9.03724 36.0131 8.95028 35.1436C8.85398 34.182 8.75444 33.1878 8.2193 32.502C7.68746 31.8205 6.76526 31.5023 5.87343 31.1946C5.06045 30.9141 4.21975 30.624 3.99346 30.1442C3.77495 29.6807 4.0719 28.838 4.359 28.023C4.43139 27.8177 4.5052 27.6082 4.57337 27.398H8.41745C9.53127 29.9818 11.3182 32.1868 13.6088 33.7922C16.0743 35.5204 18.963 36.4338 21.9627 36.4338C24.1237 36.4338 26.2057 35.9681 28.1509 35.0497C28.4621 34.9029 28.5979 34.5257 28.4543 34.2073C28.3108 33.8889 27.9421 33.7498 27.6309 33.8968C25.85 34.7377 23.9429 35.164 21.9627 35.164C19.2145 35.164 16.5684 34.3275 14.3103 32.7448C12.364 31.3806 10.8133 29.545 9.78428 27.3981H34.1406C33.1851 29.3886 31.7743 31.1213 30.0205 32.4483C29.7449 32.6568 29.6868 33.0544 29.8906 33.3364C30.0944 33.6183 30.4828 33.6778 30.7585 33.4693C32.8346 31.8983 34.4694 29.8054 35.5081 27.398H39.3518C39.4201 27.6082 39.4939 27.8177 39.5662 28.023Z" fill="#FF9549"/>
</svg>
