<svg width="44" height="44" viewBox="0 0 44 44" fill="none" xmlns="http://www.w3.org/2000/svg">
<g clip-path="url(#clip0_1_1221)">
<path d="M28.352 16.899C27.6875 15.6319 26.1146 15.1403 24.8444 15.8054L14.3717 21.2996C13.0997 21.9662 12.6103 23.5344 13.2774 24.8072L19.0186 35.753C19.6842 37.0205 21.2563 37.5125 22.5268 36.8466L33.0001 31.3531C34.2716 30.686 34.7609 29.117 34.0938 27.8455L28.352 16.899ZM32.4122 30.2328L21.9389 35.7263C21.288 36.0697 20.4809 35.8159 20.1388 35.165L14.3976 24.2192C14.0585 23.5725 14.2992 22.7657 14.9589 22.4197L25.4316 16.9255C26.0938 16.58 26.8952 16.8443 27.2318 17.4869L32.9736 28.4332C33.3168 29.0878 33.0639 29.891 32.4122 30.2328Z" fill="#FF9549"/>
<path d="M37.0632 22.1151L42.7733 14.6659C43.2413 14.0526 43.3172 13.2431 42.9757 12.5539C42.6405 11.8646 41.9513 11.441 41.1861 11.441H40.7498V4.85815C40.7498 3.47962 39.6306 2.36035 38.252 2.36035H32.7063C31.3278 2.36035 30.2085 3.47962 30.2085 4.85815V11.4409H29.7722C29.7026 11.4409 29.6394 11.4472 29.5698 11.4536L28.2229 8.87991C27.3313 7.19153 25.2319 6.53388 23.5435 7.4255L22.4305 8.00726L21.3998 6.03426C20.7611 4.82014 19.2561 4.3522 18.042 4.99088L15.7972 6.16705C14.5008 4.83279 12.5785 3.85896 10.4348 3.48588C6.05893 2.71441 2.06246 4.60514 1.51864 7.70367C0.968492 10.8022 4.08599 13.945 8.45555 14.7165C8.74011 14.7671 9.01834 14.7987 9.29658 14.824L9.3282 14.8809L8.21532 15.4626C6.52055 16.3479 5.86929 18.4473 6.75458 20.1421L17.1821 40.0232C18.0879 41.7518 20.2289 42.3616 21.8615 41.484L37.1961 33.4468C38.8826 32.5578 39.5462 30.4734 38.6505 28.761L35.5646 22.8865C36.1526 22.8549 36.6964 22.583 37.0632 22.1151ZM8.29114 12.9143L8.5757 13.4518C4.94599 12.7752 2.3407 10.309 2.76437 7.91873C3.18805 5.51579 6.52687 4.08035 10.2135 4.73168C11.9525 5.0352 13.5207 5.76873 14.6273 6.78056L9.34084 9.5502C8.08139 10.2139 7.67365 11.7424 8.29114 12.9143ZM37.5311 29.3492C38.0875 30.423 37.7017 31.7406 36.6079 32.3276L21.2797 40.3648C20.2047 40.9276 18.8704 40.5102 18.3076 39.4352L7.87379 19.554C7.31099 18.479 7.72834 17.1448 8.80334 16.582L10.4728 15.7093C10.7763 15.5512 10.8901 15.1781 10.7447 14.8746C12.1612 14.8304 13.4702 14.5079 14.5515 13.9577C15.2936 14.4984 16.3344 14.6533 17.3022 14.1537C18.5824 13.4875 19.0776 11.8976 18.4088 10.6126C17.7322 9.32888 16.145 8.83565 14.8613 9.50594C13.6093 10.1636 13.1097 11.7065 13.7231 12.9712C12.7113 13.4329 11.453 13.6668 10.0934 13.6162L9.41047 12.3262C9.1082 11.7469 9.31188 10.9915 9.929 10.6695L18.6238 6.1102C19.2246 5.79403 19.9644 6.028 20.2806 6.62241L21.6086 9.15182C21.7636 9.46199 22.1573 9.58258 22.4622 9.41741L24.1316 8.54476C25.1559 7.99512 26.5125 8.35265 27.0974 9.468L28.4127 11.9784C27.6977 12.6168 27.5162 13.7858 28.1786 14.6659L33.4019 21.4764L37.5311 29.3492ZM14.817 12.3199C14.5767 11.6813 14.836 10.9477 15.4494 10.6252C15.6517 10.5177 15.8667 10.4734 16.0754 10.4734C15.8983 11.1943 15.4557 11.8204 14.817 12.3199ZM17.2136 11.0931C17.2389 11.1248 17.2642 11.1564 17.2895 11.2006C17.6317 11.8718 17.3717 12.6992 16.7141 13.0345C16.4169 13.1926 16.088 13.2242 15.7656 13.1483C16.4485 12.5792 16.9481 11.8836 17.2136 11.0931ZM34.8879 21.3436L29.1841 13.8945C28.8145 13.4017 29.1562 12.7056 29.7722 12.7056H30.8408C31.1886 12.7056 31.4732 12.4211 31.4732 12.0733V4.85815C31.4732 4.1752 32.0297 3.62506 32.7063 3.62506H38.252C38.935 3.62506 39.4851 4.1752 39.4851 4.85815V12.0733C39.4851 12.4211 39.7697 12.7056 40.1175 12.7056H41.1861C41.4707 12.7056 41.7173 12.8574 41.8438 13.1167C41.9703 13.3759 41.945 13.6668 41.7679 13.8945L36.0578 21.3436C35.7795 21.704 35.1661 21.704 34.8879 21.3436Z" fill="#FF9549"/>
<path d="M25.1258 21.332C24.7862 21.2579 24.4472 21.4728 24.3724 21.8137L22.5057 30.3127C22.4309 30.6542 22.6465 30.9914 22.9873 31.0661C23.3344 31.1412 23.6667 30.9212 23.7407 30.5845L25.6075 22.0854C25.6822 21.7439 25.4667 21.4067 25.1258 21.332Z" fill="#FF9549"/>
<path d="M22.1689 23.4171C21.6434 22.4007 20.3867 21.9999 19.3678 22.5248C18.3442 23.0539 17.9482 24.307 18.4749 25.3259C19.0003 26.3426 20.2544 26.7456 21.2766 26.2189C22.3002 25.6898 22.6963 24.4367 22.1696 23.4178C22.1695 23.4177 22.1695 23.4177 22.1689 23.4171ZM20.6961 25.0949C20.2948 25.3032 19.8052 25.1455 19.5987 24.7454C19.3952 24.3521 19.5415 23.8593 19.9482 23.6487C20.3474 23.4418 20.84 23.6013 21.0462 23.9988C21.2496 24.3942 21.1012 24.8853 20.6961 25.0949Z" fill="#FF9549"/>
<path d="M26.6059 26.4359C25.5882 26.962 25.188 28.2187 25.7136 29.2364C26.2406 30.256 27.4903 30.658 28.5147 30.13C29.5336 29.6032 29.9338 28.3466 29.4076 27.3282C28.8815 26.3112 27.6272 25.9085 26.6059 26.4359ZM27.9341 29.0061C27.534 29.2112 27.0452 29.0589 26.8374 28.656C26.6311 28.2577 26.7886 27.7655 27.1869 27.5592C27.5849 27.353 28.0779 27.5105 28.2836 27.9087C28.4925 28.3135 28.3319 28.8008 27.9341 29.0061Z" fill="#FF9549"/>
</g>
<defs>
<clipPath id="clip0_1_1221">
<rect width="43" height="43" fill="white" transform="translate(0.820923 0.62207)"/>
</clipPath>
</defs>
</svg>
