<svg width="58" height="58" viewBox="0 0 58 58" fill="none" xmlns="http://www.w3.org/2000/svg">
<path d="M7.70078 32.082C8.64561 32.082 9.55175 31.7067 10.2198 31.0386C10.8879 30.3705 11.2633 29.4644 11.2633 28.5195C11.2633 27.5747 10.8879 26.6686 10.2198 26.0005C9.55175 25.3324 8.64561 24.957 7.70078 24.957H5.91953C4.9747 24.957 4.06856 25.3324 3.40046 26.0005C2.73236 26.6686 2.35703 27.5747 2.35703 28.5195C2.35703 29.4644 2.73236 30.3705 3.40046 31.0386C4.06856 31.7067 4.9747 32.082 5.91953 32.082H7.70078ZM4.13828 28.5195C4.13828 28.0471 4.32595 27.594 4.65999 27.26C4.99404 26.9259 5.44711 26.7383 5.91953 26.7383H7.70078C8.1732 26.7383 8.62626 26.9259 8.96031 27.26C9.29436 27.594 9.48203 28.0471 9.48203 28.5195C9.48203 28.9919 9.29436 29.445 8.96031 29.7791C8.62626 30.1131 8.1732 30.3008 7.70078 30.3008H5.91953C5.44711 30.3008 4.99404 30.1131 4.65999 29.7791C4.32595 29.445 4.13828 28.9919 4.13828 28.5195Z" fill="#FF9549"/>
<path d="M38.8727 11.5977H14.8258C14.2001 11.5967 13.5852 11.7607 13.0432 12.0733C12.5012 12.3858 12.0512 12.8358 11.7387 13.3778C11.4261 13.9198 11.262 14.5347 11.263 15.1604C11.264 15.786 11.43 16.4004 11.7442 16.9414H9.48203C8.5372 16.9414 7.63106 17.3167 6.96296 17.9848C6.29486 18.6529 5.91953 19.5591 5.91953 20.5039C5.91953 21.4487 6.29486 22.3549 6.96296 23.023C7.63106 23.6911 8.5372 24.0664 9.48203 24.0664H22.5653C22.4852 24.3603 22.4139 24.6542 22.3516 24.957H16.607C15.6622 24.957 14.7561 25.3324 14.088 26.0005C13.4199 26.6686 13.0445 27.5747 13.0445 28.5195C13.0445 29.4644 13.4199 30.3705 14.088 31.0386C14.7561 31.7067 15.6622 32.082 16.607 32.082H22.3427C22.4139 32.3848 22.4852 32.6788 22.5653 32.9727H9.48203C8.5372 32.9727 7.63106 33.348 6.96296 34.0161C6.29486 34.6842 5.91953 35.5903 5.91953 36.5352C5.91953 37.48 6.29486 38.3861 6.96296 39.0542C7.63106 39.7223 8.5372 40.0977 9.48203 40.0977H11.7442C11.4303 40.6387 11.2645 41.253 11.2637 41.8786C11.2628 42.5042 11.4269 43.1189 11.7394 43.6608C12.0519 44.2027 12.5018 44.6527 13.0437 44.9653C13.5855 45.2779 14.2002 45.4421 14.8258 45.4414H38.8727C43.3606 45.4414 47.6648 43.6586 50.8382 40.4851C54.0117 37.3116 55.7945 33.0075 55.7945 28.5195C55.7945 24.0316 54.0117 19.7274 50.8382 16.554C47.6648 13.3805 43.3606 11.5977 38.8727 11.5977ZM38.8727 43.6602H14.8258C14.3544 43.6567 13.9034 43.4679 13.5701 43.1346C13.2368 42.8013 13.048 42.3502 13.0445 41.8789C13.0459 41.4069 13.2341 40.9547 13.5678 40.6209C13.9015 40.2872 14.3538 40.0991 14.8258 40.0977C15.062 40.0977 15.2885 40.0038 15.4555 39.8368C15.6226 39.6698 15.7164 39.4432 15.7164 39.207C15.7164 38.9708 15.6226 38.7443 15.4555 38.5773C15.2885 38.4102 15.062 38.3164 14.8258 38.3164H9.48203C9.01069 38.3129 8.55965 38.1241 8.22636 37.7908C7.89306 37.4575 7.70427 37.0065 7.70078 36.5352C7.70219 36.0632 7.89031 35.6109 8.22405 35.2772C8.5578 34.9434 9.01005 34.7553 9.48203 34.7539H23.6252C23.7443 34.7761 23.8668 34.7733 23.9849 34.7457C24.1029 34.7181 24.2139 34.6663 24.3109 34.5936C24.4628 34.4785 24.574 34.3181 24.6285 34.1355C24.683 33.9529 24.6778 33.7577 24.6137 33.5783C24.318 32.7355 24.0975 31.8682 23.9547 30.9866C23.9148 30.7696 23.7945 30.5756 23.6178 30.4435C23.4412 30.3114 23.2211 30.2509 23.0017 30.2741C22.9483 30.283 22.8948 30.2919 22.8503 30.3008H16.607C16.135 30.2994 15.6828 30.1113 15.3491 29.7775C15.0153 29.4438 14.8272 28.9915 14.8258 28.5195C14.8293 28.0482 15.0181 27.5972 15.3514 27.2639C15.6847 26.9306 16.1357 26.7418 16.607 26.7383H22.6277C22.7406 26.8005 22.8647 26.8399 22.9928 26.8541C23.2164 26.8709 23.4382 26.8034 23.6145 26.665C23.7909 26.5265 23.909 26.3271 23.9458 26.1059C24.0894 25.2061 24.313 24.3209 24.6137 23.4608C24.6616 23.3207 24.6739 23.1709 24.6493 23.025C24.6248 22.879 24.5642 22.7415 24.4732 22.6248C24.3821 22.5081 24.2634 22.4159 24.1278 22.3566C23.9922 22.2973 23.8439 22.2728 23.6964 22.2852H9.48203C9.01005 22.2838 8.5578 22.0956 8.22405 21.7619C7.89031 21.4281 7.70219 20.9759 7.70078 20.5039C7.70427 20.0326 7.89306 19.5815 8.22636 19.2482C8.55965 18.9149 9.01069 18.7262 9.48203 18.7227H14.8258C15.062 18.7227 15.2885 18.6288 15.4555 18.4618C15.6226 18.2948 15.7164 18.0682 15.7164 17.832C15.7164 17.5958 15.6226 17.3693 15.4555 17.2023C15.2885 17.0352 15.062 16.9414 14.8258 16.9414C14.3538 16.94 13.9015 16.7519 13.5678 16.4181C13.2341 16.0844 13.0459 15.6321 13.0445 15.1602C13.048 14.6888 13.2368 14.2378 13.5701 13.9045C13.9034 13.5712 14.3544 13.3824 14.8258 13.3789H38.8727C42.8882 13.3789 46.7393 14.9741 49.5787 17.8135C52.4181 20.6529 54.0133 24.504 54.0133 28.5195C54.0133 32.5351 52.4181 36.3862 49.5787 39.2256C46.7393 42.065 42.8882 43.6602 38.8727 43.6602Z" fill="#FF9549"/>
<path d="M38.8727 16.9414C36.5827 16.9414 34.3442 17.6205 32.4402 18.8927C30.5362 20.1649 29.0522 21.9731 28.1759 24.0888C27.2995 26.2044 27.0703 28.5324 27.517 30.7783C27.9637 33.0242 29.0665 35.0873 30.6857 36.7065C32.3049 38.3257 34.3679 39.4284 36.6139 39.8752C38.8598 40.3219 41.1878 40.0926 43.3034 39.2163C45.419 38.34 47.2273 36.856 48.4995 34.952C49.7717 33.048 50.4508 30.8095 50.4508 28.5195C50.448 25.4497 49.2272 22.5064 47.0565 20.3357C44.8858 18.165 41.9425 16.9442 38.8727 16.9414ZM38.8727 38.3164C36.935 38.3164 35.0409 37.7418 33.4298 36.6653C31.8187 35.5888 30.563 34.0588 29.8215 32.2686C29.08 30.4785 28.886 28.5087 29.264 26.6083C29.642 24.7078 30.5751 22.9622 31.9452 21.5921C33.3153 20.222 35.061 19.2889 36.9614 18.9109C38.8618 18.5329 40.8316 18.7269 42.6218 19.4684C44.4119 20.2099 45.942 21.4656 47.0185 23.0767C48.095 24.6878 48.6695 26.5819 48.6695 28.5195C48.6679 31.1173 47.6352 33.6082 45.7983 35.4451C43.9614 37.2821 41.4704 38.3148 38.8727 38.3164Z" fill="#FF9549"/>
<path d="M43.1833 27.1487C43.1028 27.0233 42.9921 26.9201 42.8614 26.8485C42.7307 26.7769 42.5842 26.7393 42.4351 26.739H39.7633V21.3953C39.7637 21.1912 39.6941 20.9932 39.566 20.8343C39.438 20.6754 39.2592 20.5653 39.0597 20.5225C38.8604 20.4787 38.652 20.5054 38.4702 20.598C38.2883 20.6905 38.1441 20.8432 38.0622 21.0301L34.4997 29.0457C34.4388 29.1812 34.4127 29.3298 34.4239 29.4779C34.4351 29.6261 34.4831 29.769 34.5637 29.8939C34.6442 30.0187 34.7547 30.1214 34.8851 30.1926C35.0155 30.2638 35.1616 30.3012 35.3101 30.3015H37.982V35.6453C37.9816 35.8494 38.0512 36.0474 38.1793 36.2063C38.3073 36.3652 38.4861 36.4752 38.6856 36.5181C38.7475 36.5284 38.81 36.5344 38.8726 36.5359C39.044 36.5355 39.2116 36.4858 39.3553 36.3926C39.4991 36.2994 39.6129 36.1667 39.6831 36.0104L43.2456 27.9948C43.3064 27.8597 43.3325 27.7116 43.3217 27.5639C43.3108 27.4161 43.2632 27.2734 43.1833 27.1487ZM39.7633 31.4504V29.4109C39.7633 29.1747 39.6694 28.9482 39.5024 28.7811C39.3354 28.6141 39.1089 28.5203 38.8726 28.5203H36.6817L37.982 25.5901V27.6297C37.982 27.8659 38.0759 28.0924 38.2429 28.2594C38.4099 28.4264 38.6364 28.5203 38.8726 28.5203H41.0636L39.7633 31.4504Z" fill="#FF9549"/>
</svg>
