<svg width="168" height="167" viewBox="0 0 168 167" fill="none" xmlns="http://www.w3.org/2000/svg">
<path d="M21.7155 93.9375C24.4837 93.9375 27.1385 92.8378 29.0959 90.8804C31.0533 88.923 32.153 86.2682 32.153 83.5C32.153 80.7318 31.0533 78.077 29.0959 76.1196C27.1385 74.1622 24.4837 73.0625 21.7155 73.0625H16.4967C13.7285 73.0625 11.0737 74.1622 9.11628 76.1196C7.15887 78.077 6.0592 80.7318 6.0592 83.5C6.0592 86.2682 7.15887 88.923 9.11628 90.8804C11.0737 92.8378 13.7285 93.9375 16.4967 93.9375H21.7155ZM11.278 83.5C11.278 82.1159 11.8278 80.7885 12.8065 79.8098C13.7852 78.8311 15.1126 78.2812 16.4967 78.2812H21.7155C23.0996 78.2812 24.427 78.8311 25.4057 79.8098C26.3844 80.7885 26.9342 82.1159 26.9342 83.5C26.9342 84.8841 26.3844 86.2115 25.4057 87.1902C24.427 88.1689 23.0996 88.7188 21.7155 88.7188H16.4967C15.1126 88.7188 13.7852 88.1689 12.8065 87.1902C11.8278 86.2115 11.278 84.8841 11.278 83.5Z" fill="#D9D9D9" fill-opacity="0.5"/>
<path d="M113.044 33.9219H42.5905C40.7573 33.919 38.9559 34.3997 37.3679 35.3154C35.7799 36.2311 34.4615 37.5494 33.5457 39.1374C32.63 40.7254 32.1493 42.5269 32.1522 44.36C32.155 46.1931 32.6413 47.993 33.562 49.5781H26.9342C24.166 49.5781 21.5112 50.6778 19.5538 52.6352C17.5964 54.5926 16.4967 57.2474 16.4967 60.0156C16.4967 62.7838 17.5964 65.4387 19.5538 67.3961C21.5112 69.3535 24.166 70.4531 26.9342 70.4531H65.2659C65.0311 71.3142 64.8223 72.1753 64.6397 73.0625H47.8092C45.041 73.0625 42.3862 74.1622 40.4288 76.1196C38.4714 78.077 37.3717 80.7318 37.3717 83.5C37.3717 86.2682 38.4714 88.923 40.4288 90.8804C42.3862 92.8379 45.041 93.9375 47.8092 93.9375H64.6136C64.8223 94.8247 65.0311 95.6858 65.2659 96.5469H26.9342C24.166 96.5469 21.5112 97.6466 19.5538 99.604C17.5964 101.561 16.4967 104.216 16.4967 106.984C16.4967 109.753 17.5964 112.407 19.5538 114.365C21.5112 116.322 24.166 117.422 26.9342 117.422H33.562C32.6422 119.007 32.1565 120.807 32.1541 122.64C32.1516 124.473 32.6324 126.274 33.548 127.861C34.4636 129.449 35.7816 130.767 37.3692 131.683C38.9567 132.599 40.7577 133.08 42.5905 133.078H113.044C126.193 133.078 138.803 127.855 148.101 118.557C157.398 109.259 162.622 96.649 162.622 83.5C162.622 70.3511 157.398 57.7407 148.101 48.443C138.803 39.1453 126.193 33.9219 113.044 33.9219ZM113.044 127.859H42.5905C41.2095 127.849 39.8881 127.296 38.9116 126.32C37.9351 125.343 37.3819 124.022 37.3717 122.641C37.3758 121.258 37.927 119.933 38.9048 118.955C39.8826 117.977 41.2076 117.426 42.5905 117.422C43.2825 117.422 43.9462 117.147 44.4356 116.658C44.9249 116.168 45.1998 115.505 45.1998 114.813C45.1998 114.12 44.9249 113.457 44.4356 112.967C43.9462 112.478 43.2825 112.203 42.5905 112.203H26.9342C25.5533 112.193 24.2318 111.64 23.2553 110.663C22.2788 109.687 21.7257 108.365 21.7155 106.984C21.7196 105.602 22.2707 104.277 23.2486 103.299C24.2264 102.321 25.5514 101.77 26.9342 101.766H68.3711C68.7203 101.831 69.0791 101.822 69.4249 101.742C69.7708 101.661 70.0961 101.509 70.3803 101.296C70.8252 100.959 71.1512 100.489 71.3107 99.9538C71.4702 99.4189 71.4551 98.847 71.2675 98.3213C70.4011 95.8521 69.755 93.3111 69.3365 90.728C69.2198 90.0923 68.8673 89.5241 68.3497 89.137C67.832 88.75 67.1873 88.5726 66.5445 88.6405C66.388 88.6666 66.2314 88.6927 66.1009 88.7188H47.8092C46.4264 88.7146 45.1014 88.1635 44.1236 87.1857C43.1457 86.2079 42.5946 84.8828 42.5905 83.5C42.6007 82.1191 43.1538 80.7976 44.1303 79.8211C45.1068 78.8446 46.4283 78.2915 47.8092 78.2813H65.4486C65.7794 78.4636 66.143 78.5789 66.5184 78.6205C67.1735 78.6698 67.8232 78.4722 68.3399 78.0665C68.8566 77.6609 69.2028 77.0766 69.3105 76.4286C69.7313 73.7923 70.3862 71.1988 71.2675 68.6788C71.4078 68.2684 71.4436 67.8296 71.3717 67.4019C71.2998 66.9742 71.1224 66.5712 70.8556 66.2294C70.5888 65.8875 70.2411 65.6174 69.8437 65.4437C69.4464 65.27 69.012 65.1981 68.5798 65.2344H26.9342C25.5514 65.2303 24.2264 64.6791 23.2486 63.7013C22.2707 62.7235 21.7196 61.3985 21.7155 60.0156C21.7257 58.6347 22.2788 57.3132 23.2553 56.3367C24.2318 55.3602 25.5533 54.8071 26.9342 54.7969H42.5905C43.2825 54.7969 43.9462 54.522 44.4356 54.0326C44.9249 53.5433 45.1998 52.8796 45.1998 52.1875C45.1998 51.4955 44.9249 50.8318 44.4356 50.3424C43.9462 49.8531 43.2825 49.5781 42.5905 49.5781C41.2076 49.574 39.8826 49.0229 38.9048 48.045C37.927 47.0672 37.3758 45.7422 37.3717 44.3594C37.3819 42.9785 37.9351 41.657 38.9116 40.6805C39.8881 39.704 41.2095 39.1509 42.5905 39.1406H113.044C124.808 39.1406 136.091 43.8142 144.41 52.1332C152.729 60.4522 157.403 71.7352 157.403 83.5C157.403 95.2649 152.729 106.548 144.41 114.867C136.091 123.186 124.808 127.859 113.044 127.859Z" fill="#D9D9D9" fill-opacity="0.5"/>
<path d="M113.044 49.5781C106.334 49.5781 99.776 51.5676 94.1976 55.295C88.6192 59.0224 84.2713 64.3202 81.7039 70.5187C79.1364 76.7171 78.4646 83.5376 79.7735 90.1178C81.0824 96.698 84.3131 102.742 89.0572 107.486C93.8013 112.23 99.8456 115.461 106.426 116.77C113.006 118.079 119.827 117.407 126.025 114.84C132.223 112.272 137.521 107.924 141.249 102.346C144.976 96.7676 146.965 90.2091 146.965 83.5C146.957 74.5059 143.381 65.8826 137.021 59.5228C130.661 53.163 122.038 49.5864 113.044 49.5781ZM113.044 112.203C107.367 112.203 101.817 110.52 97.097 107.366C92.3768 104.212 88.6978 99.729 86.5254 94.4842C84.3529 89.2394 83.7845 83.4682 84.892 77.9003C85.9995 72.3324 88.7332 67.218 92.7474 63.2038C96.7616 59.1896 101.876 56.4559 107.444 55.3484C113.012 54.2409 118.783 54.8093 124.028 56.9818C129.273 59.1542 133.755 62.8332 136.909 67.5534C140.063 72.2736 141.747 77.8231 141.747 83.5C141.742 91.1111 138.716 98.409 133.334 103.791C127.953 109.173 120.655 112.198 113.044 112.203Z" fill="#D9D9D9" fill-opacity="0.5"/>
<path d="M125.672 79.4817C125.437 79.1142 125.112 78.8118 124.729 78.6021C124.347 78.3923 123.917 78.2821 123.481 78.2814H115.652V62.6251C115.654 62.0272 115.45 61.447 115.075 60.9815C114.699 60.516 114.176 60.1935 113.591 60.0679C113.007 59.9398 112.397 60.0179 111.864 60.2891C111.331 60.5603 110.909 61.0077 110.668 61.5553L100.231 85.0396C100.053 85.4366 99.9762 85.8719 100.009 86.3059C100.042 86.7399 100.183 87.1588 100.419 87.5244C100.655 87.8901 100.978 88.191 101.36 88.3996C101.742 88.6082 102.17 88.7179 102.606 88.7189H110.434V104.375C110.432 104.973 110.636 105.553 111.012 106.019C111.387 106.484 111.91 106.807 112.495 106.932C112.676 106.963 112.859 106.98 113.043 106.984C113.545 106.983 114.036 106.838 114.457 106.565C114.878 106.292 115.212 105.903 115.418 105.445L125.855 81.9606C126.033 81.5648 126.11 81.1308 126.078 80.698C126.046 80.2651 125.907 79.8471 125.672 79.4817ZM115.652 92.085V86.1095C115.652 85.4174 115.377 84.7537 114.888 84.2644C114.399 83.775 113.735 83.5001 113.043 83.5001H106.624L110.434 74.9153V80.8907C110.434 81.5828 110.709 82.2465 111.198 82.7358C111.687 83.2252 112.351 83.5001 113.043 83.5001H119.462L115.652 92.085Z" fill="#D9D9D9" fill-opacity="0.5"/>
</svg>
