<svg width="16" height="16" viewBox="0 0 16 16" fill="none" xmlns="http://www.w3.org/2000/svg">
<path d="M6.18213 5.41406H9.81849" stroke="#283238" stroke-width="1.1958" stroke-linecap="round" stroke-linejoin="round"/>
<path d="M6.18213 7.63086H9.81849" stroke="#283238" stroke-width="1.1958" stroke-linecap="round" stroke-linejoin="round"/>
<path d="M6.18213 9.8457H8.00031" stroke="#283238" stroke-width="1.1958" stroke-linecap="round" stroke-linejoin="round"/>
<path d="M12.3557 10.2518L12.3548 10.2529L10.0184 13.0565L10.0175 13.0577C9.93444 13.1568 9.82998 13.2424 9.70655 13.3032C9.58308 13.3641 9.44584 13.3974 9.30379 13.3971M12.3557 10.2518L12.5979 9.56467V9.56412V3.63558C12.5979 3.39296 12.5185 3.14311 12.3528 2.94426C12.1845 2.74223 11.9302 2.60132 11.6364 2.60132H4.36364C4.06978 2.60132 3.81554 2.74223 3.64719 2.94426C3.48148 3.14311 3.4021 3.39296 3.4021 3.63558V12.3629C3.4021 12.6055 3.48148 12.8553 3.64719 13.0542C3.81555 13.2562 4.06978 13.3971 4.36364 13.3971H9.30379M12.3557 10.2518C12.4381 10.1525 12.4988 10.0402 12.5388 9.92351L11.9731 9.72989L12.3557 10.2518ZM9.30379 13.3971C9.3032 13.3971 9.30261 13.3971 9.30202 13.3971L9.30454 12.7992V13.3971H9.30379Z" stroke="#283238" stroke-width="1.1958" stroke-linecap="round" stroke-linejoin="round"/>
<path d="M12.0002 9.8457H9.81836V12.707" stroke="#283238" stroke-width="1.1958" stroke-linecap="round" stroke-linejoin="round"/>
</svg>
