<svg width="20" height="20" viewBox="0 0 20 20" fill="none" xmlns="http://www.w3.org/2000/svg">
<path opacity="0.977974" d="M6.52479 4C5.13047 4 4 5.194 4 6.66667V13.3333C4 14.806 5.13047 16 6.52479 16H12.8368C14.2311 16 15.3615 14.806 15.3615 13.3333V10.6667C15.3615 10.2987 15.0788 10 14.7304 10C14.3819 10 14.0992 10.2987 14.0992 10.6667V13.3333C14.0992 14.07 13.5342 14.6667 12.8368 14.6667H6.52479C5.82732 14.6667 5.26239 14.07 5.26239 13.3333V6.66667C5.26239 5.93 5.82732 5.33333 6.52479 5.33333H11.5744C11.9228 5.33333 12.2056 5.03467 12.2056 4.66667C12.2056 4.29867 11.9228 4 11.5744 4H6.52479ZM15.3615 4.66667C15.2 4.66667 15.0308 4.72667 14.9077 4.854L9.40431 10.5627C9.24209 10.7313 9.07861 10.7193 8.95111 10.5207L8.31991 9.54134C8.12676 9.24067 7.72154 9.15334 7.43245 9.354C7.14273 9.55467 7.06131 9.97 7.25446 10.2707L7.88565 11.25C8.45436 12.136 9.56715 12.2533 10.2924 11.5L15.8154 5.77067C16.0615 5.51534 16.0615 5.11 15.8154 4.854C15.6923 4.726 15.5231 4.66667 15.3615 4.66667Z" fill="white"/>
</svg>
