<svg width="20" height="20" viewBox="0 0 20 20" fill="none" xmlns="http://www.w3.org/2000/svg">
<path d="M9.06874 2C12.4089 2 15.1662 4.4288 15.5833 7.572L17.4307 10.4032C17.5523 10.5896 17.5276 10.8672 17.246 10.9856L15.6375 11.656V14C15.6375 14.884 14.9026 15.6 13.9953 15.6H12.3539L12.3531 18H4.96328V15.0448C4.96328 14.1008 4.60528 13.2072 3.94184 12.4008C3.03946 11.3048 2.5 9.9136 2.5 8.4C2.5 4.8656 5.44115 2 9.06874 2ZM9.06874 3.6C6.34764 3.6 4.14218 5.7488 4.14218 8.4C4.14218 9.508 4.52646 10.5544 5.22274 11.4C6.12102 12.4912 6.60546 13.7336 6.60546 15.0448V16.4H10.7109L10.7126 14H13.9953V10.6016L15.268 10.0704L14.001 8.1304L13.9542 7.7768C13.6389 5.4008 11.5517 3.6 9.06874 3.6ZM9.06874 6C9.52198 6 9.88983 6.3584 9.88983 6.8V7.6H10.7109C11.1642 7.6 11.532 7.9584 11.532 8.4C11.532 8.8416 11.1642 9.2 10.7109 9.2H9.88983V10C9.88983 10.4416 9.52198 10.8 9.06874 10.8C8.61549 10.8 8.24764 10.4416 8.24764 10V9.1992L7.42655 9.2C6.97331 9.2 6.60546 8.8416 6.60546 8.4C6.60546 7.9584 6.97331 7.6 7.42655 7.6L8.24764 7.5992V6.8C8.24764 6.3584 8.61549 6 9.06874 6Z" fill="white"/>
</svg>
