<svg width="20" height="20" viewBox="0 0 20 20" fill="none" xmlns="http://www.w3.org/2000/svg">
<path d="M10 3C6.26667 3 3 6.00222 3 10C3 11.6489 3.57556 13.1656 4.53222 14.3633L3 15.9033L4.09667 17L5.62889 15.4678C6.83444 16.4244 8.35111 17 10 17C11.7889 17 13.5856 16.3156 14.9467 14.9467C16.3156 13.5856 17 11.7889 17 10V3H10ZM15.4444 10C15.4444 11.4544 14.8767 12.8233 13.85 13.85C12.8233 14.8767 11.4544 15.4444 10 15.4444C6.99778 15.4444 4.55556 13.0022 4.55556 10C4.55556 8.52222 5.13111 7.13778 6.18889 6.11889C7.21556 5.10778 8.56889 4.55556 10 4.55556H15.4444V10Z" fill="white"/>
<path d="M7.24667 10.49L10.3967 10.8011L8.49889 13.3911C8.41333 13.5156 8.42111 13.6867 8.53 13.7956C8.64667 13.9122 8.84111 13.92 8.96556 13.8033L12.9789 10.2022C13.2356 9.96889 13.0956 9.54111 12.7456 9.51L9.59556 9.19889L11.4933 6.60889C11.5789 6.48444 11.5711 6.31333 11.4622 6.20444C11.3456 6.08778 11.1511 6.08 11.0267 6.19667L7.01333 9.79778C6.76444 10.0311 6.90444 10.4589 7.24667 10.49Z" fill="white"/>
</svg>
