<svg width="283" height="38" viewBox="0 0 283 38" fill="none" xmlns="http://www.w3.org/2000/svg">
<path d="M3.34 18.396C1.396 18.396 0.424 17.22 0.424 14.868C0.424 14.172 0.508 13.548 0.676 12.996C0.748 12.804 0.796 12.624 0.82 12.456C0.844 12.12 1 11.808 1.288 11.52C1.408 11.328 1.492 11.124 1.54 10.908C1.636 10.404 2.152 9.612 3.088 8.532C3.16 8.46 3.232 8.412 3.304 8.388C3.4 8.34 3.484 8.244 3.556 8.1C3.652 7.956 3.736 7.848 3.808 7.776C4.408 7.2 5.08 6.756 5.824 6.444C5.848 6.42 5.908 6.408 6.004 6.408C6.484 6.408 6.88 6.336 7.192 6.192C7.528 6.048 7.876 5.976 8.236 5.976C8.932 5.976 9.532 6.228 10.036 6.732C10.492 7.116 10.72 7.776 10.72 8.712C10.72 8.904 10.708 9.024 10.684 9.072C10.66 9.12 10.636 9.168 10.612 9.216V9.612C10.588 9.924 10.456 10.392 10.216 11.016C10.216 11.808 9.928 12.684 9.352 13.644C9.592 13.86 9.94 13.968 10.396 13.968H10.72C11.008 13.968 11.26 13.932 11.476 13.86C11.692 13.788 11.884 13.692 12.052 13.572L12.196 13.5C12.604 13.356 13 13.092 13.384 12.708L13.456 12.636C13.624 12.516 13.756 12.456 13.852 12.456C13.876 12.456 13.9 12.48 13.924 12.528C13.972 12.576 14.008 12.636 14.032 12.708C14.08 12.78 14.104 12.84 14.104 12.888C14.104 12.96 13.924 13.116 13.564 13.356C13.204 13.596 12.964 13.752 12.844 13.824L12.772 13.896C12.652 13.992 12.496 14.052 12.304 14.076C12.136 14.076 12.028 14.112 11.98 14.184C11.932 14.232 11.884 14.268 11.836 14.292C11.284 14.484 10.768 14.58 10.288 14.58C9.76 14.58 9.316 14.448 8.956 14.184C8.836 14.424 8.704 14.604 8.56 14.724C8.416 14.82 8.152 15.144 7.768 15.696C7.384 16.224 7.084 16.512 6.868 16.56C6.676 16.608 6.544 16.728 6.472 16.92C6.424 17.016 6.388 17.088 6.364 17.136C6.34 17.16 6.28 17.208 6.184 17.28C5.392 18.024 4.444 18.396 3.34 18.396ZM4.024 17.208C4.936 17.208 5.8 16.716 6.616 15.732L6.796 15.516C7.324 15.012 7.816 14.364 8.272 13.572C8.032 13.284 7.816 12.864 7.624 12.312C7.6 12.216 7.576 12.132 7.552 12.06C7.552 11.988 7.552 11.58 7.552 10.836C7.552 10.62 7.624 10.428 7.768 10.26C8.152 9.804 8.596 9.576 9.1 9.576C9.316 9.576 9.46 9.612 9.532 9.684C9.604 9.756 9.652 9.804 9.676 9.828C9.7 9.828 9.724 9.852 9.748 9.9C9.796 9.492 9.832 9.276 9.856 9.252C9.904 9.204 9.928 9.156 9.928 9.108C9.928 9.06 9.904 9.012 9.856 8.964C9.832 8.892 9.82 8.832 9.82 8.784C9.796 7.8 9.412 7.308 8.668 7.308L8.416 7.344C8.008 7.416 7.66 7.524 7.372 7.668C6.628 8.028 6.04 8.508 5.608 9.108L5.14 9.648C4.732 10.008 4.504 10.308 4.456 10.548C4.432 10.644 4.384 10.752 4.312 10.872C4.264 10.968 4.12 11.064 3.88 11.16C3.664 11.256 3.532 11.352 3.484 11.448C3.484 11.544 3.496 11.64 3.52 11.736C3.544 11.832 3.556 11.904 3.556 11.952C3.556 12.12 3.508 12.312 3.412 12.528C3.34 12.72 3.244 12.924 3.124 13.14C3.028 13.356 2.944 13.548 2.872 13.716C2.824 13.884 2.764 14.04 2.692 14.184C2.62 14.328 2.56 14.484 2.512 14.652V15.372C2.512 15.732 2.56 16.068 2.656 16.38C2.752 16.668 2.92 16.884 3.16 17.028C3.424 17.148 3.712 17.208 4.024 17.208ZM15.2462 18.432C14.7182 18.432 14.4542 18.252 14.4542 17.892C14.4782 17.82 14.4902 17.7 14.4902 17.532C14.4902 17.34 14.5862 16.968 14.7782 16.416C14.8502 16.2 14.9462 15.996 15.0662 15.804L15.1742 15.66C15.2942 15.444 15.3542 15.276 15.3542 15.156C15.3542 15.012 15.3662 14.88 15.3902 14.76C15.9182 13.368 16.2662 12.504 16.4342 12.168C16.4822 12.024 16.5062 11.892 16.5062 11.772C16.5062 11.388 16.6742 10.884 17.0102 10.26C17.2262 9.9 17.3702 9.48 17.4422 9C17.3942 9 17.3582 8.988 17.3342 8.964C17.3342 8.94 17.3222 8.916 17.2982 8.892C17.1782 8.916 17.0582 9 16.9382 9.144C16.8422 9.264 16.6982 9.396 16.5062 9.54C16.4342 9.588 16.3382 9.72 16.2182 9.936C16.1222 10.128 15.9782 10.32 15.7862 10.512C15.6182 10.68 15.4742 10.848 15.3542 11.016C15.2342 11.16 15.1142 11.292 14.9942 11.412C14.4662 11.892 14.0822 12.276 13.8422 12.564C13.6742 12.78 13.4942 12.888 13.3022 12.888C13.2302 12.888 13.1822 12.876 13.1582 12.852C13.0622 12.756 13.0142 12.672 13.0142 12.6C13.0622 12.384 13.2182 12.18 13.4822 11.988C13.6022 11.892 13.6982 11.796 13.7702 11.7C13.8902 11.532 14.0342 11.364 14.2022 11.196C14.3942 11.004 14.6222 10.74 14.8862 10.404C16.0142 9.132 16.9982 7.872 17.8382 6.624C18.1982 6.048 18.7262 5.58 19.4222 5.22C19.7582 5.052 19.9742 4.968 20.0702 4.968C20.1662 4.968 20.2262 4.992 20.2502 5.04C20.2982 5.088 20.3222 5.148 20.3222 5.22C20.3462 5.292 20.3702 5.376 20.3942 5.472C20.3942 5.664 20.3702 5.904 20.3222 6.192C20.1542 6.912 20.0342 7.332 19.9622 7.452C19.8422 7.764 19.7342 8.232 19.6382 8.856C19.6142 8.904 19.5782 8.964 19.5302 9.036C19.4822 9.108 19.4462 9.18 19.4222 9.252L19.4582 9.54C19.4582 9.636 19.4462 9.708 19.4222 9.756C19.3982 9.804 19.2902 10.152 19.0982 10.8L18.6302 12.096L18.5582 12.276H18.6662C19.6742 12.108 20.2622 11.952 20.4302 11.808C20.6222 11.664 20.9582 11.592 21.4382 11.592C22.1582 11.544 22.6862 11.424 23.0222 11.232C23.1662 11.16 23.4782 11.088 23.9582 11.016L24.6062 10.98L25.6142 10.728L26.5862 8.784C26.8022 8.352 26.9822 8.04 27.1262 7.848C27.2702 7.632 27.3662 7.428 27.4142 7.236C27.6302 6.996 27.8582 6.672 28.0982 6.264C28.2662 5.856 28.4822 5.616 28.7462 5.544C28.7942 5.544 28.8542 5.52 28.9262 5.472C29.0222 5.4 29.1422 5.364 29.2862 5.364C29.3582 5.364 29.4062 5.376 29.4302 5.4C29.8862 5.688 30.1142 6.168 30.1142 6.84C30.1142 7.008 30.1022 7.104 30.0782 7.128C29.8622 7.44 29.6702 7.8 29.5022 8.208C29.3582 8.616 29.1782 8.952 28.9622 9.216L27.9182 11.232C27.6302 11.88 27.4142 12.552 27.2702 13.248C27.1982 13.56 27.1142 13.848 27.0182 14.112C26.9462 14.376 26.9102 14.676 26.9102 15.012C26.9102 15.684 27.1022 16.188 27.4862 16.524C27.5102 16.524 27.5462 16.536 27.5942 16.56C27.6422 16.584 27.6902 16.596 27.7382 16.596C28.5302 16.596 29.9822 15.48 32.0942 13.248C32.5742 12.672 32.9462 12.384 33.2102 12.384C33.2822 12.408 33.3662 12.432 33.4622 12.456C33.5582 12.456 33.6062 12.504 33.6062 12.6L33.5702 12.672C33.4742 12.936 33.2102 13.248 32.7782 13.608C32.6582 13.656 32.5382 13.74 32.4182 13.86C32.0102 14.268 31.7942 14.508 31.7702 14.58C31.7462 14.628 31.7222 14.7 31.6982 14.796C31.6742 14.892 31.5422 14.988 31.3022 15.084C30.9182 15.252 30.6422 15.504 30.4742 15.84C30.3542 16.056 30.2342 16.212 30.1142 16.308C29.8022 16.404 29.5622 16.548 29.3942 16.74C29.2262 16.932 28.9982 17.052 28.7102 17.1C28.6382 17.124 28.5422 17.184 28.4222 17.28C28.3262 17.352 28.1822 17.448 27.9902 17.568C27.7742 17.784 27.3542 17.892 26.7302 17.892C26.3462 17.892 26.1062 17.808 26.0102 17.64C25.9142 17.448 25.7222 17.328 25.4342 17.28C25.1462 17.208 24.9542 17.088 24.8582 16.92C24.5702 16.44 24.4262 15.912 24.4262 15.336C24.4262 14.712 24.5342 14.1 24.7502 13.5C24.8222 13.212 24.8702 12.876 24.8942 12.492C24.8942 12.372 24.9782 12.18 25.1462 11.916L25.2542 11.628L24.6422 11.736C24.0182 11.784 23.5502 11.892 23.2382 12.06C23.0462 12.204 22.7942 12.276 22.4822 12.276H22.2302C21.8462 12.276 21.3062 12.396 20.6102 12.636C20.3222 12.756 20.0582 12.84 19.8182 12.888C19.1462 12.984 18.6422 13.092 18.3062 13.212C18.2822 13.452 18.2222 13.68 18.1262 13.896C17.9582 14.496 17.8262 14.916 17.7302 15.156C17.6342 15.396 17.5502 15.624 17.4782 15.84C17.4782 16.08 17.4422 16.236 17.3702 16.308C17.3222 16.356 17.2982 16.524 17.2982 16.812C17.2982 17.748 16.8662 18.252 16.0022 18.324L15.2462 18.432ZM37.4832 12.888C37.5072 12.792 37.6272 12.636 37.8432 12.42C37.9392 12.324 37.9992 12.252 38.0232 12.204C38.0712 12.132 38.1072 12.096 38.1312 12.096C38.1792 12.072 38.2392 12.06 38.3112 12.06C38.3832 12.036 38.4552 11.928 38.5272 11.736C38.6952 11.376 38.8872 11.136 39.1032 11.016C39.3192 10.896 39.6912 10.428 40.2192 9.612C40.3872 9.396 40.4952 9.252 40.5432 9.18C40.6152 9.084 40.6992 8.988 40.7952 8.892C40.9152 8.772 41.0352 8.616 41.1552 8.424C41.2992 8.208 41.4792 7.98 41.6952 7.74L41.7672 7.632C41.8632 7.488 41.9592 7.356 42.0552 7.236C42.1752 7.092 42.2472 6.984 42.2712 6.912C42.3192 6.816 42.3672 6.732 42.4152 6.66C42.5352 6.468 42.7272 6.372 42.9912 6.372C43.1352 6.372 43.2792 6.432 43.4232 6.552C43.5672 6.648 43.6392 6.768 43.6392 6.912C43.6392 7.056 43.7592 7.284 43.9992 7.596C44.0472 7.74 44.0712 7.872 44.0712 7.992C44.0712 8.328 43.8912 8.772 43.5312 9.324C43.2912 9.684 43.0152 10.176 42.7032 10.8C42.1752 12.072 41.8992 12.792 41.8752 12.96C41.8752 13.104 41.8392 13.272 41.7672 13.464C41.7192 13.632 41.6712 13.836 41.6232 14.076C41.4792 14.652 41.3592 14.988 41.2632 15.084C41.1672 15.18 41.1072 15.288 41.0832 15.408C41.0592 15.432 41.0472 15.54 41.0472 15.732C40.9752 16.068 40.9392 16.368 40.9392 16.632C40.9392 16.776 40.9512 16.86 40.9752 16.884C40.9992 17.1 41.1672 17.208 41.4792 17.208C41.7192 17.208 42.1272 17.064 42.7032 16.776L42.8472 16.56L43.2792 16.308C43.6872 16.164 44.0112 15.888 44.2512 15.48C44.4912 15.192 44.6712 15.024 44.7912 14.976C45.0792 14.832 45.3432 14.556 45.5832 14.148C45.6552 14.076 45.7632 13.992 45.9072 13.896C46.1472 13.752 46.4472 13.464 46.8072 13.032C47.2392 12.48 47.5392 12.204 47.7072 12.204C47.9952 12.204 48.1392 12.324 48.1392 12.564C48.1392 12.732 47.9352 13.032 47.5272 13.464C47.3832 13.632 47.1912 13.752 46.9512 13.824L46.6272 14.184C46.4112 14.52 46.0272 14.868 45.4752 15.228C45.0672 15.54 44.6712 15.888 44.2872 16.272C44.0712 16.536 43.9272 16.668 43.8552 16.668C43.8072 16.668 43.7472 16.68 43.6752 16.704C43.6272 16.728 43.5192 16.836 43.3512 17.028L43.1352 17.28C42.9672 17.424 42.5592 17.616 41.9112 17.856C41.8872 17.88 41.8512 17.904 41.8032 17.928C41.7792 17.928 41.7312 17.94 41.6592 17.964C41.4912 18.012 41.2872 18.072 41.0472 18.144C40.8312 18.216 40.6272 18.252 40.4352 18.252C40.3872 18.252 40.3512 18.24 40.3272 18.216C39.6792 18.12 39.1872 17.844 38.8512 17.388C38.7552 17.244 38.7072 16.908 38.7072 16.38C38.7072 16.02 38.7312 15.732 38.7792 15.516C38.8512 15.276 38.9112 15.036 38.9592 14.796C39.2472 13.596 39.6192 12.468 40.0752 11.412C40.0752 11.34 40.0392 11.304 39.9672 11.304C39.8952 11.352 39.8112 11.436 39.7152 11.556C39.6192 11.676 39.4752 11.796 39.2832 11.916C38.9952 12.108 38.8272 12.264 38.7792 12.384C38.7312 12.48 38.6472 12.576 38.5272 12.672C38.4312 12.768 38.3592 12.84 38.3112 12.888C38.1432 13.08 38.0112 13.2 37.9152 13.248C37.6992 13.488 37.5432 13.692 37.4472 13.86C37.2312 14.052 37.0512 14.232 36.9072 14.4C36.7632 14.544 36.6792 14.628 36.6552 14.652C36.5112 14.724 36.3672 14.868 36.2232 15.084C36.1032 15.3 35.9832 15.48 35.8632 15.624H35.7192C35.6472 15.696 35.5872 15.792 35.5392 15.912C35.5152 16.008 35.2992 16.236 34.8912 16.596C34.6752 16.788 34.5432 16.932 34.4952 17.028C34.3752 17.22 34.1112 17.448 33.7032 17.712L33.1632 18.144C32.4432 18.864 31.6872 19.38 30.8952 19.692C30.3192 19.932 29.8152 20.052 29.3832 20.052C28.9272 20.052 28.6152 19.896 28.4472 19.584C28.4472 19.224 28.5552 18.996 28.7712 18.9C28.8672 18.852 28.9632 18.828 29.0592 18.828C29.1552 18.828 29.2752 18.852 29.4192 18.9C29.5392 18.948 29.7912 18.972 30.1752 18.972C30.5112 18.972 30.7512 18.948 30.8952 18.9C31.1592 18.828 31.3632 18.684 31.5072 18.468L31.6512 18.36C31.7952 18.264 31.9632 18.132 32.1552 17.964C32.3472 17.796 32.5512 17.652 32.7672 17.532C32.9832 17.412 33.1272 17.292 33.1992 17.172C33.2712 17.052 33.3672 16.956 33.4872 16.884C34.4232 16.116 35.2872 15.228 36.0792 14.22C36.1032 14.196 36.1272 14.172 36.1512 14.148C36.1992 14.124 36.2592 14.1 36.3312 14.076C36.4032 13.932 36.7872 13.536 37.4832 12.888ZM57.1178 18.252L56.9378 18.216C56.2898 18.096 55.8218 17.82 55.5338 17.388C55.4138 17.22 55.3538 16.908 55.3538 16.452C55.3538 16.164 55.3898 15.852 55.4618 15.516C55.5578 15.156 55.6418 14.82 55.7138 14.508C55.8338 14.028 55.9778 13.536 56.1458 13.032L55.9658 12.96C55.6778 13.272 55.3418 13.548 54.9578 13.788C54.8618 13.884 54.7898 13.98 54.7418 14.076C54.6938 14.172 54.5618 14.268 54.3458 14.364C54.1538 14.46 53.9858 14.604 53.8418 14.796C53.7698 14.892 53.6738 15 53.5538 15.12C53.4578 15.216 53.3258 15.348 53.1578 15.516C53.0138 15.66 52.8458 15.804 52.6538 15.948C52.2938 16.188 51.9698 16.428 51.6818 16.668C51.2498 17.004 50.8058 17.304 50.3498 17.568L50.1338 17.712C49.9178 17.832 49.7018 17.94 49.4858 18.036C49.2698 18.132 49.0538 18.18 48.8378 18.18C48.6218 18.18 48.3458 18.072 48.0098 17.856C47.5538 17.568 47.3258 16.98 47.3258 16.092C47.3258 15.156 47.4818 14.352 47.7938 13.68V13.356C47.8898 13.26 47.9738 13.164 48.0458 13.068C48.1178 12.972 48.1658 12.84 48.1898 12.672C48.2378 12.504 48.3338 12.348 48.4778 12.204L48.6938 12.132V11.88C48.7658 11.64 48.9338 11.364 49.1978 11.052C49.5338 10.644 49.7618 10.44 49.8818 10.44C50.0018 10.44 50.0618 10.272 50.0618 9.936C50.0858 9.768 50.2778 9.612 50.6378 9.468C50.9978 9.3 51.1778 9.132 51.1778 8.964C51.1778 8.94 51.1778 8.904 51.1778 8.856C51.1778 8.808 51.3578 8.676 51.7178 8.46L52.1858 8.1C52.4498 7.884 52.7018 7.728 52.9418 7.632C53.1818 7.512 53.3978 7.392 53.5898 7.272C53.7818 7.152 53.9738 7.092 54.1658 7.092C54.3818 7.092 54.5498 7.068 54.6698 7.02C54.8138 6.948 54.9338 6.912 55.0298 6.912C55.1498 6.912 55.2938 6.864 55.4618 6.768C55.6298 6.672 55.8578 6.6 56.1458 6.552L56.6498 6.516C58.2578 6.516 59.4338 6.9 60.1778 7.668C60.6818 8.172 60.9338 8.736 60.9338 9.36C60.9338 9.552 60.9218 9.684 60.8978 9.756C60.8738 10.044 60.6458 10.188 60.2138 10.188C60.0698 10.188 59.9498 10.14 59.8538 10.044C59.7818 9.948 59.7458 9.864 59.7458 9.792C59.7458 9.624 59.7698 9.492 59.8178 9.396C59.8658 9.276 59.9138 9.18 59.9618 9.108C60.0338 9.012 60.0698 8.916 60.0698 8.82C60.0698 8.7 60.0098 8.556 59.8898 8.388C59.7938 8.22 59.6858 8.1 59.5658 8.028C59.1338 7.74 58.5698 7.596 57.8738 7.596C57.0578 7.596 56.3258 7.764 55.6778 8.1L55.4618 8.136C55.2698 8.136 55.0418 8.232 54.7778 8.424C54.6338 8.544 54.4418 8.736 54.2018 9C54.1058 9.072 53.9978 9.12 53.8778 9.144C53.6378 9.192 53.4818 9.3 53.4098 9.468C53.3618 9.636 53.2658 9.72 53.1218 9.72C53.0018 9.72 52.8818 9.84 52.7618 10.08C52.6658 10.296 52.5458 10.464 52.4018 10.584C52.2578 10.68 52.1618 10.728 52.1138 10.728C52.0178 10.824 51.9458 10.956 51.8978 11.124C51.7778 11.412 51.6338 11.616 51.4658 11.736C51.3218 11.856 51.0698 12.216 50.7098 12.816L50.3138 13.464C49.9538 14.088 49.6898 14.796 49.5218 15.588C49.4978 15.66 49.4858 15.792 49.4858 15.984C49.4858 16.368 49.6418 16.584 49.9538 16.632C50.2898 16.632 50.5418 16.572 50.7098 16.452C50.8778 16.332 51.0458 16.236 51.2138 16.164C51.6218 15.996 51.8978 15.804 52.0418 15.588C52.1858 15.348 52.3898 15.144 52.6538 14.976C52.9418 14.784 53.2778 14.496 53.6618 14.112C54.0458 13.728 54.4538 13.38 54.8858 13.068L55.7498 12.024L56.0018 11.448C56.1938 11.04 56.4818 10.728 56.8658 10.512C57.1778 10.368 57.5018 10.2 57.8378 10.008C57.8618 9.984 57.9218 9.972 58.0178 9.972C58.2578 9.972 58.4618 10.08 58.6298 10.296C58.8218 10.512 58.9538 10.728 59.0258 10.944C59.0258 10.968 59.0378 11.016 59.0618 11.088C59.0858 11.136 59.0978 11.208 59.0978 11.304C59.0978 11.448 59.0738 11.592 59.0258 11.736C59.0018 11.88 58.9898 12.048 58.9898 12.24C58.9898 12.432 58.8578 12.768 58.5938 13.248C58.4738 13.464 58.3778 13.74 58.3058 14.076C58.2098 14.604 58.0898 14.94 57.9458 15.084C57.8018 15.228 57.7298 15.48 57.7298 15.84C57.6578 16.104 57.6218 16.368 57.6218 16.632C57.6218 16.776 57.6338 16.86 57.6578 16.884C57.6818 17.1 57.8498 17.208 58.1618 17.208C58.3778 17.208 58.6538 17.076 58.9898 16.812C59.2538 16.596 59.6858 16.296 60.2858 15.912C60.5258 15.768 60.7778 15.552 61.0418 15.264C61.1858 15.12 61.3058 15.036 61.4018 15.012C61.4978 14.964 61.5698 14.916 61.6178 14.868C61.9058 14.628 62.1218 14.388 62.2658 14.148C62.3378 14.076 62.4458 13.992 62.5898 13.896C62.8538 13.728 63.1538 13.44 63.4898 13.032C63.9458 12.48 64.2458 12.204 64.3898 12.204C64.6778 12.204 64.8218 12.324 64.8218 12.564C64.8218 12.66 64.7378 12.828 64.5698 13.068C64.2818 13.452 64.0538 13.68 63.8858 13.752L63.6338 13.824C62.6978 14.904 61.9658 15.636 61.4378 16.02C61.3178 16.116 61.2098 16.2 61.1138 16.272C61.0418 16.344 60.9338 16.392 60.7898 16.416C60.6698 16.44 60.5978 16.5 60.5738 16.596C60.5498 16.692 60.4058 16.836 60.1418 17.028C59.7578 17.316 59.3618 17.544 58.9538 17.712L58.5938 17.856C58.1618 18.12 57.6698 18.252 57.1178 18.252ZM66.1549 18.54C65.3629 18.54 64.9669 18.072 64.9669 17.136C64.9669 16.272 65.2069 15.3 65.6869 14.22C65.8549 13.836 65.9989 13.452 66.1189 13.068C66.2389 12.66 66.4669 12.108 66.8029 11.412C66.9229 11.172 67.0309 10.944 67.1269 10.728C67.2469 10.488 67.3069 10.272 67.3069 10.08C67.3069 9.912 67.2709 9.828 67.1989 9.828C67.0549 9.828 66.8869 9.948 66.6949 10.188C65.9749 11.028 65.1949 11.88 64.3549 12.744C64.2109 12.96 63.9709 13.068 63.6349 13.068C63.4669 13.068 63.3829 13.008 63.3829 12.888C63.3829 12.816 63.3949 12.768 63.4189 12.744C63.5629 12.456 63.7309 12.252 63.9229 12.132C64.1149 11.988 64.2589 11.82 64.3549 11.628C64.4749 11.436 64.5709 11.328 64.6429 11.304C64.7149 11.28 64.8709 11.16 65.1109 10.944C65.3509 10.704 65.4949 10.548 65.5429 10.476C65.6149 10.404 65.6509 10.344 65.6509 10.296C65.6509 10.224 65.7469 10.092 65.9389 9.9C66.0589 9.78 66.1669 9.66 66.2629 9.54C66.3589 9.396 66.5149 9.228 66.7309 9.036C67.0669 8.772 67.2949 8.472 67.4149 8.136C67.4869 7.944 67.5709 7.752 67.6669 7.56C67.7869 7.344 68.0749 7.176 68.5309 7.056C68.7469 6.984 68.9869 6.876 69.2509 6.732C69.5629 6.492 69.9109 6.312 70.2949 6.192C70.4869 6.192 70.6429 6.228 70.7629 6.3C70.8829 6.372 70.9669 6.456 71.0149 6.552C71.0629 6.624 71.0869 6.72 71.0869 6.84C71.0869 7.08 71.0149 7.296 70.8709 7.488C70.7989 7.704 70.7629 7.968 70.7629 8.28C70.7629 8.496 70.6069 8.82 70.2949 9.252C70.0549 9.66 69.9349 9.9 69.9349 9.972C69.9349 10.02 69.9229 10.068 69.8989 10.116C69.8749 10.164 69.8389 10.212 69.7909 10.26C69.7669 10.308 69.7429 10.38 69.7189 10.476C69.6949 10.548 69.6829 10.656 69.6829 10.8C69.6829 10.944 69.6349 11.088 69.5389 11.232C69.0349 12.024 68.5429 13.188 68.0629 14.724C67.8709 15.348 67.7749 15.78 67.7749 16.02C67.8229 16.212 67.9909 16.308 68.2789 16.308C68.6389 16.308 69.0589 16.116 69.5389 15.732C70.1389 15.276 70.4629 14.964 70.5109 14.796C70.5589 14.628 70.7509 14.472 71.0869 14.328C71.5669 14.016 71.8669 13.752 71.9869 13.536C72.0589 13.44 72.1429 13.356 72.2389 13.284C72.3349 13.212 72.4309 13.14 72.5269 13.068C72.7189 12.972 72.9709 12.768 73.2829 12.456C73.4989 12.288 73.6789 12.096 73.8229 11.88C73.9909 11.664 74.1829 11.46 74.3989 11.268C74.8069 10.86 75.1189 10.44 75.3349 10.008C75.6229 9.48 75.9349 9.072 76.2709 8.784C76.5589 8.568 76.8229 8.244 77.0629 7.812C77.2309 7.404 77.4469 7.164 77.7109 7.092C77.7589 7.092 77.8189 7.068 77.8909 7.02C77.9869 6.948 78.1069 6.912 78.2509 6.912C78.3229 6.912 78.3709 6.924 78.3949 6.948C78.8509 7.236 79.0789 7.716 79.0789 8.388C79.0789 8.556 79.0669 8.652 79.0429 8.676C78.8269 8.988 78.6349 9.348 78.4669 9.756C78.3229 10.164 78.1429 10.5 77.9269 10.764C77.5189 11.316 77.2069 12.144 76.9909 13.248C76.9189 13.56 76.8349 13.848 76.7389 14.112C76.6669 14.376 76.6309 14.676 76.6309 15.012C76.6309 15.684 76.8229 16.188 77.2069 16.524C77.2309 16.524 77.2669 16.536 77.3149 16.56C77.3629 16.584 77.4109 16.596 77.4589 16.596C77.7229 16.596 78.0229 16.5 78.3589 16.308C79.1269 15.876 80.2309 14.904 81.6709 13.392L81.9229 13.14C82.3069 12.636 82.6309 12.384 82.8949 12.384L83.1469 12.42C83.2669 12.444 83.3269 12.504 83.3269 12.6L83.2909 12.672C83.1949 12.96 82.9309 13.272 82.4989 13.608C82.3789 13.656 82.1269 13.872 81.7429 14.256C81.5989 14.4 81.5149 14.508 81.4909 14.58C81.4669 14.628 81.4429 14.7 81.4189 14.796C81.3949 14.892 81.2629 14.988 81.0229 15.084C80.6389 15.252 80.3629 15.504 80.1949 15.84C80.0749 16.056 79.9549 16.2 79.8349 16.272C79.7149 16.32 79.5949 16.38 79.4749 16.452C79.3549 16.5 79.2469 16.572 79.1509 16.668C78.9589 16.908 78.7189 17.052 78.4309 17.1L78.1789 17.208C77.8909 17.496 77.5909 17.688 77.2789 17.784C77.0389 17.856 76.7389 17.892 76.3789 17.892C76.1629 17.892 76.0069 17.868 75.9109 17.82C75.8389 17.772 75.7789 17.712 75.7309 17.64C75.6349 17.448 75.4429 17.328 75.1549 17.28C74.8669 17.208 74.6749 17.088 74.5789 16.92C74.2909 16.44 74.1469 15.912 74.1469 15.336C74.1469 14.712 74.2549 14.1 74.4709 13.5C74.5429 13.212 74.5909 12.876 74.6149 12.492C74.6149 12.396 74.5909 12.348 74.5429 12.348L74.3989 12.384C74.0149 12.744 73.6069 13.08 73.1749 13.392C72.7669 13.68 72.5269 13.908 72.4549 14.076C72.2869 14.316 72.0949 14.472 71.8789 14.544C71.6869 14.616 71.3749 14.892 70.9429 15.372C70.7989 15.54 70.6309 15.696 70.4389 15.84C70.2709 15.984 70.0669 16.176 69.8269 16.416C69.5869 16.632 69.2989 16.848 68.9629 17.064C68.6269 17.28 68.3509 17.508 68.1349 17.748C67.9189 17.964 67.6549 18.168 67.3429 18.36L67.1629 18.432C67.1149 18.432 67.0789 18.42 67.0549 18.396H66.9109C66.6229 18.492 66.3709 18.54 66.1549 18.54ZM74.8309 5.184C74.5909 5.184 74.3989 5.124 74.2549 5.004C74.1349 4.884 74.0029 4.764 73.8589 4.644C73.6669 4.356 73.5469 4.2 73.4989 4.176C73.4749 4.152 73.4029 4.08 73.2829 3.96C73.2109 3.744 73.0789 3.492 72.8869 3.204C72.7669 2.916 72.6829 2.64 72.6349 2.376L72.5989 2.232C72.4309 1.728 72.3469 1.404 72.3469 1.26C72.3469 1.044 72.4069 0.935999 72.5269 0.935999C72.6469 0.935999 72.8029 1.068 72.9949 1.332L73.2829 1.836C73.3069 1.884 73.3309 1.956 73.3549 2.052C73.4029 2.124 73.4509 2.196 73.4989 2.268C73.5709 2.316 73.8229 2.676 74.2549 3.348C74.5189 3.732 74.8069 3.924 75.1189 3.924C75.3349 3.924 75.5869 3.84 75.8749 3.672C75.9469 3.624 76.0549 3.576 76.1989 3.528C76.3429 3.456 76.5349 3.348 76.7749 3.204C76.9189 3.06 77.3029 2.76 77.9269 2.304C78.0469 2.256 78.1309 2.232 78.1789 2.232C78.2749 2.256 78.3229 2.328 78.3229 2.448L78.1789 2.808C78.0829 3 77.9509 3.18 77.7829 3.348C77.7589 3.348 77.7349 3.36 77.7109 3.384C77.7109 3.408 77.6869 3.432 77.6389 3.456L77.0989 3.996C77.0029 4.14 76.8589 4.236 76.6669 4.284C76.6669 4.356 76.6309 4.404 76.5589 4.428C76.5109 4.428 76.4749 4.452 76.4509 4.5C76.2589 4.596 76.1269 4.68 76.0549 4.752C75.6229 5.04 75.2149 5.184 74.8309 5.184ZM84.8555 18.432C84.3275 18.432 84.0635 18.252 84.0635 17.892C84.0875 17.82 84.0995 17.7 84.0995 17.532C84.0995 17.34 84.1955 16.968 84.3875 16.416C84.4595 16.2 84.5555 15.996 84.6755 15.804L84.7835 15.66C84.9035 15.444 84.9635 15.276 84.9635 15.156C84.9635 15.012 84.9755 14.88 84.9995 14.76C85.5275 13.368 85.8755 12.504 86.0435 12.168C86.0915 12.024 86.1155 11.892 86.1155 11.772C86.1155 11.388 86.2835 10.884 86.6195 10.26C86.8355 9.9 86.9795 9.48 87.0515 9C87.0035 9 86.9675 8.988 86.9435 8.964C86.9435 8.94 86.9315 8.916 86.9075 8.892C86.7875 8.916 86.6675 9 86.5475 9.144C86.4515 9.264 86.3075 9.396 86.1155 9.54C86.0435 9.588 85.9475 9.72 85.8275 9.936C85.7315 10.128 85.5875 10.32 85.3955 10.512C85.2275 10.68 85.0835 10.848 84.9635 11.016C84.8435 11.16 84.7235 11.292 84.6035 11.412C84.0755 11.892 83.6915 12.276 83.4515 12.564C83.2835 12.78 83.1035 12.888 82.9115 12.888C82.8395 12.888 82.7915 12.876 82.7675 12.852C82.6715 12.756 82.6235 12.672 82.6235 12.6C82.6715 12.384 82.8275 12.18 83.0915 11.988C83.2115 11.892 83.3075 11.796 83.3795 11.7C83.4995 11.532 83.6435 11.364 83.8115 11.196C84.0035 11.004 84.2315 10.74 84.4955 10.404C85.6235 9.132 86.6075 7.872 87.4475 6.624C87.8075 6.048 88.3355 5.58 89.0315 5.22C89.3675 5.052 89.5835 4.968 89.6795 4.968C89.7755 4.968 89.8355 4.992 89.8595 5.04C89.9075 5.088 89.9315 5.148 89.9315 5.22C89.9555 5.292 89.9795 5.376 90.0035 5.472C90.0035 5.664 89.9795 5.904 89.9315 6.192C89.7635 6.912 89.6435 7.332 89.5715 7.452C89.4515 7.764 89.3435 8.232 89.2475 8.856C89.2235 8.904 89.1875 8.964 89.1395 9.036C89.0915 9.108 89.0555 9.18 89.0315 9.252L89.0675 9.54C89.0675 9.636 89.0555 9.708 89.0315 9.756C89.0075 9.804 88.8995 10.152 88.7075 10.8L88.2395 12.096L88.1675 12.276H88.2755C89.2835 12.108 89.8715 11.952 90.0395 11.808C90.2315 11.664 90.5675 11.592 91.0475 11.592C91.7675 11.544 92.2955 11.424 92.6315 11.232C92.7755 11.16 93.0875 11.088 93.5675 11.016L94.2155 10.98L95.2235 10.728L96.1955 8.784C96.4115 8.352 96.5915 8.04 96.7355 7.848C96.8795 7.632 96.9755 7.428 97.0235 7.236C97.2395 6.996 97.4675 6.672 97.7075 6.264C97.8755 5.856 98.0915 5.616 98.3555 5.544C98.4035 5.544 98.4635 5.52 98.5355 5.472C98.6315 5.4 98.7515 5.364 98.8955 5.364C98.9675 5.364 99.0155 5.376 99.0395 5.4C99.4955 5.688 99.7235 6.168 99.7235 6.84C99.7235 7.008 99.7115 7.104 99.6875 7.128C99.4715 7.44 99.2795 7.8 99.1115 8.208C98.9675 8.616 98.7875 8.952 98.5715 9.216L97.5275 11.232C97.2395 11.88 97.0235 12.552 96.8795 13.248C96.8075 13.56 96.7235 13.848 96.6275 14.112C96.5555 14.376 96.5195 14.676 96.5195 15.012C96.5195 15.684 96.7115 16.188 97.0955 16.524C97.1195 16.524 97.1555 16.536 97.2035 16.56C97.2515 16.584 97.2995 16.596 97.3475 16.596C98.1395 16.596 99.5915 15.48 101.704 13.248C102.184 12.672 102.556 12.384 102.82 12.384C102.892 12.408 102.976 12.432 103.072 12.456C103.168 12.456 103.216 12.504 103.216 12.6L103.18 12.672C103.084 12.936 102.82 13.248 102.388 13.608C102.268 13.656 102.148 13.74 102.028 13.86C101.62 14.268 101.404 14.508 101.38 14.58C101.356 14.628 101.332 14.7 101.308 14.796C101.284 14.892 101.152 14.988 100.912 15.084C100.528 15.252 100.252 15.504 100.084 15.84C99.9635 16.056 99.8435 16.212 99.7235 16.308C99.4115 16.404 99.1715 16.548 99.0035 16.74C98.8355 16.932 98.6075 17.052 98.3195 17.1C98.2475 17.124 98.1515 17.184 98.0315 17.28C97.9355 17.352 97.7915 17.448 97.5995 17.568C97.3835 17.784 96.9635 17.892 96.3395 17.892C95.9555 17.892 95.7155 17.808 95.6195 17.64C95.5235 17.448 95.3315 17.328 95.0435 17.28C94.7555 17.208 94.5635 17.088 94.4675 16.92C94.1795 16.44 94.0355 15.912 94.0355 15.336C94.0355 14.712 94.1435 14.1 94.3595 13.5C94.4315 13.212 94.4795 12.876 94.5035 12.492C94.5035 12.372 94.5875 12.18 94.7555 11.916L94.8635 11.628L94.2515 11.736C93.6275 11.784 93.1595 11.892 92.8475 12.06C92.6555 12.204 92.4035 12.276 92.0915 12.276H91.8395C91.4555 12.276 90.9155 12.396 90.2195 12.636C89.9315 12.756 89.6675 12.84 89.4275 12.888C88.7555 12.984 88.2515 13.092 87.9155 13.212C87.8915 13.452 87.8315 13.68 87.7355 13.896C87.5675 14.496 87.4355 14.916 87.3395 15.156C87.2435 15.396 87.1595 15.624 87.0875 15.84C87.0875 16.08 87.0515 16.236 86.9795 16.308C86.9315 16.356 86.9075 16.524 86.9075 16.812C86.9075 17.748 86.4755 18.252 85.6115 18.324L84.8555 18.432ZM114.178 18.432H113.998C113.542 18.432 113.314 18.252 113.314 17.892L113.35 17.568C113.374 17.28 113.458 16.908 113.602 16.452C113.698 16.164 113.806 15.948 113.926 15.804C114.118 15.564 114.214 15.336 114.214 15.12L114.25 14.76L114.646 13.752C114.838 13.2 115.054 12.672 115.294 12.168C115.342 12.024 115.366 11.892 115.366 11.772C115.366 11.628 115.39 11.496 115.438 11.376C115.558 10.944 115.714 10.56 115.906 10.224C116.098 9.888 116.23 9.48 116.302 9L116.122 8.892C116.026 8.916 115.918 9 115.798 9.144C115.702 9.264 115.558 9.396 115.366 9.54C115.294 9.588 115.198 9.72 115.078 9.936C114.982 10.128 114.838 10.32 114.646 10.512C114.478 10.68 114.334 10.848 114.214 11.016C114.094 11.16 113.974 11.292 113.854 11.412C113.326 11.892 113.002 12.216 112.882 12.384C112.618 12.72 112.378 12.888 112.162 12.888C112.09 12.888 112.042 12.876 112.018 12.852C111.922 12.756 111.874 12.672 111.874 12.6C111.922 12.384 112.078 12.18 112.342 11.988C112.51 11.868 112.63 11.748 112.702 11.628C112.774 11.508 112.894 11.364 113.062 11.196C113.254 11.004 113.434 10.8 113.602 10.584L113.89 10.224C114.922 9.072 115.858 7.872 116.698 6.624C117.058 6.072 117.586 5.604 118.282 5.22C118.546 5.052 118.762 4.968 118.93 4.968C119.026 4.968 119.086 4.992 119.11 5.04C119.158 5.088 119.182 5.148 119.182 5.22C119.206 5.292 119.23 5.376 119.254 5.472C119.254 5.664 119.23 5.904 119.182 6.192C119.038 6.816 118.918 7.236 118.822 7.452C118.702 7.788 118.618 8.112 118.57 8.424C118.522 8.736 118.462 8.94 118.39 9.036C118.342 9.108 118.306 9.168 118.282 9.216L118.318 9.54C118.318 9.636 118.306 9.696 118.282 9.72C118.186 9.936 118.114 10.152 118.066 10.368C118.042 10.584 117.934 10.932 117.742 11.412C117.502 12.036 117.382 12.42 117.382 12.564C117.382 12.636 117.394 12.672 117.418 12.672C117.634 12.672 117.97 12.348 118.426 11.7C118.762 11.268 119.11 10.848 119.47 10.44L120.01 9.828C120.346 9.444 120.742 9.036 121.198 8.604C121.438 8.364 121.654 8.148 121.846 7.956C122.038 7.74 122.29 7.512 122.602 7.272C123.178 6.792 123.754 6.552 124.33 6.552C124.882 6.552 125.314 6.792 125.626 7.272C125.77 7.536 125.854 7.824 125.878 8.136C125.926 8.448 125.95 8.772 125.95 9.108C125.95 9.3 125.926 9.456 125.878 9.576C125.83 9.672 125.806 9.804 125.806 9.972C125.782 10.02 125.758 10.08 125.734 10.152C125.71 10.2 125.698 10.284 125.698 10.404C125.698 10.5 125.71 10.572 125.734 10.62C125.758 10.668 125.77 10.764 125.77 10.908L125.698 11.88C125.698 12.48 125.626 12.948 125.482 13.284C125.482 13.668 125.494 13.956 125.518 14.148C125.542 14.34 125.554 14.508 125.554 14.652L125.518 15.228C125.518 15.804 125.686 16.248 126.022 16.56C126.142 16.656 126.31 16.704 126.526 16.704C126.934 16.704 127.282 16.608 127.57 16.416C127.882 16.224 128.302 15.864 128.83 15.336C128.974 15.192 129.058 15.084 129.082 15.012C129.13 14.94 129.178 14.88 129.226 14.832C129.274 14.76 129.562 14.52 130.09 14.112C130.282 13.92 130.522 13.632 130.81 13.248C131.362 12.552 131.686 12.18 131.782 12.132C131.902 12.084 131.974 12.06 131.998 12.06C132.046 12.036 132.082 12.024 132.106 12.024C132.274 12.024 132.358 12.156 132.358 12.42C132.358 12.516 132.346 12.576 132.322 12.6C132.322 12.768 132.226 12.96 132.034 13.176C131.722 13.488 131.482 13.68 131.314 13.752C131.17 13.824 131.074 13.932 131.026 14.076C130.978 14.22 130.57 14.664 129.802 15.408C129.466 15.696 129.202 15.936 129.01 16.128C128.842 16.296 128.65 16.476 128.434 16.668C127.978 17.028 127.63 17.268 127.39 17.388C127.15 17.508 126.994 17.592 126.922 17.64C126.706 17.856 126.25 18.048 125.554 18.216C125.002 18.216 124.558 18.132 124.222 17.964C123.886 17.772 123.634 17.472 123.466 17.064L123.394 16.812L123.43 16.416C123.43 16.272 123.382 16.14 123.286 16.02C123.262 15.996 123.226 15.96 123.178 15.912C123.154 15.84 123.142 15.3 123.142 14.292L123.178 12.168C123.202 11.664 123.274 11.22 123.394 10.836C123.514 10.428 123.574 10.008 123.574 9.576C123.574 8.784 123.346 8.388 122.89 8.388C122.578 8.388 122.242 8.58 121.882 8.964C121.762 9.084 121.678 9.204 121.63 9.324C121.51 9.516 121.342 9.684 121.126 9.828C120.934 9.972 120.778 10.104 120.658 10.224L120.406 10.728C120.142 10.944 120.01 11.112 120.01 11.232C120.01 11.352 119.914 11.46 119.722 11.556C119.554 11.652 119.422 11.784 119.326 11.952C119.254 12.096 119.158 12.216 119.038 12.312C117.838 13.728 117.118 14.748 116.878 15.372C116.734 15.756 116.578 16.02 116.41 16.164C116.362 16.188 116.302 16.236 116.23 16.308C116.182 16.356 116.158 16.464 116.158 16.632C116.158 16.8 116.146 16.896 116.122 16.92L115.978 17.352C115.858 17.832 115.714 18.108 115.546 18.18C115.378 18.252 115.162 18.3 114.898 18.324C114.634 18.348 114.394 18.384 114.178 18.432ZM129.408 36.36C129.168 36.36 128.928 36.264 128.688 36.072C128.664 36.072 128.652 36.06 128.652 36.036C128.532 35.988 128.424 35.916 128.328 35.82C128.208 35.724 128.148 35.508 128.148 35.172C128.148 34.716 128.208 34.14 128.328 33.444C128.424 32.772 128.52 32.28 128.616 31.968L128.76 31.428C128.808 31.116 128.904 30.792 129.048 30.456L129.804 27.72C129.876 27.504 129.972 27.324 130.092 27.18C130.188 27.036 130.248 26.928 130.272 26.856C130.296 26.784 130.344 26.688 130.416 26.568C130.464 26.472 130.488 26.352 130.488 26.208C130.488 25.872 130.56 25.62 130.704 25.452C130.896 25.068 130.992 24.66 130.992 24.228C130.992 23.82 131.076 23.388 131.244 22.932C131.388 22.476 131.544 22.02 131.712 21.564L132.072 20.628L132.144 20.52C132.408 20.136 132.552 19.752 132.576 19.368C132.6 19.2 132.648 19.008 132.72 18.792C132.912 18.312 133.092 17.808 133.26 17.28C133.476 16.56 133.74 15.852 134.052 15.156L134.772 12.816C135.036 12.12 135.192 11.616 135.24 11.304C135.336 10.824 135.516 10.296 135.78 9.72C136.092 8.952 136.248 8.508 136.248 8.388C136.248 8.316 136.212 8.28 136.14 8.28C136.068 8.28 136.008 8.304 135.96 8.352C135.912 8.4 135.816 8.484 135.672 8.604C135.528 8.724 135.432 8.82 135.384 8.892C135.336 8.964 135.3 9.024 135.276 9.072C135.252 9.12 135.18 9.168 135.06 9.216C134.844 9.456 134.652 9.696 134.484 9.936C134.316 10.176 134.148 10.392 133.98 10.584C133.5 11.016 133.212 11.316 133.116 11.484C132.396 12.348 131.88 12.828 131.568 12.924L131.496 12.96C131.352 12.96 131.256 12.936 131.208 12.888C131.16 12.84 131.136 12.804 131.136 12.78C131.136 12.588 131.448 12.204 132.072 11.628C132.768 10.836 133.404 10.08 133.98 9.36C134.028 9.312 134.1 9.276 134.196 9.252C134.412 9.18 134.556 9.012 134.628 8.748C134.724 8.46 134.892 8.196 135.132 7.956C135.3 7.788 135.384 7.668 135.384 7.596C135.408 7.524 135.432 7.464 135.456 7.416C135.48 7.368 135.492 7.308 135.492 7.236C135.516 7.14 135.876 6.708 136.572 5.94L137.364 5.076C137.412 5.028 137.484 4.98 137.58 4.932C137.676 4.884 137.784 4.776 137.904 4.608C138.12 4.392 138.348 4.248 138.588 4.176C138.612 4.176 138.744 4.284 138.984 4.5C139.224 4.692 139.344 5.04 139.344 5.544C139.344 6.072 139.248 6.528 139.056 6.912C139.056 7.272 138.768 8.028 138.192 9.18C138 9.612 137.868 9.936 137.796 10.152C137.796 10.536 137.748 10.872 137.652 11.16L137.472 11.52C137.256 11.928 137.124 12.348 137.076 12.78C137.028 13.188 136.932 13.5 136.788 13.716C136.716 13.836 136.668 13.98 136.644 14.148C136.836 14.148 137.052 13.908 137.292 13.428C137.388 13.236 137.484 13.08 137.58 12.96C137.796 12.72 138.12 12.288 138.552 11.664C138.6 11.616 138.66 11.592 138.732 11.592C138.804 11.592 138.852 11.58 138.876 11.556C139.044 11.316 139.272 11.052 139.56 10.764C140.112 10.116 140.688 9.492 141.288 8.892C141.984 8.196 142.704 7.596 143.448 7.092C144.216 6.588 144.972 6.336 145.716 6.336C146.124 6.336 146.484 6.42 146.796 6.588C147.108 6.756 147.336 7.056 147.48 7.488C147.624 7.92 147.696 8.412 147.696 8.964L147.66 9.72C147.636 9.864 147.516 10.212 147.3 10.764C147.156 11.652 146.772 12.576 146.148 13.536C145.98 13.8 145.836 14.076 145.716 14.364C145.644 14.484 145.536 14.592 145.392 14.688C145.272 14.784 145.176 14.892 145.104 15.012C144.648 15.708 143.964 16.32 143.052 16.848C142.452 17.208 142.128 17.424 142.08 17.496C142.032 17.568 141.972 17.628 141.9 17.676C141.252 17.94 140.616 18.072 139.992 18.072C139.128 18.072 138.396 17.784 137.796 17.208L137.688 17.1C137.616 17.028 137.568 16.98 137.544 16.956C137.544 16.908 137.532 16.872 137.508 16.848C137.508 16.824 137.496 16.812 137.472 16.812C137.448 16.788 137.424 16.776 137.4 16.776C137.376 16.752 137.364 16.668 137.364 16.524C137.364 16.356 137.412 16.272 137.508 16.272C137.556 16.272 137.592 16.272 137.616 16.272C137.64 16.272 137.796 16.356 138.084 16.524C138.396 16.692 138.768 16.776 139.2 16.776C140.04 16.776 140.796 16.44 141.468 15.768L141.504 15.732C141.696 15.612 141.864 15.444 142.008 15.228C142.176 15.012 142.428 14.772 142.764 14.508C142.836 14.46 142.896 14.436 142.944 14.436C143.016 14.412 143.088 14.388 143.16 14.364C143.256 14.34 143.328 14.184 143.376 13.896C143.4 13.8 143.436 13.692 143.484 13.572C143.556 13.452 143.892 12.888 144.492 11.88C144.732 11.448 144.948 10.944 145.14 10.368C145.14 10.176 145.176 9.984 145.248 9.792C145.392 9.432 145.464 9.036 145.464 8.604C145.464 7.908 145.26 7.536 144.852 7.488C144.42 7.488 143.904 7.692 143.304 8.1C142.728 8.484 142.152 9.024 141.576 9.72C141.072 10.224 140.772 10.5 140.676 10.548C140.604 10.572 140.544 10.608 140.496 10.656C139.848 11.304 139.356 11.868 139.02 12.348C138.06 13.5 137.496 14.22 137.328 14.508C136.92 15.036 136.464 15.792 135.96 16.776C135.6 17.472 135.324 17.952 135.132 18.216C135.012 18.384 134.88 18.576 134.736 18.792C134.616 19.032 134.544 19.296 134.52 19.584C134.4 20.112 134.268 20.508 134.124 20.772C134.124 20.82 133.98 21.18 133.692 21.852C133.572 22.092 133.488 22.284 133.44 22.428L133.404 22.464C133.404 22.632 133.38 22.752 133.332 22.824C133.284 22.896 133.2 23.004 133.08 23.148C132.984 23.292 132.936 23.472 132.936 23.688C132.936 23.904 132.708 24.708 132.252 26.1C132.012 26.82 131.796 27.336 131.604 27.648L131.244 28.512C131.196 28.608 131.172 28.788 131.172 29.052C131.172 29.316 131.148 29.496 131.1 29.592C130.692 30.672 130.428 31.692 130.308 32.652L130.272 32.796C130.248 32.94 130.236 33.252 130.236 33.732C130.26 34.02 130.272 34.332 130.272 34.668C130.272 34.98 130.26 35.268 130.236 35.532C130.188 36.084 129.912 36.36 129.408 36.36ZM157.805 18.252L157.625 18.216C156.977 18.096 156.509 17.82 156.221 17.388C156.101 17.22 156.041 16.908 156.041 16.452C156.041 16.164 156.077 15.852 156.149 15.516C156.245 15.156 156.329 14.82 156.401 14.508C156.521 14.028 156.665 13.536 156.833 13.032L156.653 12.96C156.365 13.272 156.029 13.548 155.645 13.788C155.549 13.884 155.477 13.98 155.429 14.076C155.381 14.172 155.249 14.268 155.033 14.364C154.841 14.46 154.673 14.604 154.529 14.796C154.457 14.892 154.361 15 154.241 15.12C154.145 15.216 154.013 15.348 153.845 15.516C153.701 15.66 153.533 15.804 153.341 15.948C152.981 16.188 152.657 16.428 152.369 16.668C151.937 17.004 151.493 17.304 151.037 17.568L150.821 17.712C150.605 17.832 150.389 17.94 150.173 18.036C149.957 18.132 149.741 18.18 149.525 18.18C149.309 18.18 149.033 18.072 148.697 17.856C148.241 17.568 148.013 16.98 148.013 16.092C148.013 15.156 148.169 14.352 148.481 13.68V13.356C148.577 13.26 148.661 13.164 148.733 13.068C148.805 12.972 148.853 12.84 148.877 12.672C148.925 12.504 149.021 12.348 149.165 12.204L149.381 12.132V11.88C149.453 11.64 149.621 11.364 149.885 11.052C150.221 10.644 150.449 10.44 150.569 10.44C150.689 10.44 150.749 10.272 150.749 9.936C150.773 9.768 150.965 9.612 151.325 9.468C151.685 9.3 151.865 9.132 151.865 8.964C151.865 8.94 151.865 8.904 151.865 8.856C151.865 8.808 152.045 8.676 152.405 8.46L152.873 8.1C153.137 7.884 153.389 7.728 153.629 7.632C153.869 7.512 154.085 7.392 154.277 7.272C154.469 7.152 154.661 7.092 154.853 7.092C155.069 7.092 155.237 7.068 155.357 7.02C155.501 6.948 155.621 6.912 155.717 6.912C155.837 6.912 155.981 6.864 156.149 6.768C156.317 6.672 156.545 6.6 156.833 6.552L157.337 6.516C158.945 6.516 160.121 6.9 160.865 7.668C161.369 8.172 161.621 8.736 161.621 9.36C161.621 9.552 161.609 9.684 161.585 9.756C161.561 10.044 161.333 10.188 160.901 10.188C160.757 10.188 160.637 10.14 160.541 10.044C160.469 9.948 160.433 9.864 160.433 9.792C160.433 9.624 160.457 9.492 160.505 9.396C160.553 9.276 160.601 9.18 160.649 9.108C160.721 9.012 160.757 8.916 160.757 8.82C160.757 8.7 160.697 8.556 160.577 8.388C160.481 8.22 160.373 8.1 160.253 8.028C159.821 7.74 159.257 7.596 158.561 7.596C157.745 7.596 157.013 7.764 156.365 8.1L156.149 8.136C155.957 8.136 155.729 8.232 155.465 8.424C155.321 8.544 155.129 8.736 154.889 9C154.793 9.072 154.685 9.12 154.565 9.144C154.325 9.192 154.169 9.3 154.097 9.468C154.049 9.636 153.953 9.72 153.809 9.72C153.689 9.72 153.569 9.84 153.449 10.08C153.353 10.296 153.233 10.464 153.089 10.584C152.945 10.68 152.849 10.728 152.801 10.728C152.705 10.824 152.633 10.956 152.585 11.124C152.465 11.412 152.321 11.616 152.153 11.736C152.009 11.856 151.757 12.216 151.397 12.816L151.001 13.464C150.641 14.088 150.377 14.796 150.209 15.588C150.185 15.66 150.173 15.792 150.173 15.984C150.173 16.368 150.329 16.584 150.641 16.632C150.977 16.632 151.229 16.572 151.397 16.452C151.565 16.332 151.733 16.236 151.901 16.164C152.309 15.996 152.585 15.804 152.729 15.588C152.873 15.348 153.077 15.144 153.341 14.976C153.629 14.784 153.965 14.496 154.349 14.112C154.733 13.728 155.141 13.38 155.573 13.068L156.437 12.024L156.689 11.448C156.881 11.04 157.169 10.728 157.553 10.512C157.865 10.368 158.189 10.2 158.525 10.008C158.549 9.984 158.609 9.972 158.705 9.972C158.945 9.972 159.149 10.08 159.317 10.296C159.509 10.512 159.641 10.728 159.713 10.944C159.713 10.968 159.725 11.016 159.749 11.088C159.773 11.136 159.785 11.208 159.785 11.304C159.785 11.448 159.761 11.592 159.713 11.736C159.689 11.88 159.677 12.048 159.677 12.24C159.677 12.432 159.545 12.768 159.281 13.248C159.161 13.464 159.065 13.74 158.993 14.076C158.897 14.604 158.777 14.94 158.633 15.084C158.489 15.228 158.417 15.48 158.417 15.84C158.345 16.104 158.309 16.368 158.309 16.632C158.309 16.776 158.321 16.86 158.345 16.884C158.369 17.1 158.537 17.208 158.849 17.208C159.065 17.208 159.341 17.076 159.677 16.812C159.941 16.596 160.373 16.296 160.973 15.912C161.213 15.768 161.465 15.552 161.729 15.264C161.873 15.12 161.993 15.036 162.089 15.012C162.185 14.964 162.257 14.916 162.305 14.868C162.593 14.628 162.809 14.388 162.953 14.148C163.025 14.076 163.133 13.992 163.277 13.896C163.541 13.728 163.841 13.44 164.177 13.032C164.633 12.48 164.933 12.204 165.077 12.204C165.365 12.204 165.509 12.324 165.509 12.564C165.509 12.66 165.425 12.828 165.257 13.068C164.969 13.452 164.741 13.68 164.573 13.752L164.321 13.824C163.385 14.904 162.653 15.636 162.125 16.02C162.005 16.116 161.897 16.2 161.801 16.272C161.729 16.344 161.621 16.392 161.477 16.416C161.357 16.44 161.285 16.5 161.261 16.596C161.237 16.692 161.093 16.836 160.829 17.028C160.445 17.316 160.049 17.544 159.641 17.712L159.281 17.856C158.849 18.12 158.357 18.252 157.805 18.252ZM174.582 18.432C173.838 18.432 173.202 18.264 172.674 17.928C172.362 17.736 172.146 17.52 172.026 17.28C171.954 17.136 171.882 17.028 171.81 16.956C171.474 16.692 171.198 16.296 170.982 15.768C170.91 15.312 170.67 14.88 170.262 14.472L169.902 13.932C169.806 13.836 169.746 13.74 169.722 13.644C169.602 14.1 169.434 14.604 169.218 15.156L168.966 15.84C168.966 16.08 168.93 16.236 168.858 16.308C168.81 16.356 168.786 16.524 168.786 16.812C168.786 17.748 168.354 18.252 167.49 18.324L166.734 18.432C166.206 18.432 165.942 18.252 165.942 17.892C165.966 17.82 165.978 17.7 165.978 17.532C165.978 17.34 166.074 16.968 166.266 16.416C166.338 16.2 166.434 15.996 166.554 15.804L166.662 15.66C166.782 15.444 166.842 15.276 166.842 15.156C166.842 15.012 166.854 14.88 166.878 14.76C167.406 13.368 167.754 12.504 167.922 12.168C167.97 12.024 167.994 11.892 167.994 11.772C167.994 11.388 168.162 10.884 168.498 10.26C168.714 9.9 168.858 9.48 168.93 9C168.882 9 168.846 8.988 168.822 8.964C168.822 8.94 168.81 8.916 168.786 8.892C168.666 8.916 168.546 9 168.426 9.144C168.33 9.264 168.186 9.396 167.994 9.54C167.922 9.588 167.826 9.72 167.706 9.936C167.61 10.128 167.466 10.32 167.274 10.512C167.106 10.68 166.962 10.848 166.842 11.016C166.722 11.16 166.602 11.292 166.482 11.412C165.954 11.892 165.57 12.276 165.33 12.564C165.162 12.78 164.982 12.888 164.79 12.888C164.718 12.888 164.67 12.876 164.646 12.852C164.55 12.756 164.502 12.672 164.502 12.6C164.55 12.384 164.706 12.18 164.97 11.988C165.09 11.892 165.186 11.796 165.258 11.7C165.378 11.532 165.522 11.364 165.69 11.196C165.882 11.004 166.11 10.74 166.374 10.404C167.502 9.132 168.486 7.872 169.326 6.624C169.686 6.048 170.214 5.58 170.91 5.22C171.246 5.052 171.462 4.968 171.558 4.968C171.654 4.968 171.714 4.992 171.738 5.04C171.786 5.088 171.81 5.148 171.81 5.22C171.834 5.292 171.858 5.376 171.882 5.472C171.882 5.664 171.858 5.904 171.81 6.192C171.642 6.912 171.522 7.332 171.45 7.452C171.33 7.764 171.222 8.232 171.126 8.856C171.102 8.904 171.066 8.964 171.018 9.036C170.97 9.108 170.934 9.18 170.91 9.252L170.946 9.54C170.946 9.636 170.934 9.696 170.91 9.72L170.73 10.26C170.946 10.116 171.114 9.972 171.234 9.828C171.378 9.66 171.486 9.552 171.558 9.504C171.822 9.312 172.05 9.12 172.242 8.928C172.434 8.736 172.746 8.484 173.178 8.172C173.874 7.62 174.546 7.224 175.194 6.984C175.386 6.912 175.71 6.876 176.166 6.876C177.006 6.876 177.498 7.284 177.642 8.1L177.678 8.388C177.678 8.844 177.642 9.168 177.57 9.36C177.498 9.528 177.414 9.696 177.318 9.864C177.294 9.912 177.282 10.008 177.282 10.152C177.042 10.632 176.802 10.896 176.562 10.944C176.298 10.92 176.07 10.848 175.878 10.728C175.518 10.608 175.338 10.392 175.338 10.08C175.338 10.008 175.35 9.96 175.374 9.936C175.614 9.408 175.734 8.964 175.734 8.604C175.734 8.172 175.542 7.956 175.158 7.956C175.062 7.956 174.99 7.968 174.942 7.992C173.91 8.328 173.106 8.844 172.53 9.54C172.458 9.636 172.302 9.72 172.062 9.792C171.822 9.84 171.63 10.044 171.486 10.404C171.318 10.692 171.15 10.908 170.982 11.052C170.838 11.172 170.766 11.244 170.766 11.268L170.262 11.772C170.79 12.612 171.162 13.032 171.378 13.032C171.594 13.464 171.786 13.74 171.954 13.86C171.954 14.028 172.086 14.292 172.35 14.652C172.614 14.988 172.806 15.3 172.926 15.588C173.07 16.044 173.37 16.416 173.826 16.704L174.114 16.92C174.426 17.16 174.822 17.28 175.302 17.28C175.83 17.28 176.466 17.052 177.21 16.596C177.642 16.356 178.11 15.96 178.614 15.408C178.782 15.24 178.902 15.144 178.974 15.12C179.19 15.024 179.322 14.952 179.37 14.904C179.442 14.856 179.49 14.796 179.514 14.724C179.538 14.628 179.61 14.52 179.73 14.4L179.802 14.292C179.97 14.052 180.114 13.884 180.234 13.788C180.354 13.692 180.45 13.584 180.522 13.464C180.642 13.224 180.822 12.984 181.062 12.744C181.326 12.48 181.578 12.348 181.818 12.348C181.986 12.348 182.07 12.384 182.07 12.456C182.07 12.552 182.046 12.624 181.998 12.672C181.974 12.72 181.938 12.78 181.89 12.852C181.842 12.9 181.758 13.008 181.638 13.176C181.326 13.608 181.098 13.86 180.954 13.932C180.738 14.1 180.57 14.28 180.45 14.472C179.97 15.072 179.322 15.744 178.506 16.488C178.074 16.704 177.834 16.872 177.786 16.992C177.666 17.232 177.258 17.52 176.562 17.856L176.13 18.072C175.65 18.312 175.134 18.432 174.582 18.432ZM183.266 18.324C183.17 18.324 183.098 18.3 183.05 18.252C183.002 18.204 182.906 18.156 182.762 18.108C182.642 18.06 182.498 17.964 182.33 17.82C182.186 17.676 182.114 17.532 182.114 17.388C182.114 16.956 182.246 16.476 182.51 15.948C182.678 15.588 182.786 15.228 182.834 14.868C182.978 14.076 183.182 13.62 183.446 13.5C183.59 13.356 183.674 13.26 183.698 13.212C183.698 12.588 183.89 11.892 184.274 11.124C184.37 10.956 184.478 10.632 184.598 10.152C184.694 9.84 184.814 9.528 184.958 9.216C185.03 9.144 185.066 9.024 185.066 8.856C185.066 8.736 185.042 8.664 184.994 8.64C184.85 8.928 184.67 9.156 184.454 9.324C184.238 9.492 184.058 9.672 183.914 9.864C183.674 10.224 183.23 10.704 182.582 11.304C182.174 11.712 181.934 12 181.862 12.168C181.79 12.336 181.706 12.48 181.61 12.6C181.514 12.72 181.346 12.804 181.106 12.852C181.082 12.876 181.01 12.888 180.89 12.888C180.722 12.888 180.59 12.84 180.494 12.744L180.458 12.672L180.494 12.528C180.566 12.36 180.65 12.264 180.746 12.24C180.938 12.096 181.07 11.964 181.142 11.844C181.214 11.7 181.346 11.58 181.538 11.484C181.73 11.388 181.886 11.208 182.006 10.944C182.054 10.848 182.102 10.776 182.15 10.728C182.222 10.656 182.282 10.584 182.33 10.512L182.366 10.404C182.558 10.212 182.69 10.092 182.762 10.044C183.026 9.756 183.278 9.456 183.518 9.144C183.782 8.808 184.022 8.52 184.238 8.28C184.454 8.04 184.634 7.764 184.778 7.452C185.042 6.924 185.402 6.504 185.858 6.192C186.17 5.976 186.446 5.868 186.686 5.868C186.95 5.868 187.106 6.06 187.154 6.444C187.154 6.516 187.166 6.612 187.19 6.732C187.238 6.828 187.262 6.972 187.262 7.164C187.262 7.668 187.19 8.148 187.046 8.604L186.902 9.144C186.902 9.192 186.878 9.276 186.83 9.396C186.782 9.516 186.734 9.672 186.686 9.864C186.374 10.608 186.218 11.136 186.218 11.448C186.218 11.472 186.254 11.484 186.326 11.484C186.566 11.484 187.01 11.076 187.658 10.26L187.91 9.972C188.126 9.78 188.306 9.588 188.45 9.396C188.93 8.868 189.29 8.604 189.53 8.604C189.602 8.604 189.662 8.592 189.71 8.568C189.758 8.52 189.794 8.448 189.818 8.352C189.866 8.256 189.914 8.184 189.962 8.136C190.346 7.728 190.898 7.344 191.618 6.984C191.978 6.72 192.506 6.588 193.202 6.588C193.634 6.588 193.994 6.696 194.282 6.912C194.618 7.224 194.786 7.632 194.786 8.136C194.786 8.592 194.69 9.048 194.498 9.504C194.498 9.528 194.486 9.552 194.462 9.576C194.462 9.576 194.462 9.588 194.462 9.612C194.462 9.636 194.438 9.672 194.39 9.72C194.366 9.744 194.354 9.9 194.354 10.188C194.354 10.38 194.27 10.728 194.102 11.232C193.91 11.664 193.814 12 193.814 12.24C193.91 12.096 194.042 11.988 194.21 11.916C194.378 11.844 194.498 11.724 194.57 11.556C194.666 11.364 194.786 11.22 194.93 11.124C195.098 11.028 195.218 10.908 195.29 10.764C195.506 10.308 195.902 9.84 196.478 9.36C196.526 9.312 196.586 9.288 196.658 9.288C196.73 9.288 196.79 9.264 196.838 9.216L197.162 8.748C198.098 7.908 198.902 7.488 199.574 7.488L199.79 7.524C200.198 7.596 200.474 7.776 200.618 8.064C200.786 8.328 200.906 8.784 200.978 9.432C200.978 9.552 200.99 9.66 201.014 9.756C201.014 9.9 200.99 10.02 200.942 10.116C200.918 10.188 200.906 10.284 200.906 10.404C200.906 10.476 200.93 10.56 200.978 10.656C201.026 10.752 201.05 10.836 201.05 10.908C201.05 11.58 201.014 12.072 200.942 12.384C200.918 12.48 200.906 12.936 200.906 13.752L200.87 14.22C200.87 14.796 201.038 15.24 201.374 15.552C201.494 15.648 201.674 15.696 201.914 15.696C202.25 15.696 202.55 15.6 202.814 15.408C203.15 15.144 203.75 14.58 204.614 13.716C204.71 13.644 204.806 13.584 204.902 13.536C204.998 13.488 205.082 13.428 205.154 13.356C205.226 13.284 205.31 13.176 205.406 13.032C205.598 12.528 205.826 12.252 206.09 12.204L206.342 12.132C206.39 12.132 206.426 12.144 206.45 12.168C206.57 12.216 206.63 12.336 206.63 12.528C206.63 12.6 206.606 12.66 206.558 12.708C206.126 13.14 205.718 13.572 205.334 14.004C204.59 14.844 203.822 15.552 203.03 16.128C202.862 16.248 202.718 16.332 202.598 16.38C202.478 16.428 202.322 16.536 202.13 16.704C201.962 16.848 201.518 17.016 200.798 17.208C200.582 17.208 200.354 17.184 200.114 17.136C199.61 17.04 199.262 16.848 199.07 16.56C198.878 16.248 198.782 16.02 198.782 15.876C198.758 15.852 198.746 15.768 198.746 15.624L198.782 15.408C198.782 15.288 198.734 15.18 198.638 15.084C198.566 14.964 198.53 14.844 198.53 14.724C198.53 14.556 198.542 14.412 198.566 14.292C198.59 14.148 198.602 14.016 198.602 13.896C198.602 13.536 198.578 13.176 198.53 12.816C198.482 12.456 198.458 12.012 198.458 11.484C198.458 11.148 198.482 10.776 198.53 10.368V10.152C198.53 9.624 198.362 9.36 198.026 9.36C197.738 9.36 197.462 9.528 197.198 9.864C197.078 10.008 196.97 10.104 196.874 10.152L196.694 10.26C196.55 10.332 196.442 10.416 196.37 10.512C196.322 10.608 196.262 10.68 196.19 10.728C195.95 10.92 195.782 11.172 195.686 11.484C195.566 11.628 195.398 11.784 195.182 11.952C194.774 12.24 194.558 12.468 194.534 12.636C194.51 12.804 194.438 12.924 194.318 12.996C194.246 13.092 194.174 13.212 194.102 13.356C194.054 13.5 193.934 13.632 193.742 13.752C193.622 13.92 193.538 14.124 193.49 14.364C193.394 14.7 193.286 14.952 193.166 15.12C193.07 15.264 192.986 15.408 192.914 15.552C192.866 15.696 192.842 15.888 192.842 16.128C192.842 16.344 192.782 16.476 192.662 16.524C192.542 16.548 192.446 16.572 192.374 16.596C192.326 16.62 192.29 16.632 192.266 16.632C192.338 16.632 192.41 16.656 192.482 16.704C192.578 16.752 192.626 16.812 192.626 16.884C192.626 16.932 192.578 17.028 192.482 17.172C192.41 17.292 192.338 17.388 192.266 17.46C192.194 17.532 192.122 17.592 192.05 17.64C191.978 17.664 191.906 17.7 191.834 17.748C191.666 17.82 191.486 17.856 191.294 17.856C191.126 17.856 190.958 17.796 190.79 17.676C190.622 17.556 190.502 17.46 190.43 17.388C190.358 17.292 190.322 17.184 190.322 17.064C190.322 16.944 190.334 16.86 190.358 16.812C190.406 16.668 190.43 16.428 190.43 16.092C190.526 15.804 190.61 15.54 190.682 15.3C190.754 15.036 190.79 14.796 190.79 14.58C190.814 14.364 190.874 14.136 190.97 13.896L191.366 12.852C191.39 12.732 191.402 12.564 191.402 12.348C191.402 12.132 191.558 11.664 191.87 10.944C192.182 10.392 192.338 9.852 192.338 9.324C192.338 9.06 192.266 8.796 192.122 8.532C192.05 8.388 191.906 8.316 191.69 8.316C191.114 8.316 190.382 8.76 189.494 9.648L188.81 10.224C188.69 10.344 188.57 10.5 188.45 10.692C188.354 10.884 188.222 11.052 188.054 11.196C187.598 11.556 187.142 11.988 186.686 12.492C185.918 13.356 185.498 14.064 185.426 14.616L185.246 15.156L185.066 15.228C184.97 15.372 184.91 15.54 184.886 15.732C184.886 15.9 184.814 16.02 184.67 16.092C184.598 16.092 184.55 16.128 184.526 16.2C184.502 16.272 184.478 16.356 184.454 16.452C184.43 16.524 184.394 16.596 184.346 16.668C184.298 16.74 184.274 16.884 184.274 17.1V17.208C184.274 17.496 184.154 17.76 183.914 18C183.698 18.216 183.482 18.324 183.266 18.324ZM208.519 18.54C207.727 18.54 207.331 18.072 207.331 17.136C207.331 16.272 207.571 15.3 208.051 14.22C208.219 13.836 208.363 13.452 208.483 13.068C208.603 12.66 208.831 12.108 209.167 11.412C209.287 11.172 209.395 10.944 209.491 10.728C209.611 10.488 209.671 10.272 209.671 10.08C209.671 9.912 209.635 9.828 209.563 9.828C209.419 9.828 209.251 9.948 209.059 10.188C208.339 11.028 207.559 11.88 206.719 12.744C206.575 12.96 206.335 13.068 205.999 13.068C205.831 13.068 205.747 13.008 205.747 12.888C205.747 12.816 205.759 12.768 205.783 12.744C205.927 12.456 206.095 12.252 206.287 12.132C206.479 11.988 206.623 11.82 206.719 11.628C206.839 11.436 206.935 11.328 207.007 11.304C207.079 11.28 207.235 11.16 207.475 10.944C207.715 10.704 207.859 10.548 207.907 10.476C207.979 10.404 208.015 10.344 208.015 10.296C208.015 10.224 208.111 10.092 208.303 9.9C208.423 9.78 208.531 9.66 208.627 9.54C208.723 9.396 208.879 9.228 209.095 9.036C209.431 8.772 209.659 8.472 209.779 8.136C209.851 7.944 209.935 7.752 210.031 7.56C210.151 7.344 210.439 7.176 210.895 7.056C211.111 6.984 211.351 6.876 211.615 6.732C211.927 6.492 212.275 6.312 212.659 6.192C212.851 6.192 213.007 6.228 213.127 6.3C213.247 6.372 213.331 6.456 213.379 6.552C213.427 6.624 213.451 6.72 213.451 6.84C213.451 7.08 213.379 7.296 213.235 7.488C213.163 7.704 213.127 7.968 213.127 8.28C213.127 8.496 212.971 8.82 212.659 9.252C212.419 9.66 212.299 9.9 212.299 9.972C212.299 10.02 212.287 10.068 212.263 10.116C212.239 10.164 212.203 10.212 212.155 10.26C212.131 10.308 212.107 10.38 212.083 10.476C212.059 10.548 212.047 10.656 212.047 10.8C212.047 10.944 211.999 11.088 211.903 11.232C211.399 12.024 210.907 13.188 210.427 14.724C210.235 15.348 210.139 15.78 210.139 16.02C210.187 16.212 210.355 16.308 210.643 16.308C211.003 16.308 211.423 16.116 211.903 15.732C212.503 15.276 212.827 14.964 212.875 14.796C212.923 14.628 213.115 14.472 213.451 14.328C213.931 14.016 214.231 13.752 214.351 13.536C214.423 13.44 214.507 13.356 214.603 13.284C214.699 13.212 214.795 13.14 214.891 13.068C215.083 12.972 215.335 12.768 215.647 12.456C215.863 12.288 216.043 12.096 216.187 11.88C216.355 11.664 216.547 11.46 216.763 11.268C217.171 10.86 217.483 10.44 217.699 10.008C217.987 9.48 218.299 9.072 218.635 8.784C218.923 8.568 219.187 8.244 219.427 7.812C219.595 7.404 219.811 7.164 220.075 7.092C220.123 7.092 220.183 7.068 220.255 7.02C220.351 6.948 220.471 6.912 220.615 6.912C220.687 6.912 220.735 6.924 220.759 6.948C221.215 7.236 221.443 7.716 221.443 8.388C221.443 8.556 221.431 8.652 221.407 8.676C221.191 8.988 220.999 9.348 220.831 9.756C220.687 10.164 220.507 10.5 220.291 10.764C219.883 11.316 219.571 12.144 219.355 13.248C219.283 13.56 219.199 13.848 219.103 14.112C219.031 14.376 218.995 14.676 218.995 15.012C218.995 15.684 219.187 16.188 219.571 16.524C219.595 16.524 219.631 16.536 219.679 16.56C219.727 16.584 219.775 16.596 219.823 16.596C220.087 16.596 220.387 16.5 220.723 16.308C221.491 15.876 222.595 14.904 224.035 13.392L224.287 13.14C224.671 12.636 224.995 12.384 225.259 12.384L225.511 12.42C225.631 12.444 225.691 12.504 225.691 12.6L225.655 12.672C225.559 12.96 225.295 13.272 224.863 13.608C224.743 13.656 224.491 13.872 224.107 14.256C223.963 14.4 223.879 14.508 223.855 14.58C223.831 14.628 223.807 14.7 223.783 14.796C223.759 14.892 223.627 14.988 223.387 15.084C223.003 15.252 222.727 15.504 222.559 15.84C222.439 16.056 222.319 16.2 222.199 16.272C222.079 16.32 221.959 16.38 221.839 16.452C221.719 16.5 221.611 16.572 221.515 16.668C221.323 16.908 221.083 17.052 220.795 17.1L220.543 17.208C220.255 17.496 219.955 17.688 219.643 17.784C219.403 17.856 219.103 17.892 218.743 17.892C218.527 17.892 218.371 17.868 218.275 17.82C218.203 17.772 218.143 17.712 218.095 17.64C217.999 17.448 217.807 17.328 217.519 17.28C217.231 17.208 217.039 17.088 216.943 16.92C216.655 16.44 216.511 15.912 216.511 15.336C216.511 14.712 216.619 14.1 216.835 13.5C216.907 13.212 216.955 12.876 216.979 12.492C216.979 12.396 216.955 12.348 216.907 12.348L216.763 12.384C216.379 12.744 215.971 13.08 215.539 13.392C215.131 13.68 214.891 13.908 214.819 14.076C214.651 14.316 214.459 14.472 214.243 14.544C214.051 14.616 213.739 14.892 213.307 15.372C213.163 15.54 212.995 15.696 212.803 15.84C212.635 15.984 212.431 16.176 212.191 16.416C211.951 16.632 211.663 16.848 211.327 17.064C210.991 17.28 210.715 17.508 210.499 17.748C210.283 17.964 210.019 18.168 209.707 18.36L209.527 18.432C209.479 18.432 209.443 18.42 209.419 18.396H209.275C208.987 18.492 208.735 18.54 208.519 18.54ZM235.192 18.432C234.448 18.432 233.812 18.264 233.284 17.928C232.972 17.736 232.756 17.52 232.636 17.28C232.564 17.136 232.492 17.028 232.42 16.956C232.084 16.692 231.808 16.296 231.592 15.768C231.52 15.312 231.28 14.88 230.872 14.472L230.512 13.932C230.416 13.836 230.356 13.74 230.332 13.644C230.212 14.1 230.044 14.604 229.828 15.156L229.576 15.84C229.576 16.08 229.54 16.236 229.468 16.308C229.42 16.356 229.396 16.524 229.396 16.812C229.396 17.748 228.964 18.252 228.1 18.324L227.344 18.432C226.816 18.432 226.552 18.252 226.552 17.892C226.576 17.82 226.588 17.7 226.588 17.532C226.588 17.34 226.684 16.968 226.876 16.416C226.948 16.2 227.044 15.996 227.164 15.804L227.272 15.66C227.392 15.444 227.452 15.276 227.452 15.156C227.452 15.012 227.464 14.88 227.488 14.76C228.016 13.368 228.364 12.504 228.532 12.168C228.58 12.024 228.604 11.892 228.604 11.772C228.604 11.388 228.772 10.884 229.108 10.26C229.324 9.9 229.468 9.48 229.54 9C229.492 9 229.456 8.988 229.432 8.964C229.432 8.94 229.42 8.916 229.396 8.892C229.276 8.916 229.156 9 229.036 9.144C228.94 9.264 228.796 9.396 228.604 9.54C228.532 9.588 228.436 9.72 228.316 9.936C228.22 10.128 228.076 10.32 227.884 10.512C227.716 10.68 227.572 10.848 227.452 11.016C227.332 11.16 227.212 11.292 227.092 11.412C226.564 11.892 226.18 12.276 225.94 12.564C225.772 12.78 225.592 12.888 225.4 12.888C225.328 12.888 225.28 12.876 225.256 12.852C225.16 12.756 225.112 12.672 225.112 12.6C225.16 12.384 225.316 12.18 225.58 11.988C225.7 11.892 225.796 11.796 225.868 11.7C225.988 11.532 226.132 11.364 226.3 11.196C226.492 11.004 226.72 10.74 226.984 10.404C228.112 9.132 229.096 7.872 229.936 6.624C230.296 6.048 230.824 5.58 231.52 5.22C231.856 5.052 232.072 4.968 232.168 4.968C232.264 4.968 232.324 4.992 232.348 5.04C232.396 5.088 232.42 5.148 232.42 5.22C232.444 5.292 232.468 5.376 232.492 5.472C232.492 5.664 232.468 5.904 232.42 6.192C232.252 6.912 232.132 7.332 232.06 7.452C231.94 7.764 231.832 8.232 231.736 8.856C231.712 8.904 231.676 8.964 231.628 9.036C231.58 9.108 231.544 9.18 231.52 9.252L231.556 9.54C231.556 9.636 231.544 9.696 231.52 9.72L231.34 10.26C231.556 10.116 231.724 9.972 231.844 9.828C231.988 9.66 232.096 9.552 232.168 9.504C232.432 9.312 232.66 9.12 232.852 8.928C233.044 8.736 233.356 8.484 233.788 8.172C234.484 7.62 235.156 7.224 235.804 6.984C235.996 6.912 236.32 6.876 236.776 6.876C237.616 6.876 238.108 7.284 238.252 8.1L238.288 8.388C238.288 8.844 238.252 9.168 238.18 9.36C238.108 9.528 238.024 9.696 237.928 9.864C237.904 9.912 237.892 10.008 237.892 10.152C237.652 10.632 237.412 10.896 237.172 10.944C236.908 10.92 236.68 10.848 236.488 10.728C236.128 10.608 235.948 10.392 235.948 10.08C235.948 10.008 235.96 9.96 235.984 9.936C236.224 9.408 236.344 8.964 236.344 8.604C236.344 8.172 236.152 7.956 235.768 7.956C235.672 7.956 235.6 7.968 235.552 7.992C234.52 8.328 233.716 8.844 233.14 9.54C233.068 9.636 232.912 9.72 232.672 9.792C232.432 9.84 232.24 10.044 232.096 10.404C231.928 10.692 231.76 10.908 231.592 11.052C231.448 11.172 231.376 11.244 231.376 11.268L230.872 11.772C231.4 12.612 231.772 13.032 231.988 13.032C232.204 13.464 232.396 13.74 232.564 13.86C232.564 14.028 232.696 14.292 232.96 14.652C233.224 14.988 233.416 15.3 233.536 15.588C233.68 16.044 233.98 16.416 234.436 16.704L234.724 16.92C235.036 17.16 235.432 17.28 235.912 17.28C236.44 17.28 237.076 17.052 237.82 16.596C238.252 16.356 238.72 15.96 239.224 15.408C239.392 15.24 239.512 15.144 239.584 15.12C239.8 15.024 239.932 14.952 239.98 14.904C240.052 14.856 240.1 14.796 240.124 14.724C240.148 14.628 240.22 14.52 240.34 14.4L240.412 14.292C240.58 14.052 240.724 13.884 240.844 13.788C240.964 13.692 241.06 13.584 241.132 13.464C241.252 13.224 241.432 12.984 241.672 12.744C241.936 12.48 242.188 12.348 242.428 12.348C242.596 12.348 242.68 12.384 242.68 12.456C242.68 12.552 242.656 12.624 242.608 12.672C242.584 12.72 242.548 12.78 242.5 12.852C242.452 12.9 242.368 13.008 242.248 13.176C241.936 13.608 241.708 13.86 241.564 13.932C241.348 14.1 241.18 14.28 241.06 14.472C240.58 15.072 239.932 15.744 239.116 16.488C238.684 16.704 238.444 16.872 238.396 16.992C238.276 17.232 237.868 17.52 237.172 17.856L236.74 18.072C236.26 18.312 235.744 18.432 235.192 18.432ZM237.648 37.872H236.964C236.676 37.848 236.376 37.788 236.064 37.692C235.44 37.5 235.128 37.272 235.128 37.008C235.128 36.816 235.188 36.672 235.308 36.576C235.428 36.48 235.572 36.432 235.74 36.432C236.028 36.432 236.196 36.528 236.244 36.72C236.508 37.128 236.928 37.332 237.504 37.332C237.768 37.332 238.068 37.296 238.404 37.224C239.124 37.056 239.748 36.792 240.276 36.432C240.78 36.096 241.38 35.532 242.076 34.74L242.472 34.416C242.76 34.272 243 34.044 243.192 33.732C243.624 33.036 244.08 32.436 244.56 31.932C245.16 31.308 245.76 30.432 246.36 29.304L246.828 28.476C247.092 27.972 247.32 27.492 247.512 27.036C247.752 26.46 248.052 25.848 248.412 25.2L248.736 24.804C248.736 24.78 248.724 24.768 248.7 24.768C248.7 24.768 248.7 24.732 248.7 24.66C248.7 24.612 248.712 24.576 248.736 24.552L248.952 24.12C249.168 23.64 249.276 23.304 249.276 23.112L249.312 22.968C249.696 22.248 249.984 21.588 250.176 20.988C250.272 20.724 250.38 20.424 250.5 20.088C250.644 19.776 250.752 19.428 250.824 19.044C250.872 18.78 250.932 18.528 251.004 18.288C251.196 17.784 251.34 17.268 251.436 16.74C251.532 16.212 251.724 15.516 252.012 14.652C252.3 13.788 252.444 13.296 252.444 13.176C252.468 13.056 252.492 12.96 252.516 12.888L252.66 12.312C252.516 12.336 252.384 12.432 252.264 12.6C252.144 12.744 252 12.876 251.832 12.996C251.592 13.212 251.4 13.416 251.256 13.608C251.016 13.968 250.74 14.232 250.428 14.4C250.356 14.448 250.26 14.508 250.14 14.58C250.02 14.628 249.924 14.724 249.852 14.868C249.78 14.988 249.492 15.276 248.988 15.732C248.772 15.876 248.52 16.068 248.232 16.308C247.968 16.524 247.728 16.704 247.512 16.848L247.224 17.1C247.056 17.22 246.888 17.34 246.72 17.46C246.576 17.58 246.132 17.808 245.388 18.144C245.004 18.36 244.524 18.468 243.948 18.468C243.9 18.468 243.828 18.432 243.732 18.36C243.324 18 243.12 17.568 243.12 17.064C243.096 17.016 243.084 16.944 243.084 16.848L243.156 16.416C243.252 15.792 243.444 15.096 243.732 14.328C244.02 13.536 244.26 12.984 244.452 12.672C244.5 12.576 244.548 12.444 244.596 12.276C244.668 12.084 244.74 11.916 244.812 11.772C245.028 11.436 245.16 11.088 245.208 10.728C245.232 10.512 245.292 10.272 245.388 10.008C245.388 9.96 245.328 9.936 245.208 9.936C245.112 9.912 245.064 9.876 245.064 9.828C244.776 10.188 244.332 10.632 243.732 11.16C243.564 11.304 243.42 11.46 243.3 11.628C243.108 11.916 242.868 12.168 242.58 12.384C242.46 12.456 242.28 12.624 242.04 12.888C241.824 13.152 241.608 13.284 241.392 13.284C241.248 13.284 241.176 13.212 241.176 13.068L241.248 12.852C241.32 12.732 241.404 12.648 241.5 12.6C241.596 12.528 241.692 12.42 241.788 12.276L241.896 12.168C242.136 11.904 242.292 11.76 242.364 11.736C242.484 11.568 242.652 11.4 242.868 11.232L243.192 10.908C243.432 10.572 243.6 10.356 243.696 10.26C243.864 10.044 244.056 9.84 244.272 9.648C244.512 9.432 244.836 9.096 245.244 8.64C245.388 8.448 245.472 8.316 245.496 8.244C245.544 8.172 245.688 8.016 245.928 7.776L246.072 7.56C246.216 7.296 246.348 7.152 246.468 7.128C246.612 7.08 246.72 7.032 246.792 6.984C246.888 6.912 246.936 6.864 246.936 6.84C246.936 6.816 246.936 6.792 246.936 6.768C247.272 6.36 247.536 6.156 247.728 6.156C247.872 6.156 247.992 6.216 248.088 6.336C248.184 6.456 248.256 6.576 248.304 6.696C248.352 6.792 248.388 6.852 248.412 6.876C248.532 7.236 248.592 7.56 248.592 7.848C248.592 8.16 248.52 8.508 248.376 8.892C248.136 9.324 247.932 9.768 247.764 10.224L247.368 11.124C247.344 11.196 247.26 11.28 247.116 11.376L247.008 11.448L247.08 11.772C246.672 12.708 246.456 13.248 246.432 13.392C246.432 13.512 246.372 13.644 246.252 13.788C246.156 13.908 246.06 14.1 245.964 14.364C245.82 14.892 245.748 15.36 245.748 15.768C245.748 16.08 245.82 16.272 245.964 16.344C246.132 16.392 246.264 16.416 246.36 16.416C246.624 16.416 246.84 16.332 247.008 16.164L247.98 15.48C248.268 15.144 248.58 14.868 248.916 14.652C249.348 14.34 249.972 13.74 250.788 12.852L251.544 12.06C252.288 11.244 253.02 10.368 253.74 9.432C254.028 9 254.292 8.46 254.532 7.812C254.988 6.732 255.372 6.084 255.684 5.868L255.9 5.796C256.116 5.796 256.26 5.904 256.332 6.12C256.572 6.552 256.692 6.876 256.692 7.092L256.656 7.38C256.656 7.428 256.68 7.5 256.728 7.596C256.8 7.668 256.836 7.824 256.836 8.064C256.74 8.472 256.572 8.82 256.332 9.108C256.092 9.396 255.936 9.756 255.864 10.188C255.744 11.004 255.504 11.76 255.144 12.456C255 12.84 254.892 13.224 254.82 13.608C254.748 13.968 254.64 14.352 254.496 14.76C254.376 15 254.208 15.54 253.992 16.38C253.8 17.052 253.632 17.568 253.488 17.928C253.392 18.408 253.212 18.996 252.948 19.692C252.684 20.412 252.456 20.964 252.264 21.348C252.096 21.588 251.964 21.72 251.868 21.744C251.796 21.792 251.748 21.828 251.724 21.852C251.7 21.9 251.688 21.972 251.688 22.068C251.688 22.164 251.7 22.26 251.724 22.356C251.772 22.452 251.796 22.548 251.796 22.644L251.256 23.832C250.872 24.552 250.596 25.092 250.428 25.452C250.212 25.932 250.02 26.268 249.852 26.46C249.612 26.724 249.468 26.988 249.42 27.252C249.42 27.348 249.396 27.444 249.348 27.54L248.916 28.152C248.868 28.248 248.844 28.356 248.844 28.476C248.844 28.596 248.796 28.704 248.7 28.8C248.268 29.28 247.992 29.664 247.872 29.952C247.752 30.24 247.632 30.42 247.512 30.492C247.416 30.564 247.344 30.672 247.296 30.816C247.248 30.984 247.104 31.2 246.864 31.464C246.648 31.752 246.432 32.04 246.216 32.328C245.568 33.192 245.076 33.744 244.74 33.984L244.272 34.416C244.056 34.656 243.876 34.848 243.732 34.992C243.588 35.16 243.432 35.292 243.264 35.388C243.12 35.484 242.844 35.688 242.436 36C242.292 36.096 242.16 36.204 242.04 36.324C241.776 36.636 241.488 36.804 241.176 36.828C240.84 36.876 240.528 36.996 240.24 37.188C239.928 37.404 239.592 37.548 239.232 37.62L238.944 37.692C238.632 37.812 238.2 37.872 237.648 37.872ZM255.649 20.052C255.193 20.052 254.881 19.896 254.713 19.584C254.713 19.224 254.821 18.996 255.037 18.9C255.133 18.852 255.229 18.828 255.325 18.828C255.421 18.828 255.541 18.852 255.685 18.9C255.805 18.948 256.057 18.972 256.441 18.972C256.777 18.972 257.017 18.948 257.161 18.9C257.425 18.828 257.629 18.684 257.773 18.468L257.917 18.36C258.061 18.264 258.229 18.132 258.421 17.964C258.613 17.796 258.817 17.652 259.033 17.532C259.249 17.412 259.393 17.292 259.465 17.172C259.537 17.052 259.633 16.956 259.753 16.884C260.689 16.116 261.553 15.228 262.345 14.22C262.369 14.196 262.393 14.172 262.417 14.148C262.465 14.124 262.525 14.1 262.597 14.076C262.693 13.908 262.993 13.596 263.497 13.14C263.689 12.924 263.809 12.78 263.857 12.708C263.929 12.612 264.013 12.516 264.109 12.42C264.205 12.324 264.265 12.252 264.289 12.204C264.337 12.132 264.373 12.096 264.397 12.096C264.445 12.072 264.505 12.06 264.577 12.06C264.649 12.036 264.721 11.928 264.793 11.736C264.961 11.376 265.153 11.136 265.369 11.016C265.585 10.896 265.957 10.428 266.485 9.612C266.653 9.396 266.761 9.252 266.809 9.18C266.881 9.084 266.965 8.988 267.061 8.892C267.181 8.772 267.301 8.616 267.421 8.424C267.565 8.208 267.745 7.98 267.961 7.74L268.033 7.632C268.129 7.488 268.225 7.356 268.321 7.236C268.441 7.092 268.513 6.984 268.537 6.912C268.585 6.816 268.633 6.732 268.681 6.66C268.801 6.468 268.993 6.372 269.257 6.372C269.401 6.372 269.545 6.432 269.689 6.552C269.833 6.648 269.905 6.768 269.905 6.912C269.905 7.056 270.025 7.284 270.265 7.596C270.313 7.74 270.337 7.872 270.337 7.992C270.337 8.328 270.157 8.772 269.797 9.324C269.557 9.684 269.281 10.176 268.969 10.8C268.441 12.072 268.165 12.792 268.141 12.96C268.141 13.104 268.105 13.272 268.033 13.464C267.985 13.632 267.937 13.836 267.889 14.076C267.745 14.652 267.625 14.988 267.529 15.084C267.433 15.18 267.373 15.288 267.349 15.408C267.325 15.432 267.313 15.54 267.313 15.732C267.241 16.068 267.205 16.368 267.205 16.632C267.205 16.776 267.217 16.86 267.241 16.884C267.265 17.1 267.433 17.208 267.745 17.208C267.937 17.208 268.117 17.16 268.285 17.064C268.669 16.92 269.005 16.74 269.293 16.524C269.389 16.356 269.509 16.236 269.653 16.164C270.085 15.564 270.313 15.192 270.337 15.048C270.385 14.904 270.469 14.772 270.589 14.652C271.045 14.196 271.501 13.584 271.957 12.816C272.029 12.744 272.113 12.672 272.209 12.6C272.305 12.528 272.449 12.384 272.641 12.168C272.689 12.096 272.761 12.048 272.857 12.024C272.953 12 273.025 11.916 273.073 11.772C273.217 11.412 273.397 11.16 273.613 11.016C273.853 10.872 274.201 10.464 274.657 9.792C274.969 9.336 275.185 9.048 275.305 8.928C275.449 8.784 275.593 8.592 275.737 8.352C275.905 8.112 276.205 7.728 276.637 7.2C276.733 7.08 276.793 6.972 276.817 6.876C276.985 6.54 277.225 6.372 277.537 6.372C277.681 6.372 277.825 6.42 277.969 6.516C278.113 6.612 278.185 6.756 278.185 6.948C278.209 7.116 278.245 7.236 278.293 7.308C278.341 7.356 278.401 7.44 278.473 7.56C278.569 7.656 278.617 7.8 278.617 7.992C278.617 8.328 278.437 8.772 278.077 9.324L277.249 10.8C276.721 12.048 276.445 12.756 276.421 12.924C276.421 13.092 276.385 13.272 276.313 13.464C276.265 13.632 276.217 13.836 276.169 14.076C276.073 14.604 275.953 14.94 275.809 15.084C275.593 15.3 275.485 15.816 275.485 16.632C275.485 16.776 275.497 16.86 275.521 16.884C275.545 17.1 275.713 17.208 276.025 17.208C276.217 17.208 276.349 17.184 276.421 17.136C276.517 17.088 276.625 17.04 276.745 16.992C276.889 16.944 277.057 16.872 277.249 16.776L277.393 16.56L277.825 16.308C278.257 16.116 278.581 15.864 278.797 15.552C279.013 15.216 279.169 15.024 279.265 14.976C279.577 14.88 279.865 14.604 280.129 14.148C280.201 14.076 280.309 13.992 280.453 13.896C280.717 13.728 281.017 13.44 281.353 13.032C281.809 12.48 282.109 12.204 282.253 12.204C282.541 12.204 282.685 12.324 282.685 12.564C282.685 12.66 282.601 12.828 282.433 13.068C282.121 13.476 281.809 13.728 281.497 13.824C280.897 14.496 280.405 14.964 280.021 15.228C279.469 15.612 278.977 16.08 278.545 16.632C278.497 16.656 278.413 16.668 278.293 16.668C278.197 16.668 278.065 16.788 277.897 17.028C277.633 17.34 277.069 17.652 276.205 17.964C275.653 18.156 275.245 18.252 274.981 18.252C274.213 18.108 273.685 17.82 273.397 17.388C273.301 17.244 273.253 16.908 273.253 16.38C273.253 16.02 273.277 15.732 273.325 15.516C273.397 15.276 273.457 15.036 273.505 14.796C273.793 13.596 274.165 12.468 274.621 11.412C274.621 11.34 274.585 11.304 274.513 11.304C274.441 11.352 274.345 11.436 274.225 11.556C274.129 11.676 273.997 11.796 273.829 11.916C273.565 12.108 273.385 12.276 273.289 12.42C273.217 12.54 273.133 12.636 273.037 12.708C272.965 12.78 272.905 12.84 272.857 12.888C272.833 12.936 272.797 12.972 272.749 12.996V13.032C272.437 13.416 272.005 14.004 271.453 14.796C271.165 15.156 270.937 15.468 270.769 15.732L270.373 16.092C270.325 16.212 270.277 16.296 270.229 16.344C270.181 16.368 270.133 16.416 270.085 16.488C270.061 16.536 270.013 16.584 269.941 16.632C269.893 16.68 269.785 16.812 269.617 17.028C269.545 17.124 269.437 17.208 269.293 17.28C269.005 17.496 268.633 17.688 268.177 17.856C268.153 17.88 268.117 17.904 268.069 17.928C268.045 17.928 267.997 17.94 267.925 17.964C267.757 18.012 267.553 18.072 267.313 18.144C267.097 18.216 266.893 18.252 266.701 18.252C266.653 18.252 266.617 18.24 266.593 18.216C265.945 18.12 265.453 17.844 265.117 17.388C265.021 17.244 264.973 16.908 264.973 16.38C264.973 16.02 264.997 15.732 265.045 15.516C265.117 15.276 265.177 15.036 265.225 14.796C265.513 13.596 265.885 12.468 266.341 11.412C266.341 11.34 266.305 11.304 266.233 11.304C266.161 11.352 266.077 11.436 265.981 11.556C265.885 11.676 265.741 11.796 265.549 11.916C265.261 12.108 265.093 12.264 265.045 12.384C264.997 12.48 264.913 12.576 264.793 12.672C264.697 12.768 264.613 12.864 264.541 12.96C264.469 13.032 264.361 13.116 264.217 13.212C264.097 13.284 263.929 13.5 263.713 13.86C263.497 14.052 263.317 14.232 263.173 14.4C263.029 14.544 262.945 14.628 262.921 14.652C262.777 14.724 262.633 14.868 262.489 15.084C262.369 15.3 262.249 15.48 262.129 15.624H261.985C261.913 15.696 261.853 15.792 261.805 15.912C261.781 16.008 261.565 16.236 261.157 16.596C260.941 16.788 260.809 16.932 260.761 17.028C260.641 17.22 260.377 17.448 259.969 17.712L259.429 18.144C258.709 18.864 257.953 19.38 257.161 19.692C256.585 19.932 256.081 20.052 255.649 20.052Z" fill="#47555D"/>
</svg>
