<svg width="16" height="16" viewBox="0 0 16 16" fill="none" xmlns="http://www.w3.org/2000/svg">
<path d="M6.33486 2.83815C6.13238 2.33193 5.64212 2 5.09693 2H3.26313C2.56552 2 2 2.5654 2 3.26302C2 9.19282 6.80706 14 12.7367 14C13.4343 14 13.9997 13.4344 13.9997 12.7368L14 10.9026C14 10.3574 13.6682 9.86724 13.162 9.66476L11.4044 8.96196C10.9497 8.78008 10.432 8.86194 10.0558 9.17546L9.60215 9.55379C9.07239 9.99526 8.29293 9.96015 7.80531 9.47253L6.52803 8.19404C6.04042 7.70642 6.00439 6.92756 6.44585 6.39779L6.82409 5.9442C7.13761 5.56797 7.22019 5.05011 7.03831 4.5954L6.33486 2.83815Z" stroke="#FBFDFE" stroke-linecap="round" stroke-linejoin="round"/>
</svg>
