<svg width="25" height="24" viewBox="0 0 25 24" fill="none" xmlns="http://www.w3.org/2000/svg">
<path d="M17.0351 12.0012V11.1212C17.0351 10.7322 16.8799 10.3591 16.6038 10.0841C16.3276 9.80903 15.9531 9.65451 15.5625 9.65451C15.1719 9.65451 14.7974 9.80903 14.5212 10.0841C14.245 10.3591 14.0899 10.7322 14.0899 11.1212V4.66784C14.0899 4.27885 13.9348 3.9058 13.6586 3.63075C13.3824 3.3557 13.0079 3.20117 12.6173 3.20117C12.2268 3.20117 11.8522 3.3557 11.576 3.63075C11.2999 3.9058 11.1447 4.27885 11.1447 4.66784V15.3232L9.53223 12.5365C9.33695 12.1991 9.01508 11.9527 8.63742 11.8516C8.25977 11.7505 7.85726 11.803 7.51845 11.9975C7.17965 12.192 6.93229 12.5126 6.8308 12.8887C6.72931 13.2648 6.782 13.6657 6.97728 14.0032C9.3776 19.0412 10.8355 20.8012 14.0899 20.8012C14.8634 20.8012 15.6294 20.6494 16.344 20.3546C17.0587 20.0598 17.7081 19.6276 18.255 19.0829C18.802 18.5381 19.2359 17.8914 19.5319 17.1796C19.8279 16.4678 19.9803 15.7049 19.9803 14.9345V12.0012C19.9803 11.6122 19.8251 11.2391 19.549 10.9641C19.2728 10.689 18.8982 10.5345 18.5077 10.5345C18.1171 10.5345 17.7426 10.689 17.4664 10.9641C17.1902 11.2391 17.0351 11.6122 17.0351 12.0012Z" stroke="#9DA6B2" stroke-linecap="round" stroke-linejoin="round"/>
<path d="M18.3401 5.3918C18.0916 5.3918 17.8901 5.59327 17.8901 5.8418C17.8901 6.09033 18.0916 6.2918 18.3401 6.2918V5.3918ZM24.8183 6.15999C24.994 5.98426 24.994 5.69933 24.8183 5.5236L21.9545 2.65982C21.7788 2.48408 21.4938 2.48408 21.3181 2.65982C21.1424 2.83555 21.1424 3.12048 21.3181 3.29621L23.8637 5.8418L21.3181 8.38738C21.1424 8.56312 21.1424 8.84804 21.3181 9.02378C21.4938 9.19951 21.7788 9.19951 21.9545 9.02378L24.8183 6.15999ZM18.3401 6.2918H24.5001V5.3918H18.3401V6.2918Z" fill="#9DA6B2"/>
<path d="M6.65991 5.3918C6.90844 5.3918 7.10991 5.59327 7.10991 5.8418C7.10991 6.09033 6.90844 6.2918 6.65991 6.2918V5.3918ZM0.181714 6.15999C0.00597811 5.98426 0.00597811 5.69933 0.181714 5.5236L3.0455 2.65982C3.22123 2.48408 3.50616 2.48408 3.68189 2.65982C3.85763 2.83555 3.85763 3.12048 3.68189 3.29621L1.13631 5.8418L3.68189 8.38738C3.85763 8.56312 3.85763 8.84804 3.68189 9.02378C3.50616 9.19951 3.22123 9.19951 3.0455 9.02378L0.181714 6.15999ZM6.65991 6.2918H0.499912V5.3918H6.65991V6.2918Z" fill="#9DA6B2"/>
</svg>
