<svg width="22" height="38" viewBox="0 0 22 38" fill="none" xmlns="http://www.w3.org/2000/svg">
<path d="M16.3333 3.5C16.3333 4.97276 17.5272 6.16667 19 6.16667C20.4728 6.16667 21.6667 4.97276 21.6667 3.5C21.6667 2.02724 20.4728 0.833333 19 0.833333C17.5272 0.833333 16.3333 2.02724 16.3333 3.5ZM1 3.5V3H0.5V3.5H1ZM1 34.5H0.5V35H1V34.5ZM16.3333 34.5C16.3333 35.9728 17.5272 37.1667 19 37.1667C20.4728 37.1667 21.6667 35.9728 21.6667 34.5C21.6667 33.0272 20.4728 31.8333 19 31.8333C17.5272 31.8333 16.3333 33.0272 16.3333 34.5ZM19 3H1V4H19V3ZM0.5 3.5V34.5H1.5V3.5H0.5ZM1 35H19V34H1V35Z" fill="url(#paint0_linear_24_2345)"/>
<defs>
<linearGradient id="paint0_linear_24_2345" x1="15.5" y1="-2.5" x2="11.5" y2="56.5" gradientUnits="userSpaceOnUse">
<stop stop-color="#69BDDE"/>
<stop offset="1" stop-color="#124368"/>
</linearGradient>
</defs>
</svg>
