<svg width="24" height="24" viewBox="0 0 24 24" fill="none" xmlns="http://www.w3.org/2000/svg">
<g filter="url(#filter0_b_3324_386)">
<path d="M20.9849 3.72684C21.1252 2.57617 20.2636 1.66793 19.4579 2.11714L3.41042 11.0641C2.83263 11.3862 2.8749 12.4975 3.47415 12.7398L6.78354 14.0781C7.41515 14.3335 8.09909 14.2015 8.65064 13.7176L16.1118 7.17182C16.3368 6.97443 16.5821 7.38066 16.3899 7.63233L11.0191 14.6638C10.4981 15.3459 10.6015 16.5017 11.2282 17.0007L17.2413 21.789C17.9158 22.326 18.7834 21.7865 18.9095 20.7516L20.9849 3.72684Z" fill="url(#paint0_linear_3324_386)" fill-opacity="0.5"/>
<path d="M19.5796 2.33549C19.8636 2.17716 20.1586 2.2452 20.3947 2.49409C20.6368 2.74922 20.7988 3.18739 20.7367 3.69659L18.6614 20.7214C18.6056 21.1787 18.3899 21.4977 18.149 21.6475C17.9188 21.7907 17.6487 21.7938 17.3971 21.5934L11.3839 16.8051C11.1377 16.609 10.977 16.2667 10.9423 15.8786C10.9077 15.492 11.0021 15.0979 11.2178 14.8155L16.5885 7.78408C16.7581 7.56207 16.7297 7.28391 16.6213 7.10447C16.5662 7.01308 16.4743 6.92018 16.3438 6.88413C16.2001 6.84446 16.0575 6.88688 15.947 6.98389L8.48576 13.5297C7.99838 13.9572 7.41319 14.0631 6.87726 13.8463L3.56787 12.5081L3.47415 12.7398L3.56787 12.5081C3.39565 12.4384 3.26197 12.2184 3.25071 11.9224C3.23952 11.6281 3.35529 11.381 3.53216 11.2824L19.5796 2.33549Z" stroke="url(#paint1_linear_3324_386)" stroke-opacity="0.8" stroke-width="0.5"/>
<path d="M19.5796 2.33549C19.8636 2.17716 20.1586 2.2452 20.3947 2.49409C20.6368 2.74922 20.7988 3.18739 20.7367 3.69659L18.6614 20.7214C18.6056 21.1787 18.3899 21.4977 18.149 21.6475C17.9188 21.7907 17.6487 21.7938 17.3971 21.5934L11.3839 16.8051C11.1377 16.609 10.977 16.2667 10.9423 15.8786C10.9077 15.492 11.0021 15.0979 11.2178 14.8155L16.5885 7.78408C16.7581 7.56207 16.7297 7.28391 16.6213 7.10447C16.5662 7.01308 16.4743 6.92018 16.3438 6.88413C16.2001 6.84446 16.0575 6.88688 15.947 6.98389L8.48576 13.5297C7.99838 13.9572 7.41319 14.0631 6.87726 13.8463L3.56787 12.5081L3.47415 12.7398L3.56787 12.5081C3.39565 12.4384 3.26197 12.2184 3.25071 11.9224C3.23952 11.6281 3.35529 11.381 3.53216 11.2824L19.5796 2.33549Z" stroke="url(#paint2_linear_3324_386)" stroke-opacity="0.5" stroke-width="0.5"/>
</g>
<mask id="mask0_3324_386" style="mask-type:alpha" maskUnits="userSpaceOnUse" x="3" y="2" width="18" height="20">
<path d="M20.9849 3.72684C21.1252 2.57617 20.2636 1.66793 19.4579 2.11714L3.41042 11.0641C2.83263 11.3862 2.8749 12.4975 3.47415 12.7398L6.78354 14.0781C7.41515 14.3335 8.09909 14.2015 8.65064 13.7176L16.1118 7.17182C16.3368 6.97443 16.5821 7.38066 16.3899 7.63233L11.0191 14.6638C10.4981 15.3459 10.6015 16.5017 11.2282 17.0007L17.2413 21.789C17.9158 22.326 18.7834 21.7865 18.9095 20.7516L20.9849 3.72684Z" fill="url(#paint3_linear_3324_386)" fill-opacity="0.3"/>
<path d="M19.5796 2.33549C19.8636 2.17716 20.1586 2.2452 20.3947 2.49409C20.6368 2.74922 20.7988 3.18739 20.7367 3.69659L18.6614 20.7214C18.6056 21.1787 18.3899 21.4977 18.149 21.6475C17.9188 21.7907 17.6487 21.7938 17.3971 21.5934L11.3839 16.8051C11.1377 16.609 10.977 16.2667 10.9423 15.8786C10.9077 15.492 11.0021 15.0979 11.2178 14.8155L16.5885 7.78408C16.7581 7.56207 16.7297 7.28391 16.6213 7.10447C16.5662 7.01308 16.4743 6.92018 16.3438 6.88413C16.2001 6.84446 16.0575 6.88688 15.947 6.98389L8.48576 13.5297C7.99838 13.9572 7.41319 14.0631 6.87726 13.8463L3.56787 12.5081L3.47415 12.7398L3.56787 12.5081C3.39565 12.4384 3.26197 12.2184 3.25071 11.9224C3.23952 11.6281 3.35529 11.381 3.53216 11.2824L19.5796 2.33549Z" stroke="url(#paint4_linear_3324_386)" stroke-opacity="0.8" stroke-width="0.5"/>
<path d="M19.5796 2.33549C19.8636 2.17716 20.1586 2.2452 20.3947 2.49409C20.6368 2.74922 20.7988 3.18739 20.7367 3.69659L18.6614 20.7214C18.6056 21.1787 18.3899 21.4977 18.149 21.6475C17.9188 21.7907 17.6487 21.7938 17.3971 21.5934L11.3839 16.8051C11.1377 16.609 10.977 16.2667 10.9423 15.8786C10.9077 15.492 11.0021 15.0979 11.2178 14.8155L16.5885 7.78408C16.7581 7.56207 16.7297 7.28391 16.6213 7.10447C16.5662 7.01308 16.4743 6.92018 16.3438 6.88413C16.2001 6.84446 16.0575 6.88688 15.947 6.98389L8.48576 13.5297C7.99838 13.9572 7.41319 14.0631 6.87726 13.8463L3.56787 12.5081L3.47415 12.7398L3.56787 12.5081C3.39565 12.4384 3.26197 12.2184 3.25071 11.9224C3.23952 11.6281 3.35529 11.381 3.53216 11.2824L19.5796 2.33549Z" stroke="url(#paint5_linear_3324_386)" stroke-opacity="0.5" stroke-width="0.5"/>
</mask>
<g mask="url(#mask0_3324_386)">
</g>
<defs>
<filter id="filter0_b_3324_386" x="-12" y="-13" width="48" height="50" filterUnits="userSpaceOnUse" color-interpolation-filters="sRGB">
<feFlood flood-opacity="0" result="BackgroundImageFix"/>
<feGaussianBlur in="BackgroundImageFix" stdDeviation="7.5"/>
<feComposite in2="SourceAlpha" operator="in" result="effect1_backgroundBlur_3324_386"/>
<feBlend mode="normal" in="SourceGraphic" in2="effect1_backgroundBlur_3324_386" result="shape"/>
</filter>
<linearGradient id="paint0_linear_3324_386" x1="3" y1="2" x2="22.4034" y2="19.9527" gradientUnits="userSpaceOnUse">
<stop stop-color="#98C6E2" stop-opacity="0.95"/>
<stop offset="1" stop-color="#2F5C79"/>
</linearGradient>
<linearGradient id="paint1_linear_3324_386" x1="4.30909" y1="1.30233" x2="13.278" y2="11.5827" gradientUnits="userSpaceOnUse">
<stop stop-color="white"/>
<stop offset="1" stop-color="white" stop-opacity="0"/>
</linearGradient>
<linearGradient id="paint2_linear_3324_386" x1="21" y1="23.8605" x2="15.0182" y2="12.5421" gradientUnits="userSpaceOnUse">
<stop stop-color="white"/>
<stop offset="1" stop-color="white" stop-opacity="0"/>
</linearGradient>
<linearGradient id="paint3_linear_3324_386" x1="3" y1="2" x2="22.4034" y2="19.9527" gradientUnits="userSpaceOnUse">
<stop stop-color="#98C6E2" stop-opacity="0.95"/>
<stop offset="1" stop-color="#2F5C79"/>
</linearGradient>
<linearGradient id="paint4_linear_3324_386" x1="4.30909" y1="1.30233" x2="13.278" y2="11.5827" gradientUnits="userSpaceOnUse">
<stop stop-color="white"/>
<stop offset="1" stop-color="white" stop-opacity="0"/>
</linearGradient>
<linearGradient id="paint5_linear_3324_386" x1="21" y1="23.8605" x2="15.0182" y2="12.5421" gradientUnits="userSpaceOnUse">
<stop stop-color="white"/>
<stop offset="1" stop-color="white" stop-opacity="0"/>
</linearGradient>
</defs>
</svg>
