<svg width="24" height="24" viewBox="0 0 24 24" fill="none" xmlns="http://www.w3.org/2000/svg">
<g filter="url(#filter0_b_3324_401)">
<mask id="path-1-inside-1_3324_401" fill="white">
<path fill-rule="evenodd" clip-rule="evenodd" d="M4.09922 4.25076C2.5431 4.32925 1.2931 5.56987 1.19211 7.15289C1.09536 8.66954 1 10.5357 1 12C1 13.4643 1.09536 15.3305 1.19211 16.8471C1.2931 18.4301 2.5431 19.6708 4.09922 19.7492C6.35259 19.8629 9.5733 20 12 20C14.4267 20 17.6474 19.8629 19.9008 19.7492C21.4569 19.6708 22.7069 18.4301 22.8079 16.8471C22.9046 15.3305 23 13.4643 23 12C23 10.5357 22.9046 8.66954 22.8079 7.15289C22.7069 5.56987 21.4569 4.32925 19.9008 4.25076C17.6474 4.13709 14.4267 4 12 4C9.5733 4 6.35259 4.13709 4.09922 4.25076ZM15.928 12.0008L9.64233 15.2008V8.80078L15.928 12.0008Z"/>
</mask>
<path fill-rule="evenodd" clip-rule="evenodd" d="M4.09922 4.25076C2.5431 4.32925 1.2931 5.56987 1.19211 7.15289C1.09536 8.66954 1 10.5357 1 12C1 13.4643 1.09536 15.3305 1.19211 16.8471C1.2931 18.4301 2.5431 19.6708 4.09922 19.7492C6.35259 19.8629 9.5733 20 12 20C14.4267 20 17.6474 19.8629 19.9008 19.7492C21.4569 19.6708 22.7069 18.4301 22.8079 16.8471C22.9046 15.3305 23 13.4643 23 12C23 10.5357 22.9046 8.66954 22.8079 7.15289C22.7069 5.56987 21.4569 4.32925 19.9008 4.25076C17.6474 4.13709 14.4267 4 12 4C9.5733 4 6.35259 4.13709 4.09922 4.25076ZM15.928 12.0008L9.64233 15.2008V8.80078L15.928 12.0008Z" fill="url(#paint0_linear_3324_401)" fill-opacity="0.4"/>
<path d="M1.19211 7.15289L1.6911 7.18472L1.19211 7.15289ZM4.09922 4.25076L4.07403 3.75139L4.09922 4.25076ZM1.19211 16.8471L1.6911 16.8153L1.19211 16.8471ZM4.09922 19.7492L4.12441 19.2499L4.09922 19.7492ZM19.9008 19.7492L19.8756 19.2499L19.9008 19.7492ZM22.8079 16.8471L22.3089 16.8153L22.8079 16.8471ZM22.8079 7.15289L22.3089 7.18472V7.18472L22.8079 7.15289ZM19.9008 4.25076L19.8756 4.75012L19.9008 4.25076ZM9.64233 15.2008H9.14233V16.0164L9.86918 15.6464L9.64233 15.2008ZM15.928 12.0008L16.1549 12.4464L17.0301 12.0008L16.1549 11.5552L15.928 12.0008ZM9.64233 8.80078L9.86918 8.3552L9.14233 7.98517V8.80078H9.64233ZM1.6911 7.18472C1.77619 5.8509 2.82646 4.81559 4.12441 4.75012L4.07403 3.75139C2.25974 3.84291 0.810012 5.28883 0.693126 7.12105L1.6911 7.18472ZM1.5 12C1.5 10.5524 1.59447 8.69931 1.6911 7.18472L0.693126 7.12105C0.59624 8.63977 0.5 10.5191 0.5 12H1.5ZM1.6911 16.8153C1.59447 15.3007 1.5 13.4476 1.5 12H0.5C0.5 13.4809 0.59624 15.3602 0.693126 16.879L1.6911 16.8153ZM4.12441 19.2499C2.82646 19.1844 1.77619 18.1491 1.6911 16.8153L0.693126 16.879C0.810012 18.7112 2.25974 20.1571 4.07403 20.2486L4.12441 19.2499ZM12 19.5C9.58691 19.5 6.37705 19.3635 4.12441 19.2499L4.07403 20.2486C6.32812 20.3623 9.55969 20.5 12 20.5V19.5ZM19.8756 19.2499C17.6229 19.3635 14.4131 19.5 12 19.5V20.5C14.4403 20.5 17.6719 20.3623 19.926 20.2486L19.8756 19.2499ZM22.3089 16.8153C22.2238 18.1491 21.1735 19.1844 19.8756 19.2499L19.926 20.2486C21.7403 20.1571 23.19 18.7112 23.3069 16.879L22.3089 16.8153ZM22.5 12C22.5 13.4476 22.4055 15.3007 22.3089 16.8153L23.3069 16.879C23.4038 15.3602 23.5 13.4809 23.5 12H22.5ZM22.3089 7.18472C22.4055 8.69931 22.5 10.5524 22.5 12H23.5C23.5 10.5191 23.4038 8.63977 23.3069 7.12105L22.3089 7.18472ZM19.8756 4.75012C21.1735 4.81559 22.2238 5.8509 22.3089 7.18472L23.3069 7.12106C23.19 5.28883 21.7403 3.84291 19.926 3.75139L19.8756 4.75012ZM12 4.5C14.4131 4.5 17.6229 4.63649 19.8756 4.75012L19.926 3.75139C17.6719 3.63769 14.4403 3.5 12 3.5V4.5ZM4.12441 4.75012C6.37705 4.63649 9.58691 4.5 12 4.5V3.5C9.55969 3.5 6.32812 3.63769 4.07403 3.75139L4.12441 4.75012ZM9.86918 15.6464L16.1549 12.4464L15.7012 11.5552L9.41549 14.7552L9.86918 15.6464ZM9.14233 8.80078V15.2008H10.1423V8.80078H9.14233ZM16.1549 11.5552L9.86918 8.3552L9.41549 9.24636L15.7012 12.4464L16.1549 11.5552Z" fill="url(#paint1_linear_3324_401)" fill-opacity="0.8" mask="url(#path-1-inside-1_3324_401)"/>
<path d="M1.19211 7.15289L1.6911 7.18472L1.19211 7.15289ZM4.09922 4.25076L4.07403 3.75139L4.09922 4.25076ZM1.19211 16.8471L1.6911 16.8153L1.19211 16.8471ZM4.09922 19.7492L4.12441 19.2499L4.09922 19.7492ZM19.9008 19.7492L19.8756 19.2499L19.9008 19.7492ZM22.8079 16.8471L22.3089 16.8153L22.8079 16.8471ZM22.8079 7.15289L22.3089 7.18472V7.18472L22.8079 7.15289ZM19.9008 4.25076L19.8756 4.75012L19.9008 4.25076ZM9.64233 15.2008H9.14233V16.0164L9.86918 15.6464L9.64233 15.2008ZM15.928 12.0008L16.1549 12.4464L17.0301 12.0008L16.1549 11.5552L15.928 12.0008ZM9.64233 8.80078L9.86918 8.3552L9.14233 7.98517V8.80078H9.64233ZM1.6911 7.18472C1.77619 5.8509 2.82646 4.81559 4.12441 4.75012L4.07403 3.75139C2.25974 3.84291 0.810012 5.28883 0.693126 7.12105L1.6911 7.18472ZM1.5 12C1.5 10.5524 1.59447 8.69931 1.6911 7.18472L0.693126 7.12105C0.59624 8.63977 0.5 10.5191 0.5 12H1.5ZM1.6911 16.8153C1.59447 15.3007 1.5 13.4476 1.5 12H0.5C0.5 13.4809 0.59624 15.3602 0.693126 16.879L1.6911 16.8153ZM4.12441 19.2499C2.82646 19.1844 1.77619 18.1491 1.6911 16.8153L0.693126 16.879C0.810012 18.7112 2.25974 20.1571 4.07403 20.2486L4.12441 19.2499ZM12 19.5C9.58691 19.5 6.37705 19.3635 4.12441 19.2499L4.07403 20.2486C6.32812 20.3623 9.55969 20.5 12 20.5V19.5ZM19.8756 19.2499C17.6229 19.3635 14.4131 19.5 12 19.5V20.5C14.4403 20.5 17.6719 20.3623 19.926 20.2486L19.8756 19.2499ZM22.3089 16.8153C22.2238 18.1491 21.1735 19.1844 19.8756 19.2499L19.926 20.2486C21.7403 20.1571 23.19 18.7112 23.3069 16.879L22.3089 16.8153ZM22.5 12C22.5 13.4476 22.4055 15.3007 22.3089 16.8153L23.3069 16.879C23.4038 15.3602 23.5 13.4809 23.5 12H22.5ZM22.3089 7.18472C22.4055 8.69931 22.5 10.5524 22.5 12H23.5C23.5 10.5191 23.4038 8.63977 23.3069 7.12105L22.3089 7.18472ZM19.8756 4.75012C21.1735 4.81559 22.2238 5.8509 22.3089 7.18472L23.3069 7.12106C23.19 5.28883 21.7403 3.84291 19.926 3.75139L19.8756 4.75012ZM12 4.5C14.4131 4.5 17.6229 4.63649 19.8756 4.75012L19.926 3.75139C17.6719 3.63769 14.4403 3.5 12 3.5V4.5ZM4.12441 4.75012C6.37705 4.63649 9.58691 4.5 12 4.5V3.5C9.55969 3.5 6.32812 3.63769 4.07403 3.75139L4.12441 4.75012ZM9.86918 15.6464L16.1549 12.4464L15.7012 11.5552L9.41549 14.7552L9.86918 15.6464ZM9.14233 8.80078V15.2008H10.1423V8.80078H9.14233ZM16.1549 11.5552L9.86918 8.3552L9.41549 9.24636L15.7012 12.4464L16.1549 11.5552Z" fill="url(#paint2_linear_3324_401)" fill-opacity="0.5" mask="url(#path-1-inside-1_3324_401)"/>
</g>
<mask id="mask0_3324_401" style="mask-type:alpha" maskUnits="userSpaceOnUse" x="1" y="4" width="22" height="16">
<mask id="path-3-inside-2_3324_401" fill="white">
<path fill-rule="evenodd" clip-rule="evenodd" d="M4.09922 4.25076C2.5431 4.32925 1.2931 5.56987 1.19211 7.15289C1.09536 8.66954 1 10.5357 1 12C1 13.4643 1.09536 15.3305 1.19211 16.8471C1.2931 18.4301 2.5431 19.6708 4.09922 19.7492C6.35259 19.8629 9.5733 20 12 20C14.4267 20 17.6474 19.8629 19.9008 19.7492C21.4569 19.6708 22.7069 18.4301 22.8079 16.8471C22.9046 15.3305 23 13.4643 23 12C23 10.5357 22.9046 8.66954 22.8079 7.15289C22.7069 5.56987 21.4569 4.32925 19.9008 4.25076C17.6474 4.13709 14.4267 4 12 4C9.5733 4 6.35259 4.13709 4.09922 4.25076ZM15.928 12.0008L9.64233 15.2008V8.80078L15.928 12.0008Z"/>
</mask>
<path fill-rule="evenodd" clip-rule="evenodd" d="M4.09922 4.25076C2.5431 4.32925 1.2931 5.56987 1.19211 7.15289C1.09536 8.66954 1 10.5357 1 12C1 13.4643 1.09536 15.3305 1.19211 16.8471C1.2931 18.4301 2.5431 19.6708 4.09922 19.7492C6.35259 19.8629 9.5733 20 12 20C14.4267 20 17.6474 19.8629 19.9008 19.7492C21.4569 19.6708 22.7069 18.4301 22.8079 16.8471C22.9046 15.3305 23 13.4643 23 12C23 10.5357 22.9046 8.66954 22.8079 7.15289C22.7069 5.56987 21.4569 4.32925 19.9008 4.25076C17.6474 4.13709 14.4267 4 12 4C9.5733 4 6.35259 4.13709 4.09922 4.25076ZM15.928 12.0008L9.64233 15.2008V8.80078L15.928 12.0008Z" fill="url(#paint3_linear_3324_401)" fill-opacity="0.5"/>
<path d="M1.19211 7.15289L1.6911 7.18472L1.19211 7.15289ZM4.09922 4.25076L4.07403 3.75139L4.09922 4.25076ZM1.19211 16.8471L1.6911 16.8153L1.19211 16.8471ZM4.09922 19.7492L4.12441 19.2499L4.09922 19.7492ZM19.9008 19.7492L19.8756 19.2499L19.9008 19.7492ZM22.8079 16.8471L22.3089 16.8153L22.8079 16.8471ZM22.8079 7.15289L22.3089 7.18472V7.18472L22.8079 7.15289ZM19.9008 4.25076L19.8756 4.75012L19.9008 4.25076ZM9.64233 15.2008H9.14233V16.0164L9.86918 15.6464L9.64233 15.2008ZM15.928 12.0008L16.1549 12.4464L17.0301 12.0008L16.1549 11.5552L15.928 12.0008ZM9.64233 8.80078L9.86918 8.3552L9.14233 7.98517V8.80078H9.64233ZM1.6911 7.18472C1.77619 5.8509 2.82646 4.81559 4.12441 4.75012L4.07403 3.75139C2.25974 3.84291 0.810012 5.28883 0.693126 7.12105L1.6911 7.18472ZM1.5 12C1.5 10.5524 1.59447 8.69931 1.6911 7.18472L0.693126 7.12105C0.59624 8.63977 0.5 10.5191 0.5 12H1.5ZM1.6911 16.8153C1.59447 15.3007 1.5 13.4476 1.5 12H0.5C0.5 13.4809 0.59624 15.3602 0.693126 16.879L1.6911 16.8153ZM4.12441 19.2499C2.82646 19.1844 1.77619 18.1491 1.6911 16.8153L0.693126 16.879C0.810012 18.7112 2.25974 20.1571 4.07403 20.2486L4.12441 19.2499ZM12 19.5C9.58691 19.5 6.37705 19.3635 4.12441 19.2499L4.07403 20.2486C6.32812 20.3623 9.55969 20.5 12 20.5V19.5ZM19.8756 19.2499C17.6229 19.3635 14.4131 19.5 12 19.5V20.5C14.4403 20.5 17.6719 20.3623 19.926 20.2486L19.8756 19.2499ZM22.3089 16.8153C22.2238 18.1491 21.1735 19.1844 19.8756 19.2499L19.926 20.2486C21.7403 20.1571 23.19 18.7112 23.3069 16.879L22.3089 16.8153ZM22.5 12C22.5 13.4476 22.4055 15.3007 22.3089 16.8153L23.3069 16.879C23.4038 15.3602 23.5 13.4809 23.5 12H22.5ZM22.3089 7.18472C22.4055 8.69931 22.5 10.5524 22.5 12H23.5C23.5 10.5191 23.4038 8.63977 23.3069 7.12105L22.3089 7.18472ZM19.8756 4.75012C21.1735 4.81559 22.2238 5.8509 22.3089 7.18472L23.3069 7.12106C23.19 5.28883 21.7403 3.84291 19.926 3.75139L19.8756 4.75012ZM12 4.5C14.4131 4.5 17.6229 4.63649 19.8756 4.75012L19.926 3.75139C17.6719 3.63769 14.4403 3.5 12 3.5V4.5ZM4.12441 4.75012C6.37705 4.63649 9.58691 4.5 12 4.5V3.5C9.55969 3.5 6.32812 3.63769 4.07403 3.75139L4.12441 4.75012ZM9.86918 15.6464L16.1549 12.4464L15.7012 11.5552L9.41549 14.7552L9.86918 15.6464ZM9.14233 8.80078V15.2008H10.1423V8.80078H9.14233ZM16.1549 11.5552L9.86918 8.3552L9.41549 9.24636L15.7012 12.4464L16.1549 11.5552Z" fill="url(#paint4_linear_3324_401)" fill-opacity="0.8" mask="url(#path-3-inside-2_3324_401)"/>
<path d="M1.19211 7.15289L1.6911 7.18472L1.19211 7.15289ZM4.09922 4.25076L4.07403 3.75139L4.09922 4.25076ZM1.19211 16.8471L1.6911 16.8153L1.19211 16.8471ZM4.09922 19.7492L4.12441 19.2499L4.09922 19.7492ZM19.9008 19.7492L19.8756 19.2499L19.9008 19.7492ZM22.8079 16.8471L22.3089 16.8153L22.8079 16.8471ZM22.8079 7.15289L22.3089 7.18472V7.18472L22.8079 7.15289ZM19.9008 4.25076L19.8756 4.75012L19.9008 4.25076ZM9.64233 15.2008H9.14233V16.0164L9.86918 15.6464L9.64233 15.2008ZM15.928 12.0008L16.1549 12.4464L17.0301 12.0008L16.1549 11.5552L15.928 12.0008ZM9.64233 8.80078L9.86918 8.3552L9.14233 7.98517V8.80078H9.64233ZM1.6911 7.18472C1.77619 5.8509 2.82646 4.81559 4.12441 4.75012L4.07403 3.75139C2.25974 3.84291 0.810012 5.28883 0.693126 7.12105L1.6911 7.18472ZM1.5 12C1.5 10.5524 1.59447 8.69931 1.6911 7.18472L0.693126 7.12105C0.59624 8.63977 0.5 10.5191 0.5 12H1.5ZM1.6911 16.8153C1.59447 15.3007 1.5 13.4476 1.5 12H0.5C0.5 13.4809 0.59624 15.3602 0.693126 16.879L1.6911 16.8153ZM4.12441 19.2499C2.82646 19.1844 1.77619 18.1491 1.6911 16.8153L0.693126 16.879C0.810012 18.7112 2.25974 20.1571 4.07403 20.2486L4.12441 19.2499ZM12 19.5C9.58691 19.5 6.37705 19.3635 4.12441 19.2499L4.07403 20.2486C6.32812 20.3623 9.55969 20.5 12 20.5V19.5ZM19.8756 19.2499C17.6229 19.3635 14.4131 19.5 12 19.5V20.5C14.4403 20.5 17.6719 20.3623 19.926 20.2486L19.8756 19.2499ZM22.3089 16.8153C22.2238 18.1491 21.1735 19.1844 19.8756 19.2499L19.926 20.2486C21.7403 20.1571 23.19 18.7112 23.3069 16.879L22.3089 16.8153ZM22.5 12C22.5 13.4476 22.4055 15.3007 22.3089 16.8153L23.3069 16.879C23.4038 15.3602 23.5 13.4809 23.5 12H22.5ZM22.3089 7.18472C22.4055 8.69931 22.5 10.5524 22.5 12H23.5C23.5 10.5191 23.4038 8.63977 23.3069 7.12105L22.3089 7.18472ZM19.8756 4.75012C21.1735 4.81559 22.2238 5.8509 22.3089 7.18472L23.3069 7.12106C23.19 5.28883 21.7403 3.84291 19.926 3.75139L19.8756 4.75012ZM12 4.5C14.4131 4.5 17.6229 4.63649 19.8756 4.75012L19.926 3.75139C17.6719 3.63769 14.4403 3.5 12 3.5V4.5ZM4.12441 4.75012C6.37705 4.63649 9.58691 4.5 12 4.5V3.5C9.55969 3.5 6.32812 3.63769 4.07403 3.75139L4.12441 4.75012ZM9.86918 15.6464L16.1549 12.4464L15.7012 11.5552L9.41549 14.7552L9.86918 15.6464ZM9.14233 8.80078V15.2008H10.1423V8.80078H9.14233ZM16.1549 11.5552L9.86918 8.3552L9.41549 9.24636L15.7012 12.4464L16.1549 11.5552Z" fill="url(#paint5_linear_3324_401)" fill-opacity="0.5" mask="url(#path-3-inside-2_3324_401)"/>
</mask>
<g mask="url(#mask0_3324_401)">
</g>
<defs>
<filter id="filter0_b_3324_401" x="-14" y="-11" width="52" height="46" filterUnits="userSpaceOnUse" color-interpolation-filters="sRGB">
<feFlood flood-opacity="0" result="BackgroundImageFix"/>
<feGaussianBlur in="BackgroundImageFix" stdDeviation="7.5"/>
<feComposite in2="SourceAlpha" operator="in" result="effect1_backgroundBlur_3324_401"/>
<feBlend mode="normal" in="SourceGraphic" in2="effect1_backgroundBlur_3324_401" result="shape"/>
</filter>
<linearGradient id="paint0_linear_3324_401" x1="-1.44444" y1="4" x2="15.4391" y2="25.4731" gradientUnits="userSpaceOnUse">
<stop stop-color="#AEDEFD" stop-opacity="0.95"/>
<stop offset="1" stop-color="#6198BA"/>
</linearGradient>
<linearGradient id="paint1_linear_3324_401" x1="2.6" y1="3.44186" x2="8.83722" y2="14.3642" gradientUnits="userSpaceOnUse">
<stop stop-color="white"/>
<stop offset="1" stop-color="white" stop-opacity="0"/>
</linearGradient>
<linearGradient id="paint2_linear_3324_401" x1="23" y1="21.4884" x2="19.4211" y2="11.1426" gradientUnits="userSpaceOnUse">
<stop stop-color="white"/>
<stop offset="1" stop-color="white" stop-opacity="0"/>
</linearGradient>
<linearGradient id="paint3_linear_3324_401" x1="-1.44444" y1="4" x2="15.4391" y2="25.4731" gradientUnits="userSpaceOnUse">
<stop stop-color="#AEDEFD" stop-opacity="0.95"/>
<stop offset="1" stop-color="#6198BA"/>
</linearGradient>
<linearGradient id="paint4_linear_3324_401" x1="2.6" y1="3.44186" x2="8.83722" y2="14.3642" gradientUnits="userSpaceOnUse">
<stop stop-color="white"/>
<stop offset="1" stop-color="white" stop-opacity="0"/>
</linearGradient>
<linearGradient id="paint5_linear_3324_401" x1="23" y1="21.4884" x2="19.4211" y2="11.1426" gradientUnits="userSpaceOnUse">
<stop stop-color="white"/>
<stop offset="1" stop-color="white" stop-opacity="0"/>
</linearGradient>
</defs>
</svg>
