<svg width="344" height="60" viewBox="0 0 344 60" fill="none" xmlns="http://www.w3.org/2000/svg">
<path d="M0 0L230 0L92.2714 60H0V0Z" fill="#214D7E"/>
<path d="M343.75 59.75H115.2L251.781 0.25H343.75V59.75Z" stroke="#214D7E" stroke-width="0.5"/>
<path d="M63.3271 29.792V32.3433H56.8574V29.792H63.3271ZM65.7563 29.792V43H62.5337V29.792H65.7563ZM56.0518 29.792H59.2378L58.8838 36.3838C58.8268 37.3522 58.7251 38.2026 58.5786 38.9351C58.4321 39.6593 58.2368 40.2819 57.9927 40.8027C57.7485 41.3154 57.4515 41.7345 57.1016 42.0601C56.7516 42.3856 56.3447 42.6257 55.8809 42.7803C55.4251 42.9268 54.9124 43 54.3428 43H53.354L53.3174 40.3999L53.7812 40.3633C54.0661 40.3389 54.3102 40.2616 54.5137 40.1313C54.7253 40.0011 54.9043 39.814 55.0508 39.5698C55.2054 39.3257 55.3315 39.0124 55.4292 38.6299C55.535 38.2393 55.6164 37.7835 55.6733 37.2627C55.7384 36.7337 55.7832 36.1234 55.8076 35.4316L56.0518 29.792ZM74.6431 43.2441C73.6421 43.2441 72.7428 43.0814 71.9453 42.7559C71.1478 42.4303 70.4683 41.9787 69.9067 41.4009C69.3534 40.8149 68.9261 40.1354 68.625 39.3623C68.332 38.5811 68.1855 37.7428 68.1855 36.8477V36.3594C68.1855 35.3421 68.332 34.4185 68.625 33.5884C68.918 32.7502 69.333 32.0299 69.8701 31.4277C70.4072 30.8255 71.0501 30.3617 71.7988 30.0361C72.5475 29.7106 73.3735 29.5479 74.2769 29.5479C75.2127 29.5479 76.0387 29.7065 76.7549 30.0239C77.471 30.3332 78.0692 30.7726 78.5493 31.3423C79.0295 31.9119 79.3916 32.5955 79.6357 33.3931C79.8799 34.1825 80.002 35.0573 80.002 36.0176V37.3726H69.6504V35.1509H76.8281V34.9067C76.8118 34.394 76.7142 33.9261 76.5352 33.5029C76.3561 33.0716 76.0794 32.7298 75.7051 32.4775C75.3307 32.2171 74.8465 32.0869 74.2524 32.0869C73.7723 32.0869 73.3532 32.1927 72.9951 32.4043C72.6452 32.6077 72.3522 32.9007 72.1162 33.2832C71.8883 33.6576 71.7174 34.1051 71.6035 34.626C71.4896 35.1468 71.4326 35.7246 71.4326 36.3594V36.8477C71.4326 37.401 71.5059 37.9137 71.6523 38.3857C71.807 38.8577 72.0308 39.2687 72.3237 39.6187C72.6248 39.9604 72.9829 40.229 73.3979 40.4243C73.8211 40.6115 74.3013 40.7051 74.8384 40.7051C75.5138 40.7051 76.1242 40.5749 76.6694 40.3145C77.2228 40.0459 77.703 39.6512 78.1099 39.1304L79.7334 40.8149C79.4567 41.2218 79.0824 41.6125 78.6104 41.9868C78.1465 42.3612 77.585 42.6663 76.9258 42.9023C76.2666 43.1302 75.5057 43.2441 74.6431 43.2441ZM88.4248 29.792V43H85.1899V29.792H88.4248ZM92.7217 29.792V32.3066H80.9663V29.792H92.7217Z" fill="#FDEA6F"/>
<path d="M280.364 40.1318V41.4585H277.006V40.1318H280.364ZM277.45 40.1318V47H275.768V40.1318H277.45ZM281.633 40.1318V47H279.945V40.1318H281.633ZM284.833 41.4521V49.6406H283.15V40.1318H284.706L284.833 41.4521ZM289.244 43.4961V43.6294C289.244 44.1287 289.185 44.5921 289.066 45.0195C288.952 45.4427 288.783 45.813 288.559 46.1304C288.334 46.4435 288.055 46.689 287.721 46.8667C287.391 47.0402 287.01 47.127 286.578 47.127C286.155 47.127 285.787 47.0465 285.474 46.8857C285.16 46.7207 284.896 46.488 284.68 46.1875C284.464 45.887 284.291 45.5379 284.16 45.1401C284.033 44.7381 283.938 44.3001 283.874 43.8262V43.4009C283.938 42.8973 284.033 42.4403 284.16 42.0298C284.291 41.6151 284.464 41.2575 284.68 40.957C284.896 40.6523 285.158 40.4175 285.467 40.2524C285.78 40.0874 286.146 40.0049 286.565 40.0049C287.001 40.0049 287.384 40.0874 287.714 40.2524C288.049 40.4175 288.33 40.6545 288.559 40.9634C288.787 41.2723 288.958 41.6405 289.073 42.0679C289.187 42.4953 289.244 42.9714 289.244 43.4961ZM287.562 43.6294V43.4961C287.562 43.1914 287.535 42.91 287.479 42.6519C287.424 42.3895 287.34 42.161 287.226 41.9663C287.111 41.7674 286.963 41.613 286.781 41.5029C286.599 41.3929 286.379 41.3379 286.121 41.3379C285.863 41.3379 285.641 41.3802 285.455 41.4648C285.268 41.5495 285.116 41.6701 284.998 41.8267C284.879 41.9832 284.786 42.1694 284.718 42.3853C284.655 42.5968 284.612 42.8317 284.591 43.0898V44.1436C284.629 44.4567 284.703 44.7381 284.813 44.9878C284.924 45.2375 285.084 45.4364 285.296 45.5845C285.512 45.7326 285.791 45.8066 286.134 45.8066C286.392 45.8066 286.612 45.7495 286.794 45.6353C286.976 45.521 287.124 45.3644 287.238 45.1655C287.353 44.9624 287.435 44.7297 287.486 44.4673C287.537 44.2049 287.562 43.9256 287.562 43.6294ZM290.171 43.6357V43.5024C290.171 42.9989 290.243 42.5355 290.387 42.1123C290.531 41.6849 290.74 41.3146 291.015 41.0015C291.29 40.6883 291.627 40.445 292.024 40.2715C292.422 40.0938 292.875 40.0049 293.383 40.0049C293.899 40.0049 294.356 40.0938 294.754 40.2715C295.156 40.445 295.494 40.6883 295.77 41.0015C296.045 41.3146 296.254 41.6849 296.398 42.1123C296.542 42.5355 296.614 42.9989 296.614 43.5024V43.6357C296.614 44.1351 296.542 44.5985 296.398 45.0259C296.254 45.4491 296.045 45.8193 295.77 46.1367C295.494 46.4499 295.158 46.6932 294.76 46.8667C294.362 47.0402 293.908 47.127 293.396 47.127C292.888 47.127 292.433 47.0402 292.031 46.8667C291.629 46.6932 291.29 46.4499 291.015 46.1367C290.74 45.8193 290.531 45.4491 290.387 45.0259C290.243 44.5985 290.171 44.1351 290.171 43.6357ZM291.847 43.5024V43.6357C291.847 43.9362 291.876 44.2176 291.936 44.48C291.995 44.7424 292.086 44.973 292.208 45.1719C292.331 45.3708 292.49 45.5273 292.685 45.6416C292.883 45.7516 293.12 45.8066 293.396 45.8066C293.666 45.8066 293.899 45.7516 294.094 45.6416C294.288 45.5273 294.447 45.3708 294.57 45.1719C294.697 44.973 294.79 44.7424 294.849 44.48C294.908 44.2176 294.938 43.9362 294.938 43.6357V43.5024C294.938 43.2062 294.908 42.929 294.849 42.6709C294.79 42.4085 294.697 42.1779 294.57 41.979C294.447 41.7759 294.286 41.6172 294.087 41.5029C293.893 41.3844 293.658 41.3252 293.383 41.3252C293.112 41.3252 292.879 41.3844 292.685 41.5029C292.49 41.6172 292.331 41.7759 292.208 41.979C292.086 42.1779 291.995 42.4085 291.936 42.6709C291.876 42.929 291.847 43.2062 291.847 43.5024ZM300.917 47.127C300.397 47.127 299.929 47.0423 299.515 46.873C299.1 46.7038 298.747 46.4689 298.455 46.1685C298.167 45.8638 297.945 45.5104 297.788 45.1084C297.636 44.7021 297.56 44.2663 297.56 43.8008V43.5469C297.56 43.0179 297.636 42.5376 297.788 42.106C297.94 41.6701 298.156 41.2956 298.436 40.9824C298.715 40.6693 299.049 40.4281 299.438 40.2588C299.828 40.0895 300.257 40.0049 300.727 40.0049C301.214 40.0049 301.643 40.0874 302.016 40.2524C302.388 40.4132 302.699 40.6418 302.949 40.938C303.198 41.2342 303.387 41.5897 303.514 42.0044C303.641 42.4149 303.704 42.8698 303.704 43.3691V44.0737H298.321V42.9185H302.054V42.7915C302.045 42.5249 301.994 42.2816 301.901 42.0615C301.808 41.8372 301.664 41.6595 301.47 41.5283C301.275 41.3929 301.023 41.3252 300.714 41.3252C300.465 41.3252 300.247 41.3802 300.061 41.4902C299.879 41.596 299.726 41.7484 299.604 41.9473C299.485 42.1419 299.396 42.3747 299.337 42.6455C299.278 42.9163 299.248 43.2168 299.248 43.5469V43.8008C299.248 44.0885 299.286 44.3551 299.362 44.6006C299.443 44.846 299.559 45.0597 299.711 45.2417C299.868 45.4194 300.054 45.5591 300.27 45.6606C300.49 45.758 300.74 45.8066 301.019 45.8066C301.37 45.8066 301.688 45.7389 301.971 45.6035C302.259 45.4639 302.509 45.2586 302.72 44.9878L303.564 45.8638C303.421 46.0754 303.226 46.2785 302.98 46.4731C302.739 46.6678 302.447 46.8265 302.104 46.9492C301.762 47.0677 301.366 47.127 300.917 47.127ZM306.618 40.1318V47H304.942V40.1318H306.618ZM311.093 40.1318L308.065 44.3467H306.281L306.072 42.8105H307.31L308.979 40.1318H311.093ZM309.081 47L307.202 44.0547L308.598 43.1787L311.309 47H309.081ZM315.409 40.1318V47H313.727V40.1318H315.409ZM317.644 40.1318V41.4395H311.531V40.1318H317.644ZM318.101 43.6357V43.5024C318.101 42.9989 318.173 42.5355 318.316 42.1123C318.46 41.6849 318.67 41.3146 318.945 41.0015C319.22 40.6883 319.556 40.445 319.954 40.2715C320.352 40.0938 320.805 40.0049 321.312 40.0049C321.829 40.0049 322.286 40.0938 322.684 40.2715C323.086 40.445 323.424 40.6883 323.699 41.0015C323.974 41.3146 324.184 41.6849 324.328 42.1123C324.472 42.5355 324.543 42.9989 324.543 43.5024V43.6357C324.543 44.1351 324.472 44.5985 324.328 45.0259C324.184 45.4491 323.974 45.8193 323.699 46.1367C323.424 46.4499 323.088 46.6932 322.69 46.8667C322.292 47.0402 321.837 47.127 321.325 47.127C320.817 47.127 320.362 47.0402 319.96 46.8667C319.558 46.6932 319.22 46.4499 318.945 46.1367C318.67 45.8193 318.46 45.4491 318.316 45.0259C318.173 44.5985 318.101 44.1351 318.101 43.6357ZM319.776 43.5024V43.6357C319.776 43.9362 319.806 44.2176 319.865 44.48C319.924 44.7424 320.015 44.973 320.138 45.1719C320.261 45.3708 320.42 45.5273 320.614 45.6416C320.813 45.7516 321.05 45.8066 321.325 45.8066C321.596 45.8066 321.829 45.7516 322.023 45.6416C322.218 45.5273 322.377 45.3708 322.5 45.1719C322.626 44.973 322.72 44.7424 322.779 44.48C322.838 44.2176 322.868 43.9362 322.868 43.6357V43.5024C322.868 43.2062 322.838 42.929 322.779 42.6709C322.72 42.4085 322.626 42.1779 322.5 41.979C322.377 41.7759 322.216 41.6172 322.017 41.5029C321.822 41.3844 321.588 41.3252 321.312 41.3252C321.042 41.3252 320.809 41.3844 320.614 41.5029C320.42 41.6172 320.261 41.7759 320.138 41.979C320.015 42.1779 319.924 42.4085 319.865 42.6709C319.806 42.929 319.776 43.2062 319.776 43.5024ZM329.139 44.0928H326.962L326.949 42.9565H328.739C329.006 42.9565 329.224 42.929 329.393 42.874C329.562 42.819 329.687 42.7365 329.768 42.6265C329.852 42.5164 329.895 42.3831 329.895 42.2266C329.895 42.0911 329.869 41.9748 329.818 41.8774C329.768 41.7759 329.691 41.6934 329.59 41.6299C329.493 41.5664 329.368 41.5199 329.215 41.4902C329.067 41.4564 328.894 41.4395 328.695 41.4395H327.559V47H325.876V40.1318H328.695C329.139 40.1318 329.539 40.172 329.895 40.2524C330.25 40.3286 330.553 40.445 330.802 40.6016C331.052 40.7581 331.242 40.957 331.374 41.1982C331.509 41.4352 331.577 41.7145 331.577 42.0361C331.577 42.2477 331.53 42.4466 331.437 42.6328C331.344 42.819 331.206 42.984 331.024 43.1279C330.842 43.2718 330.618 43.3903 330.352 43.4834C330.085 43.5723 329.78 43.6273 329.438 43.6484L329.139 44.0928ZM329.139 47H326.511L327.133 45.6924H329.139C329.385 45.6924 329.588 45.6628 329.749 45.6035C329.909 45.54 330.028 45.4491 330.104 45.3306C330.184 45.2121 330.225 45.0682 330.225 44.8989C330.225 44.7339 330.187 44.5921 330.11 44.4736C330.038 44.3509 329.922 44.2578 329.761 44.1943C329.605 44.1266 329.397 44.0928 329.139 44.0928H327.406L327.419 42.9565H329.431L329.875 43.4072C330.333 43.4368 330.711 43.5299 331.012 43.6865C331.312 43.8389 331.536 44.0335 331.685 44.2705C331.833 44.5033 331.907 44.7593 331.907 45.0386C331.907 45.3644 331.845 45.6501 331.723 45.8955C331.6 46.141 331.42 46.3462 331.183 46.5112C330.946 46.672 330.656 46.7948 330.313 46.8794C329.971 46.9598 329.579 47 329.139 47Z" fill="#214D7E"/>
<path d="M61.25 20.8672L63.3281 15.6035H64.8389L61.8652 23H60.6416L57.6748 15.6035H59.1924L61.25 20.8672ZM58.748 15.6035V23H56.9365V15.6035H58.748ZM63.7861 23V15.6035H65.5977V23H63.7861ZM68.6807 17.8799H70.8408C71.4971 17.8799 72.0553 17.9893 72.5156 18.208C72.9805 18.4222 73.3337 18.723 73.5752 19.1104C73.8213 19.4932 73.9443 19.9375 73.9443 20.4434C73.9443 20.8079 73.8737 21.1475 73.7324 21.4619C73.5957 21.7718 73.3952 22.043 73.1309 22.2754C72.8665 22.5033 72.5407 22.681 72.1533 22.8086C71.7705 22.9362 71.333 23 70.8408 23H67.5186V15.6035H69.3301V21.585H70.8408C71.1553 21.585 71.4059 21.5326 71.5928 21.4277C71.7842 21.3184 71.9209 21.1794 72.0029 21.0107C72.0895 20.8376 72.1328 20.653 72.1328 20.457C72.1328 20.2565 72.0895 20.0697 72.0029 19.8965C71.9209 19.7188 71.7842 19.5752 71.5928 19.4658C71.4059 19.3564 71.1553 19.3018 70.8408 19.3018H68.6807V17.8799ZM76.9795 15.6035V23H75.168V15.6035H76.9795ZM85.3467 21.7148C85.6019 21.7148 85.8298 21.6647 86.0303 21.5645C86.2308 21.4642 86.3903 21.3229 86.5088 21.1406C86.6318 20.9583 86.6979 20.7464 86.707 20.5049H88.4092C88.4001 21.0062 88.2588 21.4551 87.9854 21.8516C87.7119 22.248 87.3473 22.5625 86.8916 22.7949C86.4404 23.0228 85.9346 23.1367 85.374 23.1367C84.8044 23.1367 84.3076 23.041 83.8838 22.8496C83.46 22.6582 83.1068 22.3916 82.8242 22.0498C82.5462 21.708 82.3366 21.3115 82.1953 20.8604C82.0586 20.4092 81.9902 19.9261 81.9902 19.4111V19.1924C81.9902 18.6774 82.0586 18.1943 82.1953 17.7432C82.3366 17.292 82.5462 16.8955 82.8242 16.5537C83.1068 16.2119 83.46 15.9453 83.8838 15.7539C84.3076 15.5625 84.8021 15.4668 85.3672 15.4668C85.9642 15.4668 86.4883 15.583 86.9395 15.8154C87.3952 16.0479 87.7507 16.376 88.0059 16.7998C88.2656 17.2236 88.4001 17.7227 88.4092 18.2969H86.707C86.6979 18.0326 86.6387 17.7956 86.5293 17.5859C86.4199 17.3763 86.265 17.2077 86.0645 17.0801C85.8639 16.9525 85.6201 16.8887 85.333 16.8887C85.0277 16.8887 84.7725 16.9525 84.5674 17.0801C84.3669 17.2077 84.2096 17.3831 84.0957 17.6064C83.9863 17.8252 83.9089 18.0713 83.8633 18.3447C83.8223 18.6136 83.8018 18.8962 83.8018 19.1924V19.4111C83.8018 19.7119 83.8223 19.999 83.8633 20.2725C83.9089 20.5459 83.9863 20.792 84.0957 21.0107C84.2096 21.2249 84.3669 21.3958 84.5674 21.5234C84.7725 21.651 85.0322 21.7148 85.3467 21.7148ZM97.0498 18.5635H94.5068L94.4932 17.2373H96.6738C97.0475 17.2373 97.3597 17.1849 97.6104 17.0801C97.861 16.9753 98.0501 16.8226 98.1777 16.6221C98.3099 16.4215 98.376 16.1777 98.376 15.8906C98.376 15.5716 98.3145 15.3118 98.1914 15.1113C98.0729 14.9108 97.8861 14.765 97.6309 14.6738C97.3757 14.5781 97.0521 14.5303 96.6602 14.5303H95.1152V23H93.2354V13.0469H96.6602C97.2253 13.0469 97.7288 13.1016 98.1709 13.2109C98.6175 13.3158 98.9958 13.4798 99.3057 13.7031C99.6156 13.9264 99.8503 14.2067 100.01 14.5439C100.174 14.8812 100.256 15.2822 100.256 15.7471C100.256 16.1572 100.16 16.5355 99.9688 16.8818C99.7819 17.2236 99.4925 17.5016 99.1006 17.7158C98.7132 17.93 98.221 18.0531 97.624 18.085L97.0498 18.5635ZM96.9678 23H93.9531L94.7393 21.5234H96.9678C97.3415 21.5234 97.6491 21.4619 97.8906 21.3389C98.1367 21.2158 98.319 21.0472 98.4375 20.833C98.5605 20.6143 98.6221 20.3636 98.6221 20.0811C98.6221 19.7712 98.5674 19.5023 98.458 19.2744C98.3532 19.0465 98.1846 18.8711 97.9521 18.748C97.7243 18.625 97.4235 18.5635 97.0498 18.5635H95.0947L95.1084 17.2373H97.5967L98.0273 17.75C98.6016 17.7546 99.0687 17.8685 99.4287 18.0918C99.7933 18.3151 100.062 18.6022 100.235 18.9531C100.409 19.304 100.495 19.6823 100.495 20.0879C100.495 20.7259 100.356 21.2614 100.078 21.6943C99.8047 22.1273 99.4036 22.4531 98.875 22.6719C98.3509 22.8906 97.7152 23 96.9678 23ZM106.06 21.4277V18.0166C106.06 17.766 106.016 17.5495 105.93 17.3672C105.843 17.1849 105.711 17.0436 105.533 16.9434C105.355 16.8431 105.13 16.793 104.856 16.793C104.615 16.793 104.403 16.834 104.221 16.916C104.043 16.998 103.906 17.1143 103.811 17.2646C103.715 17.4105 103.667 17.5791 103.667 17.7705H101.855C101.855 17.4652 101.928 17.1758 102.074 16.9023C102.22 16.6243 102.427 16.3783 102.696 16.1641C102.97 15.9453 103.296 15.7744 103.674 15.6514C104.057 15.5283 104.485 15.4668 104.959 15.4668C105.52 15.4668 106.019 15.5625 106.456 15.7539C106.898 15.9408 107.244 16.2233 107.495 16.6016C107.75 16.9798 107.878 17.4561 107.878 18.0303V21.2568C107.878 21.626 107.901 21.9427 107.946 22.207C107.996 22.4668 108.069 22.6924 108.165 22.8838V23H106.326C106.24 22.8132 106.174 22.5762 106.128 22.2891C106.082 21.9974 106.06 21.7103 106.06 21.4277ZM106.312 18.4951L106.326 19.5684H105.185C104.902 19.5684 104.654 19.598 104.439 19.6572C104.225 19.7119 104.05 19.7939 103.913 19.9033C103.776 20.0081 103.674 20.1357 103.605 20.2861C103.537 20.432 103.503 20.5983 103.503 20.7852C103.503 20.9674 103.544 21.1315 103.626 21.2773C103.713 21.4232 103.836 21.5394 103.995 21.626C104.159 21.708 104.351 21.749 104.569 21.749C104.888 21.749 105.166 21.6852 105.403 21.5576C105.64 21.4255 105.825 21.266 105.957 21.0791C106.089 20.8923 106.16 20.7145 106.169 20.5459L106.688 21.3252C106.625 21.512 106.529 21.7103 106.401 21.9199C106.274 22.1296 106.11 22.3255 105.909 22.5078C105.709 22.6901 105.467 22.8405 105.185 22.959C104.902 23.0775 104.574 23.1367 104.2 23.1367C103.722 23.1367 103.293 23.041 102.915 22.8496C102.537 22.6582 102.238 22.3962 102.02 22.0635C101.801 21.7308 101.691 21.3525 101.691 20.9287C101.691 20.5368 101.764 20.1904 101.91 19.8896C102.056 19.5889 102.272 19.3359 102.56 19.1309C102.847 18.9212 103.202 18.764 103.626 18.6592C104.054 18.5498 104.544 18.4951 105.096 18.4951H106.312ZM113.941 20.8672L116.02 15.6035H117.53L114.557 23H113.333L110.366 15.6035H111.884L113.941 20.8672ZM111.439 15.6035V23H109.628V15.6035H111.439ZM116.478 23V15.6035H118.289V23H116.478ZM121.912 20.4229L124.605 15.6035H126.417V23H124.605V18.1738L121.912 23H120.101V15.6035H121.912V20.4229ZM130.115 13.0469L129.917 20.0127H128.393L128.194 13.0469H130.115ZM128.14 22.1592C128.14 21.8903 128.231 21.6647 128.413 21.4824C128.6 21.2956 128.851 21.2021 129.165 21.2021C129.479 21.2021 129.728 21.2956 129.91 21.4824C130.097 21.6647 130.19 21.8903 130.19 22.1592C130.19 22.4235 130.097 22.6468 129.91 22.8291C129.728 23.0114 129.479 23.1025 129.165 23.1025C128.851 23.1025 128.6 23.0114 128.413 22.8291C128.231 22.6468 128.14 22.4235 128.14 22.1592Z" fill="#FDEA6F"/>
<path d="M261.48 24.8213L258.904 24.1987L259.893 15.2266H269.671V17.8999H262.566L262.103 22.0503C262.355 21.8957 262.721 21.741 263.201 21.5864C263.689 21.4237 264.239 21.3423 264.849 21.3423C265.695 21.3423 266.452 21.4806 267.12 21.7573C267.787 22.0259 268.353 22.4165 268.816 22.9292C269.288 23.4419 269.642 24.0685 269.878 24.8091C270.123 25.5415 270.245 26.3716 270.245 27.2993C270.245 28.1131 270.123 28.8781 269.878 29.5942C269.642 30.3022 269.28 30.9329 268.792 31.4863C268.304 32.0316 267.689 32.4629 266.949 32.7803C266.208 33.0895 265.337 33.2441 264.336 33.2441C263.58 33.2441 262.851 33.1343 262.151 32.9146C261.46 32.6867 260.837 32.3571 260.284 31.9258C259.73 31.4863 259.287 30.9492 258.953 30.3145C258.628 29.6797 258.449 28.9513 258.416 28.1294H261.602C261.659 28.6746 261.806 29.1385 262.042 29.521C262.278 29.9035 262.587 30.1965 262.969 30.3999C263.36 30.6034 263.812 30.7051 264.324 30.7051C264.788 30.7051 265.187 30.6196 265.521 30.4487C265.862 30.2697 266.143 30.0215 266.363 29.7041C266.583 29.3867 266.745 29.0124 266.851 28.5811C266.957 28.1497 267.01 27.6777 267.01 27.165C267.01 26.6686 266.949 26.217 266.827 25.8101C266.705 25.395 266.517 25.0369 266.265 24.7358C266.013 24.4347 265.695 24.2028 265.313 24.04C264.939 23.8773 264.499 23.7959 263.995 23.7959C263.319 23.7959 262.798 23.8976 262.432 24.1011C262.074 24.3045 261.757 24.5446 261.48 24.8213ZM281.536 15.0801H281.976V17.6802H281.768C280.783 17.6802 279.917 17.8307 279.168 18.1318C278.427 18.4329 277.809 18.8561 277.312 19.4014C276.824 19.9385 276.454 20.5773 276.202 21.3179C275.949 22.0503 275.823 22.8519 275.823 23.7227V26.6035C275.823 27.279 275.892 27.873 276.031 28.3857C276.177 28.8903 276.377 29.3175 276.629 29.6675C276.889 30.0093 277.19 30.2656 277.532 30.4365C277.882 30.6074 278.265 30.6929 278.68 30.6929C279.095 30.6929 279.469 30.6074 279.803 30.4365C280.136 30.2656 280.421 30.0256 280.657 29.7163C280.901 29.3989 281.084 29.0286 281.207 28.6055C281.337 28.1823 281.402 27.7184 281.402 27.2139C281.402 26.7174 281.341 26.2576 281.219 25.8345C281.097 25.4113 280.918 25.041 280.682 24.7236C280.446 24.3981 280.153 24.1499 279.803 23.979C279.461 23.8 279.07 23.7104 278.631 23.7104C278.061 23.7104 277.553 23.8447 277.105 24.1133C276.657 24.3737 276.303 24.7155 276.043 25.1387C275.783 25.5618 275.64 26.0094 275.616 26.4814L274.529 25.9443C274.57 25.2526 274.716 24.6178 274.969 24.04C275.229 23.4622 275.575 22.9577 276.006 22.5264C276.446 22.0951 276.963 21.7614 277.557 21.5254C278.159 21.2894 278.826 21.1714 279.559 21.1714C280.405 21.1714 281.146 21.3341 281.78 21.6597C282.415 21.9771 282.94 22.4124 283.355 22.9658C283.778 23.5192 284.096 24.158 284.307 24.8823C284.519 25.5985 284.625 26.3553 284.625 27.1528C284.625 28.0073 284.486 28.8049 284.209 29.5454C283.941 30.286 283.55 30.9329 283.038 31.4863C282.525 32.0397 281.906 32.471 281.182 32.7803C280.458 33.0895 279.644 33.2441 278.741 33.2441C277.789 33.2441 276.934 33.0651 276.177 32.707C275.429 32.349 274.786 31.8525 274.249 31.2178C273.711 30.583 273.3 29.8424 273.016 28.9961C272.731 28.1497 272.588 27.2342 272.588 26.2495V24.9556C272.588 23.564 272.78 22.27 273.162 21.0737C273.545 19.8774 274.11 18.8317 274.859 17.9365C275.616 17.0332 276.552 16.3333 277.667 15.8369C278.781 15.3324 280.071 15.0801 281.536 15.0801ZM296.27 24.8213L293.694 24.1987L294.683 15.2266H304.461V17.8999H297.356L296.893 22.0503C297.145 21.8957 297.511 21.741 297.991 21.5864C298.479 21.4237 299.029 21.3423 299.639 21.3423C300.486 21.3423 301.242 21.4806 301.91 21.7573C302.577 22.0259 303.143 22.4165 303.606 22.9292C304.078 23.4419 304.432 24.0685 304.668 24.8091C304.913 25.5415 305.035 26.3716 305.035 27.2993C305.035 28.1131 304.913 28.8781 304.668 29.5942C304.432 30.3022 304.07 30.9329 303.582 31.4863C303.094 32.0316 302.479 32.4629 301.739 32.7803C300.998 33.0895 300.127 33.2441 299.126 33.2441C298.37 33.2441 297.641 33.1343 296.941 32.9146C296.25 32.6867 295.627 32.3571 295.074 31.9258C294.52 31.4863 294.077 30.9492 293.743 30.3145C293.418 29.6797 293.239 28.9513 293.206 28.1294H296.392C296.449 28.6746 296.596 29.1385 296.832 29.521C297.068 29.9035 297.377 30.1965 297.759 30.3999C298.15 30.6034 298.602 30.7051 299.114 30.7051C299.578 30.7051 299.977 30.6196 300.311 30.4487C300.652 30.2697 300.933 30.0215 301.153 29.7041C301.373 29.3867 301.535 29.0124 301.641 28.5811C301.747 28.1497 301.8 27.6777 301.8 27.165C301.8 26.6686 301.739 26.217 301.617 25.8101C301.495 25.395 301.307 25.0369 301.055 24.7358C300.803 24.4347 300.486 24.2028 300.103 24.04C299.729 23.8773 299.289 23.7959 298.785 23.7959C298.109 23.7959 297.588 23.8976 297.222 24.1011C296.864 24.3045 296.547 24.5446 296.27 24.8213ZM319.146 28.1416C319.146 29.2484 318.886 30.1842 318.365 30.9492C317.852 31.7061 317.148 32.2798 316.253 32.6704C315.366 33.0529 314.357 33.2441 313.226 33.2441C312.103 33.2441 311.089 33.0529 310.186 32.6704C309.291 32.2798 308.579 31.7061 308.05 30.9492C307.529 30.1842 307.269 29.2484 307.269 28.1416C307.269 27.401 307.415 26.7297 307.708 26.1274C308.009 25.5252 308.424 25.0085 308.953 24.5771C309.482 24.1377 310.109 23.804 310.833 23.5762C311.557 23.3402 312.347 23.2222 313.201 23.2222C314.34 23.2222 315.358 23.4297 316.253 23.8447C317.156 24.2516 317.864 24.8254 318.377 25.5659C318.89 26.2983 319.146 27.1569 319.146 28.1416ZM315.899 27.9463C315.899 27.3766 315.785 26.8843 315.557 26.4692C315.337 26.0461 315.024 25.7205 314.617 25.4927C314.21 25.2648 313.738 25.1509 313.201 25.1509C312.656 25.1509 312.18 25.2648 311.773 25.4927C311.374 25.7205 311.061 26.0461 310.833 26.4692C310.613 26.8843 310.503 27.3766 310.503 27.9463C310.503 28.5241 310.613 29.0205 310.833 29.4355C311.061 29.8424 311.378 30.1558 311.785 30.3755C312.192 30.5952 312.672 30.7051 313.226 30.7051C313.779 30.7051 314.255 30.5952 314.654 30.3755C315.053 30.1558 315.358 29.8424 315.569 29.4355C315.789 29.0205 315.899 28.5241 315.899 27.9463ZM318.755 19.9141C318.755 20.8092 318.519 21.6068 318.047 22.3066C317.575 22.9984 316.92 23.5396 316.082 23.9302C315.252 24.3208 314.3 24.5161 313.226 24.5161C312.151 24.5161 311.191 24.3208 310.345 23.9302C309.507 23.5396 308.847 22.9984 308.367 22.3066C307.895 21.6068 307.659 20.8092 307.659 19.9141C307.659 18.8561 307.899 17.9609 308.379 17.2285C308.86 16.488 309.515 15.9264 310.345 15.5439C311.183 15.1615 312.135 14.9702 313.201 14.9702C314.284 14.9702 315.244 15.1615 316.082 15.5439C316.92 15.9264 317.575 16.488 318.047 17.2285C318.519 17.9609 318.755 18.8561 318.755 19.9141ZM315.533 20.0483C315.533 19.5438 315.439 19.1043 315.252 18.73C315.065 18.3475 314.796 18.0505 314.446 17.8389C314.104 17.6273 313.689 17.5215 313.201 17.5215C312.729 17.5215 312.322 17.6232 311.98 17.8267C311.639 18.0301 311.374 18.3231 311.187 18.7056C311 19.0799 310.906 19.5275 310.906 20.0483C310.906 20.561 311 21.0086 311.187 21.3911C311.374 21.7736 311.639 22.0747 311.98 22.2944C312.33 22.506 312.745 22.6118 313.226 22.6118C313.706 22.6118 314.117 22.506 314.458 22.2944C314.8 22.0747 315.065 21.7736 315.252 21.3911C315.439 21.0086 315.533 20.561 315.533 20.0483ZM333.404 22.5874V25.5781C333.404 26.9453 333.265 28.1131 332.989 29.0815C332.712 30.05 332.313 30.8434 331.792 31.4619C331.272 32.0723 330.649 32.5239 329.925 32.8169C329.201 33.1017 328.395 33.2441 327.508 33.2441C326.8 33.2441 326.141 33.1546 325.53 32.9756C324.92 32.7884 324.371 32.5036 323.882 32.1211C323.402 31.7305 322.987 31.234 322.637 30.6318C322.295 30.0296 322.031 29.3094 321.844 28.4712C321.665 27.633 321.575 26.6686 321.575 25.5781V22.5874C321.575 21.2202 321.714 20.0565 321.99 19.0962C322.275 18.1359 322.678 17.3506 323.199 16.7402C323.72 16.1299 324.342 15.6864 325.066 15.4097C325.791 15.1248 326.596 14.9824 327.483 14.9824C328.2 14.9824 328.859 15.0719 329.461 15.251C330.071 15.43 330.617 15.7108 331.097 16.0933C331.585 16.4676 332 16.9559 332.342 17.5581C332.684 18.1522 332.944 18.8683 333.123 19.7065C333.31 20.5366 333.404 21.4969 333.404 22.5874ZM330.181 26.0176V22.1357C330.181 21.4521 330.14 20.8581 330.059 20.3535C329.986 19.8408 329.876 19.4054 329.729 19.0474C329.583 18.6893 329.4 18.4004 329.18 18.1807C328.96 17.9528 328.708 17.786 328.423 17.6802C328.139 17.5744 327.825 17.5215 327.483 17.5215C327.06 17.5215 326.682 17.6069 326.348 17.7778C326.014 17.9406 325.734 18.201 325.506 18.5591C325.278 18.9172 325.103 19.3932 324.981 19.9873C324.867 20.5732 324.81 21.2894 324.81 22.1357V26.0176C324.81 26.7012 324.847 27.2993 324.92 27.812C325.001 28.3247 325.115 28.7642 325.262 29.1304C325.416 29.4966 325.599 29.7977 325.811 30.0337C326.031 30.2616 326.283 30.4325 326.568 30.5464C326.853 30.6522 327.166 30.7051 327.508 30.7051C327.939 30.7051 328.318 30.6196 328.643 30.4487C328.977 30.2778 329.257 30.0093 329.485 29.6431C329.713 29.2687 329.884 28.7845 329.998 28.1904C330.12 27.5882 330.181 26.8639 330.181 26.0176Z" fill="#214D7E"/>
<path fill-rule="evenodd" clip-rule="evenodd" d="M9.00547 0.109178C9.10758 0.295268 16.3544 14.5101 17.9895 17.7318L19.5312 20.7694L18.7484 21.5276C17.2405 22.988 16.0816 24.5296 15.1886 26.2629C12.7432 31.0094 12.4796 36.6464 14.4753 41.514C16.7442 47.0481 21.5044 51.0879 27.4472 52.5226C29.0782 52.9164 29.8697 52.9998 31.9748 53C33.9711 53.0002 34.5395 52.9496 35.9966 52.6423C40.0583 51.7857 43.7733 49.6139 46.3883 46.567C48.3391 44.294 49.5966 41.8695 50.2997 39.0253C51.1273 35.6777 50.9605 31.971 49.8357 28.7159C48.8883 25.9741 47.3913 23.6359 45.2562 21.563L44.4398 20.7704L45.1081 19.4381C45.4757 18.7054 47.8518 14.0421 50.3883 9.07518C52.9247 4.10828 55 0.0343593 55 0.0220889C55 0.00975879 51.2354 -0.000177169 46.6342 2.39609e-06L38.2684 0.000241817L37.7928 0.912793C37.5313 1.41468 35.628 5.09787 33.5635 9.09768C31.499 13.0975 29.7927 16.3881 29.7718 16.4101C29.7508 16.4322 29.416 16.4952 29.0276 16.5502C28.6392 16.6052 27.8946 16.7546 27.3729 16.8823C26.8512 17.0099 26.4188 17.1085 26.4121 17.1013C26.4009 17.0895 27.0463 15.7705 29.4359 10.9224L30.2919 9.18567L29.0995 6.79236C28.4437 5.47603 27.4171 3.41594 26.8183 2.21434L25.7294 0.0296307L17.3373 0.0144275C9.21079 -0.000237024 8.94701 0.00275574 9.00547 0.109178ZM33.6087 20.5008C36.913 20.8698 39.814 22.1893 42.1605 24.3907C44.5458 26.6284 46.0196 29.472 46.5037 32.7704C46.6473 33.749 46.647 35.6265 46.503 36.6011C46.1677 38.8708 45.4318 40.7863 44.193 42.6135C41.7538 46.2113 37.8312 48.4823 33.3256 48.9051C32.4035 48.9916 30.6763 48.946 29.7951 48.8119C24.7756 48.0479 20.6606 45.003 18.5914 40.5216C17.3535 37.8405 17.0271 34.495 17.7097 31.4835C18.5233 27.8936 20.8009 24.7055 23.9928 22.6885C24.6999 22.2416 26.0743 21.5759 26.9079 21.2765C28.9136 20.5562 31.4625 20.2611 33.6087 20.5008Z" fill="#FDEA6F"/>
<path fill-rule="evenodd" clip-rule="evenodd" d="M230.623 10.0436C230.413 10.1124 230.158 10.3667 230.101 10.5657C230.069 10.6746 230.059 11.6672 230.059 14.7525C230.059 18.4081 230.054 18.7985 230.006 18.8176C229.976 18.8292 229.866 18.8387 229.76 18.8387C229.278 18.8387 228.205 19.0081 227.436 19.2057C222.317 20.5204 218.228 25.102 217.233 30.6382C217.082 31.4779 217.036 31.9936 217.018 33.0762L217 34.1087H220.507H224.014L224.055 34.3357C224.167 34.9607 224.537 35.8437 224.956 36.4859C225.584 37.4472 226.402 38.1793 227.449 38.7173C228.034 39.0176 228.537 39.1964 229.195 39.3382C229.606 39.4268 229.692 39.4332 230.483 39.4345C231.397 39.4359 231.706 39.3966 232.402 39.1904C233.917 38.7414 235.236 37.7514 236.083 36.4283C236.473 35.819 236.838 34.9344 236.945 34.3357L236.986 34.1087H240.493H244L243.982 33.0762C243.953 31.3741 243.754 30.1457 243.263 28.6427C241.616 23.5937 237.365 19.7699 232.534 18.9915C232.226 18.9419 231.94 18.8948 231.898 18.8867L231.822 18.8721L231.822 14.8036C231.822 12.108 231.81 10.6915 231.787 10.6059C231.735 10.4169 231.557 10.1999 231.372 10.1016C231.167 9.99252 230.854 9.96823 230.623 10.0436ZM231.81 20.5895C234.318 20.917 236.593 22.0613 238.485 23.9475C240.372 25.8276 241.627 28.2224 242.124 30.8882C242.206 31.3246 242.297 32.0481 242.297 32.2596V32.4081H230.5H218.703V32.2596C218.703 32.0487 218.794 31.3255 218.875 30.8882C219.346 28.3574 220.508 26.059 222.246 24.2231C224.33 22.0205 226.91 20.7588 229.805 20.5256C230.153 20.4975 231.413 20.5377 231.81 20.5895ZM235.28 34.1546C235.28 34.1799 235.241 34.3166 235.194 34.4583C234.664 36.0546 233.29 37.2661 231.571 37.653C231.174 37.7423 230.265 37.7778 229.839 37.7207C228.219 37.5038 226.809 36.5253 226.081 35.1137C225.936 34.8322 225.72 34.2611 225.72 34.1579C225.72 34.1156 226.393 34.1087 230.5 34.1087C234.445 34.1087 235.28 34.1167 235.28 34.1546ZM221.11 35.0617C220.597 35.2041 220.144 35.3362 220.103 35.3551C219.956 35.4231 219.761 35.6396 219.686 35.8168C219.625 35.9624 219.614 36.0415 219.626 36.2246C219.644 36.4819 219.705 36.6243 219.868 36.7912C220.187 37.1175 220.4 37.1189 221.551 36.8027C222.026 36.672 222.462 36.5453 222.519 36.5212C222.672 36.457 222.866 36.2702 222.95 36.1075C223.048 35.9185 223.054 35.503 222.962 35.3233C222.808 35.0243 222.54 34.8384 222.231 34.8162C222.076 34.8051 221.876 34.8488 221.11 35.0617ZM238.421 35.0992C237.802 35.332 237.655 36.197 238.165 36.6107C238.326 36.7411 238.449 36.7818 239.578 37.0782C240.542 37.3312 240.636 37.3382 240.941 37.1799C241.48 36.9002 241.577 36.1489 241.127 35.7439C240.947 35.5826 240.903 35.567 239.85 35.2904C238.875 35.034 238.668 35.0064 238.421 35.0992ZM224.449 39.7979C224.393 39.8119 224.294 39.8511 224.229 39.8851C224.056 39.9752 222.726 41.348 222.639 41.5266C222.351 42.1148 222.752 42.8195 223.376 42.8195C223.75 42.8195 223.773 42.8036 224.597 41.9716C225.436 41.1243 225.516 41.0107 225.516 40.6678C225.516 40.1042 224.979 39.666 224.449 39.7979ZM235.043 40.0743C234.787 40.1675 234.558 40.4148 234.483 40.6792C234.415 40.9206 234.439 41.1214 234.563 41.3378C234.672 41.5294 236.046 42.8928 236.21 42.9724C236.466 43.0969 236.838 43.1051 237.046 42.9909C237.179 42.9181 237.387 42.7023 237.459 42.5616C237.562 42.3609 237.56 42.0256 237.455 41.8059C237.347 41.5802 235.958 40.2088 235.735 40.108C235.507 40.0048 235.266 39.993 235.043 40.0743ZM230.653 40.465C230.501 40.5229 230.299 40.6834 230.211 40.815C230.065 41.0348 230.055 41.1441 230.066 42.2816C230.077 43.4788 230.079 43.4874 230.319 43.7334C230.747 44.1713 231.431 44.0542 231.703 43.4962L231.805 43.288V42.2122C231.805 41.163 231.803 41.132 231.727 40.9632C231.632 40.7527 231.545 40.6539 231.353 40.5382C231.186 40.4372 230.824 40.3994 230.653 40.465Z" fill="url(#paint0_linear_203_5)"/>
<path d="M27.7979 27.3486V43H24.4355V31.1729L20.8047 32.2793V29.6797L27.4648 27.3486H27.7979ZM40.5544 40.3896V43H29.7478V40.7871L34.7966 35.4375C35.2693 34.8932 35.6452 34.4134 35.9245 33.998C36.211 33.5827 36.4187 33.2067 36.5476 32.8701C36.6765 32.5264 36.7409 32.2113 36.7409 31.9248C36.7409 31.4593 36.6657 31.0654 36.5154 30.7432C36.3721 30.4209 36.1609 30.1738 35.8816 30.002C35.6023 29.8301 35.2621 29.7441 34.8611 29.7441C34.4314 29.7441 34.0626 29.8551 33.7546 30.0771C33.4467 30.2992 33.2103 30.6071 33.0456 31.001C32.8809 31.3877 32.7986 31.8281 32.7986 32.3223H29.4255C29.4255 31.3698 29.6547 30.5033 30.113 29.7227C30.5713 28.9349 31.2123 28.3083 32.0359 27.8428C32.8594 27.3701 33.8226 27.1338 34.9255 27.1338C36.057 27.1338 37.0059 27.3128 37.7722 27.6709C38.5385 28.029 39.1185 28.541 39.5124 29.207C39.9063 29.873 40.1032 30.6751 40.1032 31.6133C40.1032 32.1432 40.0173 32.6553 39.8454 33.1494C39.6807 33.6436 39.4408 34.1341 39.1257 34.6211C38.8106 35.1081 38.431 35.6058 37.987 36.1143C37.543 36.6156 37.0417 37.1455 36.4831 37.7041L34.1198 40.3896H40.5544Z" fill="#FDEA6F"/>
<defs>
<linearGradient id="paint0_linear_203_5" x1="235.5" y1="27" x2="231.5" y2="13" gradientUnits="userSpaceOnUse">
<stop stop-color="#214D7E"/>
<stop offset="1" stop-color="#214D7E" stop-opacity="0"/>
</linearGradient>
</defs>
</svg>
