<svg width="22" height="23" viewBox="0 0 22 23" fill="none" xmlns="http://www.w3.org/2000/svg">
<path d="M21.401 8.09609C21.1173 7.75033 20.6939 7.54992 20.2468 7.54992H18.8125L18.7865 7.5126L13.5574 1.0669C13.4362 0.901451 13.2531 0.793156 13.0501 0.767063C12.8471 0.740969 12.6423 0.799421 12.4837 0.928593C12.325 1.05802 12.226 1.24669 12.2101 1.45101C12.1942 1.65534 12.2625 1.85705 12.3993 2.00945L16.8814 7.55358H4.55538L9.03749 2.00945H9.03775C9.17454 1.85706 9.24306 1.65534 9.2269 1.45101C9.21101 1.24669 9.11226 1.05802 8.95359 0.928593C8.79466 0.799423 8.59013 0.740969 8.38717 0.767063C8.1842 0.793156 8.00078 0.901451 7.87989 1.0669L2.65081 7.5126L2.62476 7.54992H1.47787C1.03338 7.55462 0.614182 7.75737 0.334112 8.10313C0.0537693 8.44889 -0.0580046 8.90136 0.0287575 9.33819L1.94869 19.0086L1.94843 19.0084C2.117 19.8575 2.57451 20.6218 3.24253 21.1708C3.91085 21.7199 4.74819 22.02 5.61268 22.02H16.1271C16.9913 22.02 17.829 21.7199 18.4973 21.1708C19.1653 20.6218 19.6226 19.8575 19.7911 19.0084L21.6923 9.33792C21.7853 8.90109 21.6782 8.4455 21.401 8.09579L21.401 8.09609ZM18.3308 18.7165C18.2297 19.2256 17.9556 19.6838 17.5552 20.0131C17.1547 20.3427 16.6527 20.523 16.1344 20.5233H5.59395C5.07442 20.5246 4.57079 20.345 4.16879 20.0155C3.76678 19.6859 3.49166 19.2268 3.39028 18.7165L1.47788 9.04603H20.243L18.3308 18.7165Z" fill="#141414"/>
<path d="M10.8606 17.5381C11.0586 17.5381 11.2488 17.4593 11.3887 17.3189C11.5289 17.1787 11.6076 16.9882 11.6076 16.7899V12.9628C11.6076 12.5498 11.2733 12.2147 10.8606 12.2147C10.4479 12.2147 10.1136 12.5498 10.1136 12.9628V16.7899C10.1136 16.9882 10.1923 17.1787 10.3325 17.3189C10.4724 17.4593 10.6626 17.5381 10.8606 17.5381H10.8606Z" fill="#141414"/>
<path d="M14.5957 17.5381C14.7937 17.5381 14.9839 17.4593 15.1238 17.3189C15.264 17.1787 15.3427 16.9882 15.3427 16.7899V12.9628C15.3427 12.5498 15.0084 12.2147 14.5957 12.2147C14.183 12.2147 13.8488 12.5498 13.8488 12.9628V16.7899C13.8488 16.9882 13.9274 17.1787 14.0676 17.3189C14.2075 17.4593 14.3977 17.5381 14.5957 17.5381H14.5957Z" fill="#141414"/>
<path d="M7.12543 17.5381C7.32344 17.5381 7.51364 17.4593 7.65355 17.3189C7.79372 17.1787 7.8724 16.9882 7.8724 16.7899V12.9628C7.8724 12.5498 7.53813 12.2147 7.12544 12.2147C6.71275 12.2147 6.37848 12.5498 6.37848 12.9628V16.7899C6.37848 16.9882 6.45716 17.1787 6.59733 17.3189C6.73725 17.4593 6.92744 17.5381 7.12545 17.5381H7.12543Z" fill="#141414"/>
</svg>
