<svg width="32" height="25" viewBox="0 0 32 25" fill="none" xmlns="http://www.w3.org/2000/svg">
<path fill-rule="evenodd" clip-rule="evenodd" d="M1.34169 0.0201093C1.18821 0.0653133 1.05365 0.145062 0.94443 0.255521C0.76612 0.43585 0.711988 0.56649 0.710963 0.818866C0.710212 1.00868 0.72541 1.07118 0.802697 1.19626C0.853619 1.27871 0.949451 1.39141 1.01567 1.44672C1.25119 1.64349 1.29835 1.64755 3.34337 1.64755H5.19584L5.23153 1.75317C5.25117 1.81128 5.39188 2.26825 5.54424 2.76872C5.69659 3.26918 5.90629 3.9565 6.01025 4.2961C6.11424 4.6357 6.22162 4.99398 6.2489 5.09229C6.27619 5.19059 6.34296 5.40995 6.39726 5.57975C6.45157 5.74955 6.58005 6.16633 6.68274 6.50593C6.95689 7.41238 7.28725 8.49904 7.5077 9.21947C7.61436 9.56801 7.72119 9.92629 7.74513 10.0157C7.76904 10.105 7.85793 10.3975 7.94263 10.6656C8.02733 10.9337 8.24526 11.643 8.42688 12.2417C8.60851 12.8405 8.7863 13.4182 8.82196 13.5254C8.85761 13.6326 8.91714 13.8301 8.95423 13.9641C8.99129 14.0982 9.092 14.4345 9.178 14.7116C9.32851 15.1964 9.58711 16.0414 9.89917 17.0676C10.3942 18.6956 10.5002 19.0206 10.5775 19.1462C10.6293 19.2302 10.7349 19.3293 10.843 19.3953L11.0226 19.5049L19.3907 19.5138C28.7112 19.5236 27.9115 19.5432 28.1766 19.2985C28.617 18.8917 28.5142 18.2324 27.971 17.9795L27.7917 17.896H19.8795C15.5277 17.8961 11.9596 17.8844 11.9503 17.87C11.9323 17.8422 11.2461 15.6059 11.2461 15.5749C11.2461 15.5648 14.8637 15.5565 19.2852 15.5565H27.3242L27.5074 15.4659C27.9086 15.2676 28.0846 14.7866 27.8951 14.4065C27.8379 14.2918 27.8372 14.2718 27.8863 14.1316C27.947 13.9586 28.7033 11.8333 29.6576 9.15448C30.0173 8.14462 30.3694 7.15019 30.44 6.94465C30.7612 6.00885 30.8558 5.77727 30.9254 5.75625C31.0348 5.72323 31.2581 5.5145 31.3379 5.37073C31.4499 5.16879 31.4428 4.83111 31.3224 4.63732C31.2067 4.45124 31.0738 4.33136 30.9009 4.2572C30.7703 4.20117 30.2619 4.19825 19.2703 4.19026L7.77617 4.18187L7.57778 3.54031C7.46866 3.18741 7.31286 2.67935 7.23151 2.41124C6.57633 0.251719 6.58729 0.277652 6.25724 0.10392L6.07203 0.00642782L3.74965 0.000643267C2.47235 -0.00250899 1.38876 0.00623284 1.34169 0.0201093ZM12.6275 5.91285C12.6367 5.95308 12.6756 6.23458 12.714 6.53843C12.7524 6.84228 12.7906 7.1434 12.7988 7.20762C12.8869 7.89845 13.0291 8.92267 13.0431 8.96762C13.0598 9.0213 12.9538 9.02449 11.1509 9.02449H9.24098L9.06123 8.43141C8.83398 7.6814 8.41308 6.30201 8.28785 5.8966C8.27125 5.84285 8.38969 5.83973 10.4406 5.83973H12.6109L12.6275 5.91285ZM17.8034 7.43211V9.02449H16.2836C15.0908 9.02449 14.7638 9.01575 14.7635 8.98387C14.763 8.9074 14.6625 8.13071 14.5083 7.00971C14.4235 6.3931 14.354 5.87762 14.354 5.86417C14.354 5.85072 15.1301 5.83973 16.0787 5.83973H17.8034V7.43211ZM22.7685 7.42399C22.6518 8.29534 22.5551 9.01204 22.5535 9.01669C22.5463 9.03811 19.5452 9.00535 19.5452 8.98387C19.5452 8.97045 19.5452 8.25755 19.5452 7.39961V5.83973H21.2629H22.9806L22.7685 7.42399ZM28.9858 5.91285C28.9724 5.95308 28.7198 6.66598 28.4245 7.49711L27.8875 9.00824L26.086 9.01666L24.2846 9.02507L24.3049 8.88667C24.3161 8.81056 24.3333 8.68245 24.3431 8.60202C24.353 8.52159 24.4378 7.88698 24.5316 7.19179C24.6255 6.4966 24.7023 5.90798 24.7023 5.88377C24.7023 5.84717 25.0667 5.83973 26.8562 5.83973H29.0101L28.9858 5.91285ZM17.8034 12.3079V13.9325L16.6166 13.9239L15.4298 13.9154L15.3863 13.6066C15.3063 13.0386 15.0029 10.7415 15.0029 10.7033C15.0029 10.6752 15.3581 10.6679 16.4032 10.6745L17.8034 10.6833V12.3079ZM22.2573 11.2831C22.2126 11.6048 22.1221 12.2848 22.0562 12.7942C21.9903 13.3036 21.9279 13.7681 21.9175 13.8264L21.8985 13.9325L20.7212 13.9239L19.5439 13.9154L19.536 12.299L19.5281 10.6826L20.9113 10.6741C21.6721 10.6694 22.3044 10.6729 22.3166 10.6819C22.3287 10.6908 22.302 10.9613 22.2573 11.2831ZM13.2769 10.7875C13.3034 10.9364 13.4456 11.9847 13.5668 12.9242C13.6234 13.3621 13.6783 13.7679 13.6889 13.826L13.7082 13.9316H12.221C11.4031 13.9316 10.7339 13.9251 10.7339 13.9171C10.7339 13.9033 10.4695 13.0333 10.062 11.7055C9.95777 11.3659 9.84452 10.9967 9.81037 10.885L9.74825 10.6819H11.5031H13.258L13.2769 10.7875ZM26.7202 12.2986L26.1461 13.9154L24.8948 13.9239C23.7191 13.9319 23.6435 13.9289 23.6436 13.8751C23.6436 13.8436 23.6977 13.4303 23.7638 12.9567C23.8299 12.483 23.8925 12.0224 23.9028 11.933C23.9131 11.8436 23.9511 11.5439 23.9874 11.2668C24.0236 10.9898 24.0533 10.7448 24.0533 10.7225C24.0534 10.6906 24.4002 10.6819 25.6738 10.6819H27.2942L26.7202 12.2986ZM13.6881 20.6577C13.2407 20.771 12.9584 20.9219 12.6497 21.213C11.4955 22.3012 11.7775 24.0706 13.2157 24.7641C13.563 24.9315 13.8618 24.9957 14.2857 24.9939C14.6178 24.9924 14.7218 24.9786 14.959 24.9042C15.2938 24.7992 15.6844 24.5602 15.9108 24.3219C16.7973 23.3887 16.7746 22.113 15.8559 21.2387C15.6434 21.0366 15.5344 20.9627 15.2731 20.8433C14.7278 20.5943 14.1881 20.5311 13.6881 20.6577ZM24.0644 20.6583C23.3574 20.8346 22.7967 21.3011 22.4876 21.9701C22.2951 22.3865 22.2642 23.015 22.4136 23.4696C22.6315 24.1325 23.2542 24.6951 24.0192 24.9202C24.4003 25.0323 24.9541 25.0257 25.3414 24.9042C25.6911 24.7945 26.0715 24.5564 26.3247 24.2887C26.579 24.0199 26.8337 23.5292 26.9086 23.1638C27.0473 22.4878 26.7978 21.7712 26.2382 21.2387C26.0258 21.0366 25.9168 20.9627 25.6555 20.8433C25.1088 20.5937 24.5732 20.5314 24.0644 20.6583Z" fill="#214D7E"/>
</svg>
