<svg width="17" height="20" viewBox="0 0 17 20" fill="none" xmlns="http://www.w3.org/2000/svg">
<path fill-rule="evenodd" clip-rule="evenodd" d="M7.91531 0.0251054C6.79577 0.134323 5.74447 0.483548 4.99751 0.994359C4.26897 1.49256 3.75853 2.12313 3.46372 2.88914C3.26927 3.39436 3.18182 3.85316 3.16181 4.4729L3.14921 4.86386L3.04813 4.90511C2.72955 5.03515 2.45079 5.29356 2.29214 5.60595C2.11886 5.94717 2.1154 5.97561 2.11514 7.05693C2.11485 8.12479 2.11628 8.13683 2.28193 8.48316C2.35538 8.6367 2.4083 8.70854 2.5612 8.8624C2.88721 9.19043 3.18228 9.30769 3.68179 9.30769H3.96029L3.96237 6.81737C3.96415 4.69463 3.96954 4.28758 3.99877 4.05963C4.15218 2.86398 4.78568 1.97759 5.8833 1.42272C6.69191 1.01397 7.73786 0.790587 8.6858 0.824237C9.47981 0.852405 10.2631 1.02596 10.917 1.31862C12.0678 1.83369 12.7471 2.66821 12.9758 3.84792C13.0255 4.10404 13.0255 4.10578 13.0323 6.70595L13.0392 9.30769H13.3256C13.6622 9.30769 13.8031 9.27723 14.0606 9.14876C14.4436 8.95769 14.7322 8.58925 14.8468 8.14512C14.9007 7.93618 14.9017 6.18172 14.8481 5.96498C14.7379 5.5195 14.4455 5.15346 14.0415 4.95525L13.8512 4.86188L13.8498 4.62468C13.8456 3.9177 13.6903 3.18312 13.4242 2.61183C13.1284 1.97672 12.615 1.3943 11.9749 0.967506C11.7241 0.800281 11.1934 0.535939 10.8705 0.417429C9.9729 0.0879708 8.82841 -0.0639668 7.91531 0.0251054ZM8.11834 1.87824C7.31642 1.96348 6.62398 2.1935 6.09771 2.54944C5.27233 3.10771 4.82157 3.92472 4.70726 5.06971C4.67193 5.42341 4.67213 6.82742 4.70754 7.23521C4.76059 7.84588 4.8945 8.65446 4.96935 8.81616C5.02174 8.92932 5.39433 9.29983 5.61771 9.46086C6.0194 9.75047 6.53605 9.99712 7.04741 10.1435L7.24738 10.2007L7.36321 10.1275L7.47901 10.0542H8.33725H9.19548L9.30263 10.1216C9.36157 10.1587 9.43969 10.2322 9.47622 10.2851C9.53716 10.3733 9.54263 10.3964 9.54263 10.5649C9.54263 10.7303 9.53608 10.7592 9.4769 10.8559C9.43117 10.9305 9.37448 10.9842 9.29064 11.0324L9.17013 11.1016H8.32651C7.4983 11.1016 7.48125 11.1007 7.39244 11.0524C7.34268 11.0253 7.26099 10.9559 7.21092 10.898C7.12509 10.7988 7.1055 10.7886 6.87064 10.7199C6.36728 10.5728 5.89051 10.3629 5.51529 10.1233C5.41037 10.0563 5.32454 10.0049 5.32454 10.0091C5.32454 10.0133 5.36931 10.1253 5.424 10.2581C5.6314 10.7616 5.94904 11.3122 6.2245 11.6459C6.29595 11.7324 6.35441 11.8088 6.35441 11.8157C6.35441 11.8226 5.6075 12.2066 4.69457 12.669C3.78164 13.1315 2.9657 13.5543 2.88134 13.6085C1.68005 14.3812 0.764274 15.5056 0.321999 16.7508C0.147841 17.2411 0.000306961 17.982 1.91062e-07 18.3677C-0.000197018 18.6462 0.152268 18.8585 0.474924 19.0287C0.66464 19.1287 0.772119 19.1637 1.14495 19.2464C2.37867 19.5202 4.4151 19.8043 5.93808 19.915C6.11283 19.9276 6.3199 19.9427 6.39824 19.9485C7.24609 20.0107 9.58392 20.0184 10.4082 19.9616C11.175 19.9088 11.431 19.888 11.9639 19.835C13.3295 19.6994 14.7692 19.4827 15.8137 19.2555C16.3755 19.1333 16.5953 19.0379 16.8085 18.8235C17.0223 18.6084 17.0438 18.4368 16.9383 17.7865C16.8431 17.1994 16.6936 16.7192 16.4459 16.2048C16.1258 15.5402 15.7747 15.0514 15.2268 14.5078C14.6335 13.9191 14.1346 13.5735 13.3006 13.1732C12.7983 12.9321 10.6937 11.8565 10.6612 11.8242C10.6481 11.8113 10.6695 11.7723 10.7185 11.72C10.9784 11.4421 11.3299 10.8511 11.5635 10.2994C11.882 9.54674 12.1312 8.60644 12.2365 7.7589C12.3534 6.81766 12.3595 5.43473 12.2496 4.75019C11.9998 3.19331 10.9718 2.22421 9.25778 1.92961C9.00362 1.88591 8.33124 1.8556 8.11834 1.87824ZM10.5422 12.8737C10.6756 12.9417 10.7807 13.0482 10.7807 13.1156C10.7807 13.1569 10.6984 13.2556 10.4546 13.5067C10.1137 13.8578 10.0795 13.9027 10.0795 13.9983C10.0795 14.0944 10.1307 14.1655 10.3792 14.414C10.6312 14.666 10.6783 14.7006 10.7697 14.7006C10.8641 14.7006 10.9079 14.666 11.2534 14.3191C11.6155 13.9555 11.6469 13.9386 11.7551 14.0486C11.7881 14.0822 11.8411 14.1599 11.8728 14.2213C11.9219 14.3164 11.9304 14.361 11.9305 14.5223C11.9305 14.7438 11.9108 14.7909 11.6776 15.1258C11.4951 15.3879 11.3395 15.5356 11.143 15.6329C10.9424 15.7323 10.7734 15.7637 10.3424 15.7815L9.98088 15.7965L9.70136 16.0785L9.42185 16.3604L8.93464 15.8649L8.4474 15.3694L8.72413 15.0852L9.00083 14.8009L9.02454 14.3621C9.05568 13.7856 9.11107 13.611 9.3479 13.3432C9.49414 13.1777 9.91262 12.8817 10.0793 12.8258C10.1759 12.7934 10.4378 12.8205 10.5422 12.8737ZM6.73089 13.6254C7.1855 14.0919 7.20533 14.1216 7.17728 14.2944L7.16378 14.3775L8.3037 15.536L9.44359 16.6945L9.61363 16.5246C9.80065 16.3377 9.84929 16.3051 9.94108 16.3052C10.0174 16.3053 10.1336 16.3751 10.1687 16.4419C10.2058 16.5123 10.2014 16.6441 10.1598 16.7087L10.1245 16.7634L10.8595 17.5092C11.3743 18.0316 11.6119 18.2884 11.6528 18.3665C11.7033 18.4631 11.7111 18.5045 11.7115 18.6784C11.712 18.9127 11.6676 19.0302 11.5231 19.1772C11.3786 19.3242 11.263 19.3693 11.0327 19.3689C10.8692 19.3686 10.8186 19.3596 10.7368 19.3164C10.6726 19.2825 10.3781 19.0007 9.89244 18.5086C9.18845 17.7952 9.14423 17.7547 9.1036 17.786C9.04665 17.8298 8.87497 17.8296 8.81333 17.7857C8.71381 17.7148 8.67156 17.5604 8.72336 17.4569C8.73675 17.4301 8.82291 17.3304 8.91481 17.2353L9.08189 17.0623L7.94432 15.9053L6.80677 14.7482L6.70453 14.7605C6.63419 14.769 6.57891 14.7616 6.52743 14.7367C6.48626 14.7169 6.26545 14.5101 6.03671 14.2772L5.62084 13.8539L5.94902 13.5195C6.12951 13.3357 6.28276 13.1852 6.2896 13.1852C6.29644 13.1852 6.49503 13.3833 6.73089 13.6254ZM8.26101 16.5545L8.74527 17.049L7.66487 18.1494C6.86582 18.9632 6.55596 19.2648 6.47493 19.3074C6.32702 19.3853 6.09973 19.4016 5.93543 19.3461C5.77103 19.2907 5.56617 19.0823 5.51163 18.9151C5.45974 18.7561 5.47339 18.5174 5.54239 18.3776C5.57682 18.3078 5.92244 17.9403 6.6795 17.1686C7.27771 16.5589 7.7693 16.06 7.77196 16.06C7.77459 16.06 7.99465 16.2825 8.26101 16.5545ZM6.01432 18.4293C5.91751 18.5278 5.89886 18.6322 5.95502 18.7613C6.00099 18.867 6.10102 18.9347 6.21126 18.9347C6.33082 18.9347 6.4537 18.8335 6.48705 18.7075C6.50567 18.6371 6.50215 18.605 6.4668 18.5238C6.41551 18.4058 6.33217 18.3553 6.18898 18.3553C6.1028 18.3553 6.07587 18.3667 6.01432 18.4293Z" fill="#214D7E"/>
</svg>
