<svg width="23" height="28" viewBox="0 0 23 28" fill="none" xmlns="http://www.w3.org/2000/svg">
<path fill-rule="evenodd" clip-rule="evenodd" d="M3.76935 0.0332659C2.38255 0.152574 1.04674 1.03395 0.410326 2.24952C-0.0393878 3.10864 0.000932153 1.95134 0.000932153 13.9938C0.000932153 24.3236 0.00426609 24.697 0.0992827 25.0205C0.50227 26.3929 1.6843 27.4865 3.19035 27.8805L3.59531 27.9864L11.305 27.9963C19.6459 28.007 19.4584 28.0122 20.2128 27.7502C21.2876 27.3771 22.1266 26.6518 22.6321 25.6589C23.0226 24.8918 22.9997 25.5387 22.9997 15.2597V6.0595L22.1532 5.37527C21.6877 4.99892 20.9786 4.42367 20.5774 4.09698C20.1763 3.77025 19.6841 3.36998 19.4835 3.20752C19.283 3.04502 18.8727 2.71192 18.5719 2.46723C18.2711 2.22258 17.9541 1.96584 17.8677 1.89676C17.6341 1.71019 16.8308 1.05729 16.8007 1.02955C16.7864 1.01634 16.4953 0.779543 16.1539 0.503325L15.5331 0.00111873L9.85073 1.86937e-05C6.72539 -0.000603203 3.98882 0.0143698 3.76935 0.0332659ZM14.8734 3.27502L14.8734 5.40684L15.0231 5.69387C15.2041 6.04089 15.3804 6.20014 15.7589 6.35839C16.2335 6.55682 16.5703 6.57811 19.2361 6.57849L21.7495 6.57888V15.5146C21.7495 25.477 21.7797 24.6768 21.3773 25.3871C20.9838 26.0817 20.1819 26.6251 19.3019 26.7936C18.9828 26.8547 17.8864 26.8625 11.3418 26.8501C4.61789 26.8374 3.72184 26.8272 3.49113 26.7606C2.49684 26.4738 1.8013 25.8923 1.42415 25.0322L1.25115 24.6378L1.23745 14.1475C1.2224 2.63313 1.20297 3.37859 1.53412 2.75076C1.73629 2.36758 1.95143 2.11476 2.32535 1.82103C2.79189 1.45459 3.32094 1.24037 3.90599 1.1811C4.07894 1.16359 6.6173 1.1479 9.54687 1.14622L14.8733 1.14326L14.8734 3.27502ZM3.763 11.2577L3.51389 11.2724L3.52858 11.8318L3.54322 12.3912L11.5003 12.4033L19.4575 12.4154V11.8412V11.267L19.1058 11.2639C17.7156 11.2517 3.96053 11.2461 3.763 11.2577ZM3.5427 14.3212C3.52868 14.3341 3.51717 14.5886 3.51717 14.8868V15.4289H11.489H19.4607L19.4461 14.8669L19.4314 14.3048L11.4998 14.3012C7.13749 14.2993 3.55676 14.3082 3.5427 14.3212ZM3.52853 17.9524L3.54322 18.5145H11.4873H19.4314L19.4461 17.9524L19.4607 17.3903H11.4873H3.51389L3.52853 17.9524Z" fill="#214D7E"/>
</svg>
