<svg width="23" height="29" viewBox="0 0 23 29" fill="none" xmlns="http://www.w3.org/2000/svg">
<path fill-rule="evenodd" clip-rule="evenodd" d="M1.59865 0.0046338C1.06927 0.0516073 0.578819 0.342327 0.285191 0.783187C0.142496 0.997435 0.0637488 1.1975 0.0162525 1.46648L0 1.55852V14.4985V27.4385L0.0161812 27.5299C0.0715936 27.8427 0.177281 28.0835 0.366162 28.3272C0.467859 28.4584 0.66224 28.6328 0.811056 28.7264C1.04281 28.8722 1.33213 28.9681 1.61385 28.9926C1.72791 29.0025 21.2728 29.0025 21.3862 28.9925C21.8056 28.9559 22.185 28.7829 22.4803 28.4936C22.76 28.2196 22.925 27.898 22.9871 27.5058C22.9995 27.4275 23 26.9352 23 14.4985C23 2.0484 22.9995 1.56969 22.9871 1.49126C22.9545 1.28593 22.9056 1.1322 22.8169 0.956664C22.7326 0.789715 22.6354 0.657646 22.4908 0.51378C22.2204 0.244698 21.9091 0.0877685 21.5037 0.0160904L21.4182 0.000973075L11.5392 7.38246e-05C6.10572 -0.000421825 1.63248 0.00163158 1.59865 0.0046338ZM21.3648 0.843543C21.6277 0.880546 21.8667 1.02819 22.0088 1.24139C22.1009 1.37948 22.1431 1.5048 22.156 1.67811C22.1612 1.74716 22.1627 5.73083 22.1611 14.5729C22.1588 26.7231 22.1581 27.3707 22.1463 27.4274C22.109 27.6061 22.0229 27.7657 21.8958 27.8919C21.8342 27.9531 21.734 28.0265 21.6646 28.0612C21.606 28.0906 21.4975 28.1277 21.4215 28.1444L21.347 28.1608H11.5H1.65304L1.57853 28.1444C1.30508 28.0843 1.09151 27.9321 0.955669 27.7005C0.890837 27.59 0.856714 27.4763 0.84411 27.3288C0.838795 27.2666 0.837248 23.4279 0.838902 14.4348C0.841146 2.24865 0.841866 1.62643 0.853786 1.56929C0.892091 1.38572 0.972099 1.23639 1.1006 1.10863C1.24426 0.965805 1.42929 0.873501 1.63166 0.843713C1.68484 0.835888 3.36867 0.834168 11.4929 0.833644C20.1278 0.833084 21.2988 0.83426 21.3648 0.843543ZM15.6065 1.5055C15.4008 1.52385 15.2453 1.56583 15.0697 1.65042C14.826 1.76783 14.6185 1.9541 14.4745 2.18482C14.3417 2.39767 14.2637 2.62596 14.2289 2.90365C14.215 3.01455 14.2152 3.24473 14.2292 3.36411C14.3068 4.02141 14.722 4.52093 15.3178 4.67367C15.4572 4.7094 15.5205 4.71643 15.7003 4.71615C15.8773 4.71588 15.9249 4.71046 16.0717 4.67397C16.2618 4.6267 16.4681 4.52345 16.6271 4.39596C16.7043 4.33404 16.8362 4.19557 16.8894 4.12048C17.049 3.89534 17.1443 3.64762 17.1871 3.3464C17.2064 3.21036 17.2047 2.91645 17.1838 2.78349C17.0823 2.13802 16.6861 1.68377 16.1027 1.54386C15.9593 1.50947 15.7464 1.49301 15.6065 1.5055ZM19.4659 1.50286C19.3545 1.51974 19.2431 1.58411 19.1819 1.66689C19.1683 1.68537 19.0147 1.95532 18.8405 2.26677C18.6664 2.57823 18.2306 3.3572 17.872 3.99783C17.5134 4.63846 16.932 5.6772 16.58 6.30614C16.2226 6.94466 15.9326 7.47052 15.9234 7.49688C15.8482 7.71137 15.9713 7.94867 16.1968 8.0239C16.2467 8.04053 16.2601 8.04203 16.3342 8.03936C16.3954 8.03715 16.4282 8.0323 16.4627 8.02031C16.523 7.99934 16.5969 7.9501 16.6386 7.90314C16.6608 7.87812 16.7532 7.72032 16.917 7.42756C17.0519 7.18659 17.3218 6.70426 17.5168 6.35571C17.7118 6.00716 18.1817 5.16756 18.5611 4.48994C19.8765 2.13986 19.9074 2.08425 19.9221 2.03647C19.9411 1.9746 19.9412 1.85844 19.9224 1.80281C19.8967 1.72683 19.8678 1.68016 19.8123 1.62506C19.7554 1.56861 19.6886 1.53015 19.6183 1.51349C19.5789 1.50416 19.4957 1.49835 19.4659 1.50286ZM2.63274 2.25286C2.48242 2.28506 2.35374 2.41039 2.31649 2.5609C2.30599 2.60335 2.30499 2.90142 2.30499 6.0031V9.39881L2.32155 9.45563C2.36217 9.595 2.46921 9.70056 2.61493 9.74496C2.65634 9.75758 2.93476 9.75799 11.5 9.75799C20.0652 9.75799 20.3437 9.75758 20.3851 9.74496C20.5219 9.70326 20.6243 9.60789 20.6722 9.47746L20.6915 9.4252L20.6935 9.13268C20.6953 8.88689 20.6938 8.83316 20.6846 8.79634C20.6338 8.59546 20.4515 8.4616 20.2467 8.47486C20.1403 8.48175 20.0536 8.52154 19.9745 8.59985C19.9012 8.67244 19.8635 8.75494 19.8554 8.86067L19.8507 8.92247H11.5H3.14932L3.14753 5.9999L3.14574 3.07734L8.20283 3.07723C12.6846 3.07714 13.2651 3.07591 13.3055 3.06645C13.422 3.03915 13.5337 2.94925 13.5835 2.84254C13.6426 2.71616 13.6424 2.59947 13.5832 2.47675C13.5309 2.36858 13.429 2.28627 13.3097 2.25595C13.2543 2.24188 13.2292 2.24181 7.96656 2.24237C3.4608 2.24285 2.67221 2.24441 2.63274 2.25286ZM15.883 2.35233C16.1247 2.40149 16.2792 2.56848 16.338 2.84405C16.3683 2.98616 16.3654 3.19021 16.3309 3.34184C16.2688 3.61494 16.0968 3.8044 15.8535 3.86761C15.7767 3.88756 15.6096 3.88606 15.5304 3.86472C15.3434 3.81433 15.2106 3.70023 15.133 3.52328C15.0279 3.28339 15.0373 2.93021 15.1551 2.69392C15.2504 2.5027 15.3862 2.3952 15.5871 2.35188C15.6516 2.33797 15.8136 2.33821 15.883 2.35233ZM20.0929 4.83064C19.9727 4.84777 19.9142 4.85826 19.8577 4.87287C19.5084 4.96307 19.2132 5.1739 19.0118 5.47698C18.8843 5.66897 18.7931 5.91281 18.7523 6.17161C18.7339 6.28807 18.7339 6.6149 18.7522 6.72955C18.8309 7.22013 19.074 7.6032 19.4554 7.83753C19.5687 7.90714 19.7241 7.97054 19.8596 8.00248C20.0721 8.05258 20.32 8.05519 20.535 8.00959C21.0461 7.90115 21.457 7.52408 21.6273 7.00713C21.7368 6.67475 21.7505 6.26145 21.6633 5.92099C21.5439 5.45508 21.2381 5.09604 20.8197 4.93056C20.6362 4.85799 20.4977 4.83233 20.2746 4.82957C20.1865 4.82848 20.1047 4.82896 20.0929 4.83064ZM20.429 5.68219C20.5334 5.70913 20.6043 5.74762 20.6763 5.8165C20.8209 5.9549 20.8947 6.20485 20.8733 6.48392C20.8556 6.71604 20.7917 6.88434 20.6742 7.0088C20.5889 7.09917 20.5128 7.14681 20.3979 7.18191C20.3407 7.1994 20.3249 7.20109 20.2176 7.20124C20.0918 7.20143 20.0529 7.19477 19.9651 7.15804C19.8408 7.10608 19.7331 7.00136 19.6663 6.86767C19.5279 6.59078 19.5527 6.18189 19.7233 5.9265C19.8049 5.80427 19.9357 5.71385 20.0787 5.68076C20.1527 5.66362 20.1626 5.66282 20.2711 5.66508C20.3442 5.66661 20.3864 5.67118 20.429 5.68219ZM3.12492 11.0862C3.0516 11.0957 2.94077 11.1266 2.87033 11.1573C2.59054 11.2792 2.39455 11.5162 2.32393 11.8181C2.30898 11.882 2.30893 11.8868 2.30675 13.3585C2.30433 14.9876 2.30249 14.9129 2.34859 15.0559C2.45407 15.3831 2.71722 15.6161 3.06776 15.6926C3.12553 15.7053 3.20182 15.7058 4.96623 15.7058C6.71608 15.7058 6.80727 15.7052 6.86152 15.6929C6.95181 15.6726 7.02694 15.6464 7.10378 15.6086C7.37647 15.4743 7.56654 15.2159 7.61309 14.9163C7.62291 14.8531 7.62291 11.9347 7.61309 11.8716C7.54885 11.4581 7.21001 11.133 6.79384 11.0856C6.719 11.077 3.19142 11.0777 3.12492 11.0862ZM9.71672 11.0861C9.40677 11.1265 9.12896 11.3253 8.99207 11.6048C8.9453 11.7002 8.92071 11.7823 8.90644 11.8905C8.89039 12.0121 8.89039 14.7757 8.90644 14.8974C8.9343 15.1087 9.02402 15.2868 9.17999 15.4405C9.30676 15.5655 9.46987 15.6515 9.65843 15.6926C9.71632 15.7053 9.79171 15.7058 11.557 15.7058C13.3223 15.7058 13.3977 15.7053 13.4556 15.6926C13.6487 15.6505 13.8078 15.5655 13.9406 15.4335C14.0776 15.2973 14.1649 15.1331 14.2023 14.9411C14.2138 14.8818 14.2147 14.7749 14.2147 13.3939C14.2147 12.013 14.2138 11.9061 14.2023 11.8468C14.1515 11.5862 14.008 11.3735 13.7853 11.229C13.6928 11.169 13.5975 11.1292 13.4701 11.0976L13.4095 11.0826L11.5855 11.0814C10.5823 11.0807 9.74133 11.0828 9.71672 11.0861ZM16.312 11.0858C16.0911 11.1117 15.8623 11.2348 15.7154 11.4068C15.6044 11.5367 15.5322 11.6887 15.5049 11.8498C15.4949 11.9093 15.4936 12.078 15.4936 13.3939C15.4936 15.0182 15.4914 14.9301 15.5367 15.0661C15.6436 15.3874 15.9024 15.6141 16.2525 15.6929C16.3067 15.7052 16.3979 15.7058 18.1478 15.7058C19.9122 15.7058 19.9885 15.7053 20.0462 15.6926C20.3462 15.6272 20.5807 15.4492 20.7119 15.1875C20.7482 15.1152 20.7735 15.0429 20.7922 14.9585C20.8049 14.9012 20.8055 14.8342 20.8055 13.3939C20.8055 11.9537 20.8049 11.8867 20.7922 11.8294C20.7527 11.6505 20.6741 11.5013 20.5517 11.3729C20.4182 11.2327 20.2658 11.1483 20.0502 11.095C20.0035 11.0835 19.8827 11.0827 18.1798 11.0815C17.1786 11.0808 16.338 11.0828 16.312 11.0858ZM6.72679 11.9285C6.78447 11.9563 6.77958 11.8206 6.77958 13.3939C6.77958 14.9673 6.78447 14.8316 6.72679 14.8593C6.69675 14.8738 6.69464 14.8738 4.96375 14.8738C3.07994 14.8738 3.20132 14.8764 3.16833 14.8348L3.15288 14.8152V13.3939V11.9726L3.16831 11.9531C3.20081 11.9121 3.08157 11.9146 4.9622 11.9143C6.69493 11.9141 6.69674 11.9141 6.72679 11.9285ZM13.3182 11.9278C13.3752 11.9535 13.3704 11.8168 13.3704 13.3939C13.3704 14.9632 13.3748 14.8321 13.3206 14.8596C13.2927 14.8737 13.2813 14.8738 11.557 14.8738C9.83269 14.8738 9.82128 14.8737 9.79339 14.8596C9.7392 14.8321 9.74365 14.9632 9.74365 13.3939C9.74365 11.8284 9.73945 11.9562 9.79187 11.9286C9.81811 11.9149 9.84106 11.9147 11.5534 11.9145C13.2428 11.9144 13.2892 11.9147 13.3182 11.9278ZM19.9107 11.9265C19.9242 11.9333 19.9418 11.9478 19.9499 11.9588L19.9647 11.9788V13.3939V14.809L19.9499 14.829C19.9418 14.84 19.9242 14.8546 19.9107 14.8614C19.8877 14.8731 19.789 14.8738 18.1518 14.8738C16.4381 14.8738 16.4169 14.8736 16.3882 14.8598C16.3722 14.8521 16.3535 14.8365 16.3467 14.8251C16.3352 14.8056 16.3344 14.7177 16.3344 13.3939C16.3344 12.0736 16.3352 11.9822 16.3467 11.9629C16.3534 11.9516 16.3718 11.936 16.3876 11.9282C16.4161 11.9142 16.4318 11.9141 18.1513 11.9141C19.789 11.9141 19.8877 11.9148 19.9107 11.9265ZM3.09944 16.7478C2.92976 16.7689 2.79871 16.8158 2.66882 16.9019C2.45951 17.0407 2.32423 17.2383 2.26816 17.4872L2.25155 17.5609V19.0585C2.25155 20.4564 2.25238 20.56 2.264 20.6151C2.34443 20.9969 2.62427 21.2745 3.01281 21.3579C3.06748 21.3696 3.18043 21.3704 4.90923 21.3704C6.67365 21.3704 6.74994 21.3698 6.80771 21.3572C7.00186 21.3148 7.15938 21.2307 7.29287 21.098C7.42694 20.9648 7.51442 20.8008 7.55366 20.609C7.565 20.5536 7.56616 20.4395 7.56865 19.1364C7.57146 17.6634 7.57006 17.5769 7.54153 17.4582C7.46713 17.1486 7.2323 16.8956 6.92413 16.793C6.77335 16.7428 6.948 16.7469 4.93417 16.746C3.93683 16.7455 3.1112 16.7463 3.09944 16.7478ZM9.76146 16.7691C9.39597 16.8147 9.08493 17.0647 8.97395 17.4022C8.92432 17.5531 8.92782 17.4261 8.92782 19.0762C8.92782 20.2585 8.9297 20.5733 8.937 20.6127C8.98074 20.8491 9.10313 21.054 9.28314 21.1924C9.41011 21.29 9.53041 21.3446 9.69377 21.3789C9.75112 21.3909 9.85143 21.3916 11.5855 21.3916C13.3187 21.3916 13.4199 21.3909 13.4772 21.3789C13.8265 21.3057 14.0969 21.0682 14.1999 20.744C14.2451 20.6018 14.2421 20.7104 14.245 19.1435C14.2468 18.1452 14.2452 17.6891 14.2397 17.6247C14.2203 17.3963 14.129 17.1991 13.9691 17.0402C13.828 16.8999 13.6567 16.812 13.4592 16.7785C13.3775 16.7646 13.3443 16.7644 11.5795 16.7654C10.5913 16.766 9.77322 16.7677 9.76146 16.7691ZM16.4191 16.7719C16.2071 16.8031 16.025 16.8941 15.8748 17.0438C15.7145 17.2037 15.6266 17.393 15.6077 17.619C15.5982 17.7332 15.5982 26.0908 15.6077 26.205C15.633 26.5079 15.7983 26.771 16.062 26.9281C16.1626 26.988 16.3108 27.0385 16.4269 27.0525C16.5109 27.0626 20.0136 27.0625 20.0967 27.0524C20.2164 27.0378 20.3643 26.9875 20.4628 26.9278C20.7246 26.7693 20.8874 26.5126 20.9156 26.2136C20.9259 26.105 20.9259 17.719 20.9156 17.6105C20.8771 17.2035 20.5891 16.8809 20.1782 16.7845L20.1072 16.7679L18.2831 16.7669C17.2799 16.7664 16.4411 16.7686 16.4191 16.7719ZM6.66883 17.5927C6.68485 17.6004 6.7035 17.616 6.71027 17.6274C6.72183 17.6468 6.72258 17.7347 6.72258 19.0582C6.72258 20.6278 6.72704 20.4967 6.67284 20.5241C6.64496 20.5383 6.63354 20.5384 4.90929 20.5384C3.02271 20.5384 3.14432 20.541 3.11133 20.4993L3.09588 20.4798V19.0591C3.09588 17.4685 3.09051 17.6184 3.14848 17.5922C3.17688 17.5794 3.23338 17.5789 4.90876 17.5788C6.61912 17.5786 6.64005 17.5788 6.66883 17.5927ZM13.3582 17.6169C13.4018 17.6462 13.3989 17.5396 13.3989 19.0798C13.3989 20.649 13.4033 20.5179 13.3491 20.5454C13.3212 20.5595 13.3098 20.5596 11.5851 20.5596C9.97824 20.5596 9.84726 20.5587 9.82404 20.5478C9.81026 20.5413 9.79293 20.5262 9.78555 20.5142C9.77253 20.493 9.77219 20.452 9.77393 19.0701L9.77571 17.6479L9.79996 17.6278C9.8133 17.6167 9.83093 17.6063 9.83915 17.6047C9.84736 17.6031 10.638 17.6021 11.5962 17.6026C13.2947 17.6034 13.3388 17.6038 13.3582 17.6169ZM20.0345 17.6169C20.0455 17.6243 20.0591 17.6392 20.0648 17.6501C20.0738 17.6674 20.0751 18.2218 20.0751 21.9135C20.0751 26.0527 20.0747 26.1575 20.0617 26.1787C20.0543 26.1907 20.037 26.2059 20.0232 26.2124C20 26.2233 19.869 26.2242 18.2618 26.2242C16.6545 26.2242 16.5235 26.2233 16.5003 26.2124C16.4865 26.2059 16.4692 26.1907 16.4619 26.1787C16.4488 26.1575 16.4485 26.0527 16.4484 21.9135C16.4484 18.2218 16.4498 17.6674 16.4587 17.6501C16.4696 17.6293 16.493 17.611 16.5164 17.605C16.5241 17.6031 17.3143 17.6019 18.2725 17.6024C19.9709 17.6034 20.0151 17.6038 20.0345 17.6169ZM3.02463 22.4149C2.66244 22.4578 2.35392 22.7084 2.23857 23.0532C2.22858 23.0831 2.21458 23.1373 2.20747 23.1736C2.19524 23.2361 2.19455 23.3193 2.19455 24.7266C2.19455 26.1263 2.1953 26.2172 2.20727 26.2757C2.24486 26.4591 2.32483 26.6146 2.44817 26.7441C2.57539 26.8776 2.71942 26.9613 2.91058 27.0128L2.99257 27.0349H4.84867H6.70477L6.77142 27.0188C6.9582 26.9737 7.10546 26.8924 7.23563 26.7626C7.34686 26.6517 7.4181 26.5381 7.4622 26.4012C7.48933 26.317 7.49702 26.2809 7.50619 26.1944C7.51664 26.0958 7.51614 23.357 7.50565 23.2533C7.46398 22.8412 7.17641 22.5227 6.75995 22.4275L6.69052 22.4116L4.88073 22.4105C3.88535 22.4099 3.0501 22.4119 3.02463 22.4149ZM9.66678 22.4405C9.58948 22.4523 9.47711 22.4875 9.39938 22.5241C9.17535 22.6298 8.99162 22.8392 8.91455 23.0768C8.86781 23.2209 8.87082 23.1065 8.87082 24.7408C8.87082 26.1595 8.87137 26.2236 8.88422 26.2915C8.91473 26.4527 8.96798 26.5699 9.07081 26.7021C9.21967 26.8936 9.45534 27.0251 9.69829 27.0525C9.7488 27.0581 10.277 27.0597 11.5748 27.058C13.2694 27.0559 13.3842 27.0549 13.4327 27.0433C13.634 26.9947 13.7774 26.917 13.9122 26.7836C14.0706 26.6266 14.1575 26.4461 14.1822 26.2227C14.1926 26.1283 14.1927 23.3729 14.1823 23.2705C14.1597 23.0477 14.0715 22.863 13.9122 22.7049C13.7679 22.5617 13.5841 22.4699 13.381 22.4396C13.2765 22.424 9.7688 22.4248 9.66678 22.4405ZM6.62008 23.2601C6.66962 23.2899 6.66558 23.1599 6.66555 24.7242C6.66553 26.1274 6.66545 26.1358 6.65115 26.1591C6.62217 26.2064 6.76229 26.2029 4.85223 26.2029C2.98654 26.2029 3.09007 26.205 3.05669 26.1678C3.04256 26.152 3.04243 26.1406 3.04061 24.7327C3.03856 23.1441 3.03382 23.2828 3.09101 23.2569C3.12009 23.2438 3.16341 23.2435 4.85936 23.2451C6.54854 23.2467 6.59852 23.2471 6.62008 23.2601ZM13.3012 23.2814C13.3448 23.3108 13.3419 23.204 13.3418 24.7457C13.3418 26.1139 13.3414 26.1576 13.3284 26.1787C13.3211 26.1907 13.3037 26.2059 13.29 26.2124C13.2667 26.2233 13.1357 26.2242 11.5285 26.2242C9.92127 26.2242 9.79025 26.2233 9.76704 26.2124C9.75325 26.2059 9.73595 26.1907 9.72859 26.1787C9.71561 26.1576 9.7152 26.1139 9.71518 24.7457C9.71515 23.1671 9.71028 23.304 9.76728 23.2782C9.79636 23.265 9.83975 23.2647 11.5392 23.2663C13.237 23.268 13.2818 23.2683 13.3012 23.2814Z" fill="#214D7E"/>
</svg>
