<svg width="30" height="30" viewBox="0 0 30 30" fill="none" xmlns="http://www.w3.org/2000/svg">
<path fill-rule="evenodd" clip-rule="evenodd" d="M1.37219 0.0242744C0.704146 0.145307 0.153143 0.698566 0.0268052 1.37516C-0.000303504 1.52038 -0.00266654 2.59551 0.00177597 12.8426L0.00665328 24.1498L0.0501142 24.2444C0.136053 24.4313 0.303583 24.5592 0.507617 24.5936C0.595768 24.6085 2.85077 24.6128 8.48523 24.609L16.34 24.6036L16.4476 24.5531C16.6885 24.4402 16.8137 24.2322 16.7987 23.9702C16.7855 23.7421 16.6686 23.5645 16.4659 23.465L16.3589 23.4124L8.77352 23.4076L1.18817 23.4027V14.4024V5.40218H13.1922H25.1962L25.2012 10.8718L25.2061 16.3415L25.2683 16.4679C25.3827 16.7004 25.579 16.8143 25.8401 16.7997C26.0976 16.7853 26.2962 16.6314 26.3694 16.3895C26.4068 16.266 26.407 16.21 26.4021 8.8435L26.397 1.42196L26.3544 1.2707C26.1822 0.659804 25.7508 0.22442 25.1403 0.0455085L24.9981 0.00383441L13.2586 0.000752349C3.24131 -0.00187592 1.49746 0.00156541 1.37219 0.0242744ZM24.9223 1.23853C25.0463 1.29569 25.0977 1.34529 25.1517 1.45978L25.1962 1.55432L25.1964 2.87318L25.1966 4.19204H13.1915H1.18628L1.19218 2.87318C1.19753 1.67883 1.20112 1.54784 1.23023 1.4857C1.30441 1.3274 1.43204 1.22794 1.59095 1.20463C1.64496 1.19671 6.89538 1.1913 13.2586 1.19264L24.828 1.19506L24.9223 1.23853ZM4.19395 9.59984V10.2049H5.39438H6.5948V9.59984V8.99477H5.39438H4.19395V9.59984ZM8.39929 9.01857C8.39426 9.0317 8.39239 9.30186 8.39515 9.61893L8.40016 10.1954H15.3002H22.2003V9.59984V9.00422L15.3044 8.99948C9.76751 8.99566 8.40664 8.99942 8.39929 9.01857ZM4.19395 12.5968V13.1924H5.39438H6.5948V12.5968V12.0012H5.39438H4.19395V12.5968ZM8.39071 12.5968V13.1924H15.3002H22.2097V12.5968V12.0012H15.3002H8.39071V12.5968ZM4.19395 15.6032V16.1989H5.39438H6.5948V15.6032V15.0076H5.39438H4.19395V15.6032ZM8.39071 15.6032V16.1989H15.3002H22.2097V15.6032V15.0076H15.3002H8.39071V15.6032ZM4.20656 18.0078C4.19963 18.0147 4.19395 18.287 4.19395 18.6128V19.2053H5.39438H6.5948V18.6002V17.9952H5.40699C4.75367 17.9952 4.21348 18.0008 4.20656 18.0078ZM8.39929 18.019C8.39426 18.0321 8.39239 18.3022 8.39515 18.6193L8.40016 19.1958L13.1971 19.2006L17.9941 19.2054V18.6003V17.9952H13.2013C9.36346 17.9952 8.40661 17.9999 8.39929 18.019ZM23.7315 18.0079C22.5718 18.0651 21.4635 18.4484 20.5273 19.1162C20.0022 19.4906 19.4905 20.0025 19.115 20.5289C18.0872 21.9694 17.7537 23.7646 18.1925 25.4944C18.4018 26.3197 18.7807 27.0755 19.3335 27.7708C19.534 28.0229 20.0422 28.524 20.3004 28.7241C21.2455 29.4566 22.2973 29.8728 23.4862 29.9846C23.8209 30.0161 24.5262 29.9971 24.8475 29.948C25.8823 29.7899 26.7859 29.4131 27.6038 28.7987C28.7533 27.9352 29.5624 26.6779 29.8653 25.2843C29.9824 24.746 30.0298 24.0088 29.9809 23.4885C29.8691 22.2992 29.4528 21.2466 28.7207 20.302C28.5191 20.0419 28.0174 19.5326 27.7676 19.3345C26.7574 18.5332 25.6274 18.0959 24.3554 18.0142C24.0832 17.9967 23.9803 17.9956 23.7315 18.0079ZM24.6957 19.252C25.2171 19.3352 25.6465 19.4685 26.0993 19.6874C26.9107 20.0798 27.5947 20.6936 28.0801 21.4648C28.2137 21.6773 28.4224 22.1043 28.5142 22.3535C28.6102 22.614 28.7034 22.988 28.753 23.3111C28.8077 23.6671 28.8121 24.2982 28.7624 24.6414C28.6166 25.6489 28.2073 26.5235 27.5423 27.2486C26.7767 28.0835 25.7899 28.5991 24.6389 28.7658C24.2957 28.8155 23.6648 28.8111 23.3089 28.7564C22.781 28.6754 22.3657 28.5467 21.8978 28.3191C20.9267 27.8469 20.1559 27.0742 19.686 26.1021C19.4643 25.6436 19.3339 25.2201 19.2475 24.6793C19.2005 24.385 19.2005 23.6325 19.2475 23.3273C19.3753 22.4968 19.6775 21.7711 20.1727 21.1056C20.3644 20.848 20.8324 20.3769 21.0824 20.19C21.8164 19.6414 22.6133 19.3253 23.5141 19.2256C23.748 19.1997 24.4692 19.2158 24.6957 19.252ZM23.4007 22.0506V23.7052L22.3373 24.502C21.7525 24.9402 21.2668 25.3052 21.2581 25.3131C21.2381 25.3312 21.9402 26.2683 21.9716 26.2655C21.9843 26.2644 22.5833 25.822 23.3027 25.2823L24.6108 24.3011L24.6059 22.3535L24.6011 20.406L24.0009 20.401L23.4007 20.396V22.0506Z" fill="#214D7E"/>
</svg>
