<svg width="30" height="30" viewBox="0 0 30 30" fill="none" xmlns="http://www.w3.org/2000/svg">
<path fill-rule="evenodd" clip-rule="evenodd" d="M3.42293 3.42098L0 6.84193V18.421V30H10.9199H21.8397V27.9251V25.8503L22.0811 25.8123C22.4548 25.7535 23.1312 25.579 23.5704 25.428C26.7412 24.3377 29.1602 21.5869 29.8193 18.3219C29.9672 17.5891 30 17.2392 30 16.3929C30 15.5462 29.9672 15.1967 29.8191 14.4628C29.1338 11.0682 26.5533 8.24639 23.2181 7.24457C22.8333 7.12898 22.2539 6.99444 22.0006 6.96181L21.8397 6.94108V3.47054V0H14.3428H6.84589L3.42293 3.42098ZM20.4614 4.10204V6.82653H20.1848C20.0327 6.82653 19.7053 6.84765 19.4573 6.87349C15.6754 7.26725 12.4994 9.83627 11.3218 13.4541C10.7884 15.093 10.7193 16.9911 11.1325 18.6582C11.3262 19.4401 11.5524 20.0417 11.9272 20.7723C13.2514 23.3538 15.6787 25.1924 18.5316 25.7748C19.0462 25.8799 19.7509 25.9592 20.1695 25.9592H20.4614V27.2908V28.6224H10.9199H1.37839V18.398V8.17347H4.7784H8.17842V4.77551V1.37755H14.3199H20.4614V4.10204ZM6.81657 6.78827C6.80506 6.81842 6.28807 6.82653 4.37359 6.82653H1.94521L4.38026 4.3928L6.81535 1.95903L6.82325 4.35453C6.82763 5.67202 6.8246 6.76723 6.81657 6.78827ZM9.5568 4.77551V5.44898H12.2829H15.0091V4.77551V4.10204H12.2829H9.5568V4.77551ZM9.5568 7.5V8.17347H12.2829H15.0091V7.5V6.82653H12.2829H9.5568V7.5ZM21.1352 8.26577C22.2109 8.35907 23.0995 8.60703 24.0911 9.09058C26.5898 10.3091 28.3137 12.7809 28.6107 15.5712C28.6598 16.0322 28.6337 17.2049 28.5646 17.648C28.295 19.3741 27.5068 20.9334 26.2812 22.1652C25.8042 22.6446 25.5406 22.8638 25.0174 23.216C24.1726 23.7847 23.2384 24.1854 22.2333 24.41C21.1542 24.6512 19.9068 24.6577 18.7893 24.4281C15.8536 23.8247 13.4333 21.5815 12.6014 18.6931C12.2254 17.3877 12.1843 15.951 12.4844 14.608C13.0353 12.1435 14.7528 10.0318 17.0601 8.98249C18.3495 8.39605 19.7657 8.14696 21.1352 8.26577ZM19.7803 10.3649L19.7722 11.1175L19.4464 11.2012C18.5615 11.4286 17.8158 12.0035 17.4751 12.7209C17.1935 13.3139 17.1511 14.0897 17.3659 14.7172C17.4784 15.0458 17.6123 15.2673 17.8577 15.531C18.3877 16.1004 19.0326 16.4209 20.3594 16.7745C22.2552 17.2797 22.8816 17.8589 22.8105 19.0407C22.7764 19.6078 22.6233 19.9717 22.2688 20.3282C21.8826 20.7165 21.3803 20.9154 20.6778 20.958C19.2157 21.0468 18.2515 20.3319 18.1436 19.0791L18.1244 18.8571H17.4857H16.8469V19.1383C16.8469 19.4666 16.9061 19.7342 17.0466 20.0411C17.1822 20.3375 17.305 20.5113 17.58 20.7967C18.1623 21.4011 18.7469 21.7134 19.7032 21.931L19.7875 21.9501V22.5924V23.2347H20.4767H21.1659V22.5918C21.1659 22.2383 21.1712 21.949 21.1778 21.949C21.2708 21.949 21.7521 21.8323 21.9566 21.7603C22.5072 21.5662 22.8954 21.3189 23.286 20.9134C23.8447 20.3334 24.1064 19.6769 24.1064 18.8558C24.1064 17.3683 23.0999 16.3829 21.0127 15.8273C19.8279 15.5119 19.3544 15.3145 19.0036 14.9899C18.652 14.6646 18.5181 14.3406 18.5208 13.8214C18.5251 12.9947 18.9427 12.4477 19.7722 12.1823C19.9471 12.1264 20.0797 12.1112 20.492 12.0996C20.9322 12.0873 21.0324 12.0939 21.2692 12.1502C22.0803 12.3433 22.4886 12.8416 22.6828 13.875L22.6986 13.9592H23.3241C23.6867 13.9592 23.9572 13.9469 23.9677 13.9301C23.9951 13.8856 23.9037 13.3281 23.8293 13.0867C23.6694 12.5678 23.3076 12.0433 22.8921 11.7279C22.4919 11.4242 21.8465 11.164 21.3205 11.0942L21.1659 11.0737V10.343V9.61224H20.4772H19.7886L19.7803 10.3649ZM2.73322 12.9566L2.74145 13.6378H6.14147H9.54149L9.54973 12.9566L9.55797 12.2755H6.14147H2.72498L2.73322 12.9566ZM2.73322 15.6811L2.74145 16.3622H6.14147H9.54149L9.54973 15.6811L9.55797 15H6.14147H2.72498L2.73322 15.6811ZM2.72614 21.1378V21.8265H6.14147H9.5568V21.1378V20.449H6.14147H2.72614V21.1378ZM2.72614 23.8622V24.551H6.14147H9.5568V23.8622V23.1735H6.14147H2.72614V23.8622Z" fill="#214D7E"/>
</svg>
