<svg width="21" height="23" viewBox="0 0 21 23" fill="none" xmlns="http://www.w3.org/2000/svg">
<path fill-rule="evenodd" clip-rule="evenodd" d="M10.2444 0.0606051C10.0897 0.134181 9.98897 0.234799 9.92321 0.381528C9.87789 0.482675 9.87541 0.821184 9.86886 7.86294L9.86201 15.2384L7.88054 13.2491C5.74264 11.1027 5.84022 11.189 5.55674 11.1923C5.32586 11.195 5.11781 11.3229 5.00992 11.5286C4.93004 11.6808 4.9297 11.9657 5.00921 12.1145C5.04273 12.1772 6.10599 13.2646 7.61563 14.78C9.71959 16.892 10.1838 17.3455 10.2708 17.3739C10.4118 17.42 10.6159 17.4137 10.7448 17.3592C10.8228 17.3263 11.505 16.6571 13.3734 14.7808C14.8207 13.3276 15.9269 12.1961 15.9675 12.1278C16.0614 11.9694 16.0668 11.6953 15.9793 11.5286C15.8714 11.3229 15.6634 11.195 15.4325 11.1923C15.149 11.189 15.2466 11.1027 13.1087 13.2491L11.1272 15.2384L11.1204 7.86294C11.1138 0.821184 11.1113 0.482675 11.066 0.381528C11.0002 0.234799 10.8995 0.134181 10.7448 0.0606051C10.5748 -0.0202017 10.4144 -0.0202017 10.2444 0.0606051ZM14.2079 3.71457V4.33735L15.9263 4.34731L17.6446 4.35724L17.8951 4.42549C18.3522 4.55003 18.6765 4.73288 19.0104 5.05436C19.3376 5.3694 19.574 5.77407 19.692 6.22154L19.7515 6.44667V13.068V19.6893L19.6933 19.9029C19.4541 20.7811 18.7978 21.4417 17.9228 21.6851L17.671 21.7552H10.4946H3.31824L3.06622 21.6851C2.14498 21.4289 1.45919 20.7039 1.27355 19.7901C1.22567 19.5543 1.22422 19.3208 1.23102 12.9698C1.23778 6.66128 1.24008 6.38671 1.28685 6.22154C1.35437 5.98304 1.54333 5.58619 1.68317 5.38911C1.93583 5.03301 2.38569 4.68391 2.80471 4.51877C3.17877 4.37136 3.23566 4.36757 5.0816 4.36757H6.78133V3.74516V3.12276H5.04784C3.1138 3.12276 3.06032 3.12657 2.52884 3.30238C1.27989 3.71555 0.346177 4.75778 0.0559625 6.06263L0 6.31424V13.0548V19.7953L0.0616509 20.0734C0.220769 20.791 0.539636 21.3718 1.06579 21.9025C1.61422 22.4556 2.20637 22.7806 2.95624 22.9399L3.23924 23H10.4946H17.75L18.0382 22.938C18.7846 22.7774 19.3744 22.4554 19.911 21.9157C20.357 21.4672 20.6251 21.0333 20.8182 20.4474C21.0172 19.8437 21.0049 20.3621 20.9958 12.9356C20.9881 6.65389 20.985 6.27682 20.9404 6.08912C20.7326 5.21386 20.3053 4.50106 19.6737 3.97561C19.1598 3.54817 18.6302 3.3 17.9301 3.15862C17.7589 3.12406 17.4235 3.11479 15.9658 3.10435L14.2079 3.09177V3.71457Z" fill="#214D7E"/>
</svg>
