<svg width="20" height="20" viewBox="0 0 20 20" fill="none" xmlns="http://www.w3.org/2000/svg">
<path d="M8.78218 0.432037C4.36718 0.432037 0.771484 4.10532 0.771484 8.61557C0.771484 13.1258 4.36718 16.7991 8.78218 16.7991C10.7115 16.7991 12.4849 16.101 13.8699 14.9347H13.878L18.5698 19.7358C18.8725 20.045 19.3653 20.045 19.668 19.7358C19.9706 19.4266 19.9706 18.9314 19.668 18.622L14.96 13.821C14.9613 13.8184 14.9588 13.8144 14.96 13.8129C16.1016 12.3982 16.7931 10.5865 16.7931 8.61539C16.7931 4.10513 13.1974 0.431854 8.78244 0.431854L8.78218 0.432037ZM8.78218 2.01594C12.3593 2.01594 15.2423 4.96129 15.2423 8.61547C15.2423 12.2697 12.359 15.215 8.78218 15.215C5.20503 15.215 2.32203 12.2695 2.32203 8.61547C2.32203 4.96115 5.20531 2.01594 8.78218 2.01594Z" fill="#999997"/>
</svg>
