<svg width="20" height="20" viewBox="0 0 20 20" fill="none" xmlns="http://www.w3.org/2000/svg">
<path fill-rule="evenodd" clip-rule="evenodd" d="M9.29631 0.00462871C6.5115 0.22474 4.05624 1.48736 2.28814 3.60855C1.05172 5.09191 0.296752 6.86017 0.0451981 8.8618C-0.00919673 9.29465 -0.0162373 10.6152 0.0335975 11.0346C0.158523 12.0859 0.404816 13.0294 0.788812 13.9279C2.16387 17.1452 5.12915 19.4112 8.60238 19.8987C8.79112 19.9252 9.06956 19.9537 9.22114 19.962C9.37273 19.9703 9.52211 19.9822 9.55312 19.9885L9.6095 20V16.5141V13.0281H8.44443H7.27936V11.674V10.32H8.44443H9.6095L9.60952 9.22294C9.60955 7.83229 9.64543 7.44259 9.82377 6.89557C10.1529 5.88602 10.9086 5.15951 11.934 4.86693C12.5579 4.68895 13.4633 4.66252 14.8523 4.78175L15.1968 4.81131V6.02054V7.2298L14.3011 7.24277C13.3349 7.25673 13.2227 7.26997 12.9602 7.40112C12.7111 7.52552 12.5639 7.71651 12.4744 8.03143C12.4401 8.15187 12.4314 8.35315 12.422 9.23548L12.4107 10.2949H13.7662C14.5642 10.2949 15.1216 10.3043 15.1216 10.3177C15.1216 10.3591 14.7955 12.8887 14.781 12.9592L14.7669 13.0281H13.5913H12.4157V16.3636V19.6991L12.4846 19.6837C12.6191 19.6536 13.2103 19.4716 13.4066 19.3998C14.4991 19.0006 15.4731 18.4386 16.4245 17.6586C16.7581 17.3851 17.5146 16.6103 17.8106 16.2389C19.8873 13.6335 20.5296 10.2354 19.5529 7.02258C19.4385 6.64653 19.2194 6.0877 19.0317 5.69359C17.7521 3.00694 15.3218 1.01406 12.4407 0.288983C11.6115 0.0802809 11.0754 0.0137561 10.1357 0.00294863C9.74292 -0.00156492 9.36521 -0.000812628 9.29631 0.00462871Z" fill="#FDEA6F"/>
</svg>
