<svg width="16" height="16" viewBox="0 0 16 16" fill="none" xmlns="http://www.w3.org/2000/svg">
<path fill-rule="evenodd" clip-rule="evenodd" d="M4.10212 0.003177C3.83312 0.0233126 3.42413 0.0991713 3.17126 0.175844C2.61082 0.345762 2.11971 0.604015 1.65086 0.975395C1.50079 1.09426 1.17966 1.4078 1.04988 1.56217C0.48177 2.23788 0.144195 3.00435 0.0243593 3.89064C0.0012407 4.06162 0 4.27034 0 8.00048C0 11.7378 0.00120071 11.939 0.0244794 12.1103C0.137391 12.9414 0.435386 13.6545 0.943769 14.3101C1.07929 14.4849 1.47638 14.8866 1.64752 15.0221C2.01901 15.3162 2.38482 15.5288 2.8119 15.6988C3.12239 15.8224 3.44448 15.9075 3.83532 15.9694L4.02875 16H7.99748H11.9662L12.1596 15.9694C13.0145 15.8341 13.6927 15.5405 14.3474 15.0221C14.5233 14.8829 14.9176 14.4826 15.0578 14.3009C15.602 13.5958 15.9178 12.7868 15.9882 11.9168C15.9992 11.7815 16.002 10.6689 15.9987 7.88039C15.9935 3.61936 16.001 3.98171 15.9084 3.53036C15.6844 2.43898 15.0463 1.4697 14.1106 0.799312C13.9406 0.677512 13.728 0.552922 13.5003 0.441743C13.0735 0.233302 12.6885 0.115237 12.1596 0.0306517L11.9795 0.001856L8.07085 0.000268057C5.92107 -0.00059928 4.13514 0.000708428 4.10212 0.003177ZM13.547 1.80312C13.8564 1.87584 14.1203 2.14016 14.1935 2.4507C14.2196 2.56157 14.2195 2.76027 14.1934 2.87542C14.1235 3.1827 13.8534 3.45118 13.5403 3.52445C13.4095 3.55507 13.1726 3.5455 13.0534 3.5048C12.7958 3.4168 12.58 3.20089 12.492 2.94324C12.4513 2.82406 12.4418 2.58704 12.4724 2.45619C12.5456 2.14309 12.8059 1.87828 13.1136 1.80388C13.2204 1.77807 13.4388 1.77768 13.547 1.80312ZM8.35766 3.57037C9.82101 3.69538 11.0926 4.49671 11.8378 5.76343C12.1345 6.26773 12.3219 6.82216 12.409 7.45339C12.4417 7.68967 12.4415 8.31284 12.4088 8.54757C12.2723 9.52691 11.8942 10.3306 11.2351 11.0428C11.157 11.1272 11.0853 11.2023 11.0758 11.2096C11.0663 11.217 11.0197 11.2586 10.9721 11.3021C10.4451 11.7843 9.75128 12.1497 9.03296 12.3234C8.37663 12.4821 7.61753 12.4819 6.95983 12.3229C5.26852 11.9139 3.97147 10.5603 3.63647 8.85447C3.57596 8.54636 3.56285 8.39643 3.56234 8.00715C3.56182 7.61758 3.5764 7.44804 3.63688 7.13981C3.8803 5.89956 4.65112 4.81399 5.74964 4.16435C6.29922 3.83934 6.96039 3.62883 7.61061 3.57183C7.79276 3.55586 8.1789 3.55511 8.35766 3.57037ZM7.75068 5.3405C7.23493 5.40184 6.83108 5.55249 6.45001 5.82568C5.32991 6.62869 5.0004 8.12863 5.68133 9.32483C6.0347 9.94561 6.64882 10.414 7.33713 10.5877C7.62471 10.6603 7.97873 10.6868 8.26492 10.6572C9.62779 10.5163 10.6655 9.3678 10.6655 8.00048C10.6655 6.63876 9.6403 5.49401 8.28815 5.34593C8.16814 5.33279 7.84314 5.32951 7.75068 5.3405Z" fill="#FDEA6F"/>
</svg>
