<svg width="33" height="38" viewBox="0 0 33 38" fill="none" xmlns="http://www.w3.org/2000/svg">
<path fill-rule="evenodd" clip-rule="evenodd" d="M23.2659 0.234806C23.4307 1.47599 23.8931 2.17573 26.0071 4.38248C27.7992 6.25333 28.3876 6.99377 28.9434 8.07785C29.2439 8.66405 29.4068 9.07355 29.7524 10.1116L30.0304 10.9467L30.0639 10.6554C30.1215 10.1545 30.0749 9.02213 29.9771 8.54068C29.7953 7.64666 29.3844 6.65177 28.8853 5.89731C28.3029 5.017 27.4017 4.09319 25.8212 2.75645C24.3 1.46986 24.011 1.17311 23.5086 0.381783C23.3866 0.189517 23.2742 0.0184967 23.2588 0.00175591C23.2435 -0.0149849 23.2467 0.0898878 23.2659 0.234806ZM21.1836 2.87736C21.1391 2.98453 21.1605 4.4254 21.2119 4.78449C21.2782 5.24675 21.4253 5.72039 21.6433 6.17281C21.9533 6.81634 22.3616 7.36207 23.2388 8.3055C24.62 9.79108 25.1001 10.5802 25.6133 12.2091C25.8911 13.0905 25.9497 13.0289 25.9455 11.8595C25.9416 10.7451 25.8032 10.0966 25.397 9.28924C25.0765 8.65224 24.8674 8.38058 23.7199 7.11053C22.3719 5.61854 22.0723 5.13865 21.6043 3.72225C21.2908 2.77346 21.2559 2.70332 21.1836 2.87736ZM28.6393 17.3362V22.3856H28.0502H27.4611L27.4511 18.2781L27.4411 14.1706L25.9384 14.1604L24.4357 14.1502V18.2679V22.3856L18.7295 22.3846L13.0232 22.3835L11.7303 20.4619L10.4375 18.5403H5.21871H0V28.2701V38H2.14048H4.281L4.29138 36.825L4.30179 35.6501H5.3625H6.42321L6.43363 36.825L6.444 38H19.722H33V30.1928V22.3856H32.3321H31.6643V17.3362V12.2868H30.1518H28.6393V17.3362ZM9.27143 21.1427V22.3856H5.34286H1.41429V21.1427V19.8998H5.34286H9.27143V21.1427ZM9.27143 24.5996V25.8425H5.34286H1.41429V24.5996V23.3567H5.34286H9.27143V24.5996ZM16.1764 26.2018L16.1661 27.4933H14.9089H13.6518L13.6415 26.2018L13.6311 24.9103H14.9089H16.1868L16.1764 26.2018ZM21.4107 26.2115V27.5127H20.1536H18.8964V26.2115V24.9103H20.1536H21.4107V26.2115ZM26.6357 26.2115V27.5127H25.3786H24.1214V26.2115V24.9103H25.3786H26.6357V26.2115ZM31.8674 26.163C31.8602 26.8519 31.8425 27.4269 31.8281 27.4407C31.8136 27.4544 31.2494 27.473 30.5741 27.4819L29.3464 27.4982V26.2042V24.9103H30.6134L31.8804 24.9103L31.8674 26.163ZM9.27143 28.0761V29.3775L5.35268 29.3676L1.43393 29.3577L1.42356 28.1151C1.41782 27.4317 1.42171 26.8505 1.43212 26.8236C1.44721 26.7848 2.25504 26.7747 5.36128 26.7747H9.27143V28.0761ZM16.1857 30.7177V31.9806L14.9188 31.9704L13.6518 31.9601L13.6414 30.7075L13.631 29.4548H14.9084H16.1857V30.7177ZM21.4107 30.7172V31.9795H20.1536H18.8964V30.7172V29.4548H20.1536H21.4107V30.7172ZM26.6357 30.7172V31.9795H25.3786H24.1214V30.7172V29.4548H25.3786H26.6357V30.7172ZM31.8907 30.7075L31.8804 31.9601L30.6134 31.9704L29.3464 31.9806V30.7177V29.4548H30.6238H31.9011L31.8907 30.7075ZM16.1857 35.2622V36.5251L14.9188 36.5148L13.6518 36.5046L13.6414 35.2519L13.631 33.9993H14.9084H16.1857V35.2622ZM21.4107 35.2617V36.524H20.1536H18.8964V35.2617V33.9993H20.1536H21.4107V35.2617ZM26.6357 35.2617V36.524H25.3786H24.1214V35.2617V33.9993H25.3786H26.6357V35.2617ZM31.8907 35.2519L31.8804 36.5046L30.6134 36.5148L29.3464 36.5251V35.2622V33.9993H30.6238H31.9011L31.8907 35.2519Z" fill="#214D7E"/>
</svg>
