<svg width="31" height="34" viewBox="0 0 31 34" fill="none" xmlns="http://www.w3.org/2000/svg">
<path fill-rule="evenodd" clip-rule="evenodd" d="M15.3137 0.0285037C15.1347 0.0836871 14.9956 0.189563 14.8958 0.346703L14.7975 0.501368V3.38765C14.7975 6.20821 14.7992 6.27736 14.8728 6.4246C14.9143 6.50745 15.0146 6.62018 15.0959 6.67506C15.4588 6.92015 15.94 6.78523 16.1416 6.38179C16.2121 6.24078 16.2145 6.1405 16.2138 3.40858C16.213 0.747867 16.2089 0.572231 16.1445 0.427499C15.999 0.100737 15.6395 -0.0719681 15.3137 0.0285037ZM4.68204 4.52287C4.39061 4.67989 4.24804 5.08205 4.36909 5.40553C4.4172 5.53405 4.82919 5.97427 6.39705 7.57234C7.47926 8.6754 8.41192 9.59589 8.46965 9.61793C8.52738 9.63997 8.64988 9.658 8.74188 9.658C9.20922 9.658 9.54649 9.20345 9.42622 8.73568C9.38923 8.59179 9.16164 8.34517 7.42019 6.56191C6.29621 5.41094 5.40457 4.52774 5.33591 4.49729C5.16273 4.42053 4.84922 4.43282 4.68204 4.52287ZM25.6121 4.51918C25.5403 4.55856 24.6151 5.47834 23.5561 6.56305C21.477 8.69271 21.5207 8.63913 21.556 9.0143C21.5877 9.35039 21.8487 9.61679 22.1781 9.6491C22.5457 9.68514 22.4932 9.72974 24.58 7.60792C25.7368 6.43183 26.5434 5.58239 26.5893 5.49208C26.6806 5.31233 26.689 4.99912 26.6067 4.83844C26.5334 4.69496 26.365 4.53497 26.2343 4.48462C26.0701 4.42129 25.7588 4.43861 25.6121 4.51918ZM14.7043 7.66607C14.347 7.70988 13.6161 7.85263 13.3431 7.93191C10.5911 8.73123 8.42606 11.0002 7.72609 13.8186C7.34739 15.3435 7.41776 17.0109 7.9237 18.4999C8.22214 19.3782 8.58742 20.0476 9.34392 21.1022C10.2107 22.3106 10.915 24.2627 11.0883 25.937C11.1249 26.2909 11.3077 26.5243 11.6013 26.5918C11.6867 26.6115 11.975 26.5974 12.3815 26.5537C12.736 26.5156 14.4274 26.3365 16.14 26.1557C17.8526 25.9749 19.316 25.8107 19.392 25.7907C19.5532 25.7483 19.738 25.6003 19.8119 25.4545C19.8405 25.3981 19.9086 25.1475 19.9632 24.8976C20.2845 23.4279 20.9499 21.9552 21.7503 20.9421C22.3007 20.2455 22.8337 19.2426 23.1093 18.3854C23.8814 15.9837 23.5358 13.3871 22.1629 11.2754C20.8729 9.29105 18.7183 7.95113 16.3824 7.68046C16.0708 7.64438 14.9591 7.63483 14.7043 7.66607ZM16.0869 9.12779C19.2263 9.44096 21.6814 11.8904 22.035 15.0622C22.1009 15.6533 22.0594 16.6065 21.9439 17.1553C21.6964 18.3312 21.3119 19.1193 20.3803 20.3602C19.7011 21.2649 19.0176 22.7609 18.6756 24.0913C18.6188 24.312 18.5722 24.4243 18.5371 24.4243C18.5081 24.4243 18.1792 24.458 17.8063 24.4991C17.4333 24.5403 16.6332 24.6262 16.0281 24.69C14.6085 24.8398 13.5991 24.9471 12.974 25.0147C12.6991 25.0444 12.4623 25.0612 12.4476 25.0519C12.4329 25.0427 12.4009 24.9276 12.3764 24.7963C12.0614 23.1033 11.1986 21.0904 10.2835 19.913C9.88151 19.3959 9.51057 18.6943 9.28313 18.0213C8.48307 15.6533 9.02496 13.0687 10.7059 11.2352C12.0953 9.71973 14.1102 8.93057 16.0869 9.12779ZM0.405016 15.1852C0.151768 15.3172 0.0189721 15.5119 0.00192976 15.7763C-0.016194 16.0574 0.0935554 16.2886 0.322191 16.4508L0.483851 16.5654L3.22345 16.5759C5.07905 16.583 6.01078 16.5733 6.11087 16.5458C6.28271 16.4985 6.49692 16.3193 6.5819 16.1516C6.61454 16.0871 6.64127 15.9441 6.64127 15.8337C6.64127 15.5746 6.4911 15.3134 6.27634 15.1988C6.12944 15.1205 6.08499 15.1191 3.3489 15.1091L0.570666 15.0988L0.405016 15.1852ZM24.773 15.1717C24.1454 15.4694 24.2314 16.3751 24.9036 16.5451C25.0214 16.5749 25.8772 16.5842 27.775 16.5765L30.4787 16.5654L30.6469 16.4645C31.1002 16.1926 31.121 15.5466 30.6866 15.2334L30.5282 15.1193L27.7252 15.1101C25.0606 15.1013 24.9148 15.1044 24.773 15.1717ZM8.37787 22.1125C8.16505 22.2462 4.41891 26.1251 4.36797 26.2645C4.23898 26.6174 4.43659 27.0686 4.77777 27.2001C4.94085 27.263 5.20241 27.248 5.35486 27.1672C5.49765 27.0914 9.31598 23.2089 9.38113 23.0733C9.44856 22.9328 9.46828 22.7141 9.42749 22.5596C9.37826 22.3729 9.19154 22.1477 9.02839 22.0781C8.83783 21.9969 8.53659 22.0128 8.37787 22.1125ZM21.9389 22.0901C21.7661 22.1832 21.6919 22.2609 21.6174 22.4263C21.5394 22.5998 21.5295 22.8714 21.5956 23.0264C21.66 23.1772 25.5299 27.1242 25.6762 27.1881C25.8485 27.2634 26.1128 27.2532 26.2827 27.1648C26.5716 27.0144 26.7148 26.6842 26.6458 26.3272C26.6145 26.1654 26.5042 26.045 24.6499 24.1488C23.5703 23.0449 22.6337 22.1158 22.5684 22.0842C22.4149 22.0099 22.0818 22.013 21.9389 22.0901ZM18.7504 26.3497C18.5145 26.3779 16.9371 26.5476 15.245 26.7268C13.5529 26.906 12.0388 27.0673 11.8804 27.0851C11.6172 27.1149 11.5759 27.1317 11.4039 27.2787C11.3003 27.3672 11.1992 27.4708 11.1792 27.5089C11.0911 27.6768 11.1662 27.8789 11.37 28.0231C11.5324 28.138 11.7494 28.4487 11.8136 28.6582C11.8464 28.7656 11.8773 28.801 11.9383 28.8011C11.9828 28.8012 12.8164 28.7064 13.7906 28.5904C14.7649 28.4744 16.2836 28.2943 17.1655 28.1903C19.2019 27.95 18.9915 27.9915 19.0417 27.8203C19.0989 27.6255 19.2847 27.3352 19.4026 27.2564C19.5984 27.1255 19.6691 26.8179 19.5466 26.6306C19.4486 26.4808 19.2615 26.2887 19.2186 26.2938C19.197 26.2964 18.9863 26.3215 18.7504 26.3497ZM18.6572 28.4782C17.4614 28.6208 16.0495 28.7856 14.1076 29.0093C12.918 29.1464 11.9097 29.2665 11.867 29.2762C11.8243 29.286 11.7006 29.3897 11.5922 29.5067C11.4108 29.7023 11.3968 29.7305 11.4169 29.8571C11.4335 29.9614 11.4924 30.0461 11.6599 30.2066C11.8661 30.4042 12.0752 30.74 12.0752 30.8738C12.0752 30.9086 12.1084 30.9322 12.1575 30.9322C12.2312 30.9322 13.2422 30.8031 16.9231 30.324C17.5487 30.2425 18.2199 30.1565 18.4148 30.1328C18.8582 30.079 18.8994 30.0667 18.9004 29.9877C18.9021 29.8568 19.0514 29.5928 19.2369 29.3926C19.4501 29.1625 19.5087 28.9669 19.4165 28.7926C19.3506 28.668 19.134 28.4191 19.0965 28.4248C19.0805 28.4272 18.8828 28.4513 18.6572 28.4782ZM17.1842 30.7621C16.3535 30.8745 14.8684 31.0726 13.8838 31.2024L12.0938 31.4384L11.9151 31.6324C11.6962 31.87 11.6156 32.0367 11.661 32.1577C11.7085 32.2847 11.7968 32.3473 12.1311 32.4913C12.7041 32.7381 13.291 33.0657 13.7948 33.4201C14.0741 33.6164 14.3996 33.8142 14.5182 33.8595C15.1829 34.1133 16.0385 34.017 16.6321 33.6216C16.7409 33.5492 17.1403 33.1755 17.5198 32.7912C18.1745 32.1281 18.8024 31.594 19.1239 31.4266C19.4039 31.2808 19.4241 31.0697 19.1866 30.7718C19.0394 30.5872 19.0125 30.5701 18.8603 30.5642C18.7691 30.5607 18.0148 30.6497 17.1842 30.7621Z" fill="#214D7E"/>
</svg>
