<svg width="30" height="30" viewBox="0 0 30 30" fill="none" xmlns="http://www.w3.org/2000/svg">
<path fill-rule="evenodd" clip-rule="evenodd" d="M8.22454 2.992L1.50783 5.98097L1.49757 7.49338L1.48735 9.00575H15H28.5127L28.5024 7.49338L28.4922 5.98101L21.7607 2.98902C18.0585 1.34344 15.0095 -0.00164356 14.9853 1.50737e-06C14.9611 0.00164658 11.9187 1.34806 8.22454 2.992ZM4.50392 16.5065V22.5188H5.99217H7.48042V16.5065V10.4941H5.99217H4.50392V16.5065ZM10.4961 16.507V22.5198L11.9941 22.5095L13.4922 22.4993L13.5021 16.4967L13.512 10.4941H12.004H10.4961V16.507ZM16.4979 16.4967L16.5078 22.4993L18.0059 22.5095L19.5039 22.5198V16.507V10.4941H17.996H16.488L16.4979 16.4967ZM22.5196 16.5065V22.5188H24.0078H25.4961V16.5065V10.4941H24.0078H22.5196V16.5065ZM2.9765 25.5152V27.0232H1.48825H0V28.5116V30H15H30V28.5116V27.0232H28.5117H27.0235V25.5152V24.0072H15H2.9765V25.5152Z" fill="#214D7E"/>
</svg>
