<svg width="33" height="25" viewBox="0 0 33 25" fill="none" xmlns="http://www.w3.org/2000/svg">
<path fill-rule="evenodd" clip-rule="evenodd" d="M10.3708 0.0210196C10.9341 0.0749603 10.8625 0.050032 14.5023 1.45718L17.6545 2.67582L19.2469 2.70855L20.8392 2.74121L22.4603 3.36382C23.3518 3.70623 24.4531 4.12971 24.9076 4.30494C25.3621 4.48018 26.6428 4.97338 27.7538 5.40095C28.8647 5.82851 29.9251 6.26186 30.1103 6.36396C31.5894 7.1794 32.5146 8.6831 32.895 10.8901C33.019 11.6092 33.0365 13.2223 32.9295 14.0595C32.2869 19.0833 28.7708 23.6531 25.0509 24.2991C23.9998 24.4816 23.4349 24.3947 21.9374 23.8201C21.366 23.6009 20.0063 23.0773 18.9159 22.6565L16.9333 21.8916H15.4118H13.8902V23.4458V25H12.4824H11.0747V23.4458V21.8916H8.53454H5.99442V19.1867V16.4819L5.61187 16.3433C4.1285 15.8061 3.23786 14.9456 2.6821 13.5128C2.31271 12.5605 2.13882 11.5914 2.13851 10.4838L2.13833 9.89466L1.4151 9.61454C0.488354 9.25554 0.270573 9.04654 0.0797882 8.333C-0.104015 7.64591 0.0412903 6.27064 0.397091 5.32939C1.01137 3.70428 2.09212 2.47919 3.06734 2.30256C3.29228 2.26184 3.43214 2.30049 4.49544 2.69721L4.8633 2.83441L5.56657 2.13568C7.13961 0.57286 8.74644 -0.134464 10.3708 0.0210196ZM9.51117 1.97824C9.31047 2.15012 9.28501 2.52204 9.46184 2.69806C9.57868 2.81435 14.5372 4.76463 14.716 4.76463C14.8476 4.76463 15.0647 4.64754 15.1583 4.52613C15.2677 4.38424 15.2527 4.06578 15.1297 3.91834C15.0645 3.8402 14.4831 3.58269 13.6454 3.26087C12.8879 2.96996 11.7587 2.53344 11.1359 2.29092C10.5131 2.04834 9.92934 1.84744 9.83863 1.84446C9.74792 1.84147 9.60053 1.90169 9.51117 1.97824ZM7.24642 4.24381C7.06555 4.42386 7.04511 4.75262 7.20327 4.93675C7.30249 5.05219 12.0341 6.92134 12.4236 6.99893C12.5378 7.02167 12.6374 6.98467 12.7773 6.8674C13.0211 6.66316 13.0455 6.35518 12.8344 6.1471C12.7542 6.06798 11.8788 5.69582 10.738 5.25583C9.66076 4.84033 8.55902 4.411 8.28971 4.30178C7.6835 4.05596 7.44816 4.04286 7.24642 4.24381ZM5.37762 6.64938C5.02892 6.99662 5.18568 7.35122 5.79121 7.58496C6.0208 7.67365 7.1701 8.11755 8.34516 8.5715C9.52023 9.02545 10.5447 9.39682 10.6217 9.39682C10.8578 9.39682 11.0991 9.14041 11.0991 8.88966C11.0991 8.48684 11.2985 8.58406 7.34099 7.05635C6.51621 6.73794 5.77731 6.47604 5.69897 6.47433C5.62001 6.47263 5.47684 6.55058 5.37762 6.64938ZM27.6402 7.96944C26.7356 8.20123 25.9614 8.70102 24.9658 9.6959C23.3105 11.35 22.1854 13.6047 21.7159 16.209C21.5445 17.1593 21.5313 18.6897 21.6875 19.484C22.3086 22.6416 24.6384 23.69 27.2368 21.9813C27.4874 21.8165 27.9955 21.3792 28.3658 21.0095C29.3469 20.03 30.1019 18.9149 30.6983 17.5641C32.1439 14.2904 32.1712 10.7917 30.7653 8.97712C30.0426 8.04422 28.8496 7.65957 27.6402 7.96944ZM5.23207 9.55657C4.96319 9.65933 4.89617 10.1856 5.1257 10.3913C5.18268 10.4424 5.83528 10.7169 6.57589 11.0013C7.3165 11.2856 8.46586 11.7272 9.12997 11.9827C10.2961 12.4312 10.3445 12.4441 10.5425 12.3618C10.8325 12.2411 10.9445 11.9599 10.8123 11.6841C10.723 11.4975 10.632 11.4488 9.68604 11.0808C9.12005 10.8607 7.99591 10.4213 7.18797 10.1045C5.80088 9.56059 5.46662 9.46698 5.23207 9.55657ZM5.0304 12.7829C4.95321 12.8702 4.89268 13.0188 4.89268 13.1209C4.89268 13.229 4.94868 13.3583 5.0304 13.4388C5.19768 13.6037 10.0672 15.4918 10.325 15.4918C10.6848 15.4918 10.9151 15.0468 10.7193 14.73C10.6185 14.567 10.3317 14.4402 8.07083 13.5596C5.35718 12.5026 5.29261 12.4861 5.0304 12.7829ZM8.80997 18.3565V19.0879L10.4167 19.086L12.0234 19.0842L11.7479 18.8459C11.5348 18.6615 11.1889 18.497 10.2178 18.1183C9.52763 17.8492 8.92853 17.6282 8.88648 17.6271C8.82944 17.6255 8.80997 17.8109 8.80997 18.3565Z" fill="#214D7E"/>
</svg>
