<svg width="33" height="30" viewBox="0 0 33 30" fill="none" xmlns="http://www.w3.org/2000/svg">
<path fill-rule="evenodd" clip-rule="evenodd" d="M3.25772 0.677193V1.35439H16.4286H29.5994V0.677193V0H16.4286H3.25772V0.677193ZM2.18458 6.67025C1.34825 9.16567 0.66397 11.215 0.66397 11.2244C0.66397 11.2338 7.78836 11.2414 16.496 11.2414C25.2035 11.2414 32.3279 11.2337 32.3279 11.2244C32.3279 11.215 31.6436 9.16564 30.8072 6.67025L29.2864 2.13316H16.4958H3.70523L2.18458 6.67025ZM8.00051 2.76803C7.99243 2.80063 7.54795 4.59858 7.0128 6.76346L6.03974 10.6996H5.38978C4.88026 10.6996 4.73986 10.6902 4.73986 10.6558C4.73986 10.6317 5.17167 8.86801 5.69945 6.73655C6.22723 4.60508 6.66712 2.82684 6.67696 2.78496C6.69478 2.70914 6.69821 2.70877 7.35504 2.70877C7.96686 2.70877 8.01409 2.71311 8.00051 2.76803ZM12.4964 3.02197C12.47 3.19425 12.1955 4.98837 11.8863 7.00895L11.3241 10.6827L10.6569 10.6919C10.0323 10.7005 9.99079 10.6973 10.0061 10.6411C10.0151 10.6081 10.2927 8.80987 10.6231 6.64496L11.2236 2.70877H11.884H12.5443L12.4964 3.02197ZM17.0686 6.70421V10.6996H16.4117H15.7549V6.70421V2.70877H16.4117H17.0686V6.70421ZM22.4713 6.62803C22.8006 8.78363 23.0779 10.5815 23.0877 10.6235L23.1055 10.6996H22.4456C21.789 10.6996 21.7857 10.6993 21.7683 10.6235C21.7586 10.5815 21.4806 8.78363 21.1505 6.62803L20.5502 2.70877H21.2115H21.8728L22.4713 6.62803ZM26.4006 2.71724C26.4012 2.72191 26.8459 4.51982 27.3888 6.71268L28.3758 10.6996H27.7153H27.0548L26.0863 6.78039C25.5535 4.62482 25.1087 2.82684 25.0977 2.78496L25.0778 2.70877H25.7386C26.102 2.70877 26.3999 2.71256 26.4006 2.71724ZM0.562915 12.3249V12.5958H0.661545C0.756638 12.5958 0.760949 12.6028 0.781834 12.7905C0.821245 13.1449 0.932069 13.5227 1.09207 13.8486C1.22267 14.1145 1.29998 14.2204 1.53806 14.4596C2.01397 14.9375 2.49853 15.1338 3.20504 15.1348C3.65008 15.1354 3.917 15.076 4.28953 14.8937C5.02993 14.5313 5.50519 13.781 5.63333 12.7721L5.6561 12.5928L5.87839 12.6028L6.10067 12.6127L6.14416 12.9163C6.3393 14.2785 7.26672 15.1353 8.54628 15.1353C9.83311 15.1353 10.7563 14.2728 10.9527 12.887L10.9916 12.6127L11.2148 12.6028L11.438 12.5928L11.4598 12.789C11.4994 13.1449 11.61 13.5223 11.7702 13.8486C11.9008 14.1145 11.9781 14.2204 12.2162 14.4596C12.6921 14.9375 13.1767 15.1338 13.8832 15.1348C14.3283 15.1354 14.5952 15.076 14.9677 14.8937C15.7081 14.5313 16.1834 13.781 16.3115 12.7721L16.3343 12.5928L16.5583 12.6028C16.7803 12.6126 16.7823 12.6136 16.7909 12.7143C16.8747 13.7013 17.3743 14.5082 18.1417 14.8962C18.7752 15.2164 19.6687 15.2198 20.2904 14.9043C21.0367 14.5257 21.4968 13.8332 21.6309 12.887L21.6698 12.6127L21.8929 12.6028L22.1161 12.5928L22.1381 12.789C22.26 13.8787 22.8606 14.6979 23.7775 15.025C23.9799 15.0973 24.1026 15.1159 24.4561 15.1283C24.9742 15.1464 25.237 15.0947 25.6459 14.8941C26.3868 14.5305 26.8615 13.7808 26.9897 12.7721L27.0124 12.5928L27.2364 12.6028C27.4585 12.6126 27.4605 12.6136 27.4691 12.7143C27.5703 13.9062 28.266 14.807 29.2884 15.0698C29.6331 15.1585 30.1721 15.1585 30.5168 15.0698C31.3437 14.8573 31.9548 14.2397 32.2083 13.3605C32.309 13.0109 32.3584 12.5958 32.2991 12.5958C32.2734 12.5958 32.2606 12.5056 32.2606 12.3249V12.054H16.4117H0.562915V12.3249ZM13.0832 16.0713C13.0705 16.0841 13.0601 18.6138 13.0601 21.6928V27.2909H9.08524H5.1104V21.9411V16.5912H4.18406H3.25772V21.9411V27.2909H2.20018C0.997924 27.2909 0.861634 27.3125 0.546881 27.5535C-0.405228 28.2826 -0.0507937 29.7735 1.12044 29.9663C1.39086 30.0108 31.5968 30.0115 31.8672 29.967C32.6308 29.8413 33.138 29.0943 32.9666 28.3476C32.8736 27.9422 32.5373 27.5348 32.1764 27.3903C31.9873 27.3145 31.9234 27.3085 31.1911 27.2979L30.4079 27.2864V21.9388V16.5912H29.3468H28.2857V21.9411V27.2909H21.3635H14.4414L14.4328 21.6786L14.4243 16.0664L13.7653 16.0572C13.4029 16.0522 13.096 16.0585 13.0832 16.0713ZM18.3565 18.9704L15.9225 21.4172L16.1591 21.6532L16.3957 21.8893L18.8543 19.4181C20.2065 18.0589 21.3129 16.9363 21.3129 16.9234C21.3129 16.8966 20.8461 16.5235 20.8125 16.5235C20.8005 16.5235 19.6953 17.6246 18.3565 18.9704ZM20.5625 20.7484L16.5962 24.7354L16.8325 24.9712L17.0688 25.2068L17.3575 24.9199C17.5163 24.762 19.2966 22.9633 21.3137 20.9227L24.9813 17.2125L24.7551 16.9869L24.5289 16.7613L20.5625 20.7484ZM10.2074 17.0678C9.65852 17.2426 9.29863 17.8795 9.43849 18.4284C9.50216 18.6781 9.60833 18.8683 9.77292 19.0273L9.89368 19.144V21.1792V23.2144L9.77292 23.3311C9.30577 23.7825 9.28573 24.4882 9.72636 24.9688C10.2992 25.5935 11.311 25.4134 11.6712 24.6226C11.7404 24.4705 11.7584 24.3786 11.7583 24.1765C11.7582 23.8513 11.6614 23.627 11.3979 23.3408L11.2074 23.134V21.178V19.2219L11.3724 19.0465C11.7738 18.6199 11.8667 18.11 11.6283 17.6422C11.5488 17.4864 11.3334 17.2596 11.1662 17.1557C11.0432 17.0793 10.7199 16.9971 10.5519 16.9994C10.477 17.0005 10.322 17.0312 10.2074 17.0678ZM23.6451 22.2886L21.2111 24.7355L21.4477 24.9715L21.6843 25.2075L24.1429 22.7363C25.4951 21.3772 26.6015 20.2548 26.6015 20.2421C26.6015 20.2169 26.1305 19.8418 26.0988 19.8418C26.088 19.8418 24.9838 20.9428 23.6451 22.2886Z" fill="#214D7E"/>
</svg>
