<svg width="37" height="30" viewBox="0 0 37 30" fill="none" xmlns="http://www.w3.org/2000/svg">
<path fill-rule="evenodd" clip-rule="evenodd" d="M3.89171 0.155861C2.74147 0.611199 1.94281 1.61047 1.70539 2.89142C1.65752 3.14988 1.61875 4.16001 1.61875 5.14975V6.9404L1.32622 7.04082C0.686119 7.26028 0.002621 8.25823 0.000770998 8.97592L0 9.26271H1.88854H3.77708V8.92703C3.77708 8.1796 3.18408 7.31305 2.49411 7.05247L2.22547 6.9509L2.24968 4.86384L2.27396 2.77679L2.48856 2.31051C3.071 1.04509 4.30272 0.397031 5.47315 0.7403C6.33964 0.994442 6.97774 1.59821 7.3223 2.49C7.50722 2.96846 7.61568 3.87984 7.48772 3.87984C7.42482 3.87984 7.4 4.42915 7.4 5.8212V7.76256H7.13021H6.86042V17.9988V28.2351H6.12813H5.39583V29.1176V30H7.82396H10.2521V29.1176V28.2351H9.48125H8.71042V17.9988V7.76256H8.47917H8.24792V5.82852C8.24792 4.39721 8.22371 3.88531 8.15495 3.8591C8.02707 3.8103 8.20036 2.74414 8.41419 2.26436C8.65777 1.71769 9.26133 1.09786 9.76939 0.872578C10.2876 0.642791 11.1212 0.603611 11.601 0.786628C12.0773 0.968146 12.6638 1.45128 12.9374 1.88747C13.3913 2.61098 13.4328 2.85277 13.4711 4.98818L13.5058 6.93484L13.2018 7.03914C12.5099 7.27643 11.9172 8.08236 11.8587 8.86561L11.8323 9.21859L13.7401 9.24215C15.9123 9.26906 15.7502 9.33983 15.5247 8.46251C15.3747 7.87834 14.8193 7.21148 14.3485 7.05L14.0412 6.94454L14.0159 4.86067L13.9906 2.77679L13.7451 2.18353C13.4059 1.36365 12.9 0.771626 12.2007 0.375941C11.7177 0.102738 11.5321 0.0472329 10.9919 0.0147592C10.2969 -0.0269801 9.66425 0.1278 9.17292 0.459685C8.79251 0.716739 8.26588 1.29932 8.01828 1.73701L7.80785 2.10905L7.71982 1.888C7.59687 1.57914 6.95492 0.807983 6.61598 0.561959C5.86427 0.0165244 4.68705 -0.158993 3.89171 0.155861ZM0.728206 10.2578C0.705312 10.3262 0.696834 10.6764 0.709398 11.0359L0.732292 11.6894H0.963542H1.19479V10.9393V10.1893L0.98235 10.1613C0.852311 10.1442 0.753798 10.1816 0.728206 10.2578ZM2.54645 10.3158C2.50259 10.4097 2.46667 10.6903 2.46667 10.9393C2.46667 11.1884 2.50259 11.469 2.54645 11.5629C2.6364 11.7552 2.85193 11.7867 2.99083 11.6276C3.08657 11.518 3.1201 10.5339 3.03654 10.2847C2.97102 10.0892 2.64265 10.11 2.54645 10.3158ZM12.599 10.2578C12.5761 10.3262 12.5677 10.6764 12.5802 11.0359L12.6031 11.6894H12.8344H13.0656V10.9393V10.1893L12.8532 10.1613C12.7231 10.1442 12.6246 10.1816 12.599 10.2578ZM14.372 10.2578C14.3491 10.3262 14.3406 10.6764 14.3531 11.0359L14.376 11.6894H14.6073H14.8385V10.9393V10.1893L14.6261 10.1613C14.4961 10.1442 14.3975 10.1816 14.372 10.2578ZM1.71179 10.7497C1.64003 10.8018 1.61844 11.0301 1.63471 11.5646L1.65729 12.3071H1.88854H2.11979L2.14245 11.6148C2.16974 10.78 2.03708 10.5135 1.71179 10.7497ZM13.541 10.7335C13.5127 10.7658 13.4896 11.1244 13.4896 11.5304C13.4896 12.1324 13.5129 12.2788 13.6157 12.324C13.8805 12.4403 13.9895 12.2312 14.0134 11.5617C14.0275 11.1669 14.0018 10.8755 13.9461 10.7989C13.8519 10.6688 13.6289 10.6328 13.541 10.7335ZM15.1694 15.0647L15.1469 15.7486L13.4682 15.7725L11.7894 15.7962L11.8109 17.0079L11.8323 18.2195L13.5089 18.2433L15.1854 18.267V19.1019V19.9368L13.5089 19.9605L11.8323 19.9843L11.8108 21.1518L11.7893 22.3193L13.4681 22.3431L15.1469 22.3669V23.3376V24.3083L12.8151 24.3317L10.4833 24.355V25.5426V26.7303L11.6203 26.7547L12.7573 26.7791L12.7783 28.3895L12.7993 30H13.9924H15.1854V28.3675V26.735H23.7417H32.2979V28.3675V30H33.4909H34.684L34.705 28.3895L34.726 26.7791L35.863 26.7547L37 26.7303V25.5426V24.355L34.6682 24.3317L32.3365 24.3083V23.3376V22.3669L34.013 22.3431L35.6896 22.3193V21.1297V19.9402H33.9938H32.2979V19.1037V18.267L33.9745 18.2433L35.651 18.2195L35.6725 17.0079L35.6939 15.7962L34.0152 15.7725L32.3365 15.7486L32.3139 15.0647L32.2914 14.3808H31.5624H30.8333V15.0868V15.7927H23.7417H16.65V15.0868V14.3808H15.9209H15.1919L15.1694 15.0647ZM16.0179 16.7811C16.3173 17.1238 15.8848 17.6623 15.5711 17.3374C15.3065 17.0632 15.4193 16.6752 15.7635 16.6752C15.8526 16.6752 15.967 16.7228 16.0179 16.7811ZM31.8971 16.7811C32.0597 16.9673 32.0059 17.2881 31.7936 17.3989C31.6258 17.4864 31.574 17.4741 31.4329 17.3125C31.2917 17.151 31.281 17.0917 31.3574 16.8995C31.4542 16.6565 31.7344 16.5949 31.8971 16.7811ZM30.8333 19.1019V19.9402H23.7417H16.65V19.1019V18.2636H23.7417H30.8333V19.1019ZM15.9893 20.7848C16.2221 21.0514 16.0881 21.4404 15.7635 21.4404C15.4354 21.4404 15.3161 21.0961 15.5442 20.8076C15.7006 20.6096 15.8304 20.603 15.9893 20.7848ZM31.8405 20.7375C32.0253 20.8507 32.0445 21.3091 31.8676 21.3868C31.4697 21.5616 31.1898 21.2415 31.4078 20.8609C31.5436 20.6236 31.6194 20.602 31.8405 20.7375ZM30.8333 23.3376V24.3524H23.7417H16.65V23.3376V22.3228H23.7417H30.8333V23.3376Z" fill="#214D7E"/>
</svg>
