<svg width="33" height="39" viewBox="0 0 33 39" fill="none" xmlns="http://www.w3.org/2000/svg">
<path fill-rule="evenodd" clip-rule="evenodd" d="M15.0745 1.49272C14.2799 2.35706 12.7648 4.00237 11.7077 5.14894L9.78581 7.23368L9.7543 5.76711L9.72279 4.30047H7.26524H4.80768L4.79149 8.49055L4.77529 12.6806L3.78944 13.764C3.2472 14.3598 2.1982 15.5099 1.45835 16.3196C0.718436 17.1294 0.113121 17.8209 0.113121 17.8562C0.113121 17.8993 0.606334 17.9151 1.60511 17.9039L3.09703 17.8873L4.36198 16.5206C5.70072 15.074 6.34391 14.3745 12.5899 7.57118L16.5283 3.2814L16.8434 3.60482C17.1154 3.88406 19.2849 6.26703 23.4886 10.9042C24.0936 11.5715 24.9727 12.5374 25.4421 13.0506C25.9115 13.5637 27.0993 14.8689 28.0818 15.951L29.8681 17.9183H31.3428C32.1539 17.9183 32.8175 17.8968 32.8175 17.8704C32.8175 17.8441 32.2433 17.193 31.5415 16.4235C30.8396 15.654 29.5565 14.2455 28.6901 13.2934C27.8236 12.3413 26.4767 10.8617 25.6969 10.0055C24.9171 9.14923 23.5844 7.68397 22.7352 6.74933C21.8861 5.81475 20.9346 4.76969 20.6207 4.4271C20.3069 4.08445 19.3033 2.98057 18.3907 1.97396C17.478 0.967358 16.6836 0.0937064 16.6253 0.0324726C16.5246 -0.0732441 16.447 -0.000160577 15.0745 1.49272ZM14.953 8.09939C14.1212 9.00667 12.8593 10.381 12.1488 11.1534C11.4384 11.9259 10.0889 13.3941 9.14999 14.4161C8.21115 15.4381 6.7869 16.9862 5.98498 17.8563L4.52696 19.4383L4.52557 21.7493C4.52443 23.558 4.54126 24.0601 4.60289 24.0593C4.64624 24.0587 5.03611 23.9605 5.46933 23.8411C7.91983 23.1653 8.86467 23.0301 10.731 23.0878C11.7802 23.1202 12.1857 23.1563 12.9208 23.2829L13.0941 23.3127V21.9178V20.523L16.5126 20.539L19.9311 20.555L19.9475 23.0116L19.9641 25.4683L20.4946 25.701C22.18 26.4404 23.2724 27.5895 23.4946 28.8568C23.551 29.1781 23.5902 29.2715 23.6581 29.2458C23.7073 29.2272 23.9202 29.168 24.1314 29.1141C25.047 28.8805 26.0374 28.4216 27.3038 27.6441L28.249 27.0639L28.2634 23.22L28.2778 19.3763L27.7907 18.8453C27.3231 18.3354 25.5111 16.3438 23.0569 13.6419C22.4192 12.94 21.2883 11.6957 20.5436 10.8767C19.7989 10.0578 18.5909 8.72668 17.859 7.91873C17.1271 7.11071 16.5142 6.44968 16.4968 6.44974C16.4795 6.4498 15.7848 7.19217 14.953 8.09939ZM8.62004 25.2723C8.01196 25.3667 7.62303 25.4555 6.6351 25.7257C5.28451 26.0951 3.60323 26.5526 3.07479 26.6945C2.7802 26.7736 2.18471 26.9423 1.75149 27.0693C1.31827 27.1963 0.751141 27.361 0.491207 27.4354L0.0186001 27.5704L0.00246767 32.6088C-0.00641734 35.3799 0.00946358 37.6471 0.037694 37.6471C0.0659243 37.6471 0.328378 37.561 0.620953 37.4559C1.64821 37.0864 3.13573 36.7006 3.95 36.5924C4.74171 36.4872 5.66115 36.6298 8.74607 37.3365C11.8577 38.0493 14.4313 38.5645 15.7091 38.7304C16.0904 38.7799 16.6008 38.8501 16.8434 38.8864C17.6046 39.0002 19.2708 39.0386 19.8156 38.9548C21.1279 38.7528 22.5004 38.1795 24.4626 37.0138C27.0095 35.5007 30.2597 33.0687 32.1634 31.2517C32.7912 30.6523 32.952 30.3946 32.9928 29.9226C33.0308 29.4833 32.9197 29.1468 32.6294 28.8222C32.3017 28.4556 31.9723 28.3274 31.3621 28.3289C30.5161 28.331 29.6937 28.6577 28.2264 29.5743C26.5534 30.6193 25.1644 31.1369 22.9243 31.5499C22.4478 31.6377 21.9914 31.6603 20.6873 31.6603C18.874 31.6603 18.2694 31.5819 17.0042 31.1829C15.9749 30.8583 14.7954 30.2438 14.7954 30.0321C14.7954 29.8999 15.5129 29.9527 17.1975 30.2092C18.2299 30.3663 18.6921 30.4061 19.5544 30.4121C20.7647 30.4204 21.0822 30.3441 21.2621 30.0015C21.577 29.402 21.3576 28.7174 20.6957 28.2341C20.2221 27.8882 19.1841 27.3958 18.1667 27.0344C17.9934 26.9728 17.6248 26.8354 17.3475 26.7289C14.4013 25.598 12.4153 25.1698 10.1764 25.1831C9.61498 25.1863 8.91464 25.2265 8.62004 25.2723Z" fill="#214D7E"/>
</svg>
