<svg width="33" height="30" viewBox="0 0 33 30" fill="none" xmlns="http://www.w3.org/2000/svg">
<path fill-rule="evenodd" clip-rule="evenodd" d="M24.0102 0.0139405C24.0102 0.0216078 23.9976 0.027881 23.9822 0.027881C23.9669 0.027881 23.9543 0.0341543 23.9543 0.0418216C23.9543 0.0494888 23.9447 0.0557621 23.9329 0.0557621C23.9051 0.0557621 23.8147 0.146041 23.8147 0.173796C23.8147 0.185548 23.8084 0.195167 23.8008 0.195167C23.7931 0.195167 23.7868 0.207714 23.7868 0.223048C23.7868 0.238383 23.7805 0.250929 23.7728 0.250929C23.7652 0.250929 23.7589 0.263476 23.7589 0.27881C23.7589 0.294145 23.7526 0.306691 23.7449 0.306691C23.7372 0.306691 23.731 0.325511 23.731 0.348513C23.731 0.371515 23.7247 0.390335 23.717 0.390335C23.7093 0.390335 23.703 0.409154 23.703 0.432156C23.703 0.455158 23.6968 0.473978 23.6891 0.473978C23.6814 0.473978 23.6751 0.492797 23.6751 0.515799C23.6751 0.538801 23.6688 0.557621 23.6612 0.557621C23.6535 0.557621 23.6472 0.582714 23.6472 0.613383C23.6472 0.644052 23.6409 0.669145 23.6332 0.669145C23.6256 0.669145 23.6193 0.694238 23.6193 0.724907C23.6193 0.755576 23.613 0.780669 23.6053 0.780669C23.5977 0.780669 23.5914 0.799489 23.5914 0.822491C23.5914 0.845493 23.5851 0.864312 23.5774 0.864312C23.5697 0.864312 23.5635 0.889405 23.5635 0.920074C23.5635 0.950743 23.5572 0.975836 23.5495 0.975836C23.5418 0.975836 23.5355 0.994656 23.5355 1.01766C23.5355 1.04066 23.5293 1.05948 23.5216 1.05948C23.5139 1.05948 23.5076 1.08457 23.5076 1.11524C23.5076 1.14591 23.5013 1.171 23.4937 1.171C23.486 1.171 23.4797 1.18982 23.4797 1.21283C23.4797 1.23583 23.4734 1.25465 23.4657 1.25465C23.4581 1.25465 23.4518 1.27974 23.4518 1.31041C23.4518 1.34108 23.4455 1.36617 23.4378 1.36617C23.4301 1.36617 23.4239 1.38499 23.4239 1.40799C23.4239 1.43099 23.4176 1.44981 23.4099 1.44981C23.4022 1.44981 23.3959 1.47491 23.3959 1.50558C23.3959 1.53625 23.3897 1.56134 23.382 1.56134C23.3743 1.56134 23.368 1.58016 23.368 1.60316C23.368 1.62616 23.3617 1.64498 23.3541 1.64498C23.3464 1.64498 23.3401 1.67007 23.3401 1.70074C23.3401 1.73141 23.3338 1.75651 23.3261 1.75651C23.3185 1.75651 23.3122 1.77533 23.3122 1.79833C23.3122 1.82133 23.3059 1.84015 23.2982 1.84015C23.2905 1.84015 23.2843 1.86524 23.2843 1.89591C23.2843 1.92658 23.278 1.95167 23.2703 1.95167C23.2626 1.95167 23.2563 1.97677 23.2563 2.00743C23.2563 2.0381 23.2501 2.0632 23.2424 2.0632C23.2347 2.0632 23.2284 2.08202 23.2284 2.10502C23.2284 2.12802 23.2221 2.14684 23.2145 2.14684C23.2068 2.14684 23.2005 2.17193 23.2005 2.2026C23.2005 2.23327 23.1942 2.25836 23.1865 2.25836C23.1789 2.25836 23.1726 2.27718 23.1726 2.30019C23.1726 2.32319 23.1663 2.34201 23.1586 2.34201C23.151 2.34201 23.1447 2.3671 23.1447 2.39777C23.1447 2.42844 23.1384 2.45353 23.1307 2.45353C23.123 2.45353 23.1168 2.47235 23.1168 2.49535C23.1168 2.51836 23.1105 2.53717 23.1028 2.53717C23.0951 2.53717 23.0888 2.56227 23.0888 2.59294C23.0888 2.62361 23.0826 2.6487 23.0749 2.6487C23.0672 2.6487 23.0609 2.66752 23.0609 2.69052C23.0609 2.71352 23.0546 2.73234 23.047 2.73234C23.0393 2.73234 23.033 2.75744 23.033 2.7881C23.033 2.81877 23.0267 2.84387 23.019 2.84387C23.0114 2.84387 23.0051 2.86269 23.0051 2.88569C23.0051 2.90869 22.9988 2.92751 22.9911 2.92751C22.9834 2.92751 22.9772 2.9526 22.9772 2.98327C22.9772 3.01394 22.9709 3.03903 22.9632 3.03903C22.9555 3.03903 22.9492 3.05785 22.9492 3.08086C22.9492 3.10386 22.943 3.12268 22.9353 3.12268C22.9276 3.12268 22.9213 3.14777 22.9213 3.17844C22.9213 3.20911 22.915 3.2342 22.9074 3.2342C22.8997 3.2342 22.8934 3.25929 22.8934 3.28996C22.8934 3.32063 22.8871 3.34573 22.8794 3.34573C22.8718 3.34573 22.8655 3.36454 22.8655 3.38755C22.8655 3.41055 22.8592 3.42937 22.8515 3.42937C22.8438 3.42937 22.8376 3.45446 22.8376 3.48513C22.8376 3.5158 22.8313 3.54089 22.8236 3.54089C22.8159 3.54089 22.8096 3.55971 22.8096 3.58271C22.8096 3.60572 22.8034 3.62454 22.7957 3.62454C22.788 3.62454 22.7817 3.64963 22.7817 3.6803C22.7817 3.71097 22.7754 3.73606 22.7678 3.73606C22.7601 3.73606 22.7538 3.75488 22.7538 3.77788C22.7538 3.80088 22.7475 3.8197 22.7398 3.8197C22.7322 3.8197 22.7259 3.8448 22.7259 3.87546C22.7259 3.90613 22.7196 3.93123 22.7119 3.93123C22.7043 3.93123 22.698 3.95005 22.698 3.97305C22.698 3.99605 22.6917 4.01487 22.684 4.01487C22.6763 4.01487 22.6701 4.03996 22.6701 4.07063C22.6701 4.1013 22.6638 4.12639 22.6561 4.12639C22.6484 4.12639 22.6421 4.14521 22.6421 4.16822C22.6421 4.19122 22.6359 4.21004 22.6282 4.21004C22.6205 4.21004 22.6142 4.23513 22.6142 4.2658C22.6142 4.29647 22.6079 4.32156 22.6003 4.32156C22.5926 4.32156 22.5863 4.34038 22.5863 4.36338C22.5863 4.38638 22.58 4.4052 22.5723 4.4052C22.5647 4.4052 22.5584 4.4303 22.5584 4.46097C22.5584 4.49164 22.5521 4.51673 22.5444 4.51673C22.5367 4.51673 22.5305 4.54182 22.5305 4.57249C22.5305 4.60316 22.5242 4.62825 22.5165 4.62825C22.5088 4.62825 22.5025 4.64707 22.5025 4.67007C22.5025 4.69308 22.4963 4.7119 22.4886 4.7119C22.4809 4.7119 22.4746 4.73699 22.4746 4.76766C22.4746 4.79833 22.4683 4.82342 22.4607 4.82342C22.453 4.82342 22.4467 4.84224 22.4467 4.86524C22.4467 4.88824 22.4404 4.90706 22.4327 4.90706C22.4251 4.90706 22.4188 4.93216 22.4188 4.96283C22.4188 4.99349 22.4125 5.01859 22.4048 5.01859C22.3971 5.01859 22.3909 5.03741 22.3909 5.06041C22.3909 5.08341 22.3846 5.10223 22.3769 5.10223C22.3692 5.10223 22.3629 5.12732 22.3629 5.15799C22.3629 5.18866 22.3567 5.21375 22.349 5.21375C22.3413 5.21375 22.335 5.23257 22.335 5.25558C22.335 5.27858 22.3287 5.2974 22.3211 5.2974C22.3134 5.2974 22.3071 5.32249 22.3071 5.35316C22.3071 5.38383 22.3008 5.40892 22.2931 5.40892C22.2855 5.40892 22.2792 5.42774 22.2792 5.45074C22.2792 5.47375 22.2729 5.49257 22.2652 5.49257C22.2576 5.49257 22.2513 5.51766 22.2513 5.54833C22.2513 5.579 22.245 5.60409 22.2373 5.60409C22.2296 5.60409 22.2234 5.62291 22.2234 5.64591C22.2234 5.66891 22.2171 5.68773 22.2094 5.68773C22.2017 5.68773 22.1954 5.71283 22.1954 5.74349C22.1954 5.77416 22.1891 5.79926 22.1815 5.79926C22.1738 5.79926 22.1675 5.81808 22.1675 5.84108C22.1675 5.86408 22.1612 5.8829 22.1536 5.8829C22.1459 5.8829 22.1396 5.90799 22.1396 5.93866C22.1396 5.96933 22.1333 5.99442 22.1256 5.99442C22.118 5.99442 22.1117 6.01952 22.1117 6.05019C22.1117 6.08085 22.1054 6.10595 22.0977 6.10595C22.09 6.10595 22.0838 6.12477 22.0838 6.14777C22.0838 6.17077 22.0775 6.18959 22.0698 6.18959C22.0621 6.18959 22.0558 6.21468 22.0558 6.24535C22.0558 6.27602 22.0496 6.30112 22.0419 6.30112C22.0342 6.30112 22.0279 6.31993 22.0279 6.34294C22.0279 6.36594 22.0216 6.38476 22.014 6.38476C22.0063 6.38476 22 6.40985 22 6.44052C22 6.47119 21.9937 6.49628 21.986 6.49628C21.9784 6.49628 21.9721 6.5151 21.9721 6.5381C21.9721 6.56111 21.9658 6.57993 21.9581 6.57993C21.9504 6.57993 21.9442 6.60502 21.9442 6.63569C21.9442 6.66636 21.9379 6.69145 21.9302 6.69145C21.9225 6.69145 21.9162 6.71027 21.9162 6.73327C21.9162 6.75627 21.91 6.77509 21.9023 6.77509C21.8946 6.77509 21.8883 6.80019 21.8883 6.83085C21.8883 6.86152 21.882 6.88662 21.8744 6.88662C21.8667 6.88662 21.8604 6.90544 21.8604 6.92844C21.8604 6.95144 21.8541 6.97026 21.8464 6.97026C21.8388 6.97026 21.8325 6.99535 21.8325 7.02602C21.8325 7.05669 21.8262 7.08178 21.8185 7.08178C21.8109 7.08178 21.8046 7.1006 21.8046 7.12361C21.8046 7.14661 21.7983 7.16543 21.7906 7.16543C21.7829 7.16543 21.7766 7.19052 21.7766 7.22119C21.7766 7.25186 21.7704 7.27695 21.7627 7.27695C21.755 7.27695 21.7487 7.29577 21.7487 7.31877C21.7487 7.34177 21.7424 7.36059 21.7348 7.36059C21.7271 7.36059 21.7208 7.38569 21.7208 7.41636C21.7208 7.44703 21.7145 7.47212 21.7069 7.47212C21.6992 7.47212 21.6929 7.49721 21.6929 7.52788C21.6929 7.55855 21.6866 7.58364 21.6789 7.58364C21.6713 7.58364 21.665 7.60246 21.665 7.62546C21.665 7.64847 21.6587 7.66729 21.651 7.66729C21.6433 7.66729 21.6371 7.69238 21.6371 7.72305C21.6371 7.75372 21.6308 7.77881 21.6231 7.77881C21.6154 7.77881 21.6091 7.79763 21.6091 7.82063C21.6091 7.84363 21.6029 7.86245 21.5952 7.86245C21.5875 7.86245 21.5812 7.88755 21.5812 7.91822C21.5812 7.94888 21.5749 7.97398 21.5673 7.97398C21.5596 7.97398 21.5533 7.9928 21.5533 8.0158C21.5533 8.0388 21.547 8.05762 21.5393 8.05762C21.5317 8.05762 21.5254 8.08271 21.5254 8.11338C21.5254 8.14405 21.5191 8.16914 21.5114 8.16914C21.5037 8.16914 21.4975 8.18796 21.4975 8.21097C21.4975 8.23397 21.4912 8.25279 21.4835 8.25279C21.4758 8.25279 21.4695 8.27788 21.4695 8.30855C21.4695 8.33922 21.4633 8.36431 21.4556 8.36431C21.4479 8.36431 21.4416 8.38313 21.4416 8.40613C21.4416 8.42914 21.4353 8.44796 21.4277 8.44796C21.42 8.44796 21.4137 8.47305 21.4137 8.50372C21.4137 8.53439 21.4074 8.55948 21.3997 8.55948C21.3921 8.55948 21.3858 8.5783 21.3858 8.6013C21.3858 8.6243 21.3795 8.64312 21.3718 8.64312C21.3641 8.64312 21.3579 8.66822 21.3579 8.69888C21.3579 8.72955 21.3516 8.75465 21.3439 8.75465C21.3362 8.75465 21.33 8.77347 21.33 8.79647C21.33 8.81947 21.3237 8.83829 21.316 8.83829C21.3083 8.83829 21.302 8.86338 21.302 8.89405C21.302 8.92472 21.2957 8.94981 21.2881 8.94981C21.2804 8.94981 21.2741 8.97491 21.2741 9.00558C21.2741 9.03625 21.2678 9.06134 21.2602 9.06134C21.2525 9.06134 21.2462 9.08016 21.2462 9.10316C21.2462 9.12616 21.2399 9.14498 21.2322 9.14498C21.2246 9.14498 21.2183 9.17007 21.2183 9.20074C21.2183 9.23141 21.212 9.25651 21.2043 9.25651C21.1966 9.25651 21.1904 9.27533 21.1904 9.29833C21.1904 9.32133 21.1841 9.34015 21.1764 9.34015C21.1687 9.34015 21.1624 9.36524 21.1624 9.39591C21.1624 9.42658 21.1562 9.45167 21.1485 9.45167C21.1408 9.45167 21.1345 9.47049 21.1345 9.49349C21.1345 9.5165 21.1282 9.53532 21.1206 9.53532C21.1129 9.53532 21.1066 9.56041 21.1066 9.59108C21.1066 9.62175 21.1003 9.64684 21.0926 9.64684C21.085 9.64684 21.0787 9.66566 21.0787 9.68866C21.0787 9.71166 21.0724 9.73048 21.0647 9.73048C21.057 9.73048 21.0508 9.75558 21.0508 9.78625C21.0508 9.81691 21.0445 9.84201 21.0368 9.84201C21.0291 9.84201 21.0228 9.86083 21.0228 9.88383C21.0228 9.90683 21.0166 9.92565 21.0089 9.92565C21.0012 9.92565 20.9949 9.95074 20.9949 9.98141C20.9949 10.0121 20.9886 10.0372 20.981 10.0372C20.9733 10.0372 20.967 10.056 20.967 10.079C20.967 10.102 20.9607 10.1208 20.953 10.1208C20.9454 10.1208 20.9391 10.1459 20.9391 10.1766C20.9391 10.2072 20.9328 10.2323 20.9251 10.2323C20.9174 10.2323 20.9112 10.2512 20.9112 10.2742C20.9112 10.2972 20.9049 10.316 20.8972 10.316C20.8895 10.316 20.8832 10.3411 20.8832 10.3717C20.8832 10.4024 20.877 10.4275 20.8693 10.4275C20.8616 10.4275 20.8553 10.4463 20.8553 10.4693C20.8553 10.4923 20.849 10.5112 20.8414 10.5112C20.8337 10.5112 20.8274 10.5362 20.8274 10.5669C20.8274 10.5976 20.8211 10.6227 20.8135 10.6227C20.8058 10.6227 20.7995 10.6478 20.7995 10.6784C20.7995 10.7091 20.7932 10.7342 20.7855 10.7342C20.7779 10.7342 20.7716 10.753 20.7716 10.776C20.7716 10.799 20.7653 10.8178 20.7576 10.8178C20.7499 10.8178 20.7437 10.8429 20.7437 10.8736C20.7437 10.9043 20.7374 10.9294 20.7297 10.9294C20.722 10.9294 20.7157 10.9482 20.7157 10.9712C20.7157 10.9942 20.7095 11.013 20.7018 11.013C20.6941 11.013 20.6878 11.0381 20.6878 11.0688C20.6878 11.0994 20.6815 11.1245 20.6739 11.1245C20.6662 11.1245 20.6599 11.1434 20.6599 11.1664C20.6599 11.1894 20.6536 11.2082 20.6459 11.2082C20.6383 11.2082 20.632 11.2333 20.632 11.2639C20.632 11.2946 20.6257 11.3197 20.618 11.3197C20.6103 11.3197 20.6041 11.3385 20.6041 11.3615C20.6041 11.3845 20.5978 11.4033 20.5901 11.4033C20.5823 11.4033 20.5761 11.4405 20.5761 11.487C20.5761 11.5335 20.5699 11.5706 20.5622 11.5706C20.5545 11.5706 20.5482 11.5895 20.5482 11.6125C20.5482 11.6355 20.5545 11.6543 20.5622 11.6543C20.5699 11.6543 20.5761 11.6856 20.5761 11.724C20.5761 11.7623 20.5824 11.7937 20.5901 11.7937C20.5978 11.7937 20.6041 11.8033 20.6041 11.815C20.6041 11.8409 20.7218 11.961 20.7472 11.961C20.7572 11.961 20.7745 11.9735 20.7855 11.9888C20.7974 12.0052 20.8217 12.0167 20.8445 12.0167C20.8658 12.0167 20.8832 12.023 20.8832 12.0307C20.8832 12.0383 20.9021 12.0446 20.9251 12.0446C20.9482 12.0446 20.967 12.0509 20.967 12.0585C20.967 12.0662 20.9859 12.0725 21.0089 12.0725C21.0319 12.0725 21.0508 12.0788 21.0508 12.0864C21.0508 12.0941 21.0696 12.1004 21.0926 12.1004C21.1157 12.1004 21.1345 12.1066 21.1345 12.1143C21.1345 12.122 21.1596 12.1283 21.1904 12.1283C21.2211 12.1283 21.2462 12.1345 21.2462 12.1422C21.2462 12.1499 21.265 12.1561 21.2881 12.1561C21.3111 12.1561 21.33 12.1624 21.33 12.1701C21.33 12.1777 21.3551 12.184 21.3858 12.184C21.4165 12.184 21.4416 12.1903 21.4416 12.198C21.4416 12.2056 21.4605 12.2119 21.4835 12.2119C21.5065 12.2119 21.5254 12.2182 21.5254 12.2258C21.5254 12.2335 21.5505 12.2398 21.5812 12.2398C21.6119 12.2398 21.6371 12.246 21.6371 12.2537C21.6371 12.2614 21.6622 12.2677 21.6929 12.2677C21.7236 12.2677 21.7487 12.2739 21.7487 12.2816C21.7487 12.2893 21.7676 12.2955 21.7906 12.2955C21.8136 12.2955 21.8325 12.3018 21.8325 12.3095C21.8325 12.3171 21.8576 12.3234 21.8883 12.3234C21.919 12.3234 21.9442 12.3297 21.9442 12.3374C21.9442 12.345 21.9693 12.3513 22 12.3513C22.0307 12.3513 22.0558 12.3576 22.0558 12.3652C22.0558 12.3729 22.0747 12.3792 22.0977 12.3792C22.1207 12.3792 22.1396 12.3855 22.1396 12.3931C22.1396 12.4008 22.1647 12.4071 22.1954 12.4071C22.2261 12.4071 22.2513 12.4133 22.2513 12.421C22.2513 12.4287 22.2764 12.4349 22.3071 12.4349C22.3378 12.4349 22.3629 12.4412 22.3629 12.4489C22.3629 12.4573 22.4234 12.4628 22.5165 12.4628C22.6096 12.4628 22.6701 12.4573 22.6701 12.4489C22.6701 12.4412 22.6875 12.4349 22.7088 12.4349C22.7316 12.4349 22.7559 12.4234 22.7678 12.4071C22.7788 12.3917 22.7964 12.3792 22.8067 12.3792C22.831 12.3792 22.8655 12.3448 22.8655 12.3205C22.8655 12.3102 22.878 12.2927 22.8934 12.2816C22.9088 12.2705 22.9213 12.2503 22.9213 12.2367C22.9213 12.2231 22.9276 12.2119 22.9353 12.2119C22.943 12.2119 22.9492 12.1993 22.9492 12.184C22.9492 12.1687 22.9555 12.1561 22.9632 12.1561C22.9709 12.1561 22.9772 12.1373 22.9772 12.1143C22.9772 12.0913 22.9834 12.0725 22.9911 12.0725C22.9988 12.0725 23.0051 12.0537 23.0051 12.0307C23.0051 12.0077 23.0114 11.9888 23.019 11.9888C23.0267 11.9888 23.033 11.97 23.033 11.947C23.033 11.924 23.0393 11.9052 23.047 11.9052C23.0546 11.9052 23.0609 11.8801 23.0609 11.8494C23.0609 11.8188 23.0672 11.7937 23.0749 11.7937C23.0826 11.7937 23.0888 11.7749 23.0888 11.7519C23.0888 11.7289 23.0951 11.71 23.1028 11.71C23.1105 11.71 23.1168 11.6849 23.1168 11.6543C23.1168 11.6236 23.123 11.5985 23.1307 11.5985C23.1384 11.5985 23.1447 11.5797 23.1447 11.5567C23.1447 11.5337 23.151 11.5149 23.1586 11.5149C23.1663 11.5149 23.1726 11.4898 23.1726 11.4591C23.1726 11.4284 23.1789 11.4033 23.1865 11.4033C23.1942 11.4033 23.2005 11.3845 23.2005 11.3615C23.2005 11.3385 23.2068 11.3197 23.2145 11.3197C23.2221 11.3197 23.2284 11.2946 23.2284 11.2639C23.2284 11.2333 23.2347 11.2082 23.2424 11.2082C23.2501 11.2082 23.2563 11.1894 23.2563 11.1664C23.2563 11.1434 23.2626 11.1245 23.2703 11.1245C23.278 11.1245 23.2843 11.0994 23.2843 11.0688C23.2843 11.0381 23.2905 11.013 23.2982 11.013C23.3059 11.013 23.3122 10.9879 23.3122 10.9572C23.3122 10.9266 23.3185 10.9015 23.3261 10.9015C23.3338 10.9015 23.3401 10.8827 23.3401 10.8597C23.3401 10.8367 23.3464 10.8178 23.3541 10.8178C23.3617 10.8178 23.368 10.7928 23.368 10.7621C23.368 10.7314 23.3743 10.7063 23.382 10.7063C23.3897 10.7063 23.3959 10.6875 23.3959 10.6645C23.3959 10.6415 23.4022 10.6227 23.4099 10.6227C23.4176 10.6227 23.4239 10.5976 23.4239 10.5669C23.4239 10.5362 23.4301 10.5112 23.4378 10.5112C23.4455 10.5112 23.4518 10.4923 23.4518 10.4693C23.4518 10.4463 23.4581 10.4275 23.4657 10.4275C23.4734 10.4275 23.4797 10.4024 23.4797 10.3717C23.4797 10.3411 23.486 10.316 23.4937 10.316C23.5013 10.316 23.5076 10.2972 23.5076 10.2742C23.5076 10.2512 23.5139 10.2323 23.5216 10.2323C23.5293 10.2323 23.5355 10.2072 23.5355 10.1766C23.5355 10.1459 23.5418 10.1208 23.5495 10.1208C23.5572 10.1208 23.5635 10.102 23.5635 10.079C23.5635 10.056 23.5697 10.0372 23.5774 10.0372C23.5851 10.0372 23.5914 10.0121 23.5914 9.98141C23.5914 9.95074 23.5977 9.92565 23.6053 9.92565C23.613 9.92565 23.6193 9.9131 23.6193 9.89777C23.6193 9.88243 23.6256 9.86989 23.6332 9.86989C23.6409 9.86989 23.6472 9.85404 23.6472 9.83467C23.6472 9.79529 23.7574 9.67472 23.7934 9.67472C23.8051 9.67472 23.8147 9.66845 23.8147 9.66078C23.8147 9.65311 23.8259 9.64684 23.8396 9.64684C23.8532 9.64684 23.8734 9.63429 23.8845 9.61896C23.8956 9.60362 23.9158 9.59108 23.9295 9.59108C23.9431 9.59108 23.9543 9.5848 23.9543 9.57714C23.9543 9.56947 23.9655 9.5632 23.9791 9.5632C23.9928 9.5632 24.013 9.55065 24.0241 9.53532C24.0352 9.51998 24.0554 9.50743 24.0691 9.50743C24.0827 9.50743 24.0939 9.50116 24.0939 9.49349C24.0939 9.48583 24.1065 9.47955 24.1218 9.47955C24.1372 9.47955 24.1497 9.47328 24.1497 9.46561C24.1497 9.45795 24.1623 9.45167 24.1777 9.45167C24.193 9.45167 24.2056 9.4454 24.2056 9.43773C24.2056 9.43007 24.2168 9.42379 24.2304 9.42379C24.2441 9.42379 24.2643 9.41125 24.2754 9.39591C24.2865 9.38058 24.3067 9.36803 24.3203 9.36803C24.334 9.36803 24.3452 9.36176 24.3452 9.35409C24.3452 9.34642 24.3577 9.34015 24.3731 9.34015C24.3885 9.34015 24.401 9.33388 24.401 9.32621C24.401 9.31854 24.4136 9.31227 24.4289 9.31227C24.4443 9.31227 24.4569 9.30599 24.4569 9.29833C24.4569 9.29066 24.468 9.28439 24.4817 9.28439C24.4954 9.28439 24.5156 9.27184 24.5266 9.25651C24.5377 9.24117 24.5579 9.22862 24.5716 9.22862C24.5853 9.22862 24.5964 9.22235 24.5964 9.21468C24.5964 9.20702 24.609 9.20074 24.6244 9.20074C24.6397 9.20074 24.6523 9.19447 24.6523 9.1868C24.6523 9.17914 24.6648 9.17286 24.6802 9.17286C24.6956 9.17286 24.7081 9.16659 24.7081 9.15892C24.7081 9.15125 24.7207 9.14498 24.736 9.14498C24.7514 9.14498 24.764 9.13871 24.764 9.13104C24.764 9.12337 24.7751 9.1171 24.7888 9.1171C24.8025 9.1171 24.8227 9.10455 24.8338 9.08922C24.8448 9.07388 24.8651 9.06134 24.8787 9.06134C24.9024 9.06134 24.9036 9.16231 24.9036 11.2779V13.4944H24.8338C24.7954 13.4944 24.764 13.5007 24.764 13.5084C24.764 13.5161 24.7267 13.5223 24.6802 13.5223C24.6337 13.5223 24.5964 13.5285 24.5964 13.5362C24.5964 13.5439 24.5713 13.5502 24.5406 13.5502C24.5099 13.5502 24.4848 13.5565 24.4848 13.5641C24.4848 13.5718 24.4596 13.5781 24.4289 13.5781C24.3982 13.5781 24.3731 13.5843 24.3731 13.592C24.3731 13.5997 24.348 13.6059 24.3173 13.6059C24.2865 13.6059 24.2614 13.6122 24.2614 13.6199C24.2614 13.6276 24.2426 13.6338 24.2195 13.6338C24.1965 13.6338 24.1777 13.6401 24.1777 13.6478C24.1777 13.6554 24.1651 13.6617 24.1497 13.6617C24.1344 13.6617 24.1218 13.668 24.1218 13.6757C24.1218 13.6833 24.103 13.6896 24.08 13.6896C24.0569 13.6896 24.0381 13.6959 24.0381 13.7035C24.0381 13.7112 24.0255 13.7175 24.0102 13.7175C23.9948 13.7175 23.9822 13.7237 23.9822 13.7314C23.9822 13.7391 23.9697 13.7454 23.9543 13.7454C23.939 13.7454 23.9264 13.7516 23.9264 13.7593C23.9264 13.767 23.9138 13.7732 23.8985 13.7732C23.8831 13.7732 23.8706 13.7795 23.8706 13.7872C23.8706 13.7948 23.858 13.8011 23.8426 13.8011C23.8273 13.8011 23.8147 13.8074 23.8147 13.8151C23.8147 13.8227 23.8022 13.829 23.7868 13.829C23.7714 13.829 23.7589 13.8353 23.7589 13.8429C23.7589 13.8506 23.7488 13.8569 23.7366 13.8569C23.7243 13.8569 23.6966 13.8757 23.6751 13.8987C23.6536 13.9217 23.629 13.9405 23.6204 13.9405C23.5986 13.9405 23.4239 14.1172 23.4239 14.1393C23.4239 14.1493 23.4113 14.1665 23.3959 14.1775C23.3806 14.1886 23.368 14.2088 23.368 14.2224C23.368 14.236 23.3617 14.2472 23.3541 14.2472C23.3464 14.2472 23.3401 14.2723 23.3401 14.303C23.3401 14.3336 23.3338 14.3587 23.3261 14.3587C23.3185 14.3587 23.3122 14.3901 23.3122 14.4284C23.3122 14.4668 23.3185 14.4981 23.3261 14.4981C23.3338 14.4981 23.3401 14.5078 23.3401 14.5197C23.3401 14.5536 23.405 14.6097 23.4442 14.6097C23.4637 14.6097 23.4797 14.6159 23.4797 14.6236C23.4797 14.6328 24.1544 14.6375 25.4759 14.6375C26.7974 14.6375 27.4721 14.6328 27.4721 14.6236C27.4721 14.6159 27.4881 14.6097 27.5076 14.6097C27.5468 14.6097 27.6117 14.5536 27.6117 14.5197C27.6117 14.5078 27.618 14.4981 27.6256 14.4981C27.6334 14.4981 27.6396 14.461 27.6396 14.4145C27.6396 14.368 27.6334 14.3309 27.6256 14.3309C27.618 14.3309 27.6117 14.312 27.6117 14.289C27.6117 14.266 27.6054 14.2472 27.5977 14.2472C27.59 14.2472 27.5838 14.236 27.5838 14.2224C27.5838 14.2088 27.5712 14.1886 27.5558 14.1775C27.5405 14.1665 27.5279 14.1493 27.5279 14.1393C27.5279 14.1158 27.3524 13.9405 27.3288 13.9405C27.3189 13.9405 27.3017 13.928 27.2906 13.9126C27.2795 13.8973 27.2607 13.8848 27.2487 13.8848C27.2368 13.8848 27.2179 13.8722 27.2069 13.8569C27.1958 13.8415 27.1756 13.829 27.1619 13.829C27.1482 13.829 27.1371 13.8227 27.1371 13.8151C27.1371 13.8074 27.1245 13.8011 27.1091 13.8011C27.0938 13.8011 27.0812 13.7948 27.0812 13.7872C27.0812 13.7795 27.0687 13.7732 27.0533 13.7732C27.0379 13.7732 27.0254 13.767 27.0254 13.7593C27.0254 13.7516 27.0128 13.7454 26.9975 13.7454C26.9821 13.7454 26.9695 13.7391 26.9695 13.7314C26.9695 13.7237 26.957 13.7175 26.9416 13.7175C26.9263 13.7175 26.9137 13.7112 26.9137 13.7035C26.9137 13.6959 26.8949 13.6896 26.8718 13.6896C26.8488 13.6896 26.83 13.6833 26.83 13.6757C26.83 13.668 26.8111 13.6617 26.7881 13.6617C26.765 13.6617 26.7462 13.6554 26.7462 13.6478C26.7462 13.6401 26.7273 13.6338 26.7043 13.6338C26.6813 13.6338 26.6624 13.6276 26.6624 13.6199C26.6624 13.6122 26.6436 13.6059 26.6206 13.6059C26.5975 13.6059 26.5787 13.5997 26.5787 13.592C26.5787 13.5843 26.5536 13.5781 26.5228 13.5781C26.4921 13.5781 26.467 13.5718 26.467 13.5641C26.467 13.5565 26.4356 13.5502 26.3972 13.5502C26.3588 13.5502 26.3274 13.5439 26.3274 13.5362C26.3274 13.5286 26.296 13.5223 26.2576 13.5223H26.1878V12.9647C26.1878 12.6022 26.1829 12.4071 26.1739 12.4071C26.1646 12.4071 26.1599 11.7658 26.1599 10.5112C26.1599 9.25651 26.1646 8.61524 26.1739 8.61524C26.183 8.61524 26.1878 8.32249 26.1878 7.76487C26.1878 7.20725 26.183 6.9145 26.1739 6.9145C26.1653 6.9145 26.1599 6.84944 26.1599 6.74721C26.1599 6.64499 26.1545 6.57993 26.1459 6.57993C26.1378 6.57993 26.132 6.53346 26.132 6.4684C26.132 6.40334 26.1262 6.35688 26.118 6.35688C26.1101 6.35688 26.1041 6.31506 26.1041 6.25929C26.1041 6.20353 26.0981 6.16171 26.0901 6.16171C26.0824 6.16171 26.0761 6.13034 26.0761 6.09201C26.0761 6.05367 26.0699 6.02231 26.0622 6.02231C26.0545 6.02231 26.0482 5.99094 26.0482 5.9526C26.0482 5.91427 26.0419 5.8829 26.0343 5.8829C26.0266 5.8829 26.0203 5.85781 26.0203 5.82714C26.0203 5.79647 26.014 5.77138 26.0063 5.77138C25.9987 5.77138 25.9924 5.74628 25.9924 5.71561C25.9924 5.68494 25.9861 5.65985 25.9784 5.65985C25.9707 5.65985 25.9645 5.63476 25.9645 5.60409C25.9645 5.57342 25.9582 5.54833 25.9505 5.54833C25.9428 5.54833 25.9365 5.52951 25.9365 5.50651C25.9365 5.4835 25.9303 5.46468 25.9226 5.46468C25.9149 5.46468 25.9086 5.44586 25.9086 5.42286C25.9086 5.39986 25.9023 5.38104 25.8947 5.38104C25.887 5.38104 25.8807 5.36222 25.8807 5.33922C25.8807 5.31622 25.8744 5.2974 25.8668 5.2974C25.8591 5.2974 25.8528 5.27858 25.8528 5.25558C25.8528 5.23257 25.8465 5.21375 25.8388 5.21375C25.8312 5.21375 25.8249 5.19493 25.8249 5.17193C25.8249 5.14893 25.8186 5.13011 25.8109 5.13011C25.8032 5.13011 25.797 5.11757 25.797 5.10223C25.797 5.0869 25.7907 5.07435 25.783 5.07435C25.7753 5.07435 25.769 5.0618 25.769 5.04647C25.769 5.03113 25.7628 5.01859 25.7551 5.01859C25.7474 5.01859 25.7411 4.99977 25.7411 4.97677C25.7411 4.95376 25.7348 4.93494 25.7272 4.93494C25.7195 4.93494 25.7132 4.9224 25.7132 4.90706C25.7132 4.89173 25.7069 4.87918 25.6992 4.87918C25.6916 4.87918 25.6853 4.86664 25.6853 4.8513C25.6853 4.83597 25.679 4.82342 25.6713 4.82342C25.6636 4.82342 25.6574 4.81087 25.6574 4.79554C25.6574 4.7802 25.6511 4.76766 25.6434 4.76766C25.6357 4.76766 25.6294 4.75511 25.6294 4.73978C25.6294 4.72444 25.6232 4.7119 25.6155 4.7119C25.6078 4.7119 25.6015 4.69935 25.6015 4.68401C25.6015 4.66868 25.5952 4.65613 25.5876 4.65613C25.5799 4.65613 25.5736 4.64359 25.5736 4.62825C25.5736 4.61292 25.5673 4.60037 25.5596 4.60037C25.552 4.60037 25.5457 4.58783 25.5457 4.57249C25.5457 4.55716 25.5394 4.54461 25.5317 4.54461C25.524 4.54461 25.5178 4.53344 25.5178 4.51981C25.5178 4.50616 25.5052 4.48596 25.4898 4.47491C25.4745 4.46385 25.4619 4.44365 25.4619 4.43C25.4619 4.41637 25.4556 4.4052 25.448 4.4052C25.4403 4.4052 25.434 4.39266 25.434 4.37732C25.434 4.36199 25.4277 4.34944 25.4201 4.34944C25.4124 4.34944 25.4061 4.3369 25.4061 4.32156C25.4061 4.30623 25.3998 4.29368 25.3921 4.29368C25.3845 4.29368 25.3782 4.27486 25.3782 4.25186C25.3782 4.22886 25.3719 4.21004 25.3642 4.21004C25.3563 4.21004 25.3503 4.16861 25.3503 4.11361C25.3503 4.05011 25.3443 4.01442 25.3328 4.00906C25.3188 4.00256 25.3188 3.9993 25.3328 3.9928C25.3446 3.9873 25.3503 3.94896 25.3503 3.87431C25.3503 3.81003 25.3561 3.76394 25.3642 3.76394C25.3719 3.76394 25.3782 3.73885 25.3782 3.70818C25.3782 3.67751 25.3845 3.65242 25.3921 3.65242C25.3998 3.65242 25.4061 3.62732 25.4061 3.59665C25.4061 3.56599 25.4124 3.54089 25.4201 3.54089C25.4277 3.54089 25.434 3.5158 25.434 3.48513C25.434 3.45446 25.4403 3.42937 25.448 3.42937C25.4556 3.42937 25.4619 3.41055 25.4619 3.38755C25.4619 3.36454 25.4682 3.34573 25.4759 3.34573C25.4836 3.34573 25.4898 3.32063 25.4898 3.28996C25.4898 3.25929 25.4961 3.2342 25.5038 3.2342C25.5115 3.2342 25.5178 3.20911 25.5178 3.17844C25.5178 3.14777 25.524 3.12268 25.5317 3.12268C25.5394 3.12268 25.5457 3.10386 25.5457 3.08086C25.5457 3.05785 25.552 3.03903 25.5596 3.03903C25.5673 3.03903 25.5736 3.01394 25.5736 2.98327C25.5736 2.9526 25.5799 2.92751 25.5876 2.92751C25.5952 2.92751 25.6015 2.90869 25.6015 2.88569C25.6015 2.86269 25.6078 2.84387 25.6155 2.84387C25.6232 2.84387 25.6294 2.81877 25.6294 2.7881C25.6294 2.75744 25.6357 2.73234 25.6434 2.73234C25.6511 2.73234 25.6574 2.70725 25.6574 2.67658C25.6574 2.64591 25.6636 2.62082 25.6713 2.62082C25.679 2.62082 25.6853 2.602 25.6853 2.579C25.6853 2.55599 25.6916 2.53717 25.6992 2.53717C25.7069 2.53717 25.7132 2.51208 25.7132 2.48141C25.7132 2.45074 25.7195 2.42565 25.7272 2.42565C25.7348 2.42565 25.7411 2.40683 25.7411 2.38383C25.7411 2.36083 25.7474 2.34201 25.7551 2.34201C25.7628 2.34201 25.769 2.31691 25.769 2.28625C25.769 2.25558 25.7753 2.23048 25.783 2.23048C25.7907 2.23048 25.797 2.21166 25.797 2.18866C25.797 2.16566 25.8032 2.14684 25.8109 2.14684C25.8186 2.14684 25.8249 2.12175 25.8249 2.09108C25.8249 2.06041 25.8312 2.03532 25.8388 2.03532C25.8465 2.03532 25.8528 2.0165 25.8528 1.99349C25.8528 1.97049 25.8591 1.95167 25.8668 1.95167C25.8744 1.95167 25.8807 1.92658 25.8807 1.89591C25.8807 1.86524 25.887 1.84015 25.8947 1.84015C25.9023 1.84015 25.9086 1.82133 25.9086 1.79833C25.9086 1.77533 25.9149 1.75651 25.9226 1.75651C25.9303 1.75651 25.9365 1.73141 25.9365 1.70074C25.9365 1.67007 25.9428 1.64498 25.9505 1.64498C25.9582 1.64498 25.9645 1.62616 25.9645 1.60316C25.9645 1.58016 25.9707 1.56134 25.9784 1.56134C25.9861 1.56134 25.9924 1.53625 25.9924 1.50558C25.9924 1.47491 25.9987 1.44981 26.0063 1.44981C26.014 1.44981 26.0203 1.43099 26.0203 1.40799C26.0203 1.38499 26.0266 1.36617 26.0343 1.36617C26.0419 1.36617 26.0482 1.34108 26.0482 1.31041C26.0482 1.27974 26.0545 1.25465 26.0622 1.25465C26.0699 1.25465 26.0761 1.22955 26.0761 1.19888C26.0761 1.16822 26.0824 1.14312 26.0901 1.14312C26.0978 1.14312 26.1041 1.1243 26.1041 1.1013C26.1041 1.0783 26.1103 1.05948 26.118 1.05948C26.1258 1.05948 26.132 1.0223 26.132 0.975836C26.132 0.929373 26.1382 0.892193 26.1459 0.892193C26.1536 0.892193 26.1599 0.8671 26.1599 0.836431C26.1599 0.805762 26.1536 0.780669 26.1459 0.780669C26.1383 0.780669 26.132 0.755576 26.132 0.724907C26.132 0.694238 26.1257 0.669145 26.118 0.669145C26.1103 0.669145 26.1041 0.659596 26.1041 0.647928C26.1041 0.620325 25.9575 0.473978 25.9299 0.473978C25.9182 0.473978 25.9086 0.467704 25.9086 0.460037C25.9086 0.45237 25.8961 0.446097 25.8807 0.446097C25.8654 0.446097 25.8528 0.439823 25.8528 0.432156C25.8528 0.424489 25.8339 0.418216 25.8109 0.418216C25.7879 0.418216 25.769 0.411942 25.769 0.404275C25.769 0.396608 25.7502 0.390335 25.7272 0.390335C25.7041 0.390335 25.6853 0.384061 25.6853 0.376394C25.6853 0.368727 25.6602 0.362454 25.6294 0.362454C25.5987 0.362454 25.5736 0.35618 25.5736 0.348513C25.5736 0.340846 25.5548 0.334572 25.5317 0.334572C25.5087 0.334572 25.4898 0.328299 25.4898 0.320632C25.4898 0.312965 25.4647 0.306691 25.434 0.306691C25.4033 0.306691 25.3782 0.300418 25.3782 0.292751C25.3782 0.285084 25.3593 0.27881 25.3363 0.27881C25.3133 0.27881 25.2944 0.272537 25.2944 0.26487C25.2944 0.257203 25.2693 0.250929 25.2386 0.250929C25.2079 0.250929 25.1827 0.244656 25.1827 0.236989C25.1827 0.229322 25.1576 0.223048 25.1269 0.223048C25.0962 0.223048 25.0711 0.216775 25.0711 0.209108C25.0711 0.201441 25.0459 0.195167 25.0152 0.195167C24.9845 0.195167 24.9594 0.188894 24.9594 0.181227C24.9594 0.173559 24.9405 0.167286 24.9175 0.167286C24.8945 0.167286 24.8756 0.161013 24.8756 0.153346C24.8756 0.145678 24.8505 0.139405 24.8198 0.139405C24.7891 0.139405 24.764 0.133132 24.764 0.125465C24.764 0.117797 24.7388 0.111524 24.7081 0.111524C24.6774 0.111524 24.6523 0.105251 24.6523 0.0975836C24.6523 0.0899164 24.6272 0.0836431 24.5964 0.0836431C24.5657 0.0836431 24.5406 0.0773699 24.5406 0.0697026C24.5406 0.0620353 24.5218 0.0557621 24.4987 0.0557621C24.4757 0.0557621 24.4569 0.0494888 24.4569 0.0418216C24.4569 0.0341543 24.4254 0.027881 24.3871 0.027881C24.3487 0.027881 24.3173 0.0216078 24.3173 0.0139405C24.3173 0.00549257 24.2568 0 24.1637 0C24.0706 0 24.0102 0.00549257 24.0102 0.0139405ZM7.53807 2.74628C7.53807 2.75403 7.50084 2.76022 7.45431 2.76022C7.40779 2.76022 7.37056 2.76641 7.37056 2.77416C7.37056 2.78183 7.33915 2.7881 7.30076 2.7881C7.26237 2.7881 7.23096 2.79438 7.23096 2.80204C7.23096 2.80971 7.20584 2.81599 7.17513 2.81599C7.14442 2.81599 7.11929 2.82226 7.11929 2.82993C7.11929 2.83759 7.09416 2.84387 7.06345 2.84387C7.03274 2.84387 7.00761 2.85014 7.00761 2.85781C7.00761 2.86547 6.98877 2.87175 6.96574 2.87175C6.9427 2.87175 6.92386 2.87802 6.92386 2.88569C6.92386 2.89336 6.90501 2.89963 6.88198 2.89963C6.85895 2.89963 6.8401 2.9059 6.8401 2.91357C6.8401 2.92124 6.82754 2.92751 6.81218 2.92751C6.79683 2.92751 6.78426 2.93378 6.78426 2.94145C6.78426 2.94912 6.7717 2.95539 6.75635 2.95539C6.74099 2.95539 6.72843 2.96166 6.72843 2.96933C6.72843 2.977 6.70958 2.98327 6.68655 2.98327C6.66352 2.98327 6.64467 2.98954 6.64467 2.99721C6.64467 3.00488 6.63211 3.01115 6.61675 3.01115C6.6014 3.01115 6.58883 3.01743 6.58883 3.02509C6.58883 3.03276 6.57627 3.03903 6.56091 3.03903C6.54556 3.03903 6.533 3.04531 6.533 3.05297C6.533 3.06064 6.52181 3.06691 6.50816 3.06691C6.49449 3.06691 6.47427 3.07946 6.4632 3.0948C6.45213 3.11013 6.4319 3.12268 6.41823 3.12268C6.40458 3.12268 6.3934 3.12895 6.3934 3.13662C6.3934 3.14428 6.38222 3.15056 6.36857 3.15056C6.3549 3.15056 6.33467 3.1631 6.3236 3.17844C6.31253 3.19377 6.29369 3.20632 6.28173 3.20632C6.26976 3.20632 6.25092 3.21887 6.23985 3.2342C6.22878 3.24954 6.21106 3.26208 6.20048 3.26208C6.18992 3.26208 6.16364 3.2809 6.14213 3.3039C6.12062 3.32691 6.09562 3.34573 6.08657 3.34573C6.07754 3.34573 6.04601 3.37082 6.0165 3.40149C5.98699 3.43216 5.956 3.45725 5.94762 3.45725C5.92773 3.45725 5.66751 3.71711 5.66751 3.73698C5.66751 3.74534 5.64239 3.77629 5.61168 3.80576C5.58096 3.83523 5.55584 3.86672 5.55584 3.87574C5.55584 3.88478 5.53699 3.90974 5.51396 3.93123C5.49093 3.95271 5.47208 3.97895 5.47208 3.9895C5.47208 4.00006 5.45952 4.01776 5.44416 4.02881C5.42881 4.03987 5.41624 4.05868 5.41624 4.07063C5.41624 4.08258 5.40368 4.1014 5.38832 4.11245C5.37297 4.12351 5.36041 4.14233 5.36041 4.15427C5.36041 4.16622 5.34784 4.18504 5.33249 4.1961C5.31713 4.20715 5.30457 4.22735 5.30457 4.241C5.30457 4.25463 5.29829 4.2658 5.29061 4.2658C5.28293 4.2658 5.27665 4.27835 5.27665 4.29368C5.27665 4.30901 5.27037 4.32156 5.26269 4.32156C5.25501 4.32156 5.24873 4.33411 5.24873 4.34944C5.24873 4.36478 5.24245 4.37732 5.23477 4.37732C5.22709 4.37732 5.22081 4.38987 5.22081 4.4052C5.22081 4.42054 5.21453 4.43309 5.20685 4.43309C5.19918 4.43309 5.19289 4.44563 5.19289 4.46097C5.19289 4.4763 5.18661 4.48885 5.17893 4.48885C5.17126 4.48885 5.16497 4.50767 5.16497 4.53067C5.16497 4.55367 5.15869 4.57249 5.15102 4.57249C5.14334 4.57249 5.13706 4.58504 5.13706 4.60037C5.13706 4.61571 5.13077 4.62825 5.1231 4.62825C5.11542 4.62825 5.10914 4.64707 5.10914 4.67007C5.10914 4.69308 5.10286 4.7119 5.09518 4.7119C5.0875 4.7119 5.08122 4.73072 5.08122 4.75372C5.08122 4.77672 5.07494 4.79554 5.06726 4.79554C5.05958 4.79554 5.0533 4.81436 5.0533 4.83736C5.0533 4.86036 5.04702 4.87918 5.03934 4.87918C5.03166 4.87918 5.02538 4.898 5.02538 4.921C5.02538 4.94401 5.0191 4.96283 5.01142 4.96283C5.00374 4.96283 4.99746 4.99419 4.99746 5.03253C4.99746 5.07086 4.99118 5.10223 4.9835 5.10223C4.97582 5.10223 4.96954 5.1336 4.96954 5.17193C4.96954 5.21027 4.96326 5.24164 4.95558 5.24164C4.94761 5.24164 4.94162 5.28346 4.94162 5.33922C4.94162 5.39498 4.93564 5.4368 4.92767 5.4368C4.9188 5.4368 4.91371 5.54368 4.91371 5.72955C4.91371 5.91542 4.9188 6.02231 4.92767 6.02231C4.9358 6.02231 4.94162 6.06877 4.94162 6.13383C4.94162 6.19889 4.94745 6.24535 4.95558 6.24535C4.96326 6.24535 4.96954 6.27672 4.96954 6.31506C4.96954 6.35339 4.97582 6.38476 4.9835 6.38476C4.99118 6.38476 4.99746 6.41612 4.99746 6.45446C4.99746 6.4928 5.00374 6.52416 5.01142 6.52416C5.0191 6.52416 5.02538 6.54298 5.02538 6.56599C5.02538 6.58899 5.03166 6.60781 5.03934 6.60781C5.04702 6.60781 5.0533 6.62663 5.0533 6.64963C5.0533 6.67263 5.05958 6.69145 5.06726 6.69145C5.07494 6.69145 5.08122 6.71027 5.08122 6.73327C5.08122 6.75627 5.0875 6.77509 5.09518 6.77509C5.10286 6.77509 5.10914 6.79391 5.10914 6.81691C5.10914 6.83992 5.11542 6.85874 5.1231 6.85874C5.13077 6.85874 5.13706 6.87128 5.13706 6.88662C5.13706 6.90195 5.14334 6.9145 5.15102 6.9145C5.15869 6.9145 5.16497 6.93332 5.16497 6.95632C5.16497 6.97932 5.17126 6.99814 5.17893 6.99814C5.18661 6.99814 5.19289 7.01069 5.19289 7.02602C5.19289 7.04136 5.19918 7.0539 5.20685 7.0539C5.21453 7.0539 5.22081 7.06645 5.22081 7.08178C5.22081 7.09712 5.22709 7.10967 5.23477 7.10967C5.24245 7.10967 5.24873 7.12221 5.24873 7.13755C5.24873 7.15288 5.25501 7.16543 5.26269 7.16543C5.27037 7.16543 5.27665 7.17659 5.27665 7.19023C5.27665 7.20388 5.28921 7.22408 5.30457 7.23513C5.31992 7.24618 5.33249 7.26639 5.33249 7.28003C5.33249 7.29367 5.33877 7.30483 5.34645 7.30483C5.35412 7.30483 5.36041 7.316 5.36041 7.32963C5.36041 7.34328 5.37297 7.36348 5.38832 7.37454C5.40368 7.38559 5.41624 7.40328 5.41624 7.41385C5.41624 7.4244 5.43509 7.45064 5.45812 7.47212C5.48115 7.4936 5.5 7.51869 5.5 7.52788C5.5 7.53707 5.51885 7.56216 5.54188 7.58364C5.56491 7.60513 5.58376 7.62966 5.58376 7.63816C5.58376 7.65817 5.92765 8.00186 5.94766 8.00186C5.95601 8.00186 5.98699 8.02695 6.0165 8.05762C6.04601 8.08829 6.07867 8.11338 6.0891 8.11338C6.09953 8.11338 6.1171 8.12593 6.12817 8.14126C6.13924 8.1566 6.15809 8.16914 6.17005 8.16914C6.18201 8.16914 6.20086 8.18169 6.21193 8.19703C6.223 8.21236 6.24184 8.22491 6.25381 8.22491C6.26577 8.22491 6.28462 8.23745 6.29569 8.25279C6.30676 8.26812 6.32698 8.28067 6.34065 8.28067C6.3543 8.28067 6.36548 8.28694 6.36548 8.29461C6.36548 8.30228 6.37805 8.30855 6.3934 8.30855C6.40876 8.30855 6.42132 8.31482 6.42132 8.32249C6.42132 8.33016 6.43388 8.33643 6.44924 8.33643C6.46459 8.33643 6.47716 8.3427 6.47716 8.35037C6.47716 8.35804 6.48972 8.36431 6.50508 8.36431C6.52043 8.36431 6.533 8.37059 6.533 8.37825C6.533 8.38592 6.54556 8.39219 6.56091 8.39219C6.57627 8.39219 6.58883 8.39847 6.58883 8.40613C6.58883 8.4138 6.6014 8.42007 6.61675 8.42007C6.63211 8.42007 6.64467 8.42635 6.64467 8.43402C6.64467 8.44168 6.65723 8.44796 6.67259 8.44796C6.68794 8.44796 6.70051 8.45423 6.70051 8.4619C6.70051 8.46956 6.71935 8.47584 6.74239 8.47584C6.76542 8.47584 6.78426 8.48211 6.78426 8.48978C6.78426 8.49744 6.79683 8.50372 6.81218 8.50372C6.82754 8.50372 6.8401 8.50999 6.8401 8.51766C6.8401 8.52533 6.85895 8.5316 6.88198 8.5316C6.90501 8.5316 6.92386 8.53787 6.92386 8.54554C6.92386 8.55321 6.94898 8.55948 6.9797 8.55948C7.01041 8.55948 7.03553 8.56575 7.03553 8.57342C7.03553 8.58109 7.05438 8.58736 7.07741 8.58736C7.10044 8.58736 7.11929 8.59363 7.11929 8.6013C7.11929 8.60897 7.1507 8.61524 7.18909 8.61524C7.22747 8.61524 7.25888 8.62152 7.25888 8.62918C7.25888 8.63685 7.29029 8.64312 7.32868 8.64312C7.36707 8.64312 7.39848 8.6494 7.39848 8.65706C7.39848 8.66519 7.445 8.671 7.51015 8.671C7.5753 8.671 7.62183 8.67682 7.62183 8.68494C7.62183 8.6938 7.72885 8.69888 7.91497 8.69888C8.1011 8.69888 8.20812 8.6938 8.20812 8.68494C8.20812 8.67682 8.25465 8.671 8.3198 8.671C8.38495 8.671 8.43147 8.66519 8.43147 8.65706C8.43147 8.6494 8.46288 8.64312 8.50127 8.64312C8.53966 8.64312 8.57107 8.63685 8.57107 8.62918C8.57107 8.62152 8.59619 8.61524 8.6269 8.61524C8.65761 8.61524 8.68274 8.60897 8.68274 8.6013C8.68274 8.59363 8.70787 8.58736 8.73858 8.58736C8.76929 8.58736 8.79442 8.58109 8.79442 8.57342C8.79442 8.56575 8.81326 8.55948 8.83629 8.55948C8.85933 8.55948 8.87817 8.55321 8.87817 8.54554C8.87817 8.53787 8.89702 8.5316 8.92005 8.5316C8.94308 8.5316 8.96193 8.52533 8.96193 8.51766C8.96193 8.50999 8.98077 8.50372 9.00381 8.50372C9.02684 8.50372 9.04569 8.49744 9.04569 8.48978C9.04569 8.48211 9.05825 8.47584 9.0736 8.47584C9.08896 8.47584 9.10152 8.46956 9.10152 8.4619C9.10152 8.45423 9.12037 8.44796 9.1434 8.44796C9.16643 8.44796 9.18528 8.44168 9.18528 8.43402C9.18528 8.42635 9.19784 8.42007 9.2132 8.42007C9.22855 8.42007 9.24112 8.4138 9.24112 8.40613C9.24112 8.39847 9.25368 8.39219 9.26904 8.39219C9.28439 8.39219 9.29695 8.38592 9.29695 8.37825C9.29695 8.37059 9.30814 8.36431 9.32179 8.36431C9.33545 8.36431 9.35568 8.35177 9.36675 8.33643C9.37782 8.3211 9.39805 8.30855 9.41171 8.30855C9.42537 8.30855 9.43655 8.30228 9.43655 8.29461C9.43655 8.28694 9.44773 8.28067 9.46138 8.28067C9.47505 8.28067 9.49528 8.26812 9.50635 8.25279C9.51742 8.23745 9.53764 8.22491 9.55131 8.22491C9.56496 8.22491 9.57614 8.21863 9.57614 8.21097C9.57614 8.2033 9.58618 8.19703 9.59846 8.19703C9.61073 8.19703 9.63839 8.17821 9.6599 8.1552C9.68141 8.1322 9.70641 8.11338 9.71546 8.11338C9.72449 8.11338 9.75602 8.08829 9.78553 8.05762C9.81504 8.02695 9.84603 8.00186 9.85439 8.00186C9.86277 8.00186 9.9355 7.93606 10.016 7.85565C10.0965 7.77523 10.1624 7.7026 10.1624 7.69423C10.1624 7.68588 10.1876 7.65493 10.2183 7.62546C10.249 7.59599 10.2741 7.5645 10.2741 7.55548C10.2741 7.54645 10.293 7.52148 10.316 7.5C10.339 7.47852 10.3579 7.45228 10.3579 7.44173C10.3579 7.43116 10.3704 7.41347 10.3858 7.40242C10.4011 7.39136 10.4137 7.37116 10.4137 7.35751C10.4137 7.34388 10.42 7.33271 10.4277 7.33271C10.4353 7.33271 10.4416 7.32155 10.4416 7.30791C10.4416 7.29427 10.4542 7.27407 10.4695 7.26301C10.4849 7.25196 10.4975 7.23176 10.4975 7.21811C10.4975 7.20447 10.5037 7.19331 10.5114 7.19331C10.5191 7.19331 10.5254 7.18076 10.5254 7.16543C10.5254 7.15009 10.5317 7.13755 10.5393 7.13755C10.547 7.13755 10.5533 7.125 10.5533 7.10967C10.5533 7.09433 10.5596 7.08178 10.5673 7.08178C10.5749 7.08178 10.5812 7.06924 10.5812 7.0539C10.5812 7.03857 10.5875 7.02602 10.5952 7.02602C10.6029 7.02602 10.6091 7.01348 10.6091 6.99814C10.6091 6.98281 10.6154 6.97026 10.6231 6.97026C10.6308 6.97026 10.6371 6.95144 10.6371 6.92844C10.6371 6.90544 10.6433 6.88662 10.651 6.88662C10.6587 6.88662 10.665 6.87407 10.665 6.85874C10.665 6.8434 10.6713 6.83085 10.6789 6.83085C10.6866 6.83085 10.6929 6.81204 10.6929 6.78903C10.6929 6.76603 10.6992 6.74721 10.7069 6.74721C10.7145 6.74721 10.7208 6.72839 10.7208 6.70539C10.7208 6.68239 10.7271 6.66357 10.7348 6.66357C10.7424 6.66357 10.7487 6.63848 10.7487 6.60781C10.7487 6.57714 10.755 6.55204 10.7627 6.55204C10.7704 6.55204 10.7766 6.53323 10.7766 6.51022C10.7766 6.48722 10.7829 6.4684 10.7906 6.4684C10.7983 6.4684 10.8046 6.43704 10.8046 6.3987C10.8046 6.36036 10.8109 6.329 10.8185 6.329C10.8263 6.329 10.8325 6.29182 10.8325 6.24535C10.8325 6.19889 10.8387 6.16171 10.8464 6.16171C10.8548 6.16171 10.8604 6.10595 10.8604 6.02231C10.8604 5.93866 10.866 5.8829 10.8744 5.8829C10.883 5.8829 10.8883 5.80856 10.8883 5.68773C10.8883 5.56691 10.883 5.49257 10.8744 5.49257C10.8661 5.49257 10.8604 5.44145 10.8604 5.3671C10.8604 5.29276 10.8547 5.24164 10.8464 5.24164C10.8387 5.24164 10.8325 5.20446 10.8325 5.15799C10.8325 5.11153 10.8263 5.07435 10.8185 5.07435C10.8109 5.07435 10.8046 5.04926 10.8046 5.01859C10.8046 4.98792 10.7983 4.96283 10.7906 4.96283C10.7829 4.96283 10.7766 4.93773 10.7766 4.90706C10.7766 4.87639 10.7704 4.8513 10.7627 4.8513C10.755 4.8513 10.7487 4.83248 10.7487 4.80948C10.7487 4.78648 10.7424 4.76766 10.7348 4.76766C10.7271 4.76766 10.7208 4.74884 10.7208 4.72584C10.7208 4.70283 10.7145 4.68401 10.7069 4.68401C10.6992 4.68401 10.6929 4.67147 10.6929 4.65613C10.6929 4.6408 10.6866 4.62825 10.6789 4.62825C10.6713 4.62825 10.665 4.60943 10.665 4.58643C10.665 4.56343 10.6587 4.54461 10.651 4.54461C10.6433 4.54461 10.6371 4.53206 10.6371 4.51673C10.6371 4.50139 10.6308 4.48885 10.6231 4.48885C10.6154 4.48885 10.6091 4.4763 10.6091 4.46097C10.6091 4.44563 10.6029 4.43309 10.5952 4.43309C10.5875 4.43309 10.5812 4.42054 10.5812 4.4052C10.5812 4.38987 10.5749 4.37732 10.5673 4.37732C10.5596 4.37732 10.5533 4.36478 10.5533 4.34944C10.5533 4.33411 10.547 4.32156 10.5393 4.32156C10.5317 4.32156 10.5254 4.30901 10.5254 4.29368C10.5254 4.27835 10.5191 4.2658 10.5114 4.2658C10.5037 4.2658 10.4975 4.25325 10.4975 4.23792C10.4975 4.22258 10.4912 4.21004 10.4835 4.21004C10.4758 4.21004 10.4695 4.19887 10.4695 4.18524C10.4695 4.17159 10.457 4.15139 10.4416 4.14033C10.4263 4.12928 10.4137 4.11046 10.4137 4.09851C10.4137 4.08657 10.4011 4.06775 10.3858 4.05669C10.3704 4.04564 10.3579 4.02795 10.3579 4.01738C10.3579 4.00683 10.339 3.98059 10.316 3.95911C10.293 3.93763 10.2741 3.91266 10.2741 3.90362C10.2741 3.8946 10.249 3.86311 10.2183 3.83364C10.1876 3.80417 10.1624 3.77323 10.1624 3.76486C10.1624 3.74512 9.90228 3.48513 9.88252 3.48513C9.87424 3.48513 9.83689 3.45376 9.79949 3.41543C9.7621 3.37709 9.7242 3.34573 9.71526 3.34573C9.70633 3.34573 9.68141 3.32691 9.6599 3.3039C9.63839 3.2809 9.61212 3.26208 9.60155 3.26208C9.59097 3.26208 9.57325 3.24954 9.56218 3.2342C9.55111 3.21887 9.53089 3.20632 9.51722 3.20632C9.50357 3.20632 9.49239 3.20005 9.49239 3.19238C9.49239 3.18471 9.4812 3.17844 9.46755 3.17844C9.45389 3.17844 9.43366 3.16589 9.42259 3.15056C9.41152 3.13522 9.39129 3.12268 9.37763 3.12268C9.36397 3.12268 9.35279 3.1164 9.35279 3.10874C9.35279 3.10107 9.34023 3.0948 9.32487 3.0948C9.30952 3.0948 9.29695 3.08852 9.29695 3.08086C9.29695 3.07319 9.28439 3.06691 9.26904 3.06691C9.25368 3.06691 9.24112 3.06064 9.24112 3.05297C9.24112 3.04531 9.22855 3.03903 9.2132 3.03903C9.19784 3.03903 9.18528 3.03276 9.18528 3.02509C9.18528 3.01743 9.17272 3.01115 9.15736 3.01115C9.142 3.01115 9.12944 3.00488 9.12944 2.99721C9.12944 2.98954 9.11688 2.98327 9.10152 2.98327C9.08617 2.98327 9.0736 2.977 9.0736 2.96933C9.0736 2.96166 9.05476 2.95539 9.03173 2.95539C9.00869 2.95539 8.98985 2.94912 8.98985 2.94145C8.98985 2.93378 8.97728 2.92751 8.96193 2.92751C8.94657 2.92751 8.93401 2.92124 8.93401 2.91357C8.93401 2.9059 8.91516 2.89963 8.89213 2.89963C8.8691 2.89963 8.85025 2.89336 8.85025 2.88569C8.85025 2.87802 8.83141 2.87175 8.80838 2.87175C8.78534 2.87175 8.7665 2.86547 8.7665 2.85781C8.7665 2.85014 8.74137 2.84387 8.71066 2.84387C8.67995 2.84387 8.65482 2.83759 8.65482 2.82993C8.65482 2.82226 8.6297 2.81599 8.59898 2.81599C8.56827 2.81599 8.54315 2.80971 8.54315 2.80204C8.54315 2.79438 8.51174 2.7881 8.47335 2.7881C8.43496 2.7881 8.40355 2.78183 8.40355 2.77416C8.40355 2.7662 8.36168 2.76022 8.30584 2.76022C8.25 2.76022 8.20812 2.75424 8.20812 2.74628C8.20812 2.73737 8.08714 2.73234 7.8731 2.73234C7.65906 2.73234 7.53807 2.73737 7.53807 2.74628ZM8.09645 9.60502C8.09645 9.61369 8.01734 9.61896 7.88706 9.61896C7.75677 9.61896 7.67767 9.62423 7.67767 9.6329C7.67767 9.64086 7.63579 9.64684 7.57995 9.64684C7.52411 9.64684 7.48223 9.65282 7.48223 9.66078C7.48223 9.66845 7.45711 9.67472 7.4264 9.67472C7.39569 9.67472 7.37056 9.68099 7.37056 9.68866C7.37056 9.69633 7.33915 9.7026 7.30076 9.7026C7.26237 9.7026 7.23096 9.70888 7.23096 9.71654C7.23096 9.72421 7.21212 9.73048 7.18909 9.73048C7.16605 9.73048 7.14721 9.73676 7.14721 9.74442C7.14721 9.75209 7.12836 9.75836 7.10533 9.75836C7.0823 9.75836 7.06345 9.76464 7.06345 9.7723C7.06345 9.77997 7.04461 9.78625 7.02157 9.78625C6.99854 9.78625 6.9797 9.79252 6.9797 9.80019C6.9797 9.80785 6.96713 9.81413 6.95178 9.81413C6.93642 9.81413 6.92386 9.8204 6.92386 9.82807C6.92386 9.83573 6.90501 9.84201 6.88198 9.84201C6.85895 9.84201 6.8401 9.84828 6.8401 9.85595C6.8401 9.86362 6.82754 9.86989 6.81218 9.86989C6.79683 9.86989 6.78426 9.87616 6.78426 9.88383C6.78426 9.8915 6.7717 9.89777 6.75635 9.89777C6.74099 9.89777 6.72843 9.90404 6.72843 9.91171C6.72843 9.91938 6.71586 9.92565 6.70051 9.92565C6.68515 9.92565 6.67259 9.93192 6.67259 9.93959C6.67259 9.94726 6.66003 9.95353 6.64467 9.95353C6.62931 9.95353 6.61675 9.9598 6.61675 9.96747C6.61675 9.97514 6.60419 9.98141 6.58883 9.98141C6.57348 9.98141 6.56091 9.98769 6.56091 9.99535C6.56091 10.003 6.54973 10.0093 6.53608 10.0093C6.52241 10.0093 6.50219 10.0218 6.49112 10.0372C6.48005 10.0525 6.4612 10.0651 6.44924 10.0651C6.43728 10.0651 6.41843 10.0776 6.40736 10.0929C6.39629 10.1083 6.37745 10.1208 6.36548 10.1208C6.35352 10.1208 6.33467 10.1334 6.3236 10.1487C6.31253 10.164 6.29496 10.1766 6.28453 10.1766C6.2741 10.1766 6.24144 10.2017 6.21193 10.2323C6.18242 10.263 6.15144 10.2881 6.1431 10.2881C6.12309 10.2881 5.75127 10.6597 5.75127 10.6797C5.75127 10.6882 5.73242 10.7127 5.70939 10.7342C5.68636 10.7557 5.66751 10.7808 5.66751 10.79C5.66751 10.7991 5.64867 10.8242 5.62563 10.8457C5.6026 10.8672 5.58376 10.8948 5.58376 10.9071C5.58376 10.9193 5.57747 10.9294 5.5698 10.9294C5.56212 10.9294 5.55584 10.9405 5.55584 10.9542C5.55584 10.9678 5.54327 10.988 5.52792 10.9991C5.51256 11.0101 5.5 11.0303 5.5 11.044C5.5 11.0576 5.49372 11.0688 5.48604 11.0688C5.47836 11.0688 5.47208 11.0799 5.47208 11.0936C5.47208 11.1072 5.45952 11.1274 5.44416 11.1385C5.42881 11.1495 5.41624 11.1697 5.41624 11.1834C5.41624 11.197 5.40996 11.2082 5.40228 11.2082C5.39461 11.2082 5.38832 11.2207 5.38832 11.2361C5.38832 11.2514 5.38204 11.2639 5.37437 11.2639C5.36669 11.2639 5.36041 11.2828 5.36041 11.3058C5.36041 11.3288 5.35412 11.3476 5.34645 11.3476C5.33877 11.3476 5.33249 11.3601 5.33249 11.3755C5.33249 11.3908 5.32621 11.4033 5.31853 11.4033C5.31085 11.4033 5.30457 11.4159 5.30457 11.4312C5.30457 11.4466 5.29829 11.4591 5.29061 11.4591C5.28293 11.4591 5.27665 11.4779 5.27665 11.5009C5.27665 11.5239 5.27037 11.5428 5.26269 11.5428C5.25501 11.5428 5.24873 11.5616 5.24873 11.5846C5.24873 11.6076 5.24245 11.6264 5.23477 11.6264C5.22709 11.6264 5.22081 11.6452 5.22081 11.6682C5.22081 11.6912 5.21453 11.71 5.20685 11.71C5.19918 11.71 5.19289 11.7351 5.19289 11.7658C5.19289 11.7965 5.18661 11.8216 5.17893 11.8216C5.17126 11.8216 5.16497 11.8467 5.16497 11.8773C5.16497 11.908 5.15869 11.9331 5.15102 11.9331C5.14334 11.9331 5.13706 11.9645 5.13706 12.0028C5.13706 12.0411 5.13077 12.0725 5.1231 12.0725C5.11533 12.0725 5.10914 12.1097 5.10914 12.1561C5.10914 12.2026 5.10294 12.2398 5.09518 12.2398C5.08616 12.2398 5.08122 12.4024 5.08122 12.6998C5.08122 12.9972 5.08616 13.1599 5.09518 13.1599C5.1039 13.1599 5.10914 13.2435 5.10914 13.3829C5.10914 13.5223 5.11437 13.6059 5.1231 13.6059C5.13178 13.6059 5.13706 13.6849 5.13706 13.8151C5.13706 13.9452 5.14233 14.0242 5.15102 14.0242C5.15966 14.0242 5.16497 14.0985 5.16497 14.2193C5.16497 14.3402 5.17029 14.4145 5.17893 14.4145C5.18762 14.4145 5.19289 14.4935 5.19289 14.6236C5.19289 14.7537 5.19817 14.8327 5.20685 14.8327C5.21549 14.8327 5.22081 14.9071 5.22081 15.0279C5.22081 15.1487 5.22613 15.223 5.23477 15.223C5.24341 15.223 5.24873 15.2974 5.24873 15.4182C5.24873 15.539 5.25405 15.6134 5.26269 15.6134C5.27137 15.6134 5.27665 15.6924 5.27665 15.8225C5.27665 15.9526 5.28193 16.0316 5.29061 16.0316C5.29925 16.0316 5.30457 16.1059 5.30457 16.2268C5.30457 16.3476 5.30989 16.4219 5.31853 16.4219C5.32721 16.4219 5.33249 16.5009 5.33249 16.631C5.33249 16.7611 5.33776 16.8401 5.34645 16.8401C5.35517 16.8401 5.36041 16.9238 5.36041 17.0632C5.36041 17.2026 5.36564 17.2862 5.37437 17.2862C5.38309 17.2862 5.38832 17.3699 5.38832 17.5093C5.38832 17.6487 5.39356 17.7323 5.40228 17.7323C5.41104 17.7323 5.41624 17.8206 5.41624 17.9693C5.41624 18.118 5.42145 18.2063 5.4302 18.2063C5.43903 18.2063 5.44416 18.3039 5.44416 18.4712C5.44416 18.6385 5.4493 18.7361 5.45812 18.7361C5.467 18.7361 5.47208 18.8476 5.47208 19.0428C5.47208 19.2379 5.47716 19.3494 5.48604 19.3494C5.49503 19.3494 5.5 19.4935 5.5 19.7537C5.5 20.0139 5.50497 20.158 5.51396 20.158C5.52302 20.158 5.52792 20.3392 5.52792 20.6738C5.52792 21.0084 5.53282 21.1896 5.54188 21.1896C5.55041 21.1896 5.55584 21.2547 5.55584 21.3569C5.55584 21.4591 5.56127 21.5242 5.5698 21.5242C5.57777 21.5242 5.58376 21.566 5.58376 21.6217C5.58376 21.6775 5.58975 21.7193 5.59772 21.7193C5.60548 21.7193 5.61168 21.7565 5.61168 21.803C5.61168 21.8494 5.61787 21.8866 5.62563 21.8866C5.63331 21.8866 5.63959 21.918 5.63959 21.9563C5.63959 21.9947 5.64588 22.026 5.65355 22.026C5.66123 22.026 5.66751 22.0511 5.66751 22.0818C5.66751 22.1125 5.67379 22.1375 5.68147 22.1375C5.68915 22.1375 5.69543 22.1626 5.69543 22.1933C5.69543 22.224 5.70171 22.2491 5.70939 22.2491C5.71707 22.2491 5.72335 22.2679 5.72335 22.2909C5.72335 22.3139 5.72963 22.3327 5.73731 22.3327C5.74499 22.3327 5.75127 22.3515 5.75127 22.3745C5.75127 22.3975 5.75755 22.4164 5.76523 22.4164C5.77291 22.4164 5.77919 22.4352 5.77919 22.4582C5.77919 22.4812 5.78547 22.5 5.79315 22.5C5.80083 22.5 5.80711 22.5188 5.80711 22.5418C5.80711 22.5648 5.81339 22.5836 5.82107 22.5836C5.82874 22.5836 5.83503 22.5962 5.83503 22.6115C5.83503 22.6269 5.84131 22.6394 5.84898 22.6394C5.85666 22.6394 5.86294 22.652 5.86294 22.6673C5.86294 22.6826 5.86923 22.6952 5.8769 22.6952C5.88458 22.6952 5.89086 22.714 5.89086 22.737C5.89086 22.76 5.89714 22.7788 5.90482 22.7788C5.9125 22.7788 5.91878 22.7914 5.91878 22.8067C5.91878 22.822 5.92506 22.8346 5.93274 22.8346C5.94042 22.8346 5.9467 22.8471 5.9467 22.8625C5.9467 22.8778 5.95298 22.8903 5.96066 22.8903C5.96834 22.8903 5.97462 22.9015 5.97462 22.9151C5.97462 22.9288 5.98718 22.949 6.00254 22.96C6.01789 22.9711 6.03046 22.9913 6.03046 23.0049C6.03046 23.0186 6.03674 23.0297 6.04442 23.0297C6.05209 23.0297 6.05838 23.0409 6.05838 23.0545C6.05838 23.0682 6.07094 23.0884 6.08629 23.0994C6.10165 23.1105 6.11421 23.1293 6.11421 23.1413C6.11421 23.1532 6.12678 23.172 6.14213 23.1831C6.15749 23.1941 6.17005 23.2117 6.17005 23.2221C6.17005 23.2325 6.19518 23.2651 6.22589 23.2946C6.2566 23.3241 6.28173 23.355 6.28173 23.3634C6.28173 23.3833 6.65383 23.7546 6.67385 23.7546C6.68235 23.7546 6.70691 23.7735 6.72843 23.7965C6.74994 23.8195 6.77621 23.8383 6.78678 23.8383C6.79736 23.8383 6.81507 23.8508 6.82614 23.8662C6.83721 23.8815 6.85606 23.8941 6.86802 23.8941C6.87998 23.8941 6.89883 23.9066 6.9099 23.9219C6.92097 23.9373 6.93981 23.9498 6.95178 23.9498C6.96374 23.9498 6.98258 23.9624 6.99365 23.9777C7.00472 23.993 7.02495 24.0056 7.03862 24.0056C7.05227 24.0056 7.06345 24.0119 7.06345 24.0195C7.06345 24.0272 7.07602 24.0335 7.09137 24.0335C7.10673 24.0335 7.11929 24.0397 7.11929 24.0474C7.11929 24.0551 7.13185 24.0613 7.14721 24.0613C7.16256 24.0613 7.17513 24.0676 7.17513 24.0753C7.17513 24.0829 7.18769 24.0892 7.20305 24.0892C7.2184 24.0892 7.23096 24.0955 7.23096 24.1032C7.23096 24.1108 7.24353 24.1171 7.25888 24.1171C7.27424 24.1171 7.2868 24.1234 7.2868 24.131C7.2868 24.1387 7.29937 24.145 7.31472 24.145C7.33008 24.145 7.34264 24.1513 7.34264 24.1589C7.34264 24.1666 7.36149 24.1729 7.38452 24.1729C7.40755 24.1729 7.4264 24.1791 7.4264 24.1868C7.4264 24.1945 7.43896 24.2007 7.45431 24.2007C7.46967 24.2007 7.48223 24.207 7.48223 24.2147C7.48223 24.2224 7.50108 24.2286 7.52411 24.2286C7.54714 24.2286 7.56599 24.2349 7.56599 24.2426C7.56599 24.2502 7.58484 24.2565 7.60787 24.2565C7.6309 24.2565 7.64975 24.2628 7.64975 24.2704C7.64975 24.2781 7.66859 24.2844 7.69162 24.2844C7.71466 24.2844 7.7335 24.2907 7.7335 24.2983C7.7335 24.306 7.75235 24.3123 7.77538 24.3123C7.79841 24.3123 7.81726 24.3185 7.81726 24.3262C7.81726 24.3339 7.84239 24.3401 7.8731 24.3401C7.90381 24.3401 7.92893 24.3464 7.92893 24.3541C7.92893 24.3618 7.95406 24.368 7.98477 24.368C8.01548 24.368 8.04061 24.3743 8.04061 24.382C8.04061 24.3896 8.07202 24.3959 8.11041 24.3959C8.14879 24.3959 8.1802 24.4022 8.1802 24.4099C8.1802 24.4176 8.21743 24.4238 8.26396 24.4238C8.31049 24.4238 8.34772 24.43 8.34772 24.4377C8.34772 24.4457 8.38959 24.4517 8.44543 24.4517C8.50127 24.4517 8.54315 24.4577 8.54315 24.4656C8.54315 24.4741 8.60363 24.4796 8.6967 24.4796C8.78977 24.4796 8.85025 24.485 8.85025 24.4935C8.85025 24.5028 10.0182 24.5074 12.3261 24.5074C14.6341 24.5074 15.802 24.5028 15.802 24.4935C15.802 24.4858 15.8272 24.4796 15.8579 24.4796C15.8886 24.4796 15.9137 24.4733 15.9137 24.4656C15.9137 24.4579 15.9233 24.4517 15.9351 24.4517C15.9629 24.4517 16.0533 24.3614 16.0533 24.3336C16.0533 24.3219 16.0596 24.3123 16.0673 24.3123C16.0749 24.3123 16.0812 24.2872 16.0812 24.2565C16.0812 24.2258 16.0875 24.2007 16.0952 24.2007C16.1044 24.2007 16.1091 23.5688 16.1091 22.3327C16.1091 21.0966 16.1044 20.4647 16.0952 20.4647C16.0875 20.4647 16.0812 20.4396 16.0812 20.4089C16.0812 20.3783 16.0749 20.3532 16.0673 20.3532C16.0596 20.3532 16.0533 20.3435 16.0533 20.3318C16.0533 20.304 15.9629 20.2138 15.9351 20.2138C15.9233 20.2138 15.9137 20.2075 15.9137 20.1998C15.9137 20.1921 15.9011 20.1859 15.8858 20.1859C15.8704 20.1859 15.8579 20.1796 15.8579 20.1719C15.8579 20.1635 15.7974 20.158 15.7043 20.158C15.6112 20.158 15.5508 20.1525 15.5508 20.1441C15.5508 20.1353 15.4624 20.1301 15.3135 20.1301C15.1645 20.1301 15.0761 20.1249 15.0761 20.1162C15.0761 20.1074 14.9877 20.1022 14.8388 20.1022C14.6899 20.1022 14.6015 20.097 14.6015 20.0883C14.6015 20.0795 14.5085 20.0744 14.3503 20.0744C14.1921 20.0744 14.099 20.0692 14.099 20.0604C14.099 20.0516 14.0059 20.0465 13.8477 20.0465C13.6895 20.0465 13.5964 20.0413 13.5964 20.0325C13.5964 20.0237 13.5034 20.0186 13.3452 20.0186C13.187 20.0186 13.0939 20.0134 13.0939 20.0046C13.0939 19.9958 12.9962 19.9907 12.8287 19.9907C12.6612 19.9907 12.5635 19.9856 12.5635 19.9768C12.5635 19.968 12.4657 19.9628 12.2982 19.9628C12.1307 19.9628 12.033 19.9577 12.033 19.9489C12.033 19.9401 11.9353 19.9349 11.7678 19.9349C11.6003 19.9349 11.5025 19.9298 11.5025 19.921C11.5025 19.9133 11.4653 19.9071 11.4188 19.9071H11.335V19.7258C11.335 19.6143 11.3297 19.5446 11.3211 19.5446C11.3122 19.5446 11.3071 19.4377 11.3071 19.2519C11.3071 19.066 11.302 18.9591 11.2931 18.9591C11.2843 18.9591 11.2792 18.8522 11.2792 18.6664C11.2792 18.4805 11.2741 18.3736 11.2652 18.3736C11.2564 18.3736 11.2513 18.2667 11.2513 18.0809C11.2513 17.895 11.2462 17.7881 11.2373 17.7881C11.2284 17.7881 11.2234 17.6812 11.2234 17.4954C11.2234 17.3095 11.2183 17.2026 11.2094 17.2026C11.2005 17.2026 11.1954 17.0957 11.1954 16.9099C11.1954 16.724 11.1903 16.6171 11.1815 16.6171C11.1726 16.6171 11.1675 16.5102 11.1675 16.3244C11.1675 16.1385 11.1624 16.0316 11.1536 16.0316C11.1447 16.0316 11.1396 15.9294 11.1396 15.7528C11.1396 15.5762 11.1345 15.474 11.1256 15.474C11.1172 15.474 11.1117 15.4136 11.1117 15.3206C11.1117 15.2277 11.1062 15.1673 11.0977 15.1673C11.0891 15.1673 11.0838 15.0976 11.0838 14.9861C11.0838 14.8745 11.0784 14.8048 11.0698 14.8048C11.0612 14.8048 11.0558 14.7351 11.0558 14.6236C11.0558 14.5121 11.0505 14.4424 11.0419 14.4424C11.0333 14.4424 11.0279 14.3727 11.0279 14.2612C11.0279 14.1496 11.0225 14.0799 11.014 14.0799C11.0057 14.0799 11 14.0288 11 13.9545C11 13.8855 11.0049 13.829 11.0109 13.829C11.0169 13.829 11.0308 13.8415 11.0419 13.8569C11.0529 13.8722 11.0732 13.8848 11.0868 13.8848C11.1005 13.8848 11.1117 13.891 11.1117 13.8987C11.1117 13.9064 11.1242 13.9126 11.1396 13.9126C11.1549 13.9126 11.1675 13.9189 11.1675 13.9266C11.1675 13.9342 11.1801 13.9405 11.1954 13.9405C11.2108 13.9405 11.2234 13.9468 11.2234 13.9545C11.2234 13.9621 11.2359 13.9684 11.2513 13.9684C11.2666 13.9684 11.2792 13.9747 11.2792 13.9823C11.2792 13.99 11.2904 13.9963 11.304 13.9963C11.3177 13.9963 11.3379 14.0088 11.349 14.0242C11.3601 14.0395 11.3803 14.052 11.3939 14.052C11.4076 14.052 11.4188 14.0583 11.4188 14.066C11.4188 14.0737 11.4313 14.0799 11.4467 14.0799C11.4621 14.0799 11.4746 14.0862 11.4746 14.0939C11.4746 14.1015 11.4872 14.1078 11.5025 14.1078C11.5179 14.1078 11.5305 14.1141 11.5305 14.1217C11.5305 14.1294 11.5416 14.1357 11.5553 14.1357C11.569 14.1357 11.5892 14.1482 11.6003 14.1636C11.6113 14.1789 11.6316 14.1915 11.6452 14.1915C11.6589 14.1915 11.6701 14.1977 11.6701 14.2054C11.6701 14.2131 11.6826 14.2193 11.698 14.2193C11.7133 14.2193 11.7259 14.2256 11.7259 14.2333C11.7259 14.2409 11.7385 14.2472 11.7538 14.2472C11.7692 14.2472 11.7817 14.2535 11.7817 14.2612C11.7817 14.2688 11.7943 14.2751 11.8096 14.2751C11.825 14.2751 11.8376 14.2814 11.8376 14.289C11.8376 14.2967 11.8501 14.303 11.8655 14.303C11.8808 14.303 11.8934 14.3092 11.8934 14.3169C11.8934 14.3246 11.9046 14.3309 11.9182 14.3309C11.9319 14.3309 11.9521 14.3434 11.9632 14.3587C11.9743 14.3741 11.9945 14.3866 12.0082 14.3866C12.0218 14.3866 12.033 14.3929 12.033 14.4006C12.033 14.4082 12.0456 14.4145 12.0609 14.4145C12.0763 14.4145 12.0888 14.4208 12.0888 14.4284C12.0888 14.4361 12.1014 14.4424 12.1168 14.4424C12.1321 14.4424 12.1447 14.4487 12.1447 14.4563C12.1447 14.464 12.1572 14.4703 12.1726 14.4703C12.1879 14.4703 12.2005 14.4765 12.2005 14.4842C12.2005 14.4919 12.2131 14.4981 12.2284 14.4981C12.2438 14.4981 12.2563 14.5044 12.2563 14.5121C12.2563 14.5197 12.2689 14.526 12.2843 14.526C12.2996 14.526 12.3122 14.5323 12.3122 14.54C12.3122 14.5476 12.3247 14.5539 12.3401 14.5539C12.3555 14.5539 12.368 14.5602 12.368 14.5678C12.368 14.5755 12.3806 14.5818 12.3959 14.5818C12.4113 14.5818 12.4239 14.5881 12.4239 14.5957C12.4239 14.6034 12.4364 14.6097 12.4518 14.6097C12.4671 14.6097 12.4797 14.6159 12.4797 14.6236C12.4797 14.6313 12.4923 14.6375 12.5076 14.6375C12.523 14.6375 12.5355 14.6438 12.5355 14.6515C12.5355 14.6592 12.5481 14.6654 12.5635 14.6654C12.5788 14.6654 12.5914 14.6717 12.5914 14.6794C12.5914 14.687 12.6039 14.6933 12.6193 14.6933C12.6346 14.6933 12.6472 14.6996 12.6472 14.7072C12.6472 14.7149 12.6661 14.7212 12.6891 14.7212C12.7121 14.7212 12.731 14.7275 12.731 14.7351C12.731 14.7428 12.7435 14.7491 12.7589 14.7491C12.7742 14.7491 12.7868 14.7553 12.7868 14.763C12.7868 14.7707 12.7994 14.777 12.8147 14.777C12.8301 14.777 12.8426 14.7832 12.8426 14.7909C12.8426 14.7986 12.8615 14.8048 12.8845 14.8048C12.9076 14.8048 12.9264 14.8111 12.9264 14.8188C12.9264 14.8264 12.9452 14.8327 12.9683 14.8327C12.9913 14.8327 13.0102 14.839 13.0102 14.8467C13.0102 14.8543 13.029 14.8606 13.052 14.8606C13.0751 14.8606 13.0939 14.8669 13.0939 14.8745C13.0939 14.8822 13.119 14.8885 13.1497 14.8885C13.1805 14.8885 13.2056 14.8947 13.2056 14.9024C13.2056 14.9101 13.2307 14.9164 13.2614 14.9164C13.2921 14.9164 13.3173 14.9226 13.3173 14.9303C13.3173 14.9386 13.3684 14.9442 13.4429 14.9442C13.5173 14.9442 13.5685 14.9499 13.5685 14.9582C13.5685 14.9674 14.2944 14.9721 15.7183 14.9721C17.1421 14.9721 17.868 14.9674 17.868 14.9582C17.868 14.9504 17.9053 14.9442 17.9518 14.9442C17.9983 14.9442 18.0355 14.938 18.0355 14.9303C18.0355 14.9226 18.0607 14.9164 18.0914 14.9164C18.1221 14.9164 18.1472 14.9101 18.1472 14.9024C18.1472 14.8947 18.1723 14.8885 18.203 14.8885C18.2338 14.8885 18.2589 14.8822 18.2589 14.8745C18.2589 14.8669 18.2714 14.8606 18.2868 14.8606C18.3022 14.8606 18.3147 14.8543 18.3147 14.8467C18.3147 14.839 18.3273 14.8327 18.3426 14.8327C18.358 14.8327 18.3706 14.8264 18.3706 14.8188C18.3706 14.8111 18.388 14.8048 18.4094 14.8048C18.4321 14.8048 18.4565 14.7933 18.4683 14.777C18.4793 14.7616 18.4996 14.7491 18.5132 14.7491C18.5269 14.7491 18.5381 14.7428 18.5381 14.7351C18.5381 14.7275 18.5493 14.7212 18.5629 14.7212C18.5766 14.7212 18.5968 14.7086 18.6079 14.6933C18.6189 14.678 18.6361 14.6654 18.646 14.6654C18.6695 14.6654 18.9569 14.3785 18.9569 14.355C18.9569 14.3451 18.9694 14.328 18.9848 14.3169C19.0001 14.3059 19.0127 14.2857 19.0127 14.272C19.0127 14.2584 19.019 14.2472 19.0266 14.2472C19.0343 14.2472 19.0406 14.2347 19.0406 14.2193C19.0406 14.204 19.0469 14.1915 19.0546 14.1915C19.0622 14.1915 19.0685 14.1789 19.0685 14.1636C19.0685 14.1482 19.0748 14.1357 19.0825 14.1357C19.0902 14.1357 19.0964 14.1231 19.0964 14.1078C19.0964 14.0925 19.1027 14.0799 19.1104 14.0799C19.1181 14.0799 19.1244 14.0674 19.1244 14.052C19.1244 14.0367 19.1306 14.0242 19.1383 14.0242C19.146 14.0242 19.1523 14.0053 19.1523 13.9823C19.1523 13.9593 19.1586 13.9405 19.1662 13.9405C19.1739 13.9405 19.1802 13.9154 19.1802 13.8848C19.1802 13.8541 19.1865 13.829 19.1942 13.829C19.203 13.829 19.2081 13.7221 19.2081 13.5362C19.2081 13.3504 19.203 13.2435 19.1942 13.2435C19.1865 13.2435 19.1802 13.2184 19.1802 13.1877C19.1802 13.1571 19.1739 13.132 19.1662 13.132C19.1586 13.132 19.1523 13.1132 19.1523 13.0901C19.1523 13.0671 19.146 13.0483 19.1383 13.0483C19.1306 13.0483 19.1244 13.0358 19.1244 13.0204C19.1244 13.0051 19.1181 12.9926 19.1104 12.9926C19.1027 12.9926 19.0964 12.98 19.0964 12.9647C19.0964 12.9493 19.0902 12.9368 19.0825 12.9368C19.0748 12.9368 19.0685 12.9243 19.0685 12.9089C19.0685 12.8936 19.0622 12.881 19.0546 12.881C19.0469 12.881 19.0406 12.8685 19.0406 12.8532C19.0406 12.8378 19.0343 12.8253 19.0266 12.8253C19.019 12.8253 19.0127 12.8153 19.0127 12.803C19.0127 12.7907 18.9938 12.7631 18.9708 12.7416C18.9478 12.7202 18.9289 12.6956 18.9289 12.687C18.9289 12.6667 18.7247 12.4628 18.7044 12.4628C18.6959 12.4628 18.6713 12.444 18.6497 12.421C18.6282 12.398 18.602 12.3792 18.5914 12.3792C18.5808 12.3792 18.5631 12.3666 18.552 12.3513C18.541 12.336 18.5207 12.3234 18.5071 12.3234C18.4934 12.3234 18.4822 12.3171 18.4822 12.3095C18.4822 12.3018 18.4697 12.2955 18.4543 12.2955C18.439 12.2955 18.4264 12.2893 18.4264 12.2816C18.4264 12.2739 18.4138 12.2677 18.3985 12.2677C18.3831 12.2677 18.3706 12.2614 18.3706 12.2537C18.3706 12.246 18.3517 12.2398 18.3287 12.2398C18.3056 12.2398 18.2868 12.2335 18.2868 12.2258C18.2868 12.2182 18.2742 12.2119 18.2589 12.2119C18.2435 12.2119 18.231 12.2056 18.231 12.198C18.231 12.1903 18.2058 12.184 18.1751 12.184C18.1444 12.184 18.1193 12.1777 18.1193 12.1701C18.1193 12.1624 18.0942 12.1561 18.0635 12.1561C18.0327 12.1561 18.0076 12.1499 18.0076 12.1422C18.0076 12.1342 17.9657 12.1283 17.9099 12.1283C17.8541 12.1283 17.8122 12.1223 17.8122 12.1143C17.8122 12.1051 17.1794 12.1004 15.9416 12.1004C14.7039 12.1004 14.0711 12.0957 14.0711 12.0864C14.0711 12.0788 14.0397 12.0725 14.0013 12.0725C13.9629 12.0725 13.9315 12.0662 13.9315 12.0585C13.9315 12.0509 13.9063 12.0446 13.8756 12.0446C13.8449 12.0446 13.8198 12.0383 13.8198 12.0307C13.8198 12.023 13.801 12.0167 13.7779 12.0167C13.7549 12.0167 13.736 12.0105 13.736 12.0028C13.736 11.9951 13.7235 11.9888 13.7081 11.9888C13.6928 11.9888 13.6802 11.9826 13.6802 11.9749C13.6802 11.9672 13.6676 11.961 13.6523 11.961C13.6369 11.961 13.6244 11.9547 13.6244 11.947C13.6244 11.9394 13.6118 11.9331 13.5964 11.9331C13.5811 11.9331 13.5685 11.9268 13.5685 11.9191C13.5685 11.9115 13.5573 11.9052 13.5437 11.9052C13.53 11.9052 13.5098 11.8927 13.4987 11.8773C13.4877 11.862 13.4674 11.8494 13.4538 11.8494C13.4401 11.8494 13.4289 11.8432 13.4289 11.8355C13.4289 11.8278 13.4178 11.8216 13.4041 11.8216C13.3904 11.8216 13.3702 11.809 13.3591 11.7937C13.3481 11.7783 13.3278 11.7658 13.3142 11.7658C13.3005 11.7658 13.2893 11.7595 13.2893 11.7519C13.2893 11.7442 13.2768 11.7379 13.2614 11.7379C13.2461 11.7379 13.2335 11.7316 13.2335 11.724C13.2335 11.7163 13.2223 11.71 13.2087 11.71C13.195 11.71 13.1748 11.6975 13.1637 11.6822C13.1526 11.6668 13.1324 11.6543 13.1187 11.6543C13.1051 11.6543 13.0939 11.648 13.0939 11.6403C13.0939 11.6327 13.0827 11.6264 13.0691 11.6264C13.0554 11.6264 13.0352 11.6138 13.0241 11.5985C13.013 11.5832 12.9928 11.5706 12.9791 11.5706C12.9655 11.5706 12.9543 11.5644 12.9543 11.5567C12.9543 11.549 12.9431 11.5428 12.9295 11.5428C12.9158 11.5428 12.8956 11.5302 12.8845 11.5149C12.8734 11.4995 12.8532 11.487 12.8396 11.487C12.8259 11.487 12.8147 11.4807 12.8147 11.473C12.8147 11.4654 12.8022 11.4591 12.7868 11.4591C12.7714 11.4591 12.7589 11.4528 12.7589 11.4452C12.7589 11.4375 12.7477 11.4312 12.734 11.4312C12.7204 11.4312 12.7002 11.4187 12.6891 11.4033C12.678 11.388 12.6578 11.3755 12.6441 11.3755C12.6305 11.3755 12.6193 11.3692 12.6193 11.3615C12.6193 11.3539 12.6081 11.3476 12.5945 11.3476C12.5808 11.3476 12.5606 11.335 12.5495 11.3197C12.5384 11.3044 12.5182 11.2918 12.5045 11.2918C12.4909 11.2918 12.4797 11.2855 12.4797 11.2779C12.4797 11.2702 12.4685 11.2639 12.4549 11.2639C12.4412 11.2639 12.421 11.2514 12.4099 11.2361C12.3988 11.2207 12.3786 11.2082 12.3649 11.2082C12.3513 11.2082 12.3401 11.2019 12.3401 11.1942C12.3401 11.1866 12.3289 11.1803 12.3153 11.1803C12.3016 11.1803 12.2814 11.1678 12.2703 11.1524C12.2592 11.1371 12.239 11.1245 12.2253 11.1245C12.2117 11.1245 12.2005 11.1183 12.2005 11.1106C12.2005 11.1029 12.1893 11.0967 12.1757 11.0967C12.162 11.0967 12.1418 11.0841 12.1307 11.0688C12.1196 11.0534 12.0994 11.0409 12.0857 11.0409C12.0721 11.0409 12.0609 11.0346 12.0609 11.027C12.0609 11.0193 12.0497 11.013 12.0361 11.013C12.0224 11.013 12.0022 11.0005 11.9911 10.9851C11.98 10.9698 11.9598 10.9572 11.9462 10.9572C11.9325 10.9572 11.9213 10.951 11.9213 10.9433C11.9213 10.9356 11.9101 10.9294 11.8965 10.9294C11.8828 10.9294 11.8626 10.9168 11.8515 10.9015C11.8405 10.8862 11.8202 10.8736 11.8066 10.8736C11.7929 10.8736 11.7817 10.8673 11.7817 10.8597C11.7817 10.852 11.7705 10.8457 11.7569 10.8457C11.7432 10.8457 11.723 10.8332 11.7119 10.8178C11.7009 10.8025 11.6806 10.79 11.667 10.79C11.6533 10.79 11.6421 10.7837 11.6421 10.776C11.6421 10.7684 11.631 10.7621 11.6173 10.7621C11.6036 10.7621 11.5834 10.7495 11.5723 10.7342C11.5613 10.7189 11.5424 10.7063 11.5305 10.7063C11.5185 10.7063 11.4996 10.6938 11.4886 10.6784C11.4775 10.6631 11.4573 10.6506 11.4436 10.6506C11.43 10.6506 11.4188 10.6443 11.4188 10.6366C11.4188 10.629 11.4076 10.6227 11.3939 10.6227C11.3803 10.6227 11.3601 10.6101 11.349 10.5948C11.3379 10.5795 11.3177 10.5669 11.304 10.5669C11.2904 10.5669 11.2792 10.5606 11.2792 10.553C11.2792 10.5453 11.268 10.539 11.2544 10.539C11.2407 10.539 11.2205 10.5265 11.2094 10.5112C11.1983 10.4958 11.1781 10.4833 11.1644 10.4833C11.1508 10.4833 11.1396 10.477 11.1396 10.4693C11.1396 10.4617 11.1284 10.4554 11.1148 10.4554C11.1011 10.4554 11.0809 10.4428 11.0698 10.4275C11.0587 10.4122 11.0385 10.3996 11.0248 10.3996C11.0112 10.3996 11 10.3934 11 10.3857C11 10.378 10.9888 10.3717 10.9752 10.3717C10.9615 10.3717 10.9413 10.3592 10.9302 10.3439C10.9191 10.3285 10.9003 10.316 10.8883 10.316C10.8764 10.316 10.8575 10.3034 10.8464 10.2881C10.8354 10.2728 10.8151 10.2602 10.8015 10.2602C10.7878 10.2602 10.7766 10.254 10.7766 10.2463C10.7766 10.2386 10.7641 10.2323 10.7487 10.2323C10.7334 10.2323 10.7208 10.2261 10.7208 10.2184C10.7208 10.2107 10.7096 10.2045 10.696 10.2045C10.6823 10.2045 10.6621 10.1919 10.651 10.1766C10.6399 10.1612 10.6197 10.1487 10.6061 10.1487C10.5924 10.1487 10.5812 10.1424 10.5812 10.1348C10.5812 10.1271 10.5687 10.1208 10.5533 10.1208C10.5379 10.1208 10.5254 10.1145 10.5254 10.1069C10.5254 10.0992 10.5128 10.0929 10.4975 10.0929C10.4821 10.0929 10.4695 10.0867 10.4695 10.079C10.4695 10.0713 10.457 10.0651 10.4416 10.0651C10.4263 10.0651 10.4137 10.0588 10.4137 10.0511C10.4137 10.0434 10.4011 10.0372 10.3858 10.0372C10.3704 10.0372 10.3579 10.0309 10.3579 10.0232C10.3579 10.0156 10.3453 10.0093 10.3299 10.0093C10.3146 10.0093 10.302 10.003 10.302 9.99535C10.302 9.98769 10.2895 9.98141 10.2741 9.98141C10.2588 9.98141 10.2462 9.97514 10.2462 9.96747C10.2462 9.9598 10.2273 9.95353 10.2043 9.95353C10.1813 9.95353 10.1624 9.94726 10.1624 9.93959C10.1624 9.93192 10.1499 9.92565 10.1345 9.92565C10.1192 9.92565 10.1066 9.91938 10.1066 9.91171C10.1066 9.90404 10.0878 9.89777 10.0647 9.89777C10.0417 9.89777 10.0228 9.8915 10.0228 9.88383C10.0228 9.87616 10.004 9.86989 9.98096 9.86989C9.95793 9.86989 9.93909 9.86362 9.93909 9.85595C9.93909 9.84828 9.92652 9.84201 9.91117 9.84201C9.89581 9.84201 9.88325 9.83573 9.88325 9.82807C9.88325 9.8204 9.85812 9.81413 9.82741 9.81413C9.7967 9.81413 9.77157 9.80785 9.77157 9.80019C9.77157 9.79252 9.75273 9.78625 9.7297 9.78625C9.70666 9.78625 9.68782 9.77997 9.68782 9.7723C9.68782 9.76464 9.66269 9.75836 9.63198 9.75836C9.60127 9.75836 9.57614 9.75209 9.57614 9.74442C9.57614 9.73676 9.55101 9.73048 9.5203 9.73048C9.48959 9.73048 9.46447 9.72421 9.46447 9.71654C9.46447 9.70888 9.43306 9.7026 9.39467 9.7026C9.35628 9.7026 9.32487 9.69633 9.32487 9.68866C9.32487 9.68099 9.29346 9.67472 9.25508 9.67472C9.21669 9.67472 9.18528 9.66845 9.18528 9.66078C9.18528 9.65265 9.13875 9.64684 9.0736 9.64684C9.00846 9.64684 8.96193 9.64103 8.96193 9.6329C8.96193 9.62433 8.89213 9.61896 8.78046 9.61896C8.66878 9.61896 8.59898 9.61359 8.59898 9.60502C8.59898 9.59624 8.50592 9.59108 8.34772 9.59108C8.18951 9.59108 8.09645 9.59624 8.09645 9.60502ZM1.25635 13.2017C1.25635 13.2094 1.21912 13.2156 1.17259 13.2156C1.12606 13.2156 1.08883 13.2218 1.08883 13.2296C1.08883 13.2372 1.06371 13.2435 1.03299 13.2435C1.00228 13.2435 0.977157 13.2498 0.977157 13.2574C0.977157 13.2651 0.958312 13.2714 0.935279 13.2714C0.912246 13.2714 0.893401 13.2776 0.893401 13.2853C0.893401 13.293 0.874556 13.2993 0.851523 13.2993C0.82849 13.2993 0.809645 13.3055 0.809645 13.3132C0.809645 13.3209 0.797081 13.3271 0.781726 13.3271C0.766371 13.3271 0.753807 13.3334 0.753807 13.3411C0.753807 13.3487 0.742626 13.355 0.728973 13.355C0.715307 13.355 0.69508 13.3676 0.68401 13.3829C0.67294 13.3982 0.654095 13.4108 0.642132 13.4108C0.630169 13.4108 0.611324 13.4233 0.600254 13.4387C0.589184 13.454 0.572014 13.4665 0.562089 13.4665C0.538567 13.4665 0.279188 13.7256 0.279188 13.7491C0.279188 13.759 0.266624 13.7761 0.251269 13.7872C0.235914 13.7982 0.22335 13.817 0.22335 13.829C0.22335 13.8409 0.210787 13.8598 0.195431 13.8708C0.180076 13.8819 0.167513 13.9021 0.167513 13.9157C0.167513 13.9294 0.161231 13.9405 0.153553 13.9405C0.145876 13.9405 0.139594 13.9531 0.139594 13.9684C0.139594 13.9837 0.133312 13.9963 0.125635 13.9963C0.117957 13.9963 0.111675 14.0151 0.111675 14.0381C0.111675 14.0611 0.105393 14.0799 0.0977157 14.0799C0.0900381 14.0799 0.0837563 14.0987 0.0837563 14.1217C0.0837563 14.1447 0.0774746 14.1636 0.069797 14.1636C0.0621193 14.1636 0.0558376 14.1824 0.0558376 14.2054C0.0558376 14.2284 0.0495558 14.2472 0.0418782 14.2472C0.0341168 14.2472 0.0279188 14.2844 0.0279188 14.3309C0.0279188 14.3773 0.0217208 14.4145 0.0139594 14.4145C0.00558376 14.4145 0 14.4703 0 14.5539C0 14.6375 0.00558376 14.6933 0.0139594 14.6933C0.0219302 14.6933 0.0279188 14.7351 0.0279188 14.7909C0.0279188 14.8467 0.0339074 14.8885 0.0418782 14.8885C0.049849 14.8885 0.0558376 14.9303 0.0558376 14.9861C0.0558376 15.0418 0.0618261 15.0836 0.069797 15.0836C0.0775584 15.0836 0.0837563 15.1208 0.0837563 15.1673C0.0837563 15.2137 0.0899543 15.2509 0.0977157 15.2509C0.105687 15.2509 0.111675 15.2928 0.111675 15.3485C0.111675 15.4043 0.117664 15.4461 0.125635 15.4461C0.133605 15.4461 0.139594 15.4879 0.139594 15.5437C0.139594 15.5994 0.145582 15.6413 0.153553 15.6413C0.161315 15.6413 0.167513 15.6784 0.167513 15.7249C0.167513 15.7714 0.173711 15.8085 0.181472 15.8085C0.189443 15.8085 0.195431 15.8504 0.195431 15.9061C0.195431 15.9619 0.20142 16.0037 0.209391 16.0037C0.217152 16.0037 0.22335 16.0409 0.22335 16.0874C0.22335 16.1338 0.229548 16.171 0.23731 16.171C0.24528 16.171 0.251269 16.2128 0.251269 16.2686C0.251269 16.3244 0.257258 16.3662 0.265228 16.3662C0.273199 16.3662 0.279188 16.408 0.279188 16.4638C0.279188 16.5195 0.285176 16.5613 0.293147 16.5613C0.300909 16.5613 0.307107 16.5985 0.307107 16.645C0.307107 16.6914 0.313305 16.7286 0.321066 16.7286C0.329037 16.7286 0.335025 16.7704 0.335025 16.8262C0.335025 16.882 0.341014 16.9238 0.348985 16.9238C0.356746 16.9238 0.362944 16.961 0.362944 17.0074C0.362944 17.0539 0.369142 17.0911 0.376904 17.0911C0.384874 17.0911 0.390863 17.1329 0.390863 17.1887C0.390863 17.2444 0.396852 17.2862 0.404822 17.2862C0.412584 17.2862 0.418782 17.3234 0.418782 17.3699C0.418782 17.4164 0.42498 17.4535 0.432741 17.4535C0.440712 17.4535 0.446701 17.4954 0.446701 17.5511C0.446701 17.6069 0.452689 17.6487 0.46066 17.6487C0.468631 17.6487 0.474619 17.6905 0.474619 17.7463C0.474619 17.802 0.480608 17.8439 0.488579 17.8439C0.49634 17.8439 0.502538 17.881 0.502538 17.9275C0.502538 17.974 0.508736 18.0112 0.516497 18.0112C0.524468 18.0112 0.530457 18.053 0.530457 18.1087C0.530457 18.1645 0.536445 18.2063 0.544416 18.2063C0.552178 18.2063 0.558376 18.2435 0.558376 18.29C0.558376 18.3364 0.564574 18.3736 0.572335 18.3736C0.580306 18.3736 0.586294 18.4154 0.586294 18.4712C0.586294 18.527 0.592283 18.5688 0.600254 18.5688C0.608225 18.5688 0.614213 18.6106 0.614213 18.6664C0.614213 18.7221 0.620202 18.7639 0.628173 18.7639C0.635934 18.7639 0.642132 18.8011 0.642132 18.8476C0.642132 18.894 0.64833 18.9312 0.656091 18.9312C0.664062 18.9312 0.670051 18.973 0.670051 19.0288C0.670051 19.0846 0.676039 19.1264 0.68401 19.1264C0.691772 19.1264 0.69797 19.1636 0.69797 19.21C0.69797 19.2565 0.704168 19.2937 0.711929 19.2937C0.7199 19.2937 0.725888 19.3355 0.725888 19.3913C0.725888 19.447 0.731877 19.4888 0.739848 19.4888C0.747609 19.4888 0.753807 19.526 0.753807 19.5725C0.753807 19.619 0.760005 19.6561 0.767767 19.6561C0.775737 19.6561 0.781726 19.698 0.781726 19.7537C0.781726 19.8095 0.787714 19.8513 0.795685 19.8513C0.803656 19.8513 0.809645 19.8931 0.809645 19.9489C0.809645 20.0046 0.815633 20.0465 0.823604 20.0465C0.831365 20.0465 0.837563 20.0836 0.837563 20.1301C0.837563 20.1766 0.843761 20.2138 0.851523 20.2138C0.859494 20.2138 0.865482 20.2556 0.865482 20.3113C0.865482 20.3671 0.871471 20.4089 0.879442 20.4089C0.887203 20.4089 0.893401 20.4461 0.893401 20.4926C0.893401 20.539 0.899599 20.5762 0.90736 20.5762C0.915331 20.5762 0.92132 20.618 0.92132 20.6738C0.92132 20.7296 0.927308 20.7714 0.935279 20.7714C0.94325 20.7714 0.949239 20.8132 0.949239 20.869C0.949239 20.9247 0.955227 20.9665 0.963198 20.9665C0.971169 20.9665 0.977157 21.0084 0.977157 21.0641C0.977157 21.1199 0.983146 21.1617 0.991117 21.1617C0.998878 21.1617 1.00508 21.1989 1.00508 21.2454C1.00508 21.2918 1.01127 21.329 1.01904 21.329C1.02701 21.329 1.03299 21.3708 1.03299 21.4266C1.03299 21.4823 1.03898 21.5242 1.04695 21.5242C1.05493 21.5242 1.06091 21.566 1.06091 21.6217C1.06091 21.6775 1.0669 21.7193 1.07487 21.7193C1.08284 21.7193 1.08883 21.7612 1.08883 21.8169C1.08883 21.8727 1.09482 21.9145 1.10279 21.9145C1.11055 21.9145 1.11675 21.9517 1.11675 21.9981C1.11675 22.0446 1.12295 22.0818 1.13071 22.0818C1.13847 22.0818 1.14467 22.119 1.14467 22.1654C1.14467 22.2119 1.15087 22.2491 1.15863 22.2491C1.16639 22.2491 1.17259 22.2863 1.17259 22.3327C1.17259 22.3792 1.17879 22.4164 1.18655 22.4164C1.19423 22.4164 1.20051 22.4477 1.20051 22.4861C1.20051 22.5244 1.20679 22.5558 1.21447 22.5558C1.22223 22.5558 1.22843 22.5929 1.22843 22.6394C1.22843 22.6859 1.23462 22.723 1.24239 22.723C1.25006 22.723 1.25635 22.7481 1.25635 22.7788C1.25635 22.8095 1.26263 22.8346 1.2703 22.8346C1.27798 22.8346 1.28426 22.8659 1.28426 22.9043C1.28426 22.9426 1.29055 22.974 1.29822 22.974C1.3059 22.974 1.31218 22.9991 1.31218 23.0297C1.31218 23.0604 1.31846 23.0855 1.32614 23.0855C1.33382 23.0855 1.3401 23.1106 1.3401 23.1413C1.3401 23.1719 1.34638 23.197 1.35406 23.197C1.36174 23.197 1.36802 23.2221 1.36802 23.2528C1.36802 23.2835 1.3743 23.3085 1.38198 23.3085C1.38966 23.3085 1.39594 23.3336 1.39594 23.3643C1.39594 23.395 1.40222 23.4201 1.4099 23.4201C1.41758 23.4201 1.42386 23.4452 1.42386 23.4758C1.42386 23.5065 1.43014 23.5316 1.43782 23.5316C1.44549 23.5316 1.45178 23.5504 1.45178 23.5734C1.45178 23.5964 1.45806 23.6152 1.46574 23.6152C1.47341 23.6152 1.4797 23.6341 1.4797 23.6571C1.4797 23.6801 1.48598 23.6989 1.49365 23.6989C1.50133 23.6989 1.50761 23.7177 1.50761 23.7407C1.50761 23.7637 1.5139 23.7825 1.52157 23.7825C1.52925 23.7825 1.53553 23.8013 1.53553 23.8244C1.53553 23.8474 1.54181 23.8662 1.54949 23.8662C1.55717 23.8662 1.56345 23.885 1.56345 23.908C1.56345 23.931 1.56973 23.9498 1.57741 23.9498C1.58509 23.9498 1.59137 23.9686 1.59137 23.9916C1.59137 24.0146 1.59765 24.0335 1.60533 24.0335C1.61301 24.0335 1.61929 24.0523 1.61929 24.0753C1.61929 24.0983 1.62557 24.1171 1.63325 24.1171C1.64093 24.1171 1.64721 24.1296 1.64721 24.145C1.64721 24.1603 1.65349 24.1729 1.66117 24.1729C1.66885 24.1729 1.67513 24.1917 1.67513 24.2147C1.67513 24.2377 1.68141 24.2565 1.68909 24.2565C1.69676 24.2565 1.70305 24.2691 1.70305 24.2844C1.70305 24.2997 1.70933 24.3123 1.71701 24.3123C1.72468 24.3123 1.73096 24.3311 1.73096 24.3541C1.73096 24.3771 1.73725 24.3959 1.74492 24.3959C1.7526 24.3959 1.75888 24.4085 1.75888 24.4238C1.75888 24.4391 1.76516 24.4517 1.77284 24.4517C1.78052 24.4517 1.7868 24.4642 1.7868 24.4796C1.7868 24.4949 1.79308 24.5074 1.80076 24.5074C1.80844 24.5074 1.81472 24.5263 1.81472 24.5493C1.81472 24.5723 1.821 24.5911 1.82868 24.5911C1.83636 24.5911 1.84264 24.6036 1.84264 24.619C1.84264 24.6343 1.84892 24.6468 1.8566 24.6468C1.86428 24.6468 1.87056 24.6594 1.87056 24.6747C1.87056 24.6901 1.87684 24.7026 1.88452 24.7026C1.8922 24.7026 1.89848 24.7151 1.89848 24.7305C1.89848 24.7458 1.90476 24.7584 1.91244 24.7584C1.92011 24.7584 1.9264 24.7709 1.9264 24.7862C1.9264 24.8016 1.93268 24.8141 1.94036 24.8141C1.94803 24.8141 1.95431 24.8267 1.95431 24.842C1.95431 24.8573 1.9606 24.8699 1.96827 24.8699C1.97595 24.8699 1.98223 24.8811 1.98223 24.8947C1.98223 24.9083 1.9948 24.9285 2.01015 24.9396C2.02551 24.9506 2.03807 24.9708 2.03807 24.9845C2.03807 24.9981 2.04435 25.0093 2.05203 25.0093C2.05971 25.0093 2.06599 25.0218 2.06599 25.0372C2.06599 25.0525 2.07227 25.0651 2.07995 25.0651C2.08763 25.0651 2.09391 25.0762 2.09391 25.0899C2.09391 25.1035 2.10647 25.1237 2.12183 25.1348C2.13718 25.1458 2.14975 25.166 2.14975 25.1797C2.14975 25.1933 2.15603 25.2045 2.16371 25.2045C2.17138 25.2045 2.17766 25.2156 2.17766 25.2293C2.17766 25.2429 2.19023 25.2631 2.20558 25.2742C2.22094 25.2852 2.2335 25.3054 2.2335 25.3191C2.2335 25.3327 2.23978 25.3439 2.24746 25.3439C2.25514 25.3439 2.26142 25.355 2.26142 25.3687C2.26142 25.3823 2.27398 25.4025 2.28934 25.4136C2.3047 25.4246 2.31726 25.4423 2.31726 25.4529C2.31726 25.4634 2.3361 25.4897 2.35914 25.5112C2.38217 25.5326 2.40102 25.5589 2.40102 25.5694C2.40102 25.58 2.41358 25.5977 2.42893 25.6087C2.44429 25.6198 2.45685 25.6375 2.45685 25.648C2.45685 25.6586 2.4757 25.6848 2.49873 25.7063C2.52176 25.7278 2.54061 25.7529 2.54061 25.7621C2.54061 25.7713 2.55945 25.7964 2.58249 25.8178C2.60552 25.8393 2.62437 25.8643 2.62437 25.8733C2.62437 25.8823 2.64949 25.9138 2.6802 25.9433C2.71091 25.9728 2.73604 26.0041 2.73604 26.0128C2.73604 26.0216 2.76745 26.0593 2.80584 26.0967C2.84423 26.134 2.87563 26.1715 2.87563 26.1799C2.87563 26.1884 2.93217 26.2513 3.00127 26.3197C3.07037 26.3881 3.1269 26.4507 3.1269 26.4588C3.1269 26.4779 3.35931 26.71 3.37847 26.71C3.38652 26.71 3.45548 26.7728 3.53173 26.8494C3.60797 26.9261 3.67725 26.9888 3.6857 26.9888C3.69414 26.9888 3.73164 27.0202 3.76904 27.0585C3.80643 27.0969 3.84421 27.1283 3.85297 27.1283C3.86175 27.1283 3.89308 27.1533 3.92259 27.184C3.9521 27.2147 3.98363 27.2398 3.99266 27.2398C4.00171 27.2398 4.02671 27.2586 4.04822 27.2816C4.06974 27.3046 4.09601 27.3234 4.10657 27.3234C4.11715 27.3234 4.13487 27.336 4.14594 27.3513C4.15701 27.3666 4.17472 27.3792 4.1853 27.3792C4.19587 27.3792 4.22214 27.398 4.24365 27.421C4.26517 27.444 4.29144 27.4628 4.302 27.4628C4.31259 27.4628 4.3303 27.4754 4.34137 27.4907C4.35244 27.506 4.37129 27.5186 4.38325 27.5186C4.39521 27.5186 4.41406 27.5311 4.42513 27.5465C4.4362 27.5618 4.45504 27.5744 4.46701 27.5744C4.47897 27.5744 4.49781 27.5869 4.50888 27.6022C4.51995 27.6176 4.54018 27.6301 4.55385 27.6301C4.5675 27.6301 4.57868 27.6364 4.57868 27.6441C4.57868 27.6517 4.58986 27.658 4.60351 27.658C4.61718 27.658 4.63741 27.6705 4.64848 27.6859C4.65955 27.7012 4.67977 27.7138 4.69344 27.7138C4.70709 27.7138 4.71827 27.72 4.71827 27.7277C4.71827 27.7354 4.72946 27.7416 4.74311 27.7416C4.75677 27.7416 4.777 27.7542 4.78807 27.7695C4.79914 27.7849 4.81937 27.7974 4.83303 27.7974C4.84669 27.7974 4.85787 27.8037 4.85787 27.8113C4.85787 27.819 4.87043 27.8253 4.88579 27.8253C4.90114 27.8253 4.91371 27.8316 4.91371 27.8392C4.91371 27.8469 4.92627 27.8532 4.94162 27.8532C4.95698 27.8532 4.96954 27.8594 4.96954 27.8671C4.96954 27.8748 4.98211 27.881 4.99746 27.881C5.01282 27.881 5.02538 27.8873 5.02538 27.895C5.02538 27.9026 5.03794 27.9089 5.0533 27.9089C5.06866 27.9089 5.08122 27.9152 5.08122 27.9229C5.08122 27.9305 5.09378 27.9368 5.10914 27.9368C5.12449 27.9368 5.13706 27.9431 5.13706 27.9507C5.13706 27.9584 5.14962 27.9647 5.16497 27.9647C5.18033 27.9647 5.19289 27.971 5.19289 27.9786C5.19289 27.9863 5.20546 27.9926 5.22081 27.9926C5.23617 27.9926 5.24873 27.9988 5.24873 28.0065C5.24873 28.0142 5.26129 28.0204 5.27665 28.0204C5.29201 28.0204 5.30457 28.0267 5.30457 28.0344C5.30457 28.0421 5.31713 28.0483 5.33249 28.0483C5.34784 28.0483 5.36041 28.0546 5.36041 28.0623C5.36041 28.0699 5.37297 28.0762 5.38832 28.0762C5.40368 28.0762 5.41624 28.0825 5.41624 28.0901C5.41624 28.0978 5.42881 28.1041 5.44416 28.1041C5.45952 28.1041 5.47208 28.1104 5.47208 28.118C5.47208 28.1257 5.49093 28.132 5.51396 28.132C5.53699 28.132 5.55584 28.1382 5.55584 28.1459C5.55584 28.1536 5.5684 28.1599 5.58376 28.1599C5.59911 28.1599 5.61168 28.1661 5.61168 28.1738C5.61168 28.1815 5.62424 28.1877 5.63959 28.1877C5.65495 28.1877 5.66751 28.194 5.66751 28.2017C5.66751 28.2093 5.68636 28.2156 5.70939 28.2156C5.73242 28.2156 5.75127 28.2219 5.75127 28.2296C5.75127 28.2372 5.76383 28.2435 5.77919 28.2435C5.79454 28.2435 5.80711 28.2498 5.80711 28.2574C5.80711 28.2651 5.82595 28.2714 5.84898 28.2714C5.87202 28.2714 5.89086 28.2776 5.89086 28.2853C5.89086 28.293 5.90971 28.2993 5.93274 28.2993C5.95577 28.2993 5.97462 28.3055 5.97462 28.3132C5.97462 28.3209 5.99346 28.3271 6.0165 28.3271C6.03953 28.3271 6.05838 28.3334 6.05838 28.3411C6.05838 28.3487 6.07722 28.355 6.10025 28.355C6.12329 28.355 6.14213 28.3613 6.14213 28.369C6.14213 28.3766 6.16098 28.3829 6.18401 28.3829C6.20704 28.3829 6.22589 28.3892 6.22589 28.3968C6.22589 28.4045 6.24473 28.4108 6.26777 28.4108C6.2908 28.4108 6.30964 28.4171 6.30964 28.4247C6.30964 28.4324 6.33477 28.4387 6.36548 28.4387C6.39619 28.4387 6.42132 28.4449 6.42132 28.4526C6.42132 28.4603 6.44645 28.4665 6.47716 28.4665C6.50787 28.4665 6.533 28.4728 6.533 28.4805C6.533 28.4882 6.55184 28.4944 6.57487 28.4944C6.59791 28.4944 6.61675 28.5007 6.61675 28.5084C6.61675 28.516 6.64816 28.5223 6.68655 28.5223C6.72494 28.5223 6.75635 28.5286 6.75635 28.5362C6.75635 28.5439 6.78147 28.5502 6.81218 28.5502C6.84289 28.5502 6.86802 28.5565 6.86802 28.5641C6.86802 28.5718 6.89943 28.5781 6.93782 28.5781C6.97621 28.5781 7.00761 28.5843 7.00761 28.592C7.00761 28.5998 7.04484 28.6059 7.09137 28.6059C7.1379 28.6059 7.17513 28.6121 7.17513 28.6199C7.17513 28.6276 7.20654 28.6338 7.24492 28.6338C7.28331 28.6338 7.31472 28.6401 7.31472 28.6478C7.31472 28.6557 7.3566 28.6617 7.41244 28.6617C7.46827 28.6617 7.51015 28.6677 7.51015 28.6757C7.51015 28.6836 7.55203 28.6896 7.60787 28.6896C7.66371 28.6896 7.70558 28.6956 7.70558 28.7035C7.70558 28.7118 7.75677 28.7175 7.83122 28.7175C7.90566 28.7175 7.95685 28.7231 7.95685 28.7314C7.95685 28.7399 8.01734 28.7454 8.11041 28.7454C8.20347 28.7454 8.26396 28.7508 8.26396 28.7593C8.26396 28.768 8.34307 28.7732 8.47335 28.7732C8.60363 28.7732 8.68274 28.7785 8.68274 28.7872C8.68274 28.7963 9.05033 28.8011 9.75761 28.8011C10.4649 28.8011 10.8325 28.7963 10.8325 28.7872C10.8325 28.7783 10.9488 28.7732 11.1536 28.7732C11.3583 28.7732 11.4746 28.7682 11.4746 28.7593C11.4746 28.7505 11.577 28.7454 11.7538 28.7454C11.9306 28.7454 12.033 28.7402 12.033 28.7314C12.033 28.7225 12.1447 28.7175 12.3401 28.7175C12.5355 28.7175 12.6472 28.7124 12.6472 28.7035C12.6472 28.6945 12.8147 28.6896 13.1218 28.6896C13.4289 28.6896 13.5964 28.6847 13.5964 28.6757C13.5964 28.6669 13.6895 28.6617 13.8477 28.6617C14.0059 28.6617 14.099 28.6566 14.099 28.6478C14.099 28.6401 14.1241 28.6338 14.1548 28.6338C14.1855 28.6338 14.2107 28.6276 14.2107 28.6199C14.2107 28.6122 14.2295 28.6059 14.2525 28.6059C14.2756 28.6059 14.2944 28.5997 14.2944 28.592C14.2944 28.5843 14.307 28.5781 14.3223 28.5781C14.3377 28.5781 14.3503 28.5718 14.3503 28.5641C14.3503 28.5565 14.3691 28.5502 14.3921 28.5502C14.4152 28.5502 14.434 28.5439 14.434 28.5362C14.434 28.5286 14.4452 28.5223 14.4588 28.5223C14.4725 28.5223 14.4927 28.5098 14.5038 28.4944C14.5149 28.4791 14.5337 28.4665 14.5457 28.4665C14.5576 28.4665 14.5765 28.454 14.5876 28.4387C14.5986 28.4233 14.6158 28.4108 14.6257 28.4108C14.6492 28.4108 14.9365 28.1238 14.9365 28.1004C14.9365 28.0905 14.9491 28.0733 14.9645 28.0623C14.9798 28.0512 14.9924 28.031 14.9924 28.0174C14.9924 28.0037 14.9987 27.9926 15.0063 27.9926C15.014 27.9926 15.0203 27.98 15.0203 27.9647C15.0203 27.9494 15.0266 27.9368 15.0343 27.9368C15.0419 27.9368 15.0482 27.9243 15.0482 27.9089C15.0482 27.8936 15.0545 27.881 15.0622 27.881C15.0699 27.881 15.0761 27.8685 15.0761 27.8532C15.0761 27.8378 15.0824 27.8253 15.0901 27.8253C15.0978 27.8253 15.1041 27.8065 15.1041 27.7835C15.1041 27.7605 15.1103 27.7416 15.118 27.7416C15.1257 27.7416 15.132 27.7228 15.132 27.6998C15.132 27.6768 15.1383 27.658 15.1459 27.658C15.1536 27.658 15.1599 27.6329 15.1599 27.6022C15.1599 27.5716 15.1662 27.5465 15.1739 27.5465C15.1826 27.5465 15.1878 27.4582 15.1878 27.3095C15.1878 27.1608 15.1826 27.0725 15.1739 27.0725C15.1662 27.0725 15.1599 27.0411 15.1599 27.0028C15.1599 26.9645 15.1536 26.9331 15.1459 26.9331C15.1383 26.9331 15.132 26.9143 15.132 26.8913C15.132 26.8683 15.1257 26.8494 15.118 26.8494C15.1103 26.8494 15.1041 26.8369 15.1041 26.8216C15.1041 26.8062 15.0978 26.7937 15.0901 26.7937C15.0824 26.7937 15.0761 26.7749 15.0761 26.7519C15.0761 26.7289 15.0699 26.71 15.0622 26.71C15.0545 26.71 15.0482 26.6989 15.0482 26.6852C15.0482 26.6716 15.0357 26.6514 15.0203 26.6403C15.0049 26.6293 14.9924 26.6091 14.9924 26.5954C14.9924 26.5818 14.9861 26.5706 14.9784 26.5706C14.9707 26.5706 14.9645 26.5607 14.9645 26.5486C14.9645 26.5365 14.9393 26.5025 14.9086 26.473C14.8779 26.4436 14.8528 26.4125 14.8528 26.4041C14.8528 26.3839 14.7325 26.2639 14.7122 26.2639C14.7036 26.2639 14.6789 26.2451 14.6574 26.2221C14.6358 26.1991 14.6096 26.1803 14.599 26.1803C14.5884 26.1803 14.5707 26.1678 14.5596 26.1524C14.5486 26.1371 14.5283 26.1245 14.5147 26.1245C14.501 26.1245 14.4898 26.1183 14.4898 26.1106C14.4898 26.1029 14.4773 26.0967 14.4619 26.0967C14.4466 26.0967 14.434 26.0904 14.434 26.0827C14.434 26.075 14.4214 26.0688 14.4061 26.0688C14.3907 26.0688 14.3782 26.0625 14.3782 26.0548C14.3782 26.0472 14.3656 26.0409 14.3503 26.0409C14.3349 26.0409 14.3223 26.0346 14.3223 26.027C14.3223 26.0193 14.3035 26.013 14.2805 26.013C14.2574 26.013 14.2386 26.0067 14.2386 25.9991C14.2386 25.9914 14.2135 25.9851 14.1827 25.9851C14.152 25.9851 14.1269 25.9789 14.1269 25.9712C14.1269 25.9634 14.0897 25.9572 14.0431 25.9572C13.9966 25.9572 13.9594 25.9511 13.9594 25.9433C13.9594 25.9344 13.8291 25.9294 13.5964 25.9294C13.3638 25.9294 13.2335 25.9344 13.2335 25.9433C13.2335 25.9523 13.0939 25.9572 12.8426 25.9572C12.5914 25.9572 12.4518 25.9622 12.4518 25.9712C12.4518 25.9801 12.3401 25.9851 12.1447 25.9851C11.9492 25.9851 11.8376 25.9902 11.8376 25.9991C11.8376 26.0079 11.7352 26.013 11.5584 26.013C11.3816 26.013 11.2792 26.0181 11.2792 26.027C11.2792 26.0359 11.1582 26.0409 10.9442 26.0409C10.7301 26.0409 10.6091 26.0459 10.6091 26.0548C10.6091 26.064 10.3113 26.0688 9.74366 26.0688C9.17597 26.0688 8.87817 26.064 8.87817 26.0548C8.87817 26.0462 8.79906 26.0409 8.66878 26.0409C8.5385 26.0409 8.45939 26.0356 8.45939 26.027C8.45939 26.0186 8.40355 26.013 8.3198 26.013C8.23604 26.013 8.1802 26.0074 8.1802 25.9991C8.1802 25.9909 8.13368 25.9851 8.06853 25.9851C8.00338 25.9851 7.95685 25.9793 7.95685 25.9712C7.95685 25.9632 7.91497 25.9572 7.85914 25.9572C7.8033 25.9572 7.76142 25.9513 7.76142 25.9433C7.76142 25.9356 7.73001 25.9294 7.69162 25.9294C7.65324 25.9294 7.62183 25.9231 7.62183 25.9154C7.62183 25.9078 7.59042 25.9015 7.55203 25.9015C7.51364 25.9015 7.48223 25.8952 7.48223 25.8875C7.48223 25.8799 7.45082 25.8736 7.41244 25.8736C7.37405 25.8736 7.34264 25.8673 7.34264 25.8597C7.34264 25.852 7.31751 25.8457 7.2868 25.8457C7.25609 25.8457 7.23096 25.8395 7.23096 25.8318C7.23096 25.8241 7.20584 25.8178 7.17513 25.8178C7.14442 25.8178 7.11929 25.8116 7.11929 25.8039C7.11929 25.7962 7.10044 25.79 7.07741 25.79C7.05438 25.79 7.03553 25.7837 7.03553 25.776C7.03553 25.7684 7.01669 25.7621 6.99365 25.7621C6.97062 25.7621 6.95178 25.7558 6.95178 25.7481C6.95178 25.7405 6.93293 25.7342 6.9099 25.7342C6.88687 25.7342 6.86802 25.7279 6.86802 25.7203C6.86802 25.7126 6.84917 25.7063 6.82614 25.7063C6.80311 25.7063 6.78426 25.7 6.78426 25.6924C6.78426 25.6847 6.7717 25.6784 6.75635 25.6784C6.74099 25.6784 6.72843 25.6722 6.72843 25.6645C6.72843 25.6568 6.70958 25.6506 6.68655 25.6506C6.66352 25.6506 6.64467 25.6443 6.64467 25.6366C6.64467 25.629 6.63211 25.6227 6.61675 25.6227C6.6014 25.6227 6.58883 25.6164 6.58883 25.6087C6.58883 25.6011 6.57627 25.5948 6.56091 25.5948C6.54556 25.5948 6.533 25.5885 6.533 25.5809C6.533 25.5732 6.52043 25.5669 6.50508 25.5669C6.48972 25.5669 6.47716 25.5606 6.47716 25.553C6.47716 25.5453 6.45969 25.539 6.43836 25.539C6.41558 25.539 6.39127 25.5275 6.37944 25.5112C6.36837 25.4958 6.34814 25.4833 6.33448 25.4833C6.32083 25.4833 6.30964 25.477 6.30964 25.4693C6.30964 25.4617 6.29708 25.4554 6.28173 25.4554C6.26637 25.4554 6.25381 25.4491 6.25381 25.4415C6.25381 25.4338 6.24124 25.4275 6.22589 25.4275C6.21053 25.4275 6.19797 25.4212 6.19797 25.4136C6.19797 25.4059 6.18679 25.3996 6.17314 25.3996C6.15947 25.3996 6.13924 25.3871 6.12817 25.3717C6.1171 25.3564 6.09688 25.3439 6.08321 25.3439C6.06956 25.3439 6.05838 25.3376 6.05838 25.3299C6.05838 25.3223 6.04719 25.316 6.03354 25.316C6.01988 25.316 5.99965 25.3034 5.98858 25.2881C5.97751 25.2728 5.95866 25.2602 5.9467 25.2602C5.93474 25.2602 5.91589 25.2477 5.90482 25.2323C5.89375 25.217 5.87491 25.2045 5.86294 25.2045C5.85098 25.2045 5.83214 25.1919 5.82107 25.1766C5.81 25.1612 5.79228 25.1487 5.7817 25.1487C5.77113 25.1487 5.74486 25.1299 5.72335 25.1069C5.70184 25.0839 5.67684 25.0651 5.66779 25.0651C5.65876 25.0651 5.62723 25.04 5.59772 25.0093C5.56821 24.9786 5.53705 24.9535 5.52848 24.9535C5.51991 24.9535 5.45684 24.8971 5.38832 24.8281C5.31981 24.7591 5.25695 24.7026 5.24863 24.7026C5.22899 24.7026 5.16497 24.6387 5.16497 24.6191C5.16497 24.6107 5.10844 24.548 5.03934 24.4796C4.97024 24.4111 4.91371 24.3482 4.91371 24.3398C4.91371 24.3313 4.8823 24.2939 4.84391 24.2565C4.80552 24.2192 4.77411 24.1813 4.77411 24.1724C4.77411 24.1635 4.75527 24.1386 4.73223 24.1171C4.7092 24.0956 4.69036 24.0694 4.69036 24.0588C4.69036 24.0483 4.67779 24.0306 4.66244 24.0195C4.64708 24.0085 4.63452 23.9896 4.63452 23.9777C4.63452 23.9657 4.62195 23.9469 4.6066 23.9359C4.59124 23.9248 4.57868 23.906 4.57868 23.8941C4.57868 23.8821 4.56612 23.8633 4.55076 23.8522C4.53541 23.8412 4.52284 23.821 4.52284 23.8073C4.52284 23.7937 4.51656 23.7825 4.50888 23.7825C4.50121 23.7825 4.49492 23.7714 4.49492 23.7577C4.49492 23.7441 4.48236 23.7239 4.46701 23.7128C4.45165 23.7018 4.43909 23.6816 4.43909 23.6679C4.43909 23.6543 4.4328 23.6431 4.42513 23.6431C4.41745 23.6431 4.41117 23.6306 4.41117 23.6152C4.41117 23.5999 4.40489 23.5874 4.39721 23.5874C4.38953 23.5874 4.38325 23.5748 4.38325 23.5595C4.38325 23.5441 4.37697 23.5316 4.36929 23.5316C4.36161 23.5316 4.35533 23.5191 4.35533 23.5037C4.35533 23.4884 4.34905 23.4758 4.34137 23.4758C4.33369 23.4758 4.32741 23.4633 4.32741 23.448C4.32741 23.4326 4.32113 23.4201 4.31345 23.4201C4.30577 23.4201 4.29949 23.4075 4.29949 23.3922C4.29949 23.3769 4.29321 23.3643 4.28553 23.3643C4.27786 23.3643 4.27157 23.3455 4.27157 23.3225C4.27157 23.2995 4.26529 23.2807 4.25761 23.2807C4.24994 23.2807 4.24365 23.2681 4.24365 23.2528C4.24365 23.2375 4.23737 23.2249 4.2297 23.2249C4.22202 23.2249 4.21574 23.2061 4.21574 23.1831C4.21574 23.1601 4.20945 23.1413 4.20178 23.1413C4.1941 23.1413 4.18782 23.1224 4.18782 23.0994C4.18782 23.0764 4.18154 23.0576 4.17386 23.0576C4.16618 23.0576 4.1599 23.0451 4.1599 23.0297C4.1599 23.0144 4.15362 23.0019 4.14594 23.0019C4.13826 23.0019 4.13198 22.983 4.13198 22.96C4.13198 22.937 4.1257 22.9182 4.11802 22.9182C4.11034 22.9182 4.10406 22.8931 4.10406 22.8625C4.10406 22.8318 4.09778 22.8067 4.0901 22.8067C4.08242 22.8067 4.07614 22.7879 4.07614 22.7649C4.07614 22.7419 4.06986 22.723 4.06218 22.723C4.05451 22.723 4.04822 22.698 4.04822 22.6673C4.04822 22.6366 4.04194 22.6115 4.03426 22.6115C4.02659 22.6115 4.0203 22.5864 4.0203 22.5558C4.0203 22.5251 4.01402 22.5 4.00635 22.5C3.99867 22.5 3.99239 22.4749 3.99239 22.4442C3.99239 22.4136 3.9861 22.3885 3.97843 22.3885C3.97075 22.3885 3.96447 22.3634 3.96447 22.3327C3.96447 22.302 3.95819 22.277 3.95051 22.277C3.94283 22.277 3.93655 22.2456 3.93655 22.2072C3.93655 22.1689 3.93027 22.1375 3.92259 22.1375C3.91483 22.1375 3.90863 22.1004 3.90863 22.0539C3.90863 22.0074 3.90243 21.9703 3.89467 21.9703C3.88699 21.9703 3.88071 21.9389 3.88071 21.9006C3.88071 21.8622 3.87443 21.8309 3.86675 21.8309C3.85899 21.8309 3.85279 21.7937 3.85279 21.7472C3.85279 21.7007 3.84659 21.6636 3.83883 21.6636C3.83086 21.6636 3.82487 21.6217 3.82487 21.566C3.82487 21.5102 3.81888 21.4684 3.81091 21.4684C3.80315 21.4684 3.79695 21.4312 3.79695 21.3848C3.79695 21.3383 3.79076 21.3011 3.78299 21.3011C3.77502 21.3011 3.76904 21.2593 3.76904 21.2035C3.76904 21.1478 3.76305 21.1059 3.75508 21.1059C3.74711 21.1059 3.74112 21.0641 3.74112 21.0084C3.74112 20.9526 3.73513 20.9108 3.72716 20.9108C3.71919 20.9108 3.7132 20.869 3.7132 20.8132C3.7132 20.7574 3.70721 20.7156 3.69924 20.7156C3.69127 20.7156 3.68528 20.6738 3.68528 20.618C3.68528 20.5623 3.67929 20.5204 3.67132 20.5204C3.66335 20.5204 3.65736 20.4786 3.65736 20.4229C3.65736 20.3671 3.65137 20.3253 3.6434 20.3253C3.63564 20.3253 3.62944 20.2881 3.62944 20.2416C3.62944 20.1952 3.62324 20.158 3.61548 20.158C3.60751 20.158 3.60152 20.1162 3.60152 20.0604C3.60152 20.0046 3.59553 19.9628 3.58756 19.9628C3.5798 19.9628 3.5736 19.9256 3.5736 19.8792C3.5736 19.8327 3.56741 19.7955 3.55964 19.7955C3.55167 19.7955 3.54569 19.7537 3.54569 19.698C3.54569 19.6422 3.5397 19.6004 3.53173 19.6004C3.52376 19.6004 3.51777 19.5585 3.51777 19.5028C3.51777 19.447 3.51178 19.4052 3.50381 19.4052C3.49605 19.4052 3.48985 19.368 3.48985 19.3216C3.48985 19.2751 3.48365 19.2379 3.47589 19.2379C3.46792 19.2379 3.46193 19.1961 3.46193 19.1403C3.46193 19.0846 3.45594 19.0428 3.44797 19.0428C3.44021 19.0428 3.43401 19.0056 3.43401 18.9591C3.43401 18.9126 3.42781 18.8755 3.42005 18.8755C3.41208 18.8755 3.40609 18.8336 3.40609 18.7779C3.40609 18.7221 3.4001 18.6803 3.39213 18.6803C3.38437 18.6803 3.37817 18.6431 3.37817 18.5967C3.37817 18.5502 3.37197 18.513 3.36421 18.513C3.35624 18.513 3.35025 18.4712 3.35025 18.4154C3.35025 18.3597 3.34427 18.3178 3.33629 18.3178C3.32832 18.3178 3.32234 18.276 3.32234 18.2203C3.32234 18.1645 3.31635 18.1227 3.30838 18.1227C3.30061 18.1227 3.29442 18.0855 3.29442 18.039C3.29442 17.9926 3.28822 17.9554 3.28046 17.9554C3.27249 17.9554 3.2665 17.9136 3.2665 17.8578C3.2665 17.802 3.26051 17.7602 3.25254 17.7602C3.24478 17.7602 3.23858 17.723 3.23858 17.6766C3.23858 17.6301 3.23238 17.5929 3.22462 17.5929C3.21665 17.5929 3.21066 17.5511 3.21066 17.4954C3.21066 17.4396 3.20467 17.3978 3.1967 17.3978C3.18873 17.3978 3.18274 17.3559 3.18274 17.3002C3.18274 17.2444 3.17675 17.2026 3.16878 17.2026C3.16102 17.2026 3.15482 17.1654 3.15482 17.119C3.15482 17.0725 3.14862 17.0353 3.14086 17.0353C3.13289 17.0353 3.1269 16.9935 3.1269 16.9377C3.1269 16.882 3.12091 16.8401 3.11294 16.8401C3.10518 16.8401 3.09898 16.803 3.09898 16.7565C3.09898 16.71 3.09279 16.6729 3.08503 16.6729C3.07705 16.6729 3.07107 16.631 3.07107 16.5753C3.07107 16.5195 3.06508 16.4777 3.05711 16.4777C3.04914 16.4777 3.04315 16.4359 3.04315 16.3801C3.04315 16.3244 3.03716 16.2825 3.02919 16.2825C3.02143 16.2825 3.01523 16.2453 3.01523 16.1989C3.01523 16.1524 3.00903 16.1152 3.00127 16.1152C2.9933 16.1152 2.98731 16.0734 2.98731 16.0177C2.98731 15.9619 2.98132 15.9201 2.97335 15.9201C2.96559 15.9201 2.95939 15.8829 2.95939 15.8364C2.95939 15.79 2.95319 15.7528 2.94543 15.7528C2.93746 15.7528 2.93147 15.711 2.93147 15.6552C2.93147 15.5994 2.92548 15.5576 2.91751 15.5576C2.90975 15.5576 2.90355 15.5204 2.90355 15.474C2.90355 15.4275 2.89736 15.3903 2.88959 15.3903C2.88162 15.3903 2.87563 15.3485 2.87563 15.2928C2.87563 15.237 2.86965 15.1952 2.86168 15.1952C2.8537 15.1952 2.84772 15.1533 2.84772 15.0976C2.84772 15.0418 2.84173 15 2.83376 15C2.82599 15 2.8198 14.9628 2.8198 14.9164C2.8198 14.8699 2.8136 14.8327 2.80584 14.8327C2.79787 14.8327 2.79188 14.7909 2.79188 14.7351C2.79188 14.6794 2.78589 14.6375 2.77792 14.6375C2.77016 14.6375 2.76396 14.6004 2.76396 14.5539C2.76396 14.5074 2.75776 14.4703 2.75 14.4703C2.74224 14.4703 2.73604 14.4331 2.73604 14.3866C2.73604 14.3402 2.72984 14.303 2.72208 14.303C2.7144 14.303 2.70812 14.2779 2.70812 14.2472C2.70812 14.2165 2.70184 14.1915 2.69416 14.1915C2.68648 14.1915 2.6802 14.1726 2.6802 14.1496C2.6802 14.1266 2.67392 14.1078 2.66624 14.1078C2.65857 14.1078 2.65228 14.089 2.65228 14.066C2.65228 14.043 2.646 14.0242 2.63832 14.0242C2.63065 14.0242 2.62437 14.0116 2.62437 13.9963C2.62437 13.9809 2.61808 13.9684 2.61041 13.9684C2.60273 13.9684 2.59645 13.9559 2.59645 13.9405C2.59645 13.9252 2.59016 13.9126 2.58249 13.9126C2.57481 13.9126 2.56853 13.9015 2.56853 13.8878C2.56853 13.8742 2.55596 13.854 2.54061 13.8429C2.52525 13.8319 2.51269 13.8142 2.51269 13.8036C2.51269 13.7931 2.49385 13.7668 2.47081 13.7454C2.44778 13.7239 2.42893 13.6993 2.42893 13.6907C2.42893 13.6703 2.28073 13.5223 2.26035 13.5223C2.25175 13.5223 2.2271 13.5035 2.20558 13.4805C2.18407 13.4575 2.1578 13.4387 2.14723 13.4387C2.13665 13.4387 2.11894 13.4261 2.10787 13.4108C2.0968 13.3954 2.07657 13.3829 2.0629 13.3829C2.04925 13.3829 2.03807 13.3766 2.03807 13.369C2.03807 13.3613 2.02551 13.355 2.01015 13.355C1.9948 13.355 1.98223 13.3487 1.98223 13.3411C1.98223 13.3334 1.96967 13.3271 1.95431 13.3271C1.93896 13.3271 1.9264 13.3209 1.9264 13.3132C1.9264 13.3055 1.91383 13.2993 1.89848 13.2993C1.88312 13.2993 1.87056 13.293 1.87056 13.2853C1.87056 13.2776 1.85171 13.2714 1.82868 13.2714C1.80565 13.2714 1.7868 13.2651 1.7868 13.2574C1.7868 13.2498 1.76168 13.2435 1.73096 13.2435C1.70025 13.2435 1.67513 13.2372 1.67513 13.2296C1.67513 13.2218 1.6379 13.2156 1.59137 13.2156C1.54484 13.2156 1.50761 13.2094 1.50761 13.2017C1.50761 13.1934 1.45643 13.1877 1.38198 13.1877C1.30753 13.1877 1.25635 13.1934 1.25635 13.2017ZM13.8477 17.4814V19.3494H15.7602H17.6726V24.6747V30H23.4239H29.1751V24.6747V19.3494H31.0876H33V17.4814V15.6134H23.4239H13.8477V17.4814Z" fill="#214D7E"/>
</svg>
