<svg width="28" height="28" viewBox="0 0 28 28" fill="none" xmlns="http://www.w3.org/2000/svg">
<path fill-rule="evenodd" clip-rule="evenodd" d="M27.0879 0.0566507C26.9883 0.101335 26.4261 0.647465 24.5947 2.4788L22.2301 4.84326L21.2228 3.83839C20.6687 3.28572 20.1738 2.81277 20.123 2.78739C19.85 2.65102 19.5948 2.71151 19.2919 2.98439C18.6938 3.5234 18.1102 3.76135 17.315 3.79051C16.9629 3.8034 16.8563 3.79651 16.6054 3.74465C16.059 3.6317 15.534 3.36462 15.1289 2.9936C14.8398 2.72872 14.6679 2.67389 14.3824 2.75543L14.2145 2.8034L7.17706 9.84137C1.64681 15.372 0.124435 16.9096 0.0688557 17.0207C-0.0085559 17.1755 -0.0200433 17.3227 0.0311072 17.505C0.0600258 17.608 0.69935 18.259 5.18188 22.7491C8.27229 25.8448 10.3449 27.8999 10.4139 27.9369C10.563 28.0169 10.8549 28.0216 10.9998 27.9465C11.1013 27.8939 24.9161 14.1053 25.1169 13.8561C25.2681 13.6686 25.3112 13.4729 25.2487 13.2578C25.2128 13.1344 25.1564 13.0481 24.9895 12.861C24.4659 12.2742 24.203 11.5908 24.2021 10.8145C24.2012 9.99543 24.4585 9.33243 25.0185 8.71028C25.15 8.56431 25.2154 8.46413 25.2454 8.36299C25.2982 8.18531 25.298 8.16258 25.2421 7.97201C25.1988 7.8244 25.1461 7.76608 24.1781 6.79424L23.1597 5.77179L25.5227 3.40648C27.3529 1.57451 27.8987 1.01217 27.9434 0.91254C28.1823 0.379503 27.6207 -0.182408 27.0879 0.0566507ZM14.8392 4.41943C15.2604 4.69708 15.7988 4.91553 16.3558 5.0348C16.7516 5.11951 17.5671 5.1258 17.9865 5.04733C18.5457 4.94272 19.1552 4.70109 19.5818 4.41489C19.6874 4.34401 19.7833 4.28601 19.7948 4.28601C19.8063 4.28601 20.15 4.62052 20.5584 5.02937L21.301 5.77274L20.668 6.406L20.0351 7.03924L19.8538 6.9636C19.7541 6.922 19.5953 6.86794 19.501 6.8435C19.272 6.78409 18.758 6.78309 18.5083 6.84155C17.6995 7.03087 17.0639 7.64818 16.8401 8.46162C16.7707 8.71386 16.7696 9.28923 16.8381 9.54633C17.0017 10.1608 17.4185 10.6858 17.9713 10.9735C18.3214 11.1558 18.5804 11.2168 19.0009 11.2162C19.4259 11.2156 19.6103 11.1729 19.9992 10.9852C20.2326 10.8725 20.3053 10.8182 20.5422 10.5795C20.8495 10.2698 20.971 10.0832 21.0889 9.73962C21.2724 9.20475 21.2536 8.62415 21.0369 8.13616L20.9629 7.96958L21.5964 7.33582L22.2299 6.70204L22.9729 7.445C23.3816 7.85362 23.7159 8.196 23.7159 8.20581C23.7159 8.21564 23.6568 8.31196 23.5844 8.41988C23.3086 8.83136 23.0666 9.43389 22.9537 9.99049C22.8752 10.3771 22.8823 11.2864 22.9668 11.6693C23.0884 12.2206 23.2995 12.7331 23.5909 13.1851C23.6597 13.2918 23.7159 13.3883 23.7159 13.3996C23.7159 13.4109 20.7905 16.3469 17.215 19.924L10.714 26.4279L6.14902 21.8609L1.58408 17.2939L8.08503 10.7899C11.6605 7.21278 14.5974 4.28601 14.6113 4.28601C14.6253 4.28601 14.7278 4.34604 14.8392 4.41943ZM18.881 8.19551C18.7211 8.36648 18.6619 8.59387 18.7187 8.81935C18.7682 9.01593 18.9882 9.23603 19.1847 9.28555C19.41 9.34232 19.6373 9.28314 19.8082 9.12319L19.8868 9.04963V9.12136C19.8868 9.36854 19.6338 9.715 19.3659 9.83488C19.149 9.93191 18.8143 9.93139 18.6159 9.8337C18.4346 9.74448 18.26 9.56972 18.1708 9.38835C18.0731 9.18989 18.0726 8.85506 18.1696 8.63807C18.2894 8.36996 18.6191 8.1259 18.8706 8.11915L18.9545 8.1169L18.881 8.19551ZM13.2986 9.81724C13.0921 9.92067 5.45635 17.5638 5.37219 17.7513C5.2266 18.0757 5.36308 18.4448 5.6903 18.6118C5.83043 18.6833 6.08887 18.6831 6.2419 18.6112C6.40515 18.5346 14.1239 10.8031 14.185 10.6551C14.2091 10.5966 14.2285 10.4808 14.2282 10.3978C14.2262 9.91616 13.7254 9.60345 13.2986 9.81724ZM15.4433 11.7744C15.3961 11.7859 15.319 11.8159 15.2718 11.8411C15.1512 11.9056 7.44339 19.6321 7.38718 19.7449C7.2297 20.0608 7.36215 20.46 7.67525 20.613C7.84825 20.6976 8.10818 20.7041 8.25648 20.6277C8.38702 20.5604 16.1026 12.8506 16.1704 12.7197C16.3031 12.4636 16.2658 12.1982 16.0661 11.9759C15.8952 11.7857 15.6811 11.7165 15.4433 11.7744ZM14.8001 16.4328C14.7607 16.4456 14.69 16.4765 14.643 16.5015C14.5959 16.5265 13.4038 17.7023 11.9937 19.1146C10.1889 20.9222 9.41709 21.7137 9.3862 21.7885C9.36208 21.847 9.34236 21.9665 9.34236 22.0541C9.34236 22.5225 9.82638 22.8316 10.2568 22.6381C10.4436 22.5541 15.4269 17.5725 15.5297 17.3669C15.6923 17.0418 15.5689 16.6523 15.252 16.4906C15.1247 16.4256 14.9073 16.3978 14.8001 16.4328Z" fill="black"/>
</svg>
