<svg width="24" height="24" viewBox="0 0 24 24" fill="none" xmlns="http://www.w3.org/2000/svg">
<path fill-rule="evenodd" clip-rule="evenodd" d="M19.0073 0.0371877C18.6223 0.122617 18.3036 0.386512 18.1249 0.767974L18.0313 0.96777L18.0135 3.10733L17.9957 5.2469L16.0062 6.65518L14.0166 8.06346L13.9988 5.95063L13.9811 3.83784L11.0249 5.93339C9.39894 7.08595 8.05861 8.02396 8.04632 8.01788C8.03406 8.01184 8.02479 7.04297 8.02574 5.86492C8.0267 4.68686 8.01608 3.72297 8.00215 3.72301C7.97785 3.72304 0.300035 9.78679 0.0980576 9.96547L0 10.0522L0.0103387 15.7309L0.0206416 21.4096L0.100438 21.7118C0.389602 22.8073 1.24224 23.653 2.32781 23.9211L2.64756 24L12.0092 23.9999L21.3709 23.9998L21.6803 23.9233C22.8032 23.6458 23.6327 22.8197 23.9187 21.694L24 21.374V11.1887V1.00332L23.9165 0.79613C23.8004 0.508167 23.5003 0.206553 23.2184 0.0944603L23.0052 0.00970695L21.1045 0.00167224C19.7082 -0.00426477 19.1516 0.00515625 19.0073 0.0371877ZM21.9919 11.6242C21.9911 21.1998 21.9908 21.2324 21.919 21.3908C21.8028 21.6472 21.6879 21.7698 21.4545 21.8865L21.2352 21.9962L12.048 21.996C5.90464 21.9958 2.81746 21.9837 2.73009 21.9594C2.48076 21.8902 2.26776 21.7124 2.14203 21.4687L2.02582 21.2434V16.1129V10.9825L3.27467 9.99238C3.96153 9.44785 4.85283 8.74099 5.25536 8.42167L5.98721 7.84102L6.00497 9.88786L6.02274 11.9347L6.46684 11.6213C7.5836 10.8331 10.6686 8.64746 11.4585 8.08483L11.9915 7.70525L12.0092 9.81822L12.027 11.9312L13.7161 10.7334C14.6451 10.0746 16.4397 8.80164 17.7041 7.90462L20.0031 6.27368V4.1451V2.01652H20.9979H21.9927L21.9919 11.6242ZM4.02371 15.0015L4.03316 16.0058H5.01018H5.98721L5.99666 15.0015L6.00607 13.9972H5.01018H4.01429L4.02371 15.0015ZM8.01072 14.0419C8.0013 14.0664 7.99782 14.5184 8.00294 15.0462L8.01232 16.0058H9.0071H10.0019L10.0113 15.0015L10.0208 13.9972H9.0243C8.25721 13.9972 8.0239 14.0075 8.01072 14.0419ZM12.0092 14.9885C12.0092 15.9503 12.0113 15.9803 12.0804 15.9984C12.1196 16.0086 12.5672 16.0184 13.0752 16.0201L13.9988 16.0232V15.0102V13.9972H13.004H12.0092V14.9885ZM16.0124 14.0206C15.9805 14.0525 15.9841 15.9246 16.0161 15.9747C16.0341 16.0027 16.3307 16.0133 17.0187 16.0102L17.9957 16.0058L18.0052 15.0015L18.0146 13.9972H17.0252C16.481 13.9972 16.0252 14.0077 16.0124 14.0206ZM4.0154 19.0099V20.0053H5.01018H6.00497V19.0099V18.0145H5.01018H4.0154V19.0099ZM8.00276 19.001L8.01232 19.9875L9.01599 19.997L10.0197 20.0064V19.0105V18.0145H9.00643H7.99324L8.00276 19.001ZM12.0092 19.0099V20.0053H13.004H13.9988V19.0099V18.0145H13.004H12.0092V19.0099ZM16.0044 18.0596C15.9948 18.0845 15.9913 18.5284 15.9966 19.0462L16.0062 19.9875L17.0098 19.997L18.0135 20.0064V19.0105V18.0145H17.0176C16.245 18.0145 16.0178 18.0246 16.0044 18.0596Z" fill="black"/>
</svg>
