<svg width="27" height="21" viewBox="0 0 27 21" fill="none" xmlns="http://www.w3.org/2000/svg">
<path fill-rule="evenodd" clip-rule="evenodd" d="M18.2753 0.0241346C18.1455 0.0548682 17.7611 0.423836 14.9801 3.18688L12.5314 5.61982L11.2705 4.3681C9.95391 3.06117 9.56923 2.70558 9.36165 2.60347C9.2647 2.55579 9.18906 2.54239 9.01685 2.54239C8.74725 2.54239 8.60513 2.60336 8.40171 2.80636C8.20088 3.00672 8.16175 3.10115 8.16335 3.38158C8.16556 3.76975 8.17283 3.78268 8.71055 4.34923C9.44272 5.12071 11.6636 7.31203 11.9122 7.50824C12.3927 7.88752 12.6382 7.90268 13.0231 7.57691C14.1799 6.59765 18.6851 2.09886 19.2993 1.30972C19.4354 1.13475 19.4696 1.00857 19.4484 0.759621C19.433 0.578164 19.3683 0.443316 19.2153 0.273525C19.0333 0.0715143 18.8612 -0.00335226 18.5869 0.00011455C18.4647 0.00168287 18.3245 0.012496 18.2753 0.0241346ZM0.495801 6.0609C0.145019 6.29805 0.000277256 6.53596 1.50514e-06 6.8759C-0.000163945 7.04608 0.0132375 7.10955 0.0764671 7.23802C0.168788 7.42561 0.325442 7.57303 0.533441 7.66804C0.672144 7.73141 0.736283 7.7406 1.17098 7.75942C1.43683 7.77092 1.86838 7.78113 2.12998 7.78212L2.60565 7.78388L2.60675 12.2343C2.60794 17.1117 2.6244 18.0713 2.71264 18.4092C2.85578 18.9575 3.15963 19.458 3.63737 19.9324C4.08737 20.3794 4.55413 20.6757 5.09538 20.858C5.32703 20.936 5.39785 20.946 5.90087 20.9717C6.65367 21.0101 20.335 21.0091 21.2464 20.9706C21.8606 20.9446 21.9433 20.9352 22.1564 20.8672C23.0678 20.5764 23.9008 19.872 24.3425 19.0185C24.5607 18.597 24.6321 18.3406 24.6643 17.8623C24.6802 17.6259 24.7004 15.3633 24.7111 12.6153L24.7299 7.78388L25.0908 7.78261C25.2892 7.78192 25.6451 7.7713 25.8817 7.75903C26.367 7.73383 26.5169 7.68727 26.7294 7.49566C26.9944 7.25684 27.0764 6.84228 26.9234 6.51585C26.8418 6.34177 26.7157 6.20535 26.5061 6.06459L26.3623 5.96793L23.8526 5.96958C21.1725 5.97131 20.6129 5.98644 20.4329 6.06192C20.2879 6.12275 20.1287 6.27881 20.0376 6.44943C19.9721 6.57217 19.9642 6.61663 19.9645 6.86214C19.9648 7.09814 19.9744 7.15669 20.0322 7.27371C20.1571 7.52618 20.3547 7.67489 20.6359 7.72813C20.7119 7.74249 21.2546 7.76294 21.8419 7.77353L22.9097 7.79279L22.8901 12.9773L22.8705 18.1618L22.7547 18.3726C22.6022 18.6501 22.3369 18.9177 22.0989 19.0341L21.9173 19.1229L21.1475 19.1479C20.7242 19.1616 17.0223 19.1733 12.9211 19.1738L5.46441 19.1748L5.22986 19.0441C4.89468 18.8574 4.7417 18.7074 4.57018 18.3976L4.42561 18.1365V12.9602V7.78388L4.95643 7.78258C5.78696 7.78057 6.53954 7.73963 6.71433 7.68697C6.83211 7.65148 6.90041 7.60622 7.02003 7.48436C7.20261 7.29836 7.26584 7.14139 7.26584 6.87417C7.26584 6.51021 7.10585 6.23454 6.81104 6.09061C6.67689 6.02516 6.61531 6.0152 6.21225 5.99396C5.96518 5.98094 4.60881 5.96977 3.19816 5.96911L0.63329 5.96793L0.495801 6.0609ZM5.96981 10.143V10.9755H6.90113H7.83248L7.8247 10.5009C7.8204 10.2399 7.80962 9.87585 7.80071 9.69197L7.78452 9.35764L7.3942 9.34124C7.17953 9.33225 6.77122 9.32163 6.48684 9.31772L5.96981 9.31057V10.143ZM9.36154 10.1501V10.9755H10.2715H11.1815V10.1501V9.32468H10.2715H9.36154V10.1501ZM12.7808 10.1501V10.9755H13.6908H14.6008V10.1501V9.32468H13.6908H12.7808V10.1501ZM16.145 10.1501V10.9755H17.0412H17.9374V10.1501V9.32468H17.0412H16.145V10.1501ZM19.5643 10.1501V10.9755H20.4605H21.3567V10.1501V9.32468H20.4605H19.5643V10.1501ZM6.11775 12.6168C6.01633 12.6279 6.00182 12.6386 5.98677 12.7138C5.97745 12.7603 5.96981 13.1311 5.96981 13.5378V14.2773H6.89195C7.39913 14.2773 7.81899 14.268 7.82498 14.2566C7.83893 14.2302 7.79894 12.6539 7.78392 12.6389C7.76729 12.6223 6.25107 12.6022 6.11775 12.6168ZM9.36802 13.4312L9.37533 14.2635H10.2715H11.1677L11.175 13.4312L11.1823 12.5989H10.2715H9.36074L9.36802 13.4312ZM12.7873 13.4267L12.7946 14.2635L13.6978 14.2708L14.6009 14.278L14.5832 13.4591C14.5735 13.0087 14.5629 12.6368 14.5596 12.6327C14.5563 12.6286 14.1546 12.6173 13.6668 12.6076L12.78 12.59L12.7873 13.4267ZM16.2833 12.6232C16.1969 12.6384 16.1852 12.6513 16.1677 12.7502C16.1569 12.8108 16.1475 13.1791 16.1466 13.5688L16.145 14.2773H17.0412H17.9374V13.4381V12.5989L17.1584 12.6025C16.7299 12.6045 16.3362 12.6138 16.2833 12.6232ZM19.5643 13.4381V14.2773H20.4605H21.3567V13.4381V12.5989H20.4605H19.5643V13.4381ZM5.96708 15.9484C5.95798 16.0181 5.97359 17.0111 5.98781 17.2695L6.00488 17.579H6.89377H7.78268L7.79952 17.2832C7.80879 17.1205 7.81954 16.7522 7.82343 16.4647L7.83052 15.9419L6.90016 15.9347C6.38848 15.9307 5.96857 15.9369 5.96708 15.9484ZM9.37993 15.9465C9.36981 15.9566 9.36154 16.3342 9.36154 16.7857V17.6065H10.2715H11.1815V16.7673V15.9281H10.2899C9.79951 15.9281 9.39003 15.9364 9.37993 15.9465ZM12.7808 16.7673V17.6065H13.6908H14.6008V16.7673V15.9281H13.6908H12.7808V16.7673ZM16.145 16.7673V17.6065H17.0412H17.9374V16.7673V15.9281H17.0412H16.145V16.7673ZM19.5643 16.7673V17.6065H20.4605H21.3567V16.7673V15.9281H20.4605H19.5643V16.7673Z" fill="black"/>
</svg>
