<svg width="18" height="25" viewBox="0 0 18 25" fill="none" xmlns="http://www.w3.org/2000/svg">
<path d="M9.00003 0.768051C6.68304 0.768051 4.90394 2.89555 4.90394 5.37606C4.90394 7.85661 6.68304 9.98406 9.00003 9.98406C11.317 9.98406 13.0961 7.85656 13.0961 5.37606C13.0961 2.8955 11.317 0.768051 9.00003 0.768051V0.768051ZM9.00003 2.30414C10.3591 2.30414 11.56 3.61505 11.56 5.3761C11.56 7.13716 10.3591 8.44806 9.00003 8.44806C7.64094 8.44806 6.44003 7.13716 6.44003 5.3761C6.44003 3.61505 7.64094 2.30414 9.00003 2.30414ZM9.00003 10.4962C6.72483 10.4962 4.64323 11.1458 3.09603 12.3442C1.54869 13.5424 0.552119 15.3267 0.552119 17.408V24.064H0.551941C0.551941 24.2676 0.632833 24.4629 0.776942 24.607C0.921047 24.751 1.11623 24.832 1.31998 24.832H16.68C16.8837 24.832 17.0789 24.751 17.223 24.607C17.3671 24.4629 17.448 24.2676 17.448 24.064V17.408C17.448 15.3266 16.4512 13.5423 14.9041 12.3442C13.3568 11.1458 11.2752 10.4962 9.00011 10.4962H9.00003ZM9.00003 12.0322C10.9795 12.0322 12.739 12.6083 13.9683 13.5603C15.1974 14.5121 15.9122 15.8024 15.9122 17.4083V23.2964H2.08816V17.4083C2.08816 15.8024 2.803 14.5123 4.03207 13.5603C5.26119 12.6083 7.02046 12.0322 9.0003 12.0322H9.00003Z" fill="#141414"/>
</svg>
