<svg width="13" height="7" viewBox="0 0 13 7" fill="none" xmlns="http://www.w3.org/2000/svg">
<path d="M12.6561 1.73942C13.0645 1.36759 13.0941 0.735123 12.7223 0.326754C12.3505 -0.0816159 11.718 -0.111242 11.3096 0.260582L12.6561 1.73942ZM6.49144 6L5.81819 6.73942C6.19979 7.08686 6.78309 7.08686 7.16469 6.73942L6.49144 6ZM1.67325 0.260582C1.26488 -0.111241 0.632405 -0.0816154 0.260581 0.326754C-0.111242 0.735124 -0.0816159 1.3676 0.326754 1.73942L1.67325 0.260582ZM11.3096 0.260582L5.81819 5.26058L7.16469 6.73942L12.6561 1.73942L11.3096 0.260582ZM7.16469 5.26058L1.67325 0.260582L0.326754 1.73942L5.81819 6.73942L7.16469 5.26058Z" fill="#214D7E"/>
</svg>
