<svg width="17" height="16" viewBox="0 0 17 16" fill="none" xmlns="http://www.w3.org/2000/svg">
<path fill-rule="evenodd" clip-rule="evenodd" d="M1.89 0.00131922C1.54948 0.0226423 1.20345 0.132228 0.917354 0.309349C0.78736 0.389821 0.697108 0.459226 0.587356 0.563114C0.249705 0.882724 0.0464494 1.29476 0.00599967 1.74163C0.000537897 1.80192 -0.00095848 3.53782 0.000558302 8.0502L0.00265323 14.2756L0.0180115 14.3652C0.100822 14.8483 0.342467 15.2548 0.72658 15.5571C1.02244 15.7899 1.35252 15.9276 1.75428 15.9859C1.82829 15.9967 2.16329 15.9974 8.45025 15.9992C14.485 16.001 15.0779 16.0003 15.1771 15.9909C15.8722 15.9253 16.473 15.5355 16.7894 14.9449C16.8905 14.7562 16.9543 14.5596 16.9877 14.3332C16.9995 14.2534 17 13.9934 17 8.00539C17 2.04874 16.9994 1.75697 16.9879 1.67758C16.9535 1.4418 16.8969 1.26383 16.7924 1.06305C16.5934 0.680766 16.2729 0.380117 15.8641 0.192331C15.658 0.0976542 15.5043 0.0531131 15.2417 0.0120352C15.1742 0.00147925 14.8113 0.000832709 8.54547 0.000134954C4.9018 -0.000268335 1.90683 0.000262983 1.89 0.00131922ZM10.572 2.6746C10.574 2.68605 10.579 2.71989 10.583 2.74982C10.587 2.77975 10.5994 2.84744 10.6105 2.90025C10.7 3.32791 10.8838 3.71725 11.1606 4.06531C11.3643 4.32145 11.6368 4.56288 11.9191 4.73719C12.3094 4.97817 12.7446 5.12892 13.2046 5.18246C13.2682 5.18986 13.3302 5.19732 13.3424 5.19903L13.3645 5.20215V6.09102V6.9799L13.2846 6.98524C13.2406 6.98818 13.1373 6.99019 13.055 6.9897C12.6442 6.98727 12.2673 6.91201 11.8749 6.75407C11.3748 6.55276 10.9067 6.19364 10.6003 5.77624C10.5751 5.74199 10.5517 5.7123 10.5482 5.71025C10.5442 5.70792 10.5417 6.56099 10.5417 7.981C10.5417 9.43747 10.5392 10.2831 10.5349 10.3323C10.4896 10.8444 10.3396 11.3028 10.0791 11.7246C9.53316 12.6086 8.59041 13.1949 7.51161 13.3213C7.31115 13.3448 7.03592 13.3514 6.83863 13.3374C6.39391 13.3059 5.94272 13.1888 5.55272 13.0037C5.08497 12.7818 4.70339 12.49 4.38479 12.1106C3.73979 11.3427 3.49917 10.351 3.7242 9.38809C3.83299 8.92259 4.06781 8.45865 4.38512 8.08228C4.58389 7.84652 4.85075 7.60941 5.11061 7.43768C5.64351 7.08552 6.26655 6.88572 6.93347 6.85312C7.06354 6.84676 7.20052 6.8483 7.27525 6.85697L7.30416 6.86032V7.6601C7.30416 8.09999 7.30186 8.45984 7.29906 8.45977C7.29626 8.45971 7.26488 8.45544 7.22934 8.45028C7.10074 8.43163 6.92099 8.44 6.74642 8.47278C6.21126 8.57326 5.75983 8.89953 5.51626 9.36187C5.3819 9.61692 5.32381 9.86859 5.33377 10.1526C5.34288 10.4127 5.40255 10.6279 5.52999 10.8604C5.78892 11.3328 6.2752 11.6591 6.83778 11.738C7.27025 11.7987 7.74544 11.6971 8.12037 11.4639C8.23982 11.3896 8.30306 11.3418 8.40166 11.2513C8.67443 11.001 8.83447 10.7185 8.90327 10.3658C8.91616 10.2998 8.91776 10.2576 8.92282 9.849C8.92585 9.6043 8.93018 8.27345 8.93246 6.89154C8.93473 5.50963 8.93856 3.99081 8.94098 3.51639L8.94537 2.6538H9.75686H10.5684L10.572 2.6746Z" fill="#FDEA6F"/>
</svg>
