<svg width="19" height="11" viewBox="0 0 19 11" fill="none" xmlns="http://www.w3.org/2000/svg">
<path fill-rule="evenodd" clip-rule="evenodd" d="M7.36234 0.034112C6.99147 0.102416 6.66845 0.279128 6.38624 0.568101L6.19611 0.762809L6.27005 0.769224C6.85377 0.819812 7.16031 1.07912 7.30735 1.64669C7.34915 1.80805 7.35374 1.91313 7.38002 3.315C7.39886 4.3189 7.40121 4.84296 7.38716 4.90797C7.34468 5.10462 7.18775 5.29765 6.9989 5.38556C6.84941 5.45514 6.59955 5.45449 6.4451 5.38408C6.29103 5.31386 6.19516 5.19964 5.85576 4.68194C5.10456 3.53606 4.51628 2.43179 4.0323 1.259C3.83527 0.781559 3.82629 0.764854 3.70837 0.656166C3.52634 0.488388 3.60149 0.495018 1.88154 0.495018C0.182676 0.495018 0.298405 0.485224 0.137255 0.642583C0.0423134 0.735298 -0.0161006 0.907145 0.00392708 1.03482C0.0363136 1.24113 0.488541 2.30747 0.916178 3.18584C2.76637 6.98621 4.99696 9.68866 7.0439 10.6099C7.40442 10.7721 7.783 10.8898 8.17141 10.9604C8.29117 10.9822 8.61609 10.9892 9.50236 10.9892H10.6749L10.7805 10.9359C10.9221 10.8645 11.0568 10.723 11.1255 10.5737L11.1819 10.4511L11.1925 9.72993C11.2028 9.02127 11.2039 9.00696 11.2541 8.90299C11.369 8.66523 11.6041 8.51475 11.8579 8.51665C12.1194 8.51859 12.1906 8.56116 12.621 8.97308C12.8287 9.17194 13.3403 9.66189 13.7578 10.0619C14.1753 10.4619 14.5556 10.8141 14.6029 10.8446C14.6502 10.8751 14.7581 10.9225 14.8428 10.95L14.9968 11L16.5646 10.9997C18.0123 10.9995 18.1471 10.9964 18.3235 10.9592C18.6479 10.891 18.8362 10.7665 18.9397 10.5519C19.0559 10.3107 19.0035 10.0036 18.7884 9.66477C18.7271 9.56816 18.4703 9.2805 18.0728 8.86318C17.0062 7.74322 16.0951 6.76066 16.0383 6.66896C15.9417 6.51297 15.8983 6.35579 15.8969 6.15651C15.8945 5.83176 15.9201 5.78221 16.475 5.03435C16.7419 4.67477 17.2451 3.99645 17.5933 3.52695C18.2871 2.59136 18.5038 2.26913 18.6921 1.89276C19.0668 1.14405 19.0573 0.741369 18.6606 0.555314L18.5549 0.505781L16.7982 0.499926L15.0415 0.494071L14.9187 0.540913C14.6937 0.626675 14.6358 0.708756 14.1462 1.63655C13.656 2.56534 13.3909 3.07033 13.005 3.81012C12.629 4.53108 12.4065 4.86653 12.149 5.10048C11.746 5.46667 11.4274 5.39178 11.2471 4.88853C11.2052 4.77154 11.2036 4.71156 11.1919 2.81989C11.1824 1.29482 11.1738 0.853027 11.152 0.785627C11.0205 0.377913 10.696 0.085496 10.3052 0.0224016C10.0819 -0.013634 7.56726 -0.0036241 7.36234 0.034112Z" fill="#FDEA6F"/>
</svg>
