<svg width="17" height="13" viewBox="0 0 17 13" fill="none" xmlns="http://www.w3.org/2000/svg">
<path fill-rule="evenodd" clip-rule="evenodd" d="M6.86752 0.00856634C5.00798 0.0311074 3.39739 0.110113 2.30695 0.23227C1.94519 0.272799 1.793 0.309283 1.56602 0.409895C1.32748 0.515619 1.12947 0.662624 0.910747 0.896388C0.583563 1.24605 0.407005 1.59511 0.29608 2.11161C0.15727 2.75796 0.0649099 3.59816 0.012888 4.68788C-0.00428176 5.04748 -0.00430074 7.95771 0.0128595 8.316C0.0693708 9.49582 0.194106 10.5745 0.334273 11.0955C0.54368 11.874 1.14138 12.5022 1.85751 12.6965C2.23915 12.8001 3.77947 12.9158 5.43433 12.9652C6.42664 12.9948 6.88104 13 8.50003 13C10.119 13 10.5734 12.9948 11.5657 12.9652C13.1866 12.9168 14.7568 12.8003 15.1279 12.7009C15.4048 12.6266 15.6423 12.5054 15.87 12.3219C15.9767 12.2359 16.22 11.9727 16.2991 11.8577C16.4811 11.5931 16.6021 11.3218 16.6777 11.0086C16.8241 10.4029 16.9326 9.45852 16.9872 8.316C17.0043 7.95726 17.0043 5.04661 16.9872 4.68788C16.931 3.51151 16.807 2.43812 16.6669 1.91717C16.468 1.17703 15.9198 0.562449 15.2626 0.34273C15.0872 0.28409 14.9901 0.26536 14.6884 0.231985C13.7919 0.132807 12.6252 0.064797 11.1861 0.0278247C10.1114 0.000222572 8.24336 -0.00811081 6.86752 0.00856634ZM6.81395 2.61539C6.84602 2.62418 6.89789 2.64493 6.92922 2.66151C6.96054 2.6781 8.09862 3.43579 9.45829 4.34527C12.1786 6.1649 12.0136 6.04824 12.0822 6.19983C12.1645 6.3813 12.1644 6.62266 12.0821 6.80426C12.0141 6.95437 12.176 6.83999 9.43933 8.67101C7.75257 9.79955 6.9261 10.347 6.87753 10.3678C6.81104 10.3963 6.7972 10.3986 6.68719 10.3985C6.58234 10.3985 6.55972 10.3952 6.49262 10.3704C6.29116 10.2959 6.15346 10.153 6.0981 9.96115L6.075 9.88107V6.50194C6.075 3.27543 6.07577 3.12013 6.0921 3.06354C6.11845 2.9722 6.15175 2.90392 6.20092 2.8404C6.34472 2.65463 6.60644 2.55857 6.81395 2.61539Z" fill="#FDEA6F"/>
</svg>
