<svg width="26" height="22" viewBox="0 0 26 22" fill="none" xmlns="http://www.w3.org/2000/svg">
<path d="M19.6104 22L11.2792 13.5432C8.16426 15.6294 3.99965 14.9841 1.63956 12.0495C-0.720518 9.11489 -0.510391 4.84313 2.12593 2.16187C4.76646 -0.51569 8.97453 -0.729946 11.8657 1.66596C14.7568 4.06187 15.3928 8.29047 13.3378 11.4532L21.6661 19.9115L19.6104 22ZM7.26884 2.95386C5.18748 2.95252 3.39502 4.44403 2.98764 6.51626C2.58026 8.58849 3.67142 10.6643 5.59382 11.4742C7.51622 12.2842 9.73446 11.6027 10.892 9.84648C12.0495 8.09029 11.8239 5.74854 10.3531 4.25333C9.53728 3.4193 8.42664 2.95137 7.26884 2.95386ZM23.1107 8.8H20.2215V5.86667H17.3322V2.93333H20.2215V0H23.1107V2.93333H26V5.86667H23.1107V8.8Z" fill="#2E3A59" fill-opacity="0.24"/>
</svg>
