<svg width="218" height="50" viewBox="0 0 218 50" fill="none" xmlns="http://www.w3.org/2000/svg">
<path d="M68.1477 13.5825L58.1641 36.4173H64.6344L66.4626 32.0337H77.8307L79.6528 36.4173H86.1211L76.1395 13.5825H68.1477ZM68.5812 26.9482L72.1559 18.3724L75.7183 26.9482H68.5812Z" fill="white"/>
<path d="M105.618 27.2843C106.803 26.7338 107.817 25.8498 108.545 24.732C109.258 23.6035 109.626 22.277 109.6 20.9269C109.632 19.5613 109.264 18.2179 108.545 17.0751C107.811 15.9632 106.799 15.0808 105.618 14.5227C104.368 13.9031 102.905 13.5933 101.228 13.5933H88.1992V36.4174H94.2606V28.1968H97.4344L103.334 36.4174H110.361L104.052 27.8629C104.591 27.7229 105.115 27.5291 105.618 27.2843ZM94.2606 18.2725H100.379C101.354 18.2725 102.115 18.5008 102.661 18.9574C103.208 19.414 103.481 20.0684 103.479 20.9206C103.497 21.289 103.433 21.6568 103.291 21.9949C103.149 22.333 102.933 22.6321 102.661 22.8688C102.116 23.3368 101.355 23.57 100.379 23.5686H94.2606V18.2725Z" fill="white"/>
<path d="M130.867 14.9991C128.904 14.0547 126.625 13.5825 124.031 13.5825H113.088V36.4173H124.037C126.627 36.4173 128.906 35.9458 130.873 35.0029C132.728 34.1512 134.312 32.768 135.44 31.0149C136.521 29.2992 137.062 27.2942 137.063 24.9999C137.065 22.7057 136.523 20.7014 135.44 18.9871C134.311 17.2325 132.725 15.849 130.867 14.9991ZM130.149 28.0755C129.608 28.9621 128.829 29.6656 127.91 30.1003C126.838 30.5994 125.673 30.8435 124.499 30.815H119.112V19.1849H124.499C125.673 19.1563 126.838 19.4004 127.91 19.8995C128.825 20.3328 129.602 21.0295 130.149 21.9073C130.694 22.8367 130.968 23.91 130.939 24.9978C130.965 26.0812 130.691 27.1495 130.149 28.0755Z" fill="white"/>
<path d="M146.391 27.2842H158.692V22.7177H146.391L145.761 18.6978H159.512V13.5825H139.254L140.923 24.9999L139.254 36.4173H159.659V31.3041H145.761L146.391 27.2842Z" fill="white"/>
<path d="M181.642 29.2431L171.017 13.5825H163.17V36.4173H169.055V20.3653L179.886 36.4173H187.526V13.5825H181.642V29.2431Z" fill="white"/>
<path d="M212.408 25.7C211.843 24.8279 210.935 24.1431 209.687 23.6453C208.438 23.1476 206.769 22.7974 204.68 22.5946L200.318 22.1395C199.07 22.0161 198.206 21.7928 197.727 21.4695C197.51 21.3415 197.329 21.1561 197.203 20.932C197.077 20.7078 197.01 20.453 197.01 20.1933C197.01 19.4631 197.41 18.9101 198.21 18.5343C199.01 18.1586 200.093 17.9707 201.46 17.9707C202.338 17.9539 203.215 18.0619 204.065 18.2919C204.696 18.4554 205.282 18.7676 205.779 19.2043C206.181 19.5693 206.446 20.0715 206.525 20.6208H212.678C212.613 19.1524 212.06 17.7532 211.112 16.6626C210.147 15.5283 208.844 14.6505 207.204 14.0295C205.396 13.3816 203.494 13.067 201.582 13.1C199.436 13.1 197.558 13.3793 195.948 13.938C194.338 14.4967 193.087 15.3219 192.194 16.4138C191.306 17.5113 190.862 18.8512 190.862 20.4337C190.862 22.3819 191.544 23.9296 192.907 25.0768C194.271 26.2239 196.468 26.94 199.498 27.225L203.588 27.6206C204.975 27.7624 205.911 27.9963 206.398 28.3225C206.627 28.4614 206.816 28.6619 206.945 28.9029C207.074 29.1439 207.138 29.4166 207.13 29.6922C207.13 30.4636 206.701 31.0471 205.842 31.4427C204.983 31.8383 203.813 32.0361 202.331 32.0361C201.386 32.055 200.444 31.9267 199.535 31.6554C198.833 31.4543 198.185 31.0841 197.646 30.5749C197.195 30.1405 196.896 29.5619 196.797 28.9308H190.621C190.662 30.4694 191.209 31.9469 192.171 33.1166C193.146 34.3247 194.498 35.2584 196.226 35.9178C197.955 36.5771 199.95 36.9068 202.212 36.9068C204.418 36.9068 206.35 36.5771 208.01 35.9178C209.669 35.2584 210.956 34.3367 211.873 33.1527C212.789 31.9678 213.277 30.4855 213.249 28.9648C213.254 27.6631 212.974 26.5748 212.408 25.7Z" fill="white"/>
<path d="M43.1039 13.6253L33.746 19.2446L33.5149 19.3829V30.6195L23.926 24.8619L14.337 30.6195V19.3829L14.1059 19.2446L4.74805 13.6253L14.337 7.86552L23.926 2.10791L33.5149 7.86552L43.1039 13.6253Z" fill="#EDEDED"/>
<path d="M33.5158 42.1348L23.9268 47.8945L14.3379 42.1348H23.9268H33.5158Z" fill="white"/>
<path d="M43.1046 13.625V36.3768L33.5156 42.1366V19.3826L33.7467 19.2444L43.1046 13.625Z" fill="white"/>
<path d="M14.337 19.3826V42.1366L4.74805 36.3768V13.625L14.1059 19.2444L14.337 19.3826Z" fill="white"/>
</svg>
