<svg width="218" height="50" viewBox="0 0 218 50" fill="none" xmlns="http://www.w3.org/2000/svg">
<path d="M68.1477 13.5826L58.1641 36.4174H64.6344L66.4626 32.0338H77.8307L79.6528 36.4174H86.1211L76.1395 13.5826H68.1477ZM68.5812 26.9483L72.1559 18.3725L75.7183 26.9483H68.5812Z" fill="black"/>
<path d="M105.618 27.2843C106.803 26.7337 107.817 25.8497 108.545 24.732C109.258 23.6035 109.626 22.277 109.6 20.9269C109.632 19.5613 109.264 18.2178 108.545 17.075C107.811 15.9632 106.799 15.0807 105.618 14.5227C104.368 13.9031 102.905 13.5932 101.228 13.5932H88.1992V36.4174H94.2606V28.1968H97.4344L103.334 36.4174H110.361L104.052 27.8628C104.591 27.7228 105.115 27.5291 105.618 27.2843ZM94.2606 18.2725H100.379C101.354 18.2725 102.115 18.5008 102.661 18.9574C103.208 19.4139 103.481 20.0683 103.479 20.9205C103.497 21.289 103.433 21.6567 103.291 21.9948C103.149 22.3329 102.933 22.6321 102.661 22.8688C102.116 23.3367 101.355 23.57 100.379 23.5686H94.2606V18.2725Z" fill="black"/>
<path d="M130.867 14.9991C128.904 14.0548 126.625 13.5826 124.031 13.5826H113.088V36.4174H124.037C126.627 36.4174 128.906 35.9459 130.873 35.003C132.728 34.1513 134.312 32.7681 135.44 31.015C136.521 29.2992 137.062 27.2943 137.063 25C137.065 22.7057 136.523 20.7015 135.44 18.9872C134.311 17.2326 132.725 15.8491 130.867 14.9991ZM130.149 28.0756C129.608 28.9622 128.829 29.6657 127.91 30.1004C126.838 30.5995 125.673 30.8436 124.499 30.815H119.112V19.185H124.499C125.673 19.1564 126.838 19.4005 127.91 19.8996C128.825 20.3328 129.602 21.0296 130.149 21.9074C130.694 22.8368 130.968 23.9101 130.939 24.9979C130.965 26.0813 130.691 27.1496 130.149 28.0756Z" fill="black"/>
<path d="M146.391 27.2843H158.692V22.7178H146.391L145.761 18.6979H159.512V13.5826H139.254L140.923 25L139.254 36.4174H159.659V31.3042H145.761L146.391 27.2843Z" fill="black"/>
<path d="M181.642 29.2432L171.017 13.5826H163.17V36.4174H169.055V20.3654L179.886 36.4174H187.526V13.5826H181.642V29.2432Z" fill="black"/>
<path d="M212.408 25.6998C211.843 24.8277 210.935 24.1428 209.687 23.6451C208.438 23.1474 206.769 22.7972 204.68 22.5944L200.318 22.1393C199.07 22.0159 198.206 21.7926 197.727 21.4693C197.51 21.3413 197.329 21.1559 197.203 20.9317C197.077 20.7076 197.01 20.4528 197.01 20.1931C197.01 19.4629 197.41 18.9099 198.21 18.5341C199.01 18.1583 200.093 17.9705 201.46 17.9705C202.338 17.9537 203.215 18.0617 204.065 18.2916C204.696 18.4551 205.282 18.7673 205.779 19.2041C206.181 19.5691 206.446 20.0713 206.525 20.6206H212.678C212.613 19.1522 212.06 17.753 211.112 16.6624C210.147 15.528 208.844 14.6503 207.204 14.0293C205.396 13.3814 203.494 13.0668 201.582 13.0998C199.436 13.0998 197.558 13.3791 195.948 13.9378C194.338 14.4965 193.087 15.3217 192.194 16.4136C191.306 17.5111 190.862 18.851 190.862 20.4335C190.862 22.3817 191.544 23.9294 192.907 25.0766C194.271 26.2237 196.468 26.9398 199.498 27.2248L203.588 27.6204C204.975 27.7622 205.911 27.9961 206.398 28.3223C206.627 28.4612 206.816 28.6617 206.945 28.9027C207.074 29.1437 207.138 29.4164 207.13 29.692C207.13 30.4634 206.701 31.0469 205.842 31.4425C204.983 31.8381 203.813 32.0359 202.331 32.0359C201.386 32.0548 200.444 31.9265 199.535 31.6552C198.833 31.454 198.185 31.0839 197.646 30.5747C197.195 30.1403 196.896 29.5617 196.797 28.9306H190.621C190.662 30.4692 191.209 31.9467 192.171 33.1164C193.146 34.3245 194.498 35.2582 196.226 35.9176C197.955 36.5769 199.95 36.9066 202.212 36.9066C204.418 36.9066 206.35 36.5769 208.01 35.9176C209.669 35.2582 210.956 34.3365 211.873 33.1525C212.789 31.9676 213.277 30.4852 213.249 28.9646C213.254 27.6629 212.974 26.5746 212.408 25.6998Z" fill="black"/>
<path d="M43.1039 13.6251L33.746 19.2445L33.5149 19.3828V30.6194L23.926 24.8617L14.337 30.6194V19.3828L14.1059 19.2445L4.74805 13.6251L14.337 7.8654L23.926 2.10779L33.5149 7.8654L43.1039 13.6251Z" fill="#282828"/>
<path d="M33.5158 42.1346L23.9268 47.8943L14.3379 42.1346H23.9268H33.5158Z" fill="black"/>
<path d="M43.1046 13.6252V36.377L33.5156 42.1367V19.3828L33.7467 19.2445L43.1046 13.6252Z" fill="black"/>
<path d="M14.337 19.3828V42.1367L4.74805 36.377V13.6252L14.1059 19.2445L14.337 19.3828Z" fill="black"/>
</svg>
