<svg width="48" height="49" viewBox="0 0 48 49" fill="none" xmlns="http://www.w3.org/2000/svg">
<mask id="mask0" mask-type="alpha" maskUnits="userSpaceOnUse" x="0" y="0" width="48" height="49">
<path fill-rule="evenodd" clip-rule="evenodd" d="M24 48.4961C37.2548 48.4961 48 37.7509 48 24.4961C48 11.2413 37.2548 0.496094 24 0.496094C10.7452 0.496094 0 11.2413 0 24.4961C0 37.7509 10.7452 48.4961 24 48.4961Z" fill="white"/>
</mask>
<g mask="url(#mask0)">
<path fill-rule="evenodd" clip-rule="evenodd" d="M9.12305 38.144H16.7767V19.0098H9.12305V38.144Z" fill="#0089B1"/>
<path fill-rule="evenodd" clip-rule="evenodd" d="M9.12305 38.1448H16.7767V31.1289H9.12305V38.1448Z" fill="#007EA8"/>
<path fill-rule="evenodd" clip-rule="evenodd" d="M25.5093 13.1539L21.6611 17.0966H30.8088V11.1825C30.8088 8.46091 28.5334 6.25391 25.7276 6.25391L25.5093 13.1539Z" fill="#EFA785"/>
<path fill-rule="evenodd" clip-rule="evenodd" d="M35.4588 17.0957H21.6928L16.7764 21.8793V36.23H35.9505C37.3084 36.23 38.4087 35.1594 38.4087 33.8382C38.4087 32.5169 37.3084 31.4464 35.9505 31.4464H36.9337C38.2916 31.4464 39.3919 30.3758 39.3919 29.0546C39.3919 27.7334 38.2916 26.6628 36.9337 26.6628C38.2916 26.6628 39.3919 25.5923 39.3919 24.271C39.3919 22.9498 38.2916 21.8793 36.9337 21.8793H37.917C39.275 21.8793 40.3753 20.8087 40.3753 19.4875C40.3753 18.1663 39.275 17.0957 37.917 17.0957H35.4588" fill="#F2B496"/>
<path fill-rule="evenodd" clip-rule="evenodd" d="M11.6738 34.9544H13.5873V33.041H11.6738V34.9544Z" fill="#D3D1CB"/>
<path fill-rule="evenodd" clip-rule="evenodd" d="M38.8654 17.416C37.7893 19.2296 36.6172 20.9863 35.3525 22.6787H37.8395C39.3796 22.6722 40.6219 21.4439 40.6152 19.9371C40.6097 18.8268 39.9183 17.8299 38.8654 17.416" fill="#EFA785"/>
<path fill-rule="evenodd" clip-rule="evenodd" d="M20.8428 35.9126H35.8699C37.2389 35.9126 38.348 34.8659 38.348 33.574C38.348 32.2821 37.2389 31.2354 35.8699 31.2354H36.8611C38.23 31.2354 39.3392 30.1886 39.3392 28.8967C39.3392 27.6049 38.23 26.5581 36.8611 26.5581C38.23 26.5581 39.3392 25.5114 39.3392 24.2195C39.3392 22.9276 38.23 21.8809 36.8611 21.8809H35.6419C31.439 27.197 26.4561 31.9221 20.8428 35.9126" fill="#EFA785"/>
<path d="M47 24.4961C47 37.1986 36.7025 47.4961 24 47.4961C11.2975 47.4961 1 37.1986 1 24.4961C1 11.7935 11.2975 1.49609 24 1.49609C36.7025 1.49609 47 11.7935 47 24.4961Z" stroke="#66BB6A" stroke-width="2"/>
</g>
</svg>
