<svg width="49" height="49" viewBox="0 0 49 49" fill="none" xmlns="http://www.w3.org/2000/svg">
<mask id="mask0" mask-type="alpha" maskUnits="userSpaceOnUse" x="0" y="0" width="49" height="49">
<path fill-rule="evenodd" clip-rule="evenodd" d="M24.9004 48.4961C38.1552 48.4961 48.9004 37.7509 48.9004 24.4961C48.9004 11.2413 38.1552 0.496094 24.9004 0.496094C11.6456 0.496094 0.900391 11.2413 0.900391 24.4961C0.900391 37.7509 11.6456 48.4961 24.9004 48.4961Z" fill="white"/>
</mask>
<g mask="url(#mask0)">
<path fill-rule="evenodd" clip-rule="evenodd" d="M29.6238 37.8469H19.5615C15.7648 36.3384 13.2743 32.6902 13.2725 28.6327V21.627H35.9128V28.6327C35.9109 32.6902 33.4204 36.3384 29.6238 37.8469" fill="#4A90E2"/>
<path fill-rule="evenodd" clip-rule="evenodd" d="M37.221 23.6543V26.0469H38.8412C39.3229 26.0469 39.7137 26.4219 39.7137 26.8843V28.3258C39.7162 28.7361 39.4065 29.086 38.9846 29.1512L36.8837 30.1078C36.7379 31.1695 36.2803 32.3328 35.7705 33.2856L40.5675 31.4302C41.5608 31.0826 42.2177 30.1716 42.2064 29.1572V26.0469C42.2064 24.7256 41.0903 23.6543 39.7137 23.6543H37.221Z" fill="#4A90E2"/>
<path fill-rule="evenodd" clip-rule="evenodd" d="M35.9131 26.0197H37.2647V23.6543H35.9131V26.0197Z" fill="#4080CA"/>
<path fill-rule="evenodd" clip-rule="evenodd" d="M35.5042 30.5856C35.2746 31.7145 34.8415 32.7984 34.2227 33.7913L35.8647 33.2487C36.4107 32.2552 36.7698 31.1813 36.926 30.0742L35.5042 30.5856" fill="#4080CA"/>
<path fill-rule="evenodd" clip-rule="evenodd" d="M31.2289 21.6484C30.6022 30.2621 25.6579 35.2367 20.5068 38.1037H29.4179C33.201 36.5734 35.6826 32.8722 35.6844 28.7559V21.6484H31.2289" fill="#4080CA"/>
<path fill-rule="evenodd" clip-rule="evenodd" d="M11.2451 38.1035H37.5646C37.5646 40.2009 35.8814 41.9009 33.8047 41.9009H15.0051C12.9283 41.9009 11.2451 40.2009 11.2451 38.1035" fill="#CECCC7"/>
<path fill-rule="evenodd" clip-rule="evenodd" d="M14.9619 25.006H16.3136V23.6543H14.9619V25.006Z" fill="#CECCC7"/>
<path fill-rule="evenodd" clip-rule="evenodd" d="M14.9619 29.7366H16.3136V26.0195H14.9619V29.7366Z" fill="#CECCC7"/>
<path fill-rule="evenodd" clip-rule="evenodd" d="M28.2845 5.85842V7.89894C28.2845 9.29857 27.1643 10.4333 25.7825 10.4333H23.2805C20.3075 10.4327 17.7454 12.5514 17.1506 15.502H17.0255C14.9526 15.502 13.2725 17.2038 13.2725 19.3036V19.9372H35.7906C35.7893 18.5807 35.0743 17.3274 33.9141 16.6489V16.1356C33.9141 13.6861 35.8744 11.7005 38.2926 11.7005C40.7108 11.7005 42.6711 9.71481 42.6711 7.26534V4.73097L31.8486 -1.35938L28.2845 5.85842Z" fill="#CECCC7"/>
<path fill-rule="evenodd" clip-rule="evenodd" d="M33.885 38.1855C33.885 40.2386 32.221 41.9026 30.168 41.9026H33.885C35.9381 41.9026 37.6021 40.2386 37.6021 38.1855H33.885" fill="#C2C2BD"/>
<path d="M47.9004 24.4961C47.9004 37.1986 37.6029 47.4961 24.9004 47.4961C12.1978 47.4961 1.90039 37.1986 1.90039 24.4961C1.90039 11.7935 12.1978 1.49609 24.9004 1.49609C37.6029 1.49609 47.9004 11.7935 47.9004 24.4961Z" stroke="#66BB6A" stroke-width="2"/>
</g>
</svg>
