<svg width="49" height="49" viewBox="0 0 49 49" fill="none" xmlns="http://www.w3.org/2000/svg">
<mask id="mask0" mask-type="alpha" maskUnits="userSpaceOnUse" x="0" y="0" width="49" height="49">
<path fill-rule="evenodd" clip-rule="evenodd" d="M24.9004 48.043C38.1552 48.043 48.9004 37.2978 48.9004 24.043C48.9004 10.7881 38.1552 0.0429688 24.9004 0.0429688C11.6456 0.0429688 0.900391 10.7881 0.900391 24.043C0.900391 37.2978 11.6456 48.043 24.9004 48.043Z" fill="white"/>
</mask>
<g mask="url(#mask0)">
<path fill-rule="evenodd" clip-rule="evenodd" d="M36.6308 29.2018C36.6314 28.9376 36.5585 28.6788 36.4199 28.4537L35.0763 26.288C34.9089 25.9549 34.8221 25.587 34.8233 25.2142V18.5419C34.8233 14.2103 31.3168 10.6992 26.991 10.6992H23.3761C19.0502 10.6992 15.5438 14.2103 15.5438 18.5419V25.2142C15.545 25.587 15.4582 25.9549 15.2907 26.288L13.9471 28.4537C13.8086 28.6788 13.7357 28.9376 13.7363 29.2018C13.7393 29.9771 14.3659 30.6044 15.1401 30.6074H35.227C36.0012 30.6044 36.6278 29.9771 36.6308 29.2018" fill="#5FA946"/>
<path fill-rule="evenodd" clip-rule="evenodd" d="M26.7073 10.9769L29.6625 6.71875H20.2061L23.1612 10.9769V12.1935H26.7073V10.9769" fill="#5FA946"/>
<path fill-rule="evenodd" clip-rule="evenodd" d="M36.4101 28.45L35.0774 26.2804C34.9112 25.9467 34.8252 25.5781 34.8264 25.2046V18.5204C34.8305 16.7702 34.2562 15.0683 33.1948 13.6855C31.5991 22.5757 25.9813 27.7006 20.7041 30.6075H35.2268C35.9989 30.6105 36.6276 29.9802 36.6307 29.1988C36.6318 28.9341 36.5595 28.6748 36.4221 28.45H36.4101" fill="#468C43"/>
<path fill-rule="evenodd" clip-rule="evenodd" d="M24.5876 20.3904L23.9202 20.1395C23.6055 20.0171 23.3975 19.7137 23.3958 19.3751C23.3958 18.9266 23.7587 18.5628 24.2062 18.5628H24.5876V20.3904ZM26.4468 22.3613C26.7615 22.4837 26.9694 22.7872 26.9712 23.1258C26.9712 23.5743 26.6083 23.938 26.1608 23.938H25.7794V22.1104L26.4468 22.3613ZM28.1631 19.7573V19.3751C28.1601 18.2684 27.2651 17.3713 26.1608 17.3683H25.7794V16.1738H24.5876V17.3683H24.2061C23.1001 17.3647 22.2009 18.2601 22.1973 19.3685C22.1943 20.2101 22.7157 20.9637 23.5029 21.2564L24.5876 21.6625V23.938H24.2061C23.7586 23.938 23.3957 23.5743 23.3957 23.1258V22.7435H22.2038V23.1258C22.2068 24.2325 23.1019 25.1295 24.2061 25.1325H26.1608C27.2669 25.1361 28.1661 24.2409 28.1697 23.1324C28.1727 22.2909 27.6512 21.5371 26.864 21.2444L25.7794 20.8383V18.5628H26.1608C26.6084 18.5628 26.9713 18.9266 26.9713 19.3751V19.7573H28.1631Z" fill="#FFFFFE"/>
<mask id="mask1" mask-type="alpha" maskUnits="userSpaceOnUse" x="2" y="1" width="46" height="46">
<path fill-rule="evenodd" clip-rule="evenodd" d="M2.76562 1.9082H47.0347V46.1773H2.76562V1.9082Z" fill="white"/>
</mask>
<g mask="url(#mask1)">
<path fill-rule="evenodd" clip-rule="evenodd" d="M37.1327 12.5788V12.5788C36.929 11.3442 35.9652 10.3767 34.7354 10.1722C35.9652 9.96764 36.929 9.00022 37.1327 7.76562C37.3366 9.00022 38.3003 9.96764 39.5302 10.1722C38.3003 10.3767 37.3366 11.3442 37.1327 12.5788" fill="#EE9F41"/>
<path fill-rule="evenodd" clip-rule="evenodd" d="M10.1611 24.612V24.612C9.95733 23.3774 8.99358 22.41 7.76367 22.2054C8.99358 22.0008 9.95733 21.0334 10.1611 19.7988C10.3649 21.0334 11.3287 22.0008 12.5586 22.2054C11.3287 22.41 10.3649 23.3774 10.1611 24.612" fill="#EE9F41"/>
<path fill-rule="evenodd" clip-rule="evenodd" d="M42.2693 27.5553C41.7772 26.7238 40.72 26.4297 39.8719 26.8875L31.3668 30.5335C31.217 30.5973 31.0558 30.6303 30.8934 30.6297H20.3506C19.6883 30.6297 19.1519 30.0912 19.1519 29.4264C19.1519 28.7616 19.6883 28.2231 20.3506 28.2231H25.1455C27.1318 28.2231 28.7417 26.6071 28.7417 24.6133H18.7682C17.1152 24.6144 15.5521 25.3695 14.5188 26.6648L10.7607 31.2314L14.9923 39.0167L31.277 35.0879C31.9806 34.9249 32.6615 34.6746 33.3028 34.3419L41.6939 30.0281C42.5288 29.5016 42.7853 28.3988 42.2693 27.5553" fill="#F2B496"/>
<path fill-rule="evenodd" clip-rule="evenodd" d="M13.6436 36.5364L14.9921 39.0152L31.2768 35.0865C31.9805 34.9234 32.6613 34.6732 33.3027 34.3404L37.8398 32C30.2998 34.3163 20.2905 35.7603 13.6436 36.5364" fill="#EFA785"/>
<path fill-rule="evenodd" clip-rule="evenodd" d="M4.07912 33.8365L7.51848 41.4583H15.5096L17.3537 39.6816L9.97733 29.0215L4.07912 33.8365Z" fill="#0089B1"/>
<path fill-rule="evenodd" clip-rule="evenodd" d="M7.76367 41.4583H15.5554L17.3535 39.6534L16.0349 37.668C13.3689 38.7726 10.5975 39.6011 7.76367 40.1408V41.4583" fill="#007EA8"/>
</g>
<path fill-rule="evenodd" clip-rule="evenodd" d="M12.9894 37.0781C13.6765 37.0781 14.2336 37.6352 14.2336 38.3224C14.2336 39.0095 13.6765 39.5667 12.9894 39.5667C12.3022 39.5667 11.7451 39.0095 11.7451 38.3224C11.7451 37.6352 12.3022 37.0781 12.9894 37.0781" fill="#CBCAC5"/>
<path d="M47.9004 24.043C47.9004 36.7455 37.6029 47.043 24.9004 47.043C12.1978 47.043 1.90039 36.7455 1.90039 24.043C1.90039 11.3404 12.1978 1.04297 24.9004 1.04297C37.6029 1.04297 47.9004 11.3404 47.9004 24.043Z" stroke="#66BB6A" stroke-width="2"/>
</g>
</svg>
