<svg width="30.000000" height="30.000000" viewBox="0 0 30 30" fill="none" xmlns="http://www.w3.org/2000/svg" xmlns:xlink="http://www.w3.org/1999/xlink">
	<desc>
			Created with Pixso.
	</desc>
	<defs>
		<clipPath id="clip338_133">
			<rect id="close" width="30.000000" height="30.000000" fill="white" fill-opacity="0"/>
		</clipPath>
	</defs>
	<rect id="close" width="30.000000" height="30.000000" fill="#F2F2F2" fill-opacity="1.000000"/>
	<g clip-path="url(#clip338_133)">
		<path id="close" d="M13.53 14.8L6.07 7.34C5.98 7.26 5.92 7.16 5.87 7.05C5.82 6.94 5.8 6.82 5.8 6.7C5.8 6.58 5.82 6.47 5.87 6.36C5.92 6.25 5.98 6.15 6.07 6.07C6.15 5.98 6.25 5.92 6.36 5.87C6.47 5.82 6.58 5.8 6.7 5.8C6.82 5.8 6.94 5.82 7.05 5.87C7.16 5.92 7.26 5.98 7.34 6.07L14.8 13.53L22.26 6.07C22.43 5.9 22.66 5.8 22.9 5.8C23.14 5.8 23.37 5.9 23.54 6.07C23.71 6.23 23.8 6.46 23.8 6.7C23.8 6.94 23.71 7.17 23.54 7.34L16.07 14.8L23.54 22.26C23.71 22.43 23.8 22.66 23.8 22.9C23.8 23.14 23.71 23.37 23.54 23.54C23.37 23.71 23.14 23.8 22.9 23.8C22.66 23.8 22.43 23.71 22.26 23.54L14.8 16.07L7.34 23.54C7.17 23.71 6.94 23.8 6.7 23.8C6.46 23.8 6.23 23.71 6.07 23.54C5.9 23.37 5.8 23.14 5.8 22.9C5.8 22.66 5.9 22.43 6.07 22.26L13.53 14.8Z" fill="#232C5E" fill-opacity="1.000000" fill-rule="evenodd"/>
	</g>
</svg>
