<svg width="48" height="48" viewBox="0 0 48 48" fill="none" xmlns="http://www.w3.org/2000/svg">
<path d="M40.7737 28.0569C40.3966 27.7745 39.9575 27.5808 39.4906 27.4909C39.0238 27.4011 38.5419 27.4175 38.0827 27.539L30.6446 29.1956C30.9658 28.6614 31.135 28.0537 31.1349 27.4348C31.1349 26.5008 30.7534 25.605 30.0745 24.9445C29.3956 24.2841 28.4748 23.913 27.5146 23.913H19.9634C19.4085 23.9115 18.8588 24.017 18.3462 24.2236C17.8335 24.4301 17.368 24.7335 16.9767 25.1163L13.3867 28.6087H8.81011C8.33004 28.6087 7.86963 28.7942 7.53017 29.1244C7.19071 29.4547 7 29.9025 7 30.3696V36.2391C7 36.7061 7.19071 37.154 7.53017 37.4842C7.86963 37.8145 8.33004 38 8.81011 38H24.4978C24.5486 38.0003 24.5993 37.9944 24.6486 37.9824L34.3026 35.6346C34.3334 35.6268 34.3636 35.617 34.3931 35.6052L40.2488 33.1781L40.282 33.1635C40.7538 32.9341 41.1578 32.5916 41.4559 32.1683C41.7541 31.7451 41.9366 31.2549 41.9862 30.7441C42.0358 30.2333 41.951 29.7186 41.7397 29.2485C41.5283 28.7784 41.1975 28.3683 40.7782 28.0569H40.7737ZM8.20674 36.2391V30.3696C8.20674 30.2139 8.27031 30.0646 8.38347 29.9545C8.49662 29.8444 8.65009 29.7826 8.81011 29.7826H13.0337V36.8261H8.81011C8.65009 36.8261 8.49662 36.7642 8.38347 36.6542C8.27031 36.5441 8.20674 36.3948 8.20674 36.2391ZM39.7525 32.1055L33.9586 34.5076L24.4239 36.8261H14.2405V29.4392L17.8305 25.9468C18.1099 25.6734 18.4423 25.4566 18.8084 25.309C19.1745 25.1614 19.5671 25.0859 19.9634 25.0869H27.5146C28.1547 25.0869 28.7686 25.3343 29.2212 25.7746C29.6738 26.2149 29.9281 26.8121 29.9281 27.4348C29.9281 28.0575 29.6738 28.6546 29.2212 29.0949C28.7686 29.5352 28.1547 29.7826 27.5146 29.7826H23.291C23.131 29.7826 22.9775 29.8444 22.8644 29.9545C22.7512 30.0646 22.6877 30.2139 22.6877 30.3696C22.6877 30.5252 22.7512 30.6745 22.8644 30.7846C22.9775 30.8947 23.131 30.9565 23.291 30.9565H28.118C28.1637 30.9567 28.2092 30.9518 28.2538 30.9418L38.3602 28.6806H38.3844C38.8372 28.5638 39.3185 28.6138 39.7358 28.8211C40.153 29.0283 40.4769 29.3782 40.6452 29.8035C40.8135 30.2289 40.8144 30.6997 40.6477 31.1256C40.481 31.5516 40.1584 31.9026 39.7419 32.1113L39.7525 32.1055ZM31.1349 20.3913C31.5801 20.3922 32.0233 20.3329 32.4517 20.2152C32.657 21.1349 33.1417 21.9734 33.8429 22.6218C34.5441 23.2703 35.4294 23.6988 36.384 23.8518C37.3386 24.0048 38.3184 23.8753 39.1964 23.4799C40.0743 23.0846 40.8099 22.4417 41.3077 21.6347C41.8055 20.8277 42.0425 19.8938 41.988 18.9542C41.9335 18.0145 41.59 17.1125 41.0021 16.365C40.4141 15.6176 39.6089 15.0593 38.6908 14.7626C37.7727 14.4658 36.7841 14.4443 35.8532 14.7008C35.6602 13.8349 35.2194 13.0397 34.5815 12.4072C33.9437 11.7748 33.1349 11.3307 32.2486 11.1265C31.3624 10.9222 30.4348 10.9661 29.573 11.2529C28.7113 11.5398 27.9506 12.058 27.3787 12.7476C26.8069 13.4373 26.4473 14.2702 26.3415 15.1502C26.2357 16.0303 26.3881 16.9214 26.7809 17.7208C27.1737 18.5202 27.791 19.1952 28.5614 19.6677C29.3319 20.1403 30.2241 20.3911 31.1349 20.3913ZM40.7888 19.2174C40.7888 19.9139 40.5765 20.5948 40.1787 21.174C39.7809 21.7531 39.2155 22.2045 38.554 22.471C37.8925 22.7376 37.1646 22.8073 36.4623 22.6715C35.76 22.5356 35.115 22.2002 34.6087 21.7076C34.1024 21.2151 33.7576 20.5876 33.6179 19.9044C33.4782 19.2213 33.5499 18.5132 33.8239 17.8697C34.0979 17.2262 34.5619 16.6761 35.1573 16.2892C35.7526 15.9022 36.4526 15.6957 37.1686 15.6957C38.1287 15.6957 39.0495 16.0667 39.7285 16.7271C40.4074 17.3876 40.7888 18.2834 40.7888 19.2174ZM31.1349 12.1739C32.0025 12.1738 32.8414 12.4769 33.4987 13.0279C34.1559 13.579 34.5879 14.3413 34.7159 15.1762C34.0227 15.573 33.4424 16.1319 33.0278 16.8023C32.6132 17.4727 32.3773 18.2333 32.3416 19.0149C31.8444 19.1864 31.3147 19.2501 30.7896 19.2016C30.2644 19.1531 29.7565 18.9936 29.3014 18.7341C28.8463 18.4747 28.4549 18.1217 28.1548 17.6997C27.8546 17.2777 27.6528 16.797 27.5636 16.2913C27.4744 15.7855 27.4999 15.2669 27.6383 14.7717C27.7767 14.2765 28.0246 13.8168 28.3648 13.4246C28.705 13.0324 29.1292 12.7172 29.6076 12.5012C30.0861 12.2852 30.6074 12.1735 31.1349 12.1739Z" fill="#3F7DE5"/>
</svg>
