<svg width="48" height="48" viewBox="0 0 48 48" fill="none" xmlns="http://www.w3.org/2000/svg">
<path d="M18.4301 41.0211C14.8355 39.8571 11.8715 37.7284 9.53813 34.6351C7.20479 31.5431 6.03813 27.9897 6.03813 23.9751C6.03813 22.9284 6.12479 21.8924 6.29812 20.8671C6.47146 19.8404 6.74746 18.8377 7.12612 17.8591L2.78813 20.3611L1.82812 18.6411L9.60812 14.1411L14.1081 21.9111L12.3761 22.9491L9.37012 17.7491C8.92612 18.7264 8.59946 19.7431 8.39013 20.7991C8.18079 21.8551 8.07613 22.9257 8.07613 24.0111C8.07613 27.6031 9.14546 30.7944 11.2841 33.5851C13.4228 36.3771 16.1515 38.2651 19.4701 39.2491L18.4301 41.0211ZM30.4241 15.9611V13.9611H36.3741C34.8661 12.0624 33.0288 10.6004 30.8621 9.57506C28.6955 8.5524 26.4081 8.04106 24.0001 8.04106C21.8841 8.04106 19.9075 8.42106 18.0701 9.18106C16.2301 9.93973 14.6015 10.9891 13.1841 12.3291L12.1461 10.5231C13.7355 9.1244 15.5335 8.02706 17.5401 7.23106C19.5455 6.4364 21.6868 6.03906 23.9641 6.03906C26.5721 6.03906 29.0375 6.56306 31.3601 7.61106C33.6828 8.65773 35.7048 10.1657 37.4261 12.1351V6.96306H39.4261V15.9631L30.4241 15.9611ZM30.7001 45.7711L22.9201 41.2311L27.4201 33.5011L29.1401 34.5011L26.0201 39.8251C29.9788 39.3091 33.2855 37.5511 35.9401 34.5511C38.5948 31.5511 39.9228 28.0344 39.9241 24.0011C39.9241 23.3011 39.8775 22.6131 39.7841 21.9371C39.6908 21.2611 39.5461 20.6031 39.3501 19.9631H41.4381C41.5995 20.6031 41.7208 21.2551 41.8021 21.9191C41.8821 22.5817 41.9221 23.2631 41.9221 23.9631C41.9221 28.3097 40.5555 32.1297 37.8221 35.4231C35.0875 38.7164 31.6081 40.7617 27.3841 41.5591L31.7001 44.0511L30.7001 45.7711Z" fill="#3F7DE5"/>
</svg>
