<svg width="32.000000" height="32.000000" viewBox="0 0 32 32" fill="none" xmlns="http://www.w3.org/2000/svg" xmlns:xlink="http://www.w3.org/1999/xlink">
	<desc>
			Created with Pixso.
	</desc>
	<defs>
		<clipPath id="clip345_157">
			<rect id="har_1" width="32.000000" height="32.000000" fill="white" fill-opacity="0"/>
		</clipPath>
	</defs>
	<rect id="har_1" width="32.000000" height="32.000000" fill="#FFFFFF" fill-opacity="0"/>
	<g clip-path="url(#clip345_157)">
		<path id="Vector" d="M30 26.5L27.5 26.5L27.5 14.44C27.49 14.23 27.45 14.03 27.37 13.84C27.29 13.65 27.16 13.48 27.01 13.33L17 3.89C16.73 3.63 16.36 3.49 15.99 3.5C15.62 3.5 15.25 3.64 14.98 3.89L4.99 13.33C4.83 13.47 4.71 13.64 4.62 13.83C4.54 14.02 4.5 14.23 4.5 14.44L4.5 26.5L2 26.5C1.86 26.5 1.74 26.55 1.64 26.64C1.55 26.74 1.5 26.86 1.5 27C1.5 27.13 1.55 27.25 1.64 27.35C1.74 27.44 1.86 27.5 2 27.5L30 27.5C30.13 27.5 30.25 27.44 30.35 27.35C30.44 27.25 30.5 27.13 30.5 27C30.5 26.86 30.44 26.74 30.35 26.64C30.25 26.55 30.13 26.5 30 26.5ZM5.5 14.44C5.5 14.37 5.51 14.3 5.54 14.23C5.57 14.17 5.61 14.11 5.67 14.06L15.66 4.63C15.75 4.54 15.87 4.5 15.99 4.5C16.11 4.5 16.23 4.54 16.32 4.63L26.33 14.07C26.38 14.12 26.43 14.18 26.45 14.24C26.48 14.31 26.5 14.38 26.5 14.45L26.5 26.5L19.5 26.5L19.5 20C19.5 19.6 19.34 19.22 19.06 18.93C18.77 18.65 18.39 18.5 18 18.5L14 18.5C13.6 18.5 13.22 18.65 12.93 18.93C12.65 19.22 12.5 19.6 12.5 20L12.5 26.5L5.5 26.5L5.5 14.44ZM18.5 26.5L13.5 26.5L13.5 20C13.5 19.86 13.55 19.74 13.64 19.64C13.74 19.55 13.86 19.5 14 19.5L18 19.5C18.13 19.5 18.25 19.55 18.35 19.64C18.44 19.74 18.5 19.86 18.5 20L18.5 26.5Z" fill="#232C5E" fill-opacity="1.000000" fill-rule="nonzero"/>
	</g>
</svg>
