<svg width="32.000000" height="32.000000" viewBox="0 0 32 32" fill="none" xmlns="http://www.w3.org/2000/svg" xmlns:xlink="http://www.w3.org/1999/xlink">
	<desc>
			Created with Pixso.
	</desc>
	<defs>
		<clipPath id="clip345_174">
			<rect id="har_4" width="32.000000" height="32.000000" fill="white" fill-opacity="0"/>
		</clipPath>
	</defs>
	<g clip-path="url(#clip345_174)">
		<path id="Vector" d="M13.6 4L4 4L4 14.39L13.6 14.39L13.6 4ZM12.6 5L12.6 13.39L5 13.39L5 5L12.6 5ZM28 4L18.4 4L18.4 14.39L28 14.39L28 4ZM27 5L27 13.39L19.4 13.39L19.4 5L27 5ZM13.6 17.6L4 17.6L4 28L13.6 28L13.6 17.6ZM12.6 18.6L12.6 27L5 27L5 18.6L12.6 18.6ZM28 18.6L28 17.6L18.4 17.6L18.4 28L28 28L28 18.6ZM27 18.6L27 27L19.4 27L19.4 18.6L27 18.6Z" fill="#232C5E" fill-opacity="1.000000" fill-rule="evenodd"/>
	</g>
</svg>
