<svg width="200" height="50" viewBox="0 0 200 50" fill="none" xmlns="http://www.w3.org/2000/svg">
<path d="M18 40.64H39.79V45.16H18V40.64ZM175.58 26.13L182.45 18.55H177.33L171.7 24.85V18.55H167.62V34.48H171.72V27.77L177.74 34.48H183L175.58 26.13ZM42.19 27.18C42.08 30.18 41.7 30.75 40.04 30.75V34.49H40.66C44.83 34.49 45.82 32.34 45.97 27.55L46.15 22.25H50V34.48H54.08V18.55H42.47L42.19 27.18ZM24.48 29.92H33.08L34.51 34.48H39.28L32.85 15.32C32.23 13.47 31.51 12 29.05 12C26.59 12 25.84 13.47 25.18 15.32L18.44 34.48H22.92L24.48 29.92ZM28.84 17H28.95L31.83 26.08H25.77L28.84 17ZM124.15 20.81H119.6V16.31H130.16V12.31H115.32V34.48H124.15C129.04 34.48 131.85 32.04 131.85 27.58C131.85 23.35 129 20.81 124.15 20.81ZM123.94 30.47H119.6V24.71H123.94C126.2 24.71 127.47 25.71 127.47 27.59C127.47 29.47 126.2 30.47 123.94 30.47ZM83.59 18.18V12.28H79.52V18.18C77.3829 18.2505 75.3611 19.1663 73.8986 20.7262C72.4362 22.2862 71.6526 24.3628 71.72 26.5C71.6472 28.6416 72.428 30.7244 73.8908 32.2903C75.3535 33.8563 77.3784 34.777 79.52 34.85V40.85H83.6V34.85C84.6608 34.8151 85.7044 34.5714 86.6708 34.1326C87.6373 33.6939 88.5077 33.0688 89.2323 32.2932C89.9568 31.5175 90.5212 30.6066 90.8932 29.6125C91.2652 28.6184 91.4374 27.5607 91.4 26.5C91.4428 25.4386 91.2737 24.3793 90.9028 23.384C90.5318 22.3886 89.9663 21.4771 89.2393 20.7026C88.5123 19.9282 87.6383 19.3062 86.6684 18.8731C85.6984 18.44 84.652 18.2044 83.59 18.18ZM79.53 31C78.4502 30.8814 77.4603 30.3431 76.7738 29.5013C76.0872 28.6595 75.759 27.5816 75.86 26.5C75.772 25.4211 76.1049 24.35 76.7891 23.5112C77.4732 22.6723 78.4555 22.1308 79.53 22V31ZM83.61 31V22C84.6845 22.1308 85.6668 22.6723 86.3509 23.5112C87.0351 24.35 87.368 25.4211 87.28 26.5C87.3757 27.5805 87.0456 28.6556 86.36 29.4963C85.6745 30.3369 84.6877 30.8765 83.61 31ZM106.69 29.59V24.22C106.69 20.3 104.2 17.85 100.02 17.85C95.84 17.85 93.4 20.45 93.2 23.16H97.33C97.47 22.58 98.09 21.55 100.01 21.55C100.369 21.5038 100.733 21.5416 101.074 21.6606C101.416 21.7796 101.725 21.9763 101.977 22.2354C102.229 22.4944 102.418 22.8086 102.528 23.153C102.638 23.4975 102.666 23.8628 102.61 24.22H98.61C94.99 24.22 92.84 26.13 92.84 29.29C92.8118 30.0441 92.9422 30.7957 93.2228 31.4962C93.5035 32.1967 93.9281 32.8304 94.4692 33.3564C95.0102 33.8824 95.6557 34.2889 96.3639 34.5497C97.072 34.8104 97.827 34.9195 98.58 34.87C99.4301 34.9147 100.278 34.7492 101.049 34.3882C101.82 34.0271 102.49 33.4817 103 32.8C103.332 33.3615 103.816 33.8173 104.397 34.1146C104.977 34.412 105.63 34.5387 106.28 34.48H107.69V30.8C107 30.8 106.69 30.47 106.69 29.59ZM102.61 28.59C102.627 28.9839 102.56 29.3769 102.413 29.743C102.267 30.1091 102.045 30.4401 101.762 30.7141C101.478 30.9881 101.14 31.1989 100.769 31.3327C100.398 31.4664 100.003 31.52 99.61 31.49C98.14 31.49 96.98 30.96 96.98 29.37C96.98 27.78 98.27 27.55 99.36 27.55H102.61V28.59ZM64.24 23.39H61.31V18.55H57.23V34.48H64.31C68.74 34.48 70.31 31.6 70.31 28.88C70.33 25.37 68.13 23.39 64.24 23.39ZM63.94 31H61.31V27H63.94C65.35 27 66.2 27.64 66.2 29C66.2 30.36 65.39 31 63.94 31ZM147.42 29.59V24.22C147.42 20.3 144.93 17.85 140.75 17.85C136.57 17.85 134.13 20.45 133.93 23.16H138.06C138.2 22.58 138.82 21.55 140.74 21.55C141.099 21.5038 141.463 21.5416 141.804 21.6606C142.146 21.7796 142.455 21.9763 142.707 22.2354C142.959 22.4944 143.148 22.8086 143.258 23.153C143.368 23.4975 143.396 23.8628 143.34 24.22H139.34C135.72 24.22 133.57 26.13 133.57 29.29C133.542 30.0441 133.672 30.7957 133.953 31.4962C134.233 32.1967 134.658 32.8304 135.199 33.3564C135.74 33.8824 136.386 34.2889 137.094 34.5497C137.802 34.8104 138.557 34.9195 139.31 34.87C140.168 34.9231 141.026 34.7617 141.807 34.4004C142.587 34.039 143.265 33.489 143.78 32.8C144.107 33.3517 144.582 33.8012 145.151 34.098C145.72 34.3948 146.36 34.5271 147 34.48H148.41V30.8C147.7 30.8 147.42 30.47 147.42 29.59ZM143.36 28.59C143.375 28.9835 143.307 29.3757 143.16 29.7411C143.013 30.1065 142.791 30.4368 142.508 30.7105C142.225 30.9841 141.887 31.195 141.517 31.3294C141.147 31.4637 140.753 31.5184 140.36 31.49C138.89 31.49 137.73 30.96 137.73 29.37C137.73 27.78 139.02 27.55 140.11 27.55H143.36V28.59ZM160.45 24.48H154.82V18.55H150.74V34.49H154.82V28.21H160.45V34.48H164.53V18.55H160.45V24.48Z" fill="#EF3124"/>
</svg>
