<svg width="200" height="50" viewBox="0 0 200 50" fill="none" xmlns="http://www.w3.org/2000/svg">
<path d="M90.5 19.5004L94.3 16.7004H81.7V33.3004H94.3V30.5004H85.3V26.3004H92.9V23.5004H85.3V19.5004H90.5ZM74.8 19.5004L78.6 16.7004H64.2V33.3004H71.7C75.9 33.3004 78.3 31.4004 78.3 28.1004C78.3 24.9004 76.1 23.2004 72.1 23.2004H67.7V19.5004H74.8ZM71.6 25.9004C73.9 25.9004 74.9 26.7004 74.9 28.2004C74.9 29.7004 73.8 30.5004 71.6 30.5004H67.8V25.9004H71.6ZM104.4 16.7004H97.6V33.3004H101.2V28.6004H104.5C108.9 28.6004 111.6 26.3004 111.6 22.6004C111.6 18.9004 108.8 16.7004 104.4 16.7004ZM104.4 25.8004H101.2V19.4004H104.4C106.7 19.4004 108 20.5004 108 22.6004C107.9 24.7004 106.7 25.8004 104.4 25.8004ZM58.1 29.7004C57.1 30.2004 56.1 30.5004 55 30.5004C51.8 30.5004 49.4 28.2004 49.4 25.0004C49.4 21.8004 51.7 19.5004 55 19.5004C56.2 19.5004 57.3 19.9004 58.3 20.5004L60.9 18.6004L60.7 18.4004C59.2 17.1004 57.2 16.4004 54.9 16.4004C52.4 16.4004 50.2 17.2004 48.5 18.8004C46.9 20.4004 45.9 22.6004 46 24.9004C46 27.2004 46.9 29.4004 48.5 31.1004C50.2 32.7004 52.5 33.6004 54.8 33.5004C57.4 33.5004 59.6 32.6004 61.2 31.0004L58.9 29.3004L58.1 29.7004ZM166 23.5004H158.3V16.7004H154.7V33.3004H158.3V26.5004H166V33.3004H169.6V16.7004H166V23.5004ZM141.7 16.7004L134.5 33.3004H138.1L139.5 30.0004H147.1L148.5 33.3004H152.3L145.3 16.7004H141.7ZM140.7 27.2004L143.5 20.5004L146.1 27.2004H140.7ZM182.6 24.7004L189.1 16.7004H185L179.6 23.8004H177.6V16.7004H174V33.3004H177.6V26.6004H179.9L185.4 33.3004H190L182.6 24.7004ZM127 23.2004H122.6V19.5004H132V16.7004H119V33.3004H126.5C130.7 33.3004 133.1 31.4004 133.1 28.1004C133.2 24.9004 131 23.2004 127 23.2004ZM126.4 30.6004H122.6V26.0004H126.4C128.7 26.0004 129.7 26.8004 129.7 28.3004C129.8 29.8004 128.6 30.6004 126.4 30.6004Z" fill="#21A038"/>
<path d="M34.4808 16.3809C35.13 17.2315 35.6796 18.1556 36.1184 19.1347L23.6695 28.435L18.4668 25.1297V21.1533L23.6695 24.4586L34.4808 16.3809Z" fill="#21A038"/>
<path d="M13.1573 24.8486C13.1573 24.6702 13.1616 24.493 13.1702 24.3167L10.0172 24.1602C10.0064 24.3886 10 24.6191 10 24.8519C9.99866 26.6702 10.3516 28.4709 11.0385 30.1506C11.7254 31.8304 12.7328 33.3562 14.003 34.6405L16.2395 32.375C15.2618 31.3881 14.4862 30.2151 13.9572 28.9235C13.4283 27.6319 13.1564 26.2471 13.1573 24.8486Z" fill="url(#paint0_linear_1091_975)"/>
<path d="M23.6669 14.1996C23.8429 14.1996 24.0178 14.2061 24.1917 14.2148L24.3494 11.0183C24.1234 11.0074 23.8958 11.002 23.6669 11.002C21.8719 10.9997 20.0942 11.3569 18.4357 12.0529C16.7773 12.7489 15.2709 13.77 14.0029 15.0577L16.2394 17.3243C17.2132 16.3331 18.3707 15.5468 19.6454 15.0106C20.9201 14.4743 22.2867 14.1987 23.6669 14.1996Z" fill="url(#paint1_linear_1091_975)"/>
<path d="M23.667 35.5006C23.491 35.5006 23.316 35.5006 23.1412 35.4864L22.9834 38.6819C23.2102 38.6935 23.4381 38.6993 23.667 38.6993C25.4613 38.7012 27.2382 38.3438 28.8957 37.6476C30.5532 36.9514 32.0587 35.9301 33.3257 34.6425L31.0934 32.377C30.1195 33.3676 28.9621 34.1535 27.6877 34.6895C26.4132 35.2256 25.0468 35.5012 23.667 35.5006Z" fill="url(#paint2_linear_1091_975)"/>
<path d="M29.5914 16.0575L32.2486 14.0725C29.8199 12.0794 26.7882 10.9945 23.6631 11V14.1987C25.7793 14.1961 27.8464 14.8442 29.5914 16.0575Z" fill="url(#paint3_linear_1091_975)"/>
<path d="M37.3332 24.8491C37.3349 24.017 37.263 23.1863 37.1185 22.3672L34.1769 24.5642C34.1769 24.6589 34.1769 24.7534 34.1769 24.8491C34.1777 26.3373 33.8699 27.8091 33.2735 29.1689C32.6771 30.5288 31.8053 31.7465 30.7148 32.7431L32.8365 35.1196C34.2543 33.8225 35.3872 32.2379 36.1618 30.4687C36.9365 28.6994 37.3355 26.7848 37.3332 24.8491Z" fill="#21A038"/>
<path d="M23.6672 35.5009C22.1987 35.5014 20.7465 35.1893 19.4044 34.5849C18.0625 33.9805 16.8607 33.0972 15.877 31.9922L13.5332 34.1413C14.8129 35.5784 16.3764 36.7267 18.1222 37.512C19.868 38.2972 21.7572 38.7018 23.6672 38.6995V35.5009Z" fill="url(#paint4_linear_1091_975)"/>
<path d="M16.6194 16.9565L14.4988 14.5801C13.0806 15.8769 11.9473 17.4614 11.1723 19.2307C10.3973 21 9.99789 22.9146 10 24.8505H13.1573C13.1566 23.3624 13.4645 21.8906 14.0609 20.5308C14.6573 19.1709 15.529 17.9532 16.6194 16.9565Z" fill="url(#paint5_linear_1091_975)"/>
<defs>
<linearGradient id="paint0_linear_1091_975" x1="14.6415" y1="34.2413" x2="11.1091" y2="24.1654" gradientUnits="userSpaceOnUse">
<stop offset="0.14" stop-color="#F1E813"/>
<stop offset="0.3" stop-color="#E6E418"/>
<stop offset="0.58" stop-color="#C9DA26"/>
<stop offset="0.89" stop-color="#A2CC39"/>
</linearGradient>
<linearGradient id="paint1_linear_1091_975" x1="14.9044" y1="15.6233" x2="23.819" y2="12.2711" gradientUnits="userSpaceOnUse">
<stop offset="0.06" stop-color="#0FA7DF"/>
<stop offset="0.54" stop-color="#0098F8"/>
<stop offset="0.92" stop-color="#0290EA"/>
</linearGradient>
<linearGradient id="paint2_linear_1091_975" x1="22.7752" y1="36.7687" x2="32.8352" y2="34.5263" gradientUnits="userSpaceOnUse">
<stop offset="0.12" stop-color="#A2CC39"/>
<stop offset="0.28" stop-color="#86C239"/>
<stop offset="0.87" stop-color="#219F38"/>
</linearGradient>
<linearGradient id="paint3_linear_1091_975" x1="23.0064" y1="12.0713" x2="31.6158" y2="14.6929" gradientUnits="userSpaceOnUse">
<stop offset="0.06" stop-color="#0290EA"/>
<stop offset="0.79" stop-color="#0C89CA"/>
</linearGradient>
<linearGradient id="paint4_linear_1091_975" x1="14.3252" y1="33.7519" x2="23.7051" y2="37.211" gradientUnits="userSpaceOnUse">
<stop offset="0.13" stop-color="#F1E813"/>
<stop offset="0.3" stop-color="#EAE616"/>
<stop offset="0.53" stop-color="#D8DF1F"/>
<stop offset="0.8" stop-color="#BAD52D"/>
<stop offset="0.98" stop-color="#A2CC39"/>
</linearGradient>
<linearGradient id="paint5_linear_1091_975" x1="11.1762" y1="25.2376" x2="15.0174" y2="15.378" gradientUnits="userSpaceOnUse">
<stop offset="0.07" stop-color="#A2CC39"/>
<stop offset="0.26" stop-color="#81C45E"/>
<stop offset="0.92" stop-color="#0FA7DF"/>
</linearGradient>
</defs>
</svg>
