<svg width="32.000000" height="32.000000" viewBox="0 0 32 32" fill="none" xmlns="http://www.w3.org/2000/svg" xmlns:xlink="http://www.w3.org/1999/xlink">
	<desc>
			Created with Pixso.
	</desc>
	<defs>
		<clipPath id="clip345_198">
			<rect id="yt" width="32.000000" height="32.000000" fill="white" fill-opacity="0"/>
		</clipPath>
	</defs>
	<rect id="yt" width="32.000000" height="32.000000" fill="#FFFFFF" fill-opacity="0"/>
	<g clip-path="url(#clip345_198)">
		<path id="Vector" d="M13.33 20L20.25 16L13.33 12L13.33 20ZM28.74 9.56C28.92 10.18 29.04 11.02 29.12 12.09C29.21 13.16 29.25 14.08 29.25 14.88L29.33 16C29.33 18.92 29.12 21.06 28.74 22.44C28.41 23.64 27.64 24.41 26.44 24.74C25.81 24.92 24.66 25.04 22.9 25.12C21.17 25.21 19.58 25.25 18.12 25.25L16 25.33C10.41 25.33 6.93 25.12 5.56 24.74C4.36 24.41 3.58 23.64 3.25 22.44C3.08 21.81 2.96 20.97 2.88 19.9C2.78 18.84 2.74 17.92 2.74 17.12L2.66 16C2.66 13.08 2.88 10.93 3.25 9.56C3.58 8.36 4.36 7.58 5.56 7.25C6.18 7.08 7.33 6.95 9.09 6.88C10.82 6.78 12.41 6.74 13.88 6.74L16 6.66C21.58 6.66 25.06 6.88 26.44 7.25C27.64 7.58 28.41 8.36 28.74 9.56Z" fill="#FFFFFF" fill-opacity="1.000000" fill-rule="nonzero"/>
	</g>
</svg>
