<svg width="17" height="16" viewBox="0 0 17 16" fill="none" xmlns="http://www.w3.org/2000/svg">
<path fill-rule="evenodd" clip-rule="evenodd" d="M8.39781 16H0.798828V8.39529H8.39781V16ZM2.59127 10.1906C2.34689 10.435 2.34689 10.8307 2.59127 11.0751L3.71268 12.1961L2.59127 13.3187C2.34689 13.563 2.34689 13.9587 2.59127 14.2031C2.71209 14.3255 2.8724 14.3865 3.03272 14.3865C3.19303 14.3865 3.35373 14.3255 3.47573 14.2031L4.59675 13.0805L5.71933 14.2031C5.84015 14.3255 6.00046 14.3865 6.16078 14.3865C6.32109 14.3865 6.48179 14.3255 6.60379 14.2031C6.84817 13.9587 6.84817 13.563 6.60379 13.3187L5.48121 12.1961L6.60379 11.0751C6.84817 10.8307 6.84817 10.435 6.60379 10.1906C6.35941 9.94623 5.96214 9.94623 5.71933 10.1906L4.59675 11.3116L3.47573 10.1906C3.23135 9.94623 2.83409 9.94623 2.59127 10.1906ZM8.39781 7.60471H0.798828V0H8.39781V7.60471ZM3.96048 3.16451H2.68287C2.33116 3.16451 2.04605 3.44922 2.04605 3.80133C2.04605 4.15343 2.33116 4.44013 2.68287 4.44013H3.96048V5.71575C3.96048 6.06785 4.24519 6.35456 4.59729 6.35456C4.94939 6.35456 5.2361 6.06785 5.2361 5.71575V4.44013H6.51172C6.86382 4.44013 7.15053 4.15343 7.15053 3.80133C7.15053 3.44922 6.86382 3.16451 6.51172 3.16451H5.2361V1.8869C5.2361 1.5352 4.94939 1.25009 4.59729 1.25009C4.24519 1.25009 3.96048 1.5352 3.96048 1.8869V3.16451ZM16.7988 7.60471H9.19984V0H16.7988V7.60471ZM10.9565 4.64412H15.0395C15.415 4.64412 15.7207 4.28191 15.7207 3.83708C15.7207 3.39225 15.415 3.03256 15.0395 3.03256H10.9565C10.5815 3.03256 10.2774 3.39225 10.2774 3.83708C10.2774 4.28191 10.5815 4.64412 10.9565 4.64412ZM9.19984 16H16.7988V8.39529H9.19984V16ZM10.9074 10.0477H15.0885C15.473 10.0477 15.7861 10.4235 15.7861 10.8849C15.7861 11.3464 15.473 11.7195 15.0885 11.7195H10.9074C10.5234 11.7195 10.212 11.3464 10.212 10.8849C10.212 10.4235 10.5234 10.0477 10.9074 10.0477ZM10.9074 12.5567H15.0885C15.473 12.5567 15.7861 12.9324 15.7861 13.3939C15.7861 13.8548 15.473 14.2285 15.0885 14.2285H10.9074C10.5234 14.2285 10.212 13.8548 10.212 13.3939C10.212 12.9324 10.5234 12.5567 10.9074 12.5567Z" fill="#4A90E2"/>
</svg>
