<svg width="16" height="17" viewBox="0 0 16 17" fill="none" xmlns="http://www.w3.org/2000/svg">
<path fill-rule="evenodd" clip-rule="evenodd" d="M14.5759 1.88604V3.84516C14.5759 4.7307 13.85 5.44433 12.9556 5.44433H11.9335C11.0388 5.44433 10.3034 4.7307 10.3034 3.84516V1.87891H5.69658V3.84516C5.69658 4.7307 4.96119 5.44433 4.06676 5.44433H3.04444C2.14996 5.44433 1.42426 4.7307 1.42426 3.84516V1.88604C0.642408 1.90935 0 2.54961 0 3.33661V14.8184C0 15.6204 0.656654 16.2789 1.46666 16.2789H14.5333C15.3422 16.2789 16 15.6189 16 14.8184V3.33661C16 2.54961 15.3576 1.90935 14.5759 1.88604ZM14.2 14.0501C14.2 14.3973 13.9123 14.6789 13.5571 14.6789H2.44287C2.08794 14.6789 1.8 14.3973 1.8 14.0501V8.10789C1.8 7.76067 2.08777 7.47891 2.44287 7.47891H13.5571C13.9123 7.47891 14.2 7.76067 14.2 8.10789V14.0501ZM5.4 9.0438C5.4 8.84271 5.237 8.67969 5.03565 8.67969H3.76417C3.56315 8.67969 3.4 8.84271 3.4 9.0438V10.3153C3.4 10.5167 3.56315 10.6797 3.76417 10.6797H5.03565C5.237 10.6797 5.4 10.5167 5.4 10.3153V9.0438ZM9 9.0438C9 8.84271 8.83685 8.67969 8.63595 8.67969H7.36421C7.16316 8.67969 7 8.84271 7 9.0438V10.3153C7 10.5167 7.16316 10.6797 7.36421 10.6797H8.63595C8.83685 10.6797 9 10.5167 9 10.3153V9.0438ZM12.6 9.0438C12.6 8.84271 12.4369 8.67969 12.2359 8.67969H10.9643C10.7631 8.67969 10.6 8.84271 10.6 9.0438V10.3153C10.6 10.5167 10.7631 10.6797 10.9643 10.6797H12.2359C12.4369 10.6797 12.6 10.5167 12.6 10.3153V9.0438ZM5.4 12.2433C5.4 12.0418 5.237 11.8789 5.03565 11.8789H3.76417C3.56315 11.8789 3.4 12.0418 3.4 12.2433V13.5147C3.4 13.7159 3.56315 13.8789 3.76417 13.8789H5.03565C5.237 13.8789 5.4 13.7159 5.4 13.5147V12.2433ZM9 12.2433C9 12.0418 8.83685 11.8789 8.63595 11.8789H7.36421C7.16316 11.8789 7 12.0418 7 12.2433V13.5147C7 13.7159 7.16316 13.8789 7.36421 13.8789H8.63595C8.83685 13.8789 9 13.7159 9 13.5147V12.2433ZM12.6 12.2433C12.6 12.0418 12.4369 11.8789 12.236 11.8789H10.9643C10.7631 11.8789 10.6 12.0418 10.6 12.2433V13.5147C10.6 13.7159 10.7631 13.8789 10.9643 13.8789H12.236C12.4369 13.8789 12.6 13.7159 12.6 13.5147V12.2433ZM3.09586 4.6793H4.04858C4.33776 4.6793 4.57222 4.42835 4.57222 4.11836V0.840444C4.57222 0.530455 4.33776 0.279297 4.04858 0.279297H3.09586C2.80668 0.279297 2.57222 0.530455 2.57222 0.840444V4.11836C2.57222 4.42835 2.80668 4.6793 3.09586 4.6793ZM11.9606 4.6793H12.9134C13.2024 4.6793 13.4369 4.42835 13.4369 4.11836V0.840444C13.4369 0.530455 13.2024 0.279297 12.9134 0.279297H11.9606C11.6714 0.279297 11.4369 0.530455 11.4369 0.840444V4.11836C11.4369 4.42835 11.6714 4.6793 11.9606 4.6793Z" fill="#4A90E2"/>
</svg>
