<svg width="24" height="25" viewBox="0 0 24 25" fill="none" xmlns="http://www.w3.org/2000/svg">
<path fill-rule="evenodd" clip-rule="evenodd" d="M12 24.5117C18.6274 24.5117 24 19.1391 24 12.5117C24 5.8843 18.6274 0.511719 12 0.511719C5.37258 0.511719 0 5.8843 0 12.5117C0 19.1391 5.37258 24.5117 12 24.5117Z" fill="#66BB6A"/>
<path fill-rule="evenodd" clip-rule="evenodd" d="M18.5926 7.90168C18.0938 7.38173 17.2387 7.38173 16.7398 7.90168L10.8196 14.0467L8.25999 11.3567C7.76134 10.8368 6.90601 10.8368 6.40736 11.3567L5.37399 12.4343C4.87534 12.9545 4.87534 13.8461 5.37399 14.366L9.89901 19.1216C10.3979 19.6418 11.2529 19.6418 11.7518 19.1216L12.785 18.0443C12.8404 17.9865 12.8897 17.9241 12.9328 17.8582L19.6258 10.911C20.1247 10.391 20.1247 9.49915 19.6258 8.9792L18.5926 7.90168Z" fill="white"/>
</svg>
