<svg width="33" height="23" viewBox="0 0 33 23" fill="none" xmlns="http://www.w3.org/2000/svg">
<path fill-rule="evenodd" clip-rule="evenodd" d="M31.1777 22.5898H2.72544C1.74471 22.5898 0.950195 21.8349 0.950195 20.9039V2.2751C0.950195 1.34408 1.74471 0.589844 2.72544 0.589844H31.1777C32.1557 0.589844 32.9502 1.34408 32.9502 2.2751V20.9039C32.9502 21.8349 32.1557 22.5898 31.1777 22.5898Z" fill="#CCB375"/>
<path fill-rule="evenodd" clip-rule="evenodd" d="M8.26183 16.666H4.0172C3.75659 16.666 3.54492 16.8562 3.54492 17.0891C3.54492 17.3226 3.75659 17.5122 4.0172 17.5122H8.26183C8.52185 17.5122 8.73411 17.3226 8.73411 17.0891C8.73411 16.8562 8.52185 16.666 8.26183 16.666Z" fill="#7A693C"/>
<path fill-rule="evenodd" clip-rule="evenodd" d="M15.6531 17.0891C15.6531 16.8562 15.4437 16.666 15.1808 16.666H10.9361C10.6761 16.666 10.4639 16.8562 10.4639 17.0891C10.4639 17.3226 10.6761 17.5122 10.9361 17.5122H15.1808C15.4437 17.5122 15.6531 17.3226 15.6531 17.0891Z" fill="#7A693C"/>
<path fill-rule="evenodd" clip-rule="evenodd" d="M4.70048 19.2051H4.1227C3.80388 19.2051 3.54492 19.3952 3.54492 19.6282C3.54492 19.8616 3.80388 20.0512 4.1227 20.0512H4.70048C5.01858 20.0512 5.27465 19.8616 5.27465 19.6282C5.27465 19.3952 5.01858 19.2051 4.70048 19.2051Z" fill="#7A693C"/>
<path fill-rule="evenodd" clip-rule="evenodd" d="M8.08458 19.2051H6.78931C6.43082 19.2051 6.13965 19.3952 6.13965 19.6282C6.13965 19.8616 6.43082 20.0512 6.78931 20.0512H8.08458C8.44632 20.0512 8.73424 19.8616 8.73424 19.6282C8.73424 19.3952 8.44632 19.2051 8.08458 19.2051Z" fill="#7A693C"/>
<path fill-rule="evenodd" clip-rule="evenodd" d="M9.88584 19.2051H9.31167C8.98996 19.2051 8.73389 19.3952 8.73389 19.6282C8.73389 19.8616 8.98996 20.0512 9.31167 20.0512H9.88584C10.2075 20.0512 10.4636 19.8616 10.4636 19.6282C10.4636 19.3952 10.2075 19.2051 9.88584 19.2051Z" fill="#7A693C"/>
<path fill-rule="evenodd" clip-rule="evenodd" d="M13.2735 19.2051H11.9783C11.6165 19.2051 11.3286 19.3952 11.3286 19.6282C11.3286 19.8616 11.6165 20.0512 11.9783 20.0512H13.2735C13.632 20.0512 13.9232 19.8616 13.9232 19.6282C13.9232 19.3952 13.632 19.2051 13.2735 19.2051Z" fill="#7A693C"/>
<path fill-rule="evenodd" clip-rule="evenodd" d="M15.9019 19.3236C15.746 19.4045 15.6528 19.5147 15.6528 19.6249C15.6528 19.7351 15.746 19.8474 15.9019 19.9288C16.0666 20.0033 16.2908 20.0512 16.515 20.0512C16.7435 20.0512 16.9677 20.0033 17.1334 19.9288C17.2894 19.8474 17.3826 19.7351 17.3826 19.6249C17.3826 19.5147 17.2894 19.4045 17.1334 19.3236C16.8031 19.1656 16.2106 19.1656 15.9019 19.3236Z" fill="#7A693C"/>
<path fill-rule="evenodd" clip-rule="evenodd" d="M26.8965 18.3592C26.8965 20.2288 25.348 21.7438 23.437 21.7438C21.526 21.7438 19.9775 20.2288 19.9775 18.3592C19.9775 16.4889 21.526 14.9746 23.437 14.9746C25.348 14.9746 26.8965 16.4889 26.8965 18.3592Z" fill="#E74C3D"/>
<path fill-rule="evenodd" clip-rule="evenodd" d="M30.3554 18.3592C30.3554 20.2288 28.8069 21.7438 26.8978 21.7438C24.9851 21.7438 23.4365 20.2288 23.4365 18.3592C23.4365 16.4889 24.9851 14.9746 26.8978 14.9746C28.8069 14.9746 30.3554 16.4889 30.3554 18.3592Z" fill="#F0C41B"/>
<path fill-rule="evenodd" clip-rule="evenodd" d="M10.7182 11.5895H4.15541C3.81794 11.5895 3.54492 11.273 3.54492 10.8817V5.52811C3.54492 5.13755 3.81794 4.82031 4.15541 4.82031H10.7182C11.0551 4.82031 11.3287 5.13755 11.3287 5.52811V10.8817C11.3287 11.273 11.0551 11.5895 10.7182 11.5895Z" fill="#F0C41B"/>
<path fill-rule="evenodd" clip-rule="evenodd" d="M11.8691 11.5895H4.73758C4.07947 11.5895 3.54492 11.1005 3.54492 10.4985V5.90832C3.54492 5.30871 4.07947 4.82031 4.73758 4.82031H11.8691C12.5245 4.82031 13.0584 5.30871 13.0584 5.90832V10.4985C13.0584 11.1005 12.5245 11.5895 11.8691 11.5895ZM4.73765 5.7855C4.66232 5.7855 4.60352 5.84232 4.60352 5.9082V10.4984C4.60352 10.5667 4.66232 10.6211 4.73765 10.6211H11.8692C11.9412 10.6211 12.0033 10.5667 12.0033 10.4984V5.9082C12.0033 5.84232 11.9412 5.7855 11.8692 5.7855H4.73765Z" fill="#F3D55C"/>
<path fill-rule="evenodd" clip-rule="evenodd" d="M13.0583 5.52811C13.0583 5.13755 12.7664 4.82031 12.4071 4.82031H8.51974C8.15779 4.82031 7.86914 5.13755 7.86914 5.52811V10.8817C7.86914 11.273 8.15779 11.5895 8.51974 11.5895H9.29292C9.65292 11.5895 9.94417 11.273 9.94417 10.8817V7.78617C9.94417 7.39561 10.2354 7.07907 10.5954 7.07907H12.4071C12.7664 7.07907 13.0583 6.76183 13.0583 6.37127V5.52811Z" fill="#F0C41B"/>
<path fill-rule="evenodd" clip-rule="evenodd" d="M8.2996 11.5895H7.44024C6.72217 11.5895 6.13965 11.1005 6.13965 10.4985V5.90832C6.13965 5.30871 6.72217 4.82031 7.44024 4.82031H11.7609C12.476 4.82031 13.0586 5.30871 13.0586 5.90832V6.63124C13.0586 7.23086 12.476 7.71925 11.7609 7.71925H9.74726C9.66507 7.71925 9.60091 7.77607 9.60091 7.84437V10.4985C9.60091 11.1005 9.01478 11.5895 8.2996 11.5895ZM7.44025 5.7855C7.35878 5.7855 7.29102 5.84232 7.29102 5.9082V10.4984C7.29102 10.5667 7.35878 10.6211 7.44025 10.6211H8.29962C8.38109 10.6211 8.44597 10.5667 8.44597 10.4984V7.84425C8.44597 7.24222 9.02922 6.75383 9.74728 6.75383H11.7609C11.8395 6.75383 11.9072 6.69701 11.9072 6.63112V5.9082C11.9072 5.84232 11.8395 5.7855 11.7609 5.7855H7.44025Z" fill="#F3D55C"/>
<path fill-rule="evenodd" clip-rule="evenodd" d="M12.5202 9.05123H9.27527C8.97653 9.05123 8.73389 8.86109 8.73389 8.62816C8.73389 8.3947 8.97653 8.20508 9.27527 8.20508H12.5202C12.8183 8.20508 13.0582 8.3947 13.0582 8.62816C13.0582 8.86109 12.8183 9.05123 12.5202 9.05123Z" fill="#F3D55C"/>
<path fill-rule="evenodd" clip-rule="evenodd" d="M7.33124 7.36028H4.08631C3.78757 7.36028 3.54492 6.98409 3.54492 6.51677C3.54492 6.04839 3.78757 5.66797 4.08631 5.66797H7.33124C7.62931 5.66797 7.86925 6.04839 7.86925 6.51677C7.86925 6.98409 7.62931 7.36028 7.33124 7.36028Z" fill="#F3D55C"/>
<path fill-rule="evenodd" clip-rule="evenodd" d="M7.33124 9.05123H4.08631C3.78757 9.05123 3.54492 8.86109 3.54492 8.62816C3.54492 8.3947 3.78757 8.20508 4.08631 8.20508H7.33124C7.62931 8.20508 7.86925 8.3947 7.86925 8.62816C7.86925 8.86109 7.62931 9.05123 7.33124 9.05123Z" fill="#F3D55C"/>
</svg>
