<svg width="17" height="17" viewBox="0 0 17 17" fill="none" xmlns="http://www.w3.org/2000/svg">
<path fill-rule="evenodd" clip-rule="evenodd" d="M4.55162 7.80896C4.37438 8.09486 4.03213 8.28843 3.63903 8.28843C3.06618 8.28843 2.5975 7.87545 2.5975 7.36265V5.04551C2.5975 4.73651 2.76809 4.46306 3.03001 4.29481C3.2331 2.0106 5.38913 0.207031 8.01031 0.207031C10.6314 0.207031 12.7876 2.0106 12.9907 4.29481C13.2524 4.46306 13.423 4.73651 13.423 5.04551V7.36265C13.423 7.66552 13.2593 7.9344 13.0063 8.10334V8.50119C13.0063 10.0128 11.6228 11.2426 9.92219 11.2426H8.09676C7.75162 11.2426 7.47173 10.9939 7.47173 10.6872C7.47173 10.3804 7.75162 10.1318 8.09676 10.1318H9.92219C10.9337 10.1318 11.7566 9.40025 11.7566 8.50119V8.10334C11.6386 8.02446 11.5402 7.92405 11.4687 7.80849C11.3413 8.11662 11.1975 8.39942 11.0121 8.66622C10.8962 8.83294 10.6719 9.14755 10.4224 9.2716C10.2738 9.34539 10.1044 9.39112 9.92219 9.39112H8.09676C7.57648 9.39112 7.12009 9.63346 6.86213 9.99802C5.79506 9.6416 4.98584 8.82581 4.56998 7.85282L4.56577 7.84281L4.55162 7.80896ZM11.7382 4.31691C11.5509 2.63521 9.95056 1.3172 8.01019 1.3172C6.06967 1.3172 4.4693 2.63521 4.28207 4.31691C4.40503 4.40293 4.50562 4.51253 4.57484 4.63848L4.57714 4.63304C5.15267 3.30381 6.44785 2.31908 8.01004 2.31908C9.53949 2.31908 10.8557 3.271 11.4454 4.63848C11.5146 4.51253 11.6152 4.40293 11.7382 4.31691ZM9.92218 11.983C11.2231 11.983 12.3778 11.4161 13.0908 10.5458C14.8425 11.4505 16.0205 13.1363 16.0207 15.0667V15.3933C16.0207 15.8423 15.6111 16.2064 15.1059 16.2064H0.914747C0.409551 16.2064 0 15.8423 0 15.3933V15.0667C0 12.5678 1.97379 10.4788 4.61128 9.96386C5.0178 10.341 5.47972 10.6453 5.98835 10.8699C6.22849 10.976 6.47475 11.0625 6.72561 11.1289C6.92908 11.6271 7.46615 11.983 8.09675 11.983H9.92218Z" fill="#4A90E2"/>
</svg>
