<svg width="16" height="17" viewBox="0 0 16 17" fill="none" xmlns="http://www.w3.org/2000/svg">
<path fill-rule="evenodd" clip-rule="evenodd" d="M5.56066 16.5117H3.33989L10.4918 0.511719H12.7126L5.56066 16.5117ZM7.08197 5.07725C7.08197 7.57481 5.45574 8.78457 3.54973 8.78457C1.62623 8.78457 0 7.57481 0 5.07725C0 2.57969 1.62623 1.36993 3.54973 1.36993C5.45574 1.36993 7.08197 2.57969 7.08197 5.07725ZM2.31177 5.20115C2.31177 5.91364 2.57782 6.74488 3.6154 6.74488C4.65299 6.74488 4.91904 5.91364 4.91904 5.20115C4.91904 4.48866 4.65299 3.65743 3.6154 3.65743C2.57782 3.65743 2.31177 4.48866 2.31177 5.20115ZM15.9999 11.9462C15.9999 14.4438 14.3737 15.6536 12.4502 15.6536C10.5442 15.6536 8.91797 14.4438 8.91797 11.9462C8.91797 9.44867 10.5442 8.21941 12.4502 8.21941C14.3737 8.21941 15.9999 9.44867 15.9999 11.9462ZM11.147 11.9509C11.147 12.6631 11.4129 13.4941 12.4502 13.4941C13.4875 13.4941 13.7534 12.6631 13.7534 11.9509C13.7534 11.2386 13.4875 10.3779 12.4502 10.3779C11.4129 10.3779 11.147 11.2386 11.147 11.9509Z" fill="#4A90E2"/>
</svg>
