<svg width="10" height="17" viewBox="0 0 10 17" fill="none" xmlns="http://www.w3.org/2000/svg">
<path fill-rule="evenodd" clip-rule="evenodd" d="M1.31575 0.205078H8.68366C9.29687 0.205078 9.79971 0.691935 9.79971 1.28565V15.1245C9.79971 15.7182 9.29687 16.2051 8.68366 16.2051H1.31575C0.702547 16.2051 0.199707 15.7182 0.199707 15.1245V1.28565C0.199707 0.691935 0.702547 0.205078 1.31575 0.205078ZM5.01229 15.7873C5.44651 15.7873 5.79851 15.4353 5.79851 15.0011C5.79851 14.5668 5.44651 14.2148 5.01229 14.2148C4.57808 14.2148 4.22607 14.5668 4.22607 15.0011C4.22607 15.4353 4.57808 15.7873 5.01229 15.7873ZM3.56883 1.01758H6.43755C6.53025 1.01758 6.60283 1.09918 6.60283 1.20238C6.60283 1.30238 6.53025 1.38318 6.43755 1.38318H3.56883C3.47613 1.38318 3.40283 1.30238 3.40283 1.20238C3.40283 1.09918 3.47613 1.01758 3.56883 1.01758ZM8.20127 13.8113H1.80127V2.61133H8.20127V13.8113Z" fill="#4A90E2"/>
</svg>
