<svg width="24" height="25" viewBox="0 0 24 25" fill="none" xmlns="http://www.w3.org/2000/svg">
<path fill-rule="evenodd" clip-rule="evenodd" d="M16.6082 21.5738C18.7228 21.5738 21.0174 22.2752 23.5568 24.4517C23.8112 24.6698 24.1498 24.3988 23.9281 24.1281C21.4322 21.08 19.1239 20.4997 16.8221 20.0091C14.0062 19.4088 12.5578 17.8763 11.5484 16.1935C11.3475 15.8587 11.2574 15.9178 11.2394 16.3481C11.2173 16.8744 11.2548 17.5708 11.3767 18.256C11.263 18.2611 11.1487 18.2597 11.0339 18.2597C7.00552 18.2597 3.73986 15.101 3.73986 11.2044C3.73986 7.30768 7.00552 4.14881 11.0339 4.14881C15.0623 4.14881 18.3278 7.30768 18.3278 11.2044C18.3278 11.4816 18.3139 11.7556 18.2818 12.0245C17.749 11.9316 16.7007 11.9211 15.9652 11.9826C15.6885 12.0057 15.7275 12.1304 15.9367 12.167C18.3477 12.5886 20.0044 14.0339 20.383 16.6568C20.3917 16.7171 20.4733 16.7351 20.5056 16.683C21.4978 15.0815 22.0677 13.2072 22.0677 11.2044C22.0677 5.30979 17.1278 0.53125 11.0339 0.53125C4.94009 0.53125 0 5.30979 0 11.2044C0 17.0989 4.94009 21.8779 11.0339 21.8779C12.6507 21.8779 14.2544 21.5738 16.6082 21.5738ZM17.4296 17.6992C17.9203 18.1007 18.0699 18.578 17.81 18.9146C17.6656 19.0992 17.4317 19.201 17.1511 19.201C16.8757 19.201 16.5952 19.1024 16.4003 18.9379C15.954 18.5608 15.823 17.9489 16.1144 17.6014C16.2282 17.4655 16.4131 17.3906 16.6349 17.3906C16.9044 17.3906 17.1866 17.5004 17.4296 17.6992ZM19.6942 16.6783C19.7664 17.1462 19.6136 17.3398 19.4602 17.3398C19.2928 17.3398 19.0827 17.1502 18.8347 16.7762C18.5902 16.4068 18.5006 15.9832 18.6218 15.769C18.7019 15.6273 18.8696 15.5657 19.0812 15.6431C19.4905 15.7927 19.6513 16.399 19.6942 16.6783Z" fill="#E9832C"/>
</svg>
