<svg width="56" height="26" viewBox="0 0 56 26" fill="none" xmlns="http://www.w3.org/2000/svg">
<path fill-rule="evenodd" clip-rule="evenodd" d="M55.3015 17.7438C55.2961 17.37 55.0542 17.1504 54.7406 17.1504C54.3833 17.1504 54.1302 17.3865 54.0643 17.7438H55.3015ZM54.7572 16.6228C55.56 16.6228 56 17.2106 56 17.9525C56 18.0404 55.989 18.1338 55.978 18.2218H54.0477C54.0917 18.7109 54.4657 18.9635 54.8891 18.9635C55.175 18.9635 55.4666 18.8371 55.6921 18.6558L55.967 19.1558C55.6811 19.4085 55.2411 19.557 54.8397 19.557C53.9103 19.557 53.3274 18.8867 53.3274 18.0898C53.3274 17.2272 53.9157 16.6228 54.7572 16.6228ZM48.8861 16.6888H49.5515V18.8975H50.4259V16.6888H51.0913V18.8975H51.9656V16.6888H52.6311V18.8975H53.0271V20.1506H52.4002V19.4911H48.8861V16.6888ZM46.7839 18.9635C47.2405 18.9635 47.6198 18.6118 47.6198 18.0898C47.6198 17.5734 47.2405 17.2164 46.7839 17.2164C46.3275 17.2164 45.9535 17.5734 45.9535 18.0898C45.9535 18.6118 46.3275 18.9635 46.7839 18.9635ZM46.7785 16.6228C47.6363 16.6228 48.3238 17.2328 48.3238 18.0898C48.3238 18.9525 47.6363 19.557 46.7839 19.557C45.9315 19.557 45.2442 18.9525 45.2442 18.0898C45.2442 17.2328 45.9315 16.6228 46.7785 16.6228ZM43.4235 18.9691C43.8083 18.9691 44.1274 18.6558 44.1274 18.1008C44.1274 17.568 43.8413 17.2218 43.4343 17.2218C43.0659 17.2218 42.725 17.4855 42.725 18.1064C42.725 18.5404 42.9669 18.9691 43.4235 18.9691ZM42.0485 16.6888H42.6864V16.8975C42.6864 17.0019 42.6755 17.0954 42.6755 17.0954H42.6864C42.868 16.7932 43.2088 16.6228 43.5884 16.6228C44.3473 16.6228 44.8313 17.2218 44.8313 18.0898C44.8313 18.9801 44.2868 19.557 43.5498 19.557C43.2308 19.557 42.9395 19.4143 42.7414 19.1614H42.7304C42.7304 19.1614 42.747 19.2603 42.747 19.4031V20.5898H42.0485V16.6888ZM38.7469 16.6888H41.3041V19.4911H40.6057V17.2822H39.4452V19.4911H38.7469V16.6888ZM35.7547 16.2272H36.2881V15.5898H35.7547V16.2272ZM36.0902 17.7438C36.0847 17.37 35.8427 17.1504 35.5292 17.1504C35.1718 17.1504 34.9187 17.3865 34.8529 17.7438H36.0902ZM34.7428 16.2272H35.2819V15.5898H34.7428V16.2272ZM35.5458 16.6228C36.3487 16.6228 36.7887 17.2106 36.7887 17.9525C36.7887 18.0404 36.7777 18.1338 36.7666 18.2218H34.8363C34.8803 18.7109 35.2543 18.9635 35.6778 18.9635C35.9638 18.9635 36.2551 18.8371 36.4806 18.6558L36.7556 19.1558C36.4698 19.4085 36.0298 19.557 35.6282 19.557C34.6988 19.557 34.116 18.8867 34.116 18.0898C34.116 17.2272 34.7044 16.6228 35.5458 16.6228ZM32.7072 16.6228C33.0867 16.6228 33.5157 16.7492 33.7851 17.0404L33.4717 17.5185C33.2956 17.3427 33.0207 17.2164 32.7458 17.2164C32.2288 17.2164 31.8934 17.6064 31.8934 18.0844C31.8934 18.557 32.2288 18.9635 32.7678 18.9635C33.0647 18.9635 33.3837 18.8097 33.5926 18.6064L33.8621 19.101C33.5982 19.3813 33.1582 19.557 32.7072 19.557C31.7779 19.557 31.1839 18.9033 31.1839 18.0898C31.1839 17.2932 31.7779 16.6228 32.7072 16.6228ZM29.4683 18.8811C29.8312 18.8811 30.0347 18.6448 30.0347 18.3151C30.0347 17.9911 29.8257 17.7548 29.4683 17.7548H28.7093V18.8811H29.4683ZM29.3968 17.1834C29.7048 17.1834 29.8807 16.9635 29.8807 16.6832C29.8807 16.4029 29.7102 16.1998 29.3858 16.1998H28.7093V17.1834H29.3968ZM28 15.5898H29.3912C30.1007 15.5898 30.6012 15.9525 30.6012 16.5953C30.6012 16.9581 30.4251 17.2712 30.1282 17.4305V17.4415C30.5572 17.568 30.7606 17.9635 30.7606 18.3591C30.7606 19.1394 30.1336 19.4911 29.4133 19.4911H28V15.5898Z" fill="#293035"/>
<path fill-rule="evenodd" clip-rule="evenodd" d="M16.6346 22.5092C18.7526 22.5092 21.0508 23.2398 23.5943 25.507C23.8491 25.7341 24.1882 25.4519 23.9661 25.1699C21.4663 21.9947 19.1544 21.3903 16.8488 20.8792C14.0285 20.254 12.5778 18.6576 11.5667 16.9047C11.3655 16.5559 11.2753 16.6175 11.2573 17.0657C11.2352 17.6139 11.2727 18.3394 11.3948 19.0532C11.2809 19.0585 11.1664 19.057 11.0515 19.057C7.01666 19.057 3.7458 15.7667 3.7458 11.7077C3.7458 7.64862 7.01666 4.35813 11.0515 4.35813C15.0863 4.35813 18.357 7.64862 18.357 11.7077C18.357 11.9965 18.343 12.2819 18.3109 12.562C17.7772 12.4652 16.7273 12.4542 15.9906 12.5184C15.7135 12.5424 15.7525 12.6723 15.962 12.7104C18.3769 13.1496 20.0362 14.6551 20.4154 17.3873C20.4241 17.4501 20.5058 17.4689 20.5383 17.4146C21.532 15.7463 22.1028 13.794 22.1028 11.7077C22.1028 5.56749 17.155 0.589844 11.0515 0.589844C4.94795 0.589844 0 5.56749 0 11.7077C0 17.8478 4.94795 22.826 11.0515 22.826C12.6708 22.826 14.2771 22.5092 16.6346 22.5092ZM17.4573 18.4726C17.9488 18.8908 18.0986 19.388 17.8384 19.7387C17.6937 19.9309 17.4594 20.037 17.1784 20.037C16.9026 20.037 16.6216 19.9343 16.4264 19.7629C15.9794 19.3701 15.8482 18.7327 16.1401 18.3707C16.2541 18.2292 16.4392 18.1512 16.6614 18.1512C16.9313 18.1512 17.2139 18.2655 17.4573 18.4726ZM19.7258 17.4104C19.7981 17.8977 19.645 18.0995 19.4914 18.0995C19.3237 18.0995 19.1132 17.9019 18.8649 17.5123C18.62 17.1276 18.5302 16.6863 18.6516 16.4632C18.7319 16.3156 18.8999 16.2514 19.1118 16.3321C19.5217 16.4879 19.6828 17.1195 19.7258 17.4104ZM31.9945 10.556L31.1051 9.47987C31.0119 9.36696 31.0917 9.1959 31.2376 9.1959H33.0986C33.1872 8.93051 33.2373 8.64687 33.2373 8.3524C33.2373 7.00413 32.2397 5.84177 30.8706 5.84177C29.5014 5.84177 28.5038 7.00413 28.5038 8.3524C28.5038 9.70068 29.5014 10.8467 30.8706 10.8467C31.2855 10.8467 31.6654 10.7403 31.9945 10.556ZM36.0195 12.3751C36.116 12.4825 36.0369 12.6558 35.8913 12.6558H33.8604C33.7777 12.6558 33.6994 12.6188 33.6466 12.5549L33.3023 12.1383C32.6013 12.5957 31.7665 12.8626 30.8706 12.8626C28.3985 12.8626 26.3875 10.8393 26.3875 8.3524C26.3875 5.86551 28.3985 3.84237 30.8706 3.84237C33.3426 3.84237 35.3537 5.86551 35.3537 8.3524C35.3537 9.24888 35.0913 10.0843 34.6413 10.7873L36.0195 12.3751ZM54.7794 4.04994H53.1222C53.0003 4.04994 52.9016 4.14912 52.9016 4.27172V12.4331C52.9016 12.5557 53.0003 12.655 53.1222 12.655H54.7794C54.9013 12.655 55 12.5557 55 12.4331V4.27172C55 4.14912 54.9013 4.04994 54.7794 4.04994ZM51.9905 4.04994H50.1363C50.0394 4.04994 49.9538 4.1131 49.9254 4.20565L48.4581 9.02872L46.8454 4.20032C46.8154 4.11051 46.7311 4.04994 46.6362 4.04994H45.3422C45.2473 4.04994 45.163 4.11051 45.133 4.20032L43.5203 9.02872L42.0531 4.20565C42.0248 4.1131 41.9392 4.04994 41.8422 4.04994H39.9879C39.9169 4.04994 39.8504 4.08386 39.809 4.14136C39.7676 4.1987 39.7564 4.27252 39.7787 4.33956L42.5023 12.5054C42.5323 12.5953 42.6166 12.6558 42.7114 12.6558H44.1833C44.278 12.6558 44.3623 12.5953 44.3923 12.5054L45.9893 7.73488L47.5861 12.5054C47.6161 12.5953 47.7004 12.6558 47.7952 12.6558H49.2671C49.3619 12.6558 49.4461 12.5953 49.4761 12.5054L52.1998 4.33956C52.2221 4.27252 52.2108 4.1987 52.1694 4.14136C52.128 4.08386 52.0615 4.04994 51.9905 4.04994ZM39.0768 4.27172V12.4331C39.0768 12.5557 38.9781 12.655 38.8564 12.655H37.199C37.0772 12.655 36.9786 12.5557 36.9786 12.4331V4.27172C36.9786 4.14912 37.0772 4.04994 37.199 4.04994H38.8564C38.9781 4.04994 39.0768 4.14912 39.0768 4.27172Z" fill="#E9832C"/>
</svg>
