<svg width="16" height="17" viewBox="0 0 16 17" fill="none" xmlns="http://www.w3.org/2000/svg">
<path fill-rule="evenodd" clip-rule="evenodd" d="M11.2501 0.587891C8.62669 0.587891 6.5 1.6986 6.5 3.0688V3.60698C6.5 4.97724 8.62669 6.08789 11.2501 6.08789C13.8733 6.08789 16 4.97724 16 3.60698V3.0688C16 1.6986 13.8733 0.587891 11.2501 0.587891ZM6 9.99014C5.58493 10.0538 5.14624 10.0879 4.69226 10.0879C2.10087 10.0879 0 8.97723 0 7.60696V7.06877C0 5.69879 2.10087 4.58789 4.69226 4.58789C5.14624 4.58789 5.58493 4.62217 6 4.68558V9.99014ZM6.59999 13.0879C7.04881 14.2057 8.96025 15.0455 11.2501 15.0455C13.54 15.0455 15.4512 14.2057 15.9 13.0879C15.9654 13.2505 16 13.4193 16 13.5921V14.126C16 15.4857 13.8733 16.5879 11.2501 16.5879C8.62669 16.5879 6.5 15.4857 6.5 14.126V13.5921C6.5 13.4193 6.5346 13.2507 6.59999 13.0879ZM4.69226 12.5879C5.14624 12.5879 5.58493 12.554 6 12.4909V10.948C5.58493 11.0112 5.14624 11.0455 4.69226 11.0455C2.43018 11.0455 0.542146 10.2057 0.0987776 9.08789C0.0341826 9.25054 0 9.41929 0 9.59194V10.126C0 11.4857 2.10087 12.5879 4.69226 12.5879ZM5.82978 13.4479V13.5681V14.1019C5.82978 14.4006 5.88761 14.6888 6 14.9623C5.54704 15.0436 5.06281 15.0879 4.55915 15.0879C2.04127 15.0879 0 13.9856 0 12.6259V12.0922C0 11.9193 0.0332129 11.7508 0.0959754 11.5879C0.526766 12.7056 2.36124 13.5454 4.55915 13.5454C5.00024 13.5454 5.4263 13.5111 5.82978 13.4479ZM6.59999 5.08789C7.04881 6.20575 8.96025 7.04552 11.2501 7.04552C13.54 7.04552 15.4512 6.20575 15.9 5.08789C15.9654 5.25054 16 5.41907 16 5.59195V6.12602C16 7.48573 13.8733 8.58789 11.2501 8.58789C8.62669 8.58789 6.5 7.48573 6.5 6.12602V5.59195C6.5 5.41907 6.5346 5.25054 6.59999 5.08789ZM11.2501 9.71466C8.96025 9.71466 7.04881 8.87489 6.59999 7.75716C6.5346 7.91998 6.5 8.08855 6.5 8.26136V8.79517C6.5 10.1548 8.62669 11.2572 11.2501 11.2572C13.8733 11.2572 16 10.1548 16 8.79517V8.26136C16 8.08855 15.9654 7.91998 15.9 7.75716C15.4512 8.87489 13.54 9.71466 11.2501 9.71466ZM6.59999 10.4186C7.04881 11.5364 8.96025 12.3764 11.2501 12.3764C13.54 12.3764 15.4512 11.5364 15.9 10.4186C15.9654 10.5815 16 10.75 16 10.9229V11.4569C16 12.8165 13.8733 13.9186 11.2501 13.9186C8.62669 13.9186 6.5 12.8165 6.5 11.4569V10.9229C6.5 10.75 6.5346 10.5815 6.59999 10.4186Z" fill="#4A90E2"/>
</svg>
