<svg width="16" height="17" viewBox="0 0 16 17" fill="none" xmlns="http://www.w3.org/2000/svg">
<path fill-rule="evenodd" clip-rule="evenodd" d="M0.500376 13.2852H6.5043C6.78101 13.2852 7.00468 13.1732 7.00468 13.0351V12.5352C7.00468 12.3972 6.78101 12.2852 6.5043 12.2852H0.500376C0.223862 12.2852 0 12.3972 0 12.5352V13.0351C0 13.1732 0.223862 13.2852 0.500376 13.2852ZM0.500376 15.2852H6.5043C6.78101 15.2852 7.00468 15.1732 7.00468 15.0351V14.5352C7.00468 14.3972 6.78101 14.2852 6.5043 14.2852H0.500376C0.223862 14.2852 0 14.3972 0 14.5352V15.0351C0 15.1732 0.223862 15.2852 0.500376 15.2852ZM0.500376 11.2852H6.5043C6.78101 11.2852 7.00468 11.1733 7.00468 11.0352V10.5352C7.00468 10.3972 6.78101 10.2852 6.5043 10.2852H0.500376C0.223862 10.2852 0 10.3972 0 10.5352V11.0352C0 11.1733 0.223862 11.2852 0.500376 11.2852ZM0.500375 9.28223H6.50429C6.781 9.28223 7.00467 9.17035 7.00467 9.03229V8.53229C7.00467 8.39424 6.781 8.28223 6.50429 8.28223H0.500375C0.223861 8.28223 0 8.39424 0 8.53229V9.03229C0 9.17035 0.223861 9.28223 0.500375 9.28223ZM8.46575 9.55615H8.01969V8.5941C8.01969 7.82315 7.83397 7.2573 6.99909 7.2573H5.01465C5.01465 5.87778 6.12522 4.75952 7.49525 4.75952C8.86548 4.75952 9.97586 5.87778 9.97586 7.2573C9.97586 8.28974 9.35331 9.17563 8.46575 9.55615ZM0.0150452 3.31696H13.9706V13.2589H8.039V12.2926H11.1268C11.1268 11.1891 11.9281 10.4472 13.0327 10.4472V6.12551C11.9281 6.12551 11.1268 5.36579 11.1268 4.26236H2.84482C2.84482 5.36579 2.02928 6.12551 0.924869 6.12551V7.25996H0.0150452V3.31696ZM15.9993 1.2793V11.2705H14.9992V2.27849H0.999365V1.2793H15.9993Z" fill="#4A90E2"/>
</svg>
