<svg width="33" height="29" viewBox="0 0 33 29" fill="none" xmlns="http://www.w3.org/2000/svg">
<mask id="mask0" mask-type="alpha" maskUnits="userSpaceOnUse" x="0" y="4" width="31" height="9">
<path fill-rule="evenodd" clip-rule="evenodd" d="M0.504883 4.19141H30.9589V12.0711H0.504883V4.19141Z" fill="white"/>
</mask>
<g mask="url(#mask0)">
<path fill-rule="evenodd" clip-rule="evenodd" d="M3.03874 4.19141H28.4211C29.817 4.19141 30.9593 5.29962 30.9593 6.65386V9.60867C30.9593 10.9632 29.817 12.0711 28.4211 12.0711H3.03874C1.64281 12.0711 0.500488 10.963 0.500488 9.60867V6.65386C0.500488 5.29962 1.64281 4.19141 3.03874 4.19141Z" fill="#A86A3F"/>
</g>
<path fill-rule="evenodd" clip-rule="evenodd" d="M8.83067 6.27779L24.4254 2.37627C24.9486 2.23529 25.4968 2.54089 25.6463 3.03447L28.2369 12.0592C28.3864 12.5528 28.0627 13.0697 27.5396 13.2107L7.2364 18.3106C6.71322 18.4517 6.1653 18.1463 6.01578 17.6527L4.12256 11.0251L8.83067 6.27779Z" fill="#3DB39E"/>
<mask id="mask1" mask-type="alpha" maskUnits="userSpaceOnUse" x="0" y="0" width="32" height="29">
<path fill-rule="evenodd" clip-rule="evenodd" d="M0.504395 0.589844H31.5773V28.366H0.504395V0.589844Z" fill="white"/>
</mask>
<g mask="url(#mask1)">
<path fill-rule="evenodd" clip-rule="evenodd" d="M25.2869 12.3297L21.9034 13.2058C21.6278 13.2788 21.3523 13.1325 21.3022 12.8649C21.227 12.5973 21.3774 12.3297 21.653 12.2812L24.5602 11.5267L23.0065 5.88135L20.0991 6.63589C19.8235 6.70887 19.5479 6.5626 19.4975 6.295C19.4224 6.0274 19.5727 5.7598 19.8486 5.71091L23.2321 4.83512C23.5077 4.76214 23.7833 4.90818 23.8334 5.17578L25.638 11.7457C25.7132 12.0133 25.5628 12.2812 25.2869 12.3297ZM11.252 16.0049L7.86858 16.8806C7.59296 16.9537 7.31702 16.8077 7.26698 16.5401L5.46267 9.97011C5.38742 9.70251 5.53784 9.4346 5.81346 9.38603L9.19689 8.51001C9.47252 8.43695 9.74846 8.5833 9.79849 8.8509C9.87366 9.1185 9.72324 9.38603 9.4473 9.43491L6.54026 10.1891L8.09417 15.8345L11.0013 15.0803C11.2768 15.007 11.5528 15.1532 11.6028 15.4208C11.678 15.664 11.5276 15.9316 11.252 16.0049Z" fill="#78CABB"/>
<path fill-rule="evenodd" clip-rule="evenodd" d="M0.700509 10.0429C5.16177 7.56108 17.1917 0.723153 17.1917 0.723153C17.668 0.45563 18.2944 0.601594 18.5704 1.06381L23.583 9.43444C23.8585 9.89697 23.6829 10.481 23.2069 10.7486L4.86101 20.9685C4.3847 21.2362 3.75828 21.0901 3.48234 20.628C3.48234 20.628 2.07886 17.854 0.675293 15.5178C0.675611 10.0429 0.700509 11.8437 0.700509 10.0429Z" fill="#5ABEAC"/>
<path fill-rule="evenodd" clip-rule="evenodd" d="M21.0262 9.16701L17.5176 3.27824C17.3671 3.03512 17.0664 2.96214 16.8408 3.1081L13.8082 4.8114C13.5577 4.95745 13.4825 5.24945 13.6329 5.46848C13.7833 5.71159 14.084 5.78465 14.3096 5.63861L16.916 4.17882L19.9238 9.24007L17.3171 10.7002C17.0664 10.8462 16.9911 11.1379 17.1416 11.3569C17.292 11.6004 17.5927 11.6734 17.8183 11.5274L20.851 9.82408C21.0766 9.70252 21.1766 9.41051 21.0262 9.16701ZM7.74326 16.0537L5.13658 17.5139L2.12908 12.4523L4.73544 10.9924C4.98616 10.8465 5.06141 10.5544 4.91099 10.3354C4.76057 10.0919 4.45981 10.0189 4.23423 10.1649L1.2019 11.8682C0.95118 12.0143 0.87601 12.3063 1.02635 12.5253L4.53506 18.4141C4.6854 18.6572 4.98616 18.7302 5.21175 18.5842L8.24439 16.8809C8.49487 16.7349 8.57004 16.4429 8.41963 16.2239C8.29442 16.0052 7.99366 15.9077 7.74326 16.0537ZM9.02119 7.46289C7.09159 8.53353 6.43972 10.9183 7.54245 12.7917C8.6704 14.6655 11.1014 15.2981 13.0314 14.2274C14.9613 13.1567 15.6128 10.7723 14.5101 8.89859C13.3821 7.04925 10.9511 6.39225 9.02119 7.46289ZM21.0262 9.16701L17.5176 3.27824C17.3671 3.03512 17.0664 2.96214 16.8408 3.1081L13.8082 4.8114C13.5577 4.95745 13.4825 5.24945 13.6329 5.46848C13.7833 5.71159 14.084 5.78465 14.3096 5.63861L16.916 4.17882L19.9238 9.24007L17.3171 10.7002C17.0664 10.8462 16.9911 11.1379 17.1416 11.3569C17.292 11.6004 17.5927 11.6734 17.8183 11.5274L20.851 9.82408C21.0766 9.70252 21.1766 9.41051 21.0262 9.16701ZM7.74326 16.0537L5.13658 17.5139L2.12908 12.4523L4.73544 10.9924C4.98616 10.8465 5.06141 10.5544 4.91099 10.3354C4.76057 10.0919 4.45981 10.0189 4.23423 10.1649L1.2019 11.8682C0.95118 12.0143 0.87601 12.3063 1.02635 12.5253L4.53506 18.4141C4.6854 18.6572 4.98616 18.7302 5.21175 18.5842L8.24439 16.8809C8.49487 16.7349 8.57004 16.4429 8.41963 16.2239C8.29442 16.0052 7.99366 15.9077 7.74326 16.0537ZM9.02119 7.46289C7.09159 8.53353 6.43972 10.9183 7.54245 12.7917C8.6704 14.6655 11.1014 15.2981 13.0314 14.2274C14.9613 13.1567 15.6128 10.7723 14.5101 8.89859C13.3821 7.04925 10.9511 6.39225 9.02119 7.46289Z" fill="#8CD2C5"/>
<path fill-rule="evenodd" clip-rule="evenodd" d="M29.0715 28.3661H3.00629C1.62794 28.3661 0.5 27.271 0.5 25.9327V8.41279H29.0715C30.4501 8.41279 31.5777 9.5076 31.5777 10.8461V25.9327C31.5777 27.271 30.4498 28.3661 29.0715 28.3661ZM2.50508 8.41353H0.5V6.4668C0.5 7.53743 1.40235 8.41353 2.50508 8.41353Z" fill="#C47E4D"/>
</g>
<path fill-rule="evenodd" clip-rule="evenodd" d="M31.5053 21.9007H27.5274C25.6132 21.9007 24.0469 20.4336 24.0469 18.6406C24.0469 16.848 25.6132 15.3809 27.5274 15.3809H31.5053C32.0525 15.3809 32.4997 15.8 32.4997 16.3124V20.9691C32.4997 21.4816 32.0525 21.9007 31.5053 21.9007Z" fill="#A86A3F"/>
<path fill-rule="evenodd" clip-rule="evenodd" d="M27.3679 16.5684C28.5303 16.5684 29.4813 17.5017 29.4813 18.6427C29.4813 19.7841 28.5305 20.7174 27.3679 20.7174C26.206 20.7174 25.2549 19.7841 25.2549 18.6427C25.2549 17.5017 26.206 16.5684 27.3679 16.5684Z" fill="#EFC75E"/>
<path fill-rule="evenodd" clip-rule="evenodd" d="M28.0688 20.4994C26.9661 20.4994 26.0637 19.6167 26.0637 18.5379C26.0637 18.1212 26.1889 17.7287 26.4145 17.4102C25.8882 17.7534 25.5625 18.3418 25.5625 19.0282C25.5625 20.107 26.4645 20.9896 27.5673 20.9896C28.244 20.9896 28.8456 20.6465 29.2216 20.1562C28.8956 20.3768 28.4948 20.4994 28.0688 20.4994Z" fill="#D7B354"/>
<path fill-rule="evenodd" clip-rule="evenodd" d="M29.0715 27.608H3.00629C1.62794 27.608 0.5 26.5049 0.5 25.1562V26.1371C0.5 27.4855 1.62794 28.5889 3.00629 28.5889H29.0715C30.4501 28.5889 31.5777 27.4855 31.5777 26.1371V25.1562C31.5777 26.5049 30.4498 27.608 29.0715 27.608Z" fill="#B27245"/>
<path fill-rule="evenodd" clip-rule="evenodd" d="M29.0715 8.48687H2.50508C1.40235 8.48687 0.5 7.60414 0.5 6.52539V7.50594C0.5 8.58476 1.40235 9.46741 2.50508 9.46741H29.0715C30.4501 9.46741 31.5777 10.5708 31.5777 11.9192V10.9387C31.5777 9.58997 30.4498 8.48687 29.0715 8.48687Z" fill="#CA8B5F"/>
</svg>
