<svg width="24" height="28" viewBox="0 0 24 28" fill="none" xmlns="http://www.w3.org/2000/svg">
<path fill-rule="evenodd" clip-rule="evenodd" d="M0.000340392 13.8766C0.000340392 12.3093 0.148865 11.3147 3.81851 8.8918C6.85662 6.88593 16.5946 0.03125 16.5946 0.03125V11.4739H24V27.9428H2.31342C1.04126 27.9428 0 27.0218 0 25.8965L0.000340392 13.8766Z" fill="#FACA22"/>
<path fill-rule="evenodd" clip-rule="evenodd" d="M14.4876 11.4746V18.1048L2.60742 26.3046L17.6278 21.3532V11.4746H14.4876Z" fill="#C9A521"/>
<path fill-rule="evenodd" clip-rule="evenodd" d="M9.05863 11.131C9.75331 10.2923 10.7679 9.99616 11.325 10.4699C11.8821 10.9435 11.7708 12.0075 11.076 12.8462C10.3817 13.6848 9.36679 13.9806 8.8097 13.5069C8.25251 13.0333 8.36414 11.9696 9.05863 11.131Z" fill="#6F8F9D"/>
</svg>
