<svg width="26" height="33" viewBox="0 0 26 33" fill="none" xmlns="http://www.w3.org/2000/svg">
<path fill-rule="evenodd" clip-rule="evenodd" d="M0.625351 16.4632C0.625351 14.6664 0.778514 13.5261 4.56277 10.7483C7.69577 8.44858 17.7378 0.589844 17.7378 0.589844V13.7086H25.3746V32.5898H3.01067C1.69878 32.5898 0.625 31.534 0.625 30.2438L0.625351 16.4632Z" fill="#FACA22"/>
<path fill-rule="evenodd" clip-rule="evenodd" d="M17.7377 13.709V21.3103L3.70459 30.7112L21.4469 25.0346V13.709H17.7377Z" fill="#C9A521"/>
<path fill-rule="evenodd" clip-rule="evenodd" d="M11.3252 13.3156C12.1458 12.3541 13.3443 12.0145 14.0024 12.5576C14.6604 13.1007 14.5289 14.3205 13.7082 15.2821C12.8881 16.2435 11.6892 16.5826 11.0312 16.0395C10.373 15.4965 10.5049 14.277 11.3252 13.3156Z" fill="#6F8F9D"/>
</svg>
