<svg width="54" height="42" viewBox="0 0 54 42" fill="none" xmlns="http://www.w3.org/2000/svg">
<path d="M43.5 21C46.6 21.2029 49.05 22.2681 50.85 24.1957C52.65 26.0217 53.55 28.4058 53.55 31.3478C53.55 34.7971 52.5 37.4348 50.4 39.2609C48.3 41.087 45.9 42 43.2 42C42.9 42 42.6 42 42.3 42C40.2 42 38.4 41.5435 36.9 40.6304C35.5 39.7174 34.3 38.6015 33.3 37.2826C32.4 35.8623 31.75 34.2899 31.35 32.5652C30.95 30.7391 30.75 28.913 30.75 27.087C30.75 24.3478 31.25 21.558 32.25 18.7174C33.25 15.8768 34.6 13.2391 36.3 10.8044C38.1 8.26812 40.1 6.08696 42.3 4.26087C44.6 2.33333 47.05 0.913044 49.65 0L54 6.08696C51.5 7.8116 49.3 9.99276 47.4 12.6304C45.5 15.1667 44.2 17.9565 43.5 21ZM12.75 21C15.85 21.2029 18.3 22.2681 20.1 24.1957C21.9 26.0217 22.8 28.4058 22.8 31.3478C22.8 34.7971 21.75 37.4348 19.65 39.2609C17.55 41.087 15.1 42 12.3 42C12 42 11.7 42 11.4 42C9.3 42 7.5 41.5435 6 40.6304C4.6 39.7174 3.45 38.6015 2.55 37.2826C1.65 35.8623 1 34.2899 0.6 32.5652C0.2 30.7391 0 28.913 0 27.087C0 24.3478 0.5 21.558 1.5 18.7174C2.5 15.8768 3.85 13.2391 5.55 10.8044C7.35 8.26812 9.35 6.08696 11.55 4.26087C13.85 2.33333 16.3 0.913044 18.9 0L23.25 6.08696C20.75 7.8116 18.55 9.99276 16.65 12.6304C14.75 15.1667 13.45 17.9565 12.75 21Z" fill="#F0564A"/>
</svg>
