<svg width="48" height="48" viewBox="0 0 48 48" fill="none" xmlns="http://www.w3.org/2000/svg">
<path d="M17.25 39C17.25 39.1989 17.171 39.3897 17.0303 39.5303C16.8897 39.671 16.6989 39.75 16.5 39.75H7.49998C6.84189 39.7497 6.19547 39.5761 5.62567 39.2469C5.05588 38.9176 4.58276 38.4442 4.25387 37.8742C3.92497 37.3041 3.75187 36.6576 3.75195 35.9995C3.75204 35.3414 3.92531 34.6949 4.25436 34.125L11.5931 21.4463L7.19998 22.6219C7.10346 22.6522 7.00178 22.6627 6.90109 22.6528C6.80039 22.6428 6.70276 22.6126 6.61406 22.5639C6.52536 22.5152 6.44743 22.449 6.38496 22.3694C6.32249 22.2898 6.27678 22.1984 6.25058 22.1007C6.22437 22.0029 6.21821 21.9009 6.23247 21.8007C6.24673 21.7006 6.28112 21.6043 6.33356 21.5178C6.386 21.4312 6.4554 21.3562 6.5376 21.2972C6.6198 21.2382 6.71309 21.1964 6.81186 21.1744L12.9562 19.53C13.0515 19.5045 13.1509 19.4981 13.2487 19.5111C13.3465 19.5241 13.4407 19.5562 13.5261 19.6057C13.6114 19.6551 13.6862 19.7209 13.746 19.7993C13.8059 19.8777 13.8497 19.9672 13.875 20.0625L15.5231 26.2069C15.5747 26.3988 15.548 26.6034 15.4489 26.7757C15.3497 26.9479 15.1862 27.0738 14.9944 27.1256C14.9333 27.1427 14.8702 27.1515 14.8069 27.1519C14.641 27.1513 14.48 27.0958 14.349 26.9941C14.2181 26.8923 14.1246 26.75 14.0831 26.5894L12.9019 22.1888L5.55936 34.875C5.36221 35.2165 5.25826 35.6037 5.25791 35.998C5.25756 36.3923 5.36083 36.7798 5.55737 37.1216C5.75391 37.4634 6.03682 37.7476 6.37776 37.9456C6.7187 38.1436 7.1057 38.2486 7.49998 38.25H16.5C16.6989 38.25 16.8897 38.329 17.0303 38.4697C17.171 38.6103 17.25 38.8011 17.25 39ZM43.74 34.125L39.4012 26.625C39.3018 26.4527 39.1379 26.327 38.9458 26.2754C38.7536 26.2239 38.5489 26.2509 38.3765 26.3503C38.2042 26.4498 38.0785 26.6136 38.027 26.8058C37.9755 26.9979 38.0024 27.2027 38.1019 27.375L42.4406 34.875C42.6378 35.2165 42.7417 35.6037 42.7421 35.998C42.7424 36.3923 42.6391 36.7798 42.4426 37.1216C42.2461 37.4634 41.9631 37.7476 41.6222 37.9456C41.2813 38.1436 40.8943 38.2486 40.5 38.25H25.8112L29.0306 35.0306C29.1713 34.8899 29.2504 34.699 29.2504 34.5C29.2504 34.301 29.1713 34.1101 29.0306 33.9694C28.8899 33.8287 28.699 33.7496 28.5 33.7496C28.301 33.7496 28.1101 33.8287 27.9694 33.9694L23.4694 38.4694C23.3996 38.539 23.3443 38.6218 23.3066 38.7128C23.2688 38.8039 23.2494 38.9014 23.2494 39C23.2494 39.0986 23.2688 39.1962 23.3066 39.2872C23.3443 39.3783 23.3996 39.461 23.4694 39.5306L27.9694 44.0306C28.1101 44.1714 28.301 44.2504 28.5 44.2504C28.699 44.2504 28.8899 44.1714 29.0306 44.0306C29.1713 43.8899 29.2504 43.699 29.2504 43.5C29.2504 43.301 29.1713 43.1101 29.0306 42.9694L25.8112 39.75H40.5C41.1581 39.7497 41.8045 39.5761 42.3743 39.2469C42.9441 38.9176 43.4172 38.4442 43.7461 37.8742C44.075 37.3041 44.2481 36.6576 44.248 35.9995C44.2479 35.3414 44.0746 34.6949 43.7456 34.125H43.74ZM25.9462 6.37501L33.285 19.0538L28.8919 17.8763C28.6997 17.8248 28.4949 17.8518 28.3226 17.9513C28.1503 18.0508 28.0246 18.2147 27.9731 18.4069C27.9216 18.5991 27.9486 18.8039 28.0481 18.9762C28.1476 19.1485 28.3115 19.2742 28.5037 19.3256L34.65 20.9719C34.711 20.9892 34.7741 20.998 34.8375 20.9981C35.0033 20.9976 35.1643 20.9421 35.2953 20.8403C35.4262 20.7385 35.5198 20.5962 35.5612 20.4356L37.2094 14.2875C37.2397 14.191 37.2502 14.0893 37.2402 13.9886C37.2303 13.8879 37.2 13.7903 37.1513 13.7016C37.1026 13.6129 37.0365 13.535 36.9569 13.4725C36.8773 13.41 36.7859 13.3643 36.6881 13.3381C36.5904 13.3119 36.4884 13.3057 36.3882 13.32C36.288 13.3343 36.1918 13.3686 36.1052 13.4211C36.0187 13.4735 35.9436 13.5429 35.8846 13.6251C35.8256 13.7073 35.7839 13.8006 35.7619 13.8994L34.5806 18.3L27.2456 5.62501C26.9162 5.05586 26.4429 4.58334 25.8733 4.25484C25.3036 3.92634 24.6576 3.75342 24 3.75342C23.3424 3.75342 22.6964 3.92634 22.1267 4.25484C21.557 4.58334 21.0838 5.05586 20.7544 5.62501L16.4119 13.125C16.3124 13.2973 16.2855 13.5021 16.337 13.6942C16.3885 13.8864 16.5142 14.0502 16.6865 14.1497C16.8589 14.2492 17.0636 14.2761 17.2558 14.2246C17.4479 14.1731 17.6118 14.0473 17.7112 13.875L22.0519 6.37501C22.2495 6.03361 22.5335 5.75018 22.8752 5.55314C23.217 5.3561 23.6046 5.25238 23.999 5.25238C24.3935 5.25238 24.7811 5.3561 25.1229 5.55314C25.4646 5.75018 25.7486 6.03361 25.9462 6.37501Z" fill="#333333"/>
</svg>
