<svg width="32" height="32" viewBox="0 0 32 32" fill="none" xmlns="http://www.w3.org/2000/svg">
<path d="M17.2862 1.34087C17.1162 1.34253 16.9539 1.41173 16.835 1.53319C16.7161 1.65465 16.6504 1.81842 16.6524 1.98836C16.7081 6.69567 16.9831 10.0104 18.9099 12.2296C20.8367 14.4488 24.2126 15.2875 30.0111 15.3509C30.1922 15.353 30.3657 15.2783 30.4886 15.1454C30.6115 15.0125 30.6724 14.8337 30.6562 14.6534C30.016 7.60282 24.4004 1.98553 17.3499 1.34336C17.3287 1.34146 17.3074 1.34064 17.2862 1.34087ZM14.6562 1.34462C14.6399 1.34483 14.6236 1.34567 14.6074 1.34712C7.57678 2.00804 1.98182 7.61682 1.34365 14.6534C1.32739 14.8337 1.38827 15.0125 1.5112 15.1454C1.63413 15.2784 1.80761 15.353 1.98865 15.3509C7.77012 15.2843 11.1372 14.4439 13.0574 12.2246C14.9776 10.0053 15.2502 6.69353 15.3061 1.99213C15.3082 1.81935 15.2403 1.65309 15.1178 1.53115C14.9954 1.4092 14.8289 1.34192 14.6562 1.34462ZM17.9887 2.75587C23.815 3.62687 28.3857 8.20192 29.2474 14.0309C24.1276 13.895 21.3362 13.0725 19.8762 11.3909C18.4407 9.73756 18.0809 6.88983 17.9887 2.75587ZM13.9712 2.76087C13.8787 6.88876 13.5188 9.73421 12.0887 11.3871C10.6341 13.0682 7.85375 13.8906 2.7524 14.0296C3.61254 8.21465 8.16421 3.64659 13.9712 2.76087ZM1.98865 16.6484C1.8076 16.6462 1.63412 16.7209 1.5112 16.8538C1.38827 16.9868 1.3274 17.1655 1.34365 17.3459C1.98248 24.383 7.57674 29.9919 14.6074 30.6521C14.7879 30.6688 14.9671 30.6081 15.1003 30.4851C15.2335 30.3621 15.3083 30.1884 15.3062 30.0071C15.2502 25.3057 14.9776 21.994 13.0574 19.7746C11.1372 17.5553 7.77014 16.7147 1.98865 16.6484ZM30.0112 16.6484C24.2126 16.7117 20.8366 17.5504 18.9099 19.7696C16.9832 21.9888 16.7084 25.3036 16.6524 30.0109C16.6503 30.1919 16.7249 30.3654 16.8579 30.4883C16.9908 30.6113 17.1696 30.6721 17.3499 30.6559C24.3998 30.0137 30.0153 24.3976 30.6562 17.3471C30.6728 17.1666 30.6121 16.9875 30.4891 16.8542C30.3662 16.721 30.1924 16.6462 30.0112 16.6484ZM29.2474 17.9684C28.3851 23.7974 23.8145 28.3724 17.9887 29.2434C18.0812 25.1094 18.4408 22.2617 19.8762 20.6084C21.3361 18.9268 24.1276 18.1042 29.2474 17.9684ZM2.7524 17.9696C7.85374 18.1084 10.6341 18.931 12.0887 20.6121C13.5188 22.2651 13.8787 25.1105 13.9712 29.2384C8.16427 28.3531 3.613 23.7853 2.7524 17.9696Z" fill="#3F7DE5"/>
</svg>
