<svg width="200" height="50" viewBox="0 0 200 50" fill="none" xmlns="http://www.w3.org/2000/svg">
<path d="M27.7607 40.2335H46.5641V32.336H31.8975V16.1651L42.8034 8.64374L53.7094 16.1651V23.3104H61.6069V14.2848C61.6069 12.7805 60.963 11.3483 59.7265 10.5241L45.0598 0.74627C43.5556 -0.256576 42.0513 -0.240907 40.547 0.74627C36.5356 3.37875 28.0615 9.13259 26.2564 10.336C24.4513 11.5394 24 12.9586 24 14.2848V36.4728C24 38.2779 25.8803 40.2335 27.7607 40.2335Z" fill="url(#paint0_linear_3018_10697)"/>
<path d="M46.5645 40.2336V27.4243C46.5645 25.1507 48.3604 23.3105 50.5793 23.3105H61.6072L46.5645 40.2336Z" fill="#FBBC33"/>
<path d="M70.2418 24.9826H72.2275C72.9947 24.0875 73.9725 22.0266 74.2884 15.5583L74.326 12.0684H85.4578V24.9901H87.9773V30.5108H84.9313V28.0964H73.288V30.5108H70.2344V24.9826H70.2418ZM75.8077 24.9826H82.2233V14.9115L77.5075 14.9641L77.3797 17.9125C77.0337 22.4027 76.4771 24.2154 75.8077 24.9826Z" fill="#0E3A57"/>
<path d="M95.287 15.627C99.3037 15.627 101.891 18.2594 101.891 21.787C101.891 25.307 99.3037 27.947 95.287 27.947C91.2709 27.947 88.6836 25.3145 88.6836 21.787C88.6836 18.2594 91.2709 15.627 95.287 15.627ZM95.287 25.149C97.1974 25.149 98.6043 23.8177 98.6043 21.787C98.6043 19.8013 97.175 18.4475 95.287 18.4475C93.452 18.4475 92.0003 19.7486 92.0003 21.787C92.0003 23.7425 93.3991 25.149 95.287 25.149Z" fill="#0E3A57"/>
<path d="M103.568 15.9121H106.374L110.496 20.1692L114.407 15.9121H117.129V27.653H114.03V20.4776L110.443 24.2082H110.36L106.667 20.4776V27.653H103.568V15.9121Z" fill="#0E3A57"/>
<path d="M163.045 15.9121H166.144V27.653H163.045V15.9121ZM169.198 21.493L175.087 27.653H171.04L164.918 21.7337L170.717 15.9121H174.628L169.198 21.493Z" fill="#0E3A57"/>
<path d="M120.195 15.9121H123.294V27.653H120.195V15.9121ZM126.348 21.493L132.237 27.653H128.191L122.068 21.7337L127.867 15.9121H131.778L126.348 21.493Z" fill="#0E3A57"/>
<path d="M142.071 18.9131H138.95L138.905 20.1843C138.754 26.8708 136.664 28.0516 133.316 27.7282V24.825C135.114 24.9453 135.843 24.1029 135.926 19.5901L135.987 15.9121H145.177V27.653H142.079V18.9131H142.071Z" fill="#0E3A57"/>
<path d="M148.244 27.653V15.9121H151.343V23.3508L157.006 15.9121H160.105V27.653H157.006V20.2144L151.343 27.653H148.244Z" fill="#0E3A57"/>
<path d="M163.13 38.6361L165.281 37.0566H158.09V46.5637H165.281V44.9766H160.143V42.5472H164.521V40.9602H160.143V38.6361H163.13Z" fill="#21A038"/>
<path d="M152.668 40.7646H150.17V38.6436H154.157L156.308 37.0566H148.125V46.5637H152.404C154.811 46.5637 156.18 45.473 156.18 43.5701C156.18 41.7575 154.931 40.7646 152.668 40.7646ZM152.307 44.9766H150.17V42.3442H152.307C153.608 42.3442 154.217 42.7879 154.217 43.6604C154.217 44.563 153.57 44.9766 152.307 44.9766Z" fill="#21A038"/>
<path d="M171.103 37.0488H167.191V46.5634H169.245V43.8707H171.103C173.6 43.8707 175.149 42.5545 175.149 40.456C175.149 38.3576 173.6 37.0488 171.103 37.0488ZM171.057 42.2837H169.237V38.6358H171.057C172.374 38.6358 173.096 39.2827 173.096 40.456C173.096 41.6369 172.374 42.2837 171.057 42.2837Z" fill="#21A038"/>
<path d="M144.598 44.5037C144.072 44.797 143.462 44.9475 142.823 44.9475C140.973 44.9475 139.634 43.6237 139.634 41.8111C139.634 39.9984 140.973 38.6746 142.823 38.6746C143.523 38.6746 144.154 38.8702 144.689 39.2538L146.155 38.1707L146.058 38.0804C145.2 37.3208 144.049 36.9297 142.733 36.9297C141.312 36.9297 140.018 37.4111 139.093 38.2835C138.16 39.1635 137.648 40.397 137.648 41.7584C137.648 43.1273 138.16 44.3758 139.085 45.2784C140.01 46.1885 141.304 46.6849 142.718 46.6849C144.2 46.6849 145.486 46.1659 146.366 45.2258C145.689 44.7293 145.035 44.248 145.035 44.248L144.598 44.5037Z" fill="#21A038"/>
<path d="M131.303 36.9453C131.677 37.4281 131.989 37.9577 132.253 38.5185L125.057 43.83L122.035 41.9297V39.6555L125.041 41.5403L131.303 36.9453Z" fill="#21A038"/>
<path d="M118.967 41.7721C118.967 41.6631 118.967 41.5697 118.982 41.4606L117.16 41.3672C117.16 41.4918 117.145 41.632 117.145 41.7566C117.145 43.9372 118.032 45.9155 119.466 47.3485L120.758 46.0556C119.653 44.9653 118.967 43.4544 118.967 41.7721Z" fill="url(#paint1_linear_3018_10697)"/>
<path d="M125.041 35.6974C125.15 35.6974 125.244 35.6974 125.353 35.713L125.446 33.8906C125.322 33.8906 125.182 33.875 125.057 33.875C122.876 33.875 120.898 34.7628 119.465 36.1959L120.758 37.4887C121.848 36.3828 123.375 35.6974 125.041 35.6974Z" fill="url(#paint2_linear_3018_10697)"/>
<path d="M125.042 47.8479C124.933 47.8479 124.84 47.8479 124.73 47.8323L124.637 49.6547C124.761 49.6547 124.902 49.6703 125.026 49.6703C127.207 49.6703 129.185 48.7825 130.618 47.3495L129.325 46.0566C128.235 47.1781 126.724 47.8479 125.042 47.8479Z" fill="url(#paint3_linear_3018_10697)"/>
<path d="M128.468 36.7585L130.01 35.6214C128.655 34.5311 126.926 33.8613 125.041 33.8613V35.6837C126.319 35.6993 127.503 36.0887 128.468 36.7585Z" fill="url(#paint4_linear_3018_10697)"/>
<path d="M132.955 41.7729C132.955 41.2901 132.908 40.8228 132.831 40.3555L131.132 41.6172C131.132 41.6639 131.132 41.7262 131.132 41.7729C131.132 43.5642 130.354 45.1686 129.123 46.2745L130.354 47.6296C131.943 46.1966 132.955 44.0938 132.955 41.7729Z" fill="#21A038"/>
<path d="M125.042 47.8473C123.251 47.8473 121.646 47.0685 120.541 45.8379L119.186 47.0685C120.634 48.6728 122.721 49.6697 125.042 49.6697V47.8473Z" fill="url(#paint5_linear_3018_10697)"/>
<path d="M120.977 37.2711L119.746 35.916C118.142 37.3646 117.145 39.4518 117.145 41.7727H118.967C118.967 39.997 119.746 38.3771 120.977 37.2711Z" fill="url(#paint6_linear_3018_10697)"/>
<defs>
<linearGradient id="paint0_linear_3018_10697" x1="24.8388" y1="7.90184" x2="52.0399" y2="32.8313" gradientUnits="userSpaceOnUse">
<stop stop-color="#6BBD3F"/>
<stop offset="0.427083" stop-color="#2CA465"/>
<stop offset="0.828125" stop-color="#148F82"/>
<stop offset="1" stop-color="#0276A2"/>
</linearGradient>
<linearGradient id="paint1_linear_3018_10697" x1="119.836" y1="47.1282" x2="117.841" y2="41.3599" gradientUnits="userSpaceOnUse">
<stop offset="0.1444" stop-color="#F2E913"/>
<stop offset="0.3037" stop-color="#E7E518"/>
<stop offset="0.5823" stop-color="#CADB26"/>
<stop offset="0.891" stop-color="#A3CD39"/>
</linearGradient>
<linearGradient id="paint2_linear_3018_10697" x1="119.986" y1="36.5176" x2="125.126" y2="34.559" gradientUnits="userSpaceOnUse">
<stop offset="0.0592" stop-color="#0FA8E0"/>
<stop offset="0.5385" stop-color="#0099F9"/>
<stop offset="0.9234" stop-color="#0291EB"/>
</linearGradient>
<linearGradient id="paint3_linear_3018_10697" x1="124.531" y1="48.5614" x2="130.343" y2="47.2478" gradientUnits="userSpaceOnUse">
<stop offset="0.1226" stop-color="#A3CD39"/>
<stop offset="0.2846" stop-color="#86C339"/>
<stop offset="0.8693" stop-color="#21A038"/>
</linearGradient>
<linearGradient id="paint4_linear_3018_10697" x1="124.665" y1="34.4819" x2="129.634" y2="36.0152" gradientUnits="userSpaceOnUse">
<stop offset="0.0566" stop-color="#0291EB"/>
<stop offset="0.79" stop-color="#0C8ACB"/>
</linearGradient>
<linearGradient id="paint5_linear_3018_10697" x1="119.647" y1="46.8471" x2="125.056" y2="48.8681" gradientUnits="userSpaceOnUse">
<stop offset="0.1324" stop-color="#F2E913"/>
<stop offset="0.2977" stop-color="#EBE716"/>
<stop offset="0.5306" stop-color="#D9E01F"/>
<stop offset="0.8023" stop-color="#BBD62D"/>
<stop offset="0.9829" stop-color="#A3CD39"/>
</linearGradient>
<linearGradient id="paint6_linear_3018_10697" x1="117.827" y1="41.9925" x2="119.999" y2="36.3443" gradientUnits="userSpaceOnUse">
<stop offset="0.0698" stop-color="#A3CD39"/>
<stop offset="0.2599" stop-color="#81C55F"/>
<stop offset="0.9216" stop-color="#0FA8E0"/>
</linearGradient>
</defs>
</svg>
