<svg width="40" height="40" viewBox="0 0 40 40" fill="none" xmlns="http://www.w3.org/2000/svg">
<path d="M4.6999 40H23.1994V32.1484H8.76982V16.0713L19.4995 8.59357L30.2292 16.0713V23.1751H37.999V14.2019C37.999 12.7063 37.3655 11.2825 36.1491 10.463L21.7194 0.741939C20.2395 -0.255087 18.7596 -0.239508 17.2796 0.741939C13.333 3.35914 4.9959 9.07958 3.21994 10.276C1.44399 11.4725 1 12.8834 1 14.2019V36.2611C1 38.0558 2.84995 40 4.6999 40Z" fill="url(#paint0_linear_3081_2189)"/>
<path d="M23.2012 39.9996V27.2647C23.2012 25.0043 24.9681 23.1748 27.1512 23.1748H38.0008L23.2012 39.9996Z" fill="#FBBC33"/>
<defs>
<linearGradient id="paint0_linear_3081_2189" x1="1.82524" y1="7.85598" x2="28.8424" y2="32.3588" gradientUnits="userSpaceOnUse">
<stop stop-color="#6BBD3F"/>
<stop offset="0.427083" stop-color="#2CA465"/>
<stop offset="0.828125" stop-color="#148F82"/>
<stop offset="1" stop-color="#0276A2"/>
</linearGradient>
</defs>
</svg>
