<svg width="32" height="32" viewBox="0 0 32 32" fill="none" xmlns="http://www.w3.org/2000/svg">
<g opacity="0.5">
<path d="M27.5975 20.266L21.695 17.6247C21.4662 17.5257 21.2163 17.4853 20.9679 17.5071C20.7196 17.5289 20.4806 17.6123 20.2725 17.7497C20.2559 17.7603 20.24 17.772 20.225 17.7847L17.125 20.4272C17.056 20.4693 16.9777 20.4937 16.8971 20.4983C16.8164 20.5029 16.7358 20.4875 16.6625 20.4535C14.6325 19.4735 12.5313 17.3885 11.5513 15.3822C11.5166 15.3095 11.5005 15.2293 11.5044 15.1488C11.5084 15.0683 11.5322 14.99 11.5738 14.921L14.2238 11.7697C14.2363 11.7547 14.2475 11.7385 14.2588 11.7222C14.3958 11.5145 14.4789 11.2759 14.5007 11.028C14.5225 10.7801 14.4824 10.5307 14.3838 10.3022L11.7375 4.40972C11.6098 4.11127 11.3886 3.86233 11.1073 3.70027C10.8261 3.53821 10.4998 3.47179 10.1775 3.51097C8.60448 3.71837 7.16073 4.49129 6.11593 5.68539C5.07112 6.87948 4.49673 8.41307 4.50001 9.99972C4.50001 19.6497 12.35 27.4997 22 27.4997C23.5867 27.503 25.1203 26.9286 26.3143 25.8838C27.5084 24.839 28.2814 23.3953 28.4888 21.8222C28.5277 21.5014 28.4619 21.1766 28.3013 20.8962C28.1407 20.6158 27.8939 20.3948 27.5975 20.266ZM27.5 21.6972C27.3235 23.0294 26.6678 24.2517 25.6556 25.1356C24.6433 26.0194 23.3438 26.5044 22 26.4997C12.9025 26.4997 5.50001 19.0972 5.50001 9.99972C5.49536 8.6559 5.9803 7.35639 6.86417 6.34415C7.74804 5.3319 8.97033 4.67623 10.3025 4.49972C10.3225 4.49851 10.3425 4.49851 10.3625 4.49972C10.4612 4.50056 10.5573 4.53056 10.639 4.58594C10.7206 4.64132 10.784 4.71962 10.8213 4.81097L13.46 10.7035C13.4908 10.7755 13.5042 10.8537 13.4992 10.9319C13.4943 11.0101 13.471 11.086 13.4313 11.1535L10.7825 14.3035C10.77 14.3197 10.7575 14.3347 10.7463 14.3522C10.6051 14.568 10.522 14.8165 10.505 15.0738C10.4879 15.3311 10.5374 15.5884 10.6488 15.821C11.735 18.0447 13.975 20.2685 16.2238 21.3547C16.4579 21.4653 16.7167 21.5135 16.975 21.4944C17.2332 21.4754 17.4821 21.3898 17.6975 21.246L17.7438 21.211L20.8475 18.571C20.9139 18.5304 20.989 18.5062 21.0666 18.5003C21.1442 18.4945 21.222 18.5071 21.2938 18.5372L27.195 21.1822C27.2946 21.2237 27.3781 21.2962 27.4331 21.389C27.4881 21.4819 27.5115 21.59 27.5 21.6972Z" fill="white"/>
</g>
</svg>
