<svg width="910" height="624" viewBox="0 0 910 624" fill="none" xmlns="http://www.w3.org/2000/svg">
<g opacity="0.1">
<path d="M737.54 463.35V224.186L619.819 130.307L569.312 169.635L675.298 254.17V561.722H234.701V463.35H172.459V624H737.54V525.61" fill="#3F7DE5"/>
<path d="M710.929 60.5647L511.875 215.438V526.675H637.532V464.552H574.074V245.941L710.858 139.456L847.713 245.923V464.534H737.068V526.728H910V215.509L710.929 60.5647Z" fill="#3F7DE5"/>
<path d="M372.447 195.524L398.125 215.503V526.728H0V215.503L199.072 60.5647L341.091 171.073L291.048 210.961L199.143 139.453L62.2875 245.916V464.519H335.927V245.934L321.18 234.453L372.447 195.524Z" fill="#3F7DE5"/>
<path d="M234.521 427.623V254.854L454.18 79.46L539.821 147.837L590.766 109.056L454.18 0L172.459 224.921V427.623H234.521Z" fill="#3F7DE5"/>
</g>
</svg>
