<svg width="36" height="36" viewBox="0 0 36 36" fill="none" xmlns="http://www.w3.org/2000/svg">
<path d="M18 30C18 30 27 21.471 27 15C27 12.6131 26.0518 10.3239 24.364 8.63604C22.6761 6.94821 20.3869 6 18 6C15.6131 6 13.3239 6.94821 11.636 8.63604C9.94821 10.3239 9 12.6131 9 15C9 21.471 18 30 18 30ZM18 19.5C16.8065 19.5 15.6619 19.0259 14.818 18.182C13.9741 17.3381 13.5 16.1935 13.5 15C13.5 13.8065 13.9741 12.6619 14.818 11.818C15.6619 10.9741 16.8065 10.5 18 10.5C19.1935 10.5 20.3381 10.9741 21.182 11.818C22.0259 12.6619 22.5 13.8065 22.5 15C22.5 16.1935 22.0259 17.3381 21.182 18.182C20.3381 19.0259 19.1935 19.5 18 19.5Z" fill="#61BD56"/>
</svg>
