<svg width="84" height="26" viewBox="0 0 84 26" fill="none" xmlns="http://www.w3.org/2000/svg">
<path d="M7.46092 0.509966C7.38953 0.516395 7.10395 0.545326 6.82811 0.574257C3.75492 0.882855 1.82728 2.33584 0.921874 5.01679C0.847235 5.23538 0.795312 5.43147 0.801802 5.45397C0.811538 5.47647 0.93161 5.51183 1.0744 5.53433C1.21394 5.55683 1.51574 5.60827 1.7494 5.65006C1.98305 5.69185 2.38221 5.76257 2.64182 5.81078C2.90144 5.85579 3.31033 5.92972 3.55047 5.97151C3.79062 6.01652 4.19951 6.09045 4.45913 6.13546C4.71874 6.18046 5.11465 6.25439 5.34506 6.29618C5.90648 6.40226 5.87727 6.40548 5.90323 6.20296C5.95191 5.8365 6.11741 5.29002 6.28292 4.95892C6.41922 4.68247 6.49061 4.57961 6.67883 4.39638C7.09097 3.99134 7.6102 3.79204 8.25924 3.79204C8.89854 3.79204 9.37883 3.96884 9.74878 4.34494C10.109 4.70819 10.268 5.13894 10.268 5.74328C10.268 6.36369 10.0701 6.82659 9.60274 7.2927C9.02835 7.86811 8.39229 8.08027 7.44794 8.00633C7.26297 7.99348 7.09746 7.99026 7.08448 7.9999C7.06825 8.00955 7.05527 8.09956 7.05527 8.19921C7.05527 8.29886 7.02607 8.73604 6.99037 9.17001C6.95792 9.60397 6.90599 10.3112 6.87679 10.7451C6.85083 11.1791 6.81838 11.5874 6.80864 11.6517C6.7989 11.7192 6.80215 11.7738 6.81513 11.7738C6.82811 11.7738 6.9352 11.7449 7.05203 11.7095C7.87306 11.4716 8.7233 11.4073 9.27498 11.5456C9.61897 11.6324 9.78772 11.6999 10.0149 11.8477C10.7223 12.2978 11.0955 13.0371 11.1604 14.1044C11.2253 15.1587 10.8327 16.1617 10.1447 16.7082C9.89481 16.9043 9.48916 17.1003 9.19385 17.1646C8.88231 17.2321 8.2852 17.2321 7.96393 17.1646C7.65563 17.0971 7.24025 16.8946 6.99362 16.6921C6.52631 16.3063 6.17583 15.6249 5.95191 14.6605C5.88052 14.3551 5.87727 14.3487 5.7929 14.3615C5.74746 14.3712 5.41646 14.413 5.05948 14.458C4.70251 14.5062 4.15408 14.5769 3.84254 14.6187C3.531 14.6605 2.98906 14.7312 2.64182 14.7794C2.29459 14.8244 1.74615 14.8951 1.42488 14.9402C1.1036 14.9819 0.76286 15.0269 0.66875 15.0366C0.577884 15.0494 0.5 15.0655 0.5 15.0752C0.5 15.207 0.860216 16.1456 1.09387 16.6278C1.28209 17.0103 1.6488 17.6018 1.88569 17.8976C2.05769 18.1097 2.64182 18.7044 2.85276 18.8812C3.32656 19.2734 4.04699 19.6816 4.69927 19.9227C6.44193 20.5656 9.71633 20.6717 11.7446 20.151C13.6949 19.6495 15.0871 18.5469 15.9309 16.8367C16.3787 15.9335 16.5961 15.0077 16.5961 14.024C16.5961 12.6803 16.1872 11.6227 15.3467 10.7934C14.7464 10.1955 14.0357 9.81292 13.1173 9.58469C12.9583 9.54611 12.8317 9.50754 12.8317 9.49468C12.8349 9.48503 12.968 9.39503 13.1303 9.29859C13.63 8.99963 13.9351 8.75854 14.3407 8.35351C14.7626 7.93561 14.9638 7.65916 15.2039 7.17697C15.4765 6.6305 15.5901 6.10652 15.5901 5.40253C15.5901 4.10064 15.1293 3.05912 14.1363 2.11725C13.2406 1.26539 11.9231 0.760702 10.0895 0.567828C9.63195 0.519609 7.77246 0.481034 7.46092 0.509966Z" fill="#3979A1"/>
<path d="M25.6989 0.522825C24.9525 0.571044 24.5111 0.625692 23.9465 0.734987C22.7328 0.96965 21.8144 1.38433 20.9869 2.06903C20.0555 2.84374 19.4292 3.97848 19.0787 5.52147C18.9716 5.98759 18.858 6.6305 18.8742 6.64657C18.8807 6.653 19.1988 6.67872 19.5817 6.70765C19.9646 6.73658 20.5358 6.78158 20.8473 6.8073C21.8858 6.89409 23.3591 7.01303 23.6544 7.03232C23.8167 7.04196 24.0243 7.05804 24.1185 7.06768C24.2742 7.08375 24.2872 7.08054 24.2872 7.01625C24.2872 6.91338 24.4138 6.32833 24.5046 6.01973C24.5468 5.86865 24.6539 5.59541 24.7448 5.41218C24.8843 5.13251 24.9492 5.03929 25.1731 4.81427C25.3971 4.58925 25.4879 4.52496 25.7475 4.40281C26.6757 3.96563 27.8245 4.1135 28.5189 4.75962C28.824 5.0425 29.0479 5.40575 29.1452 5.77221C29.2296 6.09688 29.2134 6.61443 29.1063 6.95196C28.811 7.86489 28.1652 8.63317 26.7211 9.77113C26.6951 9.79042 26.5556 9.90293 26.4128 10.0154C26.27 10.1279 25.7735 10.5041 25.3094 10.8512C24.2612 11.6356 23.3623 12.3428 23.0995 12.5935C23.08 12.6096 22.9729 12.706 22.8561 12.8025C22.405 13.1882 22.2362 13.3457 21.6748 13.9083C20.711 14.8726 20.1074 15.6634 19.5655 16.6696C19.2377 17.2804 18.9164 18.0936 18.7282 18.7816C18.6341 19.1223 18.4783 19.9324 18.4783 20.0738V20.1638H34.7367V15.8242H30.5212C28.123 15.8242 26.296 15.8113 26.2862 15.7952C26.27 15.7695 26.8606 15.2005 27.3052 14.8116C27.4578 14.6766 28.2723 14.0658 28.6358 13.8118C28.6974 13.7668 28.8889 13.635 29.0576 13.5161C29.2264 13.3972 29.4892 13.2139 29.6418 13.1111C30.9982 12.1788 32.3482 11.0216 33.0297 10.1987C33.6917 9.40467 34.1883 8.45959 34.4252 7.54665C34.6069 6.84909 34.6426 5.84615 34.516 5.1518C34.2012 3.44165 33.1044 2.0401 31.4785 1.27825C30.6964 0.911788 29.7099 0.680339 28.454 0.571044C27.7596 0.509967 26.2862 0.484251 25.6989 0.522825Z" fill="#3979A1"/>
<path d="M43.4825 1.14324C43.1612 1.30718 42.4894 1.65114 41.9897 1.90188C40.604 2.60587 39.2929 3.26807 38.9879 3.42558L38.7121 3.56702L38.6796 6.15153L36.7163 6.1451V10.0701H38.6893L38.7056 13.1143C38.7218 16.316 38.7315 16.5989 38.8776 17.3832C39.0074 18.1001 39.1826 18.5533 39.5136 19.0291C39.7927 19.4309 40.3054 19.8552 40.7306 20.0385C41.9637 20.5689 44.1412 20.6203 46.6141 20.1799C46.9613 20.1156 47.2566 20.0545 47.2729 20.0385C47.2858 20.0256 47.2826 19.8777 47.2664 19.7106C47.0035 17.2996 46.9029 16.3899 46.8899 16.3771C46.8834 16.3706 46.8088 16.3899 46.7212 16.4189C46.6368 16.4478 46.3837 16.5185 46.1598 16.5732C45.806 16.6599 45.6957 16.6728 45.2998 16.6728C44.8876 16.676 44.8325 16.6696 44.6929 16.6021C44.4755 16.496 44.2873 16.2903 44.2256 16.0974C44.125 15.7663 44.1153 15.477 44.1153 12.7928V10.0701H47.1009L47.0944 8.11563L47.0846 6.16439L45.6081 6.15796L44.1315 6.15475L44.1218 3.49951C44.1185 2.0401 44.1055 0.844283 44.0893 0.844283C44.0763 0.844283 43.8037 0.979295 43.4825 1.14324Z" fill="#3979A1"/>
<path d="M56.3431 5.86222C55.4832 5.91365 54.4187 6.12581 53.7048 6.38941C52.7215 6.75265 51.9005 7.27663 51.1573 8.01276C49.9923 9.16679 49.4017 10.3208 49.1388 11.957C49.0415 12.5646 49.035 13.8118 49.1259 14.3937C49.3757 15.9945 50.0767 17.335 51.2287 18.4119C52.6047 19.6977 54.2305 20.3278 56.5151 20.4563C58.3844 20.5624 60.2276 20.2217 61.5614 19.5209C63.2911 18.6112 64.5664 17.0071 65.0305 15.1555C65.1895 14.5223 65.2382 14.1558 65.2642 13.4293C65.2999 12.2238 65.1441 11.2273 64.7644 10.263C64.6735 10.0315 64.349 9.37252 64.2874 9.29859C64.2679 9.27287 64.2289 9.2118 64.203 9.16358C64.1803 9.11536 64.044 8.91927 63.8979 8.72961C62.5479 6.94553 60.5359 5.99723 57.81 5.859C57.1382 5.82686 56.937 5.82686 56.3431 5.86222ZM57.9008 9.60719C58.8192 9.87078 59.4975 10.6712 59.7246 11.7545C59.835 12.2753 59.8642 12.645 59.8447 13.3586C59.822 14.4001 59.6759 15.0494 59.3352 15.6474C59.0042 16.2292 58.313 16.7178 57.6769 16.8175C57.4043 16.8625 56.8981 16.8625 56.6579 16.8175C56.2133 16.7371 55.7687 16.4992 55.4183 16.1585C55.1392 15.8852 54.9704 15.6313 54.8114 15.2584C54.5907 14.7376 54.5064 14.2844 54.4772 13.5097C54.4415 12.4617 54.568 11.6452 54.8666 11.0248C55.0451 10.6519 55.1229 10.533 55.3663 10.2855C55.785 9.85792 56.2555 9.61362 56.8461 9.5204C57.1122 9.48182 57.5925 9.5204 57.9008 9.60719Z" fill="#3979A1"/>
<path d="M76.9566 5.85901C76.3367 5.9233 75.6195 6.13224 75.0679 6.40548C74.5227 6.67872 74.0164 7.09661 73.4096 7.78775C73.2149 8.00955 73.0429 8.19278 73.0266 8.19921C73.0104 8.20564 72.9974 7.77167 72.9974 7.18019V6.14832H67.9674V25.5H73.4193V22.1569C73.4193 20.3181 73.4258 18.8137 73.4355 18.8137C73.4453 18.8137 73.5459 18.9005 73.6562 19.0034C73.9515 19.283 74.1754 19.4534 74.5227 19.6656C74.7888 19.8263 74.9348 19.9002 75.3177 20.0674C75.9895 20.3567 77.1026 20.5174 78.0015 20.4531C79.4099 20.3535 80.5392 19.8649 81.529 18.9262C82.5642 17.9426 83.1776 16.6246 83.421 14.8566C83.5183 14.1429 83.5281 12.5807 83.4372 11.8863C83.223 10.2533 82.6648 8.8582 81.7886 7.7556C80.9741 6.73337 79.9486 6.14189 78.6019 5.91044C78.2481 5.84936 77.3298 5.82043 76.9566 5.85901ZM76.2621 9.81292C76.6255 9.874 76.9858 10.0862 77.3395 10.4494C77.6348 10.7516 77.8263 11.1277 77.9658 11.6677C78.2287 12.6932 78.1411 14.368 77.7841 15.1845C77.3914 16.091 76.5282 16.5957 75.5871 16.4703C74.4123 16.316 73.6659 15.5123 73.4518 14.1687C73.2408 12.8443 73.4355 11.4588 73.9353 10.7323C74.0424 10.5748 74.3312 10.2951 74.5389 10.1505C75.0192 9.80971 75.5838 9.70041 76.2621 9.81292Z" fill="#3979A1"/>
</svg>
