<svg width="104" height="26" viewBox="0 0 104 26" fill="none" xmlns="http://www.w3.org/2000/svg">
<g clip-path="url(#clip0_3004_25787)">
<path d="M1.40446 1.38054H22.853C23.3525 1.38054 23.7574 1.78496 23.7574 2.28383V6.49623C23.7574 7.05733 23.5136 7.5886 23.0892 7.95624L11.095 17.9772H22.853C23.3525 17.9772 23.7574 18.3743 23.7574 18.8731V23.7091C23.7574 24.208 23.3525 24.6124 22.853 24.6124H1.40446C0.904939 24.6124 0.5 24.208 0.5 23.7091V19.5036C0.5 18.9425 0.743796 18.4112 1.16822 18.0436L13.1624 8.02261H1.40446C0.904939 8.02261 0.5 7.60897 0.5 7.1101V2.28383C0.5 1.78496 0.904939 1.38054 1.40446 1.38054ZM38.7086 0.556641C41.1887 0.556641 43.3997 1.11362 45.2455 2.13146C47.0914 3.1493 48.572 4.628 49.5911 6.47145C50.6103 8.3149 51.168 10.5231 51.168 12.9999C51.168 15.4767 50.6103 17.6849 49.5911 19.5284C48.572 21.3718 47.0914 22.8505 45.2455 23.8684C43.3997 24.8862 41.1887 25.4432 38.7086 25.4432C36.2286 25.4432 34.0176 24.8862 32.1717 23.8684C30.3259 22.8505 28.8453 21.3718 27.8261 19.5284C26.807 17.6849 26.2493 15.4767 26.2493 12.9999C26.2493 10.5231 26.807 8.3149 27.8261 6.47145C28.8453 4.628 30.3259 3.1493 32.1717 2.13146C34.0176 1.11362 36.2286 0.556641 38.7086 0.556641ZM38.7086 7.19306C37.5223 7.19306 36.4808 7.44333 35.6194 7.90867C34.758 8.37402 34.0768 9.05443 33.6108 9.91471C33.1449 10.775 32.8943 11.8151 32.8943 12.9999C32.8943 14.1847 33.1449 15.2249 33.6108 16.0851C34.0768 16.9454 34.758 17.6258 35.6194 18.0912C36.4808 18.5565 37.5223 18.8068 38.7086 18.8068C39.895 18.8068 40.9364 18.5565 41.7978 18.0912C42.6592 17.6258 43.3405 16.9454 43.8064 16.0851C44.2724 15.2249 44.523 14.1847 44.523 12.9999C44.523 11.8151 44.2724 10.775 43.8064 9.91471C43.3405 9.05443 42.6592 8.37402 41.7978 7.90867C40.9364 7.44333 39.895 7.19306 38.7086 7.19306ZM65.2885 0.556641C67.7686 0.556641 69.9796 1.11362 71.8254 2.13146C73.6713 3.1493 75.1519 4.628 76.171 6.47145C77.1902 8.3149 77.7479 10.5231 77.7479 12.9999C77.7479 15.4767 77.1902 17.6849 76.171 19.5284C75.1519 21.3718 73.6713 22.8505 71.8254 23.8684C69.9796 24.8862 67.7686 25.4432 65.2885 25.4432C62.8085 25.4432 60.5975 24.8862 58.7517 23.8684C56.9058 22.8505 55.4252 21.3718 54.4061 19.5284C53.3869 17.6849 52.8292 15.4767 52.8292 12.9999C52.8292 10.5231 53.3869 8.3149 54.4061 6.47145C55.4252 4.628 56.9058 3.1493 58.7517 2.13146C60.5975 1.11362 62.8085 0.556641 65.2885 0.556641ZM65.2885 7.19306C64.1022 7.19306 63.0607 7.44333 62.1994 7.90867C61.338 8.37402 60.6567 9.05443 60.1907 9.91471C59.7248 10.775 59.4742 11.8151 59.4742 12.9999C59.4742 14.1847 59.7248 15.2249 60.1907 16.0851C60.6567 16.9454 61.338 17.6258 62.1994 18.0912C63.0607 18.5565 64.1022 18.8068 65.2885 18.8068C66.4749 18.8068 67.5163 18.5565 68.3777 18.0912C69.2391 17.6258 69.9204 16.9454 70.3864 16.0851C70.8523 15.2249 71.1029 14.1847 71.1029 12.9999C71.1029 11.8151 70.8523 10.775 70.3864 9.91471C69.9204 9.05443 69.2391 8.37402 68.3777 7.90867C67.5163 7.44333 66.4749 7.19306 65.2885 7.19306ZM103.5 2.28671V23.7087C103.5 24.2076 103.095 24.6121 102.595 24.6121H98.3805C97.8187 24.6121 97.2868 24.3686 96.9186 23.9448L86.8847 11.9675V23.7087C86.8847 24.2076 86.4706 24.6121 85.971 24.6121H81.1414C80.6419 24.6121 80.2369 24.2076 80.2369 23.7087V2.28671C80.2369 1.78781 80.6419 1.38337 81.1414 1.38337H85.3564C85.9183 1.38337 86.4501 1.62691 86.8183 2.05088L96.8522 14.0323V2.28671C96.8522 1.78781 97.2497 1.38337 97.7493 1.38337H102.595C103.095 1.38337 103.5 1.78781 103.5 2.28671Z" fill="url(#paint0_linear_3004_25787)"/>
</g>
<defs>
<linearGradient id="paint0_linear_3004_25787" x1="0.5" y1="12.9999" x2="103.5" y2="12.9999" gradientUnits="userSpaceOnUse">
<stop stop-color="#3C3F55"/>
<stop offset="1" stop-color="#6338F5"/>
</linearGradient>
<clipPath id="clip0_3004_25787">
<rect width="103" height="25" fill="white" transform="translate(0.5 0.5)"/>
</clipPath>
</defs>
</svg>
