<svg width="130" height="26" viewBox="0 0 130 26" fill="none" xmlns="http://www.w3.org/2000/svg">
<path d="M4.80664 19.0246C5.57947 19.9947 6.36482 21.2055 6.77603 21.9301C7.27832 22.8825 7.48766 23.529 7.85476 24.6768C8.07988 25.3113 8.28335 25.5 8.72064 25.5C9.19715 25.5 9.41322 25.1782 9.58134 24.6798C9.92838 23.5958 10.2001 22.7686 10.6298 21.9868C11.4724 20.477 12.5198 19.1362 13.5485 17.8482C13.8273 17.4834 15.628 15.3583 16.4388 13.6812C16.4388 13.6812 17.4354 11.8396 17.4354 9.26726C17.4354 6.86104 16.453 5.19141 16.453 5.19141L13.6234 5.94984L11.9049 10.4781L11.4799 11.1017L11.3949 11.2151L11.2815 11.3568L11.0832 11.5836L10.7998 11.8671L9.26964 13.1143L5.44421 15.3237L4.80664 19.0246Z" fill="#34A853"/>
<path d="M0.853516 13.3691C1.78763 15.5026 3.58742 17.3778 4.80646 19.0243L11.2814 11.3565C11.2814 11.3565 10.3702 12.5489 8.71688 12.5489C6.8747 12.5489 5.38711 11.0773 5.38711 9.22268C5.38711 7.95025 6.15244 7.07617 6.15244 7.07617L1.76028 8.25347L0.853516 13.3691Z" fill="#FBBC04"/>
<path d="M11.3521 0.896484C13.5012 1.58908 15.3406 3.04495 16.4527 5.19101L11.2813 11.3564C11.2813 11.3564 12.0463 10.4671 12.0463 9.20207C12.0463 7.30362 10.4481 5.8855 8.72161 5.8855C7.0895 5.8855 6.15234 7.07606 6.15234 7.07606V3.19257L11.3521 0.896484Z" fill="#4285F4"/>
<path d="M2.04395 3.61814C3.32761 2.082 5.58682 0.5 8.70303 0.5C10.2137 0.5 11.3525 0.896854 11.3525 0.896854L6.15274 7.07643H2.46899L2.04395 3.61814Z" fill="#1A73E8"/>
<path d="M0.854144 13.3694C0.854144 13.3694 0 11.6871 0 9.24954C0 6.94529 0.895876 4.93132 2.04428 3.61816L6.15307 7.07646L0.854144 13.3694Z" fill="#EA4335"/>
<path d="M89.2393 20.7308V7.59473H90.9267L95.4932 15.5938H95.5665L100.133 7.59473H101.82V20.7308H100.133V12.9338L100.207 10.7318H100.133L96.0249 17.942H95.0348L90.9267 10.7318H90.8534L90.9267 12.9338V20.7308H89.2393Z" fill="#767676"/>
<path d="M106.747 21.0241C105.794 21.0241 104.996 20.7489 104.354 20.1986C103.712 19.6482 103.392 18.9204 103.392 18.0153C103.392 17.037 103.771 16.2696 104.529 15.713C105.287 15.1565 106.222 14.8782 107.335 14.8782C108.325 14.8782 109.138 15.0617 109.774 15.4286V15.1716C109.774 14.5113 109.547 13.9824 109.095 13.5849C108.643 13.1874 108.086 12.9886 107.426 12.9886C106.937 12.9886 106.494 13.1048 106.097 13.3372C105.699 13.5695 105.427 13.8874 105.281 14.2909L103.74 13.6308C103.948 13.0926 104.357 12.5941 104.969 12.1354C105.58 11.6766 106.387 11.4473 107.389 11.4473C108.539 11.4473 109.492 11.7837 110.25 12.4565C111.008 13.1293 111.387 14.0772 111.387 15.3004V20.7307H109.774V19.4833H109.7C109.028 20.5105 108.043 21.0241 106.747 21.0241ZM107.023 19.4833C107.719 19.4833 108.352 19.2233 108.921 18.7034C109.489 18.1834 109.774 17.5689 109.774 16.8597C109.297 16.4681 108.582 16.2724 107.628 16.2724C106.808 16.2724 106.191 16.4498 105.775 16.8045C105.36 17.1593 105.152 17.5752 105.152 18.0522C105.152 18.4927 105.341 18.8413 105.72 19.0981C106.1 19.3549 106.534 19.4833 107.023 19.4833Z" fill="#767676"/>
<path d="M117.701 21.0241C117.017 21.0241 116.402 20.8773 115.858 20.5838C115.314 20.2902 114.907 19.9234 114.639 19.4833H114.565L114.639 20.7307V24.6936H112.951V11.7412H114.565V12.9886H114.639C114.907 12.5482 115.314 12.1812 115.858 11.8876C116.402 11.5941 117.017 11.4473 117.701 11.4473C118.863 11.4473 119.865 11.906 120.709 12.8235C121.553 13.7409 121.974 14.8784 121.974 16.236C121.974 17.5935 121.553 18.7309 120.709 19.6482C119.865 20.5655 118.863 21.0241 117.701 21.0241ZM117.426 19.4833C118.208 19.4833 118.881 19.1867 119.443 18.5934C120.006 18.0001 120.287 17.2142 120.287 16.2357C120.287 15.2572 120.006 14.4714 119.443 13.8783C118.881 13.2852 118.208 12.9886 117.426 12.9886C116.631 12.9886 115.956 13.2822 115.4 13.8693C114.843 14.4565 114.565 15.2454 114.565 16.236C114.565 17.2266 114.843 18.0155 115.4 18.6026C115.956 19.1897 116.631 19.4833 117.426 19.4833Z" fill="#767676"/>
<path d="M126.46 21.0241C125.458 21.0241 124.629 20.7795 123.975 20.2904C123.321 19.8012 122.841 19.1897 122.535 18.4559L124.039 17.8322C124.516 18.9572 125.329 19.5197 126.479 19.5197C127.004 19.5197 127.435 19.4035 127.772 19.1712C128.108 18.9388 128.276 18.633 128.276 18.2538C128.276 17.6667 127.866 17.2691 127.047 17.0612L125.231 16.6212C124.657 16.4745 124.113 16.1962 123.599 15.7864C123.086 15.3765 122.829 14.8232 122.829 14.1263C122.829 13.3313 123.18 12.686 123.883 12.1905C124.586 11.695 125.421 11.4473 126.387 11.4473C127.182 11.4473 127.891 11.6277 128.514 11.9887C129.138 12.3496 129.584 12.8664 129.853 13.539L128.386 14.1442C128.056 13.3492 127.371 12.9517 126.331 12.9517C125.83 12.9517 125.409 13.0556 125.066 13.2635C124.724 13.4714 124.553 13.7529 124.553 14.1078C124.553 14.6215 124.95 14.9701 125.745 15.1537L127.524 15.5753C128.367 15.7709 128.991 16.1072 129.394 16.5842C129.798 17.0612 130 17.5995 130 18.1989C130 19.0063 129.67 19.679 129.009 20.217C128.349 20.7551 127.499 21.0241 126.46 21.0241Z" fill="#767676"/>
<path d="M39.1412 12.8796H32.2217V14.9335H37.129C36.8865 17.8138 34.4911 19.0421 32.23 19.0421C29.3371 19.0421 26.8127 16.7652 26.8127 13.5738C26.8127 10.4648 29.2191 8.07051 32.2363 8.07051C34.5642 8.07051 35.9359 9.55501 35.9359 9.55501L37.3736 8.06573C37.3736 8.06573 35.5283 6.01074 32.1629 6.01074C27.8778 6.01074 24.5625 9.62897 24.5625 13.5371C24.5625 17.3667 27.6811 21.1011 32.2723 21.1011C36.3105 21.1011 39.2664 18.3338 39.2664 14.2418C39.2664 13.3785 39.1412 12.8796 39.1412 12.8796Z" fill="#767676"/>
<path d="M44.8095 11.3926C41.9703 11.3926 39.9355 13.613 39.9355 16.2028C39.9355 18.8308 41.9091 21.0926 44.8428 21.0926C47.4987 21.0926 49.6744 19.062 49.6744 16.2593C49.6744 13.047 47.1435 11.3926 44.8095 11.3926ZM44.8377 13.2977C46.234 13.2977 47.557 14.4268 47.557 16.2464C47.557 18.0274 46.2395 19.1888 44.8313 19.1888C43.2839 19.1888 42.0633 17.9491 42.0633 16.2323C42.0633 14.5524 43.2688 13.2977 44.8377 13.2977Z" fill="#767676"/>
<path d="M55.4101 11.3926C52.5709 11.3926 50.5361 13.613 50.5361 16.2028C50.5361 18.8308 52.5097 21.0926 55.4434 21.0926C58.0993 21.0926 60.275 19.062 60.275 16.2593C60.275 13.047 57.7441 11.3926 55.4101 11.3926ZM55.4383 13.2977C56.8346 13.2977 58.1576 14.4268 58.1576 16.2464C58.1576 18.0274 56.8401 19.1888 55.4319 19.1888C53.8845 19.1888 52.6638 17.9491 52.6638 16.2323C52.6638 14.5524 53.8694 13.2977 55.4383 13.2977Z" fill="#767676"/>
<path d="M65.8068 11.3975C63.2008 11.3975 61.1523 13.6808 61.1523 16.2436C61.1523 19.1629 63.5272 21.0988 65.7619 21.0988C67.1437 21.0988 67.8785 20.5501 68.4209 19.9203V20.8767C68.4209 22.55 67.4053 23.552 65.8723 23.552C64.3914 23.552 63.6485 22.4504 63.3904 21.8254L61.5271 22.6046C62.1881 24.0028 63.5188 25.461 65.8877 25.461C68.4787 25.461 70.4536 23.8283 70.4536 20.4042V11.6889H68.4209V12.5105C67.7963 11.8368 66.9416 11.3975 65.8068 11.3975ZM65.9955 13.2987C67.2732 13.2987 68.5852 14.3901 68.5852 16.2539C68.5852 18.1483 67.276 19.1924 65.9672 19.1924C64.5779 19.1924 63.2852 18.0639 63.2852 16.2719C63.2852 14.4098 64.6278 13.2987 65.9955 13.2987Z" fill="#767676"/>
<path d="M79.492 11.3857C77.0338 11.3857 74.9697 13.3423 74.9697 16.2293C74.9697 19.2842 77.2704 21.096 79.7282 21.096C81.7795 21.096 83.0384 19.9734 83.7898 18.9676L82.1138 17.852C81.6789 18.5272 80.9518 19.1871 79.7384 19.1871C78.3754 19.1871 77.7487 18.4405 77.3605 17.7172L83.8616 15.0188L83.5241 14.2279C82.8958 12.6793 81.4307 11.3857 79.492 11.3857ZM79.5767 13.251C80.4625 13.251 81.1 13.7221 81.3708 14.287L77.0294 16.1022C76.8422 14.6969 78.1732 13.251 79.5767 13.251Z" fill="#767676"/>
<path d="M71.8701 20.8076H74.0055V6.51172H71.8701V20.8076Z" fill="#767676"/>
</svg>
