<svg width="100" height="100" viewBox="0 0 100 100" fill="none" xmlns="http://www.w3.org/2000/svg">
<path d="M77.2088 71.1594C77.2088 71.1594 77.0921 71.1594 77.0421 71.1594C76.1255 71.044 75.4588 70.1019 75.5588 69.0444C75.8088 66.1988 75.9255 63.2763 75.9255 60.3153C75.9255 53.3936 77.9588 48.9906 80.1422 45.2605C80.6589 44.3761 81.6922 44.1454 82.4589 44.7414C83.2256 45.3374 83.4256 46.5295 82.9089 47.414C80.7255 51.1248 79.2588 54.7587 79.2588 60.3153C79.2588 63.3917 79.1255 66.468 78.8755 69.429C78.7922 70.4288 78.0588 71.1594 77.2255 71.1594H77.2088Z" fill="#E9F4ED"/>
<path d="M66.8586 100C63.0086 100 62.0085 93.5013 60.6085 84.5222C58.9418 73.832 56.8751 60.5076 49.9917 60.5076C43.1082 60.5076 41.0415 73.8127 39.3748 84.5222C37.9748 93.5205 36.9748 100 33.1247 100C26.7579 100 20.7245 80.7153 20.7245 60.3153C20.7245 54.7587 19.2745 51.144 17.0744 47.414C16.5578 46.5295 16.7578 45.3374 17.5244 44.7414C18.2911 44.1454 19.3245 44.3761 19.8411 45.2605C22.0412 48.9906 24.0579 53.3936 24.0579 60.3153C24.0579 81.8689 30.508 96.1546 33.1247 96.1546C34.2747 95.5586 35.3747 88.5022 36.0914 83.83C37.9748 71.717 40.3082 56.6622 49.9917 56.6622C59.6752 56.6622 62.0085 71.7362 63.8919 83.83C64.6253 88.5022 65.7086 95.5586 66.892 96.1546C68.4753 96.1546 72.4587 89.5982 74.6088 76.5622C74.7754 75.5239 75.6588 74.8318 76.5588 75.024C77.4588 75.2163 78.0588 76.2353 77.8921 77.2736C76.0255 88.5791 71.892 99.9808 66.8753 99.9808L66.8586 100Z" fill="#E9F4ED"/>
<path d="M12.7577 21.3421C12.591 21.3421 12.4243 21.3036 12.2577 21.2459C11.3743 20.9191 10.891 19.8423 11.1743 18.8233C14.591 6.47952 24.0245 0 31.5913 0C37.4081 0 39.6582 1.49971 41.6249 2.84561C43.3915 4.03769 45.0749 5.15286 49.9917 5.15286C54.9084 5.15286 56.5751 4.03769 58.3585 2.84561C60.3418 1.51894 62.5752 0 68.392 0C75.9588 0 85.409 6.4603 88.809 18.8233C89.0924 19.8423 88.609 20.9191 87.7257 21.2459C86.8423 21.5728 85.909 21.0152 85.6256 19.9962C82.7256 9.5174 74.5754 3.86464 68.3753 3.86464C63.4586 3.86464 61.7919 4.97981 60.0085 6.17189C58.0251 7.49856 55.7918 9.0175 49.975 9.0175C44.1582 9.0175 41.9082 7.51779 39.9415 6.17189C38.1748 4.97981 36.4914 3.86464 31.5747 3.86464C25.3746 3.86464 17.2244 9.5174 14.3244 19.9962C14.091 20.8229 13.441 21.3421 12.741 21.3421H12.7577Z" fill="#E9F4ED"/>
<path d="M61.6585 50.0096H38.3248C35.5748 50.0096 33.3247 47.414 33.3247 44.2415V28.8598C33.3247 25.6874 35.5748 23.0917 38.3248 23.0917H61.6585C64.4086 23.0917 66.6586 25.6874 66.6586 28.8598V44.2415C66.6586 47.414 64.4086 50.0096 61.6585 50.0096ZM38.3248 26.9371C37.4081 26.9371 36.6581 27.8023 36.6581 28.8598V44.2415C36.6581 45.299 37.4081 46.1642 38.3248 46.1642H61.6585C62.5752 46.1642 63.3252 45.299 63.3252 44.2415V28.8598C63.3252 27.8023 62.5752 26.9371 61.6585 26.9371H38.3248Z" fill="#F1F8EE"/>
<path d="M28.3246 32.3976C28.3246 32.3976 28.2413 32.3976 28.1913 32.3976C24.8912 32.1092 21.5245 31.5901 18.1744 30.8402C12.6577 29.5905 7.14092 27.7062 1.74083 25.2259L1.04081 24.8991C0.1908 24.4953 -0.225874 23.3801 0.124132 22.3995C0.474138 21.419 1.44082 20.9383 2.29084 21.3421L2.99085 21.6689C8.19094 24.0531 13.5077 25.8796 18.8245 27.0909C22.0578 27.8216 25.2912 28.3215 28.458 28.5907C29.3746 28.6676 30.058 29.5905 29.9913 30.648C29.9247 31.6478 29.1913 32.4168 28.3246 32.4168V32.3976Z" fill="#F1F8EE"/>
<path d="M28.3246 42.0112C28.3246 42.0112 28.2413 42.0112 28.1913 42.0112C19.2245 41.2036 10.3243 38.781 1.74083 34.8202L1.04081 34.4934C0.1908 34.0896 -0.225874 32.9744 0.124132 31.9938C0.474138 31.0133 1.44082 30.5326 2.29084 30.9364L2.99085 31.2632C11.2577 35.0894 19.8245 37.4159 28.458 38.185C29.3746 38.2619 30.058 39.1848 29.9913 40.2423C29.9247 41.2421 29.1913 42.0112 28.3246 42.0112Z" fill="#F1F8EE"/>
<path d="M71.6587 32.3976C70.792 32.3976 70.0587 31.6285 69.992 30.6287C69.9253 29.5712 70.6087 28.6483 71.5254 28.5714C74.6921 28.3023 77.9422 27.7831 81.1755 27.0717C86.4756 25.8796 91.8091 24.0531 97.0091 21.6497L97.7092 21.3228C98.5592 20.9191 99.5259 21.3997 99.8759 22.3803C100.226 23.3609 99.8092 24.4761 98.9592 24.8798L98.2592 25.2067C92.8591 27.687 87.3256 29.5905 81.8256 30.821C78.4588 31.5709 75.0921 32.1092 71.792 32.3976C71.742 32.3976 71.7087 32.3976 71.6587 32.3976Z" fill="#F1F8EE"/>
<path d="M71.6587 42.0112C70.792 42.0112 70.0587 41.2421 69.992 40.2423C69.9253 39.1848 70.6087 38.2619 71.5254 38.185C80.1588 37.4159 88.7257 35.0894 97.0091 31.2632L97.7092 30.9364C98.5592 30.5326 99.5259 31.0133 99.8759 31.9938C100.226 32.9744 99.8092 34.0896 98.9592 34.4934L98.2592 34.8202C89.659 38.781 80.7589 41.2036 71.792 42.0112C71.742 42.0112 71.7087 42.0112 71.6587 42.0112Z" fill="#F1F8EE"/>
<path d="M43.3249 42.3188C42.4082 42.3188 41.6582 41.4536 41.6582 40.3961V32.7053C41.6582 31.6478 42.4082 30.7825 43.3249 30.7825C44.2416 30.7825 44.9916 31.6478 44.9916 32.7053V40.3961C44.9916 41.4536 44.2416 42.3188 43.3249 42.3188Z" fill="#F1F8EE"/>
<path d="M56.6584 42.3188C55.7418 42.3188 54.9917 41.4536 54.9917 40.3961V32.7053C54.9917 31.6478 55.7418 30.7825 56.6584 30.7825C57.5751 30.7825 58.3251 31.6478 58.3251 32.7053V40.3961C58.3251 41.4536 57.5751 42.3188 56.6584 42.3188Z" fill="#F1F8EE"/>
</svg>
