<svg width="100" height="103" viewBox="0 0 100 103" fill="none" xmlns="http://www.w3.org/2000/svg">
<path d="M95.0534 0H4.94664C2.21901 0 0 2.22057 0 4.95013V71.9172C0 74.6468 2.21901 76.8674 4.94664 76.8674H34.2389C36.4207 82.8489 36.4623 87.8814 34.3639 92.1955H32.7813C26.0173 92.1955 26.0175 102.439 32.7813 102.439H67.2187C73.9828 102.439 73.9825 92.1955 67.2187 92.1955H65.636C63.5377 87.8814 63.5792 82.8489 65.7611 76.8674H95.0534C97.781 76.8674 100 74.6468 100 71.9172C100 69.6842 100 7.18484 100 4.95013C100 2.22057 97.781 0 95.0534 0ZM2.99903 4.95013C2.99903 3.8755 3.87277 3.00114 4.94664 3.00114H95.0534C96.1272 3.00114 97.001 3.8755 97.001 4.95013V65.0791H2.99903V4.95013ZM67.2187 99.4379H32.7813C29.9811 99.4379 29.9802 95.1966 32.7813 95.1966H67.2187C70.0189 95.1966 70.0198 99.4379 67.2187 99.4379ZM62.3671 92.1955H37.6329C39.3743 87.7259 39.302 82.5882 37.4135 76.8674H62.5865C60.698 82.5882 60.6257 87.7259 62.3671 92.1955ZM97.001 71.9172C97.001 72.9919 96.1272 73.8662 95.0534 73.8662H4.94664C3.87277 73.8662 2.99903 72.9919 2.99903 71.9172V68.0802H97.001V71.9172Z" fill="#E9F4ED"/>
<path d="M86.4988 40.4344H76.9159C75.1751 40.4344 75.1733 37.7978 76.9159 37.7978H86.4988C88.2396 37.7978 88.2414 40.4344 86.4988 40.4344ZM86.4988 45.7419H71.1904C69.4496 45.7419 69.4478 43.1053 71.1904 43.1053H86.4988C88.2396 43.1053 88.2414 45.7419 86.4988 45.7419ZM86.4988 51.0493H71.1904C69.4496 51.0493 69.4478 48.4126 71.1904 48.4126H86.4988C88.2396 48.4126 88.2414 51.0493 86.4988 51.0493ZM34.3659 47.6889H13.5127C12.7851 47.6889 12.1953 48.279 12.1953 49.0072V57.6921C12.1953 58.4202 12.7851 59.0104 13.5127 59.0104H34.3659C35.0934 59.0104 35.6833 58.4202 35.6833 57.6921V49.0072C35.6833 48.279 35.0934 47.6889 34.3659 47.6889ZM33.0485 56.3737H14.8301V50.3255H33.0485V56.3737ZM13.5127 41.2356H26.4405C28.1813 41.2356 28.1831 43.8722 26.4405 43.8722H13.5127C11.7719 43.8722 11.7701 41.2356 13.5127 41.2356ZM24.9553 16.2331C24.9553 7.79691 12.1953 7.7938 12.1953 16.2331C12.1953 24.6693 24.9553 24.6721 24.9553 16.2331ZM22.3205 16.2331C22.3205 21.186 14.8301 21.186 14.8301 16.2331C14.8301 11.2803 22.3205 11.2801 22.3205 16.2331Z" fill="#EFF8EE"/>
<path d="M61.8651 17.6895C61.1373 18.1913 60.504 18.6612 59.8654 18.9222C58.3609 19.3824 56.805 19.011 55.9041 17.7832C55.5005 17.2225 55.2117 16.4874 54.8597 15.6751C51.559 8.60349 42.8076 10.201 39.7036 14.7521C37.0952 18.0166 35.5593 23.1568 35.8031 29.8813C35.787 30.7989 37.1129 30.5805 37.1384 29.8746C36.8963 23.3615 38.3996 18.5201 40.7429 15.5874C44.1936 11.6123 51.1122 10.4347 53.6335 16.2084C53.8715 16.7576 54.1015 17.3291 54.4036 17.8817C53.4207 17.4606 52.3646 16.953 51.4511 16.3803C50.6639 15.968 50.2348 17.0774 50.7788 17.4545C52.5569 18.6674 57.3122 21.3676 60.3673 20.1574C61.2224 19.8079 61.9213 19.2738 62.6196 18.7923C67.3334 15.7013 73.1394 19.249 73.8796 25.1156C74.3257 28.9212 72.9924 33.9452 69.1784 39.4653C65.1504 45.2951 62.8103 48.9726 61.0954 50.9728C59.9261 52.4016 58.4941 53.2436 56.9046 52.7992C55.6605 52.4415 55.1486 51.7081 54.8445 50.5692C54.195 47.6139 55.0337 44.6419 54.5447 41.8464C53.9352 38.549 50.5898 37.6215 48.3021 40.0514C46.28 42.278 45.5267 45.2842 43.4382 47.2894C42.5785 48.0937 41.758 48.4439 40.5139 48.0862C38.6398 47.5398 38.1571 45.7948 37.9239 44.3099C37.5716 41.9982 37.4779 37.9751 37.2324 32.2303C37.2469 31.4071 35.9207 31.1979 35.9014 32.3028C36.1504 38.1385 36.2189 41.9922 36.6026 44.5103C36.9383 46.8533 38.0052 48.7536 40.147 49.3694C41.8179 49.8499 43.2728 49.2743 44.3493 48.2671C46.5829 46.1366 47.3203 43.1522 49.2825 40.9574C50.9563 39.2681 52.8682 40.2114 53.2344 42.0938C53.6686 45.0863 52.8518 48.15 53.5552 50.9142C53.9359 52.3404 54.8668 53.602 56.5377 54.0824C58.9563 54.7779 60.7548 53.4118 62.1101 51.8448C63.9572 49.6904 66.2588 46.0358 70.2743 40.224C74.2204 34.5128 75.7047 29.2054 75.2071 24.9609C74.3912 18.2232 67.737 14.0067 61.8651 17.6895Z" fill="#EFF8EE"/>
</svg>
