<svg width="100" height="100" viewBox="0 0 100 100" fill="none" xmlns="http://www.w3.org/2000/svg">
<path d="M95.1805 86.0145L90.9748 84.1318V52.3756C90.9748 52.2135 90.9469 52.0584 90.8981 51.9135C91.9181 50.8189 92.5472 49.3333 92.5472 47.6979V47.3039C92.5472 45.7113 91.9498 44.2604 90.9748 43.1755V29.3647C90.9748 13.1729 76.9534 0 59.7189 0C42.4845 0 28.4631 13.1729 28.4631 29.3647V48.5434H28.4752C28.0783 50.5254 27.8046 52.8169 27.7711 55.4184C27.6629 63.9208 33.4014 74.1136 37.0645 80.2813L24.256 86.0151C21.288 87.3477 19.4442 90.2499 19.4442 93.5885V98.5917C19.4442 99.3693 20.0551 99.9996 20.8089 99.9996C21.5627 99.9996 22.1737 99.3693 22.1737 98.5917V93.5885C22.1737 91.3547 23.3594 89.4888 25.3441 88.5977L38.5093 82.7042C38.8581 83.2931 39.142 83.783 39.344 84.1615C40.6185 86.5626 36.9197 92.4047 34.9325 95.5432C34.3646 96.4403 33.8742 97.2147 33.4959 97.8779C33.1137 98.5481 33.3305 99.4111 33.9804 99.8052C34.6301 100.2 35.4665 99.9758 35.8487 99.3056C36.1945 98.6991 36.6687 97.9502 37.2178 97.0829C39.9949 92.6968 43.7981 86.6898 41.7367 82.8067C41.3835 82.1442 40.844 81.242 40.161 80.0994C36.991 74.7976 30.3947 63.7651 30.5006 55.4556C30.5808 49.2205 32.1321 44.9863 33.281 42.6926C34.2599 42.8194 34.9348 43.2169 35.5561 43.9947C35.7123 44.1906 35.8423 44.3936 35.9542 44.6014V49.0802C35.8415 49.7875 35.7383 50.5009 35.6479 51.2027C35.6471 51.2083 35.6458 51.2136 35.645 51.2192C35.4207 52.96 35.2853 54.5283 35.2734 55.5206C35.2025 60.9314 38.2598 67.0504 41.5743 72.8569C41.8287 73.3027 42.2841 73.5506 42.7516 73.5506C42.9868 73.5506 43.2254 73.4878 43.4428 73.3558C44.0923 72.9611 44.3087 72.0983 43.9263 71.4281C40.9626 66.2359 37.9409 60.2899 38.0027 55.5571C38.0103 54.9196 38.082 53.957 38.2005 52.858H38.8747C40.4514 52.858 41.7874 53.8581 42.2782 55.4063C43.8563 60.3793 46.729 65.4651 49.2639 69.9522C50.0447 71.3346 50.7822 72.6403 51.4088 73.8191C54.7767 80.1493 51.9088 90.4291 48.1016 97.9389C47.7523 98.6279 48.0106 99.4786 48.6785 99.8387C48.8805 99.9477 49.0967 99.9994 49.3098 99.9994C49.8016 99.9994 50.2768 99.7242 50.5204 99.2436C51.7715 96.7759 52.8135 94.2694 53.6251 91.8017C55.6225 92.1271 57.6667 92.2942 59.7197 92.2942C64.2526 92.2942 68.6768 91.4976 72.5967 89.9874C74.4122 92.7228 77.4597 94.5217 80.9076 94.5217H89.6109C90.3645 94.5217 90.9756 93.8915 90.9756 93.1139V87.2013L94.0932 88.5969C96.0826 89.4902 97.2705 91.3561 97.2705 93.5883V98.5915C97.2705 99.3691 97.8814 99.9994 98.6352 99.9994C99.3889 99.9994 100 99.3691 100 98.5915V93.5883C99.9992 90.2513 98.1532 87.3493 95.1805 86.0145ZM83.4841 44.0397H86.6537C88.3983 44.0397 89.8179 45.5039 89.8179 47.3039V47.6979C89.8179 49.5009 88.3985 50.9677 86.6537 50.9677H83.4841V44.0397ZM32.4963 39.8307C32.0094 39.8307 31.5591 40.0984 31.3151 40.5332C31.275 40.6047 31.2341 40.6785 31.1924 40.755V29.3647C31.1924 14.7255 43.9893 2.81554 59.7189 2.81554C75.4485 2.81554 88.2455 14.7255 88.2455 29.3647V41.4513C87.7389 41.3043 87.2054 41.2242 86.6537 41.2242H83.4841V38.0574C83.4841 37.4378 83.0915 36.8912 82.517 36.7105C75.4806 34.5002 68.6187 29.3528 64.161 22.9414C63.9236 22.5997 63.5504 22.3857 63.1438 22.3572C62.7363 22.3283 62.3395 22.4898 62.0596 22.7957C56.1957 29.204 46.3298 35.1088 37.5051 33.8528C37.1141 33.7964 36.7193 33.9188 36.4219 34.186C36.1244 34.4535 35.9538 34.8405 35.9538 35.2473V40.6874C34.9814 40.1095 33.8476 39.8307 32.4963 39.8307ZM51.6216 68.5346C49.1552 64.1683 46.3598 59.2195 44.8719 54.5308C44.0073 51.8043 41.6532 50.0425 38.8743 50.0425H38.6833V49.3119C38.7778 48.7307 38.8784 48.1562 38.9837 47.6016C39.2297 46.3282 39.1238 45.0988 38.6833 43.9665V36.7981C39.0896 36.8227 39.4972 36.8346 39.9054 36.8346C48.3318 36.8342 57.1096 31.7238 62.9123 25.9118C67.4839 31.9014 74.0006 36.7184 80.7548 39.0825V54.8883C80.7548 66.8536 71.3183 76.5884 59.7191 76.5884C58.1747 76.5884 56.6335 76.4087 55.1256 76.0571C54.8227 74.757 54.3826 73.5571 53.8014 72.4647C53.1579 71.2547 52.4118 69.9334 51.6216 68.5346ZM59.7189 89.4791C57.9379 89.4791 56.165 89.3444 54.4288 89.0812C54.7505 87.8516 55.0121 86.6387 55.2059 85.4541C55.5853 83.1334 55.7039 80.9856 55.5648 79.02C56.9358 79.2733 58.326 79.4044 59.7191 79.4044C63.7342 79.4044 67.5191 78.3703 70.839 76.5494V84.1306C70.839 85.2928 71.0277 86.4098 71.3701 87.4541C67.821 88.7804 63.824 89.4791 59.7189 89.4791ZM80.9068 91.7066C76.8603 91.7066 73.5681 88.308 73.5681 84.1304V74.799C79.5687 70.3446 83.4839 63.0798 83.4839 54.8885V53.7832H88.2453V91.7064L80.9068 91.7066Z" fill="#F1F8EE"/>
<path d="M27.5554 80.4529C27.737 81.0565 28.2764 81.4437 28.8584 81.4437C28.9924 81.4437 29.1288 81.4233 29.2634 81.3799C29.9832 81.1495 30.3857 80.3606 30.1623 79.6181L26.4862 67.4015C26.3578 66.9751 26.0412 66.6366 25.6324 66.4894C25.2236 66.3427 24.7717 66.404 24.414 66.6556L15.6246 72.8366L19.4418 64.0179C19.6211 63.6036 19.596 63.1256 19.3741 62.7337C19.1522 62.3419 18.761 62.0845 18.3232 62.0421L6.7609 60.9239L16.1005 56.7211C16.4939 56.5443 16.7837 56.1865 16.8827 55.7555C16.9818 55.3245 16.8786 54.8709 16.6041 54.5306L10.6883 47.1934L20.4672 50.1675C20.8379 50.2801 21.2367 50.2258 21.5659 50.0177C21.895 49.8097 22.1234 49.4678 22.1944 49.0763L24.6527 35.5463C24.7917 34.782 24.3036 34.0464 23.5627 33.9032C22.8218 33.7607 22.1089 34.2634 21.97 35.0277L19.7901 47.0259L7.15444 43.1832C6.57734 43.0078 5.95837 43.2417 5.62843 43.76C5.2981 44.2778 5.33508 44.9575 5.71923 45.4337L13.3434 54.8897L0.819076 60.5254C0.248631 60.7822 -0.0813076 61.4046 0.0173216 62.0385C0.115755 62.6726 0.617708 63.1575 1.23747 63.2174L16.1737 64.6621L11.1695 76.2234C10.9207 76.7983 11.072 77.4738 11.5405 77.8776C12.0086 78.2813 12.6798 78.3156 13.1845 77.9605L24.4265 70.0545L27.5554 80.4529Z" fill="#E9F4ED"/>
</svg>
