<svg width="100" height="100" viewBox="0 0 100 100" fill="none" xmlns="http://www.w3.org/2000/svg">
<path d="M1.36772 63.4426H10.6835C14.3901 63.4426 17.6394 62.1469 20.3399 59.5923C21.8599 58.1575 23.832 56.8543 26.2168 55.7032C26.0768 57.3128 25.8371 59.1888 25.4941 61.4285C24.5433 67.6361 25.4388 73.069 28.1556 77.5765C30.5887 81.6135 34.5016 84.933 39.7833 87.4424C40.616 87.8399 41.5789 87.7272 42.2959 87.1485C43.0168 86.5665 43.3296 85.6442 43.1123 84.7403C42.5093 82.2409 42.1904 79.4184 42.1904 76.5778C42.1904 71.6988 43.0965 67.1342 44.7417 63.7254C46.2124 60.678 48.1288 58.9303 49.9998 58.9303C51.8686 58.9303 53.7845 60.678 55.2559 63.7256C56.9026 67.1358 57.8094 71.7001 57.8094 76.5778C57.8094 79.4033 57.4888 82.2258 56.8818 84.7413C56.6645 85.6442 56.9775 86.5669 57.6984 87.1485C58.1316 87.4982 58.6543 87.6777 59.1834 87.6777C59.5303 87.6777 59.88 87.6004 60.2089 87.4434C65.4923 84.9332 69.4054 81.6137 71.8393 77.5767C74.5565 73.0696 75.4537 67.6367 74.5057 61.4285C74.1629 59.1888 73.923 57.313 73.783 55.7036C76.1627 56.8531 78.1331 58.1563 79.6544 59.5923C82.3614 62.1473 85.6103 63.4426 89.3108 63.4426H98.6323C99.3875 63.4426 100 62.8316 100 62.0778C100 61.324 99.3877 60.713 98.6323 60.713H89.3108C86.2906 60.713 83.7468 59.6978 81.5342 57.6093C79.5257 55.7134 76.8703 54.0416 73.6347 52.6318C73.6383 48.0913 74.8771 46.0566 77.22 42.211C77.4288 41.8684 77.6457 41.5122 77.8701 41.1408C80.3406 37.0562 81.428 32.6169 81.0152 28.3028C80.6324 24.303 78.9491 20.6077 76.2756 17.8969C70.3086 11.8484 64.447 13.5595 59.2768 15.0695C57.8814 15.476 56.7212 15.8272 55.6976 16.1372C49.9425 17.8801 49.9425 17.8801 44.3365 16.1601C43.3073 15.8443 42.1408 15.4861 40.7279 15.0707C35.5648 13.548 29.7128 11.8214 23.7183 17.8977C21.0471 20.609 19.3649 24.3042 18.9814 28.3024C18.5676 32.6177 19.6543 37.057 22.1244 41.141C22.3488 41.5118 22.5653 41.8668 22.774 42.2087C25.1205 46.0551 26.3612 48.0899 26.3651 52.632C23.1238 54.0439 20.4664 55.716 18.4594 57.6105C16.2523 59.6984 13.7088 60.7132 10.6837 60.7132H1.36772C0.612475 60.7132 0 61.3242 0 62.078C0 62.8316 0.612475 63.4426 1.36772 63.4426ZM25.1105 40.7895C24.9036 40.4504 24.6887 40.0983 24.4663 39.7306C19.6255 31.7275 21.5822 23.9595 25.6681 19.812C28.1876 17.2582 30.5126 16.3535 33.0962 16.3535C35.1445 16.3535 37.3553 16.9221 39.9533 17.6887C41.3518 18.1 42.5103 18.4556 43.5324 18.7691C49.8174 20.6977 50.0596 20.6973 56.4919 18.7494C57.509 18.4413 58.6617 18.092 60.044 17.6895C65.9316 15.9707 69.8312 15.2556 74.3262 19.8118C78.4143 23.9568 80.3716 31.7232 75.5278 39.7312C75.3051 40.1001 75.0899 40.4533 74.8826 40.7934C72.2003 45.1958 70.7467 47.5831 70.9259 53.5526C70.9259 53.5598 70.9263 53.567 70.9265 53.5743C70.9934 55.7592 71.2784 58.4232 71.8016 61.8406C73.3778 72.1632 69.3105 79.8328 59.709 84.6495C60.2638 82.1004 60.5449 79.389 60.5449 76.5782C60.5449 65.152 55.9129 56.2011 50 56.2011C46.9933 56.2011 44.2506 58.4528 42.2775 62.5412C40.4575 66.3123 39.4553 71.2972 39.4553 76.5782C39.4553 79.4019 39.7344 82.1133 40.2857 84.6497C30.6842 79.834 26.6175 72.1635 28.1984 61.8412C28.721 58.4271 29.006 55.7647 29.0731 53.5807C29.0733 53.5704 29.0739 53.56 29.0739 53.5494C29.2521 47.5795 27.7963 45.1921 25.1105 40.7895Z" fill="#E9F4ED"/>
<path d="M98.6323 97.2704H1.36772C0.612475 97.2704 0 97.8814 0 98.6352C0 99.389 0.612279 100 1.36772 100H98.6323C99.3875 100 100 99.389 100 98.6352C100 97.8814 99.3875 97.2704 98.6323 97.2704Z" fill="#E9F4ED"/>
<path d="M24.6185 10.8386C24.8716 11.2767 25.3315 11.5216 25.8044 11.5216C26.0362 11.5216 26.2711 11.4628 26.4865 11.3388C27.1407 10.9623 27.3655 10.1278 26.9879 9.47477L23.3592 3.19629C22.9818 2.54325 22.1454 2.31899 21.4912 2.6959C20.8369 3.07241 20.6122 3.90686 20.9897 4.55989L24.6185 10.8386Z" fill="#E9F4ED"/>
<path d="M8.29068 18.2257L14.5827 21.8519C14.7981 21.9762 15.0334 22.0351 15.2656 22.0351C15.738 22.0351 16.1977 21.7905 16.4511 21.3529C16.8289 20.7002 16.6049 19.8656 15.9508 19.4885L9.6586 15.8621C9.00474 15.4855 8.1683 15.7088 7.79019 16.3613C7.41246 17.0139 7.63643 17.8486 8.29068 18.2257Z" fill="#E9F4ED"/>
<path d="M4.1475 36.3967H11.416C12.1713 36.3967 12.7837 35.7858 12.7837 35.032C12.7837 34.2782 12.1715 33.6672 11.416 33.6672H4.1475C3.39225 33.6672 2.77977 34.2782 2.77977 35.032C2.77997 35.7858 3.39225 36.3967 4.1475 36.3967Z" fill="#E9F4ED"/>
<path d="M33.2918 38.8157C33.4804 39.369 34.0011 39.7408 34.5865 39.7408C35.1721 39.7408 35.6926 39.3688 35.8813 38.8157C37.0588 35.3635 39.2141 33.2036 42.4703 32.2128C43.0459 32.0376 43.4391 31.5079 43.4391 30.9073C43.4391 30.3067 43.0459 29.777 42.4703 29.6018C39.2125 28.6106 37.0574 26.4525 35.8813 23.0044C35.6926 22.4511 35.1721 22.0793 34.5865 22.0793C34.0011 22.0793 33.4804 22.4513 33.2918 23.0044C32.1151 26.4539 29.9617 28.6118 26.7081 29.6018C26.1325 29.777 25.7393 30.3067 25.7393 30.9073C25.7393 31.5079 26.1325 32.0376 26.7081 32.2128C29.9601 33.2022 32.1137 35.3623 33.2918 38.8157ZM34.5865 26.7257C35.633 28.4899 37.009 29.8871 38.7046 30.9079C37.0092 31.929 35.6334 33.3275 34.5865 35.0934C33.5402 33.3273 32.1655 31.9286 30.472 30.9079C32.1658 29.8873 33.5406 28.4899 34.5865 26.7257Z" fill="#E9F4ED"/>
<path d="M73.3525 12.0262C77.5508 13.3088 80.3253 16.0881 81.8348 20.5225C82.0233 21.076 82.5436 21.4482 83.1292 21.4484H83.1298C83.715 21.4484 84.2355 21.0766 84.4243 20.5239C85.9391 16.0887 88.714 13.309 92.9076 12.0262C93.4824 11.8503 93.8749 11.3206 93.8745 10.7206C93.8743 10.1206 93.4812 9.59121 92.906 9.41607C88.714 8.13916 85.9397 5.36146 84.4243 0.924464C84.2357 0.371429 83.715 0 83.1298 0H83.1292C82.5436 0.000195695 82.0233 0.372604 81.8348 0.925834C80.3249 5.36205 77.5508 8.13916 73.3541 9.41587C72.7789 9.59102 72.3857 10.1204 72.3853 10.7206C72.3849 11.3206 72.7775 11.8503 73.3525 12.0262ZM83.1311 4.77653C84.5473 7.37027 86.5057 9.35814 88.9888 10.7229C86.5053 12.0898 84.5471 14.0785 83.1311 16.6719C81.7171 14.0789 79.7585 12.09 77.2737 10.7229C79.7587 9.35814 81.7169 7.37007 83.1311 4.77653Z" fill="#F1F8EE"/>
<path d="M91.5428 22.5321C91.3536 21.9797 90.8335 21.6087 90.2486 21.6087H90.2475C89.6621 21.6092 89.1419 21.9815 88.9537 22.5345C88.22 24.6901 86.8776 26.0384 84.8497 26.6568C84.2745 26.8323 83.8817 27.3619 83.8817 27.9621C83.8817 28.5623 84.2745 29.092 84.8497 29.2674C86.8778 29.8856 88.22 31.2355 88.9533 33.3942C89.1414 33.9476 89.6617 34.3202 90.2475 34.3208H90.2486C90.8339 34.3208 91.3542 33.9492 91.543 33.3965C92.2814 31.2361 93.6258 29.8854 95.6529 29.2674C96.2281 29.092 96.6209 28.5625 96.6209 27.9621C96.6209 27.3621 96.2281 26.8323 95.6529 26.6568C93.626 26.0388 92.2814 24.6895 91.5428 22.5321ZM90.2506 29.9232C89.7101 29.1541 89.0668 28.4999 88.3226 27.9621C89.0666 27.4245 89.7099 26.7709 90.2506 26.0024C90.7923 26.7709 91.4359 27.4247 92.1802 27.9621C91.4359 28.4999 90.7921 29.1541 90.2506 29.9232Z" fill="#F1F8EE"/>
</svg>
