<svg width="100" height="100" viewBox="0 0 100 100" fill="none" xmlns="http://www.w3.org/2000/svg">
<path fill-rule="evenodd" clip-rule="evenodd" d="M49.9999 62.1917C48.9767 62.1917 48.1157 61.4942 47.9151 60.4954L46.7246 54.6967L45.266 54.3054C44.52 54.1066 44.0801 53.345 44.2809 52.6044C44.4817 51.8621 45.2372 51.4228 45.9833 51.6209L46.0996 51.6521L45.6398 49.4128L44.1757 49.0206C43.4296 48.8215 42.9993 48.0601 43.1905 47.3186C43.3913 46.5772 44.1564 46.138 44.893 46.3361L45.0148 46.3686L44.5537 44.1221L43.0856 43.7287C42.3492 43.5307 41.9092 42.7683 42.1102 42.0277C42.3014 41.2864 43.0665 40.8461 43.8126 41.0452L43.9285 41.0764L43.4673 38.8303L42.005 38.4383C41.2589 38.2392 40.819 37.4778 41.0198 36.7373C41.2206 35.9959 41.9762 35.5557 42.7223 35.7548L42.8425 35.7869L42.4354 33.8041L45.1515 33.2453L45.839 36.5896L53.7207 38.7011L54.8399 33.2451L57.5656 33.8039L56.412 39.4222L57.1638 39.6237C57.9002 39.8226 58.3401 40.5841 58.1393 41.3257C57.9766 41.9465 57.4125 42.356 56.8003 42.356C56.6856 42.356 56.5612 42.3407 56.4368 42.3082L55.8515 42.1512L55.4386 44.1622L56.188 44.3631C56.9243 44.5612 57.3644 45.3236 57.1636 46.0641C57.0011 46.685 56.4368 47.0945 55.8247 47.0945C55.7098 47.0945 55.5856 47.0792 55.4707 47.0466L54.8788 46.888L54.4653 48.9015L55.2124 49.1018C55.9487 49.3006 56.3888 50.0622 56.1975 50.8028C56.0255 51.4236 55.4707 51.8331 54.8491 51.8331C54.7344 51.8331 54.61 51.8178 54.4953 51.7853L53.906 51.6273L53.4937 53.636L54.2372 53.8354C54.9832 54.0335 55.4231 54.7961 55.2223 55.5365C55.0598 56.1573 54.4955 56.5668 53.8834 56.5668C53.759 56.5668 53.6443 56.5515 53.5199 56.519L52.9339 56.3618L52.0853 60.495C51.875 61.4938 51.0237 62.1913 50.0003 62.1913L49.9999 62.1917ZM46.4643 39.6344L46.926 41.8803L52.7478 43.4411L53.1603 41.4299L46.4643 39.6344ZM47.5518 44.9256L48.0137 47.1725L51.7756 48.1808L52.1885 46.1677L47.5518 44.9256ZM48.6393 50.2166L49.0999 52.4574L50.8043 52.9147L51.2162 50.907L48.6393 50.2166ZM49.7257 55.5017L49.9999 56.8359L50.2449 55.6411L49.7257 55.5017Z" fill="#E9F4ED"/>
<path fill-rule="evenodd" clip-rule="evenodd" d="M49.9999 80.0143C47.9437 80.0143 45.9926 78.8788 44.5007 76.8169C43.8312 75.8955 43.0088 75.356 41.8992 75.1187C40.4647 74.8116 39.1162 74.0826 38.0066 73.0082C36.6582 71.6976 35.0802 71.0602 33.196 71.0602H30.0207V68.2818H33.196C35.7972 68.2818 38.0735 69.2002 39.9385 71.0114C40.6748 71.7232 41.5548 72.2035 42.4729 72.4006C44.2517 72.7803 45.6863 73.7179 46.748 75.1865C47.7044 76.5079 48.8616 77.2349 49.9997 77.2349C51.1378 77.2349 52.2855 76.5079 53.2419 75.1875C54.3034 73.7179 55.7477 72.7815 57.517 72.4006C58.4446 72.2035 59.3151 71.7232 60.0514 71.0114C61.9259 69.2004 64.1926 68.2818 66.7939 68.2818H69.9788V71.0602H66.7939C64.9097 71.0602 63.3414 71.6974 61.9832 73.0082C60.8739 74.0826 59.5347 74.8116 58.1004 75.1187C56.991 75.3558 56.1588 75.8955 55.4989 76.8169C54.007 78.8786 52.0561 80.0143 49.9999 80.0143ZM98.6132 100C99.3783 100 100 99.3782 100 98.6108V72.9988C100 70.3975 97.8864 68.2822 95.285 68.2822H91.6698V71.0606H95.285C96.3562 71.0606 97.2265 71.9304 97.2265 72.9988V97.2208H2.77331V72.9988C2.77331 71.9302 3.64358 71.0606 4.71484 71.0606H8.33004V68.2822H4.71484C2.11356 68.2822 0 70.3975 0 72.9988V98.6108C0 99.3782 0.621648 100 1.38675 100H98.6132Z" fill="#E9F4ED"/>
<path fill-rule="evenodd" clip-rule="evenodd" d="M80.8243 70.1726C80.8434 70.1726 80.8626 70.1736 80.8817 70.1746C82.7754 70.2597 83.9231 72.4143 84.6116 74.0272C85.3098 75.6325 85.7975 77.3814 86.0366 78.2807C86.6678 80.7509 86.9164 83.1809 87.0599 85.2333C87.0982 85.6801 87.1172 86.0885 87.146 86.4645C87.2226 87.5724 87.2799 88.5301 87.4424 88.8783C87.4424 88.886 87.4424 88.8935 87.452 88.9003C87.4998 88.8677 87.5571 88.8181 87.6242 88.7463C88.4083 87.8995 89.231 85.7279 89.8622 82.7887C90.3786 80.3902 90.5507 77.6503 90.3691 74.6433C89.91 70.98 90.283 67.6506 91.4882 64.749C91.4977 64.7317 91.4977 64.7154 91.5073 64.6991C93.1809 61.0617 94.9598 54.4825 92.9801 51.268C92.2438 50.0664 90.991 49.4493 89.1641 49.3834C87.5766 49.326 86.3333 49.7163 85.0039 50.1305C83.751 50.5247 82.4502 50.9312 80.8914 50.9312H80.7575C79.1985 50.9312 77.8979 50.5247 76.6355 50.1305C75.3156 49.7163 74.0723 49.3249 72.4848 49.3834C70.6484 49.4493 69.4051 50.0666 68.6593 51.268C66.6892 54.4825 68.4585 61.0619 70.1417 64.6991C70.1417 64.7154 70.1512 64.7317 70.1607 64.749C71.3562 67.6506 71.7387 70.98 71.2796 74.6433C71.0978 77.6501 71.2605 80.3902 71.7865 82.7887C72.4177 85.7277 73.2306 87.8985 74.0245 88.7463C74.0914 88.8179 74.1487 88.8677 74.1965 88.9003C74.1965 88.8935 74.2061 88.886 74.2061 88.8783C74.3686 88.5301 74.4261 87.5724 74.5025 86.4645C74.5216 86.0885 74.5503 85.6801 74.5791 85.2333C74.7321 83.1811 74.9712 80.7511 75.6121 78.2807C75.8416 77.3814 76.3389 75.6325 77.0276 74.0272C77.7258 72.4141 78.864 70.2597 80.7575 70.1746C80.7765 70.1736 80.8053 70.1726 80.8243 70.1726ZM87.366 91.7349C86.314 91.7349 85.3957 91.0987 84.908 90.0311C84.5445 89.2179 84.4776 88.1933 84.3725 86.6415C84.3534 86.2751 84.3247 85.8742 84.2961 85.4379C84.1431 83.4116 83.9231 81.2274 83.3397 78.9772C82.4407 75.4987 81.3887 73.5097 80.8243 73.0294C80.26 73.5097 79.208 75.4987 78.2995 78.9772C77.7256 81.2274 77.5056 83.4116 77.3526 85.4379C77.3238 85.8742 77.2953 86.2749 77.2665 86.6415C77.1709 88.1933 77.104 89.2179 76.731 90.0311C76.2528 91.0987 75.3347 91.7349 74.2827 91.7349H74.2636C73.4507 91.7291 72.6378 91.3397 71.9873 90.6374C70.8206 89.3822 69.8355 86.9398 69.0704 83.377C68.4966 80.7173 68.3053 77.7047 68.5061 74.4261C68.5156 74.3966 68.5156 74.3678 68.5156 74.339C68.9269 71.1531 68.6112 68.2935 67.5975 65.8357C65.8282 61.9648 63.5615 54.2614 66.2969 49.8117C67.1576 48.4188 68.9079 46.731 72.3796 46.6058C74.4358 46.5302 76.0522 47.0343 77.4675 47.4783C78.6247 47.84 79.6289 48.1528 80.7575 48.1528H80.8243C80.8434 48.1518 80.8627 48.1528 80.8912 48.1528C82.0198 48.1528 83.024 47.84 84.1812 47.4783C85.5967 47.0343 87.2033 46.5302 89.2693 46.6058C92.7408 46.7312 94.4911 48.4188 95.3518 49.8117C98.087 54.2614 95.8205 61.9648 94.0417 65.8357C93.0279 68.2933 92.7218 71.1531 93.1236 74.339C93.1331 74.3678 93.1331 74.3964 93.1331 74.4261C93.3434 77.7047 93.1522 80.7175 92.5783 83.377C91.8037 86.9398 90.8281 89.3832 89.6614 90.6374C89.0014 91.3397 88.198 91.7291 87.3853 91.7349H87.366Z" fill="#F1F8EE"/>
<path fill-rule="evenodd" clip-rule="evenodd" d="M9.63068 74.6433C9.43941 77.6501 9.61163 80.3902 10.1279 82.7887C10.7686 85.7277 11.5815 87.8995 12.3754 88.7463C12.4423 88.8179 12.4998 88.8677 12.5476 88.9003C12.5476 88.8935 12.5476 88.887 12.5572 88.8783C12.7102 88.5301 12.777 87.5734 12.8441 86.4665C12.8729 86.0905 12.9014 85.6801 12.9302 85.2333C13.0832 83.1801 13.3223 80.7501 13.9632 78.2807C14.1927 77.3814 14.6902 75.6325 15.3787 74.0272C16.0769 72.4141 17.2151 70.2597 19.1086 70.1746C19.1564 70.1726 19.1947 70.1726 19.233 70.1746C21.1267 70.2597 22.2742 72.4143 22.9629 74.0272C23.6514 75.6325 24.1488 77.3814 24.3784 78.2807C25.0191 80.7501 25.2582 83.1801 25.4114 85.2333C25.4497 85.6801 25.4687 86.0905 25.4975 86.4665C25.5644 87.5734 25.6314 88.5301 25.7844 88.8783C25.7939 88.886 25.7939 88.8935 25.8034 88.9003C25.8513 88.8677 25.9086 88.8181 25.9757 88.7463C26.7598 87.8995 27.573 85.7279 28.2137 82.7887C28.7301 80.3902 28.9022 77.6503 28.7109 74.6433C28.2615 70.979 28.6343 67.6506 29.8393 64.749C29.8488 64.7317 29.8488 64.7154 29.8583 64.6991C31.532 61.0617 33.3108 54.4825 31.3312 51.268C30.5949 50.0664 29.3419 49.4493 27.5152 49.3834C25.9277 49.326 24.6844 49.7163 23.355 50.1305C22.0829 50.5295 20.7632 50.9485 19.1754 50.9312C17.5784 50.9427 16.268 50.5295 14.9864 50.1305C13.6665 49.7163 12.4137 49.3249 10.8357 49.3834C8.99951 49.4493 7.75621 50.0666 7.01016 51.268C5.04005 54.4825 6.80936 61.0619 8.48302 64.6991C8.49255 64.7154 8.50207 64.7317 8.50207 64.749C9.70727 67.6506 10.0896 70.98 9.63068 74.6433ZM25.7076 91.7349C24.6651 91.7349 23.747 91.0987 23.2593 90.0311C22.8863 89.2179 22.8289 88.1941 22.7238 86.6443C22.7047 86.2769 22.676 85.875 22.6377 85.4379C22.4942 83.4116 22.2742 81.2264 21.6908 78.9772C20.7918 75.4987 19.7398 73.5097 19.1754 73.0294C18.6016 73.5097 17.5496 75.4987 16.6506 78.9772C16.0672 81.2264 15.8567 83.4116 15.7037 85.4379C15.6654 85.8752 15.6464 86.2769 15.6176 86.6443C15.522 88.1941 15.4551 89.2179 15.0821 90.0311C14.5943 91.0987 13.6858 91.7349 12.6338 91.7349H12.6147C11.8018 91.7291 10.9889 91.3397 10.3384 90.6374C9.17174 89.3832 8.18659 86.9398 7.42148 83.377C6.83813 80.7173 6.65638 77.7047 6.85718 74.4261C6.85718 74.3966 6.8667 74.3678 6.8667 74.339C7.2683 71.1531 6.96234 68.2925 5.94861 65.8357C4.16978 61.9648 1.91256 54.2614 4.64797 49.8117C5.49919 48.4188 7.25898 46.731 10.7305 46.6058C12.7867 46.5302 14.4031 47.0343 15.8186 47.4783C16.9758 47.84 17.9704 48.1528 19.1086 48.1528H19.1754C19.1947 48.1518 19.2137 48.1528 19.233 48.1528C20.3711 48.1528 21.3753 47.84 22.523 47.4783C23.948 47.0343 25.5546 46.5302 27.6109 46.6058C31.0921 46.7312 32.8424 48.4188 33.6936 49.8117C36.4383 54.2614 34.1718 61.9648 32.393 65.8365C31.3792 68.2923 31.0733 71.1529 31.4749 74.3388C31.4844 74.3676 31.4844 74.3962 31.4844 74.4259C31.6947 77.7045 31.5034 80.7163 30.9296 83.3768C30.155 86.9406 29.1698 89.383 28.0031 90.6372C27.3527 91.3395 26.5495 91.7289 25.7269 91.7347L25.7076 91.7349Z" fill="#F1F8EE"/>
<path fill-rule="evenodd" clip-rule="evenodd" d="M56.2069 34.915H43.7929C41.3925 34.915 39.4509 32.9643 39.4509 30.5678V27.868H42.2244V30.5678C42.2244 31.4326 42.9322 32.1358 43.7929 32.1358H56.2069C57.0676 32.1358 57.7658 31.4326 57.7658 30.5678V27.868H60.5489V30.5678C60.5489 32.9643 58.5978 34.915 56.2069 34.915Z" fill="#F1F8EE"/>
<path fill-rule="evenodd" clip-rule="evenodd" d="M10.6541 63.3895C10.1567 63.3895 9.6785 63.1216 9.42988 62.652C7.62228 59.2499 7.29707 54.7485 8.11972 52.6793C8.40663 51.9665 9.21956 51.6201 9.92732 51.9062C10.6446 52.1914 10.9889 52.9996 10.7021 53.7124C10.2813 54.76 10.3196 58.405 11.8786 61.3479C12.2421 62.0254 11.9837 62.8663 11.3047 63.227C11.0944 63.3379 10.874 63.3895 10.6541 63.3895Z" fill="#F1F8EE"/>
<path fill-rule="evenodd" clip-rule="evenodd" d="M72.3028 63.3895C71.8056 63.3895 71.3274 63.1216 71.0786 62.652C69.271 59.2499 68.9458 54.7485 69.7684 52.6793C70.0553 51.9665 70.8683 51.6201 71.576 51.9062C72.2933 52.1914 72.6376 52.9996 72.3507 53.7124C71.9298 54.76 71.9681 58.405 73.5271 61.3479C73.8906 62.0254 73.6322 62.8663 72.9533 63.227C72.7525 63.3379 72.5229 63.3895 72.3028 63.3895Z" fill="#F1F8EE"/>
<path fill-rule="evenodd" clip-rule="evenodd" d="M40.9621 2.74188C40.8474 2.74188 40.7325 2.74386 40.6083 2.74863C38.485 2.82524 37.0409 3.54555 36.1707 4.95102C33.9136 8.62479 35.922 16.0958 37.8253 20.2209C37.8253 20.2372 37.8348 20.2535 37.8443 20.2707C38.4469 21.7393 38.8773 23.3197 39.0972 24.9663C39.2216 25.8426 39.9484 26.4788 40.8379 26.4788H59.1623C60.0423 26.4788 60.7691 25.8426 60.8933 24.9663C61.1229 23.3189 61.5437 21.7383 62.1559 20.2707C62.1559 20.2535 62.1654 20.2372 62.1749 20.2209C64.0782 16.0956 66.077 8.62459 63.8198 4.95102C62.9591 3.54555 61.5053 2.82524 59.3822 2.74863C57.5746 2.68273 56.1495 3.12654 54.6481 3.59715C53.2518 4.0364 51.798 4.48974 50.067 4.48974H49.9235C48.1925 4.48974 46.7484 4.0362 45.3424 3.59715C43.9366 3.1581 42.6072 2.74188 40.9621 2.74188ZM59.9881 0C63.4916 0.274704 65.2871 2.03329 66.1917 3.49573C69.2234 8.43802 66.6987 17.036 64.7093 21.3584C64.1928 22.6002 63.8391 23.9425 63.6478 25.346C63.3321 27.6125 61.4481 29.258 59.1623 29.258H40.8379C38.5521 29.258 36.6584 27.6123 36.3524 25.346C36.1611 23.9435 35.7976 22.6014 35.2812 21.3584C33.3015 17.036 30.7669 8.43802 33.8083 3.49573C34.7038 2.03309 36.5076 0.274704 40.0119 0H41.9153C43.555 0.126237 44.9267 0.555759 46.1746 0.945188C47.504 1.36221 48.6516 1.72206 49.9906 1.71154C49.9906 1.71055 50.0001 1.71055 50.0096 1.71154C51.3295 1.72008 52.4867 1.36221 53.8256 0.945188C55.0657 0.555759 56.442 0.126237 58.0839 0H59.9881Z" fill="#F1F8EE"/>
</svg>
