<svg width="100" height="100" viewBox="0 0 100 100" fill="none" xmlns="http://www.w3.org/2000/svg">
<path fill-rule="evenodd" clip-rule="evenodd" d="M66.3447 95.6355C64.2322 95.6355 62.1856 94.6898 60.293 93.8152C58.5591 93.0145 56.765 92.1855 54.9537 92.023C49.6165 91.5463 48.5252 89.2717 48.3492 87.9592C48.0336 85.6049 50.1645 83.3146 54.049 81.8328L55.0254 84.4782C52.1784 85.5649 51.0175 86.9446 51.1006 87.578C51.1704 88.0917 52.317 88.9507 55.1976 89.2085C57.4813 89.4127 59.5852 90.3856 61.4426 91.2429C64.609 92.7061 66.6584 93.5244 68.7633 91.9667C69.2014 91.6417 69.6366 91.2457 70.0574 90.8634C70.8683 90.121 71.71 89.3544 72.7437 88.9362C74.0968 88.3884 74.9738 87.4496 75.0314 86.4854C75.0772 85.7012 74.5569 84.9491 73.6046 84.4209C72.7161 83.9296 71.4165 83.5356 69.8471 83.2845L70.2794 80.4933C72.1863 80.7987 73.7518 81.2852 74.9319 81.94C76.8426 82.9967 77.9159 84.7594 77.803 86.6547C77.6805 88.7553 76.1724 90.5901 73.7701 91.562C73.1963 91.7945 72.5726 92.3637 71.9129 92.9669C71.4405 93.397 70.9518 93.8425 70.3971 94.252C69.0352 95.259 67.6761 95.6355 66.3447 95.6355Z" fill="#F1F8EE"/>
<path fill-rule="evenodd" clip-rule="evenodd" d="M91.9118 100H8.08684C3.62735 100 0 96.3088 0 91.7721V63.7641C0 58.4578 4.07794 54.0341 9.28425 53.6936C17.3826 53.1633 24.9129 49.1151 29.9385 42.5888L32.1247 44.3321C26.6113 51.4908 18.3514 55.9313 9.46203 56.513C5.71424 56.759 2.77815 59.9434 2.77815 63.7641V91.7721C2.77815 94.7502 5.15849 97.1737 8.08684 97.1737H91.9118C94.8381 97.1737 97.2215 94.7502 97.2215 91.7721V63.7641C97.2215 61.2073 95.8798 58.811 93.7233 57.5103C93.6935 57.4927 93.6659 57.4744 93.6381 57.4548C89.9878 54.8756 89.7755 51.4704 89.587 48.4662C89.4933 46.9679 89.4042 45.5523 88.9396 44.2106C87.8007 40.929 84.6245 38.672 80.648 38.3197C76.2411 37.9306 72.1385 39.9523 70.1923 43.4723L67.7719 42.0858C70.2518 37.6026 75.4006 35.0196 80.891 35.505C85.9654 35.9535 90.0529 38.9295 91.5592 43.2708C92.1522 44.9821 92.2574 46.6615 92.3588 48.2861C92.5356 51.092 92.6745 53.3113 95.1858 55.1071C98.1562 56.9207 100 60.2324 100 63.7641V91.7721C100 96.3088 96.3703 100 91.9118 100Z" fill="#E9F4ED"/>
<path fill-rule="evenodd" clip-rule="evenodd" d="M61.5457 87.3551C56.8347 87.3561 52.646 84.5317 50.6004 79.9687C50.369 79.4482 50.17 78.8975 49.9998 78.3227C49.8286 78.8977 49.6308 79.4484 49.3964 79.9687C47.3393 84.5579 43.1189 87.3824 38.3687 87.3551C34.9069 87.3309 31.6045 85.7936 29.0777 83.0267C26.0748 79.7421 23.8054 74.3425 22.1403 66.5203C21.8687 65.2507 21.6381 63.9333 21.4536 62.6063C21.357 61.9069 21.0042 61.3698 20.4064 61.0089C19.8116 60.6488 19.1784 60.5905 18.5272 60.8385C15.6209 61.9439 12.5691 62.6073 9.46203 62.8106C5.71424 63.0566 2.77815 66.2412 2.77815 70.0617H0C0 64.7554 4.07794 60.3317 9.28425 59.9912C12.119 59.8053 14.9027 59.2002 17.5556 58.1913C18.9921 57.6455 20.5078 57.7828 21.8276 58.5795C23.1445 59.3764 23.9879 60.6654 24.2042 62.2095C24.3792 63.4704 24.599 64.7186 24.8554 65.922C26.4123 73.2343 28.4579 78.2002 31.1109 81.1023C33.1124 83.2934 35.6985 84.5105 38.3886 84.5299C42.0294 84.5474 45.2733 82.3584 46.8685 78.7966C47.972 76.3351 48.1806 72.6712 48.3643 69.4372C48.4361 68.1793 48.503 66.9904 48.6167 65.8647C48.6903 65.1437 49.2871 64.5961 49.9996 64.5961C50.7121 64.5961 51.3089 65.1439 51.3805 65.8647C51.4934 66.9904 51.5613 68.1793 51.6321 69.4372C51.8167 72.6702 52.0252 76.3351 53.1287 78.7966C54.7162 82.338 57.9382 84.5299 61.5455 84.5299H61.6086C64.2989 84.5105 66.8838 83.2934 68.8866 81.1023C71.5405 78.2002 73.5869 73.2343 75.1439 65.922C75.4002 64.7176 75.6183 63.4684 75.795 62.2095C76.0093 60.6654 76.8546 59.3764 78.1716 58.5795C79.4895 57.7826 81.0071 57.6445 82.4436 58.1913C85.0946 59.1993 87.8775 59.8055 90.7152 59.9912C95.9215 60.3317 99.9994 64.7554 99.9994 70.0617H97.2213C97.2213 66.2412 94.2854 63.0568 90.5364 62.8106C87.4283 62.6073 84.3785 61.9439 81.4692 60.8375C80.8208 60.5905 80.1877 60.6478 79.5908 61.0087C78.993 61.3696 78.6422 61.9067 78.5446 62.6061C78.3601 63.9322 78.1276 65.2495 77.8579 66.5201C76.1921 74.3423 73.9234 79.7409 70.9215 83.0255C68.3919 85.7934 65.0925 87.3307 61.6287 87.3549L61.5457 87.3551Z" fill="#E9F4ED"/>
<path fill-rule="evenodd" clip-rule="evenodd" d="M82.2019 32.596H82.1724C81.4063 32.5804 80.7972 31.9353 80.8125 31.155L80.8928 27.1241C80.9081 26.3438 81.5392 25.7271 82.3091 25.7407C83.0771 25.7562 83.6862 26.4013 83.67 27.1814L83.5886 31.2121C83.5743 31.9828 82.9555 32.596 82.2019 32.596ZM89.3727 34.6215C89.1279 34.6215 88.8803 34.5563 88.6545 34.4182C87.9993 34.0146 87.789 33.1456 88.1858 32.4783L90.2352 29.0283C90.632 28.361 91.487 28.1469 92.1421 28.5506C92.7991 28.9543 93.0096 29.8222 92.6126 30.4905L90.5622 33.9405C90.3001 34.3793 89.8424 34.6215 89.3727 34.6215ZM94.4691 40.1436C93.9794 40.1436 93.505 39.88 93.2516 39.4119C92.8824 38.7291 93.1264 37.8688 93.7987 37.4934L97.2693 35.5486C97.9417 35.1722 98.7871 35.4212 99.1562 36.1051C99.5272 36.7881 99.2816 37.6472 98.6101 38.0236L95.1385 39.9684C94.9262 40.0871 94.6959 40.1436 94.4691 40.1436Z" fill="#F1F8EE"/>
<path fill-rule="evenodd" clip-rule="evenodd" d="M80.7436 90.8731C81.2886 91.4344 83.2579 92.4657 87.0707 92.4901C89.8366 92.5066 91.031 92.0105 91.4173 91.7963C91.6717 91.6563 91.8286 91.4803 91.8209 91.346C91.8124 91.2108 91.6401 90.8907 91.0386 90.6484C90.3882 90.3848 89.8824 89.9226 89.4358 89.5151C89.2178 89.3167 89.0132 89.1298 88.8114 88.98C88.0368 88.408 87.3271 88.6482 85.6382 89.4275C84.6188 89.8994 83.4616 90.4335 82.1523 90.5502C81.3882 90.6192 80.9636 90.7651 80.7436 90.8731ZM87.1999 95.3164C87.1501 95.3164 87.1023 95.3153 87.0527 95.3153C81.7297 95.2822 77.9377 93.4523 77.8325 90.8662C77.8067 90.2193 78.0256 88.0828 81.9105 87.7354C82.7454 87.6605 83.5926 87.2693 84.4898 86.8549C86.1817 86.0728 88.2874 85.0999 90.4439 86.6945C90.7614 86.9298 91.0435 87.1848 91.2894 87.4114C91.5763 87.6732 91.8747 87.9445 92.0649 88.0224H92.0669C93.5693 88.6304 94.5133 89.8096 94.5945 91.1775C94.6681 92.4364 93.9776 93.5962 92.7459 94.2783C91.2082 95.1305 88.9098 95.3164 87.1999 95.3164Z" fill="#F1F8EE"/>
<path fill-rule="evenodd" clip-rule="evenodd" d="M49.9998 42.328C50.0198 42.328 50.0419 42.328 50.0611 42.329C52.1248 42.4235 53.9764 44.4724 55.7178 48.5935C56.9105 51.4091 57.7634 54.4885 58.168 56.0742C59.2716 60.4124 59.6799 64.5453 59.9583 68.365C60.0156 69.1647 60.0616 69.8982 60.1027 70.5696C60.2471 72.8365 60.3503 74.4739 60.7118 75.2805C60.9424 75.7921 61.2215 76.0519 61.5467 76.0519H61.5515C61.912 76.0499 62.3721 75.7794 62.7852 75.3299C64.3011 73.6711 65.837 69.5878 66.9999 64.1268C67.9399 59.7137 68.2431 54.6828 67.9064 49.1712C67.1644 43.1693 67.6443 37.8846 69.3745 33.0822C67.8251 32.5841 66.5771 31.3562 66.0195 29.6615C65.5491 28.2343 65.615 26.4578 66.515 24.9303C63.6918 23.7462 61.7332 20.9278 61.7332 17.6345C61.7332 13.2827 65.2134 9.74232 69.4921 9.74232C69.6165 9.74232 69.7417 9.74514 69.8671 9.75201C69.9244 9.02717 70.1262 8.32858 70.4734 7.70791C70.8369 7.05897 71.3409 6.51802 71.95 6.10746C70.4209 4.03127 68.0528 2.95725 64.763 2.83553C61.7848 2.72654 59.3864 3.48931 57.0692 4.22686C54.8926 4.9196 52.6365 5.63171 49.9998 5.61516C47.3526 5.63757 45.1072 4.92061 42.9304 4.22686C40.6114 3.48931 38.2118 2.72654 35.2337 2.83553C31.6206 2.96976 29.1301 4.24422 27.625 6.73501C23.9163 12.8691 27.1133 25.1279 30.167 31.8701C30.1748 31.8867 30.1803 31.9032 30.1881 31.9208C32.2422 36.9654 32.8849 42.7686 32.093 49.1714C31.7535 54.683 32.0595 59.7139 32.9995 64.127C34.1624 69.588 35.6983 73.6711 37.2142 75.3301C37.6245 75.7796 38.0874 76.0501 38.4461 76.0521H38.4519C38.7761 76.0521 39.0572 75.7934 39.2878 75.2807C39.6483 74.4741 39.7517 72.8357 39.8941 70.5688C39.9362 69.8974 39.984 69.1649 40.0413 68.3652C40.3197 64.5455 40.728 60.4127 41.8306 56.0744C42.2342 54.4895 43.0891 51.4103 44.2798 48.5937C46.0232 44.4724 47.8748 42.4237 49.9357 42.3292C49.9577 42.3282 49.9778 42.328 49.9998 42.328ZM61.5457 78.8784C60.0987 78.8784 58.8765 77.9959 58.1843 76.452C57.6105 75.1735 57.4995 73.4136 57.3311 70.7506C57.289 70.0871 57.2432 69.3633 57.1859 68.5733C56.92 64.885 56.5279 60.9039 55.4777 56.7826C53.6071 49.4276 51.2794 45.3432 49.9998 45.1583C48.7183 45.3432 46.3905 49.4274 44.5199 56.7826C43.4717 60.9039 43.0796 64.885 42.811 68.5733C42.7536 69.3633 42.7078 70.0872 42.6665 70.7496C42.4983 73.4134 42.3864 75.1735 41.8153 76.4518C41.1191 78.0036 39.8787 78.8899 38.4279 78.8782C37.2832 78.8703 36.1289 78.2934 35.1801 77.2543C32.7797 74.6275 31.192 68.9905 30.2835 64.7251C29.2869 60.0465 28.9639 54.7381 29.3234 48.9494C29.3254 48.9201 29.3271 48.891 29.3311 48.861C30.0694 42.9457 29.4956 37.6179 27.6307 33.0269C24.581 26.2778 20.6609 12.8615 25.2599 5.25426C27.2615 1.94337 30.5829 0.179637 35.1352 0.012306C38.5914 -0.114252 41.3372 0.759542 43.7596 1.52999C45.8252 2.18761 47.7695 2.81131 49.9873 2.78992H50.0113C52.2224 2.81232 54.1724 2.18761 56.24 1.52999C58.6624 0.75934 61.4063 -0.114252 64.8644 0.012306C69.8096 0.19417 73.2889 2.24796 75.2071 6.11736C75.4004 6.50652 75.4061 6.9637 75.2234 7.35689C75.0427 7.7509 74.6917 8.03692 74.2738 8.13219C73.6427 8.27711 73.1645 8.61379 72.8881 9.10408C72.5887 9.642 72.5429 10.3426 72.7619 11.0275C72.9244 11.5315 72.7935 12.086 72.4262 12.4626C72.057 12.838 71.5139 12.9725 71.0175 12.81C70.525 12.6505 70.0114 12.5688 69.4921 12.5688C66.7455 12.5688 64.5114 14.8416 64.5114 17.6347C64.5114 20.3675 66.6126 22.5907 69.2951 22.6968C69.9042 22.721 70.4282 23.1473 70.5834 23.7486C70.7403 24.3489 70.4915 24.9823 69.9713 25.3101C68.4699 26.2568 68.3235 27.7628 68.6524 28.7649C68.9556 29.6872 69.7885 30.628 71.2155 30.4927C71.708 30.4471 72.1843 30.669 72.472 31.0755C72.757 31.4822 72.8135 32.0135 72.6127 32.4716C70.5268 37.2641 69.8899 42.6259 70.6665 48.8614C70.6703 48.8915 70.6723 48.9207 70.6742 48.9498C71.0338 54.7385 70.7096 60.0459 69.7141 64.7255C68.8056 68.9907 67.2199 74.6277 64.8195 77.2537C63.8689 78.2938 62.7156 78.8707 61.5707 78.8786L61.5457 78.8784Z" fill="#F1F8EE"/>
<path fill-rule="evenodd" clip-rule="evenodd" d="M34.9267 28.0359C34.4285 28.0359 33.9483 27.7634 33.6987 27.2858C30.6843 21.5164 30.0865 13.6787 31.4361 10.2522C31.722 9.52836 32.5293 9.17513 33.2416 9.46599C33.9541 9.75604 34.2993 10.579 34.0134 11.3028C33.0476 13.7603 33.3985 20.6905 36.1509 25.9597C36.5114 26.6486 36.2533 27.5036 35.5771 27.8706C35.3688 27.9824 35.1465 28.0359 34.9267 28.0359Z" fill="#F1F8EE"/>
</svg>
