<svg width="100" height="100" viewBox="0 0 100 100" fill="none" xmlns="http://www.w3.org/2000/svg">
<path d="M84.1337 21.3206C83.3715 19.9089 82.4842 18.5674 81.4825 17.3121C80.6024 16.1391 79.6047 14.8098 79.5181 14.1866C79.3695 13.0295 79.4797 11.8542 79.8408 10.7443C80.3045 8.96207 80.6039 7.14154 80.7352 5.30532C80.7738 3.81886 80.5892 2.33498 80.1874 0.902599C80.1121 0.597378 79.9177 0.334409 79.6472 0.171542C79.3767 0.00867401 79.0521 -0.0407506 78.7449 0.0341405C78.4377 0.109032 78.1731 0.302104 78.0091 0.570883C77.8452 0.839663 77.7955 1.16213 77.8708 1.46735C78.2052 2.65707 78.369 3.88769 78.3574 5.12286C78.2347 6.83083 77.9558 8.52418 77.5242 10.182C77.0885 11.5804 76.963 13.056 77.1562 14.5073C77.3263 15.7339 78.3661 17.1201 79.5705 18.7251C80.483 19.8637 81.2932 21.0795 81.992 22.3585C82.1572 22.7126 82.1742 23.1173 82.0393 23.4839C81.9044 23.8504 81.6287 24.1488 81.2726 24.3135C78.5375 25.8785 76.4747 28.3854 75.4748 31.3599C75.1841 32.1537 75.0586 32.9979 75.1061 33.8413C75.1535 34.6847 75.3728 35.5098 75.7506 36.2665C76.8072 38.1914 77.9217 42.3382 78.3152 45.0956C60.7302 43.6739 48.9763 42.0152 43.3359 40.1653C43.4456 38.7017 43.6746 37.1638 43.9035 35.6512C44.6119 30.9697 45.3448 26.1294 41.6092 24.7732C36.0316 22.7479 33.8549 27.1973 32.265 30.4452C31.241 32.5375 30.2775 34.5138 28.7853 34.8187C28.1946 34.9387 27.9204 34.746 27.1898 32.0952C26.9137 30.9758 26.5414 29.882 26.0768 28.826C24.5926 25.691 21.7886 24.443 18.5793 25.4888C17.8534 25.7087 17.1869 26.0889 16.6298 26.6008C16.0726 27.1128 15.6392 27.7433 15.362 28.4452C14.1401 31.4807 15.5655 35.5114 16.4893 37.2191C19.5774 43.1016 22.1212 49.2507 24.0893 55.5906C24.7364 57.5345 25.2953 59.2129 25.8629 60.6457C28.1239 66.3446 31.9605 69.7292 37.5898 70.993C42.1879 72.1673 46.7197 73.5848 51.1657 75.2393C58.9828 77.9667 66.4851 80.5836 71.7749 80.5836C73.533 80.6827 75.2783 80.2325 76.7658 79.2961C79.7621 77.1595 79.0403 74.7148 78.2763 72.1304C77.4257 69.2545 76.3683 65.6851 78.5673 59.9056C78.5991 59.8227 78.7549 59.3701 78.7851 59.2682C80.0108 55.1999 80.7005 50.9909 80.8369 46.7465C80.8369 46.6264 80.8242 46.0853 80.8139 45.9566C80.5802 43.0128 79.2303 37.6559 77.8446 35.1354C77.4094 34.1631 77.3766 33.0598 77.7532 32.0636C78.557 29.6989 80.191 27.7008 82.3561 26.435C82.8111 26.2154 83.2179 25.9089 83.5535 25.5329C83.8891 25.1569 84.1468 24.7189 84.3119 24.2439C84.477 23.7689 84.5462 23.2663 84.5157 22.7647C84.4851 22.2631 84.3553 21.7724 84.1337 21.3206ZM67.1616 46.4613C68.6737 46.6151 70.2427 46.767 71.8687 46.9171C71.6906 48.1903 71.4712 49.5047 71.2327 50.7653C69.7699 50.5757 68.2181 50.3625 66.6218 50.1334C66.8452 48.842 67.04 47.5608 67.1616 46.4613ZM66.1989 52.4706C67.7785 52.6981 69.3184 52.9106 70.774 53.1025C70.456 54.6451 70.1547 55.9737 69.948 56.8528C68.8152 56.5914 67.6426 56.3038 66.4167 56.0021L65.5335 55.7825C65.7052 54.9682 65.9469 53.7921 66.1989 52.4706ZM59.3119 45.5696C61.0355 45.7881 62.8623 46.0021 64.7925 46.2117C64.6757 47.2638 64.4825 48.5197 64.2639 49.7851C62.5022 49.5197 60.7167 49.2369 58.9613 48.9447C59.0989 47.7741 59.2237 46.6043 59.3119 45.5696ZM58.6704 51.3024C60.382 51.5868 62.1206 51.8624 63.8378 52.1215C63.6041 53.3426 63.3791 54.4429 63.2153 55.2241C61.6476 54.8529 60.0012 54.4848 58.2904 54.1499C58.389 53.4319 58.5249 52.4311 58.6704 51.3024ZM51.5155 44.4306C53.1712 44.7118 54.9816 44.9866 56.9469 45.2552C56.8674 46.2457 56.7425 47.3878 56.6074 48.5426C54.7551 48.2203 52.9751 47.8902 51.3295 47.5632C51.3859 46.4929 51.4495 45.4084 51.5139 44.4329L51.5155 44.4306ZM51.2055 49.9509C52.8137 50.2669 54.5373 50.5876 56.318 50.8988C56.1765 52.0006 56.0422 52.9927 55.942 53.7178C54.2985 53.4528 52.6747 53.0789 51.0814 52.5986C51.1085 51.9635 51.1514 51.0275 51.2039 49.9533L51.2055 49.9509ZM49.1544 44.0056C49.09 44.9535 49.0264 46.0111 48.9676 47.0727C47.2281 46.719 45.5088 46.2737 43.8169 45.7386C43.6418 45.0495 43.5027 44.3519 43.4003 43.6486C43.3502 43.32 43.3208 42.978 43.2993 42.6297C45.2261 43.186 47.1797 43.646 49.1528 44.008L49.1544 44.0056ZM48.842 49.4652C48.8006 50.3001 48.7625 51.0654 48.7347 51.6958C47.2022 51.0337 45.8978 49.9414 44.9815 48.5529C46.0874 48.8507 47.3943 49.1571 48.8404 49.4676L48.842 49.4652ZM75.3762 77.3664C71.7988 79.9209 61.2557 76.2432 51.9567 73C47.4248 71.3129 42.8045 69.8701 38.116 68.6779C33.2491 67.5855 30.0597 64.7562 28.0817 59.7737C27.5388 58.4057 26.9894 56.7564 26.3534 54.8465C24.3439 48.3762 21.7455 42.1011 18.5904 36.0991C17.7613 34.5675 16.7532 31.3741 17.5768 29.3275C17.7245 28.9464 17.9594 28.6046 18.2629 28.3291C18.5665 28.0537 18.9303 27.8523 19.3258 27.7407C19.7865 27.5832 20.2696 27.4995 20.7568 27.4927C22.1241 27.4927 23.187 28.2762 23.9248 29.8354C24.3312 30.768 24.657 31.7333 24.8986 32.7208C25.4837 34.8447 26.2883 37.7515 29.2758 37.1401C31.9144 36.5982 33.1879 33.9972 34.4186 31.4815C36.2232 27.7944 37.4085 25.77 40.7999 26.999C42.5727 27.6427 42.2492 30.7035 41.5536 35.2989C41.2481 37.1095 41.0359 38.9343 40.9176 40.7664C40.896 40.8842 40.8925 41.0046 40.9072 41.1234C40.8653 42.0854 40.9097 43.0491 41.04 44.0032C41.1823 44.9597 41.3949 45.9045 41.676 46.8302C41.6956 46.9556 41.7356 47.0769 41.7944 47.1896C43.4981 52.2976 47.4158 54.687 55.6836 56.0803C59.3628 56.7004 70.7844 59.4657 70.8956 59.4894C72.5473 59.8607 74.2197 60.134 75.9041 60.3077C74.5368 64.3642 74.5678 68.7576 75.9923 72.7947C76.7722 75.4463 76.9296 76.259 75.3762 77.3664ZM76.668 57.9847C75.1931 57.869 73.727 57.6598 72.2789 57.3583C72.4975 56.4271 72.8155 55.0282 73.1534 53.3971C74.8451 53.6009 76.3683 53.7652 77.6451 53.8797C77.3708 55.2762 77.0433 56.6624 76.668 57.9847ZM78.0338 51.5354C76.7944 51.4264 75.2887 51.2653 73.605 51.0615C73.8435 49.7764 74.0676 48.436 74.2481 47.1288C75.6043 47.2472 76.9995 47.3657 78.4257 47.4787C78.3638 48.8366 78.2329 50.1906 78.0338 51.5354Z" fill="#E9F4ED"/>
<path d="M18.2009 52.4334C18.096 52.4332 17.9915 52.4196 17.89 52.3931C10.852 50.5125 4.8324 47.8119 0.479863 44.5901C0.226218 44.4022 0.0580927 44.1218 0.0124716 43.8108C-0.0331495 43.4997 0.0474708 43.1834 0.236597 42.9313C0.425723 42.6793 0.707863 42.5123 1.02095 42.467C1.33404 42.4216 1.65242 42.5017 1.90607 42.6896C6.01773 45.7369 11.7591 48.2977 18.5093 50.1041C18.7889 50.1785 19.0317 50.3513 19.1925 50.5904C19.3533 50.8295 19.4211 51.1185 19.3833 51.4036C19.3454 51.6887 19.2045 51.9503 18.9868 52.1398C18.7691 52.3293 18.4903 52.4337 18.2009 52.4334Z" fill="#E9F4ED"/>
<path d="M51.6292 99.9992H8.90511C8.03559 100.014 7.1738 99.8348 6.38278 99.4758C5.59175 99.1168 4.89147 98.5867 4.33315 97.9242C3.76999 97.2372 3.38417 96.4239 3.20919 95.555C3.03421 94.6862 3.07537 93.788 3.32909 92.9386C6.46928 82.3244 10.7471 67.8651 6.51618 64.6463C5.3094 63.7285 4.01039 62.9276 2.75511 62.1535C2.00782 61.693 1.26849 61.2373 0.553796 60.7626C0.294658 60.5864 0.115926 60.3157 0.0563978 60.0094C-0.00313006 59.7031 0.061352 59.3858 0.235846 59.1264C0.41034 58.867 0.680761 58.6865 0.988405 58.624C1.29605 58.5615 1.61608 58.6221 1.87904 58.7927C2.57147 59.2524 3.28854 59.6939 4.01198 60.1402C5.31655 60.9442 6.66643 61.776 7.96544 62.7649C13.4969 66.9733 9.31691 81.0898 5.63454 93.5492C5.472 94.0669 5.44818 94.6178 5.56543 95.1475C5.68268 95.6772 5.93695 96.1674 6.30313 96.5696C6.62481 96.9121 7.01544 97.1835 7.44963 97.3661C7.88381 97.5487 8.35182 97.6385 8.82323 97.6296H51.6292C52.3045 97.6323 52.963 97.4211 53.5092 97.0264C54.0553 96.6318 54.4606 96.0745 54.666 95.4354C55.7122 92.0018 58.0948 87.8163 59.2388 86.9245C62.7049 84.2256 65.1463 84.532 67.9749 84.8898C69.5346 85.1235 71.1131 85.209 72.6891 85.145C77.5123 84.878 81.3179 83.2058 83.4055 80.4366C85.0965 78.1926 85.5878 75.2938 84.8254 72.0529C84.6258 71.207 84.381 70.4029 84.1441 69.6249C83.2322 66.6281 82.3697 63.7972 85.0186 60.9435C86.7842 59.0944 87.6118 57.3456 87.4925 55.7343C87.3856 54.6054 86.8528 53.5586 86.0012 52.8039C85.8174 52.6609 85.68 52.4675 85.6059 52.2476C85.5317 52.0278 85.5241 51.7911 85.5841 51.567C85.644 51.3429 85.7688 51.1412 85.943 50.9869C86.1172 50.8326 86.3331 50.7324 86.564 50.6989C88.0284 50.4856 90.752 48.3862 91.3697 46.0331C91.8189 44.3223 91.0986 42.7299 89.2288 41.3003C89.1033 41.2056 88.9982 41.087 88.9195 40.9513C88.8409 40.8157 88.7903 40.6657 88.7709 40.5104C88.3734 37.1724 93.2784 34.9458 95.3995 34.1449C96.6714 33.6638 97.4068 33.0319 97.5738 32.2666C97.8011 31.2287 97.0173 29.8646 96.1937 29.036C92.3254 25.1151 88.7033 20.9618 85.3477 16.5996C84.5972 15.6119 84.1142 14.4495 83.9446 13.2235C83.7751 11.9975 83.9248 10.7488 84.3794 9.5966C85.3786 6.94877 85.7196 4.10034 85.3731 1.29352C85.3493 0.983408 85.4492 0.676425 85.6512 0.438832C85.8532 0.201239 86.1411 0.0520899 86.4528 0.0235766C86.7645 -0.00493668 87.075 0.0894726 87.3173 0.286428C87.5596 0.483383 87.7142 0.767088 87.7477 1.07631C88.1319 4.26432 87.7328 7.49733 86.5847 10.4986C86.2851 11.2733 86.1904 12.1114 86.3096 12.9328C86.4289 13.7542 86.7582 14.5315 87.266 15.1904C90.5527 19.4631 94.1008 23.531 97.8902 27.371C99.1566 28.6442 100.351 30.7319 99.9047 32.7697C99.6662 33.8684 98.8346 35.3834 96.2477 36.3604C94.4777 36.9344 92.8687 37.9145 91.5509 39.2213C91.4353 39.3706 91.3801 39.5575 91.3962 39.7451C91.4122 39.9328 91.4983 40.1078 91.6376 40.2355C92.5418 41.0075 93.2117 42.0145 93.572 43.1436C93.9323 44.2728 93.9689 45.4793 93.6775 46.6279C93.2855 47.8648 92.6495 49.0117 91.8065 50.0017C90.9635 50.9917 89.9305 51.805 88.7677 52.3939C89.4023 53.3356 89.7823 54.4236 89.8711 55.5534C90.0429 57.8582 88.9967 60.2136 86.762 62.5556C85.1267 64.3186 85.5234 65.952 86.4296 68.9322C86.6769 69.7465 86.9337 70.5869 87.1499 71.5071C88.0777 75.4517 87.4441 79.0282 85.3167 81.8544C82.7998 85.1939 78.3629 87.2018 72.8243 87.5082C71.1039 87.5854 69.3801 87.4949 67.6776 87.2381C65.0064 86.9008 63.3958 86.6986 60.7127 88.787C60.1228 89.2697 57.9302 92.9054 56.9508 96.1194C56.5953 97.2448 55.8873 98.2281 54.9301 98.926C53.9729 99.6239 52.8164 99.9998 51.6292 99.9992Z" fill="#F1F8EE"/>
</svg>
