<svg width="100" height="100" viewBox="0 0 100 100" fill="none" xmlns="http://www.w3.org/2000/svg">
<path d="M1.43314 65.0929H10.7398C14.4609 65.0929 17.7209 63.8508 20.4297 61.4009C21.9141 60.0565 23.8405 58.8314 26.1701 57.7445C26.029 59.2557 25.7929 61.0113 25.4586 63.0983C24.5087 69.0408 25.4071 74.2426 28.1286 78.5594C30.5653 82.4242 34.4826 85.6031 39.7714 88.008C40.11 88.1622 40.4693 88.2378 40.8251 88.2378C41.3707 88.2378 41.909 88.0601 42.3543 87.7145C43.0938 87.1405 43.4121 86.2332 43.1865 85.3548C42.5772 82.9189 42.2683 80.3005 42.2683 77.5722C42.2683 72.924 43.1709 68.5747 44.81 65.3258C46.2671 62.4371 48.1578 60.7803 49.9966 60.7803C51.8383 60.7803 53.7306 62.4371 55.1886 65.3259C56.828 68.5741 57.7308 72.9234 57.7308 77.5722C57.7308 80.308 57.4203 82.9256 56.8067 85.3557C56.5858 86.242 56.9089 87.1475 57.6496 87.7188C58.3861 88.2861 59.3734 88.397 60.2272 88.0084C65.517 85.6033 69.4343 82.4242 71.8701 78.5594C74.5912 74.2426 75.4876 69.0404 74.535 63.0987C74.2018 61.0117 73.9667 59.2561 73.8262 57.7449C76.1511 58.8291 78.0787 60.0543 79.5707 61.4017C82.2787 63.8512 85.5385 65.0933 89.2598 65.0933H98.5664C99.3581 65.0933 99.9996 64.4809 99.9996 63.7257C99.9996 62.9706 99.3579 62.3582 98.5664 62.3582H89.2598C86.2551 62.3582 83.7307 61.3962 81.5416 59.4163C79.5377 57.6066 76.8915 56.0103 73.6696 54.6631C73.6829 50.3674 74.9171 48.4314 77.2432 44.783C77.4512 44.4568 77.6667 44.1185 77.8906 43.7644C79.6189 41.0294 80.6671 38.1603 81.0063 35.2364C81.0935 34.4858 80.5262 33.81 79.7397 33.7268C78.9548 33.6419 78.2446 34.1848 78.1577 34.9355C77.8644 37.4631 76.9487 39.9586 75.4364 42.3519C75.2147 42.7026 75.0008 43.0382 74.7945 43.3615C72.1113 47.5699 70.6556 49.8547 70.8277 55.5527C70.8271 55.5932 70.8283 55.6336 70.8314 55.6737C70.9019 57.7512 71.1858 60.2798 71.7018 63.5121C73.2698 73.2921 69.2637 80.573 59.7909 85.1659C60.3262 82.7679 60.5973 80.2176 60.5973 77.5727C60.5973 72.5215 59.5934 67.7508 57.771 64.1398C55.7876 60.2101 53.0268 58.0459 49.9968 58.0459C46.9691 58.0459 44.2101 60.2101 42.2275 64.14C40.4055 67.7516 39.4021 72.5221 39.4021 77.5727C39.4021 80.2082 39.6711 82.7553 40.2039 85.1638C30.7351 80.5714 26.7285 73.2909 28.2917 63.5119C30.2511 51.2766 28.877 49.1212 25.2045 43.3613C24.9984 43.038 24.7845 42.7026 24.5552 42.3402C24.5183 42.2832 24.4849 42.2286 24.4496 42.1729C26.4994 37.4362 29.9428 34.4155 34.9402 32.9615C35.5431 32.7859 35.955 32.2554 35.9554 31.654C35.9556 31.0527 35.5442 30.5217 34.9416 30.3458C30.8298 29.1454 27.7702 26.8875 25.6729 23.489C25.6988 23.4634 25.7238 23.4364 25.7496 23.411C30.2306 19.0642 34.1034 19.7495 39.947 21.3935C41.3387 21.7863 42.4923 22.1256 43.5103 22.4251C49.8133 24.2787 50.0555 24.2791 56.4874 22.4125C57.5067 22.1166 58.6617 21.7816 60.0428 21.3961L60.2536 21.3382C61.0502 21.1184 61.8026 20.9112 62.5494 20.7341C63.3176 20.5521 63.7854 19.8104 63.5947 19.0773C63.4039 18.3442 62.6275 17.8969 61.8584 18.0798C61.059 18.2693 60.2452 18.4935 59.4579 18.7106L59.2429 18.7699C57.8424 19.1605 56.6792 19.498 55.6531 19.7959C49.9392 21.4544 49.939 21.454 44.3543 19.8115C43.3288 19.5098 42.1666 19.1681 40.7583 18.7706C35.7681 17.3669 30.136 15.7847 24.3505 20.8982C24.2016 20.5423 24.0595 20.1777 23.926 19.8027C23.7285 19.2485 23.1832 18.8757 22.5698 18.8753H22.5692C21.956 18.8753 21.4106 19.2479 21.2127 19.8016C19.2459 25.3059 15.6409 28.7548 10.1916 30.3458C9.58882 30.5219 9.17762 31.0527 9.17783 31.654C9.17824 32.2554 9.59026 32.7861 10.193 32.9615C15.6407 34.5466 19.2453 37.9938 21.2127 43.4999C21.4059 44.0406 21.9305 44.4055 22.5259 44.4228C22.603 44.5437 22.6803 44.665 22.7554 44.7828C25.0813 48.431 26.3155 50.367 26.3272 54.6621C23.0962 56.0144 20.4502 57.6114 18.4562 59.4173C16.2679 61.3964 13.7435 62.3584 10.7387 62.3584H1.43314C0.641511 62.3584 0 62.9708 0 63.7259C0 64.4811 0.641511 65.0929 1.43314 65.0929ZM14.4369 31.6513C17.9596 29.9274 20.6809 27.2881 22.569 23.7634C22.5866 23.7963 22.6053 23.8276 22.6231 23.8603C22.6508 23.919 22.682 23.9763 22.7185 24.0313C24.5971 27.421 27.2646 29.9718 30.6976 31.6515C27.1742 33.3726 24.4543 36.011 22.569 39.5363C20.6809 36.0106 17.9596 33.3722 14.4369 31.6513Z" fill="#F1F8EE"/>
<path d="M98.5667 97.265H1.43314C0.641511 97.265 0 97.8773 0 98.6325C0 99.3877 0.641716 100 1.43314 100H98.5669C99.3585 100 100 99.3877 100 98.6325C100 97.8773 99.3583 97.265 98.5667 97.265Z" fill="#F1F8EE"/>
<path d="M73.9725 9.12267C74 9.12423 74.0268 9.12502 74.0539 9.12502C74.8086 9.12502 75.4409 8.562 75.4836 7.83402L75.704 4.07471C75.7483 3.3205 75.1435 2.6751 74.3533 2.63302C73.5584 2.58664 72.8865 3.16766 72.8424 3.92187L72.622 7.68118C72.5775 8.43519 73.1823 9.08059 73.9725 9.12267Z" fill="#E9F4ED"/>
<path d="M64.8533 9.94615C65.1056 10.4227 65.6101 10.6974 66.1339 10.6974C66.3508 10.6974 66.5715 10.6501 66.7786 10.5505C67.485 10.2099 67.7686 9.38763 67.412 8.71327L65.6365 5.35827C65.2797 4.68449 64.4183 4.41365 63.7112 4.75396C63.0048 5.09447 62.7212 5.91678 63.0779 6.59115L64.8533 9.94615Z" fill="#E9F4ED"/>
<path d="M56.0186 13.5581L59.3201 15.6176C59.5619 15.7685 59.834 15.8405 60.1029 15.8405C60.5705 15.8405 61.0291 15.6225 61.3039 15.2211C61.737 14.589 61.551 13.7417 60.8886 13.3282L57.5871 11.2687C56.9245 10.8554 56.0362 11.0327 55.6033 11.665C55.1701 12.2973 55.3562 13.1448 56.0186 13.5581Z" fill="#E9F4ED"/>
<path d="M58.6964 29.6632L59.092 30.0407L44.4716 39.1787C43.8094 39.5926 43.6242 40.4402 44.0577 41.0719C44.3329 41.4727 44.7909 41.6903 45.2581 41.6903C45.5274 41.6903 45.7997 41.6181 46.0419 41.4668L61.1626 32.0163L65.8916 36.5288L55.9927 50.9623C55.5594 51.5942 55.7448 52.4418 56.407 52.8553C56.649 53.0066 56.9214 53.0786 57.1904 53.0786C57.6578 53.0786 58.116 52.8608 58.391 52.4598L67.962 38.5044L68.3629 38.8869C68.6318 39.1433 68.9962 39.2875 69.3765 39.2875C69.7565 39.2875 70.1211 39.1433 70.39 38.8869L80.8109 28.9435C81.0795 28.6869 81.2307 28.3392 81.2307 27.9763C81.2307 27.6137 81.0795 27.2658 80.8109 27.0092L80.1765 26.4039L97.7133 9.67512C100.026 7.46162 100.025 3.86513 97.7116 1.65808C95.3948 -0.552692 91.6251 -0.552692 89.3084 1.65808L71.7725 18.3855L71.1439 17.7857C70.5842 17.2517 69.6767 17.2517 69.117 17.7857L58.6964 27.7292C58.1367 28.2632 58.1367 29.1292 58.6964 29.6632ZM91.3353 3.59213C91.912 3.04164 92.6844 2.73851 93.51 2.73851C94.3357 2.73851 95.1081 3.04164 95.685 3.59213C96.8823 4.73441 96.8815 6.59723 95.685 7.74263L78.1491 24.4705L73.7992 20.3198L91.3353 3.59213ZM70.1304 20.6867L77.7701 27.9765L69.3759 35.9862L68.745 35.3842C68.7409 35.3803 68.737 35.3764 68.7329 35.3725L62.3699 29.3008C62.3685 29.2992 62.3668 29.2979 62.3654 29.2965L61.7364 28.6963L70.1304 20.6867Z" fill="#E9F4ED"/>
<path d="M56.0297 38.0664C55.4704 37.5319 54.5627 37.5319 54.003 38.0654L48.4447 43.3638C47.8849 43.8975 47.8842 44.7635 48.4437 45.2977C48.7237 45.565 49.0906 45.6989 49.4575 45.6989C49.8241 45.6989 50.1904 45.5654 50.4704 45.2987L56.0286 40.0002C56.5885 39.4666 56.5891 38.6006 56.0297 38.0664Z" fill="#E9F4ED"/>
<path d="M52.9851 49.0649C53.352 49.0649 53.7187 48.9314 53.9987 48.6643L59.5569 43.3603C60.1166 42.8263 60.1166 41.9603 59.5569 41.4263C58.9973 40.8922 58.0897 40.8922 57.5301 41.4263L51.9718 46.7302C51.4121 47.2643 51.4121 48.1302 51.9718 48.6643C52.2515 48.9314 52.6185 49.0649 52.9851 49.0649Z" fill="#E9F4ED"/>
<path d="M86.0734 36.7464C85.599 36.1417 84.7009 36.018 84.0672 36.4707C83.4333 36.9231 83.3041 37.7803 83.7783 38.385L86.1398 41.3967C86.4214 41.7556 86.8523 41.9451 87.2885 41.9451C87.5871 41.9451 87.8884 41.8564 88.1458 41.6725C88.7797 41.22 88.9089 40.3629 88.4348 39.7582L86.0734 36.7464Z" fill="#E9F4ED"/>
<path d="M89.3626 32.7545L92.9889 34.2382C93.1731 34.3136 93.3644 34.3492 93.5529 34.3492C94.1089 34.3492 94.6376 34.0386 94.8706 33.5202C95.1825 32.8261 94.8458 32.0222 94.1181 31.7247L90.4918 30.2409C89.7648 29.9431 88.9219 30.2648 88.6101 30.9589C88.2982 31.6531 88.6349 32.457 89.3626 32.7545Z" fill="#E9F4ED"/>
<path d="M96.4215 23.2513C96.3269 22.5014 95.6149 21.9677 94.8275 22.0566L90.9112 22.5053C90.1255 22.5951 89.565 23.2761 89.6593 24.026C89.7467 24.7206 90.3651 25.2305 91.0804 25.2305C91.1374 25.2305 91.1948 25.2272 91.2531 25.2208L95.1694 24.772C95.9551 24.6822 96.5156 24.0012 96.4215 23.2513Z" fill="#E9F4ED"/>
<path d="M3.58901 48.0028C6.1087 48.7398 7.77811 50.342 8.6928 52.9003C8.89091 53.4539 9.43623 53.8263 10.0492 53.8263C10.6622 53.8263 11.2076 53.4539 11.4057 52.9003C12.3204 50.3418 13.9898 48.7398 16.5095 48.0028C17.112 47.8265 17.523 47.2954 17.5226 46.694C17.522 46.0928 17.1098 45.5623 16.507 45.3872C13.9912 44.656 12.3224 43.0543 11.4059 40.4905C11.2078 39.9368 10.6624 39.5644 10.0494 39.5644C9.43644 39.5644 8.89111 39.9368 8.693 40.4905C7.77626 43.0543 6.10768 44.656 3.59188 45.3873C2.98893 45.5625 2.57691 46.0928 2.57629 46.694C2.57568 47.2952 2.98667 47.8263 3.58901 48.0028ZM10.0492 44.0584C10.7839 45.123 11.6897 46.0038 12.7621 46.6967C11.6891 47.3907 10.7837 48.2709 10.0492 49.3341C9.31482 48.2709 8.40916 47.3907 7.33635 46.6967C8.40896 46.0036 9.31462 45.123 10.0492 44.0584Z" fill="#F1F8EE"/>
</svg>
