<svg width="64" height="22" viewBox="0 0 64 22" fill="none" xmlns="http://www.w3.org/2000/svg">
<path d="M11.3364 0.837891V4.18072H4.13571V8.62787H11.0363V11.9707H4.13571V17.4028H11.3364V20.7456H0.235352V0.837891H11.3364Z" fill="white"/>
<path d="M14.5795 20.7456V7.82201H18.2398V9.49343C19.2399 8.10058 20.58 7.40416 22.2602 7.40416C23.9603 7.40416 25.2405 7.93145 26.1005 8.98603C26.7806 9.82174 27.1206 11.0355 27.1206 12.6273V20.7456H23.4603V13.7018C23.4603 12.488 23.2303 11.6424 22.7702 11.1648C22.3502 10.7271 21.7801 10.5082 21.0601 10.5082C20.06 10.5082 19.3099 10.8863 18.8099 11.6424C18.4298 12.2393 18.2398 13.075 18.2398 14.1495V20.7456H14.5795Z" fill="white"/>
<path d="M36.7869 10.9261H34.2667V20.7456H30.6063V10.9261H29.1662V7.82201H30.6063V3.4047H34.2667V7.82201H36.7869V10.9261Z" fill="white"/>
<path d="M48.0839 16.5969L51.4442 17.1342C51.3042 17.4923 51.1142 17.8505 50.8741 18.2087C50.6541 18.5469 50.3041 18.9747 49.824 19.4921C49.344 19.9895 48.6939 20.3974 47.8739 20.7158C47.0538 21.0142 46.1137 21.1635 45.0536 21.1635C43.0134 21.1635 41.3533 20.5566 40.0731 19.3428C38.713 18.0694 38.033 16.388 38.033 14.2987C38.033 12.2294 38.693 10.5381 40.0131 9.22481C41.2533 8.01104 42.8834 7.40416 44.9036 7.40416C47.1038 7.40416 48.7939 8.11053 49.9741 9.52327C51.0141 10.7569 51.5342 12.4482 51.5342 14.5972V14.8957H41.8133C41.8133 15.7712 42.0233 16.4974 42.4434 17.0745C43.0434 17.8903 43.9135 18.2982 45.0536 18.2982C46.4137 18.2982 47.4238 17.7311 48.0839 16.5969ZM41.9333 12.5676H48.0839C47.9439 11.7319 47.5738 11.0952 46.9738 10.6574C46.3937 10.1998 45.7337 9.97097 44.9936 9.97097C44.2735 9.97097 43.6135 10.1998 43.0134 10.6574C42.4334 11.1151 42.0733 11.7518 41.9333 12.5676Z" fill="white"/>
<path d="M54.3683 20.7456V7.82201H58.0286V9.76204C58.4687 8.92634 59.0087 8.3294 59.6488 7.97124C60.2488 7.59319 60.9689 7.40416 61.809 7.40416C62.289 7.40416 62.8091 7.50365 63.3691 7.70263L62.8891 11.1051C62.429 10.7868 61.859 10.6276 61.1789 10.6276C60.1188 10.6276 59.3087 10.9758 58.7487 11.6722C58.2686 12.2692 58.0286 13.2243 58.0286 14.5375V20.7456H54.3683Z" fill="white"/>
</svg>
