<svg width="46" height="46" viewBox="0 0 46 46" fill="none" xmlns="http://www.w3.org/2000/svg">
<circle cx="23" cy="23" r="21.5" stroke="#E55161" stroke-width="3"/>
<mask id="mask0_181_40831" style="mask-type:alpha" maskUnits="userSpaceOnUse" x="0" y="0" width="46" height="46">
<circle cx="23" cy="23" r="23" fill="#D9D9D9"/>
</mask>
<g mask="url(#mask0_181_40831)">
<path d="M22.9993 12.334C24.6791 12.334 26.29 13.0012 27.4777 14.189C28.6654 15.3767 29.3327 16.9876 29.3327 18.6673C29.3327 20.347 28.6654 21.9579 27.4777 23.1457C26.29 24.3334 24.6791 25.0007 22.9993 25.0007C21.3196 25.0007 19.7087 24.3334 18.521 23.1457C17.3333 21.9579 16.666 20.347 16.666 18.6673C16.666 16.9876 17.3333 15.3767 18.521 14.189C19.7087 13.0012 21.3196 12.334 22.9993 12.334ZM18.2493 28.1673H27.7493C29.4291 28.1673 31.04 28.8346 32.2277 30.0223C33.4154 31.21 34.0827 32.8209 34.0827 34.5007V51.9173H29.3327V75.6673H16.666V51.9173H11.916V34.5007C11.916 32.8209 12.5833 31.21 13.771 30.0223C14.9587 28.8346 16.5696 28.1673 18.2493 28.1673Z" fill="#E55161"/>
</g>
</svg>
