<svg width="276" height="422" viewBox="0 0 276 422" fill="none" xmlns="http://www.w3.org/2000/svg">
<mask id="path-1-inside-1_618_23907" fill="white">
<path d="M0 16C0 7.16344 7.16344 0 16 0H260C268.837 0 276 7.16344 276 16V406C276 414.837 268.837 422 260 422H16C7.16344 422 0 414.837 0 406V16Z"/>
</mask>
<path d="M0 16C0 7.16344 7.16344 0 16 0H260C268.837 0 276 7.16344 276 16V406C276 414.837 268.837 422 260 422H16C7.16344 422 0 414.837 0 406V16Z" fill="white"/>
<path d="M24.44 47V44.778C24.792 44.8 25.089 44.7743 25.331 44.701C25.573 44.6203 25.7747 44.47 25.936 44.25C26.1047 44.0227 26.2513 43.7037 26.376 43.293C26.5007 42.875 26.6217 42.3507 26.739 41.72C26.9077 40.818 27.047 39.8793 27.157 38.904C27.2743 37.9213 27.3733 36.957 27.454 36.011C27.5347 35.0577 27.597 34.163 27.641 33.327C27.685 32.491 27.7217 31.7687 27.751 31.16H38.355V47H35.704V33.646H30.204C30.1673 34.1373 30.1233 34.7313 30.072 35.428C30.028 36.1173 29.9657 36.8653 29.885 37.672C29.8117 38.4787 29.7163 39.3147 29.599 40.18C29.489 41.0453 29.3533 41.896 29.192 42.732C29.0453 43.4947 28.8693 44.1803 28.664 44.789C28.4587 45.3903 28.1837 45.889 27.839 46.285C27.5017 46.6737 27.058 46.934 26.508 47.066C25.9653 47.198 25.276 47.176 24.44 47ZM51.0744 35.12V47H48.5334V39.245L42.8794 47H40.7564V35.12H43.2974V42.677L48.9734 35.12H51.0744ZM63.4472 49.497V47H53.4812V35.12H56.1322V44.514H61.1482V35.12H63.7992V44.646H66.0982V49.497H63.4472ZM72.5958 47.33C71.3931 47.33 70.3371 47.0697 69.4278 46.549C68.5184 46.0283 67.8071 45.306 67.2938 44.382C66.7878 43.458 66.5348 42.3947 66.5348 41.192C66.5348 39.894 66.7841 38.7683 67.2828 37.815C67.7814 36.8543 68.4744 36.11 69.3618 35.582C70.2491 35.054 71.2758 34.79 72.4418 34.79C73.6738 34.79 74.7188 35.0797 75.5768 35.659C76.4421 36.231 77.0838 37.0413 77.5018 38.09C77.9198 39.1387 78.0774 40.3743 77.9748 41.797H75.3458V40.829C75.3384 39.5383 75.1111 38.596 74.6638 38.002C74.2164 37.408 73.5124 37.111 72.5518 37.111C71.4664 37.111 70.6598 37.4483 70.1318 38.123C69.6038 38.7903 69.3398 39.7693 69.3398 41.06C69.3398 42.2627 69.6038 43.194 70.1318 43.854C70.6598 44.514 71.4298 44.844 72.4418 44.844C73.0944 44.844 73.6554 44.701 74.1248 44.415C74.6014 44.1217 74.9681 43.7 75.2248 43.15L77.8428 43.942C77.3881 45.0127 76.6841 45.845 75.7308 46.439C74.7848 47.033 73.7398 47.33 72.5958 47.33ZM68.5038 41.797V39.795H76.6768V41.797H68.5038ZM79.7471 47V35.12H82.3981V39.806H87.7331V35.12H90.3841V47H87.7331V42.292H82.3981V47H79.7471ZM97.0187 47.33C95.8894 47.33 94.859 47.0917 93.9277 46.615C92.9964 46.1383 92.263 45.4857 91.7277 44.657L93.8177 43.26C94.243 43.766 94.716 44.1583 95.2367 44.437C95.7574 44.7083 96.3367 44.844 96.9747 44.844C97.642 44.844 98.1664 44.6973 98.5477 44.404C98.929 44.1107 99.1197 43.7183 99.1197 43.227C99.1197 42.7943 98.9914 42.49 98.7347 42.314C98.478 42.1307 98.1407 42.0207 97.7227 41.984C97.3047 41.9473 96.8574 41.929 96.3807 41.929H95.5007V39.828H96.3697C97.037 39.828 97.5944 39.751 98.0417 39.597C98.4964 39.443 98.7237 39.102 98.7237 38.574C98.7237 38.0973 98.5477 37.76 98.1957 37.562C97.8437 37.3567 97.433 37.254 96.9637 37.254C96.3917 37.254 95.827 37.375 95.2697 37.617C94.7124 37.859 94.2137 38.1523 93.7737 38.497L92.2777 36.693C92.9377 36.1063 93.6747 35.6443 94.4887 35.307C95.3027 34.9623 96.1717 34.79 97.0957 34.79C97.8584 34.79 98.5697 34.922 99.2297 35.186C99.897 35.45 100.432 35.846 100.836 36.374C101.246 36.902 101.452 37.5547 101.452 38.332C101.452 38.8893 101.331 39.4137 101.089 39.905C100.854 40.3963 100.476 40.862 99.9557 41.302L99.9227 40.444C100.326 40.6127 100.667 40.8473 100.946 41.148C101.232 41.4487 101.448 41.8007 101.595 42.204C101.749 42.6073 101.826 43.0363 101.826 43.491C101.826 44.3197 101.606 45.02 101.166 45.592C100.726 46.164 100.139 46.5967 99.4057 46.89C98.6797 47.1833 97.884 47.33 97.0187 47.33ZM113.882 35.12V47H111.341V39.245L105.687 47H103.564V35.12H106.105V42.677L111.781 35.12H113.882ZM126.607 35.12V47H124.066V39.245L118.412 47H116.289V35.12H118.83V42.677L124.506 35.12H126.607Z" fill="#272833"/>
<path d="M29.784 78.24C28.6373 78.24 27.6693 77.9867 26.88 77.48C26.0907 76.968 25.4933 76.2613 25.088 75.36C24.6827 74.4587 24.48 73.4187 24.48 72.24C24.48 71.0613 24.6827 70.0213 25.088 69.12C25.4933 68.2187 26.0907 67.5147 26.88 67.008C27.6693 66.496 28.6373 66.24 29.784 66.24C30.936 66.24 31.904 66.496 32.688 67.008C33.4773 67.5147 34.0747 68.2187 34.48 69.12C34.8907 70.0213 35.096 71.0613 35.096 72.24C35.096 73.4187 34.8907 74.4587 34.48 75.36C34.0747 76.2613 33.4773 76.968 32.688 77.48C31.904 77.9867 30.936 78.24 29.784 78.24ZM29.784 77.112C30.6853 77.112 31.4373 76.9067 32.04 76.496C32.6427 76.0853 33.0933 75.5147 33.392 74.784C33.696 74.048 33.848 73.2 33.848 72.24C33.848 71.28 33.696 70.4347 33.392 69.704C33.0933 68.9733 32.6427 68.4027 32.04 67.992C31.4373 67.5813 30.6853 67.3733 29.784 67.368C28.8827 67.368 28.1333 67.5733 27.536 67.984C26.9387 68.3947 26.488 68.968 26.184 69.704C25.8853 70.4347 25.7333 71.28 25.728 72.24C25.7227 73.2 25.8693 74.0453 26.168 74.776C26.472 75.5013 26.9253 76.072 27.528 76.488C28.1307 76.8987 28.8827 77.1067 29.784 77.112ZM40.5781 78.24C39.7835 78.24 39.1115 78.04 38.5621 77.64C38.0128 77.2347 37.5968 76.688 37.3141 76C37.0315 75.3067 36.8901 74.5307 36.8901 73.672C36.8901 72.7973 37.0315 72.0187 37.3141 71.336C37.6021 70.648 38.0235 70.1067 38.5781 69.712C39.1328 69.3173 39.8155 69.12 40.6261 69.12C41.4155 69.12 42.0928 69.32 42.6581 69.72C43.2235 70.12 43.6555 70.664 43.9541 71.352C44.2581 72.04 44.4101 72.8133 44.4101 73.672C44.4101 74.536 44.2581 75.312 43.9541 76C43.6501 76.688 43.2128 77.2347 42.6421 77.64C42.0715 78.04 41.3835 78.24 40.5781 78.24ZM36.6901 81.84V69.36H37.7461V75.864H37.8741V81.84H36.6901ZM40.4581 77.144C41.0608 77.144 41.5621 76.992 41.9621 76.688C42.3621 76.384 42.6608 75.9707 42.8581 75.448C43.0608 74.92 43.1621 74.328 43.1621 73.672C43.1621 73.0213 43.0635 72.4347 42.8661 71.912C42.6688 71.3893 42.3675 70.976 41.9621 70.672C41.5621 70.368 41.0528 70.216 40.4341 70.216C39.8315 70.216 39.3301 70.3627 38.9301 70.656C38.5355 70.9493 38.2395 71.3573 38.0421 71.88C37.8448 72.3973 37.7461 72.9947 37.7461 73.672C37.7461 74.3387 37.8448 74.936 38.0421 75.464C38.2395 75.9867 38.5381 76.3973 38.9381 76.696C39.3381 76.9947 39.8448 77.144 40.4581 77.144ZM46.1669 78V69.36H52.0869V70.488H47.3429V78H46.1669ZM55.7483 78.24C55.0976 78.24 54.5509 78.1227 54.1083 77.888C53.6709 77.6533 53.3429 77.3413 53.1243 76.952C52.9056 76.5627 52.7963 76.1387 52.7963 75.68C52.7963 75.2107 52.8896 74.8107 53.0763 74.48C53.2683 74.144 53.5269 73.8693 53.8523 73.656C54.1829 73.4427 54.5643 73.28 54.9963 73.168C55.4336 73.0613 55.9163 72.968 56.4443 72.888C56.9776 72.8027 57.4976 72.7307 58.0043 72.672C58.5163 72.608 58.9643 72.5467 59.3483 72.488L58.9323 72.744C58.9483 71.8907 58.7829 71.2587 58.4363 70.848C58.0896 70.4373 57.4869 70.232 56.6283 70.232C56.0363 70.232 55.5349 70.3653 55.1243 70.632C54.7189 70.8987 54.4336 71.32 54.2682 71.896L53.1243 71.56C53.3216 70.7867 53.7189 70.1867 54.3163 69.76C54.9136 69.3333 55.6896 69.12 56.6443 69.12C57.4336 69.12 58.1029 69.2693 58.6523 69.568C59.2069 69.8613 59.5989 70.288 59.8283 70.848C59.9349 71.0987 60.0043 71.3787 60.0363 71.688C60.0683 71.9973 60.0843 72.312 60.0843 72.632V78H59.0363V75.832L59.3403 75.96C59.0469 76.7013 58.5909 77.2667 57.9723 77.656C57.3536 78.0453 56.6123 78.24 55.7483 78.24ZM55.8843 77.224C56.4336 77.224 56.9136 77.1253 57.3243 76.928C57.7349 76.7307 58.0656 76.4613 58.3163 76.12C58.5669 75.7733 58.7296 75.384 58.8043 74.952C58.8683 74.6747 58.9029 74.3707 58.9083 74.04C58.9136 73.704 58.9163 73.4533 58.9163 73.288L59.3643 73.52C58.9643 73.5733 58.5296 73.6267 58.0603 73.68C57.5963 73.7333 57.1376 73.7947 56.6843 73.864C56.2363 73.9333 55.8309 74.016 55.4683 74.112C55.2229 74.1813 54.9856 74.28 54.7563 74.408C54.5269 74.5307 54.3376 74.696 54.1883 74.904C54.0443 75.112 53.9723 75.3707 53.9723 75.68C53.9723 75.9307 54.0336 76.1733 54.1562 76.408C54.2843 76.6427 54.4869 76.8373 54.7643 76.992C55.0469 77.1467 55.4203 77.224 55.8843 77.224ZM62.1589 78V69.36H63.3349V73.112H68.2069V69.36H69.3829V78H68.2069V74.24H63.3349V78H62.1589ZM78.484 69.36V78H77.34V71.272L72.604 78H71.612V69.36H72.756V76.032L77.5 69.36H78.484ZM83.8414 78.24C82.972 78.24 82.212 78.0507 81.5614 77.672C80.916 77.288 80.4067 76.7573 80.0334 76.08L80.9774 75.48C81.292 76.0133 81.684 76.4187 82.1534 76.696C82.6227 76.9733 83.1614 77.112 83.7694 77.112C84.404 77.112 84.9134 76.9653 85.2974 76.672C85.6814 76.3787 85.8734 75.976 85.8734 75.464C85.8734 75.112 85.7907 74.832 85.6254 74.624C85.4654 74.416 85.22 74.2667 84.8894 74.176C84.564 74.0853 84.156 74.04 83.6654 74.04H82.6414V73.032H83.6494C84.2467 73.032 84.7267 72.9253 85.0894 72.712C85.4574 72.4933 85.6414 72.152 85.6414 71.688C85.6414 71.1973 85.4574 70.8347 85.0894 70.6C84.7267 70.36 84.292 70.24 83.7854 70.24C83.2734 70.24 82.788 70.3467 82.3294 70.56C81.876 70.768 81.4947 71.0373 81.1854 71.368L80.4334 70.576C80.8654 70.1013 81.3694 69.7413 81.9454 69.496C82.5267 69.2453 83.1694 69.12 83.8734 69.12C84.428 69.12 84.9294 69.2187 85.3774 69.416C85.8307 69.608 86.188 69.8907 86.4494 70.264C86.716 70.6373 86.8494 71.0853 86.8494 71.608C86.8494 72.0987 86.7294 72.5227 86.4894 72.88C86.2547 73.2373 85.9214 73.5333 85.4894 73.768L85.4254 73.328C85.7987 73.3973 86.108 73.5467 86.3534 73.776C86.5987 74.0053 86.78 74.28 86.8974 74.6C87.0147 74.92 87.0734 75.2453 87.0734 75.576C87.0734 76.1253 86.9294 76.6 86.6414 77C86.3587 77.3947 85.972 77.7013 85.4814 77.92C84.996 78.1333 84.4494 78.24 83.8414 78.24ZM91.3108 78.24C90.6601 78.24 90.1134 78.1227 89.6708 77.888C89.2334 77.6533 88.9054 77.3413 88.6868 76.952C88.4681 76.5627 88.3588 76.1387 88.3588 75.68C88.3588 75.2107 88.4521 74.8107 88.6388 74.48C88.8308 74.144 89.0894 73.8693 89.4148 73.656C89.7454 73.4427 90.1268 73.28 90.5588 73.168C90.9961 73.0613 91.4788 72.968 92.0068 72.888C92.5401 72.8027 93.0601 72.7307 93.5668 72.672C94.0788 72.608 94.5268 72.5467 94.9108 72.488L94.4948 72.744C94.5108 71.8907 94.3454 71.2587 93.9988 70.848C93.6521 70.4373 93.0494 70.232 92.1908 70.232C91.5988 70.232 91.0974 70.3653 90.6868 70.632C90.2814 70.8987 89.9961 71.32 89.8307 71.896L88.6868 71.56C88.8841 70.7867 89.2814 70.1867 89.8788 69.76C90.4761 69.3333 91.2521 69.12 92.2068 69.12C92.9961 69.12 93.6654 69.2693 94.2148 69.568C94.7694 69.8613 95.1614 70.288 95.3908 70.848C95.4974 71.0987 95.5668 71.3787 95.5988 71.688C95.6308 71.9973 95.6468 72.312 95.6468 72.632V78H94.5988V75.832L94.9028 75.96C94.6094 76.7013 94.1534 77.2667 93.5348 77.656C92.9161 78.0453 92.1748 78.24 91.3108 78.24ZM91.4468 77.224C91.9961 77.224 92.4761 77.1253 92.8868 76.928C93.2974 76.7307 93.6281 76.4613 93.8788 76.12C94.1294 75.7733 94.2921 75.384 94.3668 74.952C94.4308 74.6747 94.4654 74.3707 94.4708 74.04C94.4761 73.704 94.4788 73.4533 94.4788 73.288L94.9268 73.52C94.5268 73.5733 94.0921 73.6267 93.6228 73.68C93.1588 73.7333 92.7001 73.7947 92.2468 73.864C91.7988 73.9333 91.3934 74.016 91.0308 74.112C90.7854 74.1813 90.5481 74.28 90.3188 74.408C90.0894 74.5307 89.9001 74.696 89.7508 74.904C89.6068 75.112 89.5348 75.3707 89.5348 75.68C89.5348 75.9307 89.5961 76.1733 89.7188 76.408C89.8468 76.6427 90.0494 76.8373 90.3268 76.992C90.6094 77.1467 90.9828 77.224 91.4468 77.224ZM105.153 79.496V78H97.7214V69.36H98.8974V76.872H103.417V69.36H104.593V76.912H106.329V79.496H105.153ZM114.468 69.36V78H113.324V71.272L108.588 78H107.596V69.36H108.74V76.032L113.484 69.36H114.468ZM122.13 78V74.744H120.114C119.879 74.744 119.636 74.736 119.386 74.72C119.14 74.6987 118.911 74.6693 118.698 74.632C118.09 74.5147 117.572 74.248 117.146 73.832C116.724 73.4107 116.514 72.8293 116.514 72.088C116.514 71.3627 116.711 70.7813 117.106 70.344C117.5 69.9013 117.978 69.6133 118.538 69.48C118.794 69.4213 119.052 69.3867 119.314 69.376C119.58 69.3653 119.81 69.36 120.002 69.36H123.306L123.314 78H122.13ZM116.234 78L118.642 74.376H119.946L117.522 78H116.234ZM120.05 73.736H122.13V70.368H120.05C119.922 70.368 119.743 70.3733 119.514 70.384C119.284 70.3947 119.068 70.4293 118.866 70.488C118.69 70.5413 118.514 70.6347 118.338 70.768C118.167 70.896 118.023 71.0693 117.906 71.288C117.788 71.5013 117.73 71.7627 117.73 72.072C117.73 72.504 117.847 72.8507 118.082 73.112C118.322 73.368 118.62 73.544 118.978 73.64C119.17 73.6827 119.362 73.7093 119.554 73.72C119.746 73.7307 119.911 73.736 120.05 73.736ZM135.625 69.36V78H134.481V71.272L129.745 78H128.753V69.36H129.897V76.032L134.641 69.36H135.625ZM137.862 78V69.36H138.91L142.278 76.432L145.654 69.36H146.694V78H145.558V71.872L142.654 78H141.91L139.006 71.872V78H137.862ZM152.589 78.24C151.746 78.24 151.015 78.0533 150.397 77.68C149.783 77.3067 149.306 76.7813 148.965 76.104C148.623 75.4267 148.453 74.632 148.453 73.72C148.453 72.776 148.621 71.96 148.957 71.272C149.293 70.584 149.765 70.0533 150.373 69.68C150.986 69.3067 151.709 69.12 152.541 69.12C153.394 69.12 154.122 69.3173 154.725 69.712C155.327 70.1013 155.783 70.6613 156.093 71.392C156.402 72.1227 156.543 72.9947 156.517 74.008H155.317V73.592C155.295 72.472 155.053 71.6267 154.589 71.056C154.13 70.4853 153.458 70.2 152.573 70.2C151.645 70.2 150.933 70.5013 150.437 71.104C149.946 71.7067 149.701 72.5653 149.701 73.68C149.701 74.768 149.946 75.6133 150.437 76.216C150.933 76.8133 151.634 77.112 152.541 77.112C153.159 77.112 153.698 76.9707 154.157 76.688C154.621 76.4 154.986 75.9867 155.253 75.448L156.349 75.872C156.007 76.624 155.503 77.208 154.837 77.624C154.175 78.0347 153.426 78.24 152.589 78.24ZM149.285 74.008V73.024H155.885V74.008H149.285ZM161.948 78.24C161.105 78.24 160.375 78.0533 159.756 77.68C159.143 77.3067 158.665 76.7813 158.324 76.104C157.983 75.4267 157.812 74.632 157.812 73.72C157.812 72.776 157.98 71.96 158.316 71.272C158.652 70.584 159.124 70.0533 159.732 69.68C160.345 69.3067 161.068 69.12 161.9 69.12C162.753 69.12 163.481 69.3173 164.084 69.712C164.687 70.1013 165.143 70.6613 165.452 71.392C165.761 72.1227 165.903 72.9947 165.876 74.008H164.676V73.592C164.655 72.472 164.412 71.6267 163.948 71.056C163.489 70.4853 162.817 70.2 161.932 70.2C161.004 70.2 160.292 70.5013 159.796 71.104C159.305 71.7067 159.06 72.5653 159.06 73.68C159.06 74.768 159.305 75.6133 159.796 76.216C160.292 76.8133 160.993 77.112 161.9 77.112C162.519 77.112 163.057 76.9707 163.516 76.688C163.98 76.4 164.345 75.9867 164.612 75.448L165.708 75.872C165.367 76.624 164.863 77.208 164.196 77.624C163.535 78.0347 162.785 78.24 161.948 78.24ZM158.644 74.008V73.024H165.244V74.008H158.644ZM169.886 78V70.448H166.822V69.36H174.126V70.448H171.062V78H169.886ZM24.32 102V100.968C24.64 101.027 24.8827 101.013 25.048 100.928C25.2187 100.837 25.344 100.688 25.424 100.48C25.504 100.267 25.5707 100.003 25.624 99.688C25.7093 99.1653 25.7867 98.5893 25.856 97.96C25.9253 97.3307 25.9867 96.6373 26.04 95.88C26.0987 95.1173 26.1573 94.2773 26.216 93.36H32.088V102H30.92V94.488H27.304C27.2667 95.0533 27.224 95.616 27.176 96.176C27.128 96.736 27.0773 97.2747 27.024 97.792C26.976 98.304 26.9227 98.776 26.864 99.208C26.8053 99.64 26.744 100.013 26.68 100.328C26.584 100.803 26.456 101.181 26.296 101.464C26.1413 101.747 25.9093 101.933 25.6 102.024C25.2907 102.115 24.864 102.107 24.32 102ZM41.1871 93.36V102H40.0431V95.272L35.3071 102H34.3151V93.36H35.4591V100.032L40.2031 93.36H41.1871ZM50.8565 103.496V102H43.4245V93.36H44.6005V100.872H49.1205V93.36H50.2965V100.912H52.0325V103.496H50.8565ZM56.9635 102.24C56.1208 102.24 55.3902 102.053 54.7715 101.68C54.1582 101.307 53.6808 100.781 53.3395 100.104C52.9982 99.4267 52.8275 98.632 52.8275 97.72C52.8275 96.776 52.9955 95.96 53.3315 95.272C53.6675 94.584 54.1395 94.0533 54.7475 93.68C55.3608 93.3067 56.0835 93.12 56.9155 93.12C57.7688 93.12 58.4968 93.3173 59.0995 93.712C59.7022 94.1013 60.1582 94.6613 60.4675 95.392C60.7768 96.1227 60.9182 96.9947 60.8915 98.008H59.6915V97.592C59.6702 96.472 59.4275 95.6267 58.9635 95.056C58.5048 94.4853 57.8328 94.2 56.9475 94.2C56.0195 94.2 55.3075 94.5013 54.8115 95.104C54.3208 95.7067 54.0755 96.5653 54.0755 97.68C54.0755 98.768 54.3208 99.6133 54.8115 100.216C55.3075 100.813 56.0088 101.112 56.9155 101.112C57.5342 101.112 58.0728 100.971 58.5315 100.688C58.9955 100.4 59.3608 99.9867 59.6275 99.448L60.7235 99.872C60.3822 100.624 59.8782 101.208 59.2115 101.624C58.5502 102.035 57.8008 102.24 56.9635 102.24ZM53.6595 98.008V97.024H60.2595V98.008H53.6595ZM62.6589 102V93.36H63.8349V97.112H68.7069V93.36H69.8829V102H68.7069V98.24H63.8349V102H62.6589ZM75.232 102.24C74.3627 102.24 73.6027 102.051 72.952 101.672C72.3067 101.288 71.7973 100.757 71.424 100.08L72.368 99.48C72.6827 100.013 73.0747 100.419 73.544 100.696C74.0133 100.973 74.552 101.112 75.16 101.112C75.7947 101.112 76.304 100.965 76.688 100.672C77.072 100.379 77.264 99.976 77.264 99.464C77.264 99.112 77.1813 98.832 77.016 98.624C76.856 98.416 76.6107 98.2667 76.28 98.176C75.9547 98.0853 75.5467 98.04 75.056 98.04H74.032V97.032H75.04C75.6373 97.032 76.1173 96.9253 76.48 96.712C76.848 96.4933 77.032 96.152 77.032 95.688C77.032 95.1973 76.848 94.8347 76.48 94.6C76.1173 94.36 75.6827 94.24 75.176 94.24C74.664 94.24 74.1787 94.3467 73.72 94.56C73.2667 94.768 72.8853 95.0373 72.576 95.368L71.824 94.576C72.256 94.1013 72.76 93.7413 73.336 93.496C73.9173 93.2453 74.56 93.12 75.264 93.12C75.8187 93.12 76.32 93.2187 76.768 93.416C77.2213 93.608 77.5787 93.8907 77.84 94.264C78.1067 94.6373 78.24 95.0853 78.24 95.608C78.24 96.0987 78.12 96.5227 77.88 96.88C77.6453 97.2373 77.312 97.5333 76.88 97.768L76.816 97.328C77.1893 97.3973 77.4987 97.5467 77.744 97.776C77.9893 98.0053 78.1707 98.28 78.288 98.6C78.4053 98.92 78.464 99.2453 78.464 99.576C78.464 100.125 78.32 100.6 78.032 101C77.7493 101.395 77.3627 101.701 76.872 101.92C76.3867 102.133 75.84 102.24 75.232 102.24ZM87.0934 93.36V102H85.9494V95.272L81.2134 102H80.2214V93.36H81.3654V100.032L86.1094 93.36H87.0934ZM96.2028 93.36V102H95.0588V95.272L90.3228 102H89.3308V93.36H90.4748V100.032L95.2188 93.36H96.2028Z" fill="#737373"/>
<path d="M178.534 77.992L178.542 76.92L183.75 72.216C184.198 71.8107 184.494 71.4267 184.638 71.064C184.788 70.696 184.862 70.312 184.862 69.912C184.862 69.4373 184.75 69.008 184.526 68.624C184.302 68.24 184.001 67.936 183.622 67.712C183.244 67.4827 182.82 67.368 182.35 67.368C181.86 67.368 181.422 67.4853 181.038 67.72C180.654 67.9547 180.35 68.264 180.126 68.648C179.908 69.032 179.801 69.4507 179.806 69.904H178.606C178.606 69.2053 178.772 68.5787 179.102 68.024C179.433 67.4693 179.881 67.0347 180.446 66.72C181.012 66.4 181.652 66.24 182.366 66.24C183.065 66.24 183.692 66.4053 184.246 66.736C184.806 67.0613 185.246 67.504 185.566 68.064C185.892 68.6187 186.054 69.2373 186.054 69.92C186.054 70.4 185.996 70.824 185.878 71.192C185.766 71.5547 185.588 71.8933 185.342 72.208C185.102 72.5173 184.796 72.8373 184.422 73.168L179.798 77.344L179.614 76.864H186.054V77.992H178.534Z" fill="black"/>
<path d="M25.12 151V139.48H29.88C29.992 139.48 30.136 139.485 30.312 139.496C30.488 139.501 30.6507 139.517 30.8 139.544C31.4667 139.645 32.016 139.867 32.448 140.208C32.8853 140.549 33.208 140.981 33.416 141.504C33.6293 142.021 33.736 142.597 33.736 143.232C33.736 143.861 33.6293 144.437 33.416 144.96C33.2027 145.477 32.8773 145.907 32.44 146.248C32.008 146.589 31.4613 146.811 30.8 146.912C30.6507 146.933 30.4853 146.949 30.304 146.96C30.128 146.971 29.9867 146.976 29.88 146.976H27.048V151H25.12ZM27.048 145.176H29.8C29.9067 145.176 30.0267 145.171 30.16 145.16C30.2933 145.149 30.416 145.128 30.528 145.096C30.848 145.016 31.0987 144.875 31.28 144.672C31.4667 144.469 31.5973 144.24 31.672 143.984C31.752 143.728 31.792 143.477 31.792 143.232C31.792 142.987 31.752 142.736 31.672 142.48C31.5973 142.219 31.4667 141.987 31.28 141.784C31.0987 141.581 30.848 141.44 30.528 141.36C30.416 141.328 30.2933 141.309 30.16 141.304C30.0267 141.293 29.9067 141.288 29.8 141.288H27.048V145.176ZM38.8348 151.24C37.9708 151.24 37.2161 151.045 36.5708 150.656C35.9254 150.267 35.4241 149.731 35.0668 149.048C34.7148 148.36 34.5388 147.571 34.5388 146.68C34.5388 145.773 34.7201 144.979 35.0828 144.296C35.4454 143.613 35.9494 143.08 36.5948 142.696C37.2401 142.312 37.9868 142.12 38.8348 142.12C39.7041 142.12 40.4614 142.315 41.1068 142.704C41.7521 143.093 42.2534 143.632 42.6108 144.32C42.9681 145.003 43.1468 145.789 43.1468 146.68C43.1468 147.576 42.9654 148.368 42.6028 149.056C42.2454 149.739 41.7441 150.275 41.0988 150.664C40.4534 151.048 39.6988 151.24 38.8348 151.24ZM38.8348 149.432C39.6028 149.432 40.1734 149.176 40.5468 148.664C40.9201 148.152 41.1068 147.491 41.1068 146.68C41.1068 145.843 40.9174 145.176 40.5388 144.68C40.1601 144.179 39.5921 143.928 38.8348 143.928C38.3174 143.928 37.8908 144.045 37.5548 144.28C37.2241 144.509 36.9788 144.832 36.8188 145.248C36.6588 145.659 36.5788 146.136 36.5788 146.68C36.5788 147.517 36.7681 148.187 37.1468 148.688C37.5308 149.184 38.0934 149.432 38.8348 149.432ZM48.3414 151.24C47.4507 151.24 46.6907 151.043 46.0614 150.648C45.432 150.248 44.9494 149.704 44.6134 149.016C44.2827 148.328 44.1147 147.549 44.1094 146.68C44.1147 145.795 44.288 145.011 44.6294 144.328C44.976 143.64 45.4667 143.101 46.1014 142.712C46.736 142.317 47.4907 142.12 48.3654 142.12C49.3467 142.12 50.176 142.368 50.8534 142.864C51.536 143.355 51.9814 144.027 52.1894 144.88L50.2694 145.4C50.12 144.936 49.872 144.576 49.5254 144.32C49.1787 144.059 48.784 143.928 48.3414 143.928C47.84 143.928 47.4267 144.048 47.1014 144.288C46.776 144.523 46.536 144.848 46.3814 145.264C46.2267 145.68 46.1494 146.152 46.1494 146.68C46.1494 147.501 46.3334 148.165 46.7014 148.672C47.0694 149.179 47.616 149.432 48.3414 149.432C48.8534 149.432 49.256 149.315 49.5494 149.08C49.848 148.845 50.072 148.507 50.2214 148.064L52.1894 148.504C51.9227 149.384 51.456 150.061 50.7894 150.536C50.1227 151.005 49.3067 151.24 48.3414 151.24ZM55.5936 151V144.072H52.7056V142.36H60.4096V144.072H57.5216V151H55.5936ZM65.5336 151.24C64.659 151.24 63.891 151.051 63.2296 150.672C62.5683 150.293 62.051 149.768 61.6776 149.096C61.3096 148.424 61.1256 147.651 61.1256 146.776C61.1256 145.832 61.307 145.013 61.6696 144.32C62.0323 143.621 62.5363 143.08 63.1816 142.696C63.827 142.312 64.5736 142.12 65.4216 142.12C66.3176 142.12 67.0776 142.331 67.7016 142.752C68.331 143.168 68.7976 143.757 69.1016 144.52C69.4056 145.283 69.5203 146.181 69.4456 147.216H67.5336V146.512C67.5283 145.573 67.363 144.888 67.0376 144.456C66.7123 144.024 66.2003 143.808 65.5016 143.808C64.7123 143.808 64.1256 144.053 63.7416 144.544C63.3576 145.029 63.1656 145.741 63.1656 146.68C63.1656 147.555 63.3576 148.232 63.7416 148.712C64.1256 149.192 64.6856 149.432 65.4216 149.432C65.8963 149.432 66.3043 149.328 66.6456 149.12C66.9923 148.907 67.259 148.6 67.4456 148.2L69.3496 148.776C69.019 149.555 68.507 150.16 67.8136 150.592C67.1256 151.024 66.3656 151.24 65.5336 151.24ZM62.5576 147.216V145.76H68.5016V147.216H62.5576ZM69.6381 151L72.7981 146.632L69.7021 142.36H71.9741L73.9181 145.12L75.8301 142.36H78.1021L75.0061 146.632L78.1821 151H75.9101L73.9181 148.144L71.9101 151H69.6381ZM79.1215 151V142.36H81.0495V145.768H84.9295V142.36H86.8575V151H84.9295V147.576H81.0495V151H79.1215ZM91.1866 151.24C90.5626 151.24 90.0346 151.123 89.6026 150.888C89.1706 150.648 88.8426 150.331 88.6186 149.936C88.4 149.541 88.2906 149.107 88.2906 148.632C88.2906 148.216 88.36 147.843 88.4986 147.512C88.6373 147.176 88.8506 146.888 89.1386 146.648C89.4266 146.403 89.8 146.203 90.2586 146.048C90.6053 145.936 91.0106 145.835 91.4746 145.744C91.944 145.653 92.4506 145.571 92.9946 145.496C93.544 145.416 94.1173 145.331 94.7146 145.24L94.0266 145.632C94.032 145.035 93.8986 144.595 93.6266 144.312C93.3546 144.029 92.896 143.888 92.2506 143.888C91.8613 143.888 91.4853 143.979 91.1226 144.16C90.76 144.341 90.5066 144.653 90.3626 145.096L88.6026 144.544C88.816 143.813 89.2213 143.227 89.8186 142.784C90.4213 142.341 91.232 142.12 92.2506 142.12C93.0186 142.12 93.6933 142.245 94.2746 142.496C94.8613 142.747 95.296 143.157 95.5786 143.728C95.7333 144.032 95.8266 144.344 95.8586 144.664C95.8906 144.979 95.9066 145.323 95.9066 145.696V151H94.2186V149.128L94.4986 149.432C94.1093 150.056 93.6533 150.515 93.1306 150.808C92.6133 151.096 91.9653 151.24 91.1866 151.24ZM91.5706 149.704C92.008 149.704 92.3813 149.627 92.6906 149.472C93 149.317 93.2453 149.128 93.4266 148.904C93.6133 148.68 93.7386 148.469 93.8026 148.272C93.904 148.027 93.96 147.747 93.9706 147.432C93.9866 147.112 93.9946 146.853 93.9946 146.656L94.5866 146.832C94.0053 146.923 93.5066 147.003 93.0906 147.072C92.6746 147.141 92.3173 147.208 92.0186 147.272C91.72 147.331 91.456 147.397 91.2266 147.472C91.0026 147.552 90.8133 147.645 90.6586 147.752C90.504 147.859 90.384 147.981 90.2986 148.12C90.2186 148.259 90.1786 148.421 90.1786 148.608C90.1786 148.821 90.232 149.011 90.3386 149.176C90.4453 149.336 90.6 149.464 90.8026 149.56C91.0106 149.656 91.2666 149.704 91.5706 149.704ZM97.0294 152.92V149.488C97.4987 149.488 97.832 149.328 98.0294 149.008C98.2267 148.688 98.384 148.133 98.5014 147.344C98.576 146.875 98.6374 146.379 98.6854 145.856C98.7334 145.333 98.7734 144.781 98.8054 144.2C98.8427 143.619 98.8747 143.005 98.9014 142.36H105.333V149.488H106.205V152.92H104.381V151H98.8454V152.92H97.0294ZM99.6134 149.488H103.413V143.872H100.589C100.573 144.192 100.555 144.52 100.533 144.856C100.512 145.187 100.488 145.517 100.461 145.848C100.435 146.179 100.405 146.496 100.373 146.8C100.347 147.099 100.315 147.376 100.277 147.632C100.219 148.08 100.147 148.448 100.061 148.736C99.976 149.024 99.8267 149.275 99.6134 149.488ZM110.562 151.24C109.741 151.24 108.991 151.067 108.314 150.72C107.637 150.373 107.103 149.899 106.714 149.296L108.234 148.28C108.543 148.648 108.887 148.933 109.266 149.136C109.645 149.333 110.066 149.432 110.53 149.432C111.015 149.432 111.397 149.325 111.674 149.112C111.951 148.899 112.09 148.613 112.09 148.256C112.09 147.941 111.997 147.72 111.81 147.592C111.623 147.459 111.378 147.379 111.074 147.352C110.77 147.325 110.445 147.312 110.098 147.312H109.458V145.784H110.09C110.575 145.784 110.981 145.728 111.306 145.616C111.637 145.504 111.802 145.256 111.802 144.872C111.802 144.525 111.674 144.28 111.418 144.136C111.162 143.987 110.863 143.912 110.522 143.912C110.106 143.912 109.695 144 109.29 144.176C108.885 144.352 108.522 144.565 108.202 144.816L107.114 143.504C107.594 143.077 108.13 142.741 108.722 142.496C109.314 142.245 109.946 142.12 110.618 142.12C111.173 142.12 111.69 142.216 112.17 142.408C112.655 142.6 113.045 142.888 113.338 143.272C113.637 143.656 113.786 144.131 113.786 144.696C113.786 145.101 113.698 145.483 113.522 145.84C113.351 146.197 113.077 146.536 112.698 146.856L112.674 146.232C112.967 146.355 113.215 146.525 113.418 146.744C113.626 146.963 113.783 147.219 113.89 147.512C114.002 147.805 114.058 148.117 114.058 148.448C114.058 149.051 113.898 149.56 113.578 149.976C113.258 150.392 112.831 150.707 112.298 150.92C111.77 151.133 111.191 151.24 110.562 151.24ZM119.314 151.24C118.45 151.24 117.695 151.045 117.05 150.656C116.405 150.267 115.903 149.731 115.546 149.048C115.194 148.36 115.018 147.571 115.018 146.68C115.018 145.773 115.199 144.979 115.562 144.296C115.925 143.613 116.429 143.08 117.074 142.696C117.719 142.312 118.466 142.12 119.314 142.12C120.183 142.12 120.941 142.315 121.586 142.704C122.231 143.093 122.733 143.632 123.09 144.32C123.447 145.003 123.626 145.789 123.626 146.68C123.626 147.576 123.445 148.368 123.082 149.056C122.725 149.739 122.223 150.275 121.578 150.664C120.933 151.048 120.178 151.24 119.314 151.24ZM119.314 149.432C120.082 149.432 120.653 149.176 121.026 148.664C121.399 148.152 121.586 147.491 121.586 146.68C121.586 145.843 121.397 145.176 121.018 144.68C120.639 144.179 120.071 143.928 119.314 143.928C118.797 143.928 118.37 144.045 118.034 144.28C117.703 144.509 117.458 144.832 117.298 145.248C117.138 145.659 117.058 146.136 117.058 146.68C117.058 147.517 117.247 148.187 117.626 148.688C118.01 149.184 118.573 149.432 119.314 149.432ZM129.221 151.24C128.378 151.24 127.671 151.04 127.101 150.64C126.53 150.24 126.101 149.696 125.813 149.008C125.525 148.315 125.381 147.539 125.381 146.68C125.381 145.811 125.525 145.032 125.813 144.344C126.101 143.656 126.522 143.115 127.077 142.72C127.637 142.32 128.327 142.12 129.149 142.12C129.965 142.12 130.671 142.32 131.269 142.72C131.871 143.115 132.338 143.656 132.669 144.344C132.999 145.027 133.165 145.805 133.165 146.68C133.165 147.544 133.002 148.32 132.677 149.008C132.351 149.696 131.893 150.24 131.301 150.64C130.709 151.04 130.015 151.24 129.221 151.24ZM125.053 154.84V142.36H126.757V148.424H126.997V154.84H125.053ZM128.925 149.512C129.426 149.512 129.839 149.387 130.165 149.136C130.49 148.885 130.73 148.547 130.885 148.12C131.045 147.688 131.125 147.208 131.125 146.68C131.125 146.157 131.045 145.683 130.885 145.256C130.725 144.824 130.477 144.483 130.141 144.232C129.805 143.976 129.378 143.848 128.861 143.848C128.37 143.848 127.97 143.968 127.661 144.208C127.351 144.443 127.122 144.773 126.973 145.2C126.829 145.621 126.757 146.115 126.757 146.68C126.757 147.24 126.829 147.733 126.973 148.16C127.122 148.587 127.354 148.92 127.669 149.16C127.989 149.395 128.407 149.512 128.925 149.512Z" fill="#272833"/>
<path d="M28.116 172.21C27.3553 172.21 26.7113 172.04 26.184 171.699C25.6567 171.358 25.2553 170.889 24.98 170.292C24.7093 169.69 24.5693 168.999 24.56 168.22C24.5693 167.427 24.714 166.731 24.994 166.134C25.274 165.532 25.6777 165.065 26.205 164.734C26.7323 164.398 27.3717 164.23 28.123 164.23C28.8883 164.23 29.5533 164.417 30.118 164.79C30.6873 165.163 31.077 165.674 31.287 166.323L30.279 166.645C30.1017 166.192 29.8193 165.842 29.432 165.595C29.0493 165.343 28.6107 165.217 28.116 165.217C27.5607 165.217 27.101 165.345 26.737 165.602C26.373 165.854 26.1023 166.206 25.925 166.659C25.7477 167.112 25.6567 167.632 25.652 168.22C25.6613 169.125 25.8713 169.853 26.282 170.404C26.6927 170.95 27.304 171.223 28.116 171.223C28.6293 171.223 29.0657 171.106 29.425 170.873C29.789 170.635 30.0643 170.29 30.251 169.837L31.287 170.145C31.007 170.817 30.5963 171.33 30.055 171.685C29.5137 172.035 28.8673 172.21 28.116 172.21ZM35.2547 171.993L35.2617 171.055L39.8187 166.939C40.2107 166.584 40.4697 166.248 40.5957 165.931C40.7264 165.609 40.7917 165.273 40.7917 164.923C40.7917 164.508 40.6937 164.132 40.4977 163.796C40.3017 163.46 40.038 163.194 39.7067 162.998C39.3754 162.797 39.0044 162.697 38.5937 162.697C38.1644 162.697 37.7817 162.8 37.4457 163.005C37.1097 163.21 36.8437 163.481 36.6477 163.817C36.4564 164.153 36.363 164.519 36.3677 164.916H35.3177C35.3177 164.305 35.4624 163.756 35.7517 163.271C36.041 162.786 36.433 162.405 36.9277 162.13C37.4224 161.85 37.9824 161.71 38.6077 161.71C39.219 161.71 39.7674 161.855 40.2527 162.144C40.7427 162.429 41.1277 162.816 41.4077 163.306C41.6924 163.791 41.8347 164.333 41.8347 164.93C41.8347 165.35 41.7834 165.721 41.6807 166.043C41.5827 166.36 41.4264 166.657 41.2117 166.932C41.0017 167.203 40.7334 167.483 40.4067 167.772L36.3607 171.426L36.1997 171.006H41.8347V171.993H35.2547ZM47.6836 172V170.047H42.9656V169.067L46.3396 161.92H47.4946L44.1206 169.067H47.6836V166.127H48.7196V169.067H49.8186V170.047H48.7196V172H47.6836ZM51.426 172V170.803H52.623V172H51.426ZM58.0747 172.21C57.454 172.21 56.894 172.065 56.3947 171.776C55.9 171.487 55.508 171.095 55.2187 170.6C54.9294 170.101 54.7847 169.541 54.7847 168.92V165C54.7847 164.379 54.9294 163.822 55.2187 163.327C55.508 162.828 55.9 162.433 56.3947 162.144C56.894 161.855 57.454 161.71 58.0747 161.71C58.6954 161.71 59.253 161.855 59.7477 162.144C60.247 162.433 60.6414 162.828 60.9307 163.327C61.22 163.822 61.3647 164.379 61.3647 165V168.92C61.3647 169.541 61.22 170.101 60.9307 170.6C60.6414 171.095 60.247 171.487 59.7477 171.776C59.253 172.065 58.6954 172.21 58.0747 172.21ZM58.0747 171.216C58.49 171.216 58.868 171.116 59.2087 170.915C59.5494 170.71 59.82 170.437 60.0207 170.096C60.2214 169.755 60.3217 169.38 60.3217 168.969V164.951C60.3217 164.536 60.2214 164.158 60.0207 163.817C59.82 163.476 59.5494 163.206 59.2087 163.005C58.868 162.8 58.49 162.697 58.0747 162.697C57.6594 162.697 57.2814 162.8 56.9407 163.005C56.6 163.206 56.3294 163.476 56.1287 163.817C55.928 164.158 55.8277 164.536 55.8277 164.951V168.969C55.8277 169.38 55.928 169.755 56.1287 170.096C56.3294 170.437 56.6 170.71 56.9407 170.915C57.2814 171.116 57.6594 171.216 58.0747 171.216ZM63.8686 172L67.5786 162.921H62.9096V161.92H68.6776V162.921L64.9746 172H63.8686ZM69.6233 172V170.803H70.8203V172H69.6233ZM72.702 171.993L72.709 171.055L77.266 166.939C77.658 166.584 77.917 166.248 78.043 165.931C78.1736 165.609 78.239 165.273 78.239 164.923C78.239 164.508 78.141 164.132 77.945 163.796C77.749 163.46 77.4853 163.194 77.154 162.998C76.8226 162.797 76.4516 162.697 76.041 162.697C75.6116 162.697 75.229 162.8 74.893 163.005C74.557 163.21 74.291 163.481 74.095 163.817C73.9036 164.153 73.8103 164.519 73.815 164.916H72.765C72.765 164.305 72.9096 163.756 73.199 163.271C73.4883 162.786 73.8803 162.405 74.375 162.13C74.8696 161.85 75.4296 161.71 76.055 161.71C76.6663 161.71 77.2146 161.855 77.7 162.144C78.19 162.429 78.575 162.816 78.855 163.306C79.1396 163.791 79.282 164.333 79.282 164.93C79.282 165.35 79.2306 165.721 79.128 166.043C79.03 166.36 78.8736 166.657 78.659 166.932C78.449 167.203 78.1806 167.483 77.854 167.772L73.808 171.426L73.647 171.006H79.282V171.993H72.702ZM84.2563 172.21C83.6357 172.21 83.0757 172.065 82.5763 171.776C82.0817 171.487 81.6897 171.095 81.4003 170.6C81.111 170.101 80.9663 169.541 80.9663 168.92V165C80.9663 164.379 81.111 163.822 81.4003 163.327C81.6897 162.828 82.0817 162.433 82.5763 162.144C83.0757 161.855 83.6357 161.71 84.2563 161.71C84.877 161.71 85.4347 161.855 85.9293 162.144C86.4287 162.433 86.823 162.828 87.1123 163.327C87.4017 163.822 87.5463 164.379 87.5463 165V168.92C87.5463 169.541 87.4017 170.101 87.1123 170.6C86.823 171.095 86.4287 171.487 85.9293 171.776C85.4347 172.065 84.877 172.21 84.2563 172.21ZM84.2563 171.216C84.6717 171.216 85.0497 171.116 85.3903 170.915C85.731 170.71 86.0017 170.437 86.2023 170.096C86.403 169.755 86.5033 169.38 86.5033 168.969V164.951C86.5033 164.536 86.403 164.158 86.2023 163.817C86.0017 163.476 85.731 163.206 85.3903 163.005C85.0497 162.8 84.6717 162.697 84.2563 162.697C83.841 162.697 83.463 162.8 83.1223 163.005C82.7817 163.206 82.511 163.476 82.3103 163.817C82.1097 164.158 82.0093 164.536 82.0093 164.951V168.969C82.0093 169.38 82.1097 169.755 82.3103 170.096C82.511 170.437 82.7817 170.71 83.1223 170.915C83.463 171.116 83.841 171.216 84.2563 171.216ZM91.2683 172V163.068L89.3713 164.209V163.054L91.2683 161.92H92.3113V172H91.2683ZM95.5053 172L99.2153 162.921H94.5463V161.92H100.314V162.921L96.6113 172H95.5053Z" fill="#737373"/>
<path d="M42.441 210.68V207.418C42.7677 207.418 43.0407 207.336 43.26 207.173C43.4793 207.01 43.6543 206.783 43.785 206.494C43.9203 206.205 44.0253 205.869 44.1 205.486C44.1747 205.099 44.233 204.688 44.275 204.254C44.3263 203.68 44.3707 203.118 44.408 202.567C44.4453 202.012 44.4803 201.438 44.513 200.845C44.5503 200.248 44.5923 199.601 44.639 198.906L51.212 198.92V207.418H51.968V210.68H50.288V209H44.128V210.68H42.441ZM45.066 207.418H49.525V200.502L46.179 200.488C46.1463 200.978 46.1183 201.435 46.095 201.86C46.0763 202.28 46.0507 202.707 46.018 203.141C45.99 203.575 45.9503 204.049 45.899 204.562C45.8523 205.066 45.801 205.486 45.745 205.822C45.6937 206.158 45.6167 206.45 45.514 206.697C45.4113 206.94 45.262 207.18 45.066 207.418ZM56.9443 209.21C56.179 209.21 55.507 209.044 54.9283 208.713C54.3497 208.382 53.897 207.922 53.5703 207.334C53.2483 206.746 53.0873 206.069 53.0873 205.304C53.0873 204.478 53.246 203.762 53.5633 203.155C53.8807 202.544 54.3217 202.07 54.8863 201.734C55.451 201.398 56.1043 201.23 56.8463 201.23C57.6303 201.23 58.2953 201.414 58.8413 201.783C59.392 202.147 59.8003 202.663 60.0663 203.33C60.3323 203.997 60.4327 204.784 60.3673 205.689H58.6943V205.073C58.6897 204.252 58.545 203.652 58.2603 203.274C57.9757 202.896 57.5277 202.707 56.9163 202.707C56.2257 202.707 55.7123 202.922 55.3763 203.351C55.0403 203.776 54.8723 204.399 54.8723 205.22C54.8723 205.985 55.0403 206.578 55.3763 206.998C55.7123 207.418 56.2023 207.628 56.8463 207.628C57.2617 207.628 57.6187 207.537 57.9173 207.355C58.2207 207.168 58.454 206.9 58.6173 206.55L60.2833 207.054C59.994 207.735 59.546 208.265 58.9393 208.643C58.3373 209.021 57.6723 209.21 56.9443 209.21ZM54.3403 205.689V204.415H59.5413V205.689H54.3403ZM65.4222 200.586C65.0349 200.586 64.6802 200.49 64.3582 200.299C64.0362 200.108 63.7796 199.853 63.5882 199.536C63.3969 199.214 63.3012 198.857 63.3012 198.465H64.6172C64.6172 198.689 64.6942 198.88 64.8482 199.039C65.0069 199.193 65.1982 199.27 65.4222 199.27C65.6462 199.27 65.8352 199.193 65.9892 199.039C66.1479 198.88 66.2272 198.689 66.2272 198.465H67.5432C67.5432 198.857 67.4476 199.214 67.2562 199.536C67.0649 199.853 66.8082 200.108 66.4862 200.299C66.1642 200.49 65.8096 200.586 65.4222 200.586ZM68.4812 201.44V209H66.8642V204.065L63.2662 209H61.9152V201.44H63.5322V206.249L67.1442 201.44H68.4812ZM73.7298 209.21C72.9505 209.21 72.2855 209.037 71.7348 208.692C71.1841 208.342 70.7618 207.866 70.4678 207.264C70.1785 206.662 70.0315 205.981 70.0268 205.22C70.0315 204.445 70.1831 203.759 70.4818 203.162C70.7851 202.56 71.2145 202.089 71.7698 201.748C72.3251 201.403 72.9855 201.23 73.7508 201.23C74.6095 201.23 75.3351 201.447 75.9278 201.881C76.5251 202.31 76.9148 202.898 77.0968 203.645L75.4168 204.1C75.2861 203.694 75.0691 203.379 74.7658 203.155C74.4625 202.926 74.1171 202.812 73.7298 202.812C73.2911 202.812 72.9295 202.917 72.6448 203.127C72.3601 203.332 72.1501 203.617 72.0148 203.981C71.8795 204.345 71.8118 204.758 71.8118 205.22C71.8118 205.939 71.9728 206.52 72.2948 206.963C72.6168 207.406 73.0951 207.628 73.7298 207.628C74.1778 207.628 74.5301 207.525 74.7868 207.32C75.0481 207.115 75.2441 206.818 75.3748 206.431L77.0968 206.816C76.8635 207.586 76.4551 208.179 75.8718 208.594C75.2885 209.005 74.5745 209.21 73.7298 209.21ZM80.3555 209V202.938H77.8285V201.44H84.5695V202.938H82.0425V209H80.3555ZM85.882 209V201.44H89.319C89.5663 201.44 89.7973 201.454 90.012 201.482C90.2267 201.51 90.411 201.545 90.565 201.587C90.929 201.694 91.251 201.904 91.531 202.217C91.811 202.525 91.951 202.952 91.951 203.498C91.951 203.82 91.8997 204.086 91.797 204.296C91.6943 204.501 91.559 204.674 91.391 204.814C91.3117 204.879 91.23 204.935 91.146 204.982C91.062 205.029 90.978 205.066 90.894 205.094C91.076 205.122 91.2487 205.176 91.412 205.255C91.6687 205.381 91.8833 205.568 92.056 205.815C92.2333 206.062 92.322 206.41 92.322 206.858C92.322 207.367 92.1983 207.796 91.951 208.146C91.7083 208.491 91.3513 208.732 90.88 208.867C90.7073 208.914 90.509 208.949 90.285 208.972C90.061 208.991 89.8323 209 89.599 209H85.882ZM87.59 207.698H89.48C89.578 207.698 89.6853 207.689 89.802 207.67C89.9187 207.651 90.0237 207.626 90.117 207.593C90.285 207.532 90.4063 207.425 90.481 207.271C90.5603 207.117 90.6 206.956 90.6 206.788C90.6 206.559 90.5417 206.377 90.425 206.242C90.313 206.102 90.1777 206.009 90.019 205.962C89.9257 205.925 89.823 205.904 89.711 205.899C89.6037 205.89 89.515 205.885 89.445 205.885H87.59V207.698ZM87.59 204.562H88.99C89.1347 204.562 89.2747 204.555 89.41 204.541C89.55 204.522 89.6667 204.492 89.76 204.45C89.914 204.389 90.026 204.287 90.096 204.142C90.1707 203.997 90.208 203.836 90.208 203.659C90.208 203.472 90.166 203.304 90.082 203.155C90.0027 203.001 89.8743 202.898 89.697 202.847C89.5803 202.8 89.438 202.775 89.27 202.77C89.1067 202.765 89.0017 202.763 88.955 202.763H87.59V204.562ZM94.7103 212.36L96.1663 208.363L96.1943 209.539L92.8973 201.44H94.6543L96.9923 207.432H96.5443L98.8193 201.44H100.506L96.2923 212.36H94.7103ZM104.987 209.21C104.222 209.21 103.55 209.044 102.971 208.713C102.393 208.382 101.94 207.922 101.613 207.334C101.291 206.746 101.13 206.069 101.13 205.304C101.13 204.478 101.289 203.762 101.606 203.155C101.924 202.544 102.365 202.07 102.929 201.734C103.494 201.398 104.147 201.23 104.889 201.23C105.673 201.23 106.338 201.414 106.884 201.783C107.435 202.147 107.843 202.663 108.109 203.33C108.375 203.997 108.476 204.784 108.41 205.689H106.737V205.073C106.733 204.252 106.588 203.652 106.303 203.274C106.019 202.896 105.571 202.707 104.959 202.707C104.269 202.707 103.755 202.922 103.419 203.351C103.083 203.776 102.915 204.399 102.915 205.22C102.915 205.985 103.083 206.578 103.419 206.998C103.755 207.418 104.245 207.628 104.889 207.628C105.305 207.628 105.662 207.537 105.96 207.355C106.264 207.168 106.497 206.9 106.66 206.55L108.326 207.054C108.037 207.735 107.589 208.265 106.982 208.643C106.38 209.021 105.715 209.21 104.987 209.21ZM102.383 205.689V204.415H107.584V205.689H102.383ZM111.637 209V202.938H109.11V201.44H115.851V202.938H113.324V209H111.637Z" fill="#00D45F"/>
<rect x="24.5" y="186.5" width="110" height="35" rx="7.5" stroke="#00D45F"/>
<path d="M25.12 263V251.48H29.88C29.992 251.48 30.136 251.485 30.312 251.496C30.488 251.501 30.6507 251.517 30.8 251.544C31.4667 251.645 32.016 251.867 32.448 252.208C32.8853 252.549 33.208 252.981 33.416 253.504C33.6293 254.021 33.736 254.597 33.736 255.232C33.736 255.861 33.6293 256.437 33.416 256.96C33.2027 257.477 32.8773 257.907 32.44 258.248C32.008 258.589 31.4613 258.811 30.8 258.912C30.6507 258.933 30.4853 258.949 30.304 258.96C30.128 258.971 29.9867 258.976 29.88 258.976H27.048V263H25.12ZM27.048 257.176H29.8C29.9067 257.176 30.0267 257.171 30.16 257.16C30.2933 257.149 30.416 257.128 30.528 257.096C30.848 257.016 31.0987 256.875 31.28 256.672C31.4667 256.469 31.5973 256.24 31.672 255.984C31.752 255.728 31.792 255.477 31.792 255.232C31.792 254.987 31.752 254.736 31.672 254.48C31.5973 254.219 31.4667 253.987 31.28 253.784C31.0987 253.581 30.848 253.44 30.528 253.36C30.416 253.328 30.2933 253.309 30.16 253.304C30.0267 253.293 29.9067 253.288 29.8 253.288H27.048V257.176ZM38.8348 263.24C37.9708 263.24 37.2161 263.045 36.5708 262.656C35.9254 262.267 35.4241 261.731 35.0668 261.048C34.7148 260.36 34.5388 259.571 34.5388 258.68C34.5388 257.773 34.7201 256.979 35.0828 256.296C35.4454 255.613 35.9494 255.08 36.5948 254.696C37.2401 254.312 37.9868 254.12 38.8348 254.12C39.7041 254.12 40.4614 254.315 41.1068 254.704C41.7521 255.093 42.2534 255.632 42.6108 256.32C42.9681 257.003 43.1468 257.789 43.1468 258.68C43.1468 259.576 42.9654 260.368 42.6028 261.056C42.2454 261.739 41.7441 262.275 41.0988 262.664C40.4534 263.048 39.6988 263.24 38.8348 263.24ZM38.8348 261.432C39.6028 261.432 40.1734 261.176 40.5468 260.664C40.9201 260.152 41.1068 259.491 41.1068 258.68C41.1068 257.843 40.9174 257.176 40.5388 256.68C40.1601 256.179 39.5921 255.928 38.8348 255.928C38.3174 255.928 37.8908 256.045 37.5548 256.28C37.2241 256.509 36.9788 256.832 36.8188 257.248C36.6588 257.659 36.5788 258.136 36.5788 258.68C36.5788 259.517 36.7681 260.187 37.1468 260.688C37.5308 261.184 38.0934 261.432 38.8348 261.432ZM48.3414 263.24C47.4507 263.24 46.6907 263.043 46.0614 262.648C45.432 262.248 44.9494 261.704 44.6134 261.016C44.2827 260.328 44.1147 259.549 44.1094 258.68C44.1147 257.795 44.288 257.011 44.6294 256.328C44.976 255.64 45.4667 255.101 46.1014 254.712C46.736 254.317 47.4907 254.12 48.3654 254.12C49.3467 254.12 50.176 254.368 50.8534 254.864C51.536 255.355 51.9814 256.027 52.1894 256.88L50.2694 257.4C50.12 256.936 49.872 256.576 49.5254 256.32C49.1787 256.059 48.784 255.928 48.3414 255.928C47.84 255.928 47.4267 256.048 47.1014 256.288C46.776 256.523 46.536 256.848 46.3814 257.264C46.2267 257.68 46.1494 258.152 46.1494 258.68C46.1494 259.501 46.3334 260.165 46.7014 260.672C47.0694 261.179 47.616 261.432 48.3414 261.432C48.8534 261.432 49.256 261.315 49.5494 261.08C49.848 260.845 50.072 260.507 50.2214 260.064L52.1894 260.504C51.9227 261.384 51.456 262.061 50.7894 262.536C50.1227 263.005 49.3067 263.24 48.3414 263.24ZM55.7479 263.24C55.1239 263.24 54.5959 263.123 54.1639 262.888C53.7319 262.648 53.4039 262.331 53.1799 261.936C52.9612 261.541 52.8519 261.107 52.8519 260.632C52.8519 260.216 52.9212 259.843 53.0599 259.512C53.1985 259.176 53.4119 258.888 53.6999 258.648C53.9879 258.403 54.3612 258.203 54.8199 258.048C55.1665 257.936 55.5719 257.835 56.0359 257.744C56.5052 257.653 57.0119 257.571 57.5559 257.496C58.1052 257.416 58.6785 257.331 59.2759 257.24L58.5879 257.632C58.5932 257.035 58.4599 256.595 58.1879 256.312C57.9159 256.029 57.4572 255.888 56.8119 255.888C56.4225 255.888 56.0465 255.979 55.6839 256.16C55.3212 256.341 55.0679 256.653 54.9239 257.096L53.1639 256.544C53.3772 255.813 53.7825 255.227 54.3799 254.784C54.9825 254.341 55.7932 254.12 56.8119 254.12C57.5799 254.12 58.2545 254.245 58.8359 254.496C59.4225 254.747 59.8572 255.157 60.1399 255.728C60.2945 256.032 60.3879 256.344 60.4199 256.664C60.4519 256.979 60.4679 257.323 60.4679 257.696V263H58.7799V261.128L59.0599 261.432C58.6705 262.056 58.2145 262.515 57.6919 262.808C57.1745 263.096 56.5265 263.24 55.7479 263.24ZM56.1319 261.704C56.5692 261.704 56.9425 261.627 57.2519 261.472C57.5612 261.317 57.8065 261.128 57.9879 260.904C58.1745 260.68 58.2999 260.469 58.3639 260.272C58.4652 260.027 58.5212 259.747 58.5319 259.432C58.5479 259.112 58.5559 258.853 58.5559 258.656L59.1479 258.832C58.5665 258.923 58.0679 259.003 57.6519 259.072C57.2359 259.141 56.8785 259.208 56.5799 259.272C56.2812 259.331 56.0172 259.397 55.7879 259.472C55.5639 259.552 55.3745 259.645 55.2199 259.752C55.0652 259.859 54.9452 259.981 54.8599 260.12C54.7799 260.259 54.7399 260.421 54.7399 260.608C54.7399 260.821 54.7932 261.011 54.8999 261.176C55.0065 261.336 55.1612 261.464 55.3639 261.56C55.5719 261.656 55.8279 261.704 56.1319 261.704ZM61.4306 263V261.384C61.7453 261.443 61.988 261.437 62.1586 261.368C62.3293 261.293 62.4573 261.155 62.5426 260.952C62.628 260.749 62.7026 260.48 62.7666 260.144C62.852 259.669 62.9266 259.123 62.9906 258.504C63.06 257.885 63.1186 257.224 63.1666 256.52C63.22 255.816 63.268 255.096 63.3106 254.36H69.6706V263H67.7506V256.168H65.0066C64.98 256.515 64.948 256.904 64.9106 257.336C64.8733 257.763 64.8333 258.195 64.7906 258.632C64.748 259.069 64.7 259.485 64.6466 259.88C64.5986 260.269 64.548 260.603 64.4946 260.88C64.372 261.504 64.196 261.997 63.9666 262.36C63.7426 262.723 63.428 262.955 63.0226 263.056C62.6173 263.163 62.0866 263.144 61.4306 263ZM71.5821 263L71.5981 254.36H73.5501V258.52L76.7101 254.36H79.1181L75.7661 258.68L79.4061 263H76.8541L73.5501 258.84V263H71.5821ZM83.5473 263.24C82.6833 263.24 81.9286 263.045 81.2833 262.656C80.6379 262.267 80.1366 261.731 79.7793 261.048C79.4273 260.36 79.2513 259.571 79.2513 258.68C79.2513 257.773 79.4326 256.979 79.7953 256.296C80.1579 255.613 80.6619 255.08 81.3073 254.696C81.9526 254.312 82.6993 254.12 83.5473 254.12C84.4166 254.12 85.1739 254.315 85.8193 254.704C86.4646 255.093 86.9659 255.632 87.3233 256.32C87.6806 257.003 87.8593 257.789 87.8593 258.68C87.8593 259.576 87.6779 260.368 87.3153 261.056C86.9579 261.739 86.4566 262.275 85.8113 262.664C85.1659 263.048 84.4113 263.24 83.5473 263.24ZM83.5473 261.432C84.3153 261.432 84.8859 261.176 85.2593 260.664C85.6326 260.152 85.8193 259.491 85.8193 258.68C85.8193 257.843 85.6299 257.176 85.2513 256.68C84.8726 256.179 84.3046 255.928 83.5473 255.928C83.0299 255.928 82.6033 256.045 82.2673 256.28C81.9366 256.509 81.6913 256.832 81.5313 257.248C81.3713 257.659 81.2913 258.136 81.2913 258.68C81.2913 259.517 81.4806 260.187 81.8593 260.688C82.2433 261.184 82.8059 261.432 83.5473 261.432ZM93.4539 263.24C92.6112 263.24 91.9045 263.04 91.3339 262.64C90.7632 262.24 90.3339 261.696 90.0459 261.008C89.7579 260.315 89.6139 259.539 89.6139 258.68C89.6139 257.811 89.7579 257.032 90.0459 256.344C90.3339 255.656 90.7552 255.115 91.3099 254.72C91.8699 254.32 92.5605 254.12 93.3819 254.12C94.1979 254.12 94.9045 254.32 95.5019 254.72C96.1045 255.115 96.5712 255.656 96.9019 256.344C97.2325 257.027 97.3979 257.805 97.3979 258.68C97.3979 259.544 97.2352 260.32 96.9099 261.008C96.5845 261.696 96.1259 262.24 95.5339 262.64C94.9419 263.04 94.2485 263.24 93.4539 263.24ZM89.2859 266.84V254.36H90.9899V260.424H91.2299V266.84H89.2859ZM93.1579 261.512C93.6592 261.512 94.0725 261.387 94.3979 261.136C94.7232 260.885 94.9632 260.547 95.1179 260.12C95.2779 259.688 95.3579 259.208 95.3579 258.68C95.3579 258.157 95.2779 257.683 95.1179 257.256C94.9579 256.824 94.7099 256.483 94.3739 256.232C94.0379 255.976 93.6112 255.848 93.0939 255.848C92.6032 255.848 92.2032 255.968 91.8939 256.208C91.5845 256.443 91.3552 256.773 91.2059 257.2C91.0619 257.621 90.9899 258.115 90.9899 258.68C90.9899 259.24 91.0619 259.733 91.2059 260.16C91.3552 260.587 91.5872 260.92 91.9019 261.16C92.2219 261.395 92.6405 261.512 93.1579 261.512ZM102.769 263.24C101.895 263.24 101.127 263.051 100.465 262.672C99.8039 262.293 99.2866 261.768 98.9133 261.096C98.5453 260.424 98.3613 259.651 98.3613 258.776C98.3613 257.832 98.5426 257.013 98.9053 256.32C99.2679 255.621 99.7719 255.08 100.417 254.696C101.063 254.312 101.809 254.12 102.657 254.12C103.553 254.12 104.313 254.331 104.937 254.752C105.567 255.168 106.033 255.757 106.337 256.52C106.641 257.283 106.756 258.181 106.681 259.216H104.769V258.512C104.764 257.573 104.599 256.888 104.273 256.456C103.948 256.024 103.436 255.808 102.737 255.808C101.948 255.808 101.361 256.053 100.977 256.544C100.593 257.029 100.401 257.741 100.401 258.68C100.401 259.555 100.593 260.232 100.977 260.712C101.361 261.192 101.921 261.432 102.657 261.432C103.132 261.432 103.54 261.328 103.881 261.12C104.228 260.907 104.495 260.6 104.681 260.2L106.585 260.776C106.255 261.555 105.743 262.16 105.049 262.592C104.361 263.024 103.601 263.24 102.769 263.24ZM99.7933 259.216V257.76H105.737V259.216H99.7933ZM108.146 263V254.36H114.306V256.168H110.074V263H108.146ZM116.384 266.84L118.048 262.272L118.08 263.616L114.312 254.36H116.32L118.992 261.208H118.48L121.08 254.36H123.008L118.192 266.84H116.384ZM122.769 263V261.384C123.083 261.443 123.326 261.437 123.497 261.368C123.667 261.293 123.795 261.155 123.881 260.952C123.966 260.749 124.041 260.48 124.105 260.144C124.19 259.669 124.265 259.123 124.329 258.504C124.398 257.885 124.457 257.224 124.505 256.52C124.558 255.816 124.606 255.096 124.649 254.36H131.009V263H129.089V256.168H126.345C126.318 256.515 126.286 256.904 126.249 257.336C126.211 257.763 126.171 258.195 126.129 258.632C126.086 259.069 126.038 259.485 125.985 259.88C125.937 260.269 125.886 260.603 125.833 260.88C125.71 261.504 125.534 261.997 125.305 262.36C125.081 262.723 124.766 262.955 124.361 263.056C123.955 263.163 123.425 263.144 122.769 263ZM140.424 254.36V263H138.576V257.36L134.464 263H132.92V254.36H134.768V259.856L138.896 254.36H140.424ZM146.503 263.24C145.66 263.24 144.953 263.04 144.383 262.64C143.812 262.24 143.383 261.696 143.095 261.008C142.807 260.315 142.663 259.539 142.663 258.68C142.663 257.811 142.807 257.032 143.095 256.344C143.383 255.656 143.804 255.115 144.359 254.72C144.919 254.32 145.609 254.12 146.431 254.12C147.247 254.12 147.953 254.32 148.551 254.72C149.153 255.115 149.62 255.656 149.951 256.344C150.281 257.027 150.447 257.805 150.447 258.68C150.447 259.544 150.284 260.32 149.959 261.008C149.633 261.696 149.175 262.24 148.583 262.64C147.991 263.04 147.297 263.24 146.503 263.24ZM142.335 266.84V254.36H144.039V260.424H144.279V266.84H142.335ZM146.207 261.512C146.708 261.512 147.121 261.387 147.447 261.136C147.772 260.885 148.012 260.547 148.167 260.12C148.327 259.688 148.407 259.208 148.407 258.68C148.407 258.157 148.327 257.683 148.167 257.256C148.007 256.824 147.759 256.483 147.423 256.232C147.087 255.976 146.66 255.848 146.143 255.848C145.652 255.848 145.252 255.968 144.943 256.208C144.633 256.443 144.404 256.773 144.255 257.2C144.111 257.621 144.039 258.115 144.039 258.68C144.039 259.24 144.111 259.733 144.255 260.16C144.404 260.587 144.636 260.92 144.951 261.16C145.271 261.395 145.689 261.512 146.207 261.512ZM155.706 263.24C154.842 263.24 154.087 263.045 153.442 262.656C152.797 262.267 152.295 261.731 151.938 261.048C151.586 260.36 151.41 259.571 151.41 258.68C151.41 257.773 151.591 256.979 151.954 256.296C152.317 255.613 152.821 255.08 153.466 254.696C154.111 254.312 154.858 254.12 155.706 254.12C156.575 254.12 157.333 254.315 157.978 254.704C158.623 255.093 159.125 255.632 159.482 256.32C159.839 257.003 160.018 257.789 160.018 258.68C160.018 259.576 159.837 260.368 159.474 261.056C159.117 261.739 158.615 262.275 157.97 262.664C157.325 263.048 156.57 263.24 155.706 263.24ZM155.706 261.432C156.474 261.432 157.045 261.176 157.418 260.664C157.791 260.152 157.978 259.491 157.978 258.68C157.978 257.843 157.789 257.176 157.41 256.68C157.031 256.179 156.463 255.928 155.706 255.928C155.189 255.928 154.762 256.045 154.426 256.28C154.095 256.509 153.85 256.832 153.69 257.248C153.53 257.659 153.45 258.136 153.45 258.68C153.45 259.517 153.639 260.187 154.018 260.688C154.402 261.184 154.965 261.432 155.706 261.432ZM161.445 263V254.36H165.373C165.655 254.36 165.919 254.376 166.165 254.408C166.41 254.44 166.621 254.48 166.797 254.528C167.213 254.651 167.581 254.891 167.901 255.248C168.221 255.6 168.381 256.088 168.381 256.712C168.381 257.08 168.322 257.384 168.205 257.624C168.087 257.859 167.933 258.056 167.741 258.216C167.65 258.291 167.557 258.355 167.461 258.408C167.365 258.461 167.269 258.504 167.173 258.536C167.381 258.568 167.578 258.629 167.765 258.72C168.058 258.864 168.303 259.077 168.501 259.36C168.703 259.643 168.805 260.04 168.805 260.552C168.805 261.133 168.663 261.624 168.381 262.024C168.103 262.419 167.695 262.693 167.157 262.848C166.959 262.901 166.733 262.941 166.477 262.968C166.221 262.989 165.959 263 165.693 263H161.445ZM163.397 261.512H165.557C165.669 261.512 165.791 261.501 165.925 261.48C166.058 261.459 166.178 261.429 166.285 261.392C166.477 261.323 166.615 261.2 166.701 261.024C166.791 260.848 166.837 260.664 166.837 260.472C166.837 260.211 166.77 260.003 166.637 259.848C166.509 259.688 166.354 259.581 166.173 259.528C166.066 259.485 165.949 259.461 165.821 259.456C165.698 259.445 165.597 259.44 165.517 259.44H163.397V261.512ZM163.397 257.928H164.997C165.162 257.928 165.322 257.92 165.477 257.904C165.637 257.883 165.77 257.848 165.877 257.8C166.053 257.731 166.181 257.613 166.261 257.448C166.346 257.283 166.389 257.099 166.389 256.896C166.389 256.683 166.341 256.491 166.245 256.32C166.154 256.144 166.007 256.027 165.805 255.968C165.671 255.915 165.509 255.885 165.317 255.88C165.13 255.875 165.01 255.872 164.957 255.872H163.397V257.928ZM172.494 263.24C171.87 263.24 171.342 263.123 170.91 262.888C170.478 262.648 170.15 262.331 169.926 261.936C169.707 261.541 169.598 261.107 169.598 260.632C169.598 260.216 169.667 259.843 169.806 259.512C169.945 259.176 170.158 258.888 170.446 258.648C170.734 258.403 171.107 258.203 171.566 258.048C171.913 257.936 172.318 257.835 172.782 257.744C173.251 257.653 173.758 257.571 174.302 257.496C174.851 257.416 175.425 257.331 176.022 257.24L175.334 257.632C175.339 257.035 175.206 256.595 174.934 256.312C174.662 256.029 174.203 255.888 173.558 255.888C173.169 255.888 172.793 255.979 172.43 256.16C172.067 256.341 171.814 256.653 171.67 257.096L169.91 256.544C170.123 255.813 170.529 255.227 171.126 254.784C171.729 254.341 172.539 254.12 173.558 254.12C174.326 254.12 175.001 254.245 175.582 254.496C176.169 254.747 176.603 255.157 176.886 255.728C177.041 256.032 177.134 256.344 177.166 256.664C177.198 256.979 177.214 257.323 177.214 257.696V263H175.526V261.128L175.806 261.432C175.417 262.056 174.961 262.515 174.438 262.808C173.921 263.096 173.273 263.24 172.494 263.24ZM172.878 261.704C173.315 261.704 173.689 261.627 173.998 261.472C174.307 261.317 174.553 261.128 174.734 260.904C174.921 260.68 175.046 260.469 175.11 260.272C175.211 260.027 175.267 259.747 175.278 259.432C175.294 259.112 175.302 258.853 175.302 258.656L175.894 258.832C175.313 258.923 174.814 259.003 174.398 259.072C173.982 259.141 173.625 259.208 173.326 259.272C173.027 259.331 172.763 259.397 172.534 259.472C172.31 259.552 172.121 259.645 171.966 259.752C171.811 259.859 171.691 259.981 171.606 260.12C171.526 260.259 171.486 260.421 171.486 260.608C171.486 260.821 171.539 261.011 171.646 261.176C171.753 261.336 171.907 261.464 172.11 261.56C172.318 261.656 172.574 261.704 172.878 261.704ZM178.961 263V254.36H180.889V257.768H184.769V254.36H186.697V263H184.769V259.576H180.889V263H178.961ZM196.098 254.36V263H194.25V257.36L190.138 263H188.594V254.36H190.442V259.856L194.57 254.36H196.098ZM201.952 263.24C201.078 263.24 200.31 263.051 199.648 262.672C198.987 262.293 198.47 261.768 198.096 261.096C197.728 260.424 197.544 259.651 197.544 258.776C197.544 257.832 197.726 257.013 198.088 256.32C198.451 255.621 198.955 255.08 199.6 254.696C200.246 254.312 200.992 254.12 201.84 254.12C202.736 254.12 203.496 254.331 204.12 254.752C204.75 255.168 205.216 255.757 205.52 256.52C205.824 257.283 205.939 258.181 205.864 259.216H203.952V258.512C203.947 257.573 203.782 256.888 203.456 256.456C203.131 256.024 202.619 255.808 201.92 255.808C201.131 255.808 200.544 256.053 200.16 256.544C199.776 257.029 199.584 257.741 199.584 258.68C199.584 259.555 199.776 260.232 200.16 260.712C200.544 261.192 201.104 261.432 201.84 261.432C202.315 261.432 202.723 261.328 203.064 261.12C203.411 260.907 203.678 260.6 203.864 260.2L205.768 260.776C205.438 261.555 204.926 262.16 204.232 262.592C203.544 263.024 202.784 263.24 201.952 263.24ZM198.976 259.216V257.76H204.92V259.216H198.976Z" fill="#272833"/>
<path d="M28.116 284.21C27.3553 284.21 26.7113 284.04 26.184 283.699C25.6567 283.358 25.2553 282.889 24.98 282.292C24.7093 281.69 24.5693 280.999 24.56 280.22C24.5693 279.427 24.714 278.731 24.994 278.134C25.274 277.532 25.6777 277.065 26.205 276.734C26.7323 276.398 27.3717 276.23 28.123 276.23C28.8883 276.23 29.5533 276.417 30.118 276.79C30.6873 277.163 31.077 277.674 31.287 278.323L30.279 278.645C30.1017 278.192 29.8193 277.842 29.432 277.595C29.0493 277.343 28.6107 277.217 28.116 277.217C27.5607 277.217 27.101 277.345 26.737 277.602C26.373 277.854 26.1023 278.206 25.925 278.659C25.7477 279.112 25.6567 279.632 25.652 280.22C25.6613 281.125 25.8713 281.853 26.282 282.404C26.6927 282.95 27.304 283.223 28.116 283.223C28.6293 283.223 29.0657 283.106 29.425 282.873C29.789 282.635 30.0643 282.29 30.251 281.837L31.287 282.145C31.007 282.817 30.5963 283.33 30.055 283.685C29.5137 284.035 28.8673 284.21 28.116 284.21ZM37.2917 284V275.068L35.3947 276.209V275.054L37.2917 273.92H38.3347V284H37.2917ZM43.6988 284.203C43.1994 284.203 42.7398 284.114 42.3198 283.937C41.8998 283.76 41.5381 283.508 41.2348 283.181C40.9314 282.85 40.7098 282.455 40.5698 281.998L41.5498 281.704C41.7178 282.203 41.9931 282.581 42.3758 282.838C42.7631 283.095 43.1994 283.218 43.6848 283.209C44.1328 283.2 44.5178 283.099 44.8398 282.908C45.1664 282.717 45.4161 282.451 45.5888 282.11C45.7614 281.769 45.8478 281.375 45.8478 280.927C45.8478 280.241 45.6471 279.69 45.2458 279.275C44.8491 278.855 44.3241 278.645 43.6708 278.645C43.4888 278.645 43.2974 278.671 43.0968 278.722C42.8961 278.769 42.7094 278.836 42.5368 278.925L42.0188 278.106L45.9388 274.487L46.1068 274.907H40.9688V273.92H46.7928V274.921L43.3768 278.183L43.3628 277.777C44.0628 277.688 44.6788 277.768 45.2108 278.015C45.7428 278.262 46.1581 278.64 46.4568 279.149C46.7601 279.653 46.9118 280.246 46.9118 280.927C46.9118 281.571 46.7718 282.14 46.4918 282.635C46.2164 283.125 45.8361 283.51 45.3508 283.79C44.8654 284.065 44.3148 284.203 43.6988 284.203ZM48.924 284V282.803H50.121V284H48.924ZM52.3581 284V275.068L50.4611 276.209V275.054L52.3581 273.92H53.4011V284H52.3581ZM59.3462 284.21C58.7255 284.21 58.1655 284.065 57.6662 283.776C57.1715 283.487 56.7795 283.095 56.4902 282.6C56.2008 282.101 56.0562 281.541 56.0562 280.92V277C56.0562 276.379 56.2008 275.822 56.4902 275.327C56.7795 274.828 57.1715 274.433 57.6662 274.144C58.1655 273.855 58.7255 273.71 59.3462 273.71C59.9668 273.71 60.5245 273.855 61.0192 274.144C61.5185 274.433 61.9128 274.828 62.2022 275.327C62.4915 275.822 62.6362 276.379 62.6362 277V280.92C62.6362 281.541 62.4915 282.101 62.2022 282.6C61.9128 283.095 61.5185 283.487 61.0192 283.776C60.5245 284.065 59.9668 284.21 59.3462 284.21ZM59.3462 283.216C59.7615 283.216 60.1395 283.116 60.4802 282.915C60.8208 282.71 61.0915 282.437 61.2922 282.096C61.4928 281.755 61.5932 281.38 61.5932 280.969V276.951C61.5932 276.536 61.4928 276.158 61.2922 275.817C61.0915 275.476 60.8208 275.206 60.4802 275.005C60.1395 274.8 59.7615 274.697 59.3462 274.697C58.9308 274.697 58.5528 274.8 58.2122 275.005C57.8715 275.206 57.6008 275.476 57.4002 275.817C57.1995 276.158 57.0992 276.536 57.0992 276.951V280.969C57.0992 281.38 57.1995 281.755 57.4002 282.096C57.6008 282.437 57.8715 282.71 58.2122 282.915C58.5528 283.116 58.9308 283.216 59.3462 283.216ZM64.7971 284V282.803H65.9941V284H64.7971ZM67.8758 283.993L67.8828 283.055L72.4398 278.939C72.8318 278.584 73.0908 278.248 73.2168 277.931C73.3474 277.609 73.4128 277.273 73.4128 276.923C73.4128 276.508 73.3148 276.132 73.1188 275.796C72.9228 275.46 72.6591 275.194 72.3278 274.998C71.9964 274.797 71.6254 274.697 71.2148 274.697C70.7854 274.697 70.4028 274.8 70.0668 275.005C69.7308 275.21 69.4648 275.481 69.2688 275.817C69.0774 276.153 68.9841 276.519 68.9888 276.916H67.9388C67.9388 276.305 68.0834 275.756 68.3728 275.271C68.6621 274.786 69.0541 274.405 69.5488 274.13C70.0434 273.85 70.6034 273.71 71.2288 273.71C71.8401 273.71 72.3884 273.855 72.8738 274.144C73.3638 274.429 73.7488 274.816 74.0288 275.306C74.3134 275.791 74.4558 276.333 74.4558 276.93C74.4558 277.35 74.4044 277.721 74.3018 278.043C74.2038 278.36 74.0474 278.657 73.8328 278.932C73.6228 279.203 73.3544 279.483 73.0278 279.772L68.9818 283.426L68.8208 283.006H74.4558V283.993H67.8758ZM79.4302 284.21C78.8095 284.21 78.2495 284.065 77.7502 283.776C77.2555 283.487 76.8635 283.095 76.5742 282.6C76.2848 282.101 76.1402 281.541 76.1402 280.92V277C76.1402 276.379 76.2848 275.822 76.5742 275.327C76.8635 274.828 77.2555 274.433 77.7502 274.144C78.2495 273.855 78.8095 273.71 79.4302 273.71C80.0508 273.71 80.6085 273.855 81.1032 274.144C81.6025 274.433 81.9968 274.828 82.2862 275.327C82.5755 275.822 82.7202 276.379 82.7202 277V280.92C82.7202 281.541 82.5755 282.101 82.2862 282.6C81.9968 283.095 81.6025 283.487 81.1032 283.776C80.6085 284.065 80.0508 284.21 79.4302 284.21ZM79.4302 283.216C79.8455 283.216 80.2235 283.116 80.5642 282.915C80.9048 282.71 81.1755 282.437 81.3762 282.096C81.5768 281.755 81.6772 281.38 81.6772 280.969V276.951C81.6772 276.536 81.5768 276.158 81.3762 275.817C81.1755 275.476 80.9048 275.206 80.5642 275.005C80.2235 274.8 79.8455 274.697 79.4302 274.697C79.0148 274.697 78.6368 274.8 78.2962 275.005C77.9555 275.206 77.6848 275.476 77.4842 275.817C77.2835 276.158 77.1832 276.536 77.1832 276.951V280.969C77.1832 281.38 77.2835 281.755 77.4842 282.096C77.6848 282.437 77.9555 282.71 78.2962 282.915C78.6368 283.116 79.0148 283.216 79.4302 283.216ZM86.4421 284V275.068L84.5451 276.209V275.054L86.4421 273.92H87.4851V284H86.4421ZM93.4302 284.21C92.8095 284.21 92.2495 284.065 91.7502 283.776C91.2555 283.487 90.8635 283.095 90.5742 282.6C90.2848 282.101 90.1402 281.541 90.1402 280.92V277C90.1402 276.379 90.2848 275.822 90.5742 275.327C90.8635 274.828 91.2555 274.433 91.7502 274.144C92.2495 273.855 92.8095 273.71 93.4302 273.71C94.0508 273.71 94.6085 273.855 95.1032 274.144C95.6025 274.433 95.9968 274.828 96.2862 275.327C96.5755 275.822 96.7202 276.379 96.7202 277V280.92C96.7202 281.541 96.5755 282.101 96.2862 282.6C95.9968 283.095 95.6025 283.487 95.1032 283.776C94.6085 284.065 94.0508 284.21 93.4302 284.21ZM93.4302 283.216C93.8455 283.216 94.2235 283.116 94.5642 282.915C94.9048 282.71 95.1755 282.437 95.3762 282.096C95.5768 281.755 95.6772 281.38 95.6772 280.969V276.951C95.6772 276.536 95.5768 276.158 95.3762 275.817C95.1755 275.476 94.9048 275.206 94.5642 275.005C94.2235 274.8 93.8455 274.697 93.4302 274.697C93.0148 274.697 92.6368 274.8 92.2962 275.005C91.9555 275.206 91.6848 275.476 91.4842 275.817C91.2835 276.158 91.1832 276.536 91.1832 276.951V280.969C91.1832 281.38 91.2835 281.755 91.4842 282.096C91.6848 282.437 91.9555 282.71 92.2962 282.915C92.6368 283.116 93.0148 283.216 93.4302 283.216Z" fill="#737373"/>
<path d="M42.98 321V310.92H51.149V321H49.462V312.502H44.667V321H42.98ZM56.7439 321.21C56.0065 321.21 55.3882 321.035 54.8889 320.685C54.3895 320.335 54.0139 319.859 53.7619 319.257C53.5099 318.65 53.3839 317.971 53.3839 317.22C53.3839 316.459 53.5099 315.778 53.7619 315.176C54.0139 314.574 54.3825 314.1 54.8679 313.755C55.3579 313.405 55.9622 313.23 56.6809 313.23C57.3949 313.23 58.0132 313.405 58.5359 313.755C59.0632 314.1 59.4715 314.574 59.7609 315.176C60.0502 315.773 60.1949 316.455 60.1949 317.22C60.1949 317.976 60.0525 318.655 59.7679 319.257C59.4832 319.859 59.0819 320.335 58.5639 320.685C58.0459 321.035 57.4392 321.21 56.7439 321.21ZM53.0969 324.36V313.44H54.5879V318.746H54.7979V324.36H53.0969ZM56.4849 319.698C56.9235 319.698 57.2852 319.588 57.5699 319.369C57.8545 319.15 58.0645 318.853 58.1999 318.48C58.3399 318.102 58.4099 317.682 58.4099 317.22C58.4099 316.763 58.3399 316.347 58.1999 315.974C58.0599 315.596 57.8429 315.297 57.5489 315.078C57.2549 314.854 56.8815 314.742 56.4289 314.742C55.9995 314.742 55.6495 314.847 55.3789 315.057C55.1082 315.262 54.9075 315.552 54.7769 315.925C54.6509 316.294 54.5879 316.725 54.5879 317.22C54.5879 317.71 54.6509 318.142 54.7769 318.515C54.9075 318.888 55.1105 319.18 55.3859 319.39C55.6659 319.595 56.0322 319.698 56.4849 319.698ZM68.2898 313.44V321H66.6728V316.065L63.0748 321H61.7238V313.44H63.3408V318.249L66.9528 313.44H68.2898ZM73.5944 321.21C72.8384 321.21 72.1781 321.04 71.6134 320.699C71.0487 320.358 70.6101 319.889 70.2974 319.292C69.9894 318.69 69.8354 317.999 69.8354 317.22C69.8354 316.427 69.9941 315.731 70.3114 315.134C70.6287 314.537 71.0697 314.07 71.6344 313.734C72.1991 313.398 72.8524 313.23 73.5944 313.23C74.3551 313.23 75.0177 313.4 75.5824 313.741C76.1471 314.082 76.5857 314.553 76.8984 315.155C77.2111 315.752 77.3674 316.441 77.3674 317.22C77.3674 318.004 77.2087 318.697 76.8914 319.299C76.5787 319.896 76.1401 320.365 75.5754 320.706C75.0107 321.042 74.3504 321.21 73.5944 321.21ZM73.5944 319.628C74.2664 319.628 74.7657 319.404 75.0924 318.956C75.4191 318.508 75.5824 317.929 75.5824 317.22C75.5824 316.487 75.4167 315.904 75.0854 315.47C74.7541 315.031 74.2571 314.812 73.5944 314.812C73.1417 314.812 72.7684 314.915 72.4744 315.12C72.1851 315.321 71.9704 315.603 71.8304 315.967C71.6904 316.326 71.6204 316.744 71.6204 317.22C71.6204 317.953 71.7861 318.538 72.1174 318.977C72.4534 319.411 72.9457 319.628 73.5944 319.628ZM82.1927 321.21C81.4134 321.21 80.7484 321.037 80.1977 320.692C79.647 320.342 79.2247 319.866 78.9307 319.264C78.6414 318.662 78.4944 317.981 78.4897 317.22C78.4944 316.445 78.646 315.759 78.9447 315.162C79.248 314.56 79.6774 314.089 80.2327 313.748C80.788 313.403 81.4484 313.23 82.2137 313.23C83.0724 313.23 83.798 313.447 84.3907 313.881C84.988 314.31 85.3777 314.898 85.5597 315.645L83.8797 316.1C83.749 315.694 83.532 315.379 83.2287 315.155C82.9254 314.926 82.58 314.812 82.1927 314.812C81.754 314.812 81.3924 314.917 81.1077 315.127C80.823 315.332 80.613 315.617 80.4777 315.981C80.3424 316.345 80.2747 316.758 80.2747 317.22C80.2747 317.939 80.4357 318.52 80.7577 318.963C81.0797 319.406 81.558 319.628 82.1927 319.628C82.6407 319.628 82.993 319.525 83.2497 319.32C83.511 319.115 83.707 318.818 83.8377 318.431L85.5597 318.816C85.3264 319.586 84.918 320.179 84.3347 320.594C83.7514 321.005 83.0374 321.21 82.1927 321.21ZM88.8184 321V314.938H86.2914V313.44H93.0324V314.938H90.5054V321H88.8184ZM96.2952 321.21C95.7492 321.21 95.2872 321.107 94.9092 320.902C94.5312 320.692 94.2442 320.414 94.0482 320.069C93.8568 319.724 93.7612 319.343 93.7612 318.928C93.7612 318.564 93.8218 318.237 93.9432 317.948C94.0645 317.654 94.2512 317.402 94.5032 317.192C94.7552 316.977 95.0818 316.802 95.4832 316.667C95.7865 316.569 96.1412 316.48 96.5472 316.401C96.9578 316.322 97.4012 316.249 97.8772 316.184C98.3578 316.114 98.8595 316.039 99.3822 315.96L98.7802 316.303C98.7848 315.78 98.6682 315.395 98.4302 315.148C98.1922 314.901 97.7908 314.777 97.2262 314.777C96.8855 314.777 96.5565 314.856 96.2392 315.015C95.9218 315.174 95.7002 315.447 95.5742 315.834L94.0342 315.351C94.2208 314.712 94.5755 314.198 95.0982 313.811C95.6255 313.424 96.3348 313.23 97.2262 313.23C97.8982 313.23 98.4885 313.34 98.9972 313.559C99.5105 313.778 99.8908 314.138 100.138 314.637C100.274 314.903 100.355 315.176 100.383 315.456C100.411 315.731 100.425 316.032 100.425 316.359V321H98.9482V319.362L99.1932 319.628C98.8525 320.174 98.4535 320.575 97.9962 320.832C97.5435 321.084 96.9765 321.21 96.2952 321.21ZM96.6312 319.866C97.0138 319.866 97.3405 319.798 97.6112 319.663C97.8818 319.528 98.0965 319.362 98.2552 319.166C98.4185 318.97 98.5282 318.786 98.5842 318.613C98.6728 318.398 98.7218 318.153 98.7312 317.878C98.7452 317.598 98.7522 317.372 98.7522 317.199L99.2702 317.353C98.7615 317.432 98.3252 317.502 97.9612 317.563C97.5972 317.624 97.2845 317.682 97.0232 317.738C96.7618 317.789 96.5308 317.848 96.3302 317.913C96.1342 317.983 95.9685 318.065 95.8332 318.158C95.6978 318.251 95.5928 318.359 95.5182 318.48C95.4482 318.601 95.4132 318.744 95.4132 318.907C95.4132 319.094 95.4598 319.259 95.5532 319.404C95.6465 319.544 95.7818 319.656 95.9592 319.74C96.1412 319.824 96.3652 319.866 96.6312 319.866ZM102.234 321V313.44H103.921V316.422H107.316V313.44H109.003V321H107.316V318.004H103.921V321H102.234ZM114.296 321.21C113.54 321.21 112.879 321.04 112.315 320.699C111.75 320.358 111.311 319.889 110.999 319.292C110.691 318.69 110.537 317.999 110.537 317.22C110.537 316.427 110.695 315.731 111.013 315.134C111.33 314.537 111.771 314.07 112.336 313.734C112.9 313.398 113.554 313.23 114.296 313.23C115.056 313.23 115.719 313.4 116.284 313.741C116.848 314.082 117.287 314.553 117.6 315.155C117.912 315.752 118.069 316.441 118.069 317.22C118.069 318.004 117.91 318.697 117.593 319.299C117.28 319.896 116.841 320.365 116.277 320.706C115.712 321.042 115.052 321.21 114.296 321.21ZM114.296 319.628C114.968 319.628 115.467 319.404 115.794 318.956C116.12 318.508 116.284 317.929 116.284 317.22C116.284 316.487 116.118 315.904 115.787 315.47C115.455 315.031 114.958 314.812 114.296 314.812C113.843 314.812 113.47 314.915 113.176 315.12C112.886 315.321 112.672 315.603 112.532 315.967C112.392 316.326 112.322 316.744 112.322 317.22C112.322 317.953 112.487 318.538 112.819 318.977C113.155 319.411 113.647 319.628 114.296 319.628ZM119.597 321V313.44H123.034C123.281 313.44 123.512 313.454 123.727 313.482C123.942 313.51 124.126 313.545 124.28 313.587C124.644 313.694 124.966 313.904 125.246 314.217C125.526 314.525 125.666 314.952 125.666 315.498C125.666 315.82 125.615 316.086 125.512 316.296C125.409 316.501 125.274 316.674 125.106 316.814C125.027 316.879 124.945 316.935 124.861 316.982C124.777 317.029 124.693 317.066 124.609 317.094C124.791 317.122 124.964 317.176 125.127 317.255C125.384 317.381 125.598 317.568 125.771 317.815C125.948 318.062 126.037 318.41 126.037 318.858C126.037 319.367 125.913 319.796 125.666 320.146C125.423 320.491 125.066 320.732 124.595 320.867C124.422 320.914 124.224 320.949 124 320.972C123.776 320.991 123.547 321 123.314 321H119.597ZM121.305 319.698H123.195C123.293 319.698 123.4 319.689 123.517 319.67C123.634 319.651 123.739 319.626 123.832 319.593C124 319.532 124.121 319.425 124.196 319.271C124.275 319.117 124.315 318.956 124.315 318.788C124.315 318.559 124.257 318.377 124.14 318.242C124.028 318.102 123.893 318.009 123.734 317.962C123.641 317.925 123.538 317.904 123.426 317.899C123.319 317.89 123.23 317.885 123.16 317.885H121.305V319.698ZM121.305 316.562H122.705C122.85 316.562 122.99 316.555 123.125 316.541C123.265 316.522 123.382 316.492 123.475 316.45C123.629 316.389 123.741 316.287 123.811 316.142C123.886 315.997 123.923 315.836 123.923 315.659C123.923 315.472 123.881 315.304 123.797 315.155C123.718 315.001 123.589 314.898 123.412 314.847C123.295 314.8 123.153 314.775 122.985 314.77C122.822 314.765 122.717 314.763 122.67 314.763H121.305V316.562ZM126.731 321V319.586C127.007 319.637 127.219 319.633 127.368 319.572C127.518 319.507 127.63 319.385 127.704 319.208C127.779 319.031 127.844 318.795 127.9 318.501C127.975 318.086 128.04 317.607 128.096 317.066C128.157 316.525 128.208 315.946 128.25 315.33C128.297 314.714 128.339 314.084 128.376 313.44H133.941V321H132.261V315.022H129.86C129.837 315.325 129.809 315.666 129.776 316.044C129.744 316.417 129.709 316.795 129.671 317.178C129.634 317.561 129.592 317.925 129.545 318.27C129.503 318.611 129.459 318.902 129.412 319.145C129.305 319.691 129.151 320.123 128.95 320.44C128.754 320.757 128.479 320.96 128.124 321.049C127.77 321.142 127.305 321.126 126.731 321ZM139.345 321.21C138.579 321.21 137.907 321.044 137.329 320.713C136.75 320.382 136.297 319.922 135.971 319.334C135.649 318.746 135.488 318.069 135.488 317.304C135.488 316.478 135.646 315.762 135.964 315.155C136.281 314.544 136.722 314.07 137.287 313.734C137.851 313.398 138.505 313.23 139.247 313.23C140.031 313.23 140.696 313.414 141.242 313.783C141.792 314.147 142.201 314.663 142.467 315.33C142.733 315.997 142.833 316.784 142.768 317.689H141.095V317.073C141.09 316.252 140.945 315.652 140.661 315.274C140.376 314.896 139.928 314.707 139.317 314.707C138.626 314.707 138.113 314.922 137.777 315.351C137.441 315.776 137.273 316.399 137.273 317.22C137.273 317.985 137.441 318.578 137.777 318.998C138.113 319.418 138.603 319.628 139.247 319.628C139.662 319.628 140.019 319.537 140.318 319.355C140.621 319.168 140.854 318.9 141.018 318.55L142.684 319.054C142.394 319.735 141.946 320.265 141.34 320.643C140.738 321.021 140.073 321.21 139.345 321.21ZM136.741 317.689V316.415H141.942V317.689H136.741ZM144.316 321V313.44H146.003V316.422H149.398V313.44H151.085V321H149.398V318.004H146.003V321H144.316ZM155.153 321.21C154.607 321.21 154.145 321.107 153.767 320.902C153.389 320.692 153.102 320.414 152.906 320.069C152.714 319.724 152.619 319.343 152.619 318.928C152.619 318.564 152.679 318.237 152.801 317.948C152.922 317.654 153.109 317.402 153.361 317.192C153.613 316.977 153.939 316.802 154.341 316.667C154.644 316.569 154.999 316.48 155.405 316.401C155.815 316.322 156.259 316.249 156.735 316.184C157.215 316.114 157.717 316.039 158.24 315.96L157.638 316.303C157.642 315.78 157.526 315.395 157.288 315.148C157.05 314.901 156.648 314.777 156.084 314.777C155.743 314.777 155.414 314.856 155.097 315.015C154.779 315.174 154.558 315.447 154.432 315.834L152.892 315.351C153.078 314.712 153.433 314.198 153.956 313.811C154.483 313.424 155.192 313.23 156.084 313.23C156.756 313.23 157.346 313.34 157.855 313.559C158.368 313.778 158.748 314.138 158.996 314.637C159.131 314.903 159.213 315.176 159.241 315.456C159.269 315.731 159.283 316.032 159.283 316.359V321H157.806V319.362L158.051 319.628C157.71 320.174 157.311 320.575 156.854 320.832C156.401 321.084 155.834 321.21 155.153 321.21ZM155.489 319.866C155.871 319.866 156.198 319.798 156.469 319.663C156.739 319.528 156.954 319.362 157.113 319.166C157.276 318.97 157.386 318.786 157.442 318.613C157.53 318.398 157.579 318.153 157.589 317.878C157.603 317.598 157.61 317.372 157.61 317.199L158.128 317.353C157.619 317.432 157.183 317.502 156.819 317.563C156.455 317.624 156.142 317.682 155.881 317.738C155.619 317.789 155.388 317.848 155.188 317.913C154.992 317.983 154.826 318.065 154.691 318.158C154.555 318.251 154.45 318.359 154.376 318.48C154.306 318.601 154.271 318.744 154.271 318.907C154.271 319.094 154.317 319.259 154.411 319.404C154.504 319.544 154.639 319.656 154.817 319.74C154.999 319.824 155.223 319.866 155.489 319.866Z" fill="#E1BE3E"/>
<rect x="24.5" y="298.5" width="154" height="35" rx="7.5" stroke="#E1BE3E"/>
<path d="M25.4 382V367.6H37.07V382H34.66V369.86H27.81V382H25.4ZM44.0427 382.3C42.9627 382.3 42.0193 382.057 41.2127 381.57C40.406 381.083 39.7793 380.413 39.3327 379.56C38.8927 378.7 38.6727 377.713 38.6727 376.6C38.6727 375.467 38.8993 374.473 39.3527 373.62C39.806 372.767 40.436 372.1 41.2427 371.62C42.0493 371.14 42.9827 370.9 44.0427 370.9C45.1293 370.9 46.076 371.143 46.8827 371.63C47.6893 372.117 48.316 372.79 48.7627 373.65C49.2093 374.503 49.4327 375.487 49.4327 376.6C49.4327 377.72 49.206 378.71 48.7527 379.57C48.306 380.423 47.6793 381.093 46.8727 381.58C46.066 382.06 45.1227 382.3 44.0427 382.3ZM44.0427 380.04C45.0027 380.04 45.716 379.72 46.1827 379.08C46.6493 378.44 46.8827 377.613 46.8827 376.6C46.8827 375.553 46.646 374.72 46.1727 374.1C45.6993 373.473 44.9893 373.16 44.0427 373.16C43.396 373.16 42.8627 373.307 42.4427 373.6C42.0293 373.887 41.7227 374.29 41.5227 374.81C41.3227 375.323 41.2227 375.92 41.2227 376.6C41.2227 377.647 41.4593 378.483 41.9327 379.11C42.4127 379.73 43.116 380.04 44.0427 380.04ZM50.2359 384.4V380.11C50.8226 380.11 51.2393 379.91 51.4859 379.51C51.7326 379.11 51.9293 378.417 52.0759 377.43C52.1693 376.843 52.2459 376.223 52.3059 375.57C52.3659 374.917 52.4159 374.227 52.4559 373.5C52.5026 372.773 52.5426 372.007 52.5759 371.2H60.6159V380.11H61.7059V384.4H59.4259V382H52.5059V384.4H50.2359ZM53.4659 380.11H58.2159V373.09H54.6859C54.6659 373.49 54.6426 373.9 54.6159 374.32C54.5893 374.733 54.5593 375.147 54.5259 375.56C54.4926 375.973 54.4559 376.37 54.4159 376.75C54.3826 377.123 54.3426 377.47 54.2959 377.79C54.2226 378.35 54.1326 378.81 54.0259 379.17C53.9193 379.53 53.7326 379.843 53.4659 380.11ZM68.3017 382.3C67.2484 382.3 66.3651 382.05 65.6517 381.55C64.9384 381.05 64.4017 380.37 64.0417 379.51C63.6817 378.643 63.5017 377.673 63.5017 376.6C63.5017 375.513 63.6817 374.54 64.0417 373.68C64.4017 372.82 64.9284 372.143 65.6217 371.65C66.3217 371.15 67.1851 370.9 68.2117 370.9C69.2317 370.9 70.1151 371.15 70.8617 371.65C71.6151 372.143 72.1984 372.82 72.6117 373.68C73.0251 374.533 73.2317 375.507 73.2317 376.6C73.2317 377.68 73.0284 378.65 72.6217 379.51C72.2151 380.37 71.6417 381.05 70.9017 381.55C70.1617 382.05 69.2951 382.3 68.3017 382.3ZM63.0917 386.8V371.2H65.2217V378.78H65.5217V386.8H63.0917ZM67.9317 380.14C68.5584 380.14 69.0751 379.983 69.4817 379.67C69.8884 379.357 70.1884 378.933 70.3817 378.4C70.5817 377.86 70.6817 377.26 70.6817 376.6C70.6817 375.947 70.5817 375.353 70.3817 374.82C70.1817 374.28 69.8717 373.853 69.4517 373.54C69.0317 373.22 68.4984 373.06 67.8517 373.06C67.2384 373.06 66.7384 373.21 66.3517 373.51C65.9651 373.803 65.6784 374.217 65.4917 374.75C65.3117 375.277 65.2217 375.893 65.2217 376.6C65.2217 377.3 65.3117 377.917 65.4917 378.45C65.6784 378.983 65.9684 379.4 66.3617 379.7C66.7617 379.993 67.2851 380.14 67.9317 380.14ZM79.6059 382.3C78.5259 382.3 77.5826 382.057 76.7759 381.57C75.9693 381.083 75.3426 380.413 74.8959 379.56C74.4559 378.7 74.2359 377.713 74.2359 376.6C74.2359 375.467 74.4626 374.473 74.9159 373.62C75.3693 372.767 75.9993 372.1 76.8059 371.62C77.6126 371.14 78.5459 370.9 79.6059 370.9C80.6926 370.9 81.6393 371.143 82.4459 371.63C83.2526 372.117 83.8793 372.79 84.3259 373.65C84.7726 374.503 84.9959 375.487 84.9959 376.6C84.9959 377.72 84.7693 378.71 84.3159 379.57C83.8693 380.423 83.2426 381.093 82.4359 381.58C81.6293 382.06 80.6859 382.3 79.6059 382.3ZM79.6059 380.04C80.5659 380.04 81.2793 379.72 81.7459 379.08C82.2126 378.44 82.4459 377.613 82.4459 376.6C82.4459 375.553 82.2093 374.72 81.7359 374.1C81.2626 373.473 80.5526 373.16 79.6059 373.16C78.9593 373.16 78.4259 373.307 78.0059 373.6C77.5926 373.887 77.2859 374.29 77.0859 374.81C76.8859 375.323 76.7859 375.92 76.7859 376.6C76.7859 377.647 77.0226 378.483 77.4959 379.11C77.9759 379.73 78.6793 380.04 79.6059 380.04ZM91.0892 382.32C90.0626 382.307 89.1892 382.077 88.4692 381.63C87.7492 381.183 87.1859 380.553 86.7792 379.74C86.3726 378.927 86.1259 377.967 86.0392 376.86C85.9992 376.293 85.9959 375.66 86.0292 374.96C86.0626 374.26 86.1359 373.577 86.2492 372.91C86.3626 372.243 86.5192 371.677 86.7192 371.21C86.9259 370.743 87.1959 370.313 87.5292 369.92C87.8626 369.52 88.2226 369.187 88.6092 368.92C89.0492 368.613 89.5259 368.377 90.0392 368.21C90.5592 368.043 91.1026 367.917 91.6692 367.83C92.2359 367.737 92.8192 367.653 93.4192 367.58C94.0192 367.507 94.6126 367.413 95.1992 367.3L95.4192 369.43C95.0459 369.523 94.6126 369.597 94.1192 369.65C93.6326 369.697 93.1259 369.75 92.5992 369.81C92.0792 369.87 91.5826 369.957 91.1092 370.07C90.6359 370.183 90.2259 370.35 89.8792 370.57C89.3992 370.863 89.0326 371.283 88.7792 371.83C88.5259 372.377 88.3759 372.953 88.3292 373.56C88.7426 372.947 89.2559 372.517 89.8692 372.27C90.4892 372.017 91.1159 371.89 91.7492 371.89C92.7092 371.89 93.5326 372.117 94.2192 372.57C94.9126 373.023 95.4426 373.64 95.8092 374.42C96.1826 375.193 96.3692 376.057 96.3692 377.01C96.3692 378.077 96.1459 379.01 95.6992 379.81C95.2526 380.61 94.6326 381.23 93.8392 381.67C93.0459 382.11 92.1292 382.327 91.0892 382.32ZM91.2092 380.06C92.0759 380.06 92.7292 379.793 93.1692 379.26C93.6159 378.72 93.8392 378.003 93.8392 377.11C93.8392 376.197 93.6092 375.477 93.1492 374.95C92.6959 374.423 92.0492 374.16 91.2092 374.16C90.3559 374.16 89.7059 374.423 89.2592 374.95C88.8126 375.477 88.5892 376.197 88.5892 377.11C88.5892 378.043 88.8159 378.77 89.2692 379.29C89.7226 379.803 90.3692 380.06 91.2092 380.06ZM97.9519 382V371.2H100.362V375.46H105.212V371.2H107.622V382H105.212V377.72H100.362V382H97.9519ZM114.723 382.3C113.63 382.3 112.67 382.063 111.843 381.59C111.017 381.117 110.37 380.46 109.903 379.62C109.443 378.78 109.213 377.813 109.213 376.72C109.213 375.54 109.44 374.517 109.893 373.65C110.347 372.777 110.977 372.1 111.783 371.62C112.59 371.14 113.523 370.9 114.583 370.9C115.703 370.9 116.653 371.163 117.433 371.69C118.22 372.21 118.803 372.947 119.183 373.9C119.563 374.853 119.707 375.977 119.613 377.27H117.223V376.39C117.217 375.217 117.01 374.36 116.603 373.82C116.197 373.28 115.557 373.01 114.683 373.01C113.697 373.01 112.963 373.317 112.483 373.93C112.003 374.537 111.763 375.427 111.763 376.6C111.763 377.693 112.003 378.54 112.483 379.14C112.963 379.74 113.663 380.04 114.583 380.04C115.177 380.04 115.687 379.91 116.113 379.65C116.547 379.383 116.88 379 117.113 378.5L119.493 379.22C119.08 380.193 118.44 380.95 117.573 381.49C116.713 382.03 115.763 382.3 114.723 382.3ZM111.003 377.27V375.45H118.433V377.27H111.003ZM126.155 382.3C125.061 382.3 124.101 382.063 123.275 381.59C122.448 381.117 121.801 380.46 121.335 379.62C120.875 378.78 120.645 377.813 120.645 376.72C120.645 375.54 120.871 374.517 121.325 373.65C121.778 372.777 122.408 372.1 123.215 371.62C124.021 371.14 124.955 370.9 126.015 370.9C127.135 370.9 128.085 371.163 128.865 371.69C129.651 372.21 130.235 372.947 130.615 373.9C130.995 374.853 131.138 375.977 131.045 377.27H128.655V376.39C128.648 375.217 128.441 374.36 128.035 373.82C127.628 373.28 126.988 373.01 126.115 373.01C125.128 373.01 124.395 373.317 123.915 373.93C123.435 374.537 123.195 375.427 123.195 376.6C123.195 377.693 123.435 378.54 123.915 379.14C124.395 379.74 125.095 380.04 126.015 380.04C126.608 380.04 127.118 379.91 127.545 379.65C127.978 379.383 128.311 379 128.545 378.5L130.925 379.22C130.511 380.193 129.871 380.95 129.005 381.49C128.145 382.03 127.195 382.3 126.155 382.3ZM122.435 377.27V375.45H129.865V377.27H122.435Z" fill="#272833"/>
<path d="M145.333 372H152V378.667M152 372L144 380L152 372Z" stroke="black" stroke-width="1.5" stroke-linecap="round" stroke-linejoin="round"/>
<path d="M0 0H276H0ZM276 406C276 416.493 267.493 425 257 425H19C8.50659 425 0 416.493 0 406C0 413.18 7.16344 419 16 419H260C268.837 419 276 413.18 276 406ZM0 422V0V422ZM276 0V422V0Z" fill="#F0F0F0" mask="url(#path-1-inside-1_618_23907)"/>
</svg>
