<svg width="487" height="369" viewBox="0 0 487 369" fill="none" xmlns="http://www.w3.org/2000/svg">
<mask id="path-1-inside-1_618_22388" fill="white">
<path d="M0 17.669C0 7.91068 7.91065 0 17.6689 0H469.331C479.089 0 487 7.91065 487 17.6689V351.17C487 360.928 479.089 368.839 469.331 368.839H17.669C7.91068 368.839 0 360.928 0 351.17V17.669Z"/>
</mask>
<path d="M0 17.669C0 7.91068 7.91065 0 17.6689 0H469.331C479.089 0 487 7.91065 487 17.6689V351.17C487 360.928 479.089 368.839 469.331 368.839H17.669C7.91068 368.839 0 360.928 0 351.17V17.669Z" fill="white"/>
<path d="M35.6023 52.8683C33.8531 52.8683 32.3549 52.4877 31.1078 51.7265C29.8606 50.9571 28.901 49.8882 28.2288 48.5196C27.5648 47.151 27.2327 45.5637 27.2327 43.7578C27.2327 41.9519 27.5648 40.3646 28.2288 38.996C28.901 37.6274 29.8606 36.5625 31.1078 35.8012C32.3549 35.0319 33.8531 34.6472 35.6023 34.6472C37.6188 34.6472 39.2992 35.1534 40.6435 36.1657C41.9878 37.1698 42.9312 38.5263 43.4738 40.235L40.522 41.0489C40.1819 39.9071 39.6028 39.0162 38.7849 38.3765C37.967 37.7286 36.9061 37.4047 35.6023 37.4047C34.4281 37.4047 33.4482 37.6679 32.6626 38.1943C31.8852 38.7207 31.2981 39.4617 30.9013 40.4172C30.5125 41.3647 30.3141 42.4783 30.306 43.7578C30.306 45.0373 30.5004 46.1549 30.8891 47.1105C31.2859 48.058 31.8771 48.7949 32.6626 49.3213C33.4482 49.8477 34.4281 50.1109 35.6023 50.1109C36.9061 50.1109 37.967 49.7869 38.7849 49.1391C39.6028 48.4912 40.1819 47.6004 40.522 46.4667L43.4738 47.2805C42.9312 48.9893 41.9878 50.3498 40.6435 51.3621C39.2992 52.3662 37.6188 52.8683 35.6023 52.8683ZM45.3878 52.5039V39.3847H51.3522C51.7814 39.3847 52.1822 39.409 52.5548 39.4576C52.9273 39.5062 53.2472 39.5669 53.5144 39.6398C54.1461 39.8261 54.7048 40.1905 55.1907 40.7331C55.6766 41.2676 55.9196 42.0086 55.9196 42.9561C55.9196 43.5148 55.8305 43.9764 55.6523 44.3409C55.4742 44.6972 55.2393 44.9968 54.9478 45.2398C54.8101 45.3531 54.6684 45.4503 54.5226 45.5313C54.3769 45.6123 54.2311 45.6771 54.0853 45.7257C54.4012 45.7742 54.7008 45.8674 54.9842 46.0051C55.4296 46.2237 55.8022 46.5476 56.1018 46.9768C56.4095 47.4061 56.5634 48.0094 56.5634 48.7868C56.5634 49.6695 56.3488 50.4146 55.9196 51.0219C55.4985 51.6212 54.879 52.0383 54.061 52.2731C53.7614 52.3541 53.4172 52.4148 53.0285 52.4553C52.6398 52.4877 52.243 52.5039 51.8381 52.5039H45.3878ZM48.3518 50.2445H51.6315C51.8016 50.2445 51.9879 50.2283 52.1903 50.1959C52.3928 50.1635 52.575 50.119 52.737 50.0623C53.0285 49.957 53.2391 49.7707 53.3686 49.5035C53.5063 49.2363 53.5751 48.9569 53.5751 48.6653C53.5751 48.2685 53.4739 47.9527 53.2714 47.7178C53.0771 47.4749 52.8422 47.3129 52.5669 47.2319C52.4049 47.1672 52.2268 47.1307 52.0324 47.1226C51.8462 47.1064 51.6923 47.0983 51.5708 47.0983H48.3518V50.2445ZM48.3518 44.8025H50.7812C51.0323 44.8025 51.2752 44.7903 51.5101 44.766C51.753 44.7336 51.9555 44.681 52.1174 44.6081C52.3847 44.5028 52.579 44.3247 52.7005 44.0736C52.8301 43.8226 52.8949 43.5432 52.8949 43.2354C52.8949 42.9115 52.822 42.62 52.6762 42.3608C52.5386 42.0936 52.3159 41.9154 52.0081 41.8263C51.8057 41.7454 51.5587 41.7008 51.2671 41.6927C50.9837 41.6846 50.8015 41.6806 50.7205 41.6806H48.3518V44.8025ZM66.1014 52.5039V48.1308H63.7569C63.4573 48.1308 63.0807 48.1227 62.6272 48.1065C62.1818 48.0904 61.7648 48.0499 61.376 47.9851C60.3638 47.7988 59.5256 47.3575 58.8615 46.661C58.1975 45.9565 57.8654 45.0009 57.8654 43.7942C57.8654 42.6119 58.1813 41.6603 58.8129 40.9396C59.4446 40.2188 60.2666 39.7572 61.2789 39.5548C61.7 39.4657 62.1332 39.4171 62.5786 39.409C63.0321 39.3928 63.4087 39.3847 63.7083 39.3847H69.0289V52.5039H66.1014ZM57.5253 52.5039L60.6593 47.487H63.7083L60.5986 52.5039H57.5253ZM63.4532 45.835H66.1014V41.6806H63.4532C63.2994 41.6806 63.1131 41.6887 62.8945 41.7049C62.6758 41.7211 62.4572 41.7575 62.2385 41.8142C62.0037 41.8871 61.781 42.0126 61.5704 42.1908C61.3598 42.3689 61.1857 42.5916 61.0481 42.8589C60.9104 43.1261 60.8416 43.4298 60.8416 43.7699C60.8416 44.2801 60.9873 44.7053 61.2789 45.0454C61.5785 45.3774 61.9267 45.6001 62.3235 45.7135C62.5179 45.7621 62.7163 45.7945 62.9188 45.8107C63.1293 45.8269 63.3075 45.835 63.4532 45.835ZM76.354 52.8683C75.1068 52.8683 73.969 52.6051 72.9405 52.0787C71.9121 51.5524 71.1022 50.8316 70.5111 49.9165L72.8191 48.3738C73.2888 48.9326 73.8111 49.3658 74.3861 49.6736C74.9611 49.9732 75.6008 50.123 76.3054 50.123C77.0423 50.123 77.6213 49.9611 78.0424 49.6371C78.4636 49.3132 78.6741 48.8799 78.6741 48.3374C78.6741 47.8596 78.5324 47.5235 78.249 47.3291C77.9655 47.1267 77.593 47.0052 77.1314 46.9647C76.6698 46.9242 76.1758 46.904 75.6494 46.904H74.6776V44.5838H75.6373C76.3742 44.5838 76.9897 44.4988 77.4837 44.3287C77.9858 44.1586 78.2368 43.7821 78.2368 43.199C78.2368 42.6726 78.0424 42.3001 77.6537 42.0814C77.265 41.8547 76.8115 41.7413 76.2932 41.7413C75.6616 41.7413 75.038 41.8749 74.4225 42.1422C73.8071 42.4094 73.2564 42.7334 72.7705 43.114L71.1184 41.1218C71.8473 40.4739 72.6612 39.9637 73.5601 39.5912C74.459 39.2106 75.4186 39.0203 76.439 39.0203C77.2812 39.0203 78.0667 39.1661 78.7956 39.4576C79.5325 39.7491 80.1237 40.1864 80.5691 40.7695C81.0226 41.3526 81.2494 42.0733 81.2494 42.9318C81.2494 43.5472 81.1157 44.1263 80.8485 44.6688C80.5894 45.2114 80.1723 45.7257 79.5973 46.2116L79.5609 45.2641C80.0063 45.4503 80.3828 45.7095 80.6906 46.0415C81.0064 46.3735 81.2453 46.7622 81.4073 47.2076C81.5773 47.653 81.6624 48.1268 81.6624 48.6289C81.6624 49.544 81.4194 50.3174 80.9335 50.949C80.4476 51.5807 79.7998 52.0585 78.9899 52.3824C78.1882 52.7064 77.3096 52.8683 76.354 52.8683ZM94.9761 39.3847V52.5039H92.1701V43.94L85.9263 52.5039H83.5819V39.3847H86.3879V47.73L92.656 39.3847H94.9761Z" fill="#272833"/>
<path d="M29.4646 104.137L30.7168 101.501L26.759 93.0053H28.019L31.3121 100.279L34.667 93.0053H35.8806L30.7014 104.137H29.4646ZM44.3768 104.137V98.9111L44.6937 99.3981C44.3381 99.6506 43.9026 99.8568 43.3873 100.017C42.872 100.171 42.2896 100.248 41.6403 100.248C40.6766 100.248 39.9036 100.071 39.3212 99.7151C38.7441 99.3595 38.3266 98.8699 38.069 98.2463C37.8113 97.6176 37.6824 96.8987 37.6824 96.0896V93.0053H38.8265V95.6954C38.8265 96.2107 38.8755 96.6797 38.9734 97.1023C39.0713 97.5249 39.2336 97.8882 39.4604 98.1922C39.6871 98.4963 39.9886 98.7308 40.3648 98.8957C40.741 99.0554 41.2048 99.1353 41.7562 99.1353C42.4416 99.1353 43.0317 99.0322 43.5264 98.8261C44.0212 98.6148 44.3845 98.3881 44.6164 98.1458L44.3768 99.058V93.0053H45.5131V104.137H44.3768ZM48.1411 104.137V93.0053H52.4391C52.5473 93.0053 52.6684 93.0104 52.8024 93.0207C52.9415 93.0259 53.0807 93.0414 53.2198 93.0671C53.8022 93.1547 54.2943 93.3583 54.6963 93.6778C55.1034 93.9922 55.41 94.389 55.6162 94.8683C55.8275 95.3475 55.9331 95.8783 55.9331 96.4607C55.9331 97.0379 55.8275 97.5661 55.6162 98.0454C55.4049 98.5246 55.0957 98.924 54.6886 99.2435C54.2866 99.5579 53.797 99.7589 53.2198 99.8465C53.0807 99.8671 52.9415 99.8826 52.8024 99.8929C52.6684 99.9032 52.5473 99.9083 52.4391 99.9083H49.2774V104.137H48.1411ZM49.2774 98.8261H52.4082C52.5009 98.8261 52.6091 98.8209 52.7328 98.8106C52.8565 98.8003 52.9776 98.7823 53.0961 98.7565C53.4775 98.6741 53.7893 98.5169 54.0315 98.285C54.2789 98.0531 54.4618 97.7774 54.5803 97.4579C54.704 97.1383 54.7659 96.806 54.7659 96.4607C54.7659 96.1154 54.704 95.783 54.5803 95.4635C54.4618 95.1388 54.2789 94.8605 54.0315 94.6286C53.7893 94.3967 53.4775 94.2395 53.0961 94.1571C52.9776 94.1313 52.8565 94.1159 52.7328 94.1107C52.6091 94.1004 52.5009 94.0952 52.4082 94.0952H49.2774V98.8261ZM57.9355 104.137V93.0053H64.8926V94.0952H59.0718V97.9449H63.965V99.0348H59.0718V103.047H64.8926V104.137H57.9355ZM66.2889 104.137L71.2207 98.3777L66.714 93.0053H68.1441L72.4498 98.2077V93.0053H73.5861V98.2077L77.8918 93.0053H79.3219L74.8152 98.3777L79.7471 104.137H78.2938L73.5861 98.6251V104.137H72.4498V98.6251L67.7499 104.137H66.2889ZM80.9317 105.992V103.047C81.3646 103.047 81.7125 102.939 81.9753 102.722C82.2381 102.501 82.4391 102.207 82.5782 101.841C82.7174 101.475 82.823 101.065 82.8952 100.612C82.9673 100.153 83.0292 99.6893 83.0807 99.2203C83.1528 98.5349 83.2095 97.8727 83.2508 97.2337C83.2971 96.5947 83.3358 95.9324 83.3667 95.247C83.4028 94.5616 83.444 93.8118 83.4904 92.9976L90.3548 93.0053V103.047H91.151V105.992H90.0224V104.137H82.068V105.992H80.9317ZM83.1039 103.047H89.2184V94.0952L84.5494 94.0875C84.5185 94.7162 84.4876 95.3243 84.4567 95.9118C84.4257 96.4993 84.3897 97.092 84.3484 97.6898C84.3072 98.2876 84.2531 98.9111 84.1861 99.5605C84.1294 100.153 84.0624 100.671 83.9851 101.114C83.9078 101.557 83.7996 101.936 83.6605 102.251C83.5265 102.565 83.3409 102.83 83.1039 103.047ZM97.4867 91.3742V90.1374H98.7235V91.3742H97.4867ZM94.5415 91.3742V90.1374H95.7783V91.3742H94.5415ZM93.3124 104.137V93.0053H100.27V94.0952H94.4487V97.9449H99.3419V99.0348H94.4487V103.047H100.27V104.137H93.3124ZM102.593 104.137V93.0053H103.73V98.0222H109.883V93.0053H111.012V104.137H109.883V99.1121H103.73V104.137H102.593ZM113.641 104.137V93.0053H114.777V98.0222H120.93V93.0053H122.059V104.137H120.93V99.1121H114.777V104.137H113.641ZM124.681 104.137V93.0053H125.817V97.2337H128.979C129.087 97.2337 129.208 97.2388 129.342 97.2491C129.481 97.2543 129.623 97.2698 129.767 97.2955C130.344 97.3831 130.834 97.5867 131.236 97.9062C131.643 98.2206 131.95 98.6174 132.156 99.0967C132.367 99.5759 132.473 100.104 132.473 100.681C132.473 101.264 132.367 101.794 132.156 102.274C131.95 102.753 131.643 103.152 131.236 103.472C130.834 103.786 130.344 103.987 129.767 104.075C129.623 104.095 129.481 104.111 129.342 104.121C129.208 104.132 129.087 104.137 128.979 104.137H124.681ZM125.817 103.047H128.948C129.046 103.047 129.156 103.042 129.28 103.031C129.404 103.021 129.525 103.006 129.643 102.985C130.02 102.902 130.331 102.745 130.579 102.513C130.826 102.281 131.009 102.006 131.128 101.686C131.246 101.362 131.305 101.027 131.305 100.681C131.305 100.336 131.246 100.004 131.128 99.6841C131.009 99.3646 130.826 99.0889 130.579 98.857C130.331 98.6251 130.02 98.4679 129.643 98.3855C129.525 98.3597 129.404 98.3417 129.28 98.3314C129.156 98.3211 129.046 98.3159 128.948 98.3159H125.817V103.047ZM133.57 104.137V93.0053H134.707V104.137H133.57ZM137.321 104.137V93.0053H144.278V94.0952H138.458V97.9449H143.351V99.0348H138.458V103.047H144.278V104.137H137.321Z" fill="#737373"/>
<path d="M30.8107 142.763V129.765L27.8291 131.587V128.65L30.8107 126.861H33.5273V142.763H30.8107ZM36.6299 142.741V140.422L43.4324 134.359C43.9625 133.888 44.3306 133.442 44.5367 133.023C44.7429 132.603 44.8459 132.198 44.8459 131.808C44.8459 131.278 44.7318 130.807 44.5036 130.394C44.2754 129.975 43.9588 129.644 43.5539 129.401C43.1564 129.158 42.6962 129.036 42.1735 129.036C41.6214 129.036 41.1318 129.165 40.7048 129.423C40.2852 129.673 39.9575 130.008 39.722 130.428C39.4864 130.847 39.3759 131.3 39.3907 131.786H36.652C36.652 130.726 36.8876 129.802 37.3587 129.014C37.8373 128.226 38.4925 127.615 39.3244 127.181C40.1637 126.747 41.1318 126.529 42.2287 126.529C43.2447 126.529 44.1576 126.758 44.9674 127.214C45.7772 127.663 46.4141 128.289 46.8779 129.091C47.3417 129.886 47.5736 130.803 47.5736 131.841C47.5736 132.599 47.4705 133.236 47.2644 133.752C47.0582 134.267 46.749 134.742 46.3368 135.176C45.9319 135.61 45.4276 136.093 44.8239 136.623L39.998 140.896L39.7551 140.234H47.5736V142.741H36.6299Z" fill="#272833"/>
<line x1="199.327" y1="151.763" x2="199.327" y2="86.1368" stroke="#E6E6E6" stroke-width="1.10431"/>
<path d="M236.301 104.137V93.0053H244.827V104.137H243.691V94.0952H237.437V104.137H236.301ZM247.454 104.137V93.0053H251.752C251.86 93.0053 251.981 93.0104 252.115 93.0207C252.255 93.0259 252.394 93.0414 252.533 93.0671C253.115 93.1547 253.607 93.3583 254.009 93.6778C254.416 93.9922 254.723 94.389 254.929 94.8683C255.14 95.3475 255.246 95.8783 255.246 96.4607C255.246 97.0379 255.14 97.5661 254.929 98.0454C254.718 98.5246 254.409 98.924 254.002 99.2435C253.6 99.5579 253.11 99.7589 252.533 99.8465C252.394 99.8671 252.255 99.8826 252.115 99.8929C251.981 99.9032 251.86 99.9083 251.752 99.9083H248.59V104.137H247.454ZM248.59 98.8261H251.721C251.814 98.8261 251.922 98.8209 252.046 98.8106C252.17 98.8003 252.291 98.7823 252.409 98.7565C252.791 98.6741 253.102 98.5169 253.345 98.285C253.592 98.0531 253.775 97.7774 253.893 97.4579C254.017 97.1383 254.079 96.806 254.079 96.4607C254.079 96.1154 254.017 95.783 253.893 95.4635C253.775 95.1388 253.592 94.8605 253.345 94.6286C253.102 94.3967 252.791 94.2395 252.409 94.1571C252.291 94.1313 252.17 94.1159 252.046 94.1107C251.922 94.1004 251.814 94.0952 251.721 94.0952H248.59V98.8261ZM257.248 104.137V93.0053H264.206V94.0952H258.385V97.9449H263.278V99.0348H258.385V103.047H264.206V104.137H257.248ZM266.012 105.992V103.047C266.444 103.047 266.792 102.939 267.055 102.722C267.318 102.501 267.519 102.207 267.658 101.841C267.797 101.475 267.903 101.065 267.975 100.612C268.047 100.153 268.109 99.6893 268.161 99.2203C268.233 98.5349 268.289 97.8727 268.331 97.2337C268.377 96.5947 268.416 95.9324 268.447 95.247C268.483 94.5616 268.524 93.8118 268.57 92.9976L275.435 93.0053V103.047H276.231V105.992H275.102V104.137H267.148V105.992H266.012ZM268.184 103.047H274.298V94.0952L269.629 94.0875C269.598 94.7162 269.567 95.3243 269.537 95.9118C269.506 96.4993 269.47 97.092 269.428 97.6898C269.387 98.2876 269.333 98.9111 269.266 99.5605C269.209 100.153 269.142 100.671 269.065 101.114C268.988 101.557 268.879 101.936 268.74 102.251C268.606 102.565 268.421 102.83 268.184 103.047ZM282.899 104.369C281.791 104.369 280.856 104.124 280.093 103.634C279.33 103.14 278.753 102.457 278.361 101.586C277.97 100.715 277.774 99.7099 277.774 98.571C277.774 97.4321 277.97 96.4272 278.361 95.5562C278.753 94.6853 279.33 94.0051 280.093 93.5155C280.856 93.0207 281.791 92.7734 282.899 92.7734C284.192 92.7734 285.249 93.1058 286.068 93.7706C286.888 94.4302 287.449 95.3166 287.754 96.4297L286.594 96.7312C286.357 95.85 285.932 95.1517 285.319 94.6364C284.705 94.121 283.899 93.8633 282.899 93.8633C282.028 93.8633 281.304 94.0617 280.727 94.4586C280.15 94.8554 279.714 95.4094 279.42 96.1205C279.132 96.8266 278.982 97.6434 278.972 98.571C278.967 99.4986 279.109 100.315 279.397 101.021C279.691 101.727 280.129 102.281 280.711 102.683C281.299 103.08 282.028 103.279 282.899 103.279C283.899 103.279 284.705 103.021 285.319 102.506C285.932 101.985 286.357 101.287 286.594 100.411L287.754 100.712C287.449 101.825 286.888 102.714 286.068 103.379C285.249 104.039 284.192 104.369 282.899 104.369ZM292.884 104.137V94.0952H288.995V93.0053H297.908V94.0952H294.02V104.137H292.884ZM298.537 104.137L302.371 93.0053H303.878L307.712 104.137H306.53L302.889 93.6392H303.337L299.719 104.137H298.537ZM300.245 101.439V100.372H305.996V101.439H300.245ZM309.572 104.137V93.0053H313.87C314.494 93.0053 315.037 93.1341 315.501 93.3918C315.965 93.6495 316.326 93.9973 316.583 94.4354C316.841 94.8683 316.97 95.3475 316.97 95.8732C316.97 96.471 316.81 97.0044 316.49 97.4733C316.171 97.9371 315.743 98.2592 315.207 98.4396L315.192 98.0608C315.913 98.267 316.48 98.6277 316.892 99.143C317.305 99.6584 317.511 100.282 317.511 101.014C317.511 101.658 317.374 102.214 317.101 102.683C316.828 103.147 316.444 103.505 315.949 103.758C315.455 104.01 314.88 104.137 314.226 104.137H309.572ZM310.716 103.047H313.947C314.401 103.047 314.808 102.967 315.169 102.807C315.529 102.642 315.813 102.41 316.019 102.111C316.23 101.813 316.336 101.452 316.336 101.029C316.336 100.617 316.241 100.246 316.05 99.9161C315.859 99.5862 315.599 99.3234 315.269 99.1276C314.944 98.9266 314.573 98.8261 314.156 98.8261H310.716V103.047ZM310.716 97.7516H313.862C314.218 97.7516 314.542 97.6717 314.836 97.512C315.13 97.3471 315.362 97.1229 315.532 96.8394C315.707 96.556 315.795 96.2288 315.795 95.8577C315.795 95.3321 315.612 94.9043 315.246 94.5745C314.885 94.2447 314.424 94.0798 313.862 94.0798H310.716V97.7516ZM327.935 104.137H326.791V95.0074L320.661 104.137H319.517V93.0053H320.661V102.127L326.791 93.0053H327.935V104.137ZM333.525 104.137V94.0952H329.637V93.0053H338.55V94.0952H334.662V104.137H333.525ZM340.253 104.137V93.0053H347.211V94.0952H341.39V97.9449H346.283V99.0348H341.39V103.047H347.211V104.137H340.253ZM348.761 104.137V103.124C349.045 103.15 349.279 103.14 349.465 103.093C349.65 103.042 349.8 102.928 349.913 102.753C350.032 102.578 350.135 102.318 350.223 101.972C350.31 101.622 350.398 101.166 350.485 100.604C350.583 99.9959 350.666 99.3904 350.733 98.7874C350.805 98.1845 350.867 97.5738 350.918 96.9554C350.975 96.3318 351.021 95.6928 351.057 95.0383C351.093 94.3838 351.127 93.7062 351.158 93.0053H358.185V104.137H357.048V94.0952H352.256C352.219 94.626 352.183 95.1697 352.147 95.7263C352.116 96.2829 352.075 96.8523 352.024 97.4347C351.977 98.017 351.918 98.6174 351.846 99.2358C351.779 99.8491 351.694 100.483 351.591 101.137C351.508 101.632 351.41 102.091 351.297 102.513C351.189 102.936 351.034 103.292 350.833 103.58C350.637 103.869 350.372 104.067 350.037 104.175C349.707 104.284 349.282 104.271 348.761 104.137ZM360.801 104.137V93.0053H361.937V97.2337H365.099C365.207 97.2337 365.328 97.2388 365.462 97.2491C365.601 97.2543 365.743 97.2698 365.887 97.2955C366.464 97.3831 366.954 97.5867 367.356 97.9062C367.763 98.2206 368.07 98.6174 368.276 99.0967C368.487 99.5759 368.593 100.104 368.593 100.681C368.593 101.264 368.487 101.794 368.276 102.274C368.07 102.753 367.763 103.152 367.356 103.472C366.954 103.786 366.464 103.987 365.887 104.075C365.743 104.095 365.601 104.111 365.462 104.121C365.328 104.132 365.207 104.137 365.099 104.137H360.801ZM361.937 103.047H365.068C365.166 103.047 365.277 103.042 365.4 103.031C365.524 103.021 365.645 103.006 365.764 102.985C366.14 102.902 366.451 102.745 366.699 102.513C366.946 102.281 367.129 102.006 367.248 101.686C367.366 101.362 367.425 101.027 367.425 100.681C367.425 100.336 367.366 100.004 367.248 99.6841C367.129 99.3646 366.946 99.0889 366.699 98.857C366.451 98.6251 366.14 98.4679 365.764 98.3855C365.645 98.3597 365.524 98.3417 365.4 98.3314C365.277 98.3211 365.166 98.3159 365.068 98.3159H361.937V103.047ZM375.26 104.369C374.153 104.369 373.217 104.124 372.454 103.634C371.692 103.14 371.115 102.457 370.723 101.586C370.331 100.715 370.135 99.7099 370.135 98.571C370.135 97.4321 370.331 96.4272 370.723 95.5562C371.115 94.6853 371.692 94.0051 372.454 93.5155C373.217 93.0207 374.153 92.7734 375.26 92.7734C376.554 92.7734 377.61 93.1058 378.43 93.7706C379.249 94.4302 379.811 95.3166 380.115 96.4297L378.956 96.7312C378.718 95.85 378.293 95.1517 377.68 94.6364C377.067 94.121 376.26 93.8633 375.26 93.8633C374.39 93.8633 373.666 94.0617 373.088 94.4586C372.511 94.8554 372.076 95.4094 371.782 96.1205C371.493 96.8266 371.344 97.6434 371.334 98.571C371.328 99.4986 371.47 100.315 371.759 101.021C372.052 101.727 372.491 102.281 373.073 102.683C373.66 103.08 374.39 103.279 375.26 103.279C376.26 103.279 377.067 103.021 377.68 102.506C378.293 101.985 378.718 101.287 378.956 100.411L380.115 100.712C379.811 101.825 379.249 102.714 378.43 103.379C377.61 104.039 376.554 104.369 375.26 104.369ZM385.245 104.137V94.0952H381.357V93.0053H390.27V94.0952H386.381V104.137H385.245ZM391.973 104.137V93.0053H396.271C396.895 93.0053 397.438 93.1341 397.902 93.3918C398.366 93.6495 398.727 93.9973 398.984 94.4354C399.242 94.8683 399.371 95.3475 399.371 95.8732C399.371 96.471 399.211 97.0044 398.892 97.4733C398.572 97.9371 398.144 98.2592 397.608 98.4396L397.593 98.0608C398.314 98.267 398.881 98.6277 399.294 99.143C399.706 99.6584 399.912 100.282 399.912 101.014C399.912 101.658 399.775 102.214 399.502 102.683C399.229 103.147 398.845 103.505 398.35 103.758C397.856 104.01 397.281 104.137 396.627 104.137H391.973ZM393.117 103.047H396.348C396.802 103.047 397.209 102.967 397.57 102.807C397.93 102.642 398.214 102.41 398.42 102.111C398.631 101.813 398.737 101.452 398.737 101.029C398.737 100.617 398.642 100.246 398.451 99.9161C398.26 99.5862 398 99.3234 397.67 99.1276C397.346 98.9266 396.975 98.8261 396.557 98.8261H393.117V103.047ZM393.117 97.7516H396.263C396.619 97.7516 396.944 97.6717 397.237 97.512C397.531 97.3471 397.763 97.1229 397.933 96.8394C398.108 96.556 398.196 96.2288 398.196 95.8577C398.196 95.3321 398.013 94.9043 397.647 94.5745C397.286 94.2447 396.825 94.0798 396.263 94.0798H393.117V97.7516ZM401.145 104.137L404.98 93.0053H406.487L410.321 104.137H409.138L405.497 93.6392H405.946L402.328 104.137H401.145ZM402.854 101.439V100.372H408.605V101.439H402.854Z" fill="#737373"/>
<path d="M237.571 142.763L243.048 129.378H236.102V126.861H245.897V129.378L240.442 142.763H237.571Z" fill="#272833"/>
<path d="M29.4646 188.063L30.7168 185.427L26.759 176.932H28.019L31.3121 184.206L34.667 176.932H35.8806L30.7014 188.063H29.4646ZM37.6824 188.063V176.932H46.2088V188.063H45.0725V178.022H38.8188V188.063H37.6824ZM48.8356 188.063V176.932H53.1336C53.2418 176.932 53.3629 176.937 53.4969 176.948C53.636 176.953 53.7752 176.968 53.9143 176.994C54.4967 177.081 54.9888 177.285 55.3908 177.605C55.7979 177.919 56.1045 178.316 56.3107 178.795C56.522 179.274 56.6276 179.805 56.6276 180.387C56.6276 180.965 56.522 181.493 56.3107 181.972C56.0994 182.451 55.7902 182.851 55.3831 183.17C54.9811 183.485 54.4915 183.686 53.9143 183.773C53.7752 183.794 53.636 183.809 53.4969 183.82C53.3629 183.83 53.2418 183.835 53.1336 183.835H49.9719V188.063H48.8356ZM49.9719 182.753H53.1027C53.1954 182.753 53.3036 182.748 53.4273 182.737C53.551 182.727 53.6721 182.709 53.7906 182.683C54.172 182.601 54.4838 182.444 54.726 182.212C54.9734 181.98 55.1563 181.704 55.2748 181.385C55.3985 181.065 55.4604 180.733 55.4604 180.387C55.4604 180.042 55.3985 179.71 55.2748 179.39C55.1563 179.066 54.9734 178.787 54.726 178.555C54.4838 178.323 54.172 178.166 53.7906 178.084C53.6721 178.058 53.551 178.043 53.4273 178.037C53.3036 178.027 53.1954 178.022 53.1027 178.022H49.9719V182.753ZM57.555 188.063L61.3891 176.932H62.8965L66.7307 188.063H65.548L61.9071 177.566H62.3554L58.7377 188.063H57.555ZM59.2634 185.366V184.299H65.0146V185.366H59.2634ZM68.5904 188.063V176.932H72.8884C73.5119 176.932 74.0556 177.061 74.5194 177.319C74.9832 177.576 75.344 177.924 75.6017 178.362C75.8593 178.795 75.9882 179.274 75.9882 179.8C75.9882 180.398 75.8284 180.931 75.5089 181.4C75.1894 181.864 74.7616 182.186 74.2257 182.366L74.2102 181.988C74.9317 182.194 75.4986 182.554 75.9109 183.07C76.3231 183.585 76.5293 184.209 76.5293 184.94C76.5293 185.585 76.3927 186.141 76.1196 186.61C75.8464 187.074 75.4625 187.432 74.9678 187.685C74.473 187.937 73.8984 188.063 73.244 188.063H68.5904ZM69.7345 186.974H72.9657C73.4192 186.974 73.8263 186.894 74.187 186.734C74.5478 186.569 74.8312 186.337 75.0374 186.038C75.2486 185.739 75.3543 185.379 75.3543 184.956C75.3543 184.544 75.2589 184.173 75.0683 183.843C74.8776 183.513 74.6173 183.25 74.2875 183.054C73.9629 182.853 73.5918 182.753 73.1744 182.753H69.7345V186.974ZM69.7345 181.678H72.8806C73.2362 181.678 73.5609 181.598 73.8546 181.439C74.1484 181.274 74.3803 181.05 74.5504 180.766C74.7256 180.483 74.8132 180.156 74.8132 179.784C74.8132 179.259 74.6302 178.831 74.2643 178.501C73.9036 178.171 73.4424 178.007 72.8806 178.007H69.7345V181.678ZM77.7627 188.063V187.051C78.0462 187.077 78.2806 187.066 78.4662 187.02C78.6517 186.968 78.8011 186.855 78.9145 186.68C79.033 186.505 79.1361 186.244 79.2237 185.899C79.3113 185.549 79.3989 185.093 79.4865 184.531C79.5845 183.923 79.6669 183.317 79.7339 182.714C79.8061 182.111 79.8679 181.501 79.9194 180.882C79.9761 180.259 80.0225 179.62 80.0586 178.965C80.0946 178.311 80.1281 177.633 80.1591 176.932H87.1858V188.063H86.0494V178.022H81.2567C81.2207 178.553 81.1846 179.096 81.1485 179.653C81.1176 180.21 81.0764 180.779 81.0248 181.361C80.9785 181.944 80.9192 182.544 80.847 183.163C80.7801 183.776 80.695 184.41 80.592 185.064C80.5095 185.559 80.4116 186.018 80.2982 186.44C80.19 186.863 80.0354 187.218 79.8344 187.507C79.6386 187.795 79.3732 187.994 79.0382 188.102C78.7084 188.21 78.2832 188.197 77.7627 188.063ZM97.393 188.063H96.2644V183.835H92.5616L92.1674 183.742C91.3428 183.583 90.709 183.193 90.2658 182.575C89.8226 181.957 89.601 181.227 89.601 180.387C89.601 179.805 89.7066 179.274 89.9179 178.795C90.1292 178.316 90.4358 177.919 90.8378 177.605C91.2449 177.285 91.7371 177.081 92.3143 176.994C92.4586 176.968 92.5977 176.953 92.7317 176.948C92.8657 176.937 92.9868 176.932 93.095 176.932H97.393V188.063ZM90.6523 188.063H89.3459L91.7577 183.116L92.8476 183.534L90.6523 188.063ZM96.2644 182.753V178.022H93.1259C93.0383 178.022 92.9301 178.027 92.8013 178.037C92.6776 178.043 92.5565 178.058 92.4379 178.084C92.0566 178.166 91.7422 178.323 91.4949 178.555C91.2526 178.787 91.0723 179.066 90.9537 179.39C90.8352 179.71 90.776 180.042 90.776 180.387C90.776 180.733 90.8352 181.065 90.9537 181.385C91.0723 181.704 91.2526 181.98 91.4949 182.212C91.7422 182.444 92.0566 182.601 92.4379 182.683C92.5565 182.709 92.6776 182.727 92.8013 182.737C92.9301 182.748 93.0383 182.753 93.1259 182.753H96.2644ZM100.027 188.063V176.932H106.984V178.022H101.163V181.872H106.056V182.962H101.163V186.974H106.984V188.063H100.027ZM109.308 188.063V176.932H110.351L114.727 186.293L119.079 176.932H120.138V188.056H119.056V179.468L115.09 188.063H114.356L110.398 179.468V188.063H109.308ZM122.763 188.063V176.932H123.9V181.16H127.061C127.169 181.16 127.291 181.166 127.425 181.176C127.564 181.181 127.705 181.197 127.85 181.222C128.427 181.31 128.916 181.513 129.318 181.833C129.726 182.147 130.032 182.544 130.238 183.023C130.45 183.503 130.555 184.031 130.555 184.608C130.555 185.19 130.45 185.721 130.238 186.201C130.032 186.68 129.726 187.079 129.318 187.399C128.916 187.713 128.427 187.914 127.85 188.002C127.705 188.022 127.564 188.038 127.425 188.048C127.291 188.058 127.169 188.063 127.061 188.063H122.763ZM123.9 186.974H127.03C127.128 186.974 127.239 186.968 127.363 186.958C127.486 186.948 127.607 186.932 127.726 186.912C128.102 186.829 128.414 186.672 128.661 186.44C128.909 186.208 129.092 185.933 129.21 185.613C129.329 185.288 129.388 184.953 129.388 184.608C129.388 184.263 129.329 183.93 129.21 183.611C129.092 183.291 128.909 183.016 128.661 182.784C128.414 182.552 128.102 182.395 127.726 182.312C127.607 182.286 127.486 182.268 127.363 182.258C127.239 182.248 127.128 182.243 127.03 182.243H123.9V186.974ZM131.653 188.063V176.932H132.789V188.063H131.653ZM135.404 188.063V176.932H142.361V178.022H136.54V181.872H141.433V182.962H136.54V186.974H142.361V188.063H135.404Z" fill="#737373"/>
<path d="M27.6082 226.667V224.348L34.4108 218.286C34.9408 217.814 35.3089 217.369 35.5151 216.949C35.7212 216.53 35.8243 216.125 35.8243 215.735C35.8243 215.205 35.7102 214.733 35.4819 214.321C35.2537 213.902 34.9371 213.57 34.5322 213.327C34.1347 213.084 33.6745 212.963 33.1518 212.963C32.5997 212.963 32.1101 213.092 31.6831 213.349C31.2635 213.6 30.9359 213.935 30.7003 214.354C30.4647 214.774 30.3543 215.227 30.369 215.713H27.6303C27.6303 214.652 27.8659 213.729 28.3371 212.941C28.8156 212.153 29.4708 211.542 30.3027 211.108C31.142 210.673 32.1101 210.456 33.2071 210.456C34.223 210.456 35.1359 210.684 35.9457 211.141C36.7556 211.59 37.3924 212.216 37.8562 213.018C38.32 213.813 38.5519 214.73 38.5519 215.768C38.5519 216.526 38.4488 217.163 38.2427 217.678C38.0366 218.194 37.7274 218.668 37.3151 219.103C36.9102 219.537 36.4059 220.019 35.8022 220.549L30.9764 224.823L30.7334 224.161H38.5519V226.667H27.6082Z" fill="#272833"/>
<line x1="199.327" y1="235.689" x2="199.327" y2="170.064" stroke="#E6E6E6" stroke-width="1.10431"/>
<path d="M240.143 188.063V186.587C239.571 186.685 239.017 186.659 238.481 186.51C237.95 186.355 237.473 186.09 237.051 185.714C236.633 185.332 236.301 184.845 236.054 184.253C235.806 183.655 235.683 182.956 235.683 182.158C235.683 181.359 235.806 180.661 236.054 180.063C236.301 179.465 236.633 178.975 237.051 178.594C237.473 178.208 237.95 177.94 238.481 177.79C239.017 177.635 239.571 177.607 240.143 177.705V176.932H241.271V177.705C241.843 177.607 242.397 177.635 242.933 177.79C243.469 177.94 243.946 178.208 244.364 178.594C244.786 178.975 245.121 179.465 245.368 180.063C245.616 180.661 245.739 181.359 245.739 182.158C245.739 182.956 245.616 183.655 245.368 184.253C245.121 184.845 244.786 185.332 244.364 185.714C243.946 186.09 243.469 186.355 242.933 186.51C242.397 186.659 241.843 186.685 241.271 186.587V188.063H240.143ZM240.143 185.505V178.764C239.653 178.692 239.205 178.728 238.798 178.872C238.396 179.011 238.051 179.236 237.762 179.545C237.473 179.854 237.249 180.233 237.089 180.681C236.935 181.124 236.858 181.617 236.858 182.158C236.858 182.699 236.935 183.191 237.089 183.634C237.249 184.072 237.473 184.443 237.762 184.747C238.051 185.051 238.396 185.27 238.798 185.404C239.205 185.538 239.653 185.572 240.143 185.505ZM241.271 185.505C241.766 185.572 242.215 185.538 242.617 185.404C243.018 185.265 243.364 185.046 243.652 184.747C243.946 184.443 244.17 184.072 244.325 183.634C244.485 183.196 244.565 182.712 244.565 182.181C244.565 181.645 244.485 181.155 244.325 180.712C244.17 180.264 243.946 179.882 243.652 179.568C243.364 179.254 243.018 179.024 242.617 178.88C242.215 178.731 241.766 178.692 241.271 178.764V185.505ZM256.174 188.063H255.03V178.934L248.9 188.063H247.756V176.932H248.9V186.054L255.03 176.932H256.174V188.063ZM258.031 188.063V187.051C258.314 187.077 258.548 187.066 258.734 187.02C258.92 186.968 259.069 186.855 259.182 186.68C259.301 186.505 259.404 186.244 259.492 185.899C259.579 185.549 259.667 185.093 259.754 184.531C259.852 183.923 259.935 183.317 260.002 182.714C260.074 182.111 260.136 181.501 260.187 180.882C260.244 180.259 260.29 179.62 260.326 178.965C260.363 178.311 260.396 177.633 260.427 176.932H267.454V188.063H266.317V178.022H261.525C261.489 178.553 261.452 179.096 261.416 179.653C261.385 180.21 261.344 180.779 261.293 181.361C261.246 181.944 261.187 182.544 261.115 183.163C261.048 183.776 260.963 184.41 260.86 185.064C260.777 185.559 260.679 186.018 260.566 186.44C260.458 186.863 260.303 187.218 260.102 187.507C259.906 187.795 259.641 187.994 259.306 188.102C258.976 188.21 258.551 188.197 258.031 188.063ZM278.496 188.063H277.352V178.934L271.222 188.063H270.078V176.932H271.222V186.054L277.352 176.932H278.496V188.063ZM280.352 188.063L284.186 176.932H285.694L289.528 188.063H288.345L284.704 177.566H285.152L281.535 188.063H280.352ZM282.06 185.366V184.299H287.812V185.366H282.06ZM291.188 188.063V187.051C291.472 187.077 291.706 187.066 291.892 187.02C292.077 186.968 292.227 186.855 292.34 186.68C292.458 186.505 292.562 186.244 292.649 185.899C292.737 185.549 292.824 185.093 292.912 184.531C293.01 183.923 293.092 183.317 293.159 182.714C293.231 182.111 293.293 181.501 293.345 180.882C293.402 180.259 293.448 179.62 293.484 178.965C293.52 178.311 293.554 177.633 293.584 176.932H300.611V188.063H299.475V178.022H294.682C294.646 178.553 294.61 179.096 294.574 179.653C294.543 180.21 294.502 180.779 294.45 181.361C294.404 181.944 294.345 182.544 294.272 183.163C294.205 183.776 294.12 184.41 294.017 185.064C293.935 185.559 293.837 186.018 293.724 186.44C293.615 186.863 293.461 187.218 293.26 187.507C293.064 187.795 292.799 187.994 292.464 188.102C292.134 188.21 291.709 188.197 291.188 188.063ZM303.227 188.063V176.932H304.364V181.16H307.525C307.634 181.16 307.755 181.166 307.889 181.176C308.028 181.181 308.17 181.197 308.314 181.222C308.891 181.31 309.381 181.513 309.783 181.833C310.19 182.147 310.496 182.544 310.702 183.023C310.914 183.503 311.019 184.031 311.019 184.608C311.019 185.19 310.914 185.721 310.702 186.201C310.496 186.68 310.19 187.079 309.783 187.399C309.381 187.713 308.891 187.914 308.314 188.002C308.17 188.022 308.028 188.038 307.889 188.048C307.755 188.058 307.634 188.063 307.525 188.063H303.227ZM304.364 186.974H307.494C307.592 186.974 307.703 186.968 307.827 186.958C307.95 186.948 308.072 186.932 308.19 186.912C308.566 186.829 308.878 186.672 309.125 186.44C309.373 186.208 309.556 185.933 309.674 185.613C309.793 185.288 309.852 184.953 309.852 184.608C309.852 184.263 309.793 183.93 309.674 183.611C309.556 183.291 309.373 183.016 309.125 182.784C308.878 182.552 308.566 182.395 308.19 182.312C308.072 182.286 307.95 182.268 307.827 182.258C307.703 182.248 307.592 182.243 307.494 182.243H304.364V186.974ZM312.117 188.063V176.932H313.253V188.063H312.117Z" fill="#737373"/>
<path d="M239.526 226.689V213.692L236.544 215.514V212.576L239.526 210.787H242.242V226.689H239.526ZM248.547 226.689V213.692L245.566 215.514V212.576L248.547 210.787H251.264V226.689H248.547Z" fill="#272833"/>
<rect x="27.6082" y="277.181" width="212.467" height="56.1292" rx="7.73016" fill="white"/>
<path d="M62.5356 315.131V311.066C63.059 311.066 63.4831 310.934 63.8077 310.669C64.139 310.404 64.3974 310.046 64.5829 309.596C64.7685 309.138 64.9076 308.625 65.0004 308.055C65.0998 307.485 65.1793 306.895 65.2389 306.286C65.325 305.425 65.3946 304.59 65.4476 303.781C65.5073 302.973 65.5603 302.135 65.6066 301.267C65.653 300.399 65.706 299.451 65.7657 298.424L74.7603 298.434V311.066H75.8038V315.131H74.0347V312.746H64.3047V315.131H62.5356ZM65.6365 311.066H72.9912V300.114L67.4056 300.104C67.3658 300.873 67.326 301.611 67.2863 302.32C67.2532 303.023 67.2101 303.732 67.1571 304.447C67.1041 305.163 67.0378 305.921 66.9583 306.723C66.8854 307.465 66.8026 308.108 66.7098 308.651C66.6237 309.188 66.4978 309.652 66.3322 310.043C66.1665 310.427 65.9346 310.768 65.6365 311.066ZM82.6355 313.044C81.582 313.044 80.661 312.812 79.8725 312.349C79.0907 311.878 78.4811 311.225 78.0438 310.391C77.6065 309.549 77.3878 308.568 77.3878 307.449C77.3878 306.276 77.6032 305.262 78.0338 304.407C78.4645 303.546 79.0642 302.884 79.8328 302.42C80.608 301.949 81.5157 301.714 82.556 301.714C83.636 301.714 84.5537 301.963 85.309 302.459C86.071 302.956 86.6408 303.665 87.0185 304.586C87.4028 305.507 87.5684 306.604 87.5154 307.876H85.7264V307.24C85.7066 305.921 85.4382 304.938 84.9214 304.288C84.4046 303.632 83.636 303.304 82.6156 303.304C81.5223 303.304 80.6908 303.655 80.121 304.358C79.5512 305.06 79.2662 306.067 79.2662 307.379C79.2662 308.645 79.5512 309.625 80.121 310.321C80.6908 311.017 81.5025 311.365 82.556 311.365C83.2649 311.365 83.8811 311.202 84.4046 310.878C84.928 310.553 85.3388 310.086 85.637 309.476L87.3365 310.063C86.9191 311.01 86.2896 311.746 85.4482 312.269C84.6133 312.786 83.6757 313.044 82.6355 313.044ZM78.6699 307.876V306.455H86.6011V307.876H78.6699ZM94.6578 313.044C93.6507 313.044 92.8026 312.796 92.1135 312.299C91.4244 311.795 90.901 311.116 90.5432 310.261C90.192 309.4 90.0164 308.436 90.0164 307.369C90.0164 306.289 90.192 305.322 90.5432 304.467C90.901 303.612 91.4244 302.94 92.1135 302.45C92.8092 301.959 93.6606 301.714 94.6678 301.714C95.6617 301.714 96.5164 301.963 97.232 302.459C97.9542 302.95 98.5075 303.622 98.8918 304.477C99.2761 305.332 99.4682 306.296 99.4682 307.369C99.4682 308.443 99.2761 309.407 98.8918 310.261C98.5075 311.116 97.9542 311.795 97.232 312.299C96.5164 312.796 95.6583 313.044 94.6578 313.044ZM89.7183 317.517V302.012H91.2985V309.914H91.4973V317.517H89.7183ZM94.4392 311.424C95.1481 311.424 95.7345 311.245 96.1983 310.888C96.6622 310.53 97.01 310.046 97.2419 309.436C97.4738 308.82 97.5898 308.131 97.5898 307.369C97.5898 306.614 97.4738 305.931 97.2419 305.322C97.0166 304.712 96.6655 304.229 96.1884 303.871C95.718 303.513 95.1183 303.334 94.3895 303.334C93.6938 303.334 93.1173 303.506 92.6601 303.851C92.203 304.189 91.8617 304.663 91.6364 305.272C91.4112 305.875 91.2985 306.574 91.2985 307.369C91.2985 308.151 91.4079 308.85 91.6265 309.466C91.8518 310.076 92.1963 310.556 92.6601 310.907C93.1239 311.252 93.717 311.424 94.4392 311.424ZM106.298 313.044C105.245 313.044 104.324 312.812 103.535 312.349C102.753 311.878 102.144 311.225 101.707 310.391C101.269 309.549 101.051 308.568 101.051 307.449C101.051 306.276 101.266 305.262 101.697 304.407C102.127 303.546 102.727 302.884 103.496 302.42C104.271 301.949 105.179 301.714 106.219 301.714C107.299 301.714 108.216 301.963 108.972 302.459C109.734 302.956 110.304 303.665 110.681 304.586C111.066 305.507 111.231 306.604 111.178 307.876H109.389V307.24C109.369 305.921 109.101 304.938 108.584 304.288C108.067 303.632 107.299 303.304 106.278 303.304C105.185 303.304 104.354 303.655 103.784 304.358C103.214 305.06 102.929 306.067 102.929 307.379C102.929 308.645 103.214 309.625 103.784 310.321C104.354 311.017 105.165 311.365 106.219 311.365C106.928 311.365 107.544 311.202 108.067 310.878C108.591 310.553 109.002 310.086 109.3 309.476L110.999 310.063C110.582 311.01 109.952 311.746 109.111 312.269C108.276 312.786 107.339 313.044 106.298 313.044ZM102.333 307.876V306.455H110.264V307.876H102.333ZM113.381 312.746V302.012H117.953C118.225 302.012 118.516 302.029 118.828 302.062C119.146 302.088 119.434 302.138 119.692 302.211C120.269 302.363 120.742 302.678 121.113 303.155C121.491 303.626 121.68 304.222 121.68 304.944C121.68 305.348 121.617 305.7 121.491 305.998C121.372 306.296 121.2 306.554 120.974 306.773C120.875 306.872 120.766 306.962 120.646 307.041C120.527 307.121 120.408 307.184 120.289 307.23C120.52 307.27 120.756 307.359 120.994 307.498C121.372 307.704 121.667 307.992 121.879 308.363C122.097 308.734 122.207 309.208 122.207 309.784C122.207 310.513 122.031 311.116 121.68 311.593C121.329 312.064 120.845 312.388 120.229 312.567C119.97 312.64 119.686 312.69 119.374 312.716C119.063 312.736 118.761 312.746 118.47 312.746H113.381ZM115.17 311.305H118.37C118.509 311.305 118.675 311.292 118.867 311.265C119.066 311.239 119.242 311.206 119.394 311.166C119.739 311.066 119.987 310.881 120.139 310.609C120.298 310.338 120.378 310.043 120.378 309.725C120.378 309.301 120.259 308.956 120.02 308.691C119.788 308.426 119.48 308.26 119.096 308.194C118.957 308.154 118.804 308.131 118.639 308.125C118.48 308.118 118.337 308.115 118.211 308.115H115.17V311.305ZM115.17 306.654H117.834C118.019 306.654 118.215 306.644 118.42 306.624C118.625 306.597 118.804 306.554 118.957 306.495C119.262 306.382 119.483 306.196 119.623 305.938C119.768 305.673 119.841 305.385 119.841 305.073C119.841 304.729 119.762 304.427 119.603 304.169C119.45 303.904 119.215 303.722 118.897 303.622C118.685 303.543 118.447 303.5 118.182 303.493C117.923 303.48 117.757 303.473 117.685 303.473H115.17V306.654ZM128.775 313.044C127.708 313.044 126.787 312.802 126.012 312.319C125.244 311.835 124.651 311.166 124.233 310.311C123.816 309.456 123.607 308.476 123.607 307.369C123.607 306.243 123.819 305.256 124.243 304.407C124.667 303.559 125.267 302.9 126.042 302.43C126.817 301.953 127.728 301.714 128.775 301.714C129.849 301.714 130.773 301.956 131.548 302.44C132.323 302.917 132.916 303.583 133.327 304.437C133.745 305.285 133.953 306.263 133.953 307.369C133.953 308.489 133.745 309.476 133.327 310.331C132.91 311.179 132.313 311.845 131.538 312.329C130.763 312.806 129.842 313.044 128.775 313.044ZM128.775 311.365C129.888 311.365 130.717 310.994 131.26 310.251C131.803 309.509 132.075 308.549 132.075 307.369C132.075 306.157 131.8 305.193 131.25 304.477C130.7 303.755 129.875 303.394 128.775 303.394C128.026 303.394 127.41 303.563 126.927 303.901C126.443 304.239 126.082 304.706 125.843 305.302C125.605 305.898 125.485 306.587 125.485 307.369C125.485 308.575 125.764 309.542 126.32 310.271C126.877 311 127.695 311.365 128.775 311.365ZM144.643 313.044C143.556 313.044 142.632 312.802 141.87 312.319C141.115 311.828 140.538 311.156 140.141 310.301C139.743 309.446 139.538 308.472 139.525 307.379C139.538 306.259 139.747 305.275 140.151 304.427C140.562 303.573 141.148 302.907 141.91 302.43C142.672 301.953 143.59 301.714 144.663 301.714C145.796 301.714 146.77 301.992 147.585 302.549C148.407 303.105 148.956 303.867 149.235 304.835L147.486 305.362C147.26 304.739 146.893 304.255 146.382 303.911C145.879 303.566 145.299 303.394 144.643 303.394C143.908 303.394 143.301 303.566 142.824 303.911C142.347 304.248 141.993 304.719 141.761 305.322C141.529 305.918 141.41 306.604 141.403 307.379C141.416 308.572 141.691 309.536 142.228 310.271C142.771 311 143.576 311.365 144.643 311.365C145.345 311.365 145.928 311.206 146.392 310.888C146.856 310.563 147.207 310.096 147.446 309.486L149.235 309.953C148.864 310.954 148.284 311.719 147.495 312.249C146.707 312.779 145.756 313.044 144.643 313.044ZM151.253 312.746V302.012H155.825C156.097 302.012 156.388 302.029 156.7 302.062C157.018 302.088 157.306 302.138 157.564 302.211C158.141 302.363 158.615 302.678 158.986 303.155C159.363 303.626 159.552 304.222 159.552 304.944C159.552 305.348 159.489 305.7 159.363 305.998C159.244 306.296 159.072 306.554 158.846 306.773C158.747 306.872 158.638 306.962 158.519 307.041C158.399 307.121 158.28 307.184 158.161 307.23C158.393 307.27 158.628 307.359 158.866 307.498C159.244 307.704 159.539 307.992 159.751 308.363C159.97 308.734 160.079 309.208 160.079 309.784C160.079 310.513 159.903 311.116 159.552 311.593C159.201 312.064 158.717 312.388 158.101 312.567C157.843 312.64 157.558 312.69 157.246 312.716C156.935 312.736 156.633 312.746 156.342 312.746H151.253ZM153.042 311.305H156.243C156.382 311.305 156.547 311.292 156.739 311.265C156.938 311.239 157.114 311.206 157.266 311.166C157.611 311.066 157.859 310.881 158.012 310.609C158.171 310.338 158.25 310.043 158.25 309.725C158.25 309.301 158.131 308.956 157.892 308.691C157.66 308.426 157.352 308.26 156.968 308.194C156.829 308.154 156.677 308.131 156.511 308.125C156.352 308.118 156.209 308.115 156.083 308.115H153.042V311.305ZM153.042 306.654H155.706C155.891 306.654 156.087 306.644 156.292 306.624C156.498 306.597 156.677 306.554 156.829 306.495C157.134 306.382 157.356 306.196 157.495 305.938C157.641 305.673 157.713 305.385 157.713 305.073C157.713 304.729 157.634 304.427 157.475 304.169C157.323 303.904 157.087 303.722 156.769 303.622C156.557 303.543 156.319 303.5 156.054 303.493C155.795 303.48 155.63 303.473 155.557 303.473H153.042V306.654ZM168.705 312.746V308.86H166.389C166.117 308.86 165.816 308.85 165.484 308.83C165.16 308.804 164.855 308.767 164.57 308.721C163.795 308.575 163.139 308.234 162.602 307.697C162.072 307.161 161.807 306.418 161.807 305.471C161.807 304.55 162.056 303.811 162.553 303.255C163.056 302.691 163.676 302.327 164.411 302.161C164.742 302.082 165.077 302.039 165.415 302.032C165.759 302.019 166.051 302.012 166.29 302.012H170.474L170.484 312.746H168.705ZM161.479 312.746L164.332 308.373H166.24L163.387 312.746H161.479ZM166.26 307.399H168.705V303.473H166.26C166.107 303.473 165.905 303.48 165.653 303.493C165.408 303.506 165.173 303.546 164.948 303.612C164.736 303.672 164.527 303.781 164.322 303.94C164.123 304.099 163.957 304.305 163.825 304.557C163.692 304.808 163.626 305.106 163.626 305.451C163.626 305.948 163.765 306.352 164.043 306.664C164.322 306.968 164.66 307.174 165.057 307.28C165.276 307.333 165.491 307.366 165.703 307.379C165.922 307.392 166.107 307.399 166.26 307.399ZM177.122 313.044C176.062 313.044 175.125 312.816 174.31 312.358C173.495 311.895 172.852 311.259 172.382 310.45L173.793 309.536C174.184 310.126 174.651 310.579 175.194 310.897C175.738 311.209 176.357 311.365 177.053 311.365C177.782 311.365 178.361 311.199 178.792 310.868C179.223 310.53 179.438 310.076 179.438 309.506C179.438 309.082 179.332 308.757 179.12 308.532C178.908 308.307 178.603 308.151 178.206 308.065C177.808 307.979 177.334 307.936 176.784 307.936H175.671V306.475H176.774C177.47 306.475 178.037 306.362 178.474 306.137C178.911 305.912 179.13 305.527 179.13 304.984C179.13 304.427 178.925 304.023 178.514 303.771C178.11 303.513 177.626 303.384 177.063 303.384C176.466 303.384 175.897 303.51 175.353 303.761C174.81 304.007 174.343 304.318 173.952 304.696L172.878 303.493C173.435 302.923 174.074 302.486 174.797 302.181C175.526 301.87 176.317 301.714 177.172 301.714C177.861 301.714 178.491 301.837 179.06 302.082C179.637 302.32 180.094 302.675 180.432 303.145C180.776 303.609 180.949 304.176 180.949 304.845C180.949 305.415 180.816 305.921 180.551 306.365C180.286 306.809 179.895 307.197 179.378 307.528L179.309 306.902C179.746 307.008 180.107 307.204 180.392 307.488C180.684 307.767 180.899 308.098 181.038 308.482C181.177 308.867 181.247 309.268 181.247 309.685C181.247 310.387 181.061 310.99 180.69 311.494C180.326 311.991 179.832 312.375 179.209 312.647C178.587 312.912 177.891 313.044 177.122 313.044ZM188.08 313.044C187.026 313.044 186.105 312.812 185.317 312.349C184.535 311.878 183.925 311.225 183.488 310.391C183.051 309.549 182.832 308.568 182.832 307.449C182.832 306.276 183.047 305.262 183.478 304.407C183.909 303.546 184.508 302.884 185.277 302.42C186.052 301.949 186.96 301.714 188 301.714C189.08 301.714 189.998 301.963 190.753 302.459C191.515 302.956 192.085 303.665 192.463 304.586C192.847 305.507 193.013 306.604 192.96 307.876H191.171V307.24C191.151 305.921 190.882 304.938 190.366 304.288C189.849 303.632 189.08 303.304 188.06 303.304C186.967 303.304 186.135 303.655 185.565 304.358C184.995 305.06 184.71 306.067 184.71 307.379C184.71 308.645 184.995 309.625 185.565 310.321C186.135 311.017 186.947 311.365 188 311.365C188.709 311.365 189.325 311.202 189.849 310.878C190.372 310.553 190.783 310.086 191.081 309.476L192.781 310.063C192.363 311.01 191.734 311.746 190.892 312.269C190.057 312.786 189.12 313.044 188.08 313.044ZM184.114 307.876V306.455H192.045V307.876H184.114ZM199.794 300.76C199.297 300.76 198.843 300.637 198.432 300.392C198.022 300.147 197.694 299.822 197.448 299.418C197.203 299.007 197.081 298.55 197.081 298.047H198.512C198.512 298.398 198.638 298.699 198.889 298.951C199.141 299.203 199.443 299.329 199.794 299.329C200.152 299.329 200.453 299.203 200.698 298.951C200.95 298.699 201.076 298.398 201.076 298.047H202.507C202.507 298.55 202.385 299.007 202.139 299.418C201.901 299.822 201.573 300.147 201.156 300.392C200.745 300.637 200.291 300.76 199.794 300.76ZM203.958 302.012V312.746H202.249V304.835L196.623 312.746H195.162V302.012H196.872V309.814L202.507 302.012H203.958Z" fill="#272833"/>
<rect x="27.6082" y="277.181" width="212.467" height="56.1292" rx="7.73016" stroke="#DDDDDD" stroke-width="2.20862"/>
<path d="M0 0H487H0ZM487 351.17C487 362.758 477.606 372.152 466.018 372.152H20.9819C9.3939 372.152 0 362.758 0 351.17C0 359.099 7.91065 365.526 17.6689 365.526H469.331C479.089 365.526 487 359.099 487 351.17ZM0 368.839V0V368.839ZM487 0V368.839V0Z" fill="#F0F0F0" mask="url(#path-1-inside-1_618_22388)"/>
</svg>
