<svg width="269" height="139" viewBox="0 0 269 139" fill="none" xmlns="http://www.w3.org/2000/svg">
<g clip-path="url(#clip0_618_16421)">
<rect width="269" height="138.5" rx="16" fill="#00D45F"/>
<path d="M68.38 85V82.62H62V80.37L66.61 70.6H69.36L64.75 80.37H68.38V76.62H70.82V80.37H72.17V82.62H70.82V85H68.38ZM73.568 84.98V82.88L79.728 77.39C80.208 76.9633 80.5413 76.56 80.728 76.18C80.9146 75.8 81.008 75.4333 81.008 75.08C81.008 74.6 80.9046 74.1733 80.698 73.8C80.4913 73.42 80.2046 73.12 79.838 72.9C79.478 72.68 79.0613 72.57 78.588 72.57C78.088 72.57 77.6446 72.6867 77.258 72.92C76.878 73.1467 76.5813 73.45 76.368 73.83C76.1546 74.21 76.0546 74.62 76.068 75.06H73.588C73.588 74.1 73.8013 73.2633 74.228 72.55C74.6613 71.8367 75.2546 71.2833 76.008 70.89C76.768 70.4967 77.6446 70.3 78.638 70.3C79.558 70.3 80.3846 70.5067 81.118 70.92C81.8513 71.3267 82.428 71.8933 82.848 72.62C83.268 73.34 83.478 74.17 83.478 75.11C83.478 75.7967 83.3846 76.3733 83.198 76.84C83.0113 77.3067 82.7313 77.7367 82.358 78.13C81.9913 78.5233 81.5346 78.96 80.988 79.44L76.618 83.31L76.398 82.71H83.478V84.98H73.568ZM89.402 85.27C88.682 85.27 88.002 85.13 87.362 84.85C86.722 84.57 86.1654 84.1733 85.692 83.66C85.2254 83.1467 84.8887 82.54 84.682 81.84L87.012 81.21C87.1787 81.7833 87.482 82.2267 87.922 82.54C88.3687 82.8467 88.8587 82.9967 89.392 82.99C89.8654 82.99 90.2887 82.88 90.662 82.66C91.0354 82.44 91.3287 82.1433 91.542 81.77C91.7554 81.39 91.862 80.9667 91.862 80.5C91.862 79.7867 91.632 79.19 91.172 78.71C90.712 78.23 90.1187 77.99 89.392 77.99C89.172 77.99 88.9554 78.02 88.742 78.08C88.5354 78.14 88.3354 78.2233 88.142 78.33L87.042 76.43L91.882 72.29L92.092 72.87H85.242V70.6H94.072V72.88L90.182 76.62L90.162 75.91C91.0354 75.97 91.7787 76.2133 92.392 76.64C93.012 77.0667 93.4854 77.6167 93.812 78.29C94.1454 78.9633 94.312 79.7 94.312 80.5C94.312 81.4067 94.0887 82.22 93.642 82.94C93.202 83.66 92.6087 84.23 91.862 84.65C91.122 85.0633 90.302 85.27 89.402 85.27ZM98.8031 85V73.23L96.1031 74.88V72.22L98.8031 70.6H101.263V85H98.8031Z" fill="white"/>
<path d="M21.264 110.24C20.448 110.24 19.728 110.067 19.104 109.72C18.48 109.368 17.992 108.88 17.64 108.256C17.2933 107.632 17.12 106.912 17.12 106.096V102.384C17.12 101.568 17.2933 100.848 17.64 100.224C17.992 99.6 18.48 99.1147 19.104 98.768C19.728 98.416 20.448 98.24 21.264 98.24C22.08 98.24 22.7973 98.416 23.416 98.768C24.04 99.1147 24.528 99.6 24.88 100.224C25.232 100.848 25.408 101.568 25.408 102.384V106.096C25.408 106.912 25.232 107.632 24.88 108.256C24.528 108.88 24.04 109.368 23.416 109.72C22.7973 110.067 22.08 110.24 21.264 110.24ZM21.264 108.408C21.6693 108.408 22.0373 108.312 22.368 108.12C22.6987 107.923 22.96 107.661 23.152 107.336C23.344 107.005 23.44 106.637 23.44 106.232V102.24C23.44 101.829 23.344 101.461 23.152 101.136C22.96 100.805 22.6987 100.544 22.368 100.352C22.0373 100.155 21.6693 100.056 21.264 100.056C20.8587 100.056 20.4907 100.155 20.16 100.352C19.8293 100.544 19.568 100.805 19.376 101.136C19.184 101.461 19.088 101.829 19.088 102.24V106.232C19.088 106.637 19.184 107.005 19.376 107.336C19.568 107.661 19.8293 107.923 20.16 108.12C20.4907 108.312 20.8587 108.408 21.264 108.408ZM31.9553 110V108.096H26.8513V106.296L30.5393 98.48H32.7393L29.0513 106.296H31.9553V103.296H33.9073V106.296H34.9873V108.096H33.9073V110H31.9553ZM39.3376 98.48H41.2736L38.2016 110H36.2656L39.3376 98.48ZM42.5475 109.984V108.304L47.4755 103.912C47.8595 103.571 48.1262 103.248 48.2755 102.944C48.4248 102.64 48.4995 102.347 48.4995 102.064C48.4995 101.68 48.4168 101.339 48.2515 101.04C48.0862 100.736 47.8568 100.496 47.5635 100.32C47.2755 100.144 46.9422 100.056 46.5635 100.056C46.1635 100.056 45.8088 100.149 45.4995 100.336C45.1955 100.517 44.9582 100.76 44.7875 101.064C44.6168 101.368 44.5368 101.696 44.5475 102.048H42.5635C42.5635 101.28 42.7342 100.611 43.0755 100.04C43.4222 99.4693 43.8968 99.0267 44.4995 98.712C45.1075 98.3973 45.8088 98.24 46.6035 98.24C47.3395 98.24 48.0008 98.4053 48.5875 98.736C49.1742 99.0613 49.6355 99.5147 49.9715 100.096C50.3075 100.672 50.4755 101.336 50.4755 102.088C50.4755 102.637 50.4008 103.099 50.2515 103.472C50.1022 103.845 49.8782 104.189 49.5795 104.504C49.2862 104.819 48.9208 105.168 48.4835 105.552L44.9875 108.648L44.8115 108.168H50.4755V109.984H42.5475ZM55.3348 110.24C54.7481 110.24 54.2014 110.12 53.6948 109.88C53.1881 109.635 52.7508 109.299 52.3828 108.872C52.0201 108.445 51.7588 107.949 51.5988 107.384L53.4548 106.888C53.5294 107.197 53.6654 107.464 53.8628 107.688C54.0654 107.912 54.3001 108.085 54.5668 108.208C54.8388 108.331 55.1188 108.392 55.4068 108.392C55.7801 108.392 56.1214 108.301 56.4308 108.12C56.7401 107.939 56.9854 107.696 57.1668 107.392C57.3481 107.083 57.4388 106.741 57.4388 106.368C57.4388 105.995 57.3454 105.656 57.1588 105.352C56.9774 105.043 56.7321 104.8 56.4228 104.624C56.1134 104.443 55.7748 104.352 55.4068 104.352C54.9641 104.352 54.5961 104.432 54.3028 104.592C54.0148 104.752 53.7934 104.923 53.6388 105.104L51.9908 104.576L52.3428 98.48H58.5988V100.288H53.3748L54.0948 99.608L53.8388 103.848L53.4868 103.416C53.7854 103.144 54.1321 102.941 54.5268 102.808C54.9214 102.675 55.3028 102.608 55.6708 102.608C56.3908 102.608 57.0281 102.773 57.5828 103.104C58.1428 103.429 58.5801 103.875 58.8948 104.44C59.2148 105.005 59.3748 105.648 59.3748 106.368C59.3748 107.088 59.1881 107.741 58.8148 108.328C58.4414 108.909 57.9481 109.373 57.3348 109.72C56.7268 110.067 56.0601 110.24 55.3348 110.24Z" fill="white"/>
<circle cx="19" cy="77" r="3" fill="white"/>
<circle cx="27" cy="77" r="3" fill="white"/>
<circle cx="35" cy="77" r="3" fill="white"/>
<circle cx="43" cy="77" r="3" fill="white"/>
<circle cx="51" cy="77" r="3" fill="white"/>
<path d="M241.002 103.325C240.092 102.989 239.129 102.82 238.161 102.826C235.028 102.826 232.816 104.429 232.8 106.729C232.78 108.419 234.372 109.372 235.576 109.936C236.812 110.517 237.225 110.883 237.221 111.402C237.213 112.191 236.234 112.549 235.324 112.549C234.073 112.549 233.389 112.372 232.338 111.928L231.948 111.744L231.504 114.392C232.265 114.714 233.638 114.99 235.055 115.014C238.386 115.014 240.563 113.422 240.589 110.974C240.616 109.624 239.754 108.604 237.941 107.761C236.839 107.214 236.156 106.849 236.156 106.294C236.156 105.803 236.741 105.278 237.965 105.278C238.779 105.258 239.589 105.413 240.34 105.733L240.634 105.866L241.078 103.308L241.002 103.325V103.325ZM249.131 103.041H246.684C245.922 103.041 245.348 103.254 245.015 104.021L240.309 114.849H243.639L244.305 113.074L248.369 113.078C248.465 113.493 248.759 114.849 248.759 114.849H251.696L249.131 103.041V103.041ZM228.295 102.942H231.468L229.483 114.756H226.313L228.295 102.938V102.942V102.942ZM220.238 109.453L220.567 111.093L223.668 103.041H227.03L222.035 114.833H218.681L215.94 104.848C215.896 104.684 215.791 104.542 215.648 104.453C214.66 103.934 213.613 103.541 212.531 103.282L212.574 103.033H217.683C218.376 103.061 218.934 103.282 219.12 104.033L220.236 109.459V109.453H220.238ZM245.215 110.658L246.48 107.354C246.464 107.389 246.74 106.672 246.901 106.228L247.118 107.248L247.853 110.656H245.213V110.658H245.215Z" fill="white"/>
<path d="M39.0659 22.5273C39.6645 23.2859 40.1713 24.1101 40.576 24.9833L29.0964 33.2774L24.2988 30.3297V26.7835L29.0964 29.7312L39.0659 22.5273Z" fill="white"/>
<path d="M19.4017 30.0808C19.4017 29.9217 19.4056 29.7636 19.4136 29.6064L16.5061 29.4668C16.4962 29.6705 16.4902 29.8761 16.4902 30.0837C16.489 31.7053 16.8144 33.3112 17.4479 34.8092C18.0813 36.3073 19.0103 37.668 20.1815 38.8133L22.2439 36.7929C21.3423 35.9128 20.6271 34.8667 20.1393 33.7149C19.6516 32.563 19.4009 31.3279 19.4017 30.0808Z" fill="white"/>
<path d="M29.0932 20.5822C29.2554 20.5822 29.4167 20.588 29.577 20.5957L29.7225 17.745C29.5141 17.7353 29.3042 17.7305 29.0932 17.7305C27.4379 17.7285 25.7986 18.047 24.2693 18.6677C22.74 19.2884 21.3509 20.1991 20.1816 21.3475L22.244 23.3689C23.142 22.4849 24.2093 21.7837 25.3848 21.3054C26.5602 20.8272 27.8204 20.5814 29.0932 20.5822Z" fill="white"/>
<path d="M29.0932 39.5787C28.931 39.5787 28.7696 39.5787 28.6084 39.5661L28.4629 42.4158C28.672 42.4261 28.8822 42.4313 29.0932 42.4313C30.7478 42.433 32.3863 42.1143 33.9148 41.4934C35.4433 40.8725 36.8315 39.9617 37.9999 38.8134L35.9414 36.793C35.0433 37.6764 33.976 38.3773 32.8009 38.8554C31.6257 39.3334 30.3657 39.5793 29.0932 39.5787Z" fill="white"/>
<path d="M34.5565 22.2388L37.0068 20.4687C34.7672 18.6912 31.9716 17.7236 29.0898 17.7285V20.5812C31.0413 20.5788 32.9474 21.1568 34.5565 22.2388Z" fill="white"/>
<path d="M41.6948 30.0806C41.6963 29.3385 41.6301 28.5977 41.4968 27.8672L38.7843 29.8265C38.7843 29.9109 38.7843 29.9953 38.7843 30.0806C38.785 31.4078 38.5012 32.7203 37.9512 33.9331C37.4012 35.1459 36.5974 36.2318 35.5918 37.1206L37.5483 39.24C38.8556 38.0832 39.9003 36.6701 40.6146 35.0922C41.329 33.5143 41.697 31.8069 41.6948 30.0806Z" fill="white"/>
<path d="M29.093 39.5783C27.7388 39.5788 26.3996 39.3005 25.1621 38.7615C23.9247 38.2224 22.8165 37.4347 21.9094 36.4492L19.748 38.3659C20.9281 39.6474 22.3698 40.6715 23.9797 41.3719C25.5896 42.0721 27.3317 42.433 29.093 42.4309V39.5783Z" fill="white"/>
<path d="M22.5942 23.0393L20.6387 20.9199C19.331 22.0765 18.2859 23.4895 17.5712 25.0674C16.8566 26.6453 16.4883 28.3528 16.4902 30.0792H19.4017C19.4011 28.7521 19.685 27.4396 20.2349 26.2268C20.7849 25.0141 21.5887 23.9281 22.5942 23.0393Z" fill="white"/>
<path d="M183.711 -8.86375H133.984L157.434 63.1562H207.161L183.711 -8.86375Z" fill="#F8D557"/>
<path d="M146.629 11.0797H127.719L136.636 34.3477H155.546L146.629 11.0797Z" fill="#ED6A50"/>
</g>
<defs>
<clipPath id="clip0_618_16421">
<rect width="269" height="138.5" rx="16" fill="white"/>
</clipPath>
</defs>
</svg>
