<svg width="276" height="446" viewBox="0 0 276 446" fill="none" xmlns="http://www.w3.org/2000/svg">
<mask id="path-1-inside-1_618_23380" fill="white">
<path d="M0 16C0 7.16344 7.16344 0 16 0H260C268.837 0 276 7.16344 276 16V430C276 438.837 268.837 446 260 446H16C7.16344 446 0 438.837 0 430V16Z"/>
</mask>
<path d="M0 16C0 7.16344 7.16344 0 16 0H260C268.837 0 276 7.16344 276 16V430C276 438.837 268.837 446 260 446H16C7.16344 446 0 438.837 0 430V16Z" fill="white"/>
<path d="M38.256 47H35.572V35.835L28.224 47H25.54V31.16H28.224V42.325L35.572 31.16H38.256V47ZM45.83 47.33C44.6053 47.33 43.5603 47.0587 42.695 46.516C41.8297 45.966 41.166 45.218 40.704 44.272C40.2493 43.326 40.0183 42.2553 40.011 41.06C40.0183 39.8427 40.2567 38.7647 40.726 37.826C41.2027 36.88 41.8773 36.1393 42.75 35.604C43.6227 35.0613 44.6603 34.79 45.863 34.79C47.2123 34.79 48.3527 35.131 49.284 35.813C50.2227 36.4877 50.835 37.4117 51.121 38.585L48.481 39.3C48.2757 38.662 47.9347 38.167 47.458 37.815C46.9813 37.4557 46.4387 37.276 45.83 37.276C45.1407 37.276 44.5723 37.441 44.125 37.771C43.6777 38.0937 43.3477 38.541 43.135 39.113C42.9223 39.685 42.816 40.334 42.816 41.06C42.816 42.1893 43.069 43.1023 43.575 43.799C44.081 44.4957 44.8327 44.844 45.83 44.844C46.534 44.844 47.0877 44.6827 47.491 44.36C47.9017 44.0373 48.2097 43.5717 48.415 42.963L51.121 43.568C50.7543 44.778 50.1127 45.7093 49.196 46.362C48.2793 47.0073 47.1573 47.33 45.83 47.33ZM52.6433 47V35.12H62.9613V47H60.3103V37.606H55.2943V47H52.6433ZM70.6371 47.33C69.4491 47.33 68.4114 47.0623 67.5241 46.527C66.6367 45.9917 65.9474 45.2547 65.4561 44.316C64.9721 43.37 64.7301 42.2847 64.7301 41.06C64.7301 39.8133 64.9794 38.7207 65.4781 37.782C65.9767 36.8433 66.6697 36.11 67.5571 35.582C68.4444 35.054 69.4711 34.79 70.6371 34.79C71.8324 34.79 72.8737 35.0577 73.7611 35.593C74.6484 36.1283 75.3377 36.869 75.8291 37.815C76.3204 38.7537 76.5661 39.8353 76.5661 41.06C76.5661 42.292 76.3167 43.381 75.8181 44.327C75.3267 45.2657 74.6374 46.0027 73.7501 46.538C72.8627 47.066 71.8251 47.33 70.6371 47.33ZM70.6371 44.844C71.6931 44.844 72.4777 44.492 72.9911 43.788C73.5044 43.084 73.7611 42.1747 73.7611 41.06C73.7611 39.9087 73.5007 38.992 72.9801 38.31C72.4594 37.6207 71.6784 37.276 70.6371 37.276C69.9257 37.276 69.3391 37.4373 68.8771 37.76C68.4224 38.0753 68.0851 38.519 67.8651 39.091C67.6451 39.6557 67.5351 40.312 67.5351 41.06C67.5351 42.2113 67.7954 43.1317 68.3161 43.821C68.8441 44.503 69.6177 44.844 70.6371 44.844ZM77.2297 47V44.778C77.6624 44.8587 77.996 44.8513 78.2307 44.756C78.4654 44.6533 78.6414 44.4627 78.7587 44.184C78.876 43.9053 78.9787 43.535 79.0667 43.073C79.184 42.4203 79.2867 41.6687 79.3747 40.818C79.47 39.9673 79.5507 39.058 79.6167 38.09C79.69 37.122 79.756 36.132 79.8147 35.12H88.5597V47H85.9197V37.606H82.1467C82.11 38.0827 82.066 38.618 82.0147 39.212C81.9634 39.7987 81.9084 40.3927 81.8497 40.994C81.791 41.5953 81.725 42.1673 81.6517 42.71C81.5857 43.2453 81.516 43.7037 81.4427 44.085C81.274 44.943 81.032 45.6213 80.7167 46.12C80.4087 46.6187 79.976 46.9377 79.4187 47.077C78.8614 47.2237 78.1317 47.198 77.2297 47ZM90.968 47V35.12H93.619V39.806H98.954V35.12H101.605V47H98.954V42.292H93.619V47H90.968ZM114.312 35.12V47H111.771V39.245L106.117 47H103.994V35.12H106.535V42.677L112.211 35.12H114.312ZM119.721 47V37.474H115.75V35.12H126.343V37.474H122.372V47H119.721ZM133.169 47.33C131.966 47.33 130.91 47.0697 130.001 46.549C129.091 46.0283 128.38 45.306 127.867 44.382C127.361 43.458 127.108 42.3947 127.108 41.192C127.108 39.894 127.357 38.7683 127.856 37.815C128.354 36.8543 129.047 36.11 129.935 35.582C130.822 35.054 131.849 34.79 133.015 34.79C134.247 34.79 135.292 35.0797 136.15 35.659C137.015 36.231 137.657 37.0413 138.075 38.09C138.493 39.1387 138.65 40.3743 138.548 41.797H135.919V40.829C135.911 39.5383 135.684 38.596 135.237 38.002C134.789 37.408 134.085 37.111 133.125 37.111C132.039 37.111 131.233 37.4483 130.705 38.123C130.177 38.7903 129.913 39.7693 129.913 41.06C129.913 42.2627 130.177 43.194 130.705 43.854C131.233 44.514 132.003 44.844 133.015 44.844C133.667 44.844 134.228 44.701 134.698 44.415C135.174 44.1217 135.541 43.7 135.798 43.15L138.416 43.942C137.961 45.0127 137.257 45.845 136.304 46.439C135.358 47.033 134.313 47.33 133.169 47.33ZM129.077 41.797V39.795H137.25V41.797H129.077ZM139.242 47V44.778C139.675 44.8587 140.009 44.8513 140.243 44.756C140.478 44.6533 140.654 44.4627 140.771 44.184C140.889 43.9053 140.991 43.535 141.079 43.073C141.197 42.4203 141.299 41.6687 141.387 40.818C141.483 39.9673 141.563 39.058 141.629 38.09C141.703 37.122 141.769 36.132 141.827 35.12H150.572V47H147.932V37.606H144.159C144.123 38.0827 144.079 38.618 144.027 39.212C143.976 39.7987 143.921 40.3927 143.862 40.994C143.804 41.5953 143.738 42.1673 143.664 42.71C143.598 43.2453 143.529 43.7037 143.455 44.085C143.287 44.943 143.045 45.6213 142.729 46.12C142.421 46.6187 141.989 46.9377 141.431 47.077C140.874 47.2237 140.144 47.198 139.242 47ZM152.992 47L152.981 35.12H155.632V39.08H157.766C158.096 39.08 158.466 39.0873 158.877 39.102C159.295 39.1167 159.643 39.1497 159.922 39.201C160.589 39.3477 161.157 39.5823 161.627 39.905C162.103 40.2277 162.466 40.6493 162.716 41.17C162.965 41.6907 163.09 42.3177 163.09 43.051C163.09 44.0997 162.818 44.9393 162.276 45.57C161.74 46.1933 160.985 46.6187 160.01 46.846C159.716 46.912 159.357 46.956 158.932 46.978C158.514 46.9927 158.136 47 157.799 47H152.992ZM155.632 44.921H158.03C158.191 44.921 158.371 44.9137 158.569 44.899C158.767 44.8843 158.957 44.8513 159.141 44.8C159.471 44.712 159.76 44.514 160.01 44.206C160.266 43.8907 160.395 43.5057 160.395 43.051C160.395 42.5743 160.266 42.182 160.01 41.874C159.753 41.566 159.438 41.3643 159.064 41.269C158.895 41.225 158.719 41.1957 158.536 41.181C158.352 41.1663 158.184 41.159 158.03 41.159H155.632V44.921ZM164.502 47V35.12H167.153V39.806H172.488V35.12H175.139V47H172.488V42.292H167.153V47H164.502ZM177.539 47L177.528 35.12H180.179V39.08H181.51C181.84 39.08 182.21 39.0873 182.621 39.102C183.039 39.1167 183.387 39.1497 183.666 39.201C184.333 39.3477 184.901 39.5823 185.371 39.905C185.847 40.2277 186.21 40.6493 186.46 41.17C186.709 41.6907 186.834 42.3177 186.834 43.051C186.834 44.0997 186.562 44.9393 186.02 45.57C185.477 46.1933 184.718 46.6187 183.743 46.846C183.457 46.912 183.101 46.956 182.676 46.978C182.25 46.9927 181.873 47 181.543 47H177.539ZM180.179 44.921H181.774C181.935 44.921 182.115 44.9137 182.313 44.899C182.511 44.8843 182.698 44.8513 182.874 44.8C183.204 44.712 183.497 44.514 183.754 44.206C184.01 43.8907 184.139 43.5057 184.139 43.051C184.139 42.5743 184.01 42.182 183.754 41.874C183.497 41.566 183.182 41.3643 182.808 41.269C182.632 41.225 182.452 41.1957 182.269 41.181C182.093 41.1663 181.928 41.159 181.774 41.159H180.179V44.921ZM188.077 47V35.12H190.728V47H188.077ZM198.554 47.33C197.352 47.33 196.296 47.0697 195.386 46.549C194.477 46.0283 193.766 45.306 193.252 44.382C192.746 43.458 192.493 42.3947 192.493 41.192C192.493 39.894 192.743 38.7683 193.241 37.815C193.74 36.8543 194.433 36.11 195.32 35.582C196.208 35.054 197.234 34.79 198.4 34.79C199.632 34.79 200.677 35.0797 201.535 35.659C202.401 36.231 203.042 37.0413 203.46 38.09C203.878 39.1387 204.036 40.3743 203.933 41.797H201.304V40.829C201.297 39.5383 201.07 38.596 200.622 38.002C200.175 37.408 199.471 37.111 198.51 37.111C197.425 37.111 196.618 37.4483 196.09 38.123C195.562 38.7903 195.298 39.7693 195.298 41.06C195.298 42.2627 195.562 43.194 196.09 43.854C196.618 44.514 197.388 44.844 198.4 44.844C199.053 44.844 199.614 44.701 200.083 44.415C200.56 44.1217 200.927 43.7 201.183 43.15L203.801 43.942C203.347 45.0127 202.643 45.845 201.689 46.439C200.743 47.033 199.698 47.33 198.554 47.33ZM194.462 41.797V39.795H202.635V41.797H194.462ZM25.518 77V65.12H35.836V77H33.185V67.606H28.169V77H25.518ZM43.9738 77.33C42.8151 77.33 41.8434 77.055 41.0588 76.505C40.2741 75.955 39.6838 75.207 39.2878 74.261C38.8918 73.3077 38.6938 72.2407 38.6938 71.06C38.6938 69.8647 38.8918 68.794 39.2878 67.848C39.6838 66.902 40.2631 66.1577 41.0258 65.615C41.7958 65.065 42.7454 64.79 43.8748 64.79C44.9968 64.79 45.9684 65.065 46.7898 65.615C47.6184 66.1577 48.2601 66.902 48.7148 67.848C49.1694 68.7867 49.3968 69.8573 49.3968 71.06C49.3968 72.248 49.1731 73.315 48.7258 74.261C48.2784 75.207 47.6478 75.955 46.8338 76.505C46.0198 77.055 45.0664 77.33 43.9738 77.33ZM38.2428 82.28V65.12H40.5858V73.458H40.9158V82.28H38.2428ZM43.5668 74.954C44.2561 74.954 44.8244 74.7817 45.2718 74.437C45.7191 74.0923 46.0491 73.6267 46.2618 73.04C46.4818 72.446 46.5918 71.786 46.5918 71.06C46.5918 70.3413 46.4818 69.6887 46.2618 69.102C46.0418 68.508 45.7008 68.0387 45.2388 67.694C44.7768 67.342 44.1901 67.166 43.4788 67.166C42.8041 67.166 42.2541 67.331 41.8288 67.661C41.4034 67.9837 41.0881 68.4383 40.8828 69.025C40.6848 69.6043 40.5858 70.2827 40.5858 71.06C40.5858 71.83 40.6848 72.5083 40.8828 73.095C41.0881 73.6817 41.4071 74.14 41.8398 74.47C42.2798 74.7927 42.8554 74.954 43.5668 74.954ZM56.4084 77.33C55.2204 77.33 54.1827 77.0623 53.2954 76.527C52.4081 75.9917 51.7187 75.2547 51.2274 74.316C50.7434 73.37 50.5014 72.2847 50.5014 71.06C50.5014 69.8133 50.7507 68.7207 51.2494 67.782C51.7481 66.8433 52.4411 66.11 53.3284 65.582C54.2157 65.054 55.2424 64.79 56.4084 64.79C57.6037 64.79 58.6451 65.0577 59.5324 65.593C60.4197 66.1283 61.1091 66.869 61.6004 67.815C62.0917 68.7537 62.3374 69.8353 62.3374 71.06C62.3374 72.292 62.0881 73.381 61.5894 74.327C61.0981 75.2657 60.4087 76.0027 59.5214 76.538C58.6341 77.066 57.5964 77.33 56.4084 77.33ZM56.4084 74.844C57.4644 74.844 58.2491 74.492 58.7624 73.788C59.2757 73.084 59.5324 72.1747 59.5324 71.06C59.5324 69.9087 59.2721 68.992 58.7514 68.31C58.2307 67.6207 57.4497 67.276 56.4084 67.276C55.6971 67.276 55.1104 67.4373 54.6484 67.76C54.1937 68.0753 53.8564 68.519 53.6364 69.091C53.4164 69.6557 53.3064 70.312 53.3064 71.06C53.3064 72.2113 53.5667 73.1317 54.0874 73.821C54.6154 74.503 55.3891 74.844 56.4084 74.844ZM74.397 65.12V77H71.856V69.245L66.202 77H64.079V65.12H66.62V72.677L72.296 65.12H74.397ZM81.0498 77.33C79.9204 77.33 78.8901 77.0917 77.9588 76.615C77.0274 76.1383 76.2941 75.4857 75.7588 74.657L77.8488 73.26C78.2741 73.766 78.7471 74.1583 79.2678 74.437C79.7884 74.7083 80.3678 74.844 81.0058 74.844C81.6731 74.844 82.1974 74.6973 82.5788 74.404C82.9601 74.1107 83.1508 73.7183 83.1508 73.227C83.1508 72.7943 83.0224 72.49 82.7658 72.314C82.5091 72.1307 82.1718 72.0207 81.7538 71.984C81.3358 71.9473 80.8884 71.929 80.4118 71.929H79.5318V69.828H80.4008C81.0681 69.828 81.6254 69.751 82.0728 69.597C82.5274 69.443 82.7548 69.102 82.7548 68.574C82.7548 68.0973 82.5788 67.76 82.2268 67.562C81.8748 67.3567 81.4641 67.254 80.9948 67.254C80.4228 67.254 79.8581 67.375 79.3008 67.617C78.7434 67.859 78.2448 68.1523 77.8048 68.497L76.3088 66.693C76.9688 66.1063 77.7058 65.6443 78.5198 65.307C79.3338 64.9623 80.2028 64.79 81.1268 64.79C81.8894 64.79 82.6008 64.922 83.2608 65.186C83.9281 65.45 84.4634 65.846 84.8668 66.374C85.2774 66.902 85.4828 67.5547 85.4828 68.332C85.4828 68.8893 85.3618 69.4137 85.1198 69.905C84.8851 70.3963 84.5074 70.862 83.9868 71.302L83.9538 70.444C84.3571 70.6127 84.6981 70.8473 84.9768 71.148C85.2628 71.4487 85.4791 71.8007 85.6258 72.204C85.7798 72.6073 85.8568 73.0363 85.8568 73.491C85.8568 74.3197 85.6368 75.02 85.1968 75.592C84.7568 76.164 84.1701 76.5967 83.4368 76.89C82.7108 77.1833 81.9151 77.33 81.0498 77.33ZM87.595 77V65.12H92.996C93.3846 65.12 93.7476 65.142 94.085 65.186C94.4223 65.23 94.712 65.285 94.954 65.351C95.526 65.5197 96.032 65.8497 96.472 66.341C96.912 66.825 97.132 67.496 97.132 68.354C97.132 68.86 97.0513 69.278 96.89 69.608C96.7286 69.9307 96.516 70.202 96.252 70.422C96.1273 70.5247 95.999 70.6127 95.867 70.686C95.735 70.7593 95.603 70.818 95.471 70.862C95.757 70.906 96.0283 70.9903 96.285 71.115C96.6883 71.313 97.0256 71.6063 97.297 71.995C97.5756 72.3837 97.715 72.93 97.715 73.634C97.715 74.4333 97.5206 75.108 97.132 75.658C96.7506 76.2007 96.1896 76.5783 95.449 76.791C95.1776 76.8643 94.866 76.9193 94.514 76.956C94.162 76.9853 93.8026 77 93.436 77H87.595ZM90.279 74.954H93.249C93.403 74.954 93.5716 74.9393 93.755 74.91C93.9383 74.8807 94.1033 74.8403 94.25 74.789C94.514 74.6937 94.7046 74.525 94.822 74.283C94.9466 74.041 95.009 73.788 95.009 73.524C95.009 73.1647 94.9173 72.8787 94.734 72.666C94.558 72.446 94.3453 72.2993 94.096 72.226C93.9493 72.1673 93.788 72.1343 93.612 72.127C93.4433 72.1123 93.304 72.105 93.194 72.105H90.279V74.954ZM90.279 70.026H92.479C92.7063 70.026 92.9263 70.015 93.139 69.993C93.359 69.9637 93.5423 69.916 93.689 69.85C93.931 69.7547 94.107 69.5933 94.217 69.366C94.3343 69.1387 94.393 68.8857 94.393 68.607C94.393 68.3137 94.327 68.0497 94.195 67.815C94.0703 67.573 93.8686 67.4117 93.59 67.331C93.4066 67.2577 93.183 67.2173 92.919 67.21C92.6623 67.2027 92.4973 67.199 92.424 67.199H90.279V70.026ZM104.493 77.33C103.305 77.33 102.267 77.0623 101.38 76.527C100.493 75.9917 99.8034 75.2547 99.312 74.316C98.828 73.37 98.586 72.2847 98.586 71.06C98.586 69.8133 98.8353 68.7207 99.334 67.782C99.8327 66.8433 100.526 66.11 101.413 65.582C102.3 65.054 103.327 64.79 104.493 64.79C105.688 64.79 106.73 65.0577 107.617 65.593C108.504 66.1283 109.194 66.869 109.685 67.815C110.176 68.7537 110.422 69.8353 110.422 71.06C110.422 72.292 110.173 73.381 109.674 74.327C109.183 75.2657 108.493 76.0027 107.606 76.538C106.719 77.066 105.681 77.33 104.493 77.33ZM104.493 74.844C105.549 74.844 106.334 74.492 106.847 73.788C107.36 73.084 107.617 72.1747 107.617 71.06C107.617 69.9087 107.357 68.992 106.836 68.31C106.315 67.6207 105.534 67.276 104.493 67.276C103.782 67.276 103.195 67.4373 102.733 67.76C102.278 68.0753 101.941 68.519 101.721 69.091C101.501 69.6557 101.391 70.312 101.391 71.06C101.391 72.2113 101.651 73.1317 102.172 73.821C102.7 74.503 103.474 74.844 104.493 74.844ZM111.306 79.64V74.921C111.951 74.921 112.409 74.701 112.681 74.261C112.952 73.821 113.168 73.0583 113.33 71.973C113.432 71.3277 113.517 70.6457 113.583 69.927C113.649 69.2083 113.704 68.4493 113.748 67.65C113.799 66.8507 113.843 66.0073 113.88 65.12H122.724V74.921H123.923V79.64H121.415V77H113.803V79.64H111.306ZM114.859 74.921H120.084V67.199H116.201C116.179 67.639 116.153 68.09 116.124 68.552C116.094 69.0067 116.061 69.4613 116.025 69.916C115.988 70.3707 115.948 70.807 115.904 71.225C115.867 71.6357 115.823 72.017 115.772 72.369C115.691 72.985 115.592 73.491 115.475 73.887C115.357 74.283 115.152 74.6277 114.859 74.921ZM130.628 77.33C129.403 77.33 128.358 77.0587 127.493 76.516C126.628 75.966 125.964 75.218 125.502 74.272C125.047 73.326 124.816 72.2553 124.809 71.06C124.816 69.8427 125.055 68.7647 125.524 67.826C126.001 66.88 126.675 66.1393 127.548 65.604C128.421 65.0613 129.458 64.79 130.661 64.79C132.01 64.79 133.151 65.131 134.082 65.813C135.021 66.4877 135.633 67.4117 135.919 68.585L133.279 69.3C133.074 68.662 132.733 68.167 132.256 67.815C131.779 67.4557 131.237 67.276 130.628 67.276C129.939 67.276 129.37 67.441 128.923 67.771C128.476 68.0937 128.146 68.541 127.933 69.113C127.72 69.685 127.614 70.334 127.614 71.06C127.614 72.1893 127.867 73.1023 128.373 73.799C128.879 74.4957 129.631 74.844 130.628 74.844C131.332 74.844 131.886 74.6827 132.289 74.36C132.7 74.0373 133.008 73.5717 133.213 72.963L135.919 73.568C135.552 74.778 134.911 75.7093 133.994 76.362C133.077 77.0073 131.955 77.33 130.628 77.33ZM140.38 77V67.474H136.409V65.12H147.002V67.474H143.031V77H140.38ZM148.404 77V65.12H153.805C154.194 65.12 154.557 65.142 154.894 65.186C155.232 65.23 155.521 65.285 155.763 65.351C156.335 65.5197 156.841 65.8497 157.281 66.341C157.721 66.825 157.941 67.496 157.941 68.354C157.941 68.86 157.861 69.278 157.699 69.608C157.538 69.9307 157.325 70.202 157.061 70.422C156.937 70.5247 156.808 70.6127 156.676 70.686C156.544 70.7593 156.412 70.818 156.28 70.862C156.566 70.906 156.838 70.9903 157.094 71.115C157.498 71.313 157.835 71.6063 158.106 71.995C158.385 72.3837 158.524 72.93 158.524 73.634C158.524 74.4333 158.33 75.108 157.941 75.658C157.56 76.2007 156.999 76.5783 156.258 76.791C155.987 76.8643 155.675 76.9193 155.323 76.956C154.971 76.9853 154.612 77 154.245 77H148.404ZM151.088 74.954H154.058C154.212 74.954 154.381 74.9393 154.564 74.91C154.748 74.8807 154.913 74.8403 155.059 74.789C155.323 74.6937 155.514 74.525 155.631 74.283C155.756 74.041 155.818 73.788 155.818 73.524C155.818 73.1647 155.727 72.8787 155.543 72.666C155.367 72.446 155.155 72.2993 154.905 72.226C154.759 72.1673 154.597 72.1343 154.421 72.127C154.253 72.1123 154.113 72.105 154.003 72.105H151.088V74.954ZM151.088 70.026H153.288C153.516 70.026 153.736 70.015 153.948 69.993C154.168 69.9637 154.352 69.916 154.498 69.85C154.74 69.7547 154.916 69.5933 155.026 69.366C155.144 69.1387 155.202 68.8857 155.202 68.607C155.202 68.3137 155.136 68.0497 155.004 67.815C154.88 67.573 154.678 67.4117 154.399 67.331C154.216 67.2577 153.992 67.2173 153.728 67.21C153.472 67.2027 153.307 67.199 153.233 67.199H151.088V70.026ZM163.377 77.33C162.519 77.33 161.793 77.1687 161.199 76.846C160.605 76.516 160.154 76.0797 159.846 75.537C159.546 74.9943 159.395 74.3967 159.395 73.744C159.395 73.172 159.491 72.6587 159.681 72.204C159.872 71.742 160.165 71.346 160.561 71.016C160.957 70.6787 161.471 70.4037 162.101 70.191C162.578 70.037 163.135 69.8977 163.773 69.773C164.419 69.6483 165.115 69.5347 165.863 69.432C166.619 69.322 167.407 69.2047 168.228 69.08L167.282 69.619C167.29 68.7977 167.106 68.1927 166.732 67.804C166.358 67.4153 165.728 67.221 164.84 67.221C164.305 67.221 163.788 67.3457 163.289 67.595C162.791 67.8443 162.442 68.2733 162.244 68.882L159.824 68.123C160.118 67.1183 160.675 66.3117 161.496 65.703C162.325 65.0943 163.44 64.79 164.84 64.79C165.896 64.79 166.824 64.9623 167.623 65.307C168.43 65.6517 169.028 66.2163 169.416 67.001C169.629 67.419 169.757 67.848 169.801 68.288C169.845 68.7207 169.867 69.1937 169.867 69.707V77H167.546V74.426L167.931 74.844C167.396 75.702 166.769 76.3327 166.05 76.736C165.339 77.132 164.448 77.33 163.377 77.33ZM163.905 75.218C164.507 75.218 165.02 75.1117 165.445 74.899C165.871 74.6863 166.208 74.426 166.457 74.118C166.714 73.81 166.886 73.5203 166.974 73.249C167.114 72.9117 167.191 72.5267 167.205 72.094C167.227 71.654 167.238 71.2983 167.238 71.027L168.052 71.269C167.253 71.3937 166.567 71.5037 165.995 71.599C165.423 71.6943 164.932 71.786 164.521 71.874C164.111 71.9547 163.748 72.0463 163.432 72.149C163.124 72.259 162.864 72.3873 162.651 72.534C162.439 72.6807 162.274 72.8493 162.156 73.04C162.046 73.2307 161.991 73.4543 161.991 73.711C161.991 74.0043 162.065 74.2647 162.211 74.492C162.358 74.712 162.571 74.888 162.849 75.02C163.135 75.152 163.487 75.218 163.905 75.218Z" fill="#272833"/>
<path d="M25.19 110V97.76H26.4395V103.276H33.2055V97.76H34.4465V110H33.2055V104.475H26.4395V110H25.19ZM39.4542 110.255C38.7629 110.255 38.182 110.13 37.7117 109.881C37.247 109.632 36.8985 109.3 36.6662 108.886C36.4339 108.473 36.3177 108.022 36.3177 107.535C36.3177 107.036 36.4169 106.611 36.6152 106.26C36.8192 105.903 37.094 105.611 37.4397 105.384C37.791 105.158 38.1962 104.985 38.6552 104.866C39.1199 104.753 39.6327 104.653 40.1937 104.568C40.7604 104.478 41.3129 104.401 41.8512 104.339C42.3952 104.271 42.8712 104.206 43.2792 104.143L42.8372 104.415C42.8542 103.509 42.6785 102.837 42.3102 102.401C41.9419 101.965 41.3015 101.746 40.3892 101.746C39.7602 101.746 39.2275 101.888 38.7912 102.171C38.3605 102.455 38.0574 102.902 37.8817 103.514L36.6662 103.157C36.8759 102.336 37.298 101.698 37.9327 101.245C38.5674 100.792 39.3919 100.565 40.4062 100.565C41.2449 100.565 41.956 100.724 42.5397 101.041C43.129 101.353 43.5455 101.806 43.7892 102.401C43.9025 102.667 43.9762 102.965 44.0102 103.293C44.0442 103.622 44.0612 103.956 44.0612 104.296V110H42.9477V107.696L43.2707 107.832C42.959 108.62 42.4745 109.221 41.8172 109.634C41.1599 110.048 40.3722 110.255 39.4542 110.255ZM39.5987 109.175C40.1824 109.175 40.6924 109.071 41.1287 108.861C41.565 108.651 41.9164 108.365 42.1827 108.002C42.449 107.634 42.6219 107.22 42.7012 106.761C42.7692 106.467 42.806 106.144 42.8117 105.792C42.8174 105.435 42.8202 105.169 42.8202 104.993L43.2962 105.24C42.8712 105.297 42.4094 105.353 41.9107 105.41C41.4177 105.467 40.9304 105.532 40.4487 105.605C39.9727 105.679 39.542 105.767 39.1567 105.869C38.896 105.943 38.6439 106.047 38.4002 106.183C38.1565 106.314 37.9554 106.489 37.7967 106.71C37.6437 106.931 37.5672 107.206 37.5672 107.535C37.5672 107.801 37.6324 108.059 37.7627 108.308C37.8987 108.558 38.114 108.765 38.4087 108.929C38.709 109.093 39.1057 109.175 39.5987 109.175ZM50.082 99.732C49.6797 99.732 49.3113 99.6328 48.977 99.4345C48.6427 99.2362 48.3763 98.9727 48.178 98.644C47.9853 98.3097 47.889 97.9413 47.889 97.539H48.926C48.926 97.8563 49.0393 98.1283 49.266 98.355C49.4927 98.5817 49.7647 98.695 50.082 98.695C50.405 98.695 50.677 98.5817 50.898 98.355C51.1247 98.1283 51.238 97.8563 51.238 97.539H52.275C52.275 97.9413 52.1758 98.3097 51.9775 98.644C51.7848 98.9727 51.5213 99.2362 51.187 99.4345C50.8527 99.6328 50.4843 99.732 50.082 99.732ZM53.567 100.82V110H52.3515V102.851L47.3195 110H46.2655V100.82H47.481V107.909L52.5215 100.82H53.567ZM55.2727 112.04V108.929C55.794 108.929 56.168 108.762 56.3947 108.427C56.6214 108.087 56.8055 107.546 56.9472 106.804C57.0435 106.322 57.1229 105.804 57.1852 105.248C57.2475 104.693 57.3014 104.058 57.3467 103.344C57.392 102.625 57.4345 101.783 57.4742 100.82H63.5432V108.929H64.4272V112.04H63.2202V110H56.4712V112.04H55.2727ZM57.3892 108.929H62.3022V101.891H58.6302C58.6132 102.322 58.5877 102.778 58.5537 103.259C58.5254 103.741 58.4885 104.223 58.4432 104.704C58.4035 105.186 58.3554 105.639 58.2987 106.064C58.2477 106.484 58.1854 106.852 58.1117 107.169C58.0267 107.577 57.9332 107.926 57.8312 108.215C57.7349 108.504 57.5875 108.742 57.3892 108.929ZM70.014 110.255C69.1186 110.255 68.3423 110.057 67.685 109.66C67.0333 109.263 66.5261 108.705 66.1635 107.985C65.8008 107.266 65.6195 106.421 65.6195 105.452C65.6195 104.449 65.798 103.582 66.155 102.851C66.512 102.12 67.0135 101.557 67.6595 101.16C68.3111 100.763 69.079 100.565 69.963 100.565C70.8696 100.565 71.6431 100.775 72.2835 101.194C72.9238 101.608 73.4083 102.203 73.737 102.979C74.0656 103.755 74.2158 104.682 74.1875 105.758H72.9125V105.317C72.8898 104.126 72.632 103.228 72.139 102.622C71.6516 102.016 70.9376 101.712 69.997 101.712C69.011 101.712 68.2545 102.033 67.7275 102.673C67.2061 103.313 66.9455 104.226 66.9455 105.41C66.9455 106.566 67.2061 107.464 67.7275 108.104C68.2545 108.739 68.9996 109.056 69.963 109.056C70.6203 109.056 71.1926 108.906 71.68 108.606C72.173 108.3 72.5611 107.861 72.8445 107.288L74.009 107.739C73.6463 108.538 73.1108 109.158 72.4025 109.6C71.6998 110.037 70.9036 110.255 70.014 110.255ZM66.5035 105.758V104.713H73.516V105.758H66.5035ZM76.0653 110V100.82H77.3148V104.806H82.4913V100.82H83.7408V110H82.4913V106.005H77.3148V110H76.0653ZM89.9512 110.255C89.0389 110.255 88.2597 110.048 87.6137 109.634C86.9677 109.221 86.4719 108.648 86.1262 107.917C85.7806 107.186 85.6077 106.348 85.6077 105.401C85.6077 104.438 85.7834 103.594 86.1347 102.868C86.4861 102.143 86.9847 101.579 87.6307 101.177C88.2824 100.769 89.0559 100.565 89.9512 100.565C90.8692 100.565 91.6512 100.772 92.2972 101.185C92.9489 101.593 93.4447 102.163 93.7847 102.894C94.1304 103.619 94.3032 104.455 94.3032 105.401C94.3032 106.365 94.1304 107.212 93.7847 107.943C93.4391 108.668 92.9404 109.235 92.2887 109.643C91.6371 110.051 90.8579 110.255 89.9512 110.255ZM89.9512 109.056C90.9712 109.056 91.7306 108.719 92.2292 108.045C92.7279 107.365 92.9772 106.484 92.9772 105.401C92.9772 104.291 92.7251 103.407 92.2207 102.749C91.7221 102.092 90.9656 101.763 89.9512 101.763C89.2656 101.763 88.6989 101.919 88.2512 102.231C87.8092 102.537 87.4777 102.965 87.2567 103.514C87.0414 104.058 86.9337 104.687 86.9337 105.401C86.9337 106.506 87.1887 107.393 87.6987 108.062C88.2087 108.725 88.9596 109.056 89.9512 109.056Z" fill="#737373"/>
<path d="M101.715 110V99.154L99.4116 100.539V99.137L101.715 97.76H102.982V110H101.715ZM110.201 110.255C109.447 110.255 108.767 110.079 108.161 109.728C107.56 109.377 107.084 108.901 106.733 108.3C106.381 107.694 106.206 107.014 106.206 106.26V101.5C106.206 100.746 106.381 100.069 106.733 99.4685C107.084 98.8622 107.56 98.3833 108.161 98.032C108.767 97.6807 109.447 97.505 110.201 97.505C110.954 97.505 111.631 97.6807 112.232 98.032C112.838 98.3833 113.317 98.8622 113.669 99.4685C114.02 100.069 114.196 100.746 114.196 101.5V106.26C114.196 107.014 114.02 107.694 113.669 108.3C113.317 108.901 112.838 109.377 112.232 109.728C111.631 110.079 110.954 110.255 110.201 110.255ZM110.201 109.048C110.705 109.048 111.164 108.926 111.578 108.682C111.991 108.433 112.32 108.102 112.564 107.688C112.807 107.274 112.929 106.818 112.929 106.319V101.44C112.929 100.936 112.807 100.477 112.564 100.063C112.32 99.6498 111.991 99.3212 111.578 99.0775C111.164 98.8282 110.705 98.7035 110.201 98.7035C109.696 98.7035 109.237 98.8282 108.824 99.0775C108.41 99.3212 108.081 99.6498 107.838 100.063C107.594 100.477 107.472 100.936 107.472 101.44V106.319C107.472 106.818 107.594 107.274 107.838 107.688C108.081 108.102 108.41 108.433 108.824 108.682C109.237 108.926 109.696 109.048 110.201 109.048Z" fill="black"/>
<path d="M24.4 406V391.6H36.07V406H33.66V393.86H26.81V406H24.4ZM43.0427 406.3C41.9627 406.3 41.0193 406.057 40.2127 405.57C39.406 405.083 38.7793 404.413 38.3327 403.56C37.8927 402.7 37.6727 401.713 37.6727 400.6C37.6727 399.467 37.8993 398.473 38.3527 397.62C38.806 396.767 39.436 396.1 40.2427 395.62C41.0493 395.14 41.9827 394.9 43.0427 394.9C44.1293 394.9 45.076 395.143 45.8827 395.63C46.6893 396.117 47.316 396.79 47.7627 397.65C48.2093 398.503 48.4327 399.487 48.4327 400.6C48.4327 401.72 48.206 402.71 47.7527 403.57C47.306 404.423 46.6793 405.093 45.8727 405.58C45.066 406.06 44.1227 406.3 43.0427 406.3ZM43.0427 404.04C44.0027 404.04 44.716 403.72 45.1827 403.08C45.6493 402.44 45.8827 401.613 45.8827 400.6C45.8827 399.553 45.646 398.72 45.1727 398.1C44.6993 397.473 43.9893 397.16 43.0427 397.16C42.396 397.16 41.8627 397.307 41.4427 397.6C41.0293 397.887 40.7227 398.29 40.5227 398.81C40.3227 399.323 40.2227 399.92 40.2227 400.6C40.2227 401.647 40.4593 402.483 40.9327 403.11C41.4127 403.73 42.116 404.04 43.0427 404.04ZM49.2359 408.4V404.11C49.8226 404.11 50.2393 403.91 50.4859 403.51C50.7326 403.11 50.9293 402.417 51.0759 401.43C51.1693 400.843 51.2459 400.223 51.3059 399.57C51.3659 398.917 51.4159 398.227 51.4559 397.5C51.5026 396.773 51.5426 396.007 51.5759 395.2H59.6159V404.11H60.7059V408.4H58.4259V406H51.5059V408.4H49.2359ZM52.4659 404.11H57.2159V397.09H53.6859C53.6659 397.49 53.6426 397.9 53.6159 398.32C53.5893 398.733 53.5593 399.147 53.5259 399.56C53.4926 399.973 53.4559 400.37 53.4159 400.75C53.3826 401.123 53.3426 401.47 53.2959 401.79C53.2226 402.35 53.1326 402.81 53.0259 403.17C52.9193 403.53 52.7326 403.843 52.4659 404.11ZM67.3017 406.3C66.2484 406.3 65.3651 406.05 64.6517 405.55C63.9384 405.05 63.4017 404.37 63.0417 403.51C62.6817 402.643 62.5017 401.673 62.5017 400.6C62.5017 399.513 62.6817 398.54 63.0417 397.68C63.4017 396.82 63.9284 396.143 64.6217 395.65C65.3217 395.15 66.1851 394.9 67.2117 394.9C68.2317 394.9 69.1151 395.15 69.8617 395.65C70.6151 396.143 71.1984 396.82 71.6117 397.68C72.0251 398.533 72.2317 399.507 72.2317 400.6C72.2317 401.68 72.0284 402.65 71.6217 403.51C71.2151 404.37 70.6417 405.05 69.9017 405.55C69.1617 406.05 68.2951 406.3 67.3017 406.3ZM62.0917 410.8V395.2H64.2217V402.78H64.5217V410.8H62.0917ZM66.9317 404.14C67.5584 404.14 68.0751 403.983 68.4817 403.67C68.8884 403.357 69.1884 402.933 69.3817 402.4C69.5817 401.86 69.6817 401.26 69.6817 400.6C69.6817 399.947 69.5817 399.353 69.3817 398.82C69.1817 398.28 68.8717 397.853 68.4517 397.54C68.0317 397.22 67.4984 397.06 66.8517 397.06C66.2384 397.06 65.7384 397.21 65.3517 397.51C64.9651 397.803 64.6784 398.217 64.4917 398.75C64.3117 399.277 64.2217 399.893 64.2217 400.6C64.2217 401.3 64.3117 401.917 64.4917 402.45C64.6784 402.983 64.9684 403.4 65.3617 403.7C65.7617 403.993 66.2851 404.14 66.9317 404.14ZM78.6059 406.3C77.5259 406.3 76.5826 406.057 75.7759 405.57C74.9693 405.083 74.3426 404.413 73.8959 403.56C73.4559 402.7 73.2359 401.713 73.2359 400.6C73.2359 399.467 73.4626 398.473 73.9159 397.62C74.3693 396.767 74.9993 396.1 75.8059 395.62C76.6126 395.14 77.5459 394.9 78.6059 394.9C79.6926 394.9 80.6393 395.143 81.4459 395.63C82.2526 396.117 82.8793 396.79 83.3259 397.65C83.7726 398.503 83.9959 399.487 83.9959 400.6C83.9959 401.72 83.7693 402.71 83.3159 403.57C82.8693 404.423 82.2426 405.093 81.4359 405.58C80.6293 406.06 79.6859 406.3 78.6059 406.3ZM78.6059 404.04C79.5659 404.04 80.2793 403.72 80.7459 403.08C81.2126 402.44 81.4459 401.613 81.4459 400.6C81.4459 399.553 81.2093 398.72 80.7359 398.1C80.2626 397.473 79.5526 397.16 78.6059 397.16C77.9593 397.16 77.4259 397.307 77.0059 397.6C76.5926 397.887 76.2859 398.29 76.0859 398.81C75.8859 399.323 75.7859 399.92 75.7859 400.6C75.7859 401.647 76.0226 402.483 76.4959 403.11C76.9759 403.73 77.6793 404.04 78.6059 404.04ZM90.0892 406.32C89.0626 406.307 88.1892 406.077 87.4692 405.63C86.7492 405.183 86.1859 404.553 85.7792 403.74C85.3726 402.927 85.1259 401.967 85.0392 400.86C84.9992 400.293 84.9959 399.66 85.0292 398.96C85.0626 398.26 85.1359 397.577 85.2492 396.91C85.3626 396.243 85.5192 395.677 85.7192 395.21C85.9259 394.743 86.1959 394.313 86.5292 393.92C86.8626 393.52 87.2226 393.187 87.6092 392.92C88.0492 392.613 88.5259 392.377 89.0392 392.21C89.5592 392.043 90.1026 391.917 90.6692 391.83C91.2359 391.737 91.8192 391.653 92.4192 391.58C93.0192 391.507 93.6126 391.413 94.1992 391.3L94.4192 393.43C94.0459 393.523 93.6126 393.597 93.1192 393.65C92.6326 393.697 92.1259 393.75 91.5992 393.81C91.0792 393.87 90.5826 393.957 90.1092 394.07C89.6359 394.183 89.2259 394.35 88.8792 394.57C88.3992 394.863 88.0326 395.283 87.7792 395.83C87.5259 396.377 87.3759 396.953 87.3292 397.56C87.7426 396.947 88.2559 396.517 88.8692 396.27C89.4892 396.017 90.1159 395.89 90.7492 395.89C91.7092 395.89 92.5326 396.117 93.2192 396.57C93.9126 397.023 94.4426 397.64 94.8092 398.42C95.1826 399.193 95.3692 400.057 95.3692 401.01C95.3692 402.077 95.1459 403.01 94.6992 403.81C94.2526 404.61 93.6326 405.23 92.8392 405.67C92.0459 406.11 91.1292 406.327 90.0892 406.32ZM90.2092 404.06C91.0759 404.06 91.7292 403.793 92.1692 403.26C92.6159 402.72 92.8392 402.003 92.8392 401.11C92.8392 400.197 92.6092 399.477 92.1492 398.95C91.6959 398.423 91.0492 398.16 90.2092 398.16C89.3559 398.16 88.7059 398.423 88.2592 398.95C87.8126 399.477 87.5892 400.197 87.5892 401.11C87.5892 402.043 87.8159 402.77 88.2692 403.29C88.7226 403.803 89.3692 404.06 90.2092 404.06ZM96.9519 406V395.2H99.3619V399.46H104.212V395.2H106.622V406H104.212V401.72H99.3619V406H96.9519ZM113.723 406.3C112.63 406.3 111.67 406.063 110.843 405.59C110.017 405.117 109.37 404.46 108.903 403.62C108.443 402.78 108.213 401.813 108.213 400.72C108.213 399.54 108.44 398.517 108.893 397.65C109.347 396.777 109.977 396.1 110.783 395.62C111.59 395.14 112.523 394.9 113.583 394.9C114.703 394.9 115.653 395.163 116.433 395.69C117.22 396.21 117.803 396.947 118.183 397.9C118.563 398.853 118.707 399.977 118.613 401.27H116.223V400.39C116.217 399.217 116.01 398.36 115.603 397.82C115.197 397.28 114.557 397.01 113.683 397.01C112.697 397.01 111.963 397.317 111.483 397.93C111.003 398.537 110.763 399.427 110.763 400.6C110.763 401.693 111.003 402.54 111.483 403.14C111.963 403.74 112.663 404.04 113.583 404.04C114.177 404.04 114.687 403.91 115.113 403.65C115.547 403.383 115.88 403 116.113 402.5L118.493 403.22C118.08 404.193 117.44 404.95 116.573 405.49C115.713 406.03 114.763 406.3 113.723 406.3ZM110.003 401.27V399.45H117.433V401.27H110.003ZM125.155 406.3C124.061 406.3 123.101 406.063 122.275 405.59C121.448 405.117 120.801 404.46 120.335 403.62C119.875 402.78 119.645 401.813 119.645 400.72C119.645 399.54 119.871 398.517 120.325 397.65C120.778 396.777 121.408 396.1 122.215 395.62C123.021 395.14 123.955 394.9 125.015 394.9C126.135 394.9 127.085 395.163 127.865 395.69C128.651 396.21 129.235 396.947 129.615 397.9C129.995 398.853 130.138 399.977 130.045 401.27H127.655V400.39C127.648 399.217 127.441 398.36 127.035 397.82C126.628 397.28 125.988 397.01 125.115 397.01C124.128 397.01 123.395 397.317 122.915 397.93C122.435 398.537 122.195 399.427 122.195 400.6C122.195 401.693 122.435 402.54 122.915 403.14C123.395 403.74 124.095 404.04 125.015 404.04C125.608 404.04 126.118 403.91 126.545 403.65C126.978 403.383 127.311 403 127.545 402.5L129.925 403.22C129.511 404.193 128.871 404.95 128.005 405.49C127.145 406.03 126.195 406.3 125.155 406.3ZM121.435 401.27V399.45H128.865V401.27H121.435Z" fill="#272833"/>
<path d="M144.333 396H151V402.667M151 396L143 404L151 396Z" stroke="black" stroke-width="1.5" stroke-linecap="round" stroke-linejoin="round"/>
<path d="M25.26 162V149.04H27.456L33.468 158.175V149.04H35.664V162H33.468L27.456 152.865V162H25.26ZM40.227 155.25C39.633 155.25 39.09 155.106 38.598 154.818C38.106 154.524 37.713 154.134 37.419 153.648C37.131 153.156 36.987 152.61 36.987 152.01C36.987 151.422 37.137 150.882 37.437 150.39C37.737 149.898 38.133 149.505 38.625 149.211C39.117 148.917 39.651 148.77 40.227 148.77C40.821 148.77 41.361 148.917 41.847 149.211C42.339 149.499 42.732 149.889 43.026 150.381C43.32 150.867 43.467 151.41 43.467 152.01C43.467 152.61 43.32 153.156 43.026 153.648C42.732 154.134 42.339 154.524 41.847 154.818C41.361 155.106 40.821 155.25 40.227 155.25ZM40.227 153.396C40.479 153.396 40.71 153.333 40.92 153.207C41.13 153.081 41.298 152.913 41.424 152.703C41.55 152.493 41.613 152.262 41.613 152.01C41.613 151.758 41.55 151.527 41.424 151.317C41.298 151.107 41.13 150.939 40.92 150.813C40.71 150.687 40.479 150.624 40.227 150.624C39.975 150.624 39.744 150.687 39.534 150.813C39.324 150.939 39.156 151.107 39.03 151.317C38.904 151.527 38.841 151.758 38.841 152.01C38.841 152.262 38.904 152.493 39.03 152.703C39.156 152.913 39.324 153.081 39.534 153.207C39.744 153.333 39.975 153.396 40.227 153.396ZM37.527 157.743V156.042H42.927V157.743H37.527ZM54.6186 162V159.858H48.8766V157.833L53.0256 149.04H55.5006L51.3516 157.833H54.6186V154.458H56.8146V157.833H58.0296V159.858H56.8146V162H54.6186ZM63.9157 148.788C64.7617 148.788 65.5237 148.989 66.2017 149.391C66.8797 149.787 67.4137 150.339 67.8037 151.047C68.1997 151.749 68.3977 152.559 68.3977 153.477V157.428C68.3977 158.406 68.1997 159.261 67.8037 159.993C67.4137 160.719 66.8647 161.28 66.1567 161.676C65.4487 162.072 64.6207 162.27 63.6727 162.27C63.0187 162.27 62.4007 162.159 61.8187 161.937C61.2367 161.709 60.7147 161.361 60.2527 160.893L61.8097 159.372C62.0437 159.642 62.3227 159.855 62.6467 160.011C62.9767 160.161 63.3187 160.236 63.6727 160.236C64.1767 160.236 64.6177 160.119 64.9957 159.885C65.3737 159.645 65.6677 159.336 65.8777 158.958C66.0877 158.574 66.1927 158.163 66.1927 157.725V155.574L66.5797 156.006C66.2137 156.438 65.7697 156.777 65.2477 157.023C64.7257 157.263 64.1767 157.383 63.6007 157.383C62.7907 157.383 62.0707 157.197 61.4407 156.825C60.8167 156.453 60.3247 155.949 59.9647 155.313C59.6107 154.671 59.4337 153.945 59.4337 153.135C59.4337 152.325 59.6377 151.593 60.0457 150.939C60.4537 150.279 60.9967 149.757 61.6747 149.373C62.3587 148.983 63.1057 148.788 63.9157 148.788ZM63.9157 150.858C63.4957 150.858 63.1117 150.96 62.7637 151.164C62.4157 151.368 62.1397 151.644 61.9357 151.992C61.7317 152.334 61.6297 152.715 61.6297 153.135C61.6297 153.555 61.7287 153.939 61.9267 154.287C62.1307 154.635 62.4037 154.911 62.7457 155.115C63.0937 155.319 63.4777 155.421 63.8977 155.421C64.3177 155.421 64.7017 155.319 65.0497 155.115C65.3977 154.911 65.6737 154.635 65.8777 154.287C66.0877 153.939 66.1927 153.555 66.1927 153.135C66.1927 152.727 66.0907 152.352 65.8867 152.01C65.6827 151.662 65.4067 151.383 65.0587 151.173C64.7167 150.963 64.3357 150.858 63.9157 150.858ZM70.5504 161.982V160.092L76.0944 155.151C76.5264 154.767 76.8264 154.404 76.9944 154.062C77.1624 153.72 77.2464 153.39 77.2464 153.072C77.2464 152.64 77.1534 152.256 76.9674 151.92C76.7814 151.578 76.5234 151.308 76.1934 151.11C75.8694 150.912 75.4944 150.813 75.0684 150.813C74.6184 150.813 74.2194 150.918 73.8714 151.128C73.5294 151.332 73.2624 151.605 73.0704 151.947C72.8784 152.289 72.7884 152.658 72.8004 153.054H70.5684C70.5684 152.19 70.7604 151.437 71.1444 150.795C71.5344 150.153 72.0684 149.655 72.7464 149.301C73.4304 148.947 74.2194 148.77 75.1134 148.77C75.9414 148.77 76.6854 148.956 77.3454 149.328C78.0054 149.694 78.5244 150.204 78.9024 150.858C79.2804 151.506 79.4694 152.253 79.4694 153.099C79.4694 153.717 79.3854 154.236 79.2174 154.656C79.0494 155.076 78.7974 155.463 78.4614 155.817C78.1314 156.171 77.7204 156.564 77.2284 156.996L73.2954 160.479L73.0974 159.939H79.4694V161.982H70.5504ZM82.29 162L86.754 151.092H81.093V149.04H89.076V151.092L84.63 162H82.29ZM95.8927 162.27C94.9747 162.27 94.1647 162.075 93.4627 161.685C92.7607 161.289 92.2117 160.74 91.8157 160.038C91.4257 159.336 91.2307 158.526 91.2307 157.608V153.432C91.2307 152.514 91.4257 151.704 91.8157 151.002C92.2117 150.3 92.7607 149.754 93.4627 149.364C94.1647 148.968 94.9747 148.77 95.8927 148.77C96.8107 148.77 97.6177 148.968 98.3137 149.364C99.0157 149.754 99.5647 150.3 99.9607 151.002C100.357 151.704 100.555 152.514 100.555 153.432V157.608C100.555 158.526 100.357 159.336 99.9607 160.038C99.5647 160.74 99.0157 161.289 98.3137 161.685C97.6177 162.075 96.8107 162.27 95.8927 162.27ZM95.8927 160.209C96.3487 160.209 96.7627 160.101 97.1347 159.885C97.5067 159.663 97.8007 159.369 98.0167 159.003C98.2327 158.631 98.3407 158.217 98.3407 157.761V153.27C98.3407 152.808 98.2327 152.394 98.0167 152.028C97.8007 151.656 97.5067 151.362 97.1347 151.146C96.7627 150.924 96.3487 150.813 95.8927 150.813C95.4367 150.813 95.0227 150.924 94.6507 151.146C94.2787 151.362 93.9847 151.656 93.7687 152.028C93.5527 152.394 93.4447 152.808 93.4447 153.27V157.761C93.4447 158.217 93.5527 158.631 93.7687 159.003C93.9847 159.369 94.2787 159.663 94.6507 159.885C95.0227 160.101 95.4367 160.209 95.8927 160.209ZM106.354 149.04H108.532L105.076 162H102.898L106.354 149.04ZM110.505 161.982V160.092L116.049 155.151C116.481 154.767 116.781 154.404 116.949 154.062C117.117 153.72 117.201 153.39 117.201 153.072C117.201 152.64 117.108 152.256 116.922 151.92C116.736 151.578 116.478 151.308 116.148 151.11C115.824 150.912 115.449 150.813 115.023 150.813C114.573 150.813 114.174 150.918 113.826 151.128C113.484 151.332 113.217 151.605 113.025 151.947C112.833 152.289 112.743 152.658 112.755 153.054H110.523C110.523 152.19 110.715 151.437 111.099 150.795C111.489 150.153 112.023 149.655 112.701 149.301C113.385 148.947 114.174 148.77 115.068 148.77C115.896 148.77 116.64 148.956 117.3 149.328C117.96 149.694 118.479 150.204 118.857 150.858C119.235 151.506 119.424 152.253 119.424 153.099C119.424 153.717 119.34 154.236 119.172 154.656C119.004 155.076 118.752 155.463 118.416 155.817C118.086 156.171 117.675 156.564 117.183 156.996L113.25 160.479L113.052 159.939H119.424V161.982H110.505ZM123.838 162V151.407L121.408 152.892V150.498L123.838 149.04H126.052V162H123.838ZM132.757 149.04H134.935L131.479 162H129.301L132.757 149.04ZM137.925 162L142.389 151.092H136.728V149.04H144.711V151.092L140.265 162H137.925ZM147.646 162L152.11 151.092H146.449V149.04H154.432V151.092L149.986 162H147.646ZM161.248 162.27C160.33 162.27 159.52 162.075 158.818 161.685C158.116 161.289 157.567 160.74 157.171 160.038C156.781 159.336 156.586 158.526 156.586 157.608V153.432C156.586 152.514 156.781 151.704 157.171 151.002C157.567 150.3 158.116 149.754 158.818 149.364C159.52 148.968 160.33 148.77 161.248 148.77C162.166 148.77 162.973 148.968 163.669 149.364C164.371 149.754 164.92 150.3 165.316 151.002C165.712 151.704 165.91 152.514 165.91 153.432V157.608C165.91 158.526 165.712 159.336 165.316 160.038C164.92 160.74 164.371 161.289 163.669 161.685C162.973 162.075 162.166 162.27 161.248 162.27ZM161.248 160.209C161.704 160.209 162.118 160.101 162.49 159.885C162.862 159.663 163.156 159.369 163.372 159.003C163.588 158.631 163.696 158.217 163.696 157.761V153.27C163.696 152.808 163.588 152.394 163.372 152.028C163.156 151.656 162.862 151.362 162.49 151.146C162.118 150.924 161.704 150.813 161.248 150.813C160.792 150.813 160.378 150.924 160.006 151.146C159.634 151.362 159.34 151.656 159.124 152.028C158.908 152.394 158.8 152.808 158.8 153.27V157.761C158.8 158.217 158.908 158.631 159.124 159.003C159.34 159.369 159.634 159.663 160.006 159.885C160.378 160.101 160.792 160.209 161.248 160.209ZM172.277 162.27C171.617 162.27 171.002 162.135 170.432 161.865C169.862 161.589 169.37 161.211 168.956 160.731C168.548 160.251 168.254 159.693 168.074 159.057L170.162 158.499C170.246 158.847 170.399 159.147 170.621 159.399C170.849 159.651 171.113 159.846 171.413 159.984C171.719 160.122 172.034 160.191 172.358 160.191C172.778 160.191 173.162 160.089 173.51 159.885C173.858 159.681 174.134 159.408 174.338 159.066C174.542 158.718 174.644 158.334 174.644 157.914C174.644 157.494 174.539 157.113 174.329 156.771C174.125 156.423 173.849 156.15 173.501 155.952C173.153 155.748 172.772 155.646 172.358 155.646C171.86 155.646 171.446 155.736 171.116 155.916C170.792 156.096 170.543 156.288 170.369 156.492L168.515 155.898L168.911 149.04H175.949V151.074H170.072L170.882 150.309L170.594 155.079L170.198 154.593C170.534 154.287 170.924 154.059 171.368 153.909C171.812 153.759 172.241 153.684 172.655 153.684C173.465 153.684 174.182 153.87 174.806 154.242C175.436 154.608 175.928 155.109 176.282 155.745C176.642 156.381 176.822 157.104 176.822 157.914C176.822 158.724 176.612 159.459 176.192 160.119C175.772 160.773 175.217 161.295 174.527 161.685C173.843 162.075 173.093 162.27 172.277 162.27ZM182.824 162.27C182.164 162.27 181.549 162.135 180.979 161.865C180.409 161.589 179.917 161.211 179.503 160.731C179.095 160.251 178.801 159.693 178.621 159.057L180.709 158.499C180.793 158.847 180.946 159.147 181.168 159.399C181.396 159.651 181.66 159.846 181.96 159.984C182.266 160.122 182.581 160.191 182.905 160.191C183.325 160.191 183.709 160.089 184.057 159.885C184.405 159.681 184.681 159.408 184.885 159.066C185.089 158.718 185.191 158.334 185.191 157.914C185.191 157.494 185.086 157.113 184.876 156.771C184.672 156.423 184.396 156.15 184.048 155.952C183.7 155.748 183.319 155.646 182.905 155.646C182.407 155.646 181.993 155.736 181.663 155.916C181.339 156.096 181.09 156.288 180.916 156.492L179.062 155.898L179.458 149.04H186.496V151.074H180.619L181.429 150.309L181.141 155.079L180.745 154.593C181.081 154.287 181.471 154.059 181.915 153.909C182.359 153.759 182.788 153.684 183.202 153.684C184.012 153.684 184.729 153.87 185.353 154.242C185.983 154.608 186.475 155.109 186.829 155.745C187.189 156.381 187.369 157.104 187.369 157.914C187.369 158.724 187.159 159.459 186.739 160.119C186.319 160.773 185.764 161.295 185.074 161.685C184.39 162.075 183.64 162.27 182.824 162.27ZM189.348 157.176V155.475H194.748V157.176H189.348ZM207.49 162H205.294V152.865L199.282 162H197.086V149.04H199.282V158.175L205.294 149.04H207.49V162ZM210.006 162V149.04H220.509V162H218.34V151.074H212.175V162H210.006Z" fill="#272833"/>
<path d="M28.728 188.24C27.8693 188.24 27.136 188.045 26.528 187.656C25.92 187.267 25.4533 186.728 25.128 186.04C24.8027 185.352 24.64 184.563 24.64 183.672C24.64 182.765 24.8053 181.971 25.136 181.288C25.4667 180.605 25.936 180.075 26.544 179.696C27.1573 179.312 27.8853 179.12 28.728 179.12C29.592 179.12 30.328 179.315 30.936 179.704C31.5493 180.088 32.016 180.624 32.336 181.312C32.6613 181.995 32.824 182.781 32.824 183.672C32.824 184.579 32.6613 185.376 32.336 186.064C32.0107 186.747 31.5413 187.28 30.928 187.664C30.3147 188.048 29.5813 188.24 28.728 188.24ZM28.728 187.112C29.688 187.112 30.4027 186.795 30.872 186.16C31.3413 185.52 31.576 184.691 31.576 183.672C31.576 182.627 31.3387 181.795 30.864 181.176C30.3947 180.557 29.6827 180.248 28.728 180.248C28.0827 180.248 27.5493 180.395 27.128 180.688C26.712 180.976 26.4 181.379 26.192 181.896C25.9893 182.408 25.888 183 25.888 183.672C25.888 184.712 26.128 185.547 26.608 186.176C27.088 186.8 27.7947 187.112 28.728 187.112ZM36.7296 188V180.448H33.6656V179.36H40.9696V180.448H37.9056V188H36.7296ZM47.7061 188V177.792L45.5381 179.096V177.776L47.7061 176.48H48.8981V188H47.7061ZM55.4445 188.24C54.7245 188.24 54.0872 188.096 53.5325 187.808C52.9832 187.52 52.5512 187.117 52.2365 186.6C51.9272 186.077 51.7725 185.467 51.7725 184.768C51.7725 184.053 51.9458 183.419 52.2925 182.864C52.6392 182.304 53.1672 181.88 53.8765 181.592L53.8605 182.056C53.2685 181.837 52.8178 181.48 52.5085 180.984C52.1992 180.488 52.0445 179.939 52.0445 179.336C52.0445 178.696 52.1912 178.147 52.4845 177.688C52.7778 177.224 53.1778 176.867 53.6845 176.616C54.1965 176.365 54.7832 176.24 55.4445 176.24C56.1058 176.24 56.6925 176.365 57.2045 176.616C57.7165 176.867 58.1192 177.224 58.4125 177.688C58.7058 178.147 58.8525 178.696 58.8525 179.336C58.8525 179.939 58.7032 180.485 58.4045 180.976C58.1112 181.467 57.6605 181.827 57.0525 182.056L57.0125 181.592C57.7218 181.875 58.2525 182.296 58.6045 182.856C58.9618 183.416 59.1405 184.053 59.1405 184.768C59.1405 185.467 58.9832 186.077 58.6685 186.6C58.3538 187.117 57.9192 187.52 57.3645 187.808C56.8098 188.096 56.1698 188.24 55.4445 188.24ZM55.4445 187.112C56.1698 187.112 56.7592 186.912 57.2125 186.512C57.6658 186.107 57.8925 185.525 57.8925 184.768C57.8925 184 57.6685 183.419 57.2205 183.024C56.7725 182.624 56.1805 182.424 55.4445 182.424C54.7085 182.424 54.1192 182.624 53.6765 183.024C53.2338 183.419 53.0125 184 53.0125 184.768C53.0125 185.525 53.2365 186.107 53.6845 186.512C54.1325 186.912 54.7192 187.112 55.4445 187.112ZM55.4445 181.288C56.0845 181.288 56.6045 181.125 57.0045 180.8C57.4045 180.469 57.6045 179.981 57.6045 179.336C57.6045 178.691 57.4045 178.208 57.0045 177.888C56.6045 177.563 56.0845 177.4 55.4445 177.4C54.8045 177.4 54.2845 177.563 53.8845 177.888C53.4898 178.208 53.2925 178.691 53.2925 179.336C53.2925 179.981 53.4898 180.469 53.8845 180.8C54.2845 181.125 54.8045 181.288 55.4445 181.288ZM61.4378 188V186.632H62.8058V188H61.4378ZM69.0363 188.24C68.3269 188.24 67.6869 188.075 67.1163 187.744C66.5509 187.413 66.1029 186.965 65.7723 186.4C65.4416 185.829 65.2763 185.189 65.2763 184.48V180C65.2763 179.291 65.4416 178.653 65.7723 178.088C66.1029 177.517 66.5509 177.067 67.1163 176.736C67.6869 176.405 68.3269 176.24 69.0363 176.24C69.7456 176.24 70.3829 176.405 70.9483 176.736C71.5189 177.067 71.9696 177.517 72.3003 178.088C72.6309 178.653 72.7963 179.291 72.7963 180V184.48C72.7963 185.189 72.6309 185.829 72.3003 186.4C71.9696 186.965 71.5189 187.413 70.9483 187.744C70.3829 188.075 69.7456 188.24 69.0363 188.24ZM69.0363 187.104C69.5109 187.104 69.9429 186.989 70.3323 186.76C70.7216 186.525 71.0309 186.213 71.2603 185.824C71.4896 185.435 71.6043 185.005 71.6043 184.536V179.944C71.6043 179.469 71.4896 179.037 71.2603 178.648C71.0309 178.259 70.7216 177.949 70.3323 177.72C69.9429 177.485 69.5109 177.368 69.0363 177.368C68.5616 177.368 68.1296 177.485 67.7403 177.72C67.3509 177.949 67.0416 178.259 66.8123 178.648C66.5829 179.037 66.4683 179.469 66.4683 179.944V184.536C66.4683 185.005 66.5829 185.435 66.8123 185.824C67.0416 186.213 67.3509 186.525 67.7403 186.76C68.1296 186.989 68.5616 187.104 69.0363 187.104ZM78.9379 188.24C78.2179 188.24 77.5619 188.067 76.9699 187.72C76.3832 187.368 75.9139 186.893 75.5619 186.296C75.2152 185.693 75.0419 185.016 75.0419 184.264V180.272C75.0419 179.499 75.2152 178.811 75.5619 178.208C75.9085 177.6 76.3805 177.123 76.9779 176.776C77.5805 176.424 78.2632 176.248 79.0259 176.248C79.6819 176.248 80.2899 176.392 80.8499 176.68C81.4152 176.968 81.8765 177.371 82.2339 177.888L81.3299 178.632C81.0845 178.248 80.7592 177.941 80.3539 177.712C79.9485 177.483 79.5059 177.368 79.0259 177.368C78.4872 177.368 78.0072 177.499 77.5859 177.76C77.1645 178.021 76.8339 178.365 76.5939 178.792C76.3539 179.213 76.2339 179.672 76.2339 180.168V182.68L75.9379 182.344C76.2739 181.816 76.7139 181.389 77.2579 181.064C77.8072 180.739 78.4045 180.576 79.0499 180.576C79.7645 180.576 80.4072 180.747 80.9779 181.088C81.5485 181.424 82.0019 181.88 82.3379 182.456C82.6739 183.032 82.8419 183.677 82.8419 184.392C82.8419 185.101 82.6632 185.747 82.3059 186.328C81.9539 186.909 81.4819 187.373 80.8899 187.72C80.3032 188.067 79.6525 188.24 78.9379 188.24ZM78.9379 187.096C79.4392 187.096 79.8952 186.976 80.3059 186.736C80.7219 186.496 81.0499 186.171 81.2899 185.76C81.5352 185.349 81.6579 184.893 81.6579 184.392C81.6579 183.891 81.5352 183.435 81.2899 183.024C81.0499 182.608 80.7245 182.28 80.3139 182.04C79.9032 181.795 79.4472 181.672 78.9459 181.672C78.4445 181.672 77.9885 181.795 77.5779 182.04C77.1672 182.28 76.8392 182.608 76.5939 183.024C76.3539 183.435 76.2339 183.891 76.2339 184.392C76.2339 184.888 76.3539 185.341 76.5939 185.752C76.8339 186.163 77.1592 186.491 77.5699 186.736C77.9805 186.976 78.4365 187.096 78.9379 187.096ZM85.1878 188V186.632H86.5558V188H85.1878ZM88.7063 187.992L88.7143 186.92L93.9223 182.216C94.3703 181.811 94.6663 181.427 94.8103 181.064C94.9596 180.696 95.0343 180.312 95.0343 179.912C95.0343 179.437 94.9223 179.008 94.6983 178.624C94.4743 178.24 94.1729 177.936 93.7943 177.712C93.4156 177.483 92.9916 177.368 92.5223 177.368C92.0316 177.368 91.5943 177.485 91.2103 177.72C90.8263 177.955 90.5223 178.264 90.2983 178.648C90.0796 179.032 89.9729 179.451 89.9783 179.904H88.7783C88.7783 179.205 88.9436 178.579 89.2743 178.024C89.6049 177.469 90.0529 177.035 90.6183 176.72C91.1836 176.4 91.8236 176.24 92.5383 176.24C93.2369 176.24 93.8636 176.405 94.4183 176.736C94.9783 177.061 95.4183 177.504 95.7383 178.064C96.0636 178.619 96.2263 179.237 96.2263 179.92C96.2263 180.4 96.1676 180.824 96.0503 181.192C95.9383 181.555 95.7596 181.893 95.5143 182.208C95.2743 182.517 94.9676 182.837 94.5943 183.168L89.9703 187.344L89.7863 186.864H96.2263V187.992H88.7063ZM101.911 188.24C101.202 188.24 100.562 188.075 99.9913 187.744C99.4259 187.413 98.9779 186.965 98.6473 186.4C98.3166 185.829 98.1513 185.189 98.1513 184.48V180C98.1513 179.291 98.3166 178.653 98.6473 178.088C98.9779 177.517 99.4259 177.067 99.9913 176.736C100.562 176.405 101.202 176.24 101.911 176.24C102.621 176.24 103.258 176.405 103.823 176.736C104.394 177.067 104.845 177.517 105.175 178.088C105.506 178.653 105.671 179.291 105.671 180V184.48C105.671 185.189 105.506 185.829 105.175 186.4C104.845 186.965 104.394 187.413 103.823 187.744C103.258 188.075 102.621 188.24 101.911 188.24ZM101.911 187.104C102.386 187.104 102.818 186.989 103.207 186.76C103.597 186.525 103.906 186.213 104.135 185.824C104.365 185.435 104.479 185.005 104.479 184.536V179.944C104.479 179.469 104.365 179.037 104.135 178.648C103.906 178.259 103.597 177.949 103.207 177.72C102.818 177.485 102.386 177.368 101.911 177.368C101.437 177.368 101.005 177.485 100.615 177.72C100.226 177.949 99.9166 178.259 99.6873 178.648C99.4579 179.037 99.3433 179.469 99.3433 179.944V184.536C99.3433 185.005 99.4579 185.435 99.6873 185.824C99.9166 186.213 100.226 186.525 100.615 186.76C101.005 186.989 101.437 187.104 101.911 187.104ZM107.597 187.992L107.605 186.92L112.813 182.216C113.261 181.811 113.557 181.427 113.701 181.064C113.85 180.696 113.925 180.312 113.925 179.912C113.925 179.437 113.813 179.008 113.589 178.624C113.365 178.24 113.064 177.936 112.685 177.712C112.306 177.483 111.882 177.368 111.413 177.368C110.922 177.368 110.485 177.485 110.101 177.72C109.717 177.955 109.413 178.264 109.189 178.648C108.97 179.032 108.864 179.451 108.869 179.904H107.669C107.669 179.205 107.834 178.579 108.165 178.024C108.496 177.469 108.944 177.035 109.509 176.72C110.074 176.4 110.714 176.24 111.429 176.24C112.128 176.24 112.754 176.405 113.309 176.736C113.869 177.061 114.309 177.504 114.629 178.064C114.954 178.619 115.117 179.237 115.117 179.92C115.117 180.4 115.058 180.824 114.941 181.192C114.829 181.555 114.65 181.893 114.405 182.208C114.165 182.517 113.858 182.837 113.485 183.168L108.861 187.344L108.677 186.864H115.117V187.992H107.597ZM119.05 188V177.792L116.882 179.096V177.776L119.05 176.48H120.242V188H119.05Z" fill="#737373"/>
<rect x="24" y="206" width="102" height="30" rx="8" fill="#F3F7FF"/>
<path d="M33.7632 226V215.92H40.2732V217.502H35.4502V226H33.7632ZM43.61 226.21C42.854 226.21 42.1937 226.04 41.629 225.699C41.0643 225.358 40.6257 224.889 40.313 224.292C40.005 223.69 39.851 222.999 39.851 222.22C39.851 221.427 40.0097 220.731 40.327 220.134C40.6443 219.537 41.0853 219.07 41.65 218.734C42.2147 218.398 42.868 218.23 43.61 218.23C44.3707 218.23 45.0333 218.4 45.598 218.741C46.1627 219.082 46.6013 219.553 46.914 220.155C47.2267 220.752 47.383 221.441 47.383 222.22C47.383 223.004 47.2243 223.697 46.907 224.299C46.5943 224.896 46.1557 225.365 45.591 225.706C45.0263 226.042 44.366 226.21 43.61 226.21ZM43.61 224.628C44.282 224.628 44.7813 224.404 45.108 223.956C45.4347 223.508 45.598 222.929 45.598 222.22C45.598 221.487 45.4323 220.904 45.101 220.47C44.7697 220.031 44.2727 219.812 43.61 219.812C43.1573 219.812 42.784 219.915 42.49 220.12C42.2007 220.321 41.986 220.603 41.846 220.967C41.706 221.326 41.636 221.744 41.636 222.22C41.636 222.953 41.8017 223.538 42.133 223.977C42.469 224.411 42.9613 224.628 43.61 224.628ZM52.2083 226.21C51.429 226.21 50.764 226.037 50.2133 225.692C49.6626 225.342 49.2403 224.866 48.9463 224.264C48.657 223.662 48.51 222.981 48.5053 222.22C48.51 221.445 48.6616 220.759 48.9603 220.162C49.2636 219.56 49.693 219.089 50.2483 218.748C50.8036 218.403 51.464 218.23 52.2293 218.23C53.088 218.23 53.8136 218.447 54.4063 218.881C55.0036 219.31 55.3933 219.898 55.5753 220.645L53.8953 221.1C53.7646 220.694 53.5476 220.379 53.2443 220.155C52.941 219.926 52.5956 219.812 52.2083 219.812C51.7696 219.812 51.408 219.917 51.1233 220.127C50.8386 220.332 50.6286 220.617 50.4933 220.981C50.358 221.345 50.2903 221.758 50.2903 222.22C50.2903 222.939 50.4513 223.52 50.7733 223.963C51.0953 224.406 51.5736 224.628 52.2083 224.628C52.6563 224.628 53.0086 224.525 53.2653 224.32C53.5266 224.115 53.7226 223.818 53.8533 223.431L55.5753 223.816C55.342 224.586 54.9336 225.179 54.3503 225.594C53.767 226.005 53.053 226.21 52.2083 226.21ZM56.964 226V218.44H63.53V226H61.843V220.022H58.651V226H56.964ZM68.8346 226.21C68.0786 226.21 67.4183 226.04 66.8536 225.699C66.289 225.358 65.8503 224.889 65.5376 224.292C65.2296 223.69 65.0756 222.999 65.0756 222.22C65.0756 221.427 65.2343 220.731 65.5516 220.134C65.869 219.537 66.31 219.07 66.8746 218.734C67.4393 218.398 68.0926 218.23 68.8346 218.23C69.5953 218.23 70.258 218.4 70.8226 218.741C71.3873 219.082 71.826 219.553 72.1386 220.155C72.4513 220.752 72.6076 221.441 72.6076 222.22C72.6076 223.004 72.449 223.697 72.1316 224.299C71.819 224.896 71.3803 225.365 70.8156 225.706C70.251 226.042 69.5906 226.21 68.8346 226.21ZM68.8346 224.628C69.5066 224.628 70.006 224.404 70.3326 223.956C70.6593 223.508 70.8226 222.929 70.8226 222.22C70.8226 221.487 70.657 220.904 70.3256 220.47C69.9943 220.031 69.4973 219.812 68.8346 219.812C68.382 219.812 68.0086 219.915 67.7146 220.12C67.4253 220.321 67.2106 220.603 67.0706 220.967C66.9306 221.326 66.8606 221.744 66.8606 222.22C66.8606 222.953 67.0263 223.538 67.3576 223.977C67.6936 224.411 68.186 224.628 68.8346 224.628ZM74.1359 226V218.44H75.7529V224.502H77.8879V218.44H79.5049V224.502H81.6399V218.44H83.2569V226H74.1359ZM84.5105 226V224.586C84.7858 224.637 84.9981 224.633 85.1475 224.572C85.2968 224.507 85.4088 224.385 85.4835 224.208C85.5581 224.031 85.6235 223.795 85.6795 223.501C85.7541 223.086 85.8195 222.607 85.8755 222.066C85.9361 221.525 85.9875 220.946 86.0295 220.33C86.0761 219.714 86.1181 219.084 86.1555 218.44H91.7205V226H90.0405V220.022H87.6395C87.6161 220.325 87.5881 220.666 87.5555 221.044C87.5228 221.417 87.4878 221.795 87.4505 222.178C87.4131 222.561 87.3711 222.925 87.3245 223.27C87.2825 223.611 87.2381 223.902 87.1915 224.145C87.0841 224.691 86.9301 225.123 86.7295 225.44C86.5335 225.757 86.2581 225.96 85.9035 226.049C85.5488 226.142 85.0845 226.126 84.5105 226ZM100.239 218.44V226H98.622V221.065L95.024 226H93.673V218.44H95.29V223.249L98.902 218.44H100.239ZM102.191 226V218.44H103.878V221.422H107.273V218.44H108.96V226H107.273V223.004H103.878V226H102.191ZM113.028 226.21C112.482 226.21 112.02 226.107 111.642 225.902C111.264 225.692 110.977 225.414 110.781 225.069C110.589 224.724 110.494 224.343 110.494 223.928C110.494 223.564 110.554 223.237 110.676 222.948C110.797 222.654 110.984 222.402 111.236 222.192C111.488 221.977 111.814 221.802 112.216 221.667C112.519 221.569 112.874 221.48 113.28 221.401C113.69 221.322 114.134 221.249 114.61 221.184C115.09 221.114 115.592 221.039 116.115 220.96L115.513 221.303C115.517 220.78 115.401 220.395 115.163 220.148C114.925 219.901 114.523 219.777 113.959 219.777C113.618 219.777 113.289 219.856 112.972 220.015C112.654 220.174 112.433 220.447 112.307 220.834L110.767 220.351C110.953 219.712 111.308 219.198 111.831 218.811C112.358 218.424 113.067 218.23 113.959 218.23C114.631 218.23 115.221 218.34 115.73 218.559C116.243 218.778 116.623 219.138 116.871 219.637C117.006 219.903 117.088 220.176 117.116 220.456C117.144 220.731 117.158 221.032 117.158 221.359V226H115.681V224.362L115.926 224.628C115.585 225.174 115.186 225.575 114.729 225.832C114.276 226.084 113.709 226.21 113.028 226.21ZM113.364 224.866C113.746 224.866 114.073 224.798 114.344 224.663C114.614 224.528 114.829 224.362 114.988 224.166C115.151 223.97 115.261 223.786 115.317 223.613C115.405 223.398 115.454 223.153 115.464 222.878C115.478 222.598 115.485 222.372 115.485 222.199L116.003 222.353C115.494 222.432 115.058 222.502 114.694 222.563C114.33 222.624 114.017 222.682 113.756 222.738C113.494 222.789 113.263 222.848 113.063 222.913C112.867 222.983 112.701 223.065 112.566 223.158C112.43 223.251 112.325 223.359 112.251 223.48C112.181 223.601 112.146 223.744 112.146 223.907C112.146 224.094 112.192 224.259 112.286 224.404C112.379 224.544 112.514 224.656 112.692 224.74C112.874 224.824 113.098 224.866 113.364 224.866Z" fill="#6693F7"/>
<path d="M25.26 281V268.04H27.456L33.468 277.175V268.04H35.664V281H33.468L27.456 271.865V281H25.26ZM40.227 274.25C39.633 274.25 39.09 274.106 38.598 273.818C38.106 273.524 37.713 273.134 37.419 272.648C37.131 272.156 36.987 271.61 36.987 271.01C36.987 270.422 37.137 269.882 37.437 269.39C37.737 268.898 38.133 268.505 38.625 268.211C39.117 267.917 39.651 267.77 40.227 267.77C40.821 267.77 41.361 267.917 41.847 268.211C42.339 268.499 42.732 268.889 43.026 269.381C43.32 269.867 43.467 270.41 43.467 271.01C43.467 271.61 43.32 272.156 43.026 272.648C42.732 273.134 42.339 273.524 41.847 273.818C41.361 274.106 40.821 274.25 40.227 274.25ZM40.227 272.396C40.479 272.396 40.71 272.333 40.92 272.207C41.13 272.081 41.298 271.913 41.424 271.703C41.55 271.493 41.613 271.262 41.613 271.01C41.613 270.758 41.55 270.527 41.424 270.317C41.298 270.107 41.13 269.939 40.92 269.813C40.71 269.687 40.479 269.624 40.227 269.624C39.975 269.624 39.744 269.687 39.534 269.813C39.324 269.939 39.156 270.107 39.03 270.317C38.904 270.527 38.841 270.758 38.841 271.01C38.841 271.262 38.904 271.493 39.03 271.703C39.156 271.913 39.324 272.081 39.534 272.207C39.744 272.333 39.975 272.396 40.227 272.396ZM37.527 276.743V275.042H42.927V276.743H37.527ZM54.6186 281V278.858H48.8766V276.833L53.0256 268.04H55.5006L51.3516 276.833H54.6186V273.458H56.8146V276.833H58.0296V278.858H56.8146V281H54.6186ZM63.9157 267.788C64.7617 267.788 65.5237 267.989 66.2017 268.391C66.8797 268.787 67.4137 269.339 67.8037 270.047C68.1997 270.749 68.3977 271.559 68.3977 272.477V276.428C68.3977 277.406 68.1997 278.261 67.8037 278.993C67.4137 279.719 66.8647 280.28 66.1567 280.676C65.4487 281.072 64.6207 281.27 63.6727 281.27C63.0187 281.27 62.4007 281.159 61.8187 280.937C61.2367 280.709 60.7147 280.361 60.2527 279.893L61.8097 278.372C62.0437 278.642 62.3227 278.855 62.6467 279.011C62.9767 279.161 63.3187 279.236 63.6727 279.236C64.1767 279.236 64.6177 279.119 64.9957 278.885C65.3737 278.645 65.6677 278.336 65.8777 277.958C66.0877 277.574 66.1927 277.163 66.1927 276.725V274.574L66.5797 275.006C66.2137 275.438 65.7697 275.777 65.2477 276.023C64.7257 276.263 64.1767 276.383 63.6007 276.383C62.7907 276.383 62.0707 276.197 61.4407 275.825C60.8167 275.453 60.3247 274.949 59.9647 274.313C59.6107 273.671 59.4337 272.945 59.4337 272.135C59.4337 271.325 59.6377 270.593 60.0457 269.939C60.4537 269.279 60.9967 268.757 61.6747 268.373C62.3587 267.983 63.1057 267.788 63.9157 267.788ZM63.9157 269.858C63.4957 269.858 63.1117 269.96 62.7637 270.164C62.4157 270.368 62.1397 270.644 61.9357 270.992C61.7317 271.334 61.6297 271.715 61.6297 272.135C61.6297 272.555 61.7287 272.939 61.9267 273.287C62.1307 273.635 62.4037 273.911 62.7457 274.115C63.0937 274.319 63.4777 274.421 63.8977 274.421C64.3177 274.421 64.7017 274.319 65.0497 274.115C65.3977 273.911 65.6737 273.635 65.8777 273.287C66.0877 272.939 66.1927 272.555 66.1927 272.135C66.1927 271.727 66.0907 271.352 65.8867 271.01C65.6827 270.662 65.4067 270.383 65.0587 270.173C64.7167 269.963 64.3357 269.858 63.9157 269.858ZM70.5504 280.982V279.092L76.0944 274.151C76.5264 273.767 76.8264 273.404 76.9944 273.062C77.1624 272.72 77.2464 272.39 77.2464 272.072C77.2464 271.64 77.1534 271.256 76.9674 270.92C76.7814 270.578 76.5234 270.308 76.1934 270.11C75.8694 269.912 75.4944 269.813 75.0684 269.813C74.6184 269.813 74.2194 269.918 73.8714 270.128C73.5294 270.332 73.2624 270.605 73.0704 270.947C72.8784 271.289 72.7884 271.658 72.8004 272.054H70.5684C70.5684 271.19 70.7604 270.437 71.1444 269.795C71.5344 269.153 72.0684 268.655 72.7464 268.301C73.4304 267.947 74.2194 267.77 75.1134 267.77C75.9414 267.77 76.6854 267.956 77.3454 268.328C78.0054 268.694 78.5244 269.204 78.9024 269.858C79.2804 270.506 79.4694 271.253 79.4694 272.099C79.4694 272.717 79.3854 273.236 79.2174 273.656C79.0494 274.076 78.7974 274.463 78.4614 274.817C78.1314 275.171 77.7204 275.564 77.2284 275.996L73.2954 279.479L73.0974 278.939H79.4694V280.982H70.5504ZM82.29 281L86.754 270.092H81.093V268.04H89.076V270.092L84.63 281H82.29ZM95.8927 281.27C94.9747 281.27 94.1647 281.075 93.4627 280.685C92.7607 280.289 92.2117 279.74 91.8157 279.038C91.4257 278.336 91.2307 277.526 91.2307 276.608V272.432C91.2307 271.514 91.4257 270.704 91.8157 270.002C92.2117 269.3 92.7607 268.754 93.4627 268.364C94.1647 267.968 94.9747 267.77 95.8927 267.77C96.8107 267.77 97.6177 267.968 98.3137 268.364C99.0157 268.754 99.5647 269.3 99.9607 270.002C100.357 270.704 100.555 271.514 100.555 272.432V276.608C100.555 277.526 100.357 278.336 99.9607 279.038C99.5647 279.74 99.0157 280.289 98.3137 280.685C97.6177 281.075 96.8107 281.27 95.8927 281.27ZM95.8927 279.209C96.3487 279.209 96.7627 279.101 97.1347 278.885C97.5067 278.663 97.8007 278.369 98.0167 278.003C98.2327 277.631 98.3407 277.217 98.3407 276.761V272.27C98.3407 271.808 98.2327 271.394 98.0167 271.028C97.8007 270.656 97.5067 270.362 97.1347 270.146C96.7627 269.924 96.3487 269.813 95.8927 269.813C95.4367 269.813 95.0227 269.924 94.6507 270.146C94.2787 270.362 93.9847 270.656 93.7687 271.028C93.5527 271.394 93.4447 271.808 93.4447 272.27V276.761C93.4447 277.217 93.5527 277.631 93.7687 278.003C93.9847 278.369 94.2787 278.663 94.6507 278.885C95.0227 279.101 95.4367 279.209 95.8927 279.209ZM106.354 268.04H108.532L105.076 281H102.898L106.354 268.04ZM110.505 280.982V279.092L116.049 274.151C116.481 273.767 116.781 273.404 116.949 273.062C117.117 272.72 117.201 272.39 117.201 272.072C117.201 271.64 117.108 271.256 116.922 270.92C116.736 270.578 116.478 270.308 116.148 270.11C115.824 269.912 115.449 269.813 115.023 269.813C114.573 269.813 114.174 269.918 113.826 270.128C113.484 270.332 113.217 270.605 113.025 270.947C112.833 271.289 112.743 271.658 112.755 272.054H110.523C110.523 271.19 110.715 270.437 111.099 269.795C111.489 269.153 112.023 268.655 112.701 268.301C113.385 267.947 114.174 267.77 115.068 267.77C115.896 267.77 116.64 267.956 117.3 268.328C117.96 268.694 118.479 269.204 118.857 269.858C119.235 270.506 119.424 271.253 119.424 272.099C119.424 272.717 119.34 273.236 119.172 273.656C119.004 274.076 118.752 274.463 118.416 274.817C118.086 275.171 117.675 275.564 117.183 275.996L113.25 279.479L113.052 278.939H119.424V280.982H110.505ZM123.838 281V270.407L121.408 271.892V269.498L123.838 268.04H126.052V281H123.838ZM129.301 276.176V274.475H134.701V276.176H129.301ZM147.443 281H145.247V271.865L139.235 281H137.039V268.04H139.235V277.175L145.247 268.04H147.443V281ZM149.959 281V268.04H160.462V281H158.293V270.074H152.128V281H149.959Z" fill="#272833"/>
<path d="M28.728 307.24C27.8693 307.24 27.136 307.045 26.528 306.656C25.92 306.267 25.4533 305.728 25.128 305.04C24.8027 304.352 24.64 303.563 24.64 302.672C24.64 301.765 24.8053 300.971 25.136 300.288C25.4667 299.605 25.936 299.075 26.544 298.696C27.1573 298.312 27.8853 298.12 28.728 298.12C29.592 298.12 30.328 298.315 30.936 298.704C31.5493 299.088 32.016 299.624 32.336 300.312C32.6613 300.995 32.824 301.781 32.824 302.672C32.824 303.579 32.6613 304.376 32.336 305.064C32.0107 305.747 31.5413 306.28 30.928 306.664C30.3147 307.048 29.5813 307.24 28.728 307.24ZM28.728 306.112C29.688 306.112 30.4027 305.795 30.872 305.16C31.3413 304.52 31.576 303.691 31.576 302.672C31.576 301.627 31.3387 300.795 30.864 300.176C30.3947 299.557 29.6827 299.248 28.728 299.248C28.0827 299.248 27.5493 299.395 27.128 299.688C26.712 299.976 26.4 300.379 26.192 300.896C25.9893 301.408 25.888 302 25.888 302.672C25.888 303.712 26.128 304.547 26.608 305.176C27.088 305.8 27.7947 306.112 28.728 306.112ZM36.7296 307V299.448H33.6656V298.36H40.9696V299.448H37.9056V307H36.7296ZM47.7061 307V296.792L45.5381 298.096V296.776L47.7061 295.48H48.8981V307H47.7061ZM55.4445 307.24C54.7245 307.24 54.0872 307.096 53.5325 306.808C52.9832 306.52 52.5512 306.117 52.2365 305.6C51.9272 305.077 51.7725 304.467 51.7725 303.768C51.7725 303.053 51.9458 302.419 52.2925 301.864C52.6392 301.304 53.1672 300.88 53.8765 300.592L53.8605 301.056C53.2685 300.837 52.8178 300.48 52.5085 299.984C52.1992 299.488 52.0445 298.939 52.0445 298.336C52.0445 297.696 52.1912 297.147 52.4845 296.688C52.7778 296.224 53.1778 295.867 53.6845 295.616C54.1965 295.365 54.7832 295.24 55.4445 295.24C56.1058 295.24 56.6925 295.365 57.2045 295.616C57.7165 295.867 58.1192 296.224 58.4125 296.688C58.7058 297.147 58.8525 297.696 58.8525 298.336C58.8525 298.939 58.7032 299.485 58.4045 299.976C58.1112 300.467 57.6605 300.827 57.0525 301.056L57.0125 300.592C57.7218 300.875 58.2525 301.296 58.6045 301.856C58.9618 302.416 59.1405 303.053 59.1405 303.768C59.1405 304.467 58.9832 305.077 58.6685 305.6C58.3538 306.117 57.9192 306.52 57.3645 306.808C56.8098 307.096 56.1698 307.24 55.4445 307.24ZM55.4445 306.112C56.1698 306.112 56.7592 305.912 57.2125 305.512C57.6658 305.107 57.8925 304.525 57.8925 303.768C57.8925 303 57.6685 302.419 57.2205 302.024C56.7725 301.624 56.1805 301.424 55.4445 301.424C54.7085 301.424 54.1192 301.624 53.6765 302.024C53.2338 302.419 53.0125 303 53.0125 303.768C53.0125 304.525 53.2365 305.107 53.6845 305.512C54.1325 305.912 54.7192 306.112 55.4445 306.112ZM55.4445 300.288C56.0845 300.288 56.6045 300.125 57.0045 299.8C57.4045 299.469 57.6045 298.981 57.6045 298.336C57.6045 297.691 57.4045 297.208 57.0045 296.888C56.6045 296.563 56.0845 296.4 55.4445 296.4C54.8045 296.4 54.2845 296.563 53.8845 296.888C53.4898 297.208 53.2925 297.691 53.2925 298.336C53.2925 298.981 53.4898 299.469 53.8845 299.8C54.2845 300.125 54.8045 300.288 55.4445 300.288ZM61.4378 307V305.632H62.8058V307H61.4378ZM69.0363 307.24C68.3269 307.24 67.6869 307.075 67.1163 306.744C66.5509 306.413 66.1029 305.965 65.7723 305.4C65.4416 304.829 65.2763 304.189 65.2763 303.48V299C65.2763 298.291 65.4416 297.653 65.7723 297.088C66.1029 296.517 66.5509 296.067 67.1163 295.736C67.6869 295.405 68.3269 295.24 69.0363 295.24C69.7456 295.24 70.3829 295.405 70.9483 295.736C71.5189 296.067 71.9696 296.517 72.3003 297.088C72.6309 297.653 72.7963 298.291 72.7963 299V303.48C72.7963 304.189 72.6309 304.829 72.3003 305.4C71.9696 305.965 71.5189 306.413 70.9483 306.744C70.3829 307.075 69.7456 307.24 69.0363 307.24ZM69.0363 306.104C69.5109 306.104 69.9429 305.989 70.3323 305.76C70.7216 305.525 71.0309 305.213 71.2603 304.824C71.4896 304.435 71.6043 304.005 71.6043 303.536V298.944C71.6043 298.469 71.4896 298.037 71.2603 297.648C71.0309 297.259 70.7216 296.949 70.3323 296.72C69.9429 296.485 69.5109 296.368 69.0363 296.368C68.5616 296.368 68.1296 296.485 67.7403 296.72C67.3509 296.949 67.0416 297.259 66.8123 297.648C66.5829 298.037 66.4683 298.469 66.4683 298.944V303.536C66.4683 304.005 66.5829 304.435 66.8123 304.824C67.0416 305.213 67.3509 305.525 67.7403 305.76C68.1296 305.989 68.5616 306.104 69.0363 306.104ZM78.9379 307.24C78.2179 307.24 77.5619 307.067 76.9699 306.72C76.3832 306.368 75.9139 305.893 75.5619 305.296C75.2152 304.693 75.0419 304.016 75.0419 303.264V299.272C75.0419 298.499 75.2152 297.811 75.5619 297.208C75.9085 296.6 76.3805 296.123 76.9779 295.776C77.5805 295.424 78.2632 295.248 79.0259 295.248C79.6819 295.248 80.2899 295.392 80.8499 295.68C81.4152 295.968 81.8765 296.371 82.2339 296.888L81.3299 297.632C81.0845 297.248 80.7592 296.941 80.3539 296.712C79.9485 296.483 79.5059 296.368 79.0259 296.368C78.4872 296.368 78.0072 296.499 77.5859 296.76C77.1645 297.021 76.8339 297.365 76.5939 297.792C76.3539 298.213 76.2339 298.672 76.2339 299.168V301.68L75.9379 301.344C76.2739 300.816 76.7139 300.389 77.2579 300.064C77.8072 299.739 78.4045 299.576 79.0499 299.576C79.7645 299.576 80.4072 299.747 80.9779 300.088C81.5485 300.424 82.0019 300.88 82.3379 301.456C82.6739 302.032 82.8419 302.677 82.8419 303.392C82.8419 304.101 82.6632 304.747 82.3059 305.328C81.9539 305.909 81.4819 306.373 80.8899 306.72C80.3032 307.067 79.6525 307.24 78.9379 307.24ZM78.9379 306.096C79.4392 306.096 79.8952 305.976 80.3059 305.736C80.7219 305.496 81.0499 305.171 81.2899 304.76C81.5352 304.349 81.6579 303.893 81.6579 303.392C81.6579 302.891 81.5352 302.435 81.2899 302.024C81.0499 301.608 80.7245 301.28 80.3139 301.04C79.9032 300.795 79.4472 300.672 78.9459 300.672C78.4445 300.672 77.9885 300.795 77.5779 301.04C77.1672 301.28 76.8392 301.608 76.5939 302.024C76.3539 302.435 76.2339 302.891 76.2339 303.392C76.2339 303.888 76.3539 304.341 76.5939 304.752C76.8339 305.163 77.1592 305.491 77.5699 305.736C77.9805 305.976 78.4365 306.096 78.9379 306.096ZM85.1878 307V305.632H86.5558V307H85.1878ZM88.7063 306.992L88.7143 305.92L93.9223 301.216C94.3703 300.811 94.6663 300.427 94.8103 300.064C94.9596 299.696 95.0343 299.312 95.0343 298.912C95.0343 298.437 94.9223 298.008 94.6983 297.624C94.4743 297.24 94.1729 296.936 93.7943 296.712C93.4156 296.483 92.9916 296.368 92.5223 296.368C92.0316 296.368 91.5943 296.485 91.2103 296.72C90.8263 296.955 90.5223 297.264 90.2983 297.648C90.0796 298.032 89.9729 298.451 89.9783 298.904H88.7783C88.7783 298.205 88.9436 297.579 89.2743 297.024C89.6049 296.469 90.0529 296.035 90.6183 295.72C91.1836 295.4 91.8236 295.24 92.5383 295.24C93.2369 295.24 93.8636 295.405 94.4183 295.736C94.9783 296.061 95.4183 296.504 95.7383 297.064C96.0636 297.619 96.2263 298.237 96.2263 298.92C96.2263 299.4 96.1676 299.824 96.0503 300.192C95.9383 300.555 95.7596 300.893 95.5143 301.208C95.2743 301.517 94.9676 301.837 94.5943 302.168L89.9703 306.344L89.7863 305.864H96.2263V306.992H88.7063ZM101.911 307.24C101.202 307.24 100.562 307.075 99.9913 306.744C99.4259 306.413 98.9779 305.965 98.6473 305.4C98.3166 304.829 98.1513 304.189 98.1513 303.48V299C98.1513 298.291 98.3166 297.653 98.6473 297.088C98.9779 296.517 99.4259 296.067 99.9913 295.736C100.562 295.405 101.202 295.24 101.911 295.24C102.621 295.24 103.258 295.405 103.823 295.736C104.394 296.067 104.845 296.517 105.175 297.088C105.506 297.653 105.671 298.291 105.671 299V303.48C105.671 304.189 105.506 304.829 105.175 305.4C104.845 305.965 104.394 306.413 103.823 306.744C103.258 307.075 102.621 307.24 101.911 307.24ZM101.911 306.104C102.386 306.104 102.818 305.989 103.207 305.76C103.597 305.525 103.906 305.213 104.135 304.824C104.365 304.435 104.479 304.005 104.479 303.536V298.944C104.479 298.469 104.365 298.037 104.135 297.648C103.906 297.259 103.597 296.949 103.207 296.72C102.818 296.485 102.386 296.368 101.911 296.368C101.437 296.368 101.005 296.485 100.615 296.72C100.226 296.949 99.9166 297.259 99.6873 297.648C99.4579 298.037 99.3433 298.469 99.3433 298.944V303.536C99.3433 304.005 99.4579 304.435 99.6873 304.824C99.9166 305.213 100.226 305.525 100.615 305.76C101.005 305.989 101.437 306.104 101.911 306.104ZM109.925 307V296.792L107.757 298.096V296.776L109.925 295.48H111.117V307H109.925ZM118.047 307.24C117.327 307.24 116.671 307.067 116.079 306.72C115.493 306.368 115.023 305.893 114.671 305.296C114.325 304.693 114.151 304.016 114.151 303.264V299.272C114.151 298.499 114.325 297.811 114.671 297.208C115.018 296.6 115.49 296.123 116.087 295.776C116.69 295.424 117.373 295.248 118.135 295.248C118.791 295.248 119.399 295.392 119.959 295.68C120.525 295.968 120.986 296.371 121.343 296.888L120.439 297.632C120.194 297.248 119.869 296.941 119.463 296.712C119.058 296.483 118.615 296.368 118.135 296.368C117.597 296.368 117.117 296.499 116.695 296.76C116.274 297.021 115.943 297.365 115.703 297.792C115.463 298.213 115.343 298.672 115.343 299.168V301.68L115.047 301.344C115.383 300.816 115.823 300.389 116.367 300.064C116.917 299.739 117.514 299.576 118.159 299.576C118.874 299.576 119.517 299.747 120.087 300.088C120.658 300.424 121.111 300.88 121.447 301.456C121.783 302.032 121.951 302.677 121.951 303.392C121.951 304.101 121.773 304.747 121.415 305.328C121.063 305.909 120.591 306.373 119.999 306.72C119.413 307.067 118.762 307.24 118.047 307.24ZM118.047 306.096C118.549 306.096 119.005 305.976 119.415 305.736C119.831 305.496 120.159 305.171 120.399 304.76C120.645 304.349 120.767 303.893 120.767 303.392C120.767 302.891 120.645 302.435 120.399 302.024C120.159 301.608 119.834 301.28 119.423 301.04C119.013 300.795 118.557 300.672 118.055 300.672C117.554 300.672 117.098 300.795 116.687 301.04C116.277 301.28 115.949 301.608 115.703 302.024C115.463 302.435 115.343 302.891 115.343 303.392C115.343 303.888 115.463 304.341 115.703 304.752C115.943 305.163 116.269 305.491 116.679 305.736C117.09 305.976 117.546 306.096 118.047 306.096Z" fill="#737373"/>
<rect x="24" y="325" width="92" height="30" rx="8" fill="#F3F7FF"/>
<path d="M33.2105 345V334.92H37.2075C37.8888 334.92 38.4465 335.058 38.8805 335.333C39.3191 335.604 39.6435 335.951 39.8535 336.376C40.0681 336.801 40.1755 337.239 40.1755 337.692C40.1755 338.247 40.0425 338.719 39.7765 339.106C39.5151 339.493 39.1581 339.755 38.7055 339.89V339.54C39.3401 339.685 39.8208 339.986 40.1475 340.443C40.4788 340.9 40.6445 341.421 40.6445 342.004C40.6445 342.601 40.5301 343.124 40.3015 343.572C40.0728 344.02 39.7321 344.37 39.2795 344.622C38.8315 344.874 38.2761 345 37.6135 345H33.2105ZM34.9185 343.411H37.4035C37.6975 343.411 37.9611 343.353 38.1945 343.236C38.4278 343.115 38.6098 342.947 38.7405 342.732C38.8758 342.513 38.9435 342.254 38.9435 341.955C38.9435 341.684 38.8851 341.442 38.7685 341.227C38.6518 341.012 38.4815 340.842 38.2575 340.716C38.0335 340.585 37.7651 340.52 37.4525 340.52H34.9185V343.411ZM34.9185 338.945H37.1865C37.4291 338.945 37.6461 338.898 37.8375 338.805C38.0288 338.712 38.1805 338.574 38.2925 338.392C38.4045 338.21 38.4605 337.986 38.4605 337.72C38.4605 337.37 38.3485 337.078 38.1245 336.845C37.9005 336.612 37.5878 336.495 37.1865 336.495H34.9185V338.945ZM44.7305 345.21C44.0118 345.21 43.3562 345.058 42.7635 344.755C42.1708 344.452 41.7042 344.036 41.3635 343.509L42.6935 342.62C42.9642 342.942 43.2652 343.192 43.5965 343.369C43.9278 343.542 44.2965 343.628 44.7025 343.628C45.1272 343.628 45.4608 343.535 45.7035 343.348C45.9462 343.161 46.0675 342.912 46.0675 342.599C46.0675 342.324 45.9858 342.13 45.8225 342.018C45.6592 341.901 45.4445 341.831 45.1785 341.808C44.9125 341.785 44.6278 341.773 44.3245 341.773H43.7645V340.436H44.3175C44.7422 340.436 45.0968 340.387 45.3815 340.289C45.6708 340.191 45.8155 339.974 45.8155 339.638C45.8155 339.335 45.7035 339.12 45.4795 338.994C45.2555 338.863 44.9942 338.798 44.6955 338.798C44.3315 338.798 43.9722 338.875 43.6175 339.029C43.2628 339.183 42.9455 339.37 42.6655 339.589L41.7135 338.441C42.1335 338.068 42.6025 337.774 43.1205 337.559C43.6385 337.34 44.1915 337.23 44.7795 337.23C45.2648 337.23 45.7175 337.314 46.1375 337.482C46.5622 337.65 46.9028 337.902 47.1595 338.238C47.4208 338.574 47.5515 338.989 47.5515 339.484C47.5515 339.839 47.4745 340.172 47.3205 340.485C47.1712 340.798 46.9308 341.094 46.5995 341.374L46.5785 340.828C46.8352 340.935 47.0522 341.085 47.2295 341.276C47.4115 341.467 47.5492 341.691 47.6425 341.948C47.7405 342.205 47.7895 342.478 47.7895 342.767C47.7895 343.294 47.6495 343.74 47.3695 344.104C47.0895 344.468 46.7162 344.743 46.2495 344.93C45.7875 345.117 45.2812 345.21 44.7305 345.21ZM49.3226 345L49.3156 337.44H51.0026V339.96H51.8496C52.0596 339.96 52.2953 339.965 52.5566 339.974C52.8226 339.983 53.0443 340.004 53.2216 340.037C53.6463 340.13 54.0079 340.28 54.3066 340.485C54.6099 340.69 54.8409 340.959 54.9996 341.29C55.1583 341.621 55.2376 342.02 55.2376 342.487C55.2376 343.154 55.0649 343.689 54.7196 344.09C54.3743 344.487 53.8913 344.757 53.2706 344.902C53.0886 344.944 52.8623 344.972 52.5916 344.986C52.3209 344.995 52.0806 345 51.8706 345H49.3226ZM51.0026 343.677H52.0176C52.1203 343.677 52.2346 343.672 52.3606 343.663C52.4866 343.654 52.6056 343.633 52.7176 343.6C52.9276 343.544 53.1143 343.418 53.2776 343.222C53.4409 343.021 53.5226 342.776 53.5226 342.487C53.5226 342.184 53.4409 341.934 53.2776 341.738C53.1143 341.542 52.9136 341.414 52.6756 341.353C52.5636 341.325 52.4493 341.306 52.3326 341.297C52.2206 341.288 52.1156 341.283 52.0176 341.283H51.0026V343.677ZM56.0286 345V337.44H57.7156V345H56.0286ZM62.9622 345.21C62.1829 345.21 61.5179 345.037 60.9672 344.692C60.4166 344.342 59.9942 343.866 59.7002 343.264C59.4109 342.662 59.2639 341.981 59.2592 341.22C59.2639 340.445 59.4156 339.759 59.7142 339.162C60.0176 338.56 60.4469 338.089 61.0022 337.748C61.5576 337.403 62.2179 337.23 62.9832 337.23C63.8419 337.23 64.5676 337.447 65.1602 337.881C65.7576 338.31 66.1472 338.898 66.3292 339.645L64.6492 340.1C64.5186 339.694 64.3016 339.379 63.9982 339.155C63.6949 338.926 63.3496 338.812 62.9622 338.812C62.5236 338.812 62.1619 338.917 61.8772 339.127C61.5926 339.332 61.3826 339.617 61.2472 339.981C61.1119 340.345 61.0442 340.758 61.0442 341.22C61.0442 341.939 61.2052 342.52 61.5272 342.963C61.8492 343.406 62.3276 343.628 62.9622 343.628C63.4102 343.628 63.7626 343.525 64.0192 343.32C64.2806 343.115 64.4766 342.818 64.6072 342.431L66.3292 342.816C66.0959 343.586 65.6876 344.179 65.1042 344.594C64.5209 345.005 63.8069 345.21 62.9622 345.21ZM67.718 345L67.732 337.44H69.44V341.08L72.205 337.44H74.312L71.379 341.22L74.564 345H72.331L69.44 341.36V345H67.718ZM77.3792 345.21C76.8332 345.21 76.3712 345.107 75.9932 344.902C75.6152 344.692 75.3282 344.414 75.1322 344.069C74.9408 343.724 74.8452 343.343 74.8452 342.928C74.8452 342.564 74.9058 342.237 75.0272 341.948C75.1485 341.654 75.3352 341.402 75.5872 341.192C75.8392 340.977 76.1658 340.802 76.5672 340.667C76.8705 340.569 77.2252 340.48 77.6312 340.401C78.0418 340.322 78.4852 340.249 78.9612 340.184C79.4418 340.114 79.9435 340.039 80.4662 339.96L79.8642 340.303C79.8688 339.78 79.7522 339.395 79.5142 339.148C79.2762 338.901 78.8748 338.777 78.3102 338.777C77.9695 338.777 77.6405 338.856 77.3232 339.015C77.0058 339.174 76.7842 339.447 76.6582 339.834L75.1182 339.351C75.3048 338.712 75.6595 338.198 76.1822 337.811C76.7095 337.424 77.4188 337.23 78.3102 337.23C78.9822 337.23 79.5725 337.34 80.0812 337.559C80.5945 337.778 80.9748 338.138 81.2222 338.637C81.3575 338.903 81.4392 339.176 81.4672 339.456C81.4952 339.731 81.5092 340.032 81.5092 340.359V345H80.0322V343.362L80.2772 343.628C79.9365 344.174 79.5375 344.575 79.0802 344.832C78.6275 345.084 78.0605 345.21 77.3792 345.21ZM77.7152 343.866C78.0978 343.866 78.4245 343.798 78.6952 343.663C78.9658 343.528 79.1805 343.362 79.3392 343.166C79.5025 342.97 79.6122 342.786 79.6682 342.613C79.7568 342.398 79.8058 342.153 79.8152 341.878C79.8292 341.598 79.8362 341.372 79.8362 341.199L80.3542 341.353C79.8455 341.432 79.4092 341.502 79.0452 341.563C78.6812 341.624 78.3685 341.682 78.1072 341.738C77.8458 341.789 77.6148 341.848 77.4142 341.913C77.2182 341.983 77.0525 342.065 76.9172 342.158C76.7818 342.251 76.6768 342.359 76.6022 342.48C76.5322 342.601 76.4972 342.744 76.4972 342.907C76.4972 343.094 76.5438 343.259 76.6372 343.404C76.7305 343.544 76.8658 343.656 77.0432 343.74C77.2252 343.824 77.4492 343.866 77.7152 343.866ZM83.3176 345V337.44H85.0046V340.422H88.3996V337.44H90.0866V345H88.3996V342.004H85.0046V345H83.3176ZM98.5925 337.44V345H96.9755V340.065L93.3775 345H92.0265V337.44H93.6435V342.249L97.2555 337.44H98.5925ZM103.995 345.21C103.23 345.21 102.558 345.044 101.979 344.713C101.4 344.382 100.948 343.922 100.621 343.334C100.299 342.746 100.138 342.069 100.138 341.304C100.138 340.478 100.297 339.762 100.614 339.155C100.931 338.544 101.372 338.07 101.937 337.734C102.502 337.398 103.155 337.23 103.897 337.23C104.681 337.23 105.346 337.414 105.892 337.783C106.443 338.147 106.851 338.663 107.117 339.33C107.383 339.997 107.483 340.784 107.418 341.689H105.745V341.073C105.74 340.252 105.596 339.652 105.311 339.274C105.026 338.896 104.578 338.707 103.967 338.707C103.276 338.707 102.763 338.922 102.427 339.351C102.091 339.776 101.923 340.399 101.923 341.22C101.923 341.985 102.091 342.578 102.427 342.998C102.763 343.418 103.253 343.628 103.897 343.628C104.312 343.628 104.669 343.537 104.968 343.355C105.271 343.168 105.505 342.9 105.668 342.55L107.334 343.054C107.045 343.735 106.597 344.265 105.99 344.643C105.388 345.021 104.723 345.21 103.995 345.21ZM101.391 341.689V340.415H106.592V341.689H101.391Z" fill="#6693F7"/>
<path d="M0 0H276H0ZM276 430C276 440.493 267.493 449 257 449H19C8.50659 449 0 440.493 0 430C0 437.18 7.16344 443 16 443H260C268.837 443 276 437.18 276 430ZM0 446V0V446ZM276 0V446V0Z" fill="#F0F0F0" mask="url(#path-1-inside-1_618_23380)"/>
</svg>
