<svg width="1337" height="445" viewBox="0 0 1337 445" fill="none" xmlns="http://www.w3.org/2000/svg">
<path d="M0 28.3757C0 12.7043 12.7042 0 28.3757 0H1267.62C1283.3 0 1296 12.7042 1296 28.3757V416.624C1296 432.296 1283.3 445 1267.62 445H28.3758C12.7043 445 0 432.296 0 416.624V28.3757Z" fill="white"/>
<line x1="86.7735" y1="399.227" x2="1294.23" y2="399.227" stroke="#D7D7D7" stroke-width="3.54696" stroke-linecap="round"/>
<line x1="85" y1="306.113" x2="1296" y2="306.113" stroke="#E6E6E6" stroke-width="1.77348" stroke-dasharray="10.64 10.64"/>
<line x1="85" y1="212.113" x2="1296" y2="212.113" stroke="#E6E6E6" stroke-width="1.77348" stroke-dasharray="10.64 10.64"/>
<line x1="85" y1="118.113" x2="1296" y2="118.113" stroke="#E6E6E6" stroke-width="1.77348" stroke-dasharray="10.64 10.64"/>
<line x1="84" y1="24.1133" x2="1295" y2="24.1134" stroke="#E6E6E6" stroke-width="1.77348" stroke-dasharray="10.64 10.64"/>
<path d="M6.86844 19.24C6.13244 19.24 5.48177 19.0933 4.91644 18.8C4.3511 18.5013 3.90844 18.088 3.58844 17.56C3.26844 17.032 3.10844 16.416 3.10844 15.712C3.10844 15.024 3.2711 14.4027 3.59644 13.848C3.9271 13.2933 4.4231 12.8667 5.08444 12.568L5.06044 13.088C4.52177 12.8267 4.10844 12.4587 3.82044 11.984C3.53244 11.504 3.38844 10.9733 3.38844 10.392C3.38844 9.74133 3.53777 9.18133 3.83644 8.712C4.1351 8.24267 4.54577 7.88 5.06844 7.624C5.5911 7.368 6.1911 7.24 6.86844 7.24C7.54577 7.24 8.14577 7.368 8.66844 7.624C9.1911 7.88 9.60177 8.24267 9.90044 8.712C10.1991 9.18133 10.3484 9.74133 10.3484 10.392C10.3484 10.9733 10.2124 11.5013 9.94044 11.976C9.66844 12.4453 9.24977 12.816 8.68444 13.088L8.65244 12.576C9.31377 12.864 9.80977 13.288 10.1404 13.848C10.4764 14.4027 10.6444 15.024 10.6444 15.712C10.6444 16.416 10.4818 17.032 10.1564 17.56C9.83644 18.088 9.3911 18.5013 8.82044 18.8C8.2551 19.0933 7.60444 19.24 6.86844 19.24ZM6.86844 17.88C7.54044 17.88 8.08444 17.696 8.50044 17.328C8.92177 16.9547 9.13244 16.416 9.13244 15.712C9.13244 15.0027 8.92444 14.464 8.50844 14.096C8.09777 13.7227 7.5511 13.536 6.86844 13.536C6.1911 13.536 5.64444 13.7227 5.22844 14.096C4.81777 14.464 4.61244 15.0027 4.61244 15.712C4.61244 16.416 4.82044 16.9547 5.23644 17.328C5.65244 17.696 6.19644 17.88 6.86844 17.88ZM6.86844 12.168C7.4551 12.168 7.92977 12.0213 8.29244 11.728C8.6551 11.4293 8.83644 10.984 8.83644 10.392C8.83644 9.8 8.6551 9.35733 8.29244 9.064C7.92977 8.76533 7.4551 8.616 6.86844 8.616C6.2871 8.616 5.81244 8.76533 5.44444 9.064C5.08177 9.35733 4.90044 9.8 4.90044 10.392C4.90044 10.984 5.08177 11.4293 5.44444 11.728C5.81244 12.0213 6.2871 12.168 6.86844 12.168ZM15.9167 19V10.36H17.1407L20.4207 17.064L23.7007 10.36H24.9247V19H23.5487V13.328L20.7967 19H20.0447L17.2927 13.328V19H15.9167ZM26.3591 19V17.776C26.6791 17.8347 26.9217 17.824 27.0871 17.744C27.2577 17.6587 27.3831 17.512 27.4631 17.304C27.5484 17.0907 27.6177 16.824 27.6711 16.504C27.7617 15.9973 27.8391 15.432 27.9031 14.808C27.9724 14.184 28.0337 13.5013 28.0871 12.76C28.1457 12.0133 28.1991 11.2133 28.2471 10.36H34.2871V19H32.8631V11.712H29.5431C29.5111 12.2027 29.4711 12.7067 29.4231 13.224C29.3804 13.7413 29.3351 14.2453 29.2871 14.736C29.2391 15.2213 29.1857 15.6747 29.1271 16.096C29.0737 16.512 29.0151 16.872 28.9511 17.176C28.8497 17.6987 28.7084 18.1173 28.5271 18.432C28.3457 18.7413 28.0844 18.9413 27.7431 19.032C27.4017 19.128 26.9404 19.1173 26.3591 19ZM40.5021 19.24C39.6914 19.24 39.0087 19.04 38.4541 18.64C37.8994 18.2347 37.4781 17.688 37.1901 17C36.9074 16.3067 36.7661 15.5307 36.7661 14.672C36.7661 13.8027 36.9074 13.024 37.1901 12.336C37.4781 11.648 37.8994 11.1067 38.4541 10.712C39.0141 10.3173 39.6994 10.12 40.5101 10.12C41.3101 10.12 41.9981 10.32 42.5741 10.72C43.1554 11.1147 43.6007 11.656 43.9101 12.344C44.2194 13.032 44.3741 13.808 44.3741 14.672C44.3741 15.536 44.2194 16.312 43.9101 17C43.6007 17.688 43.1554 18.2347 42.5741 18.64C41.9981 19.04 41.3074 19.24 40.5021 19.24ZM36.5261 22.84V10.36H37.7981V16.72H37.9581V22.84H36.5261ZM40.3261 17.936C40.8967 17.936 41.3687 17.792 41.7421 17.504C42.1154 17.216 42.3954 16.8267 42.5821 16.336C42.7687 15.84 42.8621 15.2853 42.8621 14.672C42.8621 14.064 42.7687 13.5147 42.5821 13.024C42.4007 12.5333 42.1181 12.144 41.7341 11.856C41.3554 11.568 40.8727 11.424 40.2861 11.424C39.7261 11.424 39.2621 11.5627 38.8941 11.84C38.5261 12.112 38.2514 12.4933 38.0701 12.984C37.8887 13.4693 37.7981 14.032 37.7981 14.672C37.7981 15.3013 37.8861 15.864 38.0621 16.36C38.2434 16.8507 38.5207 17.2373 38.8941 17.52C39.2674 17.7973 39.7447 17.936 40.3261 17.936ZM45.4878 20.92V17.824C45.9731 17.824 46.3198 17.6667 46.5278 17.352C46.7358 17.032 46.9038 16.5067 47.0318 15.776C47.1171 15.3173 47.1865 14.8267 47.2398 14.304C47.2931 13.7813 47.3385 13.2 47.3758 12.56C47.4185 11.9147 47.4585 11.1813 47.4958 10.36H53.4478V17.824H54.2878V20.92H52.9278V19H46.8478V20.92H45.4878ZM47.6798 17.824H52.0238V11.536H48.7838C48.7678 11.9147 48.7465 12.312 48.7198 12.728C48.6931 13.1387 48.6611 13.5493 48.6238 13.96C48.5918 14.3707 48.5518 14.76 48.5038 15.128C48.4611 15.4907 48.4105 15.816 48.3518 16.104C48.2825 16.504 48.2025 16.8427 48.1118 17.12C48.0211 17.3973 47.8771 17.632 47.6798 17.824Z" fill="#9E9E9E"/>
<path d="M5.93863 113.234C5.20796 113.234 4.54396 113.058 3.94663 112.706C3.35463 112.354 2.88263 111.874 2.53063 111.266C2.18396 110.653 2.01063 109.962 2.01063 109.194V105.362C2.01063 104.557 2.18396 103.845 2.53063 103.226C2.88263 102.602 3.36263 102.117 3.97063 101.77C4.58396 101.418 5.28263 101.242 6.06663 101.242C6.70129 101.242 7.29063 101.373 7.83463 101.634C8.38396 101.89 8.84529 102.261 9.21863 102.746L8.15463 103.69C7.92529 103.354 7.62663 103.087 7.25863 102.89C6.89063 102.693 6.49329 102.594 6.06663 102.594C5.55996 102.594 5.10929 102.717 4.71463 102.962C4.32529 103.202 4.01863 103.522 3.79463 103.922C3.57063 104.317 3.45863 104.743 3.45863 105.202V107.514L3.14663 107.162C3.48263 106.682 3.90929 106.298 4.42663 106.01C4.94396 105.722 5.50396 105.578 6.10663 105.578C6.82129 105.578 7.46129 105.746 8.02663 106.082C8.59729 106.418 9.04529 106.874 9.37063 107.45C9.70129 108.021 9.86663 108.663 9.86663 109.378C9.86663 110.093 9.68796 110.741 9.33063 111.322C8.97329 111.903 8.49596 112.367 7.89863 112.714C7.30663 113.061 6.65329 113.234 5.93863 113.234ZM5.93863 111.858C6.39729 111.858 6.81596 111.749 7.19463 111.53C7.57329 111.306 7.87196 111.007 8.09063 110.634C8.31463 110.255 8.42663 109.837 8.42663 109.378C8.42663 108.919 8.31463 108.501 8.09063 108.122C7.87196 107.743 7.57329 107.445 7.19463 107.226C6.82129 107.002 6.40529 106.89 5.94663 106.89C5.48796 106.89 5.06929 107.002 4.69063 107.226C4.31729 107.445 4.01863 107.743 3.79463 108.122C3.57063 108.501 3.45863 108.919 3.45863 109.378C3.45863 109.831 3.56796 110.247 3.78663 110.626C4.01063 110.999 4.30929 111.298 4.68263 111.522C5.06129 111.746 5.47996 111.858 5.93863 111.858ZM15.1433 112.994V104.354H16.3673L19.6473 111.058L22.9273 104.354H24.1513V112.994H22.7753V107.322L20.0233 112.994H19.2713L16.5193 107.322V112.994H15.1433ZM25.5856 112.994V111.77C25.9056 111.829 26.1483 111.818 26.3136 111.738C26.4843 111.653 26.6096 111.506 26.6896 111.298C26.775 111.085 26.8443 110.818 26.8976 110.498C26.9883 109.991 27.0656 109.426 27.1296 108.802C27.199 108.178 27.2603 107.495 27.3136 106.754C27.3723 106.007 27.4256 105.207 27.4736 104.354H33.5136V112.994H32.0896V105.706H28.7696C28.7376 106.197 28.6976 106.701 28.6496 107.218C28.607 107.735 28.5616 108.239 28.5136 108.73C28.4656 109.215 28.4123 109.669 28.3536 110.09C28.3003 110.506 28.2416 110.866 28.1776 111.17C28.0763 111.693 27.935 112.111 27.7536 112.426C27.5723 112.735 27.311 112.935 26.9696 113.026C26.6283 113.122 26.167 113.111 25.5856 112.994ZM39.7286 113.234C38.918 113.234 38.2353 113.034 37.6806 112.634C37.126 112.229 36.7046 111.682 36.4166 110.994C36.134 110.301 35.9926 109.525 35.9926 108.666C35.9926 107.797 36.134 107.018 36.4166 106.33C36.7046 105.642 37.126 105.101 37.6806 104.706C38.2406 104.311 38.926 104.114 39.7366 104.114C40.5366 104.114 41.2246 104.314 41.8006 104.714C42.382 105.109 42.8273 105.65 43.1366 106.338C43.446 107.026 43.6006 107.802 43.6006 108.666C43.6006 109.53 43.446 110.306 43.1366 110.994C42.8273 111.682 42.382 112.229 41.8006 112.634C41.2246 113.034 40.534 113.234 39.7286 113.234ZM35.7526 116.834V104.354H37.0246V110.714H37.1846V116.834H35.7526ZM39.5526 111.93C40.1233 111.93 40.5953 111.786 40.9686 111.498C41.342 111.21 41.622 110.821 41.8086 110.33C41.9953 109.834 42.0886 109.279 42.0886 108.666C42.0886 108.058 41.9953 107.509 41.8086 107.018C41.6273 106.527 41.3446 106.138 40.9606 105.85C40.582 105.562 40.0993 105.418 39.5126 105.418C38.9526 105.418 38.4886 105.557 38.1206 105.834C37.7526 106.106 37.478 106.487 37.2966 106.978C37.1153 107.463 37.0246 108.026 37.0246 108.666C37.0246 109.295 37.1126 109.858 37.2886 110.354C37.47 110.845 37.7473 111.231 38.1206 111.514C38.494 111.791 38.9713 111.93 39.5526 111.93ZM44.7144 114.914V111.818C45.1997 111.818 45.5464 111.661 45.7544 111.346C45.9624 111.026 46.1304 110.501 46.2584 109.77C46.3437 109.311 46.413 108.821 46.4664 108.298C46.5197 107.775 46.565 107.194 46.6024 106.554C46.645 105.909 46.685 105.175 46.7224 104.354H52.6744V111.818H53.5144V114.914H52.1544V112.994H46.0744V114.914H44.7144ZM46.9064 111.818H51.2504V105.53H48.0104C47.9944 105.909 47.973 106.306 47.9464 106.722C47.9197 107.133 47.8877 107.543 47.8504 107.954C47.8184 108.365 47.7784 108.754 47.7304 109.122C47.6877 109.485 47.637 109.81 47.5784 110.098C47.509 110.498 47.429 110.837 47.3384 111.114C47.2477 111.391 47.1037 111.626 46.9064 111.818Z" fill="#9E9E9E"/>
<path d="M8.16631 206.988V204.868H2.87031V203.516L6.67031 195.468H8.28631L4.48631 203.516H8.16631V200.276H9.60631V203.516H10.8063V204.868H9.60631V206.988H8.16631ZM15.9167 206.988V198.348H17.1407L20.4207 205.052L23.7007 198.348H24.9247V206.988H23.5487V201.316L20.7967 206.988H20.0447L17.2927 201.316V206.988H15.9167ZM26.3591 206.988V205.764C26.6791 205.823 26.9217 205.812 27.0871 205.732C27.2577 205.647 27.3831 205.5 27.4631 205.292C27.5484 205.079 27.6177 204.812 27.6711 204.492C27.7617 203.986 27.8391 203.42 27.9031 202.796C27.9724 202.172 28.0337 201.49 28.0871 200.748C28.1457 200.002 28.1991 199.202 28.2471 198.348H34.2871V206.988H32.8631V199.7H29.5431C29.5111 200.191 29.4711 200.695 29.4231 201.212C29.3804 201.73 29.3351 202.234 29.2871 202.724C29.2391 203.21 29.1857 203.663 29.1271 204.084C29.0737 204.5 29.0151 204.86 28.9511 205.164C28.8497 205.687 28.7084 206.106 28.5271 206.42C28.3457 206.73 28.0844 206.93 27.7431 207.02C27.4017 207.116 26.9404 207.106 26.3591 206.988ZM40.5021 207.228C39.6914 207.228 39.0087 207.028 38.4541 206.628C37.8994 206.223 37.4781 205.676 37.1901 204.988C36.9074 204.295 36.7661 203.519 36.7661 202.66C36.7661 201.791 36.9074 201.012 37.1901 200.324C37.4781 199.636 37.8994 199.095 38.4541 198.7C39.0141 198.306 39.6994 198.108 40.5101 198.108C41.3101 198.108 41.9981 198.308 42.5741 198.708C43.1554 199.103 43.6007 199.644 43.9101 200.332C44.2194 201.02 44.3741 201.796 44.3741 202.66C44.3741 203.524 44.2194 204.3 43.9101 204.988C43.6007 205.676 43.1554 206.223 42.5741 206.628C41.9981 207.028 41.3074 207.228 40.5021 207.228ZM36.5261 210.828V198.348H37.7981V204.708H37.9581V210.828H36.5261ZM40.3261 205.924C40.8967 205.924 41.3687 205.78 41.7421 205.492C42.1154 205.204 42.3954 204.815 42.5821 204.324C42.7687 203.828 42.8621 203.274 42.8621 202.66C42.8621 202.052 42.7687 201.503 42.5821 201.012C42.4007 200.522 42.1181 200.132 41.7341 199.844C41.3554 199.556 40.8727 199.412 40.2861 199.412C39.7261 199.412 39.2621 199.551 38.8941 199.828C38.5261 200.1 38.2514 200.482 38.0701 200.972C37.8887 201.458 37.7981 202.02 37.7981 202.66C37.7981 203.29 37.8861 203.852 38.0621 204.348C38.2434 204.839 38.5207 205.226 38.8941 205.508C39.2674 205.786 39.7447 205.924 40.3261 205.924ZM45.4878 208.908V205.812C45.9731 205.812 46.3198 205.655 46.5278 205.34C46.7358 205.02 46.9038 204.495 47.0318 203.764C47.1171 203.306 47.1865 202.815 47.2398 202.292C47.2931 201.77 47.3385 201.188 47.3758 200.548C47.4185 199.903 47.4585 199.17 47.4958 198.348H53.4478V205.812H54.2878V208.908H52.9278V206.988H46.8478V208.908H45.4878ZM47.6798 205.812H52.0238V199.524H48.7838C48.7678 199.903 48.7465 200.3 48.7198 200.716C48.6931 201.127 48.6611 201.538 48.6238 201.948C48.5918 202.359 48.5518 202.748 48.5038 203.116C48.4611 203.479 48.4105 203.804 48.3518 204.092C48.2825 204.492 48.2025 204.831 48.1118 205.108C48.0211 205.386 47.8771 205.62 47.6798 205.812Z" fill="#9E9E9E"/>
<path d="M2.15156 300.976L2.15956 299.696L7.27156 295.096C7.69823 294.712 7.98356 294.35 8.12756 294.008C8.2769 293.662 8.35156 293.307 8.35156 292.944C8.35156 292.502 8.25023 292.102 8.04756 291.744C7.8449 291.387 7.56756 291.104 7.21556 290.896C6.8689 290.688 6.47423 290.584 6.03156 290.584C5.5729 290.584 5.1649 290.694 4.80756 290.912C4.45023 291.126 4.16756 291.411 3.95956 291.768C3.7569 292.126 3.65823 292.515 3.66356 292.936H2.20756C2.20756 292.211 2.37556 291.571 2.71156 291.016C3.04756 290.456 3.50356 290.019 4.07956 289.704C4.6609 289.384 5.31956 289.224 6.05556 289.224C6.77023 289.224 7.41023 289.39 7.97556 289.72C8.5409 290.046 8.98623 290.491 9.31156 291.056C9.64223 291.616 9.80756 292.251 9.80756 292.96C9.80756 293.462 9.74356 293.896 9.61556 294.264C9.4929 294.632 9.3009 294.974 9.03956 295.288C8.77823 295.598 8.45023 295.928 8.05556 296.28L3.80756 300.096L3.62356 299.616H9.80756V300.976H2.15156ZM14.9167 300.984V292.344H16.1407L19.4207 299.048L22.7007 292.344H23.9247V300.984H22.5487V295.312L19.7967 300.984H19.0447L16.2927 295.312V300.984H14.9167ZM25.3591 300.984V299.76C25.6791 299.819 25.9217 299.808 26.0871 299.728C26.2577 299.643 26.3831 299.496 26.4631 299.288C26.5484 299.075 26.6177 298.808 26.6711 298.488C26.7617 297.982 26.8391 297.416 26.9031 296.792C26.9724 296.168 27.0337 295.486 27.0871 294.744C27.1457 293.998 27.1991 293.198 27.2471 292.344H33.2871V300.984H31.8631V293.696H28.5431C28.5111 294.187 28.4711 294.691 28.4231 295.208C28.3804 295.726 28.3351 296.23 28.2871 296.72C28.2391 297.206 28.1857 297.659 28.1271 298.08C28.0737 298.496 28.0151 298.856 27.9511 299.16C27.8497 299.683 27.7084 300.102 27.5271 300.416C27.3457 300.726 27.0844 300.926 26.7431 301.016C26.4017 301.112 25.9404 301.102 25.3591 300.984ZM39.5021 301.224C38.6914 301.224 38.0087 301.024 37.4541 300.624C36.8994 300.219 36.4781 299.672 36.1901 298.984C35.9074 298.291 35.7661 297.515 35.7661 296.656C35.7661 295.787 35.9074 295.008 36.1901 294.32C36.4781 293.632 36.8994 293.091 37.4541 292.696C38.0141 292.302 38.6994 292.104 39.5101 292.104C40.3101 292.104 40.9981 292.304 41.5741 292.704C42.1554 293.099 42.6007 293.64 42.9101 294.328C43.2194 295.016 43.3741 295.792 43.3741 296.656C43.3741 297.52 43.2194 298.296 42.9101 298.984C42.6007 299.672 42.1554 300.219 41.5741 300.624C40.9981 301.024 40.3074 301.224 39.5021 301.224ZM35.5261 304.824V292.344H36.7981V298.704H36.9581V304.824H35.5261ZM39.3261 299.92C39.8967 299.92 40.3687 299.776 40.7421 299.488C41.1154 299.2 41.3954 298.811 41.5821 298.32C41.7687 297.824 41.8621 297.27 41.8621 296.656C41.8621 296.048 41.7687 295.499 41.5821 295.008C41.4007 294.518 41.1181 294.128 40.7341 293.84C40.3554 293.552 39.8727 293.408 39.2861 293.408C38.7261 293.408 38.2621 293.547 37.8941 293.824C37.5261 294.096 37.2514 294.478 37.0701 294.968C36.8887 295.454 36.7981 296.016 36.7981 296.656C36.7981 297.286 36.8861 297.848 37.0621 298.344C37.2434 298.835 37.5207 299.222 37.8941 299.504C38.2674 299.782 38.7447 299.92 39.3261 299.92ZM44.4878 302.904V299.808C44.9731 299.808 45.3198 299.651 45.5278 299.336C45.7358 299.016 45.9038 298.491 46.0318 297.76C46.1171 297.302 46.1865 296.811 46.2398 296.288C46.2931 295.766 46.3385 295.184 46.3758 294.544C46.4185 293.899 46.4585 293.166 46.4958 292.344H52.4478V299.808H53.2878V302.904H51.9278V300.984H45.8478V302.904H44.4878ZM46.6798 299.808H51.0238V293.52H47.7838C47.7678 293.899 47.7465 294.296 47.7198 294.712C47.6931 295.123 47.6611 295.534 47.6238 295.944C47.5918 296.355 47.5518 296.744 47.5038 297.112C47.4611 297.475 47.4105 297.8 47.3518 298.088C47.2825 298.488 47.2025 298.827 47.1118 299.104C47.0211 299.382 46.8771 299.616 46.6798 299.808Z" fill="#9E9E9E"/>
<path d="M85.8 438.992L85.808 437.712L90.92 433.112C91.3467 432.728 91.632 432.365 91.776 432.024C91.9253 431.677 92 431.323 92 430.96C92 430.517 91.8987 430.117 91.696 429.76C91.4933 429.403 91.216 429.12 90.864 428.912C90.5173 428.704 90.1227 428.6 89.68 428.6C89.2213 428.6 88.8133 428.709 88.456 428.928C88.0987 429.141 87.816 429.427 87.608 429.784C87.4053 430.141 87.3067 430.531 87.312 430.952H85.856C85.856 430.227 86.024 429.587 86.36 429.032C86.696 428.472 87.152 428.035 87.728 427.72C88.3093 427.4 88.968 427.24 89.704 427.24C90.4187 427.24 91.0587 427.405 91.624 427.736C92.1893 428.061 92.6347 428.507 92.96 429.072C93.2907 429.632 93.456 430.267 93.456 430.976C93.456 431.477 93.392 431.912 93.264 432.28C93.1413 432.648 92.9493 432.989 92.688 433.304C92.4267 433.613 92.0987 433.944 91.704 434.296L87.456 438.112L87.272 437.632H93.456V438.992H85.8ZM99.258 439.24C98.5113 439.24 97.8447 439.072 97.258 438.736C96.6767 438.395 96.2153 437.933 95.874 437.352C95.538 436.765 95.37 436.099 95.37 435.352V431.128C95.37 430.381 95.538 429.715 95.874 429.128C96.2153 428.541 96.6767 428.08 97.258 427.744C97.8447 427.408 98.5113 427.24 99.258 427.24C100.005 427.24 100.671 427.408 101.258 427.744C101.845 428.08 102.306 428.541 102.642 429.128C102.978 429.715 103.146 430.381 103.146 431.128V435.352C103.146 436.099 102.978 436.765 102.642 437.352C102.306 437.933 101.845 438.395 101.258 438.736C100.671 439.072 100.005 439.24 99.258 439.24ZM99.258 437.872C99.7113 437.872 100.122 437.763 100.49 437.544C100.858 437.325 101.151 437.032 101.37 436.664C101.589 436.291 101.698 435.88 101.698 435.432V431.04C101.698 430.587 101.589 430.176 101.37 429.808C101.151 429.44 100.858 429.147 100.49 428.928C100.122 428.709 99.7113 428.6 99.258 428.6C98.81 428.6 98.3993 428.709 98.026 428.928C97.658 429.147 97.3647 429.44 97.146 429.808C96.9273 430.176 96.818 430.587 96.818 431.04V435.432C96.818 435.88 96.9273 436.291 97.146 436.664C97.3647 437.032 97.658 437.325 98.026 437.544C98.3993 437.763 98.81 437.872 99.258 437.872ZM107.394 439V429.056L105.226 430.368V428.776L107.394 427.48H108.842V439H107.394ZM112.494 439L116.638 428.848H111.406V427.48H118.166V428.848L114.03 439H112.494Z" fill="#9E9E9E"/>
<path d="M377.3 438.992L377.308 437.712L382.42 433.112C382.847 432.728 383.132 432.365 383.276 432.024C383.425 431.677 383.5 431.323 383.5 430.96C383.5 430.517 383.399 430.117 383.196 429.76C382.993 429.403 382.716 429.12 382.364 428.912C382.017 428.704 381.623 428.6 381.18 428.6C380.721 428.6 380.313 428.709 379.956 428.928C379.599 429.141 379.316 429.427 379.108 429.784C378.905 430.141 378.807 430.531 378.812 430.952H377.356C377.356 430.227 377.524 429.587 377.86 429.032C378.196 428.472 378.652 428.035 379.228 427.72C379.809 427.4 380.468 427.24 381.204 427.24C381.919 427.24 382.559 427.405 383.124 427.736C383.689 428.061 384.135 428.507 384.46 429.072C384.791 429.632 384.956 430.267 384.956 430.976C384.956 431.477 384.892 431.912 384.764 432.28C384.641 432.648 384.449 432.989 384.188 433.304C383.927 433.613 383.599 433.944 383.204 434.296L378.956 438.112L378.772 437.632H384.956V438.992H377.3ZM390.758 439.24C390.011 439.24 389.345 439.072 388.758 438.736C388.177 438.395 387.715 437.933 387.374 437.352C387.038 436.765 386.87 436.099 386.87 435.352V431.128C386.87 430.381 387.038 429.715 387.374 429.128C387.715 428.541 388.177 428.08 388.758 427.744C389.345 427.408 390.011 427.24 390.758 427.24C391.505 427.24 392.171 427.408 392.758 427.744C393.345 428.08 393.806 428.541 394.142 429.128C394.478 429.715 394.646 430.381 394.646 431.128V435.352C394.646 436.099 394.478 436.765 394.142 437.352C393.806 437.933 393.345 438.395 392.758 438.736C392.171 439.072 391.505 439.24 390.758 439.24ZM390.758 437.872C391.211 437.872 391.622 437.763 391.99 437.544C392.358 437.325 392.651 437.032 392.87 436.664C393.089 436.291 393.198 435.88 393.198 435.432V431.04C393.198 430.587 393.089 430.176 392.87 429.808C392.651 429.44 392.358 429.147 391.99 428.928C391.622 428.709 391.211 428.6 390.758 428.6C390.31 428.6 389.899 428.709 389.526 428.928C389.158 429.147 388.865 429.44 388.646 429.808C388.427 430.176 388.318 430.587 388.318 431.04V435.432C388.318 435.88 388.427 436.291 388.646 436.664C388.865 437.032 389.158 437.325 389.526 437.544C389.899 437.763 390.31 437.872 390.758 437.872ZM398.894 439V429.056L396.726 430.368V428.776L398.894 427.48H400.342V439H398.894ZM406.986 439.24C406.25 439.24 405.599 439.093 405.034 438.8C404.468 438.501 404.026 438.088 403.706 437.56C403.386 437.032 403.226 436.416 403.226 435.712C403.226 435.024 403.388 434.403 403.714 433.848C404.044 433.293 404.54 432.867 405.202 432.568L405.178 433.088C404.639 432.827 404.226 432.459 403.938 431.984C403.65 431.504 403.506 430.973 403.506 430.392C403.506 429.741 403.655 429.181 403.954 428.712C404.252 428.243 404.663 427.88 405.186 427.624C405.708 427.368 406.308 427.24 406.986 427.24C407.663 427.24 408.263 427.368 408.786 427.624C409.308 427.88 409.719 428.243 410.018 428.712C410.316 429.181 410.466 429.741 410.466 430.392C410.466 430.973 410.33 431.501 410.058 431.976C409.786 432.445 409.367 432.816 408.802 433.088L408.77 432.576C409.431 432.864 409.927 433.288 410.258 433.848C410.594 434.403 410.762 435.024 410.762 435.712C410.762 436.416 410.599 437.032 410.274 437.56C409.954 438.088 409.508 438.501 408.938 438.8C408.372 439.093 407.722 439.24 406.986 439.24ZM406.986 437.88C407.658 437.88 408.202 437.696 408.618 437.328C409.039 436.955 409.25 436.416 409.25 435.712C409.25 435.003 409.042 434.464 408.626 434.096C408.215 433.723 407.668 433.536 406.986 433.536C406.308 433.536 405.762 433.723 405.346 434.096C404.935 434.464 404.73 435.003 404.73 435.712C404.73 436.416 404.938 436.955 405.354 437.328C405.77 437.696 406.314 437.88 406.986 437.88ZM406.986 432.168C407.572 432.168 408.047 432.021 408.41 431.728C408.772 431.429 408.954 430.984 408.954 430.392C408.954 429.8 408.772 429.357 408.41 429.064C408.047 428.765 407.572 428.616 406.986 428.616C406.404 428.616 405.93 428.765 405.562 429.064C405.199 429.357 405.018 429.8 405.018 430.392C405.018 430.984 405.199 431.429 405.562 431.728C405.93 432.021 406.404 432.168 406.986 432.168Z" fill="#9E9E9E"/>
<path d="M670.8 438.992L670.808 437.712L675.92 433.112C676.347 432.728 676.632 432.365 676.776 432.024C676.925 431.677 677 431.323 677 430.96C677 430.517 676.899 430.117 676.696 429.76C676.493 429.403 676.216 429.12 675.864 428.912C675.517 428.704 675.123 428.6 674.68 428.6C674.221 428.6 673.813 428.709 673.456 428.928C673.099 429.141 672.816 429.427 672.608 429.784C672.405 430.141 672.307 430.531 672.312 430.952H670.856C670.856 430.227 671.024 429.587 671.36 429.032C671.696 428.472 672.152 428.035 672.728 427.72C673.309 427.4 673.968 427.24 674.704 427.24C675.419 427.24 676.059 427.405 676.624 427.736C677.189 428.061 677.635 428.507 677.96 429.072C678.291 429.632 678.456 430.267 678.456 430.976C678.456 431.477 678.392 431.912 678.264 432.28C678.141 432.648 677.949 432.989 677.688 433.304C677.427 433.613 677.099 433.944 676.704 434.296L672.456 438.112L672.272 437.632H678.456V438.992H670.8ZM684.258 439.24C683.511 439.24 682.845 439.072 682.258 438.736C681.677 438.395 681.215 437.933 680.874 437.352C680.538 436.765 680.37 436.099 680.37 435.352V431.128C680.37 430.381 680.538 429.715 680.874 429.128C681.215 428.541 681.677 428.08 682.258 427.744C682.845 427.408 683.511 427.24 684.258 427.24C685.005 427.24 685.671 427.408 686.258 427.744C686.845 428.08 687.306 428.541 687.642 429.128C687.978 429.715 688.146 430.381 688.146 431.128V435.352C688.146 436.099 687.978 436.765 687.642 437.352C687.306 437.933 686.845 438.395 686.258 438.736C685.671 439.072 685.005 439.24 684.258 439.24ZM684.258 437.872C684.711 437.872 685.122 437.763 685.49 437.544C685.858 437.325 686.151 437.032 686.37 436.664C686.589 436.291 686.698 435.88 686.698 435.432V431.04C686.698 430.587 686.589 430.176 686.37 429.808C686.151 429.44 685.858 429.147 685.49 428.928C685.122 428.709 684.711 428.6 684.258 428.6C683.81 428.6 683.399 428.709 683.026 428.928C682.658 429.147 682.365 429.44 682.146 429.808C681.927 430.176 681.818 430.587 681.818 431.04V435.432C681.818 435.88 681.927 436.291 682.146 436.664C682.365 437.032 682.658 437.325 683.026 437.544C683.399 437.763 683.81 437.872 684.258 437.872ZM692.394 439V429.056L690.226 430.368V428.776L692.394 427.48H693.842V439H692.394ZM700.654 427.248C701.39 427.248 702.054 427.424 702.646 427.776C703.238 428.128 703.707 428.608 704.054 429.216C704.406 429.824 704.582 430.515 704.582 431.288V435.12C704.582 435.925 704.408 436.637 704.062 437.256C703.715 437.875 703.235 438.36 702.622 438.712C702.014 439.064 701.315 439.24 700.526 439.24C699.896 439.24 699.307 439.109 698.758 438.848C698.214 438.587 697.752 438.216 697.374 437.736L698.438 436.792C698.672 437.123 698.974 437.389 699.342 437.592C699.71 437.789 700.104 437.888 700.526 437.888C701.038 437.888 701.488 437.765 701.878 437.52C702.272 437.275 702.579 436.955 702.798 436.56C703.022 436.165 703.134 435.739 703.134 435.28V432.968L703.446 433.32C703.115 433.8 702.691 434.184 702.174 434.472C701.656 434.76 701.094 434.904 700.486 434.904C699.771 434.904 699.131 434.736 698.566 434.4C698 434.064 697.552 433.611 697.222 433.04C696.891 432.464 696.726 431.819 696.726 431.104C696.726 430.389 696.904 429.741 697.262 429.16C697.619 428.573 698.094 428.109 698.686 427.768C699.283 427.421 699.939 427.248 700.654 427.248ZM700.654 428.624C700.195 428.624 699.776 428.736 699.398 428.96C699.024 429.179 698.726 429.477 698.502 429.856C698.278 430.229 698.166 430.645 698.166 431.104C698.166 431.563 698.275 431.981 698.494 432.36C698.718 432.733 699.016 433.032 699.39 433.256C699.768 433.48 700.187 433.592 700.646 433.592C701.104 433.592 701.523 433.48 701.902 433.256C702.28 433.032 702.579 432.733 702.798 432.36C703.022 431.981 703.134 431.563 703.134 431.104C703.134 430.651 703.022 430.237 702.798 429.864C702.579 429.485 702.28 429.184 701.902 428.96C701.528 428.736 701.112 428.624 700.654 428.624Z" fill="#9E9E9E"/>
<path d="M964.3 438.992L964.308 437.712L969.42 433.112C969.847 432.728 970.132 432.365 970.276 432.024C970.425 431.677 970.5 431.323 970.5 430.96C970.5 430.517 970.399 430.117 970.196 429.76C969.993 429.403 969.716 429.12 969.364 428.912C969.017 428.704 968.623 428.6 968.18 428.6C967.721 428.6 967.313 428.709 966.956 428.928C966.599 429.141 966.316 429.427 966.108 429.784C965.905 430.141 965.807 430.531 965.812 430.952H964.356C964.356 430.227 964.524 429.587 964.86 429.032C965.196 428.472 965.652 428.035 966.228 427.72C966.809 427.4 967.468 427.24 968.204 427.24C968.919 427.24 969.559 427.405 970.124 427.736C970.689 428.061 971.135 428.507 971.46 429.072C971.791 429.632 971.956 430.267 971.956 430.976C971.956 431.477 971.892 431.912 971.764 432.28C971.641 432.648 971.449 432.989 971.188 433.304C970.927 433.613 970.599 433.944 970.204 434.296L965.956 438.112L965.772 437.632H971.956V438.992H964.3ZM977.758 439.24C977.011 439.24 976.345 439.072 975.758 438.736C975.177 438.395 974.715 437.933 974.374 437.352C974.038 436.765 973.87 436.099 973.87 435.352V431.128C973.87 430.381 974.038 429.715 974.374 429.128C974.715 428.541 975.177 428.08 975.758 427.744C976.345 427.408 977.011 427.24 977.758 427.24C978.505 427.24 979.171 427.408 979.758 427.744C980.345 428.08 980.806 428.541 981.142 429.128C981.478 429.715 981.646 430.381 981.646 431.128V435.352C981.646 436.099 981.478 436.765 981.142 437.352C980.806 437.933 980.345 438.395 979.758 438.736C979.171 439.072 978.505 439.24 977.758 439.24ZM977.758 437.872C978.211 437.872 978.622 437.763 978.99 437.544C979.358 437.325 979.651 437.032 979.87 436.664C980.089 436.291 980.198 435.88 980.198 435.432V431.04C980.198 430.587 980.089 430.176 979.87 429.808C979.651 429.44 979.358 429.147 978.99 428.928C978.622 428.709 978.211 428.6 977.758 428.6C977.31 428.6 976.899 428.709 976.526 428.928C976.158 429.147 975.865 429.44 975.646 429.808C975.427 430.176 975.318 430.587 975.318 431.04V435.432C975.318 435.88 975.427 436.291 975.646 436.664C975.865 437.032 976.158 437.325 976.526 437.544C976.899 437.763 977.31 437.872 977.758 437.872ZM983.566 438.992L983.574 437.712L988.686 433.112C989.112 432.728 989.398 432.365 989.542 432.024C989.691 431.677 989.766 431.323 989.766 430.96C989.766 430.517 989.664 430.117 989.462 429.76C989.259 429.403 988.982 429.12 988.63 428.912C988.283 428.704 987.888 428.6 987.446 428.6C986.987 428.6 986.579 428.709 986.222 428.928C985.864 429.141 985.582 429.427 985.374 429.784C985.171 430.141 985.072 430.531 985.078 430.952H983.622C983.622 430.227 983.79 429.587 984.126 429.032C984.462 428.472 984.918 428.035 985.494 427.72C986.075 427.4 986.734 427.24 987.47 427.24C988.184 427.24 988.824 427.405 989.39 427.736C989.955 428.061 990.4 428.507 990.726 429.072C991.056 429.632 991.222 430.267 991.222 430.976C991.222 431.477 991.158 431.912 991.03 432.28C990.907 432.648 990.715 432.989 990.454 433.304C990.192 433.613 989.864 433.944 989.47 434.296L985.222 438.112L985.038 437.632H991.222V438.992H983.566ZM997.024 439.24C996.277 439.24 995.61 439.072 995.024 438.736C994.442 438.395 993.981 437.933 993.64 437.352C993.304 436.765 993.136 436.099 993.136 435.352V431.128C993.136 430.381 993.304 429.715 993.64 429.128C993.981 428.541 994.442 428.08 995.024 427.744C995.61 427.408 996.277 427.24 997.024 427.24C997.77 427.24 998.437 427.408 999.024 427.744C999.61 428.08 1000.07 428.541 1000.41 429.128C1000.74 429.715 1000.91 430.381 1000.91 431.128V435.352C1000.91 436.099 1000.74 436.765 1000.41 437.352C1000.07 437.933 999.61 438.395 999.024 438.736C998.437 439.072 997.77 439.24 997.024 439.24ZM997.024 437.872C997.477 437.872 997.888 437.763 998.256 437.544C998.624 437.325 998.917 437.032 999.136 436.664C999.354 436.291 999.464 435.88 999.464 435.432V431.04C999.464 430.587 999.354 430.176 999.136 429.808C998.917 429.44 998.624 429.147 998.256 428.928C997.888 428.709 997.477 428.6 997.024 428.6C996.576 428.6 996.165 428.709 995.792 428.928C995.424 429.147 995.13 429.44 994.912 429.808C994.693 430.176 994.584 430.587 994.584 431.04V435.432C994.584 435.88 994.693 436.291 994.912 436.664C995.13 437.032 995.424 437.325 995.792 437.544C996.165 437.763 996.576 437.872 997.024 437.872Z" fill="#9E9E9E"/>
<path d="M1260.8 438.992L1260.81 437.712L1265.92 433.112C1266.35 432.728 1266.63 432.365 1266.78 432.024C1266.93 431.677 1267 431.323 1267 430.96C1267 430.517 1266.9 430.117 1266.7 429.76C1266.49 429.403 1266.22 429.12 1265.86 428.912C1265.52 428.704 1265.12 428.6 1264.68 428.6C1264.22 428.6 1263.81 428.709 1263.46 428.928C1263.1 429.141 1262.82 429.427 1262.61 429.784C1262.41 430.141 1262.31 430.531 1262.31 430.952H1260.86C1260.86 430.227 1261.02 429.587 1261.36 429.032C1261.7 428.472 1262.15 428.035 1262.73 427.72C1263.31 427.4 1263.97 427.24 1264.7 427.24C1265.42 427.24 1266.06 427.405 1266.62 427.736C1267.19 428.061 1267.63 428.507 1267.96 429.072C1268.29 429.632 1268.46 430.267 1268.46 430.976C1268.46 431.477 1268.39 431.912 1268.26 432.28C1268.14 432.648 1267.95 432.989 1267.69 433.304C1267.43 433.613 1267.1 433.944 1266.7 434.296L1262.46 438.112L1262.27 437.632H1268.46V438.992H1260.8ZM1274.26 439.24C1273.51 439.24 1272.84 439.072 1272.26 438.736C1271.68 438.395 1271.22 437.933 1270.87 437.352C1270.54 436.765 1270.37 436.099 1270.37 435.352V431.128C1270.37 430.381 1270.54 429.715 1270.87 429.128C1271.22 428.541 1271.68 428.08 1272.26 427.744C1272.84 427.408 1273.51 427.24 1274.26 427.24C1275 427.24 1275.67 427.408 1276.26 427.744C1276.84 428.08 1277.31 428.541 1277.64 429.128C1277.98 429.715 1278.15 430.381 1278.15 431.128V435.352C1278.15 436.099 1277.98 436.765 1277.64 437.352C1277.31 437.933 1276.84 438.395 1276.26 438.736C1275.67 439.072 1275 439.24 1274.26 439.24ZM1274.26 437.872C1274.71 437.872 1275.12 437.763 1275.49 437.544C1275.86 437.325 1276.15 437.032 1276.37 436.664C1276.59 436.291 1276.7 435.88 1276.7 435.432V431.04C1276.7 430.587 1276.59 430.176 1276.37 429.808C1276.15 429.44 1275.86 429.147 1275.49 428.928C1275.12 428.709 1274.71 428.6 1274.26 428.6C1273.81 428.6 1273.4 428.709 1273.03 428.928C1272.66 429.147 1272.36 429.44 1272.15 429.808C1271.93 430.176 1271.82 430.587 1271.82 431.04V435.432C1271.82 435.88 1271.93 436.291 1272.15 436.664C1272.36 437.032 1272.66 437.325 1273.03 437.544C1273.4 437.763 1273.81 437.872 1274.26 437.872ZM1280.07 438.992L1280.07 437.712L1285.19 433.112C1285.61 432.728 1285.9 432.365 1286.04 432.024C1286.19 431.677 1286.27 431.323 1286.27 430.96C1286.27 430.517 1286.16 430.117 1285.96 429.76C1285.76 429.403 1285.48 429.12 1285.13 428.912C1284.78 428.704 1284.39 428.6 1283.95 428.6C1283.49 428.6 1283.08 428.709 1282.72 428.928C1282.36 429.141 1282.08 429.427 1281.87 429.784C1281.67 430.141 1281.57 430.531 1281.58 430.952H1280.12C1280.12 430.227 1280.29 429.587 1280.63 429.032C1280.96 428.472 1281.42 428.035 1281.99 427.72C1282.57 427.4 1283.23 427.24 1283.97 427.24C1284.68 427.24 1285.32 427.405 1285.89 427.736C1286.45 428.061 1286.9 428.507 1287.23 429.072C1287.56 429.632 1287.72 430.267 1287.72 430.976C1287.72 431.477 1287.66 431.912 1287.53 432.28C1287.41 432.648 1287.21 432.989 1286.95 433.304C1286.69 433.613 1286.36 433.944 1285.97 434.296L1281.72 438.112L1281.54 437.632H1287.72V438.992H1280.07ZM1291.64 439V429.056L1289.48 430.368V428.776L1291.64 427.48H1293.09V439H1291.64Z" fill="#9E9E9E"/>
<g filter="url(#filter0_d_663_29629)">
<path d="M85 183.126L400.913 230.717L683.675 151.528L976.187 293L1296 67" stroke="url(#paint0_linear_663_29629)" stroke-width="3.54696"/>
</g>
<path d="M85 182.71L396.99 231.665L681.803 151.558L966.617 292.19L1296 67V399H85V182.71Z" fill="url(#paint1_linear_663_29629)"/>
<circle cx="398" cy="229" r="5.11326" fill="#00D45F" stroke="#00D45F" stroke-width="1.77348"/>
<circle cx="398" cy="229" r="2.11326" fill="white" stroke="white" stroke-width="1.77348"/>
<circle cx="83.8232" cy="181.574" r="5.11326" fill="#00D45F" stroke="#00D45F" stroke-width="1.77348"/>
<circle cx="684" cy="151.426" r="5.11326" fill="#00D45F" stroke="#00D45F" stroke-width="1.77348"/>
<circle cx="977" cy="289.758" r="5.11326" fill="#00D45F" stroke="#00D45F" stroke-width="1.77348"/>
<circle cx="1295" cy="66.2988" r="5.11326" fill="#00D45F" stroke="#00D45F" stroke-width="1.77348"/>
<g filter="url(#filter1_dd_663_29629)">
<path d="M323 150.188C323 142.352 329.352 136 337.188 136H459.812C467.648 136 474 142.352 474 150.188V190.812C474 198.648 467.648 205 459.812 205H337.188C329.352 205 323 198.648 323 190.812V150.188Z" fill="white"/>
<path d="M374.51 167V156.407L372.08 157.892V155.498L374.51 154.04H376.724V167H374.51ZM384.995 167V164.858H379.253V162.833L383.402 154.04H385.877L381.728 162.833H384.995V159.458H387.191V162.833H388.406V164.858H387.191V167H384.995ZM393.069 167V157.28H394.851L398.334 163.994L401.826 157.28H403.599V167H401.529V161.645L398.766 167H397.911L395.148 161.645V167H393.069ZM404.673 167V165.182C405.027 165.248 405.3 165.242 405.492 165.164C405.684 165.08 405.828 164.924 405.924 164.696C406.02 164.468 406.104 164.165 406.176 163.787C406.272 163.253 406.356 162.638 406.428 161.942C406.506 161.246 406.572 160.502 406.626 159.71C406.686 158.918 406.74 158.108 406.788 157.28H413.943V167H411.783V159.314H408.696C408.666 159.704 408.63 160.142 408.588 160.628C408.546 161.108 408.501 161.594 408.453 162.086C408.405 162.578 408.351 163.046 408.291 163.49C408.237 163.928 408.18 164.303 408.12 164.615C407.982 165.317 407.784 165.872 407.526 166.28C407.274 166.688 406.92 166.949 406.464 167.063C406.008 167.183 405.411 167.162 404.673 167ZM415.913 167V157.28H418.082V161.114H422.447V157.28H424.616V167H422.447V163.148H418.082V167H415.913Z" fill="#272833"/>
<path d="M385.15 187.993L385.157 187.122L389.388 183.3C389.752 182.971 389.993 182.659 390.11 182.364C390.231 182.065 390.292 181.753 390.292 181.428C390.292 181.043 390.201 180.694 390.019 180.382C389.837 180.07 389.592 179.823 389.284 179.641C388.976 179.455 388.632 179.361 388.251 179.361C387.852 179.361 387.497 179.457 387.185 179.647C386.873 179.838 386.626 180.089 386.444 180.401C386.266 180.713 386.179 181.054 386.184 181.422H385.209C385.209 180.854 385.343 180.345 385.612 179.894C385.88 179.444 386.244 179.091 386.704 178.835C387.163 178.575 387.683 178.445 388.264 178.445C388.831 178.445 389.34 178.579 389.791 178.848C390.246 179.112 390.604 179.472 390.864 179.927C391.128 180.378 391.26 180.88 391.26 181.435C391.26 181.825 391.212 182.169 391.117 182.468C391.026 182.763 390.881 183.038 390.682 183.294C390.487 183.545 390.237 183.805 389.934 184.074L386.177 187.467L386.028 187.077H391.26V187.993H385.15ZM395.879 188.195C395.303 188.195 394.783 188.061 394.319 187.792C393.86 187.523 393.496 187.159 393.227 186.7C392.958 186.236 392.824 185.716 392.824 185.14V181.5C392.824 180.924 392.958 180.406 393.227 179.946C393.496 179.483 393.86 179.117 394.319 178.848C394.783 178.579 395.303 178.445 395.879 178.445C396.455 178.445 396.973 178.579 397.433 178.848C397.896 179.117 398.262 179.483 398.531 179.946C398.8 180.406 398.934 180.924 398.934 181.5V185.14C398.934 185.716 398.8 186.236 398.531 186.7C398.262 187.159 397.896 187.523 397.433 187.792C396.973 188.061 396.455 188.195 395.879 188.195ZM395.879 187.272C396.265 187.272 396.616 187.179 396.932 186.992C397.248 186.802 397.5 186.548 397.686 186.232C397.872 185.916 397.966 185.567 397.966 185.185V181.454C397.966 181.069 397.872 180.718 397.686 180.401C397.5 180.085 397.248 179.834 396.932 179.647C396.616 179.457 396.265 179.361 395.879 179.361C395.493 179.361 395.142 179.457 394.826 179.647C394.51 179.834 394.258 180.085 394.072 180.401C393.886 180.718 393.793 181.069 393.793 181.454V185.185C393.793 185.567 393.886 185.916 394.072 186.232C394.258 186.548 394.51 186.802 394.826 186.992C395.142 187.179 395.493 187.272 395.879 187.272ZM402.39 188V179.706L400.629 180.765V179.693L402.39 178.64H403.359V188H402.39ZM408.678 188.195C408.093 188.195 407.575 188.078 407.124 187.844C406.678 187.61 406.327 187.283 406.071 186.862C405.82 186.438 405.694 185.942 405.694 185.374C405.694 184.793 405.835 184.278 406.117 183.827C406.398 183.372 406.827 183.027 407.404 182.793L407.391 183.17C406.91 182.993 406.543 182.702 406.292 182.299C406.041 181.896 405.915 181.45 405.915 180.96C405.915 180.44 406.034 179.994 406.273 179.621C406.511 179.244 406.836 178.954 407.248 178.75C407.664 178.547 408.14 178.445 408.678 178.445C409.215 178.445 409.692 178.547 410.108 178.75C410.524 178.954 410.851 179.244 411.089 179.621C411.327 179.994 411.447 180.44 411.447 180.96C411.447 181.45 411.325 181.894 411.083 182.293C410.844 182.692 410.478 182.984 409.984 183.17L409.952 182.793C410.528 183.023 410.959 183.365 411.245 183.82C411.535 184.275 411.681 184.793 411.681 185.374C411.681 185.942 411.553 186.438 411.297 186.862C411.041 187.283 410.688 187.61 410.238 187.844C409.787 188.078 409.267 188.195 408.678 188.195ZM408.678 187.278C409.267 187.278 409.746 187.116 410.114 186.791C410.482 186.462 410.667 185.989 410.667 185.374C410.667 184.75 410.485 184.278 410.121 183.957C409.757 183.632 409.276 183.469 408.678 183.469C408.08 183.469 407.601 183.632 407.241 183.957C406.881 184.278 406.702 184.75 406.702 185.374C406.702 185.989 406.884 186.462 407.248 186.791C407.612 187.116 408.088 187.278 408.678 187.278ZM408.678 182.546C409.198 182.546 409.62 182.414 409.945 182.15C410.27 181.881 410.433 181.485 410.433 180.96C410.433 180.436 410.27 180.044 409.945 179.784C409.62 179.52 409.198 179.387 408.678 179.387C408.158 179.387 407.735 179.52 407.41 179.784C407.089 180.044 406.929 180.436 406.929 180.96C406.929 181.485 407.089 181.881 407.41 182.15C407.735 182.414 408.158 182.546 408.678 182.546Z" fill="#272833"/>
</g>
<path d="M398.5 213L406.5 205H390.5L398.5 213Z" fill="white"/>
<defs>
<filter id="filter0_d_663_29629" x="45.7193" y="33.6281" width="1290.32" height="307.535" filterUnits="userSpaceOnUse" color-interpolation-filters="sRGB">
<feFlood flood-opacity="0" result="BackgroundImageFix"/>
<feColorMatrix in="SourceAlpha" type="matrix" values="0 0 0 0 0 0 0 0 0 0 0 0 0 0 0 0 0 0 127 0" result="hardAlpha"/>
<feOffset dy="7.09392"/>
<feGaussianBlur stdDeviation="19.5083"/>
<feComposite in2="hardAlpha" operator="out"/>
<feColorMatrix type="matrix" values="0 0 0 0 0 0 0 0 0 0.831373 0 0 0 0 0.372549 0 0 0 0.5 0"/>
<feBlend mode="normal" in2="BackgroundImageFix" result="effect1_dropShadow_663_29629"/>
<feBlend mode="normal" in="SourceGraphic" in2="effect1_dropShadow_663_29629" result="shape"/>
</filter>
<filter id="filter1_dd_663_29629" x="227.375" y="74.4016" width="342.249" height="260.249" filterUnits="userSpaceOnUse" color-interpolation-filters="sRGB">
<feFlood flood-opacity="0" result="BackgroundImageFix"/>
<feColorMatrix in="SourceAlpha" type="matrix" values="0 0 0 0 0 0 0 0 0 0 0 0 0 0 0 0 0 0 127 0" result="hardAlpha"/>
<feOffset dx="7.56142" dy="6.80527"/>
<feGaussianBlur stdDeviation="7.76951"/>
<feColorMatrix type="matrix" values="0 0 0 0 0.223529 0 0 0 0 0.211765 0 0 0 0 0.262745 0 0 0 0.035 0"/>
<feBlend mode="normal" in2="BackgroundImageFix" result="effect1_dropShadow_663_29629"/>
<feColorMatrix in="SourceAlpha" type="matrix" values="0 0 0 0 0 0 0 0 0 0 0 0 0 0 0 0 0 0 127 0" result="hardAlpha"/>
<feOffset dy="34.0264"/>
<feGaussianBlur stdDeviation="47.8124"/>
<feColorMatrix type="matrix" values="0 0 0 0 0.223529 0 0 0 0 0.211765 0 0 0 0 0.262745 0 0 0 0.07 0"/>
<feBlend mode="normal" in2="effect1_dropShadow_663_29629" result="effect2_dropShadow_663_29629"/>
<feBlend mode="normal" in="SourceGraphic" in2="effect2_dropShadow_663_29629" result="shape"/>
</filter>
<linearGradient id="paint0_linear_663_29629" x1="85" y1="166.154" x2="1295.43" y2="119.874" gradientUnits="userSpaceOnUse">
<stop stop-color="#00D45F"/>
<stop offset="1" stop-color="#67EEAD"/>
</linearGradient>
<linearGradient id="paint1_linear_663_29629" x1="690.5" y1="67" x2="690.5" y2="399" gradientUnits="userSpaceOnUse">
<stop stop-color="#00D45F" stop-opacity="0.16"/>
<stop offset="1" stop-color="#C4C4C4" stop-opacity="0"/>
</linearGradient>
</defs>
</svg>
