<svg width="715" height="288" viewBox="0 0 715 288" fill="none" xmlns="http://www.w3.org/2000/svg">
<line x1="72" y1="246" x2="691" y2="246" stroke="#D7D7D7" stroke-width="2" stroke-linecap="round"/>
<line x1="71" y1="193.5" x2="628" y2="193.5" stroke="#E6E6E6" stroke-dasharray="6 6"/>
<line x1="71" y1="140.5" x2="628" y2="140.5" stroke="#E6E6E6" stroke-dasharray="6 6"/>
<line x1="71" y1="87.5" x2="628" y2="87.5" stroke="#E6E6E6" stroke-dasharray="6 6"/>
<line x1="71" y1="34.5" x2="628" y2="34.5" stroke="#E6E6E6" stroke-dasharray="6 6"/>
<path d="M6.095 40.24C5.359 40.24 4.70833 40.0933 4.143 39.8C3.57767 39.5013 3.135 39.088 2.815 38.56C2.495 38.032 2.335 37.416 2.335 36.712C2.335 36.024 2.49767 35.4027 2.823 34.848C3.15367 34.2933 3.64967 33.8667 4.311 33.568L4.287 34.088C3.74833 33.8267 3.335 33.4587 3.047 32.984C2.759 32.504 2.615 31.9733 2.615 31.392C2.615 30.7413 2.76433 30.1813 3.063 29.712C3.36167 29.2427 3.77233 28.88 4.295 28.624C4.81767 28.368 5.41767 28.24 6.095 28.24C6.77233 28.24 7.37233 28.368 7.895 28.624C8.41767 28.88 8.82833 29.2427 9.127 29.712C9.42567 30.1813 9.575 30.7413 9.575 31.392C9.575 31.9733 9.439 32.5013 9.167 32.976C8.895 33.4453 8.47633 33.816 7.911 34.088L7.879 33.576C8.54033 33.864 9.03633 34.288 9.367 34.848C9.703 35.4027 9.871 36.024 9.871 36.712C9.871 37.416 9.70833 38.032 9.383 38.56C9.063 39.088 8.61767 39.5013 8.047 39.8C7.48167 40.0933 6.831 40.24 6.095 40.24ZM6.095 38.88C6.767 38.88 7.311 38.696 7.727 38.328C8.14833 37.9547 8.359 37.416 8.359 36.712C8.359 36.0027 8.151 35.464 7.735 35.096C7.32433 34.7227 6.77767 34.536 6.095 34.536C5.41767 34.536 4.871 34.7227 4.455 35.096C4.04433 35.464 3.839 36.0027 3.839 36.712C3.839 37.416 4.047 37.9547 4.463 38.328C4.879 38.696 5.423 38.88 6.095 38.88ZM6.095 33.168C6.68167 33.168 7.15633 33.0213 7.519 32.728C7.88167 32.4293 8.063 31.984 8.063 31.392C8.063 30.8 7.88167 30.3573 7.519 30.064C7.15633 29.7653 6.68167 29.616 6.095 29.616C5.51367 29.616 5.039 29.7653 4.671 30.064C4.30833 30.3573 4.127 30.8 4.127 31.392C4.127 31.984 4.30833 32.4293 4.671 32.728C5.039 33.0213 5.51367 33.168 6.095 33.168ZM15.1433 40V31.36H16.3673L19.6473 38.064L22.9273 31.36H24.1513V40H22.7753V34.328L20.0233 40H19.2713L16.5193 34.328V40H15.1433ZM25.5856 40V38.776C25.9056 38.8347 26.1483 38.824 26.3136 38.744C26.4843 38.6587 26.6096 38.512 26.6896 38.304C26.775 38.0907 26.8443 37.824 26.8976 37.504C26.9883 36.9973 27.0656 36.432 27.1296 35.808C27.199 35.184 27.2603 34.5013 27.3136 33.76C27.3723 33.0133 27.4256 32.2133 27.4736 31.36H33.5136V40H32.0896V32.712H28.7696C28.7376 33.2027 28.6976 33.7067 28.6496 34.224C28.607 34.7413 28.5616 35.2453 28.5136 35.736C28.4656 36.2213 28.4123 36.6747 28.3536 37.096C28.3003 37.512 28.2416 37.872 28.1776 38.176C28.0763 38.6987 27.935 39.1173 27.7536 39.432C27.5723 39.7413 27.311 39.9413 26.9696 40.032C26.6283 40.128 26.167 40.1173 25.5856 40ZM39.7286 40.24C38.918 40.24 38.2353 40.04 37.6806 39.64C37.126 39.2347 36.7046 38.688 36.4166 38C36.134 37.3067 35.9926 36.5307 35.9926 35.672C35.9926 34.8027 36.134 34.024 36.4166 33.336C36.7046 32.648 37.126 32.1067 37.6806 31.712C38.2406 31.3173 38.926 31.12 39.7366 31.12C40.5366 31.12 41.2246 31.32 41.8006 31.72C42.382 32.1147 42.8273 32.656 43.1366 33.344C43.446 34.032 43.6006 34.808 43.6006 35.672C43.6006 36.536 43.446 37.312 43.1366 38C42.8273 38.688 42.382 39.2347 41.8006 39.64C41.2246 40.04 40.534 40.24 39.7286 40.24ZM35.7526 43.84V31.36H37.0246V37.72H37.1846V43.84H35.7526ZM39.5526 38.936C40.1233 38.936 40.5953 38.792 40.9686 38.504C41.342 38.216 41.622 37.8267 41.8086 37.336C41.9953 36.84 42.0886 36.2853 42.0886 35.672C42.0886 35.064 41.9953 34.5147 41.8086 34.024C41.6273 33.5333 41.3446 33.144 40.9606 32.856C40.582 32.568 40.0993 32.424 39.5126 32.424C38.9526 32.424 38.4886 32.5627 38.1206 32.84C37.7526 33.112 37.478 33.4933 37.2966 33.984C37.1153 34.4693 37.0246 35.032 37.0246 35.672C37.0246 36.3013 37.1126 36.864 37.2886 37.36C37.47 37.8507 37.7473 38.2373 38.1206 38.52C38.494 38.7973 38.9713 38.936 39.5526 38.936ZM44.7144 41.92V38.824C45.1997 38.824 45.5464 38.6667 45.7544 38.352C45.9624 38.032 46.1304 37.5067 46.2584 36.776C46.3437 36.3173 46.413 35.8267 46.4664 35.304C46.5197 34.7813 46.565 34.2 46.6024 33.56C46.645 32.9147 46.685 32.1813 46.7224 31.36H52.6744V38.824H53.5144V41.92H52.1544V40H46.0744V41.92H44.7144ZM46.9064 38.824H51.2504V32.536H48.0104C47.9944 32.9147 47.973 33.312 47.9464 33.728C47.9197 34.1387 47.8877 34.5493 47.8504 34.96C47.8184 35.3707 47.7784 35.76 47.7304 36.128C47.6877 36.4907 47.637 36.816 47.5784 37.104C47.509 37.504 47.429 37.8427 47.3384 38.12C47.2477 38.3973 47.1037 38.632 46.9064 38.824Z" fill="#9E9E9E"/>
<path d="M5.93863 93.24C5.20796 93.24 4.54396 93.064 3.94663 92.712C3.35463 92.36 2.88263 91.88 2.53063 91.272C2.18396 90.6587 2.01063 89.968 2.01063 89.2V85.368C2.01063 84.5627 2.18396 83.8507 2.53063 83.232C2.88263 82.608 3.36263 82.1227 3.97063 81.776C4.58396 81.424 5.28263 81.248 6.06663 81.248C6.70129 81.248 7.29063 81.3787 7.83463 81.64C8.38396 81.896 8.84529 82.2667 9.21863 82.752L8.15463 83.696C7.92529 83.36 7.62663 83.0933 7.25863 82.896C6.89063 82.6987 6.49329 82.6 6.06663 82.6C5.55996 82.6 5.10929 82.7227 4.71463 82.968C4.32529 83.208 4.01863 83.528 3.79463 83.928C3.57063 84.3227 3.45863 84.7493 3.45863 85.208V87.52L3.14663 87.168C3.48263 86.688 3.90929 86.304 4.42663 86.016C4.94396 85.728 5.50396 85.584 6.10663 85.584C6.82129 85.584 7.46129 85.752 8.02663 86.088C8.59729 86.424 9.04529 86.88 9.37063 87.456C9.70129 88.0267 9.86663 88.6693 9.86663 89.384C9.86663 90.0987 9.68796 90.7467 9.33063 91.328C8.97329 91.9093 8.49596 92.3733 7.89863 92.72C7.30663 93.0667 6.65329 93.24 5.93863 93.24ZM5.93863 91.864C6.39729 91.864 6.81596 91.7547 7.19463 91.536C7.57329 91.312 7.87196 91.0133 8.09063 90.64C8.31463 90.2613 8.42663 89.8427 8.42663 89.384C8.42663 88.9253 8.31463 88.5067 8.09063 88.128C7.87196 87.7493 7.57329 87.4507 7.19463 87.232C6.82129 87.008 6.40529 86.896 5.94663 86.896C5.48796 86.896 5.06929 87.008 4.69063 87.232C4.31729 87.4507 4.01863 87.7493 3.79463 88.128C3.57063 88.5067 3.45863 88.9253 3.45863 89.384C3.45863 89.8373 3.56796 90.2533 3.78663 90.632C4.01063 91.0053 4.30929 91.304 4.68263 91.528C5.06129 91.752 5.47996 91.864 5.93863 91.864ZM15.1433 93V84.36H16.3673L19.6473 91.064L22.9273 84.36H24.1513V93H22.7753V87.328L20.0233 93H19.2713L16.5193 87.328V93H15.1433ZM25.5856 93V91.776C25.9056 91.8347 26.1483 91.824 26.3136 91.744C26.4843 91.6587 26.6096 91.512 26.6896 91.304C26.775 91.0907 26.8443 90.824 26.8976 90.504C26.9883 89.9973 27.0656 89.432 27.1296 88.808C27.199 88.184 27.2603 87.5013 27.3136 86.76C27.3723 86.0133 27.4256 85.2133 27.4736 84.36H33.5136V93H32.0896V85.712H28.7696C28.7376 86.2027 28.6976 86.7067 28.6496 87.224C28.607 87.7413 28.5616 88.2453 28.5136 88.736C28.4656 89.2213 28.4123 89.6747 28.3536 90.096C28.3003 90.512 28.2416 90.872 28.1776 91.176C28.0763 91.6987 27.935 92.1173 27.7536 92.432C27.5723 92.7413 27.311 92.9413 26.9696 93.032C26.6283 93.128 26.167 93.1173 25.5856 93ZM39.7286 93.24C38.918 93.24 38.2353 93.04 37.6806 92.64C37.126 92.2347 36.7046 91.688 36.4166 91C36.134 90.3067 35.9926 89.5307 35.9926 88.672C35.9926 87.8027 36.134 87.024 36.4166 86.336C36.7046 85.648 37.126 85.1067 37.6806 84.712C38.2406 84.3173 38.926 84.12 39.7366 84.12C40.5366 84.12 41.2246 84.32 41.8006 84.72C42.382 85.1147 42.8273 85.656 43.1366 86.344C43.446 87.032 43.6006 87.808 43.6006 88.672C43.6006 89.536 43.446 90.312 43.1366 91C42.8273 91.688 42.382 92.2347 41.8006 92.64C41.2246 93.04 40.534 93.24 39.7286 93.24ZM35.7526 96.84V84.36H37.0246V90.72H37.1846V96.84H35.7526ZM39.5526 91.936C40.1233 91.936 40.5953 91.792 40.9686 91.504C41.342 91.216 41.622 90.8267 41.8086 90.336C41.9953 89.84 42.0886 89.2853 42.0886 88.672C42.0886 88.064 41.9953 87.5147 41.8086 87.024C41.6273 86.5333 41.3446 86.144 40.9606 85.856C40.582 85.568 40.0993 85.424 39.5126 85.424C38.9526 85.424 38.4886 85.5627 38.1206 85.84C37.7526 86.112 37.478 86.4933 37.2966 86.984C37.1153 87.4693 37.0246 88.032 37.0246 88.672C37.0246 89.3013 37.1126 89.864 37.2886 90.36C37.47 90.8507 37.7473 91.2373 38.1206 91.52C38.494 91.7973 38.9713 91.936 39.5526 91.936ZM44.7144 94.92V91.824C45.1997 91.824 45.5464 91.6667 45.7544 91.352C45.9624 91.032 46.1304 90.5067 46.2584 89.776C46.3437 89.3173 46.413 88.8267 46.4664 88.304C46.5197 87.7813 46.565 87.2 46.6024 86.56C46.645 85.9147 46.685 85.1813 46.7224 84.36H52.6744V91.824H53.5144V94.92H52.1544V93H46.0744V94.92H44.7144ZM46.9064 91.824H51.2504V85.536H48.0104C47.9944 85.9147 47.973 86.312 47.9464 86.728C47.9197 87.1387 47.8877 87.5493 47.8504 87.96C47.8184 88.3707 47.7784 88.76 47.7304 89.128C47.6877 89.4907 47.637 89.816 47.5784 90.104C47.509 90.504 47.429 90.8427 47.3384 91.12C47.2477 91.3973 47.1037 91.632 46.9064 91.824Z" fill="#9E9E9E"/>
<path d="M7.39288 146V143.88H2.09688V142.528L5.89688 134.48H7.51288L3.71288 142.528H7.39288V139.288H8.83288V142.528H10.0329V143.88H8.83288V146H7.39288ZM15.1433 146V137.36H16.3673L19.6473 144.064L22.9273 137.36H24.1513V146H22.7753V140.328L20.0233 146H19.2713L16.5193 140.328V146H15.1433ZM25.5856 146V144.776C25.9056 144.835 26.1483 144.824 26.3136 144.744C26.4843 144.659 26.6096 144.512 26.6896 144.304C26.775 144.091 26.8443 143.824 26.8976 143.504C26.9883 142.997 27.0656 142.432 27.1296 141.808C27.199 141.184 27.2603 140.501 27.3136 139.76C27.3723 139.013 27.4256 138.213 27.4736 137.36H33.5136V146H32.0896V138.712H28.7696C28.7376 139.203 28.6976 139.707 28.6496 140.224C28.607 140.741 28.5616 141.245 28.5136 141.736C28.4656 142.221 28.4123 142.675 28.3536 143.096C28.3003 143.512 28.2416 143.872 28.1776 144.176C28.0763 144.699 27.935 145.117 27.7536 145.432C27.5723 145.741 27.311 145.941 26.9696 146.032C26.6283 146.128 26.167 146.117 25.5856 146ZM39.7286 146.24C38.918 146.24 38.2353 146.04 37.6806 145.64C37.126 145.235 36.7046 144.688 36.4166 144C36.134 143.307 35.9926 142.531 35.9926 141.672C35.9926 140.803 36.134 140.024 36.4166 139.336C36.7046 138.648 37.126 138.107 37.6806 137.712C38.2406 137.317 38.926 137.12 39.7366 137.12C40.5366 137.12 41.2246 137.32 41.8006 137.72C42.382 138.115 42.8273 138.656 43.1366 139.344C43.446 140.032 43.6006 140.808 43.6006 141.672C43.6006 142.536 43.446 143.312 43.1366 144C42.8273 144.688 42.382 145.235 41.8006 145.64C41.2246 146.04 40.534 146.24 39.7286 146.24ZM35.7526 149.84V137.36H37.0246V143.72H37.1846V149.84H35.7526ZM39.5526 144.936C40.1233 144.936 40.5953 144.792 40.9686 144.504C41.342 144.216 41.622 143.827 41.8086 143.336C41.9953 142.84 42.0886 142.285 42.0886 141.672C42.0886 141.064 41.9953 140.515 41.8086 140.024C41.6273 139.533 41.3446 139.144 40.9606 138.856C40.582 138.568 40.0993 138.424 39.5126 138.424C38.9526 138.424 38.4886 138.563 38.1206 138.84C37.7526 139.112 37.478 139.493 37.2966 139.984C37.1153 140.469 37.0246 141.032 37.0246 141.672C37.0246 142.301 37.1126 142.864 37.2886 143.36C37.47 143.851 37.7473 144.237 38.1206 144.52C38.494 144.797 38.9713 144.936 39.5526 144.936ZM44.7144 147.92V144.824C45.1997 144.824 45.5464 144.667 45.7544 144.352C45.9624 144.032 46.1304 143.507 46.2584 142.776C46.3437 142.317 46.413 141.827 46.4664 141.304C46.5197 140.781 46.565 140.2 46.6024 139.56C46.645 138.915 46.685 138.181 46.7224 137.36H52.6744V144.824H53.5144V147.92H52.1544V146H46.0744V147.92H44.7144ZM46.9064 144.824H51.2504V138.536H48.0104C47.9944 138.915 47.973 139.312 47.9464 139.728C47.9197 140.139 47.8877 140.549 47.8504 140.96C47.8184 141.371 47.7784 141.76 47.7304 142.128C47.6877 142.491 47.637 142.816 47.5784 143.104C47.509 143.504 47.429 143.843 47.3384 144.12C47.2477 144.397 47.1037 144.632 46.9064 144.824Z" fill="#9E9E9E"/>
<path d="M2.37813 198.992L2.38613 197.712L7.49813 193.112C7.92479 192.728 8.21013 192.365 8.35413 192.024C8.50346 191.677 8.57813 191.323 8.57813 190.96C8.57813 190.517 8.47679 190.117 8.27413 189.76C8.07146 189.403 7.79413 189.12 7.44213 188.912C7.09546 188.704 6.70079 188.6 6.25813 188.6C5.79946 188.6 5.39146 188.709 5.03413 188.928C4.67679 189.141 4.39413 189.427 4.18613 189.784C3.98346 190.141 3.88479 190.531 3.89013 190.952H2.43413C2.43413 190.227 2.60213 189.587 2.93813 189.032C3.27413 188.472 3.73013 188.035 4.30613 187.72C4.88746 187.4 5.54613 187.24 6.28212 187.24C6.99679 187.24 7.63679 187.405 8.20213 187.736C8.76746 188.061 9.21279 188.507 9.53813 189.072C9.86879 189.632 10.0341 190.267 10.0341 190.976C10.0341 191.477 9.97013 191.912 9.84212 192.28C9.71946 192.648 9.52746 192.989 9.26613 193.304C9.00479 193.613 8.67679 193.944 8.28213 194.296L4.03413 198.112L3.85013 197.632H10.0341V198.992H2.37813ZM15.1433 199V190.36H16.3673L19.6473 197.064L22.9273 190.36H24.1513V199H22.7753V193.328L20.0233 199H19.2713L16.5193 193.328V199H15.1433ZM25.5856 199V197.776C25.9056 197.835 26.1483 197.824 26.3136 197.744C26.4843 197.659 26.6096 197.512 26.6896 197.304C26.775 197.091 26.8443 196.824 26.8976 196.504C26.9883 195.997 27.0656 195.432 27.1296 194.808C27.199 194.184 27.2603 193.501 27.3136 192.76C27.3723 192.013 27.4256 191.213 27.4736 190.36H33.5136V199H32.0896V191.712H28.7696C28.7376 192.203 28.6976 192.707 28.6496 193.224C28.607 193.741 28.5616 194.245 28.5136 194.736C28.4656 195.221 28.4123 195.675 28.3536 196.096C28.3003 196.512 28.2416 196.872 28.1776 197.176C28.0763 197.699 27.935 198.117 27.7536 198.432C27.5723 198.741 27.311 198.941 26.9696 199.032C26.6283 199.128 26.167 199.117 25.5856 199ZM39.7286 199.24C38.918 199.24 38.2353 199.04 37.6806 198.64C37.126 198.235 36.7046 197.688 36.4166 197C36.134 196.307 35.9926 195.531 35.9926 194.672C35.9926 193.803 36.134 193.024 36.4166 192.336C36.7046 191.648 37.126 191.107 37.6806 190.712C38.2406 190.317 38.926 190.12 39.7366 190.12C40.5366 190.12 41.2246 190.32 41.8006 190.72C42.382 191.115 42.8273 191.656 43.1366 192.344C43.446 193.032 43.6006 193.808 43.6006 194.672C43.6006 195.536 43.446 196.312 43.1366 197C42.8273 197.688 42.382 198.235 41.8006 198.64C41.2246 199.04 40.534 199.24 39.7286 199.24ZM35.7526 202.84V190.36H37.0246V196.72H37.1846V202.84H35.7526ZM39.5526 197.936C40.1233 197.936 40.5953 197.792 40.9686 197.504C41.342 197.216 41.622 196.827 41.8086 196.336C41.9953 195.84 42.0886 195.285 42.0886 194.672C42.0886 194.064 41.9953 193.515 41.8086 193.024C41.6273 192.533 41.3446 192.144 40.9606 191.856C40.582 191.568 40.0993 191.424 39.5126 191.424C38.9526 191.424 38.4886 191.563 38.1206 191.84C37.7526 192.112 37.478 192.493 37.2966 192.984C37.1153 193.469 37.0246 194.032 37.0246 194.672C37.0246 195.301 37.1126 195.864 37.2886 196.36C37.47 196.851 37.7473 197.237 38.1206 197.52C38.494 197.797 38.9713 197.936 39.5526 197.936ZM44.7144 200.92V197.824C45.1997 197.824 45.5464 197.667 45.7544 197.352C45.9624 197.032 46.1304 196.507 46.2584 195.776C46.3437 195.317 46.413 194.827 46.4664 194.304C46.5197 193.781 46.565 193.2 46.6024 192.56C46.645 191.915 46.685 191.181 46.7224 190.36H52.6744V197.824H53.5144V200.92H52.1544V199H46.0744V200.92H44.7144ZM46.9064 197.824H51.2504V191.536H48.0104C47.9944 191.915 47.973 192.312 47.9464 192.728C47.9197 193.139 47.8877 193.549 47.8504 193.96C47.8184 194.371 47.7784 194.76 47.7304 195.128C47.6877 195.491 47.637 195.816 47.5784 196.104C47.509 196.504 47.429 196.843 47.3384 197.12C47.2477 197.397 47.1037 197.632 46.9064 197.824Z" fill="#9E9E9E"/>
<path d="M71.8 281.992L71.808 280.712L76.92 276.112C77.3467 275.728 77.632 275.365 77.776 275.024C77.9253 274.677 78 274.323 78 273.96C78 273.517 77.8987 273.117 77.696 272.76C77.4933 272.403 77.216 272.12 76.864 271.912C76.5173 271.704 76.1227 271.6 75.68 271.6C75.2213 271.6 74.8133 271.709 74.456 271.928C74.0987 272.141 73.816 272.427 73.608 272.784C73.4053 273.141 73.3067 273.531 73.312 273.952H71.856C71.856 273.227 72.024 272.587 72.36 272.032C72.696 271.472 73.152 271.035 73.728 270.72C74.3093 270.4 74.968 270.24 75.704 270.24C76.4187 270.24 77.0587 270.405 77.624 270.736C78.1893 271.061 78.6347 271.507 78.96 272.072C79.2907 272.632 79.456 273.267 79.456 273.976C79.456 274.477 79.392 274.912 79.264 275.28C79.1413 275.648 78.9493 275.989 78.688 276.304C78.4267 276.613 78.0987 276.944 77.704 277.296L73.456 281.112L73.272 280.632H79.456V281.992H71.8ZM85.258 282.24C84.5113 282.24 83.8447 282.072 83.258 281.736C82.6767 281.395 82.2153 280.933 81.874 280.352C81.538 279.765 81.37 279.099 81.37 278.352V274.128C81.37 273.381 81.538 272.715 81.874 272.128C82.2153 271.541 82.6767 271.08 83.258 270.744C83.8447 270.408 84.5113 270.24 85.258 270.24C86.0047 270.24 86.6713 270.408 87.258 270.744C87.8447 271.08 88.306 271.541 88.642 272.128C88.978 272.715 89.146 273.381 89.146 274.128V278.352C89.146 279.099 88.978 279.765 88.642 280.352C88.306 280.933 87.8447 281.395 87.258 281.736C86.6713 282.072 86.0047 282.24 85.258 282.24ZM85.258 280.872C85.7113 280.872 86.122 280.763 86.49 280.544C86.858 280.325 87.1513 280.032 87.37 279.664C87.5887 279.291 87.698 278.88 87.698 278.432V274.04C87.698 273.587 87.5887 273.176 87.37 272.808C87.1513 272.44 86.858 272.147 86.49 271.928C86.122 271.709 85.7113 271.6 85.258 271.6C84.81 271.6 84.3993 271.709 84.026 271.928C83.658 272.147 83.3647 272.44 83.146 272.808C82.9273 273.176 82.818 273.587 82.818 274.04V278.432C82.818 278.88 82.9273 279.291 83.146 279.664C83.3647 280.032 83.658 280.325 84.026 280.544C84.3993 280.763 84.81 280.872 85.258 280.872ZM93.3936 282V272.056L91.2256 273.368V271.776L93.3936 270.48H94.8416V282H93.3936ZM98.4936 282L102.638 271.848H97.4056V270.48H104.166V271.848L100.03 282H98.4936Z" fill="#9E9E9E"/>
<path d="M217.8 281.992L217.808 280.712L222.92 276.112C223.347 275.728 223.632 275.365 223.776 275.024C223.925 274.677 224 274.323 224 273.96C224 273.517 223.899 273.117 223.696 272.76C223.493 272.403 223.216 272.12 222.864 271.912C222.517 271.704 222.123 271.6 221.68 271.6C221.221 271.6 220.813 271.709 220.456 271.928C220.099 272.141 219.816 272.427 219.608 272.784C219.405 273.141 219.307 273.531 219.312 273.952H217.856C217.856 273.227 218.024 272.587 218.36 272.032C218.696 271.472 219.152 271.035 219.728 270.72C220.309 270.4 220.968 270.24 221.704 270.24C222.419 270.24 223.059 270.405 223.624 270.736C224.189 271.061 224.635 271.507 224.96 272.072C225.291 272.632 225.456 273.267 225.456 273.976C225.456 274.477 225.392 274.912 225.264 275.28C225.141 275.648 224.949 275.989 224.688 276.304C224.427 276.613 224.099 276.944 223.704 277.296L219.456 281.112L219.272 280.632H225.456V281.992H217.8ZM231.258 282.24C230.511 282.24 229.845 282.072 229.258 281.736C228.677 281.395 228.215 280.933 227.874 280.352C227.538 279.765 227.37 279.099 227.37 278.352V274.128C227.37 273.381 227.538 272.715 227.874 272.128C228.215 271.541 228.677 271.08 229.258 270.744C229.845 270.408 230.511 270.24 231.258 270.24C232.005 270.24 232.671 270.408 233.258 270.744C233.845 271.08 234.306 271.541 234.642 272.128C234.978 272.715 235.146 273.381 235.146 274.128V278.352C235.146 279.099 234.978 279.765 234.642 280.352C234.306 280.933 233.845 281.395 233.258 281.736C232.671 282.072 232.005 282.24 231.258 282.24ZM231.258 280.872C231.711 280.872 232.122 280.763 232.49 280.544C232.858 280.325 233.151 280.032 233.37 279.664C233.589 279.291 233.698 278.88 233.698 278.432V274.04C233.698 273.587 233.589 273.176 233.37 272.808C233.151 272.44 232.858 272.147 232.49 271.928C232.122 271.709 231.711 271.6 231.258 271.6C230.81 271.6 230.399 271.709 230.026 271.928C229.658 272.147 229.365 272.44 229.146 272.808C228.927 273.176 228.818 273.587 228.818 274.04V278.432C228.818 278.88 228.927 279.291 229.146 279.664C229.365 280.032 229.658 280.325 230.026 280.544C230.399 280.763 230.81 280.872 231.258 280.872ZM239.394 282V272.056L237.226 273.368V271.776L239.394 270.48H240.842V282H239.394ZM247.486 282.24C246.75 282.24 246.099 282.093 245.534 281.8C244.968 281.501 244.526 281.088 244.206 280.56C243.886 280.032 243.726 279.416 243.726 278.712C243.726 278.024 243.888 277.403 244.214 276.848C244.544 276.293 245.04 275.867 245.702 275.568L245.678 276.088C245.139 275.827 244.726 275.459 244.438 274.984C244.15 274.504 244.006 273.973 244.006 273.392C244.006 272.741 244.155 272.181 244.454 271.712C244.752 271.243 245.163 270.88 245.686 270.624C246.208 270.368 246.808 270.24 247.486 270.24C248.163 270.24 248.763 270.368 249.286 270.624C249.808 270.88 250.219 271.243 250.518 271.712C250.816 272.181 250.966 272.741 250.966 273.392C250.966 273.973 250.83 274.501 250.558 274.976C250.286 275.445 249.867 275.816 249.302 276.088L249.27 275.576C249.931 275.864 250.427 276.288 250.758 276.848C251.094 277.403 251.262 278.024 251.262 278.712C251.262 279.416 251.099 280.032 250.774 280.56C250.454 281.088 250.008 281.501 249.438 281.8C248.872 282.093 248.222 282.24 247.486 282.24ZM247.486 280.88C248.158 280.88 248.702 280.696 249.118 280.328C249.539 279.955 249.75 279.416 249.75 278.712C249.75 278.003 249.542 277.464 249.126 277.096C248.715 276.723 248.168 276.536 247.486 276.536C246.808 276.536 246.262 276.723 245.846 277.096C245.435 277.464 245.23 278.003 245.23 278.712C245.23 279.416 245.438 279.955 245.854 280.328C246.27 280.696 246.814 280.88 247.486 280.88ZM247.486 275.168C248.072 275.168 248.547 275.021 248.91 274.728C249.272 274.429 249.454 273.984 249.454 273.392C249.454 272.8 249.272 272.357 248.91 272.064C248.547 271.765 248.072 271.616 247.486 271.616C246.904 271.616 246.43 271.765 246.062 272.064C245.699 272.357 245.518 272.8 245.518 273.392C245.518 273.984 245.699 274.429 246.062 274.728C246.43 275.021 246.904 275.168 247.486 275.168Z" fill="#9E9E9E"/>
<path d="M365.8 281.992L365.808 280.712L370.92 276.112C371.347 275.728 371.632 275.365 371.776 275.024C371.925 274.677 372 274.323 372 273.96C372 273.517 371.899 273.117 371.696 272.76C371.493 272.403 371.216 272.12 370.864 271.912C370.517 271.704 370.123 271.6 369.68 271.6C369.221 271.6 368.813 271.709 368.456 271.928C368.099 272.141 367.816 272.427 367.608 272.784C367.405 273.141 367.307 273.531 367.312 273.952H365.856C365.856 273.227 366.024 272.587 366.36 272.032C366.696 271.472 367.152 271.035 367.728 270.72C368.309 270.4 368.968 270.24 369.704 270.24C370.419 270.24 371.059 270.405 371.624 270.736C372.189 271.061 372.635 271.507 372.96 272.072C373.291 272.632 373.456 273.267 373.456 273.976C373.456 274.477 373.392 274.912 373.264 275.28C373.141 275.648 372.949 275.989 372.688 276.304C372.427 276.613 372.099 276.944 371.704 277.296L367.456 281.112L367.272 280.632H373.456V281.992H365.8ZM379.258 282.24C378.511 282.24 377.845 282.072 377.258 281.736C376.677 281.395 376.215 280.933 375.874 280.352C375.538 279.765 375.37 279.099 375.37 278.352V274.128C375.37 273.381 375.538 272.715 375.874 272.128C376.215 271.541 376.677 271.08 377.258 270.744C377.845 270.408 378.511 270.24 379.258 270.24C380.005 270.24 380.671 270.408 381.258 270.744C381.845 271.08 382.306 271.541 382.642 272.128C382.978 272.715 383.146 273.381 383.146 274.128V278.352C383.146 279.099 382.978 279.765 382.642 280.352C382.306 280.933 381.845 281.395 381.258 281.736C380.671 282.072 380.005 282.24 379.258 282.24ZM379.258 280.872C379.711 280.872 380.122 280.763 380.49 280.544C380.858 280.325 381.151 280.032 381.37 279.664C381.589 279.291 381.698 278.88 381.698 278.432V274.04C381.698 273.587 381.589 273.176 381.37 272.808C381.151 272.44 380.858 272.147 380.49 271.928C380.122 271.709 379.711 271.6 379.258 271.6C378.81 271.6 378.399 271.709 378.026 271.928C377.658 272.147 377.365 272.44 377.146 272.808C376.927 273.176 376.818 273.587 376.818 274.04V278.432C376.818 278.88 376.927 279.291 377.146 279.664C377.365 280.032 377.658 280.325 378.026 280.544C378.399 280.763 378.81 280.872 379.258 280.872ZM387.394 282V272.056L385.226 273.368V271.776L387.394 270.48H388.842V282H387.394ZM395.654 270.248C396.39 270.248 397.054 270.424 397.646 270.776C398.238 271.128 398.707 271.608 399.054 272.216C399.406 272.824 399.582 273.515 399.582 274.288V278.12C399.582 278.925 399.408 279.637 399.062 280.256C398.715 280.875 398.235 281.36 397.622 281.712C397.014 282.064 396.315 282.24 395.526 282.24C394.896 282.24 394.307 282.109 393.758 281.848C393.214 281.587 392.752 281.216 392.374 280.736L393.438 279.792C393.672 280.123 393.974 280.389 394.342 280.592C394.71 280.789 395.104 280.888 395.526 280.888C396.038 280.888 396.488 280.765 396.878 280.52C397.272 280.275 397.579 279.955 397.798 279.56C398.022 279.165 398.134 278.739 398.134 278.28V275.968L398.446 276.32C398.115 276.8 397.691 277.184 397.174 277.472C396.656 277.76 396.094 277.904 395.486 277.904C394.771 277.904 394.131 277.736 393.566 277.4C393 277.064 392.552 276.611 392.222 276.04C391.891 275.464 391.726 274.819 391.726 274.104C391.726 273.389 391.904 272.741 392.262 272.16C392.619 271.573 393.094 271.109 393.686 270.768C394.283 270.421 394.939 270.248 395.654 270.248ZM395.654 271.624C395.195 271.624 394.776 271.736 394.398 271.96C394.024 272.179 393.726 272.477 393.502 272.856C393.278 273.229 393.166 273.645 393.166 274.104C393.166 274.563 393.275 274.981 393.494 275.36C393.718 275.733 394.016 276.032 394.39 276.256C394.768 276.48 395.187 276.592 395.646 276.592C396.104 276.592 396.523 276.48 396.902 276.256C397.28 276.032 397.579 275.733 397.798 275.36C398.022 274.981 398.134 274.563 398.134 274.104C398.134 273.651 398.022 273.237 397.798 272.864C397.579 272.485 397.28 272.184 396.902 271.96C396.528 271.736 396.112 271.624 395.654 271.624Z" fill="#9E9E9E"/>
<path d="M513.8 281.992L513.808 280.712L518.92 276.112C519.347 275.728 519.632 275.365 519.776 275.024C519.925 274.677 520 274.323 520 273.96C520 273.517 519.899 273.117 519.696 272.76C519.493 272.403 519.216 272.12 518.864 271.912C518.517 271.704 518.123 271.6 517.68 271.6C517.221 271.6 516.813 271.709 516.456 271.928C516.099 272.141 515.816 272.427 515.608 272.784C515.405 273.141 515.307 273.531 515.312 273.952H513.856C513.856 273.227 514.024 272.587 514.36 272.032C514.696 271.472 515.152 271.035 515.728 270.72C516.309 270.4 516.968 270.24 517.704 270.24C518.419 270.24 519.059 270.405 519.624 270.736C520.189 271.061 520.635 271.507 520.96 272.072C521.291 272.632 521.456 273.267 521.456 273.976C521.456 274.477 521.392 274.912 521.264 275.28C521.141 275.648 520.949 275.989 520.688 276.304C520.427 276.613 520.099 276.944 519.704 277.296L515.456 281.112L515.272 280.632H521.456V281.992H513.8ZM527.258 282.24C526.511 282.24 525.845 282.072 525.258 281.736C524.677 281.395 524.215 280.933 523.874 280.352C523.538 279.765 523.37 279.099 523.37 278.352V274.128C523.37 273.381 523.538 272.715 523.874 272.128C524.215 271.541 524.677 271.08 525.258 270.744C525.845 270.408 526.511 270.24 527.258 270.24C528.005 270.24 528.671 270.408 529.258 270.744C529.845 271.08 530.306 271.541 530.642 272.128C530.978 272.715 531.146 273.381 531.146 274.128V278.352C531.146 279.099 530.978 279.765 530.642 280.352C530.306 280.933 529.845 281.395 529.258 281.736C528.671 282.072 528.005 282.24 527.258 282.24ZM527.258 280.872C527.711 280.872 528.122 280.763 528.49 280.544C528.858 280.325 529.151 280.032 529.37 279.664C529.589 279.291 529.698 278.88 529.698 278.432V274.04C529.698 273.587 529.589 273.176 529.37 272.808C529.151 272.44 528.858 272.147 528.49 271.928C528.122 271.709 527.711 271.6 527.258 271.6C526.81 271.6 526.399 271.709 526.026 271.928C525.658 272.147 525.365 272.44 525.146 272.808C524.927 273.176 524.818 273.587 524.818 274.04V278.432C524.818 278.88 524.927 279.291 525.146 279.664C525.365 280.032 525.658 280.325 526.026 280.544C526.399 280.763 526.81 280.872 527.258 280.872ZM533.066 281.992L533.074 280.712L538.186 276.112C538.612 275.728 538.898 275.365 539.042 275.024C539.191 274.677 539.266 274.323 539.266 273.96C539.266 273.517 539.164 273.117 538.962 272.76C538.759 272.403 538.482 272.12 538.13 271.912C537.783 271.704 537.388 271.6 536.946 271.6C536.487 271.6 536.079 271.709 535.722 271.928C535.364 272.141 535.082 272.427 534.874 272.784C534.671 273.141 534.572 273.531 534.578 273.952H533.122C533.122 273.227 533.29 272.587 533.626 272.032C533.962 271.472 534.418 271.035 534.994 270.72C535.575 270.4 536.234 270.24 536.97 270.24C537.684 270.24 538.324 270.405 538.89 270.736C539.455 271.061 539.9 271.507 540.226 272.072C540.556 272.632 540.722 273.267 540.722 273.976C540.722 274.477 540.658 274.912 540.53 275.28C540.407 275.648 540.215 275.989 539.954 276.304C539.692 276.613 539.364 276.944 538.97 277.296L534.722 281.112L534.538 280.632H540.722V281.992H533.066ZM546.524 282.24C545.777 282.24 545.11 282.072 544.524 281.736C543.942 281.395 543.481 280.933 543.14 280.352C542.804 279.765 542.636 279.099 542.636 278.352V274.128C542.636 273.381 542.804 272.715 543.14 272.128C543.481 271.541 543.942 271.08 544.524 270.744C545.11 270.408 545.777 270.24 546.524 270.24C547.27 270.24 547.937 270.408 548.524 270.744C549.11 271.08 549.572 271.541 549.908 272.128C550.244 272.715 550.412 273.381 550.412 274.128V278.352C550.412 279.099 550.244 279.765 549.908 280.352C549.572 280.933 549.11 281.395 548.524 281.736C547.937 282.072 547.27 282.24 546.524 282.24ZM546.524 280.872C546.977 280.872 547.388 280.763 547.756 280.544C548.124 280.325 548.417 280.032 548.636 279.664C548.854 279.291 548.964 278.88 548.964 278.432V274.04C548.964 273.587 548.854 273.176 548.636 272.808C548.417 272.44 548.124 272.147 547.756 271.928C547.388 271.709 546.977 271.6 546.524 271.6C546.076 271.6 545.665 271.709 545.292 271.928C544.924 272.147 544.63 272.44 544.412 272.808C544.193 273.176 544.084 273.587 544.084 274.04V278.432C544.084 278.88 544.193 279.291 544.412 279.664C544.63 280.032 544.924 280.325 545.292 280.544C545.665 280.763 546.076 280.872 546.524 280.872Z" fill="#9E9E9E"/>
<path d="M664.8 281.992L664.808 280.712L669.92 276.112C670.347 275.728 670.632 275.365 670.776 275.024C670.925 274.677 671 274.323 671 273.96C671 273.517 670.899 273.117 670.696 272.76C670.493 272.403 670.216 272.12 669.864 271.912C669.517 271.704 669.123 271.6 668.68 271.6C668.221 271.6 667.813 271.709 667.456 271.928C667.099 272.141 666.816 272.427 666.608 272.784C666.405 273.141 666.307 273.531 666.312 273.952H664.856C664.856 273.227 665.024 272.587 665.36 272.032C665.696 271.472 666.152 271.035 666.728 270.72C667.309 270.4 667.968 270.24 668.704 270.24C669.419 270.24 670.059 270.405 670.624 270.736C671.189 271.061 671.635 271.507 671.96 272.072C672.291 272.632 672.456 273.267 672.456 273.976C672.456 274.477 672.392 274.912 672.264 275.28C672.141 275.648 671.949 275.989 671.688 276.304C671.427 276.613 671.099 276.944 670.704 277.296L666.456 281.112L666.272 280.632H672.456V281.992H664.8ZM678.258 282.24C677.511 282.24 676.845 282.072 676.258 281.736C675.677 281.395 675.215 280.933 674.874 280.352C674.538 279.765 674.37 279.099 674.37 278.352V274.128C674.37 273.381 674.538 272.715 674.874 272.128C675.215 271.541 675.677 271.08 676.258 270.744C676.845 270.408 677.511 270.24 678.258 270.24C679.005 270.24 679.671 270.408 680.258 270.744C680.845 271.08 681.306 271.541 681.642 272.128C681.978 272.715 682.146 273.381 682.146 274.128V278.352C682.146 279.099 681.978 279.765 681.642 280.352C681.306 280.933 680.845 281.395 680.258 281.736C679.671 282.072 679.005 282.24 678.258 282.24ZM678.258 280.872C678.711 280.872 679.122 280.763 679.49 280.544C679.858 280.325 680.151 280.032 680.37 279.664C680.589 279.291 680.698 278.88 680.698 278.432V274.04C680.698 273.587 680.589 273.176 680.37 272.808C680.151 272.44 679.858 272.147 679.49 271.928C679.122 271.709 678.711 271.6 678.258 271.6C677.81 271.6 677.399 271.709 677.026 271.928C676.658 272.147 676.365 272.44 676.146 272.808C675.927 273.176 675.818 273.587 675.818 274.04V278.432C675.818 278.88 675.927 279.291 676.146 279.664C676.365 280.032 676.658 280.325 677.026 280.544C677.399 280.763 677.81 280.872 678.258 280.872ZM684.066 281.992L684.074 280.712L689.186 276.112C689.612 275.728 689.898 275.365 690.042 275.024C690.191 274.677 690.266 274.323 690.266 273.96C690.266 273.517 690.164 273.117 689.962 272.76C689.759 272.403 689.482 272.12 689.13 271.912C688.783 271.704 688.388 271.6 687.946 271.6C687.487 271.6 687.079 271.709 686.722 271.928C686.364 272.141 686.082 272.427 685.874 272.784C685.671 273.141 685.572 273.531 685.578 273.952H684.122C684.122 273.227 684.29 272.587 684.626 272.032C684.962 271.472 685.418 271.035 685.994 270.72C686.575 270.4 687.234 270.24 687.97 270.24C688.684 270.24 689.324 270.405 689.89 270.736C690.455 271.061 690.9 271.507 691.226 272.072C691.556 272.632 691.722 273.267 691.722 273.976C691.722 274.477 691.658 274.912 691.53 275.28C691.407 275.648 691.215 275.989 690.954 276.304C690.692 276.613 690.364 276.944 689.97 277.296L685.722 281.112L685.538 280.632H691.722V281.992H684.066ZM695.644 282V272.056L693.476 273.368V271.776L695.644 270.48H697.092V282H695.644Z" fill="#9E9E9E"/>
<g filter="url(#filter0_d_861_29520)">
<path d="M71 124.257L233 151L378 106.5L528 186L692 59" stroke="url(#paint0_linear_861_29520)" stroke-width="2"/>
</g>
<path d="M71 124.174L230.988 151.748L377.04 106.627L523.092 185.839L692 59V246H71V124.174Z" fill="url(#paint1_linear_861_29520)"/>
<circle cx="233" cy="151" r="3.5" fill="#00D45F" stroke="#00D45F"/>
<circle cx="71" cy="124" r="3.5" fill="#00D45F" stroke="#00D45F"/>
<circle cx="378" cy="107" r="3.5" fill="#00D45F" stroke="#00D45F"/>
<circle cx="528" cy="185" r="3.5" fill="#00D45F" stroke="#00D45F"/>
<circle cx="692" cy="59" r="3.5" fill="#00D45F" stroke="#00D45F"/>
<g filter="url(#filter1_dd_861_29520)">
<path d="M158 76.1878C158 68.3521 164.352 62 172.188 62L294.812 62C302.648 62 309 68.3521 309 76.1878V116.812C309 124.648 302.648 131 294.812 131H172.188C164.352 131 158 124.648 158 116.812V76.1878Z" fill="white"/>
<path d="M209.51 93V82.407L207.08 83.892V81.498L209.51 80.04H211.724V93H209.51ZM219.995 93V90.858H214.253V88.833L218.402 80.04H220.877L216.728 88.833H219.995V85.458H222.191V88.833H223.406V90.858H222.191V93H219.995ZM228.069 93V83.28H229.851L233.334 89.994L236.826 83.28H238.599V93H236.529V87.645L233.766 93H232.911L230.148 87.645V93H228.069ZM239.673 93V91.182C240.027 91.248 240.3 91.242 240.492 91.164C240.684 91.08 240.828 90.924 240.924 90.696C241.02 90.468 241.104 90.165 241.176 89.787C241.272 89.253 241.356 88.638 241.428 87.942C241.506 87.246 241.572 86.502 241.626 85.71C241.686 84.918 241.74 84.108 241.788 83.28H248.943V93H246.783V85.314H243.696C243.666 85.704 243.63 86.142 243.588 86.628C243.546 87.108 243.501 87.594 243.453 88.086C243.405 88.578 243.351 89.046 243.291 89.49C243.237 89.928 243.18 90.303 243.12 90.615C242.982 91.317 242.784 91.872 242.526 92.28C242.274 92.688 241.92 92.949 241.464 93.063C241.008 93.183 240.411 93.162 239.673 93ZM250.913 93V83.28H253.082V87.114H257.447V83.28H259.616V93H257.447V89.148H253.082V93H250.913Z" fill="#272833"/>
<path d="M220.15 113.993L220.157 113.122L224.388 109.3C224.752 108.971 224.993 108.659 225.11 108.364C225.231 108.065 225.292 107.753 225.292 107.428C225.292 107.043 225.201 106.694 225.019 106.382C224.837 106.07 224.592 105.823 224.284 105.641C223.976 105.455 223.632 105.361 223.251 105.361C222.852 105.361 222.497 105.457 222.185 105.647C221.873 105.838 221.626 106.089 221.444 106.401C221.266 106.713 221.179 107.054 221.184 107.422H220.209C220.209 106.854 220.343 106.345 220.612 105.894C220.88 105.444 221.244 105.091 221.704 104.835C222.163 104.575 222.683 104.445 223.264 104.445C223.831 104.445 224.34 104.579 224.791 104.848C225.246 105.112 225.604 105.472 225.864 105.927C226.128 106.378 226.26 106.88 226.26 107.435C226.26 107.825 226.212 108.169 226.117 108.468C226.026 108.763 225.881 109.038 225.682 109.294C225.487 109.545 225.237 109.805 224.934 110.074L221.177 113.467L221.028 113.077H226.26V113.993H220.15ZM230.879 114.195C230.303 114.195 229.783 114.061 229.319 113.792C228.86 113.523 228.496 113.159 228.227 112.7C227.958 112.236 227.824 111.716 227.824 111.14V107.5C227.824 106.924 227.958 106.406 228.227 105.946C228.496 105.483 228.86 105.117 229.319 104.848C229.783 104.579 230.303 104.445 230.879 104.445C231.455 104.445 231.973 104.579 232.433 104.848C232.896 105.117 233.262 105.483 233.531 105.946C233.8 106.406 233.934 106.924 233.934 107.5V111.14C233.934 111.716 233.8 112.236 233.531 112.7C233.262 113.159 232.896 113.523 232.433 113.792C231.973 114.061 231.455 114.195 230.879 114.195ZM230.879 113.272C231.265 113.272 231.616 113.179 231.932 112.992C232.248 112.802 232.5 112.548 232.686 112.232C232.872 111.916 232.966 111.567 232.966 111.185V107.454C232.966 107.069 232.872 106.718 232.686 106.401C232.5 106.085 232.248 105.834 231.932 105.647C231.616 105.457 231.265 105.361 230.879 105.361C230.493 105.361 230.142 105.457 229.826 105.647C229.51 105.834 229.258 106.085 229.072 106.401C228.886 106.718 228.793 107.069 228.793 107.454V111.185C228.793 111.567 228.886 111.916 229.072 112.232C229.258 112.548 229.51 112.802 229.826 112.992C230.142 113.179 230.493 113.272 230.879 113.272ZM237.39 114V105.706L235.629 106.765V105.693L237.39 104.64H238.359V114H237.39ZM243.678 114.195C243.093 114.195 242.575 114.078 242.124 113.844C241.678 113.61 241.327 113.283 241.071 112.862C240.82 112.438 240.694 111.942 240.694 111.374C240.694 110.793 240.835 110.278 241.117 109.827C241.398 109.372 241.827 109.027 242.404 108.793L242.391 109.17C241.91 108.993 241.543 108.702 241.292 108.299C241.041 107.896 240.915 107.45 240.915 106.96C240.915 106.44 241.034 105.994 241.273 105.621C241.511 105.244 241.836 104.954 242.248 104.75C242.664 104.547 243.14 104.445 243.678 104.445C244.215 104.445 244.692 104.547 245.108 104.75C245.524 104.954 245.851 105.244 246.089 105.621C246.327 105.994 246.447 106.44 246.447 106.96C246.447 107.45 246.325 107.894 246.083 108.293C245.844 108.692 245.478 108.984 244.984 109.17L244.952 108.793C245.528 109.023 245.959 109.365 246.245 109.82C246.535 110.275 246.681 110.793 246.681 111.374C246.681 111.942 246.553 112.438 246.297 112.862C246.041 113.283 245.688 113.61 245.238 113.844C244.787 114.078 244.267 114.195 243.678 114.195ZM243.678 113.278C244.267 113.278 244.746 113.116 245.114 112.791C245.482 112.462 245.667 111.989 245.667 111.374C245.667 110.75 245.485 110.278 245.121 109.957C244.757 109.632 244.276 109.469 243.678 109.469C243.08 109.469 242.601 109.632 242.241 109.957C241.881 110.278 241.702 110.75 241.702 111.374C241.702 111.989 241.884 112.462 242.248 112.791C242.612 113.116 243.088 113.278 243.678 113.278ZM243.678 108.546C244.198 108.546 244.62 108.414 244.945 108.15C245.27 107.881 245.433 107.485 245.433 106.96C245.433 106.436 245.27 106.044 244.945 105.784C244.62 105.52 244.198 105.387 243.678 105.387C243.158 105.387 242.735 105.52 242.41 105.784C242.089 106.044 241.929 106.436 241.929 106.96C241.929 107.485 242.089 107.881 242.41 108.15C242.735 108.414 243.158 108.546 243.678 108.546Z" fill="#272833"/>
</g>
<path d="M233.5 139L241.5 131H225.5L233.5 139Z" fill="white"/>
<defs>
<filter id="filter0_d_861_29520" x="48.8369" y="40.209" width="665.775" height="172.977" filterUnits="userSpaceOnUse" color-interpolation-filters="sRGB">
<feFlood flood-opacity="0" result="BackgroundImageFix"/>
<feColorMatrix in="SourceAlpha" type="matrix" values="0 0 0 0 0 0 0 0 0 0 0 0 0 0 0 0 0 0 127 0" result="hardAlpha"/>
<feOffset dy="4"/>
<feGaussianBlur stdDeviation="11"/>
<feComposite in2="hardAlpha" operator="out"/>
<feColorMatrix type="matrix" values="0 0 0 0 0 0 0 0 0 0.831373 0 0 0 0 0.372549 0 0 0 0.5 0"/>
<feBlend mode="normal" in2="BackgroundImageFix" result="effect1_dropShadow_861_29520"/>
<feBlend mode="normal" in="SourceGraphic" in2="effect1_dropShadow_861_29520" result="shape"/>
</filter>
<filter id="filter1_dd_861_29520" x="62.3753" y="0.401649" width="342.249" height="260.249" filterUnits="userSpaceOnUse" color-interpolation-filters="sRGB">
<feFlood flood-opacity="0" result="BackgroundImageFix"/>
<feColorMatrix in="SourceAlpha" type="matrix" values="0 0 0 0 0 0 0 0 0 0 0 0 0 0 0 0 0 0 127 0" result="hardAlpha"/>
<feOffset dx="7.56142" dy="6.80527"/>
<feGaussianBlur stdDeviation="7.76951"/>
<feColorMatrix type="matrix" values="0 0 0 0 0.223529 0 0 0 0 0.211765 0 0 0 0 0.262745 0 0 0 0.035 0"/>
<feBlend mode="normal" in2="BackgroundImageFix" result="effect1_dropShadow_861_29520"/>
<feColorMatrix in="SourceAlpha" type="matrix" values="0 0 0 0 0 0 0 0 0 0 0 0 0 0 0 0 0 0 127 0" result="hardAlpha"/>
<feOffset dy="34.0264"/>
<feGaussianBlur stdDeviation="47.8124"/>
<feColorMatrix type="matrix" values="0 0 0 0 0.223529 0 0 0 0 0.211765 0 0 0 0 0.262745 0 0 0 0.07 0"/>
<feBlend mode="normal" in2="effect1_dropShadow_861_29520" result="effect2_dropShadow_861_29520"/>
<feBlend mode="normal" in="SourceGraphic" in2="effect2_dropShadow_861_29520" result="shape"/>
</filter>
<linearGradient id="paint0_linear_861_29520" x1="71" y1="114.719" x2="691.857" y2="93.0574" gradientUnits="userSpaceOnUse">
<stop stop-color="#00D45F"/>
<stop offset="1" stop-color="#67EEAD"/>
</linearGradient>
<linearGradient id="paint1_linear_861_29520" x1="381.5" y1="59" x2="381.5" y2="246" gradientUnits="userSpaceOnUse">
<stop stop-color="#00D45F" stop-opacity="0.16"/>
<stop offset="1" stop-color="#C4C4C4" stop-opacity="0"/>
</linearGradient>
</defs>
</svg>
