<svg width="82" height="88" viewBox="0 0 82 88" fill="none" xmlns="http://www.w3.org/2000/svg">
<circle cx="35" cy="43" r="25.5" fill="white" stroke="#EDFAEF" stroke-width="19"/>
<g filter="url(#filter0_d_618_15379)">
<path d="M35 8C42.3913 8 49.5928 10.3399 55.5725 14.6844C61.5522 19.0289 66.0029 25.1549 68.287 32.1844C70.571 39.2139 70.571 46.7861 68.287 53.8156C66.0029 60.8451 61.5522 66.9711 55.5725 71.3156L44.4633 56.0252C47.214 54.0267 49.2614 51.2088 50.312 47.9752C51.3627 44.7416 51.3627 41.2584 50.312 38.0248C49.2614 34.7912 47.214 31.9733 44.4633 29.9748C41.7127 27.9764 38.4 26.9 35 26.9V8Z" fill="#00D45F"/>
</g>
<defs>
<filter id="filter0_d_618_15379" x="23" y="0" width="59" height="87.3164" filterUnits="userSpaceOnUse" color-interpolation-filters="sRGB">
<feFlood flood-opacity="0" result="BackgroundImageFix"/>
<feColorMatrix in="SourceAlpha" type="matrix" values="0 0 0 0 0 0 0 0 0 0 0 0 0 0 0 0 0 0 127 0" result="hardAlpha"/>
<feOffset dy="4"/>
<feGaussianBlur stdDeviation="6"/>
<feComposite in2="hardAlpha" operator="out"/>
<feColorMatrix type="matrix" values="0 0 0 0 0 0 0 0 0 0.831373 0 0 0 0 0.372549 0 0 0 0.28 0"/>
<feBlend mode="normal" in2="BackgroundImageFix" result="effect1_dropShadow_618_15379"/>
<feBlend mode="normal" in="SourceGraphic" in2="effect1_dropShadow_618_15379" result="shape"/>
</filter>
</defs>
</svg>
