<svg width="90" height="90" viewBox="0 0 90 90" fill="none" xmlns="http://www.w3.org/2000/svg">
<path d="M45 0C53.9002 -1.06133e-07 62.6004 2.6392 70.0007 7.58387C77.4009 12.5285 83.1686 19.5566 86.5746 27.7792C89.9805 36.0019 90.8717 45.0499 89.1353 53.7791C87.399 62.5082 83.1132 70.5264 76.8198 76.8198C70.5264 83.1132 62.5082 87.399 53.7791 89.1353C45.0499 90.8717 36.0019 89.9805 27.7792 86.5746C19.5566 83.1686 12.5285 77.4009 7.58387 70.0007C2.63921 62.6004 0 53.9002 0 45H13.4862C13.4862 51.2328 15.3345 57.3257 18.7973 62.5081C22.26 67.6905 27.1818 71.7297 32.9402 74.1149C38.6986 76.5001 45.035 77.1242 51.148 75.9082C57.2611 74.6923 62.8763 71.6909 67.2836 67.2836C71.6909 62.8763 74.6923 57.2611 75.9082 51.148C77.1242 45.035 76.5001 38.6986 74.1149 32.9402C71.7297 27.1818 67.6905 22.26 62.5081 18.7973C57.3257 15.3345 51.2328 13.4862 45 13.4862V0Z" fill="#00D45F"/>
<path d="M45 0C33.0653 -1.4232e-07 21.6193 4.74106 13.1802 13.1802C4.74106 21.6193 1.04337e-06 33.0653 0 45H13.4862C13.4862 36.642 16.8064 28.6264 22.7164 22.7164C28.6264 16.8064 36.642 13.4862 45 13.4862V0Z" fill="#ED6A50"/>
</svg>
