<svg width="82" height="78" viewBox="0 0 82 78" fill="none" xmlns="http://www.w3.org/2000/svg">
<circle cx="35" cy="43" r="25.5" fill="white" stroke="#EDFAEF" stroke-width="19"/>
<g filter="url(#filter0_d_618_15390)">
<path d="M35 8C39.5963 8 44.1475 8.9053 48.3939 10.6642C52.6403 12.4231 56.4987 15.0012 59.7487 18.2513C62.9988 21.5013 65.5769 25.3597 67.3358 29.6061C69.0947 33.8525 70 38.4037 70 43H51.1C51.1 40.8857 50.6836 38.7921 49.8745 36.8388C49.0654 34.8855 47.8794 33.1106 46.3844 31.6156C44.8894 30.1206 43.1145 28.9346 41.1612 28.1255C39.2079 27.3164 37.1143 26.9 35 26.9V8Z" fill="#00D45F"/>
</g>
<defs>
<filter id="filter0_d_618_15390" x="23" y="0" width="59" height="59" filterUnits="userSpaceOnUse" color-interpolation-filters="sRGB">
<feFlood flood-opacity="0" result="BackgroundImageFix"/>
<feColorMatrix in="SourceAlpha" type="matrix" values="0 0 0 0 0 0 0 0 0 0 0 0 0 0 0 0 0 0 127 0" result="hardAlpha"/>
<feOffset dy="4"/>
<feGaussianBlur stdDeviation="6"/>
<feComposite in2="hardAlpha" operator="out"/>
<feColorMatrix type="matrix" values="0 0 0 0 0 0 0 0 0 0.831373 0 0 0 0 0.372549 0 0 0 0.28 0"/>
<feBlend mode="normal" in2="BackgroundImageFix" result="effect1_dropShadow_618_15390"/>
<feBlend mode="normal" in="SourceGraphic" in2="effect1_dropShadow_618_15390" result="shape"/>
</filter>
</defs>
</svg>
