<svg width="108" height="158" viewBox="0 0 108 158" fill="none" xmlns="http://www.w3.org/2000/svg">
<mask id="path-1-inside-1_618_15015" fill="white">
<path d="M0 6.36312C0 2.84887 2.84886 0 6.36311 0L101.412 0C104.926 0 107.775 2.84886 107.775 6.36311L107.775 151.124C107.775 154.638 104.926 157.487 101.412 157.487H6.3631C2.84886 157.487 0 154.638 0 151.124L0 6.36312Z"/>
</mask>
<path d="M0 6.36312C0 2.84887 2.84886 0 6.36311 0L101.412 0C104.926 0 107.775 2.84886 107.775 6.36311L107.775 151.124C107.775 154.638 104.926 157.487 101.412 157.487H6.3631C2.84886 157.487 0 154.638 0 151.124L0 6.36312Z" fill="white"/>
<path d="M10.1564 18.5449L10.1564 12.2454H11.2107L11.2107 14.8965H14.1942V12.2454H15.2441L15.2441 18.5449H14.1942L14.1942 15.8851H11.2107V18.5449H10.1564ZM17.5292 18.6762C17.188 18.6762 16.8993 18.612 16.6631 18.4837C16.4268 18.3524 16.2475 18.1789 16.125 17.9631C16.0054 17.7473 15.9456 17.5096 15.9456 17.25C15.9456 17.0225 15.9835 16.8184 16.0594 16.6376C16.1352 16.4538 16.2518 16.2964 16.4093 16.1651C16.5668 16.031 16.771 15.9216 17.0218 15.837C17.2113 15.7758 17.433 15.7204 17.6867 15.6708C17.9434 15.6212 18.2204 15.576 18.5179 15.5352C18.8183 15.4914 19.1318 15.4448 19.4584 15.3952L19.0822 15.6095C19.0851 15.2829 19.0122 15.0423 18.8635 14.8877C18.7148 14.7332 18.4639 14.6559 18.1111 14.6559C17.8982 14.6559 17.6926 14.7054 17.4942 14.8046C17.2959 14.9038 17.1574 15.0744 17.0786 15.3164L16.1162 15.0146C16.2329 14.615 16.4545 14.2942 16.7812 14.0522C17.1107 13.8101 17.554 13.6891 18.1111 13.6891C18.531 13.6891 18.9 13.7576 19.2178 13.8947C19.5386 14.0318 19.7763 14.2563 19.9309 14.5684C20.0155 14.7346 20.0665 14.9052 20.084 15.0802C20.1015 15.2523 20.1103 15.4404 20.1103 15.6445V18.5449H19.1872V17.5213L19.3403 17.6875C19.1274 18.0287 18.8781 18.2795 18.5923 18.4399C18.3094 18.5974 17.955 18.6762 17.5292 18.6762ZM17.7392 17.8362C17.9784 17.8362 18.1825 17.7939 18.3517 17.7094C18.5208 17.6248 18.655 17.5213 18.7541 17.3988C18.8562 17.2763 18.9247 17.1611 18.9597 17.0532C19.0151 16.919 19.0458 16.7659 19.0516 16.5938C19.0604 16.4188 19.0647 16.2774 19.0647 16.1695L19.3885 16.2657C19.0706 16.3153 18.7979 16.3591 18.5704 16.397C18.3429 16.4349 18.1475 16.4713 17.9842 16.5063C17.8209 16.5384 17.6765 16.5749 17.5511 16.6157C17.4286 16.6595 17.3251 16.7105 17.2405 16.7688C17.1559 16.8271 17.0903 16.8942 17.0436 16.9701C16.9999 17.0459 16.978 17.1348 16.978 17.2369C16.978 17.3536 17.0072 17.4571 17.0655 17.5475C17.1238 17.635 17.2084 17.705 17.3192 17.7575C17.433 17.81 17.573 17.8362 17.7392 17.8362ZM20.6367 19.5948V17.7181C20.8934 17.7181 21.0756 17.6306 21.1836 17.4556C21.2915 17.2807 21.3775 16.9773 21.4417 16.5457C21.4825 16.2891 21.516 16.0178 21.5423 15.732C21.5685 15.4462 21.5904 15.1444 21.6079 14.8265C21.6283 14.5086 21.6458 14.1732 21.6604 13.8203L25.1776 13.8203V17.7181H25.6544L25.6544 19.5948H24.657V18.5449H21.6298V19.5948H20.6367ZM22.0497 17.7181H24.1277V14.6471L22.5834 14.6471C22.5747 14.8221 22.5645 15.0015 22.5528 15.1852C22.5412 15.366 22.528 15.5468 22.5134 15.7277C22.4989 15.9085 22.4828 16.082 22.4653 16.2482C22.4507 16.4116 22.4332 16.5632 22.4128 16.7032C22.3807 16.9482 22.3414 17.1494 22.2947 17.3069C22.2481 17.4644 22.1664 17.6015 22.0497 17.7181ZM28.4174 18.6762C27.9391 18.6762 27.5191 18.5726 27.1575 18.3656C26.7958 18.1585 26.5129 17.8712 26.3088 17.5038C26.1076 17.1363 26.0069 16.7134 26.0069 16.2351C26.0069 15.7189 26.1061 15.2712 26.3044 14.8921C26.5027 14.51 26.7783 14.214 27.1312 14.004C27.4841 13.7941 27.8924 13.6891 28.3561 13.6891C28.8461 13.6891 29.2617 13.8043 29.6029 14.0347C29.947 14.2622 30.2022 14.5844 30.3685 15.0015C30.5347 15.4185 30.5974 15.9099 30.5566 16.4757H29.511V16.0907C29.5081 15.5775 29.4177 15.2027 29.2398 14.9665C29.0619 14.7302 28.7819 14.6121 28.3999 14.6121C27.9682 14.6121 27.6474 14.7463 27.4374 15.0146C27.2275 15.28 27.1225 15.6693 27.1225 16.1826C27.1225 16.6609 27.2275 17.0313 27.4374 17.2938C27.6474 17.5563 27.9537 17.6875 28.3561 17.6875C28.6157 17.6875 28.8388 17.6306 29.0254 17.5169C29.215 17.4002 29.3608 17.2325 29.4629 17.0138L30.5041 17.3288C30.3232 17.7546 30.0433 18.0856 29.6641 18.3218C29.2879 18.558 28.8723 18.6762 28.4174 18.6762ZM26.79 16.4757V15.6795H30.0404V16.4757H26.79ZM30.5743 18.5449L32.3067 16.1826L30.6793 13.8203H31.8342L33.3697 16.1082V13.8203H34.3059V16.1082L35.8414 13.8203H36.9919L35.3646 16.1826L37.0969 18.5449H35.8808L34.3059 16.257V18.5449H33.3697V16.257L31.7905 18.5449H30.5743ZM37.5267 18.5449V13.8203H38.581V15.6839H40.7027V13.8203H41.757V18.5449H40.7027V16.6726H38.581V18.5449L37.5267 18.5449ZM44.8024 18.6762C44.3299 18.6762 43.9172 18.5697 43.5643 18.3568C43.2115 18.1439 42.9373 17.8508 42.7419 17.4775C42.5494 17.1013 42.4532 16.6697 42.4532 16.1826C42.4532 15.6868 42.5523 15.2523 42.7507 14.879C42.949 14.5057 43.2246 14.214 43.5775 14.004C43.9304 13.7941 44.3387 13.6891 44.8024 13.6891C45.2777 13.6891 45.6919 13.7955 46.0448 14.0084C46.3976 14.2213 46.6718 14.5159 46.8672 14.8921C47.0626 15.2654 47.1603 15.6956 47.1603 16.1826C47.1603 16.6726 47.0611 17.1057 46.8628 17.4819C46.6674 17.8552 46.3933 18.1483 46.0404 18.3612C45.6875 18.5712 45.2748 18.6762 44.8024 18.6762ZM44.8024 17.6875C45.2223 17.6875 45.5344 17.5475 45.7385 17.2675C45.9427 16.9876 46.0448 16.6259 46.0448 16.1826C46.0448 15.7247 45.9412 15.3602 45.7342 15.089C45.5271 14.8148 45.2165 14.6777 44.8024 14.6777C44.5195 14.6777 44.2862 14.7419 44.1024 14.8702C43.9216 14.9956 43.7874 15.1721 43.7 15.3996C43.6125 15.6241 43.5687 15.8851 43.5687 16.1826C43.5687 16.6405 43.6722 17.0065 43.8793 17.2807C44.0893 17.5519 44.397 17.6875 44.8024 17.6875ZM49.9134 18.6762C49.4263 18.6762 49.0107 18.5683 48.6666 18.3524C48.3225 18.1337 48.0585 17.8362 47.8748 17.46C47.694 17.0838 47.6021 16.658 47.5992 16.1826C47.6021 15.6985 47.6969 15.2698 47.8835 14.8965C48.0731 14.5203 48.3414 14.2257 48.6885 14.0128C49.0355 13.797 49.4482 13.6891 49.9265 13.6891C50.4631 13.6891 50.9166 13.8247 51.287 14.0959C51.6603 14.3642 51.9038 14.7317 52.0176 15.1983L50.9677 15.4827C50.886 15.2289 50.7504 15.0321 50.5608 14.8921C50.3713 14.7492 50.1554 14.6777 49.9134 14.6777C49.6392 14.6777 49.4132 14.7434 49.2353 14.8746C49.0574 15.0029 48.9262 15.1808 48.8416 15.4083C48.757 15.6358 48.7147 15.8939 48.7147 16.1826C48.7147 16.6317 48.8153 16.9948 49.0166 17.2719C49.2178 17.549 49.5167 17.6875 49.9134 17.6875C50.1933 17.6875 50.4135 17.6233 50.5739 17.495C50.7373 17.3667 50.8598 17.1815 50.9414 16.9394L52.0176 17.18C51.8718 17.6612 51.6166 18.0316 51.252 18.2912C50.8875 18.5478 50.4412 18.6762 49.9134 18.6762ZM53.7916 18.5449V14.7565H52.2124V13.8203H56.4252V14.7565H54.8459V18.5449H53.7916ZM56.9873 18.5449L56.9829 13.8203H58.0372V15.3952H58.8859C59.0171 15.3952 59.1644 15.3981 59.3277 15.4039C59.494 15.4098 59.6325 15.4229 59.7433 15.4433C60.0087 15.5016 60.2347 15.595 60.4214 15.7233C60.611 15.8516 60.7553 16.0193 60.8545 16.2264C60.9536 16.4334 61.0032 16.6828 61.0032 16.9744C61.0032 17.3915 60.8953 17.7254 60.6795 17.9762C60.4666 18.2241 60.1662 18.3933 59.7783 18.4837C59.6617 18.5099 59.5188 18.5274 59.3496 18.5362C59.1834 18.542 59.0332 18.5449 58.899 18.5449H56.9873ZM58.0372 17.7181H58.9909C59.055 17.7181 59.1265 17.7152 59.2052 17.7094C59.284 17.7035 59.3598 17.6904 59.4327 17.67C59.564 17.635 59.6792 17.5563 59.7783 17.4338C59.8804 17.3084 59.9314 17.1552 59.9314 16.9744C59.9314 16.7849 59.8804 16.6288 59.7783 16.5063C59.6762 16.3839 59.5508 16.3036 59.4021 16.2657C59.335 16.2482 59.265 16.2366 59.1921 16.2307C59.1192 16.2249 59.0521 16.222 58.9909 16.222H58.0372V17.7181Z" fill="#272833"/>
<path d="M17.0919 35.293V31.2842H18.6815C18.9524 31.2842 19.1742 31.339 19.3468 31.4485C19.5213 31.5561 19.6503 31.6944 19.7338 31.8633C19.8191 32.0321 19.8618 32.2066 19.8618 32.3866C19.8618 32.6075 19.8089 32.7949 19.7031 32.949C19.5992 33.103 19.4572 33.2069 19.2772 33.2608V33.1216C19.5296 33.1791 19.7208 33.2988 19.8507 33.4807C19.9825 33.6626 20.0483 33.8695 20.0483 34.1015C20.0483 34.339 20.0029 34.5469 19.9119 34.7251C19.821 34.9032 19.6855 35.0424 19.5055 35.1426C19.3273 35.2429 19.1065 35.293 18.8429 35.293H17.0919ZM17.7712 34.661H18.7594C18.8763 34.661 18.9812 34.6378 19.074 34.5914C19.1668 34.5432 19.2392 34.4764 19.2911 34.391C19.345 34.3038 19.3719 34.2008 19.3719 34.082C19.3719 33.9743 19.3487 33.8778 19.3023 33.7925C19.2559 33.7071 19.1881 33.6394 19.0991 33.5892C19.01 33.5373 18.9033 33.5113 18.7789 33.5113H17.7712V34.661ZM17.7712 32.8849H18.6731C18.7696 32.8849 18.8559 32.8664 18.932 32.8293C19.0081 32.7921 19.0684 32.7374 19.113 32.665C19.1575 32.5926 19.1798 32.5035 19.1798 32.3978C19.1798 32.2586 19.1352 32.1426 19.0462 32.0498C18.9571 31.957 18.8327 31.9106 18.6731 31.9106H17.7712V32.8849ZM20.6016 35.293L20.5988 32.2864H21.2697V33.2886H21.6065C21.69 33.2886 21.7838 33.2904 21.8877 33.2942C21.9935 33.2979 22.0816 33.3062 22.1522 33.3192C22.3211 33.3563 22.4649 33.4157 22.5837 33.4974C22.7043 33.579 22.7962 33.6858 22.8593 33.8175C22.9224 33.9493 22.9539 34.108 22.9539 34.2936C22.9539 34.559 22.8852 34.7715 22.7479 34.9311C22.6106 35.0888 22.4185 35.1965 22.1717 35.254C22.0993 35.2707 22.0093 35.2818 21.9016 35.2874C21.794 35.2911 21.6984 35.293 21.6149 35.293H20.6016ZM21.2697 34.7668H21.6733C21.7142 34.7668 21.7596 34.765 21.8097 34.7613C21.8599 34.7575 21.9072 34.7492 21.9517 34.7362C22.0352 34.7139 22.1095 34.6638 22.1744 34.5859C22.2394 34.5061 22.2719 34.4086 22.2719 34.2936C22.2719 34.1729 22.2394 34.0736 22.1744 33.9957C22.1095 33.9177 22.0297 33.8667 21.935 33.8426C21.8905 33.8314 21.845 33.824 21.7986 33.8203C21.7541 33.8166 21.7123 33.8147 21.6733 33.8147H21.2697V34.7668ZM23.2685 35.293V32.2864H23.9394V35.293H23.2685ZM26.0259 35.3765C25.716 35.3765 25.4515 35.3078 25.2325 35.1705C25.0136 35.0313 24.8456 34.842 24.7287 34.6026C24.6136 34.3632 24.5551 34.0922 24.5533 33.7897C24.5551 33.4816 24.6155 33.2088 24.7342 32.9712C24.8549 32.7318 25.0256 32.5444 25.2465 32.4089C25.4673 32.2716 25.7299 32.2029 26.0343 32.2029C26.3758 32.2029 26.6644 32.2892 26.9001 32.4618C27.1376 32.6325 27.2926 32.8664 27.365 33.1633L26.6969 33.3443C26.6449 33.1828 26.5586 33.0575 26.438 32.9684C26.3173 32.8775 26.18 32.832 26.0259 32.832C25.8515 32.832 25.7077 32.8738 25.5944 32.9573C25.4812 33.039 25.3977 33.1522 25.3439 33.2969C25.2901 33.4417 25.2632 33.6059 25.2632 33.7897C25.2632 34.0755 25.3272 34.3066 25.4553 34.4829C25.5833 34.6592 25.7735 34.7473 26.0259 34.7473C26.2041 34.7473 26.3442 34.7065 26.4463 34.6248C26.5502 34.5432 26.6282 34.4253 26.6802 34.2713L27.365 34.4244C27.2722 34.7306 27.1098 34.9663 26.8778 35.1315C26.6458 35.2948 26.3619 35.3765 26.0259 35.3765ZM29.1692 35.3765C28.8685 35.3765 28.6059 35.3087 28.3814 35.1733C28.1568 35.0378 27.9823 34.8513 27.858 34.6137C27.7355 34.3743 27.6743 34.0996 27.6743 33.7897C27.6743 33.4742 27.7374 33.1977 27.8636 32.9601C27.9898 32.7225 28.1651 32.5369 28.3897 32.4033C28.6143 32.2697 28.8741 32.2029 29.1692 32.2029C29.4717 32.2029 29.7352 32.2706 29.9598 32.4061C30.1844 32.5416 30.3588 32.729 30.4832 32.9684C30.6075 33.206 30.6697 33.4797 30.6697 33.7897C30.6697 34.1015 30.6066 34.3771 30.4804 34.6165C30.356 34.854 30.1816 35.0406 29.957 35.176C29.7325 35.3097 29.4698 35.3765 29.1692 35.3765ZM29.1692 34.7473C29.4364 34.7473 29.635 34.6582 29.7649 34.4801C29.8948 34.3019 29.9598 34.0718 29.9598 33.7897C29.9598 33.4983 29.8939 33.2663 29.7621 33.0937C29.6304 32.9193 29.4327 32.832 29.1692 32.832C28.9892 32.832 28.8407 32.8729 28.7238 32.9545C28.6087 33.0343 28.5233 33.1466 28.4677 33.2914C28.412 33.4343 28.3841 33.6004 28.3841 33.7897C28.3841 34.0811 28.45 34.314 28.5818 34.4884C28.7154 34.661 28.9112 34.7473 29.1692 34.7473ZM31.2775 35.293L31.283 32.2864H31.9623V33.734L33.0619 32.2864H33.8999L32.7334 33.7897L34.0001 35.293H33.112L31.9623 33.8454V35.293H31.2775ZM35.1197 35.3765C34.9025 35.3765 34.7188 35.3357 34.5685 35.254C34.4182 35.1705 34.304 35.0601 34.2261 34.9227C34.15 34.7854 34.1119 34.6341 34.1119 34.4689C34.1119 34.3242 34.1361 34.1943 34.1843 34.0792C34.2326 33.9623 34.3068 33.8621 34.407 33.7785C34.5072 33.6932 34.6372 33.6236 34.7968 33.5698C34.9174 33.5308 35.0584 33.4955 35.2199 33.464C35.3832 33.4324 35.5595 33.4037 35.7488 33.3777C35.94 33.3498 36.1395 33.3201 36.3474 33.2886L36.108 33.425C36.1098 33.2171 36.0634 33.064 35.9688 32.9657C35.8741 32.8673 35.7145 32.8181 35.4899 32.8181C35.3545 32.8181 35.2236 32.8497 35.0974 32.9128C34.9712 32.9759 34.8831 33.0844 34.8329 33.2385L34.2205 33.0464C34.2947 32.7921 34.4358 32.588 34.6436 32.4339C34.8534 32.2799 35.1355 32.2029 35.4899 32.2029C35.7572 32.2029 35.992 32.2465 36.1943 32.3337C36.3984 32.421 36.5497 32.5639 36.648 32.7624C36.7018 32.8682 36.7343 32.9768 36.7455 33.0882C36.7566 33.1977 36.7622 33.3174 36.7622 33.4473V35.293H36.1748V34.6415L36.2722 34.7473C36.1367 34.9645 35.978 35.1241 35.7962 35.2262C35.6161 35.3264 35.3906 35.3765 35.1197 35.3765ZM35.2533 34.842C35.4055 34.842 35.5354 34.8151 35.6431 34.7613C35.7507 34.7074 35.8361 34.6415 35.8992 34.5636C35.9641 34.4856 36.0077 34.4123 36.03 34.3437C36.0653 34.2583 36.0848 34.1609 36.0885 34.0514C36.094 33.94 36.0968 33.85 36.0968 33.7813L36.3028 33.8426C36.1005 33.8741 35.927 33.902 35.7822 33.9261C35.6375 33.9502 35.5131 33.9734 35.4092 33.9957C35.3053 34.0161 35.2134 34.0393 35.1336 34.0653C35.0557 34.0931 34.9898 34.1256 34.936 34.1627C34.8821 34.1998 34.8404 34.2425 34.8107 34.2908C34.7828 34.339 34.7689 34.3956 34.7689 34.4606C34.7689 34.5348 34.7875 34.6007 34.8246 34.6582C34.8617 34.7139 34.9155 34.7585 34.9861 34.7919C35.0584 34.8253 35.1475 34.842 35.2533 34.842ZM39.2853 35.293V34.2908H38.748C38.6793 34.2908 38.593 34.2889 38.4891 34.2852C38.387 34.2815 38.2915 34.2722 38.2024 34.2574C37.9704 34.2147 37.7783 34.1135 37.6261 33.9539C37.4739 33.7925 37.3978 33.5735 37.3978 33.2969C37.3978 33.026 37.4702 32.8079 37.615 32.6427C37.7597 32.4776 37.9481 32.3718 38.1801 32.3254C38.2766 32.305 38.3759 32.2938 38.478 32.292C38.5819 32.2883 38.6682 32.2864 38.7369 32.2864H39.9562V35.293H39.2853ZM37.3199 35.293L38.0381 34.1432H38.7369L38.0242 35.293H37.3199ZM38.6784 33.7646H39.2853V32.8125H38.6784C38.6432 32.8125 38.6005 32.8144 38.5504 32.8181C38.5003 32.8218 38.4501 32.8302 38.4 32.8432C38.3462 32.8599 38.2952 32.8886 38.2469 32.9295C38.1987 32.9703 38.1588 33.0213 38.1272 33.0826C38.0957 33.1438 38.0799 33.2134 38.0799 33.2914C38.0799 33.4083 38.1133 33.5057 38.1801 33.5837C38.2488 33.6598 38.3286 33.7108 38.4195 33.7368C38.4641 33.7479 38.5095 33.7554 38.5559 33.7591C38.6042 33.7628 38.645 33.7646 38.6784 33.7646Z" fill="#00D45F"/>
<rect x="9.74279" y="26.5153" width="37.9193" height="13.5562" rx="2.98271" stroke="#00D45F" stroke-width="0.397694"/>
<path d="M24.4262 74.1629C24.0858 74.1629 23.7693 74.1009 23.4766 73.9768C23.1838 73.8495 22.9309 73.6714 22.7177 73.4423C22.5078 73.21 22.3535 72.9348 22.2548 72.6167L23.0709 72.3828C23.1759 72.701 23.3509 72.9428 23.5959 73.1082C23.8408 73.2737 24.116 73.3548 24.4215 73.3516C24.7014 73.3453 24.9432 73.2816 25.1469 73.1607C25.3537 73.0367 25.5127 72.868 25.6241 72.6549C25.7386 72.4417 25.7959 72.1951 25.7959 71.9152C25.7959 71.4888 25.6686 71.1436 25.4141 70.8796C25.1596 70.6123 24.8255 70.4787 24.4119 70.4787C24.2974 70.4787 24.1765 70.4946 24.0492 70.5264C23.9251 70.5582 23.809 70.6028 23.7008 70.66L23.2904 69.9871L25.8389 67.6821L25.9486 67.9684H22.5269V67.1571H26.5786V67.9732L24.4072 70.0539L24.3976 69.7533C24.8526 69.7215 25.2503 69.7962 25.5907 69.9776C25.9311 70.1589 26.1952 70.4182 26.3829 70.7555C26.5738 71.0927 26.6692 71.4793 26.6692 71.9152C26.6692 72.3542 26.5706 72.7424 26.3734 73.0796C26.1761 73.4168 25.9088 73.6825 25.5716 73.8766C25.2344 74.0675 24.8526 74.1629 24.4262 74.1629ZM29.9431 74.1725C29.4976 74.1725 29.0999 74.0722 28.75 73.8718C28.4032 73.6682 28.128 73.393 27.9244 73.0462C27.7239 72.6962 27.6237 72.2985 27.6237 71.8531V69.3333C27.6237 68.8879 27.7239 68.4902 27.9244 68.1402C28.128 67.7903 28.4032 67.5151 28.75 67.3146C29.0999 67.1142 29.4976 67.014 29.9431 67.014C30.3885 67.014 30.7862 67.1142 31.1361 67.3146C31.4861 67.5151 31.7613 67.7903 31.9618 68.1402C32.1622 68.4902 32.2624 68.8879 32.2624 69.3333V71.8531C32.2624 72.2985 32.1622 72.6962 31.9618 73.0462C31.7613 73.393 31.4861 73.6682 31.1361 73.8718C30.7862 74.0722 30.3885 74.1725 29.9431 74.1725ZM29.9431 73.3564C30.2135 73.3564 30.4585 73.2912 30.678 73.1607C30.8975 73.0303 31.0725 72.8553 31.203 72.6358C31.3334 72.4131 31.3986 72.1681 31.3986 71.9008V69.2808C31.3986 69.0104 31.3334 68.7654 31.203 68.5459C31.0725 68.3264 30.8975 68.1514 30.678 68.0209C30.4585 67.8905 30.2135 67.8253 29.9431 67.8253C29.6758 67.8253 29.4308 67.8905 29.2081 68.0209C28.9886 68.1514 28.8136 68.3264 28.6832 68.5459C28.5527 68.7654 28.4875 69.0104 28.4875 69.2808V71.9008C28.4875 72.1681 28.5527 72.4131 28.6832 72.6358C28.8136 72.8553 28.9886 73.0303 29.2081 73.1607C29.4308 73.2912 29.6758 73.3564 29.9431 73.3564Z" fill="#272833"/>
<path d="M27.4412 88.2886C32.1875 88.2886 36.7395 86.4031 40.0957 83.0469C43.4519 79.6907 45.3374 75.1387 45.3374 70.3923C45.3374 65.646 43.4519 61.094 40.0957 57.7378C36.7395 54.3816 32.1875 52.4961 27.4412 52.4961L27.4412 57.8595C30.7651 57.8595 33.9529 59.1799 36.3032 61.5303C38.6536 63.8806 39.974 67.0684 39.974 70.3923C39.974 73.7163 38.6536 76.904 36.3032 79.2544C33.9529 81.6048 30.7651 82.9252 27.4412 82.9252L27.4412 88.2886Z" fill="#00D45F"/>
<path d="M9.54492 70.3923C9.54492 72.7425 10.0078 75.0697 10.9072 77.2409C11.8066 79.4122 13.1248 81.3851 14.7866 83.0469C16.4484 84.7087 18.4213 86.0269 20.5926 86.9263C22.7638 87.8257 25.091 88.2886 27.4412 88.2886L27.4412 82.9252C25.7953 82.9252 24.1656 82.601 22.6451 81.9712C21.1245 81.3413 19.7429 80.4182 18.5791 79.2544C17.4153 78.0906 16.4922 76.709 15.8623 75.1884C15.2325 73.6679 14.9083 72.0382 14.9083 70.3923H9.54492Z" fill="#F8D557"/>
<path d="M27.4412 52.4961C22.6948 52.4961 18.1428 54.3816 14.7866 57.7378C11.4304 61.094 9.54492 65.646 9.54492 70.3923H14.9083C14.9083 67.0684 16.2287 63.8806 18.5791 61.5303C20.9295 59.1799 24.1172 57.8595 27.4412 57.8595V52.4961Z" fill="#ED6A50"/>
<path d="M10.0172 105.832L10.0172 100.964H11.8967C12.1694 100.964 12.4071 101.021 12.61 101.133C12.8128 101.246 12.9705 101.398 13.0832 101.59C13.1959 101.779 13.2522 101.989 13.2522 102.218C13.2522 102.48 13.1824 102.713 13.0427 102.918C12.9029 103.121 12.7159 103.262 12.4815 103.341L12.4748 103.175C12.7903 103.265 13.0382 103.423 13.2184 103.648C13.3987 103.874 13.4889 104.146 13.4889 104.466C13.4889 104.748 13.4292 104.991 13.3097 105.197C13.1903 105.399 13.0224 105.556 12.806 105.666C12.5897 105.777 12.3384 105.832 12.0522 105.832H10.0172ZM10.5175 105.355H11.9305C12.1288 105.355 12.3069 105.32 12.4646 105.251C12.6224 105.178 12.7463 105.077 12.8365 104.946C12.9289 104.816 12.9751 104.658 12.9751 104.473C12.9751 104.293 12.9334 104.131 12.85 103.986C12.7666 103.842 12.6528 103.727 12.5086 103.642C12.3666 103.554 12.2043 103.51 12.0218 103.51H10.5175L10.5175 105.355ZM10.5175 103.04H11.8933C12.0488 103.04 12.1908 103.005 12.3193 102.935C12.4477 102.863 12.5491 102.765 12.6235 102.641C12.7001 102.517 12.7384 102.374 12.7384 102.212C12.7384 101.982 12.6584 101.795 12.4984 101.65C12.3407 101.506 12.139 101.434 11.8933 101.434H10.5175V103.04ZM14.1669 105.832L14.1601 102.181H14.6604V103.557H15.2959C15.4018 103.557 15.5055 103.559 15.6069 103.564C15.7083 103.568 15.7996 103.577 15.8807 103.591C16.061 103.627 16.221 103.688 16.3607 103.773C16.5005 103.859 16.6109 103.977 16.692 104.128C16.7731 104.277 16.8137 104.465 16.8137 104.693C16.8137 105.006 16.7326 105.253 16.5703 105.433C16.4081 105.613 16.2041 105.731 15.9585 105.785C15.8661 105.805 15.7658 105.819 15.6576 105.825C15.5494 105.83 15.4435 105.832 15.3399 105.832H14.1669ZM14.6604 105.406H15.3196C15.3939 105.406 15.4785 105.404 15.5731 105.399C15.6678 105.395 15.7511 105.382 15.8233 105.362C15.9449 105.328 16.0542 105.261 16.1512 105.159C16.2503 105.056 16.2999 104.9 16.2999 104.693C16.2999 104.488 16.2526 104.333 16.1579 104.23C16.0633 104.124 15.9371 104.054 15.7793 104.02C15.7072 104.004 15.6306 103.994 15.5494 103.99C15.4706 103.985 15.3939 103.983 15.3196 103.983H14.6604V105.406ZM17.2498 105.832V102.181H17.7467V105.832H17.2498ZM20.9812 105.832V104.456H20.1294C20.0302 104.456 19.9277 104.453 19.8217 104.446C19.7181 104.437 19.6212 104.425 19.531 104.409C19.2741 104.359 19.0555 104.247 18.8752 104.071C18.6972 103.893 18.6082 103.647 18.6082 103.334C18.6082 103.027 18.6916 102.782 18.8583 102.597C19.0251 102.41 19.2268 102.288 19.4634 102.232C19.5716 102.207 19.6809 102.192 19.7913 102.188C19.904 102.183 20.0009 102.181 20.082 102.181H21.4781L21.4815 105.832H20.9812ZM18.4899 105.832L19.5074 104.301H20.0584L19.0341 105.832H18.4899ZM20.1023 104.03H20.9812V102.607H20.1023C20.0482 102.607 19.9727 102.609 19.8758 102.614C19.7789 102.618 19.6877 102.633 19.602 102.658C19.5276 102.68 19.4533 102.72 19.3789 102.776C19.3068 102.83 19.2459 102.903 19.1964 102.996C19.1468 103.086 19.122 103.196 19.122 103.327C19.122 103.51 19.1716 103.656 19.2707 103.767C19.3721 103.875 19.4983 103.949 19.6493 103.99C19.7305 104.008 19.8116 104.019 19.8927 104.024C19.9739 104.028 20.0437 104.03 20.1023 104.03ZM22.4262 105.832L22.4262 102.181H23.9305C24.0071 102.181 24.0995 102.186 24.2077 102.195C24.3181 102.204 24.4207 102.221 24.5153 102.245C24.7204 102.3 24.8849 102.41 25.0089 102.577C25.1351 102.743 25.1982 102.944 25.1982 103.178C25.1982 103.309 25.1779 103.426 25.1373 103.53C25.099 103.631 25.0438 103.719 24.9717 103.794C24.9379 103.832 24.9007 103.866 24.8601 103.895C24.8196 103.922 24.7801 103.945 24.7418 103.963C24.8139 103.976 24.8917 104.008 24.9751 104.057C25.1058 104.134 25.2049 104.238 25.2725 104.368C25.3401 104.497 25.3739 104.653 25.3739 104.838C25.3739 105.088 25.3142 105.292 25.1948 105.45C25.0753 105.608 24.9153 105.716 24.7148 105.775C24.6246 105.799 24.5266 105.815 24.4207 105.822C24.317 105.829 24.219 105.832 24.1266 105.832H22.4262ZM22.9265 105.409H24.1029C24.1502 105.409 24.21 105.406 24.2821 105.399C24.3542 105.39 24.4184 105.379 24.4748 105.366C24.6077 105.332 24.7046 105.264 24.7655 105.163C24.8286 105.059 24.8601 104.946 24.8601 104.825C24.8601 104.665 24.8128 104.534 24.7181 104.433C24.6257 104.329 24.5018 104.266 24.3463 104.243C24.2945 104.232 24.2404 104.225 24.184 104.223C24.1277 104.221 24.077 104.22 24.0319 104.22H22.9265V105.409ZM22.9265 103.794H23.9474C24.006 103.794 24.0714 103.79 24.1435 103.784C24.2178 103.774 24.2821 103.76 24.3362 103.74C24.4533 103.699 24.539 103.629 24.5931 103.53C24.6494 103.431 24.6776 103.323 24.6776 103.205C24.6776 103.077 24.6472 102.964 24.5863 102.867C24.5277 102.771 24.4387 102.703 24.3193 102.665C24.2381 102.635 24.1502 102.618 24.0556 102.614C23.9632 102.609 23.9046 102.607 23.8798 102.607H22.9265V103.794ZM25.7097 105.832V105.396C25.8449 105.421 25.9474 105.415 26.0173 105.379C26.0894 105.341 26.1423 105.278 26.1762 105.19C26.21 105.1 26.2381 104.988 26.2607 104.855C26.2967 104.634 26.3294 104.391 26.3587 104.125C26.388 103.859 26.4139 103.566 26.4364 103.246C26.4612 102.924 26.486 102.569 26.5108 102.181H28.992V105.832H28.4985V102.658H26.9705C26.9548 102.897 26.9367 103.134 26.9165 103.371C26.8962 103.608 26.8748 103.835 26.8522 104.054C26.832 104.27 26.8094 104.47 26.7846 104.652C26.7598 104.835 26.7339 104.993 26.7069 105.126C26.6663 105.326 26.6122 105.486 26.5446 105.606C26.4793 105.725 26.3812 105.804 26.2505 105.842C26.1198 105.88 25.9395 105.877 25.7097 105.832ZM31.4813 105.933C31.1253 105.933 30.8165 105.855 30.5551 105.697C30.2959 105.539 30.0942 105.317 29.95 105.031C29.8058 104.745 29.7337 104.409 29.7337 104.024C29.7337 103.625 29.8046 103.28 29.9466 102.989C30.0886 102.698 30.288 102.474 30.545 102.316C30.8041 102.159 31.1095 102.08 31.461 102.08C31.8216 102.08 32.1292 102.163 32.3839 102.33C32.6385 102.494 32.8312 102.731 32.9619 103.04C33.0926 103.349 33.1524 103.717 33.1411 104.145H32.634V103.969C32.625 103.496 32.5225 103.139 32.3264 102.898C32.1326 102.657 31.8487 102.536 31.4746 102.536C31.0824 102.536 30.7816 102.663 30.572 102.918C30.3647 103.173 30.261 103.536 30.261 104.007C30.261 104.466 30.3647 104.824 30.572 105.078C30.7816 105.331 31.0779 105.457 31.461 105.457C31.7225 105.457 31.9501 105.397 32.1439 105.278C32.3399 105.156 32.4943 104.981 32.607 104.754L33.0701 104.933C32.9259 105.251 32.7129 105.497 32.4312 105.673C32.1518 105.847 31.8351 105.933 31.4813 105.933ZM30.0852 104.145V103.729H32.874V104.145H30.0852ZM33.8879 105.832V102.181H34.3848V103.767H36.4435V102.181H36.9404V105.832H36.4435V104.243H34.3848V105.832H33.8879ZM39.4103 105.933C39.0474 105.933 38.7376 105.851 38.4807 105.687C38.2237 105.522 38.0266 105.295 37.8891 105.004C37.7516 104.713 37.6829 104.38 37.6829 104.003C37.6829 103.62 37.7527 103.284 37.8925 102.996C38.0322 102.707 38.2305 102.483 38.4874 102.323C38.7466 102.161 39.0542 102.08 39.4103 102.08C39.7753 102.08 40.0863 102.162 40.3433 102.327C40.6024 102.489 40.7996 102.715 40.9348 103.006C41.0723 103.294 41.141 103.627 41.141 104.003C41.141 104.386 41.0723 104.723 40.9348 105.014C40.7974 105.302 40.599 105.528 40.3399 105.69C40.0807 105.852 39.7708 105.933 39.4103 105.933ZM39.4103 105.457C39.8159 105.457 40.1179 105.323 40.3162 105.055C40.5145 104.784 40.6137 104.434 40.6137 104.003C40.6137 103.562 40.5134 103.21 40.3128 102.949C40.1145 102.687 39.8137 102.556 39.4103 102.556C39.1376 102.556 38.9122 102.618 38.7342 102.742C38.5584 102.864 38.4266 103.034 38.3387 103.253C38.253 103.469 38.2102 103.719 38.2102 104.003C38.2102 104.443 38.3116 104.795 38.5145 105.061C38.7173 105.325 39.0159 105.457 39.4103 105.457ZM44.5484 105.93C44.3073 105.93 44.0853 105.887 43.8825 105.802C43.6797 105.716 43.505 105.594 43.3585 105.437C43.212 105.277 43.105 105.086 43.0374 104.865L43.5106 104.723C43.5918 104.964 43.7247 105.147 43.9095 105.271C44.0966 105.395 44.3073 105.455 44.5417 105.45C44.758 105.446 44.9439 105.397 45.0994 105.305C45.2572 105.212 45.3777 105.084 45.4611 104.919C45.5445 104.755 45.5862 104.564 45.5862 104.348C45.5862 104.017 45.4893 103.751 45.2955 103.55C45.1039 103.347 44.8504 103.246 44.5349 103.246C44.447 103.246 44.3546 103.258 44.2577 103.283C44.1608 103.306 44.0707 103.338 43.9873 103.381L43.7371 102.986L45.6302 101.238L45.7113 101.441H43.2301V100.964H46.0426V101.448L44.3929 103.023L44.3862 102.827C44.7242 102.784 45.0217 102.822 45.2786 102.942C45.5355 103.061 45.7361 103.244 45.8803 103.489C46.0268 103.733 46.1 104.019 46.1 104.348C46.1 104.659 46.0324 104.934 45.8972 105.173C45.7642 105.409 45.5806 105.595 45.3462 105.731C45.1118 105.864 44.8459 105.93 44.5484 105.93ZM48.5659 105.933C48.2662 105.933 47.9958 105.864 47.7546 105.724C47.5157 105.584 47.3264 105.395 47.1867 105.156C47.047 104.915 46.9771 104.644 46.9771 104.345V102.452C46.9771 102.152 47.047 101.883 47.1867 101.644C47.3264 101.403 47.5157 101.212 47.7546 101.072C47.9958 100.933 48.2662 100.863 48.5659 100.863C48.8657 100.863 49.135 100.933 49.3738 101.072C49.615 101.212 49.8054 101.403 49.9451 101.644C50.0849 101.883 50.1547 102.152 50.1547 102.452V104.345C50.1547 104.644 50.0849 104.915 49.9451 105.156C49.8054 105.395 49.615 105.584 49.3738 105.724C49.135 105.864 48.8657 105.933 48.5659 105.933ZM48.5659 105.453C48.7665 105.453 48.949 105.405 49.1135 105.308C49.2781 105.209 49.4088 105.077 49.5057 104.913C49.6026 104.748 49.651 104.567 49.651 104.368V102.428C49.651 102.227 49.6026 102.045 49.5057 101.88C49.4088 101.716 49.2781 101.585 49.1135 101.488C48.949 101.389 48.7665 101.339 48.5659 101.339C48.3654 101.339 48.1828 101.389 48.0183 101.488C47.8538 101.585 47.7231 101.716 47.6262 101.88C47.5293 102.045 47.4808 102.227 47.4808 102.428V104.368C47.4808 104.567 47.5293 104.748 47.6262 104.913C47.7231 105.077 47.8538 105.209 48.0183 105.308C48.1828 105.405 48.3654 105.453 48.5659 105.453ZM54.1879 107.353V105.903C53.8318 105.959 53.5073 105.921 53.2143 105.788C52.9213 105.653 52.6881 105.434 52.5146 105.132C52.341 104.83 52.2543 104.456 52.2543 104.01C52.2543 103.564 52.341 103.19 52.5146 102.888C52.6881 102.583 52.9213 102.364 53.2143 102.229C53.5073 102.093 53.8318 102.054 54.1879 102.11V100.991H54.6476V102.11C55.0037 102.054 55.3282 102.093 55.6211 102.229C55.9141 102.364 56.1474 102.583 56.3209 102.888C56.4944 103.19 56.5812 103.564 56.5812 104.01C56.5812 104.456 56.4944 104.83 56.3209 105.132C56.1474 105.434 55.9141 105.653 55.6211 105.788C55.3282 105.921 55.0037 105.959 54.6476 105.903V107.353H54.1879ZM54.1879 105.44V102.577C54.0053 102.545 53.8295 102.551 53.6605 102.594C53.4915 102.634 53.3394 102.714 53.2042 102.834C53.0689 102.951 52.9619 103.107 52.883 103.303C52.8064 103.497 52.7681 103.733 52.7681 104.01C52.7681 104.287 52.8075 104.524 52.8864 104.72C52.9653 104.914 53.0723 105.069 53.2075 105.186C53.3428 105.304 53.4949 105.382 53.6639 105.423C53.8329 105.464 54.0076 105.469 54.1879 105.44ZM54.6476 105.44C54.8279 105.469 55.0025 105.464 55.1715 105.423C55.3406 105.382 55.4927 105.305 55.6279 105.19C55.7631 105.073 55.8702 104.917 55.949 104.723C56.0279 104.527 56.0674 104.289 56.0674 104.01C56.0674 103.731 56.0279 103.494 55.949 103.3C55.8724 103.104 55.7665 102.947 55.6313 102.83C55.4961 102.713 55.3439 102.634 55.1749 102.594C55.0059 102.551 54.8301 102.545 54.6476 102.577V105.44ZM58.3676 105.933C58.0926 105.933 57.8616 105.884 57.6746 105.785C57.4898 105.686 57.3512 105.554 57.2588 105.389C57.1664 105.225 57.1202 105.046 57.1202 104.852C57.1202 104.653 57.1596 104.484 57.2385 104.345C57.3196 104.203 57.4289 104.087 57.5664 103.996C57.7061 103.906 57.8673 103.838 58.0498 103.79C58.2346 103.745 58.4385 103.706 58.6617 103.672C58.887 103.636 59.1067 103.605 59.3208 103.581C59.5372 103.554 59.7265 103.528 59.8887 103.503L59.713 103.611C59.7197 103.251 59.6499 102.983 59.5034 102.81C59.3569 102.636 59.1022 102.55 58.7394 102.55C58.4893 102.55 58.2774 102.606 58.1039 102.719C57.9326 102.831 57.812 103.009 57.7422 103.253L57.2588 103.111C57.3422 102.784 57.5101 102.531 57.7625 102.35C58.0149 102.17 58.3428 102.08 58.7462 102.08C59.0797 102.08 59.3625 102.143 59.5946 102.269C59.829 102.393 59.9947 102.573 60.0916 102.81C60.1366 102.916 60.1659 103.034 60.1795 103.165C60.193 103.296 60.1997 103.429 60.1997 103.564V105.832H59.7569V104.916L59.8854 104.97C59.7614 105.283 59.5687 105.522 59.3073 105.687C59.0459 105.851 58.7326 105.933 58.3676 105.933ZM58.425 105.504C58.6571 105.504 58.86 105.462 59.0335 105.379C59.207 105.296 59.3467 105.182 59.4527 105.038C59.5586 104.891 59.6273 104.727 59.6589 104.544C59.6859 104.427 59.7006 104.298 59.7028 104.159C59.7051 104.017 59.7062 103.911 59.7062 103.841L59.8955 103.939C59.7265 103.962 59.5428 103.984 59.3445 104.007C59.1484 104.029 58.9546 104.055 58.7631 104.084C58.5738 104.114 58.4025 104.149 58.2492 104.189C58.1456 104.218 58.0453 104.26 57.9484 104.314C57.8515 104.366 57.7715 104.436 57.7084 104.524C57.6475 104.612 57.6171 104.721 57.6171 104.852C57.6171 104.958 57.643 105.06 57.6949 105.159C57.7489 105.258 57.8346 105.341 57.9518 105.406C58.0712 105.471 58.229 105.504 58.425 105.504ZM61.0764 105.832L61.0797 102.181H61.58V103.939L63.2094 102.181H63.872L62.1615 104.007L64.0951 105.832H63.3717L61.58 104.074V105.832H61.0764ZM65.4242 105.832V102.641H64.1295V102.181H67.2158V102.641H65.9211V105.832H65.4242ZM69.3189 105.933C68.9561 105.933 68.6462 105.851 68.3893 105.687C68.1324 105.522 67.9352 105.295 67.7977 105.004C67.6602 104.713 67.5915 104.38 67.5915 104.003C67.5915 103.62 67.6614 103.284 67.8011 102.996C67.9408 102.707 68.1391 102.483 68.396 102.323C68.6552 102.161 68.9628 102.08 69.3189 102.08C69.684 102.08 69.995 102.162 70.2519 102.327C70.5111 102.489 70.7082 102.715 70.8435 103.006C70.9809 103.294 71.0497 103.627 71.0497 104.003C71.0497 104.386 70.9809 104.723 70.8435 105.014C70.706 105.302 70.5077 105.528 70.2485 105.69C69.9893 105.852 69.6795 105.933 69.3189 105.933ZM69.3189 105.457C69.7245 105.457 70.0265 105.323 70.2248 105.055C70.4232 104.784 70.5223 104.434 70.5223 104.003C70.5223 103.562 70.422 103.21 70.2215 102.949C70.0231 102.687 69.7223 102.556 69.3189 102.556C69.0462 102.556 68.8209 102.618 68.6428 102.742C68.467 102.864 68.3352 103.034 68.2473 103.253C68.1617 103.469 68.1189 103.719 68.1189 104.003C68.1189 104.443 68.2203 104.795 68.4231 105.061C68.6259 105.325 68.9245 105.457 69.3189 105.457ZM71.792 105.832V102.181H73.2963C73.3729 102.181 73.4653 102.186 73.5734 102.195C73.6839 102.204 73.7864 102.221 73.8811 102.245C74.0861 102.3 74.2507 102.41 74.3746 102.577C74.5008 102.743 74.5639 102.944 74.5639 103.178C74.5639 103.309 74.5436 103.426 74.5031 103.53C74.4647 103.631 74.4095 103.719 74.3374 103.794C74.3036 103.832 74.2664 103.866 74.2259 103.895C74.1853 103.922 74.1459 103.945 74.1076 103.963C74.1797 103.976 74.2574 104.008 74.3408 104.057C74.4715 104.134 74.5707 104.238 74.6383 104.368C74.7059 104.497 74.7397 104.653 74.7397 104.838C74.7397 105.088 74.68 105.292 74.5605 105.45C74.4411 105.608 74.2811 105.716 74.0805 105.775C73.9904 105.799 73.8923 105.815 73.7864 105.822C73.6827 105.829 73.5847 105.832 73.4923 105.832H71.792ZM72.2923 105.409H73.4687C73.516 105.409 73.5757 105.406 73.6478 105.399C73.7199 105.39 73.7842 105.379 73.8405 105.366C73.9735 105.332 74.0704 105.264 74.1312 105.163C74.1943 105.059 74.2259 104.946 74.2259 104.825C74.2259 104.665 74.1785 104.534 74.0839 104.433C73.9915 104.329 73.8675 104.266 73.712 104.243C73.6602 104.232 73.6061 104.225 73.5498 104.223C73.4934 104.221 73.4427 104.22 73.3977 104.22H72.2923V105.409ZM72.2923 103.794H73.3132C73.3718 103.794 73.4371 103.79 73.5092 103.784C73.5836 103.774 73.6478 103.76 73.7019 103.74C73.8191 103.699 73.9047 103.629 73.9588 103.53C74.0152 103.431 74.0433 103.323 74.0433 103.205C74.0433 103.077 74.0129 102.964 73.9521 102.867C73.8935 102.771 73.8044 102.703 73.685 102.665C73.6039 102.635 73.516 102.618 73.4213 102.614C73.3289 102.609 73.2703 102.607 73.2455 102.607H72.2923V103.794Z" fill="#737373"/>
<circle cx="11.9301" cy="117.013" r="2.38617" fill="#00D45F"/>
<path d="M19.5343 119.014V114.432H23.0435V119.014H22.5759V114.881H20.002V119.014H19.5343ZM25.3687 119.109C25.0272 119.109 24.7355 119.032 24.4937 118.877C24.2519 118.722 24.0663 118.508 23.937 118.234C23.8076 117.961 23.7429 117.647 23.7429 117.292C23.7429 116.932 23.8086 116.616 23.9401 116.344C24.0716 116.073 24.2583 115.862 24.5001 115.711C24.744 115.559 25.0335 115.482 25.3687 115.482C25.7123 115.482 26.005 115.56 26.2468 115.714C26.4907 115.867 26.6763 116.08 26.8035 116.354C26.9329 116.625 26.9976 116.938 26.9976 117.292C26.9976 117.653 26.9329 117.97 26.8035 118.244C26.6742 118.515 26.4875 118.727 26.2436 118.88C25.9997 119.033 25.708 119.109 25.3687 119.109ZM25.3687 118.661C25.7504 118.661 26.0347 118.534 26.2213 118.282C26.408 118.027 26.5013 117.698 26.5013 117.292C26.5013 116.877 26.4069 116.546 26.2181 116.3C26.0315 116.054 25.7483 115.931 25.3687 115.931C25.112 115.931 24.8999 115.989 24.7323 116.106C24.5669 116.22 24.4428 116.38 24.3601 116.586C24.2795 116.79 24.2392 117.025 24.2392 117.292C24.2392 117.706 24.3347 118.038 24.5255 118.288C24.7164 118.536 24.9975 118.661 25.3687 118.661ZM27.3813 119.014V118.603C27.5086 118.627 27.6051 118.621 27.6708 118.587C27.7387 118.551 27.7885 118.492 27.8203 118.409C27.8522 118.324 27.8787 118.219 27.8999 118.094C27.9338 117.886 27.9646 117.657 27.9921 117.407C28.0197 117.157 28.0441 116.881 28.0653 116.58C28.0887 116.276 28.112 115.942 28.1353 115.578H30.4706V119.014H30.0061V116.026H28.568C28.5532 116.251 28.5362 116.475 28.5171 116.698C28.498 116.92 28.4779 117.134 28.4567 117.34C28.4376 117.544 28.4164 117.732 28.393 117.903C28.3697 118.075 28.3453 118.224 28.3198 118.349C28.2817 118.537 28.2308 118.688 28.1671 118.801C28.1056 118.913 28.0134 118.987 27.8903 119.023C27.7673 119.059 27.5976 119.056 27.3813 119.014ZM32.7944 119.109C32.4529 119.109 32.1612 119.032 31.9194 118.877C31.6776 118.722 31.492 118.508 31.3627 118.234C31.2333 117.961 31.1686 117.647 31.1686 117.292C31.1686 116.932 31.2343 116.616 31.3658 116.344C31.4973 116.073 31.684 115.862 31.9258 115.711C32.1697 115.559 32.4592 115.482 32.7944 115.482C33.138 115.482 33.4307 115.56 33.6725 115.714C33.9164 115.867 34.102 116.08 34.2292 116.354C34.3586 116.625 34.4233 116.938 34.4233 117.292C34.4233 117.653 34.3586 117.97 34.2292 118.244C34.0999 118.515 33.9132 118.727 33.6693 118.88C33.4254 119.033 33.1337 119.109 32.7944 119.109ZM32.7944 118.661C33.1761 118.661 33.4604 118.534 33.647 118.282C33.8337 118.027 33.927 117.698 33.927 117.292C33.927 116.877 33.8326 116.546 33.6438 116.3C33.4572 116.054 33.174 115.931 32.7944 115.931C32.5377 115.931 32.3256 115.989 32.158 116.106C31.9926 116.22 31.8685 116.38 31.7858 116.586C31.7052 116.79 31.6649 117.025 31.6649 117.292C31.6649 117.706 31.7604 118.038 31.9512 118.288C32.1421 118.536 32.4232 118.661 32.7944 118.661ZM34.6812 119.014L36.132 117.296L34.7417 115.578H35.2698L36.6251 117.273V115.578H37.0578V117.273L38.4132 115.578H38.9381L37.5478 117.296L38.9986 119.014H38.4545L37.0578 117.318V119.014H36.6251V117.318L35.2253 119.014H34.6812ZM42.2358 115.578V119.014H41.7808V116.338L39.8973 119.014H39.5028V115.578H39.9578V118.231L41.8444 115.578H42.2358ZM44.0609 119.014V116.01H42.8424V115.578H45.7472V116.01H44.5286V119.014H44.0609ZM47.8078 119.109C47.4726 119.109 47.1821 119.035 46.936 118.886C46.6921 118.738 46.5023 118.529 46.3665 118.26C46.2308 117.99 46.1629 117.674 46.1629 117.312C46.1629 116.936 46.2297 116.612 46.3633 116.338C46.497 116.064 46.6847 115.853 46.9265 115.705C47.1704 115.556 47.4578 115.482 47.7887 115.482C48.128 115.482 48.4176 115.561 48.6572 115.718C48.8969 115.872 49.0783 116.095 49.2013 116.386C49.3243 116.676 49.3805 117.023 49.3699 117.426H48.8927V117.261C48.8842 116.815 48.7877 116.479 48.6032 116.252C48.4207 116.025 48.1535 115.912 47.8014 115.912C47.4323 115.912 47.1492 116.031 46.9519 116.271C46.7568 116.511 46.6592 116.852 46.6592 117.296C46.6592 117.728 46.7568 118.065 46.9519 118.304C47.1492 118.542 47.4281 118.661 47.7887 118.661C48.0347 118.661 48.2489 118.604 48.4313 118.492C48.6159 118.377 48.7612 118.213 48.8672 117.999L49.3031 118.167C49.1673 118.466 48.9669 118.699 48.7018 118.864C48.4388 119.027 48.1408 119.109 47.8078 119.109ZM46.4938 117.426V117.035H49.1186V117.426H46.4938ZM49.7578 119.014V118.603C49.8851 118.627 49.9816 118.621 50.0473 118.587C50.1152 118.551 50.165 118.492 50.1969 118.409C50.2287 118.324 50.2552 118.219 50.2764 118.094C50.3103 117.886 50.3411 117.657 50.3687 117.407C50.3962 117.157 50.4206 116.881 50.4418 116.58C50.4652 116.276 50.4885 115.942 50.5118 115.578H52.8471V119.014H52.3826V116.026H50.9445C50.9297 116.251 50.9127 116.475 50.8936 116.698C50.8745 116.92 50.8544 117.134 50.8332 117.34C50.8141 117.544 50.7929 117.732 50.7695 117.903C50.7462 118.075 50.7218 118.224 50.6964 118.349C50.6582 118.537 50.6073 118.688 50.5436 118.801C50.4821 118.913 50.3899 118.987 50.2669 119.023C50.1438 119.059 49.9742 119.056 49.7578 119.014ZM53.7392 119.014L53.7328 115.578H54.2037V116.872H55.0086C55.1083 116.872 55.2059 116.875 55.3013 116.879C55.3989 116.883 55.4848 116.892 55.559 116.904C55.7287 116.936 55.8793 116.992 56.0108 117.073C56.1444 117.154 56.2484 117.265 56.3226 117.407C56.399 117.549 56.4371 117.727 56.4371 117.941C56.4371 118.236 56.3608 118.469 56.2081 118.638C56.0575 118.808 55.8666 118.918 55.6354 118.969C55.5484 118.988 55.454 119.001 55.3522 119.007C55.2504 119.012 55.1497 119.014 55.05 119.014H53.7392ZM54.2037 118.613H55.0309C55.103 118.613 55.1836 118.611 55.2727 118.606C55.3618 118.602 55.4402 118.591 55.5081 118.571C55.6205 118.54 55.7223 118.476 55.8135 118.381C55.9069 118.283 55.9535 118.137 55.9535 117.941C55.9535 117.748 55.909 117.603 55.8199 117.506C55.7308 117.406 55.612 117.34 55.4636 117.308C55.3978 117.294 55.3268 117.284 55.2504 117.28C55.1741 117.275 55.1009 117.273 55.0309 117.273H54.2037V118.613ZM57.0386 119.014V115.578H57.5063V117.07H59.4439V115.578H59.9116V119.014H59.4439V117.518H57.5063V119.014H57.0386ZM60.8045 119.014L60.7981 115.578H61.269V116.872H61.8671C61.9668 116.872 62.0644 116.875 62.1598 116.879C62.2552 116.883 62.3412 116.892 62.4175 116.904C62.5872 116.938 62.7378 116.996 62.8693 117.076C63.0008 117.157 63.1047 117.268 63.1811 117.41C63.2574 117.55 63.2956 117.727 63.2956 117.941C63.2956 118.236 63.2193 118.469 63.0665 118.638C62.9138 118.808 62.7219 118.918 62.4907 118.969C62.4037 118.988 62.3093 119.001 62.2075 119.007C62.1057 119.012 62.006 119.014 61.9085 119.014H60.8045ZM61.269 118.613L61.8894 118.613C61.9594 118.613 62.0389 118.611 62.128 118.606C62.2171 118.602 62.2955 118.591 62.3634 118.571C62.478 118.54 62.5808 118.476 62.672 118.381C62.7654 118.283 62.812 118.137 62.812 117.941C62.812 117.748 62.7675 117.603 62.6784 117.506C62.5893 117.406 62.4705 117.34 62.3221 117.308C62.2542 117.294 62.1821 117.284 62.1057 117.28C62.0315 117.275 61.9594 117.273 61.8894 117.273H61.269V118.613ZM63.706 119.014V115.578H64.1737V119.014H63.706ZM66.518 119.109C66.1829 119.109 65.8923 119.035 65.6463 118.886C65.4024 118.738 65.2125 118.529 65.0768 118.26C64.941 117.99 64.8732 117.674 64.8732 117.312C64.8732 116.936 64.94 116.612 65.0736 116.338C65.2072 116.064 65.3949 115.853 65.6367 115.705C65.8807 115.556 66.1681 115.482 66.4989 115.482C66.8383 115.482 67.1278 115.561 67.3675 115.718C67.6072 115.872 67.7885 116.095 67.9116 116.386C68.0346 116.676 68.0908 117.023 68.0802 117.426H67.6029V117.261C67.5945 116.815 67.498 116.479 67.3134 116.252C67.131 116.025 66.8638 115.912 66.5117 115.912C66.1426 115.912 65.8595 116.031 65.6622 116.271C65.4671 116.511 65.3695 116.852 65.3695 117.296C65.3695 117.728 65.4671 118.065 65.6622 118.304C65.8595 118.542 66.1384 118.661 66.4989 118.661C66.745 118.661 66.9592 118.604 67.1416 118.492C67.3261 118.377 67.4714 118.213 67.5775 117.999L68.0134 118.167C67.8776 118.466 67.6772 118.699 67.412 118.864C67.149 119.027 66.851 119.109 66.518 119.109ZM65.2041 117.426V117.035H67.8288V117.426H65.2041ZM69.0408 118.505V117.961H69.5848V118.505H69.0408ZM69.0439 116.631V116.087H69.588V116.631H69.0439ZM72.757 119.014V115.269L71.8979 115.794V114.948L72.757 114.432H73.5396V119.014H72.757ZM76.1102 119.109C75.8769 119.109 75.6594 119.061 75.458 118.966C75.2565 118.868 75.0825 118.735 74.9362 118.565C74.7919 118.395 74.688 118.198 74.6244 117.973L75.3625 117.776C75.3922 117.899 75.4463 118.005 75.5248 118.094C75.6054 118.183 75.6987 118.252 75.8047 118.301C75.9129 118.35 76.0243 118.374 76.1388 118.374C76.2873 118.374 76.423 118.338 76.546 118.266C76.6691 118.194 76.7666 118.097 76.8387 117.976C76.9109 117.853 76.9469 117.718 76.9469 117.569C76.9469 117.421 76.9098 117.286 76.8356 117.165C76.7634 117.042 76.6659 116.946 76.5429 116.876C76.4198 116.804 76.2852 116.767 76.1388 116.767C75.9628 116.767 75.8164 116.799 75.6997 116.863C75.5852 116.927 75.4972 116.994 75.4357 117.067L74.7803 116.857L74.9203 114.432H77.4082V115.151H75.3307L75.617 114.881L75.5152 116.567L75.3752 116.395C75.494 116.287 75.6319 116.206 75.7888 116.153C75.9458 116.1 76.0974 116.074 76.2438 116.074C76.5301 116.074 76.7836 116.14 77.0042 116.271C77.2269 116.401 77.4008 116.578 77.526 116.802C77.6532 117.027 77.7169 117.283 77.7169 117.569C77.7169 117.856 77.6426 118.115 77.4941 118.349C77.3457 118.58 77.1495 118.764 76.9056 118.902C76.6638 119.04 76.3986 119.109 76.1102 119.109Z" fill="#272833"/>
<circle cx="11.9301" cy="130.195" r="2.38617" fill="#F8D557"/>
<path d="M19.5343 132.195V127.614H20.002V129.679H22.5345V127.614H22.999V132.195H22.5345V130.127H20.002V132.195H19.5343ZM25.3443 132.291C25.0091 132.291 24.7185 132.217 24.4725 132.068C24.2286 131.92 24.0388 131.711 23.903 131.441C23.7673 131.172 23.6994 130.856 23.6994 130.493C23.6994 130.118 23.7662 129.793 23.8998 129.52C24.0334 129.246 24.2212 129.035 24.463 128.886C24.7069 128.738 24.9943 128.664 25.3252 128.664C25.6645 128.664 25.954 128.742 26.1937 128.899C26.4334 129.054 26.6148 129.277 26.7378 129.567C26.8608 129.858 26.917 130.205 26.9064 130.608H26.4292V130.442C26.4207 129.997 26.3242 129.661 26.1396 129.434C25.9572 129.207 25.69 129.093 25.3379 129.093C24.9688 129.093 24.6857 129.213 24.4884 129.453C24.2933 129.692 24.1957 130.034 24.1957 130.477C24.1957 130.91 24.2933 131.246 24.4884 131.486C24.6857 131.723 24.9646 131.842 25.3252 131.842C25.5712 131.842 25.7854 131.786 25.9678 131.674C26.1524 131.559 26.2977 131.395 26.4037 131.18L26.8396 131.349C26.7038 131.648 26.5034 131.88 26.2383 132.046C25.9753 132.209 25.6773 132.291 25.3443 132.291ZM24.0303 130.608V130.216H26.6551V130.608H24.0303ZM29.0378 128.352C28.8872 128.352 28.7493 128.315 28.6242 128.241C28.499 128.166 28.3994 128.068 28.3251 127.945C28.253 127.82 28.2169 127.682 28.2169 127.531H28.6051C28.6051 127.65 28.6475 127.752 28.7324 127.837C28.8172 127.921 28.919 127.964 29.0378 127.964C29.1587 127.964 29.2605 127.921 29.3432 127.837C29.4281 127.752 29.4705 127.65 29.4705 127.531H29.8586C29.8586 127.682 29.8215 127.82 29.7473 127.945C29.6752 128.068 29.5765 128.166 29.4514 128.241C29.3262 128.315 29.1884 128.352 29.0378 128.352ZM30.3422 128.759V132.195H29.8873V129.52L28.0038 132.195H27.6093L27.6093 128.759H28.0642V131.413L29.9509 128.759H30.3422ZM32.1674 132.195V129.192H30.9489V128.759H33.8536V129.192H32.6351V132.195H32.1674ZM36.0033 132.291C35.6873 132.291 35.42 132.211 35.2015 132.052C34.9831 131.891 34.8176 131.674 34.7052 131.4C34.5928 131.124 34.5366 130.816 34.5366 130.474C34.5366 130.126 34.5928 129.817 34.7052 129.545C34.8198 129.271 34.9873 129.056 35.2079 128.899C35.4285 128.742 35.7 128.664 36.0224 128.664C36.3363 128.664 36.6057 128.743 36.8305 128.902C37.0553 129.061 37.2271 129.278 37.3459 129.551C37.4668 129.825 37.5273 130.133 37.5273 130.474C37.5273 130.818 37.4668 131.126 37.3459 131.4C37.225 131.674 37.0511 131.891 36.8241 132.052C36.5972 132.211 36.3236 132.291 36.0033 132.291ZM34.4571 133.722V128.759H34.877V131.346H34.9279V133.722H34.4571ZM35.9556 131.855C36.1953 131.855 36.3946 131.794 36.5537 131.674C36.7128 131.553 36.8316 131.388 36.91 131.18C36.9906 130.97 37.0309 130.735 37.0309 130.474C37.0309 130.215 36.9917 129.982 36.9132 129.774C36.8347 129.566 36.7149 129.402 36.5537 129.281C36.3946 129.16 36.1921 129.1 35.946 129.1C35.7064 129.1 35.507 129.158 35.3479 129.275C35.1909 129.391 35.0732 129.554 34.9947 129.761C34.9163 129.967 34.877 130.205 34.877 130.474C34.877 130.739 34.9163 130.977 34.9947 131.187C35.0732 131.395 35.192 131.558 35.3511 131.677C35.5102 131.795 35.7117 131.855 35.9556 131.855ZM39.209 132.291C38.9502 132.291 38.7328 132.244 38.5568 132.151C38.3829 132.057 38.2524 131.933 38.1655 131.779C38.0785 131.624 38.035 131.455 38.035 131.273C38.035 131.086 38.0721 130.927 38.1464 130.795C38.2227 130.662 38.3256 130.553 38.455 130.468C38.5865 130.383 38.7381 130.318 38.91 130.274C39.0839 130.231 39.2758 130.194 39.4858 130.162C39.6979 130.128 39.9047 130.1 40.1062 130.076C40.3098 130.051 40.488 130.027 40.6407 130.003L40.4753 130.105C40.4816 129.766 40.4159 129.514 40.278 129.351C40.1402 129.188 39.9005 129.106 39.559 129.106C39.3236 129.106 39.1242 129.159 38.9609 129.265C38.7997 129.371 38.6862 129.539 38.6204 129.768L38.1655 129.634C38.2439 129.327 38.402 129.088 38.6395 128.918C38.8771 128.749 39.1857 128.664 39.5654 128.664C39.8793 128.664 40.1455 128.723 40.3639 128.842C40.5845 128.959 40.7404 129.128 40.8316 129.351C40.874 129.451 40.9016 129.562 40.9143 129.685C40.9271 129.808 40.9334 129.933 40.9334 130.06V132.195H40.5166V131.333L40.6375 131.384C40.5209 131.679 40.3395 131.904 40.0935 132.059C39.8474 132.213 39.5526 132.291 39.209 132.291ZM39.2631 131.887C39.4816 131.887 39.6725 131.847 39.8358 131.769C39.9991 131.691 40.1306 131.583 40.2303 131.448C40.33 131.31 40.3947 131.155 40.4244 130.983C40.4498 130.873 40.4636 130.752 40.4657 130.62C40.4679 130.487 40.4689 130.387 40.4689 130.321L40.6471 130.414C40.488 130.435 40.3151 130.456 40.1285 130.477C39.944 130.498 39.7615 130.523 39.5813 130.55C39.4031 130.578 39.2419 130.611 39.0977 130.649C39.0001 130.677 38.9057 130.716 38.8145 130.767C38.7233 130.816 38.648 130.881 38.5886 130.964C38.5313 131.047 38.5027 131.15 38.5027 131.273C38.5027 131.372 38.5271 131.469 38.5759 131.562C38.6268 131.656 38.7074 131.733 38.8177 131.794C38.9301 131.856 39.0786 131.887 39.2631 131.887ZM41.4435 132.195V131.785C41.5708 131.808 41.6673 131.803 41.733 131.769C41.8009 131.733 41.8507 131.674 41.8826 131.591C41.9144 131.506 41.9409 131.401 41.9621 131.276C41.996 131.068 42.0268 130.839 42.0544 130.589C42.0819 130.338 42.1063 130.063 42.1275 129.761C42.1509 129.458 42.1742 129.124 42.1975 128.759H44.5328V132.195H44.0683V129.208H42.6302C42.6154 129.433 42.5984 129.656 42.5793 129.879C42.5602 130.102 42.5401 130.316 42.5189 130.522C42.4998 130.725 42.4786 130.913 42.4552 131.085C42.4319 131.257 42.4075 131.405 42.3821 131.53C42.3439 131.719 42.293 131.87 42.2294 131.982C42.1678 132.095 42.0756 132.169 41.9526 132.205C41.8295 132.241 41.6599 132.238 41.4435 132.195ZM45.4249 132.195L45.4185 128.759H45.8894V130.054H46.6943C46.794 130.054 46.8916 130.056 46.987 130.06C47.0846 130.065 47.1705 130.073 47.2447 130.086C47.4144 130.118 47.565 130.174 47.6965 130.255C47.8301 130.335 47.9341 130.447 48.0083 130.589C48.0847 130.731 48.1228 130.909 48.1228 131.123C48.1228 131.418 48.0465 131.65 47.8938 131.82C47.7432 131.99 47.5523 132.1 47.3211 132.151C47.2341 132.17 47.1397 132.183 47.0379 132.189C46.9361 132.193 46.8354 132.195 46.7357 132.195H45.4249ZM45.8894 131.794H46.7166C46.7887 131.794 46.8693 131.792 46.9584 131.788C47.0475 131.784 47.1259 131.772 47.1938 131.753C47.3062 131.721 47.408 131.658 47.4993 131.562C47.5926 131.465 47.6392 131.318 47.6392 131.123C47.6392 130.93 47.5947 130.785 47.5056 130.687C47.4165 130.588 47.2978 130.522 47.1493 130.49C47.0835 130.475 47.0125 130.466 46.9361 130.461C46.8598 130.457 46.7866 130.455 46.7166 130.455H45.8894V131.794ZM48.7243 132.195V128.759H49.192V130.251H51.1296V128.759H51.5973V132.195H51.1296V130.7H49.192V132.195H48.7243ZM52.4902 132.195L52.4838 128.759H52.9547V130.054H53.5528C53.6525 130.054 53.7501 130.056 53.8455 130.06C53.941 130.065 54.0269 130.073 54.1032 130.086C54.2729 130.12 54.4235 130.177 54.555 130.258C54.6865 130.338 54.7904 130.45 54.8668 130.592C54.9431 130.732 54.9813 130.909 54.9813 131.123C54.9813 131.418 54.905 131.65 54.7522 131.82C54.5995 131.99 54.4076 132.1 54.1764 132.151C54.0894 132.17 53.995 132.183 53.8932 132.189C53.7914 132.193 53.6917 132.195 53.5942 132.195H52.4902ZM52.9547 131.794H53.5751C53.6451 131.794 53.7246 131.792 53.8137 131.788C53.9028 131.784 53.9813 131.772 54.0491 131.753C54.1637 131.721 54.2665 131.658 54.3577 131.562C54.4511 131.465 54.4977 131.318 54.4977 131.123C54.4977 130.93 54.4532 130.785 54.3641 130.687C54.275 130.588 54.1562 130.522 54.0078 130.49C53.9399 130.475 53.8678 130.466 53.7914 130.461C53.7172 130.457 53.6451 130.455 53.5751 130.455H52.9547V131.794ZM55.3917 132.195V128.759H55.8594V132.195H55.3917ZM58.2037 132.291C57.8686 132.291 57.578 132.217 57.332 132.068C57.0881 131.92 56.8982 131.711 56.7625 131.441C56.6267 131.172 56.5589 130.856 56.5589 130.493C56.5589 130.118 56.6257 129.793 56.7593 129.52C56.8929 129.246 57.0807 129.035 57.3224 128.886C57.5664 128.738 57.8538 128.664 58.1847 128.664C58.524 128.664 58.8135 128.742 59.0532 128.899C59.2929 129.054 59.4742 129.277 59.5973 129.567C59.7203 129.858 59.7765 130.205 59.7659 130.608H59.2886V130.442C59.2802 129.997 59.1837 129.661 58.9991 129.434C58.8167 129.207 58.5495 129.093 58.1974 129.093C57.8283 129.093 57.5452 129.213 57.3479 129.453C57.1528 129.692 57.0552 130.034 57.0552 130.477C57.0552 130.91 57.1528 131.246 57.3479 131.486C57.5452 131.723 57.8241 131.842 58.1847 131.842C58.4307 131.842 58.6449 131.786 58.8273 131.674C59.0119 131.559 59.1571 131.395 59.2632 131.18L59.6991 131.349C59.5633 131.648 59.3629 131.88 59.0978 132.046C58.8347 132.209 58.5367 132.291 58.2037 132.291ZM56.8898 130.608V130.216H59.5145V130.608H56.8898ZM60.7265 131.686V131.142H61.2705V131.686H60.7265ZM60.7296 129.812V129.268H61.2737V129.812H60.7296ZM65.1458 132.291C64.8425 132.291 64.5731 132.229 64.3377 132.106C64.1022 131.983 63.9177 131.812 63.7841 131.594C63.6505 131.376 63.5836 131.125 63.5836 130.843C63.5836 130.591 63.642 130.356 63.7586 130.14C63.8753 129.924 64.046 129.751 64.2709 129.621L64.255 129.866C64.0789 129.733 63.9421 129.579 63.8445 129.405C63.7491 129.229 63.7014 129.032 63.7014 128.813C63.7014 128.55 63.7629 128.322 63.8859 128.129C64.011 127.936 64.1818 127.787 64.3981 127.681C64.6145 127.573 64.8637 127.518 65.1458 127.518C65.4279 127.518 65.6771 127.573 65.8935 127.681C66.1119 127.787 66.2827 127.936 66.4057 128.129C66.5308 128.322 66.5934 128.55 66.5934 128.813C66.5934 129.032 66.5467 129.228 66.4534 129.402C66.3622 129.576 66.2233 129.733 66.0366 129.873L66.0334 129.625C66.254 129.75 66.4227 129.922 66.5393 130.14C66.6581 130.356 66.7175 130.591 66.7175 130.843C66.7175 131.125 66.6496 131.376 66.5139 131.594C66.3802 131.812 66.1946 131.983 65.9571 132.106C65.7216 132.229 65.4512 132.291 65.1458 132.291ZM65.1458 131.569C65.3706 131.569 65.553 131.507 65.693 131.384C65.8351 131.261 65.9062 131.081 65.9062 130.843C65.9062 130.606 65.8362 130.425 65.6962 130.302C65.5562 130.177 65.3727 130.115 65.1458 130.115C64.921 130.115 64.7396 130.177 64.6017 130.302C64.4639 130.425 64.3949 130.606 64.3949 130.843C64.3949 131.081 64.4639 131.261 64.6017 131.384C64.7396 131.507 64.921 131.569 65.1458 131.569ZM65.1458 129.386C65.3346 129.386 65.4873 129.339 65.6039 129.246C65.7227 129.151 65.7821 129.006 65.7821 128.813C65.7821 128.62 65.7227 128.477 65.6039 128.384C65.4873 128.288 65.3346 128.241 65.1458 128.241C64.9591 128.241 64.8064 128.288 64.6876 128.384C64.571 128.477 64.5127 128.62 64.5127 128.813C64.5127 129.006 64.571 129.151 64.6876 129.246C64.8064 129.339 64.9591 129.386 65.1458 129.386Z" fill="#272833"/>
<circle cx="11.9301" cy="143.376" r="2.38617" fill="#ED6A50"/>
<path d="M21.3891 145.472C20.9331 145.472 20.5481 145.372 20.2342 145.17C19.9203 144.967 19.6828 144.685 19.5216 144.327C19.3604 143.969 19.2798 143.555 19.2798 143.086C19.2798 142.617 19.3604 142.204 19.5216 141.845C19.6828 141.487 19.9203 141.207 20.2342 141.005C20.5481 140.802 20.9331 140.7 21.3891 140.7C21.8473 140.7 22.2322 140.802 22.544 141.005C22.8579 141.207 23.0955 141.487 23.2567 141.845C23.42 142.204 23.5017 142.617 23.5017 143.086C23.5017 143.555 23.42 143.969 23.2567 144.327C23.0955 144.685 22.8579 144.967 22.544 145.17C22.2322 145.372 21.8473 145.472 21.3891 145.472ZM21.3891 145.024C21.7476 145.024 22.0467 144.942 22.2863 144.779C22.526 144.616 22.7052 144.389 22.824 144.098C22.9449 143.805 23.0054 143.468 23.0054 143.086C23.0054 142.704 22.9449 142.368 22.824 142.078C22.7052 141.787 22.526 141.56 22.2863 141.397C22.0467 141.234 21.7476 141.151 21.3891 141.149C21.0307 141.149 20.7327 141.23 20.4951 141.394C20.2576 141.557 20.0783 141.785 19.9574 142.078C19.8387 142.368 19.7782 142.704 19.7761 143.086C19.774 143.468 19.8323 143.804 19.9511 144.095C20.072 144.383 20.2523 144.61 20.4919 144.776C20.7316 144.939 21.0307 145.022 21.3891 145.024ZM25.071 145.377V142.374H23.8525V141.941H26.7573V142.374H25.5387V145.377H25.071ZM28.9069 145.472C28.5909 145.472 28.3237 145.393 28.1052 145.234C27.8867 145.073 27.7213 144.855 27.6089 144.582C27.4965 144.306 27.4402 143.997 27.4402 143.656C27.4402 143.308 27.4965 142.998 27.6089 142.727C27.7234 142.453 27.891 142.238 28.1116 142.081C28.3321 141.924 28.6036 141.845 28.926 141.845C29.2399 141.845 29.5093 141.925 29.7341 142.084C29.959 142.243 30.1308 142.459 30.2496 142.733C30.3705 143.007 30.4309 143.314 30.4309 143.656C30.4309 143.999 30.3705 144.308 30.2496 144.582C30.1287 144.855 29.9547 145.073 29.7278 145.234C29.5008 145.393 29.2272 145.472 28.9069 145.472ZM27.3607 146.904L27.3607 141.941H27.7807V144.527H27.8316V146.904H27.3607ZM28.8592 145.037C29.0989 145.037 29.2983 144.976 29.4574 144.855C29.6164 144.734 29.7352 144.57 29.8137 144.362C29.8943 144.152 29.9346 143.917 29.9346 143.656C29.9346 143.397 29.8953 143.164 29.8169 142.956C29.7384 142.748 29.6186 142.584 29.4574 142.463C29.2983 142.342 29.0957 142.281 28.8497 142.281C28.61 142.281 28.4106 142.34 28.2515 142.456C28.0946 142.573 27.9769 142.735 27.8984 142.943C27.8199 143.149 27.7807 143.386 27.7807 143.656C27.7807 143.921 27.8199 144.158 27.8984 144.368C27.9769 144.576 28.0956 144.74 28.2547 144.858C28.4138 144.977 28.6153 145.037 28.8592 145.037ZM33.8593 141.941V145.377H33.4044V142.701L31.5209 145.377H31.1264L31.1264 141.941H31.5813V144.594L33.468 141.941H33.8593ZM37.7048 145.972V145.377H34.7491V141.941H35.2168V144.928H37.0144V141.941H37.4821V144.944H38.1725V145.972H37.7048ZM39.6626 145.472C39.4039 145.472 39.1865 145.426 39.0104 145.332C38.8365 145.239 38.706 145.115 38.6191 144.96C38.5321 144.805 38.4886 144.637 38.4886 144.454C38.4886 144.268 38.5258 144.109 38.6 143.977C38.6764 143.843 38.7792 143.734 38.9086 143.649C39.0401 143.565 39.1918 143.5 39.3636 143.455C39.5375 143.413 39.7294 143.376 39.9394 143.344C40.1515 143.31 40.3583 143.281 40.5598 143.258C40.7635 143.233 40.9416 143.208 41.0943 143.185L40.9289 143.287C40.9353 142.947 40.8695 142.696 40.7316 142.533C40.5938 142.369 40.3541 142.288 40.0126 142.288C39.7772 142.288 39.5778 142.341 39.4145 142.447C39.2533 142.553 39.1398 142.72 39.074 142.949L38.6191 142.816C38.6976 142.508 38.8556 142.27 39.0931 142.1C39.3307 141.93 39.6393 141.845 40.019 141.845C40.3329 141.845 40.5991 141.905 40.8175 142.024C41.0381 142.14 41.194 142.31 41.2852 142.533C41.3276 142.632 41.3552 142.744 41.3679 142.867C41.3807 142.99 41.387 143.115 41.387 143.242V145.377H40.9703V144.515L41.0912 144.566C40.9745 144.86 40.7931 145.085 40.5471 145.24C40.3011 145.395 40.0062 145.472 39.6626 145.472ZM39.7167 145.068C39.9352 145.068 40.1261 145.029 40.2894 144.951C40.4527 144.872 40.5842 144.765 40.6839 144.629C40.7836 144.491 40.8483 144.337 40.878 144.165C40.9034 144.054 40.9172 143.934 40.9193 143.802C40.9215 143.668 40.9225 143.569 40.9225 143.503L41.1007 143.595C40.9416 143.616 40.7688 143.638 40.5821 143.659C40.3976 143.68 40.2152 143.705 40.0349 143.732C39.8567 143.76 39.6955 143.793 39.5513 143.831C39.4537 143.858 39.3593 143.898 39.2681 143.948C39.1769 143.997 39.1016 144.063 39.0422 144.146C38.985 144.228 38.9563 144.331 38.9563 144.454C38.9563 144.554 38.9807 144.65 39.0295 144.744C39.0804 144.837 39.161 144.915 39.2713 144.976C39.3837 145.038 39.5322 145.068 39.7167 145.068ZM43.1475 145.377V142.374H41.9289V141.941H44.8337V142.374H43.6152V145.377H43.1475ZM46.8943 145.472C46.5592 145.472 46.2686 145.398 46.0226 145.25C45.7786 145.101 45.5888 144.892 45.4531 144.623C45.3173 144.354 45.2494 144.038 45.2494 143.675C45.2494 143.299 45.3163 142.975 45.4499 142.701C45.5835 142.428 45.7712 142.217 46.013 142.068C46.2569 141.92 46.5443 141.845 46.8752 141.845C47.2146 141.845 47.5041 141.924 47.7438 142.081C47.9835 142.236 48.1648 142.458 48.2878 142.749C48.4108 143.04 48.4671 143.386 48.4564 143.789H47.9792V143.624C47.9707 143.178 47.8742 142.842 47.6897 142.615C47.5073 142.388 47.24 142.275 46.8879 142.275C46.5189 142.275 46.2357 142.395 46.0385 142.634C45.8433 142.874 45.7458 143.216 45.7458 143.659C45.7458 144.092 45.8433 144.428 46.0385 144.667C46.2357 144.905 46.5146 145.024 46.8752 145.024C47.1213 145.024 47.3355 144.968 47.5179 144.855C47.7024 144.741 47.8477 144.576 47.9538 144.362L48.3896 144.531C48.2539 144.83 48.0535 145.062 47.7883 145.227C47.5253 145.391 47.2273 145.472 46.8943 145.472ZM45.5803 143.789V143.398H48.2051V143.789H45.5803ZM48.8444 145.377V144.967C48.9716 144.99 49.0681 144.985 49.1339 144.951C49.2017 144.915 49.2516 144.855 49.2834 144.772C49.3152 144.688 49.3417 144.583 49.3629 144.457C49.3969 144.25 49.4276 144.021 49.4552 143.77C49.4828 143.52 49.5072 143.244 49.5284 142.943C49.5517 142.64 49.575 142.306 49.5984 141.941H51.9336V145.377H51.4691V142.389H50.0311C50.0162 142.614 49.9993 142.838 49.9802 143.061C49.9611 143.283 49.9409 143.498 49.9197 143.703C49.9006 143.907 49.8794 144.095 49.8561 144.267C49.8328 144.438 49.8084 144.587 49.7829 144.712C49.7447 144.901 49.6938 145.051 49.6302 145.164C49.5687 145.276 49.4764 145.35 49.3534 145.386C49.2304 145.423 49.0607 145.419 48.8444 145.377ZM52.8257 145.377L52.8194 141.941H53.2902V143.236H54.0952C54.1948 143.236 54.2924 143.238 54.3879 143.242C54.4854 143.246 54.5713 143.255 54.6456 143.268C54.8153 143.299 54.9658 143.356 55.0973 143.436C55.231 143.517 55.3349 143.628 55.4091 143.77C55.4855 143.912 55.5237 144.091 55.5237 144.305C55.5237 144.6 55.4473 144.832 55.2946 145.002C55.144 145.171 54.9531 145.282 54.7219 145.332C54.635 145.352 54.5406 145.364 54.4388 145.371C54.337 145.375 54.2362 145.377 54.1365 145.377H52.8257ZM53.2902 144.976H54.1174C54.1895 144.976 54.2701 144.974 54.3592 144.97C54.4483 144.965 54.5268 144.954 54.5947 144.935C54.7071 144.903 54.8089 144.839 54.9001 144.744C54.9934 144.646 55.0401 144.5 55.0401 144.305C55.0401 144.112 54.9955 143.966 54.9065 143.869C54.8174 143.769 54.6986 143.703 54.5501 143.672C54.4844 143.657 54.4133 143.647 54.337 143.643C54.2606 143.639 54.1874 143.637 54.1174 143.637H53.2902V144.976ZM56.1252 145.377V141.941H56.5929V143.433H58.5304V141.941H58.9981V145.377H58.5304V143.882H56.5929V145.377H56.1252ZM59.891 145.377L59.8846 141.941H60.3555V143.236H60.9536C61.0533 143.236 61.1509 143.238 61.2463 143.242C61.3418 143.246 61.4277 143.255 61.5041 143.268C61.6737 143.302 61.8243 143.359 61.9558 143.439C62.0873 143.52 62.1913 143.631 62.2676 143.773C62.344 143.913 62.3822 144.091 62.3822 144.305C62.3822 144.6 62.3058 144.832 62.1531 145.002C62.0004 145.171 61.8084 145.282 61.5772 145.332C61.4903 145.352 61.3959 145.364 61.2941 145.371C61.1923 145.375 61.0926 145.377 60.995 145.377H59.891ZM60.3555 144.976H60.9759C61.0459 144.976 61.1254 144.974 61.2145 144.97C61.3036 144.965 61.3821 144.954 61.45 144.935C61.5645 144.903 61.6674 144.839 61.7586 144.744C61.8519 144.646 61.8986 144.5 61.8986 144.305C61.8986 144.112 61.854 143.966 61.7649 143.869C61.6759 143.769 61.5571 143.703 61.4086 143.672C61.3407 143.657 61.2686 143.647 61.1923 143.643C61.118 143.639 61.0459 143.637 60.9759 143.637H60.3555V144.976ZM62.7926 145.377V141.941H63.2603V145.377H62.7926ZM65.6046 145.472C65.2695 145.472 64.9789 145.398 64.7328 145.25C64.4889 145.101 64.2991 144.892 64.1633 144.623C64.0276 144.354 63.9597 144.038 63.9597 143.675C63.9597 143.299 64.0265 142.975 64.1602 142.701C64.2938 142.428 64.4815 142.217 64.7233 142.068C64.9672 141.92 65.2546 141.845 65.5855 141.845C65.9249 141.845 66.2144 141.924 66.4541 142.081C66.6937 142.236 66.8751 142.458 66.9981 142.749C67.1211 143.04 67.1773 143.386 67.1667 143.789H66.6895V143.624C66.681 143.178 66.5845 142.842 66.4 142.615C66.2176 142.388 65.9503 142.275 65.5982 142.275C65.2292 142.275 64.946 142.395 64.7487 142.634C64.5536 142.874 64.456 143.216 64.456 143.659C64.456 144.092 64.5536 144.428 64.7487 144.667C64.946 144.905 65.2249 145.024 65.5855 145.024C65.8315 145.024 66.0458 144.968 66.2282 144.855C66.4127 144.741 66.558 144.576 66.664 144.362L67.0999 144.531C66.9642 144.83 66.7637 145.062 66.4986 145.227C66.2356 145.391 65.9376 145.472 65.6046 145.472ZM64.2906 143.789V143.398H66.9154V143.789H64.2906ZM68.1273 144.868V144.324H68.6713V144.868H68.1273ZM68.1305 142.994V142.45H68.6745V142.994H68.1305ZM71.2804 145.377L72.8584 141.521H70.8572V140.796H73.6793V141.521L72.1076 145.377H71.2804Z" fill="#272833"/>
<path d="M0 0L107.775 0L0 0ZM108.968 151.126C108.968 155.299 105.585 158.682 101.412 158.682H7.55839C3.38401 158.682 0 155.298 0 151.124C0 153.978 2.84886 156.292 6.36311 156.292H101.412C104.267 156.292 106.582 153.978 106.582 151.124L108.968 151.126ZM0 157.487L0 0L0 157.487ZM101.412 0C105.585 0 108.968 3.38302 108.968 7.55619L108.968 151.126C108.968 155.299 105.585 158.682 101.412 158.682V156.292C104.267 156.292 106.582 153.978 106.582 151.124L106.582 6.36311C106.582 2.84886 104.267 0 101.412 0Z" fill="#F0F0F0" mask="url(#path-1-inside-1_618_15015)"/>
</svg>
