<svg width="254" height="80" viewBox="0 0 254 80" fill="none" xmlns="http://www.w3.org/2000/svg">
<g filter="url(#filter0_d_618_15010)">
<path d="M3 3.58104C3 1.60328 4.60329 0 6.58105 0L71.5337 0C73.5114 0 75.1147 1.60329 75.1147 3.58105V19.7431C75.1147 21.7209 73.5114 23.3242 71.5337 23.3242H6.58105C4.60329 23.3242 3 21.7209 3 19.7431L3 3.58104Z" fill="white" shape-rendering="crispEdges"/>
<path d="M14.0066 15.283C13.4292 15.283 12.939 15.1554 12.5361 14.9002C12.1333 14.6451 11.8258 14.2906 11.6136 13.8367C11.4041 13.3828 11.2993 12.8577 11.2993 12.2615C11.2993 11.6652 11.4041 11.1401 11.6136 10.6862C11.8258 10.2323 12.1333 9.87783 12.5361 9.62268C12.939 9.36753 13.4292 9.23995 14.0066 9.23995C14.5867 9.23995 15.0782 9.36753 15.4811 9.62268C15.884 9.87783 16.1902 10.2323 16.3996 10.6862C16.6091 11.1401 16.7139 11.6652 16.7139 12.2615C16.7139 12.8577 16.6091 13.3828 16.3996 13.8367C16.1902 14.2906 15.884 14.6451 15.4811 14.9002C15.0782 15.1554 14.5867 15.283 14.0066 15.283ZM14.0066 14.5981C14.439 14.6008 14.7989 14.5041 15.0863 14.308C15.3764 14.1093 15.5926 13.834 15.7349 13.4822C15.8799 13.1303 15.9525 12.7234 15.9525 12.2615C15.9525 11.7968 15.8799 11.3899 15.7349 11.0408C15.5926 10.6916 15.3764 10.419 15.0863 10.2229C14.7989 10.0269 14.439 9.92751 14.0066 9.92483C13.5742 9.92214 13.2143 10.0188 12.9269 10.2149C12.6422 10.411 12.4274 10.6849 12.2823 11.0367C12.1373 11.3886 12.0634 11.7968 12.0608 12.2615C12.0581 12.7234 12.1292 13.129 12.2743 13.4781C12.4193 13.8273 12.6355 14.1012 12.9229 14.3C13.213 14.496 13.5742 14.5954 14.0066 14.5981ZM19.1305 15.287C18.7195 15.2843 18.369 15.1957 18.079 15.0211C17.7889 14.8438 17.5633 14.5847 17.4022 14.2436C17.241 13.9025 17.151 13.4848 17.1322 12.9907C17.1215 12.7624 17.1242 12.5112 17.1403 12.2373C17.1591 11.9633 17.1886 11.7001 17.2289 11.4477C17.2719 11.1952 17.3256 10.9871 17.3901 10.8232C17.4626 10.6272 17.5646 10.4459 17.6962 10.2794C17.8305 10.1101 17.9809 9.97049 18.1475 9.86037C18.3167 9.74488 18.506 9.65491 18.7155 9.59045C18.925 9.52599 19.1439 9.4763 19.3722 9.44139C19.6032 9.40378 19.8341 9.37156 20.0651 9.3447C20.2961 9.31515 20.5163 9.28024 20.7258 9.23995L20.7983 9.88454C20.6506 9.91677 20.476 9.94497 20.2746 9.96914C20.0732 9.99063 19.8637 10.0161 19.6461 10.0457C19.4313 10.0752 19.2245 10.1169 19.0257 10.1706C18.8297 10.2216 18.6604 10.2928 18.5181 10.3841C18.3086 10.5103 18.1475 10.6997 18.0347 10.9521C17.9245 11.2019 17.8574 11.4826 17.8332 11.7941C17.9997 11.5363 18.2159 11.347 18.4818 11.2261C18.7477 11.1052 19.0311 11.0448 19.3319 11.0448C19.7213 11.0448 20.0571 11.1361 20.3391 11.3187C20.6211 11.4987 20.8373 11.7471 20.9877 12.0641C21.1408 12.381 21.2173 12.7422 21.2173 13.1478C21.2173 13.5775 21.1314 13.9535 20.9595 14.2758C20.7876 14.5981 20.5445 14.8479 20.2303 15.0251C19.9187 15.2024 19.5521 15.2897 19.1305 15.287ZM19.1748 14.6062C19.5964 14.6062 19.9161 14.4759 20.1336 14.2154C20.3511 13.9522 20.4599 13.603 20.4599 13.1679C20.4599 12.7221 20.3471 12.3716 20.1215 12.1164C19.8959 11.8586 19.579 11.7297 19.1707 11.7297C18.7571 11.7297 18.4402 11.8586 18.22 12.1164C18.0024 12.3716 17.8937 12.7221 17.8937 13.1679C17.8937 13.6164 18.0038 13.9683 18.224 14.2234C18.4442 14.4786 18.7612 14.6062 19.1748 14.6062ZM26.8121 15.9678V15.1621H21.9414V10.8111H22.6343V14.5095H24.133V10.8111H24.8259V14.5095H26.3206V10.8111H27.0135V14.5095H27.5292V15.9678H26.8121ZM31.5775 10.8111V15.1621H30.8846V11.9553L28.6043 15.1621H28.0121V10.8111H28.7051V13.9736L30.9893 10.8111H31.5775ZM34.4301 15.283C34.003 15.283 33.6297 15.189 33.3101 15.001C32.9932 14.8103 32.7461 14.5457 32.5688 14.2073C32.3915 13.8662 32.3029 13.4687 32.3029 13.0148C32.3029 12.5394 32.3902 12.1285 32.5648 11.782C32.7394 11.4329 32.9824 11.1643 33.294 10.9763C33.6082 10.7856 33.9762 10.6903 34.3978 10.6903C34.8356 10.6903 35.2076 10.791 35.5138 10.9924C35.8226 11.1939 36.0536 11.4812 36.2067 11.8546C36.3625 12.2279 36.4296 12.6724 36.4081 13.1881H35.683V12.9302C35.6749 12.3958 35.5661 11.9969 35.3567 11.7337C35.1472 11.4678 34.8356 11.3349 34.422 11.3349C33.9788 11.3349 33.6418 11.4772 33.4108 11.7619C33.1798 12.0466 33.0643 12.4548 33.0643 12.9866C33.0643 13.4996 33.1798 13.8971 33.4108 14.1791C33.6418 14.4611 33.9708 14.6021 34.3978 14.6021C34.6852 14.6021 34.935 14.5363 35.1472 14.4047C35.3593 14.2731 35.5259 14.0838 35.6467 13.8367L36.3356 14.0744C36.1664 14.4584 35.9113 14.7566 35.5702 14.9687C35.2318 15.1782 34.8517 15.283 34.4301 15.283ZM32.8226 13.1881V12.612H36.0375V13.1881H32.8226ZM38.2735 16.129V14.5699C38.5179 14.5699 38.6925 14.4907 38.7973 14.3322C38.902 14.1711 38.9866 13.9065 39.0511 13.5386C39.0941 13.3076 39.129 13.0605 39.1558 12.7973C39.1827 12.5341 39.2055 12.2413 39.2243 11.919C39.2458 11.594 39.2659 11.2247 39.2847 10.8111H42.2821V14.5699H42.7051V16.129H42.0202V15.1621H38.9584V16.129H38.2735ZM39.3774 14.5699H41.565V11.4034H39.9334C39.9253 11.594 39.9146 11.7941 39.9011 12.0036C39.8877 12.2104 39.8716 12.4172 39.8528 12.624C39.8367 12.8308 39.8165 13.0269 39.7924 13.2122C39.7709 13.3949 39.7454 13.5587 39.7158 13.7037C39.6809 13.9052 39.6406 14.0757 39.5949 14.2154C39.5493 14.355 39.4768 14.4732 39.3774 14.5699ZM44.5893 15.283C44.2643 15.283 43.9917 15.2239 43.7715 15.1057C43.5539 14.9848 43.3888 14.8264 43.276 14.6303C43.1658 14.4343 43.1108 14.2194 43.1108 13.9857C43.1108 13.7574 43.1538 13.56 43.2397 13.3935C43.3283 13.2243 43.4519 13.0847 43.6103 12.9745C43.7688 12.8617 43.9582 12.7731 44.1784 12.7086C44.3852 12.6522 44.6162 12.6039 44.8713 12.5636C45.1292 12.5206 45.3897 12.4817 45.6529 12.4468C45.9161 12.4119 46.1618 12.3783 46.3901 12.3461L46.1323 12.4951C46.1404 12.1084 46.0625 11.8223 45.8986 11.637C45.7375 11.4517 45.4582 11.359 45.0607 11.359C44.7975 11.359 44.5665 11.4195 44.3677 11.5403C44.1717 11.6585 44.0334 11.8519 43.9528 12.1205L43.2719 11.915C43.3767 11.5336 43.5795 11.2341 43.8803 11.0166C44.1811 10.7991 44.5772 10.6903 45.0687 10.6903C45.4635 10.6903 45.8019 10.7614 46.084 10.9038C46.3686 11.0435 46.5728 11.2556 46.6963 11.5403C46.7581 11.6746 46.797 11.821 46.8131 11.9795C46.8293 12.1352 46.8373 12.2991 46.8373 12.471V15.1621H46.2008V14.1187L46.3498 14.2154C46.186 14.5672 45.9564 14.8331 45.6609 15.013C45.3682 15.193 45.011 15.283 44.5893 15.283ZM44.6981 14.6827C44.9559 14.6827 45.1788 14.637 45.3669 14.5457C45.5575 14.4517 45.7106 14.3295 45.8261 14.1791C45.9416 14.026 46.0168 13.8595 46.0517 13.6796C46.092 13.5453 46.1135 13.3962 46.1162 13.2324C46.1216 13.0659 46.1242 12.9383 46.1242 12.8496L46.374 12.9584C46.1404 12.9907 45.9107 13.0215 45.6851 13.0511C45.4595 13.0806 45.246 13.1129 45.0446 13.1478C44.8431 13.18 44.6618 13.2189 44.5007 13.2646C44.3825 13.3022 44.271 13.3505 44.1663 13.4096C44.0642 13.4687 43.981 13.5453 43.9165 13.6393C43.8548 13.7306 43.8239 13.8447 43.8239 13.9817C43.8239 14.0999 43.8534 14.2127 43.9125 14.3201C43.9743 14.4275 44.0683 14.5148 44.1945 14.582C44.3234 14.6491 44.4913 14.6827 44.6981 14.6827ZM47.7196 15.1621V10.8111H48.4367V12.6442H50.725V10.8111H51.4421V15.1621H50.725V13.325H48.4367V15.1621H47.7196ZM52.4055 15.1621V10.8111H53.1226V12.6442H55.4108V10.8111H56.128V15.1621H55.4108V13.325H53.1226V15.1621H52.4055ZM57.0953 15.1621L57.0913 10.8111H57.8124V12.3863H58.4772C58.6034 12.3863 58.7323 12.389 58.8639 12.3944C58.9955 12.3998 59.1097 12.4119 59.2064 12.4307C59.432 12.4763 59.6294 12.5529 59.7986 12.6603C59.9678 12.7677 60.0994 12.9128 60.1934 13.0954C60.2874 13.278 60.3344 13.505 60.3344 13.7762C60.3344 14.1523 60.2364 14.4504 60.0403 14.6706C59.8469 14.8882 59.5931 15.0332 59.2789 15.1057C59.1715 15.1299 59.0479 15.146 58.9082 15.1541C58.7713 15.1594 58.641 15.1621 58.5175 15.1621H57.0953ZM57.8124 14.5699H58.5296C58.6101 14.5699 58.7001 14.5672 58.7995 14.5618C58.8988 14.5565 58.9875 14.543 59.0654 14.5215C59.2023 14.4813 59.3245 14.402 59.432 14.2839C59.5421 14.1657 59.5972 13.9965 59.5972 13.7762C59.5972 13.5533 59.5434 13.3814 59.436 13.2606C59.3313 13.1397 59.1929 13.0605 59.021 13.0229C58.9432 13.0041 58.8612 12.992 58.7753 12.9866C58.6894 12.9813 58.6074 12.9786 58.5296 12.9786H57.8124V14.5699ZM60.834 15.1621V10.8111H61.5511V15.1621H60.834ZM64.4063 15.283C63.9792 15.283 63.6059 15.189 63.2863 15.001C62.9694 14.8103 62.7223 14.5457 62.545 14.2073C62.3677 13.8662 62.2791 13.4687 62.2791 13.0148C62.2791 12.5394 62.3664 12.1285 62.541 11.782C62.7156 11.4329 62.9586 11.1643 63.2702 10.9763C63.5844 10.7856 63.9524 10.6903 64.374 10.6903C64.8118 10.6903 65.1838 10.791 65.49 10.9924C65.7988 11.1939 66.0298 11.4812 66.1829 11.8546C66.3387 12.2279 66.4058 12.6724 66.3843 13.1881H65.6592V12.9302C65.6511 12.3958 65.5423 11.9969 65.3329 11.7337C65.1234 11.4678 64.8118 11.3349 64.3982 11.3349C63.955 11.3349 63.618 11.4772 63.387 11.7619C63.156 12.0466 63.0405 12.4548 63.0405 12.9866C63.0405 13.4996 63.156 13.8971 63.387 14.1791C63.618 14.4611 63.947 14.6021 64.374 14.6021C64.6614 14.6021 64.9112 14.5363 65.1234 14.4047C65.3355 14.2731 65.5021 14.0838 65.6229 13.8367L66.3118 14.0744C66.1426 14.4584 65.8875 14.7566 65.5464 14.9687C65.208 15.1782 64.8279 15.283 64.4063 15.283ZM62.7988 13.1881V12.612H66.0137V13.1881H62.7988Z" fill="#272833"/>
</g>
<g filter="url(#filter1_d_618_15010)">
<path d="M82.2764 3.58104C82.2764 1.60328 83.8797 0 85.8574 0L141.81 0C143.788 0 145.391 1.60329 145.391 3.58105V19.7431C145.391 21.7209 143.788 23.3242 141.81 23.3242H85.8574C83.8797 23.3242 82.2764 21.7209 82.2764 19.7431V3.58104Z" fill="white" shape-rendering="crispEdges"/>
<path d="M90.898 15.1621L90.898 9.36081H91.6151V11.919H94.6688V9.36081H95.3859V15.1621H94.6688V12.5999H91.6151V15.1621H90.898ZM97.5918 15.283C97.2668 15.283 96.9942 15.2239 96.774 15.1057C96.5564 14.9848 96.3912 14.8264 96.2784 14.6303C96.1683 14.4343 96.1132 14.2194 96.1132 13.9857C96.1132 13.7574 96.1562 13.56 96.2422 13.3935C96.3308 13.2243 96.4543 13.0847 96.6128 12.9745C96.7713 12.8617 96.9606 12.7731 97.1808 12.7086C97.3877 12.6522 97.6186 12.6039 97.8738 12.5636C98.1316 12.5206 98.3921 12.4817 98.6553 12.4468C98.9186 12.4119 99.1643 12.3783 99.3926 12.3461L99.1348 12.4951C99.1428 12.1084 99.0649 11.8223 98.9011 11.637C98.7399 11.4517 98.4606 11.359 98.0631 11.359C97.7999 11.359 97.5689 11.4195 97.3702 11.5403C97.1741 11.6585 97.0358 11.8519 96.9552 12.1205L96.2744 11.915C96.3791 11.5336 96.5819 11.2341 96.8827 11.0166C97.1835 10.7991 97.5797 10.6903 98.0712 10.6903C98.466 10.6903 98.8044 10.7614 99.0864 10.9038C99.3711 11.0435 99.5752 11.2556 99.6988 11.5403C99.7605 11.6746 99.7995 11.821 99.8156 11.9795C99.8317 12.1352 99.8398 12.2991 99.8398 12.471V15.1621H99.2032V14.1187L99.3523 14.2154C99.1885 14.5672 98.9588 14.8331 98.6634 15.013C98.3707 15.193 98.0134 15.283 97.5918 15.283ZM97.7005 14.6827C97.9584 14.6827 98.1813 14.637 98.3693 14.5457C98.56 14.4517 98.7131 14.3295 98.8286 14.1791C98.9441 14.026 99.0193 13.8595 99.0542 13.6796C99.0945 13.5453 99.116 13.3962 99.1186 13.2324C99.124 13.0659 99.1267 12.9383 99.1267 12.8496L99.3765 12.9584C99.1428 12.9907 98.9132 13.0215 98.6876 13.0511C98.462 13.0806 98.2484 13.1129 98.047 13.1478C97.8456 13.18 97.6643 13.2189 97.5031 13.2646C97.385 13.3022 97.2735 13.3505 97.1688 13.4096C97.0667 13.4687 96.9834 13.5453 96.919 13.6393C96.8572 13.7306 96.8263 13.8447 96.8263 13.9817C96.8263 14.0999 96.8559 14.2127 96.915 14.3201C96.9767 14.4275 97.0707 14.5148 97.197 14.582C97.3259 14.6491 97.4937 14.6827 97.7005 14.6827ZM100.404 16.129V14.5699C100.648 14.5699 100.823 14.4907 100.928 14.3322C101.032 14.1711 101.117 13.9065 101.181 13.5386C101.224 13.3076 101.259 13.0605 101.286 12.7973C101.313 12.5341 101.336 12.2413 101.355 11.919C101.376 11.594 101.396 11.2247 101.415 10.8111H104.412V14.5699H104.835V16.129H104.15V15.1621H101.089V16.129H100.404ZM101.508 14.5699H103.695V11.4034H102.064C102.056 11.594 102.045 11.7941 102.031 12.0036C102.018 12.2104 102.002 12.4172 101.983 12.624C101.967 12.8308 101.947 13.0269 101.923 13.2122C101.901 13.3949 101.876 13.5587 101.846 13.7037C101.811 13.9052 101.771 14.0757 101.725 14.2154C101.68 14.355 101.607 14.4732 101.508 14.5699ZM107.368 15.283C106.941 15.283 106.568 15.189 106.248 15.001C105.931 14.8103 105.684 14.5457 105.507 14.2073C105.33 13.8662 105.241 13.4687 105.241 13.0148C105.241 12.5394 105.328 12.1285 105.503 11.782C105.677 11.4329 105.921 11.1643 106.232 10.9763C106.546 10.7856 106.914 10.6903 107.336 10.6903C107.774 10.6903 108.146 10.791 108.452 10.9924C108.761 11.1939 108.992 11.4812 109.145 11.8546C109.301 12.2279 109.368 12.6724 109.346 13.1881H108.621V12.9302C108.613 12.3958 108.504 11.9969 108.295 11.7337C108.085 11.4678 107.774 11.3349 107.36 11.3349C106.917 11.3349 106.58 11.4772 106.349 11.7619C106.118 12.0466 106.002 12.4548 106.002 12.9866C106.002 13.4996 106.118 13.8971 106.349 14.1791C106.58 14.4611 106.909 14.6021 107.336 14.6021C107.623 14.6021 107.873 14.5363 108.085 14.4047C108.297 14.2731 108.464 14.0838 108.585 13.8367L109.274 14.0744C109.105 14.4584 108.849 14.7566 108.508 14.9687C108.17 15.1782 107.79 15.283 107.368 15.283ZM105.761 13.1881V12.612H108.976V13.1881H105.761ZM109.441 15.1621L111.198 12.9866L109.526 10.8111H110.324L111.939 12.9463V10.8111H112.592V12.9463L114.207 10.8111H115.005L113.333 12.9866L115.089 15.1621H114.256L112.592 13.0269V15.1621H111.939V13.0269L110.275 15.1621H109.441ZM115.566 15.1621V10.8111H116.284V12.6442H118.572V10.8111H119.289V15.1621H118.572V13.325H116.284V15.1621H115.566ZM122.11 15.283C121.677 15.283 121.304 15.1849 120.99 14.9889C120.678 14.7928 120.438 14.5215 120.268 14.1751C120.099 13.8286 120.015 13.4311 120.015 12.9826C120.015 12.526 120.101 12.1258 120.272 11.782C120.444 11.4383 120.687 11.171 121.002 10.9803C121.316 10.787 121.685 10.6903 122.11 10.6903C122.545 10.6903 122.919 10.7883 123.234 10.9844C123.548 11.1777 123.788 11.4477 123.955 11.7941C124.124 12.1379 124.208 12.5341 124.208 12.9826C124.208 13.4365 124.124 13.8367 123.955 14.1831C123.785 14.5269 123.544 14.7968 123.23 14.9929C122.915 15.1863 122.542 15.283 122.11 15.283ZM122.11 14.6021C122.561 14.6021 122.896 14.4517 123.117 14.1509C123.337 13.8501 123.447 13.4607 123.447 12.9826C123.447 12.4911 123.336 12.1003 123.113 11.8102C122.89 11.5175 122.555 11.3711 122.11 11.3711C121.806 11.3711 121.556 11.4396 121.36 11.5766C121.164 11.7136 121.018 11.9029 120.921 12.1446C120.824 12.3863 120.776 12.6657 120.776 12.9826C120.776 13.4714 120.889 13.8635 121.114 14.159C121.34 14.4544 121.672 14.6021 122.11 14.6021ZM126.767 15.283C126.327 15.283 125.952 15.1849 125.643 14.9889C125.337 14.7901 125.104 14.5175 124.942 14.1711C124.781 13.8246 124.698 13.4298 124.693 12.9866C124.698 12.5327 124.783 12.1339 124.946 11.7901C125.113 11.4436 125.351 11.1737 125.66 10.9803C125.968 10.787 126.34 10.6903 126.775 10.6903C127.235 10.6903 127.63 10.8031 127.96 11.0287C128.293 11.2543 128.516 11.5632 128.629 11.9553L127.92 12.1688C127.828 11.9163 127.679 11.7203 127.472 11.5806C127.268 11.441 127.033 11.3711 126.767 11.3711C126.469 11.3711 126.224 11.441 126.03 11.5806C125.837 11.7176 125.693 11.9083 125.599 12.1527C125.505 12.3944 125.457 12.6724 125.454 12.9866C125.459 13.4701 125.571 13.8608 125.788 14.159C126.009 14.4544 126.335 14.6021 126.767 14.6021C127.052 14.6021 127.288 14.5377 127.476 14.4087C127.664 14.2771 127.807 14.0878 127.903 13.8407L128.629 14.0301C128.478 14.4356 128.243 14.7458 127.924 14.9607C127.604 15.1755 127.219 15.283 126.767 15.283ZM130.363 15.1621V11.4638H128.848V10.8111H132.595V11.4638H131.08V15.1621H130.363ZM133.197 15.1621L133.193 10.8111H133.914V12.3863H134.852C134.979 12.3863 135.108 12.389 135.239 12.3944C135.371 12.3998 135.485 12.4119 135.582 12.4307C135.807 12.4736 136.005 12.5488 136.174 12.6563C136.343 12.7637 136.475 12.9101 136.569 13.0954C136.663 13.278 136.71 13.505 136.71 13.7762C136.71 14.1523 136.612 14.4504 136.416 14.6706C136.222 14.8882 135.968 15.0332 135.654 15.1057C135.547 15.1299 135.423 15.146 135.283 15.1541C135.146 15.1594 135.016 15.1621 134.893 15.1621H133.197ZM133.914 14.5699H134.905C134.985 14.5699 135.075 14.5672 135.175 14.5618C135.274 14.5565 135.363 14.543 135.441 14.5215C135.578 14.4813 135.7 14.402 135.807 14.2839C135.917 14.1657 135.972 13.9965 135.972 13.7762C135.972 13.5533 135.919 13.3814 135.811 13.2606C135.706 13.1397 135.568 13.0605 135.396 13.0229C135.318 13.0041 135.236 12.992 135.151 12.9866C135.065 12.9813 134.983 12.9786 134.905 12.9786H133.914V14.5699Z" fill="#272833"/>
</g>
<g filter="url(#filter2_d_618_15010)">
<path d="M152.554 3.58104C152.554 1.60328 154.157 0 156.135 0L199.087 0C201.065 0 202.668 1.60329 202.668 3.58105V19.7431C202.668 21.7209 201.065 23.3242 199.087 23.3242H156.135C154.157 23.3242 152.554 21.7209 152.554 19.7431V3.58104Z" fill="white" shape-rendering="crispEdges"/>
<path d="M163.153 15.1621V14.3725C162.855 14.4235 162.568 14.4101 162.291 14.3322C162.017 14.2543 161.772 14.1187 161.554 13.9253C161.339 13.7292 161.169 13.4768 161.042 13.1679C160.916 12.859 160.853 12.4992 160.853 12.0882C160.853 11.6746 160.916 11.3134 161.042 11.0045C161.169 10.693 161.339 10.4392 161.554 10.2431C161.772 10.0443 162.017 9.90603 162.291 9.82814C162.568 9.74757 162.855 9.73279 163.153 9.78382V9.36081H163.867V9.78382C164.165 9.73279 164.452 9.74757 164.729 9.82814C165.005 9.90603 165.251 10.0443 165.466 10.2431C165.683 10.4392 165.855 10.693 165.982 11.0045C166.108 11.3134 166.171 11.6746 166.171 12.0882C166.171 12.4992 166.108 12.859 165.982 13.1679C165.855 13.4768 165.683 13.7292 165.466 13.9253C165.251 14.1187 165.005 14.2543 164.729 14.3322C164.452 14.4101 164.165 14.4235 163.867 14.3725V15.1621H163.153ZM163.153 13.6997V10.4445C162.906 10.4069 162.685 10.4244 162.489 10.4969C162.295 10.5667 162.131 10.6795 161.997 10.8353C161.866 10.9884 161.765 11.1724 161.695 11.3872C161.625 11.6021 161.59 11.8358 161.59 12.0882C161.59 12.338 161.625 12.569 161.695 12.7812C161.765 12.9933 161.866 13.1746 161.997 13.325C162.131 13.4754 162.295 13.5842 162.489 13.6514C162.685 13.7185 162.906 13.7346 163.153 13.6997ZM163.867 13.6997C164.116 13.7346 164.338 13.7185 164.531 13.6514C164.725 13.5815 164.888 13.4728 165.023 13.325C165.157 13.1773 165.259 12.9987 165.329 12.7892C165.399 12.577 165.434 12.3487 165.434 12.1043C165.434 11.8573 165.399 11.6263 165.329 11.4114C165.259 11.1939 165.157 11.0072 165.023 10.8514C164.888 10.693 164.725 10.5761 164.531 10.5009C164.338 10.4257 164.116 10.4069 163.867 10.4445V13.6997ZM170.375 10.8111V15.1621H169.682V11.9553L167.401 15.1621H166.809V10.8111H167.502V13.9736L169.786 10.8111H170.375ZM171.338 15.1621V10.8111H172.055V12.6442H174.343V10.8111H175.06V15.1621H174.343V13.325H172.055V15.1621H171.338ZM177.264 15.283C176.939 15.283 176.667 15.2239 176.447 15.1057C176.229 14.9848 176.064 14.8264 175.951 14.6303C175.841 14.4343 175.786 14.2194 175.786 13.9857C175.786 13.7574 175.829 13.56 175.915 13.3935C176.003 13.2243 176.127 13.0847 176.285 12.9745C176.444 12.8617 176.633 12.7731 176.854 12.7086C177.06 12.6522 177.291 12.6039 177.546 12.5636C177.804 12.5206 178.065 12.4817 178.328 12.4468C178.591 12.4119 178.837 12.3783 179.065 12.3461L178.807 12.4951C178.815 12.1084 178.738 11.8223 178.574 11.637C178.413 11.4517 178.133 11.359 177.736 11.359C177.473 11.359 177.242 11.4195 177.043 11.5403C176.847 11.6585 176.708 11.8519 176.628 12.1205L175.947 11.915C176.052 11.5336 176.255 11.2341 176.555 11.0166C176.856 10.7991 177.252 10.6903 177.744 10.6903C178.139 10.6903 178.477 10.7614 178.759 10.9038C179.044 11.0435 179.248 11.2556 179.371 11.5403C179.433 11.6746 179.472 11.821 179.488 11.9795C179.504 12.1352 179.512 12.2991 179.512 12.471V15.1621H178.876V14.1187L179.025 14.2154C178.861 14.5672 178.632 14.8331 178.336 15.013C178.043 15.193 177.686 15.283 177.264 15.283ZM177.373 14.6827C177.631 14.6827 177.854 14.637 178.042 14.5457C178.233 14.4517 178.386 14.3295 178.501 14.1791C178.617 14.026 178.692 13.8595 178.727 13.6796C178.767 13.5453 178.789 13.3962 178.791 13.2324C178.797 13.0659 178.799 12.9383 178.799 12.8496L179.049 12.9584C178.815 12.9907 178.586 13.0215 178.36 13.0511C178.135 13.0806 177.921 13.1129 177.72 13.1478C177.518 13.18 177.337 13.2189 177.176 13.2646C177.058 13.3022 176.946 13.3505 176.841 13.4096C176.739 13.4687 176.656 13.5453 176.592 13.6393C176.53 13.7306 176.499 13.8447 176.499 13.9817C176.499 14.0999 176.529 14.2127 176.588 14.3201C176.649 14.4275 176.743 14.5148 176.87 14.582C176.999 14.6491 177.166 14.6827 177.373 14.6827ZM180.395 15.1621V10.8111H181.112V12.6442H183.4V10.8111H184.117V15.1621H183.4V13.325H181.112V15.1621H180.395ZM186.918 15.283C186.477 15.283 186.103 15.1849 185.794 14.9889C185.487 14.7901 185.254 14.5175 185.093 14.1711C184.932 13.8246 184.848 13.4298 184.843 12.9866C184.848 12.5327 184.933 12.1339 185.097 11.7901C185.263 11.4436 185.501 11.1737 185.81 10.9803C186.119 10.787 186.491 10.6903 186.926 10.6903C187.385 10.6903 187.78 10.8031 188.11 11.0287C188.443 11.2543 188.666 11.5632 188.779 11.9553L188.07 12.1688C187.979 11.9163 187.829 11.7203 187.623 11.5806C187.419 11.441 187.184 11.3711 186.918 11.3711C186.62 11.3711 186.374 11.441 186.18 11.5806C185.987 11.7176 185.843 11.9083 185.749 12.1527C185.655 12.3944 185.607 12.6724 185.604 12.9866C185.61 13.4701 185.721 13.8608 185.939 14.159C186.159 14.4544 186.485 14.6021 186.918 14.6021C187.202 14.6021 187.439 14.5377 187.627 14.4087C187.815 14.2771 187.957 14.0878 188.054 13.8407L188.779 14.0301C188.628 14.4356 188.393 14.7458 188.074 14.9607C187.754 15.1755 187.369 15.283 186.918 15.283ZM189.44 15.1621L189.436 10.8111H190.157V12.3863H190.822C190.948 12.3863 191.077 12.389 191.209 12.3944C191.34 12.3998 191.454 12.4119 191.551 12.4307C191.777 12.4763 191.974 12.5529 192.143 12.6603C192.312 12.7677 192.444 12.9128 192.538 13.0954C192.632 13.278 192.679 13.505 192.679 13.7762C192.679 14.1523 192.581 14.4504 192.385 14.6706C192.192 14.8882 191.938 15.0332 191.624 15.1057C191.516 15.1299 191.393 15.146 191.253 15.1541C191.116 15.1594 190.986 15.1621 190.862 15.1621H189.44ZM190.157 14.5699H190.874C190.955 14.5699 191.045 14.5672 191.144 14.5618C191.243 14.5565 191.332 14.543 191.41 14.5215C191.547 14.4813 191.669 14.402 191.777 14.2839C191.887 14.1657 191.942 13.9965 191.942 13.7762C191.942 13.5533 191.888 13.3814 191.781 13.2606C191.676 13.1397 191.538 13.0605 191.366 13.0229C191.288 13.0041 191.206 12.992 191.12 12.9866C191.034 12.9813 190.952 12.9786 190.874 12.9786H190.157V14.5699ZM193.179 15.1621V10.8111H193.896V15.1621H193.179Z" fill="#272833"/>
</g>
<defs>
<filter id="filter0_d_618_15010" x="0" y="0" width="126.114" height="79.3242" filterUnits="userSpaceOnUse" color-interpolation-filters="sRGB">
<feFlood flood-opacity="0" result="BackgroundImageFix"/>
<feColorMatrix in="SourceAlpha" type="matrix" values="0 0 0 0 0 0 0 0 0 0 0 0 0 0 0 0 0 0 127 0" result="hardAlpha"/>
<feMorphology radius="2" operator="dilate" in="SourceAlpha" result="effect1_dropShadow_618_15010"/>
<feOffset dx="24" dy="29"/>
<feGaussianBlur stdDeviation="12.5"/>
<feComposite in2="hardAlpha" operator="out"/>
<feColorMatrix type="matrix" values="0 0 0 0 0.661927 0 0 0 0 0.675352 0 0 0 0 0.745833 0 0 0 0.11 0"/>
<feBlend mode="normal" in2="BackgroundImageFix" result="effect1_dropShadow_618_15010"/>
<feBlend mode="normal" in="SourceGraphic" in2="effect1_dropShadow_618_15010" result="shape"/>
</filter>
<filter id="filter1_d_618_15010" x="79.2764" y="0" width="117.114" height="79.3242" filterUnits="userSpaceOnUse" color-interpolation-filters="sRGB">
<feFlood flood-opacity="0" result="BackgroundImageFix"/>
<feColorMatrix in="SourceAlpha" type="matrix" values="0 0 0 0 0 0 0 0 0 0 0 0 0 0 0 0 0 0 127 0" result="hardAlpha"/>
<feMorphology radius="2" operator="dilate" in="SourceAlpha" result="effect1_dropShadow_618_15010"/>
<feOffset dx="24" dy="29"/>
<feGaussianBlur stdDeviation="12.5"/>
<feComposite in2="hardAlpha" operator="out"/>
<feColorMatrix type="matrix" values="0 0 0 0 0.661927 0 0 0 0 0.675352 0 0 0 0 0.745833 0 0 0 0.11 0"/>
<feBlend mode="normal" in2="BackgroundImageFix" result="effect1_dropShadow_618_15010"/>
<feBlend mode="normal" in="SourceGraphic" in2="effect1_dropShadow_618_15010" result="shape"/>
</filter>
<filter id="filter2_d_618_15010" x="149.554" y="0" width="104.114" height="79.3242" filterUnits="userSpaceOnUse" color-interpolation-filters="sRGB">
<feFlood flood-opacity="0" result="BackgroundImageFix"/>
<feColorMatrix in="SourceAlpha" type="matrix" values="0 0 0 0 0 0 0 0 0 0 0 0 0 0 0 0 0 0 127 0" result="hardAlpha"/>
<feMorphology radius="2" operator="dilate" in="SourceAlpha" result="effect1_dropShadow_618_15010"/>
<feOffset dx="24" dy="29"/>
<feGaussianBlur stdDeviation="12.5"/>
<feComposite in2="hardAlpha" operator="out"/>
<feColorMatrix type="matrix" values="0 0 0 0 0.661927 0 0 0 0 0.675352 0 0 0 0 0.745833 0 0 0 0.11 0"/>
<feBlend mode="normal" in2="BackgroundImageFix" result="effect1_dropShadow_618_15010"/>
<feBlend mode="normal" in="SourceGraphic" in2="effect1_dropShadow_618_15010" result="shape"/>
</filter>
</defs>
</svg>
