<svg width="112" height="71" viewBox="0 0 112 71" fill="none" xmlns="http://www.w3.org/2000/svg">
<mask id="path-1-inside-1_618_14996" fill="white">
<path d="M0 6.59043C0 2.95064 2.95063 0 6.59043 0L105.035 0C108.675 0 111.625 2.95064 111.625 6.59043V63.4328C111.625 67.0726 108.675 70.0233 105.035 70.0233H6.59043C2.95064 70.0233 0 67.0726 0 63.4328L0 6.59043Z"/>
</mask>
<path d="M0 6.59043C0 2.95064 2.95063 0 6.59043 0L105.035 0C108.675 0 111.625 2.95064 111.625 6.59043V63.4328C111.625 67.0726 108.675 70.0233 105.035 70.0233H6.59043C2.95064 70.0233 0 67.0726 0 63.4328L0 6.59043Z" fill="white"/>
<path d="M10.5201 18.8867V12.3622H13.216C13.2794 12.3622 13.361 12.3652 13.4606 12.3713C13.5603 12.3743 13.6524 12.3833 13.737 12.3984C14.1146 12.4558 14.4257 12.5812 14.6704 12.7745C14.9181 12.9678 15.1008 13.2125 15.2186 13.5085C15.3395 13.8015 15.3999 14.1277 15.3999 14.4872C15.3999 14.8436 15.3395 15.1699 15.2186 15.4659C15.0978 15.7589 14.9136 16.002 14.6659 16.1954C14.4212 16.3887 14.1116 16.514 13.737 16.5714C13.6524 16.5835 13.5588 16.5926 13.4561 16.5986C13.3564 16.6046 13.2764 16.6077 13.216 16.6077H11.612V18.8867H10.5201ZM11.612 15.5882H13.1707C13.2311 15.5882 13.299 15.5852 13.3745 15.5791C13.4501 15.5731 13.5195 15.561 13.583 15.5429C13.7642 15.4976 13.9062 15.4175 14.0089 15.3028C14.1146 15.188 14.1886 15.0581 14.2309 14.9131C14.2762 14.7681 14.2989 14.6261 14.2989 14.4872C14.2989 14.3482 14.2762 14.2063 14.2309 14.0613C14.1886 13.9133 14.1146 13.7819 14.0089 13.6671C13.9062 13.5523 13.7642 13.4723 13.583 13.427C13.5195 13.4088 13.4501 13.3983 13.3745 13.3952C13.299 13.3892 13.2311 13.3862 13.1707 13.3862H11.612V15.5882ZM18.2604 19.0226C17.7651 19.0226 17.3301 18.9154 16.9555 18.701C16.581 18.4865 16.288 18.189 16.0765 17.8084C15.8681 17.4278 15.7639 16.9898 15.7639 16.4944C15.7639 15.9597 15.8666 15.4961 16.072 15.1034C16.2774 14.7077 16.5629 14.4011 16.9283 14.1836C17.2938 13.9661 17.7167 13.8574 18.197 13.8574C18.7045 13.8574 19.1349 13.9767 19.4883 14.2153C19.8447 14.4509 20.1091 14.7847 20.2812 15.2167C20.4534 15.6486 20.5183 16.1576 20.4761 16.7436H19.3932V16.3449C19.3901 15.8132 19.2965 15.4251 19.1122 15.1804C18.928 14.9358 18.638 14.8134 18.2423 14.8134C17.7953 14.8134 17.463 14.9524 17.2455 15.2303C17.028 15.5051 16.9193 15.9084 16.9193 16.44C16.9193 16.9354 17.028 17.319 17.2455 17.5909C17.463 17.8627 17.7802 17.9987 18.197 17.9987C18.4658 17.9987 18.6969 17.9398 18.8902 17.822C19.0866 17.7011 19.2376 17.5274 19.3433 17.3009L20.4217 17.6271C20.2344 18.0681 19.9444 18.411 19.5517 18.6556C19.1621 18.9003 18.7317 19.0226 18.2604 19.0226ZM16.5749 16.7436V15.919H19.9414V16.7436H16.5749ZM21.2061 18.8867V13.9933L25.4561 13.9933V18.8867H24.3642V15.0173H22.2981V18.8867H21.2061ZM27.0999 21.0616L28.0423 18.4744L28.0605 19.2356L25.9264 13.9933H27.0637L28.577 17.8718H28.287L29.7596 13.9933H30.8515L28.1239 21.0616H27.0999ZM32.4833 18.8867V14.9629H30.8476V13.9933H35.2109V14.9629H33.5752V18.8867H32.4833ZM37.0509 19.0226C36.6975 19.0226 36.3985 18.9562 36.1538 18.8233C35.9091 18.6874 35.7234 18.5076 35.5965 18.2841C35.4727 18.0606 35.4107 17.8144 35.4107 17.5456C35.4107 17.31 35.45 17.0985 35.5285 16.9112C35.6071 16.7209 35.7279 16.5578 35.891 16.4219C36.0541 16.283 36.2656 16.1697 36.5253 16.0821C36.7217 16.0186 36.9513 15.9613 37.214 15.9099C37.4799 15.8586 37.7668 15.8117 38.0749 15.7694C38.386 15.7241 38.7108 15.6758 39.0491 15.6245L38.6594 15.8465C38.6624 15.5082 38.5869 15.259 38.4329 15.0989C38.2788 14.9388 38.019 14.8587 37.6535 14.8587C37.433 14.8587 37.2201 14.9101 37.0147 15.0128C36.8093 15.1155 36.6658 15.2922 36.5842 15.5429L35.5874 15.2303C35.7083 14.8164 35.9378 14.4842 36.2761 14.2335C36.6175 13.9828 37.0766 13.8574 37.6535 13.8574C38.0885 13.8574 38.4706 13.9284 38.7999 14.0704C39.1321 14.2123 39.3783 14.4449 39.5384 14.7681C39.626 14.9403 39.6789 15.117 39.697 15.2982C39.7151 15.4764 39.7242 15.6713 39.7242 15.8827V18.8867H38.7682V17.8265L38.9267 17.9987C38.7062 18.3521 38.448 18.6118 38.1519 18.778C37.8589 18.9411 37.4919 19.0226 37.0509 19.0226ZM37.2684 18.1527C37.5161 18.1527 37.7276 18.1089 37.9027 18.0213C38.0779 17.9337 38.2169 17.8265 38.3196 17.6996C38.4253 17.5728 38.4963 17.4534 38.5325 17.3417C38.5899 17.2027 38.6217 17.0441 38.6277 16.8659C38.6368 16.6847 38.6413 16.5382 38.6413 16.4264L38.9766 16.5261C38.6473 16.5775 38.3649 16.6228 38.1293 16.662C37.8937 16.7013 37.6913 16.7391 37.5221 16.7753C37.353 16.8085 37.2035 16.8463 37.0736 16.8886C36.9467 16.9339 36.8395 16.9868 36.7519 17.0472C36.6643 17.1076 36.5963 17.1771 36.548 17.2556C36.5027 17.3341 36.48 17.4263 36.48 17.532C36.48 17.6528 36.5102 17.76 36.5707 17.8537C36.6311 17.9443 36.7187 18.0168 36.8334 18.0712C36.9513 18.1255 37.0962 18.1527 37.2684 18.1527ZM44.7279 19.9152V18.8867L40.6229 18.8867V13.9933H41.7148V17.8627H43.7809V13.9933H44.8729V17.9171H45.8198V19.9152H44.7279ZM50.5124 13.9933V18.8867H49.4658V15.6924L47.1369 18.8867H46.2624V13.9933H47.3091V17.1061L49.647 13.9933H50.5124ZM54.4398 18.8867V17.2556H53.5654C53.4536 17.2556 53.3131 17.2526 53.144 17.2465C52.9778 17.2405 52.8223 17.2254 52.6773 17.2012C52.2997 17.1317 51.9871 16.9671 51.7394 16.7073C51.4917 16.4446 51.3679 16.0881 51.3679 15.6381C51.3679 15.197 51.4857 14.8421 51.7213 14.5733C51.9569 14.3045 52.2635 14.1323 52.641 14.0568C52.7981 14.0235 52.9597 14.0054 53.1259 14.0024C53.295 13.9963 53.4355 13.9933 53.5472 13.9933H55.5318V18.8867H54.4398ZM51.241 18.8867L52.41 17.0154H53.5472L52.3873 18.8867H51.241ZM53.4521 16.3992H54.4398V14.8497H53.4521C53.3947 14.8497 53.3252 14.8527 53.2437 14.8587C53.1621 14.8648 53.0805 14.8784 52.999 14.8995C52.9114 14.9267 52.8283 14.9735 52.7498 15.04C52.6713 15.1064 52.6063 15.1895 52.555 15.2892C52.5036 15.3888 52.4779 15.5021 52.4779 15.629C52.4779 15.8193 52.5323 15.9779 52.641 16.1047C52.7528 16.2286 52.8827 16.3116 53.0307 16.3539C53.1032 16.3721 53.1772 16.3841 53.2527 16.3902C53.3313 16.3962 53.3977 16.3992 53.4521 16.3992ZM58.0573 18.8867L58.0664 13.9933H59.1719V16.3494L60.9616 13.9933H62.3255L60.427 16.44L62.4886 18.8867L61.0432 18.8867L59.1719 16.5306V18.8867H58.0573ZM64.7433 19.0226C64.254 19.0226 63.8266 18.9124 63.4611 18.6919C63.0956 18.4714 62.8117 18.1678 62.6093 17.7812C62.4099 17.3915 62.3102 16.9445 62.3102 16.44C62.3102 15.9265 62.4129 15.4764 62.6183 15.0898C62.8237 14.7032 63.1092 14.4011 63.4747 14.1836C63.8402 13.9661 64.2631 13.8574 64.7433 13.8574C65.2357 13.8574 65.6646 13.9677 66.0301 14.1882C66.3956 14.4087 66.6796 14.7137 66.8819 15.1034C67.0843 15.49 67.1855 15.9356 67.1855 16.44C67.1855 16.9475 67.0828 17.396 66.8774 17.7857C66.675 18.1723 66.3911 18.4759 66.0256 18.6964C65.6601 18.9139 65.2327 19.0226 64.7433 19.0226ZM64.7433 17.9987C65.1783 17.9987 65.5015 17.8537 65.713 17.5637C65.9244 17.2737 66.0301 16.8992 66.0301 16.44C66.0301 15.9658 65.9229 15.5882 65.7084 15.3073C65.494 15.0234 65.1723 14.8814 64.7433 14.8814C64.4503 14.8814 64.2087 14.9478 64.0184 15.0807C63.8311 15.2106 63.6922 15.3934 63.6015 15.629C63.5109 15.8616 63.4656 16.1319 63.4656 16.44C63.4656 16.9143 63.5729 17.2933 63.7873 17.5773C64.0048 17.8582 64.3235 17.9987 64.7433 17.9987ZM67.9029 18.8867V13.9933H68.8L70.5535 17.3734L72.3115 13.9933H73.204V18.8867H72.1619V16.1908L70.7709 18.8867H70.3405L68.9495 16.1908V18.8867H67.9029ZM74.1885 18.8867V13.9933L78.4385 13.9933V18.8867H77.3465V15.0173L75.2804 15.0173V18.8867H74.1885ZM80.8072 19.0226C80.4538 19.0226 80.1548 18.9562 79.9101 18.8233C79.6654 18.6874 79.4797 18.5076 79.3528 18.2841C79.2289 18.0606 79.167 17.8144 79.167 17.5456C79.167 17.31 79.2063 17.0985 79.2848 16.9112C79.3634 16.7209 79.4842 16.5578 79.6473 16.4219C79.8104 16.283 80.0219 16.1697 80.2816 16.0821C80.478 16.0186 80.7075 15.9613 80.9703 15.9099C81.2361 15.8586 81.5231 15.8117 81.8312 15.7694C82.1423 15.7241 82.467 15.6758 82.8054 15.6245L82.4157 15.8465C82.4187 15.5082 82.3432 15.259 82.1891 15.0989C82.0351 14.9388 81.7753 14.8587 81.4098 14.8587C81.1893 14.8587 80.9764 14.9101 80.771 15.0128C80.5656 15.1155 80.4221 15.2922 80.3405 15.5429L79.3437 15.2303C79.4646 14.8164 79.6941 14.4842 80.0324 14.2335C80.3738 13.9828 80.8329 13.8574 81.4098 13.8574C81.8448 13.8574 82.2269 13.9284 82.5562 14.0704C82.8884 14.2123 83.1346 14.4449 83.2947 14.7681C83.3823 14.9403 83.4351 15.117 83.4533 15.2982C83.4714 15.4764 83.4805 15.6713 83.4805 15.8827V18.8867H82.5244V17.8265L82.683 17.9987C82.4625 18.3521 82.2042 18.6118 81.9082 18.778C81.6152 18.9411 81.2482 19.0226 80.8072 19.0226ZM81.0247 18.1527C81.2724 18.1527 81.4838 18.1089 81.659 18.0213C81.8342 17.9337 81.9732 17.8265 82.0759 17.6996C82.1816 17.5728 82.2526 17.4534 82.2888 17.3417C82.3462 17.2027 82.3779 17.0441 82.384 16.8659C82.393 16.6847 82.3976 16.5382 82.3976 16.4264L82.7329 16.5261C82.4036 16.5775 82.1212 16.6228 81.8856 16.662C81.65 16.7013 81.4476 16.7391 81.2784 16.7753C81.1093 16.8085 80.9598 16.8463 80.8299 16.8886C80.703 16.9339 80.5958 16.9868 80.5082 17.0472C80.4206 17.1076 80.3526 17.1771 80.3043 17.2556C80.259 17.3341 80.2363 17.4263 80.2363 17.532C80.2363 17.6528 80.2665 17.76 80.3269 17.8537C80.3874 17.9443 80.4749 18.0168 80.5897 18.0712C80.7075 18.1255 80.8525 18.1527 81.0247 18.1527ZM84.3791 18.8867V13.9933H85.4711V15.9235H87.6686V13.9933H88.7605V18.8867H87.6686V16.9475H85.4711V18.8867H84.3791ZM93.9944 13.9933V18.8867H92.9477V15.6924L90.6188 18.8867H89.7444V13.9933H90.791V17.1061L93.129 13.9933H93.9944ZM99.2357 13.9933V18.8867H98.1891V15.6924L95.8602 18.8867H94.9857V13.9933H96.0324V17.1061L98.3703 13.9933H99.2357Z" fill="#272833"/>
<path d="M15.8119 34.2726C15.8732 34.1485 15.9679 34.0441 16.0854 33.9711C16.2029 33.8981 16.3384 33.8594 16.4767 33.8594C16.6151 33.8594 16.7506 33.8981 16.8681 33.9711C16.9856 34.0441 17.0803 34.1485 17.1416 34.2726L18.3946 36.8115L21.1963 37.2193C21.3333 37.2391 21.462 37.2968 21.5679 37.3859C21.6738 37.475 21.7526 37.5919 21.7954 37.7235C21.8383 37.8551 21.8435 37.996 21.8104 38.1304C21.7773 38.2648 21.7073 38.3872 21.6082 38.4838L19.58 40.4602L20.0586 43.2504C20.0821 43.3868 20.0669 43.527 20.0148 43.6552C19.9627 43.7834 19.8757 43.8944 19.7638 43.9758C19.6518 44.0571 19.5193 44.1055 19.3813 44.1155C19.2433 44.1255 19.1052 44.0966 18.9828 44.0322L16.4767 42.7141L13.9707 44.0322C13.8483 44.0966 13.7102 44.1255 13.5722 44.1155C13.4342 44.1055 13.3017 44.0571 13.1897 43.9758C13.0778 43.8944 12.9908 43.7834 12.9387 43.6552C12.8866 43.527 12.8714 43.3868 12.8949 43.2504L13.3727 40.4602L11.3461 38.483C11.2473 38.3864 11.1775 38.2641 11.1445 38.1299C11.1115 37.9957 11.1167 37.855 11.1594 37.7236C11.2022 37.5922 11.2808 37.4753 11.3864 37.3862C11.492 37.2971 11.6204 37.2393 11.7572 37.2193L14.5581 36.8115L15.8119 34.2726ZM16.4759 34.7874L15.2781 37.2152C15.2249 37.3229 15.1464 37.416 15.0492 37.4866C14.9521 37.5572 14.8392 37.6032 14.7204 37.6205L12.0406 38.0102L13.9798 39.9C14.0658 39.984 14.1301 40.0876 14.1671 40.202C14.2041 40.3164 14.2128 40.4381 14.1923 40.5565L13.7351 43.2257L16.1324 41.9652C16.2387 41.9094 16.357 41.8802 16.4772 41.8802C16.5973 41.8802 16.7156 41.9094 16.8219 41.9652L19.2192 43.2257L18.7612 40.5565C18.7407 40.4381 18.7493 40.3164 18.7864 40.202C18.8234 40.0876 18.8877 39.984 18.9737 39.9L20.9129 38.0102L18.2331 37.6205C18.1143 37.6032 18.0014 37.5572 17.9043 37.4866C17.8071 37.416 17.7286 37.3229 17.6754 37.2152L16.4759 34.7874Z" fill="#F8D557"/>
<path d="M16.4759 34.7874L15.2781 37.2152C15.2249 37.3229 15.1464 37.416 15.0492 37.4866C14.9521 37.5572 14.8392 37.6032 14.7204 37.6205L12.0406 38.0102L13.9798 39.9C14.0658 39.984 14.1301 40.0876 14.1671 40.202C14.2041 40.3164 14.2128 40.4381 14.1923 40.5565L13.7351 43.2257L16.1324 41.9652C16.2387 41.9094 16.357 41.8802 16.4772 41.8802C16.5973 41.8802 16.7156 41.9094 16.8219 41.9652L19.2192 43.2257L18.7612 40.5565C18.7407 40.4381 18.7493 40.3164 18.7864 40.202C18.8234 40.0876 18.8877 39.984 18.9737 39.9L20.9129 38.0102L18.2331 37.6205C18.1143 37.6032 18.0014 37.5572 17.9043 37.4866C17.8071 37.416 17.7286 37.3229 17.6754 37.2152L16.4759 34.7874Z" fill="#F8D557"/>
<path d="M28.9926 34.2726C29.0538 34.1485 29.1486 34.0441 29.266 33.9711C29.3835 33.8981 29.5191 33.8594 29.6574 33.8594C29.7957 33.8594 29.9313 33.8981 30.0488 33.9711C30.1663 34.0441 30.261 34.1485 30.3222 34.2726L31.5752 36.8115L34.377 37.2193C34.5139 37.2391 34.6427 37.2968 34.7485 37.3859C34.8544 37.475 34.9332 37.5919 34.9761 37.7235C35.019 37.8551 35.0241 37.996 34.9911 38.1304C34.958 38.2648 34.8879 38.3872 34.7889 38.4838L32.7607 40.4602L33.2393 43.2504C33.2628 43.3868 33.2476 43.527 33.1955 43.6552C33.1433 43.7834 33.0564 43.8944 32.9444 43.9758C32.8325 44.0571 32.7 44.1055 32.562 44.1155C32.424 44.1255 32.2859 44.0966 32.1634 44.0322L29.6574 42.7141L27.1514 44.0322C27.0289 44.0966 26.8909 44.1255 26.7528 44.1155C26.6148 44.1055 26.4823 44.0571 26.3704 43.9758C26.2584 43.8944 26.1715 43.7834 26.1194 43.6552C26.0673 43.527 26.0521 43.3868 26.0755 43.2504L26.5533 40.4602L24.5268 38.483C24.428 38.3864 24.3581 38.2641 24.3251 38.1299C24.2922 37.9957 24.2973 37.855 24.3401 37.7236C24.3828 37.5922 24.4614 37.4753 24.5671 37.3862C24.6727 37.2971 24.8011 37.2393 24.9378 37.2193L27.7388 36.8115L28.9926 34.2726ZM29.6566 34.7874L28.4588 37.2152C28.4056 37.3229 28.327 37.416 28.2299 37.4866C28.1327 37.5572 28.0199 37.6032 27.9011 37.6205L25.2212 38.0102L27.1605 39.9C27.2465 39.984 27.3108 40.0876 27.3478 40.202C27.3848 40.3164 27.3935 40.4381 27.373 40.5565L26.9158 43.2257L29.3131 41.9652C29.4194 41.9094 29.5377 41.8802 29.6578 41.8802C29.7779 41.8802 29.8962 41.9094 30.0026 41.9652L32.3999 43.2257L31.9418 40.5565C31.9214 40.4381 31.93 40.3164 31.967 40.202C32.0041 40.0876 32.0684 39.984 32.1544 39.9L34.0936 38.0102L31.4138 37.6205C31.2949 37.6032 31.1821 37.5572 31.0849 37.4866C30.9878 37.416 30.9092 37.3229 30.856 37.2152L29.6566 34.7874Z" fill="#F8D557"/>
<path d="M29.6566 34.7874L28.4588 37.2152C28.4056 37.3229 28.327 37.416 28.2299 37.4866C28.1327 37.5572 28.0199 37.6032 27.9011 37.6205L25.2212 38.0102L27.1605 39.9C27.2465 39.984 27.3108 40.0876 27.3478 40.202C27.3848 40.3164 27.3935 40.4381 27.373 40.5565L26.9158 43.2257L29.3131 41.9652C29.4194 41.9094 29.5377 41.8802 29.6578 41.8802C29.7779 41.8802 29.8962 41.9094 30.0026 41.9652L32.3999 43.2257L31.9418 40.5565C31.9214 40.4381 31.93 40.3164 31.967 40.202C32.0041 40.0876 32.0684 39.984 32.1544 39.9L34.0936 38.0102L31.4138 37.6205C31.2949 37.6032 31.1821 37.5572 31.0849 37.4866C30.9878 37.416 30.9092 37.3229 30.856 37.2152L29.6566 34.7874Z" fill="#F8D557"/>
<path d="M42.1733 34.2726C42.2345 34.1485 42.3292 34.0441 42.4467 33.9711C42.5642 33.8981 42.6998 33.8594 42.8381 33.8594C42.9764 33.8594 43.112 33.8981 43.2295 33.9711C43.3469 34.0441 43.4416 34.1485 43.5029 34.2726L44.7559 36.8115L47.5576 37.2193C47.6946 37.2391 47.8233 37.2968 47.9292 37.3859C48.0351 37.475 48.1139 37.5919 48.1568 37.7235C48.1996 37.8551 48.2048 37.996 48.1717 38.1304C48.1386 38.2648 48.0686 38.3872 47.9695 38.4838L45.9413 40.4602L46.42 43.2504C46.4434 43.3868 46.4282 43.527 46.3761 43.6552C46.324 43.7834 46.2371 43.8944 46.1251 43.9758C46.0132 44.0571 45.8807 44.1055 45.7426 44.1155C45.6046 44.1255 45.4666 44.0966 45.3441 44.0322L42.8381 42.7141L40.3321 44.0322C40.2096 44.0966 40.0715 44.1255 39.9335 44.1155C39.7955 44.1055 39.663 44.0571 39.551 43.9758C39.4391 43.8944 39.3521 43.7834 39.3 43.6552C39.2479 43.527 39.2327 43.3868 39.2562 43.2504L39.734 40.4602L37.7074 38.483C37.6086 38.3864 37.5388 38.2641 37.5058 38.1299C37.4728 37.9957 37.478 37.855 37.5207 37.7236C37.5635 37.5922 37.6421 37.4753 37.7477 37.3862C37.8534 37.2971 37.9818 37.2393 38.1185 37.2193L40.9194 36.8115L42.1733 34.2726ZM42.8373 34.7874L41.6394 37.2152C41.5863 37.3229 41.5077 37.416 41.4106 37.4866C41.3134 37.5572 41.2006 37.6032 41.0817 37.6205L38.4019 38.0102L40.3411 39.9C40.4271 39.984 40.4914 40.0876 40.5284 40.202C40.5655 40.3164 40.5741 40.4381 40.5537 40.5565L40.0965 43.2257L42.4937 41.9652C42.6001 41.9094 42.7184 41.8802 42.8385 41.8802C42.9586 41.8802 43.0769 41.9094 43.1832 41.9652L45.5805 43.2257L45.1225 40.5565C45.102 40.4381 45.1107 40.3164 45.1477 40.202C45.1847 40.0876 45.249 39.984 45.335 39.9L47.2743 38.0102L44.5944 37.6205C44.4756 37.6032 44.3627 37.5572 44.2656 37.4866C44.1684 37.416 44.0899 37.3229 44.0367 37.2152L42.8373 34.7874Z" fill="#F8D557"/>
<path d="M42.8373 34.7874L41.6394 37.2152C41.5863 37.3229 41.5077 37.416 41.4106 37.4866C41.3134 37.5572 41.2006 37.6032 41.0817 37.6205L38.4019 38.0102L40.3411 39.9C40.4271 39.984 40.4914 40.0876 40.5284 40.202C40.5655 40.3164 40.5741 40.4381 40.5537 40.5565L40.0965 43.2257L42.4937 41.9652C42.6001 41.9094 42.7184 41.8802 42.8385 41.8802C42.9586 41.8802 43.0769 41.9094 43.1832 41.9652L45.5805 43.2257L45.1225 40.5565C45.102 40.4381 45.1107 40.3164 45.1477 40.202C45.1847 40.0876 45.249 39.984 45.335 39.9L47.2743 38.0102L44.5944 37.6205C44.4756 37.6032 44.3627 37.5572 44.2656 37.4866C44.1684 37.416 44.0899 37.3229 44.0367 37.2152L42.8373 34.7874Z" fill="#F8D557"/>
<path d="M55.3549 34.2726C55.4161 34.1485 55.5109 34.0441 55.6283 33.9711C55.7458 33.8981 55.8814 33.8594 56.0197 33.8594C56.158 33.8594 56.2936 33.8981 56.4111 33.9711C56.5286 34.0441 56.6233 34.1485 56.6845 34.2726L57.9375 36.8115L60.7393 37.2193C60.8763 37.2391 61.005 37.2968 61.1108 37.3859C61.2167 37.475 61.2956 37.5919 61.3384 37.7235C61.3813 37.8551 61.3865 37.996 61.3534 38.1304C61.3203 38.2648 61.2502 38.3872 61.1512 38.4838L59.123 40.4602L59.6016 43.2504C59.6251 43.3868 59.6099 43.527 59.5578 43.6552C59.5056 43.7834 59.4187 43.8944 59.3067 43.9758C59.1948 44.0571 59.0623 44.1055 58.9243 44.1155C58.7863 44.1255 58.6482 44.0966 58.5257 44.0322L56.0197 42.7141L53.5137 44.0322C53.3912 44.0966 53.2532 44.1255 53.1151 44.1155C52.9771 44.1055 52.8446 44.0571 52.7327 43.9758C52.6207 43.8944 52.5338 43.7834 52.4817 43.6552C52.4296 43.527 52.4144 43.3868 52.4378 43.2504L52.9156 40.4602L50.8891 38.483C50.7903 38.3864 50.7204 38.2641 50.6875 38.1299C50.6545 37.9957 50.6596 37.855 50.7024 37.7236C50.7451 37.5922 50.8237 37.4753 50.9294 37.3862C51.035 37.2971 51.1634 37.2393 51.3001 37.2193L54.1011 36.8115L55.3549 34.2726ZM56.0189 34.7874L54.8211 37.2152C54.7679 37.3229 54.6894 37.416 54.5922 37.4866C54.4951 37.5572 54.3822 37.6032 54.2634 37.6205L51.5835 38.0102L53.5228 39.9C53.6088 39.984 53.6731 40.0876 53.7101 40.202C53.7471 40.3164 53.7558 40.4381 53.7353 40.5565L53.2781 43.2257L55.6754 41.9652C55.7817 41.9094 55.9 41.8802 56.0201 41.8802C56.1402 41.8802 56.2586 41.9094 56.3649 41.9652L58.7622 43.2257L58.3041 40.5565C58.2837 40.4381 58.2923 40.3164 58.3293 40.202C58.3664 40.0876 58.4307 39.984 58.5167 39.9L60.4559 38.0102L57.7761 37.6205C57.6572 37.6032 57.5444 37.5572 57.4472 37.4866C57.3501 37.416 57.2715 37.3229 57.2184 37.2152L56.0189 34.7874Z" fill="#F8D557"/>
<path d="M56.0189 34.7874L54.8211 37.2152C54.7679 37.3229 54.6894 37.416 54.5922 37.4866C54.4951 37.5572 54.3822 37.6032 54.2634 37.6205L51.5835 38.0102L53.5228 39.9C53.6088 39.984 53.6731 40.0876 53.7101 40.202C53.7471 40.3164 53.7558 40.4381 53.7353 40.5565L53.2781 43.2257L55.6754 41.9652C55.7817 41.9094 55.9 41.8802 56.0201 41.8802C56.1402 41.8802 56.2586 41.9094 56.3649 41.9652L58.7622 43.2257L58.3041 40.5565C58.2837 40.4381 58.2923 40.3164 58.3293 40.202C58.3664 40.0876 58.4307 39.984 58.5167 39.9L60.4559 38.0102L57.7761 37.6205C57.6572 37.6032 57.5444 37.5572 57.4472 37.4866C57.3501 37.416 57.2715 37.3229 57.2184 37.2152L56.0189 34.7874Z" fill="#F8D557"/>
<path d="M68.5365 34.2726C68.5978 34.1485 68.6925 34.0441 68.81 33.9711C68.9275 33.8981 69.063 33.8594 69.2014 33.8594C69.3397 33.8594 69.4752 33.8981 69.5927 33.9711C69.7102 34.0441 69.8049 34.1485 69.8662 34.2726L71.1192 36.8115L73.9209 37.2193C74.0579 37.2391 74.1866 37.2968 74.2925 37.3859C74.3984 37.475 74.4772 37.5919 74.5201 37.7235C74.5629 37.8551 74.5681 37.996 74.535 38.1304C74.5019 38.2648 74.4319 38.3872 74.3328 38.4838L72.3046 40.4602L72.7833 43.2504C72.8067 43.3868 72.7915 43.527 72.7394 43.6552C72.6873 43.7834 72.6003 43.8944 72.4884 43.9758C72.3764 44.0571 72.244 44.1055 72.1059 44.1155C71.9679 44.1255 71.8298 44.0966 71.7074 44.0322L69.2014 42.7141L66.6953 44.0322C66.5729 44.0966 66.4348 44.1255 66.2968 44.1155C66.1588 44.1055 66.0263 44.0571 65.9143 43.9758C65.8024 43.8944 65.7154 43.7834 65.6633 43.6552C65.6112 43.527 65.596 43.3868 65.6195 43.2504L66.0973 40.4602L64.0707 38.483C63.9719 38.3864 63.9021 38.2641 63.8691 38.1299C63.8361 37.9957 63.8413 37.855 63.884 37.7236C63.9268 37.5922 64.0054 37.4753 64.111 37.3862C64.2166 37.2971 64.3451 37.2393 64.4818 37.2193L67.2827 36.8115L68.5365 34.2726ZM69.2005 34.7874L68.0027 37.2152C67.9495 37.3229 67.871 37.416 67.7738 37.4866C67.6767 37.5572 67.5638 37.6032 67.445 37.6205L64.7652 38.0102L66.7044 39.9C66.7904 39.984 66.8547 40.0876 66.8917 40.202C66.9288 40.3164 66.9374 40.4381 66.917 40.5565L66.4597 43.2257L68.857 41.9652C68.9633 41.9094 69.0817 41.8802 69.2018 41.8802C69.3219 41.8802 69.4402 41.9094 69.5465 41.9652L71.9438 43.2257L71.4858 40.5565C71.4653 40.4381 71.474 40.3164 71.511 40.202C71.548 40.0876 71.6123 39.984 71.6983 39.9L73.6375 38.0102L70.9577 37.6205C70.8389 37.6032 70.726 37.5572 70.6289 37.4866C70.5317 37.416 70.4532 37.3229 70.4 37.2152L69.2005 34.7874Z" fill="#CFCFCF"/>
<path d="M11.2537 57.0156V52.5481L10.3049 53.1188V52.5411L11.2537 51.9739H11.7754V57.0156H11.2537ZM15.3231 57.0156V56.0388H12.9633V55.5486L14.6509 51.9739H15.2286L13.541 55.5486H15.3231V54.0781H15.8413V55.5486H16.391V56.0388H15.8413V57.0156H15.3231ZM20.2145 57.1207C19.8387 57.1207 19.5178 57.0355 19.2517 56.8651C18.9856 56.6947 18.7814 56.4589 18.639 56.1578C18.4966 55.8567 18.4254 55.5113 18.4254 55.1215C18.4254 54.7247 18.4978 54.3769 18.6425 54.0781C18.7872 53.7794 18.9926 53.5471 19.2587 53.3814C19.5271 53.2134 19.8457 53.1293 20.2145 53.1293C20.5926 53.1293 20.9147 53.2145 21.1808 53.3849C21.4493 53.553 21.6535 53.7876 21.7935 54.0887C21.9359 54.3874 22.0071 54.7317 22.0071 55.1215C22.0071 55.5183 21.9359 55.8672 21.7935 56.1683C21.6512 56.4671 21.4458 56.7005 21.1773 56.8686C20.9089 57.0366 20.588 57.1207 20.2145 57.1207ZM20.2145 56.627C20.6347 56.627 20.9474 56.4881 21.1528 56.2104C21.3582 55.9303 21.4609 55.5673 21.4609 55.1215C21.4609 54.664 21.3571 54.2999 21.1493 54.0291C20.9439 53.7584 20.6323 53.623 20.2145 53.623C19.9321 53.623 19.6987 53.6872 19.5143 53.8156C19.3322 53.9416 19.1957 54.1178 19.1046 54.3442C19.0159 54.5683 18.9716 54.8274 18.9716 55.1215C18.9716 55.5766 19.0766 55.9419 19.2867 56.2174C19.4968 56.4905 19.806 56.627 20.2145 56.627ZM23.7164 57.0156V53.7105H22.3754V53.2344H25.572V53.7105H24.2311V57.0156H23.7164ZM27.6015 57.1207C27.2211 57.1207 26.8885 57.0378 26.6037 56.8721C26.3213 56.704 26.0984 56.4718 25.935 56.1753L26.3481 55.9128C26.4858 56.1462 26.6574 56.3236 26.8628 56.4449C27.0682 56.5663 27.3039 56.627 27.57 56.627C27.8478 56.627 28.0707 56.5628 28.2387 56.4344C28.4068 56.3061 28.4908 56.1298 28.4908 55.9058C28.4908 55.7517 28.4547 55.6292 28.3823 55.5381C28.3123 55.4471 28.2049 55.3817 28.0602 55.3421C27.9178 55.3024 27.7392 55.2825 27.5245 55.2825H27.0764V54.8414H27.5175C27.7789 54.8414 27.989 54.7947 28.1477 54.7014C28.3088 54.6057 28.3893 54.4563 28.3893 54.2532C28.3893 54.0385 28.3088 53.8797 28.1477 53.777C27.989 53.672 27.7988 53.6195 27.577 53.6195C27.353 53.6195 27.1405 53.6662 26.9398 53.7595C26.7414 53.8506 26.5745 53.9684 26.4391 54.1132L26.11 53.7665C26.2991 53.5588 26.5197 53.4013 26.7718 53.2939C27.0262 53.1842 27.3074 53.1293 27.6155 53.1293C27.8583 53.1293 28.0777 53.1725 28.2738 53.2589C28.4722 53.3429 28.6285 53.4666 28.7429 53.63C28.8596 53.7934 28.918 53.9895 28.918 54.2182C28.918 54.4329 28.8655 54.6185 28.7604 54.7749C28.6577 54.9313 28.5118 55.0608 28.3228 55.1635L28.2948 54.9709C28.4582 55.0013 28.5935 55.0666 28.7009 55.167C28.8083 55.2674 28.8876 55.3876 28.939 55.5276C28.9903 55.6677 29.016 55.8101 29.016 55.9548C29.016 56.1952 28.953 56.4029 28.8269 56.578C28.7032 56.7507 28.534 56.8849 28.3193 56.9806C28.1069 57.074 27.8676 57.1207 27.6015 57.1207ZM29.7921 57.0156L29.7851 53.2344H30.3033V54.6593H30.9615C31.0712 54.6593 31.1786 54.6617 31.2836 54.6663C31.3886 54.671 31.4832 54.6803 31.5672 54.6944C31.7539 54.7317 31.9197 54.7947 32.0644 54.8834C32.2091 54.9721 32.3235 55.0947 32.4075 55.251C32.4915 55.4051 32.5335 55.6 32.5335 55.8357C32.5335 56.1602 32.4495 56.4158 32.2814 56.6025C32.1134 56.7892 31.9021 56.9106 31.6477 56.9666C31.552 56.9876 31.4482 57.0016 31.3361 57.0086C31.2241 57.0133 31.1144 57.0156 31.007 57.0156H29.7921ZM30.3033 56.5745H30.986C31.063 56.5745 31.1506 56.5721 31.2486 56.5675C31.3466 56.5628 31.433 56.55 31.5077 56.529C31.6337 56.494 31.7469 56.4239 31.8473 56.3189C31.95 56.2115 32.0013 56.0505 32.0013 55.8357C32.0013 55.6233 31.9523 55.4634 31.8543 55.3561C31.7563 55.2464 31.6256 55.174 31.4622 55.139C31.3875 55.1227 31.3081 55.1122 31.2241 55.1075C31.1424 55.1028 31.063 55.1005 30.986 55.1005H30.3033V56.5745ZM32.9852 57.0156V53.2344H33.4998V57.0156H32.9852ZM34.4761 57.0156V53.2344H36.0341C36.1135 53.2344 36.2092 53.239 36.3212 53.2484C36.4356 53.2577 36.5418 53.2752 36.6398 53.3009C36.8522 53.3569 37.0226 53.4713 37.151 53.644C37.2817 53.8167 37.3471 54.0245 37.3471 54.2672C37.3471 54.4026 37.3261 54.524 37.2841 54.6313C37.2444 54.7364 37.1872 54.8274 37.1125 54.9044C37.0775 54.9441 37.039 54.9791 36.997 55.0095C36.9549 55.0375 36.9141 55.0608 36.8744 55.0795C36.9491 55.0935 37.0296 55.1262 37.116 55.1775C37.2514 55.2569 37.3541 55.3642 37.4241 55.4996C37.4941 55.6327 37.5291 55.7949 37.5291 55.9863C37.5291 56.2454 37.4673 56.4566 37.3436 56.62C37.2199 56.7834 37.0541 56.8954 36.8464 56.9561C36.753 56.9818 36.6515 56.9981 36.5418 57.0051C36.4344 57.0121 36.3329 57.0156 36.2372 57.0156H34.4761ZM34.9943 56.578H36.2127C36.2617 56.578 36.3236 56.5745 36.3983 56.5675C36.473 56.5581 36.5395 56.5465 36.5978 56.5325C36.7355 56.4975 36.8359 56.4274 36.8989 56.3224C36.9643 56.215 36.997 56.0983 36.997 55.9723C36.997 55.8066 36.9479 55.6712 36.8499 55.5661C36.7542 55.4588 36.6258 55.3934 36.4648 55.3701C36.4111 55.3584 36.3551 55.3514 36.2967 55.3491C36.2384 55.3467 36.1859 55.3456 36.1392 55.3456H34.9943V56.578ZM34.9943 54.9044H36.0516C36.1123 54.9044 36.18 54.9009 36.2547 54.8939C36.3317 54.8846 36.3983 54.8694 36.4543 54.8484C36.5757 54.8064 36.6644 54.734 36.7204 54.6313C36.7787 54.5286 36.8079 54.4166 36.8079 54.2952C36.8079 54.1622 36.7764 54.0455 36.7134 53.9451C36.6527 53.8447 36.5605 53.7747 36.4368 53.735C36.3527 53.7047 36.2617 53.6872 36.1637 53.6825C36.068 53.6778 36.0073 53.6755 35.9816 53.6755H34.9943V54.9044ZM39.806 57.1207C39.4302 57.1207 39.1093 57.0355 38.8432 56.8651C38.5771 56.6947 38.3728 56.4589 38.2305 56.1578C38.0881 55.8567 38.0169 55.5113 38.0169 55.1215C38.0169 54.7247 38.0893 54.3769 38.234 54.0781C38.3787 53.7794 38.5841 53.5471 38.8502 53.3814C39.1186 53.2134 39.4372 53.1293 39.806 53.1293C40.1841 53.1293 40.5062 53.2145 40.7723 53.3849C41.0407 53.553 41.245 53.7876 41.385 54.0887C41.5274 54.3874 41.5986 54.7317 41.5986 55.1215C41.5986 55.5183 41.5274 55.8672 41.385 56.1683C41.2426 56.4671 41.0372 56.7005 40.7688 56.8686C40.5004 57.0366 40.1794 57.1207 39.806 57.1207ZM39.806 56.627C40.2261 56.627 40.5389 56.4881 40.7443 56.2104C40.9497 55.9303 41.0524 55.5673 41.0524 55.1215C41.0524 54.664 40.9485 54.2999 40.7408 54.0291C40.5354 53.7584 40.2238 53.623 39.806 53.623C39.5236 53.623 39.2902 53.6872 39.1058 53.8156C38.9237 53.9416 38.7872 54.1178 38.6961 54.3442C38.6074 54.5683 38.5631 54.8274 38.5631 55.1215C38.5631 55.5766 38.6681 55.9419 38.8782 56.2174C39.0883 56.4905 39.3975 56.627 39.806 56.627ZM42.3674 57.0156V53.2344H43.9254C44.0048 53.2344 44.1005 53.239 44.2125 53.2484C44.3269 53.2577 44.4331 53.2752 44.5311 53.3009C44.7435 53.3569 44.9139 53.4713 45.0423 53.644C45.173 53.8167 45.2384 54.0245 45.2384 54.2672C45.2384 54.4026 45.2174 54.524 45.1754 54.6313C45.1357 54.7364 45.0785 54.8274 45.0038 54.9044C44.9688 54.9441 44.9303 54.9791 44.8883 55.0095C44.8462 55.0375 44.8054 55.0608 44.7657 55.0795C44.8404 55.0935 44.9209 55.1262 45.0073 55.1775C45.1427 55.2569 45.2454 55.3642 45.3154 55.4996C45.3854 55.6327 45.4204 55.7949 45.4204 55.9863C45.4204 56.2454 45.3586 56.4566 45.2349 56.62C45.1112 56.7834 44.9454 56.8954 44.7377 56.9561C44.6443 56.9818 44.5428 56.9981 44.4331 57.0051C44.3257 57.0121 44.2242 57.0156 44.1285 57.0156H42.3674ZM42.8856 56.578H44.104C44.153 56.578 44.2149 56.5745 44.2896 56.5675C44.3643 56.5581 44.4308 56.5465 44.4891 56.5325C44.6268 56.4975 44.7272 56.4274 44.7902 56.3224C44.8556 56.215 44.8883 56.0983 44.8883 55.9723C44.8883 55.8066 44.8392 55.6712 44.7412 55.5661C44.6455 55.4588 44.5171 55.3934 44.3561 55.3701C44.3024 55.3584 44.2464 55.3514 44.188 55.3491C44.1297 55.3467 44.0772 55.3456 44.0305 55.3456H42.8856V56.578ZM42.8856 54.9044H43.9429C44.0036 54.9044 44.0713 54.9009 44.146 54.8939C44.223 54.8846 44.2896 54.8694 44.3456 54.8484C44.467 54.8064 44.5556 54.734 44.6117 54.6313C44.67 54.5286 44.6992 54.4166 44.6992 54.2952C44.6992 54.1622 44.6677 54.0455 44.6047 53.9451C44.544 53.8447 44.4518 53.7747 44.3281 53.735C44.244 53.7047 44.153 53.6872 44.055 53.6825C43.9593 53.6778 43.8986 53.6755 43.8729 53.6755H42.8856V54.9044Z" fill="#272833"/>
<path d="M0 0L111.625 0L0 0ZM112.863 63.4328C112.863 67.7551 109.359 71.259 105.037 71.259H7.82613C3.50388 71.259 0 67.7551 0 63.4328C0 66.3902 2.95063 68.7876 6.59043 68.7876H105.035C107.991 68.7876 110.388 66.3902 110.388 63.4328H112.863ZM0 70.0233L0 0L0 70.0233ZM105.035 0C109.358 0 112.863 3.50459 112.863 7.82773V63.4328C112.863 67.7551 109.359 71.259 105.037 71.259L105.035 68.7876C107.991 68.7876 110.388 66.3902 110.388 63.4328V6.59043C110.388 2.95063 107.991 0 105.035 0Z" fill="#F0F0F0" mask="url(#path-1-inside-1_618_14996)"/>
</svg>
