<svg width="409" height="226" viewBox="0 0 409 226" fill="none" xmlns="http://www.w3.org/2000/svg">
<mask id="path-1-inside-1_618_14732" fill="white">
<path d="M0 9.49579C0 4.67426 3.90862 0.765625 8.73014 0.765625L399.95 0.765625C404.771 0.765625 408.68 4.67424 408.68 9.49577V216.291C408.68 221.113 404.771 225.021 399.95 225.021L8.73015 225.021C3.90862 225.021 0 221.113 0 216.291L0 9.49579Z"/>
</mask>
<path d="M0 9.49579C0 4.67426 3.90862 0.765625 8.73014 0.765625L399.95 0.765625C404.771 0.765625 408.68 4.67424 408.68 9.49577V216.291C408.68 221.113 404.771 225.021 399.95 225.021L8.73015 225.021C3.90862 225.021 0 221.113 0 216.291L0 9.49579Z" fill="white"/>
<line y1="41.4147" x2="408.68" y2="41.4147" stroke="#E6E6E6" stroke-width="0.545634"/>
<line x1="52.9275" y1="184.099" x2="390.675" y2="184.099" stroke="#D7D7D7" stroke-width="1.09127" stroke-linecap="round"/>
<line x1="52.3809" y1="155.454" x2="356.299" y2="155.454" stroke="#E6E6E6" stroke-width="0.545634" stroke-dasharray="3.27 3.27"/>
<line x1="52.3809" y1="126.534" x2="356.299" y2="126.534" stroke="#E6E6E6" stroke-width="0.545634" stroke-dasharray="3.27 3.27"/>
<line x1="52.3809" y1="97.6159" x2="356.299" y2="97.6159" stroke="#E6E6E6" stroke-width="0.545634" stroke-dasharray="3.27 3.27"/>
<line x1="52.3809" y1="68.6979" x2="356.299" y2="68.6979" stroke="#E6E6E6" stroke-width="0.545634" stroke-dasharray="3.27 3.27"/>
<path d="M13.7058 26.6797L13.7058 20.394H16.1983C16.6232 20.394 16.9709 20.4798 17.2415 20.6515C17.5151 20.8203 17.7173 21.0371 17.8483 21.3019C17.9822 21.5667 18.0491 21.8403 18.0491 22.1226C18.0491 22.4688 17.9661 22.7628 17.8003 23.0043C17.6373 23.2458 17.4147 23.4088 17.1324 23.4932V23.2749C17.5282 23.3651 17.8279 23.5528 18.0316 23.838C18.2382 24.1232 18.3415 24.4477 18.3415 24.8114C18.3415 25.1839 18.2702 25.5098 18.1277 25.7892C17.9851 26.0686 17.7726 26.2868 17.4904 26.444C17.211 26.6011 16.8647 26.6797 16.4515 26.6797H13.7058ZM14.7709 25.6888H16.3205C16.5038 25.6888 16.6683 25.6524 16.8138 25.5797C16.9593 25.504 17.0728 25.3993 17.1542 25.2654C17.2386 25.1286 17.2808 24.9671 17.2808 24.7809C17.2808 24.6121 17.2445 24.4608 17.1717 24.3269C17.099 24.1931 16.9927 24.0868 16.8531 24.0083C16.7134 23.9268 16.546 23.886 16.3511 23.886H14.7709V25.6888ZM14.7709 22.9039H16.1852C16.3365 22.9039 16.4718 22.8748 16.5911 22.8166C16.7105 22.7584 16.805 22.6726 16.8749 22.5591C16.9447 22.4456 16.9796 22.3059 16.9796 22.14C16.9796 21.9218 16.9098 21.7399 16.7701 21.5944C16.6304 21.4489 16.4355 21.3761 16.1852 21.3761H14.7709L14.7709 22.9039ZM18.9471 26.6797L18.9427 21.9654H19.9947V23.5368H20.5229C20.6538 23.5368 20.8008 23.5397 20.9637 23.5456C21.1296 23.5514 21.2678 23.5645 21.3784 23.5849C21.6432 23.6431 21.8687 23.7362 22.055 23.8642C22.2441 23.9923 22.3882 24.1596 22.4871 24.3662C22.5861 24.5728 22.6355 24.8216 22.6355 25.1126C22.6355 25.5288 22.5279 25.862 22.3125 26.1122C22.0972 26.3596 21.796 26.5284 21.409 26.6186C21.2955 26.6448 21.1543 26.6622 20.9855 26.671C20.8168 26.6768 20.6669 26.6797 20.5359 26.6797H18.9471ZM19.9947 25.8547H20.6276C20.6916 25.8547 20.7629 25.8518 20.8415 25.846C20.9201 25.8401 20.9943 25.827 21.0641 25.8067C21.1951 25.7718 21.3115 25.6932 21.4133 25.571C21.5152 25.4458 21.5661 25.293 21.5661 25.1126C21.5661 24.9235 21.5152 24.7678 21.4133 24.6456C21.3115 24.5233 21.1863 24.4433 21.0379 24.4055C20.9681 24.388 20.8968 24.3764 20.824 24.3706C20.7542 24.3647 20.6887 24.3618 20.6276 24.3618H19.9947V25.8547ZM23.1288 26.6797V21.9654H24.1808V26.6797H23.1288ZM27.4088 26.8106C26.949 26.8106 26.5635 26.7015 26.2521 26.4833C25.9407 26.265 25.7064 25.9682 25.5493 25.5928C25.3922 25.2145 25.3136 24.7911 25.3136 24.3225C25.3136 23.8482 25.3922 23.4233 25.5493 23.0479C25.7064 22.6726 25.9363 22.3772 26.239 22.1618C26.5445 21.9436 26.9214 21.8345 27.3695 21.8345C27.8148 21.8345 28.2004 21.9436 28.5263 22.1618C28.8551 22.3772 29.1097 22.6726 29.2902 23.0479C29.4706 23.4204 29.5608 23.8453 29.5608 24.3225C29.5608 24.794 29.472 25.2174 29.2945 25.5928C29.117 25.9682 28.8668 26.265 28.5437 26.4833C28.2207 26.7015 27.8424 26.8106 27.4088 26.8106ZM25.1346 28.7749V21.9654H26.0644V25.2741H26.1953V28.7749H25.1346ZM27.2473 25.8678C27.5209 25.8678 27.7464 25.7994 27.9239 25.6626C28.1014 25.5259 28.2324 25.3411 28.3168 25.1083C28.4041 24.8725 28.4477 24.6106 28.4477 24.3225C28.4477 24.0374 28.4041 23.7784 28.3168 23.5456C28.2295 23.3099 28.0941 23.1236 27.9108 22.9868C27.7275 22.8472 27.4947 22.7773 27.2124 22.7773C26.9447 22.7773 26.7264 22.8428 26.5576 22.9737C26.3888 23.1018 26.2637 23.2822 26.1822 23.515C26.1037 23.7449 26.0644 24.0141 26.0644 24.3225C26.0644 24.6281 26.1037 24.8973 26.1822 25.1301C26.2637 25.3629 26.3903 25.5448 26.562 25.6757C26.7366 25.8038 26.965 25.8678 27.2473 25.8678ZM30.7104 28.7749L31.6183 26.2825L31.6358 27.0158L29.5798 21.9654H30.6755L32.1334 25.7019H31.854L33.2727 21.9654H34.3247L31.6969 28.7749H30.7104ZM37.4594 26.6797V25.0952C37.2964 25.1766 37.1102 25.2407 36.9007 25.2872C36.6941 25.3338 36.4773 25.3571 36.2503 25.3571C35.7643 25.3571 35.3758 25.2479 35.0848 25.0297C34.7967 24.8114 34.6105 24.4942 34.5261 24.0781C34.4999 23.9588 34.481 23.8351 34.4693 23.7071C34.4606 23.5761 34.4548 23.4583 34.4519 23.3535C34.4519 23.2458 34.4519 23.1643 34.4519 23.1091V21.9654H35.5169V23.1091C35.5169 23.1731 35.5199 23.2677 35.5257 23.3928C35.5315 23.515 35.5475 23.6372 35.5737 23.7595C35.629 23.9923 35.7294 24.1625 35.8749 24.2702C36.0204 24.3778 36.2284 24.4317 36.4991 24.4317C36.7086 24.4317 36.8934 24.404 37.0534 24.3487C37.2135 24.2934 37.3488 24.2236 37.4594 24.1392V21.9654L38.5157 21.9654V26.6797H37.4594ZM39.4647 26.6797L39.4734 21.9654H40.5385V24.2352L42.2627 21.9654H43.5766L41.7476 24.3225L43.7337 26.6797H42.3413L40.5385 24.4098V26.6797H39.4647ZM45.2273 26.8106C44.8868 26.8106 44.5987 26.7466 44.363 26.6186C44.1273 26.4876 43.9484 26.3145 43.8261 26.0991C43.7068 25.8838 43.6472 25.6466 43.6472 25.3876C43.6472 25.1606 43.685 24.9569 43.7607 24.7765C43.8363 24.5932 43.9527 24.436 44.1099 24.3051C44.267 24.1712 44.4707 24.0621 44.721 23.9777C44.9101 23.9166 45.1313 23.8613 45.3845 23.8118C45.6405 23.7624 45.917 23.7173 46.2138 23.6765C46.5136 23.6329 46.8264 23.5863 47.1523 23.5368L46.7769 23.7507C46.7798 23.4248 46.7071 23.1847 46.5587 23.0305C46.4103 22.8763 46.16 22.7991 45.8079 22.7991C45.5954 22.7991 45.3903 22.8486 45.1924 22.9476C44.9945 23.0465 44.8563 23.2167 44.7777 23.4583L43.8174 23.1571C43.9338 22.7584 44.155 22.4383 44.4809 22.1968C44.8097 21.9552 45.2521 21.8345 45.8079 21.8345C46.2269 21.8345 46.595 21.9028 46.9122 22.0396C47.2323 22.1764 47.4695 22.4005 47.6237 22.7118C47.7081 22.8777 47.7591 23.0479 47.7765 23.2226C47.794 23.3942 47.8027 23.5819 47.8027 23.7856V26.6797H46.8817V25.6583L47.0345 25.8241C46.822 26.1646 46.5732 26.4149 46.288 26.5749C46.0058 26.7321 45.6522 26.8106 45.2273 26.8106ZM45.4368 25.9725C45.6755 25.9725 45.8792 25.9304 46.048 25.846C46.2167 25.7616 46.3506 25.6583 46.4495 25.536C46.5514 25.4138 46.6198 25.2989 46.6547 25.1912C46.71 25.0573 46.7405 24.9046 46.7464 24.7329C46.7551 24.5583 46.7595 24.4171 46.7595 24.3095L47.0825 24.4055C46.7653 24.455 46.4932 24.4986 46.2662 24.5364C46.0392 24.5743 45.8442 24.6106 45.6813 24.6456C45.5183 24.6776 45.3743 24.7139 45.2491 24.7547C45.1269 24.7983 45.0236 24.8493 44.9392 24.9075C44.8548 24.9657 44.7894 25.0326 44.7428 25.1083C44.6991 25.1839 44.6773 25.2727 44.6773 25.3745C44.6773 25.4909 44.7064 25.5942 44.7646 25.6845C44.8228 25.7718 44.9072 25.8416 45.0178 25.894C45.1313 25.9464 45.271 25.9725 45.4368 25.9725Z" fill="#272833"/>
<path d="M13.0947 41.1415C13.0947 39.9361 14.0719 38.959 15.2773 38.959L46.9122 38.959C48.1176 38.959 49.0947 39.9361 49.0947 41.1415L13.0947 41.1415Z" fill="#00D45F"/>
<path d="M69.3484 26.6797V20.394H74.4425V26.6797H73.3905V21.3805H70.4004V26.6797H69.3484ZM77.6694 26.8106C77.2096 26.8106 76.824 26.7015 76.5127 26.4833C76.2013 26.265 75.967 25.9682 75.8099 25.5928C75.6527 25.2145 75.5742 24.7911 75.5742 24.3225C75.5742 23.8482 75.6527 23.4233 75.8099 23.0479C75.967 22.6726 76.1969 22.3772 76.4996 22.1618C76.8051 21.9436 77.182 21.8345 77.6301 21.8345C78.0754 21.8345 78.4609 21.9436 78.7869 22.1618C79.1157 22.3772 79.3703 22.6726 79.5507 23.0479C79.7312 23.4204 79.8214 23.8453 79.8214 24.3225C79.8214 24.794 79.7326 25.2174 79.5551 25.5928C79.3776 25.9682 79.1273 26.265 78.8043 26.4833C78.4813 26.7015 78.103 26.8106 77.6694 26.8106ZM75.3952 28.7749V21.9654H76.325V25.2741H76.4559V28.7749H75.3952ZM77.5079 25.8678C77.7814 25.8678 78.007 25.7994 78.1845 25.6626C78.362 25.5259 78.4929 25.3411 78.5773 25.1083C78.6646 24.8725 78.7083 24.6106 78.7083 24.3225C78.7083 24.0374 78.6646 23.7784 78.5773 23.5456C78.49 23.3099 78.3547 23.1236 78.1714 22.9868C77.9881 22.8472 77.7552 22.7773 77.473 22.7773C77.2052 22.7773 76.987 22.8428 76.8182 22.9737C76.6494 23.1018 76.5243 23.2822 76.4428 23.515C76.3642 23.7449 76.325 24.0141 76.325 24.3225C76.325 24.6281 76.3642 24.8973 76.4428 25.1301C76.5243 25.3629 76.6509 25.5448 76.8226 25.6757C76.9972 25.8038 77.2256 25.8678 77.5079 25.8678ZM84.6073 21.9654V26.6797H83.599V23.6023L81.3554 26.6797H80.5129V21.9654H81.5212V24.9642L83.7736 21.9654H84.6073ZM87.5311 26.8194C87.0829 26.8135 86.7017 26.7132 86.3874 26.5182C86.0731 26.3232 85.8272 26.0482 85.6497 25.6932C85.4722 25.3382 85.3645 24.9191 85.3267 24.436C85.3092 24.1887 85.3078 23.9122 85.3223 23.6067C85.3369 23.3011 85.3689 23.0028 85.4184 22.7118C85.4678 22.4208 85.5362 22.1735 85.6235 21.9698C85.7137 21.7661 85.8316 21.5784 85.9771 21.4067C86.1226 21.2321 86.2797 21.0866 86.4485 20.9702C86.6406 20.8363 86.8486 20.733 87.0727 20.6603C87.2997 20.5875 87.5369 20.5322 87.7842 20.4944C88.0316 20.4536 88.2862 20.4173 88.5481 20.3853C88.81 20.3532 89.069 20.3125 89.3251 20.263L89.4211 21.1928C89.2582 21.2335 89.069 21.2655 88.8537 21.2888C88.6412 21.3092 88.4201 21.3325 88.1902 21.3587C87.9632 21.3849 87.7464 21.4227 87.5398 21.4722C87.3332 21.5216 87.1542 21.5944 87.0029 21.6904C86.7934 21.8185 86.6333 22.0018 86.5227 22.2404C86.4121 22.479 86.3467 22.7308 86.3263 22.9956C86.5067 22.7278 86.7308 22.5401 86.9985 22.4325C87.2692 22.3219 87.5427 22.2666 87.8192 22.2666C88.2382 22.2666 88.5976 22.3655 88.8973 22.5634C89.2 22.7613 89.4313 23.0305 89.5914 23.371C89.7543 23.7085 89.8358 24.0854 89.8358 24.5015C89.8358 24.9671 89.7383 25.3745 89.5434 25.7237C89.3484 26.0729 89.0777 26.3436 88.7315 26.5356C88.3852 26.7277 87.985 26.8223 87.5311 26.8194ZM87.5834 25.8329C87.9617 25.8329 88.2469 25.7165 88.439 25.4837C88.634 25.2479 88.7315 24.9351 88.7315 24.5452C88.7315 24.1465 88.6311 23.8322 88.4303 23.6023C88.2324 23.3724 87.9501 23.2575 87.5834 23.2575C87.211 23.2575 86.9272 23.3724 86.7322 23.6023C86.5373 23.8322 86.4398 24.1465 86.4398 24.5452C86.4398 24.9526 86.5387 25.2698 86.7366 25.4968C86.9345 25.7208 87.2168 25.8329 87.5834 25.8329ZM90.531 26.6797L90.5267 21.9654H91.5786V23.5368H92.1068C92.2378 23.5368 92.3847 23.5397 92.5477 23.5456C92.7136 23.5514 92.8518 23.5645 92.9624 23.5849C93.2272 23.6431 93.4527 23.7362 93.639 23.8642C93.8281 23.9923 93.9722 24.1596 94.0711 24.3662C94.17 24.5728 94.2195 24.8216 94.2195 25.1126C94.2195 25.5288 94.1118 25.862 93.8965 26.1122C93.6811 26.3596 93.38 26.5284 92.9929 26.6186C92.8794 26.6448 92.7383 26.6622 92.5695 26.671C92.4007 26.6768 92.2509 26.6797 92.1199 26.6797H90.531ZM91.5786 25.8547H92.2116C92.2756 25.8547 92.3469 25.8518 92.4255 25.846C92.504 25.8401 92.5782 25.827 92.6481 25.8067C92.779 25.7718 92.8954 25.6932 92.9973 25.571C93.0991 25.4458 93.1501 25.293 93.1501 25.1126C93.1501 24.9235 93.0991 24.7678 92.9973 24.6456C92.8954 24.5233 92.7703 24.4433 92.6219 24.4055C92.552 24.388 92.4808 24.3764 92.408 24.3706C92.3382 24.3647 92.2727 24.3618 92.2116 24.3618H91.5786V25.8547ZM94.7128 26.6797V21.9654H95.7647V26.6797H94.7128ZM96.2908 26.6797V25.7979C96.4625 25.83 96.5949 25.827 96.688 25.7892C96.7811 25.7485 96.851 25.6728 96.8975 25.5622C96.9441 25.4516 96.9848 25.3047 97.0198 25.1214C97.0663 24.8624 97.1071 24.5641 97.142 24.2265C97.1798 23.889 97.2118 23.5281 97.238 23.144C97.2671 22.7599 97.2933 22.367 97.3166 21.9654H100.787V26.6797H99.7392V22.9519H98.242C98.2274 23.1411 98.21 23.3535 98.1896 23.5892C98.1692 23.822 98.1474 24.0577 98.1241 24.2964C98.1009 24.535 98.0747 24.762 98.0456 24.9773C98.0194 25.1897 97.9917 25.3716 97.9626 25.5229C97.8957 25.8634 97.7997 26.1326 97.6745 26.3305C97.5523 26.5284 97.3806 26.655 97.1594 26.7102C96.9383 26.7684 96.6487 26.7583 96.2908 26.6797ZM101.747 26.6797L101.743 21.9654H102.794V23.5368H103.641C103.772 23.5368 103.919 23.5397 104.082 23.5456C104.248 23.5514 104.386 23.5645 104.497 23.5849C104.762 23.6431 104.987 23.7362 105.173 23.8642C105.363 23.9923 105.507 24.1596 105.606 24.3662C105.705 24.5728 105.754 24.8216 105.754 25.1126C105.754 25.5288 105.646 25.862 105.431 26.1122C105.219 26.3596 104.919 26.5284 104.532 26.6186C104.415 26.6448 104.273 26.6622 104.104 26.671C103.938 26.6768 103.788 26.6797 103.654 26.6797H101.747ZM102.794 25.8547H103.746C103.81 25.8547 103.881 25.8518 103.96 25.846C104.039 25.8401 104.114 25.827 104.187 25.8067C104.318 25.7718 104.433 25.6932 104.532 25.571C104.634 25.4458 104.685 25.293 104.685 25.1126C104.685 24.9235 104.634 24.7678 104.532 24.6456C104.43 24.5233 104.305 24.4433 104.156 24.4055C104.089 24.388 104.02 24.3764 103.947 24.3706C103.874 24.3647 103.807 24.3618 103.746 24.3618H102.794V25.8547Z" fill="#9E9E9E"/>
<path d="M129.65 26.8106C129.022 26.8106 128.483 26.6739 128.035 26.4003C127.587 26.1239 127.242 25.7397 127.001 25.2479C126.762 24.7561 126.643 24.1858 126.643 23.5368C126.643 22.8879 126.762 22.3175 127.001 21.8257C127.242 21.3339 127.587 20.9513 128.035 20.6777C128.483 20.4013 129.022 20.263 129.65 20.263C130.375 20.263 130.979 20.4449 131.462 20.8087C131.945 21.1695 132.284 21.6569 132.479 22.271L131.418 22.5634C131.296 22.1531 131.088 21.833 130.794 21.6031C130.5 21.3703 130.119 21.2539 129.65 21.2539C129.228 21.2539 128.876 21.3485 128.594 21.5376C128.315 21.7268 128.104 21.9931 127.961 22.3364C127.821 22.6769 127.75 23.077 127.747 23.5368C127.747 23.9966 127.817 24.3982 127.957 24.7416C128.099 25.0821 128.312 25.3469 128.594 25.536C128.876 25.7252 129.228 25.8198 129.65 25.8198C130.119 25.8198 130.5 25.7034 130.794 25.4706C131.088 25.2378 131.296 24.9177 131.418 24.5102L132.479 24.8027C132.284 25.4167 131.945 25.9056 131.462 26.2694C130.979 26.6302 130.375 26.8106 129.65 26.8106ZM134.358 26.6797V22.8995H132.783V21.9654H136.986V22.8995H135.41V26.6797H134.358ZM139.548 26.8106C139.077 26.8106 138.665 26.7044 138.313 26.492C137.961 26.2796 137.687 25.9871 137.492 25.6146C137.3 25.2392 137.204 24.8085 137.204 24.3225C137.204 23.8278 137.303 23.3942 137.501 23.0218C137.699 22.6493 137.974 22.3583 138.326 22.1487C138.678 21.9392 139.086 21.8345 139.548 21.8345C140.023 21.8345 140.436 21.9407 140.788 22.1531C141.14 22.3655 141.414 22.6595 141.609 23.0349C141.804 23.4073 141.901 23.8366 141.901 24.3225C141.901 24.8114 141.802 25.2436 141.604 25.619C141.409 25.9915 141.136 26.2839 140.784 26.4964C140.431 26.7059 140.02 26.8106 139.548 26.8106ZM139.548 25.8241C139.967 25.8241 140.279 25.6845 140.482 25.4051C140.686 25.1257 140.788 24.7649 140.788 24.3225C140.788 23.8657 140.685 23.5019 140.478 23.2313C140.271 22.9577 139.961 22.821 139.548 22.821C139.266 22.821 139.033 22.885 138.85 23.013C138.669 23.1382 138.536 23.3142 138.448 23.5412C138.361 23.7653 138.317 24.0257 138.317 24.3225C138.317 24.7794 138.421 25.1446 138.627 25.4182C138.837 25.6888 139.144 25.8241 139.548 25.8241ZM146.687 21.9654V26.6797H145.678V23.6023L143.435 26.6797H142.592V21.9654H143.6V24.9642L145.853 21.9654H146.687ZM147.642 26.6797V21.9654H148.506L150.195 25.2218L151.889 21.9654H152.749V26.6797H151.745V24.0825L150.405 26.6797H149.99L148.65 24.0825V26.6797H147.642ZM155.788 26.8106C155.317 26.8106 154.905 26.7044 154.553 26.492C154.201 26.2796 153.927 25.9871 153.732 25.6146C153.54 25.2392 153.444 24.8085 153.444 24.3225C153.444 23.8278 153.543 23.3942 153.741 23.0218C153.939 22.6493 154.214 22.3583 154.566 22.1487C154.918 21.9392 155.325 21.8345 155.788 21.8345C156.262 21.8345 156.676 21.9407 157.028 22.1531C157.38 22.3655 157.653 22.6595 157.848 23.0349C158.043 23.4073 158.141 23.8366 158.141 24.3225C158.141 24.8114 158.042 25.2436 157.844 25.619C157.649 25.9915 157.375 26.2839 157.023 26.4964C156.671 26.7059 156.259 26.8106 155.788 26.8106ZM155.788 25.8241C156.207 25.8241 156.518 25.6845 156.722 25.4051C156.926 25.1257 157.028 24.7649 157.028 24.3225C157.028 23.8657 156.924 23.5019 156.718 23.2313C156.511 22.9577 156.201 22.821 155.788 22.821C155.506 22.821 155.273 22.885 155.09 23.013C154.909 23.1382 154.775 23.3142 154.688 23.5412C154.601 23.7653 154.557 24.0257 154.557 24.3225C154.557 24.7794 154.66 25.1446 154.867 25.4182C155.077 25.6888 155.384 25.8241 155.788 25.8241ZM160.888 26.8106C160.402 26.8106 159.987 26.703 159.644 26.4876C159.3 26.2694 159.037 25.9725 158.854 25.5971C158.673 25.2218 158.582 24.7969 158.579 24.3225C158.582 23.8395 158.676 23.4117 158.862 23.0392C159.052 22.6638 159.319 22.3699 159.666 22.1575C160.012 21.9421 160.424 21.8345 160.901 21.8345C161.436 21.8345 161.889 21.9698 162.258 22.2404C162.631 22.5081 162.874 22.8748 162.987 23.3404L161.94 23.6241C161.858 23.371 161.723 23.1745 161.534 23.0349C161.345 22.8923 161.129 22.821 160.888 22.821C160.614 22.821 160.389 22.8864 160.211 23.0174C160.034 23.1454 159.903 23.3229 159.818 23.5499C159.734 23.7769 159.692 24.0345 159.692 24.3225C159.692 24.7707 159.792 25.133 159.993 25.4095C160.194 25.6859 160.492 25.8241 160.888 25.8241C161.167 25.8241 161.387 25.7601 161.547 25.6321C161.71 25.504 161.832 25.3192 161.914 25.0777L162.987 25.3178C162.842 25.7979 162.587 26.1675 162.224 26.4265C161.86 26.6826 161.415 26.8106 160.888 26.8106ZM164.758 26.6797V22.8995H163.182V21.9654H167.385V22.8995H165.81V26.6797H164.758ZM167.946 26.6797L167.942 21.9654H168.994V23.5368H169.841C169.972 23.5368 170.119 23.5397 170.282 23.5456C170.447 23.5514 170.586 23.5645 170.696 23.5849C170.961 23.6431 171.187 23.7362 171.373 23.8642C171.562 23.9923 171.706 24.1596 171.805 24.3662C171.904 24.5728 171.953 24.8216 171.953 25.1126C171.953 25.5288 171.846 25.862 171.63 26.1122C171.418 26.3596 171.118 26.5284 170.731 26.6186C170.615 26.6448 170.472 26.6622 170.303 26.671C170.138 26.6768 169.988 26.6797 169.854 26.6797H167.946ZM168.994 25.8547H169.946C170.01 25.8547 170.081 25.8518 170.159 25.846C170.238 25.8401 170.314 25.827 170.386 25.8067C170.517 25.7718 170.632 25.6932 170.731 25.571C170.833 25.4458 170.884 25.293 170.884 25.1126C170.884 24.9235 170.833 24.7678 170.731 24.6456C170.629 24.5233 170.504 24.4433 170.356 24.4055C170.289 24.388 170.219 24.3764 170.146 24.3706C170.074 24.3647 170.007 24.3618 169.946 24.3618H168.994V25.8547Z" fill="#9E9E9E"/>
<path d="M192.635 26.6797V20.394H193.687V23.0392H196.664V20.394H197.711V26.6797H196.664V24.0257H193.687V26.6797H192.635ZM199.991 26.8106C199.651 26.8106 199.363 26.7466 199.127 26.6186C198.891 26.4876 198.712 26.3145 198.59 26.0991C198.471 25.8838 198.411 25.6466 198.411 25.3876C198.411 25.1606 198.449 24.9569 198.525 24.7765C198.6 24.5932 198.717 24.436 198.874 24.3051C199.031 24.1712 199.235 24.0621 199.485 23.9777C199.674 23.9166 199.895 23.8613 200.148 23.8118C200.404 23.7624 200.681 23.7173 200.978 23.6765C201.278 23.6329 201.59 23.5863 201.916 23.5368L201.541 23.7507C201.544 23.4248 201.471 23.1847 201.323 23.0305C201.174 22.8763 200.924 22.7991 200.572 22.7991C200.359 22.7991 200.154 22.8486 199.956 22.9476C199.758 23.0465 199.62 23.2167 199.542 23.4583L198.581 23.1571C198.698 22.7584 198.919 22.4383 199.245 22.1968C199.574 21.9552 200.016 21.8345 200.572 21.8345C200.991 21.8345 201.359 21.9028 201.676 22.0396C201.996 22.1764 202.233 22.4005 202.388 22.7118C202.472 22.8777 202.523 23.0479 202.54 23.2226C202.558 23.3942 202.567 23.5819 202.567 23.7856V26.6797H201.646V25.6583L201.798 25.8241C201.586 26.1646 201.337 26.4149 201.052 26.5749C200.77 26.7321 200.416 26.8106 199.991 26.8106ZM200.201 25.9725C200.439 25.9725 200.643 25.9304 200.812 25.846C200.981 25.7616 201.115 25.6583 201.213 25.536C201.315 25.4138 201.384 25.2989 201.419 25.1912C201.474 25.0573 201.504 24.9046 201.51 24.7329C201.519 24.5583 201.523 24.4171 201.523 24.3095L201.846 24.4055C201.529 24.455 201.257 24.4986 201.03 24.5364C200.803 24.5743 200.608 24.6106 200.445 24.6456C200.282 24.6776 200.138 24.7139 200.013 24.7547C199.891 24.7983 199.788 24.8493 199.703 24.9075C199.619 24.9657 199.553 25.0326 199.507 25.1083C199.463 25.1839 199.441 25.2727 199.441 25.3745C199.441 25.4909 199.47 25.5942 199.529 25.6845C199.587 25.7718 199.671 25.8416 199.782 25.894C199.895 25.9464 200.035 25.9725 200.201 25.9725ZM203.005 26.6797V25.7979C203.176 25.83 203.309 25.827 203.402 25.7892C203.495 25.7485 203.565 25.6728 203.611 25.5622C203.658 25.4516 203.699 25.3047 203.734 25.1214C203.78 24.8624 203.821 24.5641 203.856 24.2265C203.894 23.889 203.926 23.5281 203.952 23.144C203.981 22.7599 204.007 22.367 204.03 21.9654H207.501V26.6797H206.453V22.9519H204.956C204.941 23.1411 204.924 23.3535 204.903 23.5892C204.883 23.822 204.861 24.0577 204.838 24.2964C204.815 24.535 204.789 24.762 204.759 24.9773C204.733 25.1897 204.706 25.3716 204.676 25.5229C204.61 25.8634 204.514 26.1326 204.388 26.3305C204.266 26.5284 204.094 26.655 203.873 26.7102C203.652 26.7684 203.363 26.7583 203.005 26.6797ZM210.547 26.8106C210.076 26.8106 209.664 26.7044 209.312 26.492C208.96 26.2796 208.686 25.9871 208.491 25.6146C208.299 25.2392 208.203 24.8085 208.203 24.3225C208.203 23.8278 208.302 23.3942 208.5 23.0218C208.698 22.6493 208.973 22.3583 209.325 22.1487C209.677 21.9392 210.085 21.8345 210.547 21.8345C211.022 21.8345 211.435 21.9407 211.787 22.1531C212.139 22.3655 212.413 22.6595 212.608 23.0349C212.803 23.4073 212.9 23.8366 212.9 24.3225C212.9 24.8114 212.801 25.2436 212.603 25.619C212.408 25.9915 212.135 26.2839 211.783 26.4964C211.43 26.7059 211.019 26.8106 210.547 26.8106ZM210.547 25.8241C210.966 25.8241 211.278 25.6845 211.481 25.4051C211.685 25.1257 211.787 24.7649 211.787 24.3225C211.787 23.8657 211.684 23.5019 211.477 23.2313C211.27 22.9577 210.96 22.821 210.547 22.821C210.265 22.821 210.032 22.885 209.849 23.013C209.668 23.1382 209.535 23.3142 209.447 23.5412C209.36 23.7653 209.316 24.0257 209.316 24.3225C209.316 24.7794 209.42 25.1446 209.626 25.4182C209.836 25.6888 210.143 25.8241 210.547 25.8241ZM213.6 26.6797V21.9654L216.961 21.9654V22.9519L214.652 22.9519V26.6797H213.6ZM221.618 21.9654V26.6797H220.61V23.6023L218.366 26.6797H217.524V21.9654H218.532V24.9642L220.784 21.9654H221.618Z" fill="#9E9E9E"/>
<path d="M18.4492 70.461C18.0477 70.461 17.6926 70.381 17.3842 70.221C17.0757 70.058 16.8342 69.8325 16.6596 69.5444C16.485 69.2563 16.3977 68.9202 16.3977 68.536C16.3977 68.1606 16.4864 67.8216 16.6639 67.519C16.8444 67.2163 17.115 66.9835 17.4758 66.8206L17.4627 67.1043C17.1688 66.9617 16.9433 66.7609 16.7862 66.5019C16.629 66.24 16.5504 65.9505 16.5504 65.6333C16.5504 65.2782 16.6319 64.9727 16.7949 64.7166C16.9578 64.4605 17.1819 64.2626 17.4671 64.1229C17.7523 63.9833 18.0797 63.9134 18.4492 63.9134C18.8188 63.9134 19.1462 63.9833 19.4314 64.1229C19.7166 64.2626 19.9406 64.4605 20.1036 64.7166C20.2666 64.9727 20.3481 65.2782 20.3481 65.6333C20.3481 65.9505 20.2738 66.2386 20.1254 66.4975C19.977 66.7536 19.7486 66.9559 19.4401 67.1043L19.4227 66.8249C19.7835 66.9821 20.0541 67.2134 20.2346 67.519C20.4179 67.8216 20.5096 68.1606 20.5096 68.536C20.5096 68.9202 20.4208 69.2563 20.2433 69.5444C20.0687 69.8325 19.8257 70.058 19.5143 70.221C19.2059 70.381 18.8508 70.461 18.4492 70.461ZM18.4492 69.719C18.8159 69.719 19.1127 69.6186 19.3397 69.4178C19.5696 69.2141 19.6846 68.9202 19.6846 68.536C19.6846 68.149 19.5711 67.8551 19.3441 67.6543C19.12 67.4506 18.8217 67.3487 18.4492 67.3487C18.0797 67.3487 17.7814 67.4506 17.5544 67.6543C17.3303 67.8551 17.2183 68.149 17.2183 68.536C17.2183 68.9202 17.3318 69.2141 17.5588 69.4178C17.7858 69.6186 18.0826 69.719 18.4492 69.719ZM18.4492 66.6023C18.7693 66.6023 19.0283 66.5223 19.2262 66.3622C19.4241 66.1993 19.5231 65.9563 19.5231 65.6333C19.5231 65.3102 19.4241 65.0687 19.2262 64.9087C19.0283 64.7457 18.7693 64.6642 18.4492 64.6642C18.132 64.6642 17.8731 64.7457 17.6723 64.9087C17.4744 65.0687 17.3754 65.3102 17.3754 65.6333C17.3754 65.9563 17.4744 66.1993 17.6723 66.3622C17.8731 66.5223 18.132 66.6023 18.4492 66.6023ZM22.8625 70.3301V65.6158H23.5303L25.32 69.2737L27.1097 65.6158H27.7775V70.3301H27.0267V67.2352L25.5252 70.3301H25.1148L23.6133 67.2352V70.3301H22.8625ZM28.2983 70.3301V69.6622C28.4729 69.6942 28.6053 69.6884 28.6955 69.6448C28.7886 69.5982 28.857 69.5182 28.9007 69.4047C28.9472 69.2883 28.9851 69.1428 29.0142 68.9682C29.0636 68.6917 29.1058 68.3833 29.1407 68.0428C29.1786 67.7023 29.212 67.3298 29.2411 66.9253C29.2731 66.5179 29.3022 66.0814 29.3284 65.6158H32.6241V70.3301H31.8471V66.3535H30.0356C30.0181 66.6212 29.9963 66.8962 29.9701 67.1785C29.9468 67.4608 29.9221 67.7358 29.8959 68.0035C29.8697 68.2683 29.8406 68.5157 29.8086 68.7456C29.7795 68.9725 29.7475 69.169 29.7126 69.3348C29.6573 69.62 29.5802 69.8485 29.4812 70.0202C29.3823 70.1889 29.2397 70.2981 29.0534 70.3475C28.8672 70.3999 28.6155 70.3941 28.2983 70.3301ZM35.7533 70.461C35.311 70.461 34.9385 70.3519 34.6358 70.1336C34.3332 69.9125 34.1033 69.6142 33.9461 69.2388C33.7919 68.8605 33.7148 68.4371 33.7148 67.9686C33.7148 67.4942 33.7919 67.0694 33.9461 66.694C34.1033 66.3186 34.3332 66.0232 34.6358 65.8079C34.9414 65.5925 35.3153 65.4848 35.7576 65.4848C36.1942 65.4848 36.5695 65.594 36.8838 65.8122C37.201 66.0276 37.444 66.3229 37.6128 66.6983C37.7816 67.0737 37.866 67.4971 37.866 67.9686C37.866 68.44 37.7816 68.8634 37.6128 69.2388C37.444 69.6142 37.201 69.9125 36.8838 70.1336C36.5695 70.3519 36.1927 70.461 35.7533 70.461ZM33.5838 72.4253V65.6158H34.2779V69.086H34.3652V72.4253H33.5838ZM35.6572 69.7495C35.9686 69.7495 36.2262 69.671 36.4299 69.5138C36.6336 69.3567 36.7863 69.1442 36.8882 68.8765C36.99 68.6059 37.041 68.3032 37.041 67.9686C37.041 67.6368 36.99 67.3371 36.8882 67.0694C36.7893 66.8016 36.635 66.5892 36.4255 66.4321C36.2189 66.2749 35.9555 66.1964 35.6354 66.1964C35.3299 66.1964 35.0767 66.272 34.8759 66.4233C34.6751 66.5718 34.5252 66.7798 34.4263 67.0475C34.3274 67.3124 34.2779 67.6194 34.2779 67.9686C34.2779 68.312 34.3259 68.619 34.4219 68.8896C34.5209 69.1573 34.6722 69.3683 34.8759 69.5225C35.0796 69.6739 35.3401 69.7495 35.6572 69.7495ZM38.2118 71.3777V69.6884C38.4766 69.6884 38.6657 69.6026 38.7792 69.4309C38.8927 69.2563 38.9844 68.9696 39.0542 68.571C39.1008 68.3207 39.1386 68.053 39.1677 67.7678C39.1968 67.4826 39.2216 67.1654 39.2419 66.8162C39.2652 66.4641 39.287 66.0639 39.3074 65.6158H42.555V69.6884H43.0133V71.3777H42.2713V70.3301H38.9538V71.3777H38.2118ZM39.4078 69.6884H41.778V66.2575H40.0102C40.0014 66.4641 39.9898 66.6809 39.9753 66.9079C39.9607 67.1319 39.9432 67.356 39.9229 67.5801C39.9054 67.8042 39.8836 68.0166 39.8574 68.2174C39.8341 68.4153 39.8065 68.5928 39.7745 68.7499C39.7366 68.9682 39.693 69.153 39.6435 69.3043C39.594 69.4556 39.5155 69.5837 39.4078 69.6884Z" fill="#9E9E9E"/>
<path d="M18.3639 99.381C17.9652 99.381 17.6029 99.2849 17.277 99.0929C16.954 98.9008 16.6965 98.6389 16.5044 98.3071C16.3152 97.9725 16.2207 97.5956 16.2207 97.1766V95.0857C16.2207 94.6463 16.3152 94.2578 16.5044 93.9202C16.6965 93.5798 16.9584 93.315 17.2901 93.1258C17.6248 92.9337 18.006 92.8377 18.4338 92.8377C18.7801 92.8377 19.1016 92.909 19.3984 93.0516C19.6982 93.1913 19.9499 93.3935 20.1536 93.6583L19.573 94.1734C19.4479 93.9901 19.285 93.8446 19.0842 93.7369C18.8834 93.6292 18.6666 93.5754 18.4338 93.5754C18.1573 93.5754 17.9114 93.6423 17.6961 93.7762C17.4836 93.9072 17.3163 94.0818 17.1941 94.3C17.0719 94.5154 17.0107 94.7482 17.0107 94.9984V96.2599L16.8405 96.0679C17.0238 95.806 17.2566 95.5964 17.5389 95.4393C17.8212 95.2821 18.1268 95.2036 18.4556 95.2036C18.8455 95.2036 19.1947 95.2952 19.5032 95.4786C19.8146 95.6619 20.059 95.9107 20.2365 96.225C20.417 96.5364 20.5072 96.887 20.5072 97.277C20.5072 97.6669 20.4097 98.0205 20.2147 98.3377C20.0197 98.6549 19.7593 98.9081 19.4334 99.0972C19.1103 99.2864 18.7539 99.381 18.3639 99.381ZM18.3639 98.6302C18.6142 98.6302 18.8426 98.5705 19.0492 98.4512C19.2559 98.329 19.4188 98.166 19.5381 97.9623C19.6603 97.7557 19.7215 97.5273 19.7215 97.277C19.7215 97.0267 19.6603 96.7983 19.5381 96.5917C19.4188 96.3851 19.2559 96.2221 19.0492 96.1028C18.8455 95.9806 18.6186 95.9194 18.3683 95.9194C18.118 95.9194 17.8896 95.9806 17.683 96.1028C17.4793 96.2221 17.3163 96.3851 17.1941 96.5917C17.0719 96.7983 17.0107 97.0267 17.0107 97.277C17.0107 97.5243 17.0704 97.7513 17.1897 97.9579C17.3119 98.1616 17.4749 98.3246 17.6786 98.4468C17.8852 98.569 18.1137 98.6302 18.3639 98.6302ZM22.8625 99.25V94.5357H23.5303L25.32 98.1937L27.1097 94.5357H27.7775V99.25H27.0267V96.1552L25.5252 99.25H25.1148L23.6133 96.1552V99.25H22.8625ZM28.2983 99.25V98.5821C28.4729 98.6142 28.6053 98.6083 28.6955 98.5647C28.7886 98.5181 28.857 98.4381 28.9007 98.3246C28.9472 98.2082 28.9851 98.0627 29.0142 97.8881C29.0636 97.6116 29.1058 97.3032 29.1407 96.9627C29.1786 96.6222 29.212 96.2497 29.2411 95.8452C29.2731 95.4378 29.3022 95.0013 29.3284 94.5357H32.6241V99.25H31.8471V95.2734H30.0356C30.0181 95.5411 29.9963 95.8161 29.9701 96.0984C29.9468 96.3807 29.9221 96.6557 29.8959 96.9234C29.8697 97.1882 29.8406 97.4356 29.8086 97.6655C29.7795 97.8925 29.7475 98.0889 29.7126 98.2548C29.6573 98.5399 29.5802 98.7684 29.4812 98.9401C29.3823 99.1089 29.2397 99.218 29.0534 99.2675C28.8672 99.3198 28.6155 99.314 28.2983 99.25ZM35.7533 99.381C35.3109 99.381 34.9385 99.2718 34.6358 99.0536C34.3332 98.8324 34.1033 98.5341 33.9461 98.1587C33.7919 97.7804 33.7148 97.357 33.7148 96.8885C33.7148 96.4142 33.7919 95.9893 33.9461 95.6139C34.1033 95.2385 34.3332 94.9431 34.6358 94.7278C34.9414 94.5124 35.3153 94.4048 35.7576 94.4048C36.1941 94.4048 36.5695 94.5139 36.8838 94.7321C37.201 94.9475 37.444 95.2429 37.6128 95.6183C37.7816 95.9937 37.866 96.4171 37.866 96.8885C37.866 97.3599 37.7816 97.7833 37.6128 98.1587C37.444 98.5341 37.201 98.8324 36.8838 99.0536C36.5695 99.2718 36.1927 99.381 35.7533 99.381ZM33.5838 101.345V94.5357H34.2779V98.006H34.3652V101.345H33.5838ZM35.6572 98.6694C35.9686 98.6694 36.2262 98.5909 36.4299 98.4337C36.6336 98.2766 36.7863 98.0642 36.8882 97.7964C36.99 97.5258 37.041 97.2232 37.041 96.8885C37.041 96.5568 36.99 96.257 36.8882 95.9893C36.7893 95.7216 36.635 95.5091 36.4255 95.352C36.2189 95.1948 35.9555 95.1163 35.6354 95.1163C35.3299 95.1163 35.0767 95.1919 34.8759 95.3433C34.6751 95.4917 34.5252 95.6997 34.4263 95.9675C34.3274 96.2323 34.2779 96.5393 34.2779 96.8885C34.2779 97.2319 34.3259 97.5389 34.4219 97.8095C34.5209 98.0773 34.6722 98.2882 34.8759 98.4425C35.0796 98.5938 35.34 98.6694 35.6572 98.6694ZM38.2118 100.298V98.6083C38.4766 98.6083 38.6657 98.5225 38.7792 98.3508C38.8927 98.1762 38.9844 97.8896 39.0542 97.4909C39.1008 97.2406 39.1386 96.9729 39.1677 96.6877C39.1968 96.4025 39.2216 96.0853 39.2419 95.7361C39.2652 95.384 39.287 94.9839 39.3074 94.5357H42.555V98.6083H43.0133V100.298H42.2713V99.25H38.9538V100.298H38.2118ZM39.4078 98.6083H41.778V95.1774H40.0102C40.0014 95.384 39.9898 95.6008 39.9753 95.8278C39.9607 96.0519 39.9432 96.2759 39.9229 96.5C39.9054 96.7241 39.8836 96.9365 39.8574 97.1373C39.8341 97.3352 39.8065 97.5127 39.7745 97.6698C39.7366 97.8881 39.693 98.0729 39.6435 98.2242C39.594 98.3755 39.5155 98.5036 39.4078 98.6083Z" fill="#9E9E9E"/>
<path d="M19.1574 128.168V127.011H16.2677V126.274L18.3411 121.882H19.2229L17.1495 126.274H19.1574V124.506H19.9431V126.274H20.5979V127.011H19.9431V128.168H19.1574ZM22.8625 128.168V123.454H23.5303L25.32 127.112L27.1097 123.454H27.7775V128.168H27.0267V125.073L25.5252 128.168H25.1148L23.6133 125.073V128.168H22.8625ZM28.2983 128.168V127.5C28.4729 127.532 28.6053 127.526 28.6955 127.483C28.7886 127.436 28.857 127.356 28.9007 127.243C28.9472 127.126 28.985 126.981 29.0142 126.806C29.0636 126.53 29.1058 126.221 29.1407 125.881C29.1786 125.54 29.212 125.168 29.2411 124.763C29.2731 124.356 29.3022 123.919 29.3284 123.454H32.6241V128.168H31.8471V124.191H30.0356C30.0181 124.459 29.9963 124.734 29.9701 125.016C29.9468 125.299 29.9221 125.574 29.8959 125.841C29.8697 126.106 29.8406 126.354 29.8086 126.583C29.7795 126.81 29.7475 127.007 29.7126 127.173C29.6573 127.458 29.5802 127.686 29.4812 127.858C29.3823 128.027 29.2397 128.136 29.0534 128.185C28.8672 128.238 28.6155 128.232 28.2983 128.168ZM35.7533 128.299C35.3109 128.299 34.9385 128.19 34.6358 127.972C34.3332 127.75 34.1033 127.452 33.9461 127.077C33.7919 126.698 33.7148 126.275 33.7148 125.806C33.7148 125.332 33.7919 124.907 33.9461 124.532C34.1033 124.156 34.3332 123.861 34.6358 123.646C34.9414 123.43 35.3153 123.323 35.7576 123.323C36.1941 123.323 36.5695 123.432 36.8838 123.65C37.201 123.865 37.444 124.161 37.6128 124.536C37.7816 124.912 37.866 125.335 37.866 125.806C37.866 126.278 37.7816 126.701 37.6128 127.077C37.444 127.452 37.201 127.75 36.8838 127.972C36.5695 128.19 36.1927 128.299 35.7533 128.299ZM33.5838 130.263V123.454H34.2779V126.924H34.3652V130.263H33.5838ZM35.6572 127.587C35.9686 127.587 36.2262 127.509 36.4299 127.352C36.6336 127.195 36.7863 126.982 36.8882 126.714C36.99 126.444 37.041 126.141 37.041 125.806C37.041 125.475 36.99 125.175 36.8882 124.907C36.7893 124.64 36.635 124.427 36.4255 124.27C36.2189 124.113 35.9555 124.034 35.6354 124.034C35.3299 124.034 35.0767 124.11 34.8759 124.261C34.6751 124.41 34.5252 124.618 34.4263 124.885C34.3274 125.15 34.2779 125.457 34.2779 125.806C34.2779 126.15 34.3259 126.457 34.4219 126.727C34.5209 126.995 34.6722 127.206 34.8759 127.36C35.0796 127.512 35.34 127.587 35.6572 127.587ZM38.2118 129.216V127.526C38.4766 127.526 38.6657 127.44 38.7792 127.269C38.8927 127.094 38.9844 126.808 39.0542 126.409C39.1008 126.159 39.1386 125.891 39.1677 125.606C39.1968 125.32 39.2216 125.003 39.2419 124.654C39.2652 124.302 39.287 123.902 39.3074 123.454H42.555V127.526H43.0133V129.216H42.2713V128.168H38.9538V129.216H38.2118ZM39.4078 127.526H41.778V124.095H40.0102C40.0014 124.302 39.9898 124.519 39.9753 124.746C39.9607 124.97 39.9432 125.194 39.9229 125.418C39.9054 125.642 39.8836 125.854 39.8574 126.055C39.8341 126.253 39.8065 126.431 39.7745 126.588C39.7366 126.806 39.693 126.991 39.6435 127.142C39.594 127.293 39.5155 127.422 39.4078 127.526Z" fill="#9E9E9E"/>
<path d="M16.4212 157.082L16.4256 156.383L19.2148 153.873C19.4476 153.664 19.6033 153.466 19.6819 153.28C19.7634 153.09 19.8041 152.897 19.8041 152.699C19.8041 152.458 19.7488 152.239 19.6382 152.044C19.5277 151.849 19.3763 151.695 19.1843 151.582C18.9951 151.468 18.7798 151.411 18.5382 151.411C18.288 151.411 18.0654 151.471 17.8704 151.59C17.6754 151.707 17.5212 151.862 17.4077 152.057C17.2971 152.252 17.2433 152.465 17.2462 152.695H16.4517C16.4517 152.299 16.5434 151.95 16.7267 151.647C16.9101 151.342 17.1589 151.103 17.4732 150.931C17.7904 150.757 18.1498 150.669 18.5513 150.669C18.9413 150.669 19.2905 150.759 19.599 150.94C19.9074 151.117 20.1504 151.36 20.3279 151.669C20.5084 151.974 20.5986 152.321 20.5986 152.708C20.5986 152.981 20.5636 153.218 20.4938 153.419C20.4269 153.62 20.3221 153.806 20.1795 153.978C20.0369 154.147 19.858 154.327 19.6426 154.519L17.3248 156.601L17.2244 156.34H20.5986V157.082H16.4212ZM22.8625 157.086V152.372H23.5303L25.32 156.03L27.1097 152.372H27.7775V157.086H27.0267V153.991L25.5252 157.086H25.1148L23.6133 153.991V157.086H22.8625ZM28.2983 157.086V156.418C28.4729 156.45 28.6053 156.444 28.6955 156.401C28.7886 156.354 28.857 156.274 28.9007 156.161C28.9472 156.044 28.985 155.899 29.0142 155.724C29.0636 155.448 29.1058 155.139 29.1407 154.799C29.1786 154.458 29.212 154.086 29.2411 153.681C29.2731 153.274 29.3022 152.837 29.3284 152.372H32.6241V157.086H31.8471V153.109H30.0356C30.0181 153.377 29.9963 153.652 29.9701 153.934C29.9468 154.217 29.9221 154.492 29.8959 154.759C29.8697 155.024 29.8406 155.272 29.8086 155.501C29.7795 155.728 29.7475 155.925 29.7126 156.091C29.6573 156.376 29.5802 156.604 29.4812 156.776C29.3823 156.945 29.2397 157.054 29.0534 157.103C28.8672 157.156 28.6155 157.15 28.2983 157.086ZM35.7533 157.217C35.3109 157.217 34.9385 157.108 34.6358 156.89C34.3332 156.668 34.1033 156.37 33.9461 155.995C33.7919 155.616 33.7148 155.193 33.7148 154.724C33.7148 154.25 33.7919 153.825 33.9461 153.45C34.1033 153.074 34.3332 152.779 34.6358 152.564C34.9414 152.348 35.3153 152.241 35.7576 152.241C36.1941 152.241 36.5695 152.35 36.8838 152.568C37.201 152.783 37.444 153.079 37.6128 153.454C37.7816 153.83 37.866 154.253 37.866 154.724C37.866 155.196 37.7816 155.619 37.6128 155.995C37.444 156.37 37.201 156.668 36.8838 156.89C36.5695 157.108 36.1927 157.217 35.7533 157.217ZM33.5838 159.181V152.372H34.2779V155.842H34.3652V159.181H33.5838ZM35.6572 156.505C35.9686 156.505 36.2262 156.427 36.4299 156.27C36.6336 156.113 36.7863 155.9 36.8882 155.632C36.99 155.362 37.041 155.059 37.041 154.724C37.041 154.393 36.99 154.093 36.8882 153.825C36.7893 153.558 36.635 153.345 36.4255 153.188C36.2189 153.031 35.9555 152.952 35.6354 152.952C35.3299 152.952 35.0767 153.028 34.8759 153.179C34.6751 153.328 34.5252 153.536 34.4263 153.803C34.3274 154.068 34.2779 154.375 34.2779 154.724C34.2779 155.068 34.3259 155.375 34.4219 155.645C34.5209 155.913 34.6722 156.124 34.8759 156.278C35.0796 156.43 35.34 156.505 35.6572 156.505ZM38.2118 158.134V156.444C38.4766 156.444 38.6657 156.358 38.7792 156.187C38.8927 156.012 38.9844 155.725 39.0542 155.327C39.1008 155.077 39.1386 154.809 39.1677 154.524C39.1968 154.238 39.2216 153.921 39.2419 153.572C39.2652 153.22 39.287 152.82 39.3074 152.372H42.555V156.444H43.0133V158.134H42.2713V157.086H38.9538V158.134H38.2118ZM39.4078 156.444H41.778V153.013H40.0102C40.0014 153.22 39.9898 153.437 39.9753 153.664C39.9607 153.888 39.9432 154.112 39.9229 154.336C39.9054 154.56 39.8836 154.772 39.8574 154.973C39.8341 155.171 39.8065 155.349 39.7745 155.506C39.7366 155.724 39.693 155.909 39.6435 156.06C39.594 156.211 39.5155 156.34 39.4078 156.444Z" fill="#9E9E9E"/>
<path d="M52.8183 202.371L52.8227 201.672L55.612 199.162C55.8448 198.953 56.0005 198.755 56.0791 198.569C56.1605 198.38 56.2013 198.186 56.2013 197.988C56.2013 197.747 56.146 197.528 56.0354 197.333C55.9248 197.138 55.7735 196.984 55.5814 196.871C55.3923 196.757 55.1769 196.7 54.9354 196.7C54.6851 196.7 54.4625 196.76 54.2675 196.879C54.0726 196.996 53.9183 197.151 53.8048 197.346C53.6943 197.541 53.6404 197.754 53.6433 197.984H52.8489C52.8489 197.588 52.9406 197.239 53.1239 196.936C53.3072 196.631 53.556 196.392 53.8703 196.22C54.1875 196.046 54.5469 195.958 54.9485 195.958C55.3384 195.958 55.6877 196.049 55.9961 196.229C56.3046 196.406 56.5476 196.649 56.7251 196.958C56.9055 197.264 56.9957 197.61 56.9957 197.997C56.9957 198.27 56.9608 198.508 56.891 198.708C56.824 198.909 56.7193 199.095 56.5767 199.267C56.4341 199.436 56.2551 199.616 56.0398 199.808L53.7219 201.89L53.6215 201.629H56.9957V202.371H52.8183ZM59.8996 202.506C59.4922 202.506 59.1284 202.414 58.8083 202.231C58.4911 202.045 58.2394 201.793 58.0532 201.476C57.8698 201.156 57.7782 200.792 57.7782 200.385V198.08C57.7782 197.672 57.8698 197.309 58.0532 196.989C58.2394 196.668 58.4911 196.417 58.8083 196.233C59.1284 196.05 59.4922 195.958 59.8996 195.958C60.307 195.958 60.6707 196.05 60.9909 196.233C61.311 196.417 61.5627 196.668 61.746 196.989C61.9293 197.309 62.021 197.672 62.021 198.08V200.385C62.021 200.792 61.9293 201.156 61.746 201.476C61.5627 201.793 61.311 202.045 60.9909 202.231C60.6707 202.414 60.307 202.506 59.8996 202.506ZM59.8996 201.76C60.1469 201.76 60.371 201.7 60.5718 201.581C60.7726 201.461 60.9326 201.301 61.052 201.1C61.1713 200.897 61.2309 200.673 61.2309 200.428V198.032C61.2309 197.784 61.1713 197.56 61.052 197.36C60.9326 197.159 60.7726 196.999 60.5718 196.879C60.371 196.76 60.1469 196.7 59.8996 196.7C59.6551 196.7 59.4311 196.76 59.2274 196.879C59.0266 196.999 58.8665 197.159 58.7472 197.36C58.6279 197.56 58.5682 197.784 58.5682 198.032V200.428C58.5682 200.673 58.6279 200.897 58.7472 201.1C58.8665 201.301 59.0266 201.461 59.2274 201.581C59.4311 201.7 59.6551 201.76 59.8996 201.76ZM64.0768 202.375V196.949L62.8938 197.665V196.796L64.0768 196.089H64.8668V202.375H64.0768ZM66.5976 202.375L68.8587 196.836H66.0039V196.089H69.6924V196.836L67.4357 202.375H66.5976Z" fill="#9E9E9E"/>
<path d="M131.93 202.371L131.934 201.672L134.723 199.162C134.956 198.953 135.112 198.755 135.19 198.569C135.272 198.38 135.313 198.186 135.313 197.988C135.313 197.747 135.257 197.528 135.147 197.333C135.036 197.138 134.885 196.984 134.693 196.871C134.504 196.757 134.288 196.7 134.047 196.7C133.796 196.7 133.574 196.76 133.379 196.879C133.184 196.996 133.03 197.151 132.916 197.346C132.806 197.541 132.752 197.754 132.755 197.984H131.96C131.96 197.588 132.052 197.239 132.235 196.936C132.419 196.631 132.667 196.392 132.982 196.22C133.299 196.046 133.658 195.958 134.06 195.958C134.45 195.958 134.799 196.049 135.107 196.229C135.416 196.406 135.659 196.649 135.836 196.958C136.017 197.264 136.107 197.61 136.107 197.997C136.107 198.27 136.072 198.508 136.002 198.708C135.935 198.909 135.831 199.095 135.688 199.267C135.545 199.436 135.366 199.616 135.151 199.808L132.833 201.89L132.733 201.629H136.107V202.371H131.93ZM139.011 202.506C138.604 202.506 138.24 202.414 137.92 202.231C137.602 202.045 137.351 201.793 137.164 201.476C136.981 201.156 136.889 200.792 136.889 200.385V198.08C136.889 197.672 136.981 197.309 137.164 196.989C137.351 196.668 137.602 196.417 137.92 196.233C138.24 196.05 138.604 195.958 139.011 195.958C139.418 195.958 139.782 196.05 140.102 196.233C140.422 196.417 140.674 196.668 140.857 196.989C141.041 197.309 141.132 197.672 141.132 198.08V200.385C141.132 200.792 141.041 201.156 140.857 201.476C140.674 201.793 140.422 202.045 140.102 202.231C139.782 202.414 139.418 202.506 139.011 202.506ZM139.011 201.76C139.258 201.76 139.482 201.7 139.683 201.581C139.884 201.461 140.044 201.301 140.163 201.1C140.283 200.897 140.342 200.673 140.342 200.428V198.032C140.342 197.784 140.283 197.56 140.163 197.36C140.044 197.159 139.884 196.999 139.683 196.879C139.482 196.76 139.258 196.7 139.011 196.7C138.766 196.7 138.542 196.76 138.339 196.879C138.138 196.999 137.978 197.159 137.859 197.36C137.739 197.56 137.68 197.784 137.68 198.032V200.428C137.68 200.673 137.739 200.897 137.859 201.1C137.978 201.301 138.138 201.461 138.339 201.581C138.542 201.7 138.766 201.76 139.011 201.76ZM143.188 202.375V196.949L142.005 197.665V196.796L143.188 196.089H143.978V202.375H143.188ZM147.341 202.506C146.94 202.506 146.585 202.426 146.276 202.266C145.968 202.103 145.726 201.877 145.552 201.589C145.377 201.301 145.29 200.965 145.29 200.581C145.29 200.206 145.379 199.867 145.556 199.564C145.737 199.261 146.007 199.028 146.368 198.865L146.355 199.149C146.061 199.007 145.835 198.806 145.678 198.547C145.521 198.285 145.443 197.995 145.443 197.678C145.443 197.323 145.524 197.018 145.687 196.762C145.85 196.505 146.074 196.308 146.359 196.168C146.644 196.028 146.972 195.958 147.341 195.958C147.711 195.958 148.038 196.028 148.324 196.168C148.609 196.308 148.833 196.505 148.996 196.762C149.159 197.018 149.24 197.323 149.24 197.678C149.24 197.995 149.166 198.283 149.018 198.542C148.869 198.799 148.641 199.001 148.332 199.149L148.315 198.87C148.676 199.027 148.946 199.258 149.127 199.564C149.31 199.867 149.402 200.206 149.402 200.581C149.402 200.965 149.313 201.301 149.135 201.589C148.961 201.877 148.718 202.103 148.407 202.266C148.098 202.426 147.743 202.506 147.341 202.506ZM147.341 201.764C147.708 201.764 148.005 201.663 148.232 201.463C148.462 201.259 148.577 200.965 148.577 200.581C148.577 200.194 148.463 199.9 148.236 199.699C148.012 199.496 147.714 199.394 147.341 199.394C146.972 199.394 146.674 199.496 146.447 199.699C146.223 199.9 146.11 200.194 146.11 200.581C146.11 200.965 146.224 201.259 146.451 201.463C146.678 201.663 146.975 201.764 147.341 201.764ZM147.341 198.647C147.662 198.647 147.921 198.567 148.118 198.407C148.316 198.244 148.415 198.001 148.415 197.678C148.415 197.355 148.316 197.114 148.118 196.954C147.921 196.791 147.662 196.709 147.341 196.709C147.024 196.709 146.765 196.791 146.564 196.954C146.367 197.114 146.268 197.355 146.268 197.678C146.268 198.001 146.367 198.244 146.564 198.407C146.765 198.567 147.024 198.647 147.341 198.647Z" fill="#9E9E9E"/>
<path d="M212.04 202.371L212.044 201.672L214.834 199.162C215.066 198.953 215.222 198.755 215.301 198.569C215.382 198.38 215.423 198.186 215.423 197.988C215.423 197.747 215.368 197.528 215.257 197.333C215.146 197.138 214.995 196.984 214.803 196.871C214.614 196.757 214.399 196.7 214.157 196.7C213.907 196.7 213.684 196.76 213.489 196.879C213.294 196.996 213.14 197.151 213.027 197.346C212.916 197.541 212.862 197.754 212.865 197.984H212.071C212.071 197.588 212.162 197.239 212.346 196.936C212.529 196.631 212.778 196.392 213.092 196.22C213.409 196.046 213.769 195.958 214.17 195.958C214.56 195.958 214.909 196.049 215.218 196.229C215.526 196.406 215.769 196.649 215.947 196.958C216.127 197.264 216.217 197.61 216.217 197.997C216.217 198.27 216.182 198.508 216.113 198.708C216.046 198.909 215.941 199.095 215.798 199.267C215.656 199.436 215.477 199.616 215.261 199.808L212.944 201.89L212.843 201.629H216.217V202.371H212.04ZM219.121 202.506C218.714 202.506 218.35 202.414 218.03 202.231C217.713 202.045 217.461 201.793 217.275 201.476C217.092 201.156 217 200.792 217 200.385V198.08C217 197.672 217.092 197.309 217.275 196.989C217.461 196.668 217.713 196.417 218.03 196.233C218.35 196.05 218.714 195.958 219.121 195.958C219.529 195.958 219.892 196.05 220.213 196.233C220.533 196.417 220.784 196.668 220.968 196.989C221.151 197.309 221.243 197.672 221.243 198.08V200.385C221.243 200.792 221.151 201.156 220.968 201.476C220.784 201.793 220.533 202.045 220.213 202.231C219.892 202.414 219.529 202.506 219.121 202.506ZM219.121 201.76C219.369 201.76 219.593 201.7 219.793 201.581C219.994 201.461 220.154 201.301 220.274 201.1C220.393 200.897 220.453 200.673 220.453 200.428V198.032C220.453 197.784 220.393 197.56 220.274 197.36C220.154 197.159 219.994 196.999 219.793 196.879C219.593 196.76 219.369 196.7 219.121 196.7C218.877 196.7 218.653 196.76 218.449 196.879C218.248 196.999 218.088 197.159 217.969 197.36C217.85 197.56 217.79 197.784 217.79 198.032V200.428C217.79 200.673 217.85 200.897 217.969 201.1C218.088 201.301 218.248 201.461 218.449 201.581C218.653 201.7 218.877 201.76 219.121 201.76ZM223.298 202.375V196.949L222.115 197.665V196.796L223.298 196.089H224.089V202.375H223.298ZM227.543 195.963C227.945 195.963 228.307 196.059 228.63 196.251C228.953 196.443 229.209 196.705 229.399 197.037C229.591 197.368 229.687 197.745 229.687 198.167V200.258C229.687 200.697 229.592 201.086 229.403 201.423C229.214 201.761 228.952 202.026 228.617 202.218C228.286 202.41 227.904 202.506 227.474 202.506C227.13 202.506 226.809 202.435 226.509 202.292C226.212 202.149 225.96 201.947 225.754 201.685L226.334 201.17C226.462 201.351 226.627 201.496 226.828 201.607C227.028 201.714 227.244 201.768 227.474 201.768C227.753 201.768 227.999 201.701 228.211 201.567C228.427 201.434 228.594 201.259 228.713 201.044C228.836 200.828 228.897 200.596 228.897 200.345V199.084L229.067 199.276C228.886 199.538 228.655 199.747 228.373 199.904C228.091 200.062 227.784 200.14 227.452 200.14C227.062 200.14 226.713 200.048 226.404 199.865C226.096 199.682 225.851 199.434 225.671 199.123C225.49 198.809 225.4 198.457 225.4 198.067C225.4 197.677 225.498 197.323 225.693 197.006C225.888 196.686 226.147 196.433 226.47 196.246C226.796 196.057 227.154 195.963 227.543 195.963ZM227.543 196.714C227.293 196.714 227.065 196.775 226.858 196.897C226.654 197.016 226.491 197.179 226.369 197.386C226.247 197.589 226.186 197.816 226.186 198.067C226.186 198.317 226.246 198.545 226.365 198.752C226.487 198.956 226.65 199.119 226.854 199.241C227.06 199.363 227.289 199.424 227.539 199.424C227.789 199.424 228.018 199.363 228.224 199.241C228.431 199.119 228.594 198.956 228.713 198.752C228.836 198.545 228.897 198.317 228.897 198.067C228.897 197.819 228.836 197.594 228.713 197.39C228.594 197.183 228.431 197.019 228.224 196.897C228.021 196.775 227.794 196.714 227.543 196.714Z" fill="#9E9E9E"/>
<path d="M292.151 202.371L292.156 201.672L294.945 199.162C295.178 198.953 295.333 198.755 295.412 198.569C295.494 198.38 295.534 198.186 295.534 197.988C295.534 197.747 295.479 197.528 295.368 197.333C295.258 197.138 295.107 196.984 294.914 196.871C294.725 196.757 294.51 196.7 294.268 196.7C294.018 196.7 293.796 196.76 293.601 196.879C293.406 196.996 293.251 197.151 293.138 197.346C293.027 197.541 292.973 197.754 292.976 197.984H292.182C292.182 197.588 292.274 197.239 292.457 196.936C292.64 196.631 292.889 196.392 293.203 196.22C293.521 196.046 293.88 195.958 294.282 195.958C294.671 195.958 295.021 196.049 295.329 196.229C295.638 196.406 295.881 196.649 296.058 196.958C296.239 197.264 296.329 197.61 296.329 197.997C296.329 198.27 296.294 198.508 296.224 198.708C296.157 198.909 296.052 199.095 295.91 199.267C295.767 199.436 295.588 199.616 295.373 199.808L293.055 201.89L292.955 201.629H296.329V202.371H292.151ZM299.233 202.506C298.825 202.506 298.461 202.414 298.141 202.231C297.824 202.045 297.572 201.793 297.386 201.476C297.203 201.156 297.111 200.792 297.111 200.385V198.08C297.111 197.672 297.203 197.309 297.386 196.989C297.572 196.668 297.824 196.417 298.141 196.233C298.461 196.05 298.825 195.958 299.233 195.958C299.64 195.958 300.004 196.05 300.324 196.233C300.644 196.417 300.896 196.668 301.079 196.989C301.262 197.309 301.354 197.672 301.354 198.08V200.385C301.354 200.792 301.262 201.156 301.079 201.476C300.896 201.793 300.644 202.045 300.324 202.231C300.004 202.414 299.64 202.506 299.233 202.506ZM299.233 201.76C299.48 201.76 299.704 201.7 299.905 201.581C300.106 201.461 300.266 201.301 300.385 201.1C300.504 200.897 300.564 200.673 300.564 200.428V198.032C300.564 197.784 300.504 197.56 300.385 197.36C300.266 197.159 300.106 196.999 299.905 196.879C299.704 196.76 299.48 196.7 299.233 196.7C298.988 196.7 298.764 196.76 298.56 196.879C298.36 196.999 298.2 197.159 298.08 197.36C297.961 197.56 297.901 197.784 297.901 198.032V200.428C297.901 200.673 297.961 200.897 298.08 201.1C298.2 201.301 298.36 201.461 298.56 201.581C298.764 201.7 298.988 201.76 299.233 201.76ZM302.14 202.371L302.144 201.672L304.933 199.162C305.166 198.953 305.322 198.755 305.4 198.569C305.482 198.38 305.522 198.186 305.522 197.988C305.522 197.747 305.467 197.528 305.357 197.333C305.246 197.138 305.095 196.984 304.903 196.871C304.713 196.757 304.498 196.7 304.257 196.7C304.006 196.7 303.784 196.76 303.589 196.879C303.394 196.996 303.24 197.151 303.126 197.346C303.015 197.541 302.962 197.754 302.965 197.984H302.17C302.17 197.588 302.262 197.239 302.445 196.936C302.628 196.631 302.877 196.392 303.192 196.22C303.509 196.046 303.868 195.958 304.27 195.958C304.66 195.958 305.009 196.049 305.317 196.229C305.626 196.406 305.869 196.649 306.046 196.958C306.227 197.264 306.317 197.61 306.317 197.997C306.317 198.27 306.282 198.508 306.212 198.708C306.145 198.909 306.04 199.095 305.898 199.267C305.755 199.436 305.576 199.616 305.361 199.808L303.043 201.89L302.943 201.629H306.317V202.371H302.14ZM309.221 202.506C308.813 202.506 308.45 202.414 308.129 202.231C307.812 202.045 307.561 201.793 307.374 201.476C307.191 201.156 307.099 200.792 307.099 200.385L307.099 198.08C307.099 197.672 307.191 197.309 307.374 196.989C307.561 196.668 307.812 196.417 308.129 196.233C308.45 196.05 308.813 195.958 309.221 195.958C309.628 195.958 309.992 196.05 310.312 196.233C310.632 196.417 310.884 196.668 311.067 196.989C311.251 197.309 311.342 197.672 311.342 198.08V200.385C311.342 200.792 311.251 201.156 311.067 201.476C310.884 201.793 310.632 202.045 310.312 202.231C309.992 202.414 309.628 202.506 309.221 202.506ZM309.221 201.76C309.468 201.76 309.692 201.7 309.893 201.581C310.094 201.461 310.254 201.301 310.373 201.1C310.492 200.897 310.552 200.673 310.552 200.428V198.032C310.552 197.784 310.492 197.56 310.373 197.36C310.254 197.159 310.094 196.999 309.893 196.879C309.692 196.76 309.468 196.7 309.221 196.7C308.976 196.7 308.752 196.76 308.549 196.879C308.348 196.999 308.188 197.159 308.068 197.36C307.949 197.56 307.889 197.784 307.889 198.032V200.428C307.889 200.673 307.949 200.897 308.068 201.1C308.188 201.301 308.348 201.461 308.549 201.581C308.752 201.7 308.976 201.76 309.221 201.76Z" fill="#9E9E9E"/>
<path d="M374.263 202.371L374.267 201.672L377.056 199.162C377.289 198.953 377.445 198.755 377.523 198.569C377.605 198.38 377.646 198.186 377.646 197.988C377.646 197.747 377.59 197.528 377.48 197.333C377.369 197.138 377.218 196.984 377.026 196.871C376.837 196.757 376.621 196.7 376.38 196.7C376.129 196.7 375.907 196.76 375.712 196.879C375.517 196.996 375.363 197.151 375.249 197.346C375.139 197.541 375.085 197.754 375.088 197.984H374.293C374.293 197.588 374.385 197.239 374.568 196.936C374.752 196.631 375 196.392 375.315 196.22C375.632 196.046 375.991 195.958 376.393 195.958C376.783 195.958 377.132 196.049 377.44 196.229C377.749 196.406 377.992 196.649 378.169 196.958C378.35 197.264 378.44 197.61 378.44 197.997C378.44 198.27 378.405 198.508 378.335 198.708C378.268 198.909 378.164 199.095 378.021 199.267C377.878 199.436 377.699 199.616 377.484 199.808L375.166 201.89L375.066 201.629H378.44V202.371H374.263ZM381.344 202.506C380.937 202.506 380.573 202.414 380.253 202.231C379.935 202.045 379.684 201.793 379.497 201.476C379.314 201.156 379.222 200.792 379.222 200.385V198.08C379.222 197.672 379.314 197.309 379.497 196.989C379.684 196.668 379.935 196.417 380.253 196.233C380.573 196.05 380.937 195.958 381.344 195.958C381.751 195.958 382.115 196.05 382.435 196.233C382.755 196.417 383.007 196.668 383.19 196.989C383.374 197.309 383.465 197.672 383.465 198.08V200.385C383.465 200.792 383.374 201.156 383.19 201.476C383.007 201.793 382.755 202.045 382.435 202.231C382.115 202.414 381.751 202.506 381.344 202.506ZM381.344 201.76C381.591 201.76 381.815 201.7 382.016 201.581C382.217 201.461 382.377 201.301 382.496 201.1C382.616 200.897 382.675 200.673 382.675 200.428V198.032C382.675 197.784 382.616 197.56 382.496 197.36C382.377 197.159 382.217 196.999 382.016 196.879C381.815 196.76 381.591 196.7 381.344 196.7C381.099 196.7 380.875 196.76 380.672 196.879C380.471 196.999 380.311 197.159 380.192 197.36C380.072 197.56 380.013 197.784 380.013 198.032V200.428C380.013 200.673 380.072 200.897 380.192 201.1C380.311 201.301 380.471 201.461 380.672 201.581C380.875 201.7 381.099 201.76 381.344 201.76ZM384.251 202.371L384.255 201.672L387.044 199.162C387.277 198.953 387.433 198.755 387.512 198.569C387.593 198.38 387.634 198.186 387.634 197.988C387.634 197.747 387.578 197.528 387.468 197.333C387.357 197.138 387.206 196.984 387.014 196.871C386.825 196.757 386.609 196.7 386.368 196.7C386.118 196.7 385.895 196.76 385.7 196.879C385.505 196.996 385.351 197.151 385.237 197.346C385.127 197.541 385.073 197.754 385.076 197.984H384.281C384.281 197.588 384.373 197.239 384.556 196.936C384.74 196.631 384.989 196.392 385.303 196.22C385.62 196.046 385.979 195.958 386.381 195.958C386.771 195.958 387.12 196.049 387.429 196.229C387.737 196.406 387.98 196.649 388.158 196.958C388.338 197.264 388.428 197.61 388.428 197.997C388.428 198.27 388.393 198.508 388.323 198.708C388.257 198.909 388.152 199.095 388.009 199.267C387.867 199.436 387.688 199.616 387.472 199.808L385.154 201.89L385.054 201.629H388.428V202.371H384.251ZM390.306 202.375V196.949L389.123 197.665V196.796L390.306 196.089H391.096V202.375H390.306Z" fill="#9E9E9E"/>
<g filter="url(#filter0_d_618_14732)">
<path d="M52.3809 117.671L140.774 132.263L219.89 107.982L301.736 151.36L391.22 82.0645" stroke="url(#paint0_linear_618_14732)" stroke-width="1.09127"/>
</g>
<path d="M52.3809 117.626L139.676 132.671L219.367 108.052L299.058 151.272L391.22 82.0645V184.098H52.3809L52.3809 117.626Z" fill="url(#paint1_linear_618_14732)"/>
<circle cx="140.773" cy="132.263" r="1.90972" fill="#00D45F" stroke="#00D45F" stroke-width="0.545634"/>
<circle cx="52.3808" cy="117.532" r="1.90972" fill="#00D45F" stroke="#00D45F" stroke-width="0.545634"/>
<circle cx="219.891" cy="108.255" r="1.90972" fill="#00D45F" stroke="#00D45F" stroke-width="0.545634"/>
<circle cx="301.736" cy="150.815" r="1.90972" fill="#00D45F" stroke="#00D45F" stroke-width="0.545634"/>
<circle cx="391.22" cy="82.0653" r="1.90972" fill="#00D45F" stroke="#00D45F" stroke-width="0.545634"/>
<path d="M0 0.765625L408.68 0.765625L0 0.765625ZM410.317 216.294C410.317 222.02 405.675 226.661 399.95 226.661L10.37 226.661C4.64279 226.661 0 222.018 0 216.291C0 220.207 3.90862 223.381 8.73014 223.381L399.95 223.381C403.867 223.381 407.043 220.207 407.043 216.291L410.317 216.294ZM0 225.021L0 0.765625L0 225.021ZM399.95 0.765625C405.675 0.765625 410.317 5.40711 410.317 11.1327V216.294C410.317 222.02 405.675 226.661 399.95 226.661V223.381C403.867 223.381 407.043 220.207 407.043 216.291V9.49577C407.043 4.67424 403.867 0.765625 399.95 0.765625Z" fill="#F0F0F0" mask="url(#path-1-inside-1_618_14732)"/>
<defs>
<filter id="filter0_d_618_14732" x="40.288" y="71.8114" width="363.27" height="94.3829" filterUnits="userSpaceOnUse" color-interpolation-filters="sRGB">
<feFlood flood-opacity="0" result="BackgroundImageFix"/>
<feColorMatrix in="SourceAlpha" type="matrix" values="0 0 0 0 0 0 0 0 0 0 0 0 0 0 0 0 0 0 127 0" result="hardAlpha"/>
<feOffset dy="2.18254"/>
<feGaussianBlur stdDeviation="6.00197"/>
<feComposite in2="hardAlpha" operator="out"/>
<feColorMatrix type="matrix" values="0 0 0 0 0 0 0 0 0 0.831373 0 0 0 0 0.372549 0 0 0 0.5 0"/>
<feBlend mode="normal" in2="BackgroundImageFix" result="effect1_dropShadow_618_14732"/>
<feBlend mode="normal" in="SourceGraphic" in2="effect1_dropShadow_618_14732" result="shape"/>
</filter>
<linearGradient id="paint0_linear_618_14732" x1="52.3809" y1="112.467" x2="391.142" y2="100.647" gradientUnits="userSpaceOnUse">
<stop stop-color="#00D45F"/>
<stop offset="1" stop-color="#67EEAD"/>
</linearGradient>
<linearGradient id="paint1_linear_618_14732" x1="221.8" y1="82.0645" x2="221.8" y2="184.098" gradientUnits="userSpaceOnUse">
<stop stop-color="#00D45F" stop-opacity="0.16"/>
<stop offset="1" stop-color="#C4C4C4" stop-opacity="0"/>
</linearGradient>
</defs>
</svg>
