<svg width="172" height="105" viewBox="0 0 172 105" fill="none" xmlns="http://www.w3.org/2000/svg">
<path fill-rule="evenodd" clip-rule="evenodd" d="M134.244 63.9766H126.75L135.337 75.1488L126.52 86.3683H133.648L138.901 79.7107L144.062 86.3683H151.556L142.694 74.9143L151.328 63.9766H144.107L139.13 70.3051L134.244 63.9766Z" fill="#272833"/>
<path fill-rule="evenodd" clip-rule="evenodd" d="M109.49 63.9756H125.066V86.3674H119.243V69.0665H108.909V86.3674H103.086V70.0891C103.086 66.7269 105.837 63.9756 109.2 63.9756H109.49ZM103.086 63.3943V63.9798H108.909V63.3943V62.4198V60.9189H115.5V55.0957H109.107C105.791 55.0957 103.086 57.8006 103.086 61.1172V62.4198V63.3943ZM125.066 55.0957H119.243V60.9198H125.066V55.0957Z" fill="#272833"/>
<path fill-rule="evenodd" clip-rule="evenodd" d="M61.7725 64.5562V69.6614H65.7615L65.7539 71.7943V79.6727C65.7539 83.3546 68.7676 86.3675 72.4495 86.3675H78.1689V81.2766H74.0668C72.6975 81.2766 71.5779 80.157 71.5779 78.7877V69.6614H78.1689V64.5705H71.5779V59.694L65.7742 59.6172V60.6381L65.7725 60.6524C65.5641 62.754 63.8513 64.3925 61.7725 64.5562Z" fill="#272833"/>
<path fill-rule="evenodd" clip-rule="evenodd" d="M158.832 80.543H153.008V86.3662H158.832V80.543Z" fill="#272833"/>
<path fill-rule="evenodd" clip-rule="evenodd" d="M31.7641 86.3674H36.8549V55.0957H31.7641V66.3878L31.268 65.8917C29.5856 64.2102 27.3321 63.6516 25.0094 63.6516C21.8692 63.6516 19.1339 64.6421 17.0179 66.9969C14.9677 69.2774 14 71.9697 14 75.0331C14 78.089 14.9635 80.7753 17.0171 83.0457C19.1373 85.3887 21.8759 86.3674 25.0094 86.3674C27.3051 86.3674 29.5957 85.846 31.268 84.1746L31.7641 83.6785V86.3674ZM19.2782 75.0331C19.2782 73.2757 19.8502 71.7284 21.0263 70.4206C22.2109 69.1053 23.7067 68.4641 25.4743 68.4641C27.2106 68.4641 28.7394 69.0361 30.0387 70.1886C31.4603 71.4508 31.9961 73.1643 31.9961 75.0331C31.9961 76.8859 31.4755 78.6011 30.0615 79.854C28.758 81.009 27.2131 81.5541 25.4743 81.5541C23.7211 81.5541 22.221 80.939 21.0288 79.6482C19.8316 78.3497 19.2782 76.7906 19.2782 75.0331Z" fill="#272833"/>
<path fill-rule="evenodd" clip-rule="evenodd" d="M95.8091 86.3681H101.633V72.2429C101.633 69.6055 100.733 67.3638 98.6237 65.7211C96.3424 63.9443 93.4527 63.6523 90.6196 63.6523C88.1087 63.6523 85.743 63.9839 83.6244 65.3532C81.5093 66.7217 80.2572 68.7019 79.6987 71.1385L79.6911 71.1722H85.6949L85.7025 71.1554C86.5757 69.0799 88.7043 68.5635 90.757 68.5635C92.0074 68.5635 93.3219 68.766 94.4035 69.4291C95.2599 69.9531 95.7129 70.7234 95.7956 71.7173L95.8218 72.0311H90.4828C87.9644 72.0311 84.7693 72.5593 82.5428 73.77C80.4496 74.9064 79.6211 76.8098 79.6211 79.1266C79.6211 81.2527 80.2378 83.1882 81.8965 84.5946C83.648 86.0812 86.574 86.3681 88.7887 86.3681C91.0245 86.3681 93.5362 86.0087 95.3383 84.5794L95.8091 84.2057V86.3681ZM95.8091 76.3905V77.2781C95.8091 78.66 95.2514 79.7476 94.1057 80.5271C92.8638 81.3717 91.4185 81.6889 89.9328 81.6889C88.9279 81.6889 87.2937 81.7041 86.4626 81.095C85.8122 80.6174 85.4451 79.9897 85.4451 79.1722C85.4451 78.2627 86.4145 77.4755 87.1325 77.0503C88.0665 76.4976 89.4147 76.3905 90.4828 76.3905H95.8091Z" fill="#272833"/>
<path fill-rule="evenodd" clip-rule="evenodd" d="M54.4955 86.3681H60.3187V72.2429C60.3187 69.6055 59.4193 67.3638 57.3093 65.7211C55.0279 63.9443 52.0674 63.6465 49.2342 63.6465C46.7234 63.6465 44.4277 63.984 42.31 65.3533C40.1948 66.7218 38.9436 68.7019 38.3851 71.1385L38.3767 71.1723H44.3813L44.388 71.1554C45.2613 69.0799 47.3899 68.5636 49.4426 68.5636C50.6938 68.5636 52.0074 68.766 53.0891 69.4292C53.9454 69.9531 54.3994 70.7234 54.4812 71.7173L54.5074 72.0312H49.1676C46.65 72.0312 43.4549 72.5593 41.2284 73.77C39.136 74.9065 38.3066 76.8099 38.3066 79.1267C38.3066 81.2528 38.9242 83.1882 40.5821 84.5947C42.3336 86.0813 45.2596 86.3681 47.4743 86.3681C49.7101 86.3681 52.2218 86.0087 54.0239 84.5795L54.4955 84.2057V86.3681ZM54.4955 76.3905V77.2781C54.4955 78.6601 53.937 79.7476 52.7913 80.5272C51.5493 81.3717 50.1041 81.689 48.6192 81.689C47.6135 81.689 45.9801 81.7042 45.149 81.095C44.4977 80.6175 44.1307 79.9898 44.1307 79.1722C44.1307 78.2627 45.101 77.4755 45.8181 77.0503C46.7521 76.4977 48.1011 76.3905 49.1676 76.3905H54.4955Z" fill="#272833"/>
<path fill-rule="evenodd" clip-rule="evenodd" d="M89.5959 26.5605H81.8524C75.6073 26.5605 70.4971 31.6717 70.4971 37.9167C70.4971 44.1609 75.6073 49.2729 81.8524 49.2729H102.334L98.0042 41.5539H81.7267C79.7254 41.5539 78.0895 39.9171 78.0895 37.9167C78.0895 35.9155 79.7254 34.2795 81.7267 34.2795H93.9249L89.5959 26.5605Z" fill="#00D45F"/>
<path fill-rule="evenodd" clip-rule="evenodd" d="M84.7891 18C86.3904 20.8542 87.9943 23.7059 89.5956 26.5602H98.8645L98.6789 26.2303H98.6873C97.1476 23.4857 95.6053 20.7437 94.0655 18H84.7891Z" fill="#00D45F"/>
</svg>
