<svg width="358" height="180" viewBox="0 0 358 180" fill="none" xmlns="http://www.w3.org/2000/svg">
<rect x="0.0292969" y="0.791016" width="357.971" height="178.986" rx="10.766" fill="white" fill-opacity="0.61"/>
<path d="M20.2158 59.9011C20.2158 57.2364 22.376 55.0762 25.0408 55.0762H96.0407C98.7055 55.0762 100.866 57.2364 100.866 59.9011V66.0762C100.866 68.7409 98.7055 70.9011 96.0407 70.9011H25.0407C22.376 70.9011 20.2158 68.7409 20.2158 66.0762V59.9011Z" fill="#E8EAEF"/>
<path d="M25.5476 64.8848V59.6738H26.1918V61.9572H27.4728V62.6014H26.1918V64.8848H25.5476ZM29.4088 64.9933C29.0638 64.9933 28.7586 64.9246 28.4933 64.7871C28.2279 64.6496 28.0059 64.4578 27.8274 64.2117C27.6489 63.9656 27.5138 63.6773 27.4221 63.3468C27.3304 63.0163 27.2846 62.6605 27.2846 62.2793C27.2846 61.8933 27.3304 61.5363 27.4221 61.2082C27.5138 60.8801 27.6489 60.593 27.8274 60.3469C28.0059 60.1008 28.2279 59.9103 28.4933 59.7752C28.7586 59.6377 29.0638 59.5689 29.4088 59.5689C29.7562 59.5689 30.0614 59.6377 30.3243 59.7752C30.5897 59.9103 30.8116 60.1008 30.9902 60.3469C31.1687 60.593 31.3038 60.8801 31.3954 61.2082C31.4871 61.5363 31.533 61.8933 31.533 62.2793C31.533 62.6701 31.4871 63.0308 31.3954 63.3613C31.3038 63.6918 31.1687 63.9801 30.9902 64.2262C30.8116 64.4698 30.5897 64.6592 30.3243 64.7943C30.0614 64.927 29.7562 64.9933 29.4088 64.9933ZM29.4088 64.3781C29.65 64.3781 29.8599 64.3239 30.0384 64.2153C30.2194 64.1067 30.3689 63.9572 30.4872 63.7666C30.6078 63.5736 30.6982 63.3504 30.7586 63.0971C30.8189 62.8414 30.849 62.5688 30.849 62.2793C30.8514 61.9874 30.8225 61.7148 30.7622 61.4615C30.7043 61.2082 30.615 60.9862 30.4944 60.7956C30.3762 60.6026 30.2254 60.4531 30.0421 60.3469C29.8611 60.2384 29.65 60.1841 29.4088 60.1841C29.1675 60.1841 28.9564 60.2384 28.7755 60.3469C28.597 60.4531 28.4486 60.6026 28.3304 60.7956C28.2122 60.9862 28.1229 61.2082 28.0626 61.4615C28.0023 61.7148 27.971 61.9874 27.9685 62.2793C27.9685 62.5688 27.9975 62.8414 28.0554 63.0971C28.1157 63.3504 28.205 63.5736 28.3232 63.7666C28.4438 63.9572 28.5946 64.1067 28.7755 64.2153C28.9564 64.3239 29.1675 64.3781 29.4088 64.3781ZM34.0498 64.9933C33.6831 64.9933 33.3743 64.9029 33.1234 64.7219C32.8725 64.5386 32.682 64.2913 32.5517 63.9801C32.4238 63.6665 32.3599 63.3155 32.3599 62.9271C32.3599 62.5338 32.4238 62.1816 32.5517 61.8704C32.682 61.5592 32.8725 61.3143 33.1234 61.1358C33.3767 60.9573 33.6867 60.868 34.0534 60.868C34.4153 60.868 34.7265 60.9585 34.9871 61.1394C35.25 61.3179 35.4515 61.5628 35.5914 61.874C35.7313 62.1852 35.8013 62.5362 35.8013 62.9271C35.8013 63.3179 35.7313 63.6689 35.5914 63.9801C35.4515 64.2913 35.25 64.5386 34.9871 64.7219C34.7265 64.9029 34.4141 64.9933 34.0498 64.9933ZM32.2513 66.6217V60.9766H32.8267V63.8534H32.8991V66.6217H32.2513ZM33.9702 64.4035C34.2283 64.4035 34.4418 64.3383 34.6107 64.2081C34.7796 64.0778 34.9062 63.9017 34.9907 63.6797C35.0751 63.4554 35.1173 63.2045 35.1173 62.9271C35.1173 62.652 35.0751 62.4035 34.9907 62.1816C34.9087 61.9597 34.7808 61.7835 34.6071 61.6533C34.4358 61.523 34.2175 61.4579 33.9521 61.4579C33.6988 61.4579 33.4889 61.5206 33.3225 61.646C33.156 61.7691 33.0318 61.9416 32.9497 62.1635C32.8677 62.383 32.8267 62.6376 32.8267 62.9271C32.8267 63.2117 32.8665 63.4662 32.9461 63.6906C33.0281 63.9125 33.1536 64.0874 33.3225 64.2153C33.4913 64.3408 33.7072 64.4035 33.9702 64.4035ZM39.7935 60.9766V64.8848H39.1711V62.0043L37.1229 64.8848H36.5909V60.9766H37.2134V63.8172L39.2652 60.9766H39.7935ZM40.5175 65.7533V64.3528C40.737 64.3528 40.8938 64.2816 40.9879 64.1393C41.082 63.9946 41.158 63.7569 41.2159 63.4264C41.2545 63.219 41.2858 62.997 41.3099 62.7606C41.3341 62.5242 41.3546 62.2612 41.3715 61.9717C41.3908 61.6798 41.4089 61.3481 41.4257 60.9766H44.1181V64.3528H44.498V65.7533H43.8828V64.8848H41.1326V65.7533H40.5175ZM41.509 64.3528H43.4739V61.5085H42.0084C42.0011 61.6798 41.9915 61.8595 41.9794 62.0477C41.9673 62.2335 41.9529 62.4192 41.936 62.605C41.9215 62.7907 41.9034 62.9669 41.8817 63.1333C41.8624 63.2974 41.8395 63.4445 41.8129 63.5748C41.7816 63.7557 41.7454 63.9089 41.7044 64.0344C41.6634 64.1598 41.5982 64.266 41.509 64.3528ZM48.4232 60.9766V64.8848H47.8008V62.0043L45.7526 64.8848H45.2207V60.9766H45.8431V63.8172L47.8949 60.9766H48.4232ZM51.7888 64.8848V63.4771C51.6586 63.5422 51.5006 63.5977 51.3148 63.6436C51.1314 63.6894 50.9348 63.7123 50.7249 63.7123C50.3269 63.7123 50.006 63.623 49.7624 63.4445C49.5187 63.266 49.3595 63.0091 49.2847 62.6737C49.263 62.5724 49.2473 62.4675 49.2377 62.3589C49.2304 62.2504 49.2256 62.1514 49.2232 62.0622C49.2208 61.9729 49.2196 61.9078 49.2196 61.8668V60.9766H49.8709V61.8668C49.8709 61.9367 49.8733 62.0236 49.8782 62.1273C49.883 62.2286 49.8951 62.3276 49.9144 62.4241C49.9626 62.6629 50.0627 62.8426 50.2147 62.9632C50.3691 63.0839 50.5862 63.1442 50.8661 63.1442C51.0543 63.1442 51.2279 63.12 51.3872 63.0718C51.5464 63.0235 51.6803 62.9596 51.7888 62.88V60.9766H52.4366V64.8848H51.7888ZM55.1447 64.9933C54.7612 64.9933 54.4258 64.9089 54.1387 64.74C53.8541 64.5687 53.6321 64.3311 53.4729 64.0271C53.3137 63.7208 53.2341 63.3637 53.2341 62.956C53.2341 62.529 53.3125 62.1599 53.4693 61.8487C53.6261 61.5351 53.8444 61.2938 54.1243 61.1249C54.4065 60.9537 54.737 60.868 55.1158 60.868C55.509 60.868 55.8431 60.9585 56.1182 61.1394C56.3956 61.3203 56.6031 61.5785 56.7406 61.9138C56.8805 62.2491 56.9408 62.6484 56.9215 63.1116H56.2701V62.88C56.2629 62.3999 56.1652 62.0417 55.977 61.8053C55.7889 61.5664 55.509 61.447 55.1375 61.447C54.7394 61.447 54.4367 61.5749 54.2292 61.8306C54.0217 62.0863 53.918 62.453 53.918 62.9307C53.918 63.3914 54.0217 63.7485 54.2292 64.0018C54.4367 64.2551 54.7322 64.3818 55.1158 64.3818C55.3739 64.3818 55.5983 64.3227 55.7889 64.2045C55.9794 64.0862 56.129 63.9162 56.2376 63.6942L56.8564 63.9077C56.7044 64.2527 56.4752 64.5205 56.1688 64.7111C55.8649 64.8992 55.5235 64.9933 55.1447 64.9933ZM53.7009 63.1116V62.5941H56.5886V63.1116H53.7009ZM59.3737 64.9933C58.978 64.9933 58.6415 64.9053 58.3641 64.7292C58.0891 64.5506 57.8792 64.3058 57.7344 63.9946C57.5897 63.6834 57.5149 63.3287 57.5101 62.9307C57.5149 62.523 57.5909 62.1647 57.738 61.8559C57.8876 61.5447 58.1011 61.3023 58.3785 61.1286C58.656 60.9549 58.9901 60.868 59.3809 60.868C59.7935 60.868 60.1481 60.9693 60.4448 61.172C60.744 61.3746 60.9442 61.6521 61.0455 62.0043L60.4086 62.1961C60.3266 61.9693 60.1927 61.7932 60.007 61.6677C59.8236 61.5423 59.6125 61.4796 59.3737 61.4796C59.1059 61.4796 58.8852 61.5423 58.7115 61.6677C58.5378 61.7908 58.4087 61.9621 58.3243 62.1816C58.2398 62.3987 58.1964 62.6484 58.194 62.9307C58.1988 63.3649 58.2989 63.7159 58.4943 63.9837C58.6922 64.2491 58.9853 64.3818 59.3737 64.3818C59.6294 64.3818 59.8417 64.3239 60.0106 64.2081C60.1795 64.0899 60.3073 63.9198 60.3942 63.6978L61.0455 63.8679C60.9104 64.2322 60.6993 64.5108 60.4123 64.7038C60.1252 64.8968 59.779 64.9933 59.3737 64.9933ZM61.7805 64.8848L61.7841 60.9766H62.4354V62.8583L64.0747 60.9766H64.9106L63.1845 62.9307L65.1133 64.8848H64.2122L62.4354 63.003V64.8848H61.7805ZM68.6724 60.9766V64.8848H68.05V62.0043L66.0018 64.8848H65.4698V60.9766H66.0923V63.8172L68.1441 60.9766H68.6724ZM71.3685 60.5206C71.1876 60.5206 71.0224 60.476 70.8728 60.3867C70.7232 60.2975 70.6038 60.1793 70.5145 60.0321C70.4253 59.8825 70.3806 59.7161 70.3806 59.5327H70.9017C70.9017 59.6606 70.9476 59.7703 71.0392 59.862C71.1309 59.9537 71.2407 59.9995 71.3685 59.9995C71.4988 59.9995 71.6086 59.9537 71.6978 59.862C71.7895 59.7703 71.8354 59.6606 71.8354 59.5327H72.3565C72.3565 59.7161 72.3118 59.8825 72.2226 60.0321C72.1357 60.1793 72.0163 60.2975 71.8643 60.3867C71.7147 60.476 71.5495 60.5206 71.3685 60.5206ZM72.8848 60.9766V64.8848H72.2624V62.0043L70.2142 64.8848H69.6822V60.9766H70.3046V63.8172L72.3565 60.9766H72.8848ZM76.4581 64.9933C76.1662 64.9933 75.9213 64.9403 75.7235 64.8341C75.5281 64.7255 75.3797 64.5832 75.2784 64.4071C75.1795 64.231 75.13 64.038 75.13 63.8281C75.13 63.623 75.1686 63.4457 75.2458 63.2962C75.3254 63.1442 75.4364 63.0187 75.5787 62.9198C75.7211 62.8185 75.8911 62.7389 76.089 62.681C76.2747 62.6303 76.4822 62.5869 76.7114 62.5507C76.943 62.5121 77.177 62.4771 77.4134 62.4458C77.6498 62.4144 77.8706 62.3842 78.0756 62.3553L77.844 62.4892C77.8513 62.1418 77.7813 61.8849 77.6341 61.7184C77.4894 61.5519 77.2385 61.4687 76.8815 61.4687C76.645 61.4687 76.4376 61.523 76.259 61.6316C76.0829 61.7377 75.9587 61.9114 75.8863 62.1526L75.2748 61.9681C75.3688 61.6255 75.551 61.3565 75.8212 61.1611C76.0914 60.9657 76.4472 60.868 76.8887 60.868C77.2433 60.868 77.5473 60.9319 77.8006 61.0598C78.0563 61.1853 78.2397 61.3758 78.3507 61.6316C78.4061 61.7522 78.4411 61.8837 78.4556 62.026C78.4701 62.1659 78.4773 62.3131 78.4773 62.4675V64.8848H77.9056V63.9475L78.0394 64.0344C77.8923 64.3504 77.686 64.5892 77.4206 64.7509C77.1577 64.9125 76.8368 64.9933 76.4581 64.9933ZM76.5558 64.4541C76.7874 64.4541 76.9876 64.4131 77.1565 64.3311C77.3278 64.2467 77.4653 64.1369 77.569 64.0018C77.6727 63.8643 77.7403 63.7147 77.7717 63.5531C77.8078 63.4325 77.8271 63.2986 77.8296 63.1514C77.8344 63.0018 77.8368 62.8872 77.8368 62.8076L78.0612 62.9053C77.8513 62.9343 77.645 62.962 77.4424 62.9886C77.2397 63.0151 77.0479 63.0441 76.867 63.0754C76.6861 63.1044 76.5232 63.1393 76.3785 63.1804C76.2723 63.2141 76.1722 63.2576 76.0781 63.3106C75.9864 63.3637 75.9116 63.4325 75.8538 63.5169C75.7983 63.5989 75.7705 63.7015 75.7705 63.8245C75.7705 63.9306 75.7971 64.032 75.8501 64.1285C75.9056 64.225 75.9901 64.3034 76.1034 64.3637C76.2192 64.424 76.37 64.4541 76.5558 64.4541ZM79.1287 65.7533V64.3528C79.3482 64.3528 79.505 64.2816 79.5991 64.1393C79.6932 63.9946 79.7692 63.7569 79.8271 63.4264C79.8657 63.219 79.897 62.997 79.9212 62.7606C79.9453 62.5242 79.9658 62.2612 79.9827 61.9717C80.002 61.6798 80.0201 61.3481 80.037 60.9766H82.7293V64.3528H83.1092V65.7533H82.4941V64.8848H79.7439V65.7533H79.1287ZM80.1202 64.3528H82.0852V61.5085H80.6196C80.6123 61.6798 80.6027 61.8595 80.5906 62.0477C80.5786 62.2335 80.5641 62.4192 80.5472 62.605C80.5327 62.7907 80.5146 62.9669 80.4929 63.1333C80.4736 63.2974 80.4507 63.4445 80.4242 63.5748C80.3928 63.7557 80.3566 63.9089 80.3156 64.0344C80.2746 64.1598 80.2095 64.266 80.1202 64.3528ZM85.6304 64.9933C85.2637 64.9933 84.9549 64.9029 84.704 64.7219C84.4531 64.5386 84.2625 64.2913 84.1323 63.9801C84.0044 63.6665 83.9405 63.3155 83.9405 62.9271C83.9405 62.5338 84.0044 62.1816 84.1323 61.8704C84.2625 61.5592 84.4531 61.3143 84.704 61.1358C84.9573 60.9573 85.2673 60.868 85.634 60.868C85.9959 60.868 86.3071 60.9585 86.5676 61.1394C86.8306 61.3179 87.032 61.5628 87.172 61.874C87.3119 62.1852 87.3818 62.5362 87.3818 62.9271C87.3818 63.3179 87.3119 63.6689 87.172 63.9801C87.032 64.2913 86.8306 64.5386 86.5676 64.7219C86.3071 64.9029 85.9947 64.9933 85.6304 64.9933ZM83.8319 66.6217V60.9766H84.4073V63.8534H84.4797V66.6217H83.8319ZM85.5508 64.4035C85.8089 64.4035 86.0224 64.3383 86.1913 64.2081C86.3602 64.0778 86.4868 63.9017 86.5713 63.6797C86.6557 63.4554 86.6979 63.2045 86.6979 62.9271C86.6979 62.652 86.6557 62.4035 86.5713 62.1816C86.4892 61.9597 86.3614 61.7835 86.1877 61.6533C86.0164 61.523 85.7981 61.4579 85.5327 61.4579C85.2794 61.4579 85.0695 61.5206 84.903 61.646C84.7366 61.7691 84.6123 61.9416 84.5303 62.1635C84.4483 62.383 84.4073 62.6376 84.4073 62.9271C84.4073 63.2117 84.4471 63.4662 84.5267 63.6906C84.6087 63.9125 84.7342 64.0874 84.903 64.2153C85.0719 64.3408 85.2878 64.4035 85.5508 64.4035ZM89.8687 64.9933C89.4851 64.9933 89.1498 64.9089 88.8627 64.74C88.578 64.5687 88.3561 64.3311 88.1968 64.0271C88.0376 63.7208 87.958 63.3637 87.958 62.956C87.958 62.529 88.0364 62.1599 88.1932 61.8487C88.35 61.5351 88.5684 61.2938 88.8482 61.1249C89.1305 60.9537 89.461 60.868 89.8397 60.868C90.233 60.868 90.5671 60.9585 90.8421 61.1394C91.1195 61.3203 91.327 61.5785 91.4645 61.9138C91.6045 62.2491 91.6648 62.6484 91.6455 63.1116H90.9941V62.88C90.9869 62.3999 90.8892 62.0417 90.701 61.8053C90.5128 61.5664 90.233 61.447 89.8614 61.447C89.4634 61.447 89.1606 61.5749 88.9532 61.8306C88.7457 62.0863 88.6419 62.453 88.6419 62.9307C88.6419 63.3914 88.7457 63.7485 88.9532 64.0018C89.1606 64.2551 89.4562 64.3818 89.8397 64.3818C90.0979 64.3818 90.3222 64.3227 90.5128 64.2045C90.7034 64.0862 90.853 63.9162 90.9615 63.6942L91.5803 63.9077C91.4283 64.2527 91.1992 64.5205 90.8928 64.7111C90.5888 64.8992 90.2474 64.9933 89.8687 64.9933ZM88.4248 63.1116V62.5941H91.3125V63.1116H88.4248ZM94.0976 64.9933C93.702 64.9933 93.3655 64.9053 93.088 64.7292C92.813 64.5506 92.6031 64.3058 92.4584 63.9946C92.3136 63.6834 92.2388 63.3287 92.234 62.9307C92.2388 62.523 92.3148 62.1647 92.462 61.8559C92.6116 61.5447 92.8251 61.3023 93.1025 61.1286C93.3799 60.9549 93.7141 60.868 94.1049 60.868C94.5174 60.868 94.872 60.9693 95.1688 61.172C95.4679 61.3746 95.6682 61.6521 95.7695 62.0043L95.1326 62.1961C95.0506 61.9693 94.9167 61.7932 94.7309 61.6677C94.5476 61.5423 94.3365 61.4796 94.0976 61.4796C93.8299 61.4796 93.6091 61.5423 93.4354 61.6677C93.2617 61.7908 93.1327 61.9621 93.0482 62.1816C92.9638 62.3987 92.9204 62.6484 92.9179 62.9307C92.9228 63.3649 93.0229 63.7159 93.2183 63.9837C93.4161 64.2491 93.7092 64.3818 94.0976 64.3818C94.3534 64.3818 94.5657 64.3239 94.7345 64.2081C94.9034 64.0899 95.0313 63.9198 95.1181 63.6978L95.7695 63.8679C95.6344 64.2322 95.4233 64.5108 95.1362 64.7038C94.8491 64.8968 94.5029 64.9933 94.0976 64.9933Z" fill="#272833"/>
<path d="M27.3244 93.2305V92.5212C27.0566 92.567 26.7985 92.555 26.55 92.485C26.3039 92.4151 26.0832 92.2932 25.8878 92.1195C25.6948 91.9434 25.5416 91.7166 25.4282 91.4392C25.3148 91.1618 25.2581 90.8385 25.2581 90.4694C25.2581 90.0979 25.3148 89.7734 25.4282 89.496C25.5416 89.2161 25.6948 88.9881 25.8878 88.812C26.0832 88.6335 26.3039 88.5093 26.55 88.4393C26.7985 88.3669 27.0566 88.3537 27.3244 88.3995V88.0195H27.9649V88.3995C28.2327 88.3537 28.4908 88.3669 28.7393 88.4393C28.9878 88.5093 29.2085 88.6335 29.4015 88.812C29.597 88.9881 29.7514 89.2161 29.8647 89.496C29.9781 89.7734 30.0348 90.0979 30.0348 90.4694C30.0348 90.8385 29.9781 91.1618 29.8647 91.4392C29.7514 91.7166 29.597 91.9434 29.4015 92.1195C29.2085 92.2932 28.9878 92.4151 28.7393 92.485C28.4908 92.555 28.2327 92.567 27.9649 92.5212V93.2305H27.3244ZM27.3244 91.9169V88.993C27.1025 88.9592 26.9034 88.9749 26.7273 89.04C26.5536 89.1027 26.4065 89.2041 26.2858 89.344C26.1676 89.4815 26.0772 89.6468 26.0144 89.8397C25.9517 90.0327 25.9204 90.2426 25.9204 90.4694C25.9204 90.6938 25.9517 90.9012 26.0144 91.0918C26.0772 91.2824 26.1676 91.4452 26.2858 91.5803C26.4065 91.7154 26.5536 91.8131 26.7273 91.8735C26.9034 91.9338 27.1025 91.9482 27.3244 91.9169ZM27.9649 91.9169C28.1893 91.9482 28.3883 91.9338 28.562 91.8735C28.7357 91.8107 28.8829 91.713 29.0035 91.5803C29.1241 91.4477 29.2158 91.2872 29.2785 91.0991C29.3412 90.9085 29.3726 90.7034 29.3726 90.4839C29.3726 90.2619 29.3412 90.0545 29.2785 89.8615C29.2158 89.6661 29.1241 89.4984 29.0035 89.3585C28.8829 89.2161 28.7357 89.1112 28.562 89.0436C28.3883 88.9761 28.1893 88.9592 27.9649 88.993V91.9169ZM33.9555 89.3223V93.2305H33.3331V90.35L31.2849 93.2305H30.753V89.3223H31.3754V92.163L33.4272 89.3223H33.9555ZM36.3694 93.339C35.9834 93.339 35.642 93.2558 35.3453 93.0893C35.0486 92.9205 34.8146 92.6889 34.6433 92.3945L35.1571 92.0616C35.2995 92.2763 35.4696 92.4416 35.6674 92.5574C35.8652 92.6708 36.0908 92.7275 36.3441 92.7275C36.6094 92.7275 36.8205 92.6672 36.9773 92.5465C37.1342 92.4235 37.2126 92.2582 37.2126 92.0508C37.2126 91.8964 37.174 91.7782 37.0968 91.6961C37.0196 91.6141 36.9086 91.5574 36.7638 91.5261C36.6191 91.4947 36.4466 91.479 36.2464 91.479H35.8411V90.9471H36.2428C36.4961 90.9471 36.7023 90.9061 36.8615 90.824C37.0208 90.742 37.1004 90.6021 37.1004 90.4043C37.1004 90.2016 37.0256 90.0545 36.876 89.9628C36.7289 89.8687 36.5528 89.8217 36.3477 89.8217C36.1306 89.8217 35.9231 89.8675 35.7253 89.9592C35.5275 90.0484 35.3574 90.1618 35.215 90.2993L34.8242 89.8615C35.0269 89.654 35.2597 89.4948 35.5226 89.3838C35.788 89.2704 36.0763 89.2137 36.3875 89.2137C36.6384 89.2137 36.8676 89.2583 37.0751 89.3476C37.2849 89.4345 37.4514 89.5635 37.5744 89.7348C37.6999 89.9037 37.7626 90.1099 37.7626 90.3536C37.7626 90.5611 37.7144 90.7456 37.6179 90.9073C37.5214 91.0689 37.379 91.21 37.1908 91.3307L37.1655 91.1027C37.3247 91.1413 37.4562 91.2124 37.56 91.3162C37.6661 91.4175 37.7445 91.5381 37.7952 91.678C37.8458 91.818 37.8712 91.9639 37.8712 92.1159C37.8712 92.3716 37.8036 92.5912 37.6685 92.7745C37.5358 92.9554 37.3561 93.0954 37.1293 93.1943C36.9026 93.2908 36.6493 93.339 36.3694 93.339ZM41.8643 89.3223V93.2305H41.2419V90.35L39.1937 93.2305H38.6618V89.3223H39.2842V92.163L41.336 89.3223H41.8643ZM45.23 93.2305V91.8228C45.0997 91.8879 44.9417 91.9434 44.7559 91.9893C44.5726 92.0351 44.3759 92.058 44.1661 92.058C43.768 92.058 43.4471 91.9687 43.2035 91.7902C42.9598 91.6117 42.8006 91.3548 42.7258 91.0194C42.7041 90.9181 42.6884 90.8132 42.6788 90.7046C42.6715 90.5961 42.6667 90.4971 42.6643 90.4079C42.6619 90.3186 42.6607 90.2535 42.6607 90.2125V89.3223H43.312V90.2125C43.312 90.2824 43.3145 90.3693 43.3193 90.473C43.3241 90.5743 43.3362 90.6733 43.3555 90.7698C43.4037 91.0086 43.5038 91.1883 43.6558 91.3089C43.8102 91.4296 44.0273 91.4899 44.3072 91.4899C44.4954 91.4899 44.6691 91.4658 44.8283 91.4175C44.9875 91.3693 45.1214 91.3053 45.23 91.2257V89.3223H45.8777V93.2305H45.23ZM48.5858 93.339C48.2023 93.339 47.8669 93.2546 47.5798 93.0857C47.2952 92.9144 47.0732 92.6768 46.914 92.3728C46.7548 92.0665 46.6752 91.7094 46.6752 91.3017C46.6752 90.8747 46.7536 90.5056 46.9104 90.1944C47.0672 89.8808 47.2855 89.6395 47.5654 89.4706C47.8476 89.2994 48.1781 89.2137 48.5569 89.2137C48.9501 89.2137 49.2843 89.3042 49.5593 89.4851C49.8367 89.6661 50.0442 89.9242 50.1817 90.2595C50.3216 90.5949 50.3819 90.9941 50.3626 91.4573H49.7113V91.2257C49.704 90.7456 49.6063 90.3874 49.4181 90.151C49.23 89.9121 48.9501 89.7927 48.5786 89.7927C48.1806 89.7927 47.8778 89.9206 47.6703 90.1763C47.4628 90.432 47.3591 90.7987 47.3591 91.2764C47.3591 91.7372 47.4628 92.0942 47.6703 92.3475C47.8778 92.6008 48.1733 92.7275 48.5569 92.7275C48.815 92.7275 49.0394 92.6684 49.23 92.5502C49.4206 92.4319 49.5701 92.2619 49.6787 92.0399L50.2975 92.2534C50.1455 92.5984 49.9163 92.8662 49.6099 93.0568C49.306 93.2449 48.9646 93.339 48.5858 93.339ZM47.142 91.4573V90.9398H50.0297V91.4573H47.142ZM52.8148 93.339C52.4192 93.339 52.0826 93.251 51.8052 93.0749C51.5302 92.8963 51.3203 92.6515 51.1755 92.3403C51.0308 92.0291 50.956 91.6744 50.9512 91.2764C50.956 90.8687 51.032 90.5104 51.1792 90.2016C51.3287 89.8904 51.5422 89.648 51.8197 89.4743C52.0971 89.3006 52.4312 89.2137 52.822 89.2137C53.2346 89.2137 53.5892 89.315 53.8859 89.5177C54.1851 89.7203 54.3853 89.9978 54.4866 90.35L53.8498 90.5418C53.7677 90.315 53.6338 90.1389 53.4481 90.0134C53.2647 89.888 53.0536 89.8253 52.8148 89.8253C52.547 89.8253 52.3263 89.888 52.1526 90.0134C51.9789 90.1365 51.8498 90.3078 51.7654 90.5273C51.6809 90.7444 51.6375 90.9941 51.6351 91.2764C51.6399 91.7106 51.7401 92.0616 51.9355 92.3294C52.1333 92.5948 52.4264 92.7275 52.8148 92.7275C53.0705 92.7275 53.2828 92.6696 53.4517 92.5538C53.6206 92.4356 53.7484 92.2655 53.8353 92.0435L54.4866 92.2136C54.3515 92.5779 54.1405 92.8565 53.8534 93.0495C53.5663 93.2425 53.2201 93.339 52.8148 93.339ZM55.2216 93.2305L55.2252 89.3223H55.8766V91.204L57.5158 89.3223H58.3518L56.6256 91.2764L58.5544 93.2305H57.6533L55.8766 91.3487V93.2305H55.2216ZM60.5085 93.339C60.1201 93.339 59.7848 93.251 59.5025 93.0749C59.2227 92.8988 59.0067 92.6551 58.8548 92.3439C58.7028 92.0327 58.6268 91.6756 58.6268 91.2728C58.6268 90.8626 58.704 90.5032 58.8584 90.1944C59.0128 89.8856 59.2311 89.6455 59.5134 89.4743C59.7956 89.3006 60.1273 89.2137 60.5085 89.2137C60.8993 89.2137 61.2359 89.3018 61.5181 89.4779C61.8004 89.6516 62.0163 89.894 62.1659 90.2052C62.3178 90.514 62.3938 90.8699 62.3938 91.2728C62.3938 91.6805 62.3178 92.0399 62.1659 92.3511C62.0139 92.6599 61.7968 92.9024 61.5145 93.0785C61.2322 93.2522 60.8969 93.339 60.5085 93.339ZM60.5085 92.7275C60.9138 92.7275 61.2153 92.5924 61.4132 92.3222C61.611 92.052 61.7099 91.7022 61.7099 91.2728C61.7099 90.8313 61.6098 90.4803 61.4096 90.2197C61.2093 89.9568 60.909 89.8253 60.5085 89.8253C60.2359 89.8253 60.0115 89.8868 59.8354 90.0098C59.6593 90.1329 59.5278 90.3029 59.441 90.5201C59.3541 90.7372 59.3107 90.9881 59.3107 91.2728C59.3107 91.7118 59.412 92.064 59.6147 92.3294C59.8173 92.5948 60.1153 92.7275 60.5085 92.7275ZM64.8841 93.339C64.5005 93.339 64.1652 93.2546 63.8781 93.0857C63.5935 92.9144 63.3715 92.6768 63.2123 92.3728C63.0531 92.0665 62.9734 91.7094 62.9734 91.3017C62.9734 90.8747 63.0519 90.5056 63.2087 90.1944C63.3655 89.8808 63.5838 89.6395 63.8636 89.4706C64.1459 89.2994 64.4764 89.2137 64.8552 89.2137C65.2484 89.2137 65.5825 89.3042 65.8576 89.4851C66.135 89.6661 66.3425 89.9242 66.48 90.2595C66.6199 90.5949 66.6802 90.9941 66.6609 91.4573H66.0095V91.2257C66.0023 90.7456 65.9046 90.3874 65.7164 90.151C65.5282 89.9121 65.2484 89.7927 64.8769 89.7927C64.4788 89.7927 64.1761 89.9206 63.9686 90.1763C63.7611 90.432 63.6574 90.7987 63.6574 91.2764C63.6574 91.7372 63.7611 92.0942 63.9686 92.3475C64.1761 92.6008 64.4716 92.7275 64.8552 92.7275C65.1133 92.7275 65.3377 92.6684 65.5282 92.5502C65.7188 92.4319 65.8684 92.2619 65.977 92.0399L66.5958 92.2534C66.4438 92.5984 66.2146 92.8662 65.9082 93.0568C65.6042 93.2449 65.2629 93.339 64.8841 93.339ZM63.4403 91.4573V90.9398H66.328V91.4573H63.4403ZM68.5536 93.2305V92.6768C68.6983 92.7033 68.8081 92.6985 68.8829 92.6623C68.9601 92.6237 69.0168 92.5574 69.053 92.4633C69.0916 92.3668 69.1229 92.2462 69.1471 92.1014C69.1881 91.8723 69.2231 91.6165 69.252 91.3343C69.2834 91.052 69.3111 90.7432 69.3352 90.4079C69.3618 90.0701 69.3859 89.7083 69.4076 89.3223H72.1397V93.2305H71.4956V89.9338H69.9938C69.9794 90.1558 69.9613 90.3838 69.9396 90.6178C69.9203 90.8518 69.8997 91.0798 69.878 91.3017C69.8563 91.5212 69.8322 91.7263 69.8057 91.9169C69.7815 92.1051 69.755 92.2679 69.7261 92.4054C69.6802 92.6418 69.6163 92.8312 69.5343 92.9735C69.4522 93.1135 69.334 93.2039 69.1796 93.2449C69.0252 93.2884 68.8166 93.2835 68.5536 93.2305ZM76.3551 89.3223V93.2305H75.7326V90.35L73.6845 93.2305H73.1525V89.3223H73.7749V92.163L75.8267 89.3223H76.3551ZM80.6977 93.9542V93.2305H77.3649V89.3223H78.009V92.6189H79.9233V89.3223H80.5674V92.6442H81.3418V93.9542H80.6977ZM83.5848 93.339C83.1964 93.339 82.861 93.251 82.5788 93.0749C82.2989 92.8988 82.083 92.6551 81.931 92.3439C81.779 92.0327 81.703 91.6756 81.703 91.2728C81.703 90.8626 81.7802 90.5032 81.9346 90.1944C82.089 89.8856 82.3074 89.6455 82.5896 89.4743C82.8719 89.3006 83.2036 89.2137 83.5848 89.2137C83.9756 89.2137 84.3121 89.3018 84.5944 89.4779C84.8766 89.6516 85.0925 89.894 85.2421 90.2052C85.3941 90.514 85.4701 90.8699 85.4701 91.2728C85.4701 91.6805 85.3941 92.0399 85.2421 92.3511C85.0901 92.6599 84.873 92.9024 84.5908 93.0785C84.3085 93.2522 83.9732 93.339 83.5848 93.339ZM83.5848 92.7275C83.9901 92.7275 84.2916 92.5924 84.4894 92.3222C84.6873 92.052 84.7862 91.7022 84.7862 91.2728C84.7862 90.8313 84.686 90.4803 84.4858 90.2197C84.2856 89.9568 83.9852 89.8253 83.5848 89.8253C83.3121 89.8253 83.0878 89.8868 82.9117 90.0098C82.7356 90.1329 82.6041 90.3029 82.5172 90.5201C82.4304 90.7372 82.387 90.9881 82.387 91.2728C82.387 91.7118 82.4883 92.064 82.6909 92.3294C82.8936 92.5948 83.1915 92.7275 83.5848 92.7275Z" fill="#272833"/>
<path d="M25.0408 84.025H86.0407V82.8188H25.0408V84.025ZM90.2626 88.2468V94.4219H91.4688V88.2468H90.2626ZM86.0407 98.6437H25.0407V99.8499H86.0407V98.6437ZM20.8189 94.4219V88.2468H19.6127V94.4219H20.8189ZM25.0407 98.6437C22.7091 98.6437 20.8189 96.7535 20.8189 94.4219H19.6127C19.6127 97.4197 22.0429 99.8499 25.0407 99.8499V98.6437ZM90.2626 94.4219C90.2626 96.7535 88.3724 98.6437 86.0407 98.6437V99.8499C89.0386 99.8499 91.4688 97.4197 91.4688 94.4219H90.2626ZM86.0407 84.025C88.3724 84.025 90.2626 85.9152 90.2626 88.2468H91.4688C91.4688 85.249 89.0386 82.8188 86.0407 82.8188V84.025ZM25.0408 82.8188C22.0429 82.8188 19.6127 85.249 19.6127 88.2468H20.8189C20.8189 85.9152 22.7091 84.025 25.0408 84.025V82.8188Z" fill="#00D45F"/>
<path d="M126.267 93.2305V88.0195H126.911V90.3029H128.193V90.9471H126.911V93.2305H126.267ZM130.129 93.339C129.784 93.339 129.478 93.2703 129.213 93.1328C128.948 92.9953 128.726 92.8035 128.547 92.5574C128.369 92.3113 128.234 92.023 128.142 91.6925C128.05 91.362 128.004 91.0062 128.004 90.625C128.004 90.239 128.05 89.882 128.142 89.5539C128.234 89.2258 128.369 88.9387 128.547 88.6926C128.726 88.4466 128.948 88.256 129.213 88.1209C129.478 87.9834 129.784 87.9146 130.129 87.9146C130.476 87.9146 130.781 87.9834 131.044 88.1209C131.309 88.256 131.531 88.4466 131.71 88.6926C131.888 88.9387 132.024 89.2258 132.115 89.5539C132.207 89.882 132.253 90.239 132.253 90.625C132.253 91.0158 132.207 91.3765 132.115 91.707C132.024 92.0375 131.888 92.3258 131.71 92.5719C131.531 92.8155 131.309 93.0049 131.044 93.14C130.781 93.2727 130.476 93.339 130.129 93.339ZM130.129 92.7239C130.37 92.7239 130.58 92.6696 130.758 92.561C130.939 92.4524 131.089 92.3029 131.207 92.1123C131.328 91.9193 131.418 91.6961 131.478 91.4428C131.539 91.1871 131.569 90.9145 131.569 90.625C131.571 90.3331 131.542 90.0605 131.482 89.8072C131.424 89.5539 131.335 89.3319 131.214 89.1413C131.096 88.9483 130.945 88.7988 130.762 88.6926C130.581 88.5841 130.37 88.5298 130.129 88.5298C129.887 88.5298 129.676 88.5841 129.495 88.6926C129.317 88.7988 129.168 88.9483 129.05 89.1413C128.932 89.3319 128.843 89.5539 128.782 89.8072C128.722 90.0605 128.691 90.3331 128.688 90.625C128.688 90.9145 128.717 91.1871 128.775 91.4428C128.835 91.6961 128.925 91.9193 129.043 92.1123C129.164 92.3029 129.314 92.4524 129.495 92.561C129.676 92.6696 129.887 92.7239 130.129 92.7239ZM134.77 93.339C134.403 93.339 134.094 93.2486 133.843 93.0676C133.592 92.8843 133.402 92.637 133.271 92.3258C133.144 92.0122 133.08 91.6612 133.08 91.2728C133.08 90.8795 133.144 90.5273 133.271 90.2161C133.402 89.9049 133.592 89.66 133.843 89.4815C134.096 89.303 134.406 89.2137 134.773 89.2137C135.135 89.2137 135.446 89.3042 135.707 89.4851C135.97 89.6636 136.171 89.9085 136.311 90.2197C136.451 90.5309 136.521 90.8819 136.521 91.2728C136.521 91.6636 136.451 92.0146 136.311 92.3258C136.171 92.637 135.97 92.8843 135.707 93.0676C135.446 93.2486 135.134 93.339 134.77 93.339ZM132.971 94.9674V89.3223H133.546V92.1991H133.619V94.9674H132.971ZM134.69 92.7492C134.948 92.7492 135.162 92.684 135.33 92.5538C135.499 92.4235 135.626 92.2474 135.71 92.0254C135.795 91.8011 135.837 91.5502 135.837 91.2728C135.837 90.9977 135.795 90.7492 135.71 90.5273C135.628 90.3054 135.501 90.1292 135.327 89.999C135.156 89.8687 134.937 89.8036 134.672 89.8036C134.419 89.8036 134.209 89.8663 134.042 89.9917C133.876 90.1148 133.751 90.2873 133.669 90.5092C133.587 90.7287 133.546 90.9833 133.546 91.2728C133.546 91.5574 133.586 91.8119 133.666 92.0363C133.748 92.2582 133.873 92.4331 134.042 92.561C134.211 92.6865 134.427 92.7492 134.69 92.7492ZM140.513 89.3223V93.2305H139.891V90.35L137.843 93.2305H137.311V89.3223H137.933V92.163L139.985 89.3223H140.513ZM141.237 94.099V92.6985C141.457 92.6985 141.614 92.6274 141.708 92.485C141.802 92.3403 141.878 92.1026 141.936 91.7721C141.974 91.5647 142.006 91.3427 142.03 91.1063C142.054 90.8699 142.074 90.6069 142.091 90.3174C142.11 90.0255 142.129 89.6938 142.145 89.3223H144.838V92.6985H145.218V94.099H144.603V93.2305H141.852V94.099H141.237ZM142.229 92.6985H144.194V89.8542H142.728C142.721 90.0255 142.711 90.2052 142.699 90.3934C142.687 90.5792 142.673 90.7649 142.656 90.9507C142.641 91.1364 142.623 91.3126 142.601 91.479C142.582 91.6431 142.559 91.7902 142.533 91.9205C142.501 92.1014 142.465 92.2546 142.424 92.3801C142.383 92.5055 142.318 92.6117 142.229 92.6985ZM149.143 89.3223V93.2305H148.521V90.35L146.472 93.2305H145.94V89.3223H146.563V92.163L148.615 89.3223H149.143ZM152.509 93.2305V91.8228C152.378 91.8879 152.22 91.9434 152.035 91.9893C151.851 92.0351 151.655 92.058 151.445 92.058C151.047 92.058 150.726 91.9687 150.482 91.7902C150.238 91.6117 150.079 91.3548 150.004 91.0194C149.983 90.9181 149.967 90.8132 149.957 90.7046C149.95 90.5961 149.945 90.4971 149.943 90.4079C149.941 90.3186 149.939 90.2535 149.939 90.2125V89.3223H150.591V90.2125C150.591 90.2824 150.593 90.3693 150.598 90.473C150.603 90.5743 150.615 90.6733 150.634 90.7698C150.682 91.0086 150.782 91.1883 150.934 91.3089C151.089 91.4296 151.306 91.4899 151.586 91.4899C151.774 91.4899 151.948 91.4658 152.107 91.4175C152.266 91.3693 152.4 91.3053 152.509 91.2257V89.3223H153.156V93.2305H152.509ZM155.864 93.339C155.481 93.339 155.146 93.2546 154.858 93.0857C154.574 92.9144 154.352 92.6768 154.193 92.3728C154.033 92.0665 153.954 91.7094 153.954 91.3017C153.954 90.8747 154.032 90.5056 154.189 90.1944C154.346 89.8808 154.564 89.6395 154.844 89.4706C155.126 89.2994 155.457 89.2137 155.836 89.2137C156.229 89.2137 156.563 89.3042 156.838 89.4851C157.115 89.6661 157.323 89.9242 157.46 90.2595C157.6 90.5949 157.661 90.9941 157.641 91.4573H156.99V91.2257C156.983 90.7456 156.885 90.3874 156.697 90.151C156.509 89.9121 156.229 89.7927 155.857 89.7927C155.459 89.7927 155.156 89.9206 154.949 90.1763C154.741 90.432 154.638 90.7987 154.638 91.2764C154.638 91.7372 154.741 92.0942 154.949 92.3475C155.156 92.6008 155.452 92.7275 155.836 92.7275C156.094 92.7275 156.318 92.6684 156.509 92.5502C156.699 92.4319 156.849 92.2619 156.957 92.0399L157.576 92.2534C157.424 92.5984 157.195 92.8662 156.889 93.0568C156.585 93.2449 156.243 93.339 155.864 93.339ZM154.421 91.4573V90.9398H157.308V91.4573H154.421ZM160.093 93.339C159.698 93.339 159.361 93.251 159.084 93.0749C158.809 92.8963 158.599 92.6515 158.454 92.3403C158.309 92.0291 158.235 91.6744 158.23 91.2764C158.235 90.8687 158.311 90.5104 158.458 90.2016C158.607 89.8904 158.821 89.648 159.098 89.4743C159.376 89.3006 159.71 89.2137 160.101 89.2137C160.513 89.2137 160.868 89.315 161.165 89.5177C161.464 89.7203 161.664 89.9978 161.765 90.35L161.128 90.5418C161.046 90.315 160.912 90.1389 160.727 90.0134C160.543 89.888 160.332 89.8253 160.093 89.8253C159.826 89.8253 159.605 89.888 159.431 90.0134C159.257 90.1365 159.128 90.3078 159.044 90.5273C158.96 90.7444 158.916 90.9941 158.914 91.2764C158.919 91.7106 159.019 92.0616 159.214 92.3294C159.412 92.5948 159.705 92.7275 160.093 92.7275C160.349 92.7275 160.561 92.6696 160.73 92.5538C160.899 92.4356 161.027 92.2655 161.114 92.0435L161.765 92.2136C161.63 92.5779 161.419 92.8565 161.132 93.0495C160.845 93.2425 160.499 93.339 160.093 93.339ZM162.5 93.2305L162.504 89.3223H163.155V91.204L164.794 89.3223H165.63L163.904 91.2764L165.833 93.2305H164.932L163.155 91.3487V93.2305H162.5ZM167.787 93.339C167.399 93.339 167.063 93.251 166.781 93.0749C166.501 92.8988 166.285 92.6551 166.133 92.3439C165.981 92.0327 165.905 91.6756 165.905 91.2728C165.905 90.8626 165.983 90.5032 166.137 90.1944C166.291 89.8856 166.51 89.6455 166.792 89.4743C167.074 89.3006 167.406 89.2137 167.787 89.2137C168.178 89.2137 168.514 89.3018 168.797 89.4779C169.079 89.6516 169.295 89.894 169.444 90.2052C169.596 90.514 169.672 90.8699 169.672 91.2728C169.672 91.6805 169.596 92.0399 169.444 92.3511C169.292 92.6599 169.075 92.9024 168.793 93.0785C168.511 93.2522 168.176 93.339 167.787 93.339ZM167.787 92.7275C168.192 92.7275 168.494 92.5924 168.692 92.3222C168.89 92.052 168.989 91.7022 168.989 91.2728C168.989 90.8313 168.888 90.4803 168.688 90.2197C168.488 89.9568 168.188 89.8253 167.787 89.8253C167.515 89.8253 167.29 89.8868 167.114 90.0098C166.938 90.1329 166.806 90.3029 166.72 90.5201C166.633 90.7372 166.589 90.9881 166.589 91.2728C166.589 91.7118 166.691 92.064 166.893 92.3294C167.096 92.5948 167.394 92.7275 167.787 92.7275ZM172.163 93.339C171.779 93.339 171.444 93.2546 171.157 93.0857C170.872 92.9144 170.65 92.6768 170.491 92.3728C170.332 92.0665 170.252 91.7094 170.252 91.3017C170.252 90.8747 170.33 90.5056 170.487 90.1944C170.644 89.8808 170.862 89.6395 171.142 89.4706C171.425 89.2994 171.755 89.2137 172.134 89.2137C172.527 89.2137 172.861 89.3042 173.136 89.4851C173.414 89.6661 173.621 89.9242 173.759 90.2595C173.899 90.5949 173.959 90.9941 173.94 91.4573H173.288V91.2257C173.281 90.7456 173.183 90.3874 172.995 90.151C172.807 89.9121 172.527 89.7927 172.156 89.7927C171.757 89.7927 171.455 89.9206 171.247 90.1763C171.04 90.432 170.936 90.7987 170.936 91.2764C170.936 91.7372 171.04 92.0942 171.247 92.3475C171.455 92.6008 171.75 92.7275 172.134 92.7275C172.392 92.7275 172.616 92.6684 172.807 92.5502C172.997 92.4319 173.147 92.2619 173.256 92.0399L173.874 92.2534C173.722 92.5984 173.493 92.8662 173.187 93.0568C172.883 93.2449 172.541 93.339 172.163 93.339ZM170.719 91.4573V90.9398H173.607V91.4573H170.719ZM175.832 93.2305V92.6768C175.977 92.7033 176.087 92.6985 176.162 92.6623C176.239 92.6237 176.295 92.5574 176.332 92.4633C176.37 92.3668 176.402 92.2462 176.426 92.1014C176.467 91.8723 176.502 91.6165 176.531 91.3343C176.562 91.052 176.59 90.7432 176.614 90.4079C176.64 90.0701 176.665 89.7083 176.686 89.3223H179.418V93.2305H178.774V89.9338H177.272C177.258 90.1558 177.24 90.3838 177.218 90.6178C177.199 90.8518 177.178 91.0798 177.157 91.3017C177.135 91.5212 177.111 91.7263 177.084 91.9169C177.06 92.1051 177.034 92.2679 177.005 92.4054C176.959 92.6418 176.895 92.8312 176.813 92.9735C176.731 93.1135 176.613 93.2039 176.458 93.2449C176.304 93.2884 176.095 93.2835 175.832 93.2305ZM183.634 89.3223V93.2305H183.011V90.35L180.963 93.2305H180.431V89.3223H181.054V92.163L183.105 89.3223H183.634ZM187.976 93.9542V93.2305H184.644V89.3223H185.288V92.6189H187.202V89.3223H187.846V92.6442H188.62V93.9542H187.976ZM190.863 93.339C190.475 93.339 190.14 93.251 189.857 93.0749C189.578 92.8988 189.362 92.6551 189.21 92.3439C189.058 92.0327 188.982 91.6756 188.982 91.2728C188.982 90.8626 189.059 90.5032 189.213 90.1944C189.368 89.8856 189.586 89.6455 189.868 89.4743C190.15 89.3006 190.482 89.2137 190.863 89.2137C191.254 89.2137 191.591 89.3018 191.873 89.4779C192.155 89.6516 192.371 89.894 192.521 90.2052C192.673 90.514 192.749 90.8699 192.749 91.2728C192.749 91.6805 192.673 92.0399 192.521 92.3511C192.369 92.6599 192.152 92.9024 191.869 93.0785C191.587 93.2522 191.252 93.339 190.863 93.339ZM190.863 92.7275C191.269 92.7275 191.57 92.5924 191.768 92.3222C191.966 92.052 192.065 91.7022 192.065 91.2728C192.065 90.8313 191.965 90.4803 191.764 90.2197C191.564 89.9568 191.264 89.8253 190.863 89.8253C190.591 89.8253 190.366 89.8868 190.19 90.0098C190.014 90.1329 189.883 90.3029 189.796 90.5201C189.709 90.7372 189.666 90.9881 189.666 91.2728C189.666 91.7118 189.767 92.064 189.97 92.3294C190.172 92.5948 190.47 92.7275 190.863 92.7275Z" fill="#272833"/>
<path d="M125.76 84.025H193.76V82.8188H125.76V84.025ZM197.982 88.2468V94.4219H199.189V88.2468H197.982ZM193.76 98.6437H125.76V99.8499H193.76V98.6437ZM121.539 94.4219V88.2468H120.332V94.4219H121.539ZM125.76 98.6437C123.429 98.6437 121.539 96.7535 121.539 94.4219H120.332C120.332 97.4197 122.763 99.8499 125.76 99.8499V98.6437ZM197.982 94.4219C197.982 96.7535 196.092 98.6437 193.76 98.6437V99.8499C196.758 99.8499 199.189 97.4197 199.189 94.4219H197.982ZM193.76 84.025C196.092 84.025 197.982 85.9152 197.982 88.2468H199.189C199.189 85.249 196.758 82.8188 193.76 82.8188V84.025ZM125.76 82.8188C122.763 82.8188 120.332 85.249 120.332 88.2468H121.539C121.539 85.9152 123.429 84.025 125.76 84.025V82.8188Z" fill="#7198FF"/>
<path d="M255.335 28.0938V22.8828H255.979V25.1662H257.26V25.8104H255.979V28.0938H255.335ZM259.196 28.2023C258.851 28.2023 258.546 28.1336 258.28 27.996C258.015 27.8585 257.793 27.6667 257.615 27.4207C257.436 27.1746 257.301 26.8863 257.209 26.5558C257.118 26.2253 257.072 25.8695 257.072 25.4883C257.072 25.1023 257.118 24.7452 257.209 24.4172C257.301 24.0891 257.436 23.802 257.615 23.5559C257.793 23.3098 258.015 23.1192 258.28 22.9841C258.546 22.8466 258.851 22.7779 259.196 22.7779C259.543 22.7779 259.848 22.8466 260.111 22.9841C260.377 23.1192 260.599 23.3098 260.777 23.5559C260.956 23.802 261.091 24.0891 261.183 24.4172C261.274 24.7452 261.32 25.1023 261.32 25.4883C261.32 25.8791 261.274 26.2398 261.183 26.5703C261.091 26.9008 260.956 27.1891 260.777 27.4351C260.599 27.6788 260.377 27.8682 260.111 28.0033C259.848 28.136 259.543 28.2023 259.196 28.2023ZM259.196 27.5871C259.437 27.5871 259.647 27.5329 259.826 27.4243C260.006 27.3157 260.156 27.1662 260.274 26.9756C260.395 26.7826 260.485 26.5594 260.546 26.3061C260.606 26.0504 260.636 25.7778 260.636 25.4883C260.639 25.1964 260.61 24.9238 260.549 24.6705C260.491 24.4172 260.402 24.1952 260.282 24.0046C260.163 23.8116 260.013 23.6621 259.829 23.5559C259.648 23.4473 259.437 23.3931 259.196 23.3931C258.955 23.3931 258.744 23.4473 258.563 23.5559C258.384 23.6621 258.236 23.8116 258.118 24.0046C257.999 24.1952 257.91 24.4172 257.85 24.6705C257.789 24.9238 257.758 25.1964 257.756 25.4883C257.756 25.7778 257.785 26.0504 257.843 26.3061C257.903 26.5594 257.992 26.7826 258.11 26.9756C258.231 27.1662 258.382 27.3157 258.563 27.4243C258.744 27.5329 258.955 27.5871 259.196 27.5871ZM263.837 28.2023C263.47 28.2023 263.161 28.1118 262.911 27.9309C262.66 27.7476 262.469 27.5003 262.339 27.1891C262.211 26.8755 262.147 26.5244 262.147 26.136C262.147 25.7428 262.211 25.3906 262.339 25.0794C262.469 24.7682 262.66 24.5233 262.911 24.3448C263.164 24.1663 263.474 24.077 263.841 24.077C264.202 24.077 264.514 24.1675 264.774 24.3484C265.037 24.5269 265.239 24.7718 265.378 25.083C265.518 25.3942 265.588 25.7452 265.588 26.136C265.588 26.5269 265.518 26.8779 265.378 27.1891C265.239 27.5003 265.037 27.7476 264.774 27.9309C264.514 28.1118 264.201 28.2023 263.837 28.2023ZM262.038 29.8307V24.1856H262.614V27.0624H262.686V29.8307H262.038ZM263.757 27.6125C264.015 27.6125 264.229 27.5473 264.398 27.4171C264.567 27.2868 264.693 27.1107 264.778 26.8887C264.862 26.6644 264.904 26.4135 264.904 26.136C264.904 25.861 264.862 25.6125 264.778 25.3906C264.696 25.1686 264.568 24.9925 264.394 24.8623C264.223 24.732 264.005 24.6668 263.739 24.6668C263.486 24.6668 263.276 24.7296 263.11 24.855C262.943 24.9781 262.819 25.1505 262.737 25.3725C262.655 25.592 262.614 25.8465 262.614 26.136C262.614 26.4207 262.654 26.6752 262.733 26.8996C262.815 27.1215 262.941 27.2964 263.11 27.4243C263.278 27.5497 263.494 27.6125 263.757 27.6125ZM269.581 24.1856V28.0938H268.958V25.2133L266.91 28.0938H266.378V24.1856H267V27.0262L269.052 24.1856H269.581ZM270.305 28.9622V27.5618C270.524 27.5618 270.681 27.4906 270.775 27.3483C270.869 27.2036 270.945 26.9659 271.003 26.6354C271.042 26.4279 271.073 26.206 271.097 25.9696C271.121 25.7332 271.142 25.4702 271.159 25.1807C271.178 24.8888 271.196 24.5571 271.213 24.1856H273.905V27.5618H274.285V28.9622H273.67V28.0938H270.92V28.9622H270.305ZM271.296 27.5618H273.261V24.7175H271.795C271.788 24.8888 271.779 25.0685 271.767 25.2567C271.754 25.4425 271.74 25.6282 271.723 25.814C271.709 25.9997 271.691 26.1758 271.669 26.3423C271.65 26.5063 271.627 26.6535 271.6 26.7838C271.569 26.9647 271.533 27.1179 271.491 27.2434C271.45 27.3688 271.385 27.475 271.296 27.5618ZM278.21 24.1856V28.0938H277.588V25.2133L275.54 28.0938H275.008V24.1856H275.63V27.0262L277.682 24.1856H278.21ZM281.576 28.0938V26.6861C281.446 26.7512 281.288 26.8067 281.102 26.8525C280.919 26.8984 280.722 26.9213 280.512 26.9213C280.114 26.9213 279.793 26.832 279.549 26.6535C279.306 26.475 279.147 26.2181 279.072 25.8827C279.05 25.7814 279.034 25.6765 279.025 25.5679C279.018 25.4593 279.013 25.3604 279.01 25.2712C279.008 25.1819 279.007 25.1168 279.007 25.0758V24.1856H279.658V25.0758C279.658 25.1457 279.66 25.2326 279.665 25.3363C279.67 25.4376 279.682 25.5365 279.701 25.633C279.75 25.8719 279.85 26.0516 280.002 26.1722C280.156 26.2928 280.373 26.3532 280.653 26.3532C280.841 26.3532 281.015 26.329 281.174 26.2808C281.334 26.2325 281.467 26.1686 281.576 26.089V24.1856H282.224V28.0938H281.576ZM284.932 28.2023C284.548 28.2023 284.213 28.1179 283.926 27.949C283.641 27.7777 283.419 27.5401 283.26 27.2361C283.101 26.9297 283.021 26.5727 283.021 26.165C283.021 25.738 283.1 25.3689 283.256 25.0577C283.413 24.744 283.632 24.5028 283.911 24.3339C284.194 24.1626 284.524 24.077 284.903 24.077C285.296 24.077 285.63 24.1675 285.905 24.3484C286.183 24.5293 286.39 24.7875 286.528 25.1228C286.668 25.4581 286.728 25.8574 286.709 26.3206H286.057V26.089C286.05 25.6089 285.952 25.2507 285.764 25.0142C285.576 24.7754 285.296 24.656 284.925 24.656C284.527 24.656 284.224 24.7838 284.016 25.0396C283.809 25.2953 283.705 25.662 283.705 26.1397C283.705 26.6004 283.809 26.9575 284.016 27.2108C284.224 27.4641 284.519 27.5908 284.903 27.5908C285.161 27.5908 285.385 27.5316 285.576 27.4134C285.767 27.2952 285.916 27.1251 286.025 26.9032L286.643 27.1167C286.492 27.4617 286.262 27.7295 285.956 27.9201C285.652 28.1082 285.311 28.2023 284.932 28.2023ZM283.488 26.3206V25.8031H286.376V26.3206H283.488ZM289.161 28.2023C288.765 28.2023 288.429 28.1143 288.151 27.9381C287.876 27.7596 287.666 27.5148 287.522 27.2036C287.377 26.8923 287.302 26.5377 287.297 26.1397C287.302 25.7319 287.378 25.3737 287.525 25.0649C287.675 24.7537 287.888 24.5112 288.166 24.3375C288.443 24.1638 288.777 24.077 289.168 24.077C289.581 24.077 289.935 24.1783 290.232 24.381C290.531 24.5836 290.731 24.861 290.833 25.2133L290.196 25.4051C290.114 25.1783 289.98 25.0022 289.794 24.8767C289.611 24.7513 289.4 24.6886 289.161 24.6886C288.893 24.6886 288.672 24.7513 288.499 24.8767C288.325 24.9998 288.196 25.171 288.111 25.3906C288.027 25.6077 287.984 25.8574 287.981 26.1397C287.986 26.5739 288.086 26.9249 288.281 27.1927C288.479 27.4581 288.772 27.5908 289.161 27.5908C289.417 27.5908 289.629 27.5329 289.798 27.4171C289.967 27.2988 290.094 27.1288 290.181 26.9068L290.833 27.0769C290.698 27.4412 290.486 27.7198 290.199 27.9128C289.912 28.1058 289.566 28.2023 289.161 28.2023ZM291.568 28.0938L291.571 24.1856H292.223V26.0673L293.862 24.1856H294.698L292.972 26.1397L294.9 28.0938H293.999L292.223 26.212V28.0938H291.568ZM296.854 28.2023C296.466 28.2023 296.131 28.1143 295.848 27.9381C295.569 27.762 295.353 27.5184 295.201 27.2072C295.049 26.896 294.973 26.5389 294.973 26.136C294.973 25.7259 295.05 25.3665 295.204 25.0577C295.359 24.7489 295.577 24.5088 295.859 24.3375C296.142 24.1638 296.473 24.077 296.854 24.077C297.245 24.077 297.582 24.1651 297.864 24.3412C298.146 24.5149 298.362 24.7573 298.512 25.0685C298.664 25.3773 298.74 25.7332 298.74 26.136C298.74 26.5437 298.664 26.9032 298.512 27.2144C298.36 27.5232 298.143 27.7657 297.86 27.9418C297.578 28.1155 297.243 28.2023 296.854 28.2023ZM296.854 27.5908C297.26 27.5908 297.561 27.4557 297.759 27.1855C297.957 26.9153 298.056 26.5655 298.056 26.136C298.056 25.6946 297.956 25.3435 297.756 25.083C297.555 24.82 297.255 24.6886 296.854 24.6886C296.582 24.6886 296.358 24.7501 296.181 24.8731C296.005 24.9961 295.874 25.1662 295.787 25.3833C295.7 25.6005 295.657 25.8514 295.657 26.136C295.657 26.5751 295.758 26.9273 295.961 27.1927C296.163 27.4581 296.461 27.5908 296.854 27.5908ZM301.23 28.2023C300.847 28.2023 300.511 28.1179 300.224 27.949C299.939 27.7777 299.718 27.5401 299.558 27.2361C299.399 26.9297 299.319 26.5727 299.319 26.165C299.319 25.738 299.398 25.3689 299.555 25.0577C299.711 24.744 299.93 24.5028 300.21 24.3339C300.492 24.1626 300.822 24.077 301.201 24.077C301.594 24.077 301.929 24.1675 302.204 24.3484C302.481 24.5293 302.688 24.7875 302.826 25.1228C302.966 25.4581 303.026 25.8574 303.007 26.3206H302.356V26.089C302.348 25.6089 302.251 25.2507 302.062 25.0142C301.874 24.7754 301.594 24.656 301.223 24.656C300.825 24.656 300.522 24.7838 300.315 25.0396C300.107 25.2953 300.003 25.662 300.003 26.1397C300.003 26.6004 300.107 26.9575 300.315 27.2108C300.522 27.4641 300.818 27.5908 301.201 27.5908C301.459 27.5908 301.684 27.5316 301.874 27.4134C302.065 27.2952 302.214 27.1251 302.323 26.9032L302.942 27.1167C302.79 27.4617 302.561 27.7295 302.254 27.9201C301.95 28.1082 301.609 28.2023 301.23 28.2023ZM299.786 26.3206V25.8031H302.674V26.3206H299.786ZM304.9 28.0938V27.5401C305.044 27.5666 305.154 27.5618 305.229 27.5256C305.306 27.487 305.363 27.4207 305.399 27.3266C305.438 27.2301 305.469 27.1095 305.493 26.9647C305.534 26.7355 305.569 26.4798 305.598 26.1976C305.629 25.9153 305.657 25.6065 305.681 25.2712C305.708 24.9334 305.732 24.5716 305.754 24.1856H308.486V28.0938H307.842V24.7971H306.34C306.325 25.0191 306.307 25.247 306.286 25.4811C306.266 25.7151 306.246 25.943 306.224 26.165C306.202 26.3845 306.178 26.5896 306.152 26.7802C306.128 26.9683 306.101 27.1312 306.072 27.2687C306.026 27.5051 305.962 27.6945 305.88 27.8368C305.798 27.9767 305.68 28.0672 305.526 28.1082C305.371 28.1516 305.163 28.1468 304.9 28.0938ZM312.701 24.1856V28.0938H312.079V25.2133L310.03 28.0938H309.499V24.1856H310.121V27.0262L312.173 24.1856H312.701ZM317.044 28.8175V28.0938H313.711V24.1856H314.355V27.4822H316.269V24.1856H316.913V27.5075H317.688V28.8175H317.044ZM319.931 28.2023C319.542 28.2023 319.207 28.1143 318.925 27.9381C318.645 27.762 318.429 27.5184 318.277 27.2072C318.125 26.896 318.049 26.5389 318.049 26.136C318.049 25.7259 318.126 25.3665 318.281 25.0577C318.435 24.7489 318.653 24.5088 318.936 24.3375C319.218 24.1638 319.55 24.077 319.931 24.077C320.322 24.077 320.658 24.1651 320.94 24.3412C321.223 24.5149 321.439 24.7573 321.588 25.0685C321.74 25.3773 321.816 25.7332 321.816 26.136C321.816 26.5437 321.74 26.9032 321.588 27.2144C321.436 27.5232 321.219 27.7657 320.937 27.9418C320.654 28.1155 320.319 28.2023 319.931 28.2023ZM319.931 27.5908C320.336 27.5908 320.638 27.4557 320.835 27.1855C321.033 26.9153 321.132 26.5655 321.132 26.136C321.132 25.6946 321.032 25.3435 320.832 25.083C320.632 24.82 320.331 24.6886 319.931 24.6886C319.658 24.6886 319.434 24.7501 319.258 24.8731C319.082 24.9961 318.95 25.1662 318.863 25.3833C318.776 25.6005 318.733 25.8514 318.733 26.136C318.733 26.5751 318.834 26.9273 319.037 27.1927C319.24 27.4581 319.538 27.5908 319.931 27.5908Z" fill="#272833"/>
<rect x="325.24" y="21.6738" width="9.41247" height="9" rx="2.41247" fill="#7198FF"/>
<path d="M327.622 28.6738V25.1245L326.808 25.6221V24.8199L327.622 24.3314H328.364V28.6738H327.622ZM329.392 28.6678V28.0345L331.25 26.379C331.395 26.2503 331.495 26.1287 331.552 26.0141C331.608 25.8995 331.636 25.7889 331.636 25.6824C331.636 25.5376 331.605 25.409 331.542 25.2964C331.48 25.1818 331.394 25.0913 331.283 25.025C331.175 24.9586 331.049 24.9255 330.906 24.9255C330.755 24.9255 330.622 24.9606 330.505 25.031C330.391 25.0994 330.301 25.1908 330.237 25.3054C330.172 25.42 330.142 25.5437 330.146 25.6763H329.398C329.398 25.3868 329.463 25.1345 329.591 24.9194C329.722 24.7043 329.901 24.5375 330.128 24.4188C330.357 24.3002 330.622 24.2409 330.921 24.2409C331.199 24.2409 331.448 24.3032 331.669 24.4279C331.89 24.5505 332.064 24.7214 332.191 24.9405C332.317 25.1577 332.381 25.408 332.381 25.6914C332.381 25.8985 332.353 26.0724 332.296 26.2131C332.24 26.3538 332.156 26.4835 332.043 26.6021C331.932 26.7207 331.795 26.8524 331.63 26.9972L330.312 28.1642L330.246 27.9833H332.381V28.6678H329.392Z" fill="white"/>
<path d="M254.828 18.8883H333.081V17.682H254.828V18.8883ZM337.303 23.1101V29.2852H338.509V23.1101H337.303ZM333.081 33.507H254.828V34.7132H333.081V33.507ZM250.606 29.2852V23.1101H249.4V29.2852H250.606ZM254.828 33.507C252.496 33.507 250.606 31.6168 250.606 29.2852H249.4C249.4 32.283 251.83 34.7132 254.828 34.7132V33.507ZM337.303 29.2852C337.303 31.6168 335.412 33.507 333.081 33.507V34.7132C336.079 34.7132 338.509 32.283 338.509 29.2852H337.303ZM333.081 18.8883C335.412 18.8883 337.303 20.7784 337.303 23.1101H338.509C338.509 20.1123 336.079 17.682 333.081 17.682V18.8883ZM254.828 17.682C251.83 17.682 249.4 20.1123 249.4 23.1101H250.606C250.606 20.7784 252.496 18.8883 254.828 18.8883V17.682Z" fill="#7198FF"/>
<path d="M255.335 64.2812V59.0703H255.979V61.3537H257.26V61.9979H255.979V64.2812H255.335ZM259.196 64.3898C258.851 64.3898 258.546 64.3211 258.28 64.1835C258.015 64.046 257.793 63.8542 257.615 63.6082C257.436 63.3621 257.301 63.0738 257.209 62.7433C257.118 62.4128 257.072 62.057 257.072 61.6758C257.072 61.2898 257.118 60.9327 257.209 60.6047C257.301 60.2766 257.436 59.9895 257.615 59.7434C257.793 59.4973 258.015 59.3067 258.28 59.1716C258.546 59.0341 258.851 58.9654 259.196 58.9654C259.543 58.9654 259.848 59.0341 260.111 59.1716C260.377 59.3067 260.599 59.4973 260.777 59.7434C260.956 59.9895 261.091 60.2766 261.183 60.6047C261.274 60.9327 261.32 61.2898 261.32 61.6758C261.32 62.0666 261.274 62.4273 261.183 62.7578C261.091 63.0883 260.956 63.3766 260.777 63.6226C260.599 63.8663 260.377 64.0557 260.111 64.1908C259.848 64.3235 259.543 64.3898 259.196 64.3898ZM259.196 63.7746C259.437 63.7746 259.647 63.7204 259.826 63.6118C260.006 63.5032 260.156 63.3537 260.274 63.1631C260.395 62.9701 260.485 62.7469 260.546 62.4936C260.606 62.2379 260.636 61.9653 260.636 61.6758C260.639 61.3839 260.61 61.1113 260.549 60.858C260.491 60.6047 260.402 60.3827 260.282 60.1921C260.163 59.9991 260.013 59.8496 259.829 59.7434C259.648 59.6348 259.437 59.5806 259.196 59.5806C258.955 59.5806 258.744 59.6348 258.563 59.7434C258.384 59.8496 258.236 59.9991 258.118 60.1921C257.999 60.3827 257.91 60.6047 257.85 60.858C257.789 61.1113 257.758 61.3839 257.756 61.6758C257.756 61.9653 257.785 62.2379 257.843 62.4936C257.903 62.7469 257.992 62.9701 258.11 63.1631C258.231 63.3537 258.382 63.5032 258.563 63.6118C258.744 63.7204 258.955 63.7746 259.196 63.7746ZM263.837 64.3898C263.47 64.3898 263.161 64.2993 262.911 64.1184C262.66 63.9351 262.469 63.6878 262.339 63.3766C262.211 63.063 262.147 62.7119 262.147 62.3235C262.147 61.9303 262.211 61.5781 262.339 61.2669C262.469 60.9557 262.66 60.7108 262.911 60.5323C263.164 60.3538 263.474 60.2645 263.841 60.2645C264.202 60.2645 264.514 60.355 264.774 60.5359C265.037 60.7144 265.239 60.9593 265.378 61.2705C265.518 61.5817 265.588 61.9327 265.588 62.3235C265.588 62.7144 265.518 63.0654 265.378 63.3766C265.239 63.6878 265.037 63.9351 264.774 64.1184C264.514 64.2993 264.201 64.3898 263.837 64.3898ZM262.038 66.0182V60.3731H262.614V63.2499H262.686V66.0182H262.038ZM263.757 63.8C264.015 63.8 264.229 63.7348 264.398 63.6046C264.567 63.4743 264.693 63.2982 264.778 63.0762C264.862 62.8519 264.904 62.601 264.904 62.3235C264.904 62.0485 264.862 61.8 264.778 61.5781C264.696 61.3561 264.568 61.18 264.394 61.0498C264.223 60.9195 264.005 60.8543 263.739 60.8543C263.486 60.8543 263.276 60.9171 263.11 61.0425C262.943 61.1656 262.819 61.338 262.737 61.56C262.655 61.7795 262.614 62.034 262.614 62.3235C262.614 62.6082 262.654 62.8627 262.733 63.0871C262.815 63.309 262.941 63.4839 263.11 63.6118C263.278 63.7372 263.494 63.8 263.757 63.8ZM269.581 60.3731V64.2812H268.958V61.4008L266.91 64.2812H266.378V60.3731H267V63.2137L269.052 60.3731H269.581ZM270.305 65.1497V63.7493C270.524 63.7493 270.681 63.6781 270.775 63.5358C270.869 63.3911 270.945 63.1534 271.003 62.8229C271.042 62.6154 271.073 62.3935 271.097 62.1571C271.121 61.9207 271.142 61.6577 271.159 61.3682C271.178 61.0763 271.196 60.7446 271.213 60.3731H273.905V63.7493H274.285V65.1497H273.67V64.2812H270.92V65.1497H270.305ZM271.296 63.7493H273.261V60.905H271.795C271.788 61.0763 271.779 61.256 271.767 61.4442C271.754 61.63 271.74 61.8157 271.723 62.0015C271.709 62.1872 271.691 62.3633 271.669 62.5298C271.65 62.6938 271.627 62.841 271.6 62.9713C271.569 63.1522 271.533 63.3054 271.491 63.4309C271.45 63.5563 271.385 63.6625 271.296 63.7493ZM278.21 60.3731V64.2812H277.588V61.4008L275.54 64.2812H275.008V60.3731H275.63V63.2137L277.682 60.3731H278.21ZM281.576 64.2812V62.8736C281.446 62.9387 281.288 62.9942 281.102 63.04C280.919 63.0859 280.722 63.1088 280.512 63.1088C280.114 63.1088 279.793 63.0195 279.549 62.841C279.306 62.6625 279.147 62.4056 279.072 62.0702C279.05 61.9689 279.034 61.864 279.025 61.7554C279.018 61.6468 279.013 61.5479 279.01 61.4587C279.008 61.3694 279.007 61.3043 279.007 61.2633V60.3731H279.658V61.2633C279.658 61.3332 279.66 61.4201 279.665 61.5238C279.67 61.6251 279.682 61.724 279.701 61.8205C279.75 62.0594 279.85 62.2391 280.002 62.3597C280.156 62.4803 280.373 62.5407 280.653 62.5407C280.841 62.5407 281.015 62.5165 281.174 62.4683C281.334 62.42 281.467 62.3561 281.576 62.2765V60.3731H282.224V64.2812H281.576ZM284.932 64.3898C284.548 64.3898 284.213 64.3054 283.926 64.1365C283.641 63.9652 283.419 63.7276 283.26 63.4236C283.101 63.1172 283.021 62.7602 283.021 62.3525C283.021 61.9255 283.1 61.5564 283.256 61.2452C283.413 60.9315 283.632 60.6903 283.911 60.5214C284.194 60.3501 284.524 60.2645 284.903 60.2645C285.296 60.2645 285.63 60.355 285.905 60.5359C286.183 60.7168 286.39 60.975 286.528 61.3103C286.668 61.6456 286.728 62.0449 286.709 62.5081H286.057V62.2765C286.05 61.7964 285.952 61.4382 285.764 61.2017C285.576 60.9629 285.296 60.8435 284.925 60.8435C284.527 60.8435 284.224 60.9713 284.016 61.2271C283.809 61.4828 283.705 61.8495 283.705 62.3272C283.705 62.7879 283.809 63.145 284.016 63.3983C284.224 63.6516 284.519 63.7783 284.903 63.7783C285.161 63.7783 285.385 63.7191 285.576 63.6009C285.767 63.4827 285.916 63.3126 286.025 63.0907L286.643 63.3042C286.492 63.6492 286.262 63.917 285.956 64.1076C285.652 64.2957 285.311 64.3898 284.932 64.3898ZM283.488 62.5081V61.9906H286.376V62.5081H283.488ZM289.161 64.3898C288.765 64.3898 288.429 64.3018 288.151 64.1256C287.876 63.9471 287.666 63.7023 287.522 63.3911C287.377 63.0798 287.302 62.7252 287.297 62.3272C287.302 61.9194 287.378 61.5612 287.525 61.2524C287.675 60.9412 287.888 60.6987 288.166 60.525C288.443 60.3513 288.777 60.2645 289.168 60.2645C289.581 60.2645 289.935 60.3658 290.232 60.5685C290.531 60.7711 290.731 61.0485 290.833 61.4008L290.196 61.5926C290.114 61.3658 289.98 61.1897 289.794 61.0642C289.611 60.9388 289.4 60.8761 289.161 60.8761C288.893 60.8761 288.672 60.9388 288.499 61.0642C288.325 61.1873 288.196 61.3585 288.111 61.5781C288.027 61.7952 287.984 62.0449 287.981 62.3272C287.986 62.7614 288.086 63.1124 288.281 63.3802C288.479 63.6456 288.772 63.7783 289.161 63.7783C289.417 63.7783 289.629 63.7204 289.798 63.6046C289.967 63.4863 290.094 63.3163 290.181 63.0943L290.833 63.2644C290.698 63.6287 290.486 63.9073 290.199 64.1003C289.912 64.2933 289.566 64.3898 289.161 64.3898ZM291.568 64.2812L291.571 60.3731H292.223V62.2548L293.862 60.3731H294.698L292.972 62.3272L294.9 64.2812H293.999L292.223 62.3995V64.2812H291.568ZM296.854 64.3898C296.466 64.3898 296.131 64.3018 295.848 64.1256C295.569 63.9495 295.353 63.7059 295.201 63.3947C295.049 63.0835 294.973 62.7264 294.973 62.3235C294.973 61.9134 295.05 61.554 295.204 61.2452C295.359 60.9364 295.577 60.6963 295.859 60.525C296.142 60.3513 296.473 60.2645 296.854 60.2645C297.245 60.2645 297.582 60.3526 297.864 60.5287C298.146 60.7024 298.362 60.9448 298.512 61.256C298.664 61.5648 298.74 61.9207 298.74 62.3235C298.74 62.7312 298.664 63.0907 298.512 63.4019C298.36 63.7107 298.143 63.9532 297.86 64.1293C297.578 64.303 297.243 64.3898 296.854 64.3898ZM296.854 63.7783C297.26 63.7783 297.561 63.6432 297.759 63.373C297.957 63.1028 298.056 62.753 298.056 62.3235C298.056 61.8821 297.956 61.531 297.756 61.2705C297.555 61.0075 297.255 60.8761 296.854 60.8761C296.582 60.8761 296.358 60.9376 296.181 61.0606C296.005 61.1836 295.874 61.3537 295.787 61.5708C295.7 61.788 295.657 62.0389 295.657 62.3235C295.657 62.7626 295.758 63.1148 295.961 63.3802C296.163 63.6456 296.461 63.7783 296.854 63.7783ZM301.23 64.3898C300.847 64.3898 300.511 64.3054 300.224 64.1365C299.939 63.9652 299.718 63.7276 299.558 63.4236C299.399 63.1172 299.319 62.7602 299.319 62.3525C299.319 61.9255 299.398 61.5564 299.555 61.2452C299.711 60.9315 299.93 60.6903 300.21 60.5214C300.492 60.3501 300.822 60.2645 301.201 60.2645C301.594 60.2645 301.929 60.355 302.204 60.5359C302.481 60.7168 302.688 60.975 302.826 61.3103C302.966 61.6456 303.026 62.0449 303.007 62.5081H302.356V62.2765C302.348 61.7964 302.251 61.4382 302.062 61.2017C301.874 60.9629 301.594 60.8435 301.223 60.8435C300.825 60.8435 300.522 60.9713 300.315 61.2271C300.107 61.4828 300.003 61.8495 300.003 62.3272C300.003 62.7879 300.107 63.145 300.315 63.3983C300.522 63.6516 300.818 63.7783 301.201 63.7783C301.459 63.7783 301.684 63.7191 301.874 63.6009C302.065 63.4827 302.214 63.3126 302.323 63.0907L302.942 63.3042C302.79 63.6492 302.561 63.917 302.254 64.1076C301.95 64.2957 301.609 64.3898 301.23 64.3898ZM299.786 62.5081V61.9906H302.674V62.5081H299.786ZM304.9 64.2812V63.7276C305.044 63.7541 305.154 63.7493 305.229 63.7131C305.306 63.6745 305.363 63.6082 305.399 63.5141C305.438 63.4176 305.469 63.297 305.493 63.1522C305.534 62.923 305.569 62.6673 305.598 62.3851C305.629 62.1028 305.657 61.794 305.681 61.4587C305.708 61.1209 305.732 60.7591 305.754 60.3731H308.486V64.2812H307.842V60.9846H306.34C306.325 61.2066 306.307 61.4345 306.286 61.6686C306.266 61.9026 306.246 62.1305 306.224 62.3525C306.202 62.572 306.178 62.7771 306.152 62.9677C306.128 63.1558 306.101 63.3187 306.072 63.4562C306.026 63.6926 305.962 63.882 305.88 64.0243C305.798 64.1642 305.68 64.2547 305.526 64.2957C305.371 64.3391 305.163 64.3343 304.9 64.2812ZM312.701 60.3731V64.2812H312.079V61.4008L310.03 64.2812H309.499V60.3731H310.121V63.2137L312.173 60.3731H312.701ZM317.044 65.005V64.2812H313.711V60.3731H314.355V63.6697H316.269V60.3731H316.913V63.695H317.688V65.005H317.044ZM319.931 64.3898C319.542 64.3898 319.207 64.3018 318.925 64.1256C318.645 63.9495 318.429 63.7059 318.277 63.3947C318.125 63.0835 318.049 62.7264 318.049 62.3235C318.049 61.9134 318.126 61.554 318.281 61.2452C318.435 60.9364 318.653 60.6963 318.936 60.525C319.218 60.3513 319.55 60.2645 319.931 60.2645C320.322 60.2645 320.658 60.3526 320.94 60.5287C321.223 60.7024 321.439 60.9448 321.588 61.256C321.74 61.5648 321.816 61.9207 321.816 62.3235C321.816 62.7312 321.74 63.0907 321.588 63.4019C321.436 63.7107 321.219 63.9532 320.937 64.1293C320.654 64.303 320.319 64.3898 319.931 64.3898ZM319.931 63.7783C320.336 63.7783 320.638 63.6432 320.835 63.373C321.033 63.1028 321.132 62.753 321.132 62.3235C321.132 61.8821 321.032 61.531 320.832 61.2705C320.632 61.0075 320.331 60.8761 319.931 60.8761C319.658 60.8761 319.434 60.9376 319.258 61.0606C319.082 61.1836 318.95 61.3537 318.863 61.5708C318.776 61.788 318.733 62.0389 318.733 62.3235C318.733 62.7626 318.834 63.1148 319.037 63.3802C319.24 63.6456 319.538 63.7783 319.931 63.7783Z" fill="#272833"/>
<path d="M254.828 55.0758H322.828V53.8695H254.828V55.0758ZM327.05 59.2976V65.4727H328.256V59.2976H327.05ZM322.828 69.6945H254.828V70.9007H322.828V69.6945ZM250.606 65.4727V59.2976H249.4V65.4727H250.606ZM254.828 69.6945C252.496 69.6945 250.606 67.8043 250.606 65.4727H249.4C249.4 68.4705 251.83 70.9007 254.828 70.9007V69.6945ZM327.05 65.4727C327.05 67.8043 325.16 69.6945 322.828 69.6945V70.9007C325.826 70.9007 328.256 68.4705 328.256 65.4727H327.05ZM322.828 55.0758C325.16 55.0758 327.05 56.9659 327.05 59.2976H328.256C328.256 56.2998 325.826 53.8695 322.828 53.8695V55.0758ZM254.828 53.8695C251.83 53.8695 249.4 56.2998 249.4 59.2976H250.606C250.606 56.9659 252.496 55.0758 254.828 55.0758V53.8695Z" fill="#7198FF"/>
<path d="M255.335 105.293V100.082H255.979V102.365H257.26V103.01H255.979V105.293H255.335ZM259.196 105.402C258.851 105.402 258.546 105.333 258.28 105.195C258.015 105.058 257.793 104.866 257.615 104.62C257.436 104.374 257.301 104.086 257.209 103.755C257.118 103.425 257.072 103.069 257.072 102.688C257.072 102.302 257.118 101.944 257.209 101.616C257.301 101.288 257.436 101.001 257.615 100.755C257.793 100.509 258.015 100.318 258.28 100.183C258.546 100.046 258.851 99.9771 259.196 99.9771C259.543 99.9771 259.848 100.046 260.111 100.183C260.377 100.318 260.599 100.509 260.777 100.755C260.956 101.001 261.091 101.288 261.183 101.616C261.274 101.944 261.32 102.302 261.32 102.688C261.32 103.078 261.274 103.439 261.183 103.769C261.091 104.1 260.956 104.388 260.777 104.634C260.599 104.878 260.377 105.067 260.111 105.203C259.848 105.335 259.543 105.402 259.196 105.402ZM259.196 104.786C259.437 104.786 259.647 104.732 259.826 104.624C260.006 104.515 260.156 104.365 260.274 104.175C260.395 103.982 260.485 103.759 260.546 103.505C260.606 103.25 260.636 102.977 260.636 102.688C260.639 102.396 260.61 102.123 260.549 101.87C260.491 101.616 260.402 101.394 260.282 101.204C260.163 101.011 260.013 100.861 259.829 100.755C259.648 100.647 259.437 100.592 259.196 100.592C258.955 100.592 258.744 100.647 258.563 100.755C258.384 100.861 258.236 101.011 258.118 101.204C257.999 101.394 257.91 101.616 257.85 101.87C257.789 102.123 257.758 102.396 257.756 102.688C257.756 102.977 257.785 103.25 257.843 103.505C257.903 103.759 257.992 103.982 258.11 104.175C258.231 104.365 258.382 104.515 258.563 104.624C258.744 104.732 258.955 104.786 259.196 104.786ZM263.837 105.402C263.47 105.402 263.161 105.311 262.911 105.13C262.66 104.947 262.469 104.7 262.339 104.388C262.211 104.075 262.147 103.724 262.147 103.335C262.147 102.942 262.211 102.59 262.339 102.279C262.469 101.967 262.66 101.723 262.911 101.544C263.164 101.365 263.474 101.276 263.841 101.276C264.202 101.276 264.514 101.367 264.774 101.548C265.037 101.726 265.239 101.971 265.378 102.282C265.518 102.593 265.588 102.944 265.588 103.335C265.588 103.726 265.518 104.077 265.378 104.388C265.239 104.7 265.037 104.947 264.774 105.13C264.514 105.311 264.201 105.402 263.837 105.402ZM262.038 107.03V101.385H262.614V104.262H262.686V107.03H262.038ZM263.757 104.812C264.015 104.812 264.229 104.747 264.398 104.616C264.567 104.486 264.693 104.31 264.778 104.088C264.862 103.864 264.904 103.613 264.904 103.335C264.904 103.06 264.862 102.812 264.778 102.59C264.696 102.368 264.568 102.192 264.394 102.061C264.223 101.931 264.005 101.866 263.739 101.866C263.486 101.866 263.276 101.929 263.11 102.054C262.943 102.177 262.819 102.35 262.737 102.572C262.655 102.791 262.614 103.046 262.614 103.335C262.614 103.62 262.654 103.874 262.733 104.099C262.815 104.321 262.941 104.496 263.11 104.624C263.278 104.749 263.494 104.812 263.757 104.812ZM269.581 101.385V105.293H268.958V102.412L266.91 105.293H266.378V101.385H267V104.225L269.052 101.385H269.581ZM270.305 106.161V104.761C270.524 104.761 270.681 104.69 270.775 104.548C270.869 104.403 270.945 104.165 271.003 103.835C271.042 103.627 271.073 103.405 271.097 103.169C271.121 102.932 271.142 102.669 271.159 102.38C271.178 102.088 271.196 101.756 271.213 101.385H273.905V104.761H274.285V106.161H273.67V105.293H270.92V106.161H270.305ZM271.296 104.761H273.261V101.917H271.795C271.788 102.088 271.779 102.268 271.767 102.456C271.754 102.642 271.74 102.827 271.723 103.013C271.709 103.199 271.691 103.375 271.669 103.542C271.65 103.706 271.627 103.853 271.6 103.983C271.569 104.164 271.533 104.317 271.491 104.443C271.45 104.568 271.385 104.674 271.296 104.761ZM278.21 101.385V105.293H277.588V102.412L275.54 105.293H275.008V101.385H275.63V104.225L277.682 101.385H278.21ZM281.576 105.293V103.885C281.446 103.95 281.288 104.006 281.102 104.052C280.919 104.098 280.722 104.121 280.512 104.121C280.114 104.121 279.793 104.031 279.549 103.853C279.306 103.674 279.147 103.417 279.072 103.082C279.05 102.981 279.034 102.876 279.025 102.767C279.018 102.659 279.013 102.56 279.01 102.47C279.008 102.381 279.007 102.316 279.007 102.275V101.385H279.658V102.275C279.658 102.345 279.66 102.432 279.665 102.536C279.67 102.637 279.682 102.736 279.701 102.832C279.75 103.071 279.85 103.251 280.002 103.371C280.156 103.492 280.373 103.552 280.653 103.552C280.841 103.552 281.015 103.528 281.174 103.48C281.334 103.432 281.467 103.368 281.576 103.288V101.385H282.224V105.293H281.576ZM284.932 105.402C284.548 105.402 284.213 105.317 283.926 105.148C283.641 104.977 283.419 104.739 283.26 104.435C283.101 104.129 283.021 103.772 283.021 103.364C283.021 102.937 283.1 102.568 283.256 102.257C283.413 101.943 283.632 101.702 283.911 101.533C284.194 101.362 284.524 101.276 284.903 101.276C285.296 101.276 285.63 101.367 285.905 101.548C286.183 101.729 286.39 101.987 286.528 102.322C286.668 102.657 286.728 103.057 286.709 103.52H286.057V103.288C286.05 102.808 285.952 102.45 285.764 102.213C285.576 101.975 285.296 101.855 284.925 101.855C284.527 101.855 284.224 101.983 284.016 102.239C283.809 102.495 283.705 102.861 283.705 103.339C283.705 103.8 283.809 104.157 284.016 104.41C284.224 104.663 284.519 104.79 284.903 104.79C285.161 104.79 285.385 104.731 285.576 104.613C285.767 104.494 285.916 104.324 286.025 104.102L286.643 104.316C286.492 104.661 286.262 104.929 285.956 105.119C285.652 105.307 285.311 105.402 284.932 105.402ZM283.488 103.52V103.002H286.376V103.52H283.488ZM289.161 105.402C288.765 105.402 288.429 105.313 288.151 105.137C287.876 104.959 287.666 104.714 287.522 104.403C287.377 104.092 287.302 103.737 287.297 103.339C287.302 102.931 287.378 102.573 287.525 102.264C287.675 101.953 287.888 101.71 288.166 101.537C288.443 101.363 288.777 101.276 289.168 101.276C289.581 101.276 289.935 101.378 290.232 101.58C290.531 101.783 290.731 102.06 290.833 102.412L290.196 102.604C290.114 102.378 289.98 102.201 289.794 102.076C289.611 101.95 289.4 101.888 289.161 101.888C288.893 101.888 288.672 101.95 288.499 102.076C288.325 102.199 288.196 102.37 288.111 102.59C288.027 102.807 287.984 103.057 287.981 103.339C287.986 103.773 288.086 104.124 288.281 104.392C288.479 104.657 288.772 104.79 289.161 104.79C289.417 104.79 289.629 104.732 289.798 104.616C289.967 104.498 290.094 104.328 290.181 104.106L290.833 104.276C290.698 104.64 290.486 104.919 290.199 105.112C289.912 105.305 289.566 105.402 289.161 105.402ZM291.568 105.293L291.571 101.385H292.223V103.266L293.862 101.385H294.698L292.972 103.339L294.9 105.293H293.999L292.223 103.411V105.293H291.568ZM296.854 105.402C296.466 105.402 296.131 105.313 295.848 105.137C295.569 104.961 295.353 104.718 295.201 104.406C295.049 104.095 294.973 103.738 294.973 103.335C294.973 102.925 295.05 102.566 295.204 102.257C295.359 101.948 295.577 101.708 295.859 101.537C296.142 101.363 296.473 101.276 296.854 101.276C297.245 101.276 297.582 101.364 297.864 101.54C298.146 101.714 298.362 101.957 298.512 102.268C298.664 102.577 298.74 102.932 298.74 103.335C298.74 103.743 298.664 104.102 298.512 104.414C298.36 104.722 298.143 104.965 297.86 105.141C297.578 105.315 297.243 105.402 296.854 105.402ZM296.854 104.79C297.26 104.79 297.561 104.655 297.759 104.385C297.957 104.114 298.056 103.765 298.056 103.335C298.056 102.894 297.956 102.543 297.756 102.282C297.555 102.019 297.255 101.888 296.854 101.888C296.582 101.888 296.358 101.949 296.181 102.072C296.005 102.195 295.874 102.365 295.787 102.583C295.7 102.8 295.657 103.051 295.657 103.335C295.657 103.774 295.758 104.127 295.961 104.392C296.163 104.657 296.461 104.79 296.854 104.79ZM301.23 105.402C300.847 105.402 300.511 105.317 300.224 105.148C299.939 104.977 299.718 104.739 299.558 104.435C299.399 104.129 299.319 103.772 299.319 103.364C299.319 102.937 299.398 102.568 299.555 102.257C299.711 101.943 299.93 101.702 300.21 101.533C300.492 101.362 300.822 101.276 301.201 101.276C301.594 101.276 301.929 101.367 302.204 101.548C302.481 101.729 302.688 101.987 302.826 102.322C302.966 102.657 303.026 103.057 303.007 103.52H302.356V103.288C302.348 102.808 302.251 102.45 302.062 102.213C301.874 101.975 301.594 101.855 301.223 101.855C300.825 101.855 300.522 101.983 300.315 102.239C300.107 102.495 300.003 102.861 300.003 103.339C300.003 103.8 300.107 104.157 300.315 104.41C300.522 104.663 300.818 104.79 301.201 104.79C301.459 104.79 301.684 104.731 301.874 104.613C302.065 104.494 302.214 104.324 302.323 104.102L302.942 104.316C302.79 104.661 302.561 104.929 302.254 105.119C301.95 105.307 301.609 105.402 301.23 105.402ZM299.786 103.52V103.002H302.674V103.52H299.786ZM304.9 105.293V104.739C305.044 104.766 305.154 104.761 305.229 104.725C305.306 104.686 305.363 104.62 305.399 104.526C305.438 104.429 305.469 104.309 305.493 104.164C305.534 103.935 305.569 103.679 305.598 103.397C305.629 103.115 305.657 102.806 305.681 102.47C305.708 102.133 305.732 101.771 305.754 101.385H308.486V105.293H307.842V101.996H306.34C306.325 102.218 306.307 102.446 306.286 102.68C306.266 102.914 306.246 103.142 306.224 103.364C306.202 103.584 306.178 103.789 306.152 103.979C306.128 104.168 306.101 104.33 306.072 104.468C306.026 104.704 305.962 104.894 305.88 105.036C305.798 105.176 305.68 105.266 305.526 105.307C305.371 105.351 305.163 105.346 304.9 105.293ZM312.701 101.385V105.293H312.079V102.412L310.03 105.293H309.499V101.385H310.121V104.225L312.173 101.385H312.701ZM317.044 106.017V105.293H313.711V101.385H314.355V104.681H316.269V101.385H316.913V104.707H317.688V106.017H317.044ZM319.931 105.402C319.542 105.402 319.207 105.313 318.925 105.137C318.645 104.961 318.429 104.718 318.277 104.406C318.125 104.095 318.049 103.738 318.049 103.335C318.049 102.925 318.126 102.566 318.281 102.257C318.435 101.948 318.653 101.708 318.936 101.537C319.218 101.363 319.55 101.276 319.931 101.276C320.322 101.276 320.658 101.364 320.94 101.54C321.223 101.714 321.439 101.957 321.588 102.268C321.74 102.577 321.816 102.932 321.816 103.335C321.816 103.743 321.74 104.102 321.588 104.414C321.436 104.722 321.219 104.965 320.937 105.141C320.654 105.315 320.319 105.402 319.931 105.402ZM319.931 104.79C320.336 104.79 320.638 104.655 320.835 104.385C321.033 104.114 321.132 103.765 321.132 103.335C321.132 102.894 321.032 102.543 320.832 102.282C320.632 102.019 320.331 101.888 319.931 101.888C319.658 101.888 319.434 101.949 319.258 102.072C319.082 102.195 318.95 102.365 318.863 102.583C318.776 102.8 318.733 103.051 318.733 103.335C318.733 103.774 318.834 104.127 319.037 104.392C319.24 104.657 319.538 104.79 319.931 104.79Z" fill="#272833"/>
<path d="M254.828 96.0875H322.828V94.8813H254.828V96.0875ZM327.05 100.309V106.484H328.256V100.309H327.05ZM322.828 110.706H254.828V111.912H322.828V110.706ZM250.606 106.484V100.309H249.4V106.484H250.606ZM254.828 110.706C252.496 110.706 250.606 108.816 250.606 106.484H249.4C249.4 109.482 251.83 111.912 254.828 111.912V110.706ZM327.05 106.484C327.05 108.816 325.16 110.706 322.828 110.706V111.912C325.826 111.912 328.256 109.482 328.256 106.484H327.05ZM322.828 96.0875C325.16 96.0875 327.05 97.9777 327.05 100.309H328.256C328.256 97.3115 325.826 94.8813 322.828 94.8813V96.0875ZM254.828 94.8813C251.83 94.8813 249.4 97.3115 249.4 100.309H250.606C250.606 97.9777 252.496 96.0875 254.828 96.0875V94.8813Z" fill="#7198FF"/>
<path d="M255.335 155.955V150.744H255.979V153.028H257.26V153.672H255.979V155.955H255.335ZM259.196 156.064C258.851 156.064 258.546 155.995 258.28 155.857C258.015 155.72 257.793 155.528 257.615 155.282C257.436 155.036 257.301 154.748 257.209 154.417C257.118 154.087 257.072 153.731 257.072 153.35C257.072 152.964 257.118 152.607 257.209 152.278C257.301 151.95 257.436 151.663 257.615 151.417C257.793 151.171 258.015 150.981 258.28 150.845C258.546 150.708 258.851 150.639 259.196 150.639C259.543 150.639 259.848 150.708 260.111 150.845C260.377 150.981 260.599 151.171 260.777 151.417C260.956 151.663 261.091 151.95 261.183 152.278C261.274 152.607 261.32 152.964 261.32 153.35C261.32 153.74 261.274 154.101 261.183 154.432C261.091 154.762 260.956 155.05 260.777 155.296C260.599 155.54 260.377 155.73 260.111 155.865C259.848 155.997 259.543 156.064 259.196 156.064ZM259.196 155.448C259.437 155.448 259.647 155.394 259.826 155.286C260.006 155.177 260.156 155.027 260.274 154.837C260.395 154.644 260.485 154.421 260.546 154.167C260.606 153.912 260.636 153.639 260.636 153.35C260.639 153.058 260.61 152.785 260.549 152.532C260.491 152.278 260.402 152.057 260.282 151.866C260.163 151.673 260.013 151.523 259.829 151.417C259.648 151.309 259.437 151.254 259.196 151.254C258.955 151.254 258.744 151.309 258.563 151.417C258.384 151.523 258.236 151.673 258.118 151.866C257.999 152.057 257.91 152.278 257.85 152.532C257.789 152.785 257.758 153.058 257.756 153.35C257.756 153.639 257.785 153.912 257.843 154.167C257.903 154.421 257.992 154.644 258.11 154.837C258.231 155.027 258.382 155.177 258.563 155.286C258.744 155.394 258.955 155.448 259.196 155.448ZM263.837 156.064C263.47 156.064 263.161 155.973 262.911 155.792C262.66 155.609 262.469 155.362 262.339 155.05C262.211 154.737 262.147 154.386 262.147 153.997C262.147 153.604 262.211 153.252 262.339 152.941C262.469 152.629 262.66 152.385 262.911 152.206C263.164 152.028 263.474 151.938 263.841 151.938C264.202 151.938 264.514 152.029 264.774 152.21C265.037 152.388 265.239 152.633 265.378 152.944C265.518 153.256 265.588 153.607 265.588 153.997C265.588 154.388 265.518 154.739 265.378 155.05C265.239 155.362 265.037 155.609 264.774 155.792C264.514 155.973 264.201 156.064 263.837 156.064ZM262.038 157.692V152.047H262.614V154.924H262.686V157.692H262.038ZM263.757 155.474C264.015 155.474 264.229 155.409 264.398 155.278C264.567 155.148 264.693 154.972 264.778 154.75C264.862 154.526 264.904 154.275 264.904 153.997C264.904 153.722 264.862 153.474 264.778 153.252C264.696 153.03 264.568 152.854 264.394 152.724C264.223 152.593 264.005 152.528 263.739 152.528C263.486 152.528 263.276 152.591 263.11 152.716C262.943 152.839 262.819 153.012 262.737 153.234C262.655 153.453 262.614 153.708 262.614 153.997C262.614 154.282 262.654 154.537 262.733 154.761C262.815 154.983 262.941 155.158 263.11 155.286C263.278 155.411 263.494 155.474 263.757 155.474ZM269.581 152.047V155.955H268.958V153.075L266.91 155.955H266.378V152.047H267V154.888L269.052 152.047H269.581ZM270.305 156.824V155.423C270.524 155.423 270.681 155.352 270.775 155.21C270.869 155.065 270.945 154.827 271.003 154.497C271.042 154.289 271.073 154.067 271.097 153.831C271.121 153.594 271.142 153.332 271.159 153.042C271.178 152.75 271.196 152.418 271.213 152.047H273.905V155.423H274.285V156.824H273.67V155.955H270.92V156.824H270.305ZM271.296 155.423H273.261V152.579H271.795C271.788 152.75 271.779 152.93 271.767 153.118C271.754 153.304 271.74 153.49 271.723 153.675C271.709 153.861 271.691 154.037 271.669 154.204C271.65 154.368 271.627 154.515 271.6 154.645C271.569 154.826 271.533 154.979 271.491 155.105C271.45 155.23 271.385 155.336 271.296 155.423ZM278.21 152.047V155.955H277.588V153.075L275.54 155.955H275.008V152.047H275.63V154.888L277.682 152.047H278.21ZM281.576 155.955V154.547C281.446 154.613 281.288 154.668 281.102 154.714C280.919 154.76 280.722 154.783 280.512 154.783C280.114 154.783 279.793 154.693 279.549 154.515C279.306 154.336 279.147 154.079 279.072 153.744C279.05 153.643 279.034 153.538 279.025 153.429C279.018 153.321 279.013 153.222 279.01 153.132C279.008 153.043 279.007 152.978 279.007 152.937V152.047H279.658V152.937C279.658 153.007 279.66 153.094 279.665 153.198C279.67 153.299 279.682 153.398 279.701 153.494C279.75 153.733 279.85 153.913 280.002 154.034C280.156 154.154 280.373 154.214 280.653 154.214C280.841 154.214 281.015 154.19 281.174 154.142C281.334 154.094 281.467 154.03 281.576 153.95V152.047H282.224V155.955H281.576ZM284.932 156.064C284.548 156.064 284.213 155.979 283.926 155.81C283.641 155.639 283.419 155.401 283.26 155.097C283.101 154.791 283.021 154.434 283.021 154.026C283.021 153.599 283.1 153.23 283.256 152.919C283.413 152.605 283.632 152.364 283.911 152.195C284.194 152.024 284.524 151.938 284.903 151.938C285.296 151.938 285.63 152.029 285.905 152.21C286.183 152.391 286.39 152.649 286.528 152.984C286.668 153.319 286.728 153.719 286.709 154.182H286.057V153.95C286.05 153.47 285.952 153.112 285.764 152.876C285.576 152.637 285.296 152.517 284.925 152.517C284.527 152.517 284.224 152.645 284.016 152.901C283.809 153.157 283.705 153.523 283.705 154.001C283.705 154.462 283.809 154.819 284.016 155.072C284.224 155.325 284.519 155.452 284.903 155.452C285.161 155.452 285.385 155.393 285.576 155.275C285.767 155.157 285.916 154.986 286.025 154.765L286.643 154.978C286.492 155.323 286.262 155.591 285.956 155.781C285.652 155.97 285.311 156.064 284.932 156.064ZM283.488 154.182V153.664H286.376V154.182H283.488ZM289.161 156.064C288.765 156.064 288.429 155.976 288.151 155.799C287.876 155.621 287.666 155.376 287.522 155.065C287.377 154.754 287.302 154.399 287.297 154.001C287.302 153.593 287.378 153.235 287.525 152.926C287.675 152.615 287.888 152.373 288.166 152.199C288.443 152.025 288.777 151.938 289.168 151.938C289.581 151.938 289.935 152.04 290.232 152.242C290.531 152.445 290.731 152.722 290.833 153.075L290.196 153.266C290.114 153.04 289.98 152.864 289.794 152.738C289.611 152.613 289.4 152.55 289.161 152.55C288.893 152.55 288.672 152.613 288.499 152.738C288.325 152.861 288.196 153.032 288.111 153.252C288.027 153.469 287.984 153.719 287.981 154.001C287.986 154.435 288.086 154.786 288.281 155.054C288.479 155.319 288.772 155.452 289.161 155.452C289.417 155.452 289.629 155.394 289.798 155.278C289.967 155.16 290.094 154.99 290.181 154.768L290.833 154.938C290.698 155.303 290.486 155.581 290.199 155.774C289.912 155.967 289.566 156.064 289.161 156.064ZM291.568 155.955L291.571 152.047H292.223V153.929L293.862 152.047H294.698L292.972 154.001L294.9 155.955H293.999L292.223 154.073V155.955H291.568ZM296.854 156.064C296.466 156.064 296.131 155.976 295.848 155.799C295.569 155.623 295.353 155.38 295.201 155.068C295.049 154.757 294.973 154.4 294.973 153.997C294.973 153.587 295.05 153.228 295.204 152.919C295.359 152.61 295.577 152.37 295.859 152.199C296.142 152.025 296.473 151.938 296.854 151.938C297.245 151.938 297.582 152.026 297.864 152.202C298.146 152.376 298.362 152.619 298.512 152.93C298.664 153.239 298.74 153.594 298.74 153.997C298.74 154.405 298.664 154.765 298.512 155.076C298.36 155.385 298.143 155.627 297.86 155.803C297.578 155.977 297.243 156.064 296.854 156.064ZM296.854 155.452C297.26 155.452 297.561 155.317 297.759 155.047C297.957 154.777 298.056 154.427 298.056 153.997C298.056 153.556 297.956 153.205 297.756 152.944C297.555 152.681 297.255 152.55 296.854 152.55C296.582 152.55 296.358 152.611 296.181 152.734C296.005 152.857 295.874 153.028 295.787 153.245C295.7 153.462 295.657 153.713 295.657 153.997C295.657 154.436 295.758 154.789 295.961 155.054C296.163 155.319 296.461 155.452 296.854 155.452ZM301.23 156.064C300.847 156.064 300.511 155.979 300.224 155.81C299.939 155.639 299.718 155.401 299.558 155.097C299.399 154.791 299.319 154.434 299.319 154.026C299.319 153.599 299.398 153.23 299.555 152.919C299.711 152.605 299.93 152.364 300.21 152.195C300.492 152.024 300.822 151.938 301.201 151.938C301.594 151.938 301.929 152.029 302.204 152.21C302.481 152.391 302.688 152.649 302.826 152.984C302.966 153.319 303.026 153.719 303.007 154.182H302.356V153.95C302.348 153.47 302.251 153.112 302.062 152.876C301.874 152.637 301.594 152.517 301.223 152.517C300.825 152.517 300.522 152.645 300.315 152.901C300.107 153.157 300.003 153.523 300.003 154.001C300.003 154.462 300.107 154.819 300.315 155.072C300.522 155.325 300.818 155.452 301.201 155.452C301.459 155.452 301.684 155.393 301.874 155.275C302.065 155.157 302.214 154.986 302.323 154.765L302.942 154.978C302.79 155.323 302.561 155.591 302.254 155.781C301.95 155.97 301.609 156.064 301.23 156.064ZM299.786 154.182V153.664H302.674V154.182H299.786ZM304.9 155.955V155.401C305.044 155.428 305.154 155.423 305.229 155.387C305.306 155.348 305.363 155.282 305.399 155.188C305.438 155.091 305.469 154.971 305.493 154.826C305.534 154.597 305.569 154.341 305.598 154.059C305.629 153.777 305.657 153.468 305.681 153.132C305.708 152.795 305.732 152.433 305.754 152.047H308.486V155.955H307.842V152.658H306.34C306.325 152.88 306.307 153.108 306.286 153.342C306.266 153.576 306.246 153.804 306.224 154.026C306.202 154.246 306.178 154.451 306.152 154.641C306.128 154.83 306.101 154.993 306.072 155.13C306.026 155.366 305.962 155.556 305.88 155.698C305.798 155.838 305.68 155.929 305.526 155.97C305.371 156.013 305.163 156.008 304.9 155.955ZM312.701 152.047V155.955H312.079V153.075L310.03 155.955H309.499V152.047H310.121V154.888L312.173 152.047H312.701ZM317.044 156.679V155.955H313.711V152.047H314.355V155.344H316.269V152.047H316.913V155.369H317.688V156.679H317.044ZM319.931 156.064C319.542 156.064 319.207 155.976 318.925 155.799C318.645 155.623 318.429 155.38 318.277 155.068C318.125 154.757 318.049 154.4 318.049 153.997C318.049 153.587 318.126 153.228 318.281 152.919C318.435 152.61 318.653 152.37 318.936 152.199C319.218 152.025 319.55 151.938 319.931 151.938C320.322 151.938 320.658 152.026 320.94 152.202C321.223 152.376 321.439 152.619 321.588 152.93C321.74 153.239 321.816 153.594 321.816 153.997C321.816 154.405 321.74 154.765 321.588 155.076C321.436 155.385 321.219 155.627 320.937 155.803C320.654 155.977 320.319 156.064 319.931 156.064ZM319.931 155.452C320.336 155.452 320.638 155.317 320.835 155.047C321.033 154.777 321.132 154.427 321.132 153.997C321.132 153.556 321.032 153.205 320.832 152.944C320.632 152.681 320.331 152.55 319.931 152.55C319.658 152.55 319.434 152.611 319.258 152.734C319.082 152.857 318.95 153.028 318.863 153.245C318.776 153.462 318.733 153.713 318.733 153.997C318.733 154.436 318.834 154.789 319.037 155.054C319.24 155.319 319.538 155.452 319.931 155.452Z" fill="#272833"/>
<rect x="325.24" y="149.535" width="9.41247" height="9" rx="2.41247" fill="#7198FF"/>
<path d="M327.622 156.535V152.986L326.808 153.483V152.681L327.622 152.193H328.364V156.535H327.622ZM329.392 156.529V155.896L331.25 154.24C331.395 154.112 331.495 153.99 331.552 153.875C331.608 153.761 331.636 153.65 331.636 153.544C331.636 153.399 331.605 153.27 331.542 153.158C331.48 153.043 331.394 152.953 331.283 152.886C331.175 152.82 331.049 152.787 330.906 152.787C330.755 152.787 330.622 152.822 330.505 152.892C330.391 152.961 330.301 153.052 330.237 153.167C330.172 153.281 330.142 153.405 330.146 153.538H329.398C329.398 153.248 329.463 152.996 329.591 152.781C329.722 152.566 329.901 152.399 330.128 152.28C330.357 152.162 330.622 152.102 330.921 152.102C331.199 152.102 331.448 152.165 331.669 152.289C331.89 152.412 332.064 152.583 332.191 152.802C332.317 153.019 332.381 153.269 332.381 153.553C332.381 153.76 332.353 153.934 332.296 154.074C332.24 154.215 332.156 154.345 332.043 154.463C331.932 154.582 331.795 154.714 331.63 154.858L330.312 156.026L330.246 155.845H332.381V156.529H329.392Z" fill="white"/>
<path d="M254.828 146.75H333.081V145.543H254.828V146.75ZM337.303 150.971V157.146H338.509V150.971H337.303ZM333.081 161.368H254.828V162.575H333.081V161.368ZM250.606 157.146V150.971H249.4V157.146H250.606ZM254.828 161.368C252.496 161.368 250.606 159.478 250.606 157.146H249.4C249.4 160.144 251.83 162.575 254.828 162.575V161.368ZM337.303 157.146C337.303 159.478 335.412 161.368 333.081 161.368V162.575C336.079 162.575 338.509 160.144 338.509 157.146H337.303ZM333.081 146.75C335.412 146.75 337.303 148.64 337.303 150.971H338.509C338.509 147.974 336.079 145.543 333.081 145.543V146.75ZM254.828 145.543C251.83 145.543 249.4 147.974 249.4 150.971H250.606C250.606 148.64 252.496 146.75 254.828 146.75V145.543Z" fill="#7198FF"/>
<path d="M255.335 130.623V125.412H255.979V127.696H257.26V128.34H255.979V130.623H255.335ZM259.196 130.732C258.851 130.732 258.546 130.663 258.28 130.525C258.015 130.388 257.793 130.196 257.615 129.95C257.436 129.704 257.301 129.416 257.209 129.085C257.118 128.755 257.072 128.399 257.072 128.018C257.072 127.632 257.118 127.275 257.209 126.946C257.301 126.618 257.436 126.331 257.615 126.085C257.793 125.839 258.015 125.649 258.28 125.513C258.546 125.376 258.851 125.307 259.196 125.307C259.543 125.307 259.848 125.376 260.111 125.513C260.377 125.649 260.599 125.839 260.777 126.085C260.956 126.331 261.091 126.618 261.183 126.946C261.274 127.275 261.32 127.632 261.32 128.018C261.32 128.408 261.274 128.769 261.183 129.1C261.091 129.43 260.956 129.718 260.777 129.964C260.599 130.208 260.377 130.397 260.111 130.533C259.848 130.665 259.543 130.732 259.196 130.732ZM259.196 130.116C259.437 130.116 259.647 130.062 259.826 129.954C260.006 129.845 260.156 129.695 260.274 129.505C260.395 129.312 260.485 129.089 260.546 128.835C260.606 128.58 260.636 128.307 260.636 128.018C260.639 127.726 260.61 127.453 260.549 127.2C260.491 126.946 260.402 126.725 260.282 126.534C260.163 126.341 260.013 126.191 259.829 126.085C259.648 125.977 259.437 125.922 259.196 125.922C258.955 125.922 258.744 125.977 258.563 126.085C258.384 126.191 258.236 126.341 258.118 126.534C257.999 126.725 257.91 126.946 257.85 127.2C257.789 127.453 257.758 127.726 257.756 128.018C257.756 128.307 257.785 128.58 257.843 128.835C257.903 129.089 257.992 129.312 258.11 129.505C258.231 129.695 258.382 129.845 258.563 129.954C258.744 130.062 258.955 130.116 259.196 130.116ZM263.837 130.732C263.47 130.732 263.161 130.641 262.911 130.46C262.66 130.277 262.469 130.03 262.339 129.718C262.211 129.405 262.147 129.054 262.147 128.665C262.147 128.272 262.211 127.92 262.339 127.609C262.469 127.297 262.66 127.053 262.911 126.874C263.164 126.696 263.474 126.606 263.841 126.606C264.202 126.606 264.514 126.697 264.774 126.878C265.037 127.056 265.239 127.301 265.378 127.612C265.518 127.923 265.588 128.275 265.588 128.665C265.588 129.056 265.518 129.407 265.378 129.718C265.239 130.03 265.037 130.277 264.774 130.46C264.514 130.641 264.201 130.732 263.837 130.732ZM262.038 132.36V126.715H262.614V129.592H262.686V132.36H262.038ZM263.757 130.142C264.015 130.142 264.229 130.077 264.398 129.946C264.567 129.816 264.693 129.64 264.778 129.418C264.862 129.194 264.904 128.943 264.904 128.665C264.904 128.39 264.862 128.142 264.778 127.92C264.696 127.698 264.568 127.522 264.394 127.392C264.223 127.261 264.005 127.196 263.739 127.196C263.486 127.196 263.276 127.259 263.11 127.384C262.943 127.507 262.819 127.68 262.737 127.902C262.655 128.121 262.614 128.376 262.614 128.665C262.614 128.95 262.654 129.205 262.733 129.429C262.815 129.651 262.941 129.826 263.11 129.954C263.278 130.079 263.494 130.142 263.757 130.142ZM269.581 126.715V130.623H268.958V127.743L266.91 130.623H266.378V126.715H267V129.556L269.052 126.715H269.581ZM270.305 131.492V130.091C270.524 130.091 270.681 130.02 270.775 129.878C270.869 129.733 270.945 129.495 271.003 129.165C271.042 128.957 271.073 128.735 271.097 128.499C271.121 128.262 271.142 127.999 271.159 127.71C271.178 127.418 271.196 127.086 271.213 126.715H273.905V130.091H274.285V131.492H273.67V130.623H270.92V131.492H270.305ZM271.296 130.091H273.261V127.247H271.795C271.788 127.418 271.779 127.598 271.767 127.786C271.754 127.972 271.74 128.158 271.723 128.343C271.709 128.529 271.691 128.705 271.669 128.872C271.65 129.036 271.627 129.183 271.6 129.313C271.569 129.494 271.533 129.647 271.491 129.773C271.45 129.898 271.385 130.004 271.296 130.091ZM278.21 126.715V130.623H277.588V127.743L275.54 130.623H275.008V126.715H275.63V129.556L277.682 126.715H278.21ZM281.576 130.623V129.215C281.446 129.281 281.288 129.336 281.102 129.382C280.919 129.428 280.722 129.451 280.512 129.451C280.114 129.451 279.793 129.361 279.549 129.183C279.306 129.004 279.147 128.747 279.072 128.412C279.05 128.311 279.034 128.206 279.025 128.097C279.018 127.989 279.013 127.89 279.01 127.8C279.008 127.711 279.007 127.646 279.007 127.605V126.715H279.658V127.605C279.658 127.675 279.66 127.762 279.665 127.866C279.67 127.967 279.682 128.066 279.701 128.162C279.75 128.401 279.85 128.581 280.002 128.702C280.156 128.822 280.373 128.882 280.653 128.882C280.841 128.882 281.015 128.858 281.174 128.81C281.334 128.762 281.467 128.698 281.576 128.618V126.715H282.224V130.623H281.576ZM284.932 130.732C284.548 130.732 284.213 130.647 283.926 130.478C283.641 130.307 283.419 130.069 283.26 129.765C283.101 129.459 283.021 129.102 283.021 128.694C283.021 128.267 283.1 127.898 283.256 127.587C283.413 127.273 283.632 127.032 283.911 126.863C284.194 126.692 284.524 126.606 284.903 126.606C285.296 126.606 285.63 126.697 285.905 126.878C286.183 127.059 286.39 127.317 286.528 127.652C286.668 127.987 286.728 128.387 286.709 128.85H286.057V128.618C286.05 128.138 285.952 127.78 285.764 127.544C285.576 127.305 285.296 127.185 284.925 127.185C284.527 127.185 284.224 127.313 284.016 127.569C283.809 127.825 283.705 128.191 283.705 128.669C283.705 129.13 283.809 129.487 284.016 129.74C284.224 129.993 284.519 130.12 284.903 130.12C285.161 130.12 285.385 130.061 285.576 129.943C285.767 129.825 285.916 129.654 286.025 129.432L286.643 129.646C286.492 129.991 286.262 130.259 285.956 130.449C285.652 130.638 285.311 130.732 284.932 130.732ZM283.488 128.85V128.332H286.376V128.85H283.488ZM289.161 130.732C288.765 130.732 288.429 130.644 288.151 130.467C287.876 130.289 287.666 130.044 287.522 129.733C287.377 129.422 287.302 129.067 287.297 128.669C287.302 128.261 287.378 127.903 287.525 127.594C287.675 127.283 287.888 127.041 288.166 126.867C288.443 126.693 288.777 126.606 289.168 126.606C289.581 126.606 289.935 126.708 290.232 126.91C290.531 127.113 290.731 127.39 290.833 127.743L290.196 127.934C290.114 127.708 289.98 127.531 289.794 127.406C289.611 127.281 289.4 127.218 289.161 127.218C288.893 127.218 288.672 127.281 288.499 127.406C288.325 127.529 288.196 127.7 288.111 127.92C288.027 128.137 287.984 128.387 287.981 128.669C287.986 129.103 288.086 129.454 288.281 129.722C288.479 129.987 288.772 130.12 289.161 130.12C289.417 130.12 289.629 130.062 289.798 129.946C289.967 129.828 290.094 129.658 290.181 129.436L290.833 129.606C290.698 129.97 290.486 130.249 290.199 130.442C289.912 130.635 289.566 130.732 289.161 130.732ZM291.568 130.623L291.571 126.715H292.223V128.597L293.862 126.715H294.698L292.972 128.669L294.9 130.623H293.999L292.223 128.741V130.623H291.568ZM296.854 130.732C296.466 130.732 296.131 130.644 295.848 130.467C295.569 130.291 295.353 130.048 295.201 129.736C295.049 129.425 294.973 129.068 294.973 128.665C294.973 128.255 295.05 127.896 295.204 127.587C295.359 127.278 295.577 127.038 295.859 126.867C296.142 126.693 296.473 126.606 296.854 126.606C297.245 126.606 297.582 126.694 297.864 126.87C298.146 127.044 298.362 127.287 298.512 127.598C298.664 127.907 298.74 128.262 298.74 128.665C298.74 129.073 298.664 129.432 298.512 129.744C298.36 130.052 298.143 130.295 297.86 130.471C297.578 130.645 297.243 130.732 296.854 130.732ZM296.854 130.12C297.26 130.12 297.561 129.985 297.759 129.715C297.957 129.445 298.056 129.095 298.056 128.665C298.056 128.224 297.956 127.873 297.756 127.612C297.555 127.349 297.255 127.218 296.854 127.218C296.582 127.218 296.358 127.279 296.181 127.402C296.005 127.525 295.874 127.696 295.787 127.913C295.7 128.13 295.657 128.381 295.657 128.665C295.657 129.104 295.758 129.457 295.961 129.722C296.163 129.987 296.461 130.12 296.854 130.12ZM301.23 130.732C300.847 130.732 300.511 130.647 300.224 130.478C299.939 130.307 299.718 130.069 299.558 129.765C299.399 129.459 299.319 129.102 299.319 128.694C299.319 128.267 299.398 127.898 299.555 127.587C299.711 127.273 299.93 127.032 300.21 126.863C300.492 126.692 300.822 126.606 301.201 126.606C301.594 126.606 301.929 126.697 302.204 126.878C302.481 127.059 302.688 127.317 302.826 127.652C302.966 127.987 303.026 128.387 303.007 128.85H302.356V128.618C302.348 128.138 302.251 127.78 302.062 127.544C301.874 127.305 301.594 127.185 301.223 127.185C300.825 127.185 300.522 127.313 300.315 127.569C300.107 127.825 300.003 128.191 300.003 128.669C300.003 129.13 300.107 129.487 300.315 129.74C300.522 129.993 300.818 130.12 301.201 130.12C301.459 130.12 301.684 130.061 301.874 129.943C302.065 129.825 302.214 129.654 302.323 129.432L302.942 129.646C302.79 129.991 302.561 130.259 302.254 130.449C301.95 130.638 301.609 130.732 301.23 130.732ZM299.786 128.85V128.332H302.674V128.85H299.786ZM304.9 130.623V130.069C305.044 130.096 305.154 130.091 305.229 130.055C305.306 130.016 305.363 129.95 305.399 129.856C305.438 129.759 305.469 129.639 305.493 129.494C305.534 129.265 305.569 129.009 305.598 128.727C305.629 128.445 305.657 128.136 305.681 127.8C305.708 127.463 305.732 127.101 305.754 126.715H308.486V130.623H307.842V127.326H306.34C306.325 127.548 306.307 127.776 306.286 128.01C306.266 128.244 306.246 128.472 306.224 128.694C306.202 128.914 306.178 129.119 306.152 129.309C306.128 129.498 306.101 129.66 306.072 129.798C306.026 130.034 305.962 130.224 305.88 130.366C305.798 130.506 305.68 130.597 305.526 130.638C305.371 130.681 305.163 130.676 304.9 130.623ZM312.701 126.715V130.623H312.079V127.743L310.03 130.623H309.499V126.715H310.121V129.556L312.173 126.715H312.701ZM317.044 131.347V130.623H313.711V126.715H314.355V130.011H316.269V126.715H316.913V130.037H317.688V131.347H317.044ZM319.931 130.732C319.542 130.732 319.207 130.644 318.925 130.467C318.645 130.291 318.429 130.048 318.277 129.736C318.125 129.425 318.049 129.068 318.049 128.665C318.049 128.255 318.126 127.896 318.281 127.587C318.435 127.278 318.653 127.038 318.936 126.867C319.218 126.693 319.55 126.606 319.931 126.606C320.322 126.606 320.658 126.694 320.94 126.87C321.223 127.044 321.439 127.287 321.588 127.598C321.74 127.907 321.816 128.262 321.816 128.665C321.816 129.073 321.74 129.432 321.588 129.744C321.436 130.052 321.219 130.295 320.937 130.471C320.654 130.645 320.319 130.732 319.931 130.732ZM319.931 130.12C320.336 130.12 320.638 129.985 320.835 129.715C321.033 129.445 321.132 129.095 321.132 128.665C321.132 128.224 321.032 127.873 320.832 127.612C320.632 127.349 320.331 127.218 319.931 127.218C319.658 127.218 319.434 127.279 319.258 127.402C319.082 127.525 318.95 127.696 318.863 127.913C318.776 128.13 318.733 128.381 318.733 128.665C318.733 129.104 318.834 129.457 319.037 129.722C319.24 129.987 319.538 130.12 319.931 130.12Z" fill="#272833"/>
<rect x="325.24" y="124.203" width="9.41247" height="9" rx="2.41247" fill="#7198FF"/>
<path d="M327.622 131.203V127.654L326.808 128.151V127.349L327.622 126.861H328.364V131.203H327.622ZM329.392 131.197V130.564L331.25 128.908C331.395 128.78 331.495 128.658 331.552 128.543C331.608 128.429 331.636 128.318 331.636 128.212C331.636 128.067 331.605 127.938 331.542 127.826C331.48 127.711 331.394 127.621 331.283 127.554C331.175 127.488 331.049 127.455 330.906 127.455C330.755 127.455 330.622 127.49 330.505 127.56C330.391 127.629 330.301 127.72 330.237 127.835C330.172 127.949 330.142 128.073 330.146 128.206H329.398C329.398 127.916 329.463 127.664 329.591 127.449C329.722 127.234 329.901 127.067 330.128 126.948C330.357 126.83 330.622 126.77 330.921 126.77C331.199 126.77 331.448 126.833 331.669 126.957C331.89 127.08 332.064 127.251 332.191 127.47C332.317 127.687 332.381 127.937 332.381 128.221C332.381 128.428 332.353 128.602 332.296 128.742C332.24 128.883 332.156 129.013 332.043 129.131C331.932 129.25 331.795 129.382 331.63 129.526L330.312 130.693L330.246 130.513H332.381V131.197H329.392Z" fill="white"/>
<path d="M254.828 121.418H333.081V120.211H254.828V121.418ZM337.303 125.639V131.814H338.509V125.639H337.303ZM333.081 136.036H254.828V137.243H333.081V136.036ZM250.606 131.814V125.639H249.4V131.814H250.606ZM254.828 136.036C252.496 136.036 250.606 134.146 250.606 131.814H249.4C249.4 134.812 251.83 137.243 254.828 137.243V136.036ZM337.303 131.814C337.303 134.146 335.412 136.036 333.081 136.036V137.243C336.079 137.243 338.509 134.812 338.509 131.814H337.303ZM333.081 121.418C335.412 121.418 337.303 123.308 337.303 125.639H338.509C338.509 122.642 336.079 120.211 333.081 120.211V121.418ZM254.828 120.211C251.83 120.211 249.4 122.642 249.4 125.639H250.606C250.606 123.308 252.496 121.418 254.828 121.418V120.211Z" fill="#7198FF"/>
<path d="M94.8652 90.584C94.451 90.584 94.1152 90.9198 94.1152 91.334C94.1152 91.7482 94.451 92.084 94.8652 92.084V90.584ZM116.935 92.084C117.349 92.084 117.685 91.7482 117.685 91.334C117.685 90.9198 117.349 90.584 116.935 90.584V92.084ZM94.8652 92.084H116.935V90.584H94.8652V92.084Z" fill="#E7E9ED"/>
<path d="M107.533 66.4081V82.6839H109.033V66.4081H107.533ZM107.533 82.6839C107.533 87.8765 111.743 92.0859 116.935 92.0859V90.5859C112.571 90.5859 109.033 87.0481 109.033 82.6839H107.533ZM104.865 63.7402C106.339 63.7402 107.533 64.9347 107.533 66.4081H109.033C109.033 64.1062 107.167 62.2402 104.865 62.2402V63.7402Z" fill="#E7E9ED"/>
<path d="M246.002 26.9473C246.417 26.9473 246.752 26.6115 246.752 26.1973C246.752 25.7831 246.417 25.4473 246.002 25.4473V26.9473ZM246.002 25.4473H245.068V26.9473H246.002V25.4473ZM220.318 50.1973V72.8508H221.818V50.1973H220.318ZM220.318 72.8508C220.318 82.6446 212.379 90.584 202.585 90.584V92.084C213.207 92.084 221.818 83.473 221.818 72.8508H220.318ZM245.068 25.4473C231.399 25.4473 220.318 36.5282 220.318 50.1973H221.818C221.818 37.3566 232.227 26.9473 245.068 26.9473V25.4473Z" fill="#E7E9ED"/>
<path d="M246.003 104.146C246.418 104.146 246.753 103.811 246.753 103.396C246.753 102.982 246.418 102.646 246.003 102.646V104.146ZM202.586 90.584C202.172 90.584 201.836 90.9198 201.836 91.334C201.836 91.7482 202.172 92.084 202.586 92.084V90.584ZM246.003 102.646H234.337V104.146H246.003V102.646ZM222.275 90.584H202.586V92.084H222.275V90.584ZM229.056 97.3652C229.056 93.6201 226.02 90.584 222.275 90.584V92.084C225.192 92.084 227.556 94.4485 227.556 97.3652H229.056ZM234.337 102.646C231.421 102.646 229.056 100.282 229.056 97.3652H227.556C227.556 101.11 230.592 104.146 234.337 104.146V102.646Z" fill="#E7E9ED"/>
<path d="M246.003 129.477C246.418 129.477 246.753 129.141 246.753 128.727C246.753 128.312 246.418 127.977 246.003 127.977V129.477ZM246.003 127.977H239.765V129.477H246.003V127.977ZM221.819 109.923C221.819 99.3065 213.213 90.584 202.586 90.584V92.084C212.374 92.084 220.319 100.124 220.319 109.923H221.819ZM239.765 127.977C229.859 127.977 221.819 119.84 221.819 109.923H220.319C220.319 120.657 229.019 129.477 239.765 129.477V127.977Z" fill="#E7E9ED"/>
<path d="M246.002 154.809C246.417 154.809 246.752 154.473 246.752 154.059C246.752 153.644 246.417 153.309 246.002 153.309V154.809ZM246.002 153.309H245.068V154.809H246.002V153.309ZM221.818 130.059V109.817H220.318V130.059H221.818ZM221.818 109.817C221.818 99.195 213.207 90.584 202.585 90.584V92.084C212.379 92.084 220.318 100.023 220.318 109.817H221.818ZM245.068 153.309C232.228 153.309 221.818 142.899 221.818 130.059H220.318C220.318 143.728 231.399 154.809 245.068 154.809V153.309Z" fill="#E7E9ED"/>
<path d="M246.002 63.1348C246.417 63.1348 246.752 62.799 246.752 62.3848C246.752 61.9706 246.417 61.6348 246.002 61.6348V63.1348ZM202.585 90.584C202.171 90.584 201.835 90.9198 201.835 91.334C201.835 91.7482 202.171 92.084 202.585 92.084V90.584ZM246.002 61.6348H235.543V63.1348H246.002V61.6348ZM206.594 90.584H202.585V92.084H206.594V90.584ZM220.318 76.8594C220.318 84.4393 214.173 90.584 206.594 90.584V92.084C215.002 92.084 221.818 85.2677 221.818 76.8594H220.318ZM235.543 61.6348C227.134 61.6348 220.318 68.4511 220.318 76.8594H221.818C221.818 69.2795 227.963 63.1348 235.543 63.1348V61.6348Z" fill="#7198FF"/>
</svg>
