<svg width="140" height="24" viewBox="0 0 140 24" fill="none" xmlns="http://www.w3.org/2000/svg">
<path fill-rule="evenodd" clip-rule="evenodd" d="M0.245117 0.971644C0.245117 2.39074 0.503909 4.90999 0.804137 6.41272C1.23529 8.57098 1.95147 10.6535 3.00233 12.804C4.53547 15.9418 6.22037 18.2633 8.84543 20.8552C10.1849 22.1776 12.2378 23.8762 12.4966 23.8762C12.7331 23.8762 14.4028 22.4708 15.5739 21.2862C20.0425 16.766 22.8888 11.0919 23.7149 5.05771C23.8115 4.35119 23.9293 2.97985 23.9765 2.0102L24.0624 0.247314H12.1537H0.245117V0.971644ZM22.9245 1.82463C22.9243 2.82323 22.6564 5.08294 22.3659 6.53643C21.3247 11.7449 18.3985 17.0361 14.4512 20.8476C13.886 21.3933 13.2153 21.9995 12.9606 22.1948L12.4974 22.55L12.0565 22.2333C10.6038 21.1903 8.51983 19.103 6.96512 17.1339C4.51843 14.0349 2.54923 9.81193 1.85426 6.17321C1.60037 4.8443 1.34844 2.68703 1.34844 1.84245V1.36072H12.1365H22.9246L22.9245 1.82463ZM134.752 2.10509C132.482 2.58274 131.012 5.01057 131.597 7.31432C132.133 9.42818 133.783 10.7144 135.832 10.617C137.371 10.5439 138.531 9.76975 139.319 8.28917C140.213 6.60855 139.697 4.03399 138.243 2.91453C137.308 2.19465 135.889 1.86583 134.752 2.10509ZM83.123 2.60686C82.1298 2.785 80.5099 3.37931 79.7303 3.85164C78.8055 4.41181 77.4647 5.6775 76.7997 6.61783C75.5535 8.3801 75.0094 10.1513 74.9945 12.4947C74.9824 14.3625 75.1841 15.2854 75.9627 16.9246C76.4224 17.8924 76.6798 18.2478 77.5762 19.1524C79.1576 20.7484 80.9152 21.6713 83.0342 22.0183C84.1749 22.2051 86.6718 22.1691 88.064 21.9458C89.4402 21.725 91.4809 21.148 92.2062 20.7746L92.6794 20.5309V18.1172C92.6794 14.9565 92.8322 14.577 94.1768 14.397C94.6405 14.3349 94.7635 14.27 94.7635 14.087C94.7635 13.8652 94.5819 13.8556 90.4115 13.8556C86.237 13.8556 86.0595 13.8651 86.0595 14.0876C86.0595 14.2799 86.1762 14.3295 86.7388 14.3766C87.1539 14.4114 87.5474 14.5302 87.7501 14.6821C88.3074 15.0994 88.3974 15.6228 88.3606 18.2341L88.3274 20.5978L87.6532 20.8358C86.6282 21.1978 84.4049 21.1815 83.4663 20.8052C81.1633 19.8814 80.0414 17.677 79.7411 13.4844C79.585 11.3054 80.1074 8.04175 80.8518 6.54558C81.8324 4.57437 83.4133 3.57713 85.5564 3.57775C87.3565 3.57837 88.7995 4.18134 90.098 5.4756C90.895 6.26983 91.6641 7.45338 92.0268 8.44319C92.1734 8.84352 92.3117 9.03082 92.4607 9.03082C92.6651 9.03082 92.6794 8.81618 92.6794 5.75247C92.6794 2.6775 92.6657 2.47412 92.4586 2.47412C92.3196 2.47412 92.1421 2.67305 91.9793 3.01115C91.5261 3.95272 91.2953 3.96868 89.1039 3.20934C87.2353 2.56183 87.2247 2.55973 85.5106 2.52336C84.5651 2.50331 83.4907 2.5408 83.123 2.60686ZM137.32 3.05457C138.555 3.75329 139.367 5.27222 139.229 6.62303C138.907 9.77037 135.286 11.2012 133.135 9.03082C132.454 8.3441 132.106 7.51758 132.051 6.45738C132.009 5.64274 132.042 5.47659 132.39 4.7629C132.83 3.86092 133.626 3.08129 134.4 2.79292C135.23 2.48402 136.516 2.59919 137.32 3.05457ZM29.6132 3.37103C29.4476 4.63301 29.1592 8.31193 29.2209 8.37428C29.3998 8.5549 29.6325 8.24896 29.835 7.56707C30.3112 5.96265 31.3797 4.75585 32.8124 4.2041C33.4386 3.96286 33.836 3.92006 35.9679 3.86414C37.379 3.82715 38.3808 3.84657 38.345 3.91041C38.3108 3.9709 35.9039 8.01478 32.9963 12.8968L27.7096 21.7731H35.9826C40.5328 21.7731 44.2556 21.7521 44.2556 21.7264C44.2556 21.5701 44.8829 15.8128 44.9414 15.4329C45.0034 15.0295 44.9812 14.969 44.7714 14.969C44.5852 14.969 44.4971 15.1034 44.3866 15.5566C44.1235 16.6357 43.2722 18.1884 42.5412 18.9227C41.0877 20.3826 40.1957 20.6404 36.2358 20.7457C33.3898 20.8213 33.3061 20.8167 33.3928 20.5888C33.4418 20.4596 35.8045 16.4562 38.643 11.6923C41.4815 6.92847 43.8261 2.98901 43.8532 2.93804C43.8801 2.88707 40.7028 2.84525 36.7922 2.84525H29.6823L29.6132 3.37103ZM45.359 3.09119C45.359 3.30521 45.4395 3.3401 45.9332 3.3401C46.7175 3.3401 47.494 3.73498 47.7059 4.24171C47.8397 4.56187 47.8721 6.14228 47.8721 12.371C47.8721 19.6089 47.8579 20.1293 47.6495 20.5148C47.3778 21.0171 46.8053 21.2782 45.9758 21.2782C45.4407 21.2782 45.359 21.311 45.359 21.5257C45.359 21.7688 45.4407 21.7731 50.0877 21.7731C54.5253 21.7731 54.814 21.7597 54.7755 21.5566C54.7439 21.3893 54.5676 21.3239 54.0003 21.2686C53.1928 21.19 52.8957 21.0668 52.5292 20.6582C52.292 20.3937 52.2845 20.1741 52.253 12.5128C52.223 5.19775 52.236 4.60839 52.4369 4.20608C52.7157 3.64777 53.3287 3.34059 54.1639 3.34035C54.7193 3.3401 54.8104 3.30793 54.7752 3.1236C54.7369 2.92257 54.3985 2.90476 50.0465 2.8747C45.4209 2.84278 45.359 2.84562 45.359 3.09119ZM55.1663 3.07857C55.1663 3.26179 55.29 3.3307 55.7415 3.39911C56.2319 3.47321 56.4218 3.59445 57.0287 4.22043L57.7407 4.95466V12.2862V19.6175L57.4649 20.1667C57.137 20.8195 56.6421 21.1363 55.7912 21.238C55.2901 21.2979 55.1663 21.3583 55.1663 21.5429C55.1663 21.7615 55.3275 21.7731 58.3537 21.7731C61.4593 21.7731 61.5411 21.7668 61.5411 21.5257C61.5411 21.3175 61.4585 21.2779 61.0201 21.2755C60.3717 21.2722 59.5811 20.9197 59.2399 20.4822C58.7481 19.8511 58.706 19.1852 58.7454 12.6527L58.7828 6.43944L64.856 14.261C69.186 19.8374 71.0069 22.0937 71.2001 22.122L71.471 22.1614L71.4718 13.7096C71.4721 7.99746 71.5157 5.10039 71.6059 4.77255C71.8006 4.06468 72.2795 3.64418 73.1026 3.45824C73.6419 3.33651 73.8003 3.24905 73.8003 3.07301C73.8003 2.85812 73.6338 2.84525 70.8581 2.84525C67.9976 2.84525 67.9159 2.85218 67.9159 3.09268C67.9159 3.28987 67.9976 3.3401 68.319 3.3401C68.831 3.3401 69.7327 3.80105 70.0316 4.2156C70.158 4.39103 70.3116 4.75288 70.373 5.01973C70.516 5.64237 70.5262 14.5111 70.3836 14.4223C70.3251 14.3857 68.3031 11.7658 65.8905 8.60055L61.5039 2.84525H58.3352C55.3116 2.84525 55.1663 2.85602 55.1663 3.07857ZM94.9679 2.92777C94.7177 3.18014 94.9384 3.31461 95.6816 3.36237C96.5379 3.41742 97.0297 3.67659 97.3055 4.21795C97.5433 4.68484 97.5259 19.7676 97.2869 20.3447C97.0492 20.9189 96.601 21.1804 95.7068 21.2669C95.1189 21.3238 94.941 21.3883 94.9091 21.5566C94.8704 21.761 95.3083 21.7731 102.723 21.7731C107.043 21.7731 110.578 21.7313 110.578 21.6802C110.578 21.6291 110.743 20.3905 110.946 18.9277C111.376 15.8147 111.377 15.804 111.116 15.8568C111.002 15.8801 110.796 16.2285 110.625 16.6883C110.23 17.7493 109.924 18.246 109.18 19.0305C108.022 20.2527 106.767 20.6922 104.387 20.7098C101.754 20.7292 101.826 20.8516 101.771 16.2427L101.729 12.7422L102.322 12.7429C104.074 12.7449 105.054 13.77 105.531 16.1012C105.689 16.8724 105.775 17.0721 105.947 17.0721C106.152 17.0721 106.165 16.7774 106.165 12.1236C106.165 7.44447 106.153 7.17515 105.944 7.17515C105.768 7.17515 105.695 7.34439 105.579 8.03061C105.162 10.4833 104.124 11.6288 102.319 11.6288H101.751V7.7801V3.93156L103.989 3.98068C106.135 4.02793 106.257 4.04414 106.992 4.38212C107.769 4.73977 108.559 5.46905 108.896 6.14043C109.084 6.5154 109.252 7.02397 109.472 7.88649C109.573 8.28026 109.667 8.41226 109.847 8.41226C110.079 8.41226 110.087 8.31156 110.087 5.62876V2.84525H102.569C98.4331 2.84525 95.0127 2.88237 94.9679 2.92777ZM112.417 3.05816C112.417 3.27008 112.52 3.31523 113.132 3.37127C113.526 3.40727 114.012 3.52208 114.212 3.62649C114.944 4.00851 114.927 3.82059 114.962 11.9999C114.999 20.6468 115.007 20.5575 114.138 20.9999C113.798 21.173 113.369 21.2782 113.004 21.2782C112.499 21.2782 112.417 21.3126 112.417 21.5257C112.417 21.7688 112.499 21.7731 117.075 21.7731C121.652 21.7731 121.734 21.7688 121.734 21.5257C121.734 21.314 121.65 21.2773 121.151 21.2713C120.36 21.2618 119.785 21.0379 119.477 20.62C119.233 20.2878 119.219 20.0979 119.181 16.6853L119.142 13.0998L119.779 13.1374L120.416 13.1751L123.312 17.4432L126.209 21.7112L129.059 21.7444C131.724 21.7754 131.909 21.7633 131.909 21.557C131.909 21.4044 131.723 21.2696 131.306 21.1203C130.877 20.9665 130.565 20.7353 130.222 20.3181C129.621 19.586 125.166 13.0433 125.166 12.8922C125.166 12.8312 125.401 12.7115 125.687 12.6261C127.671 12.0353 128.948 10.439 129.064 8.40422C129.185 6.30187 128.128 4.46364 126.317 3.62723C125.051 3.0422 124.182 2.96364 118.087 2.88435C112.473 2.81123 112.417 2.81296 112.417 3.05816ZM7.47927 4.85556L7.48049 6.61845L7.77067 5.99989C7.93041 5.65969 8.24706 5.20319 8.47447 4.98558C9.18415 4.30616 9.59067 4.20608 11.6422 4.20608C12.6558 4.20608 13.485 4.23428 13.485 4.2688C13.485 4.32967 8.18932 13.7582 7.70091 14.5669L7.45806 14.969H12.2491H17.0402L17.0316 13.0205C17.0234 11.1833 17.013 11.1003 16.8492 11.5669C16.4686 12.651 16.0153 13.2449 15.2626 13.6462C14.8376 13.873 14.5125 13.9143 12.8233 13.9569C10.9641 14.0038 10.8783 13.9954 10.9606 13.7761C11.0082 13.6497 12.3485 11.236 13.939 8.41226C15.5295 5.58855 16.8536 3.23643 16.8815 3.18546C16.9093 3.13449 14.8049 3.09268 12.2051 3.09268H7.47804L7.47927 4.85556ZM122.469 4.17577C122.954 4.32397 123.305 4.54505 123.719 4.96121C124.436 5.68344 124.712 6.53346 124.719 8.04113C124.728 9.90484 124.105 11.1629 122.878 11.7625C122.403 11.9944 122.04 12.0515 120.733 12.0991L119.159 12.1564V8.07812C119.159 5.83511 119.201 3.95717 119.251 3.90484C119.398 3.75317 121.729 3.9495 122.469 4.17577ZM133.736 4.00591C133.832 4.12356 133.866 4.8443 133.843 6.31993L133.809 8.46323L133.503 8.54909C133.33 8.59746 133.733 8.63964 134.422 8.64558C135.485 8.65461 135.607 8.63531 135.341 8.49997C135.06 8.35659 135.032 8.26641 134.999 7.38843C134.951 6.10604 135.123 6.13103 136.084 7.54628L136.839 8.65969H137.589C138.276 8.65969 138.317 8.64496 138.086 8.48154C137.726 8.2267 136.538 6.45701 136.629 6.30929C136.67 6.24113 136.78 6.18546 136.872 6.18546C136.964 6.18546 137.154 6.03874 137.294 5.85948C137.764 5.25663 137.555 4.3549 136.869 4.02645C136.317 3.76208 133.52 3.74364 133.736 4.00591ZM136.284 4.40303C136.373 4.52488 136.445 4.83911 136.445 5.10138C136.445 5.73602 136.015 6.18546 135.408 6.18546H134.974V5.15457C134.974 4.58748 135.003 4.09424 135.038 4.05837C135.171 3.92451 136.13 4.18975 136.284 4.40303Z" fill="white"/>
</svg>
