<svg width="127" height="27" viewBox="0 0 127 27" fill="none" xmlns="http://www.w3.org/2000/svg">
<path d="M0.827637 12V11.502C1.11084 11.4922 1.32324 11.4409 1.46484 11.3481C1.60645 11.2554 1.70654 11.1284 1.76514 10.9673C1.82373 10.8062 1.85303 10.6157 1.85303 10.396C1.85791 10.1714 1.86035 9.92725 1.86035 9.66357V3.18164C1.86035 2.97656 1.86279 2.78369 1.86768 2.60303C1.87744 2.41748 1.89209 2.24902 1.91162 2.09766L0.827637 2.16357V1.49707C1.35498 1.4873 1.89697 1.48242 2.45361 1.48242C3.01025 1.47754 3.58398 1.4751 4.1748 1.4751C5.62988 1.4751 6.73584 1.71924 7.49268 2.20752C8.30322 2.73975 8.7085 3.51855 8.7085 4.54395C8.7085 4.75391 8.68408 4.98584 8.63525 5.23975C8.59131 5.49365 8.49854 5.75732 8.35693 6.03076C8.21533 6.29932 8.02002 6.55811 7.771 6.80713C7.52686 7.05127 7.2168 7.26611 6.84082 7.45166C6.46973 7.63232 6.02539 7.77881 5.50781 7.89111C4.99023 7.99854 4.38965 8.05225 3.70605 8.05225C3.65723 8.05225 3.5791 8.05225 3.47168 8.05225C3.36914 8.05225 3.26904 8.0498 3.17139 8.04492V10.2129C3.17139 10.4863 3.1665 10.7207 3.15674 10.916C3.15186 11.1113 3.13965 11.2725 3.12012 11.3994L4.50439 11.3262V12H0.827637ZM3.17139 7.42236C3.35693 7.44678 3.51807 7.46143 3.65479 7.46631C3.79639 7.47119 3.95996 7.47363 4.14551 7.47363C4.57031 7.47363 4.9707 7.41016 5.34668 7.2832C5.72754 7.15625 6.05713 6.97314 6.33545 6.73389C6.61865 6.48975 6.84082 6.19434 7.00195 5.84766C7.16797 5.50098 7.25098 5.10791 7.25098 4.66846C7.25098 4.19482 7.17529 3.79199 7.02393 3.45996C6.87256 3.12793 6.66016 2.85938 6.38672 2.6543C6.11328 2.44434 5.78613 2.29297 5.40527 2.2002C5.02441 2.10742 4.60449 2.06104 4.14551 2.06104C3.87695 2.06104 3.67432 2.10498 3.5376 2.19287C3.40576 2.27588 3.31055 2.39551 3.25195 2.55176C3.19824 2.70801 3.17139 2.896 3.17139 3.11572C3.17139 3.33057 3.17139 3.57227 3.17139 3.84082V7.42236ZM11.9508 8.43311C11.9508 7.84229 12.046 7.29297 12.2364 6.78516C12.4317 6.27246 12.6979 5.83057 13.0348 5.45947C13.3717 5.0835 13.7696 4.79053 14.2286 4.58057C14.6876 4.36572 15.1832 4.2583 15.7154 4.2583C16.2428 4.2583 16.7359 4.35596 17.1949 4.55127C17.6539 4.7417 18.0519 5.00781 18.3888 5.34961C18.7306 5.68652 18.9991 6.08936 19.1944 6.55811C19.3946 7.02197 19.4947 7.5249 19.4947 8.06689C19.4947 8.64795 19.3971 9.19238 19.2018 9.7002C19.0113 10.208 18.7452 10.6499 18.4034 11.0259C18.0665 11.4019 17.6661 11.6997 17.2022 11.9194C16.7433 12.1343 16.2477 12.2417 15.7154 12.2417C15.1881 12.2417 14.6949 12.1489 14.2359 11.9634C13.7818 11.7729 13.3839 11.5093 13.0421 11.1724C12.7052 10.8354 12.4391 10.4351 12.2437 9.97119C12.0484 9.50244 11.9508 8.98975 11.9508 8.43311ZM13.4815 7.99365C13.4815 8.45752 13.5279 8.90918 13.6207 9.34863C13.7184 9.78809 13.8648 10.1787 14.0602 10.5205C14.2555 10.8574 14.4996 11.1284 14.7926 11.3335C15.0904 11.5386 15.4371 11.6411 15.8326 11.6411C16.2281 11.6411 16.5602 11.5532 16.8287 11.3774C17.1021 11.1968 17.3219 10.96 17.4879 10.667C17.6588 10.374 17.7809 10.0396 17.8541 9.66357C17.9273 9.2876 17.964 8.90186 17.964 8.50635C17.964 8.05713 17.9225 7.61279 17.8395 7.17334C17.7564 6.73389 17.6246 6.34082 17.4439 5.99414C17.2633 5.64746 17.0289 5.3667 16.7408 5.15186C16.4576 4.93701 16.1158 4.82959 15.7154 4.82959C15.3199 4.82959 14.9806 4.91748 14.6974 5.09326C14.419 5.26904 14.1896 5.50342 14.0089 5.79639C13.8282 6.08936 13.6939 6.42627 13.6061 6.80713C13.523 7.18799 13.4815 7.5835 13.4815 7.99365ZM22.6271 1.70947V1.07959C22.9543 1.07959 23.2253 1.06982 23.4401 1.05029C23.6599 1.02588 23.8381 0.994141 23.9748 0.955078C24.1115 0.916016 24.2189 0.874512 24.2971 0.830566C24.3752 0.781738 24.4436 0.730469 24.5021 0.676758H24.9343V5.15186C25.2126 4.87354 25.5422 4.65625 25.923 4.5C26.3088 4.33887 26.7385 4.2583 27.2121 4.2583C27.6906 4.2583 28.135 4.34863 28.5451 4.5293C28.9602 4.70508 29.319 4.95898 29.6218 5.29102C29.9294 5.61816 30.1687 6.01855 30.3396 6.49219C30.5153 6.96094 30.6032 7.48828 30.6032 8.07422C30.6032 8.71387 30.4934 9.29004 30.2736 9.80273C30.0588 10.3154 29.7707 10.7524 29.4094 11.1138C29.0529 11.4751 28.6379 11.7534 28.1643 11.9487C27.6955 12.144 27.2097 12.2417 26.7067 12.2417C26.5358 12.2417 26.3552 12.2271 26.1647 12.1978C25.9743 12.1733 25.7814 12.1245 25.5861 12.0513C25.3908 11.9829 25.2004 11.8901 25.0148 11.7729C24.8293 11.6558 24.6584 11.5068 24.5021 11.3262L24.1433 12H23.6159L23.6452 2.625C23.6452 2.46875 23.6452 2.31738 23.6452 2.1709C23.6501 2.02441 23.6647 1.85107 23.6892 1.65088L22.6271 1.70947ZM24.9343 9.6416C24.9343 10.042 24.9831 10.3716 25.0808 10.6304C25.1784 10.8843 25.3103 11.0869 25.4763 11.2383C25.6423 11.3848 25.8303 11.4873 26.0402 11.5459C26.2551 11.5996 26.4772 11.6265 26.7067 11.6265C27.0681 11.6265 27.3928 11.5508 27.6809 11.3994C27.9738 11.2432 28.2204 11.0259 28.4206 10.7476C28.6257 10.4644 28.7819 10.1274 28.8894 9.73682C29.0017 9.34619 29.0578 8.91406 29.0578 8.44043C29.0578 7.9375 29.009 7.47607 28.9113 7.05615C28.8186 6.63135 28.677 6.26758 28.4865 5.96484C28.2961 5.66211 28.0568 5.42529 27.7687 5.25439C27.4807 5.0835 27.1413 4.99805 26.7507 4.99805C26.4187 4.99805 26.0915 5.07617 25.7692 5.23242C25.447 5.38379 25.1687 5.58887 24.9343 5.84766V9.6416ZM34.2703 8.26465C34.2703 7.7373 34.3606 7.23438 34.5413 6.75586C34.722 6.27246 34.9783 5.84521 35.3104 5.47412C35.6424 5.10303 36.0403 4.80762 36.5042 4.58789C36.9681 4.36816 37.4832 4.2583 38.0496 4.2583C38.4646 4.2583 38.8553 4.32666 39.2215 4.46338C39.5926 4.6001 39.9173 4.80518 40.1956 5.07861C40.4739 5.35205 40.6937 5.69873 40.8548 6.11865C41.0159 6.53369 41.0965 7.01953 41.0965 7.57617L35.8157 7.66406C35.8157 7.69336 35.8157 7.72266 35.8157 7.75195C35.8157 8.29395 35.8597 8.78711 35.9476 9.23145C36.0403 9.7002 36.1868 10.1006 36.387 10.4326C36.5872 10.7646 36.8436 11.021 37.1561 11.2017C37.4734 11.3823 37.8519 11.4727 38.2913 11.4727C38.5257 11.4727 38.7649 11.4409 39.0091 11.3774C39.2532 11.314 39.4876 11.2285 39.7122 11.1211C39.9417 11.0088 40.1517 10.877 40.3421 10.7256C40.5325 10.5693 40.6912 10.4033 40.8182 10.2275L41.1844 10.5278C40.9793 10.8403 40.74 11.1064 40.4666 11.3262C40.198 11.541 39.9173 11.7168 39.6243 11.8535C39.3362 11.9902 39.0457 12.0879 38.7527 12.1465C38.4598 12.21 38.1863 12.2417 37.9324 12.2417C37.4148 12.2417 36.9314 12.1489 36.4822 11.9634C36.0379 11.7778 35.6521 11.5117 35.325 11.165C34.9979 10.8184 34.7391 10.4009 34.5486 9.9126C34.3631 9.42432 34.2703 8.875 34.2703 8.26465ZM35.8597 7.03418H39.6829C39.6829 6.77051 39.6536 6.50928 39.595 6.25049C39.5364 5.98682 39.4412 5.75244 39.3094 5.54736C39.1824 5.3374 39.0164 5.16895 38.8113 5.04199C38.6063 4.91016 38.3572 4.84424 38.0643 4.84424C37.4783 4.84424 36.9949 5.01758 36.6141 5.36426C36.2332 5.70605 35.9817 6.2627 35.8597 7.03418ZM44.727 8.4624C44.727 7.85205 44.8222 7.29053 45.0126 6.77783C45.2079 6.26025 45.4765 5.81592 45.8183 5.44482C46.1601 5.06885 46.5653 4.77832 47.0341 4.57324C47.5077 4.36328 48.0229 4.2583 48.5795 4.2583C48.7455 4.2583 48.9115 4.27051 49.0775 4.29492C49.2436 4.31934 49.4022 4.35107 49.5536 4.39014C49.7099 4.4292 49.8539 4.47314 49.9857 4.52197C50.1176 4.5708 50.2323 4.62207 50.33 4.67578L50.3373 2.625C50.3373 2.46875 50.3373 2.31738 50.3373 2.1709C50.3422 2.02441 50.3568 1.85107 50.3812 1.65088L49.3192 1.70947V1.07959C49.6464 1.07959 49.9174 1.06982 50.1322 1.05029C50.3471 1.02588 50.5229 0.994141 50.6596 0.955078C50.7963 0.916016 50.9013 0.874512 50.9745 0.830566C51.0526 0.781738 51.121 0.730469 51.1796 0.676758H51.6117V10.4106C51.6117 10.5669 51.6068 10.7256 51.5971 10.8867C51.5922 11.043 51.5775 11.2236 51.5531 11.4287L52.6151 11.3701V12H50.4691C50.4447 11.8535 50.4252 11.7168 50.4105 11.5898C50.3959 11.4629 50.3837 11.3384 50.3739 11.2163C50.0858 11.5288 49.7367 11.7778 49.3266 11.9634C48.9213 12.1489 48.4672 12.2417 47.9643 12.2417C47.5004 12.2417 47.0707 12.1538 46.6752 11.978C46.2846 11.8022 45.9428 11.5508 45.6498 11.2236C45.3617 10.8965 45.1347 10.501 44.9687 10.0371C44.8075 9.56836 44.727 9.04346 44.727 8.4624ZM46.2724 8.32324C46.2724 8.72852 46.3261 9.14111 46.4335 9.56104C46.5458 9.97607 46.6947 10.3252 46.8803 10.6084C47.0707 10.8867 47.3002 11.1064 47.5687 11.2676C47.8422 11.4238 48.1547 11.502 48.5062 11.502C48.6723 11.502 48.8407 11.4775 49.0116 11.4287C49.1825 11.3799 49.3461 11.3115 49.5023 11.2236C49.6635 11.1357 49.8124 11.0332 49.9491 10.916C50.0907 10.7939 50.2177 10.6621 50.33 10.5205C50.3251 10.3984 50.3227 10.269 50.3227 10.1323C50.3227 9.99561 50.3227 9.84912 50.3227 9.69287L50.33 5.37158C50.0907 5.18604 49.8295 5.0542 49.5463 4.97607C49.2631 4.89307 48.9726 4.85156 48.6747 4.85156C48.2987 4.85156 47.9594 4.93457 47.6566 5.10059C47.3539 5.2666 47.0951 5.50342 46.8803 5.81104C46.6703 6.11377 46.5165 6.46045 46.4188 6.85107C46.3212 7.2417 46.2724 7.73242 46.2724 8.32324ZM56.0918 8.43311C56.0918 7.84229 56.187 7.29297 56.3774 6.78516C56.5728 6.27246 56.8389 5.83057 57.1758 5.45947C57.5127 5.0835 57.9106 4.79053 58.3696 4.58057C58.8286 4.36572 59.3242 4.2583 59.8564 4.2583C60.3838 4.2583 60.877 4.35596 61.3359 4.55127C61.7949 4.7417 62.1929 5.00781 62.5298 5.34961C62.8716 5.68652 63.1401 6.08936 63.3354 6.55811C63.5356 7.02197 63.6357 7.5249 63.6357 8.06689C63.6357 8.64795 63.5381 9.19238 63.3428 9.7002C63.1523 10.208 62.8862 10.6499 62.5444 11.0259C62.2075 11.4019 61.8071 11.6997 61.3433 11.9194C60.8843 12.1343 60.3887 12.2417 59.8564 12.2417C59.3291 12.2417 58.8359 12.1489 58.377 11.9634C57.9229 11.7729 57.5249 11.5093 57.1831 11.1724C56.8462 10.8354 56.5801 10.4351 56.3848 9.97119C56.1895 9.50244 56.0918 8.98975 56.0918 8.43311ZM57.6226 7.99365C57.6226 8.45752 57.6689 8.90918 57.7617 9.34863C57.8594 9.78809 58.0059 10.1787 58.2012 10.5205C58.3965 10.8574 58.6406 11.1284 58.9336 11.3335C59.2314 11.5386 59.5781 11.6411 59.9736 11.6411C60.3691 11.6411 60.7012 11.5532 60.9697 11.3774C61.2432 11.1968 61.4629 10.96 61.6289 10.667C61.7998 10.374 61.9219 10.0396 61.9951 9.66357C62.0684 9.2876 62.105 8.90186 62.105 8.50635C62.105 8.05713 62.0635 7.61279 61.9805 7.17334C61.8975 6.73389 61.7656 6.34082 61.585 5.99414C61.4043 5.64746 61.1699 5.3667 60.8818 5.15186C60.5986 4.93701 60.2568 4.82959 59.8564 4.82959C59.4609 4.82959 59.1216 4.91748 58.8384 5.09326C58.5601 5.26904 58.3306 5.50342 58.1499 5.79639C57.9692 6.08936 57.835 6.42627 57.7471 6.80713C57.6641 7.18799 57.6226 7.5835 57.6226 7.99365ZM67.2076 5.38623V4.75635C67.5348 4.75635 67.8009 4.74658 68.006 4.72705C68.211 4.70264 68.3746 4.6709 68.4967 4.63184C68.6236 4.59277 68.7213 4.55127 68.7896 4.50732C68.858 4.4585 68.9215 4.40723 68.9801 4.35352H69.4122C69.422 4.46582 69.4317 4.59521 69.4415 4.7417C69.4562 4.8833 69.4684 5.05664 69.4781 5.26172C69.6393 5.12012 69.815 4.98828 70.0055 4.86621C70.2008 4.74414 70.4034 4.63916 70.6134 4.55127C70.8233 4.4585 71.0382 4.3877 71.2579 4.33887C71.4825 4.28516 71.7022 4.2583 71.9171 4.2583C72.7862 4.2583 73.421 4.53174 73.8214 5.07861C74.2218 5.62061 74.422 6.46533 74.422 7.61279V10.4106C74.422 10.6108 74.4195 10.7891 74.4146 10.9453C74.4098 11.0967 74.3927 11.2578 74.3634 11.4287L75.3082 11.3848V12H72.2467V11.5532C72.4762 11.5532 72.6495 11.5093 72.7667 11.4214C72.8888 11.3286 72.9767 11.2017 73.0304 11.0405C73.0841 10.8794 73.1134 10.6865 73.1183 10.4619C73.128 10.2373 73.1329 9.99072 73.1329 9.72217V7.62744C73.1231 6.76318 72.9815 6.11377 72.7081 5.6792C72.4347 5.23975 72.0001 5.02002 71.4044 5.02002C71.2237 5.02002 71.0431 5.04688 70.8624 5.10059C70.6817 5.1543 70.5084 5.2251 70.3424 5.31299C70.1764 5.396 70.0201 5.49609 69.8736 5.61328C69.7271 5.73047 69.6002 5.85742 69.4928 5.99414C69.4977 6.08203 69.5001 6.17725 69.5001 6.27979C69.5001 6.37744 69.5001 6.47754 69.5001 6.58008L69.4855 10.4106C69.4855 10.6108 69.483 10.7891 69.4781 10.9453C69.4732 11.0967 69.4562 11.2578 69.4269 11.4287L70.3717 11.3848V12H67.3102V11.5532C67.5396 11.5532 67.713 11.5093 67.8302 11.4214C67.9522 11.3286 68.0377 11.2017 68.0865 11.0405C68.1402 10.8794 68.1695 10.6865 68.1744 10.4619C68.1842 10.2373 68.1915 9.99072 68.1964 9.72217L68.211 6.30176C68.211 6.14551 68.2135 5.98682 68.2184 5.82568C68.2232 5.66455 68.2403 5.49854 68.2696 5.32764L67.2076 5.38623ZM78.7775 8.43311C78.7775 7.84229 78.8728 7.29297 79.0632 6.78516C79.2585 6.27246 79.5246 5.83057 79.8615 5.45947C80.1984 5.0835 80.5964 4.79053 81.0554 4.58057C81.5144 4.36572 82.01 4.2583 82.5422 4.2583C83.0695 4.2583 83.5627 4.35596 84.0217 4.55127C84.4807 4.7417 84.8786 5.00781 85.2155 5.34961C85.5573 5.68652 85.8259 6.08936 86.0212 6.55811C86.2214 7.02197 86.3215 7.5249 86.3215 8.06689C86.3215 8.64795 86.2238 9.19238 86.0285 9.7002C85.8381 10.208 85.572 10.6499 85.2302 11.0259C84.8933 11.4019 84.4929 11.6997 84.029 11.9194C83.57 12.1343 83.0744 12.2417 82.5422 12.2417C82.0148 12.2417 81.5217 12.1489 81.0627 11.9634C80.6086 11.7729 80.2106 11.5093 79.8689 11.1724C79.5319 10.8354 79.2658 10.4351 79.0705 9.97119C78.8752 9.50244 78.7775 8.98975 78.7775 8.43311ZM80.3083 7.99365C80.3083 8.45752 80.3547 8.90918 80.4475 9.34863C80.5451 9.78809 80.6916 10.1787 80.8869 10.5205C81.0822 10.8574 81.3264 11.1284 81.6193 11.3335C81.9172 11.5386 82.2639 11.6411 82.6594 11.6411C83.0549 11.6411 83.3869 11.5532 83.6555 11.3774C83.9289 11.1968 84.1486 10.96 84.3147 10.667C84.4855 10.374 84.6076 10.0396 84.6809 9.66357C84.7541 9.2876 84.7907 8.90186 84.7907 8.50635C84.7907 8.05713 84.7492 7.61279 84.6662 7.17334C84.5832 6.73389 84.4514 6.34082 84.2707 5.99414C84.09 5.64746 83.8557 5.3667 83.5676 5.15186C83.2844 4.93701 82.9426 4.82959 82.5422 4.82959C82.1467 4.82959 81.8073 4.91748 81.5241 5.09326C81.2458 5.26904 81.0163 5.50342 80.8356 5.79639C80.655 6.08936 80.5207 6.42627 80.4328 6.80713C80.3498 7.18799 80.3083 7.5835 80.3083 7.99365ZM90.1131 9.52441H90.5745C90.594 9.83691 90.6648 10.125 90.7869 10.3887C90.9139 10.6475 91.0774 10.8721 91.2776 11.0625C91.4827 11.248 91.7146 11.3945 91.9734 11.502C92.2371 11.6045 92.5154 11.6558 92.8084 11.6558C92.9988 11.6558 93.1893 11.6338 93.3797 11.5898C93.575 11.541 93.7508 11.4678 93.907 11.3701C94.0682 11.2725 94.1976 11.1504 94.2952 11.0039C94.3978 10.8525 94.449 10.6743 94.449 10.4692C94.449 10.23 94.3855 10.0273 94.2586 9.86133C94.1365 9.69043 93.9729 9.5415 93.7679 9.41455C93.5677 9.28271 93.3357 9.16553 93.0721 9.06299C92.8133 8.96045 92.5472 8.85547 92.2737 8.74805C92.0052 8.64062 91.7415 8.52344 91.4827 8.39648C91.2239 8.26465 90.992 8.11084 90.7869 7.93506C90.5867 7.75928 90.4231 7.54932 90.2962 7.30518C90.1741 7.06104 90.1131 6.77051 90.1131 6.43359C90.1131 6.22363 90.1521 5.99414 90.2303 5.74512C90.3084 5.49121 90.4451 5.25439 90.6404 5.03467C90.8357 4.81494 91.097 4.63184 91.4241 4.48535C91.7561 4.33398 92.1736 4.2583 92.6766 4.2583C92.8133 4.2583 92.9573 4.26807 93.1087 4.2876C93.2649 4.30713 93.4236 4.34375 93.5848 4.39746C93.7459 4.44629 93.907 4.51221 94.0682 4.59521C94.2293 4.67822 94.388 4.78076 94.5442 4.90283L94.5076 4.33154H95.1375V6.96094H94.6687C94.6492 6.70215 94.5979 6.4458 94.5149 6.19189C94.4368 5.93799 94.3196 5.71094 94.1634 5.51074C94.012 5.30566 93.8191 5.13965 93.5848 5.0127C93.3504 4.88574 93.0721 4.82227 92.7498 4.82227C92.5154 4.82227 92.3079 4.854 92.1272 4.91748C91.9466 4.97607 91.7928 5.05908 91.6658 5.1665C91.5437 5.26904 91.451 5.38867 91.3875 5.52539C91.324 5.66211 91.2923 5.80615 91.2923 5.95752C91.2923 6.20166 91.3533 6.41162 91.4754 6.5874C91.6023 6.76318 91.7684 6.91943 91.9734 7.05615C92.1785 7.19287 92.4129 7.31738 92.6766 7.42969C92.9402 7.53711 93.2088 7.64941 93.4822 7.7666C93.7557 7.87891 94.0242 8.00098 94.2879 8.13281C94.5516 8.25977 94.7859 8.41113 94.991 8.58691C95.1961 8.7627 95.3597 8.96777 95.4817 9.20215C95.6087 9.43652 95.6722 9.71484 95.6722 10.0371C95.6722 10.4131 95.5965 10.7402 95.4451 11.0186C95.2937 11.2969 95.0936 11.5264 94.8445 11.707C94.6004 11.8877 94.3221 12.022 94.0096 12.1099C93.702 12.1978 93.3895 12.2417 93.0721 12.2417C92.5643 12.2417 92.1175 12.1733 91.7317 12.0366C91.346 11.9048 91.0286 11.7534 90.7796 11.5825L90.8309 12.1025H90.201L90.1131 9.52441ZM99.2953 8.38184C99.2953 8.03516 99.3368 7.69336 99.4198 7.35645C99.5077 7.01953 99.6322 6.69971 99.7934 6.39697C99.9545 6.08936 100.15 5.80615 100.379 5.54736C100.609 5.28369 100.868 5.05664 101.156 4.86621C101.449 4.67578 101.766 4.52686 102.108 4.41943C102.454 4.31201 102.821 4.2583 103.206 4.2583C103.621 4.2583 104 4.30957 104.342 4.41211C104.683 4.51465 104.976 4.65137 105.221 4.82227C105.465 4.99316 105.653 5.19092 105.785 5.41553C105.916 5.63525 105.982 5.86719 105.982 6.11133C105.982 6.32617 105.921 6.51172 105.799 6.66797C105.682 6.81934 105.511 6.89746 105.287 6.90234C105.155 6.90723 105.045 6.8877 104.957 6.84375C104.869 6.79492 104.798 6.73633 104.745 6.66797C104.691 6.59961 104.652 6.52637 104.627 6.44824C104.603 6.36523 104.591 6.29199 104.591 6.22852C104.591 6.13086 104.605 6.02832 104.635 5.9209C104.669 5.81348 104.73 5.71338 104.818 5.62061C104.749 5.44482 104.649 5.30566 104.517 5.20312C104.386 5.0957 104.242 5.0127 104.085 4.9541C103.934 4.89551 103.78 4.85889 103.624 4.84424C103.473 4.82471 103.346 4.81494 103.243 4.81494C102.901 4.81494 102.581 4.88574 102.284 5.02734C101.991 5.16406 101.737 5.3667 101.522 5.63525C101.307 5.90381 101.136 6.23828 101.009 6.63867C100.887 7.03906 100.826 7.49805 100.826 8.01562C100.826 8.51367 100.887 8.9751 101.009 9.3999C101.136 9.81982 101.312 10.1836 101.537 10.4912C101.761 10.7939 102.032 11.0308 102.35 11.2017C102.667 11.3726 103.018 11.458 103.404 11.458C103.639 11.458 103.871 11.4263 104.1 11.3628C104.329 11.2944 104.547 11.2017 104.752 11.0845C104.957 10.9673 105.145 10.8306 105.316 10.6743C105.492 10.5181 105.641 10.3496 105.763 10.1689L106.151 10.4692C105.951 10.7817 105.721 11.0503 105.462 11.2749C105.208 11.4946 104.94 11.6777 104.657 11.8242C104.378 11.9658 104.095 12.0708 103.807 12.1392C103.524 12.2075 103.255 12.2417 103.001 12.2417C102.494 12.2417 102.015 12.1562 101.566 11.9854C101.117 11.8096 100.724 11.5581 100.387 11.231C100.05 10.8989 99.7836 10.4937 99.5883 10.0151C99.393 9.53662 99.2953 8.99219 99.2953 8.38184ZM109.62 8.26465C109.62 7.7373 109.71 7.23438 109.891 6.75586C110.072 6.27246 110.328 5.84521 110.66 5.47412C110.992 5.10303 111.39 4.80762 111.854 4.58789C112.318 4.36816 112.833 4.2583 113.399 4.2583C113.814 4.2583 114.205 4.32666 114.571 4.46338C114.942 4.6001 115.267 4.80518 115.545 5.07861C115.824 5.35205 116.043 5.69873 116.205 6.11865C116.366 6.53369 116.446 7.01953 116.446 7.57617L111.166 7.66406C111.166 7.69336 111.166 7.72266 111.166 7.75195C111.166 8.29395 111.209 8.78711 111.297 9.23145C111.39 9.7002 111.537 10.1006 111.737 10.4326C111.937 10.7646 112.193 11.021 112.506 11.2017C112.823 11.3823 113.202 11.4727 113.641 11.4727C113.875 11.4727 114.115 11.4409 114.359 11.3774C114.603 11.314 114.837 11.2285 115.062 11.1211C115.292 11.0088 115.501 10.877 115.692 10.7256C115.882 10.5693 116.041 10.4033 116.168 10.2275L116.534 10.5278C116.329 10.8403 116.09 11.1064 115.816 11.3262C115.548 11.541 115.267 11.7168 114.974 11.8535C114.686 11.9902 114.396 12.0879 114.103 12.1465C113.81 12.21 113.536 12.2417 113.282 12.2417C112.765 12.2417 112.281 12.1489 111.832 11.9634C111.388 11.7778 111.002 11.5117 110.675 11.165C110.348 10.8184 110.089 10.4009 109.898 9.9126C109.713 9.42432 109.62 8.875 109.62 8.26465ZM111.209 7.03418H115.033C115.033 6.77051 115.003 6.50928 114.945 6.25049C114.886 5.98682 114.791 5.75244 114.659 5.54736C114.532 5.3374 114.366 5.16895 114.161 5.04199C113.956 4.91016 113.707 4.84424 113.414 4.84424C112.828 4.84424 112.345 5.01758 111.964 5.36426C111.583 5.70605 111.332 6.2627 111.209 7.03418ZM119.535 5.11523V4.5H122.296V4.94678C122.067 4.94678 121.903 4.99316 121.805 5.08594C121.703 5.17383 121.647 5.2959 121.637 5.45215C121.637 5.47168 121.637 5.49365 121.637 5.51807C121.642 5.65479 121.669 5.81104 121.717 5.98682C121.776 6.18701 121.854 6.39697 121.952 6.6167L123.102 9.25342C123.18 9.42432 123.255 9.60498 123.329 9.79541C123.402 9.98096 123.478 10.1689 123.556 10.3594H123.57C123.624 10.2129 123.68 10.0566 123.739 9.89062C123.802 9.72461 123.863 9.55859 123.922 9.39258L125.116 6.104C125.199 5.86475 125.282 5.65479 125.365 5.47412C125.453 5.29346 125.519 5.15918 125.563 5.07129L124.603 5.11523V4.5H126.976V4.94678C126.81 4.94678 126.666 4.99072 126.544 5.07861C126.422 5.16162 126.307 5.28857 126.2 5.45947C126.092 5.62549 125.985 5.83545 125.878 6.08936C125.77 6.34326 125.65 6.63867 125.519 6.97559L123.556 12.0439H122.955L120.809 7.15137C120.687 6.86816 120.585 6.6167 120.502 6.39697C120.423 6.17725 120.36 5.98438 120.311 5.81836C120.267 5.64746 120.235 5.50342 120.216 5.38623C120.196 5.26416 120.184 5.15918 120.179 5.07129L119.535 5.11523Z" fill="white"/>
<path d="M3.99072 22.0415L3.12598 19.6567L2.26123 22.0415H3.99072ZM3.45898 18.3677L6.23047 26H5.43018L4.26465 22.7935H1.9873L0.800293 26H-0.00537109L2.79834 18.3677H3.45898ZM10.7351 19.125V22.7129H11.7986C12.2927 22.7129 12.7152 22.5374 13.0662 22.1865C13.4171 21.8356 13.5925 21.4113 13.5925 20.9136C13.5925 20.4194 13.4171 19.9987 13.0662 19.6514C12.7152 19.3005 12.2927 19.125 11.7986 19.125H10.7351ZM11.8362 23.4756H10.7351V26H9.97777V18.3677H12.0725C12.6776 18.4465 13.1879 18.6953 13.6033 19.1143C14.101 19.6156 14.3498 20.2153 14.3498 20.9136C14.3498 21.6226 14.101 22.2259 13.6033 22.7236C13.2559 23.0674 12.9372 23.2751 12.6472 23.3467L14.3713 26H13.4529L11.8362 23.4756ZM24.3598 24.437L24.9292 24.9473C24.0913 25.7064 23.1693 26.0859 22.1631 26.0859C21.0817 26.0859 20.1596 25.7064 19.397 24.9473C18.6378 24.1846 18.2583 23.2625 18.2583 22.1812C18.2583 21.1069 18.6378 20.1885 19.397 19.4258C20.1596 18.6595 21.0817 18.2764 22.1631 18.2764C23.1693 18.2764 24.0913 18.6595 24.9292 19.4258L24.3598 19.9307C23.6902 19.3398 22.958 19.0444 22.1631 19.0444C21.2965 19.0444 20.5553 19.3506 19.9394 19.9629C19.3271 20.5752 19.021 21.3146 19.021 22.1812C19.021 23.0513 19.3271 23.7943 19.9394 24.4102C20.5553 25.0225 21.2965 25.3286 22.1631 25.3286C22.958 25.3286 23.6902 25.0314 24.3598 24.437ZM29.6701 22.5625V26H28.9128V18.3677H29.6701V21.8052H33.0593V18.3677H33.8166V26H33.0593V22.5625H29.6701ZM38.8745 18.3677V26H38.1171V18.3677H38.8745ZM45.4416 19.1196V26H44.6896V19.1196H42.842V18.3677H47.2839V19.1196H45.4416ZM55.1884 18.3677V19.1196H51.955V21.8052H55.1884V22.5625H51.955V25.2427H55.1884V26H51.1977V18.3677H55.1884ZM65.4294 24.437L65.9987 24.9473C65.1608 25.7064 64.2388 26.0859 63.2326 26.0859C62.1512 26.0859 61.2292 25.7064 60.4665 24.9473C59.7074 24.1846 59.3278 23.2625 59.3278 22.1812C59.3278 21.1069 59.7074 20.1885 60.4665 19.4258C61.2292 18.6595 62.1512 18.2764 63.2326 18.2764C64.2388 18.2764 65.1608 18.6595 65.9987 19.4258L65.4294 19.9307C64.7598 19.3398 64.0275 19.0444 63.2326 19.0444C62.3661 19.0444 61.6248 19.3506 61.009 19.9629C60.3967 20.5752 60.0905 21.3146 60.0905 22.1812C60.0905 23.0513 60.3967 23.7943 61.009 24.4102C61.6248 25.0225 62.3661 25.3286 63.2326 25.3286C64.0275 25.3286 64.7598 25.0314 65.4294 24.437ZM72.2489 19.1196V26H71.497V19.1196H69.6493V18.3677H74.0912V19.1196H72.2489ZM80.0998 21.9502C79.5591 21.7712 79.124 21.5187 78.7946 21.1929C78.4687 20.867 78.3058 20.4642 78.3058 19.9844C78.3058 19.5189 78.4723 19.1178 78.8053 18.7812C79.1419 18.4447 79.5483 18.2764 80.0246 18.2764C80.4936 18.2764 80.8983 18.4447 81.2384 18.7812C81.4211 18.9603 81.5679 19.2145 81.6789 19.5439L80.9914 19.8125C80.9054 19.5798 80.8087 19.4097 80.7013 19.3022C80.5151 19.116 80.2895 19.0229 80.0246 19.0229C79.7596 19.0229 79.5322 19.116 79.3424 19.3022C79.1562 19.4884 79.0631 19.7158 79.0631 19.9844C79.0631 20.2529 79.1562 20.4803 79.3424 20.6665C79.5322 20.8563 79.7972 21.0299 80.1374 21.1875C80.7425 21.3809 81.2545 21.687 81.6735 22.106C82.1247 22.5607 82.3503 23.1086 82.3503 23.7495C82.3503 24.394 82.1229 24.9455 81.6681 25.4038C81.2134 25.8586 80.6655 26.0859 80.0246 26.0859C79.3765 26.0859 78.8268 25.8568 78.3756 25.3984C78.0104 25.0332 77.7848 24.5623 77.6989 23.9858L78.424 23.728C78.4777 24.2257 78.637 24.6071 78.902 24.8721C79.2135 25.18 79.5877 25.334 80.0246 25.334C80.4614 25.334 80.8338 25.18 81.1418 24.8721C81.4533 24.5605 81.609 24.1864 81.609 23.7495C81.609 23.3162 81.4551 22.9438 81.1471 22.6323C80.8607 22.3459 80.5115 22.1185 80.0998 21.9502Z" fill="#CCA178"/>
</svg>
