<svg width="422" height="209" viewBox="0 0 422 209" fill="none" xmlns="http://www.w3.org/2000/svg">
<g opacity="0.8">
<g filter="url(#filter0_d_95_8133)">
<mask id="path-1-outside-1_95_8133" maskUnits="userSpaceOnUse" x="13.9053" y="36.6123" width="406" height="155" fill="black">
<rect fill="white" x="13.9053" y="36.6123" width="406" height="155"/>
<path d="M120.045 135.024V108.76H89.2726V135.024H53.2086L104.757 43.4923H70.8486L18.7126 136.2V160.308H89.2726V184.612H120.045V160.308H137.293V135.024H120.045ZM279.788 114.052C279.788 68.7763 254.504 40.9443 217.46 40.9443C180.22 40.9443 154.936 68.7763 154.936 114.052C154.936 159.132 180.22 187.16 217.46 187.16C254.504 187.16 279.788 159.132 279.788 114.052ZM247.448 114.052C247.448 147.764 239.02 160.112 217.46 160.112C195.704 160.112 187.276 147.764 187.276 114.052C187.276 80.3403 195.704 67.9923 217.46 67.9923C239.02 67.9923 247.448 80.3403 247.448 114.052ZM397.867 135.024V108.76H367.095V135.024H331.031L382.579 43.4923H348.671L296.535 136.2V160.308H367.095V184.612H397.867V160.308H415.115V135.024H397.867Z"/>
</mask>
<path d="M120.045 135.024V108.76H89.2726V135.024H53.2086L104.757 43.4923H70.8486L18.7126 136.2V160.308H89.2726V184.612H120.045V160.308H137.293V135.024H120.045ZM279.788 114.052C279.788 68.7763 254.504 40.9443 217.46 40.9443C180.22 40.9443 154.936 68.7763 154.936 114.052C154.936 159.132 180.22 187.16 217.46 187.16C254.504 187.16 279.788 159.132 279.788 114.052ZM247.448 114.052C247.448 147.764 239.02 160.112 217.46 160.112C195.704 160.112 187.276 147.764 187.276 114.052C187.276 80.3403 195.704 67.9923 217.46 67.9923C239.02 67.9923 247.448 80.3403 247.448 114.052ZM397.867 135.024V108.76H367.095V135.024H331.031L382.579 43.4923H348.671L296.535 136.2V160.308H367.095V184.612H397.867V160.308H415.115V135.024H397.867Z" fill="#4A230F"/>
<path d="M120.045 135.024H116.045V139.024H120.045V135.024ZM120.045 108.76H124.045V104.76H120.045V108.76ZM89.2726 108.76V104.76H85.2726V108.76H89.2726ZM89.2726 135.024V139.024H93.2726V135.024H89.2726ZM53.2086 135.024L49.7233 133.061L46.3652 139.024H53.2086V135.024ZM104.757 43.4923L108.242 45.4551L111.6 39.4923H104.757V43.4923ZM70.8486 43.4923V39.4923H68.5089L67.3621 41.5316L70.8486 43.4923ZM18.7126 136.2L15.2261 134.24L14.7126 135.153V136.2H18.7126ZM18.7126 160.308H14.7126V164.308H18.7126V160.308ZM89.2726 160.308H93.2726V156.308H89.2726V160.308ZM89.2726 184.612H85.2726V188.612H89.2726V184.612ZM120.045 184.612V188.612H124.045V184.612H120.045ZM120.045 160.308V156.308H116.045V160.308H120.045ZM137.293 160.308V164.308H141.293V160.308H137.293ZM137.293 135.024H141.293V131.024H137.293V135.024ZM124.045 135.024V108.76H116.045V135.024H124.045ZM120.045 104.76H89.2726V112.76H120.045V104.76ZM85.2726 108.76V135.024H93.2726V108.76H85.2726ZM89.2726 131.024H53.2086V139.024H89.2726V131.024ZM56.6939 136.987L108.242 45.4551L101.271 41.5295L49.7233 133.061L56.6939 136.987ZM104.757 39.4923H70.8486V47.4923H104.757V39.4923ZM67.3621 41.5316L15.2261 134.24L22.1991 138.161L74.3351 45.453L67.3621 41.5316ZM14.7126 136.2V160.308H22.7126V136.2H14.7126ZM18.7126 164.308H89.2726V156.308H18.7126V164.308ZM85.2726 160.308V184.612H93.2726V160.308H85.2726ZM89.2726 188.612H120.045V180.612H89.2726V188.612ZM124.045 184.612V160.308H116.045V184.612H124.045ZM120.045 164.308H137.293V156.308H120.045V164.308ZM141.293 160.308V135.024H133.293V160.308H141.293ZM137.293 131.024H120.045V139.024H137.293V131.024ZM283.788 114.052C283.788 90.6906 277.26 71.4055 265.536 57.8978C253.766 44.3375 237.048 36.9443 217.46 36.9443V44.9443C234.915 44.9443 249.361 51.4671 259.494 63.1418C269.673 74.8691 275.788 92.138 275.788 114.052H283.788ZM217.46 36.9443C197.779 36.9443 181.012 44.333 169.215 57.8945C157.463 71.4034 150.936 90.6906 150.936 114.052H158.936C158.936 92.138 165.05 74.8712 175.251 63.1451C185.405 51.4716 199.9 44.9443 217.46 44.9443V36.9443ZM150.936 114.052C150.936 137.32 157.465 156.604 169.212 170.134C181.005 183.716 197.771 191.16 217.46 191.16V183.16C199.909 183.16 185.412 176.59 175.253 164.889C165.048 153.135 158.936 135.865 158.936 114.052H150.936ZM217.46 191.16C237.057 191.16 253.773 183.712 265.538 170.13C277.258 156.602 283.788 137.32 283.788 114.052H275.788C275.788 135.865 269.675 153.137 259.492 164.892C249.354 176.595 234.906 183.16 217.46 183.16V191.16ZM243.448 114.052C243.448 130.791 241.311 141.271 237.197 147.526C233.379 153.331 227.409 156.112 217.46 156.112V164.112C229.07 164.112 238.094 160.72 243.881 151.922C249.37 143.576 251.448 131.025 251.448 114.052H243.448ZM217.46 156.112C207.398 156.112 201.382 153.322 197.546 147.518C193.413 141.267 191.276 130.793 191.276 114.052H183.276C183.276 131.024 185.352 143.58 190.872 151.93C196.689 160.729 205.765 164.112 217.46 164.112V156.112ZM191.276 114.052C191.276 97.3117 193.413 86.8377 197.546 80.5862C201.382 74.7828 207.398 71.9923 217.46 71.9923V63.9923C205.765 63.9923 196.689 67.3758 190.872 76.1744C185.352 84.5249 183.276 97.0809 183.276 114.052H191.276ZM217.46 71.9923C227.409 71.9923 233.379 74.7741 237.197 80.5784C241.311 86.8335 243.448 97.3133 243.448 114.052H251.448C251.448 97.0793 249.37 84.5291 243.881 76.1822C238.094 67.3845 229.07 63.9923 217.46 63.9923V71.9923ZM397.867 135.024H393.867V139.024H397.867V135.024ZM397.867 108.76H401.867V104.76H397.867V108.76ZM367.095 108.76V104.76H363.095V108.76H367.095ZM367.095 135.024V139.024H371.095V135.024H367.095ZM331.031 135.024L327.546 133.061L324.188 139.024H331.031V135.024ZM382.579 43.4923L386.064 45.4551L389.422 39.4923H382.579V43.4923ZM348.671 43.4923V39.4923H346.331L345.184 41.5316L348.671 43.4923ZM296.535 136.2L293.048 134.24L292.535 135.153V136.2H296.535ZM296.535 160.308H292.535V164.308H296.535V160.308ZM367.095 160.308H371.095V156.308H367.095V160.308ZM367.095 184.612H363.095V188.612H367.095V184.612ZM397.867 184.612V188.612H401.867V184.612H397.867ZM397.867 160.308V156.308H393.867V160.308H397.867ZM415.115 160.308V164.308H419.115V160.308H415.115ZM415.115 135.024H419.115V131.024H415.115V135.024ZM401.867 135.024V108.76H393.867V135.024H401.867ZM397.867 104.76H367.095V112.76H397.867V104.76ZM363.095 108.76V135.024H371.095V108.76H363.095ZM367.095 131.024H331.031V139.024H367.095V131.024ZM334.516 136.987L386.064 45.4551L379.094 41.5295L327.546 133.061L334.516 136.987ZM382.579 39.4923H348.671V47.4923H382.579V39.4923ZM345.184 41.5316L293.048 134.24L300.021 138.161L352.157 45.453L345.184 41.5316ZM292.535 136.2V160.308H300.535V136.2H292.535ZM296.535 164.308H367.095V156.308H296.535V164.308ZM363.095 160.308V184.612H371.095V160.308H363.095ZM367.095 188.612H397.867V180.612H367.095V188.612ZM401.867 184.612V160.308H393.867V184.612H401.867ZM397.867 164.308H415.115V156.308H397.867V164.308ZM419.115 160.308V135.024H411.115V160.308H419.115ZM415.115 131.024H397.867V139.024H415.115V131.024Z" fill="#221102" mask="url(#path-1-outside-1_95_8133)"/>
</g>
<g filter="url(#filter1_d_95_8133)">
<mask id="path-3-outside-2_95_8133" maskUnits="userSpaceOnUse" x="9.36523" y="30" width="406" height="155" fill="black">
<rect fill="white" x="9.36523" y="30" width="406" height="155"/>
<path d="M115.505 128.412V102.148H84.7325V128.412H48.6685L100.217 36.88H66.3085L14.1725 129.588V153.696H84.7325V178H115.505V153.696H132.753V128.412H115.505ZM275.248 107.44C275.248 62.164 249.964 34.332 212.92 34.332C175.68 34.332 150.396 62.164 150.396 107.44C150.396 152.52 175.68 180.548 212.92 180.548C249.964 180.548 275.248 152.52 275.248 107.44ZM242.908 107.44C242.908 141.152 234.48 153.5 212.92 153.5C191.164 153.5 182.736 141.152 182.736 107.44C182.736 73.728 191.164 61.38 212.92 61.38C234.48 61.38 242.908 73.728 242.908 107.44ZM393.327 128.412V102.148H362.555V128.412H326.491L378.039 36.88H344.131L291.995 129.588V153.696H362.555V178H393.327V153.696H410.575V128.412H393.327Z"/>
</mask>
<path d="M115.505 128.412V102.148H84.7325V128.412H48.6685L100.217 36.88H66.3085L14.1725 129.588V153.696H84.7325V178H115.505V153.696H132.753V128.412H115.505ZM275.248 107.44C275.248 62.164 249.964 34.332 212.92 34.332C175.68 34.332 150.396 62.164 150.396 107.44C150.396 152.52 175.68 180.548 212.92 180.548C249.964 180.548 275.248 152.52 275.248 107.44ZM242.908 107.44C242.908 141.152 234.48 153.5 212.92 153.5C191.164 153.5 182.736 141.152 182.736 107.44C182.736 73.728 191.164 61.38 212.92 61.38C234.48 61.38 242.908 73.728 242.908 107.44ZM393.327 128.412V102.148H362.555V128.412H326.491L378.039 36.88H344.131L291.995 129.588V153.696H362.555V178H393.327V153.696H410.575V128.412H393.327Z" fill="#4A230F"/>
<path d="M115.505 128.412H111.505V132.412H115.505V128.412ZM115.505 102.148H119.505V98.148H115.505V102.148ZM84.7325 102.148V98.148H80.7325V102.148H84.7325ZM84.7325 128.412V132.412H88.7325V128.412H84.7325ZM48.6685 128.412L45.1832 126.449L41.8251 132.412H48.6685V128.412ZM100.217 36.88L103.702 38.8428L107.06 32.88H100.217V36.88ZM66.3085 36.88V32.88H63.9689L62.822 34.9193L66.3085 36.88ZM14.1725 129.588L10.686 127.627L10.1725 128.54V129.588H14.1725ZM14.1725 153.696H10.1725V157.696H14.1725V153.696ZM84.7325 153.696H88.7325V149.696H84.7325V153.696ZM84.7325 178H80.7325V182H84.7325V178ZM115.505 178V182H119.505V178H115.505ZM115.505 153.696V149.696H111.505V153.696H115.505ZM132.753 153.696V157.696H136.753V153.696H132.753ZM132.753 128.412H136.753V124.412H132.753V128.412ZM119.505 128.412V102.148H111.505V128.412H119.505ZM115.505 98.148H84.7325V106.148H115.505V98.148ZM80.7325 102.148V128.412H88.7325V102.148H80.7325ZM84.7325 124.412H48.6685V132.412H84.7325V124.412ZM52.1538 130.375L103.702 38.8428L96.7312 34.9172L45.1832 126.449L52.1538 130.375ZM100.217 32.88H66.3085V40.88H100.217V32.88ZM62.822 34.9193L10.686 127.627L17.659 131.549L69.795 38.8407L62.822 34.9193ZM10.1725 129.588V153.696H18.1725V129.588H10.1725ZM14.1725 157.696H84.7325V149.696H14.1725V157.696ZM80.7325 153.696V178H88.7325V153.696H80.7325ZM84.7325 182H115.505V174H84.7325V182ZM119.505 178V153.696H111.505V178H119.505ZM115.505 157.696H132.753V149.696H115.505V157.696ZM136.753 153.696V128.412H128.753V153.696H136.753ZM132.753 124.412H115.505V132.412H132.753V124.412ZM279.248 107.44C279.248 84.0783 272.72 64.7932 260.996 51.2855C249.226 37.7252 232.508 30.332 212.92 30.332V38.332C230.375 38.332 244.821 44.8547 254.954 56.5294C265.133 68.2568 271.248 85.5257 271.248 107.44H279.248ZM212.92 30.332C193.239 30.332 176.472 37.7207 164.675 51.2822C152.923 64.7911 146.396 84.0783 146.396 107.44H154.396C154.396 85.5257 160.51 68.2589 170.711 56.5328C180.865 44.8593 195.36 38.332 212.92 38.332V30.332ZM146.396 107.44C146.396 130.707 152.925 149.991 164.672 163.521C176.465 177.104 193.231 184.548 212.92 184.548V176.548C195.369 176.548 180.872 169.978 170.713 158.277C160.508 146.523 154.396 129.253 154.396 107.44H146.396ZM212.92 184.548C232.517 184.548 249.233 177.099 260.998 163.518C272.718 149.989 279.248 130.707 279.248 107.44H271.248C271.248 129.253 265.135 146.525 254.952 158.28C244.814 169.983 230.366 176.548 212.92 176.548V184.548ZM238.908 107.44C238.908 124.179 236.771 134.659 232.657 140.914C228.839 146.718 222.869 149.5 212.92 149.5V157.5C224.53 157.5 233.554 154.108 239.341 145.31C244.83 136.963 246.908 124.413 246.908 107.44H238.908ZM212.92 149.5C202.858 149.5 196.842 146.709 193.006 140.906C188.873 134.655 186.736 124.181 186.736 107.44H178.736C178.736 124.411 180.812 136.967 186.332 145.318C192.149 154.117 201.225 157.5 212.92 157.5V149.5ZM186.736 107.44C186.736 90.6994 188.873 80.2254 193.006 73.9739C196.842 68.1705 202.858 65.38 212.92 65.38V57.38C201.225 57.38 192.149 60.7635 186.332 69.5621C180.812 77.9126 178.736 90.4686 178.736 107.44H186.736ZM212.92 65.38C222.869 65.38 228.839 68.1618 232.657 73.966C236.771 80.2212 238.908 90.701 238.908 107.44H246.908C246.908 90.467 244.83 77.9168 239.341 69.5699C233.554 60.7722 224.53 57.38 212.92 57.38V65.38ZM393.327 128.412H389.327V132.412H393.327V128.412ZM393.327 102.148H397.327V98.148H393.327V102.148ZM362.555 102.148V98.148H358.555V102.148H362.555ZM362.555 128.412V132.412H366.555V128.412H362.555ZM326.491 128.412L323.006 126.449L319.648 132.412H326.491V128.412ZM378.039 36.88L381.524 38.8428L384.882 32.88H378.039V36.88ZM344.131 36.88V32.88H341.791L340.644 34.9193L344.131 36.88ZM291.995 129.588L288.508 127.627L287.995 128.54V129.588H291.995ZM291.995 153.696H287.995V157.696H291.995V153.696ZM362.555 153.696H366.555V149.696H362.555V153.696ZM362.555 178H358.555V182H362.555V178ZM393.327 178V182H397.327V178H393.327ZM393.327 153.696V149.696H389.327V153.696H393.327ZM410.575 153.696V157.696H414.575V153.696H410.575ZM410.575 128.412H414.575V124.412H410.575V128.412ZM397.327 128.412V102.148H389.327V128.412H397.327ZM393.327 98.148H362.555V106.148H393.327V98.148ZM358.555 102.148V128.412H366.555V102.148H358.555ZM362.555 124.412H326.491V132.412H362.555V124.412ZM329.976 130.375L381.524 38.8428L374.554 34.9172L323.006 126.449L329.976 130.375ZM378.039 32.88H344.131V40.88H378.039V32.88ZM340.644 34.9193L288.508 127.627L295.481 131.549L347.617 38.8407L340.644 34.9193ZM287.995 129.588V153.696H295.995V129.588H287.995ZM291.995 157.696H362.555V149.696H291.995V157.696ZM358.555 153.696V178H366.555V153.696H358.555ZM362.555 182H393.327V174H362.555V182ZM397.327 178V153.696H389.327V178H397.327ZM393.327 157.696H410.575V149.696H393.327V157.696ZM414.575 153.696V128.412H406.575V153.696H414.575ZM410.575 124.412H393.327V132.412H410.575V124.412Z" fill="#221102" mask="url(#path-3-outside-2_95_8133)"/>
</g>
</g>
<g filter="url(#filter2_d_95_8133)">
<mask id="path-5-outside-3_95_8133" maskUnits="userSpaceOnUse" x="3" y="24" width="406" height="155" fill="black">
<rect fill="white" x="3" y="24" width="406" height="155"/>
<path d="M109.139 122.412V96.148H78.3673V122.412H42.3033L93.8513 30.88H59.9433L7.80729 123.588V147.696H78.3673V172H109.139V147.696H126.387V122.412H109.139ZM268.882 101.44C268.882 56.164 243.598 28.332 206.554 28.332C169.314 28.332 144.03 56.164 144.03 101.44C144.03 146.52 169.314 174.548 206.554 174.548C243.598 174.548 268.882 146.52 268.882 101.44ZM236.542 101.44C236.542 135.152 228.114 147.5 206.554 147.5C184.798 147.5 176.37 135.152 176.37 101.44C176.37 67.728 184.798 55.38 206.554 55.38C228.114 55.38 236.542 67.728 236.542 101.44ZM386.962 122.412V96.148H356.19V122.412H320.126L371.674 30.88H337.766L285.63 123.588V147.696H356.19V172H386.962V147.696H404.21V122.412H386.962Z"/>
</mask>
<path d="M109.139 122.412V96.148H78.3673V122.412H42.3033L93.8513 30.88H59.9433L7.80729 123.588V147.696H78.3673V172H109.139V147.696H126.387V122.412H109.139ZM268.882 101.44C268.882 56.164 243.598 28.332 206.554 28.332C169.314 28.332 144.03 56.164 144.03 101.44C144.03 146.52 169.314 174.548 206.554 174.548C243.598 174.548 268.882 146.52 268.882 101.44ZM236.542 101.44C236.542 135.152 228.114 147.5 206.554 147.5C184.798 147.5 176.37 135.152 176.37 101.44C176.37 67.728 184.798 55.38 206.554 55.38C228.114 55.38 236.542 67.728 236.542 101.44ZM386.962 122.412V96.148H356.19V122.412H320.126L371.674 30.88H337.766L285.63 123.588V147.696H356.19V172H386.962V147.696H404.21V122.412H386.962Z" fill="#592104"/>
<path d="M109.139 122.412H105.139V126.412H109.139V122.412ZM109.139 96.148H113.139V92.148H109.139V96.148ZM78.3673 96.148V92.148H74.3673V96.148H78.3673ZM78.3673 122.412V126.412H82.3673V122.412H78.3673ZM42.3033 122.412L38.818 120.449L35.4599 126.412H42.3033V122.412ZM93.8513 30.88L97.3366 32.8428L100.695 26.88H93.8513V30.88ZM59.9433 30.88V26.88H57.6036L56.4568 28.9193L59.9433 30.88ZM7.80729 123.588L4.32079 121.627L3.80729 122.54V123.588H7.80729ZM7.80729 147.696H3.80729V151.696H7.80729V147.696ZM78.3673 147.696H82.3673V143.696H78.3673V147.696ZM78.3673 172H74.3673V176H78.3673V172ZM109.139 172V176H113.139V172H109.139ZM109.139 147.696V143.696H105.139V147.696H109.139ZM126.387 147.696V151.696H130.387V147.696H126.387ZM126.387 122.412H130.387V118.412H126.387V122.412ZM113.139 122.412V96.148H105.139V122.412H113.139ZM109.139 92.148H78.3673V100.148H109.139V92.148ZM74.3673 96.148V122.412H82.3673V96.148H74.3673ZM78.3673 118.412H42.3033V126.412H78.3673V118.412ZM45.7886 124.375L97.3366 32.8428L90.366 28.9172L38.818 120.449L45.7886 124.375ZM93.8513 26.88H59.9433V34.88H93.8513V26.88ZM56.4568 28.9193L4.32079 121.627L11.2938 125.549L63.4298 32.8407L56.4568 28.9193ZM3.80729 123.588V147.696H11.8073V123.588H3.80729ZM7.80729 151.696H78.3673V143.696H7.80729V151.696ZM74.3673 147.696V172H82.3673V147.696H74.3673ZM78.3673 176H109.139V168H78.3673V176ZM113.139 172V147.696H105.139V172H113.139ZM109.139 151.696H126.387V143.696H109.139V151.696ZM130.387 147.696V122.412H122.387V147.696H130.387ZM126.387 118.412H109.139V126.412H126.387V118.412ZM272.882 101.44C272.882 78.0783 266.355 58.7932 254.631 45.2855C242.861 31.7252 226.143 24.332 206.554 24.332V32.332C224.01 32.332 238.456 38.8547 248.589 50.5294C258.768 62.2568 264.882 79.5257 264.882 101.44H272.882ZM206.554 24.332C186.874 24.332 170.107 31.7207 158.309 45.2822C146.558 58.7911 140.03 78.0783 140.03 101.44H148.03C148.03 79.5257 154.145 62.2589 164.345 50.5328C174.5 38.8593 188.995 32.332 206.554 32.332V24.332ZM140.03 101.44C140.03 124.707 146.56 143.991 158.307 157.521C170.1 171.104 186.865 178.548 206.554 178.548V170.548C189.003 170.548 174.507 163.978 164.348 152.277C154.143 140.523 148.03 123.253 148.03 101.44H140.03ZM206.554 178.548C226.152 178.548 242.868 171.099 254.633 157.518C266.353 143.989 272.882 124.707 272.882 101.44H264.882C264.882 123.253 258.77 140.525 248.587 152.28C238.449 163.983 224.001 170.548 206.554 170.548V178.548ZM232.542 101.44C232.542 118.179 230.406 128.659 226.291 134.914C222.474 140.718 216.504 143.5 206.554 143.5V151.5C218.165 151.5 227.189 148.108 232.975 139.31C238.465 130.963 240.542 118.413 240.542 101.44H232.542ZM206.554 143.5C196.493 143.5 190.477 140.709 186.641 134.906C182.508 128.655 180.37 118.181 180.37 101.44H172.37C172.37 118.411 174.447 130.967 179.967 139.318C185.784 148.117 194.86 151.5 206.554 151.5V143.5ZM180.37 101.44C180.37 84.6994 182.508 74.2254 186.641 67.9739C190.477 62.1705 196.493 59.38 206.554 59.38V51.38C194.86 51.38 185.784 54.7635 179.967 63.5621C174.447 71.9126 172.37 84.4686 172.37 101.44H180.37ZM206.554 59.38C216.504 59.38 222.474 62.1618 226.291 67.966C230.406 74.2212 232.542 84.701 232.542 101.44H240.542C240.542 84.467 238.465 71.9168 232.975 63.5699C227.189 54.7722 218.165 51.38 206.554 51.38V59.38ZM386.962 122.412H382.962V126.412H386.962V122.412ZM386.962 96.148H390.962V92.148H386.962V96.148ZM356.19 96.148V92.148H352.19V96.148H356.19ZM356.19 122.412V126.412H360.19V122.412H356.19ZM320.126 122.412L316.64 120.449L313.282 126.412H320.126V122.412ZM371.674 30.88L375.159 32.8428L378.517 26.88H371.674V30.88ZM337.766 30.88V26.88H335.426L334.279 28.9193L337.766 30.88ZM285.63 123.588L282.143 121.627L281.63 122.54V123.588H285.63ZM285.63 147.696H281.63V151.696H285.63V147.696ZM356.19 147.696H360.19V143.696H356.19V147.696ZM356.19 172H352.19V176H356.19V172ZM386.962 172V176H390.962V172H386.962ZM386.962 147.696V143.696H382.962V147.696H386.962ZM404.21 147.696V151.696H408.21V147.696H404.21ZM404.21 122.412H408.21V118.412H404.21V122.412ZM390.962 122.412V96.148H382.962V122.412H390.962ZM386.962 92.148H356.19V100.148H386.962V92.148ZM352.19 96.148V122.412H360.19V96.148H352.19ZM356.19 118.412H320.126V126.412H356.19V118.412ZM323.611 124.375L375.159 32.8428L368.188 28.9172L316.64 120.449L323.611 124.375ZM371.674 26.88H337.766V34.88H371.674V26.88ZM334.279 28.9193L282.143 121.627L289.116 125.549L341.252 32.8407L334.279 28.9193ZM281.63 123.588V147.696H289.63V123.588H281.63ZM285.63 151.696H356.19V143.696H285.63V151.696ZM352.19 147.696V172H360.19V147.696H352.19ZM356.19 176H386.962V168H356.19V176ZM390.962 172V147.696H382.962V172H390.962ZM386.962 151.696H404.21V143.696H386.962V151.696ZM408.21 147.696V122.412H400.21V147.696H408.21ZM404.21 118.412H386.962V126.412H404.21V118.412Z" fill="#93390B" mask="url(#path-5-outside-3_95_8133)"/>
</g>
<g style="mix-blend-mode:hard-light" filter="url(#filter3_f_95_8133)">
<mask id="path-7-outside-4_95_8133" maskUnits="userSpaceOnUse" x="1" y="20" width="406" height="155" fill="black">
<rect fill="white" x="1" y="20" width="406" height="155"/>
<path d="M107.139 118.412V92.148H76.3673V118.412H40.3033L91.8513 26.88H57.9433L5.80729 119.588V143.696H76.3673V168H107.139V143.696H124.387V118.412H107.139ZM266.882 97.44C266.882 52.164 241.598 24.332 204.554 24.332C167.314 24.332 142.03 52.164 142.03 97.44C142.03 142.52 167.314 170.548 204.554 170.548C241.598 170.548 266.882 142.52 266.882 97.44ZM234.542 97.44C234.542 131.152 226.114 143.5 204.554 143.5C182.798 143.5 174.37 131.152 174.37 97.44C174.37 63.728 182.798 51.38 204.554 51.38C226.114 51.38 234.542 63.728 234.542 97.44ZM384.962 118.412V92.148H354.19V118.412H318.126L369.674 26.88H335.766L283.63 119.588V143.696H354.19V168H384.962V143.696H402.21V118.412H384.962Z"/>
</mask>
<path d="M107.139 118.412V92.148H76.3673V118.412H40.3033L91.8513 26.88H57.9433L5.80729 119.588V143.696H76.3673V168H107.139V143.696H124.387V118.412H107.139ZM266.882 97.44C266.882 52.164 241.598 24.332 204.554 24.332C167.314 24.332 142.03 52.164 142.03 97.44C142.03 142.52 167.314 170.548 204.554 170.548C241.598 170.548 266.882 142.52 266.882 97.44ZM234.542 97.44C234.542 131.152 226.114 143.5 204.554 143.5C182.798 143.5 174.37 131.152 174.37 97.44C174.37 63.728 182.798 51.38 204.554 51.38C226.114 51.38 234.542 63.728 234.542 97.44ZM384.962 118.412V92.148H354.19V118.412H318.126L369.674 26.88H335.766L283.63 119.588V143.696H354.19V168H384.962V143.696H402.21V118.412H384.962Z" fill="#FDC05A"/>
<path d="M107.139 118.412H103.139V122.412H107.139V118.412ZM107.139 92.148H111.139V88.148H107.139V92.148ZM76.3673 92.148V88.148H72.3673V92.148H76.3673ZM76.3673 118.412V122.412H80.3673V118.412H76.3673ZM40.3033 118.412L36.818 116.449L33.4599 122.412H40.3033V118.412ZM91.8513 26.88L95.3366 28.8428L98.6947 22.88H91.8513V26.88ZM57.9433 26.88V22.88H55.6036L54.4568 24.9193L57.9433 26.88ZM5.80729 119.588L2.32079 117.627L1.80729 118.54V119.588H5.80729ZM5.80729 143.696H1.80729V147.696H5.80729V143.696ZM76.3673 143.696H80.3673V139.696H76.3673V143.696ZM76.3673 168H72.3673V172H76.3673V168ZM107.139 168V172H111.139V168H107.139ZM107.139 143.696V139.696H103.139V143.696H107.139ZM124.387 143.696V147.696H128.387V143.696H124.387ZM124.387 118.412H128.387V114.412H124.387V118.412ZM111.139 118.412V92.148H103.139V118.412H111.139ZM107.139 88.148H76.3673V96.148H107.139V88.148ZM72.3673 92.148V118.412H80.3673V92.148H72.3673ZM76.3673 114.412H40.3033V122.412H76.3673V114.412ZM43.7886 120.375L95.3366 28.8428L88.366 24.9172L36.818 116.449L43.7886 120.375ZM91.8513 22.88H57.9433V30.88H91.8513V22.88ZM54.4568 24.9193L2.32079 117.627L9.29379 121.549L61.4298 28.8407L54.4568 24.9193ZM1.80729 119.588V143.696H9.80729V119.588H1.80729ZM5.80729 147.696H76.3673V139.696H5.80729V147.696ZM72.3673 143.696V168H80.3673V143.696H72.3673ZM76.3673 172H107.139V164H76.3673V172ZM111.139 168V143.696H103.139V168H111.139ZM107.139 147.696H124.387V139.696H107.139V147.696ZM128.387 143.696V118.412H120.387V143.696H128.387ZM124.387 114.412H107.139V122.412H124.387V114.412ZM270.882 97.44C270.882 74.0783 264.355 54.7932 252.631 41.2855C240.861 27.7252 224.143 20.332 204.554 20.332V28.332C222.01 28.332 236.456 34.8547 246.589 46.5294C256.768 58.2568 262.882 75.5257 262.882 97.44H270.882ZM204.554 20.332C184.874 20.332 168.107 27.7207 156.309 41.2822C144.558 54.7911 138.03 74.0783 138.03 97.44H146.03C146.03 75.5257 152.145 58.2589 162.345 46.5328C172.5 34.8593 186.995 28.332 204.554 28.332V20.332ZM138.03 97.44C138.03 120.707 144.56 139.991 156.307 153.521C168.1 167.104 184.865 174.548 204.554 174.548V166.548C187.003 166.548 172.507 159.978 162.348 148.277C152.143 136.523 146.03 119.253 146.03 97.44H138.03ZM204.554 174.548C224.152 174.548 240.868 167.099 252.633 153.518C264.353 139.989 270.882 120.707 270.882 97.44H262.882C262.882 119.253 256.77 136.525 246.587 148.28C236.449 159.983 222.001 166.548 204.554 166.548V174.548ZM230.542 97.44C230.542 114.179 228.406 124.659 224.291 130.914C220.474 136.718 214.504 139.5 204.554 139.5V147.5C216.165 147.5 225.189 144.108 230.975 135.31C236.465 126.963 238.542 114.413 238.542 97.44H230.542ZM204.554 139.5C194.493 139.5 188.477 136.709 184.641 130.906C180.508 124.655 178.37 114.181 178.37 97.44H170.37C170.37 114.411 172.447 126.967 177.967 135.318C183.784 144.117 192.86 147.5 204.554 147.5V139.5ZM178.37 97.44C178.37 80.6994 180.508 70.2254 184.641 63.9739C188.477 58.1705 194.493 55.38 204.554 55.38V47.38C192.86 47.38 183.784 50.7635 177.967 59.5621C172.447 67.9126 170.37 80.4686 170.37 97.44H178.37ZM204.554 55.38C214.504 55.38 220.474 58.1618 224.291 63.966C228.406 70.2212 230.542 80.701 230.542 97.44H238.542C238.542 80.467 236.465 67.9168 230.975 59.5699C225.189 50.7722 216.165 47.38 204.554 47.38V55.38ZM384.962 118.412H380.962V122.412H384.962V118.412ZM384.962 92.148H388.962V88.148H384.962V92.148ZM354.19 92.148V88.148H350.19V92.148H354.19ZM354.19 118.412V122.412H358.19V118.412H354.19ZM318.126 118.412L314.64 116.449L311.282 122.412H318.126V118.412ZM369.674 26.88L373.159 28.8428L376.517 22.88H369.674V26.88ZM335.766 26.88V22.88H333.426L332.279 24.9193L335.766 26.88ZM283.63 119.588L280.143 117.627L279.63 118.54V119.588H283.63ZM283.63 143.696H279.63V147.696H283.63V143.696ZM354.19 143.696H358.19V139.696H354.19V143.696ZM354.19 168H350.19V172H354.19V168ZM384.962 168V172H388.962V168H384.962ZM384.962 143.696V139.696H380.962V143.696H384.962ZM402.21 143.696V147.696H406.21V143.696H402.21ZM402.21 118.412H406.21V114.412H402.21V118.412ZM388.962 118.412V92.148H380.962V118.412H388.962ZM384.962 88.148H354.19V96.148H384.962V88.148ZM350.19 92.148V118.412H358.19V92.148H350.19ZM354.19 114.412H318.126V122.412H354.19V114.412ZM321.611 120.375L373.159 28.8428L366.188 24.9172L314.64 116.449L321.611 120.375ZM369.674 22.88H335.766V30.88H369.674V22.88ZM332.279 24.9193L280.143 117.627L287.116 121.549L339.252 28.8407L332.279 24.9193ZM279.63 119.588V143.696H287.63V119.588H279.63ZM283.63 147.696H354.19V139.696H283.63V147.696ZM350.19 143.696V168H358.19V143.696H350.19ZM354.19 172H384.962V164H354.19V172ZM388.962 168V143.696H380.962V168H388.962ZM384.962 147.696H402.21V139.696H384.962V147.696ZM406.21 143.696V118.412H398.21V143.696H406.21ZM402.21 114.412H384.962V122.412H402.21V114.412Z" fill="#FDC05A" mask="url(#path-7-outside-4_95_8133)"/>
</g>
<defs>
<filter id="filter0_d_95_8133" x="17.7129" y="40.9443" width="400.402" height="151.216" filterUnits="userSpaceOnUse" color-interpolation-filters="sRGB">
<feFlood flood-opacity="0" result="BackgroundImageFix"/>
<feColorMatrix in="SourceAlpha" type="matrix" values="0 0 0 0 0 0 0 0 0 0 0 0 0 0 0 0 0 0 127 0" result="hardAlpha"/>
<feOffset dx="1" dy="3"/>
<feGaussianBlur stdDeviation="1"/>
<feComposite in2="hardAlpha" operator="out"/>
<feColorMatrix type="matrix" values="0 0 0 0 0 0 0 0 0 0 0 0 0 0 0 0 0 0 0.45 0"/>
<feBlend mode="overlay" in2="BackgroundImageFix" result="effect1_dropShadow_95_8133"/>
<feBlend mode="normal" in="SourceGraphic" in2="effect1_dropShadow_95_8133" result="shape"/>
</filter>
<filter id="filter1_d_95_8133" x="13.1729" y="34.332" width="400.402" height="151.216" filterUnits="userSpaceOnUse" color-interpolation-filters="sRGB">
<feFlood flood-opacity="0" result="BackgroundImageFix"/>
<feColorMatrix in="SourceAlpha" type="matrix" values="0 0 0 0 0 0 0 0 0 0 0 0 0 0 0 0 0 0 127 0" result="hardAlpha"/>
<feOffset dx="1" dy="3"/>
<feGaussianBlur stdDeviation="1"/>
<feComposite in2="hardAlpha" operator="out"/>
<feColorMatrix type="matrix" values="0 0 0 0 0 0 0 0 0 0 0 0 0 0 0 0 0 0 0.45 0"/>
<feBlend mode="overlay" in2="BackgroundImageFix" result="effect1_dropShadow_95_8133"/>
<feBlend mode="normal" in="SourceGraphic" in2="effect1_dropShadow_95_8133" result="shape"/>
</filter>
<filter id="filter2_d_95_8133" x="6.80762" y="28.332" width="400.402" height="151.216" filterUnits="userSpaceOnUse" color-interpolation-filters="sRGB">
<feFlood flood-opacity="0" result="BackgroundImageFix"/>
<feColorMatrix in="SourceAlpha" type="matrix" values="0 0 0 0 0 0 0 0 0 0 0 0 0 0 0 0 0 0 127 0" result="hardAlpha"/>
<feOffset dx="1" dy="3"/>
<feGaussianBlur stdDeviation="1"/>
<feComposite in2="hardAlpha" operator="out"/>
<feColorMatrix type="matrix" values="0 0 0 0 0 0 0 0 0 0 0 0 0 0 0 0 0 0 0.45 0"/>
<feBlend mode="overlay" in2="BackgroundImageFix" result="effect1_dropShadow_95_8133"/>
<feBlend mode="normal" in="SourceGraphic" in2="effect1_dropShadow_95_8133" result="shape"/>
</filter>
<filter id="filter3_f_95_8133" x="4.80762" y="23.332" width="398.402" height="148.216" filterUnits="userSpaceOnUse" color-interpolation-filters="sRGB">
<feFlood flood-opacity="0" result="BackgroundImageFix"/>
<feBlend mode="normal" in="SourceGraphic" in2="BackgroundImageFix" result="shape"/>
<feGaussianBlur stdDeviation="0.5" result="effect1_foregroundBlur_95_8133"/>
</filter>
</defs>
</svg>
