<svg width="31" height="31" viewBox="0 0 31 31" fill="none" xmlns="http://www.w3.org/2000/svg">
<path d="M29.2845 0C29.7554 0 30.1591 0.168186 30.4954 0.504557C30.8318 0.840929 31 1.24457 31 1.71549V29.2845C31 29.7554 30.8318 30.1591 30.4954 30.4954C30.1591 30.8318 29.7554 31 29.2845 31H21.3932V18.9915H25.4095L26.015 14.3092H21.3932V11.3223C21.3932 10.5688 21.5513 10.0037 21.8675 9.62695C22.1837 9.25022 22.7993 9.06185 23.7142 9.06185L26.1764 9.04167V4.86393C25.3288 4.74284 24.1313 4.68229 22.584 4.68229C20.7541 4.68229 19.2909 5.22049 18.1943 6.29688C17.0978 7.37326 16.5495 8.89366 16.5495 10.8581V14.3092H12.513V18.9915H16.5495V31H1.71549C1.24457 31 0.840929 30.8318 0.504557 30.4954C0.168186 30.1591 0 29.7554 0 29.2845V1.71549C0 1.24457 0.168186 0.840929 0.504557 0.504557C0.840929 0.168186 1.24457 0 1.71549 0H29.2845Z" fill="#FDC05A"/>
</svg>
