<svg width="126" height="35" viewBox="0 0 126 35" fill="none" xmlns="http://www.w3.org/2000/svg">
<g clip-path="url(#clip0_212_590)">
<path d="M18.148 9.61843L13.416 16.1276L13.0217 16.5075L12.6252 16.1276L7.89537 9.61843C7.48956 9.07407 7.32045 8.39861 7.42406 7.73593C7.52766 7.07324 7.89579 6.47571 8.45004 6.0706L8.48687 6.04347C8.9074 5.76907 9.39008 5.59574 9.89448 5.53801C10.3989 5.48027 10.9103 5.53982 11.3859 5.71165C11.9781 5.92413 12.5306 6.22791 13.0217 6.61113C13.5128 6.22791 14.0653 5.92413 14.6575 5.71165C15.1322 5.54053 15.6424 5.48136 16.1456 5.53909C16.6489 5.59682 17.1304 5.76977 17.55 6.04347L17.5847 6.06643C18.1415 6.4704 18.5122 7.06816 18.6175 7.73191C18.7227 8.39567 18.5543 9.07276 18.148 9.61843Z" fill="white"/>
<path d="M7.01357 10.0588L11.9796 16.4031L12.2331 16.8831L11.7347 17.1273L3.84591 19.4501C3.18288 19.6531 2.46377 19.5987 1.84175 19.2985C1.21973 18.9984 0.743951 18.4762 0.515741 17.8431L0.502741 17.8035C0.361439 17.3339 0.339046 16.8385 0.437436 16.3588C0.535827 15.8791 0.752137 15.4292 1.06824 15.0466C1.45982 14.5694 1.92967 14.157 2.45924 13.8257C2.23384 13.2566 2.10508 12.6562 2.07791 12.0477C2.05657 11.5592 2.15673 11.0729 2.37004 10.6293C2.58336 10.1857 2.90366 9.79761 3.30424 9.49739L3.33891 9.47235C3.90996 9.08956 4.61361 8.93665 5.29998 9.04619C5.98635 9.15572 6.6012 9.51905 7.01357 10.0588Z" fill="white"/>
<path d="M4.27703 20.3245L12.077 17.7367L12.6295 17.6511L12.7184 18.1833L12.5667 26.1283C12.5618 26.7986 12.2855 27.4405 11.7967 27.9176C11.3079 28.3947 10.6451 28.6692 9.94936 28.6828H9.90819C9.40169 28.6663 8.90666 28.5332 8.46451 28.2946C8.02235 28.0561 7.64592 27.719 7.36669 27.3116C7.01477 26.8064 6.75196 26.2486 6.58886 25.6609C5.95724 25.6894 5.32501 25.6189 4.71686 25.4522C4.22775 25.3208 3.77831 25.0788 3.40595 24.7463C3.0336 24.4138 2.74911 24.0004 2.57619 23.5405L2.56103 23.5009C2.36229 22.8604 2.4303 22.1706 2.75064 21.5777C3.07097 20.9847 3.61846 20.5352 4.27703 20.3245Z" fill="white"/>
<path d="M13.4679 26.1325L13.3228 18.1875L13.4094 17.6553L13.9619 17.7409L21.7619 20.3287C22.4224 20.5394 22.9713 20.9903 23.2914 21.5852C23.6116 22.1802 23.6778 22.8721 23.4758 23.5134L23.4606 23.553C23.2881 24.0125 23.0039 24.4256 22.6319 24.7578C22.2599 25.09 21.8108 25.3316 21.3221 25.4626C20.7141 25.6302 20.0817 25.7007 19.4501 25.6713C19.2856 26.2589 19.0237 26.817 18.6744 27.3242C18.3939 27.7316 18.0163 28.0685 17.573 28.3067C17.1297 28.5449 16.6337 28.6774 16.1264 28.6932H16.0831C15.3864 28.6796 14.7229 28.4041 14.2343 27.9257C13.7456 27.4472 13.4706 26.8037 13.4679 26.1325Z" fill="white"/>
<path d="M22.2019 19.4605L14.3109 17.1377L13.8147 16.8957L14.0682 16.4157L19.0342 10.0713C19.4467 9.52923 20.0633 9.16431 20.7517 9.05469C21.4402 8.94508 22.1458 9.0995 22.7175 9.48487L22.75 9.50991C23.151 9.80978 23.4716 10.1978 23.685 10.6415C23.8983 11.0852 23.9982 11.5716 23.9764 12.0602C23.9503 12.6689 23.8215 13.2694 23.595 13.8383C24.1253 14.1695 24.5958 14.5819 24.9882 15.0591C25.3041 15.4418 25.5201 15.8918 25.6181 16.3715C25.7161 16.8512 25.6933 17.3466 25.5515 17.816V17.8556C25.323 18.4926 24.8439 19.0177 24.2174 19.3179C23.5909 19.618 22.8672 19.6693 22.2019 19.4605Z" fill="white"/>
<path d="M13.0217 18.9826C14.113 18.9826 14.9977 18.1305 14.9977 17.0793C14.9977 16.0281 14.113 15.176 13.0217 15.176C11.9303 15.176 11.0457 16.0281 11.0457 17.0793C11.0457 18.1305 11.9303 18.9826 13.0217 18.9826Z" fill="white"/>
</g>
<path d="M48.32 14.832C50.504 14.832 52.2547 15.378 53.572 16.47C54.9067 17.562 55.574 19.044 55.574 20.916C55.574 22.84 54.8373 24.3913 53.364 25.57C51.908 26.7487 50.14 27.338 48.06 27.338C46.188 27.338 44.576 26.87 43.224 25.934C41.8893 24.998 41.118 23.7153 40.91 22.086H45.018C45.2087 23.2647 46.2227 23.854 48.06 23.854C49.152 23.854 49.958 23.6287 50.478 23.178C51.0153 22.71 51.284 21.956 51.284 20.916C51.284 19.9453 51.0413 19.226 50.556 18.758C50.088 18.29 49.3427 18.056 48.32 18.056C47.384 18.056 46.5867 18.212 45.928 18.524C45.8413 18.8013 45.7633 19.0267 45.694 19.2H41.664C42.86 16.1667 43.458 12.5267 43.458 8.28H54.976V11.764H47.176C47.176 12.9427 47.0027 14.052 46.656 15.092C47.02 14.9187 47.5747 14.832 48.32 14.832ZM67.1064 23.75C68.5798 23.75 69.6284 23.4727 70.2524 22.918C70.8764 22.3633 71.2924 21.5313 71.5004 20.422H75.7644C75.5911 21.3233 75.2964 22.1727 74.8804 22.97C74.4818 23.75 73.9444 24.478 73.2684 25.154C72.5924 25.83 71.7258 26.3673 70.6684 26.766C69.6111 27.1473 68.4238 27.338 67.1064 27.338C64.3678 27.338 62.1318 26.428 60.3984 24.608C58.6824 22.788 57.8244 20.4567 57.8244 17.614C57.8244 14.7367 58.6824 12.4053 60.3984 10.62C62.1318 8.83467 64.3678 7.942 67.1064 7.942C71.6304 7.942 74.4731 10.1347 75.6344 14.52H71.3964C71.1191 13.4973 70.6944 12.7433 70.1224 12.258C69.5504 11.7727 68.5451 11.53 67.1064 11.53C65.4078 11.53 64.1598 12.0153 63.3624 12.986C62.5824 13.9567 62.1924 15.4993 62.1924 17.614C62.1924 21.7047 63.8304 23.75 67.1064 23.75ZM90.3141 8.28H94.5521V19.486C94.5521 21.774 93.8761 23.6547 92.5241 25.128C91.1721 26.6013 89.1441 27.338 86.4401 27.338C83.7361 27.338 81.7081 26.6013 80.3561 25.128C79.0214 23.6547 78.3541 21.774 78.3541 19.486V8.28H82.5921V19.772C82.5921 21.2453 82.8607 22.2767 83.3981 22.866C83.9527 23.4553 84.9667 23.75 86.4401 23.75C87.9307 23.75 88.9447 23.4553 89.4821 22.866C90.0367 22.2767 90.3141 21.2453 90.3141 19.772V8.28ZM102.298 23.334H110.28V27H98.0602V8.28H102.298V23.334ZM109.204 8.28H125.298V11.946H119.37V27H115.132V11.946H109.204V8.28Z" fill="white"/>
<defs>
<clipPath id="clip0_212_590">
<rect width="26" height="24" fill="white" transform="translate(0 5)"/>
</clipPath>
</defs>
</svg>
