<svg width="22" height="14" viewBox="0 0 22 14" fill="none" xmlns="http://www.w3.org/2000/svg">
<path d="M2 14C1.45 14 0.979333 13.8043 0.588 13.413C0.196 13.021 0 12.55 0 12V2C0 1.45 0.196 0.979333 0.588 0.588C0.979333 0.196 1.45 0 2 0H12C12.55 0 13.021 0.196 13.413 0.588C13.8043 0.979333 14 1.45 14 2V12C14 12.55 13.8043 13.021 13.413 13.413C13.021 13.8043 12.55 14 12 14H2ZM17 6C16.7167 6 16.4793 5.904 16.288 5.712C16.096 5.52067 16 5.28333 16 5V1C16 0.716667 16.096 0.479 16.288 0.287C16.4793 0.0956668 16.7167 0 17 0H21C21.2833 0 21.5207 0.0956668 21.712 0.287C21.904 0.479 22 0.716667 22 1V5C22 5.28333 21.904 5.52067 21.712 5.712C21.5207 5.904 21.2833 6 21 6H17ZM18 4H20V2H18V4ZM2 12H12V2H2V12ZM3 10H11L8.375 6.5L6.5 9L5.125 7.175L3 10ZM17 14C16.7167 14 16.4793 13.904 16.288 13.712C16.096 13.5207 16 13.2833 16 13V9C16 8.71667 16.096 8.479 16.288 8.287C16.4793 8.09567 16.7167 8 17 8H21C21.2833 8 21.5207 8.09567 21.712 8.287C21.904 8.479 22 8.71667 22 9V13C22 13.2833 21.904 13.5207 21.712 13.712C21.5207 13.904 21.2833 14 21 14H17ZM18 12H20V10H18V12Z" fill="white"/>
</svg>
