<svg width="41" height="41" viewBox="0 0 41 41" fill="none" xmlns="http://www.w3.org/2000/svg">
<g clip-path="url(#clip0_95_6407)">
<path d="M37.2509 17.1546H35.8748V17.0837H20.4998V23.917H30.1545C28.746 27.8948 24.9612 30.7503 20.4998 30.7503C14.8393 30.7503 10.2498 26.1609 10.2498 20.5003C10.2498 14.8398 14.8393 10.2503 20.4998 10.2503C23.1127 10.2503 25.4899 11.236 27.2999 12.8461L32.1319 8.01412C29.0808 5.1706 24.9996 3.41699 20.4998 3.41699C11.0656 3.41699 3.4165 11.0661 3.4165 20.5003C3.4165 29.9346 11.0656 37.5837 20.4998 37.5837C29.9341 37.5837 37.5832 29.9346 37.5832 20.5003C37.5832 19.3549 37.4653 18.2368 37.2509 17.1546Z" fill="#FFC107"/>
<path d="M5.38623 12.5489L10.999 16.6651C12.5177 12.9051 16.1957 10.2503 20.4999 10.2503C23.1127 10.2503 25.4899 11.236 27.2999 12.8461L32.1319 8.01412C29.0808 5.1706 24.9996 3.41699 20.4999 3.41699C13.9381 3.41699 8.24769 7.12151 5.38623 12.5489Z" fill="#FF3D00"/>
<path d="M20.4999 37.5834C24.9126 37.5834 28.922 35.8947 31.9535 33.1486L26.6662 28.6745C24.8934 30.0227 22.7271 30.7519 20.4999 30.7501C16.0566 30.7501 12.2837 27.9168 10.8624 23.9629L5.2915 28.2551C8.1188 33.7875 13.8605 37.5834 20.4999 37.5834Z" fill="#4CAF50"/>
<path d="M37.2511 17.1539H35.875V17.083H20.5V23.9163H30.1546C29.4809 25.8095 28.2672 27.4638 26.6637 28.6749L26.6662 28.6732L31.9535 33.1473C31.5794 33.4873 37.5833 29.0413 37.5833 20.4997C37.5833 19.3542 37.4655 18.2361 37.2511 17.1539Z" fill="#1976D2"/>
</g>
<defs>
<clipPath id="clip0_95_6407">
<rect width="41" height="41" fill="white"/>
</clipPath>
</defs>
</svg>
