<svg width="128" height="35" viewBox="0 0 128 35" fill="none" xmlns="http://www.w3.org/2000/svg">
<path d="M50.32 14.832C52.504 14.832 54.2547 15.378 55.572 16.47C56.9067 17.562 57.574 19.044 57.574 20.916C57.574 22.84 56.8373 24.3913 55.364 25.57C53.908 26.7487 52.14 27.338 50.06 27.338C48.188 27.338 46.576 26.87 45.224 25.934C43.8893 24.998 43.118 23.7153 42.91 22.086H47.018C47.2087 23.2647 48.2227 23.854 50.06 23.854C51.152 23.854 51.958 23.6287 52.478 23.178C53.0153 22.71 53.284 21.956 53.284 20.916C53.284 19.9453 53.0413 19.226 52.556 18.758C52.088 18.29 51.3427 18.056 50.32 18.056C49.384 18.056 48.5867 18.212 47.928 18.524C47.8413 18.8013 47.7633 19.0267 47.694 19.2H43.664C44.86 16.1667 45.458 12.5267 45.458 8.28H56.976V11.764H49.176C49.176 12.9427 49.0027 14.052 48.656 15.092C49.02 14.9187 49.5747 14.832 50.32 14.832ZM69.1064 23.75C70.5798 23.75 71.6284 23.4727 72.2524 22.918C72.8764 22.3633 73.2924 21.5313 73.5004 20.422H77.7644C77.5911 21.3233 77.2964 22.1727 76.8804 22.97C76.4818 23.75 75.9444 24.478 75.2684 25.154C74.5924 25.83 73.7258 26.3673 72.6684 26.766C71.6111 27.1473 70.4238 27.338 69.1064 27.338C66.3678 27.338 64.1318 26.428 62.3984 24.608C60.6824 22.788 59.8244 20.4567 59.8244 17.614C59.8244 14.7367 60.6824 12.4053 62.3984 10.62C64.1318 8.83467 66.3678 7.942 69.1064 7.942C73.6304 7.942 76.4731 10.1347 77.6344 14.52H73.3964C73.1191 13.4973 72.6944 12.7433 72.1224 12.258C71.5504 11.7727 70.5451 11.53 69.1064 11.53C67.4078 11.53 66.1598 12.0153 65.3624 12.986C64.5824 13.9567 64.1924 15.4993 64.1924 17.614C64.1924 21.7047 65.8304 23.75 69.1064 23.75ZM92.3141 8.28H96.5521V19.486C96.5521 21.774 95.8761 23.6547 94.5241 25.128C93.1721 26.6013 91.1441 27.338 88.4401 27.338C85.7361 27.338 83.7081 26.6013 82.3561 25.128C81.0214 23.6547 80.3541 21.774 80.3541 19.486V8.28H84.5921V19.772C84.5921 21.2453 84.8607 22.2767 85.3981 22.866C85.9527 23.4553 86.9667 23.75 88.4401 23.75C89.9307 23.75 90.9447 23.4553 91.4821 22.866C92.0367 22.2767 92.3141 21.2453 92.3141 19.772V8.28ZM104.298 23.334H112.28V27H100.06V8.28H104.298V23.334ZM111.204 8.28H127.298V11.946H121.37V27H117.132V11.946H111.204V8.28Z" fill="#B84E12"/>
<g clip-path="url(#clip0_212_2069)">
<path d="M22.336 6.96517L16.512 15.3729L16.0266 15.8635L15.5386 15.3729L9.7173 6.96517C9.21785 6.26204 9.00971 5.38957 9.13723 4.5336C9.26474 3.67763 9.71782 2.90582 10.4 2.38256L10.4453 2.34752C10.9629 1.99308 11.557 1.7692 12.1777 1.69462C12.7985 1.62005 13.428 1.69696 14.0133 1.91891C14.7423 2.19336 15.4222 2.58575 16.0266 3.08073C16.631 2.58575 17.311 2.19336 18.04 1.91891C18.6241 1.69788 19.2521 1.62146 19.8715 1.69602C20.4908 1.77059 21.0835 1.99398 21.6 2.34752L21.6426 2.37717C22.328 2.89896 22.7842 3.67106 22.9137 4.52842C23.0433 5.38577 22.8359 6.26034 22.336 6.96517Z" fill="#B84E12"/>
<path d="M8.63196 7.53426L14.744 15.729L15.056 16.349L14.4426 16.6644L4.73329 19.6647C3.91726 19.9269 3.03221 19.8566 2.26664 19.4689C1.50108 19.0812 0.915501 18.4067 0.634627 17.589L0.618627 17.5378C0.444717 16.9312 0.417155 16.2914 0.538252 15.6718C0.659348 15.0522 0.925576 14.471 1.31463 13.9769C1.79657 13.3605 2.37485 12.8278 3.02663 12.3999C2.74921 11.6648 2.59073 10.8893 2.55729 10.1032C2.53103 9.4723 2.6543 8.84417 2.91684 8.27117C3.17939 7.69818 3.5736 7.1969 4.06663 6.80913L4.10929 6.77678C4.81213 6.28234 5.67816 6.08483 6.52292 6.22632C7.36769 6.3678 8.12443 6.8371 8.63196 7.53426Z" fill="#B84E12"/>
<path d="M5.26401 20.794L14.864 17.4513L15.544 17.3408L15.6533 18.0282L15.4667 28.2906C15.4606 29.1563 15.1206 29.9855 14.519 30.6017C13.9174 31.2179 13.1016 31.5725 12.2453 31.59H12.1947C11.5713 31.5687 10.962 31.3968 10.4178 31.0887C9.87364 30.7805 9.41034 30.3452 9.06668 29.819C8.63355 29.1664 8.31008 28.4459 8.10935 27.6867C7.33197 27.7236 6.55384 27.6326 5.80535 27.4172C5.20337 27.2475 4.6502 26.9349 4.19192 26.5054C3.73364 26.0759 3.38351 25.5419 3.17068 24.9479L3.15201 24.8967C2.90741 24.0695 2.99112 23.1785 3.38538 22.4126C3.77964 21.6467 4.45347 21.0661 5.26401 20.794Z" fill="#B84E12"/>
<path d="M16.5759 28.2964L16.3972 18.0341L16.5039 17.3467L17.1839 17.4572L26.7839 20.7998C27.5968 21.0719 28.2723 21.6543 28.6664 22.4228C29.0604 23.1913 29.1418 24.0851 28.8932 24.9134L28.8745 24.9646C28.6622 25.5581 28.3125 26.0917 27.8546 26.5207C27.3968 26.9498 26.844 27.2619 26.2425 27.4311C25.4943 27.6476 24.716 27.7386 23.9385 27.7007C23.7361 28.4597 23.4137 29.1806 22.9839 29.8356C22.6387 30.3619 22.1739 30.7971 21.6283 31.1047C21.0827 31.4124 20.4723 31.5836 19.8479 31.604H19.7946C18.9371 31.5864 18.1205 31.2306 17.5191 30.6126C16.9177 29.9946 16.5792 29.1633 16.5759 28.2964Z" fill="#B84E12"/>
<path d="M27.3254 19.6777L17.6134 16.6775L17.0027 16.3648L17.3147 15.7448L23.4267 7.54997C23.9344 6.84979 24.6932 6.37844 25.5406 6.23686C26.3879 6.09528 27.2564 6.29473 27.96 6.7925L28 6.82484C28.4935 7.21217 28.8881 7.71336 29.1507 8.28646C29.4133 8.85957 29.5363 9.48792 29.5094 10.1189C29.4772 10.9052 29.3187 11.6809 29.04 12.4156C29.6926 12.8435 30.2718 13.3762 30.7547 13.9926C31.1435 14.4869 31.4093 15.0682 31.53 15.6878C31.6506 16.3074 31.6225 16.9472 31.448 17.5535V17.6048C31.1667 18.4275 30.5771 19.1058 29.806 19.4935C29.035 19.8812 28.1442 19.9473 27.3254 19.6777Z" fill="#B84E12"/>
<path d="M16.0267 19.0604C17.3699 19.0604 18.4587 17.9597 18.4587 16.602C18.4587 15.2442 17.3699 14.1436 16.0267 14.1436C14.6836 14.1436 13.5947 15.2442 13.5947 16.602C13.5947 17.9597 14.6836 19.0604 16.0267 19.0604Z" fill="#B84E12"/>
</g>
<defs>
<clipPath id="clip0_212_2069">
<rect width="32" height="31" fill="white" transform="translate(0 1)"/>
</clipPath>
</defs>
</svg>
