<svg width="54" height="52" viewBox="0 0 54 52" fill="none" xmlns="http://www.w3.org/2000/svg">
<path fill-rule="evenodd" clip-rule="evenodd" d="M28.9593 22.1513L37.9295 9.20157C38.7964 7.97935 39.156 6.46278 38.9314 4.97607C38.7067 3.48936 37.9156 2.15048 36.7272 1.24565L36.6532 1.19424C35.7576 0.581185 34.7299 0.193808 33.6559 0.0645035C32.5819 -0.0648012 31.4929 0.0677248 30.4799 0.450998C29.2159 0.926916 28.0367 1.60735 26.9886 2.46569C25.9406 1.60735 24.7614 0.926916 23.4974 0.450998C22.4824 0.0661245 21.3909 -0.0672416 20.3144 0.0620734C19.2379 0.191388 18.2077 0.579618 17.3102 1.19424L17.2316 1.255C16.0487 2.16237 15.263 3.50075 15.0419 4.98506C14.8208 6.46937 15.1817 7.98229 16.0478 9.20157L25.0127 22.1495C24.5539 22.3952 24.1454 22.724 23.8067 23.116L14.1636 10.1869C13.2835 8.97803 11.9713 8.16424 10.5064 7.91889C9.04153 7.67355 7.53977 8.01604 6.321 8.87343L6.24702 8.92952C5.39207 9.60195 4.70848 10.4712 4.25321 11.4648C3.79794 12.4584 3.58418 13.5476 3.62973 14.6417C3.68771 16.0048 3.96252 17.3496 4.44358 18.6243C3.31335 19.3664 2.31058 20.2901 1.47485 21.3589C0.800212 22.2158 0.338555 23.2236 0.128565 24.298C-0.0814249 25.3724 -0.0336316 26.482 0.267941 27.5338L0.295686 27.6227C0.782741 29.0406 1.79817 30.2102 3.12572 30.8825C4.45326 31.5548 5.988 31.6766 7.40306 31.222L22.8012 26.4638C22.8693 27.0036 23.0372 27.5118 23.2857 27.9689L8.32218 33.1791C6.91663 33.6511 5.74817 34.6578 5.06449 35.9859C4.38081 37.3141 4.23567 38.8591 4.65982 40.2936L4.69219 40.3824C5.06125 41.4124 5.6684 42.3383 6.4631 43.0831C7.25779 43.8279 8.21702 44.37 9.26089 44.6642C10.5588 45.0377 11.9082 45.1956 13.2562 45.1316C13.6043 46.4482 14.1652 47.6975 14.9163 48.8291C15.5122 49.7416 16.3156 50.4965 17.2593 51.0308C18.2029 51.5651 19.2595 51.8632 20.3404 51.9002H20.4283C21.9132 51.8698 23.3277 51.255 24.3709 50.1864C25.4142 49.1179 26.0038 47.68 26.0143 46.1787L26.3063 30.1273C26.527 30.1633 26.7535 30.1821 26.9843 30.1821C27.214 30.1821 27.4394 30.1635 27.6592 30.1278L27.9388 46.1862C27.9445 47.6895 28.5315 49.131 29.5744 50.2026C30.6172 51.2743 32.0333 51.8913 33.5202 51.9218H33.6126C34.6954 51.8864 35.754 51.5895 36.7 51.0561C37.646 50.5226 38.4521 49.768 39.0507 48.8554C39.7961 47.7195 40.3551 46.4693 40.7061 45.1532C42.0542 45.219 43.4039 45.0611 44.7014 44.6857C45.7445 44.3924 46.703 43.8511 47.4969 43.1071C48.2909 42.363 48.8973 41.4378 49.2655 40.4086L49.2979 40.3198C49.729 38.8835 49.5878 37.3337 48.9045 36.001C48.2212 34.6684 47.0497 33.6585 45.6402 33.1866L30.6784 27.9771C30.9254 27.5251 31.0935 27.023 31.1641 26.4897L46.581 31.2523C48.0009 31.7198 49.5457 31.6051 50.8827 30.9328C52.2198 30.2605 53.2422 29.0844 53.73 27.6576V27.5688C54.0326 26.5174 54.0814 25.4079 53.8722 24.3335C53.663 23.259 53.2019 22.251 52.5277 21.3939C51.6903 20.325 50.686 19.4013 49.5544 18.6593C50.0377 17.3852 50.3125 16.0401 50.3682 14.6767C50.4149 13.5825 50.2017 12.4929 49.7463 11.4991C49.291 10.5053 48.6068 9.63617 47.751 8.96452L47.6816 8.90842C46.4614 8.04526 44.9554 7.69939 43.4861 7.9449C42.0168 8.19042 40.701 9.00778 39.8205 10.2219L30.1842 23.142C29.842 22.7395 29.4268 22.4022 28.9593 22.1513Z" fill="#B84E12"/>
</svg>
