<svg width="33" height="27" viewBox="0 0 33 27" fill="none" xmlns="http://www.w3.org/2000/svg">
<path d="M5.26318 21.8738C5.26318 22.7392 5.60698 23.5692 6.21894 24.1812C6.8309 24.7931 7.6609 25.1369 8.52634 25.1369C9.39179 25.1369 10.2218 24.7931 10.8337 24.1812C11.4457 23.5692 11.7895 22.7392 11.7895 21.8738C11.7895 21.0083 11.4457 20.1783 10.8337 19.5664C10.2218 18.9544 9.39179 18.6106 8.52634 18.6106C7.6609 18.6106 6.8309 18.9544 6.21894 19.5664C5.60698 20.1783 5.26318 21.0083 5.26318 21.8738ZM21.579 21.8738C21.579 22.7392 21.9228 23.5692 22.5347 24.1812C23.1467 24.7931 23.9767 25.1369 24.8421 25.1369C25.7076 25.1369 26.5376 24.7931 27.1495 24.1812C27.7615 23.5692 28.1053 22.7392 28.1053 21.8738C28.1053 21.0083 27.7615 20.1783 27.1495 19.5664C26.5376 18.9544 25.7076 18.6106 24.8421 18.6106C23.9767 18.6106 23.1467 18.9544 22.5347 19.5664C21.9228 20.1783 21.579 21.0083 21.579 21.8738Z" stroke="#E0800E" stroke-width="3" stroke-linecap="round" stroke-linejoin="round"/>
<path d="M5.26316 21.8739H2V3.9265C2 3.49378 2.1719 3.07878 2.47788 2.7728C2.78386 2.46682 3.19886 2.29492 3.63158 2.29492H18.3158V21.8739M11.7895 21.8739H21.5789M28.1053 21.8739H31.3684V12.0844M31.3684 12.0844H18.3158M31.3684 12.0844L26.4737 3.9265H18.3158" stroke="#E0800E" stroke-width="3" stroke-linecap="round" stroke-linejoin="round"/>
</svg>
