<svg width="26" height="33" viewBox="0 0 26 33" fill="none" xmlns="http://www.w3.org/2000/svg">
<path d="M13 16.6007C13.8938 16.6007 14.6591 16.2811 15.2961 15.6419C15.9331 15.0027 16.2511 14.2352 16.25 13.3395C16.25 12.4427 15.9315 11.6747 15.2945 11.0355C14.6575 10.3963 13.8927 10.0773 13 10.0784C12.1062 10.0784 11.3409 10.398 10.7039 11.0371C10.0669 11.6763 9.74892 12.4438 9.75 13.3395C9.75 14.2363 10.0685 15.0043 10.7055 15.6435C11.3425 16.2827 12.1073 16.6017 13 16.6007ZM13 28.5854C16.3042 25.5416 18.7552 22.7762 20.3531 20.289C21.951 17.8018 22.75 15.594 22.75 13.6656C22.75 10.7034 21.8086 8.27821 19.9257 6.39C18.0429 4.5018 15.7343 3.55716 13 3.55607C10.2646 3.55607 7.95546 4.50071 6.07263 6.39C4.18979 8.2793 3.24892 10.7045 3.25 13.6656C3.25 15.5951 4.04896 17.8035 5.64687 20.2906C7.24479 22.7778 9.69583 25.5427 13 28.5854ZM13 32.2949C12.7833 32.2949 12.5667 32.2542 12.35 32.1726C12.1333 32.0911 11.9438 31.9824 11.7812 31.8465C7.82708 28.3408 4.875 25.0862 2.925 22.0826C0.975 19.0791 0 16.2735 0 13.6656C0 9.58919 1.30704 6.34163 3.92113 3.92295C6.53521 1.50426 9.5615 0.294922 13 0.294922C16.4396 0.294922 19.4664 1.50426 22.0805 3.92295C24.6946 6.34163 26.0011 9.58919 26 13.6656C26 16.2745 25.025 19.0808 23.075 22.0843C21.125 25.0878 18.1729 28.3419 14.2188 31.8465C14.0562 31.9824 13.8667 32.0911 13.65 32.1726C13.4333 32.2542 13.2167 32.2949 13 32.2949Z" fill="#E0800E"/>
</svg>
