<svg width="35" height="27" viewBox="0 0 35 27" fill="none" xmlns="http://www.w3.org/2000/svg">
<path d="M6.89478 22.0315C6.89478 22.8969 7.23857 23.7269 7.85053 24.3389C8.46249 24.9508 9.29249 25.2946 10.1579 25.2946C11.0234 25.2946 11.8534 24.9508 12.4653 24.3389C13.0773 23.7269 13.4211 22.8969 13.4211 22.0315C13.4211 21.166 13.0773 20.336 12.4653 19.7241C11.8534 19.1121 11.0234 18.7683 10.1579 18.7683C9.29249 18.7683 8.46249 19.1121 7.85053 19.7241C7.23857 20.336 6.89478 21.166 6.89478 22.0315ZM23.2106 22.0315C23.2106 22.8969 23.5544 23.7269 24.1663 24.3389C24.7783 24.9508 25.6083 25.2946 26.4737 25.2946C27.3392 25.2946 28.1692 24.9508 28.7811 24.3389C29.3931 23.7269 29.7369 22.8969 29.7369 22.0315C29.7369 21.166 29.3931 20.336 28.7811 19.7241C28.1692 19.1121 27.3392 18.7683 26.4737 18.7683C25.6083 18.7683 24.7783 19.1121 24.1663 19.7241C23.5544 20.336 23.2106 21.166 23.2106 22.0315Z" stroke="#E0800E" stroke-width="3" stroke-linecap="round" stroke-linejoin="round"/>
<path d="M6.89474 22.0316H3.63158V15.5053M2 2.45264H19.9474V22.0316M13.4211 22.0316H23.2105M29.7368 22.0316H33V12.2421M33 12.2421H19.9474M33 12.2421L28.1053 4.08422H19.9474M3.63158 8.97895H10.1579" stroke="#E0800E" stroke-width="3" stroke-linecap="round" stroke-linejoin="round"/>
</svg>
