<svg width="34" height="33" viewBox="0 0 34 33" fill="none" xmlns="http://www.w3.org/2000/svg">
<path fill-rule="evenodd" clip-rule="evenodd" d="M22.7757 12.0602C22.7757 13.4196 22.2357 14.7234 21.2745 15.6846C20.3132 16.6459 19.0095 17.1859 17.6501 17.1859C16.2907 17.1859 14.9869 16.6459 14.0257 15.6846C13.0644 14.7234 12.5244 13.4196 12.5244 12.0602C12.5244 10.7008 13.0644 9.39709 14.0257 8.43584C14.9869 7.47459 16.2907 6.93457 17.6501 6.93457C19.0095 6.93457 20.3132 7.47459 21.2745 8.43584C22.2357 9.39709 22.7757 10.7008 22.7757 12.0602ZM20.2129 12.0602C20.2129 12.7399 19.9429 13.3918 19.4623 13.8724C18.9816 14.3531 18.3298 14.6231 17.6501 14.6231C16.9704 14.6231 16.3185 14.3531 15.8379 13.8724C15.3573 13.3918 15.0872 12.7399 15.0872 12.0602C15.0872 11.3805 15.3573 10.7287 15.8379 10.248C16.3185 9.76741 16.9704 9.4974 17.6501 9.4974C18.3298 9.4974 18.9816 9.76741 19.4623 10.248C19.9429 10.7287 20.2129 11.3805 20.2129 12.0602Z" fill="#B84E12"/>
<path fill-rule="evenodd" clip-rule="evenodd" d="M17.6498 1.80859C9.86517 1.80859 3.5542 8.11957 3.5542 15.9042C3.5542 23.6888 9.86517 29.9997 17.6498 29.9997C25.4344 29.9997 31.7453 23.6888 31.7453 15.9042C31.7453 8.11957 25.4344 1.80859 17.6498 1.80859ZM6.11703 15.9042C6.11703 18.5823 7.03068 21.0478 8.56197 23.0058C9.63738 21.5935 11.0247 20.449 12.6156 19.6617C14.2066 18.8743 15.958 18.4655 17.7331 18.467C19.4852 18.4653 21.2146 18.8636 22.7894 19.6315C24.3643 20.3994 25.7432 21.5167 26.8209 22.8981C27.9311 21.4419 28.6787 19.7423 29.0017 17.9398C29.3247 16.1373 29.2138 14.2839 28.6783 12.5327C28.1427 10.7816 27.1979 9.1832 25.9219 7.86974C24.646 6.55627 23.0756 5.56553 21.3407 4.97947C19.6059 4.39341 17.7564 4.2289 15.9453 4.49953C14.1342 4.77017 12.4136 5.46818 10.9259 6.53581C9.43814 7.60343 8.226 9.00998 7.38977 10.6391C6.55354 12.2682 6.11726 14.073 6.11703 15.9042ZM17.6498 27.4369C15.0023 27.4409 12.4348 26.5301 10.3816 24.8587C11.208 23.6756 12.308 22.7097 13.5879 22.043C14.8679 21.3764 16.2899 21.0288 17.7331 21.0298C19.1582 21.0287 20.5631 21.3676 21.8309 22.0183C23.0988 22.6691 24.1932 23.613 25.023 24.7716C22.9539 26.4973 20.3441 27.4407 17.6498 27.4369Z" fill="#B84E12"/>
</svg>
