<svg width="31" height="31" viewBox="0 0 31 31" fill="none" xmlns="http://www.w3.org/2000/svg">
<path d="M0 0V31H31V0H0ZM13.7612 8.28924C14.6389 8.28015 15.4974 8.37747 15.9163 8.38953C17.4688 8.43422 17.743 9.21948 17.7232 9.86536C17.6941 10.8113 17.0855 14.8127 18.2132 15.2029C19.8565 14.3242 20.9584 11.5951 21.7609 9.86536C22.1668 8.99044 22.1026 8.94696 23.038 8.9458L26.7541 8.94012C27.649 8.939 27.6141 8.90762 27.9007 9.27313C28.5675 10.1233 25.7967 13.6595 24.9018 14.6372C23.2503 16.4416 24.2138 17.1403 24.4798 17.3883C25.7123 18.5375 26.9032 19.7291 27.6434 20.8281C28.2319 21.7019 27.9888 22.5154 27.2404 22.5461L23.2556 22.7108C21.9333 22.7651 19.8773 20.3947 19.5491 19.8783C19.2837 19.4523 18.0045 18.9184 17.884 20.0069L17.7156 21.5262C17.5933 22.6123 16.7914 22.587 16.1584 22.6142C11.7753 22.8028 10.2826 21.134 8.0754 18.671C6.45769 16.3832 4.91391 14.0823 3.63467 11.326C3.25177 10.5009 3.04895 9.89564 2.99703 9.25412C3.64069 8.75104 5.9 8.96773 7.41696 8.93435C7.83187 8.92521 8.11182 9.16295 8.33084 9.63632C9.18543 11.4837 10.1174 13.2979 11.3506 14.902C11.8877 15.3967 12.3624 15.5786 12.5994 14.5728C12.737 14.5602 12.7259 12.8946 12.7337 11.6381C12.7391 10.7755 12.6377 9.74092 11.1766 9.26357C11.4721 8.48886 12.6327 8.30095 13.7612 8.28924Z" fill="#FDC05A"/>
</svg>
