<svg width="36" height="36" viewBox="0 0 36 36" fill="none" xmlns="http://www.w3.org/2000/svg">
<path d="M23.8718 0H13.1282C3.32415 0 1 2.32415 1 12.1282V22.8718C1 32.6759 3.32415 35 13.1282 35H23.8718C33.6758 35 36 32.6759 36 22.8718V12.1282C36 2.32415 33.6529 0 23.8718 0ZM29.2551 24.9673H26.7144C25.7519 24.9673 25.4555 24.2039 23.7241 22.4496C22.2203 20.9917 21.5542 20.7981 21.1834 20.7981C20.6595 20.7981 20.5108 20.9458 20.5108 21.6643V23.96C20.5108 24.5758 20.3172 24.9455 18.6876 24.9455C15.9927 24.9455 13.0024 23.3158 10.9058 20.2797C7.74385 15.8304 6.87872 12.4979 6.87872 11.8088C6.87872 11.4381 7.02637 11.0914 7.73838 11.0914H10.2846C10.9288 11.0914 11.1737 11.3878 11.4242 12.0768C12.6831 15.7112 14.7797 18.895 15.6449 18.895C15.9642 18.895 16.1119 18.7474 16.1119 17.9326V14.1789C16.0145 12.4476 15.1035 12.2988 15.1035 11.6842C15.1035 11.3878 15.3485 11.0914 15.7411 11.0914H19.7452C20.2866 11.0914 20.4856 11.3878 20.4856 12.0254V17.0893C20.4856 17.6362 20.7306 17.8298 20.8783 17.8298C21.1976 17.8298 21.4711 17.6362 22.0628 17.0434C23.8915 14.9927 25.2017 11.8307 25.2017 11.8307C25.3724 11.46 25.6688 11.1132 26.313 11.1132H28.8591C29.6225 11.1132 29.7932 11.5059 29.6225 12.0527C29.3032 13.5336 26.1872 17.9315 26.1872 17.9315C25.9192 18.3755 25.8164 18.5691 26.1872 19.0646C26.4606 19.4353 27.3498 20.2042 27.9415 20.8933C29.0297 22.1292 29.8664 23.166 30.0896 23.8835C30.34 24.5955 29.9703 24.9662 29.2518 24.9662L29.2551 24.9673Z" fill="#1976D2"/>
</svg>
