<svg width="16" height="10" viewBox="0 0 16 10" fill="none" xmlns="http://www.w3.org/2000/svg">
<path d="M7.99835 3.07926C8.43051 3.07926 8.85844 3.1595 9.2577 3.31542C9.65696 3.47133 10.0197 3.69986 10.3253 3.98795C10.6309 4.27605 10.8733 4.61806 11.0387 4.99447C11.2041 5.37088 11.2892 5.77432 11.2892 6.18174C11.2892 6.58917 11.2041 6.9926 11.0387 7.36901C10.8733 7.74542 10.6309 8.08744 10.3253 8.37553C10.0197 8.66363 9.65696 8.89215 9.2577 9.04807C8.85844 9.20398 8.43051 9.28423 7.99835 9.28423C7.12557 9.28423 6.28854 8.95736 5.67138 8.37553C5.05423 7.7937 4.70752 7.00457 4.70752 6.18174C4.70752 5.35891 5.05423 4.56978 5.67138 3.98795C6.28854 3.40612 7.12557 3.07926 7.99835 3.07926ZM7.99835 4.24254C7.45282 4.24254 6.92964 4.44685 6.54389 4.81052C6.15814 5.17419 5.94143 5.66744 5.94143 6.18174C5.94143 6.69605 6.15814 7.18929 6.54389 7.55296C6.92964 7.91664 7.45282 8.12094 7.99835 8.12094C8.54388 8.12094 9.06707 7.91664 9.45282 7.55296C9.83857 7.18929 10.0553 6.69605 10.0553 6.18174C10.0553 5.66744 9.83857 5.17419 9.45282 4.81052C9.06707 4.44685 8.54388 4.24254 7.99835 4.24254ZM7.99835 0.361816C11.7939 0.361816 15.0686 2.80472 15.978 6.22827C15.9998 6.30303 16.0055 6.38113 15.9947 6.45798C15.984 6.53484 15.9571 6.60889 15.9156 6.6758C15.8741 6.74271 15.8188 6.80112 15.753 6.84759C15.6872 6.89407 15.6122 6.92768 15.5324 6.94644C15.4526 6.96521 15.3697 6.96875 15.2884 6.95686C15.2072 6.94497 15.1293 6.91789 15.0593 6.87721C14.9893 6.83653 14.9286 6.78307 14.8809 6.71997C14.8331 6.65688 14.7992 6.58541 14.7811 6.50979C14.3993 5.08624 13.5246 3.82351 12.2955 2.92164C11.0664 2.01976 9.5533 1.53032 7.99581 1.53086C6.43833 1.53139 4.92556 2.02187 3.69718 2.92458C2.46879 3.8273 1.59503 5.09064 1.21433 6.51444C1.17363 6.66311 1.07222 6.79058 0.932228 6.86904C0.792235 6.9475 0.625013 6.97059 0.467032 6.93328C0.309051 6.89597 0.173127 6.80128 0.0889042 6.66987C0.00468132 6.53845 -0.0210077 6.38097 0.0174398 6.23176C0.463738 4.55484 1.49141 3.06651 2.93731 2.00305C4.38322 0.939589 6.16449 0.361945 7.99835 0.361816Z" fill="#FDC05A"/>
</svg>
