<svg width="45" height="31" viewBox="0 0 45 31" fill="none" xmlns="http://www.w3.org/2000/svg">
<path d="M22.6449 0H22.8952C25.2072 0.00827476 36.922 0.0910228 40.0806 0.924015C41.0355 1.17824 41.9056 1.67377 42.604 2.36109C43.3025 3.0484 43.8047 3.90343 44.0606 4.84073C44.3447 5.88887 44.5443 7.27627 44.6794 8.7078L44.7075 8.99466L44.7694 9.71181L44.7919 9.99866C44.9747 12.5197 44.9972 14.8808 45 15.3966V15.6034C44.9972 16.1385 44.9719 18.6596 44.7694 21.2854L44.7469 21.5751L44.7215 21.8619C44.5809 23.4396 44.3728 25.0063 44.0606 26.1593C43.8055 27.0969 43.3035 27.9524 42.605 28.6398C41.9064 29.3272 41.0359 29.8225 40.0806 30.076C36.8179 30.9366 24.4168 30.9972 22.6983 31H22.2989C21.4298 31 17.8352 30.9834 14.0662 30.8566L13.588 30.84L13.3433 30.829L12.8624 30.8097L12.3814 30.7904C9.25933 30.6552 6.28633 30.4373 4.91656 30.0732C3.96163 29.82 3.09131 29.3251 2.39281 28.6382C1.69431 27.9513 1.19214 27.0964 0.936621 26.1593C0.624414 25.0091 0.416276 23.4396 0.275642 21.8619L0.253141 21.5723L0.230639 21.2854C0.0918271 19.4164 0.0149068 17.5435 0 15.6696L0 15.3304C0.00562535 14.7373 0.0281268 12.688 0.180011 10.4262L0.1997 10.1421L0.208138 9.99866L0.230639 9.71181L0.292518 8.99466L0.320645 8.7078C0.455654 7.27627 0.655353 5.88611 0.939434 4.84073C1.19453 3.90306 1.6965 3.04762 2.39503 2.36019C3.09356 1.67275 3.9641 1.17748 4.91937 0.924015C6.28914 0.565442 9.26214 0.344781 12.3842 0.206869L12.8624 0.187561L13.3461 0.171012L13.588 0.162737L14.069 0.14343C16.7459 0.0589569 19.4238 0.0120615 22.102 0.00275838H22.6449V0ZM18.0011 8.85399V22.1433L29.6934 15.5014L18.0011 8.85399Z" fill="#FDC05A"/>
</svg>
