<svg width="33" height="32" viewBox="0 0 33 32" fill="none" xmlns="http://www.w3.org/2000/svg">
<path fill-rule="evenodd" clip-rule="evenodd" d="M9.64286 1.07568C5.18746 1.07568 1.57564 4.6875 1.57564 9.14291V22.8572C1.57564 27.3126 5.18745 30.9244 9.64286 30.9244H23.3572C27.8126 30.9244 31.4244 27.3126 31.4244 22.8572V9.14291C31.4244 4.6875 27.8126 1.07568 23.3572 1.07568H9.64286ZM28.265 15.6305C28.9273 15.6906 29.6249 15.7539 30.3593 15.8298C30.7037 15.8973 30.7037 16.3716 30.3593 16.4375C19.0977 16.4375 17.468 21.1024 16.8009 30.1263C16.7354 30.4733 16.2645 30.4733 16.199 30.1263C16.199 18.4946 11.1179 17.738 5.28058 16.8689C4.41257 16.7396 3.52783 16.6079 2.64058 16.4375C2.29621 16.3716 2.29621 15.8958 2.64058 15.8298C14.4717 14.5883 14.4831 14.5058 16.194 2.17849L16.199 2.14264C16.2645 1.79559 16.7354 1.79559 16.8009 2.14264C17.9304 14.6928 20.9544 14.9672 28.265 15.6305Z" fill="white"/>
</svg>
