<svg width="32" height="32" viewBox="0 0 32 32" fill="none" xmlns="http://www.w3.org/2000/svg">
<g clip-path="url(#clip0_382_5785)">
<path d="M4 0C2.93913 0 1.92172 0.421427 1.17157 1.17157C0.421427 1.92172 0 2.93913 0 4L0 28C0 29.0609 0.421427 30.0783 1.17157 30.8284C1.92172 31.5786 2.93913 32 4 32H28C29.0609 32 30.0783 31.5786 30.8284 30.8284C31.5786 30.0783 32 29.0609 32 28V4C32 2.93913 31.5786 1.92172 30.8284 1.17157C30.0783 0.421427 29.0609 0 28 0L4 0ZM10.708 9.292L16 14.586L21.292 9.292C21.385 9.19902 21.4954 9.12527 21.6168 9.07495C21.7383 9.02464 21.8685 8.99874 22 8.99874C22.1315 8.99874 22.2617 9.02464 22.3832 9.07495C22.5046 9.12527 22.615 9.19902 22.708 9.292C22.801 9.38498 22.8747 9.49535 22.925 9.61683C22.9754 9.73831 23.0013 9.86851 23.0013 10C23.0013 10.1315 22.9754 10.2617 22.925 10.3832C22.8747 10.5046 22.801 10.615 22.708 10.708L17.414 16L22.708 21.292C22.801 21.385 22.8747 21.4954 22.925 21.6168C22.9754 21.7383 23.0013 21.8685 23.0013 22C23.0013 22.1315 22.9754 22.2617 22.925 22.3832C22.8747 22.5046 22.801 22.615 22.708 22.708C22.615 22.801 22.5046 22.8747 22.3832 22.925C22.2617 22.9754 22.1315 23.0013 22 23.0013C21.8685 23.0013 21.7383 22.9754 21.6168 22.925C21.4954 22.8747 21.385 22.801 21.292 22.708L16 17.414L10.708 22.708C10.615 22.801 10.5046 22.8747 10.3832 22.925C10.2617 22.9754 10.1315 23.0013 10 23.0013C9.86851 23.0013 9.73831 22.9754 9.61683 22.925C9.49535 22.8747 9.38498 22.801 9.292 22.708C9.19902 22.615 9.12527 22.5046 9.07495 22.3832C9.02464 22.2617 8.99874 22.1315 8.99874 22C8.99874 21.8685 9.02464 21.7383 9.07495 21.6168C9.12527 21.4954 9.19902 21.385 9.292 21.292L14.586 16L9.292 10.708C9.10423 10.5202 8.99874 10.2656 8.99874 10C8.99874 9.73445 9.10423 9.47977 9.292 9.292C9.47977 9.10423 9.73445 8.99874 10 8.99874C10.2656 8.99874 10.5202 9.10423 10.708 9.292Z" fill="#6C70AC"/>
</g>
<defs>
<clipPath id="clip0_382_5785">
<rect width="32" height="32" fill="white"/>
</clipPath>
</defs>
</svg>
