<svg width="32" height="32" viewBox="0 0 32 32" fill="none" xmlns="http://www.w3.org/2000/svg">
<path fill-rule="evenodd" clip-rule="evenodd" d="M16.5529 6.29535C16.5529 6.10143 16.4255 5.95455 16.2824 5.89247C16.0952 5.81087 15.8836 5.90047 15.6708 5.90047C15.6708 5.73311 15.6477 5.58847 15.6311 5.45311C15.5463 4.77663 15.6083 5.03551 15.4208 4.38687C15.2316 3.73247 14.5806 2.92287 14.0093 2.52575C13.5503 2.20703 12.947 1.92479 12.327 1.80639C12.4096 1.95551 12.5578 2.14175 12.6743 2.22719C12.9928 2.46079 12.7825 2.31679 13.1362 2.47935C13.5513 2.67007 13.4902 3.25887 13.0981 3.35071L12.9851 3.37695C12.6042 3.46655 11.6491 2.69471 11.5038 2.24671C11.2628 2.50559 10.4146 4.11807 9.72777 3.28703C9.52677 3.04383 9.62823 2.68863 9.87532 2.57311C10.2524 2.39743 10.5052 2.07455 10.6845 1.82591C10.3817 1.88447 10.0859 1.98239 9.72873 2.14143C9.35202 2.30879 9.11517 2.49215 8.8095 2.73087C8.37869 3.06751 7.82274 3.83295 7.66207 4.36863C7.64062 4.44063 7.62622 4.48735 7.60125 4.56287C7.5558 4.70079 7.53084 4.83263 7.50171 4.97407C7.47067 5.12351 7.46715 5.26463 7.44954 5.43263C7.43386 5.58303 7.40697 5.72127 7.40697 5.90047C7.20341 5.90047 6.98865 5.81471 6.81165 5.88543C6.47974 6.01791 6.42565 6.43839 6.70635 6.64767C6.94128 6.82303 7.22838 6.68767 7.29335 6.84959L7.47355 7.48191C7.68063 8.05375 7.92964 8.40319 8.31788 8.79615C8.45967 8.93919 8.75445 9.15103 8.92569 9.25599C9.10588 9.36639 9.44163 9.53791 9.64392 9.60543C10.7641 9.97951 11.8601 10.0707 13.0149 9.74335C13.1736 9.69823 13.2741 9.65791 13.4162 9.61119C13.7532 9.50015 14.1697 9.26399 14.4574 9.05055C15.1657 8.52543 15.4752 7.92639 15.7201 7.08703C15.738 7.02527 15.7533 6.96159 15.7745 6.88639C15.8109 6.75839 15.7866 6.79103 15.9348 6.76799C16.1653 6.73247 16.5529 6.69855 16.5529 6.29535ZM13.4655 6.75935H13.3029C12.6253 6.75935 12.1254 5.86111 12.6826 5.21055C12.9412 4.90879 13.4268 4.83807 13.8067 5.02591C14.3819 5.31007 14.5208 6.25087 13.8048 6.65727C13.7414 6.69311 13.5526 6.75935 13.4655 6.75935ZM10.6336 5.83103C10.6336 6.34911 10.2248 6.75935 9.77482 6.75935C9.46852 6.75935 9.2672 6.70975 9.03707 6.47583C8.43759 5.86591 9.0041 4.92575 9.58918 4.92575C9.91053 4.92575 10.1762 4.95487 10.3951 5.21055C10.5215 5.35807 10.6336 5.56575 10.6336 5.83103ZM13.3727 8.15167C13.3727 8.53727 12.996 8.70175 12.6634 8.83487C12.4717 8.91167 12.086 9.02367 11.8639 9.03359C11.8095 9.03583 11.7599 9.03103 11.7048 9.03711C11.1274 9.10015 10.4498 8.92575 9.96942 8.60703C9.48868 8.28831 9.71689 7.71071 10.1695 7.71071C10.5753 7.71071 10.5433 8.10527 11.6783 8.10527C12.24 8.10527 12.6884 7.71071 12.8388 7.71071C13.141 7.71071 13.3727 7.85407 13.3727 8.15167ZM11.2394 10.8672H11.8162C12.1859 10.8512 12.5584 10.8054 12.9339 10.7299C13.1426 10.688 13.4754 10.5984 13.6745 10.519C14.0567 10.3667 14.3604 10.2576 14.7237 10.0131C14.7951 9.96511 14.8447 9.93215 14.9189 9.88319L15.7405 9.12639C16.0753 8.69599 16.2002 8.53023 16.4367 7.94303C16.4732 7.85247 16.4879 7.81087 16.5202 7.70143C16.5906 7.46207 16.7679 7.66783 17.2084 7.13631C17.2624 7.07103 17.2858 7.03423 17.3271 6.95295C17.3783 6.85215 17.4814 6.61311 17.4814 6.48095V6.22655C17.4775 6.06047 17.458 5.90783 17.3738 5.72959C17.2989 5.57119 17.1603 5.36671 17.0272 5.26399C16.9184 5.17951 16.7334 4.99999 16.5295 4.99551C16.5218 4.64575 16.2485 3.84127 16.0584 3.49407C15.9963 3.38079 15.9518 3.28991 15.8874 3.17759C15.8522 3.11615 15.8225 3.08799 15.7821 3.02783L15.4752 2.61503C15.1388 2.18719 14.8658 1.99295 14.4503 1.69023C14.1853 1.49727 13.8067 1.30239 13.4991 1.17919C13.1256 1.05503 12.3558 0.868473 11.5998 0.843833C10.9235 0.821753 10.2536 0.948153 9.95758 1.04735C9.70761 1.13087 9.39586 1.24831 9.16318 1.36703C8.50128 1.70463 7.80418 2.27455 7.38841 2.88799C7.334 2.96767 7.29623 3.03039 7.23766 3.10879C6.94608 3.50047 6.55816 4.55199 6.54824 4.99551C6.34563 4.99999 6.14783 5.18591 6.02365 5.28319C5.96636 5.32831 5.94907 5.36607 5.9033 5.41823C5.6002 5.76415 5.59668 6.06367 5.59668 6.46175V6.48095C5.59668 6.71679 5.82969 7.15807 6.03741 7.31647C6.49767 7.66719 6.50471 7.51039 6.5668 7.73855C6.70635 8.24991 7.02834 8.73407 7.34744 9.13983C7.38073 9.18239 7.39097 9.18815 7.42298 9.22655C7.59389 9.43039 7.96645 9.75583 8.18697 9.90175C8.25579 9.94719 8.29964 9.97663 8.36813 10.0224C8.53905 10.1376 8.99482 10.3699 9.19742 10.4464C9.86508 10.6986 10.5468 10.8371 11.2394 10.8672ZM8.53265 29.6336C8.53265 29.2771 8.9068 29.1251 9.23199 29.1251H19.0219C19.9606 29.1251 19.8867 30.1421 19.2126 30.1421H9.04123C8.73365 30.1421 8.53265 29.9408 8.53265 29.6336ZM17.5908 20.3328C17.2426 21.1936 14.5691 21.272 13.7094 21.3984L12.264 21.6694C12.2566 21.656 12.2336 21.6803 12.2198 21.6886C12.4621 21.7088 12.706 21.7834 12.9652 21.833C14.0496 22.041 17.6869 22.1789 17.6869 23.3411C17.6869 23.8659 17.2135 24.1149 16.7574 24.255C15.56 24.6227 14.1985 24.6819 12.955 24.9024C12.6295 24.9603 12.4314 24.919 12.2835 25.121C12.5792 25.121 12.8058 25.1974 13.0545 25.2397C14.098 25.4179 17.6869 25.6202 17.6869 26.7098C17.6869 27.4291 17.0198 27.5891 16.4293 27.7405C15.9902 27.8534 15.0559 28.0445 14.5083 28.0445V28.1082C15.801 28.1082 17.0935 28.1085 18.3862 28.1082C19.0683 28.1078 19.6197 28.1018 20.0393 28.3622C21.247 29.112 20.7816 31.159 19.2763 31.159H8.85047C7.25686 31.159 7.02481 28.7142 8.51344 28.216C9.00698 28.0506 10.0402 28.1082 10.6941 28.1082C10.7507 27.896 10.7187 27.9693 10.8791 27.848C11.6645 27.2528 14.2785 27.1123 15.3405 26.9062C15.7188 26.8326 15.8109 26.9277 15.9703 26.7098C15.6746 26.7098 15.448 26.6333 15.1993 26.5907C14.9429 26.5472 14.6421 26.5059 14.4257 26.4746C13.8838 26.3965 13.4581 26.3277 12.9297 26.2544C12.3062 26.168 10.567 25.961 10.567 25.121C10.567 24.1341 12.0927 24.0189 13.0014 23.8682L16.0977 23.4048L13.0104 22.8685C12.2083 22.7395 10.567 22.5514 10.567 21.7523C10.567 21.193 10.9904 20.9302 11.4961 20.7744C11.669 20.7213 12.6541 20.5363 13.655 20.3648C14.9045 20.3952 16.3707 20.456 17.5908 20.3328Z" fill="#656CB2"/>
<path d="M14.0653 19.7351C15.4174 19.7646 16.8086 19.7947 18.0804 19.6225C18.9398 19.506 19.7458 19.2919 20.4804 18.992C21.9234 18.4037 23.0862 17.4843 23.8339 16.3251C24.5788 15.1694 24.9131 13.7717 24.7036 12.2214C24.6232 11.6294 24.4633 11.0136 24.2159 10.3793C24.1558 10.2272 24.095 10.0762 24.0339 9.92447C23.8835 9.55258 23.8429 9.60795 24.2422 9.64348C24.4623 9.663 24.7128 9.66812 24.9957 9.647C25.2782 9.62555 25.5902 9.57819 25.9322 9.49369C26.0957 9.45305 26.2544 9.39896 26.4045 9.33399C26.5584 9.2671 26.7062 9.18741 26.8444 9.0978C27.0111 8.98962 27.164 8.86577 27.2971 8.73039C27.428 8.59789 27.5393 8.45483 27.6267 8.30601C28.0743 7.5411 28.3136 5.8183 27.0962 5.73669C26.8306 5.6938 25.4993 5.962 25.3032 5.84582C25.1813 5.77381 25.1301 5.67204 25.0373 5.48801C24.5586 4.5378 23.9398 3.56646 22.8772 3.21954C21.3846 2.73243 19.1817 3.30339 18.4119 4.81464C18.1553 5.31775 18.0801 5.88039 18.1201 6.46575C18.1735 7.25434 18.4797 7.95684 18.7456 8.56652C19.0579 9.2831 19.3193 9.88255 19.1104 10.4257C18.9984 10.7172 18.7136 11.0229 18.3873 11.2642C18.0407 11.5199 17.636 11.7119 17.3333 11.7436C16.7616 11.8031 14.8837 11.8527 13.1137 11.8639C11.6067 11.8732 10.1736 11.8547 9.68376 11.7907C8.97377 11.6978 8.4388 11.5641 7.93935 11.3464C7.44245 11.1298 6.98555 10.8315 6.42882 10.4084C6.16806 10.2103 5.88201 9.99873 5.60589 9.83998C5.34928 9.69276 5.10452 9.59163 4.90646 9.59515C4.52859 9.60219 4.30302 9.76509 4.17536 10.1431C4.0237 10.5924 3.99042 11.3176 4.00994 12.3847C4.03362 13.6722 4.19967 14.7386 4.51995 15.6213C4.83607 16.4918 5.30321 17.1837 5.93385 17.7342C6.85373 18.5369 7.92751 19.0307 9.05824 19.3245C10.7393 19.7607 12.3576 19.6986 14.0653 19.7351ZM18.9657 12.1766C19.1203 12.0797 19.2697 11.9734 19.4098 11.8585C19.8991 11.4578 20.2728 10.956 20.3505 10.41C20.4651 9.60283 20.1963 8.95858 19.9119 8.27656C19.6633 7.68064 19.4031 7.05751 19.3491 6.26124C19.3244 5.89767 19.3935 5.55266 19.5877 5.23518C20.1522 4.31153 21.3478 4.02125 22.3509 4.27472C22.8868 4.4101 23.3405 4.71863 23.64 5.20061C23.7462 5.37152 23.848 5.5581 23.9494 5.74405C24.0636 5.95336 24.1779 6.16267 24.3074 6.36046L24.3068 6.36078C24.4892 6.63825 24.6575 6.79444 24.8379 6.86933C25.0168 6.94422 25.2238 6.94454 25.4788 6.90933C25.5246 6.90293 25.6186 6.88597 25.7357 6.86453C26.0179 6.81364 26.7327 6.58033 26.9532 6.88629C27.0169 6.97494 27.0412 7.08888 27.03 7.21594C26.9788 7.79778 26.3539 8.35337 25.8186 8.48587C25.0587 8.67438 24.422 8.60749 23.9885 8.51436C23.6199 8.43499 23.1258 8.18695 22.788 8.41994C22.4415 8.65966 22.467 8.83504 22.581 9.18869C22.6885 9.52346 22.8865 10.0006 23.0263 10.3364C23.1095 10.5367 23.193 10.7383 23.2666 10.9422C23.4407 11.4242 23.5549 11.895 23.6138 12.3507C23.7827 13.6556 23.4954 14.8292 22.8644 15.8002C22.2364 16.767 21.2685 17.53 20.0725 18.0178C19.4495 18.2719 18.7623 18.4517 18.0276 18.5465C16.6476 18.7254 15.2059 18.7084 13.793 18.6918C12.6184 18.6777 11.6083 18.6982 10.4197 18.4902C9.99764 18.4162 9.57337 18.3196 9.16095 18.1976C8.20811 17.9163 7.31415 17.4999 6.64767 16.9181C6.13286 16.4688 5.75179 15.8805 5.4955 15.122C5.24466 14.3792 5.11347 13.4715 5.09332 12.3677C5.07668 11.4633 5.15251 11.163 5.44271 11.1579C5.58861 11.1554 5.72044 11.2546 5.90441 11.3935C6.47106 11.8201 6.96027 12.1651 7.63187 12.4144C8.19627 12.6244 8.90338 12.7662 9.46619 12.8455C10.0802 12.9319 11.6601 12.9591 13.275 12.9441C15.005 12.9281 16.7718 12.8631 17.4325 12.7703C17.5419 12.7553 17.6562 12.7319 17.7733 12.7012L17.7502 12.7662C17.6581 13.0174 17.5362 13.2606 17.3884 13.4911C17.1148 13.9164 16.7516 14.2995 16.3155 14.6138C15.8957 14.9162 15.4081 15.1553 14.8677 15.307C14.328 15.4587 13.7869 15.5086 13.2708 15.4689C12.7349 15.4276 12.2252 15.2897 11.7705 15.0689C11.3069 14.8439 11.0609 14.5846 10.8682 14.3817C10.7511 14.2582 10.6529 14.1548 10.5358 14.0895C10.4341 14.0326 10.323 14.0025 10.2142 14.0076C10.1128 14.0127 10.0133 14.0486 9.92437 14.1219C9.81782 14.2096 9.76343 14.3529 9.76471 14.5114C9.76599 14.6631 9.81846 14.8298 9.92501 14.9748C10.0328 15.1214 10.2478 15.3067 10.4846 15.4821C10.7831 15.7032 11.1181 15.9103 11.3168 16.0069C11.8854 16.2828 12.5189 16.4559 13.1822 16.5091C13.8205 16.56 14.4873 16.5001 15.1506 16.3138C15.8135 16.1276 16.4141 15.8315 16.9327 15.4555C17.4715 15.0647 17.9224 14.5869 18.2641 14.0553C18.5152 13.6642 18.7075 13.244 18.8333 12.8078C18.8928 12.6007 18.9373 12.3898 18.9657 12.1766Z" fill="#F357AA"/>
</svg>
