<svg width="24" height="24" viewBox="0 0 24 24" fill="none" xmlns="http://www.w3.org/2000/svg">
<g clip-path="url(#clip0_603_4902)">
<path d="M17.6134 15.516C19.0658 13.534 19.7163 11.0767 19.4348 8.63572C19.1533 6.19471 17.9605 3.95001 16.095 2.35069C14.2295 0.75138 11.829 -0.0845965 9.37362 0.0100132C6.91825 0.104623 4.58915 1.12284 2.85227 2.86096C1.1154 4.59908 0.098846 6.92891 0.00599324 9.38435C-0.0868595 11.8398 0.750834 14.2397 2.35148 16.1041C3.95213 17.9684 6.19769 19.1596 8.6389 19.4394C11.0801 19.7192 13.5369 19.0669 15.5179 17.613H15.5164C15.5614 17.673 15.6094 17.73 15.6634 17.7855L21.4384 23.5605C21.7196 23.842 22.1012 24.0002 22.4991 24.0003C22.897 24.0004 23.2787 23.8425 23.5601 23.5612C23.8416 23.28 23.9998 22.8984 23.9999 22.5005C24.0001 22.1026 23.8421 21.721 23.5609 21.4395L17.7859 15.6645C17.7322 15.6102 17.6746 15.5601 17.6134 15.5145V15.516ZM18.0004 9.75C18.0004 10.8334 17.787 11.9062 17.3724 12.9071C16.9578 13.9081 16.3501 14.8175 15.584 15.5836C14.8179 16.3497 13.9084 16.9574 12.9075 17.372C11.9066 17.7866 10.8338 18 9.75037 18C8.66696 18 7.59417 17.7866 6.59323 17.372C5.5923 16.9574 4.68282 16.3497 3.91674 15.5836C3.15066 14.8175 2.54297 13.9081 2.12836 12.9071C1.71376 11.9062 1.50037 10.8334 1.50037 9.75C1.50037 7.56196 2.36956 5.46354 3.91674 3.91637C5.46391 2.36919 7.56233 1.5 9.75037 1.5C11.9384 1.5 14.0368 2.36919 15.584 3.91637C17.1312 5.46354 18.0004 7.56196 18.0004 9.75Z" fill="#6C70AC"/>
</g>
<defs>
<clipPath id="clip0_603_4902">
<rect width="24" height="24" fill="white"/>
</clipPath>
</defs>
</svg>
