<svg width="33" height="32" viewBox="0 0 33 32" fill="none" xmlns="http://www.w3.org/2000/svg">
<g clip-path="url(#clip0_701_5712)">
<path fill-rule="evenodd" clip-rule="evenodd" d="M31.7667 7.93075C31.988 7.20275 31.7667 6.66675 30.7067 6.66675H27.2067C26.316 6.66675 25.9053 7.12941 25.6827 7.64008C25.6827 7.64008 23.9027 11.9014 21.3813 14.6694C20.5653 15.4721 20.1947 15.7267 19.7493 15.7267C19.5267 15.7267 19.192 15.4721 19.192 14.7427V7.93075C19.192 7.05608 18.9467 6.66675 18.2053 6.66675H12.7013C12.1453 6.66675 11.8107 7.07208 11.8107 7.45741C11.8107 8.28541 13.072 8.47741 13.2013 10.8081V15.8721C13.2013 16.9827 12.9973 17.1841 12.552 17.1841C11.3653 17.1841 8.47867 12.9027 6.76533 8.00408C6.43333 7.05075 6.09733 6.66675 5.20267 6.66675H1.7C0.7 6.66675 0.5 7.12941 0.5 7.64008C0.5 8.54941 1.68667 13.0667 6.02667 19.0414C8.92 23.1214 12.9933 25.3334 16.704 25.3334C18.9293 25.3334 19.204 24.8427 19.204 23.9961V20.9121C19.204 19.9294 19.4147 19.7334 20.12 19.7334C20.64 19.7334 21.5293 19.9894 23.6067 21.9561C25.98 24.2881 26.3707 25.3334 27.7067 25.3334H31.2067C32.2067 25.3334 32.708 24.8427 32.42 23.8721C32.1027 22.9067 30.9693 21.5054 29.4667 19.8427C28.6507 18.8961 27.4267 17.8761 27.0547 17.3654C26.536 16.7107 26.684 16.4187 27.0547 15.8361C27.0547 15.8361 31.3213 9.93475 31.7653 7.93075H31.7667Z" fill="white"/>
</g>
<defs>
<clipPath id="clip0_701_5712">
<rect width="32" height="32" fill="white" transform="translate(0.5)"/>
</clipPath>
</defs>
</svg>
