<svg width="32" height="32" viewBox="0 0 32 32" fill="none" xmlns="http://www.w3.org/2000/svg">
<g clip-path="url(#clip0_603_4927)">
<path d="M8.45761 27.4067L8.98074 27.6653C11.1607 28.958 13.6021 29.5613 16.0436 29.5613C23.7167 29.5613 29.9947 23.356 29.9947 15.7718C29.9947 12.1521 28.5124 8.6185 25.8966 6.03292C23.2807 3.44735 19.7929 1.98227 16.0436 1.98227C8.37049 1.98227 2.09236 8.18755 2.17961 15.858C2.17961 18.4435 2.96436 20.9429 4.27223 23.0974L4.62099 23.6146L3.22598 28.6995L8.45761 27.4067Z" fill="#40C351"/>
<path d="M27.3791 4.65396C24.4145 1.63756 20.3164 0 16.131 0C7.23725 0 0.08725 7.1533 0.174375 15.8579C0.174375 18.6158 0.959125 21.2877 2.26712 23.7008L0 31.8883L8.45788 29.7337C10.8121 31.0265 13.4279 31.6298 16.0439 31.6298C24.8505 31.6298 32.0005 24.4764 32.0005 15.7719C32.0005 11.5488 30.3436 7.58425 27.3791 4.65396ZM16.131 28.9581C13.7768 28.9581 11.4225 28.355 9.417 27.1484L8.89388 26.8898L3.83663 28.1825L5.1445 23.2701L4.79575 22.7529C0.959125 16.6338 2.79025 8.53226 9.06825 4.74008C15.3462 0.948016 23.4554 2.75793 27.292 8.96321C31.1285 15.1685 29.2974 23.1837 23.0195 26.9759C21.0139 28.2686 18.5725 28.958 16.131 28.958V28.9581ZM23.8041 19.3918L22.845 18.9608C22.845 18.9608 21.45 18.3575 20.578 17.9265C20.4907 17.9265 20.4036 17.8403 20.3164 17.8403C20.0548 17.8403 19.8804 17.9265 19.706 18.0128C19.706 18.0128 19.6189 18.0989 18.3981 19.4779C18.3109 19.6502 18.1365 19.7365 17.9621 19.7365H17.8749C17.7877 19.7365 17.6134 19.6502 17.5261 19.5641L17.0901 19.3918C16.131 18.9608 15.2591 18.4436 14.5615 17.7542C14.3871 17.5818 14.1255 17.4095 13.9511 17.2371C13.3407 16.6338 12.7304 15.9443 12.2945 15.1686L12.2072 14.9963C12.1201 14.91 12.1201 14.8239 12.0329 14.6516C12.0329 14.4792 12.0329 14.3068 12.1201 14.2206C12.1201 14.2206 12.4689 13.7897 12.7304 13.5312C12.9049 13.3587 12.992 13.1002 13.1664 12.9279C13.3407 12.6693 13.428 12.3246 13.3407 12.066C13.2536 11.635 12.2073 9.30805 11.9458 8.79098C11.7712 8.53239 11.597 8.44627 11.3354 8.36003H10.3763C10.2017 8.36003 10.0275 8.44627 9.853 8.44627L9.76575 8.53239C9.59138 8.61862 9.417 8.79098 9.24263 8.8771C9.06825 9.04957 8.981 9.22181 8.80663 9.39429C8.19625 10.1699 7.8475 11.118 7.8475 12.066C7.8475 12.7554 8.02187 13.4449 8.2835 14.0482L8.37075 14.3068C9.1555 15.9443 10.2017 17.4095 11.597 18.7022L11.9458 19.0469C12.2073 19.3055 12.4689 19.4779 12.6433 19.7363C14.4744 21.2878 16.567 22.4082 18.9212 23.0115C19.1829 23.0976 19.5316 23.0976 19.7932 23.1838H20.6651C21.1011 23.1838 21.6243 23.0115 21.9731 22.8391C22.2346 22.6667 22.409 22.6667 22.5834 22.4944L22.7579 22.3219C22.9323 22.1496 23.1066 22.0634 23.281 21.8911C23.4554 21.7187 23.6297 21.5464 23.717 21.3739C23.8914 21.0292 23.9785 20.5982 24.0658 20.1674V19.5641C24.0658 19.5641 23.9785 19.4779 23.8041 19.3918Z" fill="white"/>
</g>
<defs>
<clipPath id="clip0_603_4927">
<rect width="32" height="32" fill="white"/>
</clipPath>
</defs>
</svg>
