<svg width="122" height="36" viewBox="0 0 122 36" fill="none" xmlns="http://www.w3.org/2000/svg">
<path fill-rule="evenodd" clip-rule="evenodd" d="M15.4727 3.52144C14.8201 1.76072 14.0316 0 11.5846 0C9.13751 0 8.32182 1.78781 7.69646 3.52144C7.37018 4.41535 1.08937 21.5621 0.844663 22.2122C0.790284 22.3747 0.871853 22.5914 1.06218 22.6727C1.15733 22.7133 2.04077 23.0518 2.92431 23.3904L2.92464 23.3905L2.92467 23.3905C3.80834 23.7291 4.692 24.0677 4.78716 24.1084C4.97749 24.1896 5.19501 24.0542 5.24939 23.8916C5.30377 23.7291 6.69044 19.9368 6.85358 19.5034H16.3156C16.4015 19.7173 16.8191 20.87 17.2071 21.9412L17.2072 21.9415L17.2074 21.9421L17.2077 21.9428C17.5564 22.9054 17.8812 23.8019 17.9198 23.8916C18.0013 24.0813 18.1917 24.1625 18.382 24.1084C18.4854 24.0789 19.5033 23.6818 20.451 23.3122L20.4513 23.312C21.2482 23.0012 21.9952 22.7098 22.107 22.6727C22.3517 22.5914 22.3789 22.3476 22.3245 22.2122C22.2483 22.0062 21.179 19.0881 19.9064 15.615L19.9053 15.6119C17.9985 10.4081 15.6357 3.96001 15.4727 3.52144ZM0 31.5576C0 31.3409 0.163138 31.1783 0.353466 31.1783H22.8121C23.0025 31.1783 23.1656 31.3409 23.1656 31.5576V35.6208C23.1656 35.8375 23.0025 36 22.8121 36H0.353466C0.163138 36 0 35.8375 0 35.6208V31.5576ZM11.5828 5.68849L8.37442 15.2506H14.8184L11.61 5.68849H11.5828ZM93.422 21.5075C94.5368 21.5075 95.1349 20.8032 95.1349 19.7197C95.1349 18.5549 94.5639 18.0402 93.422 17.959C92.851 17.959 92.3072 18.0132 92.0625 18.0673V21.345C92.6335 21.5075 92.9869 21.5075 93.422 21.5075ZM97.4217 19.5842C97.4217 17.5797 96.2525 16.1982 93.7511 16.1982C93.1529 16.1982 92.7179 16.2524 92.0653 16.4149V13.5165C92.4732 13.4623 93.1801 13.4081 93.9414 13.4081C94.6755 13.4081 95.6 13.4623 96.4157 13.5436L96.4701 11.8641C95.5456 11.6474 94.2133 11.5391 93.1801 11.5391C92.1469 11.5391 90.5699 11.7829 89.8086 11.9996V22.6722C90.9778 23.1057 92.1469 23.2953 93.3161 23.2953C96.0078 23.2953 97.4217 21.8596 97.4217 19.5842ZM70.0406 21.4537C71.0194 21.4537 71.6176 20.4786 71.6176 18.9887C71.6176 17.3634 71.1281 16.5508 70.1493 16.5779C69.7415 16.5779 69.4696 16.5779 68.953 16.8217V21.2912C69.4152 21.4266 69.6327 21.4537 70.0406 21.4537ZM64.1404 19.0429C64.1404 17.4176 64.6298 16.5508 65.6086 16.5508C66.0165 16.5508 66.2884 16.5508 66.805 16.7946V21.2641C66.3428 21.4266 66.1253 21.4266 65.7174 21.4266C64.6026 21.4537 64.1404 20.5327 64.1404 19.0429ZM68.953 22.8081V25.7336H66.8594V22.8081C66.5875 22.9707 66.0437 23.2144 65.1192 23.2144C63.1616 23.2144 61.9652 21.7517 61.9652 19.0158C61.9652 16.0903 63.2975 14.763 65.4727 14.763C66.0165 14.763 66.3971 14.8172 66.8322 15.0339V11.5666H68.953V15.0068C69.388 14.7901 69.7687 14.7359 70.3125 14.7359C72.4876 14.7359 73.8199 16.009 73.8199 18.9616C73.8199 21.7246 72.4876 23.2144 70.6659 23.2144C69.7687 23.2144 69.2249 22.9707 68.953 22.8081ZM52.7751 23.079V15.2777C51.606 14.9255 50.7087 14.7901 49.5124 14.7901C48.316 14.7901 47.446 14.9526 46.2768 15.2777V19.2867C46.2768 20.3702 46.2496 20.6953 46.1409 21.0474C46.0321 21.3454 45.869 21.7246 45.4339 22.0226L46.0049 23.2686C47.7179 22.781 48.3704 22.0497 48.3704 19.6659V16.7133C48.4504 16.7019 48.5213 16.6916 48.5854 16.6823L48.5894 16.6817L48.5897 16.6817C48.9798 16.6248 49.1163 16.605 49.5124 16.605C49.8915 16.605 50.0145 16.6232 50.3615 16.6746C50.4376 16.6858 50.5245 16.6987 50.6271 16.7133V23.079H52.7751ZM77.9542 21.5616C78.3076 21.5616 78.6339 21.5345 79.0961 21.372C79.0146 21.1011 78.9874 20.6948 78.9874 20.0717V19.4758C78.8786 19.4216 78.6067 19.3945 78.362 19.3945C77.3016 19.3945 76.7578 19.6654 76.7578 20.4781C76.7578 21.2636 77.1928 21.5616 77.9542 21.5616ZM81.8148 22.3212C81.2438 21.4544 81.1079 20.9668 81.1079 19.8833V17.6892C81.1079 16.5244 80.9719 16.091 80.6456 15.6305C80.2106 15.0346 79.5037 14.7637 78.1442 14.7637C77.1925 14.7637 76.2681 14.872 75.398 15.0887L75.7243 16.6598C76.3225 16.5786 76.9478 16.4973 77.4101 16.4973C78.8239 16.4973 78.9871 16.714 78.9871 17.7704V18.1768C78.6608 18.0955 78.3073 18.0413 77.8995 18.0413C75.7515 18.0413 74.6367 19.0707 74.6367 20.8043C74.6367 22.4025 75.8331 23.2964 77.3013 23.2964C77.8451 23.2964 78.4161 23.1881 78.8783 22.9984C79.1308 22.8978 79.2426 22.8205 79.5404 22.6148L79.6124 22.565C79.8299 22.8901 80.265 23.1881 80.4281 23.2422L81.8148 22.3212ZM101.524 21.5616C101.878 21.5616 102.204 21.5345 102.666 21.372C102.612 21.1011 102.558 20.6948 102.558 20.0717V19.4758C102.449 19.4216 102.204 19.3945 101.932 19.3945C100.872 19.3945 100.328 19.6654 100.328 20.4781C100.328 21.2636 100.763 21.5616 101.524 21.5616ZM105.385 22.3212C104.814 21.4544 104.678 20.9668 104.678 19.8833V17.6892C104.678 16.5244 104.542 16.091 104.243 15.6305C103.808 15.0346 103.074 14.7637 101.742 14.7637C100.79 14.7637 99.8658 14.872 98.9957 15.0887L99.322 16.6598C99.9201 16.5786 100.545 16.4973 101.008 16.4973C102.422 16.4973 102.585 16.714 102.585 17.7704V18.1768C102.286 18.0955 101.905 18.0413 101.497 18.0413C99.3492 18.0413 98.2344 19.0707 98.2344 20.8043C98.2344 22.4025 99.4307 23.2964 100.899 23.2964C101.443 23.2964 102.014 23.1881 102.476 22.9984C102.728 22.8978 102.84 22.8205 103.138 22.6148L103.21 22.565C103.428 22.8901 103.863 23.1881 104.026 23.2422L105.385 22.3212ZM57.5333 21.6433C58.5665 21.6433 58.8384 21.0745 58.8384 20.2889C58.8384 19.5305 58.5121 19.0429 57.5333 19.0429C57.2875 19.0429 57.2115 19.0583 56.9448 19.1122C56.8574 19.1298 56.7497 19.1516 56.6089 19.1783V21.5079C57.0439 21.6433 57.1799 21.6433 57.5333 21.6433ZM54.4609 14.8984V22.6456C55.4669 23.079 56.5817 23.2686 57.5877 23.2686C59.8716 23.2686 61.068 22.1038 61.068 20.1806C61.068 18.447 59.9804 17.3634 57.9684 17.3634C57.4518 17.3634 57.1527 17.4176 56.6089 17.553V14.8984H54.4609ZM113.216 14.9805V23.0798H111.068V19.7751H108.648V23.0798H106.5V14.9805H108.648V18.0414H111.068V14.9805H113.216ZM122 23.079C122 23.079 120.831 20.5869 120.559 20.0451C120.233 19.4221 119.934 18.9616 119.281 18.7991V18.772C119.716 18.6907 120.07 18.4199 120.45 17.6072C120.804 16.8217 120.912 16.6321 121.13 16.4695C121.347 16.2799 121.619 16.3612 121.619 16.3612L121.728 14.8984C121.429 14.8442 121.076 14.8442 120.722 14.8713C120.151 14.8984 119.852 15.0609 119.553 15.3589C119.335 15.5756 119.172 15.9007 118.982 16.2799C118.792 16.6861 118.629 17.0111 118.411 17.4443L118.411 17.4447L118.396 17.4743C118.189 17.8867 118.099 18.0677 117.541 18.0677H117.187V14.9797H115.039V23.079H117.187V19.7743H117.487C118.085 19.7743 118.193 19.9368 118.52 20.5598C118.9 21.3183 119.607 23.079 119.607 23.079H122ZM44.7814 23.079H42.3071C42.3071 23.079 42.008 22.1038 41.6817 20.8578H37.6033C37.2226 22.0767 36.8964 23.079 36.8964 23.079H34.5309L38.4734 11.7562C38.5185 11.7422 38.561 11.7287 38.6016 11.7158C38.952 11.6048 39.158 11.5395 39.6697 11.5395C40.1863 11.5395 40.6757 11.6208 41.0564 11.7562L44.7814 23.079ZM38.1484 18.9625L38.1565 18.9354H41.0577C41.0577 18.9354 40.4052 16.6329 40.2964 16.3078C40.0517 15.4681 39.6711 13.9512 39.6711 13.9512H39.6167C39.6167 13.9512 39.2088 15.4139 38.9369 16.3349C38.8352 16.6644 38.2335 18.6779 38.1565 18.9354H38.1484V18.9625ZM84.0976 19.0158C84.0976 18.2844 84.6958 17.6614 85.4571 17.6614C86.1912 17.6614 86.8166 18.2844 86.8166 19.0158C86.8166 19.7743 86.2184 20.3702 85.4571 20.3702C84.6958 20.3702 84.0976 19.7743 84.0976 19.0158Z" fill="#EE3524"/>
</svg>
