<svg width="24" height="24" viewBox="0 0 24 24" fill="none" xmlns="http://www.w3.org/2000/svg">
<path fill-rule="evenodd" clip-rule="evenodd" d="M12 24C18.6274 24 24 18.6274 24 12C24 5.37258 18.6274 0 12 0C5.37258 0 0 5.37258 0 12C0 18.6274 5.37258 24 12 24Z" fill="#F56363"/>
<path fill-rule="evenodd" clip-rule="evenodd" d="M8.73587 3.87959L6.76925 5.74815L6.14419 5.00588C5.96592 4.79419 5.67567 4.79419 5.49741 5.00588C5.31857 5.21825 5.31857 5.56292 5.49741 5.77461L6.41215 6.85883C6.50128 6.96468 6.61784 7.0176 6.73611 7.0176C6.8361 7.0176 6.93666 6.97825 7.01951 6.89819L9.30494 4.7277C9.5032 4.53976 9.53463 4.1978 9.37636 3.9644C9.21981 3.731 8.93184 3.69436 8.73587 3.87959ZM10.3913 5.39062H17.7052C17.9572 5.39062 18.1629 5.63149 18.1629 5.93409C18.1629 6.23331 17.9572 6.47417 17.7052 6.47417H10.3913C10.1393 6.47417 9.93359 6.23331 9.93359 5.93409C9.93359 5.63149 10.1393 5.39062 10.3913 5.39062ZM6.76925 17.6911L8.73587 15.8225C8.93184 15.6339 9.21981 15.6712 9.37636 15.9073C9.53463 16.1407 9.5032 16.482 9.30494 16.6706L7.01951 18.8411C6.93666 18.9205 6.8361 18.9605 6.73611 18.9605C6.61784 18.9605 6.50128 18.9076 6.41215 18.8011L5.49741 17.7148C5.31857 17.5024 5.31857 17.1605 5.49741 16.9488C5.67567 16.7364 5.96592 16.7364 6.14419 16.9488L6.76925 17.6911ZM10.3913 11.3613H17.7052C17.9572 11.3613 18.1629 11.6022 18.1629 11.9014C18.1629 12.204 17.9572 12.4449 17.7052 12.4449H10.3913C10.1393 12.4449 9.93359 12.204 9.93359 11.9014C9.93359 11.6022 10.1393 11.3613 10.3913 11.3613ZM8.73587 9.85105L6.76925 11.7196L6.14419 10.9773C5.96592 10.7656 5.67567 10.7656 5.49741 10.9773C5.31857 11.1897 5.31857 11.5317 5.49741 11.7433L6.41215 12.8303C6.50128 12.9361 6.61784 12.9891 6.73611 12.9891C6.8361 12.9891 6.93666 12.949 7.01951 12.8696L9.30494 10.6992C9.5032 10.5112 9.53463 10.1693 9.37636 9.93586C9.21981 9.70246 8.93184 9.6631 8.73587 9.85105ZM10.3913 17.3301H17.7052C17.9572 17.3301 18.1629 17.5743 18.1629 17.8735C18.1629 18.1734 17.9572 18.417 17.7052 18.417H10.3913C10.1393 18.417 9.93359 18.1734 9.93359 17.8735C9.93359 17.5743 10.1393 17.3301 10.3913 17.3301Z" fill="white"/>
</svg>
