<svg width="24" height="24" viewBox="0 0 24 24" fill="none" xmlns="http://www.w3.org/2000/svg">
<path fill-rule="evenodd" clip-rule="evenodd" d="M12 24C18.6274 24 24 18.6274 24 12C24 5.37258 18.6274 0 12 0C5.37258 0 0 5.37258 0 12C0 18.6274 5.37258 24 12 24Z" fill="#4A90E2"/>
<path fill-rule="evenodd" clip-rule="evenodd" d="M11.757 9.67639H9.19056C9.04908 9.67639 8.93359 9.56251 8.93359 9.41943C8.93359 9.27795 9.04908 9.16406 9.19056 9.16406H11.757C11.8988 9.16406 12.014 9.27795 12.014 9.41943C12.014 9.56251 11.8988 9.67639 11.757 9.67639ZM9.19056 11.2172H15.6067C15.7485 11.2172 15.8637 11.3324 15.8637 11.4742C15.8637 11.6156 15.7485 11.7311 15.6067 11.7311H9.19056C9.04908 11.7311 8.93359 11.6156 8.93359 11.4742C8.93359 11.3324 9.04908 11.2172 9.19056 11.2172ZM15.6067 13.2688H9.19056C9.04908 13.2688 8.93359 13.3842 8.93359 13.5257C8.93359 13.6675 9.04908 13.7827 9.19056 13.7827H15.6067C15.7485 13.7827 15.8637 13.6675 15.8637 13.5257C15.8637 13.3842 15.7485 13.2688 15.6067 13.2688ZM9.19056 17.3766H15.6067C15.7485 17.3766 15.8637 17.4921 15.8637 17.6335C15.8637 17.775 15.7485 17.8905 15.6067 17.8905H9.19056C9.04908 17.8905 8.93359 17.775 8.93359 17.6335C8.93359 17.4921 9.04908 17.3766 9.19056 17.3766ZM15.6067 15.3234H9.19056C9.04908 15.3234 8.93359 15.4373 8.93359 15.5804C8.93359 15.7219 9.04908 15.8358 9.19056 15.8358H15.6067C15.7485 15.8358 15.8637 15.7219 15.8637 15.5804C15.8637 15.4373 15.7485 15.3234 15.6067 15.3234ZM16.6328 8.54397V4.80078H5.59766V18.9163H6.88089V20.1996H17.9161V9.82721L16.6328 8.54397ZM14.3242 6.95937L17.0411 9.6763H14.3242V6.95937ZM6.10938 18.4018V5.31406H16.1183V8.03067L14.1706 6.08336H6.87867V18.4018H6.10938ZM7.39453 19.6846V6.59687H13.8107V10.1896H17.4034V19.6846H7.39453Z" fill="white"/>
</svg>
