<svg width="25" height="24" viewBox="0 0 25 24" fill="none" xmlns="http://www.w3.org/2000/svg">
<path fill-rule="evenodd" clip-rule="evenodd" d="M12.9961 24C19.6235 24 24.9961 18.6274 24.9961 12C24.9961 5.37258 19.6235 0 12.9961 0C6.36868 0 0.996094 5.37258 0.996094 12C0.996094 18.6274 6.36868 24 12.9961 24Z" fill="#FCC62D"/>
<path fill-rule="evenodd" clip-rule="evenodd" d="M20.6492 16.3419C20.5756 16.4721 20.437 16.553 20.2874 16.553H6.50521C6.35562 16.553 6.21702 16.4721 6.14346 16.3419C6.06989 16.2116 6.07219 16.0511 6.1494 15.923L13.0405 4.49469C13.1153 4.37076 13.2516 4.29375 13.3963 4.29375C13.541 4.29375 13.6774 4.37076 13.7521 4.49469L20.6432 15.923C20.7205 16.0511 20.7228 16.2116 20.6492 16.3419ZM21.5796 15.3574L14.6886 3.92913C14.4171 3.47891 13.9218 3.19922 13.3961 3.19922C12.8703 3.19922 12.375 3.47891 12.1036 3.92917L5.21249 15.3574C4.93195 15.8228 4.92361 16.4058 5.19081 16.879C5.45806 17.3521 5.9616 17.6461 6.50498 17.6461H20.2872C20.8305 17.6461 21.3341 17.3521 21.6014 16.879C21.8686 16.4058 21.8603 15.8228 21.5796 15.3574ZM13.4009 12.9152C13.6445 12.9152 13.9895 12.7832 13.9895 12.4687C13.9895 11.2611 14.1315 9.52583 14.1315 8.31826C14.1315 7.92251 13.7967 7.69922 13.4009 7.69922C12.9849 7.69922 12.6602 7.92248 12.6602 8.31826C12.6602 9.52583 12.8022 11.2611 12.8022 12.4687C12.8022 12.7832 13.0762 12.9152 13.4009 12.9152ZM13.4103 13.6152C12.9638 13.6152 12.6289 13.9704 12.6289 14.3966C12.6289 14.8127 12.9638 15.178 13.4103 15.178C13.8263 15.178 14.1815 14.8127 14.1815 14.3966C14.1815 13.9704 13.8263 13.6152 13.4103 13.6152Z" fill="#0A0B09"/>
</svg>
