<svg width="21" height="21" viewBox="0 0 21 21" fill="none" xmlns="http://www.w3.org/2000/svg">
<path d="M11.2781 20.6898L20.3363 11.2439C20.7073 10.857 20.7073 10.2465 20.3363 9.8596L11.2781 0.413666C11.1903 0.294052 11.0788 0.195405 10.951 0.124403C10.8233 0.0534014 10.6823 0.0117028 10.5377 0.00212971C10.393 -0.00744337 10.2481 0.0153332 10.1127 0.0689169C9.9773 0.1225 9.85457 0.20564 9.75283 0.312708C9.65109 0.419776 9.57271 0.548272 9.52299 0.689497C9.47328 0.830722 9.4534 0.981379 9.46469 1.13127C9.47599 1.28116 9.51819 1.42678 9.58845 1.55828C9.65871 1.68978 9.75538 1.80408 9.87193 1.89345L17.1456 9.50225L1.01164 9.028C0.74334 9.028 0.486025 9.13857 0.296307 9.33539C0.106586 9.53221 0 9.79915 0 10.0775C0 10.3558 0.106586 10.6228 0.296307 10.8196C0.486025 11.0164 0.74334 11.127 1.01164 11.127L17.1456 11.6012L9.87193 19.21C9.68277 19.4077 9.57704 19.6751 9.57799 19.9536C9.57894 20.2321 9.68649 20.4988 9.87698 20.6951C10.0675 20.8913 10.3253 21.001 10.5938 21C10.8622 20.999 11.1193 20.8874 11.3085 20.6898H11.2781Z" fill="white"/>
</svg>
