<svg width="1043" height="481" viewBox="0 0 1043 481" fill="none" xmlns="http://www.w3.org/2000/svg">
<path d="M208.39 471.38V390.893H0V327.401L150.041 9.61999H226.664L76.6233 327.401H208.39V202.341H276.357V327.401H322.202V390.893H276.357V471.38H208.39Z" fill="white"/>
<path d="M521.64 481C490.222 481 462.436 474.159 438.284 460.477C414.133 446.582 395.11 427.556 381.218 403.399C367.539 379.242 360.699 351.451 360.699 320.025V160.975C360.699 129.549 367.539 101.758 381.218 77.6013C395.11 53.4444 414.133 34.5251 438.284 20.8433C462.436 6.94777 490.222 0 521.64 0C553.059 0 580.844 6.94777 604.996 20.8433C629.148 34.5251 648.063 53.4444 661.742 77.6013C675.635 101.758 682.581 129.549 682.581 160.975V320.025C682.581 351.451 675.635 379.242 661.742 403.399C648.063 427.556 629.148 446.582 604.996 460.477C580.844 474.159 553.059 481 521.64 481ZM521.64 416.867C538.739 416.867 554.235 412.805 568.127 404.681C582.234 396.344 593.455 385.228 601.79 371.332C610.126 357.223 614.294 341.51 614.294 324.194V156.165C614.294 139.062 610.126 123.564 601.79 109.668C593.455 95.5587 582.234 84.4422 568.127 76.3186C554.235 67.9813 538.739 63.8127 521.64 63.8127C504.542 63.8127 488.939 67.9813 474.833 76.3186C460.94 84.4422 449.826 95.5587 441.49 109.668C433.155 123.564 428.987 139.062 428.987 156.165V324.194C428.987 341.51 433.155 357.223 441.49 371.332C449.826 385.228 460.94 396.344 474.833 404.681C488.939 412.805 504.542 416.867 521.64 416.867Z" fill="white"/>
<path d="M929.187 471.38V390.893H720.798V327.401L870.838 9.61999H947.461L797.421 327.401H929.187V202.341H997.154V327.401H1043V390.893H997.154V471.38H929.187Z" fill="white"/>
</svg>
