<svg width="150" height="50" viewBox="0 0 150 50" fill="none" xmlns="http://www.w3.org/2000/svg">
<rect width="150" height="50" rx="4" fill="white"/>
<path fill-rule="evenodd" clip-rule="evenodd" d="M97.3792 15.3838L99.724 21.4683H95.0689L97.3792 15.3838ZM101.586 26H105L97.3792 8L89.7931 26H93.2412L94.0342 23.9719H100.758L101.586 26ZM80.5171 23.1478V11.3591C80.5171 11.3591 88.4137 10.25 88.4137 17.2535C88.4137 24.162 80.5171 23.1478 80.5171 23.1478ZM77.3103 8.50727V26H80.5173C85.2415 26 91.6207 24.7325 91.6207 17.2535C91.6209 9.48909 85.1378 8.50727 80.5171 8.50727H77.3103ZM66.6207 11.4225H69.1724C69.1724 11.4225 72.3449 11.4225 72.3449 13.6091C72.3449 15.3204 70.4138 15.7007 69.5862 15.7958L66.6207 11.4225ZM76.5173 26L71.3447 18.3943C73.1723 17.9198 75.5171 16.7148 75.5171 13.6091C75.5171 8.50695 69.1723 8.50695 69.1723 8.50695H62.8276V11.4225L65.8277 15.7956H62.8276V26H66V18.7113H67.8276L72.793 26H76.5173ZM54.5863 15.3838L56.8965 21.4683H52.2758L54.5863 15.3838ZM58.7586 26H62.206L54.5863 8L47 26H50.4139L51.2413 23.9719H57.9309L58.7586 26Z" fill="#1B1B1B"/>
<g opacity="0.7">
<path d="M46.9838 33.9724L47.4889 32.9876L46 30H46.5844L47.762 32.4634L48.9661 30H49.5241L47.5506 33.9724H46.9838Z" fill="#1B1B1B"/>
<path d="M51.5947 33.9724V32.8993C51.489 32.949 51.3607 32.9913 51.21 33.0262C51.0612 33.0611 50.9016 33.0786 50.7313 33.0786C50.4082 33.0786 50.1479 33.0106 49.9501 32.8745C49.7524 32.7384 49.6232 32.5425 49.5625 32.2869C49.5448 32.2097 49.5321 32.1297 49.5243 32.0469C49.5184 31.9641 49.5145 31.8887 49.5125 31.8207C49.5106 31.7526 49.5096 31.703 49.5096 31.6717V30.9931H50.0382V31.6717C50.0382 31.7251 50.0402 31.7913 50.0441 31.8703C50.048 31.9476 50.0578 32.023 50.0735 32.0966C50.1126 32.2786 50.1939 32.4156 50.3172 32.5076C50.4425 32.5995 50.6187 32.6455 50.8458 32.6455C50.9985 32.6455 51.1395 32.6271 51.2687 32.5903C51.3979 32.5536 51.5066 32.5048 51.5947 32.4441V30.9931H52.1204V33.9724H51.5947Z" fill="#1B1B1B"/>
<path d="M53.6691 34.0552C53.4322 34.0552 53.2335 34.0147 53.0729 33.9338C52.9144 33.851 52.794 33.7425 52.7117 33.6083C52.6315 33.474 52.5913 33.3269 52.5913 33.1669C52.5913 33.0106 52.6227 32.8754 52.6853 32.7614C52.7499 32.6455 52.84 32.5499 52.9555 32.4745C53.071 32.3972 53.209 32.3366 53.3696 32.2924C53.5203 32.2538 53.6887 32.2207 53.8747 32.1931C54.0626 32.1637 54.2525 32.137 54.4444 32.1131C54.6363 32.0892 54.8154 32.0662 54.9818 32.0441L54.7939 32.1462C54.7997 31.8814 54.743 31.6855 54.6235 31.5586C54.5061 31.4317 54.3025 31.3683 54.0127 31.3683C53.8208 31.3683 53.6525 31.4097 53.5076 31.4924C53.3647 31.5733 53.2638 31.7057 53.2051 31.8897L52.7088 31.749C52.7851 31.4878 52.933 31.2828 53.1522 31.1338C53.3715 30.9848 53.6603 30.9103 54.0186 30.9103C54.3064 30.9103 54.5531 30.9591 54.7586 31.0566C54.9662 31.1522 55.1149 31.2975 55.205 31.4924C55.25 31.5844 55.2784 31.6846 55.2902 31.7931C55.3019 31.8998 55.3078 32.012 55.3078 32.1297V33.9724H54.8438V33.2579L54.9524 33.3241C54.833 33.5651 54.6656 33.7471 54.4503 33.8703C54.2369 33.9936 53.9765 34.0552 53.6691 34.0552ZM53.7484 33.6441C53.9363 33.6441 54.0988 33.6129 54.2359 33.5503C54.3749 33.486 54.4865 33.4023 54.5707 33.2993C54.6549 33.1945 54.7097 33.0805 54.7351 32.9572C54.7645 32.8653 54.7802 32.7632 54.7821 32.651C54.786 32.537 54.788 32.4497 54.788 32.389L54.9701 32.4634C54.7997 32.4855 54.6323 32.5067 54.4679 32.5269C54.3034 32.5471 54.1478 32.5692 54.001 32.5931C53.8541 32.6152 53.722 32.6418 53.6045 32.6731C53.5184 32.6989 53.4371 32.732 53.3607 32.7724C53.2863 32.8129 53.2257 32.8653 53.1787 32.9297C53.1336 32.9922 53.1111 33.0703 53.1111 33.1641C53.1111 33.2451 53.1327 33.3223 53.1757 33.3959C53.2208 33.4694 53.2893 33.5292 53.3813 33.5752C53.4753 33.6211 53.5976 33.6441 53.7484 33.6441Z" fill="#1B1B1B"/>
<path d="M57.2313 34.0552C56.9103 34.0552 56.6371 33.988 56.412 33.8538C56.1888 33.7177 56.0185 33.531 55.901 33.2938C55.7835 33.0566 55.7228 32.7862 55.7189 32.4828C55.7228 32.172 55.7845 31.8989 55.9039 31.6634C56.0253 31.4262 56.1986 31.2414 56.4237 31.109C56.6489 30.9766 56.92 30.9103 57.2372 30.9103C57.572 30.9103 57.8598 30.9876 58.1006 31.1421C58.3434 31.2966 58.5059 31.508 58.5881 31.7766L58.0712 31.9228C58.0047 31.7499 57.896 31.6156 57.7453 31.52C57.5965 31.4244 57.4252 31.3766 57.2313 31.3766C57.014 31.3766 56.8349 31.4244 56.6939 31.52C56.553 31.6138 56.4482 31.7444 56.3797 31.9117C56.3112 32.0772 56.2759 32.2676 56.274 32.4828C56.2779 32.8138 56.3591 33.0814 56.5177 33.2855C56.6783 33.4878 56.9161 33.589 57.2313 33.589C57.4389 33.589 57.6112 33.5448 57.7482 33.4566C57.8853 33.3664 57.989 33.2368 58.0595 33.0676L58.5881 33.1972C58.4785 33.4749 58.3072 33.6874 58.0742 33.8345C57.8412 33.9816 57.5603 34.0552 57.2313 34.0552Z" fill="#1B1B1B"/>
<path d="M59.7938 33.9724V31.44H58.6896V30.9931H61.4208V31.44H60.3165V33.9724H59.7938Z" fill="#1B1B1B"/>
<path d="M61.7975 33.9724V30.9931H62.3203V32.2483H63.9883V30.9931H64.5111V33.9724H63.9883V32.7145H62.3203V33.9724H61.7975Z" fill="#1B1B1B"/>
<path d="M67.7536 30.9931V33.9724H67.2484V31.7766L65.5863 33.9724H65.1546V30.9931H65.6597V33.1586L67.3248 30.9931H67.7536Z" fill="#1B1B1B"/>
<path d="M68.3969 33.9724L68.3998 30.9931H68.9284V32.4276L70.2588 30.9931H70.9371L69.5363 32.4828L71.1016 33.9724H70.3704L68.9284 32.5379V33.9724H68.3969Z" fill="#1B1B1B"/>
<path d="M73.1189 34.0552C72.882 34.0552 72.6833 34.0147 72.5227 33.9338C72.3642 33.851 72.2438 33.7425 72.1615 33.6083C72.0813 33.474 72.0411 33.3269 72.0411 33.1669C72.0411 33.0106 72.0724 32.8754 72.1351 32.7614C72.1997 32.6455 72.2898 32.5499 72.4053 32.4745C72.5208 32.3972 72.6588 32.3366 72.8193 32.2924C72.9701 32.2538 73.1385 32.2207 73.3245 32.1931C73.5124 32.1637 73.7023 32.137 73.8942 32.1131C74.0861 32.0892 74.2652 32.0662 74.4316 32.0441L74.2437 32.1462C74.2495 31.8814 74.1928 31.6855 74.0733 31.5586C73.9559 31.4317 73.7522 31.3683 73.4625 31.3683C73.2706 31.3683 73.1023 31.4097 72.9574 31.4924C72.8145 31.5733 72.7136 31.7057 72.6549 31.8897L72.1586 31.749C72.2349 31.4878 72.3828 31.2828 72.602 31.1338C72.8213 30.9848 73.1101 30.9103 73.4684 30.9103C73.7562 30.9103 74.0028 30.9591 74.2084 31.0566C74.4159 31.1522 74.5647 31.2975 74.6548 31.4924C74.6998 31.5844 74.7282 31.6846 74.74 31.7931C74.7517 31.8998 74.7576 32.012 74.7576 32.1297V33.9724H74.2936V33.2579L74.4022 33.3241C74.2828 33.5651 74.1154 33.7471 73.9001 33.8703C73.6867 33.9936 73.4263 34.0552 73.1189 34.0552ZM73.1982 33.6441C73.3861 33.6441 73.5486 33.6129 73.6857 33.5503C73.8247 33.486 73.9363 33.4023 74.0205 33.2993C74.1047 33.1945 74.1595 33.0805 74.1849 32.9572C74.2143 32.8653 74.23 32.7632 74.2319 32.651C74.2358 32.537 74.2378 32.4497 74.2378 32.389L74.4199 32.4634C74.2495 32.4855 74.0821 32.5067 73.9177 32.5269C73.7532 32.5471 73.5976 32.5692 73.4507 32.5931C73.3039 32.6152 73.1718 32.6418 73.0543 32.6731C72.9681 32.6989 72.8869 32.732 72.8105 32.7724C72.7361 32.8129 72.6754 32.8653 72.6285 32.9297C72.5834 32.9922 72.5609 33.0703 72.5609 33.1641C72.5609 33.2451 72.5825 33.3223 72.6255 33.3959C72.6706 33.4694 72.7391 33.5292 72.8311 33.5752C72.9251 33.6211 73.0474 33.6441 73.1982 33.6441Z" fill="#1B1B1B"/>
<path d="M76.6811 34.0552C76.3601 34.0552 76.0869 33.988 75.8618 33.8538C75.6386 33.7177 75.4683 33.531 75.3508 33.2938C75.2333 33.0566 75.1726 32.7862 75.1687 32.4828C75.1726 32.172 75.2343 31.8989 75.3537 31.6634C75.4751 31.4262 75.6484 31.2414 75.8735 31.109C76.0987 30.9766 76.3698 30.9103 76.687 30.9103C77.0218 30.9103 77.3096 30.9876 77.5504 31.1421C77.7932 31.2966 77.9557 31.508 78.0379 31.7766L77.521 31.9228C77.4545 31.7499 77.3458 31.6156 77.1951 31.52C77.0463 31.4244 76.875 31.3766 76.6811 31.3766C76.4638 31.3766 76.2847 31.4244 76.1437 31.52C76.0028 31.6138 75.898 31.7444 75.8295 31.9117C75.761 32.0772 75.7257 32.2676 75.7238 32.4828C75.7277 32.8138 75.8089 33.0814 75.9675 33.2855C76.1281 33.4878 76.3659 33.589 76.6811 33.589C76.8887 33.589 77.0609 33.5448 77.198 33.4566C77.335 33.3664 77.4388 33.2368 77.5093 33.0676L78.0379 33.1972C77.9283 33.4749 77.757 33.6874 77.524 33.8345C77.291 33.9816 77.01 34.0552 76.6811 34.0552Z" fill="#1B1B1B"/>
<path d="M79.7112 34.0552C79.3901 34.0552 79.117 33.988 78.8919 33.8538C78.6687 33.7177 78.4984 33.531 78.3809 33.2938C78.2634 33.0566 78.2027 32.7862 78.1988 32.4828C78.2027 32.172 78.2644 31.8989 78.3838 31.6634C78.5052 31.4262 78.6785 31.2414 78.9036 31.109C79.1288 30.9766 79.3999 30.9103 79.7171 30.9103C80.0519 30.9103 80.3397 30.9876 80.5805 31.1421C80.8233 31.2966 80.9858 31.508 81.068 31.7766L80.5511 31.9228C80.4846 31.7499 80.3759 31.6156 80.2252 31.52C80.0764 31.4244 79.9051 31.3766 79.7112 31.3766C79.4939 31.3766 79.3148 31.4244 79.1738 31.52C79.0328 31.6138 78.9281 31.7444 78.8596 31.9117C78.7911 32.0772 78.7558 32.2676 78.7539 32.4828C78.7578 32.8138 78.839 33.0814 78.9976 33.2855C79.1581 33.4878 79.396 33.589 79.7112 33.589C79.9188 33.589 80.091 33.5448 80.2281 33.4566C80.3651 33.3664 80.4689 33.2368 80.5394 33.0676L81.068 33.1972C80.9584 33.4749 80.787 33.6874 80.5541 33.8345C80.3211 33.9816 80.0401 34.0552 79.7112 34.0552Z" fill="#1B1B1B"/>
<path d="M82.756 34.0552C82.4408 34.0552 82.1687 33.988 81.9396 33.8538C81.7125 33.7195 81.5373 33.5338 81.4139 33.2966C81.2906 33.0593 81.2289 32.7871 81.2289 32.48C81.2289 32.1674 81.2916 31.8933 81.4169 31.6579C81.5422 31.4225 81.7193 31.2395 81.9484 31.109C82.1775 30.9766 82.4467 30.9103 82.756 30.9103C83.0732 30.9103 83.3463 30.9775 83.5754 31.1117C83.8044 31.2441 83.9796 31.429 84.101 31.6662C84.2244 31.9016 84.286 32.1729 84.286 32.48C84.286 32.7908 84.2244 33.0648 84.101 33.3021C83.9777 33.5375 83.8015 33.7223 83.5724 33.8566C83.3434 33.989 83.0712 34.0552 82.756 34.0552ZM82.756 33.589C83.0849 33.589 83.3297 33.486 83.4902 33.28C83.6507 33.074 83.731 32.8074 83.731 32.48C83.731 32.1434 83.6498 31.8759 83.4873 31.6772C83.3248 31.4768 83.081 31.3766 82.756 31.3766C82.5348 31.3766 82.3527 31.4234 82.2098 31.5172C82.0669 31.611 81.9602 31.7407 81.8897 31.9062C81.8192 32.0717 81.784 32.263 81.784 32.48C81.784 32.8147 81.8662 33.0832 82.0306 33.2855C82.1951 33.4878 82.4369 33.589 82.756 33.589Z" fill="#1B1B1B"/>
<path d="M87.4582 34.5241V33.9724H84.7535V30.9931H85.2762V33.5062H86.8297V30.9931H87.3525V33.5255H87.9809V34.5241H87.4582Z" fill="#1B1B1B"/>
<path d="M90.8701 30.9931V33.9724H90.365V31.7766L88.7028 33.9724H88.2711V30.9931H88.7762V33.1586L90.4414 30.9931H90.8701Z" fill="#1B1B1B"/>
<path d="M92.4179 34.0552C92.1811 34.0552 91.9823 34.0147 91.8218 33.9338C91.6632 33.851 91.5428 33.7425 91.4606 33.6083C91.3803 33.474 91.3402 33.3269 91.3402 33.1669C91.3402 33.0106 91.3715 32.8754 91.4342 32.7614C91.4988 32.6455 91.5888 32.5499 91.7043 32.4745C91.8198 32.3972 91.9579 32.3366 92.1184 32.2924C92.2692 32.2538 92.4375 32.2207 92.6235 32.1931C92.8115 32.1637 93.0014 32.137 93.1932 32.1131C93.3851 32.0892 93.5643 32.0662 93.7307 32.0441L93.5427 32.1462C93.5486 31.8814 93.4918 31.6855 93.3724 31.5586C93.2549 31.4317 93.0513 31.3683 92.7615 31.3683C92.5697 31.3683 92.4013 31.4097 92.2564 31.4924C92.1135 31.5733 92.0127 31.7057 91.9539 31.8897L91.4576 31.749C91.534 31.4878 91.6818 31.2828 91.9011 31.1338C92.1204 30.9848 92.4091 30.9103 92.7674 30.9103C93.0552 30.9103 93.3019 30.9591 93.5075 31.0566C93.715 31.1522 93.8638 31.2975 93.9539 31.4924C93.9989 31.5844 94.0273 31.6846 94.039 31.7931C94.0508 31.8998 94.0566 32.012 94.0566 32.1297V33.9724H93.5926V33.2579L93.7013 33.3241C93.5819 33.5651 93.4145 33.7471 93.1991 33.8703C92.9857 33.9936 92.7253 34.0552 92.4179 34.0552ZM92.4972 33.6441C92.6852 33.6441 92.8477 33.6129 92.9847 33.5503C93.1237 33.486 93.2353 33.4023 93.3195 33.2993C93.4037 33.1945 93.4585 33.0805 93.484 32.9572C93.5133 32.8653 93.529 32.7632 93.531 32.651C93.5349 32.537 93.5368 32.4497 93.5368 32.389L93.7189 32.4634C93.5486 32.4855 93.3812 32.5067 93.2167 32.5269C93.0523 32.5471 92.8966 32.5692 92.7498 32.5931C92.603 32.6152 92.4708 32.6418 92.3533 32.6731C92.2672 32.6989 92.1859 32.732 92.1096 32.7724C92.0352 32.8129 91.9745 32.8653 91.9275 32.9297C91.8825 32.9922 91.86 33.0703 91.86 33.1641C91.86 33.2451 91.8815 33.3223 91.9246 33.3959C91.9696 33.4694 92.0381 33.5292 92.1302 33.5752C92.2241 33.6211 92.3465 33.6441 92.4972 33.6441Z" fill="#1B1B1B"/>
<path d="M97.3458 34.5241V33.9724H94.641V30.9931H95.1638V33.5062H96.7173V30.9931H97.24V33.5255H97.8685V34.5241H97.3458Z" fill="#1B1B1B"/>
<path d="M100.758 30.9931V33.9724H100.253V31.7766L98.5904 33.9724H98.1587V30.9931H98.6638V33.1586L100.329 30.9931H100.758Z" fill="#1B1B1B"/>
<path d="M104 30.9931V33.9724H103.495V31.7766L101.833 33.9724H101.401V30.9931H101.906V33.1586L103.571 30.9931H104Z" fill="#1B1B1B"/>
<path d="M47.5682 40.6759C47.2726 40.6759 47.019 40.6069 46.8076 40.469C46.5962 40.3292 46.4327 40.1407 46.3172 39.9034C46.2036 39.6662 46.1468 39.3986 46.1468 39.1007C46.1468 38.8028 46.2036 38.5352 46.3172 38.2979C46.4327 38.0607 46.5962 37.874 46.8076 37.7379C47.019 37.6 47.2716 37.531 47.5653 37.531C47.8648 37.531 48.1164 37.5991 48.32 37.7352C48.5236 37.8713 48.6773 38.0579 48.7811 38.2952C48.8868 38.5324 48.9397 38.8009 48.9397 39.1007C48.9397 39.3968 48.8868 39.6644 48.7811 39.9034C48.6773 40.1407 48.5236 40.3292 48.32 40.469C48.1164 40.6069 47.8658 40.6759 47.5682 40.6759ZM47.6328 40.2262C47.8462 40.2262 48.0214 40.1784 48.1585 40.0828C48.2955 39.9853 48.3964 39.852 48.461 39.6828C48.5275 39.5117 48.5608 39.3177 48.5608 39.1007C48.5608 38.88 48.5275 38.686 48.461 38.5186C48.3964 38.3494 48.2965 38.2179 48.1614 38.1241C48.0263 38.0285 47.855 37.9807 47.6475 37.9807C47.4321 37.9807 47.254 38.0303 47.113 38.1297C46.974 38.229 46.8702 38.3632 46.8017 38.5324C46.7352 38.7016 46.7019 38.891 46.7019 39.1007C46.7019 39.3122 46.7361 39.5034 46.8047 39.6745C46.8732 39.8437 46.976 39.9779 47.113 40.0772C47.252 40.1766 47.4253 40.2262 47.6328 40.2262ZM48.5608 40.5931V38.4H48.5021V36.6207H49.0278V40.5931H48.5608Z" fill="#1B1B1B"/>
<path d="M49.7331 37.0869V36.5793H50.2558V37.0869H49.7331ZM49.7331 40.5931V37.6138H50.2558V40.5931H49.7331Z" fill="#1B1B1B"/>
<path d="M52.2441 42C52.0777 42 51.9152 41.9761 51.7566 41.9283C51.598 41.8805 51.4522 41.8078 51.319 41.7103C51.1879 41.6147 51.0782 41.4933 50.9901 41.3462L51.4688 41.109C51.5471 41.2543 51.6577 41.36 51.8007 41.4262C51.9455 41.4924 52.0943 41.5255 52.247 41.5255C52.4487 41.5255 52.6161 41.4906 52.7492 41.4207C52.8824 41.3526 52.9802 41.2506 53.0429 41.1145C53.1075 40.9784 53.1388 40.8092 53.1369 40.6069V39.7931H53.1985V37.6138H53.6625V40.6124C53.6625 40.6933 53.6596 40.7715 53.6537 40.8469C53.6498 40.9223 53.64 40.9968 53.6244 41.0703C53.5832 41.2818 53.502 41.4556 53.3806 41.5917C53.2592 41.7297 53.1026 41.8317 52.9107 41.8979C52.7189 41.966 52.4967 42 52.2441 42ZM52.2059 40.6759C51.9103 40.6759 51.6568 40.6069 51.4453 40.469C51.2339 40.3292 51.0704 40.1407 50.9549 39.9034C50.8413 39.6662 50.7846 39.3986 50.7846 39.1007C50.7846 38.8028 50.8413 38.5352 50.9549 38.2979C51.0704 38.0607 51.2339 37.874 51.4453 37.7379C51.6568 37.6 51.9093 37.531 52.203 37.531C52.5025 37.531 52.7541 37.5991 52.9577 37.7352C53.1613 37.8713 53.315 38.0579 53.4188 38.2952C53.5245 38.5324 53.5774 38.8009 53.5774 39.1007C53.5774 39.3968 53.5245 39.6644 53.4188 39.9034C53.315 40.1407 53.1613 40.3292 52.9577 40.469C52.7541 40.6069 52.5035 40.6759 52.2059 40.6759ZM52.2705 40.2262C52.4839 40.2262 52.6592 40.1784 52.7962 40.0828C52.9333 39.9853 53.0341 39.852 53.0987 39.6828C53.1653 39.5117 53.1985 39.3177 53.1985 39.1007C53.1985 38.88 53.1653 38.686 53.0987 38.5186C53.0341 38.3494 52.9342 38.2179 52.7991 38.1241C52.6641 38.0285 52.4927 37.9807 52.2852 37.9807C52.0699 37.9807 51.8917 38.0303 51.7507 38.1297C51.6117 38.229 51.508 38.3632 51.4394 38.5324C51.3729 38.7016 51.3396 38.891 51.3396 39.1007C51.3396 39.3122 51.3739 39.5034 51.4424 39.6745C51.5109 39.8437 51.6137 39.9779 51.7507 40.0772C51.8897 40.1766 52.063 40.2262 52.2705 40.2262Z" fill="#1B1B1B"/>
<path d="M54.3651 37.0869V36.5793H54.8878V37.0869H54.3651ZM54.3651 40.5931V37.6138H54.8878V40.5931H54.3651Z" fill="#1B1B1B"/>
<path d="M57.3636 40.5931C57.1756 40.628 56.9896 40.6418 56.8056 40.6345C56.6235 40.629 56.461 40.5949 56.3181 40.5324C56.1752 40.468 56.0665 40.3687 55.9921 40.2345C55.9295 40.1168 55.8952 39.9982 55.8894 39.8786C55.8854 39.7572 55.8835 39.6202 55.8835 39.4676V36.7862H56.4062V39.4455C56.4062 39.5669 56.4072 39.6708 56.4092 39.7572C56.4131 39.8437 56.4336 39.9182 56.4708 39.9807C56.5413 40.0984 56.6529 40.1674 56.8056 40.1876C56.9603 40.2078 57.1463 40.2023 57.3636 40.171V40.5931ZM55.2403 38.0193V37.6138H57.3636V38.0193H55.2403Z" fill="#1B1B1B"/>
<path d="M58.7329 40.6759C58.496 40.6759 58.2973 40.6354 58.1367 40.5545C57.9781 40.4717 57.8577 40.3632 57.7755 40.229C57.6952 40.0947 57.6551 39.9476 57.6551 39.7876C57.6551 39.6313 57.6864 39.4961 57.7491 39.3821C57.8137 39.2662 57.9037 39.1706 58.0193 39.0952C58.1348 39.0179 58.2728 38.9572 58.4333 38.9131C58.5841 38.8745 58.7525 38.8414 58.9384 38.8138C59.1264 38.7844 59.3163 38.7577 59.5082 38.7338C59.7 38.7099 59.8792 38.6869 60.0456 38.6648L59.8576 38.7669C59.8635 38.5021 59.8067 38.3062 59.6873 38.1793C59.5698 38.0524 59.3662 37.989 59.0765 37.989C58.8846 37.989 58.7162 38.0303 58.5714 38.1131C58.4284 38.194 58.3276 38.3264 58.2689 38.5103L57.7726 38.3697C57.8489 38.1085 57.9967 37.9034 58.216 37.7545C58.4353 37.6055 58.7241 37.531 59.0823 37.531C59.3701 37.531 59.6168 37.5798 59.8224 37.6772C60.0299 37.7729 60.1787 37.9182 60.2688 38.1131C60.3138 38.2051 60.3422 38.3053 60.3539 38.4138C60.3657 38.5205 60.3716 38.6326 60.3716 38.7503V40.5931H59.9076V39.8786L60.0162 39.9448C59.8968 40.1857 59.7294 40.3678 59.514 40.491C59.3006 40.6143 59.0403 40.6759 58.7329 40.6759ZM58.8122 40.2648C59.0001 40.2648 59.1626 40.2336 59.2997 40.171C59.4387 40.1067 59.5503 40.023 59.6344 39.92C59.7186 39.8152 59.7735 39.7011 59.7989 39.5779C59.8283 39.486 59.8439 39.3839 59.8459 39.2717C59.8498 39.1577 59.8518 39.0703 59.8518 39.0097L60.0338 39.0841C59.8635 39.1062 59.6961 39.1274 59.5317 39.1476C59.3672 39.1678 59.2116 39.1899 59.0647 39.2138C58.9179 39.2359 58.7857 39.2625 58.6683 39.2938C58.5821 39.3195 58.5009 39.3526 58.4245 39.3931C58.3501 39.4336 58.2894 39.486 58.2424 39.5503C58.1974 39.6129 58.1749 39.691 58.1749 39.7848C58.1749 39.8657 58.1964 39.943 58.2395 40.0166C58.2845 40.0901 58.3531 40.1499 58.4451 40.1959C58.5391 40.2418 58.6614 40.2648 58.8122 40.2648Z" fill="#1B1B1B"/>
<path d="M61.0176 40.5931V36.5379H61.5404V40.5931H61.0176Z" fill="#1B1B1B"/>
<path d="M62.1866 39.0566V38.651H63.9486V39.0566H62.1866Z" fill="#1B1B1B"/>
<path d="M65.4371 40.6759C65.2002 40.6759 65.0015 40.6354 64.8409 40.5545C64.6823 40.4717 64.5619 40.3632 64.4797 40.229C64.3994 40.0947 64.3593 39.9476 64.3593 39.7876C64.3593 39.6313 64.3906 39.4961 64.4533 39.3821C64.5179 39.2662 64.608 39.1706 64.7235 39.0952C64.839 39.0179 64.977 38.9572 65.1375 38.9131C65.2883 38.8745 65.4567 38.8414 65.6427 38.8138C65.8306 38.7844 66.0205 38.7577 66.2124 38.7338C66.4042 38.7099 66.5834 38.6869 66.7498 38.6648L66.5618 38.7669C66.5677 38.5021 66.5109 38.3062 66.3915 38.1793C66.274 38.0524 66.0704 37.989 65.7807 37.989C65.5888 37.989 65.4204 38.0303 65.2756 38.1131C65.1326 38.194 65.0318 38.3264 64.9731 38.5103L64.4768 38.3697C64.5531 38.1085 64.7009 37.9034 64.9202 37.7545C65.1395 37.6055 65.4283 37.531 65.7866 37.531C66.0743 37.531 66.321 37.5798 66.5266 37.6772C66.7341 37.7729 66.8829 37.9182 66.973 38.1131C67.018 38.2051 67.0464 38.3053 67.0582 38.4138C67.0699 38.5205 67.0758 38.6326 67.0758 38.7503V40.5931H66.6118V39.8786L66.7204 39.9448C66.601 40.1857 66.4336 40.3678 66.2182 40.491C66.0048 40.6143 65.7445 40.6759 65.4371 40.6759ZM65.5164 40.2648C65.7043 40.2648 65.8668 40.2336 66.0039 40.171C66.1429 40.1067 66.2545 40.023 66.3387 39.92C66.4228 39.8152 66.4777 39.7011 66.5031 39.5779C66.5325 39.486 66.5481 39.3839 66.5501 39.2717C66.554 39.1577 66.556 39.0703 66.556 39.0097L66.738 39.0841C66.5677 39.1062 66.4003 39.1274 66.2359 39.1476C66.0714 39.1678 65.9158 39.1899 65.7689 39.2138C65.6221 39.2359 65.4899 39.2625 65.3725 39.2938C65.2863 39.3195 65.2051 39.3526 65.1287 39.3931C65.0543 39.4336 64.9936 39.486 64.9466 39.5503C64.9016 39.6129 64.8791 39.691 64.8791 39.7848C64.8791 39.8657 64.9006 39.943 64.9437 40.0166C64.9887 40.0901 65.0573 40.1499 65.1493 40.1959C65.2433 40.2418 65.3656 40.2648 65.5164 40.2648Z" fill="#1B1B1B"/>
<path d="M67.6631 40.5931V37.6138H69.8657V38.08H68.1858V40.5931H67.6631Z" fill="#1B1B1B"/>
<path d="M71.6202 40.6759C71.3089 40.6759 71.0368 40.6115 70.8038 40.4828C70.5728 40.3522 70.3927 40.171 70.2634 39.9393C70.1342 39.7057 70.0696 39.4336 70.0696 39.1228C70.0696 38.7972 70.1332 38.5159 70.2605 38.2786C70.3878 38.0395 70.5649 37.8556 70.792 37.7269C71.0211 37.5963 71.2893 37.531 71.5967 37.531C71.9158 37.531 72.187 37.6 72.4102 37.7379C72.6353 37.8759 72.8037 38.0726 72.9153 38.3283C73.0289 38.5839 73.0778 38.8883 73.0621 39.2414H72.5335V39.0648C72.5277 38.6989 72.4484 38.4257 72.2957 38.2455C72.1429 38.0634 71.9158 37.9724 71.6143 37.9724C71.2913 37.9724 71.0456 38.0699 70.8772 38.2648C70.7088 38.4598 70.6247 38.7393 70.6247 39.1034C70.6247 39.4547 70.7088 39.7269 70.8772 39.92C71.0456 40.1131 71.2854 40.2097 71.5967 40.2097C71.8062 40.2097 71.9883 40.1646 72.1429 40.0745C72.2976 39.9844 72.419 39.8547 72.5071 39.6855L73.0093 39.8483C72.8859 40.1113 72.6999 40.3154 72.4513 40.4607C72.2046 40.6041 71.9276 40.6759 71.6202 40.6759ZM70.4485 39.2414V38.8469H72.792V39.2414H70.4485Z" fill="#1B1B1B"/>
<path d="M73.5368 40.5931V37.6138H74.0596V38.869H75.7276V37.6138H76.2504V40.5931H75.7276V39.3352H74.0596V40.5931H73.5368Z" fill="#1B1B1B"/>
<path d="M77.7367 40.5931V38.0607H76.6325V37.6138H79.3636V38.0607H78.2594V40.5931H77.7367Z" fill="#1B1B1B"/>
<path d="M81.0222 40.6759C80.7011 40.6759 80.428 40.6087 80.2029 40.4745C79.9797 40.3384 79.8093 40.1517 79.6919 39.9145C79.5744 39.6772 79.5137 39.4069 79.5098 39.1034C79.5137 38.7926 79.5754 38.5195 79.6948 38.2841C79.8162 38.0469 79.9895 37.8621 80.2146 37.7297C80.4398 37.5972 80.7109 37.531 81.0281 37.531C81.3629 37.531 81.6507 37.6083 81.8915 37.7628C82.1342 37.9172 82.2967 38.1287 82.379 38.3972L81.8621 38.5434C81.7955 38.3706 81.6869 38.2363 81.5361 38.1407C81.3873 38.0451 81.216 37.9972 81.0222 37.9972C80.8049 37.9972 80.6257 38.0451 80.4848 38.1407C80.3438 38.2345 80.2391 38.3651 80.1706 38.5324C80.102 38.6979 80.0668 38.8883 80.0648 39.1034C80.0687 39.4345 80.15 39.7021 80.3086 39.9062C80.4691 40.1085 80.707 40.2097 81.0222 40.2097C81.2297 40.2097 81.402 40.1655 81.5391 40.0772C81.6761 39.9871 81.7799 39.8575 81.8504 39.6883L82.379 39.8179C82.2693 40.0956 82.098 40.308 81.865 40.4552C81.6321 40.6023 81.3511 40.6759 81.0222 40.6759Z" fill="#1B1B1B"/>
<path d="M83.5847 40.5931V38.0607H82.4805V37.6138H85.2116V38.0607H84.1074V40.5931H83.5847Z" fill="#1B1B1B"/>
<path d="M85.5884 40.5931V37.6138H86.9393C87.0195 37.6138 87.1057 37.6184 87.1977 37.6276C87.2917 37.6349 87.3768 37.6487 87.4532 37.669C87.6235 37.7113 87.7635 37.7986 87.8731 37.931C87.9847 38.0616 88.0405 38.2271 88.0405 38.4276C88.0405 38.5398 88.0219 38.6372 87.9847 38.72C87.9495 38.8028 87.8986 38.8745 87.832 38.9352C87.8027 38.9628 87.7704 38.9876 87.7351 39.0097C87.6999 39.0317 87.6646 39.0492 87.6294 39.0621C87.6979 39.0731 87.7674 39.0979 87.8379 39.1366C87.9495 39.1936 88.0366 39.2736 88.0993 39.3766C88.1639 39.4795 88.1962 39.611 88.1962 39.771C88.1962 39.9733 88.1443 40.1407 88.0405 40.2731C87.9368 40.4037 87.7939 40.4938 87.6118 40.5434C87.5354 40.5637 87.4512 40.5775 87.3592 40.5848C87.2672 40.5903 87.1781 40.5931 87.092 40.5931H85.5884ZM86.117 40.1931H87.0626C87.1037 40.1931 87.1527 40.1894 87.2095 40.1821C87.2682 40.1747 87.3201 40.1655 87.3651 40.1545C87.4669 40.1269 87.5403 40.0754 87.5854 40C87.6323 39.9246 87.6558 39.8428 87.6558 39.7545C87.6558 39.6368 87.6206 39.5411 87.5501 39.4676C87.4816 39.394 87.3905 39.348 87.277 39.3297C87.2359 39.3186 87.1909 39.3122 87.1419 39.3103C87.0949 39.3085 87.0528 39.3076 87.0156 39.3076H86.117V40.1931ZM86.117 38.9021H86.904C86.9589 38.9021 87.0166 38.8993 87.0773 38.8938C87.138 38.8864 87.1909 38.8745 87.2359 38.8579C87.3259 38.8267 87.3915 38.7752 87.4326 38.7034C87.4757 38.6299 87.4972 38.5499 87.4972 38.4634C87.4972 38.3678 87.4738 38.2841 87.4268 38.2124C87.3817 38.1389 87.3122 38.0883 87.2183 38.0607C87.1556 38.0386 87.0851 38.0267 87.0068 38.0248C86.9305 38.0211 86.8815 38.0193 86.86 38.0193H86.117V38.9021Z" fill="#1B1B1B"/>
</g>
</svg>
