<svg width="120" height="60" viewBox="0 0 120 60" fill="none" xmlns="http://www.w3.org/2000/svg">
<rect width="120" height="60" rx="10" fill="white"/>
<path fill-rule="evenodd" clip-rule="evenodd" d="M88.1455 17.5523L91.1776 25.5319H85.1581L88.1455 17.5523ZM93.5855 31.4752H98L88.1455 7.86865L78.3359 31.4752H82.7946L83.8201 28.8154H92.5151L93.5855 31.4752ZM66.3411 27.7346V12.2741C66.3411 12.2741 76.5522 10.8195 76.5522 20.0044C76.5522 29.0648 66.3411 27.7346 66.3411 27.7346ZM62.1944 8.53393V31.4752H66.3413C72.4502 31.4752 80.6992 29.8129 80.6992 20.0044C80.6994 9.82156 72.3162 8.53393 66.3411 8.53393H62.1944ZM48.3716 12.3571H51.6713C51.6713 12.3571 55.7735 12.3571 55.7735 15.2249C55.7735 17.4692 53.2765 17.968 52.2063 18.0927L48.3716 12.3571ZM61.1689 31.4752L54.4802 21.5006C56.8435 20.8782 59.8756 19.2979 59.8756 15.2249C59.8756 8.5335 51.671 8.5335 51.671 8.5335H43.4667V12.3571L47.3461 18.0924H43.4667V31.4752H47.569V21.9163H49.9322L56.3531 31.4752H61.1689ZM32.8098 17.5523L35.7972 25.5319H29.8222L32.8098 17.5523ZM38.2051 31.4752H42.6629L32.8098 7.86865L23 31.4752H27.4145L28.4844 28.8154H37.1347L38.2051 31.4752Z" fill="#1B1B1B"/>
<g opacity="0.7">
<path d="M23.2722 41.6033L23.9253 40.3117L22 36.3936H22.7557L24.2785 39.6243L25.8355 36.3936H26.557L24.0051 41.6033H23.2722Z" fill="#1B1B1B"/>
<path d="M29.2345 41.6033V40.1959C29.0978 40.2611 28.932 40.3165 28.737 40.3624C28.5446 40.4082 28.3383 40.4311 28.118 40.4311C27.7003 40.4311 27.3636 40.3418 27.1079 40.1634C26.8522 39.9849 26.6851 39.728 26.6066 39.3928C26.5839 39.2915 26.5674 39.1865 26.5573 39.078C26.5497 38.9695 26.5446 38.8706 26.5421 38.7813C26.5396 38.6921 26.5383 38.627 26.5383 38.586V37.696H27.2218V38.586C27.2218 38.6559 27.2244 38.7428 27.2294 38.8465C27.2345 38.9478 27.2471 39.0467 27.2674 39.1431C27.318 39.3819 27.4231 39.5616 27.5826 39.6822C27.7446 39.8028 27.9725 39.8631 28.2661 39.8631C28.4636 39.8631 28.6459 39.839 28.813 39.7907C28.9801 39.7425 29.1206 39.6786 29.2345 39.599V37.696H29.9142V41.6033H29.2345Z" fill="#1B1B1B"/>
<path d="M31.9169 41.7118C31.6106 41.7118 31.3536 41.6588 31.1461 41.5526C30.941 41.4441 30.7853 41.3018 30.679 41.1257C30.5752 40.9497 30.5233 40.7567 30.5233 40.5469C30.5233 40.3418 30.5638 40.1646 30.6448 40.015C30.7283 39.8631 30.8448 39.7377 30.9942 39.6388C31.1435 39.5375 31.322 39.4579 31.5296 39.4C31.7245 39.3493 31.9423 39.3059 32.1828 39.2698C32.4258 39.2312 32.6714 39.1962 32.9195 39.1648C33.1676 39.1335 33.3992 39.1033 33.6144 39.0744L33.3714 39.2083C33.379 38.8609 33.3056 38.6041 33.1511 38.4376C32.9992 38.2712 32.7359 38.188 32.3612 38.188C32.1131 38.188 31.8954 38.2423 31.7081 38.3508C31.5233 38.4569 31.3929 38.6306 31.3169 38.8718L30.6752 38.6873C30.7739 38.3448 30.965 38.0759 31.2486 37.8805C31.5321 37.6851 31.9056 37.5874 32.3688 37.5874C32.741 37.5874 33.06 37.6514 33.3258 37.7792C33.5942 37.9046 33.7866 38.0952 33.903 38.3508C33.9613 38.4714 33.998 38.6029 34.0132 38.7452C34.0283 38.8851 34.0359 39.0322 34.0359 39.1865V41.6033H33.4359V40.6663L33.5764 40.7531C33.422 41.069 33.2056 41.3078 32.9271 41.4694C32.6511 41.631 32.3144 41.7118 31.9169 41.7118ZM32.0195 41.1728C32.2625 41.1728 32.4726 41.1318 32.6499 41.0497C32.8296 40.9653 32.9739 40.8556 33.0828 40.7205C33.1916 40.583 33.2625 40.4335 33.2954 40.2719C33.3334 40.1513 33.3537 40.0174 33.3562 39.8703C33.3613 39.7208 33.3638 39.6062 33.3638 39.5266L33.5992 39.6243C33.379 39.6532 33.1625 39.681 32.9499 39.7075C32.7372 39.734 32.5359 39.763 32.3461 39.7943C32.1562 39.8233 31.9853 39.8583 31.8334 39.8993C31.722 39.933 31.6169 39.9764 31.5182 40.0295C31.422 40.0826 31.3435 40.1513 31.2828 40.2357C31.2245 40.3177 31.1954 40.4202 31.1954 40.5432C31.1954 40.6494 31.2233 40.7507 31.279 40.8471C31.3372 40.9436 31.4258 41.022 31.5448 41.0823C31.6663 41.1426 31.8245 41.1728 32.0195 41.1728Z" fill="#1B1B1B"/>
<path d="M36.5233 41.7118C36.1081 41.7118 35.7549 41.6238 35.4638 41.4477C35.1752 41.2692 34.9549 41.0244 34.803 40.7133C34.6511 40.4021 34.5726 40.0476 34.5676 39.6496C34.5726 39.242 34.6524 38.8839 34.8068 38.5751C34.9638 38.264 35.1878 38.0216 35.479 37.8479C35.7701 37.6743 36.1208 37.5874 36.5309 37.5874C36.9638 37.5874 37.3359 37.6887 37.6473 37.8914C37.9613 38.094 38.1714 38.3713 38.2777 38.7235L37.6094 38.9152C37.5233 38.6885 37.3828 38.5124 37.1878 38.387C36.9954 38.2616 36.7739 38.1989 36.5233 38.1989C36.2423 38.1989 36.0106 38.2616 35.8283 38.387C35.6461 38.51 35.5106 38.6813 35.422 38.9007C35.3334 39.1178 35.2878 39.3674 35.2853 39.6496C35.2904 40.0838 35.3954 40.4347 35.6005 40.7024C35.8081 40.9677 36.1157 41.1004 36.5233 41.1004C36.7916 41.1004 37.0144 41.0425 37.1916 40.9267C37.3689 40.8086 37.503 40.6385 37.5942 40.4166L38.2777 40.5867C38.136 40.9509 37.9144 41.2294 37.6132 41.4224C37.3119 41.6153 36.9486 41.7118 36.5233 41.7118Z" fill="#1B1B1B"/>
<path d="M39.8368 41.6033V38.2821H38.409V37.696H41.9406V38.2821H40.5128V41.6033H39.8368Z" fill="#1B1B1B"/>
<path d="M42.4278 41.6033V37.696H43.1038V39.3421H45.2608V37.696H45.9367V41.6033H45.2608V39.9535H43.1038V41.6033H42.4278Z" fill="#1B1B1B"/>
<path d="M50.1296 37.696V41.6033H49.4764V38.7235L47.3271 41.6033H46.7688V37.696H47.422V40.536L49.5752 37.696H50.1296Z" fill="#1B1B1B"/>
<path d="M50.9615 41.6033L50.9653 37.696H51.6488V39.5773L53.3691 37.696H54.2463L52.4349 39.6496L54.459 41.6033H53.5134L51.6488 39.722V41.6033H50.9615Z" fill="#1B1B1B"/>
<path d="M57.0675 41.7118C56.7612 41.7118 56.5042 41.6588 56.2966 41.5526C56.0916 41.4441 55.9359 41.3018 55.8296 41.1257C55.7258 40.9497 55.6739 40.7567 55.6739 40.5469C55.6739 40.3418 55.7144 40.1646 55.7954 40.015C55.8789 39.8631 55.9954 39.7377 56.1447 39.6388C56.2941 39.5375 56.4726 39.4579 56.6802 39.4C56.8751 39.3493 57.0929 39.3059 57.3334 39.2698C57.5764 39.2312 57.822 39.1962 58.0701 39.1648C58.3182 39.1335 58.5498 39.1033 58.765 39.0744L58.522 39.2083C58.5296 38.8609 58.4561 38.6041 58.3017 38.4376C58.1498 38.2712 57.8865 38.188 57.5118 38.188C57.2637 38.188 57.046 38.2423 56.8587 38.3508C56.6739 38.4569 56.5435 38.6306 56.4675 38.8718L55.8258 38.6873C55.9245 38.3448 56.1156 38.0759 56.3992 37.8805C56.6827 37.6851 57.0561 37.5874 57.5194 37.5874C57.8916 37.5874 58.2106 37.6514 58.4764 37.7792C58.7448 37.9046 58.9372 38.0952 59.0536 38.3508C59.1118 38.4714 59.1486 38.6029 59.1637 38.7452C59.1789 38.8851 59.1865 39.0322 59.1865 39.1865V41.6033H58.5865V40.6663L58.727 40.7531C58.5726 41.069 58.3561 41.3078 58.0777 41.4694C57.8017 41.631 57.465 41.7118 57.0675 41.7118ZM57.1701 41.1728C57.4131 41.1728 57.6232 41.1318 57.8004 41.0497C57.9802 40.9653 58.1245 40.8556 58.2334 40.7205C58.3422 40.583 58.4131 40.4335 58.446 40.2719C58.484 40.1513 58.5042 40.0174 58.5068 39.8703C58.5118 39.7208 58.5144 39.6062 58.5144 39.5266L58.7498 39.6243C58.5296 39.6532 58.3131 39.681 58.1005 39.7075C57.8878 39.734 57.6865 39.763 57.4967 39.7943C57.3068 39.8233 57.1359 39.8583 56.984 39.8993C56.8726 39.933 56.7675 39.9764 56.6688 40.0295C56.5726 40.0826 56.4941 40.1513 56.4334 40.2357C56.3751 40.3177 56.346 40.4202 56.346 40.5432C56.346 40.6494 56.3739 40.7507 56.4296 40.8471C56.4878 40.9436 56.5764 41.022 56.6954 41.0823C56.8169 41.1426 56.9751 41.1728 57.1701 41.1728Z" fill="#1B1B1B"/>
<path d="M61.6739 41.7118C61.2587 41.7118 60.9055 41.6238 60.6144 41.4477C60.3258 41.2692 60.1055 41.0244 59.9536 40.7133C59.8017 40.4021 59.7232 40.0476 59.7182 39.6496C59.7232 39.242 59.803 38.8839 59.9574 38.5751C60.1144 38.264 60.3384 38.0216 60.6296 37.8479C60.9207 37.6743 61.2713 37.5874 61.6815 37.5874C62.1144 37.5874 62.4865 37.6887 62.7979 37.8914C63.1119 38.094 63.322 38.3713 63.4283 38.7235L62.76 38.9152C62.6739 38.6885 62.5334 38.5124 62.3384 38.387C62.146 38.2616 61.9245 38.1989 61.6739 38.1989C61.3929 38.1989 61.1612 38.2616 60.9789 38.387C60.7967 38.51 60.6612 38.6813 60.5726 38.9007C60.484 39.1178 60.4384 39.3674 60.4359 39.6496C60.441 40.0838 60.546 40.4347 60.7511 40.7024C60.9587 40.9677 61.2663 41.1004 61.6739 41.1004C61.9422 41.1004 62.165 41.0425 62.3422 40.9267C62.5195 40.8086 62.6536 40.6385 62.7448 40.4166L63.4283 40.5867C63.2865 40.9509 63.065 41.2294 62.7638 41.4224C62.4625 41.6153 62.0992 41.7118 61.6739 41.7118Z" fill="#1B1B1B"/>
<path d="M65.5921 41.7118C65.1769 41.7118 64.8238 41.6238 64.5326 41.4477C64.244 41.2692 64.0238 41.0244 63.8719 40.7133C63.72 40.4021 63.6415 40.0476 63.6364 39.6496C63.6415 39.242 63.7212 38.8839 63.8756 38.5751C64.0326 38.264 64.2567 38.0216 64.5478 37.8479C64.8389 37.6743 65.1896 37.5874 65.5997 37.5874C66.0326 37.5874 66.4048 37.6887 66.7162 37.8914C67.0301 38.094 67.2402 38.3713 67.3465 38.7235L66.6782 38.9152C66.5921 38.6885 66.4516 38.5124 66.2567 38.387C66.0643 38.2616 65.8427 38.1989 65.5921 38.1989C65.3111 38.1989 65.0794 38.2616 64.8972 38.387C64.7149 38.51 64.5794 38.6813 64.4908 38.9007C64.4022 39.1178 64.3567 39.3674 64.3541 39.6496C64.3592 40.0838 64.4643 40.4347 64.6693 40.7024C64.8769 40.9677 65.1845 41.1004 65.5921 41.1004C65.8605 41.1004 66.0833 41.0425 66.2605 40.9267C66.4377 40.8086 66.5719 40.6385 66.663 40.4166L67.3465 40.5867C67.2048 40.9509 66.9833 41.2294 66.682 41.4224C66.3807 41.6153 66.0174 41.7118 65.5921 41.7118Z" fill="#1B1B1B"/>
<path d="M69.5293 41.7118C69.1217 41.7118 68.7698 41.6238 68.4736 41.4477C68.18 41.2716 67.9534 41.028 67.7939 40.7169C67.6344 40.4058 67.5546 40.0488 67.5546 39.646C67.5546 39.236 67.6357 38.8766 67.7977 38.5679C67.9597 38.2592 68.1888 38.0192 68.485 37.8479C68.7812 37.6743 69.1293 37.5874 69.5293 37.5874C69.9395 37.5874 70.2926 37.6755 70.5888 37.8516C70.885 38.0252 71.1116 38.2676 71.2686 38.5787C71.4281 38.8875 71.5078 39.2432 71.5078 39.646C71.5078 40.0536 71.4281 40.413 71.2686 40.7241C71.1091 41.0329 70.8812 41.2753 70.585 41.4513C70.2888 41.625 69.9369 41.7118 69.5293 41.7118ZM69.5293 41.1004C69.9546 41.1004 70.2711 40.9653 70.4787 40.6952C70.6863 40.4251 70.7901 40.0753 70.7901 39.646C70.7901 39.2046 70.685 38.8537 70.4749 38.5932C70.2648 38.3303 69.9496 38.1989 69.5293 38.1989C69.2432 38.1989 69.0078 38.2604 68.823 38.3834C68.6382 38.5064 68.5002 38.6764 68.4091 38.8935C68.3179 39.1106 68.2724 39.3614 68.2724 39.646C68.2724 40.085 68.3787 40.4371 68.5914 40.7024C68.804 40.9677 69.1167 41.1004 69.5293 41.1004Z" fill="#1B1B1B"/>
<path d="M75.6097 42.3269V41.6033H72.1123V37.696H72.7882V40.9919H74.7971V37.696H75.473V41.0172H76.2857V42.3269H75.6097Z" fill="#1B1B1B"/>
<path d="M80.0217 37.696V41.6033H79.3685V38.7235L77.2192 41.6033H76.6609V37.696H77.3141V40.536L79.4673 37.696H80.0217Z" fill="#1B1B1B"/>
<path d="M82.0232 41.7118C81.7169 41.7118 81.4599 41.6588 81.2523 41.5526C81.0473 41.4441 80.8916 41.3018 80.7852 41.1257C80.6814 40.9497 80.6295 40.7567 80.6295 40.5469C80.6295 40.3418 80.67 40.1646 80.7511 40.015C80.8346 39.8631 80.9511 39.7377 81.1004 39.6388C81.2498 39.5375 81.4283 39.4579 81.6359 39.4C81.8308 39.3493 82.0485 39.3059 82.289 39.2698C82.5321 39.2312 82.7776 39.1962 83.0257 39.1648C83.2738 39.1335 83.5055 39.1033 83.7207 39.0744L83.4776 39.2083C83.4852 38.8609 83.4118 38.6041 83.2574 38.4376C83.1055 38.2712 82.8422 38.188 82.4675 38.188C82.2194 38.188 82.0017 38.2423 81.8144 38.3508C81.6295 38.4569 81.4992 38.6306 81.4232 38.8718L80.7814 38.6873C80.8802 38.3448 81.0713 38.0759 81.3549 37.8805C81.6384 37.6851 82.0118 37.5874 82.4751 37.5874C82.8473 37.5874 83.1663 37.6514 83.4321 37.7792C83.7004 37.9046 83.8928 38.0952 84.0093 38.3508C84.0675 38.4714 84.1042 38.6029 84.1194 38.7452C84.1346 38.8851 84.1422 39.0322 84.1422 39.1865V41.6033H83.5422V40.6663L83.6827 40.7531C83.5283 41.069 83.3118 41.3078 83.0333 41.4694C82.7574 41.631 82.4207 41.7118 82.0232 41.7118ZM82.1257 41.1728C82.3688 41.1728 82.5789 41.1318 82.7561 41.0497C82.9359 40.9653 83.0802 40.8556 83.189 40.7205C83.2979 40.583 83.3688 40.4335 83.4017 40.2719C83.4397 40.1513 83.4599 40.0174 83.4625 39.8703C83.4675 39.7208 83.4701 39.6062 83.4701 39.5266L83.7055 39.6243C83.4852 39.6532 83.2688 39.681 83.0561 39.7075C82.8435 39.734 82.6422 39.763 82.4523 39.7943C82.2625 39.8233 82.0916 39.8583 81.9397 39.8993C81.8283 39.933 81.7232 39.9764 81.6245 40.0295C81.5283 40.0826 81.4498 40.1513 81.389 40.2357C81.3308 40.3177 81.3017 40.4202 81.3017 40.5432C81.3017 40.6494 81.3295 40.7507 81.3852 40.8471C81.4435 40.9436 81.5321 41.022 81.6511 41.0823C81.7726 41.1426 81.9308 41.1728 82.1257 41.1728Z" fill="#1B1B1B"/>
<path d="M88.3954 42.3269V41.6033H84.8979V37.696H85.5739V40.9919H87.5827V37.696H88.2587V41.0172H89.0713V42.3269H88.3954Z" fill="#1B1B1B"/>
<path d="M92.8074 37.696V41.6033H92.1542V38.7235L90.0048 41.6033H89.4466V37.696H90.0997V40.536L92.2529 37.696H92.8074Z" fill="#1B1B1B"/>
<path d="M97 37.696V41.6033H96.3468V38.7235L94.1975 41.6033H93.6392V37.696H94.2924V40.536L96.4456 37.696H97Z" fill="#1B1B1B"/>
<path d="M24.0279 50.3947C23.6456 50.3947 23.3177 50.3042 23.0443 50.1233C22.7709 49.94 22.5595 49.6928 22.4101 49.3817C22.2633 49.0705 22.1899 48.7196 22.1899 48.3289C22.1899 47.9382 22.2633 47.5872 22.4101 47.2761C22.5595 46.965 22.7709 46.7201 23.0443 46.5417C23.3177 46.3608 23.6443 46.2703 24.0241 46.2703C24.4114 46.2703 24.7367 46.3596 25 46.538C25.2633 46.7165 25.462 46.9613 25.5962 47.2725C25.7329 47.5836 25.8013 47.9357 25.8013 48.3289C25.8013 48.7172 25.7329 49.0681 25.5962 49.3817C25.462 49.6928 25.2633 49.94 25 50.1233C24.7367 50.3042 24.4127 50.3947 24.0279 50.3947ZM24.1114 49.805C24.3873 49.805 24.6139 49.7423 24.7911 49.6168C24.9684 49.489 25.0987 49.3142 25.1823 49.0923C25.2684 48.8679 25.3114 48.6135 25.3114 48.3289C25.3114 48.0395 25.2684 47.785 25.1823 47.5655C25.0987 47.3436 24.9696 47.1712 24.7949 47.0482C24.6203 46.9227 24.3987 46.86 24.1304 46.86C23.8519 46.86 23.6215 46.9252 23.4392 47.0554C23.2595 47.1856 23.1253 47.3617 23.0367 47.5836C22.9506 47.8055 22.9076 48.0539 22.9076 48.3289C22.9076 48.6063 22.9519 48.8571 23.0405 49.0814C23.1291 49.3033 23.262 49.4794 23.4392 49.6096C23.619 49.7399 23.843 49.805 24.1114 49.805ZM25.3114 50.2862V47.4099H25.2355V45.0764H25.9152V50.2862H25.3114Z" fill="#1B1B1B"/>
<path d="M26.8273 45.6878V45.0222H27.5032V45.6878H26.8273ZM26.8273 50.2862V46.3789H27.5032V50.2862H26.8273Z" fill="#1B1B1B"/>
<path d="M30.0743 52.1313C29.8591 52.1313 29.649 52.0999 29.4439 52.0372C29.2388 51.9745 29.0502 51.8792 28.8781 51.7514C28.7084 51.626 28.5667 51.4668 28.4528 51.2738L29.0717 50.9627C29.173 51.1532 29.316 51.2919 29.5009 51.3787C29.6882 51.4656 29.8806 51.509 30.0781 51.509C30.3388 51.509 30.5553 51.4632 30.7274 51.3715C30.8996 51.2823 31.0262 51.1484 31.1072 50.9699C31.1907 50.7914 31.2312 50.5695 31.2287 50.3042V49.237H31.3085V46.3789H31.9085V50.3115C31.9085 50.4176 31.9047 50.5201 31.8971 50.619C31.892 50.7179 31.8793 50.8156 31.8591 50.912C31.8059 51.1894 31.7009 51.4173 31.5439 51.5958C31.3869 51.7767 31.1844 51.9106 30.9363 51.9974C30.6882 52.0866 30.4009 52.1313 30.0743 52.1313ZM30.0249 50.3947C29.6426 50.3947 29.3148 50.3042 29.0414 50.1233C28.7679 49.94 28.5565 49.6928 28.4072 49.3817C28.2603 49.0705 28.1869 48.7196 28.1869 48.3289C28.1869 47.9382 28.2603 47.5872 28.4072 47.2761C28.5565 46.965 28.7679 46.7201 29.0414 46.5417C29.3148 46.3608 29.6414 46.2703 30.0211 46.2703C30.4085 46.2703 30.7338 46.3596 30.9971 46.538C31.2604 46.7165 31.4591 46.9613 31.5933 47.2725C31.73 47.5836 31.7983 47.9357 31.7983 48.3289C31.7983 48.7172 31.73 49.0681 31.5933 49.3817C31.4591 49.6928 31.2604 49.94 30.9971 50.1233C30.7338 50.3042 30.4097 50.3947 30.0249 50.3947ZM30.1085 49.805C30.3844 49.805 30.611 49.7423 30.7882 49.6168C30.9654 49.489 31.0958 49.3142 31.1793 49.0923C31.2654 48.8679 31.3085 48.6135 31.3085 48.3289C31.3085 48.0395 31.2654 47.785 31.1793 47.5655C31.0958 47.3436 30.9667 47.1712 30.792 47.0482C30.6173 46.9227 30.3958 46.86 30.1274 46.86C29.849 46.86 29.6186 46.9252 29.4363 47.0554C29.2566 47.1856 29.1224 47.3617 29.0338 47.5836C28.9477 47.8055 28.9047 48.0539 28.9047 48.3289C28.9047 48.6063 28.949 48.8571 29.0376 49.0814C29.1262 49.3033 29.2591 49.4794 29.4363 49.6096C29.616 49.7399 29.8401 49.805 30.1085 49.805Z" fill="#1B1B1B"/>
<path d="M32.8169 45.6878V45.0222H33.4928V45.6878H32.8169ZM32.8169 50.2862V46.3789H33.4928V50.2862H32.8169Z" fill="#1B1B1B"/>
<path d="M36.6943 50.2862C36.4513 50.332 36.2107 50.3501 35.9728 50.3404C35.7373 50.3332 35.5272 50.2886 35.3424 50.2066C35.1576 50.1221 35.0171 49.9919 34.9209 49.8158C34.8399 49.6615 34.7956 49.5059 34.788 49.3491C34.7829 49.1899 34.7804 49.0103 34.7804 48.8101V45.2935H35.4563V48.7811C35.4563 48.9403 35.4576 49.0766 35.4601 49.1899C35.4652 49.3033 35.4918 49.401 35.5399 49.483C35.631 49.6373 35.7753 49.7278 35.9728 49.7543C36.1728 49.7809 36.4133 49.7736 36.6943 49.7326V50.2862ZM33.9487 46.9107V46.3789H36.6943V46.9107H33.9487Z" fill="#1B1B1B"/>
<path d="M38.4649 50.3947C38.1586 50.3947 37.9016 50.3416 37.694 50.2355C37.489 50.127 37.3333 49.9847 37.2269 49.8086C37.1231 49.6325 37.0713 49.4396 37.0713 49.2297C37.0713 49.0247 37.1118 48.8474 37.1928 48.6979C37.2763 48.546 37.3928 48.4205 37.5421 48.3217C37.6915 48.2204 37.87 48.1408 38.0776 48.0829C38.2725 48.0322 38.4902 47.9888 38.7307 47.9526C38.9738 47.914 39.2194 47.8791 39.4675 47.8477C39.7156 47.8164 39.9472 47.7862 40.1624 47.7573L39.9194 47.8911C39.927 47.5438 39.8535 47.2869 39.6991 47.1205C39.5472 46.9541 39.2839 46.8709 38.9092 46.8709C38.6611 46.8709 38.4434 46.9252 38.2561 47.0337C38.0713 47.1398 37.9409 47.3135 37.8649 47.5547L37.2232 47.3702C37.3219 47.0277 37.513 46.7587 37.7966 46.5634C38.0801 46.368 38.4535 46.2703 38.9168 46.2703C39.289 46.2703 39.608 46.3342 39.8738 46.4621C40.1421 46.5875 40.3346 46.778 40.451 47.0337C40.5092 47.1543 40.5459 47.2857 40.5611 47.428C40.5763 47.5679 40.5839 47.7151 40.5839 47.8694V50.2862H39.9839V49.3491L40.1244 49.436C39.97 49.7519 39.7535 49.9907 39.4751 50.1523C39.1991 50.3139 38.8624 50.3947 38.4649 50.3947ZM38.5675 49.8556C38.8105 49.8556 39.0206 49.8146 39.1978 49.7326C39.3776 49.6482 39.5219 49.5385 39.6308 49.4034C39.7396 49.2659 39.8105 49.1164 39.8434 48.9548C39.8814 48.8342 39.9016 48.7003 39.9042 48.5532C39.9092 48.4037 39.9118 48.2891 39.9118 48.2095L40.1472 48.3072C39.927 48.3361 39.7105 48.3639 39.4978 48.3904C39.2852 48.4169 39.0839 48.4459 38.894 48.4772C38.7042 48.5062 38.5333 48.5411 38.3814 48.5821C38.27 48.6159 38.1649 48.6593 38.0662 48.7124C37.97 48.7654 37.8915 48.8342 37.8307 48.9186C37.7725 49.0006 37.7434 49.1031 37.7434 49.2261C37.7434 49.3322 37.7713 49.4335 37.827 49.53C37.8852 49.6265 37.9738 49.7049 38.0928 49.7652C38.2143 49.8255 38.3725 49.8556 38.5675 49.8556Z" fill="#1B1B1B"/>
<path d="M41.4194 50.2862V44.9679H42.0953V50.2862H41.4194Z" fill="#1B1B1B"/>
<path d="M42.9309 48.271V47.7392H45.2094V48.271H42.9309Z" fill="#1B1B1B"/>
<path d="M47.1342 50.3947C46.8278 50.3947 46.5709 50.3416 46.3633 50.2355C46.1582 50.127 46.0025 49.9847 45.8962 49.8086C45.7924 49.6325 45.7405 49.4396 45.7405 49.2297C45.7405 49.0247 45.781 48.8474 45.862 48.6979C45.9455 48.546 46.062 48.4205 46.2114 48.3217C46.3607 48.2204 46.5392 48.1408 46.7468 48.0829C46.9418 48.0322 47.1595 47.9888 47.4 47.9526C47.643 47.914 47.8886 47.8791 48.1367 47.8477C48.3848 47.8164 48.6164 47.7862 48.8316 47.7573L48.5886 47.8911C48.5962 47.5438 48.5228 47.2869 48.3683 47.1205C48.2164 46.9541 47.9531 46.8709 47.5785 46.8709C47.3304 46.8709 47.1126 46.9252 46.9253 47.0337C46.7405 47.1398 46.6101 47.3135 46.5342 47.5547L45.8924 47.3702C45.9911 47.0277 46.1823 46.7587 46.4658 46.5634C46.7493 46.368 47.1228 46.2703 47.5861 46.2703C47.9582 46.2703 48.2772 46.3342 48.543 46.4621C48.8114 46.5875 49.0038 46.778 49.1202 47.0337C49.1785 47.1543 49.2152 47.2857 49.2304 47.428C49.2456 47.5679 49.2532 47.7151 49.2532 47.8694V50.2862H48.6532V49.3491L48.7937 49.436C48.6392 49.7519 48.4228 49.9907 48.1443 50.1523C47.8683 50.3139 47.5316 50.3947 47.1342 50.3947ZM47.2367 49.8556C47.4797 49.8556 47.6899 49.8146 47.8671 49.7326C48.0468 49.6482 48.1911 49.5385 48.3 49.4034C48.4088 49.2659 48.4797 49.1164 48.5126 48.9548C48.5506 48.8342 48.5709 48.7003 48.5734 48.5532C48.5785 48.4037 48.581 48.2891 48.581 48.2095L48.8164 48.3072C48.5962 48.3361 48.3797 48.3639 48.1671 48.3904C47.9544 48.4169 47.7531 48.4459 47.5633 48.4772C47.3734 48.5062 47.2025 48.5411 47.0506 48.5821C46.9392 48.6159 46.8342 48.6593 46.7354 48.7124C46.6392 48.7654 46.5607 48.8342 46.5 48.9186C46.4417 49.0006 46.4126 49.1031 46.4126 49.2261C46.4126 49.3322 46.4405 49.4335 46.4962 49.53C46.5544 49.6265 46.643 49.7049 46.762 49.7652C46.8835 49.8255 47.0418 49.8556 47.2367 49.8556Z" fill="#1B1B1B"/>
<path d="M50.0126 50.2862V46.3789H52.8608V46.9903H50.6886V50.2862H50.0126Z" fill="#1B1B1B"/>
<path d="M55.1296 50.3947C54.727 50.3947 54.3751 50.3103 54.0739 50.1414C53.7751 49.9702 53.5422 49.7326 53.3751 49.4287C53.2081 49.1224 53.1245 48.7654 53.1245 48.3578C53.1245 47.9309 53.2068 47.5619 53.3713 47.2508C53.5359 46.9372 53.765 46.696 54.0587 46.5272C54.3549 46.3559 54.7017 46.2703 55.0992 46.2703C55.5119 46.2703 55.8625 46.3608 56.1511 46.5417C56.4422 46.7226 56.66 46.9806 56.8043 47.3159C56.9511 47.6511 57.0144 48.0503 56.9941 48.5134H56.3106V48.2819C56.303 47.8019 56.2005 47.4437 56.003 47.2073C55.8055 46.9686 55.5119 46.8492 55.122 46.8492C54.7043 46.8492 54.3865 46.977 54.1688 47.2327C53.9511 47.4883 53.8422 47.8549 53.8422 48.3325C53.8422 48.7932 53.9511 49.1501 54.1688 49.4034C54.3865 49.6566 54.6967 49.7833 55.0992 49.7833C55.3701 49.7833 55.6055 49.7242 55.8055 49.606C56.0055 49.4878 56.1625 49.3178 56.2764 49.0959L56.9258 49.3093C56.7663 49.6542 56.5258 49.922 56.2043 50.1125C55.8853 50.3006 55.527 50.3947 55.1296 50.3947ZM53.6144 48.5134V47.996H56.6448V48.5134H53.6144Z" fill="#1B1B1B"/>
<path d="M57.608 50.2862V46.3789H58.2839V48.025H60.4409V46.3789H61.1168V50.2862H60.4409V48.6364H58.2839V50.2862H57.608Z" fill="#1B1B1B"/>
<path d="M63.0388 50.2862V46.965H61.611V46.3789H65.1426V46.965H63.7148V50.2862H63.0388Z" fill="#1B1B1B"/>
<path d="M67.2873 50.3947C66.8721 50.3947 66.519 50.3067 66.2278 50.1306C65.9392 49.9521 65.719 49.7073 65.5671 49.3962C65.4152 49.085 65.3367 48.7305 65.3316 48.3325C65.3367 47.9249 65.4164 47.5667 65.5709 47.258C65.7278 46.9469 65.9519 46.7045 66.243 46.5308C66.5342 46.3572 66.8848 46.2703 67.2949 46.2703C67.7278 46.2703 68.1 46.3716 68.4114 46.5742C68.7253 46.7768 68.9354 47.0542 69.0418 47.4063L68.3734 47.5981C68.2873 47.3714 68.1468 47.1953 67.9519 47.0699C67.7595 46.9445 67.538 46.8817 67.2873 46.8817C67.0063 46.8817 66.7747 46.9445 66.5924 47.0699C66.4101 47.1929 66.2747 47.3641 66.1861 47.5836C66.0975 47.8007 66.0519 48.0503 66.0493 48.3325C66.0544 48.7666 66.1595 49.1176 66.3645 49.3853C66.5721 49.6506 66.8797 49.7833 67.2873 49.7833C67.5557 49.7833 67.7785 49.7254 67.9557 49.6096C68.1329 49.4914 68.2671 49.3214 68.3582 49.0995L69.0418 49.2695C68.9 49.6337 68.6785 49.9123 68.3772 50.1053C68.0759 50.2982 67.7126 50.3947 67.2873 50.3947Z" fill="#1B1B1B"/>
<path d="M70.6009 50.2862V46.965H69.173V46.3789H72.7047V46.965H71.2768V50.2862H70.6009Z" fill="#1B1B1B"/>
<path d="M73.1919 50.2862V46.3789H74.9387C75.0425 46.3789 75.1539 46.3849 75.2729 46.3969C75.3944 46.4066 75.5045 46.4247 75.6033 46.4512C75.8235 46.5067 76.0045 46.6213 76.1463 46.7949C76.2906 46.9662 76.3628 47.1832 76.3628 47.4461C76.3628 47.5933 76.3387 47.7211 76.2906 47.8296C76.245 47.9382 76.1792 48.0322 76.0932 48.1118C76.0552 48.148 76.0134 48.1806 75.9678 48.2095C75.9223 48.2384 75.8767 48.2614 75.8311 48.2782C75.9197 48.2927 76.0096 48.3253 76.1007 48.3759C76.2451 48.4507 76.3577 48.5556 76.4387 48.6907C76.5223 48.8257 76.564 48.9982 76.564 49.208C76.564 49.4733 76.497 49.6928 76.3628 49.8665C76.2286 50.0377 76.0438 50.1559 75.8083 50.221C75.7096 50.2476 75.6007 50.2656 75.4818 50.2753C75.3628 50.2825 75.2476 50.2862 75.1362 50.2862H73.1919ZM73.8754 49.7616H75.0982C75.1514 49.7616 75.2147 49.7567 75.2881 49.7471C75.364 49.7374 75.4311 49.7254 75.4894 49.7109C75.621 49.6747 75.7159 49.6072 75.7742 49.5083C75.8349 49.4094 75.8653 49.3021 75.8653 49.1863C75.8653 49.032 75.8197 48.9065 75.7286 48.8101C75.64 48.7136 75.5223 48.6533 75.3754 48.6292C75.3223 48.6147 75.264 48.6063 75.2007 48.6038C75.14 48.6014 75.0856 48.6002 75.0374 48.6002H73.8754V49.7616ZM73.8754 48.0684H74.8932C74.964 48.0684 75.0387 48.0648 75.1172 48.0575C75.1957 48.0479 75.264 48.0322 75.3223 48.0105C75.4387 47.9695 75.5235 47.902 75.5767 47.8079C75.6324 47.7114 75.6602 47.6065 75.6602 47.4932C75.6602 47.3677 75.6299 47.258 75.5691 47.1639C75.5109 47.0675 75.421 47.0011 75.2995 46.965C75.2185 46.936 75.1273 46.9203 75.0261 46.9179C74.9273 46.9131 74.864 46.9107 74.8362 46.9107H73.8754V48.0684Z" fill="#1B1B1B"/>
</g>
</svg>
