<svg width="36" height="36" viewBox="0 0 36 36" fill="none" xmlns="http://www.w3.org/2000/svg">
<g>
<path fill-rule="evenodd" clip-rule="evenodd" d="M10.3576 6C8.93702 6 7.57461 6.56418 6.56993 7.56847C5.56524 8.57277 5.00055 9.93496 5 11.3555V25.6424C5 27.0633 5.56446 28.4261 6.5692 29.4308C7.57394 30.4355 8.93666 31 10.3576 31H24.6445C26.065 30.9995 27.4272 30.4348 28.4315 29.4301C29.4358 28.4254 30 27.063 30 25.6424V11.3555C29.9995 9.93532 29.435 8.57344 28.4308 7.5692C27.4266 6.56496 26.0647 6.00055 24.6445 6H10.3576ZM26.1855 11.3638C26.1855 11.773 26.0229 12.1655 25.7335 12.4549C25.4442 12.7443 25.0517 12.9068 24.6424 12.9068C24.2332 12.9068 23.8407 12.7443 23.5513 12.4549C23.2619 12.1655 23.0993 11.773 23.0993 11.3638C23.0993 10.9545 23.2619 10.562 23.5513 10.2726C23.8407 9.98325 24.2332 9.82067 24.6424 9.82067C25.0517 9.82067 25.4442 9.98325 25.7335 10.2726C26.0229 10.562 26.1855 10.9545 26.1855 11.3638ZM17.5031 14.2195C16.3681 14.2195 15.2796 14.6704 14.477 15.4729C13.6745 16.2755 13.2236 17.364 13.2236 18.499C13.2236 19.634 13.6745 20.7225 14.477 21.525C15.2796 22.3276 16.3681 22.7785 17.5031 22.7785C18.6381 22.7785 19.7266 22.3276 20.5291 21.525C21.3317 20.7225 21.7826 19.634 21.7826 18.499C21.7826 17.364 21.3317 16.2755 20.5291 15.4729C19.7266 14.6704 18.6381 14.2195 17.5031 14.2195ZM11.1641 18.499C11.1641 16.8183 11.8317 15.2065 13.0201 14.0181C14.2085 12.8297 15.8204 12.162 17.501 12.162C19.1817 12.162 20.7935 12.8297 21.9819 14.0181C23.1703 15.2065 23.838 16.8183 23.838 18.499C23.838 20.1796 23.1703 21.7915 21.9819 22.9799C20.7935 24.1683 19.1817 24.8359 17.501 24.8359C15.8204 24.8359 14.2085 24.1683 13.0201 22.9799C11.8317 21.7915 11.1641 20.1796 11.1641 18.499Z" fill="white"/>
</g>
</svg>
