<svg width="288" height="35" viewBox="0 0 288 35" fill="none" xmlns="http://www.w3.org/2000/svg">
<path d="M26.8632 34.9973C23.924 34.999 21.0504 34.1203 18.6059 32.4721C16.1615 30.824 14.2562 28.4806 13.1312 25.7386C12.0062 22.9965 11.712 19.9791 12.2859 17.0682C12.8598 14.1572 14.276 11.4836 16.3552 9.38577L21.2971 4.39533C24.084 1.58105 27.8638 0 31.8051 0C35.7464 0 39.5262 1.58105 42.3131 4.39533C45.1 7.20961 46.6657 11.0266 46.6657 15.0066C46.6657 18.9866 45.1 22.8036 42.3131 25.6179L37.3712 30.6083C35.9944 32.0056 34.3567 33.113 32.5529 33.8664C30.7491 34.6198 28.8152 35.0042 26.8632 34.9973ZM23.6744 6.78286L18.7325 11.7733C17.6422 12.8473 16.774 14.1292 16.178 15.5447C15.5821 16.9601 15.2704 18.481 15.261 20.019C15.2515 21.557 15.5445 23.0816 16.123 24.5044C16.7015 25.9273 17.554 27.2199 18.631 28.3075C19.708 29.3951 20.9881 30.2559 22.397 30.8401C23.806 31.4243 25.3158 31.7202 26.8389 31.7106C28.3619 31.7011 29.868 31.3863 31.2696 30.7846C32.6713 30.1828 33.9408 29.306 35.0043 28.205L39.9462 23.2146C42.06 21.0264 43.2348 18.0853 43.216 15.0285C43.1972 11.9718 41.9864 9.04559 39.846 6.88409C37.7055 4.72259 34.8078 3.49989 31.7808 3.48094C28.7537 3.46199 25.8412 4.64832 23.6744 6.78286Z" fill="#9373EA"/>
<path d="M14.8558 34.9999C11.9178 34.9992 9.04583 34.1189 6.60303 32.4704C4.16023 30.8218 2.25621 28.479 1.13162 25.738C0.00702217 22.997 -0.287668 19.9808 0.28479 17.0708C0.857249 14.1607 2.27116 11.4873 4.34782 9.38842L9.28971 4.39798C11.3672 2.29834 14.0147 0.868257 16.8974 0.288725C19.78 -0.290808 22.7681 0.00626168 25.4834 1.14234C28.1988 2.27841 30.5194 4.20241 32.1514 6.67085C33.7835 9.13928 34.6538 12.0412 34.652 15.0092C34.6589 16.9804 34.2783 18.9333 33.5322 20.7548C32.7861 22.5763 31.6894 24.2302 30.3057 25.6205L25.3639 30.6109C23.987 32.0082 22.3493 33.1157 20.5455 33.8691C18.7417 34.6225 16.8078 35.0069 14.8558 34.9999ZM19.7977 3.38675C18.2881 3.38512 16.7929 3.68451 15.3981 4.26775C14.0033 4.851 12.7362 5.70661 11.6696 6.78551L6.72773 11.776C4.61396 13.9641 3.43917 16.9052 3.45794 19.962C3.4767 23.0187 4.68751 25.9449 6.82798 28.1064C8.96845 30.2679 11.8662 31.4906 14.8932 31.5096C17.9202 31.5285 20.8327 30.3422 22.9995 28.2077L27.9414 23.2172C29.551 21.593 30.6474 19.5232 31.0918 17.2696C31.5361 15.016 31.3086 12.68 30.4379 10.557C29.5672 8.43408 28.0924 6.61964 26.2003 5.3433C24.3081 4.06695 22.0836 3.38605 19.8081 3.38675H19.7977Z" fill="#FFB92C"/>
<path d="M22.1289 3.6299C23.4292 3.90125 24.6728 4.39907 25.8041 5.10109C26.9367 4.40033 28.1811 3.90344 29.4819 3.63253C28.3784 2.66869 27.1388 1.87624 25.8041 1.28125C24.4708 1.87631 23.2323 2.6678 22.1289 3.6299Z" fill="#DD6C92"/>
<path d="M20.8549 29.8984C19.7233 30.5999 18.4798 31.0977 17.1797 31.3696C18.2831 32.3317 19.5216 33.1232 20.8549 33.7183C22.1887 33.1226 23.428 32.3312 24.5327 31.3696C23.2316 31.0982 21.9872 30.6004 20.8549 29.8984Z" fill="#DD6C92"/>
<path d="M74.007 26.6189V17.6282L69.5541 25.1664H67.7334L63.3898 17.5941V26.611H59.4883V11.5977H63.9932L68.7504 20.281L73.812 11.5977H77.8487L77.9059 26.6189H74.007Z" fill="white"/>
<path d="M96.4121 20.3446H85.1602C85.3387 21.2397 85.8532 22.0303 86.5959 22.5509C87.4287 23.1141 88.4164 23.3972 89.418 23.3599C90.1198 23.3721 90.818 23.2546 91.478 23.0132C92.103 22.7624 92.6718 22.3873 93.1504 21.9101L95.4445 24.4315C94.0451 26.053 91.999 26.8629 89.3061 26.8611C87.766 26.8917 86.2406 26.5523 84.8558 25.8709C83.6208 25.2598 82.5848 24.3047 81.8699 23.1183C81.1631 21.9107 80.8029 20.5284 80.8295 19.1259C80.8121 17.7287 81.1718 16.3531 81.8699 15.1467C82.5487 13.9773 83.5344 13.0202 84.718 12.3809C85.9547 11.7373 87.3246 11.398 88.7159 11.3907C90.1072 11.3834 91.4805 11.7083 92.7238 12.3389C93.8822 12.9597 94.8406 13.902 95.4861 15.0548C96.182 16.3136 96.5331 17.737 96.5031 19.1784C96.5031 19.2283 96.4693 19.6197 96.4121 20.3446ZM86.3202 15.5144C85.6446 16.0969 85.2102 16.9143 85.1029 17.8048H92.4299C92.3184 16.9207 91.8855 16.11 91.2153 15.5302C90.5339 14.9555 89.6682 14.6519 88.7807 14.6765C87.8876 14.6487 87.0143 14.9461 86.3202 15.5144Z" fill="white"/>
<path d="M116.345 23.0442V29.8574H112.334V26.6189H101.883V29.8574H97.875V23.0442H98.4836C99.4044 23.0267 100.04 22.4777 100.39 21.3973C100.74 20.3169 100.962 18.7813 101.053 16.7903L101.248 11.5977H114.214V23.0442H116.345ZM104.606 20.8405C104.433 21.8071 104.106 22.5416 103.626 23.0442H109.902V15.1645H105.036L104.952 17.0898C104.923 18.3466 104.808 19.5999 104.606 20.8405Z" fill="white"/>
<path d="M119.051 11.5977H123.337V20.5279L130.581 11.5977H134.537V26.6189H130.251V17.6886L123.033 26.6189H119.051V11.5977Z" fill="white"/>
<path d="M149.768 13.0428C151.004 14.1512 151.622 15.8226 151.62 18.0569V26.6273H147.583V24.7572C146.772 26.1581 145.26 26.8585 143.05 26.8585C142.028 26.8831 141.013 26.6823 140.077 26.2701C139.295 25.9283 138.627 25.3655 138.155 24.6496C137.709 23.9511 137.478 23.1349 137.491 22.304C137.466 21.6683 137.596 21.036 137.868 20.462C138.14 19.888 138.546 19.3897 139.052 19.0104C140.092 18.2101 141.701 17.81 143.877 17.81H147.305C147.305 16.8618 147.019 16.129 146.447 15.6168C145.874 15.1047 145.019 14.8499 143.877 14.8499C143.081 14.8492 142.291 14.9769 141.536 15.2281C140.83 15.4461 140.169 15.7914 139.585 16.2472L138.024 13.203C138.921 12.5837 139.919 12.1285 140.971 11.8583C142.111 11.54 143.288 11.38 144.47 11.3828C146.767 11.3828 148.533 11.9362 149.768 13.0428ZM146.09 23.4019C146.663 23.0578 147.094 22.5184 147.307 21.8812V20.3446H144.353C142.584 20.3446 141.7 20.9312 141.7 22.1044C141.694 22.3602 141.751 22.6134 141.864 22.8422C141.977 23.071 142.144 23.2685 142.35 23.4177C142.876 23.7708 143.501 23.9422 144.132 23.9062C144.818 23.9231 145.496 23.7486 146.09 23.4019Z" fill="white"/>
<path d="M161.935 20.9245H159.7V26.6189H155.383V11.5977H159.7V17.4338H162.023L166.06 11.5977H170.651L165.449 18.8023L171.004 26.6189H165.917L161.935 20.9245Z" fill="white"/>
<path d="M175.409 25.8602C174.203 25.2372 173.193 24.2878 172.491 23.1181C171.785 21.91 171.425 20.528 171.45 19.1257C171.425 17.7226 171.785 16.3398 172.491 15.1307C173.192 13.9581 174.202 13.0059 175.409 12.3807C176.719 11.7294 178.159 11.3906 179.619 11.3906C181.079 11.3906 182.519 11.7294 183.829 12.3807C185.032 13.0067 186.041 13.9555 186.744 15.1229C187.45 16.3319 187.81 17.7147 187.785 19.1178C187.811 20.5228 187.451 21.9077 186.744 23.1181C186.045 24.2865 185.041 25.238 183.842 25.8681C182.532 26.5194 181.092 26.8582 179.632 26.8582C178.172 26.8582 176.732 26.5194 175.422 25.8681L175.409 25.8602ZM182.349 22.1463C183.06 21.3933 183.414 20.3838 183.412 19.1178C183.411 17.8518 183.056 16.8415 182.349 16.0868C181.999 15.715 181.576 15.4221 181.107 15.2274C180.637 15.0327 180.133 14.9407 179.625 14.9574C179.116 14.942 178.61 15.0346 178.139 15.2291C177.667 15.4236 177.242 15.7158 176.889 16.0868C176.176 16.8415 175.82 17.8518 175.82 19.1178C175.82 20.3838 176.18 21.3933 176.9 22.1463C177.252 22.5177 177.677 22.8104 178.149 23.0054C178.62 23.2004 179.127 23.2933 179.636 23.2783C180.141 23.293 180.644 23.1997 181.112 23.0046C181.579 22.8096 182.001 22.5171 182.349 22.1463Z" fill="white"/>
<path d="M190.75 11.5977H195.036V17.4601H201.508V11.5977H205.82V26.6189H201.508V21.0086H195.036V26.6215H190.75V11.5977Z" fill="white"/>
<path d="M222.437 15.1724H217.404V26.6189H213.118V15.1724H208.082V11.5977H222.432L222.437 15.1724Z" fill="white"/>
<path d="M238.502 20.3446H227.237C227.414 21.2401 227.929 22.0311 228.673 22.5509C229.506 23.1141 230.493 23.3972 231.495 23.3599C232.198 23.3727 232.898 23.2552 233.56 23.0132C234.185 22.7618 234.753 22.3867 235.232 21.9101L237.521 24.4315C236.122 26.053 234.076 26.8629 231.383 26.8611C229.843 26.8917 228.317 26.5523 226.933 25.8709C225.694 25.2615 224.654 24.3062 223.936 23.1183C223.23 21.9107 222.869 20.5284 222.896 19.1259C222.879 17.7287 223.238 16.3531 223.936 15.1467C224.615 13.9773 225.601 13.0202 226.784 12.3809C228.021 11.7373 229.391 11.398 230.782 11.3907C232.174 11.3834 233.547 11.7083 234.79 12.3389C235.952 12.9581 236.915 13.9006 237.563 15.0548C238.256 16.3144 238.604 17.7378 238.572 19.1784C238.572 19.2283 238.546 19.6197 238.502 20.3446ZM228.41 15.5144C227.734 16.0969 227.3 16.9143 227.193 17.8048H234.52C234.407 16.9199 233.972 16.1091 233.3 15.5302C232.619 14.9555 231.753 14.6519 230.865 14.6765C229.969 14.6463 229.093 14.9439 228.397 15.5144H228.41Z" fill="white"/>
<path d="M248.443 20.9245H246.203V26.6189H241.883V11.5977H246.195V17.4338H248.518L252.555 11.5977H257.145L251.943 18.8023L257.502 26.6189H252.425L248.443 20.9245Z" fill="white"/>
<path d="M261.987 25.8626C260.752 25.2392 259.719 24.2745 259.006 23.0808C258.294 21.8871 257.932 20.5136 257.963 19.1202C257.931 17.7264 258.293 16.3523 259.005 15.1581C259.718 13.9639 260.752 12.9988 261.987 12.3753C263.31 11.7011 264.775 11.3614 266.257 11.385C267.688 11.3517 269.103 11.6928 270.364 12.3753C271.506 13.0052 272.406 14.0028 272.921 15.2093L269.576 17.0242C268.801 15.6479 267.686 14.9598 266.231 14.9598C265.715 14.943 265.201 15.0333 264.72 15.2254C264.24 15.4174 263.803 15.7069 263.438 16.0761C262.699 16.8202 262.331 17.835 262.333 19.1202C262.334 20.4055 262.703 21.4193 263.438 22.1618C263.803 22.5313 264.239 22.8212 264.72 23.0137C265.2 23.2061 265.715 23.297 266.231 23.2807C267.705 23.2807 268.82 22.5917 269.576 21.2136L272.921 23.0522C272.392 24.2392 271.494 25.2201 270.364 25.8468C269.106 26.5384 267.69 26.8843 266.257 26.8502C264.776 26.8747 263.31 26.5358 261.987 25.8626Z" fill="white"/>
<path d="M288.001 15.1724H282.968V26.6189H278.681V15.1724H273.648V11.5977H288.001V15.1724Z" fill="white"/>
</svg>
