<svg width="900" height="407" viewBox="0 0 900 407" fill="none" xmlns="http://www.w3.org/2000/svg">
<path d="M184.715 407C145.656 407 112.384 398.498 84.8981 381.495C57.4125 364.31 36.3462 340.433 21.6992 309.863C7.23307 279.292 0 243.838 0 203.5C0 163.162 7.23307 127.708 21.6992 97.1373C36.3462 66.5671 57.4125 42.7802 84.8981 25.7766C112.384 8.59222 145.656 0 184.715 0C223.592 0 256.774 8.59222 284.26 25.7766C311.926 42.7802 332.992 66.5671 347.459 97.1373C361.925 127.708 369.158 163.162 369.158 203.5C369.158 243.838 361.925 279.292 347.459 309.863C332.992 340.433 311.926 364.31 284.26 381.495C256.774 398.498 223.592 407 184.715 407ZM184.715 353.005C212.381 353.366 235.346 347.307 253.609 334.825C272.054 322.163 285.887 304.617 295.109 282.187C304.331 259.576 308.942 233.347 308.942 203.5C308.942 173.653 304.331 147.605 295.109 125.356C285.887 102.926 272.054 85.47 253.609 72.9887C235.346 60.5073 212.381 54.1762 184.715 53.9953C157.048 53.6336 133.993 59.6933 115.548 72.1746C97.2848 84.656 83.5419 102.202 74.3198 124.813C65.0976 147.424 60.3961 173.653 60.2153 203.5C60.0345 233.347 64.5551 259.485 73.7773 281.915C82.9995 304.165 96.8327 321.53 115.277 334.011C133.902 346.493 157.048 352.824 184.715 353.005Z" fill="white"/>
<path d="M396.138 398.86V8.13999H452.827V345.407H629.675V398.86H396.138Z" fill="white"/>
<path d="M691.416 398.86L564.476 8.13999H623.335L731.56 341.609L841.141 8.13999H900L773.06 398.86H691.416Z" fill="white"/>
</svg>
