<svg width="24" height="24" viewBox="0 0 24 24" fill="none" xmlns="http://www.w3.org/2000/svg">
<path d="M21 12.5C21.0006 12.6959 20.9412 12.8885 20.8277 13.0593C20.7142 13.23 20.5504 13.3729 20.3523 13.4742L8.07273 19.8302C7.8657 19.9374 7.62858 19.996 7.38586 19.9998C7.14314 20.0036 6.90363 19.9525 6.69205 19.8518C6.48248 19.7527 6.30791 19.6081 6.18628 19.4329C6.06465 19.2578 6.00035 19.0584 6 18.8552V6.14478C6.00035 5.94163 6.06465 5.74222 6.18628 5.56707C6.30791 5.39191 6.48248 5.24733 6.69205 5.14819C6.90363 5.04748 7.14314 4.99639 7.38586 5.0002C7.62858 5.004 7.8657 5.06256 8.07273 5.16982L20.3523 11.5258C20.5504 11.6271 20.7142 11.77 20.8277 11.9407C20.9412 12.1115 21.0006 12.3041 21 12.5Z" fill="#1B1B1B"/>
</svg>
