<svg width="1760" height="543" viewBox="0 0 1760 543" fill="none" xmlns="http://www.w3.org/2000/svg">
<rect y="500" width="728" height="5" rx="2.5" fill="#9373EA"/>
<path d="M326.367 537.3C325.627 537.3 324.937 537.147 324.297 536.84C323.663 536.533 323.12 536.113 322.667 535.58C322.22 535.04 321.9 534.42 321.707 533.72L323.417 533.26C323.537 533.733 323.75 534.143 324.057 534.49C324.363 534.83 324.72 535.097 325.127 535.29C325.54 535.477 325.97 535.57 326.417 535.57C327.003 535.57 327.53 535.43 327.997 535.15C328.47 534.863 328.843 534.487 329.117 534.02C329.39 533.547 329.527 533.03 329.527 532.47C329.527 531.89 329.383 531.367 329.097 530.9C328.817 530.427 328.44 530.053 327.967 529.78C327.493 529.507 326.977 529.37 326.417 529.37C325.783 529.37 325.24 529.503 324.787 529.77C324.34 530.03 323.987 530.35 323.727 530.73L322.147 530.13L322.587 522.6H330.317V524.29H323.447L324.237 523.55L323.867 529.58L323.477 529.07C323.877 528.643 324.353 528.313 324.907 528.08C325.467 527.847 326.037 527.73 326.617 527.73C327.51 527.73 328.31 527.94 329.017 528.36C329.723 528.773 330.283 529.34 330.697 530.06C331.11 530.773 331.317 531.577 331.317 532.47C331.317 533.357 331.09 534.167 330.637 534.9C330.183 535.627 329.58 536.21 328.827 536.65C328.08 537.083 327.26 537.3 326.367 537.3ZM332.908 530.53V529.06H338.908V530.53H332.908ZM343.417 537V524.57L340.707 526.21V524.22L343.417 522.6H345.227V537H343.417ZM348.032 536.99L348.042 535.39L354.432 529.64C354.965 529.16 355.322 528.707 355.502 528.28C355.688 527.847 355.782 527.403 355.782 526.95C355.782 526.397 355.655 525.897 355.402 525.45C355.148 525.003 354.802 524.65 354.362 524.39C353.928 524.13 353.435 524 352.882 524C352.308 524 351.798 524.137 351.352 524.41C350.905 524.677 350.552 525.033 350.292 525.48C350.038 525.927 349.915 526.413 349.922 526.94H348.102C348.102 526.033 348.312 525.233 348.732 524.54C349.152 523.84 349.722 523.293 350.442 522.9C351.168 522.5 351.992 522.3 352.912 522.3C353.805 522.3 354.605 522.507 355.312 522.92C356.018 523.327 356.575 523.883 356.982 524.59C357.395 525.29 357.602 526.083 357.602 526.97C357.602 527.597 357.522 528.14 357.362 528.6C357.208 529.06 356.968 529.487 356.642 529.88C356.315 530.267 355.905 530.68 355.412 531.12L350.102 535.89L349.872 535.29H357.602V536.99H348.032ZM361.998 539.4V535.53C362.605 535.53 363.038 535.333 363.298 534.94C363.558 534.54 363.768 533.883 363.928 532.97C364.035 532.397 364.121 531.783 364.188 531.13C364.255 530.477 364.311 529.75 364.358 528.95C364.411 528.143 364.461 527.227 364.508 526.2H371.948V535.53H372.998V539.4H371.298V537H363.698V539.4H361.998ZM364.738 535.53H370.168V527.67H366.118C366.098 528.143 366.071 528.64 366.038 529.16C366.005 529.673 365.965 530.187 365.918 530.7C365.878 531.213 365.828 531.7 365.768 532.16C365.715 532.613 365.651 533.02 365.578 533.38C365.491 533.88 365.391 534.303 365.278 534.65C365.165 534.997 364.985 535.29 364.738 535.53ZM374.395 537V526.2H376.175V530.75H381.855V526.2H383.635V537H381.855V532.44H376.175V537H374.395ZM390.516 537.3C389.456 537.3 388.53 537.067 387.736 536.6C386.95 536.127 386.336 535.47 385.896 534.63C385.456 533.783 385.236 532.797 385.236 531.67C385.236 530.49 385.453 529.47 385.886 528.61C386.32 527.743 386.923 527.077 387.696 526.61C388.476 526.137 389.39 525.9 390.436 525.9C391.523 525.9 392.446 526.15 393.206 526.65C393.973 527.15 394.546 527.863 394.926 528.79C395.313 529.717 395.48 530.82 395.426 532.1H393.626V531.46C393.606 530.133 393.336 529.143 392.816 528.49C392.296 527.83 391.523 527.5 390.496 527.5C389.396 527.5 388.56 527.853 387.986 528.56C387.413 529.267 387.126 530.28 387.126 531.6C387.126 532.873 387.413 533.86 387.986 534.56C388.56 535.26 389.376 535.61 390.436 535.61C391.15 535.61 391.77 535.447 392.296 535.12C392.823 534.793 393.236 534.323 393.536 533.71L395.246 534.3C394.826 535.253 394.193 535.993 393.346 536.52C392.506 537.04 391.563 537.3 390.516 537.3ZM386.526 532.1V530.67H394.506V532.1H386.526ZM401.703 524.94C401.203 524.94 400.746 524.817 400.333 524.57C399.919 524.323 399.589 523.997 399.343 523.59C399.096 523.177 398.973 522.717 398.973 522.21H400.413C400.413 522.563 400.539 522.867 400.793 523.12C401.046 523.373 401.349 523.5 401.703 523.5C402.063 523.5 402.366 523.373 402.613 523.12C402.866 522.867 402.993 522.563 402.993 522.21H404.433C404.433 522.717 404.309 523.177 404.063 523.59C403.823 523.997 403.493 524.323 403.073 524.57C402.659 524.817 402.203 524.94 401.703 524.94ZM405.893 526.2V537H404.173V529.04L398.513 537H397.043V526.2H398.763V534.05L404.433 526.2H405.893Z" fill="#9373EA"/>
<rect x="1040" y="500" width="720" height="5" rx="2.5" fill="#9373EA"/>
<path d="M1367.47 536.99L1367.48 535.39L1373.87 529.64C1374.4 529.16 1374.76 528.707 1374.94 528.28C1375.12 527.847 1375.22 527.403 1375.22 526.95C1375.22 526.397 1375.09 525.897 1374.84 525.45C1374.58 525.003 1374.24 524.65 1373.8 524.39C1373.36 524.13 1372.87 524 1372.32 524C1371.74 524 1371.23 524.137 1370.79 524.41C1370.34 524.677 1369.99 525.033 1369.73 525.48C1369.47 525.927 1369.35 526.413 1369.36 526.94H1367.54C1367.54 526.033 1367.75 525.233 1368.17 524.54C1368.59 523.84 1369.16 523.293 1369.88 522.9C1370.6 522.5 1371.43 522.3 1372.35 522.3C1373.24 522.3 1374.04 522.507 1374.75 522.92C1375.45 523.327 1376.01 523.883 1376.42 524.59C1376.83 525.29 1377.04 526.083 1377.04 526.97C1377.04 527.597 1376.96 528.14 1376.8 528.6C1376.64 529.06 1376.4 529.487 1376.08 529.88C1375.75 530.267 1375.34 530.68 1374.85 531.12L1369.54 535.89L1369.31 535.29H1377.04V536.99H1367.47ZM1381.34 537V524.57L1378.63 526.21V524.22L1381.34 522.6H1383.15V537H1381.34ZM1388.96 539.4V535.53C1389.57 535.53 1390 535.333 1390.26 534.94C1390.52 534.54 1390.73 533.883 1390.89 532.97C1391 532.397 1391.08 531.783 1391.15 531.13C1391.22 530.477 1391.27 529.75 1391.32 528.95C1391.37 528.143 1391.42 527.227 1391.47 526.2H1398.91V535.53H1399.96V539.4H1398.26V537H1390.66V539.4H1388.96ZM1391.7 535.53H1397.13V527.67H1393.08C1393.06 528.143 1393.03 528.64 1393 529.16C1392.97 529.673 1392.93 530.187 1392.88 530.7C1392.84 531.213 1392.79 531.7 1392.73 532.16C1392.68 532.613 1392.61 533.02 1392.54 533.38C1392.45 533.88 1392.35 534.303 1392.24 534.65C1392.13 534.997 1391.95 535.29 1391.7 535.53ZM1406.05 537.3C1404.99 537.3 1404.06 537.067 1403.27 536.6C1402.48 536.127 1401.87 535.47 1401.43 534.63C1400.99 533.783 1400.77 532.797 1400.77 531.67C1400.77 530.49 1400.98 529.47 1401.42 528.61C1401.85 527.743 1402.45 527.077 1403.23 526.61C1404.01 526.137 1404.92 525.9 1405.97 525.9C1407.05 525.9 1407.98 526.15 1408.74 526.65C1409.5 527.15 1410.08 527.863 1410.46 528.79C1410.84 529.717 1411.01 530.82 1410.96 532.1H1409.16V531.46C1409.14 530.133 1408.87 529.143 1408.35 528.49C1407.83 527.83 1407.05 527.5 1406.03 527.5C1404.93 527.5 1404.09 527.853 1403.52 528.56C1402.94 529.267 1402.66 530.28 1402.66 531.6C1402.66 532.873 1402.94 533.86 1403.52 534.56C1404.09 535.26 1404.91 535.61 1405.97 535.61C1406.68 535.61 1407.3 535.447 1407.83 535.12C1408.35 534.793 1408.77 534.323 1409.07 533.71L1410.78 534.3C1410.36 535.253 1409.72 535.993 1408.88 536.52C1408.04 537.04 1407.09 537.3 1406.05 537.3ZM1402.06 532.1V530.67H1410.04V532.1H1402.06ZM1412.57 537V526.2H1414.35V530.75H1420.03V526.2H1421.81V537H1420.03V532.44H1414.35V537H1412.57ZM1424.01 537L1424 526.2H1425.79V530.11H1428.12C1428.44 530.11 1428.76 530.117 1429.08 530.13C1429.41 530.143 1429.69 530.173 1429.93 530.22C1430.49 530.327 1430.98 530.513 1431.4 530.78C1431.82 531.047 1432.15 531.41 1432.38 531.87C1432.62 532.323 1432.73 532.887 1432.73 533.56C1432.73 534.493 1432.49 535.233 1432 535.78C1431.52 536.32 1430.89 536.68 1430.11 536.86C1429.85 536.92 1429.54 536.96 1429.19 536.98C1428.85 536.993 1428.53 537 1428.22 537H1424.01ZM1425.79 535.53H1428.25C1428.45 535.53 1428.68 535.523 1428.92 535.51C1429.17 535.497 1429.39 535.463 1429.58 535.41C1429.92 535.31 1430.23 535.113 1430.49 534.82C1430.77 534.527 1430.9 534.107 1430.9 533.56C1430.9 533.007 1430.77 532.58 1430.5 532.28C1430.24 531.98 1429.9 531.783 1429.47 531.69C1429.28 531.643 1429.08 531.613 1428.86 531.6C1428.65 531.587 1428.45 531.58 1428.25 531.58H1425.79V535.53Z" fill="#9373EA"/>
<rect x="728" y="500" width="311" height="5" rx="2.5" fill="#1B1B1B"/>
<path d="M859.359 537V524.57L856.649 526.21V524.22L859.359 522.6H861.169V537H859.359ZM866.978 539.4V535.53C867.585 535.53 868.018 535.333 868.278 534.94C868.538 534.54 868.748 533.883 868.908 532.97C869.015 532.397 869.101 531.783 869.168 531.13C869.235 530.477 869.291 529.75 869.338 528.95C869.391 528.143 869.441 527.227 869.488 526.2H876.928V535.53H877.978V539.4H876.278V537H868.678V539.4H866.978ZM869.718 535.53H875.148V527.67H871.098C871.078 528.143 871.051 528.64 871.018 529.16C870.985 529.673 870.945 530.187 870.898 530.7C870.858 531.213 870.808 531.7 870.748 532.16C870.695 532.613 870.631 533.02 870.558 533.38C870.471 533.88 870.371 534.303 870.258 534.65C870.145 534.997 869.965 535.29 869.718 535.53ZM884.065 537.3C883.005 537.3 882.078 537.067 881.285 536.6C880.498 536.127 879.885 535.47 879.445 534.63C879.005 533.783 878.785 532.797 878.785 531.67C878.785 530.49 879.002 529.47 879.435 528.61C879.868 527.743 880.472 527.077 881.245 526.61C882.025 526.137 882.938 525.9 883.985 525.9C885.072 525.9 885.995 526.15 886.755 526.65C887.522 527.15 888.095 527.863 888.475 528.79C888.862 529.717 889.028 530.82 888.975 532.1H887.175V531.46C887.155 530.133 886.885 529.143 886.365 528.49C885.845 527.83 885.072 527.5 884.045 527.5C882.945 527.5 882.108 527.853 881.535 528.56C880.962 529.267 880.675 530.28 880.675 531.6C880.675 532.873 880.962 533.86 881.535 534.56C882.108 535.26 882.925 535.61 883.985 535.61C884.698 535.61 885.318 535.447 885.845 535.12C886.372 534.793 886.785 534.323 887.085 533.71L888.795 534.3C888.375 535.253 887.742 535.993 886.895 536.52C886.055 537.04 885.112 537.3 884.065 537.3ZM880.075 532.1V530.67H888.055V532.1H880.075ZM890.592 537V526.2H892.372V530.75H898.052V526.2H899.832V537H898.052V532.44H892.372V537H890.592ZM902.033 537L902.023 526.2H903.813V530.11H906.143C906.456 530.11 906.776 530.117 907.103 530.13C907.429 530.143 907.713 530.173 907.953 530.22C908.513 530.327 909.003 530.513 909.423 530.78C909.843 531.047 910.169 531.41 910.403 531.87C910.636 532.323 910.753 532.887 910.753 533.56C910.753 534.493 910.509 535.233 910.023 535.78C909.543 536.32 908.913 536.68 908.133 536.86C907.866 536.92 907.559 536.96 907.213 536.98C906.873 536.993 906.549 537 906.243 537H902.033ZM903.813 535.53H906.273C906.473 535.53 906.696 535.523 906.943 535.51C907.189 535.497 907.409 535.463 907.603 535.41C907.943 535.31 908.246 535.113 908.513 534.82C908.786 534.527 908.923 534.107 908.923 533.56C908.923 533.007 908.789 532.58 908.523 532.28C908.263 531.98 907.919 531.783 907.493 531.69C907.299 531.643 907.096 531.613 906.883 531.6C906.669 531.587 906.466 531.58 906.273 531.58H903.813V535.53Z" fill="#1B1B1B"/>
<g clip-path="url(#clip0_4079_10490)">
<line opacity="0.1" x1="103.5" y1="690" x2="103.5" stroke="#1B1B1B"/>
<line opacity="0.1" x1="207.5" y1="690" x2="207.5" stroke="#1B1B1B"/>
<line opacity="0.1" x1="311.5" y1="690" x2="311.5" stroke="#1B1B1B"/>
<line opacity="0.1" x1="415.5" y1="690" x2="415.5" stroke="#1B1B1B"/>
<line opacity="0.1" x1="519.5" y1="690" x2="519.5" stroke="#1B1B1B"/>
<line opacity="0.1" x1="623.5" y1="690" x2="623.5" stroke="#1B1B1B"/>
<line opacity="0.1" x1="727.5" y1="690" x2="727.5" stroke="#1B1B1B"/>
<line opacity="0.1" x1="831.5" y1="690" x2="831.5" stroke="#1B1B1B"/>
<line opacity="0.1" x1="935.5" y1="690" x2="935.5" stroke="#1B1B1B"/>
<line opacity="0.1" x1="1039.5" y1="690" x2="1039.5" stroke="#1B1B1B"/>
<line opacity="0.1" x1="1143.5" y1="690" x2="1143.5" stroke="#1B1B1B"/>
<line opacity="0.1" x1="1247.5" y1="690" x2="1247.5" stroke="#1B1B1B"/>
<line opacity="0.1" x1="1351.5" y1="690" x2="1351.5" stroke="#1B1B1B"/>
<line opacity="0.1" x1="1455.5" y1="690" x2="1455.5" stroke="#1B1B1B"/>
<line opacity="0.1" x1="1559.5" y1="690" x2="1559.5" stroke="#1B1B1B"/>
<line opacity="0.1" x1="1663.5" y1="690" x2="1663.5" stroke="#1B1B1B"/>
<rect x="1463" y="300" width="296" height="100" rx="20" fill="#EFEFF1"/>
<rect x="1483" y="323.5" width="5" height="53" rx="2.5" fill="#9373EA"/>
<path d="M1505.41 345.8C1503.97 345.8 1502.74 345.487 1501.73 344.86C1500.72 344.227 1499.94 343.347 1499.4 342.22C1498.87 341.093 1498.6 339.787 1498.6 338.3C1498.6 336.813 1498.87 335.507 1499.4 334.38C1499.94 333.253 1500.72 332.377 1501.73 331.75C1502.74 331.117 1503.97 330.8 1505.41 330.8C1506.84 330.8 1508.07 331.117 1509.08 331.75C1510.1 332.377 1510.88 333.253 1511.41 334.38C1511.94 335.507 1512.21 336.813 1512.21 338.3C1512.21 339.787 1511.94 341.093 1511.41 342.22C1510.88 343.347 1510.1 344.227 1509.08 344.86C1508.07 345.487 1506.84 345.8 1505.41 345.8ZM1505.41 343.81C1506.43 343.823 1507.28 343.6 1507.95 343.14C1508.63 342.673 1509.14 342.027 1509.48 341.2C1509.82 340.367 1509.99 339.4 1509.99 338.3C1509.99 337.2 1509.82 336.24 1509.48 335.42C1509.14 334.593 1508.63 333.95 1507.95 333.49C1507.28 333.03 1506.43 332.797 1505.41 332.79C1504.39 332.777 1503.54 333 1502.86 333.46C1502.19 333.92 1501.68 334.567 1501.34 335.4C1501 336.233 1500.83 337.2 1500.82 338.3C1500.81 339.4 1500.98 340.363 1501.32 341.19C1501.66 342.01 1502.17 342.65 1502.85 343.11C1503.54 343.57 1504.39 343.803 1505.41 343.81ZM1516.39 345.5V336.58H1512.7V334.7H1522.17V336.58H1518.48V345.5H1516.39ZM1529.86 345.5V341.74C1529.5 341.927 1529.07 342.08 1528.57 342.2C1528.08 342.313 1527.56 342.37 1527.01 342.37C1525.91 342.37 1525.02 342.123 1524.34 341.63C1523.68 341.13 1523.24 340.41 1523.04 339.47C1522.99 339.19 1522.95 338.903 1522.92 338.61C1522.9 338.31 1522.88 338.037 1522.87 337.79C1522.87 337.543 1522.87 337.36 1522.87 337.24V334.7H1524.99V337.24C1524.99 337.413 1525 337.643 1525.01 337.93C1525.03 338.21 1525.06 338.483 1525.12 338.75C1525.25 339.35 1525.5 339.797 1525.88 340.09C1526.26 340.377 1526.8 340.52 1527.49 340.52C1527.99 340.52 1528.44 340.457 1528.84 340.33C1529.25 340.197 1529.59 340.027 1529.86 339.82V334.7H1531.97V345.5H1529.86ZM1538.97 345.8C1537.9 345.8 1536.96 345.567 1536.14 345.1C1535.34 344.627 1534.71 343.97 1534.25 343.13C1533.81 342.283 1533.58 341.303 1533.58 340.19C1533.58 339.01 1533.8 337.987 1534.24 337.12C1534.69 336.253 1535.31 335.583 1536.1 335.11C1536.9 334.637 1537.82 334.4 1538.87 334.4C1539.97 334.4 1540.91 334.657 1541.68 335.17C1542.46 335.677 1543.03 336.4 1543.41 337.34C1543.8 338.28 1543.95 339.397 1543.87 340.69H1541.78V339.93C1541.77 338.677 1541.53 337.75 1541.06 337.15C1540.6 336.55 1539.9 336.25 1538.95 336.25C1537.91 336.25 1537.12 336.58 1536.59 337.24C1536.07 337.9 1535.8 338.853 1535.8 340.1C1535.8 341.287 1536.07 342.207 1536.59 342.86C1537.12 343.507 1537.88 343.83 1538.87 343.83C1539.53 343.83 1540.09 343.683 1540.56 343.39C1541.04 343.09 1541.42 342.663 1541.68 342.11L1543.73 342.76C1543.31 343.727 1542.68 344.477 1541.82 345.01C1540.97 345.537 1540.02 345.8 1538.97 345.8ZM1535.12 340.69V339.06H1542.83V340.69H1535.12ZM1548.03 345.5V336.58H1544.34V334.7H1553.81V336.58H1550.12V345.5H1548.03ZM1555.1 345.5V334.7H1557.19V339.11H1562.46V334.7H1564.55V345.5H1562.46V341.08H1557.19V345.5H1555.1ZM1571.45 345.8C1570.37 345.8 1569.43 345.557 1568.64 345.07C1567.84 344.583 1567.23 343.913 1566.8 343.06C1566.37 342.2 1566.16 341.21 1566.16 340.09C1566.16 338.963 1566.38 337.973 1566.82 337.12C1567.26 336.26 1567.87 335.593 1568.67 335.12C1569.46 334.64 1570.39 334.4 1571.45 334.4C1572.53 334.4 1573.46 334.643 1574.26 335.13C1575.05 335.617 1575.66 336.287 1576.1 337.14C1576.53 337.993 1576.75 338.977 1576.75 340.09C1576.75 341.217 1576.53 342.21 1576.09 343.07C1575.65 343.923 1575.04 344.593 1574.25 345.08C1573.45 345.56 1572.52 345.8 1571.45 345.8ZM1571.45 343.83C1572.48 343.83 1573.25 343.483 1573.76 342.79C1574.27 342.09 1574.53 341.19 1574.53 340.09C1574.53 338.963 1574.27 338.063 1573.75 337.39C1573.23 336.71 1572.47 336.37 1571.45 336.37C1570.75 336.37 1570.17 336.53 1569.72 336.85C1569.26 337.163 1568.93 337.6 1568.71 338.16C1568.49 338.713 1568.38 339.357 1568.38 340.09C1568.38 341.223 1568.64 342.13 1569.16 342.81C1569.68 343.49 1570.44 343.83 1571.45 343.83ZM1582.96 345.8C1581.86 345.8 1580.92 345.553 1580.14 345.06C1579.37 344.567 1578.78 343.89 1578.36 343.03C1577.96 342.17 1577.75 341.193 1577.74 340.1C1577.75 338.987 1577.96 338.003 1578.38 337.15C1578.8 336.29 1579.4 335.617 1580.18 335.13C1580.96 334.643 1581.9 334.4 1582.99 334.4C1584.17 334.4 1585.18 334.693 1586.01 335.28C1586.85 335.867 1587.41 336.67 1587.67 337.69L1585.59 338.29C1585.39 337.683 1585.05 337.213 1584.57 336.88C1584.11 336.54 1583.57 336.37 1582.96 336.37C1582.28 336.37 1581.71 336.533 1581.27 336.86C1580.83 337.18 1580.51 337.62 1580.29 338.18C1580.08 338.74 1579.97 339.38 1579.96 340.1C1579.97 341.213 1580.22 342.113 1580.72 342.8C1581.23 343.487 1581.98 343.83 1582.96 343.83C1583.64 343.83 1584.18 343.677 1584.59 343.37C1585.01 343.057 1585.33 342.61 1585.55 342.03L1587.67 342.53C1587.32 343.583 1586.74 344.393 1585.92 344.96C1585.11 345.52 1584.12 345.8 1582.96 345.8ZM1591.78 345.5V336.58H1588.09V334.7H1597.56V336.58H1593.87V345.5H1591.78ZM1598.85 345.5V334.7H1600.95V338.45H1603.08C1603.39 338.45 1603.72 338.457 1604.06 338.47C1604.42 338.483 1604.72 338.517 1604.97 338.57C1605.55 338.69 1606.05 338.89 1606.47 339.17C1606.9 339.45 1607.23 339.823 1607.46 340.29C1607.7 340.75 1607.81 341.317 1607.81 341.99C1607.81 342.93 1607.57 343.68 1607.07 344.24C1606.59 344.793 1605.93 345.167 1605.09 345.36C1604.83 345.42 1604.51 345.46 1604.14 345.48C1603.78 345.493 1603.45 345.5 1603.15 345.5H1598.85ZM1600.95 343.82H1603.27C1603.44 343.82 1603.63 343.813 1603.84 343.8C1604.06 343.787 1604.25 343.757 1604.43 343.71C1604.75 343.617 1605.04 343.427 1605.29 343.14C1605.55 342.853 1605.67 342.47 1605.67 341.99C1605.67 341.497 1605.55 341.103 1605.29 340.81C1605.05 340.517 1604.73 340.327 1604.35 340.24C1604.17 340.193 1603.99 340.163 1603.8 340.15C1603.62 340.137 1603.44 340.13 1603.27 340.13H1600.95V343.82Z" fill="#1B1B1B"/>
<path opacity="0.7" d="M1499.73 372.5L1503.87 362.348H1498.64V360.98H1505.4V362.348L1501.26 372.5H1499.73ZM1513.64 372.74C1512.75 372.74 1511.98 372.527 1511.35 372.1C1510.72 371.673 1510.24 371.057 1509.93 370.252L1511.37 369.876C1511.57 370.367 1511.86 370.743 1512.23 371.004C1512.61 371.26 1513.08 371.388 1513.63 371.388C1514.4 371.388 1515 371.151 1515.43 370.676C1515.86 370.196 1516.11 369.559 1516.19 368.764H1512.65V367.588H1516.19C1516.12 366.815 1515.87 366.185 1515.45 365.7C1515.04 365.215 1514.44 364.972 1513.66 364.972C1513.12 364.972 1512.65 365.108 1512.24 365.38C1511.83 365.652 1511.53 366.044 1511.34 366.556L1509.93 366.132C1510.16 365.353 1510.61 364.74 1511.27 364.292C1511.93 363.844 1512.72 363.62 1513.65 363.62C1514.5 363.62 1515.23 363.812 1515.85 364.196C1516.46 364.58 1516.93 365.116 1517.25 365.804C1517.58 366.492 1517.75 367.287 1517.75 368.188C1517.75 369.084 1517.59 369.873 1517.26 370.556C1516.94 371.239 1516.47 371.775 1515.85 372.164C1515.24 372.548 1514.5 372.74 1513.64 372.74ZM1521.6 372.5V365.156H1518.59V363.86H1526.03V365.156H1523.02V372.5H1521.6ZM1529.72 372.74C1529.07 372.74 1528.53 372.623 1528.09 372.388C1527.66 372.148 1527.33 371.833 1527.11 371.444C1526.89 371.055 1526.78 370.628 1526.78 370.164C1526.78 369.711 1526.87 369.319 1527.04 368.988C1527.21 368.652 1527.46 368.375 1527.77 368.156C1528.09 367.932 1528.46 367.756 1528.9 367.628C1529.31 367.516 1529.77 367.42 1530.28 367.34C1530.79 367.255 1531.31 367.177 1531.83 367.108C1532.35 367.039 1532.84 366.972 1533.29 366.908L1532.78 367.204C1532.8 366.436 1532.64 365.868 1532.32 365.5C1532 365.132 1531.44 364.948 1530.65 364.948C1530.13 364.948 1529.67 365.068 1529.28 365.308C1528.89 365.543 1528.61 365.927 1528.45 366.46L1527.1 366.052C1527.31 365.295 1527.71 364.7 1528.31 364.268C1528.91 363.836 1529.69 363.62 1530.67 363.62C1531.45 363.62 1532.12 363.761 1532.68 364.044C1533.25 364.321 1533.66 364.743 1533.9 365.308C1534.02 365.575 1534.1 365.865 1534.13 366.18C1534.16 366.489 1534.18 366.815 1534.18 367.156V372.5H1532.92V370.428L1533.21 370.62C1532.89 371.319 1532.43 371.847 1531.84 372.204C1531.26 372.561 1530.55 372.74 1529.72 372.74ZM1529.93 371.548C1530.44 371.548 1530.89 371.457 1531.26 371.276C1531.64 371.089 1531.94 370.847 1532.17 370.548C1532.4 370.244 1532.55 369.913 1532.62 369.556C1532.7 369.289 1532.74 368.993 1532.75 368.668C1532.76 368.337 1532.76 368.084 1532.76 367.908L1533.26 368.124C1532.8 368.188 1532.34 368.249 1531.89 368.308C1531.44 368.367 1531.02 368.431 1530.62 368.5C1530.22 368.564 1529.86 368.641 1529.54 368.732C1529.31 368.807 1529.08 368.903 1528.88 369.02C1528.67 369.137 1528.51 369.289 1528.38 369.476C1528.26 369.657 1528.2 369.884 1528.2 370.156C1528.2 370.391 1528.26 370.615 1528.37 370.828C1528.5 371.041 1528.68 371.215 1528.93 371.348C1529.19 371.481 1529.52 371.548 1529.93 371.548ZM1536.25 372.5V363.86H1543.33V372.5H1541.91V365.212H1537.68V372.5H1536.25Z" fill="#1B1B1B"/>
<rect x="1679" y="320" width="60" height="60" rx="10" fill="white"/>
<rect x="1700" y="340" width="18" height="21" rx="2" fill="#1B1B1B"/>
<rect x="1704" y="346" width="10" height="2" rx="1" fill="white"/>
<rect x="1704" y="350" width="7" height="2" rx="1" fill="white"/>
<rect x="1704" y="354" width="10" height="2" rx="1" fill="white"/>
<rect x="1244" y="190" width="367" height="100" rx="20" fill="#EFEFF1"/>
<rect x="1264" y="213.5" width="5" height="53" rx="2.5" fill="#9373EA"/>
<path d="M1286.41 235.8C1284.97 235.8 1283.74 235.487 1282.73 234.86C1281.72 234.227 1280.94 233.347 1280.4 232.22C1279.87 231.093 1279.6 229.787 1279.6 228.3C1279.6 226.813 1279.87 225.507 1280.4 224.38C1280.94 223.253 1281.72 222.377 1282.73 221.75C1283.74 221.117 1284.97 220.8 1286.41 220.8C1287.84 220.8 1289.07 221.117 1290.08 221.75C1291.1 222.377 1291.88 223.253 1292.41 224.38C1292.94 225.507 1293.21 226.813 1293.21 228.3C1293.21 229.787 1292.94 231.093 1292.41 232.22C1291.88 233.347 1291.1 234.227 1290.08 234.86C1289.07 235.487 1287.84 235.8 1286.41 235.8ZM1286.41 233.81C1287.43 233.823 1288.28 233.6 1288.95 233.14C1289.63 232.673 1290.14 232.027 1290.48 231.2C1290.82 230.367 1290.99 229.4 1290.99 228.3C1290.99 227.2 1290.82 226.24 1290.48 225.42C1290.14 224.593 1289.63 223.95 1288.95 223.49C1288.28 223.03 1287.43 222.797 1286.41 222.79C1285.39 222.777 1284.54 223 1283.86 223.46C1283.19 223.92 1282.68 224.567 1282.34 225.4C1282 226.233 1281.83 227.2 1281.82 228.3C1281.81 229.4 1281.98 230.363 1282.32 231.19C1282.66 232.01 1283.17 232.65 1283.85 233.11C1284.54 233.57 1285.39 233.803 1286.41 233.81ZM1294.59 235.5V224.7H1303.7V235.5H1301.61V226.67H1296.68V235.5H1294.59ZM1308.69 235.5V226.58H1305V224.7H1314.47V226.58H1310.78V235.5H1308.69ZM1324.87 224.7V235.5H1322.86V227.99L1317.46 235.5H1315.76V224.7H1317.77V232.06L1323.18 224.7H1324.87ZM1327.05 235.5V224.7H1328.8L1332.79 232.62L1336.77 224.7H1338.53V235.5H1336.51V228.98L1333.26 235.5H1332.31L1329.06 228.98V235.5H1327.05ZM1349.84 224.7V235.5H1347.83V227.99L1342.43 235.5H1340.73V224.7H1342.74V232.06L1348.15 224.7H1349.84ZM1355.88 235.8C1354.84 235.8 1353.9 235.577 1353.06 235.13C1352.24 234.683 1351.58 234.067 1351.1 233.28L1352.76 232.19C1353.15 232.71 1353.6 233.113 1354.1 233.4C1354.62 233.687 1355.19 233.83 1355.83 233.83C1356.5 233.83 1357.03 233.68 1357.41 233.38C1357.81 233.073 1358 232.663 1358 232.15C1358 231.743 1357.89 231.443 1357.66 231.25C1357.44 231.05 1357.14 230.92 1356.74 230.86C1356.36 230.8 1355.92 230.77 1355.42 230.77H1354.46V229.09H1355.42C1356.08 229.09 1356.61 229 1357.03 228.82C1357.46 228.633 1357.67 228.283 1357.67 227.77C1357.67 227.27 1357.49 226.91 1357.12 226.69C1356.76 226.47 1356.33 226.36 1355.83 226.36C1355.27 226.36 1354.73 226.48 1354.2 226.72C1353.68 226.953 1353.22 227.243 1352.82 227.59L1351.6 226.16C1352.18 225.607 1352.83 225.177 1353.56 224.87C1354.3 224.557 1355.1 224.4 1355.94 224.4C1356.64 224.4 1357.28 224.523 1357.86 224.77C1358.46 225.01 1358.93 225.367 1359.28 225.84C1359.64 226.313 1359.82 226.897 1359.82 227.59C1359.82 228.13 1359.7 228.623 1359.46 229.07C1359.22 229.517 1358.86 229.923 1358.36 230.29L1358.3 229.58C1358.71 229.707 1359.05 229.91 1359.32 230.19C1359.6 230.47 1359.8 230.8 1359.93 231.18C1360.07 231.553 1360.14 231.95 1360.14 232.37C1360.14 233.097 1359.95 233.717 1359.56 234.23C1359.18 234.743 1358.67 235.133 1358.02 235.4C1357.38 235.667 1356.66 235.8 1355.88 235.8ZM1364.8 235.8C1364 235.8 1363.33 235.653 1362.79 235.36C1362.25 235.06 1361.84 234.667 1361.56 234.18C1361.28 233.687 1361.15 233.147 1361.15 232.56C1361.15 232.013 1361.24 231.533 1361.44 231.12C1361.63 230.707 1361.92 230.357 1362.3 230.07C1362.68 229.777 1363.14 229.54 1363.7 229.36C1364.18 229.22 1364.72 229.097 1365.33 228.99C1365.93 228.883 1366.57 228.783 1367.24 228.69C1367.91 228.597 1368.58 228.503 1369.24 228.41L1368.48 228.83C1368.49 227.983 1368.31 227.357 1367.94 226.95C1367.57 226.537 1366.94 226.33 1366.04 226.33C1365.47 226.33 1364.95 226.463 1364.48 226.73C1364 226.99 1363.67 227.423 1363.49 228.03L1361.54 227.43C1361.8 226.503 1362.31 225.767 1363.06 225.22C1363.81 224.673 1364.81 224.4 1366.06 224.4C1367.02 224.4 1367.86 224.567 1368.58 224.9C1369.3 225.227 1369.82 225.747 1370.16 226.46C1370.33 226.813 1370.44 227.187 1370.48 227.58C1370.52 227.973 1370.54 228.397 1370.54 228.85V235.5H1368.69V233.03L1369.05 233.35C1368.6 234.177 1368.03 234.793 1367.34 235.2C1366.65 235.6 1365.8 235.8 1364.8 235.8ZM1365.17 234.09C1365.76 234.09 1366.27 233.987 1366.7 233.78C1367.12 233.567 1367.47 233.297 1367.73 232.97C1367.99 232.643 1368.16 232.303 1368.24 231.95C1368.35 231.63 1368.41 231.27 1368.43 230.87C1368.45 230.47 1368.46 230.15 1368.46 229.91L1369.14 230.16C1368.48 230.26 1367.88 230.35 1367.34 230.43C1366.8 230.51 1366.31 230.59 1365.87 230.67C1365.43 230.743 1365.05 230.833 1364.71 230.94C1364.42 231.04 1364.16 231.16 1363.94 231.3C1363.72 231.44 1363.54 231.61 1363.41 231.81C1363.28 232.01 1363.22 232.253 1363.22 232.54C1363.22 232.82 1363.29 233.08 1363.43 233.32C1363.57 233.553 1363.78 233.74 1364.07 233.88C1364.35 234.02 1364.72 234.09 1365.17 234.09ZM1381.65 237.63V235.5H1372.52V224.7H1374.61V233.53H1379.54V224.7H1381.63V233.62H1383.74V237.63H1381.65ZM1393.85 224.7V235.5H1391.84V227.99L1386.44 235.5H1384.74V224.7H1386.75V232.06L1392.16 224.7H1393.85ZM1402.61 235.5V231.75H1400.47C1400.22 231.75 1399.91 231.74 1399.56 231.72C1399.21 231.7 1398.89 231.663 1398.58 231.61C1397.77 231.463 1397.1 231.113 1396.56 230.56C1396.02 230 1395.75 229.23 1395.75 228.25C1395.75 227.303 1396 226.543 1396.51 225.97C1397.02 225.39 1397.67 225.017 1398.46 224.85C1398.8 224.77 1399.15 224.727 1399.5 224.72C1399.86 224.707 1400.16 224.7 1400.41 224.7H1404.7L1404.71 235.5H1402.61ZM1395.44 235.5L1398.17 231.23H1400.38L1397.67 235.5H1395.44ZM1400.29 230.07H1402.61V226.38H1400.29C1400.14 226.38 1399.96 226.387 1399.75 226.4C1399.54 226.413 1399.33 226.45 1399.13 226.51C1398.92 226.57 1398.72 226.677 1398.53 226.83C1398.34 226.983 1398.19 227.18 1398.07 227.42C1397.95 227.653 1397.89 227.923 1397.89 228.23C1397.89 228.69 1398.02 229.07 1398.28 229.37C1398.54 229.663 1398.85 229.857 1399.21 229.95C1399.4 230.003 1399.6 230.037 1399.79 230.05C1399.98 230.063 1400.15 230.07 1400.29 230.07Z" fill="#1B1B1B"/>
<path opacity="0.7" d="M1284.05 262.74C1283.32 262.74 1282.65 262.564 1282.06 262.212C1281.46 261.86 1280.99 261.38 1280.64 260.772C1280.29 260.159 1280.12 259.468 1280.12 258.7V254.868C1280.12 254.063 1280.29 253.351 1280.64 252.732C1280.99 252.108 1281.47 251.623 1282.08 251.276C1282.69 250.924 1283.39 250.748 1284.18 250.748C1284.81 250.748 1285.4 250.879 1285.94 251.14C1286.49 251.396 1286.95 251.767 1287.33 252.252L1286.26 253.196C1286.03 252.86 1285.74 252.593 1285.37 252.396C1285 252.199 1284.6 252.1 1284.18 252.1C1283.67 252.1 1283.22 252.223 1282.82 252.468C1282.43 252.708 1282.13 253.028 1281.9 253.428C1281.68 253.823 1281.57 254.249 1281.57 254.708V257.02L1281.26 256.668C1281.59 256.188 1282.02 255.804 1282.54 255.516C1283.05 255.228 1283.61 255.084 1284.22 255.084C1284.93 255.084 1285.57 255.252 1286.14 255.588C1286.71 255.924 1287.15 256.38 1287.48 256.956C1287.81 257.527 1287.98 258.169 1287.98 258.884C1287.98 259.599 1287.8 260.247 1287.44 260.828C1287.08 261.409 1286.61 261.873 1286.01 262.22C1285.42 262.567 1284.76 262.74 1284.05 262.74ZM1284.05 261.364C1284.51 261.364 1284.93 261.255 1285.3 261.036C1285.68 260.812 1285.98 260.513 1286.2 260.14C1286.42 259.761 1286.54 259.343 1286.54 258.884C1286.54 258.425 1286.42 258.007 1286.2 257.628C1285.98 257.249 1285.68 256.951 1285.3 256.732C1284.93 256.508 1284.51 256.396 1284.06 256.396C1283.6 256.396 1283.18 256.508 1282.8 256.732C1282.43 256.951 1282.13 257.249 1281.9 257.628C1281.68 258.007 1281.57 258.425 1281.57 258.884C1281.57 259.337 1281.68 259.753 1281.9 260.132C1282.12 260.505 1282.42 260.804 1282.79 261.028C1283.17 261.252 1283.59 261.364 1284.05 261.364ZM1296.37 262.74C1295.48 262.74 1294.72 262.527 1294.08 262.1C1293.45 261.673 1292.98 261.057 1292.67 260.252L1294.11 259.876C1294.31 260.367 1294.59 260.743 1294.96 261.004C1295.34 261.26 1295.81 261.388 1296.36 261.388C1297.14 261.388 1297.74 261.151 1298.16 260.676C1298.59 260.196 1298.84 259.559 1298.92 258.764H1295.39V257.588H1298.92C1298.85 256.815 1298.6 256.185 1298.19 255.7C1297.77 255.215 1297.18 254.972 1296.4 254.972C1295.86 254.972 1295.38 255.108 1294.97 255.38C1294.57 255.652 1294.27 256.044 1294.08 256.556L1292.67 256.132C1292.9 255.353 1293.34 254.74 1294 254.292C1294.67 253.844 1295.46 253.62 1296.38 253.62C1297.23 253.62 1297.97 253.812 1298.58 254.196C1299.19 254.58 1299.66 255.116 1299.99 255.804C1300.32 256.492 1300.48 257.287 1300.48 258.188C1300.48 259.084 1300.32 259.873 1300 260.556C1299.67 261.239 1299.2 261.775 1298.59 262.164C1297.98 262.548 1297.24 262.74 1296.37 262.74ZM1304.33 262.5V255.156H1301.32V253.86H1308.76V255.156H1305.75V262.5H1304.33ZM1312.45 262.74C1311.81 262.74 1311.26 262.623 1310.83 262.388C1310.4 262.148 1310.07 261.833 1309.84 261.444C1309.62 261.055 1309.52 260.628 1309.52 260.164C1309.52 259.711 1309.6 259.319 1309.77 258.988C1309.95 258.652 1310.19 258.375 1310.51 258.156C1310.82 257.932 1311.2 257.756 1311.64 257.628C1312.05 257.516 1312.5 257.42 1313.01 257.34C1313.52 257.255 1314.04 257.177 1314.56 257.108C1315.09 257.039 1315.57 256.972 1316.03 256.908L1315.52 257.204C1315.53 256.436 1315.38 255.868 1315.05 255.5C1314.73 255.132 1314.18 254.948 1313.39 254.948C1312.86 254.948 1312.41 255.068 1312.01 255.308C1311.62 255.543 1311.35 255.927 1311.19 256.46L1309.84 256.052C1310.04 255.295 1310.45 254.7 1311.04 254.268C1311.64 253.836 1312.43 253.62 1313.4 253.62C1314.19 253.62 1314.86 253.761 1315.42 254.044C1315.98 254.321 1316.39 254.743 1316.64 255.308C1316.76 255.575 1316.84 255.865 1316.87 256.18C1316.9 256.489 1316.91 256.815 1316.91 257.156V262.5H1315.65V260.428L1315.95 260.62C1315.62 261.319 1315.17 261.847 1314.58 262.204C1314 262.561 1313.29 262.74 1312.45 262.74ZM1312.67 261.548C1313.18 261.548 1313.62 261.457 1314 261.276C1314.37 261.089 1314.68 260.847 1314.91 260.548C1315.14 260.244 1315.29 259.913 1315.36 259.556C1315.44 259.289 1315.48 258.993 1315.48 258.668C1315.49 258.337 1315.5 258.084 1315.5 257.908L1316 258.124C1315.53 258.188 1315.08 258.249 1314.63 258.308C1314.18 258.367 1313.76 258.431 1313.36 258.5C1312.96 258.564 1312.6 258.641 1312.28 258.732C1312.04 258.807 1311.82 258.903 1311.61 259.02C1311.41 259.137 1311.24 259.289 1311.12 259.476C1310.99 259.657 1310.93 259.884 1310.93 260.156C1310.93 260.391 1310.99 260.615 1311.11 260.828C1311.23 261.041 1311.42 261.215 1311.67 261.348C1311.92 261.481 1312.26 261.548 1312.67 261.548ZM1318.99 262.5V253.86H1326.07V262.5H1324.64V255.212H1320.41V262.5H1318.99Z" fill="#1B1B1B"/>
<rect x="1531" y="210" width="60" height="60" rx="10" fill="white"/>
<g clip-path="url(#clip1_4079_10490)">
<path fill-rule="evenodd" clip-rule="evenodd" d="M1549 230.4C1549 229.072 1550.07 228 1551.4 228H1570.6C1571.93 228 1573 229.072 1573 230.4V244.79C1573 246.117 1571.93 247.189 1570.6 247.189H1564.63L1561.67 251.629C1561.59 251.738 1561.49 251.828 1561.38 251.89C1561.26 251.952 1561.13 251.985 1561 251.985C1560.87 251.985 1560.74 251.952 1560.62 251.89C1560.51 251.828 1560.41 251.738 1560.33 251.629L1557.37 247.189H1551.4C1550.07 247.189 1549 246.117 1549 244.789V230.4ZM1560.24 241.968L1566.4 234.925L1565.2 233.872L1560.16 239.629L1557.57 237.032L1556.43 238.165L1560.24 241.968Z" fill="#1B1B1B"/>
</g>
<rect x="1040" y="80" width="471" height="100" rx="20" fill="#EFEFF1"/>
<rect x="1060" y="103.5" width="5" height="53" rx="2.5" fill="#9373EA"/>
<path d="M1075.4 125.5L1080.08 111.1H1083.09L1087.77 125.5H1085.6L1081.29 112.36H1081.83L1077.57 125.5H1075.4ZM1077.83 122.25V120.29H1085.35V122.25H1077.83ZM1088.95 125.5V114.7H1091.04V119.11H1096.31V114.7H1098.4V125.5H1096.31V121.08H1091.04V125.5H1088.95ZM1103.66 125.8C1102.86 125.8 1102.19 125.653 1101.65 125.36C1101.11 125.06 1100.7 124.667 1100.42 124.18C1100.15 123.687 1100.01 123.147 1100.01 122.56C1100.01 122.013 1100.11 121.533 1100.3 121.12C1100.49 120.707 1100.78 120.357 1101.16 120.07C1101.54 119.777 1102.01 119.54 1102.56 119.36C1103.04 119.22 1103.58 119.097 1104.19 118.99C1104.8 118.883 1105.43 118.783 1106.1 118.69C1106.77 118.597 1107.44 118.503 1108.1 118.41L1107.34 118.83C1107.35 117.983 1107.17 117.357 1106.8 116.95C1106.43 116.537 1105.8 116.33 1104.9 116.33C1104.33 116.33 1103.81 116.463 1103.34 116.73C1102.87 116.99 1102.54 117.423 1102.35 118.03L1100.4 117.43C1100.67 116.503 1101.17 115.767 1101.92 115.22C1102.67 114.673 1103.67 114.4 1104.92 114.4C1105.89 114.4 1106.73 114.567 1107.44 114.9C1108.16 115.227 1108.69 115.747 1109.02 116.46C1109.19 116.813 1109.3 117.187 1109.34 117.58C1109.38 117.973 1109.4 118.397 1109.4 118.85V125.5H1107.55V123.03L1107.91 123.35C1107.46 124.177 1106.89 124.793 1106.2 125.2C1105.51 125.6 1104.67 125.8 1103.66 125.8ZM1104.03 124.09C1104.62 124.09 1105.13 123.987 1105.56 123.78C1105.99 123.567 1106.33 123.297 1106.59 122.97C1106.85 122.643 1107.02 122.303 1107.1 121.95C1107.21 121.63 1107.28 121.27 1107.29 120.87C1107.31 120.47 1107.32 120.15 1107.32 119.91L1108 120.16C1107.34 120.26 1106.74 120.35 1106.2 120.43C1105.66 120.51 1105.17 120.59 1104.73 120.67C1104.3 120.743 1103.91 120.833 1103.57 120.94C1103.28 121.04 1103.03 121.16 1102.8 121.3C1102.58 121.44 1102.4 121.61 1102.27 121.81C1102.14 122.01 1102.08 122.253 1102.08 122.54C1102.08 122.82 1102.15 123.08 1102.29 123.32C1102.43 123.553 1102.64 123.74 1102.93 123.88C1103.22 124.02 1103.58 124.09 1104.03 124.09ZM1110.4 125.5V123.73C1110.8 123.803 1111.1 123.793 1111.31 123.7C1111.52 123.6 1111.68 123.42 1111.78 123.16C1111.88 122.9 1111.97 122.563 1112.05 122.15C1112.16 121.543 1112.26 120.853 1112.34 120.08C1112.42 119.3 1112.5 118.457 1112.57 117.55C1112.63 116.643 1112.69 115.693 1112.75 114.7H1120.51V125.5H1118.41V116.67H1114.63C1114.59 117.197 1114.54 117.757 1114.49 118.35C1114.44 118.937 1114.39 119.52 1114.33 120.1C1114.27 120.68 1114.2 121.223 1114.14 121.73C1114.07 122.237 1114 122.67 1113.93 123.03C1113.79 123.75 1113.6 124.323 1113.34 124.75C1113.08 125.17 1112.72 125.44 1112.26 125.56C1111.79 125.687 1111.17 125.667 1110.4 125.5ZM1131.81 114.7V125.5H1129.8V117.99L1124.4 125.5H1122.7V114.7H1124.71V122.06L1130.12 114.7H1131.81ZM1136.8 125.5V116.58H1133.11V114.7H1142.58V116.58H1138.89V125.5H1136.8ZM1152.97 114.7V125.5H1150.96V117.99L1145.56 125.5H1143.86V114.7H1145.87V122.06L1151.28 114.7H1152.97ZM1155.16 125.5L1155.17 114.7H1157.29V119.9L1161.53 114.7H1164.19L1159.71 120.1L1164.65 125.5H1161.81L1157.29 120.3V125.5H1155.16ZM1168.11 125.8C1167.31 125.8 1166.64 125.653 1166.1 125.36C1165.56 125.06 1165.15 124.667 1164.87 124.18C1164.59 123.687 1164.46 123.147 1164.46 122.56C1164.46 122.013 1164.55 121.533 1164.75 121.12C1164.94 120.707 1165.23 120.357 1165.61 120.07C1165.99 119.777 1166.45 119.54 1167.01 119.36C1167.49 119.22 1168.03 119.097 1168.64 118.99C1169.24 118.883 1169.88 118.783 1170.55 118.69C1171.22 118.597 1171.89 118.503 1172.55 118.41L1171.79 118.83C1171.8 117.983 1171.62 117.357 1171.25 116.95C1170.88 116.537 1170.25 116.33 1169.35 116.33C1168.78 116.33 1168.26 116.463 1167.79 116.73C1167.31 116.99 1166.98 117.423 1166.8 118.03L1164.85 117.43C1165.11 116.503 1165.62 115.767 1166.37 115.22C1167.12 114.673 1168.12 114.4 1169.37 114.4C1170.33 114.4 1171.17 114.567 1171.89 114.9C1172.61 115.227 1173.13 115.747 1173.47 116.46C1173.64 116.813 1173.75 117.187 1173.79 117.58C1173.83 117.973 1173.85 118.397 1173.85 118.85V125.5H1172V123.03L1172.36 123.35C1171.91 124.177 1171.34 124.793 1170.65 125.2C1169.96 125.6 1169.11 125.8 1168.11 125.8ZM1168.48 124.09C1169.07 124.09 1169.58 123.987 1170.01 123.78C1170.43 123.567 1170.78 123.297 1171.04 122.97C1171.3 122.643 1171.47 122.303 1171.55 121.95C1171.66 121.63 1171.72 121.27 1171.74 120.87C1171.76 120.47 1171.77 120.15 1171.77 119.91L1172.45 120.16C1171.79 120.26 1171.19 120.35 1170.65 120.43C1170.11 120.51 1169.62 120.59 1169.18 120.67C1168.74 120.743 1168.36 120.833 1168.02 120.94C1167.73 121.04 1167.47 121.16 1167.25 121.3C1167.03 121.44 1166.85 121.61 1166.72 121.81C1166.59 122.01 1166.53 122.253 1166.53 122.54C1166.53 122.82 1166.6 123.08 1166.74 123.32C1166.88 123.553 1167.09 123.74 1167.38 123.88C1167.66 124.02 1168.03 124.09 1168.48 124.09Z" fill="#1B1B1B"/>
<path opacity="0.7" d="M1079.53 152.74C1078.94 152.74 1078.38 152.617 1077.87 152.372C1077.37 152.127 1076.93 151.791 1076.57 151.364C1076.21 150.932 1075.95 150.436 1075.8 149.876L1077.17 149.508C1077.26 149.887 1077.43 150.215 1077.68 150.492C1077.93 150.764 1078.21 150.977 1078.54 151.132C1078.87 151.281 1079.21 151.356 1079.57 151.356C1080.04 151.356 1080.46 151.244 1080.83 151.02C1081.21 150.791 1081.51 150.489 1081.73 150.116C1081.95 149.737 1082.06 149.324 1082.06 148.876C1082.06 148.412 1081.94 147.993 1081.71 147.62C1081.49 147.241 1081.19 146.943 1080.81 146.724C1080.43 146.505 1080.02 146.396 1079.57 146.396C1079.06 146.396 1078.63 146.503 1078.26 146.716C1077.91 146.924 1077.62 147.18 1077.42 147.484L1076.15 147.004L1076.5 140.98H1082.69V142.332H1077.19L1077.82 141.74L1077.53 146.564L1077.22 146.156C1077.54 145.815 1077.92 145.551 1078.36 145.364C1078.81 145.177 1079.26 145.084 1079.73 145.084C1080.44 145.084 1081.08 145.252 1081.65 145.588C1082.21 145.919 1082.66 146.372 1082.99 146.948C1083.32 147.519 1083.49 148.161 1083.49 148.876C1083.49 149.585 1083.31 150.233 1082.94 150.82C1082.58 151.401 1082.1 151.868 1081.5 152.22C1080.9 152.567 1080.24 152.74 1079.53 152.74ZM1091.72 152.74C1090.83 152.74 1090.06 152.527 1089.43 152.1C1088.79 151.673 1088.32 151.057 1088.01 150.252L1089.45 149.876C1089.65 150.367 1089.94 150.743 1090.31 151.004C1090.69 151.26 1091.15 151.388 1091.71 151.388C1092.48 151.388 1093.08 151.151 1093.51 150.676C1093.94 150.196 1094.19 149.559 1094.27 148.764H1090.73V147.588H1094.27C1094.19 146.815 1093.95 146.185 1093.53 145.7C1093.12 145.215 1092.52 144.972 1091.74 144.972C1091.2 144.972 1090.73 145.108 1090.32 145.38C1089.91 145.652 1089.61 146.044 1089.42 146.556L1088.01 146.132C1088.24 145.353 1088.69 144.74 1089.35 144.292C1090.01 143.844 1090.8 143.62 1091.72 143.62C1092.58 143.62 1093.31 143.812 1093.92 144.196C1094.54 144.58 1095.01 145.116 1095.33 145.804C1095.66 146.492 1095.83 147.287 1095.83 148.188C1095.83 149.084 1095.67 149.873 1095.34 150.556C1095.02 151.239 1094.55 151.775 1093.93 152.164C1093.32 152.548 1092.58 152.74 1091.72 152.74ZM1099.67 152.5V145.156H1096.67V143.86H1104.11V145.156H1101.1V152.5H1099.67ZM1107.79 152.74C1107.15 152.74 1106.61 152.623 1106.17 152.388C1105.74 152.148 1105.41 151.833 1105.19 151.444C1104.97 151.055 1104.86 150.628 1104.86 150.164C1104.86 149.711 1104.94 149.319 1105.11 148.988C1105.29 148.652 1105.54 148.375 1105.85 148.156C1106.17 147.932 1106.54 147.756 1106.98 147.628C1107.39 147.516 1107.85 147.42 1108.35 147.34C1108.87 147.255 1109.38 147.177 1109.91 147.108C1110.43 147.039 1110.92 146.972 1111.37 146.908L1110.86 147.204C1110.87 146.436 1110.72 145.868 1110.39 145.5C1110.07 145.132 1109.52 144.948 1108.73 144.948C1108.21 144.948 1107.75 145.068 1107.35 145.308C1106.97 145.543 1106.69 145.927 1106.53 146.46L1105.18 146.052C1105.39 145.295 1105.79 144.7 1106.39 144.268C1106.98 143.836 1107.77 143.62 1108.75 143.62C1109.53 143.62 1110.2 143.761 1110.76 144.044C1111.33 144.321 1111.73 144.743 1111.98 145.308C1112.1 145.575 1112.18 145.865 1112.21 146.18C1112.24 146.489 1112.26 146.815 1112.26 147.156V152.5H1110.99V150.428L1111.29 150.62C1110.97 151.319 1110.51 151.847 1109.92 152.204C1109.34 152.561 1108.63 152.74 1107.79 152.74ZM1108.01 151.548C1108.52 151.548 1108.97 151.457 1109.34 151.276C1109.72 151.089 1110.02 150.847 1110.25 150.548C1110.48 150.244 1110.63 149.913 1110.7 149.556C1110.78 149.289 1110.82 148.993 1110.83 148.668C1110.84 148.337 1110.84 148.084 1110.84 147.908L1111.34 148.124C1110.87 148.188 1110.42 148.249 1109.97 148.308C1109.52 148.367 1109.1 148.431 1108.7 148.5C1108.3 148.564 1107.94 148.641 1107.62 148.732C1107.38 148.807 1107.16 148.903 1106.95 149.02C1106.75 149.137 1106.59 149.289 1106.46 149.476C1106.34 149.657 1106.27 149.884 1106.27 150.156C1106.27 150.391 1106.33 150.615 1106.45 150.828C1106.57 151.041 1106.76 151.215 1107.01 151.348C1107.27 151.481 1107.6 151.548 1108.01 151.548ZM1114.33 152.5V143.86H1121.41V152.5H1119.99V145.212H1115.75V152.5H1114.33Z" fill="#1B1B1B"/>
<rect x="1431" y="100" width="60" height="60" rx="10" fill="white"/>
<mask id="mask0_4079_10490" style="mask-type:luminance" maskUnits="userSpaceOnUse" x="1451" y="120" width="20" height="20">
<path d="M1468.5 121H1453.5C1453.1 121 1452.72 121.158 1452.44 121.439C1452.16 121.721 1452 122.102 1452 122.5V137.5C1452 137.898 1452.16 138.279 1452.44 138.561C1452.72 138.842 1453.1 139 1453.5 139H1468.5C1468.9 139 1469.28 138.842 1469.56 138.561C1469.84 138.279 1470 137.898 1470 137.5V122.5C1470 122.102 1469.84 121.721 1469.56 121.439C1469.28 121.158 1468.9 121 1468.5 121Z" fill="white" stroke="white" stroke-width="2" stroke-linecap="round" stroke-linejoin="round"/>
<path d="M1456 132L1460 128L1462 131.5L1466 127.5" stroke="black" stroke-width="2" stroke-linecap="round" stroke-linejoin="round"/>
</mask>
<g mask="url(#mask0_4079_10490)">
<path d="M1449 118H1473V142H1449V118Z" fill="#1B1B1B"/>
</g>
<rect x="728" y="190" width="310" height="100" rx="20" fill="#1B1B1B"/>
<rect x="748" y="213.5" width="5" height="53" rx="2.5" fill="#EFEFF1"/>
<path d="M769.33 235.8C768.33 235.8 767.46 235.653 766.72 235.36C765.98 235.067 765.36 234.687 764.86 234.22C764.367 233.747 763.99 233.243 763.73 232.71L765.55 231.53C765.71 231.923 765.95 232.293 766.27 232.64C766.597 232.987 767.017 233.27 767.53 233.49C768.05 233.703 768.68 233.81 769.42 233.81C770.16 233.81 770.77 233.7 771.25 233.48C771.73 233.253 772.087 232.953 772.32 232.58C772.56 232.2 772.68 231.773 772.68 231.3C772.68 230.747 772.533 230.32 772.24 230.02C771.953 229.713 771.57 229.5 771.09 229.38C770.61 229.253 770.09 229.18 769.53 229.16C769.063 229.147 768.727 229.137 768.52 229.13C768.313 229.117 768.173 229.11 768.1 229.11C768.033 229.11 767.97 229.11 767.91 229.11V227.13C767.983 227.13 768.11 227.13 768.29 227.13C768.477 227.13 768.67 227.13 768.87 227.13C769.07 227.123 769.233 227.117 769.36 227.11C770.187 227.07 770.853 226.867 771.36 226.5C771.873 226.133 772.13 225.613 772.13 224.94C772.13 224.267 771.88 223.737 771.38 223.35C770.887 222.963 770.237 222.77 769.43 222.77C768.663 222.77 768.003 222.947 767.45 223.3C766.897 223.647 766.47 224.077 766.17 224.59L764.63 223.14C765.11 222.473 765.767 221.917 766.6 221.47C767.433 221.023 768.397 220.8 769.49 220.8C770.11 220.8 770.71 220.883 771.29 221.05C771.87 221.21 772.39 221.457 772.85 221.79C773.31 222.123 773.673 222.547 773.94 223.06C774.213 223.567 774.35 224.17 774.35 224.87C774.35 225.57 774.207 226.203 773.92 226.77C773.64 227.337 773.263 227.787 772.79 228.12C773.45 228.367 773.967 228.757 774.34 229.29C774.713 229.817 774.9 230.49 774.9 231.31C774.9 232.23 774.657 233.027 774.17 233.7C773.69 234.367 773.03 234.883 772.19 235.25C771.357 235.617 770.403 235.8 769.33 235.8ZM779.487 235.8C778.687 235.8 778.017 235.653 777.477 235.36C776.937 235.06 776.527 234.667 776.247 234.18C775.973 233.687 775.837 233.147 775.837 232.56C775.837 232.013 775.933 231.533 776.127 231.12C776.32 230.707 776.607 230.357 776.987 230.07C777.367 229.777 777.833 229.54 778.387 229.36C778.867 229.22 779.41 229.097 780.017 228.99C780.623 228.883 781.26 228.783 781.927 228.69C782.6 228.597 783.267 228.503 783.927 228.41L783.167 228.83C783.18 227.983 783 227.357 782.627 226.95C782.26 226.537 781.627 226.33 780.727 226.33C780.16 226.33 779.64 226.463 779.167 226.73C778.693 226.99 778.363 227.423 778.177 228.03L776.227 227.43C776.493 226.503 777 225.767 777.747 225.22C778.5 224.673 779.5 224.4 780.747 224.4C781.713 224.4 782.553 224.567 783.267 224.9C783.987 225.227 784.513 225.747 784.847 226.46C785.02 226.813 785.127 227.187 785.167 227.58C785.207 227.973 785.227 228.397 785.227 228.85V235.5H783.377V233.03L783.737 233.35C783.29 234.177 782.72 234.793 782.027 235.2C781.34 235.6 780.493 235.8 779.487 235.8ZM779.857 234.09C780.45 234.09 780.96 233.987 781.387 233.78C781.813 233.567 782.157 233.297 782.417 232.97C782.677 232.643 782.847 232.303 782.927 231.95C783.04 231.63 783.103 231.27 783.117 230.87C783.137 230.47 783.147 230.15 783.147 229.91L783.827 230.16C783.167 230.26 782.567 230.35 782.027 230.43C781.487 230.51 780.997 230.59 780.557 230.67C780.123 230.743 779.737 230.833 779.397 230.94C779.11 231.04 778.853 231.16 778.627 231.3C778.407 231.44 778.23 231.61 778.097 231.81C777.97 232.01 777.907 232.253 777.907 232.54C777.907 232.82 777.977 233.08 778.117 233.32C778.257 233.553 778.47 233.74 778.757 233.88C779.043 234.02 779.41 234.09 779.857 234.09ZM787.213 235.5V224.7H796.323V235.5H794.233V226.67H789.303V235.5H787.213ZM799.978 240.3L802.068 234.61L802.098 236.29L797.388 224.7H799.568L803.088 233.65H802.448L805.808 224.7H807.928L801.968 240.3H799.978ZM813.124 235.8C812.017 235.8 811.077 235.553 810.304 235.06C809.531 234.567 808.937 233.89 808.524 233.03C808.117 232.17 807.911 231.193 807.904 230.1C807.911 228.987 808.124 228.003 808.544 227.15C808.964 226.29 809.564 225.617 810.344 225.13C811.124 224.643 812.061 224.4 813.154 224.4C814.334 224.4 815.341 224.693 816.174 225.28C817.014 225.867 817.567 226.67 817.834 227.69L815.754 228.29C815.547 227.683 815.207 227.213 814.734 226.88C814.267 226.54 813.731 226.37 813.124 226.37C812.437 226.37 811.874 226.533 811.434 226.86C810.994 227.18 810.667 227.62 810.454 228.18C810.241 228.74 810.131 229.38 810.124 230.1C810.131 231.213 810.384 232.113 810.884 232.8C811.391 233.487 812.137 233.83 813.124 233.83C813.797 233.83 814.341 233.677 814.754 233.37C815.174 233.057 815.494 232.61 815.714 232.03L817.834 232.53C817.481 233.583 816.897 234.393 816.084 234.96C815.271 235.52 814.284 235.8 813.124 235.8ZM819.261 235.5L819.271 224.7H821.391V229.9L825.631 224.7H828.291L823.811 230.1L828.751 235.5H825.911L821.391 230.3V235.5H819.261ZM832.563 235.5V221.1H838.383C838.523 221.1 838.697 221.107 838.903 221.12C839.11 221.127 839.307 221.147 839.493 221.18C840.293 221.307 840.96 221.58 841.493 222C842.033 222.42 842.437 222.95 842.703 223.59C842.97 224.23 843.103 224.937 843.103 225.71C843.103 226.49 842.97 227.2 842.703 227.84C842.437 228.48 842.033 229.01 841.493 229.43C840.96 229.85 840.293 230.123 839.493 230.25C839.307 230.277 839.107 230.297 838.893 230.31C838.687 230.323 838.517 230.33 838.383 230.33H834.653V235.5H832.563ZM834.653 228.35H838.303C838.437 228.35 838.583 228.343 838.743 228.33C838.91 228.317 839.067 228.293 839.213 228.26C839.64 228.16 839.983 227.977 840.243 227.71C840.503 227.437 840.69 227.123 840.803 226.77C840.917 226.417 840.973 226.063 840.973 225.71C840.973 225.357 840.917 225.007 840.803 224.66C840.69 224.307 840.503 223.997 840.243 223.73C839.983 223.457 839.64 223.27 839.213 223.17C839.067 223.13 838.91 223.103 838.743 223.09C838.583 223.077 838.437 223.07 838.303 223.07H834.653V228.35ZM844.502 235.5V221.1H846.592V227.82L852.622 221.1H855.222L848.852 228.13L855.692 235.5H853.012L846.592 228.62V235.5H844.502Z" fill="#EFEFF1"/>
<path opacity="0.7" d="M769.096 262.5V260.38H763.8V259.028L767.6 250.98H769.216L765.416 259.028H769.096V255.788H770.536V259.028H771.736V260.38H770.536V262.5H769.096ZM779.966 262.74C779.076 262.74 778.313 262.527 777.678 262.1C777.044 261.673 776.572 261.057 776.262 260.252L777.702 259.876C777.9 260.367 778.185 260.743 778.558 261.004C778.937 261.26 779.404 261.388 779.958 261.388C780.732 261.388 781.332 261.151 781.758 260.676C782.185 260.196 782.438 259.559 782.518 258.764H778.982V257.588H782.518C782.444 256.815 782.198 256.185 781.782 255.7C781.366 255.215 780.769 254.972 779.99 254.972C779.452 254.972 778.977 255.108 778.566 255.38C778.161 255.652 777.862 256.044 777.67 256.556L776.262 256.132C776.492 255.353 776.937 254.74 777.598 254.292C778.26 253.844 779.052 253.62 779.974 253.62C780.828 253.62 781.561 253.812 782.174 254.196C782.788 254.58 783.257 255.116 783.582 255.804C783.913 256.492 784.078 257.287 784.078 258.188C784.078 259.084 783.916 259.873 783.59 260.556C783.265 261.239 782.796 261.775 782.182 262.164C781.569 262.548 780.83 262.74 779.966 262.74ZM787.924 262.5V255.156H784.916V253.86H792.356V255.156H789.348V262.5H787.924ZM796.045 262.74C795.399 262.74 794.858 262.623 794.421 262.388C793.989 262.148 793.661 261.833 793.437 261.444C793.218 261.055 793.109 260.628 793.109 260.164C793.109 259.711 793.194 259.319 793.365 258.988C793.541 258.652 793.786 258.375 794.101 258.156C794.415 257.932 794.791 257.756 795.229 257.628C795.639 257.516 796.098 257.42 796.605 257.34C797.117 257.255 797.634 257.177 798.157 257.108C798.679 257.039 799.167 256.972 799.621 256.908L799.109 257.204C799.125 256.436 798.97 255.868 798.645 255.5C798.325 255.132 797.77 254.948 796.981 254.948C796.458 254.948 795.999 255.068 795.605 255.308C795.215 255.543 794.941 255.927 794.781 256.46L793.429 256.052C793.637 255.295 794.039 254.7 794.637 254.268C795.234 253.836 796.021 253.62 796.997 253.62C797.781 253.62 798.453 253.761 799.013 254.044C799.578 254.321 799.983 254.743 800.229 255.308C800.351 255.575 800.429 255.865 800.461 256.18C800.493 256.489 800.509 256.815 800.509 257.156V262.5H799.245V260.428L799.541 260.62C799.215 261.319 798.759 261.847 798.173 262.204C797.591 262.561 796.882 262.74 796.045 262.74ZM796.261 261.548C796.773 261.548 797.215 261.457 797.589 261.276C797.967 261.089 798.271 260.847 798.501 260.548C798.73 260.244 798.879 259.913 798.949 259.556C799.029 259.289 799.071 258.993 799.077 258.668C799.087 258.337 799.093 258.084 799.093 257.908L799.589 258.124C799.125 258.188 798.669 258.249 798.221 258.308C797.773 258.367 797.349 258.431 796.949 258.5C796.549 258.564 796.189 258.641 795.869 258.732C795.634 258.807 795.413 258.903 795.205 259.02C795.002 259.137 794.837 259.289 794.709 259.476C794.586 259.657 794.525 259.884 794.525 260.156C794.525 260.391 794.583 260.615 794.701 260.828C794.823 261.041 795.01 261.215 795.261 261.348C795.517 261.481 795.85 261.548 796.261 261.548ZM802.581 262.5V253.86H809.661V262.5H808.237V255.212H804.005V262.5H802.581Z" fill="#EFEFF1"/>
<rect x="958" y="210" width="60" height="60" rx="10" fill="#EFEFF1"/>
<path d="M994.492 231.199C991.06 231.199 986.458 233.553 983.367 237.599H980.804C978.952 237.599 977.892 238.982 977.16 240.442L976.18 242.399H980.804L983.204 244.799L985.604 247.199V251.822L987.56 250.842C989.021 250.113 990.404 249.05 990.404 247.199V244.636C994.45 241.545 996.804 236.942 996.804 233.511V231.199H994.492ZM990.404 235.999C990.828 235.999 991.235 236.168 991.535 236.468C991.835 236.768 992.004 237.175 992.004 237.599C992.004 238.024 991.835 238.431 991.535 238.731C991.235 239.031 990.828 239.199 990.404 239.199C989.979 239.199 989.572 239.031 989.272 238.731C988.972 238.431 988.804 238.024 988.804 237.599C988.804 237.175 988.972 236.768 989.272 236.468C989.572 236.168 989.979 235.999 990.404 235.999ZM980.004 245.599L979.204 246.399C978.048 247.554 977.604 250.399 977.604 250.399C977.604 250.399 980.32 250.082 981.604 248.799L982.404 247.999L980.004 245.599Z" fill="#1B1B1B"/>
<rect x="312" y="300" width="416" height="100" rx="20" fill="#EFEFF1"/>
<rect x="332" y="323.5" width="5" height="53" rx="2.5" fill="#9373EA"/>
<path d="M354.41 345.8C352.97 345.8 351.743 345.487 350.73 344.86C349.717 344.227 348.94 343.347 348.4 342.22C347.867 341.093 347.6 339.787 347.6 338.3C347.6 336.813 347.867 335.507 348.4 334.38C348.94 333.253 349.717 332.377 350.73 331.75C351.743 331.117 352.97 330.8 354.41 330.8C356.07 330.8 357.443 331.22 358.53 332.06C359.623 332.9 360.383 334.03 360.81 335.45L358.69 336.02C358.41 335.013 357.91 334.223 357.19 333.65C356.477 333.077 355.55 332.79 354.41 332.79C353.39 332.79 352.54 333.02 351.86 333.48C351.18 333.94 350.667 334.583 350.32 335.41C349.98 336.237 349.81 337.2 349.81 338.3C349.803 339.4 349.97 340.363 350.31 341.19C350.657 342.017 351.17 342.66 351.85 343.12C352.537 343.58 353.39 343.81 354.41 343.81C355.55 343.81 356.477 343.523 357.19 342.95C357.91 342.37 358.41 341.58 358.69 340.58L360.81 341.15C360.383 342.57 359.623 343.7 358.53 344.54C357.443 345.38 356.07 345.8 354.41 345.8ZM367.099 345.8C366.019 345.8 365.083 345.557 364.289 345.07C363.496 344.583 362.883 343.913 362.449 343.06C362.023 342.2 361.809 341.21 361.809 340.09C361.809 338.963 362.029 337.973 362.469 337.12C362.909 336.26 363.526 335.593 364.319 335.12C365.113 334.64 366.039 334.4 367.099 334.4C368.179 334.4 369.116 334.643 369.909 335.13C370.703 335.617 371.316 336.287 371.749 337.14C372.183 337.993 372.399 338.977 372.399 340.09C372.399 341.217 372.179 342.21 371.739 343.07C371.306 343.923 370.693 344.593 369.899 345.08C369.106 345.56 368.173 345.8 367.099 345.8ZM367.099 343.83C368.133 343.83 368.903 343.483 369.409 342.79C369.923 342.09 370.179 341.19 370.179 340.09C370.179 338.963 369.919 338.063 369.399 337.39C368.886 336.71 368.119 336.37 367.099 336.37C366.399 336.37 365.823 336.53 365.369 336.85C364.916 337.163 364.579 337.6 364.359 338.16C364.139 338.713 364.029 339.357 364.029 340.09C364.029 341.223 364.289 342.13 364.809 342.81C365.329 343.49 366.093 343.83 367.099 343.83ZM373.997 345.5V334.7H381.597V336.67H376.087V345.5H373.997ZM381.694 345.5V343.73C382.094 343.803 382.397 343.793 382.604 343.7C382.817 343.6 382.974 343.42 383.074 343.16C383.18 342.9 383.27 342.563 383.344 342.15C383.457 341.543 383.554 340.853 383.634 340.08C383.72 339.3 383.797 338.457 383.864 337.55C383.93 336.643 383.99 335.693 384.044 334.7H391.804V345.5H389.704V336.67H385.924C385.884 337.197 385.837 337.757 385.784 338.35C385.737 338.937 385.684 339.52 385.624 340.1C385.564 340.68 385.5 341.223 385.434 341.73C385.367 342.237 385.297 342.67 385.224 343.03C385.09 343.75 384.894 344.323 384.634 344.75C384.38 345.17 384.02 345.44 383.554 345.56C383.087 345.687 382.467 345.667 381.694 345.5ZM397.058 345.8C396.258 345.8 395.588 345.653 395.048 345.36C394.508 345.06 394.098 344.667 393.818 344.18C393.544 343.687 393.408 343.147 393.408 342.56C393.408 342.013 393.504 341.533 393.698 341.12C393.891 340.707 394.178 340.357 394.558 340.07C394.938 339.777 395.404 339.54 395.958 339.36C396.438 339.22 396.981 339.097 397.588 338.99C398.194 338.883 398.831 338.783 399.498 338.69C400.171 338.597 400.838 338.503 401.498 338.41L400.738 338.83C400.751 337.983 400.571 337.357 400.198 336.95C399.831 336.537 399.198 336.33 398.298 336.33C397.731 336.33 397.211 336.463 396.738 336.73C396.264 336.99 395.934 337.423 395.748 338.03L393.798 337.43C394.064 336.503 394.571 335.767 395.318 335.22C396.071 334.673 397.071 334.4 398.318 334.4C399.284 334.4 400.124 334.567 400.838 334.9C401.558 335.227 402.084 335.747 402.418 336.46C402.591 336.813 402.698 337.187 402.738 337.58C402.778 337.973 402.798 338.397 402.798 338.85V345.5H400.948V343.03L401.308 343.35C400.861 344.177 400.291 344.793 399.598 345.2C398.911 345.6 398.064 345.8 397.058 345.8ZM397.428 344.09C398.021 344.09 398.531 343.987 398.958 343.78C399.384 343.567 399.728 343.297 399.988 342.97C400.248 342.643 400.418 342.303 400.498 341.95C400.611 341.63 400.674 341.27 400.688 340.87C400.708 340.47 400.718 340.15 400.718 339.91L401.398 340.16C400.738 340.26 400.138 340.35 399.598 340.43C399.058 340.51 398.568 340.59 398.128 340.67C397.694 340.743 397.308 340.833 396.968 340.94C396.681 341.04 396.424 341.16 396.198 341.3C395.978 341.44 395.801 341.61 395.668 341.81C395.541 342.01 395.478 342.253 395.478 342.54C395.478 342.82 395.548 343.08 395.688 343.32C395.828 343.553 396.041 343.74 396.328 343.88C396.614 344.02 396.981 344.09 397.428 344.09ZM409.415 345.8C408.308 345.8 407.368 345.553 406.595 345.06C405.821 344.567 405.228 343.89 404.815 343.03C404.408 342.17 404.201 341.193 404.195 340.1C404.201 338.987 404.415 338.003 404.835 337.15C405.255 336.29 405.855 335.617 406.635 335.13C407.415 334.643 408.351 334.4 409.445 334.4C410.625 334.4 411.631 334.693 412.465 335.28C413.305 335.867 413.858 336.67 414.125 337.69L412.045 338.29C411.838 337.683 411.498 337.213 411.025 336.88C410.558 336.54 410.021 336.37 409.415 336.37C408.728 336.37 408.165 336.533 407.725 336.86C407.285 337.18 406.958 337.62 406.745 338.18C406.531 338.74 406.421 339.38 406.415 340.1C406.421 341.213 406.675 342.113 407.175 342.8C407.681 343.487 408.428 343.83 409.415 343.83C410.088 343.83 410.631 343.677 411.045 343.37C411.465 343.057 411.785 342.61 412.005 342.03L414.125 342.53C413.771 343.583 413.188 344.393 412.375 344.96C411.561 345.52 410.575 345.8 409.415 345.8ZM419.959 345.8C418.879 345.8 417.942 345.557 417.149 345.07C416.355 344.583 415.742 343.913 415.309 343.06C414.882 342.2 414.669 341.21 414.669 340.09C414.669 338.963 414.889 337.973 415.329 337.12C415.769 336.26 416.385 335.593 417.179 335.12C417.972 334.64 418.899 334.4 419.959 334.4C421.039 334.4 421.975 334.643 422.769 335.13C423.562 335.617 424.175 336.287 424.609 337.14C425.042 337.993 425.259 338.977 425.259 340.09C425.259 341.217 425.039 342.21 424.599 343.07C424.165 343.923 423.552 344.593 422.759 345.08C421.965 345.56 421.032 345.8 419.959 345.8ZM419.959 343.83C420.992 343.83 421.762 343.483 422.269 342.79C422.782 342.09 423.039 341.19 423.039 340.09C423.039 338.963 422.779 338.063 422.259 337.39C421.745 336.71 420.979 336.37 419.959 336.37C419.259 336.37 418.682 336.53 418.229 336.85C417.775 337.163 417.439 337.6 417.219 338.16C416.999 338.713 416.889 339.357 416.889 340.09C416.889 341.223 417.149 342.13 417.669 342.81C418.189 343.49 418.952 343.83 419.959 343.83ZM426.846 345.5V334.7H431.596C431.91 334.7 432.223 334.72 432.536 334.76C432.85 334.793 433.126 334.843 433.366 334.91C433.913 335.063 434.38 335.37 434.766 335.83C435.153 336.283 435.346 336.89 435.346 337.65C435.346 338.083 435.28 338.45 435.146 338.75C435.013 339.043 434.83 339.297 434.596 339.51C434.49 339.603 434.376 339.687 434.256 339.76C434.136 339.833 434.016 339.89 433.896 339.93C434.143 339.97 434.386 340.057 434.626 340.19C434.993 340.383 435.293 340.663 435.526 341.03C435.766 341.39 435.886 341.873 435.886 342.48C435.886 343.207 435.71 343.817 435.356 344.31C435.003 344.797 434.503 345.13 433.856 345.31C433.603 345.383 433.316 345.433 432.996 345.46C432.683 345.487 432.37 345.5 432.056 345.5H426.846ZM428.966 343.85H431.926C432.066 343.85 432.226 343.837 432.406 343.81C432.586 343.783 432.746 343.747 432.886 343.7C433.186 343.607 433.4 343.437 433.526 343.19C433.66 342.943 433.726 342.68 433.726 342.4C433.726 342.02 433.626 341.717 433.426 341.49C433.226 341.257 432.973 341.107 432.666 341.04C432.533 340.993 432.386 340.967 432.226 340.96C432.066 340.953 431.93 340.95 431.816 340.95H428.966V343.85ZM428.966 339.27H431.306C431.5 339.27 431.696 339.26 431.896 339.24C432.096 339.213 432.27 339.17 432.416 339.11C432.676 339.01 432.87 338.843 432.996 338.61C433.123 338.37 433.186 338.11 433.186 337.83C433.186 337.523 433.116 337.25 432.976 337.01C432.836 336.77 432.626 336.603 432.346 336.51C432.153 336.443 431.93 336.407 431.676 336.4C431.43 336.387 431.273 336.38 431.206 336.38H428.966V339.27ZM440.341 345.8C439.541 345.8 438.871 345.653 438.331 345.36C437.791 345.06 437.381 344.667 437.101 344.18C436.828 343.687 436.691 343.147 436.691 342.56C436.691 342.013 436.788 341.533 436.981 341.12C437.175 340.707 437.461 340.357 437.841 340.07C438.221 339.777 438.688 339.54 439.241 339.36C439.721 339.22 440.265 339.097 440.871 338.99C441.478 338.883 442.115 338.783 442.781 338.69C443.455 338.597 444.121 338.503 444.781 338.41L444.021 338.83C444.035 337.983 443.855 337.357 443.481 336.95C443.115 336.537 442.481 336.33 441.581 336.33C441.015 336.33 440.495 336.463 440.021 336.73C439.548 336.99 439.218 337.423 439.031 338.03L437.081 337.43C437.348 336.503 437.855 335.767 438.601 335.22C439.355 334.673 440.355 334.4 441.601 334.4C442.568 334.4 443.408 334.567 444.121 334.9C444.841 335.227 445.368 335.747 445.701 336.46C445.875 336.813 445.981 337.187 446.021 337.58C446.061 337.973 446.081 338.397 446.081 338.85V345.5H444.231V343.03L444.591 343.35C444.145 344.177 443.575 344.793 442.881 345.2C442.195 345.6 441.348 345.8 440.341 345.8ZM440.711 344.09C441.305 344.09 441.815 343.987 442.241 343.78C442.668 343.567 443.011 343.297 443.271 342.97C443.531 342.643 443.701 342.303 443.781 341.95C443.895 341.63 443.958 341.27 443.971 340.87C443.991 340.47 444.001 340.15 444.001 339.91L444.681 340.16C444.021 340.26 443.421 340.35 442.881 340.43C442.341 340.51 441.851 340.59 441.411 340.67C440.978 340.743 440.591 340.833 440.251 340.94C439.965 341.04 439.708 341.16 439.481 341.3C439.261 341.44 439.085 341.61 438.951 341.81C438.825 342.01 438.761 342.253 438.761 342.54C438.761 342.82 438.831 343.08 438.971 343.32C439.111 343.553 439.325 343.74 439.611 343.88C439.898 344.02 440.265 344.09 440.711 344.09ZM448.068 345.5V334.7H450.158V339.11H455.428V334.7H457.518V345.5H455.428V341.08H450.158V345.5H448.068ZM468.824 334.7V345.5H466.814V337.99L461.414 345.5H459.714V334.7H461.724V342.06L467.134 334.7H468.824ZM475.809 345.8C474.735 345.8 473.792 345.567 472.979 345.1C472.172 344.627 471.542 343.97 471.089 343.13C470.642 342.283 470.419 341.303 470.419 340.19C470.419 339.01 470.639 337.987 471.079 337.12C471.525 336.253 472.145 335.583 472.939 335.11C473.732 334.637 474.655 334.4 475.709 334.4C476.809 334.4 477.745 334.657 478.519 335.17C479.292 335.677 479.869 336.4 480.249 337.34C480.635 338.28 480.789 339.397 480.709 340.69H478.619V339.93C478.605 338.677 478.365 337.75 477.899 337.15C477.439 336.55 476.735 336.25 475.789 336.25C474.742 336.25 473.955 336.58 473.429 337.24C472.902 337.9 472.639 338.853 472.639 340.1C472.639 341.287 472.902 342.207 473.429 342.86C473.955 343.507 474.715 343.83 475.709 343.83C476.362 343.83 476.925 343.683 477.399 343.39C477.879 343.09 478.252 342.663 478.519 342.11L480.569 342.76C480.149 343.727 479.512 344.477 478.659 345.01C477.805 345.537 476.855 345.8 475.809 345.8ZM471.959 340.69V339.06H479.669V340.69H471.959Z" fill="#1B1B1B"/>
<path opacity="0.7" d="M351.28 372.724C350.709 372.724 350.179 372.62 349.688 372.412C349.197 372.199 348.773 371.9 348.416 371.516C348.064 371.127 347.805 370.665 347.64 370.132L349.008 369.74C349.184 370.273 349.477 370.679 349.888 370.956C350.299 371.233 350.76 371.369 351.272 371.364C351.741 371.353 352.147 371.247 352.488 371.044C352.835 370.836 353.101 370.553 353.288 370.196C353.48 369.839 353.576 369.425 353.576 368.956C353.576 368.241 353.363 367.663 352.936 367.22C352.509 366.772 351.949 366.548 351.256 366.548C351.064 366.548 350.861 366.575 350.648 366.628C350.44 366.681 350.245 366.756 350.064 366.852L349.376 365.724L353.648 361.86L353.832 362.34H348.096V360.98H354.888V362.348L351.248 365.836L351.232 365.332C351.995 365.279 352.661 365.404 353.232 365.708C353.803 366.012 354.245 366.447 354.56 367.012C354.88 367.577 355.04 368.225 355.04 368.956C355.04 369.692 354.875 370.343 354.544 370.908C354.213 371.473 353.765 371.919 353.2 372.244C352.635 372.564 351.995 372.724 351.28 372.724ZM363.435 372.74C362.544 372.74 361.782 372.527 361.147 372.1C360.512 371.673 360.04 371.057 359.731 370.252L361.171 369.876C361.368 370.367 361.654 370.743 362.027 371.004C362.406 371.26 362.872 371.388 363.427 371.388C364.2 371.388 364.8 371.151 365.227 370.676C365.654 370.196 365.907 369.559 365.987 368.764H362.451V367.588H365.987C365.912 366.815 365.667 366.185 365.251 365.7C364.835 365.215 364.238 364.972 363.459 364.972C362.92 364.972 362.446 365.108 362.035 365.38C361.63 365.652 361.331 366.044 361.139 366.556L359.731 366.132C359.96 365.353 360.406 364.74 361.067 364.292C361.728 363.844 362.52 363.62 363.443 363.62C364.296 363.62 365.03 363.812 365.643 364.196C366.256 364.58 366.726 365.116 367.051 365.804C367.382 366.492 367.547 367.287 367.547 368.188C367.547 369.084 367.384 369.873 367.059 370.556C366.734 371.239 366.264 371.775 365.651 372.164C365.038 372.548 364.299 372.74 363.435 372.74ZM371.392 372.5V365.156H368.384V363.86H375.824V365.156H372.816V372.5H371.392ZM379.514 372.74C378.868 372.74 378.327 372.623 377.89 372.388C377.458 372.148 377.13 371.833 376.906 371.444C376.687 371.055 376.578 370.628 376.578 370.164C376.578 369.711 376.663 369.319 376.834 368.988C377.01 368.652 377.255 368.375 377.57 368.156C377.884 367.932 378.26 367.756 378.698 367.628C379.108 367.516 379.567 367.42 380.074 367.34C380.586 367.255 381.103 367.177 381.626 367.108C382.148 367.039 382.636 366.972 383.09 366.908L382.578 367.204C382.594 366.436 382.439 365.868 382.114 365.5C381.794 365.132 381.239 364.948 380.45 364.948C379.927 364.948 379.468 365.068 379.074 365.308C378.684 365.543 378.41 365.927 378.25 366.46L376.898 366.052C377.106 365.295 377.508 364.7 378.106 364.268C378.703 363.836 379.49 363.62 380.466 363.62C381.25 363.62 381.922 363.761 382.482 364.044C383.047 364.321 383.452 364.743 383.698 365.308C383.82 365.575 383.898 365.865 383.93 366.18C383.962 366.489 383.977 366.815 383.977 367.156V372.5H382.714V370.428L383.01 370.62C382.684 371.319 382.228 371.847 381.642 372.204C381.06 372.561 380.351 372.74 379.514 372.74ZM379.73 371.548C380.242 371.548 380.684 371.457 381.058 371.276C381.436 371.089 381.74 370.847 381.97 370.548C382.199 370.244 382.348 369.913 382.418 369.556C382.498 369.289 382.54 368.993 382.546 368.668C382.556 368.337 382.562 368.084 382.562 367.908L383.058 368.124C382.594 368.188 382.138 368.249 381.69 368.308C381.242 368.367 380.818 368.431 380.418 368.5C380.018 368.564 379.658 368.641 379.338 368.732C379.103 368.807 378.882 368.903 378.674 369.02C378.471 369.137 378.306 369.289 378.178 369.476C378.055 369.657 377.993 369.884 377.993 370.156C377.993 370.391 378.052 370.615 378.17 370.828C378.292 371.041 378.479 371.215 378.73 371.348C378.986 371.481 379.319 371.548 379.73 371.548ZM386.05 372.5V363.86H393.13V372.5H391.706V365.212H387.474V372.5H386.05Z" fill="#1B1B1B"/>
<rect x="648" y="320" width="60" height="60" rx="10" fill="white"/>
<path d="M687.663 345.931C687.138 344.676 686.373 343.536 685.411 342.573C684.453 341.608 683.314 340.841 682.06 340.316C680.775 339.775 679.394 339.497 678 339.5H677.953C676.535 339.507 675.164 339.788 673.873 340.341C672.629 340.872 671.501 341.641 670.552 342.603C669.6 343.564 668.843 344.701 668.325 345.95C667.787 347.249 667.515 348.643 667.524 350.049C667.531 351.676 667.92 353.291 668.646 354.734V358.297C668.646 358.892 669.129 359.375 669.722 359.375H673.28C674.73 360.107 676.331 360.492 677.956 360.5H678.005C679.406 360.5 680.763 360.228 682.043 359.696C683.291 359.177 684.426 358.419 685.383 357.465C686.349 356.506 687.108 355.386 687.64 354.137C688.191 352.843 688.472 351.467 688.479 350.047C688.484 348.62 688.207 347.234 687.663 345.931ZM673.322 351.125C672.703 351.125 672.199 350.621 672.199 350C672.199 349.379 672.703 348.875 673.322 348.875C673.941 348.875 674.445 349.379 674.445 350C674.445 350.621 673.943 351.125 673.322 351.125ZM678 351.125C677.381 351.125 676.878 350.621 676.878 350C676.878 349.379 677.381 348.875 678 348.875C678.619 348.875 679.123 349.379 679.123 350C679.123 350.621 678.619 351.125 678 351.125ZM682.678 351.125C682.06 351.125 681.556 350.621 681.556 350C681.556 349.379 682.06 348.875 682.678 348.875C683.297 348.875 683.801 349.379 683.801 350C683.801 350.621 683.297 351.125 682.678 351.125Z" fill="#1B1B1B"/>
<rect x="100" y="190" width="392" height="100" rx="20" fill="#EFEFF1"/>
<rect x="120" y="213.5" width="5" height="53" rx="2.5" fill="#9373EA"/>
<path d="M136.4 235.5V221.1H138.49V227.31H145.69V221.1H147.79V235.5H145.69V229.28H138.49V235.5H136.4ZM153.049 235.8C152.249 235.8 151.579 235.653 151.039 235.36C150.499 235.06 150.089 234.667 149.809 234.18C149.536 233.687 149.399 233.147 149.399 232.56C149.399 232.013 149.496 231.533 149.689 231.12C149.883 230.707 150.169 230.357 150.549 230.07C150.929 229.777 151.396 229.54 151.949 229.36C152.429 229.22 152.973 229.097 153.579 228.99C154.186 228.883 154.823 228.783 155.489 228.69C156.163 228.597 156.829 228.503 157.489 228.41L156.729 228.83C156.743 227.983 156.563 227.357 156.189 226.95C155.823 226.537 155.189 226.33 154.289 226.33C153.723 226.33 153.203 226.463 152.729 226.73C152.256 226.99 151.926 227.423 151.739 228.03L149.789 227.43C150.056 226.503 150.563 225.767 151.309 225.22C152.063 224.673 153.063 224.4 154.309 224.4C155.276 224.4 156.116 224.567 156.829 224.9C157.549 225.227 158.076 225.747 158.409 226.46C158.583 226.813 158.689 227.187 158.729 227.58C158.769 227.973 158.789 228.397 158.789 228.85V235.5H156.939V233.03L157.299 233.35C156.853 234.177 156.283 234.793 155.589 235.2C154.903 235.6 154.056 235.8 153.049 235.8ZM153.419 234.09C154.013 234.09 154.523 233.987 154.949 233.78C155.376 233.567 155.719 233.297 155.979 232.97C156.239 232.643 156.409 232.303 156.489 231.95C156.603 231.63 156.666 231.27 156.679 230.87C156.699 230.47 156.709 230.15 156.709 229.91L157.389 230.16C156.729 230.26 156.129 230.35 155.589 230.43C155.049 230.51 154.559 230.59 154.119 230.67C153.686 230.743 153.299 230.833 152.959 230.94C152.673 231.04 152.416 231.16 152.189 231.3C151.969 231.44 151.793 231.61 151.659 231.81C151.533 232.01 151.469 232.253 151.469 232.54C151.469 232.82 151.539 233.08 151.679 233.32C151.819 233.553 152.033 233.74 152.319 233.88C152.606 234.02 152.973 234.09 153.419 234.09ZM165.406 235.8C164.299 235.8 163.359 235.553 162.586 235.06C161.813 234.567 161.219 233.89 160.806 233.03C160.399 232.17 160.193 231.193 160.186 230.1C160.193 228.987 160.406 228.003 160.826 227.15C161.246 226.29 161.846 225.617 162.626 225.13C163.406 224.643 164.343 224.4 165.436 224.4C166.616 224.4 167.623 224.693 168.456 225.28C169.296 225.867 169.849 226.67 170.116 227.69L168.036 228.29C167.829 227.683 167.489 227.213 167.016 226.88C166.549 226.54 166.013 226.37 165.406 226.37C164.719 226.37 164.156 226.533 163.716 226.86C163.276 227.18 162.949 227.62 162.736 228.18C162.523 228.74 162.413 229.38 162.406 230.1C162.413 231.213 162.666 232.113 163.166 232.8C163.673 233.487 164.419 233.83 165.406 233.83C166.079 233.83 166.623 233.677 167.036 233.37C167.456 233.057 167.776 232.61 167.996 232.03L170.116 232.53C169.763 233.583 169.179 234.393 168.366 234.96C167.553 235.52 166.566 235.8 165.406 235.8ZM174.226 235.5V226.58H170.536V224.7H180.006V226.58H176.316V235.5H174.226ZM186.375 235.8C185.341 235.8 184.475 235.55 183.775 235.05C183.075 234.543 182.545 233.86 182.185 233C181.825 232.14 181.645 231.17 181.645 230.09C181.645 229.01 181.821 228.04 182.175 227.18C182.535 226.32 183.061 225.643 183.755 225.15C184.455 224.65 185.315 224.4 186.335 224.4C187.348 224.4 188.221 224.65 188.955 225.15C189.695 225.643 190.265 226.32 190.665 227.18C191.065 228.033 191.265 229.003 191.265 230.09C191.265 231.17 191.065 232.143 190.665 233.01C190.271 233.87 189.708 234.55 188.975 235.05C188.248 235.55 187.381 235.8 186.375 235.8ZM181.295 240.3V224.7H183.155V232.47H183.395V240.3H181.295ZM186.085 233.91C186.751 233.91 187.301 233.74 187.735 233.4C188.175 233.06 188.501 232.603 188.715 232.03C188.935 231.45 189.045 230.803 189.045 230.09C189.045 229.383 188.935 228.743 188.715 228.17C188.501 227.597 188.171 227.14 187.725 226.8C187.278 226.46 186.708 226.29 186.015 226.29C185.361 226.29 184.821 226.45 184.395 226.77C183.975 227.09 183.661 227.537 183.455 228.11C183.255 228.683 183.155 229.343 183.155 230.09C183.155 230.837 183.255 231.497 183.455 232.07C183.655 232.643 183.971 233.093 184.405 233.42C184.838 233.747 185.398 233.91 186.085 233.91ZM197.563 235.8C196.483 235.8 195.546 235.557 194.753 235.07C193.959 234.583 193.346 233.913 192.913 233.06C192.486 232.2 192.273 231.21 192.273 230.09C192.273 228.963 192.493 227.973 192.933 227.12C193.373 226.26 193.989 225.593 194.783 225.12C195.576 224.64 196.503 224.4 197.563 224.4C198.643 224.4 199.579 224.643 200.373 225.13C201.166 225.617 201.779 226.287 202.213 227.14C202.646 227.993 202.863 228.977 202.863 230.09C202.863 231.217 202.643 232.21 202.203 233.07C201.769 233.923 201.156 234.593 200.363 235.08C199.569 235.56 198.636 235.8 197.563 235.8ZM197.563 233.83C198.596 233.83 199.366 233.483 199.873 232.79C200.386 232.09 200.643 231.19 200.643 230.09C200.643 228.963 200.383 228.063 199.863 227.39C199.349 226.71 198.583 226.37 197.563 226.37C196.863 226.37 196.286 226.53 195.833 226.85C195.379 227.163 195.043 227.6 194.823 228.16C194.603 228.713 194.493 229.357 194.493 230.09C194.493 231.223 194.753 232.13 195.273 232.81C195.793 233.49 196.556 233.83 197.563 233.83ZM209.28 223.46C208.753 223.46 208.27 223.33 207.83 223.07C207.397 222.81 207.05 222.463 206.79 222.03C206.53 221.597 206.4 221.113 206.4 220.58H208.06C208.06 220.913 208.18 221.2 208.42 221.44C208.66 221.68 208.947 221.8 209.28 221.8C209.62 221.8 209.907 221.68 210.14 221.44C210.38 221.2 210.5 220.913 210.5 220.58H212.16C212.16 221.113 212.03 221.597 211.77 222.03C211.51 222.463 211.16 222.81 210.72 223.07C210.287 223.33 209.807 223.46 209.28 223.46ZM213.56 224.7V235.5H211.55V227.99L206.15 235.5H204.45V224.7H206.46V232.06L211.87 224.7H213.56ZM215.745 235.5L215.755 224.7H217.875V229.9L222.115 224.7H224.775L220.295 230.1L225.235 235.5H222.395L217.875 230.3V235.5H215.745ZM228.693 235.8C227.893 235.8 227.223 235.653 226.683 235.36C226.143 235.06 225.733 234.667 225.453 234.18C225.18 233.687 225.043 233.147 225.043 232.56C225.043 232.013 225.14 231.533 225.333 231.12C225.526 230.707 225.813 230.357 226.193 230.07C226.573 229.777 227.04 229.54 227.593 229.36C228.073 229.22 228.616 229.097 229.223 228.99C229.83 228.883 230.466 228.783 231.133 228.69C231.806 228.597 232.473 228.503 233.133 228.41L232.373 228.83C232.386 227.983 232.206 227.357 231.833 226.95C231.466 226.537 230.833 226.33 229.933 226.33C229.366 226.33 228.846 226.463 228.373 226.73C227.9 226.99 227.57 227.423 227.383 228.03L225.433 227.43C225.7 226.503 226.206 225.767 226.953 225.22C227.706 224.673 228.706 224.4 229.953 224.4C230.92 224.4 231.76 224.567 232.473 224.9C233.193 225.227 233.72 225.747 234.053 226.46C234.226 226.813 234.333 227.187 234.373 227.58C234.413 227.973 234.433 228.397 234.433 228.85V235.5H232.583V233.03L232.943 233.35C232.496 234.177 231.926 234.793 231.233 235.2C230.546 235.6 229.7 235.8 228.693 235.8ZM229.063 234.09C229.656 234.09 230.166 233.987 230.593 233.78C231.02 233.567 231.363 233.297 231.623 232.97C231.883 232.643 232.053 232.303 232.133 231.95C232.246 231.63 232.31 231.27 232.323 230.87C232.343 230.47 232.353 230.15 232.353 229.91L233.033 230.16C232.373 230.26 231.773 230.35 231.233 230.43C230.693 230.51 230.203 230.59 229.763 230.67C229.33 230.743 228.943 230.833 228.603 230.94C228.316 231.04 228.06 231.16 227.833 231.3C227.613 231.44 227.436 231.61 227.303 231.81C227.176 232.01 227.113 232.253 227.113 232.54C227.113 232.82 227.183 233.08 227.323 233.32C227.463 233.553 227.676 233.74 227.963 233.88C228.25 234.02 228.616 234.09 229.063 234.09ZM239.834 235.5V221.1H245.654C245.794 221.1 245.967 221.107 246.174 221.12C246.38 221.127 246.577 221.147 246.764 221.18C247.564 221.307 248.23 221.58 248.764 222C249.304 222.42 249.707 222.95 249.974 223.59C250.24 224.23 250.374 224.937 250.374 225.71C250.374 226.49 250.24 227.2 249.974 227.84C249.707 228.48 249.304 229.01 248.764 229.43C248.23 229.85 247.564 230.123 246.764 230.25C246.577 230.277 246.377 230.297 246.164 230.31C245.957 230.323 245.787 230.33 245.654 230.33H241.924V235.5H239.834ZM241.924 228.35H245.574C245.707 228.35 245.854 228.343 246.014 228.33C246.18 228.317 246.337 228.293 246.484 228.26C246.91 228.16 247.254 227.977 247.514 227.71C247.774 227.437 247.96 227.123 248.074 226.77C248.187 226.417 248.244 226.063 248.244 225.71C248.244 225.357 248.187 225.007 248.074 224.66C247.96 224.307 247.774 223.997 247.514 223.73C247.254 223.457 246.91 223.27 246.484 223.17C246.337 223.13 246.18 223.103 246.014 223.09C245.854 223.077 245.707 223.07 245.574 223.07H241.924V228.35ZM251.773 235.5V221.1H253.863V227.82L259.893 221.1H262.493L256.123 228.13L262.963 235.5H260.283L253.863 228.62V235.5H251.773Z" fill="#1B1B1B"/>
<path opacity="0.7" d="M135.8 262.492L135.808 261.212L140.92 256.612C141.347 256.228 141.632 255.865 141.776 255.524C141.925 255.177 142 254.823 142 254.46C142 254.017 141.899 253.617 141.696 253.26C141.493 252.903 141.216 252.62 140.864 252.412C140.517 252.204 140.123 252.1 139.68 252.1C139.221 252.1 138.813 252.209 138.456 252.428C138.099 252.641 137.816 252.927 137.608 253.284C137.405 253.641 137.307 254.031 137.312 254.452H135.856C135.856 253.727 136.024 253.087 136.36 252.532C136.696 251.972 137.152 251.535 137.728 251.22C138.309 250.9 138.968 250.74 139.704 250.74C140.419 250.74 141.059 250.905 141.624 251.236C142.189 251.561 142.635 252.007 142.96 252.572C143.291 253.132 143.456 253.767 143.456 254.476C143.456 254.977 143.392 255.412 143.264 255.78C143.141 256.148 142.949 256.489 142.688 256.804C142.427 257.113 142.099 257.444 141.704 257.796L137.456 261.612L137.272 261.132H143.456V262.492H135.8ZM151.685 262.74C150.794 262.74 150.032 262.527 149.397 262.1C148.762 261.673 148.29 261.057 147.981 260.252L149.421 259.876C149.618 260.367 149.904 260.743 150.277 261.004C150.656 261.26 151.122 261.388 151.677 261.388C152.45 261.388 153.05 261.151 153.477 260.676C153.904 260.196 154.157 259.559 154.237 258.764H150.701V257.588H154.237C154.162 256.815 153.917 256.185 153.501 255.7C153.085 255.215 152.488 254.972 151.709 254.972C151.17 254.972 150.696 255.108 150.285 255.38C149.88 255.652 149.581 256.044 149.389 256.556L147.981 256.132C148.21 255.353 148.656 254.74 149.317 254.292C149.978 253.844 150.77 253.62 151.693 253.62C152.546 253.62 153.28 253.812 153.893 254.196C154.506 254.58 154.976 255.116 155.301 255.804C155.632 256.492 155.797 257.287 155.797 258.188C155.797 259.084 155.634 259.873 155.309 260.556C154.984 261.239 154.514 261.775 153.901 262.164C153.288 262.548 152.549 262.74 151.685 262.74ZM159.642 262.5V255.156H156.634V253.86H164.074V255.156H161.066V262.5H159.642ZM167.764 262.74C167.118 262.74 166.577 262.623 166.14 262.388C165.708 262.148 165.38 261.833 165.156 261.444C164.937 261.055 164.828 260.628 164.828 260.164C164.828 259.711 164.913 259.319 165.084 258.988C165.26 258.652 165.505 258.375 165.82 258.156C166.134 257.932 166.51 257.756 166.948 257.628C167.358 257.516 167.817 257.42 168.324 257.34C168.836 257.255 169.353 257.177 169.876 257.108C170.398 257.039 170.886 256.972 171.34 256.908L170.828 257.204C170.844 256.436 170.689 255.868 170.364 255.5C170.044 255.132 169.489 254.948 168.7 254.948C168.177 254.948 167.718 255.068 167.324 255.308C166.934 255.543 166.66 255.927 166.5 256.46L165.148 256.052C165.356 255.295 165.758 254.7 166.356 254.268C166.953 253.836 167.74 253.62 168.716 253.62C169.5 253.62 170.172 253.761 170.732 254.044C171.297 254.321 171.702 254.743 171.948 255.308C172.07 255.575 172.148 255.865 172.18 256.18C172.212 256.489 172.227 256.815 172.227 257.156V262.5H170.964V260.428L171.26 260.62C170.934 261.319 170.478 261.847 169.892 262.204C169.31 262.561 168.601 262.74 167.764 262.74ZM167.98 261.548C168.492 261.548 168.934 261.457 169.308 261.276C169.686 261.089 169.99 260.847 170.22 260.548C170.449 260.244 170.598 259.913 170.668 259.556C170.748 259.289 170.79 258.993 170.796 258.668C170.806 258.337 170.812 258.084 170.812 257.908L171.308 258.124C170.844 258.188 170.388 258.249 169.94 258.308C169.492 258.367 169.068 258.431 168.668 258.5C168.268 258.564 167.908 258.641 167.588 258.732C167.353 258.807 167.132 258.903 166.924 259.02C166.721 259.137 166.556 259.289 166.428 259.476C166.305 259.657 166.243 259.884 166.243 260.156C166.243 260.391 166.302 260.615 166.42 260.828C166.542 261.041 166.729 261.215 166.98 261.348C167.236 261.481 167.569 261.548 167.98 261.548ZM174.3 262.5V253.86H181.38V262.5H179.956V255.212H175.724V262.5H174.3Z" fill="#1B1B1B"/>
<rect x="412" y="210" width="60" height="60" rx="10" fill="white"/>
<mask id="mask1_4079_10490" style="mask-type:luminance" maskUnits="userSpaceOnUse" x="432" y="230" width="20" height="20">
<path d="M441 241L445.74 233.5C446.03 233.67 446.31 233.85 446.57 234.05L449.09 233.04C449.25 232.98 449.52 233.01 449.6 233.17L451.67 236.75C451.77 236.92 451.73 237.2 451.6 237.32L449.43 239C449.48 239.33 449.5 239.66 449.5 240L441 241Z" fill="white"/>
<path d="M440.636 239.635L449.501 239.99C449.499 240.326 449.483 240.659 449.44 240.984L451.575 242.661C451.707 242.77 451.816 243.018 451.717 243.168L449.652 246.75C449.555 246.922 449.292 247.027 449.123 246.975L446.583 245.936C446.323 246.144 446.047 246.326 445.752 246.496L440.636 239.635Z" fill="white"/>
<path d="M441.636 238.635L445.761 246.49C445.469 246.656 445.173 246.808 444.87 246.933L444.485 249.621C444.457 249.789 444.296 250.008 444.117 249.997L439.982 250C439.785 250.002 439.562 249.827 439.523 249.654L439.153 246.935C438.843 246.813 438.547 246.666 438.252 246.496L441.636 238.635Z" fill="white"/>
<path d="M443 239L438.26 246.5C437.97 246.33 437.69 246.15 437.43 245.95L434.91 246.96C434.75 247.02 434.48 246.99 434.4 246.83L432.33 243.25C432.23 243.08 432.27 242.8 432.4 242.68L434.57 241C434.52 240.67 434.5 240.34 434.5 240L443 239Z" fill="white"/>
<path d="M443.368 240.365L434.502 240.01C434.505 239.674 434.521 239.341 434.564 239.016L432.429 237.339C432.297 237.23 432.188 236.982 432.287 236.832L434.352 233.25C434.449 233.078 434.712 232.973 434.881 233.025L437.421 234.064C437.681 233.856 437.957 233.674 438.252 233.504L443.368 240.365Z" fill="white"/>
<path d="M442.368 241.365L438.242 233.51C438.535 233.344 438.831 233.192 439.134 233.067L439.519 230.379C439.547 230.211 439.708 229.992 439.887 230.003L444.022 230C444.219 229.998 444.442 230.173 444.481 230.346L444.851 233.065C445.161 233.187 445.457 233.334 445.752 233.504L442.368 241.365Z" fill="white"/>
<path d="M442 243.5C443.933 243.5 445.5 241.933 445.5 240C445.5 238.067 443.933 236.5 442 236.5C440.067 236.5 438.5 238.067 438.5 240C438.5 241.933 440.067 243.5 442 243.5Z" fill="black"/>
</mask>
<g mask="url(#mask1_4079_10490)">
<path d="M454 228H430V252H454V228Z" fill="#1B1B1B"/>
</g>
<rect x="8" y="80" width="366" height="100" rx="20" fill="#EFEFF1"/>
<rect x="28" y="103.5" width="5" height="53" rx="2.5" fill="#9373EA"/>
<path d="M43.4 125.5L48.08 111.1H51.09L55.77 125.5H53.6L49.29 112.36H49.83L45.57 125.5H43.4ZM45.83 122.25V120.29H53.35V122.25H45.83ZM56.9541 125.5V114.7H59.0441V119.11H64.3141V114.7H66.4041V125.5H64.3141V121.08H59.0441V125.5H56.9541ZM71.6602 125.8C70.8602 125.8 70.1902 125.653 69.6502 125.36C69.1102 125.06 68.7002 124.667 68.4202 124.18C68.1468 123.687 68.0102 123.147 68.0102 122.56C68.0102 122.013 68.1068 121.533 68.3002 121.12C68.4935 120.707 68.7802 120.357 69.1602 120.07C69.5402 119.777 70.0068 119.54 70.5602 119.36C71.0402 119.22 71.5835 119.097 72.1902 118.99C72.7968 118.883 73.4335 118.783 74.1002 118.69C74.7735 118.597 75.4402 118.503 76.1002 118.41L75.3402 118.83C75.3535 117.983 75.1735 117.357 74.8002 116.95C74.4335 116.537 73.8002 116.33 72.9002 116.33C72.3335 116.33 71.8135 116.463 71.3402 116.73C70.8668 116.99 70.5368 117.423 70.3502 118.03L68.4002 117.43C68.6668 116.503 69.1735 115.767 69.9202 115.22C70.6735 114.673 71.6735 114.4 72.9202 114.4C73.8868 114.4 74.7268 114.567 75.4402 114.9C76.1602 115.227 76.6868 115.747 77.0202 116.46C77.1935 116.813 77.3002 117.187 77.3402 117.58C77.3802 117.973 77.4002 118.397 77.4002 118.85V125.5H75.5502V123.03L75.9102 123.35C75.4635 124.177 74.8935 124.793 74.2002 125.2C73.5135 125.6 72.6668 125.8 71.6602 125.8ZM72.0302 124.09C72.6235 124.09 73.1335 123.987 73.5602 123.78C73.9868 123.567 74.3302 123.297 74.5902 122.97C74.8502 122.643 75.0202 122.303 75.1002 121.95C75.2135 121.63 75.2768 121.27 75.2902 120.87C75.3102 120.47 75.3202 120.15 75.3202 119.91L76.0002 120.16C75.3402 120.26 74.7402 120.35 74.2002 120.43C73.6602 120.51 73.1702 120.59 72.7302 120.67C72.2968 120.743 71.9102 120.833 71.5702 120.94C71.2835 121.04 71.0268 121.16 70.8002 121.3C70.5802 121.44 70.4035 121.61 70.2702 121.81C70.1435 122.01 70.0802 122.253 70.0802 122.54C70.0802 122.82 70.1502 123.08 70.2902 123.32C70.4302 123.553 70.6435 123.74 70.9302 123.88C71.2168 124.02 71.5835 124.09 72.0302 124.09ZM78.3969 125.5V123.73C78.7969 123.803 79.1002 123.793 79.3069 123.7C79.5202 123.6 79.6769 123.42 79.7769 123.16C79.8835 122.9 79.9735 122.563 80.0469 122.15C80.1602 121.543 80.2569 120.853 80.3369 120.08C80.4235 119.3 80.5002 118.457 80.5669 117.55C80.6335 116.643 80.6935 115.693 80.7469 114.7H88.5069V125.5H86.4069V116.67H82.6269C82.5869 117.197 82.5402 117.757 82.4869 118.35C82.4402 118.937 82.3869 119.52 82.3269 120.1C82.2669 120.68 82.2035 121.223 82.1369 121.73C82.0702 122.237 82.0002 122.67 81.9269 123.03C81.7935 123.75 81.5969 124.323 81.3369 124.75C81.0835 125.17 80.7235 125.44 80.2569 125.56C79.7902 125.687 79.1702 125.667 78.3969 125.5ZM99.8109 114.7V125.5H97.8009V117.99L92.4009 125.5H90.7009V114.7H92.7109V122.06L98.1209 114.7H99.8109ZM105.855 125.8C104.809 125.8 103.869 125.577 103.035 125.13C102.209 124.683 101.555 124.067 101.075 123.28L102.735 122.19C103.122 122.71 103.569 123.113 104.075 123.4C104.589 123.687 105.165 123.83 105.805 123.83C106.472 123.83 106.999 123.68 107.385 123.38C107.779 123.073 107.975 122.663 107.975 122.15C107.975 121.743 107.862 121.443 107.635 121.25C107.415 121.05 107.109 120.92 106.715 120.86C106.329 120.8 105.889 120.77 105.395 120.77H104.435V119.09H105.395C106.049 119.09 106.585 119 107.005 118.82C107.432 118.633 107.645 118.283 107.645 117.77C107.645 117.27 107.462 116.91 107.095 116.69C106.735 116.47 106.305 116.36 105.805 116.36C105.245 116.36 104.702 116.48 104.175 116.72C103.649 116.953 103.189 117.243 102.795 117.59L101.575 116.16C102.149 115.607 102.802 115.177 103.535 114.87C104.275 114.557 105.069 114.4 105.915 114.4C106.609 114.4 107.249 114.523 107.835 114.77C108.429 115.01 108.902 115.367 109.255 115.84C109.615 116.313 109.795 116.897 109.795 117.59C109.795 118.13 109.675 118.623 109.435 119.07C109.195 119.517 108.829 119.923 108.335 120.29L108.275 119.58C108.682 119.707 109.022 119.91 109.295 120.19C109.569 120.47 109.772 120.8 109.905 121.18C110.045 121.553 110.115 121.95 110.115 122.37C110.115 123.097 109.922 123.717 109.535 124.23C109.155 124.743 108.642 125.133 107.995 125.4C107.349 125.667 106.635 125.8 105.855 125.8ZM115.112 125.5V114.7H117.202V119.11H122.472V114.7H124.562V125.5H122.472V121.08H117.202V125.5H115.112ZM135.868 114.7V125.5H133.858V117.99L128.458 125.5H126.758V114.7H128.768V122.06L134.178 114.7H135.868ZM138.052 125.5V114.7H140.062V123.62H143.452V114.7H145.462V123.62H148.842V114.7H150.852V125.5H138.052ZM162.148 114.7V125.5H160.138V117.99L154.738 125.5H153.038V114.7H155.048V122.06L160.458 114.7H162.148Z" fill="#1B1B1B"/>
<path opacity="0.7" d="M46.128 152.5V142.556L43.96 143.868V142.276L46.128 140.98H47.576V152.5H46.128ZM56.9351 152.74C56.0445 152.74 55.2818 152.527 54.6471 152.1C54.0125 151.673 53.5405 151.057 53.2311 150.252L54.6711 149.876C54.8685 150.367 55.1538 150.743 55.5271 151.004C55.9058 151.26 56.3725 151.388 56.9271 151.388C57.7005 151.388 58.3005 151.151 58.7271 150.676C59.1538 150.196 59.4071 149.559 59.4871 148.764H55.9511V147.588H59.4871C59.4125 146.815 59.1671 146.185 58.7511 145.7C58.3351 145.215 57.7378 144.972 56.9591 144.972C56.4205 144.972 55.9458 145.108 55.5351 145.38C55.1298 145.652 54.8311 146.044 54.6391 146.556L53.2311 146.132C53.4605 145.353 53.9058 144.74 54.5671 144.292C55.2285 143.844 56.0205 143.62 56.9431 143.62C57.7965 143.62 58.5298 143.812 59.1431 144.196C59.7565 144.58 60.2258 145.116 60.5511 145.804C60.8818 146.492 61.0471 147.287 61.0471 148.188C61.0471 149.084 60.8845 149.873 60.5591 150.556C60.2338 151.239 59.7645 151.775 59.1511 152.164C58.5378 152.548 57.7991 152.74 56.9351 152.74ZM64.8924 152.5V145.156H61.8844V143.86H69.3244V145.156H66.3164V152.5H64.8924ZM73.0135 152.74C72.3682 152.74 71.8268 152.623 71.3895 152.388C70.9575 152.148 70.6295 151.833 70.4055 151.444C70.1868 151.055 70.0775 150.628 70.0775 150.164C70.0775 149.711 70.1628 149.319 70.3335 148.988C70.5095 148.652 70.7548 148.375 71.0695 148.156C71.3842 147.932 71.7602 147.756 72.1975 147.628C72.6082 147.516 73.0668 147.42 73.5735 147.34C74.0855 147.255 74.6028 147.177 75.1255 147.108C75.6482 147.039 76.1362 146.972 76.5895 146.908L76.0775 147.204C76.0935 146.436 75.9388 145.868 75.6135 145.5C75.2935 145.132 74.7388 144.948 73.9495 144.948C73.4268 144.948 72.9682 145.068 72.5735 145.308C72.1842 145.543 71.9095 145.927 71.7495 146.46L70.3975 146.052C70.6055 145.295 71.0082 144.7 71.6055 144.268C72.2028 143.836 72.9895 143.62 73.9655 143.62C74.7495 143.62 75.4215 143.761 75.9815 144.044C76.5468 144.321 76.9522 144.743 77.1975 145.308C77.3202 145.575 77.3975 145.865 77.4295 146.18C77.4615 146.489 77.4775 146.815 77.4775 147.156V152.5H76.2135V150.428L76.5095 150.62C76.1842 151.319 75.7282 151.847 75.1415 152.204C74.5602 152.561 73.8508 152.74 73.0135 152.74ZM73.2295 151.548C73.7415 151.548 74.1842 151.457 74.5575 151.276C74.9362 151.089 75.2402 150.847 75.4695 150.548C75.6988 150.244 75.8482 149.913 75.9175 149.556C75.9975 149.289 76.0402 148.993 76.0455 148.668C76.0562 148.337 76.0615 148.084 76.0615 147.908L76.5575 148.124C76.0935 148.188 75.6375 148.249 75.1895 148.308C74.7415 148.367 74.3175 148.431 73.9175 148.5C73.5175 148.564 73.1575 148.641 72.8375 148.732C72.6028 148.807 72.3815 148.903 72.1735 149.02C71.9708 149.137 71.8055 149.289 71.6775 149.476C71.5548 149.657 71.4935 149.884 71.4935 150.156C71.4935 150.391 71.5522 150.615 71.6695 150.828C71.7922 151.041 71.9788 151.215 72.2295 151.348C72.4855 151.481 72.8188 151.548 73.2295 151.548ZM79.5495 152.5V143.86H86.6295V152.5H85.2055V145.212H80.9735V152.5H79.5495Z" fill="#1B1B1B"/>
<rect x="294" y="100" width="60" height="60" rx="10" fill="white"/>
<path d="M328 129C328 130.326 327.473 131.598 326.536 132.536C325.598 133.473 324.326 134 323 134C321.674 134 320.402 133.473 319.464 132.536C318.527 131.598 318 130.326 318 129C318 127.674 318.527 126.402 319.464 125.464C320.402 124.527 321.674 124 323 124C324.326 124 325.598 124.527 326.536 125.464C327.473 126.402 328 127.674 328 129Z" fill="#1B1B1B"/>
<path fill-rule="evenodd" clip-rule="evenodd" d="M314 128.999C314 127.561 314.345 126.145 315.005 124.868C315.665 123.59 316.621 122.49 317.794 121.658C318.967 120.827 320.322 120.288 321.745 120.088C323.169 119.887 324.62 120.031 325.976 120.506C327.333 120.982 328.556 121.775 329.543 122.821C330.53 123.866 331.253 125.132 331.65 126.514C332.047 127.896 332.107 129.352 331.826 130.762C331.544 132.172 330.929 133.494 330.032 134.617L333.707 138.292C333.889 138.481 333.99 138.733 333.988 138.995C333.985 139.258 333.88 139.508 333.695 139.694C333.509 139.879 333.259 139.984 332.996 139.987C332.734 139.989 332.482 139.888 332.293 139.706L328.618 136.031C327.294 137.089 325.698 137.752 324.014 137.943C322.33 138.133 320.626 137.845 319.098 137.11C317.571 136.375 316.282 135.224 315.38 133.789C314.478 132.354 314 130.694 314 128.999ZM323 121.999C322.081 121.999 321.17 122.18 320.321 122.532C319.472 122.884 318.7 123.399 318.05 124.049C317.4 124.699 316.885 125.471 316.533 126.32C316.181 127.17 316 128.08 316 128.999C316 129.918 316.181 130.829 316.533 131.678C316.885 132.527 317.4 133.299 318.05 133.949C318.7 134.599 319.472 135.114 320.321 135.466C321.17 135.818 322.081 135.999 323 135.999C324.857 135.999 326.637 135.262 327.95 133.949C329.263 132.636 330 130.856 330 128.999C330 127.143 329.263 125.362 327.95 124.049C326.637 122.737 324.857 121.999 323 121.999Z" fill="#1B1B1B"/>
</g>
<rect x="0.5" y="0.5" width="1759" height="479" rx="39.5" stroke="black" stroke-opacity="0.1"/>
<defs>
<clipPath id="clip0_4079_10490">
<rect width="1760" height="480" rx="40" fill="white"/>
</clipPath>
<clipPath id="clip1_4079_10490">
<rect width="24" height="24" fill="white" transform="translate(1549 228)"/>
</clipPath>
</defs>
</svg>
