<svg width="41" height="40" viewBox="0 0 41 40" fill="none" xmlns="http://www.w3.org/2000/svg">
<rect x="0.5" width="40" height="40" rx="10" fill="white"/>
<path fill-rule="evenodd" clip-rule="evenodd" d="M30.2073 31.2996C30.7592 31.166 31.3333 30.7224 31.6055 30.2193C31.8893 29.6948 31.8749 30.2136 31.8749 20.4992C31.8749 10.785 31.8893 11.3053 31.6055 10.778C31.3248 10.2563 30.704 9.80054 30.1045 9.6759C29.7527 9.60273 12.2489 9.60292 11.8981 9.67604C11.0437 9.85422 10.3563 10.5417 10.1781 11.3961C10.1414 11.5718 10.1263 13.9815 10.1263 19.631C10.1263 26.829 10.1335 27.6248 10.1999 27.6912C10.2405 27.7317 10.309 27.7649 10.3524 27.7649C10.3957 27.7649 12.3082 25.8878 14.6023 23.5935L18.7735 19.4222L17.4668 18.1124C16.1858 16.8284 16.1607 16.7996 16.1902 16.6471C16.2311 16.4358 16.3635 16.3389 16.6548 16.3071C16.7895 16.2924 18.8072 16.1749 21.1385 16.0461C25.7259 15.7926 25.5063 15.7928 25.64 16.0425C25.6741 16.1063 25.6198 17.3694 25.454 20.3667C25.3252 22.6955 25.2079 24.711 25.1933 24.8457C25.1617 25.137 25.0648 25.2694 24.8535 25.3103C24.7009 25.3398 24.6721 25.3147 23.3882 24.0337L22.0784 22.727L17.907 26.8982C15.6128 29.1924 13.7357 31.1048 13.7357 31.1481C13.7357 31.1915 13.7688 31.2601 13.8093 31.3006C13.8757 31.367 14.6716 31.3739 21.907 31.3704C28.6857 31.367 29.9739 31.3561 30.2073 31.2996Z" fill="black"/>
</svg>
