<svg width="41" height="40" viewBox="0 0 41 40" fill="none" xmlns="http://www.w3.org/2000/svg">
<rect x="0.5" width="40" height="40" rx="10" fill="white"/>
<path fill-rule="evenodd" clip-rule="evenodd" d="M11.7927 9.70043C11.2408 9.83397 10.6667 10.2776 10.3945 10.7807C10.1107 11.3052 10.1251 10.7864 10.1251 20.5008C10.1251 30.215 10.1107 29.6947 10.3945 30.222C10.6752 30.7437 11.296 31.1995 11.8955 31.3241C12.2473 31.3973 29.7511 31.3971 30.1019 31.324C30.9563 31.1458 31.6437 30.4583 31.8219 29.6039C31.8586 29.4282 31.8737 27.0185 31.8737 21.369C31.8737 14.171 31.8665 13.3752 31.8001 13.3088C31.7595 13.2683 31.691 13.2351 31.6476 13.2351C31.6043 13.2351 29.6918 15.1122 27.3977 17.4065L23.2265 21.5778L24.5332 22.8876C25.8142 24.1716 25.8393 24.2004 25.8098 24.3529C25.7689 24.5642 25.6365 24.6611 25.3452 24.6929C25.2105 24.7076 23.1928 24.8251 20.8615 24.9539C16.2741 25.2074 16.4937 25.2072 16.36 24.9575C16.3259 24.8937 16.3802 23.6306 16.546 20.6333C16.6748 18.3045 16.7921 16.289 16.8067 16.1543C16.8383 15.863 16.9352 15.7306 17.1465 15.6897C17.2991 15.6602 17.3279 15.6853 18.6118 16.9663L19.9216 18.273L24.093 14.1018C26.3872 11.8076 28.2643 9.89519 28.2643 9.85188C28.2643 9.80852 28.2312 9.73994 28.1907 9.69939C28.1243 9.63297 27.3284 9.62613 20.093 9.62964C13.3143 9.63297 12.0261 9.64394 11.7927 9.70043Z" fill="black"/>
</svg>
