<svg width="24" height="24" viewBox="0 0 24 24" fill="none" xmlns="http://www.w3.org/2000/svg">
<path d="M11.825 21C11.489 21 11.173 20.938 10.877 20.814C10.581 20.69 10.3103 20.5053 10.065 20.26L5.14 15.346L5.62 14.879C5.77133 14.7403 5.943 14.651 6.135 14.611C6.32633 14.5703 6.52033 14.5743 6.717 14.623L9.501 15.31V6.99996C9.501 6.85796 9.549 6.73929 9.645 6.64396C9.741 6.54862 9.86 6.50062 10.002 6.49996C10.144 6.49929 10.2627 6.54729 10.358 6.64396C10.4533 6.74062 10.5007 6.85929 10.5 6.99996V16.652L6.863 15.669L10.779 19.566C10.9137 19.7 11.0727 19.806 11.256 19.884C11.4393 19.962 11.629 20.0006 11.825 20H15.5C16.204 20 16.7967 19.7593 17.278 19.278C17.7593 18.7966 18 18.204 18 17.5V13.5C18 13.358 18.048 13.2393 18.144 13.144C18.24 13.0486 18.359 13.0006 18.501 13C18.643 12.9993 18.7617 13.0473 18.857 13.144C18.9523 13.2406 19 13.3593 19 13.5V17.5C19 18.472 18.6597 19.2983 17.979 19.979C17.2983 20.6596 16.4733 21 15.504 21H11.825ZM12.327 14.5V10.5C12.327 10.358 12.375 10.239 12.471 10.143C12.567 10.0476 12.686 9.99996 12.828 9.99996C12.97 9.99996 13.0887 10.048 13.184 10.144C13.2793 10.24 13.327 10.3586 13.327 10.5V14.5H12.327ZM15.173 14.5V11.5C15.173 11.358 15.221 11.239 15.317 11.143C15.413 11.047 15.532 10.9993 15.674 11C15.816 11.0006 15.9347 11.0486 16.03 11.144C16.1253 11.2393 16.173 11.358 16.173 11.5V14.5H15.173ZM3 7.38496C3.70533 5.90029 4.87267 4.71162 6.502 3.81896C8.13133 2.92629 9.94467 2.48029 11.942 2.48096C13.368 2.48096 14.7547 2.72962 16.102 3.22696C17.4493 3.72429 18.787 4.48396 20.115 5.50596V2.99996H21V7.38496H16.616V6.49996H19.9C18.608 5.44329 17.306 4.65662 15.994 4.13996C14.682 3.62329 13.3313 3.36496 11.942 3.36496C10.2193 3.36496 8.64533 3.72329 7.22 4.43996C5.79467 5.15662 4.70133 6.13796 3.94 7.38396L3 7.38496Z" fill="#1B1B1B"/>
</svg>
