<svg width="180" height="48" viewBox="0 0 180 48" fill="none" xmlns="http://www.w3.org/2000/svg">
<g clip-path="url(#clip0_2591_2551)">
<path fill-rule="evenodd" clip-rule="evenodd" d="M0 0V44.8L44.8 0H0Z" fill="#92CFAE"/>
<path fill-rule="evenodd" clip-rule="evenodd" d="M3.20312 48.0002H48.0031V3.2002L3.20312 48.0002Z" fill="#2A8288"/>
<path fill-rule="evenodd" clip-rule="evenodd" d="M73.1625 22.9595C78.3715 22.9595 81.1406 20.4086 81.1406 15.6425V15.3732C81.1406 10.2714 78.2393 8.25758 73.1625 8.25758H67.7557V22.9595H73.1625ZM57.1406 0H73.4261C84.8985 0 91.4263 5.1689 91.4263 15.3069V15.5746C91.4263 25.7118 84.5035 30.5458 73.7555 30.5458H67.7557V48H57.1406V0Z" fill="black"/>
<path fill-rule="evenodd" clip-rule="evenodd" d="M112.561 39.7424C117.671 39.7424 120.259 37.46 120.259 33.0959V32.8282C120.259 28.5312 117.671 26.1817 112.302 26.1817H106.35V39.7424H112.561ZM112.949 48H96V0H126.146V8.45897H106.415L106.35 18.5283H113.272C123.946 18.5283 130.286 23.2952 130.286 32.8945V33.1638C130.286 42.5618 124.399 48 112.949 48Z" fill="black"/>
<path fill-rule="evenodd" clip-rule="evenodd" d="M138 0.0670348H149.146V20.7153L166.346 0H178.18L158.709 22.7263L179.143 48H166.139L149.146 26.4803V48H138V0.0670348Z" fill="black"/>
</g>
<defs>
<clipPath id="clip0_2591_2551">
<rect width="180" height="48" fill="white"/>
</clipPath>
</defs>
</svg>
