<svg width="36" height="36" viewBox="0 0 36 36" fill="none" xmlns="http://www.w3.org/2000/svg">
<g clip-path="url(#clip0_662_525)">
<path fill-rule="evenodd" clip-rule="evenodd" d="M26.514 7.15051C26.8091 7.01724 27.1321 6.97128 27.4493 7.0174C27.7666 7.06353 28.0665 7.20005 28.3179 7.41277C28.5693 7.62549 28.763 7.90663 28.8788 8.22691C28.9946 8.5472 29.0282 8.89493 28.9762 9.23391L26.268 26.8608C26.0053 28.5611 24.2667 29.5362 22.8135 28.6893C21.5979 27.9807 19.7924 26.889 18.1684 25.75C17.3564 25.1798 14.8691 23.3539 15.1748 22.0547C15.4375 20.9438 19.6169 16.7693 22.0051 14.2874C22.9424 13.3123 22.515 12.7498 21.408 13.6467C18.6592 15.8736 14.2458 19.2601 12.7866 20.2134C11.4994 21.054 10.8283 21.1975 10.0258 21.054C8.56187 20.7926 7.20418 20.3877 6.09605 19.8944C4.59865 19.2281 4.67149 17.0191 6.09486 16.3759L26.514 7.15051Z" fill="white"/>
</g>
<defs>
<clipPath id="clip0_662_525">
<rect width="36" height="36" fill="white"/>
</clipPath>
</defs>
</svg>
