<svg width="36" height="36" viewBox="0 0 36 36" fill="none" xmlns="http://www.w3.org/2000/svg">
<path d="M18 31.5C25.4558 31.5 31.5 25.4558 31.5 18C31.5 10.5442 25.4558 4.5 18 4.5C10.5442 4.5 4.5 10.5442 4.5 18C4.5 25.4558 10.5442 31.5 18 31.5Z" stroke="black" stroke-width="2" stroke-linecap="round" stroke-linejoin="round"/>
<path d="M18 22.5C21.1066 22.5 23.625 19.9816 23.625 16.875C23.625 13.7684 21.1066 11.25 18 11.25C14.8934 11.25 12.375 13.7684 12.375 16.875C12.375 19.9816 14.8934 22.5 18 22.5Z" stroke="black" stroke-width="2" stroke-linecap="round" stroke-linejoin="round"/>
<path d="M8.97168 28.0405C9.81812 26.3733 11.1097 24.973 12.7032 23.9949C14.2968 23.0168 16.13 22.499 17.9998 22.499C19.8696 22.499 21.7028 23.0168 23.2964 23.9949C24.8899 24.973 26.1815 26.3733 27.0279 28.0405" stroke="black" stroke-width="2" stroke-linecap="round" stroke-linejoin="round"/>
</svg>
