<svg width="170" height="52" viewBox="0 0 170 52" fill="none" xmlns="http://www.w3.org/2000/svg">
<g filter="url(#filter0_b_168_53)">
<rect width="136" height="41.6" rx="20.8" transform="matrix(1.25 0 0 -1.25 0 52)" fill="url(#paint0_linear_168_53)" fill-opacity="0.1"/>
<path d="M19.4759 13.6737C19.1744 13.9814 19 14.4603 19 15.0806V37.2058C19 37.826 19.1744 38.305 19.4759 38.6126L19.5503 38.6802L32.2663 26.287V25.9944L19.5503 13.6012L19.4759 13.6737Z" fill="white"/>
<path d="M36.4996 30.4199L32.2656 26.2868V25.9941L36.5047 21.861L36.5997 21.9148L41.6199 24.6998C43.0526 25.4902 43.0526 26.7908 41.6199 27.5861L36.5997 30.3661L36.4996 30.4199Z" fill="white" fill-opacity="0.5"/>
<path d="M36.6001 30.366L32.2661 26.1403L19.4756 38.6123C19.9514 39.1 20.7274 39.1588 21.6099 38.6711L36.6001 30.366Z" fill="white" fill-opacity="0.6"/>
<path d="M36.6001 21.9149L21.6099 13.6099C20.7274 13.1272 19.9514 13.186 19.4756 13.6737L32.2661 26.1406L36.6001 21.9149Z" fill="white" fill-opacity="0.6"/>
<path d="M57.424 16.3798C57.424 17.2152 57.1675 17.8842 56.6622 18.3832C56.0811 18.9747 55.3244 19.2724 54.397 19.2724C53.5107 19.2724 52.754 18.9697 52.1332 18.3732C51.5111 17.7679 51.2007 17.0251 51.2007 16.1359C51.2007 15.2468 51.5111 14.504 52.1332 13.9037C52.754 13.3022 53.5107 12.9995 54.397 12.9995C54.8382 12.9995 55.2589 13.0883 55.6604 13.2534C56.0606 13.4197 56.3864 13.6448 56.6224 13.9224L56.0863 14.4502C55.6745 13.9762 55.114 13.7424 54.397 13.7424C53.7506 13.7424 53.1901 13.9625 52.7142 14.4064C52.2435 14.8516 52.0075 15.4281 52.0075 16.1359C52.0075 16.8438 52.2435 17.4253 52.7142 17.8705C53.1901 18.3094 53.7506 18.5345 54.397 18.5345C55.0832 18.5345 55.6604 18.3094 56.1158 17.8655C56.4159 17.5716 56.5865 17.1664 56.6314 16.6487H54.397V15.9258H57.3779C57.4138 16.0822 57.424 16.2335 57.424 16.3798Z" fill="white"/>
<path d="M62.1532 13.8738H59.3532V15.7747H61.8775V16.4975H59.3532V18.3984H62.1532V19.135H58.5605V13.1372H62.1532V13.8738Z" fill="white"/>
<path d="M65.4906 19.135H64.6979V13.8738H62.9805V13.1372H67.2093V13.8738H65.4906V19.135Z" fill="white"/>
<path d="M70.2695 19.135V13.1372H71.0609V19.135H70.2695Z" fill="white"/>
<path d="M74.5692 19.135H73.7829V13.8738H72.0591V13.1372H76.2931V13.8738H74.5692V19.135Z" fill="white"/>
<path d="M84.2992 18.3632C83.6925 18.9697 82.9408 19.2724 82.0443 19.2724C81.1426 19.2724 80.391 18.9697 79.7843 18.3632C79.1789 17.7579 78.8774 17.0151 78.8774 16.1359C78.8774 15.2568 79.1789 14.514 79.7843 13.9087C80.391 13.3022 81.1426 12.9995 82.0443 12.9995C82.9357 12.9995 83.6873 13.3022 84.294 13.9137C84.9046 14.524 85.206 15.2618 85.206 16.1359C85.206 17.0151 84.9046 17.7579 84.2992 18.3632ZM80.3704 17.8605C80.8271 18.3094 81.3824 18.5345 82.0443 18.5345C82.701 18.5345 83.2615 18.3094 83.713 17.8605C84.1683 17.4115 84.3992 16.835 84.3992 16.1359C84.3992 15.4369 84.1683 14.8604 83.713 14.4114C83.2615 13.9625 82.701 13.7373 82.0443 13.7373C81.3824 13.7373 80.8271 13.9625 80.3704 14.4114C79.9151 14.8604 79.6842 15.4369 79.6842 16.1359C79.6842 16.835 79.9151 17.4115 80.3704 17.8605Z" fill="white"/>
<path d="M86.3179 19.135V13.1372H87.2798L90.271 17.8018H90.3056L90.271 16.6488V13.1372H91.0624V19.135H90.2363L87.1041 14.2402H87.0695L87.1041 15.3982V19.135H86.3179Z" fill="white"/>
<path d="M78.6823 27.894C76.2723 27.894 74.3034 29.6823 74.3034 32.1497C74.3034 34.597 76.2723 36.4041 78.6823 36.4041C81.0975 36.4041 83.0664 34.597 83.0664 32.1497C83.0664 29.6823 81.0975 27.894 78.6823 27.894ZM78.6823 34.7283C77.3599 34.7283 76.2222 33.6641 76.2222 32.1497C76.2222 30.6152 77.3599 29.5697 78.6823 29.5697C80.0047 29.5697 81.1476 30.6152 81.1476 32.1497C81.1476 33.6641 80.0047 34.7283 78.6823 34.7283ZM69.128 27.894C66.7128 27.894 64.749 29.6823 64.749 32.1497C64.749 34.597 66.7128 36.4041 69.128 36.4041C71.5419 36.4041 73.5069 34.597 73.5069 32.1497C73.5069 29.6823 71.5419 27.894 69.128 27.894ZM69.128 34.7283C67.8043 34.7283 66.6627 33.6641 66.6627 32.1497C66.6627 30.6152 67.8043 29.5697 69.128 29.5697C70.4504 29.5697 71.5881 30.6152 71.5881 32.1497C71.5881 33.6641 70.4504 34.7283 69.128 34.7283ZM57.7587 29.1983V31.0066H62.1876C62.0581 32.0171 61.7118 32.7599 61.1807 33.2777C60.5343 33.903 59.5274 34.597 57.7587 34.597C55.0331 34.597 52.8988 32.4523 52.8988 29.7948C52.8988 27.1374 55.0331 24.9926 57.7587 24.9926C59.2324 24.9926 60.3047 25.5542 61.0961 26.282L62.4031 25.0077C61.2962 23.9772 59.8237 23.1856 57.7587 23.1856C54.0211 23.1856 50.8799 26.1507 50.8799 29.7948C50.8799 33.439 54.0211 36.4041 57.7587 36.4041C59.7788 36.4041 61.2962 35.7588 62.489 34.5483C63.7114 33.3565 64.0923 31.6807 64.0923 30.3276C64.0923 29.9074 64.0564 29.521 63.9923 29.1983H57.7587ZM104.249 30.6002C103.889 29.6485 102.777 27.894 100.512 27.894C98.2669 27.894 96.3981 29.6185 96.3981 32.1497C96.3981 34.5333 98.2477 36.4041 100.727 36.4041C102.732 36.4041 103.889 35.2123 104.365 34.5182L102.877 33.5516C102.38 34.2594 101.704 34.7283 100.727 34.7283C99.7561 34.7283 99.0596 34.2944 98.6132 33.439L104.451 31.0842L104.249 30.6002ZM98.2977 32.0171C98.2477 30.3764 99.6047 29.536 100.577 29.536C101.339 29.536 101.985 29.9074 102.201 30.4389L98.2977 32.0171ZM93.5532 36.1452H95.4721V23.6395H93.5532V36.1452ZM90.4108 28.8419H90.3466C89.9157 28.3442 89.0935 27.894 88.052 27.894C85.8664 27.894 83.868 29.7648 83.868 32.1634C83.868 34.5483 85.8664 36.4041 88.052 36.4041C89.0935 36.4041 89.9157 35.9502 90.3466 35.4374H90.4108V36.0477C90.4108 37.6747 89.5193 38.5488 88.0815 38.5488C86.9092 38.5488 86.1819 37.7235 85.8818 37.0294L84.2131 37.7085C84.6941 38.8365 85.9677 40.2246 88.0815 40.2246C90.3313 40.2246 92.2296 38.934 92.2296 35.7938V28.1528H90.4108V28.8419ZM88.2162 34.7283C86.8938 34.7283 85.7869 33.6491 85.7869 32.1634C85.7869 30.664 86.8938 29.5697 88.2162 29.5697C89.5193 29.5697 90.5467 30.664 90.5467 32.1634C90.5467 33.6491 89.5193 34.7283 88.2162 34.7283ZM113.233 23.6395H108.643V36.1452H110.557V31.4068H113.233C115.358 31.4068 117.442 29.9074 117.442 27.5226C117.442 25.139 115.353 23.6395 113.233 23.6395ZM113.283 29.6673H110.557V25.3791H113.283C114.712 25.3791 115.527 26.5358 115.527 27.5226C115.527 28.4905 114.712 29.6673 113.283 29.6673ZM125.113 27.8702C123.73 27.8702 122.292 28.4655 121.701 29.7848L123.399 30.4789C123.764 29.7848 124.437 29.5597 125.147 29.5597C126.14 29.5597 127.147 30.1412 127.162 31.168V31.2993C126.816 31.1042 126.075 30.8153 125.163 30.8153C123.334 30.8153 121.47 31.797 121.47 33.6291C121.47 35.3049 122.968 36.3841 124.652 36.3841C125.94 36.3841 126.65 35.8176 127.097 35.1585H127.162V36.1252H129.01V31.328C129.01 29.1108 127.312 27.8702 125.113 27.8702ZM124.882 34.7233C124.256 34.7233 123.384 34.4207 123.384 33.6641C123.384 32.6962 124.471 32.3247 125.413 32.3247C126.255 32.3247 126.65 32.5061 127.162 32.7449C127.012 33.903 125.99 34.7233 124.882 34.7233ZM135.744 28.1441L133.545 33.5653H133.479L131.205 28.1441H129.141L132.558 35.72L130.609 39.9357H132.608L137.873 28.1441H135.744ZM118.494 36.1452H120.413V23.6395H118.494V36.1452Z" fill="white"/>
</g>
<defs>
<filter id="filter0_b_168_53" x="-20" y="-20" width="210" height="92" filterUnits="userSpaceOnUse" color-interpolation-filters="sRGB">
<feFlood flood-opacity="0" result="BackgroundImageFix"/>
<feGaussianBlur in="BackgroundImageFix" stdDeviation="10"/>
<feComposite in2="SourceAlpha" operator="in" result="effect1_backgroundBlur_168_53"/>
<feBlend mode="normal" in="SourceGraphic" in2="effect1_backgroundBlur_168_53" result="shape"/>
</filter>
<linearGradient id="paint0_linear_168_53" x1="115.868" y1="38.212" x2="-11.8621" y2="-33.1374" gradientUnits="userSpaceOnUse">
<stop stop-color="white"/>
<stop offset="1" stop-color="white" stop-opacity="0"/>
</linearGradient>
</defs>
</svg>
