<svg width="330" height="111" viewBox="0 0 330 111" fill="none" xmlns="http://www.w3.org/2000/svg">
<path d="M0.510742 38.6511C0.510742 60.5552 17.4016 76.5922 40.4345 76.5922C63.467 76.5922 80.3579 60.5552 80.3579 38.6511C80.3579 16.7468 63.467 0.709717 40.4345 0.709717C17.4016 0.709717 0.510742 16.7468 0.510742 38.6511ZM61.4199 38.6511C61.4199 51.8523 53.1281 60.4576 40.4345 60.4576C27.7409 60.4576 19.4491 51.8523 19.4491 38.6511C19.4491 25.4499 27.7409 16.8446 40.4345 16.8446C53.1281 16.8446 61.4199 25.4499 61.4199 38.6511Z" fill="white"/>
<path d="M89.3232 1.98071L114.199 75.3207H138.665L163.335 1.98071H144.5L126.892 57.4258L108.876 1.98071H89.3232Z" fill="white"/>
<path d="M278.049 1.98071H256.857L291.664 52.0475L257.37 75.3207H277.126L291.664 52.0475L307.836 75.3207H329.129L294.12 24.9605L329.335 1.98071H308.759L294.12 24.9605L278.049 1.98071Z" fill="white"/>
<path d="M8.49957 110.318C13.7486 110.318 17.4101 107.438 18.3061 102.953L18.4856 101.986H7.88503L7.55197 103.656H15.925C15.2338 106.558 12.4425 108.603 8.65321 108.603C4.91474 108.603 2.78961 106.536 2.76382 103.283C2.73839 98.9076 6.27168 95.1698 11.2905 95.1698C14.3886 95.1698 16.1298 96.8187 16.4113 99.0612L18.5622 98.6216C18.1271 95.5656 15.5919 93.4551 11.4183 93.4551C4.91473 93.4551 0.485074 98.3139 0.510854 103.458C0.536286 107.548 3.45536 110.318 8.49957 110.318Z" fill="white"/>
<path d="M23.9023 110.12H35.9368L36.2953 108.405H26.4372L29.4587 93.6313H27.282L23.9023 110.12Z" fill="white"/>
<path d="M51.8088 93.4551C45.4076 93.4551 40.9268 98.292 40.9268 103.437C40.9268 107.482 43.7688 110.296 48.7618 110.296C55.1888 110.296 59.6954 105.459 59.6954 100.314C59.6954 96.2693 56.8276 93.4551 51.8088 93.4551ZM51.6551 95.1698C55.3936 95.1698 57.4675 97.2364 57.4675 100.468C57.4675 104.821 53.7548 108.581 48.9413 108.581C45.2286 108.581 43.1801 106.514 43.1801 103.283C43.1801 98.9295 46.8416 95.1698 51.6551 95.1698Z" fill="white"/>
<path d="M65.1172 110.12H72.5426C76.8186 110.12 79.3792 108.032 79.3792 105.306C79.3792 103.525 78.2525 102.184 76.4343 101.612C78.5598 100.996 80.0192 99.5455 80.0192 97.6106C80.0192 95.3461 78.1243 93.6313 75.2056 93.6313H68.4968L65.1172 110.12ZM74.8983 95.2363C76.844 95.2363 77.8428 96.3574 77.8428 97.7865C77.8428 99.5674 76.281 100.799 73.8741 100.799H69.1884L70.315 95.2363H74.8983ZM73.8229 102.404C75.948 102.404 77.1771 103.612 77.1771 105.262C77.1771 107.196 75.4616 108.515 72.5938 108.515H67.6008L68.8553 102.404H73.8229Z" fill="white"/>
<path d="M83.002 110.12H85.3065L88.9934 104.514H96.7006L97.9297 110.12H100.106L96.3933 93.6313H93.9864L83.002 110.12ZM90.1201 102.799L94.8058 95.6979L96.3421 102.799H90.1201Z" fill="white"/>
<path d="M106.157 110.12H118.192L118.55 108.405H108.692L111.714 93.6313H109.537L106.157 110.12Z" fill="white"/>
<path fill-rule="evenodd" clip-rule="evenodd" d="M152.275 110.318H170.348L194.609 40.6936L202.12 20.0089L205.827 30.3512L209.534 40.6936L221.918 74.937H240.804L212.275 0.709717H192.679L152.275 110.318Z" fill="#87AEDB"/>
</svg>
