<svg width="144" height="40" viewBox="0 0 144 40" fill="none" xmlns="http://www.w3.org/2000/svg">
<g clip-path="url(#clip0_45_8552)">
<path d="M49.6133 15.7311C49.6133 22.0185 54.4617 26.6218 61.0731 26.6218C67.6844 26.6218 72.5328 22.0185 72.5328 15.7311C72.5328 9.44364 67.6844 4.84033 61.0731 4.84033C54.4617 4.84033 49.6133 9.44364 49.6133 15.7311ZM67.0968 15.7311C67.0968 19.5204 64.7167 21.9905 61.0731 21.9905C57.4295 21.9905 55.0494 19.5204 55.0494 15.7311C55.0494 11.9418 57.4295 9.47171 61.0731 9.47171C64.7167 9.47171 67.0968 11.9418 67.0968 15.7311Z" fill="white"/>
<path d="M75.1064 5.2052L82.2467 26.2569H89.2695L96.351 5.2052H90.9444L85.8903 21.1203L80.7188 5.2052H75.1064Z" fill="white"/>
<path d="M129.279 5.2052H123.196L133.187 19.5765L123.343 26.2569H129.014L133.187 19.5765L137.829 26.2569H143.941L133.892 11.8014L144 5.2052H138.094L133.892 11.8014L129.279 5.2052Z" fill="white"/>
<path d="M51.9069 36.3025C53.4136 36.3025 54.4646 35.4758 54.7218 34.1884L54.7733 33.9108H51.7305L51.6349 34.3904H54.0383C53.8399 35.2234 53.0387 35.8103 51.951 35.8103C50.8779 35.8103 50.2679 35.2171 50.2605 34.2831C50.2532 33.0273 51.2674 31.9544 52.708 31.9544C53.5973 31.9544 54.0971 32.4277 54.1779 33.0714L54.7953 32.9452C54.6704 32.068 53.9427 31.4622 52.7447 31.4622C50.8779 31.4622 49.6064 32.8569 49.6138 34.3336C49.6211 35.5074 50.459 36.3025 51.9069 36.3025Z" fill="white"/>
<path d="M56.3281 36.2457H59.7825L59.8854 35.7535H57.0557L57.923 31.5127H57.2982L56.3281 36.2457Z" fill="white"/>
<path d="M64.3384 31.4622C62.501 31.4622 61.2148 32.8506 61.2148 34.3273C61.2148 35.4884 62.0306 36.2962 63.4638 36.2962C65.3086 36.2962 66.6022 34.9079 66.6022 33.4311C66.6022 32.27 65.779 31.4622 64.3384 31.4622ZM64.2943 31.9544C65.3674 31.9544 65.9627 32.5476 65.9627 33.4753C65.9627 34.7248 64.897 35.804 63.5153 35.804C62.4496 35.804 61.8616 35.2108 61.8616 34.2831C61.8616 33.0336 62.9126 31.9544 64.2943 31.9544Z" fill="white"/>
<path d="M68.1582 36.2457H70.2896C71.517 36.2457 72.252 35.6462 72.252 34.8637C72.252 34.3525 71.9286 33.9676 71.4067 33.8035C72.0168 33.6268 72.4357 33.2103 72.4357 32.6549C72.4357 32.0049 71.8918 31.5127 71.054 31.5127H69.1283L68.1582 36.2457ZM70.9658 31.9734C71.5243 31.9734 71.811 32.2952 71.811 32.7054C71.811 33.2166 71.3627 33.57 70.6718 33.57H69.3268L69.6502 31.9734H70.9658ZM70.6571 34.0307C71.2671 34.0307 71.6199 34.3777 71.6199 34.8511C71.6199 35.4064 71.1275 35.785 70.3043 35.785H68.8711L69.2312 34.0307H70.6571Z" fill="white"/>
<path d="M73.292 36.2457H73.9535L75.0118 34.6365H77.2241L77.5769 36.2457H78.2016L77.1359 31.5127H76.445L73.292 36.2457ZM75.3352 34.1443L76.6802 32.1059L77.1212 34.1443H75.3352Z" fill="white"/>
<path d="M79.9385 36.2457H83.3929L83.4958 35.7535H80.6661L81.5334 31.5127H80.9087L79.9385 36.2457Z" fill="white"/>
<path fill-rule="evenodd" clip-rule="evenodd" d="M93.1763 36.3025H98.364L105.328 16.3174L107.484 10.38L108.548 13.3487L109.612 16.3174L113.167 26.1467H118.588L110.399 4.84033H104.774L93.1763 36.3025Z" fill="#87AEDB"/>
<path fill-rule="evenodd" clip-rule="evenodd" d="M14.0504 0.897779C17.8213 -0.27308 21.8547 -0.299251 25.6405 0.822575C29.4262 1.9444 32.7944 4.16384 35.319 7.20021C37.8436 10.2366 39.4112 13.9535 39.8236 17.881C40.236 21.8084 39.4746 25.77 37.6359 29.2647C35.7971 32.7593 32.9634 35.6302 29.4933 37.5142C26.0231 39.3981 22.0723 40.2106 18.1404 39.8488C14.2086 39.487 10.4723 37.9672 7.40405 35.4816C4.33583 32.996 2.07347 29.6563 0.903093 25.8847C-2.36666 15.3512 3.52207 4.16192 14.0504 0.897779Z" fill="url(#paint0_radial_45_8552)"/>
<path fill-rule="evenodd" clip-rule="evenodd" d="M14.0504 0.897779C17.8213 -0.27308 21.8547 -0.299251 25.6405 0.822575C29.4262 1.9444 32.7944 4.16384 35.319 7.20021C37.8436 10.2366 39.4112 13.9535 39.8236 17.881C40.236 21.8084 39.4746 25.77 37.6359 29.2647C35.7971 32.7593 32.9634 35.6302 29.4933 37.5142C26.0231 39.3981 22.0723 40.2106 18.1404 39.8488C14.2086 39.487 10.4723 37.9672 7.40405 35.4816C4.33583 32.996 2.07347 29.6563 0.903093 25.8847C-2.36666 15.3512 3.52207 4.16192 14.0504 0.897779Z" fill="url(#paint1_linear_45_8552)"/>
<path d="M1.71629 11.6119C2.23204 10.4839 2.85082 9.40495 3.56489 8.38858C6.64098 5.46748 6.64098 5.46748 11.1945 2.98691C11.1945 2.67866 11.1945 2.67866 11.1945 2.42017C12.5984 2.42623 12.5984 2.42623 14.2375 2.64104C12.9218 4.0488 12.9218 4.0488 11.5951 5.69927C11.4836 5.14831 11.4836 5.14831 11.3893 4.63739C5.1648 7.92742 5.15867 7.92742 1.71139 11.6119H1.71629ZM12.972 38.4066C19.8127 38.9624 19.8127 38.9624 28.0034 36.9273C28.0275 37.1117 28.0422 37.2972 28.0475 37.4831C29.3742 36.3435 29.3742 36.3435 30.7132 34.9637C29.2247 34.6882 29.2247 34.6882 27.4864 34.2355C27.615 34.7804 27.615 34.7804 27.7204 35.2974C17.2413 37.7889 17.2413 37.7889 9.60682 36.7877C10.6741 37.433 11.8009 37.9763 12.972 38.4103V38.4066ZM6.38005 34.386C5.6827 33.748 5.03142 33.0622 4.431 32.3338C12.1721 32.8836 12.1721 32.8836 26.2368 29.3084C26.0151 28.5001 26.0151 28.5001 25.7811 27.664C27.9862 28.687 27.9862 28.687 29.9904 29.5839C28.6686 31.647 28.6686 31.647 27.3357 33.5608C27.1911 32.9334 27.1911 32.9334 27.0245 32.2683C14.2693 35.3702 14.2693 35.3702 6.38005 34.386ZM2.5089 29.5232C2.09201 28.7829 1.72373 28.0167 1.40635 27.2295C10.4007 25.2671 10.4006 25.2671 28.6024 19.7259L28.0475 17.8837C30.2905 19.1652 30.2905 19.1652 32.3608 20.4031C31.2448 22.7356 31.2448 22.7356 30.0406 25.0839C29.8287 24.2259 29.8287 24.2259 29.6069 23.34C11.894 28.6652 11.894 28.6652 2.5089 29.5232ZM0.426316 24.0936C0.235648 23.267 0.098976 22.4291 0.0171507 21.5851C10.6175 16.1507 10.6175 16.1507 30.5625 10.3971C30.2342 9.60945 30.2342 9.60945 29.9022 8.84003C31.9664 10.1325 31.9664 10.1325 33.8824 11.4577C33.2159 13.3558 33.2159 13.3558 32.3939 15.4468C32.1109 14.5779 32.1109 14.5779 31.8231 13.7296C11.3721 19.8582 11.3721 19.8582 0.421416 24.0936H0.426316ZM0 18.1859C0.0775193 17.2464 0.222441 16.3137 0.433667 15.3946C6.36902 10.1689 6.36902 10.1689 18.6526 5.56457C18.4076 4.92622 18.4076 4.92622 18.1687 4.32185C20.3627 5.14588 20.3627 5.14588 22.634 6.11432C21.4898 7.9796 21.4898 7.9796 20.2623 10.0585L19.6963 8.44926C6.06153 13.3946 6.06153 13.3946 0 18.1859Z" fill="#FEFEFE"/>
</g>
<defs>
<radialGradient id="paint0_radial_45_8552" cx="0" cy="0" r="1" gradientUnits="userSpaceOnUse" gradientTransform="translate(29.1853 5.14068) scale(40.0304 40.0364)">
<stop stop-color="#87AEDB"/>
<stop offset="1" stop-color="#476ACC"/>
</radialGradient>
<linearGradient id="paint1_linear_45_8552" x1="0" y1="19.9664" x2="39.9328" y2="19.9664" gradientUnits="userSpaceOnUse">
<stop stop-color="#87AEDB"/>
<stop offset="1" stop-color="#C9E1FF"/>
</linearGradient>
<clipPath id="clip0_45_8552">
<rect width="144" height="40" fill="white"/>
</clipPath>
</defs>
</svg>
