<svg width="36" height="36" viewBox="0 0 36 36" fill="none" xmlns="http://www.w3.org/2000/svg">
<path d="M6.32667 2.17676L6.54054 3.37792C6.54054 3.37792 6.73981 4.52886 7.33448 5.78321C7.92916 7.03756 8.95965 8.50323 10.7241 8.94731C12.2199 9.32392 13.4126 9.21673 14.5269 9.04694C15.2431 8.93754 16.0636 8.89994 16.8501 8.83898V9.81758H16.8559V14.3586H7.33838C5.12924 14.3586 3.33838 16.1495 3.33838 18.3586V29.8235C3.33838 32.0326 5.12924 33.8235 7.33838 33.8235H28.6616C30.8708 33.8235 32.6616 32.0326 32.6616 29.8235V18.3586C32.6616 16.1495 30.8708 14.3586 28.6616 14.3586H18.3501V9.75307C19.5154 9.75124 20.4376 9.91826 21.3882 10.0664C22.5245 10.2436 23.737 10.3697 25.2671 9.9845C27.0316 9.54065 28.0621 8.0718 28.6567 6.81745C29.2514 5.5631 29.4507 4.41216 29.4507 4.41216L29.6646 3.211L28.4956 3.56537C28.4956 3.56537 27.8417 3.76533 26.9634 3.91973C26.0851 4.07414 24.988 4.16024 24.2417 4.00754C22.8408 3.72095 21.7288 3.91756 20.9224 4.28905C20.116 4.66055 19.6057 5.19953 19.355 5.44032C19.0253 5.75711 18.7195 6.1576 18.4028 6.53906C17.915 5.88861 17.3374 5.07972 16.6362 4.40625C16.3855 4.16524 15.8753 3.62608 15.0689 3.25482C14.2624 2.88332 13.1504 2.68671 11.7495 2.9733C11.0032 3.126 9.90612 3.03655 9.02784 2.88271C8.14956 2.7283 7.49561 2.53113 7.49561 2.53113L6.32667 2.17676ZM8.40089 4.27445C8.58117 4.31433 8.55779 4.32005 8.76417 4.35652C9.73391 4.52688 10.9462 4.66757 12.0513 4.44137C13.1793 4.21062 13.9045 4.36961 14.436 4.61404C14.9676 4.85904 15.2964 5.19601 15.5933 5.48118C16.1038 5.97175 16.6203 6.6877 17.1079 7.32396C16.0876 7.38094 15.0614 7.45098 14.3013 7.56722C13.2428 7.72903 12.3467 7.81337 11.0903 7.49714C9.97127 7.21568 9.18964 6.19367 8.69092 5.14176C8.47671 4.68993 8.50711 4.626 8.40089 4.27445ZM27.5903 5.30869C27.4841 5.66024 27.5145 5.7269 27.3003 6.17878C26.8016 7.2307 26.02 8.25253 24.9009 8.53417C23.616 8.85723 22.7112 8.75928 21.6226 8.5912C20.8726 8.4744 19.8248 8.42543 18.8189 8.37472L19.0064 8.12572C19.4566 7.5502 19.9738 6.92779 20.398 6.52029C20.6948 6.23483 21.0236 5.89479 21.5552 5.65001C22.0868 5.40501 22.812 5.24603 23.94 5.47735C25.045 5.70355 26.2573 5.56582 27.2271 5.39545C27.4334 5.36127 27.4101 5.348 27.5903 5.30869ZM18.0015 18.6797C21.0099 18.6797 23.4302 21.0931 23.4302 24.0909C23.4302 27.0887 21.0099 29.5019 18.0015 29.5019C14.9931 29.5019 12.5698 27.0887 12.5698 24.0909C12.5698 21.0931 14.9931 18.6797 18.0015 18.6797ZM6.42042 23.3408H7.17335H8.72315H9.47608V24.8292H8.72315H7.17335H6.42042V23.3408ZM26.5239 23.3408H27.2651H28.8179H29.5708V24.8292H28.8179H27.2651H26.5239V23.3408Z" fill="#87AEDB"/>
<path d="M6.32667 2.17676L6.54054 3.37792C6.54054 3.37792 6.73981 4.52886 7.33448 5.78321C7.92916 7.03756 8.95965 8.50323 10.7241 8.94731C12.2199 9.32392 13.4126 9.21673 14.5269 9.04694C15.2431 8.93754 16.0636 8.89994 16.8501 8.83898V9.81758H16.8559V14.3586H7.33838C5.12924 14.3586 3.33838 16.1495 3.33838 18.3586V29.8235C3.33838 32.0326 5.12924 33.8235 7.33838 33.8235H28.6616C30.8708 33.8235 32.6616 32.0326 32.6616 29.8235V18.3586C32.6616 16.1495 30.8708 14.3586 28.6616 14.3586H18.3501V9.75307C19.5154 9.75124 20.4376 9.91826 21.3882 10.0664C22.5245 10.2436 23.737 10.3697 25.2671 9.9845C27.0316 9.54065 28.0621 8.0718 28.6567 6.81745C29.2514 5.5631 29.4507 4.41216 29.4507 4.41216L29.6646 3.211L28.4956 3.56537C28.4956 3.56537 27.8417 3.76533 26.9634 3.91973C26.0851 4.07414 24.988 4.16024 24.2417 4.00754C22.8408 3.72095 21.7288 3.91756 20.9224 4.28905C20.116 4.66055 19.6057 5.19953 19.355 5.44032C19.0253 5.75711 18.7195 6.1576 18.4028 6.53906C17.915 5.88861 17.3374 5.07972 16.6362 4.40625C16.3855 4.16524 15.8753 3.62608 15.0689 3.25482C14.2624 2.88332 13.1504 2.68671 11.7495 2.9733C11.0032 3.126 9.90612 3.03655 9.02784 2.88271C8.14956 2.7283 7.49561 2.53113 7.49561 2.53113L6.32667 2.17676ZM8.40089 4.27445C8.58117 4.31433 8.55779 4.32005 8.76417 4.35652C9.73391 4.52688 10.9462 4.66757 12.0513 4.44137C13.1793 4.21062 13.9045 4.36961 14.436 4.61404C14.9676 4.85904 15.2964 5.19601 15.5933 5.48118C16.1038 5.97175 16.6203 6.6877 17.1079 7.32396C16.0876 7.38094 15.0614 7.45098 14.3013 7.56722C13.2428 7.72903 12.3467 7.81337 11.0903 7.49714C9.97127 7.21568 9.18964 6.19367 8.69092 5.14176C8.47671 4.68993 8.50711 4.626 8.40089 4.27445ZM27.5903 5.30869C27.4841 5.66024 27.5145 5.7269 27.3003 6.17878C26.8016 7.2307 26.02 8.25253 24.9009 8.53417C23.616 8.85723 22.7112 8.75928 21.6226 8.5912C20.8726 8.4744 19.8248 8.42543 18.8189 8.37472L19.0064 8.12572C19.4566 7.5502 19.9738 6.92779 20.398 6.52029C20.6948 6.23483 21.0236 5.89479 21.5552 5.65001C22.0868 5.40501 22.812 5.24603 23.94 5.47735C25.045 5.70355 26.2573 5.56582 27.2271 5.39545C27.4334 5.36127 27.4101 5.348 27.5903 5.30869ZM18.0015 18.6797C21.0099 18.6797 23.4302 21.0931 23.4302 24.0909C23.4302 27.0887 21.0099 29.5019 18.0015 29.5019C14.9931 29.5019 12.5698 27.0887 12.5698 24.0909C12.5698 21.0931 14.9931 18.6797 18.0015 18.6797ZM6.42042 23.3408H7.17335H8.72315H9.47608V24.8292H8.72315H7.17335H6.42042V23.3408ZM26.5239 23.3408H27.2651H28.8179H29.5708V24.8292H28.8179H27.2651H26.5239V23.3408Z" fill="url(#paint0_linear_114_34)"/>
<path d="M17.2427 19.9043V20.6572V20.9528H15.5903V24.8317H18.8921V25.7253H16.3433H15.5903V27.2194H16.3433H17.2427V27.5123V28.2652H18.7515V27.5123V27.2194H20.4009V23.3289H17.0874V22.444H19.6479H20.4009V20.9528H19.6479H18.7515V20.6572V19.9043H17.2427Z" fill="white"/>
<defs>
<linearGradient id="paint0_linear_114_34" x1="14.1255" y1="15.2078" x2="38.3364" y2="38.1989" gradientUnits="userSpaceOnUse">
<stop stop-color="#87AEDB"/>
<stop offset="1" stop-color="#C9E1FF"/>
</linearGradient>
</defs>
</svg>
