<svg width="36" height="36" viewBox="0 0 36 36" fill="none" xmlns="http://www.w3.org/2000/svg">
<g clip-path="url(#clip0_116_53)">
<path fill-rule="evenodd" clip-rule="evenodd" d="M27.5853 11.9805L18.4193 6.73758C18.297 6.65943 18.1542 6.6177 18.0073 6.61542C17.8638 6.61466 17.719 6.6526 17.5882 6.73303L8.46026 11.9532C8.32446 12.027 8.20976 12.1393 8.12838 12.2779C8.04476 12.4204 8.00083 12.5858 8.00182 12.7544V23.2463C8.00182 23.3904 8.03557 23.5346 8.09955 23.6643L8.11362 23.6939C8.18393 23.8252 8.28588 23.939 8.41596 24.0202L17.5819 29.2631C17.7042 29.3405 17.847 29.383 17.9939 29.3845C18.1408 29.3864 18.2855 29.3458 18.413 29.2669L27.5403 24.0475C27.6774 23.9732 27.7927 23.8601 27.8721 23.7228C27.9537 23.5839 28.0008 23.42 27.9994 23.2463V12.7544C27.9994 12.4372 27.8391 12.1391 27.5853 11.9805ZM25.826 29.2912C26.1481 29.1471 26.51 29.1469 26.8322 29.2904C27.323 29.5104 27.6443 30.0271 27.6443 30.6008C27.6443 31.1744 27.3237 31.6918 26.8322 31.9119L26.8224 31.9157C26.5039 32.0545 26.1453 32.0537 25.8274 31.9119C25.5414 31.7839 25.3064 31.5513 25.1637 31.2548H22.4651C22.3883 31.2548 22.3122 31.2385 22.2413 31.2067C22.1703 31.175 22.1059 31.1284 22.0517 31.0697C21.9455 30.9551 21.8794 30.7973 21.8794 30.6228V28.7821L23.0536 28.1106V29.9922H25.1454C25.2092 29.846 25.2961 29.7127 25.4021 29.5985L25.4105 29.5894C25.5286 29.4626 25.6699 29.361 25.826 29.2912ZM29.7832 26.235C29.6503 26.5817 29.6496 26.9747 29.7825 27.3207C29.9864 27.8503 30.4653 28.1978 30.9975 28.1978C31.5291 28.1978 32.0079 27.8511 32.2118 27.3215L32.2153 27.3109C32.344 26.9671 32.3433 26.5802 32.2118 26.2372C32.0937 25.9299 31.8771 25.6735 31.6029 25.521V22.6089C31.603 22.5259 31.5879 22.4437 31.5585 22.367C31.529 22.2903 31.4858 22.2206 31.4313 22.162C31.3252 22.0475 31.1789 21.9769 31.0172 21.9769H29.2313V23.244H30.4329V25.5005C30.1411 25.6507 29.9077 25.9125 29.7832 26.235ZM29.2313 20.08H33.507C33.6481 20.3866 33.8874 20.6276 34.1806 20.7584L34.1904 20.7622C34.5094 20.9017 34.8665 20.9003 35.1846 20.7584C35.6761 20.5398 35.9974 20.0216 35.9974 19.448C35.9974 19.1674 35.9202 18.8931 35.7756 18.6599C35.6311 18.4266 35.4256 18.2449 35.1853 18.1377L35.1755 18.1339C34.857 17.9943 34.4977 17.9965 34.1799 18.1377C33.8867 18.2689 33.6476 18.5102 33.507 18.816H29.2306L29.2313 20.08ZM29.2306 16.6202H34.62C34.7753 16.6199 34.9242 16.5534 35.0342 16.4351C35.1396 16.3197 35.2057 16.1627 35.2057 15.9882V11.2961C35.52 11.1504 35.7689 10.878 35.9004 10.5366L35.9046 10.5252C36.0333 10.1823 36.0319 9.79455 35.9004 9.45236C35.6979 8.922 35.2177 8.57525 34.6861 8.57525C34.1539 8.57525 33.6764 8.92124 33.4718 9.4516C33.3389 9.79879 33.3389 10.1887 33.4718 10.5358C33.585 10.8302 33.7805 11.0677 34.0357 11.2263V15.3561H29.2306V16.6202ZM29.2299 13.567H30.0237C30.1005 13.5671 30.1766 13.5508 30.2476 13.5191C30.3185 13.4873 30.383 13.4407 30.4371 13.3819C30.5433 13.2673 30.6094 13.1095 30.6094 12.935V10.4251C30.8882 10.2709 31.1073 10.0149 31.2274 9.70274C31.3596 9.35448 31.3603 8.966 31.2274 8.6185L31.2225 8.60788C31.0179 8.0851 30.5426 7.74064 30.0124 7.74064C29.4788 7.74064 29.0014 8.0889 28.7981 8.61698C28.666 8.96432 28.666 9.35389 28.7981 9.70122C28.9212 10.0207 29.1497 10.2824 29.438 10.4342V12.3014H29.2017C29.2242 12.4281 29.2362 12.5564 29.2362 12.6846H29.2299V13.567ZM10.2483 6.00691C10.1091 6.32255 9.86651 6.57445 9.56768 6.70875C8.89198 7.01073 8.12557 6.65943 7.84924 5.94014C7.78455 5.77246 7.74869 5.58885 7.74869 5.3984C7.74869 4.82479 8.07002 4.30809 8.5608 4.08806L8.57065 4.08426C8.87384 3.95172 9.21194 3.946 9.51883 4.06822C9.82572 4.19044 10.0793 4.43181 10.23 4.74513H12.9279C13.0048 4.745 13.081 4.76129 13.1521 4.79306C13.2232 4.82483 13.2877 4.87146 13.3421 4.93026C13.4482 5.04483 13.5136 5.20265 13.5136 5.37716V7.56613L12.3394 8.23761V6.00691H10.2483ZM15.2714 6.56079V2.69045C14.9888 2.54022 14.7631 2.27694 14.6428 1.96358L14.6386 1.95296C14.51 1.60828 14.5113 1.22303 14.6421 0.879338C14.846 0.349737 15.3256 0.00299208 15.8571 0.00299208C16.1171 0.00304652 16.3712 0.0862555 16.5873 0.242103C16.8034 0.39795 16.9719 0.61944 17.0714 0.87858L17.0749 0.889961C17.2043 1.23367 17.2029 1.62063 17.0714 1.96358C16.9505 2.27922 16.7262 2.53946 16.4428 2.69045V5.89083L15.2714 6.56079ZM18.4175 2.92474C18.4502 2.311 18.4777 1.79568 18.4777 1.48937C18.4778 1.32176 18.5395 1.16104 18.6492 1.04247C18.7554 0.927898 18.9017 0.857335 19.0634 0.857335H23.4115C23.4354 0.797394 23.4628 0.73973 23.4938 0.684342C23.5486 0.585705 23.6147 0.495415 23.6892 0.414989C23.8113 0.283107 23.9563 0.178661 24.116 0.107698L24.1259 0.103146C24.445 -0.0360089 24.8019 -0.034647 25.1201 0.10694C25.3606 0.214156 25.5662 0.395973 25.7109 0.629367C25.8556 0.862762 25.9329 1.13724 25.9329 1.41804C25.9329 1.60925 25.8971 1.7921 25.8331 1.95979C25.6988 2.30957 25.4442 2.58271 25.1208 2.72839C24.8009 2.87179 24.4367 2.87103 24.1167 2.72839C23.8805 2.62293 23.6836 2.44993 23.5381 2.22535C23.5163 2.1912 23.4952 2.1563 23.4762 2.11988H19.6491V5.94394L18.9713 5.55546C18.7723 5.43103 18.5501 5.34681 18.3167 5.30584C18.3337 4.49547 18.3792 3.64275 18.4175 2.92474ZM21.3071 6.8916V6.44926C21.3069 6.36624 21.322 6.28402 21.3515 6.20732C21.3809 6.13062 21.4241 6.06097 21.4786 6.00236C21.5848 5.88855 21.731 5.81723 21.8928 5.81723H24.2187C24.3619 5.51668 24.599 5.28045 24.8881 5.15029C25.2099 5.00765 25.571 5.00765 25.8928 5.15029L25.9027 5.1556C26.3871 5.3764 26.7064 5.88931 26.7064 6.46064C26.7064 6.74136 26.6291 7.01576 26.4844 7.24905C26.3397 7.48233 26.134 7.66399 25.8935 7.77099C25.5736 7.91439 25.2101 7.91439 24.8902 7.77099C24.5935 7.63897 24.3509 7.39237 24.2103 7.08129H22.4799V7.56233L21.3071 6.8916ZM6.21729 9.70274C6.35018 9.35676 6.35088 8.96373 6.21799 8.61698C6.01408 8.08738 5.53526 7.74064 5.00299 7.74064C4.74307 7.7408 4.48901 7.82405 4.2729 7.97989C4.05678 8.13572 3.88829 8.35715 3.78869 8.61622L3.78518 8.62761C3.65587 8.97214 3.65714 9.35769 3.78869 9.70122C3.90682 10.0085 4.12338 10.265 4.3976 10.4175V13.3295C4.39755 13.4124 4.41268 13.4945 4.44212 13.5711C4.47157 13.6476 4.51474 13.7172 4.56916 13.7757C4.67533 13.8902 4.82158 13.9616 4.9833 13.9616H6.76994V12.6937H5.5676V10.4372C5.8594 10.2877 6.09283 10.026 6.21729 9.70274ZM6.76994 15.8584H2.49354C2.35362 15.5534 2.11244 15.3106 1.81994 15.1801L1.8101 15.1755C1.49158 15.0367 1.13299 15.0375 0.815178 15.1793C0.324397 15.3979 0.00306897 15.9168 0.00306897 16.4904C0.00336038 16.7709 0.0805666 17.045 0.22496 17.2782C0.369353 17.5113 0.574473 17.6932 0.814475 17.8008L0.825022 17.8046C1.14437 17.9437 1.50152 17.9424 1.81994 17.8008C2.11316 17.6697 2.35245 17.4285 2.49354 17.1217H6.76994V15.8584ZM6.77065 19.3183H1.38049C1.30357 19.3182 1.22739 19.3345 1.15633 19.3663C1.08526 19.3981 1.0207 19.4447 0.96635 19.5034C0.860881 19.618 0.794788 19.7758 0.794788 19.9503V24.6416C0.479788 24.7888 0.232288 25.0581 0.1001 25.4019L0.0958815 25.4132C0.0154481 25.6285 -0.0148174 25.8619 0.00773791 26.0927C0.0302932 26.3236 0.104981 26.5449 0.225254 26.7374C0.345527 26.9299 0.507714 27.0876 0.6976 27.1967C0.887485 27.3058 1.09927 27.363 1.3144 27.3632C1.84737 27.3632 2.32408 27.0165 2.52869 26.4869C2.66158 26.1409 2.66158 25.7486 2.52869 25.4026C2.4169 25.1105 2.21862 24.8685 1.96479 24.7122V20.5823H6.77065V19.3183ZM6.77065 22.3707H5.97682C5.89985 22.3708 5.82366 22.3872 5.75259 22.4191C5.68153 22.451 5.61699 22.4977 5.56268 22.5566C5.45721 22.6712 5.39112 22.829 5.39112 23.0027V25.5134C5.09672 25.6758 4.86976 25.9518 4.75538 26.2865C4.64099 26.6213 4.64756 26.9902 4.77377 27.32L4.77799 27.3298C4.9826 27.8526 5.45791 28.1978 5.98807 28.1978C6.52174 28.1978 6.99916 27.8488 7.20237 27.3207C7.33455 26.974 7.33455 26.584 7.20237 26.2372C7.07862 25.9155 6.85151 25.6568 6.56252 25.5035V23.6363H6.78893C6.77276 23.53 6.76502 23.4231 6.76502 23.3161H6.77065V22.3707ZM20.1216 29.7874V33.3087C20.4056 33.4617 20.629 33.72 20.7509 34.0363L20.7544 34.047C20.8831 34.3907 20.8824 34.7769 20.7509 35.1198C20.5477 35.6502 20.0681 35.9969 19.5366 35.9969C19.0043 35.9969 18.5255 35.6509 18.3216 35.1206L18.3181 35.11C18.1887 34.7662 18.1908 34.3793 18.3216 34.0356C18.4435 33.7195 18.6669 33.4614 18.9509 33.3087V30.4574L18.9649 30.449L20.1216 29.7874ZM16.9153 30.3792V34.5105C16.9155 34.5935 16.9004 34.6756 16.8709 34.7521C16.8415 34.8287 16.7983 34.8982 16.7438 34.9567C16.6376 35.0713 16.4914 35.1426 16.3296 35.1426H11.9822C11.8458 35.4817 11.5955 35.7503 11.2777 35.8922L11.2678 35.896C10.9486 36.0356 10.59 36.0341 10.2729 35.8922C9.78213 35.6737 9.4608 35.1547 9.4608 34.5819C9.4608 34.0067 9.78143 33.4923 10.2722 33.2715C10.5939 33.1283 10.9551 33.128 11.277 33.2708C11.547 33.3917 11.772 33.606 11.9168 33.88H15.7439V29.7092L16.9153 30.3792ZM14.0867 28.7616V29.5507C14.0867 29.6336 14.0714 29.7157 14.0419 29.7923C14.0123 29.8689 13.969 29.9384 13.9144 29.9968C13.8089 30.1114 13.662 30.1827 13.501 30.1827H11.175C11.1532 30.2275 11.1293 30.2715 11.1033 30.3139C11.052 30.3982 10.9943 30.474 10.9324 30.5416L10.9212 30.5522C10.8024 30.6774 10.661 30.7791 10.5049 30.8489C10.1836 30.9923 9.82151 30.9923 9.50018 30.8489L9.49104 30.8443C9.00658 30.6235 8.68666 30.1106 8.68666 29.5385C8.68675 29.2578 8.76404 28.9835 8.90874 28.7502C9.05343 28.5169 9.25902 28.3353 9.49948 28.2282C9.82111 28.0855 10.1819 28.0855 10.5035 28.2282C10.7996 28.3602 11.0435 28.6075 11.1835 28.9186H12.9139V28.0908L14.0867 28.7616Z" fill="#87AEDB"/>
<path fill-rule="evenodd" clip-rule="evenodd" d="M27.5853 11.9805L18.4193 6.73758C18.297 6.65943 18.1542 6.6177 18.0073 6.61542C17.8638 6.61466 17.719 6.6526 17.5882 6.73303L8.46026 11.9532C8.32446 12.027 8.20976 12.1393 8.12838 12.2779C8.04476 12.4204 8.00083 12.5858 8.00182 12.7544V23.2463C8.00182 23.3904 8.03557 23.5346 8.09955 23.6643L8.11362 23.6939C8.18393 23.8252 8.28588 23.939 8.41596 24.0202L17.5819 29.2631C17.7042 29.3405 17.847 29.383 17.9939 29.3845C18.1408 29.3864 18.2855 29.3458 18.413 29.2669L27.5403 24.0475C27.6774 23.9732 27.7927 23.8601 27.8721 23.7228C27.9537 23.5839 28.0008 23.42 27.9994 23.2463V12.7544C27.9994 12.4372 27.8391 12.1391 27.5853 11.9805ZM25.826 29.2912C26.1481 29.1471 26.51 29.1469 26.8322 29.2904C27.323 29.5104 27.6443 30.0271 27.6443 30.6008C27.6443 31.1744 27.3237 31.6918 26.8322 31.9119L26.8224 31.9157C26.5039 32.0545 26.1453 32.0537 25.8274 31.9119C25.5414 31.7839 25.3064 31.5513 25.1637 31.2548H22.4651C22.3883 31.2548 22.3122 31.2385 22.2413 31.2067C22.1703 31.175 22.1059 31.1284 22.0517 31.0697C21.9455 30.9551 21.8794 30.7973 21.8794 30.6228V28.7821L23.0536 28.1106V29.9922H25.1454C25.2092 29.846 25.2961 29.7127 25.4021 29.5985L25.4105 29.5894C25.5286 29.4626 25.6699 29.361 25.826 29.2912ZM29.7832 26.235C29.6503 26.5817 29.6496 26.9747 29.7825 27.3207C29.9864 27.8503 30.4653 28.1978 30.9975 28.1978C31.5291 28.1978 32.0079 27.8511 32.2118 27.3215L32.2153 27.3109C32.344 26.9671 32.3433 26.5802 32.2118 26.2372C32.0937 25.9299 31.8771 25.6735 31.6029 25.521V22.6089C31.603 22.5259 31.5879 22.4437 31.5585 22.367C31.529 22.2903 31.4858 22.2206 31.4313 22.162C31.3252 22.0475 31.1789 21.9769 31.0172 21.9769H29.2313V23.244H30.4329V25.5005C30.1411 25.6507 29.9077 25.9125 29.7832 26.235ZM29.2313 20.08H33.507C33.6481 20.3866 33.8874 20.6276 34.1806 20.7584L34.1904 20.7622C34.5094 20.9017 34.8665 20.9003 35.1846 20.7584C35.6761 20.5398 35.9974 20.0216 35.9974 19.448C35.9974 19.1674 35.9202 18.8931 35.7756 18.6599C35.6311 18.4266 35.4256 18.2449 35.1853 18.1377L35.1755 18.1339C34.857 17.9943 34.4977 17.9965 34.1799 18.1377C33.8867 18.2689 33.6476 18.5102 33.507 18.816H29.2306L29.2313 20.08ZM29.2306 16.6202H34.62C34.7753 16.6199 34.9242 16.5534 35.0342 16.4351C35.1396 16.3197 35.2057 16.1627 35.2057 15.9882V11.2961C35.52 11.1504 35.7689 10.878 35.9004 10.5366L35.9046 10.5252C36.0333 10.1823 36.0319 9.79455 35.9004 9.45236C35.6979 8.922 35.2177 8.57525 34.6861 8.57525C34.1539 8.57525 33.6764 8.92124 33.4718 9.4516C33.3389 9.79879 33.3389 10.1887 33.4718 10.5358C33.585 10.8302 33.7805 11.0677 34.0357 11.2263V15.3561H29.2306V16.6202ZM29.2299 13.567H30.0237C30.1005 13.5671 30.1766 13.5508 30.2476 13.5191C30.3185 13.4873 30.383 13.4407 30.4371 13.3819C30.5433 13.2673 30.6094 13.1095 30.6094 12.935V10.4251C30.8882 10.2709 31.1073 10.0149 31.2274 9.70274C31.3596 9.35448 31.3603 8.966 31.2274 8.6185L31.2225 8.60788C31.0179 8.0851 30.5426 7.74064 30.0124 7.74064C29.4788 7.74064 29.0014 8.0889 28.7981 8.61698C28.666 8.96432 28.666 9.35389 28.7981 9.70122C28.9212 10.0207 29.1497 10.2824 29.438 10.4342V12.3014H29.2017C29.2242 12.4281 29.2362 12.5564 29.2362 12.6846H29.2299V13.567ZM10.2483 6.00691C10.1091 6.32255 9.86651 6.57445 9.56768 6.70875C8.89198 7.01073 8.12557 6.65943 7.84924 5.94014C7.78455 5.77246 7.74869 5.58885 7.74869 5.3984C7.74869 4.82479 8.07002 4.30809 8.5608 4.08806L8.57065 4.08426C8.87384 3.95172 9.21194 3.946 9.51883 4.06822C9.82572 4.19044 10.0793 4.43181 10.23 4.74513H12.9279C13.0048 4.745 13.081 4.76129 13.1521 4.79306C13.2232 4.82483 13.2877 4.87146 13.3421 4.93026C13.4482 5.04483 13.5136 5.20265 13.5136 5.37716V7.56613L12.3394 8.23761V6.00691H10.2483ZM15.2714 6.56079V2.69045C14.9888 2.54022 14.7631 2.27694 14.6428 1.96358L14.6386 1.95296C14.51 1.60828 14.5113 1.22303 14.6421 0.879338C14.846 0.349737 15.3256 0.00299208 15.8571 0.00299208C16.1171 0.00304652 16.3712 0.0862555 16.5873 0.242103C16.8034 0.39795 16.9719 0.61944 17.0714 0.87858L17.0749 0.889961C17.2043 1.23367 17.2029 1.62063 17.0714 1.96358C16.9505 2.27922 16.7262 2.53946 16.4428 2.69045V5.89083L15.2714 6.56079ZM18.4175 2.92474C18.4502 2.311 18.4777 1.79568 18.4777 1.48937C18.4778 1.32176 18.5395 1.16104 18.6492 1.04247C18.7554 0.927898 18.9017 0.857335 19.0634 0.857335H23.4115C23.4354 0.797394 23.4628 0.73973 23.4938 0.684342C23.5486 0.585705 23.6147 0.495415 23.6892 0.414989C23.8113 0.283107 23.9563 0.178661 24.116 0.107698L24.1259 0.103146C24.445 -0.0360089 24.8019 -0.034647 25.1201 0.10694C25.3606 0.214156 25.5662 0.395973 25.7109 0.629367C25.8556 0.862762 25.9329 1.13724 25.9329 1.41804C25.9329 1.60925 25.8971 1.7921 25.8331 1.95979C25.6988 2.30957 25.4442 2.58271 25.1208 2.72839C24.8009 2.87179 24.4367 2.87103 24.1167 2.72839C23.8805 2.62293 23.6836 2.44993 23.5381 2.22535C23.5163 2.1912 23.4952 2.1563 23.4762 2.11988H19.6491V5.94394L18.9713 5.55546C18.7723 5.43103 18.5501 5.34681 18.3167 5.30584C18.3337 4.49547 18.3792 3.64275 18.4175 2.92474ZM21.3071 6.8916V6.44926C21.3069 6.36624 21.322 6.28402 21.3515 6.20732C21.3809 6.13062 21.4241 6.06097 21.4786 6.00236C21.5848 5.88855 21.731 5.81723 21.8928 5.81723H24.2187C24.3619 5.51668 24.599 5.28045 24.8881 5.15029C25.2099 5.00765 25.571 5.00765 25.8928 5.15029L25.9027 5.1556C26.3871 5.3764 26.7064 5.88931 26.7064 6.46064C26.7064 6.74136 26.6291 7.01576 26.4844 7.24905C26.3397 7.48233 26.134 7.66399 25.8935 7.77099C25.5736 7.91439 25.2101 7.91439 24.8902 7.77099C24.5935 7.63897 24.3509 7.39237 24.2103 7.08129H22.4799V7.56233L21.3071 6.8916ZM6.21729 9.70274C6.35018 9.35676 6.35088 8.96373 6.21799 8.61698C6.01408 8.08738 5.53526 7.74064 5.00299 7.74064C4.74307 7.7408 4.48901 7.82405 4.2729 7.97989C4.05678 8.13572 3.88829 8.35715 3.78869 8.61622L3.78518 8.62761C3.65587 8.97214 3.65714 9.35769 3.78869 9.70122C3.90682 10.0085 4.12338 10.265 4.3976 10.4175V13.3295C4.39755 13.4124 4.41268 13.4945 4.44212 13.5711C4.47157 13.6476 4.51474 13.7172 4.56916 13.7757C4.67533 13.8902 4.82158 13.9616 4.9833 13.9616H6.76994V12.6937H5.5676V10.4372C5.8594 10.2877 6.09283 10.026 6.21729 9.70274ZM6.76994 15.8584H2.49354C2.35362 15.5534 2.11244 15.3106 1.81994 15.1801L1.8101 15.1755C1.49158 15.0367 1.13299 15.0375 0.815178 15.1793C0.324397 15.3979 0.00306897 15.9168 0.00306897 16.4904C0.00336038 16.7709 0.0805666 17.045 0.22496 17.2782C0.369353 17.5113 0.574473 17.6932 0.814475 17.8008L0.825022 17.8046C1.14437 17.9437 1.50152 17.9424 1.81994 17.8008C2.11316 17.6697 2.35245 17.4285 2.49354 17.1217H6.76994V15.8584ZM6.77065 19.3183H1.38049C1.30357 19.3182 1.22739 19.3345 1.15633 19.3663C1.08526 19.3981 1.0207 19.4447 0.96635 19.5034C0.860881 19.618 0.794788 19.7758 0.794788 19.9503V24.6416C0.479788 24.7888 0.232288 25.0581 0.1001 25.4019L0.0958815 25.4132C0.0154481 25.6285 -0.0148174 25.8619 0.00773791 26.0927C0.0302932 26.3236 0.104981 26.5449 0.225254 26.7374C0.345527 26.9299 0.507714 27.0876 0.6976 27.1967C0.887485 27.3058 1.09927 27.363 1.3144 27.3632C1.84737 27.3632 2.32408 27.0165 2.52869 26.4869C2.66158 26.1409 2.66158 25.7486 2.52869 25.4026C2.4169 25.1105 2.21862 24.8685 1.96479 24.7122V20.5823H6.77065V19.3183ZM6.77065 22.3707H5.97682C5.89985 22.3708 5.82366 22.3872 5.75259 22.4191C5.68153 22.451 5.61699 22.4977 5.56268 22.5566C5.45721 22.6712 5.39112 22.829 5.39112 23.0027V25.5134C5.09672 25.6758 4.86976 25.9518 4.75538 26.2865C4.64099 26.6213 4.64756 26.9902 4.77377 27.32L4.77799 27.3298C4.9826 27.8526 5.45791 28.1978 5.98807 28.1978C6.52174 28.1978 6.99916 27.8488 7.20237 27.3207C7.33455 26.974 7.33455 26.584 7.20237 26.2372C7.07862 25.9155 6.85151 25.6568 6.56252 25.5035V23.6363H6.78893C6.77276 23.53 6.76502 23.4231 6.76502 23.3161H6.77065V22.3707ZM20.1216 29.7874V33.3087C20.4056 33.4617 20.629 33.72 20.7509 34.0363L20.7544 34.047C20.8831 34.3907 20.8824 34.7769 20.7509 35.1198C20.5477 35.6502 20.0681 35.9969 19.5366 35.9969C19.0043 35.9969 18.5255 35.6509 18.3216 35.1206L18.3181 35.11C18.1887 34.7662 18.1908 34.3793 18.3216 34.0356C18.4435 33.7195 18.6669 33.4614 18.9509 33.3087V30.4574L18.9649 30.449L20.1216 29.7874ZM16.9153 30.3792V34.5105C16.9155 34.5935 16.9004 34.6756 16.8709 34.7521C16.8415 34.8287 16.7983 34.8982 16.7438 34.9567C16.6376 35.0713 16.4914 35.1426 16.3296 35.1426H11.9822C11.8458 35.4817 11.5955 35.7503 11.2777 35.8922L11.2678 35.896C10.9486 36.0356 10.59 36.0341 10.2729 35.8922C9.78213 35.6737 9.4608 35.1547 9.4608 34.5819C9.4608 34.0067 9.78143 33.4923 10.2722 33.2715C10.5939 33.1283 10.9551 33.128 11.277 33.2708C11.547 33.3917 11.772 33.606 11.9168 33.88H15.7439V29.7092L16.9153 30.3792ZM14.0867 28.7616V29.5507C14.0867 29.6336 14.0714 29.7157 14.0419 29.7923C14.0123 29.8689 13.969 29.9384 13.9144 29.9968C13.8089 30.1114 13.662 30.1827 13.501 30.1827H11.175C11.1532 30.2275 11.1293 30.2715 11.1033 30.3139C11.052 30.3982 10.9943 30.474 10.9324 30.5416L10.9212 30.5522C10.8024 30.6774 10.661 30.7791 10.5049 30.8489C10.1836 30.9923 9.82151 30.9923 9.50018 30.8489L9.49104 30.8443C9.00658 30.6235 8.68666 30.1106 8.68666 29.5385C8.68675 29.2578 8.76404 28.9835 8.90874 28.7502C9.05343 28.5169 9.25902 28.3353 9.49948 28.2282C9.82111 28.0855 10.1819 28.0855 10.5035 28.2282C10.7996 28.3602 11.0435 28.6075 11.1835 28.9186H12.9139V28.0908L14.0867 28.7616Z" fill="url(#paint0_linear_116_53)"/>
<path d="M11 14.5H10.5V15V21V21.5H11H12.8058H13.3058V21V20.4565L13.6508 21.2085L13.7846 21.5H14.1053H15.8873H16.2027H16.3873H16.7027H18.5078H19.0078V21V19.6893H19.9948H20.4948V19.1893V17.7879V17.2879H19.9948H19.0078V16.9646H20.4618H20.609V17.0673H21.109H21.6831V21V21.5H22.1831H23.9881H24.4881V21V17.0673H25H25.5V16.5673V15V14.5H25H21.109H20.9618H20.609H20.4618H16.7027H16.3873H16.2027H15.8873H14.0823H13.5823V15V15.4994L13.2221 14.7769L13.0841 14.5H12.7746H11Z" fill="white" stroke="#0A1119"/>
</g>
<defs>
<linearGradient id="paint0_linear_116_53" x1="13.2437" y1="14.8233" x2="40.8134" y2="43.0783" gradientUnits="userSpaceOnUse">
<stop stop-color="#87AEDB"/>
<stop offset="1" stop-color="#C9E1FF"/>
</linearGradient>
<clipPath id="clip0_116_53">
<rect width="36" height="36" fill="white"/>
</clipPath>
</defs>
</svg>
