<svg width="215" height="215" viewBox="0 0 215 215" fill="none" xmlns="http://www.w3.org/2000/svg">
<path fill-rule="evenodd" clip-rule="evenodd" d="M156.005 41.1566C141.917 30.6178 125.144 25.0492 107.5 25.0492C89.873 25.0492 73.1106 30.6111 59.0266 41.1318L54.8076 35.4819C70.118 24.0446 88.3368 18 107.5 18C126.677 18 144.91 24.0551 160.228 35.5105L156.005 41.1566ZM24.4185 135.489L31.0661 133.138C37.519 151.388 50.3526 166.766 67.2067 176.449L63.696 182.56C45.3825 172.043 31.4323 155.325 24.4185 135.489ZM147.824 176.426L151.338 182.538C169.634 172.02 183.57 155.31 190.577 135.485L183.929 133.133C177.487 151.374 164.665 166.748 147.824 176.426ZM86.3526 96.1967V131.442H65.2051V96.1967H86.3526ZM79.3034 103.246H72.2542V124.393H79.3034V103.246ZM96.9258 131.442H118.073V78.5741H96.9258V131.442ZM103.975 85.6233H111.024V124.394H103.975V85.6233ZM149.795 68V131.443H128.647V68H149.795ZM142.746 75.0492H135.697V124.393H142.746V75.0492Z" fill="url(#paint0_radial_122_206)"/>
<path fill-rule="evenodd" clip-rule="evenodd" d="M36.129 84.5782C38.2913 82.3852 39.7568 79.6023 40.3412 76.5792C40.9257 73.5562 40.603 70.4279 39.4137 67.5877C38.2244 64.7474 36.2216 62.3219 33.657 60.616C31.0925 58.9101 28.0806 58 25 58C21.9194 58 18.9075 58.9101 16.343 60.616C13.7784 62.3219 11.7756 64.7474 10.5863 67.5877C9.39704 70.4279 9.07433 73.5562 9.65875 76.5792C10.2432 79.6023 11.7087 82.3852 13.871 84.5782C9.78934 86.1818 6.28426 88.9748 3.81076 92.5944C1.33726 96.2141 0.0095539 100.493 0 104.877C-0.000231782 105.287 0.0804399 105.693 0.237403 106.072C0.394367 106.451 0.624544 106.796 0.914773 107.086C1.205 107.376 1.54959 107.606 1.92884 107.763C2.30809 107.92 2.71455 108 3.125 108H46.875C47.2854 108 47.6919 107.92 48.0712 107.763C48.4504 107.606 48.795 107.376 49.0852 107.086C49.3755 106.796 49.6056 106.451 49.7626 106.072C49.9196 105.693 50.0002 105.287 50 104.877C49.9904 100.493 48.6627 96.2141 46.1892 92.5944C43.7157 88.9748 40.2107 86.1818 36.129 84.5782ZM25 64.2735C26.8542 64.2735 28.6668 64.8231 30.2085 65.8527C31.7502 66.8822 32.9518 68.3456 33.6614 70.0578C34.3709 71.7699 34.5566 73.6539 34.1949 75.4715C33.8331 77.2891 32.9402 78.9586 31.6291 80.2691C30.318 81.5795 28.6475 82.4719 26.829 82.8334C25.0104 83.195 23.1254 83.0094 21.4123 82.3002C19.6993 81.591 18.2351 80.39 17.205 78.8492C16.1748 77.3083 15.625 75.4967 15.625 73.6435C15.6278 71.1593 16.6164 68.7776 18.3739 67.021C20.1315 65.2644 22.5144 64.2763 25 64.2735ZM6.5613 101.753C7.28741 98.2286 9.2068 95.0617 11.9962 92.786C14.7855 90.5104 18.2744 89.2652 21.875 89.2601H28.125C31.7256 89.2652 35.2145 90.5104 38.0038 92.786C40.7932 95.0617 42.7126 98.2286 43.4387 101.753H6.5613ZM201.129 84.5782C203.291 82.3852 204.757 79.6023 205.341 76.5792C205.926 73.5562 205.603 70.4279 204.414 67.5877C203.224 64.7474 201.222 62.3219 198.657 60.616C196.092 58.9101 193.081 58 190 58C186.919 58 183.908 58.9101 181.343 60.616C178.778 62.3219 176.776 64.7474 175.586 67.5877C174.397 70.4279 174.074 73.5562 174.659 76.5792C175.243 79.6023 176.709 82.3852 178.871 84.5782C174.789 86.1818 171.284 88.9748 168.811 92.5944C166.337 96.2141 165.01 100.493 165 104.877C165 105.287 165.08 105.693 165.237 106.072C165.394 106.451 165.625 106.796 165.915 107.086C166.205 107.376 166.55 107.606 166.929 107.763C167.308 107.92 167.715 108 168.125 108H211.875C212.285 108 212.692 107.92 213.071 107.763C213.45 107.606 213.795 107.376 214.085 107.086C214.375 106.796 214.606 106.451 214.763 106.072C214.92 105.693 215 105.287 215 104.877C214.99 100.493 213.663 96.2141 211.189 92.5944C208.716 88.9748 205.211 86.1818 201.129 84.5782ZM190 64.2735C191.854 64.2735 193.667 64.8231 195.208 65.8527C196.75 66.8822 197.952 68.3456 198.661 70.0578C199.371 71.7699 199.557 73.6539 199.195 75.4715C198.833 77.2891 197.94 78.9586 196.629 80.2691C195.318 81.5795 193.648 82.4719 191.829 82.8334C190.01 83.195 188.125 83.0094 186.412 82.3002C184.699 81.591 183.235 80.39 182.205 78.8492C181.175 77.3083 180.625 75.4967 180.625 73.6435C180.628 71.1593 181.616 68.7776 183.374 67.021C185.131 65.2644 187.514 64.2763 190 64.2735ZM171.561 101.753C172.287 98.2286 174.207 95.0617 176.996 92.786C179.786 90.5104 183.274 89.2652 186.875 89.2601H193.125C196.726 89.2652 200.214 90.5104 203.004 92.786C205.793 95.0617 207.713 98.2286 208.439 101.753H171.561ZM123.341 176.579C122.757 179.602 121.291 182.385 119.129 184.578C123.211 186.182 126.716 188.975 129.189 192.594C131.663 196.214 132.99 200.493 133 204.877C133 205.287 132.92 205.693 132.763 206.072C132.606 206.451 132.375 206.796 132.085 207.086C131.795 207.376 131.45 207.606 131.071 207.763C130.692 207.92 130.285 208 129.875 208H86.125C85.7146 208 85.3081 207.92 84.9288 207.763C84.5496 207.606 84.205 207.376 83.9148 207.086C83.6245 206.796 83.3944 206.451 83.2374 206.072C83.0804 205.693 82.9998 205.287 83 204.877C83.0096 200.493 84.3373 196.214 86.8108 192.594C89.2843 188.975 92.7893 186.182 96.871 184.578C94.7087 182.385 93.2432 179.602 92.6588 176.579C92.0743 173.556 92.397 170.428 93.5863 167.588C94.7756 164.747 96.7784 162.322 99.343 160.616C101.908 158.91 104.919 158 108 158C111.081 158 114.092 158.91 116.657 160.616C119.222 162.322 121.224 164.747 122.414 167.588C123.603 170.428 123.926 173.556 123.341 176.579ZM113.208 165.853C111.667 164.823 109.854 164.274 108 164.274C105.514 164.276 103.131 165.264 101.374 167.021C99.6164 168.778 98.6278 171.159 98.625 173.643C98.625 175.497 99.1748 177.308 100.205 178.849C101.235 180.39 102.699 181.591 104.412 182.3C106.125 183.009 108.01 183.195 109.829 182.833C111.648 182.472 113.318 181.579 114.629 180.269C115.94 178.959 116.833 177.289 117.195 175.471C117.557 173.654 117.371 171.77 116.661 170.058C115.952 168.346 114.75 166.882 113.208 165.853ZM94.9962 192.786C92.2068 195.062 90.2874 198.229 89.5613 201.753H126.439C125.713 198.229 123.793 195.062 121.004 192.786C118.214 190.51 114.726 189.265 111.125 189.26H104.875C101.274 189.265 97.7855 190.51 94.9962 192.786Z" fill="url(#paint1_radial_122_206)"/>
<defs>
<radialGradient id="paint0_radial_122_206" cx="0" cy="0" r="1" gradientUnits="userSpaceOnUse" gradientTransform="translate(79 100) rotate(45.4419) scale(137.536 139.153)">
<stop stop-color="#C9E1FF"/>
<stop offset="0.633971" stop-color="#87AEDB"/>
<stop offset="1" stop-color="#87AEDB" stop-opacity="0"/>
</radialGradient>
<radialGradient id="paint1_radial_122_206" cx="0" cy="0" r="1" gradientUnits="userSpaceOnUse" gradientTransform="translate(93.5 114) rotate(16.6543) scale(122.123 122.123)">
<stop stop-color="white"/>
<stop offset="0.633971" stop-color="white"/>
<stop offset="1" stop-color="white" stop-opacity="0"/>
</radialGradient>
</defs>
</svg>
