<svg width="41" height="41" viewBox="0 0 41 41" fill="none" xmlns="http://www.w3.org/2000/svg">
<g clip-path="url(#clip0_8_47254)">
<path fill-rule="evenodd" clip-rule="evenodd" d="M8.81194 18.5677C8.31985 18.5677 7.82776 18.4446 7.40597 18.1986C6.07029 17.4253 5.59577 15.703 6.36906 14.3497C6.87872 13.4886 7.81018 12.9613 8.81194 12.9613C9.30403 12.9613 9.77855 13.0844 10.2179 13.3304C10.2355 13.348 10.2706 13.3656 10.3058 13.3831L13.9262 9.48155C13.2935 8.60281 13.188 7.39016 13.7504 6.40598C14.2601 5.54482 15.1916 5 16.1933 5C16.6854 5 17.1599 5.12302 17.5993 5.36907C18.3901 5.84359 18.8822 6.63445 18.9701 7.49561L24.2952 7.88225C24.3655 7.65378 24.4534 7.42531 24.5764 7.21441C25.0685 6.35325 26 5.80844 27.0017 5.80844C27.4938 5.80844 27.9859 5.94903 28.4077 6.19508C29.058 6.56415 29.5325 7.16169 29.7258 7.89982C29.9191 8.62039 29.8137 9.3761 29.4446 10.0264C28.935 10.8875 28.0035 11.4323 27.0017 11.4323C26.5097 11.4323 26.0351 11.2917 25.5958 11.0457C25.4376 10.9578 25.2794 10.8524 25.1388 10.7293L19.3568 15.1933C19.4446 15.3691 19.5149 15.5624 19.5501 15.7557C19.761 16.4763 19.6555 17.232 19.2865 17.8822C18.7768 18.7434 17.8453 19.2882 16.8436 19.2882C16.3515 19.2882 15.877 19.1476 15.4376 18.9016C14.6292 18.4446 14.1371 17.6186 14.0492 16.7575L11.5009 16.529C11.4481 16.7399 11.3603 16.9684 11.2372 17.1617C10.7452 18.0228 9.8137 18.5677 8.81194 18.5677ZM27.2478 34.8594C25.8945 34.8594 24.7346 33.9104 24.4358 32.645L14.3655 33.225C14.1722 34.2267 13.2935 35 12.2214 35C11.0264 35 10.0422 34.0158 10.0422 32.8207C10.0422 32.1178 10.3761 31.5026 10.8682 31.116L9.62038 28.3392C9.39191 28.3919 9.14586 28.4271 8.89981 28.4271C7.30052 28.4271 5.99999 27.1265 5.99999 25.5272C5.99999 23.9104 7.30052 22.6098 8.89981 22.6098C9.90157 22.6098 10.7803 23.1195 11.3075 23.8752L22.8717 19.1652C22.8365 18.9895 22.8014 18.7961 22.8014 18.6028C22.8014 17.0387 24.0843 15.7733 25.6485 15.7733C27.2126 15.7733 28.478 17.0387 28.478 18.6028C28.478 19.0949 28.355 19.5694 28.1265 19.9736L32.1511 23.2953C32.5553 22.8207 33.1529 22.522 33.8207 22.522C35.0158 22.522 36 23.5062 36 24.7012C36 25.9139 35.0158 26.8805 33.8207 26.8805C33.0123 26.8805 32.2917 26.4411 31.9227 25.7909L26.6503 27.2847L26.7381 29.0949C26.9139 29.0598 27.072 29.0422 27.2478 29.0422C28.8647 29.0422 30.1652 30.3427 30.1652 31.9596C30.1652 33.5589 28.8647 34.8594 27.2478 34.8594ZM24.3655 31.5905C24.4886 30.7118 24.9982 29.9385 25.7188 29.4991L25.6133 27.5659L21.6239 28.6907V28.761C21.6239 29.9736 20.6397 30.9402 19.4446 30.9402C18.8119 30.9402 18.2496 30.6766 17.8453 30.2548L14.4534 32.1705L24.3655 31.5905ZM17.3357 29.3409C17.2829 29.1652 17.2654 28.9719 17.2654 28.761C17.2654 27.5659 18.232 26.5817 19.4446 26.5817C19.4798 26.5817 19.5325 26.5817 19.5677 26.5993L23.645 20.6063C23.5044 20.4657 23.3814 20.3076 23.2583 20.1494L11.7293 24.8243C11.7821 25.0527 11.8172 25.2812 11.8172 25.5272C11.8172 26.5114 11.3251 27.3726 10.5694 27.8998L11.8348 30.6766C11.9578 30.659 12.0984 30.6415 12.2214 30.6415C12.8541 30.6415 13.4165 30.9051 13.8032 31.3269L17.3357 29.3409ZM20.6046 26.9332C20.9033 27.1265 21.1494 27.3726 21.3251 27.6889L25.543 26.4938L25.2794 21.4148C24.9982 21.3796 24.7522 21.3093 24.5061 21.2039L20.6046 26.9332ZM33.8207 13.0668C32.6081 13.0668 31.6415 12.0826 31.6415 10.8875C31.6415 9.69244 32.6081 8.70826 33.8207 8.70826C35.0158 8.70826 36 9.69244 36 10.8875C36 12.0826 35.0158 13.0668 33.8207 13.0668ZM31.7645 19.3937C30.7452 19.3937 29.9191 18.5677 29.9191 17.5483C29.9191 16.5114 30.7452 15.6854 31.7645 15.6854C32.8014 15.6854 33.6274 16.5114 33.6274 17.5483C33.6274 18.5677 32.8014 19.3937 31.7645 19.3937ZM11.0615 14.1037C11.3603 14.5079 11.5536 14.9824 11.6063 15.4745L14.1371 15.703C14.2074 15.4921 14.2952 15.2812 14.4183 15.0703C14.7873 14.42 15.4025 13.9631 16.123 13.7698L15.877 10.6063C15.4903 10.5536 15.1213 10.4306 14.7873 10.2373C14.7522 10.2197 14.717 10.2021 14.6995 10.1845L11.0615 14.1037ZM24.2249 8.93673L18.8998 8.53251C18.8295 8.76098 18.7416 8.98946 18.6186 9.21793C18.2496 9.86819 17.6344 10.3251 16.9139 10.5185L17.1599 13.6819C17.5466 13.7346 17.9156 13.8576 18.2496 14.051C18.4077 14.1388 18.5659 14.2443 18.7065 14.3673L24.5061 9.88576C24.4183 9.72759 24.348 9.53427 24.2952 9.34095C24.2601 9.21793 24.2249 9.07733 24.2249 8.93673ZM26.58 26.1951L31.6415 24.7715V24.7012C31.6415 24.5606 31.659 24.4025 31.6766 24.2619L27.4587 20.7821C27.1423 21.0633 26.7557 21.2566 26.3163 21.362L26.58 26.1951Z" fill="url(#paint0_linear_8_47254)"/>
</g>
<defs>
<linearGradient id="paint0_linear_8_47254" x1="5.99722" y1="20" x2="36" y2="20" gradientUnits="userSpaceOnUse">
<stop stop-color="#87AEDB"/>
<stop offset="1" stop-color="#C9E1FF"/>
</linearGradient>
<clipPath id="clip0_8_47254">
<rect width="30" height="30" fill="white" transform="translate(6 5)"/>
</clipPath>
</defs>
</svg>
