<svg width="95" height="82" viewBox="0 0 95 82" fill="none" xmlns="http://www.w3.org/2000/svg">
<path fill-rule="evenodd" clip-rule="evenodd" d="M41.2772 0.897779C45.0481 -0.27308 49.0815 -0.299251 52.8673 0.822575C56.653 1.9444 60.0212 4.16384 62.5458 7.20021C65.0704 10.2366 66.638 13.9535 67.0504 17.881C67.4628 21.8084 66.7014 25.77 64.8627 29.2647C63.0239 32.7593 60.1902 35.6302 56.7201 37.5142C53.2499 39.3981 49.2991 40.2106 45.3672 39.8488C41.4354 39.487 37.6991 37.9672 34.6309 35.4816C31.5626 32.996 29.3003 29.6563 28.1299 25.8847C24.8601 15.3512 30.7489 4.16192 41.2772 0.897779Z" fill="url(#paint0_radial_8_22262)"/>
<path fill-rule="evenodd" clip-rule="evenodd" d="M41.2772 0.897779C45.0481 -0.27308 49.0815 -0.299251 52.8673 0.822575C56.653 1.9444 60.0212 4.16384 62.5458 7.20021C65.0704 10.2366 66.638 13.9535 67.0504 17.881C67.4628 21.8084 66.7014 25.77 64.8627 29.2647C63.0239 32.7593 60.1902 35.6302 56.7201 37.5142C53.2499 39.3981 49.2991 40.2106 45.3672 39.8488C41.4354 39.487 37.6991 37.9672 34.6309 35.4816C31.5626 32.996 29.3003 29.6563 28.1299 25.8847C24.8601 15.3512 30.7489 4.16192 41.2772 0.897779Z" fill="url(#paint1_linear_8_22262)"/>
<path d="M28.9431 11.6119C29.4588 10.4839 30.0776 9.40495 30.7917 8.38858C33.8678 5.46748 33.8678 5.46748 38.4213 2.98691C38.4213 2.67866 38.4213 2.67866 38.4213 2.42017C39.8252 2.42623 39.8252 2.42623 41.4643 2.64104C40.1486 4.0488 40.1486 4.0488 38.8219 5.69927C38.7104 5.14831 38.7104 5.14831 38.6161 4.63739C32.3916 7.92742 32.3855 7.92742 28.9382 11.6119H28.9431ZM40.1988 38.4066C47.0395 38.9624 47.0395 38.9624 55.2302 36.9273C55.2543 37.1117 55.269 37.2972 55.2743 37.4831C56.601 36.3435 56.601 36.3435 57.94 34.9637C56.4515 34.6882 56.4515 34.6882 54.7132 34.2355C54.8418 34.7804 54.8418 34.7804 54.9472 35.2974C44.4681 37.7889 44.4681 37.7889 36.8336 36.7877C37.9009 37.433 39.0277 37.9763 40.1988 38.4103V38.4066ZM33.6069 34.386C32.9095 33.748 32.2582 33.0622 31.6578 32.3338C39.3989 32.8836 39.3989 32.8836 53.4636 29.3084C53.2419 28.5001 53.2419 28.5001 53.0079 27.664C55.213 28.687 55.213 28.687 57.2172 29.5839C55.8954 31.647 55.8954 31.647 54.5625 33.5608C54.4179 32.9334 54.4179 32.9334 54.2513 32.2683C41.4961 35.3702 41.4961 35.3702 33.6069 34.386ZM29.7357 29.5232C29.3188 28.7829 28.9505 28.0167 28.6332 27.2295C37.6275 25.2671 37.6274 25.2671 55.8292 19.7259L55.2743 17.8837C57.5173 19.1652 57.5173 19.1652 59.5876 20.4031C58.4716 22.7356 58.4716 22.7356 57.2674 25.0839C57.0555 24.2259 57.0555 24.2259 56.8337 23.34C39.1208 28.6652 39.1208 28.6652 29.7357 29.5232ZM27.6531 24.0936C27.4625 23.267 27.3258 22.4291 27.244 21.5851C37.8443 16.1507 37.8443 16.1507 57.7893 10.3971C57.461 9.60945 57.461 9.60945 57.129 8.84003C59.1932 10.1325 59.1932 10.1325 61.1092 11.4577C60.4427 13.3558 60.4427 13.3558 59.6207 15.4468C59.3377 14.5779 59.3377 14.5779 59.0499 13.7296C38.5989 19.8582 38.5989 19.8582 27.6482 24.0936H27.6531ZM27.2268 18.1859C27.3043 17.2464 27.4492 16.3137 27.6605 15.3946C33.5958 10.1689 33.5958 10.1689 45.8794 5.56457C45.6344 4.92622 45.6344 4.92622 45.3955 4.32185C47.5895 5.14588 47.5895 5.14588 49.8608 6.11432C48.7166 7.9796 48.7166 7.9796 47.4891 10.0585L46.9231 8.44926C33.2883 13.3946 33.2883 13.3946 27.2268 18.1859Z" fill="#FEFEFE"/>
<path d="M0 60.8235C0 67.1109 4.8484 71.7142 11.4598 71.7142C18.0711 71.7142 22.9195 67.1109 22.9195 60.8235C22.9195 54.536 18.0711 49.9327 11.4598 49.9327C4.8484 49.9327 0 54.536 0 60.8235ZM17.4835 60.8235C17.4835 64.6128 15.1034 67.0829 11.4598 67.0829C7.8162 67.0829 5.4361 64.6128 5.4361 60.8235C5.4361 57.0342 7.8162 54.5641 11.4598 54.5641C15.1034 54.5641 17.4835 57.0342 17.4835 60.8235Z" fill="white"/>
<path d="M25.4929 50.2976L32.6332 71.3493H39.656L46.7375 50.2976H41.3309L36.2768 66.2127L31.1053 50.2976H25.4929Z" fill="white"/>
<path d="M79.6655 50.2976H73.5825L83.5735 64.6689L73.7295 71.3493H79.4005L83.5735 64.6689L88.2155 71.3493H94.3275L84.2785 56.8938L94.3865 50.2976H88.4805L84.2785 56.8938L79.6655 50.2976Z" fill="white"/>
<path d="M2.29313 81.3949C3.79983 81.3949 4.85083 80.5682 5.10803 79.2808L5.15953 79.0032H2.11673L2.02113 79.4828H4.42453C4.22613 80.3158 3.42493 80.9027 2.33723 80.9027C1.26413 80.9027 0.65413 80.3095 0.64673 79.3755C0.63943 78.1197 1.65363 77.0468 3.09423 77.0468C3.98353 77.0468 4.48333 77.5201 4.56413 78.1638L5.18153 78.0376C5.05663 77.1604 4.32893 76.5546 3.13093 76.5546C1.26413 76.5546 -0.00736787 77.9493 3.21302e-05 79.426C0.00733213 80.5998 0.845231 81.3949 2.29313 81.3949Z" fill="white"/>
<path d="M6.71436 81.3381H10.1688L10.2717 80.8459H7.44196L8.30925 76.6051H7.68446L6.71436 81.3381Z" fill="white"/>
<path d="M14.7249 76.5546C12.8875 76.5546 11.6013 77.943 11.6013 79.4197C11.6013 80.5808 12.4171 81.3886 13.8503 81.3886C15.6951 81.3886 16.9887 80.0003 16.9887 78.5235C16.9887 77.3624 16.1655 76.5546 14.7249 76.5546ZM14.6808 77.0468C15.7539 77.0468 16.3492 77.64 16.3492 78.5677C16.3492 79.8172 15.2835 80.8964 13.9018 80.8964C12.8361 80.8964 12.2481 80.3032 12.2481 79.3755C12.2481 78.126 13.2991 77.0468 14.6808 77.0468Z" fill="white"/>
<path d="M18.5449 81.3381H20.6763C21.9037 81.3381 22.6387 80.7386 22.6387 79.9561C22.6387 79.4449 22.3153 79.06 21.7934 78.8959C22.4035 78.7192 22.8224 78.3027 22.8224 77.7473C22.8224 77.0973 22.2785 76.6051 21.4407 76.6051H19.515L18.5449 81.3381ZM21.3525 77.0658C21.911 77.0658 22.1977 77.3876 22.1977 77.7978C22.1977 78.309 21.7494 78.6624 21.0585 78.6624H19.7135L20.0369 77.0658H21.3525ZM21.0438 79.1231C21.6538 79.1231 22.0066 79.4701 22.0066 79.9435C22.0066 80.4988 21.5142 80.8774 20.691 80.8774H19.2578L19.6179 79.1231H21.0438Z" fill="white"/>
<path d="M23.6782 81.3381H24.3397L25.398 79.7289H27.6103L27.9631 81.3381H28.5878L27.5221 76.6051H26.8312L23.6782 81.3381ZM25.7214 79.2367L27.0664 77.1983L27.5074 79.2367H25.7214Z" fill="white"/>
<path d="M30.325 81.3381H33.7794L33.8823 80.8459H31.0526L31.9199 76.6051H31.2952L30.325 81.3381Z" fill="white"/>
<path fill-rule="evenodd" clip-rule="evenodd" d="M43.563 81.3949H48.7507L55.7145 61.4098L57.8705 55.4724L58.9345 58.4411L59.9985 61.4098L63.5535 71.2391H68.9745L60.7855 49.9327H55.1605L43.563 81.3949Z" fill="#87AEDB"/>
<defs>
<radialGradient id="paint0_radial_8_22262" cx="0" cy="0" r="1" gradientUnits="userSpaceOnUse" gradientTransform="translate(56.4121 5.14068) scale(40.0304 40.0364)">
<stop stop-color="#87AEDB"/>
<stop offset="1" stop-color="#476ACC"/>
</radialGradient>
<linearGradient id="paint1_linear_8_22262" x1="27.2268" y1="19.9664" x2="67.1596" y2="19.9664" gradientUnits="userSpaceOnUse">
<stop stop-color="#87AEDB"/>
<stop offset="1" stop-color="#C9E1FF"/>
</linearGradient>
</defs>
</svg>
