<svg width="46" height="46" viewBox="0 0 46 46" fill="none" xmlns="http://www.w3.org/2000/svg">
<path d="M45.3163 28.551C42.2472 40.8649 29.7753 48.3843 17.4388 45.3133C5.12485 42.2348 -2.38237 29.7629 0.686712 17.449C3.7558 5.13505 16.2202 -2.38426 28.5266 0.686691C40.8707 3.72001 48.3779 16.2296 45.3163 28.551Z" fill="#345D9D"/>
<path d="M20.7222 32.3183L23.0114 24.5987L26.5784 23.5872L27.3238 21.0317L23.81 22.0965L27.5367 9.42564V9.22333C27.534 9.14222 27.5153 9.06244 27.4817 8.98856C27.4481 8.91468 27.4002 8.84815 27.3409 8.79277C27.2816 8.73739 27.2119 8.69425 27.1359 8.66582C27.0599 8.63739 26.979 8.62422 26.8979 8.62706H22.1596C21.9802 8.62153 21.8042 8.67618 21.6595 8.78231C21.5147 8.88844 21.4097 9.03994 21.361 9.21269L16.9422 24.226L13.4285 25.2908L12.6299 27.7398L16.1436 26.675L13.0026 37.376H31.7426C31.9224 37.3834 32.0994 37.3295 32.2445 37.2231C32.3896 37.1167 32.4942 36.9641 32.5412 36.7904L33.606 33.1169V32.9146C33.6032 32.8335 33.5845 32.7537 33.5509 32.6798C33.5173 32.6059 33.4695 32.5394 33.4101 32.484C33.3508 32.4287 33.2811 32.3855 33.2051 32.3571C33.1291 32.3286 33.0482 32.3155 32.9671 32.3183H20.7222Z" fill="white"/>
</svg>
