<svg width="46" height="46" viewBox="0 0 46 46" fill="none" xmlns="http://www.w3.org/2000/svg">
<path d="M45.3163 28.551C42.2472 40.8649 29.7753 48.3843 17.4388 45.3133C5.12485 42.2348 -2.38237 29.7629 0.686712 17.449C3.7558 5.13505 16.2202 -2.38426 28.5266 0.686691C40.8707 3.72001 48.3779 16.2296 45.3163 28.551Z" fill="#ECEFF0"/>
<path d="M23.2682 28.5793C23.1789 28.6097 23.128 28.5319 23.0672 28.4962C20.0886 26.7382 17.1132 24.979 14.1411 23.2186C14.1123 23.2041 14.0825 23.1918 14.0518 23.182V23.1427L14.1045 23.1123C14.1793 23.0926 14.253 23.0688 14.3252 23.0408L21.3443 19.8471C21.9699 19.5621 22.5954 19.2815 23.2209 18.9991H23.2656C23.2656 19.0885 23.2656 19.168 23.2656 19.2529C23.268 22.362 23.2688 25.4708 23.2682 28.5793Z" fill="#343535"/>
<path d="M23.2727 19.0013H23.228C23.228 18.9119 23.2369 18.8226 23.2369 18.7287C23.2369 15.2366 23.2369 11.7441 23.2369 8.2514C23.2267 8.1617 23.2327 8.07087 23.2548 7.98332H23.2736C23.6408 8.52573 23.9607 9.09763 24.2985 9.65791C26.9745 14.0967 29.649 18.5348 32.3221 22.9724C32.348 23.0162 32.3685 23.0617 32.3918 23.11C32.3161 23.0938 32.2417 23.072 32.1693 23.0448C31.6787 22.8232 31.1863 22.598 30.7002 22.3719C29.9389 22.0234 29.1772 21.6755 28.4153 21.3282L24.7444 19.6652C24.2556 19.44 23.7642 19.2211 23.2727 19.0013Z" fill="#2F3030"/>
<path d="M23.2578 7.97871C23.2357 8.06625 23.2296 8.15708 23.2399 8.24678C23.2399 11.7389 23.2399 15.2314 23.2399 18.7241C23.2399 18.8135 23.2345 18.9028 23.2309 18.9967C22.6054 19.279 21.9799 19.5596 21.3544 19.8447L14.3353 23.0384C14.2631 23.0663 14.1894 23.0902 14.1145 23.1098C14.3174 22.6881 14.581 22.3056 14.8214 21.9017C17.6064 17.2723 20.3935 12.6438 23.1827 8.01624C23.2011 7.9906 23.2211 7.96613 23.2426 7.94296L23.2578 7.97871Z" fill="#828384"/>
<path d="M23.2727 19.0013C23.7642 19.2211 24.2558 19.4401 24.7464 19.6617L28.4172 21.3247C29.1798 21.6714 29.9414 22.0193 30.7021 22.3684C31.1918 22.5927 31.6851 22.8197 32.1712 23.0413C32.2436 23.0685 32.318 23.0903 32.3937 23.1065C32.4831 23.2182 32.3508 23.2227 32.3106 23.2468C31.5484 23.7025 30.7826 24.152 30.0185 24.6042C27.8257 25.9016 25.6334 27.1988 23.4417 28.4957C23.3863 28.5279 23.3263 28.5516 23.2682 28.5793C23.2682 25.4714 23.2684 22.3636 23.2684 19.2551C23.2693 19.1702 23.2718 19.0862 23.2727 19.0013Z" fill="#131313"/>
<path d="M23.2368 30.3447L28.9782 26.9607C30.0743 26.3137 31.1698 25.6662 32.2648 25.018L32.364 24.9635C32.3738 25.0529 32.3121 25.1002 32.2746 25.1521C29.7726 28.6794 27.2705 32.2055 24.7685 35.7304C24.2949 36.3988 23.8221 37.0708 23.3441 37.7338C23.3191 37.7687 23.2806 37.9322 23.2038 37.7588C23.2645 37.707 23.2377 37.6373 23.2377 37.5801C23.2383 35.1674 23.238 32.7556 23.2368 30.3447Z" fill="#2F3030"/>
<path d="M23.2364 30.3452C23.2364 32.7561 23.2364 35.1664 23.2364 37.5761C23.2364 37.6378 23.2632 37.7074 23.2024 37.7548C23.0746 37.678 23.0192 37.5403 22.9343 37.4269C20.0331 33.3402 17.1334 29.2529 14.2352 25.165C14.1986 25.1132 14.1646 25.0578 14.1271 25.0006C14.2022 24.9568 14.2424 25.0167 14.2862 25.0426C17.2201 26.775 20.1535 28.5088 23.0862 30.2442C23.1407 30.2782 23.1872 30.313 23.2364 30.3452Z" fill="#828384"/>
<path d="M23.2584 7.97866L23.237 7.94559C23.2763 7.92057 23.2709 7.95721 23.2772 7.97598L23.2584 7.97866Z" fill="#393939"/>
</svg>
