<svg width="46" height="46" viewBox="0 0 46 46" fill="none" xmlns="http://www.w3.org/2000/svg">
<path d="M45.3163 28.551C42.2472 40.8649 29.7753 48.3843 17.4388 45.3133C5.12485 42.2348 -2.38237 29.7629 0.686712 17.449C3.7558 5.13505 16.2202 -2.38426 28.5266 0.686691C40.8707 3.72001 48.3779 16.2296 45.3163 28.551Z" fill="#000008"/>
<path d="M37.207 30.1014L32.4609 35.06C32.3577 35.1677 32.2329 35.2536 32.0942 35.3123C31.9554 35.371 31.8058 35.4013 31.6546 35.4012H9.15596C9.04861 35.4012 8.9436 35.3706 8.85383 35.3133C8.76405 35.2559 8.69343 35.1743 8.65064 35.0784C8.60785 34.9825 8.59476 34.8765 8.61296 34.7734C8.63117 34.6703 8.67988 34.5747 8.75312 34.4982L13.5028 29.5396C13.6057 29.4322 13.7301 29.3465 13.8683 29.2878C14.0066 29.2291 14.1558 29.1987 14.3066 29.1984H36.804C36.9113 29.1984 37.0164 29.229 37.1062 29.2863C37.1959 29.3437 37.2665 29.4254 37.3094 29.5213C37.3521 29.6172 37.3652 29.7232 37.347 29.8263C37.3288 29.9293 37.2801 30.025 37.207 30.1014ZM32.4609 20.1162C32.3577 20.0085 32.2329 19.9226 32.0942 19.8639C31.9554 19.8053 31.8058 19.775 31.6546 19.7751H9.15596C9.04861 19.7751 8.9436 19.8056 8.85383 19.863C8.76405 19.9203 8.69343 20.002 8.65064 20.0979C8.60785 20.1938 8.59476 20.2998 8.61296 20.4029C8.63117 20.5059 8.67988 20.6016 8.75312 20.6781L13.5028 25.6367C13.6057 25.7441 13.7301 25.8298 13.8683 25.8885C14.0066 25.9471 14.1558 25.9776 14.3066 25.9778H36.804C36.9113 25.9778 37.0164 25.9472 37.1062 25.8899C37.1959 25.8325 37.2665 25.7509 37.3094 25.655C37.3521 25.5591 37.3652 25.4531 37.347 25.35C37.3288 25.2469 37.2801 25.1513 37.207 25.0748L32.4609 20.1162ZM9.15596 16.5544H31.6546C31.8058 16.5545 31.9554 16.5243 32.0942 16.4656C32.2329 16.4069 32.3577 16.321 32.4609 16.2133L37.207 11.2547C37.2801 11.1782 37.3288 11.0826 37.347 10.9795C37.3652 10.8764 37.3521 10.7704 37.3094 10.6745C37.2665 10.5786 37.1959 10.4969 37.1062 10.4396C37.0164 10.3822 36.9113 10.3517 36.804 10.3517H14.3066C14.1558 10.3519 14.0066 10.3823 13.8683 10.441C13.7301 10.4997 13.6057 10.5854 13.5028 10.6928L8.75434 15.6514C8.68118 15.7278 8.63248 15.8234 8.61424 15.9263C8.59599 16.0293 8.60898 16.1352 8.65162 16.2311C8.69426 16.3269 8.76469 16.4086 8.85428 16.466C8.94387 16.5235 9.04872 16.5542 9.15596 16.5544Z" fill="url(#paint0_linear_45_26712)"/>
<defs>
<linearGradient id="paint0_linear_45_26712" x1="11.0318" y1="35.9982" x2="33.9372" y2="9.49311" gradientUnits="userSpaceOnUse">
<stop offset="0.08" stop-color="#9945FF"/>
<stop offset="0.3" stop-color="#8752F3"/>
<stop offset="0.5" stop-color="#5497D5"/>
<stop offset="0.6" stop-color="#43B4CA"/>
<stop offset="0.72" stop-color="#28E0B9"/>
<stop offset="0.97" stop-color="#19FB9B"/>
</linearGradient>
</defs>
</svg>
