<svg width="47" height="46" viewBox="0 0 47 46" fill="none" xmlns="http://www.w3.org/2000/svg">
<path d="M45.3515 28.5481C42.2824 40.862 29.8105 48.3813 17.474 45.3104C5.16001 42.2319 -2.34722 29.7599 0.721868 17.446C3.79095 5.13212 16.2553 -2.38719 28.5618 0.683761C40.9058 3.71708 48.413 16.2267 45.3515 28.5481Z" fill="#E84142"/>
<path d="M11.989 32.4724H16.4525C17.5036 32.4724 18.029 32.4724 18.498 32.3425C19.0122 32.1899 19.4811 31.9187 19.8709 31.5458C20.229 31.2045 20.4874 30.7523 20.9973 29.86L21.0123 29.8338L26.8015 19.6001C27.3157 18.7017 27.57 18.2497 27.683 17.775C27.8073 17.2609 27.8073 16.7184 27.683 16.2043C27.5709 15.7336 27.3142 15.2851 26.8083 14.4012L26.8075 14.3995L26.7958 14.3793L24.5301 10.4241C24.0612 9.59918 23.8239 9.18675 23.5244 9.03418C23.2023 8.87036 22.8181 8.87036 22.4961 9.03418C22.1966 9.18675 21.9592 9.59918 21.4903 10.4241L10.469 29.8507C10.0056 30.6643 9.77396 31.0712 9.79091 31.4045C9.81354 31.7661 10 32.0938 10.3051 32.2916C10.5877 32.4724 11.0509 32.4724 11.989 32.4724Z" fill="white"/>
<path d="M34.1208 32.4729H27.7248C26.7811 32.4729 26.3066 32.4729 26.0297 32.2921C25.7246 32.0944 25.5381 31.761 25.5155 31.3994C25.4987 31.0686 25.7323 30.6655 26.1995 29.8588L26.2105 29.8399L29.4028 24.3592C29.8719 23.5513 30.1092 23.1501 30.403 22.9976C30.725 22.8337 31.1036 22.8337 31.4256 22.9976C31.7174 23.1461 31.9447 23.5306 32.3949 24.292L32.4314 24.3536L35.6351 29.8343L35.6813 29.914C36.1254 30.6803 36.352 31.0714 36.3358 31.3937C36.3187 31.7553 36.1266 32.0887 35.8216 32.2865C35.539 32.4729 35.0643 32.4729 34.1208 32.4729Z" fill="white"/>
</svg>
