<svg width="47" height="46" viewBox="0 0 47 46" fill="none" xmlns="http://www.w3.org/2000/svg">
<path d="M45.3515 28.5481C42.2824 40.862 29.8105 48.3813 17.474 45.3104C5.16001 42.2319 -2.34722 29.7599 0.721868 17.446C3.79095 5.13212 16.2553 -2.38719 28.5618 0.683761C40.9058 3.71708 48.413 16.2267 45.3515 28.5481Z" fill="url(#paint0_linear_45_26751)"/>
<path d="M24.4673 24.2022H31.8202C31.9769 24.2022 32.051 24.2022 32.0623 23.9967C32.1224 23.2487 32.1224 22.4963 32.0623 21.7474C32.0623 21.602 31.99 21.5419 31.8324 21.5419H17.1988C17.0177 21.5419 16.9689 21.602 16.9689 21.7718V23.9244C16.9689 24.2022 16.9689 24.2022 17.2589 24.2022H24.4673ZM31.2411 19.0262C31.262 18.9713 31.262 18.9113 31.2411 18.8573C31.1183 18.5899 30.9729 18.3348 30.804 18.0953C30.5497 17.6861 30.2502 17.309 29.9088 16.9703C29.7477 16.7656 29.5614 16.5819 29.3524 16.426C28.3057 15.5352 27.0613 14.9048 25.7238 14.5878C25.0489 14.4363 24.3593 14.364 23.6679 14.3701H17.1735C16.9924 14.3701 16.968 14.4424 16.968 14.6V18.893C16.968 19.0741 16.968 19.1229 17.1979 19.1229H31.154C31.154 19.1229 31.2751 19.0985 31.2995 19.0262H31.2403H31.2411ZM31.2411 26.7179C31.0356 26.6953 30.8284 26.6953 30.6229 26.7179H17.211C17.0298 26.7179 16.9689 26.7179 16.9689 26.96V31.1572C16.9689 31.3505 16.9689 31.3993 17.211 31.3993H23.4031C23.6992 31.4219 23.9953 31.401 24.2853 31.3392C25.1839 31.2747 26.0678 31.0797 26.9107 30.7584C27.2172 30.6521 27.5133 30.5137 27.7928 30.3473H27.8773C29.3289 29.5924 30.5079 28.4064 31.2516 26.9504C31.2516 26.9504 31.336 26.7675 31.2411 26.7196V26.7179ZM14.5385 33.5754V33.5031V30.6852V29.73V26.8877C14.5385 26.7301 14.5385 26.7066 14.3452 26.7066H11.7206C11.5752 26.7066 11.5151 26.7066 11.5151 26.5133V24.2152H14.3208C14.4776 24.2152 14.5385 24.2152 14.5385 24.0097V21.7361C14.5385 21.5907 14.5385 21.555 14.3452 21.555H11.7206C11.5752 21.555 11.5151 21.555 11.5151 21.3617V19.2335C11.5151 19.1002 11.5151 19.0645 11.7085 19.0645H14.3086C14.4898 19.0645 14.5385 19.0645 14.5385 18.8346V12.3159C14.5385 12.1226 14.5385 12.0738 14.7806 12.0738H23.8507C24.5091 12.0999 25.163 12.1722 25.81 12.2915C27.1432 12.538 28.4241 13.0143 29.5953 13.6944C30.3721 14.1515 31.087 14.7036 31.7235 15.3393C32.2025 15.8365 32.6344 16.3747 33.0175 16.9476C33.3981 17.5285 33.7142 18.1493 33.9623 18.7981C33.9928 18.967 34.1548 19.0811 34.3237 19.0523H36.4885C36.7663 19.0523 36.7663 19.0523 36.7785 19.3188V21.3025C36.7785 21.4958 36.7062 21.5445 36.512 21.5445H34.8427C34.6738 21.5445 34.625 21.5445 34.6372 21.7622C34.7034 22.4989 34.7034 23.2382 34.6372 23.9749C34.6372 24.1804 34.6372 24.2048 34.868 24.2048H36.7776C36.8621 24.3136 36.7776 24.4225 36.7776 24.5322C36.7898 24.6724 36.7898 24.8143 36.7776 24.9545V26.4183C36.7776 26.6238 36.7175 26.6848 36.5355 26.6848H34.2497C34.0903 26.6543 33.9353 26.7562 33.8988 26.9147C33.3545 28.3297 32.4837 29.5985 31.3587 30.6155C30.9477 30.9856 30.5158 31.334 30.0647 31.6553C29.5805 31.9339 29.1094 32.2239 28.6131 32.4538C27.6996 32.8648 26.7418 33.1678 25.7586 33.3603C24.8251 33.5275 23.8786 33.6032 22.9286 33.5902H14.535V33.578L14.5385 33.5754Z" fill="white"/>
<defs>
<linearGradient id="paint0_linear_45_26751" x1="23.0352" y1="-0.00292969" x2="23.0352" y2="45.9971" gradientUnits="userSpaceOnUse">
<stop stop-color="#F9AA11"/>
<stop offset="1" stop-color="#F9C757"/>
</linearGradient>
</defs>
</svg>
