<?xml version="1.0" encoding="UTF-8"?>
<svg version="1.1" xmlns="http://www.w3.org/2000/svg" width="1200" height="1200">
<path d="M0 0 C0.76439392 0.09710266 1.52878784 0.19420532 2.31634521 0.29425049 C78.08829404 9.93371311 150.94396882 32.77690118 260 94 C260.90556641 94.59780273 261.81113281 95.19560547 262.74414062 95.81152344 C280.51653785 107.59090299 297.71924161 120.22020148 314 134 C314.53109375 134.44762695 315.0621875 134.89525391 315.609375 135.35644531 C323.40161223 141.93333924 331.02282619 148.6678038 338.49365234 155.60693359 C340.03665267 157.03389629 341.58930666 158.44965816 343.14453125 159.86328125 C353.26505689 169.08526273 363.38158868 178.49408713 372.23828125 188.95703125 C374.09063842 191.10510841 376.00821284 193.18588536 377.93823242 195.26416016 C382.67042858 200.36383526 387.21193209 205.56057276 391.57421875 210.984375 C393.35359865 213.19642216 395.14630553 215.39206839 396.95703125 217.578125 C454.4688871 287.21773052 495.16351908 371.21833181 527.74285889 525.95703125 C527.98928154 527.91484258 528.24468183 529.87151763 528.50048828 531.828125 C533.83513102 574.37286623 533.60604297 620.4585864 528.25323486 662.98638916 C527.98857114 665.09087722 527.73399731 667.19644825 527.47998047 669.30224609 C517.14453331 753.81581513 489.22023306 836.77014407 406 965 C405.31550781 965.86625 404.63101562 966.7325 403.92578125 967.625 C401.96264648 970.09338164 399.9843956 972.54868779 398 975 C397.28070312 975.89460937 396.56140625 976.78921875 395.8203125 977.7109375 C391.46907604 983.08599431 387.00217085 988.31371733 382.3359375 993.41796875 C380.42268302 995.53278683 378.54283815 997.66836508 376.671875 999.8203125 C373.15151072 1003.85172779 369.53908458 1007.78664569 365.875 1011.6875 C365.22974365 1012.37448975 364.5844873 1013.06147949 363.91967773 1013.76928711 C355.95279484 1022.21416347 347.93820886 1030.6832219 339.078125 1038.203125 C336.91930939 1040.06977008 334.82481349 1041.99860383 332.73364258 1043.94042969 C327.63446803 1048.67163917 322.43862579 1053.21257668 317.015625 1057.57421875 C314.80357784 1059.35359865 312.60793161 1061.14630553 310.421875 1062.95703125 C280.12838725 1087.97673836 247.11780118 1109.12295675 212.51464844 1127.64648438 C210.28410325 1128.84708074 208.06582552 1130.06660833 205.8515625 1131.296875 C140.70265028 1167.17222016 64.72515114 1187.7809092 -9 1195 C-9.84628967 1195.08613556 -10.69257935 1195.17227112 -11.56451416 1195.26101685 C-29.42317229 1197.038872 -47.22091994 1197.36352623 -65.14879227 1197.31805801 C-67.40883709 1197.31241552 -69.6688744 1197.30959635 -71.92892456 1197.30697632 C-93.7536209 1197.27019785 -115.33015355 1196.81873003 -137 1194 C-138.41524673 1193.82570058 -139.83061576 1193.65239177 -141.24609375 1193.47998047 C-203.70219703 1185.79842528 -265.01290795 1168.78596737 -322 1142 C-322.96470215 1141.55043945 -323.9294043 1141.10087891 -324.92333984 1140.63769531 C-353.52748631 1127.27854137 -381.01819468 1111.96982537 -407 1094 C-407.66128906 1093.54447754 -408.32257813 1093.08895508 -409.00390625 1092.61962891 C-432.80052609 1076.17883338 -455.30746138 1058.07162678 -476.49804688 1038.38867188 C-478.02755522 1036.97452307 -479.56707058 1035.57204924 -481.109375 1034.171875 C-491.5970326 1024.62449015 -502.11451525 1014.85761271 -511.2734375 1004.0078125 C-513.11150974 1001.87032577 -515.01797484 999.80324677 -516.9362793 997.73779297 C-522.55057517 991.68811049 -527.84255381 985.44680774 -533 979 C-533.91076019 977.88094186 -534.82225476 976.76248112 -535.734375 975.64453125 C-592.99219094 905.18963939 -634.04040835 821.19020761 -665.74285889 668.04296875 C-665.98928154 666.08515742 -666.24468183 664.12848237 -666.50048828 662.171875 C-671.83513102 619.62713377 -671.60604297 573.5414136 -666.25323486 531.01361084 C-665.98857114 528.90912278 -665.73399731 526.80355175 -665.47998047 524.69775391 C-655.58371777 443.77308318 -629.49723096 364.26708438 -588 294 C-587.48308594 293.11747559 -586.96617187 292.23495117 -586.43359375 291.32568359 C-579.97246566 280.30816474 -573.26504964 269.50567261 -566 259 C-565.525625 258.31309082 -565.05125 257.62618164 -564.5625 256.91845703 C-555.5284802 243.88206062 -545.98026272 231.32855983 -536 219 C-535.28070312 218.10539063 -534.56140625 217.21078125 -533.8203125 216.2890625 C-529.46907604 210.91400569 -525.00217085 205.68628267 -520.3359375 200.58203125 C-518.42268302 198.46721317 -516.54283815 196.33163492 -514.671875 194.1796875 C-511.15151072 190.14827221 -507.53908458 186.21335431 -503.875 182.3125 C-503.22974365 181.62551025 -502.5844873 180.93852051 -501.91967773 180.23071289 C-493.95279484 171.78583653 -485.93820886 163.3167781 -477.078125 155.796875 C-474.91930939 153.93022992 -472.82481349 152.00139617 -470.73364258 150.05957031 C-465.63446803 145.32836083 -460.43862579 140.78742332 -455.015625 136.42578125 C-452.80357784 134.64640135 -450.60793161 132.85369447 -448.421875 131.04296875 C-426.0709178 112.58308036 -402.08918544 95.53950376 -376.921875 81.10449219 C-374.71163318 79.83427699 -372.51255605 78.54558569 -370.3125 77.2578125 C-337.62651483 58.23042579 -303.70079059 42.47260954 -268 30 C-267.04673828 29.65952637 -266.09347656 29.31905273 -265.11132812 28.96826172 C-224.70589003 14.5627837 -182.5819147 5.48194503 -140.05926514 0.25714111 C-138.12165401 0.01519098 -136.18598082 -0.24213695 -134.25048828 -0.50048828 C-90.85085213 -6.15876631 -43.37544352 -5.66662564 0 0 Z " fill="#F7931A" transform="translate(669,3)"/>
<path d="M0 0 C8.15010999 1.35297157 16.10862115 3.19344585 24.10546875 5.2578125 C25.3106868 5.56572723 26.51590485 5.87364197 27.75764465 6.19088745 C31.5685173 7.16536946 35.3780185 8.14509541 39.1875 9.125 C41.78691071 9.79114154 44.38661525 10.45613258 46.98632812 11.12109375 C53.32524592 12.7434088 59.66304919 14.37001962 66 16 C64.47210651 27.26486586 61.58585035 38.18483156 58.80859375 49.19140625 C58.29780333 51.22963634 57.78739819 53.26796302 57.27735901 55.30638123 C56.21355066 59.55401446 55.14672377 63.80087295 54.07739258 68.04711914 C52.70584089 73.49353369 51.33945346 78.94122635 49.97498989 84.38942051 C48.67118945 89.59466708 47.36505589 94.79932721 46.05859375 100.00390625 C45.80961271 100.99643465 45.56063168 101.98896305 45.30410576 103.01156807 C44.60172248 105.80954963 43.89770326 108.60711395 43.19311523 111.40454102 C42.8806208 112.65048538 42.8806208 112.65048538 42.56181335 113.92160034 C41.78904326 116.98388324 40.99914684 120.00255947 40 123 C41.14726563 123.08507812 42.29453125 123.17015625 43.4765625 123.2578125 C50.91055709 124.08639618 58.12947756 126.07647746 65.375 127.875 C66.83061084 128.23095298 68.2863394 128.5864249 69.7421875 128.94140625 C77.52630199 130.84727479 85.28341721 132.83455852 93 135 C93.0913623 133.81438477 93.18272461 132.62876953 93.27685547 131.40722656 C94.03793196 124.61717531 95.85704277 118.0837503 97.5703125 111.484375 C97.93384628 110.06470535 98.29677865 108.64488157 98.65914917 107.22491455 C99.6146045 103.48649707 100.57696038 99.74989338 101.54119873 96.01373291 C103.05908899 90.12800036 104.56722384 84.23975578 106.07476044 78.35136414 C106.44611377 76.90103252 106.81772031 75.45076572 107.18958282 74.00056458 C110.93965482 59.36850019 114.50665032 44.69539873 118 30 C125.17391957 30.68521748 131.98325077 32.35928578 138.9609375 34.125 C140.18785309 34.43195801 141.41476868 34.73891602 142.67886353 35.05517578 C145.25964394 35.70187606 147.83990241 36.35032117 150.41943359 37.00195312 C153.72699161 37.83738731 157.03608852 38.6665223 160.34575462 39.49356079 C163.50981018 40.28474302 166.67285953 41.07991991 169.8359375 41.875 C171.02545013 42.17293457 172.21496277 42.47086914 173.44052124 42.77783203 C174.53571075 43.05481934 175.63090027 43.33180664 176.75927734 43.6171875 C177.72554047 43.86065918 178.69180359 44.10413086 179.68734741 44.35498047 C182 45 182 45 184 46 C183.41008884 52.45752402 182.29339256 58.51188127 180.68334961 64.78662109 C180.44911789 65.71945923 180.21488617 66.65229736 179.97355652 67.61340332 C179.20521366 70.66813666 178.42870127 73.72073229 177.65234375 76.7734375 C177.11506899 78.90557555 176.57842187 81.03787185 176.04237366 83.1703186 C174.63516979 88.76316547 173.22150924 94.35435715 171.80584717 99.94506836 C169.53523962 108.91386442 167.27146806 117.88437404 165.01342964 126.85634232 C164.22332702 129.98979387 163.42861534 133.12205164 162.63352966 136.25424194 C162.15126181 138.16603212 161.66916132 140.07786453 161.18725586 141.98974609 C160.85298584 143.29886459 160.85298584 143.29886459 160.51196289 144.63442993 C160.31146835 145.43330627 160.11097382 146.23218262 159.90440369 147.05526733 C159.72871825 147.7487496 159.55303282 148.44223186 159.37202358 149.15672874 C158.90108065 151.17671081 158.90108065 151.17671081 159 154 C159.66193359 154.24532471 160.32386719 154.49064941 161.00585938 154.7434082 C209.95274386 172.98058617 260.7134494 196.1387516 284 246 C285.55611242 249.95048778 286.85559148 253.9128267 288 258 C288.21269531 258.71542969 288.42539062 259.43085938 288.64453125 260.16796875 C297.15390505 290.83844556 288.87688444 326.89617322 274.1640625 354.3125 C260.73272385 377.97546782 238.08277237 393.45204986 212.23144531 400.62988281 C210.49056918 401.09766647 208.74571426 401.55060821 207 402 C207.86782104 402.52001587 207.86782104 402.52001587 208.75317383 403.05053711 C219.38789637 409.45083923 229.74024166 415.68479895 239 424 C239.83273437 424.70253906 240.66546875 425.40507813 241.5234375 426.12890625 C261.3908427 443.21487472 274.59550362 466.71142457 277 493 C279.8478737 539.05041135 262.35604299 585.8613176 232.35522461 620.49072266 C229.50904153 623.66044051 226.29452236 626.31162485 223 629 C222.17113281 629.68964844 221.34226562 630.37929688 220.48828125 631.08984375 C198.97004952 648.16637632 173.83652394 655.42934377 147 659 C145.12634766 659.26369385 145.12634766 659.26369385 143.21484375 659.53271484 C138.89441253 660.06606386 134.61920441 660.17810891 130.26953125 660.203125 C129.44947098 660.21009399 128.62941071 660.21706299 127.78450012 660.22424316 C125.12711433 660.2416349 122.46994049 660.24797238 119.8125 660.25 C118.89950134 660.25100708 117.98650269 660.25201416 117.0458374 660.25305176 C100.85432509 660.24101898 85.05287094 659.22689527 69 657 C67.77958008 656.83419434 66.55916016 656.66838867 65.30175781 656.49755859 C54.45604378 655.00708219 43.66275506 653.50953963 33 651 C32.880233 652.12970215 32.760466 653.2594043 32.6370697 654.42333984 C32.04604477 659.12509347 30.97396242 663.63881585 29.80688477 668.2265625 C29.5856192 669.11220886 29.36435364 669.99785522 29.13638306 670.91033936 C28.40918413 673.81636531 27.67534286 676.72066909 26.94140625 679.625 C26.43154838 681.6569603 25.9221098 683.68902584 25.41307068 685.72119141 C24.07487362 691.05875168 22.73103451 696.39487558 21.38598633 701.73071289 C20.02151287 707.14774938 18.66233222 712.56611316 17.30273438 717.984375 C15.10451274 726.7421736 12.9031142 735.49916588 10.69734192 744.25506592 C9.45973722 749.16876473 8.22762612 754.08379817 7 759 C-0.67065879 758.36703655 -7.8910822 756.71009464 -15.34765625 754.83984375 C-16.60009628 754.53051407 -17.85253632 754.22118439 -19.14292908 753.90248108 C-22.44356624 753.08721613 -25.74245916 752.26510429 -29.04101562 751.44146729 C-32.41887943 750.59934707 -35.79837637 749.76383424 -39.17773438 748.92773438 C-45.78675309 747.29155427 -52.39394948 745.64812207 -59 744 C-57.50309324 734.16542157 -54.97569073 724.5815963 -52.52903366 714.95177078 C-51.76059878 711.92600923 -50.99715192 708.89902744 -50.23501587 705.87167358 C-48.06926323 697.27254344 -45.89469064 688.6756523 -43.71679688 680.07958984 C-42.38034563 674.80323696 -41.04961429 669.52546772 -39.72230911 664.2468071 C-39.21661123 662.24078104 -38.70864981 660.23532419 -38.1983757 658.23045731 C-37.48677531 655.43441433 -36.78240435 652.63664111 -36.07958984 649.83837891 C-35.86766495 649.01336884 -35.65574005 648.18835876 -35.43739319 647.33834839 C-34.4749826 643.4758939 -33.73194178 640.01671932 -34 636 C-43.57815886 633.25168824 -53.16512443 630.68120928 -62.875 628.4375 C-70.42946763 626.68759507 -77.70448102 624.64442763 -85 622 C-85.22879349 623.05646729 -85.45758698 624.11293457 -85.6933136 625.20141602 C-88.30656879 637.16851064 -91.1903217 649.05648704 -94.16796875 660.9375 C-94.65323844 662.87993001 -95.13836858 664.82239489 -95.62336731 666.76489258 C-96.62946761 670.7922124 -97.63723363 674.8191105 -98.64624023 678.84570312 C-99.94069277 684.01199879 -101.23083908 689.17935896 -102.51978588 694.34703064 C-103.51576652 698.33815755 -104.51397457 702.3287247 -105.5128727 706.31912231 C-105.99002491 708.22639697 -106.46647798 710.13384667 -106.94222069 712.04147339 C-107.60268365 714.68837992 -108.2661382 717.33451842 -108.93041992 719.98046875 C-109.12625671 720.76786438 -109.32209351 721.55526001 -109.52386475 722.36651611 C-110.8857226 727.77144519 -110.8857226 727.77144519 -112 730 C-119.18419024 729.31332853 -126.00719818 727.63885092 -132.99609375 725.875 C-134.22538101 725.56804199 -135.45466827 725.26108398 -136.72120667 724.94482422 C-139.30619343 724.29816402 -141.89064174 723.64970154 -144.47436523 722.99804688 C-147.79079315 722.16179529 -151.10902762 721.33298536 -154.42788601 720.50643921 C-157.59735757 719.7162213 -160.7654287 718.92043714 -163.93359375 718.125 C-165.12826767 717.82706543 -166.32294159 717.52913086 -167.55381775 717.22216797 C-169.19671532 716.80668701 -169.19671532 716.80668701 -170.87280273 716.3828125 C-171.84128647 716.13934082 -172.8097702 715.89586914 -173.80760193 715.64501953 C-176 715 -176 715 -177 714 C-176.4872189 707.95750561 -175.19548816 702.24000326 -173.69921875 696.37451172 C-173.46659332 695.44663849 -173.2339679 694.51876526 -172.99429321 693.56277466 C-172.22969821 690.51730319 -171.4585478 687.473531 -170.6875 684.4296875 C-170.1527581 682.30327231 -169.61850451 680.17673426 -169.0847168 678.05007935 C-167.68186029 672.46519295 -166.27376352 666.88164261 -164.86413574 661.29846191 C-162.60692789 652.35604147 -160.35608985 643.41202155 -158.10830688 634.46722794 C-157.3234017 631.34801089 -156.53527856 628.22961963 -155.74682617 625.11129761 C-155.26470185 623.19645901 -154.78268131 621.28159427 -154.30078125 619.36669922 C-154.08152985 618.50316833 -153.86227844 617.63963745 -153.63638306 616.74993896 C-152.57385987 612.51580128 -151.63791984 608.32426798 -151 604 C-152.15113281 603.88140625 -153.30226563 603.7628125 -154.48828125 603.640625 C-158.87170933 603.09041195 -162.96033648 602.00414484 -167.1875 600.75 C-174.75890053 598.57435591 -182.36719727 596.6601212 -190.03979492 594.87597656 C-195.14543184 593.68716781 -200.23561263 592.44733453 -205.32006836 591.1706543 C-211.57085825 589.60392589 -217.82552375 588.05378077 -224.08335781 586.51545238 C-230.01061311 585.0582348 -235.9359648 583.59340897 -241.86058712 582.12552452 C-245.82292641 581.14416684 -249.78600514 580.16600502 -253.75073242 579.19433594 C-257.62887017 578.2437421 -261.50497118 577.28523413 -265.37976265 576.32109451 C-266.849119 575.95698873 -268.31919713 575.595783 -269.78999138 575.23752975 C-271.82802514 574.74063501 -273.86329064 574.23366224 -275.89819336 573.72412109 C-277.05572617 573.43862396 -278.21325897 573.15312683 -279.40586853 572.85897827 C-280.26193192 572.57551544 -281.1179953 572.29205261 -282 572 C-282.33 571.34 -282.66 570.68 -283 570 C-282.12646484 567.49511719 -282.12646484 567.49511719 -280.7109375 564.296875 C-280.18765869 563.10320313 -279.66437988 561.90953125 -279.12524414 560.6796875 C-278.54190141 559.36975961 -277.95848478 558.05986462 -277.375 556.75 C-276.78229744 555.40400851 -276.1904304 554.05764882 -275.59936523 552.7109375 C-274.36327411 549.89634188 -273.12353367 547.0833951 -271.88134766 544.27148438 C-269.18573492 538.16145203 -266.53580591 532.03168234 -263.88531494 525.90197754 C-263.08852563 524.06015954 -262.29013928 522.21903268 -261.49169922 520.37792969 C-257.97200866 512.26148478 -254.47902139 504.13394118 -251 496 C-242.49612178 497.24080662 -234.33167142 499.11503146 -226.0625 501.4375 C-203.90488613 508.87471732 -203.90488613 508.87471732 -182.12890625 504.421875 C-175.3405327 499.88798881 -172.82780737 492.23377892 -170.97605896 484.61903381 C-170.79426891 483.89629459 -170.61247886 483.17355537 -170.42518002 482.42891496 C-169.82027675 480.01681433 -169.22547399 477.60233983 -168.63061523 475.18774414 C-168.19694051 473.4497122 -167.76263833 471.71183671 -167.32775879 469.97410583 C-166.14486755 465.23998642 -164.97069148 460.50374288 -163.79791903 455.7671082 C-162.55040779 450.7354683 -161.29455524 445.70591111 -160.03956604 440.6761322 C-157.64373677 431.06893918 -155.25487735 421.46002787 -152.86871439 411.85042995 C-149.96501497 400.15750173 -147.05431541 388.46631949 -144.14257812 376.77539062 C-143.88497979 375.74109743 -143.62738145 374.70680424 -143.3619771 373.64116883 C-142.32524963 369.47866977 -141.28848711 365.31617945 -140.25158906 361.15372288 C-138.96384911 355.98428472 -137.67638811 350.81477742 -136.38957977 345.64510727 C-129.58931213 318.32624838 -122.7485882 291.01815172 -115.82421875 263.73046875 C-115.63983458 263.00365253 -115.45545042 262.2768363 -115.26547885 261.52799535 C-110.64801593 243.32819985 -106.0221473 225.13017166 -101.25080872 206.96998596 C-98.29795892 195.61892148 -97.44522094 185.65192007 -103 175 C-110.64321232 163.33307734 -123.12949393 159.50011621 -136 156 C-136.68416992 155.81083008 -137.36833984 155.62166016 -138.07324219 155.42675781 C-150.95545542 151.8760013 -163.9552602 148.887219 -177 146 C-175.6499361 139.85439603 -174.24495571 133.72384511 -172.79296875 127.6015625 C-172.58569656 126.72712494 -172.37842438 125.85268738 -172.16487122 124.95175171 C-171.72740305 123.10788033 -171.28954629 121.26410111 -170.85131836 119.42041016 C-170.19758973 116.66748895 -169.54700854 113.91383615 -168.89648438 111.16015625 C-166.10567575 99.39151454 -163.13497391 87.68161991 -160 76 C-150.92423556 76.62252771 -142.28127358 79.02687051 -133.5 81.26171875 C-131.77927395 81.69487657 -130.05840509 82.12746742 -128.33740234 82.55952454 C-123.80838728 83.69794714 -119.28112737 84.84319527 -114.75427246 85.99017334 C-107.58551666 87.80515883 -100.414022 89.6093193 -93.24289131 91.4148941 C-91.49921858 91.85404389 -89.75561059 92.29345078 -88.01206779 92.73311615 C-75.74549741 95.82612278 -63.46670231 98.85387868 -51.15649414 101.76928711 C-42.75054914 103.76265925 -34.3759949 105.8849443 -26 108 C-25.88245361 106.71684906 -25.76490723 105.43369812 -25.64379883 104.11166382 C-25.07455522 99.02179709 -23.96207223 94.17030071 -22.69921875 89.21337891 C-22.46659332 88.28054077 -22.2339679 87.34770264 -21.99429321 86.38659668 C-21.23099697 83.33180872 -20.45936824 80.27919472 -19.6875 77.2265625 C-19.1527579 75.09438938 -18.61850431 72.96209369 -18.0847168 70.8296814 C-16.68314379 65.23675935 -15.27431429 59.64568911 -13.86413574 54.05493164 C-12.71179751 49.48106534 -11.56474921 44.9058803 -10.41795349 40.33062172 C-9.05130719 34.87880674 -7.68220345 29.42761011 -6.3125 23.9765625 C-6.05093109 22.93519764 -5.78936218 21.89383278 -5.51986694 20.82091141 C-4.78149968 17.88368913 -4.04145105 14.94689629 -3.30078125 12.01025391 C-3.08152985 11.13750824 -2.86227844 10.26476257 -2.63638306 9.36557007 C-2.43451385 8.56669373 -2.23264465 7.76781738 -2.0246582 6.94473267 C-1.84989456 6.2512504 -1.67513092 5.55776814 -1.49507141 4.84327126 C-1.05680767 3.21150878 -0.53429616 1.60288849 0 0 Z " fill="#FEFEFE" transform="translate(575,209)"/>
<path d="M0 0 C1.24893539 0.15013046 2.49787079 0.30026093 3.78465271 0.4549408 C4.48717887 0.53938918 5.18970503 0.62383757 5.91351986 0.71084499 C8.96434005 1.13364314 11.91925534 1.83654297 14.91015625 2.56640625 C15.54668121 2.72054993 16.18320618 2.8746936 16.83901978 3.0335083 C18.91482921 3.53795629 20.98879157 4.04948764 23.0625 4.5625 C23.78386139 4.74017914 24.50522278 4.91785828 25.2484436 5.10092163 C29.01799572 6.02957245 32.78630678 6.96306647 36.55371094 7.90039062 C40.0523002 8.76901896 43.55557162 9.61610343 47.06144714 10.45475769 C85.97647959 19.79415802 136.23156534 34.04087657 159.6875 69.25 C168.67874455 84.00222505 171.51206323 99.38191478 167.9230957 116.34106445 C163.78401459 133.14502624 155.74324446 145.70740304 141 155 C132.10740791 159.91521926 122.8960306 162.82871902 113 165 C111.98421875 165.226875 110.9684375 165.45375 109.921875 165.6875 C68.49371681 173.18204118 21.60124 161.45226999 -18.06542969 149.84594727 C-21.48457355 148.8603122 -24.90191604 148.02179644 -28.375 147.25 C-29.99535156 146.88648438 -29.99535156 146.88648438 -31.6484375 146.515625 C-32.42445313 146.34546875 -33.20046875 146.1753125 -34 146 C-35.13026128 142.61053108 -34.85202873 140.35372112 -34.02877808 136.90322876 C-33.79074022 135.8874645 -33.55270237 134.87170025 -33.30745125 133.82515526 C-33.03954214 132.72608156 -32.77163303 131.62700787 -32.49560547 130.49462891 C-32.22137693 129.34042261 -31.9471484 128.18621632 -31.66460991 126.99703407 C-30.78831908 123.32836061 -29.89672948 119.66372778 -29 116 C-28.72258217 114.86397087 -28.44516434 113.72794174 -28.1593399 112.55748749 C-26.15917485 104.39287266 -24.11748344 96.23886957 -22.0703125 88.0859375 C-21.42849242 85.52240092 -20.78686177 82.95881765 -20.14547729 80.39517212 C-18.6494892 74.41734369 -17.15111193 68.44011706 -15.6517905 62.46312392 C-13.9399637 55.6384654 -12.2309306 48.8131082 -10.52208734 41.98770213 C-7.01774879 27.99104317 -3.51004727 13.99522843 0 0 Z " fill="#F7931A" transform="translate(547,607)"/>
<path d="M0 0 C13.03659914 2.84926892 26.04519599 5.79776228 39 9 C40.02722168 9.25120605 41.05444336 9.50241211 42.11279297 9.76123047 C57.67504022 13.6064642 72.39998594 18.36150591 87 25 C87.75522949 25.3417627 88.51045898 25.68352539 89.28857422 26.03564453 C107.94988756 34.60636663 125.2442143 46.41237488 135 65 C135.43183594 65.77859375 135.86367188 66.5571875 136.30859375 67.359375 C142.20250894 80.16691389 139.9652054 97.3158835 135.95703125 110.40625 C133.27783927 117.64829796 130.19630217 123.28743455 125 129 C124.45472656 129.62519531 123.90945313 130.25039063 123.34765625 130.89453125 C112.23009111 142.9015016 94.97911655 148.45785559 78.94702148 149.23681641 C74.1941021 149.4052913 69.44306959 149.43979245 64.6875 149.4375 C63.39969635 149.43810425 63.39969635 149.43810425 62.08587646 149.4387207 C29.59419785 149.35148866 -1.96336169 141.04062345 -33 132 C-29.67634559 117.60593476 -26.1056351 103.2758908 -22.51953125 88.9453125 C-21.89980833 86.4657459 -21.28015522 83.98616185 -20.66056824 81.50656128 C-19.37123652 76.34777018 -18.08108867 71.18918418 -16.7902832 66.03076172 C-15.29939332 60.07268165 -13.81022452 54.11417331 -12.32191163 48.15544903 C-10.88241583 42.39238598 -9.44160028 36.62965349 -8.00021935 30.86706161 C-7.38944634 28.42463698 -6.77902327 25.9821248 -6.16895485 23.53952408 C-5.32055976 20.14341422 -4.47066547 16.74768308 -3.62036133 13.35205078 C-3.3684201 12.34226166 -3.11647888 11.33247253 -2.85690308 10.29208374 C-2.62571274 9.37014221 -2.3945224 8.44820068 -2.15632629 7.49832153 C-1.95596173 6.69724031 -1.75559717 5.8961591 -1.54916096 5.07080269 C-1.09612302 3.36246532 -0.55889712 1.67669137 0 0 Z " fill="#F7931A" transform="translate(597,409)"/>
</svg>
