<svg width="37" height="46" viewBox="0 0 37 46" fill="none" xmlns="http://www.w3.org/2000/svg">
<path d="M45.3163 28.551C42.2472 40.8649 29.7753 48.3843 17.4388 45.3133C5.12485 42.2348 -2.38237 29.7629 0.686712 17.449C3.7558 5.13505 16.2202 -2.38426 28.5266 0.686691C40.8707 3.72001 48.3779 16.2296 45.3163 28.551Z" fill="#000008"/>
<path d="M38.5046 16.3594L13.9925 28.8466L11.8483 29.9188L7.45459 32.1682V34.859L11.8272 32.6307L15.5692 30.7176L33.6484 21.5099C34.4263 27.3961 30.2849 32.7988 24.3986 33.5767C23.9361 33.6397 23.4526 33.6818 22.9691 33.6818C21.1401 33.6818 19.3322 33.1983 17.7135 32.2943L17.5874 32.3784L15.2749 33.5346C21.1401 37.8022 29.3599 36.4988 33.6274 30.6125C35.2461 28.3842 36.1291 25.6933 36.1291 22.9184C36.1291 22.582 36.1291 22.2456 36.087 21.9093C36.024 20.9423 36.5285 20.0383 37.3904 19.5968L38.5046 19.0082V16.3594ZM34.1319 13.2271L30.39 15.1191L12.3318 24.3268C11.5539 18.4406 15.7164 13.0379 21.6026 12.26C23.8941 11.9657 26.2275 12.4072 28.2457 13.5424L30.39 12.4492L30.7053 12.2811C24.8401 8.01353 16.6203 9.33793 12.3528 15.2032C10.7131 17.4526 9.85114 20.1434 9.85114 22.9184C9.85114 23.2547 9.85114 23.5911 9.87216 23.9274C9.95625 24.8734 9.45171 25.7984 8.5898 26.2399L7.45459 26.8075V29.4983L10.7761 27.7955L11.8483 27.249L12.9204 26.7234L31.9456 17.0111L34.0899 15.9179L38.5046 13.6685V10.9777L34.1319 13.2271Z" fill="white"/>
</svg>
