<svg width="33" height="32" viewBox="0 0 33 32" fill="none" xmlns="http://www.w3.org/2000/svg">
<g clip-path="url(#clip0_144_633)">
<path d="M5.42268 17.5006C4.89 15.262 5.00437 12.9091 5.75136 10.7382C6.49836 8.56733 7.84459 6.67556 9.62046 5.30118C11.3964 3.92681 13.5224 3.13132 15.731 3.0149C17.9395 2.89848 20.1317 3.46634 22.0314 4.64696C23.931 5.82758 25.4532 7.56814 26.4063 9.64942C27.3593 11.7307 27.7005 14.0596 27.387 16.3427C27.0734 18.626 26.1191 20.7612 24.6441 22.4797C23.1692 24.1982 21.2397 25.4231 19.0987 26" stroke="#87AEDB" stroke-width="2" stroke-linecap="round" stroke-linejoin="round"/>
<path d="M17.6058 25H14.9867C14.0225 25 13.2407 25.8955 13.2407 27.0001C13.2407 28.1045 14.0225 29 14.9867 29H17.6058C18.5701 29 19.3518 28.1045 19.3518 27.0001C19.3518 25.8955 18.5701 25 17.6058 25Z" stroke="#87AEDB" stroke-width="2" stroke-linecap="round" stroke-linejoin="round"/>
<path d="M14.2593 11.8753C14.2592 11.553 14.3494 11.2361 14.5212 10.9551C14.693 10.6743 14.9406 10.4389 15.24 10.2717C15.5395 10.1046 15.8808 10.0113 16.2308 10.001C16.5809 9.9906 16.9279 10.0635 17.2385 10.2126C17.549 10.3616 17.8125 10.5819 18.0035 10.852C18.1946 11.1222 18.3067 11.4332 18.3292 11.7548C18.3516 12.0765 18.2835 12.3981 18.1316 12.6884C17.9795 12.9789 17.7488 13.2283 17.4615 13.4127C17.1315 13.6264 16.2393 14.0427 16.2963 16" stroke="white" stroke-width="2" stroke-linecap="round" stroke-linejoin="round"/>
<path d="M16.2964 20C16.8589 20 17.3149 19.5523 17.3149 19C17.3149 18.4477 16.8589 18 16.2964 18C15.7338 18 15.2778 18.4477 15.2778 19C15.2778 19.5523 15.7338 20 16.2964 20Z" fill="white"/>
<path d="M29.7633 10C30.2435 10 30.7041 10.1873 31.0437 10.5207C31.3833 10.8541 31.5741 11.3063 31.5741 11.7777V16.2223C31.5741 17.2045 30.99 18 29.9896 18H27.5" stroke="#87AEDB" stroke-width="2" stroke-linecap="round" stroke-linejoin="round"/>
<path d="M2.82925 10C2.34902 10 1.88846 10.1873 1.5489 10.5207C1.20932 10.8541 1.01855 11.3063 1.01855 11.7777V16.2223C1.01855 17.2045 2.05517 18 3.05559 18H5.09263" stroke="#87AEDB" stroke-width="2" stroke-linecap="round" stroke-linejoin="round"/>
</g>
<defs>
<clipPath id="clip0_144_633">
<rect width="32.5926" height="32" fill="white"/>
</clipPath>
</defs>
</svg>
