<svg width="33" height="32" viewBox="0 0 33 32" fill="none" xmlns="http://www.w3.org/2000/svg">
<g clip-path="url(#clip0_144_559)">
<path d="M14.4371 16.8701L6.05713 25.8689" stroke="#87AEDB" stroke-width="2" stroke-linecap="round" stroke-linejoin="round"/>
<path d="M10.2402 23.0391L17.2119 30.1196" stroke="#87AEDB" stroke-width="2" stroke-linecap="round" stroke-linejoin="round"/>
<path d="M12.5645 19.2588L21.8601 28.7042" stroke="#87AEDB" stroke-width="2" stroke-linecap="round" stroke-linejoin="round"/>
<path d="M16.7471 17.3735L25.1131 25.8692" stroke="#87AEDB" stroke-width="2" stroke-linecap="round" stroke-linejoin="round"/>
<path d="M22.7896 17.3735L28.3669 23.0389" stroke="#87AEDB" stroke-width="2" stroke-linecap="round" stroke-linejoin="round"/>
<path d="M14.437 1.43994V15.4553C14.4342 15.9633 14.6265 16.4526 14.9733 16.8202C15.32 17.1876 15.7943 17.4046 16.2962 17.4252H30.2395" stroke="#87AEDB" stroke-width="2" stroke-linecap="round" stroke-linejoin="round"/>
<path d="M18.1558 1.43994V13.664H30.2399" stroke="white" stroke-width="2" stroke-linecap="round" stroke-linejoin="round"/>
<path d="M3.83095 22.8505C2.82897 21.1621 2.16859 19.2891 1.88818 17.3403" stroke="#87AEDB" stroke-width="2" stroke-linecap="round" stroke-linejoin="round"/>
<path d="M30.7047 17.4253C30.2278 20.9465 28.505 24.1733 25.8556 26.5076C23.2062 28.8418 19.8099 30.1251 16.2965 30.1195C12.6042 30.1223 9.05306 28.6841 6.38281 26.1044" stroke="#87AEDB" stroke-width="2" stroke-linecap="round" stroke-linejoin="round"/>
<path d="M18.1558 0.969727C20.8257 1.32905 23.3431 2.43658 25.4235 4.16718C27.5039 5.89778 29.0644 8.18247 29.9286 10.7631C30.2788 11.6752 30.5387 12.6201 30.7048 13.584" stroke="white" stroke-width="2" stroke-linecap="round" stroke-linejoin="round"/>
<path d="M1.88818 13.5652C2.31849 10.3615 3.7814 7.39096 6.05019 5.11378C8.31898 2.83659 11.267 1.37999 14.4372 0.969727" stroke="#87AEDB" stroke-width="2" stroke-linecap="round" stroke-linejoin="round"/>
</g>
<defs>
<clipPath id="clip0_144_559">
<rect width="32.5926" height="32" fill="white"/>
</clipPath>
</defs>
</svg>
