<svg width="135" height="89" viewBox="0 0 135 89" fill="none" xmlns="http://www.w3.org/2000/svg">
<path d="M93.0768 6H91.7328V1.84L90.6768 2.656L89.9808 1.704L91.8448 0.336H93.0768V6ZM101.257 1.408L99.0886 6H97.5286L99.8246 1.488H97.1446V0.336H101.257V1.408ZM105.421 6H104.077V1.84L103.021 2.656L102.325 1.704L104.189 0.336H105.421V6ZM111.64 4.128C111.64 5.504 110.568 6.152 109.456 6.152C108.424 6.152 107.568 5.608 107.304 4.712L108.528 4.336C108.648 4.728 109 5.016 109.44 5.016C109.896 5.016 110.288 4.736 110.288 4.192C110.288 3.52 109.68 3.328 109.128 3.328C108.728 3.328 108.144 3.432 107.744 3.576L107.88 0.336H111.352V1.488H109.072L109.024 2.384C109.192 2.344 109.424 2.328 109.592 2.328C110.728 2.328 111.64 2.936 111.64 4.128ZM118.868 4.384C118.868 5.576 117.86 6.152 116.74 6.152C115.62 6.152 114.612 5.584 114.612 4.392C114.612 3.704 115.076 3.216 115.628 3.04V3.024C115.14 2.84 114.764 2.424 114.764 1.8C114.764 0.752 115.692 0.184 116.74 0.184C117.78 0.184 118.716 0.728 118.716 1.776C118.716 2.4 118.356 2.848 117.852 3.016V3.04C118.42 3.2 118.868 3.72 118.868 4.384ZM117.42 1.872C117.42 1.504 117.116 1.224 116.74 1.224C116.34 1.224 116.068 1.504 116.068 1.872C116.068 2.232 116.324 2.544 116.74 2.544C117.132 2.544 117.42 2.232 117.42 1.872ZM117.524 4.336C117.524 3.904 117.196 3.568 116.74 3.568C116.276 3.568 115.948 3.896 115.948 4.336C115.948 4.792 116.276 5.088 116.74 5.088C117.204 5.088 117.524 4.792 117.524 4.336ZM123.984 4.128C123.984 5.504 122.912 6.152 121.8 6.152C120.768 6.152 119.912 5.608 119.648 4.712L120.872 4.336C120.992 4.728 121.344 5.016 121.784 5.016C122.24 5.016 122.632 4.736 122.632 4.192C122.632 3.52 122.024 3.328 121.472 3.328C121.072 3.328 120.488 3.432 120.088 3.576L120.224 0.336H123.696V1.488H121.416L121.368 2.384C121.536 2.344 121.768 2.328 121.936 2.328C123.072 2.328 123.984 2.936 123.984 4.128ZM129.3 3.152C129.3 4.76 128.692 6.152 127.092 6.152C125.484 6.152 124.868 4.76 124.868 3.152C124.868 1.552 125.484 0.184 127.092 0.184C128.692 0.184 129.3 1.552 129.3 3.152ZM127.924 3.152C127.924 2.44 127.796 1.32 127.092 1.32C126.38 1.32 126.244 2.44 126.244 3.152C126.244 3.88 126.38 5 127.092 5C127.796 5 127.924 3.88 127.924 3.152ZM134.56 4.08H132.864V5.752H131.824V4.08H130.12V3.072H131.816V1.4H132.856V3.072H134.56V4.08Z" fill="#6CFF87"/>
<path d="M6.488 3.144C6.488 4.936 5.176 6.152 3.4 6.152C1.632 6.152 0.32 4.936 0.32 3.144C0.32 1.328 1.632 0.184 3.4 0.184C5.176 0.184 6.488 1.328 6.488 3.144ZM5.024 3.144C5.024 2.152 4.36 1.416 3.4 1.416C2.44 1.416 1.784 2.152 1.784 3.144C1.784 4.168 2.448 4.904 3.4 4.904C4.352 4.904 5.024 4.168 5.024 3.144ZM12.2869 0.336L10.1029 6H8.73494L6.59094 0.336H8.12694L9.43894 4.352H9.47094L10.7749 0.336H12.2869ZM17.8659 6H16.3459L15.9059 4.888H13.7139L13.2979 6H11.8099L14.1859 0.336H15.5139L17.8659 6ZM15.5299 3.792L14.8259 1.848L14.1059 3.792H15.5299ZM23.438 6H21.75L20.51 4L19.318 6H17.686L19.67 3.008L17.846 0.336H19.494L20.55 2.096L21.59 0.336H23.182L21.39 3.008L23.438 6ZM30.8973 5.656C30.3453 5.944 29.5853 6.144 28.7133 6.144C26.9053 6.144 25.6013 4.944 25.6013 3.16C25.6013 1.344 26.9453 0.184 28.6733 0.184C29.5613 0.184 30.3853 0.48 30.8573 0.936L29.9933 1.92C29.7293 1.616 29.2733 1.392 28.7213 1.392C27.7613 1.392 27.0573 2.144 27.0573 3.16C27.0573 4.2 27.6733 4.944 28.7853 4.944C29.1053 4.944 29.4013 4.896 29.6413 4.792V3.76H28.5613V2.656H30.8973V5.656ZM35.5817 6H32.0137V0.336H33.3897V4.808H35.5817V6ZM41.8864 3.144C41.8864 4.936 40.5744 6.152 38.7984 6.152C37.0304 6.152 35.7184 4.936 35.7184 3.144C35.7184 1.328 37.0304 0.184 38.7984 0.184C40.5744 0.184 41.8864 1.328 41.8864 3.144ZM40.4224 3.144C40.4224 2.152 39.7584 1.416 38.7984 1.416C37.8384 1.416 37.1824 2.152 37.1824 3.144C37.1824 4.168 37.8464 4.904 38.7984 4.904C39.7504 4.904 40.4224 4.168 40.4224 3.144ZM47.2031 4.352C47.2031 5.584 46.1231 6 45.0431 6H42.7871V0.336H45.0431C45.9231 0.336 46.9711 0.648 46.9711 1.792C46.9711 2.416 46.5951 2.832 46.0431 3.016V3.032C46.6911 3.144 47.2031 3.608 47.2031 4.352ZM45.6511 1.976C45.6511 1.592 45.3551 1.424 44.7791 1.424H44.1071V2.592H44.8431C45.3551 2.592 45.6511 2.376 45.6511 1.976ZM45.8351 4.224C45.8351 3.752 45.4511 3.6 44.8671 3.6H44.1071V4.896H44.8751C45.3071 4.896 45.8351 4.776 45.8351 4.224ZM53.4674 6H51.9474L51.5074 4.888H49.3154L48.8994 6H47.4114L49.7874 0.336H51.1154L53.4674 6ZM51.1314 3.792L50.4274 1.848L49.7074 3.792H51.1314ZM57.5036 6H53.9356V0.336H55.3116V4.808H57.5036V6Z" fill="white" fill-opacity="0.4"/>
<path d="M6.488 85.144C6.488 86.936 5.176 88.152 3.4 88.152C1.632 88.152 0.32 86.936 0.32 85.144C0.32 83.328 1.632 82.184 3.4 82.184C5.176 82.184 6.488 83.328 6.488 85.144ZM5.024 85.144C5.024 84.152 4.36 83.416 3.4 83.416C2.44 83.416 1.784 84.152 1.784 85.144C1.784 86.168 2.448 86.904 3.4 86.904C4.352 86.904 5.024 86.168 5.024 85.144ZM11.1705 83.504H9.5705V88H8.2025V83.504H6.6025V82.336H11.1705V83.504ZM16.7389 88H15.3709V85.632H13.1629V88H11.7949V82.336H13.1629V84.48H15.3709V82.336H16.7389V88ZM21.8563 88H17.9043V82.336H21.7123V83.496H19.2243V84.56H21.5763V85.656H19.2243V86.832H21.8563V88ZM27.3957 88H25.7957L24.5717 85.752H24.1077V88H22.7637V82.336H24.9237C26.0117 82.336 27.0917 82.752 27.0917 84.048C27.0917 84.808 26.6437 85.352 25.9157 85.576L27.3957 88ZM25.7397 84.072C25.7397 83.544 25.2357 83.44 24.8277 83.44H24.0997V84.76H24.7477C25.1877 84.76 25.7397 84.648 25.7397 84.072ZM35.0524 87.216C34.5564 87.792 33.8044 88.152 32.8524 88.152C31.1084 88.152 29.8044 86.936 29.8044 85.16C29.8044 83.344 31.1484 82.184 32.8764 82.184C33.6684 82.184 34.5244 82.472 34.9964 83.016L34.0684 83.944C33.8124 83.592 33.3564 83.424 32.9244 83.424C31.9724 83.424 31.2924 84.16 31.2924 85.16C31.2924 86.192 31.9564 86.896 32.9004 86.896C33.4364 86.896 33.8604 86.656 34.1004 86.32L35.0524 87.216ZM41.4489 85.144C41.4489 86.936 40.1369 88.152 38.3609 88.152C36.5929 88.152 35.2809 86.936 35.2809 85.144C35.2809 83.328 36.5929 82.184 38.3609 82.184C40.1369 82.184 41.4489 83.328 41.4489 85.144ZM39.9849 85.144C39.9849 84.152 39.3209 83.416 38.3609 83.416C37.4009 83.416 36.7449 84.152 36.7449 85.144C36.7449 86.168 37.4089 86.904 38.3609 86.904C39.3129 86.904 39.9849 86.168 39.9849 85.144ZM48.8216 88H47.4856L47.5176 83.992H47.4936L46.0216 88H45.0616L43.6296 83.992H43.6056L43.6376 88H42.3496V82.336H44.2936L45.5816 85.968H45.6136L46.8456 82.336H48.8216V88ZM54.2863 84.08C54.2863 85.392 53.2223 85.864 52.0383 85.864H51.3583V88H49.9903V82.336H52.0703C53.3103 82.336 54.2863 82.784 54.2863 84.08ZM52.9183 84.088C52.9183 83.544 52.4463 83.44 51.9583 83.44H51.3583V84.776H51.9343C52.4463 84.776 52.9183 84.624 52.9183 84.088ZM59.9909 88H58.4709L58.0309 86.888H55.8389L55.4229 88H53.9349L56.3109 82.336H57.6389L59.9909 88ZM57.6549 85.792L56.9509 83.848L56.2309 85.792H57.6549ZM65.611 88H64.059L61.779 84.296H61.755L61.787 88H60.459V82.336H62.019L64.291 86.032H64.315L64.283 82.336H65.611V88ZM71.7073 82.336L69.5313 85.6V88H68.1633V85.6L66.0353 82.336H67.6913L68.8993 84.432L70.1073 82.336H71.7073Z" fill="white" fill-opacity="0.4"/>
<path d="M101.385 85.704V85.72C101.145 86.128 100.833 86.52 100.273 86.52C99.9366 86.52 99.7046 86.424 99.3766 86.216C99.0566 86.016 98.8166 85.912 98.5206 85.912C98.2086 85.912 98.0086 86.144 97.8486 86.472L97.3206 85.64C97.5686 85.16 97.9206 84.848 98.4166 84.848C98.7606 84.848 99.0566 84.952 99.3766 85.144C99.7366 85.352 99.9846 85.464 100.169 85.464C100.465 85.464 100.673 85.184 100.865 84.896L101.385 85.704ZM106.585 83.408L104.417 88H102.857L105.153 83.488H102.473V82.336H106.585V83.408ZM111.797 86.128C111.797 87.504 110.725 88.152 109.613 88.152C108.581 88.152 107.725 87.608 107.461 86.712L108.685 86.336C108.805 86.728 109.157 87.016 109.597 87.016C110.053 87.016 110.445 86.736 110.445 86.192C110.445 85.52 109.837 85.328 109.285 85.328C108.885 85.328 108.301 85.432 107.901 85.576L108.037 82.336H111.509V83.488H109.229L109.181 84.384C109.349 84.344 109.581 84.328 109.749 84.328C110.885 84.328 111.797 84.936 111.797 86.128ZM116.969 86.128C116.969 87.504 115.897 88.152 114.785 88.152C113.753 88.152 112.897 87.608 112.633 86.712L113.857 86.336C113.977 86.728 114.329 87.016 114.769 87.016C115.225 87.016 115.617 86.736 115.617 86.192C115.617 85.52 115.009 85.328 114.457 85.328C114.057 85.328 113.473 85.432 113.073 85.576L113.209 82.336H116.681V83.488H114.401L114.353 84.384C114.521 84.344 114.753 84.328 114.921 84.328C116.057 84.328 116.969 84.936 116.969 86.128ZM124.284 85.152C124.284 86.76 123.676 88.152 122.076 88.152C120.468 88.152 119.852 86.76 119.852 85.152C119.852 83.552 120.468 82.184 122.076 82.184C123.676 82.184 124.284 83.552 124.284 85.152ZM122.908 85.152C122.908 84.44 122.78 83.32 122.076 83.32C121.364 83.32 121.228 84.44 121.228 85.152C121.228 85.88 121.364 87 122.076 87C122.78 87 122.908 85.88 122.908 85.152ZM129.456 85.152C129.456 86.76 128.848 88.152 127.248 88.152C125.64 88.152 125.024 86.76 125.024 85.152C125.024 83.552 125.64 82.184 127.248 82.184C128.848 82.184 129.456 83.552 129.456 85.152ZM128.08 85.152C128.08 84.44 127.952 83.32 127.248 83.32C126.536 83.32 126.4 84.44 126.4 85.152C126.4 85.88 126.536 87 127.248 87C127.952 87 128.08 85.88 128.08 85.152ZM134.628 85.152C134.628 86.76 134.02 88.152 132.42 88.152C130.812 88.152 130.196 86.76 130.196 85.152C130.196 83.552 130.812 82.184 132.42 82.184C134.02 82.184 134.628 83.552 134.628 85.152ZM133.252 85.152C133.252 84.44 133.124 83.32 132.42 83.32C131.708 83.32 131.572 84.44 131.572 85.152C131.572 85.88 131.708 87 132.42 87C133.124 87 133.252 85.88 133.252 85.152Z" fill="#FF6C6C"/>
<g clip-path="url(#clip0_68_6066)">
<mask id="path-7-inside-1_68_6066" fill="white">
<path d="M6 7H129V44H6V7Z"/>
</mask>
<path d="M6 44.5H8.5625V43.5H6V44.5ZM13.6875 44.5H18.8125V43.5H13.6875V44.5ZM23.9375 44.5H29.0625V43.5H23.9375V44.5ZM34.1875 44.5H39.3125V43.5H34.1875V44.5ZM44.4375 44.5H49.5625V43.5H44.4375V44.5ZM54.6875 44.5H59.8125V43.5H54.6875V44.5ZM64.9375 44.5H70.0625V43.5H64.9375V44.5ZM75.1875 44.5H80.3125V43.5H75.1875V44.5ZM85.4375 44.5H90.5625V43.5H85.4375V44.5ZM95.6875 44.5H100.812V43.5H95.6875V44.5ZM105.938 44.5H111.062V43.5H105.938V44.5ZM116.188 44.5H121.312V43.5H116.188V44.5ZM126.438 44.5H129V43.5H126.438V44.5ZM6 45H8.5625V43H6V45ZM13.6875 45H18.8125V43H13.6875V45ZM23.9375 45H29.0625V43H23.9375V45ZM34.1875 45H39.3125V43H34.1875V45ZM44.4375 45H49.5625V43H44.4375V45ZM54.6875 45H59.8125V43H54.6875V45ZM64.9375 45H70.0625V43H64.9375V45ZM75.1875 45H80.3125V43H75.1875V45ZM85.4375 45H90.5625V43H85.4375V45ZM95.6875 45H100.812V43H95.6875V45ZM105.938 45H111.062V43H105.938V45ZM116.188 45H121.312V43H116.188V45ZM126.438 45H129V43H126.438V45Z" fill="white" fill-opacity="0.2" mask="url(#path-7-inside-1_68_6066)"/>
<g clip-path="url(#clip1_68_6066)">
<path d="M0.473145 46.5556L10.0484 36.8056L20.7285 31.75L25.1479 36.8056L32.1452 34.6389L40.6156 36.8056L43.9301 41.1389L51.2957 34.6389L59.0296 31.75L63.8172 34.6389L70.078 31.75L75.6022 29.5834L81.4947 31.75L86.6506 34.6389L91.0699 29.5834L98.4355 25.25L105.433 29.5834L110.22 25.25H120.532L127.53 23.0834L135.263 25.25" stroke="#6CFF87" stroke-width="1.5" stroke-linecap="square"/>
</g>
<g clip-path="url(#clip2_68_6066)">
<path d="M-0.267578 67.875L5.22707 61.875H10.7217L15.8501 58.125L24.2752 55.125L27.9383 57.375L33.7993 55.125L40.7592 57.375L46.9864 55.125L51.0158 60.375L56.1442 55.125H62.3715H69.3314L74.826 53.625L81.4196 51.375L92.4089 49.5H97.5372L102.666 53.625L107.794 49.5L114.021 46.125H119.15L123.912 51.375L127.941 49.5L130.505 55.125L135.267 46.125" stroke="#FF6C6C" stroke-width="1.5" stroke-linecap="round"/>
</g>
</g>
<rect x="0.5" y="14.5" width="134" height="59" rx="7.5" stroke="white" stroke-opacity="0.2" stroke-dasharray="5 5"/>
<defs>
<clipPath id="clip0_68_6066">
<rect y="14" width="135" height="60" rx="8" fill="white"/>
</clipPath>
<clipPath id="clip1_68_6066">
<rect width="137" height="26" fill="white" transform="translate(-1 22)"/>
</clipPath>
<clipPath id="clip2_68_6066">
<rect width="137" height="24" fill="white" transform="translate(-1 45)"/>
</clipPath>
</defs>
</svg>
