<svg width="135" height="89" viewBox="0 0 135 89" fill="none" xmlns="http://www.w3.org/2000/svg">
<path d="M124.224 4.896H123.448V6H122.192V4.896H119.528V3.768L121.832 0.336H123.44V3.808H124.224V4.896ZM122.2 3.808V1.712H122.176L120.832 3.808H122.2ZM129.316 2.208C129.316 2.88 129.06 3.4 128.684 3.96L127.316 6H125.692L127.1 4.048L127.116 4.024C127.004 4.064 126.844 4.088 126.716 4.088C125.724 4.088 124.852 3.344 124.852 2.24C124.852 0.952 125.86 0.184 127.084 0.184C128.324 0.184 129.316 0.968 129.316 2.208ZM127.972 2.192C127.972 1.704 127.628 1.288 127.092 1.288C126.556 1.288 126.196 1.664 126.196 2.2C126.196 2.712 126.548 3.088 127.076 3.088C127.604 3.088 127.972 2.72 127.972 2.192ZM134.56 4.08H132.864V5.752H131.824V4.08H130.12V3.072H131.816V1.4H132.856V3.072H134.56V4.08Z" fill="#6CFF87"/>
<path d="M6.488 3.144C6.488 4.936 5.176 6.152 3.4 6.152C1.632 6.152 0.32 4.936 0.32 3.144C0.32 1.328 1.632 0.184 3.4 0.184C5.176 0.184 6.488 1.328 6.488 3.144ZM5.024 3.144C5.024 2.152 4.36 1.416 3.4 1.416C2.44 1.416 1.784 2.152 1.784 3.144C1.784 4.168 2.448 4.904 3.4 4.904C4.352 4.904 5.024 4.168 5.024 3.144ZM12.2869 0.336L10.1029 6H8.73494L6.59094 0.336H8.12694L9.43894 4.352H9.47094L10.7749 0.336H12.2869ZM17.8659 6H16.3459L15.9059 4.888H13.7139L13.2979 6H11.8099L14.1859 0.336H15.5139L17.8659 6ZM15.5299 3.792L14.8259 1.848L14.1059 3.792H15.5299ZM23.438 6H21.75L20.51 4L19.318 6H17.686L19.67 3.008L17.846 0.336H19.494L20.55 2.096L21.59 0.336H23.182L21.39 3.008L23.438 6ZM30.8973 5.656C30.3453 5.944 29.5853 6.144 28.7133 6.144C26.9053 6.144 25.6013 4.944 25.6013 3.16C25.6013 1.344 26.9453 0.184 28.6733 0.184C29.5613 0.184 30.3853 0.48 30.8573 0.936L29.9933 1.92C29.7293 1.616 29.2733 1.392 28.7213 1.392C27.7613 1.392 27.0573 2.144 27.0573 3.16C27.0573 4.2 27.6733 4.944 28.7853 4.944C29.1053 4.944 29.4013 4.896 29.6413 4.792V3.76H28.5613V2.656H30.8973V5.656ZM35.5817 6H32.0137V0.336H33.3897V4.808H35.5817V6ZM41.8864 3.144C41.8864 4.936 40.5744 6.152 38.7984 6.152C37.0304 6.152 35.7184 4.936 35.7184 3.144C35.7184 1.328 37.0304 0.184 38.7984 0.184C40.5744 0.184 41.8864 1.328 41.8864 3.144ZM40.4224 3.144C40.4224 2.152 39.7584 1.416 38.7984 1.416C37.8384 1.416 37.1824 2.152 37.1824 3.144C37.1824 4.168 37.8464 4.904 38.7984 4.904C39.7504 4.904 40.4224 4.168 40.4224 3.144ZM47.2031 4.352C47.2031 5.584 46.1231 6 45.0431 6H42.7871V0.336H45.0431C45.9231 0.336 46.9711 0.648 46.9711 1.792C46.9711 2.416 46.5951 2.832 46.0431 3.016V3.032C46.6911 3.144 47.2031 3.608 47.2031 4.352ZM45.6511 1.976C45.6511 1.592 45.3551 1.424 44.7791 1.424H44.1071V2.592H44.8431C45.3551 2.592 45.6511 2.376 45.6511 1.976ZM45.8351 4.224C45.8351 3.752 45.4511 3.6 44.8671 3.6H44.1071V4.896H44.8751C45.3071 4.896 45.8351 4.776 45.8351 4.224ZM53.4674 6H51.9474L51.5074 4.888H49.3154L48.8994 6H47.4114L49.7874 0.336H51.1154L53.4674 6ZM51.1314 3.792L50.4274 1.848L49.7074 3.792H51.1314ZM57.5036 6H53.9356V0.336H55.3116V4.808H57.5036V6Z" fill="white" fill-opacity="0.4"/>
<path d="M6.488 85.144C6.488 86.936 5.176 88.152 3.4 88.152C1.632 88.152 0.32 86.936 0.32 85.144C0.32 83.328 1.632 82.184 3.4 82.184C5.176 82.184 6.488 83.328 6.488 85.144ZM5.024 85.144C5.024 84.152 4.36 83.416 3.4 83.416C2.44 83.416 1.784 84.152 1.784 85.144C1.784 86.168 2.448 86.904 3.4 86.904C4.352 86.904 5.024 86.168 5.024 85.144ZM11.1705 83.504H9.5705V88H8.2025V83.504H6.6025V82.336H11.1705V83.504ZM16.7389 88H15.3709V85.632H13.1629V88H11.7949V82.336H13.1629V84.48H15.3709V82.336H16.7389V88ZM21.8563 88H17.9043V82.336H21.7123V83.496H19.2243V84.56H21.5763V85.656H19.2243V86.832H21.8563V88ZM27.3957 88H25.7957L24.5717 85.752H24.1077V88H22.7637V82.336H24.9237C26.0117 82.336 27.0917 82.752 27.0917 84.048C27.0917 84.808 26.6437 85.352 25.9157 85.576L27.3957 88ZM25.7397 84.072C25.7397 83.544 25.2357 83.44 24.8277 83.44H24.0997V84.76H24.7477C25.1877 84.76 25.7397 84.648 25.7397 84.072ZM35.0524 87.216C34.5564 87.792 33.8044 88.152 32.8524 88.152C31.1084 88.152 29.8044 86.936 29.8044 85.16C29.8044 83.344 31.1484 82.184 32.8764 82.184C33.6684 82.184 34.5244 82.472 34.9964 83.016L34.0684 83.944C33.8124 83.592 33.3564 83.424 32.9244 83.424C31.9724 83.424 31.2924 84.16 31.2924 85.16C31.2924 86.192 31.9564 86.896 32.9004 86.896C33.4364 86.896 33.8604 86.656 34.1004 86.32L35.0524 87.216ZM41.4489 85.144C41.4489 86.936 40.1369 88.152 38.3609 88.152C36.5929 88.152 35.2809 86.936 35.2809 85.144C35.2809 83.328 36.5929 82.184 38.3609 82.184C40.1369 82.184 41.4489 83.328 41.4489 85.144ZM39.9849 85.144C39.9849 84.152 39.3209 83.416 38.3609 83.416C37.4009 83.416 36.7449 84.152 36.7449 85.144C36.7449 86.168 37.4089 86.904 38.3609 86.904C39.3129 86.904 39.9849 86.168 39.9849 85.144ZM48.8216 88H47.4856L47.5176 83.992H47.4936L46.0216 88H45.0616L43.6296 83.992H43.6056L43.6376 88H42.3496V82.336H44.2936L45.5816 85.968H45.6136L46.8456 82.336H48.8216V88ZM54.2863 84.08C54.2863 85.392 53.2223 85.864 52.0383 85.864H51.3583V88H49.9903V82.336H52.0703C53.3103 82.336 54.2863 82.784 54.2863 84.08ZM52.9183 84.088C52.9183 83.544 52.4463 83.44 51.9583 83.44H51.3583V84.776H51.9343C52.4463 84.776 52.9183 84.624 52.9183 84.088ZM59.9909 88H58.4709L58.0309 86.888H55.8389L55.4229 88H53.9349L56.3109 82.336H57.6389L59.9909 88ZM57.6549 85.792L56.9509 83.848L56.2309 85.792H57.6549ZM65.611 88H64.059L61.779 84.296H61.755L61.787 88H60.459V82.336H62.019L64.291 86.032H64.315L64.283 82.336H65.611V88ZM71.7073 82.336L69.5313 85.6V88H68.1633V85.6L66.0353 82.336H67.6913L68.8993 84.432L70.1073 82.336H71.7073Z" fill="white" fill-opacity="0.4"/>
<path d="M124.072 85.704V85.72C123.832 86.128 123.52 86.52 122.96 86.52C122.624 86.52 122.392 86.424 122.064 86.216C121.744 86.016 121.504 85.912 121.208 85.912C120.896 85.912 120.696 86.144 120.536 86.472L120.008 85.64C120.256 85.16 120.608 84.848 121.104 84.848C121.448 84.848 121.744 84.952 122.064 85.144C122.424 85.352 122.672 85.464 122.856 85.464C123.152 85.464 123.36 85.184 123.552 84.896L124.072 85.704ZM129.296 88H125.2V86.88L127.408 84.88C127.688 84.616 127.872 84.352 127.872 84.008C127.872 83.608 127.592 83.328 127.168 83.328C126.72 83.328 126.424 83.68 126.368 84.184L125.08 84.008C125.208 82.864 126.136 82.184 127.24 82.184C128.28 82.184 129.288 82.736 129.288 83.92C129.288 84.728 128.816 85.2 128.296 85.664L126.984 86.832H129.296V88ZM134.492 86.352C134.492 87.592 133.396 88.152 132.356 88.152C131.324 88.152 130.388 87.704 130.084 86.648L131.332 86.32C131.436 86.696 131.78 87.024 132.292 87.024C132.676 87.024 133.116 86.832 133.116 86.304C133.116 85.728 132.524 85.56 131.964 85.56H131.604V84.576H131.996C132.5 84.576 132.988 84.448 132.988 83.904C132.988 83.496 132.644 83.28 132.276 83.28C131.892 83.28 131.588 83.528 131.5 83.912L130.252 83.624C130.524 82.672 131.42 82.184 132.364 82.184C133.364 82.184 134.356 82.696 134.356 83.784C134.356 84.408 133.956 84.872 133.404 85.016V85.04C134.044 85.192 134.492 85.72 134.492 86.352Z" fill="#FF6C6C"/>
<g clip-path="url(#clip0_68_6012)">
<mask id="path-7-inside-1_68_6012" fill="white">
<path d="M6 7H129V44H6V7Z"/>
</mask>
<path d="M6 44.5H8.5625V43.5H6V44.5ZM13.6875 44.5H18.8125V43.5H13.6875V44.5ZM23.9375 44.5H29.0625V43.5H23.9375V44.5ZM34.1875 44.5H39.3125V43.5H34.1875V44.5ZM44.4375 44.5H49.5625V43.5H44.4375V44.5ZM54.6875 44.5H59.8125V43.5H54.6875V44.5ZM64.9375 44.5H70.0625V43.5H64.9375V44.5ZM75.1875 44.5H80.3125V43.5H75.1875V44.5ZM85.4375 44.5H90.5625V43.5H85.4375V44.5ZM95.6875 44.5H100.812V43.5H95.6875V44.5ZM105.938 44.5H111.062V43.5H105.938V44.5ZM116.188 44.5H121.312V43.5H116.188V44.5ZM126.438 44.5H129V43.5H126.438V44.5ZM6 45H8.5625V43H6V45ZM13.6875 45H18.8125V43H13.6875V45ZM23.9375 45H29.0625V43H23.9375V45ZM34.1875 45H39.3125V43H34.1875V45ZM44.4375 45H49.5625V43H44.4375V45ZM54.6875 45H59.8125V43H54.6875V45ZM64.9375 45H70.0625V43H64.9375V45ZM75.1875 45H80.3125V43H75.1875V45ZM85.4375 45H90.5625V43H85.4375V45ZM95.6875 45H100.812V43H95.6875V45ZM105.938 45H111.062V43H105.938V45ZM116.188 45H121.312V43H116.188V45ZM126.438 45H129V43H126.438V45Z" fill="white" fill-opacity="0.2" mask="url(#path-7-inside-1_68_6012)"/>
<g clip-path="url(#clip1_68_6012)">
<path d="M-0.234863 48.875H10.4802L16.9858 43.625H30.7623L38.7987 39.125L49.5137 29.75H56.0193L65.969 24.875L73.6227 29.75L87.0165 24.875L92.3741 29.75L103.855 24.875H113.804L131.408 20.75H135.234" stroke="#6CFF87" stroke-width="1.5" stroke-linecap="round"/>
</g>
<g clip-path="url(#clip2_68_6012)">
<path d="M-0.251465 60.2352L8.35782 56.4117H13.2239L25.5764 60.2352L34.9343 56.4117L42.4207 60.2352L51.7786 52.2058L63.3824 56.4117L77.9808 52.2058L82.0983 48.7646L94.4507 52.2058H102.311L109.049 56.4117L117.658 52.2058H127.391H135.251" stroke="#FF6C6C" stroke-width="1.5" stroke-linecap="round"/>
</g>
</g>
<rect x="0.5" y="14.5" width="134" height="59" rx="7.5" stroke="white" stroke-opacity="0.2" stroke-dasharray="5 5"/>
<defs>
<clipPath id="clip0_68_6012">
<rect y="14" width="135" height="60" rx="8" fill="white"/>
</clipPath>
<clipPath id="clip1_68_6012">
<rect width="137" height="30" fill="white" transform="translate(-1 20)"/>
</clipPath>
<clipPath id="clip2_68_6012">
<rect width="137" height="13" fill="white" transform="translate(-1 48)"/>
</clipPath>
</defs>
</svg>
