<svg width="70" height="37" viewBox="0 0 70 37" fill="none" xmlns="http://www.w3.org/2000/svg">
<g opacity="1">
<mask id="path-1-outside-1_3360_632" maskUnits="userSpaceOnUse" x="0.0176465" y="-4.57873" width="69.9519" height="46.1603" fill="black">
<rect fill="white" x="0.0176465" y="-4.57873" width="69.9519" height="46.1603"/>
<path fill-rule="evenodd" clip-rule="evenodd" d="M59.7291 5.24665L59.8419 6.00198L63.5133 4.09238L59.3916 2.98795L59.6203 4.51894C53.2014 5.80473 47.0496 8.07678 41.2971 11.398L3.61572 33.1533C3.67914 33.2619 3.74234 33.3707 3.80532 33.4798C3.86829 33.5889 3.93094 33.698 3.99326 33.8072L41.6747 12.0519C47.3451 8.77804 53.406 6.52996 59.7291 5.24665Z"/>
</mask>
<path fill-rule="evenodd" clip-rule="evenodd" d="M59.7291 5.24665L59.8419 6.00198L63.5133 4.09238L59.3916 2.98795L59.6203 4.51894C53.2014 5.80473 47.0496 8.07678 41.2971 11.398L3.61572 33.1533C3.67914 33.2619 3.74234 33.3707 3.80532 33.4798C3.86829 33.5889 3.93094 33.698 3.99326 33.8072L41.6747 12.0519C47.3451 8.77804 53.406 6.52996 59.7291 5.24665Z" fill="url(#paint0_linear_3360_632)"/>
<path d="M59.8419 6.00198L57.8639 6.29755L58.2781 9.06973L60.7648 7.77632L59.8419 6.00198ZM59.7291 5.24665L61.7071 4.95108L61.3958 2.8676L59.3313 3.28661L59.7291 5.24665ZM63.5133 4.09238L64.4362 5.86672L69.0013 3.49231L64.031 2.16053L63.5133 4.09238ZM59.3916 2.98795L59.9092 1.0561L56.9627 0.266593L57.4135 3.28352L59.3916 2.98795ZM59.6203 4.51894L60.0132 6.47999L61.8797 6.1061L61.5984 4.22337L59.6203 4.51894ZM3.61572 33.1533L2.61572 31.4213L0.874888 32.4263L1.88875 34.1621L3.61572 33.1533ZM3.99326 33.8072L2.25617 34.7985L3.25242 36.5444L4.99326 35.5393L3.99326 33.8072ZM41.6747 12.0519L40.6747 10.3198L41.6747 12.0519ZM61.82 5.70641L61.7071 4.95108L57.751 5.54222L57.8639 6.29755L61.82 5.70641ZM62.5905 2.31804L58.9191 4.22765L60.7648 7.77632L64.4362 5.86672L62.5905 2.31804ZM58.8739 4.9198L62.9957 6.02423L64.031 2.16053L59.9092 1.0561L58.8739 4.9198ZM61.5984 4.22337L61.3696 2.69238L57.4135 3.28352L57.6423 4.81452L61.5984 4.22337ZM59.2275 2.5579C52.6027 3.88493 46.2447 6.23204 40.2971 9.6659L42.2971 13.13C47.8544 9.92152 53.8002 7.72453 60.0132 6.47999L59.2275 2.5579ZM40.2971 9.6659L2.61572 31.4213L4.61572 34.8854L42.2971 13.13L40.2971 9.6659ZM1.88875 34.1621C1.95047 34.2677 2.01197 34.3736 2.07327 34.4798L5.53737 32.4798C5.47271 32.3678 5.40782 32.2561 5.34269 32.1446L1.88875 34.1621ZM2.07327 34.4798C2.13456 34.586 2.19553 34.6922 2.25617 34.7985L5.73035 32.816C5.66635 32.7039 5.60203 32.5918 5.53737 32.4798L2.07327 34.4798ZM4.99326 35.5393L42.6747 13.7839L40.6747 10.3198L2.99326 32.0752L4.99326 35.5393ZM42.6747 13.7839C48.1515 10.6218 54.0081 8.44853 60.1269 7.20669L59.3313 3.28661C52.8039 4.61138 46.5386 6.93424 40.6747 10.3198L42.6747 13.7839Z" fill="url(#paint1_linear_3360_632)" mask="url(#path-1-outside-1_3360_632)"/>
</g>
<defs>
<linearGradient id="paint0_linear_3360_632" x1="63.3484" y1="7.38529" x2="8.49657" y2="36.5593" gradientUnits="userSpaceOnUse">
<stop stop-color="white"/>
<stop offset="1" stop-color="white" stop-opacity="0"/>
</linearGradient>
<linearGradient id="paint1_linear_3360_632" x1="63.7738" y1="2.86791" x2="8.60605" y2="31.1909" gradientUnits="userSpaceOnUse">
<stop stop-color="white"/>
<stop offset="1" stop-color="white" stop-opacity="0"/>
</linearGradient>
</defs>
</svg>
