<svg width="41" height="40" viewBox="0 0 41 40" fill="none" xmlns="http://www.w3.org/2000/svg">
<g clip-path="url(#clip0_2001_199)">
<path d="M33.2229 6.10219C31.6864 2.86414 28.3871 0.625 24.5644 0.625C21.1058 0.625 18.0753 2.45859 16.391 5.20625C15.4277 4.39531 14.1847 3.90625 12.8269 3.90625C10.0105 3.90625 7.68628 6.00859 7.33472 8.72969C7.15659 8.7125 6.97534 8.70313 6.79253 8.70313C3.73315 8.70313 1.25269 11.1828 1.25269 14.243C1.25269 17.3023 3.73315 19.7828 6.79253 19.7828H14.1886M27.1457 19.7828H34.541C37.6003 19.7828 40.0808 17.3023 40.0808 14.243C40.0808 11.1828 37.6003 8.70313 34.541 8.70313C34.3683 8.70313 34.198 8.71172 34.03 8.72734" stroke="url(#paint0_linear_2001_199)" stroke-width="2" stroke-miterlimit="10" stroke-linecap="round" stroke-linejoin="round"/>
<path d="M21.8432 17.211L28.1682 20.279L30.8971 21.6032C31.0795 21.6917 31.2332 21.8298 31.3407 22.0017C31.4482 22.1736 31.5052 22.3723 31.5049 22.575V33.5602C31.5049 33.9743 31.269 34.3524 30.8971 34.5321L21.1377 39.2665C20.9885 39.3391 20.8276 39.375 20.6659 39.375C20.5042 39.375 20.344 39.3391 20.1948 39.2665L10.4362 34.5321C10.0643 34.3524 9.82837 33.9743 9.82837 33.5602V22.575C9.82815 22.3723 9.88505 22.1736 9.99255 22.0017C10.1001 21.8298 10.2538 21.6917 10.4362 21.6032L19.4995 17.2063" stroke="url(#paint1_linear_2001_199)" stroke-width="2" stroke-miterlimit="10" stroke-linecap="round" stroke-linejoin="round"/>
<path d="M21.8432 17.211L30.8971 21.6032C31.0752 21.6899 31.2237 21.8227 31.3292 21.9836L20.6659 27.1579L10.0042 21.9836C10.1096 21.8227 10.2581 21.6899 10.4362 21.6032L19.4995 17.2063" stroke="url(#paint2_linear_2001_199)" stroke-width="2" stroke-miterlimit="10" stroke-linecap="round" stroke-linejoin="round"/>
<path d="M12.8884 29.8864V32.0257M19.4994 14.4469V11.3361L18.8267 12.0086C17.7376 13.0874 16.0909 11.4391 17.1696 10.3511L19.8426 7.67858C20.3003 7.22101 21.0423 7.22108 21.4999 7.67874L24.1724 10.3518C24.63 10.8094 24.6299 11.5515 24.1723 12.0091C23.7146 12.4666 22.9726 12.4666 22.515 12.0089L21.8431 11.3369V21.6433C21.8431 22.2905 21.3184 22.8152 20.6712 22.8152C20.0241 22.8152 19.4994 22.2905 19.4994 21.6433V17.2062M31.5053 22.5752V33.5603C31.5053 33.9742 31.2694 34.352 30.897 34.5323L21.1379 39.2661C20.991 39.3379 20.8296 39.3752 20.666 39.3751V27.1577L31.329 21.9834C31.4441 22.1593 31.5054 22.365 31.5053 22.5752Z" stroke="url(#paint3_linear_2001_199)" stroke-width="2" stroke-miterlimit="10" stroke-linecap="round" stroke-linejoin="round"/>
</g>
<defs>
<linearGradient id="paint0_linear_2001_199" x1="1.25269" y1="10.2039" x2="40.0808" y2="10.2039" gradientUnits="userSpaceOnUse">
<stop stop-color="#87AEDB"/>
<stop offset="1" stop-color="#C9E1FF"/>
</linearGradient>
<linearGradient id="paint1_linear_2001_199" x1="9.82837" y1="28.2907" x2="31.5049" y2="28.2907" gradientUnits="userSpaceOnUse">
<stop stop-color="#87AEDB"/>
<stop offset="1" stop-color="#C9E1FF"/>
</linearGradient>
<linearGradient id="paint2_linear_2001_199" x1="10.0042" y1="22.1821" x2="31.3292" y2="22.1821" gradientUnits="userSpaceOnUse">
<stop stop-color="#87AEDB"/>
<stop offset="1" stop-color="#C9E1FF"/>
</linearGradient>
<linearGradient id="paint3_linear_2001_199" x1="12.8884" y1="23.3553" x2="31.5053" y2="23.3553" gradientUnits="userSpaceOnUse">
<stop stop-color="#87AEDB"/>
<stop offset="1" stop-color="#C9E1FF"/>
</linearGradient>
<clipPath id="clip0_2001_199">
<rect width="40" height="40" fill="white" transform="translate(0.666748)"/>
</clipPath>
</defs>
</svg>
