<svg width="41" height="40" viewBox="0 0 41 40" fill="none" xmlns="http://www.w3.org/2000/svg">
<g clip-path="url(#clip0_2001_133)">
<mask id="mask0_2001_133" style="mask-type:luminance" maskUnits="userSpaceOnUse" x="0" y="0" width="41" height="40">
<path d="M39.3334 39V1.00012H1.3335V39H39.3334Z" fill="white" stroke="white" stroke-width="2"/>
</mask>
<g mask="url(#mask0_2001_133)">
<path d="M18.8491 32.5781H29.0053L34.9236 26.6599C36.4875 25.096 39.1616 26.2036 39.1616 28.4153C39.1616 29.0328 38.9314 29.6282 38.5159 30.0852L32.8926 36.2709C32.1603 37.0764 31.2679 37.7199 30.2724 38.1603C29.2769 38.6006 28.2004 38.8281 27.1118 38.8281H15.7241" stroke="url(#paint0_linear_2001_133)" stroke-width="2" stroke-miterlimit="10" stroke-linecap="round" stroke-linejoin="round"/>
<path d="M15.7241 38.8281L7.91162 36.4844V27.8907L10.0096 26.632C11.1079 25.9729 12.3547 25.6017 13.6346 25.5525C14.9145 25.5033 16.1861 25.7779 17.3317 26.3507L20.4116 27.8907H25.8803C27.1747 27.8907 28.2241 28.94 28.2241 30.2344C28.2241 31.5288 27.1747 32.5781 25.8803 32.5781H18.8491" stroke="url(#paint1_linear_2001_133)" stroke-width="2" stroke-miterlimit="10" stroke-linecap="round" stroke-linejoin="round"/>
<path d="M1.50537 38.8281H7.9116V25.5469H1.50537V38.8281Z" stroke="url(#paint2_linear_2001_133)" stroke-width="2" stroke-miterlimit="10" stroke-linecap="round" stroke-linejoin="round"/>
<path d="M28.146 8.20316L30.4897 21.4844H16.4272L18.771 8.20316H14.0835L23.4585 1.17194L32.8334 8.20316H28.146Z" stroke="url(#paint3_linear_2001_133)" stroke-width="2" stroke-miterlimit="10" stroke-linecap="round" stroke-linejoin="round"/>
<path d="M23.4585 16.7969V14.4531" stroke="url(#paint4_linear_2001_133)" stroke-width="2" stroke-miterlimit="10" stroke-linecap="round" stroke-linejoin="round"/>
<path d="M23.4585 9.76562V7.42188" stroke="url(#paint5_linear_2001_133)" stroke-width="2" stroke-miterlimit="10" stroke-linecap="round" stroke-linejoin="round"/>
</g>
</g>
<defs>
<linearGradient id="paint0_linear_2001_133" x1="15.7241" y1="32.378" x2="39.1616" y2="32.378" gradientUnits="userSpaceOnUse">
<stop stop-color="#87AEDB"/>
<stop offset="1" stop-color="#C9E1FF"/>
</linearGradient>
<linearGradient id="paint1_linear_2001_133" x1="7.91162" y1="32.1875" x2="28.2241" y2="32.1875" gradientUnits="userSpaceOnUse">
<stop stop-color="#87AEDB"/>
<stop offset="1" stop-color="#C9E1FF"/>
</linearGradient>
<linearGradient id="paint2_linear_2001_133" x1="1.50537" y1="32.1875" x2="7.9116" y2="32.1875" gradientUnits="userSpaceOnUse">
<stop stop-color="#87AEDB"/>
<stop offset="1" stop-color="#C9E1FF"/>
</linearGradient>
<linearGradient id="paint3_linear_2001_133" x1="14.0835" y1="11.3282" x2="32.8334" y2="11.3282" gradientUnits="userSpaceOnUse">
<stop stop-color="#87AEDB"/>
<stop offset="1" stop-color="#C9E1FF"/>
</linearGradient>
<linearGradient id="paint4_linear_2001_133" x1="23.4585" y1="15.625" x2="24.4585" y2="15.625" gradientUnits="userSpaceOnUse">
<stop stop-color="#87AEDB"/>
<stop offset="1" stop-color="#C9E1FF"/>
</linearGradient>
<linearGradient id="paint5_linear_2001_133" x1="23.4585" y1="8.59375" x2="24.4585" y2="8.59375" gradientUnits="userSpaceOnUse">
<stop stop-color="#87AEDB"/>
<stop offset="1" stop-color="#C9E1FF"/>
</linearGradient>
<clipPath id="clip0_2001_133">
<rect width="40" height="40" fill="white" transform="translate(0.333496)"/>
</clipPath>
</defs>
</svg>
