<svg width="39" height="39" viewBox="0 0 39 39" fill="none" xmlns="http://www.w3.org/2000/svg">
<g clip-path="url(#clip0_2001_160)">
<mask id="mask0_2001_160" style="mask-type:luminance" maskUnits="userSpaceOnUse" x="-1" y="0" width="40" height="39">
<path d="M38 38V0.99987H0.999878V38H38Z" fill="white" stroke="white" stroke-width="2"/>
</mask>
<g mask="url(#mask0_2001_160)">
<path d="M27.5367 24H29.2195C32.2266 24 34.6643 21.5623 34.6643 18.5552C34.6643 16.1959 33.1635 14.1873 31.0646 13.4313C30.7828 9.28011 27.3267 5.99998 23.104 5.99998C19.7798 5.99998 16.9307 8.03293 15.7312 10.9232C14.9044 10.1515 13.7954 9.67852 12.5752 9.67852C10.3314 9.67852 8.46112 11.2758 8.03812 13.3952C5.88545 14.1217 4.33548 16.1575 4.33548 18.5552C4.33548 21.5623 6.77319 24 9.78024 24H11.4965" stroke="black" stroke-width="2" stroke-miterlimit="10" stroke-linecap="round" stroke-linejoin="round"/>
<path d="M11.3629 16.6721V21.743C11.3629 26.8662 14.6782 31.407 19.4999 33C24.3216 31.407 27.6369 26.8662 27.6369 21.743V16.6721C24.8121 16.4071 22.0493 15.6616 19.4999 14.4734C16.9506 15.6616 14.1877 16.4071 11.3629 16.6721Z" stroke="black" stroke-width="2" stroke-miterlimit="10" stroke-linecap="round" stroke-linejoin="round"/>
<path d="M21.5474 21.3716V20.6891C21.5474 19.5583 20.6307 18.6416 19.4999 18.6416C18.3691 18.6416 17.4524 19.5583 17.4524 20.6891V21.3716" stroke="black" stroke-width="2" stroke-miterlimit="10" stroke-linecap="round" stroke-linejoin="round"/>
<path d="M21.1858 26.1102V26.9233H22.2299C22.2807 26.9233 22.3218 26.8822 22.3218 26.8314V22.4635C22.3218 22.4127 22.2806 22.3715 22.2299 22.3715H20.3499C21.0259 22.6885 21.494 23.3751 21.494 24.171C21.494 24.5624 21.38 24.9265 21.1858 25.2325V26.1102ZM18.6655 22.3715H16.7699C16.7192 22.3715 16.678 22.4127 16.678 22.4635V26.8314C16.678 26.8822 16.7191 26.9233 16.7699 26.9233H17.8296V26.1102V25.2325C17.6355 24.9265 17.5214 24.5624 17.5214 24.171C17.5214 23.3751 17.9895 22.6885 18.6655 22.3715Z" stroke="black" stroke-width="2"/>
</g>
</g>
<defs>
<clipPath id="clip0_2001_160">
<rect width="39" height="39" fill="white"/>
</clipPath>
</defs>
</svg>
