<svg width="48" height="48" viewBox="0 0 48 48" fill="none" xmlns="http://www.w3.org/2000/svg">
<g clip-path="url(#clip0_10_397)">
<path d="M24.9823 28.1707H23.0177C21.3828 28.1707 20.0574 26.8453 20.0574 25.2103V23.444H27.9427V25.2103C27.9427 26.8452 26.6173 28.1707 24.9823 28.1707Z" stroke="white" stroke-width="1.5" stroke-miterlimit="10" stroke-linecap="round" stroke-linejoin="round"/>
<path d="M24 28.1707V33.9323" stroke="white" stroke-width="1.5" stroke-miterlimit="10" stroke-linecap="round" stroke-linejoin="round"/>
<path d="M17.2425 38.9137H0.703125" stroke="white" stroke-width="1.5" stroke-miterlimit="10" stroke-linecap="round" stroke-linejoin="round"/>
<path d="M17.3367 38.9137H0.773193" stroke="white" stroke-width="1.5" stroke-miterlimit="10" stroke-linecap="round" stroke-linejoin="round"/>
<path d="M47.2969 38.9137H30.6873" stroke="white" stroke-width="1.5" stroke-miterlimit="10" stroke-linecap="round" stroke-linejoin="round"/>
<path d="M23.281 38.9137H24.7189" stroke="white" stroke-width="1.5" stroke-miterlimit="10" stroke-linecap="round" stroke-linejoin="round"/>
<path d="M23.281 41.2323H29.7371C30.2083 41.2323 30.5903 40.8503 30.5903 40.3791V37.4483C30.5903 36.9771 30.2084 36.595 29.7371 36.595H26.7432C26.3782 36.595 26.0823 36.2992 26.0823 35.9342V34.5931C26.0823 34.2281 25.7865 33.9323 25.4215 33.9323H22.5787C22.2138 33.9323 21.9179 34.2281 21.9179 34.5931V35.9342C21.9179 36.2992 21.622 36.595 21.257 36.595H18.2631C17.7919 36.595 17.4099 36.977 17.4099 37.4483V40.3791C17.4099 40.8503 17.7918 41.2323 18.2631 41.2323H20.5623" stroke="white" stroke-width="1.5" stroke-miterlimit="10" stroke-linecap="round" stroke-linejoin="round"/>
<path d="M12.7155 10.545H8.0368C7.75433 10.545 7.52539 10.774 7.52539 11.0564V14.4512C7.52539 14.7337 7.75433 14.9626 8.0368 14.9626H8.43055C8.71302 14.9626 8.94195 15.1916 8.94195 15.474V15.7351C8.94195 16.0176 9.17089 16.2465 9.45336 16.2465H11.2991C11.5816 16.2465 11.8105 16.0176 11.8105 15.7351V15.474C11.8105 15.1916 12.0395 14.9626 12.3219 14.9626H12.7156C12.998 14.9626 13.227 14.7337 13.227 14.4512V11.0564C13.2269 10.7741 12.998 10.545 12.7155 10.545Z" stroke="white" stroke-width="1.5" stroke-miterlimit="10" stroke-linecap="round" stroke-linejoin="round"/>
<path d="M21.798 10.545H17.1193C16.8368 10.545 16.6079 10.774 16.6079 11.0564V14.4512C16.6079 14.7337 16.8368 14.9626 17.1193 14.9626H17.5131C17.7955 14.9626 18.0245 15.1916 18.0245 15.474V15.7351C18.0245 16.0176 18.2534 16.2465 18.5359 16.2465H20.3816C20.6641 16.2465 20.893 16.0176 20.893 15.7351V15.474C20.893 15.1916 21.122 14.9626 21.4044 14.9626H21.7981C22.0806 14.9626 22.3095 14.7337 22.3095 14.4512V11.0564C22.3094 10.7741 22.0804 10.545 21.798 10.545Z" stroke="white" stroke-width="1.5" stroke-miterlimit="10" stroke-linecap="round" stroke-linejoin="round"/>
<path d="M30.8805 10.545H26.2018C25.9194 10.545 25.6904 10.774 25.6904 11.0564V14.4512C25.6904 14.7337 25.9194 14.9626 26.2018 14.9626H26.5956C26.8781 14.9626 27.107 15.1916 27.107 15.474V15.7351C27.107 16.0176 27.3359 16.2465 27.6184 16.2465H29.4641C29.7466 16.2465 29.9756 16.0176 29.9756 15.7351V15.474C29.9756 15.1916 30.2045 14.9626 30.487 14.9626H30.8806C31.1631 14.9626 31.392 14.7337 31.392 14.4512V11.0564C31.3919 10.7741 31.163 10.545 30.8805 10.545Z" stroke="white" stroke-width="1.5" stroke-miterlimit="10" stroke-linecap="round" stroke-linejoin="round"/>
<path d="M39.9633 10.545H35.2846C35.0021 10.545 34.7732 10.774 34.7732 11.0564V14.4512C34.7732 14.7337 35.0021 14.9626 35.2846 14.9626H35.6783C35.9608 14.9626 36.1898 15.1916 36.1898 15.474V15.7351C36.1898 16.0176 36.4187 16.2465 36.7012 16.2465H38.5469C38.8294 16.2465 39.0583 16.0176 39.0583 15.7351V15.474C39.0583 15.1916 39.2873 14.9626 39.5697 14.9626H39.9634C40.2458 14.9626 40.4748 14.7337 40.4748 14.4512V11.0564C40.4747 10.7741 40.2458 10.545 39.9633 10.545Z" stroke="white" stroke-width="1.5" stroke-miterlimit="10" stroke-linecap="round" stroke-linejoin="round"/>
<path d="M0.773193 10.4091H3.81547" stroke="white" stroke-width="1.5" stroke-miterlimit="10" stroke-linecap="round" stroke-linejoin="round"/>
<path d="M0.773193 13.5402H3.81547" stroke="white" stroke-width="1.5" stroke-miterlimit="10" stroke-linecap="round" stroke-linejoin="round"/>
<path d="M0.773193 16.6714H3.81547" stroke="white" stroke-width="1.5" stroke-miterlimit="10" stroke-linecap="round" stroke-linejoin="round"/>
<path d="M0.773193 19.8025H3.81547" stroke="white" stroke-width="1.5" stroke-miterlimit="10" stroke-linecap="round" stroke-linejoin="round"/>
<path d="M47.2269 10.4091H44.1846" stroke="white" stroke-width="1.5" stroke-miterlimit="10" stroke-linecap="round" stroke-linejoin="round"/>
<path d="M47.2269 13.5402H44.1846" stroke="white" stroke-width="1.5" stroke-miterlimit="10" stroke-linecap="round" stroke-linejoin="round"/>
<path d="M47.2269 16.6714H44.1846" stroke="white" stroke-width="1.5" stroke-miterlimit="10" stroke-linecap="round" stroke-linejoin="round"/>
<path d="M47.2269 19.8025H44.1846" stroke="white" stroke-width="1.5" stroke-miterlimit="10" stroke-linecap="round" stroke-linejoin="round"/>
<path d="M16.1309 19.8024H31.8692" stroke="white" stroke-width="1.5" stroke-miterlimit="10" stroke-linecap="round" stroke-linejoin="round"/>
<path d="M38.2262 23.4439H45.9575C46.6972 23.4439 47.297 22.8442 47.297 22.1044V8.10708C47.297 7.3673 46.6972 6.76758 45.9575 6.76758H10.3323" stroke="white" stroke-width="1.5" stroke-miterlimit="10" stroke-linecap="round" stroke-linejoin="round"/>
<path d="M7.61344 6.76758H2.04263C1.30284 6.76758 0.703125 7.3673 0.703125 8.10708V22.1044C0.703125 22.8442 1.30284 23.4439 2.04263 23.4439H35.5074" stroke="white" stroke-width="1.5" stroke-miterlimit="10" stroke-linecap="round" stroke-linejoin="round"/>
</g>
<defs>
<clipPath id="clip0_10_397">
<rect width="48" height="48" fill="white"/>
</clipPath>
</defs>
</svg>
