<svg width="48" height="48" viewBox="0 0 48 48" fill="none" xmlns="http://www.w3.org/2000/svg">
<g clip-path="url(#clip0_10_464)">
<path d="M21.576 2.74045e-05C20.36 -0.0019726 19.374 0.980028 19.372 2.19603C19.372 2.26203 19.388 2.32203 19.408 2.37803C15.83 4.47203 13.728 8.58203 13.546 13.854H12.678V4.25203C13.266 4.02803 13.73 3.56403 13.954 2.97603C14.386 1.84003 13.814 0.570027 12.678 0.138027C12.42 0.0400274 12.156 0.0100274 11.896 0.0100274C11.894 0.0100274 11.89 0.0100274 11.888 0.0100274C11.628 0.0100274 11.364 0.0420274 11.106 0.140027C9.97203 0.570027 9.40003 1.84003 9.83203 2.97603C10.056 3.56403 10.52 4.02803 11.108 4.25203V13.854H10.24C10.056 8.58403 7.95403 4.47403 4.37803 2.37803C4.39803 2.32203 4.41403 2.26203 4.41403 2.19603C4.41203 0.980028 3.42403 -0.0019726 2.21003 2.74045e-05C0.994027 -0.0059726 0.0060274 0.976027 2.74045e-05 2.19003C-0.0059726 3.40403 0.974028 4.39403 2.19003 4.40003C2.75403 4.40203 3.30003 4.18803 3.71003 3.80003C6.72803 5.62603 8.50603 9.22003 8.68003 13.854H8.62003C7.45003 13.854 6.49603 14.808 6.49603 15.978L6.47203 17.846C5.55003 18.168 4.93003 19.034 4.92403 20.012V22.168C4.00003 22.488 3.38003 23.356 3.37403 24.334V46.888C3.37603 47.502 3.87403 48 4.48803 48H19.296C19.91 48 20.408 47.502 20.41 46.888V24.334C20.404 23.356 19.784 22.488 18.86 22.168V20.012C18.856 19.034 18.236 18.166 17.312 17.846L17.29 15.978C17.29 14.808 16.336 13.854 15.166 13.854H15.106C15.28 9.22003 17.058 5.62603 20.076 3.80003C20.486 4.18803 21.03 4.40203 21.596 4.40003C22.81 4.39403 23.792 3.40603 23.786 2.19003C23.78 0.974028 22.792 -0.0059726 21.576 2.74045e-05ZM2.85403 2.20403C2.85403 2.56003 2.56603 2.84803 2.21003 2.85003C1.85403 2.85203 1.56203 2.56203 1.56203 2.20603C1.56003 1.85003 1.85003 1.56003 2.20603 1.55803C2.56203 1.55603 2.85203 1.84603 2.85403 2.20403C2.85403 2.20203 2.85403 2.20403 2.85403 2.20403ZM11.888 1.56003C11.89 1.56003 11.89 1.56203 11.892 1.56203C11.894 1.56203 11.896 1.56003 11.896 1.56003C12.25 1.55403 12.542 1.83803 12.548 2.19203C12.554 2.54603 12.27 2.83803 11.916 2.84403H11.896H11.892H11.888H11.868C11.516 2.83803 11.232 2.54603 11.238 2.19203C11.244 1.83803 11.534 1.55603 11.888 1.56003ZM18.86 46.452H4.92403V43.96H18.86V46.452ZM18.078 23.562H18.086C18.514 23.562 18.86 23.908 18.86 24.336V42.4H4.92403V24.336C4.92403 23.908 5.27003 23.562 5.69803 23.562H5.70603H18.078ZM16.538 19.24C16.966 19.24 17.312 19.586 17.312 20.014V22.014H6.47203V20.014C6.47203 19.586 6.81803 19.24 7.24603 19.24H7.25403H16.53H16.538ZM15.166 15.414C15.476 15.414 15.73 15.666 15.73 15.978V17.684H8.05603V15.978C8.05603 15.668 8.30803 15.414 8.62003 15.414H15.166ZM21.576 2.85003C21.22 2.84803 20.932 2.56003 20.932 2.20403V2.20203C20.934 1.84603 21.224 1.55603 21.58 1.55803C21.936 1.56003 22.226 1.85003 22.224 2.20603C22.222 2.56203 21.932 2.85203 21.576 2.85003Z" fill="#C90505"/>
<path d="M45.796 6.15796C45.792 6.15796 45.786 6.15796 45.782 6.15796C44.566 6.16196 43.584 7.14796 43.588 8.36396C43.596 8.42396 43.608 8.48396 43.624 8.54396C39.856 11.036 37.642 15.294 37.762 19.81H37.768C37.768 19.812 37.768 19.816 37.768 19.818H36.658V19.81H36.652V10.418C37.24 10.194 37.706 9.72996 37.93 9.13996C38.36 8.00396 37.79 6.73396 36.652 6.30196C36.398 6.20596 36.136 6.17596 35.88 6.17396C35.878 6.17396 35.872 6.17396 35.87 6.17396C35.614 6.17396 35.352 6.20396 35.098 6.30196C33.962 6.73196 33.39 8.00196 33.82 9.13996C34.044 9.72796 34.508 10.194 35.098 10.418V19.81H35.092V19.818H33.98C33.98 19.816 33.98 19.812 33.98 19.81H33.986C34.106 15.294 31.892 11.036 28.124 8.54396C28.14 8.48396 28.152 8.42396 28.16 8.36396C28.164 7.14996 27.182 6.16196 25.966 6.15796C25.962 6.15796 25.956 6.15796 25.952 6.15796C24.734 6.15796 23.748 7.14596 23.748 8.36196C23.748 9.57796 24.736 10.568 25.952 10.568C26.51 10.566 27.046 10.352 27.45 9.96796C30.654 12.206 32.52 15.904 32.418 19.81H32.412H31.242C30.676 19.812 30.218 20.27 30.218 20.836V22.902H29.674C29.244 22.902 28.894 23.252 28.894 23.682V25.184C28.894 25.258 28.904 25.332 28.924 25.402L30.258 30.018C29.902 30.204 29.676 30.572 29.674 30.974V46.888C29.674 47.502 30.172 48 30.786 48H40.958C41.572 48 42.07 47.502 42.07 46.888V30.974C42.068 30.572 41.842 30.204 41.486 30.018L42.82 25.402C42.84 25.332 42.85 25.258 42.85 25.184V23.682C42.85 23.252 42.5 22.902 42.07 22.902H41.526V20.836C41.526 20.27 41.068 19.812 40.502 19.81H39.332H39.326C39.224 15.904 41.09 12.206 44.294 9.96796C44.698 10.352 45.234 10.566 45.792 10.568C47.012 10.568 48 9.57996 48 8.36196C48 7.14396 47.012 6.15796 45.796 6.15796ZM25.954 9.01796C25.598 9.01796 25.31 8.72996 25.31 8.37396C25.31 8.01796 25.598 7.72996 25.954 7.72996C26.31 7.72996 26.598 8.01796 26.598 8.37396C26.598 8.72996 26.308 9.01796 25.954 9.01796ZM35.87 7.71996C35.872 7.71996 35.874 7.72196 35.876 7.72196C35.878 7.72196 35.88 7.71996 35.882 7.71996C36.208 7.73396 36.472 7.99396 36.494 8.31996C36.516 8.67396 36.248 8.97996 35.894 9.00196H35.88H35.874H35.868H35.856C35.502 8.97996 35.234 8.67396 35.256 8.31996C35.278 7.99396 35.542 7.73396 35.87 7.71996ZM30.452 25.068V24.456H33.544H33.546V29.868H31.84L30.452 25.068ZM40.524 46.448L31.224 46.45V46.448V31.418H40.524V46.448ZM35.092 24.456L35.094 24.454H36.654H36.656V24.456H36.654V29.868H35.092V24.456ZM41.296 24.456V25.068L39.908 29.868H38.204V24.456H38.206H41.296ZM39.99 21.352V22.894V22.9V22.902H31.76V22.9V22.894V21.352H39.99ZM45.796 9.01796C45.44 9.01796 45.152 8.72996 45.152 8.37396C45.152 8.01796 45.44 7.72996 45.796 7.72996C46.1521 7.72996 46.44 8.01796 46.44 8.37396C46.438 8.72996 46.15 9.01796 45.796 9.01796Z" fill="#C90505"/>
</g>
<defs>
<clipPath id="clip0_10_464">
<rect width="48" height="48" fill="white"/>
</clipPath>
</defs>
</svg>
