<svg width="48" height="48" viewBox="0 0 48 48" fill="none" xmlns="http://www.w3.org/2000/svg">
<g clip-path="url(#clip0_10_488)">
<path d="M29.25 27.975C28.875 27.975 28.5 28.275 28.425 28.65C28.35 29.025 28.725 29.4 29.1 29.475C33 29.85 34.65 30.45 35.1 30.75C34.275 31.35 30.525 32.25 24 32.25C17.475 32.25 13.725 31.35 12.9 30.75C13.425 30.45 15.075 29.775 18.975 29.475C19.425 29.475 19.725 29.1 19.65 28.65C19.65 28.275 19.275 27.9 18.825 27.975C11.25 28.65 11.25 30.225 11.25 30.75V44.25C11.25 45.225 12.375 45.9 14.775 46.425C14.85 46.425 15.45 46.575 15.675 45.825C15.75 45.45 15.525 45 15.075 44.925C13.35 44.55 12.825 44.175 12.75 44.1V41.325C15.75 42.675 22.35 42.75 24 42.75C25.65 42.75 32.25 42.675 35.25 41.325V44.175C34.725 44.7 30.9 45.75 24 45.75C21.9 45.75 19.875 45.675 18.075 45.45C17.625 45.375 17.325 45.675 17.25 46.125C17.175 46.575 17.475 46.875 17.925 46.95C19.8 47.175 21.9 47.25 24 47.25C26.1 47.25 36.75 47.1 36.75 44.25V30.75C36.75 30.225 36.75 28.65 29.25 27.975ZM35.25 35.175C35.1 35.25 34.65 35.625 32.775 36.075C32.4 36.15 32.1 36.525 32.175 36.975C32.325 37.65 33 37.575 33.075 37.575C33.975 37.425 34.65 37.2 35.175 36.975V39.75C34.65 40.275 30.825 41.325 23.925 41.325C17.025 41.325 13.2 40.275 12.675 39.75V36.9C15.675 38.25 22.275 38.325 23.925 38.325C26.1 38.325 28.275 38.25 30.15 38.025C30.525 37.95 30.825 37.575 30.825 37.2C30.75 36.825 30.45 36.525 30 36.525C28.2 36.75 26.1 36.825 24 36.825C17.1 36.825 13.275 35.775 12.75 35.25V32.4C15.75 33.75 22.35 33.825 24 33.825C25.65 33.825 32.25 33.75 35.25 32.4V35.175Z" fill="#C90505"/>
<path d="M4.5 5.25H10.5C10.95 5.25 11.25 4.95 11.25 4.5C11.25 4.05 10.95 3.75 10.5 3.75H4.5C4.05 3.75 3.75 4.05 3.75 4.5C3.75 4.95 4.05 5.25 4.5 5.25Z" fill="#C90505"/>
<path d="M4.5 8.25H10.5C10.95 8.25 11.25 7.95 11.25 7.5C11.25 7.05 10.95 6.75 10.5 6.75H4.5C4.05 6.75 3.75 7.05 3.75 7.5C3.75 7.95 4.05 8.25 4.5 8.25Z" fill="#C90505"/>
<path d="M4.5 11.25H10.5C10.95 11.25 11.25 10.95 11.25 10.5C11.25 10.05 10.95 9.75 10.5 9.75H4.5C4.05 9.75 3.75 10.05 3.75 10.5C3.75 10.95 4.05 11.25 4.5 11.25Z" fill="#C90505"/>
<path d="M4.5 14.25H10.5C10.95 14.25 11.25 13.95 11.25 13.5C11.25 13.05 10.95 12.75 10.5 12.75H4.5C4.05 12.75 3.75 13.05 3.75 13.5C3.75 13.95 4.05 14.25 4.5 14.25Z" fill="#C90505"/>
<path d="M18 13.575C18.45 13.575 18.75 13.275 18.75 12.825V11.55C18.75 11.1 18.45 10.8 18 10.8C17.55 10.8 17.25 11.1 17.25 11.55V12.825C17.25 13.2 17.55 13.575 18 13.575Z" fill="#C90505"/>
<path d="M21 5.25H27C27.45 5.25 27.75 4.95 27.75 4.5C27.75 4.05 27.45 3.75 27 3.75H21C20.55 3.75 20.25 4.05 20.25 4.5C20.25 4.95 20.55 5.25 21 5.25Z" fill="#C90505"/>
<path d="M21 8.25H27C27.45 8.25 27.75 7.95 27.75 7.5C27.75 7.05 27.45 6.75 27 6.75H21C20.55 6.75 20.25 7.05 20.25 7.5C20.25 7.95 20.55 8.25 21 8.25Z" fill="#C90505"/>
<path d="M21 11.25H27C27.45 11.25 27.75 10.95 27.75 10.5C27.75 10.05 27.45 9.75 27 9.75H21C20.55 9.75 20.25 10.05 20.25 10.5C20.25 10.95 20.55 11.25 21 11.25Z" fill="#C90505"/>
<path d="M21 14.25H27C27.45 14.25 27.75 13.95 27.75 13.5C27.75 13.05 27.45 12.75 27 12.75H21C20.55 12.75 20.25 13.05 20.25 13.5C20.25 13.95 20.55 14.25 21 14.25Z" fill="#C90505"/>
<path d="M46.5 3C46.95 3 47.25 2.7 47.25 2.25V1.5C47.25 1.05 46.95 0.75 46.5 0.75H34.5C34.05 0.75 33.75 1.05 33.75 1.5V16.5C33.75 16.95 34.05 17.25 34.5 17.25H39.75V21.75H24.75V17.25H30C30.45 17.25 30.75 16.95 30.75 16.5V1.5C30.75 1.05 30.45 0.75 30 0.75H18C17.55 0.75 17.25 1.05 17.25 1.5V8.55C17.25 9 17.55 9.3 18 9.3C18.45 9.3 18.75 9 18.75 8.55V2.25H29.25V15.75H18.75C18.75 15.3 18.45 15 18 15C17.55 15 17.25 15.3 17.25 15.75V16.5C17.25 16.95 17.55 17.25 18 17.25H23.25V21.75H8.25V17.25H13.5C13.95 17.25 14.25 16.95 14.25 16.5V1.5C14.25 1.05 13.95 0.75 13.5 0.75H1.5C1.05 0.75 0.75 1.05 0.75 1.5V5.925C0.75 6.375 1.05 6.675 1.5 6.675C1.95 6.675 2.25 6.375 2.25 5.925V2.25H12.75V15.75H2.25V9C2.25 8.55 1.95 8.25 1.5 8.25C1.05 8.25 0.75 8.55 0.75 9V16.5C0.75 16.95 1.05 17.25 1.5 17.25H6.75V22.5C6.75 22.95 7.05 23.25 7.5 23.25H23.25V28.2L21.525 26.475C21.225 26.175 20.775 26.175 20.475 26.475C20.175 26.775 20.175 27.225 20.475 27.525L23.475 30.525C24 30.9 24.45 30.6 24.525 30.525L27.525 27.525C27.825 27.225 27.825 26.775 27.525 26.475C27.225 26.175 26.775 26.175 26.475 26.475L24.75 28.2V23.25H40.5C40.95 23.25 41.25 22.95 41.25 22.5V17.25H46.5C46.95 17.25 47.25 16.95 47.25 16.5V5.325C47.25 4.875 46.95 4.575 46.5 4.575C46.05 4.575 45.75 4.875 45.75 5.325V15.75H35.25V2.25H45.75C45.75 2.7 46.05 3 46.5 3Z" fill="#C90505"/>
<path d="M43.5 3.75H37.5C37.05 3.75 36.75 4.05 36.75 4.5C36.75 4.95 37.05 5.25 37.5 5.25H43.5C43.95 5.25 44.25 4.95 44.25 4.5C44.25 4.05 43.95 3.75 43.5 3.75Z" fill="#C90505"/>
<path d="M43.5 6.75H37.5C37.05 6.75 36.75 7.05 36.75 7.5C36.75 7.95 37.05 8.25 37.5 8.25H43.5C43.95 8.25 44.25 7.95 44.25 7.5C44.25 7.05 43.95 6.75 43.5 6.75Z" fill="#C90505"/>
<path d="M43.5 9.75H37.5C37.05 9.75 36.75 10.05 36.75 10.5C36.75 10.95 37.05 11.25 37.5 11.25H43.5C43.95 11.25 44.25 10.95 44.25 10.5C44.25 10.05 43.95 9.75 43.5 9.75Z" fill="#C90505"/>
<path d="M43.5 12.75H37.5C37.05 12.75 36.75 13.05 36.75 13.5C36.75 13.95 37.05 14.25 37.5 14.25H43.5C43.95 14.25 44.25 13.95 44.25 13.5C44.25 13.05 43.95 12.75 43.5 12.75Z" fill="#C90505"/>
</g>
<defs>
<clipPath id="clip0_10_488">
<rect width="48" height="48" fill="white"/>
</clipPath>
</defs>
</svg>
