<svg width="48" height="48" viewBox="0 0 48 48" fill="none" xmlns="http://www.w3.org/2000/svg">
<g clip-path="url(#clip0_10_469)">
<path d="M5.7749 32.2875L4.0124 32.8575L2.5124 28.2675L1.0874 28.7325L2.5874 33.315C2.7074 33.6975 2.9774 34.0125 3.3299 34.1925C3.6824 34.3725 4.0874 34.41 4.4774 34.2825L6.2399 33.7125C7.0649 35.22 8.0774 36.6225 9.2699 37.89L8.1824 39.39C7.9424 39.7125 7.8449 40.11 7.9049 40.5C7.9649 40.8975 8.1824 41.25 8.5049 41.49L12.1424 44.13C12.4724 44.37 12.8699 44.4675 13.2674 44.4C13.6649 44.34 14.0099 44.1225 14.2424 43.8L15.3374 42.3075C16.8974 43.0575 18.5474 43.59 20.2424 43.905V45.7575C20.2424 46.5825 20.9174 47.2575 21.7424 47.2575H26.2424C27.0674 47.2575 27.7424 46.5825 27.7424 45.7575V43.905C29.4374 43.59 31.0874 43.05 32.6549 42.3L33.7349 43.7925C33.9674 44.1225 34.3124 44.3325 34.7099 44.4C35.1149 44.4675 35.5124 44.37 35.8349 44.13L39.4724 41.49C39.8024 41.25 40.0124 40.8975 40.0724 40.5C40.1324 40.1025 40.0349 39.7125 39.8024 39.39L38.7224 37.8825C39.9074 36.63 40.9274 35.2275 41.7449 33.705L43.5074 34.2825C43.8899 34.4025 44.2949 34.3725 44.6549 34.1925C45.0149 34.005 45.2774 33.6975 45.3974 33.315L46.8974 28.725L45.4724 28.26L43.9724 32.8575L42.2099 32.28C41.5349 32.055 40.7924 32.355 40.4249 32.9925C39.6674 34.3875 38.7224 35.685 37.6274 36.8475C37.1249 37.38 37.0724 38.19 37.4999 38.76L38.5874 40.26L34.9499 42.9L33.8549 41.3925C33.4274 40.815 32.6624 40.62 31.9949 40.9275C30.5474 41.6175 29.0249 42.1125 27.4724 42.405C26.7599 42.54 26.2349 43.155 26.2349 43.875V45.7275H21.7349V43.875C21.7349 43.155 21.2174 42.5325 20.4974 42.405C18.9374 42.1125 17.4149 41.6175 15.9599 40.92C15.2999 40.62 14.5349 40.8075 14.1074 41.3925L13.0199 42.8925L9.3824 40.2525L10.4624 38.76C10.8974 38.1825 10.8449 37.3725 10.3349 36.84C9.2399 35.6775 8.2949 34.38 7.5299 32.97C7.1699 32.3475 6.4274 32.0475 5.7524 32.2725L5.7749 32.2875Z" fill="#C90505"/>
<path d="M23.9999 39.75C30.9224 39.75 36.9599 35.3175 39.0224 28.725L37.5899 28.275C35.7224 34.2375 30.2624 38.25 23.9924 38.25C17.7224 38.25 12.2624 34.245 10.3949 28.275L8.9624 28.725C11.0249 35.3175 17.0624 39.75 23.9849 39.75H23.9999Z" fill="#C90505"/>
<path d="M0.75 25.5H47.25V27H0.75V25.5Z" fill="#C90505"/>
<path d="M44.25 24V13.5C44.25 13.0875 43.9125 12.75 43.5 12.75H37.5V1.5C37.5 1.0875 37.1625 0.75 36.75 0.75H27.75C27.3375 0.75 27 1.0875 27 1.5V9H21V6C21 5.775 20.9025 5.565 20.73 5.4225L16.23 1.6725C15.9525 1.44 15.5475 1.44 15.27 1.6725L10.77 5.4225C10.5975 5.565 10.5 5.775 10.5 6V12H4.5C4.0875 12 3.75 12.3375 3.75 12.75V24H5.25V13.5H10.5V24H12V6.3525L15.75 3.225L19.5 6.3525V24H21V10.5H27V24H28.5V2.25H36V24H37.5V14.25H42.75V24H44.25Z" fill="#C90505"/>
<path d="M30 4.5H31.5V6H30V4.5Z" fill="#C90505"/>
<path d="M33 4.5H34.5V6H33V4.5Z" fill="#C90505"/>
<path d="M30 8.25H31.5V9.75H30V8.25Z" fill="#C90505"/>
<path d="M33 8.25H34.5V9.75H33V8.25Z" fill="#C90505"/>
<path d="M30 12H31.5V13.5H30V12Z" fill="#C90505"/>
<path d="M33 12H34.5V13.5H33V12Z" fill="#C90505"/>
<path d="M13.5 7.5H18V9H13.5V7.5Z" fill="#C90505"/>
<path d="M13.5 11.25H18V12.75H13.5V11.25Z" fill="#C90505"/>
</g>
<defs>
<clipPath id="clip0_10_469">
<rect width="48" height="48" fill="white"/>
</clipPath>
</defs>
</svg>
