<svg width="48" height="48" viewBox="0 0 48 48" fill="none" xmlns="http://www.w3.org/2000/svg">
<g clip-path="url(#clip0_10_435)">
<path d="M44.6 25.6H3.40003C1.52559 25.6 0 27.1247 0 28.9999V38.1999C0 40.0751 1.52559 41.5999 3.40003 41.5999H44.6001C46.4745 41.5999 48.0001 40.0751 48.0001 38.1999V28.9999C48 27.1247 46.4744 25.6 44.6 25.6ZM46.4 38.2C46.4 39.1919 45.5928 40 44.6 40H3.40003C2.40722 40 1.60003 39.1919 1.60003 38.2V29C1.60003 28.008 2.40722 27.2 3.40003 27.2H44.6001C45.5929 27.2 46.4001 28.008 46.4001 29V38.2H46.4Z" fill="#C90505"/>
<path d="M10.3999 40H3.99992C3.55836 40 3.19995 40.3576 3.19995 40.8V43.9999C3.19995 44.4423 3.55836 44.7999 3.99992 44.7999H10.4C10.8415 44.7999 11.1999 44.4423 11.1999 43.9999V40.8C11.1999 40.3576 10.8415 40 10.3999 40ZM9.59989 43.2H4.79989V41.5999H9.59989V43.2Z" fill="#C90505"/>
<path d="M44.0001 40H37.6C37.1585 40 36.8 40.3576 36.8 40.8V43.9999C36.8 44.4423 37.1585 44.7999 37.6 44.7999H44.0001C44.4416 44.7999 44.8 44.4423 44.8 43.9999V40.8C44.8001 40.3576 44.4417 40 44.0001 40ZM43.2001 43.2H38.4001V41.5999H43.2001V43.2Z" fill="#C90505"/>
<path d="M6.4 3.19995C5.07681 3.19995 4 4.27676 4 5.59995V26.4C4 26.8424 4.35841 27.2 4.79997 27.2H7.99994C8.4415 27.2 8.79991 26.8424 8.79991 26.4V5.59995C8.8 4.27676 7.72319 3.19995 6.4 3.19995ZM7.19997 25.6H5.59994V5.59995C5.59994 5.15839 5.95909 4.79998 6.39991 4.79998C6.84072 4.79998 7.19988 5.15839 7.19988 5.59995V25.6H7.19997Z" fill="#C90505"/>
<path d="M41.6 3.19995C40.2768 3.19995 39.2 4.27676 39.2 5.59995V26.4C39.2 26.8424 39.5584 27.2 39.9999 27.2H43.2C43.6415 27.2 44 26.8424 44 26.4V5.59995C44 4.27676 42.9231 3.19995 41.6 3.19995ZM42.4 25.6H40.8V5.59995C40.8 5.15839 41.1591 4.79998 41.6 4.79998C42.0408 4.79998 42.3999 5.15839 42.3999 5.59995V25.6H42.4Z" fill="#C90505"/>
<path d="M11.2 29.6H4.79997C4.35841 29.6 4 29.9575 4 30.3999V34.4C4 34.8424 4.35841 35.1999 4.79997 35.1999H5.59994V36.8C5.59994 37.2424 5.95834 37.5999 6.39991 37.5999H9.59997C10.0415 37.5999 10.3999 37.2424 10.3999 36.8V35.1999H11.1999C11.6415 35.1999 11.9999 34.8424 11.9999 34.4V30.3999C12 29.9576 11.6416 29.6 11.2 29.6ZM10.3999 33.6H9.59997C9.15841 33.6 8.8 33.9576 8.8 34.4V36H7.19997V34.4C7.19997 33.9576 6.84156 33.6 6.4 33.6H5.60003V31.2H10.4V33.6H10.3999Z" fill="#C90505"/>
<path d="M43.2 29.6H36.8C36.3584 29.6 36 29.9575 36 30.3999V34.4C36 34.8424 36.3584 35.1999 36.8 35.1999H37.5999V36.8C37.5999 37.2424 37.9583 37.5999 38.3999 37.5999H41.5999C42.0414 37.5999 42.3998 37.2424 42.3998 36.8V35.1999H43.1998C43.6414 35.1999 43.9998 34.8424 43.9998 34.4V30.3999C44 29.9576 43.6416 29.6 43.2 29.6ZM42.4 33.6H41.6001C41.1585 33.6 40.8001 33.9576 40.8001 34.4V36H39.2001V34.4C39.2001 33.9576 38.8417 33.6 38.4001 33.6H37.6001V31.2H42.4001V33.6H42.4Z" fill="#C90505"/>
<path d="M32.8001 29.6H26.4001C25.9585 29.6 25.6001 29.9575 25.6001 30.3999V34.4C25.6001 34.8424 25.9585 35.1999 26.4001 35.1999H27.2V36.8C27.2 37.2424 27.5584 37.5999 28 37.5999H31.2001C31.6416 37.5999 32 37.2424 32 36.8V35.1999H32.8C33.2416 35.1999 33.6 34.8424 33.6 34.4V30.3999C33.6001 29.9576 33.2417 29.6 32.8001 29.6ZM32 33.6H31.2001C30.7585 33.6 30.4001 33.9576 30.4001 34.4V36H28.8001V34.4C28.8001 33.9576 28.4417 33.6 28.0001 33.6H27.2001V31.2H32.0001V33.6H32Z" fill="#C90505"/>
<path d="M21.5999 29.6H15.1999C14.7583 29.6 14.3999 29.9575 14.3999 30.3999V34.4C14.3999 34.8424 14.7583 35.1999 15.1999 35.1999H15.9998V36.8C15.9998 37.2424 16.3582 37.5999 16.7998 37.5999H19.9998C20.4413 37.5999 20.7997 37.2424 20.7997 36.8V35.1999H21.5997C22.0413 35.1999 22.3997 34.8424 22.3997 34.4V30.3999C22.3999 29.9576 22.0415 29.6 21.5999 29.6ZM20.7999 33.6H20C19.5584 33.6 19.2 33.9576 19.2 34.4V36H17.6V34.4C17.6 33.9576 17.2416 33.6 16.8 33.6H16V31.2H20.8V33.6H20.7999Z" fill="#C90505"/>
</g>
<defs>
<clipPath id="clip0_10_435">
<rect width="48" height="48" fill="white"/>
</clipPath>
</defs>
</svg>
