<svg width="48" height="48" viewBox="0 0 48 48" fill="none" xmlns="http://www.w3.org/2000/svg">
<path d="M21.6 30.128L10.952 42.68C10.664 43.016 10.704 43.52 11.048 43.808C11.2 43.936 11.384 44 11.568 44C11.792 44 12.024 43.904 12.176 43.72L21.6 32.6V43.2C21.6 43.64 21.96 44 22.4 44H25.6C26.04 44 26.4 43.64 26.4 43.2V32.6L35.832 43.72C35.992 43.904 36.216 44 36.44 44C36.624 44 36.808 43.936 36.96 43.808C37.296 43.52 37.336 43.016 37.056 42.68L26.4 30.128V13.624H27.728V15.696C27.728 16.136 28.088 16.496 28.528 16.496C30.6 16.496 32.288 14.808 32.288 12.736V9.264C32.288 7.192 30.6 5.504 28.528 5.504C28.088 5.504 27.728 5.864 27.728 6.304V8.376H26.4V4.8C26.4 4.36 26.04 4 25.6 4H22.4C21.96 4 21.6 4.36 21.6 4.8V16.376H20.272V14.304C20.272 13.864 19.912 13.504 19.472 13.504C17.4 13.504 15.712 15.192 15.712 17.264V20.736C15.712 22.808 17.4 24.496 19.472 24.496C19.912 24.496 20.272 24.136 20.272 23.696V21.624H21.6V30.128ZM29.328 7.256C30.128 7.576 30.688 8.352 30.688 9.264V12.736C30.688 13.648 30.12 14.424 29.328 14.744V12.824V9.184V7.256ZM27.728 9.976V12.016H26.4V9.976H27.728ZM23.2 5.6H24.8V9.176V12.816V42.4H23.2V20.824V17.184V5.6ZM18.672 22.744C17.872 22.424 17.312 21.648 17.312 20.736V17.264C17.312 16.352 17.88 15.576 18.672 15.256V17.176V20.816V22.744ZM20.272 20.024V17.984H21.6V20.024H20.272Z" fill="#C90505"/>
<path d="M36.4882 6.00796C36.1762 6.31996 36.1762 6.82396 36.4882 7.13596C38.6162 9.26396 38.6162 12.72 36.4882 14.848C36.1762 15.16 36.1762 15.664 36.4882 15.976C36.6482 16.136 36.8481 16.208 37.0561 16.208C37.2641 16.208 37.4641 16.128 37.6241 15.976C40.3761 13.224 40.3761 8.75196 37.6241 5.99996C37.3041 5.69596 36.8002 5.69596 36.4882 6.00796Z" fill="#C90505"/>
<path d="M34.2721 13.776C34.4321 13.936 34.6321 14.008 34.8401 14.008C35.0481 14.008 35.2481 13.928 35.4081 13.776C36.9361 12.248 36.9361 9.75199 35.4081 8.22399C35.0961 7.91199 34.5921 7.91199 34.2801 8.22399C33.9681 8.53599 33.9681 9.03999 34.2801 9.35199C35.1841 10.256 35.1841 11.736 34.2801 12.64C33.9601 12.96 33.9601 13.464 34.2721 13.776Z" fill="#C90505"/>
<path d="M10.3841 14.008C7.63207 16.76 7.63207 21.232 10.3841 23.984C10.5441 24.144 10.7441 24.216 10.9521 24.216C11.1601 24.216 11.3601 24.136 11.5201 23.984C11.8321 23.672 11.8321 23.168 11.5201 22.856C9.39207 20.728 9.39207 17.272 11.5201 15.144C11.8321 14.832 11.8321 14.328 11.5201 14.016C11.2081 13.704 10.6961 13.696 10.3841 14.008Z" fill="#C90505"/>
<path d="M13.7281 16.224C13.4161 15.912 12.9121 15.912 12.6001 16.224C11.0721 17.752 11.0721 20.248 12.6001 21.776C12.7601 21.936 12.9601 22.008 13.1681 22.008C13.3761 22.008 13.5761 21.928 13.7361 21.776C14.0481 21.464 14.0481 20.96 13.7361 20.648C12.8321 19.744 12.8321 18.264 13.7361 17.36C14.0401 17.04 14.0401 16.536 13.7281 16.224Z" fill="#C90505"/>
</svg>
