<svg width="161" height="78" viewBox="0 0 161 78" fill="none" xmlns="http://www.w3.org/2000/svg">
<g clip-path="url(#clip0_10_871)">
<path d="M32.9958 56.3633C32.9958 55.4978 32.3463 55.0651 31.4808 55.0651C30.7236 55.0651 30.183 55.2815 29.642 55.606V54.5242C30.0748 54.1996 30.832 53.9833 31.6974 53.9833C33.212 53.9833 34.1854 54.8487 34.1854 56.2551V60.6906H33.1036V60.1497C32.8872 60.366 32.1304 60.7987 31.3731 60.7987C30.0749 60.7987 28.8846 60.0416 28.8846 58.7434C28.8846 57.5533 29.9667 56.6879 31.3731 56.6879C32.0222 56.6879 32.7795 57.0124 32.9958 57.2288V56.3633ZM32.9958 58.4188C32.7795 57.8778 32.1299 57.5532 31.4808 57.5532C30.7236 57.5532 29.9664 57.8779 29.9664 58.7434C29.9664 59.5006 30.7236 59.9334 31.4808 59.9334C32.1299 59.9334 32.7795 59.6087 32.9958 59.0678V58.4188ZM46.9513 51.6032V60.6906H45.7612V56.5797H40.6764V60.6906H39.4868V51.6032H40.6764V55.4979H45.7612V51.6032H46.9513ZM49.6559 57.5532C49.6559 59.0678 50.6296 59.8252 51.8196 59.8252C52.5769 59.8252 53.1175 59.6087 53.6584 59.176V60.1497C53.1175 60.5824 52.4686 60.6906 51.7113 60.6906C49.8722 60.6906 48.5741 59.3924 48.5741 57.3369C48.5741 55.2815 49.7638 53.8751 51.4947 53.8751C53.2256 53.8751 54.1993 55.1733 54.1993 57.1206V57.5532H49.6559ZM49.6559 56.6879H53.0097C53.0097 55.7142 52.4688 54.8487 51.387 54.8487C50.6297 54.9568 49.8723 55.4978 49.6559 56.6879ZM61.0151 59.176L62.4213 54.1996H63.5031L61.5561 60.7987H60.4742L59.0675 55.8223L57.6614 60.7987H56.5795L54.6324 54.1996H55.7143L57.1204 59.176L58.4189 54.1996H59.3924L61.0151 59.176ZM65.8834 60.6906H64.8015V51.0623H65.8834V60.6906ZM68.4797 57.5532C68.4797 59.0678 69.4533 59.8252 70.6433 59.8252C71.4006 59.8252 71.9417 59.6087 72.4827 59.176V60.1497C71.9417 60.5824 71.2923 60.6906 70.535 60.6906C68.6959 60.6906 67.3978 59.3924 67.3978 57.3369C67.3978 55.2815 68.5881 53.8751 70.319 53.8751C72.0499 53.8751 73.0236 55.1733 73.0236 57.1206V57.5532H68.4797ZM68.4797 56.6879H71.8335C71.8335 55.7142 71.2925 54.8487 70.2107 54.8487C69.4534 54.9568 68.696 55.4978 68.4797 56.6879ZM76.1608 60.6906H75.0789V55.0651H73.6722V54.0914H75.0789V52.3605H76.1608V54.0914H77.6752V55.0651H76.1608V60.6906ZM81.1373 60.6906H80.0555V55.0651H78.6488V54.0914H80.0555V52.3605H81.1373V54.0914H82.6518V55.0651H81.1373V60.6906ZM88.6018 57.0123V60.6906H87.4117V51.6032H90.7655C92.6046 51.6032 93.7944 52.5768 93.7944 54.3078C93.7944 56.0387 92.6046 57.0123 90.7655 57.0123H88.6018ZM90.7655 52.5768H88.6018V55.9305H90.7655C91.9555 55.9305 92.6043 55.2814 92.6043 54.1996C92.7125 53.3341 92.0637 52.5768 90.7655 52.5768ZM98.6626 56.3633C98.6626 55.4978 98.0136 55.0651 97.1482 55.0651C96.3909 55.0651 95.8498 55.2815 95.3089 55.606V54.5242C95.7416 54.1996 96.4993 53.9833 97.3648 53.9833C98.8793 53.9833 99.8528 54.8487 99.8528 56.2551V60.6906H98.7709V60.1497C98.5546 60.366 97.7972 60.7987 97.0399 60.7987C95.7417 60.7987 94.5519 60.0416 94.5519 58.7434C94.5519 57.5533 95.6335 56.6879 97.0399 56.6879C97.689 56.6879 98.4463 57.0124 98.6626 57.2288V56.3633ZM98.6626 58.4188C98.4463 57.8778 97.7973 57.5532 97.1482 57.5532C96.3909 57.5532 95.6337 57.8779 95.6337 58.7434C95.6337 59.5006 96.3909 59.9334 97.1482 59.9334C97.7973 59.9334 98.4463 59.6087 98.6626 59.0678V58.4188ZM104.288 53.9833C104.937 53.9833 105.587 54.0915 106.019 54.5242V55.606C105.587 55.1733 104.937 54.957 104.288 54.957C103.098 54.957 102.125 55.8224 102.125 57.3369C102.125 58.8515 103.098 59.7169 104.288 59.7169C104.937 59.7169 105.478 59.5006 106.019 59.0678V60.1497C105.587 60.5824 104.937 60.6906 104.288 60.6906C102.557 60.6906 101.151 59.3924 101.151 57.2288C101.151 55.2815 102.557 53.9833 104.288 53.9833ZM113.051 60.6906H111.645L108.616 57.4451V60.6906H107.534V51.0623H108.616V56.9042L111.536 54.0914H112.943L109.698 57.1206L113.051 60.6906ZM117.703 56.3633C117.703 55.4978 117.054 55.0651 116.189 55.0651C115.431 55.0651 114.89 55.2815 114.349 55.606V54.5242C114.782 54.1996 115.539 53.9833 116.405 53.9833C117.919 53.9833 118.893 54.8487 118.893 56.2551V60.6906H117.811V60.1497C117.595 60.366 116.838 60.7987 116.08 60.7987C114.782 60.7987 113.592 60.0416 113.592 58.7434C113.592 57.5533 114.674 56.6879 116.08 56.6879C116.729 56.6879 117.487 57.0124 117.703 57.2288V56.3633ZM117.703 58.4188C117.487 57.8778 116.838 57.5532 116.189 57.5532C115.431 57.5532 114.674 57.8779 114.674 58.7434C114.674 59.5006 115.431 59.9334 116.189 59.9334C116.838 59.9334 117.487 59.6087 117.703 59.0678V58.4188ZM123.87 55.1733C123.653 55.0651 123.437 54.957 123.112 54.957C122.463 54.957 121.814 55.3897 121.598 56.1469V60.5824H120.516V53.9833H121.598V54.8487C121.922 54.3078 122.463 53.8751 123.22 53.8751C123.545 53.8751 123.761 53.8751 123.87 53.9833V55.1733ZM129.495 59.9334C129.17 60.3661 128.413 60.7987 127.656 60.7987C125.709 60.7987 124.735 59.2842 124.735 57.3369C124.735 55.4978 125.817 53.8751 127.656 53.8751C128.521 53.8751 129.17 54.3078 129.495 54.7405V50.9541H130.577V60.5824H129.495V59.9334ZM129.495 56.0388C129.17 55.3897 128.521 54.957 127.764 54.957C126.466 54.957 125.817 55.9306 125.817 57.3369C125.817 58.7433 126.574 59.7169 127.764 59.7169C128.413 59.7169 129.062 59.2842 129.495 58.6351V56.0388ZM30.8322 66.4243V67.5062H26.18V70.4271H30.399V71.5089H26.18V74.6462H30.8322V75.7281H25.0981V66.6406L30.8322 66.4243ZM32.2383 68.9125H33.3202V69.778C33.7529 69.2371 34.4018 68.8043 35.2672 68.8043C36.7818 68.8043 37.5392 69.778 37.5392 71.1844V75.5117H36.4574V71.4007C36.4574 70.5353 36.0248 69.8861 35.0512 69.8861C34.2939 69.8861 33.6448 70.427 33.4285 71.0761V75.5117H32.3466V68.9125H32.2383ZM41.2173 75.4035H40.1355V69.778H38.7293V68.8043H40.1355V67.0734H41.2173V68.8043H42.7323V69.778H41.2173V75.4035ZM44.4628 72.3744C44.4628 73.889 45.4365 74.6462 46.6265 74.6462C47.3838 74.6462 47.9249 74.4299 48.4658 73.9972V74.9708C47.9249 75.4036 47.276 75.5117 46.5187 75.5117C44.6796 75.5117 43.381 74.2134 43.381 72.158C43.381 70.1025 44.5712 68.6962 46.3021 68.6962C48.0331 68.6962 49.0067 69.9944 49.0067 71.9416V72.3744H44.4628ZM44.5711 71.5089H47.9249C47.9249 70.5352 47.384 69.6698 46.3021 69.6698C45.4367 69.6698 44.7875 70.3189 44.5711 71.5089ZM53.875 69.9943C53.6586 69.8861 53.442 69.778 53.1175 69.778C52.4684 69.778 51.8194 70.2107 51.603 70.968V75.4035H50.5212V68.8043H51.603V69.6698C51.9275 69.1289 52.4685 68.6962 53.2257 68.6962C53.5503 68.6962 53.7668 68.6961 53.875 68.8043V69.9943ZM56.1469 77.9999H55.0651V68.9125H56.1469V69.6698C56.4715 69.2371 57.2284 68.8043 57.9857 68.8043C59.933 68.8043 60.9069 70.4271 60.9069 72.2662C60.9069 74.1054 59.933 75.7281 57.9857 75.7281C57.1202 75.7281 56.4715 75.2953 56.1469 74.8625V77.9999ZM56.1469 73.4562C56.4715 74.1053 57.1207 74.5381 57.8779 74.5381C59.1761 74.5381 59.825 73.5643 59.825 72.158C59.825 70.7516 59.068 69.778 57.8779 69.778C57.2288 69.778 56.5796 70.2107 56.1469 70.8598V73.4562ZM65.7751 69.9943C65.5587 69.8861 65.3421 69.778 65.0176 69.778C64.3685 69.778 63.7195 70.2107 63.5031 70.968V75.4035H62.4213V68.8043H63.5031V69.6698C63.8277 69.1289 64.3686 68.6962 65.1259 68.6962C65.4504 68.6962 65.6669 68.6961 65.7751 68.8043V69.9943ZM67.6144 67.6143C67.1817 67.6143 66.8569 67.2898 66.8569 66.8571C66.8569 66.4244 67.1817 66.0997 67.6144 66.0997C68.0471 66.0997 68.3714 66.4244 68.3714 66.8571C68.2632 67.2898 67.939 67.6143 67.6144 67.6143ZM68.1553 75.4035H67.0735V68.8043H68.1553V75.4035ZM69.6698 73.7807C70.3189 74.3216 71.0762 74.6462 71.8335 74.6462C72.5907 74.6462 73.2396 74.4298 73.2396 73.7807C73.2396 73.2398 72.9152 73.0235 72.2661 72.8072L71.4008 72.4826C70.4272 72.158 69.7781 71.7253 69.7781 70.6435C69.7781 69.4535 70.7513 68.8043 72.0495 68.8043C72.8068 68.8043 73.4562 69.0207 73.9971 69.3452V70.5352C73.4562 70.1025 72.8068 69.778 72.0495 69.778C71.4004 69.778 70.8599 70.1026 70.8599 70.6435C70.8599 71.1844 71.1843 71.4007 71.8335 71.617L72.807 71.9416C73.7806 72.2662 74.3214 72.8071 74.3214 73.7807C74.3214 74.9707 73.2398 75.7281 71.8335 75.7281C70.968 75.7281 70.2107 75.5117 69.6698 75.079V73.7807ZM76.4851 72.3744C76.4851 73.889 77.4588 74.6462 78.6488 74.6462C79.4061 74.6462 79.9472 74.4299 80.4881 73.9972V74.9708C79.9472 75.4036 79.2978 75.5117 78.5405 75.5117C76.7014 75.5117 75.4033 74.2134 75.4033 72.158C75.4033 70.1025 76.5935 68.6962 78.3244 68.6962C80.0554 68.6962 81.029 69.9944 81.029 71.9416V72.3744H76.4851ZM76.4851 71.5089H79.8389C79.8389 70.5352 79.298 69.6698 78.2161 69.6698C77.4589 69.6698 76.7015 70.3189 76.4851 71.5089ZM88.6018 68.8043C89.2509 68.8043 89.9001 68.9125 90.3329 69.3452V70.4271C89.9001 69.9943 89.2509 69.778 88.6018 69.778C87.4118 69.778 86.4382 70.6434 86.4382 72.158C86.4382 73.6725 87.4118 74.5381 88.6018 74.5381C89.2509 74.5381 89.7919 74.3217 90.3329 73.889V74.9708C89.9001 75.4036 89.2509 75.5117 88.6018 75.5117C86.8709 75.5117 85.4646 74.2135 85.4646 72.0498C85.4646 70.1025 86.8709 68.8043 88.6018 68.8043ZM94.3353 75.6199C92.4962 75.6199 91.3064 74.2134 91.3064 72.158C91.3064 70.1025 92.4962 68.6962 94.3353 68.6962C96.1744 68.6962 97.3648 70.1025 97.3648 72.158C97.3648 74.2134 96.0662 75.6199 94.3353 75.6199ZM94.3353 69.778C93.1453 69.778 92.4965 70.7517 92.4965 72.2662C92.4965 73.6726 93.2535 74.7544 94.3353 74.7544C95.5253 74.7544 96.1746 73.7808 96.1746 72.2662C96.1746 70.7517 95.5253 69.778 94.3353 69.778ZM105.478 68.8043C106.777 68.8043 107.534 69.778 107.534 71.1844V75.5117H106.452V71.2926C106.452 70.4271 106.019 69.778 105.262 69.778C104.613 69.778 104.072 70.2107 103.856 70.968V75.5117H102.774V71.2926C102.774 70.4271 102.341 69.778 101.584 69.778C100.935 69.778 100.393 70.2107 100.177 70.968V75.5117H99.0953V68.9125H100.177V69.6698C100.502 69.1289 101.151 68.8043 101.908 68.8043C102.774 68.8043 103.423 69.237 103.639 69.8861C103.856 69.237 104.505 68.8043 105.478 68.8043ZM110.454 77.9999H109.373V68.9125H110.454V69.6698C110.779 69.2371 111.537 68.8043 112.294 68.8043C114.241 68.8043 115.215 70.4271 115.215 72.2662C115.215 74.1054 114.241 75.7281 112.294 75.7281C111.428 75.7281 110.779 75.2953 110.454 74.8625V77.9999ZM110.454 73.4562C110.779 74.1053 111.428 74.5381 112.186 74.5381C113.484 74.5381 114.133 73.5643 114.133 72.158C114.133 70.7516 113.376 69.778 112.186 69.778C111.536 69.778 110.887 70.2107 110.454 70.8598V73.4562ZM120.408 71.0761C120.408 70.2107 119.759 69.778 118.893 69.778C118.136 69.778 117.595 69.9944 117.054 70.3189V69.2371C117.487 68.9125 118.244 68.6962 119.109 68.6962C120.624 68.6962 121.598 69.5616 121.598 70.968V75.4035H120.516V74.8625C120.299 75.0789 119.542 75.5117 118.785 75.5117C117.487 75.5117 116.297 74.7544 116.297 73.4562C116.297 72.2662 117.378 71.4007 118.785 71.4007C119.434 71.4007 120.191 71.7253 120.408 71.9416V71.0761ZM120.408 73.1316C120.191 72.5907 119.542 72.2662 118.893 72.2662C118.136 72.2662 117.379 72.5908 117.379 73.4562C117.379 74.2135 118.136 74.6462 118.893 74.6462C119.542 74.6462 120.191 74.3216 120.408 73.7807V73.1316ZM123.329 68.9125H124.411V69.778C124.843 69.2371 125.492 68.8043 126.358 68.8043C127.872 68.8043 128.63 69.778 128.63 71.1844V75.5117H127.548V71.4007C127.548 70.5353 127.115 69.8861 126.141 69.8861C125.384 69.8861 124.735 70.427 124.518 71.0761V75.5117H123.436V68.9125H123.329ZM131.118 77.9999L132.091 75.5117L129.495 68.9125H130.685L132.632 74.1053L134.58 68.9125H135.77L132.199 77.9999H131.118Z" fill="#646569"/>
<path d="M90.7655 24.774C90.7655 33.4286 83.8416 40.4605 75.4033 40.4605C66.965 40.4605 60.0416 33.4286 60.0416 24.774V11.4674C60.0416 11.4674 67.3979 13.3065 67.3979 21.0957V24.774C67.3979 29.534 70.9678 33.3204 75.4033 33.3204C79.8388 33.3204 83.4087 29.534 83.4087 24.774V17.093V17.2011C83.7333 10.7102 89.2508 8.6547 90.6572 7.89742H90.7655V16.9847V24.774ZM51.2787 9.19556C53.3342 9.19556 55.2812 9.52011 57.0122 10.2774V18.4993C55.4976 17.2011 53.4423 16.4438 51.2787 16.4438C46.4104 16.4438 42.5157 20.2302 42.5157 24.9903V40.4605H35.1595V12.1165C35.1595 12.1165 38.1882 12.2247 40.1355 13.631C42.9483 10.8183 46.9514 9.19556 51.2787 9.19556ZM16.0109 33.4286C11.1426 33.4286 7.13966 29.534 7.13966 24.774C7.13966 20.0139 11.1426 16.1193 16.0109 16.1193C20.8791 16.1193 24.8821 20.0139 24.8821 24.774C24.8821 29.534 20.8791 33.4286 16.0109 33.4286ZM16.0109 9.19556C7.13987 9.19556 0 16.2275 0 24.774C0 33.4286 7.13987 40.3523 16.0109 40.3523C19.6891 40.3523 23.0428 39.1623 25.7474 37.1068C27.3701 39.8114 32.0218 40.3523 32.0218 40.3523V24.774C32.0218 16.2275 24.8819 9.19556 16.0109 9.19556ZM143.991 33.4286C139.123 33.4286 135.121 29.534 135.121 24.774C135.121 20.0139 139.123 16.1193 143.991 16.1193C148.859 16.1193 152.862 20.0139 152.862 24.774C152.862 29.534 148.859 33.4286 143.991 33.4286ZM143.991 9.19556C135.12 9.19556 127.98 16.2275 127.98 24.774C127.98 33.4286 135.12 40.3523 143.991 40.3523C147.669 40.3523 151.023 39.1623 153.728 37.1068C155.35 39.8114 160.003 40.3523 160.003 40.3523V24.774C160.003 16.2275 152.862 9.19556 143.991 9.19556ZM110.022 33.4286C105.154 33.4286 101.151 29.534 101.151 24.774C101.151 20.0139 105.154 16.1193 110.022 16.1193C114.89 16.1193 118.893 20.0139 118.893 24.774C119.001 29.534 114.998 33.4286 110.022 33.4286ZM110.022 9.19556C106.776 9.19556 103.748 10.1692 101.151 11.792V9.30372C100.827 2.81273 95.5257 0.757282 94.1193 0H94.011V40.4605C94.011 40.4605 98.7712 39.9196 100.61 37.3232C103.315 39.1623 106.56 40.3523 110.022 40.3523C118.893 40.3523 126.033 33.3204 126.033 24.774C126.141 16.2275 118.893 9.19556 110.022 9.19556Z" fill="#F5831F"/>
</g>
<defs>
<clipPath id="clip0_10_871">
<rect width="160.003" height="78" fill="white"/>
</clipPath>
</defs>
</svg>
