<svg width="48" height="48" viewBox="0 0 48 48" fill="none" xmlns="http://www.w3.org/2000/svg">
<g clip-path="url(#clip0_10_639)">
<path d="M23.9991 5.99487C20.0229 5.99487 16.7993 9.21826 16.7993 13.1949C16.7993 17.1713 20.0229 20.3947 23.9991 20.3947C27.9752 20.3947 31.1988 17.1713 31.1988 13.1949C31.1944 9.22009 27.9734 5.99927 23.9991 5.99487ZM23.9991 18.7947C20.9066 18.7947 18.3992 16.2876 18.3992 13.1949C18.3992 10.1019 20.9066 7.59485 23.9991 7.59485C27.0916 7.59485 29.5989 10.1019 29.5989 13.1949C29.5953 16.2861 27.0901 18.7914 23.9991 18.7947Z" fill="white"/>
<path d="M23.999 9.19482C21.7901 9.19482 19.999 10.9856 19.999 13.1949C19.999 15.4039 21.7901 17.1947 23.999 17.1947C26.2079 17.1947 27.9989 15.4039 27.9989 13.1949C27.9964 10.9867 26.2068 9.19739 23.999 9.19482V9.19482ZM23.999 15.5947C22.6737 15.5947 21.5989 14.5203 21.5989 13.1949C21.5989 11.8693 22.6737 10.7948 23.999 10.7948C25.3242 10.7948 26.399 11.8693 26.399 13.1949C26.3976 14.5199 25.3239 15.5933 23.999 15.5947Z" fill="white"/>
<path d="M35.9985 17.1946C36.8818 17.1939 37.5973 16.4779 37.5984 15.5946V10.7947C37.5973 9.9114 36.8818 9.19583 35.9985 9.19473H33.5978C33.2568 8.36709 32.8075 7.58853 32.2619 6.87881L33.4571 4.80606C33.6725 4.43911 33.7325 4.00112 33.6238 3.5895C33.515 3.17825 33.2466 2.82705 32.8782 2.61392L28.7189 0.213771L28.7109 0.209743C27.9466 -0.224583 26.9751 0.0405535 26.5375 0.803005L25.3393 2.88015C24.4491 2.76699 23.5483 2.76699 22.658 2.88015L21.4646 0.810695C21.0255 0.043117 20.0478 -0.223851 19.2792 0.213771L15.1177 2.61538C14.7508 2.82815 14.4835 3.17861 14.3747 3.58877C14.2659 3.99893 14.3253 4.43545 14.5388 4.80203L15.7362 6.87881C15.1906 7.58853 14.7413 8.36709 14.4003 9.19473H11.9996C11.1163 9.19583 10.4008 9.9114 10.3997 10.7947V15.5946C10.4008 16.4779 11.1163 17.1939 11.9996 17.1946H14.4003C14.7413 18.0222 15.1906 18.8012 15.7362 19.5109L14.541 21.5833C14.3256 21.9506 14.2656 22.3882 14.3743 22.7998C14.4831 23.2115 14.7515 23.5623 15.1199 23.7754L19.2868 26.1796C19.5274 26.3155 19.7995 26.3869 20.076 26.3865C20.648 26.3898 21.1771 26.0836 21.4599 25.5863L22.658 23.5088C23.5483 23.6223 24.4491 23.6223 25.3393 23.5088L26.5331 25.579C26.9726 26.3466 27.9503 26.6132 28.7189 26.1752L32.8804 23.774C33.2473 23.5608 33.5146 23.2107 33.6234 22.8006C33.7321 22.3904 33.6728 21.9535 33.4593 21.5869L32.2619 19.5109C32.8075 18.8012 33.2568 18.0222 33.5978 17.1946H35.9985ZM32.2908 16.1326C31.9356 17.1525 31.3914 18.0959 30.6872 18.9143C30.4664 19.1718 30.4324 19.5406 30.6019 19.8343L32.0788 22.3897L27.9243 24.7873L26.4522 22.2351C26.2834 21.9418 25.9476 21.7865 25.6147 21.848C24.5465 22.0429 23.452 22.0429 22.3838 21.848C22.0505 21.7862 21.7147 21.9414 21.5463 22.2351L20.0793 24.7898L15.9244 22.3867L17.3962 19.8346C17.5657 19.5409 17.5317 19.1725 17.3112 18.9147C16.6067 18.0966 16.0625 17.1529 15.7073 16.133C15.596 15.8111 15.2924 15.5946 14.9515 15.5946H11.9996V10.7947H14.9515C15.292 10.7947 15.5952 10.5786 15.7069 10.2567C16.0625 9.23721 16.6067 8.29348 17.3112 7.47537C17.5317 7.21756 17.5661 6.84878 17.3965 6.55508L15.9193 3.99966L20.0738 1.60208L21.5459 4.1542C21.714 4.44827 22.0502 4.60391 22.3834 4.54129C23.4516 4.34683 24.5461 4.34683 25.6143 4.54129C25.9472 4.60318 26.283 4.44827 26.4522 4.15457L27.9188 1.60281H27.9203L27.925 1.60391L32.0733 4.00369L30.6015 6.55581C30.432 6.84951 30.4661 7.21829 30.6865 7.47573C31.3911 8.29422 31.9352 9.23794 32.2904 10.2575C32.4025 10.5794 32.7061 10.7951 33.0466 10.7947H35.9985V15.5946H33.0466C32.7057 15.5946 32.4025 15.8107 32.2908 16.1326V16.1326Z" fill="white"/>
<path d="M2.40004 45.995H6.39963C7.07855 45.9932 7.72452 45.702 8.17567 45.1948H28.2388C29.4124 45.1952 30.5637 44.8722 31.566 44.2617L46.5613 35.1335C47.2817 34.6948 47.7833 33.9727 47.9434 33.1447C48.103 32.3423 47.9218 31.5099 47.4428 30.847C47.4285 30.8232 47.4131 30.8005 47.3966 30.7786C46.6247 29.7469 45.2786 29.3265 44.0569 29.7352L29.2495 34.6714C29.0045 34.7527 28.7478 34.7944 28.4896 34.7944H28.03C28.4102 33.7529 28.301 32.5957 27.7323 31.6443L27.6606 31.5249C26.789 30.0828 25.229 29.1998 23.5442 29.1947H19.3604C17.8846 29.1929 16.4531 28.6908 15.2996 27.7701C13.862 26.6232 12.0778 25.9973 10.2385 25.9948H8.65209C8.31556 25.0386 7.41325 24.3981 6.39963 24.3948H2.40004C1.07515 24.3962 0.00146478 25.47 0 26.7949V43.5948C0.00146478 44.9198 1.07515 45.9935 2.40004 45.995V45.995ZM14.2996 29.0197C15.7369 30.1666 17.521 30.7925 19.36 30.7947H23.5438C24.6669 30.798 25.7073 31.3865 26.2877 32.3478L26.3598 32.4672C26.7963 33.1952 26.7495 34.1151 26.2408 34.7948H21.3788C19.7991 34.7937 18.2548 35.2614 16.9413 36.1388L16.3554 36.5295C16.1148 36.6866 15.9771 36.9613 15.9947 37.248C16.0122 37.5352 16.1825 37.7908 16.4407 37.9175C16.6989 38.0442 17.0054 38.0222 17.243 37.8607L17.8289 37.47C18.8796 36.7679 20.1151 36.3937 21.3788 36.3948H28.4893C28.9195 36.3948 29.3469 36.3256 29.7548 36.1897L44.563 31.2539C45.105 31.0671 45.7059 31.2349 46.0732 31.675C46.0871 31.6985 46.1029 31.7208 46.119 31.7432C46.3544 32.0574 46.4464 32.4562 46.3724 32.8414C46.2984 33.2267 46.0652 33.5629 45.7301 33.7672L30.7348 42.8954C29.9826 43.3528 29.1191 43.5948 28.2388 43.5948H8.79967V27.5947H10.2385C11.7142 27.5966 13.146 28.099 14.2996 29.0197V29.0197ZM1.59991 26.7949C1.60027 26.3533 1.95841 25.9951 2.40004 25.9948H6.39963C6.84126 25.9951 7.1994 26.3533 7.19976 26.7949V43.5948C7.1994 44.0365 6.84126 44.3943 6.39963 44.3947H2.40004C1.95841 44.3943 1.60027 44.0365 1.59991 43.5948V26.7949Z" fill="white"/>
</g>
<defs>
<clipPath id="clip0_10_639">
<rect width="48" height="48" fill="white"/>
</clipPath>
</defs>
</svg>
