<svg width="48" height="48" viewBox="0 0 48 48" fill="none" xmlns="http://www.w3.org/2000/svg">
<path d="M32.5012 12.2475C31.1631 11.041 29.5826 10.1343 27.8656 9.58808C26.1485 9.04189 24.3347 8.86883 22.5453 9.08051C19.8446 9.38896 17.3133 10.553 15.3213 12.4025C13.3292 14.252 11.9808 16.6901 11.4731 19.3606C10.9653 22.031 11.3249 24.7938 12.4991 27.2454C13.6734 29.697 15.6009 31.7087 18 32.9868V40.5C18.0004 40.8977 18.1585 41.279 18.4398 41.5603C18.721 41.8415 19.1023 41.9996 19.5 42H21V43.5C21.0004 43.8977 21.1585 44.279 21.4398 44.5603C21.721 44.8415 22.1023 44.9996 22.5 45H25.5C25.8977 44.9996 26.279 44.8415 26.5602 44.5603C26.8414 44.279 26.9996 43.8977 27 43.5V42H28.5C28.8977 41.9996 29.279 41.8415 29.5602 41.5603C29.8414 41.279 29.9996 40.8977 30 40.5V32.9872C31.8101 32.0231 33.3608 30.6362 34.52 28.9443C35.6792 27.2525 36.4128 25.3057 36.6584 23.2696C36.904 21.2334 36.6542 19.1681 35.9305 17.2491C35.2067 15.3302 34.0303 13.6144 32.5012 12.2475ZM28.5 36V37.5H19.5V36H28.5ZM25.5011 43.5H22.5V42H25.5003L25.5011 43.5ZM26.25 40.5H19.5V39H28.5V40.5H26.25ZM28.9211 31.8542C28.7948 31.9157 28.6883 32.0115 28.6139 32.1307C28.5394 32.2498 28.4999 32.3875 28.5 32.528V34.5H24.75V31.0606L26.7802 29.0303C26.9168 28.8888 26.9924 28.6994 26.9907 28.5027C26.989 28.3061 26.9101 28.118 26.7711 27.9789C26.632 27.8399 26.4439 27.761 26.2473 27.7593C26.0506 27.7576 25.8612 27.8332 25.7197 27.9698L24 29.6895L22.2802 27.9698C22.1388 27.8332 21.9493 27.7576 21.7527 27.7593C21.556 27.761 21.3679 27.8399 21.2289 27.9789C21.0898 28.118 21.0109 28.3061 21.0092 28.5027C21.0075 28.6994 21.0831 28.8888 21.2197 29.0303L23.25 31.0606V34.5H19.5V32.528C19.5 32.3875 19.4606 32.2498 19.3861 32.1307C19.3116 32.0115 19.2052 31.9157 19.0788 31.8542C16.8895 30.7909 15.1043 29.0458 13.9916 26.8811C12.8788 24.7165 12.4986 22.2492 12.9081 19.8499C13.3175 17.4507 14.4945 15.2492 16.2622 13.5761C18.0299 11.903 20.2928 10.8488 22.7109 10.5718C23.1441 10.5234 23.5795 10.4991 24.0153 10.4989C26.78 10.4907 29.4486 11.5125 31.5007 13.365C32.8763 14.5945 33.9281 16.1438 34.5632 17.876C35.1983 19.6083 35.3971 21.4702 35.1422 23.2975C34.8872 25.1248 34.1863 26.8612 33.1014 28.3535C32.0164 29.8458 30.5807 31.048 28.9211 31.854V31.8542Z" fill="white"/>
<path d="M24 7.5C24.1989 7.5 24.3897 7.42098 24.5303 7.28033C24.671 7.13968 24.75 6.94891 24.75 6.75V3.75C24.75 3.55109 24.671 3.36032 24.5303 3.21967C24.3897 3.07902 24.1989 3 24 3C23.8011 3 23.6103 3.07902 23.4697 3.21967C23.329 3.36032 23.25 3.55109 23.25 3.75V6.75C23.25 6.94891 23.329 7.13968 23.4697 7.28033C23.6103 7.42098 23.8011 7.5 24 7.5Z" fill="white"/>
<path d="M12.8631 11.6736C12.9323 11.7452 13.0151 11.8024 13.1066 11.8417C13.1981 11.881 13.2965 11.9017 13.3961 11.9025C13.4956 11.9034 13.5944 11.8844 13.6866 11.8467C13.7787 11.809 13.8625 11.7533 13.9329 11.6829C14.0033 11.6125 14.059 11.5287 14.0967 11.4366C14.1344 11.3444 14.1534 11.2456 14.1525 11.1461C14.1517 11.0465 14.131 10.9481 14.0917 10.8566C14.0524 10.7651 13.9952 10.6823 13.9236 10.6131L11.8022 8.49166C11.733 8.42003 11.6502 8.36289 11.5587 8.32359C11.4672 8.28428 11.3688 8.26359 11.2692 8.26272C11.1696 8.26186 11.0709 8.28083 10.9787 8.31855C10.8865 8.35626 10.8028 8.41195 10.7324 8.48237C10.6619 8.55278 10.6063 8.63652 10.5685 8.7287C10.5308 8.82087 10.5119 8.91963 10.5127 9.01921C10.5136 9.1188 10.5343 9.21721 10.5736 9.30871C10.6129 9.40022 10.67 9.48298 10.7417 9.55216L12.8631 11.6736Z" fill="white"/>
<path d="M9 21H6C5.80109 21 5.61032 21.079 5.46967 21.2197C5.32902 21.3603 5.25 21.5511 5.25 21.75C5.25 21.9489 5.32902 22.1397 5.46967 22.2803C5.61032 22.421 5.80109 22.5 6 22.5H9C9.19891 22.5 9.38968 22.421 9.53033 22.2803C9.67098 22.1397 9.75 21.9489 9.75 21.75C9.75 21.5511 9.67098 21.3603 9.53033 21.2197C9.38968 21.079 9.19891 21 9 21Z" fill="white"/>
<path d="M12.8631 31.8263L10.7417 33.9477C10.67 34.0169 10.6129 34.0996 10.5736 34.1912C10.5343 34.2827 10.5136 34.3811 10.5127 34.4807C10.5119 34.5802 10.5308 34.679 10.5685 34.7712C10.6063 34.8633 10.6619 34.9471 10.7324 35.0175C10.8028 35.0879 10.8865 35.1436 10.9787 35.1813C11.0709 35.219 11.1696 35.238 11.2692 35.2371C11.3688 35.2363 11.4672 35.2156 11.5587 35.1763C11.6502 35.137 11.733 35.0798 11.8022 35.0082L13.9236 32.8868C14.0602 32.7453 14.1358 32.5559 14.1341 32.3592C14.1324 32.1626 14.0535 31.9744 13.9145 31.8354C13.7754 31.6963 13.5873 31.6175 13.3907 31.6158C13.194 31.614 13.0046 31.6896 12.8631 31.8263Z" fill="white"/>
<path d="M36.1978 8.49166L34.0764 10.6131C34.0047 10.6823 33.9476 10.7651 33.9083 10.8566C33.869 10.9481 33.8483 11.0465 33.8474 11.1461C33.8466 11.2456 33.8656 11.3444 33.9033 11.4366C33.941 11.5287 33.9967 11.6125 34.0671 11.6829C34.1375 11.7533 34.2212 11.809 34.3134 11.8467C34.4056 11.8844 34.5043 11.9034 34.6039 11.9025C34.7035 11.9017 34.8019 11.881 34.8934 11.8417C34.9849 11.8024 35.0677 11.7452 35.1369 11.6736L37.2583 9.55216C37.33 9.48298 37.3871 9.40022 37.4264 9.30871C37.4657 9.21721 37.4864 9.1188 37.4873 9.01921C37.4881 8.91963 37.4692 8.82087 37.4314 8.7287C37.3937 8.63652 37.338 8.55278 37.2676 8.48237C37.1972 8.41195 37.1135 8.35626 37.0213 8.31855C36.9291 8.28083 36.8304 8.26186 36.7308 8.26272C36.6312 8.26359 36.5328 8.28428 36.4413 8.32359C36.3498 8.36289 36.267 8.42003 36.1978 8.49166Z" fill="white"/>
<path d="M35.1368 31.8263C34.9953 31.6896 34.8059 31.614 34.6092 31.6158C34.4126 31.6175 34.2244 31.6963 34.0854 31.8354C33.9463 31.9744 33.8675 32.1626 33.8658 32.3592C33.864 32.5559 33.9396 32.7453 34.0763 32.8868L36.1977 35.0082C36.3392 35.1448 36.5286 35.2204 36.7253 35.2187C36.9219 35.217 37.11 35.1381 37.2491 34.9991C37.3881 34.86 37.467 34.6719 37.4687 34.4753C37.4704 34.2786 37.3948 34.0892 37.2582 33.9477L35.1368 31.8263Z" fill="white"/>
<path d="M42 21H39C38.8011 21 38.6103 21.079 38.4697 21.2197C38.329 21.3603 38.25 21.5511 38.25 21.75C38.25 21.9489 38.329 22.1397 38.4697 22.2803C38.6103 22.421 38.8011 22.5 39 22.5H42C42.1989 22.5 42.3897 22.421 42.5303 22.2803C42.671 22.1397 42.75 21.9489 42.75 21.75C42.75 21.5511 42.671 21.3603 42.5303 21.2197C42.3897 21.079 42.1989 21 42 21Z" fill="white"/>
</svg>
