<svg width="48" height="48" viewBox="0 0 48 48" fill="none" xmlns="http://www.w3.org/2000/svg">
<path d="M47.9895 44.6128L45.1773 29.1068C45.1079 28.7239 44.7412 28.4698 44.3584 28.5393C43.9755 28.6086 43.7215 28.9754 43.7909 29.3582L44.9799 35.9144L35.8129 25.2663L41.9784 23.8902L42.8914 24.3984L43.2878 26.5843C43.3571 26.9672 43.7238 27.2211 44.1067 27.1519C44.4895 27.0825 44.7435 26.7157 44.6742 26.333L44.2182 23.8191C44.1806 23.6116 44.052 23.4319 43.8678 23.3293L42.4294 22.5286C42.4294 22.5286 42.4294 22.5286 42.4293 22.5286L37.8836 19.9982H37.8835L34.3761 18.0458C34.376 18.0458 34.3759 18.0457 34.3759 18.0457C34.3756 18.0456 34.3754 18.0454 34.3752 18.0452C34.3481 18.0302 34.3203 18.0173 34.2919 18.0061C34.283 18.0026 34.2739 18.0003 34.2648 17.9972C34.245 17.9903 34.2252 17.9836 34.205 17.9785C34.1936 17.9755 34.182 17.9739 34.1704 17.9716C34.1523 17.968 34.1341 17.9645 34.1159 17.9623C34.1035 17.9608 34.0912 17.9604 34.0787 17.9596C34.061 17.9585 34.0433 17.9575 34.0256 17.9577C34.0129 17.9578 34.0004 17.9588 33.9877 17.9595C33.9703 17.9606 33.9528 17.9622 33.9354 17.9647C33.9227 17.9665 33.9101 17.9687 33.8975 17.9712C33.8804 17.9746 33.8636 17.9785 33.8467 17.9831C33.834 17.9866 33.8215 17.9904 33.809 17.9945C33.7927 18 33.7766 18.0063 33.7605 18.013C33.7482 18.0183 33.7359 18.0235 33.7236 18.0295C33.7183 18.0321 33.7127 18.0339 33.7075 18.0366L32.098 18.8755C33.2954 16.6429 33.9002 14.4806 33.9002 12.4119C33.9002 6.97769 29.4792 2.55664 24.045 2.55664C18.6108 2.55664 14.1903 6.97769 14.1903 12.4119C14.1903 14.5006 14.8064 16.6849 16.0272 18.9406L14.293 18.0366C14.2876 18.0338 14.2819 18.0319 14.2765 18.0293C14.2647 18.0235 14.2525 18.0184 14.2405 18.0133C14.2242 18.0065 14.2078 18.0001 14.1912 17.9945C14.179 17.9904 14.1665 17.9867 14.154 17.9832C14.1372 17.9786 14.1202 17.9746 14.1031 17.9712C14.0905 17.9687 14.0777 17.9665 14.065 17.9647C14.0478 17.9622 14.0306 17.9607 14.0133 17.9596C14.0004 17.9588 13.9874 17.9579 13.9746 17.9577C13.9573 17.9575 13.9402 17.9585 13.9229 17.9595C13.91 17.9604 13.8971 17.9608 13.8841 17.9624C13.8666 17.9645 13.8492 17.968 13.8319 17.9713C13.8196 17.9738 13.8072 17.9755 13.7951 17.9786C13.7758 17.9835 13.757 17.99 13.7382 17.9965C13.7283 17.9998 13.7183 18.0025 13.7084 18.0063C13.6801 18.0175 13.6525 18.0304 13.6255 18.0453C13.6252 18.0454 13.625 18.0456 13.6247 18.0458C13.6246 18.0458 13.6246 18.0459 13.6245 18.0459L4.13303 23.3293C3.94872 23.4319 3.8201 23.6116 3.7826 23.8191L1.10914 38.5599C1.03977 38.9427 1.29383 39.3094 1.6767 39.3788C2.05967 39.4484 2.42623 39.1941 2.4956 38.8112L3.29763 34.389L12.4158 29.5689L11.6825 39.0371L1.63658 43.5478L1.99011 41.5978C2.05948 41.2151 1.80551 40.8484 1.42264 40.7789C1.04005 40.7097 0.673205 40.9636 0.603737 41.3465L0.0113326 44.6129C-0.0353547 44.8702 0.0643949 45.1322 0.270269 45.2933C0.39655 45.3922 0.54983 45.4431 0.704517 45.4431C0.802298 45.4431 0.900642 45.4227 0.992985 45.3813L12.3524 40.2808L23.7071 45.3791C23.7074 45.3792 23.7077 45.3794 23.708 45.3795L23.7118 45.3812C23.7182 45.3841 23.7248 45.3861 23.7314 45.3888C23.7418 45.3931 23.7523 45.3971 23.763 45.401C23.7732 45.4046 23.7835 45.4083 23.794 45.4115C23.8008 45.4135 23.8075 45.4153 23.8143 45.4172C23.8231 45.4196 23.8318 45.422 23.8408 45.424C23.8554 45.4274 23.8702 45.43 23.885 45.4325C23.892 45.4336 23.8989 45.4353 23.906 45.4362C23.9108 45.4369 23.9156 45.4375 23.9204 45.4381C23.9439 45.4408 23.9677 45.4422 23.9914 45.4425C23.9944 45.4425 23.9974 45.4431 24.0004 45.4431C24.0019 45.4431 24.0034 45.4428 24.0049 45.4428C24.0334 45.4426 24.0617 45.4403 24.0901 45.4366C24.0935 45.4361 24.0971 45.4363 24.1007 45.4358C24.106 45.435 24.1113 45.4332 24.1167 45.4324C24.1387 45.4287 24.1608 45.4239 24.1825 45.418C24.1885 45.4164 24.1946 45.4155 24.2006 45.4138C24.2013 45.4136 24.2018 45.4136 24.2025 45.4134C24.2045 45.4129 24.2062 45.4118 24.2082 45.4112C24.2356 45.4028 24.2625 45.3931 24.289 45.3812L35.6481 40.2807L47.0075 45.3811C47.0184 45.386 47.0297 45.3896 47.0409 45.3939C47.052 45.3983 47.0629 45.403 47.0742 45.4068C47.0889 45.4117 47.104 45.4153 47.119 45.4192C47.1283 45.4216 47.1373 45.4246 47.1468 45.4266C47.1649 45.4305 47.1831 45.433 47.2014 45.4356C47.208 45.4364 47.2144 45.4379 47.2209 45.4387C47.246 45.4414 47.271 45.4428 47.296 45.4428H47.2961C47.2962 45.4428 47.2963 45.4428 47.2963 45.4428C47.3305 45.4428 47.3647 45.4393 47.3989 45.4343C47.4067 45.4332 47.4146 45.432 47.4225 45.4305C47.4561 45.4244 47.4895 45.4165 47.5225 45.4053C47.5246 45.4045 47.5266 45.4035 47.5287 45.4028C47.5505 45.3953 47.5721 45.3869 47.5933 45.3769C47.5995 45.374 47.6048 45.3698 47.6109 45.3668C47.6286 45.3578 47.6457 45.3476 47.6628 45.337C47.6798 45.3266 47.6968 45.3161 47.7128 45.3042C47.7184 45.3001 47.7245 45.2972 47.7301 45.293C47.7425 45.2833 47.7532 45.2722 47.7649 45.2617C47.7741 45.2533 47.7838 45.2454 47.7927 45.2367C47.8141 45.2156 47.8336 45.1931 47.8517 45.1698C47.855 45.1654 47.8591 45.1615 47.8625 45.157C47.8835 45.1285 47.902 45.0986 47.9184 45.0675C47.923 45.0588 47.9265 45.0495 47.9308 45.0405C47.9417 45.0176 47.9517 44.9946 47.9601 44.9707C47.9644 44.9587 47.9677 44.9465 47.9713 44.9341C47.9777 44.9122 47.983 44.8899 47.9872 44.8673C47.9897 44.8544 47.9919 44.8414 47.9936 44.8283C47.9967 44.8043 47.9981 44.7801 47.9988 44.7558C47.999 44.7443 48 44.7328 47.9997 44.7211C47.9991 44.6853 47.9961 44.649 47.9895 44.6128ZM35.6058 20.3428L34.8836 20.5118L34.8374 19.915L35.6058 20.3428ZM34.0689 28.239L31.1266 25.9416C30.923 25.7827 30.6489 25.7479 30.4119 25.8509L24.7078 28.3336V27.5615C25.134 27.2144 26.1023 26.396 27.2629 25.2214L33.6189 22.4291L34.0689 28.239ZM33.4136 19.779L33.5036 20.9408L29.533 22.6852C29.9272 22.1964 30.2948 21.7103 30.636 21.2269L33.4136 19.779ZM14.5872 19.779L17.5075 21.3013C17.94 21.9095 18.4137 22.522 18.93 23.1386C19.3814 23.6777 19.8313 24.1786 20.2642 24.6371L14.2773 23.7804L14.5872 19.779ZM12.5444 27.9071L3.61722 32.6261L4.05204 30.2285L4.06319 30.1667L12.7228 25.6029L12.5444 27.9071ZM12.8516 23.9424L4.38269 28.4058L5.10944 24.3985L13.1635 19.9151L12.9611 22.529L12.8516 23.9424ZM13.0932 39.0688L13.7603 30.4562L22.0824 43.105L13.0932 39.0688ZM23.2958 36.3535L18.9559 29.5137L23.2958 30.0333V36.3535ZM23.2958 28.6142L17.6494 27.9381C17.3795 27.9064 17.1146 28.0319 16.9696 28.2621C16.8246 28.4923 16.825 28.7853 16.9708 29.0152L23.2958 38.9834V42.386L13.9378 28.1628L14.1683 25.1883L21.9413 26.3005C22.5276 26.8445 23.0028 27.2485 23.2957 27.4897V28.6142H23.2958ZM24.0455 26.2782C22.2665 24.7777 15.5994 18.7319 15.5994 12.412C15.5993 7.75468 19.3883 3.9657 24.0455 3.9657C28.7028 3.9657 32.4918 7.75468 32.4918 12.412C32.4918 18.7319 25.8246 24.7778 24.0455 26.2782ZM24.7049 43.6499V40.5227L26.8111 42.7042L24.7049 43.6499ZM28.1774 42.0907L24.7049 38.4941V29.8713L30.5897 27.3101L34.2161 30.1416L34.9075 39.0688L28.1774 42.0907ZM34.9935 21.9329L37.4362 21.3617L39.1685 22.326L40.127 22.8596L35.1512 23.9701L34.9935 21.9329ZM36.3183 39.0371L35.7683 31.9355L44.8189 42.854L36.3183 39.0371ZM35.5798 29.5002L35.3883 27.028L35.3803 26.9233L45.4762 38.6504L46.1235 42.2198L35.5798 29.5002Z" fill="white"/>
<path d="M24.0456 8.05762C23.6565 8.05762 23.3411 8.37299 23.3411 8.76215C23.3411 9.1513 23.6565 9.46667 24.0456 9.46667C25.6696 9.46667 26.9908 10.7879 26.9908 12.4119C26.9908 14.0358 25.6696 15.3572 24.0456 15.3572C22.4216 15.3572 21.1004 14.0359 21.1004 12.4119C21.1004 11.635 21.4002 10.902 21.9447 10.3477C22.2174 10.0702 22.2135 9.62417 21.9359 9.35155C21.6583 9.07883 21.2122 9.08268 20.9396 9.36036C20.1347 10.1796 19.6914 11.2634 19.6914 12.4119C19.6914 14.8128 21.6447 16.7662 24.0457 16.7662C26.4467 16.7662 28.4 14.8128 28.4 12.4119C28.3999 10.0109 26.4466 8.05762 24.0456 8.05762Z" fill="white"/>
</svg>
