<svg width="48" height="48" viewBox="0 0 48 48" fill="none" xmlns="http://www.w3.org/2000/svg">
<g clip-path="url(#clip0_10_647)">
<path d="M22.615 35.5209C22.254 35.256 21.746 35.3333 21.4807 35.6945L21.3805 35.8309C21.1154 36.1919 21.1926 36.6991 21.5531 36.9647C21.698 37.0715 21.8667 37.1231 22.0339 37.1231C22.2826 37.1231 22.5281 37.0091 22.6871 36.7936L22.7889 36.6554C23.0541 36.2941 22.9763 35.7862 22.615 35.5209Z" fill="white"/>
<path d="M22.8268 43.2413L20.7397 39.4461L22.6883 36.792C22.9537 36.4308 22.8758 35.9228 22.5145 35.6575C22.1533 35.3921 21.6454 35.47 21.3802 35.8314L19.1247 38.9032C18.9377 39.1578 18.9156 39.4977 19.0677 39.7746L21.4047 44.0234V44.0233C21.5526 44.2919 21.8302 44.4439 22.1166 44.4439C22.2488 44.4438 22.3829 44.4114 22.5069 44.3433C22.8996 44.1274 23.0428 43.634 22.8268 43.2413Z" fill="white"/>
<path d="M28.8754 38.9034L26.6291 35.8441C26.4429 35.5905 26.1272 35.4673 25.8184 35.5284C25.5097 35.589 25.264 35.8229 25.1876 36.128C25.129 36.3624 25.1779 36.6105 25.3209 36.8052L27.26 39.4463L25.1871 43.2157C25.1213 43.3354 25.0867 43.4704 25.0867 43.6072C25.0867 43.9776 25.3375 44.3011 25.6963 44.3932C25.7635 44.4106 25.8313 44.4189 25.8983 44.4189C26.1888 44.4189 26.4641 44.2622 26.6094 43.9984L28.9323 39.775C29.0846 39.498 29.0623 39.158 28.8754 38.9034Z" fill="white"/>
<path d="M30.1614 26.1498C29.8945 26.0096 29.5718 26.0287 29.3234 26.1999C28.8407 26.5324 28.3928 26.8848 27.9921 27.2469C25.8081 29.2213 23.7331 28.9541 23.6518 28.9425C23.6029 28.9348 23.5531 28.9312 23.5039 28.9328C22.6407 28.955 21.0845 28.1662 19.4381 26.8732C19.1863 26.6755 18.9281 26.4871 18.6703 26.3131C18.4217 26.1451 18.1004 26.1281 17.8355 26.269C17.5704 26.4098 17.4048 26.6854 17.4048 26.9856V29.7696C17.4048 30.0158 17.5168 30.2485 17.7088 30.4026C17.7315 30.4209 17.7551 30.4378 17.7795 30.4534L23.534 34.2986C23.5349 34.2992 23.5358 34.2999 23.5367 34.3006L23.5519 34.3107C23.6874 34.4003 23.8435 34.4456 24.0001 34.4456C24.1319 34.4456 24.2637 34.4137 24.3842 34.3492C24.4096 34.3357 24.434 34.3207 24.4574 34.3048C24.4601 34.303 24.4629 34.3012 24.4657 34.2994C24.4689 34.2973 24.472 34.2952 24.4752 34.293L30.2161 30.4568C30.2392 30.4422 30.2617 30.4265 30.2833 30.4096C30.4803 30.2558 30.5954 30.0199 30.5954 29.7699V26.8683C30.5954 26.5666 30.4284 26.2901 30.1614 26.1498ZM28.9722 29.3356L24 32.6581L19.0279 29.3355V28.5974C20.2386 29.4772 22.0195 30.5564 23.4713 30.5563C23.4743 30.5563 23.4776 30.5563 23.4807 30.5563C23.9681 30.6102 26.4537 30.7567 28.9724 28.5472V29.3356H28.9722Z" fill="white"/>
<path d="M24.8007 33.5008C24.7472 33.179 24.506 32.9205 24.1885 32.8448C23.8709 32.7695 23.5392 32.8909 23.3461 33.154L21.4807 35.6947C21.2154 36.056 21.2932 36.5639 21.6546 36.8291C21.7993 36.9355 21.9675 36.9866 22.1343 36.9866C22.3838 36.9866 22.63 36.8718 22.7892 36.6551L24.6448 34.1278C24.7504 33.9898 24.8119 33.8181 24.8119 33.6345C24.8118 33.5899 24.808 33.5449 24.8007 33.5008Z" fill="white"/>
<path d="M36.364 7.33793C36.3479 7.2108 35.9677 4.46711 33.3851 3.38476C33.4601 2.90289 33.4522 2.28357 33.1463 1.68104C32.7351 0.871226 31.9237 0.343506 30.7345 0.112318C30.6835 0.102381 30.6317 0.0974121 30.5797 0.0974121H19.6871C15.2642 0.0974121 11.6658 3.69573 11.6658 8.11887V12.393C11.6658 13.5066 12.0454 14.5925 12.7344 15.4505C13.0761 15.8759 13.4968 16.6189 13.5603 17.7422C13.585 18.1808 13.9522 18.5197 14.3934 18.5075C14.8326 18.4951 15.1821 18.1355 15.1821 17.6963V12.1238C15.7331 9.84481 17.6138 9.40127 17.9372 9.34137H21.4605C21.875 9.34137 22.2825 9.27809 22.672 9.15321C23.342 8.93834 24.4048 8.5429 25.1786 8.24899C25.6963 8.05221 26.2695 8.04499 26.7924 8.22874L30.5643 9.55287C32.45 10.2485 32.7866 11.9039 32.8283 12.164V18.8519C32.8283 19.2766 33.1558 19.629 33.5793 19.6606C33.5999 19.6621 33.6202 19.663 33.6404 19.663C34.0385 19.6629 34.3822 19.3712 34.4425 18.9716C34.4457 18.9507 34.7697 16.8575 35.8146 15.1816C36.1782 14.5982 36.3704 13.9331 36.3704 13.2581V7.4404C36.3704 7.40618 36.3683 7.37196 36.364 7.33793ZM34.7473 13.2577C34.7473 13.6202 34.645 13.9798 34.4513 14.2996V12.1085C34.4513 12.0792 34.4497 12.05 34.4465 12.0208C34.4338 11.903 34.0984 9.12181 31.1186 8.02718C31.1149 8.02587 31.1112 8.02455 31.1076 8.02324L27.3299 6.69705C26.904 6.54752 26.4584 6.47289 26.0131 6.47289C25.5342 6.47289 25.0556 6.55924 24.6022 6.73174C23.5188 7.1433 22.6798 7.44621 22.1763 7.60765C21.9473 7.68105 21.7064 7.71836 21.4604 7.71836H17.8716C17.8368 7.71836 17.8019 7.72061 17.7673 7.72502C17.63 7.74283 14.3931 8.20315 13.5785 11.8542C13.5655 11.9123 13.559 11.9715 13.559 12.031V13.7012C13.3822 13.2928 13.2887 12.8468 13.2887 12.3931V8.11905C13.2887 4.59105 16.159 1.7207 19.6869 1.7207H30.4977C30.9453 1.81604 31.4892 2.0117 31.6956 2.40976C31.9482 2.89698 31.6604 3.56786 31.6602 3.56842C31.5564 3.7892 31.5576 4.04486 31.6631 4.2647C31.7686 4.48455 31.9676 4.64523 32.2048 4.70233C34.2708 5.19967 34.6922 7.18127 34.7472 7.5018V13.2577H34.7473Z" fill="white"/>
<path d="M34.4465 12.0208C34.4337 11.903 34.0984 9.12176 31.1185 8.02713C31.1149 8.02582 31.1112 8.02451 31.1076 8.02319L27.3299 6.697C26.4458 6.38669 25.4772 6.39906 24.602 6.7315C23.5187 7.14307 22.6797 7.44597 22.1762 7.6075C21.9471 7.68091 21.7063 7.71813 21.4603 7.71813H17.8714C17.8367 7.71813 17.8018 7.72038 17.7672 7.72479C17.6298 7.7426 14.3929 8.20291 13.5783 11.854C13.5654 11.912 13.5588 11.9713 13.5588 12.0307V19.0072C13.5588 19.0132 13.5589 19.0192 13.559 19.0252C13.5644 19.2676 13.7358 24.9908 17.6902 27.6082L17.7107 27.6226C17.7276 27.6346 17.7446 27.6466 17.7623 27.6585C17.9878 27.8108 18.2142 27.976 18.4356 28.1499C19.5876 29.0545 21.7586 30.5564 23.4712 30.5564C23.4744 30.5564 23.4774 30.5564 23.4807 30.5564C23.5737 30.5666 23.7397 30.5803 23.9649 30.5803C24.9355 30.5803 27.0063 30.326 29.0804 28.451C29.4285 28.1364 29.8199 27.8288 30.2442 27.5364L30.3049 27.494C30.3247 27.48 30.3444 27.466 30.3649 27.4523C31.6839 26.5663 33.9684 24.2803 34.4481 18.924C34.4502 18.9 34.4513 18.8757 34.4513 18.8515V12.1085C34.4513 12.0792 34.4496 12.05 34.4465 12.0208ZM32.8281 18.8149C32.3858 23.6488 30.3262 25.5228 29.4598 26.1047C29.4291 26.1254 29.3987 26.1468 29.3683 26.1682L29.3233 26.1999C28.8406 26.5324 28.3926 26.8847 27.992 27.2469C25.8161 29.2139 23.7479 28.9559 23.6465 28.9417C23.5993 28.9346 23.5515 28.9316 23.5038 28.933C22.6406 28.9551 21.0844 28.1664 19.438 26.8734C19.1862 26.6755 18.928 26.4871 18.6706 26.3134L18.6506 26.2993C18.6311 26.2854 18.6117 26.2717 18.5888 26.2565C15.3977 24.1444 15.189 19.2018 15.1819 18.9955V12.1236C15.735 9.83632 17.6273 9.39785 17.9358 9.34123H21.4604C21.8749 9.34123 22.2824 9.27795 22.6719 9.15307C23.3419 8.93819 24.4048 8.54276 25.1785 8.24885C25.6962 8.05207 26.2694 8.04485 26.7922 8.2286L30.5642 9.55273C32.4499 10.2484 32.7864 11.9038 32.8282 12.1639V18.8149H32.8281Z" fill="white"/>
<path d="M24.7259 33.2716C24.5994 33.0186 24.3504 32.8498 24.0687 32.8258C23.7875 32.8025 23.5132 32.9262 23.3458 33.1542L21.4018 35.8019C21.1368 36.163 21.2142 36.6706 21.5751 36.936C21.7198 37.0425 21.8883 37.0939 22.0553 37.0939C22.3043 37.0939 22.5501 36.9797 22.7092 36.7638L24.6533 34.1258C24.7561 33.9863 24.8116 33.808 24.8116 33.6347C24.8117 33.5088 24.7822 33.3843 24.7259 33.2716Z" fill="white"/>
<path d="M24.7779 46.3383C24.473 46.0195 23.9693 46.0025 23.6438 46.3004L23.4582 46.4701C23.1804 46.724 23.1138 47.1358 23.2974 47.4645L23.3031 47.4747C23.427 47.6968 23.6481 47.8479 23.9 47.8829C23.9373 47.888 23.9746 47.8906 24.0117 47.8906C24.2254 47.8906 24.4323 47.8061 24.5856 47.6528L24.7653 47.4729C25.0772 47.161 25.0828 46.657 24.7779 46.3383Z" fill="white"/>
<path d="M24.5419 46.47L24.3563 46.3003C24.0308 46.0026 23.527 46.0195 23.2222 46.3383C22.9172 46.6572 22.9228 47.1613 23.2348 47.4731L23.4148 47.653C23.5681 47.8063 23.7749 47.8907 23.9886 47.8907C24.0267 47.8907 24.0651 47.8881 24.1034 47.8825C24.3562 47.8464 24.5772 47.6933 24.7001 47.4695L24.7058 47.4592C24.8857 47.1311 24.818 46.7225 24.5419 46.47Z" fill="white"/>
<path d="M24.5555 46.4827L24.5545 46.4818C24.4292 46.3646 24.2671 46.2873 24.0885 46.2678C23.8493 46.2417 23.6163 46.3227 23.4469 46.4805L23.4445 46.4827C23.2804 46.6323 23.1849 46.8428 23.1801 47.0648C23.1753 47.287 23.2618 47.5012 23.4192 47.6578L23.4277 47.6663C23.5861 47.8237 23.793 47.9024 24 47.9024C24.2077 47.9024 24.4154 47.8231 24.5737 47.6648L24.5822 47.6563C24.739 47.4994 24.8249 47.2854 24.8197 47.0638C24.8148 46.8421 24.7193 46.6322 24.5555 46.4827Z" fill="white"/>
<path d="M24.2634 32.8488C23.9273 32.7412 23.5585 32.866 23.3538 33.1538C23.1249 33.4761 23.1627 33.9153 23.4416 34.1956C23.5985 34.3532 23.8068 34.4341 24.0167 34.4341C24.1798 34.4341 24.3436 34.3853 24.485 34.2857C24.701 34.1338 24.8295 33.8863 24.8295 33.6221V33.6201C24.8295 33.267 24.5998 32.9562 24.2634 32.8488Z" fill="white"/>
<path d="M24.6595 33.1473L24.6526 33.1379C24.4444 32.8561 24.0787 32.7401 23.746 32.8497C23.4133 32.9593 23.1885 33.2701 23.1885 33.6204V33.6343C23.1885 33.933 23.3562 34.2054 23.6194 34.3468C23.7387 34.4108 23.8703 34.4424 24.0018 34.4424C24.1603 34.4424 24.3186 34.3964 24.4548 34.3063C24.6403 34.1834 24.7673 33.9898 24.806 33.7707C24.8448 33.5517 24.7918 33.3262 24.6595 33.1473Z" fill="white"/>
<path d="M33.6543 30.5977C33.5702 30.3754 33.3929 30.2012 33.1692 30.1212L30.0575 29.0057C30.0323 28.9967 30.0062 28.9887 29.9801 28.9823C29.758 28.9267 29.5227 28.9675 29.3324 29.0948L23.5669 32.9474C23.5654 32.9484 23.5637 32.9494 23.5622 32.9506L24.0149 33.6237L23.552 32.9574C23.3829 33.0692 23.2618 33.2407 23.2127 33.4374C23.1857 33.5454 23.1812 33.6582 23.1995 33.768C23.2204 33.8934 23.2705 34.0123 23.3459 34.1149L27.567 39.8638C27.7204 40.0729 27.9637 40.1951 28.221 40.1951C28.2386 40.1951 28.2563 40.1944 28.274 40.1932C28.5505 40.175 28.7987 40.0174 28.9322 39.7744L33.6063 31.2762C33.7209 31.0679 33.7385 30.8198 33.6543 30.5977ZM28.1227 37.8783L25.156 33.8376L29.8943 30.6714L31.7255 31.3279L28.1227 37.8783Z" fill="white"/>
<path d="M24.7996 33.4944C24.7614 33.2765 24.6361 33.0837 24.4523 32.9604L18.6677 29.095C18.4835 28.9718 18.2566 28.9296 18.0403 28.9776C18.0071 28.9849 17.9745 28.9945 17.9425 29.0059L14.8308 30.1213C14.6071 30.2015 14.4299 30.3757 14.3458 30.5979C14.2617 30.8202 14.2791 31.068 14.3937 31.2763L19.0678 39.7746C19.2013 40.0174 19.4494 40.1752 19.7259 40.1934C19.7435 40.1945 19.7612 40.1951 19.7789 40.1951C20.0361 40.1951 20.2794 40.0728 20.4331 39.8637L22.6885 36.7919C22.6903 36.7896 22.6921 36.7871 22.6938 36.7845L24.6543 34.1144C24.7851 33.9361 24.8376 33.7123 24.7996 33.4944ZM21.3803 35.831C21.3783 35.8336 21.3765 35.8363 21.3745 35.8389L19.877 37.8784L16.2742 31.328L18.1055 30.6716L22.8438 33.8378L21.3803 35.831Z" fill="white"/>
<path d="M47.9599 44.452L46.913 38.1301C46.583 36.1378 45.1984 34.4733 43.2994 33.7865L33.1712 30.1222C32.859 30.0093 32.5099 30.0978 32.2892 30.3455C32.0685 30.5933 32.0208 30.9504 32.169 31.2475L34.2836 35.4882L32.2086 35.5202C31.9269 35.5246 31.6675 35.6746 31.5236 35.9169C31.3796 36.1591 31.3715 36.4585 31.5022 36.7082L32.3533 38.3332L23.6436 46.3007C23.6347 46.3089 23.626 46.3171 23.6174 46.3257L23.4376 46.5055C23.1829 46.7603 23.1266 47.1525 23.2995 47.4687L23.3059 47.4802C23.4483 47.7403 23.7213 47.9023 24.0179 47.9023H45.034C45.9071 47.9023 46.7315 47.5204 47.296 46.8546C47.8606 46.1888 48.1026 45.313 47.9599 44.452ZM46.0583 45.8049C45.8026 46.1064 45.4293 46.2792 45.0341 46.2792H26.0716L33.9102 39.1089C34.1821 38.8603 34.2524 38.4599 34.0814 38.1336L33.5519 37.1227L35.5981 37.0912C35.877 37.087 36.1339 36.9397 36.279 36.7014C36.4238 36.463 36.4363 36.1672 36.3119 35.9175L34.5271 32.3385L42.7477 35.3125C44.0954 35.8 45.078 36.9813 45.3121 38.3951L46.359 44.717C46.359 44.7171 46.359 44.7171 46.359 44.7171C46.4235 45.107 46.314 45.5034 46.0583 45.8049Z" fill="white"/>
<path d="M24.5625 46.4891L24.5531 46.4806C24.2319 46.1898 23.7386 46.2027 23.4329 46.51L23.4245 46.5186C23.1934 46.7511 23.1249 47.0998 23.2507 47.4025C23.3766 47.7052 23.6723 47.9023 24 47.9023H24.0178C24.3534 47.9023 24.6544 47.6957 24.775 47.3827C24.8958 47.0695 24.8113 46.7143 24.5625 46.4891Z" fill="white"/>
<path d="M24.5371 46.4659C24.3529 46.3001 24.1031 46.2274 23.8584 46.2691C23.614 46.3105 23.4019 46.4615 23.2826 46.6788L23.277 46.689C23.1059 47.0009 23.158 47.3879 23.4054 47.6437L23.4083 47.6467C23.5673 47.811 23.7791 47.8939 23.9916 47.8939C24.1871 47.8939 24.3831 47.8236 24.5383 47.6817L24.5469 47.6741C24.6206 47.6069 24.6813 47.5265 24.7259 47.4372C24.8893 47.1107 24.8085 46.71 24.5371 46.4659Z" fill="white"/>
<path d="M24.5721 46.5154L24.5688 46.5119C24.5666 46.5098 24.5644 46.5075 24.5623 46.5055L24.3823 46.3257C24.3738 46.3171 24.3651 46.3088 24.3563 46.3008L15.6466 38.3333L16.4978 36.7083C16.6286 36.4587 16.6204 36.1592 16.4765 35.917C16.3325 35.6748 16.0732 35.5247 15.7915 35.5203L13.7163 35.4883L15.831 31.2476C15.9791 30.9506 15.9313 30.5933 15.7107 30.3456C15.4901 30.0978 15.1406 30.0092 14.8287 30.1223L4.70056 33.7866C2.80156 34.4733 1.41687 36.1378 1.08696 38.1302L0.0400501 44.4521C-0.102544 45.3134 0.139519 46.1891 0.704083 46.8548C1.26874 47.5205 2.09327 47.9024 2.96609 47.9024H24.0001C24.3288 47.9024 24.6249 47.7041 24.7502 47.4003C24.8755 47.0966 24.8052 46.7471 24.5721 46.5154ZM2.96618 46.2793C2.57093 46.2793 2.19762 46.1065 1.94205 45.805C1.68649 45.5036 1.57699 45.1071 1.64149 44.7171L2.6884 38.3952C2.92249 36.9812 3.90509 35.8001 5.25275 35.3126L13.4732 32.3386L11.6886 35.9174C11.5641 36.1671 11.5765 36.463 11.7215 36.7014C11.8664 36.9397 12.1235 37.0869 12.4024 37.0911L14.4486 37.1227L13.9191 38.1336C13.7482 38.4598 13.8185 38.8603 14.0902 39.1089L21.9288 46.2793H2.96618Z" fill="white"/>
<path d="M26.7624 36.5211C26.821 36.2867 26.7721 36.0385 26.6292 35.8438L24.6542 33.1542C24.4467 32.8715 24.0807 32.7591 23.7475 32.8684C23.5676 32.9273 23.4194 33.0464 23.3207 33.1986L21.3819 35.8293C21.3541 35.8668 21.3295 35.9071 21.3086 35.9489C21.1757 36.2147 21.1987 36.5318 21.3684 36.7756L22.194 37.9613L21.3145 43.5054C21.2863 43.6834 21.3181 43.8656 21.4049 44.0236L23.2891 47.4493C23.4317 47.7087 23.7044 47.8698 24.0002 47.8698C24.2962 47.8698 24.5687 47.7087 24.7113 47.4493L26.6096 43.9982C26.6754 43.8784 26.71 43.7439 26.71 43.6072V43.6067C26.71 43.5641 26.7065 43.5216 26.7 43.4795L25.8244 37.9614L26.6412 36.7887C26.6972 36.7075 26.7386 36.6167 26.7624 36.5211ZM24.0002 45.3744L22.961 43.485L23.8483 37.8929C23.8812 37.6857 23.8325 37.474 23.7127 37.302L23.0326 36.3253L24.0026 35.0093L24.9776 36.3371L24.3057 37.302C24.1859 37.4739 24.1373 37.6857 24.1701 37.8929L25.0533 43.4595L24.0002 45.3744Z" fill="white"/>
</g>
<defs>
<clipPath id="clip0_10_647">
<rect width="48" height="48" fill="white"/>
</clipPath>
</defs>
</svg>
