<svg width="48" height="48" viewBox="0 0 48 48" fill="none" xmlns="http://www.w3.org/2000/svg">
<g clip-path="url(#clip0_10_710)">
<path d="M24 4.43384C20.0661 4.43384 16.3808 5.97931 13.6217 8.78693L13.5804 8.82921C13.3096 9.10634 13.3147 9.55043 13.5917 9.82128C13.8687 10.092 14.3129 10.087 14.5838 9.80993L14.6237 9.76906C17.1156 7.23331 20.4455 5.8369 24 5.8369C31.2482 5.8369 37.1451 11.7337 37.1451 18.982C37.1451 26.2302 31.2482 32.127 24 32.127C16.7518 32.127 10.855 26.2302 10.855 18.982C10.855 16.614 11.4913 14.2931 12.6953 12.2699C12.8934 11.9369 12.7842 11.5064 12.4512 11.3083C12.1181 11.1102 11.6877 11.2196 11.4896 11.5525C10.1565 13.7925 9.4519 16.3617 9.4519 18.9821C9.4519 27.0039 15.9781 33.5302 23.9999 33.5302C32.0217 33.5302 38.548 27.0039 38.548 18.9821C38.548 10.9602 32.0218 4.43384 24 4.43384Z" fill="white"/>
<path d="M41.7689 16.0624C41.3883 15.4957 41.0289 14.9603 40.8938 14.4551C40.7497 13.916 40.7927 13.2517 40.8383 12.5485C40.9064 11.4996 40.9768 10.4148 40.4409 9.48872C39.8968 8.54822 38.9138 8.0655 37.9632 7.59863C37.3382 7.29169 36.7478 7.00172 36.364 6.618C35.9803 6.23419 35.6903 5.64384 35.3833 5.01872C34.9165 4.06819 34.4338 3.08522 33.4932 2.54109C32.5672 2.00531 31.4825 2.07572 30.4334 2.14369C29.7302 2.18934 29.0661 2.23247 28.5267 2.08828C28.0215 1.95319 27.4862 1.59375 26.9195 1.21312C26.073 0.644531 25.1133 0 24.0001 0C22.8869 0 21.9272 0.644531 21.0804 1.21322C20.5137 1.59384 19.9785 1.95328 19.4733 2.08828C18.9341 2.23247 18.2699 2.18934 17.5667 2.14369C16.5176 2.07572 15.433 2.00531 14.5069 2.54109C13.5664 3.08522 13.0837 4.06819 12.6168 5.01872C12.3098 5.64384 12.0199 6.23428 11.6361 6.618C11.2523 7.00172 10.662 7.29169 10.0369 7.59863C9.08625 8.06541 8.10338 8.54822 7.55916 9.48872C7.02328 10.4148 7.09369 11.4996 7.16175 12.5486C7.20741 13.2518 7.25044 13.916 7.10635 14.4551C6.97125 14.9603 6.61182 15.4957 6.23119 16.0624C5.6626 16.9091 5.01807 17.8687 5.01807 18.9819C5.01807 20.0951 5.6625 21.0548 6.23119 21.9016C6.61172 22.4683 6.97125 23.0036 7.10625 23.5088C7.25035 24.048 7.20732 24.7122 7.16166 25.4154C7.0936 26.4644 7.02319 27.5491 7.55907 28.4753C8.10319 29.4157 9.08616 29.8986 10.0368 30.3653C10.6618 30.6723 11.2523 30.9622 11.636 31.346C11.9918 31.7017 12.267 32.2357 12.5498 32.8097L7.45444 42.1838C7.23582 42.5859 7.2421 43.0627 7.47132 43.4588C7.70054 43.8551 8.1105 44.0982 8.5681 44.1093L12.4757 44.2039L14.6802 47.4316C14.9256 47.7908 15.3234 48 15.7547 48C15.7772 48 15.7999 47.9994 15.8226 47.9983C16.2797 47.9752 16.6831 47.7212 16.9017 47.319L22.252 37.4761C22.7905 37.7579 23.3707 37.964 24 37.964C24.6293 37.964 25.2095 37.7579 25.748 37.4761L31.0983 47.3191C31.3169 47.7213 31.7203 47.9753 32.1774 47.9984C32.2002 47.9995 32.2228 48.0001 32.2453 48.0001C32.6766 48.0001 33.0744 47.7909 33.3198 47.4317L35.5243 44.204L39.4318 44.1094C39.8894 44.0983 40.2995 43.8551 40.5286 43.4589C40.7578 43.0627 40.7641 42.586 40.5455 42.1838L38.6822 38.7559C38.4971 38.4154 38.0712 38.2893 37.7308 38.4745C37.3904 38.6596 37.2645 39.0855 37.4495 39.4259L39.2349 42.7106L35.4392 42.8025C35.0209 42.8126 34.6303 43.025 34.3944 43.3704L32.253 46.5057L26.9423 36.7355C27.5005 36.3606 28.0283 36.0088 28.5267 35.8756C29.0659 35.7315 29.7301 35.7745 30.4333 35.8202C31.4825 35.8882 32.5671 35.9587 33.4931 35.4228C33.9833 35.1392 34.3486 34.7359 34.6526 34.2805L35.906 36.5864C36.0909 36.9268 36.5167 37.0527 36.8573 36.8678C37.1978 36.6827 37.3237 36.2568 37.1387 35.9164L35.45 32.8096C35.7328 32.2357 36.0081 31.7017 36.3638 31.346C36.7476 30.9622 37.3379 30.6723 37.963 30.3653C38.9137 29.8986 39.8965 29.4157 40.4408 28.4753C40.9766 27.5492 40.9062 26.4644 40.8382 25.4153C40.7925 24.7122 40.7495 24.048 40.8936 23.5087C41.0287 23.0035 41.3881 22.4683 41.7686 21.9016C42.3372 21.0548 42.9818 20.0951 42.9818 18.9819C42.982 17.8687 42.3375 16.909 41.7689 16.0624ZM15.747 46.5057L13.6057 43.3705C13.3697 43.0251 12.9791 42.8127 12.5608 42.8026L8.76516 42.7107L13.3474 34.2807C13.6514 34.736 14.0167 35.1393 14.5069 35.4229C15.433 35.9587 16.5179 35.8883 17.5667 35.8203C18.2699 35.7746 18.9341 35.7316 19.4733 35.8757C19.9718 36.0089 20.4996 36.3608 21.0578 36.7356L15.747 46.5057ZM40.6041 21.1193C40.1762 21.7566 39.7337 22.4154 39.5383 23.1465C39.3346 23.9085 39.3873 24.7208 39.4383 25.5062C39.4953 26.385 39.5491 27.2151 39.2265 27.7726C38.8958 28.3442 38.1424 28.7142 37.3448 29.106C36.6444 29.4499 35.9203 29.8055 35.372 30.3539C34.8235 30.9023 34.4679 31.6265 34.124 32.3268C33.7323 33.1244 33.3623 33.8777 32.7908 34.2084C32.2331 34.531 31.4033 34.4771 30.5243 34.4202C29.7388 34.3692 28.9267 34.3166 28.1647 34.5202C27.4337 34.7157 26.7748 35.1581 26.1376 35.5861C25.3911 36.0875 24.686 36.561 24.0001 36.561C23.3143 36.561 22.6092 36.0875 21.8627 35.5861C21.2255 35.1582 20.5667 34.7157 19.8355 34.5202C19.4172 34.4084 18.9839 34.3739 18.5481 34.3739C18.1899 34.3739 17.8301 34.3973 17.4758 34.4203C16.5969 34.4772 15.767 34.5312 15.2094 34.2085C14.6378 33.8778 14.2678 33.1244 13.8761 32.3268C13.5323 31.6265 13.1766 30.9023 12.6281 30.3539C12.0798 29.8056 11.3557 29.4499 10.6553 29.106C9.85772 28.7143 9.10435 28.3443 8.7736 27.7726C8.451 27.2151 8.50482 26.385 8.56182 25.5063C8.61282 24.7208 8.6655 23.9086 8.46179 23.1466C8.26641 22.4155 7.82391 21.7566 7.39594 21.1194C6.89466 20.3729 6.42113 19.6678 6.42113 18.982C6.42113 18.2963 6.89466 17.5912 7.39594 16.8446C7.82391 16.2074 8.26632 15.5485 8.46179 14.8175C8.6655 14.0555 8.61282 13.2432 8.56182 12.4578C8.50482 11.579 8.451 10.7489 8.7736 10.1914C9.10435 9.61978 9.85772 9.24975 10.6553 8.85797C11.3557 8.51409 12.0798 8.15841 12.6281 7.61006C13.1765 7.06172 13.5322 6.3375 13.8761 5.63719C14.2678 4.83966 14.6378 4.08628 15.2094 3.75553C15.767 3.43303 16.5969 3.48684 17.4758 3.54375C18.2613 3.59475 19.0734 3.64744 19.8355 3.44372C20.5665 3.24825 21.2254 2.80584 21.8626 2.37788C22.6091 1.8765 23.3142 1.40297 24.0001 1.40297C24.6859 1.40297 25.391 1.8765 26.1375 2.37778C26.7747 2.80575 27.4336 3.24825 28.1647 3.44362C28.9267 3.64734 29.739 3.59466 30.5244 3.54366C31.4033 3.48675 32.2333 3.43284 32.7908 3.75544C33.3623 4.08619 33.7324 4.83956 34.1241 5.63709C34.4679 6.33741 34.8236 7.06153 35.3721 7.60997C35.9204 8.15831 36.6446 8.514 37.3448 8.85787C38.1425 9.24956 38.8958 9.61959 39.2265 10.1912C39.5491 10.7487 39.4953 11.5788 39.4383 12.4575C39.3873 13.2429 39.3346 14.0552 39.5383 14.8172C39.7337 15.5483 40.1762 16.2072 40.6042 16.8443C41.1054 17.5909 41.579 18.296 41.579 18.9818C41.579 19.6677 41.1054 20.3728 40.6041 21.1193Z" fill="white"/>
<path d="M33.6336 18.3246C34.1076 17.8625 34.275 17.1844 34.0704 16.5549C33.8659 15.9254 33.3319 15.4751 32.6768 15.3799L27.9192 14.6886C27.8138 14.6733 27.7228 14.6072 27.6757 14.5117L25.5481 10.2006C25.2551 9.607 24.6619 9.23828 24 9.23828C23.3381 9.23828 22.7449 9.607 22.4519 10.2006L20.3242 14.5117C20.2772 14.6072 20.1861 14.6733 20.0808 14.6886L15.3232 15.3799C14.6682 15.4751 14.1341 15.9253 13.9295 16.5549C13.725 17.1844 13.8923 17.8625 14.3664 18.3246L17.809 21.6803C17.8853 21.7547 17.92 21.8616 17.902 21.9665L17.0893 26.7049C16.9774 27.3574 17.2406 28.0044 17.7761 28.3935C18.0787 28.6133 18.4327 28.725 18.7892 28.725C19.0635 28.725 19.3393 28.6588 19.5942 28.5248L23.8494 26.2877C23.9437 26.2382 24.0562 26.2382 24.1504 26.2877L28.4057 28.5248C28.9915 28.8328 29.6882 28.7824 30.2238 28.3935C30.7594 28.0044 31.0225 27.3573 30.9106 26.7049L30.0979 21.9665C30.0799 21.8616 30.1146 21.7547 30.1908 21.6804L33.6336 18.3246ZM28.7151 22.2037L29.5279 26.9421C29.5585 27.1209 29.4481 27.2228 29.3992 27.2583C29.3503 27.2939 29.2193 27.3673 29.0587 27.2829L24.8033 25.0457C24.3003 24.7813 23.6997 24.7814 23.1966 25.0457L18.9413 27.283C18.7809 27.3674 18.6498 27.2939 18.6008 27.2583C18.552 27.2228 18.4415 27.1209 18.4722 26.9421L19.2849 22.2038C19.381 21.6438 19.1955 21.0725 18.7884 20.6757L15.3458 17.32C15.2159 17.1933 15.2453 17.046 15.264 16.9886C15.2826 16.9311 15.3455 16.7946 15.525 16.7686L20.2826 16.0772C20.845 15.9955 21.3309 15.6425 21.5825 15.1329L23.7101 10.8218C23.7904 10.6592 23.9396 10.6416 24.0001 10.6416C24.0605 10.6416 24.2097 10.6592 24.29 10.8218L26.4177 15.1329C26.6692 15.6425 27.1551 15.9956 27.7175 16.0772L32.4752 16.7686C32.6547 16.7946 32.7174 16.9311 32.7362 16.9886C32.7548 17.0461 32.7843 17.1934 32.6544 17.32L29.2116 20.6758C28.8046 21.0725 28.619 21.6437 28.7151 22.2037Z" fill="white"/>
</g>
<defs>
<clipPath id="clip0_10_710">
<rect width="48" height="48" fill="white"/>
</clipPath>
</defs>
</svg>
