<svg width="160" height="33" viewBox="0 0 160 33" fill="none" xmlns="http://www.w3.org/2000/svg">
<g clip-path="url(#clip0_10_1274)">
<path d="M40.6978 27.574L47.5953 7.5918H49.9822L56.8798 27.574H54.3716L52.6118 22.2292H44.9658L43.206 27.574H40.6978ZM45.7749 19.82H51.8229L48.7888 10.8311L45.7749 19.82Z" fill="#1E1E1E"/>
<path d="M55.2009 9.98098V7.57178H69.2389V9.96073H63.474V27.554H60.9658V9.96073H55.2009V9.98098Z" fill="#1E1E1E"/>
<path d="M80.0808 27.5742V7.57178H86.7357C90.2957 7.57178 92.6219 9.53558 92.6219 12.8558C92.6219 15.589 91.0846 17.4313 88.455 17.9779L94.4221 27.5742H91.4285L85.5827 18.1399H82.589V27.5742H80.0808ZM82.589 15.7509H86.7761C88.9203 15.7509 89.9923 14.7791 89.9923 12.8761C89.9923 10.9528 88.9 10.0012 86.7761 10.0012H82.589V15.7509Z" fill="#1E1E1E"/>
<path d="M106.984 14.9413C108.157 16.2573 108.723 17.8566 108.723 19.7597V20.8732H98.1643C98.3059 23.7076 99.742 25.6106 102.21 25.6106C104.233 25.6106 105.386 24.7198 106.195 22.8775L108.298 23.7885C106.963 26.6229 105.163 27.7971 102.19 27.7971C100.106 27.7971 98.5082 27.0885 97.3754 25.6511C96.2629 24.1935 95.6965 22.4523 95.6965 20.3671C95.6965 18.2818 96.2629 16.5407 97.3754 15.1033C98.5082 13.6456 100.106 12.937 102.19 12.937C104.253 12.937 105.851 13.6051 106.984 14.9413ZM106.215 18.7069C105.75 16.5407 104.415 15.1033 102.23 15.1033C100.086 15.1033 98.7711 16.5002 98.3261 18.7069H106.215Z" fill="#1E1E1E"/>
<path d="M112.93 22.7963C113.699 24.6791 114.812 25.6307 116.268 25.6307C117.805 25.6307 118.574 24.8816 118.574 23.3834C118.574 22.4319 117.522 21.7638 116.228 21.2981C114.346 20.5895 111.939 19.6785 111.939 16.9251C111.939 14.6374 113.618 12.957 116.167 12.957C117.906 12.957 119.302 13.7061 120.334 15.1638L118.716 16.5607C117.826 15.6092 116.976 15.1233 116.086 15.1233C115.095 15.1233 114.346 15.8116 114.346 16.9454C114.326 19.5165 121.062 19.0104 121.021 23.2214C121.021 26.076 119.201 27.7969 116.248 27.7969C113.537 27.7969 111.717 26.1165 110.887 23.9098L112.93 22.7963Z" fill="#1E1E1E"/>
<path d="M124.238 13.1797H126.624V22.695C126.624 24.6588 127.454 25.6306 129.112 25.6306C130.225 25.6306 131.196 25.0232 131.985 23.8693C132.814 22.695 133.219 21.1361 133.219 19.2128V13.1797H135.605V27.5742H133.219V24.9018C132.126 26.8251 130.528 27.7766 128.445 27.7766C125.815 27.7766 124.217 26.157 124.217 23.3024V13.1797H124.238Z" fill="#1E1E1E"/>
<path d="M139.995 27.5744V13.18H142.402V15.6296C143.231 14.0303 145.032 12.937 146.63 12.937C147.398 12.937 148.066 13.0787 148.592 13.3622L148.106 15.5082C147.56 15.245 147.014 15.1033 146.427 15.1033C145.335 15.1033 144.404 15.7309 143.595 16.9658C142.786 18.2008 142.402 19.9014 142.402 22.1082V27.5542H139.995V27.5744Z" fill="#1E1E1E"/>
<path d="M151.727 22.7963C152.495 24.6791 153.608 25.6307 155.064 25.6307C156.602 25.6307 157.37 24.8816 157.37 23.3834C157.37 22.4319 156.318 21.7638 155.024 21.2981C153.143 20.5895 150.736 19.6785 150.736 16.9251C150.736 14.6374 152.415 12.957 154.963 12.957C156.703 12.957 158.099 13.7061 159.13 15.1638L157.512 16.5607C156.622 15.6092 155.772 15.1233 154.882 15.1233C153.891 15.1233 153.143 15.8116 153.143 16.9454C153.123 19.5165 159.858 19.0104 159.818 23.2214C159.818 26.076 157.997 27.7969 155.044 27.7969C152.334 27.7969 150.513 26.1165 149.684 23.9098L151.727 22.7963Z" fill="#1E1E1E"/>
<path d="M18.6295 19.4155H14.584V32.9799H18.6295V19.4155Z" fill="#1E1E1E"/>
<path d="M16.0239 20.0153L13.1406 17.1753L3.63493 26.8427L6.51816 29.6827L16.0239 20.0153Z" fill="#1E1E1E"/>
<path d="M13.1135 16.0322L15.8818 13.0796L5.99938 3.79746L3.23103 6.75005L13.1135 16.0322Z" fill="#1E1E1E"/>
<path d="M13.7078 18.5593V14.5103L0.155298 14.5103V18.5593L13.7078 18.5593Z" fill="#1E1E1E"/>
<path d="M27.1977 29.2807L29.9661 26.3281L20.0836 17.046L17.3153 19.9986L27.1977 29.2807Z" fill="#1E1E1E"/>
<path d="M33.0247 18.5593V14.5103L19.4722 14.5103V18.5593L33.0247 18.5593Z" fill="#1E1E1E"/>
<path d="M29.5798 6.23211L26.6965 3.39209L17.1908 13.0595L20.0741 15.8995L29.5798 6.23211Z" fill="#1E1E1E"/>
<path d="M18.6295 0.0810547H14.584V13.6455H18.6295V0.0810547Z" fill="#1E1E1E"/>
</g>
<defs>
<clipPath id="clip0_10_1274">
<rect width="160" height="33" fill="white"/>
</clipPath>
</defs>
</svg>
