<svg width="161" height="33" viewBox="0 0 161 33" fill="none" xmlns="http://www.w3.org/2000/svg">
<g clip-path="url(#clip0_10_20)">
<path d="M40.9521 27.5742L47.8929 7.59201H50.2946L57.2353 27.5742H54.7114L52.9406 22.2294H45.2468L43.476 27.5742H40.9521ZM46.061 19.8202H52.1468L49.0937 10.8313L46.061 19.8202Z" fill="white"/>
<path d="M55.5459 9.98098V7.57178H69.6716V9.96073H63.8707V27.554H61.3468V9.96073H55.5459V9.98098Z" fill="white"/>
<path d="M80.5813 27.5742V7.57178H87.2778C90.8601 7.57178 93.2008 9.53558 93.2008 12.8558C93.2008 15.589 91.6539 17.4313 89.0078 17.9779L95.0123 27.5742H91.9999L86.1176 18.1399H83.1052V27.5742H80.5813V27.5742ZM83.1052 15.7509H87.3185C89.476 15.7509 90.5547 14.7791 90.5547 12.8761C90.5547 10.9528 89.4556 10.0012 87.3185 10.0012H83.1052V15.7509Z" fill="white"/>
<path d="M107.652 14.9411C108.833 16.257 109.403 17.8564 109.403 19.7595V20.873H98.7779C98.9203 23.7074 100.365 25.6104 102.849 25.6104C104.884 25.6104 106.044 24.7196 106.858 22.8773L108.975 23.7883C107.632 26.6227 105.82 27.7969 102.828 27.7969C100.732 27.7969 99.1239 27.0883 97.9841 25.6509C96.8646 24.1932 96.2947 22.4521 96.2947 20.3669C96.2947 18.2816 96.8646 16.5405 97.9841 15.1031C99.1239 13.6454 100.732 12.9368 102.828 12.9368C104.904 12.9368 106.512 13.6049 107.652 14.9411ZM106.879 18.7067C106.411 16.5405 105.067 15.1031 102.869 15.1031C100.711 15.1031 99.3885 16.5 98.9407 18.7067H106.879Z" fill="white"/>
<path d="M113.636 22.7963C114.41 24.6791 115.529 25.6307 116.995 25.6307C118.542 25.6307 119.315 24.8816 119.315 23.3834C119.315 22.4319 118.257 21.7638 116.954 21.2982C115.061 20.5896 112.639 19.6785 112.639 16.9252C112.639 14.6374 114.328 12.9571 116.893 12.9571C118.643 12.9571 120.048 13.7061 121.086 15.1638L119.458 16.5607C118.562 15.6092 117.707 15.1233 116.812 15.1233C115.814 15.1233 115.061 15.8117 115.061 16.9454C115.041 19.5166 121.819 19.0104 121.778 23.2215C121.778 26.0761 119.946 27.7969 116.974 27.7969C114.247 27.7969 112.415 26.1166 111.581 23.9098L113.636 22.7963Z" fill="white"/>
<path d="M125.014 13.1797H127.416V22.6951C127.416 24.6589 128.25 25.6307 129.919 25.6307C131.039 25.6307 132.016 25.0233 132.81 23.8693C133.644 22.6951 134.051 21.1362 134.051 19.2129V13.1797H136.453V27.5742H134.051V24.9018C132.952 26.8251 131.344 27.7767 129.248 27.7767C126.602 27.7767 124.994 26.1571 124.994 23.3024V13.1797H125.014Z" fill="white"/>
<path d="M140.87 27.5742V13.1797H143.292V15.6294C144.127 14.03 145.938 12.9368 147.546 12.9368C148.319 12.9368 148.991 13.0785 149.52 13.362L149.032 15.508C148.482 15.2448 147.933 15.1031 147.342 15.1031C146.243 15.1031 145.307 15.7307 144.493 16.9656C143.679 18.2006 143.292 19.9012 143.292 22.108V27.554H140.87V27.5742Z" fill="white"/>
<path d="M152.675 22.7963C153.449 24.6791 154.568 25.6307 156.034 25.6307C157.58 25.6307 158.354 24.8816 158.354 23.3834C158.354 22.4319 157.295 21.7638 155.993 21.2982C154.1 20.5896 151.678 19.6785 151.678 16.9252C151.678 14.6374 153.367 12.9571 155.932 12.9571C157.682 12.9571 159.087 13.7061 160.125 15.1638L158.496 16.5607C157.601 15.6092 156.746 15.1233 155.85 15.1233C154.853 15.1233 154.1 15.8117 154.1 16.9454C154.08 19.5166 160.857 19.0104 160.817 23.2215C160.817 26.0761 158.985 27.7969 156.013 27.7969C153.286 27.7969 151.454 26.1166 150.619 23.9098L152.675 22.7963Z" fill="white"/>
<path d="M18.7461 19.4153H14.6753V32.9798H18.7461V19.4153Z" fill="white"/>
<path d="M16.1239 20.0154L13.2227 17.1754L3.65755 26.8427L6.5588 29.6827L16.1239 20.0154Z" fill="white"/>
<path d="M13.1956 16.0319L15.9812 13.0793L6.03698 3.79722L3.25133 6.7498L13.1956 16.0319Z" fill="white"/>
<path d="M13.7935 18.5592V14.5101L0.156289 14.5101V18.5592L13.7935 18.5592Z" fill="white"/>
<path d="M27.3677 29.2807L30.1533 26.3281L20.2091 17.046L17.4235 19.9986L27.3677 29.2807Z" fill="white"/>
<path d="M33.2312 18.5595V14.5104L19.594 14.5104V18.5595L33.2312 18.5595Z" fill="white"/>
<path d="M29.7645 6.23184L26.8633 3.39182L17.2982 13.0592L20.1994 15.8992L29.7645 6.23184Z" fill="white"/>
<path d="M18.7461 0.0809937H14.6753V13.6454H18.7461V0.0809937Z" fill="white"/>
</g>
<defs>
<clipPath id="clip0_10_20">
<rect width="161" height="33" fill="white"/>
</clipPath>
</defs>
</svg>
