<svg width="18" height="18" viewBox="0 0 18 18" fill="none" xmlns="http://www.w3.org/2000/svg">
<path d="M10.1168 10.5785H7.90137V18H10.1168V10.5785Z" fill="#C90505"/>
<path d="M8.69 10.9068L7.11108 9.35291L1.90557 14.6422L3.48449 16.1961L8.69 10.9068Z" fill="#C90505"/>
<path d="M7.09606 8.72728L8.61206 7.11182L3.20022 2.03326L1.68422 3.64872L7.09606 8.72728Z" fill="#C90505"/>
<path d="M7.42163 10.11V7.89465L2.38419e-05 7.89465V10.11L7.42163 10.11Z" fill="#C90505"/>
<path d="M14.8092 15.9761L16.3252 14.3606L10.9134 9.28204L9.39736 10.8975L14.8092 15.9761Z" fill="#C90505"/>
<path d="M18 10.1102V7.89484L10.5784 7.89484V10.1102L18 10.1102Z" fill="#C90505"/>
<path d="M16.1133 3.36539L14.5344 1.81152L9.32891 7.10086L10.9078 8.65473L16.1133 3.36539Z" fill="#C90505"/>
<path d="M10.1168 0H7.90137V7.42154H10.1168V0Z" fill="#C90505"/>
</svg>
