<svg width="32" height="32" viewBox="0 0 32 32" fill="none" xmlns="http://www.w3.org/2000/svg">
<path d="M25.287 5.0315C25.3294 4.98901 25.361 4.93698 25.379 4.87979C25.3971 4.8226 25.4011 4.76192 25.3907 4.70286C25.3804 4.6438 25.3559 4.58809 25.3194 4.54042C25.2829 4.49275 25.2355 4.45452 25.1811 4.42894C24.3422 4.03394 23.4012 3.90758 22.4874 4.0672C21.5736 4.22683 20.7317 4.66461 20.0775 5.32043C18.8027 6.59966 18.3575 8.6087 18.9521 10.2884L10.289 18.9256C9.80775 18.7565 9.30081 18.6714 8.79051 18.6741C7.5037 18.6741 6.25594 19.1846 5.36779 20.0754C4.71584 20.7226 4.27519 21.551 4.10358 22.4522C3.93197 23.3534 4.0374 24.2852 4.40606 25.1257C4.43023 25.1819 4.46791 25.2314 4.5158 25.2697C4.56368 25.308 4.62028 25.3339 4.68061 25.3453C4.74093 25.3566 4.80313 25.3529 4.8617 25.3346C4.92026 25.3163 4.97341 25.2838 5.01643 25.2402L7.63734 22.6136C7.81001 22.44 8.08855 22.4167 8.23269 22.5627L9.36409 23.7431C9.52851 23.9086 9.521 24.1638 9.34757 24.3382L6.73643 26.9581C6.69399 27.0005 6.66241 27.0524 6.64435 27.1096C6.62629 27.1667 6.62228 27.2273 6.63266 27.2864C6.64304 27.3454 6.6675 27.401 6.70399 27.4486C6.74047 27.4962 6.7879 27.5344 6.84228 27.5599C7.44984 27.8489 8.11435 27.9992 8.78751 28C9.9677 28 11.0886 27.5269 11.946 26.6676C13.2208 25.3891 13.666 23.3801 13.0706 21.7004L21.7336 13.0624C22.2152 13.2315 22.7224 13.3166 23.2329 13.3139C24.5197 13.3139 25.7675 12.8034 26.6556 11.9127C27.3076 11.2655 27.7482 10.437 27.9198 9.53583C28.0914 8.63465 27.986 7.70281 27.6174 6.86239C27.5932 6.80613 27.5555 6.75667 27.5076 6.71837C27.4597 6.68007 27.4031 6.65412 27.3428 6.6428C27.2825 6.63148 27.2203 6.63515 27.1617 6.65347C27.1031 6.67179 27.05 6.70421 27.007 6.74787L24.3861 9.37444C24.3051 9.45249 24.1965 9.49549 24.0838 9.49409C23.9712 9.49269 23.8637 9.447 23.7847 9.36696L22.6593 8.24492C22.6192 8.20649 22.5872 8.16038 22.5654 8.10934C22.5435 8.05831 22.5322 8.0034 22.5321 7.94791C22.5321 7.89242 22.5432 7.83749 22.565 7.7864C22.5867 7.73531 22.6185 7.68912 22.6586 7.65059L25.287 5.0315ZM22.1278 8.77413L23.2532 9.89617C23.7029 10.3468 24.4732 10.349 24.9184 9.9029L27.1181 7.69924C27.2923 8.34671 27.2922 9.02854 27.1177 9.67593C26.9431 10.3233 26.6004 10.9134 26.1241 11.3865C25.3756 12.1373 24.323 12.5669 23.2337 12.5669C22.7209 12.5669 22.2351 12.4711 21.7899 12.2825C21.7211 12.2532 21.6451 12.2452 21.5717 12.2593C21.4983 12.2735 21.4307 12.3091 21.3778 12.3618L12.3686 21.3441C12.3159 21.3966 12.2801 21.4637 12.2658 21.5366C12.2515 21.6095 12.2593 21.6851 12.2883 21.7536C12.8912 23.1832 12.524 25.0284 11.4152 26.1407C10.9374 26.6239 10.3358 26.9672 9.67594 27.1332C9.01607 27.2992 8.32317 27.2816 7.67263 27.0823L9.88061 24.8667C10.3468 24.3988 10.3543 23.6735 9.90239 23.2214L8.77174 22.041C8.33555 21.6031 7.56001 21.63 7.10655 22.0874L4.90682 24.2911C4.73258 23.6436 4.73272 22.9618 4.90725 22.3144C5.08177 21.667 5.4245 21.0769 5.90083 20.6038C6.64934 19.8531 7.7019 19.4234 8.79126 19.4234C9.30403 19.4234 9.78977 19.5192 10.235 19.7078C10.3037 19.7373 10.3798 19.7454 10.4533 19.7313C10.5268 19.7171 10.5943 19.6813 10.6471 19.6285L19.6563 10.6462C19.709 10.5937 19.7448 10.5266 19.7591 10.4537C19.7734 10.3808 19.7656 10.3052 19.7366 10.2367C19.1337 8.80706 19.5009 6.9612 20.6097 5.84889C21.0874 5.36616 21.6886 5.02317 22.348 4.85715C23.0074 4.69114 23.6998 4.70847 24.35 4.90725L22.1278 7.12363C22.0179 7.23133 21.9306 7.35977 21.871 7.50146C21.8115 7.64315 21.7808 7.79524 21.7808 7.94888C21.7808 8.10251 21.8115 8.25461 21.871 8.3963C21.9306 8.53798 22.0179 8.66642 22.1278 8.77413Z" fill="#232C5E"/>
<path d="M25.9293 26.956C25.8458 27.036 25.7344 27.0806 25.6185 27.0804C25.5027 27.0801 25.3915 27.0349 25.3084 26.9545L17.7783 19.4692C17.7065 19.4052 17.6129 19.3711 17.5167 19.3739C17.4204 19.3767 17.3289 19.4161 17.261 19.4842C17.1931 19.5522 17.1539 19.6436 17.1515 19.7395C17.1491 19.8354 17.1838 19.9287 17.2482 19.9999L24.7776 27.4837C25.0028 27.709 25.3016 27.8332 25.62 27.8332C25.9383 27.8332 26.2371 27.709 26.4668 27.4784L27.5397 26.3609C27.6493 26.253 27.7364 26.1244 27.7958 25.9826C27.8552 25.8409 27.8858 25.6888 27.8857 25.5351C27.8857 25.3815 27.855 25.2294 27.7954 25.0877C27.7359 24.946 27.6487 24.8175 27.5389 24.7096L20.0313 17.2244C19.9605 17.1562 19.8657 17.1185 19.7673 17.1193C19.6688 17.1202 19.5747 17.1596 19.5051 17.229C19.4355 17.2983 19.396 17.3922 19.3952 17.4903C19.3943 17.5885 19.4321 17.683 19.5005 17.7536L27.0074 25.2381C27.1793 25.4103 27.1793 25.6603 27.0021 25.8384L25.9293 26.956ZM8.3945 6.37078L6.14222 4.1252C6.07182 4.05504 5.97636 4.01562 5.87682 4.01562C5.77729 4.01562 5.68182 4.05504 5.61143 4.1252L4.10991 5.62225C4.03953 5.69244 4 5.78762 4 5.88686C4 5.9861 4.03953 6.08128 4.10991 6.15146L6.36219 8.39704C6.43268 8.46694 6.52801 8.50624 6.62743 8.50638C6.72685 8.50652 6.82229 8.46749 6.89298 8.39779L7.37797 7.91349L13.1183 13.6367C13.1529 13.6725 13.1943 13.7011 13.24 13.7207C13.2858 13.7404 13.335 13.7508 13.3849 13.7513C13.4347 13.7518 13.4842 13.7424 13.5303 13.7237C13.5765 13.7049 13.6184 13.6772 13.6537 13.6421C13.689 13.607 13.7169 13.5653 13.7359 13.5193C13.7548 13.4733 13.7644 13.4241 13.764 13.3744C13.7637 13.3247 13.7534 13.2755 13.7338 13.2299C13.7142 13.1842 13.6856 13.1428 13.6498 13.1083L7.90876 7.38428L8.39375 6.90074C8.42876 6.86602 8.45655 6.82476 8.47554 6.77932C8.49453 6.73387 8.50434 6.68514 8.50441 6.63591C8.50448 6.58668 8.49481 6.53793 8.47595 6.49243C8.45709 6.44693 8.42941 6.40559 8.3945 6.37078ZM6.62721 7.6036L4.90571 5.88723L5.87645 4.91939L7.59794 6.63576L6.62721 7.6036Z" fill="#232C5E"/>
</svg>
