<svg width="32" height="32" viewBox="0 0 32 32" fill="none" xmlns="http://www.w3.org/2000/svg">
<path d="M11.4999 26.0002C11.4999 26.1328 11.4472 26.26 11.3535 26.3537C11.2597 26.4475 11.1325 26.5002 10.9999 26.5002H4.99991C4.56118 26.4999 4.13023 26.3843 3.75037 26.1647C3.3705 25.9452 3.05509 25.6296 2.83583 25.2496C2.61656 24.8696 2.50116 24.4386 2.50122 23.9998C2.50128 23.5611 2.61679 23.1301 2.83616 22.7502L7.72866 14.2977L4.79991 15.0814C4.73556 15.1017 4.66777 15.1087 4.60064 15.102C4.53351 15.0954 4.46842 15.0752 4.40929 15.0427C4.35016 15.0103 4.2982 14.9662 4.25656 14.9131C4.21492 14.86 4.18444 14.7991 4.16697 14.7339C4.1495 14.6688 4.14539 14.6008 4.1549 14.534C4.16441 14.4672 4.18733 14.403 4.22229 14.3453C4.25725 14.2876 4.30352 14.2376 4.35832 14.1983C4.41312 14.1589 4.47531 14.1311 4.54116 14.1164L8.63741 13.0202C8.70093 13.0032 8.76719 12.9989 8.83238 13.0075C8.89757 13.0162 8.96041 13.0376 9.0173 13.0706C9.0742 13.1036 9.12403 13.1475 9.16394 13.1997C9.20386 13.252 9.23307 13.3116 9.24991 13.3752L10.3487 17.4714C10.3831 17.5994 10.3652 17.7358 10.2992 17.8506C10.2331 17.9655 10.1241 18.0494 9.99616 18.0839C9.95545 18.0953 9.91342 18.1012 9.87116 18.1014C9.76059 18.1011 9.65325 18.0641 9.56595 17.9962C9.47865 17.9284 9.4163 17.8335 9.38866 17.7264L8.60116 14.7927L3.70616 23.2502C3.57473 23.4778 3.50542 23.736 3.50519 23.9988C3.50496 24.2617 3.5738 24.52 3.70483 24.7479C3.83586 24.9758 4.02447 25.1652 4.25176 25.2972C4.47905 25.4293 4.73705 25.4992 4.99991 25.5002H10.9999C11.1325 25.5002 11.2597 25.5528 11.3535 25.6466C11.4472 25.7404 11.4999 25.8676 11.4999 26.0002ZM29.1599 22.7502L26.2674 17.7502C26.2011 17.6353 26.0919 17.5515 25.9638 17.5171C25.8357 17.4828 25.6992 17.5007 25.5843 17.567C25.4694 17.6333 25.3856 17.7426 25.3512 17.8707C25.3169 17.9988 25.3349 18.1353 25.4012 18.2502L28.2937 23.2502C28.4251 23.4778 28.4944 23.736 28.4946 23.9988C28.4949 24.2617 28.426 24.52 28.295 24.7479C28.164 24.9758 27.9753 25.1652 27.7481 25.2972C27.5208 25.4293 27.2628 25.4992 26.9999 25.5002H17.2074L19.3537 23.3539C19.4475 23.2601 19.5002 23.1329 19.5002 23.0002C19.5002 22.8675 19.4475 22.7402 19.3537 22.6464C19.2598 22.5526 19.1326 22.4999 18.9999 22.4999C18.8672 22.4999 18.74 22.5526 18.6462 22.6464L15.6462 25.6464C15.5997 25.6929 15.5628 25.748 15.5376 25.8087C15.5125 25.8694 15.4995 25.9345 15.4995 26.0002C15.4995 26.0659 15.5125 26.1309 15.5376 26.1916C15.5628 26.2523 15.5997 26.3075 15.6462 26.3539L18.6462 29.3539C18.74 29.4477 18.8672 29.5004 18.9999 29.5004C19.1326 29.5004 19.2598 29.4477 19.3537 29.3539C19.4475 29.2601 19.5002 29.1329 19.5002 29.0002C19.5002 28.8675 19.4475 28.7402 19.3537 28.6464L17.2074 26.5002H26.9999C27.4386 26.4999 27.8696 26.3843 28.2494 26.1647C28.6293 25.9452 28.9447 25.6296 29.164 25.2496C29.3832 24.8696 29.4986 24.4386 29.4986 23.9998C29.4985 23.5611 29.383 23.1301 29.1637 22.7502H29.1599ZM17.2974 4.25017L22.1899 12.7027L19.2612 11.9177C19.133 11.8834 18.9965 11.9013 18.8816 11.9677C18.7668 12.034 18.683 12.1433 18.6487 12.2714C18.6143 12.3996 18.6323 12.5361 18.6987 12.6509C18.765 12.7658 18.8743 12.8496 19.0024 12.8839L23.0999 13.9814C23.1406 13.9929 23.1826 13.9988 23.2249 13.9989C23.3355 13.9986 23.4428 13.9616 23.5301 13.8937C23.6174 13.8259 23.6798 13.731 23.7074 13.6239L24.8062 9.52517C24.8264 9.46082 24.8334 9.39304 24.8268 9.32591C24.8201 9.25878 24.7999 9.19369 24.7675 9.13455C24.735 9.07542 24.6909 9.02347 24.6379 8.98182C24.5848 8.94018 24.5238 8.9097 24.4587 8.89223C24.3935 8.87476 24.3255 8.87066 24.2587 8.88016C24.1919 8.88967 24.1278 8.91259 24.0701 8.94755C24.0124 8.98251 23.9624 9.02878 23.923 9.08358C23.8837 9.13838 23.8558 9.20057 23.8412 9.26642L23.0537 12.2002L18.1637 3.75017C17.9441 3.37074 17.6285 3.05572 17.2488 2.83672C16.869 2.61772 16.4383 2.50244 15.9999 2.50244C15.5615 2.50244 15.1308 2.61772 14.751 2.83672C14.3713 3.05572 14.0558 3.37074 13.8362 3.75017L10.9412 8.75017C10.8749 8.86504 10.8569 9.00155 10.8912 9.12966C10.9256 9.25777 11.0094 9.36699 11.1243 9.43329C11.2392 9.4996 11.3757 9.51755 11.5038 9.48321C11.6319 9.44887 11.7411 9.36504 11.8074 9.25017L14.7012 4.25017C14.8329 4.02257 15.0222 3.83361 15.2501 3.70225C15.4779 3.5709 15.7363 3.50175 15.9993 3.50175C16.2623 3.50175 16.5207 3.5709 16.7485 3.70225C16.9763 3.83361 17.1656 4.02257 17.2974 4.25017Z" fill="#232C5E"/>
</svg>
