<svg width="146" height="116" viewBox="0 0 146 116" fill="none" xmlns="http://www.w3.org/2000/svg">
<g clip-path="url(#clip0_3035_3561)">
<path d="M99.003 0.425781L73.0001 29.5854L69.5899 28.5212L20.8877 13.5157V22.4551L73.0001 38.5249L99.003 9.36523L125.113 22.4551V13.5157L99.003 0.425781Z" fill="#233064"/>
<path d="M125.113 28.2022L99.003 15.0059L73.0001 44.2719L20.8877 28.2022V45.1233L73.0001 61.2994L125.113 45.1233V28.2022Z" fill="#F0564A"/>
<path d="M0.319824 99.8244H5.64829V87.1601H16.7315V81.839H5.64829V74.4959H18.33V69.2812H0.319824V99.8244Z" fill="#333333"/>
<path d="M69.6963 82.265C68.9503 82.4778 67.1387 83.0099 66.2861 82.3714C66.073 82.265 65.9664 82.0521 65.8598 81.9457H60.4248V99.8246H65.7533V94.0778C65.7533 90.2466 68.8438 87.2668 72.5737 87.2668H73.6394V82.1586C73.3197 82.1586 73 82.0521 72.5737 82.0521C71.508 81.8393 70.5489 81.9457 69.6963 82.265Z" fill="#333333"/>
<path d="M20.781 87.16H27.0686V103.549C27.0686 107.167 24.2978 110.147 20.781 110.36V115.681C27.2817 115.362 32.3971 110.041 32.3971 103.549V81.9453H20.781V87.16Z" fill="#333333"/>
<path d="M26.5357 77.3697C28.2408 77.3697 29.7328 75.9862 29.7328 74.177C29.7328 72.4743 28.3474 70.9844 26.5357 70.9844C24.8306 70.9844 23.3386 72.3679 23.3386 74.177C23.3386 75.9862 24.8306 77.3697 26.5357 77.3697Z" fill="#333333"/>
<path d="M91.8628 81.7323L91.1169 81.4131C89.7315 80.7745 88.1329 80.3488 86.641 80.3488C80.7796 80.3488 76.0906 85.0314 76.0906 90.8846C76.0906 96.7378 80.7796 101.42 86.641 101.42C88.2395 101.42 90.1577 100.995 91.0103 100.675C92.9285 100.037 94.5271 99.7176 97.1913 99.8241V72.3672H91.8628V81.7323ZM86.5344 96.0993C83.657 96.0993 81.2059 93.758 81.2059 90.7782C81.2059 87.9048 83.5504 85.4571 86.5344 85.4571C89.4117 85.4571 91.8628 87.7984 91.8628 90.7782C91.8628 93.758 89.4117 96.0993 86.5344 96.0993Z" fill="#333333"/>
<path d="M135.663 81.8379C133.958 81.8379 131.933 83.0085 131.08 82.37C130.867 82.2636 130.761 82.0507 130.654 81.8379H125.219V99.7168H130.547V92.3737C130.547 89.5003 132.572 87.0526 135.45 87.0526C138.434 87.0526 140.352 89.5003 140.352 92.3737V99.7168H145.68V92.3737C145.68 87.6911 142.59 81.8379 135.663 81.8379Z" fill="#333333"/>
<path d="M121.596 92.4807C121.702 91.9486 121.702 91.4165 121.702 90.778C121.702 90.4587 121.702 90.1394 121.702 89.8202C121.169 84.4991 116.694 80.2422 111.152 80.2422C105.61 80.2422 101.134 84.4991 100.602 89.8202C100.602 90.1394 100.602 90.4587 100.602 90.778C100.602 91.3101 100.602 91.9486 100.708 92.4807C101.561 97.4826 105.93 101.314 111.152 101.314C114.669 101.314 117.759 99.611 119.677 97.0569L114.775 94.6092C114.136 95.1413 113.496 95.567 112.644 95.7798C112.644 95.7798 112.644 95.7798 112.537 95.7798C112.431 95.7798 112.218 95.8862 112.111 95.8862C112.004 95.8862 112.004 95.8862 111.898 95.8862C111.791 95.8862 111.685 95.8862 111.578 95.8862C111.365 95.8862 111.258 95.8862 111.045 95.8862C110.832 95.8862 110.726 95.8862 110.513 95.8862C110.406 95.8862 110.406 95.8862 110.299 95.8862C110.193 95.8862 110.086 95.8862 109.98 95.8862C109.873 95.8862 109.873 95.8862 109.767 95.8862C109.66 95.8862 109.553 95.8862 109.447 95.7798C109.34 95.7798 109.34 95.7798 109.234 95.6734C109.127 95.6734 109.021 95.567 109.021 95.567C108.914 95.567 108.807 95.4605 108.594 95.3541C108.594 95.3541 108.488 95.3541 108.488 95.2477C108.381 95.2477 108.275 95.1413 108.275 95.1413C108.275 95.1413 108.168 95.1413 108.168 95.0349C108.061 94.9284 107.955 94.9284 107.955 94.822L107.848 94.7156C107.422 94.3963 107.102 94.0771 106.783 93.6514C106.463 93.2257 106.25 92.6936 106.037 92.1615H121.596V92.4807ZM105.93 89.9266C106.356 87.4789 108.488 85.6697 111.152 85.6697C113.71 85.6697 115.841 87.4789 116.374 89.9266H105.93Z" fill="#333333"/>
<path d="M54.7767 84.3917C54.2439 83.6467 53.6045 83.1146 52.8585 82.5825C51.0468 81.199 48.8088 80.3477 46.3577 80.3477C40.4964 80.3477 35.8074 85.0302 35.8074 90.8834C35.8074 93.3311 36.6599 95.566 38.0453 97.3752C38.5782 98.1201 39.2176 98.6522 39.857 99.2908C41.6687 100.674 43.9066 101.526 46.3577 101.526C52.2191 101.526 56.9081 96.8431 56.9081 90.9899C57.0147 88.4357 56.1621 86.2009 54.7767 84.3917ZM41.8818 93.4376C41.7753 93.3311 41.7753 93.3312 41.7753 93.2247C41.7753 93.1183 41.6687 93.1183 41.6687 93.0119C41.6687 92.9054 41.5621 92.9055 41.5621 92.799C41.5621 92.6926 41.4556 92.5862 41.4556 92.4798V92.3733C41.4556 92.2669 41.349 92.1605 41.349 91.9477C41.349 91.8412 41.349 91.6284 41.2424 91.522V91.4155C41.2424 91.3091 41.2424 91.0963 41.2424 90.9899C41.2424 88.1165 43.5869 85.6688 46.5709 85.6688C47.53 85.6688 48.4891 85.988 49.2351 86.4137L41.8818 93.4376ZM51.6862 90.8834C51.6862 93.7568 49.3417 96.2045 46.3577 96.2045C45.6118 96.2045 44.8658 96.0981 44.2264 95.7789C44.0132 95.6724 43.8001 95.566 43.5869 95.4596L50.8336 88.2229C51.0468 88.6486 51.2599 89.0743 51.3665 89.5V89.6064C51.3665 89.7128 51.4731 89.8192 51.4731 90.0321C51.4731 90.1385 51.4731 90.2449 51.4731 90.3513C51.4731 90.4577 51.4731 90.4578 51.4731 90.5642C51.6862 90.5642 51.6862 90.6706 51.6862 90.8834C51.6862 90.777 51.6862 90.777 51.6862 90.8834Z" fill="#333333"/>
</g>
<defs>
<clipPath id="clip0_3035_3561">
<rect width="146" height="116" fill="white"/>
</clipPath>
</defs>
</svg>
