<svg width="48" height="48" viewBox="0 0 48 48" fill="none" xmlns="http://www.w3.org/2000/svg">
<path fill-rule="evenodd" clip-rule="evenodd" d="M24 48C37.2548 48 48 37.2548 48 24C48 10.7452 37.2548 0 24 0C10.7452 0 0 10.7452 0 24C0 37.2548 10.7452 48 24 48Z" fill="#66BB6A"/>
<path d="M37.1853 14.7799C36.1875 13.74 34.4774 13.74 33.4797 14.7799L21.6392 27.0701L16.52 21.69C15.5227 20.6501 13.812 20.6501 12.8147 21.69L10.748 23.8452C9.75068 24.8856 9.75068 26.6687 10.748 27.7086L19.798 37.2197C20.7958 38.2601 22.5059 38.2601 23.5036 37.2197L25.57 35.0652C25.6809 34.9496 25.7794 34.8248 25.8656 34.6929L39.2517 20.7985C40.2494 19.7586 40.2494 17.9749 39.2517 16.935L37.1853 14.7799Z" fill="white"/>
</svg>
