<svg width="26" height="17" viewBox="0 0 26 17" fill="none" xmlns="http://www.w3.org/2000/svg">
<path fill-rule="evenodd" clip-rule="evenodd" d="M12.9999 0.998047C8.0324 0.998047 3.5275 3.80373 0.203386 8.36116C-0.0677953 8.73439 -0.0677953 9.25608 0.203386 9.62958C3.5275 14.1921 8.0324 16.998 12.9999 16.998C17.9676 16.998 22.4724 14.1921 25.7965 9.63494C26.0678 9.26143 26.0678 8.74002 25.7965 8.36651C22.4724 3.80373 17.9676 0.998047 12.9999 0.998047ZM13.356 14.6301C10.0587 14.8443 7.33551 12.0383 7.543 8.62859C7.71313 5.81728 9.92027 3.5387 12.6435 3.36307C15.941 3.14886 18.664 5.95455 18.4567 9.36455C18.2811 12.1702 16.074 14.4488 13.356 14.6301ZM13.1918 12.0304C11.4152 12.1456 9.94739 10.6357 10.0643 8.80192C10.1546 7.28662 11.3461 6.06219 12.8139 5.96322C14.5905 5.84798 16.0583 7.35793 15.9414 9.19169C15.8456 10.7127 14.6544 11.937 13.1918 12.0304Z" fill="#F59D22"/>
</svg>
