<svg width="438" height="62" viewBox="0 0 438 62" fill="none" xmlns="http://www.w3.org/2000/svg">
<path d="M16.7812 30.1562H4.625V25.25H16.7812C19.1354 25.25 21.0417 24.875 22.5 24.125C23.9583 23.375 25.0208 22.3333 25.6875 21C26.375 19.6667 26.7188 18.1458 26.7188 16.4375C26.7188 14.875 26.375 13.4062 25.6875 12.0312C25.0208 10.6562 23.9583 9.55208 22.5 8.71875C21.0417 7.86458 19.1354 7.4375 16.7812 7.4375H6.03125V48H0V2.5H16.7812C20.2188 2.5 23.125 3.09375 25.5 4.28125C27.875 5.46875 29.6771 7.11458 30.9062 9.21875C32.1354 11.3021 32.75 13.6875 32.75 16.375C32.75 19.2917 32.1354 21.7812 30.9062 23.8438C29.6771 25.9062 27.875 27.4792 25.5 28.5625C23.125 29.625 20.2188 30.1562 16.7812 30.1562ZM45.7812 0V48H39.9688V0H45.7812ZM75 42.2188V24.8125C75 23.4792 74.7292 22.3229 74.1875 21.3438C73.6667 20.3438 72.875 19.5729 71.8125 19.0312C70.75 18.4896 69.4375 18.2188 67.875 18.2188C66.4167 18.2188 65.1354 18.4688 64.0312 18.9688C62.9479 19.4688 62.0938 20.125 61.4688 20.9375C60.8646 21.75 60.5625 22.625 60.5625 23.5625H54.7812C54.7812 22.3542 55.0938 21.1562 55.7188 19.9688C56.3438 18.7812 57.2396 17.7083 58.4062 16.75C59.5938 15.7708 61.0104 15 62.6562 14.4375C64.3229 13.8542 66.1771 13.5625 68.2188 13.5625C70.6771 13.5625 72.8438 13.9792 74.7188 14.8125C76.6146 15.6458 78.0938 16.9062 79.1562 18.5938C80.2396 20.2604 80.7812 22.3542 80.7812 24.875V40.625C80.7812 41.75 80.875 42.9479 81.0625 44.2188C81.2708 45.4896 81.5729 46.5833 81.9688 47.5V48H75.9375C75.6458 47.3333 75.4167 46.4479 75.25 45.3438C75.0833 44.2188 75 43.1771 75 42.2188ZM76 27.5L76.0625 31.5625H70.2188C68.5729 31.5625 67.1042 31.6979 65.8125 31.9688C64.5208 32.2188 63.4375 32.6042 62.5625 33.125C61.6875 33.6458 61.0208 34.3021 60.5625 35.0938C60.1042 35.8646 59.875 36.7708 59.875 37.8125C59.875 38.875 60.1146 39.8438 60.5938 40.7188C61.0729 41.5938 61.7917 42.2917 62.75 42.8125C63.7292 43.3125 64.9271 43.5625 66.3438 43.5625C68.1146 43.5625 69.6771 43.1875 71.0312 42.4375C72.3854 41.6875 73.4583 40.7708 74.25 39.6875C75.0625 38.6042 75.5 37.5521 75.5625 36.5312L78.0312 39.3125C77.8854 40.1875 77.4896 41.1562 76.8438 42.2188C76.1979 43.2812 75.3333 44.3021 74.25 45.2812C73.1875 46.2396 71.9167 47.0417 70.4375 47.6875C68.9792 48.3125 67.3333 48.625 65.5 48.625C63.2083 48.625 61.1979 48.1771 59.4688 47.2812C57.7604 46.3854 56.4271 45.1875 55.4688 43.6875C54.5312 42.1667 54.0625 40.4688 54.0625 38.5938C54.0625 36.7812 54.4167 35.1875 55.125 33.8125C55.8333 32.4167 56.8542 31.2604 58.1875 30.3438C59.5208 29.4062 61.125 28.6979 63 28.2188C64.875 27.7396 66.9688 27.5 69.2812 27.5H76ZM104.031 14.1875V18.625H85.75V14.1875H104.031ZM91.9375 5.96875H97.7188V39.625C97.7188 40.7708 97.8958 41.6354 98.25 42.2188C98.6042 42.8021 99.0625 43.1875 99.625 43.375C100.188 43.5625 100.792 43.6562 101.438 43.6562C101.917 43.6562 102.417 43.6146 102.938 43.5312C103.479 43.4271 103.885 43.3438 104.156 43.2812L104.188 48C103.729 48.1458 103.125 48.2812 102.375 48.4062C101.646 48.5521 100.76 48.625 99.7188 48.625C98.3021 48.625 97 48.3438 95.8125 47.7812C94.625 47.2188 93.6771 46.2812 92.9688 44.9688C92.2812 43.6354 91.9375 41.8438 91.9375 39.5938V5.96875ZM124.344 43.875C125.719 43.875 126.99 43.5938 128.156 43.0312C129.323 42.4688 130.281 41.6979 131.031 40.7188C131.781 39.7188 132.208 38.5833 132.312 37.3125H137.812C137.708 39.3125 137.031 41.1771 135.781 42.9062C134.552 44.6146 132.938 46 130.938 47.0625C128.938 48.1042 126.74 48.625 124.344 48.625C121.802 48.625 119.583 48.1771 117.688 47.2812C115.812 46.3854 114.25 45.1562 113 43.5938C111.771 42.0312 110.844 40.2396 110.219 38.2188C109.615 36.1771 109.312 34.0208 109.312 31.75V30.4375C109.312 28.1667 109.615 26.0208 110.219 24C110.844 21.9583 111.771 20.1562 113 18.5938C114.25 17.0312 115.812 15.8021 117.688 14.9062C119.583 14.0104 121.802 13.5625 124.344 13.5625C126.99 13.5625 129.302 14.1042 131.281 15.1875C133.26 16.25 134.812 17.7083 135.938 19.5625C137.083 21.3958 137.708 23.4792 137.812 25.8125H132.312C132.208 24.4167 131.812 23.1562 131.125 22.0312C130.458 20.9062 129.542 20.0104 128.375 19.3438C127.229 18.6562 125.885 18.3125 124.344 18.3125C122.573 18.3125 121.083 18.6667 119.875 19.375C118.688 20.0625 117.74 21 117.031 22.1875C116.344 23.3542 115.844 24.6562 115.531 26.0938C115.24 27.5104 115.094 28.9583 115.094 30.4375V31.75C115.094 33.2292 115.24 34.6875 115.531 36.125C115.823 37.5625 116.312 38.8646 117 40.0312C117.708 41.1979 118.656 42.1354 119.844 42.8438C121.052 43.5312 122.552 43.875 124.344 43.875ZM158.344 48.625C155.99 48.625 153.854 48.2292 151.938 47.4375C150.042 46.625 148.406 45.4896 147.031 44.0312C145.677 42.5729 144.635 40.8438 143.906 38.8438C143.177 36.8438 142.812 34.6562 142.812 32.2812V30.9688C142.812 28.2188 143.219 25.7708 144.031 23.625C144.844 21.4583 145.948 19.625 147.344 18.125C148.74 16.625 150.323 15.4896 152.094 14.7188C153.865 13.9479 155.698 13.5625 157.594 13.5625C160.01 13.5625 162.094 13.9792 163.844 14.8125C165.615 15.6458 167.062 16.8125 168.188 18.3125C169.312 19.7917 170.146 21.5417 170.688 23.5625C171.229 25.5625 171.5 27.75 171.5 30.125V32.7188H146.25V28H165.719V27.5625C165.635 26.0625 165.323 24.6042 164.781 23.1875C164.26 21.7708 163.427 20.6042 162.281 19.6875C161.135 18.7708 159.573 18.3125 157.594 18.3125C156.281 18.3125 155.073 18.5938 153.969 19.1562C152.865 19.6979 151.917 20.5104 151.125 21.5938C150.333 22.6771 149.719 24 149.281 25.5625C148.844 27.125 148.625 28.9271 148.625 30.9688V32.2812C148.625 33.8854 148.844 35.3958 149.281 36.8125C149.74 38.2083 150.396 39.4375 151.25 40.5C152.125 41.5625 153.177 42.3958 154.406 43C155.656 43.6042 157.073 43.9062 158.656 43.9062C160.698 43.9062 162.427 43.4896 163.844 42.6562C165.26 41.8229 166.5 40.7083 167.562 39.3125L171.062 42.0938C170.333 43.1979 169.406 44.25 168.281 45.25C167.156 46.25 165.771 47.0625 164.125 47.6875C162.5 48.3125 160.573 48.625 158.344 48.625ZM178.219 0H184.031V41.4375L183.531 48H178.219V0ZM206.875 30.8125V31.4688C206.875 33.9271 206.583 36.2083 206 38.3125C205.417 40.3958 204.562 42.2083 203.438 43.75C202.312 45.2917 200.938 46.4896 199.312 47.3438C197.688 48.1979 195.823 48.625 193.719 48.625C191.573 48.625 189.688 48.2604 188.062 47.5312C186.458 46.7812 185.104 45.7083 184 44.3125C182.896 42.9167 182.01 41.2292 181.344 39.25C180.698 37.2708 180.25 35.0417 180 32.5625V29.6875C180.25 27.1875 180.698 24.9479 181.344 22.9688C182.01 20.9896 182.896 19.3021 184 17.9062C185.104 16.4896 186.458 15.4167 188.062 14.6875C189.667 13.9375 191.531 13.5625 193.656 13.5625C195.781 13.5625 197.667 13.9792 199.312 14.8125C200.958 15.625 202.333 16.7917 203.438 18.3125C204.562 19.8333 205.417 21.6562 206 23.7812C206.583 25.8854 206.875 28.2292 206.875 30.8125ZM201.062 31.4688V30.8125C201.062 29.125 200.906 27.5417 200.594 26.0625C200.281 24.5625 199.781 23.25 199.094 22.125C198.406 20.9792 197.5 20.0833 196.375 19.4375C195.25 18.7708 193.865 18.4375 192.219 18.4375C190.76 18.4375 189.49 18.6875 188.406 19.1875C187.344 19.6875 186.438 20.3646 185.688 21.2188C184.938 22.0521 184.323 23.0104 183.844 24.0938C183.385 25.1562 183.042 26.2604 182.812 27.4062V34.9375C183.146 36.3958 183.688 37.8021 184.438 39.1562C185.208 40.4896 186.229 41.5833 187.5 42.4375C188.792 43.2917 190.385 43.7188 192.281 43.7188C193.844 43.7188 195.177 43.4062 196.281 42.7812C197.406 42.1354 198.312 41.25 199 40.125C199.708 39 200.229 37.6979 200.562 36.2188C200.896 34.7396 201.062 33.1562 201.062 31.4688ZM212.656 31.4688V30.75C212.656 28.3125 213.01 26.0521 213.719 23.9688C214.427 21.8646 215.448 20.0417 216.781 18.5C218.115 16.9375 219.729 15.7292 221.625 14.875C223.521 14 225.646 13.5625 228 13.5625C230.375 13.5625 232.51 14 234.406 14.875C236.323 15.7292 237.948 16.9375 239.281 18.5C240.635 20.0417 241.667 21.8646 242.375 23.9688C243.083 26.0521 243.438 28.3125 243.438 30.75V31.4688C243.438 33.9062 243.083 36.1667 242.375 38.25C241.667 40.3333 240.635 42.1562 239.281 43.7188C237.948 45.2604 236.333 46.4688 234.438 47.3438C232.562 48.1979 230.438 48.625 228.062 48.625C225.688 48.625 223.552 48.1979 221.656 47.3438C219.76 46.4688 218.135 45.2604 216.781 43.7188C215.448 42.1562 214.427 40.3333 213.719 38.25C213.01 36.1667 212.656 33.9062 212.656 31.4688ZM218.438 30.75V31.4688C218.438 33.1562 218.635 34.75 219.031 36.25C219.427 37.7292 220.021 39.0417 220.812 40.1875C221.625 41.3333 222.635 42.2396 223.844 42.9062C225.052 43.5521 226.458 43.875 228.062 43.875C229.646 43.875 231.031 43.5521 232.219 42.9062C233.427 42.2396 234.427 41.3333 235.219 40.1875C236.01 39.0417 236.604 37.7292 237 36.25C237.417 34.75 237.625 33.1562 237.625 31.4688V30.75C237.625 29.0833 237.417 27.5104 237 26.0312C236.604 24.5312 236 23.2083 235.188 22.0625C234.396 20.8958 233.396 19.9792 232.188 19.3125C231 18.6458 229.604 18.3125 228 18.3125C226.417 18.3125 225.021 18.6458 223.812 19.3125C222.625 19.9792 221.625 20.8958 220.812 22.0625C220.021 23.2083 219.427 24.5312 219.031 26.0312C218.635 27.5104 218.438 29.0833 218.438 30.75ZM279.75 48H270.25L270.312 43.0938H279.75C283 43.0938 285.708 42.4167 287.875 41.0625C290.042 39.6875 291.667 37.7708 292.75 35.3125C293.854 32.8333 294.406 29.9375 294.406 26.625V23.8438C294.406 21.2396 294.094 18.9271 293.469 16.9062C292.844 14.8646 291.927 13.1458 290.719 11.75C289.51 10.3333 288.031 9.26042 286.281 8.53125C284.552 7.80208 282.562 7.4375 280.312 7.4375H270.062V2.5H280.312C283.292 2.5 286.01 3 288.469 4C290.927 4.97917 293.042 6.40625 294.812 8.28125C296.604 10.1354 297.979 12.3854 298.938 15.0312C299.896 17.6562 300.375 20.6146 300.375 23.9062V26.625C300.375 29.9167 299.896 32.8854 298.938 35.5312C297.979 38.1562 296.594 40.3958 294.781 42.25C292.99 44.1042 290.823 45.5312 288.281 46.5312C285.76 47.5104 282.917 48 279.75 48ZM273.469 2.5V48H267.438V2.5H273.469ZM314.844 14.1875V48H309.031V14.1875H314.844ZM308.594 5.21875C308.594 4.28125 308.875 3.48958 309.438 2.84375C310.021 2.19792 310.875 1.875 312 1.875C313.104 1.875 313.948 2.19792 314.531 2.84375C315.135 3.48958 315.438 4.28125 315.438 5.21875C315.438 6.11458 315.135 6.88542 314.531 7.53125C313.948 8.15625 313.104 8.46875 312 8.46875C310.875 8.46875 310.021 8.15625 309.438 7.53125C308.875 6.88542 308.594 6.11458 308.594 5.21875ZM346.031 14.1875H351.281V47.2812C351.281 50.2604 350.677 52.8021 349.469 54.9062C348.26 57.0104 346.573 58.6042 344.406 59.6875C342.26 60.7917 339.781 61.3438 336.969 61.3438C335.802 61.3438 334.427 61.1562 332.844 60.7812C331.281 60.4271 329.74 59.8125 328.219 58.9375C326.719 58.0833 325.458 56.9271 324.438 55.4688L327.469 52.0312C328.885 53.7396 330.365 54.9271 331.906 55.5938C333.469 56.2604 335.01 56.5938 336.531 56.5938C338.365 56.5938 339.948 56.25 341.281 55.5625C342.615 54.875 343.646 53.8542 344.375 52.5C345.125 51.1667 345.5 49.5208 345.5 47.5625V21.625L346.031 14.1875ZM322.75 31.4688V30.8125C322.75 28.2292 323.052 25.8854 323.656 23.7812C324.281 21.6562 325.167 19.8333 326.312 18.3125C327.479 16.7917 328.885 15.625 330.531 14.8125C332.177 13.9792 334.031 13.5625 336.094 13.5625C338.219 13.5625 340.073 13.9375 341.656 14.6875C343.26 15.4167 344.615 16.4896 345.719 17.9062C346.844 19.3021 347.729 20.9896 348.375 22.9688C349.021 24.9479 349.469 27.1875 349.719 29.6875V32.5625C349.49 35.0417 349.042 37.2708 348.375 39.25C347.729 41.2292 346.844 42.9167 345.719 44.3125C344.615 45.7083 343.26 46.7812 341.656 47.5312C340.052 48.2604 338.177 48.625 336.031 48.625C334.01 48.625 332.177 48.1979 330.531 47.3438C328.906 46.4896 327.51 45.2917 326.344 43.75C325.177 42.2083 324.281 40.3958 323.656 38.3125C323.052 36.2083 322.75 33.9271 322.75 31.4688ZM328.531 30.8125V31.4688C328.531 33.1562 328.698 34.7396 329.031 36.2188C329.385 37.6979 329.917 39 330.625 40.125C331.354 41.25 332.281 42.1354 333.406 42.7812C334.531 43.4062 335.875 43.7188 337.438 43.7188C339.354 43.7188 340.938 43.3125 342.188 42.5C343.438 41.6875 344.427 40.6146 345.156 39.2812C345.906 37.9479 346.49 36.5 346.906 34.9375V27.4062C346.677 26.2604 346.323 25.1562 345.844 24.0938C345.385 23.0104 344.781 22.0521 344.031 21.2188C343.302 20.3646 342.396 19.6875 341.312 19.1875C340.229 18.6875 338.958 18.4375 337.5 18.4375C335.917 18.4375 334.552 18.7708 333.406 19.4375C332.281 20.0833 331.354 20.9792 330.625 22.125C329.917 23.25 329.385 24.5625 329.031 26.0625C328.698 27.5417 328.531 29.125 328.531 30.8125ZM366.344 14.1875V48H360.531V14.1875H366.344ZM360.094 5.21875C360.094 4.28125 360.375 3.48958 360.938 2.84375C361.521 2.19792 362.375 1.875 363.5 1.875C364.604 1.875 365.448 2.19792 366.031 2.84375C366.635 3.48958 366.938 4.28125 366.938 5.21875C366.938 6.11458 366.635 6.88542 366.031 7.53125C365.448 8.15625 364.604 8.46875 363.5 8.46875C362.375 8.46875 361.521 8.15625 360.938 7.53125C360.375 6.88542 360.094 6.11458 360.094 5.21875ZM389.781 14.1875V18.625H371.5V14.1875H389.781ZM377.688 5.96875H383.469V39.625C383.469 40.7708 383.646 41.6354 384 42.2188C384.354 42.8021 384.812 43.1875 385.375 43.375C385.938 43.5625 386.542 43.6562 387.188 43.6562C387.667 43.6562 388.167 43.6146 388.688 43.5312C389.229 43.4271 389.635 43.3438 389.906 43.2812L389.938 48C389.479 48.1458 388.875 48.2812 388.125 48.4062C387.396 48.5521 386.51 48.625 385.469 48.625C384.052 48.625 382.75 48.3438 381.562 47.7812C380.375 47.2188 379.427 46.2812 378.719 44.9688C378.031 43.6354 377.688 41.8438 377.688 39.5938V5.96875ZM416.5 42.2188V24.8125C416.5 23.4792 416.229 22.3229 415.688 21.3438C415.167 20.3438 414.375 19.5729 413.312 19.0312C412.25 18.4896 410.938 18.2188 409.375 18.2188C407.917 18.2188 406.635 18.4688 405.531 18.9688C404.448 19.4688 403.594 20.125 402.969 20.9375C402.365 21.75 402.062 22.625 402.062 23.5625H396.281C396.281 22.3542 396.594 21.1562 397.219 19.9688C397.844 18.7812 398.74 17.7083 399.906 16.75C401.094 15.7708 402.51 15 404.156 14.4375C405.823 13.8542 407.677 13.5625 409.719 13.5625C412.177 13.5625 414.344 13.9792 416.219 14.8125C418.115 15.6458 419.594 16.9062 420.656 18.5938C421.74 20.2604 422.281 22.3542 422.281 24.875V40.625C422.281 41.75 422.375 42.9479 422.562 44.2188C422.771 45.4896 423.073 46.5833 423.469 47.5V48H417.438C417.146 47.3333 416.917 46.4479 416.75 45.3438C416.583 44.2188 416.5 43.1771 416.5 42.2188ZM417.5 27.5L417.562 31.5625H411.719C410.073 31.5625 408.604 31.6979 407.312 31.9688C406.021 32.2188 404.938 32.6042 404.062 33.125C403.188 33.6458 402.521 34.3021 402.062 35.0938C401.604 35.8646 401.375 36.7708 401.375 37.8125C401.375 38.875 401.615 39.8438 402.094 40.7188C402.573 41.5938 403.292 42.2917 404.25 42.8125C405.229 43.3125 406.427 43.5625 407.844 43.5625C409.615 43.5625 411.177 43.1875 412.531 42.4375C413.885 41.6875 414.958 40.7708 415.75 39.6875C416.562 38.6042 417 37.5521 417.062 36.5312L419.531 39.3125C419.385 40.1875 418.99 41.1562 418.344 42.2188C417.698 43.2812 416.833 44.3021 415.75 45.2812C414.688 46.2396 413.417 47.0417 411.938 47.6875C410.479 48.3125 408.833 48.625 407 48.625C404.708 48.625 402.698 48.1771 400.969 47.2812C399.26 46.3854 397.927 45.1875 396.969 43.6875C396.031 42.1667 395.562 40.4688 395.562 38.5938C395.562 36.7812 395.917 35.1875 396.625 33.8125C397.333 32.4167 398.354 31.2604 399.688 30.3438C401.021 29.4062 402.625 28.6979 404.5 28.2188C406.375 27.7396 408.469 27.5 410.781 27.5H417.5ZM437.656 0V48H431.844V0H437.656Z" fill="black"/>
</svg>
