<svg width="219" height="116" viewBox="0 0 219 116" fill="none" xmlns="http://www.w3.org/2000/svg">
<path d="M0.96875 47V1.5H15.5625C20.1042 1.5 23.5312 2.80208 25.8438 5.40625C28.1771 7.98958 29.3438 11.3854 29.3438 15.5938C29.3438 19.7812 28.1875 23.1875 25.875 25.8125C23.5625 28.4167 20.1042 29.7188 15.5 29.7188H7.25V47H0.96875ZM7.25 24.9062H14.7812C17.8438 24.9062 19.9896 24.0104 21.2188 22.2188C22.4479 20.4271 23.0625 18.2396 23.0625 15.6562C23.0625 13.0729 22.4479 10.9062 21.2188 9.15625C19.9896 7.38542 17.8438 6.48958 14.7812 6.46875H7.25V24.9062ZM34.3125 47V0.90625H40.4375V47H34.3125ZM45.9688 38.5C45.9688 35.5417 47.125 33.2083 49.4375 31.5C51.75 29.7917 54.8021 28.9375 58.5938 28.9375H65.625V26.4375C65.625 24.6875 65.1667 23.3333 64.25 22.375C63.3542 21.4167 61.8646 20.9375 59.7812 20.9375C57.7188 20.9375 56.1667 21.3438 55.125 22.1562C54.0833 22.9688 53.5625 24.0938 53.5625 25.5312V26.125H47.6875V25.2812C47.6875 22.8229 48.7917 20.7708 51 19.125C53.2292 17.4792 56.2396 16.6562 60.0312 16.6562C63.8021 16.6562 66.6875 17.4375 68.6875 19C70.7083 20.5417 71.7188 23.0625 71.7188 26.5625V39.75C71.7188 41.0625 71.8125 42.3021 72 43.4688C72.2083 44.6354 72.5104 45.6562 72.9062 46.5312V47H67.0312C66.7188 46.4792 66.4583 45.8229 66.25 45.0312C66.0417 44.2396 65.8854 43.4271 65.7812 42.5938C65.0938 43.8438 63.9167 44.9688 62.25 45.9688C60.5833 46.9688 58.4583 47.4688 55.875 47.4688C52.875 47.4688 50.4688 46.7083 48.6562 45.1875C46.8646 43.6458 45.9688 41.4167 45.9688 38.5ZM52.0312 38.1562C52.0312 39.8021 52.5208 41.0521 53.5 41.9062C54.4792 42.7604 55.9062 43.1875 57.7812 43.1875C59.7812 43.1875 61.5833 42.5104 63.1875 41.1562C64.8125 39.7812 65.625 38.25 65.625 36.5625V32.8125H59.9688C57.2812 32.8125 55.2812 33.2812 53.9688 34.2188C52.6771 35.1354 52.0312 36.4479 52.0312 38.1562ZM75.4375 22.125V17.375H93.3125V22.125H75.4375ZM80.5 38.6562V19.0938L80.5938 18.625V7.375H86.5312V37.9375C86.5312 39.9792 86.8229 41.3125 87.4062 41.9375C88.0104 42.5625 88.9479 42.875 90.2188 42.875C90.7188 42.875 91.2083 42.8333 91.6875 42.75C92.1875 42.6667 92.6667 42.5208 93.125 42.3125V47C92.6458 47.1875 92 47.3438 91.1875 47.4688C90.3958 47.6146 89.4583 47.6875 88.375 47.6875C85.8958 47.6875 83.9583 47.0104 82.5625 45.6562C81.1875 44.2812 80.5 41.9479 80.5 38.6562ZM96 32.6562V31.6562C96 26.9896 97.25 23.3125 99.75 20.625C102.271 17.9375 105.667 16.5938 109.938 16.5938C114.083 16.5938 117.229 17.6146 119.375 19.6562C121.542 21.6771 122.656 24.3021 122.719 27.5312V28.0312H116.75V27.625C116.75 25.7083 116.177 24.1979 115.031 23.0938C113.906 21.9688 112.25 21.4062 110.062 21.4062C107.521 21.4062 105.573 22.2917 104.219 24.0625C102.865 25.8125 102.188 28.3021 102.188 31.5312V32.7812C102.188 35.8438 102.854 38.3125 104.188 40.1875C105.521 42.0417 107.458 42.9688 110 42.9688C112.271 42.9688 113.969 42.3958 115.094 41.25C116.24 40.1042 116.823 38.5521 116.844 36.5938V36.1875H122.781L122.75 36.6562C122.729 39.8854 121.615 42.5417 119.406 44.625C117.219 46.6875 114.062 47.7188 109.938 47.7188C105.688 47.7188 102.302 46.3646 99.7812 43.6562C97.2604 40.9479 96 37.2812 96 32.6562ZM126.125 32.6562V31.6562C126.125 27.1354 127.385 23.5 129.906 20.75C132.448 18 135.802 16.625 139.969 16.625C144.135 16.625 147.333 17.9167 149.562 20.5C151.792 23.0625 152.906 26.6354 152.906 31.2188V33.2812H129.531V29.2812H146.906V28.9375C146.906 26.9167 146.354 25.1354 145.25 23.5938C144.167 22.0521 142.417 21.2812 140 21.2812C137.417 21.2812 135.469 22.2188 134.156 24.0938C132.844 25.9688 132.188 28.375 132.188 31.3125V32.6875C132.188 35.8125 132.885 38.3229 134.281 40.2188C135.698 42.0938 137.75 43.0312 140.438 43.0312C142.271 43.0312 143.823 42.6562 145.094 41.9062C146.365 41.1354 147.365 40.1667 148.094 39L152.656 41.4688C151.781 43.1979 150.333 44.6771 148.312 45.9062C146.292 47.1146 143.688 47.7188 140.5 47.7188C135.917 47.7188 132.375 46.3542 129.875 43.625C127.375 40.8958 126.125 37.2396 126.125 32.6562ZM158.156 47V0.90625H164.219V21.0625C165.198 19.75 166.448 18.6979 167.969 17.9062C169.51 17.1146 171.344 16.7188 173.469 16.7188C177.198 16.7188 180.146 18.0938 182.312 20.8438C184.5 23.5729 185.594 27.1042 185.594 31.4375V32.4375C185.594 36.7708 184.5 40.3854 182.312 43.2812C180.125 46.1771 177.167 47.625 173.438 47.625C171.312 47.625 169.427 47.2292 167.781 46.4375C166.156 45.625 164.927 44.5729 164.094 43.2812H164.031L163.969 47H158.156ZM164.219 38.0625C164.823 39.3542 165.75 40.4896 167 41.4688C168.25 42.4271 169.865 42.9062 171.844 42.9062C174.344 42.9062 176.219 41.9167 177.469 39.9375C178.74 37.9375 179.375 35.4375 179.375 32.4375V31.4688C179.375 28.4896 178.75 26.0833 177.5 24.25C176.25 22.4167 174.281 21.5 171.594 21.5C169.781 21.5 168.24 21.9792 166.969 22.9375C165.698 23.8958 164.781 25.0104 164.219 26.2812V38.0625ZM189.188 32.6562V31.6562C189.188 27.1562 190.5 23.5208 193.125 20.75C195.771 17.9792 199.271 16.5938 203.625 16.5938C208 16.5938 211.5 17.9792 214.125 20.75C216.771 23.5208 218.094 27.1562 218.094 31.6562V32.6562C218.094 37.1771 216.771 40.8229 214.125 43.5938C211.5 46.3438 208 47.7188 203.625 47.7188C199.25 47.7188 195.75 46.3438 193.125 43.5938C190.5 40.8229 189.188 37.1771 189.188 32.6562ZM195.375 31.5312V32.7812C195.375 35.7604 196.073 38.2083 197.469 40.125C198.865 42.0208 200.917 42.9688 203.625 42.9688C206.333 42.9688 208.385 42.0208 209.781 40.125C211.177 38.2083 211.875 35.75 211.875 32.75V31.5312C211.875 28.5521 211.177 26.125 209.781 24.25C208.385 22.3542 206.333 21.4062 203.625 21.4062C200.938 21.4062 198.885 22.3542 197.469 24.25C196.073 26.125 195.375 28.5521 195.375 31.5312ZM0.96875 102V56.5H13.5938C19.2604 56.5 23.75 58.3958 27.0625 62.1875C30.3958 65.9792 32.0625 71.2396 32.0625 77.9688V80.5C32.0625 87.2083 30.4271 92.4688 27.1562 96.2812C23.8854 100.094 19.3646 102 13.5938 102H0.96875ZM7.1875 97.125H13.3125C17.2292 97.125 20.2708 95.7292 22.4375 92.9375C24.6042 90.125 25.6875 86.125 25.6875 80.9375V77.5938C25.6875 72.3646 24.5625 68.375 22.3125 65.625C20.0833 62.8542 17.0833 61.4688 13.3125 61.4688H7.1875V97.125ZM38.4375 102V72.375H44.5938V102H38.4375ZM37.7812 61.9688C37.7812 60.9896 38.1042 60.1562 38.75 59.4688C39.4167 58.7812 40.3438 58.4375 41.5312 58.4375C42.7188 58.4375 43.625 58.7812 44.25 59.4688C44.8958 60.1354 45.2188 60.9688 45.2188 61.9688C45.2188 62.9688 44.8958 63.8229 44.25 64.5312C43.6042 65.2188 42.6875 65.5625 41.5 65.5625C40.2917 65.5625 39.3646 65.2188 38.7188 64.5312C38.0938 63.8229 37.7812 62.9688 37.7812 61.9688ZM51.5625 111.938L53.7188 107.562C54.6146 108.354 55.9062 109.104 57.5938 109.812C59.2812 110.521 61.1354 110.875 63.1562 110.875C65.5104 110.875 67.4896 110.104 69.0938 108.562C70.7188 107.021 71.5312 104.51 71.5312 101.031V98.0625C70.5938 99.375 69.3646 100.438 67.8438 101.25C66.3229 102.042 64.4375 102.438 62.1875 102.438C58.5 102.438 55.5729 101.062 53.4062 98.3125C51.2604 95.5417 50.1875 91.9896 50.1875 87.6562V86.6562C50.1875 82.3229 51.25 78.7604 53.375 75.9688C55.5 73.1562 58.4792 71.75 62.3125 71.75C64.3333 71.75 66.1667 72.1771 67.8125 73.0312C69.4792 73.8854 70.7292 74.9688 71.5625 76.2812H71.625L71.7188 72.375H77.5625V100.5C77.5625 105.438 76.3021 109.188 73.7812 111.75C71.2812 114.312 67.9062 115.594 63.6562 115.594C61.1562 115.594 58.8646 115.24 56.7812 114.531C54.6979 113.844 52.9583 112.979 51.5625 111.938ZM56.3125 87.6562C56.3125 90.6562 56.9479 93.0938 58.2188 94.9688C59.4896 96.8229 61.4688 97.75 64.1562 97.75C65.9688 97.75 67.5104 97.2604 68.7812 96.2812C70.0521 95.3021 70.9583 94.1667 71.5 92.875V81.3438C70.9375 80.0521 70.0208 78.9167 68.75 77.9375C67.4792 76.9583 65.9479 76.4688 64.1562 76.4688C61.4688 76.4688 59.4896 77.4271 58.2188 79.3438C56.9479 81.2604 56.3125 83.7083 56.3125 86.6875V87.6562ZM84.875 102V72.375H91.0312V102H84.875ZM84.2188 61.9688C84.2188 60.9896 84.5417 60.1562 85.1875 59.4688C85.8542 58.7812 86.7812 58.4375 87.9688 58.4375C89.1562 58.4375 90.0625 58.7812 90.6875 59.4688C91.3333 60.1354 91.6562 60.9688 91.6562 61.9688C91.6562 62.9688 91.3333 63.8229 90.6875 64.5312C90.0417 65.2188 89.125 65.5625 87.9375 65.5625C86.7292 65.5625 85.8021 65.2188 85.1562 64.5312C84.5312 63.8229 84.2188 62.9688 84.2188 61.9688ZM94.9375 77.125V72.375H112.812V77.125H94.9375ZM100 93.6562V74.0938L100.094 73.625V62.375H106.031V92.9375C106.031 94.9792 106.323 96.3125 106.906 96.9375C107.51 97.5625 108.448 97.875 109.719 97.875C110.219 97.875 110.708 97.8333 111.188 97.75C111.688 97.6667 112.167 97.5208 112.625 97.3125V102C112.146 102.188 111.5 102.344 110.688 102.469C109.896 102.615 108.958 102.688 107.875 102.688C105.396 102.688 103.458 102.01 102.062 100.656C100.688 99.2812 100 96.9479 100 93.6562ZM115.594 93.5C115.594 90.5417 116.75 88.2083 119.062 86.5C121.375 84.7917 124.427 83.9375 128.219 83.9375H135.25V81.4375C135.25 79.6875 134.792 78.3333 133.875 77.375C132.979 76.4167 131.49 75.9375 129.406 75.9375C127.344 75.9375 125.792 76.3438 124.75 77.1562C123.708 77.9688 123.188 79.0938 123.188 80.5312V81.125H117.312V80.2812C117.312 77.8229 118.417 75.7708 120.625 74.125C122.854 72.4792 125.865 71.6562 129.656 71.6562C133.427 71.6562 136.312 72.4375 138.312 74C140.333 75.5417 141.344 78.0625 141.344 81.5625V94.75C141.344 96.0625 141.438 97.3021 141.625 98.4688C141.833 99.6354 142.135 100.656 142.531 101.531V102H136.656C136.344 101.479 136.083 100.823 135.875 100.031C135.667 99.2396 135.51 98.4271 135.406 97.5938C134.719 98.8438 133.542 99.9688 131.875 100.969C130.208 101.969 128.083 102.469 125.5 102.469C122.5 102.469 120.094 101.708 118.281 100.188C116.49 98.6458 115.594 96.4167 115.594 93.5ZM121.656 93.1562C121.656 94.8021 122.146 96.0521 123.125 96.9062C124.104 97.7604 125.531 98.1875 127.406 98.1875C129.406 98.1875 131.208 97.5104 132.812 96.1562C134.438 94.7812 135.25 93.25 135.25 91.5625V87.8125H129.594C126.906 87.8125 124.906 88.2812 123.594 89.2188C122.302 90.1354 121.656 91.4479 121.656 93.1562ZM148.562 102V55.9062H154.688V102H148.562Z" fill="black"/>
</svg>
