<svg width="20" height="20" viewBox="0 0 20 20" fill="none" xmlns="http://www.w3.org/2000/svg">
<path d="M4.71114 7.21213C4.8519 7.07366 5.01856 7.00443 5.21112 7.00443C5.40368 7.00443 5.57015 7.07366 5.71053 7.21213L9.83481 11.2692L14.2895 7.19385C14.4208 7.06462 14.5851 7 14.7821 7C14.9792 7 15.1481 7.06923 15.2889 7.2077C15.4296 7.34616 15.5 7.51011 15.5 7.69953C15.5 7.88895 15.4296 8.05271 15.2889 8.1908L10.2289 12.8477C10.1726 12.9031 10.1116 12.9424 10.046 12.9657C9.98027 12.9889 9.90989 13.0004 9.83481 13C9.75974 13 9.68936 12.9884 9.62367 12.9651C9.55798 12.9418 9.49698 12.9027 9.44068 12.8477L4.69706 8.18138C4.56569 8.05215 4.5 7.89282 4.5 7.7034C4.5 7.51398 4.57038 7.35023 4.71114 7.21213Z" fill="#4773F6"/>
</svg>
