<svg width="20" height="20" viewBox="0 0 20 20" fill="none" xmlns="http://www.w3.org/2000/svg">
<path d="M7.09257 15.4058L7.09209 15.4054C7.02172 15.3366 7 15.2763 7 15.2013C7 15.1263 7.02166 15.0665 7.09161 14.9983L7.09209 14.9978L11.8288 10.3654L12.1943 10.0079L11.8288 9.65044L7.07592 5.00222C7.02634 4.95373 7 4.90046 7 4.80632C7 4.72275 7.02428 4.66094 7.09209 4.59462C7.16267 4.5256 7.22949 4.5 7.31672 4.5C7.40389 4.5 7.47023 4.52554 7.54017 4.5941C7.54019 4.59412 7.54021 4.59414 7.54023 4.59415L12.972 9.92217L12.9726 9.92268C12.9827 9.93255 12.9877 9.93928 12.9897 9.94238C12.9904 9.94337 12.9908 9.94405 12.991 9.94444C12.9959 9.95809 13.0001 9.97714 13 10.0053H13V10.0079C13 10.0372 12.9955 10.0572 12.9903 10.0717C12.99 10.0721 12.9895 10.073 12.9886 10.0743C12.9865 10.0776 12.9815 10.0842 12.9718 10.0939C12.9717 10.094 12.9715 10.0942 12.9714 10.0943L7.52454 15.4212L7.87413 15.7787L7.52454 15.4212C7.47193 15.4726 7.41349 15.5 7.31607 15.5C7.22888 15.5 7.16253 15.4745 7.09257 15.4058Z" fill="black" stroke="white"/>
</svg>
