<svg width="20" height="20" viewBox="0 0 20 20" fill="none" xmlns="http://www.w3.org/2000/svg">
<g clip-path="url(#clip0_101_83)">
<path d="M17.0833 14.5834V9.16673C17.0817 7.72227 16.6385 6.31282 15.8132 5.12735C14.9879 3.94189 13.8199 3.03708 12.4658 2.53423C12.3704 1.94856 12.0698 1.4159 11.6178 1.0315C11.1657 0.647104 10.5917 0.436035 9.99829 0.436035C9.4049 0.436035 8.83086 0.647104 8.3788 1.0315C7.92675 1.4159 7.62616 1.94856 7.53079 2.53423C6.17683 3.03691 5.00907 3.94178 4.18427 5.12736C3.35948 6.31294 2.91713 7.72247 2.91663 9.16673V14.5834C2.91663 15.2464 2.65323 15.8823 2.18439 16.3512C1.71555 16.82 1.07967 17.0834 0.416626 17.0834H19.5833C18.9203 17.0834 18.2844 16.82 17.8155 16.3512C17.3467 15.8823 17.0833 15.2464 17.0833 14.5834Z" stroke="#4773F6" stroke-width="0.833333" stroke-linecap="round" stroke-linejoin="round"/>
<path d="M12.5 17.0833C12.5 17.7463 12.2366 18.3822 11.7678 18.851C11.2989 19.3199 10.663 19.5833 10 19.5833C9.33696 19.5833 8.70107 19.3199 8.23223 18.851C7.76339 18.3822 7.5 17.7463 7.5 17.0833" stroke="#4773F6" stroke-width="0.833333" stroke-linecap="round" stroke-linejoin="round"/>
</g>
<defs>
<clipPath id="clip0_101_83">
<rect width="20" height="20" fill="white"/>
</clipPath>
</defs>
</svg>
