<svg width="20" height="20" viewBox="0 0 20 20" fill="none" xmlns="http://www.w3.org/2000/svg">
<path d="M12.4688 2C11.4989 2.00061 10.5431 2.23258 9.68084 2.67664C8.81858 3.12069 8.07468 3.76403 7.5109 4.55324C6.94713 5.34244 6.57975 6.25475 6.43926 7.21441C6.29877 8.17407 6.38923 9.1534 6.70312 10.0711L2.1375 14.6375C2.04957 14.7253 2.00011 14.8445 2 14.9688V18.0938C2 18.2181 2.04939 18.3373 2.13729 18.4252C2.2252 18.5131 2.34443 18.5625 2.46875 18.5625H5.59375C5.71807 18.5625 5.8373 18.5131 5.92521 18.4252C6.01311 18.3373 6.0625 18.2181 6.0625 18.0938V16.6875H7.46875C7.59307 16.6875 7.7123 16.6381 7.80021 16.5502C7.88811 16.4623 7.9375 16.3431 7.9375 16.2188V14.8125H9.34375C9.46803 14.8124 9.58718 14.7629 9.675 14.675L10.4914 13.8594C11.3284 14.1458 12.2177 14.2464 13.0976 14.1545C13.9775 14.0625 14.8267 13.7801 15.5864 13.3268C16.3461 12.8735 16.998 12.2602 17.4968 11.5296C17.9956 10.799 18.3293 9.96854 18.4748 9.09594C18.6203 8.22334 18.5741 7.32952 18.3393 6.4766C18.1045 5.62367 17.6869 4.83208 17.1154 4.15684C16.5438 3.4816 15.8321 2.93889 15.0297 2.56643C14.2273 2.19397 13.3534 2.00068 12.4688 2ZM12.4688 13.25C11.8151 13.2512 11.1673 13.1273 10.5602 12.8852C10.4738 12.8476 10.3781 12.8368 10.2856 12.8544C10.1931 12.8719 10.108 12.917 10.0414 12.9836L9.14922 13.875H7.46875C7.34443 13.875 7.2252 13.9244 7.13729 14.0123C7.04939 14.1002 7 14.2194 7 14.3438V15.75H5.59375C5.46943 15.75 5.3502 15.7994 5.26229 15.8873C5.17439 15.9752 5.125 16.0944 5.125 16.2188V17.625H2.9375V15.1633L7.57891 10.5211C7.64553 10.4545 7.69055 10.3694 7.70811 10.2769C7.72567 10.1844 7.71495 10.0887 7.67734 10.0023C7.26901 8.97754 7.20011 7.8488 7.48076 6.78194C7.76142 5.71508 8.37683 4.76636 9.2366 4.07515C10.0964 3.38395 11.1551 2.9867 12.2574 2.94178C13.3596 2.89685 14.4472 3.20662 15.3604 3.82557C16.2735 4.44451 16.9641 5.34001 17.3306 6.38049C17.6972 7.42097 17.7204 8.55158 17.3968 9.60621C17.0732 10.6608 16.4199 11.5839 15.5329 12.2397C14.6459 12.8956 13.5719 13.2497 12.4688 13.25ZM14.8125 6.53125C14.8125 6.68577 14.7667 6.83681 14.6808 6.96529C14.595 7.09377 14.473 7.1939 14.3302 7.25303C14.1875 7.31216 14.0304 7.32763 13.8788 7.29749C13.7273 7.26734 13.5881 7.19294 13.4788 7.08368C13.3696 6.97442 13.2952 6.83521 13.265 6.68366C13.2349 6.53212 13.2503 6.37503 13.3095 6.23228C13.3686 6.08952 13.4687 5.96751 13.5972 5.88166C13.7257 5.79582 13.8767 5.75 14.0312 5.75C14.2385 5.75 14.4372 5.83231 14.5837 5.97882C14.7302 6.12534 14.8125 6.32405 14.8125 6.53125Z" fill="black"/>
</svg>
