<svg width="15" height="10" viewBox="0 0 15 10" fill="none" xmlns="http://www.w3.org/2000/svg">
<path d="M2.21114 2.21213C2.3519 2.07366 2.51856 2.00443 2.71112 2.00443C2.90368 2.00443 3.07015 2.07366 3.21053 2.21213L7.33481 6.26916L11.7895 2.19385C11.9208 2.06462 12.0851 2 12.2821 2C12.4792 2 12.6481 2.06923 12.7889 2.2077C12.9296 2.34616 13 2.51011 13 2.69953C13 2.88895 12.9296 3.05271 12.7889 3.1908L7.72894 7.84767C7.67264 7.90306 7.61164 7.94239 7.54595 7.96565C7.48027 7.98891 7.40989 8.00036 7.33481 7.99999C7.25974 7.99999 7.18936 7.98836 7.12367 7.9651C7.05798 7.94183 6.99698 7.90269 6.94068 7.84767L2.19706 3.18138C2.06569 3.05215 2 2.89282 2 2.7034C2 2.51398 2.07038 2.35023 2.21114 2.21213Z" fill="black"/>
</svg>
