<svg width="20" height="20" viewBox="0 0 20 20" fill="none" xmlns="http://www.w3.org/2000/svg">
<path d="M17.5003 9.16672H16.5137C16.344 8.6796 16.0269 8.25737 15.6064 7.95858C15.1859 7.65979 14.6828 7.49927 14.167 7.49927C13.6512 7.49927 13.1481 7.65979 12.7276 7.95858C12.3071 8.25737 11.99 8.6796 11.8203 9.16672H8.18033C8.01062 8.6796 7.69353 8.25737 7.27304 7.95858C6.85255 7.65979 6.34949 7.49927 5.83366 7.49927C5.31782 7.49927 4.81477 7.65979 4.39428 7.95858C3.97379 8.25737 3.6567 8.6796 3.48699 9.16672H2.50033C2.27931 9.16672 2.06735 9.25452 1.91107 9.4108C1.75479 9.56708 1.66699 9.77904 1.66699 10.0001C1.66699 10.2211 1.75479 10.433 1.91107 10.5893C2.06735 10.7456 2.27931 10.8334 2.50033 10.8334H3.48699C3.6567 11.3205 3.97379 11.7427 4.39428 12.0415C4.81477 12.3403 5.31782 12.5008 5.83366 12.5008C6.34949 12.5008 6.85255 12.3403 7.27304 12.0415C7.69353 11.7427 8.01062 11.3205 8.18033 10.8334H11.8203C11.99 11.3205 12.3071 11.7427 12.7276 12.0415C13.1481 12.3403 13.6512 12.5008 14.167 12.5008C14.6828 12.5008 15.1859 12.3403 15.6064 12.0415C16.0269 11.7427 16.344 11.3205 16.5137 10.8334H17.5003C17.7213 10.8334 17.9333 10.7456 18.0896 10.5893C18.2459 10.433 18.3337 10.2211 18.3337 10.0001C18.3337 9.77904 18.2459 9.56708 18.0896 9.4108C17.9333 9.25452 17.7213 9.16672 17.5003 9.16672ZM5.83366 10.8334C5.66884 10.8334 5.50772 10.7845 5.37068 10.6929C5.23364 10.6014 5.12683 10.4712 5.06376 10.319C5.00069 10.1667 4.98418 9.99913 5.01634 9.83748C5.04849 9.67583 5.12786 9.52734 5.2444 9.4108C5.36095 9.29426 5.50943 9.21489 5.67108 9.18273C5.83273 9.15058 6.00029 9.16708 6.15256 9.23016C6.30483 9.29323 6.43498 9.40004 6.52655 9.53708C6.61812 9.67412 6.66699 9.83524 6.66699 10.0001C6.66677 10.221 6.5789 10.4328 6.42267 10.5891C6.26644 10.7453 6.05461 10.8332 5.83366 10.8334ZM14.167 10.8334C14.0022 10.8334 13.8411 10.7845 13.704 10.6929C13.567 10.6014 13.4602 10.4712 13.3971 10.319C13.334 10.1667 13.3175 9.99913 13.3497 9.83748C13.3818 9.67583 13.4612 9.52734 13.5777 9.4108C13.6943 9.29426 13.8428 9.21489 14.0044 9.18273C14.1661 9.15058 14.3336 9.16708 14.4859 9.23016C14.6382 9.29323 14.7683 9.40004 14.8599 9.53708C14.9515 9.67412 15.0003 9.83524 15.0003 10.0001C15.0001 10.221 14.9122 10.4328 14.756 10.5891C14.5998 10.7453 14.3879 10.8332 14.167 10.8334Z" fill="white"/>
</svg>
