<svg width="20" height="20" viewBox="0 0 20 20" fill="none" xmlns="http://www.w3.org/2000/svg">
<path d="M12.582 10.5284L10.8337 9.51925V5.83342C10.8337 5.6124 10.7459 5.40044 10.5896 5.24416C10.4333 5.08788 10.2213 5.00008 10.0003 5.00008C9.77932 5.00008 9.56735 5.08788 9.41107 5.24416C9.25479 5.40044 9.167 5.6124 9.167 5.83342V10.0001C9.167 10.1464 9.20551 10.2901 9.27865 10.4167C9.35179 10.5434 9.45698 10.6486 9.58366 10.7217L11.7487 11.9717C11.8435 12.0273 11.9483 12.0636 12.0572 12.0785C12.1661 12.0934 12.2769 12.0866 12.3831 12.0585C12.4894 12.0304 12.589 11.9816 12.6763 11.9148C12.7636 11.8481 12.8368 11.7647 12.8918 11.6695C12.9468 11.5743 12.9823 11.4692 12.9965 11.3603C13.0107 11.2513 13.0031 11.1406 12.9743 11.0345C12.9455 10.9284 12.8961 10.8291 12.8287 10.7423C12.7614 10.6554 12.6775 10.5827 12.582 10.5284ZM10.0003 1.66675C8.35215 1.66675 6.74099 2.15549 5.37058 3.07117C4.00017 3.98685 2.93206 5.28834 2.30133 6.81105C1.6706 8.33377 1.50558 10.0093 1.82712 11.6258C2.14866 13.2423 2.94234 14.7272 4.10777 15.8926C5.27321 17.0581 6.75807 17.8517 8.37458 18.1733C9.99109 18.4948 11.6666 18.3298 13.1894 17.6991C14.7121 17.0683 16.0136 16.0002 16.9292 14.6298C17.8449 13.2594 18.3337 11.6483 18.3337 10.0001C18.3312 7.79069 17.4525 5.67248 15.8902 4.1102C14.3279 2.54793 12.2097 1.66917 10.0003 1.66675ZM10.0003 16.6667C8.68179 16.6667 7.39286 16.2758 6.29653 15.5432C5.2002 14.8107 4.34572 13.7695 3.84113 12.5513C3.33655 11.3331 3.20453 9.99269 3.46176 8.69948C3.719 7.40627 4.35393 6.21839 5.28628 5.28604C6.21863 4.35369 7.40652 3.71875 8.69973 3.46151C9.99293 3.20428 11.3334 3.3363 12.5516 3.84088C13.7697 4.34547 14.8109 5.19995 15.5435 6.29628C16.276 7.39261 16.667 8.68154 16.667 10.0001C16.6648 11.7675 15.9617 13.4619 14.7119 14.7117C13.4622 15.9615 11.7678 16.6645 10.0003 16.6667Z" fill="white"/>
</svg>
