<?xml version="1.0" standalone="no"?>
  <!DOCTYPE svg PUBLIC "-//W3C//DTD SVG 1.1//EN" "http://www.w3.org/Graphics/SVG/1.1/DTD/svg11.dtd" >
  <svg>
  <metadata>
  Created by font-carrier
  </metadata>
  <defs>
  <font id="Ermilov-Bold" horiz-adv-x="1362" vert-adv-y="1362" >
    <font-face
      
      font-family="Ermilov"
      
      font-weight="400"
      
      font-stretch="normal"
      
      units-per-em="1000"
      
      ascent="700"
      
      descent="-155"
      
    />
      <missing-glyph />

      

      
      <glyph glyph-name="uni0437" unicode="&#x0437;" d="M41 178C64 56 184-12 315-12C471-12 567 55 567 147C567 190 529 225 486 245L486 254C525 273 556 312 556 355C556 445 449 512 309 512C180 512 76 438 49 323L49 300L218 300C230 335 259 358 300 358C343 358 378 346 378 320C378 303 362 294 333 293L277 293L277 207L331 207C363 207 386 196 386 176C386 155 359 138 310 138C263 138 228 164 215 201L41 201Z"  horiz-adv-x="608" vert-adv-y="1000"  />

      
      <glyph glyph-name="uni0432" unicode="&#x0432;" d="M69 0L307 0C468 0 562 63 562 150C562 199 522 231 481 246L481 255C523 275 556 307 556 356C556 448 449 500 303 500L69 500ZM386 172C386 149 361 137 314 137L237 137L237 206L331 206C365 206 386 192 386 172ZM379 328C379 308 359 294 325 294L237 294L237 363L312 363C355 362 379 350 379 328Z"  horiz-adv-x="602" vert-adv-y="1000"  />

      
      <glyph glyph-name="uni0430" unicode="&#x0430;" d="M581 500L413 500L413 452C374 490 323 512 264 512C135 512 41 410 41 250C41 90 135-12 264-12C323-12 374 9 413 47L413 0L581 0ZM315 146C252 146 211 185 211 250C211 315 252 354 315 354C378 354 419 315 419 250C419 185 378 146 315 146Z"  horiz-adv-x="650" vert-adv-y="1000"  />

      
      <glyph glyph-name="uni0431" unicode="&#x0431;" d="M345 483C279 483 223 450 187 409L183 411C210 487 267 513 361 525C495 541 574 582 574 711L419 711C419 692 388 686 361 683C193 664 41 547 41 323C41 111 159-12 329-12C461-12 593 85 593 235C593 379 497 483 345 483ZM222 242C222 305 264 340 326 340C388 340 430 305 430 242C430 179 388 144 326 144C264 144 222 179 222 242Z"  horiz-adv-x="634" vert-adv-y="1000"  />

      
      <glyph glyph-name="uni043A" unicode="&#x043A;" d="M418 0L594 0L594 23L408 255L581 477L581 500L414 500L271 313L237 313L237 500L69 500L69 0L237 0L237 187L273 187Z"  horiz-adv-x="599" vert-adv-y="1000"  />

      
      <glyph glyph-name="uni043D" unicode="&#x043D;" d="M397 0L565 0L565 500L397 500L397 323L237 323L237 500L69 500L69 0L237 0L237 187L397 187Z"  horiz-adv-x="634" vert-adv-y="1000"  />

      
      <glyph glyph-name="uni0448" unicode="&#x0448;" d="M237 500L69 500L69 0L839 0L839 500L671 500L671 156L538 156L538 500L370 500L370 156L237 156Z"  horiz-adv-x="908" vert-adv-y="1000"  />

      
      <glyph glyph-name="uni0438" unicode="&#x0438;" d="M69 0L259 0L420 307L427 307L427 0L595 0L595 500L405 500L244 193L237 193L237 500L69 500Z"  horiz-adv-x="664" vert-adv-y="1000"  />

      
      <glyph glyph-name="uni0444" unicode="&#x0444;" d="M334-155L502-155L502-9L507-12C676-12 795 90 795 250C795 410 676 512 507 512L502 509L502 700L334 700L334 509L329 512C160 512 41 410 41 250C41 90 160-12 329-12L334-9ZM334 140C259 140 211 181 211 250C211 317 257 358 329 360L334 360ZM625 250C625 182 579 142 507 140L502 140L502 360L507 360C579 358 625 317 625 250Z"  horiz-adv-x="836" vert-adv-y="1000"  />

      
      <glyph glyph-name="uni0442" unicode="&#x0442;" d="M343 344L494 344L494 500L23 500L23 344L175 344L175 0L343 0Z"  horiz-adv-x="517" vert-adv-y="1000"  />

      
      <glyph glyph-name="uni0456" unicode="&#x0456;" d="M68 0L236 0L236 500L68 500ZM66 638C66 585 100 553 152 553C204 553 237 585 237 638C237 690 204 723 152 723C100 723 66 690 66 638Z"  horiz-adv-x="304" vert-adv-y="1000"  />

      
      <glyph glyph-name="uni0441" unicode="&#x0441;" d="M413 200C397 166 362 146 317 146C253 146 211 185 211 250C211 315 253 354 317 354C362 354 397 334 413 300L589 300L589 332C563 428 449 512 317 512C158 512 41 410 41 250C41 90 158-12 317-12C455-12 563 73 589 168L589 200Z"  horiz-adv-x="630" vert-adv-y="1000"  />

      
      <glyph glyph-name="uni0443" unicode="&#x0443;" d="M21 500L21 468L205 4C188-3 162-5 124-5L124-165C301-165 354-103 393-2L574 468L574 500L413 500L310 209L304 209L194 500Z"  horiz-adv-x="592" vert-adv-y="1000"  />

      
      <glyph glyph-name="uni043B" unicode="&#x043B;" d="M30 0C58-3 82-7 111-7C205-7 257 80 260 196L264 344L386 344L386 0L554 0L554 500L110 500L100 207C98 165 79 155 56 155C48 155 36 156 30 157Z"  horiz-adv-x="623" vert-adv-y="1000"  />

      
      <glyph glyph-name="uni044F" unicode="&#x044F;" d="M534 500L301 500C140 500 46 432 46 325C46 263 83 212 148 181L29 22L29 0L205 0L305 150L366 150L366 0L534 0ZM294 258C243 258 222 283 222 308C222 333 243 358 294 358L366 358L366 258Z"  horiz-adv-x="603" vert-adv-y="1000"  />

      
      <glyph glyph-name="uni4f" unicode="&#x4f;" d="M404-12C610-12 763 121 763 329L590 329C590 214 516 146 404 146C292 146 218 214 218 329C218 443 292 511 404 511C516 511 590 443 590 329L763 329C763 537 610 669 404 669C197 669 45 537 45 329C45 121 197-12 404-12Z"  horiz-adv-x="808" vert-adv-y="1000"  />

      
      <glyph glyph-name="uni48" unicode="&#x48;" d="M537 0L707 0L707 650L537 650L537 413L255 413L255 650L85 650L85 0L255 0L255 255L537 255Z"  horiz-adv-x="792" vert-adv-y="1000"  />

      
      <glyph glyph-name="uni50" unicode="&#x50;" d="M437 207C571 207 670 294 670 429C670 564 571 650 437 650L85 650L85 0L255 0L255 207ZM437 492C475 492 500 469 500 429C500 388 475 365 437 365L255 365L255 492Z"  horiz-adv-x="700" vert-adv-y="1000"  />

      
      <glyph glyph-name="uni42" unicode="&#x42;" d="M85 0L461 0C595 0 696 72 696 187C696 246 663 295 613 328L613 338C656 370 683 414 683 468C683 580 583 649 449 649L449 650L85 650ZM461 254C499 254 524 235 524 202C524 168 499 148 461 148L255 148L255 254ZM449 502C487 502 512 484 512 453C512 421 487 402 449 402L255 402L255 502Z"  horiz-adv-x="753" vert-adv-y="1000"  />

      
      <glyph glyph-name="uni43" unicode="&#x43;" d="M579 256C554 186 490 146 404 146C292 146 218 214 218 329C218 443 292 511 404 511C490 511 553 471 578 401L754 401L754 443C709 585 570 669 404 669C197 669 45 537 45 329C45 121 197-12 404-12C579-12 716 88 754 214L754 256Z"  horiz-adv-x="802" vert-adv-y="1000"  />

      
      <glyph glyph-name="uni53" unicode="&#x53;" d="M340 671C191 671 66 582 66 458C66 310 237 275 353 253C416 241 472 227 472 194C472 157 422 142 361 142C299 142 246 167 226 207L50 207L50 165C99 50 216-14 357-14C518-14 642 66 642 198C642 341 471 376 353 400C295 412 236 428 236 462C236 495 279 515 338 515C391 515 446 490 463 451L639 451L639 493C592 596 483 671 340 671Z"  horiz-adv-x="692" vert-adv-y="1000"  />

      
      <glyph glyph-name="uni41" unicode="&#x41;" d="M10 37L10 0L181 0L224 106L520 106L563 0L739 0L739 37L473 650L271 650ZM364 454L379 454L460 254L284 254Z"  horiz-adv-x="749" vert-adv-y="1000"  />

      
      <glyph glyph-name="uni4d" unicode="&#x4d;" d="M768 0L938 0L938 650L704 650L521 240L504 240L322 650L85 650L85 0L255 0L255 392L269 392L444 0L582 0L754 392L768 392Z"  horiz-adv-x="1023" vert-adv-y="1000"  />

      
      <glyph glyph-name="uni56" unicode="&#x56;" d="M271 0L473 0L729 613L729 650L558 650L378 196L366 196L186 650L10 650L10 613Z"  horiz-adv-x="739" vert-adv-y="1000"  />

      
      <glyph glyph-name="uni4b" unicode="&#x4b;" d="M694 613L694 650L518 650L255 382L255 650L85 650L85 0L255 0L255 176L339 259L538 0L727 0L727 37L465 367L465 385Z"  horiz-adv-x="742" vert-adv-y="1000"  />

      
      <glyph glyph-name="uni52" unicode="&#x52;" d="M85 0L255 0L255 225L371 225L527 0L714 0L714 37L555 253L555 259C635 288 688 356 688 447C688 572 589 650 455 650L85 650ZM455 492C493 492 518 472 518 438C518 403 493 383 455 383L255 383L255 492Z"  horiz-adv-x="757" vert-adv-y="1000"  />

      
      <glyph glyph-name="uni58" unicode="&#x58;" d="M513 0L693 0L693 37L466 319L466 329L688 613L688 650L513 650L364 458L357 458L212 650L32 650L32 613L254 337L254 327L27 37L27 0L202 0L356 200L361 200ZM360 454L361 454L361 453Z"  horiz-adv-x="722" vert-adv-y="1000"  />

      
      <glyph glyph-name="uni55" unicode="&#x55;" d="M386-12C585-12 700 93 700 306L700 650L530 650L530 292C530 197 483 150 386 146C289 150 242 197 242 292L242 650L72 650L72 306C72 93 187-12 386-12Z"  horiz-adv-x="772" vert-adv-y="1000"  />

      
      <glyph glyph-name="uni57" unicode="&#x57;" d="M217 0L410 0L529 383L544 383L667 0L864 0L1041 613L1041 650L874 650L766 249L755 249L632 650L449 650L326 249L315 249L207 650L35 650L35 613Z"  horiz-adv-x="1076" vert-adv-y="1000"  />

      
      <glyph glyph-name="uni59" unicode="&#x59;" d="M265 0L435 0L435 174L695 613L695 650L524 650L356 346L344 346L176 650L0 650L0 613L265 174Z"  horiz-adv-x="695" vert-adv-y="1000"  />

      
      <glyph glyph-name="uni0410" unicode="&#x0410;" d="M10 37L10 0L181 0L224 106L520 106L563 0L739 0L739 37L473 650L271 650ZM364 454L379 454L460 254L284 254Z"  horiz-adv-x="749" vert-adv-y="1000"  />

      
      <glyph glyph-name="uni041D" unicode="&#x041D;" d="M537 0L707 0L707 650L537 650L537 413L255 413L255 650L85 650L85 0L255 0L255 255L537 255Z"  horiz-adv-x="792" vert-adv-y="1000"  />

      
      <glyph glyph-name="uni041E" unicode="&#x041E;" d="M404-12C610-12 763 121 763 329L590 329C590 214 516 146 404 146C292 146 218 214 218 329C218 443 292 511 404 511C516 511 590 443 590 329L763 329C763 537 610 669 404 669C197 669 45 537 45 329C45 121 197-12 404-12Z"  horiz-adv-x="808" vert-adv-y="1000"  />

      
      <glyph glyph-name="uni0420" unicode="&#x0420;" d="M437 207C571 207 670 294 670 429C670 564 571 650 437 650L85 650L85 0L255 0L255 207ZM437 492C475 492 500 469 500 429C500 388 475 365 437 365L255 365L255 492Z"  horiz-adv-x="700" vert-adv-y="1000"  />

      
      <glyph glyph-name="uni0421" unicode="&#x0421;" d="M579 256C554 186 490 146 404 146C292 146 218 214 218 329C218 443 292 511 404 511C490 511 553 471 578 401L754 401L754 443C709 585 570 669 404 669C197 669 45 537 45 329C45 121 197-12 404-12C579-12 716 88 754 214L754 256Z"  horiz-adv-x="802" vert-adv-y="1000"  />

      
      <glyph glyph-name="uni0412" unicode="&#x0412;" d="M85 0L461 0C595 0 696 72 696 187C696 246 663 295 613 328L613 338C656 370 683 414 683 468C683 580 583 649 449 649L449 650L85 650ZM461 254C499 254 524 235 524 202C524 168 499 148 461 148L255 148L255 254ZM449 502C487 502 512 484 512 453C512 421 487 402 449 402L255 402L255 502Z"  horiz-adv-x="753" vert-adv-y="1000"  />

      
      <glyph glyph-name="uni45" unicode="&#x45;" d="M85 0L622 0L622 148L255 148L255 264L602 264L602 412L255 412L255 502L620 502L620 650L85 650Z"  horiz-adv-x="697" vert-adv-y="1000"  />

      
      <glyph glyph-name="uni0415" unicode="&#x0415;" d="M85 0L622 0L622 148L255 148L255 264L602 264L602 412L255 412L255 502L620 502L620 650L85 650Z"  horiz-adv-x="697" vert-adv-y="1000"  />

      
      <glyph glyph-name="uni61" unicode="&#x61;" d="M581 500L413 500L413 452C374 490 323 512 264 512C135 512 41 410 41 250C41 90 135-12 264-12C323-12 374 9 413 47L413 0L581 0ZM315 146C252 146 211 185 211 250C211 315 252 354 315 354C378 354 419 315 419 250C419 185 378 146 315 146Z"  horiz-adv-x="650" vert-adv-y="1000"  />

      
      <glyph glyph-name="uni6f" unicode="&#x6f;" d="M317-12C476-12 593 90 593 250C593 410 476 512 317 512C158 512 41 410 41 250C41 90 158-12 317-12ZM317 354C381 354 423 315 423 250C423 185 381 146 317 146C253 146 211 185 211 250C211 315 253 354 317 354Z"  horiz-adv-x="634" vert-adv-y="1000"  />

      
      <glyph glyph-name="uni70" unicode="&#x70;" d="M69-155L237-155L237 47C275 9 327-12 386-12C515-12 609 90 609 250C609 410 515 512 386 512C327 512 275 490 237 452L237 500L69 500ZM335 354C398 354 439 315 439 250C439 185 398 146 335 146C272 146 231 185 231 250C231 315 272 354 335 354Z"  horiz-adv-x="650" vert-adv-y="1000"  />

      
      <glyph glyph-name="uni63" unicode="&#x63;" d="M413 200C397 166 362 146 317 146C253 146 211 185 211 250C211 315 253 354 317 354C362 354 397 334 413 300L589 300L589 332C563 428 449 512 317 512C158 512 41 410 41 250C41 90 158-12 317-12C455-12 563 73 589 168L589 200Z"  horiz-adv-x="630" vert-adv-y="1000"  />

      
      <glyph glyph-name="uni79" unicode="&#x79;" d="M21 500L21 468L205 4C188-3 162-5 124-5L124-165C301-165 354-103 393-2L574 468L574 500L413 500L310 209L304 209L194 500Z"  horiz-adv-x="592" vert-adv-y="1000"  />

      
      <glyph glyph-name="uni041F" unicode="&#x041F;" d="M512 0L682 0L682 650L85 650L85 0L255 0L255 492L512 492Z"  horiz-adv-x="767" vert-adv-y="1000"  />

      
      <glyph glyph-name="uni041B" unicode="&#x041B;" d="M100 222C98 183 78 164 48 164C40 164 22 165 15 166L15 0C49-5 76-7 107-7C217-7 265 93 270 211L281 492L486 492L486 0L656 0L656 650L117 650Z"  horiz-adv-x="741" vert-adv-y="1000"  />

      
      <glyph glyph-name="uni041A" unicode="&#x041A;" d="M704 613L704 650L528 650L319 410L255 410L255 650L85 650L85 0L255 0L255 270L320 270L548 0L737 0L737 37L476 336L476 355Z"  horiz-adv-x="752" vert-adv-y="1000"  />

      
      <glyph glyph-name="uni041C" unicode="&#x041C;" d="M768 0L938 0L938 650L704 650L521 240L504 240L322 650L85 650L85 0L255 0L255 392L269 392L444 0L582 0L754 392L768 392Z"  horiz-adv-x="1023" vert-adv-y="1000"  />

      
      <glyph glyph-name="uni042C" unicode="&#x042C;" d="M439 0C573 0 672 87 672 222C672 357 573 443 439 443L255 443L255 650L85 650L85 0ZM439 285C477 285 502 262 502 222C502 181 477 158 439 158L255 158L255 285Z"  horiz-adv-x="707" vert-adv-y="1000"  />

      
      <glyph glyph-name="uni042F" unicode="&#x042F;" d="M666 650L276 650C142 650 43 566 43 435C43 335 100 263 187 234L47 37L47 0L229 0L366 207L496 207L496 0L666 0ZM496 492L496 365L281 365C243 365 218 388 218 428C218 469 243 492 281 492Z"  horiz-adv-x="751" vert-adv-y="1000"  />

      
      <glyph glyph-name="uni44" unicode="&#x44;" d="M85 0L379 0C581 0 736 123 736 326C736 529 581 650 379 650L85 650ZM379 502C485 502 563 440 563 326C563 212 485 148 379 148L255 148L255 502Z"  horiz-adv-x="781" vert-adv-y="1000"  />

      
      <glyph glyph-name="uni46" unicode="&#x46;" d="M85 0L255 0L255 244L572 244L572 392L255 392L255 502L585 502L585 650L85 650Z"  horiz-adv-x="635" vert-adv-y="1000"  />

      
      <glyph glyph-name="uni47" unicode="&#x47;" d="M621 0L781 0L781 348L460 348L460 209L565 209C531 168 477 146 411 146C295 146 218 214 218 329C218 442 296 510 414 511C500 511 563 471 588 401L764 401L764 443C719 584 580 668 415 669C202 669 45 537 45 329C45 121 191-12 390-12C481-12 562 19 621 75Z"  horiz-adv-x="851" vert-adv-y="1000"  />

      
      <glyph glyph-name="uni49" unicode="&#x49;" d="M88 0L258 0L258 650L88 650Z"  horiz-adv-x="346" vert-adv-y="1000"  />

      
      <glyph glyph-name="uni4a" unicode="&#x4a;" d="M181 237L8 237L8 185C30 66 122-12 252-12C396-12 503 81 503 227L503 650L333 650L333 227C333 176 302 146 257 146C214 146 184 173 181 219Z"  horiz-adv-x="573" vert-adv-y="1000"  />

      
      <glyph glyph-name="uni4e" unicode="&#x4e;" d="M538 0L778 0L778 650L608 650L608 211L597 211L326 650L85 650L85 0L255 0L255 439L266 439Z"  horiz-adv-x="863" vert-adv-y="1000"  />

      
      <glyph glyph-name="uni4c" unicode="&#x4c;" d="M85 0L582 0L582 148L255 148L255 650L85 650Z"  horiz-adv-x="604" vert-adv-y="1000"  />

      
      <glyph glyph-name="uni51" unicode="&#x51;" d="M404-12C444-12 482-7 517 2L572-70L742-70L742-36L657 77C723 136 763 223 763 329C763 537 610 669 404 669C197 669 45 537 45 329C45 121 197-12 404-12ZM555 213L518 263L348 263L348 229L410 146L404 146C292 146 218 214 218 329C218 443 292 511 404 511C516 511 590 443 590 329C590 282 578 243 555 213Z"  horiz-adv-x="808" vert-adv-y="1000"  />

      
      <glyph glyph-name="uni54" unicode="&#x54;" d="M15 502L235 502L235 0L405 0L405 502L625 502L625 650L15 650Z"  horiz-adv-x="640" vert-adv-y="1000"  />

      
      <glyph glyph-name="uni5a" unicode="&#x5a;" d="M48 0L643 0L643 148L271 148L271 160L631 490L631 650L80 650L80 502L408 502L408 490L48 160Z"  horiz-adv-x="691" vert-adv-y="1000"  />

      
      <glyph glyph-name="uni62" unicode="&#x62;" d="M69 0L237 0L237 47C275 9 327-12 386-12C515-12 609 90 609 250C609 410 515 512 386 512C327 512 275 490 237 452L237 700L69 700ZM335 354C398 354 439 315 439 250C439 185 398 146 335 146C272 146 231 185 231 250C231 315 272 354 335 354Z"  horiz-adv-x="650" vert-adv-y="1000"  />

      
      <glyph glyph-name="uni64" unicode="&#x64;" d="M581 700L413 700L413 452C374 490 323 512 264 512C135 512 41 410 41 250C41 90 135-12 264-12C323-12 374 9 413 47L413 0L581 0ZM315 354C378 354 419 315 419 250C419 185 378 146 315 146C252 146 211 185 211 250C211 315 252 354 315 354Z"  horiz-adv-x="650" vert-adv-y="1000"  />

      
      <glyph glyph-name="uni65" unicode="&#x65;" d="M413 188C394 155 358 140 317 140C260 140 220 173 212 228L589 228L589 290C575 422 467 512 317 512C158 512 41 410 41 250C41 90 158-12 317-12C453-12 558 61 589 156L589 188ZM317 372C364 372 395 352 412 317L222 317C239 352 273 372 317 372Z"  horiz-adv-x="630" vert-adv-y="1000"  />

      
      <glyph glyph-name="uni0424" unicode="&#x0424;" d="M321 100L351 100L351 0L521 0L521 100L551 100C716 100 838 193 838 339C838 484 716 577 551 577L521 577L521 650L351 650L351 577L321 577C155 577 34 484 34 339C34 193 155 100 321 100ZM321 428L351 428L351 249L321 249C252 249 207 282 207 339C207 395 252 428 321 428ZM551 428C620 428 665 395 665 339C665 282 620 249 551 249L521 249L521 428Z"  horiz-adv-x="872" vert-adv-y="1000"  />

      
      <glyph glyph-name="uni0423" unicode="&#x0423;" d="M20 650L20 613L296 169C275 148 246 137 201 137C187 137 171 140 153 142L153-14C181-18 206-20 229-20C350-20 411 37 472 157L702 613L702 650L545 650L391 342L377 342L196 650Z"  horiz-adv-x="708" vert-adv-y="1000"  />

      
      <glyph glyph-name="uni0422" unicode="&#x0422;" d="M15 502L235 502L235 0L405 0L405 502L625 502L625 650L15 650Z"  horiz-adv-x="640" vert-adv-y="1000"  />

      
      <glyph glyph-name="uni0425" unicode="&#x0425;" d="M513 0L693 0L693 37L466 319L466 329L688 613L688 650L513 650L364 458L357 458L212 650L32 650L32 613L254 337L254 327L27 37L27 0L202 0L356 200L361 200ZM360 454L361 454L361 453Z"  horiz-adv-x="722" vert-adv-y="1000"  />

      
      <glyph glyph-name="uni66" unicode="&#x66;" d="M38 292L108 292L108 0L276 0L276 292L383 292L383 448L276 448L276 458C276 523 308 552 372 552L372 710C208 710 108 618 108 458L108 448L38 448Z"  horiz-adv-x="416" vert-adv-y="1000"  />

      
      <glyph glyph-name="uni6e" unicode="&#x6e;" d="M69 0L237 0L237 255C239 317 275 354 335 354C388 354 421 312 421 257L421 0L589 0L589 259C589 397 539 512 386 512C326 512 274 488 237 448L237 500L69 500Z"  horiz-adv-x="648" vert-adv-y="1000"  />

      
      <glyph glyph-name="uni0454" unicode="&#x0454;" d="M413 201C397 166 363 146 317 146C269 146 233 167 218 206L364 206L364 294L218 294C233 332 269 354 317 354C362 354 397 334 413 300L589 300C567 431 459 512 317 512C158 512 41 410 41 250C41 90 158-12 317-12C459-12 568 69 589 201Z"  horiz-adv-x="630" vert-adv-y="1000"  />

      
      <glyph glyph-name="uni043C" unicode="&#x043C;" d="M344 0L464 0L562 276L573 276L573 0L739 0L739 500L511 500L410 210L398 210L297 500L69 500L69 0L235 0L235 276L245 276Z"  horiz-adv-x="808" vert-adv-y="1000"  />

      
      <glyph glyph-name="uni0434" unicode="&#x0434;" d="M5-119L156-119L159 0L490 0L482-119L633-119L660 156L568 156L568 500L116 500L104 208C102 169 85 157 65 156L5 156ZM261 246L266 344L400 344L400 151L241 151C253 178 259 210 261 246Z"  horiz-adv-x="669" vert-adv-y="1000"  />

      
      <glyph glyph-name="uni72" unicode="&#x72;" d="M69 0L237 0L237 275C248 319 290 343 335 343C351 343 373 341 386 338L386 512C326 512 274 488 237 448L237 500L69 500Z"  horiz-adv-x="410" vert-adv-y="1000"  />

      
      <glyph glyph-name="uni73" unicode="&#x73;" d="M551 345C521 439 429 512 289 512C145 512 45 437 45 347C45 157 376 223 376 162C376 141 349 123 300 123C258 123 215 147 204 183L30 183L30 152C63 50 178-12 305-12C461-12 557 55 557 147C557 334 222 255 222 333C222 359 251 371 291 371C333 371 371 343 377 314L551 314Z"  horiz-adv-x="592" vert-adv-y="1000"  />

      
      <glyph glyph-name="uni6a" unicode="&#x6a;" d="M-12-165C152-165 252-73 252 87L252 500L84 500L84 87C84 22 52-7-12-7ZM82 638C82 585 116 553 168 553C220 553 253 585 253 638C253 690 220 723 168 723C116 723 82 690 82 638Z"  horiz-adv-x="321" vert-adv-y="1000"  />

      
      <glyph glyph-name="uni67" unicode="&#x67;" d="M41 20L41-12C78-94 169-165 307-165C466-165 581-63 581 97L581 500L413 500L413 447C374 488 320 512 257 512C132 512 41 421 41 277C41 133 132 43 257 43C320 43 374 65 413 106L413 89C413 24 376-15 307-15C270-15 233-6 217 20ZM315 198C252 198 211 227 211 277C211 326 252 356 315 356C378 356 419 326 419 277C419 227 378 198 315 198Z"  horiz-adv-x="650" vert-adv-y="1000"  />

      
      <glyph glyph-name="uni68" unicode="&#x68;" d="M69 0L237 0L237 255C239 317 275 354 335 354C388 354 421 312 421 257L421 0L589 0L589 259C589 397 539 512 386 512C326 512 274 488 237 448L237 700L69 700Z"  horiz-adv-x="648" vert-adv-y="1000"  />

      
      <glyph glyph-name="uni69" unicode="&#x69;" d="M68 0L236 0L236 500L68 500ZM66 638C66 585 100 553 152 553C204 553 237 585 237 638C237 690 204 723 152 723C100 723 66 690 66 638Z"  horiz-adv-x="304" vert-adv-y="1000"  />

      
      <glyph glyph-name="uni6b" unicode="&#x6b;" d="M418 0L595 0L595 23L417 245L417 266L582 477L582 500L414 500L271 313L237 313L237 700L69 700L69 0L237 0L237 187L273 187Z"  horiz-adv-x="598" vert-adv-y="1000"  />

      
      <glyph glyph-name="uni6c" unicode="&#x6c;" d="M69 0L237 0L237 700L69 700Z"  horiz-adv-x="306" vert-adv-y="1000"  />

      
      <glyph glyph-name="uni6d" unicode="&#x6d;" d="M69 0L237 0L237 269C237 323 266 354 309 354C348 354 372 316 372 267L372 0L539 0L539 260C539 320 566 354 611 354C650 354 674 316 674 267L674 0L841 0L841 274C841 404 791 512 653 512C592 512 540 482 505 433C478 481 432 512 362 512C312 512 269 489 237 451L237 500L69 500Z"  horiz-adv-x="900" vert-adv-y="1000"  />

      
      <glyph glyph-name="uni71" unicode="&#x71;" d="M581 500L413 500L413 452C374 490 323 512 264 512C135 512 41 410 41 250C41 90 135-12 264-12C323-12 374 9 413 47L413-155L581-155ZM315 354C378 354 419 315 419 250C419 185 378 146 315 146C252 146 211 185 211 250C211 315 252 354 315 354Z"  horiz-adv-x="649" vert-adv-y="1000"  />

      
      <glyph glyph-name="uni75" unicode="&#x75;" d="M227 500L59 500L59 241C59 103 109-12 262-12C322-12 373 11 411 52L411 0L579 0L579 500L411 500L411 250C411 185 374 146 313 146C260 146 227 188 227 243Z"  horiz-adv-x="648" vert-adv-y="1000"  />

      
      <glyph glyph-name="uni74" unicode="&#x74;" d="M256 650L88 600L88 499L28 499L28 343L88 343L88 221C88 91 135-12 271-12C293-12 334-9 353-4L353 152C348 151 327 149 322 149C278 149 256 176 256 223L256 343L358 343L358 499L256 499Z"  horiz-adv-x="396" vert-adv-y="1000"  />

      
      <glyph glyph-name="uni76" unicode="&#x76;" d="M199 0L389 0L579 468L579 500L417 500L307 209L297 209L194 500L20 500L20 468Z"  horiz-adv-x="599" vert-adv-y="1000"  />

      
      <glyph glyph-name="uni77" unicode="&#x77;" d="M186 0L369 0L460 247L469 247L552 0L740 0L915 468L915 500L759 500L662 209L652 209L556 500L393 500L296 209L286 209L190 500L22 500L22 468Z"  horiz-adv-x="937" vert-adv-y="1000"  />

      
      <glyph glyph-name="uni78" unicode="&#x78;" d="M403 0L581 0L581 32L412 243L412 267L573 468L573 500L400 500L311 384L299 384L206 500L28 500L28 468L191 264L191 239L23 32L23 0L196 0L291 123L304 123ZM201 252L200 250L200 253ZM402 255L403 255L403 254Z"  horiz-adv-x="604" vert-adv-y="1000"  />

      
      <glyph glyph-name="uni7a" unicode="&#x7a;" d="M55 0L525 0L525 156L275 156L275 166L515 334L515 500L75 500L75 344L295 344L295 334L55 166Z"  horiz-adv-x="583" vert-adv-y="1000"  />

      
      <glyph glyph-name="uni2e" unicode="&#x2e;" d="M55 0L236 0L236 163L55 163Z"  horiz-adv-x="286" vert-adv-y="1000"  />

      
      <glyph glyph-name="uni2c" unicode="&#x2c;" d="M55 0L125 0C115-39 91-69 56-93L116-157C188-120 236-49 236 54L236 163L55 163Z"  horiz-adv-x="296" vert-adv-y="1000"  />

      
      <glyph glyph-name="uni0445" unicode="&#x0445;" d="M403 0L581 0L581 32L412 243L412 267L573 468L573 500L400 500L311 384L299 384L206 500L28 500L28 468L191 264L191 239L23 32L23 0L196 0L291 123L304 123ZM201 252L200 250L200 253ZM402 255L403 255L403 254Z"  horiz-adv-x="604" vert-adv-y="1000"  />

      
      <glyph glyph-name="uni0417" unicode="&#x0417;" d="M408 257C456 257 504 237 504 205C504 169 466 146 388 146C309 146 241 186 221 258L49 258L49 215C93 62 232-12 385-12C548-12 683 73 683 183C683 247 644 298 585 332L585 340C635 373 668 420 668 475C668 577 544 671 367 671C219 671 91 592 49 445L49 402L221 402C235 470 300 515 370 515C448 515 489 492 489 461C489 428 454 405 403 403L325 403L325 257Z"  horiz-adv-x="742" vert-adv-y="1000"  />

      
      <glyph glyph-name="uni0411" unicode="&#x0411;" d="M85 0L437 0C571 0 670 84 670 215C670 346 571 429 437 429L255 429L255 502L630 502L630 650L85 650ZM437 271C475 271 500 252 500 215C500 177 475 158 437 158L255 158L255 271Z"  horiz-adv-x="720" vert-adv-y="1000"  />

      
      <glyph glyph-name="uni0414" unicode="&#x0414;" d="M110 216C108 179 90 160 62 158L5 158L5-140L162-140L166 0L612 0L601-140L759-140L790 158L680 158L680 650L131 650ZM282 271L293 492L510 492L510 158L260 158C273 191 280 230 282 271Z"  horiz-adv-x="795" vert-adv-y="1000"  />

      
      <glyph glyph-name="uni0416" unicode="&#x0416;" d="M637 271L692 271L900 0L1089 0L1089 37L849 330L849 354L1068 613L1068 650L890 650L692 401L637 401L637 650L467 650L467 401L411 401L214 650L36 650L36 613L255 354L255 330L15 37L15 0L204 0L411 271L467 271L467 0L637 0Z"  horiz-adv-x="1104" vert-adv-y="1000"  />

      
      <glyph glyph-name="uni0439" unicode="&#x0439;" d="M405 700C396 672 369 652 332 652C295 652 268 672 259 700L125 700L125 683C142 589 231 537 332 537C433 537 522 589 539 683L539 700ZM69 0L259 0L420 307L427 307L427 0L595 0L595 500L405 500L244 193L237 193L237 500L69 500Z"  horiz-adv-x="664" vert-adv-y="1000"  />

      
      <glyph glyph-name="uni0418" unicode="&#x0418;" d="M548 439L556 439L556 0L726 0L726 650L524 650L262 211L255 211L255 650L85 650L85 0L287 0Z"  horiz-adv-x="811" vert-adv-y="1000"  />

      
      <glyph glyph-name="uni0419" unicode="&#x0419;" d="M475 840C466 812 439 792 402 792C365 792 338 812 329 840L195 840L195 823C212 729 301 677 402 677C503 677 592 729 609 823L609 840ZM548 439L556 439L556 0L726 0L726 650L524 650L262 211L255 211L255 650L85 650L85 0L287 0Z"  horiz-adv-x="811" vert-adv-y="1000"  />

      
      <glyph glyph-name="uni0435" unicode="&#x0435;" d="M413 188C394 155 358 140 317 140C260 140 220 173 212 228L589 228L589 300C567 431 459 512 317 512C158 512 41 410 41 250C41 90 158-12 317-12C453-12 558 61 589 156L589 188ZM317 372C364 372 395 352 412 317L222 317C239 352 273 372 317 372Z"  horiz-adv-x="630" vert-adv-y="1000"  />

      
      <glyph glyph-name="uni0413" unicode="&#x0413;" d="M85 0L255 0L255 502L585 502L585 650L85 650Z"  horiz-adv-x="605" vert-adv-y="1000"  />

      
      <glyph glyph-name="uni0426" unicode="&#x0426;" d="M255 650L85 650L85 0L609 0L598-140L756-140L787 158L677 158L677 650L507 650L507 158L255 158Z"  horiz-adv-x="787" vert-adv-y="1000"  />

      
      <glyph glyph-name="uni0427" unicode="&#x0427;" d="M287 239L350 239C394 239 436 249 472 266L472 0L642 0L642 650L472 650L472 420C454 405 427 397 389 397L333 397C264 397 230 430 230 500L230 650L60 650L60 457C60 322 153 239 287 239Z"  horiz-adv-x="727" vert-adv-y="1000"  />

      
      <glyph glyph-name="uni0429" unicode="&#x0429;" d="M255 650L85 650L85 0L931 0L920-140L1078-140L1109 158L999 158L999 650L829 650L829 158L627 158L627 650L457 650L457 158L255 158Z"  horiz-adv-x="1114" vert-adv-y="1000"  />

      
      <glyph glyph-name="uni0428" unicode="&#x0428;" d="M999 650L829 650L829 158L627 158L627 650L457 650L457 158L255 158L255 650L85 650L85 0L999 0Z"  horiz-adv-x="1084" vert-adv-y="1000"  />

      
      <glyph glyph-name="uni042A" unicode="&#x042A;" d="M519 0C653 0 752 87 752 222C752 357 653 443 519 443L345 443L345 650L5 650L5 502L175 502L175 0ZM519 285C557 285 582 262 582 222C582 181 557 158 519 158L345 158L345 285Z"  horiz-adv-x="787" vert-adv-y="1000"  />

      
      <glyph glyph-name="uni042B" unicode="&#x042B;" d="M429 0C563 0 662 87 662 222C662 357 563 443 429 443L255 443L255 650L85 650L85 0ZM750 0L920 0L920 650L750 650ZM429 285C467 285 492 262 492 222C492 181 467 158 429 158L255 158L255 285Z"  horiz-adv-x="1005" vert-adv-y="1000"  />

      
      <glyph glyph-name="uni0404" unicode="&#x0404;" d="M578 401L754 401L754 443C709 585 570 669 404 669C197 669 45 537 45 329C45 121 197-12 404-12C579-12 716 88 754 214L754 256L579 256C554 186 490 146 404 146C318 146 254 186 229 257L473 257L473 403L230 403C256 471 319 511 404 511C490 511 553 471 578 401Z"  horiz-adv-x="807" vert-adv-y="1000"  />

      
      <glyph glyph-name="uni042D" unicode="&#x042D;" d="M395-12C602-12 754 121 754 329C754 537 602 669 395 669C229 669 90 585 45 443L45 401L221 401C246 471 309 511 395 511C480 511 543 471 568 403L326 403L326 257L569 257C544 186 481 146 395 146C309 146 245 186 220 256L45 256L45 214C83 88 220-12 395-12Z"  horiz-adv-x="799" vert-adv-y="1000"  />

      
      <glyph glyph-name="uni042E" unicode="&#x042E;" d="M689-12C885-12 1030 121 1030 329L857 329C857 214 790 146 689 146C588 146 521 214 521 329C521 443 588 511 689 511C790 511 857 443 857 329L1030 329C1030 537 885 669 689 669C520 669 390 572 356 413L255 413L255 650L85 650L85 0L255 0L255 255L354 255C384 90 516-12 689-12Z"  horiz-adv-x="1075" vert-adv-y="1000"  />

      
      <glyph glyph-name="uni0433" unicode="&#x0433;" d="M69 0L237 0L237 344L450 344L450 500L69 500Z"  horiz-adv-x="480" vert-adv-y="1000"  />

      
      <glyph glyph-name="uni0491" unicode="&#x0491;" d="M468 619L317 619L305 500L69 500L69 0L237 0L237 344L448 344Z"  horiz-adv-x="480" vert-adv-y="1000"  />

      
      <glyph glyph-name="uni0436" unicode="&#x0436;" d="M496 197L518 197L647 0L819 0L819 23L662 256L806 477L806 500L643 500L516 303L496 303L496 700L328 700L328 303L307 303L181 500L18 500L18 477L162 256L5 23L5 0L177 0L305 197L328 197L328 0L496 0Z"  horiz-adv-x="824" vert-adv-y="1000"  />

      
      <glyph glyph-name="uni0446" unicode="&#x0446;" d="M237 500L69 500L69 0L480 0L472-119L623-119L650 156L558 156L558 500L390 500L390 156L237 156Z"  horiz-adv-x="659" vert-adv-y="1000"  />

      
      <glyph glyph-name="uni0449" unicode="&#x0449;" d="M237 500L69 500L69 0L761 0L753-119L904-119L931 156L839 156L839 500L671 500L671 156L538 156L538 500L370 500L370 156L237 156Z"  horiz-adv-x="940" vert-adv-y="1000"  />

      
      <glyph glyph-name="uni0447" unicode="&#x0447;" d="M206 500L38 500L38 371C38 238 94 148 231 148C281 148 338 167 377 199L377 0L545 0L545 500L377 500L377 337C356 317 320 302 282 302C237 302 206 330 206 379Z"  horiz-adv-x="614" vert-adv-y="1000"  />

      
      <glyph glyph-name="uni044C" unicode="&#x044C;" d="M69 0L302 0C469 0 557 79 557 186C557 293 469 372 302 372L237 372L237 500L69 500ZM381 186C381 161 360 142 309 142L237 142L237 230L309 230C360 230 381 211 381 186Z"  horiz-adv-x="587" vert-adv-y="1000"  />

      
      <glyph glyph-name="uni044A" unicode="&#x044A;" d="M25 344L138 344L138 0L367 0C534 0 622 79 622 186C622 293 534 372 367 372L306 372L306 500L25 500ZM446 186C446 161 425 142 374 142L306 142L306 230L374 230C425 230 446 211 446 186Z"  horiz-adv-x="652" vert-adv-y="1000"  />

      
      <glyph glyph-name="uni044B" unicode="&#x044B;" d="M69 0L292 0C459 0 547 79 547 186C547 293 459 372 292 372L237 372L237 500L69 500ZM608 0L776 0L776 500L608 500ZM371 186C371 161 350 142 299 142L237 142L237 230L299 230C350 230 371 211 371 186Z"  horiz-adv-x="845" vert-adv-y="1000"  />

      
      <glyph glyph-name="uni044D" unicode="&#x044D;" d="M41 201C62 69 171-12 313-12C472-12 589 90 589 250C589 410 472 512 313 512C171 512 63 431 41 300L217 300C233 334 268 354 313 354C361 354 396 332 411 294L266 294L266 206L411 206C396 167 361 146 313 146C267 146 233 166 217 201Z"  horiz-adv-x="630" vert-adv-y="1000"  />

      
      <glyph glyph-name="uni044E" unicode="&#x044E;" d="M583-12C736-12 848 90 848 250C848 410 736 512 583 512C455 512 356 440 328 323L237 323L237 500L69 500L69 0L237 0L237 187L326 187C351 64 451-12 583-12ZM583 354C640 354 678 315 678 250C678 185 640 146 583 146C526 146 488 185 488 250C488 315 526 354 583 354Z"  horiz-adv-x="889" vert-adv-y="1000"  />

      
      <glyph glyph-name="uni0406" unicode="&#x0406;" d="M88 0L258 0L258 650L88 650Z"  horiz-adv-x="346" vert-adv-y="1000"  />

      
      <glyph glyph-name="uni0457" unicode="&#x0457;" d="M69 0L237 0L237 500L69 500ZM0 634C0 587 28 560 73 560C115 560 138 587 138 634C138 680 115 707 73 707C28 707 0 680 0 634ZM168 634C168 587 193 560 234 560C278 560 306 587 306 634C306 680 278 707 234 707C193 707 168 680 168 634Z"  horiz-adv-x="306" vert-adv-y="1000"  />

      
      <glyph glyph-name="uni0407" unicode="&#x0407;" d="M20 770C20 723 48 696 93 696C135 696 158 723 158 770C158 816 135 843 93 843C48 843 20 816 20 770ZM188 770C188 723 213 696 254 696C298 696 326 723 326 770C326 816 298 843 254 843C213 843 188 816 188 770ZM88 0L258 0L258 650L88 650Z"  horiz-adv-x="346" vert-adv-y="1000"  />

      
      <glyph glyph-name="uni0490" unicode="&#x0490;" d="M553 778L402 778L389 650L85 650L85 0L255 0L255 502L465 502L465 503L533 503Z"  horiz-adv-x="563" vert-adv-y="1000"  />

      
      <glyph glyph-name="uni27" unicode="&#x27;" d="M60 418L210 418L220 700L50 700Z"  horiz-adv-x="270" vert-adv-y="1000"  />

      
      <glyph glyph-name="uni30" unicode="&#x30;" d="M368-12C553-12 691 121 691 329C691 537 553 669 368 669C182 669 45 537 45 329C45 121 182-12 368-12ZM368 511C459 511 518 443 518 329C518 214 459 146 368 146C277 146 218 214 218 329C218 443 277 511 368 511Z"  horiz-adv-x="736" vert-adv-y="1000"  />

      
      <glyph glyph-name="uni31" unicode="&#x31;" d="M10 427C69 429 137 441 179 466L179 0L349 0L349 650L199 650C150 595 75 567 10 565Z"  horiz-adv-x="439" vert-adv-y="1000"  />

      
      <glyph glyph-name="uni32" unicode="&#x32;" d="M57 0L612 0L612 148L374 148C499 228 597 333 597 446C597 580 484 669 333 669C196 669 68 576 37 459L37 417L213 417C225 473 264 511 324 511C384 511 424 477 424 426C424 304 174 165 57 124Z"  horiz-adv-x="667" vert-adv-y="1000"  />

      
      <glyph glyph-name="uni33" unicode="&#x33;" d="M337-12C495-12 626 72 626 203C626 316 537 395 409 414L600 560L600 650L47 650L47 502L345 502L161 368L237 283C259 288 291 293 317 293C403 293 453 265 453 220C453 174 402 146 337 146C263 146 212 180 198 240L22 240L22 198C64 73 190-12 337-12Z"  horiz-adv-x="661" vert-adv-y="1000"  />

      
      <glyph glyph-name="uni35" unicode="&#x35;" d="M357-12C532-12 661 81 661 227C661 372 539 465 354 465C321 465 279 459 242 450L247 502L615 502L615 650L116 650L80 304L230 304C260 317 297 325 338 325C429 325 488 292 488 236C488 179 441 146 357 146C283 146 232 180 218 240L42 240L42 198C82 74 210-12 357-12Z"  horiz-adv-x="711" vert-adv-y="1000"  />

      
      <glyph glyph-name="uni36" unicode="&#x36;" d="M650 438L650 480C606 600 503 667 356 667C173 667 45 531 45 323C45 121 173-14 356-14C514-14 645 79 645 205C645 336 543 419 389 419C323 419 253 402 209 374C217 466 273 509 356 509C413 509 460 486 474 438ZM230 217C230 263 281 291 349 291C417 291 471 263 472 217C472 171 418 143 350 143C283 143 230 171 230 217Z"  horiz-adv-x="696" vert-adv-y="1000"  />

      
      <glyph glyph-name="uni39" unicode="&#x39;" d="M45 215L45 173C89 53 192-14 339-14C522-14 650 122 650 330C650 532 522 667 339 667C181 667 50 574 50 448C50 317 152 234 306 234C372 234 441 250 486 278C477 186 421 144 339 144C282 144 235 167 221 215ZM465 436C465 390 414 362 346 362C278 362 224 390 223 436C223 482 277 510 345 510C412 510 465 482 465 436Z"  horiz-adv-x="696" vert-adv-y="1000"  />

      
      <glyph glyph-name="uni38" unicode="&#x38;" d="M343-12C513-12 641 65 641 186C641 258 595 314 522 348C577 379 611 428 611 488C611 598 496 669 343 669C189 669 75 598 75 488C75 428 108 379 163 348C90 314 45 258 45 186C45 65 172-12 343-12ZM343 276C416 276 463 252 463 209C463 165 416 141 343 141C270 141 222 165 222 209C222 252 270 276 343 276ZM343 523C404 523 442 502 442 463C442 423 404 402 343 402C282 402 243 423 243 463C243 502 282 523 343 523Z"  horiz-adv-x="686" vert-adv-y="1000"  />

      
      <glyph glyph-name="uni37" unicode="&#x37;" d="M558 650L5 650L5 502L375 502C263 352 171 183 106 0L276 0C339 182 424 347 558 521Z"  horiz-adv-x="568" vert-adv-y="1000"  />

      
      <glyph glyph-name="uni34" unicode="&#x34;" d="M638 282L534 282L534 650L384 650L14 272L14 144L364 144L364 0L534 0L534 144L618 144ZM191 282L364 445L364 282Z"  horiz-adv-x="663" vert-adv-y="1000"  />

      
      <glyph glyph-name="uni3b" unicode="&#x3b;" d="M55 0L125 0C115-39 91-69 56-93L116-157C188-120 236-49 236 54L236 163L55 163ZM55 335L236 335L236 498L55 498Z"  horiz-adv-x="291" vert-adv-y="1000"  />

      
      <glyph glyph-name="uni3a" unicode="&#x3a;" d="M55 0L236 0L236 163L55 163ZM55 335L236 335L236 498L55 498Z"  horiz-adv-x="291" vert-adv-y="1000"  />

      
      <glyph glyph-name="uni2d" unicode="&#x2d;" d="M50 186L361 186L361 344L50 344Z"  horiz-adv-x="411" vert-adv-y="1000"  />

      
      <glyph glyph-name="uni21" unicode="&#x21;" d="M55 0L236 0L236 163L55 163ZM65 237L226 237L236 650L55 650Z"  horiz-adv-x="286" vert-adv-y="1000"  />

      
      <glyph glyph-name="uni3f" unicode="&#x3f;" d="M196 451C213 490 268 515 321 515C380 515 423 495 423 462C423 403 271 369 203 356L219 227L380 227L377 267C481 293 593 346 593 458C593 582 468 671 319 671C176 671 67 596 20 493L20 451ZM199 0L380 0L380 163L199 163Z"  horiz-adv-x="613" vert-adv-y="1000"  />

      
      <glyph glyph-name="unia9" unicode="&#xa9;" d="M65 271C65 60 236-111 447-111C658-111 830 60 830 271C830 482 658 654 447 654C236 654 65 482 65 271ZM103 271C103 461 257 616 447 616C637 616 792 461 792 271C792 81 637-73 447-73C257-73 103 81 103 271ZM534 231C520 200 488 182 448 182C390 182 352 217 352 276C352 334 390 370 448 370C488 370 520 352 534 321L693 321L693 350C669 436 567 512 448 512C305 512 199 420 199 276C199 132 305 40 448 40C572 40 669 117 693 202L693 231Z"  horiz-adv-x="895" vert-adv-y="1000"  />

      
      <glyph glyph-name="uni22" unicode="&#x22;" d="M60 418L210 418L220 700L50 700ZM260 418L410 418L420 700L250 700Z"  horiz-adv-x="470" vert-adv-y="1000"  />

      
      <glyph glyph-name="uni23" unicode="&#x23;" d="M370 0L490 0L533 157L679 157L679 265L563 265L596 385L712 385L712 493L626 493L670 650L550 650L506 493L368 493L412 650L292 650L248 493L103 493L103 385L218 385L185 265L70 265L70 157L155 157L112 0L232 0L275 157L413 157ZM338 385L476 385L443 265L305 265Z"  horiz-adv-x="782" vert-adv-y="1000"  />

      
      <glyph glyph-name="uni24" unicode="&#x24;" d="M353 257C416 246 472 232 472 201L642 205C642 341 471 374 353 397C295 408 236 423 236 456C236 487 279 506 338 506C391 506 446 482 463 445L639 445L639 485C600 565 520 627 414 647L414 703L264 703L264 646C151 623 66 549 66 452C66 311 237 278 353 257ZM226 213L50 213L50 173C87 89 166 33 264 12L264-38L414-38L414 6C546 22 642 94 642 205L472 201C472 166 422 152 361 152C299 152 246 175 226 213Z"  horiz-adv-x="692" vert-adv-y="1000"  />

      
      <glyph glyph-name="uni25" unicode="&#x25;" d="M155 331C255 331 329 395 329 496C329 597 255 661 155 661C55 661-19 597-19 496C-19 395 55 331 155 331ZM579-10C679-10 753 54 753 155C753 256 679 320 579 320C479 320 405 256 405 155C405 54 479-10 579-10ZM62 0L182 0L672 650L552 650ZM155 562C195 562 222 536 222 496C222 455 195 430 155 430C114 430 88 455 88 496C88 536 114 562 155 562ZM579 221C619 221 646 195 646 155C646 114 619 89 579 89C538 89 512 114 512 155C512 195 538 221 579 221Z"  horiz-adv-x="833" vert-adv-y="1000"  />

      
      <glyph glyph-name="uni26" unicode="&#x26;" d="M339 403C283 403 243 426 243 461C243 492 284 515 362 515C432 515 501 488 511 442L683 442L683 485C655 596 513 671 365 671C188 671 64 577 64 475C64 420 96 373 147 340L147 332C88 298 49 247 49 183C49 73 170-12 317-12C403-12 485 17 543 77C570 22 620-12 699-12C721-12 762-9 781-4L781 152C776 151 755 149 750 149C706 149 684 176 684 223L684 257L784 257L784 403ZM344 146C266 146 228 169 228 205C228 237 276 257 324 257L510 257C490 185 422 146 344 146Z"  horiz-adv-x="833" vert-adv-y="1000"  />

      
      <glyph glyph-name="uni28" unicode="&#x28;" d="M351 7C275 50 216 137 216 279C216 421 275 508 351 551L351 693C209 655 60 499 60 279C60 59 209-97 351-135Z"  horiz-adv-x="396" vert-adv-y="1000"  />

      
      <glyph glyph-name="uni29" unicode="&#x29;" d="M45-135C187-97 336 59 336 279C336 499 187 655 45 693L45 551C121 508 180 421 180 279C180 137 121 50 45 7Z"  horiz-adv-x="396" vert-adv-y="1000"  />

      
      <glyph glyph-name="uni5b" unicode="&#x5b;" d="M90-132L376-132L376 7L241 7L241 551L376 551L376 690L90 690Z"  horiz-adv-x="421" vert-adv-y="1000"  />

      
      <glyph glyph-name="uni5d" unicode="&#x5d;" d="M331 690L45 690L45 551L180 551L180 7L45 7L45-132L331-132Z"  horiz-adv-x="421" vert-adv-y="1000"  />

      
      <glyph glyph-name="uni7b" unicode="&#x7b;" d="M40 207L89 207C104 207 108 194 108 174C108 149 102 111 102 71C102-8 124-114 282-140L282 2C248 16 240 43 240 76C240 100 243 127 243 154C243 198 235 243 192 275L192 277C235 309 243 354 243 399C243 426 240 453 240 477C240 510 248 537 282 551L282 693C124 667 102 561 102 482C102 442 108 404 108 379C108 360 104 348 92 346L40 346Z"  horiz-adv-x="347" vert-adv-y="1000"  />

      
      <glyph glyph-name="uni7d" unicode="&#x7d;" d="M307 346L255 346C242 348 239 360 239 379C239 404 245 442 245 482C245 561 223 667 65 693L65 551C99 537 107 510 107 477C107 453 104 426 104 399C104 354 111 309 155 277L155 275C111 243 104 198 104 154C104 127 107 100 107 76C107 43 99 16 65 2L65-140C223-114 245-8 245 71C245 111 239 149 239 174C239 192 242 205 255 207L307 207Z"  horiz-adv-x="347" vert-adv-y="1000"  />

      
      <glyph glyph-name="uni2a" unicode="&#x2a;" d="M323 321L446 210L521 340L363 391L521 442L446 572L323 460L358 623L208 623L243 460L120 572L45 442L203 390L45 340L120 210L243 321L208 159L358 159Z"  horiz-adv-x="566" vert-adv-y="1000"  />

      
      <glyph glyph-name="uni2020" unicode="&#x2020;" d="M358 623L208 623L251 423L51 466L51 316L254 360L208-51L358-51L311 360L515 316L515 466L315 423Z"  horiz-adv-x="566" vert-adv-y="1000"  />

      
      <glyph glyph-name="uni2021" unicode="&#x2021;" d="M358 623L208 623L251 433L51 476L51 326L248 368L223 286L248 203L51 246L51 96L251 139L208-51L358-51L315 139L515 96L515 246L318 203L343 286L318 368L515 326L515 476L315 433Z"  horiz-adv-x="566" vert-adv-y="1000"  />

      
      <glyph glyph-name="uni40" unicode="&#x40;" d="M720 7C648-32 544-63 450-63C250-63 103 81 103 271C103 461 257 616 447 616C637 616 792 461 792 271C792 194 775 134 735 134C699 134 689 196 689 273L689 493L548 493L545 452C509 492 460 514 404 514C288 514 203 422 203 278C203 134 288 42 404 42C471 42 528 73 563 127C584 75 624 42 686 42C765 42 830 160 830 271C830 482 658 654 447 654C236 654 65 482 65 271C65 60 228-101 450-101C562-101 652-70 720-33ZM450 184C393 184 356 219 356 278C356 336 393 372 450 372C506 372 543 336 543 278C543 219 506 184 450 184Z"  horiz-adv-x="895" vert-adv-y="1000"  />

      
      <glyph glyph-name="uniae" unicode="&#xae;" d="M65 271C65 60 236-111 447-111C658-111 830 60 830 271C830 482 658 654 447 654C236 654 65 482 65 271ZM103 271C103 461 257 616 447 616C637 616 792 461 792 271C792 81 637-73 447-73C257-73 103 81 103 271ZM245 59L388 59L388 197L430 197L526 59L670 59L670 107L584 222L584 227C632 249 663 290 663 353C663 453 587 495 482 495L245 495ZM472 353C495 353 511 353 511 329C511 306 495 306 472 306L388 306L388 353Z"  horiz-adv-x="895" vert-adv-y="1000"  />

      
      <glyph glyph-name="uni2b" unicode="&#x2b;" d="M50 226L191 226L191 84L329 84L329 226L471 226L471 364L329 364L329 505L191 505L191 364L50 364Z"  horiz-adv-x="521" vert-adv-y="1000"  />

      
      <glyph glyph-name="uni3d" unicode="&#x3d;" d="M60 98L481 98L481 236L60 236ZM60 354L481 354L481 492L60 492Z"  horiz-adv-x="541" vert-adv-y="1000"  />

      
      <glyph glyph-name="uni3c" unicode="&#x3c;" d="M50 223L471 49L471 196L218 295L471 394L471 541L50 367Z"  horiz-adv-x="531" vert-adv-y="1000"  />

      
      <glyph glyph-name="uni3e" unicode="&#x3e;" d="M481 367L60 541L60 394L312 295L60 196L60 49L481 223Z"  horiz-adv-x="531" vert-adv-y="1000"  />

      
      <glyph glyph-name="uni2f" unicode="&#x2f;" d="M-34-148L86-148L413 706L293 706Z"  horiz-adv-x="409" vert-adv-y="1000"  />

      
      <glyph glyph-name="uni5c" unicode="&#x5c;" d="M116 706L-4 706L323-148L443-148Z"  horiz-adv-x="409" vert-adv-y="1000"  />

      
      <glyph glyph-name="uni7c" unicode="&#x7c;" d="M204 706L88 706L88-148L204-148Z"  horiz-adv-x="292" vert-adv-y="1000"  />

      
      <glyph glyph-name="uni5f" unicode="&#x5f;" d="M30-167L451-167L451-29L30-29Z"  horiz-adv-x="481" vert-adv-y="1000"  />

      
      <glyph glyph-name="uni201A" unicode="&#x201A;" d="M55 0L125 0C115-39 91-69 56-93L116-157C188-120 236-49 236 54L236 163L55 163Z"  horiz-adv-x="296" vert-adv-y="1000"  />

      
      <glyph glyph-name="uni201E" unicode="&#x201E;" d="M55 0L125 0C115-39 91-69 56-93L116-157C188-120 236-49 236 54L236 163L55 163ZM275 0L345 0C335-39 311-69 276-93L336-157C408-120 456-49 456 54L456 163L275 163Z"  horiz-adv-x="516" vert-adv-y="1000"  />

      
      <glyph glyph-name="uni201D" unicode="&#x201D;" d="M55 487L125 487C114 447 91 417 56 394L116 330C188 367 236 438 236 541L236 650L55 650ZM275 487L345 487C334 447 311 417 276 394L336 330C408 367 456 438 456 541L456 650L275 650Z"  horiz-adv-x="516" vert-adv-y="1000"  />

      
      <glyph glyph-name="uni201C" unicode="&#x201C;" d="M456 504L386 504C396 543 419 573 455 597L395 661C323 624 275 553 275 450L275 341L456 341ZM236 504L165 504C176 543 199 573 235 597L175 661C103 624 55 553 55 450L55 341L236 341Z"  horiz-adv-x="516" vert-adv-y="1000"  />

      
      <glyph glyph-name="uni2018" unicode="&#x2018;" d="M236 504L165 504C176 543 199 573 235 597L175 661C103 624 55 553 55 450L55 341L236 341Z"  horiz-adv-x="291" vert-adv-y="1000"  />

      
      <glyph glyph-name="uni2019" unicode="&#x2019;" d="M55 487L125 487C114 447 91 417 56 394L116 330C188 367 236 438 236 541L236 650L55 650Z"  horiz-adv-x="291" vert-adv-y="1000"  />

      
      <glyph glyph-name="uni2026" unicode="&#x2026;" d="M55 0L236 0L236 163L55 163ZM341 0L522 0L522 163L341 163ZM627 0L808 0L808 163L627 163Z"  horiz-adv-x="858" vert-adv-y="1000"  />

      
      <glyph glyph-name="uni20AC" unicode="&#x20AC;" d="M11 349L62 349L62 308L49 308L11 196L85 196C135 66 260-12 419-12C594-12 731 88 769 214L769 256L594 256C569 186 505 146 419 146C362 146 314 163 281 196L366 196L405 308L232 308C231 315 231 322 231 329C231 336 231 342 232 349L419 349L457 461L281 461C314 493 362 511 419 511C505 511 568 471 593 401L769 401L769 443C724 585 585 669 419 669C260 669 134 591 85 461L49 461Z"  horiz-adv-x="817" vert-adv-y="1000"  />

      
      <glyph glyph-name="uniab" unicode="&#xab;" d="M162 84L317 84L190 280L317 476L162 476L35 280ZM408 84L563 84L436 280L563 476L408 476L281 280Z"  horiz-adv-x="613" vert-adv-y="1000"  />

      
      <glyph glyph-name="unibb" unicode="&#xbb;" d="M451 476L296 476L423 280L296 84L451 84L578 280ZM205 476L50 476L177 280L50 84L205 84L332 280Z"  horiz-adv-x="628" vert-adv-y="1000"  />

      
      <glyph glyph-name="uni2039" unicode="&#x2039;" d="M162 84L317 84L190 280L317 476L162 476L35 280Z"  horiz-adv-x="367" vert-adv-y="1000"  />

      
      <glyph glyph-name="uni203A" unicode="&#x203A;" d="M205 476L50 476L177 280L50 84L205 84L332 280Z"  horiz-adv-x="367" vert-adv-y="1000"  />

      
      <glyph glyph-name="uni2022" unicode="&#x2022;" d="M40 250C40 185 82 146 146 146C210 146 252 185 252 250C252 315 210 354 146 354C82 354 40 315 40 250Z"  horiz-adv-x="452" vert-adv-y="1000"  />

      
      <glyph glyph-name="uni2013" unicode="&#x2013;" d="M25 216L770 216L770 334L25 334Z"  horiz-adv-x="795" vert-adv-y="1000"  />

      
      <glyph glyph-name="uni2014" unicode="&#x2014;" d="M40 216L585 216L585 334L40 334Z"  horiz-adv-x="625" vert-adv-y="1000"  />

      
      <glyph glyph-name="uni2122" unicode="&#x2122;" d="M651 266L742 266L827 484L837 484L837 266L951 266L951 660L805 660L708 428L698 428L602 660L440 660L440 266L557 266L557 475L568 475ZM30 555L157 555L157 266L275 266L275 555L401 555L401 660L30 660Z"  horiz-adv-x="991" vert-adv-y="1000"  />

      
      <glyph glyph-name="unia7" unicode="&#xa7;" d="M573 506C543 597 451 667 311 667C167 667 67 595 67 507C67 459 89 429 121 408C87 390 65 366 65 337C65 159 396 216 396 157C396 137 369 119 320 119C278 119 235 143 224 178L50 178L50 148C83 49 198-12 325-12C481-12 577 53 577 143C577 191 553 221 517 241C554 258 577 281 577 312C577 475 244 418 244 494C244 519 273 531 313 531C355 531 393 504 399 475L573 475ZM242 323C242 345 265 358 299 360C353 352 396 345 396 321C396 302 372 285 328 283C279 289 242 298 242 323Z"  horiz-adv-x="627" vert-adv-y="1000"  />

      
      <glyph glyph-name="unib1" unicode="&#xb1;" d="M50 266L191 266L191 164L329 164L329 266L471 266L471 404L329 404L329 505L191 505L191 404L50 404ZM50 0L471 0L471 138L50 138Z"  horiz-adv-x="521" vert-adv-y="1000"  />

      
      <glyph glyph-name="unib7" unicode="&#xb7;" d="M70 250C70 204 99 177 144 177C189 177 218 204 218 250C218 295 189 323 144 323C99 323 70 295 70 250Z"  horiz-adv-x="288" vert-adv-y="1000"  />

      
      <glyph glyph-name="uni2116" unicode="&#x2116;" d="M538 0L778 0L778 650L608 650L608 211L597 211L326 650L85 650L85 0L255 0L255 439L266 439ZM1091 261C1212 261 1301 339 1301 461C1301 583 1212 660 1091 660C970 660 881 583 881 461C881 339 970 261 1091 261ZM903 81L1277 81L1277 211L903 211ZM1091 536C1137 536 1168 508 1168 461C1168 414 1137 386 1091 386C1045 386 1014 414 1014 461C1014 508 1045 536 1091 536Z"  horiz-adv-x="1362" vert-adv-y="1000"  />

      
      <glyph glyph-name="unib0" unicode="&#xb0;" d="M216 358C311 358 382 419 382 515C382 611 311 672 216 672C121 672 50 611 50 515C50 419 121 358 216 358ZM216 571C250 571 274 550 274 515C274 480 250 459 216 459C182 459 158 480 158 515C158 550 182 571 216 571Z"  horiz-adv-x="432" vert-adv-y="1000"  />

      
      <glyph glyph-name="uni2212" unicode="&#x2212;" d="M50 226L471 226L471 364L50 364Z"  horiz-adv-x="521" vert-adv-y="1000"  />

      
      <glyph glyph-name="uni043E" unicode="&#x043E;" d="M317-12C476-12 593 90 593 250C593 410 476 512 317 512C158 512 41 410 41 250C41 90 158-12 317-12ZM317 354C381 354 423 315 423 250C423 185 381 146 317 146C253 146 211 185 211 250C211 315 253 354 317 354Z"  horiz-adv-x="634" vert-adv-y="1000"  />

      
      <glyph glyph-name="uni0440" unicode="&#x0440;" d="M69-155L237-155L237 47C275 9 327-12 386-12C515-12 609 90 609 250C609 410 515 512 386 512C327 512 275 490 237 452L237 500L69 500ZM335 354C398 354 439 315 439 250C439 185 398 146 335 146C272 146 231 185 231 250C231 315 272 354 335 354Z"  horiz-adv-x="650" vert-adv-y="1000"  />

      
      <glyph glyph-name="uni043F" unicode="&#x043F;" d="M390 0L558 0L558 500L69 500L69 0L237 0L237 344L390 344Z"  horiz-adv-x="627" vert-adv-y="1000"  />

      
      <glyph glyph-name="uni0401" unicode="&#x0401;" d="M182 769C182 723 211 696 256 696C301 696 329 723 329 769C329 814 301 842 256 842C211 842 182 814 182 769ZM377 769C377 723 406 696 451 696C496 696 524 723 524 769C524 814 496 842 451 842C406 842 377 814 377 769ZM85 0L622 0L622 148L255 148L255 264L602 264L602 412L255 412L255 502L620 502L620 650L85 650Z"  horiz-adv-x="697" vert-adv-y="1000"  />

      
      <glyph glyph-name="uni0451" unicode="&#x0451;" d="M152 635C152 589 181 562 226 562C271 562 299 589 299 635C299 680 271 708 226 708C181 708 152 680 152 635ZM347 635C347 589 376 562 421 562C466 562 494 589 494 635C494 680 466 708 421 708C376 708 347 680 347 635ZM413 188C394 155 358 140 317 140C260 140 220 173 212 228L589 228L589 300C567 431 459 512 317 512C158 512 41 410 41 250C41 90 158-12 317-12C453-12 558 61 589 156L589 188ZM317 372C364 372 395 352 412 317L222 317C239 352 273 372 317 372Z"  horiz-adv-x="630" vert-adv-y="1000"  />

      

  </font>
</defs>
</svg>
