<svg width="48" height="48" viewBox="0 0 48 48" fill="none" xmlns="http://www.w3.org/2000/svg">
<g clip-path="url(#clip0_3_69)">
<path d="M0.725807 18.0695H4.75237C4.99031 18.9287 5.33369 19.7552 5.77466 20.53L2.92478 23.3802C2.85734 23.4477 2.80384 23.5278 2.76734 23.6159C2.73083 23.704 2.71205 23.7985 2.71205 23.8939C2.71205 23.9893 2.73083 24.0838 2.76734 24.1719C2.80384 24.2601 2.85734 24.3402 2.92478 24.4076L6.0038 27.489C6.2873 27.7721 6.74659 27.7721 7.03009 27.489L9.88033 24.6371C10.6544 25.0782 11.4802 25.4217 12.3387 25.6597V29.6883C12.3387 30.0893 12.6637 30.4144 13.0645 30.4144H17.4194C17.8202 30.4144 18.1452 30.0893 18.1452 29.6883V25.6597C19.0037 25.4217 19.8294 25.0782 20.6035 24.6371L23.4538 27.489C23.7418 27.7614 24.1923 27.7614 24.4801 27.489L27.5597 24.4076C27.6271 24.3402 27.6806 24.2601 27.7171 24.1719C27.7536 24.0838 27.7724 23.9893 27.7724 23.8939C27.7724 23.7985 27.7536 23.704 27.7171 23.6159C27.6806 23.5278 27.6271 23.4477 27.5597 23.3802L24.7092 20.53C25.1502 19.7552 25.4936 18.9287 25.7315 18.0695H29.7581C30.1589 18.0695 30.4839 17.7444 30.4839 17.3433V12.9863C30.4839 12.5854 30.1589 12.2601 29.7581 12.2601H25.7315C25.4935 11.401 25.1501 10.5746 24.7092 9.79992L27.5591 6.9497C27.6265 6.88225 27.68 6.80217 27.7165 6.71402C27.753 6.62588 27.7718 6.53141 27.7718 6.436C27.7718 6.34059 27.753 6.24612 27.7165 6.15798C27.68 6.06984 27.6265 5.98976 27.5591 5.92231L24.4801 2.8408C24.1966 2.55744 23.7373 2.55744 23.4538 2.8408L20.6035 5.69276C19.8293 5.25193 19.0036 4.90846 18.1452 4.67017V0.641364C18.1452 0.240517 17.8202 -0.0848083 17.4194 -0.0848083H13.0645C12.6637 -0.0848083 12.3387 0.240517 12.3387 0.641364V4.67017C11.4803 4.90848 10.6546 5.25197 9.88033 5.69284L7.03009 2.8408C6.74209 2.56848 6.29158 2.56848 6.0038 2.8408L2.9242 5.92224C2.85676 5.98968 2.80326 6.06977 2.76676 6.15791C2.73025 6.24605 2.71147 6.34052 2.71147 6.43593C2.71147 6.53134 2.73025 6.62581 2.76676 6.71395C2.80326 6.80209 2.85676 6.88218 2.9242 6.94962L5.77466 9.79985C5.33374 10.5746 4.99036 11.4009 4.75237 12.2601H0.725807C0.324944 12.2601 0 12.5854 0 12.9862V17.3433C0 17.7443 0.324944 18.0694 0.725807 18.0694V18.0695ZM1.45161 13.7125H5.32016C5.66129 13.7125 5.95641 13.475 6.02928 13.1417C6.2675 12.054 6.69814 11.0177 7.30089 10.0816C7.39019 9.94211 7.42915 9.77626 7.4113 9.61157C7.39345 9.44688 7.31987 9.29325 7.20276 9.17614L4.46371 6.43571L6.51702 4.38115L9.25549 7.12158C9.37256 7.23898 9.52625 7.31276 9.69103 7.33068C9.85581 7.34859 10.0218 7.30955 10.1613 7.22005C11.097 6.61728 12.1328 6.18644 13.2198 5.9478C13.3815 5.91222 13.5262 5.82248 13.6299 5.69342C13.7337 5.56436 13.7903 5.40373 13.7903 5.23811V1.36754H16.6936V5.23804C16.6936 5.57934 16.9311 5.8746 17.264 5.9478C18.3511 6.18644 19.3869 6.61728 20.3226 7.22005C20.4621 7.30955 20.6281 7.34859 20.7929 7.33068C20.9576 7.31276 21.1113 7.23898 21.2284 7.12158L23.9669 4.38115L26.0196 6.43571L23.2811 9.17534C23.1638 9.29251 23.0901 9.44629 23.0723 9.61116C23.0544 9.77602 23.0935 9.94203 23.183 10.0816C23.7855 11.0179 24.2159 12.0544 24.4537 13.1423C24.4892 13.3041 24.5788 13.4489 24.7078 13.5527C24.8368 13.6566 24.9973 13.7132 25.1628 13.7133H29.0323V16.618H25.1628C24.822 16.618 24.5269 16.8555 24.4537 17.1888C24.2159 18.2762 23.7856 19.3123 23.183 20.248C23.0937 20.3876 23.0547 20.5535 23.0726 20.7182C23.0904 20.8829 23.164 21.0366 23.2811 21.1538L26.0202 23.8936L23.9669 25.9487L21.2284 23.208C21.1113 23.0907 20.9576 23.017 20.7928 22.9992C20.628 22.9813 20.4621 23.0204 20.3226 23.1099C19.3873 23.713 18.3518 24.1438 17.2648 24.3821C16.9314 24.4547 16.6936 24.7503 16.6936 25.0916V28.9621H13.7903V25.0916C13.7903 24.7503 13.5525 24.4547 13.219 24.3821C12.1321 24.1438 11.0966 23.713 10.1613 23.1099C10.0218 23.0204 9.85586 22.9813 9.69109 22.9992C9.52633 23.017 9.37262 23.0907 9.25549 23.208L6.51702 25.9488L4.46429 23.8942L7.20276 21.1544C7.32008 21.0372 7.3938 20.8834 7.41165 20.7185C7.4295 20.5536 7.39042 20.3876 7.30089 20.248C6.69813 19.3118 6.26749 18.2752 6.02928 17.1873C5.9938 17.0256 5.90413 16.8809 5.77515 16.7772C5.64618 16.6735 5.48563 16.617 5.32016 16.6172H1.45161V13.7125Z" fill="#F94E32"/>
<path d="M15.2419 20.9742C18.4488 20.9742 21.0484 18.3736 21.0484 15.1648C21.0484 11.9563 18.4488 9.35544 15.2419 9.35544C12.035 9.35544 9.43549 11.9563 9.43549 15.1648C9.4389 18.3716 12.0368 20.9708 15.2419 20.9742ZM15.2419 10.8078C17.6468 10.8078 19.5968 12.7588 19.5968 15.1648C19.5968 17.5711 17.6468 19.5219 15.2419 19.5219C12.8371 19.5219 10.8871 17.5711 10.8871 15.1648C10.8896 12.7594 12.8377 10.8103 15.2419 10.8078Z" fill="#F94E32"/>
<path d="M15.2419 23.1527C19.6512 23.1527 23.2258 19.5766 23.2258 15.1648C23.2258 10.7533 19.6512 7.17691 15.2419 7.17691C10.8327 7.17691 7.25807 10.7533 7.25807 15.1648C7.26344 19.5743 10.8346 23.1476 15.2419 23.1527ZM15.2419 8.62926C18.8497 8.62926 21.7742 11.5552 21.7742 15.1648C21.7742 18.7744 18.8497 21.7004 15.2419 21.7004C11.6342 21.7004 8.70968 18.7744 8.70968 15.1648C8.71367 11.5572 11.6358 8.63325 15.2419 8.62926ZM41.371 33.3191V27.5097C41.371 27.1089 41.046 26.7836 40.6452 26.7836H39.1936V20.9742C39.1936 20.5733 38.8686 20.248 38.4678 20.248H31.9355C31.5346 20.248 31.2097 20.5733 31.2097 20.9742V26.7836H27.5807C27.1798 26.7836 26.8549 27.1089 26.8549 27.5097V33.3191H3.62903C1.62566 33.3217 0.00254032 34.9456 0 36.95V38.4023C0.00254032 40.4069 1.62566 42.0309 3.62903 42.0332H41.371C43.3744 42.0309 44.9975 40.4069 45 38.4023V36.95C44.9975 34.9456 43.3744 33.3217 41.371 33.3191ZM39.9194 33.3191H34.8387V28.2359H39.9194V33.3191ZM32.6613 21.7004H37.742V26.7836H32.6613V21.7004ZM28.3065 28.2359H33.3871V33.3191H28.3065V28.2359ZM43.5484 38.4023C43.5484 39.6056 42.5734 40.5808 41.371 40.5808H3.62903C2.42666 40.5808 1.45161 39.6056 1.45161 38.4023V36.95C1.45161 35.747 2.42666 34.7715 3.62903 34.7715H41.371C42.5734 34.7715 43.5484 35.747 43.5484 36.95V38.4023Z" fill="#F94E32"/>
<path d="M22.5 35.4977C21.2976 35.4977 20.3226 36.4732 20.3226 37.6762C20.3226 38.8794 21.2976 39.8547 22.5 39.8547C23.7024 39.8547 24.6774 38.8794 24.6774 37.6762C24.6774 36.4732 23.7024 35.4977 22.5 35.4977ZM22.5 38.4023C22.0992 38.4023 21.7742 38.0772 21.7742 37.6762C21.7742 37.2753 22.0992 36.95 22.5 36.95C22.9009 36.95 23.2258 37.2753 23.2258 37.6762C23.2258 38.0772 22.9009 38.4023 22.5 38.4023ZM15.2419 35.4977C14.0396 35.4977 13.0645 36.4732 13.0645 37.6762C13.0645 38.8794 14.0396 39.8547 15.2419 39.8547C16.4443 39.8547 17.4194 38.8794 17.4194 37.6762C17.4194 36.4732 16.4443 35.4977 15.2419 35.4977ZM15.2419 38.4023C14.8411 38.4023 14.5161 38.0772 14.5161 37.6762C14.5161 37.2753 14.8411 36.95 15.2419 36.95C15.6428 36.95 15.9678 37.2753 15.9678 37.6762C15.9678 38.0772 15.6428 38.4023 15.2419 38.4023ZM29.7581 35.4977C28.5557 35.4977 27.5807 36.4732 27.5807 37.6762C27.5807 38.8794 28.5557 39.8547 29.7581 39.8547C30.9605 39.8547 31.9355 38.8794 31.9355 37.6762C31.9355 36.4732 30.9605 35.4977 29.7581 35.4977ZM29.7581 38.4023C29.3572 38.4023 29.0323 38.0772 29.0323 37.6762C29.0323 37.2753 29.3572 36.95 29.7581 36.95C30.1589 36.95 30.4839 37.2753 30.4839 37.6762C30.4839 38.0772 30.1589 38.4023 29.7581 38.4023ZM7.98388 35.4977C6.78151 35.4977 5.80646 36.4732 5.80646 37.6762C5.80646 38.8794 6.78151 39.8547 7.98388 39.8547C9.18625 39.8547 10.1613 38.8794 10.1613 37.6762C10.1613 36.4732 9.18625 35.4977 7.98388 35.4977ZM7.98388 38.4023C7.58301 38.4023 7.25807 38.0772 7.25807 37.6762C7.25807 37.2753 7.58301 36.95 7.98388 36.95C8.38474 36.95 8.70968 37.2753 8.70968 37.6762C8.70968 38.0772 8.38474 38.4023 7.98388 38.4023ZM37.0161 35.4977C35.8138 35.4977 34.8387 36.4732 34.8387 37.6762C34.8387 38.8794 35.8138 39.8547 37.0161 39.8547C38.2185 39.8547 39.1936 38.8794 39.1936 37.6762C39.1936 36.4732 38.2185 35.4977 37.0161 35.4977ZM37.0161 38.4023C36.6153 38.4023 36.2903 38.0772 36.2903 37.6762C36.2903 37.2753 36.6153 36.95 37.0161 36.95C37.417 36.95 37.742 37.2753 37.742 37.6762C37.742 38.0772 37.417 38.4023 37.0161 38.4023Z" fill="#F94E32"/>
</g>
<defs>
<clipPath id="clip0_3_69">
<rect width="48" height="48" fill="white"/>
</clipPath>
</defs>
</svg>
