<svg width="48" height="48" viewBox="0 0 48 48" fill="none" xmlns="http://www.w3.org/2000/svg">
<path d="M45.0557 46.9735C44.9867 46.9737 44.9184 46.9602 44.8547 46.9339C44.7909 46.9076 44.733 46.8689 44.6842 46.8201C44.6355 46.7714 44.5968 46.7135 44.5705 46.6497C44.5442 46.586 44.5307 46.5177 44.5308 46.4487V44.4611C44.5308 43.4712 43.7247 42.664 42.7337 42.664H40.8557C39.8658 42.664 39.0597 43.4712 39.0597 44.4611V46.4487C39.0597 46.5877 39.0045 46.7211 38.9061 46.8194C38.8078 46.9177 38.6745 46.973 38.5354 46.973C38.3964 46.973 38.263 46.9177 38.1647 46.8194C38.0663 46.7211 38.0111 46.5877 38.0111 46.4487V44.4611C38.0117 43.7065 38.3117 42.9831 38.8453 42.4495C39.3788 41.9159 40.1023 41.6159 40.8568 41.6154H42.7337C43.4883 41.6159 44.2118 41.9159 44.7453 42.4495C45.2789 42.9831 45.5789 43.7065 45.5794 44.4611V46.4487C45.5794 46.5176 45.5659 46.5858 45.5395 46.6494C45.5131 46.713 45.4744 46.7708 45.4257 46.8194C45.3769 46.8681 45.319 46.9066 45.2554 46.9329C45.1917 46.9591 45.1235 46.9726 45.0546 46.9724L45.0557 46.9735Z" fill="#F94E32"/>
<path d="M41.7947 38.6334C41.4994 38.6332 41.2107 38.7206 40.9651 38.8845C40.7194 39.0484 40.5279 39.2815 40.4148 39.5543C40.3017 39.8271 40.2721 40.1273 40.3296 40.417C40.3872 40.7066 40.5294 40.9727 40.7382 41.1815C40.947 41.3903 41.213 41.5325 41.5027 41.59C41.7923 41.6476 42.0925 41.6179 42.3653 41.5048C42.6381 41.3917 42.8712 41.2002 43.0352 40.9546C43.1991 40.709 43.2865 40.4202 43.2862 40.1249C43.2862 39.3022 42.6174 38.6334 41.7947 38.6334ZM41.7947 42.6639C41.1216 42.6631 40.4763 42.3953 40.0003 41.9193C39.5244 41.4433 39.2566 40.798 39.2557 40.1249C39.2563 39.4517 39.524 38.8062 40 38.3302C40.476 37.8542 41.1215 37.5865 41.7947 37.5859C42.4681 37.5862 43.1139 37.8538 43.5902 38.3298C44.0664 38.8059 44.3343 39.4515 44.3349 40.1249C44.334 40.7982 44.066 41.4437 43.5898 41.9197C43.1136 42.3957 42.468 42.6634 41.7947 42.6639Z" fill="#F94E32"/>
<path d="M38.1473 38.1462C37.6669 38.6241 37.2861 39.1926 37.0268 39.8186C36.7676 40.4447 36.6351 41.116 36.637 41.7936C36.6352 42.4712 36.7678 43.1425 37.027 43.7685C37.2862 44.3946 37.667 44.9631 38.1473 45.441C39.1217 46.4155 40.4173 46.9525 41.7947 46.9525C43.1722 46.9525 44.4677 46.4155 45.4422 45.441C45.9228 44.9632 46.3038 44.3948 46.5633 43.7687C46.8227 43.1427 46.9554 42.4713 46.9536 41.7936C46.9554 41.1159 46.8228 40.4446 46.5633 39.8185C46.3039 39.1924 45.9228 38.624 45.4422 38.1462C44.4742 37.1801 43.1624 36.6375 41.7947 36.6375C40.4271 36.6375 39.1153 37.1801 38.1473 38.1462ZM41.7947 48.0011C40.9794 48.003 40.1719 47.8433 39.4187 47.5312C38.6655 47.2192 37.9816 46.7609 37.4065 46.1829C36.8284 45.6078 36.3699 44.9238 36.0579 44.1704C35.7458 43.417 35.5862 42.6091 35.5884 41.7936C35.5884 40.136 36.2339 38.5769 37.4065 37.4054C38.5712 36.2427 40.1496 35.5897 41.7953 35.5897C43.441 35.5897 45.0194 36.2427 46.184 37.4054C46.7621 37.9803 47.2204 38.6642 47.5323 39.4175C47.8442 40.1707 48.0035 40.9784 48.0011 41.7936C48.0034 42.609 47.844 43.4168 47.5321 44.1702C47.2202 44.9237 46.762 45.6077 46.184 46.1829C45.6089 46.7609 44.9248 47.2191 44.1714 47.531C43.4179 47.8429 42.6102 48.0034 41.7947 48.0011ZM45.0557 11.383C44.9868 11.3831 44.9186 11.3697 44.8549 11.3434C44.7913 11.3172 44.7334 11.2786 44.6847 11.2299C44.6359 11.1813 44.5972 11.1235 44.5708 11.0599C44.5444 10.9963 44.5309 10.9281 44.5309 10.8592V8.86941C44.5309 7.87949 43.7248 7.07338 42.7337 7.07338H40.8558C39.8658 7.07338 39.0597 7.87949 39.0597 8.86941V10.8581C39.0597 10.9972 39.0045 11.1305 38.9062 11.2288C38.8078 11.3272 38.6745 11.3824 38.5354 11.3824C38.3964 11.3824 38.263 11.3272 38.1647 11.2288C38.0664 11.1305 38.0111 10.9972 38.0111 10.8581V8.86941C38.012 8.11514 38.3122 7.39206 38.8457 6.85892C39.3793 6.32578 40.1026 6.02617 40.8569 6.02588H42.7337C43.488 6.02617 44.2113 6.32578 44.7449 6.85892C45.2784 7.39206 45.5786 8.11514 45.5795 8.86941V10.8581C45.5795 10.927 45.5659 10.9952 45.5395 11.0588C45.5131 11.1224 45.4744 11.1802 45.4257 11.2288C45.3769 11.2775 45.3191 11.316 45.2554 11.3423C45.1917 11.3686 45.1235 11.382 45.0546 11.3819L45.0557 11.383Z" fill="#F94E32"/>
<path d="M41.7947 3.04507C41.4115 3.06316 41.0499 3.22815 40.7851 3.50577C40.5202 3.7834 40.3725 4.15235 40.3725 4.53603C40.3725 4.91972 40.5202 5.28866 40.7851 5.56629C41.0499 5.84392 41.4115 6.00891 41.7947 6.027C42.1804 6.01214 42.5452 5.8485 42.8128 5.57041C43.0804 5.29232 43.2299 4.9214 43.2299 4.53548C43.2299 4.14956 43.0804 3.77864 42.8128 3.50055C42.5452 3.22247 42.1804 3.05993 41.7947 3.04507ZM41.7947 7.0745C41.1215 7.07392 40.476 6.80622 40 6.33019C39.524 5.85416 39.2563 5.20869 39.2557 4.53548C39.2566 3.86236 39.5244 3.21706 40.0003 2.74109C40.4763 2.26512 41.1216 1.99734 41.7947 1.99646C42.468 1.99705 43.1136 2.2647 43.5898 2.7407C44.066 3.2167 44.334 3.86217 44.3349 4.53548C44.3343 5.20888 44.0664 5.85452 43.5902 6.33058C43.1139 6.80665 42.4681 7.07421 41.7947 7.0745Z" fill="#F94E32"/>
<path d="M38.1473 2.55673C37.1729 3.53115 36.637 4.82668 36.637 6.20415C36.637 7.58162 37.1729 8.87715 38.1473 9.85157C39.1217 10.826 40.4173 11.3619 41.7947 11.3619C43.1722 11.3619 44.4677 10.826 45.4422 9.85157C45.9228 9.37379 46.3039 8.80539 46.5633 8.1793C46.8228 7.55321 46.9554 6.88187 46.9536 6.20415C46.9554 5.52643 46.8228 4.85509 46.5633 4.229C46.3039 3.60291 45.9228 3.03451 45.4422 2.55673C44.4741 1.59061 43.1624 1.04802 41.7947 1.04802C40.4271 1.04802 39.1153 1.59061 38.1473 2.55673ZM41.7947 12.4105C40.9794 12.4127 40.1717 12.2531 39.4185 11.941C38.6653 11.6289 37.9814 11.1705 37.4065 10.5923C36.8285 10.0174 36.3701 9.33352 36.0581 8.5803C35.746 7.82708 35.5863 7.01946 35.5884 6.20415C35.5884 4.54543 36.2339 2.98747 37.4065 1.81484C38.5712 0.652166 40.1496 -0.000854492 41.7953 -0.000854492C43.441 -0.000854492 45.0194 0.652166 46.184 1.81484C46.7621 2.38995 47.2204 3.07403 47.5323 3.82746C47.8442 4.58089 48.0035 5.38871 48.0011 6.20415C48.0033 7.01938 47.8438 7.82696 47.5319 8.58017C47.22 9.33339 46.7619 10.0173 46.184 10.5923C45.6091 11.1707 44.925 11.6292 44.1716 11.9413C43.4181 12.2534 42.6103 12.4129 41.7947 12.4105ZM9.46513 46.9735C9.39626 46.9735 9.32806 46.9599 9.26444 46.9336C9.20083 46.9072 9.14304 46.8685 9.09439 46.8197C9.04574 46.771 9.00719 46.7131 8.98093 46.6494C8.95468 46.5858 8.94124 46.5176 8.94138 46.4487V44.4611C8.94138 43.4712 8.13527 42.664 7.14425 42.664H5.26628C4.27525 42.664 3.46914 43.4712 3.46914 44.4611V46.4487C3.46914 46.5876 3.41396 46.7208 3.31574 46.819C3.21752 46.9172 3.0843 46.9724 2.9454 46.9724C2.80649 46.9724 2.67327 46.9172 2.57505 46.819C2.47683 46.7208 2.42165 46.5876 2.42165 46.4487V44.4611C2.42223 43.7067 2.72209 42.9834 3.2554 42.4499C3.78871 41.9164 4.51191 41.6162 5.26628 41.6153H7.14425C7.8988 41.6159 8.62229 41.9159 9.15584 42.4495C9.68939 42.983 9.9894 43.7065 9.98999 44.4611V46.4487C9.98999 46.5176 9.9764 46.5858 9.95001 46.6494C9.92362 46.713 9.88494 46.7708 9.83619 46.8194C9.78744 46.8681 9.72957 46.9066 9.6659 46.9329C9.60223 46.9591 9.534 46.9737 9.46513 46.9735Z" fill="#F94E32"/>
<path d="M6.20527 38.6334C5.90996 38.6332 5.62122 38.7206 5.37559 38.8845C5.12996 39.0484 4.93847 39.2815 4.82536 39.5543C4.71225 39.8271 4.6826 40.1273 4.74016 40.417C4.79771 40.7066 4.93989 40.9727 5.14871 41.1815C5.35752 41.3903 5.62359 41.5325 5.91323 41.59C6.20288 41.6476 6.50309 41.6179 6.77587 41.5048C7.04866 41.3917 7.28177 41.2002 7.4457 40.9546C7.60962 40.709 7.69701 40.4202 7.69679 40.1249C7.69679 39.3022 7.02798 38.6334 6.20527 38.6334ZM6.20527 42.6639C5.53214 42.6631 4.88685 42.3953 4.41088 41.9193C3.93491 41.4433 3.66712 40.798 3.66624 40.1249C3.66683 39.4517 3.93452 38.8062 4.41055 38.3302C4.88659 37.8542 5.53206 37.5865 6.20527 37.5859C6.87848 37.5865 7.52394 37.8542 7.99998 38.3302C8.47601 38.8062 8.7437 39.4517 8.74429 40.1249C8.74341 40.798 8.47562 41.4433 7.99965 41.9193C7.52368 42.3953 6.87839 42.6631 6.20527 42.6639Z" fill="#F94E32"/>
<path d="M2.55784 38.1462C2.07719 38.624 1.69611 39.1924 1.43667 39.8185C1.17722 40.4446 1.04457 41.1159 1.04639 41.7936C1.04639 43.1711 1.58343 44.4666 2.55784 45.441C3.03574 45.9215 3.60416 46.3025 4.23022 46.562C4.85629 46.8214 5.52758 46.9541 6.20526 46.9525C6.88295 46.9541 7.55424 46.8214 8.18031 46.562C8.80637 46.3025 9.37479 45.9215 9.85268 45.441C10.8185 44.4729 11.3609 43.1612 11.3609 41.7936C11.3609 40.4261 10.8185 39.1144 9.85268 38.1462C8.88467 37.1801 7.5729 36.6375 6.20526 36.6375C4.83763 36.6375 3.52586 37.1801 2.55784 38.1462ZM6.20526 48.0011C5.38997 48.003 4.58239 47.8433 3.82918 47.5312C3.07598 47.2192 2.3921 46.7609 1.81707 46.1829C1.23887 45.6078 0.780469 44.9238 0.468382 44.1704C0.156295 43.417 -0.00327985 42.6091 -0.00110726 41.7936C-0.00110726 40.136 0.644444 38.5769 1.81707 37.4054C2.98167 36.2431 4.55986 35.5903 6.20526 35.5903C7.85067 35.5903 9.42885 36.2431 10.5935 37.4054C11.7559 38.5702 12.4087 40.1486 12.4087 41.7942C12.4087 43.4398 11.7559 45.0181 10.5935 46.1829C10.0184 46.7607 9.33446 47.2188 8.58125 47.5307C7.82804 47.8426 7.02049 48.0032 6.20526 48.0011ZM9.46513 11.383C9.39635 11.383 9.32825 11.3694 9.2647 11.3431C9.20116 11.3168 9.14342 11.2782 9.09478 11.2296C9.04615 11.1809 9.00757 11.1232 8.98125 11.0596C8.95493 10.9961 8.94138 10.928 8.94138 10.8592V8.86941C8.94138 7.87949 8.13527 7.07338 7.14425 7.07338H5.26628C4.27525 7.07338 3.46915 7.87949 3.46915 8.86941V10.8581C3.46915 10.9269 3.4556 10.995 3.42928 11.0585C3.40296 11.1221 3.36438 11.1798 3.31574 11.2284C3.26711 11.2771 3.20937 11.3157 3.14583 11.342C3.08228 11.3683 3.01418 11.3819 2.9454 11.3819C2.87662 11.3819 2.80851 11.3683 2.74497 11.342C2.68142 11.3157 2.62368 11.2771 2.57505 11.2284C2.52642 11.1798 2.48784 11.1221 2.46152 11.0585C2.43519 10.995 2.42165 10.9269 2.42165 10.8581V8.86941C2.42253 8.11533 2.72255 7.39241 3.25586 6.85931C3.78917 6.3262 4.51221 6.02646 5.26628 6.02588H7.14425C7.89851 6.02617 8.62183 6.32578 9.15538 6.85892C9.68894 7.39206 9.98911 8.11514 9.98999 8.86941V10.8581C9.98999 10.927 9.9764 10.9952 9.95001 11.0588C9.92362 11.1224 9.88495 11.1802 9.83619 11.2288C9.78744 11.2775 9.72957 11.316 9.6659 11.3423C9.60223 11.3686 9.534 11.3831 9.46513 11.383Z" fill="#F94E32"/>
<path d="M6.20527 3.04507C5.82201 3.06316 5.46044 3.22815 5.19561 3.50577C4.93078 3.7834 4.78303 4.15235 4.78303 4.53603C4.78303 4.91972 4.93078 5.28866 5.19561 5.56629C5.46044 5.84392 5.82201 6.00891 6.20527 6.027C6.5909 6.01214 6.95578 5.8485 7.22336 5.57041C7.49094 5.29232 7.64041 4.9214 7.64041 4.53548C7.64041 4.14956 7.49094 3.77864 7.22336 3.50055C6.95578 3.22247 6.5909 3.05993 6.20527 3.04507ZM6.20527 7.0745C5.53206 7.07392 4.88659 6.80622 4.41055 6.33019C3.93452 5.85416 3.66683 5.20869 3.66624 4.53548C3.66624 3.13476 4.80454 1.99646 6.20527 1.99646C7.60599 1.99646 8.74429 3.13476 8.74429 4.53548C8.74399 5.20888 8.47643 5.85464 8.00037 6.33091C7.5243 6.80718 6.87867 7.07391 6.20527 7.0745Z" fill="#F94E32"/>
<path d="M2.55794 2.55676C1.58353 3.53117 1.04649 4.82671 1.04649 6.20418C1.04649 7.58165 1.58353 8.87718 2.55794 9.8516C3.53236 10.826 4.82789 11.3619 6.20536 11.3619C6.88301 11.364 7.55433 11.2315 8.18042 10.9723C8.80652 10.713 9.37495 10.3321 9.85279 9.8516C10.8186 8.88344 11.361 7.57172 11.361 6.20418C11.361 4.83663 10.8186 3.52491 9.85279 2.55676C8.88477 1.59064 7.573 1.04804 6.20536 1.04804C4.83773 1.04804 3.52596 1.59064 2.55794 2.55676ZM6.20536 12.4105C4.54775 12.4105 2.98868 11.765 1.81717 10.5924C0.645652 9.41975 -0.00100708 7.86179 -0.00100708 6.20418C-0.00100708 4.54545 0.644544 2.98749 1.81717 1.81487C2.98178 0.652531 4.55996 -0.000274658 6.20536 -0.000274658C7.85077 -0.000274658 9.42896 0.652531 10.5936 1.81487C11.756 2.97967 12.4088 4.55804 12.4088 6.20362C12.4088 7.84921 11.756 9.42758 10.5936 10.5924C10.0187 11.1706 9.33487 11.629 8.58162 11.9411C7.82838 12.2532 7.0207 12.4128 6.20536 12.4105ZM14.3894 14.9119C14.3203 14.912 14.252 14.8983 14.1883 14.8717C14.1246 14.8451 14.0669 14.806 14.0184 14.7569L10.8682 11.6078C10.7749 11.5084 10.7239 11.3766 10.7261 11.2403C10.7283 11.104 10.7834 10.9739 10.8798 10.8775C10.9761 10.7811 11.1063 10.726 11.2426 10.7238C11.3789 10.7216 11.5107 10.7726 11.6101 10.8659L14.7592 14.0161C14.8325 14.0895 14.8825 14.183 14.9027 14.2848C14.9229 14.3865 14.9125 14.492 14.8728 14.5879C14.8331 14.6837 14.7659 14.7657 14.6797 14.8233C14.5934 14.881 14.4931 14.9118 14.3894 14.9119Z" fill="#F94E32"/>
<path d="M11.1117 13.6728L11.0762 13.6717C11.0076 13.6671 10.9406 13.649 10.8789 13.6184C10.8173 13.5878 10.7623 13.5454 10.717 13.4936C10.6718 13.4418 10.6372 13.3816 10.6152 13.3164C10.5933 13.2512 10.5844 13.1823 10.589 13.1136L10.7164 11.2025C10.7249 11.0761 10.779 10.957 10.8686 10.8675C10.9582 10.7779 11.0772 10.7238 11.2036 10.7153L13.1148 10.5868C13.25 10.5837 13.3812 10.6329 13.481 10.7242C13.5808 10.8154 13.6415 10.9417 13.6505 11.0766C13.6595 11.2116 13.6161 11.3448 13.5292 11.4484C13.4424 11.5521 13.3189 11.6183 13.1845 11.6332L11.7318 11.7306L11.6343 13.1834C11.6256 13.3161 11.5668 13.4405 11.4697 13.5314C11.3726 13.6223 11.2446 13.6728 11.1117 13.6728ZM33.6119 14.9119C33.5081 14.9121 33.4066 14.8815 33.3202 14.824C33.2339 14.7665 33.1666 14.6846 33.1268 14.5887C33.0871 14.4929 33.0767 14.3874 33.097 14.2856C33.1173 14.1839 33.1674 14.0905 33.2409 14.0172L36.39 10.867C36.4894 10.7737 36.6212 10.7227 36.7575 10.7249C36.8938 10.727 37.024 10.7821 37.1203 10.8785C37.2167 10.9749 37.2719 11.105 37.274 11.2413C37.2762 11.3776 37.2252 11.5094 37.1319 11.6088L33.9817 14.758C33.9333 14.8068 33.8757 14.8455 33.8122 14.8719C33.7487 14.8984 33.6806 14.9119 33.6119 14.9119Z" fill="#F94E32"/>
<path d="M36.8883 13.6728C36.7553 13.6729 36.6274 13.6223 36.5303 13.5314C36.4332 13.4405 36.3744 13.3161 36.3657 13.1834L36.2682 11.7307L34.8155 11.6332C34.6767 11.624 34.5473 11.56 34.4557 11.4553C34.3642 11.3507 34.3179 11.2139 34.3272 11.0751C34.3364 10.9364 34.4004 10.807 34.5051 10.7154C34.6097 10.6238 34.7465 10.5776 34.8852 10.5868L36.7964 10.7153C36.9228 10.7238 37.0418 10.7779 37.1314 10.8675C37.221 10.9571 37.2751 11.0761 37.2836 11.2025L37.411 13.1137C37.4158 13.1853 37.4059 13.2571 37.3818 13.3247C37.3578 13.3923 37.3201 13.4543 37.271 13.5067C37.222 13.5592 37.1628 13.601 37.0969 13.6295C37.0311 13.6581 36.9601 13.6729 36.8883 13.6728ZM36.7621 37.2836C36.693 37.2839 36.6245 37.2705 36.5606 37.244C36.4967 37.2176 36.4388 37.1788 36.39 37.1297L33.2409 33.9806C33.1922 33.9319 33.1535 33.874 33.1272 33.8104C33.1008 33.7467 33.0872 33.6785 33.0872 33.6096C33.0872 33.5408 33.1008 33.4725 33.1272 33.4089C33.1535 33.3452 33.1922 33.2874 33.2409 33.2387C33.2896 33.19 33.3474 33.1513 33.4111 33.125C33.4747 33.0986 33.543 33.085 33.6118 33.085C33.6807 33.085 33.7489 33.0986 33.8126 33.125C33.8762 33.1513 33.9341 33.19 33.9828 33.2387L37.1319 36.3889C37.2054 36.4622 37.2555 36.5556 37.2758 36.6574C37.2961 36.7591 37.2857 36.8646 37.246 36.9605C37.2062 37.0563 37.1389 37.1382 37.0526 37.1958C36.9662 37.2533 36.8658 37.2839 36.7621 37.2836Z" fill="#F94E32"/>
<path d="M34.8498 37.411C34.781 37.4132 34.7125 37.4018 34.6481 37.3775C34.5837 37.3532 34.5248 37.3164 34.4746 37.2693C34.4244 37.2222 34.384 37.1657 34.3557 37.103C34.3273 37.0403 34.3116 36.9726 34.3094 36.9038C34.3073 36.8351 34.3186 36.7665 34.3429 36.7021C34.3673 36.6378 34.404 36.5788 34.4511 36.5286C34.4982 36.4784 34.5547 36.438 34.6174 36.4097C34.6801 36.3814 34.7478 36.3657 34.8166 36.3635L36.2682 36.2671L36.3657 34.8144C36.3748 34.6758 36.4386 34.5464 36.543 34.4549C36.6475 34.3633 36.784 34.317 36.9226 34.3261C37.0613 34.3352 37.1906 34.399 37.2822 34.5034C37.3737 34.6079 37.4201 34.7444 37.411 34.883L37.2836 36.7953C37.2751 36.9217 37.221 37.0407 37.1314 37.1303C37.0418 37.2199 36.9228 37.274 36.7964 37.2825L34.8852 37.4099L34.8498 37.411ZM11.239 37.2836C11.1352 37.2839 11.0338 37.2533 10.9474 37.1958C10.8611 37.1382 10.7937 37.0563 10.754 36.9605C10.7143 36.8646 10.7039 36.7591 10.7242 36.6574C10.7445 36.5556 10.7946 36.4622 10.8681 36.3889L14.0183 33.2387C14.1177 33.1454 14.2495 33.0945 14.3858 33.0966C14.5221 33.0988 14.6522 33.1539 14.7486 33.2503C14.845 33.3467 14.9001 33.4768 14.9023 33.6131C14.9044 33.7494 14.8535 33.8812 14.7602 33.9806L11.61 37.1297C11.5615 37.1789 11.5037 37.2179 11.4401 37.2445C11.3764 37.2711 11.308 37.2837 11.239 37.2836Z" fill="#F94E32"/>
<path d="M13.1502 37.411L13.1148 37.4099L11.2036 37.2825C11.0772 37.274 10.9582 37.2199 10.8686 37.1303C10.779 37.0407 10.7249 36.9217 10.7164 36.7953L10.589 34.883C10.5799 34.7444 10.6263 34.6079 10.7178 34.5034C10.8094 34.399 10.9387 34.3352 11.0773 34.3261C11.216 34.317 11.3525 34.3633 11.457 34.4549C11.5614 34.5465 11.6252 34.6758 11.6343 34.8144L11.7318 36.2672L13.1845 36.3635C13.3181 36.3754 13.4421 36.438 13.5309 36.5384C13.6198 36.6388 13.6669 36.7694 13.6625 36.9035C13.6581 37.0375 13.6026 37.1648 13.5073 37.2591C13.4121 37.3535 13.2843 37.4079 13.1502 37.411ZM28.1031 30.3819C28.0342 30.382 27.966 30.3686 27.9023 30.3423C27.8386 30.3161 27.7808 30.2775 27.732 30.2289C27.6833 30.1802 27.6446 30.1224 27.6182 30.0588C27.5918 29.9952 27.5782 29.927 27.5782 29.8581V27.3557C27.5776 26.7203 27.325 26.1112 26.8757 25.662C26.4265 25.2127 25.8174 24.9601 25.182 24.9595H22.818C21.497 24.9595 20.4218 26.0336 20.4218 27.3557V29.8581C20.4218 29.9972 20.3665 30.1306 20.2682 30.2289C20.1699 30.3272 20.0365 30.3824 19.8975 30.3824C19.7584 30.3824 19.6251 30.3272 19.5267 30.2289C19.4284 30.1306 19.3732 29.9972 19.3732 29.8581V27.3557C19.3744 26.4425 19.7377 25.5671 20.3835 24.9215C21.0293 24.2759 21.9048 23.9129 22.818 23.912H25.182C26.095 23.9132 26.9702 24.2764 27.6158 24.9219C28.2614 25.5675 28.6245 26.4427 28.6257 27.3557V29.8581C28.6257 29.9969 28.5707 30.1299 28.4727 30.2281C28.3747 30.3263 28.2418 30.3816 28.1031 30.3819Z" fill="#F94E32"/>
<path d="M24.0006 19.887C23.467 19.8875 22.9555 20.0997 22.5781 20.4768C22.2008 20.854 21.9884 21.3654 21.9875 21.8989C21.9881 22.4326 22.2004 22.9443 22.5778 23.3217C22.9552 23.6991 23.4668 23.9114 24.0006 23.912C24.5341 23.9111 25.0455 23.6987 25.4226 23.3213C25.7998 22.9439 26.0119 22.4324 26.0125 21.8989C26.0119 21.3654 25.7998 20.8539 25.4226 20.4765C25.0455 20.0991 24.5341 19.8878 24.0006 19.887ZM24.0006 24.9595C23.1891 24.9586 22.4112 24.6358 21.8374 24.0621C21.2636 23.4883 20.9409 22.7103 20.94 21.8989C20.9409 21.0875 21.2636 20.3095 21.8374 19.7357C22.4112 19.162 23.1891 18.8392 24.0006 18.8383C24.8118 18.8395 25.5895 19.1624 26.163 19.7361C26.7365 20.3099 27.0591 21.0877 27.06 21.8989C27.0591 22.7102 26.7365 23.4879 26.163 24.0617C25.5895 24.6354 24.8118 24.9583 24.0006 24.9595Z" fill="#F94E32"/>
<path d="M24.0006 17.3734C23.1301 17.3716 22.2679 17.5419 21.4636 17.8745C20.6592 18.207 19.9284 18.6953 19.3134 19.3112C18.0721 20.5552 17.3749 22.2409 17.3749 23.9983C17.3749 25.7558 18.0721 27.4414 19.3134 28.6855C21.8978 31.2699 26.1022 31.2699 28.6866 28.6855C31.271 26.1011 31.271 21.8967 28.6866 19.3123C28.0717 18.6965 27.3411 18.2083 26.537 17.8758C25.7328 17.5432 24.8708 17.3729 24.0006 17.3745V17.3734ZM24.0006 31.6708C22.9926 31.6726 21.9941 31.4753 21.0626 31.0901C20.1311 30.7049 19.2849 30.1395 18.5726 29.4263C17.1354 27.9857 16.3283 26.0338 16.3283 23.9989C16.3283 21.964 17.1354 20.0121 18.5726 18.5715C20.0132 17.1343 21.9651 16.3272 24 16.3272C26.0349 16.3272 27.9868 17.1343 29.4274 18.5715C30.8646 20.0121 31.6717 21.964 31.6717 23.9989C31.6717 26.0338 30.8646 27.9857 29.4274 29.4263C28.7153 30.1394 27.8692 30.7048 26.9379 31.09C26.0066 31.4752 25.0084 31.6726 24.0006 31.6708Z" fill="#F94E32"/>
<path d="M22.6629 36.0324H25.337V33.9684C25.337 33.7159 25.5175 33.4989 25.7656 33.4535C26.2517 33.3638 26.7345 33.2343 27.1995 33.0704C27.3148 33.0295 27.4408 33.0304 27.5556 33.0729C27.6703 33.1154 27.7665 33.1968 27.8274 33.3029L28.8593 35.0901L31.1747 33.7525L30.1416 31.9631C30.0803 31.857 30.0581 31.7329 30.0787 31.6122C30.0993 31.4914 30.1615 31.3817 30.2545 31.302C30.631 30.9809 30.9831 30.6277 31.3042 30.2534C31.3838 30.1605 31.4933 30.0984 31.6138 30.0777C31.7344 30.0571 31.8583 30.0793 31.9642 30.1405L33.7547 31.1736L35.0912 28.8582L33.304 27.8262C33.198 27.765 33.1167 27.6686 33.0742 27.5537C33.0318 27.4389 33.0308 27.3128 33.0715 27.1973C33.2354 26.7322 33.3649 26.2495 33.4546 25.7645C33.4767 25.6437 33.5404 25.5346 33.6347 25.4561C33.729 25.3776 33.8479 25.3347 33.9706 25.3348H36.0346V22.6618H33.9717C33.8492 22.6621 33.7304 22.6193 33.6361 22.541C33.5418 22.4627 33.478 22.3538 33.4557 22.2333C33.3653 21.7461 33.2373 21.2667 33.0726 20.7994C33.032 20.684 33.033 20.5581 33.0754 20.4434C33.1179 20.3288 33.1992 20.2326 33.3051 20.1715L35.0923 19.1384L33.7547 16.8231L31.9653 17.8573C31.8593 17.9183 31.7353 17.9404 31.6147 17.9195C31.4942 17.8987 31.3847 17.8363 31.3054 17.7432C30.9826 17.3676 30.6316 17.017 30.2556 16.6946C30.1627 16.6151 30.1006 16.5056 30.0799 16.3851C30.0593 16.2645 30.0815 16.1406 30.1427 16.0347L31.1769 14.2442L28.8605 12.9077L27.8285 14.6949C27.7673 14.8007 27.671 14.8818 27.5564 14.9242C27.4418 14.9667 27.316 14.9678 27.2006 14.9274C26.7333 14.7625 26.2539 14.6341 25.7667 14.5432C25.6464 14.5209 25.5376 14.4572 25.4593 14.3632C25.3811 14.2691 25.3382 14.1506 25.3382 14.0283V11.9643H22.664V14.0283C22.664 14.1506 22.6211 14.2691 22.5429 14.3632C22.4646 14.4572 22.3559 14.5209 22.2355 14.5432C21.7484 14.6341 21.2689 14.7625 20.8016 14.9274C20.6862 14.968 20.5603 14.967 20.4457 14.9245C20.331 14.8821 20.2348 14.8008 20.1737 14.6949L19.1418 12.9077L16.8264 14.2442L17.8595 16.0347C17.9207 16.1406 17.9429 16.2645 17.9223 16.3851C17.9016 16.5056 17.8395 16.6151 17.7466 16.6946C17.3712 17.0158 17.018 17.369 16.6969 17.7432C16.6174 17.8361 16.5079 17.8984 16.3874 17.9192C16.2669 17.94 16.143 17.9181 16.0369 17.8573L14.2475 16.8231L12.9099 19.1384L14.6982 20.1715C14.8041 20.2326 14.8854 20.3288 14.9279 20.4434C14.9703 20.5581 14.9713 20.684 14.9307 20.7994C14.7658 21.2667 14.6373 21.7461 14.5465 22.2333C14.5242 22.3536 14.4606 22.4624 14.3665 22.5407C14.2725 22.6189 14.154 22.6618 14.0316 22.6618H11.9665V25.3348H14.0316C14.2841 25.3348 14.5 25.5153 14.5465 25.7645C14.6362 26.2495 14.7657 26.7322 14.9296 27.1973C14.9703 27.3128 14.9693 27.4389 14.9269 27.5537C14.8844 27.6686 14.8031 27.765 14.6971 27.8262L12.9099 28.8582L14.2475 31.1736L16.0369 30.1405C16.1428 30.0793 16.2667 30.0571 16.3873 30.0777C16.5078 30.0984 16.6173 30.1605 16.6969 30.2534C17.018 30.6277 17.3712 30.982 17.7466 31.302C17.9381 31.4681 17.9857 31.7449 17.8595 31.9631L16.8264 33.7525L19.1418 35.0901L20.1737 33.3029C20.2346 33.1968 20.3308 33.1154 20.4455 33.0729C20.5603 33.0304 20.6863 33.0295 20.8016 33.0704C21.2666 33.2332 21.7494 33.3638 22.2355 33.4535C22.3559 33.4757 22.4646 33.5394 22.5429 33.6335C22.6211 33.7275 22.664 33.846 22.664 33.9684L22.6629 36.0324ZM25.8608 37.081H22.1392C22.0003 37.081 21.8671 37.0258 21.7688 36.9276C21.6706 36.8294 21.6154 36.6961 21.6154 36.5572V34.3958C21.3637 34.3382 21.114 34.2717 20.8669 34.1965L19.7862 36.0678C19.7167 36.1881 19.6023 36.2758 19.4682 36.3117C19.3341 36.3476 19.1912 36.3288 19.0709 36.2594L15.8476 34.3991C15.7273 34.3294 15.6395 34.2149 15.6034 34.0807C15.5673 33.9464 15.5858 33.8034 15.6549 33.6827L16.7378 31.8081C16.549 31.6324 16.3665 31.4499 16.1908 31.2611L14.3162 32.344C14.1956 32.4127 14.0528 32.431 13.9188 32.395C13.7849 32.3589 13.6706 32.2713 13.6009 32.1513L11.7395 28.928C11.6701 28.8077 11.6513 28.6648 11.6872 28.5307C11.7231 28.3965 11.8108 28.2822 11.9311 28.2127L13.8035 27.132C13.7279 26.885 13.6615 26.6353 13.6042 26.3834H11.4416C11.3027 26.3834 11.1695 26.3283 11.0713 26.23C10.9731 26.1318 10.9179 25.9986 10.9179 25.8597V22.1381C10.9179 21.848 11.1515 21.6132 11.4416 21.6132H13.6031C13.6609 21.3618 13.7277 21.1125 13.8035 20.8658L11.9322 19.7851C11.8119 19.7154 11.7241 19.6009 11.688 19.4666C11.6519 19.3324 11.6704 19.1893 11.7395 19.0687L13.5998 15.8465C13.6341 15.7867 13.6798 15.7343 13.7344 15.6922C13.789 15.6502 13.8514 15.6193 13.918 15.6014C13.9845 15.5835 14.054 15.5789 14.1223 15.5879C14.1906 15.5969 14.2565 15.6193 14.3162 15.6538L16.1908 16.7356C16.3669 16.5474 16.5496 16.3658 16.7378 16.1897L15.6549 14.3151C15.5864 14.1945 15.5683 14.0518 15.6044 13.9179C15.6404 13.784 15.7278 13.6697 15.8476 13.5998L19.0698 11.7384C19.1294 11.7039 19.1952 11.6814 19.2635 11.6723C19.3318 11.6633 19.4012 11.6678 19.4677 11.6856C19.5343 11.7033 19.5967 11.7341 19.6513 11.776C19.706 11.818 19.7518 11.8703 19.7862 11.93L20.8669 13.8013C21.1138 13.7271 21.3641 13.6596 21.6154 13.602V11.4394C21.6154 11.1515 21.8502 10.9157 22.1392 10.9157H25.8608C26.1509 10.9157 26.3845 11.1504 26.3845 11.4394V13.6031C26.6359 13.6584 26.8862 13.7271 27.1331 13.8024L28.2138 11.93C28.2482 11.8703 28.294 11.818 28.3487 11.776C28.4033 11.7341 28.4657 11.7033 28.5323 11.6856C28.5988 11.6678 28.6682 11.6633 28.7365 11.6723C28.8048 11.6814 28.8706 11.7039 28.9302 11.7384L32.1524 13.5986C32.2125 13.6326 32.2653 13.6782 32.3076 13.7328C32.3499 13.7874 32.3809 13.8498 32.3988 13.9165C32.4168 13.9832 32.4212 14.0528 32.412 14.1212C32.4028 14.1896 32.38 14.2555 32.3451 14.3151L31.2622 16.1897C31.4504 16.3658 31.6331 16.5485 31.8092 16.7356L33.6838 15.6538C33.7435 15.6193 33.8094 15.5969 33.8777 15.5879C33.946 15.5789 34.0155 15.5835 34.082 15.6014C34.1486 15.6193 34.2109 15.6502 34.2656 15.6922C34.3202 15.7343 34.3659 15.7867 34.4002 15.8465L36.2605 19.0687C36.295 19.1283 36.3175 19.1941 36.3265 19.2624C36.3356 19.3307 36.3311 19.4001 36.3133 19.4666C36.2955 19.5332 36.2648 19.5956 36.2229 19.6502C36.1809 19.7049 36.1286 19.7507 36.0689 19.7851L34.1976 20.8658C34.2718 21.1127 34.3393 21.363 34.3969 21.6132H36.5583C36.8485 21.6132 37.0832 21.848 37.0832 22.1381V25.8586C37.0834 25.9276 37.0699 25.9959 37.0435 26.0596C37.0172 26.1234 36.9786 26.1813 36.9298 26.23C36.881 26.2788 36.8231 26.3175 36.7594 26.3438C36.6956 26.3701 36.6273 26.3836 36.5583 26.3834H34.3969C34.3397 26.6353 34.2732 26.885 34.1976 27.132L36.0689 28.2127C36.3192 28.3566 36.4055 28.6778 36.2605 28.928L34.4002 32.1524C34.3303 32.2725 34.2158 32.3601 34.0815 32.396C33.9473 32.4319 33.8043 32.4132 33.6838 32.344L31.8092 31.2611C31.6331 31.4493 31.4515 31.632 31.2622 31.8081L32.3451 33.6827C32.3797 33.7423 32.4021 33.8081 32.4112 33.8764C32.4202 33.9447 32.4157 34.0141 32.3979 34.0807C32.3802 34.1472 32.3494 34.2096 32.3075 34.2642C32.2655 34.3189 32.2132 34.3647 32.1535 34.3991L28.9302 36.2594C28.8706 36.2939 28.8048 36.3164 28.7365 36.3254C28.6682 36.3345 28.5988 36.33 28.5323 36.3122C28.4657 36.2944 28.4033 36.2637 28.3487 36.2217C28.294 36.1798 28.2482 36.1275 28.2138 36.0678L27.1331 34.1965C26.886 34.2717 26.6363 34.3382 26.3845 34.3958V36.5572C26.3845 36.6961 26.3294 36.8294 26.2311 36.9276C26.1329 37.0258 25.9997 37.081 25.8608 37.081Z" fill="#F94E32"/>
</svg>
