<svg width="48" height="48" viewBox="0 0 48 48" fill="none" xmlns="http://www.w3.org/2000/svg">
<g clip-path="url(#clip0_3_76)">
<path d="M12.75 8.25C12.75 5.76825 10.7318 3.75 8.25 3.75C5.76825 3.75 3.75 5.76825 3.75 8.25C3.75 10.7318 5.76825 12.75 8.25 12.75C10.7318 12.75 12.75 10.7318 12.75 8.25ZM5.25 8.25C5.25 6.5955 6.5955 5.25 8.25 5.25C9.9045 5.25 11.25 6.5955 11.25 8.25C11.25 9.9045 9.9045 11.25 8.25 11.25C6.5955 11.25 5.25 9.9045 5.25 8.25ZM41.154 5.78475L42.2145 4.72425L43.275 5.78475L42.2145 6.84525L41.154 5.78475ZM39.0322 7.905L40.0928 6.8445L41.1532 7.905L40.0928 8.9655L39.0322 7.905ZM36.9652 9.97275L37.9725 8.96625L39.033 10.0268L38.025 11.0325L36.9652 9.97275Z" fill="#F94E32"/>
<path d="M45 32.25H40.8397C42.0967 29.6814 42.75 26.8596 42.75 24C42.75 20.19 41.613 16.5607 39.4792 13.443C40.0462 13.0477 40.5988 12.6321 41.136 12.1972L45.75 16.8105L47.358 15.2025L45.108 8.45175L45.348 8.21175C45.7146 7.84773 46.0052 7.4145 46.203 6.93722C46.4007 6.45994 46.5017 5.94812 46.5 5.4315C46.4986 4.3891 46.0839 3.3898 45.3467 2.65278C44.6095 1.91576 43.6102 1.50119 42.5677 1.5C42.0513 1.49872 41.5398 1.59973 41.0626 1.7972C40.5854 1.99466 40.152 2.28468 39.7875 2.6505L39.546 2.892L32.7967 0.641998L31.1895 2.25L35.8035 6.864C35.3684 7.40076 34.9528 7.95312 34.5578 8.52C31.4516 6.38438 27.7695 5.24392 24 5.25C21.1013 5.25 18.2445 5.92275 15.6683 7.20075C15.1553 3.56175 12.0285 0.749998 8.25 0.749998C4.1145 0.749998 0.750003 4.1145 0.750003 8.25V8.45625C0.748765 9.93717 1.1873 11.3851 2.01 12.6165L6.03525 18.654C5.51638 20.3887 5.25187 22.1894 5.25 24C5.25 26.337 5.67375 28.602 6.50475 30.75H6C4.7595 30.75 3.75 31.7595 3.75 33C3.75 33.9765 4.37925 34.8015 5.25 35.112V36.75H0.750003V39.2617C0.750003 43.6665 4.3335 47.25 8.73825 47.25H17.04C20.1218 47.25 22.9072 45.4515 24.2257 42.744C26.4581 42.7227 28.6683 42.2997 30.7507 41.4952V45C30.7507 46.2405 31.7603 47.25 33.0008 47.25H45.0007C46.2412 47.25 47.2507 46.2405 47.2507 45V34.5C47.2498 33.9034 47.0123 33.3316 46.5904 32.9098C46.1685 32.4881 45.5966 32.2508 45 32.25ZM36.75 33.75H41.25V35.25H36.75V33.75ZM33 32.25H30.7605C31.1947 29.982 31.452 27.447 31.4925 24.75H41.2253C41.1124 27.3762 40.4 29.9417 39.1425 32.25H33ZM24.7268 41.0985L24.75 39.75H21.4635L19.0718 34.9657C19.5559 34.7019 19.9262 34.2692 20.112 33.75H28.8953C27.8813 37.7895 26.3025 40.4595 24.7268 41.0985ZM20.112 32.25C19.9867 31.8972 19.7753 31.5813 19.497 31.3309C19.2187 31.0805 18.8823 30.9035 18.5183 30.816C18.209 28.8082 18.0408 26.7813 18.015 24.75H29.9925C29.9498 27.5227 29.6715 30.0502 29.232 32.25H20.112ZM6.7785 23.25C6.82575 22.146 6.96675 21.0532 7.221 19.986C7.69259 20.2437 8.24361 20.3155 8.76546 20.187C9.2873 20.0586 9.74212 19.7394 10.0403 19.2922L12.4013 15.75H17.2395C16.8053 18.018 16.548 20.553 16.5075 23.25H6.7785ZM18.7725 15.75H29.2373C29.6918 18.0435 29.9452 20.5965 29.9865 23.25H18.0143C18.0578 20.478 18.3323 17.9482 18.7725 15.75ZM24 6.75C25.3328 6.75 26.7038 8.259 27.804 10.8855L27.234 11.4555L28.212 11.9445C28.467 12.6682 28.6987 13.4355 28.902 14.25H19.1093C20.2815 9.59175 22.2045 6.75 24 6.75ZM32.31 12.3165L29.766 11.0445L30.2302 10.581L32.8657 11.2395C32.6722 11.5935 32.4893 11.9535 32.31 12.3165ZM31.68 13.6785L31.6613 13.719C31.5878 13.8892 31.5487 14.0685 31.5255 14.25H30.441C30.3321 13.7905 30.2123 13.3336 30.0818 12.8797L31.68 13.6785ZM41.2207 23.25H31.4865C31.4467 20.6115 31.2 18.0652 30.7605 15.75H31.9485C32.2188 16.0902 32.5935 16.3322 33.0148 16.4386C33.4362 16.545 33.8808 16.5099 34.2803 16.3387L34.3215 16.32L36.5445 20.766L39.0802 18.2295L38.1097 14.3467C38.1502 14.322 38.1893 14.295 38.2297 14.2695C40.0534 16.9212 41.0903 20.0344 41.2207 23.25ZM36.7605 15.1342L37.419 17.7697L36.9548 18.2332L35.6828 15.6892C36.0465 15.5107 36.4065 15.3277 36.7605 15.1342ZM45.534 14.4735L42.2805 11.22C42.6577 10.8802 43.0283 10.5322 43.3883 10.1715L43.9215 9.63825L45.534 14.4735ZM42.5677 3C43.2125 3.00059 43.8307 3.25694 44.2867 3.71278C44.7427 4.16862 44.9992 4.78674 45 5.4315C45 6.08175 44.7472 6.69225 44.2875 7.15125L42.3278 9.111C39.8486 11.5941 36.9168 13.5794 33.6908 14.9595C33.3735 15.093 33 14.8455 33 14.5057C33 14.4385 33.0135 14.3719 33.0398 14.31C34.4199 11.0835 36.4052 8.15123 38.8883 5.6715L40.8473 3.71175C41.0728 3.48526 41.3409 3.30644 41.6362 3.18415C41.9315 3.06186 42.2481 2.99927 42.5677 3ZM33.5272 2.466L38.3617 4.07775L37.8285 4.61175C37.4678 4.9725 37.1198 5.343 36.78 5.7195L33.5272 2.466ZM33.6525 9.89025L29.7705 8.919L28.947 9.7425C28.4543 8.67225 27.909 7.77825 27.3218 7.08C29.6201 7.52652 31.8018 8.44208 33.7305 9.7695C33.7043 9.81075 33.6772 9.84975 33.6525 9.89025ZM15.7193 8.87325C17.2843 8.01437 18.9735 7.40456 20.7263 7.06575C19.4033 8.63325 18.306 11.1345 17.5613 14.25H13.401L14.49 12.6165C15.2363 11.4967 15.645 10.209 15.7193 8.87325ZM2.25 8.45625V8.25C2.25 4.94175 4.94175 2.25 8.25 2.25C11.5583 2.25 14.25 4.94175 14.25 8.25V8.45625C14.251 9.64108 13.9002 10.7995 13.242 11.7847L8.7915 18.4597C8.54925 18.8227 7.95 18.8227 7.70775 18.4597L3.25725 11.7847C2.5995 10.7994 2.24896 9.64098 2.25 8.45625ZM6.7695 24.75H16.515C16.5465 26.8245 16.7063 28.8345 16.9928 30.75H8.127C7.31517 28.8486 6.85522 26.8157 6.7695 24.75ZM6 32.25H18C18.1931 32.2586 18.3754 32.3414 18.509 32.4811C18.6426 32.6208 18.7172 32.8067 18.7172 33C18.7172 33.1933 18.6426 33.3792 18.509 33.5189C18.3754 33.6586 18.1931 33.7414 18 33.75H6C5.80689 33.7414 5.62456 33.6586 5.49096 33.5189C5.35736 33.3792 5.2828 33.1933 5.2828 33C5.2828 32.8067 5.35736 32.6208 5.49096 32.4811C5.62456 32.3414 5.80689 32.2586 6 32.25ZM6.75 35.25H17.5365L19.7865 39.75H9.4635L7.9635 36.75H6.75V35.25ZM17.04 45.75H8.73825C5.16075 45.75 2.25 42.8392 2.25 39.2617V38.25H7.0365L8.5365 41.25H23.2163C22.359 43.9102 19.8495 45.75 17.04 45.75ZM27.273 40.935C28.596 39.3675 29.694 36.8655 30.4387 33.75H30.888C30.7992 33.9902 30.7525 34.2439 30.75 34.5V39.8722C29.625 40.3522 28.464 40.707 27.273 40.935ZM45.75 45C45.75 45.414 45.4132 45.75 45 45.75H33C32.5868 45.75 32.25 45.414 32.25 45V34.5C32.25 34.086 32.5868 33.75 33 33.75H35.25V36.75H42.75V33.75H45C45.4132 33.75 45.75 34.086 45.75 34.5V45Z" fill="#F94E32"/>
<path d="M42.75 42.75H44.25V44.25H42.75V42.75ZM39.75 42.75H41.25V44.25H39.75V42.75ZM12.75 36.75H14.25V38.25H12.75V36.75ZM15.75 36.75H17.25V38.25H15.75V36.75ZM9.75 36.75H11.25V38.25H9.75V36.75ZM20.25 26.25H21.75V27.75H20.25V26.25ZM26.25 26.25H27.75V27.75H26.25V26.25ZM23.25 26.25H24.75V27.75H23.25V26.25ZM26.25 20.25H27.75V21.75H26.25V20.25ZM23.25 20.25H24.75V21.75H23.25V20.25ZM20.25 20.25H21.75V21.75H20.25V20.25Z" fill="#F94E32"/>
</g>
<defs>
<clipPath id="clip0_3_76">
<rect width="48" height="48" fill="white"/>
</clipPath>
</defs>
</svg>
