<svg width="48" height="48" viewBox="0 0 48 48" fill="none" xmlns="http://www.w3.org/2000/svg">
<path d="M31.0791 4.56985C27.8151 3.22922 25.7426 1.77366 24.7333 0.961783C24.5256 0.794342 24.2668 0.703033 24 0.703033C23.7332 0.703033 23.4744 0.794342 23.2667 0.961783C21.259 2.57672 15.0463 6.73894 3.61136 7.4761C2.63224 7.53919 2.16564 8.71238 2.83052 9.43388C3.5988 10.2675 4.22655 11.4164 4.22655 12.945C4.22655 16.8569 2.05942 38.1684 23.553 47.2067C23.6946 47.2661 23.8465 47.2968 24.0001 47.2968C24.1536 47.2968 24.3056 47.2661 24.4471 47.2067C45.9408 38.1684 43.7736 16.8568 43.7736 12.945C43.7736 11.4164 44.4013 10.2675 45.1696 9.43388C45.8345 8.71238 45.3678 7.53928 44.3888 7.4761C40.2624 7.21013 36.8164 6.498 34.0022 5.6206" stroke="#F94E32" stroke-miterlimit="10" stroke-linecap="round" stroke-linejoin="round"/>
<path d="M34.6954 34.8702C36.1428 32.9015 37.3089 30.6962 38.1737 28.2875C40.2848 22.4072 40.1238 16.7703 40.0464 14.0614C40.0342 13.6315 40.0236 13.2602 40.0236 12.9451C40.0236 12.3857 40.074 11.8367 40.1736 11.3016C40.2216 11.0431 40.0418 10.7967 39.7818 10.7581C32.1987 9.633 27.1262 7.10203 24.2656 5.23978C24.1087 5.1376 23.9074 5.14031 23.7512 5.24353C18.7093 8.57456 12.6479 10.071 8.21532 10.7432C7.95507 10.7827 7.77535 11.0285 7.82391 11.2872C7.92602 11.8339 7.97711 12.3889 7.97654 12.9451C7.97654 13.2602 7.96595 13.6314 7.95366 14.0614C7.87632 16.7704 7.71535 22.4072 9.82641 28.2875C10.9768 31.4919 12.6604 34.3367 14.8304 36.7428C17.1999 39.37 20.2134 41.5437 23.8014 43.2162C23.8637 43.2451 23.9314 43.2601 24 43.2601C24.0686 43.2601 24.1364 43.2451 24.1986 43.2162C27.5548 41.6517 30.4085 39.6483 32.7024 37.2458" stroke="#F94E32" stroke-miterlimit="10" stroke-linecap="round" stroke-linejoin="round"/>
<path d="M19.6147 27.2653C19.7032 27.306 19.7901 27.3508 19.8749 27.3996L21.4316 28.2941C21.9234 28.5768 22.4808 28.7255 23.0481 28.7255H31.4678C32.2525 28.7255 32.8886 28.0894 32.8886 27.3047V26.8411C32.8886 26.0564 32.2525 25.4204 31.4678 25.4204H31.9007C32.6854 25.4204 33.3215 24.7843 33.3215 23.9996V23.536C33.3215 22.7513 32.6854 22.1152 31.9007 22.1152H32.3335C33.1182 22.1152 33.7543 21.4792 33.7543 20.6945V20.2309C33.7543 19.4462 33.1182 18.8101 32.3335 18.8101H32.7664C33.5511 18.8101 34.1871 18.174 34.1871 17.3893V16.9257C34.1871 16.141 33.5511 15.505 32.7665 15.505H27.3448V11.9401C27.3448 10.6702 26.3153 9.64078 25.0455 9.64078C24.1893 9.64078 23.4952 10.3348 23.4952 11.191V12.9642C23.4953 13.626 23.3363 14.2781 23.0318 14.8657C22.7273 15.4532 22.2861 15.959 21.7453 16.3405L19.9654 17.5964C19.8292 17.6925 19.6858 17.778 19.5365 17.8521M13.8127 21.0307V28.6015C13.8127 28.7865 13.8862 28.9638 14.017 29.0946C14.1478 29.2254 14.3251 29.2988 14.5101 29.2988H18.8353C19.0202 29.2988 19.1976 29.2254 19.3284 29.0946C19.4592 28.9638 19.5326 28.7865 19.5326 28.6015V16.557C19.5326 16.3721 19.4592 16.1947 19.3284 16.0639C19.1976 15.9332 19.0202 15.8597 18.8353 15.8597H14.5101C14.3251 15.8597 14.1478 15.9332 14.017 16.0639C13.8862 16.1947 13.8127 16.3721 13.8127 16.557V17.9527M21.4941 35.8813H26.5058M22.2724 38.3671H25.7276M24 31.599V32.6311M24 32.6311L24.6376 33.3825M24 32.6311L24.8819 32.2025M24 32.6311L23.3624 33.3825M24 32.6311L23.1181 32.2025" stroke="#F94E32" stroke-miterlimit="10" stroke-linecap="round" stroke-linejoin="round"/>
</svg>
