<svg width="78" height="78" viewBox="0 0 78 78" fill="none" xmlns="http://www.w3.org/2000/svg">
<g clip-path="url(#clip0_3_482)">
<path d="M23.9472 65.0745V72.364C23.9472 74.4346 22.9025 75.5394 21.004 75.5394C19.0948 75.5394 18.0438 74.4027 18.0438 72.2757V65.0825H15.4172V72.364C15.4172 75.9468 17.4409 77.9999 20.9694 77.9999C24.5312 77.9999 26.5738 75.9075 26.5738 72.259V65.0745H23.9472ZM33.6109 65.0745L27.9062 77.8015H30.5873L31.6885 75.3366L31.7673 75.1519H37.6936L38.8559 77.8014H41.6099L35.9583 65.1498L35.9075 65.0745L33.6109 65.0745ZM49.2281 65.0745L46.2885 73.8315L43.427 65.081H40.6317L45.1438 77.8094H47.3189L50.2644 69.4479L53.2077 77.8094H55.4011L59.9022 65.081H57.1784L54.311 73.8315L51.3707 65.0745H49.2281ZM74.9316 65.0745V77.7906H77.5236V65.0745H74.9316ZM0.58812 65.0753V77.8087H3.21542V72.6371H9.14764V77.8087H11.7757V65.0753H9.14764V70.2121H3.21542V65.0753H0.58812ZM62.0205 65.0839V77.8H71.7991V75.4814H64.6125V72.3285H69.3913V70.0092H64.6125V67.4024H71.5486V65.0839H62.0205ZM34.7238 68.2969L36.5969 72.5602H36.5903L36.7177 72.8543H32.744L32.8699 72.5602H32.8677L34.7238 68.2969Z" fill="#232527"/>
<path d="M33.3046 -0.000324013C32.2625 0.0903211 29.4464 0.720664 29.4464 0.720664H29.4453C23.0978 2.33404 21.5976 7.99846 21.5976 7.99846C21.2876 8.95097 21.1468 9.92713 21.1054 10.8468V12.0985C21.1896 14.0324 21.627 15.4765 21.627 15.4765C23.7472 24.7218 34.1722 39.9132 36.4127 43.1045C36.5716 43.2595 36.6989 43.2035 36.6989 43.2035C36.9408 43.1379 36.9218 42.9097 36.9218 42.9097L36.9264 42.9109C40.3774 8.99079 33.3047 -0.00029116 33.3047 -0.00029116L33.3046 -0.000324013ZM44.7073 -0.000324013C44.7073 -0.000324013 37.6037 8.99554 41.0573 42.9354H41.0619C41.0886 43.1508 41.244 43.1957 41.244 43.1957C41.4752 43.2838 41.5936 43.0654 41.5936 43.0654L41.5948 43.0676C43.8928 39.7949 54.2583 24.6862 56.3692 15.4763C56.3692 15.4763 57.5137 11.0187 56.4088 7.99828C56.4088 7.99828 54.8396 2.24615 48.4842 0.726068C48.4842 0.726068 46.6527 0.268842 44.7074 -0.000488281L44.7073 -0.000324013ZM11.9419 10.1826C11.9419 10.1826 5.89396 15.8274 5.59336 21.8119H5.59577V22.7187C5.60037 22.7869 5.60387 22.856 5.60825 22.9256C5.86877 27.7512 9.56037 30.6073 9.56037 30.6073C15.5083 36.3079 29.9106 43.5053 33.2573 45.1383C33.3042 45.1556 33.4771 45.2111 33.5786 45.0849C33.5786 45.0849 33.6314 45.0455 33.6556 44.9747V44.8244C33.6531 44.8158 33.6485 44.8072 33.6442 44.7977H33.6453C24.4803 25.1088 11.942 10.1824 11.942 10.1824L11.9419 10.1826ZM66.0553 10.1826C66.0553 10.1826 53.5549 25.0621 44.3939 44.7111L44.3974 44.71C44.3974 44.71 44.2892 44.9378 44.4641 45.0849C44.4641 45.0849 44.5163 45.1237 44.5886 45.1394H44.7153C44.7381 45.133 44.7625 45.1244 44.7866 45.1082V45.1103C48.2242 43.4326 62.515 36.2826 68.4349 30.6082C68.4349 30.6082 72.1838 27.6477 72.3802 22.8943C72.8131 16.2923 66.0555 10.1823 66.0555 10.1823L66.0553 10.1826ZM77.3064 29.7294C77.3064 29.7294 56.9269 40.4843 46.3898 47.4738L46.3909 47.4749L46.3933 47.4771C46.3933 47.4771 46.2021 47.6003 46.2689 47.8209C46.2689 47.8209 46.3688 47.999 46.5144 47.999V48.0001C50.2886 48.0066 64.5705 48.0223 64.9286 47.9566C64.9286 47.9566 66.7753 47.8841 69.0572 47.022C69.0572 47.022 74.1373 45.4338 76.7759 39.762C76.7759 39.762 77.9816 37.3905 77.999 34.0586V33.9174C77.9902 32.6325 77.8062 31.2101 77.3066 29.7294H77.3064ZM0.685163 29.7796C-1.16906 35.4244 1.32719 39.9729 1.33122 39.9803C3.93263 45.3855 8.8983 47.0233 8.8983 47.0233C11.1909 47.9495 13.484 48.0135 13.484 48.0135C13.8421 48.0779 27.7435 48.02 31.4683 48.0028C31.6259 48.0016 31.7127 47.8458 31.7127 47.8458C31.7236 47.8286 31.7333 47.8113 31.7376 47.7956V47.6544C31.7067 47.5599 31.6245 47.4931 31.6245 47.4931L31.6269 47.492C21.095 40.5048 0.68533 29.7799 0.68533 29.7799L0.685163 29.7796ZM31.0429 49.7381L7.06876 50.5648C9.66865 55.1225 14.0472 58.6645 18.6083 57.5767C21.756 56.8028 28.8868 51.9116 31.2409 50.2588L31.233 50.2524C31.416 50.0907 31.3507 49.9609 31.3507 49.9609C31.2904 49.7492 31.0429 49.7494 31.0429 49.7494L31.0429 49.7381ZM46.9215 49.7553L46.9191 49.764C46.9191 49.764 46.7086 49.7902 46.6498 49.9452C46.6498 49.9452 46.5987 50.1571 46.7403 50.2623L46.7379 50.2645C49.0332 51.8831 55.9913 56.6668 59.3433 57.5957C59.3433 57.5957 59.8511 57.7656 60.7022 57.7959H61.2136C63.4594 57.7184 67.3719 56.5839 70.927 50.5771L46.9215 49.7553Z" fill="#CF0A2C"/>
</g>
<defs>
<clipPath id="clip0_3_482">
<rect width="78" height="78" fill="white"/>
</clipPath>
</defs>
</svg>
