<svg width="146" height="78" viewBox="0 0 146 78" fill="none" xmlns="http://www.w3.org/2000/svg">
<path d="M47.6957 51.8271H41.2939V77.5421H47.6957V51.8271Z" fill="#C4122E"/>
<path d="M99.3149 59.1955C99.0573 59.0598 96.9991 57.8225 93.9372 57.8225C89.7904 57.8225 86.921 60.7432 86.921 64.6813C86.921 68.5023 89.6707 71.5463 93.9372 71.5463C96.9464 71.5463 99.0391 70.3357 99.3149 70.1815V77.0835C98.52 77.3117 96.336 77.9982 93.4769 77.9982C86.2803 77.9982 79.9678 72.9666 79.9678 64.6813C79.9678 57.0024 85.6861 51.3706 93.4769 51.3706C96.4902 51.3706 98.7126 52.1126 99.3149 52.2935V59.1955Z" fill="#C4122E"/>
<path d="M32.4923 59.1955C32.2348 59.0598 30.1766 57.8225 27.1147 57.8225C22.9678 57.8225 20.0985 60.7432 20.0985 64.6813C20.0985 68.5023 22.8482 71.5463 27.1147 71.5463C30.1239 71.5463 32.2166 70.3357 32.4923 70.1815V77.0835C31.6975 77.3117 29.5135 77.9982 26.6544 77.9982C19.4578 77.9982 13.1453 72.9666 13.1453 64.6813C13.1453 57.0024 18.8636 51.3706 26.6544 51.3706C29.6676 51.3706 31.8901 52.1126 32.4923 52.2935V59.1955Z" fill="#C4122E"/>
<path d="M119.454 57.9191C115.656 57.9191 112.835 60.9487 112.835 64.6813C112.835 68.4221 115.656 71.4497 119.454 71.4497C123.248 71.4497 126.077 68.4221 126.077 64.6813C126.077 60.9487 123.248 57.9191 119.454 57.9191ZM132.86 64.6813C132.86 72.0375 127.257 77.9982 119.454 77.9982C111.651 77.9982 106.056 72.0375 106.056 64.6813C106.056 57.3374 111.651 51.3706 119.454 51.3706C127.257 51.3706 132.86 57.3374 132.86 64.6813Z" fill="#C4122E"/>
<path d="M71.9726 57.6722C71.8772 57.6414 69.1823 56.8871 66.968 56.8871C64.4028 56.8871 63.0077 57.7586 63.0077 58.9939C63.0077 60.5601 64.8895 61.1068 65.9419 61.4439L67.7081 62.0132C71.8631 63.3533 73.757 66.2371 73.757 69.3695C73.757 75.8295 68.1522 78 63.2531 78C59.8484 78 56.6587 77.3649 56.3444 77.2971V71.3796C56.9082 71.5235 59.5929 72.3354 62.3893 72.3354C65.5749 72.3354 67.039 71.392 67.039 69.9347C67.039 68.6316 65.7716 67.8793 64.1838 67.3737C63.7965 67.2421 63.2146 67.0571 62.8171 66.9256C59.2523 65.7828 56.2795 63.6596 56.2795 59.4029C56.2795 54.5933 59.8322 51.3643 65.7331 51.3643C68.8498 51.3643 71.7819 52.1309 71.9726 52.1823V57.6722Z" fill="#C4122E"/>
<path d="M6.3571 24.1916C6.3571 22.4199 4.92954 20.9832 3.17956 20.9832C1.42959 20.9832 0 22.4199 0 24.1916V30.9415C0 32.7235 1.42959 34.1623 3.17956 34.1623C4.92954 34.1623 6.3571 32.7235 6.3571 30.9415V24.1916Z" fill="#15495D"/>
<path d="M23.8151 15.3324C23.8151 13.5607 22.3876 12.1199 20.6376 12.1199C18.8856 12.1199 17.458 13.5607 17.458 15.3324V30.9431C17.458 32.7251 18.8856 34.1619 20.6376 34.1619C22.3876 34.1619 23.8151 32.7251 23.8151 30.9431V15.3324Z" fill="#15495D"/>
<path d="M41.2732 3.21052C41.2732 1.43877 39.8456 0 38.0957 0C36.3437 0 34.9161 1.43877 34.9161 3.21052V37.3567C34.9161 39.1387 36.3437 40.5775 38.0957 40.5775C39.8456 40.5775 41.2732 39.1387 41.2732 37.3567V3.21052Z" fill="#15495D"/>
<path d="M58.7309 15.3324C58.7309 13.5607 57.3033 12.1199 55.5533 12.1199C53.8013 12.1199 52.3738 13.5607 52.3738 15.3324V30.9431C52.3738 32.7251 53.8013 34.1619 55.5533 34.1619C57.3033 34.1619 58.7309 32.7251 58.7309 30.9431V15.3324Z" fill="#15495D"/>
<path d="M76.1691 24.1916C76.1691 22.4199 74.7517 20.9832 73.0098 20.9832C71.2598 20.9832 69.8323 22.4199 69.8323 24.1916V30.9415C69.8323 32.7235 71.2598 34.1623 73.0098 34.1623C74.7517 34.1623 76.1691 32.7235 76.1691 30.9415V24.1916Z" fill="#15495D"/>
<path d="M76.1771 24.1916C76.1771 22.4199 74.7496 20.9832 72.9996 20.9832C71.2496 20.9832 69.82 22.4199 69.82 24.1916V30.9415C69.82 32.7235 71.2496 34.1623 72.9996 34.1623C74.7496 34.1623 76.1771 32.7235 76.1771 30.9415V24.1916Z" fill="#15495D"/>
<path d="M93.6347 15.3324C93.6347 13.5607 92.2071 12.1199 90.4571 12.1199C88.7051 12.1199 87.2776 13.5607 87.2776 15.3324V30.9431C87.2776 32.7251 88.7051 34.1619 90.4571 34.1619C92.2071 34.1619 93.6347 32.7251 93.6347 30.9431V15.3324Z" fill="#15495D"/>
<path d="M111.093 3.21052C111.093 1.43877 109.665 0 107.915 0C106.163 0 104.736 1.43877 104.736 3.21052V37.3567C104.736 39.1387 106.163 40.5775 107.915 40.5775C109.665 40.5775 111.093 39.1387 111.093 37.3567V3.21052Z" fill="#15495D"/>
<path d="M128.551 15.3324C128.551 13.5607 127.123 12.1199 125.373 12.1199C123.621 12.1199 122.194 13.5607 122.194 15.3324V30.9431C122.194 32.7251 123.621 34.1619 125.373 34.1619C127.123 34.1619 128.551 32.7251 128.551 30.9431V15.3324Z" fill="#15495D"/>
<path d="M145.989 24.1916C145.989 22.4199 144.572 20.9832 142.83 20.9832C141.08 20.9832 139.653 22.4199 139.653 24.1916V30.9415C139.653 32.7235 141.08 34.1623 142.83 34.1623C144.572 34.1623 145.989 32.7235 145.989 30.9415V24.1916Z" fill="#15495D"/>
<path d="M142.337 74.1558V74.5586H141.206V77.541H140.742V74.5586H139.604V74.1558H142.337Z" fill="#C4122E"/>
<path d="M142.575 74.1558H143.303L144.303 76.9326H144.319L145.286 74.1558H146V77.541H145.524V74.7662H145.507L144.493 77.541H144.053L143.064 74.7662H143.042V77.541H142.575V74.1558Z" fill="#C4122E"/>
</svg>
