<svg width="170" height="220" viewBox="0 0 170 220" fill="none" xmlns="http://www.w3.org/2000/svg">
<path opacity="0.3" d="M56.8549 94L57 158.407L5.6565 187.49C3.19085 188.909 0.145047 187.206 0.145047 184.369L0 131.169C0 128.19 1.59542 125.353 4.20611 123.934L56.8549 94Z" fill="white"/>
<path opacity="0.3" d="M170 216.373C170 219.08 166.985 220.932 164.544 219.507L113.572 190.588L57.1436 158.534L57 94L113.428 126.053L165.693 155.828C168.277 157.395 170 160.101 170 163.093V216.373Z" fill="#EAEAEA"/>
<path opacity="0.3" d="M113 126L56.6434 93.9876L4.44543 64.2516C1.86421 62.6866 0.143399 59.9833 0.143399 56.9955L0 3.6415C0 0.79595 3.01142 -0.911373 5.44923 0.5114L56.3566 29.536L112.713 61.6907L113 126Z" fill="white"/>
<path opacity="0.3" d="M113.285 126L164.868 95.7477C167.433 94.1706 169 91.4464 169 88.4355L168.857 34.6696C168.857 31.8021 165.865 30.0816 163.443 31.5153L113 61.0508L113.285 126Z" fill="#EAEAEA"/>
</svg>
