<svg width="190" height="39" viewBox="0 0 190 39" fill="none" xmlns="http://www.w3.org/2000/svg">
<g clip-path="url(#clip0_2_2)">
<path d="M50.4156 30.5972C50.2015 30.5972 50.0038 30.5156 49.8225 30.3526C49.6413 30.1896 49.559 29.9939 49.559 29.7494C49.559 29.6679 49.5754 29.57 49.6249 29.4396C49.6578 29.3255 49.7402 29.1787 49.8555 29.0157L56.9394 19.8693L50.3003 11.2121C50.185 11.049 50.1191 10.9186 50.0697 10.8045C50.0367 10.6904 50.0038 10.5925 50.0038 10.4784C50.0038 10.2339 50.0861 10.0382 50.2509 9.87517C50.4156 9.71213 50.6133 9.63062 50.8604 9.63062H52.9362C53.2327 9.63062 53.4634 9.71213 53.6281 9.85887C53.7928 10.0056 53.9082 10.1523 53.9905 10.2828L59.3941 17.2444L64.7976 10.3154C64.913 10.1849 65.0283 10.0382 65.1766 9.87517C65.3248 9.71213 65.5555 9.63062 65.852 9.63062H67.8619C68.109 9.63062 68.3067 9.71213 68.4714 9.87517C68.6361 10.0382 68.7185 10.2339 68.7185 10.4784C68.7185 10.5925 68.702 10.6904 68.6526 10.8045C68.6197 10.9186 68.5373 11.049 68.422 11.2121L61.717 19.9509L68.8009 29.0157C68.9162 29.1787 68.9821 29.3092 69.0315 29.4233C69.0645 29.5374 69.0974 29.6352 69.0974 29.7494C69.0974 29.9939 69.015 30.1896 68.8503 30.3526C68.6856 30.5156 68.4879 30.5972 68.2408 30.5972H66.0826C65.819 30.5972 65.5884 30.5319 65.4237 30.4015C65.2589 30.2711 65.1271 30.1407 65.0118 29.9939L59.3117 22.6247L53.5293 29.9939C53.4139 30.1081 53.2986 30.2222 53.1503 30.3689C53.0021 30.5156 52.7714 30.5972 52.4749 30.5972H50.4156Z" fill="#333333"/>
<path d="M68.8009 20.2117C68.5373 20.2117 68.3067 20.1302 68.1254 19.9509C67.9442 19.7715 67.8618 19.5596 67.8618 19.2824V17.7499C67.8618 17.489 67.9442 17.2608 68.1254 17.0814C68.3067 16.9021 68.5208 16.8206 68.8009 16.8206H81.0083C81.3048 16.8206 81.5355 16.9021 81.7002 17.0814C81.865 17.2608 81.9473 17.4727 81.9473 17.7499V19.2824C81.9473 19.5433 81.865 19.7715 81.7002 19.9509C81.5355 20.1302 81.3048 20.2117 81.0083 20.2117H68.8009Z" fill="#333333"/>
<path d="M85.1928 30.5972C84.9292 30.5972 84.6985 30.5156 84.5173 30.3363C84.3361 30.157 84.2537 29.945 84.2537 29.6679V2.9298C84.2537 2.66894 84.3361 2.44069 84.5173 2.26135C84.6985 2.08201 84.9127 2.00049 85.1928 2.00049H87.1038C87.3674 2.00049 87.598 2.08201 87.7792 2.26135C87.9604 2.44069 88.0428 2.65264 88.0428 2.9298V16.9347L96.0493 10.3317C96.3788 10.0708 96.6259 9.87517 96.8071 9.79365C96.9883 9.69583 97.2684 9.64692 97.6802 9.64692H99.8384C100.085 9.64692 100.283 9.72844 100.448 9.89148C100.613 10.0545 100.695 10.2502 100.695 10.4947C100.695 10.6088 100.662 10.723 100.596 10.8534C100.53 10.9838 100.398 11.1143 100.217 11.261L90.827 18.9889L101.239 29.0157C101.568 29.2766 101.733 29.5211 101.733 29.7331C101.733 29.9776 101.651 30.1733 101.486 30.3363C101.321 30.4993 101.123 30.5809 100.876 30.5809H98.7675C98.3557 30.5809 98.0591 30.532 97.8779 30.4341C97.6802 30.3363 97.4496 30.157 97.1531 29.8961L88.0758 21.3204V29.6516C88.0758 29.9124 87.9934 30.1407 87.8122 30.32C87.6309 30.4993 87.4168 30.5809 87.1367 30.5809H85.1928V30.5972Z" fill="#333333"/>
<path d="M110.332 31.0047C108.273 31.0047 106.543 30.6135 105.16 29.8309C103.776 29.0483 102.721 27.9723 101.98 26.5864C101.255 25.2006 100.843 23.6192 100.761 21.8584C100.728 21.4019 100.728 20.8149 100.728 20.1139C100.728 19.3965 100.744 18.8259 100.761 18.402C100.843 16.6086 101.255 15.0271 101.996 13.6576C102.738 12.2881 103.809 11.2121 105.192 10.4295C106.576 9.6469 108.29 9.25562 110.316 9.25562C112.342 9.25562 114.056 9.6469 115.439 10.4295C116.823 11.2121 117.894 12.2881 118.635 13.6576C119.377 15.0271 119.789 16.6086 119.871 18.402C119.904 18.8259 119.904 19.3965 119.904 20.1139C119.904 20.8312 119.888 21.4019 119.871 21.8584C119.789 23.6355 119.377 25.2006 118.652 26.5864C117.927 27.9723 116.856 29.0483 115.472 29.8309C114.105 30.6135 112.392 31.0047 110.332 31.0047ZM110.332 27.907C112.013 27.907 113.364 27.3853 114.352 26.3093C115.357 25.2495 115.901 23.7007 115.983 21.6627C116.016 21.2551 116.016 20.7497 116.016 20.1302C116.016 19.5106 116 19.0052 115.983 18.5976C115.901 16.5597 115.357 15.0108 114.352 13.9511C113.347 12.8913 112.013 12.3533 110.332 12.3533C108.652 12.3533 107.301 12.8913 106.28 13.9511C105.258 15.0108 104.731 16.5597 104.665 18.5976C104.632 19.0052 104.632 19.5106 104.632 20.1302C104.632 20.7497 104.649 21.2551 104.665 21.6627C104.715 23.7007 105.258 25.2495 106.28 26.3093C107.301 27.369 108.636 27.907 110.332 27.907Z" fill="#333333"/>
<path d="M123.001 30.5971C122.738 30.5971 122.507 30.5156 122.326 30.3363C122.145 30.1569 122.062 29.945 122.062 29.6678V10.5925C122.062 10.3317 122.145 10.1034 122.326 9.92406C122.507 9.74472 122.721 9.6632 123.001 9.6632H124.912C125.176 9.6632 125.406 9.74472 125.588 9.92406C125.769 10.1034 125.851 10.3153 125.851 10.5925V12.3696C126.56 11.4566 127.449 10.7066 128.52 10.136C129.591 9.56538 130.975 9.27191 132.655 9.27191C134.418 9.27191 135.917 9.6469 137.153 10.4132C138.388 11.1794 139.327 12.2392 139.953 13.5924C140.596 14.9456 140.909 16.5271 140.909 18.3205V29.6678C140.909 29.9287 140.826 30.1569 140.645 30.3363C140.464 30.5156 140.25 30.5971 139.97 30.5971H137.943C137.68 30.5971 137.449 30.5156 137.268 30.3363C137.087 30.1569 137.004 29.945 137.004 29.6678V18.5161C137.004 16.6412 136.543 15.1738 135.62 14.1141C134.698 13.0544 133.347 12.5163 131.551 12.5163C129.871 12.5163 128.52 13.0544 127.499 14.1141C126.477 15.1738 125.967 16.6412 125.967 18.5161V29.6678C125.967 29.9287 125.884 30.1569 125.703 30.3363C125.522 30.5156 125.308 30.5971 125.027 30.5971H123.001Z" fill="#333333"/>
<path d="M151.782 30.5972C150.266 30.5972 149.03 30.3037 148.075 29.7331C147.119 29.1624 146.428 28.3309 145.999 27.2712C145.571 26.2115 145.34 24.9561 145.34 23.5051V12.875H142.161C141.897 12.875 141.666 12.7935 141.485 12.6142C141.304 12.4348 141.222 12.2229 141.222 11.9457V10.5762C141.222 10.3154 141.304 10.0871 141.485 9.90777C141.666 9.72843 141.881 9.64691 142.161 9.64691H145.34V2.9461C145.34 2.68524 145.423 2.45698 145.604 2.27764C145.785 2.0983 145.999 2.01678 146.279 2.01678H148.19C148.454 2.01678 148.685 2.0983 148.866 2.27764C149.047 2.45698 149.129 2.66893 149.129 2.9461V9.66322H154.17C154.467 9.66322 154.698 9.74474 154.862 9.92408C155.027 10.1034 155.109 10.3154 155.109 10.5925V11.962C155.109 12.2229 155.027 12.4511 154.862 12.6305C154.698 12.8098 154.467 12.8913 154.17 12.8913H149.129V23.2442C149.129 24.4996 149.343 25.4941 149.788 26.2278C150.217 26.9451 150.991 27.3201 152.111 27.3201H154.599C154.862 27.3201 155.093 27.4016 155.274 27.581C155.455 27.7603 155.538 27.9723 155.538 28.2494V29.7005C155.538 29.9613 155.455 30.1896 155.274 30.3689C155.093 30.5482 154.879 30.6298 154.599 30.6298H151.782V30.5972Z" fill="#333333"/>
<path d="M164.516 31.0047C162.786 31.0047 161.304 30.6298 160.101 29.8635C158.899 29.0972 157.976 28.0375 157.35 26.668C156.724 25.2984 156.411 23.7333 156.411 21.9562V10.6088C156.411 10.348 156.493 10.1197 156.675 9.94036C156.856 9.76102 157.07 9.6795 157.35 9.6795H159.376C159.64 9.6795 159.871 9.76102 160.052 9.94036C160.233 10.1197 160.315 10.3317 160.315 10.6088V21.7605C160.315 25.7549 162.078 27.7603 165.604 27.7603C167.284 27.7603 168.635 27.2386 169.656 26.1625C170.678 25.1028 171.188 23.6355 171.188 21.7605V10.6088C171.188 10.348 171.271 10.1197 171.452 9.94036C171.633 9.76102 171.847 9.6795 172.127 9.6795H174.154C174.417 9.6795 174.648 9.76102 174.813 9.94036C174.977 10.1197 175.06 10.3317 175.06 10.6088V29.6841C175.06 29.945 174.977 30.1732 174.813 30.3526C174.648 30.5319 174.434 30.6134 174.154 30.6134H172.243C171.979 30.6134 171.748 30.5319 171.567 30.3526C171.386 30.1732 171.304 29.9613 171.304 29.6841V27.907C170.579 28.8526 169.689 29.6026 168.635 30.1569C167.597 30.7276 166.213 31.0047 164.516 31.0047Z" fill="#333333"/>
<path d="M178.948 30.5972C178.684 30.5972 178.453 30.5156 178.272 30.3363C178.091 30.157 178.009 29.945 178.009 29.6678V10.6251C178.009 10.3643 178.091 10.136 178.272 9.94037C178.453 9.76103 178.668 9.66321 178.948 9.66321H180.826C181.089 9.66321 181.32 9.76103 181.518 9.94037C181.715 10.136 181.798 10.3643 181.798 10.6251V12.4022C182.341 11.4892 183.083 10.8045 184.038 10.348C184.994 9.89146 186.147 9.66321 187.498 9.66321H189.079C189.343 9.66321 189.574 9.74473 189.755 9.92407C189.936 10.1034 190.018 10.3154 190.018 10.5925V12.2392C190.018 12.5001 189.936 12.7283 189.755 12.8913C189.574 13.0544 189.359 13.1359 189.079 13.1359H186.641C185.175 13.1359 184.022 13.5598 183.182 14.4076C182.341 15.2554 181.913 16.3966 181.913 17.8477V29.6841C181.913 29.945 181.814 30.1733 181.633 30.3526C181.435 30.5319 181.205 30.6135 180.941 30.6135H178.948V30.5972Z" fill="#333333"/>
<path d="M19.6088 38.7653C30.3359 38.7653 39.0319 30.1593 39.0319 19.5433C39.0319 8.92724 30.3359 0.321228 19.6088 0.321228C8.88171 0.321228 0.185669 8.92724 0.185669 19.5433C0.185669 30.1593 8.88171 38.7653 19.6088 38.7653Z" fill="#F94E32"/>
<path d="M16.3634 17.5542L16.3798 24.9561L10.548 28.2984C10.2679 28.4614 9.92193 28.2658 9.92193 27.9397L9.90546 21.8258C9.90546 21.4834 10.0867 21.1573 10.3832 20.9943L16.3634 17.5542Z" fill="white"/>
<path d="M29.3451 31.5754C29.3451 31.8852 28.9991 32.0971 28.719 31.9341L22.8707 28.6244L16.3963 24.9561L16.3798 17.5705L22.8542 21.2389L28.8508 24.6463C29.1474 24.8257 29.3451 25.1354 29.3451 25.4778V31.5754Z" fill="#EAEAEA"/>
<path d="M22.8377 21.2226L16.3633 17.5542L10.3667 14.1468C10.0702 13.9674 9.87249 13.6577 9.87249 13.3153L9.85602 7.2014C9.85602 6.87533 10.202 6.67968 10.482 6.84272L16.3304 10.1687L22.8048 13.8533L22.8377 21.2226Z" fill="white"/>
<path d="M22.8378 21.2225L28.8014 17.7825C29.098 17.6031 29.2792 17.2933 29.2792 16.951L29.2627 10.8371C29.2627 10.511 28.9168 10.3154 28.6367 10.4784L22.8048 13.837L22.8378 21.2225Z" fill="#EAEAEA"/>
</g>
<defs>
<clipPath id="clip0_2_2">
<rect width="190" height="39" fill="white"/>
</clipPath>
</defs>
</svg>
