<svg width="557" height="720" viewBox="0 0 557 720" fill="none" xmlns="http://www.w3.org/2000/svg">
<path d="M186.524 307L187 518.037L18.5573 613.329C10.4682 617.978 0.475856 612.4 0.475856 603.103L0 428.788C0 419.026 5.2341 409.729 13.799 405.081L186.524 307Z" fill="white"/>
<path d="M557 708.111C557 716.983 547.127 723.053 539.135 718.384L372.235 623.593L187.47 518.529L187 307L371.765 412.064L542.896 509.657C551.358 514.793 557 523.665 557 533.471V708.111Z" fill="#EAEAEA"/>
<path d="M370 413L185.47 308.07L14.5558 210.603C6.10405 205.473 0.469536 196.612 0.469536 186.819L0 11.936C0 2.60895 9.86038 -2.98728 17.8426 1.67626L184.53 96.8124L369.061 202.208L370 413Z" fill="white"/>
<path d="M370.936 413L540.422 313.645C548.85 308.465 554 299.519 554 289.63L553.532 113.052C553.532 103.634 543.7 97.9837 535.74 102.693L370 199.693L370.936 413Z" fill="#EAEAEA"/>
</svg>
