<svg width="75.997803" height="13.878418" viewBox="0 0 75.9978 13.8784" fill="none" xmlns="http://www.w3.org/2000/svg" xmlns:xlink="http://www.w3.org/1999/xlink">
	<desc>
			Created with Pixso.
	</desc>
	<defs/>
	<path d="M6.25372 6.7915C6.25372 5.54639 5.29236 4.66846 4.12036 4.66846C2.93915 4.66846 1.98694 5.56445 1.98694 6.7915C1.98694 8.00977 2.9483 8.91455 4.12036 8.91455C5.29236 8.92334 6.25372 8.04541 6.25372 6.7915ZM6.27209 10.5088L6.27209 9.5415C5.68604 10.2134 4.82538 10.6255 3.79071 10.6255C1.63898 10.6255 0 8.99512 0 6.7915C0 4.60596 1.69391 2.94873 3.83649 2.94873C4.84369 2.94873 5.69519 3.36084 6.27209 4.01465L6.27209 3.08301L8.20404 3.08301L8.20404 10.5088L6.27209 10.5088Z" fill="#000000" fill-opacity="1.000000" fill-rule="nonzero"/>
	<path d="M17.5968 8.86084C16.9192 8.86084 16.7361 8.61865 16.7361 8.00098L16.7361 4.70459L17.9813 4.70459L17.9813 3.08301L16.7361 3.08301L16.7361 1.27393L14.7583 1.27393L14.7583 3.08301L12.2037 3.08301L12.2037 2.63525C12.2037 2.0083 12.4509 1.77539 13.1468 1.77539L13.5771 1.77539L13.5771 0.324219L12.6249 0.324219C10.9859 0.324219 10.2168 0.825684 10.2168 2.37549L10.2168 3.08301L9.11804 3.08301L9.11804 4.70459L10.2168 4.70459L10.2168 10.5088L12.1946 10.5088L12.1946 4.70459L14.7491 4.70459L14.7491 8.34131C14.7491 9.85498 15.3626 10.5088 16.965 10.5088L17.9905 10.5088L17.9905 8.86084L17.5968 8.86084Z" fill="#000000" fill-opacity="1.000000" fill-rule="nonzero"/>
	<path d="M24.6992 6.12842C24.5619 5.16113 23.7286 4.58789 22.7489 4.58789C21.7784 4.58789 20.9726 5.15234 20.7712 6.12842L24.6992 6.12842ZM20.7529 7.28418C20.8994 8.38574 21.7234 9.00391 22.7855 9.00391C23.6188 9.00391 24.2597 8.62793 24.6443 8.03662L26.677 8.03662C26.2009 9.61328 24.7084 10.6255 22.7489 10.6255C20.3774 10.6255 18.711 9.04883 18.711 6.80957C18.711 4.56982 20.469 2.94873 22.7947 2.94873C25.1387 2.94873 26.8326 4.5791 26.8326 6.80957C26.8326 6.9707 26.8143 7.13184 26.7869 7.28418L20.7529 7.28418Z" fill="#000000" fill-opacity="1.000000" fill-rule="nonzero"/>
	<path d="M39.4328 6.7915C39.4328 5.59131 38.4714 4.66846 37.2994 4.66846C36.1182 4.66846 35.166 5.56445 35.166 6.7915C35.166 8.00977 36.1274 8.91455 37.2994 8.91455C38.4714 8.92334 39.4328 8.00098 39.4328 6.7915ZM33.2065 3.08301L35.1385 3.08301L35.1385 4.05029C35.7245 3.36963 36.5852 2.94873 37.6199 2.94873C39.7441 2.94873 41.4106 4.59668 41.4106 6.78271C41.4106 8.96826 39.7167 10.6343 37.5741 10.6343C36.5852 10.6343 35.7703 10.2578 35.2026 9.64014L35.2026 13.5723L33.2065 13.5723L33.2065 3.08301Z" fill="#000000" fill-opacity="1.000000" fill-rule="nonzero"/>
	<path d="M48.3748 6.7915C48.3748 5.54639 47.4134 4.66846 46.2414 4.66846C45.0602 4.66846 44.108 5.56445 44.108 6.7915C44.108 8.00977 45.0693 8.91455 46.2414 8.91455C47.4134 8.92334 48.3748 8.04541 48.3748 6.7915ZM48.3931 10.5088L48.3931 9.5415C47.8071 10.2134 46.9464 10.6255 45.9117 10.6255C43.76 10.6255 42.121 8.99512 42.121 6.7915C42.121 4.60596 43.8149 2.94873 45.9575 2.94873C46.9647 2.94873 47.8162 3.36084 48.3931 4.01465L48.3931 3.08301L50.3251 3.08301L50.3251 10.5088L48.3931 10.5088Z" fill="#000000" fill-opacity="1.000000" fill-rule="nonzero"/>
	<path d="M29.7101 3.80859C29.7101 3.80859 30.2045 2.94873 31.4041 2.94873C31.9168 2.94873 32.2556 3.11914 32.2556 3.11914L32.2556 5.01807C32.2556 5.01807 31.5322 4.59668 30.8638 4.67773C30.1954 4.76709 29.7742 5.34033 29.7742 6.11963L29.7742 10.5176L27.7781 10.5176L27.7781 3.08301L29.7101 3.08301L29.7101 3.80859Z" fill="#000000" fill-opacity="1.000000" fill-rule="nonzero"/>
	<path d="M59.3545 3.08301L54.4742 13.5454L52.414 13.5454L54.3277 9.50537L51.0864 3.0918L53.4212 3.0918L55.3166 7.38281L57.2577 3.0918L59.3545 3.0918L59.3545 3.08301Z" fill="#000000" fill-opacity="1.000000" fill-rule="nonzero"/>
	<path d="M74.9346 2.9126L70.0909 0.270508C68.6716 -0.5 66.8953 0.467285 66.8953 2.01709L66.8953 2.28564C66.8953 2.52783 67.0327 2.76074 67.2615 2.87695L68.1772 3.37842C68.4427 3.52197 68.7815 3.34277 68.7815 3.04736L68.7815 2.37549C68.7815 2.03516 69.1661 1.8291 69.4774 1.99902L73.671 4.2832C73.9823 4.45361 73.9823 4.87451 73.671 5.03564L69.4774 7.31982C69.1661 7.49023 68.7815 7.2749 68.7815 6.94385L68.7815 6.58545C68.7815 5.03564 67.0052 4.06836 65.5859 4.83887L60.7514 7.48096C59.3322 8.25146 59.3322 10.1953 60.7514 10.9658L65.5859 13.6079C67.0052 14.3784 68.7815 13.4111 68.7815 11.8613L68.7815 11.5928C68.7815 11.3506 68.6442 11.127 68.4153 11.0015L67.4996 10.5C67.2341 10.3564 66.8953 10.5356 66.8953 10.8311L66.8953 11.5029C66.8953 11.8433 66.5107 12.0493 66.1994 11.8794L62.0059 9.59521C61.6945 9.4248 61.6945 9.00391 62.0059 8.8335L66.1994 6.55859C66.5107 6.38818 66.8953 6.60352 66.8953 6.93457L66.8953 7.29297C66.8953 8.84277 68.6716 9.81006 70.0909 9.03955L74.9254 6.39746C76.3538 5.62695 76.3538 3.69189 74.9346 2.9126Z" fill="#000000" fill-opacity="1.000000" fill-rule="nonzero"/>
</svg>
