<svg width="92.000000" height="36.000000" viewBox="0 0 92 36" fill="none" xmlns="http://www.w3.org/2000/svg" xmlns:xlink="http://www.w3.org/1999/xlink">
	<desc>
			Created with Pixso.
	</desc>
	<defs/>
	<rect id="header_3" rx="4.000000" width="92.000000" height="36.000000" fill="#D5D5D5" fill-opacity="1.000000"/>
	<rect id="Text" width="26.000000" height="11.000000" transform="translate(8.000000 7.500000)" fill="#FFFFFF" fill-opacity="0"/>
	<path id="Text 12" d="M18.8789 16.1484L17.0547 16.1484L17.0547 18.5L14.5273 18.5L14.5273 16.1484L8.49609 16.1484L8.49609 14.4023L13.7773 7.30078L16.4961 7.30078L11.6016 14.0352L14.6094 14.0352L14.6094 11.9414L17.0547 11.9414L17.0547 14.0352L18.8789 14.0352L18.8789 16.1484ZM21.4417 18.6289Q20.7854 18.6289 20.3362 18.1797Q19.887 17.7305 19.887 17.0586Q19.887 16.3711 20.3362 15.9492Q20.7854 15.5234 21.4417 15.5234Q22.0979 15.5234 22.5432 15.9492Q22.9924 16.3711 22.9924 17.0586Q22.9924 17.7305 22.5432 18.1797Q22.0979 18.6289 21.4417 18.6289ZM28.0946 7.10938Q30.4462 7.10938 31.7743 8.54297Q33.1024 9.97266 33.1024 12.6602Q33.1024 14.5625 32.3915 15.9258Q31.6805 17.2852 30.3837 17.9883Q29.0868 18.6914 27.3915 18.6914Q26.4969 18.6914 25.6805 18.4922Q24.8641 18.293 24.2899 17.9258L25.2469 16.0195Q26.0633 16.5781 27.3446 16.5781Q28.7665 16.5781 29.5985 15.7383Q30.4305 14.8984 30.4969 13.3164Q29.4891 14.3242 27.7118 14.3242Q26.6415 14.3242 25.7587 13.8945Q24.8798 13.4609 24.368 12.668Q23.8563 11.875 23.8563 10.8359Q23.8563 9.71484 24.4149 8.86719Q24.9774 8.01953 25.9423 7.56641Q26.911 7.10938 28.0946 7.10938ZM28.2899 12.3867Q29.1376 12.3867 29.6727 11.918Q30.2079 11.4453 30.2079 10.707Q30.2079 9.97266 29.6883 9.50781Q29.1688 9.04297 28.2548 9.04297Q27.4227 9.04297 26.9032 9.49219Q26.3837 9.94141 26.3837 10.707Q26.3837 11.4766 26.9032 11.9336Q27.4227 12.3867 28.2899 12.3867Z" fill="#000000" fill-opacity="1.000000" fill-rule="evenodd"/>
	<rect id="Text" width="47.000000" height="8.000000" transform="translate(37.000000 10.500000)" fill="#FFFFFF" fill-opacity="0"/>
	<path id="Text 12" d="M40.8174 18.5732Q39.8682 18.5732 39.1123 18.1543Q38.3564 17.7324 37.9287 16.9941Q37.5039 16.2559 37.5039 15.3213Q37.5039 14.3838 37.9287 13.6455Q38.3564 12.9072 39.1123 12.4941Q39.8682 12.0811 40.8174 12.0811Q41.7637 12.0811 42.5137 12.4941Q43.2637 12.9072 43.6885 13.6455Q44.1162 14.3838 44.1162 15.3213Q44.1162 16.2559 43.6885 16.9941Q43.2637 17.7324 42.5137 18.1543Q41.7637 18.5732 40.8174 18.5732ZM40.8174 17.5654Q41.4268 17.5654 41.9131 17.2842Q42.3994 17 42.6748 16.4902Q42.9531 15.9805 42.9531 15.3213Q42.9531 14.6592 42.6748 14.1494Q42.3994 13.6396 41.9131 13.3643Q41.4268 13.0889 40.8174 13.0889Q40.2051 13.0889 39.7188 13.3643Q39.2324 13.6396 38.9482 14.1494Q38.667 14.6592 38.667 15.3213Q38.667 15.9805 38.9482 16.4902Q39.2324 17 39.7188 17.2842Q40.2051 17.5654 40.8174 17.5654ZM51.6395 12.1396L51.6395 18.5L50.5468 18.5L50.5468 17.5391Q50.2011 18.0312 49.6298 18.3037Q49.0614 18.5732 48.3876 18.5732Q47.1161 18.5732 46.3837 17.8701Q45.6512 17.167 45.6512 15.7988L45.6512 12.1396L46.8026 12.1396L46.8026 15.667Q46.8026 16.5928 47.2479 17.0674Q47.6932 17.5391 48.5194 17.5391Q49.4305 17.5391 49.9579 16.9883Q50.4882 16.4346 50.4882 15.4268L50.4882 12.1396L51.6395 12.1396ZM57.411 18.1279Q57.159 18.3447 56.787 18.459Q56.4149 18.5732 56.0194 18.5732Q55.0614 18.5732 54.5311 18.0576Q54.0038 17.5391 54.0038 16.5811L54.0038 13.0889L52.9227 13.0889L52.9227 12.1396L54.0038 12.1396L54.0038 10.748L55.1551 10.748L55.1551 12.1396L56.9803 12.1396L56.9803 13.0889L55.1551 13.0889L55.1551 16.5312Q55.1551 17.0469 55.4129 17.3252Q55.6708 17.6006 56.1512 17.6006Q56.6786 17.6006 57.0506 17.2988L57.411 18.1279ZM64.7574 18.5732Q63.8082 18.5732 63.0523 18.1543Q62.2964 17.7324 61.8687 16.9941Q61.4439 16.2559 61.4439 15.3213Q61.4439 14.3838 61.8687 13.6455Q62.2964 12.9072 63.0523 12.4941Q63.8082 12.0811 64.7574 12.0811Q65.7037 12.0811 66.4537 12.4941Q67.2037 12.9072 67.6285 13.6455Q68.0562 14.3838 68.0562 15.3213Q68.0562 16.2559 67.6285 16.9941Q67.2037 17.7324 66.4537 18.1543Q65.7037 18.5732 64.7574 18.5732ZM64.7574 17.5654Q65.3668 17.5654 65.8531 17.2842Q66.3394 17 66.6148 16.4902Q66.8931 15.9805 66.8931 15.3213Q66.8931 14.6592 66.6148 14.1494Q66.3394 13.6396 65.8531 13.3643Q65.3668 13.0889 64.7574 13.0889Q64.1451 13.0889 63.6588 13.3643Q63.1724 13.6396 62.8882 14.1494Q62.607 14.6592 62.607 15.3213Q62.607 15.9805 62.8882 16.4902Q63.1724 17 63.6588 17.2842Q64.1451 17.5654 64.7574 17.5654ZM71.9789 10.4727Q70.9477 10.4727 70.9477 11.5889L70.9477 12.1396L72.7963 12.1396L72.7963 13.0889L70.9711 13.0889L70.9711 18.5L69.8198 18.5L69.8198 13.0889L68.7387 13.0889L68.7387 12.1396L69.8198 12.1396L69.8198 11.5771Q69.8198 10.6279 70.3705 10.0771Q70.9243 9.52344 71.9203 9.52344Q72.3041 9.52344 72.6381 9.62012Q72.975 9.7168 73.2153 9.89551L72.8666 10.7715Q72.4711 10.4727 71.9789 10.4727ZM79.1793 13.3525Q80.9547 13.3525 81.8072 14.0439Q82.6597 14.7324 82.6597 15.9189Q82.6597 16.6748 82.2877 17.2871Q81.9156 17.8994 81.1715 18.2598Q80.4273 18.6201 79.3345 18.6201Q78.4351 18.6201 77.5943 18.3623Q76.7564 18.1045 76.1793 17.6475L76.8414 16.4346Q77.3072 16.8213 77.9605 17.0439Q78.6168 17.2637 79.3111 17.2637Q80.1402 17.2637 80.6148 16.9238Q81.0894 16.5811 81.0894 15.9805Q81.0894 15.333 80.5767 15.002Q80.067 14.6709 78.8306 14.6709L76.8033 14.6709L77.2369 10.1006L82.1676 10.1006L82.1676 11.4072L78.5553 11.4072L78.3765 13.3525L79.1793 13.3525Z" fill="#000000" fill-opacity="1.000000" fill-rule="evenodd"/>
	<rect id="Text" width="58.000000" height="8.000000" transform="translate(8.000000 20.500000)" fill="#FFFFFF" fill-opacity="0"/>
	<path id="Text 12" d="M15.5 26.9414L15.5 28.5L8.99609 28.5L8.99609 20.1006L15.3447 20.1006L15.3447 21.6592L10.9268 21.6592L10.9268 23.4844L14.8291 23.4844L14.8291 24.9961L10.9268 24.9961L10.9268 26.9414L15.5 26.9414ZM20.9368 28.5L19.5188 26.5195L18.0569 28.5L16.0149 28.5L18.4993 25.248L16.0998 22.043L18.2004 22.043L19.5686 23.9268L20.9719 22.043L22.9641 22.043L20.5647 25.2012L23.0608 28.5L20.9368 28.5ZM26.8884 28.5967Q25.8571 28.5967 25.0339 28.1719Q24.2106 27.7441 23.7477 26.9883Q23.2878 26.2324 23.2878 25.2715Q23.2878 24.3105 23.7477 23.5547Q24.2106 22.7988 25.0339 22.374Q25.8571 21.9492 26.8884 21.9492Q27.9079 21.9492 28.6696 22.374Q29.4313 22.7988 29.78 23.5928L28.3269 24.3721Q27.8229 23.4844 26.8767 23.4844Q26.1442 23.4844 25.6638 23.9648Q25.1833 24.4453 25.1833 25.2715Q25.1833 26.1006 25.6638 26.5811Q26.1442 27.0586 26.8767 27.0586Q27.8347 27.0586 28.3269 26.1709L29.78 26.9648Q29.4313 27.7324 28.6696 28.166Q27.9079 28.5967 26.8884 28.5967ZM37.0985 25.2949Q37.0985 25.333 37.0634 25.7988L32.1796 25.7988Q32.3114 26.3994 32.8036 26.748Q33.2958 27.0967 34.0282 27.0967Q34.5321 27.0967 34.9218 26.9473Q35.3114 26.7949 35.6483 26.4727L36.6444 27.5508Q35.7333 28.5967 33.9813 28.5967Q32.8886 28.5967 32.0477 28.1719Q31.2069 27.7441 30.7499 26.9883Q30.2958 26.2324 30.2958 25.2715Q30.2958 24.3252 30.744 23.5635Q31.1952 22.7988 31.9804 22.374Q32.7684 21.9492 33.7411 21.9492Q34.6874 21.9492 35.455 22.3564Q36.2225 22.7637 36.6591 23.5254Q37.0985 24.2871 37.0985 25.2949ZM33.7528 23.3643Q33.1171 23.3643 32.6835 23.7246Q32.2528 24.085 32.1561 24.709L35.3349 24.709Q35.2411 24.0967 34.8075 23.7305Q34.3768 23.3643 33.7528 23.3643ZM38.3483 19.5967L40.2203 19.5967L40.2203 28.5L38.3483 28.5L38.3483 19.5967ZM41.9603 19.5967L43.8323 19.5967L43.8323 28.5L41.9603 28.5L41.9603 19.5967ZM51.8945 25.2949Q51.8945 25.333 51.8594 25.7988L46.9756 25.7988Q47.1074 26.3994 47.5996 26.748Q48.0918 27.0967 48.8242 27.0967Q49.3281 27.0967 49.7178 26.9473Q50.1074 26.7949 50.4443 26.4727L51.4404 27.5508Q50.5293 28.5967 48.7773 28.5967Q47.6846 28.5967 46.8437 28.1719Q46.0029 27.7441 45.5459 26.9883Q45.0918 26.2324 45.0918 25.2715Q45.0918 24.3252 45.54 23.5635Q45.9912 22.7988 46.7764 22.374Q47.5644 21.9492 48.5371 21.9492Q49.4834 21.9492 50.251 22.3564Q51.0185 22.7637 51.4551 23.5254Q51.8945 24.2871 51.8945 25.2949ZM48.5488 23.3643Q47.9131 23.3643 47.4795 23.7246Q47.0488 24.085 46.9521 24.709L50.1309 24.709Q50.0371 24.0967 49.6035 23.7305Q49.1728 23.3643 48.5488 23.3643ZM57.0671 21.9492Q58.2683 21.9492 59.0066 22.6699Q59.7448 23.3877 59.7448 24.8027L59.7448 28.5L57.8728 28.5L57.8728 25.0928Q57.8728 24.3252 57.5359 23.9473Q57.1989 23.5693 56.5632 23.5693Q55.8571 23.5693 55.4353 24.0088Q55.0163 24.4453 55.0163 25.3066L55.0163 28.5L53.1443 28.5L53.1443 22.043L54.9314 22.043L54.9314 22.7988Q55.3034 22.3916 55.8542 22.1719Q56.4079 21.9492 57.0671 21.9492ZM65.5993 28.1895Q65.324 28.3916 64.9226 28.4941Q64.5212 28.5967 64.0759 28.5967Q62.9245 28.5967 62.2947 28.0078Q61.6648 27.4189 61.6648 26.2793L61.6648 23.6279L60.6687 23.6279L60.6687 22.1895L61.6648 22.1895L61.6648 20.6162L63.5368 20.6162L63.5368 22.1895L65.1452 22.1895L65.1452 23.6279L63.5368 23.6279L63.5368 26.2559Q63.5368 26.6631 63.7449 26.8857Q63.9558 27.1084 64.3396 27.1084Q64.7849 27.1084 65.0954 26.8682L65.5993 28.1895Z" fill="#000000" fill-opacity="1.000000" fill-rule="evenodd"/>
</svg>
