<svg width="158.000854" height="36.000000" viewBox="0 0 158.001 36" fill="none" xmlns="http://www.w3.org/2000/svg" xmlns:xlink="http://www.w3.org/1999/xlink">
	<desc>
			Created with Pixso.
	</desc>
	<defs>
		<clipPath id="clip1_1088">
			<rect id="tp_icons 1" width="74.000000" height="14.000000" transform="translate(8.000000 4.000000)" fill="white" fill-opacity="0"/>
		</clipPath>
	</defs>
	<rect id="header_2" rx="4.000000" width="158.000870" height="36.000000" fill="#D5D5D5" fill-opacity="1.000000"/>
	<rect id="tp_icons 1" width="74.000000" height="14.000000" transform="translate(8.000000 4.000000)" fill="#FFFFFF" fill-opacity="0"/>
	<g clip-path="url(#clip1_1088)">
		<path id="Rectangle-path" d="M8 4L22 4L22 18L8 18L8 4Z" fill="#00B67A" fill-opacity="1.000000" fill-rule="evenodd"/>
		<path id="Rectangle-path" d="M23 4L37 4L37 18L23 18L23 4Z" fill="#00B67A" fill-opacity="1.000000" fill-rule="evenodd"/>
		<path id="Rectangle-path" d="M38 4L52 4L52 18L38 18L38 4Z" fill="#00B67A" fill-opacity="1.000000" fill-rule="evenodd"/>
		<path id="Rectangle-path" d="M53 4L67 4L67 18L53 18L53 4Z" fill="#00B67A" fill-opacity="1.000000" fill-rule="evenodd"/>
		<path id="Shape" d="M15.0134 13.4321L17.1476 12.8926L18.0394 15.6343L15.0134 13.4321ZM19.9251 9.88867L16.1682 9.88867L15.0134 6.35938L13.8585 9.88867L10.1016 9.88867L13.1422 12.0762L11.9873 15.605L15.028 13.4175L16.8991 12.0762L19.9251 9.88867Z" fill="#D5D5D5" fill-opacity="1.000000" fill-rule="nonzero"/>
		<path id="Shape" d="M30.2165 13.4321L32.3508 12.8926L33.2425 15.6343L30.2165 13.4321ZM35.1282 9.88867L31.3713 9.88867L30.2165 6.35938L29.0616 9.88867L25.3047 9.88867L28.3453 12.0762L27.1904 15.605L30.2311 13.4175L32.1022 12.0762L35.1282 9.88867Z" fill="#D5D5D5" fill-opacity="1.000000" fill-rule="nonzero"/>
		<path id="Shape" d="M45.4196 13.4321L47.5539 12.8926L48.4456 15.6343L45.4196 13.4321ZM50.3314 9.88867L46.5745 9.88867L45.4196 6.35938L44.2648 9.88867L40.5078 9.88867L43.5485 12.0762L42.3936 15.605L45.4342 13.4175L47.3054 12.0762L50.3314 9.88867Z" fill="#D5D5D5" fill-opacity="1.000000" fill-rule="nonzero"/>
		<path id="Shape" d="M60.6227 13.4321L62.757 12.8926L63.6487 15.6343L60.6227 13.4321ZM65.5345 9.88867L61.7776 9.88867L60.6227 6.35938L59.4679 9.88867L55.7109 9.88867L58.7516 12.0762L57.5967 15.605L60.6373 13.4175L62.5085 12.0762L65.5345 9.88867Z" fill="#D5D5D5" fill-opacity="1.000000" fill-rule="nonzero"/>
		<path id="Rectangle-path" d="M68 4L82 4L82 18L68 18L68 4Z" fill="#00B67A" fill-opacity="1.000000" fill-rule="evenodd"/>
		<path id="Shape" d="M75.8259 13.4321L77.9601 12.8926L78.8519 15.6343L75.8259 13.4321ZM80.7376 9.88867L76.9807 9.88867L75.8259 6.35938L74.671 9.88867L70.9141 9.88867L73.9547 12.0762L72.7998 15.605L75.8405 13.4175L77.7116 12.0762L80.7376 9.88867Z" fill="#D5D5D5" fill-opacity="1.000000" fill-rule="nonzero"/>
	</g>
	<path id="Text 12" d="M12.0872 29.0645Q11.2395 29.0645 10.5598 28.6934Q9.88015 28.3203 9.49148 27.6641Q9.10476 27.0078 9.10476 26.1992Q9.10476 25.3926 9.49148 24.7363Q9.88015 24.0801 10.5598 23.709Q11.2395 23.3359 12.0872 23.3359Q12.927 23.3359 13.6067 23.709Q14.2884 24.0801 14.6712 24.7324Q15.0559 25.3848 15.0559 26.1992Q15.0559 27.0156 14.6712 27.668Q14.2884 28.3203 13.6067 28.6934Q12.927 29.0645 12.0872 29.0645ZM12.0872 28.3516Q12.7044 28.3516 13.1966 28.0723Q13.6887 27.793 13.9719 27.3008Q14.2551 26.8086 14.2551 26.1992Q14.2551 25.5918 13.9719 25.0996Q13.6887 24.6074 13.1966 24.3281Q12.7044 24.0488 12.0872 24.0488Q11.4719 24.0488 10.9719 24.3281Q10.4719 24.6074 10.1868 25.0996Q9.90359 25.5918 9.90359 26.1992Q9.90359 26.8086 10.1868 27.3008Q10.4719 27.793 10.9719 28.0723Q11.4719 28.3516 12.0872 28.3516ZM19.9205 24.7598L18.063 29L17.2798 29L15.4244 24.7598L16.2232 24.7598L17.6802 28.1602L19.1685 24.7598L19.9205 24.7598ZM24.3525 26.9043Q24.3525 26.9922 24.3369 27.1367L20.8955 27.1367Q20.9678 27.6953 21.3877 28.0371Q21.8076 28.377 22.4326 28.377Q23.1924 28.377 23.6553 27.8633L24.0791 28.3594Q23.792 28.6953 23.3643 28.873Q22.9365 29.0488 22.4072 29.0488Q21.7354 29.0488 21.2158 28.7734Q20.6963 28.4961 20.4111 28Q20.1279 27.5039 20.1279 26.8809Q20.1279 26.2637 20.4033 25.7676Q20.6807 25.2715 21.1631 24.9961Q21.6475 24.7207 22.2568 24.7207Q22.8643 24.7207 23.3389 24.9961Q23.8154 25.2715 24.083 25.7676Q24.3525 26.2637 24.3525 26.9043ZM22.2568 25.3672Q21.7041 25.3672 21.3311 25.7031Q20.96 26.0391 20.8955 26.584L23.6162 26.584Q23.5518 26.0488 23.1787 25.709Q22.8076 25.3672 22.2568 25.3672ZM26.1528 25.4727Q26.3521 25.1035 26.7427 24.9121Q27.1353 24.7207 27.6958 24.7207L27.6958 25.4648Q27.6314 25.4551 27.52 25.4551Q26.895 25.4551 26.5396 25.8281Q26.1841 26.1992 26.1841 26.8887L26.1841 29L25.4165 29L25.4165 24.7598L26.1528 24.7598L26.1528 25.4727ZM32.5927 23.4004L32.5927 29L31.2958 29L31.2958 24.4395L30.1766 24.4395L30.1766 23.4004L32.5927 23.4004ZM35.9689 29.0957Q35.2716 29.0957 34.7267 28.752Q34.1837 28.4082 33.8751 27.7559Q33.5685 27.1035 33.5685 26.1992Q33.5685 25.2969 33.8751 24.6445Q34.1837 23.9922 34.7267 23.6484Q35.2716 23.3047 35.9689 23.3047Q36.6642 23.3047 37.2072 23.6484Q37.7521 23.9922 38.0587 24.6445Q38.3673 25.2969 38.3673 26.1992Q38.3673 27.1035 38.0587 27.7559Q37.7521 28.4082 37.2072 28.752Q36.6642 29.0957 35.9689 29.0957ZM35.9689 28Q36.4806 28 36.7716 27.5605Q37.0646 27.1191 37.0646 26.1992Q37.0646 25.2793 36.7716 24.8398Q36.4806 24.4004 35.9689 24.4004Q35.463 24.4004 35.1701 24.8398Q34.879 25.2793 34.879 26.1992Q34.879 27.1191 35.1701 27.5605Q35.463 28 35.9689 28ZM39.6406 27.5117Q39.9766 27.5117 40.1914 27.7246Q40.4082 27.9355 40.4082 28.2793Q40.4082 28.4395 40.3672 28.5996Q40.3281 28.7598 40.1914 29.0801L39.7363 30.2324L38.9434 30.2324L39.2969 28.9609Q39.0957 28.8809 38.9785 28.7012Q38.8633 28.5195 38.8633 28.2793Q38.8633 27.9355 39.084 27.7246Q39.3047 27.5117 39.6406 27.5117ZM43.2889 29.0957Q42.5916 29.0957 42.0467 28.752Q41.5037 28.4082 41.1951 27.7559Q40.8885 27.1035 40.8885 26.1992Q40.8885 25.2969 41.1951 24.6445Q41.5037 23.9922 42.0467 23.6484Q42.5916 23.3047 43.2889 23.3047Q43.9842 23.3047 44.5272 23.6484Q45.0721 23.9922 45.3787 24.6445Q45.6873 25.2969 45.6873 26.1992Q45.6873 27.1035 45.3787 27.7559Q45.0721 28.4082 44.5272 28.752Q43.9842 29.0957 43.2889 29.0957ZM43.2889 28Q43.8006 28 44.0916 27.5605Q44.3846 27.1191 44.3846 26.1992Q44.3846 25.2793 44.0916 24.8398Q43.8006 24.4004 43.2889 24.4004Q42.783 24.4004 42.4901 24.8398Q42.199 25.2793 42.199 26.1992Q42.199 27.1191 42.4901 27.5605Q42.783 28 43.2889 28ZM48.7209 29.0957Q48.0236 29.0957 47.4787 28.752Q46.9357 28.4082 46.6271 27.7559Q46.3205 27.1035 46.3205 26.1992Q46.3205 25.2969 46.6271 24.6445Q46.9357 23.9922 47.4787 23.6484Q48.0236 23.3047 48.7209 23.3047Q49.4162 23.3047 49.9592 23.6484Q50.5041 23.9922 50.8107 24.6445Q51.1193 25.2969 51.1193 26.1992Q51.1193 27.1035 50.8107 27.7559Q50.5041 28.4082 49.9592 28.752Q49.4162 29.0957 48.7209 29.0957ZM48.7209 28Q49.2326 28 49.5236 27.5605Q49.8166 27.1191 49.8166 26.1992Q49.8166 25.2793 49.5236 24.8398Q49.2326 24.4004 48.7209 24.4004Q48.215 24.4004 47.9221 24.8398Q47.631 25.2793 47.631 26.1992Q47.631 27.1191 47.9221 27.5605Q48.215 28 48.7209 28ZM54.1529 29.0957Q53.4556 29.0957 52.9107 28.752Q52.3677 28.4082 52.0591 27.7559Q51.7525 27.1035 51.7525 26.1992Q51.7525 25.2969 52.0591 24.6445Q52.3677 23.9922 52.9107 23.6484Q53.4556 23.3047 54.1529 23.3047Q54.8482 23.3047 55.3912 23.6484Q55.9361 23.9922 56.2427 24.6445Q56.5513 25.2969 56.5513 26.1992Q56.5513 27.1035 56.2427 27.7559Q55.9361 28.4082 55.3912 28.752Q54.8482 29.0957 54.1529 29.0957ZM54.1529 28Q54.6646 28 54.9556 27.5605Q55.2486 27.1191 55.2486 26.1992Q55.2486 25.2793 54.9556 24.8398Q54.6646 24.4004 54.1529 24.4004Q53.647 24.4004 53.3541 24.8398Q53.063 25.2793 53.063 26.1992Q53.063 27.1191 53.3541 27.5605Q53.647 28 54.1529 28ZM60.9036 25.2637Q61.1282 24.9512 61.5071 24.793Q61.8879 24.6328 62.384 24.6328L62.384 25.7832Q62.1751 25.7676 62.1047 25.7676Q61.5676 25.7676 61.2629 26.0684Q60.9602 26.3672 60.9602 26.9688L60.9602 29L59.7122 29L59.7122 24.6953L60.9036 24.6953L60.9036 25.2637ZM67.303 26.8633Q67.303 26.8887 67.2796 27.1992L64.0237 27.1992Q64.1116 27.5996 64.4397 27.832Q64.7679 28.0645 65.2561 28.0645Q65.5921 28.0645 65.8518 27.9648Q66.1116 27.8633 66.3362 27.6484L67.0003 28.3672Q66.3929 29.0645 65.2249 29.0645Q64.4964 29.0645 63.9358 28.7812Q63.3753 28.4961 63.0706 27.9922Q62.7679 27.4883 62.7679 26.8477Q62.7679 26.2168 63.0667 25.709Q63.3675 25.1992 63.8909 24.916Q64.4163 24.6328 65.0647 24.6328Q65.6956 24.6328 66.2073 24.9043Q66.719 25.1758 67.01 25.6836Q67.303 26.1914 67.303 26.8633ZM65.0725 25.5762Q64.6487 25.5762 64.3596 25.8164Q64.0725 26.0566 64.0081 26.4727L66.1272 26.4727Q66.0647 26.0645 65.7757 25.8203Q65.4886 25.5762 65.0725 25.5762ZM72.3277 24.6953L70.5112 29L69.2241 29L67.4155 24.6953L68.7046 24.6953L69.896 27.623L71.1284 24.6953L72.3277 24.6953ZM72.8402 24.6953L74.0882 24.6953L74.0882 29L72.8402 29L72.8402 24.6953ZM73.4632 24.0957Q73.1195 24.0957 72.9027 23.8965Q72.6878 23.6953 72.6878 23.4004Q72.6878 23.1035 72.9027 22.9043Q73.1195 22.7031 73.4632 22.7031Q73.807 22.7031 74.0238 22.8965Q74.2406 23.0879 74.2406 23.377Q74.2406 23.6875 74.0238 23.8926Q73.807 24.0957 73.4632 24.0957ZM79.463 26.8633Q79.463 26.8887 79.4396 27.1992L76.1837 27.1992Q76.2716 27.5996 76.5997 27.832Q76.9279 28.0645 77.4161 28.0645Q77.7521 28.0645 78.0118 27.9648Q78.2716 27.8633 78.4962 27.6484L79.1603 28.3672Q78.5529 29.0645 77.3849 29.0645Q76.6564 29.0645 76.0958 28.7812Q75.5353 28.4961 75.2306 27.9922Q74.9279 27.4883 74.9279 26.8477Q74.9279 26.2168 75.2267 25.709Q75.5275 25.1992 76.0509 24.916Q76.5763 24.6328 77.2247 24.6328Q77.8556 24.6328 78.3673 24.9043Q78.879 25.1758 79.17 25.6836Q79.463 26.1914 79.463 26.8633ZM77.2325 25.5762Q76.8087 25.5762 76.5197 25.8164Q76.2325 26.0566 76.1681 26.4727L78.2872 26.4727Q78.2247 26.0645 77.9357 25.8203Q77.6486 25.5762 77.2325 25.5762ZM87.1283 24.6953L85.5677 29L84.3685 29L83.3998 26.3281L82.3998 29L81.2005 29L79.6478 24.6953L80.8236 24.6953L81.8392 27.6074L82.8959 24.6953L83.9525 24.6953L84.9759 27.6074L86.0248 24.6953L87.1283 24.6953ZM89.0954 29.0645Q88.5603 29.0645 88.0486 28.9336Q87.5368 28.8008 87.2322 28.5996L87.6482 27.7031Q87.9353 27.8887 88.3435 28.0039Q88.7517 28.1191 89.1443 28.1191Q89.9353 28.1191 89.9353 27.7285Q89.9353 27.5449 89.7185 27.4648Q89.5036 27.3848 89.0564 27.3281Q88.5271 27.248 88.1833 27.1445Q87.8396 27.0391 87.5876 26.7754Q87.3357 26.5117 87.3357 26.0234Q87.3357 25.6152 87.572 25.3008Q87.8083 24.9844 88.2595 24.8086Q88.7126 24.6328 89.3279 24.6328Q89.7849 24.6328 90.2361 24.7324Q90.6872 24.832 90.9841 25.0078L90.5681 25.8965Q89.9997 25.5762 89.3279 25.5762Q88.9275 25.5762 88.7263 25.6895Q88.5271 25.8008 88.5271 25.9766Q88.5271 26.1758 88.7439 26.2559Q88.9607 26.3359 89.4314 26.4082Q89.9607 26.4961 90.2966 26.5957Q90.6325 26.6953 90.8806 26.9609Q91.1286 27.2246 91.1286 27.6953Q91.1286 28.0957 90.8884 28.4082Q90.6482 28.7207 90.1872 28.8926Q89.7282 29.0645 89.0954 29.0645ZM96.0169 29.0488Q95.3841 29.0488 94.8802 28.7695Q94.3763 28.4883 94.0911 27.9961Q93.8079 27.5039 93.8079 26.8809Q93.8079 26.2559 94.0911 25.7637Q94.3763 25.2715 94.8802 24.9961Q95.3841 24.7207 96.0169 24.7207Q96.6478 24.7207 97.1478 24.9961Q97.6478 25.2715 97.931 25.7637Q98.2161 26.2559 98.2161 26.8809Q98.2161 27.5039 97.931 27.9961Q97.6478 28.4883 97.1478 28.7695Q96.6478 29.0488 96.0169 29.0488ZM96.0169 28.377Q96.4232 28.377 96.7474 28.1895Q97.0716 28 97.2552 27.6602Q97.4408 27.3203 97.4408 26.8809Q97.4408 26.4395 97.2552 26.0996Q97.0716 25.7598 96.7474 25.5762Q96.4232 25.3926 96.0169 25.3926Q95.6087 25.3926 95.2845 25.5762Q94.9603 25.7598 94.7708 26.0996Q94.5833 26.4395 94.5833 26.8809Q94.5833 27.3203 94.7708 27.6602Q94.9603 28 95.2845 28.1895Q95.6087 28.377 96.0169 28.377ZM101.544 24.7207Q102.353 24.7207 102.827 25.1895Q103.304 25.6562 103.304 26.5605L103.304 29L102.536 29L102.536 26.6484Q102.536 26.0312 102.24 25.7207Q101.945 25.4082 101.392 25.4082Q100.769 25.4082 100.407 25.7734Q100.048 26.1367 100.048 26.8164L100.048 29L99.2805 29L99.2805 24.7598L100.017 24.7598L100.017 25.4004Q100.247 25.0723 100.644 24.8965Q101.04 24.7207 101.544 24.7207Z" fill="#000000" fill-opacity="1.000000" fill-rule="evenodd"/>
	<path id="Vector" d="M117.562 24.251L122.014 24.251L122.014 25.1719L120.261 25.1719L120.261 30.3623L119.3 30.3623L119.3 25.1719L117.555 25.1719L117.562 24.251ZM121.823 25.9375L122.645 25.9375L122.645 26.7935L122.659 26.7935C122.689 26.6709 122.74 26.5571 122.813 26.4429C122.887 26.3286 122.975 26.2227 123.085 26.1333C123.187 26.0356 123.305 25.9619 123.437 25.9053C123.561 25.8481 123.693 25.8154 123.825 25.8154C123.928 25.8154 124.001 25.8237 124.038 25.8237C124.075 25.8315 124.119 25.8398 124.155 25.8398L124.155 26.7769C124.097 26.7607 124.031 26.7524 123.965 26.7441C123.899 26.7363 123.84 26.728 123.774 26.728C123.627 26.728 123.488 26.7607 123.356 26.8257C123.224 26.8911 123.114 26.9888 123.011 27.1108C122.916 27.2412 122.835 27.396 122.777 27.5835C122.718 27.771 122.689 27.9912 122.689 28.2354L122.689 30.3379L121.808 30.3379L121.823 25.9375ZM128.189 30.3623L127.324 30.3623L127.324 29.7432L127.309 29.7432C127.199 29.9712 127.038 30.1421 126.825 30.2808C126.612 30.4194 126.392 30.4844 126.172 30.4844C125.652 30.4844 125.27 30.3457 125.036 30.0527C124.801 29.7676 124.683 29.3271 124.683 28.749L124.683 25.9375L125.564 25.9375L125.564 28.6509C125.564 29.042 125.63 29.3193 125.769 29.4741C125.901 29.6372 126.092 29.7188 126.334 29.7188C126.517 29.7188 126.671 29.686 126.796 29.6206C126.92 29.5557 127.023 29.4741 127.096 29.3682C127.177 29.2622 127.228 29.1318 127.265 28.9854C127.302 28.8384 127.316 28.6753 127.316 28.5044L127.316 25.9375L128.197 25.9375L128.197 30.3623L128.189 30.3623ZM129.685 28.9443C129.715 29.2295 129.81 29.4253 129.979 29.5474C130.147 29.6616 130.353 29.7188 130.587 29.7188C130.668 29.7188 130.763 29.7104 130.866 29.6938C130.969 29.6777 131.072 29.6533 131.16 29.6128C131.255 29.5718 131.328 29.5146 131.387 29.4331C131.446 29.3521 131.475 29.2539 131.468 29.1318C131.46 29.0098 131.424 28.9038 131.343 28.8223C131.262 28.7407 131.167 28.6836 131.05 28.6265C130.932 28.5776 130.793 28.5371 130.639 28.5044C130.485 28.4717 130.331 28.4312 130.169 28.3901C130.008 28.3496 129.847 28.3008 129.693 28.2437C129.539 28.1865 129.407 28.1133 129.282 28.0073C129.165 27.9097 129.062 27.7876 128.996 27.6323C128.923 27.4775 128.886 27.2983 128.886 27.0703C128.886 26.8257 128.937 26.6304 129.047 26.4673C129.15 26.3042 129.289 26.1738 129.451 26.0762C129.612 25.9785 129.795 25.9053 129.993 25.8643C130.191 25.8237 130.382 25.8071 130.558 25.8071C130.763 25.8071 130.962 25.8315 131.145 25.8809C131.328 25.9297 131.504 26.0029 131.651 26.1172C131.805 26.2227 131.93 26.3696 132.025 26.5405C132.128 26.7119 132.186 26.9238 132.216 27.168L131.299 27.168C131.255 26.9316 131.16 26.7769 131.013 26.6953C130.859 26.6138 130.69 26.5732 130.492 26.5732C130.433 26.5732 130.353 26.5815 130.272 26.5894C130.184 26.606 130.111 26.6221 130.03 26.6548C129.957 26.6875 129.891 26.7363 129.839 26.7935C129.788 26.8501 129.759 26.9316 129.759 27.0298C129.759 27.1519 129.795 27.2412 129.869 27.3149C129.942 27.3882 130.037 27.4453 130.162 27.502C130.279 27.5513 130.419 27.5918 130.573 27.6245C130.727 27.6567 130.888 27.6978 131.05 27.7383C131.211 27.7793 131.365 27.8281 131.519 27.8853C131.673 27.9424 131.812 28.0156 131.93 28.1216C132.047 28.2192 132.15 28.3413 132.223 28.4883C132.296 28.6348 132.333 28.8223 132.333 29.0342C132.333 29.2949 132.282 29.5146 132.172 29.7021C132.062 29.8813 131.922 30.0361 131.754 30.1504C131.585 30.2646 131.387 30.3457 131.182 30.4028C130.969 30.4517 130.763 30.4844 130.558 30.4844C130.309 30.4844 130.074 30.4517 129.861 30.3867C129.649 30.3213 129.458 30.2236 129.304 30.1016C129.15 29.9712 129.025 29.8164 128.937 29.6206C128.849 29.4331 128.798 29.2051 128.791 28.936L129.678 28.936L129.678 28.9443L129.685 28.9443ZM132.582 25.9375L133.25 25.9375L133.25 24.6016L134.13 24.6016L134.13 25.9297L134.922 25.9297L134.922 26.6548L134.13 26.6548L134.13 29.0176C134.13 29.1235 134.137 29.2051 134.145 29.2866C134.152 29.3599 134.174 29.4253 134.196 29.4741C134.225 29.5229 134.269 29.5635 134.321 29.5884C134.379 29.6128 134.453 29.6289 134.555 29.6289C134.614 29.6289 134.68 29.6289 134.739 29.6206C134.797 29.6128 134.863 29.6045 134.922 29.5884L134.922 30.3457C134.827 30.3623 134.731 30.3706 134.636 30.3784C134.541 30.395 134.453 30.395 134.35 30.395C134.115 30.395 133.932 30.3706 133.793 30.3213C133.653 30.2725 133.543 30.1992 133.462 30.1099C133.382 30.0117 133.33 29.8979 133.301 29.7593C133.272 29.6206 133.257 29.4497 133.25 29.2705L133.25 26.6631L132.582 26.6631L132.582 25.9214L132.582 25.9375ZM135.538 25.9375L136.367 25.9375L136.367 26.5405L136.381 26.5405C136.506 26.2798 136.675 26.1006 136.895 25.9868C137.115 25.8726 137.35 25.8154 137.614 25.8154C137.929 25.8154 138.2 25.8726 138.435 26.0029C138.67 26.125 138.86 26.2881 139.014 26.5083C139.168 26.7197 139.286 26.9727 139.359 27.2578C139.432 27.543 139.476 27.8525 139.476 28.1704C139.476 28.4717 139.44 28.7568 139.374 29.0342C139.3 29.311 139.198 29.5635 139.058 29.7754C138.919 29.9873 138.743 30.1587 138.523 30.2891C138.303 30.4194 138.054 30.4844 137.76 30.4844C137.636 30.4844 137.504 30.4683 137.379 30.4438C137.254 30.4194 137.13 30.3784 137.012 30.3213C136.895 30.2646 136.785 30.1909 136.689 30.1016C136.587 30.0117 136.506 29.9058 136.44 29.792L136.425 29.792L136.425 32L135.545 32L135.545 25.9375L135.538 25.9375ZM138.611 28.1538C138.611 27.9585 138.589 27.7627 138.538 27.5757C138.494 27.3882 138.42 27.2251 138.325 27.0786C138.23 26.9316 138.112 26.8179 137.98 26.728C137.841 26.6387 137.68 26.5977 137.504 26.5977C137.137 26.5977 136.858 26.7363 136.667 27.0215C136.484 27.3066 136.389 27.6895 136.389 28.1621C136.389 28.3901 136.411 28.5942 136.462 28.7812C136.513 28.9688 136.579 29.1318 136.682 29.2705C136.777 29.4087 136.895 29.5146 137.034 29.5962C137.174 29.6777 137.328 29.7188 137.511 29.7188C137.716 29.7188 137.878 29.6694 138.017 29.5801C138.156 29.4902 138.266 29.3682 138.362 29.2295C138.45 29.083 138.516 28.9199 138.552 28.7324C138.589 28.5371 138.611 28.3496 138.611 28.1538ZM140.159 24.251L141.039 24.251L141.039 25.1719L140.159 25.1719L140.159 24.251ZM140.159 25.9375L141.039 25.9375L141.039 30.3623L140.159 30.3623L140.159 25.9375ZM141.823 24.251L142.703 24.251L142.703 30.3623L141.823 30.3623L141.823 24.251ZM145.388 30.4844C145.072 30.4844 144.786 30.4272 144.537 30.3052C144.288 30.1831 144.082 30.0283 143.906 29.8242C143.738 29.6206 143.606 29.3682 143.518 29.083C143.43 28.7979 143.378 28.48 143.378 28.146C143.378 27.812 143.422 27.502 143.518 27.2168C143.606 26.9316 143.738 26.6875 143.906 26.4756C144.075 26.272 144.288 26.1089 144.537 25.9946C144.786 25.8809 145.072 25.8154 145.388 25.8154C145.703 25.8154 145.989 25.8726 146.239 25.9946C146.488 26.1089 146.693 26.272 146.869 26.4756C147.038 26.6792 147.17 26.9316 147.258 27.2168C147.346 27.502 147.397 27.812 147.397 28.146C147.397 28.4883 147.353 28.7979 147.258 29.083C147.163 29.3682 147.038 29.6128 146.869 29.8242C146.701 30.0283 146.488 30.1909 146.239 30.3052C145.989 30.4194 145.711 30.4844 145.388 30.4844ZM145.388 29.7104C145.578 29.7104 145.755 29.6616 145.894 29.5718C146.041 29.4824 146.151 29.3599 146.246 29.2134C146.341 29.0664 146.407 28.8955 146.451 28.7163C146.495 28.5288 146.517 28.3413 146.517 28.146C146.517 27.9585 146.495 27.771 146.451 27.5835C146.407 27.396 146.341 27.2334 146.246 27.0864C146.151 26.9399 146.033 26.8257 145.894 26.7363C145.747 26.6465 145.578 26.5977 145.388 26.5977C145.197 26.5977 145.021 26.6465 144.882 26.7363C144.735 26.8257 144.625 26.9482 144.53 27.0864C144.434 27.2334 144.368 27.396 144.324 27.5835C144.28 27.771 144.258 27.9585 144.258 28.146C144.258 28.3413 144.28 28.5288 144.324 28.7163C144.368 28.9038 144.434 29.0664 144.53 29.2134C144.625 29.3599 144.742 29.4824 144.882 29.5718C145.028 29.6694 145.197 29.7104 145.388 29.7104ZM147.661 25.9375L148.329 25.9375L148.329 24.6016L149.209 24.6016L149.209 25.9297L150.001 25.9297L150.001 26.6548L149.209 26.6548L149.209 29.0176C149.209 29.1235 149.216 29.2051 149.224 29.2866C149.231 29.3599 149.253 29.4253 149.275 29.4741C149.304 29.5229 149.348 29.5635 149.4 29.5884C149.458 29.6128 149.532 29.6289 149.634 29.6289C149.693 29.6289 149.759 29.6289 149.818 29.6206C149.876 29.6128 149.942 29.6045 150.001 29.5884L150.001 30.3457C149.906 30.3623 149.81 30.3706 149.715 30.3784C149.62 30.395 149.532 30.395 149.429 30.395C149.194 30.395 149.011 30.3706 148.872 30.3213C148.732 30.2725 148.622 30.1992 148.541 30.1099C148.461 30.0117 148.409 29.8979 148.38 29.7593C148.351 29.6206 148.336 29.4497 148.329 29.2705L148.329 26.6631L147.661 26.6631L147.661 25.9214L147.661 25.9375Z" fill="#000000" fill-opacity="1.000000" fill-rule="nonzero"/>
	<path id="star-green-full" d="M116.539 24.2534L112.513 24.2534L111.273 20L110.026 24.2534L106 24.2451L109.256 26.877L108.01 31.1309L111.266 28.4985L114.522 31.1309L113.283 26.877L116.539 24.2534Z" fill="#00B67A" fill-opacity="1.000000" fill-rule="nonzero"/>
	<path id="Vector" d="M113.558 27.8359L113.279 26.8745L111.27 28.4961L113.558 27.8359Z" fill="#005128" fill-opacity="1.000000" fill-rule="nonzero"/>
</svg>
