<svg width="91.000000" height="36.000000" viewBox="0 0 91 36" fill="none" xmlns="http://www.w3.org/2000/svg" xmlns:xlink="http://www.w3.org/1999/xlink">
	<desc>
			Created with Pixso.
	</desc>
	<defs>
		<clipPath id="clip1_1085">
			<rect id="express" width="75.000000" height="28.000000" transform="translate(8.000000 4.000000)" fill="white" fill-opacity="0"/>
		</clipPath>
		<clipPath id="clip1_1084">
			<rect id="header_1" rx="4.000000" width="91.000000" height="36.000000" fill="white" fill-opacity="0"/>
		</clipPath>
	</defs>
	<rect id="header_1" rx="4.000000" width="91.000000" height="36.000000" fill="#D5D5D5" fill-opacity="1.000000"/>
	<g clip-path="url(#clip1_1084)">
		<rect id="express" width="75.000000" height="28.000000" transform="translate(8.000000 4.000000)" fill="#FFFFFF" fill-opacity="0"/>
		<g clip-path="url(#clip1_1085)">
			<path id="Vector" d="M25.9869 5.73828L25.9869 5.79395C25.954 6.01318 25.8558 6.20166 25.6923 6.35986C25.4316 6.61182 25.0917 6.80518 24.7673 6.95117C21.4482 8.44434 18.222 9.89453 15.0888 11.3018C14.9212 11.3774 14.742 11.4438 14.5511 11.5024C13.7281 11.7534 12.8769 11.8892 11.9974 11.9097C11.6591 11.918 11.3448 11.8853 11.0546 11.812C10.9068 11.7749 10.757 11.71 10.6337 11.6206C10.4203 11.4663 10.3053 11.2148 10.3992 10.9644C10.4402 10.855 10.501 10.7534 10.5817 10.6606C10.5852 10.6567 10.5872 10.6514 10.5872 10.6465C10.5873 10.6411 10.5854 10.6362 10.5821 10.6323L9.06653 8.81836C9.06512 8.81689 9.06421 8.81494 9.06366 8.81299C9.06317 8.81104 9.06317 8.80908 9.06366 8.80713C9.06415 8.80518 9.06512 8.80322 9.06647 8.80127C9.06781 8.7998 9.06952 8.79883 9.07147 8.79785L10.7402 8.04834C10.7499 8.04395 10.7609 8.04346 10.7709 8.04688L13.2802 8.96729C13.285 8.96875 13.2902 8.96973 13.2953 8.96924C13.3004 8.96924 13.3054 8.96777 13.31 8.96582L15.7195 7.86279C15.7214 7.86182 15.723 7.86035 15.7242 7.85889C15.7256 7.85742 15.7264 7.85547 15.7267 7.85352C15.7271 7.85107 15.7269 7.84912 15.7263 7.84717C15.7257 7.84521 15.7246 7.84326 15.7231 7.8418L11.9181 4.12402C11.9171 4.12305 11.9164 4.12158 11.9161 4.12012C11.9158 4.11914 11.916 4.11768 11.9164 4.11621C11.9169 4.11523 11.9178 4.11426 11.9189 4.11328C11.92 4.1123 11.9213 4.1123 11.9227 4.1123C12.8207 4.0752 13.715 4.03809 14.6057 4C14.6462 3.99854 14.6838 4.00586 14.7184 4.02295C16.2938 4.78613 17.8185 5.52539 19.2922 6.23926C19.2971 6.2417 19.3022 6.24268 19.3076 6.24268C19.3129 6.24316 19.3182 6.2417 19.323 6.23975C20.228 5.83154 21.1299 5.42627 22.0288 5.02441C23.086 4.55127 24.3473 4.34375 25.4065 4.94287C25.5163 5.00488 25.6155 5.07568 25.7041 5.15479C25.8807 5.31299 25.9749 5.50732 25.9869 5.73828ZM37.3617 20.4102L37.3617 20.9043C37.2776 24.0337 35.8871 26.9731 33.5086 29.0518C31.5524 30.7617 29.2367 31.7441 26.5616 32L24.5035 32C22.5877 31.8257 20.852 31.269 19.2965 30.3296C17.933 29.5063 16.7985 28.4854 15.8928 27.2671C14.4977 25.3892 13.7625 23.2725 13.6873 20.9165L13.6873 20.3965C13.7936 17.6182 14.783 15.2012 16.6553 13.145C16.8372 12.9453 17.0443 12.7529 17.2517 12.5605L17.2518 12.5605C17.3438 12.4751 17.436 12.3896 17.526 12.3032C17.7397 12.0981 17.983 11.916 18.223 11.7363L18.223 11.7358L18.223 11.7358C18.295 11.6821 18.3668 11.6284 18.4374 11.5742C18.6633 11.4004 18.9067 11.2524 19.153 11.1021L19.1531 11.1021C19.2164 11.0635 19.2798 11.0249 19.3432 10.9858C19.5717 10.8442 19.799 10.7197 20.0253 10.6113C20.0892 10.5811 20.1523 10.5503 20.2152 10.52C20.4669 10.3979 20.7131 10.2788 20.9773 10.1777C21.3038 10.0532 21.6134 9.94336 21.9062 9.84912C22.0493 9.80322 22.3073 9.7334 22.6803 9.63916C22.9442 9.57227 23.1946 9.521 23.4317 9.48486C23.5031 9.47412 23.5741 9.46289 23.6448 9.45166C23.9075 9.40967 24.1663 9.36865 24.423 9.35303C24.5156 9.34717 24.608 9.34033 24.7002 9.33398C25.0858 9.30664 25.4693 9.27979 25.8593 9.3042C25.9612 9.31055 26.0623 9.31543 26.1633 9.3208C26.3986 9.33252 26.6333 9.34424 26.8756 9.37256C28.4224 9.55029 29.8682 9.99609 31.2128 10.71C31.3907 10.8042 31.6747 10.9702 32.065 11.207C32.3038 11.3525 32.5244 11.5171 32.7435 11.6807L32.7436 11.6807C32.8032 11.7251 32.8626 11.7695 32.9223 11.8135C33.119 11.9575 33.3105 12.1152 33.4971 12.2866C33.5463 12.3315 33.5956 12.3765 33.6449 12.4214C33.8452 12.603 34.0449 12.7847 34.236 12.9868C36.2107 15.0752 37.2526 17.5498 37.3617 20.4102ZM22.5282 13.4873C22.4446 13.6665 22.363 13.8457 22.2831 14.0239C22.2826 14.0254 22.2823 14.0269 22.2825 14.0283C22.2826 14.0298 22.283 14.0308 22.2838 14.0322C22.2841 14.0327 22.2844 14.0332 22.2849 14.0337C22.2852 14.0337 22.2854 14.0342 22.2857 14.0342C22.2859 14.0347 22.2863 14.0347 22.2866 14.0352C22.2872 14.0356 22.2879 14.0356 22.2886 14.0361C22.2892 14.0361 22.2899 14.0361 22.2905 14.0366C23.1151 14.1479 23.9418 14.2183 24.7708 14.2471C24.78 14.2476 24.7847 14.2432 24.7847 14.2339L24.7847 10.9028C24.7847 10.9023 24.7846 10.9014 24.7845 10.9009C24.7844 10.9004 24.7843 10.8999 24.7841 10.8994C24.7838 10.8984 24.7834 10.8975 24.783 10.8965C24.7819 10.895 24.7804 10.8936 24.7786 10.8921C24.7767 10.8911 24.7746 10.8906 24.7725 10.8901C24.7703 10.8901 24.7681 10.8906 24.7662 10.8916C24.2363 11.1343 23.79 11.5547 23.4359 12.0078C23.0752 12.4692 22.7726 12.9624 22.5282 13.4873ZM28.6036 13.666C28.3298 13.0483 27.9896 12.4829 27.5831 11.9707C27.2321 11.5288 26.8099 11.144 26.2897 10.8936C26.287 10.8926 26.2841 10.8921 26.2811 10.8921C26.2781 10.8921 26.2751 10.8931 26.2726 10.8945C26.2701 10.896 26.268 10.8979 26.2665 10.9009C26.2651 10.9033 26.2643 10.9058 26.2643 10.9087L26.2643 14.2217C26.2643 14.2388 26.2731 14.2466 26.2906 14.2461C27.1048 14.2173 27.9201 14.1475 28.7367 14.0371C28.7607 14.0337 28.7677 14.0215 28.7575 14C28.7067 13.8945 28.6553 13.7832 28.6036 13.666ZM20.8067 13.7451C21.1346 12.876 21.5752 12.062 22.1282 11.3022C22.1473 11.2759 22.1412 11.2681 22.1097 11.2788C21.5456 11.4731 20.996 11.7124 20.4608 11.9976C20.2637 12.1021 20.0773 12.2183 19.8937 12.333L19.8936 12.333L19.8936 12.333C19.8282 12.374 19.7633 12.4146 19.6984 12.4541C19.4568 12.6021 19.2327 12.7773 19.0097 12.9517C18.9202 13.0215 18.8309 13.0913 18.7407 13.1592C18.7389 13.1606 18.7375 13.1621 18.7367 13.1641C18.7359 13.1665 18.7357 13.1685 18.736 13.1704C18.7365 13.1729 18.7374 13.1748 18.7389 13.1763C18.7404 13.1782 18.7422 13.1792 18.7444 13.1802C18.8165 13.2036 18.889 13.2275 18.9619 13.2515L18.9619 13.2515L18.962 13.2515L18.962 13.2515C19.3325 13.374 19.7117 13.4995 20.09 13.5918C20.3144 13.647 20.541 13.7041 20.7697 13.7632C20.7772 13.7651 20.7852 13.7642 20.792 13.7607C20.7988 13.7573 20.8041 13.752 20.8067 13.7451ZM29.2537 11.395C29.1501 11.3564 29.0438 11.3203 28.9346 11.2856C28.91 11.2783 28.9049 11.2847 28.9194 11.3047C29.4645 12.0684 29.9112 12.8765 30.2399 13.7451C30.2421 13.751 30.2464 13.7559 30.2521 13.7588C30.2579 13.7617 30.2645 13.7627 30.2709 13.7612C30.9642 13.6113 31.6421 13.4165 32.3045 13.1777C32.3062 13.1772 32.3076 13.1763 32.3087 13.1748C32.3097 13.1733 32.3104 13.1719 32.3107 13.1704C32.311 13.1685 32.3109 13.167 32.3102 13.1655C32.3099 13.1646 32.3095 13.1641 32.3091 13.1631C32.3088 13.1631 32.3085 13.1626 32.3082 13.1621C32.3079 13.1621 32.3076 13.1616 32.3073 13.1611C31.3736 12.394 30.3557 11.8052 29.2537 11.395ZM33.2469 14.3389C32.4454 14.6636 31.61 14.9248 30.7407 15.1211C30.7341 15.123 30.7285 15.127 30.725 15.1323C30.7214 15.1377 30.7202 15.1445 30.7217 15.1509C30.7526 15.2812 30.785 15.4126 30.8174 15.5449C30.9071 15.9097 30.9978 16.2788 31.0616 16.6411C31.0971 16.8433 31.133 17.0454 31.1694 17.2476C31.2245 17.5532 31.2597 17.8677 31.2946 18.1792C31.3015 18.2412 31.3084 18.3027 31.3155 18.3643C31.3636 18.7812 31.3848 19.1963 31.4061 19.6123L31.4061 19.6123L31.4061 19.6128L31.4061 19.6128L31.4061 19.6128L31.4061 19.6128C31.4117 19.7207 31.4172 19.8286 31.4232 19.937C31.4235 19.9419 31.4257 19.9463 31.4294 19.9497C31.433 19.9526 31.438 19.9546 31.4431 19.9546L35.8238 19.9546C35.826 19.9546 35.8284 19.9541 35.8304 19.9536C35.8325 19.9526 35.8344 19.9512 35.8359 19.9497C35.8375 19.9482 35.8386 19.9463 35.8394 19.9438C35.84 19.9419 35.8403 19.9399 35.84 19.938C35.6621 17.8086 34.8654 15.9253 33.4499 14.2881C33.4394 14.2754 33.4263 14.272 33.4106 14.2773C33.3566 14.2959 33.3021 14.3159 33.2469 14.3389ZM15.9872 16.8149C15.5504 17.8076 15.2896 18.8506 15.2048 19.9438C15.2042 19.9512 15.2076 19.9546 15.215 19.9546L19.597 19.9546C19.6057 19.9546 19.6141 19.9517 19.6203 19.9458C19.6265 19.9399 19.6301 19.9316 19.6304 19.9233C19.6677 18.6538 19.8104 17.4419 20.0585 16.2881C20.1412 15.9038 20.2315 15.5254 20.3295 15.1523C20.3304 15.1489 20.3306 15.1455 20.33 15.1421C20.3295 15.1387 20.3282 15.1353 20.3263 15.1323C20.3244 15.1294 20.3219 15.127 20.319 15.1245C20.316 15.1226 20.3127 15.1211 20.3091 15.1206C19.3822 14.9121 18.4949 14.6299 17.6472 14.2739C17.6327 14.2681 17.6204 14.2705 17.6102 14.2822C16.9326 15.0518 16.3917 15.896 15.9872 16.8149ZM21.1091 19.9346C21.1088 19.9482 21.1157 19.9546 21.1299 19.9546L24.7504 19.9546C24.7595 19.9546 24.7682 19.9512 24.7746 19.9448C24.7811 19.939 24.7847 19.9307 24.7847 19.9219L24.7847 15.6797C24.7847 15.6768 24.7834 15.6738 24.7812 15.6719C24.7792 15.6699 24.7762 15.6685 24.7731 15.6685C23.7894 15.6436 22.8044 15.5571 21.8179 15.4092C21.8139 15.4087 21.8098 15.4097 21.8064 15.4116C21.803 15.4136 21.8005 15.417 21.7994 15.4204C21.3848 16.8779 21.1547 18.3828 21.1091 19.9346ZM29.4303 16.1191C29.376 15.9009 29.3184 15.6704 29.2574 15.4282C29.2537 15.4136 29.244 15.4067 29.2282 15.4092C28.2449 15.5571 27.2643 15.6431 26.2865 15.668C26.2717 15.6685 26.2643 15.6758 26.2643 15.6899L26.2643 19.9219C26.2643 19.9307 26.2679 19.939 26.2744 19.9448C26.2807 19.9512 26.2895 19.9546 26.2985 19.9546L29.9274 19.9546C29.9283 19.9546 29.9292 19.9546 29.9301 19.9546C29.9307 19.9541 29.9315 19.9541 29.9321 19.9536C29.9336 19.9531 29.9349 19.9521 29.936 19.9512C29.9372 19.9502 29.938 19.9487 29.9386 19.9478C29.9392 19.9463 29.9395 19.9448 29.9394 19.9429C29.9038 18.6626 29.7419 17.3682 29.4303 16.1191ZM17.957 27.0464C18.7397 26.7251 19.5325 26.4692 20.3355 26.2788C20.3362 26.2783 20.3369 26.2783 20.3376 26.2783C20.3385 26.2778 20.3393 26.2773 20.3401 26.2769C20.3406 26.2769 20.3411 26.2764 20.3416 26.2764C20.3421 26.2759 20.3427 26.2759 20.3431 26.2754C20.3453 26.2739 20.3473 26.272 20.3488 26.2695C20.3502 26.2671 20.3512 26.2646 20.3516 26.2622C20.3521 26.2593 20.3519 26.2568 20.3513 26.2544C20.2733 25.9355 20.1959 25.6221 20.1191 25.3145C20.0569 25.0645 20.0107 24.8086 19.965 24.5552L19.965 24.5552L19.965 24.5552L19.965 24.5552C19.9473 24.4565 19.9295 24.3584 19.911 24.2612C19.8626 24.0059 19.8233 23.7446 19.7932 23.4775C19.7831 23.3901 19.7725 23.3027 19.7619 23.2144L19.7619 23.2144C19.7291 22.9429 19.6961 22.6694 19.6808 22.3994C19.6619 22.0684 19.6439 21.7339 19.6266 21.3955C19.6263 21.3906 19.624 21.3857 19.6202 21.3828C19.6165 21.3794 19.6115 21.3774 19.6063 21.3774L15.2363 21.3774C15.219 21.3774 15.2109 21.3857 15.2122 21.4023C15.2551 21.9443 15.34 22.4692 15.467 22.978C15.8526 24.5249 16.5909 25.9092 17.6818 27.1313C17.6938 27.1445 17.7085 27.1479 17.7258 27.1411C17.7261 27.1411 17.8032 27.1094 17.957 27.0464ZM21.805 25.9395C21.8077 25.9487 21.8139 25.957 21.8224 25.9624C21.831 25.9673 21.8412 25.9697 21.8513 25.9678C22.8343 25.8081 23.8026 25.7104 24.756 25.6748C24.7637 25.6743 24.7709 25.6714 24.7763 25.666C24.7816 25.6606 24.7847 25.6538 24.7847 25.646L24.7847 21.4106C24.7847 21.4019 24.7809 21.3936 24.7744 21.3872C24.7678 21.3809 24.7588 21.3774 24.7495 21.3774L21.1336 21.3774C21.1176 21.3774 21.1097 21.3853 21.11 21.4004C21.1538 22.9365 21.3854 24.4497 21.805 25.9395ZM29.2527 25.8662C29.2538 25.8662 29.255 25.8662 29.2562 25.8662C29.2574 25.8657 29.2587 25.8652 29.2599 25.8647C29.2621 25.8633 29.2636 25.8613 29.2643 25.8589C29.6703 24.4077 29.8953 22.9219 29.9394 21.4014C29.94 21.3853 29.932 21.3774 29.9153 21.3774L26.2879 21.3774C26.2722 21.3774 26.2643 21.3848 26.2643 21.3994L26.2643 25.6313C26.2643 25.6338 26.2648 25.6362 26.2658 25.6382C26.2668 25.6406 26.2682 25.6426 26.27 25.6445C26.2718 25.646 26.2739 25.6475 26.2763 25.6484C26.2772 25.6489 26.278 25.6489 26.279 25.6494C26.2797 25.6494 26.2805 25.6494 26.2812 25.6494C26.2816 25.6499 26.282 25.6499 26.2824 25.6499C26.2828 25.6499 26.2833 25.6499 26.2838 25.6499C27.2594 25.6572 28.249 25.7295 29.2527 25.8662ZM33.3611 26.9185C33.4055 26.936 33.4507 26.9497 33.4966 26.96C33.5104 26.9629 33.5219 26.959 33.5308 26.9482C34.8973 25.334 35.6695 23.4805 35.8474 21.3887C35.8475 21.3872 35.8474 21.3857 35.8468 21.3843C35.8464 21.3828 35.8456 21.3818 35.8446 21.3809C35.8436 21.3794 35.8424 21.3789 35.8411 21.3784C35.8407 21.3779 35.8403 21.3779 35.84 21.3779C35.8397 21.3779 35.8394 21.3774 35.8391 21.3774C35.8383 21.3774 35.8375 21.3774 35.8367 21.3774L31.4459 21.3774C31.4395 21.3774 31.4334 21.3799 31.4288 21.3838C31.4243 21.3882 31.4216 21.394 31.4214 21.3999C31.4084 21.8052 31.3867 22.1904 31.3561 22.5547C31.2526 23.7856 31.0485 24.9678 30.744 26.1011C30.7429 26.105 30.7427 26.1089 30.7433 26.1128C30.7439 26.1167 30.7454 26.1206 30.7475 26.124C30.7496 26.1274 30.7525 26.1304 30.7559 26.1323C30.7579 26.1338 30.7601 26.1353 30.7624 26.1357C30.7639 26.1367 30.7654 26.1372 30.7671 26.1372C31.6684 26.3267 32.5331 26.5869 33.3611 26.9185ZM28.7779 27.2798C28.7812 27.272 28.7847 27.2646 28.788 27.2573C28.7921 27.248 28.7889 27.2432 28.7788 27.2422C28.7586 27.2402 28.7384 27.2378 28.7181 27.2358C28.6974 27.2334 28.6766 27.2314 28.6558 27.229L28.6085 27.2241L28.6052 27.2236L28.6051 27.2236L28.605 27.2236C28.1143 27.1709 27.6013 27.1157 27.1086 27.0977C26.8506 27.0884 26.5784 27.0771 26.2921 27.064C26.2736 27.063 26.2643 27.0718 26.2643 27.0894L26.2643 30.4248C26.2643 30.4424 26.2723 30.4473 26.2883 30.439C26.679 30.2505 27.0364 29.9766 27.3607 29.6182C27.9793 28.9346 28.4149 28.1382 28.7779 27.2798ZM24.7587 30.4375C24.776 30.4458 24.7847 30.4404 24.7847 30.4219L24.7847 27.1196C24.7847 27.1016 24.7754 27.0933 24.7569 27.0942C23.9122 27.1387 23.0991 27.2207 22.3173 27.3403C22.3062 27.3418 22.3029 27.3477 22.3071 27.3579C22.6082 28.062 22.9772 28.75 23.4626 29.3569C23.8187 29.8032 24.2354 30.1807 24.7587 30.4375ZM30.2672 27.5137C29.9376 28.4043 29.4854 29.2549 28.9272 30.021C28.9056 30.0508 28.9127 30.0596 28.9485 30.0469C30.2324 29.605 31.3853 28.9541 32.4072 28.0938C32.4091 28.0923 32.4104 28.0903 32.4112 28.0879C32.412 28.0859 32.4121 28.0835 32.4117 28.0811C32.4114 28.0801 32.4111 28.0791 32.4106 28.0781C32.41 28.0767 32.4094 28.0757 32.4085 28.0752C32.4069 28.0732 32.4048 28.0718 32.4026 28.0713C32.282 28.0347 32.1595 27.9956 32.0361 27.9565L32.0337 27.9561L32.0333 27.9556C31.7125 27.854 31.3843 27.75 31.0612 27.6753C30.8035 27.6152 30.5513 27.5552 30.3047 27.4946C30.297 27.4927 30.2889 27.4937 30.282 27.4976C30.2751 27.501 30.2698 27.5068 30.2672 27.5137ZM22.1125 30.0454C22.1464 30.0566 22.153 30.0479 22.1324 30.0195C21.5991 29.291 21.1667 28.5 20.8354 27.6455C20.8346 27.6436 20.8334 27.6416 20.8321 27.6401C20.8307 27.6387 20.829 27.6372 20.8271 27.6367C20.8234 27.6348 20.819 27.6343 20.815 27.6353C20.1507 27.7886 19.4918 27.9878 18.8383 28.2319C18.8365 28.2324 18.8349 28.2339 18.8337 28.2354C18.8334 28.2354 18.8331 28.2358 18.8329 28.2363C18.8322 28.2373 18.8316 28.2388 18.8314 28.2402C18.8311 28.2417 18.8314 28.2437 18.832 28.2456C18.8328 28.2471 18.834 28.2485 18.8355 28.25C19.0183 28.3843 19.205 28.522 19.3954 28.6631C19.7057 28.8926 20.0766 29.1167 20.3975 29.2944C20.9511 29.5996 21.5228 29.8501 22.1125 30.0454ZM9.33734 15.6919C9.46478 15.0571 9.72083 14.4614 10.1055 13.9058C10.1448 13.8491 10.1821 13.7939 10.2175 13.7402C10.3479 13.5439 10.3568 13.3457 10.2492 13.127C10.1518 12.9287 9.87634 12.8901 9.66711 12.8979C9.51636 12.9038 9.36658 13.0229 9.3009 13.1396C9.27264 13.1899 9.23883 13.2339 9.20526 13.2769C9.16217 13.3325 9.11938 13.3877 9.08936 13.4561C9.06091 13.521 9.02295 13.5791 8.98517 13.6372C8.94116 13.7046 8.8974 13.7715 8.86908 13.8486C8.83997 13.9282 8.79761 13.9995 8.75555 14.0708C8.7049 14.1562 8.65479 14.2407 8.62903 14.3374C8.58728 14.4961 8.52478 14.6528 8.44159 14.8091C8.40973 14.8682 8.38855 14.9341 8.37451 14.9995C8.21942 15.707 8.11078 16.3726 8.04858 16.9961C8.04352 17.0493 8.03857 17.1108 8.04773 17.1631C8.07697 17.3301 8.08667 17.4897 8.07697 17.6431C8.06927 17.7676 8.08966 17.8862 8.11017 18.0063C8.12628 18.1001 8.14246 18.1943 8.1452 18.2925C8.14795 18.3765 8.16681 18.4575 8.18591 18.5396C8.19806 18.5918 8.21033 18.6445 8.21851 18.6987C8.23328 18.7944 8.2533 18.894 8.27863 18.9976C8.33765 19.2412 8.39587 19.4565 8.45331 19.6431C8.54742 19.9482 8.68872 20.3262 8.8772 20.7778C8.90765 20.8516 8.94409 20.9209 8.98041 20.9907C9.01746 21.0615 9.05438 21.1323 9.0849 21.2065C9.13348 21.3242 9.19104 21.4346 9.25769 21.5376C9.34119 21.667 9.41425 21.7998 9.48767 21.9336C9.5824 22.106 9.6778 22.2793 9.79694 22.4478C10.2319 23.0601 10.6823 23.6523 11.148 24.2241C11.3456 24.4663 11.5707 24.6924 11.791 24.9136L11.791 24.9136L11.7911 24.9136C11.846 24.9688 11.9006 25.0239 11.9544 25.0786C12.096 25.2227 12.2462 25.2661 12.4048 25.209C12.5624 25.1523 12.6565 25.1069 12.687 25.0732C12.9154 24.8208 12.9259 24.5674 12.7185 24.3135C12.5578 24.1162 12.3825 23.9287 12.209 23.7427C12.019 23.5391 11.8311 23.3379 11.6667 23.1289L11.6633 23.1245C11.3088 22.6738 10.9507 22.2183 10.6485 21.7314C10.4717 21.4473 10.3271 21.2021 10.2148 20.9961C10.049 20.6924 9.88892 20.3569 9.73456 19.9897C9.6911 19.8867 9.65527 19.7783 9.61932 19.6699L9.61932 19.6699C9.58905 19.5781 9.55865 19.4863 9.52356 19.397C9.46759 19.2539 9.4212 19.1055 9.38428 18.9507C9.29309 18.5698 9.22803 18.1938 9.18903 17.8237C9.14795 17.4321 9.1438 17.0703 9.17645 16.7388C9.20764 16.4194 9.26129 16.0703 9.33734 15.6919ZM46.3795 15.5625L46.3795 16.7998L41.65 16.7998L41.65 11.1377L46.2701 11.1377L46.2701 12.3755L43.2994 12.3755L43.2994 13.3301L45.9166 13.3301L45.9166 14.5269L43.2994 14.5269L43.2994 15.5625L46.3795 15.5625ZM50.9745 16.7998L49.7542 15.0449L48.5508 16.7998L46.6489 16.7998L48.7949 13.9365L46.7415 11.1377L48.6182 11.1377L49.7963 12.772L50.9576 11.1377L52.7586 11.1377L50.7052 13.8716L52.8932 16.7998L50.9745 16.7998ZM55.9716 11.1377C56.5048 11.1377 56.9676 11.2241 57.3602 11.3965C57.7532 11.564 58.0561 11.8066 58.2692 12.1245C58.4824 12.4375 58.5892 12.8066 58.5892 13.2329C58.5892 13.6587 58.4824 14.0283 58.2692 14.3408C58.0561 14.6538 57.7532 14.8965 57.3602 15.0688C56.9676 15.2363 56.5048 15.3198 55.9716 15.3198L54.9451 15.3198L54.9451 16.7998L53.2788 16.7998L53.2788 11.1377L55.9716 11.1377ZM55.8708 14.0581C56.213 14.0581 56.471 13.9878 56.6448 13.8477C56.8192 13.7021 56.9061 13.4971 56.9061 13.2329C56.9061 12.9688 56.8192 12.7637 56.6448 12.6182C56.471 12.4727 56.213 12.3994 55.8708 12.3994L54.9451 12.3994L54.9451 14.0581L55.8708 14.0581ZM61.9767 15.2954L61.0676 15.2954L61.0676 16.7998L59.4016 16.7998L59.4016 11.1377L62.0946 11.1377C62.6273 11.1377 63.0901 11.2241 63.4832 11.3965C63.8757 11.564 64.1786 11.8066 64.3918 12.1245C64.6049 12.4375 64.7117 12.8066 64.7117 13.2329C64.7117 13.6426 64.6105 14.0015 64.4089 14.3086C64.2123 14.6108 63.9289 14.8477 63.5585 15.0205L64.8297 16.7998L63.0453 16.7998L61.9767 15.2954ZM63.0286 13.2329C63.0286 12.9688 62.9417 12.7637 62.7678 12.6182C62.5935 12.4727 62.3355 12.3994 61.9933 12.3994L61.0676 12.3994L61.0676 14.0581L61.9933 14.0581C62.3355 14.0581 62.5935 13.9878 62.7678 13.8477C62.9417 13.7021 63.0286 13.4971 63.0286 13.2329ZM70.3604 15.5625L70.3604 16.7998L65.631 16.7998L65.631 11.1377L70.2512 11.1377L70.2512 12.3755L67.2803 12.3755L67.2803 13.3301L69.8975 13.3301L69.8975 14.5269L67.2803 14.5269L67.2803 15.5625L70.3604 15.5625ZM73.3552 16.9131C72.8785 16.9131 72.4156 16.8564 71.9667 16.7432C71.5181 16.6304 71.1533 16.479 70.8727 16.2905L71.4197 15.1094C71.6832 15.2764 71.9893 15.4116 72.337 15.5137C72.6848 15.6162 73.0269 15.6675 73.3636 15.6675C74.0035 15.6675 74.323 15.5137 74.323 15.2065C74.323 15.0449 74.2305 14.9263 74.0456 14.8506C73.8657 14.7695 73.574 14.686 73.1703 14.5996C72.7269 14.5083 72.3565 14.4111 72.0591 14.3086C71.7618 14.2007 71.5066 14.0308 71.2935 13.7988C71.0803 13.5674 70.9739 13.2544 70.9739 12.8608C70.9739 12.5156 71.072 12.2056 71.2685 11.9307C71.4645 11.6499 71.7563 11.4292 72.1433 11.2671C72.5363 11.1055 73.0159 11.0244 73.5827 11.0244C73.9698 11.0244 74.3513 11.0679 74.7272 11.1538C75.1031 11.2349 75.4341 11.356 75.7199 11.5181L75.2067 12.707C74.6458 12.416 74.1016 12.27 73.574 12.27C73.2433 12.27 73.002 12.3188 72.8503 12.416C72.6991 12.5073 72.6233 12.6289 72.6233 12.7798C72.6233 12.9307 72.713 13.0439 72.8924 13.1196C73.0718 13.1948 73.3608 13.2734 73.7594 13.354C74.2079 13.4458 74.5782 13.5454 74.8701 13.6533C75.1674 13.7559 75.4226 13.9229 75.6357 14.1548C75.8549 14.3813 75.9641 14.6914 75.9641 15.085C75.9641 15.4248 75.866 15.7324 75.6695 16.0073C75.4734 16.2822 75.1789 16.5034 74.7859 16.6704C74.3933 16.8325 73.9166 16.9131 73.3552 16.9131ZM78.8041 16.9131C78.3273 16.9131 77.8645 16.8564 77.4155 16.7432C76.9666 16.6304 76.6022 16.479 76.3215 16.2905L76.8685 15.1094C77.1321 15.2764 77.4382 15.4116 77.7859 15.5137C78.1336 15.6162 78.4758 15.6675 78.8124 15.6675C79.4518 15.6675 79.7719 15.5137 79.7719 15.2065C79.7719 15.0449 79.6794 14.9263 79.494 14.8506C79.3146 14.7695 79.0228 14.686 78.6191 14.5996C78.1757 14.5083 77.8053 14.4111 77.508 14.3086C77.2106 14.2007 76.9554 14.0308 76.7422 13.7988C76.5291 13.5674 76.4223 13.2544 76.4223 12.8608C76.4223 12.5156 76.5208 12.2056 76.7169 11.9307C76.9133 11.6499 77.2051 11.4292 77.5922 11.2671C77.9852 11.1055 78.4647 11.0244 79.0311 11.0244C79.4186 11.0244 79.8 11.0679 80.176 11.1538C80.5519 11.2349 80.8825 11.356 81.1688 11.5181L80.6555 12.707C80.0946 12.416 79.5504 12.27 79.0228 12.27C78.6917 12.27 78.4508 12.3188 78.2991 12.416C78.1475 12.5073 78.0721 12.6289 78.0721 12.7798C78.0721 12.9307 78.1618 13.0439 78.3412 13.1196C78.5206 13.1948 78.8096 13.2734 79.2082 13.354C79.6567 13.4458 80.0271 13.5454 80.3188 13.6533C80.6162 13.7559 80.8714 13.9229 81.0846 14.1548C81.3033 14.3813 81.4129 14.6914 81.4129 15.085C81.4129 15.4248 81.3149 15.7324 81.1183 16.0073C80.9218 16.2822 80.6273 16.5034 80.2347 16.6704C79.8421 16.8325 79.3649 16.9131 78.8041 16.9131ZM42.3737 24.9814C42.7889 25.1113 43.2181 25.1758 43.6613 25.1758C44.1606 25.1758 44.5814 25.106 44.9236 24.9653C45.2658 24.8198 45.5211 24.626 45.6894 24.3833C45.8577 24.1353 45.9418 23.8628 45.9418 23.5659C45.9418 23.2104 45.8437 22.9272 45.6473 22.7168C45.4566 22.5063 45.2266 22.3501 44.9572 22.2476C44.6879 22.145 44.3317 22.0425 43.8885 21.9404C43.5463 21.8647 43.2741 21.7944 43.0721 21.73C42.8758 21.6597 42.7103 21.5654 42.5756 21.4468C42.441 21.3228 42.3737 21.1636 42.3737 20.9697C42.3737 20.7056 42.4915 20.4897 42.7271 20.3223C42.9684 20.1553 43.3275 20.0718 43.8043 20.0718C44.0736 20.0718 44.3485 20.1123 44.629 20.1929C44.9095 20.2686 45.1732 20.3818 45.4201 20.5327L45.6978 19.8857C45.4566 19.7241 45.1677 19.6001 44.831 19.5137C44.4944 19.4272 44.1522 19.3843 43.8043 19.3843C43.305 19.3843 42.887 19.457 42.5504 19.6025C42.2138 19.748 41.9613 19.9424 41.793 20.1851C41.6303 20.4277 41.549 20.7002 41.549 21.002C41.549 21.3633 41.6443 21.6519 41.8351 21.8677C42.0314 22.0776 42.2643 22.2344 42.5336 22.3364C42.8085 22.439 43.1675 22.5415 43.6108 22.644C43.9642 22.7251 44.2363 22.7979 44.4271 22.8623C44.6235 22.9272 44.7861 23.0215 44.9152 23.1455C45.0498 23.2642 45.1171 23.4204 45.1171 23.6147C45.1171 23.8789 44.9965 24.0918 44.7552 24.2539C44.514 24.4102 44.1494 24.4883 43.6613 24.4883C43.291 24.4883 42.9291 24.4287 42.5756 24.3105C42.2278 24.186 41.9417 24.0273 41.7173 23.833L41.4059 24.4639C41.6415 24.6743 41.9641 24.8467 42.3737 24.9814ZM52.2375 25.1113L52.2375 19.4487L51.3959 19.4487L51.3959 21.8838L48.0129 21.8838L48.0129 19.4487L47.1713 19.4487L47.1713 25.1113L48.0129 25.1113L48.0129 22.5874L51.3959 22.5874L51.3959 25.1113L52.2375 25.1113ZM54.8425 19.4487L54.0007 19.4487L54.0007 25.1113L54.8425 25.1113L54.8425 19.4487ZM60.7042 19.9746C60.2668 19.624 59.6666 19.4487 58.9032 19.4487L56.606 19.4487L56.606 25.1113L57.4476 25.1113L57.4476 23.3965L58.9032 23.3965C59.6666 23.3965 60.2668 23.2212 60.7042 22.8706C61.1421 22.52 61.3608 22.0371 61.3608 21.4224C61.3608 20.8076 61.1421 20.3252 60.7042 19.9746ZM60.0984 22.3691C59.8178 22.5845 59.4109 22.6924 58.8782 22.6924L57.4476 22.6924L57.4476 20.1528L58.8782 20.1528C59.4109 20.1528 59.8178 20.2632 60.0984 20.4844C60.3787 20.7002 60.5192 21.0127 60.5192 21.4224C60.5192 21.8325 60.3787 22.1479 60.0984 22.3691ZM66.6954 19.9746C66.258 19.624 65.6573 19.4487 64.8944 19.4487L62.5972 19.4487L62.5972 25.1113L63.4388 25.1113L63.4388 23.3965L64.8944 23.3965C65.6573 23.3965 66.258 23.2212 66.6954 22.8706C67.1328 22.52 67.352 22.0371 67.352 21.4224C67.352 20.8076 67.1328 20.3252 66.6954 19.9746ZM66.0897 22.3691C65.809 22.5845 65.4021 22.6924 64.8694 22.6924L63.4388 22.6924L63.4388 20.1528L64.8694 20.1528C65.4021 20.1528 65.809 20.2632 66.0897 20.4844C66.3699 20.7002 66.5104 21.0127 66.5104 21.4224C66.5104 21.8325 66.3699 22.1479 66.0897 22.3691ZM69.4295 19.4487L68.588 19.4487L68.588 25.1113L69.4295 25.1113L69.4295 19.4487ZM76.2595 25.1113L76.2595 19.4487L75.418 19.4487L75.418 23.6714L71.8834 19.4487L71.1935 19.4487L71.1935 25.1113L72.0351 25.1113L72.0351 20.8887L75.5696 25.1113L76.2595 25.1113ZM82.9124 22.2476L82.1042 22.2476L82.1042 24.0918C81.7116 24.3345 81.2515 24.4561 80.7244 24.4561C80.2809 24.4561 79.8801 24.3613 79.5208 24.1729C79.1675 23.9839 78.8896 23.7251 78.6876 23.3965C78.4855 23.062 78.3847 22.6899 78.3847 22.2798C78.3847 21.8647 78.4855 21.4927 78.6876 21.1636C78.8896 20.8296 79.1675 20.5703 79.5208 20.3872C79.8801 20.1982 80.2838 20.104 80.7327 20.104C81.4004 20.104 81.9696 20.3223 82.4408 20.7593L82.9628 20.2578C82.6932 19.9722 82.3654 19.7563 81.9779 19.6108C81.5964 19.4595 81.1701 19.3843 80.699 19.3843C80.0988 19.3843 79.5573 19.5083 79.0746 19.7563C78.5978 20.0044 78.2219 20.3496 77.9473 20.7915C77.6777 21.2339 77.5432 21.73 77.5432 22.2798C77.5432 22.8301 77.6777 23.3262 77.9473 23.7686C78.2219 24.2051 78.5978 24.5503 79.0746 24.8037C79.5518 25.0518 80.0872 25.1758 80.6823 25.1758C81.1031 25.1758 81.5068 25.1138 81.8938 24.9897C82.2812 24.8657 82.6207 24.688 82.9124 24.4561L82.9124 22.2476Z" fill="#000000" fill-opacity="1.000000" fill-rule="evenodd"/>
		</g>
	</g>
</svg>
