<svg width="258.054260" height="28.000000" viewBox="0 0 258.054 28" fill="none" xmlns="http://www.w3.org/2000/svg" xmlns:xlink="http://www.w3.org/1999/xlink">
	<desc>
			Created with Pixso.
	</desc>
	<defs>
		<clipPath id="clip2_213">
			<rect id="Logo" width="28.000000" height="28.000000" transform="translate(128.276123 0.000000)" fill="white" fill-opacity="0"/>
		</clipPath>
	</defs>
	<rect id="logo_blc" width="258.000000" height="28.000000" fill="#FFFFFF" fill-opacity="0"/>
	<path id="Vector" d="M123.515 27.2983L118.158 27.2983L106.027 8.96826L106.027 27.2983L100.67 27.2983L100.67 0.549805L106.027 0.549805L118.158 18.918L118.158 0.549805L123.515 0.549805L123.515 27.2983Z" fill="#1C1C1C" fill-opacity="1.000000" fill-rule="nonzero"/>
	<path id="Vector" d="M95.397 0.583984L95.397 27.2939L90.0397 27.2939L90.0397 15.9287L78.5979 15.9287L78.5979 27.2939L73.2406 27.2939L73.2406 0.583984L78.5979 0.583984L78.5979 11.5664L90.0397 11.5664L90.0397 0.583984L95.397 0.583984Z" fill="#1C1C1C" fill-opacity="1.000000" fill-rule="nonzero"/>
	<path id="Vector" d="M42.5671 13.9033C42.5671 11.2759 43.1539 8.92871 44.3274 6.8623C45.5265 4.77051 47.1464 3.15039 49.1873 2.00244C51.2537 0.829102 53.5624 0.242188 56.1135 0.242188C59.0984 0.242188 61.7133 1.00732 63.9583 2.53809C66.2031 4.06885 67.7721 6.18604 68.665 8.89062L62.504 8.89062C61.8918 7.61475 61.0244 6.6582 59.902 6.02051C58.8049 5.38281 57.5294 5.06396 56.0753 5.06396C54.519 5.06396 53.1288 5.43359 51.9042 6.17334C50.7052 6.8877 49.7612 7.9082 49.0725 9.23486C48.4092 10.5615 48.0775 12.1177 48.0775 13.9033C48.0775 15.6636 48.4092 17.2197 49.0725 18.5718C49.7612 19.8984 50.7052 20.9316 51.9042 21.6714C53.1288 22.3857 54.519 22.7432 56.0753 22.7432C57.5294 22.7432 58.8049 22.4243 59.902 21.7861C61.0244 21.123 61.8918 20.1538 62.504 18.8779L68.665 18.8779C67.7721 21.6079 66.2031 23.7378 63.9583 25.2686C61.7388 26.7739 59.1239 27.5264 56.1135 27.5264C53.5624 27.5264 51.2537 26.9521 49.1873 25.8042C47.1464 24.6309 45.5265 23.0107 44.3274 20.9443C43.1539 18.8779 42.5671 16.5312 42.5671 13.9033Z" fill="#1C1C1C" fill-opacity="1.000000" fill-rule="nonzero"/>
	<path id="Vector" d="M28.8588 4.91211L28.8588 11.6089L37.8514 11.6089L37.8514 15.8564L28.8588 15.8564L28.8588 22.936L38.9995 22.936L38.9995 27.2983L23.5015 27.2983L23.5015 0.549805L38.9995 0.549805L38.9995 4.91211L28.8588 4.91211Z" fill="#1C1C1C" fill-opacity="1.000000" fill-rule="nonzero"/>
	<path id="Vector" d="M19.5929 0.583984L19.5929 4.9082L12.4753 4.9082L12.4753 27.2939L7.11792 27.2939L7.11792 4.9082L0.000366211 4.9082L0.000366211 0.583984L19.5929 0.583984Z" fill="#1C1C1C" fill-opacity="1.000000" fill-rule="nonzero"/>
	<rect id="Logo" width="28.000000" height="28.000000" transform="translate(128.276123 0.000000)" fill="#FFFFFF" fill-opacity="0"/>
	<g clip-path="url(#clip2_213)">
		<path id="Vector" d="M146.165 8.17969C145.014 7.41064 143.661 7 142.276 7L142.276 0C145.045 0 147.752 0.821289 150.054 2.35938C152.356 3.89795 154.151 6.08447 155.21 8.64258C156.27 11.2007 156.547 14.0156 156.007 16.7314C155.467 19.4468 154.134 21.9414 152.176 23.8994C150.218 25.8574 147.723 27.1909 145.007 27.731C142.292 28.271 139.477 27.9941 136.919 26.9341C134.36 25.8745 132.174 24.0801 130.635 21.7778C129.097 19.4756 128.276 16.769 128.276 14L135.276 14C135.276 15.3843 135.687 16.7378 136.456 17.8892C137.225 19.04 138.318 19.9375 139.597 20.4673C140.876 20.9971 142.284 21.1357 143.642 20.8652C145 20.5952 146.247 19.9287 147.226 18.9497C148.205 17.9707 148.872 16.7236 149.142 15.3657C149.412 14.0078 149.273 12.6001 148.743 11.3213C148.214 10.042 147.316 8.94873 146.165 8.17969Z" fill="#B15FFF" fill-opacity="1.000000" fill-rule="evenodd"/>
		<path id="Vector" d="M135.276 0C135.276 0.919434 135.095 1.82959 134.743 2.67871C134.391 3.52783 133.876 4.2998 133.226 4.94971C132.576 5.59961 131.804 6.11523 130.955 6.46729C130.106 6.81885 129.195 7 128.276 7L128.276 14C130.115 14 131.935 13.6377 133.634 12.9341C135.332 12.231 136.876 11.1997 138.176 9.89941C139.476 8.59961 140.507 7.05615 141.21 5.35742C141.914 3.65918 142.276 1.83838 142.276 0L135.276 0Z" fill="#B15FFF" fill-opacity="1.000000" fill-rule="evenodd"/>
	</g>
	<path id="Vector" d="M251.281 27.3037L241.561 15.4028L241.561 27.3037L236.204 27.3037L236.204 0.59375L241.561 0.59375L241.561 12.5713L251.281 0.59375L257.748 0.59375L246.727 13.834L258.054 27.3037L251.281 27.3037Z" fill="#1C1C1C" fill-opacity="1.000000" fill-rule="nonzero"/>
	<path id="Vector" d="M225.465 27.3037L219.572 16.8955L217.046 16.8955L217.046 27.3037L211.689 27.3037L211.689 0.59375L221.714 0.59375C223.781 0.59375 225.541 0.963867 226.995 1.70361C228.449 2.41797 229.534 3.3999 230.248 4.6499C230.988 5.87451 231.358 7.25195 231.358 8.78271C231.358 10.543 230.847 12.1377 229.827 13.5659C228.807 14.9692 227.289 15.9385 225.273 16.4746L231.664 27.3037L225.465 27.3037ZM217.046 12.8774L221.523 12.8774C222.977 12.8774 224.062 12.5327 224.776 11.8442C225.49 11.1299 225.847 10.1475 225.847 8.89746C225.847 7.67285 225.49 6.729 224.776 6.06592C224.062 5.37695 222.977 5.03271 221.523 5.03271L217.046 5.03271L217.046 12.8774Z" fill="#1C1C1C" fill-opacity="1.000000" fill-rule="nonzero"/>
	<path id="Vector" d="M200.675 22.2114L190.037 22.2114L188.276 27.3013L182.651 27.3013L192.256 0.552734L198.494 0.552734L208.099 27.3013L202.435 27.3013L200.675 22.2114ZM199.221 17.9258L195.356 6.75195L191.491 17.9258L199.221 17.9258Z" fill="#1C1C1C" fill-opacity="1.000000" fill-rule="nonzero"/>
	<path id="Vector" d="M180.493 8.85938C180.493 10.2881 180.149 11.6274 179.46 12.8774C178.797 14.1274 177.738 15.1353 176.284 15.9004C174.855 16.6655 173.044 17.0483 170.85 17.0483L166.373 17.0483L166.373 27.3037L161.016 27.3037L161.016 0.59375L170.85 0.59375C172.916 0.59375 174.677 0.950684 176.131 1.66504C177.585 2.37939 178.669 3.36182 179.384 4.61182C180.123 5.86182 180.493 7.27783 180.493 8.85938ZM170.62 12.7241C172.1 12.7241 173.197 12.3926 173.911 11.7295C174.626 11.0405 174.983 10.084 174.983 8.85938C174.983 6.25732 173.529 4.95605 170.62 4.95605L166.373 4.95605L166.373 12.7241L170.62 12.7241Z" fill="#1C1C1C" fill-opacity="1.000000" fill-rule="nonzero"/>
</svg>
