<svg width="17" height="17" viewBox="0 0 17 17" fill="none" xmlns="http://www.w3.org/2000/svg">
<path d="M5.9502 5.1C5.9502 4.63056 6.33075 4.25 6.8002 4.25C7.26964 4.25 7.6502 4.63056 7.6502 5.1V7.93675C7.6502 8.24782 7.90237 8.5 8.21345 8.5H11.0502C11.5196 8.5 11.9002 8.88056 11.9002 9.35C11.9002 9.81944 11.5196 10.2 11.0502 10.2H7.29374C6.55172 10.2 5.9502 9.59847 5.9502 8.85645V5.1Z" fill="#FF0000"/>
<path fill-rule="evenodd" clip-rule="evenodd" d="M17 8.5C17 13.1944 13.1944 17 8.5 17C3.80558 17 0 13.1944 0 8.5C0 3.80558 3.80558 0 8.5 0C13.1944 0 17 3.80558 17 8.5ZM15.3 8.5C15.3 12.2556 12.2556 15.3 8.5 15.3C4.74446 15.3 1.7 12.2556 1.7 8.5C1.7 4.74446 4.74446 1.7 8.5 1.7C12.2556 1.7 15.3 4.74446 15.3 8.5Z" fill="#FF0000"/>
</svg>
