<svg width="18" height="18" viewBox="0 0 18 18" fill="none" xmlns="http://www.w3.org/2000/svg">
<path d="M6.2998 5.4C6.2998 4.90294 6.70275 4.5 7.1998 4.5C7.69686 4.5 8.0998 4.90294 8.0998 5.4V8.40361C8.0998 8.73299 8.36682 9 8.69619 9H11.6998C12.1969 9 12.5998 9.40294 12.5998 9.9C12.5998 10.3971 12.1969 10.8 11.6998 10.8H7.72239C6.93672 10.8 6.2998 10.1631 6.2998 9.37742V5.4Z" fill="#FF0000"/>
<path fill-rule="evenodd" clip-rule="evenodd" d="M18 9C18 13.9705 13.9705 18 9 18C4.02943 18 0 13.9705 0 9C0 4.02943 4.02943 0 9 0C13.9705 0 18 4.02943 18 9ZM16.2 9C16.2 12.9765 12.9765 16.2 9 16.2C5.02355 16.2 1.8 12.9765 1.8 9C1.8 5.02355 5.02355 1.8 9 1.8C12.9765 1.8 16.2 5.02355 16.2 9Z" fill="#FF0000"/>
</svg>
