<svg width="42" height="42" viewBox="0 0 42 42" fill="none" xmlns="http://www.w3.org/2000/svg">
<path d="M5.67137 5.67137C5.88364 5.45855 6.13582 5.28971 6.41345 5.1745C6.69108 5.0593 6.98872 5 7.2893 5C7.58989 5 7.88752 5.0593 8.16515 5.1745C8.44278 5.28971 8.69496 5.45855 8.90723 5.67137L21.0006 17.7693L33.094 5.67137C33.3064 5.4589 33.5587 5.29036 33.8363 5.17537C34.1139 5.06038 34.4114 5.0012 34.7119 5.0012C35.0124 5.0012 35.3099 5.06038 35.5875 5.17537C35.8651 5.29036 36.1174 5.4589 36.3298 5.67137C36.5423 5.88384 36.7108 6.13608 36.8258 6.41368C36.9408 6.69129 37 6.98882 37 7.2893C37 7.58978 36.9408 7.88732 36.8258 8.16492C36.7108 8.44253 36.5423 8.69476 36.3298 8.90723L24.2319 21.0006L36.3298 33.094C36.5423 33.3064 36.7108 33.5587 36.8258 33.8363C36.9408 34.1139 37 34.4114 37 34.7119C37 35.0124 36.9408 35.3099 36.8258 35.5875C36.7108 35.8651 36.5423 36.1174 36.3298 36.3298C36.1174 36.5423 35.8651 36.7108 35.5875 36.8258C35.3099 36.9408 35.0124 37 34.7119 37C34.4114 37 34.1139 36.9408 33.8363 36.8258C33.5587 36.7108 33.3064 36.5423 33.094 36.3298L21.0006 24.2319L8.90723 36.3298C8.69476 36.5423 8.44253 36.7108 8.16492 36.8258C7.88732 36.9408 7.58978 37 7.2893 37C6.98882 37 6.69129 36.9408 6.41368 36.8258C6.13608 36.7108 5.88384 36.5423 5.67137 36.3298C5.4589 36.1174 5.29036 35.8651 5.17537 35.5875C5.06038 35.3099 5.0012 35.0124 5.0012 34.7119C5.0012 34.4114 5.06038 34.1139 5.17537 33.8363C5.29036 33.5587 5.4589 33.3064 5.67137 33.094L17.7693 21.0006L5.67137 8.90723C5.45855 8.69496 5.28971 8.44278 5.1745 8.16515C5.0593 7.88752 5 7.58989 5 7.2893C5 6.98872 5.0593 6.69108 5.1745 6.41345C5.28971 6.13582 5.45855 5.88364 5.67137 5.67137Z" fill="black"/>
</svg>
