<svg width="30" height="30" viewBox="0 0 30 30" fill="none" xmlns="http://www.w3.org/2000/svg">
<path d="M7.625 9.625C8.72957 9.625 9.625 8.72957 9.625 7.625C9.625 6.52043 8.72957 5.625 7.625 5.625C6.52043 5.625 5.625 6.52043 5.625 7.625C5.625 8.72957 6.52043 9.625 7.625 9.625Z" fill="#52A800"/>
<path d="M15.5938 9.625C16.6983 9.625 17.5938 8.72957 17.5938 7.625C17.5938 6.52043 16.6983 5.625 15.5938 5.625C14.4892 5.625 13.5938 6.52043 13.5938 7.625C13.5938 8.72957 14.4892 9.625 15.5938 9.625Z" fill="#52A800"/>
<path d="M23.5625 9.625C24.6671 9.625 25.5625 8.72957 25.5625 7.625C25.5625 6.52043 24.6671 5.625 23.5625 5.625C22.4579 5.625 21.5625 6.52043 21.5625 7.625C21.5625 8.72957 22.4579 9.625 23.5625 9.625Z" fill="#52A800"/>
<path d="M7.625 17.5938C8.72957 17.5938 9.625 16.6983 9.625 15.5938C9.625 14.4892 8.72957 13.5938 7.625 13.5938C6.52043 13.5938 5.625 14.4892 5.625 15.5938C5.625 16.6983 6.52043 17.5938 7.625 17.5938Z" fill="#52A800"/>
<path d="M15.5938 17.5938C16.6983 17.5938 17.5938 16.6983 17.5938 15.5938C17.5938 14.4892 16.6983 13.5938 15.5938 13.5938C14.4892 13.5938 13.5938 14.4892 13.5938 15.5938C13.5938 16.6983 14.4892 17.5938 15.5938 17.5938Z" fill="#52A800"/>
<path d="M23.5625 17.5938C24.6671 17.5938 25.5625 16.6983 25.5625 15.5938C25.5625 14.4892 24.6671 13.5938 23.5625 13.5938C22.4579 13.5938 21.5625 14.4892 21.5625 15.5938C21.5625 16.6983 22.4579 17.5938 23.5625 17.5938Z" fill="#52A800"/>
<path d="M7.625 25.5625C8.72957 25.5625 9.625 24.6671 9.625 23.5625C9.625 22.4579 8.72957 21.5625 7.625 21.5625C6.52043 21.5625 5.625 22.4579 5.625 23.5625C5.625 24.6671 6.52043 25.5625 7.625 25.5625Z" fill="#52A800"/>
<path d="M15.5938 25.5625C16.6983 25.5625 17.5938 24.6671 17.5938 23.5625C17.5938 22.4579 16.6983 21.5625 15.5938 21.5625C14.4892 21.5625 13.5938 22.4579 13.5938 23.5625C13.5938 24.6671 14.4892 25.5625 15.5938 25.5625Z" fill="#52A800"/>
<path d="M23.5625 25.5625C24.6671 25.5625 25.5625 24.6671 25.5625 23.5625C25.5625 22.4579 24.6671 21.5625 23.5625 21.5625C22.4579 21.5625 21.5625 22.4579 21.5625 23.5625C21.5625 24.6671 22.4579 25.5625 23.5625 25.5625Z" fill="#52A800"/>
</svg>
