<svg width="30" height="30" viewBox="0 0 30 30" fill="none" xmlns="http://www.w3.org/2000/svg">
<path d="M10.3125 2.8125V6.5625" stroke="#52A800" stroke-width="2" stroke-linecap="round" stroke-linejoin="round"/>
<path d="M14.0625 2.8125V6.5625" stroke="#52A800" stroke-width="2" stroke-linecap="round" stroke-linejoin="round"/>
<path d="M17.8125 2.8125V6.5625" stroke="#52A800" stroke-width="2" stroke-linecap="round" stroke-linejoin="round"/>
<path d="M3.75 25.3125H24.375" stroke="#52A800" stroke-width="2" stroke-linecap="round" stroke-linejoin="round"/>
<path d="M9.76131 25.3129C7.96715 24.4894 6.44704 23.1682 5.38148 21.5063C4.31592 19.8444 3.74968 17.9117 3.75 15.9375V10.3125H24.375V15.9375C24.3753 17.9117 23.8091 19.8445 22.7435 21.5063C21.6779 23.1682 20.1578 24.4894 18.3636 25.313" stroke="#52A800" stroke-width="2" stroke-linecap="round" stroke-linejoin="round"/>
<path d="M24.3754 10.3125C25.37 10.3125 26.3238 10.7076 27.0271 11.4108C27.7303 12.1141 28.1254 13.0679 28.1254 14.0625V15C28.1254 15.9946 27.7303 16.9484 27.0271 17.6516C26.3238 18.3549 25.37 18.75 24.3754 18.75H23.9795" stroke="#52A800" stroke-width="2" stroke-linecap="round" stroke-linejoin="round"/>
</svg>
