<svg width="30" height="30" viewBox="0 0 30 30" fill="none" xmlns="http://www.w3.org/2000/svg">
<path d="M24.5549 9.42234L20.6113 13.1252L24.3613 23.4377L21.5488 26.2502L15.9463 18.0495L13.1113 20.6252V23.4377L10.2988 26.2502L8.63565 21.3454L3.73633 19.6877L6.54883 16.8752H9.36133L12.1738 14.0627L3.73633 8.43773L6.54883 5.62523L16.8613 9.37523L20.5774 5.44487L20.4976 5.5115C20.7587 5.24986 21.0687 5.04225 21.4101 4.90052C21.7514 4.7588 22.1174 4.68575 22.487 4.68555C22.8566 4.68534 23.2226 4.75799 23.5641 4.89934C23.9056 5.04069 24.2159 5.24796 24.4773 5.50931C24.7386 5.77066 24.9459 6.08096 25.0872 6.42247C25.2286 6.76397 25.3012 7.12999 25.301 7.49959C25.3008 7.8692 25.2278 8.23514 25.086 8.57649C24.9443 8.91784 24.7367 9.22791 24.4751 9.48897L24.5549 9.42234Z" stroke="#52A800" stroke-width="2" stroke-linecap="round" stroke-linejoin="round"/>
</svg>
