<svg width="30" height="30" viewBox="0 0 30 30" fill="none" xmlns="http://www.w3.org/2000/svg">
<path d="M17.8118 24.3737V18.7486C17.8118 18.4999 17.713 18.2615 17.5372 18.0857C17.3614 17.9098 17.123 17.8111 16.8743 17.8111H13.1243C12.8757 17.8111 12.6372 17.9098 12.4614 18.0857C12.2856 18.2615 12.1868 18.4999 12.1868 18.7486V24.3737C12.1868 24.6223 12.0881 24.8608 11.9123 25.0366C11.7365 25.2124 11.4981 25.3112 11.2494 25.3112L5.62512 25.3119C5.50199 25.3119 5.38007 25.2877 5.26632 25.2406C5.15256 25.1935 5.0492 25.1244 4.96213 25.0374C4.87506 24.9503 4.806 24.847 4.75887 24.7332C4.71175 24.6195 4.6875 24.4976 4.6875 24.3744V13.5392C4.6875 13.4086 4.71479 13.2794 4.76763 13.16C4.82046 13.0406 4.89767 12.9335 4.99431 12.8456L14.3687 4.32199C14.5412 4.16508 14.7661 4.07813 14.9993 4.07813C15.2326 4.07812 15.4574 4.16505 15.63 4.32194L25.0056 12.8456C25.1023 12.9335 25.1795 13.0406 25.2324 13.16C25.2852 13.2795 25.3125 13.4086 25.3125 13.5393V24.3744C25.3125 24.4976 25.2882 24.6195 25.2411 24.7332C25.194 24.847 25.1249 24.9503 25.0379 25.0374C24.9508 25.1244 24.8474 25.1935 24.7337 25.2406C24.6199 25.2877 24.498 25.312 24.3749 25.3119L18.7492 25.3112C18.5006 25.3112 18.2621 25.2124 18.0864 25.0366C17.9106 24.8608 17.8118 24.6223 17.8118 24.3737V24.3737Z" stroke="#52A800" stroke-width="2" stroke-linecap="round" stroke-linejoin="round"/>
</svg>
