<svg width="30" height="30" viewBox="0 0 30 30" fill="none" xmlns="http://www.w3.org/2000/svg">
<mask id="path-1-inside-1_1436_5961" fill="white">
<path fill-rule="evenodd" clip-rule="evenodd" d="M21.0437 0C18.9737 0 17.2938 1.68 17.2938 3.74875C17.2938 5.8175 18.9737 7.4975 21.0437 7.4975C23.1125 7.4975 24.7937 5.8175 24.7937 3.74875C24.7937 1.68 23.1125 0 21.0437 0ZM21.0437 1.25C22.4225 1.25 23.5437 2.37 23.5437 3.74875C23.5437 5.1275 22.4225 6.24875 21.0437 6.24875C19.665 6.24875 18.5438 5.1275 18.5438 3.74875C18.5438 2.37 19.665 1.25 21.0437 1.25ZM8.9575 0C6.8875 0 5.2075 1.68 5.2075 3.74875C5.2075 5.8175 6.8875 7.4975 8.9575 7.4975C11.0262 7.4975 12.7075 5.8175 12.7075 3.74875C12.7075 1.68 11.0262 0 8.9575 0ZM8.9575 1.25C10.3362 1.25 11.4575 2.37 11.4575 3.74875C11.4575 5.1275 10.3362 6.24875 8.9575 6.24875C7.57875 6.24875 6.4575 5.1275 6.4575 3.74875C6.4575 2.37 7.57875 1.25 8.9575 1.25ZM21.0175 19.785C21.885 19.785 22.5562 20.44 22.6138 21.3412C22.6763 22.2675 22.8288 24.0925 22.9638 25.7025L23.1588 28.0725C23.1838 28.3862 23.3638 28.75 23.7938 28.75C24.2987 28.75 24.3625 28.2188 24.3688 28.055L24.9587 13.7463C24.9862 13.1062 25.835 12.9275 26.13 13.4688L28.1862 17.19C28.3337 17.4587 28.75 17.3463 28.75 17.0438L26.75 9.95C26.6338 9.53125 26.2475 9.24125 25.8137 9.24125H4.185C3.7525 9.24125 3.36625 9.53125 3.24875 9.94875L1.26125 16.9613C1.23375 17.4638 1.71625 17.3687 1.81375 17.19L3.87 13.4688C4.175 12.92 5.015 13.115 5.04125 13.7463L5.63 28.0562C5.64375 28.3762 5.8125 28.75 6.2425 28.75C6.65375 28.75 6.86375 28.4112 6.89 28.0737L7.09 25.6487C7.22375 24.0525 7.37375 22.2587 7.43625 21.3387C7.495 20.44 8.16625 19.785 9.0325 19.785C9.7625 19.785 10.555 20.3663 10.62 21.34C10.6813 22.2575 10.8313 24.0512 10.965 25.6475L11.165 28.0725C11.1888 28.3862 11.3663 28.75 11.7887 28.75C12.2662 28.75 12.3375 28.2638 12.3462 28.055C12.4987 24.36 13.1325 12.6925 13.14 12.575C13.1575 12.2425 13.4312 11.9837 13.7638 11.9837H16.2175C16.55 11.9837 16.8237 12.2437 16.8412 12.5763C16.8487 12.6938 17.4587 24.36 17.6125 28.0562C17.6275 28.4012 17.83 28.75 18.2488 28.75C18.6788 28.75 18.8613 28.3862 18.8838 28.0737L19.09 25.5962C19.2213 24.0137 19.3687 22.2475 19.43 21.3387C19.495 20.3662 20.2887 19.785 21.0175 19.785ZM23.795 30C22.7862 30 21.995 29.23 21.9125 28.1688C21.8687 27.6 21.7975 26.74 21.7188 25.8075C21.5837 24.19 21.43 22.3563 21.3663 21.4237C21.3475 21.135 21.1737 21.035 21.0175 21.035C20.9187 21.035 20.6975 21.1325 20.6775 21.4225C20.6162 22.3363 20.4675 24.11 20.335 25.7C20.2525 26.6737 20.1775 27.5775 20.1312 28.17C20.05 29.23 19.2587 30 18.2512 30C17.2188 30 16.4087 29.1875 16.3625 28.1087C16.23 24.9 15.7512 15.6662 15.6237 13.2337H14.355C14.2238 15.6637 13.7275 24.9 13.595 28.1075C13.5475 29.2225 12.8062 30 11.79 30C10.7863 30 10 29.23 9.91875 28.1688L9.71875 25.7512C9.585 24.1475 9.43375 22.3463 9.3725 21.4237C9.3525 21.1325 9.13 21.035 9.0325 21.035C8.87625 21.035 8.70125 21.1362 8.68375 21.4212C8.62125 22.3462 8.47 24.1487 8.33625 25.7525L8.13625 28.17C8.055 29.23 7.25875 30 6.245 30C5.21125 30 4.42875 29.2037 4.38125 28.1087L3.88375 16.0275L2.90875 17.7937C2.505 18.5237 1.54875 18.77 0.9425 18.4662C0.3675 18.2225 0 17.67 0 17.0438C0 16.9 0.02 16.7575 0.05875 16.62L2.04625 9.60875C2.315 8.65625 3.195 7.99125 4.185 7.99125H25.8137C26.805 7.99125 27.685 8.6575 27.9538 9.60875L29.9412 16.6213C29.98 16.7575 30 16.9 30 17.0438C30 17.6725 29.6287 18.2275 29.0512 18.4688L29.005 18.49C28.2975 18.7625 27.4575 18.455 27.0925 17.7925L26.1162 16.0275L25.6188 28.1075C25.5713 29.2225 24.8212 30 23.795 30Z"/>
</mask>
<path d="M22.6138 21.3412L20.6178 21.4686L20.6183 21.4759L22.6138 21.3412ZM22.9638 25.7025L24.957 25.5385L24.9568 25.5354L22.9638 25.7025ZM23.1588 28.0725L25.1524 27.9136L25.152 27.9085L23.1588 28.0725ZM24.3688 28.055L22.3704 27.9726L22.3702 27.9787L24.3688 28.055ZM24.9587 13.7463L22.9606 13.6604L22.9604 13.6639L24.9587 13.7463ZM26.13 13.4688L24.3739 14.4259L24.3795 14.436L26.13 13.4688ZM28.1862 17.19L29.9395 16.2277L29.9368 16.2227L28.1862 17.19ZM28.75 17.0438H30.75V16.7672L30.675 16.501L28.75 17.0438ZM26.75 9.95L24.8229 10.485L24.825 10.4927L26.75 9.95ZM3.24875 9.94875L5.17296 10.4941L5.17396 10.4906L3.24875 9.94875ZM1.26125 16.9613L-0.662959 16.4159L-0.723608 16.6299L-0.735762 16.852L1.26125 16.9613ZM1.81375 17.19L0.0631949 16.2227L0.0579589 16.2323L1.81375 17.19ZM3.87 13.4688L2.12187 12.4971L2.11947 12.5015L3.87 13.4688ZM5.04125 13.7463L7.03956 13.664L7.03952 13.6632L5.04125 13.7463ZM5.63 28.0562L3.63169 28.1385L3.63184 28.1421L5.63 28.0562ZM6.89 28.0737L4.89675 27.9094L4.89602 27.9187L6.89 28.0737ZM7.09 25.6487L5.09698 25.4818L5.09677 25.4844L7.09 25.6487ZM7.43625 21.3387L9.43166 21.4743L9.43199 21.4692L7.43625 21.3387ZM10.62 21.34L8.62444 21.4732V21.4732L10.62 21.34ZM10.965 25.6475L12.9582 25.4831L12.958 25.4805L10.965 25.6475ZM11.165 28.0725L13.1593 27.9215L13.1582 27.9081L11.165 28.0725ZM12.3462 28.055L14.3445 28.1388L14.3445 28.1375L12.3462 28.055ZM13.14 12.575L15.1359 12.7024L15.1366 12.6913L15.1372 12.6801L13.14 12.575ZM16.8412 12.5763L14.844 12.6814L14.8446 12.6925L14.8453 12.7037L16.8412 12.5763ZM17.6125 28.0562L15.6142 28.1394L15.6144 28.1431L17.6125 28.0562ZM18.8838 28.0737L16.8906 27.9078L16.8897 27.919L16.8889 27.9301L18.8838 28.0737ZM19.09 25.5962L21.0831 25.7622L21.0832 25.7616L19.09 25.5962ZM19.43 21.3387L21.4255 21.4732L21.4255 21.4721L19.43 21.3387ZM21.9125 28.1688L19.9184 28.3221L19.9185 28.3238L21.9125 28.1688ZM21.7188 25.8075L19.7257 25.9738L19.7258 25.9758L21.7188 25.8075ZM21.3663 21.4237L19.3704 21.5533L19.3709 21.5602L21.3663 21.4237ZM20.6775 21.4225L18.6822 21.2849L18.682 21.2887L20.6775 21.4225ZM20.335 25.7L22.3279 25.8688L22.3281 25.8661L20.335 25.7ZM20.1312 28.17L18.1373 28.0144L18.1371 28.0171L20.1312 28.17ZM16.3625 28.1087L14.3642 28.1913L14.3643 28.1944L16.3625 28.1087ZM15.6237 13.2337L17.621 13.1291L17.5217 11.2337H15.6237V13.2337ZM14.355 13.2337V11.2337H12.4601L12.3579 13.1259L14.355 13.2337ZM13.595 28.1075L15.5932 28.1926L15.5933 28.19L13.595 28.1075ZM9.91875 28.1688L11.913 28.0161L11.9119 28.0039L9.91875 28.1688ZM9.71875 25.7512L11.7119 25.5864L11.7118 25.585L9.71875 25.7512ZM9.3725 21.4237L11.3681 21.2913L11.3678 21.2867L9.3725 21.4237ZM8.68375 21.4212L10.6792 21.5561L10.68 21.5438L8.68375 21.4212ZM8.33625 25.7525L6.34317 25.5863L6.34306 25.5876L8.33625 25.7525ZM8.13625 28.17L6.14302 28.0051L6.1421 28.0171L8.13625 28.17ZM4.38125 28.1087L2.38294 28.191L2.38313 28.1954L4.38125 28.1087ZM3.88375 16.0275L5.88206 15.9452L5.5879 8.80193L2.13281 15.061L3.88375 16.0275ZM2.90875 17.7937L4.6589 18.7617L4.65969 18.7603L2.90875 17.7937ZM0.9425 18.4662L1.8384 16.6781L1.78159 16.6497L1.72309 16.6249L0.9425 18.4662ZM0.05875 16.62L-1.86544 16.0745L-1.86627 16.0775L0.05875 16.62ZM2.04625 9.60875L3.97043 10.1542L3.9711 10.1518L2.04625 9.60875ZM27.9538 9.60875L26.0291 10.1525L26.0295 10.1541L27.9538 9.60875ZM29.9412 16.6213L28.017 17.1666L28.0175 17.1684L29.9412 16.6213ZM29.0512 18.4688L28.2803 16.6233L28.248 16.6368L28.2162 16.6514L29.0512 18.4688ZM29.005 18.49L29.7238 20.3563L29.7827 20.3337L29.84 20.3073L29.005 18.49ZM27.0925 17.7925L28.8442 16.8274L28.8426 16.8245L27.0925 17.7925ZM26.1162 16.0275L27.8664 15.0595L24.4116 8.81355L24.1179 15.9452L26.1162 16.0275ZM25.6188 28.1075L27.6169 28.1926L27.6171 28.1898L25.6188 28.1075ZM21.0437 -2C17.8696 -2 15.2938 0.574998 15.2938 3.74875H19.2938C19.2938 2.785 20.0779 2 21.0437 2V-2ZM15.2938 3.74875C15.2938 6.9225 17.8696 9.4975 21.0437 9.4975V5.4975C20.0779 5.4975 19.2938 4.7125 19.2938 3.74875H15.2938ZM21.0437 9.4975C24.2162 9.4975 26.7937 6.92294 26.7937 3.74875H22.7937C22.7937 4.71206 22.0088 5.4975 21.0437 5.4975V9.4975ZM26.7937 3.74875C26.7937 0.574563 24.2162 -2 21.0437 -2V2C22.0088 2 22.7937 2.78544 22.7937 3.74875H26.7937ZM21.0437 3.25C21.3192 3.25 21.5437 3.47587 21.5437 3.74875H25.5437C25.5437 1.26413 23.5258 -0.75 21.0437 -0.75V3.25ZM21.5437 3.74875C21.5437 4.02293 21.3179 4.24875 21.0437 4.24875V8.24875C23.5271 8.24875 25.5437 6.23207 25.5437 3.74875H21.5437ZM21.0437 4.24875C20.7696 4.24875 20.5438 4.02293 20.5438 3.74875H16.5438C16.5438 6.23207 18.5604 8.24875 21.0437 8.24875V4.24875ZM20.5438 3.74875C20.5438 3.47587 20.7683 3.25 21.0437 3.25V-0.75C18.5617 -0.75 16.5438 1.26413 16.5438 3.74875H20.5438ZM8.9575 -2C5.78336 -2 3.2075 0.574997 3.2075 3.74875H7.2075C7.2075 2.785 7.99164 2 8.9575 2V-2ZM3.2075 3.74875C3.2075 6.9225 5.78336 9.4975 8.9575 9.4975V5.4975C7.99164 5.4975 7.2075 4.7125 7.2075 3.74875H3.2075ZM8.9575 9.4975C12.13 9.4975 14.7075 6.92294 14.7075 3.74875H10.7075C10.7075 4.71206 9.92255 5.4975 8.9575 5.4975V9.4975ZM14.7075 3.74875C14.7075 0.574562 12.13 -2 8.9575 -2V2C9.92255 2 10.7075 2.78544 10.7075 3.74875H14.7075ZM8.9575 3.25C9.23298 3.25 9.4575 3.47587 9.4575 3.74875H13.4575C13.4575 1.26413 11.4395 -0.75 8.9575 -0.75V3.25ZM9.4575 3.74875C9.4575 4.02293 9.23168 4.24875 8.9575 4.24875V8.24875C11.4408 8.24875 13.4575 6.23207 13.4575 3.74875H9.4575ZM8.9575 4.24875C8.68332 4.24875 8.4575 4.02293 8.4575 3.74875H4.4575C4.4575 6.23207 6.47418 8.24875 8.9575 8.24875V4.24875ZM8.4575 3.74875C8.4575 3.47587 8.68202 3.25 8.9575 3.25V-0.75C6.47548 -0.75 4.4575 1.26413 4.4575 3.74875H8.4575ZM21.0175 21.785C20.9311 21.785 20.8142 21.746 20.723 21.657C20.635 21.5712 20.619 21.4878 20.6178 21.4686L24.6097 21.2139C24.4895 19.3308 23.01 17.785 21.0175 17.785V21.785ZM20.6183 21.4759C20.6822 22.4227 20.8365 24.2685 20.9707 25.8696L24.9568 25.5354C24.821 23.9165 24.6703 22.1123 24.6092 21.2066L20.6183 21.4759ZM20.9705 25.8665L21.1655 28.2365L25.152 27.9085L24.957 25.5385L20.9705 25.8665ZM21.1651 28.2314C21.1998 28.6668 21.3442 29.2439 21.7494 29.7616C22.2087 30.3484 22.9294 30.75 23.7938 30.75V26.75C23.9769 26.75 24.1949 26.791 24.4136 26.9007C24.6289 27.0087 24.789 27.1553 24.8993 27.2962C25.1008 27.5536 25.1427 27.792 25.1524 27.9136L21.1651 28.2314ZM23.7938 30.75C24.9453 30.75 25.6949 30.0543 26.0421 29.3879C26.3237 28.8472 26.3599 28.3252 26.3673 28.1313L22.3702 27.9787C22.3714 27.9485 22.3726 27.774 22.4945 27.5399C22.5677 27.3995 22.712 27.1866 22.972 27.01C23.2495 26.8215 23.5481 26.75 23.7938 26.75V30.75ZM26.3671 28.1374L26.9571 13.8286L22.9604 13.6639L22.3704 27.9726L26.3671 28.1374ZM26.9569 13.8321C26.8949 15.2758 25.0207 15.6126 24.3739 14.4259L27.8861 12.5116C26.6493 10.2424 23.0776 10.9368 22.9606 13.6604L26.9569 13.8321ZM24.3795 14.436L26.4357 18.1573L29.9368 16.2227L27.8805 12.5015L24.3795 14.436ZM26.433 18.1523C27.613 20.3024 30.75 19.3385 30.75 17.0438H26.75C26.75 16.1385 27.4099 15.5566 28.0129 15.3974C28.6271 15.2352 29.5002 15.4271 29.9395 16.2277L26.433 18.1523ZM30.675 16.501L28.675 9.40728L24.825 10.4927L26.825 17.5865L30.675 16.501ZM28.6771 9.41501C28.3177 8.12022 27.1353 7.24125 25.8137 7.24125V11.2413C25.3597 11.2413 24.9498 10.9423 24.8229 10.485L28.6771 9.41501ZM25.8137 7.24125H4.185V11.2413H25.8137V7.24125ZM4.185 7.24125C2.86333 7.24125 1.68557 8.12057 1.32354 9.40693L5.17396 10.4906C5.04693 10.9419 4.64167 11.2413 4.185 11.2413V7.24125ZM1.32454 9.40339L-0.662959 16.4159L3.18546 17.5066L5.17296 10.4941L1.32454 9.40339ZM-0.735762 16.852C-0.758929 17.2753 -0.690737 17.8667 -0.295114 18.4106C0.121292 18.9831 0.714853 19.2475 1.2343 19.3146C1.7177 19.3771 2.15715 19.2791 2.4995 19.1258C2.81517 18.9845 3.27157 18.694 3.56954 18.1477L0.0579589 16.2323C0.307176 15.7754 0.666706 15.5638 0.865343 15.4749C1.09067 15.374 1.39292 15.3018 1.74695 15.3476C2.13702 15.398 2.60902 15.6031 2.93965 16.0577C3.24949 16.4836 3.26768 16.8985 3.25826 17.0705L-0.735762 16.852ZM3.56428 18.1573L5.62053 14.436L2.11947 12.5015L0.063221 16.2227L3.56428 18.1573ZM5.61813 14.4404C4.95213 15.6386 3.1015 15.2368 3.04298 13.8293L7.03952 13.6632C6.9285 10.9932 3.39787 10.2014 2.12187 12.4971L5.61813 14.4404ZM3.04294 13.8285L3.63169 28.1385L7.62831 27.974L7.03956 13.664L3.04294 13.8285ZM3.63184 28.1421C3.65051 28.5765 3.77265 29.1665 4.1662 29.7043C4.61789 30.3215 5.35237 30.75 6.2425 30.75V26.75C6.43413 26.75 6.6646 26.7942 6.89471 26.9146C7.12101 27.033 7.28472 27.1925 7.39411 27.342C7.59235 27.6128 7.62324 27.856 7.62816 27.9704L3.63184 28.1421ZM6.2425 30.75C7.06301 30.75 7.76833 30.3855 8.2384 29.8291C8.66741 29.3213 8.84509 28.7289 8.88398 28.2288L4.89602 27.9187C4.90866 27.7561 4.96821 27.5018 5.18285 27.2477C5.43854 26.9451 5.83324 26.75 6.2425 26.75V30.75ZM8.88323 28.2381L9.08323 25.8131L5.09677 25.4844L4.89677 27.9094L8.88323 28.2381ZM9.08302 25.8157C9.21603 24.2283 9.3678 22.4142 9.43165 21.4743L5.44085 21.2032C5.3797 22.1033 5.23148 23.8767 5.09698 25.4818L9.08302 25.8157ZM9.43199 21.4692C9.43064 21.4899 9.41414 21.5727 9.32709 21.6575C9.23678 21.7455 9.12029 21.785 9.0325 21.785V17.785C7.04177 17.785 5.56331 19.3297 5.44051 21.2083L9.43199 21.4692ZM9.0325 21.785C8.88292 21.785 8.79293 21.7335 8.73968 21.6857C8.70678 21.6562 8.67701 21.6184 8.65509 21.5741C8.63219 21.5279 8.62557 21.4901 8.62444 21.4732L12.6156 21.2068C12.4755 19.1083 10.7393 17.785 9.0325 17.785V21.785ZM8.62444 21.4732C8.68712 22.4122 8.83904 24.2278 8.97198 25.8145L12.958 25.4805C12.8235 23.8747 12.6754 22.1028 12.6156 21.2068L8.62444 21.4732ZM8.97177 25.8119L9.17177 28.2369L13.1582 27.9081L12.9582 25.4831L8.97177 25.8119ZM9.17071 28.2235C9.20347 28.6563 9.34398 29.231 9.74231 29.7486C10.1945 30.3363 10.9144 30.75 11.7887 30.75V26.75C11.9794 26.75 12.2033 26.7934 12.4255 26.9068C12.6438 27.0182 12.8037 27.168 12.9124 27.3092C13.1104 27.5665 13.1503 27.8025 13.1593 27.9215L9.17071 28.2235ZM11.7887 30.75C12.8952 30.75 13.6477 30.0989 14.0088 29.4205C14.2979 28.8773 14.3358 28.3457 14.3445 28.1388L10.348 27.9712C10.349 27.9474 10.3518 27.9061 10.3634 27.8498C10.3739 27.7984 10.4018 27.6839 10.4778 27.5411C10.557 27.3923 10.7084 27.1772 10.9739 27.0019C11.254 26.8169 11.5499 26.75 11.7887 26.75V30.75ZM14.3445 28.1375C14.4202 26.3036 14.6161 22.4753 14.7947 19.0785C14.8839 17.3827 14.9686 15.7986 15.0314 14.6312C15.0628 14.0474 15.0887 13.568 15.107 13.2309C15.1162 13.0623 15.1235 12.9295 15.1285 12.8372C15.1341 12.7359 15.1362 12.698 15.1359 12.7024L11.1441 12.4476C11.1356 12.58 10.5011 24.2624 10.348 27.9725L14.3445 28.1375ZM15.1372 12.6801C15.0987 13.4131 14.4917 13.9837 13.7638 13.9837V9.98375C12.3708 9.98375 11.2163 11.0719 11.1428 12.4699L15.1372 12.6801ZM13.7638 13.9837H16.2175V9.98375H13.7638V13.9837ZM16.2175 13.9837C15.4841 13.9837 14.8823 13.409 14.844 12.6814L18.8385 12.4711C18.7652 11.0785 17.6159 9.98375 16.2175 9.98375V13.9837ZM14.8453 12.7037C14.8453 12.7033 14.8546 12.8785 14.873 13.2283C14.8907 13.5653 14.9157 14.0448 14.946 14.6285C15.0066 15.7959 15.0883 17.38 15.1746 19.0759C15.3474 22.4719 15.5378 26.3024 15.6142 28.1394L19.6108 27.9731C19.4566 24.2674 18.8459 12.5855 18.8372 12.4488L14.8453 12.7037ZM15.6144 28.1431C15.6363 28.646 15.7946 29.2563 16.221 29.7862C16.6923 30.372 17.413 30.75 18.2488 30.75V26.75C18.6657 26.75 19.0759 26.9536 19.3375 27.2788C19.5541 27.5481 19.6037 27.8115 19.6106 27.9694L15.6144 28.1431ZM18.2488 30.75C19.1111 30.75 19.8315 30.3502 20.2914 29.765C20.6988 29.2468 20.8463 28.6656 20.8786 28.2174L16.8889 27.9301C16.8987 27.7944 16.9437 27.5513 17.1467 27.2931C17.2575 27.1521 17.4175 27.0066 17.6314 26.8996C17.8487 26.7909 18.0657 26.75 18.2488 26.75V30.75ZM20.8769 28.2397L21.0831 25.7622L17.0969 25.4303L16.8906 27.9078L20.8769 28.2397ZM21.0832 25.7616C21.2135 24.1897 21.3629 22.4019 21.4255 21.4732L17.4345 21.2043C17.3746 22.0931 17.229 23.8378 17.0968 25.4309L21.0832 25.7616ZM21.4255 21.4721C21.4243 21.4901 21.4174 21.5286 21.3944 21.575C21.3724 21.6194 21.3426 21.6571 21.31 21.6863C21.2576 21.7332 21.1681 21.785 21.0175 21.785V17.785C19.3139 17.785 17.5747 19.1064 17.4345 21.2054L21.4255 21.4721ZM23.795 28C23.7997 28 23.8182 28.0014 23.8432 28.0116C23.8674 28.0215 23.8872 28.0354 23.9011 28.0488C23.9147 28.0621 23.9185 28.0709 23.9175 28.0689C23.9168 28.0672 23.9093 28.0505 23.9065 28.0137L19.9185 28.3238C20.0748 30.3344 21.652 32 23.795 32V28ZM23.9066 28.0154C23.8622 27.4383 23.7904 26.5716 23.7117 25.6392L19.7258 25.9758C19.8046 26.9084 19.8753 27.7617 19.9184 28.3221L23.9066 28.0154ZM23.7118 25.6412C23.576 24.0137 23.424 22.2006 23.3616 21.2873L19.3709 21.5602C19.436 22.5119 19.5915 24.3663 19.7257 25.9738L23.7118 25.6412ZM23.362 21.2942C23.3271 20.7555 23.1219 20.1396 22.6097 19.6605C22.1129 19.1958 21.5128 19.035 21.0175 19.035V23.035C20.6785 23.035 20.2434 22.9242 19.8772 22.5817C19.4956 22.2248 19.3867 21.8032 19.3705 21.5533L23.362 21.2942ZM21.0175 19.035C20.0102 19.035 18.784 19.8097 18.6822 21.2849L22.6728 21.5601C22.6456 21.9537 22.4538 22.3497 22.1257 22.6333C21.8691 22.8549 21.4946 23.035 21.0175 23.035V19.035ZM18.682 21.2887C18.6221 22.1817 18.4753 23.933 18.3419 25.5339L22.3281 25.8661C22.4597 24.287 22.6104 22.4908 22.673 21.5563L18.682 21.2887ZM18.3421 25.5312C18.2596 26.5054 18.1841 27.4148 18.1373 28.0144L22.1252 28.3256C22.1709 27.7402 22.2454 26.8421 22.3279 25.8688L18.3421 25.5312ZM18.1371 28.0171C18.1343 28.053 18.1271 28.069 18.1266 28.0702C18.1259 28.0717 18.1299 28.0627 18.1436 28.0493C18.1576 28.0357 18.1775 28.0218 18.2019 28.0118C18.2271 28.0015 18.2459 28 18.2512 28V32C20.3927 32 21.9712 30.3342 22.1254 28.3229L18.1371 28.0171ZM18.2512 28C18.2581 28 18.2768 28.0019 18.3004 28.0118C18.323 28.0213 18.3407 28.0341 18.3526 28.046C18.3643 28.0577 18.3678 28.0658 18.3675 28.0653C18.3674 28.0649 18.3661 28.0618 18.3646 28.0553C18.3631 28.0489 18.3613 28.0383 18.3607 28.0231L14.3643 28.1944C14.4529 30.26 16.0659 32 18.2512 32V28ZM18.3608 28.0262C18.2277 24.8036 17.7482 15.5561 17.621 13.1291L13.6265 13.3384C13.7543 15.7764 14.2323 24.9964 14.3642 28.1913L18.3608 28.0262ZM15.6237 11.2337H14.355V15.2337H15.6237V11.2337ZM12.3579 13.1259C12.2271 15.5484 11.7299 24.8013 11.5967 28.025L15.5933 28.19C15.7251 24.9987 16.2204 15.7791 16.3521 13.3416L12.3579 13.1259ZM11.5968 28.0224C11.5911 28.157 11.5522 28.1506 11.6084 28.0916C11.6346 28.0642 11.6711 28.0377 11.7138 28.0196C11.7567 28.0014 11.7861 28 11.79 28V32C14.04 32 15.5073 30.2082 15.5932 28.1926L11.5968 28.0224ZM11.79 28C11.7973 28 11.8183 28.0019 11.8454 28.0131C11.8717 28.0239 11.8929 28.0388 11.9074 28.0531C11.9217 28.0671 11.9255 28.0762 11.9245 28.0738C11.9235 28.0717 11.9158 28.0541 11.9129 28.0161L7.92459 28.3214C8.07789 30.3238 9.6424 32 11.79 32V28ZM11.9119 28.0039L11.7119 25.5864L7.72556 25.9161L7.92556 28.3336L11.9119 28.0039ZM11.7118 25.585C11.5771 23.9698 11.4279 22.192 11.3681 21.2913L7.37689 21.5562C7.43959 22.5005 7.59288 24.3252 7.72567 25.9175L11.7118 25.585ZM11.3678 21.2867C11.2664 19.8101 10.0388 19.035 9.0325 19.035V23.035C8.55202 23.035 8.17787 22.853 7.92362 22.6332C7.5965 22.3504 7.40426 21.9549 7.3772 21.5608L11.3678 21.2867ZM9.0325 19.035C8.53344 19.035 7.93671 19.1982 7.44345 19.6573C6.93174 20.1336 6.7212 20.75 6.68751 21.2987L10.68 21.5438C10.6638 21.8075 10.5495 22.2308 10.1687 22.5852C9.80642 22.9225 9.37531 23.035 9.0325 23.035V19.035ZM6.6883 21.2864C6.62717 22.1912 6.47781 23.9719 6.34317 25.5863L10.3293 25.9187C10.4622 24.3256 10.6153 22.5013 10.6792 21.5561L6.6883 21.2864ZM6.34306 25.5876L6.14306 28.0051L10.1294 28.3349L10.3294 25.9174L6.34306 25.5876ZM6.1421 28.0171C6.13948 28.0513 6.13262 28.0661 6.13248 28.0664C6.13217 28.067 6.13638 28.058 6.14969 28.0451C6.16319 28.032 6.18191 28.0192 6.20405 28.0102C6.21469 28.0059 6.22437 28.0031 6.23232 28.0016C6.23619 28.0008 6.23932 28.0004 6.24158 28.0002C6.24385 28 6.24502 28 6.245 28V32C8.38199 32 9.97536 30.3455 10.1304 28.3229L6.1421 28.0171ZM6.245 28C6.24449 28 6.24972 28 6.25958 28.0019C6.26943 28.0039 6.28187 28.0074 6.29581 28.0133C6.32502 28.0255 6.35017 28.0433 6.36839 28.0618C6.38626 28.0799 6.39136 28.0924 6.39062 28.0906C6.38992 28.089 6.38136 28.068 6.37937 28.0221L2.38313 28.1954C2.47226 30.2501 4.03349 32 6.245 32V28ZM6.37956 28.0265L5.88206 15.9452L1.88544 16.1098L2.38294 28.191L6.37956 28.0265ZM2.13281 15.061L1.15781 16.8272L4.65969 18.7603L5.63469 16.994L2.13281 15.061ZM1.1586 16.8258C1.23904 16.6803 1.34803 16.6266 1.40176 16.6097C1.43277 16.6 1.47724 16.5912 1.53937 16.594C1.60018 16.5968 1.70721 16.6124 1.8384 16.6781L0.0465984 20.2544C0.899008 20.6814 1.83981 20.665 2.60136 20.4256C3.38572 20.179 4.17471 19.6372 4.6589 18.7617L1.1586 16.8258ZM1.72309 16.6249C1.88515 16.6936 2 16.8647 2 17.0438H-2C-2 18.4753 -1.15015 19.7514 0.161914 20.3076L1.72309 16.6249ZM2 17.0438C2 17.0857 1.99415 17.1256 1.98377 17.1625L-1.86627 16.0775C-1.95415 16.3894 -2 16.7143 -2 17.0438H2ZM1.98293 17.1655L3.97043 10.1542L0.122067 9.0633L-1.86543 16.0745L1.98293 17.1655ZM3.9711 10.1518C3.98259 10.1111 4.00855 10.0705 4.05138 10.0381C4.09428 10.0057 4.14126 9.99125 4.185 9.99125V5.99125C2.30126 5.99125 0.633751 7.24979 0.121401 9.06565L3.9711 10.1518ZM4.185 9.99125H25.8137V5.99125H4.185V9.99125ZM25.8137 9.99125C25.8578 9.99125 25.9051 10.0058 25.9484 10.0385C25.9917 10.0713 26.0177 10.1123 26.0291 10.1525L29.8784 9.06499C29.366 7.25146 27.6993 5.99125 25.8137 5.99125V9.99125ZM26.0295 10.1541L28.017 17.1666L31.8655 16.0759L29.878 9.06339L26.0295 10.1541ZM28.0175 17.1684C28.0056 17.1265 28 17.0849 28 17.0438H32C32 16.7151 31.9544 16.3885 31.865 16.0741L28.0175 17.1684ZM28 17.0438C28 16.8643 28.1148 16.6925 28.2803 16.6233L29.8222 20.3142C31.1427 19.7625 32 18.4807 32 17.0438H28ZM28.2162 16.6514L28.17 16.6727L29.84 20.3073L29.8863 20.2861L28.2162 16.6514ZM28.2862 16.6236C28.4189 16.5725 28.5326 16.5863 28.6063 16.6132C28.6797 16.64 28.7754 16.7025 28.8442 16.8274L25.3408 18.7576C26.1877 20.2949 28.0823 20.9886 29.7238 20.3563L28.2862 16.6236ZM28.8426 16.8245L27.8664 15.0595L24.3661 16.9955L25.3424 18.7605L28.8426 16.8245ZM24.1179 15.9452L23.6204 28.0252L27.6171 28.1898L28.1146 16.1098L24.1179 15.9452ZM23.6206 28.0224C23.6178 28.0872 23.6062 28.1183 23.6043 28.1228C23.6027 28.127 23.6091 28.1096 23.634 28.0839C23.6595 28.0574 23.694 28.033 23.7328 28.0167C23.7717 28.0004 23.7963 28 23.795 28V32C26.036 32 27.5302 30.2289 27.6169 28.1926L23.6206 28.0224Z" fill="#52A800" mask="url(#path-1-inside-1_1436_5961)"/>
</svg>
