<svg width="32" height="30" viewBox="0 0 32 30" fill="none" xmlns="http://www.w3.org/2000/svg">
<path d="M11.3125 6.5625H8.5C7.98223 6.5625 7.5625 6.98223 7.5625 7.5V22.5C7.5625 23.0178 7.98223 23.4375 8.5 23.4375H11.3125C11.8303 23.4375 12.25 23.0178 12.25 22.5V7.5C12.25 6.98223 11.8303 6.5625 11.3125 6.5625Z" stroke="#52A800" stroke-width="2" stroke-linecap="round" stroke-linejoin="round"/>
<path d="M23.5 6.5625H20.6875C20.1697 6.5625 19.75 6.98223 19.75 7.5V22.5C19.75 23.0178 20.1697 23.4375 20.6875 23.4375H23.5C24.0178 23.4375 24.4375 23.0178 24.4375 22.5V7.5C24.4375 6.98223 24.0178 6.5625 23.5 6.5625Z" stroke="#52A800" stroke-width="2" stroke-linecap="round" stroke-linejoin="round"/>
<path d="M24.4375 9.375H27.25C27.4986 9.375 27.7371 9.47377 27.9129 9.64959C28.0887 9.8254 28.1875 10.0639 28.1875 10.3125V19.6875C28.1875 19.9361 28.0887 20.1746 27.9129 20.3504C27.7371 20.5262 27.4986 20.625 27.25 20.625H24.4375" stroke="#52A800" stroke-width="2" stroke-linecap="round" stroke-linejoin="round"/>
<path d="M7.5625 20.625H4.75C4.50136 20.625 4.2629 20.5262 4.08709 20.3504C3.91127 20.1746 3.8125 19.9361 3.8125 19.6875V10.3125C3.8125 10.0639 3.91127 9.8254 4.08709 9.64959C4.2629 9.47377 4.50136 9.375 4.75 9.375H7.5625" stroke="#52A800" stroke-width="2" stroke-linecap="round" stroke-linejoin="round"/>
<path d="M12.25 15H19.75" stroke="#52A800" stroke-width="2" stroke-linecap="round" stroke-linejoin="round"/>
<path d="M28.1875 15H30.0625" stroke="#52A800" stroke-width="2" stroke-linecap="round" stroke-linejoin="round"/>
<path d="M1.9375 15H3.8125" stroke="#52A800" stroke-width="2" stroke-linecap="round" stroke-linejoin="round"/>
</svg>
