<svg width="30" height="30" viewBox="0 0 30 30" fill="none" xmlns="http://www.w3.org/2000/svg">
<path d="M15 26.25C21.2132 26.25 26.25 21.2132 26.25 15C26.25 8.7868 21.2132 3.75 15 3.75C8.7868 3.75 3.75 8.7868 3.75 15C3.75 21.2132 8.7868 26.25 15 26.25Z" stroke="#52A800" stroke-width="2" stroke-linecap="round" stroke-linejoin="round"/>
<path d="M25.0971 19.9658L18.7354 16.0531C18.6239 15.9845 18.4992 15.9401 18.3695 15.9226L15.6954 15.5621C15.4946 15.535 15.2905 15.5738 15.1135 15.6725C14.9366 15.7712 14.7963 15.9245 14.7139 16.1096L13.1085 19.7117C13.0339 19.8793 13.01 20.065 13.0398 20.2459C13.0697 20.4269 13.152 20.5951 13.2765 20.7298L15.4796 23.1128C15.5795 23.2208 15.6525 23.3508 15.6928 23.4923C15.7331 23.6338 15.7396 23.7828 15.7116 23.9272L15.2629 26.2471" stroke="#52A800" stroke-width="2" stroke-linecap="round" stroke-linejoin="round"/>
<path d="M7.61145 6.5166L6.5633 8.99508C6.46984 9.21608 6.46467 9.46449 6.54886 9.68918L7.89544 13.2831C7.95059 13.4303 8.04184 13.5612 8.16082 13.6639C8.2798 13.7666 8.42269 13.8377 8.57635 13.8707L11.0877 14.4105C11.227 14.4404 11.3577 14.5018 11.4698 14.5898C11.5819 14.6779 11.6724 14.7903 11.7345 14.9186L12.1805 15.8399C12.2572 15.9985 12.3771 16.1322 12.5263 16.2258C12.6756 16.3193 12.8482 16.369 13.0243 16.369H14.5984" stroke="#52A800" stroke-width="2" stroke-linecap="round" stroke-linejoin="round"/>
<path d="M17.8661 4.11914L18.9599 6.07833C19.0633 6.26354 19.1009 6.47834 19.0664 6.68764C19.0319 6.89694 18.9275 7.08837 18.7702 7.23065L15.6166 10.0827C15.563 10.1311 15.5041 10.1732 15.4409 10.2081L14.0064 11.0003C13.8676 11.0769 13.7117 11.1171 13.5531 11.1171H11.0517C10.8673 11.1171 10.6869 11.1715 10.5332 11.2736C10.3795 11.3756 10.2594 11.5207 10.1878 11.6907L9.21191 14.0073" stroke="#52A800" stroke-width="2" stroke-linecap="round" stroke-linejoin="round"/>
</svg>
