<svg width="30" height="30" viewBox="0 0 30 30" fill="none" xmlns="http://www.w3.org/2000/svg">
<path d="M15 15L7.875 9.65625C7.75857 9.56892 7.66406 9.45569 7.59897 9.32551C7.53389 9.19534 7.5 9.05179 7.5 8.90625V4.6875C7.5 4.43886 7.59877 4.2004 7.77459 4.02459C7.9504 3.84877 8.18886 3.75 8.4375 3.75H21.5625C21.8111 3.75 22.0496 3.84877 22.2254 4.02459C22.4012 4.2004 22.5 4.43886 22.5 4.6875V8.8642C22.5 9.00915 22.4664 9.15212 22.4018 9.28189C22.3372 9.41165 22.2434 9.52468 22.1278 9.61208L15 15Z" stroke="#52A800" stroke-width="2" stroke-linecap="round" stroke-linejoin="round"/>
<path d="M15 15L7.875 20.3438C7.75857 20.4311 7.66406 20.5443 7.59897 20.6745C7.53389 20.8047 7.5 20.9482 7.5 21.0938V25.3125C7.5 25.5611 7.59877 25.7996 7.77459 25.9754C7.9504 26.1512 8.18886 26.25 8.4375 26.25H21.5625C21.8111 26.25 22.0496 26.1512 22.2254 25.9754C22.4012 25.7996 22.5 25.5611 22.5 25.3125V21.1358C22.5 20.9909 22.4664 20.8479 22.4018 20.7181C22.3372 20.5883 22.2434 20.4753 22.1278 20.3879L15 15Z" stroke="#52A800" stroke-width="2" stroke-linecap="round" stroke-linejoin="round"/>
<path d="M8.74902 10.3115H21.2016" stroke="#52A800" stroke-width="2" stroke-linecap="round" stroke-linejoin="round"/>
<path d="M15 19.687V15" stroke="#52A800" stroke-width="2" stroke-linecap="round" stroke-linejoin="round"/>
</svg>
