<svg width="30" height="30" viewBox="0 0 30 30" fill="none" xmlns="http://www.w3.org/2000/svg">
<path fill-rule="evenodd" clip-rule="evenodd" d="M27.8935 29.9999L17.7504 19.5651L19.5435 17.7205L29.6865 28.1553L27.8935 29.9999Z" fill="white"/>
<path fill-rule="evenodd" clip-rule="evenodd" d="M11.41 20.8697C16.3108 20.8697 20.2841 16.782 20.2841 11.7392C20.2841 6.69634 16.3108 2.60871 11.41 2.60871C6.50909 2.60871 2.53577 6.69634 2.53577 11.7392C2.53577 16.782 6.50909 20.8697 11.41 20.8697ZM11.41 23.4784C17.7115 23.4784 22.8199 18.2225 22.8199 11.7392C22.8199 5.25581 17.7115 0 11.41 0C5.10841 0 0 5.25581 0 11.7392C0 18.2225 5.10841 23.4784 11.41 23.4784Z" fill="white"/>
</svg>
