<svg width="25" height="24" viewBox="0 0 25 24" fill="none" xmlns="http://www.w3.org/2000/svg">
<g clip-path="url(#clip0_1250_68)">
<path fill-rule="evenodd" clip-rule="evenodd" d="M22.1156 0H2.88437C1.29167 0 0 1.1932 0 2.66449V20.4277C0 21.9009 1.29167 23.0941 2.88437 23.0941H22.1167C23.7094 23.0941 25 21.9009 25 20.4277V2.66449C25 1.1932 23.7094 0 22.1156 0V0ZM12.5 7.10626C15.1552 7.10626 17.3083 9.09332 17.3083 11.5471C17.3083 13.9999 15.1552 15.9888 12.5 15.9888C9.84479 15.9888 7.69271 13.9989 7.69271 11.5471C7.69271 9.09332 9.84479 7.10626 12.5 7.10626ZM21.875 19.3202C21.875 19.81 21.4448 20.2074 20.9125 20.2074H4.0875C3.55521 20.2074 3.125 19.81 3.125 19.3202V9.62256H5.10104C5.00937 9.92567 4.94167 10.2384 4.89271 10.5569C4.84062 10.8812 4.80833 11.2103 4.80833 11.5471C4.80833 15.4721 8.25208 18.6533 12.5 18.6533C16.7479 18.6533 20.1917 15.4721 20.1917 11.5471C20.1917 11.2103 20.1594 10.8812 20.1073 10.5579C20.0583 10.2394 19.9906 9.92663 19.899 9.62352H21.875V19.3202ZM21.875 5.86784C21.875 6.35763 21.4448 6.756 20.9125 6.756H18.6479C18.1156 6.756 17.6865 6.35763 17.6865 5.86784V3.77493C17.6865 3.28418 18.1156 2.88677 18.6479 2.88677H20.9125C21.4448 2.88677 21.875 3.28418 21.875 3.77493V5.86784Z" fill="#2B2A29"/>
</g>
<defs>
<clipPath id="clip0_1250_68">
<rect width="25" height="23.0941" fill="white"/>
</clipPath>
</defs>
</svg>
