<?xml version="1.0" encoding="UTF-8"?>
<!DOCTYPE svg PUBLIC "-//W3C//DTD SVG 1.1//EN" "http://www.w3.org/Graphics/SVG/1.1/DTD/svg11.dtd">
<!-- Creator: CorelDRAW 2020 (64-Bit) -->
<svg xmlns="http://www.w3.org/2000/svg" xml:space="preserve" width="2272px" height="500px" version="1.1" style="shape-rendering:geometricPrecision; text-rendering:geometricPrecision; image-rendering:optimizeQuality; fill-rule:evenodd; clip-rule:evenodd"
viewBox="0 0 227469 50059"
 xmlns:xlink="http://www.w3.org/1999/xlink"
 xmlns:xodm="http://www.corel.com/coreldraw/odm/2003">
 <defs>
  <style type="text/css">
   <![CDATA[
    .fil4 {fill:#52A800}
    .fil5 {fill:#FEFEFE;fill-rule:nonzero}
    .fil0 {fill:#343331;fill-rule:nonzero}
    .fil1 {fill:#087BA8;fill-rule:nonzero}
    .fil2 {fill:#52A800;fill-rule:nonzero}
    .fil3 {fill:#A85D08;fill-rule:nonzero}
   ]]>
  </style>
 </defs>
 <g id="Слой_x0020_1">
  <metadata id="CorelCorpID_0Corel-Layer"/>
  <path class="fil0" d="M3399 14559l-3399 0 0 6200 3399 0 0 9047c0,4179 1561,9001 8037,9001 3352,0 5970,-1469 5970,-1469l-2021 -6568c0,0 -964,735 -2021,735 -1286,0 -1837,-1056 -1837,-3260l0 -7486 4960 0 0 -6200 -4960 0 0 -8772 -8128 0 0 8772z"/>
  <path id="1" class="fil0" d="M20161 38119l8129 0 0 -12400c0,-597 597,-4777 4822,-4777 2710,0 4226,1286 4226,1286l3398 -6889c0,0 -2112,-1469 -5144,-1469 -4638,0 -7210,4087 -7210,4087l-92 0 0 -3398 -8129 0 0 23560z"/>
  <path id="2" class="fil0" d="M47212 0c-2664,0 -4823,2159 -4823,4822 0,2664 2159,4823 4823,4823 2663,0 4822,-2159 4822,-4823 0,-2663 -2159,-4822 -4822,-4822zm-4180 14559l8129 0 0 23560 -8129 0 0 -23560z"/>
  <path id="3" class="fil0" d="M84457 26316c0,-6889 -4822,-12446 -11711,-12446 -3214,0 -5970,1423 -7715,3352l-92 0 0 -2663 -8037 0 0 35500 8129 0 0 -14191c1929,1883 4546,2939 7715,2939 6889,0 11711,-5602 11711,-12491zm-8634 0c0,3260 -2434,5557 -5511,5557 -3031,0 -5465,-2297 -5465,-5557 0,-3215 2296,-5512 5465,-5512 3307,0 5511,2297 5511,5512z"/>
  <path id="4" class="fil1" d="M88269 38119l8129 0 0 -13778c0,-1883 1056,-3950 3766,-3950 2893,0 4133,2067 4133,4409l0 13319 8129 0 0 -14054c92,-1791 1194,-3674 3766,-3674 2893,0 4133,2067 4133,4409l0 13319 8129 0 0 -15523c0,-6568 -4868,-8726 -9185,-8726 -2572,0 -5327,1332 -7807,4317 -1654,-3169 -5098,-4317 -8221,-4317 -2572,0 -4914,1332 -6751,3169l-92 0 0 -2480 -8129 0 0 23560z"/>
  <path id="5" class="fil2" d="M137685 0c-2663,0 -4822,2159 -4822,4822 0,2664 2159,4823 4822,4823 2664,0 4823,-2159 4823,-4823 0,-2663 -2159,-4822 -4823,-4822zm-4179 14559l8129 0 0 23560 -8129 0 0 -23560z"/>
  <path id="6" class="fil3" d="M147376 38119l8129 0 0 -12400c0,-597 597,-4777 4822,-4777 2709,0 4225,1286 4225,1286l3398 -6889c0,0 -2112,-1469 -5143,-1469 -4639,0 -7211,4087 -7211,4087l-91 0 0 -3398 -8129 0 0 23560z"/>
  <g id="_1830764929696">
   <path class="fil4" d="M202440 0c-14166,287 -25030,11206 -25030,25024l0 24290c0,403 329,733 732,734 13295,28 34239,686 40016,-14097 94,-243 291,-406 547,-455 255,-48 498,32 675,223l2890 3117c156,169 360,249 589,234 229,-16 419,-123 551,-311 2570,-3662 4059,-9780 4059,-13735 0,-13818 -11208,-25024 -25029,-25024zm-603 10565c7832,0 14184,6350 14184,14180 0,7830 -6352,14180 -14184,14180 -7832,0 -14183,-6350 -14183,-14180 0,-7830 6351,-14180 14183,-14180z"/>
   <path class="fil5" d="M201868 39053c7886,0 14278,-6390 14278,-14275 0,-7883 -6392,-14274 -14278,-14274 -7885,0 -14279,6391 -14279,14274 0,7885 6394,14275 14279,14275z"/>
   <path class="fil0" d="M197698 24552c2654,0 4805,-2152 4805,-4806 0,-2654 -2151,-4806 -4805,-4806 -2654,0 -4806,2152 -4806,4806 0,2654 2152,4806 4806,4806z"/>
  </g>
 </g>
</svg>
