<svg width="30" height="30" viewBox="0 0 30 30" fill="none" xmlns="http://www.w3.org/2000/svg">
<path d="M14.999 20.625C20.1767 20.625 24.374 16.4277 24.374 11.25C24.374 6.07233 20.1767 1.875 14.999 1.875C9.82135 1.875 5.62402 6.07233 5.62402 11.25C5.62402 16.4277 9.82135 20.625 14.999 20.625Z" stroke="#52A800" stroke-width="2" stroke-linecap="round" stroke-linejoin="round"/>
<path d="M14.999 16.875C18.1056 16.875 20.624 14.3566 20.624 11.25C20.624 8.1434 18.1056 5.625 14.999 5.625C11.8924 5.625 9.37402 8.1434 9.37402 11.25C9.37402 14.3566 11.8924 16.875 14.999 16.875Z" stroke="#52A800" stroke-width="2" stroke-linecap="round" stroke-linejoin="round"/>
<path d="M20.625 18.75V28.1256L14.9992 25.3131L9.375 28.1256V18.7508" stroke="#52A800" stroke-width="2" stroke-linecap="round" stroke-linejoin="round"/>
</svg>
