<svg width="32" height="32" viewBox="0 0 32 32" fill="none" xmlns="http://www.w3.org/2000/svg">
<path fill-rule="evenodd" clip-rule="evenodd" d="M29.7139 15.0118L3.50838 1.64724C3.28983 1.53617 3.0357 1.48527 2.78158 1.50841C2.53253 1.53154 2.29365 1.6241 2.10052 1.77218C1.90738 1.92027 1.77015 2.11925 1.70408 2.34138C1.63801 2.5635 1.64817 2.79951 1.73458 3.01701L6.67988 15.618C6.77645 15.8633 6.77645 16.1317 6.67988 16.377L1.73458 28.978C1.64817 29.1955 1.63801 29.4315 1.70408 29.6536C1.77015 29.8757 1.90738 30.0747 2.10052 30.2228C2.29365 30.3709 2.53253 30.4634 2.78158 30.4866C3.03062 30.5097 3.28475 30.4588 3.50838 30.3477L29.719 16.9878C29.9121 16.8906 30.0697 16.7472 30.1815 16.5713C30.2933 16.4001 30.3492 16.2011 30.3492 16.0021C30.3492 15.8031 30.2882 15.6041 30.1815 15.4283C30.0697 15.2571 29.9071 15.1136 29.719 15.0118H29.7139Z" stroke="#52A800" stroke-width="2" stroke-miterlimit="22.9256" stroke-linecap="round" stroke-linejoin="round"/>
<path d="M6.82227 16.002H16.7535" stroke="#52A800" stroke-width="2" stroke-miterlimit="22.9256" stroke-linecap="round" stroke-linejoin="round"/>
</svg>
