<svg width="118" height="35" viewBox="0 0 118 35" fill="none" xmlns="http://www.w3.org/2000/svg">
<g clip-path="url(#clip0_1218_3913)">
<path d="M2.37615 10.1789H0V14.5138H2.37615V20.8394C2.37615 23.7614 3.46787 27.133 7.99539 27.133C10.3395 27.133 12.1697 26.1055 12.1697 26.1055L10.7569 21.5137C10.7569 21.5137 10.0826 22.0275 9.34398 22.0275C8.44492 22.0275 8.05955 21.289 8.05955 19.7477V14.5138H11.5275V10.1789H8.05955V4.0459H2.3761V10.1789H2.37615Z" fill="#2B2A29"/>
<path d="M14.0957 26.6514H19.7792V17.9817C19.7792 17.5643 20.1967 14.6423 23.1508 14.6423C25.0453 14.6423 26.1049 15.5413 26.1049 15.5413L28.4811 10.7248C28.4811 10.7248 27.004 9.69727 24.8847 9.69727C21.6416 9.69727 19.8434 12.5551 19.8434 12.5551H19.7792V10.1789H14.0957V26.6514V26.6514Z" fill="#2B2A29"/>
<path d="M33.0093 0C31.1469 0 29.6377 1.50917 29.6377 3.37157C29.6377 5.23392 31.1469 6.74315 33.0093 6.74315C34.8716 6.74315 36.3808 5.23392 36.3808 3.37157C36.3808 1.50917 34.8716 0 33.0093 0ZM30.0872 10.1789H35.7707V26.6514H30.0872V10.1789Z" fill="#2B2A29"/>
<path d="M59.0503 18.3991C59.0503 13.5826 55.6787 9.69727 50.8622 9.69727C48.6145 9.69727 46.6879 10.6927 45.4677 12.0413H45.4035V10.1789H39.7842V35.0001H45.4677V25.0781C46.8163 26.3946 48.6466 27.1331 50.8622 27.1331C55.6787 27.1331 59.0503 23.2157 59.0503 18.3992V18.3991ZM53.0135 18.3991C53.0135 20.6789 51.3118 22.2844 49.1603 22.2844C47.0411 22.2844 45.3392 20.6789 45.3392 18.3991C45.3392 16.1514 46.9447 14.5459 49.1603 14.5459C51.4722 14.5459 53.0135 16.1514 53.0135 18.3991Z" fill="#2B2A29"/>
<path d="M61.7158 26.6514H67.3993V17.0184C67.3993 15.7019 68.1379 14.2569 70.0324 14.2569C72.0553 14.2569 72.9223 15.7019 72.9223 17.3394V26.6514H78.6058V16.8257C78.67 15.5734 79.4406 14.2569 81.2388 14.2569C83.2617 14.2569 84.1287 15.7019 84.1287 17.3394V26.6514H89.8122V15.7982C89.8122 11.2064 86.4085 9.69727 83.3902 9.69727C81.592 9.69727 79.6654 10.6285 77.9315 12.7156C76.7755 10.5 74.3673 9.69727 72.1838 9.69727C70.3856 9.69727 68.748 10.6285 67.4635 11.9129H67.3993V10.1789H61.7158V26.6514V26.6514Z" fill="#087BA8"/>
<path d="M96.2661 0C94.4037 0 92.8945 1.50917 92.8945 3.37157C92.8945 5.23392 94.4037 6.74315 96.2661 6.74315C98.1285 6.74315 99.6376 5.23392 99.6376 3.37157C99.6376 1.50917 98.1285 0 96.2661 0ZM93.3441 10.1789H99.0276V26.6514H93.3441V10.1789Z" fill="#52A800"/>
<path d="M103.041 26.6514H108.725V17.9817C108.725 17.5643 109.142 14.6423 112.096 14.6423C113.991 14.6423 115.05 15.5413 115.05 15.5413L117.426 10.7248C117.426 10.7248 115.949 9.69727 113.83 9.69727C110.587 9.69727 108.789 12.5551 108.789 12.5551H108.725V10.1789H103.041V26.6514V26.6514Z" fill="#A85D08"/>
</g>
<defs>
<clipPath id="clip0_1218_3913">
<rect width="117.427" height="35" fill="white"/>
</clipPath>
</defs>
</svg>
