<svg width="76" height="37" viewBox="0 0 76 37" fill="none" xmlns="http://www.w3.org/2000/svg">
<g clip-path="url(#clip0_931_7635)">
<path d="M29.478 23.203C29.3561 23.8967 30.0405 24.4389 30.6436 24.1295L37.503 20.6045L44.3608 24.1295C44.9639 24.4389 45.6483 23.8967 45.5264 23.2045L44.2295 15.8139L49.7327 10.5701C50.2483 10.0795 49.9827 9.18265 49.292 9.08577L41.6389 7.99827L38.2264 1.23733C38.1614 1.10029 38.0588 0.984495 37.9306 0.903416C37.8024 0.822337 37.6539 0.779297 37.5022 0.779297C37.3505 0.779297 37.2019 0.822337 37.0737 0.903416C36.9455 0.984495 36.843 1.10029 36.778 1.23733L33.3655 7.99984L25.7123 9.08734C25.0233 9.18421 24.7561 10.0811 25.2702 10.5717L30.7748 15.8155L29.478 23.2061V23.203ZM37.142 18.8795L31.3827 21.8389L32.467 15.6561C32.4924 15.5138 32.4825 15.3674 32.4381 15.2298C32.3937 15.0922 32.3162 14.9676 32.2123 14.867L27.6717 10.5389L34.003 9.6389C34.1341 9.6191 34.2584 9.56782 34.3654 9.48945C34.4723 9.41107 34.5587 9.30795 34.617 9.1889L37.4998 3.47327L40.3858 9.1889C40.4442 9.30795 40.5305 9.41107 40.6375 9.48945C40.7444 9.56782 40.8687 9.6191 40.9998 9.6389L47.3311 10.5373L42.7905 14.8655C42.6864 14.9662 42.6087 15.0911 42.5643 15.2289C42.5199 15.3668 42.5101 15.5135 42.5358 15.6561L43.6202 21.8389L37.8608 18.8795C37.7494 18.8221 37.6259 18.7921 37.5006 18.7921C37.3753 18.7921 37.2518 18.8221 37.1405 18.8795H37.142Z" fill="#52A800"/>
</g>
<g clip-path="url(#clip1_931_7635)">
<path d="M4.47797 35.203C4.3561 35.8967 5.04047 36.4389 5.6436 36.1295L12.503 32.6045L19.3608 36.1295C19.9639 36.4389 20.6483 35.8967 20.5264 35.2045L19.2295 27.8139L24.7327 22.5701C25.2483 22.0795 24.9827 21.1826 24.292 21.0858L16.6389 19.9983L13.2264 13.2373C13.1614 13.1003 13.0588 12.9845 12.9306 12.9034C12.8024 12.8223 12.6539 12.7793 12.5022 12.7793C12.3505 12.7793 12.2019 12.8223 12.0737 12.9034C11.9455 12.9845 11.843 13.1003 11.778 13.2373L8.36547 19.9998L0.712349 21.0873C0.0232866 21.1842 -0.243901 22.0811 0.270162 22.5717L5.77485 27.8155L4.47797 35.2061V35.203ZM12.142 30.8795L6.38266 33.8389L7.46704 27.6561C7.49244 27.5138 7.4825 27.3674 7.43809 27.2298C7.39368 27.0922 7.31617 26.9676 7.21235 26.867L2.67172 22.5389L9.00297 21.6389C9.13408 21.6191 9.25842 21.5678 9.36537 21.4894C9.47231 21.4111 9.55867 21.3079 9.61704 21.1889L12.4998 15.4733L15.3858 21.1889C15.4442 21.3079 15.5305 21.4111 15.6375 21.4894C15.7444 21.5678 15.8687 21.6191 15.9998 21.6389L22.3311 22.5373L17.7905 26.8655C17.6864 26.9662 17.6087 27.0911 17.5643 27.2289C17.5199 27.3668 17.5101 27.5135 17.5358 27.6561L18.6202 33.8389L12.8608 30.8795C12.7494 30.8221 12.6259 30.7921 12.5006 30.7921C12.3753 30.7921 12.2518 30.8221 12.1405 30.8795H12.142Z" fill="#52A800"/>
</g>
<g clip-path="url(#clip2_931_7635)">
<path d="M55.478 35.203C55.3561 35.8967 56.0405 36.4389 56.6436 36.1295L63.503 32.6045L70.3608 36.1295C70.9639 36.4389 71.6483 35.8967 71.5264 35.2045L70.2295 27.8139L75.7327 22.5701C76.2483 22.0795 75.9827 21.1826 75.292 21.0858L67.6389 19.9983L64.2264 13.2373C64.1614 13.1003 64.0588 12.9845 63.9306 12.9034C63.8024 12.8223 63.6539 12.7793 63.5022 12.7793C63.3505 12.7793 63.2019 12.8223 63.0737 12.9034C62.9455 12.9845 62.843 13.1003 62.778 13.2373L59.3655 19.9998L51.7123 21.0873C51.0233 21.1842 50.7561 22.0811 51.2702 22.5717L56.7748 27.8155L55.478 35.2061V35.203ZM63.142 30.8795L57.3827 33.8389L58.467 27.6561C58.4924 27.5138 58.4825 27.3674 58.4381 27.2298C58.3937 27.0922 58.3162 26.9676 58.2123 26.867L53.6717 22.5389L60.003 21.6389C60.1341 21.6191 60.2584 21.5678 60.3654 21.4894C60.4723 21.4111 60.5587 21.3079 60.617 21.1889L63.4998 15.4733L66.3858 21.1889C66.4442 21.3079 66.5305 21.4111 66.6375 21.4894C66.7444 21.5678 66.8687 21.6191 66.9998 21.6389L73.3311 22.5373L68.7905 26.8655C68.6864 26.9662 68.6087 27.0911 68.5643 27.2289C68.5199 27.3668 68.5101 27.5135 68.5358 27.6561L69.6202 33.8389L63.8608 30.8795C63.7494 30.8221 63.6259 30.7921 63.5006 30.7921C63.3753 30.7921 63.2518 30.8221 63.1405 30.8795H63.142Z" fill="#52A800"/>
</g>
<defs>
<clipPath id="clip0_931_7635">
<rect width="25" height="25" fill="white" transform="translate(25)"/>
</clipPath>
<clipPath id="clip1_931_7635">
<rect width="25" height="25" fill="white" transform="translate(0 12)"/>
</clipPath>
<clipPath id="clip2_931_7635">
<rect width="25" height="25" fill="white" transform="translate(51 12)"/>
</clipPath>
</defs>
</svg>
