<svg width="32" height="31" viewBox="0 0 32 31" fill="none" xmlns="http://www.w3.org/2000/svg">
<path fill-rule="evenodd" clip-rule="evenodd" d="M15.9996 1.9082C23.7611 1.9082 30.0617 8.00817 30.0617 15.5225C30.0617 23.0368 23.7611 29.1368 15.9996 29.1368C8.23812 29.1368 1.9375 23.0368 1.9375 15.5225C1.9375 8.00817 8.23812 1.9082 15.9996 1.9082ZM17.7288 18.8755C18.8866 18.4161 19.7884 17.5021 20.2083 16.3619L23.0307 8.71534L15.212 11.4238C14.0319 11.8327 13.0903 12.7058 12.6158 13.8291L9.02321 22.332L17.7288 18.8779V18.8755ZM17.5872 14.0119C18.2332 14.6373 18.2332 15.6524 17.5872 16.2778C16.9412 16.9031 15.8953 16.9031 15.2468 16.2778C14.6009 15.6548 14.6009 14.6373 15.2468 14.0119C15.8928 13.3865 16.9412 13.3865 17.5872 14.0119Z" fill="white" stroke="#52A800" stroke-width="2" stroke-miterlimit="22.9256"/>
</svg>
