<svg width="30" height="30" viewBox="0 0 30 30" fill="none" xmlns="http://www.w3.org/2000/svg">
<path d="M28.2091 14.2718L25.3125 15.7201L21.5625 8.53858L24.4886 7.07554C24.7084 6.96562 24.9626 6.94643 25.1965 7.0221C25.4303 7.09777 25.6251 7.26225 25.7389 7.48012L28.6209 12.9993C28.6785 13.1097 28.7136 13.2304 28.724 13.3545C28.7345 13.4785 28.7201 13.6034 28.6818 13.7219C28.6435 13.8403 28.5819 13.95 28.5008 14.0444C28.4196 14.1388 28.3205 14.2161 28.2091 14.2718V14.2718Z" stroke="#52A800" stroke-width="2" stroke-linecap="round" stroke-linejoin="round"/>
<path d="M4.6873 15.5951L1.7907 14.1468C1.67934 14.0911 1.58019 14.0138 1.49903 13.9194C1.41787 13.825 1.35633 13.7153 1.318 13.5969C1.27967 13.4784 1.26531 13.3535 1.27578 13.2295C1.28624 13.1054 1.32131 12.9847 1.37894 12.8743L4.26092 7.35513C4.37469 7.13726 4.56946 6.97277 4.80331 6.8971C5.03716 6.82143 5.29137 6.84062 5.51121 6.95054L8.4373 8.41358L4.6873 15.5951Z" stroke="#52A800" stroke-width="2" stroke-linecap="round" stroke-linejoin="round"/>
<path d="M25.3125 15.7194L23.4375 17.9129L19.1253 22.225C19.0109 22.3395 18.8687 22.4224 18.7127 22.4656C18.5567 22.5088 18.3921 22.5109 18.235 22.4716L11.4432 20.7737C11.3158 20.7418 11.1965 20.6836 11.0931 20.6027L4.6875 15.5938" stroke="#52A800" stroke-width="2" stroke-linecap="round" stroke-linejoin="round"/>
<path d="M23.437 17.9141L18.2808 14.1641L16.7808 15.2891C16.1316 15.7759 15.3421 16.0391 14.5308 16.0391C13.7194 16.0391 12.9299 15.7759 12.2808 15.2891L11.6455 14.8126C11.5381 14.732 11.4492 14.6293 11.3849 14.5114C11.3206 14.3934 11.2824 14.2631 11.2729 14.1291C11.2633 13.9951 11.2827 13.8606 11.3297 13.7348C11.3767 13.609 11.4501 13.4947 11.5451 13.3997L16.1312 8.81365C16.2182 8.72659 16.3216 8.65754 16.4353 8.61043C16.5491 8.56331 16.671 8.53906 16.7941 8.53906H21.562" stroke="#52A800" stroke-width="2" stroke-linecap="round" stroke-linejoin="round"/>
<path d="M8.50488 8.41187L14.5189 6.65856C14.7338 6.59593 14.9639 6.61221 15.1678 6.70446L19.2188 8.53747" stroke="#52A800" stroke-width="2" stroke-linecap="round" stroke-linejoin="round"/>
<path d="M13.125 24.9447L9.59303 24.0617C9.44971 24.0259 9.31688 23.9567 9.20538 23.8598L6.5625 21.5625" stroke="#52A800" stroke-width="2" stroke-linecap="round" stroke-linejoin="round"/>
</svg>
