<svg width="30" height="30" viewBox="0 0 30 30" fill="none" xmlns="http://www.w3.org/2000/svg">
<path d="M5.28892 22.97C5.31815 23.0932 5.37201 23.2093 5.44725 23.3111C5.52249 23.413 5.61757 23.4986 5.72676 23.5628C5.83595 23.627 5.95699 23.6684 6.08261 23.6846C6.20822 23.7008 6.33581 23.6914 6.4577 23.6569C12.0463 22.1139 17.9484 22.1134 23.5373 23.6553C23.6592 23.6897 23.7867 23.6991 23.9123 23.6829C24.0378 23.6667 24.1588 23.6253 24.268 23.5612C24.3771 23.497 24.4722 23.4115 24.5474 23.3097C24.6227 23.2078 24.6766 23.0919 24.7058 22.9687L27.6928 10.2753C27.7328 10.1054 27.7245 9.92765 27.669 9.76216C27.6134 9.59667 27.5127 9.44997 27.3783 9.33861C27.2439 9.22724 27.081 9.15562 26.9081 9.13181C26.7351 9.108 26.559 9.13295 26.3995 9.20385L20.4717 11.8384C20.2576 11.9336 20.0157 11.9451 19.7936 11.8708C19.5714 11.7965 19.3851 11.6418 19.2714 11.437L15.8199 5.2244C15.7387 5.07825 15.6199 4.95647 15.4758 4.87168C15.3318 4.7869 15.1676 4.74219 15.0004 4.74219C14.8332 4.74219 14.6691 4.7869 14.525 4.87168C14.3809 4.95647 14.2621 5.07825 14.1809 5.2244L10.7294 11.437C10.6157 11.6418 10.4294 11.7965 10.2073 11.8708C9.98512 11.9451 9.74321 11.9336 9.52917 11.8384L3.60048 9.20345C3.44099 9.13257 3.26487 9.10761 3.09196 9.1314C2.91906 9.15518 2.75622 9.22676 2.62179 9.33808C2.48736 9.4494 2.38668 9.59604 2.33107 9.76148C2.27547 9.92692 2.26715 10.1046 2.30706 10.2745L5.28892 22.97Z" stroke="#52A800" stroke-width="2" stroke-linecap="round" stroke-linejoin="round"/>
</svg>
