<svg width="30" height="30" viewBox="0 0 30 30" fill="none" xmlns="http://www.w3.org/2000/svg">
<path d="M15 18.75C17.0711 18.75 18.75 17.0711 18.75 15C18.75 12.9289 17.0711 11.25 15 11.25C12.9289 11.25 11.25 12.9289 11.25 15C11.25 17.0711 12.9289 18.75 15 18.75Z" stroke="#52A800" stroke-width="2" stroke-linecap="round" stroke-linejoin="round"/>
<path d="M9.03384 20.9656C8.24949 20.1826 7.62723 19.2526 7.20267 18.2289C6.7781 17.2051 6.55957 16.1077 6.55957 14.9994C6.55957 13.8911 6.7781 12.7937 7.20267 11.77C7.62723 10.7462 8.24949 9.81622 9.03384 9.0332" stroke="#52A800" stroke-width="2" stroke-linecap="round" stroke-linejoin="round"/>
<path d="M20.9658 9.0332C21.7502 9.81622 22.3724 10.7462 22.797 11.77C23.2216 12.7937 23.4401 13.8911 23.4401 14.9994C23.4401 16.1077 23.2216 17.2051 22.797 18.2289C22.3724 19.2526 21.7502 20.1826 20.9658 20.9656" stroke="#52A800" stroke-width="2" stroke-linecap="round" stroke-linejoin="round"/>
<path d="M5.71899 24.2803C4.49888 23.0623 3.53092 21.6156 2.87049 20.0231C2.21006 18.4306 1.87012 16.7235 1.87012 14.9995C1.87012 13.2755 2.21006 11.5684 2.87049 9.97592C3.53092 8.38342 4.49888 6.93677 5.71899 5.71875" stroke="#52A800" stroke-width="2" stroke-linecap="round" stroke-linejoin="round"/>
<path d="M24.2812 5.71875C25.5014 6.93677 26.4693 8.38342 27.1297 9.97592C27.7902 11.5684 28.1301 13.2755 28.1301 14.9995C28.1301 16.7235 27.7902 18.4306 27.1297 20.0231C26.4693 21.6156 25.5014 23.0623 24.2812 24.2803" stroke="#52A800" stroke-width="2" stroke-linecap="round" stroke-linejoin="round"/>
</svg>
