<svg width="79" height="46" viewBox="0 0 79 46" fill="none" xmlns="http://www.w3.org/2000/svg">
<path d="M15 15.9375C17.0711 15.9375 18.75 14.2586 18.75 12.1875C18.75 10.1164 17.0711 8.4375 15 8.4375C12.9289 8.4375 11.25 10.1164 11.25 12.1875C11.25 14.2586 12.9289 15.9375 15 15.9375Z" stroke="#52A800" stroke-width="2" stroke-linecap="round" stroke-linejoin="round"/>
<path d="M24.375 12.1875C24.375 20.625 15 27.1875 15 27.1875C15 27.1875 5.625 20.625 5.625 12.1875C5.625 9.7011 6.61272 7.31653 8.37087 5.55837C10.129 3.80022 12.5136 2.8125 15 2.8125C17.4864 2.8125 19.871 3.80022 21.6291 5.55837C23.3873 7.31653 24.375 9.7011 24.375 12.1875V12.1875Z" stroke="#52A800" stroke-width="2" stroke-linecap="round" stroke-linejoin="round"/>
<path d="M64 15.9375C66.0711 15.9375 67.75 14.2586 67.75 12.1875C67.75 10.1164 66.0711 8.4375 64 8.4375C61.9289 8.4375 60.25 10.1164 60.25 12.1875C60.25 14.2586 61.9289 15.9375 64 15.9375Z" stroke="#52A800" stroke-width="2" stroke-linecap="round" stroke-linejoin="round"/>
<path d="M73.375 12.1875C73.375 20.625 64 27.1875 64 27.1875C64 27.1875 54.625 20.625 54.625 12.1875C54.625 9.7011 55.6127 7.31653 57.3709 5.55837C59.129 3.80022 61.5136 2.8125 64 2.8125C66.4864 2.8125 68.871 3.80022 70.6291 5.55837C72.3873 7.31653 73.375 9.7011 73.375 12.1875V12.1875Z" stroke="#52A800" stroke-width="2" stroke-linecap="round" stroke-linejoin="round"/>
<path d="M39 31.5C39.8284 31.5 40.5 30.8284 40.5 30C40.5 29.1716 39.8284 28.5 39 28.5C38.1716 28.5 37.5 29.1716 37.5 30C37.5 30.8284 38.1716 31.5 39 31.5Z" fill="#52A800"/>
<path d="M47 31.5C47.8284 31.5 48.5 30.8284 48.5 30C48.5 29.1716 47.8284 28.5 47 28.5C46.1716 28.5 45.5 29.1716 45.5 30C45.5 30.8284 46.1716 31.5 47 31.5Z" fill="#52A800"/>
<path d="M31 31.5C31.8284 31.5 32.5 30.8284 32.5 30C32.5 29.1716 31.8284 28.5 31 28.5C30.1716 28.5 29.5 29.1716 29.5 30C29.5 30.8284 30.1716 31.5 31 31.5Z" fill="#52A800"/>
</svg>
