<svg width="23" height="20" viewBox="0 0 23 20" fill="none" xmlns="http://www.w3.org/2000/svg">
<path d="M22.5227 3.01001H7.0542V6.01028H22.5227V3.01001Z" fill="#52A800"/>
<path d="M15.4781 13.4998H0.00952148V16.5H15.4781V13.4998Z" fill="#52A800"/>
<path fill-rule="evenodd" clip-rule="evenodd" d="M0 4.49894C0 2.02854 1.91232 0 4.23198 0C6.55998 0 8.44241 2.03745 8.44241 4.49894C8.44241 6.98737 6.55588 8.99787 4.23198 8.99787C1.91644 8.99787 0 6.99625 0 4.49894ZM4.23198 2.04988C3.01843 2.04988 1.95769 3.1344 1.95769 4.49894C1.95769 5.88167 3.01431 6.948 4.23198 6.948C5.44127 6.948 6.48472 5.89055 6.48472 4.49894C6.48472 3.12549 5.43717 2.04988 4.23198 2.04988Z" fill="#52A800"/>
<path fill-rule="evenodd" clip-rule="evenodd" d="M18.3001 13.052C17.3569 13.052 16.5153 13.8845 16.5153 14.9886C16.5153 16.0927 17.3569 16.9252 18.3001 16.9252C19.2308 16.9252 20.0635 16.106 20.0635 14.9886C20.0635 13.8712 19.2308 13.052 18.3001 13.052ZM13.5787 14.9886C13.5787 12.2126 15.7101 9.97717 18.3001 9.97717C20.9027 9.97717 23 12.2259 23 14.9886C23 17.7512 20.9027 20 18.3001 20C15.7101 20 13.5787 17.7645 13.5787 14.9886Z" fill="#52A800"/>
</svg>
