<svg width="30" height="30" viewBox="0 0 30 30" fill="none" xmlns="http://www.w3.org/2000/svg">
<path d="M6.38214 23.6179C5.30354 22.5393 6.01893 20.2748 5.46993 18.9479C4.90082 17.5725 2.8125 16.4654 2.8125 15C2.8125 13.5345 4.90084 12.4275 5.46994 11.052C6.01894 9.72519 5.30354 7.46073 6.38214 6.38214C7.46073 5.30354 9.7252 6.01893 11.0521 5.46993C12.4275 4.90082 13.5346 2.8125 15 2.8125C16.4655 2.8125 17.5725 4.90084 18.948 5.46994C20.2748 6.01894 22.5393 5.30354 23.6179 6.38214C24.6965 7.46073 23.9811 9.7252 24.5301 11.0521C25.0992 12.4275 27.1875 13.5346 27.1875 15C27.1875 16.4655 25.0992 17.5725 24.5301 18.948C23.9811 20.2748 24.6965 22.5393 23.6179 23.6179C22.5393 24.6965 20.2748 23.9811 18.9479 24.5301C17.5725 25.0992 16.4654 27.1875 15 27.1875C13.5345 27.1875 12.4275 25.0992 11.052 24.5301C9.72519 23.9811 7.46073 24.6965 6.38214 23.6179Z" stroke="#52A800" stroke-width="2" stroke-linecap="round" stroke-linejoin="round"/>
<path d="M20.1562 12.1875L13.2812 18.75L9.84375 15.4688" stroke="#52A800" stroke-width="2" stroke-linecap="round" stroke-linejoin="round"/>
</svg>
