<svg width="23" height="23" viewBox="0 0 23 23" fill="none" xmlns="http://www.w3.org/2000/svg">
<path d="M19.1667 19.1667H15.3333V15.3333H19.1667V19.1667ZM13.4167 9.58333H9.58333V13.4167H13.4167V9.58333ZM19.1667 9.58333H15.3333V13.4167H19.1667V9.58333ZM7.66667 15.3333H3.83333V19.1667H7.66667V15.3333ZM13.4167 15.3333H9.58333V19.1667H13.4167V15.3333ZM7.66667 9.58333H3.83333V13.4167H7.66667V9.58333ZM23 1.91667V23H0V1.91667H2.875V2.875C2.875 3.93204 3.73462 4.79167 4.79167 4.79167C5.84871 4.79167 6.70833 3.93204 6.70833 2.875V1.91667H16.2917V2.875C16.2917 3.93204 17.1513 4.79167 18.2083 4.79167C19.2654 4.79167 20.125 3.93204 20.125 2.875V1.91667H23ZM21.0833 7.66667H1.91667V21.0833H21.0833V7.66667ZM19.1667 0.958333C19.1667 0.429333 18.7383 0 18.2083 0C17.6784 0 17.25 0.429333 17.25 0.958333V2.875C17.25 3.404 17.6784 3.83333 18.2083 3.83333C18.7383 3.83333 19.1667 3.404 19.1667 2.875V0.958333ZM5.75 2.875C5.75 3.404 5.32162 3.83333 4.79167 3.83333C4.26171 3.83333 3.83333 3.404 3.83333 2.875V0.958333C3.83333 0.429333 4.26171 0 4.79167 0C5.32162 0 5.75 0.429333 5.75 0.958333V2.875Z" fill="#979797"/>
</svg>
