<svg width="30" height="30" viewBox="0 0 30 30" fill="none" xmlns="http://www.w3.org/2000/svg">
<path d="M15.6629 24.83L25.1589 15.334C27.4921 13.0008 27.8364 9.1622 25.6283 6.71014C25.0752 6.09416 24.4025 5.59733 23.651 5.24996C22.8996 4.90258 22.0853 4.71196 21.2577 4.6897C20.4302 4.66745 19.6068 4.81404 18.8377 5.12052C18.0687 5.42701 17.3702 5.88696 16.7848 6.47233L15 8.25714L13.459 6.71613C11.1258 4.38288 7.2872 4.03864 4.83514 6.24669C4.21916 6.79977 3.72233 7.47255 3.37496 8.22399C3.02758 8.97542 2.83696 9.78976 2.8147 10.6173C2.79245 11.4448 2.93904 12.2682 3.24552 13.0373C3.55201 13.8063 4.01196 14.5048 4.59733 15.0902L14.3371 24.83C14.5129 25.0058 14.7514 25.1045 15 25.1045C15.2486 25.1046 15.4871 25.0058 15.6629 24.83V24.83Z" stroke="#A80000" stroke-width="2" stroke-linecap="round" stroke-linejoin="round"/>
</svg>
