<svg width="25" height="21" viewBox="0 0 25 21" fill="none" xmlns="http://www.w3.org/2000/svg">
<path fill-rule="evenodd" clip-rule="evenodd" d="M19.1507 19.8819C19.4853 20.1017 19.919 20.1566 20.3032 20.0216C20.6898 19.8865 20.9724 19.582 21.0566 19.2134C21.9612 15.2824 24.1571 5.33708 24.9824 1.76097C25.0443 1.49082 24.9402 1.21151 24.7122 1.03064C24.4842 0.849776 24.1645 0.799409 23.882 0.895565C19.5151 2.38828 6.06243 7.05188 0.565385 8.93151C0.215933 9.05056 -0.00959941 9.35964 0.000314107 9.70076C0.012706 10.0419 0.260544 10.3372 0.617431 10.4357C3.08342 11.1156 6.32018 12.0635 6.32018 12.0635C6.32018 12.0635 7.83199 16.2829 8.62259 18.4281C8.72173 18.6983 8.94974 18.9089 9.24963 18.9822C9.54951 19.0531 9.8717 18.9776 10.0948 18.783C11.3612 17.6795 13.3191 15.9693 13.3191 15.9693C13.3191 15.9693 17.0392 18.4899 19.1507 19.8773V19.8819ZM7.68329 11.5323L9.43303 16.8621L9.82213 13.4875C9.82213 13.4875 16.5782 7.85776 20.4321 4.64796C20.5436 4.55409 20.5609 4.39612 20.4668 4.28623C20.3751 4.17634 20.2041 4.14886 20.0752 4.22442C15.6116 6.85727 7.68577 11.5346 7.68577 11.5346L7.68329 11.5323Z" fill="#2B2A29"/>
</svg>
