<svg width="14" height="18" viewBox="0 0 14 18" fill="none" xmlns="http://www.w3.org/2000/svg">
<path d="M13.3667 16.7647H12.2812V14.8677C12.2812 12.9484 11.201 11.1843 9.23954 9.90003C8.99564 9.74033 8.84404 9.39554 8.84404 8.99991C8.84404 8.60427 8.99564 8.25961 9.23966 8.09979C11.201 6.81567 12.2812 5.0515 12.2814 3.13223V1.23521H13.3667C13.7164 1.23521 14 0.958724 14 0.617574C14 0.276423 13.7164 0 13.3667 0H0.633377C0.283621 0 0 0.276423 0 0.617513C0 0.958663 0.283621 1.23515 0.633377 1.23515H1.71882V3.13229C1.71882 5.05156 2.79892 6.81573 4.76052 8.09985C5.00443 8.25967 5.15603 8.60433 5.15603 8.99997C5.15603 9.39567 5.00443 9.74039 4.7604 9.90021C2.79892 11.1843 1.71882 12.9485 1.71882 14.8678V16.7648H0.633377C0.283621 16.7648 0 17.0413 0 17.3824C0 17.7236 0.283621 18 0.633377 18H13.3666C13.7164 18 13.9999 17.7236 13.9999 17.3824C14 17.0413 13.7164 16.7647 13.3667 16.7647ZM2.98564 14.8677C2.98564 12.851 4.53993 11.5323 5.46656 10.9257C6.06532 10.5338 6.42284 9.81385 6.42284 8.99997C6.42284 8.18615 6.06532 7.46622 5.46656 7.07434C4.53993 6.4678 2.98564 5.14901 2.98564 3.13235V1.23521H11.0144L11.0143 3.13235C11.0143 5.14901 9.46001 6.4678 8.5335 7.07422C7.93462 7.46628 7.57709 8.18621 7.57709 8.99997C7.57709 9.81391 7.93462 10.5337 8.53338 10.9257C9.46001 11.5323 11.0143 12.851 11.0144 14.8677V16.7647H2.98564V14.8677Z" fill="#979797"/>
<path d="M2.98564 14.8677C2.98564 12.851 4.53993 11.5323 5.46656 10.9257C6.06532 10.5338 6.42284 9.81385 6.42284 8.99997C6.42284 8.18615 6.06532 7.46622 5.46656 7.07434C4.53993 6.4678 2.98564 5.14901 2.98564 3.13235V1.23521H11.0144L11.0143 3.13235C11.0143 5.14901 9.46001 6.4678 8.5335 7.07422C7.93462 7.46628 7.57709 8.18621 7.57709 8.99997C7.57709 9.81391 7.93462 10.5337 8.53338 10.9257C9.46001 11.5323 11.0143 12.851 11.0144 14.8677V16.7647H2.98564V14.8677Z" fill="#979797"/>
</svg>
