<svg width="15" height="15" viewBox="0 0 15 15" fill="none" xmlns="http://www.w3.org/2000/svg">
<path d="M7.5 0C3.35813 0 0 3.35813 0 7.5C0 11.6419 3.35813 15 7.5 15C11.6419 15 15 11.6419 15 7.5C15 3.35813 11.6419 0 7.5 0ZM7.5 11.4062C7.06875 11.4062 6.71875 11.0563 6.71875 10.625C6.71875 10.1937 7.06875 9.84375 7.5 9.84375C7.93187 9.84375 8.28125 10.1937 8.28125 10.625C8.28125 11.0563 7.93187 11.4062 7.5 11.4062ZM8.72563 7.70125C8.16063 8.31062 8.13375 8.6475 8.14125 9.0625H6.88812C6.88375 8.14062 6.90062 7.73437 7.7825 6.895C8.14062 6.555 8.42312 6.28563 8.38375 5.75688C8.3475 5.25375 7.9275 4.99062 7.53062 4.99062C7.0875 4.99062 6.56938 5.32 6.56938 6.24875H5.31313C5.31313 4.74875 6.19375 3.78 7.55687 3.78C8.20437 3.78 8.77063 3.99187 9.15063 4.37687C9.50688 4.73812 9.69125 5.23437 9.68437 5.81312C9.67437 6.6775 9.14875 7.245 8.72563 7.70125Z" fill="#087BA8"/>
</svg>
