<svg width="28" height="30" viewBox="0 0 28 30" fill="none" xmlns="http://www.w3.org/2000/svg">
<path d="M23.373 6.5625L4.32812 6.56251" stroke="#52A800" stroke-width="2" stroke-linecap="round" stroke-linejoin="round"/>
<path d="M11.2539 12.1875V19.6875" stroke="#52A800" stroke-width="2" stroke-linecap="round" stroke-linejoin="round"/>
<path d="M16.4482 12.1875V19.6875" stroke="#52A800" stroke-width="2" stroke-linecap="round" stroke-linejoin="round"/>
<path d="M21.6417 6.5625V24.375C21.6417 24.6236 21.5505 24.8621 21.3882 25.0379C21.2258 25.2137 21.0056 25.3125 20.776 25.3125H6.92525C6.69565 25.3125 6.47547 25.2137 6.31312 25.0379C6.15078 24.8621 6.05957 24.6236 6.05957 24.375V6.5625" stroke="#52A800" stroke-width="2" stroke-linecap="round" stroke-linejoin="round"/>
<path d="M18.1792 6.5625V4.6875C18.1792 4.19022 17.9968 3.71331 17.6721 3.36167C17.3474 3.01004 16.9071 2.8125 16.4479 2.8125H11.2538C10.7946 2.8125 10.3543 3.01004 10.0296 3.36167C9.70487 3.71331 9.52246 4.19022 9.52246 4.6875V6.5625" stroke="#52A800" stroke-width="2" stroke-linecap="round" stroke-linejoin="round"/>
</svg>
