<svg width="30" height="30" viewBox="0 0 30 30" fill="none" xmlns="http://www.w3.org/2000/svg">
<path d="M14.0426 25.543H15.9553C16.0928 26.1828 16.3129 26.883 16.7159 27.49C17.2058 28.2281 17.9258 28.7738 18.9176 29H11.058C12.0391 28.7727 12.7562 28.2246 13.2497 27.4968C13.662 26.8888 13.8953 26.1879 14.0426 25.543ZM22.7366 1C22.5877 6.9465 21.1218 10.9755 19.5868 14.148C19.1784 14.9922 18.7639 15.7781 18.3611 16.534C18.3117 16.6268 18.2623 16.7192 18.2131 16.8114C17.8646 17.4646 17.5243 18.1025 17.2172 18.7221C16.6549 19.8565 16.1724 20.9891 15.9132 22.1778H14.0975C13.838 20.988 13.3545 19.8547 12.791 18.7198C12.4827 18.0991 12.1411 17.4602 11.7913 16.806C11.7426 16.7148 11.6936 16.6233 11.6446 16.5315C11.2411 15.7756 10.8256 14.9898 10.4163 14.1458C8.87817 10.9738 7.40908 6.94597 7.25991 1H22.7366Z" stroke="#52A800" stroke-width="2" stroke-miterlimit="22.9256"/>
</svg>
