<svg width="48" height="48" viewBox="0 0 48 48" fill="none" xmlns="http://www.w3.org/2000/svg">
<path d="M44.0001 4H16.0001V14.3C13.3453 14.8426 10.8872 16.0942 8.88667 17.9218C6.88618 19.7494 5.4181 22.0847 4.63838 24.6797C3.85865 27.2747 3.79641 30.0325 4.45825 32.66C5.1201 35.2876 6.48132 37.6868 8.3973 39.6028C10.3133 41.5187 12.7125 42.88 15.34 43.5418C17.9676 44.2037 20.7253 44.1414 23.3203 43.3617C25.9153 42.582 28.2507 41.1139 30.0783 39.1134C31.9059 37.1129 33.1574 34.6547 33.7001 32H44.0001V4ZM33.9681 28C33.7258 24.3752 32.1763 20.9614 29.6075 18.3926C27.0386 15.8237 23.6249 14.2743 20.0001 14.032V8H40.0001V28H33.9681ZM19.0001 18C21.9174 18 24.7153 19.1589 26.7782 21.2218C28.8411 23.2847 30.0001 26.0826 30.0001 29C30.0001 31.9174 28.8411 34.7153 26.7782 36.7782C24.7153 38.8411 21.9174 40 19.0001 40C16.0827 40 13.2848 38.8411 11.2219 36.7782C9.15898 34.7153 8.00006 31.9174 8.00006 29C8.00006 26.0826 9.15898 23.2847 11.2219 21.2218C13.2848 19.1589 16.0827 18 19.0001 18Z" fill="#453A33"/>
</svg>
