<svg width="96" height="96" viewBox="0 0 96 96" fill="none" xmlns="http://www.w3.org/2000/svg">
<path d="M42.0836 17.4815C57.0942 22.4197 67.6015 38.7161 66.6008 57.9753C65.6001 77.2346 53.5916 92.5432 38.5811 95.5062C40.5825 90.0741 42.0836 83.6543 42.0836 75.7531C42.0836 66.8642 40.0821 61.9259 38.5811 56.4938C36.5797 51.5556 35.0786 46.6173 35.5789 37.7284C35.5789 29.8272 38.5811 22.9136 42.0836 17.4815ZM34.0779 76.2469C34.0779 68.8395 32.5768 64.8889 31.0758 59.9506C29.0744 54.5185 27.0731 48.5926 27.5734 37.7284C28.0738 28.8395 30.5755 21.4321 34.0779 16C16.0653 16 1.55511 32.7901 0.0540504 54.0247C-0.946654 75.7531 12.0625 94.0247 29.5748 96C32.0766 91.5556 34.0779 85.1358 34.0779 76.2469Z" fill="#453A33"/>
</svg>
