<svg width="96" height="96" viewBox="0 0 96 96" fill="none" xmlns="http://www.w3.org/2000/svg">
<g clip-path="url(#clip0_519_2326)">
<path d="M156.46 22.6024L65.455 53.8206C64.8809 71.1968 50.5267 85.3333 32.7275 85.3333C14.6412 85.3333 0 70.9023 0 52.9371V51.4645H63.1583L155.312 19.9518C156.173 19.6573 156.748 20.2463 157.035 20.8353C157.609 21.4244 157.322 22.3079 156.46 22.6024ZM10.335 37.0335C7.75127 37.0335 5.45457 39.3896 5.45457 42.0402C5.45457 44.6908 7.75127 47.0469 10.335 47.0469C12.9188 47.0469 15.2154 44.6908 15.2154 42.0402C15.2154 39.095 12.9188 37.0335 10.335 37.0335ZM18.9475 24.9585C16.3638 24.9585 14.0671 27.3146 14.0671 29.9652C14.0671 32.6158 16.3638 34.9719 18.9475 34.9719C21.5313 34.9719 23.8279 32.6158 23.8279 29.9652C23.8279 27.3146 21.5313 24.9585 18.9475 24.9585ZM26.4117 12C23.8279 12 21.5313 14.3561 21.5313 17.0067C21.5313 19.6573 23.8279 22.0134 26.4117 22.0134C28.9954 22.0134 31.2921 19.6573 31.2921 17.0067C31.2921 14.3561 29.2825 12 26.4117 12ZM40.7658 12C38.1821 12 35.8854 14.3561 35.8854 17.0067C35.8854 19.6573 38.1821 22.0134 40.7658 22.0134C43.3496 22.0134 45.6462 19.6573 45.6462 17.0067C45.6462 14.3561 43.3496 12 40.7658 12ZM33.5887 24.9585C31.005 24.9585 28.7083 27.3146 28.7083 29.9652C28.7083 32.6158 31.005 34.9719 33.5887 34.9719C36.1725 34.9719 38.4692 32.6158 38.4692 29.9652C38.4692 27.3146 36.1725 24.9585 33.5887 24.9585ZM48.23 24.9585C45.6463 24.9585 43.3496 27.3146 43.3496 29.9652C43.3496 32.6158 45.6463 34.9719 48.23 34.9719C50.8138 34.9719 53.1104 32.6158 53.1104 29.9652C53.1104 27.3146 50.8138 24.9585 48.23 24.9585ZM25.2633 37.0335C22.6796 37.0335 20.3829 39.3896 20.3829 42.0402C20.3829 44.6908 22.6796 47.0469 25.2633 47.0469C27.8471 47.0469 30.1438 44.6908 30.1438 42.0402C30.1438 39.3896 27.8471 37.0335 25.2633 37.0335ZM40.1917 37.328C37.6079 37.328 35.3113 39.6841 35.3113 42.3347C35.3113 44.9853 37.6079 47.3414 40.1917 47.3414C42.7754 47.3414 45.0721 44.9853 45.0721 42.3347C45.0721 39.6841 43.0625 37.328 40.1917 37.328ZM55.12 37.328C52.5363 37.328 50.2396 39.6841 50.2396 42.3347C50.2396 44.9853 52.5363 47.3414 55.12 47.3414C57.7038 47.3414 60.0004 44.9853 60.0004 42.3347C60.0004 39.6841 57.9908 37.328 55.12 37.328Z" fill="#453A33"/>
</g>
<defs>
<clipPath id="clip0_519_2326">
<rect width="96" height="96" fill="white"/>
</clipPath>
</defs>
</svg>
