<svg width="96" height="96" viewBox="0 0 96 96" fill="none" xmlns="http://www.w3.org/2000/svg">
<g opacity="0.96">
<path d="M7.6685 79.6677L13.4199 80.6284C13.7394 80.6284 14.0589 80.9486 14.3784 80.9486L31.6326 95.0393C32.5911 95.6798 33.8692 96 34.8278 96L57.8333 91.8369C58.1528 91.8369 58.4723 91.8369 58.7918 91.5166L65.1822 88.9546C65.8213 88.6344 66.4603 88.3142 66.7798 87.9939L71.8922 82.8701C72.5312 82.2296 72.8507 81.9093 72.8507 81.2689L75.4069 74.864C75.4069 74.5438 75.7264 74.2236 75.7264 73.9033L79.8802 50.8459C80.1997 49.5649 79.8802 48.284 78.9216 47.3232L64.8627 30.0302C64.5432 29.71 64.5432 29.3898 64.5432 29.0695L63.5846 23.3051L66.4603 20.423C67.0993 19.7825 67.4189 19.142 67.4189 18.5015C67.4189 17.861 67.4189 17.2206 66.7798 16.5801C65.8213 15.6194 64.2237 15.9396 62.9456 16.9003L0.95856 79.0272C0.319518 79.6677 0 80.3081 0 80.9486C0 81.5891 2.43386e-06 82.2296 0.639044 82.8701C1.59761 83.8308 3.19521 83.5105 4.47329 82.5498L7.6685 79.6677Z" fill="#453A33"/>
</g>
</svg>
