<svg width="13" height="13" viewBox="0 0 13 13" fill="none" xmlns="http://www.w3.org/2000/svg">
<g clip-path="url(#clip0_431_973)">
<path d="M5.0596 2.01221C4.9396 2.13236 4.83235 2.26124 4.72124 2.38761C5.83317 2.63126 6.92784 3.20166 7.90165 4.0169C8.45006 2.65119 9.52439 1.6067 10.9428 1.12395L11.8391 0.818801C10.1623 -0.611123 7.208 -0.136547 5.0596 2.01221Z" fill="#453A33"/>
<path d="M12.3922 1.43527L11.1884 1.84512C9.89319 2.28618 8.92977 3.27307 8.50768 4.55588C9.57888 5.63886 10.3095 6.94754 10.6003 8.28911C10.7308 8.17483 10.8636 8.06392 10.9875 7.94014C13.025 5.90237 13.5572 3.14941 12.3922 1.43527Z" fill="#453A33"/>
<path d="M8.19101 11.2894C7.70278 9.80351 6.44685 8.72759 4.91334 8.42427C3.13236 8.07078 1.70785 6.7836 1.12285 5.06476L0.817726 4.16842C-0.612198 5.84517 -0.137266 8.83981 2.01116 10.9886C3.34856 12.326 5.01492 12.999 6.48743 12.999C7.25631 12.999 7.96765 12.7982 8.55598 12.3998L8.19101 11.2894Z" fill="#453A33"/>
<path d="M7.93906 5.06064C5.90161 3.02319 3.1484 2.45005 1.43418 3.6152L1.84401 4.81915C2.34192 6.28121 3.5465 7.37598 5.06144 7.67666C6.86437 8.03352 8.34132 9.3045 8.91512 11.0512L9.17667 11.847C10.6085 10.1706 10.0882 7.21021 7.93906 5.06064Z" fill="#453A33"/>
</g>
<defs>
<clipPath id="clip0_431_973">
<rect width="13" height="13" fill="white"/>
</clipPath>
</defs>
</svg>
