<svg width="190" height="36" viewBox="0 0 190 36" fill="none" xmlns="http://www.w3.org/2000/svg">
<g clip-path="url(#clip0_1145_2103)">
<path d="M43.8214 11.1878H43.7552C41.2701 11.1817 38.8387 11.8939 36.7673 13.2347C34.6959 14.5756 33.0771 16.485 32.1149 18.7225C31.1527 20.96 30.8901 23.4256 31.3601 25.8086C31.8301 28.1916 33.0118 30.3855 34.7562 32.1139C35.9135 33.2912 37.3017 34.229 38.838 34.8713C40.3744 35.5136 42.0274 35.8472 43.6985 35.8524C47.0479 35.8634 50.2646 34.5747 52.641 32.2697C55.0173 29.9647 56.3587 26.8324 56.3699 23.5616C56.3813 20.2909 55.0616 17.1498 52.7011 14.8291C50.3408 12.5086 47.133 11.1988 43.7836 11.1878H43.8214ZM51.8373 23.5201C51.8411 24.5562 51.6345 25.5828 51.2293 26.5405C50.8241 27.4981 50.2285 28.3678 49.4769 29.0992C48.7252 29.8306 47.8326 30.4092 46.8504 30.8015C45.8684 31.1938 44.8163 31.392 43.7552 31.3847C42.6883 31.3847 41.632 31.1784 40.6471 30.7778C39.6621 30.3772 38.7683 29.79 38.0169 29.0502C37.2655 28.3106 36.6715 27.4328 36.2693 26.4678C35.867 25.5029 35.6645 24.4696 35.6731 23.4278C35.6955 21.3342 36.5609 19.3334 38.0823 17.8582C39.6036 16.383 41.6585 15.5518 43.8025 15.5447H43.8781C46.0177 15.569 48.0607 16.4179 49.5621 17.9066C51.0635 19.3952 51.9017 21.4029 51.894 23.4924" fill="#171717"/>
<path d="M176.765 11.1878C175.113 11.1768 173.475 11.4855 171.946 12.096C170.417 12.7065 169.027 13.6068 167.857 14.7449C166.685 15.8829 165.757 17.2362 165.126 18.7265C164.493 20.2169 164.17 21.8146 164.174 23.4278C164.145 25.0535 164.449 26.6685 165.068 28.178C165.687 29.6874 166.609 31.0607 167.779 32.2173C168.949 33.374 170.345 34.2905 171.883 34.9132C173.421 35.5358 175.071 35.852 176.737 35.8432C180.066 35.8559 183.266 34.5855 185.641 32.3078C186.826 31.1924 187.772 29.8568 188.421 28.3793C189.07 26.9018 189.411 25.3124 189.422 23.7047C189.455 22.0653 189.151 20.4362 188.529 18.9134C187.906 17.3906 186.978 16.0049 185.798 14.8382C184.618 13.6715 183.211 12.7474 181.659 12.1205C180.108 11.4935 178.444 11.1764 176.765 11.1878ZM184.837 23.5293C184.843 24.571 184.638 25.6035 184.233 26.567C183.827 27.5304 183.229 28.4056 182.474 29.1416C180.924 30.6048 178.844 31.411 176.689 31.3847H176.623C175.562 31.375 174.513 31.1612 173.537 30.7556C172.561 30.3499 171.676 29.7603 170.933 29.0204C170.19 28.2805 169.604 27.405 169.208 26.4438C168.812 25.4826 168.615 24.4545 168.626 23.4186C168.648 21.3259 169.514 19.326 171.036 17.8522C172.557 16.3784 174.612 15.5494 176.755 15.5447H176.84C178.98 15.5714 181.021 16.4228 182.522 17.9132C184.021 19.4035 184.856 21.4122 184.847 23.5016" fill="#171717"/>
<path d="M137.925 22.2739C137.869 22.2739 132.254 19.7447 131.564 19.3847C130.675 18.9324 130.174 18.4616 130.25 17.6031C130.287 17.2066 130.454 16.8324 130.726 16.5363C130.999 16.2402 131.362 16.0381 131.762 15.9601C132.921 15.614 134.139 15.4979 135.345 15.6185C137.024 15.7225 138.666 16.149 140.175 16.8739C140.278 16.9416 140.398 16.9822 140.522 16.9919C140.646 17.0017 140.771 16.9801 140.884 16.9293C140.974 16.8548 141.043 16.7584 141.083 16.6498C141.122 16.5412 141.132 16.4243 141.111 16.3108V13.3662C141.139 13.2274 141.14 13.0843 141.112 12.9453C141.084 12.8063 141.028 12.6742 140.946 12.5566C140.865 12.4389 140.761 12.3381 140.64 12.26C140.519 12.1819 140.384 12.1281 140.241 12.1016C137.91 11.3346 135.442 11.0455 132.991 11.2524C131.751 11.3382 130.539 11.6514 129.418 12.1755C128.139 12.7453 127.092 13.7161 126.443 14.9337C125.794 16.1512 125.58 17.5456 125.835 18.8955C126.001 19.8509 126.408 20.7508 127.021 21.5133C127.633 22.2759 128.431 22.8768 129.342 23.2616L135.713 26.1693C136.083 26.3268 136.435 26.5217 136.763 26.7508C137.126 27.0088 137.411 27.3574 137.589 27.7602C137.768 28.163 137.831 28.605 137.774 29.0401C137.734 29.5126 137.549 29.9624 137.245 30.3312C136.939 30.6999 136.527 30.9705 136.063 31.1078C135.469 31.2844 134.85 31.3777 134.229 31.3847C131.76 31.5556 129.301 30.9543 127.206 29.6678C127.112 29.5959 127 29.5509 126.881 29.5378C126.763 29.5248 126.643 29.5443 126.535 29.5939C126.441 29.6611 126.368 29.7511 126.321 29.8548C126.275 29.9584 126.257 30.0723 126.27 30.1847V32.797C126.212 33.2515 126.328 33.7111 126.597 34.0864C126.866 34.4618 127.268 34.7259 127.726 34.8278C129.501 35.487 131.384 35.8278 133.284 35.8339C134.312 35.8339 135.337 35.7381 136.347 35.5478C137.302 35.3826 138.212 35.0309 139.024 34.5138C139.836 33.9968 140.533 33.3249 141.073 32.5385C141.604 31.7615 141.97 30.8875 142.147 29.9691C142.325 29.0506 142.31 28.1066 142.104 27.1939C141.879 26.0973 141.378 25.0728 140.645 24.2136C139.911 23.3543 138.97 22.6875 137.906 22.2739" fill="#171717"/>
<path d="M74.3167 11.6863H60.1376C59.9571 11.6863 59.784 11.7562 59.6564 11.8809C59.5287 12.0056 59.457 12.1746 59.457 12.3509V34.6247C59.457 34.801 59.5287 34.97 59.6564 35.0947C59.784 35.2193 59.9571 35.2894 60.1376 35.2894H63.3421C63.5251 35.2894 63.7007 35.2183 63.8301 35.0919C63.9595 34.9655 64.0322 34.7942 64.0322 34.6155V25.8924C64.0308 25.8581 64.0368 25.8239 64.0495 25.792C64.0624 25.7601 64.0819 25.731 64.1067 25.7067C64.1316 25.6825 64.1613 25.6635 64.194 25.651C64.2267 25.6384 64.2617 25.6327 64.2968 25.634H73.173C73.6468 25.634 74.1012 25.4501 74.4362 25.123C74.7713 24.7957 74.9595 24.352 74.9595 23.8894V22.154C74.9595 21.9768 74.8882 21.8068 74.7607 21.6807C74.6334 21.5546 74.4603 21.4825 74.2789 21.4801H64.2779C64.2127 21.4801 64.1502 21.4548 64.1041 21.4098C64.0581 21.3647 64.0322 21.3037 64.0322 21.2401V15.8955C64.0322 15.8619 64.0391 15.8288 64.0525 15.7979C64.0658 15.767 64.0855 15.7391 64.1102 15.7159C64.1349 15.6926 64.1642 15.6744 64.1963 15.6625C64.2283 15.6505 64.2625 15.645 64.2968 15.6463H73.173C73.6477 15.6438 74.1021 15.458 74.4368 15.1293C74.7716 14.8006 74.9595 14.3559 74.9595 13.8924V12.3601C74.9595 12.183 74.8882 12.013 74.7607 11.8869C74.6334 11.7608 74.4603 11.6887 74.2789 11.6863" fill="#171717"/>
<path d="M94.2347 11.6865H80.0556C79.8751 11.6865 79.702 11.7565 79.5744 11.8811C79.4467 12.0058 79.375 12.1748 79.375 12.3511V34.625C79.375 34.8012 79.4467 34.9702 79.5744 35.0949C79.702 35.2195 79.8751 35.2896 80.0556 35.2896H83.2695C83.4509 35.2871 83.624 35.2151 83.7514 35.0889C83.8788 34.9628 83.9501 34.7928 83.9501 34.6158V25.8927C83.9488 25.8583 83.9548 25.8242 83.9676 25.7922C83.9805 25.7603 83.9998 25.7312 84.0247 25.707C84.0496 25.6828 84.0792 25.6638 84.112 25.6512C84.1447 25.6386 84.1797 25.6329 84.2148 25.6342H93.1004C93.5725 25.6317 94.0246 25.4468 94.3576 25.12C94.6906 24.793 94.8778 24.3507 94.8778 23.8896V22.1542C94.8778 21.9771 94.8059 21.807 94.6783 21.681C94.5516 21.5549 94.3783 21.4828 94.1969 21.4804H84.2337C84.2015 21.4804 84.1695 21.4741 84.1396 21.4621C84.1099 21.45 84.0827 21.4323 84.06 21.41C84.0371 21.3878 84.019 21.3613 84.0066 21.3322C83.9943 21.303 83.9879 21.2718 83.9879 21.2404V15.8958C83.9904 15.8287 84.0194 15.7654 84.0688 15.7189C84.1181 15.6724 84.1841 15.6464 84.2526 15.6465H93.1287C93.6034 15.644 94.0578 15.4582 94.3926 15.1295C94.7275 14.8009 94.9156 14.3562 94.9156 13.8927V12.3604C94.9156 12.1832 94.8437 12.0132 94.7161 11.8871C94.5895 11.761 94.4161 11.6889 94.2347 11.6865Z" fill="#171717"/>
<path d="M157.415 22.2738C157.359 22.2738 151.744 19.7445 151.044 19.3845C150.156 18.9322 149.664 18.4615 149.73 17.603C149.767 17.2064 149.934 16.8322 150.208 16.5361C150.48 16.24 150.843 16.0379 151.243 15.9599C152.402 15.6133 153.62 15.4972 154.825 15.6184C156.504 15.7234 158.145 16.15 159.656 16.8738C159.759 16.9431 159.878 16.9848 160.003 16.9945C160.127 17.0043 160.252 16.9817 160.365 16.9292C160.582 16.7999 160.591 16.5138 160.591 16.3107V13.3661C160.647 13.0858 160.587 12.7955 160.424 12.5585C160.261 12.3215 160.008 12.1572 159.722 12.1015C157.389 11.3406 154.923 11.0516 152.472 11.2522C151.232 11.3381 150.02 11.6512 148.898 12.1753C147.619 12.7451 146.573 13.7159 145.924 14.9335C145.274 16.151 145.061 17.5455 145.316 18.8953C145.481 19.8508 145.89 20.7507 146.502 21.5132C147.115 22.2757 147.912 22.8766 148.823 23.2615L155.194 26.1692C155.563 26.3287 155.914 26.5234 156.243 26.7507C156.607 27.0077 156.893 27.3565 157.069 27.7597C157.246 28.1629 157.307 28.6054 157.245 29.0399C157.205 29.5124 157.021 29.9622 156.716 30.3309C156.41 30.6997 155.999 30.9703 155.534 31.1076C154.945 31.3001 154.331 31.4089 153.71 31.4307C151.24 31.6161 148.776 31.0136 146.686 29.7138C146.599 29.6324 146.487 29.5805 146.367 29.5658C146.246 29.5511 146.125 29.5744 146.019 29.6322C145.913 29.6899 145.829 29.7791 145.779 29.8868C145.73 29.9946 145.717 30.115 145.741 30.2307V32.843C145.684 33.2988 145.801 33.7594 146.072 34.135C146.342 34.5105 146.747 34.7739 147.206 34.8738C148.988 35.533 150.878 35.8708 152.783 35.8707C153.812 35.8707 154.838 35.7749 155.846 35.5845C156.79 35.4214 157.689 35.0749 158.492 34.5655C159.295 34.0562 159.986 33.3944 160.521 32.6194C161.058 31.8444 161.429 30.9722 161.613 30.0544C161.798 29.1366 161.791 28.192 161.593 27.2768C161.369 26.1801 160.867 25.1557 160.135 24.2964C159.401 23.4372 158.461 22.7705 157.396 22.3568" fill="#171717"/>
<path d="M110.447 11.1879C107.478 11.1611 104.594 12.1557 102.301 13.9974C100.008 15.8392 98.4526 18.4104 97.9072 21.2602C97.3608 24.11 97.8599 27.0565 99.3166 29.5829C100.773 32.1093 103.094 34.0544 105.872 35.0771C107.354 35.6024 108.917 35.8771 110.494 35.8894H111.024C113.455 35.9448 115.856 35.3443 117.962 34.154C119.479 33.3096 120.797 32.1614 121.828 30.7848C121.883 30.7148 121.924 30.6345 121.946 30.5488C121.969 30.4632 121.974 30.3738 121.961 30.2863C121.935 30.1104 121.841 29.9512 121.696 29.8432L120.051 28.6156C119.707 28.3711 119.285 28.2536 118.862 28.284C118.438 28.3144 118.039 28.4908 117.735 28.7817C116.838 29.6118 115.79 30.2694 114.644 30.7202C113.498 31.1475 112.287 31.3816 111.062 31.4125C109.917 31.4724 108.772 31.306 107.696 30.9232C106.603 30.5433 105.606 29.9389 104.773 29.1506C103.94 28.3624 103.29 27.4087 102.866 26.354C102.764 26.1058 102.686 25.8495 102.63 25.5879H122.348C122.519 25.5881 122.685 25.5242 122.809 25.4092C122.934 25.2941 123.009 25.1368 123.019 24.9694C123.019 24.6186 123.067 24.1017 123.067 23.6494C123.096 22.0156 122.792 20.3922 122.171 18.8746C121.551 17.357 120.626 15.9757 119.452 14.8116C118.277 13.6475 116.877 12.724 115.332 12.0955C113.787 11.4669 112.13 11.1458 110.457 11.1509L110.447 11.1879ZM118.161 21.5171H102.658C102.788 20.8703 103.02 20.2473 103.348 19.6709C104.051 18.4351 105.081 17.4052 106.329 16.6879C107.577 15.9707 108.999 15.592 110.447 15.5909H110.532C112.027 15.598 113.49 16.0132 114.757 16.7896C116.022 17.566 117.041 18.6728 117.697 19.9848C117.938 20.4729 118.095 20.997 118.161 21.5356" fill="#171717"/>
<path d="M18.3383 4.92923C19.5211 4.93243 20.699 5.07814 21.8453 5.36308H21.9776H22.1383C22.4219 5.44615 22.7055 5.54769 22.9796 5.64L23.1498 5.70462C23.4806 5.83385 24.303 6.17538 24.3881 6.22154C25.2762 6.71514 26.1289 7.26718 26.9403 7.87385C27.0457 7.95535 27.1676 8.01398 27.298 8.04582C27.4284 8.07765 27.5643 8.08196 27.6965 8.05846C27.8115 8.02696 27.9177 7.97084 28.0077 7.8942C28.0976 7.81756 28.1689 7.72231 28.2164 7.61539C28.604 6.85846 29.0766 5.88923 29.6249 4.72615C29.6882 4.60762 29.7268 4.47794 29.7382 4.34468C29.7497 4.21144 29.7339 4.07729 29.6916 3.9501C29.6494 3.8229 29.5816 3.70519 29.4923 3.60388C29.4028 3.50256 29.2937 3.41965 29.1711 3.36C27.9117 2.48997 26.5422 1.78258 25.097 1.25538C22.9397 0.443516 20.6502 0.0182476 18.3383 0C15.9321 0.00165721 13.5504 0.471002 11.3318 1.38067C9.11338 2.29035 7.10248 3.62215 5.41642 5.29846C2.01639 8.60018 0.0726242 13.0689 0 17.7508V18.1662C0.0931869 22.8222 2.03531 27.2606 5.41642 30.5446C7.09627 32.2194 9.1005 33.5512 11.3125 34.4624C13.5243 35.3736 15.8998 35.8461 18.3005 35.8523C20.6124 35.8349 22.9022 35.4096 25.0592 34.5969C26.5024 34.0651 27.8711 33.3581 29.1333 32.4923C29.2562 32.4318 29.3656 32.3479 29.455 32.2458C29.5445 32.1437 29.6123 32.0251 29.6545 31.8972C29.6967 31.7693 29.7125 31.6344 29.7009 31.5005C29.6893 31.3665 29.6507 31.2362 29.5871 31.1169C29.0388 29.9631 28.5662 28.9938 28.1786 28.2369C28.1323 28.1293 28.0613 28.0334 27.9712 27.9566C27.8811 27.8798 27.7742 27.8241 27.6587 27.7938C27.5265 27.7703 27.3906 27.7746 27.2602 27.8065C27.1298 27.8383 27.0079 27.897 26.9025 27.9785C26.1099 28.5467 25.2829 29.0677 24.4259 29.5385C24.3313 29.5385 23.4806 29.9354 23.1876 30.0554L23.0269 30.1108C22.7527 30.2123 22.4692 30.3138 22.1761 30.3969H22.0249H21.8831C20.7368 30.6819 19.5589 30.8275 18.3761 30.8308C14.8463 30.8308 11.4609 29.4615 8.96492 27.0241C6.4689 24.5867 5.06667 21.2808 5.06667 17.8338C5.06667 14.3869 6.4689 11.081 8.96492 8.64364C11.4609 6.20623 14.8463 4.83692 18.3761 4.83692" fill="#171717"/>
<path d="M103.186 8.52906H116.647C117.129 8.52906 117.591 8.34264 117.933 8.01052C118.276 7.67842 118.468 7.22764 118.471 6.75675V5.22445C118.471 5.13517 118.452 5.04678 118.417 4.96443C118.382 4.88206 118.33 4.80736 118.265 4.74467C118.201 4.68197 118.123 4.63253 118.038 4.59922C117.953 4.56591 117.862 4.54937 117.772 4.5506H104.311C103.829 4.5506 103.368 4.73732 103.027 5.06969C102.687 5.40207 102.496 5.85286 102.496 6.32291V7.85522C102.496 8.03392 102.569 8.20532 102.698 8.33169C102.827 8.45807 103.003 8.52906 103.186 8.52906Z" fill="#171717"/>
</g>
<defs>
<clipPath id="clip0_1145_2103">
<rect width="190" height="36" fill="white"/>
</clipPath>
</defs>
</svg>
