<svg width="257" height="101" viewBox="0 0 257 101" fill="none" xmlns="http://www.w3.org/2000/svg">
<path fill-rule="evenodd" clip-rule="evenodd" d="M172.184 43.0062C170.729 43.0062 169.395 43.4038 168.206 44.0993L153.476 21.6927L137.438 39.8421L126.156 21.6927L109.048 42.1592C109.12 41.5378 109.145 40.9387 109.145 40.2931C109.145 35.3129 107.422 30.7304 104.583 27.1463L74.5673 54.3834C78.2081 58.4891 83.4244 61.0541 89.1994 61.0541C91.9896 61.0541 94.659 60.4567 97.0599 59.3877C99.9239 58.2412 102.593 56.4491 104.729 53.9599L114.799 42.2091L125.91 59.985L141.78 42.0576L153.332 60.3586L164.202 49.3033C164.228 49.3274 164.251 49.3274 164.275 49.3274C164.08 50.0263 163.986 50.7735 163.986 51.5429C163.986 56.2494 167.672 60.0832 172.184 60.0832C172.84 60.0832 173.472 59.985 174.078 59.8336C176.432 59.4376 177.791 58.5906 179.829 56.9466L194.824 40.4412C194.896 51.796 203.827 61.0317 214.745 61.0317C222.803 61.0317 229.768 56.0016 232.92 48.78L228.236 48.7559C220.474 58.2911 208.486 59.4617 202.008 48.3582L216.859 32.6464C216.834 32.55 216.082 34.7896 216.154 35.2131C216.154 38.7455 217.052 40.3396 220.11 42.2608C230.759 45.9413 236.367 28.4408 223.845 21.8941C221.394 20.4721 218.167 19.5512 214.745 19.5512C206.448 19.5512 199.289 24.8808 196.306 32.426L188.903 21.5687L165.706 21.6703L182.546 48.0604L180.314 50.5479C179.829 46.3183 176.36 43.0062 172.184 43.0062ZM89.1994 19.551C78.2316 19.551 69.252 28.8883 69.252 40.293C69.252 42.8546 69.7151 45.3197 70.5389 47.6127L61.6834 55.5039C61.3931 55.8035 61.1012 55.8035 60.8093 55.5039C55.348 48.8057 49.8884 42.0851 44.4288 35.4109C44.4288 35.3128 44.4288 35.2629 44.4288 35.1889L55.6165 20.7716C55.7389 22.5395 58.4067 27.6678 63.4535 27.9432C67.0692 28.1412 69.9818 26.2011 71.413 23.6086C73.3542 20.126 73.1596 16.2166 70.4416 12.8304C67.7722 10.4651 66.195 9.89187 62.6767 10.0158C59.6197 10.3653 57.5594 11.6839 55.3245 14.0733L43.8248 28.5147L43.8483 11.8354L19.0487 23.5621L19 69.1948L43.8483 57.098V42.0575L60.6381 61.1796C60.9066 61.4051 61.1482 61.4051 61.4653 61.1796C65.0793 57.8951 68.7201 54.6329 72.3358 51.3449C72.3358 51.3707 72.3593 51.3707 72.3593 51.3707L102.132 24.5313C102.107 24.5313 102.083 24.5072 102.083 24.4796C102.083 24.4796 102.107 24.4572 102.132 24.4572C101.939 24.2816 101.744 24.1577 101.55 24.0338C98.1522 21.245 93.857 19.551 89.1994 19.551ZM94.2952 41.3125C98.0082 41.3125 101.042 44.6005 101.042 48.6081C101.042 52.6157 98.0082 55.9002 94.2952 55.9002C90.5822 55.9002 87.5487 52.6157 87.5487 48.6081C87.5487 44.6005 90.5822 41.3125 94.2952 41.3125Z" fill="#DA1F2A"/>
<path d="M102.234 67.1951C103.158 67.1951 103.959 67.3473 104.639 67.6516C105.329 67.956 105.856 68.3923 106.222 68.9604C106.587 69.5285 106.769 70.2032 106.769 70.9844C106.769 71.7555 106.587 72.4302 106.222 73.0084C105.856 73.5766 105.329 74.0128 104.639 74.3172C103.959 74.6216 103.158 74.7738 102.234 74.7738H99.83V77.8478H97.8516V67.1951H102.234ZM102.143 73.0998C103.005 73.0998 103.66 72.9171 104.106 72.5519C104.553 72.1867 104.776 71.6642 104.776 70.9844C104.776 70.3047 104.553 69.7822 104.106 69.4169C103.66 69.0517 103.005 68.8691 102.143 68.8691H99.83V73.0998H102.143Z" fill="black"/>
<path d="M116.935 76.189V77.8478H108.945V67.1951H116.722V68.8539H110.924V71.6236H116.068V73.2519H110.924V76.189H116.935Z" fill="black"/>
<path d="M133.142 67.1951V77.8478H119.461V67.1951H121.409V76.1738H125.335V67.1951H127.283V76.1738H131.194V67.1951H133.142Z" fill="black"/>
<path d="M144.426 76.189V77.8478H136.438V67.1951H144.214V68.8539H138.415V71.6236H143.559V73.2519H138.415V76.189H144.426Z" fill="black"/>
<path d="M156.404 67.1951V77.8478H154.424V73.2824H148.915V77.8478H146.938V67.1951H148.915V71.5932H154.424V67.1951H156.404Z" fill="black"/>
<path d="M159.711 67.1951H161.658V74.7585L167.381 67.1951H169.222V77.8478H167.274V70.2996L161.552 77.8478H159.711V67.1951Z" fill="black"/>
<path d="M180.506 76.189V77.8478H172.516V67.1951H180.293V68.8539H174.494V71.6236H179.638V73.2519H174.494V76.189H180.506Z" fill="black"/>
<path d="M195.512 76.189V77.8478H187.523V67.1951H195.299V68.8539H189.501V71.6236H194.645V73.2519H189.501V76.189H195.512Z" fill="black"/>
<path d="M202.88 78C201.804 78 200.829 77.7667 199.957 77.3C199.094 76.8231 198.416 76.1688 197.919 75.3368C197.432 74.5049 197.188 73.5664 197.188 72.5215C197.188 71.4765 197.437 70.538 197.934 69.7061C198.431 68.8742 199.11 68.2249 199.972 67.7582C200.845 67.2813 201.82 67.0429 202.895 67.0429C203.767 67.0429 204.563 67.1951 205.283 67.4995C206.004 67.8038 206.612 68.2451 207.109 68.8234L205.831 70.0257C205.06 69.1937 204.111 68.7778 202.985 68.7778C202.255 68.7778 201.6 68.9401 201.022 69.2648C200.444 69.5793 199.993 70.0206 199.669 70.5887C199.344 71.1569 199.181 71.8011 199.181 72.5215C199.181 73.2418 199.344 73.886 199.669 74.4542C199.993 75.0223 200.444 75.4687 201.022 75.7934C201.6 76.1079 202.255 76.2651 202.985 76.2651C204.111 76.2651 205.06 75.8441 205.831 75.002L207.109 76.2195C206.612 76.7978 205.998 77.2391 205.268 77.5435C204.548 77.8478 203.752 78 202.88 78Z" fill="black"/>
<path d="M216.862 68.8691H213.331V77.8478H211.368V68.8691H207.852V67.1951H216.862V68.8691Z" fill="black"/>
<path d="M223.788 70.8018C225.066 70.8018 226.045 71.0909 226.725 71.6692C227.415 72.2374 227.76 73.0845 227.76 74.2107C227.76 75.3876 227.384 76.2905 226.633 76.9195C225.883 77.5384 224.828 77.8478 223.468 77.8478H218.887V67.1951H220.835V70.8018H223.788ZM223.377 76.326C224.148 76.326 224.741 76.1485 225.157 75.7934C225.573 75.4383 225.781 74.9209 225.781 74.2411C225.781 72.9526 224.98 72.3084 223.377 72.3084H220.835V76.326H223.377Z" fill="black"/>
<path d="M229.599 67.1951H231.851L231.471 74.3172H229.964L229.599 67.1951ZM230.725 77.9544C230.37 77.9544 230.076 77.8428 229.842 77.6196C229.609 77.3862 229.492 77.1021 229.492 76.7673C229.492 76.4325 229.609 76.1535 229.842 75.9303C230.076 75.7071 230.37 75.5955 230.725 75.5955C231.07 75.5955 231.354 75.7071 231.577 75.9303C231.811 76.1535 231.927 76.4325 231.927 76.7673C231.927 77.1021 231.811 77.3862 231.577 77.6196C231.354 77.8428 231.07 77.9544 230.725 77.9544Z" fill="black"/>
<path d="M202.609 44.3111C202.461 44.4679 202.282 44.5515 202.071 44.5621C201.856 44.5683 201.665 44.493 201.499 44.3363C201.329 44.1753 201.24 43.9917 201.234 43.7855C201.233 43.5748 201.308 43.3887 201.461 43.2273C201.613 43.0659 201.792 42.9822 201.998 42.9763C202.209 42.9657 202.399 43.041 202.57 43.202C202.736 43.3587 202.822 43.5446 202.828 43.7597C202.83 43.9705 202.757 44.1543 202.609 44.3111Z" fill="white"/>
<path d="M205.477 41.2721C205.116 41.6548 204.711 41.9221 204.263 42.0741C203.814 42.2261 203.366 42.2525 202.919 42.1533C202.468 42.0497 202.06 41.8259 201.695 41.4821C201.331 41.1382 201.087 40.7461 200.962 40.3056C200.837 39.8651 200.835 39.4188 200.957 38.9668C201.083 38.5101 201.328 38.0881 201.694 37.7008C202.038 37.3365 202.412 37.088 202.816 36.9552C203.225 36.8178 203.633 36.8105 204.04 36.9334L203.801 37.963C203.53 37.908 203.277 37.922 203.042 38.0051C202.806 38.0791 202.599 38.2107 202.421 38.3998C202.116 38.7225 201.97 39.0901 201.981 39.5024C201.989 39.9104 202.168 40.2798 202.518 40.6106C202.868 40.9414 203.248 41.1031 203.656 41.0958C204.063 41.0796 204.422 40.9078 204.731 40.5804C204.909 40.3913 205.031 40.1793 205.096 39.9441C205.161 39.7 205.158 39.4444 205.087 39.1773L206.101 38.879C206.243 39.2831 206.26 39.6953 206.151 40.1156C206.041 40.5269 205.817 40.9124 205.477 41.2721Z" fill="white"/>
<path d="M209.19 37.3417C208.838 37.7152 208.439 37.9757 207.995 38.1231C207.551 38.2704 207.105 38.2945 206.658 38.1953C206.211 38.087 205.805 37.861 205.441 37.5172C205.077 37.1733 204.83 36.7834 204.701 36.3476C204.576 35.9071 204.574 35.4608 204.696 35.0088C204.817 34.5567 205.054 34.1439 205.407 33.7704C205.764 33.3923 206.164 33.1296 206.609 32.9822C207.053 32.8348 207.497 32.8131 207.939 32.9169C208.386 33.0162 208.792 33.2377 209.156 33.5816C209.52 33.9254 209.767 34.3198 209.897 34.7646C210.026 35.2005 210.03 35.6444 209.908 36.0965C209.787 36.5485 209.547 36.9636 209.19 37.3417ZM208.45 36.6431C208.751 36.325 208.893 35.962 208.876 35.5543C208.86 35.1466 208.679 34.7795 208.333 34.4531C207.987 34.1266 207.611 33.967 207.203 33.9743C206.795 33.9816 206.44 34.1443 206.14 34.4625C205.84 34.7807 205.698 35.1436 205.714 35.5513C205.735 35.9544 205.918 36.3192 206.264 36.6457C206.609 36.9721 206.984 37.134 207.388 37.1313C207.796 37.124 208.15 36.9613 208.45 36.6431Z" fill="white"/>
<path d="M212.449 26.3106C212.888 25.8449 213.372 25.6044 213.901 25.5891C214.426 25.5695 214.957 25.8144 215.497 26.3236L217.613 28.3215L216.797 29.186L214.791 27.2927C214.469 26.988 214.159 26.8309 213.863 26.8215C213.562 26.8078 213.285 26.9346 213.033 27.2021C212.759 27.4926 212.636 27.8169 212.664 28.1749C212.687 28.5286 212.877 28.873 213.232 29.2081L215.106 30.9774L214.29 31.842L212.284 29.9487C211.962 29.644 211.652 29.4869 211.356 29.4775C211.055 29.4638 210.778 29.5906 210.526 29.8581C210.247 30.1532 210.12 30.4776 210.143 30.8313C210.171 31.1803 210.365 31.5246 210.725 31.8641L212.599 33.6334L211.783 34.498L208.09 31.0116L208.867 30.1885L209.337 30.6325C209.301 30.3375 209.338 30.0449 209.446 29.7547C209.554 29.4645 209.728 29.1926 209.968 28.9389C210.229 28.6623 210.512 28.4679 210.819 28.3559C211.125 28.235 211.438 28.208 211.758 28.275C211.708 27.94 211.743 27.6026 211.864 27.2627C211.979 26.9185 212.174 26.6011 212.449 26.3106Z" fill="white"/>
</svg>
