<svg width="200" height="107" viewBox="0 0 200 107" fill="none" xmlns="http://www.w3.org/2000/svg">
<rect width="200" height="107" fill="#171717"/>
<g clip-path="url(#clip0_2502_420)">
<path d="M59.3661 40.9845H59.3142C57.3653 40.9796 55.4585 41.5515 53.8342 42.6283C52.2098 43.7051 50.9403 45.2384 50.1857 47.0353C49.4311 48.8322 49.2252 50.8122 49.5937 52.7259C49.9624 54.6397 50.8891 56.4015 52.257 57.7896C53.1646 58.735 54.2532 59.4881 55.458 60.0039C56.6629 60.5198 57.9592 60.7877 59.2697 60.7918C61.8963 60.8006 64.4189 59.7657 66.2825 57.9146C68.146 56.0636 69.1979 53.5481 69.2067 50.9215C69.2156 48.2949 68.1807 45.7723 66.3296 43.9087C64.4786 42.0452 61.963 40.9933 59.3364 40.9845H59.3661ZM65.6522 50.8881C65.6552 51.7202 65.4931 52.5446 65.1754 53.3137C64.8576 54.0827 64.3905 54.7812 63.8011 55.3685C63.2117 55.9559 62.5117 56.4206 61.7415 56.7356C60.9713 57.0507 60.1463 57.2098 59.3142 57.204C58.4775 57.204 57.6491 57.0383 56.8767 56.7166C56.1043 56.3948 55.4033 55.9233 54.8141 55.3292C54.2248 54.7352 53.7591 54.0303 53.4436 53.2554C53.1281 52.4804 52.9693 51.6506 52.9761 50.814C52.9937 49.1328 53.6723 47.5259 54.8654 46.3413C56.0584 45.1565 57.6699 44.4891 59.3512 44.4834H59.4105C61.0884 44.5029 62.6905 45.1846 63.8679 46.3801C65.0454 47.5756 65.7027 49.1879 65.6967 50.8659" fill="white"/>
<path d="M163.622 40.9843C162.326 40.9755 161.042 41.2234 159.843 41.7137C158.644 42.2039 157.553 42.9269 156.636 43.8409C155.717 44.7548 154.989 45.8415 154.494 47.0384C153.998 48.2353 153.745 49.5184 153.748 50.8138C153.725 52.1194 153.963 53.4164 154.449 54.6285C154.934 55.8407 155.657 56.9436 156.575 57.8724C157.493 58.8013 158.587 59.5373 159.793 60.0374C161 60.5374 162.293 60.7913 163.599 60.7842C166.21 60.7945 168.72 59.7742 170.582 57.9451C171.512 57.0494 172.253 55.9767 172.763 54.7902C173.272 53.6037 173.539 52.3273 173.548 51.0362C173.574 49.7197 173.335 48.4114 172.847 47.1885C172.359 45.9656 171.631 44.8527 170.705 43.9158C169.78 42.9789 168.677 42.2368 167.46 41.7333C166.244 41.2298 164.938 40.9751 163.622 40.9843ZM169.952 50.8954C169.957 51.7319 169.796 52.5611 169.478 53.3348C169.16 54.1085 168.691 54.8113 168.099 55.4025C166.883 56.5775 165.252 57.2249 163.562 57.2038H163.51C162.678 57.196 161.856 57.0243 161.09 56.6985C160.325 56.3727 159.631 55.8993 159.049 55.305C158.466 54.7109 158.006 54.0078 157.696 53.2359C157.385 52.464 157.23 51.6384 157.239 50.8064C157.256 49.1258 157.935 47.5198 159.129 46.3363C160.322 45.1527 161.934 44.487 163.614 44.4832H163.681C165.358 44.5046 166.96 45.1883 168.136 46.3852C169.312 47.582 169.967 49.1952 169.96 50.8731" fill="white"/>
<path d="M133.162 49.8872C133.118 49.8872 128.714 47.8561 128.173 47.5669C127.476 47.2037 127.083 46.8257 127.143 46.1363C127.172 45.8178 127.303 45.5173 127.516 45.2795C127.731 45.0417 128.015 44.8794 128.329 44.8167C129.238 44.5388 130.192 44.4456 131.138 44.5425C132.455 44.6259 133.742 44.9685 134.926 45.5506C135.007 45.605 135.101 45.6376 135.198 45.6454C135.295 45.6532 135.393 45.6359 135.482 45.5951C135.553 45.5353 135.607 45.4579 135.638 45.3706C135.669 45.2835 135.676 45.1895 135.66 45.0984V42.7337C135.682 42.6222 135.683 42.5073 135.661 42.3957C135.639 42.284 135.595 42.178 135.531 42.0835C135.467 41.989 135.386 41.9081 135.291 41.8453C135.196 41.7826 135.09 41.7394 134.978 41.7181C133.15 41.1022 131.215 40.87 129.292 41.0362C128.32 41.1051 127.37 41.3566 126.49 41.7774C125.487 42.235 124.666 43.0147 124.158 43.9925C123.648 44.9703 123.481 46.0901 123.681 47.1741C123.811 47.9414 124.13 48.6641 124.61 49.2764C125.091 49.8888 125.716 50.3713 126.431 50.6804L131.427 53.0155C131.717 53.1419 131.993 53.2985 132.25 53.4825C132.535 53.6897 132.759 53.9696 132.898 54.2931C133.038 54.6165 133.088 54.9715 133.043 55.3209C133.012 55.7003 132.867 56.0616 132.628 56.3577C132.389 56.6538 132.066 56.8711 131.702 56.9814C131.235 57.1233 130.751 57.1981 130.264 57.2038C128.327 57.3411 126.398 56.8581 124.756 55.825C124.682 55.7672 124.594 55.7311 124.501 55.7206C124.408 55.7101 124.314 55.7258 124.229 55.7657C124.156 55.8196 124.098 55.8919 124.062 55.9751C124.026 56.0584 124.011 56.1498 124.022 56.2401V58.3379C123.976 58.703 124.067 59.072 124.278 59.3735C124.489 59.6749 124.805 59.887 125.163 59.9688C126.556 60.4982 128.032 60.7719 129.522 60.7768C130.328 60.7768 131.132 60.6999 131.924 60.547C132.673 60.4144 133.387 60.132 134.023 59.7167C134.66 59.3015 135.207 58.7619 135.631 58.1304C136.047 57.5064 136.334 56.8045 136.473 56.0669C136.612 55.3293 136.6 54.5712 136.439 53.8383C136.262 52.9576 135.869 52.1349 135.295 51.4449C134.719 50.7548 133.981 50.2194 133.147 49.8872" fill="white"/>
<path d="M83.2808 41.3847H72.1614C72.0198 41.3847 71.8841 41.4409 71.784 41.541C71.6839 41.6412 71.6277 41.7769 71.6277 41.9185V59.8059C71.6277 59.9474 71.6839 60.0831 71.784 60.1833C71.8841 60.2834 72.0198 60.3396 72.1614 60.3396H74.6744C74.8179 60.3396 74.9556 60.2825 75.0571 60.1811C75.1585 60.0796 75.2155 59.942 75.2155 59.7985V52.7933C75.2145 52.7657 75.2192 52.7382 75.2292 52.7126C75.2393 52.687 75.2545 52.6636 75.274 52.6441C75.2935 52.6247 75.3168 52.6094 75.3425 52.5993C75.3681 52.5892 75.3955 52.5847 75.4231 52.5857H82.3839C82.7555 52.5857 83.1118 52.438 83.3745 52.1753C83.6373 51.9125 83.7849 51.5562 83.7849 51.1846V49.791C83.7849 49.6488 83.7289 49.5122 83.629 49.411C83.5292 49.3097 83.3934 49.2518 83.2512 49.2499H75.4083C75.3571 49.2499 75.3081 49.2296 75.272 49.1934C75.2359 49.1572 75.2155 49.1082 75.2155 49.0571V44.765C75.2155 44.7381 75.221 44.7114 75.2315 44.6867C75.2419 44.6619 75.2574 44.6395 75.2768 44.6208C75.2961 44.6021 75.3191 44.5875 75.3442 44.5779C75.3694 44.5683 75.3962 44.5639 75.4231 44.5649H82.3839C82.7561 44.5629 83.1125 44.4137 83.375 44.1497C83.6375 43.8858 83.7849 43.5286 83.7849 43.1564V41.9259C83.7849 41.7836 83.7289 41.6471 83.629 41.5458C83.5292 41.4446 83.3934 41.3867 83.2512 41.3847" fill="white"/>
<path d="M98.8992 41.3847H87.7798C87.6383 41.3847 87.5025 41.4409 87.4024 41.541C87.3024 41.6412 87.2461 41.7769 87.2461 41.9185V59.8059C87.2461 59.9474 87.3024 60.0831 87.4024 60.1833C87.5025 60.2834 87.6383 60.3396 87.7798 60.3396H90.3002C90.4425 60.3376 90.5782 60.2798 90.6781 60.1785C90.778 60.0772 90.834 59.9407 90.834 59.7985V52.7933C90.8329 52.7657 90.8376 52.7382 90.8477 52.7126C90.8577 52.687 90.8729 52.6636 90.8924 52.6441C90.9119 52.6247 90.9352 52.6094 90.9609 52.5993C90.9865 52.5892 91.014 52.5847 91.0415 52.5857H98.0097C98.3799 52.5837 98.7344 52.4352 98.9956 52.1727C99.2568 51.9102 99.4035 51.5549 99.4035 51.1846V49.791C99.4035 49.6488 99.3472 49.5122 99.2471 49.411C99.1478 49.3097 99.0118 49.2518 98.8696 49.2499H91.0563C91.0311 49.2499 91.006 49.2448 90.9826 49.2352C90.9592 49.2255 90.938 49.2112 90.9201 49.1934C90.9022 49.1755 90.888 49.1542 90.8783 49.1309C90.8686 49.1075 90.8636 49.0824 90.8636 49.0571V44.765C90.8655 44.7112 90.8883 44.6604 90.927 44.623C90.9657 44.5857 91.0174 44.5648 91.0712 44.5649H98.0319C98.4042 44.5629 98.7605 44.4137 99.0231 44.1497C99.2857 43.8858 99.4332 43.5286 99.4332 43.1564V41.9259C99.4332 41.7836 99.3768 41.6471 99.2768 41.5458C99.1774 41.4446 99.0415 41.3867 98.8992 41.3847Z" fill="white"/>
<path d="M148.448 49.8873C148.403 49.8873 144 47.8561 143.451 47.567C142.755 47.2038 142.369 46.8257 142.421 46.1363C142.45 45.8179 142.581 45.5173 142.795 45.2795C143.009 45.0417 143.294 44.8795 143.607 44.8168C144.516 44.5385 145.471 44.4452 146.417 44.5425C147.733 44.6269 149.02 44.9694 150.205 45.5507C150.285 45.6064 150.379 45.6399 150.477 45.6477C150.575 45.6555 150.672 45.6374 150.761 45.5952C150.931 45.4914 150.939 45.2616 150.939 45.0985V42.7338C150.982 42.5087 150.935 42.2756 150.807 42.0852C150.679 41.8949 150.481 41.763 150.257 41.7182C148.427 41.1072 146.493 40.8751 144.571 41.0362C143.599 41.1052 142.648 41.3566 141.769 41.7775C140.766 42.2351 139.945 43.0147 139.436 43.9925C138.927 44.9703 138.759 46.0901 138.959 47.1741C139.089 47.9414 139.409 48.6641 139.89 49.2764C140.37 49.8888 140.996 50.3714 141.709 50.6804L146.706 53.0155C146.995 53.1436 147.271 53.3 147.529 53.4825C147.814 53.6889 148.038 53.969 148.176 54.2928C148.315 54.6166 148.363 54.972 148.314 55.3209C148.283 55.7003 148.139 56.0616 147.899 56.3577C147.66 56.6539 147.337 56.8711 146.973 56.9814C146.511 57.136 146.029 57.2234 145.542 57.2409C143.605 57.3898 141.672 56.906 140.034 55.8621C139.965 55.7967 139.878 55.755 139.784 55.7433C139.689 55.7315 139.594 55.7502 139.511 55.7966C139.428 55.8429 139.362 55.9146 139.322 56.0011C139.284 56.0876 139.274 56.1843 139.293 56.2772V58.3751C139.248 58.7411 139.339 59.111 139.552 59.4127C139.764 59.7142 140.082 59.9257 140.442 60.0059C141.839 60.5354 143.321 60.8066 144.815 60.8065C145.622 60.8065 146.426 60.7296 147.217 60.5767C147.957 60.4457 148.663 60.1674 149.292 59.7584C149.922 59.3494 150.463 58.8178 150.884 58.1955C151.305 57.5731 151.595 56.8727 151.74 56.1356C151.884 55.3986 151.879 54.64 151.724 53.9051C151.549 53.0243 151.155 52.2017 150.58 51.5116C150.005 50.8216 149.268 50.2862 148.433 49.954" fill="white"/>
<path d="M111.613 40.9844C109.284 40.9629 107.023 41.7617 105.224 43.2407C103.427 44.7197 102.207 46.7846 101.779 49.0732C101.35 51.3618 101.742 53.728 102.884 55.7569C104.026 57.7858 105.846 59.3478 108.025 60.1691C109.187 60.591 110.413 60.8116 111.65 60.8215H112.065C113.972 60.8659 115.854 60.3837 117.506 59.4278C118.696 58.7497 119.729 57.8276 120.538 56.7221C120.581 56.6659 120.613 56.6014 120.631 56.5326C120.648 56.4638 120.652 56.3921 120.642 56.3218C120.622 56.1805 120.548 56.0526 120.434 55.966L119.144 54.9801C118.875 54.7838 118.544 54.6894 118.212 54.7138C117.879 54.7382 117.566 54.8799 117.328 55.1135C116.625 55.7801 115.803 56.3082 114.904 56.6702C114.006 57.0134 113.055 57.2013 112.095 57.2262C111.197 57.2743 110.299 57.1406 109.456 56.8333C108.598 56.5282 107.817 56.0428 107.163 55.4097C106.51 54.7767 106 54.0109 105.668 53.1639C105.588 52.9646 105.526 52.7587 105.482 52.5486H120.946C121.08 52.5488 121.21 52.4975 121.307 52.4051C121.405 52.3127 121.464 52.1863 121.472 52.052C121.472 51.7703 121.509 51.3551 121.509 50.9919C121.532 49.6798 121.294 48.3762 120.807 47.1574C120.321 45.9387 119.595 44.8294 118.674 43.8945C117.753 42.9597 116.655 42.2181 115.444 41.7134C114.232 41.2085 112.932 40.9506 111.62 40.9548L111.613 40.9844ZM117.662 49.2795H105.505C105.606 48.7601 105.788 48.2598 106.046 47.7969C106.597 46.8045 107.404 45.9774 108.383 45.4014C109.362 44.8254 110.477 44.5212 111.613 44.5204H111.68C112.852 44.526 113.999 44.8595 114.992 45.483C115.985 46.1066 116.784 46.9954 117.299 48.049C117.488 48.441 117.611 48.8619 117.662 49.2943" fill="white"/>
<path d="M39.3811 35.9585C40.3087 35.9611 41.2324 36.0781 42.1313 36.3069H42.2351H42.3611C42.5835 36.3736 42.8059 36.4552 43.0208 36.5293L43.1543 36.5812C43.4137 36.685 44.0587 36.9593 44.1254 36.9963C44.8219 37.3927 45.4905 37.836 46.1269 38.3232C46.2095 38.3887 46.3051 38.4358 46.4074 38.4613C46.5097 38.4869 46.6162 38.4904 46.7199 38.4715C46.81 38.4462 46.8934 38.4011 46.9639 38.3396C47.0344 38.278 47.0903 38.2015 47.1276 38.1157C47.4315 37.5078 47.8022 36.7295 48.2321 35.7954C48.2818 35.7002 48.312 35.5961 48.321 35.4891C48.3301 35.3821 48.3176 35.2743 48.2845 35.1722C48.2513 35.07 48.1982 34.9755 48.1281 34.8942C48.058 34.8128 47.9725 34.7462 47.8763 34.6983C46.8886 33.9996 45.8147 33.4315 44.6813 33.0082C42.9896 32.3562 41.1941 32.0147 39.3811 32C37.4941 32.0013 35.6264 32.3782 33.8866 33.1088C32.1468 33.8393 30.5698 34.9088 29.2476 36.255C26.5813 38.9065 25.057 42.4952 25 46.2551V46.5887C25.0731 50.3277 26.5961 53.8921 29.2476 56.5294C30.565 57.8744 32.1367 58.9439 33.8714 59.6757C35.6059 60.4074 37.4688 60.7869 39.3514 60.7918C41.1645 60.7778 42.9601 60.4363 44.6517 59.7837C45.7834 59.3566 46.8568 58.7888 47.8467 58.0935C47.943 58.0449 48.0288 57.9776 48.0989 57.8955C48.1691 57.8135 48.2223 57.7184 48.2553 57.6156C48.2885 57.5129 48.3009 57.4046 48.2917 57.297C48.2827 57.1895 48.2524 57.0848 48.2025 56.989C47.7725 56.0624 47.4019 55.284 47.098 54.6762C47.0616 54.5897 47.006 54.5127 46.9353 54.451C46.8647 54.3894 46.7808 54.3447 46.6902 54.3203C46.5865 54.3014 46.48 54.3049 46.3777 54.3305C46.2755 54.3561 46.1799 54.4032 46.0972 54.4686C45.4756 54.9249 44.8271 55.3433 44.155 55.7214C44.0809 55.7214 43.4137 56.0402 43.1839 56.1365L43.0579 56.181C42.8429 56.2625 42.6205 56.3441 42.3907 56.4108H42.2721H42.1609C41.2621 56.6396 40.3383 56.7566 39.4107 56.7592C36.6426 56.7592 33.9877 55.6596 32.0304 53.7022C30.073 51.7448 28.9733 49.0899 28.9733 46.3218C28.9733 43.5537 30.073 40.8988 32.0304 38.9414C33.9877 36.984 36.6426 35.8844 39.4107 35.8844" fill="white"/>
<path d="M105.919 38.8492H116.475C116.853 38.8492 117.216 38.6995 117.484 38.4328C117.753 38.1661 117.904 37.8041 117.906 37.4259V36.1954C117.906 36.1237 117.891 36.0527 117.864 35.9866C117.836 35.9204 117.796 35.8604 117.744 35.8101C117.694 35.7597 117.633 35.72 117.567 35.6933C117.5 35.6665 117.429 35.6533 117.357 35.6542H106.801C106.423 35.6542 106.062 35.8042 105.795 36.0711C105.528 36.338 105.378 36.7001 105.378 37.0775V38.3081C105.378 38.4516 105.435 38.5892 105.537 38.6907C105.638 38.7922 105.776 38.8492 105.919 38.8492Z" fill="white"/>
</g>
<path d="M55.4946 82.9023C55.4946 82.9688 55.4478 83.0078 55.3657 83.0078H54.7095C54.6353 83.0078 54.5728 82.957 54.5454 82.8789L54.1196 81.7617H51.604L51.1821 82.875C51.1548 82.9531 51.0845 83.0039 51.0103 83.0039H50.3579C50.2759 83.0039 50.2329 82.9727 50.2329 82.9062C50.2329 82.8828 50.2368 82.8594 50.2485 82.8359L52.4438 77.4219C52.4751 77.3398 52.5454 77.2891 52.6235 77.2891H53.1079C53.186 77.2891 53.2563 77.3438 53.2837 77.4219L55.479 82.8359C55.4907 82.8672 55.4946 82.8906 55.4946 82.9023ZM51.8892 81.0078H53.8345L52.8618 78.4492L51.8892 81.0078Z" fill="white"/>
<path d="M61.9263 82.2734V82.8867C61.9263 82.9609 61.8873 83 61.8092 83H58.3326C58.2584 83 58.2193 82.9609 58.2193 82.8867V77.4023C58.2193 77.3281 58.2584 77.2891 58.3326 77.2891H58.9849C59.0592 77.2891 59.0943 77.3281 59.0943 77.4023V82.1602H61.8131C61.8873 82.1602 61.9263 82.1992 61.9263 82.2734Z" fill="white"/>
<path d="M71.1784 77.3867C71.1784 77.4102 71.1745 77.4336 71.1628 77.457L68.9713 82.8711C68.9401 82.9531 68.8698 83.0078 68.7917 83.0078H68.3073C68.2292 83.0078 68.1588 82.9531 68.1276 82.875L67.2057 80.6094L66.2917 82.8711C66.2643 82.9531 66.1901 83.0078 66.112 83.0078H65.6276C65.5495 83.0078 65.4792 82.957 65.444 82.875L63.2565 77.4609C63.2448 77.4375 63.2409 77.4141 63.2409 77.3867C63.2409 77.3203 63.2838 77.2891 63.3659 77.2891H64.0182C64.0963 77.2891 64.1588 77.3398 64.1901 77.4219L65.8659 81.7266L67.5534 77.418C67.5807 77.3398 67.6432 77.2891 67.7213 77.2891H68.3737C68.4557 77.2891 68.4987 77.3203 68.4987 77.3867C68.4987 77.4102 68.4948 77.4336 68.4831 77.457L67.6198 79.5938L68.526 81.7617L70.2331 77.418C70.2604 77.3398 70.3229 77.2891 70.3971 77.2891H71.0534C71.1354 77.2891 71.1784 77.3203 71.1784 77.3867Z" fill="white"/>
<path d="M77.8093 82.9023C77.8093 82.9688 77.7624 83.0078 77.6804 83.0078H77.0242C76.9499 83.0078 76.8874 82.957 76.8601 82.8789L76.4343 81.7617H73.9187L73.4968 82.875C73.4695 82.9531 73.3992 83.0039 73.3249 83.0039H72.6726C72.5906 83.0039 72.5476 82.9727 72.5476 82.9062C72.5476 82.8828 72.5515 82.8594 72.5632 82.8359L74.7585 77.4219C74.7898 77.3398 74.8601 77.2891 74.9382 77.2891H75.4226C75.5007 77.2891 75.571 77.3438 75.5984 77.4219L77.7937 82.8359C77.8054 82.8672 77.8093 82.8906 77.8093 82.9023ZM74.2038 81.0078H76.1492L75.1765 78.4492L74.2038 81.0078Z" fill="white"/>
<path d="M84.0301 77.3789C84.0301 77.4023 84.0223 77.4336 84.0067 77.4688L82.1356 80.707V82.8555C82.1356 82.9531 82.0887 83.0039 81.9949 83.0039H81.4012C81.3074 83.0039 81.2528 82.9531 81.2528 82.8555V80.707L79.3817 77.4648C79.3621 77.4297 79.3543 77.4023 79.3543 77.375C79.3543 77.3242 79.4012 77.2891 79.4793 77.2891H80.1746C80.241 77.2891 80.3035 77.3359 80.3465 77.4141L81.6942 79.8164L83.0379 77.4141C83.0809 77.332 83.1434 77.2891 83.2176 77.2891H83.909C83.991 77.2891 84.0301 77.3203 84.0301 77.3789Z" fill="white"/>
<path d="M86.3212 82.2422C86.3212 82.2109 86.3329 82.1797 86.3563 82.1445L86.6767 81.6797C86.7118 81.6367 86.747 81.6133 86.7899 81.6133C86.8251 81.6133 86.8603 81.625 86.9032 81.6523C87.0868 81.8008 87.3134 81.9258 87.5868 82.0273C87.8603 82.1289 88.1532 82.1797 88.4618 82.1797C89.1962 82.1797 89.7743 81.875 89.7743 81.3438C89.7743 81.1719 89.7079 81.0273 89.5751 80.9141C89.4462 80.7969 89.286 80.7031 89.0946 80.6367C88.9032 80.5703 88.6649 80.4961 88.372 80.4219C87.9735 80.3164 87.6454 80.1992 87.3837 80.0742C86.8642 79.8242 86.5517 79.4375 86.5517 78.832C86.5399 77.8398 87.3915 77.2266 88.5712 77.2344C89.2587 77.2344 89.9267 77.4336 90.3798 77.7812C90.4228 77.8164 90.4462 77.8594 90.4462 77.9023C90.4462 77.9336 90.4345 77.9688 90.411 78.0039L90.0868 78.4688C90.0517 78.5156 90.0126 78.5391 89.9657 78.5391C89.9384 78.5391 89.8993 78.5273 89.8524 78.5C89.3915 78.2227 89.1571 78.125 88.5712 78.1172C87.954 78.1172 87.4345 78.3984 87.4345 78.832C87.4345 78.9844 87.4931 79.1133 87.6063 79.2188C87.8368 79.4219 88.1337 79.5117 88.6298 79.6367C89.0712 79.7617 89.4345 79.8867 89.7157 80.0156C89.997 80.1406 90.2235 80.3125 90.3993 80.5273C90.5751 80.7422 90.661 81.0117 90.661 81.3438C90.6767 82.3984 89.6845 83.0703 88.4618 83.0586C88.0595 83.0586 87.7001 83.0039 87.3759 82.8906C87.0517 82.7773 86.7313 82.6055 86.4071 82.375C86.3485 82.3359 86.3212 82.293 86.3212 82.2422Z" fill="white"/>
<path d="M98.1065 77.4102V82.8867C98.1065 82.9648 98.0713 83.0039 97.9971 83.0039H97.3409C97.2745 83.0039 97.2315 82.9609 97.2315 82.8867V77.4102C97.2315 77.332 97.2667 77.293 97.3409 77.293H97.9971C98.0713 77.293 98.1065 77.332 98.1065 77.4102Z" fill="white"/>
<path d="M106.175 77.4023V82.8945C106.175 82.9688 106.136 83.0039 106.062 83.0039H105.441C105.351 83.0039 105.28 82.9648 105.23 82.8867L102.175 78.5938V82.8945C102.175 82.9688 102.14 83.0039 102.066 83.0039H101.413C101.339 83.0039 101.3 82.9688 101.3 82.8945V77.4023C101.3 77.3281 101.339 77.2891 101.413 77.2891H102.089C102.171 77.2891 102.241 77.332 102.3 77.4219L105.3 81.5742V77.4023C105.3 77.3281 105.335 77.2891 105.409 77.2891H106.062C106.136 77.2891 106.175 77.3281 106.175 77.4023Z" fill="white"/>
<path d="M109.056 82.2422C109.056 82.2109 109.068 82.1797 109.091 82.1445L109.411 81.6797C109.447 81.6367 109.482 81.6133 109.525 81.6133C109.56 81.6133 109.595 81.625 109.638 81.6523C109.822 81.8008 110.048 81.9258 110.322 82.0273C110.595 82.1289 110.888 82.1797 111.197 82.1797C111.931 82.1797 112.509 81.875 112.509 81.3438C112.509 81.1719 112.443 81.0273 112.31 80.9141C112.181 80.7969 112.021 80.7031 111.829 80.6367C111.638 80.5703 111.4 80.4961 111.107 80.4219C110.708 80.3164 110.38 80.1992 110.118 80.0742C109.599 79.8242 109.286 79.4375 109.286 78.832C109.275 77.8398 110.126 77.2266 111.306 77.2344C111.993 77.2344 112.661 77.4336 113.114 77.7812C113.157 77.8164 113.181 77.8594 113.181 77.9023C113.181 77.9336 113.169 77.9688 113.146 78.0039L112.822 78.4688C112.786 78.5156 112.747 78.5391 112.7 78.5391C112.673 78.5391 112.634 78.5273 112.587 78.5C112.126 78.2227 111.892 78.125 111.306 78.1172C110.689 78.1172 110.169 78.3984 110.169 78.832C110.169 78.9844 110.228 79.1133 110.341 79.2188C110.572 79.4219 110.868 79.5117 111.364 79.6367C111.806 79.7617 112.169 79.8867 112.45 80.0156C112.732 80.1406 112.958 80.3125 113.134 80.5273C113.31 80.7422 113.396 81.0117 113.396 81.3438C113.411 82.3984 112.419 83.0703 111.197 83.0586C110.794 83.0586 110.435 83.0039 110.111 82.8906C109.786 82.7773 109.466 82.6055 109.142 82.375C109.083 82.3359 109.056 82.293 109.056 82.2422Z" fill="white"/>
<path d="M120.124 79.1992C120.14 80.3047 119.296 81.1016 118.156 81.0859H117.124V82.8555C117.124 82.9492 117.074 83.0039 116.98 83.0039H116.39C116.296 83.0039 116.249 82.9531 116.249 82.8555V77.4414C116.249 77.3516 116.308 77.293 116.39 77.293H118.156C119.296 77.2773 120.14 78.0781 120.124 79.1992ZM119.245 79.1953C119.245 78.582 118.788 78.1328 118.156 78.1328H117.124V80.2461H118.156C118.784 80.2461 119.245 79.7969 119.245 79.1953Z" fill="white"/>
<path d="M123.716 77.4102V82.8867C123.716 82.9648 123.681 83.0039 123.607 83.0039H122.951C122.884 83.0039 122.841 82.9609 122.841 82.8867V77.4102C122.841 77.332 122.876 77.293 122.951 77.293H123.607C123.681 77.293 123.716 77.332 123.716 77.4102Z" fill="white"/>
<path d="M130.89 82.8945C130.89 82.957 130.843 83.0039 130.777 83.0039H130.062C129.988 83.0039 129.945 82.9727 129.894 82.8828L128.945 81.082H127.785V82.8555C127.785 82.9492 127.734 83.0039 127.64 83.0039H127.05C126.957 83.0039 126.91 82.9531 126.91 82.8555V77.4414C126.91 77.3516 126.968 77.293 127.05 77.293H128.878C130.015 77.2773 130.863 78.082 130.847 79.1953C130.847 79.9648 130.464 80.5781 129.828 80.8789L130.874 82.8359C130.886 82.8555 130.89 82.875 130.89 82.8945ZM127.785 78.1289V80.2461H128.878C129.507 80.2461 129.964 79.7969 129.964 79.1953C129.964 78.5742 129.507 78.1289 128.878 78.1289H127.785Z" fill="white"/>
<path d="M134.681 77.4102V82.8867C134.681 82.9648 134.646 83.0039 134.572 83.0039H133.916C133.849 83.0039 133.806 82.9609 133.806 82.8867V77.4102C133.806 77.332 133.841 77.293 133.916 77.293H134.572C134.646 77.293 134.681 77.332 134.681 77.4102Z" fill="white"/>
<path d="M142.75 77.4023V82.8945C142.75 82.9688 142.711 83.0039 142.636 83.0039H142.015C141.925 83.0039 141.855 82.9648 141.804 82.8867L138.75 78.5938V82.8945C138.75 82.9688 138.714 83.0039 138.64 83.0039H137.988C137.914 83.0039 137.875 82.9688 137.875 82.8945V77.4023C137.875 77.3281 137.914 77.2891 137.988 77.2891H138.664C138.746 77.2891 138.816 77.332 138.875 77.4219L141.875 81.5742V77.4023C141.875 77.3281 141.91 77.2891 141.984 77.2891H142.636C142.711 77.2891 142.75 77.3281 142.75 77.4023Z" fill="white"/>
<path d="M149.662 81.8789V80.5039C149.662 80.4141 149.724 80.3438 149.806 80.3438H150.357C150.435 80.3438 150.502 80.4141 150.502 80.5039V82.3789C150.502 82.4414 150.467 82.5117 150.424 82.543C150.201 82.6992 149.908 82.832 149.552 82.9414C149.197 83.0508 148.869 83.1055 148.576 83.1055C148.029 83.1055 147.529 82.9766 147.072 82.7148C146.615 82.4531 146.256 82.0938 145.99 81.6445C145.728 81.1953 145.595 80.6953 145.595 80.1523C145.595 79.6094 145.728 79.1133 145.99 78.6641C146.256 78.2148 146.615 77.8594 147.068 77.5977C147.525 77.3359 148.025 77.2031 148.572 77.2031C148.869 77.2031 149.177 77.2539 149.502 77.3594C149.826 77.4609 150.103 77.6094 150.342 77.8008C150.384 77.8359 150.404 77.875 150.404 77.9219C150.404 77.957 150.396 77.9844 150.377 78.0039L150.041 78.5078C150.017 78.5469 149.982 78.5664 149.935 78.5664C149.9 78.5664 149.865 78.5547 149.838 78.5273C149.662 78.375 149.459 78.2656 149.228 78.1914C149.002 78.1172 148.783 78.082 148.576 78.082C147.427 78.0586 146.455 79.0195 146.478 80.1523C146.455 81.293 147.427 82.2461 148.576 82.2266C148.736 82.2266 148.924 82.1914 149.131 82.125C149.342 82.0586 149.517 81.9766 149.662 81.8789Z" fill="white"/>
<defs>
<clipPath id="clip0_2502_420">
<rect width="149" height="28.9104" fill="white" transform="translate(25 32)"/>
</clipPath>
</defs>
</svg>
