<svg width="272" height="60" viewBox="0 0 272 60" fill="none" xmlns="http://www.w3.org/2000/svg">
<path fill-rule="evenodd" clip-rule="evenodd" d="M32.6966 0.163679C26.5816 -0.485436 20.4172 0.789988 15.0508 3.81464C9.68429 6.8393 5.37916 11.4647 2.72711 17.0551C0.0750606 22.6455 -0.793714 28.9264 0.240203 35.0345C1.27412 41.1427 4.15997 46.7782 8.50109 51.1665C12.8422 55.5547 18.4255 58.4803 24.4835 59.5411C30.5415 60.6019 36.7769 59.7459 42.3325 57.0906C47.8881 54.4353 52.4913 50.1112 55.5093 44.7126C58.5273 39.314 59.812 33.1059 59.1868 26.9416C58.4988 20.0896 55.4889 13.6858 50.664 8.8085C45.839 3.93116 39.4937 0.878196 32.6966 0.163679ZM31.7321 45.8634C28.4433 46.308 25.0989 45.703 22.169 44.1332C19.2391 42.5635 16.8709 40.108 15.3973 37.1119C13.9236 34.1158 13.4187 30.7297 13.9534 27.4294C14.488 24.1292 16.0355 21.0807 18.3782 18.7125C20.7209 16.3443 23.7411 14.7754 27.0143 14.2262C30.2875 13.6771 33.6492 14.1753 36.6269 15.651C39.6046 17.1266 42.0486 19.5054 43.6154 22.4531C45.1823 25.4008 45.7931 28.7692 45.3622 32.0848C44.91 35.5723 43.3296 38.8123 40.8656 41.3031C38.4015 43.794 35.1914 45.3968 31.7321 45.8634ZM75.1054 1.35022C74.0732 1.35271 73.0544 1.58708 72.1234 2.03628C71.1923 2.48547 70.3724 3.13819 69.7231 3.94694C69.0739 4.75569 68.6118 5.70013 68.3703 6.71152C68.1289 7.72292 68.1143 8.77583 68.3275 9.79365C68.9805 13.0911 72.0368 15.3441 75.3662 15.3441H94.6873L64.6193 55.443C64.3969 55.739 64.2607 56.0916 64.226 56.4613C64.1914 56.8309 64.2595 57.203 64.4229 57.5357C64.5863 57.8685 64.8385 58.1489 65.1511 58.3453C65.4637 58.5418 65.8245 58.6466 66.1929 58.6481H113.358C116.685 58.6481 119.743 56.3956 120.396 53.0977C120.61 52.08 120.595 51.0273 120.354 50.016C120.113 49.0047 119.651 48.0603 119.002 47.2515C118.353 46.4427 117.533 45.7898 116.603 45.3403C115.672 44.8908 114.653 44.6561 113.621 44.6531H90.0799L120.125 4.58532C120.349 4.28642 120.487 3.93037 120.522 3.55712C120.557 3.18388 120.488 2.80821 120.323 2.47225C120.158 2.1363 119.903 1.85335 119.587 1.65516C119.271 1.45697 118.907 1.35137 118.535 1.35022H75.1054ZM263.572 1.51164C262.011 1.88581 260.623 2.78581 259.638 4.06282C258.653 5.33982 258.13 6.91737 258.155 8.53461V31.8339L220.691 1.79029C220.398 1.55528 220.044 1.40862 219.671 1.36718C219.298 1.32574 218.921 1.39121 218.584 1.55606C218.246 1.7209 217.962 1.97843 217.763 2.29901C217.564 2.61958 217.459 2.99019 217.46 3.3682V51.4761C217.435 53.0934 217.958 54.671 218.943 55.948C219.928 57.2251 221.316 58.125 222.878 58.4991C223.892 58.724 224.943 58.7165 225.954 58.4774C226.964 58.2382 227.909 57.7735 228.718 57.1174C229.526 56.4613 230.179 55.6306 230.626 54.6866C231.074 53.7426 231.306 52.7093 231.304 51.663V28.1621L268.768 58.2063C269.062 58.4412 269.416 58.5878 269.788 58.6291C270.161 58.6705 270.538 58.6051 270.875 58.4403C271.212 58.2755 271.497 58.0181 271.696 57.6977C271.894 57.3773 271.999 57.0068 271.998 56.629V8.34545C271.999 7.29943 271.767 6.26651 271.32 5.32283C270.872 4.37915 270.22 3.54878 269.411 2.89295C268.602 2.23711 267.658 1.77254 266.648 1.53347C265.637 1.2944 264.586 1.28694 263.572 1.51164ZM166.027 14.0046C181.873 14.0046 193.713 22.4435 193.713 29.9921C193.713 37.5406 181.873 45.9795 166.027 45.9795C150.181 45.9795 138.341 37.5406 138.341 29.9921C138.341 22.4435 150.181 14.0046 166.027 14.0046ZM166.027 0.0113261C143.091 0.0113261 124.497 13.4343 124.497 29.9921C124.497 46.5499 143.091 59.9728 166.027 59.9728C188.964 59.9728 207.557 46.5499 207.557 29.9921C207.557 13.4343 188.963 0.0113261 166.027 0.0113261Z" fill="#0069FF"/>
</svg>
