<svg width="113" height="113" viewBox="0 0 113 113" fill="none" xmlns="http://www.w3.org/2000/svg">
<path d="M101.059 68.2989C107.653 43.7398 93.0487 18.496 68.4389 11.9154C43.829 5.33475 18.533 19.9093 11.9388 44.4684C5.34463 69.0277 19.9492 94.2715 44.5591 100.852C69.169 107.433 94.4649 92.8582 101.059 68.2989Z" fill="black"/>
<path opacity="0.5" fill-rule="evenodd" clip-rule="evenodd" d="M20.6599 59.3847C21.5972 59.275 22.4472 59.935 22.5587 60.8589C24.5697 77.5375 38.9975 90.4777 56.4998 90.4777C74.0022 90.4777 88.43 77.5375 90.441 60.8589C90.5525 59.935 91.4025 59.275 92.3398 59.3847C93.2771 59.4947 93.9465 60.3328 93.8352 61.2567C91.6216 79.6157 75.7489 93.8474 56.4998 93.8474C37.2508 93.8474 21.3781 79.6157 19.1645 61.2567C19.0531 60.3328 19.7226 59.4947 20.6599 59.3847Z" fill="#BDBDBD"/>
<path d="M104.88 21.1172L94.607 31.1443L85.4805 21.8323L95.7539 11.805C98.3305 9.29011 102.462 9.33596 104.983 11.9074C107.503 14.4789 107.457 18.6022 104.88 21.1172Z" fill="black"/>
<path fill-rule="evenodd" clip-rule="evenodd" d="M102.489 18.6766L94.6607 26.3171L90.3178 21.886L98.1457 14.2455C99.3718 13.0489 101.338 13.0706 102.537 14.2943C103.736 15.5179 103.715 17.4799 102.489 18.6766ZM95.7539 11.805C98.3305 9.29011 102.462 9.33596 104.983 11.9074C107.503 14.4789 107.457 18.6022 104.88 21.1172L94.607 31.1443L85.4805 21.8323L95.7539 11.805Z" fill="black"/>
<path d="M42.4359 45.9661C42.3485 47.2181 42.2832 48.4278 42.2395 49.595C42.2177 50.7623 42.2068 51.6535 42.2068 52.269C42.2068 52.7145 42.2177 53.1391 42.2395 53.5423C42.2614 53.9455 42.2832 54.285 42.3049 54.5608H41.5523C41.0506 52.5661 40.4396 50.9956 39.7196 49.8497C39.0215 48.7038 38.2688 47.8973 37.4616 47.4303C36.6763 46.9423 35.8909 46.6983 35.1054 46.6983H35.0727V64.9065C35.0727 65.7766 35.16 66.4237 35.3345 66.8481C35.5308 67.2728 35.8909 67.5486 36.4145 67.6759C36.9381 67.8033 37.7015 67.8669 38.7051 67.8669V68.5035C37.9415 68.4822 36.9054 68.4612 35.5963 68.4399C34.309 68.4186 32.9565 68.4081 31.5384 68.4081C30.1857 68.4081 28.9096 68.4186 27.7097 68.4399C26.5098 68.4612 25.5389 68.4822 24.7971 68.5035V67.8669C25.8005 67.8669 26.5641 67.8033 27.0878 67.6759C27.6114 67.5486 27.9606 67.2728 28.135 66.8481C28.3313 66.4237 28.4296 65.7766 28.4296 64.9065V46.6983H28.3969C27.6114 46.6983 26.815 46.9423 26.008 47.4303C25.2225 47.8973 24.4807 48.7038 23.7826 49.8497C23.0845 50.9745 22.4735 52.5448 21.9499 54.5608H21.1972C21.2409 54.285 21.2627 53.9455 21.2627 53.5423C21.2846 53.1391 21.2955 52.7145 21.2955 52.269C21.2955 51.6535 21.2736 50.7623 21.23 49.595C21.2081 48.4278 21.1537 47.2181 21.0664 45.9661C22.1137 45.9874 23.2699 46.0086 24.5353 46.0297C25.8005 46.051 27.0659 46.0617 28.3313 46.0617C29.5968 46.0617 30.7421 46.0617 31.7675 46.0617C32.7929 46.0617 33.9383 46.0617 35.2037 46.0617C36.4691 46.0617 37.7343 46.051 38.9997 46.0297C40.2651 46.0086 41.4104 45.9874 42.4359 45.9661Z" fill="white"/>
<path d="M54.6533 45.9661V46.6027C53.9989 46.624 53.508 46.7088 53.1807 46.8574C52.8534 46.9848 52.6243 47.2393 52.4935 47.6214C52.3843 47.9821 52.3299 48.5551 52.3299 49.3404V55.4839C52.3299 56.4178 52.3952 57.1498 52.5262 57.6803C52.6789 58.2111 52.9625 58.593 53.377 58.8264C53.7916 59.0386 54.4024 59.1447 55.2097 59.1447C55.9733 59.1447 56.7477 59.0704 57.5331 58.9218C58.3404 58.7734 59.0167 58.593 59.5621 58.3807V59.0174C59.1911 59.166 58.6784 59.3357 58.024 59.5266C57.3914 59.6965 56.6605 59.845 55.8314 59.9723C55.0241 60.0997 54.1406 60.1633 53.1807 60.1633C52.1334 60.1633 51.1517 60.0679 50.2354 59.8769C49.341 59.6858 48.5665 59.41 47.912 59.0492C47.0611 58.5612 46.4721 57.9563 46.1448 57.2348C45.8393 56.5132 45.6867 55.59 45.6867 54.4654V49.3404C45.6867 48.5551 45.6321 47.9821 45.5231 47.6214C45.4139 47.2393 45.1958 46.9848 44.8685 46.8574C44.5414 46.7088 44.0396 46.624 43.3633 46.6027V45.9661C43.9959 45.9873 44.8248 46.0086 45.8502 46.0296C46.8975 46.0509 47.9666 46.0616 49.0573 46.0616C50.1483 46.0616 51.1953 46.0509 52.1989 46.0296C53.2025 46.0086 54.0207 45.9873 54.6533 45.9661ZM68.5288 45.9661V46.6027C67.8743 46.624 67.3725 46.7088 67.0234 46.8574C66.6961 46.9848 66.4779 47.2393 66.3689 47.6214C66.2598 47.9821 66.2052 48.5551 66.2052 49.3404V65.1291C66.2052 65.8931 66.2598 66.4662 66.3689 66.8481C66.4779 67.2302 66.6961 67.4849 67.0234 67.6121C67.3725 67.7394 67.8743 67.8243 68.5288 67.8668V68.5034C67.656 68.4822 66.707 68.4611 65.6817 68.4398C64.6782 68.4186 63.6746 68.4081 62.671 68.4081C61.3184 68.4081 60.0421 68.4186 58.8422 68.4398C57.6423 68.4611 56.6714 68.4822 55.9296 68.5034V67.7712C56.9332 67.7712 57.6967 67.7076 58.2203 67.5803C58.7439 67.4529 59.0931 67.1771 59.2676 66.7527C59.4639 66.3283 59.5621 65.6809 59.5621 64.8108V49.3404C59.5621 48.5551 59.5075 47.9821 59.3984 47.6214C59.2894 47.2393 59.0603 46.9848 58.7112 46.8574C58.384 46.7088 57.8932 46.624 57.2385 46.6027V45.9661C57.8713 45.9873 58.7003 46.0086 59.7257 46.0296C60.7729 46.0509 61.8855 46.0616 63.0636 46.0616C64.089 46.0616 65.0926 46.0509 66.0744 46.0296C67.078 46.0086 67.896 45.9873 68.5288 45.9661Z" fill="white"/>
<path d="M81.6416 45.9661V46.6028C80.9872 46.624 80.4854 46.7089 80.1364 46.8575C79.8091 46.9849 79.5909 47.2394 79.4818 47.6215C79.3728 47.9821 79.3182 48.5552 79.3182 49.3404V65.1292C79.3182 65.8932 79.3728 66.4662 79.4818 66.8481C79.6128 67.2302 79.8418 67.485 80.169 67.6121C80.4963 67.7395 80.9872 67.8243 81.6416 67.8669V68.5035C81.009 68.4612 80.1908 68.4399 79.1872 68.4399C78.2054 68.4186 77.202 68.4081 76.1766 68.4081C74.9985 68.4081 73.8858 68.4186 72.8387 68.4399C71.8133 68.4399 70.9842 68.4612 70.3516 68.5035V67.8669C71.0278 67.8243 71.5296 67.7395 71.857 67.6121C72.1841 67.485 72.4022 67.2302 72.5114 66.8481C72.6204 66.4662 72.675 65.8932 72.675 65.1292V49.3404C72.675 48.5552 72.6204 47.9821 72.5114 47.6215C72.4022 47.2394 72.1732 46.9849 71.8242 46.8575C71.4969 46.7089 71.006 46.624 70.3516 46.6028V45.9661C70.9842 45.9874 71.8133 46.0086 72.8387 46.0297C73.8858 46.051 74.9985 46.0617 76.1766 46.0617C77.202 46.0617 78.2054 46.051 79.1872 46.0297C80.1908 46.0086 81.009 45.9874 81.6416 45.9661ZM79.4165 56.4389C81.5545 56.4389 83.3651 56.5663 84.8487 56.821C86.3323 57.0545 87.4994 57.4789 88.3504 58.0943C89.2011 58.7097 89.7466 59.5905 89.9866 60.7364L90.9356 65.1612C91.0882 65.9463 91.2738 66.4875 91.4919 66.7846C91.7319 67.0816 92.0481 67.2302 92.441 67.2302C92.6373 67.2302 92.8118 67.1984 92.9646 67.1347C93.1172 67.0711 93.2699 66.965 93.4227 66.8163L93.8481 67.2302C93.1718 67.8881 92.43 68.3338 91.6228 68.5673C90.8373 68.8218 89.9429 68.9492 88.9393 68.9492C87.4776 68.9492 86.3213 68.7052 85.4706 68.217C84.6196 67.7077 84.096 66.8058 83.8997 65.5113L83.0489 60.0362C82.9179 59.2084 82.6889 58.5718 82.3616 58.1261C82.0563 57.6804 81.6089 57.3728 81.0199 57.2029C80.4308 57.0332 79.6346 56.9484 78.631 56.9484H78.3365V56.4389H79.4165ZM79.1219 56.9484V56.4389C80.0818 56.3966 80.9872 56.0995 81.8381 55.5478C82.6889 54.996 83.7143 54.0621 84.9142 52.7465L86.0268 51.5368C86.943 50.5394 87.4232 49.68 87.4667 48.9583C87.5322 48.2156 87.3031 47.6425 86.7795 47.2394C86.2777 46.815 85.6123 46.5922 84.7832 46.571V45.9661C85.3942 45.9874 85.9615 46.0086 86.4849 46.0297C87.0304 46.0297 87.5977 46.0404 88.1866 46.0617C88.7976 46.0617 89.5066 46.0617 90.3139 46.0617C91.012 46.0617 91.6228 46.051 92.1464 46.0297C92.6919 46.0086 93.1827 45.9874 93.619 45.9661V46.571C92.8773 46.7619 92.0591 47.112 91.1646 47.6215C90.2702 48.1307 89.2994 48.9478 88.2521 50.0724L81.8707 56.9484H79.1219Z" fill="white"/>
</svg>
