<svg width="18" height="10" viewBox="0 0 18 10" fill="none" xmlns="http://www.w3.org/2000/svg">
<path d="M16.9838 0.712683C17.1005 0.325182 16.9838 0.0410156 16.4321 0.0410156H14.6046C14.1396 0.0410156 13.9271 0.286849 13.8105 0.556849C13.8105 0.556849 12.8813 2.82268 11.5646 4.29185C11.1396 4.71935 10.9455 4.85435 10.7138 4.85435C10.598 4.85435 10.4296 4.71935 10.4296 4.33185V0.712683C10.4296 0.247682 10.2955 0.0410156 9.90797 0.0410156H7.0363C6.7463 0.0410156 6.5713 0.256016 6.5713 0.461016C6.5713 0.901016 7.22964 1.00268 7.29714 2.24268V4.93268C7.29714 5.52185 7.1913 5.62935 6.95797 5.62935C6.3388 5.62935 4.83214 3.35518 3.93797 0.751849C3.7638 0.246016 3.58797 0.0418493 3.1213 0.0418493H1.29464C0.772136 0.0418493 0.667969 0.287683 0.667969 0.557683C0.667969 1.04268 1.28714 3.44268 3.55214 6.61685C5.06214 8.78435 7.18797 9.95935 9.12463 9.95935C10.2855 9.95935 10.4288 9.69852 10.4288 9.24852V7.61018C10.4288 7.08852 10.5396 6.98352 10.9071 6.98352C11.1771 6.98352 11.6421 7.12018 12.7263 8.16435C13.9646 9.40268 14.1696 9.95852 14.8655 9.95852H16.6921C17.2138 9.95852 17.4746 9.69768 17.3246 9.18268C17.1605 8.67018 16.5688 7.92435 15.7838 7.04185C15.3571 6.53852 14.7196 5.99685 14.5255 5.72602C14.2546 5.37685 14.333 5.22268 14.5255 4.91268C14.5263 4.91352 16.7521 1.77852 16.9838 0.712683Z" fill="white"/>
</svg>
