<svg width="217" height="62" viewBox="0 0 217 62" fill="none" xmlns="http://www.w3.org/2000/svg">
<g clip-path="url(#clip0_646_8497)">
<path d="M69.1719 0.976501H75.2648L82.2134 22.8333L89.1165 0.976501H95.2483L85.6617 29.4124H78.7131L69.1719 0.976501Z" fill="#043E44"/>
<path d="M116.743 19.2614C116.743 25.3155 112.277 29.9889 106.832 29.9889C103.863 29.9889 101.711 28.8935 100.253 27.0201V37.5403H95.0156V9.10433H100.253V11.5026C101.718 9.63589 103.87 8.53394 106.832 8.53394C112.277 8.53394 116.743 13.2073 116.743 19.2614ZM111.499 19.2614C111.499 15.8519 109.101 13.5313 105.853 13.5313C102.645 13.5313 100.246 15.8454 100.246 19.2614C100.246 22.6708 102.645 24.9913 105.853 24.9913C109.107 24.9849 111.499 22.6708 111.499 19.2614Z" fill="#043E44"/>
<path d="M130.758 8.69604V14.5426C128.036 14.2186 124.581 15.4371 124.581 19.7021V29.4121H119.344V9.09795H124.581V12.5917C125.638 9.83028 128.198 8.69604 130.758 8.69604Z" fill="#043E44"/>
<path d="M130.883 19.2614C130.883 13.2073 135.634 8.53394 141.61 8.53394C147.58 8.53394 152.377 13.2073 152.377 19.2614C152.377 25.3155 147.58 29.9889 141.61 29.9889C135.634 29.9823 130.883 25.3089 130.883 19.2614ZM147.133 19.2614C147.133 15.9686 144.735 13.6546 141.61 13.6546C138.525 13.6546 136.127 15.9686 136.127 19.2614C136.127 22.5541 138.525 24.8682 141.61 24.8682C144.735 24.8616 147.133 22.5478 147.133 19.2614Z" fill="#043E44"/>
<path d="M167.602 29.4123L160.206 20.1887V29.4123H154.969V0.976318H160.206V18.0367L167.194 9.09813H173.448L165.281 19.1321L173.688 29.4123H167.602Z" fill="#043E44"/>
<path d="M174.789 26.489C174.789 24.5768 176.332 23.0341 178.244 23.0341C180.156 23.0341 181.699 24.5768 181.699 26.489C181.699 28.4011 180.156 29.9438 178.244 29.9438C176.332 29.9438 174.789 28.4011 174.789 26.489Z" fill="#043E44"/>
<path d="M196.397 8.69604V14.5426C193.675 14.2186 190.221 15.4371 190.221 19.7021V29.4121H184.977V9.09795H190.221V12.5917C191.284 9.83028 193.837 8.69604 196.397 8.69604Z" fill="#043E44"/>
<path d="M216.999 9.10468V29.4188H211.762V27.1438C210.544 28.9717 208.431 29.9892 205.708 29.9892C201.405 29.9892 198.027 26.9816 198.027 21.5824V9.11124H203.265V20.9341C203.265 23.6953 204.929 25.1215 207.289 25.1215C209.849 25.1215 211.755 23.6176 211.755 20.0849V9.11762H216.999V9.10468Z" fill="#043E44"/>
<path d="M85.6974 56.5774H82.4694V43.2765H76.6875V56.5774H73.4531V40.1848H85.6974V56.5774Z" fill="#043E44"/>
<path d="M94.2202 54.1663C95.3935 54.1663 96.3269 53.6736 96.8454 52.993L99.2825 54.3995C98.1807 55.9942 96.4241 56.9079 94.1748 56.9079C90.2404 56.9079 87.7578 54.2117 87.7578 50.7244C87.7578 47.237 90.2663 44.5406 93.9416 44.5406C97.4094 44.5406 99.866 47.2825 99.866 50.7244C99.866 51.1717 99.8206 51.567 99.7493 51.9624H90.9211C91.3423 53.5116 92.6257 54.1663 94.2202 54.1663ZM96.8454 49.6224C96.4695 47.9371 95.2055 47.2566 93.9416 47.2566C92.3276 47.2566 91.2256 48.1251 90.8757 49.6224H96.8454Z" fill="#043E44"/>
<path d="M114.269 50.7244C114.269 54.2117 111.696 56.9079 108.558 56.9079C106.847 56.9079 105.609 56.2728 104.767 55.1967V61.2638H101.746V44.8712H104.767V46.252C105.609 45.1759 106.847 44.5406 108.558 44.5406C111.689 44.5472 114.269 47.237 114.269 50.7244ZM111.249 50.7244C111.249 48.7604 109.868 47.4251 107.995 47.4251C106.147 47.4251 104.76 48.7604 104.76 50.7244C104.76 52.6883 106.141 54.0237 107.995 54.0237C109.868 54.0301 111.249 52.6949 111.249 50.7244Z" fill="#043E44"/>
<path d="M122.021 54.1663C123.194 54.1663 124.128 53.6736 124.646 52.993L127.083 54.3995C125.982 55.9942 124.225 56.9079 121.976 56.9079C118.041 56.9079 115.559 54.2117 115.559 50.7244C115.559 47.237 118.067 44.5406 121.742 44.5406C125.21 44.5406 127.667 47.2825 127.667 50.7244C127.667 51.1717 127.621 51.567 127.55 51.9624H118.722C119.137 53.5116 120.427 54.1663 122.021 54.1663ZM124.64 49.6224C124.264 47.9371 123 47.2566 121.736 47.2566C120.122 47.2566 119.02 48.1251 118.67 49.6224H124.64Z" fill="#043E44"/>
<path d="M136.818 56.5779L132.56 51.2629V56.5779H129.539V44.8718H132.56V50.0247L136.585 44.8718H140.189L135.483 50.6534L140.331 56.5779H136.818Z" fill="#043E44"/>
<path d="M154.124 50.7244C154.124 54.2117 151.551 56.9079 148.414 56.9079C146.703 56.9079 145.465 56.2728 144.622 55.1967V61.2638H141.602V44.8712H144.622V46.252C145.465 45.1759 146.703 44.5406 148.414 44.5406C151.545 44.5472 154.124 47.237 154.124 50.7244ZM151.104 50.7244C151.104 48.7604 149.723 47.4251 147.85 47.4251C146.003 47.4251 144.622 48.7604 144.622 50.7244C144.622 52.6883 146.003 54.0237 147.85 54.0237C149.723 54.0301 151.104 52.6949 151.104 50.7244Z" fill="#043E44"/>
<path d="M161.877 54.1669C163.05 54.1669 163.983 53.6742 164.502 52.9936L166.939 54.4001C165.837 55.9946 164.08 56.9085 161.831 56.9085C157.897 56.9085 155.414 54.2121 155.414 50.725C155.414 47.2376 157.923 44.5412 161.598 44.5412C165.066 44.5412 167.522 47.283 167.522 50.725C167.522 51.1723 167.477 51.5676 167.406 51.963H158.577C158.999 53.5122 160.282 54.1669 161.877 54.1669ZM157.637 42.0652C157.637 41.1967 158.363 40.4707 159.232 40.4707C160.101 40.4707 160.801 41.1967 160.801 42.0652C160.801 42.9337 160.101 43.6338 159.232 43.6338C158.363 43.6338 157.637 42.9272 157.637 42.0652ZM164.502 49.623C164.126 47.9377 162.862 47.2571 161.598 47.2571C159.984 47.2571 158.882 48.1257 158.532 49.623H164.502ZM162.084 42.0652C162.084 41.1967 162.81 40.4707 163.678 40.4707C164.547 40.4707 165.247 41.1967 165.247 42.0652C165.247 42.9337 164.547 43.6338 163.678 43.6338C162.81 43.6338 162.084 42.9272 162.084 42.0652Z" fill="#043E44"/>
<path d="M168.691 50.7244C168.691 47.237 171.317 44.5406 174.875 44.5406C177.17 44.5406 179.16 45.7593 180.119 47.5613L177.52 49.0845C177.053 48.1251 176.042 47.5159 174.849 47.5159C173.047 47.5159 171.712 48.8511 171.712 50.7244C171.712 52.5718 173.047 53.907 174.849 53.907C176.068 53.907 177.073 53.3236 177.539 52.3643L180.164 53.8616C179.16 55.6895 177.17 56.9079 174.875 56.9079C171.317 56.9079 168.691 54.2117 168.691 50.7244Z" fill="#043E44"/>
<path d="M191.311 47.7756H187.655V56.5779H184.635V47.7756H180.934V44.8718H191.304V47.7756H191.311Z" fill="#043E44"/>
<path d="M191.617 50.7244C191.617 47.237 194.36 44.5406 197.801 44.5406C201.244 44.5406 204.004 47.2307 204.004 50.7244C204.004 54.2117 201.244 56.9079 197.801 56.9079C194.36 56.9079 191.617 54.2117 191.617 50.7244ZM200.985 50.7244C200.985 48.8252 199.602 47.4963 197.801 47.4963C196.025 47.4963 194.639 48.8317 194.639 50.7244C194.639 52.617 196.019 53.9588 197.801 53.9588C199.602 53.9588 200.985 52.6236 200.985 50.7244Z" fill="#043E44"/>
<path d="M213.183 56.5779L208.918 51.2629V56.5779H205.898V44.8718H208.918V50.0247L212.945 44.8718H216.548L211.841 50.6534L216.69 56.5779H213.183Z" fill="#043E44"/>
<path d="M44.1061 0.736328H11.2334C5.05342 0.736328 0 5.78969 0 11.9696V44.8424C0 51.0223 5.05342 56.0759 11.2334 56.0759H44.1061C50.286 56.0759 55.3396 51.0223 55.3396 44.8424V11.9696C55.3396 5.79607 50.286 0.736328 44.1061 0.736328Z" fill="#043E44"/>
<path d="M27.9392 20.0145L19.5508 28.4093L27.9392 36.8041C32.5726 41.4375 40.0828 41.4375 44.7098 36.8041C49.3432 32.1709 49.3432 24.6543 44.7098 20.0209C40.0764 15.3813 32.5662 15.3813 27.9392 20.0145Z" fill="white"/>
<path d="M12.7633 28.409L4.37491 20.0142C3.75755 19.3967 3.08927 18.8748 2.38281 18.4293V38.3884C3.08927 37.9429 3.75755 37.4146 4.37491 36.7974L12.7633 28.409Z" fill="white"/>
<path d="M24.5405 40.2021L16.1584 31.8073L7.76993 40.2021C4.96318 43.0088 3.8812 46.9041 4.4731 50.5446C6.09606 52.4666 8.52732 53.6949 11.2386 53.6949H26.8699C28.9639 49.2843 28.1874 43.8489 24.5405 40.2021Z" fill="white"/>
<path d="M7.76911 16.6158L16.1512 25.0106L24.5397 16.6158C28.1866 12.9689 28.9503 7.52733 26.8563 3.11676H11.2314C8.52013 3.11676 6.08887 4.34509 4.46592 6.27347C3.88038 9.90758 4.96872 13.8154 7.76911 16.6158Z" fill="white"/>
</g>
<defs>
<clipPath id="clip0_646_8497">
<rect width="217" height="62" fill="white"/>
</clipPath>
</defs>
</svg>
