<svg width="48" height="48" viewBox="0 0 48 48" fill="none" xmlns="http://www.w3.org/2000/svg">
<circle cx="24" cy="24" r="23" fill="white" stroke="#66BB6A" stroke-width="2"/>
<g clip-path="url(#clip0_54_955)">
<path fill-rule="evenodd" clip-rule="evenodd" d="M15.3264 19.6478C14.7256 19.6478 14.2383 20.1351 14.2383 20.7359V31.6168C14.2383 32.2176 14.7256 32.7048 15.3264 32.7048H32.7358C33.3366 32.7048 33.8238 32.2176 33.8238 31.6168V20.7359C33.8238 20.1351 33.3366 19.6478 32.7358 19.6478H15.3264ZM15.3264 17.4717H32.7358C34.5386 17.4717 36 18.9331 36 20.7359V31.6168C36 33.4196 34.5386 34.881 32.7358 34.881H15.3264C13.5236 34.881 12.0622 33.4196 12.0622 31.6168V20.7359C12.0622 18.9331 13.5236 17.4717 15.3264 17.4717Z" fill="#67717F"/>
<path fill-rule="evenodd" clip-rule="evenodd" d="M29.4715 33.7927C29.4715 34.3936 28.9843 34.8808 28.3834 34.8808C27.7826 34.8808 27.2953 34.3936 27.2953 33.7927V16.3834C27.2953 15.7825 26.8081 15.2953 26.2073 15.2953H21.8549C21.2541 15.2953 20.7668 15.7825 20.7668 16.3834V33.7927C20.7668 34.3936 20.2796 34.8808 19.6788 34.8808C19.0779 34.8808 18.5907 34.3936 18.5907 33.7927V16.3834C18.5907 14.5805 20.0521 13.1191 21.8549 13.1191H26.2073C28.0101 13.1191 29.4715 14.5805 29.4715 16.3834V33.7927Z" fill="#67717F"/>
</g>
<defs>
<clipPath id="clip0_54_955">
<rect width="24" height="24" fill="white" transform="translate(12 12)"/>
</clipPath>
</defs>
</svg>
