<svg width="48" height="48" viewBox="0 0 48 48" fill="none" xmlns="http://www.w3.org/2000/svg">
<circle cx="24" cy="24" r="23" fill="white" stroke="#66BB6A" stroke-width="2"/>
<path d="M27.4232 24.4129L25.2267 22.0663L26.4313 20.3797L24.2021 16.9204L13.8324 16.9206C12.822 16.9206 12 17.7428 12 18.7526V29.284C12 30.2939 12.8218 31.1161 13.8324 31.1161H27.4401L24.8249 27.2472L27.4232 24.4129ZM13.8325 29.399C13.769 29.399 13.7176 29.3472 13.7176 29.2842V18.7528C13.7176 18.6895 13.7694 18.6381 13.8325 18.6381H23.2663L24.357 20.3301L23.0122 22.2137L25.0825 24.4251L22.6436 27.0858L24.2072 29.3989L13.8325 29.399Z" fill="#67717F"/>
<path d="M34.1211 16.9214H25.6653L27.9575 20.3127L26.5893 22.2643L28.8083 24.4269L26.1741 27.0607L28.9157 31.1162H34.1214C35.1319 31.1162 35.9541 30.2947 35.9541 29.2842L35.9539 18.7533C35.9537 17.7437 35.1315 16.9215 34.121 16.9215L34.1211 16.9214ZM34.2364 29.2844C34.2364 29.3477 34.185 29.3997 34.1211 29.3997H29.8284L28.3908 27.2735L31.2529 24.4117L28.834 22.0541L30.0427 20.3297L28.8995 18.6381H34.1212C34.1854 18.6381 34.2366 18.6905 34.2366 18.7534L34.2364 29.2843L34.2364 29.2844Z" fill="#67717F"/>
<path d="M18.9247 20.0572H17.1745C16.6802 20.0572 16.4039 20.3638 16.4039 20.8282V23.4577H16.1964C15.8367 23.4577 15.5448 23.7493 15.5448 24.1083C15.5448 24.4684 15.8366 24.76 16.1964 24.76H16.4039V25.2652H16.1964C15.8367 25.2652 15.5448 25.5568 15.5448 25.9157C15.5448 26.2758 15.8366 26.5675 16.1964 26.5675H16.4039V27.2082C16.4039 27.7025 16.7198 27.9792 17.1456 27.9792C17.5702 27.9792 17.887 27.7025 17.887 27.2082V26.5675H19.4056C19.7655 26.5675 20.0573 26.2758 20.0573 25.9157C20.0573 25.5566 19.7655 25.2652 19.4056 25.2652H17.8868V24.7633H18.9841C20.3386 24.7633 21.4556 23.8632 21.4556 22.4199C21.4558 21.0066 20.3782 20.0571 18.9247 20.0571V20.0572ZM18.8955 23.4581H18.5766V23.4575L17.8868 23.4577V21.3621H18.8953C19.5177 21.3621 19.9134 21.8173 19.9134 22.4106C19.9136 23.0039 19.5176 23.4581 18.8955 23.4581L18.8955 23.4581Z" fill="#67717F"/>
</svg>
