<svg width="48" height="48" viewBox="0 0 48 48" fill="none" xmlns="http://www.w3.org/2000/svg">
<circle cx="24" cy="24" r="23" fill="white" stroke="#66BB6A" stroke-width="2"/>
<path fill-rule="evenodd" clip-rule="evenodd" d="M12.3622 17.8732C11.5512 16.9722 12.1907 15.5366 13.4028 15.5366H31.8993C34.1374 15.5366 35.9517 17.3511 35.9517 19.5893V28.4314C35.9517 30.6696 34.1374 32.4842 31.8993 32.4842H18.4517C16.2135 32.4842 14.399 30.6696 14.399 28.4314V20.1363L12.3622 17.8732ZM15.2228 17.7471L16.2501 18.8887C16.4813 19.1457 16.6093 19.4793 16.6093 19.8252V28.4317C16.6093 29.4491 17.4341 30.2739 18.4515 30.2739H31.8991C32.9165 30.2739 33.741 29.4491 33.741 28.4317V19.5896C33.741 18.5722 32.9165 17.7474 31.8991 17.7474L15.2228 17.7471ZM19.0041 21.7999C19.0041 21.1895 19.499 20.6946 20.1094 20.6946H30.425C31.0353 20.6946 31.5302 21.1895 31.5302 21.7999C31.5302 22.4102 31.0353 22.9051 30.425 22.9051H20.1094C19.499 22.9051 19.0041 22.4102 19.0041 21.7999ZM20.1094 25.1156C19.499 25.1156 19.0041 25.6105 19.0041 26.2209C19.0041 26.8313 19.499 27.3262 20.1094 27.3262H30.425C31.0353 27.3262 31.5302 26.8313 31.5302 26.2209C31.5302 25.6105 31.0353 25.1156 30.425 25.1156H20.1094Z" fill="#67717F"/>
</svg>
