<svg width="24" height="36" viewBox="0 0 24 36" fill="none" xmlns="http://www.w3.org/2000/svg">
<path fill-rule="evenodd" clip-rule="evenodd" d="M22.8504 15.5075L6.71152 1.03254C5.17271 -0.344181 2.68259 -0.344181 1.14847 1.03254C-0.382824 2.40925 -0.382824 4.64252 1.14847 6.01839L14.5077 18.0004L1.15223 29.9791C-0.382824 31.3558 -0.382824 33.5882 1.15223 34.9649C2.68635 36.345 5.17647 36.345 6.71152 34.9649L22.8504 20.49C23.6184 19.802 24 18.9025 24 18.0004C24 17.0983 23.6184 16.1921 22.8504 15.5075Z" fill="#67717F"/>
<mask id="mask0_54_785" style="mask-type:alpha" maskUnits="userSpaceOnUse" x="0" y="0" width="24" height="36">
<path fill-rule="evenodd" clip-rule="evenodd" d="M22.8504 15.5075L6.71152 1.03254C5.17271 -0.344181 2.68259 -0.344181 1.14847 1.03254C-0.382824 2.40925 -0.382824 4.64252 1.14847 6.01839L14.5077 18.0004L1.15223 29.9791C-0.382824 31.3558 -0.382824 33.5882 1.15223 34.9649C2.68635 36.345 5.17647 36.345 6.71152 34.9649L22.8504 20.49C23.6184 19.802 24 18.9025 24 18.0004C24 17.0983 23.6184 16.1921 22.8504 15.5075Z" fill="white"/>
</mask>
<g mask="url(#mask0_54_785)">
<rect width="32" height="44" rx="16" transform="matrix(-1 0 0 1 28 -4)" fill="#67717F"/>
</g>
</svg>
