<svg width="16" height="16" viewBox="0 0 16 16" fill="none" xmlns="http://www.w3.org/2000/svg">
<path fill-rule="evenodd" clip-rule="evenodd" d="M2.17738 0.84668C1.2452 0.84668 0.452912 1.44541 0.163971 2.27939C0.0897078 2.40291 0.0470581 2.54777 0.0470581 2.70236V12.1014C0.0470581 13.7691 1.39906 15.1211 3.06673 15.1211H12.9491C14.6168 15.1211 15.9688 13.7691 15.9688 12.1014V6.47978C15.9688 5.09229 15.0329 3.92335 13.7583 3.56966C13.6092 2.04119 12.3206 0.846694 10.7529 0.846694L2.17738 0.84668ZM1.69409 12.1017V5.05233C1.84942 5.08817 2.01119 5.10729 2.17738 5.10729H12.9491C13.7072 5.10729 14.3218 5.72183 14.3218 6.4799V12.1016C14.3218 12.8596 13.7072 13.4742 12.9491 13.4742H3.06679C2.30872 13.4742 1.69418 12.8596 1.69418 12.1016L1.69409 12.1017ZM2.17738 3.46033H12.0644C11.8913 2.90056 11.3696 2.49397 10.7531 2.49397H2.17752C1.91061 2.49397 1.69423 2.71034 1.69423 2.97727C1.69423 3.244 1.91059 3.46037 2.17752 3.46037L2.17738 3.46033ZM9.65503 7.98423C9.20025 7.98423 8.8315 8.35298 8.8315 8.80776C8.8315 9.26254 9.20025 9.63129 9.65503 9.63129H11.8512C12.306 9.63129 12.6747 9.26254 12.6747 8.80776C12.6747 8.35298 12.306 7.98423 11.8512 7.98423H9.65503Z" fill="#434343"/>
</svg>
