<svg width="12" height="12" viewBox="0 0 12 12" fill="none" xmlns="http://www.w3.org/2000/svg">
<path fill-rule="evenodd" clip-rule="evenodd" d="M5.36597 1.31076C3.12655 1.31076 1.31085 3.12631 1.31085 5.36588C1.31085 7.60531 3.1264 9.42064 5.36597 9.42064C7.6054 9.42064 9.42073 7.60524 9.42073 5.36588C9.42073 3.12646 7.60533 1.31076 5.36597 1.31076ZM0.0303618 5.36588C0.0303618 2.41919 2.41913 0.0302734 5.36597 0.0302734C8.31252 0.0302734 10.7012 2.41904 10.7012 5.36588C10.7012 6.60836 10.2765 7.7518 9.56422 8.65871L11.7942 10.8887C12.0442 11.1388 12.0442 11.5441 11.7942 11.7942C11.5441 12.0441 11.1388 12.0441 10.8887 11.7942L8.65873 9.5642C7.75181 10.2765 6.60837 10.7012 5.3659 10.7012C2.4192 10.7012 0.0302887 8.31243 0.0302887 5.36596L0.0303618 5.36588ZM6.00622 3.23164C6.00622 2.87807 5.71954 2.5914 5.36597 2.5914C5.01241 2.5914 4.72573 2.87807 4.72573 3.23164V4.72564H3.23173C2.87816 4.72564 2.59148 5.01232 2.59148 5.36588C2.59148 5.71945 2.87816 6.00613 3.23173 6.00613H4.72573V7.49998C4.72573 7.85355 5.01241 8.14022 5.36597 8.14022C5.71954 8.14022 6.00622 7.85355 6.00622 7.49998V6.00613H7.50007C7.85363 6.00613 8.14031 5.71945 8.14031 5.36588C8.14031 5.01232 7.85363 4.72564 7.50007 4.72564H6.00622V3.23164Z" fill="#4A90E2"/>
</svg>
