<svg width="9" height="7" viewBox="0 0 9 7" fill="none" xmlns="http://www.w3.org/2000/svg">
<path fill-rule="evenodd" clip-rule="evenodd" d="M3.87687 6.22431L0.258134 2.1896C-0.0860453 1.8049 -0.0860453 1.18237 0.258134 0.798837C0.602313 0.416013 1.16063 0.416013 1.5046 0.798837L4.50011 4.13863L7.49477 0.799777C7.83895 0.416013 8.39705 0.416013 8.74123 0.799777C9.08626 1.18331 9.08626 1.80584 8.74123 2.1896L5.12249 6.22431C4.95051 6.41631 4.72562 6.51172 4.50011 6.51172C4.27459 6.51172 4.04802 6.41631 3.87687 6.22431Z" fill="#67717F"/>
<mask id="mask0" mask-type="alpha" maskUnits="userSpaceOnUse" x="0" y="0" width="9" height="7">
<path fill-rule="evenodd" clip-rule="evenodd" d="M3.87687 6.22431L0.258134 2.1896C-0.0860453 1.8049 -0.0860453 1.18237 0.258134 0.798837C0.602313 0.416013 1.16063 0.416013 1.5046 0.798837L4.50011 4.13863L7.49477 0.799777C7.83895 0.416013 8.39705 0.416013 8.74123 0.799777C9.08626 1.18331 9.08626 1.80584 8.74123 2.1896L5.12249 6.22431C4.95051 6.41631 4.72562 6.51172 4.50011 6.51172C4.27459 6.51172 4.04802 6.41631 3.87687 6.22431Z" fill="white"/>
</mask>
<g mask="url(#mask0)">
<rect x="-1" y="-0.488281" width="11" height="8" rx="4" fill="#4A90E2"/>
</g>
</svg>
