<svg width="22" height="19" viewBox="0 0 22 19" fill="none" xmlns="http://www.w3.org/2000/svg">
<path fill-rule="evenodd" clip-rule="evenodd" d="M21.6632 2.64808C20.8695 3.00008 20.0098 3.24378 19.1112 3.35039C20.0302 2.80039 20.7308 1.92885 21.0675 0.889776C20.2078 1.39916 19.2568 1.76978 18.238 1.96778C17.4325 1.10808 16.2749 0.566546 14.9989 0.566546C12.5468 0.566546 10.5566 2.5567 10.5566 5.00885C10.5566 5.35916 10.5972 5.69593 10.67 6.02085C6.974 5.8347 3.70277 4.06962 1.50785 1.37885C1.12369 2.03378 0.905385 2.80039 0.905385 3.61439C0.905385 5.15439 1.69231 6.5167 2.882 7.3087C2.15431 7.29008 1.474 7.08532 0.873231 6.75362V6.80778C0.873231 8.96208 2.40646 10.7593 4.43554 11.1705C4.06492 11.2687 3.66892 11.3212 3.26615 11.3212C2.98185 11.3212 2.70431 11.2958 2.42677 11.2433C2.99538 13.0084 4.63354 14.2895 6.578 14.3301C5.05662 15.5198 3.13923 16.2272 1.05769 16.2272C0.700615 16.2272 0.350308 16.2069 0 16.1679C1.96985 17.4304 4.30354 18.1632 6.81492 18.1632C14.9854 18.1632 19.4548 11.3939 19.4548 5.52501L19.4412 4.94962C20.3145 4.32178 21.0675 3.54162 21.6632 2.64808Z" fill="white"/>
</svg>
