<svg width="23" height="19" viewBox="0 0 23 19" fill="none" xmlns="http://www.w3.org/2000/svg">
<path fill-rule="evenodd" clip-rule="evenodd" d="M9.20436 8.52568H17.2581V11.2104C16.4586 15.1489 12.8037 18.1136 8.62903 18.1136C3.86348 18.1136 0 14.2501 0 9.48449C0 4.71872 3.86348 0.855469 8.62903 0.855469C10.9803 0.855469 13.1111 1.79622 14.6675 3.32122L12.7189 5.43933C11.6761 4.38519 10.229 3.73173 8.62903 3.73173C5.45186 3.73173 2.87627 6.30733 2.87627 9.48449C2.87627 12.6615 5.45186 15.2371 8.62903 15.2371C11.205 15.2371 13.385 13.5442 14.1179 11.2102H9.20436V8.52568ZM20.8406 8.52035H22.4881V9.93237H20.8406V11.5799H19.4286V9.93237H17.7812V8.52035H19.4286V6.87305H20.8406V8.52035Z" fill="white"/>
</svg>
