<svg width="198" height="21" viewBox="0 0 198 21" fill="none" xmlns="http://www.w3.org/2000/svg">
<path d="M4.93053 0.767967C4.60653 5.70897 4.79553 12.891 2.33853 14.052C1.79853 14.376 1.12353 14.43 0.448531 14.214V19.614C1.33953 19.884 2.28453 20.019 3.28353 20.019C9.00753 20.019 10.1145 13.026 10.6275 6.22197H13.2465V19.668H19.4835V0.767967H4.93053ZM40.0782 19.668V0.767967H34.8132L28.4142 9.65097C28.5492 8.51697 28.5762 7.43697 28.5762 6.41097V0.767967H22.3392V19.668H27.6042L34.0032 10.812C33.8682 11.946 33.8412 12.999 33.8412 13.998V19.668H40.0782ZM49.169 19.668V6.22197H57.107V0.767967H42.932V19.668H49.169ZM60.7634 19.668L61.6004 17.157H68.1344L68.9444 19.668H75.2624L68.2154 0.767967H61.5194L54.4454 19.668H60.7634ZM64.3544 8.62497C64.5434 7.92297 64.7324 7.16697 64.8674 6.19497C65.0024 7.16697 65.1914 7.92297 65.4074 8.62497L66.7304 12.648H63.0314L64.3544 8.62497Z" fill="white"/>
<path d="M87.7442 7.54497V5.76297H96.4382V0.767967H81.5072V19.668H90.7682C94.4402 19.668 98.0312 18.507 98.0312 13.62C98.0312 8.70597 94.4402 7.54497 90.7682 7.54497H87.7442ZM87.7442 15.132V12.081H89.9852C91.0652 12.081 91.8482 12.405 91.8482 13.62C91.8482 14.835 91.0652 15.132 89.9852 15.132H87.7442ZM104.058 19.668L104.895 17.157H111.429L112.239 19.668H118.557L111.51 0.767967H104.814L97.7403 19.668H104.058ZM107.649 8.62497C107.838 7.92297 108.027 7.16697 108.162 6.19497C108.297 7.16697 108.486 7.92297 108.702 8.62497L110.025 12.648H106.326L107.649 8.62497ZM131.265 0.767967V7.49097H126.135V0.767967H119.898V19.668H126.135V12.945H131.265V19.668H137.475V0.767967H131.265ZM146.569 19.668V12.918H148L152.023 19.668H158.881L153.022 10.137L158.773 0.767967H151.915L148.135 7.46397H146.569V0.767967H140.332V19.668H146.569ZM158.138 10.218C158.138 15.645 161.567 20.1 168.371 20.1C175.175 20.1 178.604 15.645 178.604 10.218C178.604 4.79097 175.175 0.335968 168.371 0.335968C161.567 0.335968 158.138 4.79097 158.138 10.218ZM172.205 10.218C172.205 12.81 170.801 14.457 168.371 14.457C165.941 14.457 164.537 12.81 164.537 10.218C164.537 7.62597 165.941 5.97897 168.371 5.97897C170.801 5.97897 172.205 7.62597 172.205 10.218ZM180.674 0.767967V19.668H189.881C193.85 19.668 197.576 18.561 197.576 14.268C197.576 11.838 196.334 10.299 194.12 9.62397C196.064 8.86797 196.82 7.49097 196.82 5.54697C196.82 2.25297 194.39 0.767967 190.124 0.767967H180.674ZM191.366 13.539C191.366 14.538 190.745 15.078 189.557 15.078H186.911V12H189.557C190.745 12 191.366 12.54 191.366 13.539ZM190.826 6.76197C190.826 7.51797 190.313 8.16597 189.26 8.16597L186.911 8.13897V5.35797H189.26C190.313 5.35797 190.826 5.97897 190.826 6.76197Z" fill="#4A90E2"/>
</svg>
