<svg width="48" height="48" viewBox="0 0 48 48" fill="none" xmlns="http://www.w3.org/2000/svg">
<path d="M47 24C47 36.7025 36.7025 47 24 47C11.2975 47 1 36.7025 1 24C1 11.2975 11.2975 1 24 1C36.7025 1 47 11.2975 47 24Z" stroke="#66BB6A" stroke-width="2"/>
<path d="M32.9529 28.9944H14.993C14.3944 28.9944 13.9952 28.5954 13.9952 27.9965V15.7239C13.9952 15.1253 14.3942 14.7261 14.993 14.7261H32.9529C33.5515 14.7261 33.9508 15.1251 33.9508 15.7239V27.9965C33.9508 28.5951 33.5516 28.9942 32.9529 28.9942V28.9944ZM15.991 26.9989H31.955V16.7217H15.991V26.9989Z" fill="#67717F"/>
<path d="M30.6582 33.285H17.2882C14.3947 33.285 12 30.8903 12 27.9967C12 27.3981 12.399 26.9989 12.9978 26.9989H34.949C35.5476 26.9989 35.9469 27.3979 35.9469 27.9967C35.9467 30.8903 33.5519 33.285 30.6584 33.285H30.6582ZM14.195 28.9944C14.594 30.2914 15.8912 31.2893 17.2881 31.2893H30.658C32.1547 31.2893 33.3519 30.2914 33.7512 28.9944H14.195Z" fill="#67717F"/>
<path d="M23.9729 31.0902C23.3743 31.0902 22.9751 30.6912 22.9751 30.0924C22.9751 29.4938 23.3741 29.0945 23.9729 29.0945C24.5716 29.0945 24.9708 29.4936 24.9708 30.0924C24.9708 30.691 24.4718 31.0902 23.9729 31.0902Z" fill="#67717F"/>
</svg>
