<svg width="48" height="48" viewBox="0 0 48 48" fill="none" xmlns="http://www.w3.org/2000/svg">
<path d="M47 24C47 36.7025 36.7025 47 24 47C11.2975 47 1 36.7025 1 24C1 11.2975 11.2975 1 24 1C36.7025 1 47 11.2975 47 24Z" stroke="#66BB6A" stroke-width="2"/>
<path fill-rule="evenodd" clip-rule="evenodd" d="M33.3518 15.1282L23.9667 12L14.5817 15.1282C13.9898 15.3255 13.5824 15.8796 13.5824 16.5136V21.6776C13.5824 27.4471 16.0766 31.0271 18.613 33.1409C19.8668 34.1856 21.1174 34.8626 22.0562 35.2799C22.5265 35.489 22.9222 35.6343 23.2055 35.7288C23.3474 35.7762 23.4615 35.8107 23.5431 35.8344C23.5841 35.8462 23.6168 35.8552 23.641 35.8617L23.6709 35.8694L23.6807 35.8722L23.6858 35.8733L23.9671 35.9436L24.2483 35.8733L24.2535 35.8722L24.2633 35.8694L24.2931 35.8617C24.3173 35.8552 24.35 35.8462 24.391 35.8344C24.4726 35.8107 24.5867 35.7762 24.7287 35.7288C25.012 35.6343 25.4076 35.489 25.8779 35.2799C26.8167 34.8626 28.0674 34.1855 29.3212 33.1409C31.8576 31.0271 34.3517 27.4469 34.3517 21.6776V16.5149C34.3517 15.8857 33.9485 15.3273 33.3518 15.1282ZM23.9984 33.5397L23.9667 33.55L23.935 33.5397C23.7135 33.4657 23.388 33.3468 22.9929 33.1711C22.2009 32.819 21.1439 32.2465 20.09 31.3679C18.0111 29.6357 15.8898 26.6773 15.8898 21.6776V17.1248L23.9668 14.4323L32.0437 17.1248V21.6776C32.0437 26.6775 29.9224 29.6359 27.8435 31.3679C26.7896 32.2465 25.7325 32.819 24.9406 33.1711C24.5455 33.3468 24.2199 33.4658 23.9984 33.5397Z" fill="#67717F"/>
</svg>
