<svg width="28" height="28" viewBox="0 0 28 28" fill="none" xmlns="http://www.w3.org/2000/svg">
<path fill-rule="evenodd" clip-rule="evenodd" d="M17.4036 4.39285C15.0382 3.35396 12.3724 3.22628 9.91889 4.03487C7.46511 4.84375 5.39763 6.53131 4.11376 8.77303C2.8299 11.0151 2.42074 13.6523 2.96491 16.1777C3.50904 18.7034 4.96843 20.9381 7.06141 22.4522C9.15478 23.9661 11.7337 24.6525 14.3027 24.3789C16.8717 24.105 19.2484 22.891 20.9758 20.9697C22.703 19.0488 23.6587 16.5566 23.6587 13.9734C23.6587 13.2196 24.2699 12.6085 25.0236 12.6085C25.7774 12.6085 26.3885 13.2196 26.3885 13.9734C26.3885 17.2309 25.1836 20.3729 23.0055 22.7953C20.8277 25.2178 17.831 26.7484 14.5922 27.0935C11.3531 27.4384 8.101 26.5732 5.46143 24.6642C2.8221 22.7554 0.98221 19.9375 0.296093 16.7532C-0.390016 13.5691 0.125785 10.2434 1.74445 7.41725C3.36346 4.59058 5.9705 2.4625 9.06407 1.44304C12.1576 0.423336 15.519 0.58416 18.5014 1.89425C21.0292 3.00504 23.1333 4.8748 24.5329 7.22649C24.7729 7.07965 24.9865 6.95046 25.169 6.84109C25.3905 6.70826 25.566 6.60436 25.6866 6.53338L25.8259 6.45173L25.8627 6.4304L25.8752 6.42309C26.5281 6.04622 27.3641 6.26893 27.741 6.92182C28.1182 7.57472 27.8946 8.40918 27.242 8.78636L27.2322 8.79184L27.1999 8.81073L27.0701 8.8866C26.9559 8.95362 26.7877 9.05325 26.5735 9.18182C26.1455 9.43866 25.5358 9.81004 24.8135 10.2658C23.366 11.1792 21.4802 12.4231 19.7006 13.7578C16.7831 15.9457 13.8775 18.8345 12.9422 19.7872C12.1772 20.5662 10.9113 20.4453 10.2913 19.58C10.0354 19.2223 9.57079 18.5826 8.86091 17.6362C8.31159 16.9041 7.64381 16.1675 7.10026 15.6036C6.83124 15.3242 6.59817 15.0926 6.43304 14.9318C6.35078 14.8516 6.28559 14.7895 6.24202 14.7477L6.19297 14.7014L6.18139 14.6905L6.17926 14.6886C5.62751 14.1747 5.59673 13.3113 6.1104 12.7595C6.62407 12.2078 7.48779 12.177 8.03921 12.6907L8.04164 12.6928L8.04652 12.6974L8.06327 12.7129L8.12299 12.7696C8.17417 12.818 8.2473 12.8881 8.33808 12.9767C8.51966 13.1538 8.77375 13.4057 9.06623 13.7092C9.64601 14.3112 10.3998 15.1383 11.0447 15.9985C11.346 16.4003 11.6044 16.7485 11.8228 17.0453C13.1887 15.6996 15.6049 13.4173 18.0627 11.5741C19.4788 10.5121 20.9485 9.51275 22.2229 8.68375C21.1133 6.78965 19.4303 5.28397 17.4037 4.39343" fill="#4A90E2"/>
</svg>
