<svg width="48" height="48" viewBox="0 0 48 48" fill="none" xmlns="http://www.w3.org/2000/svg">
<path d="M47 24C47 36.7025 36.7025 47 24 47C11.2975 47 1 36.7025 1 24C1 11.2975 11.2975 1 24 1C36.7025 1 47 11.2975 47 24Z" stroke="#66BB6A" stroke-width="2"/>
<path fill-rule="evenodd" clip-rule="evenodd" d="M26.9174 15.7653C24.8899 14.8749 22.6049 14.7654 20.5019 15.4585C18.3987 16.1518 16.6265 17.5983 15.5261 19.5198C14.4256 21.4415 14.0749 23.702 14.5413 25.8666C15.0078 28.0315 16.2587 29.9469 18.0526 31.2448C19.847 32.5424 22.0575 33.1308 24.2595 32.8963C26.4615 32.6615 28.4986 31.6208 29.9793 29.9741C31.4597 28.3276 32.2789 26.1914 32.2789 23.9772C32.2789 23.3311 32.8027 22.8073 33.4488 22.8073C34.0949 22.8073 34.6187 23.3311 34.6187 23.9772C34.6187 26.7694 33.5859 29.4625 31.719 31.5389C29.8523 33.6153 27.2837 34.9272 24.5076 35.2231C21.7312 35.5187 18.9437 34.777 16.6812 33.1407C14.4189 31.5047 12.8419 29.0893 12.2538 26.3599C11.6657 23.6307 12.1078 20.7801 13.4952 18.3577C14.883 15.9348 17.1176 14.1107 19.7692 13.2369C22.4208 12.3629 25.302 12.5007 27.8583 13.6237C30.025 14.5758 31.8285 16.1784 33.0282 18.1942C33.2339 18.0683 33.417 17.9576 33.5734 17.8638C33.7633 17.75 33.9137 17.6609 34.0171 17.6001L34.1365 17.5301L34.1681 17.5118L34.1788 17.5055C34.7384 17.1825 35.455 17.3734 35.778 17.933C36.1013 18.4926 35.9096 19.2079 35.3503 19.5312L35.3419 19.5359L35.3142 19.5521L35.203 19.6171C35.105 19.6746 34.9609 19.76 34.7773 19.8702C34.4104 20.0903 33.8878 20.4086 33.2687 20.7993C32.028 21.5822 30.4116 22.6484 28.8862 23.7925C26.3855 25.6677 23.895 28.1439 23.0933 28.9605C22.4376 29.6282 21.3525 29.5245 20.8211 28.7829C20.6018 28.4763 20.2035 27.9279 19.5951 27.1168C19.1242 26.4893 18.5518 25.8578 18.0859 25.3745C17.8554 25.135 17.6556 24.9366 17.514 24.7987C17.4435 24.73 17.3876 24.6767 17.3503 24.6409L17.3083 24.6013L17.2983 24.5919L17.2965 24.5903C16.8236 24.1497 16.7972 23.4097 17.2375 22.9368C17.6778 22.4638 18.4181 22.4375 18.8907 22.8777L18.8928 22.8796L18.897 22.8835L18.9114 22.8968L18.9626 22.9454C19.0064 22.9869 19.0691 23.047 19.1469 23.123C19.3026 23.2747 19.5204 23.4906 19.7711 23.7507C20.268 24.2668 20.9141 24.9757 21.4669 25.713C21.7252 26.0574 21.9466 26.3559 22.1339 26.6103C23.3046 25.4568 25.3757 23.5006 27.4823 21.9207C28.6961 21.0104 29.9559 20.1538 31.0482 19.4432C30.0971 17.8197 28.6546 16.5291 26.9175 15.7658" fill="#67717F"/>
</svg>
