<svg width="48" height="48" viewBox="0 0 48 48" fill="none" xmlns="http://www.w3.org/2000/svg">
<path d="M47 24C47 36.7025 36.7025 47 24 47C11.2975 47 1 36.7025 1 24C1 11.2975 11.2975 1 24 1C36.7025 1 47 11.2975 47 24Z" stroke="#66BB6A" stroke-width="2"/>
<path d="M13.7096 33.7423H34.3467V35.9519H13.7096V33.7423Z" fill="#67717F"/>
<path d="M33.605 26.0001H28.7554C28.1438 25.4893 27.7652 24.7526 27.7064 23.9577C27.6477 23.1631 27.9134 22.3783 28.4434 21.7834L28.5784 21.6399C29.5249 20.4818 29.9965 19.0079 29.8982 17.5154C29.7999 16.023 29.1386 14.6236 28.0483 13.5997C26.9581 12.5761 25.5197 12.0043 24.0241 12C22.4936 12.004 21.0244 12.602 19.9265 13.668C18.8284 14.7343 18.1873 16.1851 18.1382 17.7147C18.0894 19.2444 18.6363 20.7334 19.6639 21.8674C20.1713 22.4542 20.4266 23.2172 20.3746 23.9909C20.3224 24.7649 19.9671 25.4869 19.3854 26H14.4432C13.8573 25.9955 13.2934 26.224 12.876 26.6354C12.4584 27.0465 12.2212 27.6068 12.2169 28.1927V30.4108C12.2169 30.997 12.4496 31.559 12.8641 31.9732C13.2784 32.3877 13.8403 32.6204 14.4265 32.6204H33.6048C34.1908 32.6249 34.7547 32.3965 35.1721 31.9853C35.5897 31.5739 35.8269 31.0137 35.8311 30.4277V28.1927C35.8269 27.6068 35.5897 27.0466 35.1721 26.6354C34.7547 26.2239 34.1908 25.9955 33.6048 26L33.605 26.0001ZM33.605 30.4278H14.4434V28.1928H20.0941L20.2796 28.0748C20.6314 27.8316 20.9542 27.5487 21.2411 27.2316C22.1133 26.2782 22.5951 25.0318 22.5906 23.7399C22.5991 22.5528 22.1902 21.4005 21.4351 20.4844L21.3507 20.3833V20.3412L21.2832 20.2738C20.6648 19.5531 20.3479 18.6216 20.3996 17.6733C20.451 16.7248 20.8664 15.833 21.5593 15.1836C22.2523 14.5344 23.1692 14.1775 24.1188 14.1877C25.0685 14.1978 25.9777 14.574 26.6565 15.2381C27.3354 15.902 27.7318 16.8025 27.7632 17.7516C27.7945 18.701 27.4579 19.6255 26.8243 20.3328C26.0125 21.2695 25.5635 22.4665 25.5592 23.7061C25.5564 24.6191 25.7981 25.5159 26.2593 26.3038C26.4445 26.6785 26.6738 27.0295 26.9423 27.3497L27.0688 27.4762L27.2459 27.6363C27.4837 27.8408 27.7406 28.0215 28.0134 28.1762H33.546L33.605 30.4278Z" fill="#67717F"/>
<path d="M21.308 20.3919L21.291 20.3665L21.308 20.3919Z" fill="#67717F"/>
</svg>
