<svg width="48" height="48" viewBox="0 0 48 48" fill="none" xmlns="http://www.w3.org/2000/svg">
<path d="M47 24C47 36.7025 36.7025 47 24 47C11.2975 47 1 36.7025 1 24C1 11.2975 11.2975 1 24 1C36.7025 1 47 11.2975 47 24Z" stroke="#66BB6A" stroke-width="2"/>
<path fill-rule="evenodd" clip-rule="evenodd" d="M24.0359 14.6342C21.9146 14.6342 20.1945 16.3543 20.1945 18.4756C20.1945 20.5973 21.9146 22.3171 24.0359 22.3171C26.1573 22.3171 27.8774 20.5973 27.8774 18.4756C27.8774 16.3543 26.1573 14.6342 24.0359 14.6342ZM17.6335 18.4756C17.6335 14.9397 20.5 12.0732 24.0359 12.0732C27.5718 12.0732 30.4384 14.9397 30.4384 18.4756C30.4384 20.483 29.5149 22.2742 28.0695 23.4481C32.3685 24.4927 35.5607 28.3676 35.5607 32.9881V33.8415C35.5607 35.0203 34.6052 35.9758 33.4265 35.9758H14.6465C13.4677 35.9758 12.5122 35.0203 12.5122 33.8415V32.9881C12.5122 28.3677 15.704 24.493 20.0034 23.4481C18.558 22.2742 17.6345 20.483 17.6345 18.4756H17.6335ZM22.3287 25.7318C18.3212 25.7318 15.0725 28.9804 15.0725 32.988V33.4147H32.9994V32.988C32.9994 28.9804 29.7507 25.7318 25.7432 25.7318H22.3287Z" fill="#67717F"/>
</svg>
