<svg width="48" height="48" viewBox="0 0 48 48" fill="none" xmlns="http://www.w3.org/2000/svg">
<path d="M47 24C47 36.7025 36.7025 47 24 47C11.2975 47 1 36.7025 1 24C1 11.2975 11.2975 1 24 1C36.7025 1 47 11.2975 47 24Z" stroke="#66BB6A" stroke-width="2"/>
<path fill-rule="evenodd" clip-rule="evenodd" d="M15.8783 33.4145V14.6344H32.0974V26.5854H27.4024C26.2237 26.5854 25.2682 27.541 25.2682 28.7197V33.4146L15.8783 33.4145ZM27.8293 31.6035L30.2865 29.1463H27.8293V31.6035ZM13.3174 33.8415C13.3174 35.0202 14.2729 35.9754 15.4513 35.9754H27.0796L34.6586 28.3964V14.2071C34.6586 13.0287 33.7034 12.0732 32.5247 12.0732H15.451C14.2726 12.0732 13.3171 13.0287 13.3171 14.2071L13.3174 33.8415Z" fill="#67717F"/>
<path d="M27.5521 19.4343C27.26 19.1556 26.8718 19 26.468 19C26.0642 19 25.676 19.1556 25.384 19.4343L20.5159 24.3112C20.4609 24.3674 20.4234 24.4384 20.4079 24.5155L20.0079 26.5192C19.9816 26.6512 20.022 26.7877 20.1159 26.884C20.1914 26.9585 20.2934 27.0003 20.3995 27C20.4264 26.9993 20.4531 26.9967 20.4796 26.992L22.4798 26.5921C22.5568 26.5764 22.6277 26.5388 22.6837 26.4836L27.552 21.6065C27.8389 21.3179 28 20.9275 28 20.5204C28 20.1135 27.8391 19.723 27.5521 19.4343Z" fill="#67717F"/>
</svg>
