<svg width="228" height="36" viewBox="0 0 228 36" fill="none" xmlns="http://www.w3.org/2000/svg">
<path fill-rule="evenodd" clip-rule="evenodd" d="M6.12062 7.82031H22.5062V28.237H15.4838V13.712H12.535C11.9574 21.062 10.711 28.6161 4.26622 28.6161C3.14142 28.6161 2.07742 28.4703 1.07422 28.1786V22.3453C1.83422 22.5786 2.59422 22.5203 3.20222 22.1703C5.96862 20.9161 5.75582 13.1578 6.12062 7.82031ZM45.7014 28.237H38.679V22.112C38.679 21.0328 38.7094 19.8953 38.8614 18.6703L31.6566 28.237H25.7286V7.82031H32.751V13.9161C32.751 15.0245 32.7206 16.1911 32.5686 17.4161L39.7734 7.82031H45.7014V28.237ZM55.9462 28.237H48.9238V7.82031H64.8838V13.712H55.9462V28.237ZM72.2102 28.237H65.0966L73.0614 7.82031H80.6006L88.535 28.237H81.4214L80.5094 25.5245H73.1526L72.2102 28.237ZM76.2534 16.3078L74.7638 20.6536H78.9286L77.439 16.3078C77.1958 15.5495 76.983 14.7328 76.831 13.6828C76.679 14.7328 76.4662 15.5495 76.2534 16.3078Z" fill="#67717F"/>
<path fill-rule="evenodd" clip-rule="evenodd" d="M98.8203 15.141H102.225C106.359 15.141 110.403 16.3952 110.403 21.7035C110.403 26.9827 106.359 28.2368 102.225 28.2368H91.7979V7.82018H108.609V13.216H98.8203V15.141ZM98.8202 23.3368H101.343C102.559 23.3368 103.441 23.016 103.441 21.7035C103.441 20.391 102.559 20.041 101.343 20.041H98.8202V23.3368ZM117.972 28.2368H110.859L118.823 7.82018H126.363L134.297 28.2368H127.183L126.271 25.5243H118.915L117.972 28.2368ZM122.015 16.3077L120.526 20.6535H124.691L123.201 16.3077C122.958 15.5493 122.745 14.7327 122.593 13.6827C122.441 14.7327 122.228 15.5493 122.015 16.3077ZM148.615 7.82018H155.607V28.2368H148.615V20.9743H142.839V28.2368H135.817V7.82018H142.839V15.0827H148.615V7.82018ZM165.852 28.2368H158.83V7.82018H165.852V15.0535H167.615L171.871 7.82018H179.593L173.118 17.941L179.715 28.2368H171.993L167.463 20.9452H165.852V28.2368ZM180.079 18.0285C180.079 12.166 183.94 7.35352 191.601 7.35352C199.262 7.35352 203.123 12.166 203.123 18.0285C203.123 23.891 199.262 28.7035 191.601 28.7035C183.94 28.7035 180.079 23.891 180.079 18.0285ZM195.918 18.0285C195.918 15.2285 194.337 13.4493 191.601 13.4493C188.865 13.4493 187.284 15.2285 187.284 18.0285C187.284 20.8285 188.865 22.6077 191.601 22.6077C194.337 22.6077 195.918 20.8285 195.918 18.0285ZM205.463 7.82018H216.103C220.907 7.82018 223.643 9.42435 223.643 12.9827C223.643 15.0827 222.791 16.5702 220.603 17.3868C223.095 18.116 224.494 19.7785 224.494 22.4035C224.494 27.041 220.299 28.2368 215.83 28.2368H205.463V7.82018ZM217.502 21.616C217.502 20.5368 216.803 19.9535 215.465 19.9535H212.486V23.2785H215.465C216.803 23.2785 217.502 22.6952 217.502 21.616ZM216.894 14.2952C216.894 13.4493 216.316 12.7785 215.131 12.7785H212.486V15.7827L215.131 15.8118C216.316 15.8118 216.894 15.1118 216.894 14.2952Z" fill="#4A90E2"/>
</svg>
