<svg width="36" height="36" viewBox="0 0 36 36" fill="none" xmlns="http://www.w3.org/2000/svg">
<circle cx="18" cy="18" r="17" stroke="#4A90E2" stroke-width="2"/>
<path fill-rule="evenodd" clip-rule="evenodd" d="M22.3584 14.0591C21.9849 13.7317 21.4478 13.7391 21.1396 13.8343C21.3415 13.5864 21.8117 13.3831 21.9503 13.3584C22.0558 13.398 22.3584 13.7089 22.3584 14.0591L22.3584 14.0591ZM23.5509 12.7032C23.3053 11.3893 20.2518 12.2599 18.714 11.7018C18.6845 12.0848 19.1874 12.6985 19.6684 12.9257C18.8462 13.6392 18.108 15.0769 17.9591 16.8334C17.8106 15.0769 17.0724 13.6392 16.2502 12.9257C16.7312 12.6985 17.2345 12.0848 17.2046 11.7018C15.6669 12.2599 12.6133 11.3893 12.3673 12.7032C12.3155 12.9812 12.4493 13.405 12.5938 13.5269C12.6197 13.4387 12.7547 13.1505 13.1803 13.0858C15.3316 12.7608 17.1277 16.0764 15.5065 17.417C15.4818 17.4373 15.4956 17.475 15.5291 17.475H20.3898C20.4229 17.475 20.4369 17.4373 20.4126 17.417C18.7908 16.0764 20.587 12.7608 22.7382 13.0858C23.1643 13.1505 23.2988 13.4387 23.3247 13.5268C23.4693 13.405 23.603 12.9813 23.5509 12.7032V12.7032ZM24.0741 9.6876C24.0355 9.56347 25.2969 9.56036 25.2969 10.3499C25.2969 10.879 24.5424 11.1296 24.5424 11.6787C24.5424 11.9344 24.8175 12.122 24.9019 12.122C24.7076 11.2405 25.5111 11.7018 25.7281 11.8667C25.2969 10.6811 26.2677 10.6886 26.1721 10.145C26.1056 9.76514 25.2619 9.87991 24.9565 9.6876C24.4146 9.3465 23.7736 8.01922 23.3511 9.3465C24.1387 10.0777 23.6804 11.1539 22.6806 11.1539C22.6806 11.1539 22.675 11.3117 22.6842 11.3242C23.8767 11.2659 24.2924 10.3894 24.0742 9.6876H24.0741ZM10.1614 11.8667C10.3785 11.7018 11.1819 11.2405 10.9881 12.122C11.072 12.122 11.3472 11.9344 11.3472 11.6787C11.3472 11.1296 10.5926 10.879 10.5926 10.3499C10.5926 9.56033 11.8541 9.56347 11.8154 9.6876C11.5976 10.3894 12.0134 11.2659 13.2058 11.3242C13.2146 11.3117 13.209 11.1539 13.209 11.1539C12.2096 11.1539 11.7513 10.0776 12.5385 9.3465C12.116 8.01922 11.475 9.3465 10.9331 9.6876C10.6277 9.87995 9.78399 9.76514 9.71749 10.145C9.62229 10.6886 10.5926 10.6812 10.1614 11.8667H10.1614ZM13.5474 14.0591C13.9213 13.7316 14.4584 13.7391 14.7663 13.8342C14.5652 13.5863 14.0942 13.383 13.956 13.3584C13.8504 13.3979 13.5475 13.7089 13.5475 14.059L13.5474 14.0591ZM18.5265 6.70916L17.9448 5.9999L17.3631 6.70916L17.9448 7.45561L18.5266 6.70916H18.5265ZM21.8472 8.8538L21.4335 8.34973L21.0202 8.8538L21.4335 9.34646L21.8472 8.85376V8.8538ZM25.2025 23.4235L24.6781 22.8685L24.1537 23.4235L24.6781 23.9102L25.2025 23.4234V23.4235ZM14.8697 8.85373L14.456 8.34965L14.0427 8.85373L14.456 9.34642L14.8697 8.85373H14.8697ZM13.6848 11.3242H15.2277C16.5249 11.3242 17.1086 10.528 17.285 9.83751H18.6049C18.7813 10.528 19.3646 11.3242 20.6623 11.3242H22.2052C22.2052 11.3242 22.475 10.958 22.5427 10.7767C22.7864 10.1242 22.475 9.81992 22.0207 9.81992L21.4334 10.3522L20.8461 9.81992C20.3918 9.81992 20.0805 10.1242 20.3242 10.7767C20.3552 10.8602 20.4297 10.9827 20.5001 11.0904C19.9527 11.0152 19.2539 10.6404 19.1006 9.83751C19.1006 9.83751 19.5051 9.19486 19.6067 8.93482C19.9714 7.99965 19.5055 7.61735 18.8243 7.61735L17.9447 8.65131L17.0652 7.61735C16.384 7.61735 15.9181 7.99961 16.2832 8.93482C16.3844 9.1949 16.7893 9.83755 16.7893 9.83755C16.6356 10.6405 15.9368 11.0152 15.3894 11.0904C15.4602 10.9827 15.5343 10.8602 15.5654 10.7768C15.8086 10.1243 15.4981 9.81996 15.0433 9.81996L14.4561 10.3522L13.8688 9.81996C13.4141 9.81996 13.1035 10.1243 13.3468 10.7768C13.4145 10.9581 13.6849 11.3242 13.6849 11.3242L13.6848 11.3242ZM29.6365 16.1069C29.3386 16.2577 27.5915 17.0762 25.3534 16.7734C25.3766 16.6667 25.3962 16.5592 25.4123 16.4511C26.9019 16.2729 28.1127 16.0203 28.8843 15.5911C29.7639 15.1015 30.1485 13.9329 29.7045 13.0635C29.693 13.0415 29.6612 13.0376 29.6453 13.056C29.402 13.336 27.8722 15.0001 25.4621 15.5174C25.456 15.3926 25.4445 15.2681 25.4279 15.1442C26.5984 14.4804 27.7412 13.7155 28.2855 13.016C29.1082 11.9586 29.0325 10.6098 28.2497 9.92208C28.2416 9.91511 28.2308 9.91198 28.2202 9.91348C28.2096 9.91499 28.2002 9.92098 28.1943 9.92994C27.9467 10.3384 25.6286 14.0852 23.0835 15.7026C23.0525 15.7225 23.0212 15.742 22.9896 15.761C22.9167 15.8053 22.9088 15.9 22.9709 15.9564C23.2643 16.2223 23.4467 16.5924 23.4467 17.0033C23.4467 17.7176 22.896 18.3117 22.1681 18.4406C21.7982 18.5122 21.2643 18.4915 20.7514 18.3219C20.7283 18.3145 20.7045 18.3297 20.7045 18.3528V20.6154C20.7045 20.6517 20.7598 20.6608 20.7729 20.6258C21.0847 19.7999 22.018 19.6244 22.4261 19.6244C22.573 20.5072 22.8354 21.2384 23.1763 21.632C23.7312 22.2715 24.6375 22.2626 25.0305 21.8204C25.037 21.8131 25.0398 21.8032 25.0381 21.7936C25.0363 21.7839 25.0303 21.7756 25.0217 21.771C24.7908 21.6383 23.4697 20.8272 23.2053 19.498C23.3097 19.462 23.4115 19.4212 23.5091 19.373C23.9355 20.0788 24.5563 20.7074 25.056 20.9474C25.8953 21.3501 26.6637 21.1542 27.0046 20.5648C27.0169 20.544 27.0018 20.5182 26.9767 20.5159C26.4575 20.4743 24.864 20.0177 24.1856 18.905C24.2632 18.8337 24.3393 18.7593 24.4102 18.6802C25.1201 19.2207 26.1239 19.6985 26.8426 19.796C27.6834 19.9103 28.6363 19.6421 28.6594 18.6642C28.6598 18.6445 28.6423 18.6285 28.6216 18.6297C28.3225 18.6477 26.3433 18.7339 24.9329 17.9243C24.9819 17.8312 25.0276 17.7364 25.0699 17.64C25.0699 17.64 27.2009 18.1437 28.2106 17.9768C29.214 17.8112 29.8017 17.0631 29.6882 16.1326C29.6851 16.1094 29.658 16.0958 29.6365 16.1068L29.6365 16.1069ZM10.8196 17.6401C10.862 17.7365 10.9078 17.8313 10.9569 17.9244C9.54703 18.7336 7.56854 18.6482 7.26835 18.6298C7.24724 18.6286 7.22973 18.6454 7.2301 18.6646C7.25368 19.6422 8.20606 19.9104 9.04693 19.7961C9.76528 19.6986 10.7695 19.2208 11.4793 18.6803C11.5506 18.7594 11.6263 18.8338 11.7039 18.9051C11.025 20.0177 9.432 20.4744 8.91277 20.5159C8.8877 20.5182 8.87296 20.5441 8.88493 20.5648C9.22577 21.1542 9.99423 21.3501 10.834 20.9474C11.3333 20.7074 11.954 20.0788 12.3805 19.3731C12.4784 19.4212 12.5803 19.462 12.6842 19.498C12.4198 20.8273 11.0987 21.6383 10.8678 21.771C10.8592 21.7757 10.8533 21.784 10.8516 21.7936C10.8499 21.8032 10.8526 21.8131 10.859 21.8204C11.252 22.2626 12.1587 22.2716 12.7136 21.632C13.0545 21.2384 13.3165 20.5073 13.4634 19.6245C13.8719 19.6245 14.8048 19.8 15.1166 20.6259C15.1301 20.6608 15.1854 20.6517 15.1854 20.6154V18.3528C15.1854 18.3298 15.1612 18.3145 15.1381 18.3219C14.6253 18.4915 14.0913 18.5123 13.7218 18.4406C12.9936 18.3118 12.4429 17.7176 12.4429 17.0033C12.4429 16.5924 12.6257 16.2219 12.9187 15.956C12.9812 15.9 12.9729 15.8052 12.9004 15.761C12.8685 15.7419 12.837 15.7224 12.8056 15.7026C10.2621 14.086 7.94519 10.3419 7.69555 9.93065C7.68395 9.91145 7.65611 9.90756 7.63897 9.92242C6.85738 10.6105 6.78134 11.9589 7.60394 13.016C8.14824 13.7154 9.29092 14.4803 10.4612 15.1441C10.4447 15.268 10.4334 15.3925 10.4273 15.5173C8.01925 15.0004 6.49068 13.339 6.24501 13.0571C6.22869 13.0379 6.19599 13.0418 6.18487 13.0637C5.7418 13.9336 6.12638 15.1014 7.00516 15.591C7.7768 16.0202 8.98762 16.2728 10.4772 16.451C10.4932 16.559 10.5129 16.6665 10.5361 16.7733C8.30036 17.0757 6.554 16.2591 6.2538 16.1071C6.2315 16.0958 6.20441 16.1099 6.20164 16.1334C6.08862 17.0639 6.67585 17.8112 7.67924 17.9768C8.68858 18.1437 10.8196 17.64 10.8196 17.64V17.6401ZM24.6781 24.625L23.9017 24.014C23.5919 24.1985 23.3641 24.4915 23.2758 24.8349C22.8087 24.9004 21.5353 24.6176 21.6591 24.43C23.0547 22.4671 21.9872 21.2985 20.7044 21.3635V22.6818C20.7044 23.1051 20.3349 23.4482 19.8798 23.4482H18.9939C18.3584 23.4482 17.9447 24.087 17.9447 24.087C17.9447 24.087 17.5311 23.4482 16.8956 23.4482H16.0097C15.5542 23.4482 15.1855 23.1051 15.1855 22.6818V21.3635C13.9026 21.2985 12.8343 22.4672 14.2303 24.4301C14.353 24.6157 13.0442 24.913 12.4302 24.8377C12.2686 24.6701 12.0352 24.5644 11.774 24.5644C11.663 24.5644 11.5528 24.5842 11.4487 24.6228C11.4487 24.6228 9.03626 22.3387 8.99207 22.3164L9.01198 22.2702C9.14932 22.0133 8.93912 21.7332 8.80616 21.7528C8.9606 21.5676 8.96782 20.7565 8.11093 20.5689C8.13601 20.7318 8.14873 21.0644 8.14873 21.0644C8.14873 21.0644 7.48741 20.7068 7.15533 21.0153C6.86352 21.3608 7.26846 21.9874 7.26846 21.9874C7.26846 21.9874 6.93001 21.9956 6.76319 21.9815C7.00849 22.811 7.83109 22.7523 8.00907 22.5886C7.99747 22.7206 8.29498 22.9085 8.54697 22.7577L8.65767 22.7041C8.6772 22.7303 11.0268 24.9502 11.0268 24.9502C10.9188 25.1103 10.8675 25.3069 10.9029 25.5165C10.9587 25.8439 11.2315 26.1153 11.5799 26.1858C11.8259 26.2352 12.0572 26.1873 12.2428 26.0788L12.8647 26.6561C12.9201 26.7063 12.9949 26.7376 13.0785 26.7317C13.2306 26.7215 13.3445 26.5981 13.333 26.4568C13.3282 26.393 13.2955 26.3382 13.2505 26.2966C13.2406 26.2856 12.617 25.7068 12.617 25.7068C13.1314 25.346 14.0898 25.092 14.8853 25.092C15.0251 25.092 15.0908 24.9737 15.0426 24.8577C14.6822 23.991 15.4571 23.3633 16.2586 23.8743C16.6082 24.0972 16.9634 24.5362 17.231 25.2685C15.9158 25.587 14.2647 26.4642 13.9306 27.4218C13.802 27.7915 14.2268 28.2955 14.7428 28.397C14.752 28.399 14.7615 28.3973 14.7694 28.3922C14.7772 28.3871 14.7827 28.3791 14.7846 28.37C15.0542 26.9404 16.5915 25.8752 17.3914 25.6942C17.4317 25.8019 17.4185 25.7671 17.4587 25.8744C16.5875 26.2864 15.7426 27.1554 15.5013 28.1885C15.3906 28.6617 15.9182 29.0882 16.3538 29.2049C16.3757 29.2107 16.3972 29.1955 16.3984 29.1743C16.4812 27.8678 17.0582 26.7583 17.575 26.2535C17.5891 26.3522 17.5997 26.4513 17.6068 26.5507C17.6068 26.5507 17.0777 28.0253 17.0777 29.1011C17.0777 29.6016 17.8214 29.951 17.9314 29.9999C18.0687 29.951 18.8121 29.6016 18.8121 29.1011C18.8121 28.0252 18.2829 26.5507 18.2829 26.5507C18.2902 26.4513 18.3009 26.3522 18.3152 26.2535C18.8316 26.7583 19.4089 27.8674 19.4914 29.1739C19.4926 29.1951 19.5144 29.2108 19.5359 29.2049C19.9719 29.0882 20.4991 28.6617 20.3888 28.1886C20.1471 27.1555 19.3026 26.2865 18.4314 25.8744C18.4712 25.7671 18.4581 25.802 18.4983 25.6943C19.2986 25.8752 20.8356 26.9404 21.1051 28.3699C21.107 28.3791 21.1126 28.3871 21.1204 28.3921C21.1283 28.3972 21.1378 28.3989 21.1469 28.397C21.6625 28.2956 22.0882 27.7915 21.9588 27.4218C21.6255 26.4642 19.9739 25.587 18.6588 25.2686C18.9267 24.5362 19.2819 24.0972 19.6315 23.8744C20.4326 23.3633 21.2074 23.9911 20.8471 24.8578C20.7989 24.9737 20.8642 25.092 21.0044 25.092C21.9042 25.092 23.0126 25.417 23.4514 25.8529C23.7317 26.2735 24.2497 26.5426 24.8343 26.485C25.4984 26.42 26.0399 25.921 26.1148 25.3042C26.1801 24.7638 25.9006 24.2785 25.455 24.0142L24.6781 24.6252L24.6781 24.625ZM18.9553 20.6878C19.232 20.5853 19.6656 20.6683 19.6509 21.0677C19.6473 21.1582 19.7743 21.1582 19.7835 21.0657C19.8663 20.4677 19.4621 20.2954 19.0393 20.3655C18.9868 20.1599 18.9438 19.9801 18.8948 19.8019C18.8558 19.6579 18.8414 19.3872 19.0083 19.3872C19.0983 19.3872 19.0621 19.639 19.0537 19.7475C19.0461 19.8426 19.0804 19.9002 19.1576 19.903C19.2058 19.9049 19.266 19.8435 19.3018 19.8027C19.5439 19.5289 19.6 19.1052 19.3165 18.9008C19.0793 18.7292 18.4852 18.8569 18.3219 19.1013C18.2972 19.0092 18.1794 18.8573 18.1228 18.7911C18.0679 18.7265 18.0535 18.6822 18.1296 18.6255C18.1654 18.598 18.2737 18.4904 18.2737 18.3791C18.2737 18.3133 18.2228 18.1919 18.0607 18.1919C17.9329 18.1919 17.7908 18.2804 17.7908 18.4778C17.7908 18.5217 17.8015 18.5687 17.8298 18.6193C17.7489 18.6059 17.5296 18.6114 17.4169 18.6392L18.9749 22.9147C19.4209 22.6946 19.7477 22.3461 19.7477 21.9721C19.7477 21.6532 19.2782 21.759 19.0501 22.0077C18.9768 21.6035 18.9115 21.2303 18.8403 20.8582C18.8208 20.7556 18.873 20.7188 18.9554 20.6879L18.9553 20.6878ZM16.7522 17.7835L17.0795 18.6929C16.7992 18.7595 16.3485 18.9639 16.3485 19.2345C16.3485 19.5948 16.986 19.8294 17.3547 19.8012C17.3364 19.8834 17.3575 19.9567 17.4148 20.0236C17.281 20.0236 17.0286 20.0859 16.9458 20.1752C16.7503 19.9931 16.4445 19.9269 16.2991 20.0377C16.153 20.1494 16.1487 20.3385 16.3012 20.5523C16.4074 20.7004 16.4473 20.8465 16.3278 21.018C16.7722 21.018 16.6085 20.4403 16.7825 20.4403C16.7598 20.5524 16.7738 20.682 16.8243 20.8257C16.8578 20.9213 16.8578 20.989 16.8005 21.081C16.6571 21.3102 16.4342 21.8365 16.4644 22.3124C16.3187 22.3116 16.2446 22.2759 16.296 22.077C16.3151 22.0029 16.2693 21.9501 16.2088 22.0413C16.1419 22.142 16.1097 22.3139 16.1097 22.3875C16.1097 22.8113 16.6145 22.8966 16.8072 22.807C17.3647 23.3464 18.4596 23.2025 18.8263 23.0216L16.8984 17.7317C16.859 17.6319 16.7177 17.6796 16.7523 17.7834L16.7522 17.7835ZM16.6853 22.1408C16.6455 21.923 16.9485 21.5338 17.334 21.1582C17.2519 21.4029 17.3029 21.8248 17.4637 21.9701C17.1842 21.9701 16.8521 22.0225 16.6854 22.1408H16.6853Z" fill="#67717F"/>
</svg>
