<svg width="36" height="36" viewBox="0 0 36 36" fill="none" xmlns="http://www.w3.org/2000/svg">
<circle cx="18" cy="18" r="17" stroke="#4A90E2" stroke-width="2"/>
<path d="M26.2694 21.6798L24.1161 19.5246C23.6908 19.0831 23.1769 18.8515 22.6323 18.8515C22.0912 18.8515 21.5737 19.0831 21.1358 19.5192L20.0139 20.6411C19.9578 20.6121 19.9035 20.585 19.8528 20.5597C19.7207 20.4945 19.5941 20.4294 19.4855 20.3606C18.3473 19.6386 17.3105 18.6922 16.3134 17.4708C15.8737 16.9153 15.5697 16.4485 15.349 15.9888C15.6331 15.7228 15.9009 15.4514 16.1542 15.1908C16.261 15.0823 16.3731 14.9701 16.4817 14.8615C16.9305 14.4128 17.1675 13.8898 17.1675 13.3506C17.1675 12.8077 16.9305 12.2848 16.4817 11.8396L15.4123 10.7702C15.2911 10.649 15.1753 10.5314 15.0558 10.4065L15.0504 10.4011C14.817 10.1604 14.5655 9.90529 14.3139 9.67186C13.8869 9.25385 13.3766 9.03309 12.8374 9.03309C12.3017 9.03309 11.7861 9.25566 11.3464 9.67546L9.99827 11.0235C9.45361 11.5628 9.14599 12.2214 9.08265 12.9814C9.01027 13.8862 9.17494 14.8416 9.60019 15.9834C10.2407 17.7242 11.2052 19.3346 12.6347 21.0519C14.3664 23.122 16.4581 24.7594 18.8487 25.9195L18.8505 25.9213C19.7752 26.3592 21.0129 26.8731 22.3827 26.9618H22.399C22.4786 26.9654 22.56 26.969 22.6469 26.969C23.6294 26.969 24.422 26.6288 25.068 25.9285C25.0789 25.9159 25.0933 25.9014 25.1078 25.8815C25.2888 25.6662 25.4951 25.4635 25.7158 25.2518L25.7665 25.2029C25.9728 25.0057 26.1356 24.8428 26.2804 24.6927C26.7128 24.2421 26.9409 23.7191 26.939 23.1781C26.939 22.6353 26.7074 22.1177 26.2695 21.6798L26.2694 21.6798ZM10.5756 13.1083C10.6118 12.6975 10.7656 12.37 11.057 12.0787L12.3906 10.745C12.5372 10.6039 12.691 10.5279 12.8339 10.5279C13.0076 10.5279 13.1614 10.6473 13.2591 10.7468L13.27 10.7577C13.4727 10.9459 13.6681 11.1449 13.8744 11.3548L13.9685 11.4507C14.03 11.5141 14.0933 11.5774 14.1567 11.6426C14.2182 11.7041 14.2797 11.7674 14.3412 11.8307L15.4143 12.9038C15.5265 13.016 15.6604 13.1861 15.6604 13.3562C15.6604 13.5263 15.5265 13.6964 15.4143 13.8086C15.3582 13.8647 15.3021 13.9207 15.246 13.9787C15.1917 14.0347 15.1356 14.0908 15.0795 14.1469L15.0035 14.2229C14.7014 14.5287 14.4136 14.8183 14.1042 15.0951L14.0734 15.1259C13.6048 15.5945 13.7658 16.0795 13.8183 16.2387C13.8219 16.2514 13.8255 16.2604 13.8292 16.2713L13.8364 16.2894C14.1295 16.9915 14.5313 17.6465 15.1392 18.4119L15.1411 18.4137C16.2358 19.7636 17.3903 20.815 18.6732 21.631C18.8144 21.7233 18.9573 21.7957 19.0967 21.8645C19.122 21.8771 19.1491 21.8898 19.1745 21.9043L19.1763 21.9061C19.3084 21.9712 19.435 22.0364 19.5436 22.1051L19.5762 22.1232C19.5871 22.1287 19.5979 22.1359 19.6088 22.1413C19.768 22.2228 19.9327 22.2644 20.0973 22.2644C20.376 22.2644 20.6293 22.1522 20.8501 21.9296L22.1928 20.587C22.2977 20.482 22.4569 20.359 22.6306 20.359C22.808 20.359 22.9618 20.4965 23.0396 20.5797L23.0432 20.5834L25.211 22.7475C25.5222 23.0588 25.5168 23.3338 25.1965 23.6667L25.1929 23.6704C25.0409 23.8332 24.8799 23.9888 24.7279 24.1354L24.6844 24.177C24.442 24.4123 24.1922 24.6548 23.9588 24.9334C23.6041 25.3134 23.2006 25.4817 22.6505 25.4817C22.5999 25.4817 22.542 25.4781 22.4841 25.4744C21.3604 25.4021 20.3018 24.9587 19.5038 24.5787C17.307 23.5148 15.3837 22.0092 13.7895 20.1019C12.4739 18.5186 11.5909 17.0475 11.0064 15.4712C10.6608 14.5411 10.5215 13.7884 10.5758 13.108L10.5756 13.1083Z" fill="#67717F"/>
</svg>
