<svg width="36" height="36" viewBox="0 0 36 36" fill="none" xmlns="http://www.w3.org/2000/svg">
<circle cx="18" cy="18" r="17" stroke="#4A90E2" stroke-width="2"/>
<path fill-rule="evenodd" clip-rule="evenodd" d="M25.0139 11.3462L17.9751 9L10.9363 11.3462C10.4924 11.4941 10.1868 11.9097 10.1868 12.3852V16.2582C10.1868 20.5853 12.0574 23.2703 13.9597 24.8557C14.9001 25.6392 15.8381 26.147 16.5422 26.4599C16.8949 26.6168 17.1916 26.7257 17.4041 26.7966C17.5105 26.8321 17.5961 26.858 17.6573 26.8758C17.6881 26.8847 17.7126 26.8914 17.7308 26.8963L17.7532 26.9021L17.7605 26.9042L17.7644 26.905L17.9753 26.9577L18.1862 26.905L18.1901 26.9042L18.1974 26.9021L18.2198 26.8963C18.238 26.8914 18.2625 26.8847 18.2933 26.8758C18.3545 26.858 18.4401 26.8321 18.5465 26.7966C18.759 26.7257 19.0557 26.6168 19.4084 26.4599C20.1125 26.147 21.0505 25.6391 21.9909 24.8557C23.8932 23.2703 25.7638 20.5852 25.7638 16.2582V12.3862C25.7638 11.9143 25.4614 11.4955 25.0139 11.3462ZM17.9988 25.1548L17.975 25.1625L17.9513 25.1548C17.7852 25.0993 17.541 25.0101 17.2447 24.8783C16.6507 24.6143 15.8579 24.1849 15.0675 23.526C13.5083 22.2267 11.9174 20.008 11.9174 16.2582V12.8436L17.9751 10.8242L24.0328 12.8436V16.2582C24.0328 20.0081 22.4418 22.2269 20.8826 23.526C20.0922 24.1848 19.2994 24.6143 18.7054 24.8783C18.4091 25.0101 18.1649 25.0993 17.9988 25.1548Z" fill="#67717F"/>
</svg>
