<svg width="16" height="16" viewBox="0 0 16 16" fill="none" xmlns="http://www.w3.org/2000/svg">
<path fill-rule="evenodd" clip-rule="evenodd" d="M6.83522 12.3876C3.77364 12.3876 1.28301 9.89721 1.28301 6.83561C1.28301 3.774 3.77364 1.2827 6.83522 1.2827C9.89679 1.2827 12.3878 3.774 12.3878 6.83561C12.3878 9.89721 9.89679 12.3876 6.83522 12.3876ZM12.0984 11.1908C13.0799 10.0072 13.6708 8.48942 13.6708 6.83561C13.6708 3.0661 10.6044 0 6.83522 0C3.06639 0 0 3.0661 0 6.83561C0 10.6045 3.06639 13.6706 6.83522 13.6706C8.48934 13.6706 10.0075 13.0794 11.1913 12.0986L14.9048 15.812C15.0299 15.9375 15.1944 16 15.3583 16C15.5226 16 15.6868 15.9375 15.8119 15.812C16.0627 15.5615 16.0627 15.1551 15.8119 14.9046L12.0984 11.1908Z" fill="#B1B1B1"/>
</svg>
