<svg xmlns="http://www.w3.org/2000/svg" width="22" height="22" viewBox="0 0 22 22">
    <path fill="none" fill-rule="evenodd" stroke="#979797" d="M11.965 1.628l2.255 4.78c.157.332.46.563.813.616l5.043.767c.884.134 1.237 1.27.597 1.919l-3.65 3.722c-.253.257-.368.63-.31.997l.862 5.253c.15.92-.772 1.62-1.562 1.186l-4.512-2.48a1.036 1.036 0 0 0-1.002 0l-4.512 2.48c-.79.435-1.713-.266-1.563-1.186l.862-5.253a1.157 1.157 0 0 0-.31-.997L1.327 9.71c-.64-.652-.285-1.787.597-1.92l5.046-.766c.35-.053.653-.284.81-.616l2.255-4.78a1.056 1.056 0 0 1 1.931 0z"/>
</svg>
