<svg width="13" height="13" viewBox="0 0 13 13" fill="none" xmlns="http://www.w3.org/2000/svg">
<path fill-rule="evenodd" clip-rule="evenodd" d="M12.35 6.49873C12.35 9.90911 9.58538 12.6737 6.175 12.6737C2.76464 12.6737 0 9.90911 0 6.49873C0 3.08837 2.76464 0.32373 6.175 0.32373C9.58538 0.32373 12.35 3.08837 12.35 6.49873ZM6.68958 3.00276C6.68958 2.71857 6.45919 2.48818 6.175 2.48818C5.89081 2.48818 5.66042 2.71857 5.66042 3.00276V6.72405V6.99403L5.88251 7.14745L8.39732 8.88455C8.63114 9.04606 8.95162 8.98739 9.1132 8.75357C9.27471 8.51974 9.21605 8.19926 8.98222 8.03775L6.68958 6.45407V3.00276Z" fill="#4A90E2"/>
</svg>
