<svg width="29" height="29" viewBox="0 0 29 29" fill="none" xmlns="http://www.w3.org/2000/svg">
<g filter="url(#filter0_d)">
<path fill-rule="evenodd" clip-rule="evenodd" d="M21.7995 17.928C21.3232 16.976 19.7565 16.403 17.5883 15.608C17.2819 15.4963 16.9632 15.3816 16.6333 15.256V13.5334C16.8501 13.2963 17.3987 12.592 17.4525 11.4963C17.6032 11.3816 17.7237 11.163 17.7933 10.8696C17.904 10.4 17.8456 9.84297 17.5005 9.53337C17.5237 9.47204 17.5525 9.40004 17.5792 9.33337C17.8344 8.68804 18.3093 7.49097 18.124 6.56297C17.9139 5.51204 16.3843 5.04297 14.9619 5.04297C13.9227 5.04297 12.6576 5.30404 12.296 6.02137C11.8963 6.05604 11.5904 6.21604 11.3848 6.49337C10.8213 7.25364 11.2389 8.62937 11.4632 9.37097C11.4789 9.42137 11.4957 9.47737 11.5096 9.5227C11.1557 9.83204 11.0952 10.3947 11.2067 10.8696C11.2763 11.163 11.3971 11.3816 11.5477 11.4963C11.6008 12.571 12.1368 13.203 12.3667 13.4267V15.256C12.0368 15.3816 11.7173 15.4963 11.4104 15.6107C9.2424 16.403 7.67573 16.976 7.20053 17.928C6.508 19.312 6.5 20.7174 6.5 20.776C6.5 20.9227 6.61947 21.043 6.76667 21.043H22.2333C22.3808 21.043 22.5 20.9227 22.5 20.776C22.5 20.7174 22.4923 19.312 21.7995 17.928Z" fill="#747474"/>
</g>
<defs>
<filter id="filter0_d" x="0.5" y="0.0429688" width="28" height="28" filterUnits="userSpaceOnUse" color-interpolation-filters="sRGB">
<feFlood flood-opacity="0" result="BackgroundImageFix"/>
<feColorMatrix in="SourceAlpha" type="matrix" values="0 0 0 0 0 0 0 0 0 0 0 0 0 0 0 0 0 0 127 0"/>
<feOffset dy="1"/>
<feGaussianBlur stdDeviation="3"/>
<feColorMatrix type="matrix" values="0 0 0 0 0.878029 0 0 0 0 0.878029 0 0 0 0 0.878029 0 0 0 0.489838 0"/>
<feBlend mode="normal" in2="BackgroundImageFix" result="effect1_dropShadow"/>
<feBlend mode="normal" in="SourceGraphic" in2="effect1_dropShadow" result="shape"/>
</filter>
</defs>
</svg>
