<svg width="24" height="24" viewBox="0 0 24 24" fill="none" xmlns="http://www.w3.org/2000/svg">
<path d="M10.4937 0.00055615C4.82606 0.00155884 0.215578 4.61489 0.213867 10.2842C0.213867 15.9496 4.82649 20.5597 10.4919 20.5597C12.8534 20.5597 15.0258 19.7517 16.7636 18.4088L22.0124 23.6554C22.2134 23.8565 22.4774 23.9576 22.7415 23.9576C23.0055 23.9576 23.2694 23.8565 23.4706 23.6554C23.8738 23.2522 23.8738 22.5994 23.4706 22.1972L18.262 16.9908C19.822 15.1882 20.7737 12.8469 20.7737 10.2819C20.7737 4.61348 16.1594 0 10.494 0L10.4937 0.00055615ZM10.4937 2.06289C15.0229 2.06289 18.7093 5.74922 18.7114 10.2802C18.7114 14.8103 15.0239 18.4954 10.4919 18.4954C5.96189 18.4954 2.27847 14.8121 2.27633 10.2841C2.27633 5.75187 5.96381 2.06374 10.4941 2.06246L10.4937 2.06289ZM10.4937 5.0699C9.92347 5.0699 9.46242 5.53181 9.46242 6.10113V9.13023H6.43286C5.86268 9.13023 5.40163 9.59213 5.40163 10.1615C5.40163 10.7307 5.86251 11.1927 6.43286 11.1927H9.46242V14.2218C9.46242 14.791 9.9233 15.253 10.4937 15.253C11.0638 15.253 11.5249 14.7911 11.5249 14.2218V11.1927H14.5535C15.1236 11.1927 15.5847 10.7308 15.5847 10.1615C15.5847 9.59226 15.1238 9.13023 14.5535 9.13023H11.5249V6.10113C11.5249 5.53194 11.064 5.0699 10.4937 5.0699Z" fill="#4A90E2"/>
</svg>
