<svg width="512" height="512" viewBox="0 0 512 512" fill="none" xmlns="http://www.w3.org/2000/svg">
<path d="M256 512C397.385 512 512 397.385 512 256C512 114.615 397.385 0 256 0C114.615 0 0 114.615 0 256C0 397.385 114.615 512 256 512Z" fill="#F94E32"/>
<path d="M213.768 231.952L213.985 329.51L137.12 373.561C133.429 375.71 128.869 373.132 128.869 368.834L128.652 288.252C128.652 283.739 131.04 279.442 134.948 277.293L213.768 231.952Z" fill="white"/>
<path d="M384.869 416.753C384.869 420.835 380.309 423.629 376.618 421.48L299.535 377.858L214.202 329.509L213.985 232.166L299.318 280.515L378.355 325.426C382.263 327.79 384.869 331.873 384.869 336.385V416.753Z" fill="#EAEAEA"/>
<path d="M299.101 280.301L213.768 231.952L134.731 187.041C130.823 184.677 128.217 180.594 128.217 176.082L128 95.4998C128 91.2021 132.56 88.6235 136.251 90.7724L213.333 134.609L298.667 183.173L299.101 280.301Z" fill="white"/>
<path d="M299.101 280.301L377.703 234.96C381.612 232.596 384 228.513 384 224.001L383.783 143.419C383.783 139.121 379.223 136.542 375.532 138.691L298.667 182.958L299.101 280.301Z" fill="#EAEAEA"/>
</svg>
