<svg width="1920" height="846" viewBox="0 0 1920 846" fill="none" xmlns="http://www.w3.org/2000/svg">
<rect y="-20" width="1920" height="888" fill="#373737"/>
<path d="M987.807 836.143C981.3 839.54 973.961 843.385 959.509 843.385C945.057 843.385 937.717 839.54 931.21 836.143C924.93 832.847 919.482 830 908.435 830C897.388 830 891.94 832.847 885.66 836.143C879.152 839.54 871.813 843.385 857.361 843.385C842.909 843.385 835.569 839.54 829.062 836.143C822.782 832.847 817.334 830 806.287 830C795.24 830 789.792 832.847 783.512 836.143C777.005 839.54 769.665 843.385 755.213 843.385C740.761 843.385 733.422 839.54 726.914 836.143C720.634 832.847 715.186 830 704.139 830C693.092 830 687.644 832.847 681.364 836.143C674.857 839.539 667.517 843.385 653.065 843.385C638.613 843.385 631.274 839.539 624.767 836.143C618.487 832.847 613.039 830 601.992 830C590.944 830 585.497 832.847 579.216 836.143C572.709 839.539 565.37 843.385 550.918 843.385C536.466 843.385 529.126 839.539 522.619 836.143C516.339 832.847 510.891 830 499.844 830C488.797 830 483.349 832.847 477.069 836.143C470.562 839.539 463.222 843.385 448.77 843.385C434.318 843.385 426.978 839.539 420.471 836.143C414.191 832.847 408.743 830 397.696 830C386.649 830 381.201 832.847 374.921 836.143C368.414 839.539 361.074 843.385 346.622 843.385C332.17 843.385 324.831 839.539 318.323 836.143C312.043 832.847 306.595 830 295.548 830C284.501 830 279.053 832.847 272.773 836.143C266.266 839.539 258.926 843.385 244.474 843.385C230.022 843.385 222.683 839.539 216.176 836.143C209.896 832.847 204.448 830 193.401 830C182.353 830 176.906 832.847 170.625 836.143C164.118 839.539 156.779 843.385 142.327 843.385C127.875 843.385 120.535 839.539 114.028 836.143C107.748 832.847 102.3 830 91.2528 830C80.2057 830 74.7578 832.847 68.4776 836.143C61.9704 839.539 54.6308 843.385 40.1788 843.385C25.7268 843.385 18.3873 839.539 11.8801 836.143C8.09681 834.145 4.61628 832.297 0.000739699 831.199L0.000793457 876L1001.96 876L1001.96 830.649C996.131 831.698 992.196 833.796 987.807 836.143Z" fill="#F5F5F5"/>
<path d="M1905.85 836.143C1899.34 839.54 1892 843.385 1877.55 843.385C1863.1 843.385 1855.76 839.54 1849.25 836.143C1842.97 832.847 1837.52 830 1826.48 830C1815.43 830 1809.98 832.847 1803.7 836.143C1797.2 839.54 1789.86 843.385 1775.4 843.385C1760.95 843.385 1753.61 839.54 1747.11 836.143C1740.83 832.847 1735.38 830 1724.33 830C1713.28 830 1707.84 832.847 1701.55 836.143C1695.05 839.54 1687.71 843.385 1673.26 843.385C1658.8 843.385 1651.46 839.54 1644.96 836.143C1638.68 832.847 1633.23 830 1622.18 830C1611.14 830 1605.69 832.847 1599.41 836.143C1592.9 839.539 1585.56 843.385 1571.11 843.385C1556.66 843.385 1549.32 839.539 1542.81 836.143C1536.53 832.847 1531.08 830 1520.03 830C1508.99 830 1503.54 832.847 1497.26 836.143C1490.75 839.539 1483.41 843.385 1468.96 843.385C1454.51 843.385 1447.17 839.539 1440.66 836.143C1434.38 832.847 1428.93 830 1417.89 830C1406.84 830 1401.39 832.847 1395.11 836.143C1388.6 839.539 1381.27 843.385 1366.81 843.385C1352.36 843.385 1345.02 839.539 1338.51 836.143C1332.23 832.847 1326.79 830 1315.74 830C1304.69 830 1299.24 832.847 1292.96 836.143C1286.46 839.539 1279.12 843.385 1264.67 843.385C1250.21 843.385 1242.87 839.539 1236.37 836.143C1230.09 832.847 1224.64 830 1213.59 830C1202.54 830 1197.1 832.847 1190.82 836.143C1184.31 839.539 1176.97 843.385 1162.52 843.385C1148.07 843.385 1140.73 839.539 1134.22 836.143C1127.94 832.847 1122.49 830 1111.44 830C1100.4 830 1094.95 832.847 1088.67 836.143C1082.16 839.539 1074.82 843.385 1060.37 843.385C1045.92 843.385 1038.58 839.539 1032.07 836.143C1025.79 832.847 1020.34 830 1009.3 830C998.249 830 992.801 832.847 986.521 836.143C980.013 839.539 972.674 843.385 958.222 843.385C943.77 843.385 936.43 839.539 929.923 836.143C926.14 834.145 922.659 832.297 918.044 831.199L918.044 876L1920 876L1920 830.649C1914.17 831.698 1910.24 833.796 1905.85 836.143Z" fill="#F5F5F5"/>
<path d="M987.85 10.8567C981.342 7.46045 974.002 3.61464 959.55 3.61464C945.097 3.61464 937.757 7.46045 931.25 10.8567C924.969 14.1531 919.521 16.9999 908.474 16.9999C897.426 16.9999 891.978 14.1531 885.698 10.8567C879.19 7.46046 871.85 3.61465 857.398 3.61465C842.945 3.61465 835.605 7.46046 829.098 10.8567C822.817 14.1531 817.369 16.9999 806.322 16.9999C795.274 16.9999 789.826 14.1531 783.545 10.8567C777.038 7.46047 769.698 3.61466 755.245 3.61466C740.793 3.61466 733.453 7.46047 726.945 10.8567C720.665 14.1531 715.217 16.9999 704.169 16.9999C693.122 16.9999 687.674 14.1531 681.393 10.8567C674.886 7.46048 667.546 3.61466 653.093 3.61467C638.641 3.61467 631.301 7.46048 624.793 10.8567C618.513 14.1531 613.065 16.9999 602.017 16.9999C590.969 16.9999 585.521 14.1531 579.241 10.8567C572.733 7.46049 565.394 3.61467 550.941 3.61467C536.488 3.61468 529.148 7.46049 522.641 10.8567C516.361 14.1531 510.913 17 499.865 17C488.817 17 483.369 14.1531 477.089 10.8567C470.581 7.4605 463.242 3.61468 448.789 3.61468C434.336 3.61469 426.996 7.4605 420.489 10.8567C414.208 14.1531 408.76 17 397.713 17C386.665 17 381.217 14.1531 374.937 10.8568C368.429 7.4605 361.089 3.61469 346.637 3.61469C332.184 3.61469 324.844 7.46051 318.337 10.8568C312.056 14.1531 306.608 17 295.56 17C284.513 17 279.065 14.1531 272.784 10.8568C266.277 7.46051 258.937 3.6147 244.484 3.6147C230.032 3.6147 222.692 7.46052 216.184 10.8568C209.904 14.1531 204.456 17 193.408 17C182.361 17 176.913 14.1531 170.632 10.8568C164.125 7.46052 156.785 3.61471 142.332 3.61471C127.88 3.61471 120.54 7.46053 114.032 10.8568C107.752 14.1531 102.304 17 91.256 17C80.2084 17 74.7603 14.1531 68.4799 10.8568C61.9724 7.46053 54.6325 3.61472 40.1798 3.61472C25.7272 3.61472 18.3873 7.46054 11.8799 10.8568C8.09644 12.8546 4.61579 14.7025 7.27672e-06 15.8013L6.10352e-05 -28.9999L1002 -29L1002 16.3506C996.173 15.3018 992.239 13.2041 987.85 10.8567Z" fill="#F5F5F5"/>
<path d="M1905.85 10.8567C1899.34 7.46045 1892 3.61464 1877.55 3.61464C1863.1 3.61464 1855.76 7.46045 1849.25 10.8567C1842.97 14.1531 1837.52 16.9999 1826.47 16.9999C1815.43 16.9999 1809.98 14.1531 1803.7 10.8567C1797.19 7.46046 1789.85 3.61465 1775.4 3.61465C1760.94 3.61465 1753.61 7.46046 1747.1 10.8567C1740.82 14.1531 1735.37 16.9999 1724.32 16.9999C1713.27 16.9999 1707.83 14.1531 1701.55 10.8567C1695.04 7.46047 1687.7 3.61466 1673.25 3.61466C1658.79 3.61466 1651.45 7.46047 1644.95 10.8567C1638.66 14.1531 1633.22 16.9999 1622.17 16.9999C1611.12 16.9999 1605.67 14.1531 1599.39 10.8567C1592.89 7.46048 1585.55 3.61466 1571.09 3.61467C1556.64 3.61467 1549.3 7.46048 1542.79 10.8567C1536.51 14.1531 1531.06 16.9999 1520.02 16.9999C1508.97 16.9999 1503.52 14.1531 1497.24 10.8567C1490.73 7.46049 1483.39 3.61467 1468.94 3.61467C1454.49 3.61468 1447.15 7.46049 1440.64 10.8567C1434.36 14.1531 1428.91 17 1417.86 17C1406.82 17 1401.37 14.1531 1395.09 10.8567C1388.58 7.4605 1381.24 3.61468 1366.79 3.61468C1352.34 3.61469 1345 7.4605 1338.49 10.8567C1332.21 14.1531 1326.76 17 1315.71 17C1304.67 17 1299.22 14.1531 1292.94 10.8568C1286.43 7.4605 1279.09 3.61469 1264.64 3.61469C1250.18 3.61469 1242.84 7.46051 1236.34 10.8568C1230.06 14.1531 1224.61 17 1213.56 17C1202.51 17 1197.06 14.1531 1190.78 10.8568C1184.28 7.46051 1176.94 3.6147 1162.48 3.6147C1148.03 3.6147 1140.69 7.46052 1134.18 10.8568C1127.9 14.1531 1122.46 17 1111.41 17C1100.36 17 1094.91 14.1531 1088.63 10.8568C1082.12 7.46052 1074.78 3.61471 1060.33 3.61471C1045.88 3.61471 1038.54 7.46053 1032.03 10.8568C1025.75 14.1531 1020.3 17 1009.26 17C998.208 17 992.76 14.1531 986.48 10.8568C979.972 7.46053 972.632 3.61472 958.18 3.61472C943.727 3.61472 936.387 7.46054 929.88 10.8568C926.096 12.8546 922.616 14.7025 918 15.8013L918 -28.9999L1920 -29L1920 16.3506C1914.17 15.3018 1910.24 13.2041 1905.85 10.8567Z" fill="#F5F5F5"/>
</svg>
