<svg width="36" height="36" viewBox="0 0 36 36" fill="none" xmlns="http://www.w3.org/2000/svg">
<g clip-path="url(#clip0_2010_284)">
<mask id="mask0_2010_284" style="mask-type:luminance" maskUnits="userSpaceOnUse" x="0" y="0" width="36" height="36">
<path d="M35.3683 0.34082H0.220825V35.4883H35.3683V0.34082Z" fill="white"/>
</mask>
<g mask="url(#mask0_2010_284)">
<path d="M4.38847 26.4566L4.51701 25.995L4.27558 25.5811C2.83793 23.1166 2.12348 20.4577 2.12348 17.695C2.12348 9.10943 9.18 2.13379 17.9044 2.13379C22.1054 2.13379 25.9831 3.77001 28.8412 6.73013L28.8481 6.73729L28.8551 6.74432C31.8313 9.72049 33.4656 13.6073 33.4656 17.8049C33.4656 26.4049 26.3946 33.4759 17.7946 33.4759C15.2494 33.4759 12.5792 32.7601 10.3195 31.5275L9.92593 31.3129L9.49201 31.4254L2.49993 33.2381L4.38847 26.4566Z" stroke="#42C553" stroke-width="2.26758"/>
<path fill-rule="evenodd" clip-rule="evenodd" d="M13.5109 10.4456C13.1814 9.67676 12.8519 9.67676 12.5223 9.67676C12.3027 9.67676 11.9732 9.67676 11.6437 9.67676C11.3141 9.67676 10.8748 9.78659 10.4355 10.2259C10.106 10.6653 9.0076 11.7636 9.0076 13.8505C9.0076 15.9374 10.5453 18.0243 10.765 18.3538C10.9846 18.6833 13.7305 23.1866 18.2338 24.9439C21.8584 26.3718 22.6272 26.1521 23.5059 26.0423C24.3846 25.9325 26.0321 24.9439 26.4715 23.9554C26.801 22.9669 26.801 22.0882 26.6912 21.8685C26.5813 21.6489 26.2518 21.539 25.8125 21.3194C25.3731 21.0997 23.2862 20.0013 22.8469 19.8915C22.4076 19.7816 22.1879 19.6718 21.8584 20.1112C21.5289 20.5505 20.76 21.539 20.4305 21.8685C20.2108 22.198 19.8813 22.198 19.442 21.9784C19.0027 21.7587 17.5748 21.3194 15.9273 19.7817C14.6092 18.5735 13.7305 17.2554 13.5109 16.8161C13.2912 16.3767 13.5109 16.1571 13.7305 15.9374C13.9502 15.7177 14.1699 15.3882 14.3896 15.1685C14.6092 14.9489 14.7191 14.7292 14.8289 14.3997C14.9387 14.0702 14.9387 13.8505 14.8289 13.6308C14.7191 13.521 13.8404 11.3243 13.5109 10.4456Z" fill="#42C553"/>
</g>
</g>
<defs>
<clipPath id="clip0_2010_284">
<rect width="35.1474" height="35.1474" fill="white" transform="translate(0.220825 0.34082)"/>
</clipPath>
</defs>
</svg>
