<svg width="33" height="32" viewBox="0 0 33 32" fill="none" xmlns="http://www.w3.org/2000/svg">
<path d="M31.1861 24.1916L24.9632 20.0416C24.1735 19.5192 23.115 19.6911 22.5311 20.4366L20.7185 22.7672C20.6058 22.9158 20.4433 23.0188 20.2608 23.0572C20.0783 23.0956 19.8881 23.0669 19.7251 22.9763L19.3803 22.7862C18.2372 22.1632 16.815 21.3875 13.9495 18.521C11.084 15.6545 10.3067 14.2312 9.68372 13.0902L9.49465 12.7454C9.40287 12.5824 9.37306 12.3918 9.41072 12.2086C9.44837 12.0254 9.55095 11.862 9.69957 11.7484L12.0286 9.93627C12.7738 9.35239 12.946 8.29413 12.4242 7.50418L8.27422 1.28131C7.73945 0.476894 6.66654 0.235415 5.83865 0.733084L3.23647 2.29622C2.41885 2.77688 1.81901 3.55536 1.56268 4.46851C0.625644 7.88273 1.33057 13.7751 10.0106 22.4562C16.9154 29.3605 22.0557 31.2172 25.5888 31.2172C26.402 31.2207 27.2119 31.1149 27.9968 30.9027C28.9102 30.6467 29.6888 30.0468 30.1691 29.2289L31.7338 26.6283C32.2322 25.8002 31.9909 24.7266 31.1861 24.1916ZM30.851 26.1026L29.2899 28.7047C28.945 29.2951 28.385 29.7291 27.7273 29.9159C24.5754 30.7813 19.0688 30.0645 10.7356 21.7313C2.40234 13.3981 1.68565 7.89198 2.551 4.73959C2.73811 4.08105 3.17264 3.52038 3.76368 3.1749L6.36586 1.61381C6.72508 1.39766 7.19075 1.50243 7.4228 1.8515L11.5692 8.07384C11.7958 8.41649 11.7213 8.87573 11.3981 9.12928L9.06849 10.9414C8.35954 11.4835 8.15709 12.4644 8.59358 13.2428L8.77856 13.5789C9.43335 14.7799 10.2474 16.2738 13.2195 19.2454C16.1916 22.217 17.6851 23.0311 18.8855 23.6858L19.222 23.8713C20.0005 24.3077 20.9814 24.1053 21.5235 23.3964L23.3356 21.0668C23.5892 20.7437 24.0483 20.6693 24.391 20.8957L30.6134 25.0456C30.9627 25.2775 31.0675 25.7434 30.851 26.1026ZM18.6691 5.60032C23.4772 5.60567 27.3735 9.50207 27.3789 14.3101C27.3789 14.5931 27.6083 14.8224 27.8912 14.8224C28.1742 14.8224 28.4036 14.5931 28.4036 14.3101C28.3976 8.93637 24.0429 4.58157 18.6691 4.57569C18.3862 4.57569 18.1568 4.80504 18.1568 5.088C18.1568 5.37097 18.3862 5.60032 18.6691 5.60032Z" fill="#FF9549"/>
<path d="M18.6691 8.67436C21.7802 8.67802 24.3012 11.1991 24.3049 14.3101C24.3049 14.446 24.3589 14.5763 24.4549 14.6724C24.551 14.7684 24.6813 14.8224 24.8172 14.8224C24.9531 14.8224 25.0834 14.7684 25.1795 14.6724C25.2756 14.5763 25.3295 14.446 25.3295 14.3101C25.3253 10.6334 22.3458 7.65392 18.6691 7.64972C18.3862 7.64972 18.1568 7.87907 18.1568 8.16204C18.1568 8.44501 18.3862 8.67436 18.6691 8.67436Z" fill="#FF9549"/>
<path d="M18.6691 11.7484C20.0832 11.7501 21.2291 12.896 21.2309 14.3101C21.2309 14.446 21.2848 14.5763 21.3809 14.6724C21.477 14.7684 21.6073 14.8224 21.7432 14.8224C21.879 14.8224 22.0094 14.7684 22.1054 14.6724C22.2015 14.5763 22.2555 14.446 22.2555 14.3101C22.2532 12.3304 20.6489 10.726 18.6691 10.7238C18.3862 10.7238 18.1568 10.9531 18.1568 11.2361C18.1568 11.519 18.3862 11.7484 18.6691 11.7484Z" fill="#FF9549"/>
<path d="M7.90788 30.45C4.79687 30.4463 2.2758 27.9252 2.27213 24.8142C2.27213 24.6783 2.21816 24.548 2.12208 24.452C2.026 24.3559 1.89569 24.3019 1.75982 24.3019C1.62394 24.3019 1.49363 24.3559 1.39755 24.452C1.30147 24.548 1.2475 24.6783 1.2475 24.8142C1.25176 28.4909 4.23123 31.4704 7.90788 31.4746C8.19085 31.4746 8.4202 31.2453 8.4202 30.9623C8.4202 30.6793 8.19085 30.45 7.90788 30.45Z" fill="#FF9549"/>
<path d="M7.90788 27.3759C6.49383 27.3743 5.34791 26.2283 5.34617 24.8142C5.34617 24.6783 5.29219 24.548 5.19611 24.452C5.10004 24.3559 4.96973 24.3019 4.83385 24.3019C4.69798 24.3019 4.56766 24.3559 4.47159 24.452C4.37551 24.548 4.32153 24.6783 4.32153 24.8142C4.32381 26.794 5.92813 28.3984 7.90788 28.4006C8.19085 28.4006 8.4202 28.1712 8.4202 27.8883C8.4202 27.6053 8.19085 27.3759 7.90788 27.3759Z" fill="#FF9549"/>
<path d="M31.1861 24.1916L24.9632 20.0416C24.1735 19.5192 23.115 19.6911 22.5311 20.4366L20.7185 22.7672C20.6058 22.9158 20.4433 23.0188 20.2608 23.0572C20.0783 23.0956 19.8881 23.0669 19.7251 22.9763L19.3803 22.7862C18.2372 22.1632 16.815 21.3875 13.9495 18.521C11.084 15.6545 10.3067 14.2312 9.68372 13.0902L9.49465 12.7454C9.40287 12.5824 9.37306 12.3918 9.41072 12.2086C9.44837 12.0254 9.55095 11.862 9.69957 11.7484L12.0286 9.93627C12.7738 9.35239 12.946 8.29413 12.4242 7.50418L8.27422 1.28131C7.73945 0.476894 6.66654 0.235415 5.83865 0.733084L3.23647 2.29622C2.41885 2.77688 1.81901 3.55536 1.56268 4.46851C0.625644 7.88273 1.33057 13.7751 10.0106 22.4562C16.9154 29.3605 22.0557 31.2172 25.5888 31.2172C26.402 31.2207 27.2119 31.1149 27.9968 30.9027C28.9102 30.6467 29.6888 30.0468 30.1691 29.2289L31.7338 26.6283C32.2322 25.8002 31.9909 24.7266 31.1861 24.1916ZM30.851 26.1026L29.2899 28.7047C28.945 29.2951 28.385 29.7291 27.7273 29.9159C24.5754 30.7813 19.0688 30.0645 10.7356 21.7313C2.40234 13.3981 1.68565 7.89198 2.551 4.73959C2.73811 4.08105 3.17264 3.52038 3.76368 3.1749L6.36586 1.61381C6.72508 1.39766 7.19075 1.50243 7.4228 1.8515L11.5692 8.07384C11.7958 8.41649 11.7213 8.87573 11.3981 9.12928L9.06849 10.9414C8.35954 11.4835 8.15709 12.4644 8.59358 13.2428L8.77856 13.5789C9.43335 14.7799 10.2474 16.2738 13.2195 19.2454C16.1916 22.217 17.6851 23.0311 18.8855 23.6858L19.222 23.8713C20.0005 24.3077 20.9814 24.1053 21.5235 23.3964L23.3356 21.0668C23.5892 20.7437 24.0483 20.6693 24.391 20.8957L30.6134 25.0456C30.9627 25.2775 31.0675 25.7434 30.851 26.1026ZM18.6691 5.60032C23.4772 5.60567 27.3735 9.50207 27.3789 14.3101C27.3789 14.5931 27.6083 14.8224 27.8912 14.8224C28.1742 14.8224 28.4036 14.5931 28.4036 14.3101C28.3976 8.93637 24.0429 4.58157 18.6691 4.57569C18.3862 4.57569 18.1568 4.80504 18.1568 5.088C18.1568 5.37097 18.3862 5.60032 18.6691 5.60032Z" stroke="#FF9549" stroke-width="0.7"/>
<path d="M18.6691 8.67436C21.7802 8.67802 24.3012 11.1991 24.3049 14.3101C24.3049 14.446 24.3589 14.5763 24.4549 14.6724C24.551 14.7684 24.6813 14.8224 24.8172 14.8224C24.9531 14.8224 25.0834 14.7684 25.1795 14.6724C25.2756 14.5763 25.3295 14.446 25.3295 14.3101C25.3253 10.6334 22.3458 7.65392 18.6691 7.64972C18.3862 7.64972 18.1568 7.87907 18.1568 8.16204C18.1568 8.44501 18.3862 8.67436 18.6691 8.67436Z" stroke="#FF9549" stroke-width="0.7"/>
<path d="M18.6691 11.7484C20.0832 11.7501 21.2291 12.896 21.2309 14.3101C21.2309 14.446 21.2848 14.5763 21.3809 14.6724C21.477 14.7684 21.6073 14.8224 21.7432 14.8224C21.879 14.8224 22.0094 14.7684 22.1054 14.6724C22.2015 14.5763 22.2555 14.446 22.2555 14.3101C22.2532 12.3304 20.6489 10.726 18.6691 10.7238C18.3862 10.7238 18.1568 10.9531 18.1568 11.2361C18.1568 11.519 18.3862 11.7484 18.6691 11.7484Z" stroke="#FF9549" stroke-width="0.7"/>
<path d="M7.90788 30.45C4.79687 30.4463 2.2758 27.9252 2.27213 24.8142C2.27213 24.6783 2.21816 24.548 2.12208 24.452C2.026 24.3559 1.89569 24.3019 1.75982 24.3019C1.62394 24.3019 1.49363 24.3559 1.39755 24.452C1.30147 24.548 1.2475 24.6783 1.2475 24.8142C1.25176 28.4909 4.23123 31.4704 7.90788 31.4746C8.19085 31.4746 8.4202 31.2453 8.4202 30.9623C8.4202 30.6793 8.19085 30.45 7.90788 30.45Z" stroke="#FF9549" stroke-width="0.7"/>
<path d="M7.90788 27.3759C6.49383 27.3743 5.34791 26.2283 5.34617 24.8142C5.34617 24.6783 5.29219 24.548 5.19611 24.452C5.10004 24.3559 4.96973 24.3019 4.83385 24.3019C4.69798 24.3019 4.56766 24.3559 4.47159 24.452C4.37551 24.548 4.32153 24.6783 4.32153 24.8142C4.32381 26.794 5.92813 28.3984 7.90788 28.4006C8.19085 28.4006 8.4202 28.1712 8.4202 27.8883C8.4202 27.6053 8.19085 27.3759 7.90788 27.3759Z" stroke="#FF9549" stroke-width="0.7"/>
</svg>
