<svg width="114" height="118" viewBox="0 0 114 118" fill="none" xmlns="http://www.w3.org/2000/svg">
<g clip-path="url(#clip0_1_881)">
<circle cx="56" cy="47" r="46" fill="#FF9549"/>
<path d="M26.1792 42.9986L97.442 2.28651L112.49 75.1998L41.2276 116.447L26.1792 42.9986Z" fill="white" stroke="black"/>
<path opacity="0.2" d="M108.836 70.9322L41.1589 109.55L28.4354 44.0077L96.0355 5.39021L108.836 70.9322Z" fill="white" stroke="black"/>
<path d="M109.377 70.0816L41.6973 108.701L28.4388 44.0057L96.042 5.38644L109.377 70.0816Z" fill="white" stroke="black"/>
<path opacity="0.2" d="M110.54 70.7821L42.7789 109.48L28.4433 44.0032L96.0512 5.38119L110.54 70.7821Z" fill="white" stroke="black"/>
<path d="M110.849 69.7757L43.0855 108.399L28.446 44.0016L96.056 5.37846L110.849 69.7757Z" fill="white" stroke="black"/>
<path d="M40.0485 75.0839L65.1485 61.0197L66.9332 68.5364L41.8372 82.8227L40.0485 75.0839Z" fill="white" stroke="black"/>
<path d="M55.5426 56.0151L71.6826 46.8445L73.4008 54.5071L57.3311 63.753L55.5426 56.0151Z" fill="white" stroke="black"/>
<path d="M95.7397 22.048L97.5375 30.1701L72.3022 44.5997L70.7127 36.4126L95.7397 22.048Z" fill="white" stroke="black"/>
<path d="M60.6267 84.3569L62.4988 92.6393L45.9727 102.04L44.1696 93.6869L60.6267 84.3569Z" fill="white" stroke="black"/>
<mask id="path-11-inside-1_1_881" fill="white">
<path d="M34.5701 55.9208L96.3127 20.6553L107.057 67.8569L107.135 68.1669L45.3147 103.432L34.5701 55.9208ZM95.7677 21.8954L35.4266 56.3084L45.7819 102.192L106.201 67.7019L95.7677 21.8954Z"/>
</mask>
<path d="M34.5701 55.9208L96.3127 20.6553L107.057 67.8569L107.135 68.1669L45.3147 103.432L34.5701 55.9208ZM95.7677 21.8954L35.4266 56.3084L45.7819 102.192L106.201 67.7019L95.7677 21.8954Z" fill="white"/>
<path d="M34.5701 55.9208L34.0741 55.0525L33.4315 55.4196L33.5947 56.1414L34.5701 55.9208ZM96.3127 20.6553L97.2877 20.4333L96.9883 19.1178L95.8167 19.7869L96.3127 20.6553ZM107.057 67.8569L106.082 68.0788L106.085 68.0897L106.087 68.1005L107.057 67.8569ZM107.135 68.1669L107.631 69.0355L108.29 68.6594L108.105 67.9233L107.135 68.1669ZM45.3147 103.432L44.3394 103.653L44.6372 104.97L45.8102 104.301L45.3147 103.432ZM95.7677 21.8954L96.7427 21.6733L96.4433 20.3589L95.2722 21.0267L95.7677 21.8954ZM35.4266 56.3084L34.9312 55.4397L34.2881 55.8064L34.4511 56.5285L35.4266 56.3084ZM45.7819 102.192L44.8064 102.413L45.1039 103.731L46.2776 103.061L45.7819 102.192ZM106.201 67.7019L106.697 68.5703L107.341 68.2027L107.176 67.4798L106.201 67.7019ZM35.0661 56.7892L96.8086 21.5236L95.8167 19.7869L34.0741 55.0525L35.0661 56.7892ZM95.3376 20.8772L106.082 68.0788L108.032 67.6349L97.2877 20.4333L95.3376 20.8772ZM106.087 68.1005L106.165 68.4105L108.105 67.9233L108.027 67.6133L106.087 68.1005ZM106.64 67.2983L44.8192 102.564L45.8102 104.301L107.631 69.0355L106.64 67.2983ZM46.2901 103.212L35.5455 55.7003L33.5947 56.1414L44.3394 103.653L46.2901 103.212ZM95.2722 21.0267L34.9312 55.4397L35.922 57.177L96.2631 22.764L95.2722 21.0267ZM34.4511 56.5285L44.8064 102.413L46.7573 101.972L36.402 56.0882L34.4511 56.5285ZM46.2776 103.061L106.697 68.5703L105.705 66.8334L45.2861 101.324L46.2776 103.061ZM107.176 67.4798L96.7427 21.6733L94.7926 22.1175L105.226 67.9239L107.176 67.4798Z" fill="black" mask="url(#path-11-inside-1_1_881)"/>
<mask id="path-13-inside-2_1_881" fill="white">
<path d="M35.4311 55.6312L34.6712 55.7998L45.2262 102.928L45.9861 102.759L35.4311 55.6312Z"/>
</mask>
<path d="M35.4311 55.6312L34.6712 55.7998L45.2262 102.928L45.9861 102.759L35.4311 55.6312Z" fill="white"/>
<path d="M34.6712 55.7998L34.4526 54.824L33.4764 55.0407L33.695 56.0165L34.6712 55.7998ZM35.4311 55.6312L36.4073 55.4145L36.1888 54.4387L35.2126 54.6554L35.4311 55.6312ZM45.9861 102.759L46.2046 103.735L47.1809 103.518L46.9623 102.542L45.9861 102.759ZM45.2262 102.928L44.25 103.144L44.4685 104.12L45.4447 103.903L45.2262 102.928ZM34.8897 56.7756L35.6496 56.6069L35.2126 54.6554L34.4526 54.824L34.8897 56.7756ZM34.4549 55.8478L45.0099 102.976L46.9623 102.542L36.4073 55.4145L34.4549 55.8478ZM45.7676 101.783L45.0076 101.952L45.4447 103.903L46.2046 103.735L45.7676 101.783ZM46.2024 102.711L35.6474 55.5831L33.695 56.0165L44.25 103.144L46.2024 102.711Z" fill="black" mask="url(#path-13-inside-2_1_881)"/>
<mask id="path-15-inside-3_1_881" fill="white">
<path d="M54.0354 97.9301L53.1789 91.032L43.9915 50.7285L44.848 57.5491L54.0354 97.9301Z"/>
</mask>
<path d="M54.0354 97.9301L53.1789 91.032L43.9915 50.7285L44.848 57.5491L54.0354 97.9301Z" fill="white"/>
<path d="M54.0354 97.9301L53.0603 98.152L55.0277 97.8069L54.0354 97.9301ZM53.1789 91.032L54.1713 90.9088L54.1651 90.8588L54.1539 90.8098L53.1789 91.032ZM43.9915 50.7285L44.9665 50.5063L42.9993 50.8531L43.9915 50.7285ZM44.848 57.5491L43.8557 57.6737L43.8619 57.7227L43.8729 57.771L44.848 57.5491ZM55.0277 97.8069L54.1713 90.9088L52.1865 91.1552L53.043 98.0533L55.0277 97.8069ZM54.1539 90.8098L44.9665 50.5063L43.0165 50.9508L52.2039 91.2543L54.1539 90.8098ZM42.9993 50.8531L43.8557 57.6737L45.8402 57.4245L44.9837 50.6039L42.9993 50.8531ZM43.8729 57.771L53.0603 98.152L55.0105 97.7083L45.823 57.3273L43.8729 57.771Z" fill="black" mask="url(#path-15-inside-3_1_881)"/>
<mask id="path-17-inside-4_1_881" fill="white">
<path d="M62.8332 92.8917L60.3417 79.328L52.6336 45.7676L55.1251 59.3313L62.8332 92.8917Z"/>
</mask>
<path d="M62.8332 92.8917L60.3417 79.328L52.6336 45.7676L55.1251 59.3313L62.8332 92.8917Z" fill="white"/>
<path d="M62.8332 92.8917L61.8586 93.1155L63.8167 92.711L62.8332 92.8917ZM60.3417 79.328L61.3252 79.1473L61.3212 79.1256L61.3163 79.1041L60.3417 79.328ZM52.6336 45.7676L53.6082 45.5437L51.65 45.9482L52.6336 45.7676ZM55.1251 59.3313L54.1415 59.5119L54.1455 59.5336L54.1505 59.5551L55.1251 59.3313ZM63.8167 92.711L61.3252 79.1473L59.3581 79.5087L61.8496 93.0723L63.8167 92.711ZM61.3163 79.1041L53.6082 45.5437L51.659 45.9914L59.367 79.5518L61.3163 79.1041ZM51.65 45.9482L54.1415 59.5119L56.1086 59.1506L53.6171 45.5869L51.65 45.9482ZM54.1505 59.5551L61.8586 93.1155L63.8078 92.6678L56.0997 59.1074L54.1505 59.5551Z" fill="black" mask="url(#path-17-inside-4_1_881)"/>
<mask id="path-19-inside-5_1_881" fill="white">
<path d="M71.7093 87.9317L67.5828 67.6249L61.2762 40.8076L65.3249 61.0369L71.7093 87.9317Z"/>
</mask>
<path d="M71.7093 87.9317L67.5828 67.6249L61.2762 40.8076L65.3249 61.0369L71.7093 87.9317Z" fill="white"/>
<path d="M71.7093 87.9317L70.7364 88.1627L72.6893 87.7326L71.7093 87.9317ZM67.5828 67.6249L68.5628 67.4258L68.5597 67.4109L68.5562 67.396L67.5828 67.6249ZM61.2762 40.8076L62.2496 40.5787L60.2956 41.0039L61.2762 40.8076ZM65.3249 61.0369L64.3443 61.2331L64.3478 61.2505L64.3519 61.2678L65.3249 61.0369ZM72.6893 87.7326L68.5628 67.4258L66.6028 67.8241L70.7294 88.1309L72.6893 87.7326ZM68.5562 67.396L62.2496 40.5787L60.3027 41.0365L66.6093 67.8539L68.5562 67.396ZM60.2956 41.0039L64.3443 61.2331L66.3054 60.8406L62.2567 40.6114L60.2956 41.0039ZM64.3519 61.2678L70.7364 88.1627L72.6823 87.7007L66.2978 60.8059L64.3519 61.2678Z" fill="black" mask="url(#path-19-inside-5_1_881)"/>
<mask id="path-21-inside-6_1_881" fill="white">
<path d="M80.5074 82.8933L74.8236 55.9209L69.8406 35.8467L75.6022 62.819L80.5074 82.8933Z"/>
</mask>
<path d="M80.5074 82.8933L74.8236 55.9209L69.8406 35.8467L75.6022 62.819L80.5074 82.8933Z" fill="white"/>
<path d="M80.5074 82.8933L79.5359 83.1306L81.4859 82.6871L80.5074 82.8933ZM74.8236 55.9209L75.8021 55.7147L75.7985 55.6973L75.7942 55.68L74.8236 55.9209ZM69.8406 35.8467L70.8112 35.6058L68.8627 36.0556L69.8406 35.8467ZM75.6022 62.819L74.6243 63.0279L74.6273 63.0422L74.6308 63.0564L75.6022 62.819ZM81.4859 82.6871L75.8021 55.7147L73.8451 56.1271L79.5289 83.0995L81.4859 82.6871ZM75.7942 55.68L70.8112 35.6058L68.8701 36.0876L73.8531 56.1618L75.7942 55.68ZM68.8627 36.0556L74.6243 63.0279L76.5802 62.6101L70.8186 35.6378L68.8627 36.0556ZM74.6308 63.0564L79.5359 83.1306L81.4788 82.6559L76.5736 62.5817L74.6308 63.0564Z" fill="black" mask="url(#path-21-inside-6_1_881)"/>
<mask id="path-23-inside-7_1_881" fill="white">
<path d="M89.3835 77.9323L81.9869 44.2169L78.4832 30.8857L85.802 64.6012L89.3835 77.9323Z"/>
</mask>
<path d="M89.3835 77.9323L81.9869 44.2169L78.4832 30.8857L85.802 64.6012L89.3835 77.9323Z" fill="white"/>
<path d="M89.3835 77.9323L88.4178 78.1918L90.3603 77.718L89.3835 77.9323ZM81.9869 44.2169L82.9636 44.0026L82.9592 43.9826L82.954 43.9627L81.9869 44.2169ZM78.4832 30.8857L79.4504 30.6316L77.506 31.0979L78.4832 30.8857ZM85.802 64.6012L84.8248 64.8133L84.8299 64.8371L84.8362 64.8606L85.802 64.6012ZM90.3603 77.718L82.9636 44.0026L81.0101 44.4312L88.4068 78.1466L90.3603 77.718ZM82.954 43.9627L79.4504 30.6316L77.516 31.1399L81.0197 44.4711L82.954 43.9627ZM77.506 31.0979L84.8248 64.8133L86.7792 64.389L79.4604 30.6736L77.506 31.0979ZM84.8362 64.8606L88.4178 78.1918L90.3493 77.6729L86.7677 64.3417L84.8362 64.8606Z" fill="black" mask="url(#path-23-inside-7_1_881)"/>
<mask id="path-25-inside-8_1_881" fill="white">
<path d="M98.1816 72.8949L89.2277 32.5139L87.0477 25.9258L96.0793 66.3068L98.1816 72.8949Z"/>
</mask>
<path d="M98.1816 72.8949L89.2277 32.5139L87.0477 25.9258L96.0793 66.3068L98.1816 72.8949Z" fill="white"/>
<path d="M98.1816 72.8949L97.2289 73.1989L99.1578 72.6784L98.1816 72.8949ZM89.2277 32.5139L90.204 32.2974L90.193 32.2479L90.1771 32.1997L89.2277 32.5139ZM87.0477 25.9258L87.997 25.6116L86.0718 26.1441L87.0477 25.9258ZM96.0793 66.3068L95.1035 66.5251L95.1132 66.5684L95.1267 66.6108L96.0793 66.3068ZM99.1578 72.6784L90.204 32.2974L88.2514 32.7303L97.2053 73.1113L99.1578 72.6784ZM90.1771 32.1997L87.997 25.6116L86.0983 26.2399L88.2783 32.828L90.1771 32.1997ZM86.0718 26.1441L95.1035 66.5251L97.0552 66.0885L88.0235 25.7075L86.0718 26.1441ZM95.1267 66.6108L97.2289 73.1989L99.1342 72.5909L97.032 66.0028L95.1267 66.6108Z" fill="black" mask="url(#path-25-inside-8_1_881)"/>
<mask id="path-27-inside-9_1_881" fill="white">
<path d="M96.46 20.8471L95.7003 21.0166L106.292 68.0591L107.051 67.8896L96.46 20.8471Z"/>
</mask>
<path d="M96.46 20.8471L95.7003 21.0166L106.292 68.0591L107.051 67.8896L96.46 20.8471Z" fill="white"/>
<path d="M95.7003 21.0166L95.4806 20.041L94.5046 20.2588L94.7242 21.2344L95.7003 21.0166ZM96.46 20.8471L97.436 20.6293L97.2164 19.6538L96.2404 19.8715L96.46 20.8471ZM107.051 67.8896L107.271 68.8652L108.247 68.6475L108.027 67.6719L107.051 67.8896ZM106.292 68.0591L105.316 68.2769L105.535 69.2525L106.511 69.0347L106.292 68.0591ZM95.9199 21.9922L96.6797 21.8227L96.2404 19.8715L95.4806 20.041L95.9199 21.9922ZM95.484 21.0649L106.075 68.1074L108.027 67.6719L97.436 20.6293L95.484 21.0649ZM106.832 66.914L106.072 67.0836L106.511 69.0347L107.271 68.8652L106.832 66.914ZM107.268 67.8414L96.6763 20.7988L94.7242 21.2344L105.316 68.2769L107.268 67.8414Z" fill="black" mask="url(#path-27-inside-9_1_881)"/>
<mask id="path-29-inside-10_1_881" fill="white">
<path d="M106.499 67.6692L45.3727 102.559L45.7599 103.231L106.886 68.3415L106.499 67.6692Z"/>
</mask>
<path d="M106.499 67.6692L45.3727 102.559L45.7599 103.231L106.886 68.3415L106.499 67.6692Z" fill="white"/>
<path d="M45.3727 102.559L44.8736 101.692L44.0051 102.188L44.5042 103.054L45.3727 102.559ZM106.499 67.6692L107.368 67.1735L106.869 66.3069L106 66.8026L106.499 67.6692ZM106.886 68.3415L107.386 69.2081L108.254 68.7124L107.755 67.8458L106.886 68.3415ZM45.7599 103.231L44.8915 103.727L45.3906 104.593L46.259 104.097L45.7599 103.231ZM45.8718 103.425L106.998 68.5357L106 66.8026L44.8736 101.692L45.8718 103.425ZM105.631 68.1649L106.018 68.8372L107.755 67.8458L107.368 67.1735L105.631 68.1649ZM106.387 67.475L45.2608 102.364L46.259 104.097L107.386 69.2081L106.387 67.475ZM46.6284 102.735L46.2411 102.063L44.5042 103.054L44.8915 103.727L46.6284 102.735Z" fill="black" mask="url(#path-29-inside-10_1_881)"/>
<mask id="path-31-inside-11_1_881" fill="white">
<path d="M55.9056 86.8465L104.723 58.7891L92.1881 65.2221L43.448 93.2796L55.9056 86.8465Z"/>
</mask>
<path d="M55.9056 86.8465L104.723 58.7891L92.1881 65.2221L43.448 93.2796L55.9056 86.8465Z" fill="white"/>
<path d="M55.9056 86.8465L56.3644 87.735L56.3844 87.7247L56.4039 87.7135L55.9056 86.8465ZM104.723 58.7891L105.222 59.6561L104.267 57.8994L104.723 58.7891ZM92.1881 65.2221L91.7315 64.3324L91.71 64.3434L91.6892 64.3555L92.1881 65.2221ZM43.448 93.2796L42.9491 92.4129L43.9069 94.1681L43.448 93.2796ZM56.4039 87.7135L105.222 59.6561L104.225 57.9221L55.4073 85.9795L56.4039 87.7135ZM104.267 57.8994L91.7315 64.3324L92.6446 66.1118L105.18 59.6787L104.267 57.8994ZM91.6892 64.3555L42.9491 92.4129L43.9469 94.1462L92.687 66.0888L91.6892 64.3555ZM43.9069 94.1681L56.3644 87.735L55.4467 85.958L42.9892 92.391L43.9069 94.1681Z" fill="black" mask="url(#path-31-inside-11_1_881)"/>
<mask id="path-33-inside-12_1_881" fill="white">
<path d="M66.1051 70.4923L102.621 49.333L77.9397 62.8192L41.4236 84.056L66.1051 70.4923Z"/>
</mask>
<path d="M66.1051 70.4923L102.621 49.333L77.9397 62.8192L41.4236 84.056L66.1051 70.4923Z" fill="white"/>
<path d="M66.1051 70.4923L66.5867 71.3687L66.5966 71.3633L66.6064 71.3576L66.1051 70.4923ZM102.621 49.333L103.123 50.1982L102.142 48.4555L102.621 49.333ZM77.9397 62.8192L77.4602 61.9416L77.4485 61.948L77.437 61.9547L77.9397 62.8192ZM41.4236 84.056L40.9209 83.1916L41.9052 84.9324L41.4236 84.056ZM66.6064 71.3576L103.123 50.1982L102.12 48.4678L65.6037 69.6271L66.6064 71.3576ZM102.142 48.4555L77.4602 61.9416L78.4192 63.6967L103.101 50.2106L102.142 48.4555ZM77.437 61.9547L40.9209 83.1916L41.9264 84.9205L78.4425 63.6836L77.437 61.9547ZM41.9052 84.9324L66.5867 71.3687L65.6235 69.616L40.942 83.1796L41.9052 84.9324Z" fill="black" mask="url(#path-33-inside-12_1_881)"/>
<mask id="path-35-inside-13_1_881" fill="white">
<path d="M76.3054 54.1385L100.442 39.7998L63.6921 60.4166L39.4778 74.7553L76.3054 54.1385Z"/>
</mask>
<path d="M76.3054 54.1385L100.442 39.7998L63.6921 60.4166L39.4778 74.7553L76.3054 54.1385Z" fill="white"/>
<path d="M76.3054 54.1385L76.7938 55.0111L76.805 55.0048L76.8161 54.9983L76.3054 54.1385ZM100.442 39.7998L100.953 40.6595L99.9525 38.9277L100.442 39.7998ZM63.6921 60.4166L63.2028 59.5445L63.1927 59.5502L63.1826 59.5561L63.6921 60.4166ZM39.4778 74.7553L38.9683 73.8949L39.9663 75.6279L39.4778 74.7553ZM76.8161 54.9983L100.953 40.6595L99.931 38.9401L75.7946 53.2788L76.8161 54.9983ZM99.9525 38.9277L63.2028 59.5445L64.1814 61.2887L100.931 40.6719L99.9525 38.9277ZM63.1826 59.5561L38.9683 73.8949L39.9874 75.6158L64.2016 61.2771L63.1826 59.5561ZM39.9663 75.6279L76.7938 55.0111L75.8169 53.266L38.9893 73.8828L39.9663 75.6279Z" fill="black" mask="url(#path-35-inside-13_1_881)"/>
<mask id="path-37-inside-14_1_881" fill="white">
<path d="M86.4268 37.7838L98.3393 30.2656L49.4435 58.013L37.5311 65.5312L86.4268 37.7838Z"/>
</mask>
<path d="M86.4268 37.7838L98.3393 30.2656L49.4435 58.013L37.5311 65.5312L86.4268 37.7838Z" fill="white"/>
<path d="M86.4268 37.7838L86.9203 38.6535L86.9407 38.6419L86.9605 38.6294L86.4268 37.7838ZM98.3393 30.2656L98.873 31.1113L97.8457 29.3959L98.3393 30.2656ZM49.4435 58.013L48.95 57.1433L48.9296 57.1549L48.9098 57.1674L49.4435 58.013ZM37.5311 65.5312L36.9973 64.6855L38.0246 66.4009L37.5311 65.5312ZM86.9605 38.6294L98.873 31.1113L97.8056 29.42L85.8931 36.9381L86.9605 38.6294ZM97.8457 29.3959L48.95 57.1433L49.9371 58.8828L98.8328 31.1353L97.8457 29.3959ZM48.9098 57.1674L36.9973 64.6855L38.0648 66.3769L49.9773 58.8587L48.9098 57.1674ZM38.0246 66.4009L86.9203 38.6535L85.9332 36.9141L37.0375 64.6615L38.0246 66.4009Z" fill="black" mask="url(#path-37-inside-14_1_881)"/>
<mask id="path-39-inside-15_1_881" fill="white">
<path d="M96.2892 20.7634L35.2303 55.6143L35.6175 56.2866L96.6765 21.4358L96.2892 20.7634Z"/>
</mask>
<path d="M96.2892 20.7634L35.2303 55.6143L35.6175 56.2866L96.6765 21.4358L96.2892 20.7634Z" fill="white"/>
<path d="M35.2303 55.6143L34.7312 54.7477L33.8627 55.2434L34.3618 56.11L35.2303 55.6143ZM96.2892 20.7634L97.1577 20.2677L96.6586 19.4012L95.7901 19.8969L96.2892 20.7634ZM96.6765 21.4358L97.1756 22.3023L98.0441 21.8066L97.545 20.9401L96.6765 21.4358ZM35.6175 56.2866L34.7491 56.7823L35.2482 57.6489L36.1166 57.1532L35.6175 56.2866ZM35.7294 56.4808L96.7883 21.6299L95.7901 19.8969L34.7312 54.7477L35.7294 56.4808ZM95.4207 21.2591L95.808 21.9315L97.545 20.9401L97.1577 20.2677L95.4207 21.2591ZM96.1774 20.5692L35.1184 55.4201L36.1166 57.1532L97.1756 22.3023L96.1774 20.5692ZM36.486 55.7909L36.0987 55.1186L34.3618 56.11L34.7491 56.7823L36.486 55.7909Z" fill="black" mask="url(#path-39-inside-15_1_881)"/>
<path d="M25.553 44.9243L40.0926 115.89L25.9434 103.673L25.86 103.601L25.7541 103.571L11.0436 99.3656L25.553 44.9243Z" fill="white" stroke="black"/>
<path d="M11.1973 98.7889L25.5529 44.9244L33.93 85.8155L11.1973 98.7889Z" fill="white" stroke="black"/>
<path d="M40.0932 115.89L26.3332 104.01L36.4774 98.2391L40.0932 115.89Z" fill="white" stroke="black"/>
<mask id="path-44-inside-16_1_881" fill="white">
<path d="M10.434 99.7113L25.6945 104.129L40.9549 117.305L25.6166 42.7439L10.434 99.7113ZM10.9012 99.4013L25.6166 44.5266L40.2542 116.143L25.8502 103.742L10.9012 99.4013Z"/>
</mask>
<path d="M10.434 99.7113L25.6945 104.129L40.9549 117.305L25.6166 42.7439L10.434 99.7113ZM10.9012 99.4013L25.6166 44.5266L40.2542 116.143L25.8502 103.742L10.9012 99.4013Z" fill="white"/>
<path d="M10.434 99.7113L9.46775 99.4538L9.21566 100.4L10.1559 100.672L10.434 99.7113ZM25.6945 104.129L26.348 103.372L26.1825 103.229L25.9726 103.169L25.6945 104.129ZM40.9549 117.305L40.3014 118.062L42.5268 119.984L41.9344 117.104L40.9549 117.305ZM25.6166 42.7439L26.5961 42.5424L24.6503 42.4864L25.6166 42.7439ZM10.9012 99.4013L9.9353 99.1423L9.68157 100.089L10.6223 100.362L10.9012 99.4013ZM25.6166 44.5266L26.5964 44.3263L24.6507 44.2675L25.6166 44.5266ZM40.2542 116.143L39.6017 116.901L41.8201 118.811L41.2339 115.943L40.2542 116.143ZM25.8502 103.742L26.5026 102.984L26.3379 102.842L26.129 102.781L25.8502 103.742ZM10.1559 100.672L25.4164 105.09L25.9726 103.169L10.7121 98.7508L10.1559 100.672ZM25.041 104.886L40.3014 118.062L41.6085 116.548L26.348 103.372L25.041 104.886ZM41.9344 117.104L26.5961 42.5424L24.6371 42.9454L39.9754 117.507L41.9344 117.104ZM24.6503 42.4864L9.46775 99.4538L11.4003 99.9689L26.5829 43.0014L24.6503 42.4864ZM11.8671 99.6603L26.5825 44.7856L24.6507 44.2675L9.9353 99.1423L11.8671 99.6603ZM24.6369 44.7268L39.2745 116.343L41.2339 115.943L26.5964 44.3263L24.6369 44.7268ZM40.9066 115.385L26.5026 102.984L25.1977 104.5L39.6017 116.901L40.9066 115.385ZM26.129 102.781L11.18 98.441L10.6223 100.362L25.5714 104.702L26.129 102.781Z" fill="black" mask="url(#path-44-inside-16_1_881)"/>
<path d="M32.5873 46.8592L32.2546 45.2505L35.232 43.5907L35.5647 45.1994L32.5873 46.8592Z" fill="white" stroke="black"/>
<path d="M42.3153 41.2802L41.9872 39.7402L44.9659 38.0203L45.2964 39.6184L42.3153 41.2802Z" fill="white" stroke="black"/>
<path d="M52.0495 35.7647L51.7178 34.161L54.6985 32.44L55.0302 34.0437L52.0495 35.7647Z" fill="white" stroke="black"/>
<path d="M61.7824 30.184L61.4519 28.586L64.433 26.9241L64.7611 28.4642L61.7824 30.184Z" fill="white" stroke="black"/>
<path d="M71.5138 24.6159L71.1856 23.0759L74.1644 21.356L74.4949 22.9541L71.5138 24.6159Z" fill="white" stroke="black"/>
<path d="M81.2469 19.1006L80.9152 17.4969L83.8959 15.7759L84.2276 17.3796L81.2469 19.1006Z" fill="white" stroke="black"/>
<path d="M90.9796 13.5202L90.6491 11.9221L93.6302 10.2603L93.9584 11.8003L90.9796 13.5202Z" fill="white" stroke="black"/>
<path d="M30.185 35.3435L30.1849 35.3436L30.1962 35.3501C31.3906 36.0347 32.5011 37.205 33.3136 38.5808C34.1261 39.9567 34.6164 41.4973 34.6164 42.8995C34.6164 44.1348 34.2508 45.0423 33.637 45.5311L33.6154 45.5484L33.5958 45.5679C33.3275 45.835 32.9343 46.0194 32.4793 46.1241L32.3694 45.55C32.6805 45.4802 32.9338 45.3274 33.1576 45.1603L33.1861 45.1391L33.2112 45.114C33.7238 44.6037 33.9814 43.8375 33.9814 42.8995C33.9814 41.6257 33.5166 40.2025 32.7947 38.9574C32.0727 37.7123 31.0605 36.5886 29.9082 35.9514L29.9082 35.9514L29.9048 35.9495C29.0236 35.471 28.0273 35.1959 27.239 35.6443C26.441 36.0982 26.2076 37.056 26.2076 38.0941C26.2076 39.1504 26.54 40.3054 27.06 41.4406L26.4574 41.7563C25.8416 40.4834 25.4947 39.2468 25.4947 38.0941C25.4947 36.5673 26.0014 35.5389 26.877 35.0409C27.7705 34.5326 28.8966 34.5597 30.185 35.3435Z" fill="white" stroke="black"/>
<path d="M36.5843 29.551L36.5967 29.5448L36.6087 29.5379C37.5023 29.0296 38.6283 29.0567 39.9167 29.8405L39.9166 29.8407L39.928 29.8472C41.1224 30.5317 42.2329 31.7021 43.0453 33.0779C43.8578 34.4538 44.3482 35.9944 44.3482 37.3966C44.3482 38.6318 43.9826 39.5394 43.3688 40.0282L43.3471 40.0454L43.3275 40.065C43.0592 40.332 42.6661 40.5164 42.211 40.6212L42.1012 40.047C42.4122 39.9772 42.6655 39.8245 42.8894 39.6574L42.9178 39.6361L42.943 39.6111C43.4556 39.1008 43.7131 38.3346 43.7131 37.3966C43.7131 36.1228 43.2484 34.6995 42.5264 33.4545C41.8044 32.2094 40.7922 31.0857 39.64 30.4484L39.64 30.4484L39.6366 30.4466C38.7554 29.9681 37.759 29.6929 36.9707 30.1414C36.1728 30.5953 35.9393 31.5531 35.9393 32.5911C35.9393 33.6475 36.2718 34.8025 36.7918 35.9376L36.1891 36.2534C35.5734 34.9805 35.2264 33.7439 35.2264 32.5911C35.2264 30.9705 35.7413 29.9705 36.5843 29.551Z" fill="white" stroke="black"/>
<path d="M49.6493 24.2592L49.6492 24.2594L49.6606 24.2659C50.855 24.9504 51.9655 26.1208 52.778 27.4966C53.5904 28.8725 54.0808 30.4131 54.0808 31.8153C54.0808 33.0505 53.7152 33.9581 53.1014 34.4469L53.0797 34.4641L53.0601 34.4837C52.7926 34.75 52.401 34.9341 51.9477 35.039L51.829 34.3893C52.1423 34.32 52.397 34.1665 52.622 33.9986L52.6504 33.9773L52.6756 33.9523C53.1882 33.442 53.4457 32.6758 53.4457 31.7378C53.4457 30.464 52.981 29.0407 52.259 27.7957C51.537 26.5506 50.5248 25.4269 49.3726 24.7896L49.3726 24.7896L49.3692 24.7878C48.488 24.3093 47.4916 24.0341 46.7033 24.4826C45.9054 24.9365 45.6719 25.8942 45.6719 26.9323C45.6719 27.9887 46.0044 29.1437 46.5244 30.2788L45.9217 30.5946C45.306 29.3217 44.959 28.0851 44.959 26.9323C44.959 25.4169 45.4585 24.4588 46.3413 23.9566C47.2349 23.4483 48.3609 23.4754 49.6493 24.2592Z" fill="white" stroke="black"/>
<path d="M59.3822 18.6789L59.3821 18.6791L59.3935 18.6855C60.5879 19.3701 61.6984 20.5404 62.5108 21.9163C63.3233 23.2922 63.8137 24.8328 63.8137 26.2349C63.8137 27.4702 63.4481 28.3777 62.8343 28.8666L62.8126 28.8838L62.793 28.9033C62.5247 29.1704 62.1316 29.3548 61.6765 29.4596L61.5667 28.8854C61.8777 28.8156 62.131 28.6629 62.3549 28.4958L62.3833 28.4745L62.4085 28.4495C62.9211 27.9392 63.1786 27.173 63.1786 26.2349C63.1786 24.9612 62.7139 23.5379 61.9919 22.2929C61.2699 21.0477 60.2577 19.9241 59.1055 19.2868L59.1055 19.2868L59.1021 19.285C58.2209 18.8065 57.2245 18.5313 56.4362 18.9797C55.6383 19.4336 55.4048 20.3914 55.4048 21.4295C55.4048 22.4858 55.7373 23.6409 56.2573 24.776L55.6546 25.0918C55.0389 23.8189 54.6919 22.5823 54.6919 21.4295C54.6919 19.9027 55.1987 18.8744 56.0742 18.3763C56.9678 17.868 58.0938 17.8951 59.3822 18.6789Z" fill="white" stroke="black"/>
<path d="M69.1152 13.0981L69.1151 13.0982L69.1264 13.1047C70.3208 13.7893 71.4313 14.9596 72.2438 16.3355C73.0563 17.7114 73.5466 19.252 73.5466 20.6541C73.5466 21.8894 73.181 22.7969 72.5672 23.2858L72.5456 23.303L72.5259 23.3225C72.2577 23.5896 71.8645 23.774 71.4095 23.8787L71.2996 23.3046C71.6107 23.2348 71.864 23.0821 72.0878 22.9149L72.1162 22.8937L72.1414 22.8686C72.654 22.3584 72.9115 21.5922 72.9115 20.6541C72.9115 19.3804 72.4468 17.9571 71.7248 16.7121C71.0028 15.4669 69.9906 14.3433 68.8384 13.706L68.8384 13.706L68.835 13.7042C67.9538 13.2257 66.9574 12.9505 66.1691 13.3989C65.3712 13.8528 65.1378 14.8106 65.1378 15.8487C65.1378 16.905 65.4702 18.0601 65.9902 19.1952L65.3876 19.5109C64.7718 18.2381 64.4249 17.0014 64.4249 15.8487C64.4249 14.3219 64.9316 13.2935 65.8071 12.7955C66.7007 12.2872 67.8267 12.3143 69.1152 13.0981Z" fill="white" stroke="black"/>
<path d="M78.8476 7.59517L78.8475 7.59532L78.8588 7.6018C80.0532 8.28638 81.1637 9.45669 81.9762 10.8325C82.7887 12.2084 83.279 13.749 83.279 15.1512C83.279 16.3865 82.9134 17.294 82.2996 17.7828L82.278 17.8001L82.2584 17.8196C81.9901 18.0867 81.5969 18.2711 81.1419 18.3758L81.032 17.8017C81.3431 17.7319 81.5964 17.5791 81.8202 17.412L81.8487 17.3908L81.8738 17.3657C82.3864 16.8554 82.644 16.0892 82.644 15.1512C82.644 13.8774 82.1792 12.4542 81.4573 11.2091C80.7353 9.964 79.7231 8.84032 78.5708 8.20309L78.5708 8.20307L78.5674 8.20123C77.6862 7.72276 76.6899 7.44759 75.9016 7.896C75.1036 8.3499 74.8702 9.30769 74.8702 10.3458C74.8702 11.4021 75.2026 12.5571 75.7226 13.6923L75.12 14.008C74.5042 12.7351 74.1573 11.4985 74.1573 10.3458C74.1573 8.74711 74.6605 7.79263 75.5395 7.29258C76.4331 6.78428 77.5592 6.81137 78.8476 7.59517Z" fill="white" stroke="black"/>
<path d="M88.5795 2.01509L88.5794 2.01524L88.5907 2.02173C89.7851 2.7063 90.8956 3.87662 91.7081 5.25246C92.5206 6.62836 93.0109 8.16895 93.0109 9.57112C93.0109 10.8064 92.6453 11.7139 92.0315 12.2028L92.0099 12.22L91.9903 12.2395C91.722 12.5066 91.3288 12.691 90.8738 12.7957L90.7639 12.2216C91.075 12.1518 91.3283 11.999 91.5521 11.8319L91.5806 11.8107L91.6057 11.7856C92.1183 11.2754 92.3758 10.5092 92.3758 9.57112C92.3758 8.29736 91.9111 6.87411 91.1892 5.62905C90.4672 4.38392 89.455 3.26024 88.3027 2.62301L88.3027 2.623L88.2993 2.62115C87.4181 2.14268 86.4217 1.86751 85.6334 2.31592C84.8355 2.76982 84.6021 3.72762 84.6021 4.7657C84.6021 5.82203 84.9345 6.97706 85.4545 8.11219L84.8519 8.42794C84.2361 7.15505 83.8892 5.91844 83.8892 4.7657C83.8892 3.23892 84.3959 2.21053 85.2714 1.7125C86.165 1.20421 87.291 1.23129 88.5795 2.01509Z" fill="white" stroke="black"/>
<path d="M88.4596 23.3401L88.4596 23.3401L88.4654 23.3368L94.8351 19.7024C94.9345 19.6563 95.0223 19.6653 95.0789 19.6921C95.1303 19.7165 95.1818 19.7664 95.1972 19.8733L95.1983 19.8814L95.1998 19.8895L95.3716 20.859L87.8226 25.1335L87.7774 24.8413L87.7776 24.8413L87.7751 24.8279C87.6581 24.1869 87.9464 23.6239 88.4596 23.3401Z" fill="white" stroke="black"/>
<path d="M79.7395 28.3003L79.7395 28.3003L79.7453 28.297L86.1151 24.6626C86.2145 24.6165 86.3022 24.6255 86.3589 24.6523C86.4103 24.6767 86.4618 24.7266 86.4771 24.8335L86.4783 24.8416L86.4797 24.8497L86.6516 25.8192L79.1025 30.0937L79.0574 29.8015L79.0575 29.8015L79.0551 29.7881C78.938 29.1471 79.2264 28.5841 79.7395 28.3003Z" fill="white" stroke="black"/>
<path d="M71.0974 33.26L71.0974 33.26L71.1032 33.2567L77.4729 29.6223C77.5723 29.5763 77.6601 29.5852 77.7167 29.6121C77.7682 29.6364 77.8197 29.6863 77.835 29.7932L77.8362 29.8013L77.8376 29.8094L78.0094 30.7789L70.4677 35.0493L70.416 34.6891L70.414 34.6753L70.4113 34.6616C70.3018 34.1164 70.5725 33.5503 71.0974 33.26Z" fill="white" stroke="black"/>
<path d="M69.2882 35.6629L61.7391 39.9375L61.694 39.6453L61.6922 39.6342L61.69 39.6232C61.5827 39.0891 61.8406 38.5078 62.3974 38.1319L68.7517 34.5064C68.8511 34.4603 68.9388 34.4693 68.9954 34.4961C69.0469 34.5205 69.0984 34.5704 69.1137 34.6772L69.1149 34.6854L69.1163 34.6935L69.2882 35.6629Z" fill="white" stroke="black"/>
<path d="M60.568 40.6227L53.019 44.8972L52.9738 44.605L52.9721 44.5939L52.9699 44.5829C52.8626 44.0488 53.1205 43.4675 53.6772 43.0917L60.0315 39.4661C60.1309 39.42 60.2187 39.429 60.2753 39.4558C60.3267 39.4802 60.3782 39.5301 60.3936 39.6369L60.3947 39.6451L60.3962 39.6532L60.568 40.6227Z" fill="white" stroke="black"/>
<path d="M45.0139 48.0647L45.0139 48.0647L45.0197 48.0614L51.3894 44.427C51.4888 44.381 51.5766 44.3899 51.6332 44.4167C51.6847 44.4411 51.7362 44.491 51.7515 44.5979L51.7527 44.606L51.7541 44.6141L51.926 45.5836L44.3769 49.8581L44.3317 49.5659L44.33 49.5548L44.3278 49.5438C44.2148 48.9814 44.5048 48.3462 45.0139 48.0647Z" fill="white" stroke="black"/>
<path d="M36.2937 53.0246L36.2937 53.0247L36.2995 53.0214L42.6692 49.387C42.7686 49.3409 42.8564 49.3499 42.913 49.3767C42.9644 49.4011 43.0159 49.451 43.0313 49.5578L43.0324 49.566L43.0339 49.5741L43.2057 50.5436L35.6567 54.8181L35.6115 54.5259L35.6098 54.5148L35.6076 54.5038C35.4946 53.9414 35.7846 53.3062 36.2937 53.0246Z" fill="white" stroke="black"/>
</g>
<defs>
<clipPath id="clip0_1_881">
<rect width="112.585" height="116.338" fill="white" transform="translate(0.625 0.890625)"/>
</clipPath>
</defs>
</svg>
