<svg width="41" height="40" viewBox="0 0 41 40" fill="none" xmlns="http://www.w3.org/2000/svg">
<path d="M21.3256 22.6646C19.8314 22.6575 18.3469 22.4233 16.923 21.9699C15.8055 21.596 14.8072 20.9323 14.03 20.0466C13.2528 19.1608 12.7245 18.0847 12.4991 16.928C11.9971 14.5107 12.9124 11.9547 15.0084 9.91478C15.2336 9.69561 15.4675 9.48566 15.7097 9.28545C16.767 8.40025 18.0238 7.78565 19.3717 7.4947C20.7196 7.20375 22.118 7.24521 23.4463 7.61548C24.7201 8.02224 25.8369 8.81327 26.6433 9.88C27.4497 10.9467 27.9062 12.2369 27.9502 13.5734C28.0479 15.1499 27.5341 16.7034 26.5156 17.9107C26.1302 18.3959 25.6187 18.7656 25.037 18.9792C24.4553 19.1928 23.8261 19.2419 23.2183 19.1213C22.9675 19.0692 22.7298 18.9671 22.5193 18.8211C22.3089 18.675 22.1301 18.4881 21.9936 18.2713C21.8711 18.0608 21.7924 17.8276 21.7622 17.5859C21.7319 17.3442 21.7508 17.0989 21.8176 16.8647C22.401 14.6607 22.9936 11.3114 22.9996 11.2781C23.0148 11.1919 23.0469 11.1095 23.094 11.0356C23.1411 10.9618 23.2022 10.8979 23.274 10.8477C23.3457 10.7975 23.4266 10.762 23.5121 10.743C23.5976 10.7241 23.686 10.7222 23.7723 10.7374C23.8585 10.7527 23.9409 10.7847 24.0147 10.8318C24.0886 10.8789 24.1524 10.94 24.2026 11.0118C24.2528 11.0835 24.2884 11.1645 24.3073 11.25C24.3263 11.3355 24.3282 11.4239 24.3129 11.5101C24.2883 11.6494 23.7043 14.948 23.1069 17.2053C23.0859 17.2673 23.0777 17.3329 23.0829 17.3981C23.088 17.4633 23.1064 17.5268 23.1369 17.5847C23.2292 17.7121 23.3683 17.7977 23.5236 17.8227C23.8958 17.8848 24.2779 17.844 24.6286 17.7048C24.9793 17.5656 25.2853 17.3332 25.5136 17.0327C26.3045 16.0864 26.7008 14.872 26.6202 13.6414C26.5884 12.5775 26.2281 11.5494 25.5888 10.6984C24.9496 9.84737 24.0626 9.21502 23.0496 8.88813C21.9336 8.58116 20.7597 8.55033 19.6292 8.79829C18.4987 9.04626 17.4454 9.56558 16.5604 10.3114C16.3456 10.4895 16.1379 10.6759 15.9377 10.8701C14.9017 11.8781 13.2464 13.97 13.8044 16.6567C13.9886 17.579 14.4106 18.4373 15.0286 19.1464C15.6466 19.8554 16.4391 20.3908 17.3277 20.6993C20.4543 21.6966 24.9476 21.8173 27.3142 18.874C27.4263 18.7406 27.5862 18.6564 27.7596 18.6395C27.933 18.6225 28.1061 18.6741 28.2419 18.7832C28.3778 18.8923 28.4655 19.0502 28.4864 19.2232C28.5072 19.3961 28.4595 19.5704 28.3535 19.7086C26.6029 21.8859 23.9389 22.6646 21.3256 22.6646Z" fill="#CBCBCB"/>
<path d="M19.0437 19.208C18.3389 19.2203 17.6514 18.9893 17.097 18.554C15.8177 17.53 15.7824 15.7507 16.1411 14.5394C16.2624 14.136 16.4244 13.746 16.6257 13.3761C17.1259 12.3668 17.9257 11.5367 18.9157 10.9994C19.5161 10.688 20.2008 10.5779 20.8687 10.6854C21.5365 10.793 22.152 11.1125 22.6243 11.5968C23.1054 12.1239 23.4677 12.7482 23.6869 13.4274C23.742 13.5929 23.7301 13.7735 23.6536 13.9303C23.5771 14.0871 23.4422 14.2076 23.2778 14.2661C23.1134 14.3246 22.9327 14.3162 22.7743 14.243C22.616 14.1697 22.4927 14.0372 22.431 13.874C22.2729 13.3724 22.0102 12.91 21.6603 12.5174C21.3852 12.236 21.0256 12.0522 20.6364 11.9941C20.2472 11.936 19.8497 12.0067 19.5043 12.1954C18.7619 12.6141 18.1652 13.2499 17.7944 14.0174C17.6386 14.305 17.5128 14.608 17.419 14.9214C17.1597 15.7973 17.217 16.9413 17.9317 17.5133C18.713 18.1413 20.0317 17.876 20.7736 17.236C21.3263 16.7381 21.8012 16.1602 22.1823 15.5214C22.2285 15.4469 22.2889 15.3823 22.36 15.3313C22.4311 15.2802 22.5117 15.2436 22.5969 15.2237C22.6822 15.2037 22.7706 15.2007 22.857 15.2149C22.9434 15.2291 23.0262 15.2602 23.1006 15.3064C23.175 15.3525 23.2396 15.4129 23.2907 15.4841C23.3418 15.5552 23.3783 15.6357 23.3983 15.721C23.4183 15.8063 23.4212 15.8946 23.407 15.9811C23.3929 16.0675 23.3618 16.1503 23.3156 16.2247C22.8637 16.9772 22.3012 17.6575 21.647 18.2426C20.9181 18.8577 19.9974 19.1991 19.0437 19.208Z" fill="#CBCBCB"/>
<path d="M38.5 40.0043H2.5006C1.97034 40.0038 1.46195 39.7929 1.087 39.4179C0.712044 39.043 0.501163 38.5346 0.500634 38.0043V13.3381C0.500555 13.2113 0.5366 13.0872 0.604545 12.9802C0.67249 12.8732 0.76952 12.7878 0.884263 12.734C0.999006 12.6802 1.12671 12.6603 1.2524 12.6764C1.37809 12.6926 1.49657 12.7443 1.59395 12.8254L17.951 26.4198C18.6685 27.0127 19.5702 27.337 20.501 27.337C21.4317 27.337 22.3334 27.0127 23.0509 26.4198L39.4067 12.8247C39.5041 12.7436 39.6226 12.6919 39.7484 12.6758C39.8741 12.6596 40.0019 12.6796 40.1167 12.7335C40.2314 12.7874 40.3285 12.8729 40.3964 12.98C40.4643 13.0871 40.5002 13.2113 40.5 13.3381V38.0043C40.4995 38.5346 40.2886 39.043 39.9136 39.4179C39.5387 39.7929 39.0303 40.0038 38.5 40.0043ZM1.83395 14.7587V38.0043C1.83395 38.1811 1.90418 38.3507 2.02921 38.4757C2.15423 38.6008 2.32379 38.671 2.5006 38.671H38.5C38.6768 38.671 38.8464 38.6008 38.9714 38.4757C39.0965 38.3507 39.1667 38.1811 39.1667 38.0043V14.7587L23.9016 27.4452C22.9447 28.236 21.7422 28.6687 20.5009 28.6689C19.2595 28.6692 18.0569 28.2369 17.0997 27.4465L1.83395 14.7587Z" fill="#CBCBCB"/>
<path d="M1.16796 14.0047C1.02638 14.005 0.88839 13.9602 0.773979 13.8768C0.659568 13.7934 0.574677 13.6757 0.531603 13.5409C0.488529 13.406 0.48951 13.2609 0.534402 13.1267C0.579295 12.9924 0.665769 12.8759 0.781296 12.7941L6.7812 8.5408C6.92548 8.43852 7.10447 8.39773 7.27882 8.42743C7.45316 8.45712 7.60857 8.55485 7.71085 8.69913C7.81314 8.8434 7.85392 9.0224 7.82422 9.19675C7.79453 9.37109 7.6968 9.5265 7.55252 9.62878L1.55262 13.882C1.44028 13.962 1.30581 14.0048 1.16796 14.0047ZM39.8327 14.0047C39.6948 14.0048 39.5604 13.962 39.448 13.882L33.4481 9.62878C33.3054 9.52599 33.209 9.37094 33.1801 9.19742C33.1511 9.02391 33.192 8.84599 33.2936 8.70244C33.3953 8.55889 33.5496 8.46134 33.7229 8.43107C33.8962 8.40079 34.0744 8.44023 34.2188 8.5408L40.2187 12.7941C40.3341 12.8758 40.4205 12.9922 40.4655 13.1264C40.5104 13.2605 40.5115 13.4054 40.4686 13.5402C40.4257 13.675 40.341 13.7927 40.2268 13.8762C40.1126 13.9597 39.9741 14.0047 39.8327 14.0047ZM26.6602 4.67153C26.5222 4.67165 26.3875 4.62878 26.2749 4.54886L23.0883 2.2889C22.3715 1.68306 21.4648 1.34807 20.5263 1.34234C19.5878 1.33662 18.6771 1.66052 17.953 2.25757L14.7264 4.54886C14.5821 4.65115 14.4031 4.69193 14.2288 4.66223C14.0544 4.63254 13.899 4.53481 13.7968 4.39053C13.6945 4.24626 13.6537 4.06726 13.6834 3.89291C13.7131 3.71857 13.8108 3.56316 13.9551 3.46088L17.1417 1.20092C18.0964 0.420309 19.293 -0.00358805 20.5262 0.00200783C21.7593 0.0076037 22.9521 0.442343 23.8996 1.23158L27.0462 3.46088C27.1617 3.54272 27.2482 3.65921 27.2931 3.79348C27.338 3.92775 27.339 4.07283 27.2959 4.2077C27.2528 4.34256 27.1679 4.46021 27.0535 4.54361C26.9391 4.627 26.8011 4.6718 26.6595 4.67153H26.6602ZM1.60062 39.6443C1.46334 39.6446 1.32933 39.6025 1.21689 39.5237C1.10445 39.445 1.01906 39.3334 0.972379 39.2043C0.925701 39.0752 0.920013 38.9349 0.956091 38.8024C0.99217 38.67 1.06826 38.5519 1.17396 38.4643L16.387 25.8245C16.4544 25.7686 16.5321 25.7265 16.6158 25.7006C16.6994 25.6747 16.7874 25.6655 16.8746 25.6736C16.9618 25.6816 17.0465 25.7068 17.124 25.7476C17.2014 25.7885 17.2701 25.8442 17.326 25.9115C17.382 25.9789 17.4241 26.0566 17.45 26.1403C17.4759 26.2239 17.4851 26.3118 17.477 26.399C17.4689 26.4862 17.4438 26.571 17.4029 26.6484C17.3621 26.7259 17.3064 26.7946 17.239 26.8505L2.02594 39.4903C1.90653 39.5898 1.75604 39.6443 1.60062 39.6443ZM39.3993 39.6443C39.2439 39.6444 39.0933 39.5899 38.974 39.4903L23.7609 26.8505C23.6918 26.7951 23.6345 26.7266 23.5921 26.6488C23.5498 26.571 23.5234 26.4856 23.5145 26.3975C23.5056 26.3094 23.5143 26.2204 23.5401 26.1357C23.566 26.051 23.6084 25.9723 23.665 25.9042C23.7216 25.8361 23.7912 25.7799 23.8697 25.739C23.9483 25.6981 24.0342 25.6733 24.1224 25.6659C24.2107 25.6585 24.2995 25.6688 24.3837 25.6962C24.4679 25.7235 24.5458 25.7674 24.6129 25.8252L39.826 38.465C39.9317 38.5526 40.0078 38.6707 40.0439 38.8031C40.08 38.9356 40.0743 39.0759 40.0276 39.205C39.9809 39.3341 39.8955 39.4456 39.7831 39.5244C39.6706 39.6031 39.5366 39.6446 39.3993 39.6443Z" fill="#CBCBCB"/>
<path d="M33.8334 18.9913C33.6566 18.9913 33.4871 18.9211 33.362 18.796C33.237 18.671 33.1668 18.5015 33.1668 18.3246V4.67686C33.1648 4.69019 33.1381 4.67153 33.0934 4.67153H7.90718C7.8926 4.67065 7.878 4.67273 7.86425 4.67766C7.8505 4.68259 7.83789 4.69025 7.82718 4.70019L7.83385 18.3246C7.83385 18.5015 7.76361 18.671 7.63859 18.796C7.51357 18.9211 7.344 18.9913 7.16719 18.9913C6.99039 18.9913 6.82082 18.9211 6.6958 18.796C6.57078 18.671 6.50054 18.5015 6.50054 18.3246V4.67153C6.51101 4.30844 6.6649 3.96428 6.92853 3.7144C7.19216 3.46451 7.54405 3.32925 7.90718 3.33821H33.0934C33.4566 3.32925 33.8085 3.46451 34.0721 3.7144C34.3357 3.96428 34.4896 4.30844 34.5001 4.67153V18.3246C34.5001 18.5015 34.4299 18.671 34.3048 18.796C34.1798 18.9211 34.0102 18.9913 33.8334 18.9913Z" fill="#CBCBCB"/>
</svg>
