<svg width="41" height="40" viewBox="0 0 41 40" fill="none" xmlns="http://www.w3.org/2000/svg">
<g clip-path="url(#clip0_1_1704)">
<path fill-rule="evenodd" clip-rule="evenodd" d="M33.1168 13.3923C34.3488 11.303 34.9364 9.64428 34.9364 7.88491C34.9364 7.82294 34.9355 7.76114 34.9336 7.69952C34.8968 7.59407 34.8894 7.47886 34.9151 7.36732C34.6346 3.97047 31.618 1.20391 27.8125 1.20391C23.8155 1.20391 20.6887 4.25606 20.6887 7.88491C20.6887 9.64428 21.2762 11.303 22.5082 13.3923C23.4896 15.0567 24.8219 16.9032 26.5013 19.2308L26.5014 19.2309L26.5015 19.231L26.5018 19.2315L26.5042 19.2347C26.9191 19.8099 27.3553 20.4144 27.8125 21.0527C28.2708 20.413 28.7078 19.8073 29.1236 19.231L29.1236 19.231C30.803 16.9033 32.1354 15.0567 33.1168 13.3923ZM30.0753 19.9631C33.6734 14.9768 35.859 11.948 36.1117 8.55069L38.979 10.2162C39.1023 10.2878 39.1781 10.4195 39.1781 10.562V38.1091L28.1524 35.2662V26.2739C28.1524 25.9425 27.8838 25.6739 27.5524 25.6739C27.2211 25.6739 26.9524 25.9425 26.9524 26.2739V35.2651L14.3661 38.4806V10.4175L19.524 8.68119C19.8223 12.026 21.9977 15.0407 25.5497 19.9631L25.5501 19.9637C26.0081 20.5983 26.4889 21.2646 26.9915 21.9674C27.3929 22.5288 28.2321 22.5288 28.6335 21.9674C29.1359 21.265 29.6165 20.599 30.0742 19.9646L30.0745 19.9643L30.0753 19.9631ZM39.5817 9.17851L36.1013 7.1569C35.7133 3.14561 32.1504 0.00390625 27.8125 0.00390625C23.3794 0.00390625 19.7558 3.28499 19.5028 7.42216L13.7661 9.35336L1.47173 5.2146C1.28864 5.15296 1.08708 5.18325 0.930196 5.29597C0.773311 5.4087 0.680298 5.59006 0.680298 5.78324V35.2057C0.680298 35.4658 0.847864 35.6962 1.09527 35.7764L13.581 39.824C13.689 39.859 13.8046 39.8626 13.9146 39.8345L27.5518 36.3505L39.6283 39.4645C39.808 39.5108 39.9989 39.4714 40.1456 39.3578C40.2923 39.2441 40.3781 39.069 40.3781 38.8835V10.562C40.3781 9.99192 40.0747 9.46487 39.5817 9.17851ZM13.1661 38.428V10.4175L1.8803 6.61831V34.7694L13.1661 38.428ZM30.7743 8.41024C30.7743 10.0801 29.437 11.4134 27.8123 11.4134C26.1877 11.4134 24.8504 10.0801 24.8504 8.41024C24.8504 6.74042 26.1877 5.40703 27.8123 5.40703C29.437 5.40703 30.7743 6.74042 30.7743 8.41024ZM31.9743 8.41024C31.9743 10.7316 30.1109 12.6134 27.8123 12.6134C25.5138 12.6134 23.6504 10.7316 23.6504 8.41024C23.6504 6.08887 25.5138 4.20703 27.8123 4.20703C30.1109 4.20703 31.9743 6.08887 31.9743 8.41024Z" fill="#CBCBCB"/>
</g>
<defs>
<clipPath id="clip0_1_1704">
<rect width="40" height="40" fill="white" transform="translate(0.5 0.00390625)"/>
</clipPath>
</defs>
</svg>
