<svg width="41" height="41" viewBox="0 0 41 41" fill="none" xmlns="http://www.w3.org/2000/svg">
<path d="M39.4507 30.8584L31.3546 25.4592C30.3272 24.7795 28.95 25.0032 28.1904 25.9731L25.8321 29.0053C25.6854 29.1986 25.474 29.3326 25.2366 29.3825C24.9992 29.4325 24.7517 29.3951 24.5396 29.2773L24.091 29.03C22.6039 28.2194 20.7535 27.2103 17.0254 23.4808C13.2973 19.7514 12.2861 17.8996 11.4755 16.4152L11.2295 15.9666C11.1101 15.7546 11.0713 15.5066 11.1203 15.2682C11.1693 15.0299 11.3028 14.8172 11.4961 14.6695L14.5263 12.3119C15.4959 11.5522 15.7198 10.1754 15.0409 9.14763L9.64172 1.05149C8.94597 0.00492609 7.55008 -0.309246 6.47297 0.338236L3.08746 2.37192C2.0237 2.99727 1.2433 4.01011 0.909812 5.19814C-0.309304 9.64014 0.607823 17.3063 11.9008 28.6007C20.8842 37.5833 27.5719 39.999 32.1685 39.999C33.2265 40.0035 34.2802 39.8659 35.3014 39.5898C36.4897 39.2567 37.5027 38.4762 38.1277 37.4121L40.1634 34.0286C40.8118 32.9513 40.4978 31.5546 39.4507 30.8584ZM39.0148 33.3447L36.9838 36.7302C36.535 37.4982 35.8064 38.0629 34.9507 38.306C30.85 39.4318 23.6857 38.4993 12.844 27.6576C2.00223 16.8158 1.06979 9.65217 2.19564 5.55082C2.43907 4.69404 3.00441 3.9646 3.77337 3.51511L7.15889 1.48408C7.62624 1.20287 8.23209 1.33918 8.534 1.79333L13.9286 9.88877C14.2234 10.3346 14.1265 10.9321 13.706 11.2619L10.6751 13.6195C9.75272 14.3248 9.48932 15.601 10.0572 16.6138L10.2979 17.0511C11.1498 18.6135 12.2089 20.5572 16.0757 24.4233C19.9425 28.2894 21.8855 29.3486 23.4473 30.2005L23.8852 30.4417C24.8979 31.0096 26.1741 30.7462 26.8794 29.8239L29.237 26.793C29.567 26.3727 30.1642 26.2759 30.6102 26.5704L38.7056 31.9696C39.1601 32.2712 39.2964 32.8774 39.0148 33.3447ZM23.1658 6.67066C29.4212 6.67761 34.4905 11.7469 34.4975 18.0023C34.4975 18.3705 34.7959 18.6689 35.164 18.6689C35.5322 18.6689 35.8306 18.3705 35.8306 18.0023C35.8228 11.011 30.1572 5.34523 23.1658 5.33757C22.7977 5.33757 22.4993 5.63597 22.4993 6.00412C22.4993 6.37226 22.7977 6.67066 23.1658 6.67066Z" fill="#CBCBCB"/>
<path d="M23.1658 10.6701C27.2133 10.6748 30.4933 13.9548 30.4981 18.0023C30.4981 18.1791 30.5683 18.3487 30.6933 18.4737C30.8183 18.5987 30.9879 18.6689 31.1646 18.6689C31.3414 18.6689 31.5109 18.5987 31.6359 18.4737C31.7609 18.3487 31.8312 18.1791 31.8312 18.0023C31.8256 13.2188 27.9492 9.34245 23.1658 9.33698C22.7977 9.33698 22.4993 9.63538 22.4993 10.0035C22.4993 10.3717 22.7977 10.6701 23.1658 10.6701Z" fill="#CBCBCB"/>
<path d="M23.1658 14.6695C25.0055 14.6717 26.4964 16.1625 26.4987 18.0023C26.4987 18.1791 26.5689 18.3487 26.6939 18.4737C26.8189 18.5987 26.9884 18.6689 27.1652 18.6689C27.342 18.6689 27.5115 18.5987 27.6365 18.4737C27.7615 18.3487 27.8318 18.1791 27.8318 18.0023C27.8288 15.4266 25.7415 13.3393 23.1658 13.3364C22.7977 13.3364 22.4993 13.6348 22.4993 14.0029C22.4993 14.3711 22.7977 14.6695 23.1658 14.6695Z" fill="#CBCBCB"/>
<path d="M9.16537 39.0009C5.11784 38.9961 1.83786 35.7162 1.83309 31.6686C1.83309 31.4918 1.76287 31.3223 1.63787 31.1973C1.51287 31.0723 1.34333 31.0021 1.16655 31.0021C0.989775 31.0021 0.820236 31.0723 0.695235 31.1973C0.570234 31.3223 0.50001 31.4918 0.50001 31.6686C0.505555 36.4521 4.38194 40.3285 9.16537 40.334C9.53352 40.334 9.83191 40.0356 9.83191 39.6674C9.83191 39.2993 9.53352 39.0009 9.16537 39.0009Z" fill="#CBCBCB"/>
<path d="M9.16537 35.0015C7.32564 34.9993 5.83477 33.5084 5.8325 31.6686C5.8325 31.4919 5.76228 31.3223 5.63728 31.1973C5.51228 31.0723 5.34274 31.0021 5.16596 31.0021C4.98918 31.0021 4.81964 31.0723 4.69464 31.1973C4.56964 31.3223 4.49942 31.4919 4.49942 31.6686C4.50239 34.2443 6.58966 36.3317 9.16537 36.3346C9.53352 36.3346 9.83191 36.0362 9.83191 35.668C9.83191 35.2999 9.53352 35.0015 9.16537 35.0015Z" fill="#CBCBCB"/>
</svg>
