<svg width="76" height="84" viewBox="0 0 76 84" fill="none" xmlns="http://www.w3.org/2000/svg">
<path d="M75.3938 11.2921L71.785 8.13135L75.3938 4.97122C75.955 4.47903 76.147 3.71191 75.8835 3.01593C75.6187 2.31931 74.9647 1.86942 74.2166 1.86942H59.2827V1.23111C59.2827 0.551147 58.7286 0 58.045 0C57.3614 0 56.8073 0.551147 56.8073 1.23111V17.8347L46.6419 23.3251C46.5859 22.8803 46.4518 22.4432 46.2399 22.0318L44.8076 19.2504C43.8243 17.3406 41.4623 16.5838 39.5435 17.5611L38.4359 18.1251C37.5055 18.5993 36.8168 19.4042 36.4959 20.3937C36.175 21.3826 36.2607 22.4368 36.7375 23.3616L38.1698 26.1436C38.5042 26.7928 38.9984 27.3068 39.5796 27.667C38.8193 28.6853 38.4585 29.9376 38.0874 31.2385L37.8206 32.178C37.6344 32.8324 38.0171 33.513 38.675 33.6975C38.7871 33.7296 38.9005 33.7443 39.0119 33.7443C39.5519 33.7443 40.048 33.3906 40.2026 32.8477L40.4694 31.9102C41.0119 30.0074 41.345 28.9884 42.4056 28.4155L44.3069 27.3882L44.5415 27.269C44.6194 27.2292 44.6922 27.1844 44.7663 27.1402L58.3175 19.8208C58.2318 21.5056 57.3201 23.0976 55.8189 24.0044L47.0066 29.33C46.9963 29.3358 46.986 29.3416 46.9763 29.348L44.2335 31.0052C43.6497 31.3584 43.4635 32.1159 43.8185 32.6971C44.1529 33.2451 44.8488 33.4399 45.4164 33.165L43.3353 39.4224L41.8141 40.0428L37.6776 41.7289L38.8696 37.5376C39.0551 36.8833 38.673 36.2027 38.0152 36.0175C37.3567 35.8316 36.6731 36.213 36.4869 36.8673L34.6035 43.4919C34.5791 43.5772 34.563 43.6707 34.5591 43.7598L34.0662 52.7653C34.0514 53.1088 34.1248 53.758 33.965 54.0932L28.4909 65.5481H24.5129C22.1825 65.5481 20.2869 67.4335 20.2869 69.7509V73.3045C19.7534 73.0616 19.1613 72.9258 18.5369 72.9258H8.43472C6.10488 72.9258 4.20931 74.8106 4.20931 77.1286V81.5378H1.23773C0.55411 81.5378 0 82.0889 0 82.7689C0 83.4489 0.55411 84 1.23773 84H74.2154C74.899 84 75.4531 83.4489 75.4531 82.7689C75.4531 82.0889 74.899 81.5378 74.2154 81.5378H70.9964V49.8051C70.9964 47.4878 69.1008 45.6023 66.7709 45.6023H59.2827V24.1249C60.6551 22.2747 61.1635 19.8496 60.5262 17.5451C60.4264 17.183 60.1654 16.8856 59.8175 16.7389C59.6468 16.6664 59.4638 16.6344 59.2827 16.6414V14.3939H74.216C74.9647 14.3939 75.6187 13.944 75.8828 13.248C76.147 12.5521 75.955 11.7843 75.3938 11.2921ZM38.8522 21.15C38.9701 20.7866 39.2226 20.4905 39.5641 20.3168L40.6717 19.7529C40.8805 19.6465 41.1034 19.5959 41.3237 19.5959C41.8456 19.5959 42.3501 19.8798 42.604 20.3726L44.037 23.1546C44.3714 23.8044 44.1549 24.5921 43.5602 24.9901L43.1568 25.2073L42.3057 25.6412C41.6014 26.0001 40.7342 25.7219 40.3734 25.0208L38.9404 22.2394C38.7658 21.8998 38.7342 21.5127 38.8522 21.15ZM36.3651 65.9268C35.9444 65.7359 35.4869 65.6109 35.0062 65.5667L36.3651 63.7716V65.9268ZM42.2419 56.0068C42.8372 55.2974 43.0015 54.4688 43.1343 53.801C43.1678 53.642 43.7786 50.3236 43.7786 50.3236C43.7786 50.3236 44.3565 50.6819 44.4171 50.7075C44.459 50.7261 44.4886 50.7671 44.4931 50.8152L45.1664 57.6231H41.0183L42.2419 56.0068ZM49.5613 49.2117L48.5162 57.6173H47.6535L46.957 50.5742C46.8681 49.6718 46.3127 48.8842 45.4989 48.4926L44.2541 47.7076L45.0833 43.1363C45.0833 43.1363 48.5768 47.2641 48.658 47.3692C49.3809 48.3042 49.6283 48.6785 49.5613 49.2117ZM36.1918 55.1699C36.4418 54.4213 36.5578 53.6593 36.5384 52.8845L36.9882 44.6711L42.7129 42.3377L41.6723 48.071C41.6691 48.0863 41.6659 48.1024 41.6639 48.1177L40.8031 52.8582C40.691 53.3492 40.5931 54.0938 40.2851 54.4982L31.9213 65.5481H31.2319L36.1918 55.1699ZM6.68476 77.128C6.68476 76.1686 7.46954 75.388 8.43472 75.388H18.5369C19.5021 75.388 20.2875 76.1686 20.2875 77.128V81.5378H6.68476V77.128ZM22.7623 77.128V69.7509C22.7623 68.7909 23.5478 68.0103 24.5129 68.0103H34.6151C35.5803 68.0103 36.3651 68.7909 36.3651 69.7509V81.5378H22.763V77.128H22.7623ZM68.5209 49.8051V81.5378H54.9188V74.1562C54.9188 73.4763 54.3647 72.9251 53.6811 72.9251C52.9968 72.9251 52.4427 73.4763 52.4427 74.1562V81.5378H38.8406V61.8253C38.8406 60.8659 39.6253 60.0853 40.5905 60.0853H50.6927C51.6579 60.0853 52.4427 60.8659 52.4427 61.8253V67.9969C52.4427 68.6768 52.9968 69.228 53.6804 69.228C54.3647 69.228 54.9181 68.6768 54.9181 67.9969V49.8051C54.9181 48.8451 55.7036 48.0645 56.6687 48.0645H58.0321C58.036 48.0645 58.0405 48.0652 58.045 48.0652C58.0489 48.0652 58.0534 48.0645 58.0572 48.0645H66.7703C67.7355 48.0645 68.5209 48.8458 68.5209 49.8051ZM56.6687 45.6023C54.3389 45.6023 52.4433 47.4878 52.4433 49.8051V58.0019C52 57.8006 51.5168 57.6731 51.0084 57.6359L52.0181 49.5148C52.2165 47.9319 51.4047 46.8828 50.6199 45.8676C50.5368 45.76 45.7257 40.078 45.7257 40.078L48.6773 31.202L56.8073 26.2891V45.6023H56.6687ZM59.2827 11.9311V4.33228H72.3771L69.557 6.80219C69.173 7.13864 68.9526 7.62314 68.9526 8.13199C68.9526 8.64084 69.173 9.12534 69.557 9.46179L72.3771 11.9317H59.2827V11.9311Z" fill="white"/>
</svg>
