<svg width="70" height="29" viewBox="0 0 70 29" fill="none" xmlns="http://www.w3.org/2000/svg">
<g clip-path="url(#clip0_1_3311)">
<mask id="mask0_1_3311" style="mask-type:luminance" maskUnits="userSpaceOnUse" x="0" y="0" width="28" height="29">
<path d="M27.1765 0.876953H0V28.0534H27.1765V0.876953Z" fill="white"/>
</mask>
<g mask="url(#mask0_1_3311)">
<path d="M4.34125 20.5934L4.45462 20.1863L4.24168 19.8212C3.14095 17.9343 2.59445 15.8998 2.59445 13.7858C2.59445 7.21696 7.99384 1.87695 14.6731 1.87695C17.8885 1.87695 20.8546 3.12892 23.0408 5.39324L23.0469 5.39955L23.0531 5.40575C25.3316 7.68422 26.5819 10.6583 26.5819 13.8707C26.5819 20.4522 21.1697 25.8644 14.5882 25.8644C12.6421 25.8644 10.5977 25.3167 8.86742 24.3729L8.52032 24.1836L8.1376 24.2828L2.93843 25.6308L4.34125 20.5934Z" fill="#42C553" stroke="white" stroke-width="2"/>
<path fill-rule="evenodd" clip-rule="evenodd" d="M11.2983 9.51421C11.057 9 10.8156 9 10.5743 9C10.4134 9 10.1721 9 9.93072 9C9.68938 9 9.36759 9.07346 9.0458 9.3673C8.80447 9.66113 8 10.3957 8 11.7915C8 13.1872 9.12625 14.5829 9.28714 14.8033C9.44804 15.0237 11.4592 18.0355 14.7575 19.2108C17.4122 20.1658 17.9754 20.0189 18.6189 19.9454C19.2625 19.872 20.4692 19.2108 20.791 18.5497C21.0323 17.8886 21.0323 17.3009 20.9519 17.154C20.8714 17.0071 20.6301 16.9336 20.3083 16.7867C19.9865 16.6398 18.458 15.9052 18.1363 15.8317C17.8145 15.7582 17.6536 15.6848 17.4122 15.9786C17.1709 16.2725 16.6078 16.9336 16.3664 17.154C16.2055 17.3744 15.9642 17.3744 15.6424 17.2274C15.3206 17.0805 14.2748 16.7867 13.0681 15.7583C12.1028 14.9502 11.4592 14.0687 11.2983 13.7749C11.1374 13.481 11.2983 13.3341 11.4592 13.1872C11.6201 13.0403 11.781 12.8199 11.9419 12.673C12.1028 12.526 12.1832 12.3791 12.2637 12.1587C12.3441 11.9384 12.3441 11.7915 12.2637 11.6445C12.1832 11.5711 11.5396 10.1019 11.2983 9.51421Z" fill="white"/>
</g>
</g>
<circle cx="35.2809" cy="14.2809" r="12.2809" fill="#26A4E3" stroke="white" stroke-width="2"/>
<path d="M27.2473 14.2745L30.4732 15.361L31.7218 18.9847C31.8017 19.2168 32.1162 19.3026 32.3249 19.1486L34.1231 17.8257C34.2148 17.7583 34.3287 17.7201 34.4469 17.7171C34.5652 17.7141 34.6812 17.7465 34.777 17.8092L38.0202 19.9342C38.2435 20.0806 38.5599 19.9702 38.6159 19.7267L40.9918 9.41353C41.0529 9.14754 40.7633 8.92565 40.4826 9.0236L27.2435 13.6325C26.9168 13.7462 26.9196 14.1637 27.2473 14.2745ZM31.5206 14.7826L37.8251 11.2785C37.9384 11.2157 38.055 11.3539 37.9577 11.4354L32.7546 15.8C32.5719 15.9534 32.4537 16.1592 32.4203 16.3824L32.2431 17.5677C32.2196 17.726 31.9733 17.7417 31.9249 17.5885L31.2432 15.4271C31.1651 15.1805 31.2789 14.9172 31.5206 14.7826Z" fill="white"/>
<circle cx="56.2809" cy="14.2809" r="12.2809" fill="#AC7522" stroke="white" stroke-width="2"/>
<path fill-rule="evenodd" clip-rule="evenodd" d="M58.6428 15.0184L57.7628 15.9223C57.4278 16.2659 56.9736 16.4589 56.5 16.459C56.0263 16.459 55.5722 16.2658 55.2372 15.9223L54.3572 15.0184L49.6095 19.8925C49.7537 19.9633 49.9115 20 50.0713 20H62.9284C63.0899 20 63.2473 19.9626 63.3902 19.8925L58.6428 15.0184ZM63.8953 9.62604C63.9635 9.77258 64 9.93436 64 10.1V18.9C64 19.0656 63.9637 19.2274 63.8953 19.374L59.1479 14.5L63.8953 9.62604ZM49.1047 9.62604L53.8521 14.5L49.1047 19.374C49.0358 19.226 49 19.064 49 18.9V10.1C49 9.93436 49.0363 9.77258 49.1047 9.62604Z" fill="white"/>
<path fill-rule="evenodd" clip-rule="evenodd" d="M63.3904 9.10747C63.2462 9.03673 63.0884 9.00001 62.9285 9H50.0715C49.9099 9 49.7525 9.03745 49.6096 9.10747L55.7424 15.4036C55.8419 15.5058 55.96 15.5868 56.09 15.6421C56.22 15.6974 56.3593 15.7259 56.5 15.7259C56.6407 15.7259 56.7801 15.6974 56.9101 15.642C57.04 15.5867 57.1581 15.5056 57.2576 15.4034L63.3904 9.10747Z" fill="white"/>
<defs>
<clipPath id="clip0_1_3311">
<rect width="27.1765" height="27.1765" fill="white" transform="translate(0 0.876953)"/>
</clipPath>
</defs>
</svg>
