<svg width="34" height="27" viewBox="0 0 34 27" fill="none" xmlns="http://www.w3.org/2000/svg">
<path d="M17.0001 5.45034L4.87411 15.4256C4.87411 15.4397 4.87057 15.4604 4.86348 15.4886C4.85653 15.5167 4.85284 15.537 4.85284 15.5514V25.6525C4.85284 26.0172 4.98646 26.3332 5.25363 26.5994C5.52073 26.8657 5.83702 26.9997 6.20258 26.9997H14.3004V18.9186H19.6998V27H27.7975C28.163 27 28.4798 26.8663 28.7465 26.5994C29.0137 26.3335 29.1477 26.0173 29.1477 25.6525V15.5514C29.1477 15.4954 29.14 15.4531 29.1264 15.4256L17.0001 5.45034Z" fill="white"/>
<path d="M33.7655 13.1528L29.1473 9.32274V0.736712C29.1473 0.540427 29.084 0.379007 28.9571 0.252671C28.8313 0.126483 28.6695 0.063389 28.4724 0.063389H24.4234C24.2264 0.063389 24.0648 0.126483 23.9381 0.252671C23.8117 0.379007 23.7485 0.540501 23.7485 0.736712V4.84026L18.6029 0.547135C18.1535 0.182354 17.6192 0 17.0005 0C16.3819 0 15.8476 0.182354 15.3978 0.547135L0.234342 13.1528C0.0937762 13.2648 0.0167347 13.4156 0.00240487 13.605C-0.0118511 13.7943 0.0372693 13.9596 0.149914 14.0998L1.4574 15.6571C1.57005 15.7833 1.71748 15.8605 1.9003 15.8887C2.06908 15.9029 2.23786 15.8536 2.40665 15.7415L17.0001 3.59865L31.5936 15.7414C31.7063 15.8393 31.8537 15.8881 32.0365 15.8881H32.0999C32.2824 15.8604 32.4296 15.7827 32.5428 15.6568L33.8504 14.0998C33.9628 13.9593 34.0121 13.7942 33.9975 13.6047C33.9831 13.4158 33.9058 13.265 33.7655 13.1528Z" fill="white"/>
</svg>
