<svg width="27" height="27" viewBox="0 0 27 27" fill="none" xmlns="http://www.w3.org/2000/svg">
<path d="M27 1.296V6.44544C27 6.78916 26.8634 7.1188 26.6204 7.36185C26.3773 7.6049 26.0476 7.74144 25.7039 7.74144H1.29612C0.952371 7.74144 0.622697 7.6049 0.379626 7.36185C0.136556 7.1188 0 6.78916 0 6.44544V1.296C0 0.95228 0.136556 0.622637 0.379626 0.37959C0.622697 0.136542 0.952371 0 1.29612 0H25.7039C26.0476 0 26.3773 0.136542 26.6204 0.37959C26.8634 0.622637 27 0.95228 27 1.296ZM7.74218 10.9244V16.0739C7.74218 16.4176 7.60563 16.7472 7.36256 16.9903C7.11949 17.2333 6.78981 17.3699 6.44606 17.3699H1.29612C0.952371 17.3699 0.622697 17.2333 0.379626 16.9903C0.136556 16.7472 0 16.4176 0 16.0739V10.9244C0 10.5807 0.136556 10.2511 0.379626 10.008C0.622697 9.76496 0.952371 9.62842 1.29612 9.62842H6.44606C6.78981 9.62842 7.11949 9.76496 7.36256 10.008C7.60563 10.2511 7.74218 10.5807 7.74218 10.9244ZM17.3711 10.9244V16.0739C17.3711 16.4176 17.2345 16.7472 16.9915 16.9903C16.7484 17.2333 16.4187 17.3699 16.075 17.3699H10.925C10.5813 17.3699 10.2516 17.2333 10.0085 16.9903C9.76546 16.7472 9.62891 16.4176 9.62891 16.0739V10.9244C9.62891 10.5807 9.76546 10.2511 10.0085 10.008C10.2516 9.76496 10.5813 9.62842 10.925 9.62842H16.075C16.4187 9.62842 16.7484 9.76496 16.9915 10.008C17.2345 10.2511 17.3711 10.5807 17.3711 10.9244ZM27 10.9244V16.0739C27 16.4176 26.8634 16.7472 26.6204 16.9903C26.3773 17.2333 26.0476 17.3699 25.7039 17.3699H20.5539C20.2102 17.3699 19.8805 17.2333 19.6374 16.9903C19.3944 16.7472 19.2578 16.4176 19.2578 16.0739V10.9244C19.2578 10.5807 19.3944 10.2511 19.6374 10.008C19.8805 9.76496 20.2102 9.62842 20.5539 9.62842H25.7039C26.0476 9.62842 26.3773 9.76496 26.6204 10.008C26.8634 10.2511 27 10.5807 27 10.9244ZM7.74218 20.5546V25.704C7.74218 26.0477 7.60563 26.3774 7.36256 26.6204C7.11949 26.8635 6.78981 27 6.44606 27H1.29612C0.952371 27 0.622697 26.8635 0.379626 26.6204C0.136556 26.3774 0 26.0477 0 25.704V20.5546C0 20.2108 0.136556 19.8812 0.379626 19.6382C0.622697 19.3951 0.952371 19.2586 1.29612 19.2586H6.44606C6.78981 19.2586 7.11949 19.3951 7.36256 19.6382C7.60563 19.8812 7.74218 20.2108 7.74218 20.5546ZM17.3711 20.5546V25.704C17.3711 26.0477 17.2345 26.3774 16.9915 26.6204C16.7484 26.8635 16.4187 27 16.075 27H10.925C10.5813 27 10.2516 26.8635 10.0085 26.6204C9.76546 26.3774 9.62891 26.0477 9.62891 25.704V20.5546C9.62891 20.2108 9.76546 19.8812 10.0085 19.6382C10.2516 19.3951 10.5813 19.2586 10.925 19.2586H16.075C16.4187 19.2586 16.7484 19.3951 16.9915 19.6382C17.2345 19.8812 17.3711 20.2108 17.3711 20.5546ZM27 20.5546V25.704C27 26.0477 26.8634 26.3774 26.6204 26.6204C26.3773 26.8635 26.0476 27 25.7039 27H20.5539C20.2102 27 19.8805 26.8635 19.6374 26.6204C19.3944 26.3774 19.2578 26.0477 19.2578 25.704V20.5546C19.2578 20.2108 19.3944 19.8812 19.6374 19.6382C19.8805 19.3951 20.2102 19.2586 20.5539 19.2586H25.7039C26.0476 19.2586 26.3773 19.3951 26.6204 19.6382C26.8634 19.8812 27 20.2108 27 20.5546Z" fill="white"/>
</svg>
