<svg width="42" height="42" viewBox="0 0 42 42" fill="none" xmlns="http://www.w3.org/2000/svg">
<path d="M29.3962 20.7015L37.0226 13.0773C37.0908 13.0075 37.1432 12.924 37.1764 12.8323L41.1888 1.31081C41.2288 1.19586 41.2356 1.07198 41.2083 0.953354C41.1811 0.834733 41.121 0.726182 41.0349 0.640152C40.9488 0.554121 40.8402 0.494095 40.7215 0.466957C40.6028 0.43982 40.4789 0.44667 40.364 0.486722L28.8455 4.50463C28.754 4.53776 28.6706 4.59007 28.601 4.65805L20.9745 12.2824L9.79542 1.10657C8.91079 0.222196 7.47146 0.222357 6.58675 1.10665L0.783201 6.90859C-0.101428 7.79296 -0.101428 9.23196 0.783201 10.1163L11.9623 21.2921L1.25688 31.9944C0.518597 32.7323 0.111938 33.7137 0.111938 34.7575C0.111938 35.8013 0.518597 36.7826 1.25688 37.5207L4.15044 40.4135C4.91252 41.1753 5.91347 41.5562 6.91441 41.5562C7.91543 41.5562 8.91646 41.1753 9.67854 40.4135L20.3839 29.7112L31.5349 40.859C31.9773 41.3012 32.5583 41.5223 33.1392 41.5223C33.7204 41.5223 34.3013 41.3012 34.7437 40.859L40.5472 35.0571C41.4319 34.1727 41.4319 32.7338 40.5472 31.8494L29.3962 20.7015ZM13.9353 34.3269L11.0979 31.4902L22.4536 20.1378C22.4781 20.1195 22.5021 20.0998 22.5244 20.0775L25.1903 17.4124C25.2121 17.3902 25.2322 17.3666 25.2506 17.3416L32.267 10.3274L32.4164 12.4151C32.4275 12.5704 32.4943 12.7165 32.6044 12.8266C32.7145 12.9367 32.8607 13.0034 33.016 13.0146L35.1044 13.1639L13.9353 34.3269ZM11.1346 37.1268L4.54455 30.5386L6.42948 28.6542L9.72371 31.9476L9.72452 31.9483L13.0196 35.2424L11.1346 37.1268ZM21.4326 13.6557L21.4331 13.6549L28.5142 6.57601L28.6635 8.66317C28.6746 8.81852 28.7413 8.96467 28.8514 9.0748C28.9616 9.18494 29.1078 9.25168 29.2632 9.26279L31.3511 9.41193L10.1822 30.5747L7.34535 27.7387L21.4326 13.6557ZM35.0483 3.71218L37.9655 6.62853L36.1162 11.9383L33.668 11.7632L33.4574 8.82113C33.439 8.50757 33.1713 8.23996 32.8576 8.2216L29.9152 8.01137L29.7402 5.56387L35.0483 3.71218ZM38.4384 5.27037L36.4062 3.23856L39.525 2.15059L38.4384 5.27037ZM1.69907 9.20073C1.31929 8.82121 1.31929 8.20363 1.69907 7.82404L7.50262 2.02209C7.59299 1.93164 7.70034 1.85992 7.8185 1.81107C7.93667 1.76222 8.06333 1.73719 8.19121 1.73742C8.44051 1.73742 8.68982 1.83234 8.87963 2.02209L9.90931 3.05147L7.70134 5.25896C7.64061 5.31895 7.59235 5.39034 7.55933 5.46904C7.5263 5.54774 7.50917 5.63219 7.50891 5.71753C7.50866 5.80287 7.52529 5.88742 7.55784 5.96632C7.59039 6.04521 7.63823 6.11689 7.69859 6.17724C7.75896 6.23758 7.83067 6.2854 7.90959 6.31793C7.98851 6.35047 8.07308 6.36708 8.15845 6.36682C8.24382 6.36656 8.32829 6.34942 8.40701 6.3164C8.48573 6.28338 8.55714 6.23512 8.61713 6.17441L10.8251 3.967L13.3861 6.5273L12.3962 7.51695C12.2748 7.63836 12.2066 7.80303 12.2066 7.97473C12.2066 8.14642 12.2748 8.31108 12.3963 8.43247C12.5177 8.55387 12.6825 8.62206 12.8542 8.62204C13.026 8.62203 13.1907 8.55381 13.3121 8.43239L14.302 7.44274L16.863 10.003L14.6549 12.2105C14.5948 12.2706 14.5471 12.3419 14.5146 12.4205C14.482 12.499 14.4653 12.5832 14.4653 12.6682C14.4653 12.7532 14.4821 12.8374 14.5146 12.916C14.5472 12.9945 14.5949 13.0659 14.655 13.126C14.7152 13.1861 14.7865 13.2338 14.8651 13.2663C14.9437 13.2988 15.0279 13.3156 15.1129 13.3156C15.198 13.3155 15.2822 13.2988 15.3607 13.2662C15.4393 13.2337 15.5107 13.186 15.5708 13.1259L17.7788 10.9186L20.0588 13.1979L12.8781 20.3765L1.69907 9.20073ZM8.76267 39.498C7.74367 40.5167 6.08539 40.5167 5.06623 39.498L2.17267 36.6052C1.67892 36.1116 1.40703 35.4555 1.40703 34.7575C1.40703 34.0596 1.679 33.4033 2.17275 32.9098L3.62876 31.4541L10.2188 38.0423L8.76267 39.498ZM39.6314 34.1416L33.8278 39.9435C33.4483 40.3229 32.8304 40.323 32.4508 39.9435L21.2996 28.7956L28.4804 21.617L30.7703 23.9062L28.5621 26.1135C28.502 26.1736 28.4543 26.245 28.4217 26.3236C28.3892 26.4021 28.3725 26.4863 28.3725 26.5713C28.3725 26.6563 28.3892 26.7405 28.4218 26.8191C28.4543 26.8976 28.502 26.969 28.5622 27.0291C28.6223 27.0892 28.6937 27.1369 28.7723 27.1694C28.8508 27.2019 28.935 27.2187 29.0201 27.2187C29.1051 27.2187 29.1893 27.2019 29.2679 27.1694C29.3465 27.1369 29.4179 27.0892 29.478 27.029L31.686 24.8216L34.247 27.3819L33.2571 28.3716C33.1356 28.493 33.0674 28.6576 33.0674 28.8293C33.0674 29.001 33.1356 29.1657 33.2571 29.2871C33.3785 29.4085 33.5432 29.4767 33.715 29.4767C33.8867 29.4767 34.0514 29.4085 34.1729 29.2871L35.1628 28.2975L37.7238 30.8578L35.5157 33.0651C35.4556 33.1252 35.4079 33.1966 35.3753 33.2751C35.3428 33.3537 35.3261 33.4379 35.3261 33.5229C35.3261 33.6079 35.3428 33.6921 35.3754 33.7706C35.4079 33.8492 35.4556 33.9205 35.5158 33.9807C35.5759 34.0408 35.6473 34.0885 35.7259 34.121C35.8044 34.1535 35.8886 34.1703 35.9737 34.1703C36.0587 34.1703 36.1429 34.1535 36.2215 34.121C36.3001 34.0884 36.3715 34.0407 36.4316 33.9806L38.6396 31.7733L39.6314 32.7648C40.0111 33.1443 40.0111 33.7621 39.6314 34.1416Z" fill="url(#paint0_linear_2010_49)"/>
<path d="M29.3962 20.7015L37.0226 13.0773C37.0908 13.0075 37.1432 12.924 37.1764 12.8323L41.1888 1.31081C41.2288 1.19586 41.2356 1.07198 41.2083 0.953354C41.1811 0.834733 41.121 0.726182 41.0349 0.640152C40.9488 0.554121 40.8402 0.494095 40.7215 0.466957C40.6028 0.43982 40.4789 0.44667 40.364 0.486722L28.8455 4.50463C28.754 4.53776 28.6706 4.59007 28.601 4.65805L20.9745 12.2824L9.79542 1.10657C8.91079 0.222196 7.47146 0.222357 6.58675 1.10665L0.783201 6.90859C-0.101428 7.79296 -0.101428 9.23196 0.783201 10.1163L11.9623 21.2921L1.25688 31.9944C0.518597 32.7323 0.111938 33.7137 0.111938 34.7575C0.111938 35.8013 0.518597 36.7826 1.25688 37.5207L4.15044 40.4135C4.91252 41.1753 5.91347 41.5562 6.91441 41.5562C7.91543 41.5562 8.91646 41.1753 9.67854 40.4135L20.3839 29.7112L31.5349 40.859C31.9773 41.3012 32.5583 41.5223 33.1392 41.5223C33.7204 41.5223 34.3013 41.3012 34.7437 40.859L40.5472 35.0571C41.4319 34.1727 41.4319 32.7338 40.5472 31.8494L29.3962 20.7015ZM13.9353 34.3269L11.0979 31.4902L22.4536 20.1378C22.4781 20.1195 22.5021 20.0998 22.5244 20.0775L25.1903 17.4124C25.2121 17.3902 25.2322 17.3666 25.2506 17.3416L32.267 10.3274L32.4164 12.4151C32.4275 12.5704 32.4943 12.7165 32.6044 12.8266C32.7145 12.9367 32.8607 13.0034 33.016 13.0146L35.1044 13.1639L13.9353 34.3269ZM11.1346 37.1268L4.54455 30.5386L6.42948 28.6542L9.72371 31.9476L9.72452 31.9483L13.0196 35.2424L11.1346 37.1268ZM21.4326 13.6557L21.4331 13.6549L28.5142 6.57601L28.6635 8.66317C28.6746 8.81852 28.7413 8.96467 28.8514 9.0748C28.9616 9.18494 29.1078 9.25168 29.2632 9.26279L31.3511 9.41193L10.1822 30.5747L7.34535 27.7387L21.4326 13.6557ZM35.0483 3.71218L37.9655 6.62853L36.1162 11.9383L33.668 11.7632L33.4574 8.82113C33.439 8.50757 33.1713 8.23996 32.8576 8.2216L29.9152 8.01137L29.7402 5.56387L35.0483 3.71218ZM38.4384 5.27037L36.4062 3.23856L39.525 2.15059L38.4384 5.27037ZM1.69907 9.20073C1.31929 8.82121 1.31929 8.20363 1.69907 7.82404L7.50262 2.02209C7.59299 1.93164 7.70034 1.85992 7.8185 1.81107C7.93667 1.76222 8.06333 1.73719 8.19121 1.73742C8.44051 1.73742 8.68982 1.83234 8.87963 2.02209L9.90931 3.05147L7.70134 5.25896C7.64061 5.31895 7.59235 5.39034 7.55933 5.46904C7.5263 5.54774 7.50917 5.63219 7.50891 5.71753C7.50866 5.80287 7.52529 5.88742 7.55784 5.96632C7.59039 6.04521 7.63823 6.11689 7.69859 6.17724C7.75896 6.23758 7.83067 6.2854 7.90959 6.31793C7.98851 6.35047 8.07308 6.36708 8.15845 6.36682C8.24382 6.36656 8.32829 6.34942 8.40701 6.3164C8.48573 6.28338 8.55714 6.23512 8.61713 6.17441L10.8251 3.967L13.3861 6.5273L12.3962 7.51695C12.2748 7.63836 12.2066 7.80303 12.2066 7.97473C12.2066 8.14642 12.2748 8.31108 12.3963 8.43247C12.5177 8.55387 12.6825 8.62206 12.8542 8.62204C13.026 8.62203 13.1907 8.55381 13.3121 8.43239L14.302 7.44274L16.863 10.003L14.6549 12.2105C14.5948 12.2706 14.5471 12.3419 14.5146 12.4205C14.482 12.499 14.4653 12.5832 14.4653 12.6682C14.4653 12.7532 14.4821 12.8374 14.5146 12.916C14.5472 12.9945 14.5949 13.0659 14.655 13.126C14.7152 13.1861 14.7865 13.2338 14.8651 13.2663C14.9437 13.2988 15.0279 13.3156 15.1129 13.3156C15.198 13.3155 15.2822 13.2988 15.3607 13.2662C15.4393 13.2337 15.5107 13.186 15.5708 13.1259L17.7788 10.9186L20.0588 13.1979L12.8781 20.3765L1.69907 9.20073ZM8.76267 39.498C7.74367 40.5167 6.08539 40.5167 5.06623 39.498L2.17267 36.6052C1.67892 36.1116 1.40703 35.4555 1.40703 34.7575C1.40703 34.0596 1.679 33.4033 2.17275 32.9098L3.62876 31.4541L10.2188 38.0423L8.76267 39.498ZM39.6314 34.1416L33.8278 39.9435C33.4483 40.3229 32.8304 40.323 32.4508 39.9435L21.2996 28.7956L28.4804 21.617L30.7703 23.9062L28.5621 26.1135C28.502 26.1736 28.4543 26.245 28.4217 26.3236C28.3892 26.4021 28.3725 26.4863 28.3725 26.5713C28.3725 26.6563 28.3892 26.7405 28.4218 26.8191C28.4543 26.8976 28.502 26.969 28.5622 27.0291C28.6223 27.0892 28.6937 27.1369 28.7723 27.1694C28.8508 27.2019 28.935 27.2187 29.0201 27.2187C29.1051 27.2187 29.1893 27.2019 29.2679 27.1694C29.3465 27.1369 29.4179 27.0892 29.478 27.029L31.686 24.8216L34.247 27.3819L33.2571 28.3716C33.1356 28.493 33.0674 28.6576 33.0674 28.8293C33.0674 29.001 33.1356 29.1657 33.2571 29.2871C33.3785 29.4085 33.5432 29.4767 33.715 29.4767C33.8867 29.4767 34.0514 29.4085 34.1729 29.2871L35.1628 28.2975L37.7238 30.8578L35.5157 33.0651C35.4556 33.1252 35.4079 33.1966 35.3753 33.2751C35.3428 33.3537 35.3261 33.4379 35.3261 33.5229C35.3261 33.6079 35.3428 33.6921 35.3754 33.7706C35.4079 33.8492 35.4556 33.9205 35.5158 33.9807C35.5759 34.0408 35.6473 34.0885 35.7259 34.121C35.8044 34.1535 35.8886 34.1703 35.9737 34.1703C36.0587 34.1703 36.1429 34.1535 36.2215 34.121C36.3001 34.0884 36.3715 34.0407 36.4316 33.9806L38.6396 31.7733L39.6314 32.7648C40.0111 33.1443 40.0111 33.7621 39.6314 34.1416Z" fill="#FF9549"/>
<defs>
<linearGradient id="paint0_linear_2010_49" x1="7.90624" y1="0.443359" x2="33.0878" y2="50.207" gradientUnits="userSpaceOnUse">
<stop stop-color="#B1D0B5"/>
<stop offset="1" stop-color="#83A187"/>
</linearGradient>
</defs>
</svg>
