<svg width="31" height="27" viewBox="0 0 31 27" fill="none" xmlns="http://www.w3.org/2000/svg">
<path d="M27.2182 0H2.78182C1.79775 0 1 0.696446 1 1.55556V2.44444C1 3.30355 1.79775 4 2.78182 4H27.2182C28.2023 4 29 3.30355 29 2.44444V1.55556C29 0.696446 28.2023 0 27.2182 0Z" fill="white"/>
<path d="M16.2294 12.2594L15.2768 10.0166L14.3241 12.2585C14.2317 12.4764 14.0779 12.6622 13.8817 12.7928C13.6855 12.9233 13.4556 12.9929 13.2205 12.9929H11.2053L12.6937 14.4941C12.84 14.6419 12.9459 14.8253 13.0013 15.0265C13.0567 15.2277 13.0596 15.4398 13.0098 15.6425L12.3259 18.4019L14.6812 17.0447C14.8628 16.9405 15.0682 16.8857 15.2772 16.8857C15.4862 16.8857 15.6916 16.9405 15.8732 17.0447L18.2276 18.4019L17.5437 15.6425C17.4941 15.4398 17.4971 15.2277 17.5525 15.0266C17.6078 14.8254 17.7137 14.642 17.8598 14.4941L19.3482 12.9929H17.333C17.098 12.993 16.8682 12.9235 16.672 12.7931C16.4758 12.6627 16.3219 12.4772 16.2294 12.2594Z" fill="white"/>
<path d="M25.0981 5.40039H5.45529C5.27769 5.40039 5.10736 5.47151 4.98178 5.59809C4.8562 5.72468 4.78564 5.89637 4.78564 6.07539V25.3777C4.78568 25.6412 4.85129 25.9005 4.97649 26.1318C5.10168 26.3631 5.28245 26.5591 5.50224 26.7017C5.72203 26.8444 5.97382 26.9292 6.23454 26.9483C6.49526 26.9675 6.75658 26.9204 6.99457 26.8114L15.1856 23.0584C15.2145 23.0455 15.2457 23.0389 15.2773 23.0391C15.3088 23.0392 15.34 23.0461 15.3687 23.0593L23.558 26.8123C23.7961 26.9215 24.0576 26.9688 24.3185 26.9497C24.5794 26.9306 24.8314 26.8457 25.0513 26.703C25.2713 26.5602 25.4521 26.364 25.5773 26.1325C25.7025 25.9009 25.768 25.6414 25.7678 25.3777V6.07539C25.7678 5.89637 25.6972 5.72468 25.5717 5.59809C25.4461 5.47151 25.2757 5.40039 25.0981 5.40039ZM20.533 13.7074L18.8624 15.3931L19.6062 18.3946C19.6634 18.6247 19.6523 18.8668 19.5741 19.0906C19.496 19.3144 19.3542 19.51 19.1666 19.6533C18.9789 19.7965 18.7536 19.8809 18.5187 19.896C18.2838 19.9111 18.0497 19.8563 17.8455 19.7383L15.2767 18.2569L12.7089 19.7383C12.5046 19.8561 12.2705 19.9108 12.0356 19.8957C11.8007 19.8805 11.5755 19.7961 11.3878 19.6529C11.2001 19.5098 11.0583 19.3142 10.98 19.0905C10.9017 18.8668 10.8903 18.6248 10.9473 18.3946L11.691 15.3931L10.0214 13.7083C9.85336 13.5392 9.7389 13.3236 9.69247 13.0889C9.64605 12.8542 9.66974 12.6109 9.76055 12.3898C9.85136 12.1686 10.0052 11.9796 10.2026 11.8466C10.4 11.7137 10.6321 11.6427 10.8696 11.6428H13.1285L14.1731 9.18579C14.2658 8.96818 14.4197 8.78273 14.6159 8.65242C14.812 8.52211 15.0418 8.45265 15.2767 8.45265C15.5116 8.45265 15.7414 8.52211 15.9376 8.65242C16.1337 8.78273 16.2876 8.96818 16.3803 9.18579L17.4249 11.6428H19.683C19.9204 11.6426 20.1525 11.7133 20.35 11.8461C20.5475 11.9789 20.7015 12.1677 20.7925 12.3888C20.8835 12.6098 20.9074 12.853 20.8612 13.0878C20.815 13.3225 20.7008 13.5381 20.533 13.7074Z" fill="white"/>
</svg>
