<svg width="166" height="166" viewBox="0 0 166 166" fill="none" xmlns="http://www.w3.org/2000/svg">
<path d="M165.239 132.229L129.444 96.4394C129.621 96.3003 129.808 96.173 130.002 96.0582L139.542 90.9827C141.982 89.7003 143.824 87.5154 144.675 84.8943C145.526 82.2731 145.32 79.423 144.099 76.952L139.347 67.2342C138.983 66.4935 138.793 65.679 138.793 64.8534C138.793 64.0279 138.983 63.2134 139.347 62.4726L144.099 52.7549C145.32 50.2838 145.526 47.4338 144.675 44.8126C143.824 42.1914 141.982 40.0066 139.542 38.7241L129.991 33.6539C129.262 33.2685 128.63 32.7209 128.146 32.0532C127.661 31.3855 127.336 30.6156 127.195 29.8026L125.325 19.1486C124.86 16.4329 123.352 14.0063 121.123 12.3862C118.894 10.7662 116.12 10.0807 113.393 10.476L102.681 11.9932C101.864 12.1069 101.032 12.0336 100.247 11.7789C99.4626 11.5242 98.7462 11.0946 98.1519 10.5227L90.3704 3.00157C88.3972 1.07715 85.7499 0 82.9935 0C80.2371 0 77.5898 1.07715 75.6166 3.00157L67.8351 10.5227C67.2408 11.0946 66.5244 11.5242 65.7399 11.7789C64.9554 12.0336 64.1232 12.1069 63.3062 11.9932L52.5911 10.476C49.8642 10.082 47.0912 10.7681 44.8626 12.3879C42.634 14.0078 41.1259 16.4335 40.6594 19.1486L38.7892 29.8026C38.6504 30.6165 38.3256 31.3874 37.8402 32.0554C37.3548 32.7233 36.7218 33.2704 35.9905 33.6539L26.4503 38.7241C24.0106 40.0066 22.1686 42.1914 21.3172 44.8126C20.4658 47.4338 20.6724 50.2838 21.8929 52.7549L26.6449 62.4726C27.0093 63.2134 27.1987 64.0279 27.1987 64.8534C27.1987 65.679 27.0093 66.4935 26.6449 67.2342L21.8826 76.952C20.6621 79.423 20.4555 82.2731 21.3069 84.8943C22.1582 87.5154 24.0002 89.7003 26.4399 90.9827L36.0009 96.053C36.1939 96.1679 36.3794 96.2952 36.5559 96.4342L0.760898 132.224C0.433155 132.551 0.199042 132.961 0.0828835 133.409C-0.0332747 133.857 -0.0272398 134.328 0.100361 134.774C0.227962 135.219 0.472473 135.622 0.80849 135.941C1.14451 136.259 1.55977 136.482 2.01113 136.586L24.2741 141.724L29.4125 163.984C29.5166 164.435 29.7396 164.85 30.0584 165.186C30.3772 165.522 30.7802 165.767 31.2255 165.894C31.6708 166.022 32.1421 166.028 32.5905 165.912C33.0389 165.796 33.448 165.562 33.7753 165.234L73.9358 125.077L75.6192 126.708C77.5927 128.632 80.2399 129.708 82.9961 129.708C85.7523 129.708 88.3995 128.632 90.373 126.708L92.0564 125.077L132.225 165.239C132.552 165.567 132.961 165.801 133.41 165.917C133.858 166.033 134.329 166.027 134.775 165.9C135.22 165.772 135.623 165.528 135.942 165.192C136.26 164.856 136.483 164.44 136.588 163.989L141.726 141.729L163.989 136.592C164.44 136.488 164.855 136.265 165.192 135.946C165.528 135.627 165.772 135.224 165.9 134.779C166.027 134.334 166.033 133.862 165.917 133.414C165.801 132.966 165.567 132.557 165.239 132.229ZM33.407 158.263L28.9586 138.983C28.8494 138.509 28.609 138.075 28.265 137.731C27.9211 137.387 27.4873 137.147 27.0132 137.038L7.73056 132.59L39.0408 101.284L40.6672 110.558C41.1361 113.272 42.6448 115.696 44.8728 117.316C47.1007 118.935 49.8724 119.622 52.5989 119.231L63.3114 117.714C64.1284 117.6 64.9605 117.673 65.7451 117.928C66.5296 118.183 67.246 118.612 67.8403 119.184L70.2033 121.469L33.407 158.263ZM79.2273 122.978L71.4483 115.457C69.4792 113.543 66.8413 112.471 64.0948 112.47C63.5905 112.468 63.0868 112.504 62.5877 112.576L51.87 114.093C50.476 114.297 49.0577 113.947 47.9182 113.119C46.7787 112.291 46.0084 111.05 45.7719 109.661L43.9017 99.007C43.6712 97.7976 43.2323 96.6376 42.6048 95.5784C42.5463 95.452 42.4778 95.3306 42.3999 95.2153C41.4315 93.6399 40.0643 92.348 38.4365 91.4703L28.8782 86.4C27.6299 85.7466 26.6869 84.6308 26.2507 83.2913C25.8145 81.9517 25.9196 80.4947 26.5437 79.2317L31.2956 69.5217C32.0092 68.0717 32.3804 66.4772 32.3804 64.8612C32.3804 63.2452 32.0092 61.6507 31.2956 60.2007L26.5437 50.483C25.9196 49.2199 25.8145 47.7629 26.2507 46.4234C26.6869 45.0838 27.6299 43.9681 28.8782 43.3146L38.4339 38.2443C39.8641 37.4925 41.1021 36.4217 42.052 35.1148C43.002 33.8079 43.6384 32.3 43.9121 30.7077L45.7822 20.0537C46.0132 18.6639 46.7804 17.4202 47.9188 16.59C49.0571 15.7597 50.4759 15.4091 51.87 15.6137L62.5852 17.1308C64.1841 17.3604 65.8144 17.22 67.3506 16.7204C68.8867 16.2209 70.2877 15.3755 71.4457 14.2495L79.2273 6.7284C80.2351 5.74466 81.5877 5.19397 82.9961 5.19397C84.4045 5.19397 85.7571 5.74466 86.765 6.7284L94.5465 14.2495C95.704 15.3756 97.1045 16.2212 98.6401 16.7212C100.176 17.2212 101.806 17.3622 103.404 17.1334L114.122 15.6137C115.517 15.4081 116.936 15.757 118.076 16.5856C119.216 17.4142 119.986 18.6564 120.22 20.0459L122.091 30.6999C122.364 32.2919 123 33.7997 123.949 35.1066C124.899 36.4135 126.136 37.4844 127.566 38.2366L137.124 43.3068C138.373 43.9603 139.316 45.076 139.752 46.4156C140.188 47.7551 140.083 49.2122 139.459 50.4752L134.697 60.1852C133.983 61.6352 133.612 63.2296 133.612 64.8456C133.612 66.4617 133.983 68.0561 134.697 69.5061L139.449 79.2239C140.073 80.4869 140.178 81.944 139.742 83.2835C139.305 84.623 138.362 85.7388 137.114 86.3923L127.558 91.4625C126.128 92.2143 124.89 93.2852 123.94 94.5921C122.99 95.899 122.354 97.4069 122.08 98.9992L120.21 109.653C119.975 111.041 119.207 112.282 118.07 113.112C116.932 113.941 115.516 114.294 114.122 114.093L103.402 112.573C101.803 112.344 100.173 112.484 98.6365 112.984C97.1003 113.483 95.6993 114.329 94.5413 115.455L86.7598 122.976C85.7525 123.958 84.4012 124.509 82.994 124.509C81.5869 124.51 80.2352 123.96 79.2273 122.978ZM138.979 137.038C138.505 137.147 138.071 137.387 137.727 137.731C137.383 138.075 137.143 138.509 137.034 138.983L132.585 158.263L95.7864 121.469L98.1468 119.184C98.7421 118.614 99.4586 118.185 100.243 117.931C101.027 117.676 101.859 117.602 102.676 117.714L113.391 119.231C116.118 119.624 118.89 118.938 121.119 117.318C123.347 115.698 124.855 113.273 125.322 110.558L126.949 101.284L158.262 132.59L138.979 137.038Z" fill="#ECECEC"/>
<path d="M121.904 64.8534C121.903 55.5395 118.56 46.535 112.483 39.4762C112.27 39.192 112.001 38.9544 111.692 38.7784C111.384 38.6023 111.043 38.4915 110.69 38.4527C110.336 38.414 109.979 38.4482 109.64 38.5532C109.301 38.6582 108.986 38.8317 108.717 39.0631C108.447 39.2945 108.228 39.5787 108.073 39.8982C107.918 40.2177 107.83 40.5657 107.815 40.9205C107.8 41.2753 107.858 41.6295 107.985 41.961C108.113 42.2925 108.307 42.5944 108.556 42.8478C114.122 49.3214 117.021 57.6671 116.668 66.1969C116.314 74.7266 112.733 82.8036 106.65 88.7942C100.567 94.7849 92.4355 98.2419 83.9002 98.4662C75.3649 98.6904 67.0629 95.6651 60.6736 90.0022C54.2842 84.3392 50.2843 76.4614 49.483 67.962C48.6817 59.4626 51.1388 50.9762 56.3572 44.2192C61.5756 37.4622 69.1658 32.939 77.5927 31.5645C86.0196 30.19 94.654 32.0668 101.75 36.8153C102.032 37.017 102.352 37.16 102.691 37.2357C103.029 37.3115 103.38 37.3186 103.721 37.2566C104.062 37.1946 104.388 37.0647 104.678 36.8746C104.968 36.6846 105.218 36.4382 105.411 36.1501C105.604 35.862 105.738 35.5381 105.804 35.1974C105.87 34.8568 105.867 34.5064 105.795 34.167C105.723 33.8276 105.583 33.5061 105.385 33.2215C105.186 32.9369 104.933 32.695 104.639 32.5102C97.4305 27.6854 88.8159 25.4077 80.1643 26.039C71.5126 26.6703 63.3201 30.1744 56.8883 35.9944C50.4566 41.8145 46.1545 49.6167 44.6657 58.1615C43.177 66.7062 44.5868 75.5034 48.6713 83.1552C52.7558 90.807 59.2806 96.8746 67.2091 100.394C75.1376 103.913 84.015 104.682 92.4308 102.579C100.847 100.476 108.318 95.621 113.658 88.7857C118.998 81.9504 121.9 73.5269 121.904 64.8534Z" fill="#ECECEC"/>
<path d="M97.9756 52.6952L77.7643 73.9773L68.0841 62.9498C67.8665 62.6719 67.5945 62.4413 67.2846 62.2721C66.9748 62.103 66.6337 61.9988 66.2822 61.9661C65.9306 61.9333 65.5762 61.9727 65.2404 62.0817C64.9046 62.1907 64.5947 62.3672 64.3295 62.6001C64.0643 62.8331 63.8494 63.1178 63.6981 63.4367C63.5468 63.7556 63.4622 64.102 63.4494 64.4548C63.4367 64.8075 63.4961 65.1591 63.624 65.4881C63.7519 65.8171 63.9456 66.1165 64.1933 66.368L75.7334 79.5299C75.9709 79.8012 76.2625 80.02 76.5894 80.1723C76.9164 80.3245 77.2715 80.407 77.632 80.4143H77.6839C78.0359 80.4141 78.3841 80.3422 78.7074 80.2031C79.0307 80.064 79.3223 79.8605 79.5645 79.6051L101.729 56.2638C101.976 56.0195 102.172 55.728 102.304 55.4066C102.436 55.0852 102.503 54.7404 102.499 54.3929C102.496 54.0453 102.422 53.702 102.284 53.3833C102.145 53.0646 101.943 52.7771 101.691 52.5379C101.439 52.2986 101.141 52.1125 100.816 51.9905C100.49 51.8686 100.143 51.8133 99.7961 51.8279C99.4488 51.8426 99.108 51.927 98.7939 52.0759C98.4798 52.2249 98.1989 52.4355 97.9678 52.6952H97.9756Z" fill="#ECECEC"/>
</svg>
