<svg width="188" height="188" viewBox="0 0 188 188" fill="none" xmlns="http://www.w3.org/2000/svg">
<path d="M116.768 77.7753C110.594 77.7753 104.598 78.9734 98.9458 81.3355C97.0746 82.1178 96.1916 84.2697 96.9729 86.1421C97.7543 88.0144 99.9053 88.8973 101.776 88.1162C106.527 86.1303 111.571 85.1236 116.768 85.1236C138.23 85.1236 155.69 102.595 155.69 124.07C155.69 145.544 138.23 163.016 116.768 163.016C95.3063 163.016 77.8461 145.544 77.8461 124.07C77.8461 118.877 78.8493 113.837 80.828 109.09C81.6087 107.217 80.7241 105.066 78.8526 104.285C76.9821 103.505 74.8308 104.389 74.0501 106.261C71.6961 111.91 70.5023 117.901 70.5023 124.07C70.5023 149.597 91.2569 170.364 116.768 170.364C142.279 170.364 163.034 149.597 163.034 124.07C163.034 98.5427 142.279 77.7753 116.768 77.7753Z" fill="#ECECEC"/>
<path d="M116.768 154.198C133.37 154.198 146.877 140.682 146.877 124.07C146.877 107.457 133.37 93.9416 116.768 93.9416C100.166 93.9416 86.6586 107.457 86.6586 124.07C86.6586 140.682 100.166 154.198 116.768 154.198ZM116.768 101.29C129.321 101.29 139.534 111.509 139.534 124.07C139.534 136.63 129.321 146.849 116.768 146.849C104.215 146.849 94.0024 136.631 94.0024 124.07C94.0024 111.509 104.215 101.29 116.768 101.29Z" fill="#ECECEC"/>
<path d="M169.378 60.1393H158.208L145.388 38.4298C145.063 37.88 144.601 37.4243 144.046 37.1078C143.492 36.7913 142.865 36.6248 142.227 36.6247H91.3098C90.6715 36.6248 90.0443 36.7913 89.49 37.1078C88.9357 37.4243 88.4734 37.88 88.1487 38.4298L75.3283 60.1393H54.3439V55.7304C54.3439 48.4368 48.4141 42.5034 41.1251 42.5034C33.836 42.5034 27.9063 48.4368 27.9063 55.7304V60.1393H18.6223C8.3539 60.1393 0 68.4984 0 78.7736V169.366C0 179.641 8.3539 188 18.6223 188H169.378C179.646 188 188 179.641 188 169.366V78.7736C188 68.4984 179.646 60.1393 169.378 60.1393ZM93.405 43.973H140.131L149.678 60.1393H83.8581L93.405 43.973ZM35.2501 55.7304C35.2501 52.489 37.8857 49.8517 41.1251 49.8517C44.3644 49.8517 47.0001 52.489 47.0001 55.7304V60.1393H35.2501V55.7304ZM180.657 169.366C180.657 175.589 175.597 180.652 169.378 180.652H18.6223C12.4033 180.652 7.34376 175.589 7.34376 169.366V78.7736C7.34376 72.5503 12.4033 67.4877 18.6223 67.4877H169.378C175.597 67.4877 180.656 72.5503 180.656 78.7736L180.657 169.366Z" fill="#ECECEC"/>
<path d="M116.768 116.905C120.716 116.905 123.928 120.119 123.928 124.07C123.928 126.099 125.572 127.744 127.6 127.744C129.628 127.744 131.272 126.099 131.272 124.07C131.272 116.067 124.765 109.557 116.768 109.557C114.74 109.557 113.096 111.202 113.096 113.231C113.096 115.26 114.74 116.905 116.768 116.905ZM116.768 26.9584C118.796 26.9584 120.44 25.3131 120.44 23.2842V3.67416C120.44 1.64529 118.796 0 116.768 0C114.74 0 113.096 1.64492 113.096 3.67416V23.2842C113.096 25.3135 114.74 26.9584 116.768 26.9584ZM134.241 26.9584C134.723 26.959 135.201 26.8642 135.646 26.6795C136.092 26.4949 136.496 26.2239 136.837 25.8822L150.31 12.4014C151.743 10.9666 151.743 8.64015 150.309 7.20502C148.875 5.77063 146.55 5.77063 145.116 7.20502L131.644 20.6862C130.21 22.121 130.21 24.4475 131.644 25.8826C131.985 26.2242 132.39 26.4951 132.835 26.6797C133.281 26.8643 133.758 26.959 134.241 26.9584ZM96.699 25.8826C97.4161 26.5998 98.3558 26.9588 99.2954 26.9588C100.235 26.9588 101.175 26.5998 101.892 25.8826C103.326 24.4478 103.326 22.1214 101.892 20.6862L88.4197 7.20539C86.9858 5.77137 84.6608 5.771 83.2269 7.20539C81.793 8.63978 81.7926 10.9666 83.2265 12.4017L96.699 25.8826ZM50.672 90.2674H31.5782C29.5502 90.2674 27.9063 91.9127 27.9063 93.9416C27.9063 95.9705 29.5502 97.6157 31.5782 97.6157H50.672C52.7 97.6157 54.3439 95.9708 54.3439 93.9416C54.3439 91.9123 52.7 90.2674 50.672 90.2674ZM86.6417 97.6154C87.6074 97.6154 88.5548 97.2222 89.2378 96.5388C89.9207 95.8555 90.3136 94.9108 90.3136 93.9412C90.3136 92.9749 89.9207 92.027 89.2378 91.3436C88.5548 90.6606 87.6074 90.2671 86.6417 90.2671C85.676 90.2671 84.7287 90.6602 84.0457 91.3436C83.3584 92.0334 82.9717 92.9672 82.9698 93.9412C82.9698 94.9075 83.3591 95.8555 84.0457 96.5388C84.7287 97.2222 85.6724 97.6154 86.6417 97.6154Z" fill="#ECECEC"/>
</svg>
