<svg width="152" height="162" viewBox="0 0 152 162" fill="none" xmlns="http://www.w3.org/2000/svg">
<path d="M53.2 50.5162L50.7756 106.312H45.5417L43.0667 2.4705C43.0508 1.80976 42.7769 1.18142 42.3035 0.71978C41.8301 0.258139 41.1948 -0.000190271 40.5333 1.05149e-07H20.2667C19.6052 -0.000190271 18.9699 0.258139 18.4965 0.71978C18.0231 1.18142 17.7492 1.80976 17.7333 2.4705L15.2583 106.312H2.53333C1.86145 106.312 1.21709 106.579 0.741997 107.054C0.266904 107.529 0 108.172 0 108.844V159.469C0 160.14 0.266904 160.784 0.741997 161.259C1.21709 161.733 1.86145 162 2.53333 162H141.867C142.539 162 143.183 161.733 143.658 161.259C144.133 160.784 144.4 160.14 144.4 159.469V78.4688C144.4 77.8388 144.165 77.2314 143.741 76.7652L118.408 48.9215C118.177 48.6678 117.897 48.4636 117.585 48.3213C117.273 48.179 116.935 48.1016 116.592 48.0938C116.248 48.0799 115.906 48.1388 115.587 48.2666C115.269 48.3945 114.981 48.5883 114.742 48.8354L86.8756 76.6792C86.4005 77.1537 86.1335 77.7975 86.1333 78.4688V106.312H80.9577L78.5333 50.5162C78.5052 49.8639 78.226 49.2477 77.7539 48.7962C77.2818 48.3448 76.6534 48.0931 76 48.0938H55.7333C55.0799 48.0931 54.4515 48.3448 53.9794 48.7962C53.5074 49.2477 53.2281 49.8639 53.2 50.5162ZM21.4751 58.2188L21.8373 43.0312H38.9627L39.3249 58.2188H21.4751ZM38 63.2812V73.4062H22.8V63.2812H38ZM22.8 37.9688V27.8438H38V37.9688H22.8ZM38.0583 5.0625L38.4813 22.7812H22.3187L22.7417 5.0625H38.0583ZM20.9912 78.4688H39.8088L40.4725 106.312H20.3275L20.9912 78.4688ZM106.4 156.938V145.547C106.4 143.197 107.334 140.944 108.997 139.282C110.66 137.621 112.915 136.688 115.267 136.688C117.618 136.688 119.874 137.621 121.536 139.282C123.199 140.944 124.133 143.197 124.133 145.547V156.938H106.4ZM91.2 79.5167L116.447 54.2928L139.333 79.4483V156.938H129.2V145.547C129.2 141.855 127.732 138.313 125.119 135.703C122.506 133.092 118.962 131.625 115.267 131.625C111.571 131.625 108.027 133.092 105.414 135.703C102.801 138.313 101.333 141.855 101.333 145.547V156.938H91.2V79.5167ZM86.1333 156.938H5.06667V111.375H86.1333V156.938ZM55.8448 106.312L56.2856 96.1875H75.4477L75.8885 106.312H55.8448ZM58.2667 91.125V81H73.4667V91.125H58.2667ZM73.5756 53.1562L74.5661 75.9375H57.1672L58.1577 53.1562H73.5756Z" fill="#ECECEC"/>
<path d="M103.867 93.6562H126.667C127.339 93.6562 127.983 93.3896 128.458 92.9149C128.933 92.4402 129.2 91.7963 129.2 91.125V81C129.2 80.3287 128.933 79.6848 128.458 79.2101C127.983 78.7354 127.339 78.4688 126.667 78.4688H103.867C103.195 78.4688 102.55 78.7354 102.075 79.2101C101.6 79.6848 101.333 80.3287 101.333 81V91.125C101.333 91.7963 101.6 92.4402 102.075 92.9149C102.55 93.3896 103.195 93.6562 103.867 93.6562ZM106.4 83.5312H124.133V88.5938H106.4V83.5312ZM27.8667 124.031H12.6667C11.9948 124.031 11.3504 124.298 10.8753 124.773C10.4002 125.247 10.1333 125.891 10.1333 126.562V141.75C10.1333 142.421 10.4002 143.065 10.8753 143.54C11.3504 144.015 11.9948 144.281 12.6667 144.281H27.8667C28.5385 144.281 29.1829 144.015 29.658 143.54C30.1331 143.065 30.4 142.421 30.4 141.75V126.562C30.4 125.891 30.1331 125.247 29.658 124.773C29.1829 124.298 28.5385 124.031 27.8667 124.031ZM25.3333 139.219H15.2V129.094H25.3333V139.219ZM53.2 124.031H38C37.3281 124.031 36.6838 124.298 36.2087 124.773C35.7336 125.247 35.4667 125.891 35.4667 126.562V141.75C35.4667 142.421 35.7336 143.065 36.2087 143.54C36.6838 144.015 37.3281 144.281 38 144.281H53.2C53.8719 144.281 54.5162 144.015 54.9913 143.54C55.4664 143.065 55.7333 142.421 55.7333 141.75V126.562C55.7333 125.891 55.4664 125.247 54.9913 124.773C54.5162 124.298 53.8719 124.031 53.2 124.031ZM50.6667 139.219H40.5333V129.094H50.6667V139.219ZM63.3333 124.031C62.6614 124.031 62.0171 124.298 61.542 124.773C61.0669 125.247 60.8 125.891 60.8 126.562V141.75C60.8 142.421 61.0669 143.065 61.542 143.54C62.0171 144.015 62.6614 144.281 63.3333 144.281H78.5333C79.2052 144.281 79.8496 144.015 80.3247 143.54C80.7998 143.065 81.0667 142.421 81.0667 141.75V126.562C81.0667 125.891 80.7998 125.247 80.3247 124.773C79.8496 124.298 79.2052 124.031 78.5333 124.031H63.3333ZM76 139.219H65.8667V129.094H76V139.219ZM101.333 116.438H103.867C104.539 116.438 105.183 116.171 105.658 115.696C106.133 115.221 106.4 114.578 106.4 113.906C106.4 113.235 106.133 112.591 105.658 112.116C105.183 111.642 104.539 111.375 103.867 111.375H101.333C100.661 111.375 100.017 111.642 99.542 112.116C99.0669 112.591 98.8 113.235 98.8 113.906C98.8 114.578 99.0669 115.221 99.542 115.696C100.017 116.171 100.661 116.438 101.333 116.438ZM116.533 111.375H114C113.328 111.375 112.684 111.642 112.209 112.116C111.734 112.591 111.467 113.235 111.467 113.906C111.467 114.578 111.734 115.221 112.209 115.696C112.684 116.171 113.328 116.438 114 116.438H116.533C117.205 116.438 117.85 116.171 118.325 115.696C118.8 115.221 119.067 114.578 119.067 113.906C119.067 113.235 118.8 112.591 118.325 112.116C117.85 111.642 117.205 111.375 116.533 111.375ZM126.667 111.375C125.995 111.375 125.35 111.642 124.875 112.116C124.4 112.591 124.133 113.235 124.133 113.906C124.133 114.578 124.4 115.221 124.875 115.696C125.35 116.171 125.995 116.438 126.667 116.438H129.2C129.872 116.438 130.516 116.171 130.991 115.696C131.466 115.221 131.733 114.578 131.733 113.906C131.733 113.235 131.466 112.591 130.991 112.116C130.516 111.642 129.872 111.375 129.2 111.375H126.667ZM101.333 126.562H103.867C104.539 126.562 105.183 126.296 105.658 125.821C106.133 125.346 106.4 124.703 106.4 124.031C106.4 123.36 106.133 122.716 105.658 122.241C105.183 121.767 104.539 121.5 103.867 121.5H101.333C100.661 121.5 100.017 121.767 99.542 122.241C99.0669 122.716 98.8 123.36 98.8 124.031C98.8 124.703 99.0669 125.346 99.542 125.821C100.017 126.296 100.661 126.562 101.333 126.562ZM116.533 121.5H114C113.328 121.5 112.684 121.767 112.209 122.241C111.734 122.716 111.467 123.36 111.467 124.031C111.467 124.703 111.734 125.346 112.209 125.821C112.684 126.296 113.328 126.562 114 126.562H116.533C117.205 126.562 117.85 126.296 118.325 125.821C118.8 125.346 119.067 124.703 119.067 124.031C119.067 123.36 118.8 122.716 118.325 122.241C117.85 121.767 117.205 121.5 116.533 121.5ZM129.2 121.5H126.667C125.995 121.5 125.35 121.767 124.875 122.241C124.4 122.716 124.133 123.36 124.133 124.031C124.133 124.703 124.4 125.346 124.875 125.821C125.35 126.296 125.995 126.562 126.667 126.562H129.2C129.872 126.562 130.516 126.296 130.991 125.821C131.466 125.346 131.733 124.703 131.733 124.031C131.733 123.36 131.466 122.716 130.991 122.241C130.516 121.767 129.872 121.5 129.2 121.5ZM68.4 20.25C65.7125 20.25 63.135 21.3167 61.2347 23.2155C59.3343 25.1143 58.2667 27.6897 58.2667 30.375V40.5C58.2667 41.1713 58.5336 41.8152 59.0087 42.2899C59.4838 42.7646 60.1281 43.0312 60.8 43.0312C61.4719 43.0312 62.1162 42.7646 62.5913 42.2899C63.0664 41.8152 63.3333 41.1713 63.3333 40.5V30.375C63.3333 29.0323 63.8671 27.7447 64.8173 26.7953C65.7675 25.8459 67.0562 25.3125 68.4 25.3125C71.0875 25.3125 73.665 24.2458 75.5653 22.347C77.4657 20.4482 78.5333 17.8728 78.5333 15.1875C78.5333 12.5022 77.4657 9.92685 75.5653 8.02804C73.665 6.12924 71.0875 5.0625 68.4 5.0625C67.7281 5.0625 67.0838 5.32918 66.6087 5.80389C66.1336 6.27859 65.8667 6.92242 65.8667 7.59375C65.8667 8.26508 66.1336 8.90891 66.6087 9.38361C67.0838 9.85832 67.7281 10.125 68.4 10.125C69.7438 10.125 71.0325 10.6584 71.9827 11.6078C72.9329 12.5572 73.4667 13.8448 73.4667 15.1875C73.4667 16.5302 72.9329 17.8178 71.9827 18.7672C71.0325 19.7166 69.7438 20.25 68.4 20.25Z" fill="#ECECEC"/>
<path d="M141.867 15.1875H98.8C97.4562 15.1875 96.1675 14.6541 95.2173 13.7047C94.2671 12.7553 93.7333 11.4677 93.7333 10.125C93.7333 8.78234 94.2671 7.49467 95.2173 6.54527C96.1675 5.59587 97.4562 5.0625 98.8 5.0625H114C114.672 5.0625 115.316 4.79582 115.791 4.32111C116.266 3.84641 116.533 3.20258 116.533 2.53125C116.533 1.85992 116.266 1.21609 115.791 0.741386C115.316 0.266685 114.672 1.05149e-07 114 1.05149e-07H98.8C96.1125 1.05149e-07 93.535 1.06674 91.6347 2.96554C89.7343 4.86435 88.6667 7.43968 88.6667 10.125C88.6667 12.8103 89.7343 15.3857 91.6347 17.2845C93.535 19.1833 96.1125 20.25 98.8 20.25H141.867C143.21 20.25 144.499 20.7834 145.449 21.7328C146.4 22.6822 146.933 23.9698 146.933 25.3125C146.933 26.6552 146.4 27.9428 145.449 28.8922C144.499 29.8416 143.21 30.375 141.867 30.375H78.5333C75.8458 30.375 73.2684 31.4417 71.368 33.3405C69.4676 35.2393 68.4 37.8147 68.4 40.5C68.4 41.1713 68.6669 41.8152 69.142 42.2899C69.6171 42.7646 70.2615 43.0312 70.9333 43.0312C71.6052 43.0312 72.2496 42.7646 72.7247 42.2899C73.1998 41.8152 73.4667 41.1713 73.4667 40.5C73.4667 39.1573 74.0005 37.8697 74.9507 36.9203C75.9008 35.9709 77.1896 35.4375 78.5333 35.4375H141.867C144.554 35.4375 147.132 34.3708 149.032 32.472C150.932 30.5732 152 27.9978 152 25.3125C152 22.6272 150.932 20.0518 149.032 18.153C147.132 16.2542 144.554 15.1875 141.867 15.1875Z" fill="#ECECEC"/>
<path d="M136.8 5.0625C137.472 5.0625 138.116 4.79582 138.591 4.32111C139.066 3.84641 139.333 3.20258 139.333 2.53125C139.333 1.85992 139.066 1.21609 138.591 0.741386C138.116 0.266685 137.472 1.05149e-07 136.8 1.05149e-07H124.133C123.461 1.05149e-07 122.817 0.266685 122.342 0.741386C121.867 1.21609 121.6 1.85992 121.6 2.53125C121.6 3.20258 121.867 3.84641 122.342 4.32111C122.817 4.79582 123.461 5.0625 124.133 5.0625H136.8Z" fill="#ECECEC"/>
</svg>
