<svg width="40" height="40" viewBox="0 0 40 40" fill="none" xmlns="http://www.w3.org/2000/svg">
<path d="M28.4916 19.7098L35.9116 12.2919C35.978 12.2241 36.029 12.1428 36.0613 12.0536L39.965 0.84397C40.0039 0.732136 40.0105 0.611601 39.9841 0.496191C39.9576 0.38078 39.8991 0.275168 39.8153 0.191466C39.7315 0.107764 39.6259 0.0493622 39.5104 0.0229592C39.3949 -0.00344384 39.2744 0.00322097 39.1625 0.0421892L27.9558 3.95134C27.8668 3.98358 27.7857 4.03448 27.7179 4.10062L20.2979 11.5186L9.42138 0.645257C8.5607 -0.215177 7.16032 -0.21502 6.29956 0.645336L0.653094 6.29024C-0.207591 7.15067 -0.207591 8.55072 0.653094 9.41108L11.5296 20.2844L1.11395 30.697C0.395652 31.415 0 32.3699 0 33.3854C0 34.4009 0.395652 35.3557 1.11395 36.0738L3.92919 38.8883C4.67065 39.6294 5.6445 40 6.61835 40C7.59228 40 8.56621 39.6294 9.30766 38.8883L19.7232 28.4757L30.5725 39.3217C31.0028 39.7519 31.5681 39.967 32.1333 39.967C32.6988 39.967 33.264 39.7519 33.6944 39.3217L39.3408 33.6768C40.2015 32.8164 40.2015 31.4164 39.3408 30.556L28.4916 19.7098ZM13.4493 32.9664L10.6886 30.2065L21.7369 19.1614C21.7608 19.1435 21.7841 19.1244 21.8058 19.1027L24.3995 16.5097C24.4207 16.4882 24.4404 16.4652 24.4583 16.4408L31.2847 9.61648L31.4301 11.6477C31.4409 11.7988 31.5058 11.9409 31.613 12.0481C31.7201 12.1552 31.8623 12.2201 32.0135 12.2309L34.0453 12.3763L13.4493 32.9664ZM10.7243 35.6905L4.31264 29.2807L6.14654 27.4473L9.35161 30.6515L9.3524 30.6522L12.5582 33.8571L10.7243 35.6905ZM20.7435 12.8547L20.7441 12.8539L27.6335 5.96666L27.7787 7.99733C27.7895 8.14847 27.8545 8.29066 27.9616 8.39782C28.0688 8.50497 28.211 8.56991 28.3622 8.58072L30.3936 8.72581L9.79766 29.3158L7.03763 26.5565L20.7435 12.8547ZM33.9907 3.18035L36.8289 6.01776L35.0298 11.1838L32.6478 11.0135L32.4429 8.15101C32.425 7.84593 32.1645 7.58558 31.8594 7.5677L28.9965 7.36316L28.8264 4.98191L33.9907 3.18035ZM37.2891 4.69636L35.3119 2.71954L38.3463 1.66102L37.2891 4.69636ZM1.54418 8.52033C1.17467 8.15109 1.17467 7.55023 1.54418 7.18091L7.19064 1.536C7.27856 1.448 7.383 1.37822 7.49797 1.33069C7.61294 1.28316 7.73618 1.25881 7.86059 1.25903C8.10315 1.25903 8.3457 1.35138 8.53038 1.536L9.53219 2.53752L7.38398 4.68526C7.3249 4.74362 7.27794 4.81308 7.24581 4.88965C7.21368 4.96622 7.19701 5.04838 7.19676 5.13141C7.19651 5.21445 7.21269 5.29671 7.24436 5.37347C7.27603 5.45023 7.32257 5.51997 7.38131 5.57868C7.44004 5.63739 7.50981 5.68391 7.58659 5.71557C7.66337 5.74722 7.74566 5.76339 7.82872 5.76313C7.91177 5.76288 7.99396 5.7462 8.07055 5.71408C8.14714 5.68195 8.21661 5.635 8.27498 5.57593L10.4232 3.42827L12.9149 5.91927L11.9518 6.88213C11.8336 7.00026 11.7673 7.16047 11.7673 7.32752C11.7673 7.49456 11.8337 7.65476 11.9519 7.77287C12.07 7.89098 12.2303 7.95733 12.3974 7.95731C12.5645 7.9573 12.7247 7.89093 12.8429 7.77279L13.806 6.80993L16.2976 9.30093L14.1494 11.4486C14.0909 11.5071 14.0445 11.5765 14.0128 11.6529C13.9811 11.7294 13.9649 11.8113 13.9649 11.894C13.9649 11.9767 13.9812 12.0586 14.0128 12.135C14.0445 12.2114 14.0909 12.2809 14.1494 12.3393C14.2079 12.3978 14.2774 12.4442 14.3539 12.4759C14.4303 12.5075 14.5122 12.5238 14.595 12.5238C14.6777 12.5238 14.7596 12.5075 14.8361 12.4758C14.9125 12.4442 14.9819 12.3978 15.0404 12.3393L17.1887 10.1917L19.4069 12.4093L12.4206 19.3937L1.54418 8.52033ZM8.41658 37.9975C7.42517 38.9886 5.81177 38.9887 4.8202 37.9975L2.00496 35.1831C1.52457 34.7028 1.26004 34.0644 1.26004 33.3854C1.26004 32.7063 1.52465 32.0678 2.00504 31.5877L3.42163 30.1713L9.83334 36.5813L8.41658 37.9975ZM38.4497 32.7862L32.8033 38.431C32.4341 38.8002 31.8329 38.8002 31.4635 38.431L20.6142 27.5848L27.6006 20.6005L29.8285 22.8278L27.6801 24.9753C27.6216 25.0338 27.5752 25.1033 27.5436 25.1797C27.5119 25.2561 27.4956 25.338 27.4956 25.4207C27.4956 25.5035 27.5119 25.5854 27.5436 25.6618C27.5752 25.7382 27.6217 25.8076 27.6802 25.8661C27.7387 25.9246 27.8081 25.971 27.8846 26.0027C27.961 26.0343 28.0429 26.0506 28.1257 26.0506C28.2084 26.0506 28.2904 26.0343 28.3668 26.0026C28.4432 25.971 28.5127 25.9246 28.5712 25.8661L30.7194 23.7184L33.2111 26.2094L32.248 27.1723C32.1298 27.2904 32.0635 27.4506 32.0635 27.6177C32.0635 27.7847 32.1298 27.9449 32.248 28.063C32.3661 28.1812 32.5264 28.2475 32.6935 28.2475C32.8606 28.2475 33.0208 28.1812 33.139 28.063L34.1021 27.1002L36.5939 29.5912L34.4455 31.7388C34.387 31.7973 34.3406 31.8667 34.3089 31.9431C34.2773 32.0195 34.261 32.1014 34.261 32.1842C34.261 32.2669 34.2773 32.3488 34.3089 32.4252C34.3406 32.5016 34.387 32.5711 34.4455 32.6295C34.5041 32.688 34.5735 32.7344 34.65 32.7661C34.7264 32.7977 34.8083 32.814 34.8911 32.814C34.9738 32.814 35.0557 32.7977 35.1322 32.7661C35.2086 32.7344 35.2781 32.688 35.3366 32.6295L37.4849 30.4819L38.4497 31.4466C38.8193 31.8158 38.8193 32.4169 38.4497 32.7862Z" fill="#222222"/>
</svg>
