<svg width="332" height="108" viewBox="0 0 332 108" fill="none" xmlns="http://www.w3.org/2000/svg">
<path d="M312.881 5.18414C320.43 5.18414 326.542 11.2989 326.542 18.7636V89.2811C326.542 96.7854 320.39 102.861 312.881 102.861H18.901C11.3518 102.861 5.2405 96.7459 5.2405 89.2811V18.8033C5.2405 11.2989 11.3917 5.22385 18.901 5.22385H312.881M312.881 0.141521H18.901C8.51583 0.141521 0.127816 8.47974 0.127816 18.8033V89.3208C0.127816 99.6442 8.51583 107.983 18.901 107.983H312.881C323.267 107.983 331.654 99.6442 331.654 89.3208V18.8033C331.654 8.47974 323.267 0.141521 312.881 0.141521Z" fill="white"/>
<path d="M152.19 39.6886H158.781C158.142 43.3812 157.024 45.8428 155.506 47.153C153.988 48.4634 151.232 49.0987 147.277 49.0987H135.135C132.019 49.0987 129.783 48.6618 128.464 47.7488C127.146 46.8355 126.507 45.2869 126.507 43.0236C126.507 41.9914 126.627 40.8399 126.867 39.49L128.225 31.7872C128.944 27.8562 130.142 25.1561 131.899 23.7664C133.657 22.3371 136.533 21.6225 140.607 21.6225H151.471C154.467 21.6225 156.664 22.0591 158.102 22.9327C159.74 23.9651 160.579 25.7519 160.579 28.2136C160.579 29.1269 160.498 30.0797 160.299 31.0723H153.748L153.828 30.0401C153.828 28.968 153.469 28.2136 152.75 27.6974C152.031 27.2209 150.872 26.9827 149.235 26.9827H140.887C138.69 26.9827 137.212 27.3003 136.413 27.896C135.654 28.4915 135.055 29.8813 134.695 31.9856L133.497 38.696C133.377 39.4107 133.297 39.8869 133.297 40.0855C133.297 40.284 133.297 40.4428 133.297 40.5619C133.297 41.753 133.657 42.587 134.336 42.9841C135.015 43.4207 136.213 43.6194 137.851 43.6194H146.239C148.276 43.6194 149.674 43.3414 150.513 42.8252C151.392 42.3883 151.951 41.3164 152.19 39.6886Z" fill="white"/>
<path d="M188.299 21.9005H178.633L159.34 49.0987H166.969L171.723 42.2692H187.9L190.176 49.0987H197.845L188.299 21.9005ZM175.278 37.1078L182.427 26.9827H182.747L186.182 37.1078H175.278Z" fill="white"/>
<path d="M235.591 21.9005L230.799 49.0987H224.248L228.121 27.3005H212.783L210.667 39.2122C210.068 42.6272 208.949 45.1282 207.392 46.7164C205.794 48.3045 203.757 49.0987 201.201 49.0987H198.444L199.403 43.6987C201.041 43.6987 202.159 43.3418 202.798 42.6272C203.437 41.9123 203.957 40.5222 204.316 38.4974L207.232 21.9005H235.591Z" fill="white"/>
<path d="M268.264 22.8929C266.987 22.0194 264.869 21.6225 261.875 21.6225H249.85C246.056 21.6225 243.3 22.2974 241.582 23.6871C239.865 25.0768 238.707 27.5782 238.028 31.3105L236.549 39.8473C236.351 40.8795 236.27 41.8326 236.27 42.7854C236.27 45.0091 236.949 46.5973 238.347 47.6297C239.746 48.6223 241.942 49.1385 244.979 49.1385H257.001C260.755 49.1385 263.471 48.4634 265.11 47.0737C266.746 45.684 267.906 43.3016 268.544 39.8473L270.021 31.3105C270.262 30.0004 270.381 28.8886 270.381 27.9356C270.381 25.5137 269.702 23.846 268.264 22.8929ZM263.471 31.8665L262.153 39.0929C261.834 40.959 261.275 42.1899 260.515 42.7854C259.757 43.3812 258.318 43.6987 256.201 43.6987H247.535C245.896 43.6987 244.698 43.5003 244.06 43.1032C243.381 42.7061 243.061 41.9517 243.061 40.8795C243.061 40.5222 243.061 40.284 243.1 40.1649C243.1 40.0457 243.181 39.7282 243.259 39.1327L244.538 31.9063C244.898 29.9606 245.458 28.69 246.296 28.0151C247.135 27.34 248.573 27.0225 250.651 27.0225H259.078C260.715 27.0225 261.913 27.2607 262.592 27.6576C263.271 28.0944 263.63 28.8886 263.63 30.0401C263.671 30.4768 263.592 31.0723 263.471 31.8665Z" fill="white"/>
<path d="M282.244 21.9005L280.407 32.3429H297.262L299.14 21.9005H305.652L300.859 49.0589H294.306L296.345 37.7429H279.449L277.451 49.0589H270.9L275.693 21.9005H282.244Z" fill="white"/>
<path d="M136.134 56.5635L134.336 66.7282H138.21L151.911 56.5635H161.697L143.363 69.309L157.543 83.7222H147.917L137.332 72.1282H133.378L131.3 83.7222H124.79L129.583 56.5635H136.134Z" fill="white"/>
<path d="M193.611 57.5561C192.333 56.6826 190.216 56.2855 187.22 56.2855H175.198C171.403 56.2855 168.647 56.9606 166.929 58.3501C165.212 59.7398 164.054 62.2413 163.375 65.9738L161.897 74.5105C161.697 75.5429 161.617 76.4958 161.617 77.4487C161.617 79.6723 162.296 81.2605 163.694 82.2929C165.092 83.2855 167.289 83.8017 170.325 83.8017H182.348C186.102 83.8017 188.818 83.1266 190.456 81.7369C192.094 80.3472 193.252 77.9649 193.891 74.5105L195.369 65.9738C195.609 64.6634 195.728 63.5517 195.728 62.5988C195.728 60.1767 195.049 58.5488 193.611 57.5561ZM188.818 66.5295L187.5 73.7561C187.141 75.6223 186.621 76.8531 185.862 77.4487C185.104 78.0444 183.666 78.3619 181.549 78.3619H172.881C171.243 78.3619 170.045 78.1635 169.406 77.7664C168.727 77.3693 168.407 76.6149 168.407 75.5429C168.407 75.1854 168.407 74.9472 168.447 74.8281C168.447 74.709 168.527 74.3914 168.607 73.7957L169.885 66.5693C170.245 64.6238 170.804 63.3532 171.643 62.6782C172.482 62.0031 173.92 61.6855 175.997 61.6855H184.424C186.062 61.6855 187.26 61.884 187.94 62.3208C188.618 62.7575 188.978 63.5517 188.978 64.7032C189.018 65.1398 188.938 65.7356 188.818 66.5295Z" fill="white"/>
<path d="M228.681 66.0929C229.2 64.9016 229.479 63.4723 229.479 61.8046C229.479 59.9385 228.8 58.5885 227.402 57.7546C226.006 56.9604 223.929 56.5237 221.092 56.5237H201.4L196.607 83.7222H217.617C220.773 83.7222 223.209 83.1266 224.886 81.8958C226.564 80.665 227.643 78.6399 228.162 75.7414C228.202 75.5032 228.243 75.2252 228.281 74.8281C228.321 74.4708 228.362 74.1134 228.362 73.7561C228.362 72.4855 228.043 71.4929 227.364 70.778C226.883 70.2621 226.044 69.7854 224.808 69.3488C226.604 68.9914 227.921 67.8797 228.681 66.0929ZM220.851 77.6869C220.213 78.3222 218.974 78.6399 217.138 78.6399H204.036L205.155 72.4062H218.496C219.775 72.4062 220.613 72.5649 221.092 72.8428C221.571 73.1208 221.811 73.5973 221.811 74.2326C221.852 75.9003 221.532 77.0518 220.851 77.6869ZM221.652 66.49C221.013 67.2046 220.253 67.6017 219.334 67.6017H205.994L207.032 61.6855H220.332C221.211 61.6855 221.811 61.884 222.171 62.3208C222.45 62.6384 222.609 63.1148 222.609 63.7105C222.65 64.8223 222.29 65.7356 221.652 66.49Z" fill="white"/>
<path d="M242.861 56.5635L241.103 66.7282H244.938L258.638 56.5635H268.464L250.091 69.309L264.271 83.7222H254.683L244.1 72.1282H240.105L238.069 83.7222H231.518L236.311 56.5635H242.861Z" fill="white"/>
<path d="M302.536 83.7222H295.986L299.859 61.9237H298.942L278.69 83.7222H267.465L272.258 56.5635H278.809L274.936 78.3222H275.855L296.345 56.5635H307.329L302.536 83.7222Z" fill="white"/>
<path d="M94.0736 59.3427L118.639 83.7619H93.6343L70.9468 61.2091H55.6086C50.8953 61.2091 47.0609 57.3973 47.0609 52.7119C47.0609 50.3693 48.0194 48.2252 49.5773 46.7164C50.7755 45.5251 52.2933 44.6913 54.011 44.3738C54.5301 44.2547 55.0493 44.2149 55.6086 44.2149H72.7841L95.4716 21.662H120.476L88.2819 53.665L94.0736 59.3427Z" fill="white"/>
<path d="M70.7472 69.7458L84.8472 83.7619H55.7287C47.1009 83.7619 39.2719 80.2679 33.64 74.6692C27.9681 69.031 24.493 61.2884 24.493 52.7119C24.493 35.5592 38.4732 21.662 55.7287 21.662H86.6845L69.0297 39.212H55.7287C53.3721 39.212 51.1351 39.8075 49.2181 40.8795C47.6602 41.753 46.2622 42.9045 45.1438 44.2942C43.2665 46.5973 42.1482 49.5356 42.1482 52.7119C42.1482 56.3649 43.626 59.6605 45.9825 62.1222C47.2207 63.3928 48.7386 64.465 50.4162 65.1398C52.0539 65.8149 53.8114 66.212 55.6886 66.212H67.1524L70.7472 69.7458Z" fill="#FF9549"/>
</svg>
