<svg width="184" height="161" viewBox="0 0 184 161" fill="none" xmlns="http://www.w3.org/2000/svg">
<path d="M0 0V134.809H74.118L68.0745 152.278H51.1562C51.4876 155.026 50.5108 159.081 51.6533 161H132.844C132.521 158.261 133.498 154.206 132.355 152.278H115.934L109.908 134.809H184V0H0ZM8.72079 8.72156H175.279V100.647H8.71207L8.72079 8.72156ZM8.72079 109.368H175.279V126.088H8.71207L8.72079 109.368ZM83.3446 134.809H100.664C102.67 140.635 104.681 146.458 106.699 152.278H77.2924L83.3446 134.809Z" fill="#ECECEC"/>
<path d="M92.048 21.4289C47.6591 21.4289 28.6827 53.2975 28.6827 53.2975L27.4095 55.4953L28.6827 57.6757C28.6827 57.6757 47.6591 89.5443 92.048 89.5443C114.984 89.5443 130.96 81.6949 141.015 73.7582C151.07 65.8216 155.509 57.5187 155.509 57.5187L156.582 55.4953L155.509 53.4457C155.509 53.4457 151.079 45.1515 141.015 37.2236C130.951 29.2957 114.984 21.4289 92.048 21.4289ZM91.9956 30.5255C106.289 30.5255 117.678 41.7065 117.678 55.4953C117.678 69.2841 106.289 80.4651 91.9956 80.4651C77.7023 80.4651 66.3129 69.2841 66.3129 55.4953C66.3129 41.7065 77.7023 30.5255 91.9956 30.5255ZM118.821 34.6769C125.797 37.2759 131.318 40.6774 135.617 44.0613C143.065 49.9309 145.036 53.9341 145.96 55.4866C145.036 57.0564 143.056 61.0422 135.617 66.9118C130.551 70.8868 124.896 74.0471 118.856 76.2788C123.694 70.4295 126.359 63.0863 126.399 55.4953C126.399 47.5936 123.486 40.4244 118.821 34.6769ZM64.9437 34.9386C60.2236 40.7534 57.6301 48.0057 57.5921 55.4953C57.5921 63.2575 60.4089 70.3219 64.9263 76.0171C47.694 69.4411 39.8976 58.1118 38.2581 55.4953C39.8889 52.8788 47.6853 41.5233 64.9437 34.9386Z" fill="#ECECEC"/>
<path d="M108.617 55.4953C108.617 46.4685 101.074 39.1598 91.9956 39.1598C82.9173 39.1598 75.3738 46.4685 75.3738 55.4953C75.3738 64.5221 82.9173 71.8046 91.9956 71.8046C101.074 71.8046 108.617 64.5221 108.617 55.4953ZM99.8967 55.4953C99.8967 59.6816 96.4781 63.083 91.9956 63.083C87.5132 63.083 84.0946 59.6816 84.0946 55.4953C84.0946 51.3089 87.5132 47.8814 91.9956 47.8814C96.4781 47.8814 99.8967 51.3002 99.8967 55.4953Z" fill="#ECECEC"/>
</svg>
