<svg width="129" height="118" viewBox="0 0 129 118" fill="none" xmlns="http://www.w3.org/2000/svg">
<path fill-rule="evenodd" clip-rule="evenodd" d="M36.87 32.2144C39.4404 33.7028 42.3582 34.4861 45.3284 34.4852C50.9654 34.4852 56.4617 31.6784 59.6697 26.6398H78.4981C78.786 26.6398 79.0707 26.5795 79.3339 26.4628C79.5971 26.346 79.8329 26.1755 80.0262 25.9621L82.359 23.3862L84.6922 25.9621C84.8854 26.1754 85.1212 26.346 85.3844 26.4627C85.6476 26.5794 85.9323 26.6397 86.2201 26.6397C86.508 26.6397 86.7927 26.5794 87.0559 26.4627C87.3191 26.346 87.5549 26.1754 87.7481 25.9621L90.081 23.3862L92.4139 25.9621C92.6071 26.1755 92.8429 26.3461 93.1061 26.4628C93.3693 26.5795 93.6541 26.6398 93.942 26.6398H96.5673C97.0886 26.6398 97.5904 26.4424 97.972 26.087L105.56 19.0232C105.767 18.8304 105.932 18.5969 106.045 18.3373C106.158 18.0777 106.217 17.7976 106.217 17.5145C106.217 17.2313 106.158 16.9512 106.045 16.6916C105.932 16.4321 105.767 16.1985 105.56 16.0057L97.972 8.94213C97.5905 8.58692 97.0886 8.38942 96.5673 8.38939H59.6717C58.206 6.08922 56.2067 4.17679 53.8438 2.81451C45.7381 -1.86489 35.3367 0.922036 30.6568 9.02743C25.9772 17.1328 28.7643 27.5345 36.87 32.2144ZM34.2276 11.089C37.7709 4.95231 45.6462 2.84234 51.7825 6.38507C53.851 7.57675 55.5455 9.32248 56.675 11.4255C56.8513 11.754 57.1132 12.0285 57.4331 12.2199C57.753 12.4113 58.1187 12.5124 58.4915 12.5124H95.7561L101.129 17.5145L95.7561 22.5167H94.856L91.6088 18.9315C91.4156 18.7181 91.1798 18.5475 90.9167 18.4307C90.6535 18.314 90.3688 18.2536 90.0809 18.2536C89.793 18.2536 89.5083 18.3139 89.2451 18.4306C88.982 18.5473 88.7461 18.7178 88.5529 18.9312L86.2198 21.5071L83.8866 18.9312C83.6934 18.7179 83.4575 18.5474 83.1944 18.4307C82.9312 18.314 82.6465 18.2537 82.3586 18.2537C82.0707 18.2538 81.786 18.3141 81.5229 18.4308C81.2597 18.5476 81.0239 18.7181 80.8307 18.9315L77.5835 22.5167H58.4894C58.1173 22.5168 57.752 22.6175 57.4325 22.8083C57.113 22.9992 56.851 23.2729 56.6745 23.6006C56.6135 23.714 56.5511 23.8271 56.4859 23.9402C52.9429 30.0769 45.0679 32.1874 38.931 28.6441C32.7949 25.1006 30.6846 17.2256 34.2276 11.089ZM41.7491 24.0098C45.3305 24.0095 48.2442 21.0958 48.2444 17.5142C48.2444 13.9328 45.3305 11.0189 41.7488 11.0189C38.1675 11.0189 35.2535 13.9326 35.2535 17.5142C35.2535 21.0958 38.1675 24.0098 41.7491 24.0098ZM41.7488 15.1422C43.0571 15.1422 44.1214 16.2062 44.1214 17.5142C44.1214 18.8225 43.0571 19.8868 41.7488 19.8868C40.4405 19.8868 39.3765 18.8225 39.3765 17.5142C39.3765 16.2062 40.4408 15.1422 41.7488 15.1422ZM22.5939 40.3445C22.6563 38.9961 23.8002 37.9537 25.1487 38.0161C25.4693 38.0309 25.7839 38.1088 26.0744 38.2452C26.3649 38.3816 26.6258 38.5739 26.842 38.8112C27.0582 39.0484 27.2255 39.3259 27.3345 39.6278C27.4434 39.9297 27.4918 40.2502 27.4769 40.5708C27.4146 41.9193 26.2707 42.9616 24.9222 42.899C24.6016 42.8842 24.287 42.8064 23.9965 42.67C23.7059 42.5336 23.4451 42.3413 23.2289 42.1041C23.0127 41.8668 22.8454 41.5894 22.7364 41.2875C22.6275 40.9856 22.579 40.6652 22.5939 40.3445ZM128.248 73.9213L113.477 35.8223C112.933 34.4179 111.871 33.3083 110.487 32.6973C109.102 32.0863 107.567 32.05 106.162 32.5945L98.8283 35.4376C95.9216 36.5645 94.4736 39.8459 95.6005 42.7527L96.7245 45.6519L92.6409 47.8377C90.4021 49.0029 88.1857 48.1984 84.4621 46.6763C79.466 44.6341 72.6977 41.8739 63.8886 47.3202C57.512 43.5739 52.0464 44.8521 47.6056 45.8921C44.2031 46.6891 41.5161 47.3184 38.9431 45.8707C38.895 45.8436 38.8459 45.8185 38.7957 45.7955L34.1127 43.635L35.3517 40.8316C36.6118 37.9802 35.3171 34.6352 32.4658 33.3748L25.2711 30.1949C22.4195 28.9345 19.0744 30.2292 17.8143 33.0805L1.29583 70.4546C0.686909 71.8322 0.652121 73.3681 1.19842 74.7792C1.74447 76.19 2.80384 77.3025 4.18145 77.9114L11.3762 81.0916C12.0933 81.4096 12.8691 81.5739 13.6536 81.574C15.8249 81.5737 17.9001 80.3162 18.833 78.206L19.6259 76.4117C22.7024 77.7828 23.5415 78.132 23.895 78.2691C24.7936 78.618 25.0881 79.8776 25.4662 81.9103C25.6746 83.031 25.8919 84.1777 26.3333 85.2267L24.3594 88.9171C23.3711 90.765 23.1632 92.893 23.7742 94.9089C24.3854 96.9251 25.7396 98.5797 27.5875 99.568C28.7787 100.206 30.1149 100.524 31.4657 100.491C31.2902 101.638 31.3729 102.821 31.7206 103.968C32.3315 105.984 33.6857 107.639 35.5336 108.627C37.9479 109.918 40.7441 109.813 42.995 108.595C43.6988 110.106 44.8772 111.392 46.4092 112.212C48.573 113.369 51.0778 113.41 53.2127 112.502C53.8892 114.266 55.1793 115.726 56.8462 116.615C57.9803 117.224 59.2475 117.543 60.535 117.544C61.3045 117.544 62.0793 117.43 62.8382 117.2C64.5297 116.688 65.965 115.65 66.9675 114.239L68.9893 115.4C70.1184 116.051 71.3988 116.393 72.7021 116.393C73.3937 116.393 74.0921 116.297 74.7806 116.104C76.7749 115.545 78.4885 114.189 79.4822 112.383C80.1418 111.185 80.4675 109.832 80.4253 108.465C81.6494 108.731 82.9311 108.69 84.1752 108.332C86.1662 107.758 87.8095 106.448 88.8026 104.643C89.5032 103.37 89.8242 101.923 89.7277 100.473C92.786 100.879 95.9236 99.4118 97.4968 96.5512C98.5631 94.6131 98.6938 92.3972 98.0405 90.4298C98.1233 90.4089 98.2057 90.3867 98.2879 90.3633C100.287 89.7912 101.937 88.4788 102.933 86.6675C103.773 85.1407 104.051 83.383 103.763 81.6915L109.731 79.2014L110.371 80.8519C111.238 83.0892 113.382 84.4622 115.649 84.4622C116.327 84.4622 117.016 84.3392 117.686 84.0798L125.02 81.2364C127.926 80.1098 129.374 76.8281 128.248 73.9213ZM13.0429 77.3205L5.84845 74.1406C5.47789 73.977 5.19211 73.6752 5.04342 73.2913C4.89474 72.9073 4.90324 72.4919 5.06687 72.1216L21.5853 34.7472C21.7057 34.4758 21.9023 34.2451 22.1512 34.0832C22.4001 33.9213 22.6907 33.8352 22.9877 33.8353C23.2001 33.8354 23.4102 33.8799 23.6043 33.9659L30.7988 37.1458C31.1698 37.3104 31.4604 37.6153 31.6069 37.9938C31.7534 38.3723 31.7439 38.7934 31.5804 39.1648L16.6967 72.8403L16.6962 72.8414L16.6957 72.8427L15.0619 76.539C14.8975 76.91 14.5926 77.2008 14.214 77.3473C13.8355 77.4938 13.4143 77.4842 13.0429 77.3205ZM29.5317 95.9327C28.6548 95.464 28.0114 94.6757 27.7199 93.7135C27.4282 92.7515 27.5261 91.7386 27.9949 90.8619L31.5765 84.1658C32.5498 82.3455 34.8252 81.6567 36.6486 82.63C38.3679 83.5476 39.089 85.6437 38.3128 87.4269L33.6012 95.5812C32.4372 96.4834 30.8375 96.6311 29.5317 95.9327ZM37.4776 104.992C36.601 104.523 35.9575 103.735 35.6658 102.773C35.3741 101.811 35.472 100.798 35.9408 99.9213L37.0079 97.9262L41.7718 89.6812C42.9368 88.7633 44.5474 88.6084 45.866 89.3122C47.3046 90.0801 48.0798 91.7546 47.7654 93.353L42.5603 103.433C41.577 105.266 39.2977 105.965 37.4776 104.992ZM48.3532 108.576C47.0519 107.88 46.2881 106.475 46.386 105.01L51.4151 95.2715C52.5682 94.1426 54.3793 93.8668 55.8128 94.6319C57.251 95.3993 58.0256 97.0723 57.713 98.6699L53.097 107.542C51.9892 108.993 49.972 109.442 48.3532 108.576ZM61.6418 113.255C60.6796 113.546 59.6668 113.448 58.7902 112.98C57.4424 112.259 56.6807 110.803 56.8333 109.293L61.3593 100.594C62.5128 99.4623 64.3254 99.1856 65.7584 99.9514C66.2463 100.21 66.6694 100.576 66.9963 101.021C67.8539 102.187 67.9712 103.758 67.295 105.022L63.861 111.443C63.392 112.32 62.604 112.963 61.6418 113.255ZM75.8691 110.396C75.4055 111.239 74.6031 111.872 73.6674 112.135C72.7632 112.388 71.8308 112.278 71.0423 111.825L68.9689 110.634L70.9307 106.966C71.4296 106.033 71.719 105.022 71.8131 103.997L74.183 105.334C74.2671 105.4 74.3554 105.462 74.4516 105.516C76.1799 106.485 76.8159 108.674 75.8691 110.396ZM99.32 84.6807C98.8574 85.5218 98.088 86.132 97.1533 86.3995C96.2401 86.6608 95.2905 86.5549 94.4782 86.1013H94.478L94.4741 86.099L94.472 86.098C89.4886 83.3067 85.3367 80.9772 81.0654 78.5317C80.5913 78.2658 80.0314 78.198 79.5075 78.3429C78.9836 78.4878 78.5381 78.8338 78.268 79.3056C77.998 79.7773 77.9252 80.3366 78.0654 80.8618C78.2057 81.387 78.5477 81.8355 79.0171 82.1097C83.3032 84.5632 87.4629 86.8973 92.4548 89.6933L92.4554 89.6938C94.1847 90.6674 94.8256 92.8518 93.8837 94.5639C92.9331 96.2925 90.7536 96.9251 89.0247 95.9753L71.3724 86.0426C70.8961 85.7774 70.3342 85.7116 69.8095 85.8597C69.2849 86.0078 68.8402 86.3577 68.5729 86.8328C68.3056 87.3079 68.2373 87.8696 68.3831 88.3949C68.5288 88.9202 68.8767 89.3664 69.3506 89.6358L83.4496 97.5693C83.5452 97.6492 83.6483 97.7224 83.7609 97.7858C85.49 98.7591 86.1309 100.944 85.189 102.656C84.7282 103.493 83.9629 104.102 83.0339 104.369C82.116 104.634 81.1582 104.527 80.3375 104.071L70.0979 98.296C69.4411 97.4806 68.6259 96.8067 67.7016 96.3149C65.7728 95.2841 63.5786 95.1254 61.6072 95.7531C61.3171 94.742 60.8264 93.7996 60.1644 92.982C59.5024 92.1645 58.6827 91.4885 57.754 90.9944C56.8274 90.4982 55.8108 90.1929 54.7641 90.0966C53.7175 90.0003 52.6622 90.1149 51.6606 90.4336C51.3705 89.4224 50.8798 88.4799 50.2178 87.6623C49.5558 86.8447 48.7361 86.1686 47.8074 85.6743C46.2359 84.8365 44.4266 84.5568 42.6755 84.8809C42.3446 82.454 40.8915 80.2211 38.5896 78.9924C35.4821 77.3337 31.7487 77.9769 29.3599 80.3234C28.9159 78.1171 28.1353 75.4922 25.3871 74.4254C25.0549 74.2963 24.054 73.8708 21.2926 72.6401L32.4457 47.4063L36.997 49.506C40.9433 51.6876 44.8076 50.782 48.5459 49.9061C52.3299 49.02 55.9391 48.1768 60.1598 50.0311C59.1607 50.8705 58.2013 51.756 57.2847 52.6848C53.6227 56.3855 48.9765 59.8898 43.4751 63.1007C42.7835 63.5045 42.3196 64.1598 42.1681 64.9483C42.0179 65.734 42.2055 66.5138 42.6946 67.1418C46.4228 71.9389 50.4598 73.4936 54.4458 73.4933C58.5255 73.4931 62.5519 71.8634 66.1336 70.4134C70.9248 68.4735 75.0628 66.7985 78.3754 68.6866L97.8815 79.8047C98.5343 80.1747 99.0591 80.7344 99.3865 81.4096V81.4098C99.9026 82.4736 99.8784 83.6656 99.32 84.6807ZM102.015 77.9532C101.424 77.2593 100.716 76.6739 99.9237 76.2233L80.4174 65.1052C75.3682 62.2276 69.8876 64.4466 64.5867 66.5924C58.0282 69.2471 52.3105 71.5614 46.9715 65.8172C52.1716 62.6543 56.6217 59.217 60.2155 55.5854C61.8363 53.9472 63.468 52.5629 65.069 51.4678L65.0786 51.461L65.0814 51.459C72.6176 46.2889 77.8459 48.426 82.902 50.4929C86.6377 52.0197 90.5005 53.5991 94.5651 51.4842L98.2258 49.5248L108.24 75.3559L102.015 77.9532ZM124.373 76.5812C124.293 76.7654 124.177 76.932 124.032 77.0712C123.888 77.2104 123.717 77.3195 123.529 77.3922L116.195 80.2355C115.817 80.3817 115.396 80.3717 115.024 80.2079C114.653 80.044 114.362 79.7396 114.214 79.3614L99.4444 41.2622C99.2982 40.8836 99.308 40.4624 99.4719 40.0911C99.6358 39.7198 99.9403 39.4287 100.319 39.2816L107.653 36.4385C107.827 36.3709 108.012 36.3362 108.198 36.3362C108.41 36.3362 108.622 36.3807 108.822 36.4694C109.007 36.5493 109.173 36.665 109.312 36.8097C109.451 36.9544 109.561 37.1254 109.633 37.3126L124.403 75.4116C124.476 75.5989 124.51 75.7987 124.505 75.9995C124.5 76.2002 124.455 76.3979 124.373 76.5812ZM108.367 42.857C108.367 44.2032 107.269 45.3012 105.923 45.3012C104.576 45.3012 103.478 44.2035 103.478 42.857C103.478 41.5109 104.576 40.4128 105.923 40.4128C107.269 40.4131 108.367 41.5111 108.367 42.857Z" fill="#EDEDED"/>
</svg>
