<svg width="116" height="118" viewBox="0 0 116 118" fill="none" xmlns="http://www.w3.org/2000/svg">
<path d="M106.864 16.1443C106.865 15.7582 106.751 15.3807 106.537 15.0594C106.323 14.7382 106.018 14.4879 105.661 14.3402C105.305 14.1924 104.912 14.154 104.534 14.2298C104.155 14.3055 103.808 14.492 103.535 14.7656L103.498 14.8007L97.1587 5.01156C96.2799 3.63637 95.0677 2.50568 93.6348 1.72461C92.2018 0.943532 90.5947 0.537424 88.9627 0.544035H27.2637C25.6334 0.537033 24.0277 0.942191 22.5958 1.72187C21.1639 2.50156 19.9524 3.63047 19.0736 5.00376L1.33026 32.3997C0.706208 33.3705 0.381425 34.5033 0.396335 35.6572C0.411244 36.8111 0.765187 37.9352 1.41411 38.8894L20.3528 66.6169C16.3843 70.5262 11.0329 72.7107 5.46237 72.6952C4.94519 72.6952 4.44919 72.9006 4.08349 73.2663C3.71779 73.632 3.51234 74.128 3.51234 74.6452C3.51234 75.1624 3.71779 75.6584 4.08349 76.0241C4.44919 76.3898 4.94519 76.5952 5.46237 76.5952C17.2893 76.5952 26.9127 86.2187 26.9127 98.0456C26.9127 98.5628 27.1182 99.0588 27.4839 99.4245C27.8496 99.7902 28.3456 99.9956 28.8627 99.9956C29.3799 99.9956 29.8759 99.7902 30.2416 99.4245C30.6073 99.0588 30.8128 98.5628 30.8128 98.0456C30.8128 93.9622 31.9925 90.0466 34.081 86.7003L53.4546 115.065C54.4998 116.618 56.2412 117.544 58.1152 117.544C59.9891 117.544 61.7305 116.616 62.7679 115.075L103.063 56.0965C103.217 56.2447 103.385 56.3695 103.537 56.5216C103.718 56.7033 103.933 56.8475 104.169 56.9459C104.406 57.0443 104.66 57.095 104.916 57.095C105.172 57.095 105.426 57.0443 105.662 56.9459C105.899 56.8475 106.114 56.7033 106.295 56.5216C106.476 56.3409 106.62 56.1261 106.719 55.8895C106.817 55.6529 106.868 55.3992 106.868 55.143C106.868 54.8867 106.817 54.633 106.719 54.3964C106.62 54.1598 106.476 53.945 106.295 53.7643C105.961 53.4308 105.667 53.072 105.357 52.7249L114.822 38.8738C115.462 37.9179 115.81 36.7964 115.823 35.6462C115.837 34.4959 115.515 33.3666 114.898 32.3958L105.694 18.184C105.899 17.9656 106.082 17.7336 106.295 17.5191C106.476 17.3382 106.62 17.1233 106.718 16.8867C106.816 16.6501 106.866 16.3965 106.866 16.1404L106.864 16.1443ZM93.8787 7.12344L100.495 17.3397C96.572 20.2134 91.901 21.8902 87.0458 22.1679C83.7325 22.4056 80.405 21.9793 77.2586 20.9141L72.4186 4.4441H88.9607C90.9654 4.4441 92.8023 5.44251 93.8787 7.12344ZM97.4492 47.6782C96.8089 47.3977 96.1584 47.1407 95.4992 46.908C88.21 44.2403 80.2578 44.6323 73.3703 47.6997C75.054 43.9107 75.9253 39.811 75.928 35.6648C75.9307 31.5185 75.0647 27.4177 73.3858 23.6266C77.7497 25.587 82.535 26.4237 87.3052 26.0602C90.8347 25.8632 94.2668 25.0228 97.4512 23.607C95.7701 27.3968 94.9014 31.4966 94.9011 35.6424C94.9007 39.7883 95.7688 43.8882 97.4492 47.6782ZM58.1152 108.071L49.7125 76.7513C50.551 76.6537 51.4012 76.5952 52.2651 76.5952C52.7822 76.5952 53.2782 76.3898 53.6439 76.0241C54.0097 75.6584 54.2151 75.1624 54.2151 74.6452C54.2151 74.128 54.0097 73.632 53.6439 73.2663C53.2782 72.9006 52.7822 72.6952 52.2651 72.6952C51.0125 72.6888 49.763 72.5727 48.5308 72.3481L39.2057 37.5946H71.937C71.4912 43.6987 68.8645 49.4387 64.5366 53.7662C64.3549 53.9469 64.2107 54.1617 64.1123 54.3983C64.0139 54.6349 63.9632 54.8887 63.9632 55.1449C63.9632 55.4011 64.0139 55.6549 64.1123 55.8915C64.2107 56.1281 64.3549 56.3429 64.5366 56.5236C64.7176 56.7048 64.9324 56.8486 65.169 56.9467C65.4056 57.0448 65.6592 57.0953 65.9153 57.0953C66.1714 57.0953 66.425 57.0448 66.6616 56.9467C66.8981 56.8486 67.113 56.7048 67.294 56.5236C69.0145 54.805 70.972 53.3413 73.107 52.177L58.1152 108.071ZM22.9815 63.5515L5.25372 37.5946H35.1672L44.1549 71.0923C36.3372 67.8864 30.8128 60.2033 30.8128 51.2448C30.8128 50.7277 30.6073 50.2317 30.2416 49.866C29.8759 49.5003 29.3799 49.2948 28.8627 49.2948C28.3456 49.2948 27.8496 49.5003 27.4839 49.866C27.1182 50.2317 26.9127 50.7277 26.9127 51.2448C26.9127 55.6968 25.5282 59.9771 22.9815 63.5515ZM64.5347 17.523C68.8626 21.8505 71.4893 27.5905 71.935 33.6946H39.2681L47.8716 4.4441H68.3528L72.5688 18.7885C70.6429 17.682 68.8691 16.3297 67.292 14.7656C67.111 14.5846 66.896 14.4409 66.6595 14.343C66.4229 14.245 66.1694 14.1945 65.9133 14.1945C65.6573 14.1945 65.4038 14.245 65.1672 14.343C64.9306 14.4409 64.7157 14.5846 64.5347 14.7656C64.3536 14.9467 64.21 15.1616 64.112 15.3982C64.014 15.6347 63.9636 15.8882 63.9636 16.1443C63.9636 16.4003 64.014 16.6539 64.112 16.8904C64.21 17.127 64.3536 17.3419 64.5347 17.523ZM22.3535 7.11369C22.8807 6.29098 23.6073 5.61486 24.4657 5.14814C25.3241 4.68141 26.2866 4.43923 27.2637 4.4441H43.8058L35.2023 33.6946H5.13867L22.3535 7.11369ZM28.8686 88.3091C26.2879 82.1448 21.3894 77.2407 15.2281 74.653C18.7892 73.1752 21.9533 70.8814 24.4654 67.9566C26.3075 65.896 27.7931 63.5425 28.8608 60.993C31.4459 67.1579 36.3484 72.0612 42.513 74.6472C42.1873 74.7856 41.8636 74.9319 41.5438 75.084C35.8168 77.7573 31.2954 82.4742 28.8666 88.3091H28.8686ZM36.581 83.4476C38.4564 81.4216 40.7074 79.7792 43.2091 78.6116C44.0788 78.1962 44.9797 77.8667 45.8943 77.58L54.5135 109.705L36.581 83.4476ZM61.713 109.707L77.6623 50.2484C82.9644 48.5694 88.7774 48.6026 94.181 50.5779C96.259 51.3252 98.2263 52.3505 100.029 53.6258L61.713 109.707ZM98.8923 37.5946H110.973L102.853 49.4762C100.566 45.906 99.2053 41.8226 98.8923 37.5946ZM111.088 33.6946H98.8923C99.2171 29.298 100.674 25.0604 103.122 21.3938L111.088 33.6946ZM91.2637 96.0956H87.3637C86.8465 96.0956 86.3505 96.301 85.9848 96.6667C85.6191 97.0324 85.4136 97.5284 85.4136 98.0456C85.4136 98.5628 85.6191 99.0588 85.9848 99.4245C86.3505 99.7902 86.8465 99.9956 87.3637 99.9956H91.2637C91.7809 99.9956 92.2769 99.7902 92.6426 99.4245C93.0083 99.0588 93.2138 98.5628 93.2138 98.0456C93.2138 97.5284 93.0083 97.0324 92.6426 96.6667C92.2769 96.301 91.7809 96.0956 91.2637 96.0956ZM99.0639 99.9956H102.964C103.481 99.9956 103.977 99.7902 104.343 99.4245C104.709 99.0588 104.914 98.5628 104.914 98.0456C104.914 97.5284 104.709 97.0324 104.343 96.6667C103.977 96.301 103.481 96.0956 102.964 96.0956H99.0639C98.5467 96.0956 98.0507 96.301 97.685 96.6667C97.3193 97.0324 97.1138 97.5284 97.1138 98.0456C97.1138 98.5628 97.3193 99.0588 97.685 99.4245C98.0507 99.7902 98.5467 99.9956 99.0639 99.9956ZM95.1638 107.796C95.681 107.796 96.177 107.59 96.5427 107.225C96.9084 106.859 97.1138 106.363 97.1138 105.846V101.946C97.1138 101.428 96.9084 100.932 96.5427 100.567C96.177 100.201 95.681 99.9956 95.1638 99.9956C94.6466 99.9956 94.1506 100.201 93.7849 100.567C93.4192 100.932 93.2138 101.428 93.2138 101.946V105.846C93.2138 106.363 93.4192 106.859 93.7849 107.225C94.1506 107.59 94.6466 107.796 95.1638 107.796ZM97.1138 90.2455C97.1138 89.7283 96.9084 89.2323 96.5427 88.8666C96.177 88.5009 95.681 88.2954 95.1638 88.2954C94.6466 88.2954 94.1506 88.5009 93.7849 88.8666C93.4192 89.2323 93.2138 89.7283 93.2138 90.2455V94.1455C93.2138 94.6627 93.4192 95.1587 93.7849 95.5244C94.1506 95.8901 94.6466 96.0956 95.1638 96.0956C95.681 96.0956 96.177 95.8901 96.5427 95.5244C96.9084 95.1587 97.1138 94.6627 97.1138 94.1455V90.2455Z" fill="#EDEDED"/>
</svg>
