<svg width="171" height="117" viewBox="0 0 171 117" fill="none" xmlns="http://www.w3.org/2000/svg">
<path d="M161.024 44.46L151.047 36.4774L150.927 36.3737L160.215 34.515C160.818 34.395 161.36 34.0696 161.749 33.5943C162.139 33.1191 162.351 32.5235 162.35 31.9091V23.9318C162.35 23.2266 162.07 22.5502 161.572 22.0516C161.073 21.5529 160.397 21.2727 159.691 21.2727H146.396C145.691 21.2727 145.014 21.5529 144.516 22.0516C144.017 22.5502 143.737 23.2266 143.737 23.9318V28.5905L143.553 28.3433C143.384 27.8917 143.092 27.4965 142.71 27.2025C141.213 25.0832 139.932 22.9613 139.097 21.1265L134.603 11.2426C131.739 4.93793 124.07 0 117.146 0H53.3277C46.4034 0 38.7346 4.93793 35.8707 11.2426L31.3795 21.1238C30.5446 22.9586 29.2629 25.0832 27.7658 27.2025C27.3845 27.4972 27.0926 27.8922 26.9229 28.3433L26.7394 28.5905V23.9318C26.7394 23.2266 26.4593 22.5502 25.9606 22.0516C25.4619 21.5529 24.7856 21.2727 24.0803 21.2727H10.7822C10.077 21.2727 9.40062 21.5529 8.90195 22.0516C8.40327 22.5502 8.12312 23.2266 8.12312 23.9318V31.9091C8.12312 33.1775 9.01657 34.2677 10.261 34.515L19.5492 36.3737L19.4296 36.4774L9.45 44.46C4.23287 48.6348 0.145844 57.1385 0.145844 63.8182V109.023C0.145844 113.421 3.72498 117 8.12312 117H29.3958C33.794 117 37.3731 113.421 37.3731 109.023V103.705H133.1V109.023C133.1 113.421 136.68 117 141.078 117H162.35C166.749 117 170.328 113.421 170.328 109.023V63.8182C170.328 57.1385 166.241 48.6348 161.024 44.46ZM136.86 98.3864L130.763 92.2891C128.176 89.7018 123.464 87.75 119.805 87.75H49.339C45.6801 87.75 40.9682 89.7018 38.3809 92.2891L32.2836 98.3864H13.4413C9.04316 98.3864 5.46403 94.8072 5.46403 90.4091V77.1136H8.12312V79.7727C8.12312 85.6387 12.8935 90.4091 18.7595 90.4091H26.7368C27.442 90.4091 28.1183 90.1289 28.617 89.6303C29.1157 89.1316 29.3958 88.4552 29.3958 87.75C29.3958 87.0448 29.1157 86.3684 28.617 85.8697C28.1183 85.3711 27.442 85.0909 26.7368 85.0909H18.7595C15.8265 85.0909 13.4413 82.7057 13.4413 79.7727V77.1136H18.7595C20.9665 77.1136 24.3968 78.5336 25.9576 80.0945C26.204 80.3423 26.4969 80.5389 26.8196 80.6731C27.1422 80.8073 27.4882 80.8763 27.8376 80.8763C28.187 80.8763 28.533 80.8073 28.8557 80.6731C29.1783 80.5389 29.4712 80.3423 29.7176 80.0945C29.9647 79.8477 30.1608 79.5547 30.2946 79.2321C30.4284 78.9095 30.4972 78.5637 30.4972 78.2145C30.4972 77.8653 30.4284 77.5195 30.2946 77.1969C30.1608 76.8743 29.9647 76.5813 29.7176 76.3345C27.1303 73.7472 22.421 71.7955 18.7595 71.7955H5.46403V63.8182C5.46403 62.8795 5.61293 61.8664 5.823 60.832C7.52482 62.6083 10.0004 63.8182 13.4413 63.8182H34.714C35.4192 63.818 36.0954 63.5378 36.594 63.0391L40.0322 59.6009L43.4704 63.0391C43.717 63.2864 44.01 63.4825 44.3327 63.6162C44.6553 63.7499 45.0012 63.8185 45.3504 63.8182H76.1586L83.3568 71.0163C83.6031 71.2641 83.8961 71.4608 84.2187 71.5949C84.5414 71.7291 84.8873 71.7982 85.2368 71.7982C85.5862 71.7982 85.9322 71.7291 86.2548 71.5949C86.5774 71.4608 86.8704 71.2641 87.1167 71.0163L94.3149 63.8182H125.123C125.828 63.8182 126.506 63.539 127.003 63.0391L130.441 59.6009L133.88 63.0391C134.126 63.2864 134.419 63.4825 134.742 63.6162C135.064 63.7499 135.41 63.8185 135.759 63.8182H157.032C160.473 63.8182 162.949 62.6083 164.651 60.832C164.861 61.8664 165.009 62.8795 165.009 63.8182V71.7955H151.714C148.055 71.7955 143.343 73.7472 140.756 76.3345C140.509 76.5814 140.313 76.8745 140.18 77.1971C140.046 77.5196 139.977 77.8654 139.977 78.2145C139.977 78.5637 140.046 78.9094 140.18 79.2319C140.313 79.5545 140.509 79.8476 140.756 80.0945C141.003 80.3414 141.296 80.5372 141.618 80.6708C141.941 80.8044 142.287 80.8732 142.636 80.8732C142.985 80.8732 143.331 80.8044 143.653 80.6708C143.976 80.5372 144.269 80.3414 144.516 80.0945C146.077 78.5336 149.507 77.1136 151.714 77.1136H157.032V79.7727C157.032 82.7057 154.647 85.0909 151.714 85.0909H143.737C143.032 85.0909 142.355 85.3711 141.856 85.8697C141.358 86.3684 141.078 87.0448 141.078 87.75C141.078 88.4552 141.358 89.1316 141.856 89.6303C142.355 90.1289 143.032 90.4091 143.737 90.4091H151.714C157.58 90.4091 162.35 85.6387 162.35 79.7727V77.1136H165.009V90.4091C165.009 94.8072 161.43 98.3864 157.032 98.3864H136.86ZM129.34 98.3864H39.8035L42.1409 96.049C43.7018 94.4881 47.132 93.0682 49.339 93.0682H119.805C122.012 93.0682 125.442 94.4881 127.003 96.049L129.34 98.3864ZM30.8849 31.9091H139.589C142.165 35.3154 145.109 38.5382 147.723 40.6309L150.922 43.189L132.114 50.7115L132.109 50.7142C131.777 50.8478 131.476 51.0467 131.223 51.2992L124.022 58.5H93.214C92.8648 58.4996 92.5189 58.5683 92.1963 58.702C91.8737 58.8357 91.5807 59.0318 91.334 59.2791L85.2368 65.3764L79.1395 59.2791C78.8929 59.0318 78.5998 58.8357 78.2772 58.702C77.9546 58.5683 77.6087 58.4996 77.2595 58.5H46.4513L39.2531 51.3018C39.0002 51.0494 38.6991 50.8504 38.3676 50.7168L38.3623 50.7142L19.5545 43.1916L22.7534 40.6336C25.3647 38.5382 28.3083 35.3154 30.8849 31.9091ZM162.194 54.296C161.659 57.0747 159.936 58.5 157.032 58.5H136.86L134.201 55.8409L134.595 55.4474L155.695 47.0074L157.7 48.6135C159.386 49.9617 160.941 52.0118 162.194 54.296ZM149.055 26.5909H157.032V29.7286L149.055 31.3241V26.5909ZM36.2164 23.3255L40.7076 13.4444C42.7126 9.03825 48.4908 5.31818 53.3277 5.31818H117.146C121.983 5.31818 127.761 9.03825 129.763 13.4417L134.257 23.3255C134.725 24.352 135.334 25.4608 136.001 26.5909H34.472C35.1395 25.4608 35.7511 24.352 36.2164 23.3255ZM13.4413 26.5909H21.4186V31.3241L13.4413 29.7286V26.5909ZM12.7712 48.6135L14.7762 47.0074L35.8787 55.4474L36.2723 55.8409L33.6132 58.5H13.4413C10.5376 58.5 8.81448 57.0747 8.28 54.296C9.53243 52.0118 11.0853 49.9617 12.7712 48.6135ZM29.3958 111.682H8.12312C6.65796 111.682 5.46403 110.488 5.46403 109.023V100.979C7.75278 102.737 10.5554 103.694 13.4413 103.705H32.0549V109.023C32.0549 110.488 30.861 111.682 29.3958 111.682ZM162.35 111.682H141.078C139.613 111.682 138.419 110.488 138.419 109.023V103.705H157.032C160.037 103.705 162.781 102.665 165.009 100.979V109.023C165.009 110.488 163.816 111.682 162.35 111.682Z" fill="#EDEDED"/>
</svg>
