<svg width="126" height="123" viewBox="0 0 126 123" fill="none" xmlns="http://www.w3.org/2000/svg">
<path d="M117.596 109.37V118.798C117.596 119.462 117.058 120 116.394 120H9.51409C6.18178 120 3.47919 117.297 3.47919 113.965M3.47919 113.965C3.47919 112.299 4.15387 110.789 5.24572 109.698C6.33782 108.606 7.84708 107.931 9.51311 107.931H17.1075C17.7854 107.931 18.3345 107.382 18.3345 106.704V39.8265M3.47919 113.965V33.7911C3.47919 30.4589 6.18083 27.757 9.51311 27.757H17.1075C17.7854 27.757 18.3345 28.3067 18.3345 28.9841V39.8265M105.249 39.8265H66.6918M59.3079 17.5012V8.01829C59.3079 5.24575 57.0595 3 54.2899 3C51.5175 3 49.2694 5.24575 49.2694 8.01829V17.5012M30.0963 103.063L28.0333 109.423M52.722 43.6641L34.6311 100.829C34.09 102.541 32.3421 103.566 30.5848 103.203C28.6489 102.806 27.4274 100.887 27.8818 98.966L30.9233 86.1237L41.8856 39.8265M42.5488 37.0252L41.8856 39.8265M66.8071 78.2686L55.855 43.6641M74.0732 71L66.0279 37.0252M51.9201 109.369V104.143M63.7633 109.369V104.143M75.6067 109.369V104.143M87.4499 109.369V104.143M99.2931 109.369V104.143M111.136 109.369V104.143M41.8856 39.8265C22.9359 39.8265 18.2892 39.8265 18.3345 39.8265M54.2885 16.5462C46.7759 16.5462 40.6854 22.6364 40.6854 30.1491C40.6854 37.662 46.7759 43.7525 54.2885 43.7525C61.8011 43.7525 67.8916 37.662 67.8916 30.1491C67.8916 22.6364 61.8011 16.5462 54.2885 16.5462ZM54.2888 25.1111C51.5063 25.1111 49.2503 27.3667 49.2503 30.1494C49.2503 32.9316 51.5063 35.1873 54.2888 35.1873C57.071 35.1873 59.3269 32.9316 59.3269 30.1494C59.3269 27.3667 57.071 25.1111 54.2888 25.1111ZM122.979 61.408V27.3664C122.979 25.421 120.628 24.4465 119.252 25.8223L39.4328 105.641C38.0574 107.017 39.0313 109.369 40.977 109.369H121.888C122.491 109.369 122.979 108.88 122.979 108.277V61.408ZM104.978 90.7117C104.978 91.0737 104.684 91.3669 104.322 91.3669H81.8024C80.8296 91.3669 80.3427 90.1907 81.0304 89.503L103.114 67.4184C103.801 66.731 104.978 67.2181 104.978 68.1906V90.7117Z" stroke="#EDEDED" stroke-width="6" stroke-miterlimit="10" stroke-linecap="round" stroke-linejoin="round"/>
</svg>
