<svg width="42" height="41" viewBox="0 0 42 41" fill="none" xmlns="http://www.w3.org/2000/svg">
<path d="M39.1772 36.102V39.2577C39.1772 39.48 38.997 39.6602 38.7748 39.6602H2.99923C1.88382 39.6602 0.979187 38.7555 0.979187 37.64M0.979187 37.64C0.979187 37.0823 1.20502 36.5771 1.57049 36.2117C1.93605 35.8461 2.44124 35.6202 2.99891 35.6202H5.54097C5.76785 35.6202 5.95167 35.4364 5.95167 35.2096V12.8239M0.979187 37.64V10.8037C0.979187 9.6883 1.8835 8.78393 2.99891 8.78393H5.54097C5.76785 8.78393 5.95167 8.96792 5.95167 9.19465V12.8239M35.0444 12.8239H22.1382M19.6666 5.351V2.17683C19.6666 1.24879 18.914 0.49707 17.9869 0.49707C17.0589 0.49707 16.3064 1.24879 16.3064 2.17683V5.351M9.88865 33.991L9.19812 36.1196M17.4621 14.1084L11.4066 33.2432C11.2254 33.8163 10.6404 34.1592 10.0522 34.0376C9.40416 33.9048 8.99531 33.2624 9.14742 32.6195L10.1655 28.3208L13.8348 12.8239M14.0569 11.8862L13.8348 12.8239M22.1768 25.6915L18.5108 14.1084M24.6089 23.2585L21.9159 11.8862M17.1937 36.1016V34.3524M21.1579 36.1016V34.3524M25.1222 36.1016V34.3524M29.0865 36.1016V34.3524M33.0507 36.1016V34.3524M37.015 36.1016V34.3524M13.8348 12.8239C7.49189 12.8239 5.9365 12.8239 5.95167 12.8239M17.9864 5.03135C15.4718 5.03135 13.4331 7.0699 13.4331 9.58462C13.4331 12.0994 15.4718 14.138 17.9864 14.138C20.5011 14.138 22.5398 12.0994 22.5398 9.58462C22.5398 7.0699 20.5011 5.03135 17.9864 5.03135ZM17.9865 7.89825C17.0552 7.89825 16.3 8.65326 16.3 9.58472C16.3 10.516 17.0552 11.271 17.9865 11.271C18.9178 11.271 19.6729 10.516 19.6729 9.58472C19.6729 8.65326 18.9178 7.89825 17.9865 7.89825ZM40.9792 20.0478V8.65317C40.9792 8.00198 40.1919 7.67579 39.7315 8.13631L13.0138 34.854C12.5534 35.3144 12.8795 36.1016 13.5307 36.1016H40.6138C40.8156 36.1016 40.9792 35.9381 40.9792 35.7362V20.0478ZM34.9535 29.8566C34.9535 29.9777 34.8552 30.0759 34.7341 30.0759H27.1961C26.8705 30.0759 26.7075 29.6822 26.9377 29.452L34.3295 22.0597C34.5597 21.8296 34.9535 21.9926 34.9535 22.3181V29.8566Z" stroke="#FF9549" stroke-miterlimit="10" stroke-linecap="round" stroke-linejoin="round"/>
</svg>
