<svg width="118" height="117" viewBox="0 0 118 117" fill="none" xmlns="http://www.w3.org/2000/svg">
<path d="M116.868 27.729C116.668 26.9873 116.324 26.2921 115.855 25.6833C115.387 25.0745 114.803 24.5639 114.138 24.1807C113.471 23.7957 112.736 23.5457 111.973 23.4453C111.21 23.3448 110.435 23.3958 109.692 23.5952C108.194 23.9986 106.917 24.9806 106.142 26.3252L105.167 28.0217C104.722 27.766 104.193 27.6964 103.697 27.828C103.2 27.9595 102.776 28.2817 102.516 28.7245L97.5625 37.167L95.866 36.192C95.6434 36.0632 95.3976 35.9797 95.1427 35.9462C94.8877 35.9127 94.6286 35.9298 94.3803 35.9968C94.132 36.064 93.8994 36.1796 93.6958 36.3369C93.4923 36.4942 93.3217 36.6902 93.194 36.9135C92.6656 37.8458 92.9873 39.0302 93.9158 39.5655L95.6125 40.5405L79.0375 69.264L74.9425 80.204L72.9925 83.8498C72.4334 84.8221 72.1655 85.9346 72.2208 87.0548C72.2761 88.175 72.6523 89.2558 73.3045 90.1682L68.917 95.5498L67.6888 92.4695C67.4174 91.7966 66.9637 91.2128 66.3787 90.7837C65.7936 90.3545 65.1005 90.0972 64.3772 90.0405C63.6538 89.9836 62.9289 90.1296 62.284 90.4622C61.6391 90.7947 61.0998 91.3007 60.7268 91.923L60.025 93.1125L59.3622 85.3125C59.2882 84.4174 58.9076 83.5753 58.2847 82.9282C57.6618 82.2812 56.8348 81.8689 55.9432 81.7608C55.0514 81.6533 54.1498 81.8567 53.3907 82.3369C52.6316 82.817 52.0614 83.5444 51.7765 84.3963L46.9795 98.7872C46.8186 99.2761 46.8574 99.8086 47.0876 100.269C47.3177 100.729 47.7204 101.08 48.208 101.244C48.3981 101.333 48.6031 101.386 48.8125 101.4C49.2213 101.401 49.6201 101.274 49.9527 101.036C50.2852 100.798 50.5345 100.462 50.6655 100.074L55.4423 85.6835L56.125 93.6C56.1933 94.4231 56.5212 95.2032 57.0613 95.8279C57.6015 96.4527 58.326 96.8899 59.1306 97.0765C59.9351 97.2631 60.7781 97.1894 61.5381 96.8661C62.2981 96.5429 62.9359 95.9867 63.3595 95.2777L64.081 94.0875L65.2905 97.1497C65.5427 97.784 65.9569 98.341 66.4919 98.765C67.0268 99.1889 67.6637 99.465 68.3388 99.5657C69.014 99.6663 69.7037 99.5879 70.339 99.3384C70.9743 99.0889 71.5331 98.6769 71.9592 98.1437L76.5027 92.3917C77.0056 92.5231 77.5235 92.5887 78.0432 92.5867C79.0703 92.5947 80.0814 92.3321 80.9748 91.8253C81.8682 91.3186 82.6125 90.5856 83.1327 89.7L85.0827 86.4435L92.5122 77.4155L109.263 48.3403L110.959 49.3153C111.183 49.4432 111.379 49.6143 111.536 49.8186C111.694 50.0229 111.809 50.2564 111.875 50.5055C111.942 50.7531 111.959 51.0114 111.926 51.2656C111.893 51.5199 111.809 51.765 111.681 51.987L103.881 65.501C103.735 65.7205 103.636 65.9674 103.588 66.2266C103.541 66.4857 103.546 66.7519 103.604 67.0089C103.663 67.2658 103.772 67.5083 103.927 67.7216C104.082 67.9349 104.278 68.1146 104.505 68.2498C104.727 68.379 104.973 68.4629 105.228 68.4966C105.483 68.5303 105.742 68.5131 105.991 68.4461C106.239 68.3791 106.472 68.2636 106.675 68.1062C106.879 67.9487 107.049 67.7526 107.176 67.529L114.976 54.0152C115.361 53.3491 115.611 52.6135 115.712 51.8507C115.812 51.0877 115.761 50.3125 115.561 49.5695C115.158 48.0712 114.176 46.7944 112.831 46.02L111.134 45.045L116.009 36.6015C116.542 35.6748 116.228 34.4923 115.308 33.9495L116.283 32.253C116.678 31.5766 116.934 30.8275 117.034 30.0504C117.135 29.2732 117.078 28.4838 116.868 27.729ZM109.516 28.275C109.644 28.0512 109.815 27.855 110.019 27.6977C110.223 27.5404 110.457 27.4252 110.706 27.3587C111.207 27.2349 111.736 27.3046 112.188 27.554C112.411 27.6819 112.608 27.8528 112.765 28.0569C112.922 28.261 113.038 28.4943 113.104 28.7432C113.228 29.244 113.159 29.7732 112.909 30.2248L111.934 31.9215L108.541 29.9715L109.516 28.275ZM82.9375 82.7193L79.0765 80.476L81.8455 73.0665L87.9878 76.615L82.9375 82.7193ZM77.0875 88.3543C76.69 88.0773 76.4098 87.6622 76.3018 87.1899C76.1937 86.7176 76.2654 86.222 76.503 85.7998L77.478 84.1038L80.8705 86.0537L79.8955 87.7305C79.7605 87.9649 79.5781 88.1687 79.3601 88.3288C79.142 88.4889 78.8931 88.6019 78.629 88.6607C78.3649 88.7193 78.0914 88.7223 77.8261 88.6696C77.5607 88.6169 77.3092 88.5094 77.0875 88.3543ZM90.211 73.4177L83.464 69.5177L99.064 42.49L105.811 46.39L90.211 73.4177ZM107.761 43.0168L101.014 39.1168L104.914 32.3698L111.661 36.2698L107.761 43.0168ZM30.833 87.3795L23.931 94.2635L19.7965 90.129C19.4311 89.7659 18.9368 89.562 18.4216 89.562C17.9064 89.562 17.4122 89.7659 17.0468 90.129C16.864 90.3103 16.7189 90.5259 16.6198 90.7636C16.5208 91.0012 16.4698 91.2561 16.4698 91.5135C16.4698 91.7709 16.5208 92.0258 16.6198 92.2634C16.7189 92.5011 16.864 92.7167 17.0468 92.898L21.1808 97.032C21.912 97.7576 22.9004 98.1642 23.9307 98.163C24.9667 98.1689 25.9636 97.7623 26.6997 97.032L33.5828 90.129C33.902 89.7559 34.0687 89.2761 34.0496 88.7854C34.0306 88.2948 33.8271 87.8293 33.4799 87.4821C33.1327 87.1349 32.6673 86.9314 32.1766 86.9124C31.6859 86.8933 31.2061 87.0603 30.833 87.3795Z" fill="#EDEDED"/>
<path d="M7.8625 92.625C7.8625 101.78 15.2835 109.2 24.4375 109.2C33.5915 109.2 41.0125 101.78 41.0125 92.625C41.0125 92.1078 40.8071 91.6118 40.4414 91.2461C40.0757 90.8804 39.5797 90.675 39.0625 90.675C38.5453 90.675 38.0493 90.8804 37.6836 91.2461C37.3179 91.6118 37.1125 92.1078 37.1125 92.625C37.1125 99.625 31.4378 105.3 24.4375 105.3C17.4372 105.3 11.7625 99.625 11.7625 92.625C11.7625 85.625 17.4372 79.95 24.4375 79.95C27.1813 79.942 29.8523 80.8325 32.0425 82.4852C32.2473 82.6389 32.4804 82.7507 32.7285 82.8142C32.9765 82.8778 33.2346 82.8918 33.4881 82.8556C33.7416 82.8194 33.9854 82.7335 34.2057 82.603C34.426 82.4725 34.6184 82.2999 34.772 82.095C34.9258 81.8902 35.0377 81.6571 35.1014 81.4091C35.165 81.161 35.1792 80.9029 35.143 80.6493C35.1069 80.3958 35.0211 80.1519 34.8907 79.9315C34.7602 79.7111 34.5876 79.5186 34.3827 79.365C31.9202 77.518 28.992 76.3933 25.9263 76.1168C22.8605 75.8403 19.7783 76.423 17.0251 77.7996C14.2719 79.1762 11.9564 81.2923 10.338 83.9107C8.7197 86.5292 7.86251 89.5466 7.8625 92.6248V92.625ZM70.2625 15.6C70.7797 15.6 71.2757 15.3946 71.6414 15.0289C72.0071 14.6632 72.2125 14.1672 72.2125 13.65C72.2125 13.1328 72.0071 12.6368 71.6414 12.2711C71.2757 11.9054 70.7797 11.7 70.2625 11.7H19.5625C19.0453 11.7 18.5493 11.9054 18.1836 12.2711C17.8179 12.6368 17.6125 13.1328 17.6125 13.65V21.45C17.6125 22.5274 18.4856 23.4 19.5625 23.4H70.2625C70.7797 23.4 71.2757 23.1946 71.6414 22.8289C72.0071 22.4632 72.2125 21.9672 72.2125 21.45C72.2125 20.9328 72.0071 20.4368 71.6414 20.0711C71.2757 19.7054 70.7797 19.5 70.2625 19.5H21.5125V15.6H70.2625ZM25.4125 27.3C24.8953 27.3 24.3993 27.5054 24.0336 27.8711C23.6679 28.2368 23.4625 28.7328 23.4625 29.25C23.4625 29.7672 23.6679 30.2632 24.0336 30.6289C24.3993 30.9946 24.8953 31.2 25.4125 31.2H64.4125C64.9297 31.2 65.4257 30.9946 65.7914 30.6289C66.1571 30.2632 66.3625 29.7672 66.3625 29.25C66.3625 28.7328 66.1571 28.2368 65.7914 27.8711C65.4257 27.5054 64.9297 27.3 64.4125 27.3H25.4125ZM76.1125 40.95H33.2125C32.6953 40.95 32.1993 41.1554 31.8336 41.5211C31.4679 41.8868 31.2625 42.3828 31.2625 42.9C31.2625 43.4172 31.4679 43.9132 31.8336 44.2789C32.1993 44.6446 32.6953 44.85 33.2125 44.85H76.1125C76.6297 44.85 77.1257 44.6446 77.4914 44.2789C77.8571 43.9132 78.0625 43.4172 78.0625 42.9C78.0625 42.3828 77.8571 41.8868 77.4914 41.5211C77.1257 41.1554 76.6297 40.95 76.1125 40.95ZM56.6125 54.6C56.6125 54.0828 56.4071 53.5868 56.0414 53.2211C55.6757 52.8554 55.1797 52.65 54.6625 52.65H15.6625C15.1453 52.65 14.6493 52.8554 14.2836 53.2211C13.9179 53.5868 13.7125 54.0828 13.7125 54.6C13.7125 55.1172 13.9179 55.6132 14.2836 55.9789C14.6493 56.3446 15.1453 56.55 15.6625 56.55H54.6625C55.7394 56.55 56.6125 55.6774 56.6125 54.6ZM76.1125 52.65H62.4625C61.9453 52.65 61.4493 52.8554 61.0836 53.2211C60.7179 53.5868 60.5125 54.0828 60.5125 54.6C60.5125 55.1172 60.7179 55.6132 61.0836 55.9789C61.4493 56.3446 61.9453 56.55 62.4625 56.55H76.1125C76.6297 56.55 77.1257 56.3446 77.4914 55.9789C77.8571 55.6132 78.0625 55.1172 78.0625 54.6C78.0625 54.0828 77.8571 53.5868 77.4914 53.2211C77.1257 52.8554 76.6297 52.65 76.1125 52.65ZM35.1625 66.3C35.6797 66.3 36.1757 66.0946 36.5414 65.7289C36.9071 65.3632 37.1125 64.8672 37.1125 64.35C37.1125 63.8328 36.9071 63.3368 36.5414 62.9711C36.1757 62.6054 35.6797 62.4 35.1625 62.4H15.6625C15.1453 62.4 14.6493 62.6054 14.2836 62.9711C13.9179 63.3368 13.7125 63.8328 13.7125 64.35C13.7125 64.8672 13.9179 65.3632 14.2836 65.7289C14.6493 66.0946 15.1453 66.3 15.6625 66.3H35.1625ZM42.9625 66.3H56.6125C57.1297 66.3 57.6257 66.0946 57.9914 65.7289C58.3571 65.3632 58.5625 64.8672 58.5625 64.35C58.5625 63.8328 58.3571 63.3368 57.9914 62.9711C57.6257 62.6054 57.1297 62.4 56.6125 62.4H42.9625C42.4453 62.4 41.9493 62.6054 41.5836 62.9711C41.2179 63.3368 41.0125 63.8328 41.0125 64.35C41.0125 64.8672 41.2179 65.3632 41.5836 65.7289C41.9493 66.0946 42.4453 66.3 42.9625 66.3Z" fill="#EDEDED"/>
<path d="M87.8125 89.7C87.2953 89.7 86.7993 89.9054 86.4336 90.2711C86.0679 90.6368 85.8625 91.1328 85.8625 91.65V111.15C85.8625 112.227 84.9894 113.1 83.9125 113.1H5.9125C4.83561 113.1 3.9625 112.227 3.9625 111.15V5.85C3.9625 5.33283 4.16795 4.83684 4.53364 4.47114C4.89934 4.10545 5.39533 3.9 5.9125 3.9H83.9125C84.4297 3.9 84.9257 4.10545 85.2914 4.47114C85.6571 4.83684 85.8625 5.33283 85.8625 5.85V42.471C85.8625 42.9882 86.0679 43.4842 86.4336 43.8499C86.7993 44.2156 87.2953 44.421 87.8125 44.421C88.3297 44.421 88.8257 44.2156 89.1914 43.8499C89.5571 43.4842 89.7625 42.9882 89.7625 42.471V5.85C89.7625 2.61934 87.1432 0 83.9125 0H5.9125C2.68184 0 0.0625 2.61934 0.0625 5.85V111.15C0.0625 114.382 2.68184 117 5.9125 117H83.9125C87.1432 117 89.7625 114.382 89.7625 111.15V91.65C89.7625 91.1328 89.5571 90.6368 89.1914 90.2711C88.8257 89.9054 88.3297 89.7 87.8125 89.7Z" fill="#EDEDED"/>
</svg>
