<svg width="98" height="118" viewBox="0 0 98 118" fill="none" xmlns="http://www.w3.org/2000/svg">
<path d="M63.3287 96.5284L54.2354 101.176C53.2251 101.782 52.8209 102.995 53.4271 103.803C53.8313 104.409 54.4375 104.813 55.2458 104.813C55.6499 104.813 55.852 104.813 56.2561 104.611L65.3494 99.9636C66.3598 99.3574 66.7639 98.145 66.1577 97.3367C65.5515 96.3263 64.3391 95.9222 63.3287 96.5284Z" fill="#EDEDED"/>
<path d="M97.0748 37.9274C91.8209 16.5077 73.2302 1.55431 51.6085 0.543945H46.3546C24.7328 1.55431 6.14216 16.5077 0.888277 37.9274C0.686205 38.7357 0.888277 39.5439 1.4945 39.9481C2.10071 40.3522 2.909 40.5543 3.51522 40.3522L9.37532 37.7253L22.7121 61.5698L17.6603 64.1968C17.4582 64.1968 17.2562 64.3989 17.2562 64.6009L16.852 65.0051V65.2071C16.852 65.4092 16.6499 65.6113 16.6499 65.8134V99.9636C16.6499 100.772 17.0541 101.378 17.6603 101.782L48.1732 117.342C48.3753 117.544 48.5774 117.544 48.9815 117.544C49.3857 117.544 49.5878 117.544 49.7898 117.342L80.3028 101.782C80.909 101.378 81.3131 100.772 81.3131 99.9636V65.8134C81.3131 65.6113 81.3131 65.4092 81.1111 65.2071V65.0051C81.1111 64.803 80.909 64.6009 80.7069 64.6009L80.3028 64.1968L75.251 61.5698L88.3857 37.7253L94.2458 40.3522C94.852 40.5543 95.8624 40.5543 96.2665 39.9481C96.8727 39.3419 97.2769 38.5336 97.0748 37.9274ZM75.0489 65.8134L68.9867 68.8445L42.9194 55.7097L48.9815 52.6787L75.0489 65.8134ZM48.9815 79.1502L22.9142 65.8134L29.7846 62.3781L55.852 75.7149L48.9815 79.1502ZM38.4738 57.9325L64.5411 71.2693L60.2976 73.4921L34.2302 60.1553L38.4738 57.9325ZM62.3183 76.9274L66.966 74.5025V82.7875L62.3183 85.2123V76.9274ZM46.9608 35.3004L42.3131 33.2797C38.2717 31.461 33.8261 30.4507 29.3805 30.0465C30.3909 22.7719 34.2302 13.0724 46.9608 4.78747V35.3004ZM51.0023 4.78747C63.7328 13.0724 67.7743 22.7719 68.5826 30.0465C64.137 30.4507 59.6914 31.461 55.6499 33.2797L51.0023 35.3004V4.78747ZM39.2821 5.39369C29.3805 13.6787 26.1473 22.7719 25.3391 29.8445C20.0852 29.8445 14.6292 31.0569 9.77947 33.0776L6.14216 34.6942C11.396 19.7408 23.9245 8.82892 39.2821 5.39369ZM13.4168 36.1087C22.308 32.8755 32.0074 33.0776 40.6966 36.917L46.9608 39.746V49.2434L26.3494 59.7512L13.4168 36.1087ZM20.4893 69.2486L46.9608 82.7875V112.29L20.4893 98.7512V69.2486ZM51.0023 112.29V82.7875L58.2769 79.1502V88.6476C58.2769 89.2538 58.681 90.0621 59.2872 90.4662C59.6914 90.6683 59.8935 90.6683 60.2976 90.6683C60.7017 90.6683 60.9038 90.6683 61.308 90.4662L69.9971 86.0206C70.6033 85.6165 71.0074 85.0103 71.0074 84.202V72.4818L77.4738 69.2486V98.7512L51.0023 112.29ZM51.0023 49.0414V39.5439L57.2665 36.7149C65.9556 32.8755 75.6551 32.6735 84.5463 35.9066L71.6137 59.347L51.0023 49.0414ZM88.3857 33.2797C83.5359 31.0569 78.08 30.0465 72.8261 30.0465C72.0178 22.974 68.7846 13.8807 58.8831 5.59576C74.2406 9.03099 86.7691 19.9429 92.023 34.8963L88.3857 33.2797Z" fill="#EDEDED"/>
</svg>
