<svg width="118" height="118" viewBox="0 0 118 118" fill="none" xmlns="http://www.w3.org/2000/svg">
<path d="M111.776 18.2955V4.67319C111.776 3.64094 111.366 2.65097 110.636 1.92106C109.906 1.19116 108.916 0.781097 107.884 0.781097H49.5027C48.4705 0.781097 47.4805 1.19116 46.7506 1.92106C46.0207 2.65097 45.6106 3.64094 45.6106 4.67319V18.2955C45.6106 19.3278 46.0207 20.3177 46.7506 21.0476C47.4805 21.7776 48.4705 22.1876 49.5027 22.1876H55.3408V31.9179C55.3408 32.6768 54.5624 31.12 68.6713 55.2704C69.1698 56.1154 69.9691 56.741 70.9092 57.0219V90.2993C70.9109 90.6198 70.9917 90.935 71.1445 91.2167C71.2972 91.4985 71.5172 91.7382 71.7849 91.9145C78.1291 96.1374 77.8955 96.1374 78.6934 96.1374C79.4913 96.1374 79.2188 96.1374 85.6019 91.9145C85.8696 91.7382 86.0896 91.4985 86.2424 91.2167C86.3951 90.935 86.4759 90.6198 86.4776 90.2993V57.0413C87.4177 56.7605 88.217 56.1349 88.7156 55.2899C102.805 31.1394 102.046 32.6768 102.046 31.9179V22.1876H107.884C108.916 22.1876 109.906 21.7776 110.636 21.0476C111.366 20.3177 111.776 19.3278 111.776 18.2955ZM82.5855 69.7879L74.8013 74.9839V69.9436L82.5855 64.7477V69.7879ZM74.8013 79.6739L82.5855 74.4779V79.5182L74.8013 84.7141V79.6739ZM82.5855 60.0577L74.8013 65.2537V57.2165H82.5855V60.0577ZM78.6934 91.8561L74.8013 89.3263L82.5855 84.2082V89.2484L78.6934 91.8561ZM98.1539 29.9718H76.7474C76.2312 29.9718 75.7363 30.1768 75.3713 30.5418C75.0063 30.9067 74.8013 31.4017 74.8013 31.9179C74.8013 32.434 75.0063 32.929 75.3713 33.2939C75.7363 33.6589 76.2312 33.8639 76.7474 33.8639H96.7138L85.3684 53.3244H72.0185L60.673 33.8639H67.0171C67.5332 33.8639 68.0282 33.6589 68.3932 33.2939C68.7581 32.929 68.9632 32.434 68.9632 31.9179C68.9632 31.4017 68.7581 30.9067 68.3932 30.5418C68.0282 30.1768 67.5332 29.9718 67.0171 29.9718H59.2329V22.1876H98.1539V29.9718ZM107.884 18.2955H49.5027V4.67319H53.3948V8.56529C53.3948 9.08141 53.5998 9.5764 53.9648 9.94135C54.3297 10.3063 54.8247 10.5113 55.3408 10.5113C55.857 10.5113 56.352 10.3063 56.7169 9.94135C57.0819 9.5764 57.2869 9.08141 57.2869 8.56529V4.67319H61.179V8.56529C61.179 9.08141 61.384 9.5764 61.749 9.94135C62.1139 10.3063 62.6089 10.5113 63.125 10.5113C63.6412 10.5113 64.1361 10.3063 64.5011 9.94135C64.8661 9.5764 65.0711 9.08141 65.0711 8.56529V4.67319H68.9632V8.56529C68.9632 9.08141 69.1682 9.5764 69.5331 9.94135C69.8981 10.3063 70.3931 10.5113 70.9092 10.5113C71.4253 10.5113 71.9203 10.3063 72.2853 9.94135C72.6502 9.5764 72.8553 9.08141 72.8553 8.56529V4.67319H76.7474V8.56529C76.7474 9.08141 76.9524 9.5764 77.3173 9.94135C77.6823 10.3063 78.1773 10.5113 78.6934 10.5113C79.2095 10.5113 79.7045 10.3063 80.0695 9.94135C80.4344 9.5764 80.6395 9.08141 80.6395 8.56529V4.67319H84.5315V8.56529C84.5315 9.08141 84.7366 9.5764 85.1015 9.94135C85.4665 10.3063 85.9615 10.5113 86.4776 10.5113C86.9937 10.5113 87.4887 10.3063 87.8537 9.94135C88.2186 9.5764 88.4236 9.08141 88.4236 8.56529V4.67319H92.3157V8.56529C92.3157 9.08141 92.5208 9.5764 92.8857 9.94135C93.2507 10.3063 93.7457 10.5113 94.2618 10.5113C94.7779 10.5113 95.2729 10.3063 95.6379 9.94135C96.0028 9.5764 96.2078 9.08141 96.2078 8.56529V4.67319H100.1V8.56529C100.1 9.08141 100.305 9.5764 100.67 9.94135C101.035 10.3063 101.53 10.5113 102.046 10.5113C102.562 10.5113 103.057 10.3063 103.422 9.94135C103.787 9.5764 103.992 9.08141 103.992 8.56529V4.67319H107.884V18.2955Z" fill="#EDEDED"/>
<path d="M115.668 88.3532H99.1269C98.0129 88.3738 96.928 88.7127 96.0004 89.33C95.0728 89.9472 94.3412 90.817 93.892 91.8367C91.5179 96.8185 77.915 101.976 59.2329 101.976C40.5509 101.976 26.9285 96.8185 24.5738 91.8367C24.1246 90.817 23.393 89.9472 22.4654 89.33C21.5378 88.7127 20.453 88.3738 19.339 88.3532H2.79756C2.28144 88.3532 1.78645 88.5583 1.4215 88.9232C1.05654 89.2882 0.851515 89.7832 0.851515 90.2993V115.598C0.851515 116.114 1.05654 116.609 1.4215 116.974C1.78645 117.339 2.28144 117.544 2.79756 117.544H115.668C116.184 117.544 116.679 117.339 117.044 116.974C117.409 116.609 117.614 116.114 117.614 115.598V90.2993C117.614 89.7832 117.409 89.2882 117.044 88.9232C116.679 88.5583 116.184 88.3532 115.668 88.3532ZM113.722 113.652H4.74361V92.2453H19.339C19.7142 92.2654 20.0756 92.3937 20.3795 92.6147C20.6833 92.8358 20.9168 93.14 21.0515 93.4908C24.5155 100.788 40.2201 105.868 59.2329 105.868C78.2458 105.868 93.9504 100.788 97.4144 93.4908C97.5491 93.14 97.7825 92.8358 98.0864 92.6147C98.3903 92.3937 98.7517 92.2654 99.1269 92.2453H113.722V113.652Z" fill="#EDEDED"/>
<path d="M63.6894 89.7349C63.8708 89.9164 64.0862 90.0603 64.3233 90.1585C64.5604 90.2567 64.8145 90.3072 65.0711 90.3072C65.3277 90.3072 65.5818 90.2567 65.8188 90.1585C66.0559 90.0603 66.2713 89.9164 66.4528 89.7349C66.6342 89.5535 66.7781 89.3381 66.8763 89.101C66.9745 88.8639 67.0251 88.6098 67.0251 88.3532C67.0251 88.0966 66.9745 87.8425 66.8763 87.6055C66.7781 87.3684 66.6342 87.153 66.4528 86.9715L50.8844 71.4032C50.7029 71.2217 50.4875 71.0778 50.2505 70.9796C50.0134 70.8814 49.7593 70.8308 49.5027 70.8308C49.2461 70.8308 48.992 70.8814 48.7549 70.9796C48.5179 71.0778 48.3025 71.2217 48.121 71.4032C47.9396 71.5846 47.7956 71.8 47.6974 72.0371C47.5992 72.2742 47.5487 72.5283 47.5487 72.7849C47.5487 73.0415 47.5992 73.2956 47.6974 73.5326C47.7956 73.7697 47.9396 73.9851 48.121 74.1665L63.6894 89.7349ZM90.9341 89.7349C91.115 89.9173 91.3302 90.0621 91.5673 90.1609C91.8045 90.2597 92.0588 90.3106 92.3157 90.3106C92.5726 90.3106 92.827 90.2597 93.0641 90.1609C93.3013 90.0621 93.5165 89.9173 93.6974 89.7349L109.266 74.1665C109.447 73.9851 109.591 73.7697 109.689 73.5326C109.788 73.2956 109.838 73.0415 109.838 72.7849C109.838 72.5283 109.788 72.2742 109.689 72.0371C109.591 71.8 109.447 71.5846 109.266 71.4032C109.084 71.2217 108.869 71.0778 108.632 70.9796C108.395 70.8814 108.141 70.8308 107.884 70.8308C107.628 70.8308 107.373 70.8814 107.136 70.9796C106.899 71.0778 106.684 71.2217 106.502 71.4032L90.9341 86.9715C90.7516 87.1525 90.6069 87.3677 90.5081 87.6048C90.4093 87.842 90.3584 88.0963 90.3584 88.3532C90.3584 88.6101 90.4093 88.8645 90.5081 89.1016C90.6069 89.3388 90.7516 89.554 90.9341 89.7349Z" fill="#EDEDED"/>
<path d="M43.6646 68.8928C44.7393 68.8928 45.6106 68.0215 45.6106 66.9467C45.6106 65.8719 44.7393 65.0007 43.6646 65.0007C42.5898 65.0007 41.7185 65.8719 41.7185 66.9467C41.7185 68.0215 42.5898 68.8928 43.6646 68.8928Z" fill="#EDEDED"/>
<path d="M113.722 68.8928C114.797 68.8928 115.668 68.0215 115.668 66.9467C115.668 65.8719 114.797 65.0007 113.722 65.0007C112.647 65.0007 111.776 65.8719 111.776 66.9467C111.776 68.0215 112.647 68.8928 113.722 68.8928Z" fill="#EDEDED"/>
<path d="M65.0711 76.6769C65.4359 76.6753 65.7929 76.5711 66.1013 76.3763C66.4098 76.1814 66.6573 75.9039 66.8155 75.5751C66.9738 75.2464 67.0365 74.8799 66.9964 74.5173C66.9564 74.1546 66.8152 73.8106 66.589 73.5244L58.8048 63.7941C58.6556 63.5697 58.4615 63.3787 58.2346 63.2332C58.0078 63.0878 57.7532 62.991 57.487 62.9491C57.2208 62.9071 56.9488 62.9209 56.6882 62.9896C56.4277 63.0583 56.1842 63.1803 55.9732 63.348C55.7623 63.5157 55.5884 63.7253 55.4627 63.9637C55.3371 64.2021 55.2622 64.4639 55.243 64.7327C55.2238 65.0015 55.2607 65.2714 55.3512 65.5252C55.4417 65.779 55.584 66.0112 55.769 66.2072L63.5532 75.9374C63.7344 76.1668 63.965 76.3524 64.2277 76.4804C64.4905 76.6084 64.7788 76.6756 65.0711 76.6769ZM92.3157 76.6769C92.608 76.6756 92.8963 76.6084 93.1591 76.4804C93.4219 76.3524 93.6524 76.1668 93.8337 75.9374L101.618 66.2072C101.938 65.8063 102.087 65.2952 102.033 64.7849C101.978 64.2746 101.724 63.8066 101.326 63.4827C101.126 63.3222 100.896 63.2028 100.649 63.1315C100.402 63.0602 100.144 63.0385 99.8892 63.0674C99.6341 63.0963 99.3873 63.1754 99.163 63.3002C98.9387 63.4249 98.7412 63.5928 98.582 63.7941L90.7978 73.5244C90.5716 73.8106 90.4305 74.1546 90.3904 74.5173C90.3503 74.8799 90.413 75.2464 90.5713 75.5751C90.7296 75.9039 90.977 76.1814 91.2855 76.3763C91.5939 76.5711 91.9509 76.6753 92.3157 76.6769ZM30.879 85.6288C31.5867 85.9296 32.3468 86.0877 33.1157 86.0939C33.8847 86.1002 34.6473 85.9544 35.3597 85.6651C36.0722 85.3758 36.7205 84.9486 37.2673 84.408C37.8142 83.8674 38.2489 83.2241 38.5465 82.5151C40.6447 77.8987 40.8986 72.6548 39.256 67.8574C37.6134 63.0599 34.1988 59.072 29.7114 56.7105C27.7608 55.7392 26.2711 54.0389 25.5645 51.9775C24.858 49.9162 24.9915 47.6596 25.9361 45.6959C28.0275 41.0845 28.2777 35.8482 26.6353 31.0585C24.9929 26.2688 21.5821 22.2878 17.101 19.9302C15.154 18.955 13.6676 17.2546 12.9616 15.1947C12.2555 13.1348 12.3863 10.8801 13.3257 8.91558C13.6678 8.20528 13.8625 7.43305 13.8981 6.64546C13.9337 5.85786 13.8093 5.07123 13.5326 4.33299C13.2559 3.59475 12.8325 2.9202 12.288 2.35003C11.7435 1.77987 11.0892 1.32589 10.3645 1.01548C9.63976 0.705079 8.85967 0.544675 8.07128 0.543948C7.28288 0.543221 6.50251 0.702185 5.77722 1.01125C5.05193 1.32032 4.39675 1.77309 3.8512 2.34225C3.30565 2.91141 2.88103 3.58518 2.60296 4.3229C0.498362 8.93625 0.239111 14.1801 1.8784 18.9786C3.51768 23.777 6.9312 27.7661 11.4186 30.1275C13.3705 31.1027 14.8606 32.8065 15.567 34.871C16.2733 36.9355 16.1393 39.195 15.1939 41.1616C13.0966 45.7751 12.8434 51.0161 14.4861 55.8103C16.1288 60.6045 19.543 64.5889 24.0289 66.9467C25.9809 67.9219 27.471 69.6257 28.1774 71.6902C28.8837 73.7547 28.7497 76.0143 27.8043 77.9808C27.2004 79.403 27.185 81.0066 27.7614 82.4401C28.3377 83.8737 29.4588 85.0203 30.879 85.6288ZM25.9166 63.5606C22.2895 61.6456 19.5303 58.4179 18.2029 54.537C16.8755 50.656 17.08 46.4147 18.7746 42.6795C20.1097 39.8318 20.2878 36.5771 19.2715 33.6007C18.2551 30.6243 16.1236 28.1583 13.3257 26.7219C9.69311 24.8174 6.92719 21.5949 5.59548 17.7155C4.26377 13.8362 4.46727 9.59431 6.16422 5.86028C6.25703 5.61537 6.39831 5.39171 6.57961 5.20271C6.76091 5.0137 6.9785 4.86324 7.21934 4.76032C7.46018 4.65741 7.71931 4.60418 7.98121 4.6038C8.24312 4.60343 8.5024 4.65592 8.74353 4.75814C8.98466 4.86036 9.20268 5.0102 9.38452 5.19868C9.56637 5.38717 9.70829 5.61042 9.8018 5.85506C9.8953 6.09971 9.93847 6.36071 9.9287 6.62243C9.91893 6.88415 9.85643 7.1412 9.74495 7.3782C8.41633 10.229 8.2437 13.4837 9.2633 16.459C10.2829 19.4344 12.4155 21.8991 15.2133 23.3358C18.8425 25.2436 21.6042 28.4676 22.9322 32.3466C24.2602 36.2256 24.0538 40.4657 22.3553 44.1974C21.0217 47.0475 20.8465 50.3039 21.8665 53.2807C22.8866 56.2574 25.0223 58.7219 27.8237 60.155C31.4509 62.07 34.21 65.2977 35.5374 69.1786C36.8648 73.0596 36.6603 77.3009 34.9657 81.0361C34.7619 81.5109 34.3777 81.8853 33.8978 82.0769C33.4179 82.2685 32.8815 82.2616 32.4067 82.0578C31.9318 81.8539 31.5574 81.4698 31.3658 80.9898C31.1742 80.5099 31.1811 79.9736 31.385 79.4987C32.7177 76.6515 32.8924 73.3979 31.8722 70.4244C30.8519 67.4509 28.7166 64.9899 25.9166 63.5606ZM51.0401 35.5959C50.4523 34.1773 49.3297 33.047 47.9152 32.4495C46.5006 31.852 44.9077 31.8352 43.4809 32.4029C42.0541 32.9705 40.908 34.077 40.2905 35.4829C39.673 36.8889 39.6337 38.4814 40.1811 39.9161C42.1272 44.9758 40.2979 46.6105 40.2979 46.6105C39.0413 47.4939 38.1835 48.8368 37.9104 50.3483C37.6372 51.8598 37.9707 53.4181 38.8386 54.6854C39.7065 55.9527 41.0389 56.8269 42.5469 57.1185C44.055 57.4102 45.6172 57.0958 46.895 56.2434C47.3037 55.971 56.6252 49.5685 51.0401 35.5959ZM44.7349 52.9935C44.4131 53.2061 44.0355 53.3182 43.6499 53.3158C43.2642 53.3133 42.8881 53.1963 42.569 52.9797C42.25 52.763 42.0026 52.4565 41.8581 52.099C41.7136 51.7415 41.6785 51.3491 41.7574 50.9716C41.812 50.7155 41.9176 50.4729 42.0681 50.2586C42.2186 50.0443 42.4108 49.8625 42.6332 49.7242C43.3532 49.1793 46.7977 45.9489 43.8008 38.476C43.7062 38.2384 43.6594 37.9844 43.663 37.7286C43.6666 37.4729 43.7205 37.2203 43.8217 36.9854C43.9229 36.7505 44.0694 36.5378 44.2528 36.3595C44.4362 36.1812 44.6529 36.0407 44.8906 35.9462C45.1282 35.8516 45.3822 35.8048 45.638 35.8084C45.8937 35.812 46.1463 35.8659 46.3812 35.9671C46.6161 36.0683 46.8288 36.2148 47.0071 36.3982C47.1854 36.5816 47.3259 36.7983 47.4204 37.036C51.838 48.0895 45.0462 52.7989 44.7349 52.9935Z" fill="#EDEDED"/>
<path d="M12.5278 68.2506C12.4008 67.0064 11.8776 65.8359 11.0353 64.9115C10.193 63.987 9.07614 63.3575 7.84914 63.1156C6.62214 62.8737 5.34988 63.0322 4.21973 63.5677C3.08959 64.1033 2.16129 64.9876 1.57155 66.0905C1.01003 67.0979 0.759475 68.2491 0.851515 69.3987C0.851515 69.8658 2.01914 81.075 16.9648 83.0211C18.4965 83.1786 20.0287 82.7282 21.2315 81.7668C22.4342 80.8055 23.2111 79.4101 23.3949 77.8813C23.5787 76.3526 23.1545 74.8129 22.2139 73.5938C21.2732 72.3748 19.8913 71.5741 18.3659 71.3642C13.0143 70.7026 12.5278 68.2506 12.5278 68.2506ZM19.6698 77.3775C19.6409 77.6338 19.5614 77.8818 19.4358 78.1071C19.3102 78.3324 19.1411 78.5304 18.9383 78.6898C18.7355 78.8491 18.503 78.9666 18.2544 79.0353C18.0058 79.104 17.7461 79.1226 17.4902 79.09C5.63879 77.65 4.74361 69.4182 4.74361 69.0484C4.70046 68.5351 4.86266 68.0255 5.19462 67.6315C5.52659 67.2375 6.00125 66.9913 6.51451 66.9467C6.77485 66.9228 7.03733 66.9515 7.2863 67.0313C7.53528 67.111 7.76563 67.2401 7.96361 67.4109C8.16159 67.5816 8.32314 67.7905 8.43861 68.025C8.55409 68.2596 8.62112 68.515 8.6357 68.776C8.77193 69.6906 9.93956 74.2444 17.9378 75.2174C18.4482 75.2807 18.9127 75.5434 19.23 75.9482C19.5472 76.353 19.6914 76.8668 19.6309 77.3775H19.6698ZM12.5278 105.868H10.5818C10.0656 105.868 9.57064 106.073 9.20569 106.438C8.84073 106.803 8.6357 107.298 8.6357 107.814C8.6357 108.33 8.84073 108.825 9.20569 109.19C9.57064 109.555 10.0656 109.76 10.5818 109.76H12.5278C13.0439 109.76 13.5389 109.555 13.9039 109.19C14.2688 108.825 14.4738 108.33 14.4738 107.814C14.4738 107.298 14.2688 106.803 13.9039 106.438C13.5389 106.073 13.0439 105.868 12.5278 105.868ZM33.9343 105.868H20.312C19.7959 105.868 19.3009 106.073 18.9359 106.438C18.571 106.803 18.3659 107.298 18.3659 107.814C18.3659 108.33 18.571 108.825 18.9359 109.19C19.3009 109.555 19.7959 109.76 20.312 109.76H33.9343C34.4504 109.76 34.9454 109.555 35.3104 109.19C35.6753 108.825 35.8804 108.33 35.8804 107.814C35.8804 107.298 35.6753 106.803 35.3104 106.438C34.9454 106.073 34.4504 105.868 33.9343 105.868Z" fill="#EDEDED"/>
</svg>
