<svg width="41" height="41" viewBox="0 0 41 41" fill="none" xmlns="http://www.w3.org/2000/svg">
<path d="M37.166 5.7557C37.1663 5.62193 37.1268 5.49108 37.0526 5.37977C36.9784 5.26845 36.8728 5.1817 36.7492 5.13051C36.6256 5.07932 36.4896 5.066 36.3584 5.09225C36.2273 5.1185 36.1068 5.18313 36.0125 5.27794L35.9996 5.2901L33.8027 1.8978C33.4982 1.42125 33.0781 1.02942 32.5816 0.758752C32.085 0.488081 31.5281 0.347349 30.9625 0.34964H9.58155C9.01657 0.347214 8.46014 0.487616 7.96395 0.757805C7.46775 1.02799 7.0479 1.4192 6.74337 1.8951L0.594652 11.3888C0.378396 11.7252 0.265847 12.1178 0.271014 12.5176C0.27618 12.9175 0.398835 13.307 0.62371 13.6377L7.18667 23.2463C5.81145 24.6011 3.95699 25.358 2.02658 25.3527C1.84736 25.3527 1.67548 25.4239 1.54875 25.5506C1.42202 25.6773 1.35082 25.8492 1.35082 26.0284C1.35082 26.2077 1.42202 26.3795 1.54875 26.5063C1.67548 26.633 1.84736 26.7042 2.02658 26.7042C6.12505 26.7042 9.45992 30.0391 9.45992 34.1375C9.45992 34.3167 9.53111 34.4886 9.65784 34.6154C9.78457 34.7421 9.95645 34.8133 10.1357 34.8133C10.3149 34.8133 10.4868 34.7421 10.6135 34.6154C10.7402 34.4886 10.8114 34.3167 10.8114 34.1375C10.8114 32.7225 11.2203 31.3656 11.944 30.206L18.6577 40.0355C19.0199 40.5734 19.6233 40.8944 20.2727 40.8944C20.9221 40.8944 21.5256 40.5728 21.8851 40.0389L35.8489 19.6006C35.9023 19.652 35.9604 19.6952 36.0131 19.7479C36.0757 19.8109 36.1502 19.8609 36.2322 19.895C36.3142 19.9291 36.4021 19.9466 36.4909 19.9466C36.5797 19.9466 36.6676 19.9291 36.7496 19.895C36.8316 19.8609 36.906 19.8109 36.9687 19.7479C37.0316 19.6853 37.0816 19.6109 37.1157 19.5289C37.1498 19.4469 37.1674 19.359 37.1674 19.2702C37.1674 19.1814 37.1498 19.0935 37.1157 19.0115C37.0816 18.9295 37.0316 18.855 36.9687 18.7924C36.8531 18.6769 36.7511 18.5525 36.6436 18.4322L39.9237 13.6323C40.1455 13.3011 40.266 12.9124 40.2707 12.5138C40.2754 12.1152 40.164 11.7239 39.9501 11.3875L36.7605 6.46254C36.8315 6.38686 36.895 6.30644 36.9687 6.23211C37.0315 6.16944 37.0813 6.09497 37.1153 6.01299C37.1493 5.931 37.1667 5.8431 37.1667 5.75435L37.166 5.7557ZM32.6661 2.62965L34.959 6.16994C33.5994 7.16579 31.9807 7.74689 30.2983 7.84312C29.1501 7.92546 27.997 7.77774 26.9066 7.40861L25.2294 1.70116H30.9618C31.6565 1.70116 32.2931 2.04714 32.6661 2.62965ZM33.9034 16.6834C33.6815 16.5862 33.4561 16.4971 33.2277 16.4165C30.7017 15.492 27.9459 15.6278 25.5592 16.6908C26.1427 15.3778 26.4446 13.9571 26.4455 12.5203C26.4464 11.0834 26.1464 9.66236 25.5646 8.34858C27.0768 9.02796 28.7351 9.31789 30.3881 9.19193C31.6113 9.12368 32.8006 8.83243 33.9041 8.34183C33.3215 9.65511 33.0205 11.0758 33.0204 12.5125C33.0203 13.9492 33.3211 15.37 33.9034 16.6834ZM20.2727 37.6116L17.3609 26.7583C17.6514 26.7245 17.9461 26.7042 18.2454 26.7042C18.4247 26.7042 18.5965 26.633 18.7233 26.5063C18.85 26.3795 18.9212 26.2077 18.9212 26.0284C18.9212 25.8492 18.85 25.6773 18.7233 25.5506C18.5965 25.4239 18.4247 25.3527 18.2454 25.3527C17.8114 25.3505 17.3784 25.3102 16.9514 25.2324L13.7199 13.189H25.0625C24.908 15.3043 23.9978 17.2934 22.498 18.7931C22.435 18.8557 22.385 18.9301 22.3509 19.0121C22.3168 19.0941 22.2993 19.1821 22.2993 19.2709C22.2993 19.3597 22.3168 19.4476 22.3509 19.5296C22.385 19.6116 22.435 19.686 22.498 19.7486C22.5607 19.8114 22.6352 19.8613 22.7171 19.8953C22.7991 19.9293 22.887 19.9467 22.9757 19.9467C23.0645 19.9467 23.1524 19.9293 23.2344 19.8953C23.3163 19.8613 23.3908 19.8114 23.4535 19.7486C24.0497 19.1531 24.7281 18.6458 25.4679 18.2424L20.2727 37.6116ZM8.09759 22.184L1.95428 13.189H12.3204L15.435 24.7972C12.7259 23.6863 10.8114 21.0238 10.8114 17.9193C10.8114 17.7401 10.7402 17.5682 10.6135 17.4415C10.4868 17.3148 10.3149 17.2436 10.1357 17.2436C9.95645 17.2436 9.78457 17.3148 9.65784 17.4415C9.53111 17.5682 9.45992 17.7401 9.45992 17.9193C9.45992 19.4621 8.98013 20.9454 8.09759 22.184ZM22.4973 6.23346C23.9971 7.73311 24.9073 9.72224 25.0618 11.8375H13.7415L16.723 1.70116H23.8204L25.2814 6.67203C24.614 6.28857 23.9994 5.81994 23.4528 5.27794C23.3901 5.2152 23.3156 5.16543 23.2336 5.13148C23.1517 5.09752 23.0638 5.08005 22.9751 5.08005C22.8863 5.08005 22.7985 5.09752 22.7165 5.13148C22.6345 5.16543 22.56 5.2152 22.4973 5.27794C22.4346 5.34068 22.3848 5.41517 22.3508 5.49714C22.3169 5.57911 22.2994 5.66697 22.2994 5.7557C22.2994 5.84443 22.3169 5.93229 22.3508 6.01426C22.3848 6.09624 22.4346 6.17072 22.4973 6.23346ZM7.87999 2.62627C8.06268 2.34117 8.31445 2.10687 8.61193 1.94513C8.90942 1.78339 9.24295 1.69947 9.58155 1.70116H15.314L12.3326 11.8375H1.91441L7.87999 2.62627ZM10.1377 30.7635C9.2434 28.6273 7.54589 26.9279 5.41078 26.0311C6.64482 25.519 7.7413 24.7241 8.61184 23.7106C9.2502 22.9965 9.76499 22.1809 10.135 21.2975C11.0308 23.4338 12.7297 25.133 14.866 26.0291C14.7531 26.0771 14.641 26.1278 14.5301 26.1805C12.5455 27.1069 10.9787 28.7414 10.137 30.7635H10.1377ZM12.8103 29.0788C13.4602 28.3767 14.2403 27.8075 15.1072 27.4029C15.4086 27.259 15.7208 27.1448 16.0377 27.0454L19.0246 38.1779L12.8103 29.0788ZM21.5195 38.1786L27.0465 17.574C28.8839 16.9922 30.8983 17.0037 32.7709 17.6882C33.491 17.9472 34.1727 18.3025 34.7974 18.7444L21.5195 38.1786ZM34.4035 13.189H38.5898L35.7759 17.3064C34.9836 16.0692 34.5119 14.6542 34.4035 13.189ZM38.6297 11.8375H34.4035C34.516 10.314 35.021 8.84546 35.8692 7.57484L38.6297 11.8375ZM31.7599 33.4618H30.4084C30.2292 33.4618 30.0573 33.533 29.9306 33.6597C29.8038 33.7864 29.7326 33.9583 29.7326 34.1375C29.7326 34.3167 29.8038 34.4886 29.9306 34.6154C30.0573 34.7421 30.2292 34.8133 30.4084 34.8133H31.7599C31.9391 34.8133 32.111 34.7421 32.2377 34.6154C32.3645 34.4886 32.4357 34.3167 32.4357 34.1375C32.4357 33.9583 32.3645 33.7864 32.2377 33.6597C32.111 33.533 31.9391 33.4618 31.7599 33.4618ZM34.4629 34.8133H35.8145C35.9937 34.8133 36.1656 34.7421 36.2923 34.6154C36.419 34.4886 36.4902 34.3167 36.4902 34.1375C36.4902 33.9583 36.419 33.7864 36.2923 33.6597C36.1656 33.533 35.9937 33.4618 35.8145 33.4618H34.4629C34.2837 33.4618 34.1118 33.533 33.9851 33.6597C33.8584 33.7864 33.7872 33.9583 33.7872 34.1375C33.7872 34.3167 33.8584 34.4886 33.9851 34.6154C34.1118 34.7421 34.2837 34.8133 34.4629 34.8133ZM33.1114 37.5163C33.2907 37.5163 33.4625 37.4451 33.5893 37.3184C33.716 37.1917 33.7872 37.0198 33.7872 36.8406V35.489C33.7872 35.3098 33.716 35.1379 33.5893 35.0112C33.4625 34.8845 33.2907 34.8133 33.1114 34.8133C32.9322 34.8133 32.7603 34.8845 32.6336 35.0112C32.5069 35.1379 32.4357 35.3098 32.4357 35.489V36.8406C32.4357 37.0198 32.5069 37.1917 32.6336 37.3184C32.7603 37.4451 32.9322 37.5163 33.1114 37.5163ZM33.7872 31.4345C33.7872 31.2553 33.716 31.0834 33.5893 30.9567C33.4625 30.8299 33.2907 30.7587 33.1114 30.7587C32.9322 30.7587 32.7603 30.8299 32.6336 30.9567C32.5069 31.0834 32.4357 31.2553 32.4357 31.4345V32.786C32.4357 32.9652 32.5069 33.1371 32.6336 33.2638C32.7603 33.3906 32.9322 33.4618 33.1114 33.4618C33.2907 33.4618 33.4625 33.3906 33.5893 33.2638C33.716 33.1371 33.7872 32.9652 33.7872 32.786V31.4345Z" fill="#FF9549"/>
</svg>
