<svg width="100" height="99" viewBox="0 0 100 99" fill="none" xmlns="http://www.w3.org/2000/svg">
<circle cx="50.3125" cy="49.5" r="49.5" fill="white"/>
<path d="M76.5368 72.5091L75.5069 74.6498L63.5414 73.7788L53.1227 64.6581L54.2494 62.5615C55.4066 60.4092 58.0512 59.5444 60.2563 60.5984L74.7874 67.5384C76.6451 68.4264 77.43 70.6545 76.5368 72.5091ZM33.1349 25.8864L40.0749 40.4174C41.129 42.6223 40.2643 45.267 38.1119 46.4242L36.0163 47.552L26.8921 38.4278L26.0234 25.1668L28.1642 24.1368C30.02 23.2449 32.247 24.0287 33.1349 25.8864Z" fill="#E8EDF2"/>
<path d="M53.1227 64.6581C52.3389 66.113 50.7653 66.9757 49.1188 66.8232C46.857 66.6128 43.4539 65.4399 39.3437 61.3298C35.2336 57.2197 34.0606 53.8165 33.8513 51.5558C33.6988 49.9094 34.5604 48.3347 36.0163 47.552L26.0234 25.1668L22.8791 26.6786C17.5329 29.2496 14.5315 35.0344 15.4836 40.8908C16.8533 49.3003 20.4658 61.3097 29.9147 70.7587C39.3636 80.2077 51.3743 83.8211 59.7839 85.1908C65.6403 86.1429 71.4252 83.1415 73.9952 77.7943L75.5069 74.6498L53.1227 64.6581Z" fill="#5F99D7"/>
<path d="M73.2988 79.063C70.4753 83.6076 65.1597 86.0639 59.7839 85.1908C51.3743 83.8211 39.3638 80.2076 29.9147 70.7587C20.4657 61.3099 16.8533 49.3003 15.4836 40.8908C14.6094 35.5163 17.0657 30.2006 21.6104 27.3771C19.8957 30.1304 19.2386 33.4123 19.7609 36.6135C21.1307 45.023 24.7431 57.0324 34.1922 66.4814C43.6413 75.9304 55.6517 79.5439 64.0614 80.9135C67.263 81.4365 70.5457 80.7789 73.2988 79.063Z" fill="#3C87D0"/>
<path d="M54.1375 20.8748C53.8989 20.6369 53.7098 20.3542 53.5809 20.0429C53.4519 19.7317 53.3858 19.398 53.3862 19.0611C53.3861 17.6444 54.5346 16.4961 55.9512 16.4961C63.48 16.4961 70.5654 19.4352 75.9022 24.7719C81.2391 30.1087 84.1782 37.194 84.1782 44.7227C84.1782 46.1393 83.0298 47.2878 81.613 47.2878C80.1965 47.2878 79.0479 46.1393 79.048 44.7228C79.048 38.5643 76.6425 32.7673 72.2745 28.3995C67.9067 24.0317 62.1095 21.6262 55.9511 21.6262C55.6142 21.6266 55.2806 21.5604 54.9693 21.4315C54.6581 21.3025 54.3754 21.1133 54.1375 20.8748Z" fill="#FF9549"/>
<path d="M52.9282 30.6341C52.6897 30.3962 52.5005 30.1135 52.3716 29.8022C52.2427 29.491 52.1765 29.1573 52.177 28.8204C52.177 27.4037 53.3253 26.2554 54.742 26.2554C65.5917 26.2554 74.4187 35.0823 74.4188 45.9319C74.4188 47.3486 73.2705 48.497 71.8536 48.497C70.4371 48.497 69.2885 47.3486 69.2886 45.932C69.2886 37.9112 62.7631 31.3856 54.7418 31.3855C54.405 31.3858 54.0713 31.3196 53.7601 31.1907C53.4489 31.0617 53.1662 30.8726 52.9282 30.6341Z" fill="#FF9549"/>
<path d="M60.2805 48.9548C60.042 48.7168 59.8528 48.4341 59.7239 48.1228C59.5949 47.8115 59.5288 47.4778 59.5293 47.1409C59.5293 45.5393 58.9055 44.0334 57.7729 42.9008C56.6404 41.7683 55.1345 41.1445 53.5327 41.1445C52.1162 41.1445 50.9676 39.9961 50.9677 38.5795C50.9677 37.1629 52.1162 36.0144 53.5327 36.0144C56.5046 36.0144 59.2988 37.1718 61.4003 39.2734C63.5018 41.3748 64.6591 44.169 64.6591 47.141C64.6591 48.5576 63.5107 49.706 62.094 49.706C61.7571 49.7064 61.4235 49.6403 61.1123 49.5113C60.8011 49.3824 60.5184 49.1933 60.2805 48.9548Z" fill="#FF9549"/>
</svg>
