<svg width="93" height="93" viewBox="0 0 93 93" fill="none" xmlns="http://www.w3.org/2000/svg">
<path d="M26.13 15.4329H29.204V18.5194H26.13V15.4329ZM77.3196 14.0269L46.5613 44.9096L48.7346 47.0919L53.301 42.5052C53.912 43.4357 54.3153 44.4879 54.4833 45.5897C54.6513 46.6914 54.58 47.8166 54.2743 48.8881C53.9686 49.9595 53.4357 50.9519 52.7122 51.7972C51.9886 52.6425 51.0916 53.3206 50.0825 53.7851L51.3613 56.5908C52.0525 56.2631 52.7069 55.8621 53.3133 55.3947L56.6132 58.7082C55.5655 59.5743 54.4071 60.2957 53.1688 60.8533L54.423 63.6714C56.0045 62.9584 57.4768 62.0231 58.7958 60.8935L69.6746 71.8184C67.2128 74.0847 64.4304 75.9726 61.4179 77.4205L56.5241 65.7548L53.6914 66.9524L58.579 78.6042C57.3971 79.0475 56.1912 79.4236 54.9671 79.7308L55.6987 82.7294C57.0806 82.3837 58.4411 81.957 59.7733 81.4516L62.1679 87.1617C60.329 87.8631 58.4443 88.437 56.5272 88.8794L57.2127 91.8873C65.2383 90.0351 72.6236 86.059 78.6014 80.372C84.5792 74.685 88.9315 67.4946 91.206 59.5477C93.4805 51.6008 93.5943 43.1873 91.5356 35.1812C89.4769 27.1752 85.3208 19.8687 79.4991 14.0208C79.3559 13.877 79.1857 13.763 78.9985 13.6855C78.8113 13.6079 78.6106 13.5683 78.4081 13.5689C78.2056 13.5695 78.0051 13.6102 77.8183 13.6888C77.6315 13.7674 77.4621 13.8823 77.3196 14.0269ZM71.831 23.904C74.083 26.3748 75.9561 29.1684 77.3888 32.193L63.23 38.1794C62.6002 36.9778 61.8399 35.85 60.9629 34.8165L71.831 23.904ZM65.2511 45.2183C65.1312 43.7931 64.8475 42.3866 64.4058 41.0267L78.58 35.0326C79.7726 38.3034 80.4584 41.7386 80.6134 45.2183H65.2511ZM80.6134 48.3049C80.459 51.7845 79.7737 55.2197 78.5815 58.4906L64.4012 52.498C64.8415 51.1384 65.1246 49.7325 65.245 48.308L80.6134 48.3049ZM58.7881 56.526L55.4974 53.2218C56.8928 51.3592 57.6474 49.0916 57.6474 46.7608C57.6474 44.43 56.8928 42.1624 55.4974 40.2999L58.7896 36.9941C61.0289 39.7529 62.2515 43.2029 62.2513 46.7619C62.251 50.3208 61.0278 53.7707 58.7881 56.529V56.526ZM60.9629 58.7097C61.8404 57.6763 62.6012 56.5484 63.2315 55.3469L77.3888 61.3333C75.9566 64.3582 74.0835 67.1519 71.831 69.6223L60.9629 58.7097ZM65.0022 85.9688L62.6106 80.2679C65.9884 78.6623 69.1036 76.5506 71.8495 74.0052L76.1946 78.3696C72.886 81.48 69.1086 84.0457 65.0022 85.9719V85.9688ZM78.3878 76.2013L74.012 71.8076C76.5426 69.0526 78.6387 65.9253 80.2276 62.534L85.9191 64.9461C84.0176 69.0744 81.4756 72.8734 78.3878 76.2013ZM87.118 62.0988L81.4311 59.6912C82.7731 56.0381 83.534 52.1956 83.6859 48.3049H89.8661C89.7015 53.0228 88.7707 57.6821 87.1103 62.0988H87.118ZM89.8846 45.2214H83.6859C83.529 41.3303 82.7629 37.4883 81.4157 33.8366L87.118 31.4244C88.7779 35.8411 89.7083 40.5004 89.8723 45.2183L89.8846 45.2214ZM80.2322 30.9938C78.6433 27.6025 76.5472 24.4752 74.0166 21.7202L78.3878 17.3203C81.4767 20.6514 84.0188 24.4541 85.9191 28.5863L80.2322 30.9938ZM34.0056 81.4578C36.861 82.5341 39.8392 83.248 42.8709 83.5829L43.2029 80.5148C40.4684 80.2144 37.7805 79.5811 35.1983 78.6289L40.0936 66.9601L37.2594 65.7625L32.3533 77.4421C29.3426 75.9893 26.5644 74.0938 24.1104 71.8184L36.1435 59.736L33.9687 57.5538L14.2844 77.3187C13.9962 77.6081 13.8344 78.0005 13.8344 78.4098C13.8344 78.819 13.9962 79.2115 14.2844 79.5009C22.3413 87.6026 33.1065 92.413 44.494 93L44.6477 89.9134C40.1869 89.6695 35.7911 88.7291 31.6186 87.1263L34.0056 81.4578ZM28.7921 85.9333C24.6794 84.0289 20.8926 81.4835 17.572 78.3912L21.9463 73.9991C24.6898 76.5388 27.8006 78.6467 31.1729 80.2509L28.7921 85.9333Z" fill="#FF9549"/>
<path d="M52.202 72.1255L35.2951 10.394C35.2042 10.0716 35.0098 9.78821 34.7422 9.58788C34.4746 9.38755 34.1487 9.28143 33.815 9.28596V9.25972H32.278V4.62986C32.278 3.40195 31.7922 2.22432 30.9274 1.35606C30.0627 0.487788 28.8899 3.6693e-07 27.667 3.6693e-07C26.4441 3.6693e-07 25.2712 0.487788 24.4065 1.35606C23.5418 2.22432 23.056 3.40195 23.056 4.62986V9.25972H21.519V9.2875C21.1853 9.28192 20.859 9.38724 20.5911 9.58708C20.3231 9.78691 20.1284 10.0701 20.0373 10.3925L3.13038 72.124C3.09434 72.2578 3.07574 72.3958 3.07505 72.5345V91.0539C3.07614 91.4218 3.20808 91.7772 3.44711 92.0561C3.68614 92.335 4.01651 92.5189 4.37868 92.5747C4.74085 92.6306 5.11097 92.5547 5.42233 92.3608C5.73369 92.1668 5.9658 91.8675 6.07681 91.5169L25.7181 29.3224H29.6159L49.2572 91.5169C49.3682 91.8675 49.6003 92.1668 49.9116 92.3608C50.223 92.5547 50.5931 92.6306 50.9553 92.5747C51.3175 92.5189 51.6478 92.335 51.8869 92.0561C52.1259 91.7772 52.2578 91.4218 52.2589 91.0539V72.5345C52.2586 72.3962 52.2394 72.2586 52.202 72.1255ZM6.14904 81.0812V72.7475L21.2116 17.7478L23.0114 27.685L6.14904 81.0812ZM26.13 4.62986C26.13 4.22056 26.2919 3.82801 26.5802 3.53859C26.8684 3.24917 27.2593 3.08657 27.667 3.08657C28.0746 3.08657 28.4656 3.24917 28.7538 3.53859C29.042 3.82801 29.204 4.22056 29.204 4.62986V9.25972H26.13V4.62986ZM29.4591 26.2359H25.8748L23.3634 12.3463H31.9706L29.4591 26.2359ZM32.321 27.6788L34.1224 17.7478L49.1849 72.7428V81.0766L32.321 27.6788ZM92.2208 23.1493V1.54329C92.2208 1.13398 92.0589 0.741441 91.7706 0.452018C91.4824 0.162596 91.0915 3.6693e-07 90.6838 3.6693e-07H35.352V3.08657H39.963V6.17315H43.0369V3.08657H46.1109V6.17315H49.1849V3.08657H52.2589V6.17315H55.3329V3.08657H58.4069V6.17315H61.4809V3.08657H64.5549V6.17315H67.6289V3.08657H70.7029V6.17315H73.7769V3.08657H76.8509V6.17315H79.9248V3.08657H82.9988V6.17315H86.0728V3.08657H89.1468V9.25972H86.0728V12.3463H89.1468V15.4329H86.0728V18.5194H89.1468V23.1493H92.2208ZM16.2087 7.9078L7.50621 3.08657H19.982V3.6693e-07H1.53806C1.19695 -0.000235731 0.865452 0.113471 0.595782 0.323212C0.326112 0.532953 0.133591 0.826809 0.0485419 1.1585C-0.0365073 1.49018 -0.00925171 1.84086 0.126016 2.15528C0.261283 2.4697 0.496876 2.73001 0.795687 2.89521L14.7255 10.6116L16.2087 7.9078ZM42.582 26.0445L44.0683 23.3407L54.5398 29.1419L53.0535 31.8457L42.582 26.0445Z" fill="#FF9549"/>
<path d="M70.7029 12.3463H52.2589C51.9216 12.3463 51.5937 12.4576 51.3256 12.6633C51.0576 12.8689 50.8644 13.1573 50.7758 13.4841C50.6872 13.8109 50.7081 14.1579 50.8353 14.4716C50.9625 14.7853 51.1889 15.0482 51.4797 15.2199L61.9312 21.393L63.4897 18.7324L57.9028 15.4329H70.7029V12.3463Z" fill="#FF9549"/>
</svg>
