<svg width="112" height="104" viewBox="0 0 112 104" fill="none" xmlns="http://www.w3.org/2000/svg">
<path d="M3.07384 56.8853L6.17384 58.4356C6.54176 58.6194 6.96761 58.6494 7.3577 58.5192C7.55086 58.4547 7.72942 58.3528 7.8832 58.2193C8.03697 58.0858 8.16295 57.9233 8.25394 57.741C8.34492 57.5588 8.39914 57.3605 8.41348 57.1573C8.42782 56.9542 8.40202 56.7502 8.33754 56.557C8.27306 56.3638 8.17116 56.1852 8.03767 56.0314C7.90418 55.8776 7.74171 55.7516 7.55954 55.6606L4.45954 54.1103C4.09162 53.9265 3.66577 53.8964 3.27567 54.0267C2.88558 54.1569 2.56319 54.4368 2.37944 54.8048C2.19568 55.1728 2.16561 55.5987 2.29583 55.9889C2.42606 56.3791 2.70592 56.7015 3.07384 56.8853ZM8.41669 61.6911H2.21669C1.8056 61.6911 1.41135 61.8545 1.12067 62.1452C0.82999 62.4359 0.666687 62.8302 0.666687 63.2414C0.666687 63.6526 0.82999 64.0469 1.12067 64.3376C1.41135 64.6283 1.8056 64.7917 2.21669 64.7917H8.41669C8.82777 64.7917 9.22202 64.6283 9.5127 64.3376C9.80338 64.0469 9.96669 63.6526 9.96669 63.2414C9.96669 62.8302 9.80338 62.4359 9.5127 62.1452C9.22202 61.8545 8.82777 61.6911 8.41669 61.6911ZM6.17384 68.0472L3.07384 69.5975C2.70592 69.7813 2.42606 70.1037 2.29583 70.4939C2.16561 70.8841 2.19568 71.31 2.37944 71.678C2.56319 72.046 2.88558 72.3259 3.27567 72.4561C3.66577 72.5864 4.09162 72.5563 4.45954 72.3725L7.55954 70.8222C7.74171 70.7312 7.90418 70.6052 8.03767 70.4514C8.17116 70.2976 8.27306 70.119 8.33754 69.9258C8.40202 69.7326 8.42782 69.5286 8.41348 69.3255C8.39914 69.1223 8.34492 68.924 8.25394 68.7418C8.16295 68.5596 8.03697 68.3971 7.8832 68.2635C7.72942 68.13 7.55086 68.0281 7.3577 67.9636C6.96761 67.8334 6.54176 67.8635 6.17384 68.0472ZM81.2667 58.6821V55.4901C81.2667 55.0789 81.1034 54.6846 80.8127 54.3938C80.522 54.1031 80.1278 53.9398 79.7167 53.9398H73.5167C73.1056 53.9398 72.7113 54.1031 72.4207 54.3938C72.13 54.6846 71.9667 55.0789 71.9667 55.4901V57.0403H68.8667V53.9398C68.8667 53.5286 68.7034 53.1343 68.4127 52.8436C68.122 52.5528 67.7278 52.3895 67.3167 52.3895H54.385L57.561 49.213L71.3746 46.0334C71.6582 45.968 71.9176 45.824 72.1232 45.6179L81.9859 35.752C82.2766 36.0426 82.6707 36.2059 83.0817 36.2059C83.4927 36.2059 83.8869 36.0426 84.1776 35.752L88.5625 31.3678C88.8531 31.0771 89.0163 30.6829 89.0163 30.2718C89.0163 29.8607 88.8531 29.4665 88.5625 29.1758L68.8341 9.43616C68.538 9.15607 68.1459 9 67.7383 9C67.3307 9 66.9386 9.15607 66.6424 9.43616L62.259 13.8219C61.9685 14.1126 61.8052 14.5068 61.8052 14.9179C61.8052 15.329 61.9685 15.7232 62.259 16.014L60.4192 17.8526C60.2711 17.9956 60.1531 18.1666 60.0718 18.3558C59.9906 18.5449 59.9478 18.7484 59.946 18.9542C59.9443 19.16 59.9835 19.3642 60.0614 19.5547C60.1393 19.7452 60.2544 19.9183 60.4 20.0639C60.5455 20.2094 60.7186 20.3245 60.9091 20.4025C61.0995 20.4804 61.3036 20.5197 61.5095 20.5179C61.7153 20.5161 61.9187 20.4733 62.1078 20.3921C62.2969 20.3108 62.4679 20.1927 62.6109 20.0447L64.4507 18.206L79.7957 33.5537L71.0289 42.3236L55.6839 26.9759L58.229 24.4304C58.5114 24.138 58.6676 23.7464 58.6641 23.3399C58.6605 22.9334 58.4975 22.5446 58.2102 22.2572C57.9228 21.9697 57.534 21.8067 57.1276 21.8032C56.7212 21.7996 56.3297 21.9559 56.0373 22.2383L52.3948 25.8799C52.1888 26.0855 52.0449 26.345 51.9794 26.6287L48.7911 40.4447L44.7223 44.5141C44.4318 44.8049 44.2685 45.1991 44.2685 45.6102C44.2685 46.0213 44.4318 46.4155 44.7223 46.7062L40.8566 50.5726C40.2822 51.1505 39.5989 51.6087 38.8462 51.9206C38.0935 52.2324 37.2864 52.3918 36.4717 52.3895H34.7667C34.7667 51.9784 34.6034 51.584 34.3127 51.2933C34.022 51.0026 33.6278 50.8392 33.2167 50.8392H27.0167C26.6056 50.8392 26.2114 51.0026 25.9207 51.2933C25.63 51.584 25.4667 51.9784 25.4667 52.3895V69.4425H22.3667V55.4901C22.3667 55.0789 22.2034 54.6846 21.9127 54.3938C21.622 54.1031 21.2278 53.9398 20.8167 53.9398C20.4056 53.9398 20.0114 54.1031 19.7207 54.3938C19.43 54.6846 19.2667 55.0789 19.2667 55.4901V58.5906H14.6167C14.2056 58.5906 13.8114 58.7539 13.5207 59.0447C13.23 59.3354 13.0667 59.7297 13.0667 60.1409V66.3419C13.0667 66.7531 13.23 67.1474 13.5207 67.4382C13.8114 67.7289 14.2056 67.8922 14.6167 67.8922H19.2667V70.9928C19.2667 71.4039 19.43 71.7982 19.7207 72.089C20.0114 72.3797 20.4056 72.543 20.8167 72.543H25.4667V74.0933C25.4667 74.5045 25.63 74.8988 25.9207 75.1895C26.2114 75.4802 26.6056 75.6436 27.0167 75.6436H33.2167C33.6278 75.6436 34.022 75.4802 34.3127 75.1895C34.6034 74.8988 34.7667 74.5045 34.7667 74.0933H40.9667C41.3778 74.0933 41.772 73.93 42.0627 73.6392C42.3534 73.3485 42.5167 72.9542 42.5167 72.543V63.2414C42.5167 62.8302 42.68 62.4359 42.9707 62.1452C43.2613 61.8545 43.6556 61.6911 44.0667 61.6911C44.4778 61.6911 44.872 61.8545 45.1627 62.1452C45.4534 62.4359 45.6167 62.8302 45.6167 63.2414V84.2987C45.6148 85.5024 45.3347 86.6893 44.7983 87.7667L39.9654 97.4326C39.8544 97.6552 39.6921 97.8481 39.4919 97.9956C39.2917 98.143 39.0593 98.2408 38.8139 98.2808C38.5685 98.3207 38.3171 98.3018 38.0805 98.2255C37.8438 98.1492 37.6287 98.0177 37.4528 97.8419C37.2194 97.6092 37.0654 97.3088 37.0125 96.9834C36.9596 96.6581 37.0107 96.3243 37.1583 96.0296L42.3539 85.6428C42.4619 85.4262 42.5176 85.1873 42.5167 84.9452V78.7441C42.5167 78.333 42.3534 77.9386 42.0627 77.6479C41.772 77.3572 41.3778 77.1938 40.9667 77.1938C40.5556 77.1938 40.1614 77.3572 39.8707 77.6479C39.58 77.9386 39.4167 78.333 39.4167 78.7441V84.5793L34.3854 94.6421C33.946 95.5188 33.7941 96.5117 33.9513 97.4797C34.1085 98.4477 34.5668 99.3415 35.2611 100.034C35.6902 100.468 36.2011 100.813 36.7644 101.048C37.3277 101.284 37.9321 101.405 38.5425 101.404C38.8021 101.404 39.0613 101.383 39.3175 101.341C40.0491 101.226 40.7424 100.937 41.3391 100.499C41.9357 100.06 42.4183 99.4843 42.7461 98.8201L47.579 89.1526C48.3282 87.6444 48.7176 85.9829 48.7167 84.2987V83.3949H51.8167V86.4955C51.8167 86.9066 51.98 87.3009 52.2707 87.5917C52.5614 87.8824 52.9556 88.0457 53.3667 88.0457H58.4491L62.7457 100.938C62.8101 101.131 62.9118 101.31 63.0453 101.464C63.1787 101.618 63.3411 101.744 63.5234 101.836C63.7056 101.927 63.904 101.981 64.1073 101.996C64.3105 102.011 64.5147 101.985 64.708 101.921C64.9014 101.856 65.0802 101.755 65.2343 101.621C65.3883 101.488 65.5145 101.325 65.6058 101.143C65.697 100.961 65.7515 100.762 65.7661 100.559C65.7807 100.356 65.7551 100.151 65.6907 99.958L64.3004 95.7971H68.8667C69.2778 95.7971 69.672 95.6338 69.9627 95.343C70.2534 95.0523 70.4167 94.658 70.4167 94.2468C70.4167 93.8357 70.2534 93.4413 69.9627 93.1506C69.672 92.8599 69.2778 92.6965 68.8667 92.6965H63.2681L62.2342 89.596H67.3167C67.7278 89.596 68.122 89.4327 68.4127 89.1419C68.7034 88.8512 68.8667 88.4569 68.8667 88.0457C68.8667 87.6346 68.7034 87.2403 68.4127 86.9495C68.122 86.6588 67.7278 86.4955 67.3167 86.4955H61.2004L61.0376 86.0056C60.9348 85.6968 60.7374 85.4281 60.4734 85.2378C60.2093 85.0475 59.8921 84.9451 59.5667 84.9452H54.9167V80.2944H56.5008C57.2143 81.2572 58.1434 82.0395 59.2136 82.5785C60.2838 83.1175 61.4654 83.3982 62.6636 83.3982C63.8618 83.3982 65.0434 83.1175 66.1136 82.5785C67.1838 82.0395 68.1129 81.2572 68.8264 80.2944H70.8817L78.2643 100.969C78.3713 101.269 78.5682 101.529 78.828 101.713C79.0879 101.897 79.3982 101.997 79.7167 101.998C79.965 101.998 80.2098 101.939 80.4303 101.824C80.6508 101.71 80.8406 101.544 80.9837 101.341C81.1268 101.138 81.219 100.904 81.2526 100.658C81.2862 100.412 81.2602 100.161 81.1768 99.927L73.4268 78.2232C73.3193 77.9219 73.1213 77.6613 72.8599 77.477C72.5985 77.2927 72.2865 77.1938 71.9667 77.1938H70.2617C70.4806 76.128 70.4693 75.0277 70.2288 73.9666C69.9882 72.9055 69.5238 71.908 68.8667 71.0408V69.4425H71.9667V70.9928C71.9667 71.4039 72.13 71.7982 72.4207 72.089C72.7113 72.3797 73.1056 72.543 73.5167 72.543H79.7167C80.1278 72.543 80.522 72.3797 80.8127 72.089C81.1034 71.7982 81.2667 71.4039 81.2667 70.9928V68.1775C82.1702 68.4969 82.9529 69.0878 83.5079 69.8693C84.0628 70.6507 84.3627 71.5846 84.3667 72.543V100.448C84.3667 100.859 84.53 101.253 84.8207 101.544C85.1114 101.835 85.5056 101.998 85.9167 101.998C86.3278 101.998 86.722 101.835 87.0127 101.544C87.3034 101.253 87.4667 100.859 87.4667 100.448V72.543C87.4647 70.7567 86.8469 69.0257 85.7175 67.642C84.5881 66.2582 83.0161 65.3062 81.2667 64.9467V61.7997C83.848 62.1759 86.2078 63.4682 87.9153 65.4407C89.6227 67.4131 90.5638 69.934 90.5667 72.543V100.448C90.5667 100.859 90.73 101.253 91.0207 101.544C91.3113 101.835 91.7056 101.998 92.1167 101.998C92.5278 101.998 92.922 101.835 93.2127 101.544C93.5034 101.253 93.6667 100.859 93.6667 100.448V72.543C93.6617 69.113 92.3951 65.8047 90.1084 63.2485C87.8216 60.6923 84.6745 59.0669 81.2667 58.6821ZM16.1667 64.7917V61.6911H19.2667V64.7917H16.1667ZM67.7383 12.7243L85.275 30.264L83.0817 32.4561L65.5466 14.9179L67.7383 12.7243ZM54.3711 30.0486L67.9537 43.6336L57.2587 46.0985L51.8988 40.7377L54.3711 30.0486ZM50.2016 43.4181L54.5865 47.8038L52.3948 49.9959L48.0099 45.6102L50.2016 43.4181ZM28.5667 72.543V53.9398H31.6667V72.543H28.5667ZM44.0667 58.5906C42.8334 58.5906 41.6507 59.0806 40.7786 59.9528C39.9066 60.825 39.4167 62.0079 39.4167 63.2414V70.9928H34.7667V55.4901H36.4717C37.6933 55.4932 38.9033 55.2541 40.0319 54.7866C41.1605 54.3191 42.1852 53.6324 43.0468 52.7662L46.9125 48.8999L49.3212 51.3043C49.136 51.7705 49.0684 52.2752 49.1242 52.7737C49.1801 53.2722 49.3578 53.7494 49.6416 54.163C49.9254 54.5766 50.3067 54.914 50.7517 55.1454C51.1967 55.3769 51.6918 55.4952 52.1933 55.4901H65.7667V58.5906H58.0167C57.6056 58.5906 57.2113 58.7539 56.9207 59.0447C56.63 59.3354 56.4667 59.7297 56.4667 60.1409V66.3419C56.4651 66.6314 56.5446 66.9154 56.696 67.162C56.8475 67.4086 57.065 67.6078 57.3238 67.7372L59.2784 68.7139C58.187 69.2457 57.2356 70.0262 56.5008 70.9928H48.7167V63.2414C48.7167 62.0079 48.2268 60.825 47.3547 59.9528C46.4827 59.0806 45.2999 58.5906 44.0667 58.5906ZM65.7667 68.4844L59.5667 65.3839V61.6911H65.7667V68.4844ZM53.3667 77.1938C52.9556 77.1938 52.5614 77.3572 52.2707 77.6479C51.98 77.9386 51.8167 78.333 51.8167 78.7441V80.2944H48.7167V74.0933H55.0717C54.8629 75.1163 54.8629 76.1709 55.0717 77.1938H53.3667ZM62.6667 80.2944C61.747 80.2944 60.848 80.0216 60.0833 79.5106C59.3186 78.9995 58.7226 78.2732 58.3706 77.4234C58.0187 76.5735 57.9266 75.6384 58.106 74.7362C58.2855 73.8341 58.7283 73.0054 59.3786 72.355C60.029 71.7045 60.8575 71.2616 61.7595 71.0821C62.6615 70.9027 63.5965 70.9948 64.4462 71.3468C65.2958 71.6988 66.0221 72.2949 66.533 73.0597C67.044 73.8245 67.3167 74.7237 67.3167 75.6436C67.3167 76.877 66.8268 78.06 65.9547 78.9322C65.0827 79.8044 63.8999 80.2944 62.6667 80.2944ZM68.8667 66.3419V60.1409H71.9667V66.3419H68.8667ZM78.1667 69.4425H75.0667V57.0403H78.1667V69.4425Z" fill="#FF9549"/>
<path d="M62.6667 77.1938C63.5227 77.1938 64.2167 76.4998 64.2167 75.6436C64.2167 74.7874 63.5227 74.0933 62.6667 74.0933C61.8106 74.0933 61.1167 74.7874 61.1167 75.6436C61.1167 76.4998 61.8106 77.1938 62.6667 77.1938Z" fill="#FF9549"/>
</svg>
