<svg width="109" height="104" viewBox="0 0 109 104" fill="none" xmlns="http://www.w3.org/2000/svg">
<path d="M47.4962 39H74.4258C76.076 39 77.418 37.6545 77.418 36V21C77.418 19.3455 76.076 18 74.4258 18H47.4962C45.846 18 44.504 19.3455 44.504 21V36C44.504 37.6545 45.846 39 47.4962 39ZM47.4962 21H74.4258L74.4288 36H47.4962V21Z" fill="#FF9549"/>
<path d="M50.9247 31.9408L59.9006 22.9414L62.0163 25.0626L53.0403 34.0622L50.9247 31.9408ZM62.0202 34.0601L59.9046 31.9389L64.393 27.4386L66.5089 29.5599L62.0202 34.0601ZM68.2675 27.7997L66.1517 25.6785L68.8789 22.944L70.9949 25.0654L68.2675 27.7997Z" fill="#FF9549"/>
<path d="M86.1582 62.7435L82.1202 61.6395C82.9101 60.828 83.4024 59.7225 83.4024 58.5V19.5C83.4024 13.7115 78.7031 9 72.9297 9H48.9923C43.2189 9 38.5196 13.7115 38.5196 19.5V58.5C38.5196 59.7225 39.0119 60.828 39.8018 61.6395L35.8641 62.7165L32.3124 59.1555L34.2737 58.5L30.351 57.189L26.9863 53.8155L25.6203 54.207L29.3845 46.6605L20.6593 51.0345L17.5744 41.757L14.4894 51.0345L5.76423 46.6605L10.1268 55.4085L0.875 58.5L10.1283 61.593L5.76572 70.341L14.4909 65.967L17.5744 75.243L20.6593 65.9655L28.5063 69.8985C28.2235 70.8525 28.047 71.8455 28.047 72.8745V102H86.3945V93C90.5193 93 93.875 89.6355 93.875 85.5V72.8745C93.875 68.1525 90.7018 63.9855 86.1582 62.7435ZM41.5118 19.5C41.5118 15.3645 44.8676 12 48.9923 12H72.9297C77.0545 12 80.4102 15.3645 80.4102 19.5V58.5C80.4102 59.328 79.7399 60 78.9141 60H43.0079C42.1821 60 41.5118 59.328 41.5118 58.5V19.5ZM66.133 63C65.0842 64.8075 63.1348 66 60.961 66C58.7872 66 56.8393 64.8075 55.7905 63H66.133ZM22.6925 63.6315L20.0564 62.3085L18.5109 62.94L17.5744 65.757L16.8607 63.615L16.5765 62.9145L15.0924 62.3085L12.4562 63.6315L13.7758 60.9885L13.1459 59.439L10.3363 58.5L12.4727 57.7845L13.1714 57.4995L13.7758 56.0115L12.4562 53.3685L15.0924 54.6915L16.6378 54.06L17.5744 51.243L18.288 53.385L18.5723 54.0855L20.0564 54.6915L22.6925 53.3685L21.7155 55.3245L15.6683 57.057L16.4897 59.943L23.2954 57.993L24.8125 58.5L22.676 59.2155L21.9774 59.5005L21.3729 60.9885L22.6925 63.6315ZM25.0219 61.593L29.1392 60.2175L32.9332 64.0215C31.0382 65.2288 29.5793 67.0137 28.7711 69.114L25.0219 61.593ZM38.5196 99H31.0392V85.5H38.5196V99ZM41.5118 99V76.5H38.5196V82.5H31.0392V72.8745C31.0392 70.026 32.6654 67.4775 35.1205 66.213L46.7796 77.9025C46.2978 78.744 46.0001 79.704 46.0001 80.742C46.0001 82.2765 46.5955 83.718 47.6772 84.8025L61.8377 99H41.5118ZM67.2027 99C66.4831 99 65.7769 98.7075 65.2682 98.1975L49.7927 82.6815C49.2816 82.1659 48.994 81.4689 48.9923 80.742C48.9923 80.55 49.0132 80.361 49.0506 80.1795L50.9267 82.0605L53.0422 79.9395L51.1661 78.0585C51.3507 78.02 51.5386 78.0004 51.7271 78C52.4468 78 53.1529 78.2925 53.6616 78.8025L57.52 82.671C56.8662 83.7105 56.4727 84.9315 56.4727 86.25C56.4727 89.9715 59.4933 93 63.2051 93H67.8221L69.1371 94.3185C69.6482 94.8341 69.9358 95.5311 69.9376 96.258C69.9376 97.77 68.7108 99 67.2027 99ZM83.4024 99H72.2026C72.6515 98.181 72.9297 97.2555 72.9297 96.258C72.9297 95.076 72.5677 93.9525 71.9109 93H83.4024V99ZM90.8828 85.5C90.8828 87.981 88.8691 90 86.3945 90H63.2051C61.142 90 59.4649 88.3185 59.4649 86.25C59.4649 84.1815 61.142 82.5 63.2051 82.5H90.8828V85.5ZM90.8828 79.5H83.4024V75H80.4102V79.5H63.2051C61.8901 79.5 60.6723 79.8945 59.6355 80.55L55.7771 76.6815C54.6954 75.597 53.2576 75 51.7271 75C50.6918 75 49.7343 75.2985 48.895 75.7815L38.3012 65.16L46.2006 63H52.5201C53.7723 66.534 57.134 69 60.961 69C64.7895 69 68.1497 66.5355 69.402 63H75.7214L85.3712 65.6385C88.6162 66.5265 90.8828 69.501 90.8828 72.8745V79.5Z" fill="#FF9549"/>
<path d="M48.9923 54C51.4668 54 53.4805 51.981 53.4805 49.5C53.4805 47.019 51.4668 45 48.9923 45C46.5177 45 44.504 47.019 44.504 49.5C44.504 51.981 46.5177 54 48.9923 54ZM48.9923 48C49.8181 48 50.4884 48.672 50.4884 49.5C50.4884 50.328 49.8181 51 48.9923 51C48.1664 51 47.4962 50.328 47.4962 49.5C47.4962 48.672 48.1664 48 48.9923 48ZM60.961 45C58.4865 45 56.4727 47.019 56.4727 49.5C56.4727 51.981 58.4865 54 60.961 54C63.4355 54 65.4493 51.981 65.4493 49.5C65.4493 47.019 63.4355 45 60.961 45ZM60.961 51C60.1352 51 59.4649 50.328 59.4649 49.5C59.4649 48.672 60.1352 48 60.961 48C61.7868 48 62.4571 48.672 62.4571 49.5C62.4571 50.328 61.7868 51 60.961 51ZM72.9297 45C70.4552 45 68.4415 47.019 68.4415 49.5C68.4415 51.981 70.4552 54 72.9297 54C75.4043 54 77.418 51.981 77.418 49.5C77.418 47.019 75.4043 45 72.9297 45ZM72.9297 51C72.1039 51 71.4336 50.328 71.4336 49.5C71.4336 48.672 72.1039 48 72.9297 48C73.7556 48 74.4258 48.672 74.4258 49.5C74.4258 50.328 73.7556 51 72.9297 51Z" fill="#FF9549"/>
</svg>
