<svg width="32" height="31" viewBox="0 0 32 31" fill="none" xmlns="http://www.w3.org/2000/svg">
<g clip-path="url(#clip0_1_1680)">
<mask id="mask0_1_1680" style="mask-type:luminance" maskUnits="userSpaceOnUse" x="0" y="0" width="32" height="32">
<path d="M31.5 0.00390625H0.5V31.0039H31.5V0.00390625Z" fill="white"/>
</mask>
<g mask="url(#mask0_1_1680)">
<path d="M30.5 15.5039C30.5 23.4766 23.9727 30.0039 16 30.0039C8.02728 30.0039 1.5 23.4766 1.5 15.5039C1.5 7.53119 8.02728 1.00391 16 1.00391C23.9727 1.00391 30.5 7.53119 30.5 15.5039Z" fill="url(#paint0_linear_1_1680)" stroke="white" stroke-width="2"/>
<path fill-rule="evenodd" clip-rule="evenodd" d="M8.34688 15.2133C12.5125 13.3727 15.3219 12.2102 16.6781 11.6289C20.65 9.98203 21.425 9.69141 22.0063 9.69141C22.1031 9.69141 22.3938 9.69141 22.5875 9.88516C22.6844 9.98203 22.7813 10.1758 22.7813 10.2727C22.7813 10.3695 22.7813 10.6602 22.7813 10.8539C22.5875 13.082 21.6188 18.6039 21.1344 21.1227C20.9406 22.1883 20.5531 22.5758 20.1656 22.5758C19.2938 22.6727 18.7125 21.9945 17.9375 21.5102C16.6781 20.6383 16 20.1539 14.7406 19.3789C13.2875 18.4102 14.2563 17.9258 15.0313 17.1508C15.225 16.957 18.9063 13.5664 19.0031 13.2758C19.0031 13.2758 19.0031 13.082 18.9063 12.9852C18.8094 12.8883 18.7125 12.8883 18.6156 12.9852C18.5188 12.9852 16.4844 14.3414 12.6094 16.957C12.0281 17.3445 11.5438 17.5383 11.0594 17.5383C10.575 17.5383 9.60625 17.2477 8.83125 17.0539C7.95938 16.7633 7.18438 16.5695 7.28125 16.0852C7.28125 15.7945 7.66875 15.5039 8.34688 15.2133Z" fill="white"/>
</g>
</g>
<defs>
<linearGradient id="paint0_linear_1_1680" x1="16" y1="0.00390625" x2="16" y2="30.774" gradientUnits="userSpaceOnUse">
<stop stop-color="#2AABEE"/>
<stop offset="1" stop-color="#229ED9"/>
</linearGradient>
<clipPath id="clip0_1_1680">
<rect width="31" height="31" fill="white" transform="translate(0.5 0.00390625)"/>
</clipPath>
</defs>
</svg>
