<svg width="47" height="48" viewBox="0 0 47 48" fill="none" xmlns="http://www.w3.org/2000/svg">
<mask id="mask0_2010_53" style="mask-type:luminance" maskUnits="userSpaceOnUse" x="8" y="9" width="30" height="31">
<path d="M37.949 9.89844H8.80899V39.0384H37.949V9.89844Z" fill="white"/>
</mask>
<g mask="url(#mask0_2010_53)">
<path d="M12.2644 31.5518L12.371 31.1691L12.1708 30.826C10.9789 28.7827 10.3865 26.5782 10.3865 24.2878C10.3865 17.1696 16.2369 11.3863 23.4702 11.3863C26.9531 11.3863 30.1681 12.7428 32.5376 15.197L32.5433 15.203L32.5492 15.2088C35.0166 17.6763 36.3717 20.8987 36.3717 24.3788C36.3717 31.5089 30.5092 37.3714 23.3791 37.3714C21.2689 37.3714 19.0552 36.7779 17.1817 35.756L16.8554 35.578L16.4956 35.6713L10.6986 37.1742L12.2644 31.5518Z" stroke="#42C553" stroke-width="1.88"/>
<path fill-rule="evenodd" clip-rule="evenodd" d="M19.8277 18.2781C19.5545 17.6406 19.2813 17.6406 19.0081 17.6406C18.826 17.6406 18.5528 17.6406 18.2796 17.6406C18.0064 17.6406 17.6422 17.7317 17.2779 18.0959C17.0047 18.4602 16.0941 19.3708 16.0941 21.101C16.0941 22.8312 17.369 24.5614 17.5511 24.8346C17.7332 25.1078 20.0098 28.8413 23.7434 30.2983C26.7484 31.4821 27.3859 31.3 28.1144 31.2089C28.8429 31.1179 30.2088 30.2983 30.5731 29.4788C30.8462 28.6592 30.8462 27.9307 30.7552 27.7486C30.6641 27.5664 30.3909 27.4754 30.0267 27.2933C29.6624 27.1111 27.9322 26.2005 27.568 26.1094C27.2037 26.0184 27.0216 25.9273 26.7484 26.2916C26.4752 26.6558 25.8378 27.4754 25.5646 27.7486C25.3825 28.0218 25.1093 28.0218 24.7451 27.8396C24.3808 27.6575 23.197 27.2933 21.8311 26.0184C20.7383 25.0167 20.0098 23.9239 19.8277 23.5597C19.6456 23.1954 19.8277 23.0133 20.0098 22.8312C20.1919 22.6491 20.3741 22.3759 20.5562 22.1938C20.7383 22.0116 20.8294 21.8295 20.9204 21.5563C21.0115 21.2831 21.0115 21.101 20.9204 20.9189C20.8294 20.8278 20.1009 19.0066 19.8277 18.2781Z" fill="#42C553"/>
</g>
<rect x="0.94" y="1.44" width="45.12" height="45.12" rx="8.46" stroke="#42C553" stroke-width="1.88"/>
</svg>
