<svg width="158" height="154" viewBox="0 0 158 154" fill="none" xmlns="http://www.w3.org/2000/svg">
<path d="M83.0907 66.783C81.8786 66.7218 80.7685 67.4721 80.3932 68.6245C80.3846 68.6508 80.3767 68.6771 80.369 68.7037L77.5703 78.493L74.667 68.6807C74.6591 68.6532 74.6505 68.626 74.6413 68.5991C74.254 67.4498 73.1329 66.7016 71.9235 66.7857C70.7104 66.8671 69.7031 67.7549 69.4689 68.9709L66.5288 85.212C66.3031 86.4582 67.1338 87.6509 68.3837 87.876C69.6329 88.1007 70.8297 87.273 71.0554 86.0265L72.5543 77.7463L75.0384 86.1415C75.0463 86.1687 75.0549 86.1956 75.0638 86.2225C75.4309 87.3125 76.4498 88.0426 77.6022 88.0426H77.6157C78.7735 88.0368 79.7916 87.2954 80.1488 86.1971C80.1574 86.1708 80.1657 86.1442 80.1731 86.1176L82.571 77.7308L84.1655 86.0498C84.4038 87.2938 85.6107 88.1102 86.856 87.8714C88.1034 87.6338 88.9215 86.4325 88.6829 85.1888L85.5635 68.9152C85.3212 67.7283 84.3041 66.8515 83.0907 66.783Z" fill="#D9D9D9" fill-opacity="0.5"/>
<path d="M141.152 66.7832C139.943 66.722 138.83 67.4723 138.455 68.6247C138.446 68.651 138.438 68.6773 138.431 68.7039L135.632 78.4935L132.728 68.6809C132.72 68.6534 132.712 68.6262 132.703 68.5993C132.315 67.45 131.194 66.7003 129.985 66.7859C128.772 66.8673 127.765 67.7551 127.53 68.9711L124.59 85.2122C124.365 86.4584 125.195 87.6511 126.445 87.8762C127.693 88.1009 128.891 87.2732 129.117 86.0267L130.616 77.7469L133.1 86.1417C133.108 86.1695 133.117 86.197 133.126 86.2242C133.494 87.3136 134.512 88.0431 135.664 88.0428H135.678C136.835 88.0367 137.853 87.2956 138.211 86.1982C138.219 86.1716 138.227 86.1447 138.235 86.1178L140.633 77.7313L142.227 86.05C142.466 87.294 143.673 88.1104 144.918 87.8716C146.165 87.634 146.983 86.4328 146.745 85.189L143.625 68.9154C143.383 67.7285 142.366 66.8517 141.152 66.7832Z" fill="#D9D9D9" fill-opacity="0.5"/>
<path d="M93.7262 69.0704V85.7485C93.7262 87.0152 94.7556 88.0415 96.026 88.0415C97.2964 88.0415 98.3258 87.0152 98.3258 85.7485V69.0704C98.3258 67.8037 97.2964 66.7773 96.026 66.7773C94.7556 66.7773 93.7262 67.8037 93.7262 69.0704Z" fill="#D9D9D9" fill-opacity="0.5"/>
<path d="M59.19 71.3635C60.4601 71.3635 61.4898 70.3371 61.4898 69.0704C61.4898 67.8037 60.4601 66.7773 59.19 66.7773H52.1422C50.8721 66.7773 49.8424 67.8037 49.8424 69.0704V85.7485C49.8424 87.0152 50.8721 88.0415 52.1422 88.0415H59.19C60.4601 88.0415 61.4898 87.0152 61.4898 85.7485C61.4898 84.4818 60.4601 83.4554 59.19 83.4554H54.442V79.7024H58.6706C59.9407 79.7024 60.9704 78.676 60.9704 77.4093C60.9704 76.1426 59.9407 75.1162 58.6706 75.1162H54.442V71.3635H59.19Z" fill="#D9D9D9" fill-opacity="0.5"/>
<path d="M105.629 66.7773C104.358 66.7773 103.329 67.8037 103.329 69.0704V80.5465C103.329 83.1389 104.569 85.2434 107.015 86.8015C108.302 87.6221 109.755 88.0391 111.333 88.0415H111.346C112.703 88.0415 113.977 87.7468 115.134 87.1662C118.785 85.3327 119.552 82.5479 119.552 80.5349V69.0707C119.552 67.804 118.522 66.7777 117.252 66.7777C115.981 66.7777 114.952 67.804 114.952 69.0707V80.5349C114.952 81.3198 114.728 82.2355 113.065 83.0705C112.548 83.3297 111.986 83.4557 111.346 83.4557C111.344 83.4557 111.342 83.4557 111.34 83.4557C110.642 83.4548 110.038 83.2851 109.492 82.9371C108.191 82.1083 107.929 81.4081 107.929 80.5471V69.071C107.928 67.8037 106.899 66.7773 105.629 66.7773Z" fill="#D9D9D9" fill-opacity="0.5"/>
<path d="M44.8383 73.405C44.8383 69.7507 41.7461 66.7773 37.9453 66.7773H33.5003C32.2308 66.7773 31.2011 67.8031 31.2005 69.0689L31.1949 85.7485C31.1949 87.0152 32.2246 88.0415 33.4947 88.0415C34.7648 88.0415 35.7945 87.0152 35.7945 85.7485V81.5796L40.8118 87.2634C41.2662 87.7786 41.901 88.0415 42.5391 88.0415C43.0788 88.0415 43.6206 87.8532 44.0576 87.4698C45.0109 86.6333 45.1038 85.1841 44.2646 84.2335L40.2258 79.658C42.9089 78.7506 44.8383 76.2909 44.8383 73.405ZM37.9453 75.4464C37.4412 75.4464 36.6078 75.4498 35.7964 75.4531L35.7988 71.3635H37.9453C39.1884 71.3635 40.2387 72.2985 40.2387 73.405C40.2387 74.5114 39.1884 75.4464 37.9453 75.4464Z" fill="#D9D9D9" fill-opacity="0.5"/>
<path d="M14.4225 66.7776C13.1524 66.7776 12.1227 67.804 12.1227 69.0707V85.7488C12.1227 87.0155 13.1524 88.0419 14.4225 88.0419C15.6926 88.0419 16.7223 87.0155 16.7223 85.7488V80.785C17.6036 80.7807 18.5299 80.7768 19.08 80.7768C23.002 80.7768 26.1925 77.6368 26.1925 73.7771C26.1925 69.9173 23.002 66.7773 19.08 66.7773L14.4225 66.7776ZM21.5929 73.7771C21.5929 75.085 20.4421 76.1906 19.08 76.1906C18.5296 76.1906 17.6045 76.1946 16.7223 76.1985V71.3638H19.08C20.4421 71.3638 21.5929 72.4691 21.5929 73.7771Z" fill="#D9D9D9" fill-opacity="0.5"/>
<path d="M3.25451 59.9372H155.655C156.925 59.9372 157.954 58.9108 157.954 57.6441C157.954 56.3774 156.925 55.351 155.655 55.351H148.77C148.854 55.1168 148.939 54.8823 149.025 54.6432C150.411 50.8116 151.843 46.8492 150.195 43.4395C148.515 39.9705 144.468 38.6094 140.554 37.2928C137.878 36.3933 135.112 35.4629 133.985 34.0565C132.845 32.6321 132.546 29.722 132.257 26.9079C131.838 22.8253 131.404 18.6042 128.404 16.2154C126.252 14.502 123.475 14.3819 121.574 14.4403C120.305 14.4791 119.307 15.537 119.347 16.8031C119.386 18.0692 120.442 19.0772 121.716 19.0243C123.56 18.9677 124.808 19.2212 125.534 19.7991C127.025 20.9869 127.359 24.2345 127.681 27.3754C128.038 30.848 128.407 34.4393 130.391 36.918C132.362 39.3777 135.779 40.527 139.084 41.6384C142.098 42.6516 145.214 43.6997 146.052 45.4311C146.861 47.1051 145.762 50.1463 144.699 53.0876C144.43 53.8311 144.156 54.5894 143.902 55.3504H129.655C125.527 46.0182 118.904 38.0544 110.415 32.256C101.278 26.0148 90.5718 22.7159 79.4545 22.7159C69.2269 22.7159 59.2485 25.5425 50.5991 30.8899C49.5194 31.5574 49.187 32.9708 49.8564 34.047C50.5258 35.1236 51.9434 35.4547 53.0228 34.7876C60.9439 29.8905 70.0839 27.302 79.4545 27.302C89.6399 27.302 99.4468 30.3234 107.816 36.0396C115.029 40.9666 120.776 47.5964 124.589 55.3507H34.3236C36.9527 50.0289 40.5582 45.1355 44.8778 41.0516C45.7996 40.1803 45.8382 38.7289 44.9646 37.8098C44.0904 36.8905 42.6347 36.8526 41.7133 37.7236C36.4578 42.6917 32.1716 48.7607 29.2493 55.3504H15.0071C14.7535 54.5891 14.4797 53.8308 14.2108 53.0876C13.1476 50.1463 12.0483 47.1051 12.8569 45.432C13.6959 43.6976 16.8126 42.6498 19.8269 41.6365C23.1309 40.5258 26.5475 39.3771 28.5192 36.9165C30.5019 34.439 30.8711 30.8477 31.2277 27.3748C31.5506 24.2342 31.8843 20.986 33.3751 19.7991C34.8519 18.6229 38.09 19.0167 41.2208 19.3973C44.7064 19.8211 48.3103 20.2589 51.1882 18.8736C54.0095 17.5158 55.8843 14.4669 57.6972 11.5183C59.3681 8.80052 61.096 5.99073 63.0064 5.5581C64.7895 5.15636 67.4971 6.88901 70.1164 8.56601C73.1043 10.4794 76.1937 12.4578 79.4539 12.4578C82.7141 12.4578 85.8038 10.4794 88.7914 8.56601C91.4107 6.88901 94.1199 5.15574 95.9018 5.5581C97.8121 5.99073 99.5401 8.80083 101.211 11.5183C103.024 14.4669 104.899 17.5155 107.722 18.8745C108.57 19.2817 109.549 19.5578 110.632 19.6951C111.889 19.8547 113.042 18.9653 113.203 17.709C113.362 16.4527 112.471 15.3049 111.211 15.1453C110.621 15.0707 110.119 14.935 109.72 14.7439C108.114 13.9713 106.598 11.5057 105.132 9.12155C102.963 5.59418 100.72 1.94635 96.9204 1.08629C93.2576 0.254664 89.7233 2.51931 86.3061 4.70752C83.8766 6.26315 81.3643 7.87198 79.4539 7.87198C77.5435 7.87198 75.0316 6.26315 72.6017 4.70752C69.1852 2.51931 65.6521 0.255887 61.9883 1.08629C58.1881 1.94635 55.9454 5.59418 53.7765 9.12155C52.3105 11.5057 50.7947 13.971 49.1895 14.7439C47.5275 15.5434 44.6046 15.1887 41.7783 14.8451C37.7043 14.3498 33.4923 13.8383 30.5059 16.2154C27.506 18.6039 27.0722 22.8253 26.6527 26.9076C26.3635 29.7217 26.0645 32.6321 24.9254 34.0553C23.7979 35.4623 21.0326 36.3921 18.3581 37.291C14.4429 38.6072 10.3943 39.9684 8.71454 43.4401C7.06697 46.8486 8.49897 50.8107 9.88407 54.6429C9.97054 54.882 10.0549 55.1165 10.1389 55.3507H3.25451C1.98441 55.3507 0.954712 56.3771 0.954712 57.6438C0.954712 58.9105 1.98441 59.9372 3.25451 59.9372Z" fill="#D9D9D9" fill-opacity="0.5"/>
<path d="M155.655 94.8828H3.25451C1.98441 94.8828 0.954712 95.9092 0.954712 97.1759C0.954712 98.4426 1.98441 99.469 3.25451 99.469H10.1386C10.0552 99.7013 9.97146 99.934 9.88591 100.171C8.49959 104.006 7.06605 107.971 8.71546 111.38C10.3943 114.85 14.4417 116.211 18.3556 117.527C21.031 118.426 23.7979 119.357 24.9254 120.765C26.0651 122.188 26.3641 125.098 26.6533 127.911C27.0725 131.994 27.506 136.215 30.5068 138.604C33.4923 140.98 37.7046 140.469 41.7777 139.975C44.6046 139.631 47.5272 139.277 49.1904 140.076C50.7953 140.848 52.3111 143.314 53.7771 145.698C55.946 149.225 58.1887 152.873 61.9886 153.734C62.5194 153.854 63.0475 153.91 63.573 153.91C66.6732 153.91 69.6804 151.984 72.6024 150.112C75.0322 148.556 77.5445 146.946 79.4548 146.946C81.3652 146.946 83.8775 148.556 86.3073 150.112C89.7245 152.301 93.2588 154.564 96.921 153.734C100.721 152.873 102.964 149.225 105.133 145.698C106.598 143.314 108.114 140.848 109.719 140.076C111.382 139.276 114.305 139.632 117.132 139.975C121.205 140.47 125.417 140.981 128.403 138.604C131.403 136.215 131.837 131.994 132.256 127.911C132.545 125.098 132.844 122.189 133.984 120.765C135.112 119.357 137.878 118.427 140.554 117.527C144.468 116.211 148.515 114.85 150.194 111.38C151.843 107.971 150.41 104.006 149.023 100.171C148.938 99.934 148.854 99.7016 148.771 99.469H155.655C156.925 99.469 157.955 98.4426 157.955 97.1759C157.955 95.9092 156.925 94.8828 155.655 94.8828ZM144.696 101.727C145.76 104.67 146.861 107.714 146.051 109.388C145.213 111.121 142.097 112.169 139.083 113.182C135.778 114.293 132.361 115.443 130.39 117.904C128.406 120.38 128.037 123.971 127.68 127.444C127.358 130.585 127.024 133.833 125.532 135.02C124.056 136.196 120.819 135.803 117.688 135.422C114.202 134.999 110.598 134.561 107.72 135.946C104.899 137.303 103.024 140.352 101.211 143.3C99.5398 146.019 97.8115 148.829 95.9009 149.262C94.1223 149.667 91.4119 147.931 88.7923 146.253C85.8041 144.339 82.7144 142.361 79.4542 142.361C76.194 142.361 73.1043 144.34 70.1158 146.253C67.4968 147.931 64.7901 149.668 63.0073 149.262C61.0969 148.829 59.3687 146.019 57.6978 143.301C55.8847 140.352 54.0099 137.303 51.1882 135.945C49.7141 135.236 48.0506 135.005 46.3095 135.005C44.6506 135.005 42.9211 135.216 41.2208 135.422C38.09 135.802 34.8525 136.196 33.3761 135.02C31.8846 133.832 31.5506 130.585 31.2283 127.444C30.8714 123.971 30.5025 120.38 28.5192 117.904C26.5481 115.442 23.1303 114.293 19.825 113.182C16.812 112.168 13.6962 111.121 12.8576 109.388C12.0477 107.714 13.1482 104.67 14.2123 101.727C14.4806 100.985 14.7541 100.228 15.0068 99.469H29.2536C33.3816 108.801 40.0044 116.765 48.4934 122.563C57.6313 128.805 68.3373 132.104 79.4545 132.104C87.4633 132.104 95.1796 130.422 102.389 127.105C103.542 126.575 104.046 125.213 103.513 124.062C102.981 122.913 101.615 122.41 100.462 122.941C93.8614 125.978 86.7933 127.518 79.4545 127.518C69.2692 127.518 59.4622 124.497 51.0934 118.78C43.88 113.853 38.133 107.224 34.3193 99.4693H124.588C121.047 106.659 115.818 112.917 109.318 117.71C108.297 118.463 108.081 119.899 108.836 120.917C109.592 121.935 111.031 122.15 112.053 121.397C119.748 115.723 125.806 108.164 129.656 99.469H143.901C144.154 100.228 144.428 100.985 144.696 101.727Z" fill="#D9D9D9" fill-opacity="0.5"/>
</svg>
