<svg width="151" height="154" viewBox="0 0 151 154" fill="none" xmlns="http://www.w3.org/2000/svg">
<path d="M143.614 139.137C139.613 139.137 136.356 142.406 136.356 146.422C136.356 150.439 139.613 153.708 143.614 153.708C147.615 153.708 150.872 150.439 150.872 146.422C150.872 142.406 147.615 139.137 143.614 139.137ZM143.614 148.851C142.282 148.851 141.195 147.762 141.195 146.422C141.195 145.082 142.282 143.994 143.614 143.994C144.947 143.994 146.033 145.082 146.033 146.422C146.033 147.762 144.947 148.851 143.614 148.851Z" fill="#D9D9D9" fill-opacity="0.5"/>
<path d="M15.3888 7.99274C15.3888 3.97635 12.1319 0.707031 8.13074 0.707031C4.12959 0.707031 0.872681 3.97635 0.872681 7.99274C0.872681 12.0091 4.12959 15.2784 8.13074 15.2784C12.1319 15.2784 15.3888 12.0091 15.3888 7.99274ZM5.71139 7.99274C5.71139 6.65513 6.79821 5.56417 8.13074 5.56417C9.46328 5.56417 10.5501 6.65513 10.5501 7.99274C10.5501 9.33035 9.46328 10.4213 8.13074 10.4213C6.79821 10.4213 5.71139 9.33035 5.71139 7.99274Z" fill="#D9D9D9" fill-opacity="0.5"/>
<path d="M130.843 96.9497L126.065 87.3576C127.079 85.293 127.947 83.2072 128.66 81.1308L138.776 77.7453V49.9566L128.66 46.5711C127.949 44.4947 127.079 42.4089 126.065 40.3443L130.848 30.7427L111.275 11.0948L101.71 15.8962C99.6529 14.8788 97.5749 14.0048 95.5064 13.2909L92.1337 3.13672H64.4506L61.0779 13.2909C59.0094 14.0048 56.9314 14.8788 54.8747 15.8962L45.3096 11.0948L25.7362 30.7427L30.5194 40.3443C29.5058 42.4089 28.6352 44.4947 27.924 46.5711L17.8083 49.9566V77.7429L27.924 81.1272C28.6304 83.1894 29.4893 85.2563 30.4934 87.3042L27.3818 92.9938H12.9696V141.565H29.9051V134.279H48.2581L55.5162 141.565H68.6147V143.994C68.6147 149.351 72.9549 153.708 78.2922 153.708C83.6294 153.708 87.9696 149.351 87.9696 143.994V141.565H104.907C108.909 141.565 112.165 138.296 112.165 134.279C112.165 132.407 111.438 130.715 110.279 129.422C111.44 128.13 112.165 126.438 112.165 124.565C112.165 122.693 111.438 121.001 110.279 119.708C111.203 118.679 111.834 117.393 112.054 115.961L130.843 96.9497ZM35.3758 86.2275C34.0444 83.6613 32.9588 81.0525 32.1472 78.4781L31.7751 77.2982L22.647 74.2423V53.4572L31.7751 50.4037L32.1449 49.2214C32.9529 46.6494 34.0397 44.0406 35.3723 41.4744L35.9417 40.374L31.6227 31.7021L46.2629 17.0061L54.9019 21.3415L55.9982 20.7711C58.5569 19.4323 61.1535 18.3425 63.7158 17.5303L64.8936 17.1591L67.9402 7.99386H88.6465L91.6884 17.1567L92.8662 17.5279C95.4285 18.339 98.0274 19.43 100.584 20.7676L101.68 21.3391L110.319 17.0038L124.959 31.6997L120.64 40.3716L121.209 41.4721C122.542 44.0406 123.628 46.647 124.437 49.2191L124.807 50.4013L133.937 53.4596V74.2447L124.809 77.2982L124.437 78.4781C123.626 81.0525 122.54 83.6613 121.209 86.2275L120.64 87.3279L124.964 96.0058L110.668 110.467C110.545 110.304 110.414 110.144 110.279 109.994C111.44 108.701 112.165 107.009 112.165 105.137C112.165 101.348 109.259 98.2636 105.575 97.9185C115.838 89.6616 121.841 77.2709 121.841 63.8509C121.841 39.7479 102.304 20.1367 78.2922 20.1367C54.2805 20.1367 34.7438 39.7479 34.7438 63.8509C34.7438 77.1085 40.7485 89.5798 50.9409 97.8509H30.2465L35.9724 87.3789L35.3758 86.2275ZM107.327 124.565C107.327 125.905 106.24 126.994 104.907 126.994H85.5502C84.2177 126.994 83.1309 125.905 83.1309 124.565C83.1309 123.225 84.2177 122.137 85.5502 122.137H104.907C106.24 122.137 107.327 123.225 107.327 124.565ZM72.4517 63.8509H84.1326L87.9696 59.9994V49.2795C90.6382 49.2795 92.8083 51.4579 92.8083 54.1367V65.2739L84.5485 73.5652H72.0359L63.776 65.2739V54.1367C63.776 51.4579 65.9461 49.2795 68.6147 49.2795V59.9994L72.4517 63.8509ZM73.4534 78.4224H83.1309V88.1366H73.4534V78.4224ZM87.9696 76.9994L97.647 67.2851V54.1367C97.647 48.7791 93.3068 44.4224 87.9696 44.4224H83.1309V57.9882L82.1291 58.9938H74.4552L73.4534 57.9882V44.4224H68.6147C63.2775 44.4224 58.9373 48.7791 58.9373 54.1367V67.2851L68.6147 76.9994V88.1366H62.7743L62.6219 88.2896C54.3621 82.9392 49.2599 73.7668 49.2599 63.8509C49.2599 47.7806 62.2828 34.7081 78.2922 34.7081C94.3015 34.7081 107.324 47.7806 107.324 63.8509C107.324 73.6945 102.425 82.7091 94.2259 88.1366H87.9696V76.9994ZM112.163 63.8509C112.163 45.1019 96.9701 29.851 78.2922 29.851C59.6142 29.851 44.4212 45.1019 44.4212 63.8509C44.4212 75.0688 49.9805 85.5136 59.0992 91.8257L55.6154 95.3227C45.5683 88.0181 39.5825 76.327 39.5825 63.8509C39.5825 42.4267 56.9492 24.9938 78.2922 24.9938C99.6352 24.9938 117.002 42.4267 117.002 63.8509C117.002 75.8527 111.597 86.9271 102.37 94.2685C102.093 92.5467 101.218 91.0407 99.96 89.9462C107.671 83.5202 112.163 74.0585 112.163 63.8509ZM104.907 102.708C106.24 102.708 107.327 103.797 107.327 105.137C107.327 106.477 106.24 107.565 104.907 107.565H85.5502C84.2177 107.565 83.1309 106.477 83.1309 105.137C83.1309 103.797 84.2177 102.708 85.5502 102.708H104.907ZM85.5502 117.279C84.2177 117.279 83.1309 116.191 83.1309 114.851C83.1309 113.511 84.2177 112.422 85.5502 112.422H104.907C106.24 112.422 107.327 113.511 107.327 114.851C107.327 116.191 106.24 117.279 104.907 117.279H85.5502ZM25.0664 136.708H17.8083V97.8509H25.0664V136.708ZM57.5197 136.708L50.2617 129.422H29.9051V102.708H55.1004L64.7778 92.9938H95.2276C96.5602 92.9938 97.647 94.0824 97.647 95.4223C97.647 96.7623 96.5602 97.8509 95.2276 97.8509H70.0323L59.6461 108.277L63.0672 111.711L68.6147 106.142V136.708H57.5197ZM78.2922 148.851C75.6235 148.851 73.4534 146.673 73.4534 143.994V102.708H78.7375C78.4658 103.471 78.2922 104.282 78.2922 105.137C78.2922 107.009 79.0199 108.701 80.1787 109.994C79.0175 111.286 78.2922 112.978 78.2922 114.851C78.2922 116.723 79.0199 118.415 80.1787 119.708C79.0175 121.001 78.2922 122.693 78.2922 124.565C78.2922 126.438 79.0199 128.13 80.1787 129.422C79.0175 130.715 78.2922 132.407 78.2922 134.279C78.2922 137.441 80.3217 140.113 83.1309 141.118V143.994C83.1309 146.673 80.9608 148.851 78.2922 148.851ZM104.907 136.708H85.5502C84.2177 136.708 83.1309 135.619 83.1309 134.279C83.1309 132.939 84.2177 131.851 85.5502 131.851H104.907C106.24 131.851 107.327 132.939 107.327 134.279C107.327 135.619 106.24 136.708 104.907 136.708Z" fill="#D9D9D9" fill-opacity="0.5"/>
<path d="M5.71155 22.5645H10.5503V27.4216H5.71155V22.5645Z" fill="#D9D9D9" fill-opacity="0.5"/>
<path d="M5.71155 34.707H10.5503V39.5642H5.71155V34.707Z" fill="#D9D9D9" fill-opacity="0.5"/>
<path d="M5.71155 46.8496H10.5503V51.7067H5.71155V46.8496Z" fill="#D9D9D9" fill-opacity="0.5"/>
<path d="M141.195 102.707H146.034V107.564H141.195V102.707Z" fill="#D9D9D9" fill-opacity="0.5"/>
<path d="M141.195 114.85H146.034V119.707H141.195V114.85Z" fill="#D9D9D9" fill-opacity="0.5"/>
<path d="M141.195 126.992H146.034V131.849H141.195V126.992Z" fill="#D9D9D9" fill-opacity="0.5"/>
</svg>
