<svg width="44" height="44" viewBox="0 0 44 44" fill="none" xmlns="http://www.w3.org/2000/svg">
<g clip-path="url(#clip0_1_1243)">
<path d="M8.4724 33.8756C7.87041 33.8756 7.2917 34.0259 6.77828 34.308C4.07372 30.841 2.58923 26.5342 2.58923 22.1221C2.58923 11.1929 11.4804 2.30176 22.4095 2.30176C23.7382 2.30176 25.0662 2.43397 26.3568 2.69478C26.8109 2.78664 27.2544 2.49269 27.3463 2.03799C27.4381 1.5833 27.1442 1.14041 26.6895 1.04823C25.2896 0.765434 23.8497 0.62207 22.4095 0.62207C16.6668 0.62207 11.2675 2.85848 7.20673 6.91926C3.14596 10.98 0.909546 16.3793 0.909546 22.1221C0.909546 26.9528 2.54987 31.6671 5.53623 35.4464C5.15174 36.0208 4.94506 36.696 4.94506 37.403C4.94506 38.3452 5.31216 39.2309 5.97846 39.8969C6.64443 40.5632 7.5302 40.9303 8.4724 40.9303C9.4146 40.9303 10.3004 40.5632 10.9667 39.8969C11.633 39.2309 11.9997 38.3448 11.9997 37.4026C11.9997 36.4608 11.633 35.5747 10.9667 34.9087C10.3004 34.2424 9.4146 33.8756 8.4724 33.8756ZM9.77876 38.7093C9.43002 39.0584 8.96581 39.2506 8.4724 39.2506C7.979 39.2506 7.51511 39.0584 7.16605 38.7093C6.81699 38.3603 6.62475 37.8964 6.62475 37.403C6.62475 36.9092 6.81699 36.4453 7.16605 36.0963C7.51479 35.7472 7.979 35.5553 8.4724 35.5553C8.96581 35.5553 9.4297 35.7476 9.77876 36.0963C10.1278 36.4453 10.3201 36.9092 10.3201 37.403C10.3201 37.8964 10.1278 38.3603 9.77876 38.7093Z" fill="#FF9549"/>
<path d="M39.2826 8.79641C40.1956 7.42674 40.0489 5.55415 38.8413 4.34655C38.175 3.68058 37.2893 3.31348 36.3471 3.31348C35.4049 3.31348 34.5191 3.68058 33.8528 4.34655C33.1865 5.01285 32.8197 5.89862 32.8197 6.84082C32.8197 7.78302 33.1865 8.66879 33.8528 9.33509C34.5191 10.0014 35.4049 10.3682 36.3471 10.3682C36.9491 10.3682 37.5278 10.2179 38.0412 9.93578C40.7457 13.4031 42.2302 17.7096 42.2302 22.1217C42.2302 33.0508 33.339 41.942 22.4099 41.942C21.0944 41.942 19.7788 41.8124 18.5004 41.5566C18.0457 41.4657 17.6031 41.7606 17.5119 42.2153C17.4211 42.6703 17.716 43.1126 18.1707 43.2038C19.5574 43.481 20.9838 43.6217 22.4099 43.6217C28.1527 43.6217 33.552 41.3853 37.6127 37.3245C41.6735 33.2638 43.9099 27.8645 43.9099 22.1217C43.9099 17.2906 42.2693 12.576 39.2826 8.79641ZM35.0407 8.1475C34.6917 7.79844 34.4994 7.33456 34.4994 6.84082C34.4994 6.34741 34.6917 5.88353 35.0407 5.53447C35.3894 5.18541 35.8537 4.99316 36.3471 4.99316C36.8405 4.99316 37.3047 5.18541 37.6537 5.53447C38.3738 6.2549 38.3738 7.42707 37.6537 8.1475C37.3047 8.49623 36.8405 8.68848 36.3471 8.68848C35.8533 8.68848 35.3894 8.49623 35.0407 8.1475Z" fill="#FF9549"/>
<path d="M18.9442 36.5674C18.9442 37.0313 19.3205 37.4072 19.7841 37.4072H25.0354C25.4993 37.4072 25.8752 37.0313 25.8752 36.5674V34.9392C26.9795 34.642 28.0352 34.2043 29.0273 33.6329L30.1768 34.7824C30.3343 34.9399 30.5478 35.0284 30.7709 35.0284C30.9933 35.0284 31.2072 34.9399 31.3647 34.7821L35.0764 31.0677C35.4042 30.7397 35.4042 30.2079 35.0764 29.8801L33.9282 28.7319C34.4997 27.7398 34.9373 26.6841 35.2346 25.5799H36.8565C37.3204 25.5799 37.6964 25.2039 37.6964 24.74V19.4887C37.6964 19.0248 37.3204 18.6489 36.8565 18.6489H35.2342C34.937 17.5449 34.4997 16.4892 33.9282 15.4971L35.0702 14.3552C35.2277 14.1977 35.3162 13.9838 35.3162 13.761C35.3159 13.5383 35.2273 13.3244 35.0699 13.1669L31.3552 9.45519C31.0275 9.12746 30.4957 9.12746 30.1676 9.45552L29.0273 10.5962C28.0352 10.0247 26.9795 9.58707 25.8752 9.28985V7.67676C25.8752 7.21288 25.4993 6.83691 25.0354 6.83691H19.7841C19.3205 6.83691 18.9442 7.21288 18.9442 7.67676V9.29018C17.8403 9.58707 16.7846 10.0247 15.7925 10.5962L14.6518 9.45552C14.3241 9.12778 13.7923 9.12746 13.4642 9.45519L9.74989 13.1672C9.5921 13.3247 9.50352 13.5383 9.50352 13.761C9.50352 13.9838 9.5921 14.1977 9.74957 14.3552L10.8916 15.4971C10.3201 16.4892 9.88243 17.5446 9.58521 18.6489H7.96621C7.50233 18.6489 7.12637 19.0248 7.12637 19.4884L7.12341 24.7397C7.12309 24.9624 7.21166 25.1763 7.36913 25.3338C7.5266 25.4913 7.74017 25.5799 7.96326 25.5799H9.58521C9.88243 26.6841 10.3201 27.7398 10.8916 28.7319L9.74333 29.8801C9.4156 30.2079 9.41527 30.7397 9.74333 31.0677L13.455 34.7821C13.6125 34.9395 13.8261 35.0284 14.0488 35.0284H14.0492C14.2719 35.0284 14.4855 34.9399 14.643 34.7824L15.7922 33.6329C16.7846 34.2043 17.8403 34.642 18.9442 34.9392V36.5674ZM16.1216 31.8666C15.7892 31.6517 15.3519 31.6983 15.0717 31.9781L14.0492 33.0007L11.5247 30.4743L12.5463 29.4523C12.8261 29.1725 12.8727 28.7352 12.6579 28.4029C11.8964 27.2244 11.361 25.9329 11.0671 24.5635C10.9837 24.1767 10.6419 23.9002 10.2459 23.9002H8.80343L8.8054 20.3285H10.2459C10.6419 20.3285 10.9837 20.0523 11.0671 19.6652C11.361 18.2962 11.8964 17.0046 12.6579 15.8262C12.8727 15.4939 12.8261 15.0566 12.5463 14.7767L11.5313 13.7614L14.0577 11.2369L15.0717 12.2513C15.3519 12.5311 15.7889 12.5774 16.1216 12.3628C17.2996 11.6014 18.5912 11.066 19.9606 10.772C20.3473 10.6887 20.6239 10.3465 20.6239 9.9509V8.5166H24.1955V9.95057C24.1955 10.3465 24.4718 10.6887 24.8589 10.7717C26.2279 11.066 27.5198 11.6011 28.6979 12.3625C29.0302 12.5774 29.4675 12.5311 29.7474 12.251L30.7617 11.2369L33.2882 13.7614L32.2731 14.7764C31.993 15.0566 31.9467 15.4939 32.1616 15.8262C32.923 17.0046 33.4581 18.2962 33.7524 19.6652C33.8354 20.0523 34.1775 20.3285 34.5735 20.3285H36.0167V23.9002H34.5735C34.1775 23.9002 33.8357 24.1767 33.7524 24.5635C33.4584 25.9325 32.923 27.2244 32.1616 28.4025C31.9467 28.7352 31.9933 29.1725 32.2731 29.4523L33.2947 30.4739L30.7703 33.0003L29.7477 31.9781C29.4675 31.6979 29.0302 31.6517 28.6979 31.8666C27.5195 32.628 26.2279 33.1631 24.8589 33.4573C24.4718 33.5407 24.1955 33.8825 24.1955 34.2785V35.7275H20.6239V34.2785C20.6239 33.8828 20.3473 33.5407 19.9606 33.4573C18.5915 33.1634 17.3 32.628 16.1216 31.8666Z" fill="#FF9549"/>
<path d="M29.349 22.1222C29.349 18.2956 26.236 15.1826 22.4095 15.1826C18.583 15.1826 15.47 18.2956 15.47 22.1222C15.47 25.9487 18.583 29.0617 22.4095 29.0617C26.236 29.0617 29.349 25.9487 29.349 22.1222ZM17.1497 22.1222C17.1497 19.2217 19.5091 16.8623 22.4095 16.8623C25.3099 16.8623 27.6694 19.2221 27.6694 22.1222C27.6694 25.0222 25.3099 27.382 22.4095 27.382C19.5091 27.382 17.1497 25.0226 17.1497 22.1222Z" fill="#FF9549"/>
<path d="M30.1429 3.79884C30.3641 3.79884 30.5806 3.70895 30.7367 3.55279C30.8929 3.39565 30.9828 3.17912 30.9828 2.95801C30.9828 2.7382 30.8932 2.52135 30.7367 2.36421C30.5806 2.20805 30.3641 2.11816 30.1429 2.11816C29.9212 2.11816 29.7056 2.20805 29.5495 2.36421C29.393 2.52135 29.3031 2.73722 29.3031 2.95801C29.3031 3.17978 29.393 3.39565 29.5495 3.55279C29.7056 3.70895 29.9212 3.79884 30.1429 3.79884Z" fill="#FF9549"/>
<path d="M14.7131 40.46C14.4923 40.46 14.2755 40.5499 14.1193 40.706C13.9632 40.8622 13.8733 41.079 13.8733 41.2998C13.8733 41.5216 13.9632 41.7374 14.1193 41.8936C14.2755 42.0498 14.4923 42.1396 14.7131 42.1396C14.9339 42.1396 15.1508 42.0498 15.3069 41.8936C15.4631 41.7374 15.553 41.5206 15.553 41.2998C15.553 41.079 15.4631 40.8622 15.3069 40.706C15.1508 40.5499 14.9339 40.46 14.7131 40.46Z" fill="#FF9549"/>
</g>
<defs>
<clipPath id="clip0_1_1243">
<rect width="43" height="43" fill="white" transform="translate(0.909546 0.62207)"/>
</clipPath>
</defs>
</svg>
