<svg width="44" height="43" viewBox="0 0 44 43" fill="none" xmlns="http://www.w3.org/2000/svg">
<g clip-path="url(#clip0_1_1268)">
<path d="M41.1605 38.9043C40.0317 38.9043 39.1129 39.8231 39.1129 40.9519C39.1129 42.0807 40.0317 42.9995 41.1605 42.9995C42.2893 42.9995 43.2082 42.0807 43.2082 40.9519C43.2082 39.8231 42.2893 38.9043 41.1605 38.9043ZM41.1605 41.6345C40.7846 41.6345 40.478 41.3285 40.478 40.9519C40.478 40.5753 40.7846 40.2694 41.1605 40.2694C41.5365 40.2694 41.8431 40.5753 41.8431 40.9519C41.8431 41.3285 41.5365 41.6345 41.1605 41.6345Z" fill="#FF9549"/>
<path d="M4.9855 2.04762C4.9855 0.918829 4.06667 0 2.93788 0C1.80909 0 0.890259 0.918829 0.890259 2.04762C0.890259 3.17641 1.80909 4.09524 2.93788 4.09524C4.06667 4.09524 4.9855 3.17641 4.9855 2.04762ZM2.25534 2.04762C2.25534 1.67169 2.56195 1.36508 2.93788 1.36508C3.31381 1.36508 3.62042 1.67169 3.62042 2.04762C3.62042 2.42355 3.31381 2.73016 2.93788 2.73016C2.56195 2.73016 2.25534 2.42355 2.25534 2.04762Z" fill="#FF9549"/>
<path d="M37.5576 27.0474L36.2095 24.3516C36.4954 23.7713 36.7404 23.1851 36.9417 22.6016L39.7955 21.6501V13.8402L36.9417 12.8887C36.741 12.3051 36.4954 11.7189 36.2095 11.1387L37.5589 8.4402L32.0369 2.91822L29.3384 4.26764C28.7582 3.98169 28.172 3.73607 27.5884 3.53544L26.6369 0.681641H18.827L17.8755 3.53544C17.292 3.73607 16.7058 3.98169 16.1255 4.26764L13.427 2.91822L7.90507 8.4402L9.25448 11.1387C8.96854 11.7189 8.72292 12.3051 8.52229 12.8887L5.66849 13.8402V21.6494L8.52229 22.6006C8.72158 23.1801 8.96387 23.761 9.24715 24.3366L8.36932 25.9356H4.30341V39.5864H9.08118V37.5388H14.2589L16.3065 39.5864H20.0018V40.2689C20.0018 41.7747 21.2263 42.9991 22.732 42.9991C24.2377 42.9991 25.4621 41.7747 25.4621 40.2689V39.5864H30.2406C31.3694 39.5864 32.2882 38.6676 32.2882 37.5388C32.2882 37.0125 32.0829 36.537 31.756 36.1737C32.0836 35.8104 32.2882 35.3349 32.2882 34.8086C32.2882 34.2824 32.0829 33.8068 31.756 33.4435C32.0166 33.1543 32.1946 32.793 32.2569 32.3904L37.5576 27.0474ZM10.6246 24.034C10.249 23.3128 9.94269 22.5796 9.71373 21.856L9.60875 21.5244L7.03356 20.6656V14.824L9.60875 13.9658L9.71307 13.6336C9.94102 12.9107 10.2476 12.1775 10.6236 11.4563L10.7842 11.147L9.56576 8.70981L13.696 4.57958L16.1332 5.79802L16.4425 5.63772C17.1643 5.26146 17.8969 4.95518 18.6197 4.72689L18.952 4.62257L19.8115 2.04672H25.6531L26.5113 4.62191L26.8435 4.72622C27.5664 4.95418 28.2996 5.26079 29.0208 5.63672L29.3301 5.79736L31.7673 4.57892L35.8975 8.70915L34.6791 11.1464L34.8394 11.4556C35.2157 12.1775 35.5219 12.91 35.7502 13.6329L35.8545 13.9652L38.4304 14.8247V20.6663L35.8552 21.5244L35.7502 21.856C35.5213 22.5796 35.215 23.3128 34.8394 24.034L34.6791 24.3432L35.8989 26.7821L31.8656 30.8464C31.831 30.8007 31.794 30.7557 31.756 30.7134C32.0836 30.3501 32.2882 29.8745 32.2882 29.3483C32.2882 28.2835 31.4684 27.4167 30.4289 27.3197C33.3243 24.9991 35.0177 21.5168 35.0177 17.7451C35.0177 10.9711 29.5061 5.45942 22.732 5.45942C15.9579 5.45942 10.4463 10.9711 10.4463 17.7451C10.4463 21.4711 12.1403 24.9761 15.0157 27.3007H9.1775L10.7929 24.3576L10.6246 24.034ZM30.9231 34.8086C30.9231 35.1852 30.6165 35.4912 30.2406 35.4912H24.7796C24.4037 35.4912 24.0971 35.1852 24.0971 34.8086C24.0971 34.432 24.4037 34.1261 24.7796 34.1261H30.2406C30.6165 34.1261 30.9231 34.432 30.9231 34.8086ZM21.0843 17.7451H24.3797L25.4621 16.6627V13.6499C26.215 13.6499 26.8272 14.2621 26.8272 15.015V18.1451L24.497 20.4753H20.967L18.6367 18.1451V15.015C18.6367 14.2621 19.249 13.6499 20.0018 13.6499V16.6627L21.0843 17.7451ZM21.3669 21.8404H24.0971V24.5705H21.3669V21.8404ZM25.4621 21.4404L28.1923 18.7103V15.015C28.1923 13.5093 26.9679 12.2848 25.4621 12.2848H24.0971V16.0974L23.8144 16.3801H21.6495L21.3669 16.0974V12.2848H20.0018C18.4961 12.2848 17.2717 13.5093 17.2717 15.015V18.7103L20.0018 21.4404V24.5705H18.3541L18.3111 24.6135C15.9809 23.1098 14.5415 20.5319 14.5415 17.7451C14.5415 13.2286 18.2155 9.55466 22.732 9.55466C27.2485 9.55466 30.9225 13.2286 30.9225 17.7451C30.9225 20.5116 29.5404 23.0451 27.2271 24.5705H25.4621V21.4404ZM32.2875 17.7451C32.2875 12.4758 28.0013 8.18958 22.732 8.18958C17.4626 8.18958 13.1764 12.4758 13.1764 17.7451C13.1764 20.8979 14.7448 23.8333 17.3173 25.6073L16.3345 26.5902C13.5 24.5372 11.8113 21.2515 11.8113 17.7451C11.8113 11.7239 16.7108 6.8245 22.732 6.8245C28.7532 6.8245 33.6526 11.7239 33.6526 17.7451C33.6526 21.1182 32.1279 24.2306 29.5247 26.2939C29.4467 25.81 29.1998 25.3867 28.8448 25.0791C31.0201 23.2731 32.2875 20.6139 32.2875 17.7451ZM30.2406 28.6658C30.6165 28.6658 30.9231 28.9717 30.9231 29.3483C30.9231 29.7249 30.6165 30.0308 30.2406 30.0308H24.7796C24.4037 30.0308 24.0971 29.7249 24.0971 29.3483C24.0971 28.9717 24.4037 28.6658 24.7796 28.6658H30.2406ZM24.7796 32.761C24.4037 32.761 24.0971 32.4551 24.0971 32.0785C24.0971 31.7019 24.4037 31.3959 24.7796 31.3959H30.2406C30.6165 31.3959 30.9231 31.7019 30.9231 32.0785C30.9231 32.4551 30.6165 32.761 30.2406 32.761H24.7796ZM7.7161 38.2213H5.66849V27.3007H7.7161V38.2213ZM16.8717 38.2213L14.8241 36.1737H9.08118V28.6658H16.1892L18.9194 25.9356H27.5098C27.8857 25.9356 28.1923 26.2416 28.1923 26.6181C28.1923 26.9947 27.8857 27.3007 27.5098 27.3007H20.4017L17.4716 30.2308L18.4368 31.196L20.0018 29.6309V38.2213H16.8717ZM22.732 41.634C21.9791 41.634 21.3669 41.0218 21.3669 40.2689V28.6658H22.8576C22.781 28.8801 22.732 29.108 22.732 29.3483C22.732 29.8745 22.9373 30.3501 23.2642 30.7134C22.9366 31.0767 22.732 31.5522 22.732 32.0785C22.732 32.6047 22.9373 33.0803 23.2642 33.4435C22.9366 33.8068 22.732 34.2824 22.732 34.8086C22.732 35.3349 22.9373 35.8104 23.2642 36.1737C22.9366 36.537 22.732 37.0125 22.732 37.5388C22.732 38.4273 23.3045 39.1781 24.0971 39.4608V40.2689C24.0971 41.0218 23.4848 41.634 22.732 41.634ZM30.2406 38.2213H24.7796C24.4037 38.2213 24.0971 37.9154 24.0971 37.5388C24.0971 37.1622 24.4037 36.8562 24.7796 36.8562H30.2406C30.6165 36.8562 30.9231 37.1622 30.9231 37.5388C30.9231 37.9154 30.6165 38.2213 30.2406 38.2213Z" fill="#FF9549"/>
<path d="M2.25549 6.14258H3.62057V7.50766H2.25549V6.14258Z" fill="#FF9549"/>
<path d="M2.25549 9.55469H3.62057V10.9198H2.25549V9.55469Z" fill="#FF9549"/>
<path d="M2.25549 12.9688H3.62057V14.3338H2.25549V12.9688Z" fill="#FF9549"/>
<path d="M40.478 28.666H41.8431V30.0311H40.478V28.666Z" fill="#FF9549"/>
<path d="M40.478 32.0801H41.8431V33.4452H40.478V32.0801Z" fill="#FF9549"/>
<path d="M40.478 35.4922H41.8431V36.8573H40.478V35.4922Z" fill="#FF9549"/>
</g>
<defs>
<clipPath id="clip0_1_1268">
<rect width="43" height="43" fill="white" transform="translate(0.549438)"/>
</clipPath>
</defs>
</svg>
