<svg width="162" height="153" viewBox="0 0 162 153" fill="none" xmlns="http://www.w3.org/2000/svg">
<path d="M104.495 56.2844C101.914 51.3788 95.8029 49.4757 90.8677 52.0506L50.1794 73.32C45.2376 75.9007 43.3362 81.9715 45.9279 86.8988L68.2335 129.273C70.8195 134.18 76.9276 136.084 81.8635 133.507L122.554 112.24C127.494 109.657 129.395 103.583 126.803 98.6608L104.495 56.2844ZM120.27 107.903L79.5795 129.17C77.0507 130.499 73.9148 129.516 72.5857 126.997L50.2801 84.6227C48.9626 82.1191 49.8979 78.9957 52.461 77.6564L93.1494 56.387C95.7219 55.0494 98.8354 56.0724 100.143 58.56L122.451 100.936C123.785 103.47 122.802 106.58 120.27 107.903Z" fill="#D9D9D9" fill-opacity="0.5"/>
<path d="M138.225 76.4756L160.392 47.6381C162.208 45.2636 162.503 42.1301 161.177 39.4618C159.876 36.7935 157.2 35.1536 154.23 35.1536H152.536V9.66961C152.536 4.33296 148.191 0 142.84 0H121.312C115.96 0 111.615 4.33296 111.615 9.66961V35.1533H109.921C109.651 35.1533 109.406 35.1775 109.136 35.2023L103.907 25.2389C100.446 18.7027 92.2961 16.1568 85.7418 19.6085L81.4214 21.8607L77.4201 14.2226C74.9408 9.52248 69.0984 7.71096 64.3852 10.1834L55.6707 14.7367C50.6384 9.57144 43.1759 5.80152 34.8542 4.3572C17.8671 1.37064 2.35292 8.69016 0.241808 20.6854C-1.89385 32.6806 10.2082 44.8472 27.1707 47.8337C28.2754 48.0296 29.3555 48.152 30.4356 48.2499L30.5583 48.4702L26.2382 50.7224C19.6591 54.1496 17.1309 62.2769 20.5676 68.8376L61.047 145.803C64.5634 152.495 72.8746 154.855 79.2123 151.458L138.741 120.344C145.288 116.902 147.864 108.833 144.387 102.204L132.408 79.4619C134.69 79.3397 136.801 78.2871 138.225 76.4756ZM26.5325 40.8572L27.6372 42.938C13.5467 40.3186 3.43302 30.7714 5.07772 21.5179C6.72243 12.2155 19.6837 6.65857 33.995 9.18001C40.7457 10.355 46.8335 13.1947 51.1294 17.1118L30.6074 27.8338C25.7183 30.403 24.1354 36.3203 26.5325 40.8572ZM140.042 104.481C142.201 108.638 140.704 113.739 136.458 116.011L76.9537 147.125C72.7805 149.304 67.601 147.688 65.4162 143.526L24.9123 66.5612C22.7276 62.3996 24.3477 57.2343 28.5209 55.0556L35.0015 51.6773C36.1798 51.0653 36.6216 49.621 36.0573 48.446C41.556 48.2746 46.6374 47.0261 50.8351 44.8964C53.7157 46.9894 57.7563 47.5892 61.5134 45.6552C66.4831 43.076 68.4052 36.9213 65.8092 31.9464C63.1826 26.977 57.0211 25.0675 52.0379 27.6624C47.1774 30.2083 45.2382 36.1815 47.6193 41.0775C43.6917 42.8645 38.8066 43.7703 33.5289 43.5744L30.8777 38.5805C29.7043 36.3377 30.495 33.4133 32.8906 32.1667L66.6438 14.5167C68.9759 13.2927 71.848 14.1984 73.0754 16.4995L78.2304 26.2915C78.8323 27.4923 80.3607 27.9591 81.5444 27.3197L88.025 23.9415C92.0012 21.8137 97.2675 23.1978 99.5379 27.5155L104.644 37.2341C101.868 39.7054 101.164 44.2307 103.735 47.6381L124.012 74.0031L140.042 104.481ZM51.8658 38.556C50.933 36.0838 51.9395 33.2439 54.3206 31.9954C55.1059 31.5792 55.9408 31.4079 56.7508 31.4079C56.0635 34.1986 54.3452 36.6221 51.8658 38.556ZM61.1694 33.8069C61.2676 33.9293 61.3658 34.0517 61.464 34.2231C62.7923 36.8214 61.7829 40.0243 59.2302 41.3223C58.0764 41.9343 56.7997 42.0567 55.548 41.7629C58.1992 39.5597 60.1384 36.8669 61.1694 33.8069ZM129.781 73.489L107.638 44.6516C106.204 42.7438 107.53 40.0493 109.921 40.0493H114.07C115.42 40.0493 116.525 38.9477 116.525 37.6013V9.66961C116.525 7.02577 118.685 4.896 121.312 4.896H142.84C145.491 4.896 147.627 7.02577 147.627 9.66961V37.6013C147.627 38.9477 148.731 40.0493 150.082 40.0493H154.23C155.335 40.0493 156.292 40.6368 156.783 41.6405C157.274 42.6442 157.176 43.7703 156.489 44.6516L134.322 73.489C133.242 74.8844 130.861 74.8844 129.781 73.489Z" fill="#D9D9D9" fill-opacity="0.5"/>
<path d="M91.9623 73.4394C90.6427 73.1525 89.3256 73.9846 89.0352 75.304L81.7825 108.206C81.4921 109.528 82.3296 110.833 83.6539 111.123C85.0024 111.413 86.2934 110.562 86.5809 109.258L93.8336 76.3559C94.124 75.034 93.2867 73.7285 91.9623 73.4394Z" fill="#D9D9D9" fill-opacity="0.5"/>
<path d="M80.472 81.5122C78.4302 77.5773 73.5478 76.0257 69.5891 78.0578C65.6123 80.106 64.0736 84.957 66.1199 88.9017C68.1615 92.8374 73.0336 94.3975 77.0052 92.3585C80.982 90.3103 82.5207 85.4593 80.4745 81.5146C80.4742 81.5144 80.4742 81.5144 80.472 81.5122ZM74.7499 88.0074C73.1908 88.8138 71.2885 88.2033 70.4863 86.6544C69.6955 85.1318 70.264 83.2238 71.8442 82.4086C73.3952 81.6079 75.3088 82.2253 76.11 83.7641C76.9003 85.2948 76.3237 87.1957 74.7499 88.0074Z" fill="#D9D9D9" fill-opacity="0.5"/>
<path d="M97.7099 93.203C93.7559 95.2398 92.2012 100.105 94.2431 104.045C96.2906 107.992 101.146 109.548 105.126 107.504C109.085 105.465 110.639 100.6 108.595 96.6574C106.551 92.7203 101.678 91.1614 97.7099 93.203ZM102.87 103.153C101.316 103.947 99.4168 103.357 98.6093 101.797C97.8079 100.255 98.4199 98.3502 99.9672 97.5517C101.514 96.7531 103.429 97.3629 104.228 98.9047C105.04 100.472 104.416 102.358 102.87 103.153Z" fill="#D9D9D9" fill-opacity="0.5"/>
</svg>
