<svg width="22" height="22" viewBox="0 0 22 22" fill="none" xmlns="http://www.w3.org/2000/svg">
<path opacity="0.8" d="M12.5339 14.5128L12.0578 14.0367L11.5818 14.5128L12.0578 14.9889L12.5339 14.5128ZM18.6113 20.5902L18.1352 21.0662L18.6113 20.5902ZM14.5128 12.5339L14.9889 12.0578L14.5128 11.5818L14.0367 12.0578L14.5128 12.5339ZM20.5902 18.6112L21.0662 18.1352L20.5902 18.6112ZM21 19.6007H21.6733H21ZM7.29683 1V1.67326V1ZM13.5937 7.29683H12.9204H13.5937ZM7.29683 13.5937V12.9204V13.5937ZM1 7.29683H1.67326H1ZM13.0473 13.9994C13.3102 14.2623 13.7365 14.2623 13.9994 13.9994C14.2623 13.7365 14.2623 13.3102 13.9994 13.0473L13.0473 13.9994ZM13.7469 15.7258C13.484 15.9888 13.484 16.415 13.7469 16.678C14.0099 16.9409 14.4361 16.9409 14.6991 16.678L13.7469 15.7258ZM16.678 14.6991C16.9409 14.4361 16.9409 14.0099 16.678 13.7469C16.415 13.484 15.9888 13.484 15.7258 13.7469L16.678 14.6991ZM7.29683 3.12534C6.92501 3.12534 6.62358 3.42676 6.62358 3.79859C6.62358 4.17042 6.92501 4.47185 7.29683 4.47185V3.12534ZM10.1218 7.29683C10.1218 7.66866 10.4232 7.97009 10.7951 7.97009C11.1669 7.97009 11.4683 7.66866 11.4683 7.29683L10.1218 7.29683ZM12.0578 14.9889L18.1352 21.0662L19.0873 20.1141L13.01 14.0367L12.0578 14.9889ZM14.0367 13.01L20.1141 19.0873L21.0662 18.1352L14.9889 12.0578L14.0367 13.01ZM20.1141 19.0873C20.2502 19.2235 20.3267 19.4081 20.3267 19.6007H21.6733C21.6733 19.051 21.4549 18.5239 21.0662 18.1352L20.1141 19.0873ZM20.3267 19.6007C20.3267 19.7933 20.2502 19.9779 20.1141 20.1141L21.0662 21.0662C21.4549 20.6775 21.6733 20.1504 21.6733 19.6007H20.3267ZM18.1352 21.0662C18.5239 21.4549 19.051 21.6733 19.6007 21.6733V20.3267C19.4081 20.3267 19.2235 20.2502 19.0873 20.1141L18.1352 21.0662ZM19.6007 21.6733C20.1504 21.6733 20.6775 21.4549 21.0662 21.0662L20.1141 20.1141C19.9779 20.2502 19.7933 20.3267 19.6007 20.3267V21.6733ZM7.29683 1.67326C8.03533 1.67326 8.7666 1.81871 9.44888 2.10133L9.96417 0.857309C9.11852 0.507029 8.21216 0.326743 7.29683 0.326743V1.67326ZM9.44888 2.10133C10.1312 2.38394 10.7511 2.79817 11.2733 3.32036L12.2254 2.36824C11.5782 1.721 10.8098 1.20759 9.96417 0.857309L9.44888 2.10133ZM11.2733 3.32036C11.7955 3.84256 12.2097 4.4625 12.4923 5.14478L13.7364 4.6295C13.3861 3.78384 12.8727 3.01547 12.2254 2.36824L11.2733 3.32036ZM12.4923 5.14478C12.775 5.82707 12.9204 6.55834 12.9204 7.29683H14.2669C14.2669 6.38151 14.0866 5.47515 13.7364 4.6295L12.4923 5.14478ZM12.9204 7.29683C12.9204 8.03533 12.775 8.7666 12.4923 9.44888L13.7364 9.96417C14.0866 9.11852 14.2669 8.21216 14.2669 7.29683H12.9204ZM12.4923 9.44888C12.2097 10.1312 11.7955 10.7511 11.2733 11.2733L12.2254 12.2254C12.8727 11.5782 13.3861 10.8098 13.7364 9.96417L12.4923 9.44888ZM11.2733 11.2733C10.7511 11.7955 10.1312 12.2097 9.44888 12.4923L9.96417 13.7364C10.8098 13.3861 11.5782 12.8727 12.2254 12.2254L11.2733 11.2733ZM9.44888 12.4923C8.7666 12.775 8.03533 12.9204 7.29683 12.9204V14.2669C8.21216 14.2669 9.11852 14.0866 9.96417 13.7364L9.44888 12.4923ZM7.29683 12.9204C5.80537 12.9204 4.37499 12.3279 3.32036 11.2733L2.36824 12.2254C3.67538 13.5326 5.44825 14.2669 7.29683 14.2669V12.9204ZM3.32036 11.2733C2.26574 10.2187 1.67326 8.7883 1.67326 7.29683H0.326743C0.326743 9.14542 1.06109 10.9183 2.36824 12.2254L3.32036 11.2733ZM1.67326 7.29683C1.67326 6.55834 1.81871 5.82707 2.10133 5.14478L0.85731 4.6295C0.50703 5.47515 0.326743 6.38151 0.326743 7.29684L1.67326 7.29683ZM2.10133 5.14478C2.38394 4.4625 2.79817 3.84256 3.32036 3.32036L2.36824 2.36824C1.721 3.01547 1.20759 3.78385 0.85731 4.6295L2.10133 5.14478ZM3.32036 3.32036C3.84256 2.79817 4.4625 2.38394 5.14478 2.10133L4.6295 0.857309C3.78384 1.20759 3.01547 1.721 2.36824 2.36824L3.32036 3.32036ZM5.14478 2.10133C5.82707 1.81871 6.55834 1.67326 7.29683 1.67326V0.326743C6.38151 0.326743 5.47515 0.507029 4.6295 0.857309L5.14478 2.10133ZM13.01 14.9889L14.9889 13.01L14.0367 12.0578L12.0578 14.0367L13.01 14.9889ZM13.9994 13.0473L12.2254 11.2733L11.2733 12.2254L13.0473 13.9994L13.9994 13.0473ZM14.6991 16.678L16.678 14.6991L15.7258 13.7469L13.7469 15.7258L14.6991 16.678ZM7.29683 4.47185C8.04607 4.47185 8.76461 4.76948 9.2944 5.29927L10.2465 4.34714C9.46422 3.56483 8.40319 3.12534 7.29683 3.12534V4.47185ZM9.2944 5.29927C9.82419 5.82906 10.1218 6.5476 10.1218 7.29683L11.4683 7.29683C11.4683 6.19048 11.0288 5.12945 10.2465 4.34714L9.2944 5.29927Z" fill="#CCCCCC"/>
</svg>
