<svg width="28" height="28" viewBox="0 0 28 28" fill="none" xmlns="http://www.w3.org/2000/svg">
<path d="M21.7784 13.9442L15.2291 7.66372C14.8422 7.29275 14.2317 7.29275 13.8448 7.66372L7.29548 13.9442C7.21004 14.0069 7.13957 14.0866 7.08886 14.1778C7.03814 14.2691 7.00836 14.3698 7.00152 14.4731C6.99468 14.5764 7.01095 14.6799 7.04923 14.7766C7.0875 14.8734 7.14689 14.961 7.22336 15.0337C7.29984 15.1064 7.39162 15.1624 7.4925 15.1979C7.59337 15.2334 7.70099 15.2476 7.80805 15.2395C7.91511 15.2314 8.01913 15.2013 8.11306 15.1511C8.20698 15.1009 8.28863 15.0319 8.35246 14.9486L13.7873 9.75311L13.4486 21.2774C13.4486 21.469 13.5276 21.6528 13.6681 21.7884C13.8087 21.9239 13.9994 22 14.1982 22C14.397 22 14.5877 21.9239 14.7283 21.7884C14.8689 21.6528 14.9478 21.469 14.9478 21.2774L15.2866 9.75311L20.7215 14.9486C20.8626 15.0837 21.0537 15.1593 21.2526 15.1586C21.4515 15.1579 21.642 15.0811 21.7822 14.945C21.9224 14.8089 22.0007 14.6248 22 14.433C21.9993 14.2413 21.9196 14.0576 21.7784 13.9225V13.9442Z" fill="#9373EA"/>
</svg>
