<svg width="16" height="17" viewBox="0 0 16 17" fill="none" xmlns="http://www.w3.org/2000/svg">
<path d="M13.8227 8.05537L8.7217 3.16372C8.33484 2.79275 7.72429 2.79275 7.33743 3.16372L2.23638 8.05537C2.16803 8.10554 2.11166 8.16928 2.07109 8.24228C2.03052 8.31528 2.00669 8.39583 2.00122 8.47847C1.99575 8.56112 2.00876 8.64393 2.03938 8.72131C2.07 8.79868 2.11751 8.86882 2.17869 8.92695C2.23987 8.98509 2.3133 9.02988 2.394 9.05829C2.4747 9.0867 2.56079 9.09806 2.64644 9.0916C2.73209 9.08515 2.8153 9.06103 2.89044 9.02089C2.96559 8.98074 3.0309 8.9255 3.08197 8.8589L7.42986 4.70249L7.15886 13.9219C7.15886 14.0752 7.22204 14.2223 7.33451 14.3307C7.44698 14.4391 7.59951 14.5 7.75857 14.5C7.91762 14.5 8.07016 14.4391 8.18263 14.3307C8.29509 14.2223 8.35828 14.0752 8.35828 13.9219L8.62927 4.70249L12.9772 8.8589C13.0901 8.96699 13.2429 9.02741 13.4021 9.02687C13.5612 9.02632 13.7136 8.96487 13.8257 8.85601C13.9379 8.74716 14.0006 8.59982 14 8.44642C13.9994 8.29302 13.9357 8.14611 13.8227 8.03802V8.05537Z" fill="#1B1B1B"/>
</svg>
