<svg width="48" height="48" viewBox="0 0 48 48" fill="none" xmlns="http://www.w3.org/2000/svg">
<path d="M12 34.776L12.5444 30.5569C13.8752 30.6476 14.9036 30.4057 15.6295 29.831C16.3554 29.2564 16.8393 28.4549 17.0813 27.4266C17.3233 26.3983 17.3686 25.2339 17.2174 23.9334L12 23.9334L12 13L22.0265 13L22.0265 24.8407C22.0265 28.4095 21.1796 31.1013 19.4858 32.9159C17.7618 34.7608 15.2665 35.3809 12 34.776ZM25.9735 34.776L26.518 30.5569C27.8488 30.6476 28.8771 30.4057 29.603 29.831C30.3289 29.2564 30.8129 28.4549 31.0548 27.4266C31.2968 26.3983 31.3422 25.2339 31.1909 23.9334H25.9735L25.9735 13H36V24.8407C36 28.4095 35.1531 31.1013 33.4594 32.9159C31.7354 34.7608 29.2401 35.3809 25.9735 34.776Z" fill="#1B1B1B"/>
</svg>
