<svg width="36" height="36" viewBox="0 0 36 36" fill="none" xmlns="http://www.w3.org/2000/svg">
<g clip-path="url(#clip0_662_900)">
<path d="M19.4109 17.9732L27.701 9.70536C27.8648 9.51457 27.9504 9.26915 27.9407 9.01815C27.9309 8.76714 27.8266 8.52904 27.6485 8.35142C27.4704 8.17381 27.2317 8.06975 26.98 8.06006C26.7283 8.05036 26.4823 8.13574 26.291 8.29913L18.0009 16.567L9.71095 8.28915C9.52265 8.10135 9.26725 7.99585 9.00095 7.99585C8.73465 7.99585 8.47925 8.10135 8.29095 8.28915C8.10265 8.47695 7.99686 8.73167 7.99686 8.99726C7.99686 9.26285 8.10265 9.51756 8.29095 9.70536L16.591 17.9732L8.29095 26.241C8.18627 26.3304 8.10125 26.4404 8.04122 26.5642C7.9812 26.6879 7.94747 26.8227 7.94215 26.96C7.93683 27.0974 7.96004 27.2343 8.01031 27.3623C8.06059 27.4903 8.13684 27.6065 8.2343 27.7037C8.33175 27.8009 8.4483 27.877 8.57663 27.9271C8.70495 27.9773 8.84228 28.0004 8.98 27.9951C9.11772 27.9898 9.25285 27.9562 9.37692 27.8963C9.50098 27.8364 9.6113 27.7516 9.70095 27.6472L18.0009 19.3794L26.291 27.6472C26.4823 27.8106 26.7283 27.896 26.98 27.8863C27.2317 27.8766 27.4704 27.7726 27.6485 27.5949C27.8266 27.4173 27.9309 27.1792 27.9407 26.9282C27.9504 26.6772 27.8648 26.4318 27.701 26.241L19.4109 17.9732Z" fill="white"/>
</g>
<defs>
<clipPath id="clip0_662_900">
<rect width="36" height="36" fill="white"/>
</clipPath>
</defs>
</svg>
