<svg width="32" height="32" viewBox="0 0 32 32" fill="none" xmlns="http://www.w3.org/2000/svg">
<g clip-path="url(#clip0_1088_69)">
<path d="M25.1901 13.789L16.4788 24.8845C14.7579 27.0764 11.6219 27.7673 9.27588 26.2644C8.64744 25.8651 8.10973 25.3384 7.69749 24.7184C7.28524 24.0984 7.00763 23.3988 6.88259 22.6648C6.75754 21.9308 6.78784 21.1788 6.97153 20.4572C7.15521 19.7357 7.4882 19.0607 7.94898 18.4758L18.1259 5.51353C19.2045 4.13969 21.1701 3.66568 22.6405 4.59973C23.0361 4.84855 23.375 5.17779 23.6352 5.56609C23.8953 5.95438 24.0709 6.39304 24.1505 6.85358C24.2301 7.31413 24.212 7.78628 24.0973 8.23937C23.9826 8.69246 23.7739 9.11637 23.4848 9.48357L14.8394 20.4952C14.3865 21.072 13.5441 21.1735 12.9673 20.7206C12.3905 20.2677 12.2891 19.4253 12.7419 18.8485L19.9464 9.6721C20.284 9.24213 20.2074 8.60561 19.7774 8.26803C19.3474 7.93044 18.7109 8.00707 18.3733 8.43705L11.2841 17.4666C10.2055 18.8404 10.2115 20.8624 11.4678 22.0691C11.8034 22.3944 12.2036 22.6455 12.6426 22.8061C13.0815 22.9666 13.5493 23.0331 14.0156 23.0011C14.4819 22.9692 14.9362 22.8395 15.3492 22.6206C15.7621 22.4017 16.1244 22.0983 16.4125 21.7303L24.9179 10.8969C26.6388 8.70507 26.5657 5.49467 24.549 3.57231C24.0115 3.05753 23.3722 2.66101 22.6721 2.40827C21.9721 2.15554 21.2269 2.05219 20.4845 2.10488C19.7421 2.15757 19.019 2.36513 18.3617 2.7142C17.7044 3.06327 17.1275 3.54611 16.6681 4.13165L6.56526 16.9996C4.20218 20.0094 4.28845 24.4337 7.0655 27.0717C10.2688 30.0953 15.2607 29.6748 17.9119 26.2979L26.7632 15.024C27.1008 14.5941 27.0241 13.9575 26.5942 13.62C26.1642 13.2824 25.5277 13.359 25.1901 13.789Z" fill="#9373EA"/>
</g>
<defs>
<clipPath id="clip0_1088_69">
<rect width="32" height="32" fill="white"/>
</clipPath>
</defs>
</svg>
