<svg width="120" height="60" viewBox="0 0 120 60" fill="none" xmlns="http://www.w3.org/2000/svg">
<rect width="120" height="60" rx="10" fill="white"/>
<path fill-rule="evenodd" clip-rule="evenodd" d="M7 29.8961H9.45304L12.0851 37.6428L15.3081 29.1308L18.5848 37.6428L21.1632 29.8961H23.6341L18.8176 42.7761L15.3081 34.3761L11.7986 42.7761L7 29.8961ZM45.8547 41.9734L42.9899 37.4748H41.9514V41.9734H39.8385V29.8961H43.4375C44.297 29.8961 45.0311 30.0454 45.6578 30.3628C46.2666 30.6801 46.7679 31.1094 47.1081 31.6694C47.4662 32.2481 47.6453 32.9201 47.6453 33.6668C47.6453 34.4321 47.4662 35.1041 47.1081 35.6828C46.7679 36.2428 46.2666 36.6908 45.6578 37.0081C45.5145 37.0828 45.3534 37.1388 45.1743 37.2134L48.4152 41.9734H45.8547ZM43.3838 35.6081C43.8135 35.6081 44.1836 35.5334 44.4939 35.3841C44.8043 35.2348 45.043 35.0232 45.2101 34.7494C45.3892 34.4632 45.4787 34.121 45.4787 33.7228C45.4787 33.3121 45.3892 32.9699 45.2101 32.6961C45.043 32.4223 44.8043 32.2108 44.4939 32.0614C44.1836 31.9121 43.8135 31.8374 43.3838 31.8374H41.9693V35.6081H43.3838ZM56.4726 41.9734L52.2111 36.6161V41.9734H50.0446V29.8961H52.2111V34.6561L56.2936 29.8961H58.8899L53.9838 35.5521L59.1226 41.9734H56.4726ZM63.6706 42.2161C63.0081 42.2161 62.3635 42.0854 61.7905 41.7868C61.2176 41.5068 60.6983 41.1334 60.2686 40.6668C59.8209 40.2001 59.4807 39.6774 59.2301 39.1174L59.1943 39.0428L60.7878 37.8668L60.8416 37.9788C61.0922 38.4268 61.3429 38.8374 61.6294 39.1548C61.9039 39.4908 62.2143 39.7521 62.5605 39.9388C62.8947 40.1254 63.2648 40.2188 63.6706 40.2188C64.172 40.2188 64.5659 40.0694 64.8703 39.7894C65.1747 39.5281 65.3358 39.1734 65.3358 38.7254C65.3358 38.3148 65.2403 37.9912 65.0493 37.7548C64.8583 37.4934 64.5838 37.2757 64.2257 37.1014C63.8676 36.9148 63.4378 36.7281 62.9723 36.5601C62.6858 36.4481 62.3635 36.3174 62.0233 36.1308C61.6652 35.9566 61.331 35.7326 61.0206 35.4588C60.6804 35.1788 60.4118 34.8428 60.2149 34.4508C60 34.0401 59.8926 33.5548 59.8926 32.9761C59.8926 32.3228 60.0537 31.7441 60.376 31.2588C60.6983 30.7548 61.1459 30.3628 61.6831 30.0828C62.2382 29.8214 62.8649 29.6721 63.5632 29.6721C64.2436 29.6721 64.8524 29.8028 65.3537 30.0641C65.873 30.3254 66.3027 30.6614 66.6608 31.0348C67.0189 31.4268 67.2875 31.8561 67.4666 32.2668L67.5203 32.3601L65.8013 33.3868L65.7476 33.2934C65.6044 33.0072 65.4253 32.7397 65.2105 32.4908C64.9956 32.2419 64.7509 32.0428 64.4763 31.8934C64.2137 31.7566 63.8974 31.6881 63.5274 31.6881C63.026 31.6881 62.6619 31.8001 62.4351 32.0241C62.2024 32.2668 62.0949 32.5281 62.0949 32.8454C62.0949 33.1317 62.1725 33.3868 62.3277 33.6108C62.5068 33.8348 62.7753 34.0526 63.1334 34.2641C63.5095 34.4694 64.0108 34.6934 64.6017 34.9174C64.9598 35.0481 65.3 35.1974 65.6581 35.4028C66.0043 35.5894 66.3206 35.8321 66.6071 36.1308C66.8757 36.4108 67.1264 36.7654 67.2875 37.1574C67.4666 37.5681 67.574 38.0348 67.574 38.5761C67.574 39.1361 67.4486 39.6588 67.2338 40.1068C67.0189 40.5548 66.7324 40.9468 66.3564 41.2641C65.9983 41.5628 65.5686 41.8054 65.1209 41.9734C64.6554 42.1414 64.172 42.2161 63.6706 42.2161ZM69.8838 41.9734V29.8961H73.4111C74.2527 29.8961 75.0047 30.0454 75.6135 30.3441C76.2402 30.6614 76.7416 31.0908 77.0818 31.6694C77.4399 32.2294 77.6189 32.9014 77.6189 33.6668C77.6189 34.4508 77.4399 35.1228 77.0818 35.7014C76.7416 36.2614 76.2402 36.7094 75.6135 37.0081C75.0047 37.3254 74.2527 37.4748 73.4111 37.4748H71.9966V41.9734H69.8838ZM73.4291 35.4961C74.0557 35.4961 74.575 35.3468 74.951 35.0294C75.327 34.7308 75.524 34.2828 75.524 33.6668C75.524 33.0694 75.327 32.6214 74.951 32.3228C74.575 32.0241 74.0557 31.8748 73.4291 31.8748H72.0145V35.4961H73.4291ZM85.9986 41.9734L84.6916 38.9121H80.6449L79.3378 41.9734H76.9564L82.6682 29.0934L88.4159 41.9734H85.9986ZM84.0649 37.0081L82.6503 33.6294L81.2716 37.0081H84.0649ZM94.4321 42.1601C93.5905 42.1601 92.7848 42.0108 92.0507 41.7121C91.3345 41.4321 90.6899 40.9841 90.1527 40.4241C89.6155 39.8641 89.1858 39.1921 88.8814 38.4268C88.577 37.6801 88.4338 36.8401 88.4338 35.9254C88.4338 35.0108 88.577 34.1708 88.8814 33.4054C89.1858 32.6401 89.6155 31.9868 90.1527 31.4268C90.6899 30.8668 91.3345 30.4374 92.0507 30.1201C92.7848 29.8214 93.5905 29.6721 94.4321 29.6721C95.2736 29.6721 95.9899 29.7841 96.5449 30.0081C97.1179 30.2134 97.6372 30.5494 98.1206 30.9601L98.1564 30.9974V33.7041L97.9774 33.4988C97.7267 33.1877 97.4283 32.9077 97.0821 32.6588C96.7419 32.3974 96.3659 32.2108 95.9361 32.0614C95.5064 31.9308 95.023 31.8561 94.4858 31.8561C93.8233 31.8561 93.1966 32.0241 92.6236 32.3601C92.0507 32.6774 91.5851 33.1628 91.2449 33.7788C90.8868 34.3761 90.7078 35.1041 90.7078 35.9254C90.7078 36.7468 90.8868 37.4561 91.2449 38.0721C91.5851 38.6694 92.0507 39.1548 92.6236 39.4908C93.1966 39.8454 93.8233 40.0134 94.4858 40.0134C95.023 40.0134 95.5064 39.9388 95.9361 39.7894C96.3659 39.6588 96.7419 39.4534 97.0821 39.2108C97.4223 38.9494 97.7267 38.6694 97.9774 38.3521L98.1564 38.1281V40.8534L98.1206 40.8908C97.6372 41.3014 97.1179 41.6188 96.5449 41.8428C95.9899 42.0668 95.2736 42.1601 94.4321 42.1601ZM100.43 41.9734V29.8961H107.557V31.8748H102.525V34.5441H107.234V36.4668H102.525V39.9948H107.557V41.9734H100.43ZM24.0997 35.9441C24.0997 32.0988 27.0899 28.9814 30.7963 28.9814C34.4848 28.9814 37.475 32.0988 37.475 35.9441C37.475 39.7894 34.4848 42.9068 30.7963 42.9068C27.0899 42.9068 24.0997 39.7894 24.0997 35.9441ZM30.9753 29.5228H30.6172L29.2922 33.7788H24.9949C24.9591 33.8908 24.9233 34.009 24.8875 34.1334L28.3611 36.7468L27.0361 41.0028L27.3226 41.2268L30.7784 38.5948L34.2699 41.2268L34.5564 41.0028L33.2314 36.7654L36.7051 34.1334C36.6693 34.009 36.6334 33.8908 36.5976 33.7788H32.3003L30.9753 29.5228ZM112.839 30.9228C112.839 31.1343 112.803 31.3334 112.731 31.5201C112.648 31.7068 112.546 31.8686 112.427 32.0054C112.296 32.1299 112.141 32.2294 111.961 32.3041C111.782 32.3788 111.591 32.4161 111.389 32.4161C111.186 32.4161 110.995 32.3788 110.816 32.3041C110.636 32.2294 110.481 32.1299 110.35 32.0054C110.231 31.8686 110.129 31.7068 110.046 31.5201C109.974 31.3334 109.938 31.1343 109.938 30.9228C109.938 30.6988 109.974 30.4934 110.046 30.3068C110.129 30.1201 110.231 29.9646 110.35 29.8401C110.481 29.7032 110.636 29.5974 110.816 29.5228C110.995 29.4481 111.186 29.4108 111.389 29.4108C111.591 29.4108 111.782 29.4481 111.961 29.5228C112.141 29.5974 112.296 29.7032 112.427 29.8401C112.546 29.9646 112.648 30.1201 112.731 30.3068C112.803 30.4934 112.839 30.6988 112.839 30.9228ZM112.606 30.9228C112.606 30.7361 112.576 30.5619 112.517 30.4001C112.457 30.2383 112.373 30.1014 112.266 29.9894C112.147 29.865 112.015 29.7717 111.872 29.7094C111.729 29.6472 111.568 29.6161 111.389 29.6161C111.209 29.6161 111.048 29.6472 110.905 29.7094C110.75 29.7717 110.619 29.865 110.511 29.9894C110.404 30.1014 110.32 30.2383 110.26 30.4001C110.201 30.5619 110.171 30.7361 110.171 30.9228C110.171 31.1094 110.201 31.2774 110.26 31.4268C110.32 31.5886 110.404 31.7254 110.511 31.8374C110.619 31.9619 110.75 32.0552 110.905 32.1174C111.048 32.1797 111.209 32.2108 111.389 32.2108C111.568 32.2108 111.729 32.1797 111.872 32.1174C112.015 32.0552 112.147 31.9619 112.266 31.8374C112.373 31.7254 112.457 31.5886 112.517 31.4268C112.576 31.2774 112.606 31.1094 112.606 30.9228ZM111.585 31.0348L112.069 31.7441H111.729L111.317 31.0721H111.138V31.7441H110.851V29.9894H111.371C111.55 29.9894 111.699 30.0392 111.818 30.1388C111.926 30.2383 111.979 30.369 111.979 30.5308C111.979 30.6926 111.926 30.8232 111.818 30.9228C111.747 30.985 111.669 31.0223 111.585 31.0348ZM111.138 30.8294H111.353C111.46 30.8294 111.544 30.8046 111.603 30.7548C111.663 30.705 111.693 30.6303 111.693 30.5308C111.693 30.4437 111.663 30.3752 111.603 30.3254C111.544 30.2757 111.46 30.2508 111.353 30.2508H111.138V30.8294Z" fill="#1B1B1B"/>
<path d="M43.9102 18H45.7565L47.7065 22.7031H47.7895L49.7395 18H51.5858V25H50.1337V20.4438H50.0749L48.2424 24.9658H47.2536L45.4211 20.4268H45.3623V25H43.9102V18Z" fill="#1B1B1B"/>
<path d="M53.4153 20.5874H55.1025C55.665 20.5874 56.149 20.6774 56.5547 20.8574C56.9627 21.0352 57.2773 21.2869 57.4986 21.6128C57.7199 21.9386 57.8294 22.3226 57.8271 22.7646C57.8294 23.2044 57.7199 23.5929 57.4986 23.9302C57.2773 24.2651 56.9627 24.5272 56.5547 24.7163C56.149 24.9054 55.665 25 55.1025 25H52.4575V18H53.9512V23.8105H55.1025C55.3722 23.8105 55.5993 23.7627 55.7837 23.667C55.9681 23.569 56.1075 23.4403 56.202 23.2808C56.2988 23.119 56.3461 22.9424 56.3438 22.751C56.3461 22.473 56.2401 22.2383 56.0257 22.0469C55.8136 21.8532 55.5059 21.7563 55.1025 21.7563H53.4153V20.5874ZM59.8981 18V25H58.4045V18H59.8981Z" fill="#1B1B1B"/>
<path d="M62.6044 25V18H64.1015V20.8882H67.1406V18H68.6343V25H67.1406V22.1084H64.1015V25H62.6044Z" fill="#1B1B1B"/>
<path d="M70.6997 25H69.0954L71.5399 18H73.4691L75.9102 25H74.3059L72.5322 19.5996H72.4768L70.6997 25ZM70.5994 22.2485H74.3888V23.4038H70.5994V22.2485Z" fill="#1B1B1B"/>
</svg>
