<svg width="150" height="50" viewBox="0 0 150 50" fill="none" xmlns="http://www.w3.org/2000/svg">
<rect width="150" height="50" rx="4" fill="white"/>
<path fill-rule="evenodd" clip-rule="evenodd" d="M20 24.4183H22.5495L25.2851 32.505L28.6347 23.6194L32.0403 32.505L34.72 24.4183H37.2881L32.2822 37.8636L28.6347 29.0949L24.9873 37.8636L20 24.4183ZM60.3823 37.0257L57.4048 32.3296H56.3255V37.0257H54.1296V24.4183H57.8701C58.7633 24.4183 59.5263 24.5742 60.1776 24.9054C60.8104 25.2367 61.3314 25.6849 61.685 26.2695C62.0572 26.8735 62.2433 27.575 62.2433 28.3545C62.2433 29.1534 62.0572 29.8549 61.685 30.4589C61.3314 31.0435 60.8104 31.5112 60.1776 31.8424C60.0288 31.9204 59.8613 31.9788 59.6752 32.0568L63.0435 37.0257H60.3823ZM57.8142 30.381C58.2609 30.381 58.6455 30.3031 58.968 30.1472C59.2906 29.9913 59.5387 29.7704 59.7124 29.4846C59.8985 29.1859 59.9915 28.8286 59.9915 28.4129C59.9915 27.9842 59.8985 27.627 59.7124 27.3412C59.5387 27.0554 59.2906 26.8345 58.968 26.6787C58.6455 26.5228 58.2609 26.4448 57.8142 26.4448H56.3441V30.381H57.8142ZM71.4177 37.0257L66.9887 31.4332V37.0257H64.7369V24.4183H66.9887V29.3872L71.2316 24.4183H73.93L68.831 30.3225L74.1719 37.0257H71.4177ZM78.8987 37.279C78.2101 37.279 77.5402 37.1426 76.9447 36.8309C76.3492 36.5386 75.8095 36.1489 75.3629 35.6617C74.8977 35.1746 74.5441 34.6289 74.2835 34.0444L74.2463 33.9664L75.9026 32.7388L75.9584 32.8557C76.2189 33.3234 76.4795 33.7521 76.7772 34.0833C77.0625 34.4341 77.3851 34.7069 77.7449 34.9017C78.0923 35.0966 78.4769 35.194 78.8987 35.194C79.4197 35.194 79.8291 35.0381 80.1455 34.7459C80.4619 34.4731 80.6293 34.1028 80.6293 33.6352C80.6293 33.2065 80.5301 32.8687 80.3316 32.6219C80.1331 32.3491 79.8477 32.1217 79.4756 31.9399C79.1034 31.745 78.6567 31.5502 78.1729 31.3748C77.8752 31.2579 77.5402 31.1215 77.1866 30.9266C76.8144 30.7447 76.467 30.5109 76.1445 30.2251C75.7909 29.9328 75.5118 29.5821 75.3071 29.1729C75.0837 28.7442 74.9721 28.2375 74.9721 27.6335C74.9721 26.9515 75.1396 26.3474 75.4745 25.8408C75.8095 25.3146 76.2747 24.9054 76.833 24.6131C77.4099 24.3403 78.0612 24.1845 78.787 24.1845C79.4942 24.1845 80.1269 24.3209 80.6479 24.5937C81.1876 24.8665 81.6342 25.2172 82.0064 25.6069C82.3786 26.0161 82.6578 26.4643 82.8439 26.893L82.8997 26.9904L81.1132 28.0622L81.0574 27.9647C80.9085 27.6659 80.7224 27.3867 80.4991 27.1268C80.2758 26.867 80.0214 26.6592 79.7361 26.5033C79.4632 26.3604 79.1344 26.2889 78.7498 26.2889C78.2287 26.2889 77.8503 26.4059 77.6146 26.6397C77.3727 26.893 77.261 27.1658 77.261 27.4971C77.261 27.7959 77.3417 28.0622 77.503 28.296C77.6891 28.5298 77.9682 28.7572 78.3404 28.978C78.7312 29.1924 79.2522 29.4262 79.8664 29.66C80.2385 29.7964 80.5921 29.9523 80.9643 30.1667C81.3241 30.3615 81.6529 30.6148 81.9506 30.9266C82.2297 31.2189 82.4903 31.5891 82.6578 31.9983C82.8439 32.427 82.9555 32.9142 82.9555 33.4793C82.9555 34.0639 82.8252 34.6095 82.6019 35.0771C82.3786 35.5448 82.0809 35.954 81.6901 36.2853C81.3179 36.597 80.8713 36.8503 80.406 37.0257C79.9222 37.2011 79.4197 37.279 78.8987 37.279ZM85.3561 37.0257V24.4183H89.0222C89.8968 24.4183 90.6784 24.5742 91.3111 24.8859C91.9624 25.2172 92.4835 25.6654 92.8371 26.2695C93.2093 26.854 93.3954 27.5555 93.3954 28.3545C93.3954 29.1729 93.2093 29.8744 92.8371 30.4784C92.4835 31.063 91.9624 31.5307 91.3111 31.8424C90.6784 32.1737 89.8968 32.3296 89.0222 32.3296H87.552V37.0257H85.3561ZM89.0408 30.2641C89.6921 30.2641 90.2318 30.1082 90.6226 29.7769C91.0134 29.4652 91.2181 28.9975 91.2181 28.3545C91.2181 27.7309 91.0134 27.2632 90.6226 26.9515C90.2318 26.6397 89.6921 26.4838 89.0408 26.4838H87.5706V30.2641H89.0408ZM102.105 37.0257L100.746 33.83H96.5404L95.1819 37.0257H92.7068L98.6432 23.5804L104.617 37.0257H102.105ZM100.095 31.8424L98.6246 28.3155L97.1917 31.8424H100.095ZM110.87 37.2206C109.995 37.2206 109.158 37.0647 108.395 36.7529C107.65 36.4606 106.98 35.993 106.422 35.4084C105.864 34.8238 105.417 34.1223 105.101 33.3234C104.784 32.5439 104.635 31.6671 104.635 30.7123C104.635 29.7574 104.784 28.8806 105.101 28.0817C105.417 27.2827 105.864 26.6007 106.422 26.0161C106.98 25.4316 107.65 24.9834 108.395 24.6521C109.158 24.3403 109.995 24.1845 110.87 24.1845C111.744 24.1845 112.489 24.3014 113.065 24.5352C113.661 24.7495 114.201 25.1003 114.703 25.529L114.74 25.568V28.3934L114.554 28.1791C114.294 27.8543 113.984 27.562 113.624 27.3022C113.27 27.0294 112.879 26.8345 112.433 26.6787C111.986 26.5423 111.484 26.4643 110.925 26.4643C110.237 26.4643 109.586 26.6397 108.99 26.9904C108.395 27.3217 107.911 27.8283 107.557 28.4714C107.185 29.0949 106.999 29.8549 106.999 30.7123C106.999 31.5696 107.185 32.3101 107.557 32.9531C107.911 33.5767 108.395 34.0833 108.99 34.4341C109.586 34.8043 110.237 34.9797 110.925 34.9797C111.484 34.9797 111.986 34.9017 112.433 34.7459C112.879 34.6095 113.27 34.3951 113.624 34.1418C113.977 33.869 114.294 33.5767 114.554 33.2454L114.74 33.0116V35.8566L114.703 35.8955C114.201 36.3242 113.661 36.6555 113.065 36.8893C112.489 37.1232 111.744 37.2206 110.87 37.2206ZM117.104 37.0257V24.4183H124.51V26.4838H119.281V29.2703H124.175V31.2774H119.281V34.9602H124.51V37.0257H117.104ZM37.772 30.7317C37.772 26.7176 40.8797 23.4635 44.7319 23.4635C48.5654 23.4635 51.6732 26.7176 51.6732 30.7317C51.6732 34.7459 48.5654 38 44.7319 38C40.8797 38 37.772 34.7459 37.772 30.7317ZM44.9179 24.0286H44.5458L43.1687 28.4714H38.7024C38.6652 28.5883 38.628 28.7117 38.5908 28.8416L42.201 31.5696L40.8239 36.0125L41.1216 36.2463L44.7132 33.4988L48.3421 36.2463L48.6398 36.0125L47.2627 31.5891L50.8729 28.8416C50.8357 28.7117 50.7985 28.5883 50.7613 28.4714H46.295L44.9179 24.0286ZM130 25.49C130 25.7109 129.963 25.9187 129.888 26.1136C129.802 26.3084 129.696 26.4773 129.572 26.6202C129.436 26.7501 129.274 26.854 129.088 26.932C128.902 27.0099 128.704 27.0489 128.493 27.0489C128.282 27.0489 128.083 27.0099 127.897 26.932C127.711 26.854 127.55 26.7501 127.413 26.6202C127.289 26.4773 127.184 26.3084 127.097 26.1136C127.023 25.9187 126.985 25.7109 126.985 25.49C126.985 25.2562 127.023 25.0418 127.097 24.847C127.184 24.6521 127.289 24.4897 127.413 24.3598C127.55 24.2169 127.711 24.1065 127.897 24.0286C128.083 23.9506 128.282 23.9116 128.493 23.9116C128.704 23.9116 128.902 23.9506 129.088 24.0286C129.274 24.1065 129.436 24.2169 129.572 24.3598C129.696 24.4897 129.802 24.6521 129.888 24.847C129.963 25.0418 130 25.2562 130 25.49ZM129.758 25.49C129.758 25.2952 129.727 25.1133 129.665 24.9444C129.603 24.7755 129.516 24.6326 129.405 24.5157C129.28 24.3858 129.144 24.2884 128.995 24.2234C128.846 24.1585 128.679 24.126 128.493 24.126C128.307 24.126 128.139 24.1585 127.99 24.2234C127.829 24.2884 127.692 24.3858 127.581 24.5157C127.469 24.6326 127.382 24.7755 127.32 24.9444C127.258 25.1133 127.227 25.2952 127.227 25.49C127.227 25.6849 127.258 25.8602 127.32 26.0161C127.382 26.185 127.469 26.3279 127.581 26.4448C127.692 26.5747 127.829 26.6722 127.99 26.7371C128.139 26.8021 128.307 26.8345 128.493 26.8345C128.679 26.8345 128.846 26.8021 128.995 26.7371C129.144 26.6722 129.28 26.5747 129.405 26.4448C129.516 26.3279 129.603 26.185 129.665 26.0161C129.727 25.8602 129.758 25.6849 129.758 25.49ZM128.697 25.6069L129.2 26.3474H128.846L128.418 25.6459H128.232V26.3474H127.934V24.5157H128.474C128.66 24.5157 128.815 24.5677 128.939 24.6716C129.051 24.7755 129.107 24.9119 129.107 25.0808C129.107 25.2497 129.051 25.3861 128.939 25.49C128.865 25.555 128.784 25.5939 128.697 25.6069ZM128.232 25.3926H128.455C128.567 25.3926 128.654 25.3666 128.716 25.3146C128.778 25.2627 128.809 25.1847 128.809 25.0808C128.809 24.9899 128.778 24.9184 128.716 24.8665C128.654 24.8145 128.567 24.7885 128.455 24.7885H128.232V25.3926Z" fill="#1B1B1B"/>
<path d="M58.3633 12H60.2822L62.3089 16.9096H62.3951L64.4218 12H66.3408V19.3072H64.8315V14.5511H64.7704L62.8659 19.2716H61.8382L59.9336 14.5333H59.8725V19.3072H58.3633V12Z" fill="#1B1B1B"/>
<path d="M68.2421 14.701H69.9957C70.5802 14.701 71.0833 14.7949 71.5049 14.9828C71.929 15.1684 72.256 15.4312 72.486 15.7714C72.7159 16.1115 72.8297 16.5123 72.8273 16.9738C72.8297 17.4329 72.7159 17.8384 72.486 18.1905C72.256 18.5401 71.929 18.8137 71.5049 19.0111C71.0833 19.2085 70.5802 19.3072 69.9957 19.3072H67.2467V12H68.7991V18.0656H69.9957C70.276 18.0656 70.512 18.0156 70.7036 17.9157C70.8953 17.8134 71.0402 17.6791 71.1384 17.5125C71.239 17.3437 71.2881 17.1593 71.2857 16.9595C71.2881 16.6693 71.1779 16.4243 70.9551 16.2245C70.7347 16.0223 70.4149 15.9212 69.9957 15.9212H68.2421V14.701ZM74.9798 12V19.3072H73.4274V12H74.9798Z" fill="#1B1B1B"/>
<path d="M77.7925 19.3072V12H79.3484V15.015H82.5071V12H84.0595V19.3072H82.5071V16.2887H79.3484V19.3072H77.7925Z" fill="#1B1B1B"/>
<path d="M86.2061 19.3072H84.5387L87.0793 12H89.0844L91.6214 19.3072H89.954L88.1106 13.6698H88.0531L86.2061 19.3072ZM86.1018 16.435H90.0403V17.641H86.1018V16.435Z" fill="#1B1B1B"/>
</svg>
