<svg width="162" height="101" viewBox="0 0 162 101" fill="none" xmlns="http://www.w3.org/2000/svg">
<g filter="url(#filter0_b_698_510)">
<rect x="0.645051" y="0.302105" width="157.143" height="36.1726" rx="9.5" transform="matrix(0.942742 -0.333522 0.347359 0.937732 -0.0680046 52.9781)" stroke="#BFBFC1"/>
</g>
<path d="M22.4424 69.7179L19.4203 61.6236L26.0156 59.272L29.0377 67.3662L27.6757 67.8519L25.1279 61.028L21.2566 62.4083L23.8044 69.2322L22.4424 69.7179ZM34.1263 65.7429C33.3125 66.033 32.5498 66.1055 31.838 65.9601C31.1249 65.811 30.4937 65.4755 29.9446 64.9537C29.3992 64.4306 28.9705 63.7512 28.6585 62.9155C28.3465 62.0799 28.2267 61.2903 28.2992 60.5469C28.3755 59.8021 28.6379 59.1501 29.0866 58.591C29.5339 58.0281 30.1645 57.6016 30.9783 57.3114C31.7921 57.0212 32.5556 56.9507 33.2687 57.0998C33.9842 57.2438 34.6147 57.5774 35.1601 58.1005C35.7093 58.6223 36.1399 59.301 36.4519 60.1367C36.7639 60.9723 36.8817 61.7626 36.8055 62.5074C36.733 63.2508 36.4712 63.9047 36.0201 64.4689C35.5714 65.028 34.9402 65.4527 34.1263 65.7429ZM33.6499 64.4669C34.1977 64.2759 34.6069 63.9941 34.8776 63.6215C35.1522 63.2476 35.2973 62.8073 35.313 62.3007C35.3326 61.7927 35.2318 61.2426 35.0107 60.6505C34.7897 60.0585 34.5057 59.578 34.1588 59.2091C33.8142 58.8352 33.4137 58.5916 32.9573 58.4783C32.5047 58.3637 32.0038 58.4 31.4547 58.5873C30.907 58.7784 30.4978 59.0602 30.227 59.4327C29.9563 59.8053 29.8111 60.2456 29.7916 60.7536C29.7759 61.2602 29.8785 61.8096 30.0996 62.4017C30.3206 62.9938 30.6035 63.4768 30.948 63.8507C31.2911 64.2209 31.689 64.4633 32.1417 64.578C32.5981 64.6912 33.1008 64.6542 33.6499 64.4669ZM42.5925 62.7241C41.7787 63.0143 41.0159 63.0867 40.3042 62.9413C39.5911 62.7922 38.9599 62.4568 38.4108 61.935C37.8654 61.4118 37.4367 60.7324 37.1246 59.8968C36.8126 59.0611 36.6929 58.2716 36.7654 57.5281C36.8417 56.7833 37.1041 56.1314 37.5528 55.5722C38.0001 55.0093 38.6307 54.5828 39.4445 54.2926C40.3827 53.9581 41.2519 53.9136 42.0522 54.159C42.8511 54.4006 43.5244 54.8718 44.0721 55.5725L42.8394 56.4388C42.4838 55.9668 42.0606 55.6507 41.5695 55.4903C41.077 55.3262 40.5275 55.3523 39.9209 55.5686C39.3746 55.7634 38.9642 56.0477 38.6897 56.4216C38.4189 56.7942 38.2738 57.2344 38.2543 57.7425C38.2371 58.2454 38.3372 58.7935 38.5545 59.387C38.7755 59.979 39.059 60.4639 39.405 60.8416C39.7533 61.2142 40.1557 61.4572 40.6121 61.5704C41.0685 61.6837 41.5698 61.6429 42.1161 61.4482C42.7227 61.2319 43.1603 60.906 43.4289 60.4705C43.6975 60.035 43.813 59.5268 43.7754 58.9457L45.2893 58.8327C45.3321 59.7134 45.1282 60.4994 44.6777 61.1908C44.2257 61.8785 43.5307 62.3896 42.5925 62.7241ZM47.4326 60.8072L44.4105 52.713L45.6369 52.2757L50.592 57.0056L51.2657 50.2687L52.4921 49.8314L55.5142 57.9256L54.2426 58.379L52.3055 53.1908L51.7447 59.2697L51.2021 59.4632L46.7727 55.1637L48.7098 60.3518L47.4326 60.8072ZM60.6066 56.3009C59.7928 56.5911 59.0301 56.6635 58.3183 56.5181C57.6052 56.369 56.974 56.0336 56.4249 55.5118C55.8795 54.9886 55.4508 54.3092 55.1388 53.4736C54.8268 52.6379 54.707 51.8484 54.7795 51.1049C54.8558 50.3601 55.1182 49.7082 55.5669 49.149C56.0142 48.5861 56.6448 48.1596 57.4586 47.8694C58.2724 47.5793 59.0359 47.5087 59.749 47.6578C60.4645 47.8019 61.095 48.1354 61.6404 48.6586C62.1896 49.1804 62.6202 49.8591 62.9322 50.6947C63.2442 51.5304 63.362 52.3206 63.2858 53.0654C63.2133 53.8089 62.9515 54.4627 62.5004 55.027C62.0517 55.5861 61.4205 56.0107 60.6066 56.3009ZM60.1302 55.025C60.678 54.8339 61.0872 54.5521 61.3579 54.1796C61.6325 53.8057 61.7776 53.3654 61.7933 52.8587C61.8129 52.3507 61.7121 51.8007 61.491 51.2086C61.27 50.6165 60.986 50.1361 60.6391 49.7672C60.2945 49.3932 59.894 49.1496 59.4376 49.0364C58.985 48.9218 58.4841 48.9581 57.935 49.1454C57.3873 49.3364 56.9781 49.6182 56.7073 49.9908C56.4366 50.3633 56.2914 50.8036 56.2719 51.3116C56.2562 51.8183 56.3588 52.3677 56.5799 52.9597C56.8009 53.5518 57.0838 54.0348 57.4283 54.4088C57.7714 54.779 58.1693 55.0214 58.622 55.136C59.0784 55.2493 59.5811 55.2123 60.1302 55.025ZM67.3028 53.7222L64.755 46.8984L62.1214 47.8374L61.6471 46.5671L68.2763 44.2033L68.7506 45.4737L66.117 46.4127L68.6648 53.2366L67.3028 53.7222ZM72.202 51.9753L69.1799 43.8811L72.5425 42.6821C72.6216 42.6539 72.7248 42.6214 72.8519 42.5845C72.9776 42.544 73.0967 42.5142 73.2092 42.4954C73.7068 42.3986 74.1529 42.4158 74.5476 42.5468C74.9461 42.6764 75.2874 42.8987 75.5714 43.2135C75.8579 43.5233 76.0843 43.9011 76.2508 44.3471C76.4159 44.7893 76.4917 45.2208 76.4781 45.6418C76.4631 46.059 76.3459 46.4427 76.1265 46.7926C75.9108 47.1413 75.5827 47.4345 75.1421 47.6723C75.0422 47.7249 74.9296 47.7778 74.8043 47.8309C74.6828 47.8828 74.5843 47.9221 74.509 47.949L72.5084 48.6623L73.564 51.4897L72.202 51.9753ZM72.0362 47.3976L73.9803 46.7044C74.0556 46.6775 74.139 46.6436 74.2304 46.6025C74.3218 46.5614 74.4028 46.5155 74.4736 46.4648C74.6786 46.328 74.8186 46.1656 74.8936 45.9775C74.9723 45.7881 75.0044 45.594 74.99 45.3954C74.9794 45.1953 74.9419 45.0091 74.8775 44.8368C74.8131 44.6644 74.7191 44.4983 74.5955 44.3386C74.4742 44.1738 74.321 44.0437 74.136 43.9483C73.9547 43.8516 73.7405 43.8154 73.4935 43.8398C73.406 43.8456 73.3144 43.8633 73.2188 43.8932C73.1218 43.9193 73.0357 43.9457 72.9603 43.9726L71.0162 44.6658L72.0362 47.3976ZM79.4209 49.4013L76.3988 41.3071L81.6547 39.4331L82.129 40.7034L78.2351 42.0918L78.9801 44.0873L82.1958 42.9407L82.6701 44.211L79.4544 45.3576L80.3086 47.6454L84.2025 46.2569L84.6768 47.5273L79.4209 49.4013ZM87.9881 46.3466L85.4403 39.5227L82.8067 40.4617L82.3324 39.1914L88.9616 36.8277L89.4359 38.098L86.8023 39.037L89.3501 45.8609L87.9881 46.3466ZM92.876 44.6037L89.8539 36.5095L91.2159 36.0238L92.2715 38.8512L94.2722 38.1378C94.3475 38.111 94.4507 38.0785 94.5816 38.0403C94.7111 37.9983 94.832 37.9679 94.9445 37.9491C95.4383 37.8537 95.8826 37.8715 96.2773 38.0025C96.6758 38.1322 97.017 38.3544 97.3011 38.6693C97.5875 38.979 97.8133 39.355 97.9784 39.7972C98.1449 40.2431 98.2213 40.6766 98.2077 41.0975C98.1965 41.5134 98.0812 41.8964 97.8618 42.2464C97.6462 42.595 97.318 42.8882 96.8774 43.126C96.7775 43.1786 96.6649 43.2315 96.5396 43.2847C96.4181 43.3365 96.3178 43.3765 96.2386 43.4047L92.876 44.6037ZM93.7637 42.8477L95.7078 42.1545C95.7869 42.1263 95.8703 42.0923 95.9579 42.0526C96.0493 42.0115 96.133 41.9668 96.2089 41.9185C96.4102 41.7831 96.5483 41.6213 96.6232 41.4332C96.7019 41.2438 96.7341 41.0498 96.7197 40.8511C96.7076 40.6473 96.6694 40.4592 96.6051 40.2869C96.5407 40.1145 96.4467 39.9484 96.323 39.7887C96.2031 39.6276 96.0506 39.4994 95.8656 39.404C95.6843 39.3073 95.4721 39.2705 95.2288 39.2935C95.1375 39.3006 95.0434 39.3172 94.9464 39.3433C94.8532 39.368 94.767 39.3945 94.6879 39.4227L92.7438 40.1159L93.7637 42.8477ZM102.468 41.1834L99.4462 33.0892L100.808 32.6036L102.08 36.0099L105.934 34.6356L104.663 31.2292L106.019 30.7456L109.041 38.8398L107.685 39.3235L106.409 35.9059L102.554 37.2802L103.83 40.6978L102.468 41.1834ZM110.06 38.4764L109.604 29.4673L111.599 28.756L117.187 35.9353L115.785 36.4351L110.745 30.003L111.051 29.8942L111.462 37.9766L110.06 38.4764ZM110.835 36.2128L110.363 34.9481L114.636 33.4247L115.108 34.6894L110.835 36.2128ZM120.471 34.7642L117.449 26.6699L118.811 26.1843L120.083 29.5906L123.937 28.2163L122.666 24.81L124.022 24.3263L127.044 32.4206L125.688 32.9042L124.412 29.4866L120.557 30.861L121.833 34.2785L120.471 34.7642ZM128.063 32.0571L127.607 23.048L129.602 22.3367L135.19 29.5161L133.788 30.0158L128.748 23.5837L129.054 23.4749L129.465 31.5574L128.063 32.0571ZM128.838 29.7936L128.366 28.5288L132.639 27.0054L133.111 28.2701L128.838 29.7936ZM139.496 28.1719C138.682 28.462 137.919 28.5345 137.207 28.3891C136.494 28.24 135.863 27.9045 135.314 27.3827C134.768 26.8596 134.34 26.1802 134.028 25.3445C133.716 24.5089 133.596 23.7193 133.668 22.9759C133.745 22.2311 134.007 21.5791 134.456 21.02C134.903 20.4571 135.534 20.0306 136.348 19.7404C137.286 19.4059 138.155 19.3613 138.955 19.6067C139.754 19.8484 140.428 20.3196 140.975 21.0202L139.742 21.8865C139.387 21.4146 138.964 21.0984 138.473 20.9381C137.98 20.774 137.431 20.8001 136.824 21.0163C136.278 21.2111 135.867 21.4955 135.593 21.8694C135.322 22.2419 135.177 22.6822 135.157 23.1902C135.14 23.6931 135.24 24.2413 135.458 24.8347C135.679 25.4268 135.962 25.9117 136.308 26.2894C136.656 26.662 137.059 26.9049 137.515 27.0182C137.972 27.1315 138.473 27.0907 139.019 26.8959C139.626 26.6796 140.063 26.3537 140.332 25.9183C140.601 25.4828 140.716 24.9745 140.678 24.3935L142.192 24.2804C142.235 25.1611 142.031 25.9472 141.581 26.6386C141.129 27.3263 140.434 27.8374 139.496 28.1719Z" fill="white"/>
<path d="M86.2431 60.5379C85.995 60.4193 85.6956 60.5254 85.5742 60.7748C85.4529 61.0242 85.5557 61.3225 85.8038 61.441L86.2431 60.5379ZM103.059 100.243C103.191 100.484 103.494 100.571 103.737 100.437L107.695 98.2511C107.938 98.1169 108.028 97.8125 107.896 97.5712C107.765 97.3298 107.461 97.2429 107.219 97.3771L103.701 99.3201L101.796 95.824C101.665 95.5826 101.362 95.4957 101.119 95.6299C100.876 95.764 100.785 96.0684 100.917 96.3098L103.059 100.243ZM85.8038 61.441C94.2876 65.4945 100.064 70.0406 102.993 76.0556C105.919 82.0626 106.053 89.6371 103.02 99.8627L103.978 100.137C107.049 89.7859 106.97 81.9276 103.893 75.6098C100.82 69.3001 94.8065 64.6294 86.2431 60.5379L85.8038 61.441Z" fill="#BFBFC1"/>
<defs>
<filter id="filter0_b_698_510" x="-29.125" y="-29.215" width="220.25" height="146.032" filterUnits="userSpaceOnUse" color-interpolation-filters="sRGB">
<feFlood flood-opacity="0" result="BackgroundImageFix"/>
<feGaussianBlur in="BackgroundImageFix" stdDeviation="16"/>
<feComposite in2="SourceAlpha" operator="in" result="effect1_backgroundBlur_698_510"/>
<feBlend mode="normal" in="SourceGraphic" in2="effect1_backgroundBlur_698_510" result="shape"/>
</filter>
</defs>
</svg>
