<svg width="209" height="107" viewBox="0 0 209 107" fill="none" xmlns="http://www.w3.org/2000/svg">
<g filter="url(#filter0_b_662_869)">
<rect x="0.641486" y="0.298511" width="207.565" height="36.9373" rx="9.5" transform="matrix(0.939631 -0.34219 0.343342 0.939211 -0.0637652 71.6066)" stroke="#BFBFC1"/>
</g>
<path d="M25.5048 88.0098L21.5495 77.1901L30.3219 73.9955L34.2772 84.8152L32.4656 85.4749L29.1311 76.3533L23.9819 78.2285L27.3164 87.3501L25.5048 88.0098ZM41.0443 82.6062C39.9618 83.0004 38.9487 83.1026 38.0048 82.9128C37.0591 82.718 36.2235 82.273 35.4981 81.578C34.7777 80.8811 34.2133 79.9741 33.805 78.8571C33.3966 77.74 33.2432 76.6834 33.3447 75.6872C33.4511 74.6892 33.8042 73.8143 34.4038 73.0623C35.0016 72.3054 35.8417 71.7299 36.9242 71.3357C38.0066 70.9415 39.0207 70.8418 39.9664 71.0366C40.9153 71.2246 41.75 71.667 42.4704 72.3639C43.1958 73.059 43.7627 73.965 44.171 75.082C44.5793 76.1991 44.7303 77.2566 44.6238 78.2546C44.5223 79.2508 44.1702 80.1283 43.5674 80.887C42.9678 81.6389 42.1267 82.212 41.0443 82.6062ZM40.4208 80.9006C41.1493 80.641 41.6945 80.2608 42.0566 79.76C42.4237 79.2573 42.6194 78.6667 42.6439 77.988C42.6734 77.3075 42.5435 76.5715 42.2542 75.7801C41.9648 74.9887 41.5912 74.3471 41.1332 73.8555C40.6784 73.357 40.1485 73.0335 39.5433 72.8849C38.9432 72.7346 38.278 72.7867 37.5477 73.0413C36.8192 73.3009 36.2739 73.6811 35.9119 74.1819C35.5498 74.6827 35.354 75.2733 35.3246 75.9538C35.3001 76.6325 35.4325 77.3676 35.7218 78.159C36.0112 78.9504 36.3832 79.5954 36.838 80.0939C37.291 80.5873 37.8175 80.9093 38.4176 81.0596C39.0227 81.2082 39.6905 81.1552 40.4208 80.9006ZM52.3052 78.5053C51.2227 78.8995 50.2096 79.0017 49.2657 78.8119C48.32 78.617 47.4844 78.1721 46.759 77.477C46.0386 76.7801 45.4742 75.8732 45.0659 74.7561C44.6575 73.6391 44.5041 72.5825 44.6056 71.5863C44.712 70.5883 45.0651 69.7133 45.6647 68.9614C46.2625 68.2045 47.1026 67.6289 48.1851 67.2347C49.4329 66.7803 50.5872 66.7147 51.648 67.0379C52.7069 67.3561 53.5975 67.9825 54.3196 68.9171L52.677 70.0858C52.2083 69.4561 51.6486 69.0356 50.9978 68.8242C50.3451 68.6078 49.6154 68.6465 48.8086 68.9403C48.0819 69.205 47.5351 69.5886 47.168 70.0912C46.8059 70.592 46.6102 71.1827 46.5807 71.8632C46.5544 72.5368 46.6834 73.2703 46.9677 74.0636C47.257 74.855 47.63 75.5025 48.0866 76.0059C48.5464 76.5026 49.0789 76.8252 49.684 76.9737C50.2891 77.1223 50.955 77.0643 51.6817 76.7997C52.4885 76.5058 53.0717 76.0664 53.4314 75.4813C53.7911 74.8963 53.9479 74.2148 53.9021 73.4369L55.9127 73.2751C55.9633 74.4543 55.6871 75.5084 55.0842 76.4375C54.4793 77.3616 53.553 78.0508 52.3052 78.5053ZM58.7443 75.9049L54.789 65.0852L56.4202 64.4911L62.9653 70.7918L63.9072 61.7646L65.5384 61.1705L69.4937 71.9902L67.8023 72.6062L65.2671 65.671L64.4798 73.8162L63.7582 74.079L57.9079 68.3511L60.4431 75.2862L58.7443 75.9049ZM76.2658 69.7794C75.1833 70.1736 74.1701 70.2758 73.2263 70.086C72.2806 69.8912 71.445 69.4463 70.7196 68.7512C69.9992 68.0543 69.4348 67.1473 69.0265 66.0303C68.6181 64.9133 68.4647 63.8567 68.5661 62.8605C68.6726 61.8625 69.0257 60.9875 69.6253 60.2356C70.2231 59.4787 71.0632 58.9031 72.1457 58.5089C73.2281 58.1147 74.2422 58.015 75.1879 58.2098C76.1368 58.3978 76.9714 58.8402 77.6918 59.5371C78.4173 60.2322 78.9841 61.1382 79.3925 62.2553C79.8008 63.3723 79.9518 64.4298 79.8453 65.4279C79.7438 66.424 79.3917 67.3015 78.7889 68.0603C78.1893 68.8122 77.3482 69.3852 76.2658 69.7794ZM75.6423 68.0738C76.3707 67.8142 76.916 67.434 77.2781 66.9332C77.6452 66.4306 77.8409 65.8399 77.8654 65.1613C77.8949 64.4808 77.765 63.7448 77.4756 62.9533C77.1863 62.1619 76.8127 61.5204 76.3547 61.0287C75.8999 60.5303 75.3699 60.2067 74.7648 60.0582C74.1647 59.9078 73.4995 59.9599 72.7692 60.2145C72.0407 60.4741 71.4954 60.8543 71.1334 61.3551C70.7713 61.8559 70.5755 62.4466 70.546 63.1271C70.5216 63.8057 70.654 64.5408 70.9433 65.3322C71.2326 66.1237 71.6047 66.7686 72.0595 67.2671C72.5124 67.7606 73.039 68.0825 73.6391 68.2329C74.2442 68.3815 74.9119 68.3284 75.6423 68.0738ZM85.1736 66.28L81.8391 57.1584L78.3362 58.4341L77.7154 56.736L86.5329 53.5249L87.1537 55.223L83.6507 56.4986L86.9852 65.6202L85.1736 66.28ZM91.6901 63.9069L87.7348 53.0872L92.2074 51.4583C92.3127 51.42 92.4498 51.3757 92.6189 51.3255C92.7861 51.2703 92.9444 51.2297 93.0939 51.2036C93.7551 51.0707 94.3472 51.0906 94.8704 51.2633C95.3985 51.4343 95.85 51.7296 96.2249 52.1493C96.603 52.5622 96.901 53.0667 97.1189 53.6628C97.3349 54.2538 97.4325 54.8313 97.4115 55.3952C97.3887 55.9541 97.2304 56.4687 96.9366 56.9389C96.6479 57.4073 96.2102 57.8023 95.6236 58.1237C95.4906 58.1949 95.3408 58.2665 95.174 58.3385C95.0123 58.4088 94.8814 58.4622 94.7811 58.4987L92.1201 59.4677L93.5017 63.2471L91.6901 63.9069ZM91.5021 57.7772L94.0879 56.8355C94.1882 56.799 94.2991 56.7529 94.4207 56.6972C94.5423 56.6416 94.6503 56.5796 94.7445 56.5112C95.0177 56.3266 95.2047 56.108 95.3056 55.8557C95.4114 55.6014 95.4554 55.3413 95.4377 55.0753C95.4249 54.8075 95.3765 54.5584 95.2922 54.328C95.208 54.0976 95.0843 53.8758 94.9213 53.6628C94.7614 53.4429 94.559 53.2697 94.314 53.1432C94.074 53.0149 93.79 52.9679 93.4618 53.0023C93.3456 53.0106 93.2239 53.035 93.0968 53.0756C92.9678 53.1112 92.8533 53.1473 92.753 53.1838L90.1672 54.1255L91.5021 57.7772ZM101.292 60.4101L97.3366 49.5904L104.328 47.0445L104.948 48.7426L99.769 50.6288L100.744 53.2961L105.021 51.7385L105.642 53.4366L101.365 54.9942L102.483 58.0523L107.662 56.1661L108.283 57.8642L101.292 60.4101ZM112.687 56.2603L109.353 47.1386L105.85 48.4143L105.229 46.7162L114.046 43.5051L114.667 45.2032L111.164 46.4789L114.499 55.6005L112.687 56.2603ZM119.189 53.8926L115.233 43.0729L117.045 42.4132L118.427 46.1925L121.088 45.2235C121.188 45.187 121.325 45.1427 121.499 45.0907C121.671 45.0336 121.832 44.9921 121.982 44.966C122.638 44.8349 123.227 44.8557 123.751 45.0285C124.279 45.1994 124.73 45.4947 125.105 45.9144C125.483 46.3273 125.78 46.8293 125.996 47.4204C126.214 48.0165 126.313 48.5965 126.292 49.1603C126.274 49.7174 126.118 50.2311 125.824 50.7013C125.536 51.1697 125.098 51.5646 124.511 51.8861C124.378 51.9573 124.228 52.0289 124.062 52.1009C123.9 52.1712 123.767 52.2255 123.661 52.2638L119.189 53.8926ZM120.379 51.5348L122.965 50.5931C123.071 50.5547 123.181 50.5087 123.298 50.4548C123.42 50.3992 123.531 50.3388 123.632 50.2736C123.9 50.0908 124.085 49.8732 124.186 49.6208C124.292 49.3665 124.336 49.1064 124.318 48.8405C124.303 48.5676 124.254 48.316 124.17 48.0856C124.085 47.8552 123.962 47.6334 123.799 47.4204C123.641 47.2055 123.439 47.0348 123.194 46.9083C122.954 46.78 122.673 46.7322 122.349 46.7647C122.228 46.7748 122.103 46.7976 121.974 46.8332C121.85 46.867 121.736 46.9031 121.63 46.9414L119.045 47.8831L120.379 51.5348ZM131.947 49.2462L127.992 38.4265L129.804 37.7667L131.468 42.32L136.595 40.453L134.93 35.8997L136.734 35.2427L140.69 46.0624L138.886 46.7195L137.216 42.1511L132.089 44.0181L133.759 48.5864L131.947 49.2462ZM142.046 45.5687L141.503 33.5062L144.156 32.5398L151.524 42.1167L149.66 42.7956L143.014 34.2158L143.42 34.068L143.91 44.8898L142.046 45.5687ZM143.09 42.5319L142.472 40.8413L148.155 38.7717L148.773 40.4623L143.09 42.5319ZM155.893 40.5257L151.938 29.706L153.75 29.0462L155.414 33.5995L160.541 31.7326L158.876 27.1793L160.68 26.5223L164.636 37.342L162.832 37.999L161.162 33.4306L156.035 35.2976L157.705 39.866L155.893 40.5257ZM165.991 36.8482L165.449 24.7857L168.102 23.8193L175.47 33.3962L173.606 34.0751L166.96 25.4953L167.366 25.3475L167.856 36.1693L165.991 36.8482ZM167.036 33.8114L166.418 32.1208L172.101 30.0512L172.719 31.7418L167.036 33.8114ZM181.196 31.5665C180.114 31.9607 179.1 32.0629 178.157 31.8731C177.211 31.6783 176.375 31.2333 175.65 30.5383C174.93 29.8414 174.365 28.9344 173.957 27.8174C173.548 26.7003 173.395 25.6437 173.496 24.6475C173.603 23.6495 173.956 22.7745 174.556 22.0226C175.153 21.2657 175.994 20.6902 177.076 20.296C178.324 19.8415 179.478 19.7759 180.539 20.0991C181.598 20.4173 182.488 21.0437 183.211 21.9783L181.568 23.147C181.099 22.5173 180.54 22.0968 179.889 21.8854C179.236 21.669 178.506 21.7077 177.7 22.0016C176.973 22.2662 176.426 22.6498 176.059 23.1524C175.697 23.6532 175.501 24.2439 175.472 24.9244C175.445 25.598 175.574 26.3315 175.859 27.1248C176.148 27.9162 176.521 28.5637 176.978 29.0671C177.437 29.5638 177.97 29.8864 178.575 30.035C179.18 30.1835 179.846 30.1255 180.573 29.8609C181.379 29.567 181.963 29.1276 182.322 28.5425C182.682 27.9575 182.839 27.276 182.793 26.4981L184.804 26.3363C184.854 27.5155 184.578 28.5696 183.975 29.4987C183.37 30.4228 182.444 31.1121 181.196 31.5665Z" fill="#EFEFF1"/>
<path d="M126.951 65.9276C126.704 65.8065 126.403 65.9096 126.28 66.1578C126.156 66.406 126.256 66.7053 126.502 66.8263L126.951 65.9276ZM143.721 106.557C143.854 106.797 144.158 106.882 144.4 106.747L148.343 104.534C148.585 104.398 148.673 104.093 148.54 103.853C148.406 103.613 148.102 103.528 147.86 103.663L144.356 105.63L142.427 102.147C142.294 101.907 141.99 101.822 141.748 101.957C141.506 102.093 141.418 102.398 141.551 102.639L143.721 106.557ZM126.502 66.8263C134.964 70.9749 140.728 75.6286 143.652 81.79C146.574 87.9457 146.707 95.7064 143.679 106.177L144.639 106.445C147.703 95.8518 147.623 87.8143 144.557 81.3534C141.493 74.8982 135.495 70.1169 126.951 65.9276L126.502 66.8263Z" fill="#BFBFC1"/>
<defs>
<filter id="filter0_b_662_869" x="-29.152" y="-29.1594" width="267.304" height="165.319" filterUnits="userSpaceOnUse" color-interpolation-filters="sRGB">
<feFlood flood-opacity="0" result="BackgroundImageFix"/>
<feGaussianBlur in="BackgroundImageFix" stdDeviation="16"/>
<feComposite in2="SourceAlpha" operator="in" result="effect1_backgroundBlur_662_869"/>
<feBlend mode="normal" in="SourceGraphic" in2="effect1_backgroundBlur_662_869" result="shape"/>
</filter>
</defs>
</svg>
