<svg width="288" height="35" viewBox="0 0 288 35" fill="none" xmlns="http://www.w3.org/2000/svg">
<path d="M26.8632 34.9973C23.924 34.999 21.0504 34.1203 18.6059 32.4721C16.1615 30.824 14.2562 28.4806 13.1312 25.7386C12.0062 22.9966 11.712 19.9791 12.2859 17.0682C12.8598 14.1572 14.276 11.4836 16.3552 9.38577L21.2971 4.39533C24.084 1.58105 27.8638 0 31.8051 0C35.7464 0 39.5262 1.58105 42.3131 4.39533C45.1 7.20961 46.6657 11.0266 46.6657 15.0066C46.6657 18.9866 45.1 22.8036 42.3131 25.6179L37.3712 30.6083C35.9944 32.0056 34.3567 33.1131 32.5529 33.8665C30.7491 34.6199 28.8152 35.0042 26.8632 34.9973ZM23.6744 6.78286L18.7325 11.7733C17.6422 12.8473 16.774 14.1292 16.178 15.5447C15.5821 16.9601 15.2704 18.481 15.261 20.019C15.2515 21.557 15.5445 23.0816 16.123 24.5045C16.7015 25.9273 17.554 27.2199 18.631 28.3075C19.708 29.3951 20.9881 30.2559 22.397 30.8401C23.806 31.4243 25.3158 31.7202 26.8389 31.7107C28.3619 31.7011 29.868 31.3863 31.2696 30.7846C32.6713 30.1828 33.9408 29.306 35.0043 28.205L39.9462 23.2146C42.06 21.0264 43.2348 18.0853 43.216 15.0285C43.1972 11.9718 41.9864 9.0456 39.846 6.88409C37.7055 4.72259 34.8078 3.49989 31.7808 3.48094C28.7537 3.46199 25.8412 4.64832 23.6744 6.78286Z" fill="#9373EA"/>
<path d="M14.8558 34.9999C11.9178 34.9992 9.04583 34.1189 6.60303 32.4704C4.16023 30.8218 2.25621 28.479 1.13162 25.738C0.00702217 22.997 -0.287668 19.9808 0.28479 17.0708C0.857249 14.1607 2.27116 11.4873 4.34782 9.38842L9.28971 4.39798C11.3672 2.29834 14.0147 0.868257 16.8974 0.288725C19.78 -0.290808 22.7681 0.00626168 25.4834 1.14234C28.1988 2.27841 30.5194 4.20241 32.1514 6.67085C33.7835 9.13928 34.6538 12.0412 34.652 15.0092C34.6589 16.9804 34.2783 18.9333 33.5322 20.7548C32.7861 22.5763 31.6894 24.2302 30.3057 25.6205L25.3639 30.6109C23.987 32.0082 22.3493 33.1157 20.5455 33.8691C18.7417 34.6225 16.8078 35.0069 14.8558 34.9999ZM19.7977 3.38675C18.2881 3.38512 16.7929 3.68451 15.3981 4.26775C14.0033 4.851 12.7362 5.70661 11.6696 6.78551L6.72773 11.776C4.61396 13.9641 3.43917 16.9052 3.45794 19.962C3.4767 23.0187 4.68751 25.9449 6.82798 28.1064C8.96845 30.2679 11.8662 31.4906 14.8932 31.5096C17.9202 31.5285 20.8327 30.3422 22.9995 28.2077L27.9414 23.2172C29.551 21.593 30.6474 19.5232 31.0918 17.2696C31.5361 15.016 31.3086 12.68 30.4379 10.557C29.5672 8.43408 28.0924 6.61964 26.2003 5.3433C24.3081 4.06695 22.0836 3.38605 19.8081 3.38675H19.7977Z" fill="#FFB92C"/>
<path d="M22.1309 3.63189C23.4311 3.90343 24.6748 4.4016 25.8061 5.1041C26.9386 4.40286 28.183 3.90562 29.4839 3.63452C28.3803 2.67002 27.1408 1.87702 25.8061 1.28162C24.4728 1.87709 23.2342 2.66913 22.1309 3.63189Z" fill="#DD6C92"/>
<path d="M20.8549 29.9014C19.7233 30.6033 18.4798 31.1015 17.1797 31.3736C18.2831 32.3363 19.5216 33.1284 20.8549 33.7239C22.1887 33.1278 23.428 32.3358 24.5327 31.3736C23.2316 31.102 21.9872 30.6038 20.8549 29.9014Z" fill="#DD6C92"/>
<path d="M74.008 26.6195V17.6288L69.5551 25.167H67.7344L63.3907 17.5947V26.6116H59.4893V11.5983H63.9942L68.7514 20.2816L73.8129 11.5983H77.8497L77.9069 26.6195H74.008Z" fill="#1B1B1B"/>
<path d="M96.413 20.3416H85.1611C85.3396 21.2366 85.8541 22.0273 86.5969 22.5479C87.4297 23.111 88.4174 23.3941 89.419 23.3569C90.1208 23.369 90.8189 23.2515 91.4789 23.0102C92.104 22.7594 92.6728 22.3842 93.1514 21.907L95.4455 24.4285C94.0461 26.0499 92 26.8598 89.3071 26.858C87.7669 26.8887 86.2416 26.5493 84.8568 25.8678C83.6218 25.2568 82.5857 24.3016 81.8709 23.1152C81.1641 21.9076 80.8039 20.5253 80.8305 19.1229C80.8131 17.7257 81.1728 16.3501 81.8709 15.1436C82.5497 13.9743 83.5353 13.0171 84.719 12.3779C85.9557 11.7343 87.3256 11.395 88.7169 11.3877C90.1082 11.3804 91.4815 11.7053 92.7248 12.3359C93.8832 12.9567 94.8416 13.899 95.4871 15.0517C96.183 16.3106 96.534 17.734 96.5041 19.1754C96.5041 19.2253 96.4703 19.6167 96.413 20.3416ZM86.3212 15.5114C85.6456 16.0938 85.2112 16.9112 85.1039 17.8017H92.4309C92.3194 16.9176 91.8865 16.107 91.2163 15.5271C90.5349 14.9524 89.6691 14.6488 88.7817 14.6735C87.8886 14.6457 87.0153 14.943 86.3212 15.5114Z" fill="#1B1B1B"/>
<path d="M116.344 23.0448V29.858H112.333V26.6195H101.882V29.858H97.874V23.0448H98.4827C99.4034 23.0273 100.039 22.4783 100.389 21.3979C100.739 20.3175 100.961 18.7819 101.052 16.791L101.248 11.5983H114.213V23.0448H116.344ZM104.605 20.8411C104.432 21.8077 104.105 22.5422 103.625 23.0448H109.901V15.1651H105.035L104.951 17.0904C104.922 18.3472 104.807 19.6005 104.605 20.8411Z" fill="#1B1B1B"/>
<path d="M119.05 11.5983H123.336V20.5285L130.58 11.5983H134.536V26.6195H130.25V17.6892L123.032 26.6195H119.05V11.5983Z" fill="#1B1B1B"/>
<path d="M149.768 13.0419C151.005 14.1503 151.622 15.8216 151.62 18.0559V26.6264H147.584V24.7563C146.772 26.1571 145.261 26.8575 143.05 26.8575C142.029 26.8821 141.014 26.6814 140.077 26.2692C139.295 25.9273 138.628 25.3645 138.155 24.6486C137.709 23.9502 137.478 23.1339 137.492 22.3031C137.467 21.6673 137.596 21.035 137.868 20.461C138.14 19.8871 138.547 19.3888 139.052 19.0094C140.093 18.2092 141.701 17.809 143.877 17.809H147.305C147.305 16.8609 147.019 16.128 146.447 15.6159C145.875 15.1037 145.019 14.8489 143.877 14.8489C143.082 14.8483 142.292 14.976 141.536 15.2271C140.83 15.4452 140.17 15.7904 139.586 16.2462L138.025 13.2021C138.922 12.5828 139.919 12.1276 140.972 11.8573C142.111 11.539 143.288 11.3791 144.47 11.3819C146.768 11.3819 148.534 11.9352 149.768 13.0419ZM146.091 23.401C146.663 23.0568 147.095 22.5175 147.308 21.8802V20.3437H144.353C142.585 20.3437 141.7 20.9303 141.7 22.1034C141.695 22.3592 141.751 22.6124 141.865 22.8412C141.978 23.07 142.145 23.2676 142.35 23.4167C142.876 23.7698 143.502 23.9412 144.132 23.9053C144.818 23.9221 145.496 23.7476 146.091 23.401Z" fill="#1B1B1B"/>
<path d="M161.935 20.9251H159.701V26.6195H155.383V11.5983H159.701V17.4345H162.024L166.06 11.5983H170.651L165.449 18.8029L171.005 26.6195H165.917L161.935 20.9251Z" fill="#1B1B1B"/>
<path d="M175.409 25.8571C174.203 25.2342 173.193 24.2847 172.491 23.115C171.785 21.9069 171.425 20.525 171.45 19.1227C171.425 17.7195 171.785 16.3367 172.491 15.1277C173.192 13.9551 174.202 13.0028 175.409 12.3777C176.719 11.7263 178.159 11.3876 179.619 11.3876C181.079 11.3876 182.519 11.7263 183.829 12.3777C185.032 13.0037 186.041 13.9525 186.744 15.1198C187.45 16.3288 187.81 17.7116 187.785 19.1148C187.811 20.5198 187.451 21.9046 186.744 23.115C186.045 24.2835 185.041 25.2349 183.842 25.865C182.532 26.5164 181.092 26.8551 179.632 26.8551C178.172 26.8551 176.732 26.5164 175.422 25.865L175.409 25.8571ZM182.349 22.1432C183.06 21.3903 183.414 20.3808 183.412 19.1148C183.411 17.8488 183.056 16.8384 182.349 16.0838C181.999 15.7119 181.576 15.419 181.107 15.2244C180.637 15.0297 180.133 14.9377 179.625 14.9543C179.116 14.9389 178.61 15.0315 178.139 15.2261C177.667 15.4206 177.242 15.7128 176.889 16.0838C176.176 16.8384 175.82 17.8488 175.82 19.1148C175.82 20.3808 176.18 21.3903 176.9 22.1432C177.252 22.5146 177.677 22.8073 178.149 23.0023C178.62 23.1973 179.127 23.2903 179.636 23.2752C180.141 23.2899 180.644 23.1967 181.112 23.0016C181.579 22.8065 182.001 22.514 182.349 22.1432Z" fill="#1B1B1B"/>
<path d="M190.75 11.5983H195.036V17.4607H201.508V11.5983H205.82V26.6195H201.508V21.0092H195.036V26.6221H190.75V11.5983Z" fill="#1B1B1B"/>
<path d="M222.436 15.173H217.403V26.6195H213.117V15.173H208.081V11.5983H222.431L222.436 15.173Z" fill="#1B1B1B"/>
<path d="M238.502 20.3416H227.237C227.414 21.2371 227.929 22.028 228.673 22.5479C229.506 23.111 230.493 23.3941 231.495 23.3569C232.198 23.3697 232.898 23.2522 233.56 23.0102C234.185 22.7587 234.753 22.3836 235.232 21.907L237.521 24.4285C236.122 26.0499 234.076 26.8598 231.383 26.858C229.843 26.8887 228.317 26.5493 226.933 25.8678C225.694 25.2584 224.654 24.3031 223.936 23.1152C223.23 21.9076 222.869 20.5253 222.896 19.1229C222.879 17.7257 223.238 16.3501 223.936 15.1436C224.615 13.9743 225.601 13.0171 226.784 12.3779C228.021 11.7343 229.391 11.395 230.782 11.3877C232.174 11.3804 233.547 11.7053 234.79 12.3359C235.952 12.9551 236.915 13.8975 237.563 15.0517C238.256 16.3113 238.604 17.7347 238.572 19.1754C238.572 19.2253 238.546 19.6167 238.502 20.3416ZM228.41 15.5114C227.734 16.0938 227.3 16.9112 227.193 17.8017H234.52C234.407 16.9169 233.972 16.1061 233.3 15.5271C232.619 14.9524 231.753 14.6488 230.865 14.6735C229.969 14.6433 229.093 14.9408 228.397 15.5114H228.41Z" fill="#1B1B1B"/>
<path d="M248.444 20.9251H246.205V26.6195H241.884V11.5983H246.197V17.4345H248.519L252.556 11.5983H257.147L251.945 18.8029L257.503 26.6195H252.426L248.444 20.9251Z" fill="#1B1B1B"/>
<path d="M261.988 25.8616C260.754 25.2383 259.72 24.2736 259.008 23.0799C258.295 21.8862 257.933 20.5126 257.964 19.1193C257.933 17.7255 258.294 16.3514 259.007 15.1571C259.719 13.9629 260.753 12.9978 261.988 12.3743C263.311 11.7002 264.777 11.3604 266.259 11.3841C267.69 11.3507 269.104 11.6919 270.366 12.3743C271.508 13.0042 272.408 14.0019 272.923 15.2083L269.578 17.0233C268.803 15.647 267.688 14.9588 266.233 14.9588C265.716 14.942 265.202 15.0324 264.721 15.2244C264.241 15.4164 263.805 15.7059 263.439 16.0751C262.701 16.8193 262.332 17.834 262.334 19.1193C262.336 20.4045 262.704 21.4184 263.439 22.1608C263.804 22.5303 264.241 22.8202 264.721 23.0127C265.202 23.2052 265.716 23.296 266.233 23.2797C267.707 23.2797 268.822 22.5907 269.578 21.2126L272.923 23.0512C272.393 24.2382 271.496 25.2191 270.366 25.8458C269.107 26.5374 267.691 26.8834 266.259 26.8492C264.777 26.8737 263.312 26.5348 261.988 25.8616Z" fill="#1B1B1B"/>
<path d="M288 15.173H282.967V26.6195H278.681V15.173H273.648V11.5983H288V15.173Z" fill="#1B1B1B"/>
</svg>
