<svg width="21" height="21" viewBox="0 0 21 21" fill="none" xmlns="http://www.w3.org/2000/svg">
<path d="M19.25 10.4683C19.2505 10.6903 19.1951 10.9086 19.0892 11.1021C18.9832 11.2956 18.8304 11.4576 18.6454 11.5724L7.18454 18.7758C6.99132 18.8974 6.77001 18.9637 6.54347 18.968C6.31693 18.9723 6.09338 18.9144 5.89591 18.8003C5.70031 18.688 5.53738 18.5241 5.42386 18.3256C5.31034 18.1271 5.25033 17.9011 5.25 17.6708V3.26567C5.25033 3.03544 5.31034 2.80945 5.42386 2.61094C5.53738 2.41243 5.70031 2.24857 5.89591 2.13621C6.09338 2.02208 6.31693 1.96418 6.54347 1.96849C6.77001 1.9728 6.99132 2.03916 7.18454 2.16073L18.6454 9.36413C18.8304 9.47894 18.9832 9.64096 19.0892 9.83444C19.1951 10.0279 19.2505 10.2463 19.25 10.4683Z" fill="white"/>
</svg>
