<svg width="60" height="60" viewBox="0 0 60 60" fill="none" xmlns="http://www.w3.org/2000/svg">
<g clip-path="url(#clip0_4382_13471)">
<path d="M58.3141 25.8437L56.4327 23.8187C55.2014 22.4935 54.6267 20.6511 54.8744 18.8258L55.2533 16.0362C55.687 12.8442 53.611 9.86908 50.5613 9.31237L47.896 8.82551C46.1521 8.50708 44.6466 7.36837 43.8168 5.7398L42.5483 3.25108C41.0971 0.403227 37.738 -0.732916 34.9561 0.682656L32.5248 1.91994C30.934 2.72951 29.0736 2.72951 27.4827 1.91994L25.0514 0.682656C22.2696 -0.733344 18.9104 0.403227 17.4593 3.25108L16.1907 5.7398C15.361 7.36837 13.8554 8.50708 12.1116 8.82551L9.44627 9.31237C6.39655 9.86951 4.32055 12.8442 4.75384 16.0362L5.1327 18.8258C5.38084 20.6511 4.8057 22.4935 3.57441 23.8187L1.69298 25.8437C-0.460161 28.1605 -0.460161 31.8381 1.69298 34.1549L3.57441 36.1799C4.8057 37.5051 5.38041 39.3471 5.1327 41.1728L4.75384 43.9624C4.32013 47.1544 6.39613 50.1295 9.44627 50.6862L12.1116 51.1731C13.8554 51.4915 15.361 52.6302 16.1907 54.2588L17.4593 56.7475C18.9104 59.5954 22.2696 60.7315 25.0514 59.3159L27.4827 58.0787C29.0736 57.2691 30.934 57.2691 32.5248 58.0787L34.9561 59.3159C37.738 60.7319 41.0971 59.5954 42.5483 56.7475L43.8168 54.2588C44.6466 52.6302 46.1521 51.4915 47.896 51.1731L50.5613 50.6862C53.611 50.1291 55.687 47.1544 55.2533 43.9624L54.8744 41.1728C54.6263 39.3475 55.2014 37.5051 56.4327 36.1799L58.3141 34.1549C60.4668 31.8381 60.4668 28.1605 58.3141 25.8437ZM9.50027 47.6425C8.37355 47.6425 7.46027 46.6915 7.46027 45.5185C7.46027 44.3455 8.37355 43.3945 9.50027 43.3945C10.627 43.3945 11.5403 44.3455 11.5403 45.5185C11.5403 46.6915 10.627 47.6425 9.50027 47.6425Z" fill="#9F9F9F"/>
<path d="M20.7025 31.1097C20.7025 30.9172 20.6339 30.7672 20.4964 30.6597C20.3592 30.5521 20.1175 30.4407 19.7725 30.3258C19.4266 30.2105 19.1446 30.0995 18.9252 29.992C18.2112 29.6444 17.8546 29.167 17.8546 28.5592C17.8546 28.2567 17.9434 27.9897 18.1212 27.7587C18.2991 27.5277 18.5506 27.3477 18.8759 27.2187C19.2012 27.0901 19.5668 27.0254 19.9731 27.0254C20.3691 27.0254 20.7239 27.0957 21.0376 27.2354C21.3514 27.3751 21.5956 27.5748 21.7692 27.8337C21.9432 28.0925 22.0302 28.3878 22.0302 28.7204H20.7064C20.7064 28.498 20.6378 28.3252 20.5006 28.2027C20.3631 28.0801 20.1771 28.0188 19.9426 28.0188C19.7052 28.0188 19.5184 28.0707 19.3808 28.1744C19.2432 28.2781 19.1746 28.4101 19.1746 28.57C19.1746 28.7101 19.2505 28.837 19.4014 28.9505C19.5531 29.0645 19.8188 29.182 20.1994 29.3032C20.5804 29.4245 20.8928 29.5552 21.1371 29.6954C21.7324 30.0352 22.0298 30.5041 22.0298 31.1015C22.0298 31.579 21.8481 31.954 21.4851 32.2265C21.1216 32.4995 20.6236 32.6354 19.9911 32.6354C19.5449 32.6354 19.1408 32.5561 18.7791 32.3971C18.4169 32.2385 18.1448 32.0208 17.9622 31.7448C17.7792 31.4684 17.6875 31.1504 17.6875 30.79H19.0186C19.0186 31.0827 19.0954 31.2987 19.2475 31.4371C19.4001 31.576 19.6482 31.6454 19.9906 31.6454C20.2101 31.6454 20.3832 31.5987 20.5109 31.5048C20.6382 31.4105 20.7016 31.279 20.7016 31.1088L20.7025 31.1097Z" fill="white"/>
<path d="M24.1285 32.562H22.8047V27.1016H24.1285V32.562Z" fill="white"/>
<path d="M26.3742 31.5478H28.6854V32.56H25.0469V27.0996H26.3746L26.3742 31.5478Z" fill="white"/>
<path d="M30.6032 31.0766L31.7003 27.1016H33.1828L31.3296 32.562H29.8772L28.0391 27.1016H29.5103L30.6032 31.0766Z" fill="white"/>
<path d="M37.0017 30.2423H34.9137V31.5478H37.3797V32.56H33.5859V27.0996H37.3869V28.1162H34.9137V29.2678H37.0017V30.2423Z" fill="white"/>
<path d="M39.9683 30.6304H39.2496V32.562H37.9219V27.1016H40.0892C40.7423 27.1016 41.2532 27.2451 41.6209 27.5323C41.989 27.8194 42.1733 28.2253 42.1733 28.7498C42.1733 29.1296 42.0957 29.4441 41.9406 29.694C41.7859 29.9438 41.5429 30.1461 41.2124 30.3008L42.3627 32.5054V32.562H40.9407L39.9683 30.6304ZM39.2496 29.6177H40.0892C40.3416 29.6177 40.531 29.5521 40.6583 29.4206C40.786 29.289 40.8494 29.1056 40.8494 28.8698C40.8494 28.6341 40.7852 28.4494 40.6566 28.3153C40.528 28.1811 40.339 28.1143 40.0892 28.1143H39.2496V29.6177Z" fill="white"/>
<path d="M14.8832 17.1359L14.3373 17.8696L16.3258 19.3516L15.887 19.9409L13.898 18.4589L13.3614 19.1789L12.9062 18.8399L14.4285 16.7969L14.8832 17.1359Z" fill="white"/>
<path d="M17.6627 17.0259L16.9534 17.7407L17.2333 18.2666L16.6804 18.8233L15.3047 15.8833L15.792 15.3926L18.7478 16.7409L18.192 17.3006L17.6627 17.0259ZM16.6744 17.2157L17.136 16.7507L16.1541 16.2394L16.6744 17.2157Z" fill="white"/>
<path d="M20.6445 14.9167C20.627 15.0847 20.5524 15.2634 20.4208 15.4533C20.2892 15.6432 20.1187 15.8142 19.9087 15.9663C19.5851 16.2003 19.2555 16.2882 18.9187 16.2299C18.5822 16.1724 18.2797 15.9714 18.0105 15.629L17.8545 15.4164C17.6784 15.1734 17.5678 14.9296 17.5228 14.6866C17.4778 14.4427 17.4992 14.2143 17.5884 14.0004C17.6775 13.7866 17.8275 13.604 18.0375 13.4523C18.3457 13.2294 18.6354 13.1266 18.9071 13.1446C19.1788 13.1626 19.4304 13.3006 19.6605 13.5599L19.0875 13.9743C18.9671 13.8509 18.8518 13.7849 18.7412 13.7746C18.6311 13.7656 18.5137 13.805 18.3894 13.895C18.2398 14.003 18.1704 14.15 18.1811 14.3347C18.191 14.5212 18.2805 14.7316 18.4498 14.9677L18.5578 15.1173C18.7361 15.3633 18.9122 15.5184 19.0858 15.581C19.2594 15.644 19.4368 15.6097 19.6177 15.479C19.7724 15.3672 19.8632 15.2493 19.889 15.1254L19.6117 14.7419L19.1981 15.041L18.9024 14.633L19.9117 13.9027L20.6445 14.9167Z" fill="white"/>
<path d="M21.5266 14.2417L22.6606 13.6499L22.922 14.1509L21.137 15.083L19.7266 12.3809L20.3784 12.041L21.5266 14.2417Z" fill="white"/>
<path d="M23.8827 13.7893L23.2026 14.0614L22.0703 11.2311L22.7509 10.959L23.8827 13.7893Z" fill="white"/>
<path d="M26.7195 12.945L26.014 13.1348L24.478 11.5851L24.9709 13.4155L24.2616 13.6067L23.4688 10.6641L24.178 10.473L25.7123 12.024L25.2195 10.1931L25.9266 10.002L26.7195 12.945Z" fill="white"/>
<path d="M28.8051 11.3979L27.6574 11.5294L27.7401 12.2529L29.0961 12.0973L29.1604 12.6587L27.0741 12.8983L26.7266 9.87129L28.8167 9.63086L28.8814 10.1944L27.5211 10.3504L27.5944 10.9886L28.7426 10.8566L28.8051 11.3979Z" fill="white"/>
<path d="M32.1528 12.2297L31.1503 12.1363L30.9219 12.6866L30.1406 12.6137L31.5373 9.68359L32.2252 9.74702L33.0626 12.8867L32.2766 12.813L32.1528 12.2297ZM31.3783 11.5877L32.0306 11.649L31.8018 10.566L31.3783 11.5877Z" fill="white"/>
<path d="M35.6503 12.4144L36.5015 10.6676L37.2031 10.8639L35.7592 13.6247L35.0255 13.4194L35.1005 11.6366L34.2476 13.2013L33.5156 12.9969L33.7119 9.88672L34.4156 10.0834L34.2373 12.0184L35.1553 10.2904L35.7562 10.4589L35.6508 12.414L35.6503 12.4144Z" fill="white"/>
<path d="M38.2373 14.1147L37.3309 13.6762L36.925 14.1117L36.2188 13.7697L38.5532 11.5137L39.1746 11.8145L38.8596 15.049L38.1499 14.7048L38.2373 14.1147ZM37.7368 13.2417L38.3265 13.5275L38.491 12.433L37.7368 13.2417Z" fill="white"/>
<path d="M40.4825 14.8868L40.1564 14.6596L39.5401 15.5442L38.9375 15.1246L40.6788 12.623L41.6632 13.3092C41.9598 13.5153 42.1458 13.7429 42.2212 13.991C42.2971 14.2388 42.2512 14.4826 42.0841 14.723C41.9632 14.897 41.8274 15.017 41.6774 15.0822C41.5274 15.1473 41.3525 15.1632 41.1532 15.1298L40.9719 16.5029L40.9539 16.529L40.3076 16.079L40.4821 14.8872L40.4825 14.8868ZM40.4795 14.1959L40.8605 14.4616C40.9754 14.5413 41.0825 14.5709 41.1824 14.5508C41.2822 14.531 41.3696 14.4672 41.4446 14.3592C41.5196 14.2512 41.5492 14.1462 41.5338 14.0442C41.5184 13.9422 41.4536 13.8522 41.3405 13.7729L40.9591 13.5068L40.4795 14.1959Z" fill="white"/>
<path d="M41.125 16.6816L43.2297 14.4766L43.9394 15.1541C44.1344 15.3406 44.2673 15.5518 44.3384 15.7884C44.4096 16.025 44.4121 16.265 44.3461 16.5101C44.2797 16.7544 44.1511 16.9773 43.9617 17.1783L43.8649 17.2794C43.672 17.4813 43.4569 17.6214 43.219 17.6998C42.9803 17.7783 42.7411 17.789 42.4999 17.7316C42.259 17.6737 42.0421 17.5546 41.8501 17.3733L41.125 16.6816ZM43.3694 15.3941L42.0469 16.7797L42.2316 16.9563C42.3837 17.1016 42.5526 17.159 42.7381 17.1286C42.9237 17.0981 43.1187 16.976 43.3227 16.7617L43.4136 16.6661C43.6176 16.4536 43.729 16.2538 43.7504 16.0678C43.7723 15.8818 43.7046 15.7138 43.5477 15.5647L43.3694 15.3941Z" fill="white"/>
<path d="M44.6239 19.2779C44.7087 19.2124 44.752 19.1305 44.7529 19.0341C44.7541 18.9372 44.7216 18.7932 44.6551 18.6029C44.5887 18.4126 44.5424 18.2506 44.5159 18.1178C44.428 17.6866 44.518 17.3674 44.7863 17.1604C44.92 17.0575 45.0679 17.0048 45.2303 17.0039C45.3927 17.0026 45.5573 17.0511 45.724 17.1501C45.8911 17.2482 46.0429 17.3866 46.1804 17.5649C46.3141 17.7376 46.4037 17.9172 46.4479 18.1028C46.4924 18.2879 46.4869 18.4632 46.4316 18.6274C46.3759 18.7919 46.2751 18.9312 46.1281 19.0444L45.6799 18.4645C45.778 18.3891 45.8311 18.2995 45.8389 18.1979C45.8466 18.0959 45.8106 17.9931 45.7309 17.8906C45.6507 17.7874 45.5641 17.7222 45.472 17.6982C45.3794 17.6734 45.2984 17.6879 45.2277 17.7428C45.1656 17.7908 45.1356 17.8675 45.1364 17.9721C45.1373 18.0775 45.1754 18.2339 45.2509 18.4418C45.3263 18.6501 45.3743 18.8318 45.3953 18.9865C45.4467 19.3632 45.3404 19.6538 45.0764 19.8574C44.8656 20.0206 44.6384 20.0686 44.395 20.0026C44.1516 19.9366 43.9227 19.7652 43.7084 19.4884C43.5576 19.2925 43.456 19.0889 43.4037 18.8759C43.3514 18.6634 43.3553 18.4696 43.4153 18.2952C43.4753 18.1212 43.585 17.9729 43.744 17.8499L44.1944 18.4324C44.0654 18.5326 43.996 18.6394 43.9866 18.7538C43.9771 18.8678 44.0303 18.9998 44.146 19.1502C44.2201 19.2466 44.2994 19.3062 44.3843 19.3302C44.4687 19.3538 44.5489 19.3371 44.6239 19.2788V19.2779Z" fill="white"/>
<path d="M26.9822 50.1637L24.8984 49.7377L24.9906 49.2864L26.1572 48.4739C26.4486 48.2527 26.611 48.0629 26.6436 47.9047C26.6697 47.7757 26.6616 47.6724 26.6192 47.594C26.5763 47.5152 26.5022 47.465 26.3959 47.4436C26.2904 47.4222 26.1957 47.4492 26.1117 47.525C26.0282 47.6009 25.9724 47.7063 25.9446 47.84L25.2516 47.6982C25.2893 47.5156 25.3694 47.3549 25.4924 47.219C25.6159 47.0827 25.768 46.9872 25.9484 46.9332C26.1289 46.8787 26.3196 46.8723 26.5206 46.913C26.8433 46.979 27.0769 47.1046 27.2209 47.2893C27.3644 47.474 27.4082 47.7059 27.3512 47.9845C27.3267 48.1023 27.2817 48.212 27.2153 48.3144C27.1489 48.4173 27.0567 48.5202 26.9393 48.6239C26.8223 48.7276 26.6397 48.8613 26.3933 49.0237L25.9163 49.3902L27.0914 49.6306L26.9822 50.1637Z" fill="white"/>
<path d="M29.8908 49.1444C29.8659 49.5558 29.7541 49.867 29.5565 50.0787C29.3581 50.29 29.0911 50.3855 28.7555 50.3654C28.4169 50.344 28.1619 50.2158 27.9905 49.981C27.8191 49.7452 27.7458 49.4234 27.7702 49.015L27.8045 48.4595C27.8293 48.0485 27.9408 47.737 28.1388 47.5252C28.3372 47.3144 28.6046 47.2188 28.9419 47.239C29.2788 47.2595 29.5329 47.3881 29.7048 47.6234C29.8758 47.8587 29.9495 48.1814 29.9246 48.5907L29.8908 49.1444ZM29.2261 48.4561C29.2393 48.2375 29.2205 48.0721 29.1703 47.9607C29.1198 47.8492 29.0328 47.7901 28.9085 47.7828C28.7876 47.7747 28.6963 47.8201 28.6351 47.9165C28.5738 48.013 28.5352 48.163 28.5185 48.367L28.4713 49.144C28.4576 49.3707 28.4761 49.5387 28.5271 49.6475C28.5772 49.7564 28.6646 49.8142 28.7885 49.8215C28.9081 49.8288 28.9998 49.783 29.0632 49.6844C29.1266 49.5858 29.1656 49.4268 29.1806 49.2087L29.2261 48.4561Z" fill="white"/>
<path d="M32.6636 50.211L30.5434 50.3807L30.507 49.9221L31.4014 48.8173C31.6204 48.5241 31.7233 48.2965 31.7104 48.1354C31.7002 48.0043 31.6633 47.907 31.6007 47.8435C31.5382 47.7801 31.4529 47.7527 31.3444 47.7613C31.2373 47.7698 31.1542 47.8225 31.0942 47.919C31.0346 48.0154 31.0106 48.1315 31.0213 48.2678L30.3159 48.3244C30.3013 48.1375 30.3339 47.9618 30.4144 47.7968C30.495 47.6314 30.6146 47.4981 30.7727 47.3953C30.9313 47.2933 31.1126 47.2333 31.3174 47.2174C31.6457 47.1908 31.9046 47.2461 32.094 47.3845C32.283 47.5217 32.3893 47.7325 32.412 48.0167C32.4214 48.1358 32.4086 48.2541 32.3734 48.3711C32.3374 48.4877 32.2779 48.6124 32.1943 48.7444C32.1103 48.8768 31.9719 49.0551 31.7799 49.2801L31.4242 49.7644L32.6194 49.6688L32.6632 50.2114L32.6636 50.211Z" fill="white"/>
<path d="M34.933 48.5331L35.2356 48.4658L35.3538 48.9973L35.0513 49.065L35.1918 49.6958L34.5036 49.8493L34.363 49.2176L33.2123 49.4738L33.0781 49.062L33.8423 46.8801L33.841 46.8741L34.5293 46.7207L34.933 48.5331ZM33.709 48.8053L34.2443 48.6866L34.0403 47.7716L34.0133 47.85L33.709 48.8053Z" fill="white"/>
<mask id="mask0_4382_13471" style="mask-type:luminance" maskUnits="userSpaceOnUse" x="3" y="21" width="21" height="29">
<path d="M19.4951 49.507L23.5678 47.7919L22.2817 44.3625L20.7812 28.5238L13.9537 23.6792L12.1057 24.3756L10.6592 21.8848L3.63281 33.8591L19.4951 49.507Z" fill="white"/>
</mask>
<g mask="url(#mask0_4382_13471)">
<path fill-rule="evenodd" clip-rule="evenodd" d="M37.8197 12.8794C37.4936 13.4666 36.1826 13.6093 35.2929 13.3916C35.7399 12.9883 36.699 12.6043 37.5231 12.8066L37.8197 12.8794L37.5591 12.7213C36.8349 12.2829 36.435 11.3366 36.4101 10.7383C37.1919 11.2119 38.0113 12.237 37.8197 12.8794ZM30.0141 48.3831C30.2936 48.3831 30.5194 48.6073 30.5194 48.8846C30.5194 49.1619 30.2931 49.3856 30.0137 49.386C29.7343 49.3864 29.5084 49.1619 29.5084 48.885C29.5084 48.6077 29.7347 48.3831 30.0141 48.3831ZM36.6964 12.3591L36.4663 12.1603C35.8264 11.6066 34.7966 11.5136 34.2137 11.6696C34.9041 12.267 36.1359 12.7337 36.696 12.3587L36.6964 12.3591ZM23.3987 12.3647C23.9589 12.7393 25.191 12.2713 25.8819 11.6734C25.299 11.5179 24.2691 11.6113 23.6289 12.1659L23.3987 12.3647ZM28.7139 48.8914C28.5587 49.5433 27.3343 50.031 26.418 50.058C26.7394 49.5506 27.5597 48.9253 28.4087 48.9L28.7139 48.8914C28.7246 48.2211 27.6579 47.4523 26.7763 47.2046C26.9627 47.7741 27.603 48.579 28.4203 48.8091L28.7139 48.8914ZM26.808 48.6394C26.8869 47.9739 25.9037 47.1021 25.0517 46.7679C25.179 47.3529 25.7344 48.2177 26.5243 48.5276L26.808 48.6394L26.5033 48.6176C25.6564 48.558 24.777 49.098 24.4054 49.5703C25.3196 49.6354 26.5873 49.2724 26.808 48.6394ZM24.9373 48.1989C24.6531 48.8066 23.3554 49.041 22.4524 48.8846C22.8699 48.4513 23.7994 48.0026 24.636 48.1461L24.9369 48.1984C25.0826 47.544 24.1929 46.578 23.3799 46.1606C23.4467 46.7559 23.9121 47.6717 24.6656 48.0587L24.9369 48.1984L24.9373 48.1989ZM23.1214 47.5731C23.3327 46.9363 22.5459 45.8867 21.7791 45.39C21.7856 45.9891 22.155 46.9466 22.866 47.4073L23.1214 47.5731L22.8279 47.4913C22.0101 47.2637 21.0399 47.6186 20.5804 48.0077C21.4624 48.2529 22.7773 48.15 23.1214 47.5731ZM21.3776 46.7687C20.9764 47.3087 19.6581 47.2796 18.8053 46.9479C19.3016 46.6063 20.3031 46.3509 21.0939 46.6581L21.378 46.7691C21.6531 46.1571 20.9764 45.0339 20.2641 44.463C20.2097 45.0596 20.4801 46.0491 21.1406 46.5789L21.378 46.7691L21.3776 46.7687ZM19.725 45.7946C20.061 45.213 19.5017 44.0284 18.8511 43.3886C18.7363 43.9766 18.9051 44.9889 19.5081 45.5811L19.725 45.7946L19.4533 45.6566C18.6986 45.2709 17.676 45.4251 17.1476 45.7157C17.9623 46.1314 19.2711 46.2913 19.725 45.7946ZM18.1796 44.6601C17.6777 45.1093 16.392 44.8187 15.6236 44.3241C16.179 44.088 17.2114 44.0366 17.9233 44.4951L18.1796 44.6601L17.9854 44.4266C17.4454 43.776 17.3803 42.7526 17.5543 42.1791C18.1367 42.8803 18.5726 44.115 18.1796 44.6601ZM16.7576 43.3774C16.2129 43.7743 14.9631 43.3569 14.2487 42.7873C14.8247 42.6081 15.8576 42.66 16.5193 43.1876L16.7576 43.3774C17.2037 42.8739 16.8956 41.6019 16.3873 40.8454C16.1563 41.3991 16.1173 42.4243 16.5883 43.125L16.7576 43.3774ZM15.4727 41.9589C14.8907 42.2987 13.6899 41.7587 13.0371 41.121C13.6286 41.0001 14.6507 41.1553 15.2554 41.7463L15.4727 41.9589C15.9681 41.5024 15.7903 40.2064 15.3613 39.4033C15.075 39.9309 14.9323 40.947 15.3296 41.691L15.4723 41.9589H15.4727ZM14.3387 40.4186C13.725 40.6993 12.5854 40.0414 12.0009 39.342C12.6013 39.2807 13.6024 39.5374 14.1441 40.1859L14.3387 40.4186L14.2239 40.1387C13.9041 39.3579 14.1497 38.3619 14.4874 37.8647C14.8324 38.7069 14.8774 40.0144 14.3387 40.4186ZM13.3667 38.7733L13.281 38.4823C13.0423 37.6744 13.3869 36.7067 13.7739 36.2464C14.0319 37.119 13.944 38.4249 13.3667 38.7733L13.1966 38.5213C12.7234 37.8223 11.7536 37.4674 11.1501 37.4679C11.6606 38.2221 12.7281 38.9906 13.3667 38.7733ZM12.567 37.038C11.9091 37.191 10.9256 36.3201 10.494 35.5183C11.0949 35.5774 12.0236 36.0279 12.4234 36.771L12.567 37.038C13.1764 36.7487 13.3963 35.4587 13.2287 34.5651C12.7971 34.9843 12.3557 35.9121 12.5113 36.7406L12.567 37.038ZM11.9473 35.2329L11.9216 34.9307C11.8509 34.0916 12.384 33.2117 12.8563 32.8376C12.9326 33.744 12.5829 35.0061 11.9473 35.2329L11.8311 34.9521C11.5089 34.173 10.6311 33.6321 10.0393 33.5134C10.3869 34.3543 11.2774 35.319 11.9473 35.2329ZM11.514 33.3741L11.5191 33.0711C11.5337 32.2286 12.1539 31.407 12.6613 31.0817C12.6454 31.9907 12.1693 33.2121 11.514 33.3741L11.427 33.0831C11.1857 32.2757 10.3667 31.6496 9.79029 31.4717C10.0509 32.3434 10.8386 33.393 11.514 33.3741ZM11.2719 31.4811C10.5981 31.4327 9.921 30.3103 9.75 29.4167C10.3054 29.6511 11.0563 30.3557 11.2149 31.1837L11.2719 31.4811C11.9404 31.3856 12.5379 30.2181 12.6459 29.3156C12.108 29.5881 11.4081 30.3433 11.3079 31.1799L11.2719 31.4811ZM11.223 29.574C10.5574 29.4583 9.99771 28.2737 9.91886 27.3681C10.4473 27.6566 11.1231 28.4323 11.1964 29.2723L11.223 29.574C11.8976 29.5453 12.6107 28.4439 12.8096 27.5563C12.2469 27.7736 11.4737 28.4554 11.289 29.2783L11.223 29.574ZM11.3674 27.6716C10.7177 27.4894 10.2806 26.2556 10.2943 25.3461C10.791 25.6864 11.3841 26.5256 11.3721 27.3681L11.3679 27.6716C12.042 27.7106 12.8631 26.6854 13.1516 25.8223C12.5696 25.9821 11.7313 26.5839 11.4639 27.3836L11.3674 27.6716ZM11.7047 25.7923L11.8294 25.5159C12.1761 24.7466 13.0714 24.2323 13.6663 24.1307C13.2917 24.9609 12.3716 25.8986 11.7047 25.7923L11.7394 25.4919C11.8371 24.6549 11.3323 23.76 10.872 23.3721C10.767 24.2751 11.076 25.5467 11.7043 25.7927L11.7047 25.7923ZM12.231 23.9571C11.631 23.6499 11.4523 22.3534 11.649 21.465C12.0669 21.8974 12.4787 22.8381 12.2966 23.661L12.231 23.9571C12.8833 24.129 13.8947 23.2886 14.3516 22.5C13.7494 22.5411 12.8066 22.9637 12.3836 23.6944L12.2314 23.9576L12.231 23.9571ZM12.9407 22.1829C12.375 21.8169 12.3287 20.5093 12.6146 19.6453C12.9866 20.1167 13.3007 21.0943 13.0359 21.8949L12.9407 22.1829C13.5724 22.4194 14.6636 21.6836 15.1984 20.9443C14.595 20.9254 13.6144 21.2516 13.119 21.936L12.9407 22.1829ZM13.827 20.4887C14.4313 20.7874 15.5914 20.1643 16.1983 19.4824C15.6 19.4027 14.5911 19.6294 14.0289 20.2616L13.8266 20.4887L13.9504 20.2114C14.295 19.4413 14.0816 18.4376 13.7593 17.931C13.3877 18.7624 13.3007 20.0683 13.8266 20.4887H13.827ZM14.88 18.8919C14.4 18.4209 14.619 17.1304 15.0733 16.3401C15.3424 16.8763 15.453 17.8963 15.0317 18.6279L14.8804 18.8914L15.1046 18.6857C15.7277 18.1131 16.7541 17.9884 17.3413 18.1269C16.6684 18.7449 15.4513 19.2493 14.88 18.8919ZM16.0903 17.4077L16.3341 17.2247C17.0126 16.7173 18.0463 16.6963 18.6163 16.8926C17.8843 17.4407 16.6221 17.82 16.0903 17.4077L16.2677 17.1604C16.7606 16.4743 16.7546 15.4483 16.5411 14.8881C16.0093 15.6291 15.66 16.8913 16.0903 17.4077ZM17.445 16.0521C17.0696 15.4954 17.5449 14.2744 18.1491 13.5904C18.3043 14.169 18.2066 15.1907 17.6464 15.8241L17.445 16.0521C17.9323 16.5159 19.227 16.2643 20.0104 15.7929C19.4631 15.54 18.4324 15.4581 17.706 15.8953L17.4446 16.0526L17.445 16.0521ZM18.9304 14.8384C18.6133 14.247 19.2099 13.0796 19.8806 12.4599C19.9766 13.0513 19.7751 14.0576 19.1537 14.6323L18.9304 14.8389L19.206 14.7086C19.9731 14.346 20.9897 14.5303 21.5087 14.8367C20.6811 15.2276 19.368 15.3489 18.9304 14.8389V14.8384ZM20.5307 13.7794L20.8183 13.6774C21.618 13.3937 22.611 13.6783 23.0961 14.0349C22.233 14.3413 20.9143 14.3306 20.5307 13.7794L20.7737 13.596C21.4504 13.0864 21.7526 12.105 21.7174 11.5071C20.9871 12.0574 20.2753 13.1593 20.5307 13.7794ZM22.2304 12.8859C22.0393 12.2434 22.8591 11.2179 23.6417 10.7439C23.616 11.3417 23.2157 12.2884 22.491 12.7277L22.2304 12.8859L22.527 12.813C23.3516 12.6099 24.3103 12.9934 24.7569 13.3963C23.8667 13.6149 22.5561 13.4721 22.2304 12.8859ZM31.3054 48.8901C31.4601 49.5416 32.6841 50.0284 33.6004 50.055C33.2794 49.5476 32.4596 48.9231 31.6106 48.8987L31.3054 48.8901C31.2951 48.2199 32.3627 47.4501 33.2443 47.2016C33.0579 47.7711 32.4163 48.5764 31.599 48.8074L31.3054 48.8901ZM33.2117 48.6369C33.1333 47.9713 34.1173 47.0991 34.9697 46.7636C34.842 47.349 34.2853 48.2139 33.4959 48.5246L33.2121 48.6369L33.5169 48.6146C34.3637 48.5541 35.2431 49.0937 35.6139 49.5656C34.6997 49.6316 33.4324 49.2694 33.2121 48.6369H33.2117ZM35.0824 48.1946L35.3537 48.0544C36.108 47.6666 36.5734 46.7507 36.6416 46.155C35.8277 46.5733 34.9376 47.5401 35.0829 48.1941L35.3837 48.1414C36.2203 47.997 37.1499 48.4453 37.5669 48.8777C36.6639 49.0346 35.3661 48.8019 35.0829 48.1941L35.0824 48.1946ZM36.8991 47.5676C36.6883 46.9311 37.476 45.8807 38.2436 45.3831C38.2367 45.9823 37.866 46.9401 37.155 47.4013L36.8991 47.5676L37.1936 47.4853C38.0113 47.2573 38.9816 47.6109 39.4406 48C38.5577 48.246 37.2429 48.144 36.8991 47.5676ZM38.6434 46.7619C39.0441 47.3014 40.3624 47.2714 41.2153 46.9389C40.7194 46.5977 39.7179 46.3431 38.9276 46.6509L38.6434 46.7619C38.3687 46.1499 39.0459 45.0266 39.759 44.4549C39.8126 45.0514 39.5413 46.0414 38.8809 46.5716L38.6434 46.7619ZM40.2969 45.7864C39.9617 45.2053 40.5219 44.0199 41.1729 43.38C41.2873 43.968 41.1176 44.9803 40.5141 45.573L40.2969 45.7864L40.569 45.648C41.3241 45.2619 42.3463 45.4153 42.8747 45.7054C42.0596 46.1216 40.7503 46.2831 40.2969 45.7864ZM41.8431 44.6507C42.3446 45.0994 43.6307 44.808 44.3996 44.3126C43.8446 44.0769 42.8121 44.0263 42.0994 44.4857L41.8431 44.6507L42.0377 44.4171C42.5777 43.7661 42.6441 42.7427 42.4706 42.1693C41.8877 42.8709 41.4506 44.106 41.8431 44.6507ZM43.2669 43.3663L43.4361 43.1143C43.9076 42.4131 43.8694 41.388 43.6389 40.8343C43.1301 41.5911 42.8207 42.8631 43.2669 43.3663L43.5047 43.1764C44.1669 42.6484 45.1993 42.5953 45.7757 42.774C45.0613 43.344 43.8111 43.7627 43.2669 43.3663ZM44.5526 41.9469C45.1346 42.2863 46.3359 41.745 46.9894 41.1073C46.398 40.9869 45.3759 41.1429 44.7707 41.7343L44.5526 41.9469C44.058 41.4909 44.2367 40.1949 44.6661 39.3913C44.952 39.9184 45.0943 40.9346 44.6961 41.679L44.5526 41.9469ZM45.6879 40.4057C46.3011 40.6856 47.4416 40.0273 48.027 39.327C47.4266 39.2661 46.4254 39.5237 45.8833 40.1726L45.6879 40.4057L45.8036 40.1254C46.1241 39.3446 45.8799 38.3481 45.5417 37.8514C45.1959 38.694 45.1491 40.0016 45.6879 40.4057ZM46.6611 38.7596C47.3001 38.9764 48.3681 38.2076 48.8794 37.4524C48.2756 37.4524 47.3057 37.8077 46.8317 38.5076L46.6611 38.7596C46.0843 38.4116 45.9977 37.1057 46.2561 36.2327C46.6427 36.693 46.9869 37.6603 46.7473 38.4681L46.6611 38.7596ZM47.4621 37.0239C48.12 37.1764 49.1044 36.3047 49.5364 35.5024C48.936 35.562 48.0064 36.0133 47.6061 36.7569L47.4621 37.0239C46.8531 36.7354 46.6341 35.4454 46.803 34.5514C47.2346 34.9701 47.6751 35.898 47.5187 36.7264L47.4621 37.0239ZM48.0836 35.2183C48.7534 35.3036 49.6444 34.338 49.9929 33.4971C49.401 33.6163 48.5224 34.158 48.1997 34.9371L48.0836 35.2179C47.448 34.9916 47.0991 33.7294 47.1767 32.823C47.6481 33.1967 48.1809 34.0761 48.1093 34.9153L48.0836 35.2179V35.2183ZM48.5186 33.3587C49.1936 33.3771 49.9826 32.3276 50.2436 31.4554C49.6667 31.6337 48.8477 32.2603 48.6056 33.0681L48.5186 33.3587C47.8633 33.1971 47.3884 31.9766 47.373 31.0676C47.8804 31.392 48.4997 32.2136 48.5134 33.0557L48.5186 33.3587ZM48.7624 31.4657C49.4361 31.4169 50.1141 30.2936 50.286 29.4004C49.7306 29.6353 48.9789 30.3403 48.8194 31.1683L48.7624 31.4657C48.0939 31.3706 47.4973 30.2036 47.3901 29.301C47.9276 29.5731 48.627 30.3279 48.7264 31.1644L48.7624 31.4657ZM48.813 29.5586L48.7466 29.2629C48.5627 28.4404 47.79 27.759 47.2277 27.5421C47.4261 28.4297 48.138 29.5307 48.813 29.5586L48.8396 29.2569C48.9137 28.4169 49.59 27.6407 50.1189 27.3519C50.0391 28.2574 49.4777 29.4429 48.813 29.5586ZM48.6699 27.6561C49.32 27.4736 49.758 26.2393 49.7456 25.3299C49.2484 25.6701 48.6544 26.5106 48.666 27.3527L48.6699 27.6561C47.9957 27.6956 47.1759 26.6713 46.8883 25.8086C47.4703 25.968 48.3081 26.5689 48.5743 27.3686L48.6699 27.6561ZM48.3339 25.7773C48.9621 25.5309 49.2729 24.2593 49.1683 23.3563C48.708 23.7446 48.2023 24.6399 48.2991 25.4769L48.3339 25.7773C47.6674 25.8844 46.7473 24.9471 46.3731 24.1174C46.9684 24.2186 47.8633 24.732 48.2091 25.5009L48.3339 25.7773ZM47.8097 23.9426C48.4097 23.6349 48.5897 22.3384 48.3939 21.45C47.9756 21.8829 47.5629 22.824 47.7446 23.6464L47.8097 23.9426C47.157 24.1149 46.1464 23.2749 45.6904 22.4867C46.2926 22.527 47.235 22.9491 47.6576 23.6794L47.8097 23.9426ZM47.1013 22.1691L46.9234 21.9227C46.4284 21.2387 45.4483 20.913 44.8449 20.9327C45.3789 21.6716 46.4696 22.4061 47.1013 22.1691L47.0066 21.8816C46.7426 21.081 47.0576 20.1034 47.43 19.6316C47.715 20.4956 47.667 21.8031 47.1013 22.1691ZM46.2167 20.4754C45.612 20.7746 44.4523 20.1523 43.8463 19.4709C44.4446 19.3907 45.453 19.6166 46.0144 20.2483L46.2167 20.4754L46.0929 20.1986C45.7487 19.4284 45.963 18.4247 46.2857 17.9181C46.6569 18.7491 46.7426 20.0546 46.2167 20.4754ZM45.1646 18.8794C45.6454 18.408 45.4277 17.1176 44.9739 16.3281C44.7043 16.8647 44.5933 17.8847 45.0137 18.6159L45.1646 18.8794L44.9409 18.6737C44.3181 18.1016 43.2917 17.9777 42.7041 18.1166C43.3766 18.7341 44.5933 19.2369 45.1646 18.8794ZM43.9556 17.3966L43.7121 17.214C43.0341 16.7074 42.0004 16.6869 41.43 16.8836C42.1616 17.4309 43.4237 17.8093 43.9556 17.3966L43.7786 17.1497C43.2861 16.464 43.293 15.438 43.5069 14.8774C44.0383 15.618 44.3863 16.8797 43.9556 17.3966ZM42.6021 16.0414C42.978 15.4843 42.504 14.2637 41.9001 13.5801C41.7441 14.1591 41.841 15.1804 42.4011 15.8134L42.6021 16.041C42.1149 16.5051 40.8206 16.2544 40.0371 15.7839C40.5849 15.5306 41.6151 15.4479 42.3411 15.8841L42.6021 16.041V16.0414ZM41.118 14.8294C41.4356 14.2376 40.8399 13.0706 40.1696 12.4513C40.0731 13.0431 40.2733 14.0486 40.8947 14.6229L41.118 14.8294L40.8424 14.6987C40.0757 14.3366 39.0587 14.5221 38.5397 14.829C39.3669 15.2194 40.68 15.3399 41.118 14.8294ZM39.5186 13.7717C39.7744 13.1516 39.0634 12.0501 38.3336 11.5003C38.2976 12.0981 38.5993 13.0796 39.2751 13.5883L39.5186 13.7717C39.135 14.3233 37.8159 14.3349 36.9531 14.0289C37.4387 13.6719 38.4317 13.3864 39.2314 13.6693L39.5186 13.7709V13.7717Z" fill="white"/>
</g>
<mask id="mask1_4382_13471" style="mask-type:luminance" maskUnits="userSpaceOnUse" x="36" y="19" width="17" height="31">
<path d="M36.8583 26.1656L45.4541 23.2771L47.9454 24.3751L52.5255 19.0449L51.6487 30.6429L48.2193 42.6468L39.4305 49.5065L36.4297 47.7913L37.7158 43.9329L36.8583 26.1656Z" fill="white"/>
</mask>
<g mask="url(#mask1_4382_13471)">
<path fill-rule="evenodd" clip-rule="evenodd" d="M37.8275 12.8794C37.5014 13.4666 36.1904 13.6093 35.3007 13.3916C35.7477 12.9883 36.7068 12.6043 37.531 12.8066L37.8275 12.8794L37.567 12.7213C36.8427 12.2829 36.4428 11.3366 36.418 10.7383C37.1997 11.2119 38.0191 12.237 37.8275 12.8794ZM30.022 48.3831C30.3014 48.3831 30.5272 48.6073 30.5272 48.8846C30.5272 49.1619 30.301 49.3856 30.0215 49.386C29.7421 49.3864 29.5162 49.1619 29.5162 48.885C29.5162 48.6077 29.7425 48.3831 30.022 48.3831ZM36.7042 12.3591L36.4741 12.1603C35.8342 11.6066 34.8044 11.5136 34.2215 11.6696C34.912 12.267 36.1437 12.7337 36.7038 12.3587L36.7042 12.3591ZM23.4065 12.3647C23.9667 12.7393 25.1988 12.2713 25.8897 11.6734C25.3068 11.5179 24.277 11.6113 23.6367 12.1659L23.4065 12.3647ZM28.7217 48.8914C28.5665 49.5433 27.3421 50.031 26.4258 50.058C26.7472 49.5506 27.5675 48.9253 28.4165 48.9L28.7217 48.8914C28.7324 48.2211 27.6657 47.4523 26.7841 47.2046C26.9705 47.7741 27.6108 48.579 28.4281 48.8091L28.7217 48.8914ZM26.8158 48.6394C26.8947 47.9739 25.9115 47.1021 25.0595 46.7679C25.1868 47.3529 25.7422 48.2177 26.5321 48.5276L26.8158 48.6394L26.5111 48.6176C25.6642 48.558 24.7848 49.098 24.4132 49.5703C25.3274 49.6354 26.5951 49.2724 26.8158 48.6394ZM24.9451 48.1989C24.661 48.8066 23.3632 49.041 22.4602 48.8846C22.8777 48.4513 23.8072 48.0026 24.6438 48.1461L24.9447 48.1984C25.0904 47.544 24.2007 46.578 23.3877 46.1606C23.4545 46.7559 23.92 47.6717 24.6734 48.0587L24.9447 48.1984L24.9451 48.1989ZM23.1292 47.5731C23.3405 46.9363 22.5537 45.8867 21.787 45.39C21.7934 45.9891 22.1628 46.9466 22.8738 47.4073L23.1292 47.5731L22.8357 47.4913C22.018 47.2637 21.0477 47.6186 20.5882 48.0077C21.4702 48.2529 22.7851 48.15 23.1292 47.5731ZM21.3854 46.7687C20.9842 47.3087 19.666 47.2796 18.8131 46.9479C19.3094 46.6063 20.311 46.3509 21.1017 46.6581L21.3858 46.7691C21.661 46.1571 20.9842 45.0339 20.272 44.463C20.2175 45.0596 20.488 46.0491 21.1484 46.5789L21.3858 46.7691L21.3854 46.7687ZM19.7328 45.7946C20.0688 45.213 19.5095 44.0284 18.859 43.3886C18.7441 43.9766 18.913 44.9889 19.516 45.5811L19.7328 45.7946L19.4611 45.6566C18.7064 45.2709 17.6838 45.4251 17.1554 45.7157C17.9701 46.1314 19.279 46.2913 19.7328 45.7946ZM18.1874 44.6601C17.6855 45.1093 16.3998 44.8187 15.6314 44.3241C16.1868 44.088 17.2192 44.0366 17.9311 44.4951L18.1874 44.6601L17.9932 44.4266C17.4532 43.776 17.3881 42.7526 17.5621 42.1791C18.1445 42.8803 18.5804 44.115 18.1874 44.6601ZM16.7654 43.3774C16.2207 43.7743 14.971 43.3569 14.2565 42.7873C14.8325 42.6081 15.8654 42.66 16.5271 43.1876L16.7654 43.3774C17.2115 42.8739 16.9034 41.6019 16.3951 40.8454C16.1641 41.3991 16.1251 42.4243 16.5961 43.125L16.7654 43.3774ZM15.4805 41.9589C14.8985 42.2987 13.6977 41.7587 13.045 41.121C13.6364 41.0001 14.6585 41.1553 15.2632 41.7463L15.4805 41.9589C15.976 41.5024 15.7981 40.2064 15.3691 39.4033C15.0828 39.9309 14.9401 40.947 15.3374 41.691L15.4801 41.9589H15.4805ZM14.3465 40.4186C13.7328 40.6993 12.5932 40.0414 12.0087 39.342C12.6091 39.2807 13.6102 39.5374 14.152 40.1859L14.3465 40.4186L14.2317 40.1387C13.912 39.3579 14.1575 38.3619 14.4952 37.8647C14.8402 38.7069 14.8852 40.0144 14.3465 40.4186ZM13.3745 38.7733L13.2888 38.4823C13.0501 37.6744 13.3947 36.7067 13.7817 36.2464C14.0397 37.119 13.9518 38.4249 13.3745 38.7733L13.2044 38.5213C12.7312 37.8223 11.7614 37.4674 11.158 37.4679C11.6684 38.2221 12.736 38.9906 13.3745 38.7733ZM12.5748 37.038C11.917 37.191 10.9334 36.3201 10.5018 35.5183C11.1027 35.5774 12.0314 36.0279 12.4312 36.771L12.5748 37.038C13.1842 36.7487 13.4041 35.4587 13.2365 34.5651C12.805 34.9843 12.3635 35.9121 12.5191 36.7406L12.5748 37.038ZM11.9551 35.2329L11.9294 34.9307C11.8587 34.0916 12.3918 33.2117 12.8641 32.8376C12.9404 33.744 12.5907 35.0061 11.9551 35.2329L11.839 34.9521C11.5167 34.173 10.639 33.6321 10.0471 33.5134C10.3947 34.3543 11.2852 35.319 11.9551 35.2329ZM11.5218 33.3741L11.527 33.0711C11.5415 32.2286 12.1617 31.407 12.6691 31.0817C12.6532 31.9907 12.1771 33.2121 11.5218 33.3741L11.4348 33.0831C11.1935 32.2757 10.3745 31.6496 9.7981 31.4717C10.0587 32.3434 10.8464 33.393 11.5218 33.3741ZM11.2797 31.4811C10.606 31.4327 9.92881 30.3103 9.75781 29.4167C10.3132 29.6511 11.0641 30.3557 11.2227 31.1837L11.2797 31.4811C11.9482 31.3856 12.5457 30.2181 12.6537 29.3156C12.1158 29.5881 11.416 30.3433 11.3157 31.1799L11.2797 31.4811ZM11.2308 29.574C10.5652 29.4583 10.0055 28.2737 9.92667 27.3681C10.4551 27.6566 11.131 28.4323 11.2042 29.2723L11.2308 29.574C11.9054 29.5453 12.6185 28.4439 12.8174 27.5563C12.2547 27.7736 11.4815 28.4554 11.2968 29.2783L11.2308 29.574ZM11.3752 27.6716C10.7255 27.4894 10.2884 26.2556 10.3021 25.3461C10.7988 25.6864 11.392 26.5256 11.38 27.3681L11.3757 27.6716C12.0498 27.7106 12.871 26.6854 13.1594 25.8223C12.5774 25.9821 11.7391 26.5839 11.4717 27.3836L11.3752 27.6716ZM11.7125 25.7923L11.8372 25.5159C12.184 24.7466 13.0792 24.2323 13.6741 24.1307C13.2995 24.9609 12.3794 25.8986 11.7125 25.7923L11.7472 25.4919C11.845 24.6549 11.3401 23.76 10.8798 23.3721C10.7748 24.2751 11.0838 25.5467 11.7121 25.7927L11.7125 25.7923ZM12.2388 23.9571C11.6388 23.6499 11.4601 22.3534 11.6568 21.465C12.0747 21.8974 12.4865 22.8381 12.3044 23.661L12.2388 23.9571C12.8911 24.129 13.9025 23.2886 14.3594 22.5C13.7572 22.5411 12.8144 22.9637 12.3914 23.6944L12.2392 23.9576L12.2388 23.9571ZM12.9485 22.1829C12.3828 21.8169 12.3365 20.5093 12.6224 19.6453C12.9944 20.1167 13.3085 21.0943 13.0437 21.8949L12.9485 22.1829C13.5802 22.4194 14.6714 21.6836 15.2062 20.9443C14.6028 20.9254 13.6222 21.2516 13.1268 21.936L12.9485 22.1829ZM13.8348 20.4887C14.4391 20.7874 15.5992 20.1643 16.2061 19.4824C15.6078 19.4027 14.599 19.6294 14.0367 20.2616L13.8344 20.4887L13.9582 20.2114C14.3028 19.4413 14.0894 18.4376 13.7671 17.931C13.3955 18.7624 13.3085 20.0683 13.8344 20.4887H13.8348ZM14.8878 18.8919C14.4078 18.4209 14.6268 17.1304 15.0811 16.3401C15.3502 16.8763 15.4608 17.8963 15.0395 18.6279L14.8882 18.8914L15.1124 18.6857C15.7355 18.1131 16.762 17.9884 17.3491 18.1269C16.6762 18.7449 15.4591 19.2493 14.8878 18.8919ZM16.0981 17.4077L16.342 17.2247C17.0204 16.7173 18.0541 16.6963 18.6241 16.8926C17.8921 17.4407 16.63 17.82 16.0981 17.4077L16.2755 17.1604C16.7684 16.4743 16.7624 15.4483 16.549 14.8881C16.0171 15.6291 15.6678 16.8913 16.0981 17.4077ZM17.4528 16.0521C17.0774 15.4954 17.5527 14.2744 18.157 13.5904C18.3121 14.169 18.2144 15.1907 17.6542 15.8241L17.4528 16.0521C17.9401 16.5159 19.2348 16.2643 20.0182 15.7929C19.471 15.54 18.4402 15.4581 17.7138 15.8953L17.4524 16.0526L17.4528 16.0521ZM18.9382 14.8384C18.6211 14.247 19.2177 13.0796 19.8884 12.4599C19.9844 13.0513 19.783 14.0576 19.1615 14.6323L18.9382 14.8389L19.2138 14.7086C19.981 14.346 20.9975 14.5303 21.5165 14.8367C20.689 15.2276 19.3758 15.3489 18.9382 14.8389V14.8384ZM20.5385 13.7794L20.8261 13.6774C21.6258 13.3937 22.6188 13.6783 23.104 14.0349C22.2408 14.3413 20.9221 14.3306 20.5385 13.7794L20.7815 13.596C21.4582 13.0864 21.7604 12.105 21.7252 11.5071C20.995 12.0574 20.2831 13.1593 20.5385 13.7794ZM22.2382 12.8859C22.0471 12.2434 22.867 11.2179 23.6495 10.7439C23.6238 11.3417 23.2235 12.2884 22.4988 12.7277L22.2382 12.8859L22.5348 12.813C23.3594 12.6099 24.3181 12.9934 24.7647 13.3963C23.8745 13.6149 22.564 13.4721 22.2382 12.8859ZM31.3132 48.8901C31.468 49.5416 32.692 50.0284 33.6082 50.055C33.2872 49.5476 32.4674 48.9231 31.6184 48.8987L31.3132 48.8901C31.303 48.2199 32.3705 47.4501 33.2521 47.2016C33.0657 47.7711 32.4241 48.5764 31.6068 48.8074L31.3132 48.8901ZM33.2195 48.6369C33.1411 47.9713 34.1251 47.0991 34.9775 46.7636C34.8498 47.349 34.2931 48.2139 33.5037 48.5246L33.22 48.6369L33.5247 48.6146C34.3715 48.5541 35.251 49.0937 35.6217 49.5656C34.7075 49.6316 33.4402 49.2694 33.22 48.6369H33.2195ZM35.0902 48.1946L35.3615 48.0544C36.1158 47.6666 36.5812 46.7507 36.6494 46.155C35.8355 46.5733 34.9454 47.5401 35.0907 48.1941L35.3915 48.1414C36.2281 47.997 37.1577 48.4453 37.5747 48.8777C36.6717 49.0346 35.374 48.8019 35.0907 48.1941L35.0902 48.1946ZM36.907 47.5676C36.6961 46.9311 37.4838 45.8807 38.2514 45.3831C38.2445 45.9823 37.8738 46.9401 37.1628 47.4013L36.907 47.5676L37.2014 47.4853C38.0191 47.2573 38.9894 47.6109 39.4484 48C38.5655 48.246 37.2507 48.144 36.907 47.5676ZM38.6512 46.7619C39.052 47.3014 40.3702 47.2714 41.2231 46.9389C40.7272 46.5977 39.7257 46.3431 38.9354 46.6509L38.6512 46.7619C38.3765 46.1499 39.0537 45.0266 39.7668 44.4549C39.8204 45.0514 39.5491 46.0414 38.8887 46.5716L38.6512 46.7619ZM40.3047 45.7864C39.9695 45.2053 40.5297 44.0199 41.1807 43.38C41.2951 43.968 41.1254 44.9803 40.522 45.573L40.3047 45.7864L40.5768 45.648C41.332 45.2619 42.3541 45.4153 42.8825 45.7054C42.0674 46.1216 40.7581 46.2831 40.3047 45.7864ZM41.851 44.6507C42.3524 45.0994 43.6385 44.808 44.4074 44.3126C43.8524 44.0769 42.82 44.0263 42.1072 44.4857L41.851 44.6507L42.0455 44.4171C42.5855 43.7661 42.652 42.7427 42.4784 42.1693C41.8955 42.8709 41.4584 44.106 41.851 44.6507ZM43.2747 43.3663L43.444 43.1143C43.9154 42.4131 43.8772 41.388 43.6467 40.8343C43.138 41.5911 42.8285 42.8631 43.2747 43.3663L43.5125 43.1764C44.1747 42.6484 45.2071 42.5953 45.7835 42.774C45.0691 43.344 43.819 43.7627 43.2747 43.3663ZM44.5604 41.9469C45.1424 42.2863 46.3437 41.745 46.9972 41.1073C46.4058 40.9869 45.3837 41.1429 44.7785 41.7343L44.5604 41.9469C44.0658 41.4909 44.2445 40.1949 44.674 39.3913C44.9598 39.9184 45.1021 40.9346 44.704 41.679L44.5604 41.9469ZM45.6957 40.4057C46.309 40.6856 47.4494 40.0273 48.0348 39.327C47.4344 39.2661 46.4332 39.5237 45.8911 40.1726L45.6957 40.4057L45.8114 40.1254C46.132 39.3446 45.8877 38.3481 45.5495 37.8514C45.2037 38.694 45.157 40.0016 45.6957 40.4057ZM46.669 38.7596C47.308 38.9764 48.376 38.2076 48.8872 37.4524C48.2834 37.4524 47.3135 37.8077 46.8395 38.5076L46.669 38.7596C46.0921 38.4116 46.0055 37.1057 46.264 36.2327C46.6505 36.693 46.9947 37.6603 46.7551 38.4681L46.669 38.7596ZM47.47 37.0239C48.1278 37.1764 49.1122 36.3047 49.5442 35.5024C48.9438 35.562 48.0142 36.0133 47.614 36.7569L47.47 37.0239C46.861 36.7354 46.642 35.4454 46.8108 34.5514C47.2424 34.9701 47.683 35.898 47.5265 36.7264L47.47 37.0239ZM48.0914 35.2183C48.7612 35.3036 49.6522 34.338 50.0007 33.4971C49.4088 33.6163 48.5302 34.158 48.2075 34.9371L48.0914 35.2179C47.4558 34.9916 47.107 33.7294 47.1845 32.823C47.656 33.1967 48.1887 34.0761 48.1171 34.9153L48.0914 35.2179V35.2183ZM48.5264 33.3587C49.2014 33.3771 49.9904 32.3276 50.2514 31.4554C49.6745 31.6337 48.8555 32.2603 48.6134 33.0681L48.5264 33.3587C47.8711 33.1971 47.3962 31.9766 47.3808 31.0676C47.8882 31.392 48.5075 32.2136 48.5212 33.0557L48.5264 33.3587ZM48.7702 31.4657C49.444 31.4169 50.122 30.2936 50.2938 29.4004C49.7384 29.6353 48.9867 30.3403 48.8272 31.1683L48.7702 31.4657C48.1017 31.3706 47.5051 30.2036 47.398 29.301C47.9354 29.5731 48.6348 30.3279 48.7342 31.1644L48.7702 31.4657ZM48.8208 29.5586L48.7544 29.2629C48.5705 28.4404 47.7978 27.759 47.2355 27.5421C47.434 28.4297 48.1458 29.5307 48.8208 29.5586L48.8474 29.2569C48.9215 28.4169 49.5978 27.6407 50.1267 27.3519C50.047 28.2574 49.4855 29.4429 48.8208 29.5586ZM48.6777 27.6561C49.3278 27.4736 49.7658 26.2393 49.7534 25.3299C49.2562 25.6701 48.6622 26.5106 48.6738 27.3527L48.6777 27.6561C48.0035 27.6956 47.1837 26.6713 46.8961 25.8086C47.4781 25.968 48.316 26.5689 48.5821 27.3686L48.6777 27.6561ZM48.3417 25.7773C48.97 25.5309 49.2807 24.2593 49.1761 23.3563C48.7158 23.7446 48.2101 24.6399 48.307 25.4769L48.3417 25.7773C47.6752 25.8844 46.7551 24.9471 46.381 24.1174C46.9762 24.2186 47.8711 24.732 48.217 25.5009L48.3417 25.7773ZM47.8175 23.9426C48.4175 23.6349 48.5975 22.3384 48.4017 21.45C47.9834 21.8829 47.5707 22.824 47.7524 23.6464L47.8175 23.9426C47.1648 24.1149 46.1542 23.2749 45.6982 22.4867C46.3004 22.527 47.2428 22.9491 47.6654 23.6794L47.8175 23.9426ZM47.1091 22.1691L46.9312 21.9227C46.4362 21.2387 45.4561 20.913 44.8527 20.9327C45.3867 21.6716 46.4774 22.4061 47.1091 22.1691L47.0144 21.8816C46.7504 21.081 47.0654 20.1034 47.4378 19.6316C47.7228 20.4956 47.6748 21.8031 47.1091 22.1691ZM46.2245 20.4754C45.6198 20.7746 44.4601 20.1523 43.8541 19.4709C44.4524 19.3907 45.4608 19.6166 46.0222 20.2483L46.2245 20.4754L46.1007 20.1986C45.7565 19.4284 45.9708 18.4247 46.2935 17.9181C46.6647 18.7491 46.7504 20.0546 46.2245 20.4754ZM45.1724 18.8794C45.6532 18.408 45.4355 17.1176 44.9817 16.3281C44.7121 16.8647 44.6011 17.8847 45.0215 18.6159L45.1724 18.8794L44.9487 18.6737C44.326 18.1016 43.2995 17.9777 42.712 18.1166C43.3844 18.7341 44.6011 19.2369 45.1724 18.8794ZM43.9634 17.3966L43.72 17.214C43.042 16.7074 42.0082 16.6869 41.4378 16.8836C42.1694 17.4309 43.4315 17.8093 43.9634 17.3966L43.7864 17.1497C43.294 16.464 43.3008 15.438 43.5147 14.8774C44.0461 15.618 44.3941 16.8797 43.9634 17.3966ZM42.61 16.0414C42.9858 15.4843 42.5118 14.2637 41.908 13.5801C41.752 14.1591 41.8488 15.1804 42.409 15.8134L42.61 16.041C42.1227 16.5051 40.8284 16.2544 40.045 15.7839C40.5927 15.5306 41.623 15.4479 42.349 15.8841L42.61 16.041V16.0414ZM41.1258 14.8294C41.4434 14.2376 40.8477 13.0706 40.1774 12.4513C40.081 13.0431 40.2811 14.0486 40.9025 14.6229L41.1258 14.8294L40.8502 14.6987C40.0835 14.3366 39.0665 14.5221 38.5475 14.829C39.3747 15.2194 40.6878 15.3399 41.1258 14.8294ZM39.5264 13.7717C39.7822 13.1516 39.0712 12.0501 38.3414 11.5003C38.3054 12.0981 38.6071 13.0796 39.283 13.5883L39.5264 13.7717C39.1428 14.3233 37.8237 14.3349 36.961 14.0289C37.4465 13.6719 38.4395 13.3864 39.2392 13.6693L39.5264 13.7709V13.7717Z" fill="white"/>
</g>
<path fill-rule="evenodd" clip-rule="evenodd" d="M48.0849 24.5752L48.0986 24.2714C48.1371 23.4258 47.5723 22.5601 47.0889 22.1992C47.0477 23.1112 47.4433 24.3674 48.0849 24.5752Z" fill="white"/>
<path fill-rule="evenodd" clip-rule="evenodd" d="M11.9921 24.5752L11.9784 24.2714C11.9399 23.4258 12.5047 22.5601 12.9881 22.1992C13.0293 23.1112 12.6337 24.3674 11.9921 24.5752Z" fill="white"/>
</g>
<defs>
<clipPath id="clip0_4382_13471">
<rect width="60" height="60" fill="white"/>
</clipPath>
</defs>
</svg>
