<svg width="20" height="20" viewBox="0 0 20 20" fill="none" xmlns="http://www.w3.org/2000/svg">
<path opacity="0.9" d="M18.5965 15.6241H16.475C15.6727 15.6241 15.431 15.0243 13.9929 13.6959C12.736 12.5777 12.2052 12.4387 11.8873 12.4387C11.4475 12.4387 11.3276 12.5503 11.3276 13.1089V14.8698C11.3276 15.3461 11.1603 15.625 9.81232 15.625C8.50459 15.5439 7.23644 15.1772 6.11233 14.555C4.98822 13.9329 4.04032 13.0731 3.34669 12.0465C1.69973 10.1543 0.553791 7.93352 0 5.56067C0 5.26719 0.120853 5.00116 0.726976 5.00116H2.84655C3.39131 5.00116 3.58747 5.22514 3.80128 5.7426C4.83039 8.53844 6.58648 10.9704 7.29951 10.9704C7.57282 10.9704 7.69181 10.8589 7.69181 10.2298V7.34991C7.60164 6.03609 6.84585 5.92539 6.84585 5.44997C6.8554 5.32455 6.91756 5.2075 7.0191 5.1237C7.12065 5.0399 7.25359 4.99594 7.38968 5.00116H10.7215C11.177 5.00116 11.3276 5.21055 11.3276 5.71342V9.60082C11.3276 10.0205 11.5228 10.1595 11.6604 10.1595C11.9337 10.1595 12.1438 10.0205 12.6449 9.55877C13.719 8.34963 14.5965 7.0025 15.2498 5.55982C15.3166 5.3866 15.443 5.23833 15.6097 5.13762C15.7764 5.03691 15.9742 4.98929 16.1729 5.00202H18.2934C18.9293 5.00202 19.0641 5.29551 18.9293 5.71428C18.158 7.30907 17.2037 8.82292 16.0827 10.2298C15.854 10.5516 15.7629 10.719 16.0827 11.0966C16.2928 11.3901 17.0365 11.9633 17.5357 12.5082C18.2627 13.1776 18.866 13.9516 19.3225 14.7995C19.5047 15.3452 19.2016 15.6241 18.5965 15.6241Z" fill="white"/>
</svg>
