<svg width="24" height="24" viewBox="0 0 24 24" fill="none" xmlns="http://www.w3.org/2000/svg">
<g opacity="0.5">
<path d="M20.0925 3.1875H17.4525V2.8125C17.4525 2.61359 17.3735 2.42282 17.2328 2.28217C17.0922 2.14152 16.9014 2.0625 16.7025 2.0625C16.5036 2.0625 16.3128 2.14152 16.1722 2.28217C16.0315 2.42282 15.9525 2.61359 15.9525 2.8125V3.1875H8.0475V2.8125C8.0475 2.61359 7.96848 2.42282 7.82783 2.28217C7.68718 2.14152 7.49641 2.0625 7.2975 2.0625C7.09859 2.0625 6.90782 2.14152 6.76717 2.28217C6.62652 2.42282 6.5475 2.61359 6.5475 2.8125V3.1875H3.9075C3.07069 3.18948 2.26872 3.52278 1.677 4.1145C1.08528 4.70622 0.751981 5.50819 0.75 6.345V19.5C0.751981 20.3368 1.08528 21.1388 1.677 21.7305C2.26872 22.3222 3.07069 22.6555 3.9075 22.6575H20.0925C20.9293 22.6555 21.7313 22.3222 22.323 21.7305C22.9147 21.1388 23.248 20.3368 23.25 19.5V6.345C23.248 5.50819 22.9147 4.70622 22.323 4.1145C21.7313 3.52278 20.9293 3.18948 20.0925 3.1875ZM3.9075 4.6875H6.5475V5.0625C6.5475 5.26141 6.62652 5.45218 6.76717 5.59283C6.90782 5.73348 7.09859 5.8125 7.2975 5.8125C7.49641 5.8125 7.68718 5.73348 7.82783 5.59283C7.96848 5.45218 8.0475 5.26141 8.0475 5.0625V4.6875H15.9525V5.0625C15.9525 5.26141 16.0315 5.45218 16.1722 5.59283C16.3128 5.73348 16.5036 5.8125 16.7025 5.8125C16.9014 5.8125 17.0922 5.73348 17.2328 5.59283C17.3735 5.45218 17.4525 5.26141 17.4525 5.0625V4.6875H20.0925C20.5321 4.6875 20.9537 4.86213 21.2645 5.17297C21.5754 5.48381 21.75 5.9054 21.75 6.345V8.1225H2.25V6.345C2.25 5.9054 2.42463 5.48381 2.73547 5.17297C3.04631 4.86213 3.4679 4.6875 3.9075 4.6875ZM20.0925 21.1875H3.9075C3.68729 21.1875 3.46927 21.1437 3.2662 21.0585C3.06312 20.9734 2.87905 20.8486 2.72474 20.6915C2.57042 20.5344 2.44896 20.3481 2.36745 20.1435C2.28594 19.9389 2.24601 19.7202 2.25 19.5V9.6225H21.75V19.5C21.754 19.7202 21.7141 19.9389 21.6325 20.1435C21.551 20.3481 21.4296 20.5344 21.2753 20.6915C21.121 20.8486 20.9369 20.9734 20.7338 21.0585C20.5307 21.1437 20.3127 21.1875 20.0925 21.1875Z" fill="white"/>
</g>
</svg>
