<svg width="142" height="151" viewBox="0 0 142 151" fill="none" xmlns="http://www.w3.org/2000/svg">
<path d="M52.4226 129.464C52.132 129.365 51.9297 129.273 51.7876 129.186C51.8845 129.262 52.0675 129.346 52.4226 129.464ZM140.874 79.5406C140.726 80.1627 140.506 80.6858 140.319 81.254C140.566 80.8989 140.896 80.3134 140.874 79.5406ZM141.475 69.9016C141.597 70.0502 141.765 70.1276 142 70.1018L141.584 69.5034C141.541 69.6304 141.513 69.7682 141.475 69.9016ZM132.578 42.5926C132.077 42.5172 131.836 42.6485 131.552 42.6701C131.874 43.3847 132.187 44.1079 132.486 44.8377C132.391 44.0907 132.404 43.346 132.578 42.5926ZM128.516 27.1676L129.154 28.0544C129.005 27.6756 128.775 27.4044 128.516 27.1676L127.511 25.7706C127.107 26.341 127.856 26.5584 128.516 27.1676ZM128.247 35.4483C128.181 34.822 127.38 34.2451 127.313 33.6166C127.946 33.341 127.66 33.1301 127.04 32.1356C126.941 31.8558 126.794 31.5566 126.456 31.2186C126.702 31.5781 126.885 31.8709 127.04 32.1356C127.52 33.4078 126.53 33.8813 128.247 35.4483ZM122.321 20.2365C121.387 19.4895 122.08 21.1169 122.061 21.7131C121.603 21.3472 121.381 21.0178 120.92 20.3398C120.195 21.7475 122.771 21.5129 123.871 23.7817C124.377 23.2694 122.556 21.19 122.321 20.2365ZM122.464 28.3622C122.367 28.203 122.276 28.0437 122.205 27.8887C121.99 27.4237 121.857 27.0406 122.014 26.6983C121.536 26.7048 121.361 26.8576 121.381 27.1224C121.747 27.5292 122.108 27.9425 122.464 28.3622ZM135.151 93.3641C133.028 94.7224 134.173 95.5446 134.001 97.159C134.001 97.159 133.906 97.4668 133.812 97.7789C133.689 98.076 133.568 98.3752 133.568 98.3752C133.861 97.9361 133.973 97.5228 133.999 97.159L135.151 93.3641ZM132.856 97.3721C133.149 96.9588 133.401 96.382 133.601 95.6307C131.651 97.2968 130.94 97.1483 129.003 99.4837L129.459 100.575C129.885 99.5268 128.999 99.4902 130.514 97.9662C130.712 98.274 131.252 98.4441 131.881 98.1643C132.197 98.0222 132.533 97.7703 132.856 97.3721ZM106.804 13.0922L105.017 11.5962L105.534 11.8029L105.319 10.944C105.192 11.8804 104.548 11.4822 103.698 10.9354C102.863 10.3585 101.879 9.47171 101.272 9.16174C102.594 10.0809 103.844 12.3109 106.804 13.0922ZM126.459 104.435C126.413 104.407 126.364 104.383 126.323 104.346C126.347 104.402 126.396 104.426 126.459 104.435ZM121.107 110.894C120.98 110.492 120.464 110.645 119.829 110.952C119.799 110.985 119.769 111.015 119.736 111.047C120.029 111.105 119.674 111.904 121.107 110.894ZM119.269 115.049C118.494 115.862 117.541 116.876 116.934 117.348C117.181 117.261 117.556 117.07 117.965 116.796C118.35 116.499 118.774 116.129 119.164 115.753C119.943 114.997 120.578 114.205 120.481 113.848C120.653 113.628 120.051 114.239 119.269 115.049ZM118.266 118.206L116.985 118.691C116.968 118.224 117.823 117.01 115.92 119.078L116.985 118.691C117.003 118.921 117.235 118.973 118.266 118.206ZM97.0358 10.3844L97.0724 10.5394C97.2941 10.6233 97.5158 10.7051 97.7354 10.7912C97.5072 10.6427 97.2747 10.5049 97.0358 10.3844ZM83.8624 2.99692C83.7009 2.90436 83.5653 2.85485 83.4233 2.79458C82.4417 2.24353 81.3288 0.878836 79.3916 1.94218C80.8122 3.20571 81.6345 2.03043 83.4233 2.79458C83.5632 2.87853 83.716 2.94956 83.8624 2.99692ZM78.9525 4.36807L77.4521 4.40037C79.3571 4.0904 75.0951 3.19064 78.0097 2.91082C79.1871 2.79673 76.0379 2.13806 74.6603 2.39637C74.8907 2.97324 77.5985 2.82687 76.6665 3.52213L75.5106 3.63407C77.2455 3.45971 76.5007 5.09132 78.9525 4.36807ZM99.8944 124.735C98.7255 125.237 97.5373 125.706 96.3276 126.138C96.5773 126.138 96.8249 126.147 97.0681 126.171C97.645 125.943 99.3433 125.271 99.8944 124.735ZM92.2723 128.711C92.0764 128.579 91.7363 128.558 91.3639 128.584C91.1207 128.444 91.0023 128.233 91.0669 128.022C91.3209 127.869 91.5318 127.725 91.648 127.6C91.5684 127.624 91.4845 127.643 91.4048 127.665C91.2132 127.774 91.1142 127.897 91.0647 128.022C90.6407 128.28 90.038 128.573 89.3298 128.874C88.6151 129.143 87.78 129.341 86.9276 129.561C85.2141 129.946 83.4168 130.4 82.1404 130.379C81.613 130.669 82.1683 130.951 82.9928 131.195C83.8064 131.36 84.8913 131.462 85.3928 131.554C84.4629 130.228 85.3476 130.108 86.7252 130.146C87.4162 130.166 88.2363 130.222 89.0112 130.187C89.7861 130.155 90.4878 129.903 90.97 129.524C90.3415 129.415 88.9057 129.888 88.4236 129.492C89.0327 129.176 90.3802 128.644 91.3639 128.582C91.6028 128.732 91.9516 128.803 92.2723 128.711ZM81.1244 129.742C80.894 129.679 80.6594 129.617 80.4183 129.552C78.4337 129.709 76.4577 129.774 74.4946 129.74C75.0349 129.901 75.5773 130.06 76.1154 130.205C78.0742 130.626 79.9426 130.633 81.1244 129.742ZM49.5791 12.4077C50.4272 12.0138 51.2861 11.6371 52.1579 11.2798C51.3851 11.3466 50.8685 11.1765 51.2172 10.901C50.4811 11.6802 49.5619 12.0138 49.5791 12.4077ZM67.3245 129.516L65.4411 129.641L66.7197 129.873L67.3245 129.516ZM53.3525 126.151C52.6852 125.609 52.3408 125.292 52.2138 125.129C51.5057 124.838 50.8039 124.535 50.1087 124.216C50.2357 124.429 50.3519 124.64 50.4854 124.847C48.9635 124.535 48.1563 123.674 47.3534 122.875C44.8048 121.556 42.351 120.064 40.0112 118.407C40.7516 119.039 41.505 119.666 42.252 120.307C43.9869 121.536 45.7842 122.707 47.6096 123.769C49.5146 124.662 51.4152 125.546 53.3525 126.151ZM44.6025 122.561L42.6868 121.399L43.2206 122.768L44.6025 122.561ZM20.1434 32.1378C20.66 31.9247 21.1594 31.5501 21.6975 30.1467C20.9872 30.9819 20.3952 31.1433 19.8808 31.3844C19.3814 31.6319 18.8842 31.9225 18.6 33.1344C19.0908 32.3832 19.6203 32.3444 20.1434 32.1378ZM38.1234 118.835C37.9534 118.409 37.6283 117.929 37.2129 117.41C36.8319 116.85 36.3605 116.256 35.8396 115.664C35.3208 115.072 34.7569 114.483 34.1908 113.927C33.6203 113.38 33.0478 112.864 32.5893 112.349C32.6345 112.354 32.6754 112.354 32.7163 112.349C32.346 111.99 31.9801 111.628 31.6206 111.26C31.6702 111.467 31.7304 111.686 31.8208 111.936C32.0619 112.541 32.3783 113.413 33.2415 114.418L32.2965 114.084C33.4804 115.279 33.7904 117.046 36.1539 118.011C36.5714 117.427 35.1422 116.215 34.66 115.339C35.0023 115.348 35.366 116.08 35.8934 116.902C36.1582 117.311 36.4552 117.752 36.819 118.107C37.2043 118.445 37.637 118.714 38.1234 118.835ZM22.0182 30.8183C22.862 29.9809 23.144 29.9508 23.68 28.1793C22.8319 29.0166 21.9946 30.3469 22.0182 30.8183ZM27.9377 107.153C26.5794 105.496 25.3051 103.759 24.1191 101.951C24.1514 102.013 24.1815 102.069 24.2138 102.129C24.7197 103.044 25.2147 104.079 25.8583 105.057C25.8583 105.057 25.7249 104.897 25.5247 104.656C25.3202 104.417 25.0511 104.099 24.8294 103.741C24.358 103.05 23.8888 102.362 23.8888 102.362C23.7984 103.229 24.4893 104.469 25.4774 105.468C26.418 106.505 27.4189 107.467 27.66 108.115C27.9635 107.844 27.9571 107.465 27.9377 107.153ZM14.4844 60.7749C14.4026 60.8115 14.3144 60.8826 14.2175 61.0289L13.8666 62.1009C13.957 62.6605 14.1142 62.7854 14.2864 62.6541C14.3423 62.0255 14.4091 61.3992 14.4844 60.7749ZM22.8749 99.9788C22.6102 99.5397 22.3497 99.0963 22.0957 98.6464C22.3713 99.2922 22.6812 99.9465 22.9611 100.543C22.8642 100.306 22.8513 100.13 22.8749 99.9788ZM141.096 53.2906C141.451 53.973 141.735 54.6768 141.735 54.6768C139.815 55.3226 142.26 58.8592 140.493 59.5932C140.898 62.8909 141.591 59.0099 141.546 60.2088C141.897 61.7479 141.666 63.9564 141.513 65.8484C141.472 66.322 141.434 66.7805 141.399 67.2067C141.333 67.635 141.281 68.0311 141.255 68.3862C141.203 69.0944 141.249 69.6347 141.477 69.9038C141.074 71.2426 141.02 72.6353 140.874 73.9764C140.678 75.3088 140.521 76.5938 140.177 77.6808L141.005 77.9671C140.812 78.5354 140.596 79.1639 140.385 79.7774C140.172 80.3909 139.931 80.9936 139.882 81.5748C140.011 81.5941 140.162 81.4693 140.319 81.2583C139.942 82.3152 139.608 83.3205 139.303 84.2934C138.991 85.2642 138.758 86.2134 138.379 87.0981C137.721 88.8955 137.09 90.6175 136.442 92.389C137.068 92.4041 137.411 92.5311 138.3 90.5271C138.188 92.3718 136.92 94.4189 135.568 96.608C135.228 97.1526 134.877 97.7079 134.526 98.2719C134.137 98.8122 133.741 99.361 133.347 99.9099C132.578 101.018 131.859 102.157 131.267 103.348L131.823 103.233C131.887 103.285 129.584 105.3 129.584 105.3C130.163 104.975 130.174 105.455 130.482 105.64C129.778 106.718 129.018 107.851 128.226 108.957C127.369 110.012 126.431 111.004 125.529 111.915C123.906 113.645 122.076 114.777 120.617 115.165C121.049 115.311 119.644 117.391 121.93 116.037C117.526 118.964 112.336 122.94 107.254 125.482L107.301 125.383L105.015 126.08L104.918 126.293L106.531 125.803C105.484 126.255 104.46 126.666 103.472 127.004C102.977 127.167 102.503 127.337 102.019 127.439C101.53 127.525 101.055 127.589 100.594 127.63C100.372 128.028 100.155 128.96 98.9924 129.731C98.887 129.483 98.4694 129.565 97.8581 129.826C97.2403 130.075 96.4482 130.568 95.5054 130.908C93.6499 131.662 91.4091 132.497 89.9303 132.28C89.6354 132.661 91.1336 132.17 90.2812 132.779C88.5312 133.093 86.538 133.283 84.4457 133.509C83.4039 133.659 82.3083 133.631 81.2019 133.64C80.0976 133.649 78.9718 133.659 77.8375 133.668C76.7074 133.73 75.5665 133.586 74.4257 133.524C73.287 133.451 72.1505 133.39 71.0204 133.347C68.771 133.201 66.5798 132.88 64.4617 132.839C64.1539 130.734 57.3218 129.813 53.5742 127.286C52.1041 128.08 55.6945 128.674 56.5447 129.933C54.2695 128.868 55.5589 131.214 51.6348 128.808C51.6951 128.978 51.6391 129.074 51.7898 129.191C50.7781 128.564 52.9952 128.173 49.7879 127.133L49.3079 127.863L47.6247 125.861C44.0235 124.354 40.855 122.494 38.0244 120.395C37.3055 119.883 36.5736 119.403 35.8783 118.884C35.2024 118.338 34.5309 117.793 33.8614 117.253C32.5161 116.174 31.0782 115.21 29.7673 114.071C29.6166 113.637 30.0407 113.473 30.807 113.929C29.7221 112.829 28.8095 111.372 27.8064 109.971C26.9066 108.473 25.9444 107.003 24.5109 105.894L24.8165 106.854C24.3042 106.355 23.8759 105.898 23.5142 105.474C23.1763 105.031 22.9309 104.6 22.707 104.2C22.2722 103.397 22.0032 102.676 21.7492 101.916C21.5038 101.152 21.2412 100.368 20.9011 99.3912C20.6105 98.3817 20.2015 97.2021 19.5321 95.7104C20.2704 96.9847 21.2498 100.338 22.3777 100.041C22.5284 99.29 21.0302 96.3884 20.053 95.6286L20.4835 95.6114C19.4115 93.4524 18.458 91.2159 17.6336 88.8998C17.5173 88.6609 17.3968 88.4112 17.2719 88.1507C16.8802 87.3457 16.6154 86.3878 16.327 85.4902C15.9912 84.3644 15.7436 83.2839 15.7436 82.5068C15.6726 82.2076 15.5994 81.9105 15.5305 81.607C14.9235 78.8862 14.5081 76.1655 14.2735 73.4619L14.0109 75.0332C13.957 69.441 13.0573 75.7221 12.1102 71.6882C12.2114 69.2903 11.811 67.4434 11.2061 65.8054C10.6249 64.1781 9.86725 62.766 10.0459 61.4939C10.8897 56.4806 10.8725 63.5172 11.8347 60.4757C12.3125 57.8088 11.359 59.0594 11.3697 57.3051C11.3697 57.3051 11.7249 57.0597 12.0822 56.8121C12.4352 56.5689 12.8313 56.3407 12.8334 56.3407C13.716 53.3982 11.6668 55.964 12.545 54.3604C12.3254 51.7645 11.882 55.0083 10.7627 55.4302C11.176 54.8921 12.2695 52.3392 12.0478 51.0714C11.6926 51.0068 10.8746 54.2679 11.219 52.1239C11.7765 50.2147 12.3642 48.7208 12.7818 47.3755C13.2037 46.0345 13.4598 44.8398 13.7655 43.6882C14.1293 42.5603 14.4736 41.4388 14.9235 40.1968C15.1495 39.5769 15.3992 38.9225 15.692 38.2251C15.9826 37.5255 16.426 36.8367 16.8737 36.0597L16.0019 36.3051C16.5293 35.6528 17.0782 35.2589 17.2762 34.469L16.6929 34.6347C17.1449 33.679 21.676 27.9253 24.7627 24.3112L22.5757 25.678L26.0478 23.0218L24.8876 22.6107C25.3417 22.5181 25.8519 22.1845 26.4072 21.6916C27.0078 21.2395 27.6665 20.6411 28.3639 19.9653C29.7587 18.6221 31.2892 16.9345 33.0306 15.8733L32.557 15.3352L34.7418 14.1427L33.7861 14.2611C35.704 12.6919 38.8316 12.2097 40.8464 10.2143C39.4558 11.3681 38.4743 10.6427 38.3387 10.1282C38.3387 10.1282 38.7713 9.94311 39.4257 9.66328C40.0844 9.40067 40.9238 8.99384 41.8171 8.68819C43.6037 8.12423 45.3925 7.55811 45.3925 7.55811C45.3236 7.07595 47.6935 5.68542 46.3676 5.84471C46.6431 5.79305 47.0047 5.72631 47.3685 5.65959C48.124 5.58425 48.8796 5.50891 48.8796 5.50891L48.4469 5.06334C51.0558 3.78689 53.6754 2.6805 56.4156 2.24569C57.7695 1.97447 59.1148 1.7463 60.4494 1.53751C61.8012 1.4062 63.1573 1.36531 64.494 1.28136C65.8371 1.23831 67.1523 1.04673 68.4955 1.08333C69.8365 1.08978 71.1711 1.06826 72.5143 0.990767C73.1859 0.941259 73.8596 0.889599 74.5398 0.840091C75.22 0.833634 75.9023 0.809957 76.5933 0.766906C77.9752 0.682958 79.3808 0.521517 80.8381 0.261062L80.6465 0.0415039C80.6465 0.0415039 81.0662 0.110386 81.6819 0.332096C82.2932 0.536585 83.1111 0.809955 83.9291 1.08117C85.5327 1.63007 87.1385 2.17896 87.1385 2.17896C88.3568 2.22632 88.8713 1.36746 90.9312 1.45141C89.7366 2.32103 94.7262 2.35762 95.6108 3.7869C97.236 3.87084 95.7938 3.09163 95.4989 2.54489C97.1219 2.81395 98.6265 3.2337 100.062 3.73524C101.498 4.24323 102.787 5.02459 104.12 5.71555C106.828 7.05012 109.284 8.90775 112.564 10.3585C109.124 9.17681 107.469 8.59778 106.104 8.0123C104.686 7.55166 103.56 7.11039 101.274 6.41512C106.124 9.21556 107.45 8.73769 112.424 12.1774C112.424 12.1774 112.297 12.0504 112.106 11.861C111.91 11.6759 111.667 11.4025 111.385 11.1873C110.833 10.7309 110.285 10.2746 110.285 10.2746C112.106 10.3047 113.886 11.9191 115.457 13.2472C116.23 13.9339 116.99 14.5129 117.586 14.9822C118.193 15.4385 118.735 15.6624 119.202 15.4686C120.496 16.7903 121.519 18.2109 122.459 19.793C123.389 21.3945 124.418 22.9637 126.02 24.4576C126.02 24.4576 126.007 23.8527 125.972 23.2522C125.936 22.6473 125.897 22.0424 125.897 22.0424C125.897 22.0424 126.073 22.2254 126.338 22.5009C126.594 22.7829 126.977 23.1252 127.29 23.5277C127.927 24.322 128.566 25.1162 128.566 25.1162L127.765 25.8395C128.523 26.8921 129.093 27.2881 129.405 27.2537C129.584 27.9855 129.918 28.6744 130.284 29.3976C130.619 30.1424 131.033 30.8893 131.465 31.6578C132.305 33.2097 133.379 34.7811 133.743 36.699L134.404 36.8281C134.41 37.1488 134.455 37.5686 134.417 37.6956C135.579 37.9302 136.659 40.7586 137.482 40.5649C137.159 39.3767 136.276 36.6215 135.874 37.0821C135.637 35.4548 136.203 36.2297 136.95 37.659C137.322 38.3715 137.736 39.2454 138.115 40.0526C138.422 40.8899 138.706 41.6605 138.883 42.1405C137.602 40.2808 138.526 42.9865 138.773 44.1962C138.98 44.3275 138.898 43.925 139.025 43.6581C141.059 47.0375 138.631 49.1362 141.152 51.0541L140.357 51.9367C140.347 51.9453 140.719 52.619 141.096 53.2906ZM46.3568 5.84901C46.232 5.86408 46.077 5.89206 45.8811 5.93726C45.8811 5.93726 46.0727 5.90067 46.3568 5.84901ZM129.225 25.6135C129.192 26.1817 129.27 26.7306 129.399 27.258C129.758 27.2214 129.758 26.5886 129.225 25.6135ZM134.399 36.8346L134.909 36.9465C134.46 36.1716 134.389 36.4191 134.399 36.8346ZM16.5121 92.1523L16.3894 91.6572C16.4174 91.8035 16.4561 91.9671 16.5121 92.1523ZM107.204 125.59L107.256 125.478C107.002 125.59 106.77 125.691 106.531 125.8L107.204 125.59ZM17.965 92.3266L17.8079 90.568L17.2805 90.596L17.965 92.3266ZM16.3872 91.6572L15.7221 88.9945C16.6348 90.441 16.1655 90.5249 16.3872 91.6572Z" fill="#010005"/>
<path d="M20.5002 24.1191C19.9077 24.3783 19.3754 25.4245 19.1208 26.2623C17.1953 32.1501 12.7239 35.7003 8.46077 39.5283C7.96087 39.8523 7.29432 40.1254 6.52132 40.2597C4.82256 40.5513 3.97087 39.7459 3.66537 37.9731C3.1238 34.8116 4.3458 30.3911 4.8457 27.2898C6.44263 19.9486 10.8631 14.2691 15.5197 8.54332C16.0427 7.89529 16.6074 7.48333 17.149 7.39076C18.2275 7.20561 19.4819 8.02026 19.7596 9.64033C20.0929 11.5659 19.9448 13.5007 20.2919 15.505C20.3845 16.0466 20.6298 16.5604 20.8011 17.0834C21.213 16.6946 22.0971 16.3058 22.4026 15.7781C22.3471 17.2963 22.5323 18.8516 22.5693 20.4346L22.4073 23.6377C21.7083 23.7535 21.0279 23.9479 20.5002 24.1191ZM48.5228 17.6342C48.9903 15.7272 48.9811 13.8247 48.6894 12.126C47.3656 4.41444 39.5569 -0.83458 34.081 0.10969C28.2997 1.10488 27.2119 5.41889 27.3323 6.11321C27.374 6.34465 27.5545 6.47425 27.7072 6.44648C27.86 6.41871 28.0035 6.31687 28.1284 6.13635C29.2023 4.52091 34.2384 3.34058 34.2384 3.34058C38.7422 3.20172 44.0884 5.21986 45.1207 11.2373C45.8613 15.5559 44.056 19.8375 42.5471 23.5081C40.3762 28.8821 37.0296 33.9044 32.6878 37.7463C31.7157 38.547 30.3132 38.709 29.0264 39.0886C28.7117 38.1906 28.2303 37.2417 28.0868 36.39C28.0359 36.0799 28.059 35.7605 28.096 35.5152C29.0588 32.3352 30.0586 29.3821 31.2019 26.3271C31.7991 24.7163 32.5165 24.2765 32.5026 21.8973L30.9103 22.3278C30.3965 22.5731 30.0401 23.2721 29.73 23.323C28.6885 23.2628 27.8229 22.8555 27.7026 22.1612C27.1471 18.921 28.4525 14.968 27.8785 11.6492C27.6146 10.1078 26.2954 8.90435 24.9068 9.14505C24.0597 9.29317 23.3654 9.88566 22.972 10.8253L23.0553 9.93658C22.3054 6.96954 20.5095 2.98879 16.9638 3.59979C13.5709 4.18301 9.11806 11.0614 6.438 15.3337C2.13787 22.1843 -0.412587 29.5302 0.0549194 37.7879C0.0456619 38.186 0.110469 38.5702 0.175272 38.959C0.638149 41.6576 3.1238 44.5644 6.438 43.9951C9.7522 43.4258 13.2377 38.3017 16.6537 36.9177L21.912 31.0114L21.0834 45.1291C20.8335 48.7442 20.5928 52.438 20.2641 56.0669C20.2641 56.0669 18.1997 62.5333 18.8385 66.2364C19.144 68.0092 20.0512 69.1247 21.9768 68.7914C25.6798 68.1573 25.5687 54.1228 26.2908 46.7724C26.5361 44.5089 27.3277 43.5785 29.7948 43.1527L30.4891 43.0323C32.1879 42.7407 34.0347 41.9445 35.2614 40.7827C42.2786 34.4274 46.3056 26.4335 48.5228 17.6342Z" fill="white"/>
<path d="M65.0616 32.5758C63.3444 36.4455 61.4373 43.3609 58.7387 43.8238C57.813 43.9811 57.2946 42.8008 57.2251 42.4166C56.8548 40.2596 59.2988 35.0754 60.9652 31.8491C61.1318 31.4233 61.9511 31.1224 62.7241 30.9928C63.7286 30.8215 63.872 31.1918 65.0616 32.5758ZM63.9322 26.0215C62.1362 27.1231 59.9931 28.0489 58.6786 29.6227C54.7626 33.6312 52.6704 39.9448 53.6517 45.6521C54.022 47.8091 55.8689 49.3181 58.1046 48.9339C60.6504 48.4942 62.8722 45.7308 63.4138 45.6382C64.1081 45.5179 65.5801 51.776 68.5888 51.2576C71.5975 50.7391 69.5886 38.1443 69.7228 31.0576C69.7182 30.5808 69.6395 30.118 69.5747 29.7338C69.1118 27.0352 67.302 25.7577 63.9322 26.0215Z" fill="white"/>
<path d="M87.761 24.23L87.6267 23.457C87.2148 21.0685 86.1687 20.0548 84.3171 20.3742C83.2386 20.5594 80.6974 21.4712 79.6745 22.92C75.2494 27.6506 74.1431 33.2376 75.1244 38.9449C75.7724 42.7219 76.8833 45.4714 80.915 47.2396C81.6 47.5173 82.3962 47.5405 83.2433 47.397C86.7148 46.7999 91.2233 43.0089 91.5797 40.0095C91.4455 39.2365 91.0705 38.9078 90.1448 39.0652C88.2192 39.3985 86.6732 41.9628 84.8217 42.2822C82.586 42.6664 81.6417 41.3194 81.2436 39.005C80.554 34.9965 80.8178 30.9787 82.8035 27.3035C83.16 26.6092 83.5441 26.063 84.0811 25.9704C84.9281 25.8223 85.4743 27.16 87.1916 28.3727C87.798 26.7619 87.8859 25.8732 87.761 24.23Z" fill="white"/>
<path d="M123.866 24.1328C123.634 24.1745 123.467 24.1235 123.389 24.1374L123.268 23.4431C122.912 21.3602 121.167 19.9947 120.473 20.115C117.233 20.6705 116.543 23.5681 114.946 26.3037C114.335 27.3637 113.409 27.9978 112.747 29.2198C112.261 27.3174 110.947 23.8134 109.942 23.9847C107.785 24.355 106.054 28.146 104.11 30.2289C103.661 30.863 102.74 31.0204 101.958 31.5527C101.749 30.7936 101.384 30.0623 101.263 29.3679C101.023 27.9793 101.277 26.6647 101.064 25.4335C100.786 23.8134 100.018 22.1193 98.2453 22.4248C96.5465 22.7164 95.0375 23.6098 94.9959 25.6834C94.8339 32.1406 94.7274 38.4311 94.7691 44.6984L94.8616 45.24C95.2458 47.4757 96.6391 48.6653 97.5648 48.5079C98.8007 48.295 100.125 45.8464 100.435 43.4903C101.152 37.4914 104.091 31.5064 108.484 27.4979C108.743 28.0904 109.16 28.6505 109.28 29.3448C109.692 31.7333 109.035 34.3902 109.447 36.7786C109.567 37.4729 110.15 38.0886 110.576 38.7273C111.294 38.2876 112.335 37.871 112.678 37.098C114.765 33.0849 116.251 28.7847 118.561 25.1326C118.816 24.7716 119.51 24.6512 119.945 24.4198C120.102 24.8688 120.348 25.3826 120.426 25.8455L120.028 33.6958C119.829 37.1443 119.487 40.6946 119.39 44.2865C119.496 44.9021 120.32 45.5548 120.764 46.2722C121.287 45.6242 122.213 44.9901 122.245 44.2726C123.745 38.2089 123.347 30.8121 123.866 24.1328Z" fill="white"/>
<path d="M59.9422 87.6537C59.3543 87.9129 58.822 88.9497 58.5721 89.7829C56.6558 95.6383 52.2121 99.1608 47.9722 102.97C47.4769 103.294 46.8104 103.563 46.0466 103.697C44.3617 103.989 43.5101 103.188 43.2092 101.424C42.6676 98.2813 43.885 93.8886 44.3849 90.8059C45.9726 83.5109 50.3699 77.8592 54.994 72.1704C55.5171 71.527 56.0772 71.1151 56.6141 71.0225C57.688 70.8373 58.9331 71.652 59.2109 73.2582C59.5395 75.1745 59.396 77.0954 59.7385 79.0858C59.8311 79.6228 60.0764 80.1319 60.2431 80.655C60.6504 80.2708 61.5299 79.882 61.8354 79.3543C61.7798 80.8633 61.965 82.4093 61.9974 83.983L61.8354 87.1676C61.141 87.288 60.4652 87.487 59.9422 87.6537ZM87.7982 81.2104C88.261 79.3172 88.2518 77.4241 87.9602 75.7346C86.641 68.0693 78.8785 62.8527 73.4351 63.7877C67.6861 64.7783 66.6076 69.0645 66.728 69.7542C66.7696 69.9856 66.9455 70.1106 67.0983 70.0828C67.251 70.0551 67.3899 69.9533 67.5195 69.7727C68.5841 68.1712 73.5925 66.9908 73.5925 66.9908C78.0685 66.852 83.3823 68.8608 84.4145 74.8366C85.1505 79.1275 83.3592 83.3859 81.8548 87.0381C79.6932 92.3797 76.3697 97.3741 72.0557 101.193C71.0883 101.989 69.695 102.151 68.4175 102.531C68.1074 101.637 67.626 100.693 67.4825 99.8505C67.4316 99.545 67.4547 99.2256 67.4917 98.9803C68.4453 95.8188 69.4451 92.8842 70.5791 89.8477C71.1716 88.2462 71.8844 87.8064 71.8752 85.4411L70.2921 85.8716C69.783 86.1169 69.4266 86.8112 69.1211 86.8622C68.0842 86.802 67.2279 86.3993 67.1075 85.7096C66.5521 82.488 67.8528 78.5581 67.2834 75.2624C67.0196 73.7303 65.7097 72.5361 64.3303 72.7722C63.4878 72.9157 62.7982 73.5081 62.4093 74.4431L62.4927 73.5591C61.7474 70.6105 59.9653 66.6529 56.4382 67.2593C53.0638 67.8379 48.6387 74.6792 45.9726 78.9238C41.6956 85.7374 39.1636 93.0369 39.6265 101.244C39.6173 101.642 39.682 102.021 39.7469 102.406C40.2097 105.09 42.6769 107.979 45.9726 107.414C49.2682 106.849 52.7352 101.753 56.1281 100.378L61.354 94.5089L60.5301 108.543C60.2801 112.14 60.044 115.811 59.7154 119.416C59.7154 119.416 57.6648 125.846 58.2944 129.526C58.5952 131.289 59.4978 132.395 61.4141 132.067C65.094 131.433 64.9829 117.481 65.7004 110.177C65.9457 107.928 66.7326 107.002 69.1859 106.581L69.8755 106.46C71.5604 106.169 73.398 105.382 74.62 104.225C81.591 97.9018 85.5949 89.9542 87.7982 81.2104Z" fill="white"/>
<path d="M96.3565 142.482C96.9212 142.542 97.3794 142.463 97.8377 142.384C103.128 141.477 107.28 133.502 107.979 127.461C108.873 119.338 109.201 111.149 109.465 103.054C109.585 98.6933 109.479 93.4999 108.65 89.1442C108.414 87.7648 107.461 86.8205 105.545 87.1538C104.239 87.376 103.582 88.1212 103.383 89.7366C102.939 92.6528 102.184 95.6245 101.42 98.5174C101.133 99.5913 100.37 100.198 99.6429 101.031C99.217 100.392 98.3561 99.5173 98.0598 98.698C97.1202 95.069 96.4629 91.2364 95.3705 87.6352C95.1483 86.8066 94.0976 86.1956 93.2737 85.5476L91.9684 88.061C91.9175 88.2277 91.8804 88.473 91.9221 88.6998C93.3709 97.1334 96.1898 105.724 100.175 105.039C101.249 104.854 102.378 103.632 103.642 102.706C103.809 103.23 104.133 103.725 104.239 104.34C104.554 106.178 104.133 108.779 103.989 110.696C103.383 116.796 103.091 122.925 101.934 129.044C100.925 134.191 98.6246 136.876 94.7919 137.533C93.1672 137.732 91.2 137.756 89.0615 137.256L82.6738 135.909C82.0998 135.77 81.586 136.015 80.9473 135.969C81.2204 136.631 81.2111 137.501 81.5722 137.756C85.5529 140.704 89.4689 143.741 95.065 142.778C95.4492 142.718 95.9075 142.639 96.3565 142.482Z" fill="white"/>
<path d="M118.589 101.012C118.269 101.461 117.913 101.679 117.533 101.748C116.843 101.869 116.265 101.258 116.108 100.337C115.839 95.5689 116.904 91.204 119.635 87.3389C119.889 86.9779 120.398 86.7326 120.935 86.64C122.162 86.4271 122.412 87.413 122.926 88.112C122.741 93.0416 121.523 97.4297 118.589 101.012ZM128.522 78.4702C124.842 79.1044 125.721 83.7655 122.194 84.3719C121.426 84.5015 120.584 84.1775 119.894 84.2932C115.14 85.1125 112.409 96.3141 113.159 100.684C113.751 104.132 115.089 105.484 117.39 105.086C118.158 104.956 119.394 104.345 120.084 104.229C120.852 104.1 121.158 104.516 121.264 105.132C121.565 106.896 121.199 109.798 120.824 111.76C120.028 119.078 119.556 126.42 118.172 133.525C117.45 137.121 116.51 140.834 113.733 143.523C113.451 143.255 113.196 143.143 112.886 143.194C111.738 143.393 111.618 142.704 111.59 142.551C111.104 139.714 112.173 136.293 112.747 133.668C114.187 127.345 116.339 121.055 118.598 114.903C118.991 113.968 119.125 112.918 118.876 111.936C118.746 111.168 118.038 108.451 116.737 108.673C116.506 108.715 116.302 108.904 116.14 109.33C112.242 119.708 106.679 132.345 108.655 143.842C109.243 146.347 110.84 150.573 114.057 150.017C114.362 149.966 114.58 149.851 114.747 149.425C114.992 149.462 115.145 149.434 115.372 149.397C117.135 149.096 120.514 144.407 121.931 141.639C126.032 133.358 126.893 124.133 127.318 115.139C127.698 106.789 128.165 98.4989 128.79 90.181C128.994 87.2278 129.772 84.4089 130.188 81.3354C130.276 80.9235 130.272 80.4513 130.193 79.9931C130.063 79.1553 129.637 78.5165 128.522 78.4702Z" fill="white"/>
</svg>
