<svg width="142" height="151" viewBox="0 0 142 151" fill="none" xmlns="http://www.w3.org/2000/svg">
<path d="M52.4229 129.464C52.1323 129.365 51.9299 129.273 51.7879 129.186C51.8847 129.262 52.0677 129.346 52.4229 129.464ZM140.874 79.5406C140.726 80.1627 140.506 80.6858 140.319 81.254C140.567 80.8989 140.896 80.3134 140.874 79.5406ZM141.475 69.9016C141.598 70.0502 141.765 70.1276 142 70.1018L141.585 69.5034C141.542 69.6304 141.514 69.7682 141.475 69.9016ZM132.579 42.5926C132.077 42.5172 131.836 42.6485 131.552 42.6701C131.875 43.3847 132.187 44.1079 132.486 44.8377C132.391 44.0907 132.404 43.346 132.579 42.5926ZM128.517 27.1676L129.154 28.0544C129.005 27.6756 128.775 27.4044 128.517 27.1676L127.511 25.7706C127.107 26.341 127.856 26.5584 128.517 27.1676ZM128.248 35.4483C128.181 34.822 127.38 34.2451 127.313 33.6166C127.946 33.341 127.66 33.1301 127.04 32.1356C126.941 31.8558 126.795 31.5566 126.457 31.2186C126.702 31.5781 126.885 31.8709 127.04 32.1356C127.52 33.4078 126.53 33.8813 128.248 35.4483ZM122.322 20.2365C121.388 19.4895 122.081 21.1169 122.061 21.7131C121.603 21.3472 121.381 21.0178 120.92 20.3398C120.195 21.7475 122.772 21.5129 123.872 23.7817C124.377 23.2694 122.556 21.19 122.322 20.2365ZM122.464 28.3622C122.367 28.203 122.277 28.0437 122.205 27.8887C121.99 27.4237 121.857 27.0406 122.014 26.6983C121.536 26.7048 121.362 26.8576 121.381 27.1224C121.747 27.5292 122.109 27.9425 122.464 28.3622ZM135.151 93.3641C133.028 94.7224 134.174 95.5446 134.001 97.159C134.001 97.159 133.907 97.4668 133.812 97.7789C133.689 98.076 133.569 98.3752 133.569 98.3752C133.861 97.9361 133.973 97.5228 133.999 97.159L135.151 93.3641ZM132.856 97.3721C133.149 96.9588 133.401 96.382 133.601 95.6307C131.651 97.2968 130.94 97.1483 129.003 99.4837L129.46 100.575C129.886 99.5268 128.999 99.4902 130.514 97.9662C130.712 98.274 131.253 98.4441 131.881 98.1643C132.198 98.0222 132.533 97.7703 132.856 97.3721ZM106.804 13.0922L105.018 11.5962L105.534 11.8029L105.319 10.944C105.192 11.8804 104.548 11.4822 103.698 10.9354C102.863 10.3585 101.879 9.47171 101.272 9.16174C102.594 10.0809 103.844 12.3109 106.804 13.0922ZM126.459 104.435C126.414 104.407 126.364 104.383 126.323 104.346C126.347 104.402 126.396 104.426 126.459 104.435ZM121.108 110.894C120.981 110.492 120.464 110.645 119.829 110.952C119.799 110.985 119.769 111.015 119.737 111.047C120.029 111.105 119.674 111.904 121.108 110.894ZM119.269 115.049C118.495 115.862 117.541 116.876 116.934 117.348C117.182 117.261 117.556 117.07 117.965 116.796C118.35 116.499 118.774 116.129 119.164 115.753C119.943 114.997 120.578 114.205 120.481 113.848C120.654 113.628 120.051 114.239 119.269 115.049ZM118.266 118.206L116.986 118.691C116.968 118.224 117.823 117.01 115.92 119.078L116.986 118.691C117.003 118.921 117.235 118.973 118.266 118.206ZM97.0361 10.3844L97.0726 10.5394C97.2944 10.6233 97.5161 10.7051 97.7356 10.7912C97.5075 10.6427 97.275 10.5049 97.0361 10.3844ZM83.8626 2.99692C83.7012 2.90436 83.5656 2.85485 83.4235 2.79458C82.442 2.24353 81.3291 0.878836 79.3918 1.94218C80.8125 3.20571 81.6348 2.03043 83.4235 2.79458C83.5634 2.87853 83.7162 2.94956 83.8626 2.99692ZM78.9527 4.36807L77.4524 4.40037C79.3574 4.0904 75.0954 3.19064 78.0099 2.91082C79.1873 2.79673 76.0382 2.13806 74.6606 2.39637C74.8909 2.97324 77.5988 2.82687 76.6667 3.52213L75.5108 3.63407C77.2458 3.45971 76.501 5.09132 78.9527 4.36807ZM99.8946 124.735C98.7258 125.237 97.5376 125.706 96.3279 126.138C96.5776 126.138 96.8251 126.147 97.0683 126.171C97.6452 125.943 99.3436 125.271 99.8946 124.735ZM92.2725 128.711C92.0766 128.579 91.7365 128.558 91.3642 128.584C91.1209 128.444 91.0025 128.233 91.0671 128.022C91.3211 127.869 91.5321 127.725 91.6483 127.6C91.5686 127.624 91.4847 127.643 91.4051 127.665C91.2135 127.774 91.1145 127.897 91.065 128.022C90.6409 128.28 90.0382 128.573 89.33 128.874C88.6154 129.143 87.7802 129.341 86.9278 129.561C85.2144 129.946 83.417 130.4 82.1406 130.379C81.6132 130.669 82.1686 130.951 82.993 131.195C83.8067 131.36 84.8915 131.462 85.3931 131.554C84.4632 130.228 85.3479 130.108 86.7255 130.146C87.4164 130.166 88.2365 130.222 89.0114 130.187C89.7864 130.155 90.4881 129.903 90.9702 129.524C90.3417 129.415 88.906 129.888 88.4238 129.492C89.033 129.176 90.3804 128.644 91.3642 128.582C91.6031 128.732 91.9518 128.803 92.2725 128.711ZM81.1246 129.742C80.8943 129.679 80.6597 129.617 80.4186 129.552C78.434 129.709 76.4579 129.774 74.4948 129.74C75.0351 129.901 75.5776 130.06 76.1157 130.205C78.0745 130.626 79.9429 130.633 81.1246 129.742ZM49.5794 12.4077C50.4275 12.0138 51.2863 11.6371 52.1581 11.2798C51.3854 11.3466 50.8687 11.1765 51.2175 10.901C50.4813 11.6802 49.5622 12.0138 49.5794 12.4077ZM67.3248 129.516L65.4413 129.641L66.7199 129.873L67.3248 129.516ZM53.3528 126.151C52.6855 125.609 52.3411 125.292 52.2141 125.129C51.5059 124.838 50.8042 124.535 50.1089 124.216C50.2359 124.429 50.3521 124.64 50.4856 124.847C48.9638 124.535 48.1566 123.674 47.3537 122.875C44.8051 121.556 42.3512 120.064 40.0114 118.407C40.7519 119.039 41.5053 119.666 42.2522 120.307C43.9871 121.536 45.7845 122.707 47.6098 123.769C49.5148 124.662 51.4155 125.546 53.3528 126.151ZM44.6028 122.561L42.687 121.399L43.2208 122.768L44.6028 122.561ZM20.1436 32.1378C20.6602 31.9247 21.1596 31.5501 21.6978 30.1467C20.9874 30.9819 20.3955 31.1433 19.881 31.3844C19.3817 31.6319 18.8844 31.9225 18.6003 33.1344C19.0911 32.3832 19.6206 32.3444 20.1436 32.1378ZM38.1237 118.835C37.9536 118.409 37.6286 117.929 37.2131 117.41C36.8321 116.85 36.3607 116.256 35.8398 115.664C35.3211 115.072 34.7571 114.483 34.191 113.927C33.6206 113.38 33.048 112.864 32.5895 112.349C32.6347 112.354 32.6756 112.354 32.7165 112.349C32.3463 111.99 31.9804 111.628 31.6209 111.26C31.6704 111.467 31.7307 111.686 31.8211 111.936C32.0622 112.541 32.3786 113.413 33.2417 114.418L32.2968 114.084C33.4807 115.279 33.7906 117.046 36.1541 118.011C36.5717 117.427 35.1424 116.215 34.6602 115.339C35.0025 115.348 35.3663 116.08 35.8936 116.902C36.1584 117.311 36.4555 117.752 36.8192 118.107C37.2045 118.445 37.6372 118.714 38.1237 118.835ZM22.0185 30.8183C22.8623 29.9809 23.1443 29.9508 23.6802 28.1793C22.8321 29.0166 21.9948 30.3469 22.0185 30.8183ZM27.9379 107.153C26.5797 105.496 25.3054 103.759 24.1193 101.951C24.1516 102.013 24.1818 102.069 24.2141 102.129C24.7199 103.044 25.215 104.079 25.8586 105.057C25.8586 105.057 25.7251 104.897 25.5249 104.656C25.3205 104.417 25.0514 104.099 24.8297 103.741C24.3583 103.05 23.889 102.362 23.889 102.362C23.7986 103.229 24.4896 104.469 25.4776 105.468C26.4182 106.505 27.4192 107.467 27.6602 108.115C27.9638 107.844 27.9573 107.465 27.9379 107.153ZM14.4847 60.7749C14.4029 60.8115 14.3146 60.8826 14.2177 61.0289L13.8669 62.1009C13.9573 62.6605 14.1144 62.7854 14.2866 62.6541C14.3426 62.0255 14.4093 61.3992 14.4847 60.7749ZM22.8752 99.9788C22.6104 99.5397 22.35 99.0963 22.096 98.6464C22.3715 99.2922 22.6815 99.9465 22.9613 100.543C22.8644 100.306 22.8515 100.13 22.8752 99.9788ZM141.096 53.2906C141.451 53.973 141.735 54.6768 141.735 54.6768C139.815 55.3226 142.261 58.8592 140.493 59.5932C140.898 62.8909 141.591 59.0099 141.546 60.2088C141.897 61.7479 141.666 63.9564 141.514 65.8484C141.473 66.322 141.434 66.7805 141.4 67.2067C141.333 67.635 141.281 68.0311 141.255 68.3862C141.204 69.0944 141.249 69.6347 141.477 69.9038C141.075 71.2426 141.021 72.6353 140.874 73.9764C140.678 75.3088 140.521 76.5938 140.177 77.6808L141.006 77.9671C140.812 78.5354 140.597 79.1639 140.386 79.7774C140.173 80.3909 139.932 80.9936 139.882 81.5748C140.011 81.5941 140.162 81.4693 140.319 81.2583C139.942 82.3152 139.609 83.3205 139.303 84.2934C138.991 85.2642 138.758 86.2134 138.38 87.0981C137.721 88.8955 137.09 90.6175 136.442 92.389C137.069 92.4041 137.411 92.5311 138.3 90.5271C138.188 92.3718 136.92 94.4189 135.568 96.608C135.228 97.1526 134.877 97.7079 134.527 98.2719C134.137 98.8122 133.741 99.361 133.347 99.9099C132.579 101.018 131.86 102.157 131.268 103.348L131.823 103.233C131.888 103.285 129.584 105.3 129.584 105.3C130.163 104.975 130.174 105.455 130.482 105.64C129.778 106.718 129.018 107.851 128.226 108.957C127.369 110.012 126.431 111.004 125.529 111.915C123.906 113.645 122.076 114.777 120.617 115.165C121.05 115.311 119.644 117.391 121.93 116.037C117.526 118.964 112.336 122.94 107.254 125.482L107.301 125.383L105.015 126.08L104.919 126.293L106.531 125.803C105.485 126.255 104.46 126.666 103.472 127.004C102.977 127.167 102.503 127.337 102.019 127.439C101.531 127.525 101.055 127.589 100.594 127.63C100.372 128.028 100.155 128.96 98.9927 129.731C98.8872 129.483 98.4696 129.565 97.8583 129.826C97.2405 130.075 96.4484 130.568 95.5056 130.908C93.6501 131.662 91.4094 132.497 89.9306 132.28C89.6357 132.661 91.1338 132.17 90.2814 132.779C88.5314 133.093 86.5382 133.283 84.446 133.509C83.4041 133.659 82.3085 133.631 81.2021 133.64C80.0979 133.649 78.9721 133.659 77.8377 133.668C76.7076 133.73 75.5668 133.586 74.4259 133.524C73.2873 133.451 72.1507 133.39 71.0207 133.347C68.7713 133.201 66.58 132.88 64.4619 132.839C64.1541 130.734 57.322 129.813 53.5745 127.286C52.1043 128.08 55.6947 128.674 56.545 129.933C54.2697 128.868 55.5591 131.214 51.635 128.808C51.6953 128.978 51.6394 129.074 51.79 129.191C50.7783 128.564 52.9954 128.173 49.7882 127.133L49.3082 127.863L47.6249 125.861C44.0237 124.354 40.8552 122.494 38.0246 120.395C37.3057 119.883 36.5738 119.403 35.8786 118.884C35.2027 118.338 34.5311 117.793 33.8617 117.253C32.5163 116.174 31.0785 115.21 29.7676 114.071C29.6169 113.637 30.0409 113.473 30.8072 113.929C29.7224 112.829 28.8097 111.372 27.8066 109.971C26.9069 108.473 25.9447 107.003 24.5111 105.894L24.8168 106.854C24.3045 106.355 23.8761 105.898 23.5145 105.474C23.1765 105.031 22.9312 104.6 22.7073 104.2C22.2725 103.397 22.0034 102.676 21.7494 101.916C21.504 101.152 21.2414 100.368 20.9013 99.3912C20.6107 98.3817 20.2018 97.2021 19.5323 95.7104C20.2706 96.9847 21.25 100.338 22.378 100.041C22.5286 99.29 21.0305 96.3884 20.0532 95.6286L20.4837 95.6114C19.4118 93.4524 18.4582 91.2159 17.6338 88.8998C17.5176 88.6609 17.397 88.4112 17.2722 88.1507C16.8804 87.3457 16.6157 86.3878 16.3272 85.4902C15.9914 84.3644 15.7439 83.2839 15.7439 82.5068C15.6729 82.2076 15.5997 81.9105 15.5308 81.607C14.9238 78.8862 14.5083 76.1655 14.2737 73.4619L14.0111 75.0332C13.9573 69.441 13.0575 75.7221 12.1104 71.6882C12.2116 69.2903 11.8112 67.4434 11.2064 65.8054C10.6252 64.1781 9.8675 62.766 10.0462 61.4939C10.8899 56.4806 10.8727 63.5172 11.8349 60.4757C12.3128 57.8088 11.3592 59.0594 11.37 57.3051C11.37 57.3051 11.7251 57.0597 12.0824 56.8121C12.4355 56.5689 12.8315 56.3407 12.8337 56.3407C13.7162 53.3982 11.667 55.964 12.5452 54.3604C12.3257 51.7645 11.8823 55.0083 10.7629 55.4302C11.1762 54.8921 12.2697 52.3392 12.048 51.0714C11.6928 51.0068 10.8749 54.2679 11.2193 52.1239C11.7768 50.2147 12.3644 48.7208 12.782 47.3755C13.2039 46.0345 13.4601 44.8398 13.7657 43.6882C14.1295 42.5603 14.4739 41.4388 14.9238 40.1968C15.1498 39.5769 15.3995 38.9225 15.6922 38.2251C15.9828 37.5255 16.4262 36.8367 16.874 36.0597L16.0022 36.3051C16.5296 35.6528 17.0785 35.2589 17.2765 34.469L16.6931 34.6347C17.1452 33.679 21.6762 27.9253 24.763 24.3112L22.576 25.678L26.048 23.0218L24.8878 22.6107C25.342 22.5181 25.8521 22.1845 26.4075 21.6916C27.008 21.2395 27.6667 20.6411 28.3641 19.9653C29.759 18.6221 31.2894 16.9345 33.0308 15.8733L32.5572 15.3352L34.742 14.1427L33.7863 14.2611C35.7042 12.6919 38.8318 12.2097 40.8466 10.2143C39.4561 11.3681 38.4745 10.6427 38.3389 10.1282C38.3389 10.1282 38.7716 9.94311 39.4259 9.66328C40.0846 9.40067 40.9241 8.99384 41.8174 8.68819C43.604 8.12423 45.3927 7.55811 45.3927 7.55811C45.3239 7.07595 47.6938 5.68542 46.3678 5.84471C46.6433 5.79305 47.005 5.72631 47.3687 5.65959C48.1243 5.58425 48.8798 5.50891 48.8798 5.50891L48.4472 5.06334C51.056 3.78689 53.6756 2.6805 56.4158 2.24569C57.7697 1.97447 59.1151 1.7463 60.4496 1.53751C61.8014 1.4062 63.1575 1.36531 64.4942 1.28136C65.8374 1.23831 67.1526 1.04673 68.4958 1.08333C69.8368 1.08978 71.1713 1.06826 72.5145 0.990767C73.1861 0.941259 73.8598 0.889599 74.54 0.840091C75.2202 0.833634 75.9026 0.809957 76.5935 0.766906C77.9755 0.682958 79.3811 0.521517 80.8383 0.261062L80.6467 0.0415039C80.6467 0.0415039 81.0665 0.110386 81.6821 0.332096C82.2934 0.536585 83.1114 0.809955 83.9293 1.08117C85.533 1.63007 87.1387 2.17896 87.1387 2.17896C88.3571 2.22632 88.8715 1.36746 90.9315 1.45141C89.7368 2.32103 94.7264 2.35762 95.6111 3.7869C97.2362 3.87084 95.794 3.09163 95.4992 2.54489C97.1222 2.81395 98.6268 3.2337 100.062 3.73524C101.498 4.24323 102.788 5.02459 104.12 5.71555C106.828 7.05012 109.284 8.90775 112.564 10.3585C109.125 9.17681 107.469 8.59778 106.105 8.0123C104.686 7.55166 103.56 7.11039 101.274 6.41512C106.124 9.21556 107.45 8.73769 112.424 12.1774C112.424 12.1774 112.297 12.0504 112.106 11.861C111.91 11.6759 111.667 11.4025 111.385 11.1873C110.834 10.7309 110.285 10.2746 110.285 10.2746C112.106 10.3047 113.886 11.9191 115.457 13.2472C116.23 13.9339 116.99 14.5129 117.586 14.9822C118.193 15.4385 118.736 15.6624 119.203 15.4686C120.496 16.7903 121.519 18.2109 122.459 19.793C123.389 21.3945 124.418 22.9637 126.02 24.4576C126.02 24.4576 126.007 23.8527 125.972 23.2522C125.936 22.6473 125.897 22.0424 125.897 22.0424C125.897 22.0424 126.074 22.2254 126.338 22.5009C126.594 22.7829 126.978 23.1252 127.29 23.5277C127.927 24.322 128.566 25.1162 128.566 25.1162L127.765 25.8395C128.523 26.8921 129.094 27.2881 129.406 27.2537C129.584 27.9855 129.918 28.6744 130.284 29.3976C130.62 30.1424 131.033 30.8893 131.466 31.6578C132.305 33.2097 133.379 34.7811 133.743 36.699L134.404 36.8281C134.41 37.1488 134.455 37.5686 134.417 37.6956C135.579 37.9302 136.66 40.7586 137.482 40.5649C137.159 39.3767 136.277 36.6215 135.874 37.0821C135.637 35.4548 136.203 36.2297 136.95 37.659C137.323 38.3715 137.736 39.2454 138.115 40.0526C138.423 40.8899 138.707 41.6605 138.883 42.1405C137.602 40.2808 138.526 42.9865 138.773 44.1962C138.98 44.3275 138.898 43.925 139.025 43.6581C141.059 47.0375 138.631 49.1362 141.152 51.0541L140.358 51.9367C140.347 51.9453 140.719 52.619 141.096 53.2906ZM46.3571 5.84901C46.2322 5.86408 46.0772 5.89206 45.8814 5.93726C45.8814 5.93726 46.0729 5.90067 46.3571 5.84901ZM129.225 25.6135C129.193 26.1817 129.27 26.7306 129.399 27.258C129.759 27.2214 129.759 26.5886 129.225 25.6135ZM134.4 36.8346L134.91 36.9465C134.46 36.1716 134.389 36.4191 134.4 36.8346ZM16.5123 92.1523L16.3896 91.6572C16.4176 91.8035 16.4564 91.9671 16.5123 92.1523ZM107.205 125.59L107.256 125.478C107.002 125.59 106.77 125.691 106.531 125.8L107.205 125.59ZM17.9653 92.3266L17.8082 90.568L17.2808 90.596L17.9653 92.3266ZM16.3875 91.6572L15.7224 88.9945C16.635 90.441 16.1658 90.5249 16.3875 91.6572Z" fill="#EA392C"/>
<path d="M20.5002 24.1191C19.9077 24.3783 19.3754 25.4245 19.1208 26.2623C17.1953 32.1501 12.7239 35.7003 8.46077 39.5283C7.96087 39.8523 7.29432 40.1254 6.52132 40.2597C4.82256 40.5513 3.97087 39.7459 3.66537 37.9731C3.1238 34.8116 4.3458 30.3911 4.8457 27.2898C6.44263 19.9486 10.8631 14.2691 15.5197 8.54332C16.0427 7.89529 16.6074 7.48333 17.149 7.39076C18.2275 7.20561 19.4819 8.02026 19.7596 9.64033C20.0929 11.5659 19.9448 13.5007 20.2919 15.505C20.3845 16.0466 20.6298 16.5604 20.8011 17.0834C21.213 16.6946 22.0971 16.3058 22.4026 15.7781C22.3471 17.2963 22.5323 18.8516 22.5693 20.4346L22.4073 23.6377C21.7083 23.7535 21.0279 23.9479 20.5002 24.1191ZM48.5228 17.6342C48.9903 15.7272 48.9811 13.8247 48.6894 12.126C47.3656 4.41444 39.5569 -0.83458 34.081 0.10969C28.2997 1.10488 27.2119 5.41889 27.3323 6.11321C27.374 6.34465 27.5545 6.47425 27.7072 6.44648C27.86 6.41871 28.0035 6.31687 28.1284 6.13635C29.2023 4.52091 34.2384 3.34058 34.2384 3.34058C38.7422 3.20172 44.0884 5.21986 45.1207 11.2373C45.8613 15.5559 44.056 19.8375 42.5471 23.5081C40.3762 28.8821 37.0296 33.9044 32.6878 37.7463C31.7157 38.547 30.3132 38.709 29.0264 39.0886C28.7117 38.1906 28.2303 37.2417 28.0868 36.39C28.0359 36.0799 28.059 35.7605 28.096 35.5152C29.0588 32.3352 30.0586 29.3821 31.2019 26.3271C31.7991 24.7163 32.5165 24.2765 32.5026 21.8973L30.9103 22.3278C30.3965 22.5731 30.0401 23.2721 29.73 23.323C28.6885 23.2628 27.8229 22.8555 27.7026 22.1612C27.1471 18.921 28.4525 14.968 27.8785 11.6492C27.6146 10.1078 26.2954 8.90435 24.9068 9.14505C24.0597 9.29317 23.3654 9.88566 22.972 10.8253L23.0553 9.93658C22.3054 6.96954 20.5095 2.98879 16.9638 3.59979C13.5709 4.18301 9.11806 11.0614 6.438 15.3337C2.13787 22.1843 -0.412587 29.5302 0.0549194 37.7879C0.0456619 38.186 0.110469 38.5702 0.175272 38.959C0.638149 41.6576 3.1238 44.5644 6.438 43.9951C9.7522 43.4258 13.2377 38.3017 16.6537 36.9177L21.912 31.0114L21.0834 45.1291C20.8335 48.7442 20.5928 52.438 20.2641 56.0669C20.2641 56.0669 18.1997 62.5333 18.8385 66.2364C19.144 68.0092 20.0512 69.1247 21.9768 68.7914C25.6798 68.1573 25.5687 54.1228 26.2908 46.7724C26.5361 44.5089 27.3277 43.5785 29.7948 43.1527L30.4891 43.0323C32.1879 42.7407 34.0347 41.9445 35.2614 40.7827C42.2786 34.4274 46.3056 26.4335 48.5228 17.6342Z" fill="white"/>
<path d="M65.0615 32.5758C63.3442 36.4455 61.4372 43.3609 58.7386 43.8238C57.8128 43.9811 57.2944 42.8008 57.225 42.4166C56.8547 40.2596 59.2987 35.0754 60.965 31.8491C61.1317 31.4233 61.951 31.1224 62.724 30.9928C63.7284 30.8215 63.8719 31.1918 65.0615 32.5758ZM63.9321 26.0215C62.1361 27.1231 59.993 28.0489 58.6784 29.6227C54.7625 33.6312 52.6703 39.9448 53.6516 45.6521C54.0219 47.8091 55.8688 49.3181 58.1045 48.9339C60.6503 48.4942 62.8721 45.7308 63.4137 45.6382C64.108 45.5179 65.5799 51.776 68.5886 51.2576C71.5973 50.7391 69.5885 38.1443 69.7227 31.0576C69.7181 30.5808 69.6394 30.118 69.5746 29.7338C69.1117 27.0352 67.3018 25.7577 63.9321 26.0215Z" fill="white"/>
<path d="M87.7608 24.23L87.6266 23.457C87.2146 21.0685 86.1685 20.0548 84.317 20.3742C83.2385 20.5594 80.6973 21.4712 79.6744 22.92C75.2493 27.6506 74.143 33.2376 75.1243 38.9449C75.7723 42.7219 76.8832 45.4714 80.9149 47.2396C81.5999 47.5173 82.3961 47.5405 83.2431 47.397C86.7147 46.7999 91.2232 43.0089 91.5796 40.0095C91.4453 39.2365 91.0704 38.9078 90.1446 39.0652C88.2191 39.3985 86.6731 41.9628 84.8216 42.2822C82.5859 42.6664 81.6416 41.3194 81.2435 39.005C80.5538 34.9965 80.8177 30.9787 82.8034 27.3035C83.1598 26.6092 83.544 26.063 84.0809 25.9704C84.928 25.8223 85.4742 27.16 87.1915 28.3727C87.7979 26.7619 87.8858 25.8732 87.7608 24.23Z" fill="white"/>
<path d="M123.866 24.1328C123.634 24.1745 123.467 24.1235 123.389 24.1374L123.268 23.4431C122.912 21.3602 121.167 19.9947 120.473 20.115C117.233 20.6705 116.543 23.5681 114.946 26.3037C114.335 27.3637 113.409 27.9978 112.747 29.2198C112.261 27.3174 110.947 23.8134 109.942 23.9847C107.785 24.355 106.054 28.146 104.11 30.2289C103.661 30.863 102.74 31.0204 101.958 31.5527C101.749 30.7936 101.384 30.0623 101.263 29.3679C101.023 27.9793 101.277 26.6647 101.064 25.4335C100.786 23.8134 100.018 22.1193 98.2453 22.4248C96.5465 22.7164 95.0375 23.6098 94.9959 25.6834C94.8339 32.1406 94.7274 38.4311 94.7691 44.6984L94.8616 45.24C95.2458 47.4757 96.6391 48.6653 97.5648 48.5079C98.8007 48.295 100.125 45.8464 100.435 43.4903C101.152 37.4914 104.091 31.5064 108.484 27.4979C108.743 28.0904 109.16 28.6505 109.28 29.3448C109.692 31.7333 109.035 34.3902 109.447 36.7786C109.567 37.4729 110.15 38.0886 110.576 38.7273C111.294 38.2876 112.335 37.871 112.678 37.098C114.765 33.0849 116.251 28.7847 118.561 25.1326C118.816 24.7716 119.51 24.6512 119.945 24.4198C120.102 24.8688 120.348 25.3826 120.426 25.8455L120.028 33.6958C119.829 37.1443 119.487 40.6946 119.39 44.2865C119.496 44.9021 120.32 45.5548 120.764 46.2722C121.287 45.6242 122.213 44.9901 122.245 44.2726C123.745 38.2089 123.347 30.8121 123.866 24.1328Z" fill="white"/>
<path d="M59.9421 87.6537C59.3542 87.9129 58.8219 88.9497 58.572 89.7829C56.6556 95.6383 52.212 99.1608 47.9721 102.97C47.4768 103.294 46.8102 103.563 46.0465 103.697C44.3616 103.989 43.5099 103.188 43.2091 101.424C42.6675 98.2813 43.8849 93.8886 44.3848 90.8059C45.9724 83.5109 50.3698 77.8592 54.9939 72.1704C55.517 71.527 56.077 71.1151 56.614 71.0225C57.6879 70.8373 58.933 71.652 59.2107 73.2582C59.5394 75.1745 59.3959 77.0954 59.7384 79.0858C59.831 79.6228 60.0763 80.1319 60.2429 80.655C60.6503 80.2708 61.5297 79.882 61.8352 79.3543C61.7797 80.8633 61.9649 82.4093 61.9973 83.983L61.8352 87.1676C61.1409 87.288 60.4651 87.487 59.9421 87.6537ZM87.798 81.2104C88.2609 79.3172 88.2517 77.4241 87.96 75.7346C86.6408 68.0693 78.8784 62.8527 73.4349 63.7877C67.686 64.7783 66.6075 69.0645 66.7279 69.7542C66.7695 69.9856 66.9454 70.1106 67.0982 70.0828C67.2509 70.0551 67.3898 69.9533 67.5194 69.7727C68.584 68.1712 73.5923 66.9908 73.5923 66.9908C78.0684 66.852 83.3822 68.8608 84.4144 74.8366C85.1504 79.1275 83.359 83.3859 81.8547 87.0381C79.6931 92.3797 76.3696 97.3741 72.0556 101.193C71.0882 101.989 69.6949 102.151 68.4174 102.531C68.1072 101.637 67.6258 100.693 67.4824 99.8505C67.4314 99.545 67.4546 99.2256 67.4916 98.9803C68.4451 95.8188 69.445 92.8842 70.579 89.8477C71.1715 88.2462 71.8843 87.8064 71.8751 85.4411L70.292 85.8716C69.7829 86.1169 69.4264 86.8112 69.1209 86.8622C68.0841 86.802 67.2278 86.3993 67.1074 85.7096C66.552 82.488 67.8527 78.5581 67.2833 75.2624C67.0195 73.7303 65.7095 72.5361 64.3302 72.7722C63.4877 72.9157 62.798 73.5081 62.4092 74.4431L62.4925 73.5591C61.7473 70.6105 59.9652 66.6529 56.4381 67.2593C53.0637 67.8379 48.6386 74.6792 45.9724 78.9238C41.6954 85.7374 39.1635 93.0369 39.6264 101.244C39.6171 101.642 39.6819 102.021 39.7467 102.406C40.2096 105.09 42.6767 107.979 45.9724 107.414C49.2681 106.849 52.7351 101.753 56.128 100.378L61.3539 94.5089L60.5299 108.543C60.28 112.14 60.0439 115.811 59.7153 119.416C59.7153 119.416 57.6647 125.846 58.2942 129.526C58.5951 131.289 59.4977 132.395 61.414 132.067C65.0939 131.433 64.9828 117.481 65.7003 110.177C65.9456 107.928 66.7325 107.002 69.1857 106.581L69.8754 106.46C71.5603 106.169 73.3979 105.382 74.6199 104.225C81.5908 97.9018 85.5947 89.9542 87.798 81.2104Z" fill="white"/>
<path d="M96.3566 142.482C96.9213 142.542 97.3795 142.463 97.8378 142.384C103.128 141.477 107.28 133.502 107.979 127.461C108.873 119.338 109.201 111.149 109.465 103.054C109.586 98.6933 109.479 93.4999 108.651 89.1442C108.415 87.7648 107.461 86.8205 105.545 87.1538C104.239 87.376 103.582 88.1212 103.383 89.7366C102.939 92.6528 102.184 95.6245 101.42 98.5174C101.133 99.5913 100.37 100.198 99.643 101.031C99.2172 100.392 98.3562 99.5173 98.06 98.698C97.1203 95.069 96.463 91.2364 95.3706 87.6352C95.1485 86.8066 94.0977 86.1956 93.2738 85.5476L91.9685 88.061C91.9176 88.2277 91.8805 88.473 91.9222 88.6998C93.371 97.1334 96.1899 105.724 100.175 105.039C101.249 104.854 102.379 103.632 103.642 102.706C103.809 103.23 104.133 103.725 104.239 104.34C104.554 106.178 104.133 108.779 103.989 110.696C103.383 116.796 103.091 122.925 101.934 129.044C100.925 134.191 98.6247 136.876 94.7921 137.533C93.1674 137.732 91.2001 137.756 89.0616 137.256L82.6739 135.909C82.1 135.77 81.5862 136.015 80.9474 135.969C81.2205 136.631 81.2112 137.501 81.5723 137.756C85.553 140.704 89.469 143.741 95.0652 142.778C95.4494 142.718 95.9076 142.639 96.3566 142.482Z" fill="white"/>
<path d="M118.589 101.012C118.269 101.461 117.913 101.679 117.533 101.748C116.844 101.869 116.265 101.258 116.108 100.337C115.839 95.5689 116.904 91.204 119.635 87.3389C119.889 86.9779 120.398 86.7326 120.935 86.64C122.162 86.4271 122.412 87.413 122.926 88.112C122.741 93.0416 121.523 97.4297 118.589 101.012ZM128.522 78.4702C124.842 79.1044 125.722 83.7655 122.194 84.3719C121.426 84.5015 120.584 84.1775 119.894 84.2932C115.14 85.1125 112.409 96.3141 113.159 100.684C113.752 104.132 115.089 105.484 117.39 105.086C118.158 104.956 119.394 104.345 120.084 104.229C120.852 104.1 121.158 104.516 121.264 105.132C121.565 106.896 121.199 109.798 120.824 111.76C120.028 119.078 119.556 126.42 118.172 133.525C117.45 137.121 116.51 140.834 113.733 143.523C113.451 143.255 113.196 143.143 112.886 143.194C111.738 143.393 111.618 142.704 111.59 142.551C111.104 139.714 112.173 136.293 112.747 133.668C114.187 127.345 116.339 121.055 118.598 114.903C118.991 113.968 119.126 112.918 118.876 111.936C118.746 111.168 118.038 108.451 116.737 108.673C116.506 108.715 116.302 108.904 116.14 109.33C112.243 119.708 106.679 132.345 108.655 143.842C109.243 146.347 110.84 150.573 114.057 150.017C114.363 149.966 114.58 149.851 114.747 149.425C114.992 149.462 115.145 149.434 115.372 149.397C117.135 149.096 120.514 144.407 121.931 141.639C126.032 133.358 126.893 124.133 127.319 115.139C127.698 106.789 128.166 98.4989 128.79 90.181C128.994 87.2278 129.772 84.4089 130.188 81.3354C130.276 80.9235 130.272 80.4513 130.193 79.9931C130.063 79.1553 129.638 78.5165 128.522 78.4702Z" fill="white"/>
</svg>
