<svg width="130" height="110" viewBox="0 0 130 110" fill="none" xmlns="http://www.w3.org/2000/svg">
<circle cx="84.5" cy="45.5" r="45.5" fill="#252525"/>
<g clip-path="url(#clip0_54_416)">
<path d="M83.8513 36.6332C83.392 33.9684 81.9234 31.6401 79.7148 30.0803L76.6599 27.9219C72.1008 24.7014 65.7701 25.7907 62.5478 30.3497L56.846 38.4217C56.6857 38.6492 56.6226 38.9301 56.6699 39.2048C56.717 39.4794 56.8712 39.7226 57.0976 39.8832L59.0642 41.2722C57.9803 43.025 57.564 45.0817 57.9047 47.1332C57.9279 47.2737 57.9645 47.4101 57.9948 47.5485L41.9517 67.7021L25.8183 47.3347C26.1977 45.344 25.8748 43.2265 24.7773 41.3846L26.9032 39.8823C27.1297 39.722 27.2838 39.4778 27.3309 39.204C27.378 38.9303 27.3141 38.6483 27.1548 38.4209L21.4531 30.3489C18.2316 25.7896 11.902 24.7004 7.34089 27.9208L4.28607 30.0793C2.07727 31.6403 0.608618 33.9674 0.149371 36.6322C-0.309876 39.297 0.298221 41.9816 1.85819 44.1904L7.561 52.2634C7.76533 52.5527 8.08945 52.7069 8.41848 52.7069C8.62711 52.7069 8.83882 52.644 9.02227 52.515L10.9217 51.1731C12.0601 52.5433 13.5498 53.474 15.1694 53.9259L27.5971 85.7356L9.692 108.23C9.44139 108.545 9.39328 108.975 9.56731 109.338C9.74237 109.701 10.1093 109.931 10.5118 109.931H37.7636C37.7646 109.931 37.7656 109.931 37.7667 109.931C37.7677 109.931 37.7687 109.931 37.7697 109.931H46.2307C46.2317 109.931 46.2327 109.931 46.2338 109.931C46.2348 109.931 46.2358 109.931 46.2368 109.931H73.2347C73.6362 109.931 74.0031 109.701 74.1782 109.339C74.3533 108.976 74.3062 108.547 74.0556 108.231L56.3491 85.8762L68.8638 53.8475C70.4225 53.359 71.8461 52.4219 72.9344 51.0705L74.9796 52.515C75.163 52.645 75.3747 52.7069 75.5834 52.7069C75.9126 52.7069 76.2365 52.5527 76.4409 52.2634L82.1427 44.1914C83.7024 41.9828 84.3093 39.298 83.8513 36.6332ZM8.66786 50.1983L3.5711 42.9828C1.01647 39.3672 1.88009 34.3468 5.49572 31.7922L8.55054 29.6338C12.1662 27.0801 17.1866 27.9427 19.7402 31.5584L24.8381 38.7738L8.66786 50.1983ZM12.6285 49.9678L23.0611 42.5971C24.643 45.4138 23.884 49.0401 21.1973 50.9626C18.4896 52.8997 14.7755 52.4249 12.6285 49.9678ZM17.5461 54.249C19.2371 54.2343 20.9406 53.7238 22.4166 52.6682C23.5405 51.8641 24.4031 50.8316 25.0017 49.6826L40.611 69.3866L29.1079 83.8384L17.5461 54.249ZM12.6872 107.834L28.48 87.9939L36.2321 107.834H12.6872ZM45.518 107.834H38.4829L29.9894 86.0963L41.9474 71.0731L53.9578 86.2348L45.518 107.834ZM71.0681 107.834H47.7696L55.4652 88.1375L71.0681 107.834ZM54.8405 83.9735L43.2883 69.3896L58.8482 49.8408C59.4541 50.9456 60.297 51.9133 61.3527 52.6682C62.8506 53.7396 64.5815 54.2543 66.2965 54.2543C66.3499 54.2543 66.4023 54.2459 66.4558 54.2449L54.8405 83.9735ZM62.5728 50.9626C61.1774 49.9647 60.254 48.4833 59.9729 46.7915C59.7233 45.2883 60.0095 43.7797 60.7759 42.483L71.2243 49.8631C69.0921 52.4071 65.3182 52.9259 62.5728 50.9626ZM80.4295 42.9828L75.3315 50.1983L59.1625 38.7749L64.2605 31.5594C66.8141 27.9448 71.8335 27.0789 75.4501 29.6348L78.5049 31.7932C82.1205 34.348 82.9844 39.3672 80.4295 42.9828Z" fill="white"/>
</g>
<defs>
<clipPath id="clip0_54_416">
<rect width="84" height="84" fill="white" transform="translate(0 26)"/>
</clipPath>
</defs>
</svg>
