<svg width="119" height="110" viewBox="0 0 119 110" fill="none" xmlns="http://www.w3.org/2000/svg">
<circle cx="73.5" cy="45.5" r="45.5" fill="#252525"/>
<path d="M50.5312 60.9618L34.7812 51.8727C34.3711 51.643 33.8789 51.643 33.4688 51.8727C33.0586 52.1024 32.8125 52.5454 32.8125 53.0047V71.1993C32.8125 71.6586 33.0586 72.1016 33.4688 72.3313C33.6656 72.4461 33.8953 72.5118 34.125 72.5118C34.3547 72.5118 34.5844 72.4461 34.7812 72.3313L50.5312 63.2422C50.9414 63.0125 51.1875 62.5696 51.1875 62.1102C51.1875 61.6508 50.9414 61.1915 50.5312 60.9618ZM35.4375 68.9188V55.2852L47.25 62.1102L35.4375 68.9188Z" fill="white"/>
<path d="M62.8359 88.3437C62.8359 89.0656 62.2453 89.6562 61.5234 89.6562H43.3125V90.2468C43.3125 90.9687 42.7219 91.5593 42 91.5593C41.2781 91.5593 40.6875 90.9687 40.6875 90.2468V89.6562H22.4766C21.7547 89.6562 21.1641 89.0656 21.1641 88.3437C21.1641 87.6218 21.7547 87.0312 22.4766 87.0312H40.6875V86.3093C40.6875 85.5875 41.2781 84.9968 42 84.9968C42.7219 84.9968 43.3125 85.5875 43.3125 86.3093V87.0312H61.5234C62.2453 87.0312 62.8359 87.6218 62.8359 88.3437Z" fill="white"/>
<path d="M73.7789 40.4375H10.2211C6.75937 40.4375 3.9375 43.2594 3.9375 46.7211V89.2625C3.9375 92.7242 6.75937 95.5461 10.2211 95.5461H73.7625C77.2242 95.5461 80.0461 92.7242 80.0461 89.2625V46.7211C80.0625 43.2594 77.2406 40.4375 73.7789 40.4375ZM77.4375 89.2789C77.4375 91.2969 75.7969 92.9375 73.7789 92.9375H10.2211C8.20312 92.9375 6.5625 91.2969 6.5625 89.2789V83.75H77.4375V89.2789ZM77.4375 81.125H6.5625V46.7211C6.5625 44.7031 8.20312 43.0625 10.2211 43.0625H73.7625C75.7805 43.0625 77.4211 44.7031 77.4211 46.7211V81.125H77.4375Z" fill="white"/>
<path d="M11.4023 89.6562C12.1272 89.6562 12.7148 89.0686 12.7148 88.3438C12.7148 87.6189 12.1272 87.0312 11.4023 87.0312C10.6775 87.0312 10.0898 87.6189 10.0898 88.3438C10.0898 89.0686 10.6775 89.6562 11.4023 89.6562Z" fill="white"/>
<path d="M16.6523 89.6562C17.3772 89.6562 17.9648 89.0686 17.9648 88.3438C17.9648 87.6189 17.3772 87.0312 16.6523 87.0312C15.9275 87.0312 15.3398 87.6189 15.3398 88.3438C15.3398 89.0686 15.9275 89.6562 16.6523 89.6562Z" fill="white"/>
<path d="M67.3477 89.6562C68.0725 89.6562 68.6602 89.0686 68.6602 88.3438C68.6602 87.6189 68.0725 87.0312 67.3477 87.0312C66.6228 87.0312 66.0352 87.6189 66.0352 88.3438C66.0352 89.0686 66.6228 89.6562 67.3477 89.6562Z" fill="white"/>
<path d="M72.5977 89.6562C73.3225 89.6562 73.9102 89.0686 73.9102 88.3438C73.9102 87.6189 73.3225 87.0312 72.5977 87.0312C71.8728 87.0312 71.2852 87.6189 71.2852 88.3438C71.2852 89.0686 71.8728 89.6562 72.5977 89.6562Z" fill="white"/>
</svg>
