<svg width="112" height="110" viewBox="0 0 112 110" fill="none" xmlns="http://www.w3.org/2000/svg">
<circle cx="66.5" cy="45.5" r="45.5" fill="#252525"/>
<g clip-path="url(#clip0_54_439)">
<path d="M81.1187 93.6807L76.8903 90.1732L78.0469 88.744C78.3819 88.331 78.3506 87.7309 77.9742 87.3544L73.1937 82.5706L75.4861 79.7465C75.8345 79.3181 75.7868 78.6907 75.3768 78.3204L35.2555 42.0373C35.2535 42.0353 35.2492 42.0343 35.2472 42.0321C34.8488 37.2909 32.5698 32.9005 28.8802 29.9057C21.39 23.824 10.3508 24.9722 4.26883 32.4615C1.32405 36.0887 -0.0322345 40.6477 0.450266 45.2962C0.932767 49.9447 3.19737 54.1263 6.82435 57.0721C9.95014 59.6101 13.8485 60.9686 17.8398 60.9686C18.5606 60.9686 19.2836 60.9093 20.0065 60.8199L63.6073 92.8082C63.7923 92.9435 64.0077 93.0089 64.222 93.0089C64.5257 93.0089 64.8254 92.8768 65.0302 92.6241L67.3175 89.8063L72.9562 93.5385C73.1319 93.6549 73.3316 93.7112 73.5293 93.7112C73.833 93.7112 74.1347 93.5782 74.3385 93.3252L75.5814 91.7889L79.456 94.9905L79.7774 95.2713C81.8464 96.9512 82.1635 100.002 80.4836 102.072C79.6702 103.075 78.5136 103.7 77.23 103.833C75.9434 103.961 74.6857 103.592 73.6882 102.781L72.2122 101.57C70.7789 100.405 68.9741 99.8657 67.1404 100.06C65.3034 100.251 63.6505 101.145 62.4866 102.579C60.9607 104.459 60.529 107.041 61.3611 109.318C61.5151 109.739 61.9135 110 62.3379 110C62.4566 110 62.5772 109.98 62.6947 109.937C63.2345 109.74 63.5122 109.142 63.3147 108.602C62.7323 107.011 63.0339 105.204 64.1011 103.891C64.9146 102.889 66.0712 102.264 67.3547 102.131C68.6393 101.989 69.8978 102.371 70.9297 103.208L72.3723 104.394C73.8056 105.557 75.6092 106.097 77.4442 105.903C79.2821 105.712 80.934 104.817 82.0989 103.383C84.5023 100.422 84.0498 96.0595 81.1187 93.6807ZM8.13614 55.4565C4.93965 52.8614 2.94464 49.1761 2.51923 45.0798C2.09382 40.9836 3.28899 36.9685 5.88414 33.771C11.242 27.1733 20.9707 26.1632 27.5696 31.52C28.5381 32.3065 29.3847 33.2113 30.1244 34.1922L11.2764 57.4079C10.1645 56.8858 9.1046 56.243 8.13614 55.4565ZM13.3183 58.1923L31.3112 36.0304C32.444 38.0847 33.1232 40.3887 33.2335 42.7894L20.3281 58.6853C17.9564 59.0701 15.562 58.8787 13.3183 58.1923ZM64.04 90.5456L22.1151 59.7858L34.6741 44.3153L73.2487 79.2017L64.04 90.5456ZM73.3174 91.2821L68.6366 88.1833L71.8758 84.1943L75.8408 88.1626L73.3174 91.2821Z" fill="white"/>
</g>
<defs>
<clipPath id="clip0_54_439">
<rect width="84" height="84" fill="white" transform="translate(0 26)"/>
</clipPath>
</defs>
</svg>
