<svg width="112" height="110" viewBox="0 0 112 110" fill="none" xmlns="http://www.w3.org/2000/svg">
<circle cx="66.5" cy="45.5" r="45.5" fill="#252525"/>
<g clip-path="url(#clip0_62_115)">
<path d="M83.394 61.1285C83.0184 60.9068 82.5538 60.8996 82.172 61.1098L66.8045 69.5705V66.6223C66.8045 63.4983 64.263 60.9569 61.1391 60.9569H57.9349C62.2685 58.1758 65.1456 53.3147 65.1456 47.7941C65.1456 45.0193 64.4088 42.2936 63.0148 39.9114C62.6708 39.3236 61.9156 39.1257 61.3281 39.4701C60.7404 39.814 60.5429 40.5691 60.8867 41.1568C62.0599 43.1615 62.6799 45.4567 62.6799 47.7943C62.6799 55.0522 56.7752 60.957 49.5172 60.957C42.2592 60.957 36.3545 55.0522 36.3545 47.7943C36.3545 40.5363 42.2592 34.6314 49.5172 34.6314C52.6083 34.6314 55.6121 35.724 57.9751 37.7082C58.4968 38.1461 59.2742 38.0785 59.7121 37.5566C60.1499 37.0352 60.0822 36.2576 59.5606 35.8197C56.754 33.4633 53.1873 32.1655 49.5172 32.1655C41.8847 32.1655 35.5145 37.6659 34.1573 44.9106C32.079 42.3888 28.9329 40.7782 25.4174 40.7782C19.1743 40.7782 14.0953 45.8574 14.0953 52.1004C14.0953 55.6836 15.7702 58.881 18.3762 60.9572C15.2552 60.9606 12.7172 63.5006 12.7172 66.6224V66.8221H7.6975L1.76123 64.0099C0.97947 63.6111 -0.0254127 64.247 0.000509173 65.124V80.4234C-0.0259049 81.3008 0.980783 81.9365 1.76123 81.5377L7.6975 78.7255H12.7173V98.1687C12.7173 101.293 15.2588 103.834 18.3827 103.834H50.4858C51.1667 103.834 51.7188 103.282 51.7188 102.601C51.7188 101.92 51.1669 101.368 50.4858 101.368H18.3827C16.6184 101.368 15.183 99.933 15.183 98.1685V66.6224C15.183 64.8581 16.6184 63.4227 18.3827 63.4227H61.1391C62.9034 63.4227 64.3388 64.8579 64.3388 66.6224V98.1688C64.3388 99.9332 62.9034 101.369 61.1391 101.369H55.4172C54.7364 101.369 54.1843 101.921 54.1843 102.602C54.1843 103.283 54.7362 103.835 55.4172 103.835H61.1391C64.263 103.835 66.8045 101.293 66.8045 98.169V88.3832L82.172 96.8439C82.9546 97.3067 84.0276 96.6728 83.9995 95.7639V62.1899C83.9995 61.7539 83.7692 61.3503 83.394 61.1285ZM2.4662 67.0723L6.18714 68.8351V76.7126L2.4662 78.4754V67.0723ZM8.653 76.2599V69.2878H12.7173V76.2599H8.653ZM16.561 52.1004C16.561 47.2169 20.5339 43.2438 25.4174 43.2438C30.3009 43.2438 34.274 47.2169 34.274 52.1004C34.274 56.9839 30.3011 60.957 25.4174 60.957C20.5341 60.957 16.561 56.9839 16.561 52.1004ZM32.459 60.957C34.1188 59.6347 35.3993 57.8575 36.1108 55.8146C37.3562 57.8886 39.0671 59.6522 41.1005 60.957H32.459ZM81.5338 93.6778L66.8046 85.5684V72.3854L81.5338 64.276V93.6778Z" fill="white"/>
<path d="M43.2319 47.7942C43.2319 51.26 46.0515 54.0796 49.5173 54.0796C52.983 54.0796 55.8027 51.26 55.8027 47.7942C55.8027 44.3284 52.9832 41.5088 49.5173 41.5088C46.0515 41.5088 43.2319 44.3284 43.2319 47.7942ZM53.3369 47.7942C53.3369 49.9003 51.6234 51.6137 49.5173 51.6137C47.4111 51.6137 45.6976 49.9003 45.6976 47.7942C45.6976 45.6881 47.4111 43.9745 49.5173 43.9745C51.6234 43.9746 53.3369 45.6881 53.3369 47.7942Z" fill="white"/>
<path d="M25.4174 56.5422C27.8667 56.5422 29.8592 54.5495 29.8592 52.1004C29.8592 49.6512 27.8667 47.6587 25.4174 47.6587C22.9683 47.6587 20.9756 49.6512 20.9756 52.1004C20.9758 54.5496 22.9683 56.5422 25.4174 56.5422ZM25.4174 50.1244C26.5071 50.1244 27.3935 51.0108 27.3935 52.1004C27.3935 53.1901 26.5071 54.0765 25.4174 54.0765C24.3279 54.0765 23.4414 53.1901 23.4414 52.1004C23.4414 51.0108 24.3279 50.1244 25.4174 50.1244Z" fill="white"/>
<path d="M54.1845 85.6113V72.1616C54.1845 70.5754 52.894 69.2849 51.3078 69.2849H37.9727C37.2918 69.2849 36.7397 69.8368 36.7397 70.5178C36.7397 71.1989 37.2917 71.7508 37.9727 71.7508H51.3078C51.5344 71.7508 51.7188 71.935 51.7188 72.1617V85.6114C51.7188 85.8382 51.5344 86.0224 51.3078 86.0224H28.2141C27.9875 86.0224 27.8031 85.8382 27.8031 85.6114V72.1617C27.8031 71.935 27.9875 71.7508 28.2141 71.7508H33.0413C33.7221 71.7508 34.2742 71.1989 34.2742 70.5178C34.2742 69.8368 33.7223 69.2849 33.0413 69.2849H28.2141C26.6279 69.2849 25.3374 70.5754 25.3374 72.1616V85.6113C25.3374 87.1974 26.6279 88.4879 28.2141 88.4879H51.3078C52.894 88.4879 54.1845 87.1974 54.1845 85.6113Z" fill="white"/>
<path d="M46.3934 92.7732C45.7126 92.7732 45.1606 93.3251 45.1606 94.0061C45.1606 94.6871 45.7126 95.2391 46.3934 95.2391H49.4688C50.1496 95.2391 50.7017 94.6871 50.7017 94.0061C50.7017 93.3251 50.1498 92.7732 49.4688 92.7732H46.3934Z" fill="white"/>
<path d="M38.2232 92.7732C37.5423 92.7732 36.9902 93.3251 36.9902 94.0061C36.9902 94.6871 37.5421 95.2391 38.2232 95.2391H41.2987C41.9795 95.2391 42.5316 94.6871 42.5316 94.0061C42.5316 93.3251 41.9797 92.7732 41.2987 92.7732H38.2232Z" fill="white"/>
<path d="M30.0528 92.7732C29.3719 92.7732 28.8198 93.3251 28.8198 94.0061C28.8198 94.6871 29.3719 95.2391 30.0528 95.2391H33.1283C33.8091 95.2391 34.3612 94.6871 34.3612 94.0061C34.3612 93.3251 33.8093 92.7732 33.1283 92.7732H30.0528Z" fill="white"/>
</g>
<defs>
<clipPath id="clip0_62_115">
<rect width="84" height="84" fill="white" transform="translate(0 26)"/>
</clipPath>
</defs>
</svg>
