<svg width="40" height="39" viewBox="0 0 40 39" fill="none" xmlns="http://www.w3.org/2000/svg">
<path d="M22.4672 10.5174C21.6677 10.2982 20.8376 10.1871 20 10.1871C14.8648 10.1871 10.6871 14.3648 10.6871 19.5C10.6871 24.6352 14.8648 28.8129 20 28.8129C25.1352 28.8129 29.3129 24.6352 29.3129 19.5C29.3129 18.6624 29.2018 17.8323 28.9826 17.0328C28.8321 16.4835 29.1553 15.9162 29.7046 15.7657C30.2535 15.6152 30.8212 15.9383 30.9717 16.4876C31.2402 17.4692 31.3759 18.4823 31.3754 19.5C31.3754 25.7724 26.2724 30.8754 20 30.8754C13.7276 30.8754 8.6246 25.7724 8.6246 19.5C8.6246 13.2276 13.7276 8.1246 20 8.1246C21.0218 8.1246 22.0352 8.26041 23.0124 8.52827C23.4705 8.65383 23.7713 9.06929 23.7713 9.5224C23.7712 9.61465 23.7588 9.70647 23.7344 9.79542C23.5839 10.3447 23.0166 10.6681 22.4672 10.5174ZM34.5418 14.1143C33.9957 14.276 33.684 14.8497 33.8457 15.3959C34.2384 16.7223 34.4375 18.1031 34.4375 19.5C34.4375 27.4609 27.9609 33.9375 20 33.9375C12.0391 33.9375 5.5625 27.4609 5.5625 19.5C5.5625 11.5391 12.0391 5.0625 20 5.0625C21.397 5.0625 22.7777 5.2616 24.1039 5.65424C24.6501 5.81602 25.2238 5.5042 25.3855 4.95815C25.4144 4.8605 25.4282 4.76208 25.4282 4.66521C25.4283 4.22016 25.1379 3.8094 24.6894 3.67656C23.173 3.22758 21.5953 3 20 3C15.5927 3 11.4491 4.71632 8.3327 7.8327C5.21632 10.9492 3.5 15.0927 3.5 19.5C3.5 23.9073 5.21632 28.0509 8.3327 31.1673C11.4491 34.2837 15.5927 36 20 36C24.4073 36 28.5508 34.2837 31.6673 31.1673C34.7837 28.0509 36.5 23.9073 36.5 19.5C36.5 17.9049 36.2724 16.327 35.8234 14.8104C35.6617 14.2643 35.0878 13.9528 34.5418 14.1143ZM20 15.375C20.1517 15.375 20.3048 15.3834 20.4552 15.3999C21.0216 15.4622 21.5308 15.0534 21.5928 14.4873C21.6549 13.9211 21.2463 13.4118 20.6802 13.3498C20.4543 13.325 20.2272 13.3125 20 13.3125C16.5882 13.3125 13.8125 16.0882 13.8125 19.5C13.8125 22.9118 16.5882 25.6875 20 25.6875C23.4118 25.6875 26.1875 22.9118 26.1875 19.5C26.1875 18.9304 25.7258 18.4688 25.1562 18.4688C24.5867 18.4688 24.125 18.9304 24.125 19.5C24.125 21.7746 22.2746 23.625 20 23.625C17.7254 23.625 15.875 21.7746 15.875 19.5C15.875 17.2254 17.7254 15.375 20 15.375ZM25.2654 12.7763L25.7791 7.62348C25.8027 7.38648 25.9076 7.16495 26.0761 6.99654L29.7707 3.30203C29.9101 3.16269 30.0865 3.0662 30.279 3.02398C30.4715 2.98176 30.672 2.99558 30.8569 3.06381C31.0418 3.13203 31.2033 3.25181 31.3222 3.40895C31.4411 3.56609 31.5126 3.75402 31.528 3.95049L31.821 7.6791L35.5495 7.97198C35.746 7.9874 35.9339 8.05881 36.0911 8.17774C36.2483 8.29668 36.368 8.45815 36.4363 8.64306C36.5045 8.82796 36.5183 9.02854 36.4761 9.22105C36.4339 9.41356 36.3373 9.58993 36.198 9.72929L32.5034 13.4238C32.335 13.5922 32.1135 13.6972 31.8765 13.7207L26.7238 14.2347L20.7292 20.2292C20.6336 20.3251 20.5199 20.4012 20.3947 20.453C20.2696 20.5048 20.1355 20.5314 20 20.5312C19.8645 20.5314 19.7304 20.5048 19.6053 20.453C19.4801 20.4012 19.3665 20.3251 19.2708 20.2292C18.8681 19.8265 18.8681 19.1735 19.2708 18.7708L25.2654 12.7763ZM27.4062 12.0939L31.3053 11.705L33.1574 9.85298L30.7811 9.66632C30.5363 9.64707 30.3064 9.54107 30.1327 9.36741C29.9591 9.19375 29.8531 8.96383 29.8338 8.71899L29.6472 6.34254L27.795 8.19466L27.4062 12.0939Z" fill="black"/>
</svg>
