<svg width="544" height="338" viewBox="0 0 544 338" fill="none" xmlns="http://www.w3.org/2000/svg">
<mask id="mask0_239_38226" style="mask-type:alpha" maskUnits="userSpaceOnUse" x="0" y="0" width="544" height="338">
<rect width="544" height="338" fill="url(#paint0_linear_239_38226)"/>
</mask>
<g mask="url(#mask0_239_38226)">
<path d="M195.763 215.055H128.547V282.755H89.4619V114.543H207.526V144.579H128.547V185.019H195.763V215.055Z" fill="white"/>
<path d="M291.551 250.061H238.589L229.144 282.755H189.973L244.164 114.543H286.03L340.318 282.755H301.125L291.551 250.061ZM247.269 220.025H282.85L265.318 159.835H264.628L247.269 220.025Z" fill="white"/>
<path d="M474.61 213.78C474.69 223.115 473.109 232.39 469.941 241.169C466.989 249.362 462.465 256.898 456.625 263.35L484.756 290.62L461.035 309.906L430.942 280.442C426.655 282.004 422.239 283.186 417.745 283.975C413.081 284.786 408.355 285.191 403.621 285.186C382.329 285.186 365.078 278.465 351.866 265.025C338.655 251.584 332.042 234.503 332.027 213.78V183.528C332.027 162.878 338.619 145.818 351.802 132.349C364.985 118.879 382.182 112.137 403.394 112.123C424.462 112.123 441.606 118.865 454.825 132.349C468.044 145.832 474.653 162.892 474.653 183.528L474.61 213.78ZM435.794 183.28C435.794 171.266 432.969 161.408 427.32 153.709C421.67 146.009 413.695 142.159 403.394 142.159C392.871 142.159 384.82 145.991 379.242 153.655C373.664 161.318 370.879 171.193 370.886 183.28V213.78C370.886 225.953 373.711 235.889 379.361 243.589C385.011 251.289 393.076 255.143 403.556 255.15C413.777 255.15 421.684 251.296 427.276 243.589C432.869 235.882 435.672 225.946 435.686 213.78L435.794 183.28Z" fill="white"/>
<g style="mix-blend-mode:soft-light" opacity="0.8">
<path d="M498.762 281.026H185.584C184.606 281.028 183.663 281.397 182.942 282.061C182.222 282.725 181.776 283.636 181.692 284.613C181.665 285.118 181.739 285.623 181.91 286.099C182.081 286.575 182.346 287.011 182.689 287.382C183.032 287.753 183.446 288.051 183.907 288.258C184.367 288.466 184.864 288.578 185.369 288.589H498.977C499.481 288.578 499.978 288.466 500.438 288.258C500.898 288.051 501.311 287.752 501.653 287.381C501.995 287.01 502.259 286.574 502.429 286.098C502.6 285.622 502.672 285.117 502.643 284.613C502.564 283.636 502.121 282.724 501.402 282.059C500.683 281.394 499.74 281.025 498.762 281.026Z" fill="black"/>
<path d="M166.489 288.589H74.1728C73.1967 288.589 72.2604 288.201 71.5692 287.51C70.878 286.82 70.4882 285.883 70.4854 284.905C70.4854 284.419 70.5807 283.939 70.766 283.49C70.9514 283.042 71.223 282.635 71.5654 282.292C71.9078 281.949 72.3143 281.676 72.7617 281.491C73.2091 281.305 73.6886 281.209 74.1728 281.209H166.489C167.465 281.212 168.4 281.603 169.09 282.296C169.779 282.988 170.166 283.926 170.166 284.905C170.166 285.388 170.071 285.867 169.886 286.314C169.701 286.761 169.43 287.168 169.089 287.51C168.748 287.852 168.342 288.123 167.896 288.308C167.45 288.493 166.972 288.589 166.489 288.589Z" fill="black"/>
</g>
<path d="M343.392 78.4892C343.469 79.8906 343.136 81.2841 342.432 82.4976C341.465 83.7083 340.307 84.7522 339.003 85.5876C338.186 86.0835 337.495 86.7644 336.987 87.5756C336.483 88.4004 336.224 89.3527 336.243 90.3199C336.196 91.2555 336.504 92.1742 337.106 92.8913C337.419 93.22 337.801 93.4763 338.224 93.6424C338.646 93.8084 339.1 93.8802 339.553 93.8529C340.347 93.8836 341.122 93.6003 341.71 93.0642C342.014 92.7592 342.251 92.3944 342.407 91.9926C342.563 91.5909 342.634 91.1611 342.615 90.7304H348.912V90.8385C349.012 91.9694 348.833 93.1076 348.391 94.1531C347.949 95.1986 347.258 96.1195 346.378 96.8348C344.386 98.2568 341.974 98.9648 339.532 98.8444C336.94 98.9907 334.386 98.1709 332.361 96.5431C331.493 95.7644 330.809 94.8021 330.358 93.7258C329.906 92.6495 329.7 91.4861 329.752 90.3199C329.747 88.7363 330.246 87.1924 331.175 85.9118C332.119 84.5828 333.364 83.4977 334.809 82.7461C335.512 82.3339 336.084 81.7309 336.459 81.0066C336.781 80.2083 336.928 79.3497 336.89 78.4892H343.392ZM336.922 70.5049H343.392V75.745H336.922V70.5049Z" fill="black"/>
<path d="M509.393 249.866C509.303 248.465 509.634 247.07 510.342 245.858C511.306 244.645 512.464 243.6 513.77 242.768C514.589 242.265 515.283 241.582 515.797 240.769C516.295 239.942 516.549 238.991 516.53 238.025C516.577 237.09 516.269 236.171 515.668 235.454C515.354 235.125 514.973 234.869 514.55 234.703C514.127 234.536 513.674 234.465 513.22 234.492C512.427 234.466 511.654 234.749 511.064 235.281C510.762 235.589 510.526 235.956 510.37 236.359C510.214 236.762 510.142 237.193 510.158 237.625H503.829V237.506C503.732 236.376 503.913 235.238 504.354 234.193C504.796 233.148 505.485 232.227 506.363 231.51C508.358 230.096 510.769 229.393 513.21 229.511C515.801 229.363 518.356 230.183 520.38 231.813C521.246 232.59 521.93 233.551 522.381 234.625C522.832 235.699 523.04 236.861 522.989 238.025C522.989 239.611 522.491 241.157 521.566 242.444C520.624 243.772 519.378 244.854 517.932 245.599C517.233 246.016 516.663 246.618 516.282 247.338C515.96 248.14 515.813 249.003 515.851 249.866H509.393ZM515.862 257.84H509.393V252.665H515.862V257.84Z" fill="#87AEDB"/>
<path d="M509.393 249.866C509.303 248.465 509.634 247.07 510.342 245.858C511.306 244.645 512.464 243.6 513.77 242.768C514.589 242.265 515.283 241.582 515.797 240.769C516.295 239.942 516.549 238.991 516.53 238.025C516.577 237.09 516.269 236.171 515.668 235.454C515.354 235.125 514.973 234.869 514.55 234.703C514.127 234.536 513.674 234.465 513.22 234.492C512.427 234.466 511.654 234.749 511.064 235.281C510.762 235.589 510.526 235.956 510.37 236.359C510.214 236.762 510.142 237.193 510.158 237.625H503.829V237.506C503.732 236.376 503.913 235.238 504.354 234.193C504.796 233.148 505.485 232.227 506.363 231.51C508.358 230.096 510.769 229.393 513.21 229.511C515.801 229.363 518.356 230.183 520.38 231.813C521.246 232.59 521.93 233.551 522.381 234.625C522.832 235.699 523.04 236.861 522.989 238.025C522.989 239.611 522.491 241.157 521.566 242.444C520.624 243.772 519.378 244.854 517.932 245.599C517.233 246.016 516.663 246.618 516.282 247.338C515.96 248.14 515.813 249.003 515.851 249.866H509.393ZM515.862 257.84H509.393V252.665H515.862V257.84Z" fill="#87AEDB"/>
<path d="M59.6066 207.168C59.5218 205.766 59.8558 204.37 60.5662 203.16C61.5118 201.956 62.6439 200.913 63.9194 200.07C64.7408 199.57 65.4348 198.886 65.9465 198.071C66.4437 197.243 66.6978 196.292 66.6796 195.326C66.7251 194.394 66.4169 193.48 65.8171 192.766C65.5046 192.435 65.1233 192.178 64.7003 192.012C64.2773 191.846 63.8229 191.775 63.3695 191.804C62.5757 191.776 61.8021 192.059 61.2131 192.593C60.9099 192.898 60.6737 193.263 60.5196 193.665C60.3655 194.067 60.2969 194.497 60.3182 194.927H54.0322V194.819C53.9335 193.688 54.1129 192.55 54.5546 191.505C54.9963 190.459 55.6869 189.538 56.566 188.822C58.5587 187.402 60.9701 186.694 63.4127 186.813C66.0045 186.664 68.5592 187.484 70.5828 189.114C71.4511 189.89 72.1359 190.85 72.5873 191.925C73.0386 193 73.2452 194.162 73.192 195.326C73.1969 196.913 72.6985 198.461 71.7688 199.745C70.8305 201.079 69.5838 202.165 68.1352 202.911C67.4376 203.325 66.8669 203.923 66.4856 204.64C66.1641 205.442 66.0171 206.304 66.0543 207.168H59.6066ZM66.0758 215.152H59.6066V209.966H66.0758V215.152Z" fill="#87AEDB"/>
<path d="M390.714 176.603V196.266C390.704 196.818 390.887 197.357 391.231 197.787C391.576 198.218 392.061 198.513 392.601 198.622C392.926 198.675 393.258 198.657 393.574 198.569C393.891 198.481 394.185 198.326 394.436 198.113C394.687 197.901 394.889 197.636 395.029 197.338C395.168 197.04 395.241 196.715 395.243 196.385V190.713C395.251 190.108 395.497 189.531 395.927 189.107C396.357 188.682 396.936 188.444 397.539 188.444C398.618 188.444 399.771 189.179 399.771 190.173V209.307C399.756 209.86 399.938 210.401 400.283 210.832C400.629 211.263 401.116 211.558 401.658 211.662C401.983 211.717 402.315 211.701 402.633 211.614C402.951 211.527 403.245 211.371 403.497 211.158C403.748 210.946 403.95 210.68 404.089 210.381C404.228 210.082 404.3 209.756 404.3 209.426V194.624C404.296 194.312 404.357 194.003 404.477 193.715C404.597 193.428 404.775 193.167 404.999 192.951C405.223 192.734 405.489 192.566 405.78 192.456C406.072 192.346 406.382 192.297 406.693 192.312C407.278 192.343 407.828 192.598 408.23 193.024C408.631 193.451 408.853 194.016 408.85 194.603V199.097C408.835 199.65 409.016 200.191 409.362 200.622C409.707 201.053 410.195 201.348 410.737 201.452C411.061 201.507 411.394 201.491 411.712 201.404C412.029 201.317 412.324 201.161 412.575 200.948C412.827 200.736 413.029 200.47 413.168 200.171C413.306 199.872 413.378 199.546 413.378 199.216V172.702L390.714 176.603Z" fill="black"/>
<path d="M391.307 119.816H414.165L420.344 106.656C420.674 105.952 420.811 105.173 420.743 104.398C420.674 103.624 420.402 102.881 419.954 102.246C419.506 101.612 418.897 101.107 418.191 100.785C417.485 100.463 416.706 100.334 415.934 100.411C415.207 100.489 414.511 100.745 413.907 101.157L402.736 108.784L391.555 101.157C390.957 100.742 390.263 100.485 389.539 100.411C388.767 100.334 387.988 100.463 387.282 100.785C386.576 101.107 385.967 101.612 385.519 102.246C385.071 102.881 384.798 103.624 384.73 104.398C384.662 105.173 384.799 105.952 385.129 106.656L391.307 119.816Z" fill="#87AEDB"/>
<path d="M365.657 181.53L371.544 175.047L370.121 173.75L364.234 180.233C364.132 180.323 364.051 180.434 363.995 180.558C363.939 180.682 363.909 180.816 363.908 180.952C363.907 181.088 363.935 181.223 363.989 181.348C364.043 181.473 364.123 181.584 364.223 181.676C364.323 181.768 364.441 181.838 364.57 181.881C364.699 181.925 364.835 181.94 364.97 181.928C365.105 181.915 365.236 181.874 365.354 181.807C365.473 181.74 365.576 181.649 365.657 181.54V181.53Z" fill="#87AEDB"/>
<path d="M373.592 175.846L373.301 176.646C370.708 179.507 369.184 183.18 368.988 187.04V187.331C368.978 187.559 368.918 187.781 368.813 187.983C368.707 188.185 368.558 188.361 368.377 188.498C368.196 188.635 367.986 188.731 367.764 188.777C367.541 188.824 367.311 188.821 367.09 188.768C366.777 188.694 366.495 188.524 366.283 188.282C366.07 188.04 365.938 187.738 365.904 187.418C365.463 183.304 366.562 179.173 368.988 175.825L371.683 172.108L373.592 175.846Z" fill="#87AEDB"/>
<path d="M440.937 181.53L435.061 175.047L436.484 173.75L442.36 180.233C442.461 180.323 442.543 180.434 442.599 180.558C442.655 180.682 442.684 180.816 442.685 180.952C442.686 181.088 442.659 181.223 442.605 181.348C442.551 181.473 442.471 181.584 442.371 181.676C442.271 181.768 442.153 181.838 442.024 181.881C441.895 181.925 441.759 181.94 441.624 181.928C441.489 181.915 441.358 181.874 441.239 181.807C441.121 181.74 441.018 181.649 440.937 181.54V181.53Z" fill="#87AEDB"/>
<path d="M433.002 175.846L433.304 176.646C435.893 179.51 437.416 183.181 437.617 187.04V187.331C437.628 187.558 437.689 187.78 437.795 187.98C437.902 188.181 438.05 188.356 438.231 188.493C438.412 188.63 438.621 188.726 438.842 188.773C439.064 188.821 439.293 188.819 439.514 188.768C439.827 188.694 440.109 188.524 440.322 188.282C440.534 188.04 440.667 187.738 440.7 187.418C441.142 183.304 440.043 179.173 437.617 175.825L434.921 172.108L433.002 175.846Z" fill="#87AEDB"/>
<path d="M436.193 173.675L416.58 147.194L414.165 119.816L412.591 119.351C406.259 117.487 399.529 117.46 393.183 119.275L391.318 119.816L389.84 147.442L370.433 173.675L373.473 176.603L388.299 161.012C390.233 158.973 392.558 157.348 395.136 156.234C397.713 155.12 400.489 154.54 403.296 154.53C406.115 154.515 408.906 155.076 411.502 156.177C414.097 157.279 416.441 158.898 418.391 160.937L433.228 176.43L436.193 173.675Z" fill="#C7E1FF"/>
<path d="M390.067 172.865C390.002 176.398 393.129 180.536 397.614 181.756C399.742 182.326 401.995 182.194 404.042 181.381C406.088 180.568 407.819 179.116 408.979 177.24L409.378 176.603C410.141 175.362 410.632 173.973 410.818 172.527C411.004 171.082 410.881 169.613 410.456 168.219L407.458 160.807V155.524L403.253 152.282L398.941 155.524L398.844 161.196H394.93C393.593 161.216 392.318 161.762 391.38 162.716C390.442 163.67 389.916 164.956 389.916 166.296V168.662L390.067 172.865Z" fill="#87AEDB"/>
<path d="M394.229 166.663C394.269 166.095 394.522 165.564 394.937 165.175C395.352 164.787 395.899 164.571 396.467 164.571C397.035 164.571 397.581 164.787 397.997 165.175C398.412 165.564 398.665 166.095 398.704 166.663" fill="white"/>
<path d="M404.688 171.903L389.646 175.144C389.706 175.929 389.88 176.701 390.164 177.435C391.135 180.209 393.126 182.508 395.731 183.862C398.336 185.215 401.358 185.521 404.181 184.717C406.744 184.076 409.028 182.616 410.688 180.557C412.348 178.498 413.292 175.953 413.378 173.307C413.378 168.24 408.752 163.821 408.752 163.821L404.688 171.903Z" fill="black"/>
<path d="M402.865 170.109C402.863 169.6 403.012 169.102 403.292 168.678C403.573 168.253 403.973 167.922 404.442 167.726C404.911 167.53 405.427 167.477 405.925 167.575C406.424 167.673 406.882 167.917 407.242 168.276C407.602 168.636 407.848 169.094 407.947 169.593C408.047 170.092 407.997 170.61 407.803 171.08C407.609 171.551 407.28 171.953 406.858 172.236C406.436 172.519 405.939 172.67 405.431 172.67C404.753 172.67 404.102 172.4 403.621 171.921C403.14 171.441 402.868 170.789 402.865 170.109Z" fill="#87AEDB"/>
<path d="M198.329 236.62C196.604 230.981 194.113 228.582 189.498 228.29C187.45 228.171 170.338 228.171 168.29 228.29C163.675 228.582 161.54 231.532 159.793 237.215L155.901 253.021C155.771 253.899 155.836 254.795 156.091 255.645C156.347 256.494 156.786 257.277 157.378 257.937L162.64 263.815L165.088 243.006L169.605 267.855H189.908L193.272 243.006L196.593 263.663L201.725 257.84C202.311 257.175 202.744 256.389 202.991 255.537C203.239 254.685 203.297 253.79 203.159 252.913L198.329 236.62Z" fill="black"/>
<path d="M165.335 210.442C165.281 206.822 168.484 202.587 173.12 201.344C175.298 200.755 177.608 200.886 179.706 201.717C181.804 202.548 183.578 204.035 184.765 205.958L185.164 206.606C185.958 207.882 186.47 209.314 186.665 210.805C186.86 212.296 186.734 213.811 186.296 215.249L183.234 222.812V228.215L178.921 231.456L174.511 228.215L174.414 222.402H170.349C168.98 222.379 167.675 221.818 166.715 220.84C165.755 219.862 165.217 218.545 165.217 217.173V214.752L165.335 210.442Z" fill="#87AEDB"/>
<path d="M169.584 216.794C169.562 217.109 169.605 217.425 169.711 217.722C169.816 218.02 169.981 218.292 170.196 218.523C170.411 218.753 170.671 218.937 170.96 219.063C171.248 219.188 171.56 219.253 171.875 219.253C172.19 219.253 172.501 219.188 172.79 219.063C173.079 218.937 173.338 218.753 173.553 218.523C173.768 218.292 173.933 218.02 174.039 217.722C174.144 217.425 174.187 217.109 174.166 216.794" fill="white"/>
<path d="M183.708 221.602L186.943 216.082C187.356 215.377 187.696 214.631 187.956 213.856V213.802C189.001 210.821 188.827 207.548 187.471 204.695C186.116 201.843 183.689 199.644 180.722 198.579C180.427 198.478 180.125 198.391 179.816 198.319C176.928 197.516 173.844 197.839 171.183 199.222C168.523 200.605 166.484 202.946 165.476 205.774C165.18 206.528 164.998 207.322 164.937 208.13L172.484 213.629C173.319 214.245 174.358 214.518 175.387 214.394C176.417 214.27 177.361 213.756 178.026 212.959L179.568 211.133L183.708 221.602Z" fill="black"/>
<path d="M178.458 213.272C178.458 213.794 178.613 214.304 178.902 214.738C179.192 215.172 179.603 215.51 180.085 215.709C180.566 215.908 181.095 215.96 181.606 215.857C182.117 215.754 182.585 215.502 182.953 215.132C183.32 214.763 183.57 214.292 183.67 213.78C183.771 213.268 183.717 212.737 183.516 212.256C183.316 211.774 182.977 211.363 182.543 211.075C182.109 210.787 181.599 210.634 181.078 210.636C180.733 210.636 180.392 210.704 180.073 210.837C179.754 210.969 179.465 211.164 179.222 211.409C178.978 211.654 178.785 211.944 178.654 212.264C178.523 212.584 178.457 212.927 178.458 213.272Z" fill="#87AEDB"/>
<path d="M210.707 267.758C210.017 266.679 209.004 265.847 207.812 265.381C206.621 264.915 205.313 264.839 204.076 265.165L192.625 268.061H166.349L154.888 265.165C153.646 264.85 152.336 264.937 151.146 265.415C149.957 265.892 148.949 266.735 148.268 267.823C147.801 268.581 147.502 269.43 147.391 270.314C147.28 271.197 147.36 272.094 147.625 272.944C147.889 273.794 148.333 274.578 148.926 275.241C149.519 275.905 150.246 276.433 151.06 276.79L171.546 283.187H193.197L207.968 276.758C208.779 276.392 209.502 275.856 210.089 275.188C210.676 274.519 211.114 273.732 211.373 272.88C211.632 272.028 211.707 271.13 211.592 270.247C211.477 269.364 211.176 268.515 210.707 267.758Z" fill="#87AEDB"/>
<path d="M186.188 281.382L187.709 283.089L202.362 283.273C202.165 282.395 201.651 281.62 200.918 281.1C200.185 280.579 199.286 280.348 198.394 280.453L196.604 280.68C195.575 280.624 194.568 280.362 193.642 279.909C192.716 279.456 191.89 278.822 191.213 278.044L186.188 281.382Z" fill="black"/>
<path d="M163.654 280.518C163.227 280.623 162.789 280.677 162.349 280.68L160.549 280.453C159.657 280.349 158.757 280.579 158.025 281.1C157.292 281.62 156.778 282.395 156.581 283.273L171.482 283.111L163.654 280.518Z" fill="black"/>
<path d="M193.359 275.116H165.552C164.884 275.114 164.24 274.865 163.744 274.416C163.248 273.967 162.936 273.351 162.867 272.685L161.066 255.312C161.029 254.935 161.07 254.555 161.188 254.196C161.305 253.836 161.497 253.506 161.75 253.225C162.002 252.944 162.311 252.719 162.656 252.565C163 252.411 163.373 252.331 163.751 252.33H195.192C195.571 252.329 195.945 252.408 196.292 252.563C196.638 252.717 196.948 252.943 197.201 253.225C197.455 253.507 197.646 253.84 197.762 254.202C197.878 254.563 197.917 254.945 197.876 255.322L196.043 272.696C195.972 273.359 195.658 273.973 195.163 274.42C194.667 274.867 194.025 275.114 193.359 275.116Z" fill="white"/>
<path d="M181.843 263.739C181.845 264.21 181.708 264.67 181.448 265.062C181.189 265.455 180.819 265.761 180.386 265.943C179.953 266.124 179.475 266.173 179.015 266.082C178.554 265.992 178.13 265.766 177.797 265.434C177.464 265.102 177.237 264.679 177.145 264.217C177.053 263.756 177.099 263.278 177.278 262.843C177.457 262.408 177.761 262.036 178.152 261.774C178.542 261.512 179.001 261.373 179.471 261.373C180.098 261.373 180.7 261.622 181.144 262.065C181.589 262.509 181.84 263.11 181.843 263.739Z" fill="#87AEDB"/>
<path d="M164.387 208.929C164.387 208.281 164.538 206.412 164.581 205.385C165.034 199.907 170.943 195.499 177.099 195.661C179.658 195.753 182.129 196.617 184.19 198.14C186.25 199.663 187.804 201.774 188.647 204.197C189.035 205.27 189.264 206.395 189.326 207.535L189.272 208.832L157.724 210.614L157.648 209.318L164.387 208.929Z" fill="black"/>
<path d="M340.523 323.703C340.471 326.589 340.994 329.457 342.059 332.139C343.125 334.821 344.712 337.264 346.729 339.326C348.746 341.387 351.152 343.026 353.808 344.146C356.463 345.266 359.314 345.846 362.195 345.851H379.964C392.191 345.851 402.11 336.495 402.11 324.243C402.11 311.991 392.191 302.634 379.964 302.634H368.718L356.114 296.552V302.721C347.488 305.659 340.523 313.914 340.523 323.703Z" fill="white"/>
<path d="M358.713 334.118H384.007C385.383 334.118 386.498 333.001 386.498 331.622V314.454C386.498 313.076 385.383 311.958 384.007 311.958H358.713C357.337 311.958 356.222 313.076 356.222 314.454V331.622C356.222 333.001 357.337 334.118 358.713 334.118Z" fill="#87AEDB"/>
<path d="M386.498 318.02H356.222V323.108H386.498V318.02Z" fill="black"/>
<path d="M361.581 328.824C361.581 329.283 361.717 329.732 361.972 330.114C362.226 330.496 362.588 330.794 363.012 330.97C363.436 331.146 363.902 331.192 364.351 331.102C364.801 331.013 365.214 330.791 365.538 330.466C365.863 330.142 366.083 329.728 366.173 329.277C366.262 328.826 366.216 328.359 366.041 327.935C365.865 327.511 365.568 327.148 365.187 326.892C364.806 326.637 364.358 326.501 363.899 326.501C363.285 326.504 362.697 326.749 362.263 327.184C361.829 327.62 361.584 328.209 361.581 328.824Z" fill="#87AEDB"/>
<path d="M364.858 328.824C364.858 329.283 364.994 329.732 365.249 330.114C365.504 330.496 365.866 330.794 366.289 330.97C366.713 331.146 367.179 331.192 367.629 331.102C368.078 331.013 368.492 330.791 368.816 330.466C369.14 330.142 369.361 329.728 369.45 329.277C369.54 328.826 369.494 328.359 369.318 327.935C369.143 327.511 368.846 327.148 368.464 326.892C368.083 326.637 367.635 326.501 367.177 326.501C366.562 326.501 365.972 326.746 365.537 327.181C365.103 327.617 364.858 328.208 364.858 328.824Z" fill="black"/>
<path d="M144.785 35.3048C144.785 22.6206 154.489 12 167.093 12H185.477C188.45 12 191.395 12.5869 194.142 13.7271C196.889 14.8673 199.385 16.5386 201.487 18.6454C203.59 20.7523 205.258 23.2535 206.396 26.0062C207.534 28.759 208.119 31.7094 208.119 34.6889C208.119 37.6685 207.534 40.6189 206.396 43.3716C205.258 46.1243 203.59 48.6256 201.487 50.7324C199.385 52.8393 196.889 54.5105 194.142 55.6508C191.395 56.791 188.45 57.3778 185.477 57.3778H173.897L160.958 63.7848V57.3778C156.266 55.9077 152.165 52.9728 149.256 49.0017C146.346 45.0306 144.78 40.2313 144.785 35.3048Z" fill="white"/>
<path d="M191.752 22.8042H161.4V46.0117H191.752V22.8042Z" fill="#87AEDB"/>
<path d="M191.752 22.8042H179.892V46.0117H191.752V22.8042Z" fill="#C9E1FF"/>
<path d="M169.411 26.0564H164.904V32.1824H169.411V26.0564Z" fill="white"/>
<path d="M176.484 323.303C176.484 334.399 168.268 343.69 157.195 343.69H141.119C135.829 343.69 130.755 341.585 127.014 337.836C123.273 334.088 121.172 329.004 121.172 323.703C121.172 318.401 123.273 313.317 127.014 309.569C130.755 305.821 135.829 303.715 141.119 303.715H151.254L162.036 298.388V303.974C166.194 305.218 169.843 307.768 172.444 311.248C175.046 314.729 176.462 318.955 176.484 323.303Z" fill="white"/>
<path d="M148.904 311.386C147.611 311.384 146.332 311.638 145.137 312.133C143.943 312.627 142.858 313.353 141.943 314.268C141.029 315.183 140.304 316.27 139.809 317.466C139.314 318.662 139.06 319.944 139.06 321.239C139.06 328.608 148.904 338.018 148.904 338.018C148.904 338.018 158.748 327.851 158.748 321.239C158.748 319.944 158.493 318.662 157.998 317.466C157.503 316.27 156.778 315.183 155.864 314.268C154.95 313.353 153.864 312.627 152.67 312.133C151.476 311.638 150.196 311.384 148.904 311.386ZM148.904 326.144C147.935 326.144 146.989 325.857 146.184 325.318C145.379 324.779 144.752 324.013 144.381 323.116C144.011 322.22 143.914 321.234 144.103 320.282C144.291 319.331 144.758 318.457 145.442 317.771C146.127 317.085 146.999 316.618 147.949 316.428C148.898 316.239 149.882 316.336 150.777 316.707C151.671 317.079 152.436 317.707 152.974 318.514C153.512 319.321 153.799 320.269 153.799 321.239C153.8 321.884 153.674 322.522 153.429 323.118C153.183 323.714 152.823 324.255 152.368 324.711C151.913 325.167 151.373 325.528 150.779 325.774C150.184 326.02 149.547 326.146 148.904 326.144Z" fill="black"/>
<path d="M321.892 221.116L332.889 226.518L332.178 212.041C331.352 212.249 330.633 212.759 330.162 213.47C329.691 214.182 329.503 215.044 329.633 215.887L329.892 217.573C329.893 217.846 329.827 218.115 329.7 218.356C329.572 218.597 329.387 218.803 329.16 218.955C328.934 219.107 328.673 219.2 328.402 219.227C328.131 219.253 327.858 219.212 327.606 219.107L325.385 217.648L321.892 221.116Z" fill="black"/>
<path d="M289.902 220.165L310.496 205.04L324.577 225.297L328.265 216.924L315.542 196.191C315.227 195.499 314.773 194.878 314.209 194.369C313.645 193.86 312.983 193.472 312.263 193.23C311.543 192.988 310.781 192.896 310.025 192.962C309.268 193.027 308.533 193.247 307.865 193.609L285.007 205.969L289.902 220.165Z" fill="black"/>
<path d="M296.025 282.733C295.782 281.985 295.289 281.345 294.629 280.92C293.969 280.494 293.182 280.311 292.403 280.399L290.699 280.594C290.436 280.563 290.185 280.466 289.969 280.311C289.753 280.157 289.58 279.951 289.465 279.712C289.35 279.473 289.297 279.208 289.311 278.943C289.325 278.678 289.406 278.421 289.545 278.195L284.737 276.877L283.108 282.733H296.025Z" fill="black"/>
<path d="M266.256 212.44V214.202C266.256 216.818 267.293 219.327 269.139 221.177C270.985 223.027 273.489 224.066 276.1 224.066L291.195 243.211L283.593 276.574L291.367 278.735L301.686 242.617C302.17 240.901 302.021 239.067 301.265 237.452L289.405 212.484L266.256 212.44Z" fill="black"/>
<path d="M289.923 173.34H274.02C271.983 173.34 269.983 173.881 268.224 174.907C266.464 175.934 265.008 177.41 264.003 179.185L257.124 195.607C256.621 196.8 256.364 198.083 256.369 199.378V220.165H263.744V201.798L266.256 194.786V214.558C266.256 214.558 270.483 214.861 279.993 214.861C289.503 214.861 291.982 211.976 291.982 207.568C291.982 200.901 292.328 185.819 292.328 185.819L303.746 196.461C304.323 197.053 305.032 197.499 305.815 197.762C306.598 198.026 307.432 198.099 308.249 197.977C309.066 197.855 309.842 197.54 310.514 197.058C311.185 196.577 311.733 195.943 312.113 195.208L322.151 175.76L317.137 172.67L308.263 187.029L298.118 176.722C297.042 175.644 295.764 174.791 294.357 174.211C292.951 173.63 291.444 173.334 289.923 173.34Z" fill="#C7E1FF"/>
<path d="M293.578 155.286C293.632 151.537 290.344 147.15 285.524 145.865C283.271 145.26 280.884 145.398 278.715 146.258C276.546 147.118 274.711 148.654 273.48 150.64L273.092 151.375C272.278 152.689 271.753 154.161 271.552 155.695C271.351 157.228 271.479 158.787 271.928 160.267L275.098 168.121L275.303 173.394L280.036 177.813L284.435 173.394L284.241 167.689H288.446C289.861 167.666 291.21 167.087 292.202 166.077C293.195 165.066 293.751 163.705 293.751 162.287V159.78L293.578 155.286Z" fill="#87AEDB"/>
<path d="M278.839 152.315L293.707 149.905C293.707 149.905 293.707 146.826 287.356 142.569C285.017 140.992 281.879 140.884 278.946 141.619C277.286 142.032 275.732 142.794 274.387 143.854C273.042 144.913 271.936 146.247 271.144 147.766C270.351 149.286 269.889 150.956 269.788 152.668C269.687 154.379 269.949 156.093 270.558 157.695C271.52 160.505 272.721 163.227 274.148 165.831L278.839 152.315Z" fill="black"/>
<path d="M277.276 160.937C278.776 160.937 279.993 159.718 279.993 158.214C279.993 156.71 278.776 155.491 277.276 155.491C275.775 155.491 274.559 156.71 274.559 158.214C274.559 159.718 275.775 160.937 277.276 160.937Z" fill="#87AEDB"/>
<path d="M289.146 161.855C289.146 162.485 288.897 163.09 288.452 163.536C288.007 163.981 287.404 164.232 286.774 164.232C286.145 164.232 285.542 163.981 285.097 163.536C284.652 163.09 284.402 162.485 284.402 161.855" fill="white"/>
<path d="M263.485 230.905C263.788 230.905 264.079 230.784 264.293 230.569C264.507 230.355 264.628 230.063 264.628 229.76V224.736L262.31 223.061V229.76C262.308 229.913 262.338 230.066 262.397 230.207C262.455 230.349 262.543 230.477 262.652 230.585C262.762 230.692 262.893 230.775 263.036 230.83C263.179 230.885 263.332 230.911 263.485 230.905Z" fill="#87AEDB"/>
<path d="M261.124 231.964C261.417 231.964 261.698 231.852 261.91 231.651C262.123 231.451 262.251 231.176 262.267 230.883L262.343 223.115H260.057L259.981 230.862C259.993 231.158 260.118 231.438 260.331 231.644C260.544 231.849 260.829 231.964 261.124 231.964Z" fill="#87AEDB"/>
<path d="M258.913 230.905C259.217 230.905 259.507 230.784 259.722 230.569C259.936 230.355 260.056 230.063 260.056 229.76V223.061H257.771V229.76C257.769 229.91 257.798 230.06 257.855 230.2C257.912 230.339 257.996 230.466 258.102 230.573C258.209 230.679 258.335 230.764 258.474 230.821C258.614 230.878 258.763 230.906 258.913 230.905Z" fill="#87AEDB"/>
<path d="M256.628 227.728C256.778 227.73 256.926 227.702 257.065 227.645C257.203 227.589 257.329 227.506 257.436 227.4C257.542 227.295 257.626 227.169 257.684 227.031C257.742 226.892 257.771 226.744 257.771 226.594V223.061H255.485V226.594C255.488 226.896 255.61 227.184 255.824 227.397C256.038 227.609 256.327 227.728 256.628 227.728Z" fill="#87AEDB"/>
<path d="M255.485 224.401V222.143L256.369 220.165L262.429 220.014L262.526 220.101C263.228 220.765 263.783 221.57 264.155 222.464C264.526 223.357 264.706 224.319 264.682 225.287H264.855L255.485 224.401Z" fill="#87AEDB"/>
<path d="M317.299 172.767L317.924 168.391V164.848C317.938 164.571 318.058 164.309 318.258 164.118C318.459 163.927 318.726 163.821 319.002 163.821C319.277 163.838 319.535 163.959 319.723 164.16C319.912 164.361 320.016 164.626 320.016 164.902L319.757 168.834L326.528 173.34L322.215 175.717L317.299 172.767Z" fill="#87AEDB"/>
<path d="M320.523 173.351H326.733C327.204 173.351 327.585 172.968 327.585 172.497V160.321C327.585 159.849 327.204 159.467 326.733 159.467H320.523C320.052 159.467 319.671 159.849 319.671 160.321V172.497C319.671 172.968 320.052 173.351 320.523 173.351Z" fill="black"/>
<path d="M322.485 170.984C322.485 171.209 322.551 171.428 322.676 171.615C322.8 171.801 322.977 171.947 323.184 172.033C323.391 172.118 323.618 172.141 323.838 172.097C324.057 172.053 324.259 171.945 324.417 171.787C324.576 171.628 324.684 171.426 324.727 171.206C324.771 170.986 324.749 170.758 324.663 170.55C324.577 170.343 324.432 170.166 324.246 170.041C324.06 169.917 323.841 169.85 323.617 169.85C323.466 169.842 323.316 169.866 323.175 169.921C323.034 169.975 322.906 170.058 322.799 170.165C322.692 170.272 322.609 170.4 322.555 170.541C322.501 170.682 322.477 170.833 322.485 170.984Z" fill="#4B78FF"/>
<path d="M319.671 170.985H327.585V161.336H319.671V170.985Z" fill="white"/>
<path d="M140.558 145.724L138.251 150.446H152.807C152.589 149.594 152.064 148.854 151.333 148.369C150.602 147.884 149.717 147.688 148.85 147.82L147.103 148.09C146.822 148.091 146.546 148.022 146.298 147.889C146.05 147.756 145.839 147.564 145.683 147.33C145.527 147.096 145.431 146.827 145.405 146.546C145.378 146.266 145.42 145.984 145.529 145.724H140.558Z" fill="black"/>
<path d="M152.85 145.724L150.543 150.446H165.088C164.873 149.593 164.348 148.851 163.616 148.366C162.885 147.88 161.998 147.686 161.131 147.82L159.384 148.09C159.104 148.089 158.829 148.018 158.583 147.885C158.336 147.752 158.127 147.56 157.972 147.326C157.817 147.092 157.723 146.823 157.696 146.544C157.67 146.264 157.713 145.983 157.821 145.724H152.85Z" fill="black"/>
<path d="M151.319 146.156L138.446 112.987L123.674 105.478L106.908 114.554L102.218 107.337L120.547 109.379L145.023 103.836C146.014 104.221 146.888 104.858 147.559 105.684C148.23 106.51 148.675 107.496 148.85 108.547L159.88 146.156H151.319Z" fill="black"/>
<path d="M136.03 104.603C136.929 105.082 137.695 105.777 138.26 106.625C138.824 107.474 139.17 108.45 139.265 109.465L147.686 146.2H139.653L127.793 114.867C127.793 114.867 112.795 118.541 102.519 118.541C98.0018 118.541 93.042 114.295 93.042 109.044V107.348L136.03 104.603Z" fill="black"/>
<path d="M127.9 103.501L132.332 96.7053L121.981 74.9132C121.242 73.3539 120.077 72.0368 118.621 71.115C117.164 70.1931 115.477 69.7044 113.754 69.7055H100.578C98.6074 69.6934 96.6688 70.2088 94.963 71.1983C93.2571 72.1878 91.8457 73.6157 90.8746 75.3345L79.5318 92.4917C79.139 93.0871 78.8797 93.7608 78.7717 94.4664C78.6638 95.1719 78.7098 95.8925 78.9066 96.5785C79.1034 97.2645 79.4462 97.8996 79.9115 98.44C80.3769 98.9805 80.9536 99.4134 81.602 99.7089L93.0849 104.917V109.368L118.175 106.375L117.506 82.7679L127.9 103.501ZM90.0444 95.3656C89.801 95.2601 89.5846 95.1008 89.4113 94.8996C89.2381 94.6984 89.1126 94.4606 89.0441 94.2039C88.9756 93.9471 88.9661 93.6782 89.016 93.4173C89.066 93.1563 89.1743 92.91 89.3327 92.697L93.0849 87.6298V96.6621L90.0444 95.3656Z" fill="black"/>
<path d="M119.372 50.8953C119.372 47.2975 116.234 43.0731 111.619 41.8306C109.449 41.2504 107.149 41.3846 105.06 42.2132C102.972 43.0419 101.204 44.5213 100.018 46.4332L99.6188 47.0815C98.8428 48.3492 98.3454 49.768 98.1594 51.2435C97.9735 52.719 98.1035 54.2172 98.5406 55.6384L101.592 64.6708V69.738L106.066 71.8988L110.293 69.738L110.369 64.2494H114.412C115.774 64.2295 117.074 63.6733 118.03 62.7008C118.987 61.7283 119.523 60.4178 119.523 59.0526V55.1846L119.372 50.8953Z" fill="#87AEDB"/>
<path d="M115.113 58.6528C115.135 58.9661 115.092 59.2805 114.987 59.5765C114.882 59.8724 114.717 60.1435 114.504 60.3731C114.29 60.6027 114.031 60.7857 113.744 60.9108C113.456 61.036 113.146 61.1006 112.833 61.1006C112.519 61.1006 112.209 61.036 111.922 60.9108C111.634 60.7857 111.376 60.6027 111.162 60.3731C110.948 60.1435 110.783 59.8724 110.679 59.5765C110.574 59.2805 110.531 58.9661 110.552 58.6528" fill="white"/>
<path d="M108.74 104.679C108.81 104.55 108.854 104.409 108.868 104.264C108.882 104.118 108.866 103.971 108.822 103.831C108.778 103.692 108.705 103.563 108.61 103.452C108.514 103.342 108.397 103.252 108.266 103.188L103.953 100.962L101.096 102.378L107.209 105.143C107.338 105.221 107.482 105.271 107.632 105.29C107.782 105.309 107.933 105.296 108.078 105.252C108.222 105.208 108.355 105.134 108.47 105.036C108.584 104.937 108.676 104.815 108.74 104.679Z" fill="#87AEDB"/>
<path d="M108.589 107.164C108.658 107.037 108.701 106.897 108.715 106.753C108.728 106.609 108.713 106.463 108.67 106.325C108.627 106.187 108.556 106.059 108.463 105.949C108.369 105.839 108.255 105.749 108.126 105.684L101.549 102.161L100.578 104.117L107.047 107.628C107.177 107.708 107.322 107.759 107.473 107.779C107.623 107.799 107.777 107.786 107.922 107.742C108.068 107.699 108.203 107.624 108.318 107.525C108.432 107.425 108.525 107.302 108.589 107.164Z" fill="#87AEDB"/>
<path d="M106.702 108.59C106.773 108.462 106.817 108.322 106.832 108.176C106.847 108.031 106.832 107.884 106.789 107.745C106.745 107.606 106.674 107.477 106.58 107.366C106.485 107.255 106.369 107.164 106.239 107.099L100.578 104.117L99.5 106.073L105.193 109.054C105.321 109.129 105.463 109.176 105.611 109.192C105.758 109.209 105.907 109.195 106.049 109.152C106.19 109.108 106.321 109.036 106.434 108.939C106.546 108.842 106.638 108.724 106.702 108.59Z" fill="#87AEDB"/>
<path d="M102.983 109.13C103.053 109.002 103.097 108.862 103.112 108.717C103.127 108.571 103.112 108.425 103.069 108.285C103.026 108.146 102.954 108.017 102.86 107.906C102.765 107.795 102.65 107.704 102.519 107.639L99.5001 106.073L98.4219 108.028L101.43 109.595C101.56 109.676 101.706 109.729 101.858 109.75C102.01 109.771 102.164 109.759 102.311 109.715C102.458 109.671 102.594 109.596 102.71 109.495C102.826 109.394 102.919 109.27 102.983 109.13Z" fill="#87AEDB"/>
<path d="M99.6408 108.622L98.2392 107.888C97.893 107.708 97.5881 107.458 97.3443 107.153L96.417 105.997L98.9939 100.746H99.1125C99.9954 100.441 100.933 100.329 101.863 100.416C102.793 100.504 103.693 100.789 104.504 101.254L99.6408 108.622Z" fill="#87AEDB"/>
<path d="M105.204 38.5245H105.43C108.235 37.7296 111.238 38.0356 113.826 39.3804C116.414 40.7253 118.393 43.0078 119.361 45.7634C119.647 46.5078 119.821 47.2906 119.878 48.0863L112.794 54.5688C112.087 55.2159 111.253 55.7085 110.345 56.0154C109.437 56.3223 108.476 56.4368 107.522 56.3515C106.803 56.2853 106.128 55.9803 105.602 55.485C105.077 54.9897 104.731 54.3326 104.621 53.6181L100.212 61.181C98.7454 58.36 97.4877 55.435 96.4486 52.4296C95.1009 47.6541 98.0444 40.9015 105.204 38.5245Z" fill="black"/>
<path d="M105.268 55.1414C105.273 55.559 105.153 55.9684 104.925 56.3177C104.696 56.667 104.369 56.9404 103.986 57.1032C103.602 57.2659 103.178 57.3108 102.769 57.2319C102.36 57.1531 101.983 56.9542 101.687 56.6604C101.391 56.3666 101.188 55.9913 101.105 55.582C101.023 55.1728 101.063 54.748 101.221 54.3618C101.38 53.9756 101.649 53.6452 101.996 53.4128C102.342 53.1803 102.749 53.0562 103.166 53.0562C103.716 53.0696 104.239 53.293 104.63 53.6806C105.021 54.0681 105.249 54.5907 105.268 55.1414Z" fill="#87AEDB"/>
<path d="M128.526 106.915H118.682C118.682 106.102 119.004 105.321 119.579 104.746C120.153 104.17 120.932 103.847 121.744 103.847H128.526V106.915Z" fill="white"/>
<path d="M155.233 106.915H128.461C128.088 106.914 127.721 106.829 127.384 106.667C127.048 106.505 126.752 106.271 126.518 105.98C126.284 105.689 126.117 105.35 126.03 104.987C125.942 104.623 125.937 104.245 126.014 103.879L129.691 86.6574C129.807 86.0942 130.115 85.5886 130.561 85.2264C131.007 84.8641 131.564 84.6674 132.138 84.6694H158.91C159.284 84.6691 159.653 84.7525 159.99 84.9137C160.327 85.0749 160.624 85.3097 160.858 85.6009C161.093 85.8921 161.26 86.2323 161.346 86.5964C161.433 86.9606 161.436 87.3396 161.358 87.7055L157.724 104.917C157.606 105.488 157.293 106.001 156.838 106.366C156.383 106.731 155.816 106.925 155.233 106.915Z" fill="#87AEDB"/>
<path d="M146.003 95.7978C146.003 96.2572 145.868 96.7063 145.613 97.0883C145.358 97.4703 144.996 97.7681 144.572 97.9439C144.149 98.1197 143.683 98.1657 143.233 98.0761C142.783 97.9864 142.37 97.7652 142.046 97.4403C141.722 97.1155 141.501 96.7016 141.412 96.251C141.322 95.8004 141.368 95.3333 141.544 94.9088C141.719 94.4844 142.016 94.1216 142.397 93.8664C142.779 93.6111 143.227 93.4749 143.685 93.4749C143.99 93.4734 144.292 93.5326 144.574 93.6488C144.856 93.765 145.112 93.9361 145.328 94.1521C145.543 94.368 145.714 94.6247 145.83 94.9072C145.946 95.1896 146.005 95.4923 146.003 95.7978Z" fill="white"/>
<path d="M110.282 64.0872C110.282 64.0872 113.14 64.0872 114.595 64.0872C115.795 64.0752 116.948 63.617 117.83 62.8015V75.1616C117.834 75.6623 117.739 76.1589 117.551 76.6228C117.363 77.0866 117.085 77.5085 116.733 77.8641C116.381 78.2197 115.962 78.5019 115.501 78.6945C115.04 78.8871 114.545 78.9863 114.045 78.9863C113.046 78.9863 112.088 78.5894 111.381 77.8825C110.673 77.1757 110.274 76.2166 110.271 75.2156L110.282 64.0872Z" fill="#87AEDB"/>
<path d="M411.879 61.4186C411.879 50.0202 420.839 40.0911 432.214 40.0911H448.732C454.166 40.0911 459.376 42.2538 463.218 46.1036C467.06 49.9534 469.218 55.1748 469.218 60.6191C469.218 66.0635 467.06 71.2849 463.218 75.1347C459.376 78.9844 454.166 81.1472 448.732 81.1472H438.274L426.198 87.4029V81.6658C421.986 80.2337 418.334 77.5047 415.762 73.8685C413.191 70.2324 411.832 65.875 411.879 61.4186Z" fill="white"/>
<path d="M450.067 70.2895C455.221 65.1251 455.221 56.7519 450.067 51.5874C444.913 46.423 436.557 46.4229 431.403 51.5874C426.249 56.7518 426.249 65.1251 431.403 70.2895C436.557 75.454 444.913 75.454 450.067 70.2895Z" fill="black"/>
<path d="M447.33 67.5469C450.973 63.8971 450.973 57.9798 447.33 54.3301C443.688 50.6804 437.783 50.6804 434.141 54.3301C430.499 57.9798 430.499 63.8972 434.141 67.5469C437.783 71.1966 443.688 71.1966 447.33 67.5469Z" fill="white"/>
<path d="M440.215 63.8603V59.5386H447.762" stroke="#87AEDB" stroke-width="2" stroke-miterlimit="10"/>
<path d="M283.874 89.7905L290.452 86.7653L289.535 81.0607C290.532 80.1595 291.429 79.1524 292.209 78.0571L297.783 78.4568L300.285 71.6286L295.767 68.3009C295.837 66.9784 295.761 65.6523 295.541 64.3465L299.724 60.7163L296.705 54.1149L291.228 54.936C290.374 53.9194 289.408 53.0025 288.349 52.2025L288.802 46.5951L282.02 44.0669L278.71 48.5939C277.394 48.4967 275.756 47.87 274.397 48.0753L270.44 43.127L263.852 46.1521L265.017 52.3862C264.05 53.3733 263.19 54.4597 262.45 55.6275L256.952 55.3682L254.472 62.2613L259 65.6214C258.88 66.9707 258.905 68.3291 259.076 69.673L254.763 73.3897L257.782 79.991L263.421 79.0943C264.311 80.0973 265.305 81.0027 266.386 81.7954L265.976 87.3703L272.78 89.8877L276.101 85.3716C277.448 85.512 278.807 85.512 280.155 85.3716L283.874 89.7905ZM269.222 70.7426C268.48 69.1209 268.236 67.3154 268.518 65.5543C268.801 63.7932 269.598 62.1556 270.809 60.8484C272.02 59.5412 273.591 58.6231 275.323 58.2101C277.054 57.7971 278.869 57.9078 280.538 58.5281C282.207 59.1485 283.655 60.2506 284.699 61.6953C285.743 63.14 286.336 64.8624 286.404 66.6449C286.471 68.4273 286.01 70.1897 285.078 71.7095C284.146 73.2292 282.785 74.438 281.168 75.1832C279.004 76.1715 276.537 76.2615 274.307 75.4336C272.077 74.6056 270.264 72.927 269.265 70.7642L269.222 70.7426Z" fill="white"/>
<path d="M317.902 49.8149L321.525 46.3576L319.66 42.8354C320.11 42.0233 320.472 41.1647 320.738 40.2748L324.469 39.2916L324.598 34.2676L320.9 33.09C320.63 32.2117 320.268 31.3643 319.822 30.5618L321.752 27.2449L318.377 23.6578L314.98 25.4081C314.192 24.9413 313.357 24.5575 312.49 24.2629L311.53 20.503L306.516 20.3625L305.352 24.0576C304.363 24.1627 303.388 24.3691 302.441 24.6734L298.743 22.3289L295.12 25.7755L297.276 29.5894C296.861 30.4519 296.543 31.3577 296.327 32.2904L292.661 33.3709L292.575 38.4381L296.284 39.6157C296.508 40.5251 296.826 41.4087 297.233 42.252L295.228 45.6553L298.667 49.2963L302.16 47.4488C302.96 47.9076 303.81 48.2702 304.694 48.5292L305.665 52.2783L310.678 52.408L311.843 48.7021C312.757 48.4958 313.646 48.1915 314.495 47.7945L317.902 49.8149ZM305.654 39.1295C305.103 38.5464 304.736 37.8126 304.601 37.0209C304.466 36.2293 304.568 35.4152 304.895 34.6816C305.221 33.9481 305.757 33.3279 306.435 32.8996C307.113 32.4712 307.903 32.2539 308.704 32.275C309.505 32.2961 310.282 32.5548 310.937 33.0183C311.591 33.4818 312.094 34.1293 312.382 34.8791C312.669 35.6288 312.728 36.4471 312.552 37.2306C312.375 38.0141 311.971 38.7275 311.39 39.2808C311.006 39.6514 310.554 39.9427 310.058 40.1378C309.562 40.333 309.032 40.4283 308.5 40.4183C307.967 40.4083 307.441 40.2931 306.953 40.0794C306.465 39.8657 306.023 39.5576 305.654 39.1728V39.1295Z" fill="white"/>
</g>
<defs>
<linearGradient id="paint0_linear_239_38226" x1="272" y1="0" x2="272" y2="338" gradientUnits="userSpaceOnUse">
<stop offset="0.57754" stop-color="white"/>
<stop offset="0.88245" stop-color="white" stop-opacity="0.163079"/>
<stop offset="1" stop-color="white" stop-opacity="0"/>
</linearGradient>
</defs>
</svg>
