<svg width="22" height="22" viewBox="0 0 22 22" fill="none" xmlns="http://www.w3.org/2000/svg">
<path d="M21.673 13.6548C20.2052 19.5441 14.2404 23.1403 8.34029 21.6716C2.45101 20.1993 -1.1394 14.2344 0.328427 8.34515C1.79625 2.45589 7.75748 -1.1403 13.6432 0.328417C19.5468 1.77913 23.1372 7.76199 21.673 13.6548Z" fill="#F7931A"/>
<path d="M16.2089 9.55507C16.4066 8.0884 15.2922 7.32271 13.7644 6.80506L14.2389 4.82075L13.0311 4.52957L12.571 6.47075C12.251 6.39526 11.9275 6.31977 11.6076 6.25506L12.0677 4.31388L10.8455 4.02271L10.371 6.00702C10.1121 5.94591 9.84973 5.89918 9.59091 5.83807L7.92653 5.43905L7.62097 6.72238C7.62097 6.72238 8.52326 6.9201 8.49091 6.93807C8.9798 7.06029 9.07326 7.38023 9.05529 7.62467L8.51967 9.88579C8.55202 9.90017 8.59516 9.90017 8.64189 9.93252C8.59516 9.91814 8.5664 9.91814 8.51967 9.90376L7.78633 13.0672C7.72522 13.2181 7.57065 13.4338 7.23633 13.3583C7.25071 13.3727 6.34842 13.1427 6.34842 13.1427L5.77686 14.5338L7.35137 14.9005C7.64254 14.976 7.93372 15.0371 8.20692 15.1162L7.73241 17.1185L8.94025 17.4097L9.41476 15.4253C9.75267 15.5152 10.0726 15.5943 10.3782 15.6698L9.90365 17.6397L11.1115 17.9309L11.586 15.9286C13.6494 16.2953 15.1916 16.1263 15.8171 14.2463C16.3203 12.7472 15.7703 11.8917 14.6703 11.3273C15.4755 11.144 16.0579 10.6227 16.2089 9.55507ZM13.4912 13.4482C13.1389 14.9472 10.6046 14.1672 9.79221 13.9695L10.4177 11.3093C11.2445 11.5106 13.8579 11.8773 13.4912 13.4482ZM13.8255 9.55507C13.5056 10.9139 11.3955 10.2596 10.7089 10.0907L11.2912 7.67859C11.9635 7.84395 14.1635 8.13513 13.8255 9.55507Z" fill="white"/>
</svg>
