<svg width="36" height="36" viewBox="0 0 36 36" fill="none" xmlns="http://www.w3.org/2000/svg">
<path d="M17.999 2.1709L17.501 2.59277C17.501 2.59277 11.4131 7.66517 11.4131 14.2588C11.4131 15.3185 11.5119 16.6507 11.6533 18.0117L11.4688 18.123L7.31445 20.6484V25.0898H13.8447H14.3311V27.8848H15.3154C15.1793 28.375 15.1016 28.9031 15.1016 29.4639C15.1016 31.9119 17.5596 33.5068 17.5596 33.5068L17.999 33.8291L18.4531 33.5068C18.4531 33.5068 20.9082 31.9119 20.9082 29.4639C20.9082 28.9031 20.8276 28.375 20.6885 27.8848H21.667V25.0225H22.6748V25.0342H23.4219H28.6865V20.6484L24.5322 18.123L24.3477 18.0117C24.489 16.6507 24.5879 15.3184 24.5879 14.2588C24.5879 7.66515 18.4971 2.59276 18.4971 2.59276L17.999 2.1709ZM17.2402 10.4619H18.7578V11.209V11.6104H19.8799H20.6387V13.1016H19.8799H16.8799V14.2383H20.6387V18.3545H18.7578V18.7559V19.5029H17.2402V18.7559V18.3545H16.1211H15.3623V16.8633H16.1211H19.1328V15.7178H15.3623V11.6104H17.2402V11.209V10.4619ZM24.166 19.6406L27.1807 21.4834V23.543H23.4219H23.3545C23.6982 22.4721 23.9549 21.1411 24.1572 19.7256C24.1613 19.6973 24.162 19.669 24.166 19.6406ZM11.832 19.6495C11.8356 19.6749 11.8371 19.7002 11.8409 19.7256C12.0465 21.1641 12.3061 22.5193 12.6583 23.5987H8.83209V21.4835L11.832 19.6495ZM15.8486 25.0225H20.1494V26.4053H15.8486V25.0225Z" fill="#87AEDB"/>
<path d="M17.999 2.1709L17.501 2.59277C17.501 2.59277 11.4131 7.66517 11.4131 14.2588C11.4131 15.3185 11.5119 16.6507 11.6533 18.0117L11.4688 18.123L7.31445 20.6484V25.0898H13.8447H14.3311V27.8848H15.3154C15.1793 28.375 15.1016 28.9031 15.1016 29.4639C15.1016 31.9119 17.5596 33.5068 17.5596 33.5068L17.999 33.8291L18.4531 33.5068C18.4531 33.5068 20.9082 31.9119 20.9082 29.4639C20.9082 28.9031 20.8276 28.375 20.6885 27.8848H21.667V25.0225H22.6748V25.0342H23.4219H28.6865V20.6484L24.5322 18.123L24.3477 18.0117C24.489 16.6507 24.5879 15.3184 24.5879 14.2588C24.5879 7.66515 18.4971 2.59276 18.4971 2.59276L17.999 2.1709ZM17.2402 10.4619H18.7578V11.209V11.6104H19.8799H20.6387V13.1016H19.8799H16.8799V14.2383H20.6387V18.3545H18.7578V18.7559V19.5029H17.2402V18.7559V18.3545H16.1211H15.3623V16.8633H16.1211H19.1328V15.7178H15.3623V11.6104H17.2402V11.209V10.4619ZM24.166 19.6406L27.1807 21.4834V23.543H23.4219H23.3545C23.6982 22.4721 23.9549 21.1411 24.1572 19.7256C24.1613 19.6973 24.162 19.669 24.166 19.6406ZM11.832 19.6495C11.8356 19.6749 11.8371 19.7002 11.8409 19.7256C12.0465 21.1641 12.3061 22.5193 12.6583 23.5987H8.83209V21.4835L11.832 19.6495ZM15.8486 25.0225H20.1494V26.4053H15.8486V25.0225Z" fill="url(#paint0_linear_114_40)"/>
<path d="M6.51074 27.0493V27.7951V30.8118V31.5577H8.02754V30.8118V27.7951V27.0493H6.51074Z" fill="white"/>
<path d="M10.3481 27.0493V27.7951V30.8118V31.5577H11.8536V30.8118V27.7951V27.0493H10.3481Z" fill="white"/>
<path d="M24.1465 27.0493V27.7951V30.8118V31.5577H25.6633V30.8118V27.7951V27.0493H24.1465Z" fill="white"/>
<path d="M27.9834 27.0493V27.7951V30.8118V31.5577H29.4889V30.8118V27.7951V27.0493H27.9834Z" fill="white"/>
<defs>
<linearGradient id="paint0_linear_114_40" x1="15.1766" y1="15.2067" x2="37.8715" y2="30.9087" gradientUnits="userSpaceOnUse">
<stop stop-color="#87AEDB"/>
<stop offset="1" stop-color="#C9E1FF"/>
</linearGradient>
</defs>
</svg>
