<svg width="22" height="22" viewBox="0 0 22 22" fill="none" xmlns="http://www.w3.org/2000/svg">
<rect width="22" height="22" rx="11" fill="#009393"/>
<path fill-rule="evenodd" clip-rule="evenodd" d="M16.1061 7.12708V5H5.89387V7.12708H9.72728V8.60186C7.03495 8.75946 5.01507 9.40676 5.00011 10.1826L5 11.8C5.01499 12.5759 7.03495 13.2231 9.72728 13.3807V17H12.2727V13.3807C14.965 13.2231 16.9849 12.5759 16.9999 11.8L17 10.1826C16.985 9.40676 14.965 8.75946 12.2727 8.60186V7.12708H16.1061ZM16.8624 10.9913C16.2747 11.7222 13.8732 12.2696 11 12.2696C8.1268 12.2696 5.72531 11.7222 5.13758 10.9913C5.63597 10.3715 7.43867 9.88366 9.72728 9.74968V11.2938C10.1375 11.3178 10.5633 11.3304 11 11.3304C11.4367 11.3304 11.8625 11.3178 12.2727 11.2938V9.74968C14.5613 9.88366 16.364 10.3715 16.8624 10.9913Z" fill="white"/>
</svg>
