<svg width="70" height="70" viewBox="0 0 70 70" fill="none" xmlns="http://www.w3.org/2000/svg">
<path d="M34.9999 23.4207C33.6606 23.4207 32.5708 24.5039 32.5708 25.8352C32.5708 27.1662 33.6604 28.249 34.9999 28.249C36.3393 28.249 37.4288 27.1662 37.4288 25.8352C37.4288 24.5039 36.3393 23.4207 34.9999 23.4207Z" fill="white"/>
<path d="M55.2856 18.5327V28.2068H57.1H58.9155V18.5327H57.1H55.2856Z" fill="white"/>
<path d="M55.2856 38.085V47.7596H57.1H58.9155V38.085H57.1H55.2856Z" fill="white"/>
<path fill-rule="evenodd" clip-rule="evenodd" d="M6.17334 60.0226V6.31226H63.8264V60.0226H58.328H45.5533H24.4463H11.6716H6.17334ZM59.556 29.4881C59.9098 29.4881 60.1967 29.2013 60.1967 28.8475H60.1968V17.8922C60.1968 17.5382 59.91 17.2515 59.5561 17.2515H57.7408V13.0037C57.7408 12.6499 57.4539 12.363 57.1001 12.363H12.8998C12.5461 12.363 12.2591 12.6499 12.2591 13.0037V53.3311C12.2591 53.6849 12.5461 53.9717 12.8998 53.9717H57.1C57.4538 53.9717 57.7406 53.6849 57.7406 53.3311V49.041H59.556C59.9098 49.041 60.1967 48.7541 60.1967 48.4003V37.4443C60.1967 37.0905 59.9098 36.8037 59.556 36.8037H57.7406V29.4881H59.556ZM54.0046 48.4001V37.4442C54.0046 37.0903 54.2915 36.8035 54.6453 36.8035H56.4597V29.4879H54.6453C54.2915 29.4879 54.0046 29.2011 54.0046 28.8473V17.892C54.0046 17.5382 54.2915 17.2513 54.6453 17.2513H56.4597V13.6443H13.5405V52.6902H56.4597V49.0408H54.6453C54.2915 49.0406 54.0046 48.7539 54.0046 48.4001ZM27.3344 46.1168C27.3344 46.4706 27.0475 46.7574 26.6937 46.7574H21.7826C21.4289 46.7574 21.1421 46.4706 21.1421 46.1168V41.1693C21.1421 40.8155 21.4289 40.5287 21.7826 40.5287H26.6937C27.0475 40.5287 27.3344 40.8155 27.3344 41.1693V46.1168ZM37.8502 46.1168C37.8502 46.4706 37.5634 46.7574 37.2096 46.7574H32.2985C31.9448 46.7574 31.6579 46.4706 31.6579 46.1168V41.1693C31.6579 40.8155 31.9448 40.5287 32.2985 40.5287H37.2096C37.5634 40.5287 37.8502 40.8155 37.8502 41.1693V46.1168ZM41.512 32.9555C41.3486 32.9555 41.1851 32.8933 41.0601 32.7689L37.1297 28.8581C36.6929 29.1642 36.1872 29.3786 35.6407 29.4737V35C35.6407 35.3539 35.3539 35.6407 35 35.6407C34.6463 35.6407 34.3594 35.3539 34.3594 35V29.4739C33.8129 29.3787 33.3073 29.1643 32.8705 28.8582L28.9401 32.7691C28.815 32.8935 28.6516 32.9557 28.4881 32.9557C28.3237 32.9557 28.1592 32.8928 28.0341 32.7669C27.7844 32.5161 27.7855 32.1105 28.0364 31.8611L31.9631 27.954C31.6571 27.5201 31.4425 27.0184 31.3468 26.4759H25.7915C25.4378 26.4759 25.1508 26.1891 25.1508 25.8352C25.1508 25.4814 25.4377 25.1946 25.7915 25.1946H31.3468C31.4425 24.6519 31.6571 24.1498 31.9632 23.7159L28.0364 19.8081C27.7855 19.5585 27.7846 19.153 28.0341 18.9022C28.2836 18.6515 28.6892 18.6505 28.9401 18.9L32.8705 22.8116C33.3073 22.5054 33.8129 22.2909 34.3594 22.1958V16.6699C34.3594 16.316 34.6463 16.0292 35 16.0292C35.3539 16.0292 35.6407 16.316 35.6407 16.6699V22.1958C36.1872 22.2911 36.6928 22.5054 37.1297 22.8116L41.0601 18.9C41.3108 18.6504 41.7166 18.6515 41.966 18.9022C42.2155 19.1531 42.2146 19.5586 41.9638 19.8081L38.0368 23.7159C38.3429 24.1499 38.5577 24.6519 38.6533 25.1946H44.2087C44.5627 25.1946 44.8494 25.4813 44.8494 25.8352C44.8494 26.1891 44.5627 26.4759 44.2087 26.4759H38.6533C38.5577 27.0183 38.3429 27.5201 38.037 27.954L41.9637 31.8611C42.2146 32.1106 42.2155 32.5163 41.966 32.7669C41.8409 32.8925 41.6764 32.9555 41.512 32.9555ZM48.2389 46.1168C48.2389 46.4706 47.9521 46.7574 47.5983 46.7574H42.6872C42.3334 46.7574 42.0465 46.4706 42.0465 46.1168V41.1693C42.0465 40.8155 42.3334 40.5287 42.6872 40.5287H47.5983C47.9521 40.5287 48.2389 40.8155 48.2389 41.1693V46.1168ZM26.0527 41.8101H22.4229V45.4762H26.0527V41.8101ZM36.5688 41.8101H32.939V45.4762H36.5688V41.8101ZM12.3125 61.3037H23.806V63.6881H12.3125V61.3037ZM57.6874 61.3037H46.1938V63.6881H57.6874V61.3037ZM43.3276 41.8101H46.9575V45.4762H43.3276V41.8101Z" fill="#87AEDB"/>
<path fill-rule="evenodd" clip-rule="evenodd" d="M6.17334 60.0226V6.31226H63.8264V60.0226H58.328H45.5533H24.4463H11.6716H6.17334ZM59.556 29.4881C59.9098 29.4881 60.1967 29.2013 60.1967 28.8475H60.1968V17.8922C60.1968 17.5382 59.91 17.2515 59.5561 17.2515H57.7408V13.0037C57.7408 12.6499 57.4539 12.363 57.1001 12.363H12.8998C12.5461 12.363 12.2591 12.6499 12.2591 13.0037V53.3311C12.2591 53.6849 12.5461 53.9717 12.8998 53.9717H57.1C57.4538 53.9717 57.7406 53.6849 57.7406 53.3311V49.041H59.556C59.9098 49.041 60.1967 48.7541 60.1967 48.4003V37.4443C60.1967 37.0905 59.9098 36.8037 59.556 36.8037H57.7406V29.4881H59.556ZM54.0046 48.4001V37.4442C54.0046 37.0903 54.2915 36.8035 54.6453 36.8035H56.4597V29.4879H54.6453C54.2915 29.4879 54.0046 29.2011 54.0046 28.8473V17.892C54.0046 17.5382 54.2915 17.2513 54.6453 17.2513H56.4597V13.6443H13.5405V52.6902H56.4597V49.0408H54.6453C54.2915 49.0406 54.0046 48.7539 54.0046 48.4001ZM27.3344 46.1168C27.3344 46.4706 27.0475 46.7574 26.6937 46.7574H21.7826C21.4289 46.7574 21.1421 46.4706 21.1421 46.1168V41.1693C21.1421 40.8155 21.4289 40.5287 21.7826 40.5287H26.6937C27.0475 40.5287 27.3344 40.8155 27.3344 41.1693V46.1168ZM37.8502 46.1168C37.8502 46.4706 37.5634 46.7574 37.2096 46.7574H32.2985C31.9448 46.7574 31.6579 46.4706 31.6579 46.1168V41.1693C31.6579 40.8155 31.9448 40.5287 32.2985 40.5287H37.2096C37.5634 40.5287 37.8502 40.8155 37.8502 41.1693V46.1168ZM41.512 32.9555C41.3486 32.9555 41.1851 32.8933 41.0601 32.7689L37.1297 28.8581C36.6929 29.1642 36.1872 29.3786 35.6407 29.4737V35C35.6407 35.3539 35.3539 35.6407 35 35.6407C34.6463 35.6407 34.3594 35.3539 34.3594 35V29.4739C33.8129 29.3787 33.3073 29.1643 32.8705 28.8582L28.9401 32.7691C28.815 32.8935 28.6516 32.9557 28.4881 32.9557C28.3237 32.9557 28.1592 32.8928 28.0341 32.7669C27.7844 32.5161 27.7855 32.1105 28.0364 31.8611L31.9631 27.954C31.6571 27.5201 31.4425 27.0184 31.3468 26.4759H25.7915C25.4378 26.4759 25.1508 26.1891 25.1508 25.8352C25.1508 25.4814 25.4377 25.1946 25.7915 25.1946H31.3468C31.4425 24.6519 31.6571 24.1498 31.9632 23.7159L28.0364 19.8081C27.7855 19.5585 27.7846 19.153 28.0341 18.9022C28.2836 18.6515 28.6892 18.6505 28.9401 18.9L32.8705 22.8116C33.3073 22.5054 33.8129 22.2909 34.3594 22.1958V16.6699C34.3594 16.316 34.6463 16.0292 35 16.0292C35.3539 16.0292 35.6407 16.316 35.6407 16.6699V22.1958C36.1872 22.2911 36.6928 22.5054 37.1297 22.8116L41.0601 18.9C41.3108 18.6504 41.7166 18.6515 41.966 18.9022C42.2155 19.1531 42.2146 19.5586 41.9638 19.8081L38.0368 23.7159C38.3429 24.1499 38.5577 24.6519 38.6533 25.1946H44.2087C44.5627 25.1946 44.8494 25.4813 44.8494 25.8352C44.8494 26.1891 44.5627 26.4759 44.2087 26.4759H38.6533C38.5577 27.0183 38.3429 27.5201 38.037 27.954L41.9637 31.8611C42.2146 32.1106 42.2155 32.5163 41.966 32.7669C41.8409 32.8925 41.6764 32.9555 41.512 32.9555ZM48.2389 46.1168C48.2389 46.4706 47.9521 46.7574 47.5983 46.7574H42.6872C42.3334 46.7574 42.0465 46.4706 42.0465 46.1168V41.1693C42.0465 40.8155 42.3334 40.5287 42.6872 40.5287H47.5983C47.9521 40.5287 48.2389 40.8155 48.2389 41.1693V46.1168ZM26.0527 41.8101H22.4229V45.4762H26.0527V41.8101ZM36.5688 41.8101H32.939V45.4762H36.5688V41.8101ZM12.3125 61.3037H23.806V63.6881H12.3125V61.3037ZM57.6874 61.3037H46.1938V63.6881H57.6874V61.3037ZM43.3276 41.8101H46.9575V45.4762H43.3276V41.8101Z" fill="url(#paint0_linear_122_135)"/>
<defs>
<linearGradient id="paint0_linear_122_135" x1="26" y1="26" x2="67.5" y2="69.5" gradientUnits="userSpaceOnUse">
<stop stop-color="#87AEDB"/>
<stop offset="1" stop-color="#C9E1FF"/>
</linearGradient>
</defs>
</svg>
