<svg width="68" height="68" viewBox="0 0 68 68" fill="none" xmlns="http://www.w3.org/2000/svg">
<path d="M39.9363 12.1831L22.1404 12.2011C21.5243 12.2011 20.9315 12.1382 20.3664 12.0218C20.3266 12.6161 20.3257 13.2395 20.3257 13.9511C20.3257 21.4347 25.4095 35.9999 34.7285 35.9999C38.5056 35.9999 41.3766 33.5824 43.1196 31.5542C47.2034 26.8038 49.6155 19.0771 48.8628 13.3263L43.7071 10.6948C42.794 11.6725 41.51 12.1831 39.9363 12.1831ZM40.492 28.6892C38.6457 29.9522 36.8476 30.4055 35.2553 30.4055C32.9275 30.4055 31.0395 29.4371 30.0815 28.614C29.6122 28.2107 29.5636 27.5088 29.9731 27.0464C30.3815 26.5854 31.0915 26.5365 31.5608 26.9361C31.7125 27.0637 35.0056 29.7371 39.2048 26.8642C39.7171 26.514 40.4195 26.639 40.7749 27.1429C41.1303 27.647 41.0036 28.3392 40.492 28.6892Z" fill="white"/>
<path fill-rule="evenodd" clip-rule="evenodd" d="M19.9478 9.59357C19.8782 9.55658 19.8041 9.52717 19.7256 9.50512C18.0645 8.79349 17 7.3368 17 5.5294V0H39.2784C40.1673 0 40.5439 0.513861 41.318 1.87285L41.4435 2.09291L41.481 2.16618L41.4826 2.16922C41.5591 2.3186 41.6197 2.43677 41.6536 2.54535C41.735 2.80525 41.9103 3.02673 42.1465 3.16806L48.7662 7.12647V10.7742L43.8902 8.2858C43.7248 8.20138 43.5471 8.16107 43.3721 8.16107C42.9803 8.16107 42.6006 8.36263 42.3928 8.71951C41.8927 9.57815 41.135 9.96088 39.9352 9.96088L22.1394 9.97891C21.3405 9.97891 20.6032 9.84066 19.9478 9.59357ZM44.1392 44.6517L39.6123 50.1791L36.1284 47.9031L44.3937 38L47.2793 40.8183L44.1392 44.6517ZM40.5812 52.4581C40.6289 52.4172 40.6744 52.3732 40.7152 52.3234L49.1632 42.0093L61.6582 46.0158C63.9604 46.754 65.5221 48.8948 65.5221 51.3125V56.8352C65.5221 63.0011 60.5237 67.9996 54.3577 67.9996V56.0039C54.3577 55.4016 53.8578 54.9135 53.2411 54.9135C52.6242 54.9135 52.1245 55.4016 52.1245 56.0039V67.9996H16.3976V56.0039C16.3976 55.4016 15.8977 54.9135 15.281 54.9135C14.6646 54.9135 14.1644 55.4016 14.1644 56.0039V67.9998C7.99849 67.9998 3 63.0013 3 56.8354V50.5963C3 47.8875 4.87459 45.5393 7.51607 44.9392L21.6658 41.7249L27.7062 52.1781C27.8556 52.4363 28.106 52.6243 28.4001 52.6981C28.4651 52.7144 28.5311 52.7228 28.5969 52.7276C28.6126 52.7288 28.6281 52.73 28.6441 52.7304C28.6557 52.7309 28.6672 52.7328 28.6789 52.7328C28.7325 52.7328 28.7856 52.7283 28.8383 52.7209C28.8454 52.72 28.8522 52.7185 28.859 52.7169L28.8709 52.7144C28.9262 52.7051 28.9803 52.6911 29.0334 52.6739C29.0508 52.6683 29.0682 52.662 29.0854 52.6557C29.1471 52.632 29.2078 52.6048 29.265 52.5705L34.4631 49.4393L39.2228 52.5487C39.2781 52.5847 39.3355 52.6138 39.3944 52.639C39.4046 52.6433 39.4149 52.6471 39.4252 52.6507L39.4289 52.6521C39.4356 52.6544 39.4422 52.6568 39.4487 52.6592C39.4911 52.675 39.5335 52.6883 39.5767 52.6988C39.5976 52.7037 39.6179 52.7083 39.6386 52.7121C39.6834 52.7202 39.7287 52.7251 39.7737 52.7279C39.7909 52.729 39.808 52.7314 39.8249 52.7316C39.828 52.7316 39.831 52.7319 39.834 52.7323L39.8379 52.7327L39.843 52.733C39.895 52.733 39.9467 52.7279 39.9982 52.7209C40.0079 52.7199 40.0175 52.7182 40.0271 52.7165L40.0337 52.7153C40.093 52.7053 40.1516 52.692 40.2088 52.6727C40.2117 52.6718 40.2143 52.6702 40.2171 52.6692C40.2727 52.6501 40.326 52.6255 40.3778 52.598C40.3875 52.5927 40.3975 52.588 40.4073 52.5824C40.4588 52.5531 40.5081 52.5191 40.5546 52.4812C40.5638 52.4735 40.5722 52.4658 40.5812 52.4581ZM23.6177 40.6648L29.0805 50.119L32.3049 48.1765L32.9164 47.8083L26.2712 38.084L23.6177 40.6648Z" fill="#87AEDB"/>
<path fill-rule="evenodd" clip-rule="evenodd" d="M19.9478 9.59357C19.8782 9.55658 19.8041 9.52717 19.7256 9.50512C18.0645 8.79349 17 7.3368 17 5.5294V0H39.2784C40.1673 0 40.5439 0.513861 41.318 1.87285L41.4435 2.09291L41.481 2.16618L41.4826 2.16922C41.5591 2.3186 41.6197 2.43677 41.6536 2.54535C41.735 2.80525 41.9103 3.02673 42.1465 3.16806L48.7662 7.12647V10.7742L43.8902 8.2858C43.7248 8.20138 43.5471 8.16107 43.3721 8.16107C42.9803 8.16107 42.6006 8.36263 42.3928 8.71951C41.8927 9.57815 41.135 9.96088 39.9352 9.96088L22.1394 9.97891C21.3405 9.97891 20.6032 9.84066 19.9478 9.59357ZM44.1392 44.6517L39.6123 50.1791L36.1284 47.9031L44.3937 38L47.2793 40.8183L44.1392 44.6517ZM40.5812 52.4581C40.6289 52.4172 40.6744 52.3732 40.7152 52.3234L49.1632 42.0093L61.6582 46.0158C63.9604 46.754 65.5221 48.8948 65.5221 51.3125V56.8352C65.5221 63.0011 60.5237 67.9996 54.3577 67.9996V56.0039C54.3577 55.4016 53.8578 54.9135 53.2411 54.9135C52.6242 54.9135 52.1245 55.4016 52.1245 56.0039V67.9996H16.3976V56.0039C16.3976 55.4016 15.8977 54.9135 15.281 54.9135C14.6646 54.9135 14.1644 55.4016 14.1644 56.0039V67.9998C7.99849 67.9998 3 63.0013 3 56.8354V50.5963C3 47.8875 4.87459 45.5393 7.51607 44.9392L21.6658 41.7249L27.7062 52.1781C27.8556 52.4363 28.106 52.6243 28.4001 52.6981C28.4651 52.7144 28.5311 52.7228 28.5969 52.7276C28.6126 52.7288 28.6281 52.73 28.6441 52.7304C28.6557 52.7309 28.6672 52.7328 28.6789 52.7328C28.7325 52.7328 28.7856 52.7283 28.8383 52.7209C28.8454 52.72 28.8522 52.7185 28.859 52.7169L28.8709 52.7144C28.9262 52.7051 28.9803 52.6911 29.0334 52.6739C29.0508 52.6683 29.0682 52.662 29.0854 52.6557C29.1471 52.632 29.2078 52.6048 29.265 52.5705L34.4631 49.4393L39.2228 52.5487C39.2781 52.5847 39.3355 52.6138 39.3944 52.639C39.4046 52.6433 39.4149 52.6471 39.4252 52.6507L39.4289 52.6521C39.4356 52.6544 39.4422 52.6568 39.4487 52.6592C39.4911 52.675 39.5335 52.6883 39.5767 52.6988C39.5976 52.7037 39.6179 52.7083 39.6386 52.7121C39.6834 52.7202 39.7287 52.7251 39.7737 52.7279C39.7909 52.729 39.808 52.7314 39.8249 52.7316C39.828 52.7316 39.831 52.7319 39.834 52.7323L39.8379 52.7327L39.843 52.733C39.895 52.733 39.9467 52.7279 39.9982 52.7209C40.0079 52.7199 40.0175 52.7182 40.0271 52.7165L40.0337 52.7153C40.093 52.7053 40.1516 52.692 40.2088 52.6727C40.2117 52.6718 40.2143 52.6702 40.2171 52.6692C40.2727 52.6501 40.326 52.6255 40.3778 52.598C40.3875 52.5927 40.3975 52.588 40.4073 52.5824C40.4588 52.5531 40.5081 52.5191 40.5546 52.4812C40.5638 52.4735 40.5722 52.4658 40.5812 52.4581ZM23.6177 40.6648L29.0805 50.119L32.3049 48.1765L32.9164 47.8083L26.2712 38.084L23.6177 40.6648Z" fill="url(#paint0_linear_120_82)"/>
<defs>
<linearGradient id="paint0_linear_120_82" x1="26" y1="28" x2="78" y2="77" gradientUnits="userSpaceOnUse">
<stop stop-color="#87AEDB"/>
<stop offset="1" stop-color="#C9E1FF"/>
</linearGradient>
</defs>
</svg>
