<svg width="215" height="215" viewBox="0 0 215 215" fill="none" xmlns="http://www.w3.org/2000/svg">
<path d="M125.387 63.9258C133.078 63.9258 139.331 57.6724 139.331 49.9822C139.331 42.292 133.078 36.0386 125.387 36.0386C117.697 36.0386 111.444 42.292 111.444 49.9822C111.444 57.6724 117.698 63.9258 125.387 63.9258Z" fill="white"/>
<path d="M87.0432 49.9822C94.7334 49.9822 100.987 43.7288 100.987 36.0386C100.987 28.3484 94.7334 22.095 87.0432 22.095C79.353 22.095 73.0996 28.3484 73.0996 36.0386C73.0996 43.7288 79.353 49.9822 87.0432 49.9822Z" fill="white"/>
<path fill-rule="evenodd" clip-rule="evenodd" d="M76.5848 1.17944H83.5566V18.6093H76.5848V1.17944ZM97.5005 4.66492H90.5287V18.6085H97.5005V4.66492ZM114.93 11.6367H121.902V32.5521H114.93V11.6367ZM128.874 15.123H135.846V32.5529H128.874V15.123ZM4.14441 49.9821L0 66.5642L6.76358 68.2597L8.44054 61.5564L34.0826 96.8162L51.9267 82.5417L70.6632 101.278C70.0081 102.641 69.6139 104.146 69.6139 105.757C69.6139 108.445 70.6595 110.874 72.3327 112.729C70.6632 114.584 69.6139 117.013 69.6139 119.701C69.6139 122.388 70.6595 124.818 72.3327 126.673C70.6632 128.527 69.6139 130.957 69.6139 133.644C69.6139 135.332 70.0534 136.901 70.7644 138.312C63.2906 146.633 59.1566 157.233 59.1566 168.503C59.1566 180.955 64.1027 192.563 73.0861 201.187C81.6091 209.376 92.6874 213.821 104.452 213.821C105.079 213.821 105.71 213.806 106.345 213.782C128.386 212.893 146.882 195.335 149.475 173.746L163.733 159.489L210.071 205.827L215 200.898L163.734 149.629L149.518 163.841C148.758 156.389 146.186 149.333 141.999 143.174L147.126 140.612H212.536V133.64H145.478L138.506 137.126H137.118C137.091 137.099 137.066 137.07 137.041 137.04C137.021 137.017 137 136.993 136.978 136.969C130.163 129.963 126.179 121.38 125.52 112.557L127.563 110.006L107.697 94.1138L100.662 101.148C98.6724 103.134 95.4717 103.368 93.2236 101.678C91.9787 100.743 91.1875 99.3804 90.9889 97.8395C90.7933 96.2986 91.2224 94.7786 92.1914 93.5657L99.5261 84.4016L121.086 78.2418L141.555 95.2984H212.536V88.3266H144.079L132.38 78.5765L145.533 56.9531H67.0922L81.0358 81.3548H80.0705C74.7511 81.3548 70.3977 85.3601 69.7455 90.5018L52.4413 73.1976L35.4264 86.8103L13.7131 56.9539H20.8105V49.9821H4.14441ZM80.0713 95.2984C78.1504 95.2984 76.585 93.7337 76.585 91.8129C76.585 89.892 78.1504 88.3266 80.0713 88.3266H87.461L86.7501 89.2123C85.3207 91.0001 84.4774 93.0987 84.1599 95.2984H80.0713ZM126.963 74.0625L122.718 70.5241L95.4717 78.3095L93.0347 81.3563H89.0643L79.1052 63.9257H133.13L126.963 74.0625ZM85.1296 102.271C85.9938 104.213 87.2907 105.942 89.0442 107.256C90.2676 108.173 91.6166 108.827 93.0213 109.243H80.0713C78.1504 109.243 76.585 107.678 76.585 105.757C76.585 103.836 78.1504 102.271 80.0713 102.271H85.1296ZM80.0713 123.187C78.1504 123.187 76.585 121.622 76.585 119.701C76.585 117.779 78.1504 116.214 80.0713 116.215H94.0149C95.9357 116.215 97.5011 117.78 97.5011 119.701C97.5011 121.622 95.9357 123.187 94.0149 123.187H80.0713ZM80.0713 137.131C78.1504 137.131 76.585 135.565 76.585 133.644C76.585 131.723 78.1504 130.157 80.0713 130.158H94.0149C95.9357 130.158 97.5011 131.724 97.5011 133.644C97.5011 135.565 95.9357 137.131 94.0149 137.131H80.0713ZM106.062 206.817C95.4546 207.218 85.5089 203.456 77.9131 196.16C70.3144 188.861 66.1276 179.037 66.1284 168.503C66.1284 159.056 69.5581 150.16 75.7737 143.154C77.0884 143.75 78.5378 144.102 80.072 144.102H94.0156C96.7032 144.102 99.1327 143.056 100.987 141.383V147.588H99.2443C92.5164 147.588 87.0438 153.061 87.0438 159.789V161.532H94.0156V159.789C94.0156 156.906 96.3611 154.56 99.2443 154.56H109.702C112.585 154.56 114.931 156.905 114.931 159.789C114.931 162.671 112.586 165.017 109.702 165.017H99.2443C92.5164 165.017 87.0438 170.49 87.0438 177.218C87.0438 183.946 92.5164 189.418 99.2443 189.418H100.987V196.39H107.959V189.418H109.702C116.43 189.418 121.903 183.946 121.903 177.218V175.475H114.931V177.218C114.931 180.1 112.586 182.446 109.702 182.446H99.2443C96.3618 182.446 94.0156 180.096 94.0156 177.214C94.0156 174.332 96.3611 171.985 99.2443 171.985H109.702C116.43 171.985 121.903 166.513 121.903 159.785C121.903 153.057 116.43 147.584 109.702 147.584H107.959V140.613H101.754C103.424 138.758 104.473 136.328 104.473 133.641C104.473 130.953 103.427 128.524 101.754 126.669C103.424 124.814 104.473 122.385 104.473 119.697C104.473 117.01 103.427 114.58 101.754 112.725C103.134 111.195 104.051 109.267 104.337 107.123C104.37 107.098 104.404 107.072 104.438 107.046C104.833 106.745 105.232 106.441 105.595 106.078L108.217 103.456L118.504 111.686C118.957 122.632 123.667 133.282 131.984 141.833C139.15 149.206 142.995 158.928 142.811 169.208C142.452 189.143 125.963 206.015 106.062 206.817Z" fill="url(#paint0_radial_122_164)"/>
<defs>
<radialGradient id="paint0_radial_122_164" cx="0" cy="0" r="1" gradientUnits="userSpaceOnUse" gradientTransform="translate(47.5 111.5) rotate(-30.3791) scale(168.077 168.077)">
<stop stop-color="#C9E1FF"/>
<stop offset="0.633971" stop-color="#87AEDB"/>
<stop offset="1" stop-color="#87AEDB" stop-opacity="0"/>
</radialGradient>
</defs>
</svg>
