<svg width="40" height="40" viewBox="0 0 40 40" fill="none" xmlns="http://www.w3.org/2000/svg">
<path d="M24 22L17 27" stroke="url(#paint0_linear_8_45679)" stroke-width="2" stroke-miterlimit="10" stroke-linecap="round" stroke-linejoin="round"/>
<path d="M10 23L9 15" stroke="url(#paint1_linear_8_45679)" stroke-width="2" stroke-miterlimit="10" stroke-linecap="round" stroke-linejoin="round"/>
<path d="M23 15L15 11" stroke="url(#paint2_linear_8_45679)" stroke-width="2" stroke-miterlimit="10" stroke-linecap="round" stroke-linejoin="round"/>
<mask id="mask0_8_45679" style="mask-type:luminance" maskUnits="userSpaceOnUse" x="0" y="1" width="39" height="38">
<path d="M38 38V1.99987H1.99988V38H38Z" fill="white" stroke="white" stroke-width="2"/>
</mask>
<g mask="url(#mask0_8_45679)">
<path d="M14.6198 8.81017C14.6198 5.60138 12.0186 3.00023 8.80982 3.00023C5.6011 3.00023 2.99988 5.60138 2.99988 8.81017C2.99988 12.0189 5.6011 14.6201 8.80982 14.6201C12.0186 14.6201 14.6198 12.0189 14.6198 8.81017Z" stroke="url(#paint3_linear_8_45679)" stroke-width="2" stroke-miterlimit="10" stroke-linecap="round" stroke-linejoin="round"/>
<path d="M12.6755 13.0942C12.6755 11.4472 11.3403 10.112 9.69333 10.112H7.92629C6.27922 10.112 4.94409 11.4472 4.94409 13.0942" stroke="url(#paint4_linear_8_45679)" stroke-width="2" stroke-miterlimit="10" stroke-linecap="round" stroke-linejoin="round"/>
<path d="M8.80982 10.1123C7.79506 10.1123 6.97256 9.28974 6.97256 8.27505V7.61592C6.97256 6.60117 7.79506 5.7786 8.80982 5.7786C9.8245 5.7786 10.6471 6.60117 10.6471 7.61592V8.27505C10.6471 9.28974 9.8245 10.1123 8.80982 10.1123Z" stroke="url(#paint5_linear_8_45679)" stroke-width="2" stroke-miterlimit="10" stroke-linecap="round" stroke-linejoin="round"/>
<path d="M17.7885 30.3658C17.7885 26.7018 14.8184 23.7317 11.1544 23.7317C7.49038 23.7317 4.5202 26.7018 4.5202 30.3658C4.5202 34.0298 7.49038 37 11.1544 37C14.8184 37 17.7885 34.0298 17.7885 30.3658Z" stroke="url(#paint6_linear_8_45679)" stroke-width="2" stroke-miterlimit="10" stroke-linecap="round" stroke-linejoin="round"/>
<path d="M15.5686 35.2583C15.5686 33.3777 14.0439 31.8531 12.1633 31.8531H10.1455C8.26488 31.8531 6.74026 33.3777 6.74026 35.2583" stroke="url(#paint7_linear_8_45679)" stroke-width="2" stroke-miterlimit="10" stroke-linecap="round" stroke-linejoin="round"/>
<path d="M11.1544 31.853C9.99575 31.853 9.05646 30.9137 9.05646 29.7551V29.0025C9.05646 27.8438 9.99575 26.9046 11.1544 26.9046C12.313 26.9046 13.2523 27.8438 13.2523 29.0025V29.7551C13.2523 30.9137 12.313 31.853 11.1544 31.853Z" stroke="url(#paint8_linear_8_45679)" stroke-width="2" stroke-miterlimit="10" stroke-linecap="round" stroke-linejoin="round"/>
<path d="M27.0041 12.1714C24.6762 13.2986 23.071 15.6834 23.071 18.4433C23.071 22.2897 26.1891 25.4077 30.0355 25.4077C33.8819 25.4077 37 22.2897 37 18.4433C37 15.6834 35.3946 13.2986 33.0669 12.1714" stroke="url(#paint9_linear_8_45679)" stroke-width="2" stroke-miterlimit="10" stroke-linecap="round" stroke-linejoin="round"/>
<path d="M34.6694 23.5791C34.6694 21.6048 33.0689 20.0043 31.0946 20.0043H28.9764C27.0021 20.0043 25.4016 21.6048 25.4016 23.5791" stroke="url(#paint10_linear_8_45679)" stroke-width="2" stroke-miterlimit="10" stroke-linecap="round" stroke-linejoin="round"/>
<path d="M30.0355 20.0044C28.8191 20.0044 27.8331 19.0183 27.8331 17.8021V17.0119C27.8331 15.7956 28.8191 14.8096 30.0355 14.8096C31.2518 14.8096 32.2378 15.7956 32.2378 17.0119V17.8021C32.2378 19.0183 31.2518 20.0044 30.0355 20.0044Z" stroke="url(#paint11_linear_8_45679)" stroke-width="2" stroke-miterlimit="10" stroke-linecap="round" stroke-linejoin="round"/>
<path d="M8.80981 10.1119V11.1543" stroke="url(#paint12_linear_8_45679)" stroke-width="2" stroke-miterlimit="10" stroke-linecap="round" stroke-linejoin="round"/>
<path d="M30.0355 20.0001V21.5469" stroke="url(#paint13_linear_8_45679)" stroke-width="2" stroke-miterlimit="10" stroke-linecap="round" stroke-linejoin="round"/>
<path d="M11.1543 32.028V33.2686" stroke="url(#paint14_linear_8_45679)" stroke-width="2" stroke-miterlimit="10" stroke-linecap="round" stroke-linejoin="round"/>
</g>
<defs>
<linearGradient id="paint0_linear_8_45679" x1="17" y1="24.5" x2="24" y2="24.5" gradientUnits="userSpaceOnUse">
<stop stop-color="#87AEDB"/>
<stop offset="1" stop-color="#C9E1FF"/>
</linearGradient>
<linearGradient id="paint1_linear_8_45679" x1="9" y1="19" x2="10" y2="19" gradientUnits="userSpaceOnUse">
<stop stop-color="#87AEDB"/>
<stop offset="1" stop-color="#C9E1FF"/>
</linearGradient>
<linearGradient id="paint2_linear_8_45679" x1="15" y1="13" x2="23" y2="13" gradientUnits="userSpaceOnUse">
<stop stop-color="#87AEDB"/>
<stop offset="1" stop-color="#C9E1FF"/>
</linearGradient>
<linearGradient id="paint3_linear_8_45679" x1="2.99988" y1="8.81017" x2="14.6198" y2="8.81017" gradientUnits="userSpaceOnUse">
<stop stop-color="#87AEDB"/>
<stop offset="1" stop-color="#C9E1FF"/>
</linearGradient>
<linearGradient id="paint4_linear_8_45679" x1="4.94409" y1="11.6031" x2="12.6755" y2="11.6031" gradientUnits="userSpaceOnUse">
<stop stop-color="#87AEDB"/>
<stop offset="1" stop-color="#C9E1FF"/>
</linearGradient>
<linearGradient id="paint5_linear_8_45679" x1="6.97256" y1="7.94545" x2="10.6471" y2="7.94545" gradientUnits="userSpaceOnUse">
<stop stop-color="#87AEDB"/>
<stop offset="1" stop-color="#C9E1FF"/>
</linearGradient>
<linearGradient id="paint6_linear_8_45679" x1="4.5202" y1="30.3658" x2="17.7885" y2="30.3658" gradientUnits="userSpaceOnUse">
<stop stop-color="#87AEDB"/>
<stop offset="1" stop-color="#C9E1FF"/>
</linearGradient>
<linearGradient id="paint7_linear_8_45679" x1="6.74026" y1="33.5557" x2="15.5686" y2="33.5557" gradientUnits="userSpaceOnUse">
<stop stop-color="#87AEDB"/>
<stop offset="1" stop-color="#C9E1FF"/>
</linearGradient>
<linearGradient id="paint8_linear_8_45679" x1="9.05646" y1="29.3788" x2="13.2523" y2="29.3788" gradientUnits="userSpaceOnUse">
<stop stop-color="#87AEDB"/>
<stop offset="1" stop-color="#C9E1FF"/>
</linearGradient>
<linearGradient id="paint9_linear_8_45679" x1="23.071" y1="18.7895" x2="37" y2="18.7895" gradientUnits="userSpaceOnUse">
<stop stop-color="#87AEDB"/>
<stop offset="1" stop-color="#C9E1FF"/>
</linearGradient>
<linearGradient id="paint10_linear_8_45679" x1="25.4016" y1="21.7917" x2="34.6694" y2="21.7917" gradientUnits="userSpaceOnUse">
<stop stop-color="#87AEDB"/>
<stop offset="1" stop-color="#C9E1FF"/>
</linearGradient>
<linearGradient id="paint11_linear_8_45679" x1="27.8331" y1="17.407" x2="32.2378" y2="17.407" gradientUnits="userSpaceOnUse">
<stop stop-color="#87AEDB"/>
<stop offset="1" stop-color="#C9E1FF"/>
</linearGradient>
<linearGradient id="paint12_linear_8_45679" x1="8.80981" y1="10.6331" x2="9.80981" y2="10.6331" gradientUnits="userSpaceOnUse">
<stop stop-color="#87AEDB"/>
<stop offset="1" stop-color="#C9E1FF"/>
</linearGradient>
<linearGradient id="paint13_linear_8_45679" x1="30.0355" y1="20.7735" x2="31.0355" y2="20.7735" gradientUnits="userSpaceOnUse">
<stop stop-color="#87AEDB"/>
<stop offset="1" stop-color="#C9E1FF"/>
</linearGradient>
<linearGradient id="paint14_linear_8_45679" x1="11.1543" y1="32.6483" x2="12.1543" y2="32.6483" gradientUnits="userSpaceOnUse">
<stop stop-color="#87AEDB"/>
<stop offset="1" stop-color="#C9E1FF"/>
</linearGradient>
</defs>
</svg>
