<svg width="13" height="16" viewBox="0 0 13 16" fill="none" xmlns="http://www.w3.org/2000/svg">
<g clip-path="url(#clip0_239_37818)">
<path d="M12 6.5C12 10.7778 6.5 14.4444 6.5 14.4444C6.5 14.4444 1 10.7778 1 6.5C1 5.04131 1.57946 3.64236 2.61091 2.61091C3.64236 1.57946 5.04131 1 6.5 1C7.95869 1 9.35764 1.57946 10.3891 2.61091C11.4205 3.64236 12 5.04131 12 6.5Z" stroke="#0D1B29" stroke-width="1.5" stroke-linecap="round" stroke-linejoin="round"/>
<path d="M6.50033 8.33268C7.51285 8.33268 8.33366 7.51187 8.33366 6.49935C8.33366 5.48683 7.51285 4.66602 6.50033 4.66602C5.4878 4.66602 4.66699 5.48683 4.66699 6.49935C4.66699 7.51187 5.4878 8.33268 6.50033 8.33268Z" stroke="#0D1B29" stroke-width="1.5" stroke-linecap="round" stroke-linejoin="round"/>
</g>
<defs>
<clipPath id="clip0_239_37818">
<rect width="13" height="16" fill="white"/>
</clipPath>
</defs>
</svg>
