<svg width="1112" height="2466" viewBox="0 0 1112 2466" fill="none" xmlns="http://www.w3.org/2000/svg">
<path d="M559 0C559 59.5 537 62 492 62C263.928 62 102.293 62 67 62C10.5 62 1.5 98 1.5 112.5C1.5 127 7 164 67 164H1032.5C1094.5 164 1110.67 216.333 1111 242.5V300.5V543.5C1110.67 569.667 1094.5 622 1032.5 622H80C18 622 1.83333 674.333 1.5 700.5V786.25V872V997.5C1.83337 1023.67 18 1076 80 1076H1032.5C1094.5 1076 1110.67 1128.33 1111 1154.5V1183.5V1453C1110.67 1479.17 1094.5 1531.5 1032.5 1531.5H556.25H80C18 1531.5 1.83337 1583.83 1.5 1610L1.5 1852.5V1881.5C1.83337 1907.67 18 1960 80 1960H1032.5C1094.5 1960 1110.67 2012.33 1111 2038.5V2357.5V2386.5C1110.67 2412.67 1094.5 2465 1032.5 2465H80" stroke="url(#paint0_linear_38_22795)" stroke-width="2"/>
<defs>
<linearGradient id="paint0_linear_38_22795" x1="1.5" y1="1232.5" x2="1111" y2="1232.5" gradientUnits="userSpaceOnUse">
<stop stop-color="#87AEDB"/>
<stop offset="1" stop-color="#C9E1FF"/>
</linearGradient>
</defs>
</svg>
