<svg width="46" height="46" viewBox="0 0 46 46" fill="none" xmlns="http://www.w3.org/2000/svg">
<path d="M45.3192 28.5529C42.2499 40.8675 29.7772 48.3873 17.4399 45.3162C5.12517 42.2375 -2.38252 29.7648 0.686756 17.4501C3.75604 5.13538 16.2212 -2.38441 28.5284 0.686734C40.8733 3.72024 48.381 16.2306 45.3192 28.5529Z" fill="#F0B90B"/>
<path d="M31.8006 21.8775L31.7828 18.0489H31.7967L28.5447 16.1346L22.9722 19.4202L17.4334 16.1346L14.1834 18.0489V21.8775L19.7559 25.1474V31.7029L22.992 33.5994L26.2281 31.7029V25.1474L31.8006 21.8775Z" fill="white"/>
<path d="M22.9742 6.32709L14.1814 11.5112L17.4175 13.4256L22.9742 10.1399L28.5467 13.4256L31.7828 11.5112L22.9742 6.32709Z" fill="white"/>
<path d="M11.8594 29.7726L11.8416 23.233L8.60745 21.3206V31.7048L17.4161 36.8711V33.0425L11.8594 29.7726Z" fill="white"/>
<path d="M11.8416 20.5042V16.6934L15.0935 14.779L11.8416 12.8647L8.60547 14.779V18.5899L11.8416 20.5042Z" fill="white"/>
<path d="M22.9727 12.8647L19.7366 14.779L22.9727 16.6934L26.2247 14.779L22.9727 12.8647Z" fill="white"/>
<path d="M17.4175 26.5028L14.1814 24.5885V28.4171L17.4175 30.3136V26.5028Z" fill="white"/>
<path d="M22.9742 36.3281L19.7381 34.4138V38.2246L22.9742 40.139L26.2261 38.2246V34.4138L22.9742 36.3281Z" fill="white"/>
<path d="M34.1034 12.8647L30.8673 14.779L34.1034 16.6934V20.5042L37.3553 18.5899V14.779L34.1034 12.8647Z" fill="white"/>
<path d="M37.3573 21.3187L34.1212 23.233L34.1034 29.7726L28.5487 33.0405V36.8691L37.3573 31.7028V21.3187Z" fill="white"/>
<path d="M31.7835 28.417L28.5474 30.3135V26.5027L31.7835 24.5884V28.417Z" fill="white"/>
</svg>
