<svg width="46" height="46" viewBox="0 0 46 46" fill="none" xmlns="http://www.w3.org/2000/svg">
<path d="M45.3163 28.551C42.2472 40.8649 29.7753 48.3843 17.4388 45.3133C5.12485 42.2348 -2.38237 29.7629 0.686712 17.449C3.7558 5.13505 16.2202 -2.38426 28.5266 0.686691C40.8707 3.72001 48.3779 16.2296 45.3163 28.551Z" fill="#0088CC"/>
<path fill-rule="evenodd" clip-rule="evenodd" d="M14.0518 11.559H32.4791C33.0954 11.559 33.7048 11.559 34.5266 11.9698C35.3483 12.3807 35.7523 12.997 36.1632 13.401C36.1632 13.401 36.1632 13.401 36.1632 13.6064C36.574 14.2227 36.7795 14.8322 36.7795 15.6539C36.7795 16.2702 36.574 17.0851 36.1632 17.7014L24.4946 37.5667C24.2892 37.9775 23.6729 38.183 23.2689 38.183C22.858 38.183 22.2486 37.9775 22.0431 37.5667L10.5732 17.7014C10.3678 17.2905 9.9569 16.6811 9.75146 15.6539C9.75146 14.8322 9.9569 14.0173 10.1623 13.401C10.5732 12.7847 11.1826 12.1753 11.7989 11.7644C12.8261 11.559 13.641 11.559 14.0518 11.559ZM21.8309 14.4282H14.0518C13.641 14.4282 13.4355 14.4282 13.2301 14.4282C13.0247 14.4282 12.8192 14.6336 12.8192 14.839C12.6138 15.0445 12.6138 15.2499 12.6138 15.4553C12.6138 15.6608 12.6138 15.6608 13.0247 16.277L21.8309 31.6365V14.4282ZM24.7001 14.4282V31.6297L33.7117 16.2702C33.7117 16.0648 33.9171 15.8593 33.9171 15.4485C33.9171 15.243 33.9171 15.0376 33.7117 14.8322C33.5063 14.6267 33.5063 14.6267 33.5063 14.6267C33.5063 14.6267 33.5063 14.6267 33.3008 14.6267C33.0954 14.6267 32.89 14.4213 32.4791 14.4213H24.7001V14.4282Z" fill="white"/>
</svg>
