<svg width="46" height="46" viewBox="0 0 46 46" fill="none" xmlns="http://www.w3.org/2000/svg">
<path d="M45.3163 28.551C42.2472 40.8649 29.7753 48.3843 17.4388 45.3133C5.12485 42.2348 -2.38237 29.7629 0.686712 17.449C3.7558 5.13505 16.2202 -2.38426 28.5266 0.686691C40.8707 3.72001 48.3779 16.2296 45.3163 28.551Z" fill="#375BD2"/>
<path d="M23.1337 13.3929L31.5172 18.1801V27.7928L23.1568 32.6107L14.7734 27.8311V18.2183L23.1337 13.3929ZM23.1337 6.32675L20.0572 8.10093L11.6815 12.9264L8.60498 14.7006V18.2336V27.8387V31.3717L11.6815 33.1307L20.0649 37.9179L23.1414 39.6768L26.218 37.9026L34.5784 33.0772L37.6549 31.3106V27.7776V18.1648V14.6318L34.5784 12.8729L26.1949 8.08564L23.1184 6.32675H23.1337Z" fill="white"/>
</svg>
