<svg width="46" height="46" viewBox="0 0 46 46" fill="none" xmlns="http://www.w3.org/2000/svg">
<path d="M45.3192 28.5529C42.2499 40.8675 29.7772 48.3873 17.4399 45.3162C5.12517 42.2375 -2.38252 29.7648 0.686756 17.4501C3.75604 5.13538 16.2212 -2.38441 28.5284 0.686734C40.8733 3.72024 48.381 16.2306 45.3192 28.5529Z" fill="#2775CA"/>
<path d="M9.61043 17.9235C6.83093 25.3033 10.6646 33.6413 18.1401 36.3247C18.4276 36.5165 18.7151 36.8997 18.7151 37.1872V38.5291C18.7151 38.7207 18.7151 38.8167 18.6192 38.9123C18.5235 39.2958 18.1401 39.4874 17.7566 39.2958C12.3897 37.5707 8.26852 33.4495 6.54341 28.0826C3.66823 18.9779 8.65196 9.29796 17.7566 6.42277C17.8525 6.32709 18.0441 6.32709 18.1401 6.32709C18.5235 6.42277 18.7151 6.71029 18.7151 7.09373V8.4354C18.7151 8.91475 18.5235 9.20227 18.1401 9.39387C14.2107 10.8315 11.048 13.8982 9.61043 17.9235Z" fill="white"/>
<path d="M27.4366 6.80621C27.5322 6.42277 27.9157 6.23117 28.2991 6.42277C33.5701 8.14788 37.7872 12.2691 39.5123 17.7319C42.3875 26.8366 37.4038 36.5165 28.2991 39.3917C28.2032 39.4874 28.0116 39.4874 27.9157 39.4874C27.5322 39.3917 27.3406 39.1042 27.3406 38.7207V37.3791C27.3406 36.8997 27.5322 36.6122 27.9157 36.4206C31.845 34.983 35.0077 31.9162 36.4453 27.891C39.2248 20.5112 35.3912 12.1731 27.9157 9.48979C27.6282 9.29796 27.3406 8.91475 27.3406 8.53132V7.18964C27.3406 6.99781 27.3406 6.90212 27.4366 6.80621Z" fill="white"/>
<path d="M23.3153 21.2781C27.3406 21.7572 29.3532 22.9073 29.3532 26.2616C29.3532 28.8493 27.4365 30.8619 24.5613 31.3412V33.6414C24.4654 34.1205 24.1779 34.408 23.7944 34.408H22.3568C21.8777 34.3121 21.5902 34.0246 21.5902 33.6414V31.3412C18.4275 30.8619 16.894 29.1368 16.5108 26.7409V26.645C16.5108 26.2616 16.7983 25.9741 17.1815 25.9741H18.8109C19.0985 25.9741 19.386 26.1659 19.4817 26.5491C19.7692 27.9867 20.6317 29.0411 23.1237 29.0411C24.9445 29.0411 26.2864 27.9869 26.2864 26.4534C26.2864 24.9199 25.4239 24.3449 22.7403 23.8658C18.715 23.3864 16.7983 22.1407 16.7983 18.978C16.7983 16.5819 18.6191 14.6652 21.4943 14.2817V12.0775C21.5902 11.5982 21.8777 11.3106 22.2612 11.3106H23.6988C24.1779 11.4066 24.4654 11.6941 24.4654 12.0775V14.3777C26.6696 14.5693 28.3947 16.1985 28.7782 18.307V18.4029C28.7782 18.7861 28.4906 19.0736 28.1072 19.0736H26.5739C26.2864 19.0736 25.9989 18.882 25.903 18.5945C25.4239 17.1569 24.4654 16.5819 22.7403 16.5819C20.8236 16.5819 19.8651 17.4442 19.8651 18.7861C19.8651 20.128 20.4401 20.8947 23.3153 21.2781Z" fill="white"/>
</svg>
