<svg width="46" height="46" viewBox="0 0 46 46" fill="none" xmlns="http://www.w3.org/2000/svg">
<path d="M23 46C35.7025 46 46 35.7025 46 23C46 10.2975 35.7025 0 23 0C10.2975 0 0 10.2975 0 23C0 35.7025 10.2975 46 23 46Z" fill="#988430"/>
<path d="M23.0002 44.794C35.0368 44.794 44.7944 35.0364 44.7944 22.9998C44.7944 10.9632 35.0368 1.2056 23.0002 1.2056C10.9636 1.2056 1.20605 10.9632 1.20605 22.9998C1.20605 35.0364 10.9636 44.794 23.0002 44.794Z" fill="#BA9F33"/>
<path d="M15.2172 5.0325C15.2803 3.80244 15.576 3.7948 15.576 3.7948C15.576 3.7948 15.6887 3.7428 15.5314 3.88131C15.3803 4.01445 15.3676 4.54818 15.3502 5.28L15.3481 5.3694C15.3408 5.67065 15.3863 5.98426 15.4368 6.33175C15.5166 6.88117 15.6086 7.5153 15.5238 8.31921C15.4418 9.12239 15.0937 9.69834 14.7871 10.2055C14.7555 10.2578 14.7244 10.3094 14.694 10.3604C14.4621 10.7493 14.2863 11.0894 14.2863 11.0894L13.2806 11.7548C13.2806 11.7548 12.3458 11.882 11.4972 12.4651C10.9774 12.8239 10.4616 13.4819 10.0352 14.2484C9.78834 14.6807 9.5823 15.1821 9.41427 15.591C9.39915 15.6278 9.38433 15.6639 9.36982 15.6991C9.13808 16.2719 9.04961 16.723 8.97467 17.1052C8.90336 17.4689 8.84428 17.7701 8.68566 18.0544C8.40724 18.5426 8.34869 18.8552 8.337 18.9443C8.45071 18.753 9.15205 17.5783 9.08408 17.8189C9.02074 18.1067 8.84477 18.5217 8.55692 18.9927C8.3807 19.2834 8.34745 19.5685 8.31216 19.8712C8.28979 20.0629 8.26661 20.2617 8.20572 20.4734C8.09384 20.8719 7.94922 21.3186 7.81929 21.7198C7.67129 22.1769 7.54235 22.5751 7.50258 22.7763C7.42796 23.1538 7.48377 23.6431 7.56599 24.3639L7.56617 24.3654C7.58939 24.5899 7.58553 24.8394 7.5816 25.0933C7.57794 25.3298 7.57423 25.5701 7.59229 25.7973C7.62211 26.1113 7.72316 26.4253 7.80548 26.5451C7.9464 26.7582 7.99098 27.0241 8.0288 27.2497C8.04336 27.3365 8.05693 27.4174 8.0746 27.487C8.11566 27.6467 8.18314 27.7772 8.24821 27.9031C8.28978 27.9835 8.33037 28.062 8.36246 28.1451C8.41546 28.266 8.45044 28.4699 8.48925 28.6961C8.51884 28.8686 8.55066 29.054 8.59438 29.2255C8.66945 29.491 8.77222 29.7479 8.90097 29.992L8.87484 30.0482C8.87484 30.0482 8.10886 28.5975 7.81312 27.5543C7.64109 26.9261 7.42791 26.0477 7.31577 24.6156C7.20487 23.195 7.3621 22.0924 7.53758 21.0489C7.66354 20.2999 8.01312 19.5551 8.20039 19.1945L8.18462 19.2209C8.18462 19.2209 8.85005 15.5159 9.51547 14.2036C9.94923 13.325 10.5511 12.5959 11.0036 12.1886C11.1876 12.0165 11.3571 11.9347 11.4785 11.8761C11.5075 11.8621 11.5338 11.8494 11.5569 11.8371C11.8174 11.6938 12.3676 11.612 12.6848 11.5648C12.7817 11.5504 12.8568 11.5392 12.8954 11.5305C12.9893 11.5118 13.6093 11.2611 14.0244 10.9023C14.3313 10.6326 14.4923 10.2883 14.5805 10.0997C14.5987 10.0608 14.6138 10.0286 14.6265 10.005C14.7619 9.76379 14.8076 9.39897 14.8477 9.07848C14.8573 9.00138 14.8667 8.92685 14.8768 8.85722C14.8937 8.74178 14.916 8.62521 14.9399 8.49992C14.9904 8.23551 15.0483 7.93226 15.0787 7.51873C15.1169 6.99933 15.1448 6.4529 15.1912 5.54144L15.1918 5.53045C15.1997 5.37553 15.2081 5.21009 15.2172 5.0325Z" fill="#806638"/>
<path d="M27.274 8.9431C27.7637 8.9431 28.0516 8.82357 28.0516 8.82357L28.2611 8.83466L27.9207 9.5272L27.0049 9.60114L22.4472 9.53755C22.4472 9.53755 20.6638 9.35444 21.0715 9.36183C21.3548 9.36561 22.2378 9.24741 23.2161 9.11648C24.4073 8.95704 25.7396 8.77872 26.302 8.77872C26.6716 8.77872 26.799 8.82944 26.9123 8.87454C27.003 8.91062 27.0846 8.9431 27.274 8.9431Z" fill="#806638"/>
<path d="M38.893 30.2632L38.8935 30.2648L38.8928 30.2652L38.893 30.2632Z" fill="#806638"/>
<path d="M38.893 30.2632C38.8831 30.236 38.7423 29.8443 38.6991 29.4872C38.6813 29.3401 38.6893 29.2399 38.6968 29.146C38.7082 29.0034 38.7184 28.8753 38.6355 28.6199C38.5737 28.4261 38.474 28.3983 38.4123 28.3811C38.3919 28.3754 38.3757 28.3709 38.3664 28.3619C38.3289 28.3256 38.3028 27.9358 38.3102 27.7226C38.3176 27.5094 38.3028 27.2329 38.2653 27.1131C38.2094 27.0682 38.1719 27.0308 38.0896 26.7542C38.0844 26.7387 38.0793 26.7236 38.0743 26.7089L38.0653 26.6822C37.988 26.4528 37.9473 26.3318 37.9065 26.2572C37.8884 26.2241 37.8564 26.1922 37.8245 26.1605C37.7773 26.1135 37.7305 26.067 37.7305 26.0178C37.7305 25.9099 37.7948 25.8358 37.8391 25.7849C37.8624 25.7581 37.8801 25.7377 37.8801 25.7221C37.8754 25.6629 37.8287 25.6713 37.7875 25.6787C37.7636 25.683 37.7415 25.6869 37.7305 25.6772C37.7127 25.6558 37.7334 25.5829 37.7545 25.5086C37.7775 25.4278 37.8009 25.3453 37.7756 25.3258C37.768 25.3183 37.7419 25.3397 37.7114 25.3648C37.6667 25.4015 37.6123 25.4461 37.5923 25.4195C37.5718 25.3948 37.5491 25.2505 37.5217 25.0765C37.499 24.9325 37.4731 24.768 37.4427 24.6342C37.4131 24.4998 37.3826 24.3825 37.3577 24.2868C37.3293 24.1778 37.3083 24.097 37.3044 24.0511C37.297 23.969 36.7905 22.5244 36.6659 22.169L36.6651 22.1667C36.5658 21.8698 36.4822 21.5678 36.4147 21.262C36.3979 21.1834 36.3834 21.068 36.3709 20.9679C36.3553 20.8443 36.3427 20.744 36.3324 20.7647C36.3244 20.7805 36.3219 20.8225 36.3193 20.8651C36.3158 20.923 36.3122 20.9821 36.2949 20.9778C36.2796 20.9734 36.2411 20.7514 36.2059 20.5484C36.1811 20.4054 36.1579 20.2719 36.1456 20.2301C36.1372 20.1978 36.1154 20.1407 36.0884 20.0699C36.031 19.9195 35.9499 19.7071 35.9238 19.5386C35.8893 19.3083 35.8173 18.7374 35.7622 18.3012L35.748 18.1887C35.7389 18.1161 35.7305 18.0505 35.7229 17.991C35.684 17.686 35.6657 17.5426 35.6657 17.4494C35.6749 17.1769 35.6599 16.9041 35.6209 16.6343C35.5469 16.1631 35.3991 15.5911 35.2694 15.2586C35.209 15.1071 35.1245 14.8986 35.0292 14.6637C34.7297 13.9251 34.3246 12.9262 34.2343 12.6228C34.2343 12.5217 34.3652 12.5779 34.3652 12.5779C34.3652 12.5779 34.6903 13.393 34.9296 14.0209C35.1615 14.6491 35.382 15.2024 35.4382 15.2586C35.4831 15.3146 35.8345 15.9314 35.9915 16.9409C36.0813 17.5181 36.138 18.0696 36.1876 18.552C36.2248 18.9134 36.258 19.2361 36.2981 19.5018C36.3049 19.5468 36.3116 19.5922 36.3183 19.6379C36.3557 19.893 36.3946 20.1591 36.4738 20.4253C36.5413 20.6532 36.634 20.886 36.7497 21.1766C36.8067 21.32 36.8694 21.4775 36.9374 21.6553C37.1131 22.1078 37.244 22.4854 37.315 22.8107C37.3599 23.0372 37.3803 23.2336 37.3975 23.3987C37.4118 23.5362 37.4238 23.652 37.4459 23.7455C37.4573 23.7901 37.4702 23.846 37.4855 23.9129C37.5308 24.1096 37.5979 24.4016 37.7152 24.7806C37.8725 25.2888 38.1039 25.9434 38.2609 26.3508C38.5677 27.1658 38.7045 27.8463 38.7508 28.2091C38.7917 28.5823 38.9298 29.8722 38.893 30.2632Z" fill="#806638"/>
<path fill-rule="evenodd" clip-rule="evenodd" d="M11.279 19.3678C11.3132 19.2951 11.3531 19.2425 11.3861 19.2067C11.4613 19.2241 11.5347 19.2488 11.6051 19.2807C11.5652 19.281 11.5253 19.2835 11.4856 19.2884C11.5526 19.299 11.635 19.3623 11.635 19.3623C11.635 19.3623 11.6611 19.3064 11.7471 19.3175C11.7742 19.3203 11.7991 19.3337 11.8165 19.3546C11.834 19.3755 11.8426 19.4024 11.8405 19.4296C11.8405 19.4459 11.8107 19.4721 11.7805 19.4986C11.7551 19.5209 11.7294 19.5434 11.721 19.5605C11.7025 19.5979 11.7582 19.6317 11.8144 19.6615C11.8317 19.6707 11.8587 19.6735 11.8876 19.673C11.8876 19.673 11.5624 19.6732 11.4988 19.718C11.4524 19.7507 11.647 19.8095 11.802 19.8562C11.8594 19.8736 11.9114 19.8893 11.9437 19.9014C12.0632 19.9462 12.3213 20.1518 12.3885 20.3164C12.4521 20.4734 14.7252 21.3892 14.7252 21.3892L15.0546 21.3723L14.6412 23.1097L14.2897 24.8294L14.9926 26.53L16.4196 27.0961H17.9816L18.3594 25.2568L19.2076 24.1696L18.9291 25.3374L19.6727 26.8632L18.7643 28.1601L13.931 28.0201L11.2052 27.1227C11.2052 27.1227 11.011 27.1124 10.9548 27.1863C11.1487 27.4113 11.2337 27.6111 11.3466 27.8766C11.4232 28.0567 11.5127 28.267 11.6577 28.5359C11.7603 28.724 11.884 28.9279 11.9989 29.1173C12.069 29.2329 12.1358 29.3431 12.1925 29.4409C12.2909 29.6082 12.3807 29.7803 12.4617 29.9567C12.4617 29.9567 13.2355 30.4474 13.3851 30.5213C13.2631 30.5775 13.1933 30.6276 13.0887 30.7028C13.0747 30.7128 13.0602 30.7233 13.0448 30.7343C13.1997 30.8166 13.3165 30.7942 13.4406 30.7704C13.5532 30.7488 13.6717 30.726 13.83 30.7794C13.9018 30.8037 13.9622 30.9253 14.0422 31.0864C14.2077 31.4198 14.4574 31.9228 15.0674 32.0841C15.4302 32.1775 16.4845 31.6881 16.6677 31.5944C16.7584 31.548 16.8813 31.4319 16.9822 31.3266L17.4898 32.2875L20.4359 33.2109L23.2287 34.3776L23.4653 34.5415L23.2351 34.598L20.2666 35.6412L17.8252 37.8882L15.6907 39.8285C15.6907 39.8285 15.5047 40.3891 14.785 40.6521L15.011 40.3588L14.8915 36.9304L13.71 35.6447L11.8258 34.3774L10.5509 33.1397L9.56016 31.2928L9.30212 30.9788L8.92455 29.906C8.91041 29.8979 8.89535 29.8916 8.8797 29.8872C8.88709 32.0109 8.12062 32.5381 8.12062 32.5381C8.12062 32.5381 8.21033 32.669 8.32246 32.826C8.32545 32.8301 8.32845 32.8343 8.33146 32.8385L8.34085 32.8516C8.44843 33.0014 8.56588 33.165 8.57311 33.4091C8.57894 33.58 8.47429 33.7912 8.36555 34.0107C8.26739 34.2088 8.16589 34.4136 8.13935 34.6017C8.10714 34.8589 8.12467 35.1051 8.14683 35.4161C8.15044 35.4668 8.15417 35.5192 8.15783 35.5737C8.1706 35.7387 8.13641 35.903 8.07547 36.1958C8.04703 36.3324 8.01274 36.4972 7.97472 36.7029C7.9309 36.9465 7.90507 37.2677 7.87348 37.6605C7.8459 38.0034 7.81393 38.4008 7.76178 38.8488C7.75858 38.8776 7.75538 38.9057 7.75218 38.9337C9.17681 40.3199 10.7821 41.5055 12.5237 42.4586L12.524 42.4599C14.6822 43.6407 17.0253 44.4467 19.4533 44.8434L30.2924 43.1818L38.1119 39.0978C38.1224 39.0878 38.1329 39.0776 38.1433 39.0674C38.1511 39.0597 38.159 39.0521 38.1668 39.0445L38.3147 34.2165L38.0379 32.3695L36.3182 32.2574C36.3182 32.2574 34.8754 32.6984 33.4808 33.1563L33.5888 33.069C34.2429 32.3848 35.4993 31.3492 35.7684 31.1547C35.747 31.3065 35.648 31.5852 35.5294 31.9193C35.4814 32.0545 35.4301 32.1987 35.3795 32.3473C35.4542 32.2165 35.7497 31.9397 35.9254 31.7827C36.101 31.6237 36.6963 31.2768 36.9878 31.107L37.0345 31.0798C37.006 31.2038 36.991 31.3305 36.9896 31.4576C36.9896 31.4576 37.22 30.8933 37.4332 30.4856C37.6464 30.078 37.7659 29.4313 37.7659 29.4313L37.7649 29.4305C37.7649 29.4305 37.6267 29.6176 37.4734 29.7221C37.38 29.2883 37.38 28.982 37.5182 28.4733C37.3195 28.985 37.0303 29.0111 36.7465 29.0367L36.733 29.0379C36.5955 28.3799 36.6216 27.0868 36.6591 26.791C36.6233 26.8951 36.5293 27.0255 36.4419 27.1467C36.4102 27.1907 36.3794 27.2335 36.3525 27.2733C36.3338 27.1836 36.2066 27.0897 36.1132 27.034C36.0535 26.9984 36.0365 26.9211 36.0173 26.8339C36.0065 26.7847 35.9949 26.7324 35.9747 26.6826C35.6496 26.877 35.429 26.9145 35.429 26.9145C35.429 26.9145 35.8739 26.6863 36.214 25.7517C36.5223 24.9148 36.4228 24.4294 36.3298 23.976C36.3077 23.8683 36.286 23.7625 36.2702 23.6541C35.8628 24.9665 35.0027 26.0095 35.0027 26.0095C35.0027 26.0095 35.0103 25.9348 34.9842 25.7216C34.9116 25.8668 34.8646 25.9957 34.8108 26.1431C34.7066 26.4287 34.5771 26.7836 34.1877 27.4601C33.7082 28.293 33.2391 28.4002 32.9609 28.3771L33.1071 27.8564C33.8924 26.4795 34.5623 24.3728 34.5391 22.7657C34.5136 21.2129 33.8738 20.3948 33.545 20.0111L33.0876 17.5196L27.2028 17.0748L24.4775 19.6732L20.7686 20.2563L20.34 21.1134C20.3408 21.104 20.3414 21.0964 20.3418 21.091L20.3426 21.0812L20.2231 19.7765L19.5502 19.3688L19.0031 18.8407L18.487 19.8127L18.393 19.9065C18.4311 19.7454 18.453 19.5806 18.4581 19.4146L18.2637 17.9827L17.4151 16.9096L16.4175 17.4628L15.5927 17.595L13.2373 18.9998L13.0127 19.0859L14.0322 18.2116L13.8932 17.9315L14.0225 17.8444L12.8747 16.4313L12.3288 13.7429L12.2167 12.311L11.2634 12.2474L10.3474 13.272L9.4054 14.9804L8.8706 16.6518L8.63129 17.65L8.26161 18.8613L8.3178 18.9547C8.24424 19.261 8.24007 19.3306 8.22886 19.5181C8.22584 19.5686 8.2223 19.6278 8.21675 19.7024C8.27927 19.1847 8.69043 18.6173 9.02247 18.1591C9.08837 18.0681 9.15118 17.9815 9.2075 17.9004C9.37583 17.6574 9.46924 17.4555 9.47688 17.4181C9.488 17.3762 9.48198 17.3256 9.4753 17.2693C9.46407 17.1748 9.45098 17.0647 9.51434 16.9545C9.54775 16.8959 9.62158 16.8711 9.71373 16.84C9.82754 16.8017 9.9693 16.754 10.0974 16.6218C10.2206 16.4956 10.3299 16.3186 10.4356 16.1472C10.5931 15.892 10.743 15.6491 10.9199 15.6049C11.3423 15.4965 11.6863 15.6534 11.7687 16.031C11.8244 16.2996 11.5767 16.4928 11.3649 16.6579C11.2639 16.7367 11.171 16.8091 11.1232 16.8803C11.0025 17.0602 11.0058 17.1988 11.0151 17.5914C11.0172 17.6798 11.0196 17.781 11.0209 17.8984C11.0283 18.5377 11.205 19.2482 11.279 19.3678ZM16.8871 20.5412L16.5605 20.2551C16.7793 20.2098 16.9675 20.1799 17.0933 20.207C17.1065 20.2103 17.1194 20.2135 17.1321 20.2166C17.4041 20.284 17.5664 20.3242 17.7663 20.6708C17.9418 20.9546 18.0993 21.0491 18.1575 21.0762L18.162 21.0864C18.2007 21.0983 18.241 21.1046 18.2815 21.1051C18.2366 21.1426 18.143 21.2246 18.1805 21.4378C18.1902 21.4931 18.2054 21.5521 18.2209 21.6121C18.2642 21.7803 18.3096 21.956 18.2407 22.0776C18.1283 21.9506 17.9743 21.8893 17.8223 21.8288C17.6746 21.77 17.5288 21.712 17.4249 21.5952C17.2621 21.4151 17.1891 21.2254 17.1254 21.0599C17.0519 20.8691 16.9908 20.7104 16.8188 20.6355L16.8871 20.5412Z" fill="#D8C47C"/>
<path fill-rule="evenodd" clip-rule="evenodd" d="M8.54166 18.6004L7.87623 20.6154L7.40526 22.9521L7.43138 24.8589L7.54822 25.3691C7.53602 25.4266 7.5283 25.4634 7.5283 25.4634L7.59189 26.2861L7.89848 27.4151L8.19422 28.1544L8.48208 29.0592L8.73223 29.6669L8.93408 30.1305L9.1098 31.1737L9.95835 32.0708L10.4108 32.2729L10.6712 32.1396L13.2827 34.5186L18.5243 35.8495L21.6311 34.9341L25.5231 33.289L26.4987 32.2428C26.4812 32.2507 25.8891 32.5146 24.8756 32.5039C24.9346 32.4569 25.0118 32.3597 25.0984 32.2506C25.2392 32.0734 25.4049 31.8649 25.5575 31.7899C25.6256 31.7553 25.6894 31.728 25.7506 31.7018C25.9207 31.629 26.071 31.5646 26.2416 31.3749C26.281 31.3291 26.3155 31.2864 26.3481 31.246C26.5079 31.0483 26.6236 30.9049 27.0453 30.7282C27.7558 30.4213 27.2671 30.025 27.2671 30.025C27.3454 29.9482 27.4291 29.877 27.5175 29.8121C27.7009 29.6738 27.9138 29.5055 27.8953 29.21C27.8692 28.7129 27.7758 27.9913 27.3682 27.5726C27.5351 27.5379 27.7663 27.5079 28.0133 27.4759C28.3527 27.4318 28.7219 27.384 28.9948 27.3148C29.5404 27.1763 29.7911 26.9818 29.7911 26.9818C29.7911 26.9818 29.4771 26.4472 29.9855 25.909C30.1078 25.7795 30.2247 25.6626 30.336 25.5513C30.6873 25.1998 30.9827 24.9043 31.2156 24.447C31.1745 24.4418 31.1309 24.4346 31.0838 24.4268C30.7275 24.3681 30.1685 24.2761 28.961 24.7349C29.0348 24.7696 29.1061 24.8095 29.1742 24.8544C29.1742 24.8544 28.333 25.0863 28.0264 25.3444C27.8103 25.5272 27.6705 25.6966 27.5424 25.8518C27.3536 26.0806 27.1901 26.2787 26.8449 26.4436C26.5391 26.5897 26.2321 26.6378 25.9395 26.6836C25.6778 26.7246 25.4277 26.7638 25.2001 26.8697C24.8993 27.0096 24.7584 27.1365 24.6523 27.2322C24.5883 27.2898 24.537 27.3361 24.4708 27.367C24.4865 27.3858 24.4878 27.4098 24.4892 27.436C24.4911 27.4725 24.4932 27.5132 24.5344 27.5501C24.5307 27.5554 24.5254 27.5633 24.5188 27.5731C24.4459 27.6818 24.2057 28.0398 23.9624 28.0398C23.9885 28.1409 24.2128 28.2156 24.2128 28.2156C24.2128 28.2156 24.0484 28.3353 23.6297 28.3652C23.6522 28.3886 23.6746 28.4123 23.6974 28.4364C23.8894 28.6394 24.1037 28.8659 24.6017 29.1802C24.5897 29.2052 24.5674 29.2335 24.5427 29.2649C24.4754 29.3506 24.3899 29.4592 24.4447 29.5878C24.527 29.7635 24.7405 30.0028 25.5925 30.1973C25.4773 30.2022 25.357 30.2129 25.2295 30.2243C24.8765 30.2557 24.4688 30.292 23.9659 30.2234C23.8463 30.209 23.7442 30.1957 23.6549 30.184C23.233 30.1288 23.0957 30.1109 22.7471 30.1973C22.7638 30.2139 22.7907 30.2244 22.8233 30.2371C22.8786 30.2586 22.9504 30.2865 23.0163 30.3617C22.9983 30.3629 22.9651 30.3616 22.921 30.3598C22.6904 30.3507 22.1628 30.3298 21.9619 30.5936C21.7183 30.9098 21.6091 31.4246 21.6206 31.7827C21.4794 31.7782 21.2413 31.7998 20.921 31.9323C20.5835 32.0695 20.2572 32.1114 19.9432 32.1517C19.7497 32.1765 19.5609 32.2007 19.377 32.2463C19.0664 32.3233 18.7573 32.0903 18.4778 31.8797C18.3233 31.7632 18.1778 31.6536 18.0462 31.607C17.6765 31.4687 17.1863 31.136 17.1863 31.136L16.1512 31.035L14.0726 30.1564L11.5613 27.6544L11.3747 26.4364L10.6829 24.6346L9.45287 22.9895L9.42631 22.3382L11.1213 19.3218L11.8878 17.086L9.33451 17.2992L8.54166 18.6004ZM10.2028 31.2614L10.3413 31.5473L10.2504 31.4202C10.2504 31.4202 10.2249 31.3568 10.2028 31.2614ZM11.193 27.2875L11.1112 27.2061C11.138 27.2262 11.1654 27.254 11.193 27.2875Z" fill="#E6DB9D"/>
<path fill-rule="evenodd" clip-rule="evenodd" d="M13.2832 14.2566C13.2459 14.283 13.2065 14.3065 13.1657 14.3267C13.09 14.4473 13.0119 14.5941 12.9539 14.7567C12.7967 15.1978 12.7706 15.6801 12.7706 15.6801L12.7632 15.8184C12.7632 15.8184 12.479 16.2522 12.3669 16.383C11.7885 15.7256 11.8695 14.7609 11.8833 14.5969C11.8838 14.5902 11.8843 14.5849 11.8846 14.581C11.6901 14.8323 11.5067 14.9063 11.4508 14.9063C11.4207 14.9063 11.4036 14.8707 11.3872 14.8366C11.3731 14.8072 11.3595 14.7789 11.3387 14.7754C11.3217 14.7754 11.2416 14.807 11.1467 14.8445C11.0955 14.8647 11.0397 14.8867 10.9875 14.9063C10.7806 13.3129 11.4238 12.7659 11.5521 12.6569C11.5607 12.6496 11.567 12.6442 11.5706 12.6406C11.4695 12.5361 11.4695 12.3528 11.4695 12.3528C11.4695 12.3528 11.451 12.3343 11.4136 12.2894C11.8848 12.1618 12.4788 11.9303 13.0325 11.6799C13.2457 11.5863 13.4661 11.4855 13.698 11.366C14.3878 11.0027 14.7643 10.9059 14.778 10.9025L14.8153 11.0277C14.9057 10.9246 15.0109 10.8178 15.1339 10.7077C16.0312 9.90373 16.3824 9.62721 16.3824 9.62721L17.833 8.8982L19.6164 9.60109L18.7304 13.0736L18.0425 14.7002L17.9712 14.6868C17.9275 14.8579 17.8731 14.9826 17.8282 15.0659L17.9007 15.0521V16.0392L17.5229 17.1196C17.5229 17.1196 17.4914 17.1902 17.4491 17.2715L17.5527 17.1232L19.0854 14.719L19.6348 13.9582C19.6373 13.9506 19.6386 13.9466 19.6386 13.9466L20.3489 12.246L22.3716 10.2682L25.5121 10.0553L25.8187 11.6819L27.3517 12.2091L27.9067 13.0554L28.2861 12.7868L31.5768 15.6629L32.0761 17.1138L32.0892 17.1386L32.5042 18.3389C32.3367 18.2595 32.1549 18.215 31.9697 18.208C31.8454 18.2045 31.5862 18.2231 31.3091 18.2431C30.9523 18.2688 30.5658 18.2966 30.3995 18.2819C30.3419 18.2769 30.2812 18.2709 30.2166 18.2646C29.9498 18.2385 29.6164 18.2058 29.1618 18.1999C28.5977 18.1999 28.3468 18.0244 28.3468 18.0244C28.3468 18.0244 28.2085 18.0806 27.9692 18.088C27.8667 18.088 27.769 18.0763 27.6573 18.063C27.5082 18.0452 27.3342 18.0244 27.0906 18.0244C26.8532 18.0244 26.685 18.161 26.5475 18.2728L26.5447 18.275C26.4404 18.3598 26.3678 18.4274 26.3387 18.4554C26.4528 18.4581 26.567 18.4492 26.6793 18.4287C26.6508 18.434 26.6223 18.4431 26.5939 18.4556C26.6234 18.4531 26.6546 18.4501 26.6869 18.4466C26.5592 18.4676 26.4266 18.5697 26.296 18.7204C26.2988 18.7203 26.3017 18.7201 26.3045 18.72C26.2141 18.8226 26.1237 18.9492 26.0324 19.0881C26.0199 19.1083 26.0075 19.1288 25.9951 19.1495L25.9931 19.1485C25.9578 19.2033 25.9223 19.2596 25.8867 19.3169C25.6922 19.6496 25.479 19.8741 25.3595 19.9749C25.1385 20.1758 24.8335 20.2778 24.4793 20.3963C24.4382 20.41 24.3961 20.4241 24.3537 20.4385C24.1721 20.4999 23.9692 20.6068 23.7491 20.7227C23.2987 20.96 22.7765 21.235 22.2189 21.235C22.0424 21.235 21.9013 21.1847 21.7668 21.1368C21.6393 21.0914 21.5178 21.0481 21.3778 21.0517C21.2882 21.0537 21.2002 21.0754 21.12 21.1152L21.1165 21.107C21.0282 21.1453 20.9443 21.1954 20.8673 21.2436C20.6105 21.3993 20.3951 21.6147 20.2394 21.8716C20.2591 21.6399 20.1738 21.2246 20.1654 21.1874C20.1577 21.1532 20.1262 21.1598 20.092 21.1671C20.0891 21.1677 20.0861 21.1683 20.0831 21.1689C20.0646 20.9557 19.9712 20.4397 19.9712 20.4397C19.9698 20.493 19.961 20.5458 19.9451 20.5967C19.9 20.3349 19.7805 19.9948 19.7805 19.9948H19.7879V18.9518L20.3973 18.2677L23.3134 17.1872L24.9429 15.5579L24.5634 14.236L24.0426 14.9435L23.4407 14.8055L23.5802 15.2353L23.0981 16.1889L22.1559 16.686L21.1765 17.2131C21.1765 17.2131 20.9111 17.3507 20.6417 17.2767C20.481 17.2337 20.482 17.0838 20.483 16.9497C20.4836 16.8624 20.4841 16.7819 20.4399 16.7422C20.4178 16.7233 20.3656 16.7362 20.2946 16.7536C20.2725 16.759 20.2486 16.7649 20.2233 16.7704L19.7814 17.4586L19.5796 18.0306L19.3578 18.9541L19.3203 19.3617C19.3203 19.3617 19.1446 19.4103 19.1369 19.3169C19.1241 19.2395 19.0992 19.1647 19.063 19.0951C19.0284 19.2772 18.9783 19.456 18.9134 19.6296C18.8015 19.9362 18.6179 20.0745 18.5058 20.1196C18.4269 20.1534 18.3528 20.1974 18.2854 20.2505C18.2854 20.2505 18.2667 20.0673 18.2928 19.9365C18.3071 19.8369 18.3148 19.7072 18.3176 19.6588C18.3181 19.6502 18.3185 19.6439 18.3187 19.6411C18.3187 19.6392 18.3189 19.6391 18.3187 19.6411C18.3058 19.6635 18.2909 19.6847 18.2741 19.7043C18.1731 19.3985 18.1546 18.807 18.1546 18.807C18.1654 18.8177 18.178 18.8265 18.1918 18.8331C18.1653 18.7943 18.1498 18.7491 18.1469 18.7022C18.1346 18.7249 18.1283 18.7503 18.1285 18.7762C17.9972 18.6565 17.9257 18.51 17.8928 18.4425C17.8795 18.4154 17.8725 18.4011 17.8704 18.4065C17.8634 18.4185 17.8571 18.4309 17.8517 18.4437C17.8261 18.3915 17.8073 18.3363 17.7957 18.2793C17.7863 18.232 17.7911 18.1754 17.7959 18.1202C17.8005 18.0661 17.805 18.0135 17.7957 17.9727C17.7668 18.0033 17.7326 18.0283 17.6947 18.0467C17.6947 18.0467 17.6836 17.9532 17.6762 17.8897C17.6649 17.8263 17.6649 17.815 17.7023 17.7327C17.3583 17.7142 17.276 17.5197 17.276 17.5197L17.2836 17.5085C17.2628 17.4773 17.2455 17.4209 17.231 17.3736C17.2194 17.3357 17.2096 17.3037 17.2013 17.2954C17.1825 17.2766 17.1564 17.3141 17.1564 17.3141C17.1488 17.3328 17.1116 17.3516 17.1116 17.3516C17.1168 17.3632 17.1261 17.3725 17.1377 17.3777C16.6393 17.4524 16.2504 17.7291 16.2504 17.7291C16.2438 17.712 16.2327 17.6971 16.2181 17.6859C16.2036 17.6747 16.1863 17.6676 16.1681 17.6655C16.1016 17.6542 16.0942 17.7663 16.0942 17.7663C16.0942 17.7663 15.9781 17.8004 15.7538 17.9497C15.6588 18.013 15.5746 18.0924 15.478 18.1834C15.3466 18.3072 15.1925 18.4525 14.9575 18.6077C14.8751 18.6656 14.8498 18.7353 14.8201 18.8167C14.7733 18.9456 14.7158 19.1041 14.4042 19.2919C13.9359 19.5811 13.5786 19.5435 13.4229 19.5271C13.4096 19.5257 13.3977 19.5244 13.3874 19.5236C13.2565 19.5125 13.1855 19.3853 13.1929 19.2732C13.0852 19.2732 12.8942 19.3548 12.6898 19.4422C12.4546 19.5427 12.2018 19.6507 12.0378 19.6507C12.1834 19.6135 12.6098 19.318 12.6658 19.2172C12.718 19.1051 12.8676 18.8732 13.0246 18.6901C13.1203 18.5727 13.265 18.4508 13.3685 18.3636C13.4268 18.3145 13.472 18.2764 13.4882 18.2563C13.5256 18.2003 13.4322 18.1629 13.3763 18.1552C13.4697 18.0545 13.8847 17.7777 13.8847 17.7777H13.8837L14.0407 17.445L14.9707 16.4814C14.9776 16.4716 14.9844 16.4618 14.9912 16.4521C15.0166 16.4154 15.0409 16.3803 15.0647 16.3495C15.5357 15.7513 15.4238 15.4822 15.4238 15.4822C15.2118 15.5276 15.0541 15.3701 14.9802 15.2318C14.9462 15.1697 14.9269 15.1005 14.924 15.0297C14.9594 15.0449 14.9989 15.0476 15.0361 15.0374C15.0761 15.0206 15.0745 14.9471 15.0737 14.9103C15.0736 14.9059 15.0736 14.902 15.0736 14.8989C15.0736 14.869 15.0371 14.8616 14.9996 14.8616C15.0148 14.8506 15.0276 14.8366 15.0372 14.8205C15.0469 14.8044 15.0532 14.7866 15.0558 14.768C15.0286 14.7725 15.0011 14.775 14.9735 14.7756C14.9392 14.773 14.9054 14.7667 14.8725 14.7569C14.8449 14.7575 14.8174 14.7599 14.7901 14.7643C14.8003 14.7543 14.8069 14.7412 14.8089 14.7271C14.8089 14.718 14.8018 14.7133 14.7937 14.7079C14.7851 14.7022 14.7752 14.6957 14.7714 14.6822C14.521 14.9139 13.6983 14.8017 13.6983 14.8017H13.6974C13.941 14.7 14.0163 14.6429 14.2092 14.4965C14.2798 14.4429 14.3663 14.3773 14.4826 14.2931C14.5188 14.2663 14.5543 14.2386 14.5888 14.21L13.2832 14.2566ZM16.0493 14.3244C16.0439 14.7513 15.9915 15.193 15.8666 15.6407C15.9558 15.4859 16.137 15.2181 16.4601 14.9139C16.6286 14.7552 16.7759 14.6142 16.9004 14.4849L16.0493 14.3244Z" fill="#CAAE5B"/>
<path d="M17.9094 43.7482C17.8997 43.7571 17.89 43.766 17.8804 43.7749C17.8961 43.8002 17.9115 43.841 17.9115 43.9037C18.0074 43.8487 18.0954 43.8292 18.1733 43.812C18.2382 43.7976 18.296 43.7848 18.3453 43.7543C18.3578 43.7809 18.3702 43.8213 18.3848 43.8685C18.4356 44.0331 18.5122 44.281 18.7041 44.3187C18.9619 44.3749 19.2387 44.2066 19.5192 43.9936C19.5732 43.9505 19.6287 43.9053 19.6849 43.8595C19.9159 43.6712 20.1573 43.4744 20.349 43.3842C20.4364 43.5449 20.5139 43.7109 20.5809 43.8813C20.6654 43.8139 20.7667 43.6909 20.8848 43.5476C21.2055 43.1585 21.6501 42.619 22.2183 42.6325C22.4431 42.1014 22.8185 41.6478 23.2983 41.3277C24.0199 40.838 24.4722 40.8006 25.0368 40.8454C25.2611 40.5541 25.5374 40.3069 25.8518 40.1164C25.8627 40.1208 25.8759 40.1268 25.8911 40.1337C26.0064 40.1864 26.2408 40.2934 26.5249 40.1613C26.6519 40.103 26.785 39.9792 26.9289 39.8454C27.1537 39.6364 27.4047 39.4031 27.6988 39.3576C27.9587 39.3218 28.2229 39.3773 28.4465 39.5146C28.4465 39.5146 29.8513 38.1199 30.8206 37.6563C30.7831 37.5442 30.7085 37.1217 31.8449 36.1869C31.8792 36.2173 31.8819 36.2769 31.8842 36.3268C31.8862 36.3693 31.8878 36.4048 31.9084 36.4087C31.9269 36.4087 32.2042 36.2892 32.5551 36.0198C32.9889 35.6948 33.5084 35.3544 33.8224 35.261C34.4139 35.0853 35.0414 35.4441 35.0414 35.4441C35.0947 35.4067 35.1542 35.3789 35.2171 35.3618L35.2241 35.3606C35.3698 35.3351 35.4762 35.3165 35.5572 35.2879C35.5548 35.3512 35.5647 35.4291 35.5756 35.5153C35.5982 35.6941 35.6254 35.9087 35.5572 36.1029C35.6743 36.1687 35.7982 36.2214 35.9269 36.2599C35.9205 36.2738 35.9134 36.2898 35.9055 36.3076C35.8348 36.4669 35.7018 36.7665 35.4934 36.9179C35.573 36.9562 35.6244 36.9971 35.6764 37.0384C35.7511 37.0978 35.8272 37.1583 35.9905 37.2137C35.8783 37.3707 35.6947 37.64 35.6129 37.8052C35.5775 37.8808 35.5026 38.0587 35.4184 38.259L35.4182 38.2596L35.4177 38.2607L35.4175 38.2612C35.3061 38.5261 35.1786 38.8293 35.1042 38.9864C35.0494 39.0961 34.987 39.2423 34.926 39.385C34.8331 39.6024 34.7435 39.8121 34.6892 39.8737C34.6679 39.8978 34.6335 39.9404 34.59 39.9943C34.4496 40.1681 34.2149 40.4586 34.0238 40.6212C34.2456 40.5388 35.153 40.2623 35.538 40.1576C35.4234 40.3257 34.8425 41.1875 34.284 42.0163C31.6101 43.619 28.6253 44.6334 25.5286 44.9919C22.4318 45.3504 19.2942 45.0448 16.3249 44.0954L16.3257 44.0936C14.9306 43.6463 13.5831 43.0588 12.304 42.3397V42.2961C12.3355 42.2764 12.3633 42.2514 12.3861 42.2221C12.3959 42.2081 12.4046 42.1931 12.4127 42.1792C12.4263 42.1558 12.4381 42.1357 12.4497 42.1287C12.4871 42.11 12.6629 42.0548 12.7563 42.0725C12.787 42.0784 12.8344 42.0933 12.8888 42.1105C12.9997 42.1454 13.1397 42.1896 13.2275 42.1847C13.3212 42.1821 13.4204 42.1554 13.5309 42.1258C13.7376 42.0702 13.9838 42.0041 14.308 42.0651C14.8043 42.1569 15.0486 42.4118 15.2836 42.657C15.4027 42.7812 15.5193 42.9029 15.6652 42.9997C15.9183 43.1727 16.179 43.1317 16.277 43.1163C16.2935 43.1137 16.3054 43.1118 16.3119 43.1118H16.4127C16.4187 43.1118 16.4371 43.0956 16.4617 43.0739C16.5137 43.0279 16.5937 42.9573 16.6446 42.9625C16.7288 42.9666 16.7702 43.0075 16.8071 43.0438C16.8357 43.0721 16.8615 43.0975 16.9024 43.1007C17.0018 43.1125 17.1431 43.0909 17.2879 43.0687C17.4641 43.0417 17.6454 43.0139 17.7625 43.0448C17.8257 43.0646 17.8832 43.0994 17.9301 43.1462C17.9769 43.193 18.0118 43.2505 18.0316 43.3137C18.0765 43.4519 18.039 43.6276 17.9306 43.7287L17.9094 43.7482Z" fill="#CAAE5B"/>
<path d="M14.4013 37.2228C14.4013 37.2228 14.3273 36.946 13.6422 36.232C13.5515 36.1379 13.4771 36.0512 13.4103 35.9732C13.3338 35.8841 13.2672 35.8064 13.1973 35.7423C12.9791 35.5365 12.8215 35.4319 12.6714 35.3322C12.5977 35.2833 12.5259 35.2356 12.4496 35.1777C12.2287 35.0137 11.9993 34.9209 11.7756 34.8304C11.4844 34.7126 11.2027 34.5987 10.9617 34.3366C10.5356 33.873 10.039 32.9872 9.69397 32.082C9.35386 31.1773 9.26021 30.8894 9.26021 30.8633C9.26021 30.8371 9.35386 30.6614 9.47339 30.6875C9.55842 30.7061 9.58296 30.8287 9.60087 30.9182C9.60814 30.9545 9.61431 30.9853 9.62299 31.0015C9.68254 31.0932 9.75009 31.1795 9.82484 31.2593C9.85037 31.2887 9.87749 31.3189 9.90557 31.3502C10.0707 31.534 10.2695 31.7555 10.3781 32.0633C10.352 31.7567 10.2473 31.4166 10.2473 31.4166C10.2473 31.4166 10.9053 31.8316 11.466 32.2651C11.5495 32.3292 11.6257 32.3872 11.6955 32.4402L11.697 32.4414C12.0981 32.7462 12.2868 32.8897 12.4271 33.125C12.471 33.1985 12.5305 33.3039 12.5979 33.4231C12.7841 33.7526 13.0299 34.1874 13.1665 34.344C13.3526 34.5571 15.9022 35.3608 15.9022 35.3608L17.115 36.2651L17.7171 37.5848L17.2458 38.3242L16.3411 38.5186L14.8717 37.8606L14.4013 37.2228Z" fill="#CAAE5B"/>
<path d="M33.2473 18.388C33.3969 18.869 33.459 19.3729 33.4307 19.8758L34.0091 21.2006L34.0477 22.7431L32.3578 28.2799C32.3578 28.2799 33.1989 33.3076 32.9971 33.7046C32.795 34.0898 32.2119 34.8674 32.2119 34.8674L32.2134 34.8662C32.5389 34.73 32.8517 34.565 33.1479 34.3732C33.5257 34.1157 33.8846 33.8939 34.2099 33.82C34.3034 33.7982 34.4208 33.7813 34.5492 33.7628C34.8622 33.7178 35.2412 33.6632 35.5033 33.506C35.7267 33.3787 35.965 33.1359 36.1245 32.9735L36.1249 32.973C36.1762 32.9208 36.2192 32.877 36.251 32.8479C36.3684 32.7465 36.6921 32.6828 36.9178 32.6385C36.9585 32.6305 36.996 32.6231 37.0286 32.6163C37.2418 32.5601 37.6193 32.6313 37.8138 32.9751C38.0082 33.3189 37.9259 33.6967 37.9259 33.6967L38.341 33.9733C38.341 33.9733 38.4866 32.705 38.7185 32.4928C38.9241 32.3047 38.9474 32.1016 38.9762 31.8519C38.9781 31.8354 38.98 31.8186 38.982 31.8016C38.9839 31.7857 38.9858 31.7697 38.9879 31.7534C39.0087 31.5184 38.9727 31.2222 38.9571 31.0938C38.9531 31.0608 38.9504 31.0387 38.9504 31.0318C38.9504 31.0226 38.9529 31.0075 38.9564 30.9865C38.9657 30.9306 38.9819 30.8328 38.9766 30.6915C38.96 30.5512 38.9325 30.4124 38.8942 30.2764L38.7185 28.5005L38.4967 27.5211L38.1191 26.3285L37.9883 25.8198L37.8498 25.3488L37.6854 25.0797L37.3975 23.9618L36.9152 22.3428L36.4815 20.8099L36.1487 19.3669C36.1487 19.3669 35.998 18.396 35.8572 17.6964L35.7631 17.011L35.5874 15.8931L35.023 14.4311L34.3761 12.8124L33.95 13.1264C33.95 13.1264 33.2572 13.153 33.0339 13.9676C32.8128 14.7743 32.4108 15.0097 32.2977 15.076L32.2945 15.0778C32.1861 15.1414 32.1112 15.1863 32.2122 15.7509C32.4624 16.2606 33.0009 17.6215 33.2473 18.388Z" fill="#CAAE5B"/>
<path fill-rule="evenodd" clip-rule="evenodd" d="M11.2129 18.5553C11.2129 18.5553 10.8989 18.649 10.7493 18.8134C10.5997 18.9704 10.5361 19.1012 10.3342 19.3667C10.1324 19.6321 10.1211 19.849 9.95643 20.1817C9.79204 20.507 9.42926 20.9967 9.38441 21.1724C9.33955 21.3482 9.26487 22.1706 9.17147 22.5595C9.08915 22.9484 9.26487 23.427 9.26487 23.427L9.47781 23.3819C9.47781 23.3819 9.47781 23.6587 9.69099 23.8457C9.90393 24.0288 9.94139 23.2249 9.94139 23.2249L10.7377 20.5368L11.9377 19.7218L12.0685 19.0638L11.2129 18.5553Z" fill="#E6DB9D"/>
<path fill-rule="evenodd" clip-rule="evenodd" d="M11.7951 19.7742C11.7951 19.7742 11.2305 19.8114 10.954 20.0135C10.8419 20.0956 10.797 20.1629 10.6775 20.2639C10.4569 20.447 10.2324 20.6154 10.1242 20.8554C10.0044 21.0945 9.87354 21.4572 9.78383 22.1414C9.74637 22.4293 9.74637 22.6947 9.72025 22.9266C9.68279 23.2406 9.62684 23.491 9.65666 23.666C9.69412 24.0248 10.0643 24.2119 10.1003 24.6193L10.8668 24.2306L11.5884 21.3853L13.1213 20.4241L12.2538 19.4521L11.7942 19.7725L11.7951 19.7742Z" fill="#E6DB9D"/>
<path fill-rule="evenodd" clip-rule="evenodd" d="M15.4187 20.3948C15.4419 20.4324 15.4747 20.4633 15.5136 20.4843C15.5525 20.5053 15.5963 20.5156 15.6405 20.5144C15.9732 20.5144 16.2796 20.5967 16.4067 20.7648C16.6199 21.0341 17.2107 21.894 17.2107 21.894L18.6238 22.4024L18.715 20.7384L17.171 19.6656L15.4138 20.3123V20.3946H15.4177L15.4187 20.3948Z" fill="#D8C47C"/>
<path fill-rule="evenodd" clip-rule="evenodd" d="M11.1371 32.6765C11.1371 32.6765 11.4436 33.1662 12.1914 33.6298C12.8645 34.0375 13.9299 34.4076 14.8797 34.6282C15.4254 34.7591 15.9713 34.8599 16.461 34.8675C17.7807 34.886 18.6892 34.5087 19.8147 34.3852C20.4242 34.3216 21.1719 34.2731 21.9495 34.0895C22.9477 33.8502 23.5384 33.5808 24.3423 33.2022C24.9254 32.9331 25.4603 32.7313 25.8938 32.4732C26.5033 32.1144 26.9481 31.7144 27.4642 31.5949C27.4006 31.7706 27.3333 32.0846 26.8249 32.4099C27.094 32.4022 27.4642 32.3838 27.4642 32.3838C27.4642 32.3838 27.1053 32.5967 26.4734 33.0753C26.0845 33.3711 25.5687 33.8716 25.0415 34.2043C24.7012 34.4175 24.331 34.574 24.088 34.7017C23.4965 35.027 23.2579 35.1914 22.8693 35.5889C23.0075 35.5815 23.0189 35.5889 23.0189 35.5889C23.0189 35.5889 22.5289 35.6525 22.1777 35.8393C22.1038 35.8393 21.9756 35.8132 21.7514 35.8768C21.5756 35.9327 21.3437 36.0601 21.1047 36.1272C20.7643 36.2282 20.6524 36.1833 20.6524 36.1833L20.7084 36.2955C20.7084 36.2955 20.2647 36.2878 20.1169 36.3029C20.143 36.3103 20.1356 36.3216 20.1356 36.3216C20.1096 36.326 20.0846 36.3348 20.0617 36.3477C19.9905 36.3938 19.9122 36.4279 19.83 36.4485C19.7851 36.4559 19.7477 36.4559 19.6915 36.4673C19.7102 36.5121 19.8561 36.763 19.9234 36.9109C19.8675 36.9483 19.0261 37.584 19.0261 37.584C19.0522 37.625 19.0735 37.6689 19.0896 37.7148C19.1158 37.7969 19.1271 37.9167 19.1532 37.9726C19.2166 38.0847 19.254 38.1035 19.254 38.1035C19.254 38.1035 19.1532 38.1222 18.9773 38.1671C18.8279 38.2045 18.6446 38.2679 18.3858 38.3053C18.3064 38.3157 18.2265 38.3219 18.1465 38.3241C18.1839 38.4064 18.3483 38.7204 18.0454 39.0829C17.7425 39.4454 17.6491 39.4982 17.5557 39.7298C17.5087 39.6943 17.4586 39.6629 17.4061 39.6362C17.3053 39.5913 17.1668 39.5243 17.1183 39.4343C17.09 39.5542 17.0525 39.6717 17.0061 39.7858C16.9127 40.0362 16.7745 40.2831 16.7483 40.4699C16.6473 40.3578 16.4605 40.1372 16.2024 40.1821C15.9444 40.2269 15.7389 40.5784 15.694 40.6794C15.694 40.6158 15.6491 40.5673 15.6381 40.642C15.6304 40.7243 15.4885 41.5839 14.6959 42.2794C14.6885 42.1037 14.6885 41.7148 14.6697 41.5879C14.5958 41.6618 14.5053 41.771 13.9668 42.0029C13.4397 42.2346 13.5232 42.4665 13.5232 42.4665C13.5232 42.4665 13.4784 42.0968 13.7625 41.7074C14.0504 41.3187 14.2261 41.1354 14.2261 41.1055C14.2215 41.0752 14.2085 41.0467 14.1887 41.0232C14.1512 40.9858 14.0765 40.9409 14.0765 40.9111C14.1214 40.8926 14.5662 40.6794 14.5401 40.238C14.514 39.842 14.3459 39.6362 14.2261 39.4905C14.2076 39.4718 14.4021 39.3335 14.3757 39.2887C14.357 39.2626 14.1179 39.0866 14.0879 38.9929C14.0949 38.937 14.1075 38.882 14.1253 38.8285C14.1514 38.7462 14.1702 38.69 14.1628 38.6341C14.144 38.5407 14.043 38.2826 14.0132 38.2565C14.0393 38.2639 14.2261 38.2565 14.2261 38.2565C14.2261 38.2565 14.0768 38.0172 14.0504 37.9051C14.024 37.7929 13.9681 37.4974 13.9383 37.4415C14.0018 37.4489 14.1588 37.46 14.1588 37.4415C14.1665 37.3853 14.0206 37.2919 14.0849 37.2197C14.1297 37.2271 14.2158 37.2645 14.2978 37.3693C14.253 37.2495 14.1783 37.0178 14.0211 36.9244C14.095 36.8983 14.3464 36.8308 14.567 36.9617C14.7875 37.0925 14.8627 37.2756 14.8627 37.2756C14.8627 37.2756 14.9936 37.3767 15.1957 37.5263C15.4273 37.7094 15.7226 37.9699 16.1938 38.1542C16.2949 38.2104 16.5526 38.2104 16.7397 38.173C16.8212 38.1536 16.8992 38.1221 16.9714 38.0796C16.9974 38.0642 17.025 38.0517 17.0537 38.0421C17.0135 37.9614 16.9673 37.8839 16.9154 37.8102C16.979 37.8102 17.0537 37.8178 17.0537 37.8178C17.0537 37.8178 17.0985 37.7168 16.8967 37.5221C16.9416 37.4772 16.9977 37.4482 16.9977 37.3725C16.9342 37.3651 16.822 37.2717 16.7959 37.2342C16.8331 37.2081 16.8893 37.1221 16.9529 37.096C16.8967 37.0511 16.7584 36.8641 16.6948 36.8456C16.7556 36.823 16.8144 36.7955 16.8706 36.7633C16.8706 36.7633 16.5566 36.6809 16.4555 36.6137C16.3545 36.5397 16.2051 36.4118 16.1154 36.3744C16.0218 36.3369 15.8574 36.3184 15.7901 36.2435C15.8535 36.2622 15.9545 36.2435 16.0294 36.2435C16.0854 36.2435 16.1117 36.2509 16.1302 36.2509C16.1228 36.2248 16.1228 36.1686 16.2687 36.1501C16.3389 36.1395 16.407 36.118 16.4706 36.0865C16.4706 36.0865 16.3321 36.0791 16.1748 35.9295C16.0176 35.7799 15.887 35.6604 15.7973 35.6416C15.7039 35.6229 15.5281 35.7052 15.4197 35.6976C15.2701 35.6791 15.2065 35.6042 15.2065 35.6042C15.2065 35.6042 14.7094 35.649 13.6065 34.9762C12.653 34.3929 12.238 33.877 12.238 33.877C12.1487 33.8446 12.0625 33.8046 11.9802 33.7572C11.6213 33.5704 11.124 33.1815 11.139 32.6728L11.1371 32.6765Z" fill="#B79947"/>
<path fill-rule="evenodd" clip-rule="evenodd" d="M24.8923 10.2368C24.9788 10.2649 25.0557 10.3167 25.1141 10.3864C25.2898 10.5882 25.402 10.9695 25.002 11.3771C25.159 11.4331 25.2238 11.451 25.3608 11.4331C25.2226 11.5977 24.9086 11.9491 24.8898 12.2557C24.8711 12.5061 25.0281 12.581 25.0281 12.581C25.0281 12.581 24.7888 12.8576 24.7777 13.3204C24.8907 13.193 25.0144 13.0754 25.1474 12.969C25.4242 12.7484 25.8054 12.498 26.0635 12.341C26.06 12.4068 26.0688 12.4727 26.0896 12.5352C26.0896 12.5352 26.5717 12.1389 26.9768 12.3149C27.1599 12.3972 27.0776 12.655 27.0776 12.655C27.0776 12.655 27.3283 12.5616 27.504 12.7373C27.6797 12.913 27.9281 13.3662 28.0556 13.542C28.1115 13.6243 28.2574 13.7813 28.4068 14.0243C28.6108 14.3645 28.7812 14.7238 28.9154 15.0971C28.9228 14.9026 28.9714 14.6 29.5249 14.7905C30.0782 14.985 30.7062 15.3926 31.2333 16.1953C31.7605 16.998 31.8911 17.9042 32.1566 18.2493C32.4257 18.582 32.7025 19.1353 32.7212 19.3672C32.7399 19.5991 32.6389 20.3466 33.1922 22.3692C33.3492 21.7413 33.5885 20.3466 33.5885 20.3466L33.7193 19.1165L33.8689 15.3105L29.8946 12.0088L26.7878 9.75421L24.7651 9.94866L24.8923 10.2368Z" fill="#B79947"/>
<path fill-rule="evenodd" clip-rule="evenodd" d="M32.2765 15.9008C32.2765 15.9008 32.2203 15.5311 31.2857 14.9027C30.3509 14.2821 29.6219 14.2821 28.9491 13.7549C28.433 13.3399 27.8947 12.3863 27.5443 12.0724C27.2039 11.7621 27.148 10.8647 27.148 10.8647L28.2957 9.90357L30.0027 7.43631L31.4457 5.84742L32.1372 6.80859L33.0984 7.9376L33.6329 10.2033L33.8274 13.5195L32.2747 15.901L32.2765 15.9008Z" fill="#B79947"/>
<path fill-rule="evenodd" clip-rule="evenodd" d="M32.2117 43.0363C32.2117 43.0363 32.2363 43.0523 32.2839 43.0784C34.9401 41.834 37.32 40.07 39.2832 37.8905C39.2618 37.1339 39.2339 36.3583 39.2034 36.071C39.14 35.4615 39.1849 34.8409 39.1661 34.4821C39.1474 34.1232 38.9456 32.6613 38.8522 32.2837C38.7511 31.9061 38.5564 31.7191 38.5268 31.7191C38.5007 31.7267 38.3435 32.4296 38.3435 32.6063C38.3435 32.783 38.306 33.2084 38.306 33.3168C38.2799 33.3092 38.2688 33.2429 38.2688 33.2158C38.2313 33.3092 38.1865 33.4738 38.1678 33.4926C38.149 33.5113 38.1939 33.3356 38.1678 33.2981C38.1416 33.2606 38.0938 33.2794 38.1042 33.186C38.1086 33.1306 38.1173 33.0756 38.1303 33.0216C38.1303 33.0216 38.0182 33.186 37.9361 33.6047C37.8538 34.0197 37.8538 34.0311 37.824 34.0683C37.7978 34.1134 37.6482 34.2627 37.6406 34.3189C37.6332 34.4197 37.7791 34.5208 37.7902 34.5767C37.7976 34.6704 37.6593 35.1039 37.6145 35.3161C37.5696 35.5283 37.5883 35.944 37.5405 36.1572C37.5031 36.3517 37.4666 36.4638 37.3387 36.5459C37.4321 36.5646 37.5218 36.5907 37.5218 36.5907C37.5218 36.5907 37.6527 37.144 37.32 37.6153C37.2004 37.7796 37.1706 37.8546 37.0434 38.0042C36.7928 38.2807 36.5983 38.5956 36.5796 38.8005C36.5667 38.74 36.5579 38.6787 36.5535 38.6171C36.5535 38.6171 36.1648 39.0696 36.0002 39.3276C35.7873 39.6603 35.4918 39.6416 35.4087 39.7239C35.3256 39.8062 35.3077 39.9556 35.3348 40.0754C35.2608 40.0938 35.1218 40.1202 35.0282 40.4081C34.9833 40.5574 34.8712 40.7038 34.6955 40.8044C34.5197 40.9049 34.3066 40.9352 34.1981 40.9614C34.2915 40.9875 34.329 40.9875 34.3738 41.0173C34.3179 41.1107 34.0599 41.2566 33.772 41.4437C33.4841 41.6194 33.3456 41.8772 33.2747 42.0455C33.2007 42.2025 33.0915 42.3036 32.9158 42.3223C32.9897 42.3671 33.0992 42.4716 33.1551 42.5054C33.0728 42.5241 32.9333 42.5241 32.6841 42.7373C32.4224 42.9542 32.3327 43.0178 32.2129 43.0365L32.2117 43.0363Z" fill="#B79947"/>
<path fill-rule="evenodd" clip-rule="evenodd" d="M27.0106 44.769C27.1537 44.6687 27.3088 44.5865 27.4722 44.5243C28.0553 44.2926 28.6722 44.2478 28.9152 44.1731C29.1471 44.0992 29.3302 43.9972 29.618 43.9412C29.6104 44.0068 29.604 44.0684 29.5971 44.1265C28.7484 44.3933 27.8842 44.6079 27.0093 44.769H27.0106Z" fill="#E6DB9D"/>
<path fill-rule="evenodd" clip-rule="evenodd" d="M28.8172 14.0427L27.4974 12.1398L26.574 11.4293C26.574 11.4293 25.9159 10.2182 25.8711 10.1807C25.8336 10.1546 25.2131 10.0873 24.8168 10.0612L24.8907 10.2443C24.9772 10.2724 25.054 10.3242 25.1125 10.3939C25.2882 10.5957 25.4004 10.977 25.0004 11.3846C25.1574 11.4406 25.2222 11.4586 25.3592 11.4406C25.2209 11.6052 24.907 11.9567 24.8882 12.2633C24.8695 12.5137 25.0265 12.5883 25.0265 12.5883C25.0265 12.5883 24.7872 12.8651 24.7761 13.3277C24.8891 13.2003 25.0128 13.0827 25.1458 12.9763C25.4225 12.7544 25.8038 12.505 26.0618 12.348C26.0583 12.4139 26.0672 12.4799 26.088 12.5425C26.088 12.5425 26.57 12.1462 26.9752 12.3219C27.1583 12.4042 27.076 12.6623 27.076 12.6623C27.076 12.6623 27.3266 12.5689 27.5024 12.7446C27.6781 12.9203 27.9285 13.3726 28.0557 13.5485C28.1116 13.6308 28.2575 13.7878 28.4069 14.0306C28.6109 14.3709 28.7813 14.7303 28.9155 15.1037C28.9229 14.9541 28.953 14.7448 29.2113 14.7448L28.8187 14.0419L28.8172 14.0427Z" fill="#B79947"/>
<path fill-rule="evenodd" clip-rule="evenodd" d="M9.03169 19.4491C9.03169 19.4491 8.93828 19.2172 9.03169 18.7649C9.1251 18.3127 9.271 18.0995 9.31955 17.4341C9.3681 16.7687 9.80186 15.9386 9.80186 15.9386L11.0018 15.3929L11.8506 15.6246L12.101 16.7613L11.028 17.3528C11.028 17.3528 10.972 17.6032 10.6691 17.805C10.3662 18.0068 9.94752 18.1638 9.84672 18.3696C9.78646 18.4956 9.74248 18.6288 9.71585 18.7659C9.71585 18.7659 9.40926 18.7023 9.22614 18.9042C9.03169 19.11 9.03908 19.2931 9.03169 19.4501V19.4491Z" fill="#E6DB9D"/>
<path fill-rule="evenodd" clip-rule="evenodd" d="M20.27 12.9362C20.39 12.9071 20.505 12.8604 20.6114 12.7977C20.5665 12.9175 20.5665 13.0483 20.3721 13.3325C20.1776 13.6167 20.1702 13.6578 20.0132 13.9531C19.8562 14.2597 19.8375 14.7008 19.6879 14.895C19.755 14.8624 19.8269 14.841 19.9009 14.8317C19.9009 14.8317 19.7515 14.9625 19.6879 15.1008C19.6243 15.2391 19.5122 15.5269 19.2357 15.7029C18.9591 15.8789 18.6075 15.9908 18.2299 16.4058C17.8521 16.8132 17.4634 17.3292 17.2687 17.5148C17.3698 17.3391 17.508 16.9877 17.5455 16.756C17.5829 16.5243 17.5378 16.2473 17.6014 15.941C17.665 15.6346 17.665 15.4138 17.9711 14.879C18.2772 14.3442 18.8012 12.4862 18.8012 12.4862L19.9302 12.1273L20.2705 12.935L20.27 12.9362Z" fill="#B79947"/>
<path fill-rule="evenodd" clip-rule="evenodd" d="M19.4561 12.252C19.4561 12.252 19.116 12.7417 19.0226 13.1755C18.9292 13.6092 19.015 13.5718 18.959 13.785C18.9255 13.9149 18.9255 14.0513 18.959 14.1813C19.0768 13.9915 19.2381 13.8325 19.4295 13.7174C19.7511 13.5232 20.0129 13.3847 20.1689 13.2203C20.3258 13.0446 20.4567 12.7568 20.7968 12.5362C20.6586 12.5174 20.4641 12.4539 20.4271 12.4622C20.5656 12.3053 20.9804 12.0659 21.3992 11.7781C21.8142 11.4823 21.7881 11.3631 22.4611 11.0678C22.2406 11.1053 22.1358 11.0491 21.9524 11.0678C22.0264 10.9108 22.2852 10.8359 22.5439 10.5781C22.8027 10.3203 22.3796 9.93879 22.3796 9.93879L20.4079 11.1314L19.4546 12.253L19.4561 12.252Z" fill="#B79947"/>
<path fill-rule="evenodd" clip-rule="evenodd" d="M14.1062 11.3622L14.151 11.0033L14.7157 10.0986L15.3064 8.5097V6.33745L15.2616 5.08127L15.355 4.25861L15.4259 3.99712L15.5009 3.89607L15.9829 4.14647L16.6486 5.0512L16.7122 6.79733L16.0653 9.5527L14.2183 11.568L14.1062 11.3622Z" fill="#CAAE5B"/>
<path fill-rule="evenodd" clip-rule="evenodd" d="M15.5754 9.66465C15.5754 9.66465 16.019 8.57285 16.2221 7.60453C16.2596 7.41008 16.3342 7.21587 16.353 7.05888C16.4464 6.14281 16.4725 5.76524 16.353 5.2642C16.2596 4.89452 15.9007 4.56131 15.7137 4.30303C15.5305 4.03365 15.4445 3.93335 15.482 3.87666C15.5195 3.81998 15.6651 3.72731 15.8071 3.7384C15.958 3.74279 16.1064 3.77783 16.2433 3.84138C16.3803 3.90493 16.5028 3.99567 16.6036 4.10808C16.8915 4.4408 17.1194 5.57005 17.1194 5.57005L17.3592 7.06012L17.9687 8.93687L15.5759 9.66613L15.5754 9.66465Z" fill="#B79947"/>
<path fill-rule="evenodd" clip-rule="evenodd" d="M19.7436 8.52829C19.7436 8.52829 19.6612 8.5655 19.5119 8.52829C19.5183 8.58932 19.5077 8.65093 19.4813 8.70633C19.4549 8.76173 19.4137 8.80877 19.3623 8.84227C19.2053 8.77869 17.7357 8.90586 17.7357 8.90586C17.7357 8.90586 17.0515 8.78608 16.8384 7.88135C16.689 7.27926 16.9505 6.44944 16.8645 5.90355C16.7336 5.09961 16.5505 4.94237 16.5318 4.69222C16.513 4.44207 16.4943 4.37824 16.4943 4.22125C16.412 4.20252 16.3634 4.17639 16.2814 4.17639C16.2626 4.10246 16.2999 4.03789 16.2178 3.90702C16.2626 3.92575 16.5692 3.96321 16.9281 4.30332C17.2238 4.58009 17.2238 4.68089 17.2684 4.73708C17.3244 4.79302 17.7769 5.1807 17.9713 5.56714C18.1658 5.95358 18.5433 7.18585 18.6293 7.3877C18.6555 7.47001 18.7117 7.55233 18.8511 7.73914C19.068 8.00852 19.3857 8.45386 19.7445 8.5278L19.7436 8.52829Z" fill="#987938"/>
<path fill-rule="evenodd" clip-rule="evenodd" d="M17.321 4.75588C17.5475 5.12175 17.751 5.50137 17.9303 5.89253C18.1508 6.38963 18.2817 6.79727 18.5585 7.12998C18.4089 6.69647 18.1434 5.84398 17.9864 5.54109C17.8107 5.2207 17.4519 4.87542 17.321 4.75588Z" fill="#A88F33"/>
<path fill-rule="evenodd" clip-rule="evenodd" d="M14.3288 13.3137L14.6691 12.8875V12.5846C14.6691 12.5846 15.0467 12.4836 15.4541 12.0686C15.8615 11.6535 16.4261 10.8572 16.9235 10.9058C17.4208 10.962 17.4693 11.9862 17.4881 12.2744C17.5068 12.5625 17.5704 13.2163 17.6712 13.568C17.7833 13.9194 16.4599 15.2503 16.4599 15.2503L15.5611 15.9345L14.3288 13.3137Z" fill="#D8C47C"/>
<path fill-rule="evenodd" clip-rule="evenodd" d="M27.8115 9.58976C27.3698 9.42878 26.9056 9.33797 26.4358 9.32063C25.6506 9.29451 24.5029 9.33936 23.3776 9.34676C22.1663 9.35415 21.0671 8.93173 19.5418 8.85705C19.2914 8.70745 18.6545 8.05312 16.6666 9.44016C16.7861 9.43277 18.1099 9.13357 18.5695 9.70954C19.0331 10.2816 18.9022 11.2536 18.8389 11.4852C18.7191 12.0013 18.3302 12.7528 18.1734 13.2799C18.0167 13.8071 18.0537 14.0841 17.9415 14.4538C17.8294 14.8235 17.5827 15.0071 17.7283 15.4332C17.9228 15.3137 18.0241 15.3137 18.3489 14.5847C18.6737 13.8556 18.607 13.3359 19.1455 12.719C19.6726 12.0984 20.5503 11.2496 20.884 11.0364C21.2177 10.8233 23.8673 9.44756 26.6416 10.7599C27.3108 10.6889 27.8115 9.58976 27.8115 9.58976Z" fill="#B79947"/>
<path fill-rule="evenodd" clip-rule="evenodd" d="M17.7845 9.08109C17.7818 9.053 17.7756 9.02535 17.766 8.99878C17.7401 8.9441 17.706 8.89367 17.665 8.84918C17.665 8.84918 17.007 8.72965 16.6742 8.76687C16.0909 8.83045 15.5637 9.55207 15.317 9.92225C15.0703 10.2924 14.7637 10.8642 14.431 11.1597C14.4347 11.1309 14.428 11.1018 14.4123 11.0774C14.4123 11.0774 14.431 11.1035 14.3938 11.141C14.3566 11.1784 14.3563 11.1969 14.3751 11.2149L14.4313 11.2708C14.4497 11.2708 14.9658 11.0389 15.6687 10.3836C16.4164 9.69945 16.9885 9.3485 17.2877 9.22823C17.4472 9.16042 17.6138 9.11106 17.7845 9.08109Z" fill="#B79947"/>
<path fill-rule="evenodd" clip-rule="evenodd" d="M30.5486 6.26995C30.5486 6.26995 30.4288 6.4193 30.2792 6.58393C29.9465 6.93538 29.5127 7.33143 29.1426 7.73906C28.7914 8.12797 28.3951 8.43086 27.95 8.9393C27.5049 9.44773 26.9888 10.0121 26.8582 10.1767C26.7386 10.3414 26.6452 10.6105 26.6452 10.7488C26.5816 10.7039 26.507 10.6554 26.507 10.6554C26.5384 10.7141 26.576 10.7692 26.6191 10.82C26.7125 10.9509 26.8582 11.1157 26.9331 11.2163C27.025 11.3443 27.091 11.4891 27.1273 11.6424C27.1721 11.6498 27.46 11.706 27.8191 11.1152C28.1782 10.5245 28.6489 9.8778 28.6489 9.8778L29.3966 8.76727L29.8679 7.82532L30.4594 6.77099L30.5493 6.26995H30.5486Z" fill="#987938"/>
<path fill-rule="evenodd" clip-rule="evenodd" d="M31.3149 5.51505C31.3149 5.51505 30.8624 5.88473 30.6867 6.10654C30.511 6.32835 30.0952 6.91047 30.0952 6.91047L30.2448 6.89174L31.0039 6.21892L31.2997 5.69175L31.3147 5.51603L31.3149 5.51505Z" fill="#A88F33"/>
<path fill-rule="evenodd" clip-rule="evenodd" d="M31.1773 35.2263C31.1773 35.2263 31.1699 34.9197 31.342 34.7366C31.5177 34.5532 31.9625 34.2841 32.3963 33.2746C32.8301 32.2651 32.8784 32.0371 32.8784 32.0371C32.8784 32.0371 32.1008 32.7026 31.6214 32.8596C31.7336 32.6276 31.7972 32.4633 31.8534 32.3435C31.7898 32.2875 31.5206 32.224 31.4945 32.1941C31.6439 32.0445 31.7262 31.6781 32.0291 31.4351C32.418 31.1393 33.1283 30.6311 33.6803 30.1781C34.2324 29.7251 35.3178 28.6716 35.4563 28.365C35.5386 28.4845 35.5571 28.5592 35.5571 28.5592C35.5571 28.5592 35.0114 29.2697 34.7273 29.7219C34.4766 30.1108 34.4953 30.3314 34.4953 30.3314L35.0114 30.1096C35.0114 30.1096 35.1608 30.6629 34.4843 31.5043C34.78 31.3922 34.8993 31.4594 35.0674 31.3658C34.7906 31.5418 34.4093 31.7811 34.0505 32.4389C33.6991 33.0969 33.2204 33.8634 32.4131 34.3417C31.6278 34.8465 31.1754 35.224 31.1754 35.224L31.1773 35.2263Z" fill="#A67A2E"/>
<path fill-rule="evenodd" clip-rule="evenodd" d="M29.1508 9.97892C29.1508 9.97892 28.8442 10.618 28.7994 11.1153C28.792 11.2351 28.7619 11.3285 28.7619 11.4668C28.7545 11.9116 28.788 12.409 28.688 12.6406C28.6505 12.5472 28.6318 12.4836 28.5943 12.4464C28.5384 12.6034 28.4373 13.0931 28.355 13.2762C28.3178 13.1567 28.2355 12.7417 28.2431 12.252C28.2508 11.7623 28.2616 11.6686 28.2616 11.5678C28.2431 11.7172 28.1421 11.9193 28.1046 12.0388C28.0487 11.938 27.9851 11.8071 27.9102 11.6987C27.8653 11.7726 27.8094 11.8818 27.7608 11.938C27.7532 11.8931 27.7347 11.7734 27.7234 11.6053C27.716 11.4108 27.7046 11.1604 27.716 11.1079C27.7344 11.0071 27.8917 10.6108 28.2244 10.2481C28.6207 9.81429 29.0283 8.98078 29.1479 8.72274C29.2674 8.4647 29.7758 7.39189 29.7758 7.39189H30.1647L29.6001 8.67789C29.6001 8.67789 29.26 9.38078 29.0843 9.63906C28.9086 9.89735 28.5384 10.6374 28.3738 10.9253C28.4933 10.7683 28.5943 10.686 28.7141 10.5364C28.8299 10.4317 29.1513 9.97942 29.1513 9.97942L29.1508 9.97892Z" fill="#806638"/>
<path fill-rule="evenodd" clip-rule="evenodd" d="M31.3222 5.46624C31.2586 5.66176 31.1582 5.8433 31.0264 6.00104C30.7945 6.27781 30.2972 6.64774 30.0544 6.94299C29.8326 7.23085 29.389 8.01606 29.5906 8.94692C29.6645 8.74507 29.8038 8.34508 30.1739 7.89258C30.5441 7.44009 30.9404 6.92057 31.1351 6.51688C31.3293 6.10924 31.3554 5.78786 31.3554 5.78786L31.4294 5.69446L31.3845 5.48127L31.3209 5.46624H31.3222Z" fill="#B79947"/>
<path fill-rule="evenodd" clip-rule="evenodd" d="M31.3423 5.4211L31.3236 5.46596C31.3236 5.46596 31.3796 5.48469 31.3685 5.55961C31.3693 5.66211 31.363 5.76455 31.3497 5.8662C31.3312 5.99707 31.2938 6.09787 31.2864 6.18018C31.2864 6.35591 31.3125 6.55775 31.0646 7.05879C30.9906 7.19706 30.945 7.31659 30.9076 7.3989C30.8142 7.60075 30.7955 7.63082 30.7131 7.72422C30.844 7.65029 31.3152 7.35454 31.5543 7.3989C31.3899 7.49231 31.1393 7.67567 30.9823 7.91498C31.0197 7.92237 31.1767 7.95244 31.4259 7.91498C31.8409 7.85139 32.3045 7.70179 32.7119 7.73161C33.157 7.75774 32.9813 7.19705 32.9813 7.19705L32.4676 6.06805L31.4956 5.38413L31.3423 5.4211Z" fill="#B79947"/>
<path fill-rule="evenodd" clip-rule="evenodd" d="M33.8767 13.8783C33.8767 13.8783 33.443 13.4445 33.2673 11.9559C33.0915 10.4604 33.129 8.2591 33.129 8.2591L32.7775 7.39922C32.7775 7.39922 32.7036 6.8272 32.5195 6.61427C32.3354 6.40133 31.9739 6.04225 31.8092 5.86652C31.6446 5.6908 31.4578 5.45149 31.3456 5.41403C31.4016 5.32063 31.6522 4.79346 32.6129 4.78607C33.5736 4.77867 33.8698 5.31323 33.9701 5.50768C34.0704 5.70214 34.5234 6.54279 34.6915 8.14475C34.8485 9.74473 34.8561 9.86451 34.83 10.4178C34.8113 10.7244 34.7102 11.4347 34.5343 12.1935C34.3736 12.8368 34.1979 13.5547 33.8762 13.8797L33.8767 13.8783Z" fill="#987938"/>
<path fill-rule="evenodd" clip-rule="evenodd" d="M32.516 15.1534C32.6605 15.1638 32.8049 15.1312 32.931 15.0597C33.0693 15.0523 33.5703 15.1159 33.9553 14.6262C33.9814 14.7381 34.0489 15.0412 33.873 15.3103C33.9666 15.2167 34.1049 15.1795 34.1236 15.1534C34.131 15.2916 34.2619 15.7177 33.7086 16.7533C33.8579 16.5889 34.0336 16.5963 34.1906 16.5776C34.1983 16.7721 34.3028 17.4262 34.0262 17.7778C33.8431 18.0172 33.5439 17.9422 33.5439 17.9422C33.5483 17.89 33.5483 17.8375 33.5439 17.7852C33.5365 17.6842 33.4991 17.5834 33.5254 17.5161C33.3809 17.4501 33.2492 17.3589 33.1365 17.2467C32.8112 16.9401 32.3888 16.4169 32.359 16.028C32.3215 15.5943 32.7104 15.5009 32.7104 15.5009C32.6778 15.4717 32.6501 15.4376 32.6281 15.3998C32.6094 15.3365 32.5906 15.2354 32.516 15.1534Z" fill="#806638"/>
<path fill-rule="evenodd" clip-rule="evenodd" d="M29.6333 10.4499C29.6333 10.4499 29.6146 10.4238 29.5138 10.5433C29.5325 10.4238 29.5513 10.3114 29.5587 10.203C29.6064 10.1026 29.6681 10.0095 29.742 9.92645C29.6858 10.0383 29.6484 10.1394 29.6484 10.1394C29.6484 10.1394 29.7869 9.88135 29.9887 9.72436C30.127 9.61222 30.3027 9.55997 30.3774 9.45523C30.4597 9.34309 30.441 9.32436 30.4597 9.30563C30.4597 9.30563 30.6431 9.1861 30.9235 8.83441C30.9607 8.78956 31.0169 8.74101 31.0544 8.69615C31.1177 8.67003 31.2673 8.60274 31.4431 8.51279C31.6264 8.41199 31.832 8.27373 31.9591 8.21704C32.2095 8.10491 32.4752 8.11624 32.5984 7.94027C32.6918 7.91415 32.7926 7.63369 32.7742 7.39462C32.9124 7.45057 33.6227 7.89172 33.866 8.85635C34.0417 9.5405 33.7274 10.5948 33.5966 11.1035C33.4657 11.6122 33.4472 11.9895 33.2639 12.2212C33.0319 12.528 32.2845 12.9606 32.1011 13.1747C31.9441 13.3504 31.4731 13.7953 31.4916 14.1167C31.5103 14.356 31.8056 14.4864 31.8694 14.5317C31.9333 14.5771 31.9328 14.6327 32.0525 14.6056C32.1723 14.5785 32.2169 14.5233 32.2657 14.5233C32.3217 14.5307 32.3217 14.5421 32.3478 14.5421C32.3667 14.5415 32.3856 14.5389 32.404 14.5344C32.404 14.5344 32.3853 14.8748 31.589 14.978C31.5328 14.9857 31.4768 15.0042 31.4056 15.0155C31.4992 14.9706 31.5552 14.9706 31.6562 14.8324C31.5441 14.8136 31.2225 14.7949 31.1402 14.7688C31.1663 14.7239 31.2523 14.6042 31.3233 14.5482C31.3869 14.4923 31.3159 14.4743 31.2599 14.5034C31.1636 14.5689 31.0712 14.64 30.9832 14.7163C30.8898 14.7986 30.8074 14.9108 30.6578 15.012C30.613 14.8624 30.6204 14.5783 30.7964 14.3727C30.7513 14.3801 30.6652 14.511 30.5832 14.4849C30.5683 14.3485 30.5772 14.2106 30.6093 14.0772C30.6542 13.9089 30.8972 13.6137 30.8972 13.6137L32.071 11.5161L32.3214 9.92719L29.6333 10.4499Z" fill="#806638"/>
<path fill-rule="evenodd" clip-rule="evenodd" d="M29.5686 10.5396C29.5686 10.5396 29.505 10.5845 29.6322 10.6705C29.6134 10.6966 29.5686 10.79 29.5124 10.8536C29.4491 10.9275 29.3815 10.9734 29.3554 11.037C29.2995 11.1678 29.2546 11.2575 29.2546 11.3137C29.2546 11.3699 29.2359 11.7288 29.0789 11.9604C29.0227 12.0427 28.9591 12.181 28.9143 12.2744C28.8209 12.4388 28.7385 12.5702 28.7198 12.6441C28.6826 12.775 28.6565 13.1338 28.6565 13.1338C28.6565 13.1338 28.7388 13.0328 28.7686 12.9955C28.7235 13.0889 28.6749 13.1897 28.604 13.2647C28.6488 13.2272 28.7797 13.1338 29.0003 12.9393C29.3069 12.6816 29.7855 12.2478 30.3688 11.9042C30.1929 11.9678 30.0435 11.9678 29.924 11.9866C30.0174 11.8931 30.8585 10.9061 31.2997 10.8127C31.3265 10.7787 31.3398 10.7361 31.3372 10.6929L30.9593 10.6557L30.1929 10.8201L30.081 10.2286L29.5686 10.5389V10.5396Z" fill="#987938"/>
<path fill-rule="evenodd" clip-rule="evenodd" d="M30.7878 13.9046C30.7878 13.9046 30.6868 14.0053 30.5934 14.256C30.5215 14.1809 30.4598 14.0966 30.41 14.0053C30.2718 13.7737 30.0588 13.4782 29.5615 13.6465C29.5541 13.4895 29.5428 13.4072 29.5615 13.2951C29.6438 13.2766 29.8942 13.0747 30.1446 12.7792C30.3206 12.5774 30.485 12.3455 30.5971 12.0502C30.671 11.994 30.7989 11.9006 30.9668 11.7922C31.2061 11.6278 31.4939 11.4033 31.5388 11.1529C31.4267 11.1977 31.1873 11.3099 30.8283 11.2914C30.9668 11.2278 31.1797 11.1605 31.1536 10.8838C31.2098 10.8463 31.2546 10.8202 31.2546 10.8202C31.2125 10.8061 31.1682 10.7998 31.1238 10.8014C31.1161 10.7753 31.105 10.7381 31.0414 10.7566C30.9779 10.7751 30.9675 10.7753 30.9591 10.8014C30.933 10.8091 30.847 10.8014 30.7834 10.8465C30.7198 10.8916 30.5441 11.0407 30.4768 11.0669C30.5029 11.022 30.5402 10.955 30.5402 10.955C30.5402 10.955 30.357 10.9735 30.2262 11.0289C29.9869 11.1112 29.7103 11.2608 29.4299 11.4065C29.456 11.3616 29.4673 11.3325 29.4858 11.3242C29.5043 11.3158 29.5494 11.3057 29.5494 11.298C29.5494 11.2904 29.5309 11.2241 29.542 11.1972C29.6259 11.0196 29.7248 10.8495 29.8378 10.6888C29.9686 10.5128 29.9948 10.2624 29.9948 10.2624L30.5668 9.97458L32.1744 9.6049L33.2176 9.66849L33.0868 10.3901L32.4706 11.65L31.9435 12.7977L31.3414 13.5009L30.7878 13.9046Z" fill="#483925"/>
<path fill-rule="evenodd" clip-rule="evenodd" d="M33.3944 10.7816C33.3944 10.7816 32.7662 11.5592 32.5905 11.679C32.7026 11.4397 33.3944 10.0152 33.6448 9.61886C33.5889 9.574 33.5139 9.574 33.6897 8.87949C33.5403 9.23069 33.4878 9.41405 33.3646 9.50746C33.2414 9.60087 33.2261 9.57105 33.1428 9.57105C33.1585 9.54259 33.165 9.50994 33.1613 9.47764C33.1613 9.47764 32.6341 9.41406 32.274 9.41406C31.9139 9.41406 31.2012 9.60851 30.8047 9.7655C30.4907 9.89637 30.315 9.89637 30.2028 9.97844C30.0907 10.0718 30.0271 10.1729 29.9709 10.199C29.926 10.2251 29.7131 10.2924 29.6643 10.3634C29.6195 10.4373 29.5448 10.5204 29.5448 10.5391C29.5448 10.5579 29.526 10.5842 29.5822 10.5652C29.6007 10.5579 29.7392 10.4829 29.8962 10.3895C30.1092 10.27 30.3672 10.1317 30.5543 10.0494C31.0888 9.83623 31.2571 9.87369 31.4962 9.82884C31.7466 9.78398 32.1057 9.67924 32.3448 9.67924C32.5841 9.67185 33.0366 9.67924 33.1413 9.69797C33.0964 9.73543 33.059 9.78029 33.0777 9.93728C33.0777 9.98213 33.0402 10.0307 33.0038 10.1391C32.8919 10.4457 32.6787 10.9542 32.5602 11.2122C32.3958 11.5634 32.209 11.8589 32.1165 12.042C32.0241 12.2251 31.8208 12.7074 31.6194 12.9655C31.4181 13.2235 31.3128 13.3805 31.2498 13.4367C31.1867 13.4929 30.7337 13.8253 30.7674 13.9451C30.8498 13.919 31.3695 13.7233 31.7469 13.2984C32.1242 12.8735 32.1993 12.6143 32.4946 12.3824C32.7898 12.1504 33.0218 11.7618 33.16 11.4404C33.2759 11.1412 33.2497 11.0478 33.3954 10.7824L33.3944 10.7816Z" fill="#62593C"/>
<path fill-rule="evenodd" clip-rule="evenodd" d="M19.8561 16.5853C19.8561 16.5853 19.7738 16.9254 19.5867 17.0937C19.4036 17.2584 19.0783 17.4003 19.0411 17.6771C18.9962 17.9536 19.3664 18.0921 19.3664 18.0921C19.3664 18.0921 19.1643 18.4248 19.1643 18.6752C19.1643 18.9333 19.1569 18.9818 19.183 19.2285C19.1534 19.2476 19.1282 19.2728 19.1091 19.3025C19.1091 19.3025 19.1276 19.5418 19.3109 19.6911C19.4943 19.8405 19.651 19.9304 19.7445 19.893C19.7587 19.9235 19.7712 19.9547 19.7819 19.9866C19.7819 19.9866 19.9204 19.6352 20.0138 19.3286C20.1072 19.0146 20.1896 19.0592 20.2268 18.6368C20.264 18.2144 20.6704 17.4891 20.6704 17.4891L20.9476 16.8692L20.4954 16.5178L19.8561 16.5853Z" fill="#806638"/>
<path fill-rule="evenodd" clip-rule="evenodd" d="M20.6981 17.1944C20.6049 17.2901 20.5188 17.3926 20.4406 17.501C20.3211 17.6656 20.2277 17.8149 20.0519 17.8788C19.8762 17.9426 19.7641 17.9421 19.7752 18.1181C19.7863 18.2941 19.9509 18.3685 20.0443 18.4582C20.1453 18.5516 20.2277 18.7086 20.1828 18.8846C20.2388 18.8584 20.3398 18.8284 20.4332 18.6265C20.5266 18.4247 21.18 17.1946 21.18 17.1946L20.6981 17.1944Z" fill="#483925"/>
<path fill-rule="evenodd" clip-rule="evenodd" d="M22.3494 16.6336C22.3494 16.6336 22.1848 16.3832 22.3869 16.1624C22.589 15.9415 22.8766 15.8484 22.9887 15.7101C22.9674 15.6838 22.9387 15.6643 22.9064 15.6542C22.9808 15.521 23.0944 15.4139 23.2317 15.3473C23.1758 15.2914 23.1009 15.2465 23.0188 15.2465C22.8354 15.2465 22.723 15.3587 22.555 15.3587C22.3906 15.3587 22.3718 15.2764 22.3718 15.2764C22.3718 15.2764 22.6486 15.2502 22.6222 15.1268C22.5961 14.9959 22.5483 14.9959 22.5483 14.9959C22.5483 14.9959 23.0829 14.7741 23.1763 14.6558C23.2697 14.5375 23.2586 14.3978 23.2773 14.3418C23.3407 14.3418 23.7108 14.1474 23.8604 14.2297C24.01 14.312 23.9053 14.5363 23.9053 14.5363C23.9053 14.5363 24.358 14.1959 24.5887 13.8622C24.7905 13.8809 24.8844 13.724 25.0323 13.724C25.2157 13.724 25.5035 13.9743 25.5595 14.5089C25.5969 14.8155 25.6529 14.9912 25.5969 15.5334C25.5708 15.84 25.5782 16.4946 25.6709 16.8194C25.7342 17.0775 25.8838 17.0513 25.8838 17.0513C25.8609 17.13 25.8154 17.2001 25.753 17.2532C25.6519 17.3466 25.6408 17.5935 25.6519 17.6869C25.6668 17.7552 25.6856 17.8226 25.7081 17.8888C25.7081 17.8888 25.5886 18.027 25.5585 18.1207C25.5324 18.2141 25.4091 18.2777 25.3192 18.2777C25.2292 18.2777 25.2743 18.2701 25.1548 18.2777C25.0353 18.2853 24.9978 18.3038 24.9229 18.2777C24.848 18.2516 24.792 18.2215 24.8221 17.9819C24.8482 17.7426 23.8986 17.1857 23.8986 17.1857L22.346 16.6324L22.3494 16.6336Z" fill="#B79947"/>
<path fill-rule="evenodd" clip-rule="evenodd" d="M20.5651 18.9964C20.5651 18.9964 20.9052 19.4489 22.3036 19.4489C22.969 19.4489 23.2009 19.3853 23.3387 19.3479C23.4883 19.3104 24.049 19.0901 24.6136 18.4244C25.122 17.8226 25.0099 17.5759 25.0099 17.5759L24.7141 17.531L23.753 17.6619L20.9089 18.8732L20.5638 18.9964H20.5651Z" fill="#62593C"/>
<path fill-rule="evenodd" clip-rule="evenodd" d="M21.6097 19.1086C21.6097 19.1086 20.3984 19.378 20.3984 18.6115C20.3984 17.8638 21.1462 17.0786 21.3332 16.9403C21.5277 16.8018 21.9912 16.6446 21.9912 16.6446H23.1092L23.3221 17.2092L23.2287 18.4279L21.6097 19.1086Z" fill="#222014"/>
<path fill-rule="evenodd" clip-rule="evenodd" d="M22.728 16.8731C22.728 16.8731 22.4963 16.6599 21.9691 16.947C21.442 17.2341 21.0156 17.8342 20.9895 18.3791C20.9634 18.8612 21.3858 19.2203 22.0438 19.239C22.5335 19.2575 22.829 19.2016 22.9786 19.1651C22.9412 19.1202 22.7467 18.8772 22.7467 18.8772L22.728 16.8731Z" fill="#D8C47C"/>
<path fill-rule="evenodd" clip-rule="evenodd" d="M22.4996 16.9923C22.4996 16.9923 22.4437 16.9474 22.2778 17.0371C22.1396 17.1111 21.9377 17.3065 21.7807 17.4448C21.6797 17.5271 21.6161 17.5643 21.5589 17.6279C21.327 17.9046 21.1325 18.3571 21.2449 18.5814C21.3573 18.8057 21.7272 19.0637 22.6694 18.888L22.4969 16.9925L22.4996 16.9923Z" fill="#E6DB9D"/>
<path fill-rule="evenodd" clip-rule="evenodd" d="M22.1928 17.456C22.1928 17.456 22.0432 17.6879 22.0432 18.0581C22.0432 18.4357 22.2564 19.0375 23.0416 19.0824C23.6435 19.1198 24.0472 18.2151 24.4846 17.8637C24.8173 17.5945 25.0192 17.5869 25.0192 17.5869C25.0192 17.5869 24.6791 17.2172 23.7706 16.7384C22.8733 16.256 21.8675 16.1925 21.3216 16.9328C21.5797 16.9141 22.4134 16.7009 22.4134 16.7009L22.8211 16.8318L22.1928 17.456Z" fill="#222014"/>
<path fill-rule="evenodd" clip-rule="evenodd" d="M23.3665 17.946C23.3404 17.89 23.3217 17.8151 23.4301 17.7966C23.5386 17.7781 23.5871 17.789 23.6246 17.8705C23.662 17.9521 23.6985 18.0201 23.6431 18.0539C23.5871 18.0837 23.4415 18.0544 23.3665 17.946ZM23.1908 17.4188C23.1908 17.4188 23.1534 17.4449 23.1721 17.3927C23.1795 17.3293 23.2283 17.2169 23.3478 17.2433C23.4673 17.2697 23.4415 17.4003 23.4217 17.4378C23.402 17.4752 23.3022 17.5386 23.2273 17.5117C23.2178 17.5093 23.209 17.5046 23.2016 17.4982C23.1943 17.4917 23.1885 17.4836 23.1849 17.4745C23.1812 17.4654 23.1798 17.4556 23.1806 17.4458C23.1815 17.436 23.1846 17.4266 23.1898 17.4183L23.1908 17.4188Z" fill="#62593C"/>
<path fill-rule="evenodd" clip-rule="evenodd" d="M13.0698 17.6577C13.0698 17.6577 13.3656 17.8796 13.7091 17.8709C14.0493 17.8633 14.4867 17.5121 14.6886 17.2876C14.8081 17.1567 14.9104 17.0184 15.0213 16.91C15.1149 16.8166 15.1783 16.7717 15.2231 16.7082C15.2867 16.6342 15.354 16.4952 15.3877 16.4501C15.3054 16.5137 15.1859 16.6261 15.0624 16.7008C14.9429 16.7747 14.6849 16.9137 14.5801 16.9512C14.4793 16.9886 13.4324 17.5427 13.4324 17.5427L13.0698 17.6577Z" fill="#9F8E57"/>
<path fill-rule="evenodd" clip-rule="evenodd" d="M13.5235 14.8953C13.5235 14.8953 13.6879 14.7831 14.0059 14.7119C14.3124 14.638 14.9293 14.581 14.9293 14.581L15.4378 14.8028L15.6396 15.5693L15.2699 16.3659L14.799 16.6616L14.2641 15.8017L13.5248 14.8967L13.5235 14.8953Z" fill="#9F8E57"/>
<path fill-rule="evenodd" clip-rule="evenodd" d="M12.8566 15.5793L12.6806 15.7107C12.6806 15.7107 12.7257 15.6284 12.7629 15.378C12.8001 15.1276 12.9948 14.5181 13.279 14.1667C13.5632 13.8152 13.5558 13.8339 13.5558 13.8339C13.5296 13.8292 13.5028 13.83 13.477 13.8364C13.4512 13.8428 13.427 13.8547 13.4062 13.8712C13.4436 13.7883 13.6829 13.4926 13.9222 13.3447C14.1616 13.1969 14.255 13.1503 14.5054 13.2708C14.7558 13.3913 14.8193 13.4539 15.0027 13.4465C15.1861 13.4391 15.3428 13.2447 15.3428 13.2447C15.3428 13.2447 15.3803 13.3642 15.242 13.641C15.1038 13.9177 14.5579 14.4821 14.5579 14.4821L13.4212 15.2597L12.8566 15.5801V15.5793Z" fill="#D8C47C"/>
<path fill-rule="evenodd" clip-rule="evenodd" d="M12.7108 15.8114C12.7108 15.8114 12.5538 15.9048 12.4715 16.255C12.3892 16.6138 12.5454 17.0513 12.6359 17.1895C12.7263 17.3278 12.9316 17.7056 13.3575 17.7243C13.4629 17.7238 13.5671 17.7022 13.6641 17.6608C13.8127 17.5926 13.9522 17.5059 14.0791 17.4027C14.2625 17.2645 14.4118 17.1449 14.3931 17.1336C14.3482 17.1149 13.2641 16.2175 13.2641 16.2175L12.8564 15.7626L12.7108 15.8114Z" fill="#62593C"/>
<path fill-rule="evenodd" clip-rule="evenodd" d="M13.7354 17.2991C13.7354 17.2991 13.956 17.2806 14.0869 17.1983C14.2178 17.116 13.3204 16.2263 13.3204 16.2263L13.384 17.1875L13.7354 17.2991Z" fill="#483925"/>
<path fill-rule="evenodd" clip-rule="evenodd" d="M12.7819 15.7439C12.7819 15.7439 12.6697 15.957 12.6697 16.0132C12.651 16.1964 12.7072 16.7721 12.752 16.9552C12.7969 17.1496 13.0399 17.4449 13.3541 17.4449C13.5483 17.4449 13.8177 17.3254 13.8177 17.2955C13.8177 17.2581 13.5409 17.2216 13.4663 17.0824C13.4214 17.0084 13.4027 16.8246 13.3923 16.6387C13.3849 16.5192 13.3849 16.3883 13.4298 16.343C13.5308 16.2309 13.5493 15.9092 13.5493 15.9092L13.9081 15.2426H13.4362L12.8716 15.594L12.7819 15.7439Z" fill="#987938"/>
<path fill-rule="evenodd" clip-rule="evenodd" d="M12.6441 15.9496C12.6441 15.9496 13.0138 15.4599 13.347 15.3475C13.6802 15.2351 13.8293 15.3026 13.8293 15.3026L13.6349 15.8L13.3581 16.1066L13.3768 16.2636C13.3768 16.2636 13.3317 16.6786 13.6085 16.9665C13.8853 17.2543 14.0908 17.2432 14.2106 17.2432C14.3304 17.2432 14.6742 17.1422 14.8499 16.7272C15.0069 16.3385 15.1377 15.8399 14.8238 15.3401C14.5169 14.8428 13.975 14.8235 13.8702 14.8235C13.7655 14.8235 12.9431 14.8647 12.6441 15.9489V15.9496Z" fill="#222014"/>
<path fill-rule="evenodd" clip-rule="evenodd" d="M22.137 17.6131C21.9988 17.5495 22.1296 17.1609 22.2679 17.0411C22.4062 16.9213 22.5819 16.7833 22.8887 16.7643C23.0006 16.7569 23.1091 16.8279 23.0906 16.9028C23.0644 17.0411 22.87 17.2355 22.6943 17.3738C22.4513 17.5646 22.294 17.6841 22.137 17.6131Z" fill="white"/>
<path fill-rule="evenodd" clip-rule="evenodd" d="M14.6593 15.4933C14.7604 15.4859 14.8912 15.5672 14.9173 15.6767C14.9435 15.7962 14.8538 16.0355 14.6593 16.0355C14.5023 16.0355 14.42 15.8411 14.42 15.7851C14.4218 15.7391 14.4346 15.6942 14.4575 15.6542C14.4649 15.6429 14.4836 15.512 14.6593 15.4933Z" fill="white"/>
<path fill-rule="evenodd" clip-rule="evenodd" d="M13.201 15.5795C13.201 15.5795 12.943 15.699 12.8235 15.9492C12.7381 16.1339 12.7122 16.3406 12.7495 16.5407C12.7683 16.6341 12.8617 16.8658 12.9253 16.9481C12.9888 17.0304 13.0749 17.0866 13.1384 17.0789C13.202 17.0713 13.3327 16.9032 13.3327 16.8024C13.3327 16.7016 13.3403 16.2752 13.4635 16.0433C13.572 15.8117 13.2018 15.5798 13.2018 15.5798L13.201 15.5795Z" fill="#D8C47C"/>
<path fill-rule="evenodd" clip-rule="evenodd" d="M13.2382 15.5606C13.1934 15.5867 13.1187 15.6242 13.1372 15.6727C13.1559 15.7176 13.3129 15.7467 13.3691 15.8561C13.4327 15.9682 13.4327 16.0878 13.414 16.1439C13.4628 16.1207 13.5071 16.089 13.5448 16.0503C13.6271 15.9569 13.7279 15.83 13.814 15.83C13.8702 15.83 13.9261 15.8561 13.9786 15.8561C14.0609 15.8561 14.143 15.83 14.1543 15.7439C14.1728 15.6318 13.9973 15.5308 13.8963 15.5495C13.915 15.4756 13.9411 15.3664 13.8588 15.2915C13.7765 15.2165 13.5187 15.3476 13.4625 15.3851C13.4063 15.4226 13.2382 15.5606 13.2382 15.5606Z" fill="#E6DB9D"/>
<path fill-rule="evenodd" clip-rule="evenodd" d="M19.1798 23.4156L19.7331 23.2522L19.8901 23.3643C19.8901 23.3643 20.002 23.6036 20.178 23.6334C20.1218 23.7529 19.9759 23.8552 19.9835 23.94C19.9911 24.0248 20.0658 24.0896 20.0658 24.0896C20.0658 24.0896 19.5685 24.912 20.5481 25.7408C20.3162 25.8343 20.021 25.9627 19.864 26.0366C19.9759 26.0627 20.2152 26.1105 20.3162 26.2012C20.4173 26.2919 20.4173 26.3208 20.5107 26.3769C20.6041 26.4331 20.66 26.5078 20.6415 26.5413C20.5779 26.5039 20.3648 26.392 20.3276 26.4965C20.2903 26.601 19.4041 26.5601 19.4041 26.5601L17.9086 26.8479C17.9086 26.8479 17.9645 26.6983 17.8076 26.5601C17.6244 26.3957 17.4002 26.5675 17.1609 26.3843C16.8469 26.145 16.8355 25.8683 16.7347 25.7638C16.8355 25.7002 17.0413 25.6068 17.531 25.542C17.5123 25.5045 17.4487 25.3924 17.4862 25.2916C17.531 25.1607 17.7178 25.0784 17.6619 24.9219C17.7442 24.9032 17.7814 24.9032 17.9872 24.6451C18.1817 24.3871 18.3012 24.3311 18.4508 24.3124C18.6004 24.2937 18.6901 24.3124 18.9669 24.0544C19.1611 23.8712 19.0977 23.7143 19.0977 23.7143C19.0977 23.7143 19.2244 23.6736 19.1798 23.4156Z" fill="#CAAE5B"/>
<path fill-rule="evenodd" clip-rule="evenodd" d="M13.3958 29.1655C13.425 29.198 13.459 29.2258 13.4966 29.2479C13.5903 29.3114 13.7285 29.3864 13.8219 29.4983C13.8594 29.4423 13.9528 29.3413 14.1177 29.4983C14.2826 29.6552 14.4874 29.5434 14.6148 29.5806C14.7457 29.6257 14.7531 29.6442 14.7531 29.6442C14.7531 29.6442 14.827 29.5806 14.9924 29.5133C15.0934 29.4758 15.2129 29.4497 15.3438 29.4125C15.4633 29.3864 15.5942 29.3489 15.6842 29.3489C15.7665 29.4048 16.0617 29.7186 17.2469 29.2555C18.3648 28.8217 18.6226 28.7732 18.8097 28.8402C18.8284 28.7954 18.8472 28.7094 19.135 28.7207C19.135 28.6012 18.8957 28.1935 18.8957 28.1935L17.5759 27.7413H16.8541L14.6895 28.1376L13.49 28.822L13.3966 29.167L13.3958 29.1655Z" fill="#CAAE5B"/>
<path fill-rule="evenodd" clip-rule="evenodd" d="M12.6745 28.4068C12.6745 28.4068 12.7007 28.6087 12.9998 28.8219C13.2956 29.0348 13.3885 29.162 13.3885 29.162C13.3885 29.162 13.4447 29.088 13.4896 29.0126C13.5344 28.9303 13.5719 28.8369 13.6465 28.8108C13.7961 28.7472 14.1362 28.8667 14.2112 28.848C14.2748 28.8295 14.256 28.6986 14.3233 28.6986C14.4803 28.691 14.5811 28.7994 14.6373 28.7994C14.6935 28.7994 14.8315 28.792 14.8502 28.7622C14.869 28.7324 14.8764 28.4219 15.0895 28.2723C15.3215 28.1079 15.6056 28.1789 15.681 28.2163C15.681 28.2723 15.6884 28.4108 15.838 28.4182C15.9876 28.4256 16.0024 28.3994 16.1338 28.4443C16.2651 28.4892 16.4216 28.4369 16.4926 28.6572C16.5562 28.6387 16.7058 28.62 16.6683 28.4068C16.7423 28.3509 16.8068 28.3134 16.9641 28.0929C17.0015 28.0369 17.0649 27.9733 17.1137 27.891C17.2445 27.891 17.4015 27.8649 17.6108 28.048C17.5472 28.0928 17.5097 28.1219 17.4912 28.1675C17.546 28.2217 17.5959 28.2805 17.6406 28.3432C17.6968 28.4172 17.7342 28.5079 17.8052 28.5266C17.9622 28.5715 18.2202 28.5079 18.5081 28.5266C18.7849 28.5453 19.0165 28.6461 19.1176 28.7097C19.1551 28.6912 19.1551 28.6836 19.2485 28.7023C19.3419 28.7211 19.4128 28.7285 19.312 28.6089C19.368 28.635 19.4316 28.6912 19.4878 28.6351C19.544 28.5789 19.5886 28.4968 19.7456 28.4781C19.9025 28.4593 19.9587 28.4855 20.0223 28.3211C20.1046 28.1192 19.8205 28.1192 19.8205 28.1192C19.8205 28.1192 19.9513 27.9994 20.0972 27.8425C20.273 27.6781 20.4748 27.4649 20.5234 27.2032C20.6057 26.7208 20.1347 26.6575 20.1347 26.6575L17.8503 27.3604L15.0575 27.2219L12.676 28.4071L12.6745 28.4068Z" fill="#987938"/>
<path fill-rule="evenodd" clip-rule="evenodd" d="M10.6219 21.808C10.6219 21.808 10.548 21.9014 10.5024 22.122C10.4568 22.3426 10.4763 22.3164 10.4388 22.4734C10.4013 22.6304 9.94121 24.1932 10.1137 24.7204C10.2862 25.2475 10.5849 25.442 10.7718 25.8681C10.8092 25.9615 10.8457 26.0177 10.8652 26.1C10.9288 26.3765 10.8728 26.5897 10.9475 26.8665C10.9736 26.9599 11.0411 27.0683 11.1419 27.1805C11.3637 27.4121 11.7253 27.6327 11.8813 27.7897C12.1016 28.0216 12.4159 28.4928 12.8159 28.5374C13.029 28.5636 13.3319 28.4739 13.5823 28.3245C13.8041 28.186 13.9412 27.9918 14.1738 27.8809C14.3382 27.7986 14.5139 27.7688 14.6709 27.7313C14.9962 27.6677 15.2917 27.6574 15.4675 27.6938C15.7366 27.75 16.3722 27.9445 16.7244 27.9445C16.9996 27.94 17.2732 27.9024 17.5394 27.8323C18.074 27.6753 18.7207 27.406 19.147 27.2864C19.3974 27.2125 19.5993 27.193 19.8051 27.1482C20.1565 27.0659 20.4518 26.9537 20.6201 26.7405C20.5079 26.6097 20.3697 26.4078 19.6217 26.4152C18.7732 26.434 17.7935 26.9049 17.3112 26.9799C16.8289 27.0548 16.6196 27.1181 16.0811 26.9237C15.5532 26.7272 15.5357 26.5974 15.5357 26.5974C15.5357 26.5974 14.9815 26.2097 14.7495 25.2214C14.5176 24.2331 14.7495 23.513 15.3516 22.8286C15.5086 22.6528 15.4712 22.4959 15.4712 22.4959C15.4712 22.4959 15.8675 21.9613 15.759 21.4607C15.6395 20.9634 14.873 21.0644 14.873 21.0644L10.6219 21.808Z" fill="#62593C"/>
<path d="M10.8055 20.9863C10.7805 21.0135 10.7529 21.0382 10.7232 21.0602C10.843 20.6974 11.0372 20.4658 11.4895 20.2454C11.953 20.0433 12.8467 20.0069 13.8374 20.3021C14.8282 20.5974 15.5012 20.8929 15.5012 21.5509C15.5012 21.7811 15.3784 21.8944 15.196 22.0625C15.1238 22.1291 15.0423 22.2042 14.9554 22.2986C14.8061 22.4533 14.6428 22.6614 14.4873 22.8597C14.4288 22.9344 14.3713 23.0077 14.316 23.0762C14.1438 23.2864 13.9788 23.4731 13.8034 23.6275C14.033 23.5708 14.1378 23.5952 14.172 23.6519C14.1887 23.6796 14.0687 23.7268 13.9121 23.7885C13.647 23.8929 13.2769 24.0386 13.2886 24.2007C13.2932 24.2594 13.5341 24.3504 13.7737 24.441C13.9901 24.5228 14.2054 24.6041 14.2444 24.6608C14.2891 24.7211 14.3267 24.7864 14.3563 24.8553C14.364 24.93 14.364 25.0983 14.2444 25.1806C14.1264 25.2673 13.989 25.1931 13.7636 25.0712C13.7461 25.0618 13.7282 25.0521 13.7096 25.0421C13.4255 24.8851 13.1002 24.5524 13.1002 24.5524C13.0292 24.5936 12.9502 24.6188 12.8685 24.6263C12.7783 24.6386 12.691 24.6664 12.6104 24.7087C12.6104 24.7087 12.3867 24.0699 12.1099 24.2007C11.8643 24.3156 11.8113 24.3332 11.8017 24.3333C11.8018 24.3313 11.8016 24.33 11.8016 24.33C11.8016 24.33 11.7976 24.3333 11.8017 24.3333C11.8016 24.3515 11.7893 24.4332 11.5566 24.2007C11.254 23.9052 11.2239 23.7744 11.2165 23.6736C11.2138 23.6206 11.2219 23.5679 11.2403 23.5186C10.9848 23.2581 10.7868 22.9242 10.667 22.549C10.4035 21.7194 10.7004 21.1781 10.7932 21.0089C10.7979 21.0004 10.802 20.9929 10.8055 20.9863Z" fill="#222014"/>
<path fill-rule="evenodd" clip-rule="evenodd" d="M15.5104 25.5766C15.5104 25.5766 15.4468 25.6141 15.4468 25.6328C15.4412 25.6509 15.4387 25.6698 15.4394 25.6887C15.4394 25.6998 15.5218 25.6814 15.5328 25.67C15.5365 25.6626 15.5104 25.5961 15.5104 25.5766Z" fill="#62593C"/>
<path fill-rule="evenodd" clip-rule="evenodd" d="M14.9548 25.4009C14.992 25.4086 15.0556 25.4009 15.1042 25.4197C15.1416 25.4384 15.1677 25.4759 15.1303 25.5207C15.0928 25.5656 15.0563 25.6328 14.9733 25.6215C14.8799 25.6141 14.7902 25.5656 14.7902 25.5281C14.7886 25.5044 14.7918 25.4806 14.7995 25.4582C14.8072 25.4357 14.8192 25.415 14.835 25.3972C14.8725 25.3674 14.8912 25.3861 14.9548 25.4009Z" fill="#62593C"/>
<path fill-rule="evenodd" clip-rule="evenodd" d="M10.6473 25.7337C10.6746 25.7387 10.7025 25.7387 10.7297 25.7337C10.7856 25.7261 11.369 25.5119 11.9785 25.5504C12.4347 25.5779 12.8869 25.6523 13.328 25.7722C14.0945 25.974 15.0478 26.374 15.6647 26.6022C15.8291 26.6656 15.99 26.778 16.1083 26.8226C16.5795 27.0059 16.598 27.0059 16.8748 27.0545C17.2001 27.0993 17.5328 26.9909 17.8805 26.9162C18.3067 26.8226 19.0357 26.7777 19.675 26.6843C19.8817 26.6556 20.0856 26.6094 20.2845 26.546C20.2845 26.546 19.776 27.0545 18.5571 27.2376C18.0644 27.3124 17.5637 27.3187 17.0692 27.2563C16.6803 27.2189 16.4225 27.1627 16.2281 27.1067C16.0075 27.0431 15.555 26.8748 14.998 26.737C14.6091 26.636 14.1753 26.5613 13.6782 26.4679C12.4519 26.2434 11.121 25.9856 10.6469 25.7352L10.6473 25.7337Z" fill="#222014"/>
<path d="M9.85389 20.6301C9.90695 20.6775 9.96017 20.7251 10.0121 20.7725C9.8812 20.6532 9.75427 20.5327 9.62341 20.4023C9.49254 20.2719 9.36537 20.1522 9.2345 20.0326L8.84584 19.6738C8.81368 19.6416 8.78058 19.6114 8.74748 19.5811C8.71515 19.5515 8.6828 19.522 8.65139 19.4907L8.46827 19.3073C7.94111 18.8179 7.42503 18.339 6.89786 17.8567C7.2936 18.2377 7.69545 18.6185 8.09726 18.9993L8.09896 19.0009C8.21332 19.1093 8.32768 19.2177 8.4419 19.326C8.47555 19.3558 8.5123 19.3876 8.54887 19.4192C8.58138 19.4474 8.61384 19.4755 8.64375 19.5018C8.67589 19.534 8.70898 19.5643 8.74206 19.5945C8.77441 19.6241 8.80677 19.6537 8.8382 19.6851L9.22711 20.0548C9.35798 20.1743 9.4886 20.2941 9.61577 20.4137C9.69246 20.4857 9.77318 20.5579 9.85389 20.6301Z" fill="#B79947"/>
<path fill-rule="evenodd" clip-rule="evenodd" d="M9.06969 21.4912C9.03955 21.4858 9.00948 21.4804 8.97947 21.475C8.87584 21.4564 8.77279 21.4378 8.66987 21.4199L7.88491 21.2891L6.31451 21.0387C6.26134 21.031 6.20879 21.0234 6.15635 21.0158C6.07974 21.0048 6.00327 20.9937 5.9256 20.9827L5.52955 20.9376C5.41848 20.9264 5.30742 20.9144 5.19547 20.9024C5.04738 20.8865 4.89758 20.8704 4.74434 20.8555C4.2205 20.7997 3.69667 20.7441 3.17283 20.6994L3.1626 20.6978L3.16284 20.6986L3.19848 20.7034C3.67131 20.7764 4.14415 20.8379 4.61699 20.8954L7.26801 21.2542L7.88491 21.3452L8.66987 21.4574C8.92791 21.4948 9.19704 21.5323 9.45508 21.5584C9.37981 21.5459 9.30541 21.533 9.23163 21.52L9.45877 21.5508C9.45877 21.5508 9.30919 21.5278 9.06969 21.4912ZM3.17643 20.7L3.16284 20.6986L3.17283 20.6994L3.17643 20.7ZM9.06969 21.4912C8.30027 21.3736 6.60279 21.115 5.95567 21.0236C5.08518 20.8993 3.34722 20.7177 3.17643 20.7C3.18378 20.7011 3.19113 20.7022 3.19848 20.7034L4.61699 20.8954C4.65936 20.9005 4.70173 20.9057 4.7441 20.9107C4.84122 20.9221 4.93992 20.9344 5.039 20.9468C5.20315 20.9674 5.3684 20.9881 5.5293 21.0044L5.9256 21.05C5.99199 21.0594 6.05743 21.0708 6.12289 21.0822C6.18639 21.0933 6.25009 21.1044 6.31451 21.1136L7.26801 21.2542L9.23163 21.52C9.17735 21.5105 9.1234 21.5009 9.06969 21.4912Z" fill="#B79947"/>
<path d="M9.27132 22.0399L9.27196 22.0398L9.24293 22.0481C8.80764 22.176 8.37448 22.3003 7.93283 22.4175L7.66353 22.4897L5.58125 23.072C5.47536 23.1029 5.36945 23.134 5.26348 23.1653L4.59805 23.3484C4.49488 23.3781 4.3909 23.4062 4.28611 23.4342L3.91059 23.5392C3.91059 23.5392 3.95492 23.5257 4.0326 23.5021C3.9969 23.5118 3.96111 23.5217 3.92523 23.5317L3.9443 23.5253C4.15851 23.4535 4.37644 23.3803 4.59065 23.3186L5.25608 23.1056C5.47645 23.037 5.69621 22.9703 5.91582 22.9036C6.13948 22.8357 6.36312 22.7677 6.58694 22.698C6.77603 22.6511 6.96387 22.6029 7.15151 22.5547C7.41247 22.4877 7.67355 22.4207 7.93652 22.3576C8.36524 22.2495 8.81651 22.1416 9.26784 22.0407L9.26599 22.0413L9.27026 22.0402L9.26784 22.0407L9.27132 22.0399Z" fill="#B79947"/>
<path fill-rule="evenodd" clip-rule="evenodd" d="M4.19066 24.7729C4.19281 24.7721 4.19518 24.7712 4.19778 24.7702C4.28778 24.7357 4.37548 24.6977 4.46232 24.6583C4.52842 24.6301 4.59442 24.6019 4.66039 24.5736C4.87802 24.4805 5.0958 24.3873 5.31642 24.298L6.44543 23.8009C6.54589 23.7576 6.64612 23.7153 6.74601 23.6732C7.02544 23.5554 7.30238 23.4386 7.57469 23.3035C7.74788 23.2232 7.92522 23.1477 8.10279 23.072C8.30468 22.9861 8.50703 22.8999 8.70369 22.8064C8.6555 22.8189 8.60904 22.8322 8.56271 22.8456L8.69955 22.7852C8.69955 22.7852 8.58508 22.8259 8.42531 22.8842C8.41954 22.8857 8.41376 22.8872 8.40795 22.8888L8.1122 22.9822C7.918 23.0457 7.72354 23.113 7.52909 23.1951C7.28905 23.2991 7.05769 23.4144 6.82698 23.5295C6.69127 23.5972 6.55572 23.6648 6.41881 23.7299L5.30829 24.2645L4.81427 24.4949C4.7382 24.5296 4.66691 24.5621 4.60154 24.5918L4.19066 24.7729ZM4.60154 24.5918L4.68455 24.5552C4.66788 24.5629 4.65122 24.5707 4.63456 24.5785L4.63264 24.5794C4.57597 24.6059 4.51933 24.6324 4.46232 24.6583C4.40507 24.6826 4.34773 24.7069 4.29025 24.7311C4.36432 24.6988 4.47114 24.6509 4.60154 24.5918Z" fill="#B79947"/>
<path d="M4.43741 25.8084L5.66796 25.143L6.27744 24.8103C6.48299 24.7019 6.67744 24.5897 6.87929 24.4702C7.0028 24.4051 7.12224 24.3359 7.24163 24.2668C7.32108 24.2208 7.40076 24.1746 7.48137 24.1298C7.5823 24.0738 7.68421 24.0205 7.78612 23.9672C7.88799 23.9139 7.98997 23.8606 8.09086 23.8045C8.14919 23.773 8.20754 23.7416 8.26585 23.7102C8.61476 23.5224 8.96263 23.3351 9.30218 23.1204C8.90312 23.2807 8.52273 23.466 8.14397 23.6505C8.10764 23.6682 8.07098 23.6861 8.03467 23.7037L7.72068 23.8607C7.61446 23.9048 7.51194 23.9573 7.41409 24.0177C7.25571 24.1041 7.10391 24.1949 6.95024 24.2868C6.90458 24.3141 6.85846 24.3417 6.81225 24.3691C6.76996 24.3937 6.72816 24.418 6.68667 24.442L6.6848 24.4431C6.52517 24.5357 6.36977 24.6258 6.21016 24.7203L5.61867 25.0794C5.30717 25.2733 4.99567 25.465 4.68788 25.6543L4.68739 25.6546C4.61087 25.7017 4.53457 25.7486 4.45856 25.7954C4.44447 25.8037 4.43741 25.8084 4.43741 25.8084Z" fill="#B79947"/>
<path d="M9.25919 23.4324L9.27137 23.423L9.25461 23.4356C9.06036 23.5715 8.87146 23.7129 8.6821 23.8546C8.56394 23.943 8.44553 24.0316 8.32561 24.119L7.71761 24.5868L6.96069 25.1538C6.90419 25.1942 6.84747 25.2346 6.79075 25.275L6.79009 25.2754C6.67952 25.3542 6.56891 25.4329 6.4597 25.5122C6.15234 25.7354 5.84522 25.9623 5.55498 26.2067L5.54769 26.2121L5.55341 26.208C5.54768 26.2128 5.54195 26.2177 5.53623 26.2225C5.86944 26.0093 6.18318 25.789 6.49741 25.5571C6.65417 25.4414 6.80903 25.3238 6.96386 25.2063C7.11929 25.0884 7.27496 24.9702 7.43221 24.8542L8.35568 24.1446C8.66087 23.9138 8.97341 23.6755 9.26818 23.4261C9.26518 23.4282 9.26219 23.4303 9.25919 23.4324Z" fill="#B79947"/>
<path d="M17.5455 23.4987C17.5529 23.4612 17.583 23.4425 17.7848 23.4612C17.9118 23.473 18.4645 23.4227 18.9437 23.3791C19.2266 23.3533 19.484 23.3299 19.613 23.3229C19.9645 23.2968 21.2019 23.3153 21.804 23.4425C22.4061 23.5696 23.0153 23.7192 23.3106 23.7939C23.6063 23.8762 23.6995 23.9058 23.6882 23.9433C23.6808 23.9807 23.6142 24.0172 23.576 24.0069C23.566 24.0049 23.4873 23.9816 23.3718 23.9475C23.0593 23.8552 22.4774 23.6832 22.2565 23.6372C21.9539 23.5741 20.9067 23.4053 20.3342 23.4154C20.2046 23.4172 20.094 23.4177 19.9942 23.4182C19.6823 23.4197 19.4768 23.4206 19.1342 23.4602C18.6817 23.5164 17.9339 23.5911 17.7097 23.5613C17.5239 23.5394 17.5259 23.5358 17.5381 23.5133C17.5404 23.5089 17.5432 23.5038 17.545 23.4977L17.5455 23.4987Z" fill="#B79947"/>
<path d="M7.63775 26.0404L7.63814 26.0409C7.74821 25.9506 7.85552 25.858 7.96493 25.7635C8.03779 25.7006 8.11159 25.6369 8.18774 25.5726C8.2752 25.4946 8.35981 25.4136 8.44436 25.3327C8.52988 25.2509 8.61548 25.169 8.70381 25.0903C8.81491 24.9913 8.92897 24.8965 9.04224 24.8024C9.10799 24.7477 9.17388 24.6929 9.23837 24.638C9.26828 24.6108 9.29966 24.5836 9.33144 24.5561C9.38709 24.5078 9.44403 24.4585 9.49641 24.4061C9.50853 24.394 9.52069 24.3811 9.53311 24.3678C9.55882 24.3405 9.5857 24.3118 9.61594 24.2866C9.63246 24.2652 9.65042 24.2481 9.66853 24.2309C9.68556 24.2148 9.70276 24.1984 9.71898 24.1783L9.73508 24.1639C9.73399 24.1645 9.7329 24.1651 9.73178 24.1657C9.72995 24.1668 9.72808 24.1678 9.72618 24.169C9.72932 24.1647 9.73242 24.1603 9.73547 24.1557C9.68982 24.1618 9.65185 24.1883 9.61731 24.2124C9.60393 24.2218 9.59107 24.2307 9.57848 24.238C9.52453 24.2651 9.47433 24.2991 9.42913 24.3391C9.33871 24.414 9.25257 24.4939 9.17109 24.5784C9.10026 24.6508 9.03008 24.7247 8.95998 24.7985C8.86738 24.896 8.77494 24.9933 8.68138 25.0868C8.60737 25.1611 8.52394 25.2359 8.4479 25.3041C8.43963 25.3115 8.43142 25.3189 8.42335 25.3261L8.15422 25.5578C7.97875 25.7148 7.80303 25.8755 7.6386 26.0397L7.63775 26.0404Z" fill="#B79947"/>
<path d="M9.87086 24.5477L9.87398 24.5446C9.74311 24.6531 9.62282 24.7729 9.49959 24.8961L9.44517 24.9494L8.94925 25.4176C8.8856 25.4727 8.82288 25.5279 8.76294 25.5877L8.60033 25.7469L8.40461 25.9317C8.41645 25.9225 8.43045 25.9111 8.44637 25.8977L8.4041 25.9391C8.50851 25.8611 8.60213 25.7796 8.69796 25.6961C8.72923 25.6689 8.76082 25.6414 8.79301 25.6138C8.87763 25.5341 8.9558 25.4543 9.03392 25.3745C9.07297 25.3347 9.11201 25.2948 9.15184 25.255L9.52153 24.9035C9.6453 24.7923 9.76197 24.6735 9.87086 24.5477Z" fill="#B79947"/>
<path d="M8.54236 27.9209L8.55334 27.8992C8.63524 27.6937 8.74144 27.4991 8.84563 27.3082C8.85929 27.2832 8.87312 27.2579 8.88666 27.2329C8.90022 27.2099 8.91366 27.187 8.92699 27.164L9.42386 26.1862C9.43633 26.1597 9.44876 26.1336 9.46104 26.1078C9.50036 26.0251 9.53811 25.9458 9.57032 25.8683C9.59131 25.8235 9.61074 25.7796 9.6298 25.7366C9.66151 25.6651 9.69222 25.5958 9.72732 25.5282C9.73985 25.5052 9.75195 25.4824 9.76398 25.4598C9.81274 25.3679 9.86017 25.2785 9.92916 25.1915C9.92916 25.3298 9.89219 25.4496 9.84734 25.5691C9.80362 25.6887 9.75377 25.8061 9.69799 25.9206C9.6418 26.0327 9.57821 26.1525 9.51462 26.2609C9.49407 26.296 9.47235 26.3314 9.45048 26.3671C9.40469 26.4417 9.3582 26.5176 9.32017 26.5936L8.9426 27.2591C8.91543 27.3051 8.88842 27.3512 8.86144 27.3973C8.75845 27.5731 8.65586 27.7482 8.54631 27.9171C8.54842 27.9117 8.55056 27.9062 8.55271 27.9008C8.54919 27.9076 8.54574 27.9143 8.54236 27.9209Z" fill="#B79947"/>
<path d="M10.9282 29.3675C10.8912 28.7469 11.2609 28.2572 11.2609 28.2572C11.1958 28.4362 11.122 28.6962 11.0512 28.9454C11.0082 29.0969 10.9663 29.2446 10.9282 29.3675Z" fill="#B79947"/>
<path d="M11.373 30.7334C11.4815 30.079 11.6123 28.7482 11.6123 28.7482C11.5654 29.8278 11.5369 29.9612 11.4394 30.4168C11.4201 30.5066 11.3983 30.6088 11.373 30.7334Z" fill="#B79947"/>
<path d="M14.0541 30.8328C14.0587 30.8192 14.0611 30.812 14.0611 30.812V30.8107C14.0588 30.8181 14.0564 30.8254 14.0541 30.8328Z" fill="#B79947"/>
<path d="M14.0541 30.8328C13.9899 31.0233 13.5071 32.4687 13.4965 32.8906C13.517 32.8111 13.5407 32.7174 13.5671 32.6133C13.6933 32.1159 13.8794 31.3821 14.0541 30.8328Z" fill="#B79947"/>
<path d="M15.3548 28.1567C15.3548 28.1567 16.2521 29.6371 16.9252 30.9007C16.7431 30.2649 16.3241 29.0986 15.3548 28.1567Z" fill="#B79947"/>
<path d="M17.7657 30.336C18.2584 31.2069 18.7027 32.1043 19.0966 33.0241C19.0219 32.3885 18.8198 31.3007 17.7657 30.336Z" fill="#B79947"/>
<path d="M14.8093 23.2774C14.7644 23.27 14.6897 23.3149 14.7085 23.3334L14.7075 23.3341C14.7634 23.4051 15.085 23.5921 15.1373 23.5958C15.1745 23.6032 15.2679 23.5581 15.2568 23.5396C15.2533 23.5338 15.2428 23.5206 15.2294 23.5037C15.2002 23.4671 15.1575 23.4135 15.1447 23.3826C15.1637 23.4016 15.2758 23.3753 15.2832 23.3565C15.2887 23.3427 15.2696 23.2879 15.2563 23.2498C15.2516 23.2364 15.2477 23.2251 15.2457 23.2183C15.2286 23.2136 15.2106 23.2128 15.1931 23.2161C15.1756 23.2193 15.159 23.2265 15.1447 23.237C15.1337 23.2461 15.1248 23.2574 15.1184 23.2701C15.112 23.2828 15.1083 23.2967 15.1075 23.3109C15.1019 23.3018 15.0957 23.293 15.0887 23.2848C15.0777 23.2774 15.0131 23.2661 14.9953 23.2848C14.9919 23.2884 14.9889 23.2922 14.9859 23.2961C14.9732 23.3123 14.9607 23.3282 14.9214 23.3223C14.8965 23.3185 14.8794 23.3087 14.8626 23.2991C14.8467 23.29 14.8311 23.281 14.8093 23.2774Z" fill="#62593C"/>
<path fill-rule="evenodd" clip-rule="evenodd" d="M15.4 22.2492C15.374 22.2863 15.2067 22.6552 15.1982 22.7128C15.1912 22.6942 15.1779 22.678 15.1607 22.6679C15.1346 22.6605 15.0486 22.6679 15.0486 22.7128C15.0486 22.7576 15.1225 23.0085 15.2056 23.1392C15.2254 23.1669 15.2439 23.1937 15.2614 23.2189C15.3261 23.3124 15.376 23.3846 15.4261 23.4083C15.4461 23.4174 15.4688 23.4186 15.4896 23.4116C15.5104 23.4047 15.5278 23.3901 15.5383 23.3708C15.5457 23.3521 15.5644 23.2138 15.557 22.8885C15.5496 22.5632 15.5383 22.2492 15.5195 22.2305C15.5008 22.2117 15.4261 22.212 15.4 22.2492Z" fill="#62593C"/>
<path d="M15.5382 24.07C15.5419 24.0521 15.5378 24.041 15.5346 24.0323C15.5311 24.0229 15.5286 24.0162 15.5382 24.0064C15.5567 23.9877 15.658 23.9505 15.6767 23.969C15.6813 23.9737 15.6802 23.987 15.6787 24.0051C15.6778 24.0161 15.6767 24.0291 15.6767 24.0429C15.6767 24.0794 15.6767 24.1169 15.658 24.1437C15.6319 24.1812 15.5572 24.1999 15.5197 24.1888C15.4823 24.1777 15.4749 24.1252 15.4749 24.1149C15.4934 24.1075 15.5382 24.0888 15.5382 24.07Z" fill="#62593C"/>
<path d="M16.1765 23.6663C16.1765 23.6476 16.2401 23.6101 16.2776 23.6101C16.3218 23.6101 16.3311 23.6382 16.3368 23.6556C16.3383 23.6601 16.3396 23.664 16.3412 23.6663C16.3469 23.6686 16.3509 23.6688 16.3542 23.6689C16.3615 23.6691 16.3655 23.6692 16.3784 23.6925C16.3971 23.7262 16.4235 23.7859 16.4045 23.8233C16.3855 23.8608 16.3111 23.8867 16.2926 23.8793C16.2665 23.8605 16.1842 23.6925 16.1765 23.6663Z" fill="#62593C"/>
<path d="M14.7304 24.0307C14.8965 23.9698 14.9734 23.8867 14.9734 23.8867C14.9622 23.8465 14.9397 23.8104 14.9085 23.7825C14.8774 23.7547 14.8389 23.7364 14.7977 23.7297C14.7043 23.6925 14.6109 23.73 14.5286 23.8495C14.4482 23.9663 14.5 24.0402 14.5267 24.0785L14.5286 24.0812C14.5525 24.0777 14.5754 24.0735 14.5973 24.0688C14.5987 24.0812 14.608 24.1015 14.6446 24.129C14.6604 24.1416 14.6791 24.1536 14.6985 24.1661C14.748 24.1979 14.8016 24.2323 14.8203 24.2859C14.8323 24.3203 14.8388 24.3443 14.8434 24.3614C14.8488 24.3815 14.8517 24.392 14.8578 24.3981C14.8652 24.4055 14.996 24.3981 15.0596 24.3606C15.0714 24.3537 15.0852 24.3459 15.0997 24.3377C15.1633 24.3017 15.2416 24.2575 15.2353 24.2374L15.2361 24.2381C15.2361 24.2194 15.0342 24.0811 14.8211 24.036C14.7997 24.0318 14.7881 24.0385 14.7767 24.045C14.768 24.0499 14.7595 24.0548 14.7471 24.0548C14.74 24.0519 14.7344 24.042 14.7304 24.0307Z" fill="#62593C"/>
<path d="M12.1029 23.9616C12.0282 24.9412 12.2412 25.1431 12.2412 25.1431C12.4881 24.7468 12.372 23.9877 12.372 23.9877C12.2836 23.969 12.1933 23.9602 12.1029 23.9616Z" fill="#62593C"/>
<path d="M13.978 25.4009L13.9041 25.4383H13.9034C13.9034 25.4383 13.9667 25.4869 14.1237 25.4832C14.2435 25.4945 14.2733 25.4009 14.2807 25.3449C14.292 25.289 14.2358 25.1318 14.1163 25.113C13.9965 25.1051 13.978 25.4009 13.978 25.4009Z" fill="#62593C"/>
<path d="M13.5717 24.1821C13.5717 24.1821 13.6456 24.156 13.7361 24.2457C13.7511 24.2457 13.7763 24.2442 13.8078 24.2423C13.9317 24.2347 14.1529 24.2212 14.2334 24.2719C14.3345 24.3354 14.3643 24.3914 14.3643 24.3914C14.3643 24.3914 13.9867 24.4737 13.7809 24.3914C13.5717 24.3204 13.5717 24.1821 13.5717 24.1821Z" fill="#62593C"/>
<path d="M13.3471 24.9972C13.3471 24.9972 13.3844 24.7394 13.635 24.728C13.8928 24.7093 13.9416 24.9597 13.9416 24.9597L13.792 25.1093C13.792 25.1056 13.6799 24.9486 13.3484 24.9972H13.3471Z" fill="#62593C"/>
<path d="M14.8659 24.627C14.8659 24.627 14.7351 24.5447 14.6079 24.6008C14.4884 24.657 14.4957 24.8776 14.4957 24.8776C14.5226 24.8881 14.5517 24.8919 14.5804 24.8887C14.6091 24.8854 14.6365 24.8752 14.6604 24.8589C14.7427 24.8029 14.8472 24.7093 14.8659 24.627Z" fill="#62593C"/>
<path d="M15.065 24.8472C15.0844 24.8621 15.108 24.8802 15.1122 24.9225L15.1129 24.9215C15.1183 24.9429 15.1199 24.9719 15.1216 25.0025C15.1259 25.0787 15.1307 25.1645 15.1953 25.1645C15.2857 25.1645 15.367 25.0085 15.3596 24.9515C15.3522 24.8946 15.285 24.8468 15.2401 24.8207C15.2246 24.8108 15.2102 24.7992 15.1964 24.7881C15.1695 24.7664 15.1451 24.7467 15.1203 24.7467C15.1015 24.7466 15.0832 24.7528 15.0683 24.7643C15.0534 24.7759 15.0428 24.7921 15.0383 24.8103C15.0383 24.8267 15.0505 24.836 15.065 24.8472Z" fill="#62593C"/>
<path d="M15.6953 24.8214C15.6842 24.8663 15.8338 24.8214 15.8338 24.8214C15.839 24.8266 15.8413 24.8388 15.8441 24.8542C15.8516 24.8939 15.863 24.9548 15.9383 24.971C16.0283 24.9821 16.1404 24.9185 16.1404 24.8887C16.1343 24.8483 16.1188 24.8099 16.0953 24.7766C16.0872 24.7634 16.0869 24.7561 16.0866 24.7497C16.0863 24.7415 16.086 24.7351 16.0692 24.7204C16.0394 24.6942 15.9383 24.7391 15.9383 24.7391C15.9227 24.7261 15.9027 24.7194 15.8824 24.7204C15.8468 24.7236 15.8136 24.7397 15.789 24.7655C15.7404 24.7655 15.7064 24.7766 15.6953 24.8214Z" fill="#62593C"/>
<path d="M16.7124 24.7093C16.7496 24.6792 16.7048 24.6531 16.7048 24.6531C16.7048 24.6531 16.7871 24.6531 16.7982 24.627C16.8246 24.5895 16.7871 24.5634 16.7423 24.571C16.6935 24.5784 16.518 24.5971 16.4731 24.5971C16.4551 24.5971 16.4374 24.6011 16.4212 24.6088C16.4049 24.6166 16.3907 24.6279 16.3795 24.642C16.3235 24.6607 16.2301 24.7357 16.2301 24.7729C16.2301 24.8 16.2837 24.7975 16.3561 24.7942C16.3831 24.793 16.4126 24.7916 16.4431 24.7916C16.5554 24.7832 16.6863 24.7354 16.7124 24.7093Z" fill="#62593C"/>
<path d="M16.8433 23.6182C16.9066 23.6182 16.9628 23.4987 16.9628 23.4987V23.4994C17 23.5302 17.0375 23.5108 17.0673 23.481C17.0944 23.462 17.1684 23.3799 17.1684 23.3424C17.1684 23.305 17.1124 23.2865 17.0488 23.2865C16.9942 23.288 16.9415 23.3077 16.8992 23.3424C16.8433 23.3341 16.7797 23.3789 16.7797 23.4164C16.7721 23.4612 16.8172 23.4612 16.8357 23.4612C16.8396 23.4709 16.8245 23.4937 16.8089 23.517C16.7945 23.5386 16.7797 23.5608 16.7797 23.5734C16.7797 23.5921 16.7797 23.6108 16.8433 23.6182Z" fill="#62593C"/>
<path d="M16.0364 25.753C16.0364 25.7158 16.1103 25.7082 16.1103 25.7082L16.1111 25.7096C16.1111 25.7096 16.1222 25.6902 16.0887 25.6603C16.0874 25.6591 16.0862 25.6579 16.085 25.6568C16.0693 25.6414 16.0668 25.6391 16.1261 25.6042C16.1897 25.5667 16.2084 25.6042 16.2084 25.6042C16.2335 25.5901 16.2621 25.5836 16.2907 25.5854C16.3467 25.5854 16.3842 25.6155 16.4029 25.6791C16.4029 25.7156 16.3654 25.7345 16.3206 25.753C16.2803 25.7764 16.2358 25.7916 16.1897 25.7979C16.1456 25.7979 16.1361 25.775 16.1305 25.7614C16.129 25.7577 16.1277 25.7547 16.1261 25.753C16.1115 25.7572 16.0965 25.7598 16.0813 25.7607C16.0549 25.7717 16.0364 25.7717 16.0364 25.753Z" fill="#62593C"/>
<path d="M15.8075 26.0522C15.7813 26.0409 15.6879 26.0783 15.6879 26.0971V26.0978C15.6879 26.1056 15.6957 26.1181 15.704 26.1313C15.7155 26.1496 15.7279 26.1694 15.7214 26.1801C15.7214 26.184 15.71 26.1887 15.6987 26.1934C15.6876 26.198 15.6766 26.2026 15.6766 26.2062C15.6766 26.2166 15.7399 26.2802 15.7774 26.2802C15.8148 26.2802 15.9083 26.2353 15.9083 26.2166C15.9083 26.2016 15.8336 26.0596 15.8075 26.0522Z" fill="#62593C"/>
<path d="M15.412 25.5327C15.4063 25.5408 15.4016 25.5474 15.3922 25.5512C15.3621 25.5699 15.3094 25.6108 15.2906 25.6483C15.2719 25.6857 15.2906 25.7607 15.3094 25.768C15.3281 25.7754 15.4553 25.7754 15.5487 25.7493C15.6421 25.7119 15.6682 25.6557 15.6682 25.6108C15.6682 25.5896 15.6599 25.5702 15.6511 25.5496C15.6412 25.5266 15.6307 25.5022 15.6307 25.4726C15.6391 25.4538 15.6017 25.4464 15.5568 25.4538C15.5435 25.4562 15.5309 25.4614 15.5199 25.4692C15.5089 25.477 15.4998 25.4872 15.4932 25.4989C15.4839 25.4958 15.474 25.4948 15.4643 25.4961C15.4545 25.4974 15.4452 25.5009 15.437 25.5063C15.4241 25.5156 15.4176 25.5248 15.412 25.5327Z" fill="#62593C"/>
<path d="M14.9105 25.4384C14.9105 25.4384 14.791 25.5318 14.7609 25.5769C14.7531 25.5862 14.739 25.6037 14.721 25.6259C14.6527 25.7103 14.5287 25.8635 14.4844 25.9019C14.503 25.8692 14.5242 25.8379 14.5477 25.8085C14.4738 25.8558 14.4184 25.9271 14.3907 26.0104C14.3486 26.1404 14.6065 26.2142 14.799 26.2692C14.8115 26.2728 14.8237 26.2763 14.8356 26.2798C15.0298 26.336 15.105 26.3537 15.105 26.3537C15.0335 26.2462 14.9721 26.1324 14.9216 26.0136C14.9031 25.9696 14.8869 25.9355 14.8736 25.9077C14.834 25.8245 14.8216 25.7985 14.858 25.7368C14.8717 25.7069 14.8878 25.6804 14.9027 25.6558C14.9289 25.6128 14.9517 25.5754 14.9517 25.535C14.9292 25.4758 14.9105 25.4384 14.9105 25.4384Z" fill="#62593C"/>
<path fill-rule="evenodd" clip-rule="evenodd" d="M45.2633 23C45.2633 35.2957 35.2957 45.2633 23.0001 45.2633C10.7044 45.2633 0.736816 35.2957 0.736816 23C0.736816 10.7043 10.7044 0.736725 23.0001 0.736725C35.2957 0.736725 45.2633 10.7043 45.2633 23ZM44.7946 23.0001C44.7946 35.0367 35.037 44.7942 23.0004 44.7942C10.9638 44.7942 1.20625 35.0367 1.20625 23.0001C1.20625 10.9635 10.9638 1.20588 23.0004 1.20588C35.037 1.20588 44.7946 10.9635 44.7946 23.0001Z" fill="#7A6A2A"/>
<path opacity="0.8" fill-rule="evenodd" clip-rule="evenodd" d="M35.6505 17.3432C33.3245 11.3365 27.5744 10.2237 27.5744 10.2237H11.1692L11.2325 16.342H14.4996V30.0044H11.1689V36.1117H27.1203C30.9646 36.1117 34.0463 32.2485 34.0463 32.2485C38.9812 25.2444 35.6503 17.3432 35.6503 17.3432H35.6505ZM27.2059 28.1323C27.2059 28.1323 25.9547 29.9374 24.5933 29.9374H21.8701L21.8056 16.357H25.3004C25.3004 16.357 26.9196 16.6956 28.0508 19.8999C28.0508 19.8999 29.5505 24.4876 27.2059 28.1323Z" fill="white"/>
</svg>
