<svg width="46" height="46" viewBox="0 0 46 46" fill="none" xmlns="http://www.w3.org/2000/svg">
<path d="M33.6747 4.04943C32.4775 5.23299 31.3807 6.51576 30.4057 7.88358L30.0974 7.78436C28.3195 7.2103 26.4771 6.85594 24.6204 6.73546C24.0612 6.69294 21.975 6.69294 21.294 6.73546C19.2365 6.87011 17.6593 7.17486 15.8671 7.79144C15.7954 7.81979 15.7309 7.84105 15.6663 7.86231C14.6555 6.50158 13.53 5.2259 12.2898 4.05652C18.24 1.04448 25.201 0.683039 31.4309 3.05723C32.0976 3.30528 32.7499 3.59586 33.388 3.90769L33.6747 4.04943Z" fill="#F00500"/>
<path d="M44.7722 30.931C43.8689 33.4753 42.514 35.8353 40.7576 37.8905C39.8041 38.9961 38.7503 40.0096 37.6176 40.9309C34.9651 43.0429 31.8681 44.5524 28.5632 45.3462C24.9071 46.2179 21.0932 46.2179 17.437 45.3462C14.125 44.5524 11.0352 43.0429 8.38267 40.9309C7.24997 40.0096 6.19613 38.9961 5.24266 37.8905C0.188558 31.9869 -1.3456 23.8793 1.22805 16.5724C1.71554 15.2188 2.3249 13.9147 3.05614 12.6745C3.39308 12.1075 3.80888 11.4697 4.00961 11.2074C4.69783 14.1344 5.54376 16.7071 5.85919 17.6355C5.83769 17.6851 5.80901 17.7418 5.78034 17.7914C4.10997 21.1365 3.20669 24.3612 2.99162 27.7914C2.99162 27.8339 2.98445 27.8835 2.98445 27.926C2.92709 28.9537 2.95577 29.4427 3.12782 30.0876C3.6655 32.1074 5.32153 34.3328 7.91668 36.5156C12.1679 40.0876 17.9317 42.6673 22.2976 42.9649C26.8499 43.2697 33.5672 40.6404 38.0406 36.7991C38.7431 36.1825 39.4027 35.5305 40.0192 34.836C40.4637 34.3257 41.1232 33.4469 41.0731 33.4469C41.0587 33.4469 41.0731 33.4327 41.1017 33.4186C41.1232 33.4044 41.1447 33.3831 41.1304 33.3689C41.1232 33.3619 41.1376 33.3406 41.1591 33.3335C41.1806 33.3264 41.1949 33.3122 41.1878 33.2981C41.1806 33.2839 41.1878 33.2697 41.2164 33.2626C41.2379 33.2555 41.2451 33.2343 41.2379 33.2201C41.2308 33.2059 41.2379 33.1918 41.2523 33.1918C41.2666 33.1918 41.281 33.1705 41.281 33.1563C41.281 33.1422 41.2953 33.1209 41.3096 33.1209C41.324 33.1209 41.3383 33.1067 41.3383 33.0925C41.3598 33.0358 41.3957 32.9791 41.4315 32.9295C41.539 32.7665 41.9692 32.0082 42.0265 31.8806C42.4352 30.9664 42.6932 30.1514 42.8151 29.3364C42.8725 28.9466 42.9083 28.2308 42.8796 28.0607C42.8725 28.0323 42.8725 27.9827 42.8653 27.9048C42.851 27.763 42.8438 27.5504 42.8294 27.3378C42.8151 27.0189 42.7864 26.5724 42.7649 26.3527C42.4567 23.1351 41.6251 20.5058 40.0479 17.7205C39.9834 17.6142 39.926 17.5079 39.8902 17.4229C39.8758 17.4016 39.8687 17.3803 39.8615 17.3662C40.0837 16.7071 40.9942 13.9502 41.7183 10.7964L41.7326 10.8106L41.8401 10.9523C42.0265 11.2004 42.5212 11.9374 42.7434 12.2918C43.7542 13.9218 44.5428 15.6723 45.102 17.5008C46.3996 21.9019 46.292 26.5936 44.7722 30.931Z" fill="#F00500"/>
<path d="M35.4669 22.4618C35.4454 22.5752 35.1085 22.9154 34.7715 23.1635C33.7822 23.8793 32.0115 24.5454 30.2121 24.8644C29.1869 25.0486 28.1618 25.077 27.8535 24.9282C27.6528 24.8289 27.6241 24.751 27.6958 24.4958C27.8464 23.9643 28.3338 23.3832 29.0937 22.8374C29.4809 22.561 31.0509 21.6185 31.7821 21.2216C32.9865 20.5696 33.9615 20.1798 34.621 20.0876C34.8289 20.0593 35.0798 20.0522 35.1587 20.0876C35.2877 20.1372 35.4311 20.5129 35.4884 20.9664C35.5171 21.2074 35.5028 22.2705 35.4669 22.4618Z" fill="#000008"/>
<path d="M18.5769 24.8077C18.5339 24.8927 18.3188 24.9849 18.0751 25.0203C17.8313 25.0557 17.0858 25.0345 16.6628 24.9849C15.143 24.7864 13.53 24.3258 12.3543 23.7588C11.6947 23.4399 11.2216 23.1209 10.8703 22.7737L10.6696 22.5681L10.648 22.2988C10.6122 21.8311 10.6194 21.094 10.6767 20.8318C10.7126 20.6121 10.7914 20.3995 10.899 20.2081C10.9563 20.1372 10.9563 20.1372 11.2144 20.1372C11.5298 20.1372 11.7951 20.1869 12.2252 20.3215C13.107 20.5908 14.4189 21.2428 16.0176 22.1925C17.3367 22.9721 17.8313 23.3548 18.2113 23.8793C18.4694 24.2053 18.6414 24.6659 18.5769 24.8077Z" fill="#000008"/>
<path d="M28.7279 34.673C28.7279 34.6943 28.6418 35.0344 28.5343 35.4384C28.4268 35.8424 28.3408 36.1684 28.3408 36.1826C28.2619 36.1896 28.1902 36.1967 28.1113 36.1896H27.8819L27.5665 36.9267C27.3944 37.3307 27.2367 37.7063 27.2152 37.763L27.1722 37.8622L26.8711 37.3803V35.4171L26.8138 35.4313C26.6919 35.4597 25.8244 35.5731 25.4445 35.6085C23.8745 35.7644 22.2973 35.729 20.7345 35.5093C20.4836 35.4738 20.2685 35.4455 20.2613 35.4526C20.2542 35.4597 20.2614 35.9132 20.2757 36.4731L20.2972 37.4795L20.1753 37.6638C20.1108 37.763 20.0463 37.848 20.0463 37.8551C20.0248 37.8764 19.9531 37.763 19.7882 37.437C19.609 37.0968 19.4799 36.7354 19.3867 36.3597L19.3365 36.1542L19.1143 36.1684L18.8921 36.1896L18.8347 35.9274C18.806 35.7857 18.7702 35.566 18.7559 35.4455L18.7344 35.2187L18.548 35.0557C18.4404 34.9636 18.3329 34.8714 18.3114 34.8573C18.2755 34.8289 18.2612 34.7793 18.2612 34.7368V34.6517L20.0534 34.6659L20.1108 34.8502L20.4191 34.8644C20.5911 34.8714 21.136 34.8856 21.6234 34.8998L22.5196 34.921L22.749 34.5667L22.9855 34.2123H23.2866L23.2723 32.7382L22.878 32.5681C21.6091 32.0153 20.8635 31.3846 20.5839 30.6192C20.5266 30.4632 20.5266 30.4065 20.5123 29.6978C20.5051 28.9962 20.5051 28.9324 20.5553 28.7765C20.6556 28.4221 20.9352 28.1457 21.2937 28.0536C21.4155 28.0182 21.7382 28.0182 23.43 28.0182L25.423 28.0253L25.6452 28.1316C25.9105 28.2591 26.0323 28.3513 26.1829 28.5497C26.3549 28.7765 26.4051 28.9537 26.4051 29.386C26.4051 30.0026 26.3621 30.5341 26.2976 30.7467C26.2044 31.0373 26.061 31.3137 25.8818 31.5617C25.5234 32.0153 24.871 32.4689 24.276 32.6744L24.1039 32.7382L24.1182 34.2265L24.4337 34.2549L24.6487 34.5738L24.8566 34.8927H25.8173C26.3478 34.8927 26.8138 34.8998 26.8568 34.9069C26.9285 34.921 26.9428 34.914 27.0145 34.7935L27.1005 34.6659H27.9249C28.5415 34.6376 28.7279 34.6517 28.7279 34.673Z" fill="#000008"/>
<path d="M24.9429 36.707C24.8067 36.785 24.7135 36.8204 24.692 36.8062C24.6705 36.7991 24.5701 36.7141 24.4626 36.6361L24.269 36.4802L24.0683 36.6928C23.631 37.1606 23.6167 37.1818 23.4876 37.1889C23.2869 37.2102 23.2439 37.1747 23.0001 36.8133C22.8711 36.629 22.7707 36.4731 22.7707 36.4731C22.7707 36.4731 22.6775 36.4589 22.57 36.4519L22.3693 36.4306L22.1829 36.8133L22.018 36.7637C21.889 36.7212 21.7599 36.6716 21.638 36.6149L21.423 36.5085V36.1046L25.2369 36.1188L25.244 36.3101C25.2512 36.5369 25.2584 36.5298 24.9429 36.707Z" fill="#000008"/>
<path d="M42.8652 28.0607C42.858 28.0323 42.858 27.9827 42.8508 27.9047C41.1303 27.7205 36.2195 27.6071 31.6601 31.3278C31.6601 31.3278 30.1905 24.6659 23.3083 24.6659C16.4261 24.6659 13.8739 31.3278 13.8739 31.3278C10.0171 27.2244 4.85554 27.522 2.99162 27.7914C2.99162 27.8339 2.98445 27.8835 2.98445 27.926C2.92709 28.9537 2.95577 29.4427 3.12782 30.0876C3.6655 32.1074 5.32153 34.3328 7.91668 36.5156C12.1679 40.0876 17.9317 42.6673 22.2976 42.9649C26.8499 43.2697 33.5672 40.6404 38.0406 36.7991C38.7431 36.1825 39.4027 35.5305 40.0192 34.836C40.4637 34.3257 41.1232 33.4469 41.0731 33.4469C41.0587 33.4469 41.0731 33.4327 41.1017 33.4186C41.1232 33.4044 41.1447 33.3831 41.1304 33.3689C41.1232 33.3619 41.1376 33.3406 41.1591 33.3335C41.1806 33.3264 41.1949 33.3122 41.1878 33.2981C41.1806 33.2839 41.1878 33.2697 41.2164 33.2626C41.2379 33.2555 41.2451 33.2343 41.2379 33.2201C41.2308 33.2059 41.2379 33.1918 41.2523 33.1918C41.2666 33.1918 41.281 33.1705 41.281 33.1563C41.281 33.1422 41.2953 33.1209 41.3096 33.1209C41.324 33.1209 41.3383 33.1067 41.3383 33.0925C41.3598 33.0358 41.3957 32.9791 41.4315 32.9295C41.539 32.7665 41.9692 32.0082 42.0265 31.8806C42.4352 30.9664 42.6932 30.1514 42.8151 29.3364C42.8581 28.9466 42.8938 28.2308 42.8652 28.0607ZM24.9429 36.707C24.8067 36.785 24.7135 36.8204 24.692 36.8062C24.6705 36.7991 24.5701 36.7141 24.4626 36.6361L24.269 36.4802L24.0683 36.6928C23.631 37.1606 23.6167 37.1818 23.4876 37.1889C23.2869 37.2102 23.2439 37.1747 23.0001 36.8133C22.8711 36.629 22.7707 36.4731 22.7707 36.4731C22.7707 36.4731 22.6775 36.4589 22.57 36.4519L22.3693 36.4306L22.1829 36.8133L22.018 36.7637C21.889 36.7212 21.7599 36.6716 21.638 36.6149L21.423 36.5085V36.1046L25.2369 36.1188L25.244 36.3101C25.2512 36.5369 25.2584 36.5298 24.9429 36.707ZM28.5273 35.4313C28.4197 35.8353 28.3337 36.1613 28.3337 36.1754C28.2549 36.1825 28.1832 36.1896 28.1043 36.1825H27.8749L27.5665 36.9267C27.3944 37.3307 27.2367 37.7063 27.2152 37.763L27.1722 37.8622L26.8711 37.3803V35.4171L26.8138 35.4313C26.6919 35.4597 25.8244 35.5731 25.4445 35.6085C23.8745 35.7644 22.2973 35.729 20.7345 35.5093C20.4836 35.4738 20.2685 35.4455 20.2613 35.4526C20.2542 35.4597 20.2614 35.9132 20.2757 36.4731L20.2972 37.4795L20.1753 37.6638C20.1108 37.763 20.0463 37.848 20.0463 37.8551C20.0248 37.8764 19.9531 37.763 19.7882 37.437C19.609 37.0968 19.4799 36.7354 19.3867 36.3597L19.3365 36.1542L19.1143 36.1684L18.8921 36.1896L18.8347 35.9274C18.806 35.7857 18.7702 35.566 18.7559 35.4455L18.7344 35.2187L18.548 35.0557C18.4404 34.9636 18.3329 34.8714 18.3114 34.8573C18.2755 34.8289 18.2612 34.7793 18.2612 34.7368V34.6517L20.0534 34.6659L20.1108 34.8502L20.4191 34.8644C20.5911 34.8714 21.136 34.8856 21.6234 34.8998L22.5196 34.921L22.749 34.5667L22.9855 34.2123H23.2866L23.2723 32.7382L22.878 32.5681C21.6091 32.0153 20.8635 31.3846 20.5839 30.6192C20.5266 30.4632 20.5266 30.4065 20.5123 29.6978C20.5051 28.9962 20.5051 28.9324 20.5553 28.7765C20.6556 28.4221 20.9352 28.1457 21.2937 28.0536C21.4155 28.0182 21.7382 28.0182 23.43 28.0182L25.423 28.0253L25.6452 28.1316C25.9105 28.2591 26.0323 28.3513 26.1829 28.5497C26.3549 28.7765 26.4051 28.9537 26.4051 29.386C26.4051 30.0026 26.3621 30.5341 26.2976 30.7467C26.2044 31.0373 26.061 31.3137 25.8818 31.5617C25.5234 32.0153 24.871 32.4689 24.276 32.6744L24.1039 32.7382L24.1182 34.2265L24.4337 34.2549L24.6487 34.5738L24.8566 34.8927H25.8173C26.3478 34.8927 26.8138 34.8998 26.8568 34.9069C26.9285 34.921 26.9428 34.914 27.0145 34.7935L27.1005 34.6659H27.9249C28.563 34.6659 28.7495 34.673 28.7495 34.6942C28.728 34.6871 28.6348 35.0344 28.5273 35.4313Z" fill="white"/>
<path d="M42.808 27.3378C42.7937 27.0188 42.765 26.5723 42.7435 26.3526C42.4352 23.1351 41.6036 20.5058 40.0265 17.7205C39.9619 17.6142 39.9046 17.5079 39.8687 17.4228C39.8544 17.4016 39.8472 17.3803 39.84 17.3662C40.0623 16.707 40.9727 13.9501 41.6968 10.7964C42.679 6.51574 43.3027 1.51221 41.3957 0.00973946C41.3957 0.00973946 38.098 -0.231224 33.6819 4.04941C32.4847 5.23296 31.3879 6.51574 30.4129 7.88356L30.1046 7.78433C28.3267 7.21028 26.4843 6.85592 24.6276 6.73544C24.0684 6.69291 21.9822 6.69291 21.3012 6.73544C19.2437 6.87009 17.6665 7.17484 15.8743 7.79142C15.8026 7.81977 15.7381 7.84103 15.6735 7.86229C14.6627 6.50156 13.5372 5.22588 12.297 4.0565C7.70167 -0.245397 4.28208 0.00265188 4.28208 0.00265188C2.26044 1.55474 2.94866 6.78505 3.99533 11.2074C4.68355 14.1344 5.52948 16.707 5.84491 17.6355C5.82341 17.6851 5.79473 17.7418 5.76606 17.7914C4.09569 21.1365 3.19255 24.3611 2.97748 27.7913C4.84857 27.522 10.0029 27.2173 13.867 31.3278C13.867 31.3278 16.4191 24.6659 23.3013 24.6659C30.1835 24.6659 31.6531 31.3278 31.6531 31.3278C36.2126 27.6071 41.1233 27.7276 42.8438 27.9047C42.8367 27.763 42.8223 27.5504 42.808 27.3378ZM7.19985 14.9636C7.19985 14.9636 4.51866 8.33713 5.20688 4.5526C5.32158 3.91476 5.53665 3.35487 5.87359 2.92964C5.87359 2.92964 8.91322 3.2273 13.8168 8.61353C13.8168 8.61353 12.8848 9.06002 11.6374 10.0097C11.6374 10.0097 11.6303 10.0168 11.6231 10.0168C10.2682 11.0444 8.53327 12.6745 7.19985 14.9636ZM18.5769 24.8077C18.5339 24.8927 18.3188 24.9849 18.0751 25.0203C17.8313 25.0557 17.0858 25.0345 16.6628 24.9849C15.143 24.7864 13.53 24.3258 12.3543 23.7588C11.6947 23.4399 11.2216 23.1209 10.8703 22.7737L10.6696 22.5681L10.648 22.2988C10.6122 21.8311 10.6194 21.094 10.6767 20.8318C10.7126 20.6121 10.7914 20.3995 10.899 20.2081C10.9563 20.1372 10.9563 20.1372 11.2144 20.1372C11.5298 20.1372 11.7951 20.1869 12.2252 20.3215C13.107 20.5908 14.4189 21.2428 16.0176 22.1925C17.3367 22.9721 17.8313 23.3548 18.2113 23.8793C18.4694 24.2053 18.6414 24.6659 18.5769 24.8077ZM35.4669 22.4618C35.4454 22.5752 35.1085 22.9154 34.7715 23.1635C33.7822 23.8793 32.0115 24.5454 30.2121 24.8644C29.1869 25.0486 28.1618 25.077 27.8535 24.9282C27.6528 24.8289 27.6241 24.751 27.6958 24.4958C27.8464 23.9643 28.3338 23.3832 29.0937 22.8374C29.4809 22.561 31.0509 21.6185 31.7821 21.2216C32.9865 20.5696 33.9615 20.1798 34.621 20.0876C34.8289 20.0593 35.0798 20.0522 35.1587 20.0876C35.2877 20.1372 35.4311 20.5129 35.4884 20.9664C35.5171 21.2074 35.5028 22.2705 35.4669 22.4618ZM34.277 10.0097L34.2626 10.0026C33.0582 9.05293 32.1549 8.60644 32.1549 8.60644C36.8936 3.22021 39.8257 2.92256 39.8257 2.92256C40.1483 3.35487 40.3562 3.90767 40.4709 4.54551C41.1376 8.33005 38.5496 14.9636 38.5496 14.9636C37.4671 13.0572 36.0118 11.3704 34.277 10.0097Z" fill="#FFA409"/>
<path d="M40.479 4.54547C39.9199 4.4746 37.2745 4.46043 34.2779 10.0097L34.2636 10.0026C33.0592 9.0529 32.1559 8.6064 32.1559 8.6064C36.8946 3.22018 39.8267 2.92252 39.8267 2.92252C40.1564 3.35483 40.3643 3.90763 40.479 4.54547Z" fill="#FF9300"/>
<path d="M38.5573 14.9636C37.4676 13.05 36.02 11.3704 34.2779 10.0097C37.2745 4.46043 39.9127 4.4746 40.479 4.54547C41.1458 8.33709 38.5573 14.9636 38.5573 14.9636Z" fill="#FF8300"/>
<path d="M40.5859 4.5667C40.5501 4.55962 40.5149 4.55256 40.479 4.54547L40.5859 4.5667Z" fill="#FF8300"/>
<path d="M13.8161 8.60632C13.8161 8.60632 12.8842 9.05281 11.6368 10.0025C11.6368 10.0025 11.6296 10.0096 11.6224 10.0096C8.51829 4.45325 5.78693 4.47451 5.19907 4.54538C5.31378 3.90754 5.52885 3.34766 5.86579 2.92243C5.87296 2.92243 8.91259 3.22009 13.8161 8.60632Z" fill="#FF9300"/>
<path d="M11.6301 10.0096C10.268 11.0443 8.53327 12.6674 7.19985 14.9636C7.19985 14.9636 4.51854 8.33705 5.20676 4.54543C5.78745 4.47456 8.52598 4.46038 11.6301 10.0096Z" fill="#FF8300"/>
<path d="M5.20676 4.54543C5.17092 4.55252 5.12788 4.5596 5.09204 4.56669L5.20676 4.54543Z" fill="#FF8300"/>
<path d="M31.3017 18.6418C31.3017 18.6418 29.0076 18.7836 29.2943 17.0118C29.5811 15.24 31.3733 15.0274 31.8752 15.0983C32.377 15.1691 34.3843 15.8779 34.0258 17.3662C33.6674 18.8545 33.1656 18.571 32.8788 18.6418C32.5921 18.7127 31.3017 18.6418 31.3017 18.6418Z" fill="white"/>
<path d="M14.3829 18.6418C14.3829 18.6418 12.0889 18.7836 12.3756 17.0118C12.6624 15.24 14.4546 15.0274 14.9565 15.0983C15.4583 15.1691 17.4656 15.8779 17.1071 17.3662C16.7487 18.8545 16.2469 18.571 15.9601 18.6418C15.6733 18.7127 14.3829 18.6418 14.3829 18.6418Z" fill="white"/>
</svg>
