<svg width="46" height="46" viewBox="0 0 46 46" fill="none" xmlns="http://www.w3.org/2000/svg">
<path d="M45.3163 28.551C42.2472 40.8649 29.7753 48.3843 17.4388 45.3133C5.12485 42.2348 -2.38237 29.7629 0.686712 17.449C3.7558 5.13505 16.2202 -2.38426 28.5266 0.686691C40.8707 3.72001 48.3779 16.2296 45.3163 28.551Z" fill="#0033AD"/>
<path d="M23.1754 11.3104C23.3327 11.3194 23.4891 11.2815 23.6249 11.2015C23.7606 11.1216 23.8696 11.0032 23.9381 10.8613C24.0065 10.7194 24.0313 10.5603 24.0094 10.4043C23.9874 10.2483 23.9197 10.1023 23.8148 9.98481C23.7098 9.86729 23.5724 9.78354 23.4199 9.74414C23.2673 9.70475 23.1065 9.71148 22.9578 9.76348C22.8091 9.81549 22.6791 9.91043 22.5844 10.0363C22.4896 10.1622 22.4344 10.3133 22.4255 10.4706C22.4137 10.6814 22.486 10.8883 22.6266 11.0458C22.7673 11.2032 22.9647 11.2984 23.1754 11.3104Z" fill="white"/>
<path d="M30.1031 11.7047C29.9793 11.7058 29.8578 11.6701 29.7542 11.6022C29.6155 11.5113 29.5185 11.3689 29.4846 11.2065C29.4507 11.0441 29.4826 10.8749 29.5734 10.736C29.6411 10.6323 29.7381 10.551 29.8521 10.5025C29.9661 10.4539 30.0919 10.4403 30.2136 10.4633C30.3353 10.4862 30.4475 10.5448 30.536 10.6315C30.6244 10.7183 30.6851 10.8293 30.7104 10.9506C30.7358 11.0718 30.7245 11.1979 30.6782 11.3128C30.6319 11.4276 30.5525 11.5262 30.4501 11.596C30.3478 11.6657 30.227 11.7036 30.1031 11.7047Z" fill="white"/>
<path d="M16.6297 11.668C16.7396 11.6115 16.8303 11.5238 16.8905 11.4159C16.9507 11.308 16.9776 11.1847 16.9678 11.0616C16.9581 10.9384 16.9121 10.8209 16.8357 10.7238C16.7593 10.6267 16.6559 10.5544 16.5385 10.5159C16.4211 10.4775 16.295 10.4746 16.1759 10.5077C16.0569 10.5408 15.9503 10.6084 15.8696 10.7019C15.7889 10.7954 15.7376 10.9108 15.7223 11.0334C15.707 11.156 15.7283 11.2803 15.7835 11.3909C15.8207 11.4648 15.872 11.5307 15.9348 11.5848C15.9975 11.6388 16.0702 11.6798 16.1489 11.7056C16.2276 11.7314 16.3105 11.7413 16.3931 11.7348C16.4756 11.7284 16.556 11.7057 16.6297 11.668Z" fill="white"/>
<path d="M17.2402 24.3028C16.8983 23.9189 16.7228 23.4149 16.7523 22.9016L16.747 22.9027C16.7687 22.5253 16.9004 22.1625 17.1259 21.8591C17.3514 21.5558 17.6607 21.325 18.0158 21.1955C18.3709 21.0659 18.7562 21.0431 19.1241 21.1299C19.492 21.2168 19.8264 21.4094 20.086 21.6841C20.3457 21.9589 20.5192 22.3036 20.5852 22.6758C20.6512 23.048 20.6068 23.4313 20.4574 23.7786C20.3081 24.1258 20.0603 24.4217 19.7447 24.6298C19.4291 24.8378 19.0595 24.9489 18.6815 24.9493H18.5758C18.0625 24.9193 17.5822 24.6868 17.2402 24.3028Z" fill="white"/>
<path d="M9.18201 22.4966C9.28846 22.4338 9.41114 22.404 9.53454 22.4109C9.61662 22.4154 9.69702 22.436 9.77111 22.4716C9.8452 22.5072 9.91152 22.5571 9.96627 22.6185C10.021 22.6798 10.0631 22.7513 10.0901 22.829C10.1171 22.9066 10.1285 22.9888 10.1237 23.0709C10.1166 23.1943 10.0731 23.3128 9.99863 23.4115C9.9242 23.5101 9.82219 23.5845 9.7055 23.6252C9.58881 23.6659 9.46266 23.6711 9.34301 23.6402C9.22336 23.6092 9.11557 23.5435 9.03327 23.4513C8.95097 23.3591 8.89785 23.2445 8.88062 23.1222C8.86339 22.9998 8.88282 22.875 8.93647 22.7637C8.99011 22.6523 9.07556 22.5594 9.18201 22.4966Z" fill="white"/>
<path d="M18.9997 14.7055C18.9056 14.8719 18.7643 15.0067 18.5936 15.0928C18.4802 15.15 18.3567 15.1843 18.23 15.1937C18.1033 15.2031 17.9761 15.1875 17.8554 15.1477C17.7348 15.108 17.6232 15.0448 17.527 14.9619C17.4308 14.8789 17.3519 14.7779 17.2948 14.6644C17.2088 14.4937 17.1754 14.3013 17.1988 14.1115C17.2221 13.9218 17.3012 13.7432 17.426 13.5984C17.5508 13.4536 17.7158 13.3491 17.9 13.298C18.0842 13.247 18.2795 13.2517 18.461 13.3116C18.6426 13.3714 18.8023 13.4838 18.92 13.6344C19.0377 13.7851 19.1081 13.9672 19.1223 14.1579C19.1365 14.3485 19.0938 14.5391 18.9997 14.7055Z" fill="white"/>
<path d="M11.9842 17.4482C12.1159 17.5348 12.2702 17.5804 12.4278 17.5792C12.5854 17.578 12.739 17.5301 12.8694 17.4416C12.9997 17.353 13.1009 17.2278 13.16 17.0818C13.2192 16.9357 13.2337 16.7754 13.2017 16.6211C13.1697 16.4668 13.0927 16.3255 12.9803 16.215C12.868 16.1045 12.7254 16.0298 12.5706 16.0004C12.4158 15.9709 12.2558 15.9881 12.1107 16.0496C11.9657 16.1111 11.8421 16.2143 11.7557 16.3461C11.64 16.5226 11.5991 16.7378 11.642 16.9444C11.6848 17.1511 11.8079 17.3323 11.9842 17.4482Z" fill="white"/>
<path d="M12.6158 22.191C12.7805 22.0939 12.9702 22.0479 13.1611 22.0586C13.4172 22.0734 13.6569 22.1891 13.8277 22.3805C13.9984 22.5719 14.0862 22.8232 14.0718 23.0793C14.0608 23.2701 13.9935 23.4534 13.8784 23.606C13.7632 23.7586 13.6055 23.8737 13.425 23.9366C13.2445 23.9996 13.0494 24.0076 12.8643 23.9597C12.6793 23.9118 12.5126 23.8101 12.3853 23.6674C12.258 23.5248 12.1759 23.3476 12.1493 23.1583C12.1227 22.969 12.1528 22.7761 12.2359 22.6039C12.3189 22.4317 12.4511 22.288 12.6158 22.191Z" fill="white"/>
<path d="M12.0898 28.5581C11.9492 28.6291 11.8329 28.7402 11.7555 28.8774C11.6781 29.0145 11.643 29.1716 11.6548 29.3286C11.6667 29.4857 11.7248 29.6357 11.8218 29.7597C11.9189 29.8837 12.0505 29.9762 12.2001 30.0254C12.3497 30.0747 12.5105 30.0784 12.6623 30.0363C12.814 29.9941 12.9499 29.9079 13.0526 29.7885C13.1554 29.6692 13.2204 29.5221 13.2396 29.3657C13.2587 29.2094 13.2311 29.0509 13.1602 28.9103C13.1131 28.8169 13.048 28.7336 12.9687 28.6653C12.8894 28.5971 12.7974 28.5451 12.698 28.5124C12.5986 28.4797 12.4937 28.4669 12.3893 28.4747C12.285 28.4825 12.1832 28.5109 12.0898 28.5581Z" fill="white"/>
<path d="M16.4817 20.2469C16.2566 20.2489 16.036 20.1841 15.8478 20.0607C15.7226 19.9789 15.6149 19.8732 15.5306 19.7496C15.4464 19.6261 15.3874 19.4872 15.3569 19.3408C15.3265 19.1944 15.3252 19.0434 15.3532 18.8965C15.3811 18.7497 15.4378 18.6097 15.5199 18.4848C15.6433 18.2966 15.8198 18.1492 16.027 18.0612C16.2341 17.9733 16.4628 17.9488 16.6839 17.9908C16.905 18.0328 17.1087 18.1394 17.2693 18.2971C17.4298 18.4549 17.5399 18.6567 17.5858 18.877C17.6316 19.0974 17.6111 19.3264 17.5268 19.5351C17.4425 19.7438 17.2982 19.9228 17.1122 20.0495C16.9262 20.1762 16.7068 20.2449 16.4817 20.2469Z" fill="white"/>
<path d="M27.77 15.0167C27.9303 15.1212 28.118 15.1759 28.3094 15.1738C28.5007 15.1717 28.6872 15.1129 28.8451 15.0049C29.0031 14.8968 29.1255 14.7444 29.1968 14.5668C29.2681 14.3893 29.2852 14.1945 29.2459 14.0072C29.2066 13.8199 29.1126 13.6485 28.9759 13.5146C28.8392 13.3807 28.6658 13.2904 28.4778 13.255C28.2897 13.2196 28.0953 13.2407 27.9193 13.3158C27.7432 13.3908 27.5934 13.5164 27.4887 13.6766C27.419 13.783 27.371 13.9021 27.3474 14.0271C27.3238 14.1521 27.3251 14.2805 27.3512 14.405C27.3773 14.5295 27.4278 14.6476 27.4997 14.7526C27.5715 14.8575 27.6634 14.9473 27.77 15.0167Z" fill="white"/>
<path d="M27.9223 21.0591C27.6685 21.0445 27.4143 21.08 27.1742 21.1637C26.9341 21.2474 26.7128 21.3775 26.523 21.5467C26.1397 21.8884 25.9078 22.3683 25.8784 22.881C25.8489 23.3936 26.0243 23.8969 26.366 24.2803C26.7076 24.6636 27.1876 24.8955 27.7002 24.9249H27.8123C28.1858 24.9248 28.5512 24.8165 28.8645 24.6134C29.1779 24.4102 29.4257 24.1207 29.5782 23.7798C29.7307 23.4389 29.7814 23.0612 29.724 22.6921C29.6667 22.3231 29.5038 21.9786 29.255 21.7C29.0866 21.5101 28.882 21.3556 28.6532 21.2455C28.4243 21.1355 28.1759 21.0721 27.9223 21.0591Z" fill="white"/>
<path d="M19.943 20.7054C19.6373 20.5172 19.3902 20.2474 19.2295 19.9264C19.0817 19.6314 19.0118 19.3035 19.0263 18.9739C19.0408 18.6443 19.1393 18.3238 19.3124 18.0429C19.4855 17.762 19.7276 17.5301 20.0155 17.369C20.3035 17.2079 20.6278 17.123 20.9577 17.1225C21.3159 17.1207 21.6675 17.2188 21.9731 17.4056C22.2787 17.5924 22.5263 17.8606 22.6881 18.1802C22.8376 18.4754 22.9089 18.8041 22.8953 19.1348C22.8816 19.4655 22.7834 19.7871 22.6101 20.0691C22.4368 20.351 22.1941 20.5839 21.9052 20.7453C21.6163 20.9068 21.2908 20.9916 20.9598 20.9915C20.6009 20.9926 20.2487 20.8936 19.943 20.7054Z" fill="white"/>
<path d="M34.407 17.446C34.5476 17.3751 34.664 17.2641 34.7415 17.127C34.819 16.9899 34.8541 16.8329 34.8424 16.6759C34.8307 16.5188 34.7727 16.3688 34.6758 16.2447C34.5789 16.1206 34.4473 16.028 34.2978 15.9787C34.1482 15.9293 33.9874 15.9254 33.8357 15.9674C33.6839 16.0094 33.548 16.0955 33.4451 16.2147C33.3423 16.334 33.2771 16.481 33.2577 16.6373C33.2384 16.7936 33.2659 16.9521 33.3366 17.0928C33.4318 17.2815 33.598 17.4247 33.7987 17.4909C33.9994 17.5571 34.2182 17.541 34.407 17.446Z" fill="white"/>
<path d="M29.0198 18.5184C29.1307 18.3226 29.2972 18.164 29.4982 18.0627C29.6317 17.9954 29.7771 17.955 29.9262 17.9439C30.0752 17.9328 30.2251 17.9512 30.367 17.998C30.509 18.0449 30.6403 18.1193 30.7535 18.217C30.8666 18.3146 30.9594 18.4337 31.0266 18.5673C31.1278 18.7683 31.1672 18.9948 31.1397 19.2182C31.1122 19.4416 31.019 19.6519 30.8721 19.8223C30.7251 19.9928 30.5308 20.1159 30.3139 20.176C30.097 20.236 29.8671 20.2305 29.6534 20.1599C29.4396 20.0893 29.2516 19.957 29.1131 19.7796C28.9746 19.6021 28.8918 19.3876 28.8752 19.1632C28.8585 18.9387 28.9089 18.7143 29.0198 18.5184Z" fill="white"/>
<path d="M23.8088 16.1667C23.615 16.281 23.3916 16.3353 23.1669 16.3227C22.8654 16.3055 22.5831 16.1693 22.3819 15.944C22.1808 15.7187 22.0774 15.4227 22.0944 15.1212C22.1073 14.8965 22.1866 14.6808 22.3221 14.5011C22.4576 14.3215 22.6433 14.186 22.8558 14.1119C23.0682 14.0378 23.2979 14.0283 23.5157 14.0847C23.7336 14.141 23.9298 14.2607 24.0797 14.4286C24.2295 14.5965 24.3262 14.805 24.3576 15.0278C24.389 15.2506 24.3536 15.4778 24.2559 15.6805C24.1582 15.8832 24.0026 16.0524 23.8088 16.1667Z" fill="white"/>
<path d="M17.0008 27.9405C17.2018 27.8392 17.3683 27.6805 17.4791 27.4846C17.5899 27.2886 17.6401 27.0642 17.6234 26.8397C17.6067 26.6153 17.5237 26.4008 17.3851 26.2234C17.2465 26.0461 17.0583 25.9138 16.8445 25.8434C16.6307 25.7729 16.4008 25.7675 16.1839 25.8277C15.967 25.888 15.7729 26.0112 15.626 26.1818C15.4791 26.3524 15.3861 26.5627 15.3588 26.7861C15.3315 27.0096 15.371 27.2361 15.4725 27.4371C15.6084 27.7065 15.8458 27.9108 16.1324 28.0053C16.419 28.0997 16.7314 28.0764 17.0008 27.9405Z" fill="white"/>
<path d="M23.5921 19.2014C23.5571 18.7722 23.6662 18.3435 23.9023 17.9833C24.0787 17.7144 24.3193 17.4936 24.6024 17.3409C24.8855 17.1882 25.2021 17.1084 25.5237 17.1086C25.9544 17.1092 26.3726 17.2533 26.7121 17.5183C27.0516 17.7832 27.293 18.1538 27.3982 18.5715C27.5034 18.9891 27.4663 19.4299 27.2928 19.824C27.1193 20.2182 26.8192 20.5432 26.4402 20.7477C26.0612 20.9522 25.6248 21.0244 25.2001 20.9529C24.7754 20.8815 24.3867 20.6704 24.0954 20.3532C23.8042 20.036 23.6271 19.6306 23.5921 19.2014Z" fill="white"/>
<path d="M27.2677 26.0778C27.1126 25.7703 26.8783 25.5097 26.5889 25.323C26.2995 25.1363 25.9655 25.0301 25.6214 25.0155C25.2773 25.0009 24.9356 25.0784 24.6314 25.24C24.3273 25.4015 24.0717 25.6413 23.8912 25.9346C23.7106 26.2278 23.6116 26.564 23.6043 26.9083C23.597 27.2526 23.6817 27.5927 23.8496 27.8933C24.0176 28.194 24.2628 28.4444 24.5598 28.6187C24.8568 28.793 25.195 28.8849 25.5394 28.8849C25.8424 28.8828 26.1407 28.8104 26.4109 28.6734C26.868 28.442 27.2148 28.039 27.3753 27.5525C27.5359 27.0661 27.4972 26.5358 27.2677 26.0778Z" fill="white"/>
<path d="M30.0164 25.7558C30.2415 25.754 30.4621 25.8189 30.6502 25.9424C30.9021 26.1085 31.0779 26.3675 31.1392 26.6629C31.2005 26.9583 31.1422 27.2659 30.9771 27.5184C30.8535 27.7066 30.677 27.8539 30.4697 27.9417C30.2625 28.0295 30.0339 28.0539 29.8127 28.0118C29.5916 27.9697 29.388 27.863 29.2275 27.7051C29.0671 27.5472 28.957 27.3453 28.9113 27.1249C28.8656 26.9045 28.8863 26.6755 28.9707 26.4669C29.0552 26.2582 29.1996 26.0793 29.3857 25.9527C29.5719 25.8262 29.7913 25.7576 30.0164 25.7558Z" fill="white"/>
<path d="M34.3565 23.0348C34.3672 22.844 34.3212 22.6542 34.2241 22.4895C34.1271 22.3248 33.9834 22.1926 33.8112 22.1096C33.639 22.0266 33.4461 21.9964 33.2568 22.023C33.0675 22.0496 32.8903 22.1318 32.7477 22.259C32.605 22.3863 32.5033 22.553 32.4554 22.738C32.4075 22.9231 32.4155 23.1182 32.4785 23.2987C32.5414 23.4792 32.6565 23.637 32.8091 23.7521C32.9617 23.8672 33.145 23.9345 33.3358 23.9455C33.5919 23.9599 33.8432 23.8721 34.0346 23.7014C34.226 23.5306 34.3417 23.2909 34.3565 23.0348Z" fill="white"/>
<path d="M36.681 22.4317C36.7878 22.3689 36.9108 22.3392 37.0344 22.3463C37.2001 22.3561 37.3551 22.4312 37.4655 22.5551C37.576 22.679 37.6328 22.8417 37.6235 23.0074C37.6164 23.131 37.5728 23.2498 37.4982 23.3486C37.4236 23.4475 37.3214 23.522 37.2044 23.5627C37.0875 23.6035 36.9611 23.6086 36.8412 23.5775C36.7213 23.5464 36.6134 23.4805 36.531 23.388C36.4486 23.2956 36.3954 23.1808 36.3783 23.0581C36.3611 22.9355 36.3808 22.8105 36.4347 22.699C36.4885 22.5875 36.5743 22.4944 36.681 22.4317Z" fill="white"/>
<path d="M34.5131 28.5551C34.3813 28.4688 34.2269 28.4235 34.0695 28.4249C33.912 28.4264 33.7584 28.4744 33.6283 28.5631C33.4981 28.6518 33.3972 28.7771 33.3382 28.9231C33.2792 29.0691 33.2649 29.2294 33.297 29.3836C33.329 29.5378 33.4061 29.679 33.5184 29.7894C33.6308 29.8998 33.7733 29.9744 33.928 30.0038C34.0827 30.0332 34.2427 30.016 34.3877 29.9545C34.5327 29.893 34.6562 29.7899 34.7426 29.6583C34.8 29.5708 34.8396 29.4728 34.8591 29.37C34.8787 29.2672 34.8778 29.1616 34.8564 29.0591C34.8351 28.9567 34.7938 28.8594 34.7349 28.7729C34.676 28.6864 34.6006 28.6124 34.5131 28.5551Z" fill="white"/>
<path d="M16.3951 34.2983C16.5189 34.2973 16.6403 34.333 16.7438 34.4009C16.8126 34.446 16.8718 34.5043 16.918 34.5723C16.9643 34.6403 16.9967 34.7168 17.0134 34.7973C17.0301 34.8779 17.0308 34.9609 17.0154 35.0417C17 35.1225 16.9688 35.1995 16.9236 35.2682C16.8556 35.3717 16.7585 35.4527 16.6445 35.501C16.5304 35.5493 16.4046 35.5627 16.283 35.5395C16.1614 35.5163 16.0493 35.4576 15.9611 35.3707C15.8728 35.2839 15.8123 35.1728 15.7872 35.0515C15.762 34.9303 15.7734 34.8043 15.8199 34.6895C15.8663 34.5747 15.9458 34.4763 16.0482 34.4067C16.1505 34.337 16.2713 34.2993 16.3951 34.2983Z" fill="white"/>
<path d="M29.8676 34.3354C29.757 34.3911 29.6654 34.4784 29.6044 34.5862C29.5434 34.694 29.5158 34.8175 29.525 34.941C29.5341 35.0645 29.5798 35.1825 29.656 35.2801C29.7323 35.3777 29.8358 35.4504 29.9534 35.4892C30.071 35.528 30.1975 35.531 30.3168 35.4979C30.4362 35.4647 30.543 35.397 30.6238 35.3031C30.7047 35.2093 30.7558 35.0936 30.7709 34.9706C30.7859 34.8477 30.7642 34.7231 30.7084 34.6125C30.6715 34.539 30.6204 34.4735 30.5582 34.4198C30.4959 34.3661 30.4236 34.3252 30.3455 34.2994C30.2674 34.2737 30.185 34.2636 30.1029 34.2698C30.0209 34.2759 29.9409 34.2982 29.8676 34.3354Z" fill="white"/>
<path d="M22.9051 26.7985C22.9402 27.2278 22.831 27.6564 22.5949 28.0167C22.4194 28.2862 22.1791 28.5075 21.896 28.6602C21.613 28.813 21.2962 28.8925 20.9745 28.8914C20.5438 28.8911 20.1255 28.7471 19.7859 28.4823C19.4462 28.2175 19.2046 27.8469 19.0992 27.4293C18.9938 27.0117 19.0308 26.5709 19.2042 26.1766C19.3776 25.7823 19.6775 25.4572 20.0565 25.2526C20.4355 25.048 20.872 24.9756 21.2967 25.047C21.7215 25.1184 22.1103 25.3294 22.4016 25.6466C22.6929 25.9639 22.8701 26.3692 22.9051 26.7985Z" fill="white"/>
<path d="M18.7268 30.9878C18.5668 30.8832 18.3794 30.8283 18.1883 30.8301C17.9971 30.8319 17.8108 30.8904 17.6529 30.9981C17.495 31.1058 17.3725 31.2579 17.301 31.4352C17.2295 31.6125 17.2122 31.807 17.2512 31.9941C17.2902 32.1813 17.3839 32.3526 17.5203 32.4866C17.6567 32.6205 17.8297 32.711 18.0175 32.7466C18.2053 32.7822 18.3995 32.7613 18.5754 32.6866C18.7514 32.6119 18.9012 32.4867 19.006 32.3268C19.1464 32.1122 19.1959 31.8506 19.1435 31.5995C19.0912 31.3485 18.9413 31.1284 18.7268 30.9878Z" fill="white"/>
<path d="M22.7907 34.8017C22.9264 34.7217 23.0828 34.6839 23.24 34.6928C23.3445 34.6988 23.4467 34.7252 23.541 34.7707C23.6352 34.8162 23.7195 34.8798 23.7892 34.9579C23.8588 35.036 23.9124 35.127 23.9468 35.2258C23.9813 35.3246 23.9959 35.4292 23.9899 35.5337C23.9809 35.6909 23.9254 35.8419 23.8305 35.9677C23.7357 36.0934 23.6057 36.1882 23.4569 36.24C23.3082 36.2919 23.1475 36.2985 22.995 36.2589C22.8425 36.2194 22.7052 36.1356 22.6004 36.0181C22.4955 35.9005 22.4279 35.7545 22.406 35.5986C22.3842 35.4426 22.409 35.2836 22.4775 35.1418C22.546 34.9999 22.6549 34.8816 22.7907 34.8017Z" fill="white"/>
<path d="M23.2483 29.6814C23.0234 29.6677 22.7996 29.7211 22.605 29.8347C22.4105 29.9484 22.2541 30.1172 22.1557 30.3199C22.0572 30.5225 22.0211 30.7498 22.0519 30.9729C22.0827 31.1961 22.179 31.4051 22.3287 31.5735C22.4784 31.7418 22.6746 31.862 22.8927 31.9187C23.1107 31.9755 23.3407 31.9662 23.5534 31.8922C23.7662 31.8181 23.9522 31.6825 24.0878 31.5027C24.2235 31.3228 24.3027 31.1068 24.3155 30.8818C24.3328 30.5812 24.2302 30.286 24.0301 30.0609C23.8301 29.8358 23.5489 29.6993 23.2483 29.6814Z" fill="white"/>
<path d="M27.4974 31.2994C27.5913 31.1325 27.7325 30.9971 27.9033 30.9105C28.0164 30.8528 28.1398 30.8179 28.2663 30.808C28.3929 30.798 28.5202 30.8131 28.641 30.8524C28.7617 30.8917 28.8735 30.9544 28.97 31.037C29.0665 31.1195 29.1457 31.2203 29.2032 31.3335C29.2902 31.5041 29.3247 31.6967 29.3023 31.8869C29.2799 32.0771 29.2015 32.2563 29.0772 32.402C28.9528 32.5476 28.788 32.6531 28.6037 32.705C28.4194 32.757 28.2238 32.753 28.0417 32.6938C27.8596 32.6345 27.6991 32.5225 27.5807 32.3721C27.4622 32.2216 27.3911 32.0393 27.3763 31.8484C27.3615 31.6574 27.4036 31.4664 27.4974 31.2994Z" fill="white"/>
</svg>
