<svg width="37" height="46" viewBox="0 0 37 46" fill="none" xmlns="http://www.w3.org/2000/svg">
<path d="M36.3163 28.551C33.2472 40.8649 20.7753 48.3843 8.4388 45.3133C-3.87515 42.2348 -11.3824 29.7629 -8.31329 17.449C-5.2442 5.13505 7.22019 -2.38426 19.5266 0.686691C31.8707 3.72001 39.3779 16.2296 36.3163 28.551Z" fill="#F7931A"/>
<path d="M24.8915 19.9787C25.3049 16.9121 22.9749 15.3111 19.7804 14.2287L20.7726 10.0797L18.2471 9.47088L17.285 13.5297C16.616 13.3719 15.9396 13.214 15.2706 13.0787L16.2327 9.0199L13.6771 8.41107L12.685 12.5601C12.1438 12.4323 11.5951 12.3346 11.0539 12.2068L7.57387 11.3725L6.93498 14.0559C6.93498 14.0559 8.82158 14.4693 8.75394 14.5068C9.77616 14.7624 9.97158 15.4313 9.934 15.9425L8.81407 20.6702C8.88172 20.7003 8.97191 20.7003 9.06962 20.768C8.97191 20.7379 8.91178 20.7379 8.81407 20.7078L7.28074 27.3222C7.15296 27.6379 6.82976 28.0889 6.13074 27.931C6.1608 27.9611 4.2742 27.4801 4.2742 27.4801L3.0791 30.3889L6.37126 31.1556C6.98008 31.3134 7.58891 31.4412 8.16015 31.6065L7.16799 35.7931L9.69348 36.402L10.6856 32.2529C11.3922 32.4409 12.0611 32.6062 12.7 32.7641L11.7079 36.883L14.2333 37.4918L15.2255 33.3052C19.5399 34.0719 22.7644 33.7186 24.0722 29.7876C25.1245 26.6533 23.9745 24.8644 21.6745 23.6843C23.3582 23.301 24.5758 22.2111 24.8915 19.9787ZM19.2092 28.1189C18.4726 31.2533 13.1735 29.6222 11.4749 29.2088L12.7827 23.6467C14.5115 24.0676 19.9758 24.8343 19.2092 28.1189ZM19.9082 19.9787C19.2392 22.8199 14.8271 21.4519 13.3915 21.0987L14.6092 16.0552C16.0147 16.401 20.6147 17.0098 19.9082 19.9787Z" fill="white"/>
</svg>
