<svg width="135" height="89" viewBox="0 0 135 89" fill="none" xmlns="http://www.w3.org/2000/svg">
<path d="M110.592 6H109.248V1.84L108.192 2.656L107.496 1.704L109.36 0.336H110.592V6ZM118.772 1.408L116.604 6H115.044L117.34 1.488H114.66V0.336H118.772V1.408ZM124.128 3.152C124.128 4.76 123.52 6.152 121.92 6.152C120.312 6.152 119.696 4.76 119.696 3.152C119.696 1.552 120.312 0.184 121.92 0.184C123.52 0.184 124.128 1.552 124.128 3.152ZM122.752 3.152C122.752 2.44 122.624 1.32 121.92 1.32C121.208 1.32 121.072 2.44 121.072 3.152C121.072 3.88 121.208 5 121.92 5C122.624 5 122.752 3.88 122.752 3.152ZM129.3 3.152C129.3 4.76 128.692 6.152 127.092 6.152C125.484 6.152 124.868 4.76 124.868 3.152C124.868 1.552 125.484 0.184 127.092 0.184C128.692 0.184 129.3 1.552 129.3 3.152ZM127.924 3.152C127.924 2.44 127.796 1.32 127.092 1.32C126.38 1.32 126.244 2.44 126.244 3.152C126.244 3.88 126.38 5 127.092 5C127.796 5 127.924 3.88 127.924 3.152ZM134.56 4.08H132.864V5.752H131.824V4.08H130.12V3.072H131.816V1.4H132.856V3.072H134.56V4.08Z" fill="#6CFF87"/>
<path d="M6.488 3.144C6.488 4.936 5.176 6.152 3.4 6.152C1.632 6.152 0.32 4.936 0.32 3.144C0.32 1.328 1.632 0.184 3.4 0.184C5.176 0.184 6.488 1.328 6.488 3.144ZM5.024 3.144C5.024 2.152 4.36 1.416 3.4 1.416C2.44 1.416 1.784 2.152 1.784 3.144C1.784 4.168 2.448 4.904 3.4 4.904C4.352 4.904 5.024 4.168 5.024 3.144ZM12.2869 0.336L10.1029 6H8.73494L6.59094 0.336H8.12694L9.43894 4.352H9.47094L10.7749 0.336H12.2869ZM17.8659 6H16.3459L15.9059 4.888H13.7139L13.2979 6H11.8099L14.1859 0.336H15.5139L17.8659 6ZM15.5299 3.792L14.8259 1.848L14.1059 3.792H15.5299ZM23.438 6H21.75L20.51 4L19.318 6H17.686L19.67 3.008L17.846 0.336H19.494L20.55 2.096L21.59 0.336H23.182L21.39 3.008L23.438 6ZM30.8973 5.656C30.3453 5.944 29.5853 6.144 28.7133 6.144C26.9053 6.144 25.6013 4.944 25.6013 3.16C25.6013 1.344 26.9453 0.184 28.6733 0.184C29.5613 0.184 30.3853 0.48 30.8573 0.936L29.9933 1.92C29.7293 1.616 29.2733 1.392 28.7213 1.392C27.7613 1.392 27.0573 2.144 27.0573 3.16C27.0573 4.2 27.6733 4.944 28.7853 4.944C29.1053 4.944 29.4013 4.896 29.6413 4.792V3.76H28.5613V2.656H30.8973V5.656ZM35.5817 6H32.0137V0.336H33.3897V4.808H35.5817V6ZM41.8864 3.144C41.8864 4.936 40.5744 6.152 38.7984 6.152C37.0304 6.152 35.7184 4.936 35.7184 3.144C35.7184 1.328 37.0304 0.184 38.7984 0.184C40.5744 0.184 41.8864 1.328 41.8864 3.144ZM40.4224 3.144C40.4224 2.152 39.7584 1.416 38.7984 1.416C37.8384 1.416 37.1824 2.152 37.1824 3.144C37.1824 4.168 37.8464 4.904 38.7984 4.904C39.7504 4.904 40.4224 4.168 40.4224 3.144ZM47.2031 4.352C47.2031 5.584 46.1231 6 45.0431 6H42.7871V0.336H45.0431C45.9231 0.336 46.9711 0.648 46.9711 1.792C46.9711 2.416 46.5951 2.832 46.0431 3.016V3.032C46.6911 3.144 47.2031 3.608 47.2031 4.352ZM45.6511 1.976C45.6511 1.592 45.3551 1.424 44.7791 1.424H44.1071V2.592H44.8431C45.3551 2.592 45.6511 2.376 45.6511 1.976ZM45.8351 4.224C45.8351 3.752 45.4511 3.6 44.8671 3.6H44.1071V4.896H44.8751C45.3071 4.896 45.8351 4.776 45.8351 4.224ZM53.4674 6H51.9474L51.5074 4.888H49.3154L48.8994 6H47.4114L49.7874 0.336H51.1154L53.4674 6ZM51.1314 3.792L50.4274 1.848L49.7074 3.792H51.1314ZM57.5036 6H53.9356V0.336H55.3116V4.808H57.5036V6Z" fill="white" fill-opacity="0.4"/>
<path d="M6.488 85.144C6.488 86.936 5.176 88.152 3.4 88.152C1.632 88.152 0.32 86.936 0.32 85.144C0.32 83.328 1.632 82.184 3.4 82.184C5.176 82.184 6.488 83.328 6.488 85.144ZM5.024 85.144C5.024 84.152 4.36 83.416 3.4 83.416C2.44 83.416 1.784 84.152 1.784 85.144C1.784 86.168 2.448 86.904 3.4 86.904C4.352 86.904 5.024 86.168 5.024 85.144ZM11.1705 83.504H9.5705V88H8.2025V83.504H6.6025V82.336H11.1705V83.504ZM16.7389 88H15.3709V85.632H13.1629V88H11.7949V82.336H13.1629V84.48H15.3709V82.336H16.7389V88ZM21.8563 88H17.9043V82.336H21.7123V83.496H19.2243V84.56H21.5763V85.656H19.2243V86.832H21.8563V88ZM27.3957 88H25.7957L24.5717 85.752H24.1077V88H22.7637V82.336H24.9237C26.0117 82.336 27.0917 82.752 27.0917 84.048C27.0917 84.808 26.6437 85.352 25.9157 85.576L27.3957 88ZM25.7397 84.072C25.7397 83.544 25.2357 83.44 24.8277 83.44H24.0997V84.76H24.7477C25.1877 84.76 25.7397 84.648 25.7397 84.072ZM35.0524 87.216C34.5564 87.792 33.8044 88.152 32.8524 88.152C31.1084 88.152 29.8044 86.936 29.8044 85.16C29.8044 83.344 31.1484 82.184 32.8764 82.184C33.6684 82.184 34.5244 82.472 34.9964 83.016L34.0684 83.944C33.8124 83.592 33.3564 83.424 32.9244 83.424C31.9724 83.424 31.2924 84.16 31.2924 85.16C31.2924 86.192 31.9564 86.896 32.9004 86.896C33.4364 86.896 33.8604 86.656 34.1004 86.32L35.0524 87.216ZM41.4489 85.144C41.4489 86.936 40.1369 88.152 38.3609 88.152C36.5929 88.152 35.2809 86.936 35.2809 85.144C35.2809 83.328 36.5929 82.184 38.3609 82.184C40.1369 82.184 41.4489 83.328 41.4489 85.144ZM39.9849 85.144C39.9849 84.152 39.3209 83.416 38.3609 83.416C37.4009 83.416 36.7449 84.152 36.7449 85.144C36.7449 86.168 37.4089 86.904 38.3609 86.904C39.3129 86.904 39.9849 86.168 39.9849 85.144ZM48.8216 88H47.4856L47.5176 83.992H47.4936L46.0216 88H45.0616L43.6296 83.992H43.6056L43.6376 88H42.3496V82.336H44.2936L45.5816 85.968H45.6136L46.8456 82.336H48.8216V88ZM54.2863 84.08C54.2863 85.392 53.2223 85.864 52.0383 85.864H51.3583V88H49.9903V82.336H52.0703C53.3103 82.336 54.2863 82.784 54.2863 84.08ZM52.9183 84.088C52.9183 83.544 52.4463 83.44 51.9583 83.44H51.3583V84.776H51.9343C52.4463 84.776 52.9183 84.624 52.9183 84.088ZM59.9909 88H58.4709L58.0309 86.888H55.8389L55.4229 88H53.9349L56.3109 82.336H57.6389L59.9909 88ZM57.6549 85.792L56.9509 83.848L56.2309 85.792H57.6549ZM65.611 88H64.059L61.779 84.296H61.755L61.787 88H60.459V82.336H62.019L64.291 86.032H64.315L64.283 82.336H65.611V88ZM71.7073 82.336L69.5313 85.6V88H68.1633V85.6L66.0353 82.336H67.6913L68.8993 84.432L70.1073 82.336H71.7073Z" fill="white" fill-opacity="0.4"/>
<path d="M118.9 85.704V85.72C118.66 86.128 118.348 86.52 117.788 86.52C117.452 86.52 117.22 86.424 116.892 86.216C116.572 86.016 116.332 85.912 116.036 85.912C115.724 85.912 115.524 86.144 115.364 86.472L114.836 85.64C115.084 85.16 115.436 84.848 115.932 84.848C116.276 84.848 116.572 84.952 116.892 85.144C117.252 85.352 117.5 85.464 117.684 85.464C117.98 85.464 118.188 85.184 118.38 84.896L118.9 85.704ZM124.38 86.896H123.604V88H122.348V86.896H119.684V85.768L121.988 82.336H123.596V85.808H124.38V86.896ZM122.356 85.808V83.712H122.332L120.988 85.808H122.356ZM129.456 85.152C129.456 86.76 128.848 88.152 127.248 88.152C125.64 88.152 125.024 86.76 125.024 85.152C125.024 83.552 125.64 82.184 127.248 82.184C128.848 82.184 129.456 83.552 129.456 85.152ZM128.08 85.152C128.08 84.44 127.952 83.32 127.248 83.32C126.536 83.32 126.4 84.44 126.4 85.152C126.4 85.88 126.536 87 127.248 87C127.952 87 128.08 85.88 128.08 85.152ZM134.628 85.152C134.628 86.76 134.02 88.152 132.42 88.152C130.812 88.152 130.196 86.76 130.196 85.152C130.196 83.552 130.812 82.184 132.42 82.184C134.02 82.184 134.628 83.552 134.628 85.152ZM133.252 85.152C133.252 84.44 133.124 83.32 132.42 83.32C131.708 83.32 131.572 84.44 131.572 85.152C131.572 85.88 131.708 87 132.42 87C133.124 87 133.252 85.88 133.252 85.152Z" fill="#FF6C6C"/>
<g clip-path="url(#clip0_68_6030)">
<mask id="path-7-inside-1_68_6030" fill="white">
<path d="M6 7H129V44H6V7Z"/>
</mask>
<path d="M6 44.5H8.5625V43.5H6V44.5ZM13.6875 44.5H18.8125V43.5H13.6875V44.5ZM23.9375 44.5H29.0625V43.5H23.9375V44.5ZM34.1875 44.5H39.3125V43.5H34.1875V44.5ZM44.4375 44.5H49.5625V43.5H44.4375V44.5ZM54.6875 44.5H59.8125V43.5H54.6875V44.5ZM64.9375 44.5H70.0625V43.5H64.9375V44.5ZM75.1875 44.5H80.3125V43.5H75.1875V44.5ZM85.4375 44.5H90.5625V43.5H85.4375V44.5ZM95.6875 44.5H100.812V43.5H95.6875V44.5ZM105.938 44.5H111.062V43.5H105.938V44.5ZM116.188 44.5H121.312V43.5H116.188V44.5ZM126.438 44.5H129V43.5H126.438V44.5ZM6 45H8.5625V43H6V45ZM13.6875 45H18.8125V43H13.6875V45ZM23.9375 45H29.0625V43H23.9375V45ZM34.1875 45H39.3125V43H34.1875V45ZM44.4375 45H49.5625V43H44.4375V45ZM54.6875 45H59.8125V43H54.6875V45ZM64.9375 45H70.0625V43H64.9375V45ZM75.1875 45H80.3125V43H75.1875V45ZM85.4375 45H90.5625V43H85.4375V45ZM95.6875 45H100.812V43H95.6875V45ZM105.938 45H111.062V43H105.938V45ZM116.188 45H121.312V43H116.188V45ZM126.438 45H129V43H126.438V45Z" fill="white" fill-opacity="0.2" mask="url(#path-7-inside-1_68_6030)"/>
<g clip-path="url(#clip1_68_6030)">
<path d="M-0.234863 49.875L8.94949 44.625L19.6646 46.875L31.145 40.125H44.1562L48.7484 30.75L58.3154 33.75L66.3517 30.75L74.388 25.875L84.7204 30.75L92.3741 25.875L103.089 30.75H117.631L125.667 21.75L135.234 25.875" stroke="#6CFF87" stroke-width="1.5" stroke-linecap="round"/>
</g>
<g clip-path="url(#clip2_68_6030)">
<path d="M-0.251465 67.2667L8.35782 63.6H13.2239L26.325 59.5667L34.1857 63.6L43.1693 59.5667L51.4043 63.6L62.2595 56.2667L71.9917 52.9667L83.9698 59.5667L94.4507 56.2667L102.311 59.5667L107.177 47.4667L118.407 52.9667L124.396 59.5667L135.251 56.2667" stroke="#FF6C6C" stroke-width="1.5" stroke-linecap="round"/>
</g>
</g>
<rect x="0.5" y="14.5" width="134" height="59" rx="7.5" stroke="white" stroke-opacity="0.2" stroke-dasharray="5 5"/>
<defs>
<clipPath id="clip0_68_6030">
<rect y="14" width="135" height="60" rx="8" fill="white"/>
</clipPath>
<clipPath id="clip1_68_6030">
<rect width="137" height="30" fill="white" transform="translate(-1 21)"/>
</clipPath>
<clipPath id="clip2_68_6030">
<rect width="137" height="22" fill="white" transform="translate(-1 46)"/>
</clipPath>
</defs>
</svg>
