<svg width="40" height="40" viewBox="0 0 40 40" fill="none" xmlns="http://www.w3.org/2000/svg">
<path d="M3.00562 36.9973H37.0001" stroke="url(#paint0_linear_2001_277)" stroke-width="2" stroke-miterlimit="10" stroke-linecap="round"/>
<path d="M16.2576 36.7812V16.6871C16.2576 15.4938 17.225 14.5264 18.4182 14.5264H21.5872C22.7805 14.5264 23.7479 15.4938 23.7479 16.6871V30.5153" stroke="url(#paint1_linear_2001_277)" stroke-width="2" stroke-miterlimit="10" stroke-linecap="round" stroke-linejoin="round"/>
<path d="M3.00562 36.9973V26.6981C3.00562 25.5049 3.97302 24.5375 5.16628 24.5375H8.33525C9.52852 24.5375 10.4959 25.5049 10.4959 26.6981V30.5153" stroke="url(#paint2_linear_2001_277)" stroke-width="2" stroke-miterlimit="10" stroke-linecap="round" stroke-linejoin="round"/>
<path d="M29.5098 36.7812V5.16353C29.5098 3.97027 30.4772 3.00287 31.6704 3.00287H34.8394C36.0327 3.00287 37.0001 3.97027 37.0001 5.16353V30.5153" stroke="url(#paint3_linear_2001_277)" stroke-width="2" stroke-miterlimit="10" stroke-linecap="round" stroke-linejoin="round"/>
<path d="M9.41554 7.40452C9.41554 6.21385 8.41774 5.30752 7.2288 5.30752H5.98058C4.53409 5.30752 3.36949 6.43049 3.36949 7.87914V7.98365C3.36949 9.43237 4.53409 10.5651 5.98058 10.5651H7.30053C8.7471 10.5651 9.91969 11.7812 9.91969 13.2298V13.3559C9.91969 14.8046 8.7471 15.8948 7.30053 15.8948H5.15543C3.96649 15.8948 3.00269 14.9968 3.00269 13.8061" stroke="url(#paint4_linear_2001_277)" stroke-width="2" stroke-miterlimit="10" stroke-linecap="round" stroke-linejoin="round"/>
<path d="M6.46118 3.00302V5.08936" stroke="url(#paint5_linear_2001_277)" stroke-width="2" stroke-miterlimit="10" stroke-linecap="round" stroke-linejoin="round"/>
<path d="M6.46118 16.2934V18.1274" stroke="url(#paint6_linear_2001_277)" stroke-width="2" stroke-miterlimit="10" stroke-linecap="round" stroke-linejoin="round"/>
<defs>
<linearGradient id="paint0_linear_2001_277" x1="3.00562" y1="36.4973" x2="37.0001" y2="36.4973" gradientUnits="userSpaceOnUse">
<stop stop-color="#87AEDB"/>
<stop offset="1" stop-color="#C9E1FF"/>
</linearGradient>
<linearGradient id="paint1_linear_2001_277" x1="16.2576" y1="25.6538" x2="23.7479" y2="25.6538" gradientUnits="userSpaceOnUse">
<stop stop-color="#87AEDB"/>
<stop offset="1" stop-color="#C9E1FF"/>
</linearGradient>
<linearGradient id="paint2_linear_2001_277" x1="3.00562" y1="30.7674" x2="10.4959" y2="30.7674" gradientUnits="userSpaceOnUse">
<stop stop-color="#87AEDB"/>
<stop offset="1" stop-color="#C9E1FF"/>
</linearGradient>
<linearGradient id="paint3_linear_2001_277" x1="29.5098" y1="19.8921" x2="37.0001" y2="19.8921" gradientUnits="userSpaceOnUse">
<stop stop-color="#87AEDB"/>
<stop offset="1" stop-color="#C9E1FF"/>
</linearGradient>
<linearGradient id="paint4_linear_2001_277" x1="3.00269" y1="10.6011" x2="9.91969" y2="10.6011" gradientUnits="userSpaceOnUse">
<stop stop-color="#87AEDB"/>
<stop offset="1" stop-color="#C9E1FF"/>
</linearGradient>
<linearGradient id="paint5_linear_2001_277" x1="6.46118" y1="4.04619" x2="7.46118" y2="4.04619" gradientUnits="userSpaceOnUse">
<stop stop-color="#87AEDB"/>
<stop offset="1" stop-color="#C9E1FF"/>
</linearGradient>
<linearGradient id="paint6_linear_2001_277" x1="6.46118" y1="17.2104" x2="7.46118" y2="17.2104" gradientUnits="userSpaceOnUse">
<stop stop-color="#87AEDB"/>
<stop offset="1" stop-color="#C9E1FF"/>
</linearGradient>
</defs>
</svg>
