<svg width="40" height="40" viewBox="0 0 40 40" fill="none" xmlns="http://www.w3.org/2000/svg">
<g clip-path="url(#clip0_2001_379)">
<path d="M29.3563 24.8913C31.0084 27.2162 30.7923 30.4612 28.708 32.5455L22.7976 38.456L22.1027 37.7612C19.9958 35.6542 19.1208 32.7818 19.4777 30.0391M14.8599 10.3616C12.5276 8.61233 9.20375 8.79843 7.08234 10.9198L1.17188 16.8303L1.86672 17.5251C3.97648 19.6349 6.85383 20.5094 9.59984 20.1487" stroke="url(#paint0_linear_2001_379)" stroke-width="2" stroke-miterlimit="10" stroke-linecap="round" stroke-linejoin="round"/>
<path d="M27.5751 3.01996L37.0742 12.5189M37.186 12.6309C34.7118 19.7344 29.5663 25.774 22.6028 29.2927L21.4919 29.854L15.1643 30.8226L8.80518 24.4635L9.77377 18.1359L9.95877 17.7698C13.6231 10.5181 20.0096 5.25598 27.4631 2.90801C31.1129 1.75801 34.9514 1.32887 38.765 1.6445L38.8008 1.64746C38.9641 5.44903 38.3928 9.16645 37.186 12.6309Z" stroke="url(#paint1_linear_2001_379)" stroke-width="2" stroke-miterlimit="10" stroke-linecap="round" stroke-linejoin="round"/>
<path d="M24.0952 19.4983C26.028 19.4983 27.5948 17.9315 27.5948 15.9988C27.5948 14.0661 26.028 12.4993 24.0952 12.4993C22.1625 12.4993 20.5957 14.0661 20.5957 15.9988C20.5957 17.9315 22.1625 19.4983 24.0952 19.4983Z" stroke="url(#paint2_linear_2001_379)" stroke-width="2" stroke-miterlimit="10" stroke-linecap="round" stroke-linejoin="round"/>
<path d="M21.3239 29.6862L9.94149 18.3037M8.78985 31.1615L5.01907 34.9324M5.43321 27.8049L1.66235 31.5757M12.1465 34.5182L8.37571 38.289" stroke="url(#paint3_linear_2001_379)" stroke-width="2" stroke-miterlimit="10" stroke-linecap="round" stroke-linejoin="round"/>
</g>
<defs>
<linearGradient id="paint0_linear_2001_379" x1="1.17188" y1="23.8159" x2="30.4521" y2="23.8159" gradientUnits="userSpaceOnUse">
<stop stop-color="#87AEDB"/>
<stop offset="1" stop-color="#C9E1FF"/>
</linearGradient>
<linearGradient id="paint1_linear_2001_379" x1="8.80518" y1="16.1833" x2="38.8282" y2="16.1833" gradientUnits="userSpaceOnUse">
<stop stop-color="#87AEDB"/>
<stop offset="1" stop-color="#C9E1FF"/>
</linearGradient>
<linearGradient id="paint2_linear_2001_379" x1="20.5957" y1="15.9988" x2="27.5948" y2="15.9988" gradientUnits="userSpaceOnUse">
<stop stop-color="#87AEDB"/>
<stop offset="1" stop-color="#C9E1FF"/>
</linearGradient>
<linearGradient id="paint3_linear_2001_379" x1="1.66235" y1="28.2964" x2="21.3239" y2="28.2964" gradientUnits="userSpaceOnUse">
<stop stop-color="#87AEDB"/>
<stop offset="1" stop-color="#C9E1FF"/>
</linearGradient>
<clipPath id="clip0_2001_379">
<rect width="40" height="40" fill="white"/>
</clipPath>
</defs>
</svg>
