<svg width="41" height="40" viewBox="0 0 41 40" fill="none" xmlns="http://www.w3.org/2000/svg">
<g clip-path="url(#clip0_2001_180)">
<path d="M18.6665 8.62969C17.3157 7.9125 16.397 6.49141 16.397 4.85625C16.397 2.49766 18.3079 0.585938 20.6665 0.585938C21.5204 0.585938 22.3157 0.836719 22.9821 1.26797M24.6274 3.25781C24.8321 3.76584 24.9369 4.30856 24.936 4.85625C24.936 6.49141 24.0173 7.9125 22.6665 8.62969" stroke="url(#paint0_linear_2001_180)" stroke-width="1.5" stroke-miterlimit="10" stroke-linecap="round" stroke-linejoin="round"/>
<path d="M21.3964 3.20388C21.3263 3.14552 20.9247 2.84271 20.3357 3.02021C19.7389 3.19997 19.5906 4.01661 19.9962 4.33474C20.2291 4.51739 20.5795 4.66755 21.0518 4.8345C22.1087 5.2081 21.718 6.69872 20.6429 6.70591C20.2233 6.70872 20.0272 6.68208 19.6586 6.44099M20.6425 7.24981V6.70583M20.6425 2.96646V2.46216M14.4961 15.5858H32.1961C32.904 15.5858 33.4782 15.0116 33.4782 14.3038C33.4782 13.9499 33.3344 13.6296 33.1024 13.3975C32.8704 13.1655 32.55 13.0218 32.1961 13.0218H9.13677C8.42895 13.0218 7.85474 13.596 7.85474 14.3038C7.85474 14.6577 7.99849 14.978 8.23052 15.21C8.46255 15.4421 8.78286 15.5858 9.13677 15.5858H11.7618" stroke="url(#paint1_linear_2001_180)" stroke-width="1.5" stroke-miterlimit="10" stroke-linecap="round" stroke-linejoin="round"/>
<path d="M31.8534 13.0222V10.6086C31.8534 9.51599 30.9677 8.63013 29.8749 8.63013H11.4588C10.3662 8.63013 9.48032 9.51591 9.48032 10.6086V13.0222M31.8534 15.5861V17.347C31.8534 18.0815 32.3109 18.7298 32.9934 19.001C35.554 20.0183 37.3639 22.5184 37.3639 25.4415V32.4729C37.3639 36.2986 34.2627 39.3998 30.437 39.3998H10.8967C7.07064 39.3998 3.96899 36.2982 3.96899 32.4721V25.4415C3.96899 22.5184 5.77954 20.0183 8.34032 19.001C9.0229 18.7298 9.48032 18.0815 9.48032 17.347V15.5861" stroke="url(#paint2_linear_2001_180)" stroke-width="1.5" stroke-miterlimit="10" stroke-linecap="round" stroke-linejoin="round"/>
<path d="M28.9587 39.2657C28.8252 39.3531 28.6691 39.3995 28.5095 39.3993H21.6103C21.1572 39.3993 20.79 39.0321 20.79 38.579V37.1618C20.79 36.7087 21.1572 36.3415 21.6103 36.3415H25.9259H19.1423C18.6892 36.3415 18.322 35.9743 18.322 35.5212V34.104C18.322 33.6517 18.6892 33.2837 19.1423 33.2837H26.0416C26.0837 33.2837 26.1244 33.2868 26.165 33.2931" stroke="url(#paint3_linear_2001_180)" stroke-width="1.5" stroke-miterlimit="10" stroke-linecap="round" stroke-linejoin="round"/>
<path d="M29.3196 30.9171C29.2571 30.5257 28.9188 30.2265 28.5095 30.2265H21.6102C21.1571 30.2265 20.7899 30.5937 20.7899 31.0468V32.464C20.7899 32.9164 21.1571 33.2835 21.6102 33.2835H26.1696M23.6712 27.1687H26.4204C26.8735 27.1687 27.2407 27.5359 27.2407 27.989V29.4062C27.2407 29.8593 26.8735 30.2265 26.4204 30.2265H19.5212C19.0681 30.2265 18.7009 29.8593 18.7009 29.4062V27.989C18.7009 27.5359 19.0681 27.1687 19.5212 27.1687H20.9368M16.1334 31.5057L12.6605 37.4673C12.4324 37.8588 12.5649 38.361 12.9563 38.589L14.1808 39.3023C14.5723 39.5303 15.0745 39.3978 15.3025 39.0064L18.7756 33.0449C19.0036 32.6534 18.8711 32.1512 18.4797 31.9232L17.2552 31.2099C16.8637 30.9818 16.3615 31.1142 16.1334 31.5057ZM12.4568 32.2977L6.17665 35.1546C5.7643 35.3422 5.58204 35.8286 5.76961 36.241L6.35641 37.5308C6.54399 37.9432 7.0304 38.1254 7.44274 37.9378L13.7229 35.0809C14.1352 34.8933 14.3175 34.4069 14.1299 33.9946L13.5431 32.7047C13.3556 32.2923 12.8691 32.1101 12.4568 32.2977Z" stroke="url(#paint4_linear_2001_180)" stroke-width="1.5" stroke-miterlimit="10" stroke-linecap="round" stroke-linejoin="round"/>
<path d="M30.021 39.3991C32.3792 39.3991 34.291 37.4874 34.291 35.1291C34.291 32.7709 32.3792 30.8591 30.021 30.8591C27.6627 30.8591 25.751 32.7709 25.751 35.1291C25.751 37.4874 27.6627 39.3991 30.021 39.3991Z" stroke="url(#paint5_linear_2001_180)" stroke-width="1.5" stroke-miterlimit="10" stroke-linecap="round" stroke-linejoin="round"/>
<path d="M30.751 33.4771C30.6809 33.4187 30.2794 33.116 29.6903 33.2934C29.0935 33.4732 28.9452 34.2898 29.3508 34.6079C29.5837 34.7906 29.9341 34.9407 30.4064 35.1077C31.4633 35.4813 31.0726 36.9719 29.9975 36.9791C29.5779 36.9819 29.3818 36.9553 29.0132 36.7142M29.9972 37.523V36.979M29.9972 33.2397V32.7354" stroke="url(#paint6_linear_2001_180)" stroke-width="1.5" stroke-miterlimit="10" stroke-linecap="round" stroke-linejoin="round"/>
</g>
<defs>
<linearGradient id="paint0_linear_2001_180" x1="16.397" y1="4.60781" x2="24.936" y2="4.60781" gradientUnits="userSpaceOnUse">
<stop stop-color="#87AEDB"/>
<stop offset="1" stop-color="#C9E1FF"/>
</linearGradient>
<linearGradient id="paint1_linear_2001_180" x1="7.85474" y1="9.02399" x2="33.4782" y2="9.02399" gradientUnits="userSpaceOnUse">
<stop stop-color="#87AEDB"/>
<stop offset="1" stop-color="#C9E1FF"/>
</linearGradient>
<linearGradient id="paint2_linear_2001_180" x1="3.96899" y1="24.015" x2="37.3639" y2="24.015" gradientUnits="userSpaceOnUse">
<stop stop-color="#87AEDB"/>
<stop offset="1" stop-color="#C9E1FF"/>
</linearGradient>
<linearGradient id="paint3_linear_2001_180" x1="18.322" y1="36.3415" x2="28.9587" y2="36.3415" gradientUnits="userSpaceOnUse">
<stop stop-color="#87AEDB"/>
<stop offset="1" stop-color="#C9E1FF"/>
</linearGradient>
<linearGradient id="paint4_linear_2001_180" x1="5.6958" y1="33.2913" x2="29.3196" y2="33.2913" gradientUnits="userSpaceOnUse">
<stop stop-color="#87AEDB"/>
<stop offset="1" stop-color="#C9E1FF"/>
</linearGradient>
<linearGradient id="paint5_linear_2001_180" x1="25.751" y1="35.1291" x2="34.291" y2="35.1291" gradientUnits="userSpaceOnUse">
<stop stop-color="#87AEDB"/>
<stop offset="1" stop-color="#C9E1FF"/>
</linearGradient>
<linearGradient id="paint6_linear_2001_180" x1="29.0132" y1="35.1292" x2="31.029" y2="35.1292" gradientUnits="userSpaceOnUse">
<stop stop-color="#87AEDB"/>
<stop offset="1" stop-color="#C9E1FF"/>
</linearGradient>
<clipPath id="clip0_2001_180">
<rect width="40" height="40" fill="white" transform="translate(0.666504)"/>
</clipPath>
</defs>
</svg>
