<svg width="20" height="20" viewBox="0 0 20 20" fill="none" xmlns="http://www.w3.org/2000/svg">
<g opacity="0.6" clip-path="url(#clip0_17_22360)">
<mask id="mask0_17_22360" style="mask-type:luminance" maskUnits="userSpaceOnUse" x="0" y="0" width="20" height="20">
<path d="M0.5 19.5V0.5H19.5V19.5H0.5Z" fill="white" stroke="black"/>
</mask>
<g mask="url(#mask0_17_22360)">
<mask id="mask1_17_22360" style="mask-type:luminance" maskUnits="userSpaceOnUse" x="1" y="1" width="18" height="18">
<path d="M18.5001 18.5V1.49993H1.5V18.5H18.5001Z" fill="white" stroke="white"/>
</mask>
<g mask="url(#mask1_17_22360)">
<path d="M18.2618 9.99998C18.2618 9.99998 15.5899 15.625 9.96488 15.625C4.33985 15.625 1.66797 9.99998 1.66797 9.99998C1.66797 9.99998 4.33985 4.37495 9.96488 4.37495C15.5899 4.37495 18.2618 9.99998 18.2618 9.99998Z" stroke="white" stroke-miterlimit="10" stroke-linecap="round" stroke-linejoin="round"/>
<path d="M12.7774 9.99999C12.7774 8.44667 11.5182 7.18748 9.96486 7.18748C8.41154 7.18748 7.15234 8.44667 7.15234 9.99999C7.15234 11.5533 8.41154 12.8125 9.96486 12.8125C11.5182 12.8125 12.7774 11.5533 12.7774 9.99999Z" stroke="white" stroke-miterlimit="10" stroke-linecap="round" stroke-linejoin="round"/>
</g>
</g>
</g>
<defs>
<clipPath id="clip0_17_22360">
<rect width="20" height="20" fill="white"/>
</clipPath>
</defs>
</svg>
