<svg width="39" height="39" viewBox="0 0 39 39" fill="none" xmlns="http://www.w3.org/2000/svg">
<mask id="mask0_2001_38" style="mask-type:luminance" maskUnits="userSpaceOnUse" x="1" y="2" width="36" height="35">
<path d="M36 36V2.99987H2.99988V36H36Z" fill="white" stroke="white" stroke-width="2"/>
</mask>
<g mask="url(#mask0_2001_38)">
<path d="M35.9746 19.4999C35.9746 28.5609 28.5609 35.9746 19.4999 35.9746C10.439 35.9746 3.02527 28.5609 3.02527 19.4999C3.02527 10.439 10.439 3.02527 19.4999 3.02527C28.5609 3.02527 35.9746 10.439 35.9746 19.4999Z" stroke="black" stroke-width="2" stroke-miterlimit="10" stroke-linecap="round" stroke-linejoin="round"/>
<path d="M21.5507 3.15227L22.6787 6.5345C23.1314 7.86478 22.1425 9.24606 20.7372 9.24606H19.4999C18.3673 9.24606 17.4492 10.1642 17.4492 11.2968V11.9881C17.4492 12.7595 17.0751 13.5278 16.3931 13.8776C14.7403 14.7252 13.9725 16.6482 14.8032 18.3096L15.3984 19.5L10.7412 16.3952C9.88086 15.8216 9.5582 14.681 10.056 13.7746C10.7405 12.5281 10.0567 10.9868 8.69236 10.6457L6.05203 10.0028" stroke="black" stroke-width="2" stroke-miterlimit="10" stroke-linecap="round" stroke-linejoin="round"/>
<path d="M20.5253 21.5507C20.8334 22.167 21.3071 22.6852 21.8931 23.0475C22.4792 23.4097 23.1546 23.6015 23.8436 23.6015H25.6523V25.6523C25.6523 26.7943 25.1855 27.8274 24.4323 28.5711C22.2969 30.6795 20.4489 33.1276 19.4999 35.9746L18.7603 34.4954C17.8981 32.7709 17.4491 30.801 17.4491 28.873C17.4491 28.5021 17.3761 28.1348 17.2341 27.7922C17.0922 27.4495 16.8841 27.1381 16.6218 26.8759L15.3983 25.6523L16.0095 25.0411C16.8692 24.1814 17.0824 22.868 16.5387 21.7806L15.3983 19.4999H17.2071C17.896 19.4999 18.5714 19.6918 19.1575 20.054C19.7436 20.4162 20.2172 20.9345 20.5253 21.5507Z" stroke="black" stroke-width="2" stroke-miterlimit="10" stroke-linecap="round" stroke-linejoin="round"/>
<path d="M30.418 7.25377L29.907 8.78673C29.8063 9.08875 29.6367 9.36319 29.4116 9.58832L28.3037 10.6962C28.1133 10.8866 27.9623 11.1127 27.8592 11.3615C27.7561 11.6103 27.7031 11.877 27.7031 12.1463V13.3476C27.7031 14.4802 28.6213 15.3984 29.7539 15.3984C30.8865 15.3984 31.8047 16.3165 31.8047 17.4492V19.0159C31.8047 19.3342 31.7305 19.6482 31.5882 19.933L31.2379 20.6336C30.5561 21.9972 31.5476 23.6016 33.0722 23.6016H35.4578" stroke="black" stroke-width="2" stroke-miterlimit="10" stroke-linecap="round" stroke-linejoin="round"/>
</g>
</svg>
