<?xml version="1.0" standalone="no"?>
  <!DOCTYPE svg PUBLIC "-//W3C//DTD SVG 1.1//EN" "http://www.w3.org/Graphics/SVG/1.1/DTD/svg11.dtd" >
  <svg>
  <metadata>
  Created by font-carrier
  </metadata>
  <defs>
  <font id="FranklinGothic-Medium" horiz-adv-x="2303" vert-adv-y="2303" >
    <font-face
      
      font-family="Franklin Gothic Medium"
      
      font-weight="400"
      
      font-stretch="normal"
      
      units-per-em="2048"
      
      ascent="1877"
      
      descent="-445"
      
    />
      <missing-glyph />

      

      
      <glyph glyph-name="uni21" unicode="&#x21;" d="M437 1365L336 414L232 414L136 1365L437 1365M406 250L406 0L157 0L157 250L406 250Z"  horiz-adv-x="564" vert-adv-y="2048"  />

      
      <glyph glyph-name="uni22" unicode="&#x22;" d="M297 817L140 817L107 1365L331 1365L297 817M634 817L477 817L444 1365L668 1365L634 817Z"  horiz-adv-x="775" vert-adv-y="2048"  />

      
      <glyph glyph-name="uni23" unicode="&#x23;" d="M1151 994L1117 801L918 801L881 592L1080 592L1046 399L846 399L775 0L589 0L660 399L443 399L372 0L184 0L255 401L50 401L84 592L292 592L329 801L121 801L156 994L363 994L429 1365L615 1365L549 994L764 994L830 1365L1016 1365L949 994L1151 994M730 801L514 801L478 592L693 592L730 801Z"  horiz-adv-x="1201" vert-adv-y="2048"  />

      
      <glyph glyph-name="uni24" unicode="&#x24;" d="M659-175L524-175L524 10Q152 41 48 370L263 420Q321 209 524 193L524 588Q259 649 179 742.50Q99 836 99 966Q99 1303 524 1355L524 1499L659 1499L659 1355Q970 1315 1052 1048L849 1005Q797 1159 659 1171L659 822Q855 766 923 736Q991 706 1045.50 619Q1100 532 1100 415Q1100 249 987 139Q874 29 659 10L659-175M524 1171Q437 1170 378.50 1127.50Q320 1085 320 1002Q320 862 524 835L524 1171M659 193Q753 194 816.50 248Q880 302 880 389Q880 535 659 576L659 193Z"  horiz-adv-x="1201" vert-adv-y="2048"  />

      
      <glyph glyph-name="uni25" unicode="&#x25;" d="M382 617Q238 617 151.50 729.50Q65 842 65 1004Q65 1163 152 1270.50Q239 1378 385 1378Q548 1378 626.50 1265Q705 1152 705 1007Q705 827 611 722Q517 617 382 617M383 765Q521 765 521 1005Q521 1233 388 1233Q253 1233 253 1006Q253 765 383 765M1289 1365L444 0L293 0L1141 1365L1289 1365M1189-12Q1054-12 965.50 92.50Q877 197 877 356Q877 539 975.50 644.50Q1074 750 1202 750Q1323 750 1419 652Q1515 554 1515 356Q1515 190 1422.50 89Q1330-12 1189-12M1197 133Q1268 133 1300.50 201.50Q1333 270 1333 359Q1333 488 1301.50 543.50Q1270 599 1205 599Q1063 599 1063 366Q1063 133 1197 133Z"  horiz-adv-x="1580" vert-adv-y="2048"  />

      
      <glyph glyph-name="uni26" unicode="&#x26;" d="M1223 828L1428 792Q1384 500 1185 276Q1255 200 1288.50 183.50Q1322 167 1368 167Q1389 167 1428 172L1428-19L1333-21Q1240-21 1180.50 6Q1121 33 1027 125Q822-21 581-21Q352-21 208.50 102.50Q65 226 65 407Q65 522 132 626Q199 730 420 828Q301 968 301 1087Q301 1220 401 1303Q501 1386 657 1386Q817 1386 919 1306Q1021 1226 1021 1088Q1021 991 952 901Q883 811 755 759L1051 421Q1191 601 1223 828M643 908Q817 981 817 1088Q817 1146 775 1179Q733 1212 676 1212Q618 1212 574.50 1178.50Q531 1145 531 1091Q531 1003 643 908M539 678Q335 586 335 422Q335 312 414.50 245.50Q494 179 615 179Q764 179 896 276L539 678Z"  horiz-adv-x="1468" vert-adv-y="2048"  />

      
      <glyph glyph-name="uni27" unicode="&#x27;" d="M297 817L140 817L107 1365L331 1365L297 817Z"  horiz-adv-x="438" vert-adv-y="2048"  />

      
      <glyph glyph-name="uni28" unicode="&#x28;" d="M545-341L410-341Q66 35 66 530Q66 800 181 1033Q296 1266 410 1365L545 1365Q381 1136 319 936.50Q257 737 257 509Q257 278 335.50 55.50Q414-167 545-341Z"  horiz-adv-x="601" vert-adv-y="2048"  />

      
      <glyph glyph-name="uni29" unicode="&#x29;" d="M55 1365L190 1365Q536 987 536 494Q536 223 419.50-10Q303-243 190-341L55-341Q219-113 281 86.50Q343 286 343 515Q343 974 55 1365Z"  horiz-adv-x="601" vert-adv-y="2048"  />

      
      <glyph glyph-name="uni2a" unicode="&#x2a;" d="M695 1379L671 1037L981 1155L1030 975L714 905L917 654L759 549L601 823L442 549L285 654L487 905L171 975L220 1155L530 1037L507 1379L695 1379Z"  horiz-adv-x="1201" vert-adv-y="2048"  />

      
      <glyph glyph-name="uni2b" unicode="&#x2b;" d="M1107 785L1107 594L696 594L696 169L506 169L506 594L95 594L95 785L506 785L506 1211L696 1211L696 785L1107 785Z"  horiz-adv-x="1201" vert-adv-y="2048"  />

      
      <glyph glyph-name="uni2c" unicode="&#x2c;" d="M371 255L371 26L210-292L122-292L241 0L122 0L122 255L371 255Z"  horiz-adv-x="493" vert-adv-y="2048"  />

      
      <glyph glyph-name="uni2d" unicode="&#x2d;" d="M497 613L497 426L-5 426L-5 613L497 613Z"  horiz-adv-x="493" vert-adv-y="2048"  />

      
      <glyph glyph-name="uni2e" unicode="&#x2e;" d="M370 262L370 0L123 0L123 262L370 262Z"  horiz-adv-x="493" vert-adv-y="2048"  />

      
      <glyph glyph-name="uni2f" unicode="&#x2f;" d="M919 1365L26-341L-116-341L773 1365L919 1365Z"  horiz-adv-x="981" vert-adv-y="2048"  />

      
      <glyph glyph-name="uni30" unicode="&#x30;" d="M598-21Q347-21 211 173.50Q75 368 75 668Q75 992 217.50 1189Q360 1386 600 1386Q773 1386 892.50 1293.50Q1012 1201 1070.50 1036.50Q1129 872 1129 728Q1129 487 1074 332.50Q1019 178 899 78.50Q779-21 598-21M597 172Q701 172 765 236Q829 300 852 415Q875 530 875 733Q875 901 818.50 1052Q762 1203 602 1203Q324 1203 324 689Q324 456 383 314Q442 172 597 172Z"  horiz-adv-x="1201" vert-adv-y="2048"  />

      
      <glyph glyph-name="uni31" unicode="&#x31;" d="M1185 0L140 0L140 201L551 201L551 1063Q346 884 178 817L178 1063Q349 1128 392 1155.50Q435 1183 518 1257.50Q601 1332 635 1393L799 1393L799 201L1185 201L1185 0Z"  horiz-adv-x="1201" vert-adv-y="2048"  />

      
      <glyph glyph-name="uni32" unicode="&#x32;" d="M1092 213L1092 0L86 0L86 239L504 517Q699 647 766 747.50Q833 848 833 932Q833 1033 766 1102Q699 1171 592 1171Q358 1171 323 886L86 945Q113 1127 247.50 1256.50Q382 1386 600 1386Q826 1386 961 1257.50Q1096 1129 1096 931Q1096 756 976 618.50Q856 481 381 213L1092 213Z"  horiz-adv-x="1201" vert-adv-y="2048"  />

      
      <glyph glyph-name="uni33" unicode="&#x33;" d="M431 603L431 797L556 797Q668 797 743 847Q818 897 818 996Q818 1093 754.50 1142Q691 1191 591 1191Q389 1191 316 993L91 1032Q129 1188 266.50 1287Q404 1386 598 1386Q791 1386 927.50 1286.50Q1064 1187 1064 1020Q1064 896 990.50 808Q917 720 809 712Q943 692 1024.50 601Q1106 510 1106 382Q1106 206 964.50 92.50Q823-21 588-21Q371-21 229.50 89.50Q88 200 51 343L284 400Q354 172 586 172Q706 172 779.50 233.50Q853 295 853 382Q853 470 789.50 536.50Q726 603 598 603L431 603Z"  horiz-adv-x="1201" vert-adv-y="2048"  />

      
      <glyph glyph-name="uni34" unicode="&#x34;" d="M928 0L675 0L675 310L69 310L69 490L675 1393L928 1393L928 520L1133 520L1133 310L928 310L928 0M693 1136L306 520L675 520L675 897Q675 957 681 1005L693 1136Z"  horiz-adv-x="1201" vert-adv-y="2048"  />

      
      <glyph glyph-name="uni35" unicode="&#x35;" d="M217 1365L1066 1365L1044 1154L397 1154L359 758Q482 915 680 915Q877 915 1012.50 779Q1148 643 1148 456Q1148 261 1006 120Q864-21 616-21Q419-21 271.50 70Q124 161 80 353L316 388Q385 179 603 179Q737 179 809.50 260Q882 341 882 456Q882 570 810 648.50Q738 727 623 727Q449 727 359 568L139 611L217 1365Z"  horiz-adv-x="1201" vert-adv-y="2048"  />

      
      <glyph glyph-name="uni36" unicode="&#x36;" d="M1087 1054L879 1014Q821 1206 639 1206Q465 1206 395.50 1055.50Q326 905 326 738Q326 705 327 672Q429 877 679 877Q873 877 1003 754Q1133 631 1133 444Q1133 246 994 112.50Q855-21 644-21Q381-21 230.50 164.50Q80 350 80 673Q80 990 227.50 1188Q375 1386 623 1386Q996 1386 1087 1054M635 160Q745 160 820.50 226.50Q896 293 896 430Q896 523 824.50 604Q753 685 626 685Q510 685 439 608Q368 531 368 419Q368 306 441 233Q514 160 635 160Z"  horiz-adv-x="1201" vert-adv-y="2048"  />

      
      <glyph glyph-name="uni37" unicode="&#x37;" d="M125 1365L1094 1365L1094 1191Q842 864 759.50 624Q677 384 660 0L379 0Q414 663 885 1154L104 1154L125 1365Z"  horiz-adv-x="1201" vert-adv-y="2048"  />

      
      <glyph glyph-name="uni38" unicode="&#x38;" d="M347 674Q107 784 107 1001Q107 1169 239.50 1277.50Q372 1386 610 1386Q827 1386 958.50 1289Q1090 1192 1090 1032Q1090 837 847 736Q1144 609 1144 377Q1144 205 995.50 92Q847-21 595-21Q329-21 193.50 83.50Q58 188 58 346Q58 571 347 674M677 807Q866 885 866 1024Q866 1115 789 1165Q712 1215 611 1215Q506 1215 430.50 1170Q355 1125 355 1039Q355 950 437 903Q519 856 677 807M516 593Q416 557 355 493.50Q294 430 294 358Q294 284 370.50 221Q447 158 606 158Q738 158 814.50 209.50Q891 261 891 341Q891 410 827.50 462Q764 514 516 593Z"  horiz-adv-x="1201" vert-adv-y="2048"  />

      
      <glyph glyph-name="uni39" unicode="&#x39;" d="M121 247L327 306Q406 164 557 164Q712 164 795 307Q878 450 880 706Q806 568 714 528.50Q622 489 523 489Q332 489 202.50 609.50Q73 730 73 927Q73 1125 206.50 1255.50Q340 1386 561 1386Q811 1386 964.50 1213.50Q1118 1041 1118 720Q1118 393 970 186Q822-21 552-21Q380-21 268.50 59Q157 139 121 247M567 688Q675 688 756.50 758Q838 828 838 960Q838 1051 767 1125.50Q696 1200 571 1200Q454 1200 380.50 1125.50Q307 1051 307 942Q307 846 375.50 767Q444 688 567 688Z"  horiz-adv-x="1201" vert-adv-y="2048"  />

      
      <glyph glyph-name="uni3a" unicode="&#x3a;" d="M370 943L370 694L123 694L123 943L370 943M370 250L370 0L123 0L123 250L370 250Z"  horiz-adv-x="493" vert-adv-y="2048"  />

      
      <glyph glyph-name="uni3b" unicode="&#x3b;" d="M371 943L371 694L122 694L122 943L371 943M371 255L371 26L210-292L122-292L241 0L122 0L122 255L371 255Z"  horiz-adv-x="493" vert-adv-y="2048"  />

      
      <glyph glyph-name="uni037E" unicode="&#x037E;" d="M371 943L371 694L122 694L122 943L371 943M371 255L371 26L210-292L122-292L241 0L122 0L122 255L371 255Z"  horiz-adv-x="493" vert-adv-y="2048"  />

      
      <glyph glyph-name="uni3c" unicode="&#x3c;" d="M1024 1221L1024 991L383 681L1023 371L1024 142L137 584L137 780L1024 1221Z"  horiz-adv-x="1201" vert-adv-y="2048"  />

      
      <glyph glyph-name="uni3d" unicode="&#x3d;" d="M1107 924L1107 733L95 733L95 924L1107 924M1107 625L1107 434L95 434L95 625L1107 625Z"  horiz-adv-x="1201" vert-adv-y="2048"  />

      
      <glyph glyph-name="uni3e" unicode="&#x3e;" d="M177 142L177 372L819 682L178 993L177 1221L1064 779L1064 583L177 142Z"  horiz-adv-x="1201" vert-adv-y="2048"  />

      
      <glyph glyph-name="uni3f" unicode="&#x3f;" d="M600 392L405 392L405 527Q405 595 432.50 634Q460 673 553 745Q695 854 695 976Q695 1068 639.50 1122Q584 1176 495 1176Q289 1176 252 891L34 930Q54 1143 191.50 1264.50Q329 1386 521 1386Q712 1386 837 1272.50Q962 1159 962 990Q962 906 927.50 830.50Q893 755 849 713.50Q805 672 663 568Q623 539 612 511.50Q601 484 600 392M640 250L640 0L405 0L405 250L640 250Z"  horiz-adv-x="1027" vert-adv-y="2048"  />

      
      <glyph glyph-name="uni40" unicode="&#x40;" d="M1098 1041L1043 575Q1037 526 1037 481Q1037 414 1085 414Q1162 414 1232.50 519.50Q1303 625 1303 775Q1303 992 1146.50 1127.50Q990 1263 767 1263Q522 1263 355.50 1095Q189 927 189 681Q189 451 345.50 281.50Q502 112 785 112Q1005 112 1234 230L1293 94Q1048-31 785-31Q436-31 230.50 179.50Q25 390 25 682Q25 987 241 1192Q457 1397 763 1397Q1051 1397 1247 1220.50Q1443 1044 1443 775Q1443 580 1333 427.50Q1223 275 1065 275Q942 275 895 379Q809 271 685 271Q558 271 467.50 377Q377 483 377 656Q377 834 479 945.50Q581 1057 722 1057Q858 1057 918 971L926 1041L1098 1041M698 434Q778 434 842.50 511.50Q907 589 907 713Q907 783 857.50 838.50Q808 894 736 894Q658 894 607 825.50Q556 757 556 648Q556 555 595.50 494.50Q635 434 698 434Z"  horiz-adv-x="1469" vert-adv-y="2048"  />

      
      <glyph glyph-name="uni41" unicode="&#x41;" d="M1221 0L958 0L849 325L324 325L217 0L7 0L460 1365L763 1365L1221 0M783 522L584 1131L385 522L783 522Z"  horiz-adv-x="1235" vert-adv-y="2048"  />

      
      <glyph glyph-name="uni42" unicode="&#x42;" d="M150 0L150 1365L682 1365Q817 1365 906 1337Q995 1309 1060 1220Q1125 1131 1125 1011Q1125 898 1059 814.50Q993 731 877 708Q1021 683 1095 591Q1169 499 1169 373Q1169 215 1065.50 107.50Q962 0 747 0L150 0M383 792L683 792Q775 792 828.50 847Q882 902 882 987Q882 1081 821 1125.50Q760 1170 678 1170L383 1170L383 792M383 205L701 205Q802 205 860.50 258Q919 311 919 401Q919 487 859.50 542Q800 597 702 597L383 597L383 205Z"  horiz-adv-x="1244" vert-adv-y="2048"  />

      
      <glyph glyph-name="uni43" unicode="&#x43;" d="M913 474L1141 449Q1119 244 982.50 111.50Q846-21 624-21Q437-21 320.50 73Q204 167 141 328Q78 489 78 683Q78 995 226 1190.50Q374 1386 633 1386Q836 1386 971 1261Q1106 1136 1141 903L913 879Q850 1188 635 1188Q497 1188 420.50 1059.50Q344 931 344 687Q344 439 426 312.50Q508 186 643 186Q751 186 827 271Q903 356 913 474Z"  horiz-adv-x="1186" vert-adv-y="2048"  />

      
      <glyph glyph-name="uni44" unicode="&#x44;" d="M143 0L143 1365L646 1365Q925 1365 1094 1167.50Q1263 970 1263 680Q1263 390 1089 195Q915 0 591 0L143 0M396 201L601 201Q766 201 881 325Q996 449 996 694Q996 894 895.50 1032.50Q795 1171 630 1171L396 1171L396 201Z"  horiz-adv-x="1341" vert-adv-y="2048"  />

      
      <glyph glyph-name="uni45" unicode="&#x45;" d="M1037 0L150 0L150 1365L1028 1365L1028 1162L396 1162L396 792L904 792L904 594L396 594L396 212L1037 212L1037 0Z"  horiz-adv-x="1099" vert-adv-y="2048"  />

      
      <glyph glyph-name="uni46" unicode="&#x46;" d="M403 0L150 0L150 1365L1013 1365L1013 1154L403 1154L403 781L883 781L883 576L403 576L403 0Z"  horiz-adv-x="1040" vert-adv-y="2048"  />

      
      <glyph glyph-name="uni47" unicode="&#x47;" d="M1186 698L1186 0L1077 0L1002 184Q883-21 633-21Q354-21 216.50 191Q79 403 79 682Q79 977 232.50 1181.50Q386 1386 662 1386Q868 1386 1001 1266.50Q1134 1147 1169 969L955 931Q895 1181 668 1181Q523 1181 431.50 1063Q340 945 340 700Q340 183 664 183Q790 183 872.50 270Q955 357 955 500L673 500L673 698L1186 698Z"  horiz-adv-x="1315" vert-adv-y="2048"  />

      
      <glyph glyph-name="uni48" unicode="&#x48;" d="M1163 0L917 0L917 593L396 593L396 0L150 0L150 1365L396 1365L396 804L917 804L917 1365L1163 1365L1163 0Z"  horiz-adv-x="1313" vert-adv-y="2048"  />

      
      <glyph glyph-name="uni49" unicode="&#x49;" d="M396 0L150 0L150 1365L396 1365L396 0Z"  horiz-adv-x="546" vert-adv-y="2048"  />

      
      <glyph glyph-name="uni4a" unicode="&#x4a;" d="M624 1365L624 423Q624 188 522.50 83.50Q421-21 199-21Q71-21 0 0L0 198Q112 190 158 190Q281 190 326 236Q371 282 371 423L371 1365L624 1365Z"  horiz-adv-x="761" vert-adv-y="2048"  />

      
      <glyph glyph-name="uni4b" unicode="&#x4b;" d="M1223 0L948 0L660 695L396 345L396 0L150 0L150 1365L396 1365L396 648Q443 721 464 749L917 1365L1166 1365L842 916L1223 0Z"  horiz-adv-x="1257" vert-adv-y="2048"  />

      
      <glyph glyph-name="uni4c" unicode="&#x4c;" d="M990 0L150 0L150 1365L409 1365L409 223L990 223L990 0Z"  horiz-adv-x="1021" vert-adv-y="2048"  />

      
      <glyph glyph-name="uni4d" unicode="&#x4d;" d="M1489 0L1238 0L1238 1195L860 0L731 0L351 1195L351 0L150 0L150 1365L535 1365L821 486L1102 1365L1489 1365L1489 0Z"  horiz-adv-x="1640" vert-adv-y="2048"  />

      
      <glyph glyph-name="uni4e" unicode="&#x4e;" d="M1181 0L942 0L424 872Q412 892 385 937Q373 957 348 1000L348 0L150 0L150 1365L422 1365L900 561Q906 551 987 414L987 1365L1181 1365L1181 0Z"  horiz-adv-x="1331" vert-adv-y="2048"  />

      
      <glyph glyph-name="uni4f" unicode="&#x4f;" d="M653-21Q381-21 229.50 183Q78 387 78 687Q78 985 239 1185.50Q400 1386 664 1386Q930 1386 1084.50 1185.50Q1239 985 1239 684Q1239 368 1078.50 173.50Q918-21 653-21M655 177Q788 177 880 287Q972 397 972 686Q972 921 896 1054.50Q820 1188 660 1188Q344 1188 344 679Q344 432 424.50 304.50Q505 177 655 177Z"  horiz-adv-x="1318" vert-adv-y="2048"  />

      
      <glyph glyph-name="uni50" unicode="&#x50;" d="M396 0L150 0L150 1365L709 1365Q948 1365 1063.50 1244.50Q1179 1124 1179 960Q1179 773 1054 657Q929 541 737 541L396 541L396 0M396 752L687 752Q801 752 861 808Q921 864 921 957Q921 1041 865.50 1101Q810 1161 665 1161L396 1161L396 752Z"  horiz-adv-x="1227" vert-adv-y="2048"  />

      
      <glyph glyph-name="uni51" unicode="&#x51;" d="M1183-73L1183-279Q1065-288 1043-288Q740-288 739-23Q664-27 648-27Q374-27 226 174.50Q78 376 78 683Q78 984 230.50 1185Q383 1386 659 1386Q860 1386 979 1292Q1098 1198 1168.50 1045Q1239 892 1239 686Q1239 247 948 58Q902 28 902 6Q902-29 932.50-54Q963-79 1016-79Q1052-79 1123-75Q1143-74 1183-73M652 179Q972 179 972 683Q972 951 886.50 1069.50Q801 1188 661 1188Q344 1188 344 670Q344 179 652 179Z"  horiz-adv-x="1318" vert-adv-y="2048"  />

      
      <glyph glyph-name="uni52" unicode="&#x52;" d="M1214 0L954 0L742 561L396 561L396 0L150 0L150 1365L742 1365Q989 1365 1105 1253.50Q1221 1142 1221 965Q1221 702 975 603L1214 0M396 758L702 758Q835 758 900 814Q965 870 965 968Q965 1058 901 1113.50Q837 1169 722 1169L396 1169L396 758Z"  horiz-adv-x="1316" vert-adv-y="2048"  />

      
      <glyph glyph-name="uni53" unicode="&#x53;" d="M7 329L246 380Q289 177 576 177Q707 177 777.50 229Q848 281 848 358Q848 414 816 461.50Q784 509 679 536L418 604Q284 639 220 683.50Q156 728 117.50 809Q79 890 79 982Q79 1165 215 1275.50Q351 1386 563 1386Q739 1386 877.50 1309Q1016 1232 1054 1091L820 1033Q766 1188 568 1188Q453 1188 392.50 1140Q332 1092 332 1018Q332 901 522 854L754 796Q965 743 1037 639.50Q1109 536 1109 411Q1109 210 957.50 94.50Q806-21 565-21Q362-21 209.50 64Q57 149 7 329Z"  horiz-adv-x="1170" vert-adv-y="2048"  />

      
      <glyph glyph-name="uni54" unicode="&#x54;" d="M627 0L363 0L363 1154L0 1154L0 1365L990 1365L990 1154L627 1154L627 0Z"  horiz-adv-x="990" vert-adv-y="2048"  />

      
      <glyph glyph-name="uni55" unicode="&#x55;" d="M1087 1365L1087 488Q1087 310 1047 214Q1007 118 892.50 48.50Q778-21 613-21Q446-21 338.50 39Q231 99 184 203.50Q137 308 137 470L137 1365L388 1365L388 488Q388 308 463.50 251.50Q539 195 639 195Q754 195 823 255.50Q892 316 892 488L892 1365L1087 1365Z"  horiz-adv-x="1218" vert-adv-y="2048"  />

      
      <glyph glyph-name="uni56" unicode="&#x56;" d="M675 0L425 0L4 1365L264 1365L577 319L897 1365L1102 1365L675 0Z"  horiz-adv-x="1107" vert-adv-y="2048"  />

      
      <glyph glyph-name="uni57" unicode="&#x57;" d="M1789 1365L1424 0L1166 0L894 1004L647 0L394 0L21 1365L282 1365L546 370L792 1365L1041 1365L1313 370L1572 1365L1789 1365Z"  horiz-adv-x="1809" vert-adv-y="2048"  />

      
      <glyph glyph-name="uni58" unicode="&#x58;" d="M1149 0L862 0L560 538L240 0L11 0L443 711L72 1365L358 1365L610 911L877 1365L1107 1365L727 742L1149 0Z"  horiz-adv-x="1160" vert-adv-y="2048"  />

      
      <glyph glyph-name="uni59" unicode="&#x59;" d="M699 0L438 0L438 576L-27 1365L271 1365L595 802L905 1365L1141 1365L699 576L699 0Z"  horiz-adv-x="1113" vert-adv-y="2048"  />

      
      <glyph glyph-name="uni5a" unicode="&#x5a;" d="M1050 212L1050 0L41 0L41 194L740 1170L90 1170L90 1365L1030 1365L1030 1170L339 212L1050 212Z"  horiz-adv-x="1091" vert-adv-y="2048"  />

      
      <glyph glyph-name="uni5b" unicode="&#x5b;" d="M482 1201L315 1201L315-177L482-177L482-341L138-341L138 1365L482 1365L482 1201Z"  horiz-adv-x="601" vert-adv-y="2048"  />

      
      <glyph glyph-name="uni5c" unicode="&#x5c;" d="M62 1365L208 1365L1097-341L956-341L62 1365Z"  horiz-adv-x="981" vert-adv-y="2048"  />

      
      <glyph glyph-name="uni5d" unicode="&#x5d;" d="M119-177L286-177L286 1201L119 1201L119 1365L463 1365L463-341L119-341L119-177Z"  horiz-adv-x="601" vert-adv-y="2048"  />

      
      <glyph glyph-name="uni5e" unicode="&#x5e;" d="M266 703L22 703L360 1372L665 1372L1003 703L759 703L512 1187L266 703Z"  horiz-adv-x="1024" vert-adv-y="2048"  />

      
      <glyph glyph-name="uni5f" unicode="&#x5f;" d="M0-107L1024-107L1024-315L0-315L0-107Z"  horiz-adv-x="1024" vert-adv-y="2048"  />

      
      <glyph glyph-name="uni60" unicode="&#x60;" d="M280 1487L673 1268L631 1161L214 1337L280 1487Z"  horiz-adv-x="1024" vert-adv-y="2048"  />

      
      <glyph glyph-name="uni61" unicode="&#x61;" d="M1001 0L784 0Q755 92 749 204Q658-21 407-21Q256-21 164.50 67.50Q73 156 73 290Q73 638 684 638Q708 638 749 637L749 713Q749 870 535 870Q327 870 299 713L105 742Q121 868 235 949.50Q349 1031 565 1031Q682 1031 756 1011.50Q830 992 881 945.50Q932 899 951.50 844.50Q971 790 971 660L971 204Q971 105 1001 0M749 514Q307 514 307 303Q307 240 351.50 195.50Q396 151 486 151Q616 151 682.50 233.50Q749 316 749 421L749 514Z"  horiz-adv-x="1107" vert-adv-y="2048"  />

      
      <glyph glyph-name="uni62" unicode="&#x62;" d="M240 0L137 0L137 1365L365 1365L365 872Q430 985 495 1021Q560 1057 647 1057Q813 1057 922 916Q1031 775 1031 525Q1031 299 923.50 139Q816-21 615-21Q413-21 301 166L240 0M365 431Q365 296 423.50 231.50Q482 167 575 167Q665 167 726 241Q787 315 791 531Q791 689 736 774.50Q681 860 581 860Q487 860 426 787Q365 714 365 581L365 431Z"  horiz-adv-x="1103" vert-adv-y="2048"  />

      
      <glyph glyph-name="uni63" unicode="&#x63;" d="M720 371L916 351Q878 161 769 70Q660-21 506-21Q297-21 184.50 131.50Q72 284 72 505Q72 733 195 882Q318 1031 523 1031Q853 1031 916 683L720 656Q694 844 535 844Q419 844 366.50 742.50Q314 641 314 497Q314 344 368.50 261Q423 178 521 178Q671 178 720 371Z"  horiz-adv-x="954" vert-adv-y="2048"  />

      
      <glyph glyph-name="uni64" unicode="&#x64;" d="M967 0L754 0L754 204Q666-21 456-21Q270-21 171 134Q72 289 72 519Q72 733 175 892Q278 1051 468 1051Q663 1051 739 873L739 1365L967 1365L967 0M739 596Q739 719 680.50 787.50Q622 856 529 856Q428 856 371 768Q314 680 314 505Q314 167 526 167Q610 167 674.50 239.50Q739 312 739 425L739 596Z"  horiz-adv-x="1103" vert-adv-y="2048"  />

      
      <glyph glyph-name="uni65" unicode="&#x65;" d="M779 322L985 294Q945 157 829 68Q713-21 538-21Q328-21 200 120Q72 261 72 502Q72 731 201 881Q330 1031 551 1031Q767 1031 885 883Q1003 735 1003 503L1002 477L309 477Q309 374 328.50 312Q348 250 406 204Q464 158 551 158Q720 158 779 322M765 624Q764 733 699.50 802Q635 871 540 871Q446 871 383 806.50Q320 742 309 624L765 624Z"  horiz-adv-x="1074" vert-adv-y="2048"  />

      
      <glyph glyph-name="uni66" unicode="&#x66;" d="M392 0L172 0L172 833L22 833L22 1010L172 1010L172 1060Q172 1208 244 1298Q316 1388 535 1388Q567 1388 616 1386L616 1207Q573 1210 557 1210Q473 1210 439 1187.50Q405 1165 398.50 1134.50Q392 1104 392 1010L616 1010L616 833L392 833L392 0Z"  horiz-adv-x="647" vert-adv-y="2048"  />

      
      <glyph glyph-name="uni67" unicode="&#x67;" d="M1058 1203L1058 1028L988 1028Q942 1028 907.50 1017Q873 1006 840 946Q960 848 960 728Q960 594 847.50 506Q735 418 550 418Q470 418 363 444Q293 412 293 345Q293 308 327 277Q361 246 430 246L730 246Q884 246 971.50 166.50Q1059 87 1059-31Q1059-174 926.50-268Q794-362 534-362Q45-362 45-89Q45 46 192 116Q98 196 98 283Q98 415 259 493Q119 578 119 727Q119 853 222 942Q325 1031 535 1031Q631 1031 730 1010Q776 1203 973 1203L1058 1203M540 553Q726 553 726 728Q726 795 679.50 841Q633 887 544 887Q454 887 404.50 839Q355 791 355 719Q355 645 404 599Q453 553 540 553M290 55Q241 10 241-32Q241-101 323-153.50Q405-206 584-206Q847-206 847-71Q847-21 801 4.50Q755 30 696 30L454 30Q385 30 290 55Z"  horiz-adv-x="1061" vert-adv-y="2048"  />

      
      <glyph glyph-name="uni68" unicode="&#x68;" d="M973 0L745 0L745 661Q745 768 699.50 811.50Q654 855 593 855Q496 855 430 778Q364 701 364 524L364 0L136 0L136 1365L364 1365L364 833Q449 1051 662 1051Q973 1051 973 694L973 0Z"  horiz-adv-x="1110" vert-adv-y="2048"  />

      
      <glyph glyph-name="uni69" unicode="&#x69;" d="M364 1128L136 1128L136 1365L364 1365L364 1128M364 0L136 0L136 1010L364 1010L364 0Z"  horiz-adv-x="501" vert-adv-y="2048"  />

      
      <glyph glyph-name="uni6a" unicode="&#x6a;" d="M364 1128L136 1128L136 1365L364 1365L364 1128M364 1010L364 16Q364-362 17-362Q-36-362-100-350L-100-157Q-57-162-27-162Q68-162 102-126Q136-90 136 16L136 1010L364 1010Z"  horiz-adv-x="501" vert-adv-y="2048"  />

      
      <glyph glyph-name="uni6b" unicode="&#x6b;" d="M1077 0L837 0L579 518L355 267L355 0L137 0L137 1365L355 1365L355 518Q384 556 401 575L801 1010L1046 1010L742 676L1077 0Z"  horiz-adv-x="1090" vert-adv-y="2048"  />

      
      <glyph glyph-name="uni6c" unicode="&#x6c;" d="M364 0L136 0L136 1365L364 1365L364 0Z"  horiz-adv-x="501" vert-adv-y="2048"  />

      
      <glyph glyph-name="uni6d" unicode="&#x6d;" d="M1645 0L1406 0L1406 629Q1406 825 1232 825Q1131 825 1070.50 751Q1010 677 1010 530L1010 0L768 0L768 629Q768 828 605 828Q506 828 438.50 748Q371 668 371 530L371 0L136 0L136 1010L357 1010L357 795Q465 1031 694 1031Q917 1031 984 795Q1106 1031 1321 1031Q1467 1031 1556 940Q1645 849 1645 714L1645 0Z"  horiz-adv-x="1782" vert-adv-y="2048"  />

      
      <glyph glyph-name="uni6e" unicode="&#x6e;" d="M973 0L745 0L745 631Q745 731 699 781.50Q653 832 588 832Q499 832 432 754Q365 676 365 519L365 0L137 0L137 1010L345 1010L345 776Q454 1031 651 1031Q784 1031 878.50 947Q973 863 973 652L973 0Z"  horiz-adv-x="1109" vert-adv-y="2048"  />

      
      <glyph glyph-name="uni6f" unicode="&#x6f;" d="M532-21Q308-21 190 140Q72 301 72 509Q72 733 202.50 882Q333 1031 547 1031Q750 1031 880.50 886Q1011 741 1011 509Q1011 270 875.50 124.50Q740-21 532-21M540 167Q770 167 770 510Q770 665 715 754.50Q660 844 546 844Q428 844 371 751.50Q314 659 314 506Q314 341 374.50 254Q435 167 540 167Z"  horiz-adv-x="1083" vert-adv-y="2048"  />

      
      <glyph glyph-name="uni70" unicode="&#x70;" d="M369-341L137-341L137 1010L355 1010L355 834Q460 1031 664 1031Q832 1031 932 885Q1032 739 1032 512Q1032 297 936.50 138Q841-21 652-21Q457-21 369 141L369-341M369 414Q369 304 434.50 231.50Q500 159 580 159Q689 159 739.50 254.50Q790 350 790 497Q790 651 739 747.50Q688 844 587 844Q496 844 432.50 765Q369 686 369 558L369 414Z"  horiz-adv-x="1103" vert-adv-y="2048"  />

      
      <glyph glyph-name="uni71" unicode="&#x71;" d="M973-341L736-341L736 178Q655-21 455-21Q263-21 167.50 136Q72 293 72 501Q72 735 184 883Q296 1031 494 1031Q679 1031 790 869L851 1010L973 1010L973-341M736 593Q736 692 690.50 768Q645 844 542 844Q431 844 372 752.50Q313 661 313 503Q313 341 373.50 251Q434 161 527 161Q612 161 674 237.50Q736 314 736 447L736 593Z"  horiz-adv-x="1109" vert-adv-y="2048"  />

      
      <glyph glyph-name="uni72" unicode="&#x72;" d="M365 0L137 0L137 1010L343 1010L343 769Q387 910 464 975Q541 1040 622 1040Q633 1040 652 1039L652 794Q478 794 421.50 683Q365 572 365 468L365 0Z"  horiz-adv-x="679" vert-adv-y="2048"  />

      
      <glyph glyph-name="uni73" unicode="&#x73;" d="M14 232L228 273Q277 150 444 150Q656 150 656 275Q656 315 623 341Q590 367 545 376L361 411Q55 470 55 710Q55 844 152 937.50Q249 1031 441 1031Q761 1031 832 796L629 755Q597 869 447 869Q265 869 265 755Q265 676 412 646L629 601Q882 549 882 311Q882 144 752 61.50Q622-21 443-21Q288-21 169 41.50Q50 104 14 232Z"  horiz-adv-x="930" vert-adv-y="2048"  />

      
      <glyph glyph-name="uni74" unicode="&#x74;" d="M605 178L605 0Q503-22 447-22Q355-22 289 14.50Q223 51 192.50 114.50Q162 178 162 310L162 833L36 833L36 1010L175 1010L196 1273L383 1290L383 1010L586 1010L586 833L383 833L383 340Q383 245 417.50 210.50Q452 176 548 176Q575 176 605 178Z"  horiz-adv-x="660" vert-adv-y="2048"  />

      
      <glyph glyph-name="uni75" unicode="&#x75;" d="M968 0L756 0L756 218Q670-21 437-21Q299-21 218 64.50Q137 150 137 303L137 1010L370 1010L370 352Q370 243 418 209Q466 175 512 175Q586 175 663 241.50Q740 308 740 525L740 1010L968 1010L968 0Z"  horiz-adv-x="1105" vert-adv-y="2048"  />

      
      <glyph glyph-name="uni76" unicode="&#x76;" d="M897 1010L554 0L365 0L14 1010L252 1010L488 325L718 1010L897 1010Z"  horiz-adv-x="910" vert-adv-y="2048"  />

      
      <glyph glyph-name="uni77" unicode="&#x77;" d="M1406 1010L1110 0L905 0L723 708L542 0L331 0L20 1010L262 1010L461 331L635 1010L842 1010L1019 331L1214 1010L1406 1010Z"  horiz-adv-x="1427" vert-adv-y="2048"  />

      
      <glyph glyph-name="uni78" unicode="&#x78;" d="M904 0L644 0L430 368L196 0L0 0L336 520L45 1010L306 1010L472 713L661 1010L852 1010L567 572L904 0Z"  horiz-adv-x="904" vert-adv-y="2048"  />

      
      <glyph glyph-name="uni79" unicode="&#x79;" d="M891 1010L498-140Q462-246 399.50-304.50Q337-363 223-363Q178-363 92-356L92-175L201-177Q273-177 307.50-153.50Q342-130 362-70Q382-10 382 0Q382 6 361 62L14 1010L253 1010L498 344L709 1010L891 1010Z"  horiz-adv-x="905" vert-adv-y="2048"  />

      
      <glyph glyph-name="uni7a" unicode="&#x7a;" d="M810 177L810 0L48 0L48 177L535 833L94 833L94 1010L810 1010L810 849L311 177L810 177Z"  horiz-adv-x="857" vert-adv-y="2048"  />

      
      <glyph glyph-name="uni7b" unicode="&#x7b;" d="M215 511Q339 450 339 274L339-22Q339-138 383-162.50Q427-187 538-187L538-340L448-342Q295-342 225-276Q155-210 155-54L155 265Q155 363 122 398.50Q89 434 40 445L40 590Q155 614 155 757L155 1092Q155 1238 225.50 1302Q296 1366 454 1366Q481 1366 538 1364L538 1211Q412 1211 375.50 1179Q339 1147 339 1050L339 746Q339 684 320.50 619.50Q302 555 215 511Z"  horiz-adv-x="601" vert-adv-y="2048"  />

      
      <glyph glyph-name="uni7c" unicode="&#x7c;" d="M396 1365L628 1365L628-341L396-341L396 1365Z"  horiz-adv-x="1024" vert-adv-y="2048"  />

      
      <glyph glyph-name="uni7d" unicode="&#x7d;" d="M386 513Q262 573 262 750L262 1046Q262 1162 218.50 1186.50Q175 1211 63 1211L63 1364L152 1366Q310 1366 377.50 1297Q445 1228 445 1078L445 759Q445 662 477.50 626Q510 590 561 579L561 434Q445 410 445 267L445-68Q445-214 374.50-278Q304-342 147-342Q119-342 63-340L63-187Q189-187 225.50-155Q262-123 262-26L262 278Q262 346 282 408Q302 470 386 513Z"  horiz-adv-x="601" vert-adv-y="2048"  />

      
      <glyph glyph-name="uni7e" unicode="&#x7e;" d="M233 493L104 577Q168 733 238.50 790.50Q309 848 405 848Q476 848 623 790Q757 737 806 737Q902 737 964 852L1097 774Q984 513 778 513Q721 513 532 585Q431 624 389 624Q295 624 233 493Z"  horiz-adv-x="1201" vert-adv-y="2048"  />

      
      <glyph glyph-name="unic4" unicode="&#xc4;" d="M1221 0L958 0L849 325L324 325L217 0L7 0L460 1365L763 1365L1221 0M783 522L584 1131L385 522L783 522M438 1512Q390 1512 358.50 1543.50Q327 1575 327 1619Q327 1663 358 1696.50Q389 1730 438 1730Q484 1730 518 1700.50Q552 1671 552 1620Q552 1570 518.50 1541Q485 1512 438 1512M773 1512Q724 1512 692.50 1544Q661 1576 661 1619Q661 1663 692.50 1696.50Q724 1730 773 1730Q818 1730 852.50 1700.50Q887 1671 887 1620Q887 1570 853.50 1541Q820 1512 773 1512Z"  horiz-adv-x="1235" vert-adv-y="2048"  />

      
      <glyph glyph-name="unic5" unicode="&#xc5;" d="M1221 0L958 0L849 325L324 325L217 0L7 0L460 1365L763 1365L1221 0M783 522L584 1131L385 522L783 522M613 1454Q536 1454 482 1508Q428 1562 428 1639Q428 1716 482.50 1771Q537 1826 613 1826Q682 1826 740.50 1777Q799 1728 799 1636Q799 1564 745.50 1509Q692 1454 613 1454M614 1558Q656 1558 676 1583.50Q696 1609 696 1636Q696 1674 674.50 1698Q653 1722 618 1722Q584 1722 558 1701Q532 1680 532 1640Q532 1607 553 1582.50Q574 1558 614 1558Z"  horiz-adv-x="1235" vert-adv-y="2048"  />

      
      <glyph glyph-name="unic7" unicode="&#xc7;" d="M634-21L609-100Q727-100 783-144.50Q839-189 839-261Q839-332 783.50-382Q728-432 633-432Q539-432 408-371L441-289Q557-340 607-340Q699-340 699-267Q699-179 548-179Q532-179 492-181L544-16Q329 7 203.50 205Q78 403 78 683Q78 995 226 1190.50Q374 1386 633 1386Q836 1386 971 1261Q1106 1136 1141 903L913 879Q850 1188 635 1188Q497 1188 420.50 1059.50Q344 931 344 687Q344 439 426 312.50Q508 186 643 186Q751 186 827 271Q903 356 913 474L1141 449Q1120 254 992 120.50Q864-13 634-21Z"  horiz-adv-x="1186" vert-adv-y="2048"  />

      
      <glyph glyph-name="unic9" unicode="&#xc9;" d="M1037 0L150 0L150 1365L1028 1365L1028 1162L396 1162L396 792L904 792L904 594L396 594L396 212L1037 212L1037 0M842 1800L908 1650L491 1474L449 1581L842 1800Z"  horiz-adv-x="1099" vert-adv-y="2048"  />

      
      <glyph glyph-name="unid1" unicode="&#xd1;" d="M1181 0L942 0L424 872Q412 892 385 937Q373 957 348 1000L348 0L150 0L150 1365L422 1365L900 561Q906 551 987 414L987 1365L1181 1365L1181 0M941 1735L1011 1632Q987 1582 923 1548.50Q859 1515 809 1515Q748 1515 657 1562Q588 1598 555 1598Q508 1598 429 1520L360 1623Q453 1738 561 1738Q613 1738 696 1699Q786 1657 830 1657Q891 1657 941 1735Z"  horiz-adv-x="1331" vert-adv-y="2048"  />

      
      <glyph glyph-name="unid6" unicode="&#xd6;" d="M653-21Q381-21 229.50 183Q78 387 78 687Q78 985 239 1185.50Q400 1386 664 1386Q930 1386 1084.50 1185.50Q1239 985 1239 684Q1239 368 1078.50 173.50Q918-21 653-21M655 177Q788 177 880 287Q972 397 972 686Q972 921 896 1054.50Q820 1188 660 1188Q344 1188 344 679Q344 432 424.50 304.50Q505 177 655 177M489 1512Q441 1512 409.50 1543.50Q378 1575 378 1619Q378 1663 409 1696.50Q440 1730 489 1730Q535 1730 569 1700.50Q603 1671 603 1620Q603 1570 569.50 1541Q536 1512 489 1512M824 1512Q775 1512 743.50 1544Q712 1576 712 1619Q712 1663 743.50 1696.50Q775 1730 824 1730Q869 1730 903.50 1700.50Q938 1671 938 1620Q938 1570 904.50 1541Q871 1512 824 1512Z"  horiz-adv-x="1318" vert-adv-y="2048"  />

      
      <glyph glyph-name="unidc" unicode="&#xdc;" d="M1087 1365L1087 488Q1087 310 1047 214Q1007 118 892.50 48.50Q778-21 613-21Q446-21 338.50 39Q231 99 184 203.50Q137 308 137 470L137 1365L388 1365L388 488Q388 308 463.50 251.50Q539 195 639 195Q754 195 823 255.50Q892 316 892 488L892 1365L1087 1365M443 1512Q395 1512 363.50 1543.50Q332 1575 332 1619Q332 1663 363 1696.50Q394 1730 443 1730Q489 1730 523 1700.50Q557 1671 557 1620Q557 1570 523.50 1541Q490 1512 443 1512M778 1512Q729 1512 697.50 1544Q666 1576 666 1619Q666 1663 697.50 1696.50Q729 1730 778 1730Q823 1730 857.50 1700.50Q892 1671 892 1620Q892 1570 858.50 1541Q825 1512 778 1512Z"  horiz-adv-x="1218" vert-adv-y="2048"  />

      
      <glyph glyph-name="unie1" unicode="&#xe1;" d="M1001 0L784 0Q755 92 749 204Q658-21 407-21Q256-21 164.50 67.50Q73 156 73 290Q73 638 684 638Q708 638 749 637L749 713Q749 870 535 870Q327 870 299 713L105 742Q121 868 235 949.50Q349 1031 565 1031Q682 1031 756 1011.50Q830 992 881 945.50Q932 899 951.50 844.50Q971 790 971 660L971 204Q971 105 1001 0M749 514Q307 514 307 303Q307 240 351.50 195.50Q396 151 486 151Q616 151 682.50 233.50Q749 316 749 421L749 514M799 1487L865 1337L448 1161L406 1268L799 1487Z"  horiz-adv-x="1107" vert-adv-y="2048"  />

      
      <glyph glyph-name="unie0" unicode="&#xe0;" d="M1001 0L784 0Q755 92 749 204Q658-21 407-21Q256-21 164.50 67.50Q73 156 73 290Q73 638 684 638Q708 638 749 637L749 713Q749 870 535 870Q327 870 299 713L105 742Q121 868 235 949.50Q349 1031 565 1031Q682 1031 756 1011.50Q830 992 881 945.50Q932 899 951.50 844.50Q971 790 971 660L971 204Q971 105 1001 0M749 514Q307 514 307 303Q307 240 351.50 195.50Q396 151 486 151Q616 151 682.50 233.50Q749 316 749 421L749 514M333 1487L726 1268L684 1161L267 1337L333 1487Z"  horiz-adv-x="1107" vert-adv-y="2048"  />

      
      <glyph glyph-name="unie2" unicode="&#xe2;" d="M1001 0L784 0Q755 92 749 204Q658-21 407-21Q256-21 164.50 67.50Q73 156 73 290Q73 638 684 638Q708 638 749 637L749 713Q749 870 535 870Q327 870 299 713L105 742Q121 868 235 949.50Q349 1031 565 1031Q682 1031 756 1011.50Q830 992 881 945.50Q932 899 951.50 844.50Q971 790 971 660L971 204Q971 105 1001 0M749 514Q307 514 307 303Q307 240 351.50 195.50Q396 151 486 151Q616 151 682.50 233.50Q749 316 749 421L749 514M565 1476L912 1188L732 1167L565 1299L398 1167L217 1188L565 1476Z"  horiz-adv-x="1107" vert-adv-y="2048"  />

      
      <glyph glyph-name="unie4" unicode="&#xe4;" d="M1001 0L784 0Q755 92 749 204Q658-21 407-21Q256-21 164.50 67.50Q73 156 73 290Q73 638 684 638Q708 638 749 637L749 713Q749 870 535 870Q327 870 299 713L105 742Q121 868 235 949.50Q349 1031 565 1031Q682 1031 756 1011.50Q830 992 881 945.50Q932 899 951.50 844.50Q971 790 971 660L971 204Q971 105 1001 0M749 514Q307 514 307 303Q307 240 351.50 195.50Q396 151 486 151Q616 151 682.50 233.50Q749 316 749 421L749 514M396 1188Q348 1188 316.50 1219.50Q285 1251 285 1295Q285 1339 316 1372.50Q347 1406 396 1406Q442 1406 476 1376.50Q510 1347 510 1296Q510 1246 476.50 1217Q443 1188 396 1188M731 1188Q682 1188 650.50 1220Q619 1252 619 1295Q619 1339 650.50 1372.50Q682 1406 731 1406Q776 1406 810.50 1376.50Q845 1347 845 1296Q845 1246 811.50 1217Q778 1188 731 1188Z"  horiz-adv-x="1107" vert-adv-y="2048"  />

      
      <glyph glyph-name="unie3" unicode="&#xe3;" d="M1001 0L784 0Q755 92 749 204Q658-21 407-21Q256-21 164.50 67.50Q73 156 73 290Q73 638 684 638Q708 638 749 637L749 713Q749 870 535 870Q327 870 299 713L105 742Q121 868 235 949.50Q349 1031 565 1031Q682 1031 756 1011.50Q830 992 881 945.50Q932 899 951.50 844.50Q971 790 971 660L971 204Q971 105 1001 0M749 514Q307 514 307 303Q307 240 351.50 195.50Q396 151 486 151Q616 151 682.50 233.50Q749 316 749 421L749 514M821 1421L891 1318Q867 1268 803 1234.50Q739 1201 689 1201Q628 1201 537 1248Q468 1284 435 1284Q388 1284 309 1206L240 1309Q333 1424 441 1424Q493 1424 576 1385Q666 1343 710 1343Q771 1343 821 1421Z"  horiz-adv-x="1107" vert-adv-y="2048"  />

      
      <glyph glyph-name="unie5" unicode="&#xe5;" d="M1001 0L784 0Q755 92 749 204Q658-21 407-21Q256-21 164.50 67.50Q73 156 73 290Q73 638 684 638Q708 638 749 637L749 713Q749 870 535 870Q327 870 299 713L105 742Q121 868 235 949.50Q349 1031 565 1031Q682 1031 756 1011.50Q830 992 881 945.50Q932 899 951.50 844.50Q971 790 971 660L971 204Q971 105 1001 0M749 514Q307 514 307 303Q307 240 351.50 195.50Q396 151 486 151Q616 151 682.50 233.50Q749 316 749 421L749 514M564 1133Q487 1133 433 1187Q379 1241 379 1318Q379 1395 433.50 1450Q488 1505 564 1505Q633 1505 691.50 1456Q750 1407 750 1315Q750 1243 696.50 1188Q643 1133 564 1133M565 1237Q607 1237 627 1262.50Q647 1288 647 1315Q647 1353 625.50 1377Q604 1401 569 1401Q535 1401 509 1380Q483 1359 483 1319Q483 1286 504 1261.50Q525 1237 565 1237Z"  horiz-adv-x="1107" vert-adv-y="2048"  />

      
      <glyph glyph-name="unie7" unicode="&#xe7;" d="M514-20L493-93Q595-93 651-139Q707-185 707-252Q707-317 652.50-366.50Q598-416 513-416Q439-416 310-357L342-279Q430-326 497-326Q532-326 555-306Q578-286 578-258Q578-172 426-172Q410-172 380-174L432-15Q260 12 166 157.50Q72 303 72 505Q72 733 195 882Q318 1031 523 1031Q853 1031 916 683L720 656Q694 844 535 844Q419 844 366.50 742.50Q314 641 314 497Q314 344 368.50 261Q423 178 521 178Q671 178 720 371L916 351Q842-11 514-20Z"  horiz-adv-x="954" vert-adv-y="2048"  />

      
      <glyph glyph-name="unie9" unicode="&#xe9;" d="M779 322L985 294Q945 157 829 68Q713-21 538-21Q328-21 200 120Q72 261 72 502Q72 731 201 881Q330 1031 551 1031Q767 1031 885 883Q1003 735 1003 503L1002 477L309 477Q309 374 328.50 312Q348 250 406 204Q464 158 551 158Q720 158 779 322M765 624Q764 733 699.50 802Q635 871 540 871Q446 871 383 806.50Q320 742 309 624L765 624M785 1487L851 1337L434 1161L392 1268L785 1487Z"  horiz-adv-x="1074" vert-adv-y="2048"  />

      
      <glyph glyph-name="unie8" unicode="&#xe8;" d="M779 322L985 294Q945 157 829 68Q713-21 538-21Q328-21 200 120Q72 261 72 502Q72 731 201 881Q330 1031 551 1031Q767 1031 885 883Q1003 735 1003 503L1002 477L309 477Q309 374 328.50 312Q348 250 406 204Q464 158 551 158Q720 158 779 322M765 624Q764 733 699.50 802Q635 871 540 871Q446 871 383 806.50Q320 742 309 624L765 624M326 1487L719 1268L677 1161L260 1337L326 1487Z"  horiz-adv-x="1074" vert-adv-y="2048"  />

      
      <glyph glyph-name="uniea" unicode="&#xea;" d="M779 322L985 294Q945 157 829 68Q713-21 538-21Q328-21 200 120Q72 261 72 502Q72 731 201 881Q330 1031 551 1031Q767 1031 885 883Q1003 735 1003 503L1002 477L309 477Q309 374 328.50 312Q348 250 406 204Q464 158 551 158Q720 158 779 322M765 624Q764 733 699.50 802Q635 871 540 871Q446 871 383 806.50Q320 742 309 624L765 624M565 1476L912 1188L732 1167L565 1299L398 1167L217 1188L565 1476Z"  horiz-adv-x="1074" vert-adv-y="2048"  />

      
      <glyph glyph-name="unieb" unicode="&#xeb;" d="M779 322L985 294Q945 157 829 68Q713-21 538-21Q328-21 200 120Q72 261 72 502Q72 731 201 881Q330 1031 551 1031Q767 1031 885 883Q1003 735 1003 503L1002 477L309 477Q309 374 328.50 312Q348 250 406 204Q464 158 551 158Q720 158 779 322M765 624Q764 733 699.50 802Q635 871 540 871Q446 871 383 806.50Q320 742 309 624L765 624M396 1188Q348 1188 316.50 1219.50Q285 1251 285 1295Q285 1339 316 1372.50Q347 1406 396 1406Q442 1406 476 1376.50Q510 1347 510 1296Q510 1246 476.50 1217Q443 1188 396 1188M731 1188Q682 1188 650.50 1220Q619 1252 619 1295Q619 1339 650.50 1372.50Q682 1406 731 1406Q776 1406 810.50 1376.50Q845 1347 845 1296Q845 1246 811.50 1217Q778 1188 731 1188Z"  horiz-adv-x="1074" vert-adv-y="2048"  />

      
      <glyph glyph-name="unied" unicode="&#xed;" d="M364 0L136 0L136 1010L364 1010L364 0M510 1487L576 1337L159 1161L117 1268L510 1487Z"  horiz-adv-x="501" vert-adv-y="2048"  />

      
      <glyph glyph-name="uniec" unicode="&#xec;" d="M364 0L136 0L136 1010L364 1010L364 0M32 1487L425 1268L383 1161L-34 1337L32 1487Z"  horiz-adv-x="501" vert-adv-y="2048"  />

      
      <glyph glyph-name="uniee" unicode="&#xee;" d="M364 0L136 0L136 1010L364 1010L364 0M252 1476L599 1188L419 1167L252 1299L85 1167L-96 1188L252 1476Z"  horiz-adv-x="501" vert-adv-y="2048"  />

      
      <glyph glyph-name="unief" unicode="&#xef;" d="M364 0L136 0L136 1010L364 1010L364 0M80 1188Q32 1188 0.50 1219.50Q-31 1251-31 1295Q-31 1339 0 1372.50Q31 1406 80 1406Q126 1406 160 1376.50Q194 1347 194 1296Q194 1246 160.50 1217Q127 1188 80 1188M415 1188Q366 1188 334.50 1220Q303 1252 303 1295Q303 1339 334.50 1372.50Q366 1406 415 1406Q460 1406 494.50 1376.50Q529 1347 529 1296Q529 1246 495.50 1217Q462 1188 415 1188Z"  horiz-adv-x="501" vert-adv-y="2048"  />

      
      <glyph glyph-name="unif1" unicode="&#xf1;" d="M973 0L745 0L745 631Q745 731 699 781.50Q653 832 588 832Q499 832 432 754Q365 676 365 519L365 0L137 0L137 1010L345 1010L345 776Q454 1031 651 1031Q784 1031 878.50 947Q973 863 973 652L973 0M797 1421L867 1318Q843 1268 779 1234.50Q715 1201 665 1201Q604 1201 513 1248Q444 1284 411 1284Q364 1284 285 1206L216 1309Q309 1424 417 1424Q469 1424 552 1385Q642 1343 686 1343Q747 1343 797 1421Z"  horiz-adv-x="1109" vert-adv-y="2048"  />

      
      <glyph glyph-name="unif3" unicode="&#xf3;" d="M532-21Q308-21 190 140Q72 301 72 509Q72 733 202.50 882Q333 1031 547 1031Q750 1031 880.50 886Q1011 741 1011 509Q1011 270 875.50 124.50Q740-21 532-21M540 167Q770 167 770 510Q770 665 715 754.50Q660 844 546 844Q428 844 371 751.50Q314 659 314 506Q314 341 374.50 254Q435 167 540 167M787 1487L853 1337L436 1161L394 1268L787 1487Z"  horiz-adv-x="1083" vert-adv-y="2048"  />

      
      <glyph glyph-name="unif2" unicode="&#xf2;" d="M532-21Q308-21 190 140Q72 301 72 509Q72 733 202.50 882Q333 1031 547 1031Q750 1031 880.50 886Q1011 741 1011 509Q1011 270 875.50 124.50Q740-21 532-21M540 167Q770 167 770 510Q770 665 715 754.50Q660 844 546 844Q428 844 371 751.50Q314 659 314 506Q314 341 374.50 254Q435 167 540 167M310 1487L703 1268L661 1161L244 1337L310 1487Z"  horiz-adv-x="1083" vert-adv-y="2048"  />

      
      <glyph glyph-name="unif4" unicode="&#xf4;" d="M532-21Q308-21 190 140Q72 301 72 509Q72 733 202.50 882Q333 1031 547 1031Q750 1031 880.50 886Q1011 741 1011 509Q1011 270 875.50 124.50Q740-21 532-21M540 167Q770 167 770 510Q770 665 715 754.50Q660 844 546 844Q428 844 371 751.50Q314 659 314 506Q314 341 374.50 254Q435 167 540 167M549 1476L896 1188L716 1167L549 1299L382 1167L201 1188L549 1476Z"  horiz-adv-x="1083" vert-adv-y="2048"  />

      
      <glyph glyph-name="unif6" unicode="&#xf6;" d="M532-21Q308-21 190 140Q72 301 72 509Q72 733 202.50 882Q333 1031 547 1031Q750 1031 880.50 886Q1011 741 1011 509Q1011 270 875.50 124.50Q740-21 532-21M540 167Q770 167 770 510Q770 665 715 754.50Q660 844 546 844Q428 844 371 751.50Q314 659 314 506Q314 341 374.50 254Q435 167 540 167M380 1188Q332 1188 300.50 1219.50Q269 1251 269 1295Q269 1339 300 1372.50Q331 1406 380 1406Q426 1406 460 1376.50Q494 1347 494 1296Q494 1246 460.50 1217Q427 1188 380 1188M715 1188Q666 1188 634.50 1220Q603 1252 603 1295Q603 1339 634.50 1372.50Q666 1406 715 1406Q760 1406 794.50 1376.50Q829 1347 829 1296Q829 1246 795.50 1217Q762 1188 715 1188Z"  horiz-adv-x="1083" vert-adv-y="2048"  />

      
      <glyph glyph-name="unif5" unicode="&#xf5;" d="M532-21Q308-21 190 140Q72 301 72 509Q72 733 202.50 882Q333 1031 547 1031Q750 1031 880.50 886Q1011 741 1011 509Q1011 270 875.50 124.50Q740-21 532-21M540 167Q770 167 770 510Q770 665 715 754.50Q660 844 546 844Q428 844 371 751.50Q314 659 314 506Q314 341 374.50 254Q435 167 540 167M818 1421L888 1318Q864 1268 800 1234.50Q736 1201 686 1201Q625 1201 534 1248Q465 1284 432 1284Q385 1284 306 1206L237 1309Q330 1424 438 1424Q490 1424 573 1385Q663 1343 707 1343Q768 1343 818 1421Z"  horiz-adv-x="1083" vert-adv-y="2048"  />

      
      <glyph glyph-name="unifa" unicode="&#xfa;" d="M968 0L756 0L756 218Q670-21 437-21Q299-21 218 64.50Q137 150 137 303L137 1010L370 1010L370 352Q370 243 418 209Q466 175 512 175Q586 175 663 241.50Q740 308 740 525L740 1010L968 1010L968 0M798 1487L864 1337L447 1161L405 1268L798 1487Z"  horiz-adv-x="1105" vert-adv-y="2048"  />

      
      <glyph glyph-name="unif9" unicode="&#xf9;" d="M968 0L756 0L756 218Q670-21 437-21Q299-21 218 64.50Q137 150 137 303L137 1010L370 1010L370 352Q370 243 418 209Q466 175 512 175Q586 175 663 241.50Q740 308 740 525L740 1010L968 1010L968 0M321 1487L714 1268L672 1161L255 1337L321 1487Z"  horiz-adv-x="1105" vert-adv-y="2048"  />

      
      <glyph glyph-name="unifb" unicode="&#xfb;" d="M968 0L756 0L756 218Q670-21 437-21Q299-21 218 64.50Q137 150 137 303L137 1010L370 1010L370 352Q370 243 418 209Q466 175 512 175Q586 175 663 241.50Q740 308 740 525L740 1010L968 1010L968 0M553 1476L900 1188L720 1167L553 1299L386 1167L205 1188L553 1476Z"  horiz-adv-x="1105" vert-adv-y="2048"  />

      
      <glyph glyph-name="unifc" unicode="&#xfc;" d="M968 0L756 0L756 218Q670-21 437-21Q299-21 218 64.50Q137 150 137 303L137 1010L370 1010L370 352Q370 243 418 209Q466 175 512 175Q586 175 663 241.50Q740 308 740 525L740 1010L968 1010L968 0M384 1188Q336 1188 304.50 1219.50Q273 1251 273 1295Q273 1339 304 1372.50Q335 1406 384 1406Q430 1406 464 1376.50Q498 1347 498 1296Q498 1246 464.50 1217Q431 1188 384 1188M719 1188Q670 1188 638.50 1220Q607 1252 607 1295Q607 1339 638.50 1372.50Q670 1406 719 1406Q764 1406 798.50 1376.50Q833 1347 833 1296Q833 1246 799.50 1217Q766 1188 719 1188Z"  horiz-adv-x="1105" vert-adv-y="2048"  />

      
      <glyph glyph-name="uni2020" unicode="&#x2020;" d="M125 801L125 989L491 989L491 1365L709 1365L709 989L1075 989L1075 801L709 801L709-341L491-341L491 801L125 801Z"  horiz-adv-x="1201" vert-adv-y="2048"  />

      
      <glyph glyph-name="unib0" unicode="&#xb0;" d="M601 1393Q717 1393 795.50 1312Q874 1231 874 1120Q874 1008 794.50 927.50Q715 847 601 847Q485 847 406.50 929Q328 1011 328 1120Q328 1227 405 1310Q482 1393 601 1393M602 1256Q544 1256 505 1215Q466 1174 466 1120Q466 1067 504.50 1025.50Q543 984 602 984Q658 984 698 1024Q738 1064 738 1120Q738 1175 699 1215.50Q660 1256 602 1256Z"  horiz-adv-x="1201" vert-adv-y="2048"  />

      
      <glyph glyph-name="unia2" unicode="&#xa2;" d="M561 1450L688 1450L688 1192Q983 1152 1040 855L854 822Q802 996 688 1012L688 394Q803 401 854 578L1040 551Q987 257 688 212L688-68L561-68L561 212Q380 236 277.50 371Q175 506 175 692Q175 902 281.50 1036Q388 1170 561 1192L561 1450M561 1012Q413 988 413 688Q413 429 561 394L561 1012Z"  horiz-adv-x="1201" vert-adv-y="2048"  />

      
      <glyph glyph-name="unia3" unicode="&#xa3;" d="M-25 0L-25 227Q100 229 160.50 250.50Q221 272 265.50 339Q310 406 310 482Q310 521 298 624L140 624L140 801L277 801Q260 914 260 970Q260 1151 375 1268.50Q490 1386 673 1386Q943 1386 1065 1137L871 1047Q824 1200 682 1200Q602 1200 554.50 1147Q507 1094 507 990Q507 915 539 801L787 801L787 624L539 624Q539 462 510 388Q481 314 387 227L648 227Q851 227 915.50 276.50Q980 326 989 420L1205 312Q1164 200 1099 130Q1034 60 955 30Q876 0 737 0L-25 0Z"  horiz-adv-x="1201" vert-adv-y="2048"  />

      
      <glyph glyph-name="unia7" unicode="&#xa7;" d="M124-62L342-21Q424-187 623-187Q718-187 778.50-144.50Q839-102 839-42Q839 14 801.50 56.50Q764 99 646 143L431 223Q335 258 293 292Q251 326 218.50 390.50Q186 455 186 534Q186 709 342 799Q219 892 219 1032Q219 1177 327.50 1277.50Q436 1378 645 1378Q950 1378 1059 1129L874 1077Q816 1229 627 1229Q429 1229 429 1094Q429 1003 589 948L768 887Q935 830 996 747Q1057 664 1057 560Q1057 425 925 292Q1078 199 1078 17Q1078-150 956.50-252Q835-354 610-354Q433-354 315.50-289Q198-224 124-62M786 352Q859 426 859 493Q859 604 682 665L466 739Q393 678 393 610Q393 494 598 420L786 352Z"  horiz-adv-x="1201" vert-adv-y="2048"  />

      
      <glyph glyph-name="uni2022" unicode="&#x2022;" d="M964 696Q964 579 881.50 494.50Q799 410 683 410Q564 410 482.50 494.50Q401 579 401 696Q401 814 483.50 898Q566 982 683 982Q799 982 881.50 898Q964 814 964 696Z"  horiz-adv-x="1365" vert-adv-y="2048"  />

      
      <glyph glyph-name="unib6" unicode="&#xb6;" d="M1155 1365L1155 1251L1005 1251L1005-335L891-335L891 1251L779 1251L779-335L661-335L661 703L531 703Q349 703 261.50 728.50Q174 754 122 830.50Q70 907 70 1025Q70 1117 125 1208Q180 1299 258.50 1332Q337 1365 536 1365L1155 1365M661 818L661 1251L554 1251Q402 1251 355.50 1223Q309 1195 289.50 1131Q270 1067 270 1020Q270 919 327.50 868.50Q385 818 532 818L661 818Z"  horiz-adv-x="1201" vert-adv-y="2048"  />

      
      <glyph glyph-name="unidf" unicode="&#xdf;" d="M371-94L143-94L143 736L32 736L32 915L143 915Q147 1231 283 1347.50Q419 1464 602 1464Q765 1464 877.50 1373.50Q990 1283 990 1145Q990 892 639 833Q613 808 613 795Q613 769 716 733Q722 731 831.50 682Q941 633 990.50 588Q1040 543 1068.50 479Q1097 415 1097 341Q1097 178 979.50 66.50Q862-45 674-45Q574-45 467-7L517 147Q577 129 651 129Q883 129 883 280Q883 333 842.50 380.50Q802 428 679 483Q525 551 482.50 605.50Q440 660 440 728Q440 829 537 941L579 958Q682 996 720.50 1033Q759 1070 759 1138Q759 1208 713 1254.50Q667 1301 589 1301Q494 1301 432.50 1235Q371 1169 371 1051L371-94Z"  horiz-adv-x="1142" vert-adv-y="2048"  />

      
      <glyph glyph-name="uniae" unicode="&#xae;" d="M1501 682Q1501 390 1293 180.50Q1085-29 794-29Q501-29 292 180.50Q83 390 83 683Q83 976 291.50 1185Q500 1394 796 1394Q1087 1394 1294 1185Q1501 976 1501 682M1374 683Q1374 928 1203.50 1104Q1033 1280 795 1280Q552 1280 381 1104.50Q210 929 210 683Q210 435 381.50 260Q553 85 793 85Q1031 85 1202.50 260Q1374 435 1374 683M1149 273L965 273L832 604L636 604L636 273L461 273L461 1092L841 1092Q997 1092 1073.50 1024Q1150 956 1150 849Q1150 696 998 633L1149 273M636 734L816 734Q969 734 969 851Q969 963 829 963L636 963L636 734Z"  horiz-adv-x="1584" vert-adv-y="2048"  />

      
      <glyph glyph-name="unia9" unicode="&#xa9;" d="M1501 682Q1501 390 1293 180.50Q1085-29 794-29Q501-29 292 180.50Q83 390 83 683Q83 976 291.50 1185Q500 1394 796 1394Q1087 1394 1294 1185Q1501 976 1501 682M1374 683Q1374 928 1203.50 1104Q1033 1280 795 1280Q552 1280 381 1104.50Q210 929 210 683Q210 435 381.50 260Q553 85 793 85Q1031 85 1202.50 260Q1374 435 1374 683M956 568L1121 550Q1105 418 1016.50 339.50Q928 261 787 261Q629 261 532.50 374Q436 487 436 683Q436 873 532 989Q628 1105 792 1105Q1068 1105 1121 807L957 790Q957 791 951 813Q910 974 793 974Q721 974 672 906.50Q623 839 623 685Q623 544 671 470Q719 396 798 396Q860 396 905 444Q950 492 956 568Z"  horiz-adv-x="1584" vert-adv-y="2048"  />

      
      <glyph glyph-name="uni2122" unicode="&#x2122;" d="M401 587L221 587L221 1233L3 1233L3 1365L619 1365L619 1233L401 1233L401 587M1512 587L1340 587L1340 1198L1133 587L1038 587L829 1198L829 587L687 587L687 1365L937 1365L1100 898L1260 1365L1512 1365L1512 587Z"  horiz-adv-x="1591" vert-adv-y="2048"  />

      
      <glyph glyph-name="unib4" unicode="&#xb4;" d="M739 1487L805 1337L388 1161L346 1268L739 1487Z"  horiz-adv-x="1024" vert-adv-y="2048"  />

      
      <glyph glyph-name="unia8" unicode="&#xa8;" d="M343 1188Q295 1188 263.50 1219.50Q232 1251 232 1295Q232 1339 263 1372.50Q294 1406 343 1406Q389 1406 423 1376.50Q457 1347 457 1296Q457 1246 423.50 1217Q390 1188 343 1188M678 1188Q629 1188 597.50 1220Q566 1252 566 1295Q566 1339 597.50 1372.50Q629 1406 678 1406Q723 1406 757.50 1376.50Q792 1347 792 1296Q792 1246 758.50 1217Q725 1188 678 1188Z"  horiz-adv-x="1024" vert-adv-y="2048"  />

      
      <glyph glyph-name="uni2260" unicode="&#x2260;" d="M631 946L743 1170L892 1096L817 946L1044 946L1044 738L722 738L647 586L1045 586L1045 377L552 377L449 171L300 244L366 377L157 377L157 586L461 586L537 738L157 738L157 946L631 946Z"  horiz-adv-x="1201" vert-adv-y="2048"  />

      
      <glyph glyph-name="unic6" unicode="&#xc6;" d="M1671 212L1671 0L802 0L802 386L394 386L200 0L-34 0L693 1365L1654 1365L1654 1167L1048 1167L1048 791L1529 791L1529 595L1048 595L1048 212L1671 212M802 576L802 1197L492 576L802 576Z"  horiz-adv-x="1732" vert-adv-y="2048"  />

      
      <glyph glyph-name="unid8" unicode="&#xd8;" d="M1094 1175Q1239 975 1239 684Q1239 368 1079 173.50Q919-21 654-21Q465-21 339 75L247-56L57-56L225 186Q79 403 79 685Q79 988 241 1187Q403 1386 659 1386Q834 1386 981 1292L1068 1421L1260 1421L1094 1175M383 409L849 1115Q781 1188 665 1188Q496 1188 420.50 1052.50Q345 917 345 687Q345 520 383 409M940 961L471 253Q547 177 658 177Q790 177 881.50 287Q973 397 973 686Q973 823 940 961Z"  horiz-adv-x="1318" vert-adv-y="2048"  />

      
      <glyph glyph-name="uni221E" unicode="&#x221E;" d="M687 831Q804 981 874 1022.50Q944 1064 1020 1064Q1130 1064 1219 985.50Q1308 907 1308 743Q1308 556 1215 481.50Q1122 407 1020 407Q942 407 872 450Q802 493 687 640Q551 468 399 468Q287 468 219.50 551Q152 634 152 735Q152 837 219.50 919.50Q287 1002 399 1002Q551 1002 687 831M756 737Q803 661 870 590Q937 519 1017 519Q1086 519 1141.50 569.50Q1197 620 1197 733Q1197 837 1145 894Q1093 951 1014 951Q958 951 906 911Q854 871 756 737M618 735Q496 893 398 893Q337 893 300 849.50Q263 806 263 739Q263 668 302.50 625Q342 582 400 582Q500 582 618 735Z"  horiz-adv-x="1460" vert-adv-y="2048"  />

      
      <glyph glyph-name="unib1" unicode="&#xb1;" d="M1107 785L1107 594L696 594L696 169L506 169L506 594L95 594L95 785L506 785L506 1211L696 1211L696 785L1107 785M1107 102L1107-89L95-89L95 102L1107 102Z"  horiz-adv-x="1201" vert-adv-y="2048"  />

      
      <glyph glyph-name="uni2264" unicode="&#x2264;" d="M1024 1333L1024 1116L383 816L1024 517L1024 300L137 719L137 914L1024 1333M1024 241L1024 32L137 32L137 241L1024 241Z"  horiz-adv-x="1201" vert-adv-y="2048"  />

      
      <glyph glyph-name="uni2265" unicode="&#x2265;" d="M177 300L177 517L819 817L178 1116L177 1333L1064 914L1064 718L177 300M177 32L177 241L1064 241L1064 32L177 32Z"  horiz-adv-x="1201" vert-adv-y="2048"  />

      
      <glyph glyph-name="unia5" unicode="&#xa5;" d="M107 867L330 867L59 1365L343 1365L637 802L917 1365L1142 1365L885 867L1094 867L1094 744L822 744L735 576L735 542L1094 542L1094 419L735 419L735 0L488 0L488 419L107 419L107 542L488 542L488 576L397 744L107 744L107 867Z"  horiz-adv-x="1202" vert-adv-y="2048"  />

      
      <glyph glyph-name="unib5" unicode="&#xb5;" d="M173-341L173 1010L401 1010L401 470Q401 359 417.50 303Q434 247 483 207Q532 167 597 167Q690 167 745 232Q800 297 800 470L800 1010L1028 1010L1028 0L835 0L835 155Q759-21 604-21Q532-21 474.50 21.50Q417 64 401 122L401-341L173-341Z"  horiz-adv-x="1201" vert-adv-y="2048"  />

      
      <glyph glyph-name="uni2202" unicode="&#x2202;" d="M426 1138L291 1198Q355 1348 454.50 1419.50Q554 1491 651 1491Q799 1491 886 1351.50Q973 1212 973 926Q973 489 791.50 230.50Q610-28 362-28Q227-28 141.50 64Q56 156 56 320Q56 578 253 748Q450 918 858 924Q856 1174 801 1268.50Q746 1363 653 1363Q510 1363 426 1138M854 796Q608 784 492 726Q376 668 306 545.50Q236 423 236 303Q236 215 289.50 163.50Q343 112 406 112Q550 112 685 281.50Q820 451 854 796Z"  horiz-adv-x="1012" vert-adv-y="2048"  />

      
      <glyph glyph-name="uni2211" unicode="&#x2211;" d="M139 1536L1376 1536L1376 1372L388 1372L995 576L349-265L1386-265L1386-426L122-426L122-239L742 569L139 1360L139 1536Z"  horiz-adv-x="1460" vert-adv-y="2048"  />

      
      <glyph glyph-name="uni220F" unicode="&#x220F;" d="M162 1536L1524 1536L1524-426L1333-426L1333 1362L355 1362L355-426L162-426L162 1536Z"  horiz-adv-x="1685" vert-adv-y="2048"  />

      
      <glyph glyph-name="uniF006" unicode="&#xF006;" d="M167 0L167 833L45 833L45 1010L1093 1010L1093 833L970 833L970 0L742 0L742 833L395 833L395 0L167 0Z"  horiz-adv-x="1138" vert-adv-y="2048"  />

      
      <glyph glyph-name="uni222B" unicode="&#x222B;" d="M435 1863Q489 1863 524.50 1828.50Q560 1794 560 1756Q560 1712 534.50 1682Q509 1652 468 1652Q433 1652 392 1688Q369 1708 352 1708Q312 1708 312 1644Q312 1602 321 1499Q358 1089 358 834Q358 767 346 364Q334-39 269-129.50Q204-220 118-220Q69-220 34.50-187.50Q0-155 0-99Q0-56 24.50-28Q49 0 90 0Q130 0 160-33Q188-64 208-64Q247-64 247-3Q247 39 238 117Q201 433 201 948Q201 1537 257 1700Q313 1863 435 1863Z"  horiz-adv-x="561" vert-adv-y="2048"  />

      
      <glyph glyph-name="uniaa" unicode="&#xaa;" d="M657 771L499 771Q484 804 480 847L479 858Q455 827 431 807Q374 759 273 759Q175 759 115 812.50Q55 866 55 948Q55 1161 475 1161L475 1198Q475 1284 353 1284Q230 1284 215 1190L73 1210Q107 1393 368 1393Q483 1393 541 1363.50Q599 1334 617.50 1292Q636 1250 636 1167L636 898Q636 840 657 771M475 1074Q222 1074 222 957Q222 874 322 874Q400 874 437.50 920.50Q475 967 475 1026L475 1074Z"  horiz-adv-x="730" vert-adv-y="2048"  />

      
      <glyph glyph-name="uniba" unicode="&#xba;" d="M351 759Q213 759 133.50 852Q54 945 54 1078Q54 1213 138.50 1303Q223 1393 361 1393Q496 1393 578.50 1303Q661 1213 661 1078Q661 934 573.50 846.50Q486 759 351 759M356 883Q489 883 489 1079Q489 1269 361 1269Q226 1269 226 1075Q226 883 356 883Z"  horiz-adv-x="715" vert-adv-y="2048"  />

      
      <glyph glyph-name="uni2126" unicode="&#x2126;" d="M481 160Q135 361 135 811Q135 1108 312 1305.50Q489 1503 793 1503Q1091 1503 1265.50 1303Q1440 1103 1440 803Q1440 387 1096 160L1460 167L1460 0L885 0L885 179Q1050 254 1141 419.50Q1232 585 1232 777Q1232 1009 1120 1174.50Q1008 1340 791 1340Q579 1340 463 1182Q347 1024 347 785Q347 562 440 403.50Q533 245 689 179L689 0L112 0L112 167L481 160Z"  horiz-adv-x="1573" vert-adv-y="2048"  />

      
      <glyph glyph-name="unie6" unicode="&#xe6;" d="M1685 472L973 472Q975 328 1036.50 243Q1098 158 1224 158Q1393 158 1455 319L1666 284Q1631 154 1503 66.50Q1375-21 1208-21Q1077-21 969.50 36Q862 93 812 189Q675-21 439-21Q262-21 167.50 67Q73 155 73 290Q73 460 230 545Q387 630 665 630Q702 630 755 625Q753 730 742.50 767.50Q732 805 684 834Q636 863 542 863Q359 863 321 723L118 748Q190 1031 574 1031Q679 1031 745 1007.50Q811 984 901 916Q1036 1031 1217 1031Q1444 1031 1564.50 890Q1685 749 1685 532L1685 472M1449 625Q1443 749 1376 809.50Q1309 870 1215 870Q1011 870 980 625L1449 625M753 503Q509 496 415.50 447.50Q322 399 322 298Q322 226 370 187Q418 148 491 148Q577 148 646 198Q715 248 734 315.50Q753 383 753 503Z"  horiz-adv-x="1757" vert-adv-y="2048"  />

      
      <glyph glyph-name="unif8" unicode="&#xf8;" d="M883 883Q960 784 985.50 702Q1011 620 1011 509Q1011 268 875.50 123.50Q740-21 528-21Q396-21 294 44L214-66L72-66L204 122Q73 285 73 510Q73 733 202.50 882Q332 1031 552 1031Q687 1031 796 962L869 1059L1011 1059L883 883M341 310L676 799Q629 844 537 844Q433 844 373.50 754.50Q314 665 314 515Q314 406 341 310M740 694L416 208Q473 167 541 167Q770 167 770 517Q770 628 740 694Z"  horiz-adv-x="1083" vert-adv-y="2048"  />

      
      <glyph glyph-name="unibf" unicode="&#xbf;" d="M387 775L387 1024L622 1024L622 775L387 775M427 632L622 632L622 497Q622 429 594.50 390Q567 351 474 279Q332 170 332 48Q332-43 387.50-97.50Q443-152 532-152Q738-152 775 133L993 94Q973-121 835.50-241.50Q698-362 507-362Q311-362 188-248Q65-134 65 35Q65 118 100 193.50Q135 269 179 311Q223 353 364 456Q405 486 415.50 513Q426 540 427 632Z"  horiz-adv-x="1027" vert-adv-y="2048"  />

      
      <glyph glyph-name="unia1" unicode="&#xa1;" d="M157 774L157 1024L407 1024L407 774L157 774M126-341L227 610L331 610L427-341L126-341Z"  horiz-adv-x="564" vert-adv-y="2048"  />

      
      <glyph glyph-name="uniac" unicode="&#xac;" d="M812 0L812 338L157 338L157 546L1044 546L1044 0L812 0Z"  horiz-adv-x="1201" vert-adv-y="2048"  />

      
      <glyph glyph-name="uni221A" unicode="&#x221A;" d="M1047 1869L1121 1869L809-78L313 943L115 852L81 916L382 1067L787 244L1047 1869Z"  horiz-adv-x="1124" vert-adv-y="2048"  />

      
      <glyph glyph-name="uni0192" unicode="&#x0192;" d="M967 953L755 953L621 205Q592 47 571.50-20Q551-87 497-151Q443-215 375.50-244Q308-273 181-273Q120-273 83-264L118-81L173-82Q260-82 296-61.50Q332-41 348.50-4.50Q365 32 385 141L532 953L385 953L413 1135L565 1135Q597 1380 707.50 1454Q818 1528 970 1528Q1011 1528 1089 1518L1055 1326Q1010 1329 999 1329Q869 1329 834 1281.50Q799 1234 787 1135L1002 1135L967 953Z"  horiz-adv-x="1201" vert-adv-y="2048"  />

      
      <glyph glyph-name="uni2248" unicode="&#x2248;" d="M233 699L104 783Q170 941 240 997.50Q310 1054 406 1054Q476 1054 623 996Q757 943 805 943Q902 943 964 1057L1097 980Q984 719 778 719Q721 719 532 791Q431 829 389 829Q295 829 233 699M233 304L104 388Q171 549 241 604Q311 659 406 659Q476 659 623 601Q757 548 806 548Q902 548 964 663L1097 585Q983 325 777 325Q721 325 532 396Q431 435 389 435Q295 435 233 304Z"  horiz-adv-x="1201" vert-adv-y="2048"  />

      
      <glyph glyph-name="uni2206" unicode="&#x2206;" d="M1226 0L26 0L654 1387L1226 0M990 82L591 1049L151 82L990 82Z"  horiz-adv-x="1253" vert-adv-y="2048"  />

      
      <glyph glyph-name="uniab" unicode="&#xab;" d="M585 799L494 509L585 221L494 221L329 509L494 799L585 799M329 799L232 509L329 221L232 221L75 509L232 799L329 799Z"  horiz-adv-x="674" vert-adv-y="2048"  />

      
      <glyph glyph-name="unibb" unicode="&#xbb;" d="M89 797L183 797L343 505L183 223L89 223L183 505L89 797M343 797L437 797L599 505L437 223L343 223L437 505L343 797Z"  horiz-adv-x="673" vert-adv-y="2048"  />

      
      <glyph glyph-name="uni2026" unicode="&#x2026;" d="M377 262L377 0L130 0L130 262L377 262M882 262L882 0L637 0L637 262L882 262M1389 262L1389 0L1142 0L1142 262L1389 262Z"  horiz-adv-x="1518" vert-adv-y="2048"  />

      
      <glyph glyph-name="unic0" unicode="&#xc0;" d="M1221 0L958 0L849 325L324 325L217 0L7 0L460 1365L763 1365L1221 0M783 522L584 1131L385 522L783 522M349 1800L742 1581L700 1474L283 1650L349 1800Z"  horiz-adv-x="1235" vert-adv-y="2048"  />

      
      <glyph glyph-name="unic3" unicode="&#xc3;" d="M1221 0L958 0L849 325L324 325L217 0L7 0L460 1365L763 1365L1221 0M783 522L584 1131L385 522L783 522M876 1735L946 1632Q922 1582 858 1548.50Q794 1515 744 1515Q683 1515 592 1562Q523 1598 490 1598Q443 1598 364 1520L295 1623Q388 1738 496 1738Q548 1738 631 1699Q721 1657 765 1657Q826 1657 876 1735Z"  horiz-adv-x="1235" vert-adv-y="2048"  />

      
      <glyph glyph-name="unid5" unicode="&#xd5;" d="M653-21Q381-21 229.50 183Q78 387 78 687Q78 985 239 1185.50Q400 1386 664 1386Q930 1386 1084.50 1185.50Q1239 985 1239 684Q1239 368 1078.50 173.50Q918-21 653-21M655 177Q788 177 880 287Q972 397 972 686Q972 921 896 1054.50Q820 1188 660 1188Q344 1188 344 679Q344 432 424.50 304.50Q505 177 655 177M934 1735L1004 1632Q980 1582 916 1548.50Q852 1515 802 1515Q741 1515 650 1562Q581 1598 548 1598Q501 1598 422 1520L353 1623Q446 1738 554 1738Q606 1738 689 1699Q779 1657 823 1657Q884 1657 934 1735Z"  horiz-adv-x="1318" vert-adv-y="2048"  />

      
      <glyph glyph-name="uni0152" unicode="&#x0152;" d="M953 1365L1864 1365L1864 1167L1199 1167L1199 793L1727 793L1727 598L1199 598L1199 212L1864 212L1864 0L953 0L953 69Q826-21 652-21Q394-21 236.50 180Q79 381 79 690Q79 998 232.50 1192.50Q386 1387 640 1387Q819 1387 953 1305L953 1365M953 919Q953 1042 866 1115Q779 1188 670 1188Q545 1188 445 1085.50Q345 983 345 702Q345 426 432 306.50Q519 187 660 187Q761 187 857 247.50Q953 308 953 438L953 919Z"  horiz-adv-x="1924" vert-adv-y="2048"  />

      
      <glyph glyph-name="uni0153" unicode="&#x0153;" d="M1656 479L967 479Q967 323 1033 245Q1099 167 1211 167Q1380 167 1434 321L1642 290Q1617 190 1505 84.50Q1393-21 1201-21Q964-21 864 131Q745-21 537-21Q305-21 188.50 136.50Q72 294 72 505Q72 729 198.50 880Q325 1031 541 1031Q759 1031 864 879Q974 1031 1205 1031Q1414 1031 1536.50 891.50Q1659 752 1656 479M1424 620Q1423 726 1360.50 794Q1298 862 1198 862Q1106 862 1041.50 802Q977 742 969 620L1424 620M531 167Q636 167 698 254Q760 341 760 519Q760 709 691.50 776.50Q623 844 534 844Q421 844 364.50 749Q308 654 308 498Q308 345 364.50 256Q421 167 531 167Z"  horiz-adv-x="1728" vert-adv-y="2048"  />

      
      <glyph glyph-name="uni2013" unicode="&#x2013;" d="M1015 612L1015 423L186 423L186 612L1015 612Z"  horiz-adv-x="1201" vert-adv-y="2048"  />

      
      <glyph glyph-name="uni2014" unicode="&#x2014;" d="M1436 614L1436 429L-71 429L-71 614L1436 614Z"  horiz-adv-x="1365" vert-adv-y="2048"  />

      
      <glyph glyph-name="uni201C" unicode="&#x201C;" d="M130 871L130 1096L280 1365L366 1365L251 1096L347 1096L347 871L130 871M418 871L418 1096L567 1365L639 1365L534 1096L639 1096L639 871L418 871Z"  horiz-adv-x="769" vert-adv-y="2048"  />

      
      <glyph glyph-name="uni201D" unicode="&#x201D;" d="M639 1365L639 1139L490 871L405 871L519 1139L424 1139L424 1365L639 1365M351 1365L351 1139L203 871L130 871L236 1139L130 1139L130 1365L351 1365Z"  horiz-adv-x="769" vert-adv-y="2048"  />

      
      <glyph glyph-name="uni2018" unicode="&#x2018;" d="M133 872L133 1098L285 1365L360 1365L250 1098L360 1098L360 872L133 872Z"  horiz-adv-x="493" vert-adv-y="2048"  />

      
      <glyph glyph-name="uni2019" unicode="&#x2019;" d="M360 1365L360 1140L207 872L133 872L243 1140L133 1140L133 1365L360 1365Z"  horiz-adv-x="493" vert-adv-y="2048"  />

      
      <glyph glyph-name="unif7" unicode="&#xf7;" d="M722 1036Q722 985 686 949Q650 913 600 913Q549 913 513 948.50Q477 984 477 1036Q477 1086 513 1122Q549 1158 600 1158Q650 1158 686 1122Q722 1086 722 1036M1107 785L1107 594L95 594L95 785L1107 785M722 340Q722 290 686 254Q650 218 600 218Q549 218 513 254Q477 290 477 340Q477 391 513 427Q549 463 600 463Q650 463 686 427Q722 391 722 340Z"  horiz-adv-x="1201" vert-adv-y="2048"  />

      
      <glyph glyph-name="uni25CA" unicode="&#x25CA;" d="M549 1422L967 709L549 0L438 0L47 709L438 1422L549 1422M495 1325L155 709L495 94L854 709L495 1325Z"  horiz-adv-x="1012" vert-adv-y="2048"  />

      
      <glyph glyph-name="uniff" unicode="&#xff;" d="M891 1010L498-140Q462-246 399.50-304.50Q337-363 223-363Q178-363 92-356L92-175L201-177Q273-177 307.50-153.50Q342-130 362-70Q382-10 382 0Q382 6 361 62L14 1010L253 1010L498 344L709 1010L891 1010M304 1188Q256 1188 224.50 1219.50Q193 1251 193 1295Q193 1339 224 1372.50Q255 1406 304 1406Q350 1406 384 1376.50Q418 1347 418 1296Q418 1246 384.50 1217Q351 1188 304 1188M639 1188Q590 1188 558.50 1220Q527 1252 527 1295Q527 1339 558.50 1372.50Q590 1406 639 1406Q684 1406 718.50 1376.50Q753 1347 753 1296Q753 1246 719.50 1217Q686 1188 639 1188Z"  horiz-adv-x="905" vert-adv-y="2048"  />

      
      <glyph glyph-name="uni0178" unicode="&#x0178;" d="M699 0L438 0L438 576L-27 1365L271 1365L595 802L905 1365L1141 1365L699 576L699 0M402 1512Q354 1512 322.50 1543.50Q291 1575 291 1619Q291 1663 322 1696.50Q353 1730 402 1730Q448 1730 482 1700.50Q516 1671 516 1620Q516 1570 482.50 1541Q449 1512 402 1512M737 1512Q688 1512 656.50 1544Q625 1576 625 1619Q625 1663 656.50 1696.50Q688 1730 737 1730Q782 1730 816.50 1700.50Q851 1671 851 1620Q851 1570 817.50 1541Q784 1512 737 1512Z"  horiz-adv-x="1113" vert-adv-y="2048"  />

      
      <glyph glyph-name="uni2215" unicode="&#x2215;" d="M-379 0L464 1365L597 1365L-246 0L-379 0Z"  horiz-adv-x="218" vert-adv-y="2048"  />

      
      <glyph glyph-name="unia4" unicode="&#xa4;" d="M63 273L268 478Q174 611 174 762Q174 915 268 1046L60 1254L187 1381L395 1174Q529 1268 689 1268Q836 1268 969 1176L1174 1380L1301 1254L1096 1049Q1193 908 1193 762Q1193 613 1099 480L1306 273L1181 146L974 352Q838 256 683 256Q536 256 394 351L188 147L63 273M981 762Q981 885 893.50 973Q806 1061 683 1061Q561 1061 473.50 973Q386 885 386 762Q386 639 473.50 551Q561 463 683 463Q805 463 893 550.50Q981 638 981 762Z"  horiz-adv-x="1365" vert-adv-y="2048"  />

      
      <glyph glyph-name="uni2039" unicode="&#x2039;" d="M329 818L235 525L329 243L235 243L75 525L235 818L329 818Z"  horiz-adv-x="418" vert-adv-y="2048"  />

      
      <glyph glyph-name="uni203A" unicode="&#x203A;" d="M89 818L183 818L343 525L183 243L89 243L183 525L89 818Z"  horiz-adv-x="418" vert-adv-y="2048"  />

      
      <glyph glyph-name="uniFB01" unicode="&#xFB01;" d="M407 0L171 0L171 833L21 833L21 1010L171 1010Q172 1162 211 1235Q250 1308 323 1347Q396 1386 490 1386Q541 1386 629 1376L629 1195Q608 1196 598 1196Q496 1196 461.50 1177.50Q427 1159 417 1127Q407 1095 407 1010L629 1010L629 833L407 833L407 0M969 1365L969 1125L734 1125L734 1365L969 1365M969 1010L969 0L734 0L734 1010L969 1010Z"  horiz-adv-x="1105" vert-adv-y="2048"  />

      
      <glyph glyph-name="uniFB02" unicode="&#xFB02;" d="M409 0L173 0L173 833L21 833L21 1010L173 1010Q175 1141 202 1215.50Q229 1290 304.50 1338Q380 1386 496 1386Q551 1386 630 1376L630 1194Q576 1196 571 1196Q495 1196 451.50 1168Q408 1140 408 1053L409 1010L630 1010L630 833L409 833L409 0M970 1365L970 0L735 0L735 1365L970 1365Z"  horiz-adv-x="1106" vert-adv-y="2048"  />

      
      <glyph glyph-name="uni2021" unicode="&#x2021;" d="M125 801L125 989L491 989L491 1365L709 1365L709 989L1075 989L1075 801L709 801L709 243L1075 243L1075 55L709 55L709-341L491-341L491 55L125 55L125 243L491 243L491 801L125 801Z"  horiz-adv-x="1201" vert-adv-y="2048"  />

      
      <glyph glyph-name="uni2219" unicode="&#x2219;" d="M247 651L247 389L0 389L0 651L247 651Z"  horiz-adv-x="247" vert-adv-y="2048"  />

      
      <glyph glyph-name="uni201A" unicode="&#x201A;" d="M360 225L360 0L207-269L133-269L243 0L133 0L133 225L360 225Z"  horiz-adv-x="493" vert-adv-y="2048"  />

      
      <glyph glyph-name="uni201E" unicode="&#x201E;" d="M639 227L639 0L490-269L405-269L519 0L424 0L424 227L639 227M351 227L351 0L203-269L130-269L236 0L130 0L130 227L351 227Z"  horiz-adv-x="769" vert-adv-y="2048"  />

      
      <glyph glyph-name="uni2030" unicode="&#x2030;" d="M382 617Q238 617 151.50 729.50Q65 842 65 1004Q65 1163 152 1270.50Q239 1378 385 1378Q548 1378 626.50 1265Q705 1152 705 1007Q705 827 611 722Q517 617 382 617M383 765Q521 765 521 1005Q521 1233 388 1233Q253 1233 253 1006Q253 765 383 765M1289 1365L444 0L293 0L1141 1365L1289 1365M1189-12Q1054-12 965.50 92.50Q877 197 877 356Q877 539 975.50 644.50Q1074 750 1202 750Q1323 750 1419 652Q1515 554 1515 356Q1515 190 1422.50 89Q1330-12 1189-12M1197 133Q1268 133 1300.50 201.50Q1333 270 1333 359Q1333 488 1301.50 543.50Q1270 599 1205 599Q1063 599 1063 366Q1063 133 1197 133M1912-12Q1778-12 1689.50 92.50Q1601 197 1601 356Q1601 539 1699 644.50Q1797 750 1926 750Q2046 750 2142.50 652Q2239 554 2239 356Q2239 190 2146 89Q2053-12 1912-12M1920 133Q1991 133 2024 201Q2057 269 2057 359Q2057 500 2022.50 549.50Q1988 599 1928 599Q1785 599 1785 365Q1785 133 1920 133Z"  horiz-adv-x="2303" vert-adv-y="2048"  />

      
      <glyph glyph-name="unic2" unicode="&#xc2;" d="M1221 0L958 0L849 325L324 325L217 0L7 0L460 1365L763 1365L1221 0M783 522L584 1131L385 522L783 522M615 1790L962 1502L782 1481L615 1613L448 1481L267 1502L615 1790Z"  horiz-adv-x="1235" vert-adv-y="2048"  />

      
      <glyph glyph-name="unica" unicode="&#xca;" d="M1037 0L150 0L150 1365L1028 1365L1028 1162L396 1162L396 792L904 792L904 594L396 594L396 212L1037 212L1037 0M601 1790L948 1502L768 1481L601 1613L434 1481L253 1502L601 1790Z"  horiz-adv-x="1099" vert-adv-y="2048"  />

      
      <glyph glyph-name="unic1" unicode="&#xc1;" d="M1221 0L958 0L849 325L324 325L217 0L7 0L460 1365L763 1365L1221 0M783 522L584 1131L385 522L783 522M873 1800L939 1650L522 1474L480 1581L873 1800Z"  horiz-adv-x="1235" vert-adv-y="2048"  />

      
      <glyph glyph-name="unicb" unicode="&#xcb;" d="M1037 0L150 0L150 1365L1028 1365L1028 1162L396 1162L396 792L904 792L904 594L396 594L396 212L1037 212L1037 0M425 1512Q377 1512 345.50 1543.50Q314 1575 314 1619Q314 1663 345 1696.50Q376 1730 425 1730Q471 1730 505 1700.50Q539 1671 539 1620Q539 1570 505.50 1541Q472 1512 425 1512M760 1512Q711 1512 679.50 1544Q648 1576 648 1619Q648 1663 679.50 1696.50Q711 1730 760 1730Q805 1730 839.50 1700.50Q874 1671 874 1620Q874 1570 840.50 1541Q807 1512 760 1512Z"  horiz-adv-x="1099" vert-adv-y="2048"  />

      
      <glyph glyph-name="unic8" unicode="&#xc8;" d="M1037 0L150 0L150 1365L1028 1365L1028 1162L396 1162L396 792L904 792L904 594L396 594L396 212L1037 212L1037 0M362 1800L755 1581L713 1474L296 1650L362 1800Z"  horiz-adv-x="1099" vert-adv-y="2048"  />

      
      <glyph glyph-name="unicd" unicode="&#xcd;" d="M396 0L150 0L150 1365L396 1365L396 0M540 1800L606 1650L189 1474L147 1581L540 1800Z"  horiz-adv-x="546" vert-adv-y="2048"  />

      
      <glyph glyph-name="unice" unicode="&#xce;" d="M396 0L150 0L150 1365L396 1365L396 0M272 1790L619 1502L439 1481L272 1613L105 1481L-76 1502L272 1790Z"  horiz-adv-x="546" vert-adv-y="2048"  />

      
      <glyph glyph-name="unicf" unicode="&#xcf;" d="M396 0L150 0L150 1365L396 1365L396 0M118 1512Q70 1512 38.50 1543.50Q7 1575 7 1619Q7 1663 38 1696.50Q69 1730 118 1730Q164 1730 198 1700.50Q232 1671 232 1620Q232 1570 198.50 1541Q165 1512 118 1512M453 1512Q404 1512 372.50 1544Q341 1576 341 1619Q341 1663 372.50 1696.50Q404 1730 453 1730Q498 1730 532.50 1700.50Q567 1671 567 1620Q567 1570 533.50 1541Q500 1512 453 1512Z"  horiz-adv-x="546" vert-adv-y="2048"  />

      
      <glyph glyph-name="unicc" unicode="&#xcc;" d="M396 0L150 0L150 1365L396 1365L396 0M36 1800L429 1581L387 1474L-30 1650L36 1800Z"  horiz-adv-x="546" vert-adv-y="2048"  />

      
      <glyph glyph-name="unid3" unicode="&#xd3;" d="M653-21Q381-21 229.50 183Q78 387 78 687Q78 985 239 1185.50Q400 1386 664 1386Q930 1386 1084.50 1185.50Q1239 985 1239 684Q1239 368 1078.50 173.50Q918-21 653-21M655 177Q788 177 880 287Q972 397 972 686Q972 921 896 1054.50Q820 1188 660 1188Q344 1188 344 679Q344 432 424.50 304.50Q505 177 655 177M910 1800L976 1650L559 1474L517 1581L910 1800Z"  horiz-adv-x="1318" vert-adv-y="2048"  />

      
      <glyph glyph-name="unid4" unicode="&#xd4;" d="M653-21Q381-21 229.50 183Q78 387 78 687Q78 985 239 1185.50Q400 1386 664 1386Q930 1386 1084.50 1185.50Q1239 985 1239 684Q1239 368 1078.50 173.50Q918-21 653-21M655 177Q788 177 880 287Q972 397 972 686Q972 921 896 1054.50Q820 1188 660 1188Q344 1188 344 679Q344 432 424.50 304.50Q505 177 655 177M666 1790L1013 1502L833 1481L666 1613L499 1481L318 1502L666 1790Z"  horiz-adv-x="1318" vert-adv-y="2048"  />

      
      <glyph glyph-name="unid2" unicode="&#xd2;" d="M653-21Q381-21 229.50 183Q78 387 78 687Q78 985 239 1185.50Q400 1386 664 1386Q930 1386 1084.50 1185.50Q1239 985 1239 684Q1239 368 1078.50 173.50Q918-21 653-21M655 177Q788 177 880 287Q972 397 972 686Q972 921 896 1054.50Q820 1188 660 1188Q344 1188 344 679Q344 432 424.50 304.50Q505 177 655 177M426 1800L819 1581L777 1474L360 1650L426 1800Z"  horiz-adv-x="1318" vert-adv-y="2048"  />

      
      <glyph glyph-name="unida" unicode="&#xda;" d="M1087 1365L1087 488Q1087 310 1047 214Q1007 118 892.50 48.50Q778-21 613-21Q446-21 338.50 39Q231 99 184 203.50Q137 308 137 470L137 1365L388 1365L388 488Q388 308 463.50 251.50Q539 195 639 195Q754 195 823 255.50Q892 316 892 488L892 1365L1087 1365M868 1800L934 1650L517 1474L475 1581L868 1800Z"  horiz-adv-x="1218" vert-adv-y="2048"  />

      
      <glyph glyph-name="unidb" unicode="&#xdb;" d="M1087 1365L1087 488Q1087 310 1047 214Q1007 118 892.50 48.50Q778-21 613-21Q446-21 338.50 39Q231 99 184 203.50Q137 308 137 470L137 1365L388 1365L388 488Q388 308 463.50 251.50Q539 195 639 195Q754 195 823 255.50Q892 316 892 488L892 1365L1087 1365M619 1790L966 1502L786 1481L619 1613L452 1481L271 1502L619 1790Z"  horiz-adv-x="1218" vert-adv-y="2048"  />

      
      <glyph glyph-name="unid9" unicode="&#xd9;" d="M1087 1365L1087 488Q1087 310 1047 214Q1007 118 892.50 48.50Q778-21 613-21Q446-21 338.50 39Q231 99 184 203.50Q137 308 137 470L137 1365L388 1365L388 488Q388 308 463.50 251.50Q539 195 639 195Q754 195 823 255.50Q892 316 892 488L892 1365L1087 1365M370 1800L763 1581L721 1474L304 1650L370 1800Z"  horiz-adv-x="1218" vert-adv-y="2048"  />

      
      <glyph glyph-name="uni0131" unicode="&#x0131;" d="M364 0L136 0L136 1010L364 1010L364 0Z"  horiz-adv-x="501" vert-adv-y="2048"  />

      
      <glyph glyph-name="uni02C6" unicode="&#x02C6;" d="M512 1476L859 1188L679 1167L512 1299L345 1167L164 1188L512 1476Z"  horiz-adv-x="1024" vert-adv-y="2048"  />

      
      <glyph glyph-name="uni02DC" unicode="&#x02DC;" d="M768 1421L838 1318Q814 1268 750 1234.50Q686 1201 636 1201Q575 1201 484 1248Q415 1284 382 1284Q335 1284 256 1206L187 1309Q280 1424 388 1424Q440 1424 523 1385Q613 1343 657 1343Q718 1343 768 1421Z"  horiz-adv-x="1024" vert-adv-y="2048"  />

      
      <glyph glyph-name="uni02C9" unicode="&#x02C9;" d="M813 1352L813 1222L211 1222L211 1352L813 1352Z"  horiz-adv-x="1024" vert-adv-y="2048"  />

      
      <glyph glyph-name="uni02D8" unicode="&#x02D8;" d="M208 1455L339 1455Q357 1323 514 1323Q666 1323 684 1455L815 1455Q810 1340 727 1260.50Q644 1181 509 1181Q380 1181 296 1256Q212 1331 208 1455Z"  horiz-adv-x="1024" vert-adv-y="2048"  />

      
      <glyph glyph-name="uni02D9" unicode="&#x02D9;" d="M510 1188Q462 1188 430.50 1219.50Q399 1251 399 1295Q399 1339 430 1372.50Q461 1406 510 1406Q556 1406 590 1376.50Q624 1347 624 1296Q624 1246 590.50 1217Q557 1188 510 1188Z"  horiz-adv-x="1024" vert-adv-y="2048"  />

      
      <glyph glyph-name="uni02DA" unicode="&#x02DA;" d="M511 1133Q434 1133 380 1187Q326 1241 326 1318Q326 1395 380.50 1450Q435 1505 511 1505Q580 1505 638.50 1456Q697 1407 697 1315Q697 1243 643.50 1188Q590 1133 511 1133M512 1237Q554 1237 574 1262.50Q594 1288 594 1315Q594 1353 572.50 1377Q551 1401 516 1401Q482 1401 456 1380Q430 1359 430 1319Q430 1286 451 1261.50Q472 1237 512 1237Z"  horiz-adv-x="1024" vert-adv-y="2048"  />

      
      <glyph glyph-name="unib8" unicode="&#xb8;" d="M513 0L487-93Q589-93 645-139Q701-185 701-252Q701-317 647-366.50Q593-416 507-416Q432-416 304-357L336-279Q423-326 491-326Q526-326 549-306Q572-286 572-258Q572-172 420-172Q404-172 374-174L432 0L513 0Z"  horiz-adv-x="1024" vert-adv-y="2048"  />

      
      <glyph glyph-name="uni02DD" unicode="&#x02DD;" d="M612 1487L705 1371L377 1161L306 1248L612 1487M953 1487L1047 1371L719 1161L659 1248L953 1487Z"  horiz-adv-x="1024" vert-adv-y="2048"  />

      
      <glyph glyph-name="uni02DB" unicode="&#x02DB;" d="M893 0Q750-76 750-162Q750-203 779-228.50Q808-254 858-254Q899-254 947-236L968-309Q891-344 808-344Q719-344 664-301Q609-258 609-191Q609-72 783 0L893 0Z"  horiz-adv-x="1024" vert-adv-y="2048"  />

      
      <glyph glyph-name="uni02C7" unicode="&#x02C7;" d="M512 1154L164 1442L345 1462L512 1331L679 1462L859 1442L512 1154Z"  horiz-adv-x="1024" vert-adv-y="2048"  />

      
      <glyph glyph-name="uni0141" unicode="&#x0141;" d="M990 223L990 0L151 0L151 454L14 316L14 550L151 689L151 1365L410 1365L410 865L689 1146L689 911L410 631L410 223L990 223Z"  horiz-adv-x="1021" vert-adv-y="2048"  />

      
      <glyph glyph-name="uni0142" unicode="&#x0142;" d="M372 0L144 0L144 577L14 439L14 607L144 744L144 1365L372 1365L372 906L501 1042L501 874L372 738L372 0Z"  horiz-adv-x="515" vert-adv-y="2048"  />

      
      <glyph glyph-name="uni0160" unicode="&#x0160;" d="M7 329L246 380Q289 177 576 177Q707 177 777.50 229Q848 281 848 358Q848 414 816 461.50Q784 509 679 536L418 604Q284 639 220 683.50Q156 728 117.50 809Q79 890 79 982Q79 1165 215 1275.50Q351 1386 563 1386Q739 1386 877.50 1309Q1016 1232 1054 1091L820 1033Q766 1188 568 1188Q453 1188 392.50 1140Q332 1092 332 1018Q332 901 522 854L754 796Q965 743 1037 639.50Q1109 536 1109 411Q1109 210 957.50 94.50Q806-21 565-21Q362-21 209.50 64Q57 149 7 329M579 1468L231 1756L412 1776L579 1645L746 1776L926 1756L579 1468Z"  horiz-adv-x="1170" vert-adv-y="2048"  />

      
      <glyph glyph-name="uni0161" unicode="&#x0161;" d="M14 232L228 273Q277 150 444 150Q656 150 656 275Q656 315 623 341Q590 367 545 376L361 411Q55 470 55 710Q55 844 152 937.50Q249 1031 441 1031Q761 1031 832 796L629 755Q597 869 447 869Q265 869 265 755Q265 676 412 646L629 601Q882 549 882 311Q882 144 752 61.50Q622-21 443-21Q288-21 169 41.50Q50 104 14 232M462 1154L114 1442L295 1462L462 1331L629 1462L809 1442L462 1154Z"  horiz-adv-x="930" vert-adv-y="2048"  />

      
      <glyph glyph-name="uni017D" unicode="&#x017D;" d="M1050 212L1050 0L41 0L41 194L740 1170L90 1170L90 1365L1030 1365L1030 1170L339 212L1050 212M567 1468L219 1756L400 1776L567 1645L734 1776L914 1756L567 1468Z"  horiz-adv-x="1091" vert-adv-y="2048"  />

      
      <glyph glyph-name="uni017E" unicode="&#x017E;" d="M810 177L810 0L48 0L48 177L535 833L94 833L94 1010L810 1010L810 849L311 177L810 177M456 1154L108 1442L289 1462L456 1331L623 1462L803 1442L456 1154Z"  horiz-adv-x="857" vert-adv-y="2048"  />

      
      <glyph glyph-name="unia6" unicode="&#xa6;" d="M396 1365L628 1365L628 664L396 664L396 1365M396 314L628 314L628-341L396-341L396 314Z"  horiz-adv-x="1024" vert-adv-y="2048"  />

      
      <glyph glyph-name="unid0" unicode="&#xd0;" d="M7 601L7 792L144 792L144 1365L647 1365Q926 1365 1094.50 1168Q1263 971 1263 680Q1263 391 1089.50 195.50Q916 0 592 0L144 0L144 601L7 601M396 601L396 201L602 201Q767 201 882 325.50Q997 450 997 695Q997 894 896 1032.50Q795 1171 631 1171L396 1171L396 792L733 792L733 601L396 601Z"  horiz-adv-x="1341" vert-adv-y="2048"  />

      
      <glyph glyph-name="unif0" unicode="&#xf0;" d="M325 1170L495 1259Q441 1296 310 1354L352 1434Q482 1405 623 1324L818 1420L890 1342L713 1252Q1011 947 1011 525Q1011 274 876.50 127.50Q742-19 537-19Q314-19 193 137Q72 293 72 506Q72 712 199.50 862Q327 1012 498 1012Q637 1012 733 894Q691 1054 579 1182L385 1086L325 1170M546 822Q414 822 361 717Q308 612 308 506Q308 369 361.50 267Q415 165 537 165Q647 165 706.50 252.50Q766 340 766 493Q766 653 703 737.50Q640 822 546 822Z"  horiz-adv-x="1083" vert-adv-y="2048"  />

      
      <glyph glyph-name="unidd" unicode="&#xdd;" d="M699 0L438 0L438 576L-27 1365L271 1365L595 802L905 1365L1141 1365L699 576L699 0M829 1800L895 1650L478 1474L436 1581L829 1800Z"  horiz-adv-x="1113" vert-adv-y="2048"  />

      
      <glyph glyph-name="unifd" unicode="&#xfd;" d="M891 1010L498-140Q462-246 399.50-304.50Q337-363 223-363Q178-363 92-356L92-175L201-177Q273-177 307.50-153.50Q342-130 362-70Q382-10 382 0Q382 6 361 62L14 1010L253 1010L498 344L709 1010L891 1010M719 1487L785 1337L368 1161L326 1268L719 1487Z"  horiz-adv-x="905" vert-adv-y="2048"  />

      
      <glyph glyph-name="unide" unicode="&#xde;" d="M396 0L150 0L150 1365L396 1365L396 1174L709 1174Q948 1174 1063.50 1053.50Q1179 933 1179 769Q1179 581 1053.50 465Q928 349 737 349L396 349L396 0M396 561L687 561Q800 561 860.50 617Q921 673 921 767Q921 841 869.50 905Q818 969 665 969L396 969L396 561Z"  horiz-adv-x="1241" vert-adv-y="2048"  />

      
      <glyph glyph-name="unife" unicode="&#xfe;" d="M365-341L137-341L137 1365L365 1365L365 855Q461 1031 660 1031Q840 1031 933.50 876Q1027 721 1027 512Q1027 297 932 138Q837-21 648-21Q453-21 365 141L365-341M365 414Q365 303 429.50 231Q494 159 576 159Q685 159 735.50 254.50Q786 350 786 497Q786 658 733 751Q680 844 583 844Q492 844 428.50 765Q365 686 365 558L365 414Z"  horiz-adv-x="1098" vert-adv-y="2048"  />

      
      <glyph glyph-name="uni2212" unicode="&#x2212;" d="M1107 785L1107 594L95 594L95 785L1107 785Z"  horiz-adv-x="1201" vert-adv-y="2048"  />

      
      <glyph glyph-name="unid7" unicode="&#xd7;" d="M903 1126L1038 990L737 689L1037 389L903 255L602 555L301 254L166 389L467 690L166 991L300 1126L602 825L903 1126Z"  horiz-adv-x="1201" vert-adv-y="2048"  />

      
      <glyph glyph-name="unib9" unicode="&#xb9;" d="M743 546L126 546L126 679L358 679L358 1166Q236 1067 123 1025L123 1185Q328 1251 414 1382L528 1382L528 679L743 679L743 546Z"  horiz-adv-x="792" vert-adv-y="2048"  />

      
      <glyph glyph-name="unib2" unicode="&#xb2;" d="M713 685L713 546L64 546L64 698L309 850Q418 918 463 964.50Q508 1011 521.50 1042Q535 1073 535 1103Q535 1161 495 1199.50Q455 1238 390 1238Q247 1238 226 1067L63 1105Q80 1219 167 1298.50Q254 1378 395 1378Q542 1378 628.50 1299.50Q715 1221 715 1102Q715 993 634.50 910Q554 827 284 685L713 685Z"  horiz-adv-x="792" vert-adv-y="2048"  />

      
      <glyph glyph-name="unib3" unicode="&#xb3;" d="M282 903L282 1031L368 1031Q435 1031 481 1058.50Q527 1086 527 1141Q527 1248 390 1248Q265 1248 221 1131L66 1157Q90 1256 179.50 1317Q269 1378 394 1378Q518 1378 606 1317.50Q694 1257 694 1156Q694 1024 565 973Q721 918 721 778Q721 672 630 603Q539 534 388 534Q249 534 157.50 601Q66 668 41 761L201 797Q244 661 385 661Q461 661 504.50 695.50Q548 730 548 778Q548 828 510 865.50Q472 903 394 903L282 903Z"  horiz-adv-x="792" vert-adv-y="2048"  />

      
      <glyph glyph-name="unibd" unicode="&#xbd;" d="M692 546L75 546L75 679L307 679L307 1166Q185 1067 72 1025L72 1185Q277 1251 363 1382L477 1382L477 679L692 679L692 546M443 0L1286 1365L1419 1365L576 0L443 0M1748 139L1748 0L1099 0L1099 152L1344 304Q1453 372 1498 418.50Q1543 465 1556.50 496Q1570 527 1570 557Q1570 615 1530 653.50Q1490 692 1425 692Q1282 692 1261 521L1098 559Q1115 673 1202 752.50Q1289 832 1430 832Q1577 832 1663.50 753.50Q1750 675 1750 556Q1750 447 1669.50 364Q1589 281 1319 139L1748 139Z"  horiz-adv-x="1802" vert-adv-y="2048"  />

      
      <glyph glyph-name="unibc" unicode="&#xbc;" d="M685 546L68 546L68 679L300 679L300 1166Q178 1067 65 1025L65 1185Q270 1251 356 1382L470 1382L470 679L685 679L685 546M436 0L1279 1365L1412 1365L569 0L436 0M1636 0L1464 0L1464 183L1082 183L1082 298L1468 836L1636 836L1636 321L1765 321L1765 183L1636 183L1636 0M1484 665L1243 310L1475 310L1475 496Q1475 558 1484 665Z"  horiz-adv-x="1802" vert-adv-y="2048"  />

      
      <glyph glyph-name="unibe" unicode="&#xbe;" d="M271 903L271 1031L357 1031Q424 1031 470 1058.50Q516 1086 516 1141Q516 1248 379 1248Q254 1248 210 1131L55 1157Q79 1256 168.50 1317Q258 1378 383 1378Q507 1378 595 1317.50Q683 1257 683 1156Q683 1024 554 973Q710 918 710 778Q710 672 619 603Q528 534 377 534Q238 534 146.50 601Q55 668 30 761L190 797Q233 661 374 661Q450 661 493.50 695.50Q537 730 537 778Q537 828 499 865.50Q461 903 383 903L271 903M461 0L1304 1365L1437 1365L594 0L461 0M1615 0L1443 0L1443 183L1061 183L1061 298L1447 836L1615 836L1615 321L1744 321L1744 183L1615 183L1615 0M1463 665L1222 310L1454 310L1454 496Q1454 558 1463 665Z"  horiz-adv-x="1802" vert-adv-y="2048"  />

      
      <glyph glyph-name="uni20A3" unicode="&#x20A3;" d="M151 204L29 204L29 395L151 395L151 1365L1014 1365L1014 1154L403 1154L403 781L884 781L884 576L403 576L403 395L647 395L647 204L403 204L403 0L151 0L151 204Z"  horiz-adv-x="1040" vert-adv-y="2048"  />

      
      <glyph glyph-name="uni011E" unicode="&#x011E;" d="M1186 698L1186 0L1077 0L1002 184Q883-21 633-21Q354-21 216.50 191Q79 403 79 682Q79 977 232.50 1181.50Q386 1386 662 1386Q868 1386 1001 1266.50Q1134 1147 1169 969L955 931Q895 1181 668 1181Q523 1181 431.50 1063Q340 945 340 700Q340 183 664 183Q790 183 872.50 270Q955 357 955 500L673 500L673 698L1186 698M370 1766L501 1766Q519 1634 676 1634Q828 1634 846 1766L977 1766Q972 1651 889 1571.50Q806 1492 671 1492Q542 1492 458 1567Q374 1642 370 1766Z"  horiz-adv-x="1315" vert-adv-y="2048"  />

      
      <glyph glyph-name="uni011F" unicode="&#x011F;" d="M1058 1203L1058 1028L988 1028Q942 1028 907.50 1017Q873 1006 840 946Q960 848 960 728Q960 594 847.50 506Q735 418 550 418Q470 418 363 444Q293 412 293 345Q293 308 327 277Q361 246 430 246L730 246Q884 246 971.50 166.50Q1059 87 1059-31Q1059-174 926.50-268Q794-362 534-362Q45-362 45-89Q45 46 192 116Q98 196 98 283Q98 415 259 493Q119 578 119 727Q119 853 222 942Q325 1031 535 1031Q631 1031 730 1010Q776 1203 973 1203L1058 1203M540 553Q726 553 726 728Q726 795 679.50 841Q633 887 544 887Q454 887 404.50 839Q355 791 355 719Q355 645 404 599Q453 553 540 553M290 55Q241 10 241-32Q241-101 323-153.50Q405-206 584-206Q847-206 847-71Q847-21 801 4.50Q755 30 696 30L454 30Q385 30 290 55M228 1505L359 1505Q377 1373 534 1373Q686 1373 704 1505L835 1505Q830 1390 747 1310.50Q664 1231 529 1231Q400 1231 316 1306Q232 1381 228 1505Z"  horiz-adv-x="1061" vert-adv-y="2048"  />

      
      <glyph glyph-name="uni0130" unicode="&#x0130;" d="M396 0L150 0L150 1365L396 1365L396 0M271 1512Q223 1512 191.50 1543.50Q160 1575 160 1619Q160 1663 191 1696.50Q222 1730 271 1730Q317 1730 351 1700.50Q385 1671 385 1620Q385 1570 351.50 1541Q318 1512 271 1512Z"  horiz-adv-x="546" vert-adv-y="2048"  />

      
      <glyph glyph-name="uni015E" unicode="&#x015E;" d="M548-21L523-100Q753-100 753-261Q753-332 697.50-382Q642-432 547-432Q453-432 322-371L355-289Q471-340 521-340Q613-340 613-267Q613-179 462-179Q446-179 406-181L459-15Q87 36 7 329L246 380Q289 177 576 177Q707 177 777.50 229Q848 281 848 358Q848 414 816 461.50Q784 509 679 536L418 604Q284 639 220 683.50Q156 728 117.50 809Q79 890 79 982Q79 1165 215 1275.50Q351 1386 563 1386Q739 1386 877.50 1309Q1016 1232 1054 1091L820 1033Q766 1188 568 1188Q453 1188 392.50 1140Q332 1092 332 1018Q332 901 522 854L754 796Q965 743 1037 639.50Q1109 536 1109 411Q1109 215 961 97Q813-21 548-21Z"  horiz-adv-x="1170" vert-adv-y="2048"  />

      
      <glyph glyph-name="uni015F" unicode="&#x015F;" d="M440-21L419-93Q521-93 577-139Q633-185 633-252Q633-317 579-366.50Q525-416 440-416Q365-416 237-357L269-279Q356-326 423-326Q458-326 481-306Q504-286 504-258Q504-172 353-172Q336-172 307-174L359-16Q72 21 14 232L228 273Q277 150 444 150Q656 150 656 275Q656 315 623 341Q590 367 545 376L361 411Q55 470 55 710Q55 844 152 937.50Q249 1031 441 1031Q761 1031 832 796L629 755Q597 869 447 869Q265 869 265 755Q265 676 412 646L629 601Q882 549 882 311Q882 146 754.50 62.50Q627-21 440-21Z"  horiz-adv-x="930" vert-adv-y="2048"  />

      
      <glyph glyph-name="uni0106" unicode="&#x0106;" d="M913 474L1141 449Q1119 244 982.50 111.50Q846-21 624-21Q437-21 320.50 73Q204 167 141 328Q78 489 78 683Q78 995 226 1190.50Q374 1386 633 1386Q836 1386 971 1261Q1106 1136 1141 903L913 879Q850 1188 635 1188Q497 1188 420.50 1059.50Q344 931 344 687Q344 439 426 312.50Q508 186 643 186Q751 186 827 271Q903 356 913 474M892 1800L958 1650L541 1474L499 1581L892 1800Z"  horiz-adv-x="1186" vert-adv-y="2048"  />

      
      <glyph glyph-name="uni0107" unicode="&#x0107;" d="M720 371L916 351Q878 161 769 70Q660-21 506-21Q297-21 184.50 131.50Q72 284 72 505Q72 733 195 882Q318 1031 523 1031Q853 1031 916 683L720 656Q694 844 535 844Q419 844 366.50 742.50Q314 641 314 497Q314 344 368.50 261Q423 178 521 178Q671 178 720 371M774 1487L840 1337L423 1161L381 1268L774 1487Z"  horiz-adv-x="954" vert-adv-y="2048"  />

      
      <glyph glyph-name="uni010C" unicode="&#x010C;" d="M913 474L1141 449Q1119 244 982.50 111.50Q846-21 624-21Q437-21 320.50 73Q204 167 141 328Q78 489 78 683Q78 995 226 1190.50Q374 1386 633 1386Q836 1386 971 1261Q1106 1136 1141 903L913 879Q850 1188 635 1188Q497 1188 420.50 1059.50Q344 931 344 687Q344 439 426 312.50Q508 186 643 186Q751 186 827 271Q903 356 913 474M644 1468L296 1756L477 1776L644 1645L811 1776L991 1756L644 1468Z"  horiz-adv-x="1186" vert-adv-y="2048"  />

      
      <glyph glyph-name="uni010D" unicode="&#x010D;" d="M720 371L916 351Q878 161 769 70Q660-21 506-21Q297-21 184.50 131.50Q72 284 72 505Q72 733 195 882Q318 1031 523 1031Q853 1031 916 683L720 656Q694 844 535 844Q419 844 366.50 742.50Q314 641 314 497Q314 344 368.50 261Q423 178 521 178Q671 178 720 371M535 1154L187 1442L368 1462L535 1331L702 1462L882 1442L535 1154Z"  horiz-adv-x="954" vert-adv-y="2048"  />

      
      <glyph glyph-name="uni0111" unicode="&#x0111;" d="M739 1365L967 1365L967 1249L1104 1249L1104 1126L967 1126L967 0L754 0L754 204Q666-21 456-21Q270-21 171 134Q72 289 72 519Q72 733 175 892Q278 1051 468 1051Q663 1051 739 873L739 1126L466 1126L466 1249L739 1249L739 1365M739 596Q739 731 675 793.50Q611 856 529 856Q428 856 371 768Q314 680 314 505Q314 167 525 167Q610 167 674.50 239.50Q739 312 739 425L739 596Z"  horiz-adv-x="1103" vert-adv-y="2048"  />

      
      <glyph glyph-name="uniad" unicode="&#xad;" d="M497 613L497 426L-5 426L-5 613L497 613Z"  horiz-adv-x="493" vert-adv-y="2048"  />

      
      <glyph glyph-name="uniaf" unicode="&#xaf;" d="M0 1811L1024 1811L1024 1602L0 1602L0 1811Z"  horiz-adv-x="1024" vert-adv-y="2048"  />

      
      <glyph glyph-name="unib7" unicode="&#xb7;" d="M247 651L247 389L0 389L0 651L247 651Z"  horiz-adv-x="247" vert-adv-y="2048"  />

      
      <glyph glyph-name="uni0100" unicode="&#x0100;" d="M1221 0L958 0L849 325L324 325L217 0L7 0L460 1365L763 1365L1221 0M783 522L584 1131L385 522L783 522M915 1680L915 1550L313 1550L313 1680L915 1680Z"  horiz-adv-x="1235" vert-adv-y="2048"  />

      
      <glyph glyph-name="uni0101" unicode="&#x0101;" d="M1001 0L784 0Q755 92 749 204Q658-21 407-21Q256-21 164.50 67.50Q73 156 73 290Q73 638 684 638Q708 638 749 637L749 713Q749 870 535 870Q327 870 299 713L105 742Q121 868 235 949.50Q349 1031 565 1031Q682 1031 756 1011.50Q830 992 881 945.50Q932 899 951.50 844.50Q971 790 971 660L971 204Q971 105 1001 0M749 514Q307 514 307 303Q307 240 351.50 195.50Q396 151 486 151Q616 151 682.50 233.50Q749 316 749 421L749 514M866 1352L866 1222L264 1222L264 1352L866 1352Z"  horiz-adv-x="1107" vert-adv-y="2048"  />

      
      <glyph glyph-name="uni0102" unicode="&#x0102;" d="M1221 0L958 0L849 325L324 325L217 0L7 0L460 1365L763 1365L1221 0M783 522L584 1131L385 522L783 522M310 1766L441 1766Q459 1634 616 1634Q768 1634 786 1766L917 1766Q912 1651 829 1571.50Q746 1492 611 1492Q482 1492 398 1567Q314 1642 310 1766Z"  horiz-adv-x="1235" vert-adv-y="2048"  />

      
      <glyph glyph-name="uni0103" unicode="&#x0103;" d="M1001 0L784 0Q755 92 749 204Q658-21 407-21Q256-21 164.50 67.50Q73 156 73 290Q73 638 684 638Q708 638 749 637L749 713Q749 870 535 870Q327 870 299 713L105 742Q121 868 235 949.50Q349 1031 565 1031Q682 1031 756 1011.50Q830 992 881 945.50Q932 899 951.50 844.50Q971 790 971 660L971 204Q971 105 1001 0M749 514Q307 514 307 303Q307 240 351.50 195.50Q396 151 486 151Q616 151 682.50 233.50Q749 316 749 421L749 514M261 1455L392 1455Q410 1323 567 1323Q719 1323 737 1455L868 1455Q863 1340 780 1260.50Q697 1181 562 1181Q433 1181 349 1256Q265 1331 261 1455Z"  horiz-adv-x="1107" vert-adv-y="2048"  />

      
      <glyph glyph-name="uni0104" unicode="&#x0104;" d="M849 325L324 325L217 0L7 0L460 1365L763 1365L1221 0Q1072-76 1072-164Q1072-261 1196-261Q1241-261 1288-242L1309-323Q1229-359 1143-359Q1044-359 986.50-316.50Q929-274 929-197Q929-66 1104 0L958 0L849 325M783 522L584 1131L385 522L783 522Z"  horiz-adv-x="1235" vert-adv-y="2048"  />

      
      <glyph glyph-name="uni0105" unicode="&#x0105;" d="M784 0Q755 92 749 204Q658-21 407-21Q256-21 164.50 67.50Q73 156 73 290Q73 638 684 638Q708 638 749 637L749 713Q749 870 535 870Q327 870 299 713L105 742Q121 868 235 949.50Q349 1031 565 1031Q682 1031 756 1011.50Q830 992 881 945.50Q932 899 951.50 844.50Q971 790 971 660L971 204Q971 105 1001 0Q858-76 858-162Q858-203 886.50-228.50Q915-254 966-254Q1006-254 1055-236L1075-309Q998-344 915-344Q825-344 771-301Q717-258 717-191Q717-72 891 0L784 0M749 514Q307 514 307 303Q307 240 351.50 195.50Q396 151 486 151Q616 151 682.50 233.50Q749 316 749 421L749 514Z"  horiz-adv-x="1107" vert-adv-y="2048"  />

      
      <glyph glyph-name="uni0108" unicode="&#x0108;" d="M913 474L1141 449Q1119 244 982.50 111.50Q846-21 624-21Q437-21 320.50 73Q204 167 141 328Q78 489 78 683Q78 995 226 1190.50Q374 1386 633 1386Q836 1386 971 1261Q1106 1136 1141 903L913 879Q850 1188 635 1188Q497 1188 420.50 1059.50Q344 931 344 687Q344 439 426 312.50Q508 186 643 186Q751 186 827 271Q903 356 913 474M644 1790L991 1502L811 1481L644 1613L477 1481L296 1502L644 1790Z"  horiz-adv-x="1186" vert-adv-y="2048"  />

      
      <glyph glyph-name="uni0109" unicode="&#x0109;" d="M720 371L916 351Q878 161 769 70Q660-21 506-21Q297-21 184.50 131.50Q72 284 72 505Q72 733 195 882Q318 1031 523 1031Q853 1031 916 683L720 656Q694 844 535 844Q419 844 366.50 742.50Q314 641 314 497Q314 344 368.50 261Q423 178 521 178Q671 178 720 371M529 1476L876 1188L696 1167L529 1299L362 1167L181 1188L529 1476Z"  horiz-adv-x="954" vert-adv-y="2048"  />

      
      <glyph glyph-name="uni010A" unicode="&#x010A;" d="M913 474L1141 449Q1119 244 982.50 111.50Q846-21 624-21Q437-21 320.50 73Q204 167 141 328Q78 489 78 683Q78 995 226 1190.50Q374 1386 633 1386Q836 1386 971 1261Q1106 1136 1141 903L913 879Q850 1188 635 1188Q497 1188 420.50 1059.50Q344 931 344 687Q344 439 426 312.50Q508 186 643 186Q751 186 827 271Q903 356 913 474M642 1512Q594 1512 562.50 1543.50Q531 1575 531 1619Q531 1663 562 1696.50Q593 1730 642 1730Q688 1730 722 1700.50Q756 1671 756 1620Q756 1570 722.50 1541Q689 1512 642 1512Z"  horiz-adv-x="1186" vert-adv-y="2048"  />

      
      <glyph glyph-name="uni010B" unicode="&#x010B;" d="M720 371L916 351Q878 161 769 70Q660-21 506-21Q297-21 184.50 131.50Q72 284 72 505Q72 733 195 882Q318 1031 523 1031Q853 1031 916 683L720 656Q694 844 535 844Q419 844 366.50 742.50Q314 641 314 497Q314 344 368.50 261Q423 178 521 178Q671 178 720 371M534 1188Q486 1188 454.50 1219.50Q423 1251 423 1295Q423 1339 454 1372.50Q485 1406 534 1406Q580 1406 614 1376.50Q648 1347 648 1296Q648 1246 614.50 1217Q581 1188 534 1188Z"  horiz-adv-x="954" vert-adv-y="2048"  />

      
      <glyph glyph-name="uni010E" unicode="&#x010E;" d="M143 0L143 1365L646 1365Q925 1365 1094 1167.50Q1263 970 1263 680Q1263 390 1089 195Q915 0 591 0L143 0M396 201L601 201Q766 201 881 325Q996 449 996 694Q996 894 895.50 1032.50Q795 1171 630 1171L396 1171L396 201M605 1468L257 1756L438 1776L605 1645L772 1776L952 1756L605 1468Z"  horiz-adv-x="1341" vert-adv-y="2048"  />

      
      <glyph glyph-name="uni010F" unicode="&#x010F;" d="M967 0L754 0L754 204Q666-21 456-21Q270-21 171 134Q72 289 72 519Q72 733 175 892Q278 1051 468 1051Q663 1051 739 873L739 1365L967 1365L967 0M739 596Q739 719 680.50 787.50Q622 856 529 856Q428 856 371 768Q314 680 314 505Q314 167 526 167Q610 167 674.50 239.50Q739 312 739 425L739 596M1323 1365L1147 968L1056 968L1118 1365L1323 1365Z"  horiz-adv-x="1322" vert-adv-y="2048"  />

      
      <glyph glyph-name="uni0110" unicode="&#x0110;" d="M7 601L7 792L144 792L144 1365L647 1365Q926 1365 1094.50 1168Q1263 971 1263 680Q1263 391 1089.50 195.50Q916 0 592 0L144 0L144 601L7 601M396 601L396 201L602 201Q767 201 882 325.50Q997 450 997 695Q997 894 896 1032.50Q795 1171 631 1171L396 1171L396 792L733 792L733 601L396 601Z"  horiz-adv-x="1341" vert-adv-y="2048"  />

      
      <glyph glyph-name="uni0112" unicode="&#x0112;" d="M1037 0L150 0L150 1365L1028 1365L1028 1162L396 1162L396 792L904 792L904 594L396 594L396 212L1037 212L1037 0M901 1680L901 1550L299 1550L299 1680L901 1680Z"  horiz-adv-x="1099" vert-adv-y="2048"  />

      
      <glyph glyph-name="uni0113" unicode="&#x0113;" d="M779 322L985 294Q945 157 829 68Q713-21 538-21Q328-21 200 120Q72 261 72 502Q72 731 201 881Q330 1031 551 1031Q767 1031 885 883Q1003 735 1003 503L1002 477L309 477Q309 374 328.50 312Q348 250 406 204Q464 158 551 158Q720 158 779 322M765 624Q764 733 699.50 802Q635 871 540 871Q446 871 383 806.50Q320 742 309 624L765 624M866 1352L866 1222L264 1222L264 1352L866 1352Z"  horiz-adv-x="1074" vert-adv-y="2048"  />

      
      <glyph glyph-name="uni0114" unicode="&#x0114;" d="M1037 0L150 0L150 1365L1028 1365L1028 1162L396 1162L396 792L904 792L904 594L396 594L396 212L1037 212L1037 0M297 1766L428 1766Q446 1634 603 1634Q755 1634 773 1766L904 1766Q899 1651 816 1571.50Q733 1492 598 1492Q469 1492 385 1567Q301 1642 297 1766Z"  horiz-adv-x="1099" vert-adv-y="2048"  />

      
      <glyph glyph-name="uni0115" unicode="&#x0115;" d="M779 322L985 294Q945 157 829 68Q713-21 538-21Q328-21 200 120Q72 261 72 502Q72 731 201 881Q330 1031 551 1031Q767 1031 885 883Q1003 735 1003 503L1002 477L309 477Q309 374 328.50 312Q348 250 406 204Q464 158 551 158Q720 158 779 322M765 624Q764 733 699.50 802Q635 871 540 871Q446 871 383 806.50Q320 742 309 624L765 624M261 1455L392 1455Q410 1323 567 1323Q719 1323 737 1455L868 1455Q863 1340 780 1260.50Q697 1181 562 1181Q433 1181 349 1256Q265 1331 261 1455Z"  horiz-adv-x="1074" vert-adv-y="2048"  />

      
      <glyph glyph-name="uni0116" unicode="&#x0116;" d="M1037 0L150 0L150 1365L1028 1365L1028 1162L396 1162L396 792L904 792L904 594L396 594L396 212L1037 212L1037 0M599 1512Q551 1512 519.50 1543.50Q488 1575 488 1619Q488 1663 519 1696.50Q550 1730 599 1730Q645 1730 679 1700.50Q713 1671 713 1620Q713 1570 679.50 1541Q646 1512 599 1512Z"  horiz-adv-x="1099" vert-adv-y="2048"  />

      
      </font>
</defs>
</svg>
