<svg width="234" height="30" viewBox="0 0 234 30" fill="none" xmlns="http://www.w3.org/2000/svg">
<path d="M27.844 18.1523H9.38713L10.578 14.3219H28.8339C30.9478 14.3219 31.6041 15.3202 31.6041 16.069C31.6041 16.8178 31.5908 18.1523 27.844 18.1523ZM12.7222 6.07166H28.7476C30.4975 6.07166 31.2724 7.06163 31.2724 7.81031C31.2724 8.55856 31.1695 10.0573 27.7589 10.0573H11.5325L12.7222 6.07166ZM34.8191 11.9731C35.6492 11.2977 37.4663 10.1631 37.4663 7.34668C37.4663 4.52784 35.117 1.02161 27.9902 1.02161H0.73678V6.07166H6.81913L0.570312 30L6.94997 27.1635L8.10186 23.0966H30.1774C34.4922 23.0966 37.9072 20.3563 37.9072 17.1562C37.9072 14.2488 35.8373 12.6506 34.8191 11.9731Z" fill="white"/>
<path d="M58.2539 19.1852C51.9366 19.1852 46.3181 16.2707 46.3181 12.2934C46.3181 8.31386 50.8504 5.0904 58.2806 5.0904C65.056 5.0904 69.6369 8.35007 69.6369 12.0595C69.6369 16.2345 64.5706 19.1852 58.2539 19.1852ZM58.3942 0.0712814C46.7335 0.0712814 39.6152 5.60962 39.6152 12.4446C39.6152 19.2797 48.4379 24.2847 58.3514 24.2847C68.2674 24.2847 76.2197 19.2157 76.2197 12.0416C76.2197 5.66919 69.0312 0.0712814 58.3942 0.0712814Z" fill="white"/>
<path d="M74.832 6.07124V1.02118H92.6219V6.07124H86.641V14.4679C86.641 17.7371 91.6977 18.5461 95.6266 18.5461C99.5532 18.5461 104.784 17.3892 104.784 14.4679V6.07124H99.0523V1.02118H116.392V6.07124H110.561V15.406C110.561 21.1025 102.359 23.6357 95.9025 23.6357C89.4466 23.6357 80.7137 21.7584 80.7137 15.2707V6.07124H74.832Z" fill="white"/>
<path d="M129.564 10.0776V6.0718H145.488C146.909 6.0718 148.223 6.70034 148.223 7.81273C148.223 8.61614 147.928 10.0776 144.472 10.0776H129.564ZM157.612 18.1524H152.676C152.821 20.2569 151.765 21.3119 150.641 21.3119C150.069 21.3119 148.799 21.3631 148.095 19.174C147.271 16.613 145.706 15.4956 143.587 14.1729H146.364C152.438 14.1729 154.489 9.79196 154.489 7.72423C154.489 4.61877 151.654 1.02176 145.406 1.02176H117.73V6.0718H123.603V18.1524H117.73V23.1408H135.398V18.1524H129.567V14.2058H134.937C136.76 14.2058 139.111 15.1989 140.622 17.9308C142.892 22.0356 144.977 25.106 150.081 25.106C155.185 25.106 158.239 22.1581 157.612 18.1524Z" fill="white"/>
<path d="M159.158 1.02162H172.437L188.929 16.3629V6.07224H183.799V1.02219H199.43V6.07224H194.59V23.1409H187.69L169.828 6.72358V18.1527H175.352V23.1411H159.158V18.1527H164.449V6.0721H159.158V1.02162Z" fill="white"/>
<path d="M227.656 3.33498V1.02124H232.79V9.94224H227.814C227.814 7.0929 223.215 4.26865 215.311 4.26865C208.692 4.26865 207.228 6.30688 207.228 7.10915C207.228 7.76661 207.683 9.64394 214.528 9.53591C215.358 9.52251 216.382 9.48973 217.148 9.46849C228.883 9.14667 233.428 13.2582 233.428 17.2889C233.428 22.3217 224.465 24.2036 217.98 24.2036C211.491 24.2036 206.9 22.2133 205.273 20.7658V23.1402H199.676V13.7904H204.348C204.695 17.4142 211.334 19.6607 218.228 19.6607C225.081 19.6607 226.636 17.7511 226.636 16.8659C226.636 15.5716 224.14 14.3578 218.515 14.3522C217.667 14.3522 216.505 14.3482 216.348 14.3522C209.652 14.625 200.028 13.1279 200.028 7.13638C200.028 1.0925 209.363 0.000204086 214.592 0.000204086C219.816 0.000204086 225.081 1.41418 227.656 3.33498Z" fill="white"/>
</svg>
