<svg width="192" height="189" viewBox="0 0 192 189" fill="none" xmlns="http://www.w3.org/2000/svg">
<path d="M56.4484 29.1849C55.2677 29.4815 55.5629 29.4815 54.3823 29.7781C25.1613 40.7516 5.68065 68.3336 4.5 99.178V99.4745L4.79516 106.889C7.74677 126.76 13.0597 137.14 20.7339 152.266C25.1613 160.867 29.8839 169.171 34.9016 177.179L39.0339 184H60.5806V170.357C76.2242 172.433 92.1629 172.433 107.806 170.357L119.613 184H137.323V169.171C151.49 159.977 162.116 146.334 167.429 130.319C169.79 121.718 171.266 113.117 173.332 109.855C176.874 105.11 181.892 101.847 187.5 100.957V79.6036H180.416H179.826C173.923 80.4934 168.315 76.9344 166.248 71.2994C161.231 60.0293 153.556 49.9456 144.111 42.2345L146.473 31.5576C146.473 31.5576 148.539 24.7362 144.702 22.067C140.865 19.3978 134.371 22.3636 129.353 24.1431C127.582 24.7362 122.86 26.5157 118.137 28.5918C116.366 27.9986 114.3 27.4055 112.234 27.1089" stroke="#484F5B" stroke-width="8" stroke-miterlimit="10"/>
<path d="M7.50869 101.543C7.20878 110.874 14.7066 118.699 24.0039 119C31.5017 119 37.5 112.68 37.5 105.155C37.5 99.1356 32.7014 94.019 26.7031 94.019C22.2044 93.718 18.6055 97.0288 18.0057 101.242V101.543C18.0057 105.456 21.0048 108.767 24.9037 108.767" stroke="#484F5B" stroke-miterlimit="10"/>
<path d="M1.5 188H190.5" stroke="#484F5B" stroke-miterlimit="10"/>
<path d="M63.5 46H104.5" stroke="#484F5B" stroke-miterlimit="10"/>
<path d="M146.5 68V74" stroke="#484F5B" stroke-miterlimit="10"/>
<path d="M84 41C95.3218 41 104.5 31.8218 104.5 20.5C104.5 9.17816 95.3218 0 84 0C72.6782 0 63.5 9.17816 63.5 20.5C63.5 31.8218 72.6782 41 84 41Z" fill="white"/>
<path d="M84.5 12V30" stroke="#484F5B" stroke-miterlimit="10"/>
<path d="M131.5 158C143.2 150.318 151.9 139.091 156.7 126.091L158.5 119" stroke="#484F5B" stroke-miterlimit="10"/>
</svg>
