<svg width="197" height="197" viewBox="0 0 197 197" fill="none" xmlns="http://www.w3.org/2000/svg">
<path d="M171.666 159.468H165.569L147.279 141.177V116.79H128.989L110.698 92.4031V80.2095H159.473V37.5321H153.376L141.182 49.7257L147.279 55.8224L139.048 64.0531L131.123 55.8224H125.635L116.795 68.016H104.602V40.5805H135.085V28.387H116.795V13.145" stroke="#484F5B" stroke-miterlimit="10"/>
<path d="M74.1009 7.04834V61.9193L49.7138 80.2096V98.5H86.2944V171.661H80.1976L43.617 135.081V110.693H31.4234L12.5234 92.4032" stroke="#484F5B" stroke-miterlimit="10"/>
<path d="M193 116.79H177.758V132.032" stroke="#484F5B" stroke-miterlimit="10"/>
<path d="M98.5 193C150.691 193 193 150.691 193 98.5C193 46.3091 150.691 4 98.5 4C46.3091 4 4 46.3091 4 98.5C4 150.691 46.3091 193 98.5 193Z" stroke="#484F5B" stroke-width="8" stroke-miterlimit="10"/>
</svg>
