<svg width="197" height="197" viewBox="0 0 197 197" fill="none" xmlns="http://www.w3.org/2000/svg">
<path d="M78.9493 193V163.672H85.4665C91.0062 163.672 95.2424 159.436 95.2424 153.896C95.2424 148.357 91.0062 144.12 85.4665 144.12H78.9493V91.9826H72.4321C66.8924 91.9826 62.6562 87.7464 62.6562 82.2067C62.6562 76.6671 66.8924 72.4309 72.4321 72.4309H78.9493V43.1034" stroke="#484F5B" stroke-width="0.665491" stroke-miterlimit="10"/>
<path d="M17.0312 118.051H33.3243V124.569C33.3243 130.108 37.5605 134.344 43.1001 134.344C48.6398 134.344 52.876 130.108 52.876 124.569V118.051H105.014V111.534C105.014 105.994 109.25 101.758 114.79 101.758C120.329 101.758 124.565 105.994 124.565 111.534V118.051H153.893" stroke="#484F5B" stroke-width="0.665491" stroke-miterlimit="10" stroke-linecap="round"/>
<path d="M192.999 4H43.1033L4 43.1033V192.999H153.896L192.999 150.638V4Z" stroke="#484F5B" stroke-width="8" stroke-miterlimit="10"/>
<path d="M153.9 65.9137V43.1034H20.2969" stroke="#484F5B" stroke-width="0.665491" stroke-miterlimit="10" stroke-linecap="round"/>
<path d="M153.898 144.12V78.6218" stroke="#484F5B" stroke-width="0.665491" stroke-miterlimit="10" stroke-linecap="round"/>
<path d="M153.898 43.1033L193.002 4" stroke="#484F5B" stroke-width="0.665491" stroke-miterlimit="10"/>
<path d="M78.9453 43.1038L117.723 4.32629" stroke="#484F5B" stroke-width="0.665491" stroke-miterlimit="10"/>
<path d="M115.125 43.1038L153.902 4.32629" stroke="#484F5B" stroke-width="0.665491" stroke-miterlimit="10"/>
<path d="M153.898 118.051L193.002 75.6895" stroke="#484F5B" stroke-width="0.665491" stroke-miterlimit="10"/>
<path d="M153.898 192.999V156.829" stroke="#484F5B" stroke-width="0.665491" stroke-miterlimit="10" stroke-linecap="round"/>
</svg>
