<svg width="284" height="320" viewBox="0 0 284 320" fill="none" xmlns="http://www.w3.org/2000/svg">
<path d="M55.7812 244.357C55.7812 230.157 62.3741 216.971 73.5313 208.35V207.336C73.5313 189.079 79.1098 171.329 89.2527 156.114C90.7741 154.086 91.7884 151.55 92.2955 149.521V148.507C92.8027 144.957 92.2955 141.407 90.7741 137.857C84.6884 125.179 81.1384 102.864 81.1384 77C81.1384 37.95 90.267 6 101.424 6C112.581 6 121.71 37.95 121.71 77C121.71 93.2286 120.188 109.964 116.131 125.686L115.117 131.771" stroke="#9CA2AB" stroke-width="12" stroke-miterlimit="10"/>
<path d="M217.93 244.357C217.93 230.157 211.337 216.971 200.18 208.35V207.336C200.18 189.079 194.601 171.329 184.458 156.114C182.937 154.086 181.923 151.55 181.415 149.521V148.507C180.908 144.957 181.415 141.407 182.937 137.857C189.023 125.179 192.573 102.864 192.573 77C192.573 37.95 183.444 6 172.287 6C161.13 6 152.001 37.95 152.001 77C152.001 93.2286 153.523 109.964 157.58 125.686L158.594 131.771" stroke="#9CA2AB" stroke-width="12" stroke-miterlimit="10"/>
<path d="M126.781 224.071H147.067" stroke="#9CA2AB" stroke-miterlimit="10"/>
<path d="M91.2812 193.643C102.438 193.643 111.567 202.771 111.567 213.929" stroke="#9CA2AB" stroke-miterlimit="10"/>
<path d="M182.567 193.643C171.41 193.643 162.281 202.771 162.281 213.929" stroke="#9CA2AB" stroke-miterlimit="10"/>
<path d="M40.5703 318.857V258" stroke="#9CA2AB" stroke-miterlimit="10"/>
<path d="M7.62939e-06 250L284 250" stroke="#9CA2AB" stroke-width="12" stroke-miterlimit="10"/>
<path d="M233.281 318.857V258" stroke="#9CA2AB" stroke-miterlimit="10"/>
<path d="M40.5703 319H162.285" stroke="#9CA2AB" stroke-miterlimit="10"/>
<path d="M172.43 319H218.073" stroke="#9CA2AB" stroke-miterlimit="10"/>
<path d="M167.366 136.336C158.237 130.757 148.094 127.714 137.444 127.714H136.937C126.287 127.714 116.144 130.757 107.016 136.336" stroke="#9CA2AB" stroke-width="12" stroke-miterlimit="10"/>
</svg>
