<svg width="301" height="242" viewBox="0 0 301 242" fill="none" xmlns="http://www.w3.org/2000/svg">
<path d="M70.5 241C77.9558 241 84 234.956 84 227.5C84 220.044 77.9558 214 70.5 214C63.0442 214 57 220.044 57 227.5C57 234.956 63.0442 241 70.5 241Z" stroke="#9CA2AB" stroke-miterlimit="10"/>
<path d="M278.5 241C285.956 241 292 234.956 292 227.5C292 220.044 285.956 214 278.5 214C271.044 214 265 220.044 265 227.5C265 234.956 271.044 241 278.5 241Z" stroke="#9CA2AB" stroke-miterlimit="10"/>
<path d="M278.778 214V205.149C278.778 200.281 274.778 196.298 269.889 196.298H69.8889V187.447L87.6667 165.319V156.468L61 19.2766V6H301" stroke="#9CA2AB" stroke-width="12" stroke-miterlimit="10"/>
<path d="M279 214H70" stroke="#9CA2AB" stroke-miterlimit="10"/>
<path d="M68 6H19.7778C12.2 6 6 12.3 6 20C6 27.7 12.2 34 19.7778 34H40.4444" stroke="#9CA2AB" stroke-width="12" stroke-miterlimit="10"/>
<path d="M141 50H221" stroke="#9CA2AB" stroke-miterlimit="10"/>
<path d="M140.909 68H221.091C225.991 68 230 72.05 230 77C230 81.95 225.991 86 221.091 86H140.909C136.009 86 132 81.95 132 77C132 72.05 136.009 68 140.909 68Z" stroke="#9CA2AB" stroke-miterlimit="10"/>
<path d="M146 157H88" stroke="#9CA2AB" stroke-miterlimit="10"/>
<path d="M132 29H296.555L297 33.4333L278.766 162H216.501" stroke="#9CA2AB" stroke-miterlimit="10"/>
<path d="M181 124L169 150.583V153L181.24 150.583L193 153V150.583L181 124Z" stroke="#9CA2AB" stroke-miterlimit="10"/>
<path d="M182 151V163" stroke="#9CA2AB" stroke-miterlimit="10"/>
<path d="M17 241H301" stroke="#9CA2AB" stroke-miterlimit="10"/>
</svg>
