<svg width="580" height="623" viewBox="0 0 580 623" fill="none" xmlns="http://www.w3.org/2000/svg">
<path d="M272.779 321.354V390.338L292.503 410.048V617H253.055V410.048" stroke="#484F5B" stroke-width="12" stroke-miterlimit="10"/>
<path d="M271.777 321.355C358.924 321.355 429.57 250.76 429.57 163.677C429.57 76.5946 358.924 6 271.777 6C184.631 6 113.984 76.5946 113.984 163.677C113.984 250.76 184.631 321.355 271.777 321.355Z" stroke="#484F5B" stroke-width="12" stroke-miterlimit="10"/>
<path d="M45.9453 380.484H203.738" stroke="#484F5B" stroke-width="2" stroke-miterlimit="10"/>
<path d="M45.9453 459.323H203.738" stroke="#484F5B" stroke-width="2" stroke-miterlimit="10"/>
<path d="M45.9453 419.903H134.704" stroke="#484F5B" stroke-width="2" stroke-miterlimit="10"/>
<path d="M146.541 65.1294H6.5V104.549H124.845" stroke="#484F5B" stroke-width="12" stroke-miterlimit="10"/>
<path d="M539.034 114.404V65.1294H419.703" stroke="#484F5B" stroke-width="12" stroke-miterlimit="10"/>
<path d="M322.086 577.581H539.051V212.952" stroke="#484F5B" stroke-width="12" stroke-miterlimit="10"/>
<path d="M6.5 134.113V577.581H223.465" stroke="#484F5B" stroke-width="12" stroke-miterlimit="10"/>
<path d="M450.297 104.549H470.021" stroke="#484F5B" stroke-width="2" stroke-miterlimit="10"/>
<path d="M489.742 104.549H509.466" stroke="#484F5B" stroke-width="2" stroke-miterlimit="10"/>
<path d="M272.781 143.968H578.505V183.387H272.781V143.968Z" stroke="#484F5B" stroke-width="2" stroke-miterlimit="10"/>
<path d="M539.055 143.968V183.387" stroke="#484F5B" stroke-width="2" stroke-miterlimit="10"/>
<path d="M262.914 222.806H489.742" stroke="#484F5B" stroke-width="2" stroke-miterlimit="10"/>
<path d="M153.43 163.677C153.43 98.6356 206.685 45.4194 271.774 45.4194" stroke="#484F5B" stroke-width="2" stroke-miterlimit="10"/>
<path d="M262.914 262.226H489.742" stroke="#484F5B" stroke-width="2" stroke-miterlimit="10"/>
</svg>
