<svg width="41" height="41" viewBox="0 0 41 41" fill="none" xmlns="http://www.w3.org/2000/svg">
<path fill-rule="evenodd" clip-rule="evenodd" d="M20.994 14.3306C17.3119 14.3306 14.3278 17.3163 14.3278 20.9984C14.3278 24.6804 17.3119 27.6661 20.994 27.6661C24.676 27.6661 27.6617 24.6804 27.6617 20.9984C27.6617 17.3163 24.676 14.3306 20.994 14.3306ZM33.4416 8.70047C33.314 8.56218 33.1699 8.43866 33.0118 8.33296C32.6172 8.06906 32.1532 7.92811 31.6785 7.92792C31.0422 7.92821 30.4311 8.18106 29.981 8.63091C29.531 9.08077 29.2779 9.69086 29.2773 10.3272C29.2772 10.8019 29.4177 11.266 29.6813 11.6608C29.7495 11.7629 29.825 11.8591 29.9072 11.9489C30.1429 12.2063 30.433 12.4104 30.7582 12.5453C31.1967 12.7271 31.6792 12.7748 32.1449 12.6824C32.6105 12.59 33.0383 12.3616 33.3741 12.026C33.7099 11.6905 33.9387 11.2629 34.0315 10.7973C34.1243 10.3318 34.0769 9.84915 33.8954 9.4105C33.7866 9.14754 33.6326 8.90746 33.4416 8.70047ZM7.89264 2.04675C9.16331 1.55231 10.6183 1.21468 12.7476 1.11771C14.8814 1.01914 15.5653 0.996582 20.9964 0.996582C26.4274 0.996582 27.1089 1.02026 29.2419 1.11771C31.3696 1.21308 32.8238 1.55231 34.0969 2.04675C35.4104 2.55736 36.527 3.24062 37.6385 4.35384C38.7499 5.46706 39.4335 6.58188 39.9455 7.89703C40.44 9.1677 40.7776 10.6226 40.8746 12.752C40.9716 14.8847 40.9941 15.5665 40.9941 20.9984C40.9941 26.4302 40.9716 27.1104 40.8746 29.2447C40.7792 31.374 40.44 32.8282 39.9455 34.0997C39.4335 35.4148 38.7517 36.5314 37.6385 37.6429C36.5252 38.7543 35.4104 39.4379 34.0953 39.9499C32.8238 40.4444 31.3698 40.782 29.2403 40.879C27.1076 40.9776 26.4258 41.0001 20.994 41.0001C15.5621 41.0001 14.8814 40.976 12.7476 40.879C10.6183 40.782 9.16571 40.4444 7.89264 39.9499C6.57588 39.4379 5.4625 38.7538 4.34944 37.6429C3.23639 36.5319 2.55297 35.4148 2.04236 34.0997C1.54792 32.8282 1.21029 31.3742 1.11332 29.2447C1.01475 27.112 0.992188 26.4302 0.992188 20.9984C0.992188 15.5665 1.01475 14.8847 1.11332 12.752C1.21029 10.6227 1.54792 9.1685 2.04236 7.89703C2.55297 6.58028 3.23623 5.4653 4.34944 4.35384C5.46266 3.24238 6.57748 2.55736 7.89264 2.04675Z" fill="white"/>
</svg>
