<svg width="168" height="29" viewBox="0 0 168 29" fill="none" xmlns="http://www.w3.org/2000/svg">
<path fill-rule="evenodd" clip-rule="evenodd" d="M4.29668 12.4878C4.08116 12.4878 3.90644 12.3131 3.90644 12.0976L3.90644 9.36382L4.68598 7.80475L3.125 8.58523L3.12521 8.58545H0.390244C0.174718 8.58545 0 8.41073 0 8.1952V4.29277C0 4.07724 0.174718 3.90252 0.390244 3.90252H3.12504L3.125 3.90256L4.68598 4.68305L3.90644 3.12397L3.90644 0.390244C3.90644 0.174718 4.08116 0 4.29668 0H8.19912C8.41465 0 8.58937 0.174718 8.58937 0.390244V3.12779L8.58365 3.12207L7.80316 4.68305L9.36414 3.90256L9.3641 3.90252H12.0976C12.3131 3.90252 12.4878 4.07724 12.4878 4.29277V8.19521C12.4878 8.41073 12.3131 8.58545 12.0976 8.58545H9.36392L9.36414 8.58523L7.80316 7.80475L8.58365 9.36572L8.58937 9.36001V12.0976C8.58937 12.3131 8.41465 12.4878 8.19912 12.4878H4.29668Z" fill="#5A6372"/>
<path fill-rule="evenodd" clip-rule="evenodd" d="M19.5122 4.29277C19.5122 4.07724 19.6869 3.90252 19.9024 3.90252L31.6098 3.90252C31.8253 3.90252 32 4.07724 32 4.29277L32 8.19521C32 8.41073 31.8253 8.58545 31.6098 8.58545L19.9024 8.58545C19.6869 8.58545 19.5122 8.41073 19.5122 8.1952L19.5122 4.29277Z" fill="#5A6372"/>
<path fill-rule="evenodd" clip-rule="evenodd" d="M8.18876 15.6099C8.41041 15.6099 8.58649 15.7944 8.59032 16.016C8.66054 20.0796 12.2106 23.5803 16.3081 23.4164C20.2681 23.258 23.379 19.9378 23.4333 16.0161C23.4363 15.7945 23.6125 15.6099 23.8341 15.6099H27.7322C27.9416 15.6099 28.1144 15.7762 28.1164 15.9856C28.1782 22.4966 23.0499 27.8334 16.4953 28.0956C9.65593 28.3692 3.85013 22.7821 3.90666 15.9857C3.9084 15.7762 4.08123 15.6099 4.29069 15.6099H8.18876Z" fill="#5A6372"/>
<path d="M54.26 21.2527C53.1467 21.2527 52.1433 21.0794 51.25 20.7327C50.3633 20.3794 49.67 19.8361 49.17 19.1027C48.67 18.3694 48.44 17.4327 48.48 16.2927H51.58C51.5933 16.7727 51.6933 17.1827 51.88 17.5227C52.0667 17.8627 52.36 18.1227 52.76 18.3027C53.16 18.4761 53.68 18.5627 54.32 18.5627C54.84 18.5627 55.2667 18.5094 55.6 18.4027C55.9333 18.2961 56.1767 18.1394 56.33 17.9327C56.49 17.7194 56.57 17.4594 56.57 17.1527C56.57 16.8127 56.4633 16.5327 56.25 16.3127C56.0367 16.0861 55.7 15.8761 55.24 15.6827C54.7867 15.4894 54.2 15.2694 53.48 15.0227C52.5867 14.7027 51.8033 14.3427 51.13 13.9427C50.4633 13.5427 49.9467 13.0527 49.58 12.4727C49.2133 11.8927 49.03 11.1794 49.03 10.3327C49.03 9.01273 49.4867 8.0094 50.4 7.32273C51.32 6.6294 52.5667 6.28273 54.14 6.28273C55.2133 6.28273 56.11 6.45273 56.83 6.79273C57.55 7.12607 58.1 7.62607 58.48 8.29273C58.8667 8.9594 59.0933 9.78607 59.16 10.7727H56.12C56.1067 10.3861 56.0233 10.0594 55.87 9.79273C55.7233 9.52607 55.5067 9.32273 55.22 9.18273C54.9333 9.04273 54.5767 8.97273 54.15 8.97273C53.5033 8.97273 53.01 9.0794 52.67 9.29273C52.33 9.4994 52.16 9.8294 52.16 10.2827C52.16 10.6227 52.2367 10.9127 52.39 11.1527C52.55 11.3861 52.8233 11.6061 53.21 11.8127C53.5967 12.0194 54.1333 12.2494 54.82 12.5027C55.46 12.7361 56.0733 12.9661 56.66 13.1927C57.2533 13.4127 57.7833 13.6761 58.25 13.9827C58.7167 14.2827 59.0833 14.6627 59.35 15.1227C59.6233 15.5827 59.76 16.1694 59.76 16.8827C59.7667 18.3361 59.27 19.4294 58.27 20.1627C57.27 20.8894 55.9333 21.2527 54.26 21.2527ZM61.5075 21.0527V10.1327H64.2875L64.5475 14.2527L64.4275 13.4227C64.5075 12.8227 64.6542 12.2561 64.8675 11.7227C65.0875 11.1827 65.4175 10.7461 65.8575 10.4127C66.3042 10.0794 66.9075 9.91273 67.6675 9.91273C68.5275 9.91273 69.2408 10.1727 69.8075 10.6927C70.3808 11.2127 70.7308 12.0194 70.8575 13.1127L70.8975 13.6427V21.0527H67.7775V14.9827C67.7775 14.2894 67.7175 13.7627 67.5975 13.4027C67.4842 13.0361 67.3275 12.7861 67.1275 12.6527C66.9275 12.5194 66.6942 12.4527 66.4275 12.4527C66.0008 12.4527 65.6342 12.5894 65.3275 12.8627C65.0275 13.1294 64.7942 13.4461 64.6275 13.8127V21.0527H61.5075ZM74.0375 21.0527V14.9827C74.0375 14.2894 73.9775 13.7627 73.8575 13.4027C73.7442 13.0361 73.5875 12.7861 73.3875 12.6527C73.1875 12.5194 72.9542 12.4527 72.6875 12.4527C72.2608 12.4527 71.8975 12.5894 71.5975 12.8627C71.2975 13.1294 71.0642 13.4461 70.8975 13.8127L70.8275 14.2527L70.7775 13.4827C70.8375 12.9161 70.9675 12.3594 71.1675 11.8127C71.3742 11.2661 71.6942 10.8127 72.1275 10.4527C72.5675 10.0927 73.1642 9.91273 73.9175 9.91273C74.8842 9.91273 75.6642 10.2361 76.2575 10.8827C76.8575 11.5227 77.1575 12.5027 77.1575 13.8227V21.0527H74.0375ZM79.7002 21.0527V10.1327H82.8002V21.0527H79.7002ZM81.2602 8.89273C80.7402 8.89273 80.2968 8.71273 79.9302 8.35273C79.5635 7.98607 79.3802 7.5194 79.3802 6.95273C79.3802 6.38607 79.5635 5.92607 79.9302 5.57273C80.2968 5.21273 80.7402 5.03273 81.2602 5.03273C81.7735 5.03273 82.2135 5.21273 82.5802 5.57273C82.9468 5.92607 83.1302 6.38607 83.1302 6.95273C83.1302 7.5194 82.9468 7.98607 82.5802 8.35273C82.2135 8.71273 81.7735 8.89273 81.2602 8.89273ZM85.3852 21.0527V5.43273H88.5052V21.0527H85.3852ZM95.6855 21.2027C94.5788 21.2027 93.6355 20.9827 92.8555 20.5427C92.0755 20.1027 91.4788 19.4661 91.0655 18.6327C90.6521 17.7927 90.4455 16.7794 90.4455 15.5927C90.4455 14.3661 90.6655 13.3327 91.1055 12.4927C91.5455 11.6461 92.1655 11.0061 92.9655 10.5727C93.7655 10.1394 94.7021 9.92273 95.7755 9.92273C96.8155 9.92273 97.6888 10.1194 98.3955 10.5127C99.1088 10.9061 99.6488 11.4861 100.015 12.2527C100.382 13.0194 100.565 13.9627 100.565 15.0827C100.565 15.2227 100.559 15.3861 100.545 15.5727C100.539 15.7527 100.529 15.9594 100.515 16.1927H93.4955C93.5688 17.0994 93.7888 17.7627 94.1555 18.1827C94.5221 18.5961 95.0355 18.8027 95.6955 18.8027C96.2421 18.8027 96.6555 18.6827 96.9355 18.4427C97.2221 18.2027 97.3921 17.8861 97.4455 17.4927H100.425C100.365 18.2461 100.135 18.9027 99.7355 19.4627C99.3421 20.0161 98.8021 20.4461 98.1155 20.7527C97.4288 21.0527 96.6188 21.2027 95.6855 21.2027ZM94.7655 14.4427H97.5755C97.5488 13.7427 97.3788 13.2194 97.0655 12.8727C96.7588 12.5261 96.2855 12.3527 95.6455 12.3527C94.8921 12.3527 94.3421 12.6227 93.9955 13.1627C93.6488 13.6961 93.4721 14.4561 93.4655 15.4427C93.5188 15.0627 93.6488 14.8027 93.8555 14.6627C94.0621 14.5161 94.3655 14.4427 94.7655 14.4427ZM110.725 21.2527C109.612 21.2527 108.608 21.0794 107.715 20.7327C106.828 20.3794 106.135 19.8361 105.635 19.1027C105.135 18.3694 104.905 17.4327 104.945 16.2927H108.045C108.058 16.7727 108.158 17.1827 108.345 17.5227C108.532 17.8627 108.825 18.1227 109.225 18.3027C109.625 18.4761 110.145 18.5627 110.785 18.5627C111.305 18.5627 111.732 18.5094 112.065 18.4027C112.398 18.2961 112.642 18.1394 112.795 17.9327C112.955 17.7194 113.035 17.4594 113.035 17.1527C113.035 16.8127 112.928 16.5327 112.715 16.3127C112.502 16.0861 112.165 15.8761 111.705 15.6827C111.252 15.4894 110.665 15.2694 109.945 15.0227C109.052 14.7027 108.268 14.3427 107.595 13.9427C106.928 13.5427 106.412 13.0527 106.045 12.4727C105.678 11.8927 105.495 11.1794 105.495 10.3327C105.495 9.01273 105.952 8.0094 106.865 7.32273C107.785 6.6294 109.032 6.28273 110.605 6.28273C111.678 6.28273 112.575 6.45273 113.295 6.79273C114.015 7.12607 114.565 7.62607 114.945 8.29273C115.332 8.9594 115.558 9.78607 115.625 10.7727H112.585C112.572 10.3861 112.488 10.0594 112.335 9.79273C112.188 9.52607 111.972 9.32273 111.685 9.18273C111.398 9.04273 111.042 8.97273 110.615 8.97273C109.968 8.97273 109.475 9.0794 109.135 9.29273C108.795 9.4994 108.625 9.8294 108.625 10.2827C108.625 10.6227 108.702 10.9127 108.855 11.1527C109.015 11.3861 109.288 11.6061 109.675 11.8127C110.062 12.0194 110.598 12.2494 111.285 12.5027C111.925 12.7361 112.538 12.9661 113.125 13.1927C113.718 13.4127 114.248 13.6761 114.715 13.9827C115.182 14.2827 115.548 14.6627 115.815 15.1227C116.088 15.5827 116.225 16.1694 116.225 16.8827C116.232 18.3361 115.735 19.4294 114.735 20.1627C113.735 20.8894 112.398 21.2527 110.725 21.2527ZM123.832 21.1827C123.292 21.1827 122.819 21.0894 122.412 20.9027C122.012 20.7161 121.689 20.4661 121.442 20.1527C121.196 19.8394 121.032 19.4961 120.952 19.1227H119.732L121.082 17.4427C121.149 17.6961 121.259 17.9161 121.412 18.1027C121.572 18.2827 121.776 18.4227 122.022 18.5227C122.269 18.6161 122.559 18.6627 122.892 18.6627C123.559 18.6627 124.072 18.4061 124.432 17.8927C124.799 17.3794 124.982 16.5894 124.982 15.5227C124.982 14.5161 124.806 13.7627 124.452 13.2627C124.099 12.7561 123.586 12.5027 122.912 12.5027C122.586 12.5027 122.289 12.5494 122.022 12.6427C121.762 12.7294 121.549 12.8394 121.382 12.9727C121.216 13.1061 121.116 13.2461 121.082 13.3927V12.5827C121.176 12.1827 121.299 11.8194 121.452 11.4927C121.612 11.1661 121.812 10.8894 122.052 10.6627C122.292 10.4294 122.576 10.2494 122.902 10.1227C123.236 9.99607 123.619 9.93273 124.052 9.93273C124.899 9.93273 125.622 10.1627 126.222 10.6227C126.822 11.0827 127.282 11.7327 127.602 12.5727C127.929 13.4061 128.092 14.3894 128.092 15.5227C128.092 16.4227 127.989 17.2227 127.782 17.9227C127.576 18.6227 127.282 19.2161 126.902 19.7027C126.529 20.1827 126.082 20.5494 125.562 20.8027C125.042 21.0561 124.466 21.1827 123.832 21.1827ZM117.982 25.0827V10.1427H121.022L121.082 11.8727V18.1727L120.952 19.1227L121.082 21.0627V25.0827H117.982ZM134.74 21.2027C133.68 21.2027 132.76 20.9861 131.98 20.5527C131.2 20.1194 130.593 19.4827 130.16 18.6427C129.733 17.7961 129.52 16.7594 129.52 15.5327C129.52 14.3727 129.747 13.3727 130.2 12.5327C130.653 11.6927 131.277 11.0494 132.07 10.6027C132.863 10.1494 133.767 9.92273 134.78 9.92273C135.873 9.92273 136.807 10.1494 137.58 10.6027C138.36 11.0494 138.957 11.6927 139.37 12.5327C139.79 13.3727 140 14.3727 140 15.5327C140 16.7594 139.77 17.7961 139.31 18.6427C138.85 19.4827 138.223 20.1194 137.43 20.5527C136.637 20.9861 135.74 21.2027 134.74 21.2027ZM134.78 18.6327C135.387 18.6327 135.893 18.4094 136.3 17.9627C136.707 17.5094 136.91 16.6994 136.91 15.5327C136.91 14.4461 136.697 13.6694 136.27 13.2027C135.85 12.7294 135.343 12.4927 134.75 12.4927C134.143 12.4927 133.637 12.7294 133.23 13.2027C132.823 13.6694 132.62 14.4461 132.62 15.5327C132.62 16.6527 132.833 17.4494 133.26 17.9227C133.687 18.3961 134.193 18.6327 134.78 18.6327ZM141.957 21.0527V10.1327H144.737L144.997 14.4127L144.817 13.7627C144.877 13.1894 144.987 12.6694 145.147 12.2027C145.307 11.7294 145.513 11.3227 145.767 10.9827C146.02 10.6427 146.323 10.3794 146.677 10.1927C147.037 10.0061 147.447 9.91273 147.907 9.91273C148.04 9.91273 148.173 9.9194 148.307 9.93273C148.447 9.94607 148.57 9.9694 148.677 10.0027V13.2327C148.45 13.1727 148.23 13.1327 148.017 13.1127C147.81 13.0861 147.603 13.0727 147.397 13.0727C147.03 13.0727 146.697 13.1061 146.397 13.1727C146.103 13.2394 145.847 13.3427 145.627 13.4827C145.407 13.6161 145.223 13.7894 145.077 14.0027V21.0527H141.957ZM154.087 21.1827C153.187 21.1827 152.483 20.9561 151.977 20.5027C151.477 20.0427 151.227 19.3327 151.227 18.3727L151.197 13.4927C151.197 13.2394 151.267 13.0327 151.407 12.8727C151.553 12.7127 151.757 12.6094 152.017 12.5627L151.197 10.5727V10.2427L151.767 7.01273H154.297V17.4127C154.297 17.8794 154.353 18.2027 154.467 18.3827C154.587 18.5627 154.813 18.6527 155.147 18.6527C155.48 18.6527 155.757 18.6461 155.977 18.6327C156.203 18.6194 156.417 18.5961 156.617 18.5627V21.0127C156.377 21.0994 156.017 21.1494 155.537 21.1627C155.063 21.1761 154.58 21.1827 154.087 21.1827ZM150.037 12.5627V10.1327H156.547V12.5627H150.037ZM162.535 21.2227C161.595 21.2227 160.785 21.0861 160.105 20.8127C159.432 20.5394 158.908 20.1261 158.535 19.5727C158.162 19.0127 157.955 18.3027 157.915 17.4427H160.945C161.005 17.9761 161.175 18.3694 161.455 18.6227C161.742 18.8761 162.125 19.0027 162.605 19.0027C162.845 19.0027 163.075 18.9761 163.295 18.9227C163.515 18.8627 163.695 18.7627 163.835 18.6227C163.975 18.4761 164.045 18.2761 164.045 18.0227C164.045 17.8161 163.992 17.6494 163.885 17.5227C163.785 17.3894 163.635 17.2794 163.435 17.1927C163.242 17.0994 163.005 17.0161 162.725 16.9427C162.445 16.8627 162.128 16.7694 161.775 16.6627C161.148 16.4761 160.562 16.2494 160.015 15.9827C159.475 15.7161 159.038 15.3594 158.705 14.9127C158.372 14.4661 158.205 13.8794 158.205 13.1527C158.205 12.0661 158.602 11.2594 159.395 10.7327C160.195 10.2061 161.242 9.94273 162.535 9.94273C163.295 9.94273 163.978 10.0461 164.585 10.2527C165.192 10.4594 165.692 10.8261 166.085 11.3527C166.485 11.8794 166.742 12.6227 166.855 13.5827L163.845 13.5627C163.785 13.1361 163.682 12.8194 163.535 12.6127C163.388 12.3994 163.222 12.2594 163.035 12.1927C162.848 12.1194 162.655 12.0827 162.455 12.0827C162.228 12.0827 162.022 12.1194 161.835 12.1927C161.655 12.2661 161.512 12.3727 161.405 12.5127C161.298 12.6527 161.245 12.8294 161.245 13.0427C161.245 13.2961 161.325 13.5127 161.485 13.6927C161.645 13.8727 161.888 14.0327 162.215 14.1727C162.542 14.3061 162.958 14.4427 163.465 14.5827C163.798 14.6694 164.172 14.7761 164.585 14.9027C165.005 15.0294 165.405 15.2061 165.785 15.4327C166.172 15.6594 166.488 15.9661 166.735 16.3527C166.988 16.7394 167.115 17.2394 167.115 17.8527C167.115 18.9194 166.705 19.7494 165.885 20.3427C165.065 20.9294 163.948 21.2227 162.535 21.2227Z" fill="#5A6372"/>
</svg>
