<svg width="32" height="28" viewBox="0 0 32 28" fill="none" xmlns="http://www.w3.org/2000/svg">
<path fill-rule="evenodd" clip-rule="evenodd" d="M4.29668 12.441C4.08116 12.441 3.90644 12.2663 3.90644 12.0508L3.90644 9.3115L3.92607 9.33105L4.70655 7.77593L3.14558 8.55349L3.1458 8.55371H0.390244C0.174718 8.55371 0 8.37899 0 8.16347V4.27857C0 4.06304 0.174718 3.88832 0.390244 3.88832H3.1464L4.70655 4.66548L3.92607 3.11035L3.90644 3.1299L3.90644 0.390244C3.90644 0.174718 4.08116 0 4.29668 0H8.19912C8.41465 0 8.58937 0.174717 8.58937 0.390243V3.13996L7.82374 4.66548L9.3839 3.88832H12.0976C12.3131 3.88832 12.4878 4.06304 12.4878 4.27857V8.16347C12.4878 8.37899 12.3131 8.55371 12.0976 8.55371H9.3845L9.38472 8.55349L7.82374 7.77593L8.58937 9.30144V12.0508C8.58937 12.2663 8.41465 12.441 8.19912 12.441H4.29668Z" fill="#5A6372"/>
<path fill-rule="evenodd" clip-rule="evenodd" d="M19.5122 4.27857C19.5122 4.06304 19.6869 3.88832 19.9024 3.88832L31.6098 3.88832C31.8253 3.88832 32 4.06304 32 4.27857L32 8.16347C32 8.37899 31.8253 8.55371 31.6098 8.55371L19.9024 8.55371C19.6869 8.55371 19.5122 8.37899 19.5122 8.16347L19.5122 4.27857Z" fill="#5A6372"/>
<path fill-rule="evenodd" clip-rule="evenodd" d="M8.1887 15.5518C8.41037 15.5518 8.58645 15.7364 8.59035 15.958C8.66147 20.0056 12.2112 23.4924 16.3081 23.3291C20.2675 23.1713 23.3782 19.8643 23.4332 15.958C23.4364 15.7364 23.6125 15.5518 23.8342 15.5518H27.7322C27.9417 15.5518 28.1145 15.718 28.1164 15.9275C28.1775 22.4135 23.0494 27.7296 16.4953 27.9908C9.65638 28.2633 3.8509 22.6979 3.90665 15.9275C3.90837 15.7181 4.0812 15.5518 4.29063 15.5518H8.1887Z" fill="#5A6372"/>
</svg>
