<svg width="28" height="32" viewBox="0 0 28 32" fill="none" xmlns="http://www.w3.org/2000/svg">
<path d="M2 2.66667C2 1.19391 3.25844 0 4.81081 0H19.5676L28 8V29.3333C28 30.8061 26.7416 32 25.1892 32H4.81081C3.25844 32 2 30.8061 2 29.3333V2.66667Z" fill="#EBEBF0"/>
<path d="M19 6V0L28 8H21.25C20.0074 8 19 7.10457 19 6Z" fill="#B0B7BD"/>
<g clip-path="url(#clip0_178_3102)">
<path d="M15.7242 26.2413H0.276057C0.123714 26.2413 0.000183105 26.1178 0.000183105 25.9654V16.0344C0.000183105 15.8821 0.123714 15.7585 0.276057 15.7585H15.7243C15.8766 15.7585 16.0001 15.8821 16.0001 16.0344V25.9654C16.0001 26.1178 15.8766 26.2413 15.7242 26.2413Z" fill="#41479B"/>
<path d="M16.0001 16.0344C16.0001 15.8821 15.8766 15.7585 15.7242 15.7585H14.49L9.37943 19.1069V15.7585H6.62081V19.1069L1.51024 15.7585H0.276057C0.123714 15.7585 0.000183105 15.8821 0.000183105 16.0344V16.7479L4.38482 19.6206H0.000183105V22.3792H4.38482L0.000183105 25.2519V25.9654C0.000183105 26.1178 0.123714 26.2413 0.276057 26.2413H1.51027L6.62088 22.893V26.2413H9.37949V22.893L14.4901 26.2413H15.7243C15.8767 26.2413 16.0002 26.1178 16.0002 25.9654V25.2519L11.6155 22.3792H16.0001V19.6206H11.6155L16.0001 16.7479V16.0344Z" fill="#F5F5F5"/>
<path d="M16.0001 20.1723H8.82774V15.7585H7.17256V20.1723H0.000183105V21.8275H7.17256V26.2413H8.82774V21.8275H16.0001V20.1723Z" fill="#FF4B55"/>
<path d="M5.59241 22.3793L0.00811768 26.0042C0.0276488 26.1374 0.137492 26.2414 0.276148 26.2414H0.656115L6.60578 22.3793H5.59241V22.3793Z" fill="#FF4B55"/>
<path d="M10.825 22.3793H9.81158L15.7526 26.2356C15.8911 26.2209 16.0003 26.1078 16.0003 25.9654V25.7386L10.825 22.3793Z" fill="#FF4B55"/>
<path d="M0.000366211 16.339L5.05594 19.6207H6.06931L0.161084 15.7855C0.0667097 15.8294 0.000366211 15.9236 0.000366211 16.0345V16.339Z" fill="#FF4B55"/>
<path d="M10.3931 19.6207L15.9908 15.9871C15.9675 15.8583 15.86 15.7587 15.7245 15.7587H15.3293L9.3797 19.6207H10.3931Z" fill="#FF4B55"/>
</g>
<defs>
<clipPath id="clip0_178_3102">
<rect width="16" height="16" fill="white" transform="translate(0 13)"/>
</clipPath>
</defs>
</svg>
