<svg width="28" height="32" viewBox="0 0 28 32" fill="none" xmlns="http://www.w3.org/2000/svg">
<path d="M2 2.66667C2 1.19391 3.25844 0 4.81081 0H19.5676L28 8V29.3333C28 30.8061 26.7416 32 25.1892 32H4.81081C3.25844 32 2 30.8061 2 29.3333V2.66667Z" fill="#EBEBF0"/>
<g clip-path="url(#clip0_178_3194)">
<path d="M15.7243 26.2413H0.276058C0.123714 26.2413 0.000183105 26.1178 0.000183105 25.9654V16.0344C0.000183105 15.8821 0.123714 15.7585 0.276058 15.7585H15.7243C15.8767 15.7585 16.0002 15.8821 16.0002 16.0344V25.9654C16.0002 26.1178 15.8766 26.2413 15.7243 26.2413Z" fill="#F5F5F5"/>
<path d="M8.00013 24.0343C9.67596 24.0343 11.0345 22.6758 11.0345 20.9999C11.0345 19.3241 9.67596 17.9656 8.00013 17.9656C6.32429 17.9656 4.96576 19.3241 4.96576 20.9999C4.96576 22.6758 6.32429 24.0343 8.00013 24.0343Z" fill="#FF4B55"/>
</g>
<path d="M19 6V0L28 8H21.25C20.0074 8 19 7.10457 19 6Z" fill="#B0B7BD"/>
<defs>
<clipPath id="clip0_178_3194">
<rect width="16" height="16" fill="white" transform="translate(0 13)"/>
</clipPath>
</defs>
</svg>
