<svg width="28" height="32" viewBox="0 0 28 32" fill="none" xmlns="http://www.w3.org/2000/svg">
<path d="M2 2.66667C2 1.19391 3.25844 0 4.81081 0H19.5676L28 8V29.3333C28 30.8061 26.7416 32 25.1892 32H4.81081C3.25844 32 2 30.8061 2 29.3333V2.66667Z" fill="#EBEBF0"/>
<g clip-path="url(#clip0_178_3107)">
<path d="M0.00012207 21H16.0001V25.9655C16.0001 26.1179 15.8766 26.2414 15.7242 26.2414H0.275997C0.123653 26.2414 0.00012207 26.1179 0.00012207 25.9655V21Z" fill="#FFE15A"/>
<path d="M16.0001 20.9999H0.00012207V16.0344C0.00012207 15.8821 0.123653 15.7585 0.275997 15.7585H15.7242C15.8766 15.7585 16.0001 15.8821 16.0001 16.0344L16.0001 20.9999Z" fill="#4173CD"/>
</g>
<path d="M19 6V0L28 8H21.25C20.0074 8 19 7.10457 19 6Z" fill="#B0B7BD"/>
<defs>
<clipPath id="clip0_178_3107">
<rect width="16" height="16" fill="white" transform="translate(0 13)"/>
</clipPath>
</defs>
</svg>
