<svg width="28" height="32" viewBox="0 0 28 32" fill="none" xmlns="http://www.w3.org/2000/svg">
<path d="M2 2.66667C2 1.19391 3.25844 0 4.81081 0H19.5676L28 8V29.3333C28 30.8061 26.7416 32 25.1892 32H4.81081C3.25844 32 2 30.8061 2 29.3333V2.66667Z" fill="#EBEBF0"/>
<g clip-path="url(#clip0_178_3136)">
<path d="M16 19.2528H0V16.0344C0 15.8821 0.123531 15.7585 0.275874 15.7585H15.7241C15.8765 15.7585 16 15.8821 16 16.0344L16 19.2528Z" fill="#F5F5F5"/>
<path d="M15.7241 26.2413H0.275874C0.123531 26.2413 0 26.1178 0 25.9654V22.7471H16V25.9654C16 26.1178 15.8764 26.2413 15.7241 26.2413Z" fill="#FF4B55"/>
<path d="M16 19.2528H0V22.7469H16V19.2528Z" fill="#41479B"/>
</g>
<path d="M19 6V0L28 8H21.25C20.0074 8 19 7.10457 19 6Z" fill="#B0B7BD"/>
<defs>
<clipPath id="clip0_178_3136">
<rect width="16" height="16" fill="white" transform="translate(0 13)"/>
</clipPath>
</defs>
</svg>
