<svg width="48" height="42" viewBox="0 0 48 42" fill="none" xmlns="http://www.w3.org/2000/svg">
<g clip-path="url(#clip0_61_698)">
<path d="M8.25208 4.25818C7.72394 4.25818 7.20766 4.4156 6.76852 4.71055C6.32937 5.00549 5.98709 5.42471 5.78493 5.9152C5.58277 6.40568 5.52982 6.94542 5.63278 7.46615C5.73574 7.98689 5.98998 8.46525 6.36335 8.84074C6.73672 9.21624 7.21247 9.47201 7.73043 9.57571C8.24839 9.67942 8.78531 9.62641 9.27331 9.42338C9.7613 9.22035 10.1785 8.87642 10.472 8.43508C10.7656 7.99373 10.9224 7.47479 10.9226 6.94387C10.9222 6.2319 10.6407 5.54919 10.14 5.04565C9.63933 4.5421 8.96031 4.25889 8.25208 4.25818ZM8.25208 7.53624C8.13528 7.53624 8.0211 7.50141 7.924 7.43615C7.8269 7.3709 7.75124 7.27815 7.70659 7.16965C7.66194 7.06116 7.65031 6.94178 7.67318 6.82664C7.69604 6.71149 7.75237 6.60575 7.83503 6.5228C7.9177 6.43985 8.02298 6.38341 8.13756 6.36064C8.25214 6.33786 8.37087 6.34977 8.47872 6.39485C8.58657 6.43992 8.67869 6.51615 8.74343 6.61388C8.80817 6.71162 8.84261 6.82646 8.8424 6.94387C8.84198 7.10103 8.77961 7.25162 8.66897 7.36265C8.55832 7.47368 8.40841 7.5361 8.25208 7.53624ZM7.41362 6.77027C7.42516 6.71538 7.44189 6.66173 7.46356 6.61003C7.44195 6.66138 7.42523 6.71468 7.41362 6.76921V6.77027ZM9.01615 7.32953C9.1073 7.14694 9.13082 6.9377 9.0825 6.73928C9.03417 6.54085 8.91716 6.3662 8.75241 6.24659C8.58766 6.12699 8.38594 6.07026 8.18337 6.08654C7.98081 6.10283 7.79062 6.19107 7.64688 6.33548C7.79039 6.1907 7.98054 6.10208 8.18319 6.08552C8.38585 6.06896 8.58773 6.12555 8.75263 6.24513C8.91752 6.3647 9.03462 6.53945 9.08292 6.73799C9.13121 6.93653 9.10754 7.14588 9.01615 7.32846V7.32953Z" fill="#6C96F9"/>
<path d="M14.1056 4.25818C13.5775 4.25807 13.0611 4.41541 12.6219 4.71029C12.1827 5.00516 11.8403 5.42435 11.6381 5.91483C11.4359 6.4053 11.3828 6.94505 11.4857 7.46583C11.5886 7.9866 11.8428 8.465 12.2162 8.84055C12.5895 9.2161 13.0653 9.47192 13.5833 9.57567C14.1012 9.67942 14.6382 9.62644 15.1262 9.42343C15.6142 9.22042 16.0314 8.87649 16.325 8.43513C16.6186 7.99378 16.7754 7.47482 16.7756 6.94387C16.7751 6.23203 16.4936 5.54949 15.9931 5.04599C15.4925 4.54249 14.8137 4.25917 14.1056 4.25818ZM13.2496 6.94387C13.2496 6.91396 13.2496 6.88458 13.2539 6.85574C13.2539 6.88458 13.2496 6.91396 13.2496 6.94387ZM14.9611 6.94387C14.9611 6.91396 14.9611 6.88458 14.9568 6.85574C14.9595 6.88458 14.9611 6.91396 14.9611 6.94387ZM14.9149 6.66665C14.9267 6.70056 14.9365 6.73516 14.9441 6.77027C14.9365 6.7348 14.9268 6.69984 14.9149 6.66558V6.66665ZM13.5153 6.94387C13.5153 6.8265 13.5499 6.71177 13.6148 6.61417C13.6797 6.51658 13.7719 6.44052 13.8797 6.39561C13.9876 6.35069 14.1063 6.33894 14.2208 6.36184C14.3353 6.38473 14.4405 6.44125 14.5231 6.52425C14.6056 6.60724 14.6618 6.71298 14.6846 6.8281C14.7074 6.94321 14.6957 7.06253 14.651 7.17097C14.6063 7.27941 14.5307 7.37209 14.4336 7.4373C14.3365 7.5025 14.2224 7.53731 14.1056 7.53731C13.9491 7.53717 13.799 7.4746 13.6884 7.36334C13.5777 7.25208 13.5155 7.10122 13.5153 6.94387ZM14.1056 6.08336C13.9069 6.08311 13.7142 6.15264 13.561 6.27993C13.7143 6.15285 13.9067 6.08335 14.1054 6.08335C14.304 6.08335 14.4965 6.15285 14.6497 6.27993C14.4969 6.15213 14.3044 6.0822 14.1056 6.08229V6.08336ZM12.1795 5.49793C12.2257 5.43597 12.2752 5.37615 12.3267 5.319C12.2736 5.37615 12.2257 5.43597 12.1795 5.49793ZM12.1795 8.38607C12.2257 8.44803 12.2752 8.50785 12.3267 8.56501C12.2736 8.50999 12.2257 8.45017 12.1795 8.38607ZM12.4904 8.72953C12.547 8.78152 12.6064 8.83066 12.6684 8.87695C12.6067 8.83208 12.5474 8.78365 12.4904 8.73166V8.72953ZM12.9611 9.06604C13.0291 9.10289 13.0993 9.13708 13.171 9.16753C13.0993 9.13922 13.0291 9.10503 12.9611 9.06817V9.06604ZM13.392 9.24925C13.4677 9.2729 13.5445 9.29268 13.6221 9.30854C13.5445 9.29339 13.4677 9.27431 13.392 9.25139V9.24925ZM13.7401 9.32991C13.861 9.34865 13.9833 9.35793 14.1056 9.35768C13.9833 9.35864 13.8611 9.35007 13.7401 9.33204V9.32991ZM15.9606 8.47527C16.0094 8.41545 16.0555 8.35349 16.0987 8.28939C16.0555 8.35633 16.0094 8.41972 15.9606 8.47954V8.47527ZM16.3208 5.99843C16.2599 5.85473 16.1856 5.71718 16.0987 5.58767C16.1858 5.71854 16.2602 5.85752 16.3208 6.0027V5.99843Z" fill="#6C96F9"/>
<path d="M8.25208 16.0453C7.7239 16.0453 7.20758 16.2027 6.76841 16.4977C6.32924 16.7927 5.98695 17.212 5.78483 17.7025C5.5827 18.1931 5.52981 18.7329 5.63286 19.2537C5.7359 19.7744 5.99024 20.2528 6.36373 20.6282C6.73721 21.0037 7.21305 21.2594 7.73108 21.363C8.24911 21.4665 8.78607 21.4134 9.27405 21.2102C9.76202 21.007 10.1791 20.6629 10.4725 20.2214C10.766 19.7799 10.9226 19.2609 10.9226 18.7299C10.9219 18.0181 10.6403 17.3357 10.1397 16.8324C9.63898 16.3291 8.96013 16.046 8.25208 16.0453ZM8.25208 19.3228C8.13532 19.3228 8.02119 19.288 7.92411 19.2228C7.82703 19.1576 7.75137 19.0649 7.70669 18.9565C7.66201 18.848 7.65032 18.7287 7.6731 18.6136C7.69588 18.4985 7.7521 18.3927 7.83466 18.3098C7.91721 18.2268 8.0224 18.1702 8.13691 18.1473C8.25142 18.1244 8.37012 18.1362 8.47798 18.1811C8.58585 18.226 8.67805 18.3021 8.74291 18.3997C8.80778 18.4973 8.8424 18.612 8.8424 18.7294C8.84226 18.8867 8.78002 19.0376 8.66934 19.1488C8.55867 19.2601 8.4086 19.3227 8.25208 19.3228ZM8.9492 19.2272C8.9593 19.2128 8.96939 19.1978 8.97842 19.1829C8.96939 19.1978 8.9593 19.2128 8.9492 19.2293V19.2272Z" fill="#6C96F9"/>
<path d="M14.1056 16.0453C13.5774 16.0452 13.0611 16.2025 12.6218 16.4975C12.1826 16.7924 11.8402 17.2116 11.638 17.7022C11.4358 18.1927 11.3828 18.7325 11.4858 19.2533C11.5888 19.7741 11.8431 20.2525 12.2166 20.628C12.59 21.0035 13.0659 21.2593 13.5839 21.3629C14.102 21.4665 14.6389 21.4134 15.127 21.2102C15.615 21.0071 16.0321 20.663 16.3255 20.2215C16.619 19.78 16.7756 19.2609 16.7756 18.7299C16.7749 18.0182 16.4934 17.3359 15.9929 16.8326C15.4923 16.3293 14.8136 16.0461 14.1056 16.0453ZM14.1056 18.1365C14.2224 18.1365 14.3366 18.1713 14.4337 18.2365C14.5307 18.3018 14.6064 18.3945 14.6511 18.5029C14.6957 18.6114 14.7074 18.7308 14.6846 18.8459C14.6618 18.961 14.6055 19.0668 14.5229 19.1497C14.4403 19.2327 14.335 19.2892 14.2205 19.312C14.1059 19.3348 13.9872 19.323 13.8794 19.278C13.7715 19.233 13.6793 19.1569 13.6145 19.0592C13.5497 18.9616 13.5152 18.8468 13.5153 18.7294C13.5155 18.5721 13.5777 18.4213 13.6884 18.3101C13.7991 18.1989 13.9492 18.1365 14.1056 18.1365ZM12.6482 16.8091C12.595 16.8481 12.5483 16.8887 12.501 16.9314C12.5483 16.8887 12.5977 16.8481 12.6482 16.8091ZM13.1726 20.9568C13.2443 20.9872 13.3182 21.0145 13.3936 21.038C13.3166 21.0145 13.2427 20.9872 13.171 20.9568H13.1726ZM13.9834 21.1437C14.0243 21.1437 14.0658 21.1469 14.1072 21.1469C14.0642 21.1469 14.0227 21.1459 13.9818 21.1437H13.9834ZM16.4032 18.0115C16.3798 17.9356 16.3527 17.8619 16.3224 17.7893C16.3511 17.8619 16.3782 17.9356 16.4016 18.0115H16.4032Z" fill="#6C96F9"/>
<path d="M8.25208 27.8323C7.7239 27.8323 7.20758 27.9897 6.76841 28.2847C6.32924 28.5797 5.98695 28.999 5.78483 29.4895C5.5827 29.9801 5.52981 30.5199 5.63286 31.0406C5.7359 31.5614 5.99024 32.0398 6.36373 32.4152C6.73721 32.7907 7.21305 33.0464 7.73108 33.1499C8.24911 33.2535 8.78607 33.2004 9.27405 32.9972C9.76202 32.794 10.1791 32.4499 10.4725 32.0084C10.766 31.5669 10.9226 31.0479 10.9226 30.5169C10.9219 29.8051 10.6403 29.1227 10.1397 28.6194C9.63898 28.1161 8.96013 27.833 8.25208 27.8323ZM9.95238 28.8082C9.92475 28.7809 9.89924 28.7547 9.86842 28.728C9.89605 28.7542 9.92368 28.7809 9.95131 28.8082H9.95238ZM6.47367 28.892C6.42231 28.9497 6.37342 29.0095 6.32702 29.0715C6.37271 29.0095 6.42124 28.9497 6.47261 28.892H6.47367ZM9.78128 28.6522C9.74303 28.6201 9.70318 28.5902 9.66333 28.5609C9.70211 28.5902 9.74196 28.6201 9.78022 28.6522H9.78128ZM8.25314 29.6564C8.1131 29.6566 7.97525 29.6913 7.85167 29.7575C7.72809 29.8237 7.62256 29.9194 7.54433 30.0362C7.65988 29.862 7.835 29.7366 8.03646 29.6836C8.23793 29.6306 8.45173 29.6538 8.6373 29.7488C8.51798 29.6878 8.38595 29.6561 8.25208 29.6564H8.25314ZM8.84346 30.5169C8.84346 30.6343 8.80884 30.749 8.74397 30.8466C8.67911 30.9442 8.58691 31.0202 8.47905 31.0652C8.37118 31.1101 8.25249 31.1218 8.13797 31.0989C8.02346 31.076 7.91828 31.0195 7.83572 30.9365C7.75316 30.8535 7.69694 30.7478 7.67416 30.6327C7.65138 30.5176 7.66307 30.3982 7.70775 30.2898C7.75243 30.1814 7.8281 30.0887 7.92517 30.0235C8.02225 29.9583 8.13638 29.9235 8.25314 29.9235C8.40948 29.9239 8.55927 29.9866 8.66972 30.0978C8.78017 30.209 8.84226 30.3597 8.8424 30.5169H8.84346ZM7.39768 30.5169C7.39752 30.4302 7.41042 30.3439 7.43593 30.261C7.41006 30.3438 7.3968 30.4301 7.39661 30.5169H7.39768ZM7.8456 31.2733C7.79726 31.2469 7.75154 31.2159 7.70904 31.1808C7.7512 31.2159 7.79657 31.2468 7.84454 31.2733H7.8456ZM8.79724 31.1808C8.76727 31.2053 8.73567 31.2276 8.70266 31.2476C8.7353 31.2275 8.76655 31.2052 8.79617 31.1808H8.79724ZM9.00552 30.1067C8.93439 29.9753 8.83036 29.8648 8.70372 29.7862C8.88594 29.8985 9.01939 30.0757 9.07749 30.2825C9.13558 30.4893 9.11406 30.7105 9.01721 30.902C9.07964 30.7784 9.1112 30.6413 9.10916 30.5026C9.10713 30.364 9.07156 30.2279 9.00552 30.1061V30.1067ZM5.95667 31.2369C5.90886 31.0834 5.87664 30.9254 5.8605 30.7653C5.88878 31.0435 5.96501 31.3146 6.08579 31.5665C6.03436 31.4595 5.99103 31.3488 5.95614 31.2353L5.95667 31.2369ZM6.13892 31.6701C6.17612 31.7385 6.2165 31.8047 6.25954 31.8694C6.21597 31.8031 6.17559 31.7369 6.13839 31.6685L6.13892 31.6701ZM8.96727 32.8271C8.73575 32.8986 8.49482 32.9347 8.25261 32.9339C7.73543 32.9328 7.23236 32.7643 6.81798 32.4532C7.12179 32.682 7.4752 32.8351 7.84925 32.9001C8.2233 32.9651 8.60735 32.9401 8.96992 32.8271C9.04484 32.8031 9.1187 32.7737 9.19043 32.7454C9.11551 32.7742 9.04165 32.8014 8.96673 32.8255L8.96727 32.8271ZM9.66333 32.474C9.70371 32.4448 9.74303 32.4144 9.78128 32.3827C9.74232 32.4129 9.70282 32.4429 9.66279 32.4724L9.66333 32.474Z" fill="#6C96F9"/>
<path d="M14.1056 27.8323C13.5774 27.8322 13.0611 27.9895 12.6218 28.2845C12.1826 28.5794 11.8402 28.9986 11.638 29.4892C11.4358 29.9797 11.3828 30.5195 11.4858 31.0403C11.5888 31.5611 11.8431 32.0395 12.2166 32.415C12.59 32.7905 13.0659 33.0463 13.5839 33.1499C14.102 33.2535 14.6389 33.2004 15.127 32.9972C15.615 32.794 16.0321 32.4499 16.3255 32.0085C16.619 31.567 16.7756 31.0479 16.7756 30.5169C16.7748 29.8052 16.4932 29.123 15.9927 28.6197C15.4922 28.1164 14.8136 27.8333 14.1056 27.8323ZM15.5961 28.6207C15.5488 28.5833 15.5009 28.547 15.451 28.5138C15.4983 28.547 15.5461 28.5833 15.5934 28.6207H15.5961ZM13.171 32.7432C12.8667 32.6159 12.5918 32.4269 12.3632 32.1882C12.1346 31.9495 11.9573 31.6661 11.8422 31.3557C11.7271 31.0452 11.6768 30.7142 11.6944 30.3833C11.7119 30.0525 11.7969 29.7288 11.9442 29.4323C12.0914 29.1359 12.2977 28.873 12.5502 28.6601C12.8027 28.4472 13.0961 28.2887 13.4121 28.1946C13.7281 28.1004 14.06 28.0726 14.3872 28.1128C14.7143 28.153 15.0298 28.2604 15.3139 28.4284C14.8437 28.1527 14.2942 28.0457 13.7556 28.125C13.2169 28.2043 12.7211 28.4652 12.3492 28.8649C11.9774 29.2646 11.7516 29.7794 11.7089 30.325C11.6662 30.8705 11.8091 31.4145 12.1142 31.8678C12.3749 32.2561 12.742 32.5602 13.171 32.7432ZM14.5132 29.76C14.6343 29.8262 14.7378 29.9207 14.815 30.0356C14.7378 29.9209 14.6343 29.8266 14.5132 29.7605V29.76ZM14.6954 30.5164C14.6954 30.6338 14.6608 30.7485 14.5959 30.8461C14.531 30.9437 14.4388 31.0198 14.3309 31.0647C14.223 31.1096 14.1043 31.1213 13.9897 31.0984C13.8752 31.0754 13.77 31.0188 13.6875 30.9358C13.605 30.8528 13.5488 30.747 13.5261 30.6318C13.5033 30.5167 13.5151 30.3973 13.5599 30.2889C13.6046 30.1805 13.6804 30.0878 13.7775 30.0227C13.8747 29.9575 13.9889 29.9228 14.1056 29.9229C14.1832 29.923 14.2599 29.9384 14.3315 29.9683C14.4031 29.9982 14.4681 30.042 14.5229 30.0971C14.5777 30.1523 14.6211 30.2177 14.6507 30.2898C14.6803 30.3618 14.6955 30.439 14.6954 30.5169V30.5164ZM13.3958 30.0356C13.4635 29.935 13.5517 29.85 13.6545 29.7862C13.5516 29.8501 13.4634 29.9354 13.3958 30.0362V30.0356ZM13.2496 30.5164C13.2494 30.4296 13.2625 30.3433 13.2884 30.2605C13.2624 30.3435 13.2493 30.4299 13.2496 30.5169V30.5164ZM13.6551 31.2476C13.6402 31.238 13.6253 31.2284 13.611 31.2182C13.6248 31.2279 13.6396 31.2375 13.6551 31.2476ZM14.1062 31.3774C14.2485 31.3777 14.3886 31.3421 14.5137 31.2738C14.3945 31.3387 14.2616 31.3741 14.1261 31.3772C13.9905 31.3803 13.8562 31.3509 13.7342 31.2914C13.8501 31.3476 13.977 31.3768 14.1056 31.3769L14.1062 31.3774ZM14.9234 30.2616C14.9489 30.3444 14.9618 30.4307 14.9616 30.5174C14.9617 30.4305 14.9486 30.344 14.9228 30.261L14.9234 30.2616ZM15.0403 32.7443C15.1833 32.6833 15.3202 32.6085 15.4489 32.521C15.4988 32.4868 15.5466 32.4505 15.5939 32.4142C15.5466 32.4516 15.4988 32.4879 15.4489 32.521C15.3199 32.6082 15.1829 32.6826 15.0397 32.7432L15.0403 32.7443ZM16.3213 29.5773C16.2606 29.4329 16.1862 29.2946 16.0992 29.1644C16.186 29.2945 16.2602 29.4326 16.3208 29.5768L16.3213 29.5773Z" fill="#6C96F9"/>
<path d="M46.8491 20.1742L46.6897 20.116L39.9698 17.6269V14.8274C39.9708 14.0925 39.7039 13.3828 39.2195 12.8324C39.7011 12.2816 39.9657 11.5728 39.9634 10.8395V3.0409C39.9624 2.23554 39.644 1.46337 39.078 0.893446C38.512 0.323518 37.7444 0.00226006 36.9432 0L3.55359 0C2.75209 0.00155413 1.98388 0.322428 1.41728 0.892316C0.850684 1.4622 0.5319 2.23464 0.530777 3.04037V10.8432C0.529536 11.5771 0.795669 12.286 1.27891 12.8361C0.79569 13.3856 0.529531 14.094 0.530777 14.8274V22.6259C0.529536 23.3598 0.795669 24.0688 1.27891 24.6188C0.794709 25.1692 0.528472 25.8792 0.530777 26.6139V34.4124C0.532887 35.2173 0.852495 35.9885 1.41948 36.5567C1.98647 37.125 2.75454 37.444 3.55518 37.4437H28.4401C29.3104 38.359 30.2751 39.1786 31.3179 39.8885C32.4743 40.6709 33.7019 41.3412 34.9842 41.8905C35.1284 41.9629 35.2878 41.9996 35.4491 41.9973C35.4693 41.9973 35.4937 41.9973 35.5203 41.9973C35.6732 41.9933 35.8241 41.9612 35.9656 41.9028H35.9682C37.9342 41.053 39.6584 40.014 41.0962 38.8149C42.5302 37.6247 43.752 36.1977 44.7093 34.5951C45.6551 33.0055 46.3709 31.1824 46.8347 29.1773C47.297 27.1881 47.5308 24.9447 47.5308 22.5015V21.1549C47.5303 20.941 47.4648 20.7324 47.3429 20.5571C47.221 20.3818 47.0487 20.2482 46.8491 20.1742ZM39.6446 14.2559C39.6276 14.1741 39.6058 14.0956 39.5813 14.0155C39.6058 14.094 39.6276 14.1757 39.6446 14.2559ZM35.4873 39.8351C28.6001 36.7285 25.5268 31.3785 25.5268 22.5058V21.8878L35.4873 18.1968L45.4484 21.8878V22.5058C45.4484 31.3785 42.3746 36.7285 35.4873 39.8351ZM23.7446 23.8427C23.7271 23.4031 23.7117 22.9614 23.7117 22.5036C23.7122 22.9614 23.7276 23.4031 23.7452 23.8427H23.7446ZM26.1415 29.7264C26.1851 29.8797 26.2297 30.0314 26.2765 30.1815C26.2303 30.0314 26.1856 29.8797 26.1415 29.7264ZM25.455 26.1502C25.4802 26.3692 25.5076 26.5858 25.5374 26.7998C25.508 26.5858 25.4807 26.3692 25.4556 26.1502H25.455ZM23.4684 23.5757H3.55518C3.30509 23.5755 3.06525 23.4757 2.88825 23.2981C2.71126 23.1204 2.61155 22.8795 2.61099 22.6281V22.423V14.8295C2.6114 14.5789 2.71041 14.3386 2.8864 14.1611C3.0624 13.9836 3.30109 13.8832 3.5504 13.882H36.9491C37.1985 13.8831 37.4374 13.9833 37.6136 14.1609C37.7898 14.3384 37.889 14.5788 37.8895 14.8295V16.8593L35.8704 16.1115C35.7478 16.0669 35.6183 16.0449 35.4879 16.0463C35.3569 16.0442 35.2266 16.0665 35.1037 16.112L24.1277 20.1763C23.9283 20.2505 23.7562 20.3842 23.6344 20.5595C23.5127 20.7348 23.4471 20.9433 23.4466 21.157V22.5036C23.4466 22.8754 23.4567 23.2354 23.4689 23.5757H23.4684ZM37.8199 11.677C37.8338 11.662 37.8476 11.6471 37.8603 11.6316C37.8476 11.6492 37.8338 11.6642 37.8199 11.6791V11.677ZM37.888 10.8432C37.887 11.0938 37.7877 11.334 37.6115 11.5114C37.4354 11.6888 37.1968 11.7892 36.9475 11.7908H3.55147C3.3023 11.7894 3.06379 11.6889 2.888 11.5114C2.71221 11.3339 2.61339 11.0937 2.61311 10.8432V10.5761V3.04464C2.61283 2.79346 2.71171 2.55244 2.88803 2.37448C3.06436 2.19652 3.30373 2.09617 3.55359 2.09546H36.9454C37.0693 2.09553 37.1919 2.12014 37.3064 2.16789C37.4208 2.21563 37.5247 2.28558 37.6123 2.37372C37.6998 2.46187 37.7692 2.56649 37.8165 2.68161C37.8638 2.79673 37.8881 2.92009 37.888 3.04464V10.8432ZM2.74754 2.13926C2.77411 2.11469 2.80068 2.09172 2.83096 2.06982C2.80227 2.09172 2.77411 2.11469 2.74754 2.13926ZM2.39951 14.469C2.47596 14.2222 2.62863 14.0063 2.83538 13.8526C3.04214 13.6989 3.29221 13.6155 3.54934 13.6143C3.22954 13.6152 2.92313 13.7436 2.6974 13.9713C2.47166 14.199 2.34503 14.5075 2.34532 14.829V22.6275C2.34514 22.8334 2.39703 23.0359 2.49611 23.2161C2.5952 23.3962 2.73821 23.5481 2.91173 23.6574C2.73869 23.5483 2.59602 23.3968 2.49705 23.2171C2.39809 23.0375 2.34606 22.8356 2.34585 22.6302V14.8317C2.34542 14.7087 2.36351 14.5865 2.39951 14.469ZM3.03234 23.7247C3.00418 23.7113 2.97921 23.6964 2.95105 23.6809C2.97496 23.6964 3.00418 23.7113 3.03234 23.7247ZM3.37187 23.8315C3.33202 23.8251 3.2927 23.8171 3.25391 23.8069C3.29376 23.8166 3.33202 23.823 3.37187 23.831V23.8315ZM24.6958 31.1269C25.188 32.6245 25.879 34.0486 26.7499 35.3605H3.55518C3.43145 35.3625 3.30857 35.3397 3.19374 35.2933C3.07892 35.2469 2.97447 35.1779 2.88652 35.0904C2.79857 35.0029 2.72889 34.8986 2.68158 34.7836C2.63426 34.6687 2.61026 34.5454 2.61099 34.421V26.6224C2.61071 26.4976 2.63492 26.374 2.68225 26.2585C2.72957 26.1431 2.79908 26.0382 2.88678 25.9499C2.97449 25.8615 3.07867 25.7914 3.19336 25.7436C3.30806 25.6957 3.43101 25.6711 3.55518 25.6711H23.5969C23.7808 27.6565 24.1506 29.4908 24.6958 31.1269ZM2.35169 2.91858C2.34736 2.96046 2.34523 3.00254 2.34532 3.04464C2.34543 2.90253 2.37025 2.76153 2.41864 2.628C2.38425 2.72164 2.36175 2.81928 2.35169 2.91858ZM2.70043 25.7595C2.92726 25.5319 3.23468 25.404 3.55518 25.404H23.8398C23.9053 26.1768 23.9979 26.9237 24.1177 27.6448C24.1577 27.8855 24.2007 28.1232 24.2468 28.3579C24.2007 28.1236 24.1577 27.8859 24.1177 27.6448C23.9976 26.9237 23.9049 26.1768 23.8398 25.404H3.55518C3.23468 25.404 2.92726 25.5319 2.70043 25.7595ZM2.54988 35.0978C2.56689 35.1229 2.58495 35.1469 2.60302 35.1704C2.58442 35.1469 2.56635 35.1229 2.54988 35.0978C2.53341 35.0726 2.51588 35.0443 2.50047 35.0166C2.51535 35.0443 2.53182 35.0716 2.54988 35.0978ZM2.97496 35.4818C2.94042 35.4636 2.90748 35.4433 2.87506 35.422C2.90695 35.4433 2.93989 35.4636 2.97496 35.4818ZM3.25019 35.5886C3.19241 35.5752 3.13574 35.5574 3.08069 35.5352C3.13558 35.5572 3.19207 35.5749 3.24966 35.5881L3.25019 35.5886ZM3.55572 35.626L27.2574 35.6276H3.55518L3.55572 35.626ZM27.1373 32.4056C27.2048 32.5483 27.2749 32.6887 27.3461 32.8282C27.2744 32.6898 27.2042 32.5477 27.1367 32.4051L27.1373 32.4056ZM29.9832 36.4652C29.7526 36.2344 29.5312 35.9969 29.319 35.7526C29.5312 35.9962 29.7524 36.2333 29.9826 36.4641L29.9832 36.4652ZM28.4423 34.64C28.2839 34.4167 28.1318 34.1888 27.9858 33.9563C28.1318 34.1885 28.2837 34.416 28.4417 34.6389L28.4423 34.64ZM30.6441 37.088C30.4947 36.9555 30.3485 36.8207 30.2058 36.6836C30.3482 36.8204 30.4941 36.9548 30.6436 37.0869L30.6441 37.088ZM31.3503 37.6755C31.1999 37.557 31.0517 37.4368 30.9072 37.3139C31.0512 37.4384 31.1994 37.5586 31.3487 37.6771L31.3503 37.6755ZM38.1993 0.571538C37.8108 0.370805 37.3801 0.266412 36.9432 0.267074C37.3798 0.266748 37.8101 0.371319 38.1983 0.572072L38.1993 0.571538ZM0.811857 11.1311C0.801695 11.0355 0.796551 10.9394 0.796448 10.8432C0.796476 10.9401 0.80162 11.0369 0.811857 11.1332C0.826606 11.2743 0.852367 11.4139 0.888902 11.5509C0.852257 11.4132 0.826496 11.2729 0.811857 11.1311ZM1.19655 35.8466C1.15032 35.7708 1.10782 35.6923 1.06903 35.6121C1.03024 35.532 0.995171 35.4487 0.962759 35.3643C0.993931 35.4487 1.02935 35.5313 1.06903 35.6121C1.10782 35.6923 1.15032 35.7724 1.19655 35.8466ZM3.55518 37.1767C3.00614 37.1771 2.46951 37.0125 2.01429 36.7039C1.90381 36.6302 1.79869 36.5486 1.69973 36.4598C1.79794 36.5493 1.90234 36.6315 2.01216 36.7061C2.46738 37.0146 3.00402 37.1793 3.55306 37.1788L3.55518 37.1767ZM30.506 38.9618C30.3078 38.8063 30.1123 38.6482 29.9215 38.4864C30.1123 38.6504 30.3078 38.8085 30.506 38.9639V38.9618ZM35.202 41.6934C35.2826 41.7201 35.3669 41.7334 35.4517 41.7329C35.4703 41.7329 35.4889 41.7329 35.5049 41.7329C35.4879 41.7329 35.4693 41.7329 35.4517 41.7329C35.366 41.7337 35.2808 41.7203 35.1994 41.6934H35.202ZM42.6663 36.9325C42.4382 37.1875 42.2016 37.4357 41.9565 37.6771C41.6292 37.9976 41.2864 38.3082 40.9283 38.6087C40.6594 38.833 40.3817 39.0508 40.0952 39.262C38.8525 40.1775 37.4425 40.9759 35.8651 41.6571C37.445 40.9734 38.855 40.175 40.0952 39.262C40.3814 39.0504 40.6591 38.8327 40.9283 38.6087C41.2864 38.3096 41.6292 37.9991 41.9565 37.6771C42.2019 37.4357 42.4386 37.1875 42.6663 36.9325C42.8179 36.7627 42.9658 36.5898 43.11 36.4139C42.9651 36.5898 42.8172 36.7627 42.6663 36.9325ZM44.9856 33.5471C44.8262 33.8569 44.6587 34.1596 44.483 34.4552C44.2481 34.8494 43.9981 35.2315 43.7327 35.6015C43.6003 35.7863 43.4639 35.9682 43.3236 36.1473C43.4653 35.9693 43.6017 35.7873 43.7327 35.6015C43.9984 35.2318 44.2485 34.8497 44.483 34.4552C44.6601 34.1593 44.8277 33.8566 44.9856 33.5471C45.1436 33.2377 45.2942 32.9207 45.4373 32.5963C45.2938 32.9207 45.1427 33.2377 44.9841 33.5471H44.9856ZM45.5765 32.27C45.7129 31.9413 45.8409 31.6053 45.9607 31.262C45.8402 31.605 45.7116 31.9409 45.5749 32.27H45.5765ZM46.4883 29.4849C46.3657 29.9746 46.2283 30.4517 46.076 30.9164C46.2283 30.4535 46.3657 29.9763 46.4883 29.4849C46.5496 29.2399 46.6071 28.9907 46.661 28.7371C46.6075 28.9903 46.5499 29.2396 46.4883 29.4849ZM47.2651 22.5015C47.2723 24.0696 47.1641 25.636 46.9415 27.1881C46.882 27.5855 46.8147 27.9756 46.7396 28.3584C46.8151 27.976 46.8824 27.5859 46.9415 27.1881C47.1641 25.6359 47.2723 24.0692 47.2651 22.501V22.5015Z" fill="#6C96F9"/>
<path d="M39.2379 26.1433V24.8448C39.237 24.1074 38.9453 23.4004 38.4266 22.8789C37.9079 22.3574 37.2047 22.064 36.4711 22.063H34.5503C33.8167 22.0638 33.1133 22.3572 32.5945 22.8787C32.0758 23.4002 31.7839 24.1073 31.7831 24.8448V26.1428C31.4474 26.3037 31.1637 26.5566 30.9647 26.8724C30.7656 27.1882 30.6592 27.5541 30.6577 27.9279V32.1434C30.6586 32.6692 30.8668 33.1731 31.2367 33.5447C31.6067 33.9163 32.1082 34.1252 32.6311 34.1256H38.3914C38.9144 34.1252 39.4159 33.9163 39.7858 33.5447C40.1558 33.1731 40.364 32.6692 40.3648 32.1434V27.9279C40.3629 27.554 40.2562 27.1883 40.0568 26.8726C39.8575 26.5569 39.5736 26.3042 39.2379 26.1433ZM39.47 26.6059C39.4318 26.5749 39.3925 26.545 39.351 26.5167C39.3925 26.5472 39.4318 26.5749 39.47 26.6059ZM38.9722 24.8432V26.3185V24.8448V24.8432ZM33.8633 25.9425V24.8448C33.8636 24.6618 33.9361 24.4863 34.0649 24.357C34.1937 24.2276 34.3683 24.1549 34.5503 24.1547H36.4706C36.6527 24.1549 36.8273 24.2276 36.9561 24.357C37.0849 24.4863 37.1574 24.6618 37.1576 24.8448V25.9441L33.8633 25.9425ZM37.2602 24.3075C37.2945 24.358 37.324 24.4117 37.3484 24.4677C37.3239 24.4122 37.2944 24.3591 37.2602 24.3091V24.3075ZM36.9244 24.0014C36.7851 23.9254 36.6291 23.8857 36.4706 23.886H34.5503C34.4253 23.886 34.3014 23.9107 34.1858 23.9587C34.0702 24.0068 33.9652 24.0773 33.8767 24.1662C33.7882 24.2551 33.7181 24.3606 33.6702 24.4768C33.6223 24.593 33.5976 24.7175 33.5976 24.8432V26.2096V24.8448C33.5978 24.5909 33.6982 24.3475 33.8769 24.168C34.0555 23.9885 34.2978 23.8876 34.5503 23.8876H36.4706C36.6291 23.8873 36.7851 23.927 36.9244 24.003V24.0014ZM37.4026 24.6504C37.4157 24.7138 37.4222 24.7784 37.4223 24.8432C37.4232 24.7791 37.4177 24.715 37.4058 24.652L37.4026 24.6504ZM32.7337 32.0323V28.0353H38.2825V32.0339L32.7337 32.0323ZM38.5471 32.1391V27.9279C38.5473 27.8958 38.5378 27.8643 38.52 27.8377C38.5053 27.8162 38.4856 27.7986 38.4627 27.7865C38.4397 27.7744 38.4142 27.7681 38.3882 27.7682H32.6274H38.3893C38.4152 27.7681 38.4408 27.7744 38.4637 27.7865C38.4867 27.7986 38.5064 27.8162 38.5211 27.8377C38.5389 27.8643 38.5483 27.8958 38.5482 27.9279L38.5471 32.1391ZM32.5057 32.2401C32.4952 32.2283 32.4866 32.215 32.4802 32.2006C32.4866 32.2166 32.4955 32.2314 32.5068 32.2444L32.5057 32.2401ZM37.503 22.5517C37.5386 22.5678 37.5737 22.5854 37.6093 22.6051C37.5747 22.5897 37.5397 22.572 37.5041 22.556L37.503 22.5517ZM30.9436 32.4046C30.9562 32.4887 30.9752 32.5718 31.0004 32.653C30.9746 32.5718 30.9551 32.4888 30.942 32.4046H30.9436ZM31.0918 32.8853C31.1278 32.9594 31.169 33.0308 31.2151 33.099C31.1685 33.0312 31.1268 32.9602 31.0902 32.8864L31.0918 32.8853ZM31.2629 33.1679C31.2961 33.2121 31.3316 33.2545 31.3692 33.295C31.3311 33.2554 31.2951 33.2139 31.2613 33.1706L31.2629 33.1679ZM31.4834 33.4115C31.5237 33.4493 31.5659 33.4849 31.6099 33.5183C31.5654 33.4853 31.5227 33.45 31.4818 33.4126L31.4834 33.4115ZM32.044 33.7507C31.9909 33.7314 31.9409 33.7095 31.891 33.6855C31.9409 33.7095 31.9919 33.7314 32.044 33.7507ZM39.3468 33.5642C39.4375 33.5026 39.5222 33.4325 39.5997 33.3549C39.5217 33.433 39.4365 33.5034 39.3452 33.5653L39.3468 33.5642ZM39.6565 33.2972C39.6941 33.2567 39.7296 33.2143 39.7628 33.17C39.7291 33.2139 39.6931 33.256 39.655 33.2961L39.6565 33.2972ZM39.8085 33.1027C39.855 33.0348 39.8962 32.9634 39.9318 32.8891C39.8956 32.963 39.8539 33.0341 39.8069 33.1017L39.8085 33.1027ZM40.0954 27.7917C40.0992 27.8371 40.1008 27.8825 40.1008 27.929C40.1008 27.8825 40.1008 27.8371 40.0954 27.7917C40.0883 27.7017 40.074 27.6124 40.0529 27.5246C40.0734 27.6121 40.0871 27.701 40.0938 27.7907L40.0954 27.7917Z" fill="#6C96F9"/>
<path d="M35.4871 28.4412C35.2117 28.4416 34.9477 28.5516 34.7529 28.7472C34.558 28.9428 34.4481 29.2081 34.4473 29.4849V30.3101C34.4534 30.5834 34.5657 30.8433 34.7601 31.0344C34.9545 31.2254 35.2155 31.3324 35.4874 31.3324C35.7592 31.3324 36.0203 31.2254 36.2147 31.0344C36.4091 30.8433 36.5213 30.5834 36.5275 30.3101V29.4849C36.5266 29.208 36.4167 28.9427 36.2217 28.747C36.0267 28.5514 35.7626 28.4414 35.4871 28.4412ZM34.7438 30.5286C34.7469 30.5398 34.7507 30.5516 34.7544 30.5628C34.7491 30.5532 34.7491 30.5398 34.7438 30.5286Z" fill="#6C96F9"/>
</g>
<defs>
<clipPath id="clip0_61_698">
<rect width="47" height="42" fill="white" transform="translate(0.530762)"/>
</clipPath>
</defs>
</svg>
