<svg width="51" height="37" viewBox="0 0 51 37" fill="none" xmlns="http://www.w3.org/2000/svg">
<path d="M4.84927 0.559814C3.56243 0.564108 2.32954 1.0712 1.41959 1.97044C0.509654 2.86969 -0.00346817 4.0881 -0.0078125 5.35981L-0.0078125 31.7598C-0.00346817 33.0315 0.509654 34.2499 1.41959 35.1492C2.32954 36.0484 3.56243 36.5555 4.84927 36.5598H46.1345C48.8044 36.5598 50.9922 34.3983 50.9922 31.7598V5.35981C50.9922 2.72133 48.8044 0.559814 46.1345 0.559814H4.84927ZM4.84927 2.95981H46.1345C46.4546 2.95559 46.7723 3.01478 47.0689 3.1339C47.3655 3.25302 47.6349 3.42964 47.8613 3.65335C48.0876 3.87705 48.2664 4.14331 48.3869 4.4364C48.5074 4.72949 48.5673 5.04347 48.5631 5.35981V31.7598C48.5673 32.0762 48.5074 32.3901 48.3869 32.6832C48.2664 32.9763 48.0876 33.2426 47.8613 33.4663C47.6349 33.69 47.3655 33.8666 47.0689 33.9857C46.7723 34.1048 46.4546 34.164 46.1345 34.1598H4.84927C4.52917 34.164 4.21145 34.1048 3.91488 33.9857C3.6183 33.8666 3.34888 33.69 3.12251 33.4663C2.89614 33.2426 2.71742 32.9763 2.59689 32.6832C2.47635 32.3901 2.41646 32.0762 2.42073 31.7598V5.35981C2.41654 5.04349 2.47649 4.72955 2.59705 4.43649C2.71761 4.14344 2.89634 3.87722 3.12269 3.65353C3.34904 3.42983 3.61843 3.25321 3.91497 3.13406C4.21151 3.01492 4.52919 2.95567 4.84927 2.95981ZM7.73339 7.14091C7.50344 7.16617 7.28558 7.25583 7.10546 7.39933C6.92533 7.54284 6.79044 7.73421 6.71667 7.95092C6.64289 8.16763 6.6333 8.40065 6.68902 8.62257C6.74475 8.84449 6.86346 9.04605 7.0312 9.20354L16.8607 18.7477L7.05121 27.88C6.81705 28.0989 6.68045 28.4007 6.67145 28.719C6.66246 29.0374 6.7818 29.3462 7.00324 29.5777C7.22467 29.8091 7.53006 29.9441 7.85221 29.9529C8.17436 29.9618 8.4869 29.8439 8.72105 29.6251L18.6047 20.4351L22.058 23.7914C23.9415 25.6156 27.0063 25.6121 28.8857 23.7914L32.3767 20.4177L42.2651 29.6245C42.4992 29.8432 42.8117 29.9611 43.1338 29.9522C43.4559 29.9432 43.7613 29.8082 43.9826 29.5768C44.204 29.3454 44.3232 29.0365 44.3142 28.7182C44.3051 28.3999 44.1685 28.0982 43.9343 27.8794L34.1048 18.7471L43.9526 9.20354C44.0696 9.09532 44.1639 8.96527 44.2298 8.82089C44.2958 8.67651 44.3321 8.52065 44.3368 8.36231C44.3415 8.20397 44.3144 8.04628 44.2571 7.89834C44.1999 7.75039 44.1135 7.61512 44.003 7.50032C43.8926 7.38552 43.7602 7.29347 43.6136 7.22948C43.467 7.16549 43.309 7.13082 43.1487 7.12747C42.9885 7.12412 42.8291 7.15217 42.6799 7.20998C42.5306 7.2678 42.3945 7.35424 42.2792 7.46432C42.2674 7.47537 42.2563 7.48584 42.2451 7.49748L27.1806 22.0662C26.723 22.5044 26.1108 22.7495 25.4736 22.7495C24.8365 22.7495 24.2243 22.5044 23.7667 22.0662L8.73871 7.49748C8.60965 7.36635 8.45201 7.26607 8.27779 7.20428C8.10357 7.14248 7.91737 7.12081 7.73339 7.14091Z" fill="#6C96F9"/>
<path d="M7.73343 7.1409C7.50348 7.16617 7.28562 7.25583 7.1055 7.39933C6.92537 7.54283 6.79048 7.7342 6.71671 7.95091C6.64293 8.16762 6.63334 8.40065 6.68906 8.62257C6.74479 8.84448 6.8635 9.04605 7.03124 9.20353L16.8608 18.7477L7.05125 27.88C6.81709 28.0989 6.68049 28.4007 6.67149 28.719C6.6625 29.0374 6.78184 29.3462 7.00328 29.5777C7.22471 29.8091 7.5301 29.9441 7.85225 29.9529C8.1744 29.9618 8.48694 29.8439 8.72109 29.6251L18.6048 20.4351L22.0581 23.7914C23.9416 25.6156 27.0064 25.6121 28.8858 23.7914L32.3767 20.4177L42.2651 29.6245C42.4993 29.8432 42.8118 29.9611 43.1339 29.9522C43.456 29.9432 43.7613 29.8082 43.9826 29.5768C44.204 29.3454 44.3233 29.0365 44.3142 28.7182C44.3052 28.3999 44.1685 28.0982 43.9344 27.8794L34.1048 18.7471L43.9526 9.20353C44.0697 9.09532 44.1639 8.96527 44.2299 8.82089C44.2958 8.6765 44.3322 8.52065 44.3369 8.36231C44.3415 8.20397 44.3145 8.04628 44.2572 7.89833C44.1999 7.75039 44.1135 7.61511 44.0031 7.50032C43.8926 7.38552 43.7603 7.29347 43.6136 7.22947C43.467 7.16548 43.309 7.13081 43.1488 7.12747C42.9885 7.12412 42.8292 7.15216 42.6799 7.20998C42.5307 7.26779 42.3945 7.35423 42.2793 7.46432C42.2675 7.47537 42.2563 7.48584 42.2451 7.49747L27.1806 22.0662C26.7231 22.5044 26.1109 22.7495 25.4737 22.7495C24.8365 22.7495 24.2243 22.5044 23.7668 22.0662L8.73875 7.49747C8.60969 7.36635 8.45205 7.26606 8.27783 7.20427C8.10361 7.14248 7.91741 7.1208 7.73343 7.1409Z" fill="#6C96F9"/>
</svg>
