<svg width="38" height="54" viewBox="0 0 38 54" fill="none" xmlns="http://www.w3.org/2000/svg">
<g clip-path="url(#clip0_61_659)">
<path d="M4.13841 27.4351C4.10846 27.7314 3.96345 28.0041 3.7346 28.1946C3.50574 28.385 3.21132 28.478 2.91468 28.4534C2.61805 28.4288 2.34291 28.2887 2.14847 28.0632C1.95403 27.8376 1.85583 27.5448 1.875 27.2475L2.24109 22.9577C2.25569 22.7834 2.31016 22.6149 2.40029 22.465C2.49042 22.3152 2.6138 22.1882 2.76087 22.0937L11.7495 15.4414C11.0623 12.812 10.6487 10.3495 10.7687 8.20893C10.8936 5.98399 11.5871 4.11476 12.5804 2.73379C13.7443 1.12088 15.3305 0.155005 16.9436 0.0174695C18.4748 -0.113814 19.9879 0.503843 21.1992 1.56724C22.4394 2.66503 23.2956 4.13136 23.6426 5.75143C24.2173 8.54464 23.1253 11.5535 21.8721 14.5799L33.692 20.659C33.8536 20.7417 33.993 20.8621 34.0984 21.0099C34.2039 21.1577 34.2723 21.3288 34.298 21.5086L37.9727 47.0744C38.0901 47.8922 37.8259 48.6955 37.2936 49.325C36.7637 49.935 36.0393 50.343 35.2432 50.4797L29.6912 51.4818C29.545 51.5081 29.3949 51.5052 29.2498 51.4734C29.1046 51.4416 28.9671 51.3815 28.8451 51.2966C28.7232 51.2116 28.6191 51.1035 28.5389 50.9783C28.4587 50.8531 28.4039 50.7133 28.3777 50.5669C28.3515 50.4205 28.3544 50.2704 28.3861 50.1251C28.4179 49.9799 28.4779 49.8423 28.5628 49.7202C28.6477 49.5982 28.7558 49.494 28.8809 49.4138C29.0061 49.3335 29.1457 49.2787 29.292 49.2525L34.844 48.2466C35.121 48.2022 35.3745 48.0643 35.5625 47.8559C35.6874 47.7115 35.7499 47.5433 35.7268 47.392L32.1346 22.41L22.1719 17.2837L28.9615 24.3931C29.0714 24.5092 29.1556 24.6471 29.2087 24.7979C29.2619 24.9486 29.2828 25.1089 29.2702 25.2683L27.0399 51.3643C26.9686 52.2083 26.5032 52.9272 25.8085 53.4029L25.746 53.4404C25.0803 53.8663 24.292 54.0585 23.5051 53.9868L3.04513 52.2326C2.23177 52.1688 1.46526 51.8264 0.874804 51.263C0.275685 50.6785 -0.0622957 49.8945 0.00954858 49.055L1.12782 35.9948C1.13754 35.8441 1.17716 35.6968 1.24437 35.5617C1.31159 35.4265 1.40504 35.3061 1.51929 35.2074C1.63353 35.1088 1.76627 35.0339 1.90975 34.9872C2.05323 34.9405 2.20458 34.9228 2.35495 34.9353C2.50533 34.9477 2.65171 34.9901 2.78556 35.0598C2.9194 35.1295 3.03803 35.2252 3.1345 35.3413C3.23098 35.4574 3.30337 35.5915 3.34745 35.7359C3.39153 35.8803 3.40641 36.0321 3.39123 36.1823L2.27296 49.2419C2.26171 49.375 2.33543 49.5194 2.45475 49.637C2.66841 49.8322 2.94249 49.9483 3.2313 49.9658L23.7025 51.7163C23.9759 51.7476 24.2521 51.6895 24.4897 51.5506L24.5253 51.5243C24.6653 51.4268 24.7608 51.3024 24.7715 51.1736L26.9624 25.5815L16.5606 14.695L14.3459 16.3335C14.6964 17.5344 15.0956 18.7716 15.5179 20.0282H15.6172C16.3383 20.0271 17.0523 20.1688 17.7184 20.4451C18.3844 20.7214 18.9893 21.1268 19.4981 21.638L19.5606 21.7067C20.3669 22.5432 20.8869 23.6144 21.0454 24.7657C21.204 25.9171 20.9929 27.0891 20.4427 28.1126C19.8925 29.1362 19.0316 29.9584 17.9842 30.4606C16.9368 30.9628 15.757 31.119 14.6151 30.9068C13.4732 30.6946 12.4282 30.1248 11.6309 29.2797C10.8335 28.4347 10.325 27.358 10.1788 26.205C10.0326 25.052 10.2561 23.8824 10.8172 22.8648C11.3784 21.8472 12.248 21.0343 13.3007 20.5433C12.9884 19.6112 12.6885 18.6828 12.4111 17.7726L4.46327 23.656L4.13841 27.4351ZM13.7174 13.9816L15.9627 12.3187C16.3376 12.0255 16.7618 11.9786 17.2078 12.1812L19.8417 13.5353C20.9287 10.8884 21.8521 8.30208 21.4191 6.20404C21.1758 5.06887 20.5754 4.04155 19.7061 3.27267C18.9408 2.6 18.0193 2.2049 17.1279 2.28242C16.1689 2.36494 15.1837 2.9951 14.4184 4.05662C13.6531 5.11814 13.1296 6.56414 13.0296 8.33334C12.9384 9.98063 13.217 11.9011 13.7168 13.9816H13.7174ZM16.693 23.4434C16.7435 23.5855 16.765 23.7362 16.7564 23.8867C16.7479 24.0372 16.7094 24.1845 16.6431 24.32C16.5769 24.4554 16.4843 24.5762 16.3708 24.6753C16.2573 24.7745 16.1252 24.8499 15.9821 24.8972C15.8391 24.9446 15.6881 24.9629 15.5379 24.951C15.3877 24.9391 15.2414 24.8974 15.1075 24.8282C14.9737 24.7589 14.855 24.6637 14.7584 24.548C14.6619 24.4322 14.5894 24.2984 14.5452 24.1542L14.0454 22.7164C13.789 22.8607 13.5532 23.039 13.3445 23.2465C12.8978 23.6948 12.5933 24.2651 12.469 24.8858C12.3447 25.5065 12.4062 26.1502 12.6458 26.7361C12.8853 27.322 13.2923 27.8242 13.8158 28.1797C14.3392 28.5352 14.9559 28.7283 15.5885 28.7347C16.2211 28.7412 16.8415 28.5607 17.3721 28.2159C17.9027 27.8712 18.3198 27.3774 18.5713 26.7965C18.8227 26.2156 18.8973 25.5733 18.7857 24.9502C18.674 24.3271 18.3812 23.7507 17.9438 23.2934L17.8932 23.2465C17.4623 22.8146 16.9176 22.5143 16.3226 22.3807L16.6805 23.4078L16.6912 23.4434H16.693ZM3.75857 31.8831C3.72862 32.1794 3.58362 32.4522 3.35476 32.6426C3.1259 32.833 2.83148 32.926 2.53484 32.9014C2.23821 32.8768 1.96307 32.7367 1.76864 32.5112C1.5742 32.2857 1.476 31.9928 1.49516 31.6955L1.50891 31.5449C1.53376 31.2446 1.6768 30.9665 1.90655 30.7718C2.1363 30.577 2.43394 30.4816 2.73401 30.5065C3.03407 30.5314 3.31197 30.6745 3.50658 30.9044C3.70118 31.1343 3.79654 31.4321 3.77169 31.7324L3.75857 31.8831Z" fill="#6C96F9"/>
</g>
<defs>
<clipPath id="clip0_61_659">
<rect width="38" height="54" fill="white"/>
</clipPath>
</defs>
</svg>
