<svg width="43" height="49" viewBox="0 0 43 49" fill="none" xmlns="http://www.w3.org/2000/svg">
<g clip-path="url(#clip0_61_665)">
<path d="M37.0791 37.9628C37.4455 37.9628 37.8119 37.978 38.1783 37.9427C38.9208 37.8814 39.642 37.6753 40.2969 37.3373C40.9087 37.0111 41.446 36.5724 41.8772 36.0466C42.3085 35.5209 42.6251 34.9187 42.8085 34.2754C43.0899 33.2463 42.9784 32.0861 42.9784 31.0318V22.7741C42.9784 20.4738 41.3111 18.3299 38.8898 17.8558C38.3535 17.7498 37.8225 17.7397 37.2756 17.7397C36.6968 17.7397 36.1074 17.7902 35.5552 17.9567C34.2277 18.3602 33.0489 19.2632 32.4383 20.4637C32.0618 21.206 31.871 22.0208 31.8807 22.8447V32.7469C31.8807 33.4027 31.9444 34.0685 32.194 34.684C32.6931 35.9148 33.6489 36.9741 34.9392 37.5088C35.6113 37.8005 36.3403 37.9552 37.0791 37.9628C37.6366 37.9679 38.1676 37.4937 38.1411 36.9539C38.1145 36.4041 37.6738 35.9501 37.0791 35.9451C36.9304 35.9451 36.7871 35.935 36.6384 35.9249C36.3835 35.9047 36.8826 35.9753 36.6331 35.9198C36.564 35.9047 36.495 35.8946 36.4207 35.8795C36.2826 35.8492 36.1446 35.8089 36.0118 35.7685C35.9853 35.7584 35.826 35.7231 35.8154 35.6979C35.9587 35.7584 35.98 35.7635 35.8738 35.7181L35.7463 35.6575C35.6242 35.597 35.5021 35.5314 35.3853 35.4608C35.3268 35.4255 35.2684 35.3851 35.2153 35.3498C35.0136 35.2237 35.3906 35.4961 35.21 35.3498C35.001 35.179 34.8058 34.9935 34.6259 34.7949C34.4666 34.6234 34.7587 34.9816 34.6259 34.7899C34.5888 34.7344 34.5463 34.684 34.5091 34.6285C34.4348 34.5175 34.3658 34.4015 34.302 34.2854C34.2914 34.2653 34.2011 34.124 34.2118 34.1039C34.2277 34.1442 34.2489 34.1846 34.2649 34.2199C34.2489 34.1795 34.233 34.1392 34.2118 34.0938C34.1528 33.9458 34.1049 33.7941 34.0684 33.6398C34.0525 33.5742 34.0418 33.5086 34.0259 33.438C33.9728 33.211 34.0418 33.6196 34.0259 33.4683C34.0153 33.3421 33.9994 33.216 33.9994 33.0849V30.0027C33.9994 27.5612 33.9781 25.1248 33.9994 22.6833C33.9994 22.6127 33.9994 22.542 34.0047 22.4714C34.01 22.4159 34.0153 22.3554 34.0206 22.2999C34.0418 22.088 33.9994 22.3201 34.0153 22.3302C33.9781 22.31 34.1905 21.518 34.2649 21.4878C34.2489 21.5281 34.2277 21.5685 34.2118 21.6038C34.233 21.5634 34.2489 21.5231 34.2702 21.4827C34.302 21.4222 34.3339 21.3616 34.3658 21.3062C34.4348 21.1901 34.5038 21.0792 34.5835 20.9682C34.5994 20.948 34.61 20.9329 34.6259 20.9127C34.695 20.8269 34.679 20.8421 34.5835 20.9581C34.5835 20.9278 34.695 20.832 34.7162 20.8068C34.8171 20.7008 34.918 20.5999 35.0295 20.499C35.072 20.4637 35.1144 20.4234 35.1569 20.3881C35.1733 20.3731 35.1911 20.3596 35.21 20.3477C35.3003 20.2821 35.2844 20.2922 35.1569 20.383C35.1569 20.3326 35.4596 20.1913 35.5021 20.1661C35.6242 20.1005 35.7463 20.04 35.8738 19.9795C36.0915 19.8735 35.6454 20.0551 35.8791 19.9795C35.9693 19.9492 36.0543 19.9189 36.1446 19.8937C36.2826 19.8534 36.4207 19.8231 36.5587 19.7928C36.5813 19.787 36.6044 19.7836 36.6278 19.7827C36.7446 19.7626 36.7233 19.7676 36.5587 19.7878C36.5906 19.7626 36.734 19.7726 36.7764 19.7676C36.957 19.7575 37.1375 19.7575 37.3127 19.7575H37.7641C37.9128 19.7575 38.0561 19.7676 38.2048 19.7777C38.4597 19.7979 37.9605 19.7272 38.2101 19.7827C38.3057 19.8029 38.396 19.818 38.4915 19.8382C38.6285 19.8709 38.7632 19.9114 38.8951 19.9593C38.9163 19.9643 39.0225 19.9946 39.0278 20.0097C38.9854 19.9946 38.9429 19.9744 38.9057 19.9593C38.9482 19.9795 38.9907 19.9946 39.0331 20.0148C39.1597 20.0707 39.2821 20.1347 39.3995 20.2065L39.5748 20.3124L39.6863 20.3881C39.5641 20.2973 39.5482 20.2821 39.6332 20.3528C39.8409 20.5249 40.0361 20.7103 40.2172 20.9076C40.3765 21.0792 40.0845 20.721 40.2172 20.9127C40.2544 20.9682 40.2969 21.0186 40.3341 21.0741C40.4084 21.1851 40.4774 21.3011 40.5412 21.4171C40.5518 21.4373 40.642 21.5786 40.6314 21.5987C40.6155 21.5584 40.5942 21.518 40.5783 21.4827C40.5942 21.5231 40.6102 21.5634 40.6314 21.6088C40.6792 21.7349 40.7217 21.8661 40.7589 21.9922L40.8066 22.1889C40.8128 22.2103 40.8163 22.2323 40.8173 22.2545C40.8385 22.3655 40.8332 22.3453 40.812 22.1889C40.881 22.2646 40.8438 22.5773 40.8438 22.6732C40.8651 25.0693 40.8438 27.4603 40.8438 29.8564V33.1505C40.844 33.2197 40.8387 33.2888 40.8279 33.3573L40.812 33.4935C40.8332 33.3371 40.8385 33.3169 40.8173 33.4279C40.7854 33.5591 40.7589 33.6953 40.7217 33.8264C40.7004 33.8869 40.642 34.1795 40.5836 34.2047C40.5996 34.1644 40.6208 34.124 40.6367 34.0887C40.6155 34.1291 40.5996 34.1694 40.5783 34.2098C40.5571 34.2501 40.5358 34.2905 40.5146 34.3258C40.4398 34.4627 40.3546 34.5942 40.2597 34.7193C40.2438 34.7394 40.2332 34.7546 40.2172 34.7748C40.1482 34.8605 40.1641 34.8454 40.2597 34.7294C40.2597 34.7596 40.1482 34.8555 40.127 34.8807C40.0369 34.9797 39.9412 35.074 39.8402 35.1632C39.7871 35.2086 39.7394 35.254 39.6863 35.2943C39.6699 35.3093 39.6521 35.3228 39.6332 35.3347C39.5429 35.4003 39.5588 35.3902 39.6863 35.2994C39.6863 35.3549 39.3358 35.5213 39.2774 35.5516C39.2296 35.5768 38.9429 35.7534 38.9057 35.7332C38.9163 35.7382 39.1181 35.6575 38.9641 35.708C38.8951 35.7282 38.8314 35.7534 38.7623 35.7736C38.6296 35.8139 38.4915 35.8492 38.3482 35.8795C38.3322 35.8845 38.1411 35.9249 38.1358 35.9148C38.3004 35.8946 38.3216 35.8946 38.2048 35.9047C38.1572 35.9106 38.1094 35.9139 38.0614 35.9148C37.7322 35.935 37.403 35.9249 37.0738 35.9249C36.5163 35.9249 35.9853 36.389 36.0118 36.9338C36.0384 37.4987 36.4791 37.9628 37.0791 37.9628Z" fill="#6C96F9"/>
<path d="M5.19825 37.9628C5.56463 37.9628 5.93101 37.978 6.29739 37.9427C7.0399 37.8814 7.76113 37.6753 8.41604 37.3373C9.02788 37.0111 9.56514 36.5724 9.99638 36.0466C10.4276 35.5209 10.7442 34.9187 10.9276 34.2754C11.209 33.2463 11.0975 32.0861 11.0975 31.0318V22.7741C11.0975 20.4738 9.43023 18.3299 7.00892 17.8558C6.47262 17.7498 5.94163 17.7397 5.39471 17.7397C4.81593 17.7397 4.22654 17.7902 3.67431 17.9567C2.34684 18.3602 1.16804 19.2632 0.557404 20.4637C0.180949 21.206 -0.00986139 22.0208 -0.000134201 22.8447V32.7469C-0.000134201 33.4027 0.0635845 34.0685 0.313149 34.684C0.812279 35.9148 1.76806 36.9741 3.05836 37.5088C3.73043 37.8005 4.4594 37.9552 5.19825 37.9628C5.75578 37.9679 6.28677 37.4937 6.26022 36.9539C6.23367 36.4041 5.79295 35.9501 5.19825 35.9451C5.04957 35.9451 4.9062 35.935 4.75752 35.9249C4.50265 35.9047 5.00178 35.9753 4.75222 35.9198C4.68319 35.9047 4.61416 35.8946 4.53982 35.8795C4.40176 35.8492 4.26371 35.8089 4.13096 35.7685C4.10441 35.7584 3.94511 35.7231 3.93449 35.6979C4.07786 35.7584 4.0991 35.7635 3.9929 35.7181L3.86546 35.6575C3.74334 35.597 3.62121 35.5314 3.50439 35.4608C3.44598 35.4255 3.38757 35.3851 3.33448 35.3498C3.1327 35.2237 3.5097 35.4961 3.32917 35.3498C3.12014 35.179 2.9249 34.9935 2.74508 34.7949C2.58578 34.6234 2.87783 34.9816 2.74508 34.7899C2.70791 34.7344 2.66543 34.684 2.62826 34.6285C2.55392 34.5175 2.48489 34.4015 2.42117 34.2854C2.41055 34.2653 2.32029 34.124 2.33091 34.1039C2.34684 34.1442 2.36808 34.1846 2.38401 34.2199C2.36808 34.1795 2.35215 34.1392 2.33091 34.0938C2.27197 33.9458 2.22407 33.7941 2.18754 33.6398C2.17161 33.5742 2.16099 33.5086 2.14506 33.438C2.09196 33.211 2.16099 33.6196 2.14506 33.4683C2.13444 33.3421 2.11851 33.216 2.11851 33.0849V30.0027C2.11851 27.5612 2.09727 25.1248 2.11851 22.6833C2.11851 22.6127 2.11851 22.542 2.12382 22.4714C2.12913 22.4159 2.13444 22.3554 2.13975 22.2999C2.16099 22.088 2.11851 22.3201 2.13444 22.3302C2.09727 22.31 2.30967 21.518 2.38401 21.4878C2.36808 21.5281 2.34684 21.5685 2.33091 21.6038C2.35215 21.5634 2.36808 21.5231 2.38932 21.4827C2.42117 21.4222 2.45303 21.3616 2.48489 21.3062C2.55392 21.1901 2.62295 21.0792 2.7026 20.9682C2.71853 20.948 2.72915 20.9329 2.74508 20.9127C2.81411 20.8269 2.79818 20.8421 2.7026 20.9581C2.7026 20.9278 2.81411 20.832 2.83535 20.8068C2.93623 20.7008 3.03712 20.5999 3.14863 20.499C3.19111 20.4637 3.23359 20.4234 3.27607 20.3881C3.29243 20.3731 3.3102 20.3596 3.32917 20.3477C3.41943 20.2821 3.4035 20.2922 3.27607 20.383C3.27607 20.3326 3.57873 20.1913 3.62121 20.1661C3.74334 20.1005 3.86546 20.04 3.9929 19.9795C4.21061 19.8735 3.76458 20.0551 3.99821 19.9795C4.08848 19.9492 4.17344 19.9189 4.26371 19.8937C4.40176 19.8534 4.53982 19.8231 4.67788 19.7928C4.70041 19.787 4.72357 19.7836 4.74691 19.7827C4.86372 19.7626 4.84248 19.7676 4.67788 19.7878C4.70974 19.7626 4.8531 19.7726 4.89558 19.7676C5.07612 19.7575 5.25665 19.7575 5.43188 19.7575H5.88322C6.0319 19.7575 6.17526 19.7676 6.32394 19.7777C6.57882 19.7979 6.07969 19.7272 6.32925 19.7827C6.42483 19.8029 6.5151 19.818 6.61068 19.8382C6.7476 19.8709 6.88236 19.9114 7.01423 19.9593C7.03547 19.9643 7.14166 19.9946 7.14698 20.0097C7.1045 19.9946 7.06202 19.9744 7.02485 19.9593C7.06733 19.9795 7.10981 19.9946 7.15228 20.0148C7.27887 20.0707 7.40128 20.1347 7.51867 20.2065L7.69389 20.3124L7.8054 20.3881C7.68327 20.2973 7.66734 20.2821 7.7523 20.3528C7.96005 20.5249 8.15519 20.7103 8.33639 20.9076C8.49569 21.0792 8.20364 20.721 8.33639 20.9127C8.37356 20.9682 8.41604 21.0186 8.45321 21.0741C8.52754 21.1851 8.59657 21.3011 8.66029 21.4171C8.67091 21.4373 8.76118 21.5786 8.75056 21.5987C8.73463 21.5584 8.71339 21.518 8.69746 21.4827C8.71339 21.5231 8.72932 21.5634 8.75056 21.6088C8.79835 21.7349 8.84083 21.8661 8.878 21.9922L8.92579 22.1889C8.93191 22.2103 8.93547 22.2323 8.93641 22.2545C8.95765 22.3655 8.95234 22.3453 8.9311 22.1889C9.00012 22.2646 8.96296 22.5773 8.96296 22.6732C8.9842 25.0693 8.96296 27.4603 8.96296 29.8564V33.1505C8.96313 33.2197 8.9578 33.2888 8.94703 33.3573L8.9311 33.4935C8.95234 33.3371 8.95765 33.3169 8.93641 33.4279C8.90455 33.5591 8.878 33.6953 8.84083 33.8264C8.81959 33.8869 8.76118 34.1795 8.70277 34.2047C8.7187 34.1644 8.73994 34.124 8.75587 34.0887C8.73463 34.1291 8.7187 34.1694 8.69746 34.2098C8.67622 34.2501 8.65498 34.2905 8.63374 34.3258C8.55897 34.4627 8.47379 34.5942 8.37887 34.7193C8.36294 34.7394 8.35232 34.7546 8.33639 34.7748C8.26736 34.8605 8.28329 34.8454 8.37887 34.7294C8.37887 34.7596 8.26736 34.8555 8.24612 34.8807C8.15602 34.9797 8.0603 35.074 7.95939 35.1632C7.90629 35.2086 7.8585 35.254 7.8054 35.2943C7.78904 35.3093 7.77126 35.3228 7.7523 35.3347C7.66203 35.4003 7.67796 35.3902 7.8054 35.2994C7.8054 35.3549 7.45495 35.5213 7.39654 35.5516C7.34875 35.5768 7.06202 35.7534 7.02485 35.7332C7.03547 35.7382 7.23724 35.6575 7.08326 35.708C7.01423 35.7282 6.95051 35.7534 6.88148 35.7736C6.74873 35.8139 6.61068 35.8492 6.46731 35.8795C6.45138 35.8845 6.26022 35.9249 6.25491 35.9148C6.41952 35.8946 6.44076 35.8946 6.32394 35.9047C6.27638 35.9106 6.22852 35.9139 6.18057 35.9148C5.85136 35.935 5.52215 35.9249 5.19294 35.9249C4.6354 35.9249 4.10441 36.389 4.13096 36.9338C4.16282 37.4987 4.60354 37.9628 5.19825 37.9628Z" fill="#6C96F9"/>
<path d="M2.11883 32.6913V20.4334C2.11883 20.1358 2.12414 19.8331 2.14007 19.5355C2.156 19.2379 2.17724 18.9251 2.20379 18.6225C2.21972 18.4812 2.23034 18.345 2.24627 18.2038C2.25689 18.1331 2.2622 18.0676 2.27282 17.9969L2.28875 17.891C2.30468 17.7498 2.25689 18.0928 2.27813 17.9515C2.45219 16.8095 2.72933 15.6838 3.10647 14.5869C3.20205 14.3196 3.29763 14.0522 3.40383 13.7899C3.45693 13.6638 3.50471 13.5377 3.55781 13.4116C3.58436 13.351 3.61091 13.2855 3.63746 13.2249C3.68525 13.119 3.60029 13.3107 3.60029 13.3107C3.62153 13.2703 3.63746 13.23 3.6587 13.1846C3.89765 12.6599 4.16314 12.1505 4.44987 11.646C4.7313 11.1567 5.03396 10.6825 5.35787 10.2184C5.51716 9.98641 5.68708 9.75941 5.857 9.53241C5.94195 9.42647 6.0216 9.3155 6.10656 9.20956C6.1278 9.18434 6.14904 9.15912 6.17028 9.12885C6.23931 9.03805 6.11187 9.20452 6.11187 9.19948C6.14373 9.1339 6.21807 9.07337 6.26586 9.01788C7.00146 8.14253 7.81511 7.32905 8.69779 6.58646C8.91549 6.40487 9.1385 6.22327 9.36683 6.04671C9.47303 5.966 9.59516 5.83485 9.72259 5.77936C9.72259 5.77936 9.55268 5.90042 9.64825 5.83485C9.6748 5.81467 9.70135 5.79449 9.73321 5.77431L9.92968 5.63307C10.4023 5.30518 10.8855 4.99243 11.3846 4.69985C11.8943 4.40223 12.42 4.12479 12.9563 3.87257C13.2218 3.74645 13.4873 3.62539 13.7528 3.51441C13.8165 3.48919 13.8802 3.45892 13.9493 3.4337C13.9811 3.41857 14.013 3.40848 14.0448 3.39335C14.0448 3.39335 13.8431 3.47406 13.9546 3.42866L14.3847 3.26219C15.5091 2.84291 16.6715 2.52209 17.8573 2.30375C18.1547 2.24826 18.452 2.19782 18.7547 2.15746C18.8291 2.14737 18.8981 2.14233 18.9724 2.1272C18.9724 2.1272 18.7494 2.15242 18.8715 2.14233L18.983 2.1272C19.1423 2.10702 19.3016 2.09188 19.4556 2.07675C20.0822 2.01622 20.7141 1.98595 21.3459 1.98091C21.9406 1.97586 22.5354 1.99604 23.1301 2.04144C23.438 2.06666 23.7407 2.09693 24.0434 2.13224L24.1549 2.14737C24.1549 2.14737 23.9319 2.11711 24.054 2.13728L24.2717 2.16755C24.4416 2.19277 24.6062 2.21799 24.7761 2.24826C25.956 2.44665 27.1147 2.74548 28.2382 3.14112C28.3709 3.18652 28.5037 3.23697 28.6364 3.28741C28.7161 3.31768 28.7904 3.34795 28.8647 3.37317C28.9072 3.3883 29.1409 3.48919 28.9975 3.42361C28.8541 3.35803 29.0612 3.44883 29.0984 3.46397C29.1621 3.48919 29.2258 3.51946 29.2948 3.54468C29.4329 3.60521 29.571 3.66574 29.7143 3.72628C30.2453 3.96841 30.7657 4.23072 31.2701 4.51321C31.7852 4.80074 32.2843 5.10845 32.7728 5.44138C32.8896 5.51705 33.0011 5.59776 33.1126 5.67847C33.1711 5.71882 33.2242 5.75918 33.2826 5.79953C33.3091 5.81971 33.341 5.83989 33.3675 5.86007C33.3304 5.82476 33.2082 5.74405 33.3197 5.82476C33.5481 5.99627 33.7764 6.17282 33.9994 6.34938C34.8967 7.07733 35.7263 7.8773 36.4791 8.74043C36.5694 8.84132 36.6543 8.94725 36.7446 9.04814C36.7932 9.09549 36.836 9.14795 36.8721 9.20452C36.8721 9.20452 36.7446 9.0431 36.8136 9.1339C36.8402 9.16921 36.8721 9.20452 36.8986 9.23983C37.0738 9.46179 37.2437 9.68878 37.4137 9.91578C37.7535 10.3849 38.0721 10.8641 38.3641 11.3585C38.6562 11.8428 38.9217 12.3422 39.1712 12.8516C39.2296 12.9727 39.288 13.0988 39.3465 13.2199C39.3624 13.2501 39.373 13.2804 39.3889 13.3107C39.3889 13.3107 39.304 13.119 39.3518 13.2249C39.3836 13.2955 39.4155 13.3712 39.4473 13.4418C39.5642 13.7142 39.6704 13.9866 39.7712 14.2641C40.1741 15.3511 40.4727 16.4704 40.6633 17.6085C40.6739 17.6791 40.6846 17.7447 40.6952 17.8153C40.7005 17.8557 40.7376 18.0777 40.7111 17.9213C40.6846 17.7649 40.7217 17.9919 40.727 18.0272L40.7589 18.2693C40.7907 18.5619 40.8173 18.8495 40.8385 19.142C40.8651 19.5607 40.881 19.9744 40.881 20.393V33.9625C40.881 34.7091 40.9129 35.4607 40.8598 36.2073C40.8492 36.3486 40.8385 36.4848 40.8226 36.626C40.8173 36.6714 40.7695 36.8833 40.812 36.7319C40.8545 36.5806 40.7961 36.8227 40.7854 36.8732C40.7375 37.1553 40.6737 37.4349 40.5943 37.7105C40.5146 37.993 40.4191 38.2755 40.3129 38.5479C40.2863 38.6135 40.2651 38.674 40.2385 38.7346C40.223 38.7653 40.2105 38.7974 40.2013 38.8304C40.2013 38.8304 40.2863 38.6438 40.2385 38.7447C40.1748 38.8758 40.1164 39.012 40.0474 39.1381C39.7901 39.6371 39.4862 40.1132 39.1394 40.5606C39.1181 40.5859 39.0969 40.6111 39.0757 40.6414C39.0066 40.7322 39.1394 40.5657 39.1341 40.5707C39.0974 40.6283 39.0528 40.6809 39.0013 40.7271C38.9004 40.8482 38.7942 40.9642 38.6827 41.0802C38.4863 41.287 38.2845 41.4838 38.0721 41.6704C37.8809 41.8419 37.6473 42.0992 37.4083 42.2102C37.403 42.2102 37.5836 42.0891 37.4827 42.1547C37.4561 42.1749 37.4243 42.195 37.3977 42.2152L37.2278 42.3312C37.1057 42.4119 36.9782 42.4927 36.8508 42.5734C36.6056 42.7239 36.3521 42.862 36.0915 42.987C35.9534 43.0526 35.8207 43.1182 35.6773 43.1787C35.6136 43.209 35.5499 43.2342 35.4862 43.2594C35.38 43.3048 35.5764 43.2241 35.5764 43.2241C35.5313 43.2387 35.487 43.2556 35.4437 43.2745C34.8879 43.4805 34.3139 43.6392 33.7286 43.7487C33.5905 43.7739 33.4366 43.779 33.2985 43.8193C33.2985 43.8193 33.5215 43.7941 33.3994 43.8042C33.3625 43.8101 33.3253 43.8134 33.2879 43.8143C33.2029 43.8244 33.118 43.8294 33.033 43.8395C32.7516 43.8647 32.4648 43.8748 32.1781 43.8748C30.8453 43.8799 29.5072 43.8748 28.1745 43.8748H26.8576C26.3001 43.8748 25.7691 44.3389 25.7956 44.8837C25.8222 45.4285 26.2629 45.8926 26.8576 45.8926H30.8878C31.3922 45.8926 31.902 45.9027 32.4064 45.8926C33.7094 45.8682 34.9965 45.6156 36.203 45.1475C38.619 44.1992 40.6686 42.4639 41.8421 40.2292C42.6545 38.6806 42.9997 37.0311 42.9997 35.3109V20.4082C42.9944 18.0726 42.5802 15.7219 41.7359 13.5276C40.8621 11.2537 39.5773 9.142 37.9393 7.28764C36.3546 5.49107 34.456 3.96724 32.3268 2.78297C30.1515 1.56738 27.7654 0.73034 25.2806 0.311204C22.6773 -0.121944 20.0129 -0.103144 17.4166 0.366692C12.4968 1.28164 8.06912 3.8033 4.90122 7.49446C3.27903 9.38038 2.01742 11.5219 1.17367 13.8217C0.405565 15.9484 0.0143968 18.1815 0.0161189 20.4299V32.708C0.0161189 33.2377 0.504629 33.7421 1.0781 33.7169C1.63032 33.6765 2.11883 33.2578 2.11883 32.6929V32.6913Z" fill="#6C96F9"/>
<path d="M25.774 44.8787C25.774 44.9493 25.774 45.02 25.7687 45.0906C25.7687 45.1158 25.7634 45.136 25.7634 45.1612C25.7527 45.2722 25.7527 45.252 25.774 45.0956C25.7952 45.1057 25.7103 45.3983 25.6996 45.4286C25.689 45.4588 25.62 45.7413 25.5881 45.7464C25.6041 45.706 25.6253 45.6657 25.6412 45.6303C25.62 45.6707 25.6041 45.7111 25.5828 45.7514C25.551 45.8119 25.5191 45.8674 25.4819 45.928C25.4448 45.9885 25.4129 46.0389 25.3704 46.0944C25.3598 46.1146 25.3439 46.1297 25.3333 46.1499C25.2802 46.2205 25.2802 46.2205 25.3333 46.155C25.3492 46.1398 25.3598 46.1197 25.3757 46.1045C25.3492 46.1398 25.3173 46.1701 25.2855 46.2054L25.1474 46.3517C25.0678 46.4324 24.9775 46.503 24.8925 46.5737C24.7226 46.7149 25.0465 46.4929 24.9138 46.5535C24.8447 46.5888 24.781 46.6392 24.712 46.6796C24.6111 46.7351 24.5102 46.7855 24.404 46.836C24.1863 46.9419 24.6323 46.7653 24.3987 46.836C24.3428 46.8514 24.2878 46.8699 24.2341 46.8915C24.1067 46.9268 23.9845 46.952 23.8518 46.9772C23.6447 47.0226 23.9208 46.9671 23.9208 46.9722C23.9102 46.9974 23.6606 46.9923 23.6288 46.9923C23.4695 46.9974 23.3155 46.9923 23.1562 46.9923H19.9065C19.8322 46.9923 19.7632 46.9823 19.6888 46.9823C19.6092 46.9722 19.6304 46.9772 19.7579 46.9923L19.5933 46.9636C19.4568 46.9353 19.3221 46.9 19.1897 46.8577C18.9295 46.782 19.3809 46.9585 19.1366 46.8425C19.0782 46.8123 19.0145 46.787 18.9561 46.7517C18.8339 46.6861 18.68 46.6155 18.5791 46.5197C18.7437 46.671 18.6375 46.5651 18.6056 46.5348C18.526 46.4642 18.4463 46.3986 18.372 46.3229C18.3242 46.2775 18.2817 46.2271 18.2339 46.1767C18.1224 46.0657 18.3667 46.3734 18.2233 46.1666C18.149 46.0556 18.0746 45.9497 18.0109 45.8336C17.9692 45.766 17.9337 45.6952 17.9047 45.6218C17.995 45.8639 17.91 45.6066 17.8941 45.5713C17.8463 45.4301 17.772 45.2535 17.7773 45.1072C17.772 45.3242 17.7879 45.188 17.7826 45.1325C17.7826 45.0518 17.772 44.966 17.772 44.8853C17.772 44.85 17.7614 44.5524 17.7932 44.5372C17.7887 44.5813 17.7816 44.6251 17.772 44.6684C17.7782 44.6226 17.7871 44.5771 17.7985 44.5322C17.8091 44.4868 17.8198 44.4414 17.8304 44.401C17.8463 44.3354 17.8675 44.2699 17.8888 44.2093C17.8994 44.1791 17.9737 43.9168 17.9313 44.0782C17.8941 44.2295 17.9472 44.0479 17.9631 44.0176C17.995 43.9571 18.0268 43.9016 18.064 43.8411C18.0853 43.8007 18.2233 43.5586 18.2552 43.5636C18.2286 43.599 18.2021 43.6292 18.1755 43.6645C18.2021 43.6292 18.2339 43.599 18.2658 43.5636C18.2977 43.5283 18.3242 43.4981 18.3561 43.4678C18.4518 43.3735 18.5528 43.2843 18.6587 43.2005C18.8393 43.0491 18.4623 43.3215 18.664 43.2005C18.7224 43.1651 18.7809 43.1248 18.8393 43.0945C18.9401 43.039 19.041 42.9886 19.1472 42.9381C19.349 42.8373 18.9773 42.9785 19.1207 42.9482C19.1738 42.9381 19.2322 42.9079 19.2853 42.8927C19.4214 42.8537 19.5597 42.8217 19.6995 42.7969C19.9437 42.7465 19.4499 42.812 19.7048 42.7969C19.7526 42.7919 19.8003 42.7919 19.8481 42.7868C19.8959 42.7818 19.9596 42.7818 20.0127 42.7818H23.6128C23.6872 42.7818 23.7562 42.7868 23.8306 42.7919C23.9527 42.8019 23.9421 42.8019 23.804 42.7868L23.9686 42.8171C24.1067 42.8473 24.335 42.8675 24.4465 42.9533C24.3031 42.8473 24.3509 42.9079 24.42 42.9432C24.5183 42.9869 24.614 43.0358 24.7067 43.0895C24.7651 43.1248 24.8235 43.1601 24.8766 43.1954C25.0996 43.3417 24.8023 43.1147 24.9509 43.2509C25.0678 43.3568 25.1846 43.4678 25.2961 43.5788C25.4819 43.7604 25.1846 43.4073 25.3279 43.6191C25.3704 43.6847 25.4182 43.7452 25.4607 43.8159C25.5032 43.8865 25.5403 43.9521 25.5775 44.0227C25.6147 44.0933 25.7368 44.2346 25.6041 44.0681C25.689 44.174 25.7156 44.3909 25.7474 44.5221C25.758 44.5776 25.8483 44.8096 25.7634 44.5725C25.7899 44.6482 25.774 44.7844 25.774 44.8802C25.7793 45.4099 26.2572 45.9143 26.8359 45.8891C27.4041 45.8639 27.9032 45.4452 27.8979 44.8802C27.8767 43.3518 26.9581 41.8485 25.4766 41.1877C24.8686 40.9085 24.2032 40.7603 23.5279 40.7539H20.4747C19.5614 40.7539 18.6959 40.8447 17.8782 41.2735C16.6303 41.9242 15.8392 43.1349 15.6746 44.4616C15.4834 45.9951 16.3011 47.4933 17.6392 48.3407C18.4941 48.8805 19.4658 49.0015 20.4588 49.0015H22.8004C23.7828 49.0015 24.7067 48.9561 25.6041 48.5122C27.0112 47.8111 27.882 46.3734 27.8979 44.8752C27.9032 44.3455 27.4041 43.8411 26.8359 43.8663C26.2572 43.8951 25.7793 44.3138 25.774 44.8787Z" fill="#6C96F9"/>
</g>
<defs>
<clipPath id="clip0_61_665">
<rect width="43" height="49" fill="white"/>
</clipPath>
</defs>
</svg>
