<svg width="241" height="46" viewBox="0 0 241 46" fill="none" xmlns="http://www.w3.org/2000/svg">
<path d="M57.0004 20.1526L38.4922 29.1403V45.964L56.9897 36.9854V20.1706H57.0004V20.1526Z" fill="#6C96F9"/>
<path d="M38.4698 29.1583L19.9188 20.1526L19.8867 20.1796V36.9764L38.4484 45.982L38.4698 46L38.4912 45.991L38.5019 46L38.4805 45.982L38.4912 45.964V29.1403L38.4698 29.1583Z" fill="#257DE3"/>
<path d="M18.5943 0.0179944L18.605 0L18.5943 0.00899722V0L18.5515 0.0179944L18.498 0.0359861V16.8598L18.5729 16.8418L37.1025 25.8474V25.8204V9.02366L18.5943 0.0179944Z" fill="#6C96F9"/>
<path d="M0 9.01444V25.8292L0.0106929 25.8472L18.4975 16.8595V0.0357666L0 9.01444Z" fill="#257DE3"/>
<path d="M17.2252 20.1526L0 28.5105V45.3433L17.2145 36.9854V20.1706H17.2252V20.1526Z" fill="#6C96F9"/>
<path d="M56.9899 0.656677L39.7754 9.01458V25.8294L39.7861 25.8473L56.9899 17.4894V0.656677Z" fill="#257DE3"/>
<path d="M71.0013 18.6445C71.0013 17.2192 71.5763 16.1502 71.5763 16.1502C72.1497 15.0828 73.1343 14.3969 73.1343 14.3969C74.1204 13.7127 75.4326 13.3563 75.4326 13.3563C76.7464 13 78.224 13 78.224 13C80.0293 13 81.6976 13.4115 81.6976 13.4115C83.3674 13.8215 84.6528 14.5341 84.6528 14.5341V19.1916C83.4209 18.2598 81.8614 17.8215 81.8614 17.8215C80.3034 17.3831 78.6336 17.3831 78.6336 17.3831C77.2379 17.4115 76.7196 17.7395 76.7196 17.7395C76.1998 18.069 76.1998 18.6161 76.1998 18.6161C76.1998 19.2468 76.937 19.6299 76.937 19.6299C77.6758 20.013 78.7707 20.4245 78.7707 20.4245C79.8655 20.836 81.1777 21.246 81.1777 21.246C82.4915 21.6575 83.558 22.4521 83.558 22.4521C84.6245 23.2468 85.4184 24.3157 85.4184 24.3157C86.2124 25.3831 86.1572 27.1364 86.1572 27.1364C86.1572 28.836 85.5555 29.9586 85.5555 29.9586C84.9537 31.0828 83.914 31.7671 83.914 31.7671C82.8743 32.4529 81.4518 32.7257 81.4518 32.7257C80.0293 33 78.4966 33 78.4966 33C76.4172 33 74.5583 32.5617 74.5583 32.5617C72.6979 32.1234 71.1384 31.2468 71.1384 31.2468V26.4521C72.8617 27.6299 74.667 28.1234 74.667 28.1234C76.4723 28.6169 78.1138 28.6169 78.1138 28.6169C79.6182 28.6169 80.2751 28.3425 80.2751 28.3425C80.932 28.0682 80.9588 27.3287 80.9588 27.3287C80.9588 26.6445 80.2199 26.2062 80.2199 26.2062C79.4827 25.7679 78.3879 25.3831 78.3879 25.3831C77.293 25 75.9808 24.5349 75.9808 24.5349C74.667 24.0682 73.6005 23.3287 73.6005 23.3287C72.5325 22.5893 71.7401 21.4935 71.7401 21.4935C70.9462 20.3977 71.0013 18.6445 71.0013 18.6445Z" fill="#6C96F9"/>
<path d="M97.4368 13V33H92.1582V13H97.4368Z" fill="#6C96F9"/>
<path d="M103.437 33V13H108.431L116.248 24.4857C116.19 23.772 116.162 22.8857 116.162 22.8857C116.133 21.9994 116.133 21.1707 116.133 21.1707V13H121.412V33H116.419L108.602 21.5423C108.658 22.2576 108.687 23.1143 108.687 23.1143C108.715 23.971 108.715 24.8293 108.715 24.8293V33H103.437Z" fill="#6C96F9"/>
<path d="M127.412 33L135.258 13H140.964L148.81 33H143.389L142.249 29.8577H133.973L132.833 33H127.412ZM135.544 25.5709H140.68L138.624 19.7993C138.482 19.4277 138.368 19.0002 138.368 19.0002C138.253 18.571 138.112 17.7719 138.112 17.7719C137.969 18.571 137.854 19.0002 137.854 19.0002C137.741 19.4277 137.598 19.7993 137.598 19.7993L135.544 25.5709Z" fill="#6C96F9"/>
<path d="M162.713 13C164.568 13 166.137 13.3141 166.137 13.3141C167.706 13.6281 168.905 14.4569 168.905 14.4569C170.103 15.2856 170.73 16.5715 170.73 16.5715C171.358 17.8574 171.415 19.8569 171.415 19.8569C171.415 21.8284 170.76 23.1422 170.76 23.1422C170.103 24.4577 168.905 25.2289 168.905 25.2289C167.706 26.0001 166.166 26.3717 166.166 26.3717C164.625 26.7433 162.713 26.7154 162.713 26.7154H160.089V33H154.811V13H162.713ZM165.994 19.8569C165.994 19.1712 165.767 18.742 165.767 18.742C165.539 18.3145 165.082 18.0284 165.082 18.0284C164.625 17.7423 164.111 17.6847 164.111 17.6847C163.598 17.6288 162.971 17.5713 162.971 17.5713H160.089V22.1425H162.971C163.569 22.1425 164.111 22.057 164.111 22.057C164.653 21.9715 165.082 21.6854 165.082 21.6854C165.509 21.3993 165.737 20.9997 165.737 20.9997C165.966 20.6001 165.994 19.8569 165.994 19.8569Z" fill="#6C96F9"/>
<path d="M177.416 18.6445C177.416 17.2192 177.99 16.1502 177.99 16.1502C178.565 15.0828 179.549 14.3969 179.549 14.3969C180.535 13.7127 181.848 13.3563 181.848 13.3563C183.161 13 184.639 13 184.639 13C186.444 13 188.113 13.4115 188.113 13.4115C189.781 13.8215 191.068 14.5341 191.068 14.5341V19.1916C189.836 18.2598 188.276 17.8215 188.276 17.8215C186.717 17.3831 185.049 17.3831 185.049 17.3831C183.653 17.4115 183.133 17.7395 183.133 17.7395C182.613 18.069 182.613 18.6161 182.613 18.6161C182.613 19.2468 183.352 19.6299 183.352 19.6299C184.091 20.013 185.186 20.4245 185.186 20.4245C186.281 20.836 187.593 21.246 187.593 21.246C188.907 21.6575 189.973 22.4521 189.973 22.4521C191.04 23.2468 191.833 24.3157 191.833 24.3157C192.627 25.3831 192.572 27.1364 192.572 27.1364C192.572 28.836 191.971 29.9586 191.971 29.9586C191.369 31.0828 190.329 31.7671 190.329 31.7671C189.289 32.4529 187.867 32.7257 187.867 32.7257C186.444 33 184.912 33 184.912 33C182.832 33 180.972 32.5617 180.972 32.5617C179.111 32.1234 177.553 31.2468 177.553 31.2468V26.4521C179.277 27.6299 181.082 28.1234 181.082 28.1234C182.887 28.6169 184.529 28.6169 184.529 28.6169C186.033 28.6169 186.69 28.3425 186.69 28.3425C187.347 28.0682 187.374 27.3287 187.374 27.3287C187.374 26.6445 186.635 26.2062 186.635 26.2062C185.896 25.7679 184.803 25.3831 184.803 25.3831C183.708 25 182.394 24.5349 182.394 24.5349C181.082 24.0682 180.016 23.3287 180.016 23.3287C178.948 22.5893 178.155 21.4935 178.155 21.4935C177.361 20.3977 177.416 18.6445 177.416 18.6445Z" fill="#6C96F9"/>
<path d="M206.362 33V26.1711L198.573 13H204.564L208.987 21.2578L213.41 13H219.401L211.612 26.1711V33H206.362Z" fill="#6C96F9"/>
<path d="M225.402 18.6445C225.402 17.2192 225.977 16.1502 225.977 16.1502C226.551 15.0828 227.535 14.3969 227.535 14.3969C228.521 13.7127 229.833 13.3563 229.833 13.3563C231.147 13 232.625 13 232.625 13C234.43 13 236.098 13.4115 236.098 13.4115C237.768 13.8215 239.054 14.5341 239.054 14.5341V19.1916C237.822 18.2598 236.262 17.8215 236.262 17.8215C234.704 17.3831 233.034 17.3831 233.034 17.3831C231.639 17.4115 231.119 17.7395 231.119 17.7395C230.601 18.069 230.601 18.6161 230.601 18.6161C230.601 19.2468 231.338 19.6299 231.338 19.6299C232.077 20.013 233.172 20.4245 233.172 20.4245C234.266 20.836 235.579 21.246 235.579 21.246C236.892 21.6575 237.959 22.4521 237.959 22.4521C239.025 23.2468 239.819 24.3157 239.819 24.3157C240.613 25.3831 240.558 27.1364 240.558 27.1364C240.558 28.836 239.956 29.9586 239.956 29.9586C239.355 31.0828 238.315 31.7671 238.315 31.7671C237.275 32.4529 235.853 32.7257 235.853 32.7257C234.43 33 232.897 33 232.897 33C230.818 33 228.959 32.5617 228.959 32.5617C227.099 32.1234 225.539 31.2468 225.539 31.2468V26.4521C227.263 27.6299 229.068 28.1234 229.068 28.1234C230.873 28.6169 232.515 28.6169 232.515 28.6169C234.019 28.6169 234.676 28.3425 234.676 28.3425C235.333 28.0682 235.36 27.3287 235.36 27.3287C235.36 26.6445 234.621 26.2062 234.621 26.2062C233.884 25.7679 232.789 25.3831 232.789 25.3831C231.694 25 230.382 24.5349 230.382 24.5349C229.068 24.0682 228.001 23.3287 228.001 23.3287C226.933 22.5893 226.141 21.4935 226.141 21.4935C225.347 20.3977 225.402 18.6445 225.402 18.6445Z" fill="#6C96F9"/>
</svg>
