<svg width="48" height="48" viewBox="0 0 48 48" fill="none" xmlns="http://www.w3.org/2000/svg">
<g clip-path="url(#clip0_61_412)">
<path d="M48 3.55382V28.2589C47.9993 28.7262 47.9062 29.1889 47.7259 29.6204C47.5456 30.052 47.2818 30.4439 46.9493 30.774C46.6169 31.104 46.2225 31.3655 45.7886 31.5438C45.3546 31.722 44.8897 31.8134 44.4202 31.8127H37.2085V30.5119H44.4202C45.0204 30.5119 45.5959 30.2745 46.0203 29.852C46.4447 29.4295 46.6831 28.8564 46.6831 28.2589V3.55382C46.6817 2.95671 46.4428 2.38445 46.0188 1.96223C45.5947 1.54 45.02 1.30219 44.4202 1.30082H3.57452C2.97433 1.30218 2.39903 1.53983 1.97413 1.9619C1.54924 2.38398 1.30924 2.95624 1.30648 3.55382V28.2589C1.30786 28.8569 1.54743 29.4299 1.97262 29.8523C2.39781 30.2747 2.9739 30.5119 3.57452 30.5119H10.7915V31.8127H3.57452C2.62783 31.8113 1.72023 31.4366 1.05032 30.7706C0.380417 30.1046 0.00276307 29.2015 0 28.2589L0 3.55382C0.00276307 2.61124 0.380417 1.70812 1.05032 1.0421C1.72023 0.37607 2.62783 0.00137584 3.57452 3.80945e-06H44.4202C44.8897 -0.000679991 45.3546 0.0906999 45.7886 0.268926C46.2225 0.447152 46.6169 0.708735 46.9493 1.03874C47.2818 1.36874 47.5456 1.7607 47.7259 2.19224C47.9062 2.62378 47.9993 3.08645 48 3.55382Z" fill="#6C96F9"/>
<path d="M44.1483 27.0569L43.1763 27.9259L29.8711 13.2683L29.8293 13.2215L29.7771 13.2527L24.3369 16.4631C24.237 16.5213 24.1234 16.5519 24.0077 16.5516C23.8905 16.5506 23.7754 16.5202 23.6732 16.4631L18.2382 13.2527L18.1808 13.2215L18.139 13.2683L4.83901 27.9051L3.87744 27.0569L16.9736 12.6439L17.0415 12.5763L16.9579 12.5242L4.03422 4.88587L4.70314 3.76196L23.9606 15.1311H24.0024H24.039L43.3226 3.76196L43.9863 4.88587L31.0679 12.4878L30.9843 12.5399L31.047 12.6075L44.1483 27.0569Z" fill="#6C96F9"/>
<path d="M15.9703 6.4624H13.0542V7.91931H15.9703V6.4624Z" fill="#6C96F9"/>
<path d="M13.0649 6.4624V7.91931H15.981V6.4624H13.0649ZM15.9026 7.84126H13.1329V6.54045H15.8922L15.9026 7.84126Z" fill="#6C96F9"/>
<path d="M34.8675 6.54053H17.5122V7.84134H34.8675V6.54053Z" fill="#6C96F9"/>
<path d="M30.4881 3.63184H13.1328V4.93265H30.4881V3.63184Z" fill="#6C96F9"/>
<path d="M34.8672 3.63184H32.1079V4.93265H34.8672V3.63184Z" fill="#6C96F9"/>
<path d="M17.5906 37.9108C17.6954 37.9108 17.7989 37.8877 17.8937 37.8432C17.7983 37.8859 17.6952 37.9089 17.5906 37.9108ZM30.1328 37.8432C30.2271 37.8889 30.3309 37.912 30.4359 37.9108C30.3277 37.911 30.2207 37.8879 30.1223 37.8432H30.1328ZM23.6265 38.7589H23.9975H24.3686C24.123 38.7693 23.8669 38.7693 23.6265 38.7589ZM23.6265 38.7589H23.9975H24.3686C24.123 38.7693 23.8669 38.7693 23.6265 38.7589ZM23.6265 38.7589H23.9975H24.3686C24.123 38.7693 23.8669 38.7693 23.6265 38.7589ZM23.6265 38.7589H23.9975H24.3686C24.123 38.7693 23.8669 38.7693 23.6265 38.7589ZM23.6265 38.7589H23.9975H24.3686C24.123 38.7693 23.8669 38.7693 23.6265 38.7589ZM23.6265 38.7589H23.9975H24.3686C24.123 38.7693 23.8669 38.7693 23.6265 38.7589ZM23.6265 38.7589H23.9975H24.3686C24.123 38.7693 23.8669 38.7693 23.6265 38.7589ZM23.6265 38.7589H23.9975H24.3686C24.123 38.7693 23.8669 38.7693 23.6265 38.7589ZM34.6375 28.5501C34.6189 28.4333 34.5694 28.3236 34.4941 28.2321C34.4188 28.1407 34.3204 28.0709 34.209 28.0298L31.9514 27.2285H31.9148V27.1921C31.7542 26.6647 31.5424 26.1541 31.2825 25.6675V25.6363V25.5999L32.3276 23.4354C32.3812 23.3246 32.4013 23.2007 32.3856 23.0788C32.3698 22.9569 32.3188 22.8421 32.2388 22.7485C31.8165 22.2333 31.3458 21.7594 30.833 21.3332C30.7164 21.2388 30.5705 21.1874 30.4202 21.1875C30.3249 21.188 30.2307 21.2074 30.1432 21.2448L27.9692 22.2854H27.9326H27.8961C27.4059 22.0283 26.8935 21.8158 26.3649 21.6506H26.3283V21.6142L25.5235 19.356C25.484 19.2446 25.4142 19.1462 25.322 19.0718C25.2297 18.9974 25.1186 18.9499 25.0009 18.9345C24.3544 18.8721 23.7034 18.8721 23.0569 18.9345C22.9394 18.9525 22.8289 19.0016 22.7369 19.0767C22.645 19.1517 22.575 19.25 22.5343 19.3612L21.6877 21.6038V21.6402H21.6511C21.1206 21.7979 20.6076 22.0088 20.1199 22.2698H20.0833H20.052L17.878 21.2292C17.7914 21.1882 17.6968 21.1669 17.601 21.1667C17.4496 21.1658 17.303 21.2194 17.1882 21.3176C16.6926 21.7277 16.236 22.1823 15.8242 22.6757C15.7334 22.7736 15.6748 22.8968 15.6561 23.0289C15.6374 23.1609 15.6596 23.2954 15.7197 23.4145L16.7649 25.5791V25.6155V25.6467C16.5053 26.1341 16.2919 26.6445 16.1273 27.1713V27.2077H16.0907L13.8331 28.009C13.7202 28.0468 13.6205 28.1158 13.5455 28.2079C13.4705 28.3 13.4235 28.4115 13.4098 28.5293C13.3471 29.173 13.3471 29.8213 13.4098 30.4649C13.4268 30.5823 13.4757 30.6929 13.5513 30.7846C13.6268 30.8763 13.7261 30.9457 13.8384 30.9853L16.0907 31.7866H16.1273V31.8282C16.2732 32.3703 16.4727 32.8967 16.7231 33.3996V33.436V33.4724L15.6779 35.637C15.6243 35.7477 15.6042 35.8716 15.62 35.9935C15.6357 36.1154 15.6867 36.2302 15.7667 36.3238C16.1772 36.8184 16.6339 37.2732 17.1307 37.6819C17.2469 37.7778 17.3926 37.831 17.5435 37.8327C17.6377 37.8331 17.7307 37.8117 17.8153 37.7703L19.9945 36.7297H20.0258H20.0624C20.552 36.9865 21.0646 37.1973 21.5936 37.3593H21.6302V37.4009L22.4716 39.6747C22.5108 39.7868 22.5804 39.886 22.6726 39.9612C22.7648 40.0365 22.8761 40.085 22.9942 40.1014C23.2711 40.1274 23.616 40.1482 23.9662 40.1482C24.3163 40.1482 24.6612 40.1482 24.9382 40.1014C25.0559 40.0839 25.1666 40.035 25.2587 39.9599C25.3507 39.8848 25.4205 39.7862 25.4608 39.6747L26.2656 37.4321V37.3905H26.3022C26.8319 37.2305 27.3447 37.0197 27.8334 36.7609H27.8699H27.9065L30.0805 37.8015C30.165 37.8429 30.258 37.8643 30.3522 37.864C30.5049 37.863 30.6525 37.8097 30.7703 37.7131C31.2654 37.3042 31.7203 36.8495 32.1291 36.355C32.2076 36.2607 32.2581 36.1464 32.2747 36.025C32.2913 35.9036 32.2735 35.78 32.2231 35.6682L31.1779 33.5036V33.4672V33.4308C31.4367 32.9437 31.6484 32.4332 31.8103 31.9062V31.8698H31.8469L34.1045 31.0685C34.2174 31.03 34.3172 30.9609 34.3929 30.869C34.4686 30.7771 34.5171 30.666 34.533 30.5482C34.6291 29.8868 34.6641 29.2179 34.6375 28.5501ZM33.3571 29.8874V29.9446H33.3049L31.1414 30.7147C31.04 30.7508 30.949 30.8108 30.8762 30.8897C30.8034 30.9685 30.7509 31.0638 30.7233 31.1674C30.5594 31.832 30.2932 32.4674 29.9342 33.051C29.8775 33.1416 29.8453 33.2453 29.8407 33.3519C29.8361 33.4586 29.8593 33.5646 29.908 33.6597L30.8905 35.741V35.7931L30.8539 35.8295C30.6763 36.0116 30.5038 36.1885 30.3313 36.3498L30.3104 36.4227H30.2634L28.173 35.4445C28.0769 35.3952 27.9703 35.3694 27.8621 35.3694C27.7539 35.3694 27.6473 35.3952 27.5512 35.4445C26.9641 35.8001 26.3262 36.065 25.6594 36.2301C25.5561 36.258 25.4613 36.3104 25.383 36.3829C25.3047 36.4555 25.2453 36.5459 25.2099 36.6464L24.4365 38.8058V38.8526H24.379H24.008H23.6317H23.5795V38.8058L22.7799 36.6308C22.7437 36.5299 22.6834 36.4393 22.6042 36.3668C22.525 36.2943 22.4292 36.242 22.3252 36.2145C21.6574 36.0523 21.0191 35.7872 20.4335 35.4288C20.3307 35.3679 20.2134 35.3356 20.0938 35.3352C19.9973 35.3347 19.9021 35.3579 19.8168 35.4028L17.7264 36.381H17.6794L17.6428 36.3446C17.4547 36.1677 17.2822 35.996 17.1202 35.8243L17.0837 35.7879V35.7358L18.0714 33.6545C18.1204 33.5587 18.146 33.4526 18.146 33.3449C18.146 33.2373 18.1204 33.1312 18.0714 33.0353C17.707 32.4612 17.4288 31.8372 17.2457 31.183C17.2198 31.0787 17.1679 30.9825 17.0948 30.9034C17.0217 30.8243 16.9298 30.7647 16.8276 30.7303L14.685 29.9602H14.6379V29.903C14.6379 29.6636 14.6379 29.3827 14.6379 29.1589V29.1069H14.685L16.8485 28.3368C16.9507 28.3024 17.0426 28.2429 17.1157 28.1637C17.1888 28.0846 17.2407 27.9885 17.2666 27.8841C17.4346 27.22 17.7024 26.585 18.0609 26.0006C18.1108 25.9059 18.1369 25.8005 18.1369 25.6936C18.1369 25.5866 18.1108 25.4813 18.0609 25.3866L17.0732 23.3053V23.2584L17.1098 23.222C17.2822 23.0399 17.4547 22.863 17.6324 22.7017L17.669 22.6653H17.716L19.8064 23.6487C19.9037 23.694 20.0105 23.7153 20.1179 23.7107C20.2252 23.7062 20.3299 23.676 20.423 23.6227C21.0114 23.2684 21.6488 23.0019 22.3148 22.8318C22.4188 22.806 22.5148 22.755 22.5941 22.6833C22.6735 22.6115 22.7337 22.5213 22.7694 22.4207L23.5429 20.2614V20.2145H24.3999V20.2614L25.1734 22.4155C25.2071 22.5178 25.2666 22.6098 25.3462 22.6827C25.4258 22.7555 25.5228 22.8069 25.628 22.8318C26.295 22.9991 26.9328 23.2657 27.5198 23.6227C27.6216 23.6814 27.7366 23.7136 27.8543 23.7163C27.9506 23.7154 28.0454 23.6923 28.1312 23.6487L30.2216 22.6653H30.2686L30.3104 22.7017C30.4933 22.8734 30.6658 23.0503 30.833 23.222L30.8696 23.2584V23.3053L29.8871 25.3866C29.8408 25.4842 29.8189 25.5915 29.8235 25.6994C29.828 25.8072 29.8588 25.9124 29.9133 26.0058C30.2696 26.5889 30.5356 27.2221 30.7024 27.8841C30.73 27.9877 30.7825 28.083 30.8553 28.1618C30.9281 28.2407 31.0191 28.3008 31.1205 28.3368L33.284 29.1069H33.3362V29.1381C33.3676 29.3879 33.3676 29.6584 33.3571 29.8874ZM23.9975 38.7693H24.3686C24.123 38.7693 23.846 38.7693 23.6265 38.7693H23.9975ZM23.6265 38.7693H23.9975H24.3686C24.123 38.7693 23.8669 38.7693 23.6265 38.7589V38.7693ZM23.6265 38.7693H23.9975H24.3686C24.123 38.7693 23.8669 38.7693 23.6265 38.7589V38.7693ZM23.6265 38.7693H23.9975H24.3686C24.123 38.7693 23.8669 38.7693 23.6265 38.7589V38.7693ZM23.6265 38.7693H23.9975H24.3686C24.123 38.7693 23.8669 38.7693 23.6265 38.7589V38.7693ZM23.6265 38.7693H23.9975H24.3686C24.123 38.7693 23.8669 38.7693 23.6265 38.7589V38.7693ZM23.6265 38.7693H23.9975H24.3686C24.123 38.7693 23.8669 38.7693 23.6265 38.7589V38.7693ZM23.6265 38.7693H23.9975H24.3686C24.123 38.7693 23.8669 38.7693 23.6265 38.7589V38.7693ZM23.6265 38.7693H23.9975H24.3686C24.123 38.7693 23.8669 38.7693 23.6265 38.7589V38.7693Z" fill="#6C96F9"/>
<path d="M23.2554 40.2004C23.4905 40.2004 23.778 40.2004 24.0079 40.2004C24.2378 40.2004 24.5305 40.2004 24.7604 40.2004C24.2592 40.2317 23.7566 40.2317 23.2554 40.2004Z" fill="#6C96F9"/>
<path d="M24.0028 24.1274C22.9309 24.1274 21.8832 24.4439 20.992 25.0368C20.1008 25.6297 19.4062 26.4724 18.996 27.4583C18.5858 28.4443 18.4785 29.5292 18.6876 30.5759C18.8967 31.6226 19.4129 32.584 20.1708 33.3386C20.9287 34.0932 21.8943 34.6071 22.9455 34.8153C23.9968 35.0235 25.0864 34.9167 26.0766 34.5083C27.0669 34.0999 27.9133 33.4083 28.5087 32.5209C29.1042 31.6336 29.422 30.5904 29.422 29.5232C29.4207 28.0926 28.8493 26.721 27.8332 25.7093C26.8172 24.6977 25.4396 24.1288 24.0028 24.1274ZM24.0028 33.6286C23.1873 33.6286 22.3901 33.3878 21.712 32.9367C21.034 32.4856 20.5055 31.8444 20.1934 31.0943C19.8813 30.3441 19.7997 29.5187 19.9588 28.7223C20.1178 27.9259 20.5105 27.1944 21.0872 26.6203C21.6638 26.0461 22.3985 25.6551 23.1984 25.4967C23.9982 25.3383 24.8272 25.4196 25.5807 25.7304C26.3341 26.0411 26.9781 26.5673 27.4311 27.2424C27.8842 27.9175 28.126 28.7113 28.126 29.5232C28.1246 30.6116 27.6898 31.655 26.9168 32.4246C26.1439 33.1942 25.0959 33.6272 24.0028 33.6286Z" fill="#6C96F9"/>
<path d="M10.6034 43.9934H10.7027C10.6454 43.9882 10.5876 43.9882 10.5303 43.9934H10.6034Z" fill="#6C96F9"/>
<path d="M21.2696 40.7778C21.2553 40.8954 21.208 41.0066 21.1331 41.0987C21.0583 41.1907 20.9588 41.2599 20.8463 41.2982L19.3098 41.8185H19.2733V41.8549C19.171 42.1815 19.0398 42.4984 18.8813 42.8019V42.8383V42.8695L19.5816 44.3369C19.6319 44.4487 19.6498 44.5723 19.6332 44.6937C19.6165 44.8151 19.5661 44.9294 19.4875 45.0237C19.1852 45.3888 18.8493 45.725 18.4841 46.0279C18.3677 46.127 18.2192 46.1806 18.0661 46.1788C17.9719 46.1791 17.8789 46.1578 17.7943 46.1164L16.3206 45.4191H16.2893H16.2527C15.9455 45.572 15.6277 45.7024 15.3016 45.8094H15.2598V45.8458L14.711 47.3756C14.6663 47.489 14.5917 47.5885 14.4952 47.6635C14.3987 47.7386 14.2837 47.7865 14.1623 47.8022C13.9585 47.8022 13.7024 47.8387 13.4411 47.8387C13.1947 47.8646 12.9468 47.875 12.6991 47.8699C12.5807 47.8563 12.4688 47.8094 12.3762 47.7348C12.2837 47.6602 12.2144 47.5608 12.1765 47.4484L11.6277 45.9187V45.8822H11.5912C11.262 45.7836 10.9434 45.6529 10.64 45.492H10.6035H10.5669L9.09318 46.1892C9.00864 46.2306 8.91563 46.252 8.82143 46.2517C8.66894 46.2499 8.52156 46.1967 8.40336 46.1008C8.03944 45.7965 7.70364 45.4605 7.39998 45.0965C7.31971 45.0031 7.26815 44.8887 7.25147 44.7669C7.23479 44.6451 7.25369 44.5211 7.30592 44.4097L8.01141 42.9424V42.9112V42.8748C7.8526 42.5714 7.72143 42.2545 7.61947 41.9278V41.8913H7.58289L6.0517 41.371C5.93971 41.3309 5.84073 41.2614 5.76528 41.1698C5.68982 41.0781 5.64071 40.9679 5.62317 40.8507C5.57613 40.3714 5.57613 39.8887 5.62317 39.4094C5.63785 39.2912 5.68591 39.1795 5.76176 39.0874C5.83762 38.9953 5.93815 38.9265 6.0517 38.8891L7.57766 38.3323H7.61424V38.2959C7.71423 37.9685 7.84548 37.6514 8.00619 37.3489V37.3125V37.2813L7.26411 35.7047C7.21306 35.5933 7.19432 35.47 7.21002 35.3486C7.22572 35.2272 7.27523 35.1127 7.35295 35.0178C7.65705 34.6526 7.99472 34.3164 8.36155 34.0136C8.47636 33.9153 8.623 33.8617 8.7744 33.8627C8.8686 33.8624 8.9616 33.8838 9.04614 33.9252L10.5199 34.6224H10.5564H10.5878C10.8967 34.4696 11.2163 34.3392 11.5441 34.2321H11.5807V34.1957L12.1033 32.666C12.1445 32.5551 12.2147 32.4571 12.3065 32.3821C12.3983 32.3071 12.5086 32.2578 12.6259 32.2393C12.8349 32.2393 13.091 32.2029 13.3523 32.2029C13.6136 32.2029 13.8749 32.2029 14.0735 32.2393C14.1914 32.2562 14.3024 32.3049 14.3945 32.3801C14.4866 32.4553 14.5563 32.5542 14.5961 32.666L15.2388 34.4767L14.1101 34.8982L13.6293 33.5453V33.4933H13.2739V33.5453L12.7513 34.971C12.716 35.0715 12.6566 35.1619 12.5783 35.2345C12.5 35.307 12.4051 35.3594 12.3019 35.3873C11.8372 35.493 11.3914 35.6685 10.9797 35.9076C10.8775 35.9647 10.7625 35.9951 10.6453 35.9961C10.5477 35.9965 10.4513 35.9751 10.3631 35.9336L8.97821 35.2832H8.93117L8.89459 35.3144L8.7744 35.4341L8.71691 35.4913L8.68033 35.533V35.5798L9.31789 36.943C9.36438 37.0399 9.38586 37.1468 9.38038 37.254C9.37491 37.3612 9.34265 37.4654 9.28654 37.557C9.04635 37.9669 8.87014 38.4108 8.76395 38.8734C8.73633 38.977 8.68385 39.0723 8.61102 39.1512C8.53819 39.23 8.44719 39.2901 8.34587 39.3261L6.90875 39.8465H6.85649V40.1951H6.90875L8.34587 40.7154C8.44719 40.7515 8.53819 40.8115 8.61102 40.8904C8.68385 40.9692 8.73633 41.0645 8.76395 41.1681C8.87014 41.6307 9.04635 42.0746 9.28654 42.4845C9.34051 42.577 9.37151 42.6809 9.37696 42.7877C9.38242 42.8945 9.36217 43.0011 9.31789 43.0985L8.66465 44.4774V44.519L8.69601 44.5606L8.81621 44.6803L8.87369 44.7375L8.9155 44.7739H8.96253L10.3474 44.1235C10.4336 44.0815 10.5284 44.0602 10.6244 44.0611C10.7431 44.0627 10.8597 44.093 10.9641 44.1495C11.3757 44.3887 11.8216 44.5641 12.2862 44.6699C12.39 44.6964 12.4856 44.7484 12.5641 44.8211C12.6425 44.8938 12.7015 44.9849 12.7356 45.0861L13.2582 46.5118V46.5639H13.5875V46.5118L14.1101 45.0861C14.1455 44.9848 14.2055 44.8937 14.2848 44.8211C14.3642 44.7485 14.4603 44.6965 14.5647 44.6699C15.0277 44.5643 15.4719 44.3888 15.8816 44.1495C15.9855 44.0918 16.1024 44.0614 16.2213 44.0611C16.3188 44.0613 16.4151 44.0826 16.5035 44.1235L17.8832 44.7739H17.9302L17.9668 44.7427C18.0094 44.7055 18.0496 44.6655 18.087 44.623C18.1048 44.6027 18.124 44.5836 18.1445 44.5658L18.1863 44.5242V44.4774L17.5383 43.0985C17.4896 43.0025 17.4664 42.8956 17.471 42.7881C17.4755 42.6806 17.5077 42.5761 17.5644 42.4845C17.8025 42.0736 17.9786 41.63 18.087 41.1681C18.1129 41.0637 18.1648 40.9676 18.2378 40.8885C18.3109 40.8094 18.4028 40.7498 18.505 40.7154L19.9369 40.1951H19.9892V39.8465H19.9369L18.5782 39.3678L19.012 38.1502L20.8253 38.7902C20.9376 38.8298 21.0369 38.8992 21.1124 38.9909C21.188 39.0826 21.2369 39.1931 21.2539 39.3105C21.3132 39.7976 21.3185 40.2896 21.2696 40.7778Z" fill="#6C96F9"/>
<path d="M12.856 47.9636C13.0336 47.9636 13.227 47.9636 13.4204 47.9636C13.6137 47.9636 13.8071 47.9636 13.9848 47.9636C13.6091 47.9948 13.2316 47.9948 12.856 47.9636Z" fill="#6C96F9"/>
<path d="M13.4201 36.636C12.7402 36.636 12.0756 36.8367 11.5102 37.2126C10.9449 37.5886 10.5041 38.123 10.2437 38.7483C9.98328 39.3736 9.91488 40.0618 10.0471 40.7258C10.1794 41.3897 10.5064 41.9998 10.9868 42.4788C11.4671 42.9579 12.0794 43.2843 12.746 43.417C13.4127 43.5497 14.104 43.4827 14.7324 43.2243C15.3608 42.966 15.8982 42.528 16.2767 41.9656C16.6552 41.4033 16.8577 40.7419 16.8587 40.0649C16.8594 39.6149 16.771 39.1691 16.5985 38.7531C16.426 38.3371 16.1728 37.9591 15.8534 37.6406C15.5341 37.3221 15.1548 37.0695 14.7372 36.8971C14.3197 36.7247 13.8721 36.636 13.4201 36.636ZM13.4201 42.1774C12.9979 42.1774 12.5853 42.0527 12.2344 41.8189C11.8836 41.5852 11.6103 41.253 11.4492 40.8645C11.2882 40.476 11.2466 40.0486 11.3297 39.6365C11.4128 39.2244 11.6169 38.8462 11.9162 38.5497C12.2154 38.2532 12.5963 38.0519 13.0106 37.9711C13.4249 37.8904 13.8539 37.9339 14.2433 38.0962C14.6327 38.2585 14.965 38.5322 15.198 38.8827C15.431 39.2332 15.5543 39.6446 15.5523 40.0649C15.5495 40.6262 15.3236 41.1635 14.9241 41.5593C14.5245 41.9552 13.9838 42.1775 13.4201 42.1774Z" fill="#6C96F9"/>
<path d="M42.4186 40.7883C42.4032 40.9055 42.3554 41.0162 42.2807 41.108C42.206 41.1998 42.1072 41.2693 41.9953 41.3086L40.4589 41.829H40.4223V41.8654C40.3214 42.1925 40.1902 42.5095 40.0303 42.8124V42.8488V42.88L40.7306 44.3473C40.7817 44.4587 40.8004 44.582 40.7847 44.7034C40.769 44.8248 40.7195 44.9394 40.6418 45.0342C40.3377 45.3994 40 45.7356 39.6332 46.0384C39.5184 46.1367 39.3717 46.1903 39.2203 46.1893C39.1245 46.1891 39.0299 46.1678 38.9434 46.1269L37.4696 45.4296H37.4383H37.4017C37.095 45.5833 36.777 45.7138 36.4506 45.8199H36.414V45.8563L35.8914 47.386C35.8509 47.4969 35.7808 47.5946 35.6888 47.6689C35.5967 47.7431 35.4861 47.791 35.3688 47.8075C34.8879 47.8631 34.4022 47.8631 33.9213 47.8075C33.8029 47.7939 33.691 47.7471 33.5984 47.6724C33.5059 47.5978 33.4366 47.4985 33.3987 47.386L32.8761 45.8563V45.8199H32.8395C32.5107 45.7203 32.1922 45.5896 31.8884 45.4296H31.8518H31.8152L30.2056 46.1893C30.1211 46.2307 30.0281 46.252 29.9339 46.2517C29.7825 46.2527 29.6358 46.1991 29.521 46.1008C29.1542 45.7981 28.8165 45.4619 28.5124 45.0966C28.4324 45.003 28.3814 44.8882 28.3657 44.7663C28.3499 44.6444 28.37 44.5205 28.4236 44.4098L29.1239 42.9425V42.9112V42.8748C28.973 42.5691 28.8455 42.2526 28.7424 41.9278V41.8914H28.7058L27.1694 41.3711C27.058 41.33 26.9596 41.2602 26.8843 41.1688C26.8089 41.0773 26.7594 40.9676 26.7408 40.8508C26.6938 40.3715 26.6938 39.8888 26.7408 39.4095C26.7567 39.2917 26.8052 39.1806 26.8809 39.0887C26.9566 38.9968 27.0565 38.9277 27.1694 38.8891L28.9828 38.2439L29.4217 39.4667L28.063 39.9454H28.0107V40.2992H28.063L29.4949 40.8195C29.5962 40.8556 29.6872 40.9157 29.7601 40.9945C29.8329 41.0734 29.8854 41.1687 29.913 41.2722C30.0211 41.7343 30.1972 42.1778 30.4356 42.5886C30.4895 42.6811 30.5205 42.7851 30.526 42.8919C30.5315 42.9987 30.5112 43.1052 30.4669 43.2026L29.8137 44.5815V44.6231L29.845 44.6647L29.9652 44.7844C29.9857 44.8022 30.0049 44.8213 30.0227 44.8417L30.0645 44.8781H30.1116L31.4964 44.2277C31.5824 44.1846 31.6771 44.1615 31.7734 44.16C31.8927 44.1628 32.0094 44.195 32.1131 44.2537C32.5248 44.4928 32.9706 44.6683 33.4352 44.774C33.5392 44.8015 33.635 44.8538 33.7142 44.9263C33.7934 44.9988 33.8537 45.0894 33.8899 45.1903L34.4125 46.616V46.668H34.7678V46.616L35.2904 45.1903C35.3259 45.0889 35.3859 44.9979 35.4652 44.9253C35.5446 44.8526 35.6407 44.8007 35.7451 44.774C36.2097 44.6683 36.6556 44.4928 37.0673 44.2537C37.1625 44.2044 37.2682 44.1787 37.3756 44.1787C37.4829 44.1787 37.5887 44.2044 37.6839 44.2537L39.0688 44.9041H39.1106L39.1472 44.8729C39.191 44.837 39.2313 44.7969 39.2674 44.7532L39.3301 44.696L39.3667 44.6543V44.6075L38.6716 43.1402C38.6204 43.0459 38.5936 42.9404 38.5936 42.8332C38.5936 42.726 38.6204 42.6205 38.6716 42.5262C38.9097 42.1153 39.0858 41.6717 39.1942 41.2098C39.221 41.1058 39.2732 41.0101 39.3461 40.9311C39.419 40.8522 39.5105 40.7924 39.6123 40.7571L41.0442 40.2368H41.0964V39.883H41.0442L39.6123 39.3626C39.5105 39.3274 39.419 39.2676 39.3461 39.1886C39.2732 39.1096 39.221 39.0139 39.1942 38.9099C39.0858 38.448 38.9097 38.0044 38.6716 37.5935C38.6226 37.4986 38.597 37.3933 38.597 37.2865C38.597 37.1797 38.6226 37.0745 38.6716 36.9795L39.3248 35.6007V35.5591L39.2883 35.5174C39.26 35.4703 39.2286 35.4251 39.1942 35.3821L39.1315 35.3249L39.0949 35.2885H39.0479L37.663 35.9389C37.5765 35.9798 37.4819 36.0012 37.386 36.0013C37.2672 36.0004 37.1504 35.97 37.0463 35.9129C36.6347 35.6737 36.1888 35.4983 35.7242 35.3925C35.6202 35.3651 35.5245 35.3128 35.4453 35.2403C35.3661 35.1678 35.3058 35.0772 35.2695 34.9763L34.7469 33.5506V33.4986H34.3916V33.5506L33.9108 34.9034L32.6827 34.4664L33.3307 32.6608C33.3719 32.5499 33.4421 32.452 33.5339 32.377C33.6258 32.302 33.736 32.2527 33.8533 32.2342C34.0624 32.2342 34.3184 32.1978 34.5797 32.1978C34.841 32.1978 35.1023 32.1978 35.3009 32.2342C35.4188 32.2511 35.5298 32.2998 35.6219 32.375C35.714 32.4502 35.7837 32.549 35.8235 32.6608L36.3722 34.1906V34.227H36.414C36.7425 34.3275 37.0609 34.4581 37.3651 34.6173H37.4017H37.4331L38.9068 33.92C38.9945 33.8832 39.0886 33.8638 39.1837 33.8628C39.3344 33.8608 39.4808 33.9125 39.5966 34.0085C39.9659 34.3085 40.3038 34.645 40.6052 35.0127C40.6846 35.1079 40.7343 35.2241 40.7482 35.3471C40.7621 35.47 40.7397 35.5943 40.6836 35.7047L39.9833 37.1721V37.2085V37.2397C40.1368 37.5473 40.2678 37.8655 40.3753 38.1919V38.2283H40.4118L41.9482 38.7486C42.0596 38.789 42.1578 38.8588 42.2323 38.9504C42.3069 39.0421 42.355 39.1522 42.3716 39.269C42.4453 39.772 42.4611 40.2817 42.4186 40.7883Z" fill="#6C96F9"/>
<path d="M34.0049 47.9739C34.1826 47.9739 34.3759 47.9739 34.5693 47.9739C34.7626 47.9739 34.9612 47.9739 35.1337 47.9739C34.7581 48.0051 34.3805 48.0051 34.0049 47.9739Z" fill="#6C96F9"/>
<path d="M34.5798 36.636C33.8999 36.636 33.2353 36.8367 32.6699 37.2126C32.1045 37.5886 31.6638 38.123 31.4034 38.7483C31.1429 39.3736 31.0745 40.0618 31.2068 40.7258C31.3391 41.3897 31.666 41.9998 32.1464 42.4788C32.6268 42.9579 33.239 43.2843 33.9057 43.417C34.5724 43.5497 35.2636 43.4827 35.8921 43.2243C36.5205 42.966 37.0579 42.528 37.4364 41.9656C37.8148 41.4033 38.0174 40.7419 38.0184 40.0649C38.0184 39.1564 37.6563 38.285 37.0116 37.6421C36.3668 36.9992 35.4922 36.6374 34.5798 36.636ZM34.5798 42.1774C34.1576 42.1774 33.745 42.0527 33.3941 41.8189C33.0433 41.5852 32.77 41.253 32.6089 40.8645C32.4478 40.476 32.4062 40.0486 32.4894 39.6365C32.5725 39.2244 32.7766 38.8462 33.0758 38.5497C33.3751 38.2532 33.756 38.0519 34.1702 37.9711C34.5845 37.8904 35.0136 37.9339 35.403 38.0962C35.7924 38.2585 36.1247 38.5322 36.3577 38.8827C36.5907 39.2332 36.714 39.6446 36.7119 40.0649C36.7092 40.6262 36.4833 41.1635 36.0838 41.5593C35.6842 41.9552 35.1434 42.1775 34.5798 42.1774Z" fill="#6C96F9"/>
</g>
<defs>
<clipPath id="clip0_61_412">
<rect width="48" height="48" fill="white"/>
</clipPath>
</defs>
</svg>
