<svg width="49" height="48" viewBox="0 0 49 48" fill="none" xmlns="http://www.w3.org/2000/svg">
<g clip-path="url(#clip0_61_404)">
<path fill-rule="evenodd" clip-rule="evenodd" d="M42.9423 32.2797C42.7871 32.3071 42.6273 32.2718 42.498 32.1814C42.3687 32.091 42.2804 31.9529 42.2524 31.7972C42.2373 31.7204 42.2377 31.6413 42.2536 31.5646C42.2695 31.4879 42.3005 31.4151 42.3448 31.3506C42.3891 31.2861 42.4459 31.2312 42.5117 31.189C42.5775 31.1468 42.651 31.1183 42.728 31.1051C43.461 30.9748 44.1854 30.7997 44.8971 30.5807C45.4408 30.4145 45.9661 30.1932 46.4651 29.92C46.5941 29.8844 46.7313 29.893 46.8549 29.9444C46.9785 29.9958 47.0815 30.0872 47.1475 30.204C47.2135 30.3208 47.2388 30.4563 47.2193 30.5892C47.1999 30.722 47.1367 30.8445 47.04 30.9373C46.4691 31.2499 45.8686 31.5046 45.2473 31.6976C44.4873 31.9335 43.7141 32.1243 42.9318 32.2692L42.9423 32.2797ZM32.8182 42.6673C33.0109 42.6666 33.2017 42.704 33.3799 42.7775C33.5581 42.851 33.72 42.959 33.8565 43.0954C33.9929 43.2318 34.1012 43.3939 34.175 43.5724C34.2489 43.7509 34.2869 43.9422 34.2869 44.1355C34.2876 44.4267 34.2021 44.7116 34.0415 44.9542C33.8808 45.1968 33.652 45.3861 33.3841 45.4983C33.1162 45.6106 32.8212 45.6406 32.5363 45.5847C32.2514 45.5288 31.9894 45.3894 31.7834 45.1842C31.5788 44.9775 31.4399 44.7147 31.3841 44.4288C31.3284 44.143 31.3584 43.847 31.4702 43.5782C31.5821 43.3095 31.7708 43.08 32.0126 42.9188C32.2544 42.7576 32.5384 42.6719 32.8287 42.6725L32.8182 42.6673ZM33.0116 43.9467C32.9869 43.9204 32.9568 43.8998 32.9235 43.8862C32.8901 43.8727 32.8542 43.8665 32.8182 43.868C32.7831 43.8672 32.7483 43.8738 32.7158 43.8873C32.6834 43.9009 32.6542 43.9211 32.6301 43.9467C32.6032 43.9712 32.5819 44.0012 32.5675 44.0347C32.553 44.0681 32.5459 44.1043 32.5465 44.1407C32.5502 44.2118 32.5801 44.279 32.6302 44.3293C32.6804 44.3797 32.7474 44.4096 32.8182 44.4134C32.8546 44.4139 32.8906 44.4068 32.9239 44.3923C32.9573 44.3778 32.9872 44.3564 33.0116 44.3295C33.0617 44.2795 33.0899 44.2116 33.09 44.1407C33.0904 44.1048 33.0836 44.0691 33.0701 44.0359C33.0567 44.0026 33.0368 43.9723 33.0116 43.9467ZM29.4627 41.6605C29.8509 41.6605 30.2231 41.8152 30.4976 42.0905C30.772 42.3659 30.9262 42.7393 30.9262 43.1287C30.9262 43.5181 30.772 43.8915 30.4976 44.1669C30.2231 44.4422 29.8509 44.5969 29.4627 44.5969C29.0746 44.5969 28.7024 44.4422 28.4279 44.1669C28.1534 43.8915 27.9993 43.5181 27.9993 43.1287C27.9993 42.7393 28.1534 42.3659 28.4279 42.0905C28.7024 41.8152 29.0746 41.6605 29.4627 41.6605ZM29.6561 42.9347C29.6063 42.8845 29.5386 42.8562 29.468 42.856C29.4321 42.8557 29.3966 42.8625 29.3634 42.876C29.3302 42.8895 29.3 42.9094 29.2746 42.9347C29.2241 42.9866 29.1959 43.0562 29.1959 43.1287C29.1959 43.2012 29.2241 43.2708 29.2746 43.3227C29.3 43.3479 29.3302 43.3679 29.3634 43.3814C29.3966 43.3949 29.4321 43.4017 29.468 43.4014C29.5216 43.4008 29.5739 43.3843 29.6182 43.354C29.6626 43.3237 29.697 43.2809 29.7171 43.2309C29.7372 43.181 29.7422 43.1263 29.7313 43.0735C29.7205 43.0208 29.6943 42.9725 29.6561 42.9347ZM32.7921 36.5008C33.1834 36.5003 33.5591 36.6548 33.8374 36.9307C33.9748 37.0682 34.0835 37.2317 34.1571 37.4118C34.2307 37.5918 34.2677 37.7848 34.266 37.9795C34.2665 38.372 34.1125 38.749 33.8374 39.0282C33.7003 39.1658 33.5373 39.2746 33.3578 39.3485C33.1783 39.4223 32.9861 39.4596 32.7921 39.4582C32.4007 39.4592 32.0248 39.3046 31.7468 39.0282C31.5422 38.8215 31.4033 38.5587 31.3476 38.2728C31.2918 37.987 31.3218 37.691 31.4336 37.4222C31.5455 37.1535 31.7342 36.924 31.976 36.7628C32.2178 36.6016 32.5018 36.5159 32.7921 36.5165V36.5008ZM32.9855 37.7802C32.961 37.7533 32.9311 37.7318 32.8978 37.7174C32.8645 37.7029 32.8284 37.6957 32.7921 37.6963C32.7213 37.7001 32.6543 37.73 32.6041 37.7804C32.5539 37.8307 32.5241 37.8979 32.5203 37.969C32.5198 38.0054 32.5269 38.0416 32.5413 38.075C32.5557 38.1085 32.5771 38.1385 32.604 38.163C32.6281 38.1886 32.6573 38.2088 32.6897 38.2224C32.7221 38.2359 32.757 38.2425 32.7921 38.2416C32.8281 38.2432 32.864 38.237 32.8973 38.2234C32.9307 38.2099 32.9608 38.1893 32.9855 38.163C33.0107 38.1374 33.0305 38.1071 33.044 38.0738C33.0575 38.0405 33.0642 38.0049 33.0639 37.969C33.0709 37.9017 33.0522 37.8342 33.0116 37.7802H32.9855ZM29.4366 35.4888C29.6297 35.4881 29.821 35.5257 29.9995 35.5995C30.178 35.6733 30.3401 35.7818 30.4767 35.9188C30.6132 36.0557 30.7213 36.2184 30.7949 36.3975C30.8685 36.5766 30.906 36.7685 30.9053 36.9622C30.9053 37.1555 30.8673 37.3468 30.7934 37.5253C30.7195 37.7038 30.6112 37.8658 30.4748 38.0022C30.3384 38.1386 30.1764 38.2467 29.9982 38.3202C29.8201 38.3936 29.6292 38.4311 29.4366 38.4304C29.0485 38.4304 28.6762 38.2757 28.4018 38.0004C28.1273 37.725 27.9731 37.3516 27.9731 36.9622C27.9724 36.769 28.0098 36.5775 28.083 36.3987C28.1563 36.22 28.2639 36.0575 28.3999 35.9206C28.5359 35.7837 28.6974 35.6751 28.8753 35.601C29.0532 35.5269 29.244 35.4887 29.4366 35.4888ZM29.63 36.7734C29.6063 36.7469 29.5773 36.7257 29.5449 36.7112C29.5124 36.6968 29.4773 36.6894 29.4418 36.6895C29.4055 36.689 29.3695 36.6961 29.3361 36.7106C29.3028 36.7251 29.2729 36.7465 29.2484 36.7734C29.2229 36.7976 29.2028 36.827 29.1893 36.8595C29.1758 36.892 29.1692 36.927 29.17 36.9622C29.1685 36.9983 29.1746 37.0343 29.1882 37.0678C29.2017 37.1013 29.2223 37.1314 29.2484 37.1562C29.2739 37.1815 29.3041 37.2014 29.3373 37.2149C29.3705 37.2284 29.406 37.2352 29.4418 37.2349C29.5124 37.2347 29.5801 37.2064 29.63 37.1562C29.6562 37.1314 29.6767 37.1013 29.6902 37.0678C29.7038 37.0343 29.71 36.9983 29.7084 36.9622C29.7127 36.9288 29.7103 36.8949 29.7013 36.8625C29.6923 36.8301 29.677 36.7998 29.6561 36.7734H29.63ZM32.766 30.3343C32.959 30.3336 33.1503 30.3712 33.3288 30.445C33.5073 30.5188 33.6695 30.6273 33.806 30.7643C33.9426 30.9013 34.0507 31.064 34.1243 31.2431C34.1978 31.4221 34.2354 31.614 34.2347 31.8077C34.2358 32.2004 34.0816 32.5775 33.8061 32.8565C33.6358 33.0285 33.4259 33.1557 33.195 33.2268C32.964 33.2979 32.7191 33.3108 32.482 33.2643C32.2449 33.2177 32.0228 33.1132 31.8356 32.96C31.6484 32.8068 31.5017 32.6096 31.4086 32.3859C31.3155 32.1623 31.2789 31.919 31.3019 31.6777C31.325 31.4364 31.407 31.2046 31.5407 31.0027C31.6745 30.8008 31.8558 30.6351 32.0686 30.5204C32.2814 30.4056 32.5191 30.3453 32.7608 30.3448L32.766 30.3343ZM32.9594 31.6137C32.9339 31.5885 32.9037 31.5685 32.8705 31.555C32.8373 31.5415 32.8018 31.5347 32.766 31.5351C32.6953 31.5352 32.6277 31.5635 32.5778 31.6137C32.551 31.6383 32.5296 31.6683 32.5152 31.7017C32.5008 31.7352 32.4936 31.7713 32.4942 31.8077C32.498 31.8788 32.5278 31.946 32.578 31.9963C32.6282 32.0467 32.6951 32.0766 32.766 32.0804C32.8023 32.081 32.8383 32.0738 32.8717 32.0593C32.905 32.0449 32.9349 32.0234 32.9594 31.9965C33.0094 31.9465 33.0376 31.8786 33.0378 31.8077C33.0533 31.742 33.044 31.6729 33.0116 31.6137H32.9594ZM29.4105 29.3275C29.6031 29.3268 29.7939 29.3643 29.9721 29.4378C30.1503 29.5112 30.3122 29.6193 30.4487 29.7557C30.5851 29.8921 30.6934 30.0542 30.7673 30.2326C30.8411 30.4111 30.8792 30.6025 30.8792 30.7957C30.8798 30.9894 30.8423 31.1813 30.7688 31.3604C30.6952 31.5395 30.587 31.7022 30.4505 31.8392C30.314 31.9761 30.1518 32.0846 29.9733 32.1584C29.7948 32.2322 29.6035 32.2699 29.4105 32.2692C29.2178 32.2692 29.0271 32.231 28.8492 32.1569C28.6713 32.0828 28.5097 31.9742 28.3738 31.8373C28.2378 31.7004 28.1301 31.5379 28.0569 31.3592C27.9837 31.1805 27.9463 30.989 27.947 30.7957C27.947 30.4063 28.1012 30.0329 28.3756 29.7575C28.6501 29.4822 29.0223 29.3275 29.4105 29.3275ZM29.6038 30.6017C29.554 30.5515 29.4863 30.5232 29.4157 30.5231C29.3799 30.5227 29.3444 30.5295 29.3112 30.543C29.278 30.5565 29.2478 30.5765 29.2223 30.6017C29.1969 30.6271 29.1769 30.6574 29.1634 30.6907C29.1499 30.724 29.1433 30.7598 29.1439 30.7957C29.143 30.8317 29.1495 30.8675 29.163 30.9009C29.1764 30.9343 29.1966 30.9645 29.2223 30.9897C29.2478 31.015 29.278 31.0349 29.3112 31.0484C29.3444 31.0619 29.3799 31.0687 29.4157 31.0684C29.4863 31.0682 29.554 31.0399 29.6038 30.9897C29.6295 30.9645 29.6497 30.9343 29.6632 30.9009C29.6767 30.8675 29.6832 30.8317 29.6822 30.7957C29.6983 30.7301 29.689 30.6607 29.6561 30.6017H29.6038ZM46.5382 39.0544C46.9185 38.8969 47.266 38.6692 47.5627 38.3832C47.694 38.2636 47.7761 38.099 47.7926 37.9218V33.5224C47.4346 33.7592 47.0548 33.9611 46.6585 34.1254C45.3472 34.6348 43.9805 34.9868 42.5869 35.1741C40.8811 35.4306 39.1583 35.5568 37.4334 35.5517C34.7597 35.6051 32.0915 35.2875 29.5045 34.6078C28.6393 34.3719 27.8146 34.006 27.0585 33.5224V37.9323C27.0585 38.5353 28.1038 39.1593 29.839 39.6679C32.3138 40.3281 34.8677 40.6422 37.4282 40.6013C39.2066 40.6089 40.9826 40.4703 42.7385 40.187C44.0683 39.9946 45.3648 39.617 46.5905 39.0649L46.5382 39.0544ZM47.7508 39.7361C47.5409 39.8796 47.3208 40.0075 47.0923 40.1189C45.7628 40.7226 44.3552 41.1357 42.9109 41.3459C41.0898 41.6435 39.2472 41.789 37.402 41.7811C34.7281 41.8206 32.0617 41.4889 29.4784 40.7953C28.6118 40.5586 27.7855 40.1927 27.0271 39.7099V44.1197C27.0271 44.728 28.0724 45.3467 29.8129 45.8606C32.2877 46.5208 34.8416 46.8349 37.402 46.794C39.9625 46.8346 42.5163 46.5205 44.9912 45.8606C46.7107 45.3362 47.7717 44.728 47.7717 44.125L47.7508 39.7361ZM46.1881 33.0347C46.6629 32.8527 47.1031 32.5902 47.4895 32.2587C47.6577 32.1311 47.7701 31.9432 47.8031 31.7343V27.3087C47.0746 27.7721 46.2821 28.1255 45.4511 28.3574C45.3 28.4017 45.1376 28.3848 44.9989 28.3103C44.8601 28.2358 44.756 28.1096 44.7089 27.9589C44.6864 27.8842 44.6789 27.8058 44.6867 27.7281C44.6945 27.6505 44.7175 27.5751 44.7544 27.5064C44.7913 27.4377 44.8414 27.377 44.9017 27.3278C44.9621 27.2786 45.0316 27.2418 45.1061 27.2196C45.8643 27.0112 46.5855 26.6857 47.2438 26.2548C47.6045 25.9926 47.8031 25.7304 47.8031 25.5049C47.8031 24.8967 46.7578 24.2779 45.0225 23.764C42.5477 23.1041 39.9939 22.7901 37.4334 22.8307C34.8732 22.788 32.3193 23.1003 29.8443 23.7588C28.1247 24.2832 27.0585 24.8914 27.0585 25.4997C27.0585 26.1079 28.1038 26.7214 29.8443 27.2353C32.3191 27.8955 34.8729 28.2096 37.4334 28.1687C38.5937 28.1687 39.7018 28.1162 40.7262 28.0166C41.7197 27.9254 42.7074 27.7784 43.6845 27.5761C43.837 27.5486 43.9942 27.5818 44.1227 27.6686C44.2513 27.7554 44.341 27.8891 44.373 28.0412C44.405 28.1933 44.3766 28.3519 44.2939 28.4834C44.2112 28.6149 44.0807 28.7089 43.9301 28.7455C42.9086 28.9595 41.8754 29.1136 40.836 29.2069C39.7488 29.3118 38.6042 29.3642 37.4334 29.3642C34.7598 29.4052 32.0933 29.0752 29.5098 28.3837C28.6431 28.147 27.8168 27.7811 27.0585 27.2982V31.7081C27.0585 32.3164 28.1038 32.9351 29.8443 33.449C32.3199 34.1046 34.8733 34.4169 37.4334 34.3771C39.0969 34.385 40.7585 34.2658 42.4039 34.0205C43.7018 33.845 44.974 33.5141 46.1933 33.0347H46.1881ZM49 25.5049C49 24.3146 47.5993 23.3078 45.3413 22.6367C42.7578 21.9451 40.0913 21.6151 37.4177 21.6561C34.7424 21.6152 32.0742 21.9452 29.4889 22.6367C27.2518 23.3078 25.8616 24.3146 25.8302 25.5049V44.1512C25.8302 45.3467 27.2362 46.3535 29.4889 47.0194C32.0742 47.7109 34.7424 48.0409 37.4177 48C40.0913 48.041 42.7578 47.711 45.3413 47.0194C47.5836 46.3535 48.9686 45.3415 49 44.1512V25.5049ZM21.5025 33.8423C22.0996 34.0101 22.7129 34.1138 23.3318 34.1516C23.4729 34.1522 23.6092 34.203 23.7164 34.295C23.8236 34.3869 23.8948 34.514 23.9174 34.6537C23.94 34.7934 23.9125 34.9366 23.8397 35.0578C23.7669 35.179 23.6536 35.2704 23.52 35.3157C21.3718 36.076 19.3387 36.2753 17.5302 35.7404C15.622 35.1317 14.0036 33.8402 12.983 32.1119L12.1677 32.6048C12.074 32.6594 11.9677 32.6884 11.8593 32.6887C11.7017 32.6873 11.5509 32.6239 11.4395 32.5121C11.328 32.4003 11.2648 32.249 11.2635 32.0909L11.2948 26.1237C11.2892 26.0191 11.3111 25.9149 11.3582 25.8215C11.4054 25.7281 11.4762 25.6487 11.5635 25.5914C11.6508 25.534 11.7516 25.5007 11.8558 25.4947C11.96 25.4888 12.064 25.5104 12.1572 25.5574L17.5459 28.3155C17.6487 28.3664 17.7342 28.4466 17.7916 28.5462C17.8718 28.6825 17.8948 28.8452 17.8557 28.9986C17.8165 29.1519 17.7182 29.2834 17.5825 29.3642L16.6522 29.8886C16.976 30.5181 17.3839 31.1002 17.8648 31.619C18.4256 32.224 19.0805 32.734 19.8038 33.1291C20.3418 33.4269 20.9117 33.6626 21.5025 33.8318V33.8423ZM20.5669 34.7966C20.1052 34.6305 19.6578 34.4271 19.2289 34.1883C18.394 33.7314 17.6371 33.1437 16.9867 32.4475C16.3446 31.7379 15.8157 30.9332 15.4187 30.0616L15.356 29.92C15.2928 29.7816 15.2847 29.6243 15.3333 29.48C15.3819 29.3358 15.4834 29.2156 15.6173 29.144L16.0668 28.8713L12.497 27.0623V31.0317L12.6381 30.9478L12.9046 30.78C12.9711 30.739 13.045 30.7116 13.1221 30.6994C13.1992 30.6873 13.2779 30.6905 13.3537 30.7091C13.4295 30.7276 13.501 30.761 13.5638 30.8074C13.6267 30.8538 13.6798 30.9122 13.72 30.9792C13.7217 30.9914 13.7217 31.0038 13.72 31.016L13.788 31.1313C14.9221 33.0347 16.3072 34.1359 17.8595 34.6078C18.7398 34.854 19.6598 34.9235 20.5669 34.8123V34.7966ZM30.5499 9.86323C29.9613 9.69683 29.3569 9.59314 28.7467 9.55386C28.6245 9.55041 28.5063 9.51001 28.4074 9.43796C28.3085 9.36591 28.2337 9.26557 28.1926 9.1501C28.1384 9.00335 28.1442 8.84103 28.2088 8.69857C28.2735 8.55612 28.3917 8.44511 28.5376 8.38978C30.6805 7.62945 32.7189 7.42495 34.5221 7.9598C36.4303 8.56855 38.0488 9.86003 39.0693 11.5884L39.8899 11.0955C39.9811 11.0414 40.085 11.0127 40.191 11.0123C40.2969 11.0119 40.401 11.0399 40.4926 11.0933C40.5842 11.1467 40.66 11.2236 40.712 11.3162C40.7641 11.4088 40.7906 11.5136 40.7889 11.6198L40.768 17.5818C40.7751 17.6854 40.7533 17.7888 40.7053 17.8807C40.6704 17.951 40.6219 18.0136 40.5626 18.065C40.5034 18.1163 40.4345 18.1553 40.3601 18.1797C40.2857 18.2041 40.2072 18.2134 40.1292 18.2071C40.0512 18.2007 39.9752 18.1789 39.9056 18.1429L34.496 15.4057C34.3938 15.3585 34.3094 15.2794 34.2556 15.1803C34.2164 15.111 34.1915 15.0346 34.1824 14.9555C34.1733 14.8765 34.1802 14.7964 34.2026 14.72C34.2251 14.6437 34.2626 14.5726 34.313 14.5112C34.3634 14.4497 34.4257 14.3991 34.496 14.3622L35.4264 13.8012C35.0939 13.1673 34.6772 12.5816 34.1876 12.0603C33.6272 11.4569 32.9744 10.9471 32.2538 10.5501C31.7142 10.2531 31.1425 10.0191 30.5499 9.85274V9.86323ZM31.4854 8.91414C31.9478 9.08058 32.3969 9.28217 32.8287 9.51715C33.6627 9.97536 34.418 10.5649 35.0657 11.2633C35.7105 11.9706 36.2397 12.7758 36.6337 13.6491L36.6964 13.7907C36.7613 13.9283 36.7708 14.0856 36.7231 14.2301C36.6755 14.3746 36.5742 14.4951 36.4403 14.5667L35.9856 14.8342L39.5554 16.6432V12.6738L39.4143 12.7577L39.1477 12.9203C39.0813 12.9613 39.0073 12.9886 38.9303 13.0008C38.8532 13.013 38.7745 13.0097 38.6987 12.9912C38.6228 12.9726 38.5514 12.9392 38.4886 12.8929C38.4257 12.8465 38.3726 12.7881 38.3324 12.721C38.3324 12.721 38.3324 12.721 38.3324 12.6895L38.2801 12.5847C37.1302 10.6812 35.7452 9.58007 34.1929 9.12388C33.313 8.87581 32.3929 8.80454 31.4854 8.91414ZM4.82422 17.4612C5.03859 17.4616 5.25073 17.5049 5.44819 17.5887C5.64564 17.6724 5.82444 17.7949 5.97408 17.9489C6.27208 18.2595 6.43854 18.6739 6.43854 19.1051C6.43854 19.5362 6.27208 19.9506 5.97408 20.2613C5.82409 20.4148 5.64522 20.537 5.44784 20.6207C5.25047 20.7044 5.0385 20.748 4.82422 20.749C4.60686 20.7532 4.391 20.712 4.19035 20.6281C3.9897 20.5441 3.80864 20.4192 3.65867 20.2613C3.36068 19.9506 3.19421 19.5362 3.19421 19.1051C3.19421 18.6739 3.36068 18.2595 3.65867 17.9489C3.81015 17.793 3.99149 17.6694 4.19179 17.5856C4.39209 17.5018 4.60721 17.4595 4.82422 17.4612ZM5.11691 18.7826C5.07899 18.7441 5.03382 18.7135 4.98403 18.6926C4.93423 18.6717 4.8808 18.661 4.82683 18.661C4.77286 18.661 4.71943 18.6717 4.66964 18.6926C4.61984 18.7135 4.57467 18.7441 4.53675 18.7826C4.45366 18.8704 4.40695 18.9866 4.40609 19.1077C4.40613 19.2274 4.45306 19.3423 4.53675 19.4276C4.57391 19.4674 4.61883 19.4992 4.66873 19.5209C4.71863 19.5426 4.77244 19.5538 4.82683 19.5538C4.88122 19.5538 4.93504 19.5426 4.98493 19.5209C5.03483 19.4992 5.07975 19.4674 5.11691 19.4276C5.2006 19.3423 5.24753 19.2274 5.24758 19.1077C5.24671 18.9866 5.2 18.8704 5.11691 18.7826ZM8.73376 17.4612C8.94814 17.4616 9.16028 17.5049 9.35773 17.5887C9.55519 17.6724 9.73399 17.7949 9.88363 17.9489C10.1816 18.2595 10.3481 18.6739 10.3481 19.1051C10.3481 19.5362 10.1816 19.9506 9.88363 20.2613C9.73363 20.4148 9.55477 20.537 9.35739 20.6207C9.16002 20.7044 8.94805 20.748 8.73376 20.749C8.51991 20.7503 8.30804 20.7077 8.1112 20.6238C7.91435 20.54 7.73668 20.4166 7.58913 20.2613C7.28866 19.9533 7.12149 19.5387 7.12395 19.1077C7.12292 18.6754 7.28977 18.2598 7.58913 17.9489C7.73815 17.7955 7.9161 17.6734 8.11261 17.5897C8.30912 17.506 8.52027 17.4623 8.73376 17.4612ZM9.02646 18.7826C8.98854 18.7441 8.94337 18.7135 8.89357 18.6926C8.84378 18.6717 8.79035 18.661 8.73638 18.661C8.68241 18.661 8.62898 18.6717 8.57918 18.6926C8.52939 18.7135 8.48422 18.7441 8.4463 18.7826C8.36321 18.8704 8.3165 18.9866 8.31563 19.1077C8.31568 19.2274 8.3626 19.3423 8.4463 19.4276C8.48346 19.4674 8.52838 19.4992 8.57828 19.5209C8.62817 19.5426 8.68199 19.5538 8.73638 19.5538C8.79077 19.5538 8.84458 19.5426 8.89448 19.5209C8.94438 19.4992 8.9893 19.4674 9.02646 19.4276C9.06886 19.386 9.10233 19.3362 9.1248 19.2812C9.14728 19.2262 9.15828 19.1672 9.15712 19.1077C9.15626 18.9866 9.10955 18.8704 9.02646 18.7826ZM4.84513 10.0572C5.06001 10.0574 5.27264 10.1012 5.47024 10.1859C5.66784 10.2706 5.84633 10.3945 5.99499 10.5501C6.29386 10.8593 6.46101 11.2731 6.46101 11.7037C6.46101 12.1344 6.29386 12.5482 5.99499 12.8573C5.84826 13.0153 5.67068 13.1413 5.47331 13.2275C5.27593 13.3136 5.06299 13.3581 4.84774 13.3581C4.63249 13.3581 4.41955 13.3136 4.22217 13.2275C4.02479 13.1413 3.84721 13.0153 3.70048 12.8573C3.40161 12.5482 3.23447 12.1344 3.23447 11.7037C3.23447 11.2731 3.40161 10.8593 3.70048 10.5501C3.84517 10.3964 4.01925 10.2736 4.21232 10.1889C4.4054 10.1042 4.61351 10.0594 4.82422 10.0572H4.84513ZM5.13782 11.3839C5.10066 11.344 5.05574 11.3123 5.00584 11.2905C4.95594 11.2688 4.90213 11.2576 4.84774 11.2576C4.79335 11.2576 4.73953 11.2688 4.68964 11.2905C4.63974 11.3123 4.59482 11.344 4.55766 11.3839C4.47403 11.4692 4.42716 11.5841 4.42716 11.7037C4.42716 11.8234 4.47403 11.9383 4.55766 12.0236C4.59482 12.0634 4.63974 12.0952 4.68964 12.1169C4.73953 12.1387 4.79335 12.1499 4.84774 12.1499C4.90213 12.1499 4.95594 12.1387 5.00584 12.1169C5.05574 12.0952 5.10066 12.0634 5.13782 12.0236C5.22145 11.9383 5.26832 11.8234 5.26832 11.7037C5.26832 11.5841 5.22145 11.4692 5.13782 11.3839ZM8.75467 10.0572C8.96955 10.0574 9.18219 10.1012 9.37979 10.1859C9.57739 10.2706 9.75588 10.3945 9.90454 10.5501C10.2034 10.8593 10.3706 11.2731 10.3706 11.7037C10.3706 12.1344 10.2034 12.5482 9.90454 12.8573C9.67834 13.0853 9.38961 13.2406 9.07514 13.3034C8.76066 13.3662 8.43467 13.3337 8.13869 13.2099C7.84272 13.0862 7.59014 12.8769 7.41315 12.6087C7.23616 12.3404 7.14277 12.0254 7.14486 11.7037C7.14296 11.2729 7.31004 10.8585 7.61003 10.5501C7.75472 10.3964 7.9288 10.2736 8.12187 10.1889C8.31495 10.1042 8.52305 10.0594 8.73376 10.0572H8.75467ZM9.04736 11.3839C9.01021 11.344 8.96529 11.3123 8.91539 11.2905C8.86549 11.2688 8.81168 11.2576 8.75728 11.2576C8.70289 11.2576 8.64908 11.2688 8.59918 11.2905C8.54928 11.3123 8.50436 11.344 8.46721 11.3839C8.38357 11.4692 8.33671 11.5841 8.33671 11.7037C8.33671 11.8234 8.38357 11.9383 8.46721 12.0236C8.50436 12.0634 8.54928 12.0952 8.59918 12.1169C8.64908 12.1387 8.70289 12.1499 8.75728 12.1499C8.81168 12.1499 8.86549 12.1387 8.91539 12.1169C8.96529 12.0952 9.01021 12.0634 9.04736 12.0236C9.08977 11.9821 9.12324 11.9323 9.14571 11.8772C9.16818 11.8222 9.17918 11.7632 9.17803 11.7037C9.1753 11.643 9.16048 11.5834 9.13445 11.5284C9.10842 11.4735 9.0717 11.4244 9.02646 11.3839H9.04736ZM4.86603 2.65851C5.08077 2.65647 5.29363 2.6987 5.49143 2.78258C5.68922 2.86647 5.86773 2.99022 6.0159 3.14617C6.31389 3.45684 6.48036 3.87123 6.48036 4.30238C6.48036 4.73353 6.31389 5.14793 6.0159 5.4586C5.86683 5.61256 5.68849 5.73496 5.49143 5.81854C5.29437 5.90212 5.08259 5.94519 4.86864 5.94519C4.6547 5.94519 4.44292 5.90212 4.24586 5.81854C4.0488 5.73496 3.87046 5.61256 3.72139 5.4586C3.41483 5.15614 3.23703 4.74627 3.22534 4.31507C3.21364 3.88387 3.36896 3.4649 3.65867 3.14617C3.80864 2.98826 3.9897 2.86337 4.19035 2.77941C4.391 2.69546 4.60686 2.65429 4.82422 2.65851H4.86603ZM5.15872 3.9799C5.12157 3.94005 5.07665 3.90828 5.02675 3.88656C4.97685 3.86484 4.92304 3.85364 4.86864 3.85364C4.81425 3.85364 4.76044 3.86484 4.71054 3.88656C4.66064 3.90828 4.61572 3.94005 4.57856 3.9799C4.49487 4.0652 4.44794 4.18007 4.4479 4.29976C4.44876 4.42083 4.49547 4.53705 4.57856 4.62486C4.61649 4.66339 4.66165 4.69398 4.71145 4.71485C4.76124 4.73573 4.81468 4.74648 4.86864 4.74648C4.92261 4.74648 4.97605 4.73573 5.02584 4.71485C5.07564 4.69398 5.1208 4.66339 5.15872 4.62486C5.21945 4.52816 5.24356 4.41279 5.22667 4.29976C5.2323 4.18297 5.19301 4.06847 5.11691 3.9799H5.15872ZM8.77558 2.65851C8.99031 2.65647 9.20317 2.6987 9.40097 2.78258C9.59877 2.86647 9.77728 2.99022 9.92544 3.14617C10.2234 3.45684 10.3899 3.87123 10.3899 4.30238C10.3899 4.73353 10.2234 5.14793 9.92544 5.4586C9.70167 5.70219 9.40884 5.87111 9.08643 5.94261C8.76401 6.01411 8.4275 5.98474 8.12223 5.85847C7.81696 5.73219 7.55761 5.51508 7.37912 5.23638C7.20062 4.95768 7.11157 4.6308 7.12395 4.29976C7.12427 3.86931 7.29103 3.45577 7.58913 3.14617C7.73668 2.99087 7.91435 2.86749 8.1112 2.78363C8.30804 2.69976 8.51991 2.65719 8.73376 2.65851H8.77558ZM9.06827 3.9799C9.03111 3.94005 8.98619 3.90828 8.93629 3.88656C8.8864 3.86484 8.83258 3.85364 8.77819 3.85364C8.7238 3.85364 8.66999 3.86484 8.62009 3.88656C8.57019 3.90828 8.52527 3.94005 8.48811 3.9799C8.40442 4.0652 8.35749 4.18007 8.35744 4.29976C8.35831 4.42083 8.40502 4.53705 8.48811 4.62486C8.52603 4.66339 8.5712 4.69398 8.621 4.71485C8.67079 4.73573 8.72422 4.74648 8.77819 4.74648C8.83216 4.74648 8.88559 4.73573 8.93539 4.71485C8.98518 4.69398 9.03035 4.66339 9.06827 4.62486C9.15223 4.53865 9.19924 4.42291 9.19924 4.30238C9.19924 4.18185 9.15223 4.06611 9.06827 3.9799ZM14.781 19.7107C14.6977 19.7185 14.6137 19.7088 14.5344 19.6822C14.4551 19.6556 14.3821 19.6127 14.3203 19.5561C14.2584 19.4996 14.209 19.4308 14.1752 19.354C14.1414 19.2773 14.124 19.1943 14.124 19.1103C14.124 19.0264 14.1414 18.9434 14.1752 18.8666C14.209 18.7899 14.2584 18.721 14.3203 18.6645C14.3821 18.608 14.4551 18.5651 14.5344 18.5385C14.6137 18.5118 14.6977 18.5021 14.781 18.5099H22.6628C22.8119 18.5239 22.9504 18.5932 23.0512 18.7043C23.152 18.8153 23.2079 18.9601 23.2079 19.1103C23.2079 19.2605 23.152 19.4053 23.0512 19.5164C22.9504 19.6274 22.8119 19.6967 22.6628 19.7107H14.781ZM1.53664 16.0035C1.44694 16.0055 1.36122 16.0411 1.29622 16.1031C1.23301 16.1674 1.19737 16.254 1.19691 16.3443V21.8659C1.19691 21.9562 1.2327 22.0429 1.29642 22.1069C1.36013 22.1708 1.44654 22.2067 1.53664 22.2067H24.696C24.7407 22.2073 24.7851 22.1988 24.8264 22.1817C24.8678 22.1646 24.9052 22.1392 24.9364 22.1071C24.9689 22.0758 24.9949 22.0384 25.0128 21.997C25.0308 21.9556 25.0403 21.911 25.041 21.8659V16.3443C25.0383 16.2539 25.0009 16.168 24.9367 16.1045C24.8724 16.041 24.7862 16.0048 24.696 16.0035H1.53664ZM25.9138 15.4057C26.1227 15.6735 26.2351 16.0043 26.2326 16.3443V21.8659C26.2326 22.2747 26.0708 22.6668 25.7826 22.9559C25.4944 23.2451 25.1035 23.4075 24.696 23.4075H1.53664C1.1291 23.4075 0.738252 23.2451 0.450076 22.9559C0.1619 22.6668 4.39686e-06 22.2747 4.39686e-06 21.8659V16.3443C-4.72414e-05 16.0047 0.112071 15.6746 0.318831 15.4057C0.113403 15.1341 0.00151065 14.8028 4.39686e-06 14.4619V8.9456C0.00151065 8.60463 0.113403 8.27339 0.318831 8.00175C0.111328 7.73122 -0.000809268 7.39925 4.39686e-06 7.0579V1.54162C4.39686e-06 1.13276 0.1619 0.74064 0.450076 0.45153C0.738252 0.16242 1.1291 0 1.53664 0L24.696 0C25.1035 0 25.4944 0.16242 25.7826 0.45153C26.0708 0.74064 26.2326 1.13276 26.2326 1.54162V7.0579C26.2335 7.39925 26.1213 7.73122 25.9138 8.00175C26.1228 8.2715 26.2351 8.60398 26.2326 8.9456V14.4619C26.2311 14.8028 26.1192 15.1341 25.9138 15.4057ZM14.9692 12.3015H22.8771C23.0262 12.2875 23.1647 12.2182 23.2655 12.1072C23.3663 11.9961 23.4222 11.8513 23.4222 11.7011C23.4222 11.5509 23.3663 11.4061 23.2655 11.2951C23.1647 11.184 23.0262 11.1147 22.8771 11.1007H14.9692C14.8201 11.1147 14.6816 11.184 14.5808 11.2951C14.48 11.4061 14.4241 11.5509 14.4241 11.7011C14.4241 11.8513 14.48 11.9961 14.5808 12.1072C14.6816 12.2182 14.8201 12.2875 14.9692 12.3015ZM1.53664 7.40398H24.696C24.7867 7.40134 24.8729 7.36403 24.937 7.29969C25.0011 7.23535 25.0383 7.14885 25.041 7.0579V1.54162C25.0403 1.49647 25.0308 1.4519 25.0128 1.41049C24.9949 1.36909 24.9689 1.33167 24.9364 1.30042C24.9052 1.2683 24.8678 1.2429 24.8264 1.22577C24.7851 1.20864 24.7407 1.20014 24.696 1.20079H1.53664C1.44654 1.20079 1.36013 1.2367 1.29642 1.30061C1.2327 1.36453 1.19691 1.45123 1.19691 1.54162V7.0579C1.19627 7.10276 1.20474 7.14729 1.22182 7.18876C1.23889 7.23023 1.26421 7.26777 1.29622 7.2991C1.326 7.33202 1.3623 7.35835 1.4028 7.37641C1.4433 7.39447 1.4871 7.40386 1.53142 7.40398H1.53664ZM25.0566 14.4619V8.9456C25.0567 8.90039 25.0477 8.85564 25.0303 8.81394C25.0129 8.77225 24.9874 8.73444 24.9553 8.70272C24.9232 8.671 24.8851 8.646 24.8433 8.62919C24.8015 8.61237 24.7567 8.60407 24.7117 8.60476H1.53142C1.44297 8.60547 1.35841 8.64129 1.29622 8.70439C1.26421 8.73572 1.23889 8.77327 1.22182 8.81474C1.20474 8.85621 1.19627 8.90073 1.19691 8.9456V14.4619C1.19691 14.5523 1.2327 14.639 1.29642 14.7029C1.36013 14.7668 1.44654 14.8027 1.53664 14.8027H24.696C24.7407 14.8031 24.785 14.7944 24.8263 14.7773C24.8676 14.7602 24.905 14.735 24.9364 14.7031C24.9694 14.6722 24.9957 14.6349 25.0137 14.5934C25.0316 14.5519 25.0409 14.5071 25.041 14.4619H25.0566ZM15.2514 4.90278H23.1698C23.2531 4.91059 23.3371 4.90088 23.4164 4.87426C23.4958 4.84765 23.5687 4.80471 23.6305 4.74819C23.6924 4.69168 23.7418 4.62284 23.7756 4.54607C23.8094 4.46931 23.8269 4.38631 23.8269 4.30238C23.8269 4.21846 23.8094 4.13546 23.7756 4.05869C23.7418 3.98192 23.6924 3.91308 23.6305 3.85657C23.5687 3.80006 23.4958 3.75712 23.4164 3.7305C23.3371 3.70388 23.2531 3.69417 23.1698 3.70199H15.2514C15.1681 3.69417 15.0841 3.70388 15.0048 3.7305C14.9255 3.75712 14.8525 3.80006 14.7907 3.85657C14.7288 3.91308 14.6794 3.98192 14.6456 4.05869C14.6118 4.13546 14.5944 4.21846 14.5944 4.30238C14.5944 4.38631 14.6118 4.46931 14.6456 4.54607C14.6794 4.62284 14.7288 4.69168 14.7907 4.74819C14.8525 4.80471 14.9255 4.84765 15.0048 4.87426C15.0841 4.90088 15.1681 4.91059 15.2514 4.90278ZM42.9528 44.2666C42.8011 44.2867 42.6476 44.2476 42.524 44.1573C42.4003 44.067 42.316 43.9325 42.2885 43.7816C42.2609 43.6307 42.2923 43.4749 42.3761 43.3465C42.4598 43.2182 42.5896 43.127 42.7385 43.092C43.472 42.9641 44.1965 42.7889 44.9075 42.5676C45.4504 42.3992 45.9756 42.1779 46.4755 41.9069C46.6141 41.8277 46.7785 41.8069 46.9324 41.8492C47.0086 41.8701 47.0799 41.9059 47.1423 41.9545C47.2047 42.0031 47.257 42.0635 47.2961 42.1324C47.3352 42.2013 47.3605 42.2772 47.3703 42.3558C47.3802 42.4345 47.3746 42.5143 47.3537 42.5907C47.3328 42.6672 47.2971 42.7387 47.2487 42.8014C47.2003 42.864 47.14 42.9164 47.0714 42.9557C46.5016 43.2706 45.9008 43.5254 45.2786 43.716C44.52 43.9568 43.7466 44.1477 42.9632 44.2875L42.9528 44.2666ZM42.9528 38.2731C42.8011 38.2932 42.6476 38.2541 42.524 38.1638C42.4003 38.0736 42.316 37.939 42.2885 37.7881C42.2609 37.6372 42.2923 37.4815 42.3761 37.3531C42.4598 37.2247 42.5896 37.1336 42.7385 37.0985C43.4714 36.9682 44.1958 36.7931 44.9075 36.5742C45.4514 36.4063 45.9768 36.1832 46.4755 35.9082C46.5442 35.869 46.6198 35.8437 46.6982 35.8338C46.7766 35.8239 46.8562 35.8295 46.9324 35.8505C47.0086 35.8714 47.0799 35.9072 47.1423 35.9558C47.2047 36.0044 47.257 36.0649 47.2961 36.1337C47.3352 36.2026 47.3605 36.2785 47.3703 36.3571C47.3802 36.4358 47.3746 36.5156 47.3537 36.592C47.3328 36.6685 47.2971 36.7401 47.2487 36.8027C47.2003 36.8653 47.14 36.9177 47.0714 36.957C46.5005 37.2696 45.8999 37.5243 45.2786 37.7173C44.5116 37.9504 43.7314 38.1378 42.9423 38.2784L42.9528 38.2731Z" fill="#6C96F9"/>
</g>
<defs>
<clipPath id="clip0_61_404">
<rect width="49" height="48" fill="white"/>
</clipPath>
</defs>
</svg>
