<svg width="55" height="55" viewBox="0 0 55 55" fill="none" xmlns="http://www.w3.org/2000/svg">
<g clip-path="url(#clip0_61_438)">
<path fill-rule="evenodd" clip-rule="evenodd" d="M24.8867 54.9826C24.5577 54.9842 24.239 54.8686 23.9876 54.6565C23.7362 54.4444 23.5687 54.1496 23.515 53.8251L22.7452 49.1949C20.156 48.6562 17.6892 47.6416 15.4701 46.2027L11.7429 48.9171C11.4749 49.1088 11.1478 49.1994 10.8194 49.1729C10.491 49.1464 10.1825 49.0046 9.94874 48.7724L6.22728 45.051C5.99305 44.8184 5.84972 44.5097 5.82318 44.1807C5.79665 43.8516 5.88866 43.5239 6.08259 43.2568L8.79699 39.4775C7.3569 37.2634 6.3367 34.8032 5.78742 32.2198L1.20939 31.5021C0.884325 31.452 0.588273 31.2862 0.375625 31.0353C0.162977 30.7843 0.048015 30.4651 0.0518608 30.1362V24.8868C0.0478235 24.5573 0.162583 24.2373 0.375141 23.9854C0.587699 23.7335 0.883844 23.5666 1.20939 23.5152L5.78742 22.7512C6.34565 20.1633 7.36509 17.6971 8.79699 15.4703L6.08259 11.7431C5.88677 11.4771 5.79306 11.1495 5.81856 10.8202C5.84406 10.4908 5.98706 10.1816 6.22149 9.94892L9.94874 6.22746C10.077 6.09876 10.2294 5.9967 10.3973 5.92717C10.5652 5.85764 10.7451 5.82201 10.9268 5.82232C11.2179 5.81981 11.502 5.91114 11.7371 6.08277L15.4933 8.77981C17.7241 7.3555 20.1919 6.3421 22.7799 5.7876L23.4976 1.20957C23.5492 0.879947 23.7182 0.580084 23.9735 0.365241C24.2287 0.150398 24.5531 0.0350539 24.8867 0.0404653H30.1592C30.4878 0.0378245 30.8064 0.153217 31.057 0.365651C31.3077 0.578084 31.4738 0.873443 31.5251 1.19799L32.2543 5.7876C34.8406 6.34504 37.3051 7.36456 39.5294 8.79717L43.2624 6.08277C43.5291 5.88768 43.8571 5.79496 44.1864 5.82152C44.5158 5.84808 44.8246 5.99216 45.0566 6.22746L48.7781 9.94892C49.0123 10.1815 49.1556 10.4902 49.1822 10.8192C49.2087 11.1483 49.1167 11.476 48.9227 11.7431L46.2257 15.4935C47.6584 17.7219 48.6778 20.1902 49.2353 22.7801L53.8249 23.4978C54.1529 23.5508 54.4507 23.7205 54.6635 23.9758C54.8762 24.2311 54.9895 24.5546 54.9824 24.8868V30.1536C54.9851 30.4822 54.8697 30.8008 54.6572 31.0514C54.4448 31.3021 54.1494 31.4682 53.8249 31.5195L49.1948 32.2545C48.6578 34.8434 47.6452 37.3101 46.2083 39.5296L48.9227 43.2626C49.1155 43.5302 49.2068 43.8576 49.1803 44.1863C49.1538 44.515 49.0112 44.8236 48.7781 45.0568L45.0508 48.7782C44.9226 48.9069 44.7701 49.009 44.6022 49.0785C44.4344 49.1481 44.2544 49.1837 44.0727 49.1834C43.7816 49.1859 43.4975 49.0946 43.2624 48.9229L39.4831 46.2085C37.2697 47.6575 34.8069 48.6838 32.2196 49.2355L31.5019 53.8251C31.4508 54.1486 31.2855 54.4432 31.0361 54.6555C30.7866 54.8678 30.4694 54.9838 30.1418 54.9826H24.8867ZM30.1534 53.6109L30.9695 48.6162V48.5699C30.9885 48.4287 31.0511 48.297 31.1487 48.1933C31.2462 48.0895 31.3738 48.0188 31.5135 47.9911C34.2407 47.4633 36.8332 46.3905 39.1358 44.8368C39.2482 44.7598 39.3816 44.7193 39.5178 44.7211C39.67 44.7203 39.8183 44.769 39.9403 44.86L44.0553 47.8175L47.7999 44.096L44.7846 39.8595C44.7196 39.7532 44.6853 39.631 44.6853 39.5064C44.6853 39.3818 44.7196 39.2597 44.7846 39.1534C46.3416 36.8498 47.4165 34.255 47.9446 31.5253C47.9647 31.3789 48.0322 31.243 48.1367 31.1385C48.2412 31.034 48.377 30.9666 48.5234 30.9465L53.5123 30.1304V24.8463L48.4713 24.0013C48.3298 23.9832 48.1977 23.9208 48.0938 23.8231C47.9898 23.7254 47.9194 23.5974 47.8925 23.4573C47.388 20.7457 46.347 18.1621 44.8309 15.8581C44.7462 15.7422 44.7006 15.6023 44.7006 15.4588C44.7006 15.3152 44.7462 15.1753 44.8309 15.0594L47.7884 10.9386L44.0669 7.194L39.8304 10.2151C39.73 10.2728 39.6162 10.3027 39.5005 10.302C39.3663 10.3018 39.2353 10.2615 39.1243 10.1862C36.8201 8.63142 34.2254 7.55851 31.4961 7.03194C31.3508 7.00919 31.2165 6.94089 31.1124 6.83688C31.0084 6.73286 30.9401 6.59851 30.9174 6.45318L30.1534 1.4295L24.8867 1.41214L24.0417 6.45318C24.0222 6.59323 23.9601 6.72391 23.8638 6.82745C23.7675 6.931 23.6417 7.00239 23.5034 7.03194C20.7688 7.55228 18.168 8.62136 15.8579 10.1746C15.7451 10.2507 15.612 10.2911 15.4759 10.2904C15.3249 10.2891 15.1785 10.2383 15.0592 10.1457L10.9384 7.18821L7.19382 10.9155L10.215 15.1462C10.2774 15.2556 10.3078 15.3804 10.3027 15.5063C10.2976 15.6322 10.2572 15.7541 10.186 15.8581C8.63238 18.1607 7.55953 20.7533 7.03176 23.4804C7.00988 23.6261 6.94185 23.7609 6.83768 23.8651C6.73351 23.9693 6.59868 24.0373 6.453 24.0592L1.42932 24.8521V30.1362L6.42985 30.9696H6.47036C6.61058 30.991 6.74099 31.0545 6.84434 31.1517C6.94769 31.2488 7.0191 31.3751 7.04913 31.5137C7.57428 34.2416 8.64734 36.8347 10.2034 39.136C10.2869 39.2535 10.3317 39.3941 10.3317 39.5383C10.3317 39.6824 10.2869 39.823 10.2034 39.9405L7.24591 44.0555L10.9731 47.8001L15.2039 44.7848C15.3109 44.7187 15.4341 44.6837 15.5599 44.6837C15.6856 44.6837 15.8088 44.7187 15.9158 44.7848C18.2196 46.3413 20.8143 47.4162 23.5439 47.9448C23.6896 47.9667 23.8244 48.0347 23.9286 48.1389C24.0328 48.2431 24.1008 48.3779 24.1227 48.5236L24.9387 53.5183L30.1534 53.6109ZM27.5027 43.2105C24.3961 43.2103 21.3594 42.289 18.7765 40.563C16.1936 38.837 14.1804 36.3839 12.9916 33.5138C11.8028 30.6437 11.4918 27.4856 12.0978 24.4387C12.7038 21.3919 14.1996 18.5931 16.3962 16.3964C17.847 14.9323 19.5747 13.7715 21.4784 12.9816C23.3822 12.1917 25.4242 11.7884 27.4853 11.7952C31.6512 11.7952 35.6465 13.4501 38.5923 16.3958C41.5381 19.3416 43.193 23.3369 43.193 27.5028C43.193 31.6688 41.5381 35.6641 38.5923 38.6098C35.6465 41.5556 31.6512 43.2105 27.4853 43.2105H27.5027ZM27.5027 13.1668C24.1825 13.1596 20.9628 14.3049 18.3932 16.4073C15.8235 18.5097 14.0633 21.4389 13.4129 24.6947C12.7626 27.9505 13.2625 31.3311 14.8272 34.2594C16.392 37.1877 18.9247 39.482 21.9928 40.7508C24.0238 41.587 26.2196 41.9456 28.4111 41.7989C30.6025 41.6522 32.731 41.0042 34.6323 39.9047C36.5337 38.8053 38.1572 37.2838 39.3775 35.4577C40.5978 33.6316 41.3824 31.5496 41.6708 29.3723C41.9511 27.1943 41.732 24.9811 41.0301 22.9004C40.3281 20.8197 39.1618 18.926 37.6195 17.3629C36.2939 16.0283 34.7166 14.9701 32.9789 14.2498C31.2413 13.5295 29.3779 13.1614 27.4969 13.1668V13.1205L27.5027 13.1668ZM17.3627 32.8506C17.1831 32.828 17.0193 32.7368 16.9055 32.596C16.8484 32.5261 16.8057 32.4457 16.7799 32.3593C16.754 32.2728 16.7456 32.1822 16.755 32.0924C16.7768 31.911 16.868 31.745 17.0097 31.6294L25.1124 25.1531C25.2336 25.0551 25.3848 25.002 25.5407 25.0026C25.6285 25.0012 25.7157 25.0174 25.7972 25.0502C25.8787 25.083 25.9528 25.1317 26.0152 25.1936L30.4196 29.0539L35.6575 23.7756L33.9559 24.0013H33.8344C33.6903 24.0017 33.55 23.955 33.435 23.8682C33.3611 23.8143 33.299 23.746 33.2522 23.6674C33.2055 23.5888 33.1751 23.5016 33.163 23.411C33.1501 23.3197 33.1559 23.2268 33.1801 23.1379C33.2043 23.049 33.2465 22.966 33.3039 22.8939C33.3613 22.8219 33.4329 22.7623 33.5141 22.7188C33.5954 22.6754 33.6847 22.649 33.7765 22.6412L37.5963 22.1319C37.7554 22.1379 37.9076 22.1989 38.0268 22.3044C38.146 22.4099 38.225 22.5535 38.2503 22.7107C38.2561 22.7723 38.2561 22.8343 38.2503 22.8959L37.7005 26.6231C37.6772 26.7822 37.5979 26.9278 37.4771 27.0339C37.3562 27.1399 37.2015 27.1995 37.0407 27.2019H36.925C36.8359 27.1894 36.7502 27.1595 36.6727 27.1138C36.5952 27.0681 36.5275 27.0076 36.4735 26.9357C36.4192 26.8637 36.3799 26.7815 36.358 26.694C36.3361 26.6065 36.3321 26.5154 36.3462 26.4263L36.5777 24.7884L30.9347 30.4835C30.8707 30.5467 30.7947 30.5966 30.7113 30.6304C30.6279 30.6642 30.5386 30.6811 30.4486 30.6803C30.2844 30.6812 30.1257 30.6214 30.0029 30.5124L25.4944 26.5595L17.8836 32.7002C17.7624 32.7981 17.6111 32.8512 17.4553 32.8506H17.3627Z" fill="#6C96F9"/>
<path d="M30.1419 0.0868534C30.4641 0.0893307 30.7747 0.207624 31.017 0.420135C31.2593 0.632647 31.417 0.9252 31.4615 1.24438L32.2139 5.78768C34.8065 6.35116 37.2767 7.37647 39.5063 8.81462L43.2856 6.10022C43.5443 5.91321 43.8612 5.82448 44.1793 5.84993C44.4975 5.87539 44.7962 6.01336 45.0219 6.23912L48.7492 9.96058C48.976 10.1856 49.1147 10.4845 49.1402 10.803C49.1657 11.1215 49.0762 11.4386 48.8881 11.6969L46.1737 15.4762C47.6141 17.7123 48.6377 20.1909 49.1948 22.7918L53.7844 23.5384C54.1038 23.5887 54.3941 23.7531 54.6016 24.001C54.8091 24.2489 54.9197 24.5637 54.913 24.8869V30.1537C54.9153 30.4733 54.8026 30.7831 54.5954 31.0264C54.3882 31.2698 54.1003 31.4304 53.7844 31.479L49.1948 32.2141C48.634 34.8076 47.6085 37.2782 46.1679 39.5065L48.8881 43.2858C49.0743 43.5452 49.1621 43.8624 49.1356 44.1806C49.1091 44.4988 48.97 44.7972 48.7434 45.0221L45.0219 48.7494C44.8975 48.8743 44.7495 48.9734 44.5866 49.041C44.4237 49.1085 44.2491 49.1432 44.0727 49.1429C43.7903 49.1418 43.5152 49.0528 43.2856 48.8883L39.5063 46.1681C37.278 47.6087 34.8074 48.6342 32.2139 49.195L31.4615 53.7846C31.4119 54.099 31.2517 54.3854 31.0098 54.5923C30.7679 54.7992 30.4602 54.913 30.1419 54.9132H24.8867C24.5674 54.9144 24.2583 54.8012 24.0152 54.5942C23.7721 54.3872 23.6111 54.1 23.5613 53.7846L22.7916 49.195C20.1966 48.6331 17.7243 47.6077 15.4933 46.1681L11.714 48.8883C11.4553 49.0753 11.1385 49.164 10.8203 49.1386C10.5021 49.1131 10.2034 48.9751 9.97772 48.7494L6.25626 45.0221C6.03051 44.7965 5.89253 44.4978 5.86707 44.1796C5.84162 43.8614 5.93035 43.5445 6.11736 43.2858L8.83177 39.5065C7.38996 37.2768 6.35893 34.8071 5.78746 32.2141L1.21522 31.4617C0.899836 31.4119 0.612669 31.2509 0.405667 31.0078C0.198665 30.7647 0.0854965 30.4556 0.086633 30.1363V24.8869C0.086329 24.5627 0.203367 24.2493 0.416132 24.0046C0.628896 23.7599 0.923014 23.6005 1.24416 23.5558L5.78746 22.786C6.35244 20.192 7.37762 17.7202 8.8144 15.4878L6.1 11.7084C5.91486 11.4487 5.8278 11.1317 5.85429 10.8138C5.88078 10.4959 6.01911 10.1977 6.24469 9.97215L9.96614 6.2507C10.0906 6.12574 10.2385 6.02663 10.4014 5.95909C10.5643 5.89154 10.739 5.85689 10.9153 5.85714C11.1976 5.85899 11.4725 5.94792 11.7024 6.11179L15.4818 8.8262C17.7169 7.38408 20.1928 6.35492 22.7916 5.78768L23.5382 1.21544C23.5896 0.896593 23.7543 0.606975 24.002 0.399688C24.2497 0.192401 24.5638 0.081335 24.8867 0.0868534H30.165M15.476 10.2442C15.3335 10.246 15.1946 10.199 15.0824 10.1111L10.9963 7.15357H10.9616H10.9269L7.20544 10.8808C7.20378 10.8923 7.20378 10.904 7.20544 10.9155C7.20201 10.9288 7.20201 10.9428 7.20544 10.9561L10.1282 15.1058C10.2029 15.2127 10.243 15.34 10.243 15.4704C10.243 15.6008 10.2029 15.7281 10.1282 15.835C8.57168 18.1438 7.49508 20.7418 6.96236 23.4747C6.93599 23.6123 6.86499 23.7373 6.76035 23.8305C6.65572 23.9236 6.52329 23.9796 6.38359 23.9898L1.42358 24.8059C1.41052 24.801 1.39613 24.801 1.38307 24.8059C1.37964 24.8192 1.37964 24.8331 1.38307 24.8464V30.1132C1.38056 30.1265 1.38056 30.1403 1.38307 30.1537C1.38948 30.1564 1.39636 30.1578 1.40332 30.1578C1.41028 30.1578 1.41717 30.1564 1.42358 30.1537L6.44726 30.9813C6.57602 31.0013 6.69557 31.0602 6.78975 31.1503C6.88394 31.2403 6.94822 31.3571 6.97393 31.4848C7.50453 34.2184 8.5813 36.8169 10.1398 39.1245C10.2131 39.2376 10.2496 39.3706 10.2444 39.5053C10.2393 39.64 10.1926 39.7698 10.1108 39.8769L7.15335 43.9977C7.15084 44.0111 7.15084 44.0248 7.15335 44.0382C7.15116 44.0497 7.15116 44.0615 7.15335 44.073L10.8806 47.8002C10.8918 47.8042 10.9041 47.8042 10.9153 47.8002C10.9153 47.8002 10.9153 47.8002 10.9443 47.8002L15.0882 44.8254C15.1975 44.7459 15.3293 44.7034 15.4644 44.7038C15.5896 44.7043 15.712 44.7405 15.8175 44.808C18.1263 46.3891 20.7307 47.4876 23.4745 48.0375C23.6121 48.0639 23.7371 48.1349 23.8302 48.2395C23.9234 48.3441 23.9794 48.4766 23.9896 48.6163L24.8057 53.611C24.8012 53.6221 24.8012 53.6346 24.8057 53.6457C24.8121 53.6484 24.819 53.6498 24.8259 53.6498C24.8329 53.6498 24.8398 53.6484 24.8462 53.6457H30.1129C30.1261 53.6501 30.1403 53.6501 30.1535 53.6457C30.156 53.6403 30.1574 53.6344 30.1574 53.6284C30.1574 53.6224 30.156 53.6164 30.1535 53.611L30.9811 48.5815C31.001 48.4528 31.06 48.3332 31.1501 48.239C31.2401 48.1449 31.3569 48.0806 31.4846 48.0549C34.2171 47.5237 36.8151 46.4491 39.1243 44.8948C39.2301 44.8229 39.3552 44.7846 39.4831 44.7848C39.6252 44.7857 39.7633 44.8324 39.8767 44.918L43.9975 47.8812H44.038C44.0492 47.8852 44.0615 47.8852 44.0727 47.8812L47.8 44.1598C47.804 44.1485 47.804 44.1363 47.8 44.125C47.8058 44.1102 47.8058 44.0936 47.8 44.0788L44.8251 39.9406C44.752 39.8331 44.7129 39.706 44.7129 39.576C44.7129 39.4459 44.752 39.3189 44.8251 39.2113C46.404 36.8926 47.4967 34.278 48.0373 31.5253C48.0639 31.3884 48.1351 31.2641 48.2398 31.172C48.3445 31.0798 48.4768 31.025 48.616 31.016L53.6108 30.1942C53.6162 30.1968 53.6221 30.1981 53.6281 30.1981C53.6342 30.1981 53.6401 30.1968 53.6455 30.1942C53.6499 30.181 53.6499 30.1668 53.6455 30.1537V24.8869C53.6482 24.8805 53.6496 24.8736 53.6496 24.8667C53.6496 24.8597 53.6482 24.8528 53.6455 24.8464C53.6344 24.8419 53.6219 24.8419 53.6108 24.8464L48.5813 24.0246C48.4527 24.0019 48.3338 23.9413 48.24 23.8506C48.1461 23.7598 48.0816 23.643 48.0546 23.5152C47.5214 20.7834 46.447 18.1858 44.8946 15.8756C44.8155 15.7661 44.7729 15.6344 44.7729 15.4994C44.7729 15.3643 44.8155 15.2326 44.8946 15.1232L47.8579 11.0024C47.8605 10.987 47.8605 10.9714 47.8579 10.9561C47.8595 10.9445 47.8595 10.9328 47.8579 10.9213L44.1364 7.19987H44.1017H44.0554L39.8998 10.1284C39.7905 10.2078 39.6588 10.2504 39.5237 10.25C39.3971 10.2529 39.2731 10.2143 39.1706 10.14C36.8603 8.58249 34.2602 7.50583 31.5251 6.97415C31.3884 6.94601 31.2644 6.87448 31.1716 6.7702C31.0788 6.66592 31.0221 6.53446 31.01 6.39539L30.194 1.4238C30.1967 1.41739 30.1981 1.4105 30.1981 1.40354C30.1981 1.39658 30.1967 1.3897 30.194 1.38329H30.1535H24.8867H24.8462C24.8432 1.39662 24.8432 1.41046 24.8462 1.4238L24.0243 6.44748C24.0032 6.57671 23.9431 6.69641 23.8521 6.79053C23.7611 6.88466 23.6435 6.94873 23.515 6.97415C20.7821 7.50688 18.184 8.58348 15.8753 10.14C15.7681 10.2083 15.6436 10.2444 15.5165 10.2442M27.5259 11.8358C31.149 11.836 34.66 13.0924 37.4607 15.3909C40.2614 17.6895 42.1785 20.888 42.8854 24.4415C43.5924 27.995 43.0453 31.6837 41.3375 34.8791C39.6298 38.0746 36.8669 40.579 33.5197 41.9658C30.1724 43.3527 26.4479 43.536 22.9806 42.4847C19.5134 41.4334 16.5179 39.2124 14.5045 36.2002C12.4911 33.1879 11.5844 29.5708 11.9388 25.965C12.2933 22.3593 13.8869 18.9879 16.4483 16.4254C19.3865 13.4877 23.371 11.8368 27.5259 11.8358ZM27.5259 41.8852C30.3622 41.8746 33.1322 41.0256 35.4873 39.4449C37.8424 37.8642 39.6775 35.6224 40.7619 33.0015C41.8462 30.3806 42.1314 27.4975 41.5816 24.7149C41.0317 21.9323 39.6714 19.3745 37.6716 17.363C36.3397 16.0277 34.7574 14.9682 33.0155 14.2452C31.2735 13.5222 29.4061 13.1499 27.5201 13.1496C23.7057 13.1496 20.0475 14.6648 17.3503 17.362C14.653 20.0593 13.1378 23.7174 13.1378 27.5319C13.1378 31.3463 14.653 35.0045 17.3503 37.7017C20.0475 40.3989 23.7057 41.9142 27.5201 41.9142M37.5674 22.2362C37.7253 22.2382 37.8769 22.2984 37.9933 22.4052C38.1097 22.5119 38.1826 22.6578 38.1983 22.8149C38.2098 22.8722 38.2098 22.9313 38.1983 22.9886L37.66 26.6232C37.6444 26.7804 37.5714 26.9262 37.4551 27.033C37.3387 27.1397 37.1871 27.1999 37.0292 27.202H36.9308C36.7625 27.1762 36.6111 27.0853 36.5093 26.9488C36.4075 26.8124 36.3635 26.6414 36.3867 26.4727L36.6414 24.7364L30.9058 30.5241C30.8461 30.5846 30.7749 30.6326 30.6964 30.6654C30.6179 30.6982 30.5337 30.7151 30.4486 30.7151C30.2925 30.7157 30.1418 30.6579 30.0261 30.553L25.5233 26.5248L17.8547 32.6655C17.7426 32.7589 17.6013 32.8101 17.4554 32.8102H17.3628C17.2788 32.8025 17.1974 32.7775 17.1237 32.7366C17.0499 32.6957 16.9855 32.64 16.9345 32.5729C16.8813 32.5079 16.8416 32.433 16.8178 32.3525C16.7939 32.272 16.7864 32.1876 16.7956 32.1041C16.8148 31.9339 16.9 31.7781 17.0329 31.67L25.1356 25.1937C25.2475 25.0999 25.3889 25.0486 25.5349 25.049C25.6992 25.0498 25.8568 25.1141 25.9748 25.2284L30.4197 29.1177L35.7733 23.7294L33.9444 23.9783H33.8344C33.6987 23.9766 33.567 23.932 33.4582 23.8509C33.3881 23.8003 33.3292 23.7358 33.2851 23.6615C33.241 23.5872 33.2127 23.5046 33.2018 23.4188C33.191 23.3331 33.1979 23.246 33.2221 23.1631C33.2462 23.0801 33.2872 23.003 33.3424 22.9365C33.3962 22.8695 33.4628 22.8141 33.5384 22.7733C33.6139 22.7325 33.6969 22.7073 33.7823 22.6992L37.4748 22.213H37.5559M30.1419 3.86883e-05H24.8867C24.5459 -0.00247739 24.2157 0.117806 23.9563 0.338874C23.697 0.559942 23.526 0.867008 23.4745 1.20387L22.7105 5.7356C20.1463 6.29677 17.7024 7.30998 15.4933 8.72781L11.7661 6.04813C11.5208 5.875 11.2271 5.78385 10.9269 5.78768C10.5476 5.78789 10.1837 5.93762 9.91406 6.20439L6.1926 9.92006C5.95032 10.1586 5.80184 10.4763 5.77422 10.8152C5.7466 11.1541 5.84167 11.4917 6.04212 11.7663L6.07106 11.801L8.72759 15.4994C7.30808 17.7055 6.29471 20.1477 5.73538 22.7108L1.19786 23.4516C0.858579 23.506 0.550419 23.6812 0.330232 23.945C0.110046 24.2088 -0.00730913 24.5434 -0.000181703 24.8869V30.1537C-0.00269779 30.4944 0.117586 30.8247 0.338654 31.084C0.559722 31.3434 0.866787 31.5144 1.20365 31.5659L5.73538 32.3067C6.29548 34.8713 7.30877 37.3153 8.72759 39.5239L6.04791 43.2569C5.84788 43.5313 5.75253 43.8682 5.77906 44.2068C5.80559 44.5453 5.95226 44.8632 6.1926 45.1032L9.91984 48.8246C10.1584 49.0669 10.4761 49.2154 10.815 49.243C11.1539 49.2706 11.4914 49.1755 11.7661 48.9751H11.8008L15.4991 46.3012C17.7076 47.7162 20.149 48.7292 22.7105 49.2934L23.4514 53.8251C23.5144 54.157 23.6934 54.4556 23.9563 54.6677C24.2193 54.8797 24.549 54.9914 24.8867 54.9827H30.1592C30.4893 54.9816 30.8086 54.8653 31.0622 54.654C31.3158 54.4427 31.4877 54.1496 31.5483 53.8251L32.2891 49.2934C34.8524 48.7293 37.2958 47.7163 39.5063 46.3012L43.2335 48.9809C43.4767 49.1596 43.771 49.255 44.0727 49.2529C44.2611 49.253 44.4476 49.2157 44.6215 49.1432C44.7954 49.0706 44.9531 48.9643 45.0856 48.8304L48.807 45.109C49.0482 44.8698 49.196 44.5522 49.2236 44.2136C49.2512 43.8751 49.1568 43.5378 48.9575 43.2627L46.301 39.5065C47.7161 37.296 48.7291 34.8526 49.2932 32.2893L53.8249 31.5485C54.1533 31.4872 54.4495 31.3119 54.6613 31.0535C54.873 30.7952 54.9868 30.4703 54.9825 30.1363V24.8869C54.9911 24.5492 54.8795 24.2195 54.6674 23.9565C54.4554 23.6936 54.1568 23.5146 53.8249 23.4516L49.2932 22.7108C48.7301 20.1489 47.717 17.7073 46.301 15.4994L48.9807 11.7663C49.1823 11.4921 49.2781 11.1543 49.2504 10.8151C49.2228 10.4758 49.0735 10.158 48.8302 9.92006L45.0856 6.19282C44.8141 5.93028 44.4504 5.7848 44.0727 5.78768C43.7729 5.78643 43.4807 5.88181 43.2393 6.0597L39.5063 8.73938C37.2971 7.31924 34.8535 6.30222 32.2891 5.7356L31.5483 1.19808C31.4957 0.863267 31.325 0.558353 31.067 0.338578C30.809 0.118803 30.4808 -0.00129564 30.1419 3.86883e-05ZM24.8867 1.45853H30.0956L30.9116 6.42433C30.9273 6.57842 30.9919 6.72343 31.0961 6.83803C31.2003 6.95264 31.3385 7.03078 31.4904 7.06097C34.212 7.58928 36.7988 8.66218 39.0954 10.2152C39.2164 10.2928 39.3568 10.3349 39.5005 10.3368C39.6003 10.3357 39.6988 10.3141 39.7899 10.2731L39.9288 10.1747L44.0496 7.21144L47.7421 10.9098L44.8194 15.0479C44.7308 15.171 44.6832 15.3188 44.6832 15.4704C44.6832 15.622 44.7308 15.7698 44.8194 15.8929C46.3749 18.1896 47.4462 20.7792 47.9678 23.5037C47.9975 23.646 48.068 23.7766 48.1708 23.8794C48.2736 23.9822 48.4042 24.0528 48.5466 24.0824L53.5471 24.8869V30.0958L48.5755 30.9119C48.4218 30.9283 48.2772 30.9933 48.1628 31.0973C48.0483 31.2014 47.9699 31.3391 47.9389 31.4906C47.4131 34.212 46.3421 36.7989 44.7904 39.0956C44.7221 39.1966 44.6805 39.3132 44.6694 39.4347C44.6582 39.5561 44.678 39.6784 44.7267 39.7901L44.8251 39.929L47.7884 44.0498L44.0901 47.7423L39.9925 44.7964C39.8681 44.7082 39.7195 44.6608 39.5671 44.6608C39.4146 44.6608 39.266 44.7082 39.1417 44.7964C36.8465 46.3508 34.259 47.422 31.5367 47.9449C31.3937 47.9731 31.2624 48.0432 31.1593 48.1463C31.0563 48.2493 30.9862 48.3807 30.9579 48.5237V48.6221L30.0956 53.5473H24.8867L24.0764 48.5757C24.0591 48.4223 23.9938 48.2782 23.8899 48.1639C23.786 48.0496 23.6488 47.971 23.4977 47.9391C20.7756 47.4155 18.1883 46.3443 15.8927 44.7906C15.7728 44.7107 15.6317 44.6683 15.4876 44.6691C15.388 44.6671 15.2893 44.6868 15.1982 44.727L15.0593 44.8254L10.9385 47.7597L7.25753 44.073L10.2034 39.9753C10.2909 39.8507 10.3377 39.7021 10.3377 39.5499C10.3377 39.3977 10.2909 39.2492 10.2034 39.1245C8.65502 36.8246 7.58617 34.2361 7.06075 31.5138C7.03325 31.3705 6.9634 31.2387 6.86022 31.1355C6.75704 31.0324 6.62528 30.9625 6.48198 30.935H6.3778L1.45831 30.0958V24.8869L6.42411 24.0709C6.57852 24.0561 6.724 23.9918 6.83877 23.8875C6.95355 23.7831 7.03142 23.6444 7.06075 23.4921C7.58644 20.7697 8.65955 18.1824 10.215 15.8871C10.2809 15.785 10.3206 15.6682 10.3307 15.5471C10.3408 15.426 10.321 15.3042 10.2729 15.1926L10.1977 15.0479L7.24016 10.9271L10.9211 7.24617L15.0477 10.1863C15.1751 10.2803 15.3292 10.331 15.4876 10.331C15.6318 10.3325 15.7731 10.2901 15.8927 10.2094C18.1885 8.66013 20.773 7.58933 23.4919 7.06097C23.6345 7.03203 23.7655 6.9617 23.8684 6.85877C23.9714 6.75584 24.0417 6.62486 24.0706 6.4822L24.8867 1.45853ZM27.4854 11.749C25.417 11.7462 23.3687 12.154 21.4592 12.9488C19.5497 13.7436 17.817 14.9095 16.3615 16.3791C14.1656 18.5835 12.6717 21.3889 12.0681 24.4413C11.4645 27.4937 11.7784 30.6565 12.9701 33.5308C14.1618 36.405 16.1779 38.8621 18.7642 40.592C21.3505 42.3219 24.3912 43.2471 27.5027 43.2511C30.9701 43.251 34.3405 42.1069 37.0915 39.9963C39.8425 37.8857 41.8204 34.9265 42.7184 31.5774C43.3433 29.2436 43.423 26.7973 42.9514 24.4278C42.4798 22.0583 41.4695 19.8289 39.9987 17.9122C38.5279 15.9955 36.6359 14.4427 34.4691 13.374C32.3023 12.3053 29.9187 11.7493 27.5027 11.749H27.4854ZM27.4854 41.7984C25.6082 41.8012 23.7492 41.4313 22.016 40.7103C18.7388 39.3526 16.0837 36.8245 14.5672 33.6177C13.0507 30.4108 12.7812 26.7546 13.8111 23.36C14.841 19.9655 17.0966 17.0753 20.1393 15.2518C23.1821 13.4282 26.7943 12.8015 30.2735 13.4937C33.7526 14.1858 36.8499 16.1473 38.963 18.9966C41.0761 21.8459 42.0539 25.3793 41.7061 28.9095C41.3584 32.4398 39.71 35.7145 37.0816 38.0967C34.4532 40.479 31.0327 41.7984 27.4854 41.7984ZM37.7063 22.0799L37.4575 22.1146L33.7649 22.6008C33.6679 22.6099 33.5736 22.6388 33.4881 22.6855C33.4025 22.7323 33.3273 22.796 33.2672 22.8728C33.2052 22.9484 33.1592 23.0359 33.1322 23.13C33.1052 23.224 33.0977 23.3225 33.1102 23.4195C33.1226 23.5166 33.1548 23.61 33.2047 23.6941C33.2546 23.7783 33.3212 23.8513 33.4003 23.9088C33.5243 24.0008 33.6742 24.0515 33.8286 24.0535H33.9386L35.5302 23.8394L30.4139 28.9961L26.0442 25.1589C25.9115 25.0285 25.7326 24.9556 25.5465 24.9564C25.3803 24.958 25.2194 25.015 25.0893 25.1184L16.9866 31.6006C16.9114 31.6592 16.8491 31.7326 16.8033 31.8162C16.7575 31.8998 16.7293 31.9919 16.7203 32.0867C16.7091 32.1819 16.7168 32.2782 16.7431 32.3703C16.7694 32.4624 16.8137 32.5484 16.8734 32.6232C16.9332 32.6981 17.0072 32.7603 17.0912 32.8063C17.1752 32.8523 17.2675 32.8812 17.3628 32.8912H17.438C17.6057 32.8923 17.7681 32.8327 17.8952 32.7234L25.5176 26.6232L29.974 30.5299C30.1125 30.651 30.2919 30.7148 30.4758 30.7084C30.6596 30.7019 30.8341 30.6257 30.9637 30.4951L36.5141 24.8869L36.2999 26.3917C36.2752 26.5823 36.325 26.7751 36.4388 26.93C36.4955 27.0074 36.5672 27.0724 36.6498 27.1212C36.7324 27.17 36.8241 27.2014 36.9192 27.2135H37.0292C37.1985 27.2129 37.3624 27.1537 37.4931 27.0462C37.6239 26.9386 37.7135 26.7892 37.7468 26.6232L38.2677 22.9423C38.279 22.8772 38.279 22.8106 38.2677 22.7455C38.2498 22.5935 38.1841 22.4511 38.0801 22.3387C37.9761 22.2264 37.8392 22.15 37.689 22.1204L37.7237 22.0799H37.7063Z" fill="#6C96F9"/>
</g>
<defs>
<clipPath id="clip0_61_438">
<rect width="55" height="55" fill="white"/>
</clipPath>
</defs>
</svg>
