<svg width="36" height="36" viewBox="0 0 36 36" fill="none" xmlns="http://www.w3.org/2000/svg">
<path d="M18 22.5C19.5533 22.5 20.8125 21.2408 20.8125 19.6875C20.8125 18.1342 19.5533 16.875 18 16.875C16.4467 16.875 15.1875 18.1342 15.1875 19.6875C15.1875 21.2408 16.4467 22.5 18 22.5Z" stroke="black" stroke-width="2" stroke-linecap="round" stroke-linejoin="round"/>
<path d="M18 22.5V25.875" stroke="black" stroke-width="2" stroke-linecap="round" stroke-linejoin="round"/>
<path d="M29.25 12.375H6.75C6.12868 12.375 5.625 12.8787 5.625 13.5V29.25C5.625 29.8713 6.12868 30.375 6.75 30.375H29.25C29.8713 30.375 30.375 29.8713 30.375 29.25V13.5C30.375 12.8787 29.8713 12.375 29.25 12.375Z" stroke="black" stroke-width="2" stroke-linecap="round" stroke-linejoin="round"/>
<path d="M12.9375 12.375V7.3125C12.9375 5.96984 13.4709 4.68217 14.4203 3.73277C15.3697 2.78337 16.6573 2.25 18 2.25C19.3427 2.25 20.6303 2.78337 21.5797 3.73277C22.5291 4.68217 23.0625 5.96984 23.0625 7.3125" stroke="black" stroke-width="2" stroke-linecap="round" stroke-linejoin="round"/>
</svg>
