<svg width="36" height="36" viewBox="0 0 36 36" fill="none" xmlns="http://www.w3.org/2000/svg">
<path fill-rule="evenodd" clip-rule="evenodd" d="M23 6.875V8.72153C23 8.77299 23.0004 8.82414 23.0011 8.875H4.5C4.43096 8.875 4.375 8.93096 4.375 9V12.6265H23.8477C24.2317 13.4175 24.7149 14.0782 25.2306 14.6265H4.375V27C4.375 27.069 4.43096 27.125 4.5 27.125H31.5C31.569 27.125 31.625 27.069 31.625 27V15.646C32.3143 15.1302 33.0306 14.4446 33.625 13.5494V13.6265V27C33.625 28.1736 32.6736 29.125 31.5 29.125H4.5C3.32639 29.125 2.375 28.1736 2.375 27V13.6265V9C2.375 7.82639 3.32639 6.875 4.5 6.875H23ZM22.625 23.625C22.625 23.0727 23.0727 22.625 23.625 22.625H28.125C28.6773 22.625 29.125 23.0727 29.125 23.625C29.125 24.1773 28.6773 24.625 28.125 24.625H23.625C23.0727 24.625 22.625 24.1773 22.625 23.625ZM16.875 22.625C16.3227 22.625 15.875 23.0727 15.875 23.625C15.875 24.1773 16.3227 24.625 16.875 24.625H19.125C19.6773 24.625 20.125 24.1773 20.125 23.625C20.125 23.0727 19.6773 22.625 19.125 22.625H16.875Z" fill="white"/>
<path d="M23 8.72153V4.5663C23 4.41611 23.0575 4.27207 23.1598 4.16587C23.2621 4.05966 23.4008 4 23.5455 4H34.4545C34.5992 4 34.7379 4.05966 34.8402 4.16587C34.9425 4.27207 35 4.41611 35 4.5663V8.72153C35 14.6677 30.1386 16.6356 29.1705 16.9683C29.0605 17.0106 28.9395 17.0106 28.8295 16.9683C27.8614 16.6356 23 14.6677 23 8.72153Z" stroke="white" stroke-width="2" stroke-linecap="round" stroke-linejoin="round"/>
</svg>
