<svg width="170" height="52" viewBox="0 0 170 52" fill="none" xmlns="http://www.w3.org/2000/svg">
<g filter="url(#filter0_b_168_23)">
<rect width="170" height="52" rx="26" fill="url(#paint0_linear_168_23)" fill-opacity="0.1"/>
<path d="M36.3428 25.996C36.3121 22.6711 39.1351 21.0535 39.2642 20.9782C37.6654 18.7055 35.1874 18.395 34.3166 18.3702C32.2354 18.1567 30.2166 19.5845 29.1564 19.5845C28.0751 19.5845 26.4425 18.3909 24.6829 18.426C22.4186 18.46 20.3003 19.7382 19.1386 21.723C16.741 25.7701 18.5291 31.7173 20.8262 34.9886C21.9753 36.5907 23.318 38.3795 25.0754 38.3166C26.7948 38.2475 27.437 37.2479 29.5119 37.2479C31.5677 37.2479 32.1708 38.3166 33.9632 38.2764C35.8085 38.2475 36.9703 36.667 38.0791 35.0505C39.407 33.2142 39.9403 31.4058 39.9614 31.3129C39.918 31.2985 36.3777 29.9811 36.3428 25.996Z" fill="white"/>
<path d="M32.957 16.2183C33.8818 15.0907 34.5145 13.5567 34.3388 12C33.0004 12.0578 31.3265 12.9027 30.3626 14.0055C29.5098 14.9773 28.748 16.5701 28.9448 18.068C30.4483 18.1773 31.992 17.3283 32.957 16.2183Z" fill="white"/>
<path d="M56.3643 15.9119C56.3643 17.1262 55.9908 18.0402 55.2449 18.654C54.5539 19.2203 53.5721 19.504 52.3002 19.504C51.6696 19.504 51.13 19.4772 50.6782 19.4236V12.7892C51.2676 12.6964 51.9024 12.6489 52.588 12.6489C53.7995 12.6489 54.7127 12.9058 55.3285 13.4195C56.0183 14.0003 56.3643 14.8308 56.3643 15.9119ZM55.1951 15.9419C55.1951 15.1547 54.9814 14.5512 54.5539 14.1303C54.1265 13.7105 53.5022 13.5 52.6801 13.5C52.3309 13.5 52.0336 13.5227 51.7871 13.5702V18.6137C51.9236 18.6344 52.1733 18.6437 52.5362 18.6437C53.3848 18.6437 54.0397 18.4136 54.501 17.9535C54.9624 17.4934 55.1951 16.8229 55.1951 15.9419Z" fill="white"/>
<path d="M62.5633 16.9728C62.5633 17.7207 62.3443 18.3335 61.9063 18.8142C61.4471 19.3083 60.8387 19.5549 60.079 19.5549C59.3468 19.5549 58.7638 19.3187 58.3289 18.8441C57.8951 18.3706 57.6782 17.7733 57.6782 17.0532C57.6782 16.3001 57.9015 15.6822 58.3501 15.2025C58.7987 14.7228 59.4018 14.4824 60.1615 14.4824C60.8937 14.4824 61.482 14.7187 61.9274 15.1922C62.3507 15.6523 62.5633 16.2465 62.5633 16.9728ZM61.4132 17.0078C61.4132 16.5591 61.3138 16.1743 61.1159 15.8534C60.8831 15.4656 60.5519 15.2716 60.1213 15.2716C59.6759 15.2716 59.3373 15.4656 59.1045 15.8534C58.9056 16.1743 58.8072 16.5653 58.8072 17.0274C58.8072 17.4762 58.9066 17.861 59.1045 18.1818C59.3447 18.5697 59.679 18.7636 60.1107 18.7636C60.534 18.7636 60.8662 18.5666 61.1053 18.1715C61.3106 17.8445 61.4132 17.4566 61.4132 17.0078Z" fill="white"/>
<path d="M70.8755 14.5815L69.3149 19.4446H68.2991L67.6527 17.3329C67.4887 16.8057 67.3553 16.2817 67.2517 15.7617H67.2316C67.1353 16.2961 67.002 16.8191 66.8305 17.3329L66.1439 19.4446H65.1165L63.6489 14.5815H64.7885L65.3524 16.8934C65.4889 17.4402 65.6011 17.9611 65.691 18.4542H65.7111C65.7936 18.0478 65.9301 17.5299 66.1227 16.9037L66.8305 14.5826H67.7341L68.4124 16.8542C68.5764 17.4082 68.7097 17.9415 68.8123 18.4553H68.843C68.9181 17.9549 69.0313 17.4216 69.1816 16.8542L69.7868 14.5826H70.8755V14.5815Z" fill="white"/>
<path d="M76.6239 19.4442H75.515V16.6588C75.515 15.8005 75.1807 15.3714 74.5099 15.3714C74.1808 15.3714 73.9152 15.489 73.7089 15.7252C73.5047 15.9614 73.401 16.24 73.401 16.5587V19.4432H72.2922V15.9707C72.2922 15.5436 72.2784 15.0804 72.252 14.5791H73.2264L73.2783 15.3394H73.309C73.438 15.1031 73.6306 14.9082 73.8835 14.7524C74.184 14.5708 74.5204 14.479 74.8887 14.479C75.3542 14.479 75.7415 14.6255 76.0494 14.9195C76.4324 15.2795 76.6239 15.817 76.6239 16.5309V19.4442Z" fill="white"/>
<path d="M79.682 19.4445H78.5742V12.3501H79.682V19.4445Z" fill="white"/>
<path d="M86.2103 16.9728C86.2103 17.7207 85.9913 18.3335 85.5532 18.8142C85.094 19.3083 84.4846 19.5549 83.726 19.5549C82.9927 19.5549 82.4097 19.3187 81.9759 18.8441C81.5421 18.3706 81.3252 17.7733 81.3252 17.0532C81.3252 16.3001 81.5485 15.6822 81.9971 15.2025C82.4457 14.7228 83.0488 14.4824 83.8074 14.4824C84.5407 14.4824 85.1279 14.7187 85.5744 15.1922C85.9976 15.6523 86.2103 16.2465 86.2103 16.9728ZM85.0591 17.0078C85.0591 16.5591 84.9597 16.1743 84.7618 15.8534C84.5301 15.4656 84.1979 15.2716 83.7683 15.2716C83.3218 15.2716 82.9832 15.4656 82.7515 15.8534C82.5526 16.1743 82.4542 16.5653 82.4542 17.0274C82.4542 17.4762 82.5536 17.861 82.7515 18.1818C82.9917 18.5697 83.326 18.7636 83.7577 18.7636C84.1809 18.7636 84.5121 18.5666 84.7512 18.1715C84.9576 17.8445 85.0591 17.4566 85.0591 17.0078Z" fill="white"/>
<path d="M91.5772 19.4445H90.5815L90.499 18.8843H90.4683C90.1276 19.331 89.6419 19.5549 89.0113 19.5549C88.5405 19.5549 88.1596 19.4074 87.8729 19.1144C87.6126 18.8482 87.4824 18.5171 87.4824 18.124C87.4824 17.5298 87.7364 17.0769 88.2474 16.7633C88.7574 16.4497 89.4748 16.296 90.3985 16.3032V16.2124C90.3985 15.5718 90.0535 15.252 89.3626 15.252C88.8706 15.252 88.4368 15.3727 88.0622 15.612L87.8369 14.9023C88.3003 14.6227 88.8727 14.4824 89.5478 14.4824C90.8513 14.4824 91.5052 15.153 91.5052 16.4941V18.285C91.5052 18.7709 91.5295 19.1577 91.5772 19.4445ZM90.426 17.7733V17.0233C89.2028 17.0027 88.5913 17.3297 88.5913 18.0033C88.5913 18.2571 88.6611 18.4469 88.804 18.5738C88.9468 18.7007 89.1288 18.7636 89.3457 18.7636C89.589 18.7636 89.8165 18.6883 90.0239 18.5387C90.2323 18.3881 90.3604 18.1973 90.408 17.9631C90.4196 17.9105 90.426 17.8465 90.426 17.7733Z" fill="white"/>
<path d="M97.8775 19.4445H96.8935L96.8417 18.6636H96.811C96.4967 19.2578 95.9614 19.5549 95.2091 19.5549C94.6081 19.5549 94.1076 19.3249 93.7108 18.8648C93.3141 18.4047 93.1162 17.8074 93.1162 17.0739C93.1162 16.2868 93.331 15.6492 93.7627 15.1623C94.1806 14.7084 94.6927 14.4814 95.3022 14.4814C95.9719 14.4814 96.4407 14.7012 96.7073 15.1417H96.7285V12.3501H97.8384V18.1344C97.8384 18.6079 97.8511 19.0443 97.8775 19.4445ZM96.7285 17.3937V16.5828C96.7285 16.4425 96.7179 16.3291 96.6978 16.2424C96.6353 15.9824 96.501 15.7637 96.2968 15.5873C96.0904 15.4109 95.8418 15.3222 95.5551 15.3222C95.1413 15.3222 94.8176 15.4821 94.5795 15.8029C94.3436 16.1238 94.224 16.5333 94.224 17.0336C94.224 17.5144 94.3372 17.9043 94.5647 18.2045C94.8049 18.5243 95.1287 18.6842 95.5339 18.6842C95.8979 18.6842 96.1888 18.5512 96.41 18.284C96.6237 18.0374 96.7285 17.7403 96.7285 17.3937Z" fill="white"/>
<path d="M107.361 16.9728C107.361 17.7207 107.142 18.3335 106.704 18.8142C106.245 19.3083 105.638 19.5549 104.877 19.5549C104.146 19.5549 103.563 19.3187 103.127 18.8441C102.693 18.3706 102.476 17.7733 102.476 17.0532C102.476 16.3001 102.699 15.6822 103.148 15.2025C103.597 14.7228 104.2 14.4824 104.96 14.4824C105.692 14.4824 106.281 14.7187 106.725 15.1922C107.149 15.6523 107.361 16.2465 107.361 16.9728ZM106.212 17.0078C106.212 16.5591 106.113 16.1743 105.915 15.8534C105.681 15.4656 105.351 15.2716 104.919 15.2716C104.475 15.2716 104.136 15.4656 103.902 15.8534C103.703 16.1743 103.605 16.5653 103.605 17.0274C103.605 17.4762 103.704 17.861 103.902 18.1818C104.143 18.5697 104.477 18.7636 104.909 18.7636C105.332 18.7636 105.665 18.5666 105.904 18.1715C106.108 17.8445 106.212 17.4566 106.212 17.0078Z" fill="white"/>
<path d="M113.323 19.4442H112.215V16.6588C112.215 15.8005 111.881 15.3714 111.209 15.3714C110.88 15.3714 110.614 15.489 110.409 15.7252C110.204 15.9614 110.101 16.24 110.101 16.5587V19.4432H108.991V15.9707C108.991 15.5436 108.979 15.0804 108.952 14.5791H109.926L109.977 15.3394H110.008C110.138 15.1031 110.331 14.9082 110.583 14.7524C110.884 14.5708 111.22 14.479 111.589 14.479C112.053 14.479 112.441 14.6255 112.748 14.9195C113.133 15.2795 113.323 15.817 113.323 16.5309V19.4442Z" fill="white"/>
<path d="M120.786 15.3911H119.565V17.7535C119.565 18.3539 119.782 18.6541 120.211 18.6541C120.41 18.6541 120.575 18.6376 120.705 18.6035L120.734 19.4237C120.515 19.5041 120.227 19.5444 119.873 19.5444C119.435 19.5444 119.094 19.4144 118.847 19.1544C118.6 18.8944 118.477 18.457 118.477 17.8432V15.3911H117.748V14.5812H118.477V13.6899L119.564 13.3701V14.5802H120.785V15.3911H120.786Z" fill="white"/>
<path d="M126.656 19.4445H125.546V16.6798C125.546 15.8081 125.212 15.3717 124.542 15.3717C124.028 15.3717 123.676 15.6245 123.484 16.13C123.451 16.2362 123.432 16.3662 123.432 16.5189V19.4435H122.324V12.3501H123.432V15.2809H123.453C123.802 14.7476 124.303 14.4814 124.951 14.4814C125.411 14.4814 125.79 14.6279 126.092 14.9219C126.468 15.2881 126.656 15.8328 126.656 16.5529V19.4445Z" fill="white"/>
<path d="M132.711 16.7825C132.711 16.9764 132.696 17.1394 132.67 17.2725H129.344C129.359 17.7532 129.518 18.1194 129.826 18.3732C130.107 18.6002 130.47 18.7136 130.915 18.7136C131.407 18.7136 131.855 18.6373 132.259 18.4836L132.433 19.2346C131.96 19.4347 131.403 19.5348 130.759 19.5348C129.987 19.5348 129.378 19.313 128.938 18.8694C128.496 18.4258 128.277 17.8306 128.277 17.0837C128.277 16.3502 128.481 15.7395 128.893 15.2526C129.322 14.7326 129.903 14.4727 130.636 14.4727C131.354 14.4727 131.899 14.7326 132.267 15.2526C132.564 15.6652 132.711 16.1759 132.711 16.7825ZM131.653 16.5029C131.662 16.182 131.589 15.9056 131.438 15.6724C131.246 15.3722 130.953 15.2216 130.556 15.2216C130.194 15.2216 129.899 15.3681 129.674 15.6621C129.489 15.8963 129.38 16.1759 129.344 16.5029H131.653Z" fill="white"/>
<path d="M61.2258 38.0867H58.8229L57.5067 34.0541H52.9316L51.6778 38.0867H49.3384L53.8712 24.3579H56.6708L61.2258 38.0867ZM57.1099 32.3622L55.9196 28.7774C55.7937 28.4111 55.5577 27.5487 55.2096 26.1911H55.1673C55.0287 26.775 54.8054 27.6374 54.4986 28.7774L53.3294 32.3622H57.1099Z" fill="white"/>
<path d="M72.8831 33.0156C72.8831 34.6992 72.4165 36.03 71.4833 37.0069C70.6474 37.8766 69.6094 38.3109 68.3704 38.3109C67.033 38.3109 66.0723 37.8425 65.4872 36.9058H65.4449V42.1207H63.1891V31.4465C63.1891 30.388 63.1605 29.3018 63.1055 28.1876H65.0894L65.2153 29.7567H65.2576C66.0099 28.5745 67.1515 27.9844 68.6836 27.9844C69.8814 27.9844 70.8812 28.4455 71.6811 29.3688C72.4832 30.2931 72.8831 31.5084 72.8831 33.0156ZM70.585 33.096C70.585 32.1325 70.3628 31.3382 69.9163 30.713C69.4285 30.061 68.7736 29.735 67.9525 29.735C67.3959 29.735 66.8902 29.9166 66.4384 30.2746C65.9855 30.6356 65.6893 31.1071 65.5507 31.691C65.4808 31.9633 65.4459 32.1862 65.4459 32.3615V34.0121C65.4459 34.7322 65.6723 35.3398 66.1252 35.836C66.5781 36.3322 67.1663 36.5798 67.8901 36.5798C68.7397 36.5798 69.401 36.26 69.8739 35.6225C70.348 34.9839 70.585 34.1421 70.585 33.096Z" fill="white"/>
<path d="M84.5608 33.0156C84.5608 34.6992 84.0942 36.03 83.1599 37.0069C82.3251 37.8766 81.2871 38.3109 80.0481 38.3109C78.7107 38.3109 77.75 37.8425 77.1659 36.9058H77.1236V42.1207H74.8678V31.4465C74.8678 30.388 74.8392 29.3018 74.7842 28.1876H76.7681L76.894 29.7567H76.9363C77.6875 28.5745 78.8292 27.9844 80.3623 27.9844C81.559 27.9844 82.5589 28.4455 83.3609 29.3688C84.1598 30.2931 84.5608 31.5084 84.5608 33.0156ZM82.2626 33.096C82.2626 32.1325 82.0394 31.3382 81.5929 30.713C81.1051 30.061 80.4523 29.735 79.6301 29.735C79.0725 29.735 78.5678 29.9166 78.115 30.2746C77.6621 30.6356 77.3669 31.1071 77.2283 31.691C77.1595 31.9633 77.1236 32.1862 77.1236 32.3615V34.0121C77.1236 34.7322 77.35 35.3398 77.8007 35.836C78.2536 36.3312 78.8419 36.5798 79.5677 36.5798C80.4174 36.5798 81.0787 36.26 81.5516 35.6225C82.0256 34.9839 82.2626 34.1421 82.2626 33.096Z" fill="white"/>
<path d="M97.6173 34.2367C97.6173 35.4045 97.2015 36.3546 96.3666 37.0881C95.4493 37.8897 94.1722 38.2899 92.5311 38.2899C91.016 38.2899 89.8013 38.0052 88.8818 37.4347L89.4045 35.6015C90.3949 36.1854 91.4815 36.4784 92.6655 36.4784C93.5151 36.4784 94.1764 36.2906 94.6515 35.9172C95.1245 35.5438 95.3604 35.0424 95.3604 34.4172C95.3604 33.8602 95.1657 33.3908 94.7753 33.0101C94.387 32.6294 93.7384 32.2756 92.8327 31.9486C90.3674 31.0521 89.1358 29.7388 89.1358 28.0119C89.1358 26.8833 89.5675 25.9579 90.4319 25.2379C91.2932 24.5168 92.4422 24.1567 93.8791 24.1567C95.1604 24.1567 96.2249 24.3744 97.0745 24.8087L96.5105 26.6017C95.717 26.1808 94.8197 25.9703 93.8156 25.9703C93.0221 25.9703 92.402 26.1612 91.9577 26.5408C91.582 26.8802 91.3937 27.2939 91.3937 27.7839C91.3937 28.3265 91.6085 28.7753 92.0402 29.1281C92.4158 29.4541 93.0983 29.8069 94.0886 30.1876C95.3001 30.6632 96.1899 31.2192 96.7624 31.8567C97.3327 32.4922 97.6173 33.2876 97.6173 34.2367Z" fill="white"/>
<path d="M105.075 29.8379H102.589V34.6442C102.589 35.8667 103.027 36.4774 103.905 36.4774C104.308 36.4774 104.643 36.4434 104.907 36.3753L104.97 38.0455C104.525 38.2074 103.94 38.2889 103.215 38.2889C102.324 38.2889 101.628 38.0238 101.126 37.4946C100.625 36.9643 100.373 36.0751 100.373 34.8258V29.8358H98.8921V28.1852H100.373V26.3727L102.589 25.7207V28.1852H105.075V29.8379Z" fill="white"/>
<path d="M116.294 33.0553C116.294 34.5769 115.848 35.8262 114.957 36.8031C114.023 37.809 112.783 38.3103 111.237 38.3103C109.747 38.3103 108.561 37.8286 107.676 36.865C106.792 35.9015 106.35 34.6852 106.35 33.2193C106.35 31.6853 106.805 30.4288 107.718 29.4518C108.629 28.4739 109.858 27.9849 111.404 27.9849C112.894 27.9849 114.093 28.4666 114.997 29.4312C115.863 30.3669 116.294 31.5749 116.294 33.0553ZM113.954 33.1265C113.954 32.2135 113.754 31.4305 113.349 30.7775C112.876 29.9872 112.2 29.5932 111.324 29.5932C110.417 29.5932 109.728 29.9883 109.255 30.7775C108.85 31.4315 108.65 32.2269 108.65 33.1677C108.65 34.0807 108.85 34.8637 109.255 35.5157C109.743 36.3059 110.424 36.7 111.303 36.7C112.165 36.7 112.841 36.2977 113.329 35.4951C113.744 34.8297 113.954 34.0384 113.954 33.1265Z" fill="white"/>
<path d="M123.627 30.1219C123.404 30.0817 123.166 30.061 122.916 30.061C122.122 30.061 121.509 30.353 121.077 30.9379C120.701 31.4537 120.513 32.1057 120.513 32.8928V38.087H118.258L118.279 31.3052C118.279 30.1642 118.251 29.1253 118.195 28.1886H120.16L120.242 30.0827H120.305C120.543 29.4317 120.918 28.9077 121.433 28.5146C121.935 28.1608 122.478 27.9844 123.063 27.9844C123.271 27.9844 123.46 27.9988 123.627 28.0246V30.1219Z" fill="white"/>
<path d="M133.716 32.669C133.716 33.0631 133.689 33.3952 133.633 33.6665H126.866C126.892 34.6445 127.219 35.3924 127.848 35.9083C128.418 36.3694 129.155 36.6005 130.061 36.6005C131.063 36.6005 131.977 36.4447 132.799 36.1321L133.153 37.6589C132.192 38.0674 131.058 38.2707 129.749 38.2707C128.174 38.2707 126.939 37.8188 126.039 36.9161C125.142 36.0135 124.692 34.8013 124.692 33.2807C124.692 31.788 125.11 30.5449 125.947 29.5535C126.823 28.495 128.007 27.9658 129.497 27.9658C130.96 27.9658 132.068 28.495 132.82 29.5535C133.416 30.3943 133.716 31.4341 133.716 32.669ZM131.565 32.0985C131.579 31.4465 131.432 30.8832 131.127 30.4077C130.736 29.7959 130.136 29.4906 129.329 29.4906C128.591 29.4906 127.991 29.7887 127.533 30.387C127.158 30.8626 126.934 31.4331 126.866 32.0975H131.565V32.0985Z" fill="white"/>
</g>
<defs>
<filter id="filter0_b_168_23" x="-20" y="-20" width="210" height="92" filterUnits="userSpaceOnUse" color-interpolation-filters="sRGB">
<feFlood flood-opacity="0" result="BackgroundImageFix"/>
<feGaussianBlur in="BackgroundImageFix" stdDeviation="10"/>
<feComposite in2="SourceAlpha" operator="in" result="effect1_backgroundBlur_168_23"/>
<feBlend mode="normal" in="SourceGraphic" in2="effect1_backgroundBlur_168_23" result="shape"/>
</filter>
<linearGradient id="paint0_linear_168_23" x1="25.075" y1="96.72" x2="124.849" y2="-62.6016" gradientUnits="userSpaceOnUse">
<stop stop-color="white"/>
<stop offset="1" stop-color="white" stop-opacity="0"/>
</linearGradient>
</defs>
</svg>
