<svg width="838" height="250" viewBox="0 0 838 250" fill="none" xmlns="http://www.w3.org/2000/svg">
<path fill-rule="evenodd" clip-rule="evenodd" d="M37.8027 23.843L3.75098 0L0.12793 41.4111L12.4893 35.647L22.0117 53.4141C38.6016 84.3682 62.7764 110.605 92.2725 129.668L194.104 195.479C223.259 214.321 256.674 225.548 291.291 228.131L565.169 248.57C636.645 253.904 705.812 221.973 748.115 164.113L837.555 41.7837L825.445 32.9307L736.007 155.26C696.762 208.937 632.594 238.56 566.285 233.611L292.407 213.173C260.293 210.776 229.293 200.361 202.246 182.881L100.414 117.07C73.0508 99.3853 50.623 75.0449 35.2324 46.3284L26.1045 29.2979L37.8027 23.843Z" fill="url(#paint0_linear_92_4057)"/>
<defs>
<linearGradient id="paint0_linear_92_4057" x1="0.12793" y1="124.573" x2="837.555" y2="124.573" gradientUnits="userSpaceOnUse">
<stop stop-color="#87AEDB"/>
<stop offset="1" stop-color="#87AEDB" stop-opacity="0"/>
</linearGradient>
</defs>
</svg>
