<svg width="40" height="40" viewBox="0 0 40 40" fill="none" xmlns="http://www.w3.org/2000/svg">
<path d="M28.7899 18.0543V3.7054C28.7899 3.31581 28.4741 3 28.0845 3H3.7054C3.31581 3 3 3.31581 3 3.7054V36.2945C3 36.6841 3.31581 36.9999 3.7054 36.9999L28.0749 37M7.97177 18.0852H16.1388M7.97177 13.8526H16.1388M7.97177 9.61992H23.7514M7.97177 22.2891H16.1388M7.97177 25.8163H16.1388M7.97177 30.0489H16.1388" stroke="black" stroke-width="2" stroke-miterlimit="10" stroke-linecap="round" stroke-linejoin="round"/>
<path d="M36.9997 25.47L36.9624 20.5534C35.1872 20.5666 33.6498 19.5418 32.9408 18.0544L24.4656 18.117C23.7793 19.6147 22.2575 20.6621 20.4824 20.6751L20.5197 25.5917C20.5511 29.7274 22.7961 33.5387 26.4228 35.6133L28.8468 36.9999L31.2494 35.5777C34.8442 33.4498 37.0311 29.6057 36.9997 25.47Z" stroke="black" stroke-width="2" stroke-miterlimit="10" stroke-linecap="round" stroke-linejoin="round"/>
<path d="M26.2165 26.9952L28.0315 29.2247L31.8597 25.1543" stroke="black" stroke-width="2" stroke-miterlimit="10" stroke-linecap="round" stroke-linejoin="round"/>
</svg>
