<svg width="350" height="350" viewBox="0 0 350 350" fill="none" xmlns="http://www.w3.org/2000/svg">
<path fill-rule="evenodd" clip-rule="evenodd" d="M224.694 7.47734C191.559 -2.34133 156.257 -2.11227 123.253 8.13556C86.7777 19.444 56.6653 41.6204 35.3681 70.0069C58.5044 48.0757 60.4191 47.0326 98.2565 26.4203V21.46C103.901 21.4844 106.953 21.4975 109.994 21.6869C113.572 21.9098 117.135 22.3767 124.89 23.3931L124.89 23.3932C113.375 35.7144 113.375 35.7144 101.763 50.16L101.763 50.1599C100.787 45.3378 100.787 45.3377 99.9615 40.866L99.6782 41.0158C46.8243 68.9522 45.4146 69.6974 17.4407 99.5758C12.1738 110.577 8.04764 122.135 5.1623 134.059C24.2572 117.248 36.2897 106.708 49.519 97.9834C71.5301 83.467 96.8544 73.9745 163.533 48.981C162.433 46.1165 161.898 44.7207 161.355 43.3276C160.839 42.0035 160.316 40.6819 159.298 38.1043C168.649 41.6164 173.446 43.4182 178.203 45.3214C183.214 47.3265 188.181 49.4441 198.38 53.7927C188.365 70.1182 188.365 70.1184 177.622 88.3131L177.622 88.3137L172.668 74.229C95.2216 102.319 68.0357 112.179 43.9921 127.102C31.162 135.065 19.2267 144.47 1.02687 158.856C0.101954 168.779 0.0242412 178.855 0.845914 188.985C34.5406 171.711 55.9778 160.729 78.0797 151.305C116.561 134.898 157.058 123.216 267.773 91.2773C266.323 87.7991 265.605 86.0758 264.876 84.3571C264.16 82.6692 263.434 80.9858 261.994 77.6492C271.228 83.4308 275.742 86.2575 280.188 89.188C284.441 91.9912 288.631 94.8895 296.83 100.56C290.997 117.173 290.997 117.173 283.802 135.474C281.326 127.871 281.325 127.869 278.808 120.451L278.806 120.445C99.8822 174.063 99.811 174.085 4.08063 211.11C5.19497 216.36 6.55972 221.605 8.18207 226.831C18.4257 259.842 38.2268 289.072 65.0811 310.827C91.9356 332.582 124.637 345.884 159.05 349.051C193.463 352.217 228.042 345.106 258.415 328.617C288.787 312.128 313.588 287 329.682 256.414C345.775 225.827 352.439 191.154 348.83 156.78C345.221 122.404 331.5 89.8727 309.404 63.297C287.308 36.7214 257.828 17.296 224.694 7.47734ZM170.237 338.861C155.561 339.82 140.744 338.616 113.814 336.428V336.46C103.564 332.662 93.7018 327.906 84.3605 322.258C112.387 325.934 128.658 328.068 144.872 327.698C167.316 327.185 189.649 321.875 242.898 309.215C242.45 307.019 242.22 305.889 241.973 304.762C241.71 303.567 241.429 302.376 240.85 299.921C256.064 303.883 256.064 303.883 269.091 306.294L269.092 306.294L269.092 306.295C257.373 318.371 257.372 318.371 245.761 328.345C245.714 326.718 245.586 325.094 245.375 323.48C205.931 333.281 188.19 337.689 170.237 338.861ZM39.0597 283.276C44.3148 289.651 50.0151 295.654 56.1185 301.238C125.168 309.852 125.168 309.852 236.807 282.703L236.807 282.703C238.265 288.523 238.265 288.524 239.53 294.013L239.531 294.015L239.531 294.015C251.197 277.265 251.197 277.265 262.766 259.208C254.441 255.482 250.067 253.525 245.705 251.539C240.877 249.341 236.065 247.108 225.924 242.404L225.925 242.407C227.972 249.722 227.973 249.723 229.913 256.797L229.912 256.797C106.813 288.088 106.813 288.088 39.0597 283.276ZM12.5867 238.601C15.3646 245.491 18.5879 252.197 22.2367 258.677C104.379 251.167 104.379 251.167 259.409 204.559C260.396 208.499 260.881 210.437 261.363 212.376C261.83 214.252 262.293 216.129 263.205 219.822C273.745 199.269 273.745 199.269 283.512 178.854L283.513 178.854C274.763 173.622 270.238 170.917 265.688 168.255C260.815 165.404 255.913 162.603 245.761 156.803L250.617 172.927L250.6 172.932C91.308 221.426 91.306 221.426 12.5867 238.601Z" fill="url(#paint0_linear_2033_403)" fill-opacity="0.1"/>
<defs>
<linearGradient id="paint0_linear_2033_403" x1="0.277832" y1="175.032" x2="349.786" y2="175.032" gradientUnits="userSpaceOnUse">
<stop stop-color="#87AEDB"/>
<stop offset="1" stop-color="#C9E1FF"/>
</linearGradient>
</defs>
</svg>
