<svg width="47" height="46" viewBox="0 0 47 46" fill="none" xmlns="http://www.w3.org/2000/svg">
<path d="M45.3339 28.5481C42.2648 40.862 29.7929 48.3813 17.4564 45.3104C5.14243 42.2319 -2.36479 29.7599 0.70429 17.446C3.77337 5.13212 16.2378 -2.38719 28.5442 0.683761C40.8882 3.71708 48.3955 16.2267 45.3339 28.5481Z" fill="#0AC18E"/>
<path d="M30.4769 15.6311C29.2683 12.8828 26.484 12.3001 23.0739 12.8685L21.9803 8.62375L19.3975 9.29283L20.4767 13.5231C19.8004 13.6958 19.1026 13.8397 18.4119 14.0339L17.3327 9.82522L14.75 10.4943L15.8435 14.739C15.2895 14.8973 10.6348 16.0916 10.6348 16.0916L11.347 18.8542C11.347 18.8542 13.2463 18.3218 13.2248 18.365C14.2751 18.0916 14.7715 18.6168 15.0018 19.1132L18.009 30.7466C18.045 31.0847 17.9874 31.6603 17.2608 31.8545C17.304 31.8761 15.3831 32.3365 15.3831 32.3365L15.6637 35.5596C15.6637 35.5596 20.2753 34.3798 20.8796 34.2287L21.9875 38.5237L24.5703 37.8547L23.4624 33.5308C24.1746 33.3654 24.8653 33.1927 25.5344 33.02L26.6351 37.3223L29.2179 36.6532L28.11 32.3653C32.0885 31.4013 34.8943 28.8904 34.3187 25.0558C33.9518 22.7464 31.4266 20.8471 29.3258 20.6312C30.6208 19.4873 31.2755 17.8182 30.4769 15.6311ZM29.2323 25.7537C29.7431 29.5523 24.4696 30.0199 22.7214 30.4732L21.2033 24.7896C22.9588 24.3364 28.369 22.4083 29.2323 25.7537ZM26.0524 18.0197C26.5991 21.3938 22.0811 21.7895 20.6278 22.1636L19.2465 17.0052C20.7069 16.6383 24.9444 14.8901 26.0524 18.0197Z" fill="white"/>
</svg>
