<svg width="46" height="46" viewBox="0 0 46 46" fill="none" xmlns="http://www.w3.org/2000/svg">
<path fill-rule="evenodd" clip-rule="evenodd" d="M23.0009 0.000976562C35.7034 0.000976562 46.001 10.2984 46.001 23.0009C46.001 35.7034 35.7034 46.001 23.0009 46.001C10.2984 46.001 0.000976562 35.7034 0.000976562 23.0009C0.000976562 10.2984 10.2984 0.000976562 23.0009 0.000976562Z" fill="#171717"/>
<path fill-rule="evenodd" clip-rule="evenodd" d="M22.9567 9.73172C30.2851 9.73172 36.2259 15.6726 36.2259 23.0009C36.2259 30.3293 30.2851 36.2701 22.9567 36.2701C15.6284 36.2701 9.6875 30.3293 9.6875 23.0009C9.6875 15.6726 15.6284 9.73172 22.9567 9.73172Z" fill="#000008"/>
<path opacity="0.67" fill-rule="evenodd" clip-rule="evenodd" d="M23.3119 7.18263C23.1603 7.04313 23.082 7.04049 23.0689 7.04049C23.0557 7.04049 22.9775 7.04313 22.8259 7.18263C22.6703 7.32583 22.4843 7.57289 22.2839 7.95412C21.8839 8.71501 21.5011 9.86512 21.1711 11.3491C20.8 13.018 20.5068 15.0578 20.3218 17.3411C21.2153 17.7735 22.134 18.2434 23.0687 18.7481C24.0034 18.2434 24.9223 17.7733 25.8159 17.3409C25.631 15.0577 25.3378 13.0179 24.9667 11.3491C24.6367 9.86512 24.2539 8.71501 23.8539 7.95412C23.6535 7.57289 23.4675 7.32583 23.3119 7.18263ZM22.2867 19.1764C21.6003 18.8117 20.9241 18.4667 20.262 18.1426C20.2118 18.8777 20.1727 19.6354 20.1456 20.4118C20.4958 20.2021 20.8511 19.9932 21.2112 19.7855C21.5712 19.5777 21.9299 19.3747 22.2867 19.1764ZM19.601 16.9979C20.1372 10.7365 21.4877 6.29367 23.0689 6.29367C24.6501 6.29367 26.0006 10.7364 26.5368 16.9977C32.2306 14.3313 36.7557 13.2788 37.5463 14.6473C38.3369 16.0158 35.1622 19.406 30.0046 23.0007C35.1622 26.5954 38.3369 29.9856 37.5463 31.3541C36.7557 32.7226 32.2306 31.6701 26.5368 29.0036C26.0006 35.2649 24.6501 39.7077 23.0689 39.7077C21.4877 39.7077 20.1372 35.2648 19.601 29.0035C13.907 31.6701 9.38159 32.7227 8.59097 31.3541C7.80035 29.9856 10.975 26.5954 16.1327 23.0007C10.975 19.406 7.80035 16.0158 8.59097 14.6473C9.38159 13.2787 13.907 14.3313 19.601 16.9979ZM16.7908 22.5483C14.9045 21.2464 13.2833 19.9726 12.0226 18.8169C10.9016 17.7893 10.0963 16.8828 9.63693 16.1562C9.4068 15.7921 9.28574 15.5076 9.23947 15.3015C9.1944 15.1007 9.23122 15.0319 9.23764 15.0209C9.24407 15.0097 9.2854 14.9433 9.48215 14.8819C9.68413 14.8187 9.99134 14.7813 10.422 14.7984C11.2815 14.8327 12.4697 15.0764 13.9207 15.5328C15.5525 16.0461 17.4668 16.8122 19.5379 17.7938C19.4659 18.7831 19.4138 19.8131 19.3838 20.8742C18.479 21.4308 17.6123 21.9911 16.7908 22.5483ZM16.7908 23.4531C14.9045 24.755 13.2833 26.0288 12.0226 27.1845C10.9016 28.2121 10.0963 29.1185 9.63693 29.8452C9.4068 30.2093 9.28574 30.4938 9.23947 30.6999C9.1944 30.9007 9.23122 30.9695 9.23764 30.9805C9.24403 30.9916 9.28533 31.058 9.48215 31.1195C9.68413 31.1826 9.99134 31.2201 10.422 31.203C11.2815 31.1687 12.4697 30.925 13.9207 30.4685C15.5525 29.9553 17.4668 29.1891 19.5379 28.2076C19.4659 27.2183 19.4138 26.1882 19.3838 25.1272C18.479 24.5705 17.6123 24.0103 16.7908 23.4531ZM19.364 24.2363C18.7046 23.8245 18.0675 23.4117 17.4554 23.0007C18.0675 22.5896 18.7046 22.1769 19.364 21.7651C19.3574 22.1731 19.354 22.5851 19.354 23.0007C19.354 23.4163 19.3574 23.8283 19.364 24.2363ZM20.12 24.702C20.1073 24.143 20.1008 23.5754 20.1008 23.0007C20.1008 22.4259 20.1073 21.8584 20.12 21.2994C20.598 21.009 21.0864 20.7196 21.5844 20.4323C22.0826 20.1449 22.5778 19.8667 23.0687 19.5981C23.5595 19.8667 24.0547 20.1449 24.5529 20.4323C25.051 20.7198 25.5397 21.0092 26.0177 21.2997C26.0304 21.8586 26.037 22.4261 26.037 23.0007C26.037 23.5753 26.0304 24.1428 26.0177 24.7017C25.5397 24.9922 25.051 25.2816 24.5529 25.569C24.0547 25.8565 23.5595 26.1347 23.0687 26.4032C22.5778 26.1347 22.0826 25.8565 21.5844 25.569C21.0864 25.2817 20.598 24.9924 20.12 24.702ZM20.1456 25.5895C20.1727 26.3659 20.2118 27.1237 20.262 27.8588C20.9241 27.5346 21.6003 27.1896 22.2867 26.8249C21.9299 26.6267 21.5712 26.4237 21.2112 26.2159C20.8511 26.0081 20.4958 25.7993 20.1456 25.5895ZM23.0687 27.2533C22.134 27.7579 21.2153 28.2279 20.3218 28.6602C20.5068 30.9436 20.8 32.9834 21.1711 34.6522C21.5011 36.1363 21.8839 37.2864 22.2839 38.0473C22.4843 38.4285 22.6703 38.6756 22.8259 38.8187C22.9775 38.9582 23.0557 38.9609 23.0689 38.9609C23.082 38.9609 23.1603 38.9582 23.3119 38.8187C23.4675 38.6756 23.6535 38.4285 23.8539 38.0473C24.2539 37.2864 24.6367 36.1363 24.9667 34.6522C25.3378 32.9834 25.631 30.9437 25.8159 28.6604C24.9223 28.2281 24.0034 27.758 23.0687 27.2533ZM26.5998 28.2078C28.6708 29.1893 30.5849 29.9553 32.2165 30.4685C33.6676 30.925 34.8558 31.1687 35.7153 31.203C36.1459 31.2201 36.4531 31.1826 36.6552 31.1195C36.852 31.058 36.8932 30.9916 36.8997 30.9805C36.9061 30.9695 36.9429 30.9008 36.8978 30.6999C36.8516 30.4938 36.7305 30.2093 36.5003 29.8452C36.041 29.1185 35.2358 28.2121 34.1147 27.1845C32.854 26.0288 31.2328 24.755 29.3465 23.4531C28.5252 24.0102 27.6585 24.5704 26.754 25.1269C26.724 26.1881 26.6719 27.2183 26.5998 28.2078ZM29.3465 22.5483C31.2328 21.2464 32.854 19.9726 34.1147 18.8169C35.2358 17.7893 36.041 16.8828 36.5003 16.1562C36.7305 15.7921 36.8516 15.5076 36.8978 15.3015C36.9429 15.1006 36.9061 15.0319 36.8997 15.0209C36.8932 15.0097 36.852 14.9434 36.6552 14.8819C36.4531 14.8187 36.1459 14.7813 35.7153 14.7984C34.8558 14.8327 33.6676 15.0764 32.2165 15.5328C30.5849 16.0461 28.6708 16.8121 26.5998 17.7936C26.6719 18.7831 26.724 19.8133 26.754 20.8745C27.6585 21.431 28.5252 21.9912 29.3465 22.5483ZM26.7738 21.7654C27.433 22.1771 28.07 22.5898 28.6818 23.0007C28.07 23.4116 27.433 23.8243 26.7738 24.236C26.7804 23.8281 26.7838 23.4161 26.7838 23.0007C26.7838 22.5852 26.7804 22.1733 26.7738 21.7654ZM25.9922 20.4121C25.9651 19.6356 25.9259 18.8777 25.8757 18.1424C25.2135 18.4666 24.5371 18.8117 23.8506 19.1764C24.2074 19.3747 24.5661 19.5777 24.9261 19.7855C25.2864 19.9933 25.6419 20.2023 25.9922 20.4121ZM25.8757 27.859C25.2135 27.5348 24.5371 27.1897 23.8506 26.8249C24.2074 26.6267 24.5661 26.4237 24.9261 26.2159C25.2864 26.0081 25.6419 25.7991 25.9922 25.5892C25.9651 26.3658 25.9259 27.1237 25.8757 27.859Z" fill="white"/>
<path d="M32.2381 15.4727C32.2381 14.8235 31.7118 14.2972 31.0627 14.2972C30.4135 14.2972 29.8873 14.8235 29.8873 15.4727C29.8873 16.1218 30.4135 16.6481 31.0627 16.6481C31.7118 16.6481 32.2381 16.1218 32.2381 15.4727Z" fill="white"/>
<path d="M13.5655 19.4978C13.5655 18.8486 13.0395 18.3224 12.3906 18.3224C11.7418 18.3224 11.2158 18.8486 11.2158 19.4978C11.2158 20.1469 11.7418 20.6732 12.3906 20.6732C13.0395 20.6732 13.5655 20.1469 13.5655 19.4978Z" fill="white"/>
<path d="M20.7015 32.7462C21.3507 32.7462 21.8769 33.2722 21.8769 33.921C21.8769 34.5699 21.3507 35.0959 20.7015 35.0959C20.0523 35.0959 19.5261 34.5699 19.5261 33.921C19.5261 33.2722 20.0523 32.7462 20.7015 32.7462Z" fill="white"/>
<path d="M24.9937 22.9924C24.9937 21.8933 24.1028 21.0024 23.0037 21.0024C21.9046 21.0024 21.0136 21.8933 21.0136 22.9924C21.0136 24.0915 21.9046 24.9824 23.0037 24.9824C24.1028 24.9824 24.9937 24.0915 24.9937 22.9924Z" fill="white"/>
</svg>
