<svg width="46" height="46" viewBox="0 0 46 46" fill="none" xmlns="http://www.w3.org/2000/svg">
<path d="M45.3163 28.551C42.2472 40.8649 29.7753 48.3843 17.4388 45.3133C5.12485 42.2348 -2.38237 29.7629 0.686712 17.449C3.7558 5.13505 16.2202 -2.38426 28.5266 0.686691C40.8707 3.72001 48.3779 16.2296 45.3163 28.551Z" fill="#E6007A"/>
<path d="M28.2949 10.733C28.2949 12.5314 25.7882 13.9893 22.6961 13.9893C19.6039 13.9893 17.0973 12.5314 17.0973 10.733C17.0973 8.93462 19.6039 7.47675 22.6961 7.47675C25.7882 7.47675 28.2949 8.93462 28.2949 10.733Z" fill="white"/>
<path d="M28.2949 35.2683C28.2949 37.0667 25.7882 38.5245 22.6961 38.5245C19.6039 38.5245 17.0973 37.0667 17.0973 35.2683C17.0973 33.4699 19.6039 32.012 22.6961 32.012C25.7882 32.012 28.2949 33.4699 28.2949 35.2683Z" fill="white"/>
<path d="M14.8938 18.4967C16.4399 15.8189 16.4298 12.9187 14.8714 12.0189C13.313 11.1191 10.7963 12.5604 9.25018 15.2382C7.70412 17.916 7.71415 20.8162 9.2726 21.716C10.831 22.6158 13.3477 21.1745 14.8938 18.4967Z" fill="white"/>
<path d="M36.1192 24.2862C37.6766 25.1853 37.6858 28.0851 36.1397 30.7629C34.5937 33.4407 32.0778 34.8825 30.5204 33.9833C28.963 33.0841 28.9538 30.1844 30.4999 27.5066C32.046 24.8288 34.5618 23.387 36.1192 24.2862Z" fill="white"/>
<path d="M14.8725 33.9826C16.431 33.0828 16.441 30.1826 14.8949 27.5048C13.3489 24.827 10.8322 23.3856 9.27372 24.2854C7.71528 25.1852 7.70524 28.0854 9.25131 30.7632C10.7974 33.441 13.3141 34.8824 14.8725 33.9826Z" fill="white"/>
<path d="M36.1409 15.24C37.6869 17.9178 37.6777 20.8175 36.1203 21.7167C34.563 22.6159 32.0471 21.1741 30.501 18.4963C28.955 15.8185 28.9642 12.9187 30.5215 12.0196C32.0789 11.1204 34.5948 12.5622 36.1409 15.24Z" fill="white"/>
</svg>
