<svg width="46" height="46" viewBox="0 0 46 46" fill="none" xmlns="http://www.w3.org/2000/svg">
<path d="M45.3192 28.5529C42.2499 40.8675 29.7772 48.3873 17.4399 45.3162C5.12517 42.2375 -2.38252 29.7648 0.686756 17.4501C3.75604 5.13538 16.2212 -2.38441 28.5284 0.686734C40.8733 3.72024 48.381 16.2306 45.3192 28.5529Z" fill="#262C32"/>
<path d="M33.3015 10.9908H37.4528L28.8042 19.7356C25.6715 22.9067 20.5976 22.9067 17.4649 19.7356L8.81627 10.9908H12.9676L19.5405 17.6407C21.4817 19.6202 24.6913 19.6395 26.6709 17.6983C26.6901 17.6791 26.7093 17.6599 26.7285 17.6407L33.3015 10.9908ZM12.9292 35.3031H8.77783L17.4841 26.5007C20.6168 23.3295 25.6907 23.3295 28.8234 26.5007L37.5297 35.3031H33.3783L26.7669 28.6148C24.8258 26.6352 21.6162 26.616 19.6366 28.5572C19.6174 28.5764 19.5982 28.5956 19.579 28.6148L12.9292 35.3031Z" fill="white"/>
</svg>
