<svg width="46" height="46" viewBox="0 0 46 46" fill="none" xmlns="http://www.w3.org/2000/svg">
<path d="M45.3163 28.551C42.2472 40.8649 29.7753 48.3843 17.4388 45.3133C5.12485 42.2348 -2.38237 29.7629 0.686712 17.449C3.7558 5.13505 16.2202 -2.38426 28.5266 0.686691C40.8707 3.72001 48.3779 16.2296 45.3163 28.551Z" fill="#FF060A"/>
<path d="M36.7076 19.8754C35.3599 18.6311 33.4957 16.7309 31.9774 15.3832L31.8875 15.3204C31.738 15.2003 31.5695 15.1062 31.3889 15.0418C27.7278 14.359 10.6892 11.1741 10.3568 11.2146C10.2637 11.2276 10.1746 11.2614 10.0963 11.3134L10.0109 11.3808C9.90584 11.4875 9.82602 11.6164 9.77734 11.7581L9.75488 11.8165V12.1354V12.1849C11.673 17.526 19.2467 35.0228 20.7381 39.1286C20.8279 39.4072 20.9986 39.9372 21.3176 39.9642H21.3895C21.5602 39.9642 22.2879 39.0029 22.2879 39.0029C22.2879 39.0029 35.297 23.2265 36.6132 21.5464C36.7836 21.3395 36.934 21.1169 37.0624 20.8816C37.0952 20.6975 37.0798 20.5081 37.0176 20.3317C36.9554 20.1554 36.8486 19.9982 36.7076 19.8754ZM25.6255 21.7127L31.1778 17.1082L34.4346 20.109L25.6255 21.7127ZM23.4693 21.4117L13.9101 13.5774L29.3764 16.4299L23.4693 21.4117ZM24.3318 23.4646L34.1156 21.8879L22.9303 35.3642L24.3318 23.4646ZM12.6119 14.359L22.6697 22.8941L21.2143 35.3732L12.6119 14.359Z" fill="white"/>
</svg>
