<svg width="46" height="46" viewBox="0 0 46 46" fill="none" xmlns="http://www.w3.org/2000/svg">
<path d="M45.3192 28.5529C42.2499 40.8675 29.7772 48.3873 17.4399 45.3162C5.12517 42.2375 -2.38252 29.7648 0.686756 17.4501C3.75604 5.13538 16.2212 -2.38441 28.5284 0.686734C40.8733 3.72024 48.381 16.2306 45.3192 28.5529Z" fill="#F6F8FC"/>
<path fill-rule="evenodd" clip-rule="evenodd" d="M14.5425 13.3427H31.7657C32.1766 13.3427 32.5563 13.5556 32.7612 13.9011L37.7792 22.3596C38.0393 22.7982 37.9621 23.3519 37.5909 23.7076L23.7791 36.9441C23.3317 37.3728 22.612 37.3728 22.1646 36.9441L8.37159 23.7255C7.9918 23.3615 7.92068 22.7917 8.19996 22.3503L13.5636 13.874C13.7725 13.5438 14.1432 13.3427 14.5425 13.3427ZM29.5419 17.1191V19.4924H24.6357V21.1379C28.0814 21.3137 30.6667 22.036 30.6859 22.9016L30.6858 24.7062C30.6666 25.5719 28.0814 26.2941 24.6357 26.47V30.5082H21.3779V26.47C17.9321 26.2941 15.3469 25.5719 15.3277 24.7062L15.3278 22.9016C15.347 22.036 17.9321 21.3137 21.3779 21.1379V19.4924H16.4717V17.1191H29.5419ZM23.0068 25.2302C26.684 25.2302 29.7576 24.6195 30.5098 23.8039C29.8719 23.1123 27.5648 22.5681 24.6357 22.4186V24.1414C24.1107 24.1682 23.5657 24.1823 23.0068 24.1823C22.4479 24.1823 21.9029 24.1682 21.3779 24.1414V22.4186C18.4488 22.5681 16.1417 23.1123 15.5038 23.8039C16.256 24.6195 19.3295 25.2302 23.0068 25.2302Z" fill="#009393"/>
</svg>
