<svg width="46" height="46" viewBox="0 0 46 46" fill="none" xmlns="http://www.w3.org/2000/svg">
<path d="M23 46C35.7025 46 46 35.7025 46 23C46 10.2975 35.7025 0 23 0C10.2975 0 0 10.2975 0 23C0 35.7025 10.2975 46 23 46Z" fill="url(#paint0_linear_45_26717)"/>
<path d="M29.6371 27.9733L36.1443 24.2159C36.489 24.0168 36.7021 23.6468 36.7021 23.2486V15.7347C36.7021 15.3374 36.488 14.9665 36.1443 14.7674L29.6371 11.01C29.2925 10.8109 28.8652 10.8118 28.5205 11.01L22.0134 14.7674C21.6687 14.9665 21.4555 15.3374 21.4555 15.7347V29.1632L16.8923 31.7974L12.3291 29.1632V23.8938L16.8923 21.2595L19.9022 22.9969V19.462L17.4502 18.0468C17.2811 17.9491 17.0877 17.8975 16.8914 17.8975C16.6951 17.8975 16.5017 17.9491 16.3336 18.0468L9.82639 21.8042C9.48173 22.0033 9.26855 22.3733 9.26855 22.7715V30.2854C9.26855 30.6827 9.48267 31.0536 9.82639 31.2527L16.3336 35.0101C16.6773 35.2083 17.1055 35.2083 17.4502 35.0101L23.9573 31.2536C24.302 31.0545 24.5152 30.6836 24.5152 30.2863V16.8579L24.5978 16.8109L29.0784 14.2236L33.6415 16.8579V22.1273L29.0784 24.7615L26.0732 23.026V26.5609L28.5205 27.9742C28.8652 28.1724 29.2925 28.1724 29.6371 27.9742V27.9733Z" fill="white"/>
<defs>
<linearGradient id="paint0_linear_45_26717" x1="-8.40645" y1="3.78072" x2="39.0811" y2="32.8408" gradientUnits="userSpaceOnUse">
<stop stop-color="#A229C5"/>
<stop offset="1" stop-color="#7B3FE4"/>
</linearGradient>
</defs>
</svg>
