<svg width="46" height="46" viewBox="0 0 46 46" fill="none" xmlns="http://www.w3.org/2000/svg">
<path d="M45.3163 28.551C42.2472 40.8649 29.7753 48.3843 17.4388 45.3133C5.12485 42.2348 -2.38237 29.7629 0.686712 17.449C3.7558 5.13505 16.2202 -2.38426 28.5266 0.686691C40.8707 3.72001 48.3779 16.2296 45.3163 28.551Z" fill="#F0B90B"/>
<path d="M26.6459 12.0965L23.0949 8.45999L14.1533 17.4871L17.7043 21.0381L26.6459 12.0965Z" fill="white"/>
<path d="M32.0365 17.4871L28.4855 13.8506L14.1533 28.2684L17.7043 31.8194L32.0365 17.4871Z" fill="white"/>
<path d="M12.3137 19.2412L15.8646 22.8778L12.3137 26.4287L8.7627 22.8778L12.3137 19.2412Z" fill="white"/>
<path d="M37.4271 22.8778L33.8762 19.2412L19.5439 33.659L23.0949 37.21L37.4271 22.8778Z" fill="white"/>
</svg>
