<svg width="20" height="20" viewBox="0 0 20 20" fill="none" xmlns="http://www.w3.org/2000/svg">
<g opacity="0.6">
<path d="M17.832 2L1.83203 18" stroke="white" stroke-linecap="round"/>
<path fill-rule="evenodd" clip-rule="evenodd" d="M9.81604 7.18755C9.80966 7.18752 9.80328 7.1875 9.79689 7.1875C7.96743 7.1875 6.48438 8.67055 6.48438 10.5C6.48438 10.5064 6.48439 10.5128 6.48443 10.5192L9.81604 7.18755ZM8.95568 13.7048C9.2243 13.7751 9.50622 13.8125 9.79689 13.8125C11.6263 13.8125 13.1094 12.3295 13.1094 10.5C13.1094 10.2093 13.072 9.92742 13.0016 9.65881L12.1088 10.5516C12.0818 11.7878 11.0847 12.7849 9.84849 12.812L8.95568 13.7048Z" fill="white"/>
<path fill-rule="evenodd" clip-rule="evenodd" d="M12.2678 4.73587C11.5149 4.50895 10.6916 4.375 9.79691 4.375C6.80339 4.375 4.60821 5.87473 3.18107 7.33846C2.46656 8.07129 1.93643 8.80271 1.58456 9.35109C1.40834 9.62572 1.27605 9.85565 1.18703 10.0186C1.1425 10.1001 1.10873 10.1649 1.08566 10.2103C1.07412 10.233 1.06525 10.2508 1.05904 10.2635L1.05171 10.2785L1.04954 10.283L1.04883 10.2845L1.04856 10.2851C1.04846 10.2853 1.04836 10.2855 1.5 10.5L1.04836 10.2855C0.98388 10.4212 0.98388 10.5788 1.04836 10.7146L1.5 10.5C1.04836 10.7146 1.04846 10.7148 1.04856 10.715L1.04883 10.7155L1.04954 10.717L1.05171 10.7215L1.05904 10.7366C1.06525 10.7492 1.07412 10.7671 1.08566 10.7898C1.10873 10.8352 1.1425 10.9 1.18703 10.9815C1.27605 11.1444 1.40834 11.3743 1.58456 11.649C1.93643 12.1973 2.46656 12.9288 3.18107 13.6616C3.20742 13.6886 3.23404 13.7157 3.26092 13.7427L3.96803 13.0356C3.94417 13.0116 3.92052 12.9875 3.89707 12.9635C3.24048 12.2901 2.75107 11.6152 2.42619 11.1089C2.26403 10.8562 2.14363 10.6467 2.06456 10.502L2.0635 10.5L2.06456 10.4981C2.14363 10.3534 2.26403 10.1439 2.42619 9.89114C2.75107 9.38482 3.24048 8.70999 3.89707 8.03656C5.21213 6.68778 7.1654 5.375 9.79691 5.375C10.3807 5.375 10.9312 5.43962 11.4487 5.55492L12.2678 4.73587ZM7.41679 15.2437C8.13759 15.4827 8.93049 15.625 9.79691 15.625C12.4284 15.625 14.3817 14.3123 15.6967 12.9635C16.3533 12.2901 16.8427 11.6152 17.1676 11.1089C17.3298 10.8562 17.4502 10.6467 17.5293 10.502L17.5303 10.5L17.5293 10.4981C17.4502 10.3534 17.3298 10.1439 17.1676 9.89114C16.8427 9.38482 16.3533 8.70999 15.6967 8.03656C15.5248 7.86024 15.342 7.68453 15.1482 7.51229L15.8563 6.80415C16.0533 6.98093 16.2387 7.15997 16.4127 7.33846C17.1273 8.07129 17.6574 8.80271 18.0093 9.35109C18.1855 9.62572 18.3178 9.85565 18.4068 10.0186C18.4513 10.1001 18.4851 10.1649 18.5082 10.2103C18.5197 10.233 18.5286 10.2508 18.5348 10.2635L18.5421 10.2785L18.5443 10.283L18.545 10.2845L18.5453 10.2851C18.5454 10.2853 18.5455 10.2855 18.0938 10.5C18.5455 10.7146 18.5454 10.7148 18.5453 10.715L18.545 10.7155L18.5443 10.717L18.5421 10.7215L18.5348 10.7366C18.5286 10.7492 18.5197 10.7671 18.5082 10.7898C18.4851 10.8352 18.4513 10.9 18.4068 10.9815C18.3178 11.1444 18.1855 11.3743 18.0093 11.649C17.6574 12.1973 17.1273 12.9288 16.4127 13.6616C14.9856 15.1253 12.7904 16.625 9.79691 16.625C8.6209 16.625 7.56811 16.3936 6.63668 16.0238L7.41679 15.2437ZM18.0938 10.5L18.5455 10.7146C18.6099 10.5788 18.6099 10.4212 18.5455 10.2855L18.0938 10.5Z" fill="white"/>
</g>
</svg>
