<svg width="39" height="39" viewBox="0 0 39 39" fill="none" xmlns="http://www.w3.org/2000/svg">
<mask id="mask0_2001_24" style="mask-type:luminance" maskUnits="userSpaceOnUse" x="2" y="3" width="34" height="33">
<path d="M35 35V3.99987H3.99988V35H35Z" fill="white" stroke="white" stroke-width="2"/>
</mask>
<g mask="url(#mask0_2001_24)">
<path d="M19.4999 5.68269L18.9412 5.12394C17.3983 3.58106 14.8968 3.58106 13.3539 5.12394C11.8109 6.66689 11.8109 9.16839 13.3539 10.7113L19.4999 16.8574L25.646 10.7113C27.189 9.16839 27.189 6.66689 25.646 5.12394C24.1031 3.58106 21.6016 3.58106 20.0587 5.12394L19.4999 5.68269Z" stroke="black" stroke-width="2" stroke-miterlimit="10" stroke-linecap="round" stroke-linejoin="round"/>
<path d="M25.8537 24.4353L29.969 20.3201C30.3281 19.961 30.6129 19.5347 30.8073 19.0655C31.0016 18.5964 31.1016 18.0935 31.1016 17.5857V8.47841C31.1016 7.41048 31.9673 6.54481 33.0352 6.54481C34.1031 6.54481 34.9688 7.41048 34.9688 8.47841V20.3246C34.9688 21.8324 34.4402 23.2925 33.475 24.4508L29.2704 29.4963C28.7878 30.0754 28.5235 30.8054 28.5235 31.5593V35.0332H19.5V27.9904C19.5 26.2811 20.179 24.6418 21.3876 23.433L27 17.8204C27.755 17.0653 28.9792 17.0653 29.7344 17.8203C30.4894 18.5754 30.4895 19.7996 29.7344 20.5547L25.8537 24.4356" stroke="black" stroke-width="2" stroke-miterlimit="10" stroke-linecap="round" stroke-linejoin="round"/>
<path d="M13.1462 24.4353L9.03097 20.3201C8.67188 19.961 8.38703 19.5347 8.19269 19.0655C7.99835 18.5964 7.89833 18.0935 7.89833 17.5857V8.47841C7.89833 7.41048 7.03259 6.54481 5.96473 6.54481C4.8968 6.54481 4.03113 7.41048 4.03113 8.47841V20.3246C4.03112 21.8324 4.55972 23.2925 5.52496 24.4508L9.72952 29.4963C10.2122 30.0754 10.4765 30.8054 10.4765 31.5593V35.0332H19.4999V27.9904C19.4999 26.2811 18.8209 24.6418 17.6123 23.433L12 17.8204C11.2449 17.0653 10.0207 17.0653 9.26558 17.8203C8.51051 18.5754 8.51044 19.7996 9.26552 20.5547L13.1462 24.4356" stroke="black" stroke-width="2" stroke-miterlimit="10" stroke-linecap="round" stroke-linejoin="round"/>
</g>
</svg>
