<svg width="272" height="148" viewBox="0 0 272 148" fill="none" xmlns="http://www.w3.org/2000/svg">
<path d="M69.1808 110.5H69.1562C68.528 110.5 68.0291 111.01 68.0291 111.641C68.0291 112.271 68.5503 112.781 69.1808 112.781C69.809 112.781 70.3214 112.271 70.3214 111.641C70.3214 111.01 69.809 110.5 69.1808 110.5Z" fill="#38B1DC" stroke="white" stroke-width="1.5"/>
<path d="M91.9935 99.0939H91.969C91.3408 99.0939 90.8418 99.604 90.8418 100.234C90.8418 100.865 91.363 101.375 91.9935 101.375C92.6217 101.375 93.1341 100.865 93.1341 100.234C93.1341 99.604 92.6217 99.0939 91.9935 99.0939Z" fill="#38B1DC" stroke="white" stroke-width="1.5"/>
<path d="M130.775 128.75H130.75C130.122 128.75 129.623 129.26 129.623 129.891C129.623 130.521 130.144 131.031 130.775 131.031C131.403 131.031 131.915 130.521 131.915 129.891C131.915 129.26 131.403 128.75 130.775 128.75Z" fill="#38B1DC" stroke="white" stroke-width="1.5"/>
<path d="M149.024 144.719H149C148.372 144.719 147.873 145.229 147.873 145.859C147.873 146.49 148.394 147 149.024 147C149.653 147 150.165 146.49 150.165 145.859C150.165 145.229 149.653 144.719 149.024 144.719Z" fill="#38B1DC" stroke="white" stroke-width="1.5"/>
<path d="M187.806 137.875H187.781C187.153 137.875 186.654 138.385 186.654 139.016C186.654 139.646 187.175 140.156 187.806 140.156C188.434 140.156 188.946 139.646 188.946 139.016C188.946 138.385 188.434 137.875 187.806 137.875Z" fill="#38B1DC" stroke="white" stroke-width="1.5"/>
<path d="M258.152 130H258.127C257.499 130 257 130.51 257 131.14C257 131.771 257.521 132.281 258.152 132.281C258.78 132.281 259.292 131.771 259.292 131.14C259.292 130.51 258.78 130 258.152 130Z" fill="#38B1DC" stroke="white" stroke-width="1.5"/>
<path d="M208.152 31.9999H208.127C207.499 31.9999 207 32.51 207 33.1405C207 33.771 207.521 34.2811 208.152 34.2811C208.78 34.2811 209.292 33.771 209.292 33.1405C209.292 32.51 208.78 31.9999 208.152 31.9999Z" fill="#38B1DC" stroke="white" stroke-width="1.5"/>
<path d="M43.1517 18.9999H43.1272C42.499 18.9999 42 19.51 42 20.1405C42 20.771 42.5209 21.2811 43.1517 21.2811C43.7799 21.2811 44.2923 20.771 44.2923 20.1405C44.2923 19.51 43.7797 18.9999 43.1517 18.9999Z" fill="#38B1DC" stroke="white" stroke-width="1.5"/>
<path d="M45.1517 81.9999H45.1272C44.499 81.9999 44 82.51 44 83.1405C44 83.771 44.5209 84.2811 45.1517 84.2811C45.7799 84.2811 46.2923 83.771 46.2923 83.1405C46.2923 82.51 45.7797 81.9999 45.1517 81.9999Z" fill="#38B1DC" stroke="white" stroke-width="1.5"/>
<path d="M2.15173 9.99988H2.12719C1.49898 9.99988 1 10.51 1 11.1405C1 11.771 1.52094 12.2811 2.15173 12.2811C2.77994 12.2811 3.29234 11.771 3.29234 11.1405C3.29234 10.51 2.77966 9.99988 2.15173 9.99988Z" fill="#38B1DC" stroke="white" stroke-width="1.5"/>
<path d="M16.1517 113H16.1272C15.499 113 15 113.51 15 114.14C15 114.771 15.5209 115.281 16.1517 115.281C16.7799 115.281 17.2923 114.771 17.2923 114.14C17.2923 113.51 16.7797 113 16.1517 113Z" fill="#38B1DC" stroke="white" stroke-width="1.5"/>
<path d="M169.556 121.906H169.531C168.903 121.906 168.404 122.416 168.404 123.047C168.404 123.677 168.925 124.188 169.556 124.188C170.184 124.188 170.696 123.677 170.696 123.047C170.696 122.416 170.184 121.906 169.556 121.906Z" fill="#38B1DC" stroke="white" stroke-width="1.5"/>
<path d="M206.056 62.594H206.031C205.403 62.594 204.904 63.1041 204.904 63.7346C204.904 64.3651 205.425 64.8752 206.056 64.8752C206.684 64.8752 207.196 64.3651 207.196 63.7346C207.196 63.1041 206.684 62.594 206.056 62.594Z" fill="#38B1DC" stroke="white" stroke-width="1.5"/>
<path d="M155.868 16.9688H155.844C155.216 16.9688 154.716 17.4789 154.716 18.1094C154.716 18.7396 155.238 19.25 155.868 19.25C156.497 19.25 157.009 18.7399 157.009 18.1094C157.009 17.4789 156.497 16.9688 155.868 16.9688Z" fill="#38B1DC" stroke="white" stroke-width="1.5"/>
<path d="M190.087 39.7813H190.063C189.435 39.7813 188.936 40.2914 188.936 40.9219C188.936 41.5524 189.457 42.0625 190.087 42.0625C190.715 42.0625 191.228 41.5524 191.228 40.9219C191.228 40.2914 190.715 39.7813 190.087 39.7813Z" fill="#38B1DC" stroke="white" stroke-width="1.5"/>
<path d="M80.587 12.4063H80.5625C79.9346 12.4063 79.4353 12.9167 79.4353 13.5469C79.4353 14.1774 79.9565 14.6875 80.587 14.6875C81.2152 14.6875 81.7276 14.1774 81.7276 13.5469C81.7276 12.9167 81.2152 12.4063 80.587 12.4063Z" fill="#38B1DC" stroke="white" stroke-width="1.5"/>
<path d="M176.399 1H176.375C175.747 1 175.248 1.5101 175.248 2.1406C175.248 2.7711 175.769 3.28121 176.399 3.28121C177.028 3.28121 177.54 2.7711 177.54 2.1406C177.54 1.5101 177.028 1 176.399 1Z" fill="#38B1DC" stroke="white" stroke-width="1.5"/>
<path d="M206.056 117.344H206.031C205.403 117.344 204.904 117.854 204.904 118.484C204.904 119.115 205.425 119.625 206.056 119.625C206.684 119.625 207.196 119.115 207.196 118.484C207.196 117.854 206.684 117.344 206.056 117.344Z" fill="#38B1DC" stroke="white" stroke-width="1.5"/>
<path d="M87.4308 37.5002H87.4062C86.778 37.5002 86.2791 38.0103 86.2791 38.6408C86.2791 39.2713 86.8003 39.7814 87.4308 39.7814C88.059 39.7814 88.5714 39.2713 88.5714 38.6408C88.5714 38.0103 88.059 37.5002 87.4308 37.5002Z" fill="#38B1DC" stroke="white" stroke-width="1.5"/>
<path d="M87.4308 37.5002H87.4062C86.778 37.5002 86.2791 38.0103 86.2791 38.6408C86.2791 39.2713 86.8003 39.7814 87.4308 39.7814C88.059 39.7814 88.5714 39.2713 88.5714 38.6408C88.5714 38.0103 88.059 37.5002 87.4308 37.5002Z" fill="#38B1DC" stroke="white" stroke-width="1.5"/>
<path d="M73.6743 67.1565C73.0438 67.1565 72.5337 67.6666 72.5337 68.2971V77.4219C72.5337 78.0524 73.0438 78.5625 73.6743 78.5625C74.3048 78.5625 74.8149 78.0524 74.8149 77.4219V68.2971C74.8149 67.6666 74.3045 67.1565 73.6743 67.1565Z" fill="#38B1DC" stroke="white" stroke-width="1.5"/>
<path d="M257.872 95.8065C257.426 95.3607 256.704 95.3607 256.259 95.8065L249.806 102.259C249.361 102.705 249.361 103.426 249.806 103.872C250.252 104.318 250.974 104.318 251.419 103.872L257.872 97.4196C258.318 96.9738 258.317 96.2522 257.872 95.8065Z" fill="#38B1DC" stroke="white" stroke-width="1.5"/>
<path d="M75.9557 71.7187H71.393C70.7628 71.7187 70.2524 72.2288 70.2524 72.8593C70.2524 73.4898 70.7628 73.9999 71.393 73.9999H75.9555C76.586 73.9999 77.0963 73.4898 77.0963 72.8593C77.0963 72.2288 76.5862 71.7187 75.9557 71.7187Z" fill="#38B1DC" stroke="white" stroke-width="1.5"/>
<path d="M256.259 100.646L253.033 97.4196C252.587 96.9739 251.866 96.9737 251.42 97.4196C250.974 97.8654 250.974 98.587 251.42 99.0326L254.646 102.259C255.092 102.705 255.813 102.705 256.259 102.259C256.705 101.813 256.705 101.092 256.259 100.646Z" fill="#38B1DC" stroke="white" stroke-width="1.5"/>
<path d="M210.549 85.4064C209.919 85.4064 209.408 85.9168 209.408 86.547V95.6721C209.408 96.3026 209.919 96.8127 210.549 96.8127C211.18 96.8127 211.69 96.3026 211.69 95.6721V86.547C211.69 85.9168 211.18 85.4064 210.549 85.4064Z" fill="#38B1DC" stroke="white" stroke-width="1.5"/>
<path d="M14.8065 79.8065C14.3609 80.2521 14.3609 80.9739 14.8065 81.4196L21.259 87.872C21.7048 88.3178 22.4264 88.3176 22.872 87.872C23.3178 87.4262 23.3179 86.7048 22.872 86.2589L16.4196 79.8065C15.974 79.3609 15.2524 79.3607 14.8065 79.8065Z" fill="#38B1DC" stroke="white" stroke-width="1.5"/>
<path d="M259 49.4217C259 50.0519 259.51 50.5623 260.141 50.5623L269.266 50.5623C269.896 50.5623 270.406 50.0519 270.406 49.4216C270.406 48.7911 269.896 48.281 269.266 48.281L260.141 48.281C259.51 48.281 259 48.7911 259 49.4217Z" fill="#38B1DC" stroke="white" stroke-width="1.5"/>
<path d="M212.83 89.9686H208.268C207.637 89.9686 207.127 90.479 207.127 91.1092C207.127 91.74 207.637 92.2498 208.268 92.2498H212.83C213.461 92.2498 213.971 91.74 213.971 91.1092C213.971 90.479 213.461 89.9686 212.83 89.9686Z" fill="#38B1DC" stroke="white" stroke-width="1.5"/>
<path d="M19.6457 81.4198L16.4196 84.6459C15.9737 85.0917 15.9739 85.8133 16.4196 86.2589C16.8656 86.7049 17.5868 86.7048 18.0326 86.2589L21.2587 83.0328C21.7046 82.587 21.7048 81.8658 21.2587 81.4198C20.8131 80.9741 20.0915 80.9739 19.6457 81.4198Z" fill="#38B1DC" stroke="white" stroke-width="1.5"/>
<path d="M263.562 47.1405L263.562 51.7029C263.562 52.3334 264.073 52.8435 264.703 52.8435C265.334 52.8435 265.844 52.3334 265.844 51.7029L265.844 47.1405C265.844 46.51 265.334 45.9999 264.703 45.9999C264.073 45.9999 263.562 46.51 263.562 47.1405Z" fill="#38B1DC" stroke="white" stroke-width="1.5"/>
<path d="M112.456 1C111.825 1 111.315 1.5101 111.315 2.1406V11.2657C111.315 11.8962 111.825 12.4063 112.456 12.4063C113.086 12.4063 113.596 11.8959 113.596 11.2654V2.1406C113.596 1.5101 113.086 1 112.456 1Z" fill="#38B1DC" stroke="white" stroke-width="1.5"/>
<path d="M114.737 5.56244H110.174C109.544 5.56244 109.034 6.07254 109.034 6.70304C109.034 7.33354 109.544 7.84365 110.174 7.84365H114.737C115.367 7.84365 115.877 7.33354 115.877 6.70304C115.877 6.07254 115.367 5.56244 114.737 5.56244Z" fill="#38B1DC" stroke="white" stroke-width="1.5"/>
<path d="M47.714 126.125H47.6895C47.0612 126.125 46.5623 126.635 46.5623 127.265C46.5623 127.896 47.0835 128.406 47.714 128.406C48.3422 128.406 48.8546 127.896 48.8546 127.265C48.8546 126.635 48.3422 126.125 47.714 126.125Z" fill="#38B1DC" stroke="white" stroke-width="1.5"/>
<path d="M43.1517 121.562H43.1272C42.499 121.562 42 122.073 42 122.703C42 123.333 42.5212 123.844 43.1517 123.844C43.7799 123.844 44.2923 123.333 44.2923 122.703C44.2923 122.073 43.7799 121.562 43.1517 121.562Z" fill="#38B1DC" stroke="white" stroke-width="1.5"/>
<path d="M47.2654 113C41.6049 113 37 117.605 37 123.266C37 128.926 41.6046 133.531 47.2654 133.531C52.9259 133.531 57.5308 128.926 57.5311 123.266C57.5311 117.605 52.9259 113 47.2654 113ZM47.2654 131.25C42.8636 131.25 39.2812 127.667 39.2812 123.265C39.2812 118.863 42.8633 115.281 47.2654 115.281C51.6675 115.281 55.2496 118.863 55.2496 123.265C55.2496 127.667 51.6675 131.25 47.2654 131.25Z" fill="#38B1DC" stroke="white" stroke-width="1.5"/>
<path d="M49.9262 117C48.0393 117 46.5044 118.535 46.5044 120.422C46.5044 122.309 48.0393 123.844 49.9262 123.844C51.8131 123.844 53.348 122.309 53.348 120.422C53.348 118.535 51.8131 117 49.9262 117ZM49.9262 121.562C49.298 121.562 48.7856 121.05 48.7856 120.422C48.7856 119.793 49.298 119.281 49.9262 119.281C50.5544 119.281 51.0668 119.793 51.0668 120.422C51.0668 121.05 50.5544 121.562 49.9262 121.562Z" fill="#38B1DC" stroke="white" stroke-width="1.5"/>
<path d="M242.265 8C236.605 8 232 12.6049 232 18.2657C232 23.9265 236.605 28.5314 242.265 28.5314C247.926 28.5314 252.531 23.9265 252.531 18.2657C252.531 12.6049 247.926 8 242.265 8ZM242.265 26.2502C237.864 26.2502 234.281 22.6678 234.281 18.2657C234.281 13.8636 237.863 10.2812 242.265 10.2812C246.667 10.2812 250.25 13.8636 250.25 18.2657C250.25 22.6678 246.667 26.2502 242.265 26.2502Z" fill="#38B1DC" stroke="white" stroke-width="1.5"/>
<path d="M239.984 12.5623H234.363C233.733 12.5623 233.223 13.0726 233.223 13.7029C233.223 14.3334 233.733 14.8435 234.363 14.8435H239.984C240.614 14.8435 241.125 14.3334 241.124 13.7029C241.124 13.0726 240.614 12.5623 239.984 12.5623Z" fill="#38B1DC" stroke="white" stroke-width="1.5"/>
<path d="M243.406 17.125C240.848 17.125 238.844 18.6276 238.844 20.5468C238.844 22.466 240.848 23.9686 243.406 23.9686C245.963 23.9686 247.968 22.466 247.968 20.5468C247.968 18.6276 245.964 17.125 243.406 17.125ZM243.406 21.6874C242.013 21.6874 241.125 21.0124 241.125 20.5468C241.125 20.0812 242.013 19.4062 243.406 19.4062C244.798 19.4062 245.687 20.0812 245.687 20.5468C245.687 21.0124 244.798 21.6874 243.406 21.6874Z" fill="#38B1DC" stroke="white" stroke-width="1.5"/>
<path d="M27.1671 48.0628C27.0611 47.9083 26.9464 47.7572 26.8318 47.6061C26.7478 47.4955 26.6637 47.3849 26.5837 47.2732C26.5488 47.2245 26.4932 47.1404 26.4243 47.0363C26.0272 46.4374 25.6172 45.8406 25.3512 45.6975C25.2742 45.6564 25.1781 45.6849 25.137 45.7619C25.0956 45.8389 25.1247 45.9349 25.2016 45.9762C25.4197 46.0935 25.9389 46.8768 26.1604 47.2111C26.2324 47.3195 26.2902 47.4068 26.3266 47.4578C26.4082 47.5715 26.4938 47.6843 26.5797 47.7974C26.6913 47.9444 26.8031 48.0918 26.9066 48.242C27.3173 48.8377 27.4671 49.3377 27.3522 49.7288C27.2975 49.9145 27.1779 50.0842 26.9851 50.2476C26.9372 50.2887 26.5865 50.5535 26.4882 50.6088C26.4632 50.6138 26.4391 50.6249 26.4181 50.6422C26.351 50.6984 26.3421 50.798 26.3981 50.8653C26.4252 50.8981 26.4673 50.9194 26.5096 50.9228C26.5117 50.9231 26.5136 50.9231 26.5157 50.9231C26.6736 50.9231 27.1872 50.4911 27.1909 50.4877C27.4279 50.2869 27.5842 50.0613 27.6556 49.8178C27.8008 49.324 27.6411 48.7499 27.1671 48.0628Z" fill="#38B1DC"/>
<path d="M31.0116 41C27.6968 41 25 43.6968 25 47.0116C25 50.3265 27.6968 53.0233 31.0116 53.0233C34.3265 53.0233 37.0233 50.3265 37.0233 47.0116C37.0233 43.6968 34.3264 41 31.0116 41ZM31.0116 52.7069C27.8714 52.7069 25.3164 50.1522 25.3164 47.0117C25.3164 43.8713 27.8714 41.3164 31.0116 41.3164C34.1519 41.3164 36.7069 43.8713 36.7069 47.0117C36.7069 50.1523 34.1519 52.7069 31.0116 52.7069Z" fill="#38B1DC"/>
<path d="M36.6184 44.8512C36.607 44.7641 36.5249 44.704 36.4408 44.7149C36.1905 44.7477 35.5169 45.1199 35.4851 45.3617C35.4768 45.4262 35.4545 45.4411 35.4471 45.446C35.3529 45.5104 35.0528 45.4301 34.8347 45.3717C34.4735 45.2752 34.0996 45.1752 33.9188 45.4212C33.8298 45.5426 33.8351 45.7201 33.9328 45.8962C34.1036 46.2035 34.5581 46.511 35.3507 46.4716C35.3158 46.6562 35.0986 47.0922 34.703 47.771L34.6419 47.8767C34.4815 48.1542 34.4256 48.4508 34.3715 48.7375C34.3224 48.999 34.2757 49.2461 34.1543 49.468C34.0489 49.6602 33.8916 49.8215 33.7251 49.9927C33.6408 50.0789 33.557 50.1651 33.4801 50.2547C33.2076 50.5711 32.932 50.851 32.5214 50.8177C32.3548 50.8032 32.2297 50.6317 32.1493 50.3078C32.0786 50.0223 32.0563 49.7325 32.0329 49.426C32.0075 49.0932 31.9809 48.749 31.887 48.4088C31.6692 47.6221 31.019 47.6218 30.4452 47.6215L30.2787 47.6209C29.6215 47.6134 29.2143 47.2093 29.1895 46.5404C29.166 45.9142 29.336 45.4308 29.6954 45.1034C30.0998 44.7342 30.6004 44.6959 30.6585 44.7032L30.7113 44.7126C30.9446 44.7541 31.6543 44.8808 31.8088 44.9658C32.2778 45.2252 32.7531 45.0903 33.0179 44.8964C33.2178 44.75 33.3176 44.566 33.2852 44.4045C33.1921 43.9392 31.1068 43.6207 30.9338 43.6082C30.8466 43.6015 30.7434 43.6203 30.6353 43.6398C30.5222 43.6603 30.3118 43.6979 30.2676 43.6497C30.2278 43.6059 30.2809 43.479 30.3551 43.3811C30.7827 42.8176 31.418 42.5659 32.0903 42.2994C32.3384 42.201 32.5952 42.0993 32.8387 41.981C32.9116 41.9453 33.1557 41.8106 33.2243 41.5762C33.249 41.4923 33.2008 41.4044 33.1171 41.3798C33.0321 41.3548 32.9453 41.4037 32.9208 41.4872C32.8934 41.581 32.7642 41.6652 32.6999 41.6966C32.4676 41.8097 32.2164 41.909 31.9738 42.0052C31.2904 42.2759 30.584 42.5559 30.1029 43.1899C29.9116 43.4418 29.8851 43.6996 30.0334 43.8624C30.1947 44.0406 30.4703 43.9909 30.6915 43.9513C30.7756 43.9361 30.8617 43.9199 30.9112 43.9238C31.511 43.9672 32.8507 44.3132 32.9746 44.4653C32.9755 44.4877 32.9307 44.5819 32.7846 44.6724C32.69 44.7307 32.3529 44.9044 31.9614 44.6888C31.7856 44.5919 31.2835 44.4932 30.7669 44.4011L30.7141 44.3917C30.546 44.3622 29.9642 44.4495 29.5127 44.8424C29.2019 45.1127 28.8385 45.6289 28.8731 46.5521C28.9046 47.3969 29.442 47.9278 30.275 47.9373L30.4452 47.9379C31.0549 47.9383 31.4359 47.9651 31.582 48.4935C31.6679 48.8038 31.692 49.1177 31.7174 49.4502C31.7408 49.7564 31.7653 50.0725 31.8422 50.3839C31.9587 50.8533 32.1781 51.1051 32.4942 51.1329C32.5266 51.1357 32.5584 51.1372 32.59 51.1372C33.0933 51.1372 33.4363 50.7905 33.7201 50.461C33.7928 50.3757 33.8722 50.2948 33.9516 50.2132C34.1256 50.0346 34.3057 49.8499 34.4318 49.62C34.5773 49.3542 34.6308 49.0705 34.6827 48.7959C34.734 48.5231 34.7825 48.2657 34.9157 48.0348L34.9765 47.9304C35.5972 46.8649 35.7564 46.4586 35.6306 46.2579C35.5833 46.1826 35.5014 46.1428 35.4045 46.1511C34.7602 46.2005 34.377 45.9909 34.2318 45.7786C34.1694 45.6875 34.1681 45.6207 34.1737 45.6085C34.2275 45.5362 34.5689 45.6282 34.7528 45.6773C35.0902 45.7677 35.4082 45.8531 35.6235 45.7088C35.6884 45.6654 35.7694 45.581 35.7956 45.4247C35.8701 45.327 36.2842 45.0547 36.4822 45.0286C36.5687 45.0173 36.6296 44.9378 36.6184 44.8512Z" fill="#38B1DC"/>
<g clip-path="url(#clip0_6599_19432)">
<path d="M170.699 55.6258C171.46 55.6258 172.076 55.0093 172.076 54.2489V44.7363C172.076 42.4585 170.223 40.6055 167.945 40.6055H166.568V36.9336C166.568 34.6557 164.715 32.8027 162.438 32.8027H161.061V29.1309C161.061 26.853 159.208 25 156.93 25H104.055C101.777 25 99.9238 26.853 99.9238 29.1309V36.6751C99.9238 37.4355 100.54 38.052 101.301 38.052C102.061 38.052 102.678 37.4355 102.678 36.6751V29.1309C102.678 28.3715 103.295 27.7539 104.055 27.7539H156.93C157.689 27.7539 158.307 28.3715 158.307 29.1309V99.2637C158.307 100.023 157.689 100.641 156.93 100.641H153.669C152.909 100.641 152.292 101.257 152.292 102.018C152.292 102.778 152.909 103.395 153.669 103.395H156.93C159.208 103.395 161.061 101.542 161.061 99.2637V35.5566H162.438C163.197 35.5566 163.814 36.1742 163.814 36.9336V107.066C163.814 107.826 163.197 108.443 162.438 108.443H109.562C108.803 108.443 108.186 107.826 108.186 107.066V103.395H147.658C148.418 103.395 149.035 102.778 149.035 102.018C149.035 101.257 148.418 100.641 147.658 100.641H104.055C103.295 100.641 102.678 100.023 102.678 99.2637V42.5674C102.678 41.8069 102.061 41.1904 101.301 41.1904C100.54 41.1904 99.9238 41.8069 99.9238 42.5674V99.2637C99.9238 101.542 101.777 103.395 104.055 103.395H105.432V107.066C105.432 109.344 107.285 111.197 109.562 111.197H110.939V114.869C110.939 117.147 112.792 119 115.07 119H167.945C170.223 119 172.076 117.147 172.076 114.869V60.1922C172.076 59.4317 171.46 58.8152 170.699 58.8152C169.939 58.8152 169.322 59.4317 169.322 60.1922V114.869C169.322 115.628 168.705 116.246 167.945 116.246H115.07C114.311 116.246 113.693 115.628 113.693 114.869V111.197H162.438C164.715 111.197 166.568 109.344 166.568 107.066V43.3594H167.945C168.705 43.3594 169.322 43.977 169.322 44.7363V54.2489C169.322 55.0093 169.939 55.6258 170.699 55.6258Z" fill="#7D7AFF"/>
<path d="M109.012 77.4243V86.9711C109.012 88.1353 109.959 89.0825 111.123 89.0825H120.67C121.834 89.0825 122.781 88.1353 122.781 86.9711V77.4243C122.781 76.2601 121.834 75.3129 120.67 75.3129H111.123C109.959 75.3129 109.012 76.2601 109.012 77.4243ZM111.766 78.0668H120.027V86.3286H111.766V78.0668Z" fill="#1D3B95"/>
<path d="M150.396 77.5193H128.262C127.502 77.5193 126.885 78.1358 126.885 78.8962C126.885 79.6567 127.502 80.2732 128.262 80.2732H150.396C151.156 80.2732 151.773 79.6567 151.773 78.8962C151.773 78.1358 151.156 77.5193 150.396 77.5193Z" fill="#1D3B95"/>
<path d="M150.396 83.2291H128.262C127.502 83.2291 126.885 83.8456 126.885 84.6061C126.885 85.3665 127.502 85.983 128.262 85.983H150.396C151.156 85.983 151.773 85.3665 151.773 84.6061C151.773 83.8456 151.156 83.2291 150.396 83.2291Z" fill="#1D3B95"/>
<path d="M118.834 56.5781V62.8203C118.834 66.0092 121.428 68.6035 124.617 68.6035H136.367C139.556 68.6035 142.15 66.0092 142.15 62.8203V56.5781C142.15 52.611 139.595 49.2298 136.045 47.9929C137.545 46.5401 138.479 44.5059 138.479 42.2578C138.479 37.8541 134.896 34.2715 130.492 34.2715C126.089 34.2715 122.506 37.8541 122.506 42.2578C122.506 44.5059 123.44 46.5401 124.94 47.9929C121.389 49.2298 118.834 52.611 118.834 56.5781ZM129.805 55.1241H131.179L132.573 61.1305L130.492 62.1328L128.411 61.1303L129.805 55.1241ZM131.567 50.2441L131.144 52.3702H129.84L129.417 50.2441H131.567ZM130.492 37.0254C133.377 37.0254 135.725 39.3726 135.725 42.2578C135.725 45.143 133.377 47.4902 130.492 47.4902C127.607 47.4902 125.26 45.143 125.26 42.2578C125.26 39.3726 127.607 37.0254 130.492 37.0254ZM121.588 56.5781C121.588 53.5264 123.757 50.9719 126.635 50.3756L127.302 53.7251L125.479 61.5814C125.333 62.2089 125.642 62.8537 126.223 63.1333L129.895 64.9017C130.272 65.0835 130.712 65.0835 131.09 64.9017L134.761 63.1333C135.342 62.8537 135.651 62.2089 135.505 61.5814L133.682 53.7251L134.349 50.3756C137.227 50.9719 139.396 53.5264 139.396 56.5781V62.8203C139.396 64.4906 138.037 65.8496 136.367 65.8496H124.617C122.947 65.8496 121.588 64.4906 121.588 62.8203V56.5781H121.588Z" fill="#1D3B95"/>
</g>
<defs>
<clipPath id="clip0_6599_19432">
<rect width="94" height="94" fill="white" transform="translate(89 25)"/>
</clipPath>
</defs>
</svg>
