<svg width="12" height="12" viewBox="0 0 12 12" fill="none" xmlns="http://www.w3.org/2000/svg">
<g clip-path="url(#clip0_6703_17063)">
<path d="M5.90859 0.220459C3.78009 0.220459 2.05859 1.94196 2.05859 4.07046C2.05859 6.95796 5.90859 11.2205 5.90859 11.2205C5.90859 11.2205 9.75859 6.95796 9.75859 4.07046C9.75859 1.94196 8.03709 0.220459 5.90859 0.220459ZM5.90859 5.44546C5.54392 5.44546 5.19418 5.30059 4.93632 5.04273C4.67846 4.78487 4.53359 4.43513 4.53359 4.07046C4.53359 3.70579 4.67846 3.35605 4.93632 3.09819C5.19418 2.84032 5.54392 2.69546 5.90859 2.69546C6.27327 2.69546 6.623 2.84032 6.88087 3.09819C7.13873 3.35605 7.28359 3.70579 7.28359 4.07046C7.28359 4.43513 7.13873 4.78487 6.88087 5.04273C6.623 5.30059 6.27327 5.44546 5.90859 5.44546Z" fill="#969FA9"/>
</g>
<defs>
<clipPath id="clip0_6703_17063">
<rect width="11" height="11" fill="white" transform="translate(0.408203 0.220459)"/>
</clipPath>
</defs>
</svg>
