<svg width="1920" height="73" viewBox="0 0 1920 73" fill="none" xmlns="http://www.w3.org/2000/svg">
<mask id="mask0_31_18" style="mask-type:alpha" maskUnits="userSpaceOnUse" x="0" y="0" width="1920" height="73">
<rect width="1920" height="73" fill="#C4C4C4"/>
<rect width="1920" height="73" fill="url(#paint0_linear_31_18)"/>
</mask>
<g mask="url(#mask0_31_18)">
<rect width="1920" height="73" fill="#C4C4C4"/>
<rect width="1920" height="73" fill="url(#paint1_linear_31_18)"/>
<path opacity="0.1" d="M316.102 59.8021C375.99 64.0402 429.373 75.6637 455.343 91.8349C479.808 107.069 460.507 124.013 445.249 140.22C429.847 156.579 418.644 174.971 368.709 183.853C317.659 192.934 251.616 190.889 195.77 184.597C145.044 178.882 114.208 165.534 86.2357 152.028C57.175 137.996 23.6344 123.169 35.4224 107.172C47.7019 90.5077 95.8 78.5801 146.686 69.9921C198.475 61.2518 257.858 55.6803 316.102 59.8021Z" fill="url(#paint2_linear_31_18)"/>
</g>
<defs>
<linearGradient id="paint0_linear_31_18" x1="-1.04344e-05" y1="36.9294" x2="177.269" y2="427.819" gradientUnits="userSpaceOnUse">
<stop stop-color="#605FE8"/>
<stop offset="1" stop-color="#807FFB"/>
</linearGradient>
<linearGradient id="paint1_linear_31_18" x1="-1.04344e-05" y1="36.9294" x2="177.269" y2="427.819" gradientUnits="userSpaceOnUse">
<stop stop-color="#605FE8"/>
<stop offset="1" stop-color="#807FFB"/>
</linearGradient>
<linearGradient id="paint2_linear_31_18" x1="73.5" y1="122.907" x2="177.853" y2="-75.1165" gradientUnits="userSpaceOnUse">
<stop stop-color="white"/>
<stop offset="1" stop-color="white" stop-opacity="0"/>
</linearGradient>
</defs>
</svg>
