<svg width="38" height="38" viewBox="0 0 38 38" fill="none" xmlns="http://www.w3.org/2000/svg">
<path d="M23.7596 29.4854H20.7848L20.4785 30.7108C20.3089 31.3892 19.6993 31.8652 19 31.8652C18.3007 31.8652 17.6911 31.3892 17.5216 30.7108L17.2152 29.4854H14.2404L13.6455 34.2449H24.3545L23.7596 29.4854Z" fill="#DBD9DC"/>
<path d="M19.9912 31.4933H24.0106L23.7596 29.4854H20.7848L20.4785 30.7108C20.3999 31.0252 20.224 31.293 19.9912 31.4933Z" fill="#C9C6CA"/>
<path d="M17.2155 29.4854H14.2408L13.9897 31.4933H18.0091C17.7764 31.293 17.6005 31.0252 17.5218 30.7107L17.2155 29.4854Z" fill="#C9C6CA"/>
<path d="M35.6585 29.7089H2.34145C1.35568 29.7089 0.556641 28.9098 0.556641 27.9241V5.31606C0.556641 4.33029 1.35575 3.53125 2.34145 3.53125H35.6585C36.6442 3.53125 37.4433 4.33036 37.4433 5.31606V27.9241C37.4434 28.9098 36.6442 29.7089 35.6585 29.7089Z" fill="#EDEBED"/>
<path d="M35.0636 5.91113H2.93652V27.3292H35.0636V5.91113Z" fill="#E6646E"/>
<path d="M15.4304 25.5444C9.51594 25.5444 4.72134 20.7498 4.72134 14.8353V5.91113H2.93652V27.3293H35.0637V25.5444L15.4304 25.5444Z" fill="#DC4655"/>
<path d="M15.43 23.7593C16.087 23.7593 16.6197 23.2267 16.6197 22.5696C16.6197 21.9125 16.087 21.3799 15.43 21.3799C14.7729 21.3799 14.2402 21.9125 14.2402 22.5696C14.2402 23.2267 14.7729 23.7593 15.43 23.7593Z" fill="#6F6571"/>
<path d="M23.7596 23.7593C24.4166 23.7593 24.9493 23.2267 24.9493 22.5696C24.9493 21.9125 24.4166 21.3799 23.7596 21.3799C23.1025 21.3799 22.5698 21.9125 22.5698 22.5696C22.5698 23.2267 23.1025 23.7593 23.7596 23.7593Z" fill="#6F6571"/>
<path d="M12.6411 11.3203L14.5572 18.0265C14.7175 18.5875 15.2609 18.9496 15.8404 18.8813L23.6619 17.9612C24.4296 17.8709 25.052 17.2966 25.2035 16.5386L26.1392 11.8603L12.6411 11.3203Z" fill="#EF9AA1"/>
<path d="M35.6585 2.97461H2.34153C1.05034 2.97461 0 4.02495 0 5.31606V27.9241C0 29.2152 1.05034 30.2655 2.34153 30.2655H13.6099L13.1541 33.9118H11.2657C10.9582 33.9118 10.709 34.161 10.709 34.4684C10.709 34.7759 10.9582 35.0251 11.2657 35.0251H26.7343C27.0418 35.0251 27.291 34.7759 27.291 34.4684C27.291 34.161 27.0418 33.9118 26.7343 33.9118H24.846L24.3901 30.2655H35.6585C36.9496 30.2655 38 29.2152 38 27.9241V5.31606C38 4.02495 36.9497 2.97461 35.6585 2.97461ZM23.7239 33.9118H14.2761L14.7319 30.2655H16.7806L16.9815 31.0693C17.2136 31.9973 18.0436 32.6453 19.0001 32.6453C19.9565 32.6453 20.7866 31.9973 21.0186 31.0693L21.2196 30.2655H23.2682L23.7239 33.9118ZM17.9281 30.2655H20.0719L19.9384 30.7993C19.8306 31.2307 19.4447 31.532 18.9999 31.532C18.5551 31.532 18.1693 31.2307 18.0614 30.7993L17.9281 30.2655ZM36.8867 27.9241C36.8867 28.6013 36.3357 29.1522 35.6585 29.1522H2.34153C1.66428 29.1522 1.11328 28.6013 1.11328 27.9241V5.31606C1.11328 4.63882 1.66428 4.08789 2.34153 4.08789H35.6585C36.3357 4.08789 36.8867 4.63882 36.8867 5.31606V27.9241Z" fill="black"/>
<path d="M4.12655 26.7725H3.49324V6.46777H31.494C31.8015 6.46777 32.0506 6.21855 32.0506 5.91113C32.0506 5.60364 31.8015 5.35449 31.494 5.35449H2.93652C2.62904 5.35449 2.37988 5.60364 2.37988 5.91113V27.3292C2.37988 27.6367 2.62904 27.8858 2.93652 27.8858H4.12647C4.43396 27.8858 4.68311 27.6367 4.68311 27.3292C4.68319 27.0218 4.43396 26.7725 4.12655 26.7725Z" fill="black"/>
<path d="M35.0633 5.35449H33.8734C33.5659 5.35449 33.3167 5.60364 33.3167 5.91113C33.3167 6.21855 33.5659 6.46777 33.8734 6.46777H34.5067V26.7725H6.50586C6.19837 26.7725 5.94922 27.0218 5.94922 27.3292C5.94922 27.6367 6.19837 27.8858 6.50586 27.8858H35.0632C35.3707 27.8858 35.6199 27.6367 35.6199 27.3292V5.91113C35.6199 5.60364 35.3707 5.35449 35.0633 5.35449Z" fill="black"/>
<path d="M15.2621 19.391C15.4021 19.427 15.548 19.4465 15.6974 19.4465C15.7662 19.4465 15.8356 19.4424 15.9056 19.4342L23.7272 18.5141C24.7374 18.3952 25.5501 17.6453 25.7496 16.6478L26.6852 11.9695C26.7171 11.8103 26.6778 11.6451 26.5778 11.5173C26.4777 11.3894 26.3268 11.3116 26.1647 11.3042L13.076 10.7092C13.0657 10.7088 13.0557 10.7086 13.0454 10.7087C12.9679 10.4544 12.8042 10.2338 12.5826 10.0859L10.9797 9.01734C10.7239 8.84686 10.3783 8.91596 10.2078 9.17179C10.0373 9.42763 10.1064 9.77319 10.3622 9.94367L11.965 11.0121C11.9726 11.0172 11.9781 11.0248 11.9806 11.0336L14.0223 18.1794C14.086 18.4022 14.1908 18.6025 14.3254 18.7754L13.5784 20.2694C13.3985 20.629 13.4174 21.0478 13.6287 21.3898C13.7054 21.5139 13.8026 21.6195 13.9143 21.7041C13.7681 21.9593 13.684 22.2546 13.684 22.5692C13.684 23.5323 14.4676 24.3158 15.4306 24.3158C16.3935 24.3158 17.1771 23.5322 17.1771 22.5692C17.1771 22.3459 17.1345 22.1325 17.0577 21.936H22.1326C22.0558 22.1325 22.0132 22.3459 22.0132 22.5692C22.0132 23.5323 22.7968 24.3158 23.7598 24.3158C24.7228 24.3158 25.5063 23.5322 25.5063 22.5692C25.5063 22.2899 25.44 22.0259 25.3229 21.7915C25.4353 21.6897 25.5063 21.543 25.5063 21.3794C25.5063 21.072 25.2571 20.8227 24.9496 20.8227H14.6081C14.6002 20.8227 14.5868 20.8227 14.5756 20.8045C14.5643 20.7864 14.5704 20.7745 14.5739 20.7673L15.2621 19.391ZM15.7755 18.3286C15.4651 18.3651 15.1783 18.1737 15.0926 17.8736L14.3835 15.3917H16.1627L16.6303 18.228L15.7755 18.3286ZM20.1517 17.8138V15.3917H22.0584L21.8574 17.6131L20.1517 17.8138ZM20.1517 14.2784V12.1454L22.3433 12.245L22.1592 14.2784H20.1517ZM19.0384 14.2784H17.1075L16.7301 11.9899L19.0384 12.0948V14.2784ZM19.0384 15.3917V17.9447L17.7372 18.0979L17.2911 15.3918H19.0384V15.3917ZM23.5971 17.4084L22.9872 17.4802L23.1763 15.3918H24.8654L24.6579 16.4296C24.5532 16.9527 24.1269 17.3461 23.5971 17.4084ZM25.0881 14.2784H23.2771L23.4566 12.2956L25.4664 12.3869L25.0881 14.2784ZM15.5932 11.9381L15.9791 14.2784H14.0654L13.3678 11.837L15.5932 11.9381ZM16.0636 22.5694C16.0636 22.9186 15.7796 23.2026 15.4304 23.2026C15.0812 23.2026 14.7972 22.9186 14.7972 22.5694C14.7972 22.2202 15.0812 21.9362 15.4304 21.9362C15.7796 21.9362 16.0636 22.2202 16.0636 22.5694ZM23.7596 23.2026C23.4104 23.2026 23.1264 22.9186 23.1264 22.5694C23.1264 22.2202 23.4104 21.9362 23.7596 21.9362C24.1088 21.9362 24.3928 22.2203 24.3928 22.5694C24.3928 22.9186 24.1088 23.2026 23.7596 23.2026Z" fill="black"/>
</svg>
