<svg width="1920" height="400" viewBox="0 0 1920 400" fill="none" xmlns="http://www.w3.org/2000/svg">
<mask id="mask0_6705_20624" style="mask-type:alpha" maskUnits="userSpaceOnUse" x="0" y="0" width="1920" height="400">
<rect width="1920" height="400" fill="#D9D9D9"/>
</mask>
<g mask="url(#mask0_6705_20624)">
<rect width="1920" height="401" fill="#C4C4C4"/>
<rect width="1920" height="401" fill="url(#paint0_linear_6705_20624)"/>
<path opacity="0.1" d="M320.102 206.789C379.99 221.444 433.373 261.637 459.343 317.555C483.808 370.234 464.507 428.825 449.249 484.868C433.847 541.433 422.644 605.03 372.709 635.745C321.659 667.144 255.616 660.074 199.77 638.317C149.044 618.555 118.208 572.4 90.2357 525.696C61.175 477.175 27.6344 425.906 39.4224 370.589C51.7019 312.966 99.8 271.722 150.686 242.026C202.475 211.803 261.858 192.537 320.102 206.789Z" fill="url(#paint1_linear_6705_20624)"/>
<path opacity="0.1" d="M1391.73 210.654C1434.01 243.08 1426.13 305.804 1434.51 358.468C1442.81 410.642 1464.11 464.109 1439.51 510.851C1412.32 562.527 1360.33 600.128 1302.68 609.027C1245.5 617.853 1185.98 596.499 1144.19 556.437C1106.81 520.6 1100.78 465.662 1099.1 413.868C1097.68 370.047 1111.45 329.292 1135.64 292.748C1161.01 254.42 1192.63 220.532 1236.37 206.511C1287.66 190.069 1348.97 177.865 1391.73 210.654Z" fill="url(#paint2_linear_6705_20624)"/>
<path opacity="0.15" d="M656.996 -53.024C679.316 -47.2109 698.786 -34.2676 711.766 -15.2026C724.782 3.91455 732.827 27.4006 726.991 49.7796C721.416 71.1547 701.632 84.1583 682.831 95.7545C665.095 106.693 645.681 115.934 625.108 112.617C603.983 109.212 586.933 95.1171 573.848 78.1863C559.706 59.8866 548.14 38.7864 550.249 15.7549C552.554 -9.40354 564.178 -34.4265 585.415 -48.11C606.315 -61.5763 632.936 -59.2903 656.996 -53.024Z" fill="url(#paint3_linear_6705_20624)"/>
<path opacity="0.05" d="M1848.58 -200.097C1909.75 -169.162 1976.05 -140.02 2003.66 -77.3179C2033.42 -9.7276 2032.99 71.4789 1996.43 135.656C1961.21 197.483 1888.48 219.564 1821.23 242.927C1752.47 266.809 1680.14 296.486 1612.79 268.921C1541.68 239.823 1484.88 174.623 1470.19 99.2731C1456.63 29.6903 1509.19 -29.5155 1542.41 -92.1554C1574.42 -152.5 1592.39 -229.954 1656.85 -252.68C1721.82 -275.585 1787.11 -231.179 1848.58 -200.097Z" fill="url(#paint4_linear_6705_20624)"/>
</g>
<defs>
<linearGradient id="paint0_linear_6705_20624" x1="-765.5" y1="-287.599" x2="2097.96" y2="784.55" gradientUnits="userSpaceOnUse">
<stop stop-color="#4AB3FF"/>
<stop offset="1" stop-color="#1D1B95"/>
</linearGradient>
<linearGradient id="paint1_linear_6705_20624" x1="77.5" y1="425" x2="446.5" y2="222.5" gradientUnits="userSpaceOnUse">
<stop stop-color="white"/>
<stop offset="1" stop-color="white" stop-opacity="0"/>
</linearGradient>
<linearGradient id="paint2_linear_6705_20624" x1="998.5" y1="440" x2="1338.32" y2="208.374" gradientUnits="userSpaceOnUse">
<stop stop-color="white"/>
<stop offset="1" stop-color="white" stop-opacity="0"/>
</linearGradient>
<linearGradient id="paint3_linear_6705_20624" x1="614" y1="-12" x2="609.307" y2="109.36" gradientUnits="userSpaceOnUse">
<stop stop-color="white"/>
<stop offset="1" stop-color="white" stop-opacity="0"/>
</linearGradient>
<linearGradient id="paint4_linear_6705_20624" x1="1519.98" y1="5.16922" x2="1975.25" y2="-265.51" gradientUnits="userSpaceOnUse">
<stop stop-color="white"/>
<stop offset="1" stop-color="white" stop-opacity="0"/>
</linearGradient>
</defs>
</svg>
