<svg width="307" height="64" viewBox="0 0 307 64" fill="none" xmlns="http://www.w3.org/2000/svg">
<path d="M42.0599 31.0811C43.2441 31.0811 44.1693 30.9091 44.8354 30.5653C45.5385 30.1949 45.8901 29.6527 45.8901 28.9385C45.8901 28.3301 45.594 27.8276 45.0019 27.4308C44.4468 27.0076 43.3366 26.796 41.6713 26.796H34.1774V31.0811H42.0599ZM27.1831 24.6534C27.1831 24.3624 27.0536 24.1773 26.7946 24.0979C26.5355 24.0186 26.258 23.9657 25.9619 23.9392V23.4631H43.7807C46.5562 23.4631 48.7581 23.926 50.3864 24.8518C52.0517 25.7776 52.8844 27.1531 52.8844 28.9782C52.8844 30.4066 52.2923 31.544 51.108 32.3904C49.9608 33.2104 48.4991 33.8584 46.7227 34.3346L51.6631 39.6513C51.8482 39.8629 52.1072 40.048 52.4403 40.2067C52.8104 40.3655 53.1989 40.4448 53.606 40.4448V40.9209H42.3929V40.4448C42.652 40.4448 42.9295 40.4184 43.2256 40.3655C43.5587 40.2861 43.7252 40.1406 43.7252 39.929C43.7252 39.7968 43.5216 39.4661 43.1146 38.9371C42.7445 38.4081 42.3004 37.8394 41.7823 37.231C41.3012 36.6226 40.8201 36.0407 40.3391 35.4852C39.895 34.9297 39.6174 34.5726 39.5064 34.4139H34.1774V39.7306C34.1774 40.0216 34.3069 40.2067 34.566 40.2861C34.8621 40.3655 35.2136 40.4184 35.6207 40.4448V40.9209H26.0729V40.4448C26.295 40.4184 26.5355 40.3655 26.7946 40.2861C27.0536 40.2067 27.1831 40.0216 27.1831 39.7306V24.6534Z" fill="white"/>
<path d="M0.000976562 40.4444C0.704106 40.3915 1.12968 40.3122 1.27771 40.2064C1.46275 40.0741 1.55526 39.9154 1.55526 39.7302V21.2408C1.55526 21.0557 1.46275 20.9102 1.27771 20.8044C1.12968 20.6721 0.704106 20.5795 0.000976562 20.5266V20.0505H11.4361V20.5266C10.7329 20.5795 10.2889 20.6721 10.1038 20.8044C9.95581 20.9102 9.88179 21.0557 9.88179 21.2408V39.7302C9.88179 39.9154 9.95581 40.0741 10.1038 40.2064C10.2889 40.3122 10.7329 40.3915 11.4361 40.4444V40.9205H0.000976562V40.4444Z" fill="white"/>
<path d="M272.411 40.4447C272.818 40.4447 273.077 40.3786 273.188 40.2463L282.236 31.7951L273.965 24.2962C273.78 24.1375 273.54 24.0449 273.244 24.0185C272.947 23.9656 272.725 23.9391 272.577 23.9391V23.463H284.401V23.9391C284.29 23.9391 284.05 23.9524 283.679 23.9788C283.309 24.0053 283.124 24.1243 283.124 24.3359C283.124 24.4946 283.254 24.7062 283.513 24.9707C283.772 25.2352 284.068 25.5262 284.401 25.8436C284.771 26.1346 285.16 26.4388 285.567 26.7562C286.011 27.0471 286.399 27.3249 286.733 27.5894C286.992 27.3249 287.306 27.0339 287.676 26.7165C288.046 26.3726 288.398 26.042 288.731 25.7246C289.101 25.4072 289.397 25.1294 289.619 24.8914C289.878 24.6269 290.008 24.4417 290.008 24.3359C290.008 24.1243 289.878 24.0053 289.619 23.9788C289.397 23.9524 289.156 23.9391 288.897 23.9391V23.463H299.944V23.9391C299.87 23.9391 299.685 23.9656 299.389 24.0185C299.13 24.0449 298.908 24.1375 298.723 24.2962L291.007 31.4777L300.943 40.2463C301.128 40.3786 301.424 40.4447 301.831 40.4447V40.9208H290.285V40.4447C290.359 40.4447 290.526 40.4315 290.785 40.405C291.044 40.3786 291.173 40.2992 291.173 40.167C291.173 39.9554 290.951 39.6379 290.507 39.2147C290.1 38.7651 289.619 38.3154 289.064 37.8657C288.546 37.3896 288.046 36.9531 287.565 36.5564C287.084 36.1596 286.77 35.8819 286.621 35.7232C286.51 35.8819 286.214 36.1861 285.733 36.6357C285.252 37.0854 284.753 37.5615 284.235 38.0641C283.716 38.5402 283.235 38.9899 282.791 39.4131C282.384 39.8099 282.181 40.0612 282.181 40.167C282.181 40.2992 282.31 40.3786 282.569 40.405C282.865 40.4315 283.087 40.4447 283.235 40.4447V40.9208H272.411V40.4447Z" fill="white"/>
<path d="M258.627 37.4291C259.367 37.4291 259.848 37.0985 260.07 36.4372H260.736V41.6349H260.181C259.996 41.2646 259.792 41.053 259.57 41.0001C259.385 40.9472 259.071 40.9207 258.627 40.9207H233.869V40.4446C234.276 40.4181 234.628 40.3652 234.924 40.2859C235.257 40.2065 235.423 40.0214 235.423 39.7304V24.6532C235.423 24.3622 235.257 24.1771 234.924 24.0977C234.628 24.0184 234.276 23.9655 233.869 23.939V23.4629H259.071C259.293 23.4629 259.515 23.41 259.737 23.3042C259.959 23.1984 260.07 22.9603 260.07 22.59H260.736V27.9067H260.07C260.07 27.5099 259.959 27.2586 259.737 27.1528C259.515 27.0206 259.293 26.9544 259.071 26.9544H242.862V30.1683H253.298C253.52 30.1683 253.742 30.1154 253.964 30.0096C254.186 29.8773 254.297 29.626 254.297 29.2557H254.963V34.4137H254.297C254.297 34.0434 254.186 33.8053 253.964 33.6995C253.742 33.5673 253.52 33.5011 253.298 33.5011H242.862V37.4291H258.627Z" fill="white"/>
<path d="M198.86 24.6533C198.86 24.3623 198.712 24.1772 198.416 24.0978C198.12 24.0185 197.769 23.9656 197.362 23.9391V23.463H207.742V23.9391C207.335 23.9656 206.983 24.0185 206.687 24.0978C206.428 24.1772 206.299 24.3623 206.299 24.6533V36.8738H221.509C221.731 36.8738 221.953 36.8209 222.175 36.7151C222.397 36.5828 222.508 36.3051 222.508 35.8819H223.174V41.7937H222.508C222.508 41.3705 222.397 41.1192 222.175 41.0399C221.953 40.9605 221.731 40.9208 221.509 40.9208H197.362V40.4447C197.769 40.4183 198.12 40.3654 198.416 40.286C198.712 40.2066 198.86 40.0215 198.86 39.7305V24.6533Z" fill="white"/>
<path d="M185.427 25.8437C185.353 25.4734 185.242 25.2221 185.094 25.0899C184.946 24.9576 184.724 24.8915 184.428 24.8915H166.11V28.4227H178.433C178.729 28.4227 178.951 28.3698 179.099 28.264C179.247 28.1318 179.358 27.8805 179.432 27.5102H180.099V34.1759H179.432C179.358 33.7262 179.247 33.4352 179.099 33.303C178.951 33.1707 178.729 33.1046 178.433 33.1046H166.11V39.7306C166.11 39.9158 166.184 40.0745 166.332 40.2068C166.517 40.3126 166.961 40.3919 167.664 40.4448V40.9209H156.007V40.4448C156.71 40.3919 157.136 40.3126 157.284 40.2068C157.469 40.0745 157.561 39.9158 157.561 39.7306V21.2412C157.561 21.0561 157.469 20.9106 157.284 20.8048C157.136 20.6725 156.71 20.5799 156.007 20.527V20.0509H184.428C184.724 20.0509 184.946 19.9848 185.094 19.8525C185.242 19.6938 185.353 19.3896 185.427 18.94H186.094V25.8437H185.427Z" fill="white"/>
<path d="M141.075 39.7305C141.075 40.0215 141.223 40.2066 141.519 40.286C141.815 40.3654 142.185 40.4183 142.629 40.4447V40.9208H132.36V40.4447C132.656 40.4447 132.989 40.4183 133.359 40.3654C133.766 40.3125 133.97 40.167 133.97 39.9289C133.97 39.6908 133.563 39.2544 132.749 38.6196C131.934 37.9583 130.88 37.1515 129.584 36.1993C128.326 35.247 126.901 34.189 125.31 33.0251C123.719 31.8348 122.146 30.5784 120.592 29.2558L120.481 29.3352V39.7305C120.481 40.0215 120.61 40.2066 120.869 40.286C121.165 40.3654 121.517 40.4183 121.924 40.4447V40.9208H112.432V40.4447C112.802 40.4183 113.116 40.3654 113.375 40.286C113.672 40.2066 113.82 40.0215 113.82 39.7305V24.6533C113.82 24.3623 113.672 24.1772 113.375 24.0978C113.079 24.0185 112.728 23.9656 112.321 23.9391V23.463H125.532V23.9391C125.273 23.9656 125.014 24.0185 124.755 24.0978C124.496 24.1772 124.367 24.3623 124.367 24.6533C124.367 24.7062 124.663 24.9839 125.255 25.4865C125.884 25.9626 126.679 26.571 127.642 27.3117C128.604 28.0523 129.677 28.8723 130.861 29.7716C132.045 30.671 133.23 31.5703 134.414 32.4697V24.6533C134.414 24.3623 134.266 24.1772 133.97 24.0978C133.674 24.0185 133.304 23.9656 132.86 23.9391V23.463H142.629V23.9391C142.185 23.9656 141.815 24.0185 141.519 24.0978C141.223 24.1772 141.075 24.3623 141.075 24.6533V39.7305Z" fill="white"/>
<path d="M304.36 50.3352C304.36 50.7665 304.513 50.9821 304.817 50.9821C305.028 50.9821 305.202 50.9493 305.338 50.8837C305.478 50.8181 305.572 50.7852 305.619 50.7852C305.717 50.7852 305.767 50.8368 305.767 50.9399C305.767 51.3431 305.556 51.69 305.134 51.9807C304.688 52.2854 304.234 52.3604 303.77 52.2057C303.465 52.0979 303.24 51.8658 303.094 51.5095C303.024 51.3267 302.989 51.1603 302.989 51.0103C302.989 50.7665 303.012 50.5086 303.059 50.2367C302.623 51.1275 302.082 51.7416 301.435 52.0791C301.177 52.2104 300.903 52.276 300.612 52.276C300.322 52.276 300.068 52.2174 299.853 52.1002C299.642 51.9783 299.461 51.8119 299.311 51.6009C299.007 51.1603 298.868 50.6071 298.896 49.9414C298.925 49.1069 299.171 48.2889 299.635 47.4872C300.061 46.7372 300.6 46.1254 301.252 45.6519C301.904 45.169 302.513 44.9276 303.08 44.9276C303.648 44.9276 304.105 45.1878 304.452 45.7082C304.775 45.1878 305.061 44.9276 305.31 44.9276C305.577 44.9276 305.778 44.9768 305.914 45.0753C306.172 45.2628 306.264 45.4269 306.189 45.5675C305.012 47.9771 304.407 49.4773 304.374 50.068C304.365 50.1524 304.36 50.2414 304.36 50.3352ZM300.457 50.3633C300.457 50.9259 300.638 51.2072 300.999 51.2072C301.276 51.2072 301.615 50.9728 302.019 50.504C302.609 49.8148 303.132 48.8866 303.587 47.7193C303.732 47.3536 303.854 46.988 303.952 46.6223C303.934 46.3035 303.8 46.0691 303.552 45.9191C303.467 45.8676 303.341 45.8418 303.172 45.8418C303.008 45.8418 302.813 45.9027 302.588 46.0246C302.368 46.1465 302.152 46.3129 301.941 46.5239C301.735 46.7348 301.54 46.9856 301.358 47.2763C301.179 47.5623 301.022 47.874 300.886 48.2115C300.6 48.9335 300.457 49.6507 300.457 50.3633Z" fill="white"/>
<path d="M296.078 50.8204C296.186 50.8204 296.24 50.8743 296.24 50.9821C296.24 51.39 296.038 51.7322 295.635 52.0088C295.363 52.1869 295.045 52.276 294.679 52.276C294.379 52.276 294.149 52.2057 293.99 52.0651C293.704 51.8119 293.561 51.5025 293.561 51.1368C293.561 50.6727 293.755 49.9625 294.144 49.0062C293.422 49.9812 292.916 50.6305 292.626 50.954C292.335 51.2728 292.082 51.5212 291.866 51.6994C291.397 52.0838 290.973 52.276 290.593 52.276C290.012 52.276 289.625 52.0252 289.433 51.5236C289.377 51.3689 289.349 51.1931 289.349 50.9962C289.349 50.7946 289.381 50.5719 289.447 50.3282C289.517 50.0797 289.606 49.8219 289.714 49.5546C289.822 49.2874 289.939 49.0132 290.066 48.7319L290.446 47.8881C290.933 46.8051 291.114 46.1629 290.987 45.9613C290.931 45.8722 290.825 45.7832 290.671 45.6941C290.614 45.6613 290.586 45.605 290.586 45.5253C290.586 45.4409 290.619 45.3612 290.685 45.2862C290.755 45.2112 290.844 45.1456 290.952 45.0893C291.182 44.9815 291.411 44.9276 291.641 44.9276C291.871 44.9276 292.044 44.9534 292.161 45.005C292.283 45.0518 292.382 45.1128 292.457 45.1878C292.611 45.3425 292.689 45.5136 292.689 45.7011C292.689 45.8886 292.658 46.0996 292.597 46.334C292.536 46.5637 292.457 46.8145 292.358 47.0864C292.26 47.3583 292.152 47.6396 292.035 47.9303C291.711 48.6897 291.493 49.1913 291.381 49.4351L291.121 49.9766C290.975 50.3 290.903 50.5274 290.903 50.6587C290.903 50.7899 290.924 50.8837 290.966 50.9399C291.008 50.9915 291.083 51.0173 291.191 51.0173C291.304 51.0173 291.432 50.9657 291.578 50.8626C291.723 50.7595 291.882 50.6212 292.056 50.4477C292.229 50.2742 292.41 50.075 292.597 49.85C292.785 49.6203 292.968 49.3835 293.146 49.1398C293.497 48.6616 293.755 48.2772 293.919 47.9865C294.913 46.2285 295.443 45.3097 295.509 45.23C295.659 45.0284 295.811 44.9276 295.966 44.9276C296.125 44.9276 296.263 44.9464 296.381 44.9839C296.498 45.0167 296.599 45.0659 296.683 45.1315C296.88 45.2769 296.943 45.4222 296.873 45.5675C295.729 47.9537 295.112 49.4539 295.023 50.068C295 50.2789 294.988 50.4243 294.988 50.504C294.988 50.8602 295.096 51.0384 295.312 51.0384C295.513 51.0384 295.68 51.0032 295.811 50.9329C295.942 50.8579 296.031 50.8204 296.078 50.8204Z" fill="white"/>
<path d="M284.357 51.9669C284.254 51.8637 284.172 51.7465 284.111 51.6153C284.05 51.4793 284.02 51.3246 284.02 51.1512C284.02 50.973 284.052 50.816 284.118 50.68C284.188 50.5394 284.275 50.4269 284.378 50.3425C284.561 50.1925 284.753 50.1175 284.955 50.1175C285.161 50.1175 285.335 50.1315 285.475 50.1597C285.62 50.1878 285.756 50.2323 285.883 50.2933C286.174 50.4433 286.319 50.6589 286.319 50.9402C286.319 51.2918 286.204 51.5989 285.974 51.8614C285.759 52.1052 285.534 52.2388 285.299 52.2622C285.07 52.2857 284.882 52.2669 284.737 52.206C284.591 52.1497 284.465 52.07 284.357 51.9669Z" fill="white"/>
<path d="M276.3 46.2567C276.028 46.2567 275.531 46.6504 274.809 47.438C274.27 48.0521 273.879 48.5139 273.635 48.8233L273.002 49.625C272.73 50.1406 272.517 50.5696 272.362 50.9118L271.983 51.7275C271.884 51.9291 271.797 52.0721 271.722 52.1565C271.652 52.2362 271.554 52.276 271.427 52.276C271.305 52.276 271.186 52.2526 271.068 52.2057C270.956 52.1635 270.857 52.1072 270.773 52.0369C270.595 51.8869 270.506 51.7228 270.506 51.5447C270.506 51.4744 270.557 51.3361 270.661 51.1298L270.928 50.5602C271.012 50.3914 271.111 50.1758 271.223 49.9133L271.617 48.9499C272.17 47.5669 272.447 46.6739 272.447 46.2707C272.447 46.0551 272.376 45.8957 272.236 45.7925L272.095 45.6941C272.048 45.6613 272.025 45.605 272.025 45.5253C272.025 45.4409 272.055 45.3612 272.116 45.2862C272.182 45.2112 272.266 45.1456 272.369 45.0893C272.58 44.9815 272.791 44.9276 273.002 44.9276C273.218 44.9276 273.387 44.9511 273.509 44.9979C273.63 45.0448 273.736 45.1081 273.825 45.1878C274.003 45.3519 274.092 45.523 274.092 45.7011C274.092 45.8793 274.069 46.0598 274.022 46.2426C273.975 46.4207 273.916 46.6036 273.846 46.7911C273.776 46.9739 273.701 47.1521 273.621 47.3255C273.433 47.7287 273.316 47.9771 273.269 48.0709C273.227 48.16 273.216 48.1928 273.234 48.1693C274.092 47.0583 274.608 46.402 274.781 46.2004C275.142 45.7832 275.424 45.4972 275.625 45.3425C275.995 45.0659 276.345 44.9276 276.673 44.9276C277.006 44.9276 277.271 45.0307 277.468 45.237C277.664 45.4433 277.763 45.7152 277.763 46.0527C277.763 46.3481 277.688 46.695 277.538 47.0935C277.388 47.4919 277.287 47.7709 277.235 47.9303L278.269 46.5661L278.846 45.8769C279.193 45.4878 279.497 45.2323 279.76 45.1104C280.022 44.9886 280.236 44.9276 280.4 44.9276C280.569 44.9276 280.733 44.9581 280.892 45.019C281.056 45.08 281.194 45.1667 281.307 45.2792C281.546 45.5089 281.666 45.8136 281.666 46.1934C281.666 46.559 281.581 46.9341 281.412 47.3185C281.244 47.7029 281.096 48.0193 280.969 48.2678C280.843 48.5116 280.721 48.7577 280.604 49.0062C280.262 49.7515 280.09 50.3047 280.09 50.6657C280.09 50.9188 280.194 51.0454 280.4 51.0454C280.597 51.0454 280.775 51.0032 280.934 50.9188C281.098 50.8345 281.204 50.7923 281.251 50.7923C281.349 50.7923 281.398 50.8415 281.398 50.9399C281.398 51.3572 281.185 51.7064 280.758 51.9877C280.472 52.1799 280.21 52.276 279.971 52.276C279.736 52.276 279.547 52.2479 279.401 52.1916C279.256 52.1354 279.125 52.0463 279.008 51.9244C278.745 51.6525 278.614 51.3126 278.614 50.9048C278.614 50.4969 278.665 50.1219 278.768 49.7797C278.872 49.4374 278.993 49.1069 279.134 48.7882C279.275 48.4647 279.415 48.1693 279.556 47.9021C279.701 47.6302 279.811 47.4146 279.886 47.2552C280.037 46.927 280.112 46.6856 280.112 46.5309C280.112 46.3481 280.015 46.2567 279.823 46.2567C279.57 46.2567 279.115 46.6762 278.459 47.5154C277.962 48.167 277.618 48.6358 277.425 48.9218L276.94 49.625C276.668 50.1406 276.46 50.5696 276.314 50.9118L275.956 51.7275C275.867 51.9291 275.789 52.0721 275.724 52.1565C275.658 52.2362 275.567 52.276 275.449 52.276C275.332 52.276 275.217 52.2573 275.105 52.2198C274.997 52.1823 274.903 52.133 274.823 52.0721C274.641 51.9361 274.549 51.7932 274.549 51.6431C274.549 51.4884 274.598 51.2798 274.697 51.0173C274.8 50.7501 274.927 50.4524 275.077 50.1242L276.061 48.0428C276.413 47.2693 276.589 46.7794 276.589 46.5731C276.589 46.3621 276.492 46.2567 276.3 46.2567ZM276.996 48.2397C277.001 48.2397 277.003 48.2373 277.003 48.2326L277.01 48.2186C277.001 48.2279 276.996 48.235 276.996 48.2397Z" fill="white"/>
<path d="M262.801 51.7275C262.604 51.54 262.449 51.3033 262.337 51.0173C262.224 50.7266 262.165 50.3844 262.161 49.9906C262.156 49.5968 262.203 49.1984 262.301 48.7952C262.404 48.392 262.547 48.0029 262.73 47.6279C262.918 47.2528 263.141 46.9012 263.398 46.5731C263.661 46.2449 263.949 45.959 264.263 45.7152C264.948 45.1901 265.658 44.9276 266.394 44.9276C267.36 44.9276 268.014 45.3519 268.356 46.2004C268.6 46.8145 268.614 47.5576 268.398 48.4295C268.201 49.2312 267.84 49.9672 267.315 50.6376C266.795 51.3079 266.181 51.7838 265.473 52.0651C265.116 52.2057 264.765 52.276 264.418 52.276C264.076 52.276 263.769 52.2315 263.497 52.1424C263.23 52.0533 262.998 51.915 262.801 51.7275ZM264.144 48.317C264.003 48.6639 263.891 49.0202 263.806 49.3859C263.727 49.7515 263.689 50.0984 263.694 50.4266C263.698 50.7501 263.748 51.0056 263.841 51.1931C263.94 51.3759 264.097 51.4673 264.313 51.4673C264.528 51.4673 264.739 51.3947 264.945 51.2493C265.156 51.0993 265.36 50.9024 265.557 50.6587C265.754 50.4149 265.939 50.1336 266.113 49.8148C266.286 49.496 266.438 49.1632 266.57 48.8163C266.856 48.0615 266.994 47.3911 266.985 46.8051C266.985 46.2895 266.879 45.9613 266.668 45.8207C266.584 45.7644 266.464 45.7363 266.31 45.7363C266.16 45.7363 265.986 45.8066 265.789 45.9472C265.592 46.0832 265.395 46.2684 265.199 46.5028C265.002 46.7372 264.812 47.0114 264.629 47.3255C264.446 47.6396 264.284 47.9701 264.144 48.317Z" fill="white"/>
<path d="M253.97 49.7797C253.979 49.3718 254.042 48.9663 254.16 48.5631C254.281 48.1553 254.441 47.7709 254.638 47.4099C254.839 47.0489 255.076 46.7161 255.348 46.4114C255.625 46.1066 255.925 45.8441 256.248 45.6238C256.923 45.1597 257.633 44.9276 258.379 44.9276C259.148 44.9276 259.67 45.2347 259.947 45.8488C260.045 46.0691 260.09 46.3199 260.081 46.6012C260.076 46.8778 260.031 47.1333 259.947 47.3677C259.863 47.5974 259.757 47.8037 259.63 47.9865C259.344 48.3991 259.056 48.6053 258.766 48.6053C258.442 48.6053 258.203 48.5163 258.048 48.3381C257.912 48.1834 257.87 48.0029 257.922 47.7967C257.936 47.7357 257.978 47.6818 258.048 47.6349C258.119 47.5833 258.208 47.5037 258.315 47.3958C258.62 47.077 258.78 46.7044 258.794 46.2777C258.803 45.9871 258.625 45.8418 258.259 45.8418C257.865 45.8418 257.453 46.0621 257.022 46.5028C256.393 47.145 255.95 47.9678 255.693 48.971C255.468 49.843 255.51 50.4805 255.819 50.8837C256.002 51.1181 256.25 51.2353 256.565 51.2353C257.094 51.2353 257.605 51.0478 258.097 50.6727C258.248 50.5555 258.369 50.436 258.463 50.3141C258.557 50.1922 258.644 50.1313 258.723 50.1313C258.803 50.1313 258.869 50.1711 258.92 50.2508C258.976 50.3258 259.005 50.4243 259.005 50.5462C259.005 50.8227 258.88 51.0946 258.632 51.3619C257.994 51.9713 257.228 52.276 256.332 52.276C255.568 52.276 254.978 52.058 254.56 51.622C254.148 51.1907 253.951 50.5766 253.97 49.7797Z" fill="white"/>
<path d="M248.838 51.9669C248.735 51.8637 248.653 51.7465 248.592 51.6153C248.531 51.4793 248.5 51.3246 248.5 51.1512C248.5 50.973 248.533 50.816 248.599 50.68C248.669 50.5394 248.756 50.4269 248.859 50.3425C249.042 50.1925 249.234 50.1175 249.435 50.1175C249.642 50.1175 249.815 50.1315 249.956 50.1597C250.101 50.1878 250.237 50.2323 250.364 50.2933C250.654 50.4433 250.8 50.6589 250.8 50.9402C250.8 51.2918 250.685 51.5989 250.455 51.8614C250.239 52.1052 250.014 52.2388 249.78 52.2622C249.55 52.2857 249.363 52.2669 249.218 52.206C249.072 52.1497 248.946 52.07 248.838 51.9669Z" fill="white"/>
<path d="M240.788 52.051C240.586 52.1963 240.429 52.269 240.317 52.269C240.209 52.269 240.117 52.2526 240.042 52.2198C239.972 52.1916 239.906 52.1541 239.845 52.1072C239.705 51.99 239.635 51.8846 239.635 51.7908C239.635 51.6924 239.686 51.6033 239.789 51.5236C239.789 51.5236 239.932 51.4087 240.218 51.179C240.987 50.5462 241.622 49.8594 242.124 49.1187C241.716 47.9748 241.528 47.0231 241.561 46.2637C241.58 45.8886 241.742 45.5652 242.046 45.2933C242.328 45.0495 242.628 44.9276 242.947 44.9276C243.04 44.9276 243.101 44.9604 243.129 45.0261C243.158 45.0917 243.172 45.1878 243.172 45.3144C243.172 45.4363 243.167 45.5675 243.158 45.7082C243.148 45.8441 243.146 45.9894 243.151 46.1441C243.16 46.2942 243.172 46.4582 243.186 46.6364C243.233 47.1146 243.277 47.4872 243.319 47.7545L243.551 47.3677C244.086 46.5192 244.709 45.8465 245.422 45.3495C245.825 45.0683 246.172 44.9276 246.463 44.9276C246.725 44.9276 246.929 44.9651 247.074 45.0401C247.346 45.1808 247.438 45.3237 247.349 45.4691C247.335 45.4925 247.306 45.5113 247.264 45.5253L247.088 45.6097C246.348 45.9332 245.403 46.7255 244.255 47.9865C244.015 48.249 243.807 48.4998 243.629 48.7389L243.875 49.5617C244.18 50.5462 244.54 51.0384 244.958 51.0384C245.141 51.0384 245.291 51.0103 245.408 50.954L245.661 50.8415C245.712 50.8181 245.762 50.8063 245.809 50.8063C245.907 50.8063 245.956 50.8556 245.956 50.954C245.956 51.3665 245.745 51.7135 245.323 51.9947C245.042 52.1823 244.723 52.276 244.367 52.276C243.678 52.276 243.054 51.5658 242.497 50.1453C241.906 51.0126 241.336 51.6478 240.788 52.051Z" fill="white"/>
<path d="M232.322 49.7445C232.341 49.3367 232.409 48.9476 232.526 48.5772C232.644 48.2022 232.801 47.8412 232.998 47.4943C233.194 47.1427 233.424 46.8122 233.687 46.5028C233.954 46.1887 234.242 45.9144 234.552 45.68C235.222 45.1784 235.899 44.9276 236.584 44.9276C237.385 44.9276 237.92 45.2581 238.187 45.9191C238.281 46.1441 238.325 46.4114 238.321 46.7208C238.316 47.0255 238.257 47.3091 238.145 47.5716C238.032 47.8295 237.875 48.0662 237.674 48.2819C237.477 48.4928 237.24 48.6827 236.964 48.8514C236.692 49.0202 236.394 49.1632 236.07 49.2804C235.405 49.5148 234.692 49.6367 233.933 49.6461C233.914 49.7117 233.902 49.8101 233.898 49.9414C233.893 50.0727 233.907 50.2203 233.94 50.3844C233.973 50.5438 234.029 50.6868 234.109 50.8134C234.277 51.0946 234.521 51.2353 234.84 51.2353C235.384 51.2353 235.913 51.0759 236.429 50.7571C236.612 50.6493 236.76 50.5391 236.872 50.4266C236.989 50.3094 237.09 50.2508 237.175 50.2508C237.259 50.2508 237.332 50.3024 237.393 50.4055C237.458 50.504 237.491 50.6165 237.491 50.743C237.491 50.9915 237.421 51.2072 237.28 51.39C236.689 51.9807 235.81 52.276 234.643 52.276C233.954 52.276 233.401 52.0697 232.983 51.6572C232.515 51.1884 232.294 50.5508 232.322 49.7445ZM236.429 45.8629C235.937 45.8629 235.463 46.2004 235.009 46.8755C234.624 47.4568 234.315 48.1459 234.08 48.9429C234.863 48.8632 235.543 48.5538 236.12 48.0146C236.649 47.5083 236.914 47.0231 236.914 46.559C236.914 46.0949 236.753 45.8629 236.429 45.8629Z" fill="white"/>
<path d="M227.134 51.9247C227.017 51.8028 226.921 51.6481 226.846 51.4606C226.775 51.2684 226.74 51.0481 226.74 50.7996C226.74 50.5465 226.796 50.2089 226.909 49.787C227.026 49.3651 227.174 48.8846 227.352 48.3455L227.943 46.5945C228.782 44.1567 229.267 42.2722 229.398 40.9408C229.441 40.547 229.633 40.3501 229.975 40.3501C230.191 40.3501 230.369 40.4017 230.509 40.5048C230.781 40.7111 230.913 40.9408 230.903 41.1939C230.894 41.4471 230.849 41.7565 230.77 42.1222C230.69 42.4831 230.587 42.8793 230.46 43.3106C230.334 43.7372 230.188 44.1896 230.024 44.6677L229.054 47.5227C228.496 49.1448 228.217 50.1925 228.217 50.666C228.217 50.9192 228.32 51.0457 228.526 51.0457C228.723 51.0457 228.901 51.0035 229.061 50.9192C229.225 50.8348 229.33 50.7926 229.377 50.7926C229.476 50.7926 229.525 50.8418 229.525 50.9402C229.525 51.3575 229.312 51.7067 228.885 51.988C228.599 52.1802 228.336 52.2763 228.097 52.2763C227.863 52.2763 227.673 52.2482 227.528 52.1919C227.382 52.1357 227.251 52.0466 227.134 51.9247Z" fill="white"/>
<path d="M218.887 53.753C218.887 53.6546 218.962 53.4577 219.112 53.1623C219.258 52.8717 219.417 52.499 219.591 52.0443C219.769 51.5895 219.938 51.116 220.097 50.6238C220.256 50.1316 220.418 49.6042 220.582 49.0416L221.131 47.1852L220.399 47.3821C220.216 47.3821 220.066 47.286 219.949 47.0938C219.921 47.0422 219.907 46.9813 219.907 46.9109C219.907 46.8406 219.963 46.7586 220.076 46.6648C220.188 46.5664 220.327 46.475 220.491 46.3906C220.819 46.2218 221.156 46.0929 221.503 46.0038L221.567 45.8069C221.693 45.4131 221.813 45.0053 221.925 44.5834C222.042 44.1567 222.164 43.7419 222.291 43.3387C222.422 42.9355 222.57 42.5535 222.734 42.1925C222.898 41.8268 223.09 41.508 223.311 41.2361C223.798 40.6455 224.41 40.3501 225.146 40.3501C225.69 40.3501 226.121 40.4954 226.44 40.7861C226.759 41.0767 226.918 41.4705 226.918 41.9675C226.918 42.4831 226.77 42.9308 226.475 43.3106C226.226 43.6247 225.95 43.7817 225.645 43.7817C225.265 43.7817 225.008 43.6083 224.872 43.2613C224.834 43.1723 224.815 43.0973 224.815 43.0363C224.815 42.9332 224.886 42.8394 225.026 42.755C225.284 42.5581 225.465 42.2956 225.568 41.9675C225.601 41.8643 225.617 41.7635 225.617 41.6651C225.617 41.2807 225.467 41.0885 225.167 41.0885C224.754 41.0885 224.375 41.5549 224.028 42.4878C223.925 42.7738 223.822 43.0879 223.718 43.4301L223.057 45.6733C223.484 45.6077 223.793 45.5749 223.986 45.5749C224.183 45.5749 224.356 45.5983 224.506 45.6452C224.656 45.6874 224.792 45.7483 224.914 45.828C225.19 46.0108 225.329 46.2359 225.329 46.5031C225.329 46.7703 225.197 46.9039 224.935 46.9039L224.042 46.8687C223.554 46.8687 223.104 46.8898 222.692 46.932L222.115 48.9713C221.735 50.3543 221.426 51.3598 221.187 51.988C220.953 52.6162 220.723 53.1483 220.498 53.5843C220.287 53.9827 219.966 54.182 219.534 54.182C219.103 54.182 218.887 54.039 218.887 53.753Z" fill="white"/>
<path d="M215.225 46.2567C215.08 46.2567 214.874 46.3973 214.606 46.6786C214.339 46.9552 214.107 47.2083 213.91 47.438L213.312 48.1553L212.159 49.625C211.887 50.1406 211.674 50.5696 211.519 50.9118L211.14 51.7275C211.041 51.9291 210.954 52.0721 210.879 52.1565C210.809 52.2362 210.711 52.276 210.584 52.276C210.462 52.276 210.343 52.2526 210.225 52.2057C210.113 52.1635 210.014 52.1072 209.93 52.0369C209.752 51.8869 209.663 51.7228 209.663 51.5447C209.663 51.4744 209.714 51.3361 209.818 51.1298L210.085 50.5602C210.169 50.3914 210.268 50.1758 210.38 49.9133L210.774 48.9499C211.327 47.5669 211.604 46.6739 211.604 46.2707C211.604 46.0551 211.533 45.8957 211.393 45.7925L211.252 45.6941C211.205 45.6613 211.182 45.605 211.182 45.5253C211.182 45.4409 211.212 45.3612 211.273 45.2862C211.339 45.2112 211.423 45.1456 211.526 45.0893C211.737 44.9815 211.948 44.9276 212.159 44.9276C212.375 44.9276 212.541 44.9511 212.658 44.9979C212.776 45.0448 212.874 45.1081 212.954 45.1878C213.127 45.3519 213.214 45.523 213.214 45.7011C213.214 45.8793 213.191 46.0598 213.144 46.2426C213.101 46.4207 213.045 46.6036 212.975 46.7911C212.909 46.9739 212.839 47.1544 212.764 47.3325C212.689 47.5107 212.621 47.6654 212.56 47.7967L212.419 48.099C212.382 48.174 212.372 48.1975 212.391 48.1693C212.912 47.4474 213.254 46.9833 213.418 46.777L213.91 46.1863C214.271 45.7644 214.555 45.4855 214.761 45.3495C215.178 45.0683 215.506 44.9276 215.745 44.9276C215.985 44.9276 216.186 44.9581 216.35 45.019C216.514 45.08 216.657 45.1667 216.779 45.2792C217.037 45.5183 217.166 45.823 217.166 46.1934C217.166 46.5637 217.082 46.9505 216.913 47.3536C216.744 47.7568 216.596 48.085 216.47 48.3381C216.348 48.5866 216.231 48.8397 216.118 49.0976C215.767 49.8805 215.591 50.45 215.591 50.8063C215.591 50.9657 215.717 51.0454 215.971 51.0454C216.167 51.0454 216.346 51.0032 216.505 50.9188C216.669 50.8345 216.774 50.7923 216.821 50.7923C216.92 50.7923 216.969 50.8415 216.969 50.9399C216.969 51.3572 216.756 51.7064 216.329 51.9877C216.043 52.1799 215.781 52.276 215.542 52.276C215.302 52.276 215.103 52.2502 214.944 52.1987C214.789 52.1471 214.651 52.0651 214.529 51.9525C214.252 51.7041 214.114 51.3572 214.114 50.9118C214.114 50.368 214.285 49.6883 214.627 48.8725C214.876 48.3147 215.052 47.9326 215.155 47.7263L215.394 47.2271C215.539 46.927 215.612 46.6903 215.612 46.5168C215.612 46.3434 215.483 46.2567 215.225 46.2567Z" fill="white"/>
<path d="M201.957 51.7275C201.76 51.54 201.605 51.3033 201.493 51.0173C201.38 50.7266 201.322 50.3844 201.317 49.9906C201.312 49.5968 201.359 49.1984 201.458 48.7952C201.561 48.392 201.704 48.0029 201.887 47.6279C202.074 47.2528 202.297 46.9012 202.555 46.5731C202.817 46.2449 203.105 45.959 203.42 45.7152C204.104 45.1901 204.814 44.9276 205.55 44.9276C206.516 44.9276 207.17 45.3519 207.512 46.2004C207.756 46.8145 207.77 47.5576 207.554 48.4295C207.357 49.2312 206.996 49.9672 206.471 50.6376C205.951 51.3079 205.337 51.7838 204.629 52.0651C204.273 52.2057 203.921 52.276 203.574 52.276C203.232 52.276 202.925 52.2315 202.653 52.1424C202.386 52.0533 202.154 51.915 201.957 51.7275ZM203.3 48.317C203.159 48.6639 203.047 49.0202 202.962 49.3859C202.883 49.7515 202.845 50.0984 202.85 50.4266C202.855 50.7501 202.904 51.0056 202.998 51.1931C203.096 51.3759 203.253 51.4673 203.469 51.4673C203.684 51.4673 203.895 51.3947 204.102 51.2493C204.313 51.0993 204.517 50.9024 204.713 50.6587C204.91 50.4149 205.095 50.1336 205.269 49.8148C205.442 49.496 205.595 49.1632 205.726 48.8163C206.012 48.0615 206.15 47.3911 206.141 46.8051C206.141 46.2895 206.035 45.9613 205.824 45.8207C205.74 45.7644 205.621 45.7363 205.466 45.7363C205.316 45.7363 205.142 45.8066 204.945 45.9472C204.749 46.0832 204.552 46.2684 204.355 46.5028C204.158 46.7372 203.968 47.0114 203.785 47.3255C203.602 47.6396 203.441 47.9701 203.3 48.317Z" fill="white"/>
<path d="M194.013 52.0369C193.919 51.9666 193.844 51.8893 193.788 51.8049C193.731 51.7158 193.701 51.6408 193.696 51.5798C193.692 51.5142 193.703 51.4369 193.731 51.3478C193.764 51.254 193.806 51.1415 193.858 51.0103C194.814 48.6569 195.293 47.077 195.293 46.2707C195.279 46.0457 195.201 45.8863 195.061 45.7925L194.92 45.6941C194.878 45.6613 194.854 45.605 194.85 45.5253C194.85 45.4409 194.88 45.3612 194.941 45.2862C195.002 45.2112 195.082 45.1456 195.18 45.0893C195.382 44.9815 195.588 44.9276 195.799 44.9276C196.015 44.9276 196.181 44.9511 196.298 44.9979C196.42 45.0448 196.523 45.1081 196.608 45.1878C196.786 45.3566 196.875 45.5347 196.875 45.7222C196.879 45.9097 196.858 46.0996 196.811 46.2918C196.769 46.484 196.718 46.6739 196.657 46.8614C196.596 47.0442 196.535 47.22 196.474 47.3888C196.413 47.5529 196.373 47.6748 196.354 47.7545C196.317 47.9185 196.303 48.0217 196.312 48.0639C196.425 47.9654 196.493 47.8693 196.516 47.7756L196.79 47.2552C197.4 46.1582 197.995 45.4316 198.576 45.0753C198.745 44.9768 198.947 44.9276 199.181 44.9276C199.42 44.9276 199.613 45.012 199.758 45.1808C199.903 45.3448 199.978 45.5277 199.983 45.7293C199.992 45.9308 199.978 46.0996 199.941 46.2356C199.908 46.3668 199.856 46.4911 199.786 46.6083C199.631 46.8708 199.444 47.002 199.223 47.002C199.162 47.002 199.106 46.9809 199.055 46.9388L198.9 46.8051C198.745 46.6692 198.595 46.6012 198.45 46.6012C198.309 46.6012 198.136 46.695 197.93 46.8825C197.728 47.07 197.517 47.3114 197.297 47.6068C196.556 48.5866 195.951 49.6836 195.482 50.8977L195.173 51.7135C195.093 51.915 195.023 52.0604 194.962 52.1494C194.901 52.2338 194.81 52.276 194.688 52.276C194.571 52.276 194.451 52.2526 194.329 52.2057C194.212 52.1635 194.107 52.1072 194.013 52.0369Z" fill="white"/>
<path d="M192.221 43.2829C192.117 43.3907 192 43.4798 191.869 43.5501C191.738 43.6158 191.599 43.658 191.454 43.6767C191.309 43.6908 191.17 43.6673 191.039 43.6064C190.913 43.5454 190.802 43.4587 190.709 43.3462C190.507 43.1118 190.406 42.8751 190.406 42.636C190.406 42.3969 190.444 42.2187 190.519 42.1015C190.599 41.9797 190.697 41.8812 190.814 41.8062C191.039 41.6609 191.25 41.5882 191.447 41.5882C191.649 41.5882 191.803 41.6023 191.911 41.6304C192.024 41.6585 192.127 41.7054 192.221 41.771C192.45 41.9257 192.565 42.1156 192.565 42.3406C192.565 42.561 192.532 42.7461 192.467 42.8962C192.406 43.0415 192.324 43.1704 192.221 43.2829ZM190.779 50.8915C190.901 50.8915 190.962 50.9712 190.962 51.1306C190.962 51.3415 190.866 51.5595 190.674 51.7846C190.392 52.1127 190.015 52.2768 189.541 52.2768C188.998 52.2768 188.625 52.0565 188.423 51.6158C188.348 51.4611 188.311 51.2736 188.311 51.0532C188.311 50.8329 188.348 50.5891 188.423 50.3219C188.503 50.05 188.599 49.7664 188.712 49.471C188.829 49.171 188.955 48.8686 189.091 48.5639L189.464 47.6779C189.736 47.0169 189.872 46.5809 189.872 46.3699C189.872 46.159 189.848 46.0207 189.802 45.9551C189.759 45.8847 189.712 45.8308 189.661 45.7933L189.52 45.6949C189.473 45.6621 189.45 45.6058 189.45 45.5261C189.45 45.4417 189.48 45.362 189.541 45.287C189.607 45.212 189.691 45.1464 189.795 45.0901C190.005 44.9823 190.252 44.9284 190.533 44.9284C191.222 44.9284 191.567 45.1089 191.567 45.4699C191.567 45.8918 191.456 46.3746 191.236 46.9184C191.016 47.4576 190.828 47.8935 190.674 48.2264L190.252 49.1968C189.942 49.9094 189.788 50.4227 189.788 50.7368C189.788 50.9431 189.891 51.0462 190.097 51.0462C190.298 51.0462 190.451 51.0204 190.554 50.9689C190.657 50.9173 190.732 50.8915 190.779 50.8915Z" fill="white"/>
<path d="M183.263 51.9669C183.16 51.8637 183.078 51.7465 183.017 51.6153C182.956 51.4793 182.926 51.3246 182.926 51.1512C182.926 50.973 182.958 50.816 183.024 50.68C183.094 50.5394 183.181 50.4269 183.284 50.3425C183.467 50.1925 183.659 50.1175 183.861 50.1175C184.067 50.1175 184.241 50.1315 184.381 50.1597C184.526 50.1878 184.662 50.2323 184.789 50.2933C185.08 50.4433 185.225 50.6589 185.225 50.9402C185.225 51.2918 185.11 51.5989 184.88 51.8614C184.665 52.1052 184.44 52.2388 184.205 52.2622C183.976 52.2857 183.788 52.2669 183.643 52.206C183.497 52.1497 183.371 52.07 183.263 51.9669Z" fill="white"/>
<path d="M173.16 51.404C172.523 51.9666 172.021 52.2479 171.655 52.2479C171.294 52.2479 171.044 52.0604 170.903 51.6853C170.851 51.5541 170.826 51.4322 170.826 51.3197C170.826 51.0149 170.873 50.7196 170.966 50.4336C171.065 50.1477 171.161 49.8805 171.255 49.632L171.873 48.0357C172.113 47.3841 172.258 46.9294 172.309 46.6715C172.361 46.4137 172.354 46.2402 172.288 46.1512C172.223 46.0574 172.145 45.9777 172.056 45.9121C171.972 45.8418 171.89 45.7808 171.81 45.7293C171.735 45.673 171.698 45.605 171.698 45.5253C171.698 45.4409 171.73 45.3612 171.796 45.2862C171.866 45.2112 171.958 45.1456 172.07 45.0893C172.295 44.9815 172.527 44.9276 172.767 44.9276C173.01 44.9276 173.2 44.9534 173.336 45.005C173.477 45.0518 173.592 45.1128 173.681 45.1878C173.854 45.3425 173.941 45.53 173.941 45.7504C173.941 45.966 173.903 46.2098 173.828 46.4817C173.758 46.7536 173.667 47.0419 173.554 47.3466C173.446 47.6513 173.324 47.9678 173.188 48.2959L172.802 49.2663C172.497 50.0492 172.312 50.6352 172.246 51.0243C172.687 50.8743 173.27 50.3352 173.997 49.407C174.789 48.3897 175.49 47.2294 176.1 45.9262C176.17 45.7621 176.257 45.6566 176.36 45.6097C176.529 45.53 176.742 45.4949 177 45.5042C177.408 45.5183 177.619 45.6449 177.633 45.884C177.642 46.0293 177.602 46.191 177.513 46.3692C177.429 46.5426 177.358 46.6879 177.302 46.8051L177.028 47.3677C176.479 48.4788 176.205 49.3812 176.205 50.075C176.205 50.5579 176.336 50.8884 176.599 51.0665C176.674 51.1228 176.789 51.1509 176.943 51.1509C177.098 51.1509 177.281 51.097 177.492 50.9892C177.703 50.8767 177.905 50.7243 178.097 50.5321C178.289 50.3399 178.467 50.1172 178.631 49.864C178.8 49.6062 178.945 49.332 179.067 49.0413C179.325 48.4272 179.454 47.8834 179.454 47.4099C179.454 46.5989 179.302 46.0012 178.997 45.6167C178.894 45.4949 178.924 45.3519 179.088 45.1878C179.262 45.0143 179.534 44.9276 179.904 44.9276C180.359 44.9276 180.668 45.1831 180.832 45.6941C180.898 45.8863 180.931 46.1746 180.931 46.559C180.931 46.9434 180.863 47.3724 180.727 47.8459C180.591 48.3147 180.406 48.7671 180.171 49.203C179.941 49.6343 179.674 50.0375 179.37 50.4125C179.069 50.7876 178.753 51.1134 178.42 51.39C177.708 51.9807 177.047 52.276 176.437 52.276C175.392 52.276 174.869 51.6009 174.869 50.2508C174.869 49.9414 174.897 49.639 174.953 49.3437C174.4 50.15 173.803 50.8368 173.16 51.404Z" fill="white"/>
<path d="M160.904 51.404C160.267 51.9666 159.765 52.2479 159.399 52.2479C159.038 52.2479 158.788 52.0604 158.647 51.6853C158.595 51.5541 158.57 51.4322 158.57 51.3197C158.57 51.0149 158.616 50.7196 158.71 50.4336C158.809 50.1477 158.905 49.8805 158.999 49.632L159.617 48.0357C159.856 47.3841 160.002 46.9294 160.053 46.6715C160.105 46.4137 160.098 46.2402 160.032 46.1512C159.967 46.0574 159.889 45.9777 159.8 45.9121C159.716 45.8418 159.634 45.7808 159.554 45.7293C159.479 45.673 159.442 45.605 159.442 45.5253C159.442 45.4409 159.474 45.3612 159.54 45.2862C159.61 45.2112 159.702 45.1456 159.814 45.0893C160.039 44.9815 160.271 44.9276 160.51 44.9276C160.754 44.9276 160.944 44.9534 161.08 45.005C161.221 45.0518 161.335 45.1128 161.425 45.1878C161.598 45.3425 161.685 45.53 161.685 45.7504C161.685 45.966 161.647 46.2098 161.572 46.4817C161.502 46.7536 161.41 47.0419 161.298 47.3466C161.19 47.6513 161.068 47.9678 160.932 48.2959L160.546 49.2663C160.241 50.0492 160.056 50.6352 159.99 51.0243C160.431 50.8743 161.014 50.3352 161.741 49.407C162.533 48.3897 163.234 47.2294 163.844 45.9262C163.914 45.7621 164.001 45.6566 164.104 45.6097C164.273 45.53 164.486 45.4949 164.744 45.5042C165.151 45.5183 165.362 45.6449 165.377 45.884C165.386 46.0293 165.346 46.191 165.257 46.3692C165.173 46.5426 165.102 46.6879 165.046 46.8051L164.772 47.3677C164.223 48.4788 163.949 49.3812 163.949 50.075C163.949 50.5579 164.08 50.8884 164.343 51.0665C164.418 51.1228 164.533 51.1509 164.687 51.1509C164.842 51.1509 165.025 51.097 165.236 50.9892C165.447 50.8767 165.648 50.7243 165.841 50.5321C166.033 50.3399 166.211 50.1172 166.375 49.864C166.544 49.6062 166.689 49.332 166.811 49.0413C167.069 48.4272 167.198 47.8834 167.198 47.4099C167.198 46.5989 167.045 46.0012 166.741 45.6167C166.638 45.4949 166.668 45.3519 166.832 45.1878C167.006 45.0143 167.277 44.9276 167.648 44.9276C168.103 44.9276 168.412 45.1831 168.576 45.6941C168.642 45.8863 168.675 46.1746 168.675 46.559C168.675 46.9434 168.607 47.3724 168.471 47.8459C168.335 48.3147 168.149 48.7671 167.915 49.203C167.685 49.6343 167.418 50.0375 167.113 50.4125C166.813 50.7876 166.497 51.1134 166.164 51.39C165.452 51.9807 164.791 52.276 164.181 52.276C163.136 52.276 162.613 51.6009 162.613 50.2508C162.613 49.9414 162.641 49.639 162.697 49.3437C162.144 50.15 161.546 50.8368 160.904 51.404Z" fill="white"/>
<path d="M148.649 51.404C148.012 51.9666 147.51 52.2479 147.144 52.2479C146.783 52.2479 146.532 52.0604 146.392 51.6853C146.34 51.5541 146.314 51.4322 146.314 51.3197C146.314 51.0149 146.361 50.7196 146.455 50.4336C146.554 50.1477 146.65 49.8805 146.743 49.632L147.362 48.0357C147.601 47.3841 147.747 46.9294 147.798 46.6715C147.85 46.4137 147.843 46.2402 147.777 46.1512C147.711 46.0574 147.634 45.9777 147.545 45.9121C147.461 45.8418 147.379 45.7808 147.299 45.7293C147.224 45.673 147.186 45.605 147.186 45.5253C147.186 45.4409 147.219 45.3612 147.285 45.2862C147.355 45.2112 147.447 45.1456 147.559 45.0893C147.784 44.9815 148.016 44.9276 148.255 44.9276C148.499 44.9276 148.689 44.9534 148.825 45.005C148.966 45.0518 149.08 45.1128 149.169 45.1878C149.343 45.3425 149.43 45.53 149.43 45.7504C149.43 45.966 149.392 46.2098 149.317 46.4817C149.247 46.7536 149.155 47.0419 149.043 47.3466C148.935 47.6513 148.813 47.9678 148.677 48.2959L148.29 49.2663C147.986 50.0492 147.801 50.6352 147.735 51.0243C148.176 50.8743 148.759 50.3352 149.486 49.407C150.278 48.3897 150.979 47.2294 151.588 45.9262C151.659 45.7621 151.745 45.6566 151.849 45.6097C152.017 45.53 152.231 45.4949 152.489 45.5042C152.896 45.5183 153.107 45.6449 153.121 45.884C153.131 46.0293 153.091 46.191 153.002 46.3692C152.917 46.5426 152.847 46.6879 152.791 46.8051L152.517 47.3677C151.968 48.4788 151.694 49.3812 151.694 50.075C151.694 50.5579 151.825 50.8884 152.088 51.0665C152.163 51.1228 152.278 51.1509 152.432 51.1509C152.587 51.1509 152.77 51.097 152.981 50.9892C153.192 50.8767 153.393 50.7243 153.586 50.5321C153.778 50.3399 153.956 50.1172 154.12 49.864C154.289 49.6062 154.434 49.332 154.556 49.0413C154.814 48.4272 154.943 47.8834 154.943 47.4099C154.943 46.5989 154.79 46.0012 154.486 45.6167C154.382 45.4949 154.413 45.3519 154.577 45.1878C154.75 45.0143 155.022 44.9276 155.393 44.9276C155.847 44.9276 156.157 45.1831 156.321 45.6941C156.387 45.8863 156.419 46.1746 156.419 46.559C156.419 46.9434 156.351 47.3724 156.215 47.8459C156.08 48.3147 155.894 48.7671 155.66 49.203C155.43 49.6343 155.163 50.0375 154.858 50.4125C154.558 50.7876 154.242 51.1134 153.909 51.39C153.196 51.9807 152.535 52.276 151.926 52.276C150.881 52.276 150.358 51.6009 150.358 50.2508C150.358 49.9414 150.386 49.639 150.442 49.3437C149.889 50.15 149.291 50.8368 148.649 51.404Z" fill="white"/>
</svg>
