<svg width="1439" height="1438" viewBox="0 0 1439 1438" fill="none" xmlns="http://www.w3.org/2000/svg">
<mask id="mask0_22814_1602" style="mask-type:alpha" maskUnits="userSpaceOnUse" x="-1" y="0" width="1440" height="1438">
<rect x="-1" width="1440" height="1438" fill="#D9D9D9"/>
</mask>
<g mask="url(#mask0_22814_1602)">
<path opacity="0.3" d="M0 17H595.114C597.298 17 599.422 17.7149 601.161 19.0356L1040.96 352.964C1042.7 354.285 1044.82 355 1047.01 355H1191.04H1440" stroke="#0D6AF9" stroke-width="2"/>
<path opacity="0.3" d="M1440 700H844.886C842.702 700 840.578 700.715 838.839 702.036L399.038 1035.96C397.299 1037.29 395.175 1038 392.991 1038H248.956H0" stroke="#0D6AF9" stroke-width="2"/>
<path opacity="0.3" d="M1440 683H840.727C838.545 683 836.423 683.714 834.684 685.033L391.79 1020.97C390.051 1022.29 387.929 1023 385.746 1023H240.685H115.342H0" stroke="#0D6AF9" stroke-width="2"/>
<path opacity="0.3" d="M0 0H599.273C601.455 0 603.577 0.713838 605.316 2.03262L1048.21 337.967C1049.95 339.286 1052.07 340 1054.25 340H1199.32H1324.66H1440" stroke="#0D6AF9" stroke-width="2"/>
<path d="M0.5 17H466" stroke="url(#paint0_linear_22814_1602)" stroke-width="2"/>
<path d="M852 700H1317.5" stroke="url(#paint1_linear_22814_1602)" stroke-width="2"/>
<path d="M986.5 683H1440.5" stroke="url(#paint2_linear_22814_1602)" stroke-width="2"/>
<path opacity="0.25" d="M1416.14 1229.42L1404.95 1227M1416.14 1229.42H1382.99M1416.14 1229.42L1427.69 1231.91M1416.14 1229.42H1439.61M1404.95 1227L1409.02 1227L1413.05 1227.01L1416.99 1227.02L1420.81 1227.05L1424.47 1227.1L1427.92 1227.17L1431.12 1227.27L1434.1 1227.39L1436.65 1227.56L1438.97 1227.77L1439.61 1227.84V1229.42M1404.95 1227H1372.33M1372.33 1227H1339.72M1372.33 1227L1382.99 1229.42M1339.72 1227H1307.1M1339.72 1227L1349.84 1229.42M1307.1 1227H1274.48M1307.1 1227L1316.69 1229.42M1274.48 1227H1241.87M1274.48 1227L1283.54 1229.42M1241.87 1227H1209.25M1241.87 1227L1250.39 1229.42M1209.25 1227H1176.63M1209.25 1227L1217.24 1229.42M1176.63 1227H1144.02M1176.63 1227L1184.09 1229.42M1144.02 1227H1111.4M1144.02 1227L1150.94 1229.42M1111.4 1227H1078.78M1111.4 1227L1117.79 1229.42M1078.78 1227H1046.17M1078.78 1227L1084.64 1229.42M1046.17 1227H1013.55M1046.17 1227L1051.49 1229.42M1013.55 1227H980.933M1013.55 1227L1014.73 1227.6L1016.53 1228.5L1018.34 1229.42M980.933 1227H948.317M980.933 1227L981.985 1227.6L985.194 1229.42M948.317 1227H915.7M948.317 1227L952.045 1229.42M915.7 1227H883.083M915.7 1227L916.886 1227.9L918.088 1228.81L918.491 1229.11L918.896 1229.42M883.083 1227H850.467M883.083 1227L884.072 1227.9L884.404 1228.2L884.738 1228.5L885.747 1229.42M850.467 1227H817.85M850.467 1227L852.598 1229.42M817.85 1227L818.047 1227.3L818.244 1227.6L819.245 1229.11L819.448 1229.42M817.85 1227H785.234M785.234 1227H752.616M785.234 1227L786.299 1229.42M752.616 1227H720M752.616 1227L752.814 1227.9L753.149 1229.42M720 1227H687.384M720 1227V1229.42M687.384 1227H654.766M687.384 1227L687.186 1227.9L686.851 1229.42M654.766 1227H622.15M654.766 1227L653.701 1229.42M622.15 1227L621.953 1227.3L621.756 1227.6L620.755 1229.11L620.552 1229.42M622.15 1227H589.534M589.534 1227H556.916M589.534 1227L587.673 1229.11L587.402 1229.42M556.916 1227H524.3M556.916 1227L555.928 1227.9L555.596 1228.2L554.927 1228.81L554.591 1229.11L554.253 1229.42M524.3 1227H491.683M524.3 1227L523.114 1227.9L521.912 1228.81L521.509 1229.11L521.104 1229.42M491.683 1227H459.067M491.683 1227L487.955 1229.42M459.067 1227H426.45M459.067 1227L458.015 1227.6L454.806 1229.42M426.45 1227H393.833M426.45 1227L421.656 1229.42M393.833 1227H361.217M393.833 1227L388.507 1229.42M361.217 1227H328.6M361.217 1227L355.357 1229.42M328.6 1227H295.983M328.6 1227L322.208 1229.42M295.983 1227H263.367M295.983 1227L289.059 1229.42M263.367 1227H230.751M263.367 1227L255.909 1229.42M230.751 1227H198.133M230.751 1227L222.76 1229.42M198.133 1227H165.517M198.133 1227L189.61 1229.42M165.517 1227H132.9M165.517 1227L156.461 1229.42M132.9 1227H100.283M132.9 1227L123.312 1229.42M100.283 1227H67.6668M100.283 1227L90.163 1229.42M67.6668 1227H35.0504M67.6668 1227L57.0136 1229.42M35.0504 1227L30.9801 1227L26.9517 1227.01L23.0074 1227.02L19.1867 1227.05L15.5316 1227.1L12.0812 1227.17L8.87672 1227.27L5.90232 1227.39L3.34995 1227.56L1.0262 1227.77L0.387546 1227.84V1229.42M35.0504 1227L23.8641 1229.42M90.163 1229.42H123.312M90.163 1229.42H57.0136M90.163 1229.42L79.7053 1231.91M123.312 1229.42L113.405 1231.91M123.312 1229.42H156.461M222.76 1229.42H255.909M222.76 1229.42H189.61M222.76 1229.42L220.722 1230.03L214.505 1231.91M255.909 1229.42L248.204 1231.91M255.909 1229.42H289.059M355.357 1229.42H388.507M355.357 1229.42H322.208M355.357 1229.42L353.863 1230.03L353.11 1230.34L349.303 1231.91M388.507 1229.42L387.828 1229.72L387.148 1230.03L383.003 1231.91M388.507 1229.42H421.656M487.955 1229.42L487.48 1229.72L484.102 1231.91M487.955 1229.42H521.104M487.955 1229.42H454.806M521.104 1229.42L520.289 1230.03L519.878 1230.34L519.467 1230.66L517.802 1231.91M521.104 1229.42H554.253M620.552 1229.42H653.701M620.552 1229.42H587.402M620.552 1229.42L618.901 1231.91M653.701 1229.42L653.566 1229.72L653.43 1230.03L653.293 1230.34L652.879 1231.28L652.601 1231.91M653.701 1229.42H686.851M753.149 1229.42H786.299M753.149 1229.42H720M753.149 1229.42L753.7 1231.91M786.299 1229.42L786.434 1229.72L786.57 1230.03L786.707 1230.34L787.399 1231.91M786.299 1229.42H819.448M885.747 1229.42H918.896M885.747 1229.42H852.598M885.747 1229.42L886.426 1230.03L887.802 1231.28L888.149 1231.6L888.499 1231.91M918.896 1229.42L919.711 1230.03L920.122 1230.34L920.534 1230.66L922.198 1231.91M918.896 1229.42H952.045M1018.34 1229.42H1051.49M1018.34 1229.42H985.194M1018.34 1229.42L1019.57 1230.03L1020.18 1230.34L1023.3 1231.91M1051.49 1229.42L1052.17 1229.72L1052.85 1230.03L1057 1231.91M1051.49 1229.42H1084.64M1150.94 1229.42H1184.09M1150.94 1229.42H1117.79M1150.94 1229.42L1152.71 1230.03L1153.6 1230.34L1158.1 1231.91M1184.09 1229.42L1191.8 1231.91M1184.09 1229.42H1217.24M1283.54 1229.42H1316.69M1283.54 1229.42H1250.39M1283.54 1229.42L1292.89 1231.91M1316.69 1229.42L1326.6 1231.91M1316.69 1229.42H1349.84M0.271359 1252.02H0.387546M33.6366 1252.02L46.2928 1248.83M33.6366 1252.02L20.4955 1255.33M33.6366 1252.02H71.7679M33.6366 1252.02H0.387546M46.2928 1248.83H8.86473M46.2928 1248.83L58.491 1245.76M46.2928 1248.83H83.7209M8.86473 1248.83L21.7405 1245.76M8.86473 1248.83H0.387546M8.86473 1248.83L0.387546 1250.86M46.1414 1239.93H81.6078M46.1414 1239.93L57.7137 1237.17M46.1414 1239.93H10.6758M46.1414 1239.93L34.1576 1242.79M81.6078 1239.93L92.5714 1237.17M81.6078 1239.93L70.2552 1242.79M81.6078 1239.93H117.074M57.7137 1237.17H92.5714M57.7137 1237.17L68.8954 1234.5M57.7137 1237.17H22.8567M92.5714 1237.17H127.428M92.5714 1237.17L103.164 1234.5M0.0224927 1302.38H0.387546M30.7904 1302.38L47.1106 1297.09M30.7904 1302.38L13.6591 1307.93M30.7904 1302.38H80.0202M30.7904 1302.38H0.387546M47.1106 1297.09L62.676 1292.04M47.1106 1297.09H95.174M47.1106 1297.09H0.387546M15.7243 1292.04H62.676M15.7243 1292.04L31.6472 1287.23M15.7243 1292.04H0.387546M15.7243 1292.04L0.387546 1296.68M46.8655 1282.62H91.7409M46.8655 1282.62L61.4257 1278.22M46.8655 1282.62H1.99018M46.8655 1282.62L31.6472 1287.23M91.7409 1282.62L105.331 1278.22M91.7409 1282.62L77.5368 1287.23M91.7409 1282.62H136.617M61.4257 1278.22H105.331M61.4257 1278.22H17.5211M61.4257 1278.22L75.3697 1274M105.331 1278.22L118.345 1274M105.331 1278.22H149.236M101.558 1266.08H142.787M101.558 1266.08L113.87 1262.36M101.558 1266.08H60.3283M101.558 1266.08L88.735 1269.96M142.787 1266.08L154.278 1262.36M142.787 1266.08L130.82 1269.96M142.787 1266.08H184.017M113.87 1262.36H154.278M113.87 1262.36H73.4612M113.87 1262.36L125.701 1258.78M154.278 1262.36L165.321 1258.78M154.278 1262.36H194.687M148.03 1252.02H186.161M148.03 1252.02L158.577 1248.83M148.03 1252.02H109.899M148.03 1252.02L137.079 1255.33M186.161 1252.02L196.005 1248.83M186.161 1252.02L175.941 1255.33M186.161 1252.02H224.293M158.577 1248.83H196.005M158.577 1248.83H121.149M158.577 1248.83L168.742 1245.76M196.005 1248.83L205.493 1245.76M196.005 1248.83H233.433M188.006 1239.93H223.473M188.006 1239.93L197.142 1237.17M188.006 1239.93H152.541M188.006 1239.93L178.546 1242.79M223.473 1239.93L231.999 1237.17M223.473 1239.93L214.642 1242.79M223.473 1239.93H258.939M197.142 1237.17H231.999M197.142 1237.17L205.97 1234.5M197.142 1237.17H162.285M231.999 1237.17H266.857M231.999 1237.17L240.239 1234.5M25.6092 1394.08L48.5784 1383.66M25.6092 1394.08L1.01196 1405.24M25.6092 1394.08H95.0481M25.6092 1394.08H0.387546M48.5784 1383.66L70.0775 1373.9M48.5784 1383.66H115.72M48.5784 1383.66H0.387546M48.1121 1356.15H109.193M48.1121 1356.15L67.7403 1348.06M48.1121 1356.15L27.2658 1364.75M48.1121 1356.15H0.387546M109.193 1356.15L127.036 1348.06M109.193 1356.15L90.2417 1364.75M109.193 1356.15H170.274M67.7403 1348.06H127.036M67.7403 1348.06H8.44421M67.7403 1348.06L86.2546 1340.42M127.036 1348.06L143.868 1340.42M127.036 1348.06H186.333M120.298 1326.38H174.817M120.298 1326.38L135.985 1319.91M120.298 1326.38H65.7801M120.298 1326.38L103.746 1333.2M174.817 1326.38L189.077 1319.91M174.817 1326.38L159.769 1333.2M174.817 1326.38H229.335M135.985 1319.91H189.077M135.985 1319.91H82.8926M135.985 1319.91L150.871 1313.77M189.077 1319.91L202.611 1313.77M189.077 1319.91H242.169M178.478 1302.38H227.708M178.478 1302.38L191.301 1297.09M178.478 1302.38H129.249M178.478 1302.38L165.018 1307.93M227.708 1302.38L239.365 1297.09M227.708 1302.38L215.471 1307.93M227.708 1302.38H276.937M191.301 1297.09H239.365M191.301 1297.09H143.238M191.301 1297.09L203.531 1292.04M239.365 1297.09L250.483 1292.04M239.365 1297.09H287.428M226.368 1282.62H271.244M226.368 1282.62L237.046 1278.22M226.368 1282.62H181.492M226.368 1282.62L215.208 1287.23M271.244 1282.62L280.951 1278.22M271.244 1282.62L261.098 1287.23M271.244 1282.62H316.119M237.046 1278.22H280.951M237.046 1278.22H193.141M237.046 1278.22L247.271 1274M280.951 1278.22L290.247 1274M280.951 1278.22H324.856M266.476 1266.08H307.705M266.476 1266.08L275.504 1262.36M266.476 1266.08H225.246M266.476 1266.08L257.073 1269.96M307.705 1266.08L308.75 1265.61L315.913 1262.36M307.705 1266.08L299.157 1269.96M307.705 1266.08H348.935M275.504 1262.36H315.913M275.504 1262.36H235.096M275.504 1262.36L284.181 1258.78M315.913 1262.36L323.801 1258.78M315.913 1262.36H356.322M300.555 1252.02H338.687M300.555 1252.02L308.29 1248.83M300.555 1252.02H262.424M300.555 1252.02L292.525 1255.33M338.687 1252.02L345.718 1248.83M338.687 1252.02L335.982 1253.25L331.386 1255.33M338.687 1252.02H376.818M308.29 1248.83H345.718M308.29 1248.83H270.862M308.29 1248.83L315.744 1245.76M345.718 1248.83L352.495 1245.76M345.718 1248.83H383.146M329.871 1239.93H365.338M329.871 1239.93L336.571 1237.17M329.871 1239.93H294.405M329.871 1239.93L322.934 1242.79M365.338 1239.93L369.926 1237.85L370.678 1237.51L371.429 1237.17M365.338 1239.93L359.03 1242.79M365.338 1239.93H400.804M336.571 1237.17H371.429M336.571 1237.17L343.045 1234.5M336.571 1237.17H301.714M371.429 1237.17H406.286M371.429 1237.17L377.313 1234.5M50.7679 1512.8H146.373M50.7679 1512.8L80.8717 1493.29M50.7679 1512.8L17.6882 1534.24M50.7679 1512.8L0.387546 1512.8M146.373 1512.8L172.176 1493.29M146.373 1512.8L118.019 1534.24M146.373 1512.8H241.977M80.8717 1493.29H172.176M80.8717 1493.29L108.384 1475.45M80.8717 1493.29H0.387546M172.176 1493.29L195.758 1475.45M172.176 1493.29H263.48M156.866 1444.03H237.314M156.866 1444.03L178.334 1430.11M156.866 1444.03H76.4184M156.866 1444.03L133.625 1459.09M237.314 1444.03L255.715 1430.11M237.314 1444.03L217.393 1459.09M237.314 1444.03H317.761M178.334 1430.11H255.715M178.334 1430.11H100.953M178.334 1430.11L198.226 1417.22M255.715 1430.11L272.765 1417.22M255.715 1430.11H333.096M233.927 1394.08H303.365M233.927 1394.08L250.005 1383.66M233.927 1394.08H164.487M233.927 1394.08L216.708 1405.24M303.365 1394.08L317.147 1383.66M303.365 1394.08L288.607 1405.24M303.365 1394.08H372.804M250.005 1383.66H317.147M250.005 1383.66H182.863M250.005 1383.66L265.054 1373.9M317.147 1383.66L330.047 1373.9M317.147 1383.66H384.29M292.435 1356.15H353.516M292.435 1356.15L304.926 1348.06M292.435 1356.15H231.355M292.435 1356.15L279.169 1364.75M353.516 1356.15L364.222 1348.06M353.516 1356.15L342.145 1364.75M353.516 1356.15H414.596M304.926 1348.06H364.222M304.926 1348.06H245.629M304.926 1348.06L316.707 1340.42M364.222 1348.06L374.321 1340.42M364.222 1348.06H423.518M338.372 1326.38H392.89M338.372 1326.38L348.354 1319.91M338.372 1326.38H283.853M338.372 1326.38L327.838 1333.2M392.89 1326.38L401.446 1319.91M392.89 1326.38L383.862 1333.2M392.89 1326.38H447.409M348.354 1319.91H401.446M348.354 1319.91H295.262M348.354 1319.91L357.827 1313.77M401.446 1319.91L409.566 1313.77M401.446 1319.91H454.539M375.396 1302.38H424.625M375.396 1302.38L383.556 1297.09M375.396 1302.38H326.166M375.396 1302.38L366.83 1307.93M424.625 1302.38L431.619 1297.09M424.625 1302.38L417.282 1307.93M424.625 1302.38H473.854M383.556 1297.09H431.619M383.556 1297.09H335.492M383.556 1297.09L391.338 1292.04M431.619 1297.09L438.29 1292.04M431.619 1297.09H479.682M405.87 1282.62H450.747M405.87 1282.62L412.666 1278.22M405.87 1282.62H360.995M405.87 1282.62L398.769 1287.23M450.747 1282.62L456.57 1278.22M450.747 1282.62L444.659 1287.23M450.747 1282.62H495.622M412.666 1278.22H456.57M412.666 1278.22H368.76M412.666 1278.22L419.173 1274M456.57 1278.22L462.148 1274M456.57 1278.22H500.476M431.393 1266.08H472.624M431.393 1266.08L437.139 1262.36M431.393 1266.08H390.164M431.393 1266.08L425.409 1269.96M472.624 1266.08L471.993 1266.56L467.494 1269.96M472.624 1266.08L477.548 1262.36M472.624 1266.08H513.853M437.139 1262.36H477.548M437.139 1262.36H396.731M437.139 1262.36L442.661 1258.78M477.548 1262.36L482.281 1258.78M477.548 1262.36H517.957M453.081 1252.02H491.212M453.081 1252.02L458.003 1248.83M453.081 1252.02H414.95M453.081 1252.02L447.971 1255.33M491.212 1252.02L495.431 1248.83M491.212 1252.02L489.589 1253.25L488.494 1254.08L486.832 1255.33M491.212 1252.02H529.343M458.003 1248.83H495.431M458.003 1248.83H420.575M458.003 1248.83L462.746 1245.76M495.431 1248.83L496.973 1247.67L497.99 1246.9L499.497 1245.76M495.431 1248.83H532.859M471.737 1239.93H507.202M471.737 1239.93L474.948 1237.85L476 1237.17M471.737 1239.93H436.27M471.737 1239.93L467.882 1242.43L467.322 1242.79M507.202 1239.93L509.956 1237.85L510.407 1237.51L510.857 1237.17M507.202 1239.93L505.327 1241.35L503.418 1242.79M507.202 1239.93H542.669M476 1237.17H510.857M476 1237.17L480.119 1234.5M476 1237.17H441.143M510.857 1237.17H545.714M510.857 1237.17L514.388 1234.5M433.186 1512.8H528.791M433.186 1512.8L446.088 1493.29M433.186 1512.8H337.582M433.186 1512.8L419.009 1534.24M528.791 1512.8L537.392 1493.29M528.791 1512.8L519.34 1534.24M528.791 1512.8H624.396M446.088 1493.29H537.392M446.088 1493.29H354.784M446.088 1493.29L457.879 1475.45M537.392 1493.29L545.253 1475.45M537.392 1493.29H628.696M478.657 1444.03H559.104M478.657 1444.03L487.858 1430.11M478.657 1444.03H398.209M478.657 1444.03L468.696 1459.09M559.104 1444.03L565.238 1430.11M559.104 1444.03L552.465 1459.09M559.104 1444.03H639.553M487.858 1430.11H565.238M487.858 1430.11H410.477M487.858 1430.11L496.383 1417.22M565.238 1430.11L570.922 1417.22M565.238 1430.11H642.619M511.683 1394.08H581.122M511.683 1394.08L518.574 1383.66M511.683 1394.08H442.244M511.683 1394.08L504.304 1405.24M581.122 1394.08L585.716 1383.66M581.122 1394.08L576.203 1405.24M581.122 1394.08H650.561M518.574 1383.66H585.716M518.574 1383.66H451.432M518.574 1383.66L525.023 1373.9M585.716 1383.66L590.016 1373.9M585.716 1383.66H652.858M536.758 1356.15H597.838M536.758 1356.15L542.111 1348.06M536.758 1356.15H475.677M536.758 1356.15L531.073 1364.75M597.838 1356.15L601.407 1348.06M597.838 1356.15L594.048 1364.75M597.838 1356.15H658.919M542.111 1348.06H601.407M542.111 1348.06H482.815M542.111 1348.06L547.16 1340.42M601.407 1348.06L604.774 1340.42M601.407 1348.06H660.704M556.445 1326.38H610.964M556.445 1326.38L560.723 1319.91M556.445 1326.38H501.927M556.445 1326.38L551.931 1333.2M610.964 1326.38L613.815 1319.91M610.964 1326.38L607.954 1333.2M610.964 1326.38H665.482M560.723 1319.91H613.815M560.723 1319.91H507.631M560.723 1319.91L564.783 1313.77M613.815 1319.91L616.522 1313.77M613.815 1319.91H666.908M572.312 1302.38H621.541M572.312 1302.38L575.809 1297.09M572.312 1302.38H523.083M572.312 1302.38L568.642 1307.93M621.541 1302.38L623.873 1297.09M621.541 1302.38L619.094 1307.93M621.541 1302.38H670.771M575.809 1297.09H623.873M575.809 1297.09H527.746M575.809 1297.09L577.079 1295.17L579.145 1292.04M623.873 1297.09L626.097 1292.04M623.873 1297.09H671.937M585.373 1282.62H630.249M585.373 1282.62L588.286 1278.22M585.373 1282.62H540.497M585.373 1282.62L583.104 1286.06L582.329 1287.23M630.249 1282.62L630.987 1280.95L632.19 1278.22M630.249 1282.62L628.219 1287.23M630.249 1282.62H675.125M588.286 1278.22L588.64 1277.68L591.074 1274M588.286 1278.22H632.19M588.286 1278.22H544.38M632.19 1278.22L632.897 1276.62L633.129 1276.09L633.362 1275.56L634.049 1274M632.19 1278.22H676.095M596.311 1266.08H637.541M596.311 1266.08L597.555 1264.2L597.862 1263.73L598.167 1263.27L598.472 1262.81L598.774 1262.36M596.311 1266.08H555.082M596.311 1266.08L593.747 1269.96M637.541 1266.08L638.778 1263.27L638.981 1262.81L639.182 1262.36M637.541 1266.08L635.832 1269.96M637.541 1266.08H678.771M598.774 1262.36H639.182M598.774 1262.36H558.365M598.774 1262.36L600.264 1260.1L600.557 1259.66L601.14 1258.78M639.182 1262.36L640.176 1260.1L640.372 1259.66L640.566 1259.22L640.76 1258.78M639.182 1262.36H679.592M605.606 1252.02H643.738M605.606 1252.02L607.716 1248.83M605.606 1252.02H567.474M605.606 1252.02L605.066 1252.84L604.247 1254.08L603.416 1255.33M643.738 1252.02L643.558 1252.43L642.463 1254.91L642.277 1255.33M643.738 1252.02L645.144 1248.83M643.738 1252.02H681.869M607.716 1248.83H645.144M607.716 1248.83H570.288M607.716 1248.83L609.749 1245.76M645.144 1248.83L645.658 1247.67L645.828 1247.28L645.997 1246.9L646.499 1245.76M645.144 1248.83H682.572M613.602 1239.93H649.067M613.602 1239.93L614.978 1237.85L615.428 1237.17M613.602 1239.93H578.135M613.602 1239.93L612.899 1240.99L612.664 1241.35L612.426 1241.71L611.709 1242.79M649.067 1239.93L649.222 1239.58L649.529 1238.88L649.834 1238.19L650.285 1237.17M649.067 1239.93L648.442 1241.35L648.285 1241.71L647.966 1242.43L647.806 1242.79M649.067 1239.93H684.534M615.428 1237.17H650.285M615.428 1237.17L616.976 1234.82L617.194 1234.5M615.428 1237.17H580.571M650.285 1237.17L650.435 1236.83L650.584 1236.49L650.732 1236.15L650.879 1235.82L651.318 1234.82L651.463 1234.5M650.285 1237.17H685.143M815.604 1512.8H911.209M815.604 1512.8L811.304 1493.29M815.604 1512.8H720M815.604 1512.8L820.33 1534.24M911.209 1512.8L902.608 1493.29M911.209 1512.8L920.66 1534.24M911.209 1512.8H1006.81M811.304 1493.29H902.608M811.304 1493.29H720M811.304 1493.29L807.374 1475.45M902.608 1493.29L894.747 1475.45M902.608 1493.29H993.912M800.448 1444.03H880.896M800.448 1444.03L797.381 1430.11M800.448 1444.03H720M800.448 1444.03L803.768 1459.09M880.896 1444.03L874.762 1430.11M880.896 1444.03L887.536 1459.09M880.896 1444.03H961.343M797.381 1430.11H874.762M797.381 1430.11H720M797.381 1430.11L794.539 1417.22M874.762 1430.11L869.078 1417.22M874.762 1430.11H952.142M789.439 1394.08H858.878M789.439 1394.08L787.142 1383.66M789.439 1394.08H720M789.439 1394.08L791.899 1405.24M858.878 1394.08L854.284 1383.66M858.878 1394.08L863.797 1405.24M858.878 1394.08H928.317M787.142 1383.66H854.284M787.142 1383.66H720M787.142 1383.66L784.992 1373.9M854.284 1383.66L849.985 1373.9M854.284 1383.66H921.426M781.081 1356.15H842.162M781.081 1356.15L779.296 1348.06M781.081 1356.15H720M781.081 1356.15L782.976 1364.75M842.162 1356.15L838.593 1348.06M842.162 1356.15L845.952 1364.75M842.162 1356.15H903.242M779.296 1348.06H838.593M779.296 1348.06H720M779.296 1348.06L777.613 1340.42M838.593 1348.06L835.227 1340.42M838.593 1348.06H897.889M774.518 1326.38H829.036M774.518 1326.38L773.092 1319.91M774.518 1326.38H720M774.518 1326.38L776.023 1333.2M829.036 1326.38L826.185 1319.91M829.036 1326.38L832.046 1333.2M829.036 1326.38H883.555M773.092 1319.91H826.185M773.092 1319.91H720M773.092 1319.91L771.739 1313.77M826.185 1319.91L823.478 1313.77M826.185 1319.91H879.277M769.229 1302.38H818.459M769.229 1302.38L768.063 1297.09M769.229 1302.38H720M769.229 1302.38L770.453 1307.93M818.459 1302.38L816.127 1297.09M818.459 1302.38L820.906 1307.93M818.459 1302.38H867.688M768.063 1297.09H816.127M768.063 1297.09H720M768.063 1297.09L766.952 1292.04M816.127 1297.09L813.903 1292.04M816.127 1297.09H864.191M764.875 1282.62H809.751M764.875 1282.62L763.905 1278.22M764.875 1282.62H720M764.875 1282.62L765.89 1287.23M809.751 1282.62L808.048 1278.76L807.81 1278.22M809.751 1282.62L811.781 1287.23M809.751 1282.62H854.627M763.905 1278.22L763.787 1277.68L762.975 1274M763.905 1278.22H807.81M763.905 1278.22H720M807.81 1278.22L807.103 1276.62L806.871 1276.09L806.638 1275.56L805.951 1274M807.81 1278.22H851.715M761.229 1266.08H802.459M761.229 1266.08L760.409 1262.36M761.229 1266.08H720M761.229 1266.08L761.546 1267.52L761.653 1268L761.759 1268.49L761.975 1269.47L762.085 1269.96M802.459 1266.08L801.222 1263.27L800.817 1262.36M802.459 1266.08L804.168 1269.96M802.459 1266.08H843.689M760.409 1262.36H800.817M760.409 1262.36H720M760.409 1262.36L759.62 1258.78M800.817 1262.36L799.825 1260.1L799.628 1259.66L799.434 1259.22L799.24 1258.78M800.817 1262.36H841.226M758.131 1252.02H796.263M758.131 1252.02L757.428 1248.83M758.131 1252.02H720M758.131 1252.02L758.861 1255.33M796.263 1252.02L796.442 1252.43L797.537 1254.91L797.723 1255.33M796.263 1252.02L794.856 1248.83M796.263 1252.02H834.394M757.428 1248.83H794.856M757.428 1248.83H720M757.428 1248.83L756.75 1245.76M794.856 1248.83L794.342 1247.67L794.173 1247.28L794.003 1246.9L793.501 1245.76M794.856 1248.83H832.284M755.467 1239.93H790.933M755.467 1239.93L754.857 1237.17M755.467 1239.93H720M755.467 1239.93L756.097 1242.79M790.933 1239.93L790.778 1239.58L790.47 1238.88L790.318 1238.54L790.015 1237.85L789.865 1237.51L789.714 1237.17M790.933 1239.93L791.558 1241.35L791.715 1241.71L792.034 1242.43L792.194 1242.79M790.933 1239.93H826.398M754.857 1237.17L754.783 1236.83L754.708 1236.49L754.634 1236.15L754.269 1234.5M754.857 1237.17H789.714M754.857 1237.17H720M789.714 1237.17H824.572M789.714 1237.17L789.416 1236.49L789.268 1236.15L789.121 1235.82L788.682 1234.82L788.537 1234.5M1198.02 1512.8H1293.63M1198.02 1512.8L1176.52 1493.29M1198.02 1512.8H1102.42M1198.02 1512.8L1221.65 1534.24M1293.63 1512.8L1267.82 1493.29M1293.63 1512.8L1321.98 1534.24M1293.63 1512.8H1389.23M1176.52 1493.29H1267.82M1176.52 1493.29H1085.22M1176.52 1493.29L1156.87 1475.45M1267.82 1493.29L1244.24 1475.45M1267.82 1493.29H1359.13M1122.24 1444.03H1202.69M1122.24 1444.03L1106.9 1430.11M1122.24 1444.03H1041.79M1122.24 1444.03L1138.84 1459.09M1202.69 1444.03L1184.29 1430.11M1202.69 1444.03L1222.61 1459.09M1202.69 1444.03H1283.13M1106.9 1430.11H1184.29M1106.9 1430.11H1029.52M1106.9 1430.11L1092.7 1417.22M1184.29 1430.11L1167.23 1417.22M1184.29 1430.11H1261.67M1067.2 1394.08H1136.63M1067.2 1394.08L1055.71 1383.66M1067.2 1394.08H997.756M1067.2 1394.08L1079.49 1405.24M1136.63 1394.08L1122.85 1383.66M1136.63 1394.08L1151.39 1405.24M1136.63 1394.08H1206.07M1055.71 1383.66H1122.85M1055.71 1383.66H988.568M1055.71 1383.66L1044.96 1373.9M1122.85 1383.66L1109.95 1373.9M1122.85 1383.66H1189.99M1025.4 1356.15H1086.48M1025.4 1356.15L1016.48 1348.06M1025.4 1356.15H964.323M1025.4 1356.15L1034.88 1364.75M1086.48 1356.15L1075.78 1348.06M1086.48 1356.15L1097.86 1364.75M1086.48 1356.15H1147.57M1016.48 1348.06H1075.78M1016.48 1348.06H957.185M1016.48 1348.06L1008.07 1340.42M1075.78 1348.06L1065.68 1340.42M1075.78 1348.06H1135.07M992.591 1326.38H1047.11M992.591 1326.38L985.461 1319.91M992.591 1326.38H938.073M992.591 1326.38L1000.12 1333.2M1047.11 1326.38L1038.55 1319.91M1047.11 1326.38L1056.14 1333.2M1047.11 1326.38H1101.63M985.461 1319.91H1038.55M985.461 1319.91H932.369M985.461 1319.91L978.695 1313.77M1038.55 1319.91L1030.43 1313.77M1038.55 1319.91H1091.65M966.146 1302.38H1015.38M966.146 1302.38L960.318 1297.09M966.146 1302.38H916.917M966.146 1302.38L972.265 1307.93M1015.38 1302.38L1008.38 1297.09M1015.38 1302.38L1022.72 1307.93M1015.38 1302.38H1064.6M960.318 1297.09H1008.38M960.318 1297.09H912.254M960.318 1297.09L954.759 1292.04M1008.38 1297.09L1001.71 1292.04M1008.38 1297.09H1056.44M944.378 1282.62L945 1283.19L945.625 1283.76L949.451 1287.23M944.378 1282.62H989.254M944.378 1282.62L939.525 1278.22M944.378 1282.62H899.503M989.254 1282.62L983.43 1278.22M989.254 1282.62L995.341 1287.23M989.254 1282.62H1034.13M939.525 1278.22H983.43M939.525 1278.22H895.62M939.525 1278.22L934.877 1274M983.43 1278.22L977.852 1274M983.43 1278.22H1027.33M926.147 1266.08H967.377M926.147 1266.08L922.043 1262.36M926.147 1266.08H884.918M926.147 1266.08L930.421 1269.96M967.377 1266.08L964.275 1263.73L962.452 1262.36M967.377 1266.08L972.506 1269.96M967.377 1266.08H1008.61M922.043 1262.36H962.452M922.043 1262.36H881.635M922.043 1262.36L918.585 1259.22L918.1 1258.78M962.452 1262.36L957.72 1258.78M962.452 1262.36H1002.86M910.657 1252.02H948.788M910.657 1252.02L909.766 1251.21L907.141 1248.83M910.657 1252.02H872.526M910.657 1252.02L911.556 1252.84L913.382 1254.49L914.307 1255.33M948.788 1252.02L944.569 1248.83M948.788 1252.02L950.411 1253.25L951.506 1254.08L953.168 1255.33M948.788 1252.02H986.919M907.141 1248.83H944.569M907.141 1248.83H869.712M907.141 1248.83L904.588 1246.52L903.752 1245.76M944.569 1248.83L943.027 1247.67L942.01 1246.9L940.503 1245.76M944.569 1248.83H981.997M897.331 1239.93H932.798M897.331 1239.93L895.415 1238.19L894.286 1237.17M897.331 1239.93H861.865M897.331 1239.93L900.485 1242.79M932.798 1239.93L930.044 1237.85L929.593 1237.51L929.143 1237.17M932.798 1239.93L934.673 1241.35L936.582 1242.79M932.798 1239.93H968.263M894.286 1237.17H929.143M894.286 1237.17L892.802 1235.82L892.07 1235.16L891.706 1234.82L891.344 1234.5M894.286 1237.17H859.429M929.143 1237.17H964M929.143 1237.17L925.612 1234.5M1416.43 1430.11H1339.05M1416.43 1430.11L1390.85 1417.22M1416.43 1430.11H1439.61M1416.43 1430.11L1439.61 1441.8M1344.95 1394.08H1414.39M1344.95 1394.08L1324.28 1383.66M1344.95 1394.08H1275.51M1344.95 1394.08L1367.09 1405.24M1414.39 1394.08L1391.42 1383.66M1414.39 1394.08L1438.99 1405.24M1414.39 1394.08H1439.61M1324.28 1383.66H1391.42M1324.28 1383.66H1257.14M1324.28 1383.66L1304.93 1373.9M1391.42 1383.66L1369.92 1373.9M1391.42 1383.66H1439.61M1269.73 1356.15H1330.81M1269.73 1356.15L1253.67 1348.06M1269.73 1356.15H1208.65M1269.73 1356.15L1286.78 1364.75M1330.81 1356.15L1312.96 1348.06M1330.81 1356.15L1349.76 1364.75M1330.81 1356.15H1391.89M1253.67 1348.06H1312.96M1253.67 1348.06H1194.37M1253.67 1348.06L1238.52 1340.42M1312.96 1348.06L1296.13 1340.42M1312.96 1348.06H1372.26M1210.66 1326.38H1265.18M1210.66 1326.38L1197.83 1319.91M1210.66 1326.38H1156.15M1210.66 1326.38L1224.21 1333.2M1265.18 1326.38L1250.92 1319.91M1265.18 1326.38L1280.23 1333.2M1265.18 1326.38H1319.7M1197.83 1319.91H1250.92M1197.83 1319.91H1144.74M1197.83 1319.91L1185.65 1313.77M1250.92 1319.91L1237.39 1313.77M1250.92 1319.91H1304.02M1163.06 1302.38H1212.29M1163.06 1302.38L1152.57 1297.09M1163.06 1302.38H1113.83M1163.06 1302.38L1174.08 1307.93M1212.29 1302.38L1200.64 1297.09M1212.29 1302.38L1224.53 1307.93M1212.29 1302.38H1261.52M1152.57 1297.09H1200.64M1152.57 1297.09H1104.51M1152.57 1297.09L1142.57 1292.04M1200.64 1297.09L1189.52 1292.04M1200.64 1297.09H1248.7M1123.88 1282.62H1168.76M1123.88 1282.62L1115.14 1278.22M1123.88 1282.62H1079.01M1123.88 1282.62L1133.01 1287.23M1168.76 1282.62L1159.05 1278.22M1168.76 1282.62L1178.9 1287.23M1168.76 1282.62H1213.63M1115.14 1278.22H1159.05M1115.14 1278.22H1071.24M1115.14 1278.22L1106.78 1274M1159.05 1278.22L1149.75 1274M1159.05 1278.22H1202.95M1091.07 1266.08H1132.29M1091.07 1266.08L1083.68 1262.36M1091.07 1266.08H1049.84M1091.07 1266.08L1098.76 1269.96M1132.29 1266.08L1124.09 1262.36M1132.29 1266.08L1140.84 1269.96M1132.29 1266.08H1173.52M1083.68 1262.36H1124.09M1083.68 1262.36H1043.27M1083.68 1262.36L1076.58 1258.78M1124.09 1262.36L1116.2 1258.78M1124.09 1262.36H1164.5M1063.18 1252.02H1101.31M1063.18 1252.02L1056.85 1248.83M1063.18 1252.02H1025.05M1063.18 1252.02L1064.8 1252.84L1065.62 1253.25L1069.75 1255.33M1101.31 1252.02L1094.28 1248.83M1101.31 1252.02L1108.61 1255.33M1101.31 1252.02H1139.44M1056.85 1248.83H1094.28M1056.85 1248.83H1019.43M1056.85 1248.83L1050.75 1245.76M1094.28 1248.83L1087.51 1245.76M1094.28 1248.83H1131.71M1039.2 1239.93H1074.66M1039.2 1239.93L1033.71 1237.17M1039.2 1239.93H1003.73M1039.2 1239.93L1044.87 1242.79M1074.66 1239.93L1070.07 1237.85L1069.32 1237.51L1068.57 1237.17M1074.66 1239.93L1080.97 1242.79M1074.66 1239.93H1110.13M1033.71 1237.17H1068.57M1033.71 1237.17L1029.07 1234.82L1028.42 1234.5M1033.71 1237.17H998.857M1068.57 1237.17H1103.43M1068.57 1237.17L1062.69 1234.5M1428.74 1326.38L1410.2 1319.91M1428.74 1326.38H1374.22M1428.74 1326.38L1439.61 1330.17M1428.74 1326.38H1439.61M1410.2 1319.91H1357.11M1410.2 1319.91L1392.61 1313.77M1410.2 1319.91H1439.61M1359.98 1302.38H1409.21M1359.98 1302.38L1344.83 1297.09M1359.98 1302.38H1310.75M1359.98 1302.38L1375.89 1307.93M1409.21 1302.38L1392.89 1297.09M1409.21 1302.38L1426.34 1307.93M1409.21 1302.38H1439.61M1344.83 1297.09H1392.89M1344.83 1297.09H1296.76M1344.83 1297.09L1330.37 1292.04M1392.89 1297.09L1377.32 1292.04M1392.89 1297.09H1439.61M1303.38 1282.62H1348.26M1303.38 1282.62L1290.76 1278.22M1303.38 1282.62H1258.51M1303.38 1282.62L1316.57 1287.23M1348.26 1282.62L1334.67 1278.22M1348.26 1282.62L1362.46 1287.23M1348.26 1282.62H1393.13M1290.76 1278.22H1334.67M1290.76 1278.22H1246.86M1290.76 1278.22L1278.68 1274M1334.67 1278.22L1321.66 1274M1334.67 1278.22H1378.57M1255.98 1266.08H1297.21M1255.98 1266.08L1245.31 1262.36M1255.98 1266.08H1214.75M1255.98 1266.08L1267.1 1269.96M1297.21 1266.08L1285.72 1262.36M1297.21 1266.08L1309.18 1269.96M1297.21 1266.08H1338.44M1245.31 1262.36H1285.72M1245.31 1262.36H1204.9M1245.31 1262.36L1235.06 1258.78M1285.72 1262.36L1274.68 1258.78M1285.72 1262.36H1326.13M1215.71 1252.02H1253.84M1215.71 1252.02L1206.57 1248.83M1215.71 1252.02H1177.58M1215.71 1252.02L1225.2 1255.33M1253.84 1252.02L1243.99 1248.83M1253.84 1252.02L1264.06 1255.33M1253.84 1252.02H1291.97M1206.57 1248.83H1243.99M1206.57 1248.83H1169.14M1206.57 1248.83L1197.76 1245.76M1243.99 1248.83L1234.51 1245.76M1243.99 1248.83H1281.42M1181.06 1239.93H1216.53M1181.06 1239.93L1173.14 1237.17M1181.06 1239.93H1145.59M1181.06 1239.93L1189.26 1242.79M1216.53 1239.93L1208 1237.17M1216.53 1239.93L1225.36 1242.79M1216.53 1239.93H1251.99M1173.14 1237.17H1208M1173.14 1237.17L1165.49 1234.5M1173.14 1237.17H1138.29M1208 1237.17H1242.86M1208 1237.17L1199.76 1234.5M1420.9 1266.08L1406.95 1262.36M1420.9 1266.08H1379.67M1420.9 1266.08L1435.43 1269.96M1420.9 1266.08H1439.61M1406.95 1262.36H1366.54M1406.95 1262.36L1393.54 1258.78M1406.95 1262.36H1439.61M1368.23 1252.02H1406.36M1368.23 1252.02L1356.28 1248.83M1368.23 1252.02H1330.1M1368.23 1252.02L1380.64 1255.33M1406.36 1252.02L1393.71 1248.83M1406.36 1252.02L1419.5 1255.33M1406.36 1252.02H1439.61M1356.28 1248.83H1393.71M1356.28 1248.83H1318.85M1356.28 1248.83L1344.76 1245.76M1393.71 1248.83L1381.51 1245.76M1393.71 1248.83H1431.14M1322.93 1239.93H1358.39M1322.93 1239.93L1312.57 1237.17M1322.93 1239.93H1287.46M1322.93 1239.93L1333.65 1242.79M1358.39 1239.93L1347.43 1237.17M1358.39 1239.93L1369.74 1242.79M1358.39 1239.93H1393.86M1312.57 1237.17H1347.43M1312.57 1237.17L1302.57 1234.5M1312.57 1237.17H1277.71M1347.43 1237.17H1382.29M1347.43 1237.17L1336.84 1234.5M1369.74 1242.79L1381.51 1245.76M1369.74 1242.79H1405.84M1369.74 1242.79H1333.65M1393.86 1239.93L1382.29 1237.17M1393.86 1239.93L1405.84 1242.79M1393.86 1239.93H1429.32M1382.29 1237.17H1417.14M1382.29 1237.17L1371.1 1234.5M1336.84 1234.5H1302.57M1336.84 1234.5H1371.1M1336.84 1234.5L1326.6 1231.91M1405.84 1242.79L1418.26 1245.76M1405.84 1242.79H1439.61M1429.32 1239.93L1417.14 1237.17M1429.32 1239.93L1439.61 1242.26M1429.32 1239.93H1439.61M1417.14 1237.17L1405.37 1234.5M1417.14 1237.17H1439.61M1371.1 1234.5H1405.37M1371.1 1234.5L1360.29 1231.91M1405.37 1234.5L1393.99 1231.91M1405.37 1234.5H1439.61M1381.51 1245.76H1418.26M1381.51 1245.76H1344.76M1431.14 1248.83L1418.26 1245.76M1431.14 1248.83L1439.61 1250.86M1431.14 1248.83H1439.61M1418.26 1245.76H1439.61M1344.76 1245.76H1308.01M1344.76 1245.76L1333.65 1242.79M1333.65 1242.79H1297.55M1419.5 1255.33L1433.16 1258.78M1419.5 1255.33H1380.64M1419.5 1255.33H1439.61M1439.73 1252.02H1439.61M1433.16 1258.78H1393.54M1433.16 1258.78L1439.61 1260.4M1433.16 1258.78H1439.61M1393.54 1258.78H1353.92M1393.54 1258.78L1380.64 1255.33M1380.64 1255.33H1341.78M1225.36 1242.79L1234.51 1245.76M1225.36 1242.79H1261.45M1225.36 1242.79H1189.26M1251.99 1239.93L1242.86 1237.17M1251.99 1239.93L1261.45 1242.79M1251.99 1239.93H1287.46M1242.86 1237.17H1277.71M1242.86 1237.17L1234.03 1234.5M1199.76 1234.5H1234.03M1199.76 1234.5L1191.8 1231.91M1199.76 1234.5H1165.49M1261.45 1242.79L1271.26 1245.76M1261.45 1242.79H1297.55M1287.46 1239.93L1277.71 1237.17M1287.46 1239.93L1297.55 1242.79M1277.71 1237.17L1268.3 1234.5M1234.03 1234.5H1268.3M1234.03 1234.5L1225.5 1231.91M1297.55 1242.79L1308.01 1245.76M1302.57 1234.5H1268.3M1302.57 1234.5L1292.89 1231.91M1268.3 1234.5L1259.2 1231.91M1234.51 1245.76H1271.26M1234.51 1245.76H1197.76M1281.42 1248.83L1271.26 1245.76M1281.42 1248.83L1291.97 1252.02M1281.42 1248.83H1318.85M1271.26 1245.76H1308.01M1197.76 1245.76H1161.01M1197.76 1245.76L1189.26 1242.79M1308.01 1245.76L1318.85 1248.83M1189.26 1242.79H1153.16M1291.97 1252.02L1302.92 1255.33M1291.97 1252.02H1330.1M1318.85 1248.83L1330.1 1252.02M1330.1 1252.02L1341.78 1255.33M1264.06 1255.33L1274.68 1258.78M1264.06 1255.33H1302.92M1264.06 1255.33H1225.2M1302.92 1255.33L1314.3 1258.78M1302.92 1255.33H1341.78M1341.78 1255.33L1353.92 1258.78M1274.68 1258.78H1314.3M1274.68 1258.78H1235.06M1326.13 1262.36L1314.3 1258.78M1326.13 1262.36L1338.44 1266.08M1326.13 1262.36H1366.54M1314.3 1258.78H1353.92M1235.06 1258.78H1195.44M1235.06 1258.78L1225.2 1255.33M1353.92 1258.78L1366.54 1262.36M1225.2 1255.33H1186.34M1338.44 1266.08L1351.27 1269.96M1338.44 1266.08H1379.67M1366.54 1262.36L1379.67 1266.08M1379.67 1266.08L1393.35 1269.96M1309.18 1269.96L1321.66 1274M1309.18 1269.96H1351.27M1309.18 1269.96H1267.1M1351.27 1269.96L1364.63 1274M1351.27 1269.96H1393.35M1393.35 1269.96L1407.61 1274M1393.35 1269.96H1435.43M1435.43 1269.96H1439.61M1435.43 1269.96L1439.61 1271.07M1321.66 1274H1364.63M1321.66 1274H1278.68M1378.57 1278.22L1364.63 1274M1378.57 1278.22L1393.13 1282.62M1378.57 1278.22H1422.48M1364.63 1274H1407.61M1278.68 1274H1235.7M1278.68 1274L1267.1 1269.96M1407.61 1274L1422.48 1278.22M1407.61 1274H1439.61M1267.1 1269.96H1225.01M1393.13 1282.62L1408.35 1287.23M1393.13 1282.62H1438.01M1422.48 1278.22L1438.01 1282.62M1422.48 1278.22H1439.61M1439.84 1274H1439.61M1438.01 1282.62L1439.61 1283.08M1438.01 1282.62H1439.61M1362.46 1287.23L1377.32 1292.04M1362.46 1287.23H1408.35M1362.46 1287.23H1316.57M1408.35 1287.23L1424.28 1292.04M1408.35 1287.23H1439.61M1440 1283.19L1439.61 1283.08M1377.32 1292.04H1424.28M1377.32 1292.04H1330.37M1424.28 1292.04H1439.61M1424.28 1292.04L1439.61 1296.68M1330.37 1292.04H1283.42M1330.37 1292.04L1316.57 1287.23M1316.57 1287.23H1270.68M1426.34 1307.93H1375.89M1426.34 1307.93L1439.61 1312.23M1426.34 1307.93H1439.61M1439.98 1302.38H1439.61M1375.89 1307.93H1325.43M1375.89 1307.93L1392.61 1313.77M1439.76 1312.28L1439.61 1312.23M1080.97 1242.79L1087.51 1245.76M1080.97 1242.79H1117.07M1080.97 1242.79H1044.87M1110.13 1239.93L1103.43 1237.17M1110.13 1239.93L1117.07 1242.79M1110.13 1239.93H1145.59M1103.43 1237.17H1138.29M1103.43 1237.17L1096.96 1234.5M1062.69 1234.5H1096.96M1062.69 1234.5L1060.53 1233.52L1057 1231.91M1062.69 1234.5H1028.42M1117.07 1242.79L1124.26 1245.76M1117.07 1242.79H1153.16M1145.59 1239.93L1138.29 1237.17M1145.59 1239.93L1153.16 1242.79M1138.29 1237.17L1131.22 1234.5M1096.96 1234.5H1131.22M1096.96 1234.5L1090.7 1231.91M1153.16 1242.79L1161.01 1245.76M1165.49 1234.5L1158.1 1231.91M1165.49 1234.5H1131.22M1131.22 1234.5L1130.36 1234.17L1128.64 1233.52L1124.4 1231.91M1087.51 1245.76H1124.26M1087.51 1245.76H1050.75M1131.71 1248.83L1124.26 1245.76M1131.71 1248.83L1139.44 1252.02M1131.71 1248.83H1169.14M1124.26 1245.76H1161.01M1050.75 1245.76H1014M1050.75 1245.76L1044.87 1242.79M1161.01 1245.76L1169.14 1248.83M1044.87 1242.79H1008.78M1139.44 1252.02L1147.48 1255.33M1139.44 1252.02H1177.58M1169.14 1248.83L1170.18 1249.22L1177.58 1252.02M1177.58 1252.02L1186.34 1255.33M1108.61 1255.33L1109.55 1255.76L1116.2 1258.78M1108.61 1255.33H1147.48M1108.61 1255.33H1069.75M1147.48 1255.33L1155.82 1258.78M1147.48 1255.33H1186.34M1186.34 1255.33L1195.44 1258.78M1116.2 1258.78H1155.82M1116.2 1258.78H1076.58M1164.5 1262.36L1155.82 1258.78M1164.5 1262.36L1173.52 1266.08M1164.5 1262.36H1204.9M1155.82 1258.78H1195.44M1076.58 1258.78H1036.96M1076.58 1258.78L1069.75 1255.33M1195.44 1258.78L1204.9 1262.36M1069.75 1255.33H1030.89M1173.52 1266.08L1182.93 1269.96M1173.52 1266.08H1214.75M1204.9 1262.36L1214.75 1266.08M1214.75 1266.08L1225.01 1269.96M1140.84 1269.96L1149.75 1274M1140.84 1269.96H1182.93M1140.84 1269.96H1098.76M1182.93 1269.96L1192.73 1274M1182.93 1269.96H1225.01M1225.01 1269.96L1235.7 1274M1149.75 1274H1192.73M1149.75 1274H1106.78M1202.95 1278.22L1192.73 1274M1202.95 1278.22L1213.63 1282.62M1202.95 1278.22H1246.86M1192.73 1274H1235.7M1106.78 1274H1063.8M1106.78 1274L1098.76 1269.96M1235.7 1274L1246.86 1278.22M1098.76 1269.96H1056.67M1213.63 1282.62L1224.79 1287.23M1213.63 1282.62H1258.51M1246.86 1278.22L1258.51 1282.62M1258.51 1282.62L1270.68 1287.23M1178.9 1287.23L1189.52 1292.04M1178.9 1287.23H1224.79M1178.9 1287.23H1133.01M1224.79 1287.23L1236.47 1292.04M1224.79 1287.23H1270.68M1270.68 1287.23L1283.42 1292.04M1189.52 1292.04H1236.47M1189.52 1292.04H1142.57M1248.7 1297.09L1236.47 1292.04M1248.7 1297.09L1261.52 1302.38M1248.7 1297.09H1296.76M1236.47 1292.04H1283.42M1142.57 1292.04H1095.61M1142.57 1292.04L1133.01 1287.23M1283.42 1292.04L1296.76 1297.09M1133.01 1287.23H1087.12M1261.52 1302.38L1274.98 1307.93M1261.52 1302.38H1310.75M1296.76 1297.09L1310.75 1302.38M1310.75 1302.38L1325.43 1307.93M1224.53 1307.93L1237.39 1313.77M1224.53 1307.93H1274.98M1224.53 1307.93H1174.08M1274.98 1307.93L1289.13 1313.77M1274.98 1307.93H1325.43M1325.43 1307.93L1340.87 1313.77M1237.39 1313.77H1289.13M1237.39 1313.77H1185.65M1304.02 1319.91L1289.13 1313.77M1304.02 1319.91L1319.7 1326.38M1304.02 1319.91H1357.11M1289.13 1313.77H1340.87M1185.65 1313.77H1133.91M1185.65 1313.77L1174.08 1307.93M1340.87 1313.77L1357.11 1319.91M1340.87 1313.77H1392.61M1174.08 1307.93H1123.62M1319.7 1326.38L1336.25 1333.2M1319.7 1326.38H1374.22M1357.11 1319.91L1374.22 1326.38M1392.61 1313.77H1439.61M1374.22 1326.38L1392.28 1333.2M1280.23 1333.2L1296.13 1340.42M1280.23 1333.2H1336.25M1280.23 1333.2H1224.21M1336.25 1333.2L1353.75 1340.42M1336.25 1333.2H1392.28M1392.28 1333.2L1411.36 1340.42M1392.28 1333.2H1439.61M1296.13 1340.42H1353.75M1296.13 1340.42H1238.52M1372.26 1348.06L1353.75 1340.42M1372.26 1348.06L1391.89 1356.15M1372.26 1348.06H1431.56M1353.75 1340.42H1411.36M1238.52 1340.42H1180.91M1238.52 1340.42L1224.21 1333.2M1411.36 1340.42L1431.56 1348.06M1411.36 1340.42H1439.61M1224.21 1333.2H1168.18M1391.89 1356.15L1412.73 1364.75M1391.89 1356.15H1439.61M1431.56 1348.06H1439.61M1431.56 1348.06L1439.61 1351.1M1349.76 1364.75L1369.92 1373.9M1349.76 1364.75H1412.73M1349.76 1364.75H1286.78M1412.73 1364.75L1434.91 1373.9M1412.73 1364.75H1439.61M1369.92 1373.9H1434.91M1369.92 1373.9H1304.93M1434.91 1373.9L1439.61 1375.84M1434.91 1373.9H1439.61M1304.93 1373.9H1239.94M1304.93 1373.9L1286.78 1364.75M1286.78 1364.75H1223.81M1438.99 1405.24H1367.09M1438.99 1405.24H1439.61M1438.99 1405.24L1439.61 1405.52M1367.09 1405.24H1295.19M1367.09 1405.24L1390.85 1417.22M936.582 1242.79L938.036 1243.89L938.525 1244.26L940.503 1245.76M936.582 1242.79H972.679M936.582 1242.79H900.485M968.263 1239.93L965.052 1237.85L964 1237.17M968.263 1239.93L972.119 1242.43L972.679 1242.79M968.263 1239.93H1003.73M964 1237.17H998.857M964 1237.17L959.881 1234.5M925.612 1234.5H959.881M925.612 1234.5L924.318 1233.52L922.198 1231.91M925.612 1234.5H891.344M972.679 1242.79L973.807 1243.52L977.254 1245.76M972.679 1242.79H1008.78M1003.73 1239.93L998.857 1237.17M1003.73 1239.93L1008.78 1242.79M998.857 1237.17L995.311 1235.16L994.149 1234.5M959.881 1234.5H994.149M959.881 1234.5L955.898 1231.91M1008.78 1242.79L1014 1245.76M1028.42 1234.5L1027.77 1234.17L1023.3 1231.91M1028.42 1234.5H994.149M994.149 1234.5L992.424 1233.52L989.598 1231.91M940.503 1245.76H977.254M940.503 1245.76H903.752M981.997 1248.83L977.254 1245.76M981.997 1248.83L986.919 1252.02M981.997 1248.83H1019.43M977.254 1245.76H1014M903.752 1245.76H867.002M903.752 1245.76L900.485 1242.79M1014 1245.76L1019.43 1248.83M900.485 1242.79H864.388M986.919 1252.02L990.09 1254.08L990.734 1254.49L992.029 1255.33M986.919 1252.02H1025.05M1019.43 1248.83L1025.05 1252.02M1025.05 1252.02L1030.89 1255.33M953.168 1255.33L957.72 1258.78M953.168 1255.33H992.029M953.168 1255.33H914.307M992.029 1255.33L997.339 1258.78M992.029 1255.33H1030.89M1030.89 1255.33L1036.96 1258.78M957.72 1258.78H997.339M957.72 1258.78H918.1M1002.86 1262.36L999.384 1260.1L998.7 1259.66L997.339 1258.78M1002.86 1262.36L1008.61 1266.08M1002.86 1262.36H1043.27M997.339 1258.78H1036.96M918.1 1258.78H878.48M918.1 1258.78L914.307 1255.33M1036.96 1258.78L1043.27 1262.36M914.307 1255.33H875.445M1008.61 1266.08L1014.59 1269.96M1008.61 1266.08H1049.84M1043.27 1262.36L1049.84 1266.08M1049.84 1266.08L1056.67 1269.96M972.506 1269.96L975.151 1271.96L975.821 1272.47L977.852 1274M972.506 1269.96H1014.59M972.506 1269.96H930.421M1014.59 1269.96L1020.83 1274M1014.59 1269.96H1056.67M1056.67 1269.96L1063.8 1274M977.852 1274H1020.83M977.852 1274H934.877M1027.33 1278.22L1020.83 1274M1027.33 1278.22L1034.13 1282.62M1027.33 1278.22H1071.24M1020.83 1274H1063.8M934.877 1274H891.901M934.877 1274L933.745 1272.98L930.421 1269.96M1063.8 1274L1071.24 1278.22M930.421 1269.96H888.338M1034.13 1282.62L1041.23 1287.23M1034.13 1282.62H1079.01M1071.24 1278.22L1079.01 1282.62M1079.01 1282.62L1087.12 1287.23M995.341 1287.23L1001.71 1292.04M995.341 1287.23H1041.23M995.341 1287.23H949.451M1041.23 1287.23L1048.66 1292.04M1041.23 1287.23H1087.12M1087.12 1287.23L1095.61 1292.04M1001.71 1292.04H1048.66M1001.71 1292.04H954.759M1056.44 1297.09L1048.66 1292.04M1056.44 1297.09L1064.6 1302.38M1056.44 1297.09H1104.51M1048.66 1292.04H1095.61M954.759 1292.04H907.807M954.759 1292.04L949.451 1287.23M1095.61 1292.04L1104.51 1297.09M949.451 1287.23H903.561M1064.6 1302.38L1073.17 1307.93M1064.6 1302.38H1113.83M1104.51 1297.09L1113.83 1302.38M1113.83 1302.38L1123.62 1307.93M1022.72 1307.93L1030.43 1313.77M1022.72 1307.93H1073.17M1022.72 1307.93H972.265M1073.17 1307.93L1082.17 1313.77M1073.17 1307.93H1123.62M1123.62 1307.93L1133.91 1313.77M1030.43 1313.77H1082.17M1030.43 1313.77H978.695M1091.65 1319.91L1082.17 1313.77M1091.65 1319.91L1101.63 1326.38M1091.65 1319.91H1144.74M1082.17 1313.77H1133.91M978.695 1313.77H926.956M978.695 1313.77L972.265 1307.93M1133.91 1313.77L1144.74 1319.91M972.265 1307.93H921.812M1101.63 1326.38L1112.16 1333.2M1101.63 1326.38H1156.15M1144.74 1319.91L1156.15 1326.38M1156.15 1326.38L1168.18 1333.2M1056.14 1333.2L1065.68 1340.42M1056.14 1333.2H1112.16M1056.14 1333.2H1000.12M1112.16 1333.2L1123.29 1340.42M1112.16 1333.2H1168.18M1168.18 1333.2L1180.91 1340.42M1065.68 1340.42H1123.29M1065.68 1340.42H1008.07M1135.07 1348.06L1123.29 1340.42M1135.07 1348.06L1147.57 1356.15M1135.07 1348.06H1194.37M1123.29 1340.42H1180.91M1008.07 1340.42H950.453M1008.07 1340.42L1000.12 1333.2M1180.91 1340.42L1194.37 1348.06M1000.12 1333.2H944.093M1147.57 1356.15L1160.83 1364.75M1147.57 1356.15H1208.65M1194.37 1348.06L1208.65 1356.15M1208.65 1356.15L1223.81 1364.75M1097.86 1364.75L1109.95 1373.9M1097.86 1364.75H1160.83M1097.86 1364.75H1034.88M1160.83 1364.75L1174.95 1373.9M1160.83 1364.75H1223.81M1223.81 1364.75L1239.94 1373.9M1109.95 1373.9H1174.95M1109.95 1373.9H1044.96M1189.99 1383.66L1174.95 1373.9M1189.99 1383.66L1206.07 1394.08M1189.99 1383.66H1257.14M1174.95 1373.9H1239.94M1044.96 1373.9H979.969M1044.96 1373.9L1034.88 1364.75M1239.94 1373.9L1257.14 1383.66M1034.88 1364.75H971.903M1206.07 1394.08L1223.29 1405.24M1206.07 1394.08H1275.51M1257.14 1383.66L1275.51 1394.08M1275.51 1394.08L1295.19 1405.24M1151.39 1405.24L1167.23 1417.22M1151.39 1405.24H1223.29M1151.39 1405.24H1079.49M1223.29 1405.24L1241.77 1417.22M1223.29 1405.24H1295.19M1295.19 1405.24L1316.31 1417.22M1167.23 1417.22H1241.77M1167.23 1417.22H1092.7M1261.67 1430.11L1241.77 1417.22M1261.67 1430.11L1283.13 1444.03M1261.67 1430.11H1339.05M1241.77 1417.22H1316.31M1092.7 1417.22H1018.16M1092.7 1417.22L1079.49 1405.24M1316.31 1417.22L1339.05 1430.11M1316.31 1417.22H1390.85M1079.49 1405.24H1007.6M1283.13 1444.03L1306.37 1459.09M1283.13 1444.03H1363.58M1339.05 1430.11L1363.58 1444.03M1390.85 1417.22H1439.61M1363.58 1444.03L1390.14 1459.09M1363.58 1444.03H1439.61M1222.61 1459.09L1244.24 1475.45M1222.61 1459.09H1306.37M1222.61 1459.09H1138.84M1306.37 1459.09L1331.62 1475.45M1306.37 1459.09H1390.14M1390.14 1459.09L1418.99 1475.45M1390.14 1459.09H1439.61M1244.24 1475.45H1331.62M1244.24 1475.45H1156.87M1359.13 1493.29L1331.62 1475.45M1359.13 1493.29L1389.23 1512.8M1359.13 1493.29H1439.61M1331.62 1475.45H1418.99M1156.87 1475.45H1069.49M1156.87 1475.45L1138.84 1459.09M1418.99 1475.45H1439.61M1418.99 1475.45L1439.61 1487.15M1138.84 1459.09H1055.07M1389.23 1512.8L1422.31 1534.24M1389.23 1512.8H1439.61M1321.98 1534.24L1353.28 1557.92M1321.98 1534.24H1422.31M1321.98 1534.24H1221.65M1422.31 1534.24L1439.61 1545.46M1422.31 1534.24H1439.61M1353.28 1557.92H1247.74M1353.28 1557.92L1439.61 1557.92M1247.74 1557.92H1142.19M1247.74 1557.92L1221.65 1534.24M1221.65 1534.24H1121.32M792.194 1242.79L792.355 1243.16L792.516 1243.52L792.679 1243.89L792.841 1244.26L793.335 1245.38L793.501 1245.76M792.194 1242.79H828.291M792.194 1242.79H756.097M826.398 1239.93L825.022 1237.85L824.572 1237.17M826.398 1239.93L827.574 1241.71L828.291 1242.79M826.398 1239.93H861.865M824.572 1237.17H859.429M824.572 1237.17L823.242 1235.16L822.806 1234.5M788.537 1234.5L788.393 1234.17L787.822 1232.87L787.399 1231.91M788.537 1234.5H822.806M788.537 1234.5H754.269M828.291 1242.79L828.532 1243.16L828.775 1243.52L829.018 1243.89L829.263 1244.26L830.251 1245.76M828.291 1242.79H864.388M861.865 1239.93L860.03 1237.85L859.429 1237.17M861.865 1239.93L864.388 1242.79M859.429 1237.17L858.241 1235.82L857.364 1234.82L857.075 1234.5M822.806 1234.5L822.59 1234.17L822.16 1233.52L821.732 1232.87L821.521 1232.55L821.099 1231.91M822.806 1234.5H857.075M864.388 1242.79L866.34 1245.01L867.002 1245.76M891.344 1234.5L889.201 1232.55L888.499 1231.91M891.344 1234.5H857.075M857.075 1234.5L855.08 1232.23L854.798 1231.91M793.501 1245.76H830.251M793.501 1245.76H756.75M832.284 1248.83L830.251 1245.76M832.284 1248.83L834.394 1252.02M832.284 1248.83H869.712M830.251 1245.76H867.002M756.75 1245.76H720M756.75 1245.76L756.097 1242.79M867.002 1245.76L869.712 1248.83M756.097 1242.79H720M834.394 1252.02L834.934 1252.84L835.753 1254.08L836.584 1255.33M834.394 1252.02H872.526M869.712 1248.83L870.059 1249.22L872.526 1252.02M872.526 1252.02L872.884 1252.43L873.245 1252.84L873.607 1253.25L875.445 1255.33M797.723 1255.33L799.24 1258.78M797.723 1255.33H836.584M797.723 1255.33H758.861M836.584 1255.33L838.86 1258.78M836.584 1255.33H875.445M875.445 1255.33L877.71 1257.9L878.094 1258.34L878.48 1258.78M799.24 1258.78H838.86M799.24 1258.78H759.62M841.226 1262.36L841.528 1262.81L841.833 1263.27L842.138 1263.73L843.689 1266.08M841.226 1262.36L840.031 1260.55L839.736 1260.1L839.443 1259.66L838.86 1258.78M841.226 1262.36H881.635M838.86 1258.78H878.48M759.62 1258.78H720M759.62 1258.78L758.861 1255.33M878.48 1258.78L881.635 1262.36M758.861 1255.33H720M843.689 1266.08L845.927 1269.47L846.253 1269.96M843.689 1266.08H884.918M881.635 1262.36L882.444 1263.27L884.918 1266.08M884.918 1266.08L886.184 1267.52L888.338 1269.96M804.168 1269.96L805.051 1271.96L805.273 1272.47L805.951 1274M804.168 1269.96H846.253M804.168 1269.96H762.085M846.253 1269.96L848.926 1274M846.253 1269.96H888.338M888.338 1269.96L891.901 1274M805.951 1274H848.926M805.951 1274H762.975M851.715 1278.22L848.926 1274M851.715 1278.22L854.627 1282.62M851.715 1278.22H895.62M848.926 1274H891.901M762.975 1274H720M762.975 1274L762.749 1272.98L762.304 1270.95L762.085 1269.96M891.901 1274L895.62 1278.22M762.085 1269.96H720M854.627 1282.62L856.897 1286.06L857.671 1287.23M854.627 1282.62H899.503M895.62 1278.22L899.503 1282.62M899.503 1282.62L901.509 1284.9L903.561 1287.23M811.781 1287.23L813.903 1292.04M811.781 1287.23H857.671M811.781 1287.23H765.89M857.671 1287.23L860.855 1292.04M857.671 1287.23H903.561M903.561 1287.23L907.807 1292.04M813.903 1292.04H860.855M813.903 1292.04H766.952M864.191 1297.09L863.342 1295.81L860.855 1292.04M864.191 1297.09L867.688 1302.38M864.191 1297.09H912.254M860.855 1292.04H907.807M766.952 1292.04H720M766.952 1292.04L765.89 1287.23M907.807 1292.04L912.254 1297.09M765.89 1287.23H720M867.688 1302.38L871.359 1307.93M867.688 1302.38H916.917M912.254 1297.09L916.917 1302.38M916.917 1302.38L921.812 1307.93M820.906 1307.93L823.478 1313.77M820.906 1307.93H871.359M820.906 1307.93H770.453M871.359 1307.93L875.217 1313.77M871.359 1307.93H921.812M921.812 1307.93L926.956 1313.77M823.478 1313.77H875.217M823.478 1313.77H771.739M879.277 1319.91L875.217 1313.77M879.277 1319.91L883.555 1326.38M879.277 1319.91H932.369M875.217 1313.77H926.956M771.739 1313.77H720M771.739 1313.77L770.61 1308.64L770.453 1307.93M926.956 1313.77L932.369 1319.91M770.453 1307.93H720M883.555 1326.38L888.069 1333.2M883.555 1326.38H938.073M932.369 1319.91L936.618 1324.73L938.073 1326.38M938.073 1326.38L944.093 1333.2M832.046 1333.2L835.227 1340.42M832.046 1333.2H888.069M832.046 1333.2H776.023M888.069 1333.2L892.84 1340.42M888.069 1333.2H944.093M944.093 1333.2L950.453 1340.42M835.227 1340.42H892.84M835.227 1340.42H777.613M897.889 1348.06L892.84 1340.42M897.889 1348.06L903.242 1356.15M897.889 1348.06H957.185M892.84 1340.42H950.453M777.613 1340.42H720M777.613 1340.42L776.023 1333.2M950.453 1340.42L957.185 1348.06M776.023 1333.2H720M903.242 1356.15L908.927 1364.75M903.242 1356.15H964.323M957.185 1348.06L964.323 1356.15M964.323 1356.15L971.903 1364.75M845.952 1364.75L849.985 1373.9M845.952 1364.75H908.927M845.952 1364.75H782.976M908.927 1364.75L914.977 1373.9M908.927 1364.75H971.903M971.903 1364.75L979.969 1373.9M849.985 1373.9H914.977M849.985 1373.9H784.992M921.426 1383.66L914.977 1373.9M921.426 1383.66L928.317 1394.08M921.426 1383.66H988.568M914.977 1373.9H979.969M784.992 1373.9H720M784.992 1373.9L782.976 1364.75M979.969 1373.9L988.568 1383.66M782.976 1364.75H720M928.317 1394.08L935.696 1405.24M928.317 1394.08H997.756M988.568 1383.66L997.756 1394.08M997.756 1394.08L1007.6 1405.24M863.797 1405.24L869.078 1417.22M863.797 1405.24H935.696M863.797 1405.24H791.899M935.696 1405.24L943.617 1417.22M935.696 1405.24H1007.6M1007.6 1405.24L1018.16 1417.22M869.078 1417.22H943.617M869.078 1417.22H794.539M952.142 1430.11L943.617 1417.22M952.142 1430.11L961.343 1444.03M952.142 1430.11H1029.52M943.617 1417.22H1018.16M794.539 1417.22H720M794.539 1417.22L791.899 1405.24M1018.16 1417.22L1029.52 1430.11M791.899 1405.24H720M961.343 1444.03L971.304 1459.09M961.343 1444.03H1041.79M1029.52 1430.11L1041.79 1444.03M1041.79 1444.03L1055.07 1459.09M887.536 1459.09L894.747 1475.45M887.536 1459.09H971.304M887.536 1459.09H803.768M971.304 1459.09L982.121 1475.45M971.304 1459.09H1055.07M1055.07 1459.09L1069.49 1475.45M894.747 1475.45H982.121M894.747 1475.45H807.374M993.912 1493.29L982.121 1475.45M993.912 1493.29L1006.81 1512.8M993.912 1493.29H1085.22M982.121 1475.45H1069.49M807.374 1475.45H720M807.374 1475.45L803.768 1459.09M1069.49 1475.45L1085.22 1493.29M803.768 1459.09H720M1006.81 1512.8L1020.99 1534.24M1006.81 1512.8H1102.42M1085.22 1493.29L1102.42 1512.8M1102.42 1512.8L1121.32 1534.24M920.66 1534.24L931.095 1557.92M920.66 1534.24H1020.99M920.66 1534.24H820.33M1020.99 1534.24L1036.64 1557.92M1020.99 1534.24H1121.32M1121.32 1534.24L1142.19 1557.92M1036.64 1557.92H931.095M1036.64 1557.92H1142.19M931.095 1557.92H825.548M825.548 1557.92H720M825.548 1557.92L820.33 1534.24M820.33 1534.24H720M647.806 1242.79L647.645 1243.16L647.484 1243.52L647.321 1243.89L647.159 1244.26L646.83 1245.01L646.665 1245.38L646.499 1245.76M647.806 1242.79H683.903M647.806 1242.79H611.709M684.534 1239.93L685.143 1237.17M684.534 1239.93L683.903 1242.79M684.534 1239.93H720M685.143 1237.17L685.217 1236.83L685.292 1236.49L685.366 1236.15L685.732 1234.5M685.143 1237.17H720M651.463 1234.5L651.607 1234.17L652.178 1232.87L652.601 1231.91M651.463 1234.5H685.732M651.463 1234.5H617.194M683.903 1242.79L683.822 1243.16L683.742 1243.52L683.66 1243.89L683.25 1245.76M683.903 1242.79H720M720 1239.93V1237.17M720 1239.93V1242.79M720 1237.17V1234.5M685.732 1234.5H720M685.732 1234.5L685.947 1233.52L686.019 1233.19L686.3 1231.91M720 1242.79V1245.76M754.269 1234.5L754.054 1233.52L753.982 1233.19L753.911 1232.87L753.84 1232.55L753.77 1232.23L753.7 1231.91M754.269 1234.5H720M720 1234.5V1231.91M646.499 1245.76H683.25M646.499 1245.76H609.749M682.572 1248.83L682.485 1249.22L682.399 1249.62L681.869 1252.02M682.572 1248.83L683.25 1245.76M682.572 1248.83H720M683.25 1245.76H720M609.749 1245.76H572.998M609.749 1245.76L610.245 1245.01L610.492 1244.63L610.737 1244.26L610.983 1243.89L611.225 1243.52L611.468 1243.16L611.709 1242.79M720 1245.76V1248.83M611.709 1242.79H575.612M681.869 1252.02L681.139 1255.33M681.869 1252.02H720M720 1248.83V1252.02M720 1252.02V1255.33M642.277 1255.33L640.76 1258.78M642.277 1255.33H681.139M642.277 1255.33H603.416M681.139 1255.33L680.38 1258.78M681.139 1255.33H720M720 1255.33V1258.78M640.76 1258.78H680.38M640.76 1258.78H601.14M679.592 1262.36L680.38 1258.78M679.592 1262.36L678.771 1266.08M679.592 1262.36H720M680.38 1258.78H720M601.14 1258.78H561.52M601.14 1258.78L603.416 1255.33M720 1258.78V1262.36M603.416 1255.33H564.555M678.771 1266.08L678.454 1267.52L678.133 1268.97L677.915 1269.96M678.771 1266.08H720M720 1262.36V1266.08M720 1266.08V1269.96M635.832 1269.96L634.949 1271.96L634.727 1272.47L634.049 1274M635.832 1269.96H677.915M635.832 1269.96H593.747M677.915 1269.96L677.697 1270.95L677.251 1272.98L677.025 1274M677.915 1269.96H720M720 1269.96V1274M634.049 1274H677.025M634.049 1274H591.074M676.095 1278.22L676.213 1277.68L677.025 1274M676.095 1278.22L675.125 1282.62M676.095 1278.22H720M677.025 1274H720M591.074 1274H548.099M591.074 1274L593.747 1269.96M720 1274V1278.22M593.747 1269.96H551.662M675.125 1282.62L674.11 1287.23M675.125 1282.62H720M720 1278.22V1282.62M720 1282.62V1287.23M628.219 1287.23L626.097 1292.04M628.219 1287.23H674.11M628.219 1287.23H582.329M674.11 1287.23L673.048 1292.04M674.11 1287.23H720M720 1287.23V1292.04M626.097 1292.04H673.048M626.097 1292.04H579.145M671.937 1297.09L673.048 1292.04M671.937 1297.09L670.771 1302.38M671.937 1297.09H720M673.048 1292.04H720M579.145 1292.04H532.193M579.145 1292.04L582.329 1287.23M720 1292.04V1297.09M582.329 1287.23H536.439M670.771 1302.38L669.547 1307.93M670.771 1302.38H720M720 1297.09V1302.38M720 1302.38V1307.93M619.094 1307.93L616.522 1313.77M619.094 1307.93H669.547M619.094 1307.93H568.642M669.547 1307.93L668.261 1313.77M669.547 1307.93H720M720 1307.93V1313.77M616.522 1313.77H668.261M616.522 1313.77H564.783M666.908 1319.91L668.261 1313.77M666.908 1319.91L665.482 1326.38M666.908 1319.91H720M668.261 1313.77H720M564.783 1313.77H513.044M564.783 1313.77L568.642 1307.93M720 1313.77V1319.91M568.642 1307.93H518.188M665.482 1326.38L663.977 1333.2M665.482 1326.38H720M720 1319.91V1326.38M720 1326.38V1333.2M607.954 1333.2L604.774 1340.42M607.954 1333.2H663.977M607.954 1333.2H551.931M663.977 1333.2L662.387 1340.42M663.977 1333.2H720M720 1333.2V1340.42M604.774 1340.42H662.387M604.774 1340.42H547.16M660.704 1348.06L662.387 1340.42M660.704 1348.06L658.919 1356.15M660.704 1348.06H720M662.387 1340.42H720M547.16 1340.42H489.547M547.16 1340.42L551.931 1333.2M720 1340.42V1348.06M551.931 1333.2H495.908M658.919 1356.15L657.024 1364.75M658.919 1356.15H720M720 1348.06V1356.15M720 1356.15V1364.75M594.048 1364.75L590.016 1373.9M594.048 1364.75H657.024M594.048 1364.75H531.073M657.024 1364.75L655.008 1373.9M657.024 1364.75H720M720 1364.75V1373.9M590.016 1373.9H655.008M590.016 1373.9H525.023M652.858 1383.66L655.008 1373.9M652.858 1383.66L650.561 1394.08M652.858 1383.66H720M655.008 1373.9H720M525.023 1373.9H460.031M525.023 1373.9L531.073 1364.75M720 1373.9V1383.66M531.073 1364.75H468.097M650.561 1394.08L648.101 1405.24M650.561 1394.08H720M720 1383.66V1394.08M720 1394.08V1405.24M576.203 1405.24L570.922 1417.22M576.203 1405.24H648.101M576.203 1405.24H504.304M648.101 1405.24L645.461 1417.22M648.101 1405.24H720M720 1405.24V1417.22M570.922 1417.22H645.461M570.922 1417.22H496.383M642.619 1430.11L645.461 1417.22M642.619 1430.11L639.553 1444.03M642.619 1430.11H720M645.461 1417.22H720M496.383 1417.22H421.844M496.383 1417.22L504.304 1405.24M720 1417.22V1430.11M504.304 1405.24H432.405M639.553 1444.03L636.232 1459.09M639.553 1444.03H720M720 1430.11V1444.03M720 1444.03V1459.09M552.465 1459.09L545.253 1475.45M552.465 1459.09H636.232M552.465 1459.09H468.696M636.232 1459.09L632.626 1475.45M636.232 1459.09H720M720 1459.09V1475.45M545.253 1475.45H632.626M545.253 1475.45H457.879M628.696 1493.29L632.626 1475.45M628.696 1493.29L624.396 1512.8M628.696 1493.29H720M632.626 1475.45H720M457.879 1475.45H370.505M457.879 1475.45L468.696 1459.09M720 1475.45V1493.29M468.696 1459.09H384.929M624.396 1512.8L619.67 1534.24M624.396 1512.8H720M720 1493.29V1512.8M720 1512.8V1534.24M519.34 1534.24L508.905 1557.92M519.34 1534.24H619.67M519.34 1534.24H419.009M619.67 1534.24L614.452 1557.92M619.67 1534.24H720M720 1534.24V1557.92M614.452 1557.92H508.905M614.452 1557.92H720M508.905 1557.92H403.358M403.358 1557.92H297.81M403.358 1557.92L419.009 1534.24M419.009 1534.24H318.679M503.418 1242.79L501.475 1244.26L499.497 1245.76M503.418 1242.79H539.515M503.418 1242.79H467.322M542.669 1239.93L545.714 1237.17M542.669 1239.93L539.515 1242.79M542.669 1239.93H578.135M545.714 1237.17H580.571M545.714 1237.17L547.93 1235.16L548.657 1234.5M514.388 1234.5H548.657M514.388 1234.5L515.682 1233.52L517.802 1231.91M514.388 1234.5H480.119M539.515 1242.79L536.248 1245.76M539.515 1242.79H575.612M578.135 1239.93L580.571 1237.17M578.135 1239.93L575.612 1242.79M580.571 1237.17L581.759 1235.82L582.636 1234.82L582.925 1234.5M548.657 1234.5H582.925M548.657 1234.5L550.799 1232.55L551.501 1231.91M575.612 1242.79L573.66 1245.01L572.998 1245.76M617.194 1234.5L617.41 1234.17L617.841 1233.52L618.479 1232.55L618.901 1231.91M617.194 1234.5H582.925M582.925 1234.5L583.214 1234.17L583.788 1233.52L585.201 1231.91M499.497 1245.76H536.248M499.497 1245.76H462.746M532.859 1248.83L533.29 1248.44L533.718 1248.05L535.412 1246.52L536.248 1245.76M532.859 1248.83L530.234 1251.21L529.343 1252.02M532.859 1248.83H570.288M536.248 1245.76H572.998M462.746 1245.76H425.996M462.746 1245.76L466.193 1243.52L467.322 1242.79M572.998 1245.76L570.288 1248.83M467.322 1242.79H431.224M529.343 1252.02L528.895 1252.43L528.444 1252.84L527.079 1254.08L526.618 1254.49L525.693 1255.33M529.343 1252.02H567.474M570.288 1248.83L569.941 1249.22L567.474 1252.02M567.474 1252.02L567.116 1252.43L566.755 1252.84L566.393 1253.25L564.555 1255.33M486.832 1255.33L482.281 1258.78M486.832 1255.33H525.693M486.832 1255.33H447.971M525.693 1255.33L521.9 1258.78M525.693 1255.33H564.555M564.555 1255.33L561.52 1258.78M482.281 1258.78H521.9M482.281 1258.78H442.661M517.957 1262.36L521.9 1258.78M517.957 1262.36L513.853 1266.08M517.957 1262.36H558.365M521.9 1258.78H561.52M442.661 1258.78H403.041M442.661 1258.78L447.971 1255.33M561.52 1258.78L558.365 1262.36M447.971 1255.33H409.109M513.853 1266.08L509.579 1269.96M513.853 1266.08H555.082M558.365 1262.36L557.557 1263.27L555.082 1266.08M555.082 1266.08L553.816 1267.52L552.53 1268.97L551.662 1269.96M467.494 1269.96L464.849 1271.96L462.148 1274M467.494 1269.96H509.579M467.494 1269.96H425.409M509.579 1269.96L505.123 1274M509.579 1269.96H551.662M551.662 1269.96L548.099 1274M462.148 1274H505.123M462.148 1274H419.173M500.476 1278.22L505.123 1274M500.476 1278.22L495.622 1282.62M500.476 1278.22H544.38M505.123 1274H548.099M419.173 1274H376.197M419.173 1274L425.409 1269.96M548.099 1274L544.38 1278.22M425.409 1269.96H383.326M495.622 1282.62L494.375 1283.76L490.549 1287.23M495.622 1282.62H540.497M544.38 1278.22L540.497 1282.62M540.497 1282.62L540 1283.19L538.491 1284.9L536.439 1287.23M444.659 1287.23L438.29 1292.04M444.659 1287.23H490.549M444.659 1287.23H398.769M490.549 1287.23L485.241 1292.04M490.549 1287.23H536.439M536.439 1287.23L532.193 1292.04M438.29 1292.04H485.241M438.29 1292.04H391.338M479.682 1297.09L483.188 1293.91L485.241 1292.04M479.682 1297.09L473.854 1302.38M479.682 1297.09H527.746M485.241 1292.04H532.193M391.338 1292.04H344.386M391.338 1292.04L398.769 1287.23M532.193 1292.04L527.746 1297.09M398.769 1287.23H352.878M473.854 1302.38L467.735 1307.93M473.854 1302.38H523.083M527.746 1297.09L523.083 1302.38M523.083 1302.38L518.188 1307.93M417.282 1307.93L409.566 1313.77M417.282 1307.93H467.735M417.282 1307.93H366.83M467.735 1307.93L461.305 1313.77M467.735 1307.93H518.188M518.188 1307.93L513.044 1313.77M409.566 1313.77H461.305M409.566 1313.77H357.827M454.539 1319.91L461.305 1313.77M454.539 1319.91L447.409 1326.38M454.539 1319.91H507.631M461.305 1313.77H513.044M357.827 1313.77H306.089M357.827 1313.77L366.83 1307.93M513.044 1313.77L507.631 1319.91M366.83 1307.93H316.377M447.409 1326.38L439.885 1333.2M447.409 1326.38H501.927M507.631 1319.91L501.927 1326.38M501.927 1326.38L495.908 1333.2M383.862 1333.2L374.321 1340.42M383.862 1333.2H439.885M383.862 1333.2H327.838M439.885 1333.2L431.934 1340.42M439.885 1333.2H495.908M495.908 1333.2L489.547 1340.42M374.321 1340.42H431.934M374.321 1340.42H316.707M423.518 1348.06L431.934 1340.42M423.518 1348.06L414.596 1356.15M423.518 1348.06H482.815M431.934 1340.42H489.547M316.707 1340.42H259.094M316.707 1340.42L327.838 1333.2M489.547 1340.42L482.815 1348.06M327.838 1333.2H271.816M414.596 1356.15L405.121 1364.75M414.596 1356.15H475.677M482.815 1348.06L475.677 1356.15M475.677 1356.15L468.097 1364.75M342.145 1364.75L330.047 1373.9M342.145 1364.75H405.121M342.145 1364.75H279.169M405.121 1364.75L395.039 1373.9M405.121 1364.75H468.097M468.097 1364.75L460.031 1373.9M330.047 1373.9H395.039M330.047 1373.9H265.054M384.29 1383.66L395.039 1373.9M384.29 1383.66L372.804 1394.08M384.29 1383.66H451.432M395.039 1373.9H460.031M265.054 1373.9H200.062M265.054 1373.9L279.169 1364.75M460.031 1373.9L451.432 1383.66M279.169 1364.75H216.193M372.804 1394.08L360.506 1405.24M372.804 1394.08H442.244M451.432 1383.66L442.244 1394.08M442.244 1394.08L432.405 1405.24M288.607 1405.24L272.765 1417.22M288.607 1405.24H360.506M288.607 1405.24H216.708M360.506 1405.24L347.304 1417.22M360.506 1405.24H432.405M432.405 1405.24L421.844 1417.22M272.765 1417.22H347.304M272.765 1417.22H198.226M333.096 1430.11L347.304 1417.22M333.096 1430.11L317.761 1444.03M333.096 1430.11H410.477M347.304 1417.22H421.844M198.226 1417.22H123.687M198.226 1417.22L216.708 1405.24M421.844 1417.22L410.477 1430.11M216.708 1405.24H144.809M317.761 1444.03L301.161 1459.09M317.761 1444.03H398.209M410.477 1430.11L398.209 1444.03M398.209 1444.03L384.929 1459.09M217.393 1459.09L195.758 1475.45M217.393 1459.09H301.161M217.393 1459.09H133.625M301.161 1459.09L283.132 1475.45M301.161 1459.09H384.929M384.929 1459.09L370.505 1475.45M195.758 1475.45H283.132M195.758 1475.45H108.384M263.48 1493.29L283.132 1475.45M263.48 1493.29L241.977 1512.8M263.48 1493.29H354.784M283.132 1475.45H370.505M108.384 1475.45H21.0104M108.384 1475.45L133.625 1459.09M370.505 1475.45L354.784 1493.29M133.625 1459.09H49.8579M241.977 1512.8L218.349 1534.24M241.977 1512.8H337.582M354.784 1493.29L337.582 1512.8M337.582 1512.8L318.679 1534.24M118.019 1534.24L86.7156 1557.92M118.019 1534.24H218.349M118.019 1534.24H17.6882M218.349 1534.24L192.263 1557.92M218.349 1534.24H318.679M318.679 1534.24L297.81 1557.92M192.263 1557.92H86.7156M192.263 1557.92H297.81M86.7156 1557.92L0.387546 1557.92M17.6882 1534.24L0.387546 1545.46M17.6882 1534.24H0.387546M359.03 1242.79L352.495 1245.76M359.03 1242.79H395.127M359.03 1242.79H322.934M400.804 1239.93L406.286 1237.17M400.804 1239.93L395.127 1242.79M400.804 1239.93H436.27M406.286 1237.17H441.143M406.286 1237.17L411.582 1234.5M377.313 1234.5H411.582M377.313 1234.5L379.47 1233.52L383.003 1231.91M377.313 1234.5H343.045M395.127 1242.79L389.245 1245.76M395.127 1242.79H431.224M436.27 1239.93L441.143 1237.17M436.27 1239.93L431.224 1242.79M441.143 1237.17L444.689 1235.16L445.851 1234.5M411.582 1234.5L412.232 1234.17L416.703 1231.91M411.582 1234.5H445.851M431.224 1242.79L425.996 1245.76M480.119 1234.5L484.102 1231.91M480.119 1234.5H445.851M445.851 1234.5L447.576 1233.52L450.402 1231.91M352.495 1245.76H389.245M352.495 1245.76H315.744M383.146 1248.83L389.245 1245.76M383.146 1248.83L376.818 1252.02M383.146 1248.83H420.575M389.245 1245.76H425.996M315.744 1245.76H278.994M315.744 1245.76L322.934 1242.79M425.996 1245.76L420.575 1248.83M322.934 1242.79H286.837M376.818 1252.02L375.198 1252.84L370.247 1255.33M376.818 1252.02H414.95M420.575 1248.83L414.95 1252.02M414.95 1252.02L409.109 1255.33M331.386 1255.33L330.454 1255.76L323.801 1258.78M331.386 1255.33H370.247M331.386 1255.33H292.525M370.247 1255.33L363.421 1258.78M370.247 1255.33H409.109M409.109 1255.33L408.364 1255.76L403.041 1258.78M323.801 1258.78H363.421M323.801 1258.78H284.181M356.322 1262.36L363.421 1258.78M356.322 1262.36L348.935 1266.08M356.322 1262.36H396.731M363.421 1258.78H403.041M284.181 1258.78H244.561M284.181 1258.78L292.525 1255.33M403.041 1258.78L396.731 1262.36M292.525 1255.33H253.663M348.935 1266.08L341.241 1269.96M348.935 1266.08H390.164M396.731 1262.36L390.164 1266.08M390.164 1266.08L383.326 1269.96M299.157 1269.96L290.247 1274M299.157 1269.96H341.241M299.157 1269.96H257.073M341.241 1269.96L333.222 1274M341.241 1269.96H383.326M383.326 1269.96L376.197 1274M290.247 1274H333.222M290.247 1274H247.271M324.856 1278.22L333.222 1274M324.856 1278.22L316.119 1282.62M324.856 1278.22H368.76M333.222 1274H376.197M247.271 1274H204.296M247.271 1274L257.073 1269.96M376.197 1274L368.76 1278.22M257.073 1269.96H214.988M316.119 1282.62L306.988 1287.23M316.119 1282.62H360.995M368.76 1278.22L360.995 1282.62M360.995 1282.62L352.878 1287.23M261.098 1287.23L250.483 1292.04M261.098 1287.23H306.988M261.098 1287.23H215.208M306.988 1287.23L297.435 1292.04M306.988 1287.23H352.878M352.878 1287.23L344.386 1292.04M250.483 1292.04H297.435M250.483 1292.04H203.531M287.428 1297.09L297.435 1292.04M287.428 1297.09L276.937 1302.38M287.428 1297.09H335.492M297.435 1292.04H344.386M203.531 1292.04H156.579M203.531 1292.04L215.208 1287.23M344.386 1292.04L335.492 1297.09M215.208 1287.23H169.317M276.937 1302.38L265.924 1307.93M276.937 1302.38H326.166M335.492 1297.09L326.166 1302.38M326.166 1302.38L316.377 1307.93M215.471 1307.93L202.611 1313.77M215.471 1307.93H265.924M215.471 1307.93H165.018M265.924 1307.93L254.349 1313.77M265.924 1307.93H316.377M316.377 1307.93L306.089 1313.77M202.611 1313.77H254.349M202.611 1313.77H150.871M242.169 1319.91L254.349 1313.77M242.169 1319.91L229.335 1326.38M242.169 1319.91H295.262M254.349 1313.77H306.089M150.871 1313.77H99.1326M150.871 1313.77L165.018 1307.93M306.089 1313.77L295.262 1319.91M165.018 1307.93H114.565M229.335 1326.38L215.792 1333.2M229.335 1326.38H283.853M295.262 1319.91L283.853 1326.38M283.853 1326.38L271.816 1333.2M159.769 1333.2L143.868 1340.42M159.769 1333.2H215.792M159.769 1333.2H103.746M215.792 1333.2L201.481 1340.42M215.792 1333.2H271.816M271.816 1333.2L259.094 1340.42M143.868 1340.42H201.481M143.868 1340.42H86.2546M186.333 1348.06L201.481 1340.42M186.333 1348.06L170.274 1356.15M186.333 1348.06H245.629M201.481 1340.42H259.094M86.2546 1340.42H28.6413M86.2546 1340.42L103.746 1333.2M259.094 1340.42L245.629 1348.06M103.746 1333.2H47.7231M170.274 1356.15L153.217 1364.75M170.274 1356.15H231.355M245.629 1348.06L231.355 1356.15M231.355 1356.15L216.193 1364.75M90.2417 1364.75L70.0775 1373.9M90.2417 1364.75H153.217M90.2417 1364.75H27.2658M153.217 1364.75L135.07 1373.9M153.217 1364.75H216.193M216.193 1364.75L200.062 1373.9M70.0775 1373.9H135.07M70.0775 1373.9H5.08526M115.72 1383.66L135.07 1373.9M115.72 1383.66L95.0481 1394.08M115.72 1383.66H182.863M135.07 1373.9H200.062M5.08526 1373.9L27.2658 1364.75M5.08526 1373.9H0.387546M5.08526 1373.9L0.387546 1375.84M200.062 1373.9L182.863 1383.66M27.2658 1364.75H0.387546M95.0481 1394.08L72.911 1405.24M95.0481 1394.08H164.487M182.863 1383.66L164.487 1394.08M164.487 1394.08L144.809 1405.24M1.01196 1405.24H72.911M1.01196 1405.24H0.387546M1.01196 1405.24L0.387546 1405.52M72.911 1405.24L49.1473 1417.22M72.911 1405.24H144.809M144.809 1405.24L123.687 1417.22M23.5726 1430.11L49.1473 1417.22M23.5726 1430.11H100.953M23.5726 1430.11H0.387546M23.5726 1430.11L0.387546 1441.8M49.1473 1417.22H123.687M49.1473 1417.22H0.387546M123.687 1417.22L100.953 1430.11M100.953 1430.11L76.4184 1444.03M76.4184 1444.03L49.8579 1459.09M76.4184 1444.03H0.387546M49.8579 1459.09L21.0104 1475.45M49.8579 1459.09H0.387546M21.0104 1475.45H0.387546M21.0104 1475.45L0.387546 1487.15M214.642 1242.79L205.493 1245.76M214.642 1242.79H250.74M214.642 1242.79H178.546M258.939 1239.93L266.857 1237.17M258.939 1239.93L250.74 1242.79M258.939 1239.93H294.405M266.857 1237.17H301.714M266.857 1237.17L274.507 1234.5M240.239 1234.5H274.507M240.239 1234.5L248.204 1231.91M240.239 1234.5H205.97M250.74 1242.79L242.243 1245.76M250.74 1242.79H286.837M294.405 1239.93L301.714 1237.17M294.405 1239.93L286.837 1242.79M301.714 1237.17L308.776 1234.5M274.507 1234.5L275.445 1234.17L281.904 1231.91M274.507 1234.5H308.776M286.837 1242.79L278.994 1245.76M343.045 1234.5L349.303 1231.91M343.045 1234.5H308.776M308.776 1234.5L309.642 1234.17L315.603 1231.91M205.493 1245.76H242.243M205.493 1245.76H168.742M233.433 1248.83L242.243 1245.76M233.433 1248.83L224.293 1252.02M233.433 1248.83H270.862M242.243 1245.76H278.994M168.742 1245.76H131.992M168.742 1245.76L178.546 1242.79M278.994 1245.76L270.862 1248.83M178.546 1242.79H142.449M224.293 1252.02L214.802 1255.33M224.293 1252.02H262.424M270.862 1248.83L269.824 1249.22L262.424 1252.02M262.424 1252.02L253.663 1255.33M175.941 1255.33L165.321 1258.78M175.941 1255.33H214.802M175.941 1255.33H137.079M214.802 1255.33L204.941 1258.78M214.802 1255.33H253.663M253.663 1255.33L244.561 1258.78M165.321 1258.78H204.941M165.321 1258.78H125.701M194.687 1262.36L204.941 1258.78M194.687 1262.36L184.017 1266.08M194.687 1262.36H235.096M204.941 1258.78H244.561M125.701 1258.78H86.0814M125.701 1258.78L137.079 1255.33M244.561 1258.78L235.096 1262.36M137.079 1255.33H98.2181M184.017 1266.08L172.904 1269.96M184.017 1266.08H225.246M235.096 1262.36L225.246 1266.08M225.246 1266.08L214.988 1269.96M130.82 1269.96L118.345 1274M130.82 1269.96H172.904M130.82 1269.96H88.735M172.904 1269.96L161.321 1274M172.904 1269.96H214.988M214.988 1269.96L204.296 1274M118.345 1274H161.321M118.345 1274H75.3697M149.236 1278.22L161.321 1274M149.236 1278.22L136.617 1282.62M149.236 1278.22H193.141M161.321 1274H204.296M75.3697 1274H32.3946M75.3697 1274L88.735 1269.96M204.296 1274L193.141 1278.22M88.735 1269.96H46.6511M136.617 1282.62L123.427 1287.23M136.617 1282.62H181.492M193.141 1278.22L181.492 1282.62M181.492 1282.62L169.317 1287.23M77.5368 1287.23L62.676 1292.04M77.5368 1287.23H123.427M77.5368 1287.23H31.6472M123.427 1287.23L109.628 1292.04M123.427 1287.23H169.317M169.317 1287.23L156.579 1292.04M62.676 1292.04H109.628M95.174 1297.09L109.628 1292.04M95.174 1297.09L80.0202 1302.38M95.174 1297.09H143.238M109.628 1292.04H156.579M156.579 1292.04L143.238 1297.09M31.6472 1287.23H0.387546M80.0202 1302.38L64.1122 1307.93M80.0202 1302.38H129.249M143.238 1297.09L129.249 1302.38M129.249 1302.38L114.565 1307.93M13.6591 1307.93H64.1122M13.6591 1307.93H0.387546M13.6591 1307.93L0.387546 1312.23M64.1122 1307.93L47.3932 1313.77M64.1122 1307.93H114.565M114.565 1307.93L99.1326 1313.77M29.8002 1319.91L47.3932 1313.77M29.8002 1319.91L11.2619 1326.38M29.8002 1319.91H82.8926M29.8002 1319.91H0.387546M47.3932 1313.77H99.1326M47.3932 1313.77H0.387546M99.1326 1313.77L82.8926 1319.91M0.241375 1312.28L0.387546 1312.23M11.2619 1326.38H65.7801M11.2619 1326.38H0.387546M11.2619 1326.38L0.387546 1330.17M82.8926 1319.91L65.7801 1326.38M65.7801 1326.38L47.7231 1333.2M47.7231 1333.2L28.6413 1340.42M47.7231 1333.2H0.387546M8.44421 1348.06L28.6413 1340.42M8.44421 1348.06H0.387546M8.44421 1348.06L0.387546 1351.1M28.6413 1340.42H0.387546M70.2552 1242.79L58.491 1245.76M70.2552 1242.79H106.352M70.2552 1242.79H34.1576M117.074 1239.93L127.428 1237.17M117.074 1239.93L106.352 1242.79M117.074 1239.93H152.541M127.428 1237.17H162.285M127.428 1237.17L137.433 1234.5M103.164 1234.5H137.433M103.164 1234.5L113.405 1231.91M103.164 1234.5H68.8954M106.352 1242.79L95.2415 1245.76M106.352 1242.79H142.449M152.541 1239.93L162.285 1237.17M152.541 1239.93L142.449 1242.79M162.285 1237.17L171.701 1234.5M137.433 1234.5H171.701M137.433 1234.5L147.105 1231.91M142.449 1242.79L131.992 1245.76M205.97 1234.5L214.505 1231.91M205.97 1234.5H171.701M171.701 1234.5L180.805 1231.91M58.491 1245.76H95.2415M58.491 1245.76H21.7405M83.7209 1248.83L95.2415 1245.76M83.7209 1248.83L71.7679 1252.02M83.7209 1248.83H121.149M95.2415 1245.76H131.992M21.7405 1245.76L34.1576 1242.79M21.7405 1245.76H0.387546M131.992 1245.76L121.149 1248.83M34.1576 1242.79H0.387546M71.7679 1252.02L59.3568 1255.33M71.7679 1252.02H109.899M121.149 1248.83L109.899 1252.02M109.899 1252.02L98.2181 1255.33M20.4955 1255.33L6.84157 1258.78M20.4955 1255.33H59.3568M20.4955 1255.33H0.387546M59.3568 1255.33L46.4615 1258.78M59.3568 1255.33H98.2181M98.2181 1255.33L86.0814 1258.78M33.0527 1262.36L46.4615 1258.78M33.0527 1262.36L19.099 1266.08M33.0527 1262.36H73.4612M33.0527 1262.36H0.387546M46.4615 1258.78H6.84157M46.4615 1258.78H86.0814M6.84157 1258.78L0.387546 1260.4M6.84157 1258.78H0.387546M86.0814 1258.78L73.4612 1262.36M19.099 1266.08L4.56654 1269.96M19.099 1266.08H60.3283M19.099 1266.08H0.387546M73.4612 1262.36L60.3283 1266.08M60.3283 1266.08L46.6511 1269.96M4.56654 1269.96H46.6511M4.56654 1269.96L0.387546 1271.07M4.56654 1269.96H0.387546M46.6511 1269.96L32.3946 1274M17.5211 1278.22L32.3946 1274M17.5211 1278.22L1.99018 1282.62M17.5211 1278.22H0.387546M32.3946 1274H0.387546M0.162665 1274H0.387546M1.99018 1282.62H0.387546M1.99018 1282.62L0.387546 1283.08M0 1283.19L0.387546 1283.08M10.6758 1239.93L22.8567 1237.17M10.6758 1239.93H0.387546M10.6758 1239.93L0.387546 1242.26M22.8567 1237.17L34.6269 1234.5M22.8567 1237.17H0.387546M68.8954 1234.5L79.7053 1231.91M68.8954 1234.5H34.6269M34.6269 1234.5L46.0057 1231.91M34.6269 1234.5H0.387546M1191.8 1231.91H1225.5M1191.8 1231.91H1158.1M1217.24 1229.42L1219.28 1230.03L1225.5 1231.91M1217.24 1229.42H1250.39M1225.5 1231.91H1259.2M1250.39 1229.42L1252.56 1230.03L1253.66 1230.34L1259.2 1231.91M1259.2 1231.91H1292.89M1292.89 1231.91H1326.6M1158.1 1231.91H1124.4M1326.6 1231.91H1360.29M1360.29 1231.91L1349.84 1229.42M1360.29 1231.91H1393.99M1349.84 1229.42H1382.99M1057 1231.91H1090.7M1057 1231.91H1023.3M1084.64 1229.42L1086.14 1230.03L1086.89 1230.34L1090.7 1231.91M1084.64 1229.42H1117.79M1090.7 1231.91H1124.4M1117.79 1229.42L1124.4 1231.91M1023.3 1231.91H989.598M922.198 1231.91H955.898M922.198 1231.91H888.499M952.045 1229.42L952.52 1229.72L952.996 1230.03L953.475 1230.34L955.898 1231.91M952.045 1229.42H985.194M955.898 1231.91H989.598M985.194 1229.42L989.598 1231.91M888.499 1231.91H854.798M787.399 1231.91H821.099M787.399 1231.91H753.7M819.448 1229.42L821.099 1231.91M819.448 1229.42H852.598M821.099 1231.91H854.798M852.598 1229.42L852.869 1229.72L853.141 1230.03L853.415 1230.34L854.798 1231.91M753.7 1231.91H720M652.601 1231.91H686.3M652.601 1231.91H618.901M686.851 1229.42L686.3 1231.91M686.851 1229.42H720M686.3 1231.91H720M720 1229.42V1231.91M618.901 1231.91H585.201M517.802 1231.91H551.501M517.802 1231.91H484.102M554.253 1229.42L553.574 1230.03L552.198 1231.28L551.501 1231.91M554.253 1229.42H587.402M551.501 1231.91H585.201M587.402 1229.42L587.131 1229.72L586.859 1230.03L586.585 1230.34L585.201 1231.91M484.102 1231.91H450.402M383.003 1231.91H416.703M383.003 1231.91H349.303M421.656 1229.42L420.433 1230.03L419.817 1230.34L416.703 1231.91M421.656 1229.42H454.806M416.703 1231.91H450.402M454.806 1229.42L454.263 1229.72L450.402 1231.91M349.303 1231.91H315.603M248.204 1231.91H281.904M248.204 1231.91H214.505M289.059 1229.42L287.292 1230.03L286.403 1230.34L281.904 1231.91M289.059 1229.42H322.208M281.904 1231.91H315.603M322.208 1229.42L321.394 1229.72L315.603 1231.91M214.505 1231.91H180.805M113.405 1231.91H147.105M113.405 1231.91H79.7053M156.461 1229.42L147.105 1231.91M156.461 1229.42H189.61M147.105 1231.91H180.805M189.61 1229.42L187.437 1230.03L186.342 1230.34L180.805 1231.91M79.7053 1231.91H46.0057M23.8641 1229.42L12.3061 1231.91M23.8641 1229.42H57.0136M23.8641 1229.42H0.387546M12.3061 1231.91H46.0057M12.3061 1231.91L0.387546 1234.49M12.3061 1231.91H0.387546M57.0136 1229.42L54.2955 1230.03L46.0057 1231.91M1382.99 1229.42L1385.7 1230.03L1393.99 1231.91M1393.99 1231.91H1427.69M1427.69 1231.91L1439.61 1234.49M1427.69 1231.91H1439.61M1439.61 1351.1V1348.06M1439.61 1351.1V1356.15M1439.61 1348.06V1340.42M1439.61 1356.15V1357.66V1364.75M1439.61 1364.75V1373.9M1439.61 1292.04V1287.23M1439.61 1292.04V1296.68M1439.61 1229.42V1231.91M1439.61 1231.91V1234.49M1439.61 1234.49L1439.64 1234.5H1439.61M1439.61 1234.49V1234.5M1439.61 1234.5V1237.17M1439.61 1237.17V1239.93M1439.61 1239.93V1242.26M1439.61 1242.26V1242.79M1439.61 1242.79V1245.76M1439.61 1245.76V1248.83M1439.61 1248.83V1250.86M1439.61 1250.86V1252.02M1439.61 1252.02V1255.33M1439.61 1255.33V1258.78M1439.61 1258.78V1260.4M1439.61 1260.4V1262.36M1439.61 1262.36V1266.08M1439.61 1266.08V1269.96M1439.61 1269.96V1271.07M1439.61 1271.07V1274M1439.61 1274V1278.22M1439.61 1278.22V1282.62M1439.61 1282.62V1283.08M1439.61 1283.08V1287.23M1439.61 1297.09V1302.38M1439.61 1297.09V1296.68M1439.61 1302.38V1307.93M1439.61 1307.93V1312.23M1439.61 1312.23V1313.77M1439.61 1313.77V1319.91M1439.61 1319.91V1326.38M1439.61 1326.38V1330.17M1439.61 1330.17V1333.2M1439.61 1333.2V1340.42M1439.61 1373.9V1375.84M1439.61 1375.84V1383.66M1439.61 1383.66V1394.08M1439.61 1394.08V1405.24M1439.61 1405.24V1405.52M1439.61 1405.52V1417.22M1439.61 1417.22V1430.11M1439.61 1430.11V1441.8M1439.61 1441.8V1444.03M1439.61 1444.03V1459.09M1439.61 1459.09V1475.45M1439.61 1475.45V1487.15M1439.61 1487.15V1493.29M1439.61 1493.29V1512.8M1439.61 1512.8V1534.24M1439.61 1534.24V1545.46M1439.61 1545.46V1557.92M1439.61 1557.92V1558H0.387546V1557.92M0.387546 1297.09V1302.38M0.387546 1297.09V1296.68M0.387546 1296.68V1292.04M0.387546 1292.04V1287.23M0.387546 1287.23V1283.08M0.387546 1283.08V1282.62M0.387546 1282.62V1278.22M0.387546 1278.22V1274M0.387546 1274V1271.07M0.387546 1271.07V1269.96M0.387546 1269.96V1266.08M0.387546 1266.08V1262.36M0.387546 1262.36V1260.4M0.387546 1260.4V1258.78M0.387546 1258.78V1255.33M0.387546 1255.33V1252.02M0.387546 1252.02V1250.86M0.387546 1250.86V1248.83M0.387546 1248.83V1245.76M0.387546 1245.76V1242.79M0.387546 1242.79V1242.26M0.387546 1242.26V1239.93M0.387546 1239.93V1237.17M0.387546 1237.17V1234.5M0.387546 1234.5H0.35831L0.387546 1234.49M0.387546 1234.5V1234.49M0.387546 1234.49V1231.91M0.387546 1231.91V1229.42M0.387546 1557.92V1545.46M0.387546 1545.46V1534.24M0.387546 1534.24V1512.8M0.387546 1512.8V1493.29M0.387546 1493.29V1487.15M0.387546 1487.15V1475.45M0.387546 1475.45V1459.09M0.387546 1459.09V1444.03M0.387546 1444.03V1441.8M0.387546 1441.8V1430.11M0.387546 1430.11V1417.22M0.387546 1417.22V1405.52M0.387546 1405.52V1405.24M0.387546 1405.24V1394.08M0.387546 1394.08V1383.66M0.387546 1383.66V1375.84M0.387546 1375.84V1373.9M0.387546 1373.9V1364.75M0.387546 1364.75V1356.15M0.387546 1356.15V1351.1M0.387546 1351.1V1348.06M0.387546 1348.06V1340.42M0.387546 1340.42V1333.2M0.387546 1333.2V1330.17M0.387546 1330.17V1326.38M0.387546 1326.38V1319.91M0.387546 1319.91V1313.77M0.387546 1313.77V1312.23M0.387546 1312.23V1307.93M0.387546 1307.93V1302.38" stroke="url(#paint3_linear_22814_1602)" stroke-width="0.8" stroke-miterlimit="10" stroke-linecap="round" stroke-linejoin="round"/>
<g opacity="0.7" filter="url(#filter0_f_22814_1602)">
<ellipse cx="720" cy="1438" rx="720" ry="72" fill="#0D6AF9"/>
</g>
</g>
<defs>
<filter id="filter0_f_22814_1602" x="-158.1" y="1207.9" width="1756.2" height="460.2" filterUnits="userSpaceOnUse" color-interpolation-filters="sRGB">
<feFlood flood-opacity="0" result="BackgroundImageFix"/>
<feBlend mode="normal" in="SourceGraphic" in2="BackgroundImageFix" result="shape"/>
<feGaussianBlur stdDeviation="79.05" result="effect1_foregroundBlur_22814_1602"/>
</filter>
<linearGradient id="paint0_linear_22814_1602" x1="0.5" y1="17.5" x2="466" y2="17.5" gradientUnits="userSpaceOnUse">
<stop stop-color="#0D6AF9" stop-opacity="0"/>
<stop offset="1" stop-color="#0D6AF9"/>
</linearGradient>
<linearGradient id="paint1_linear_22814_1602" x1="852" y1="700.5" x2="1317.5" y2="700.5" gradientUnits="userSpaceOnUse">
<stop stop-color="#0D6AF9" stop-opacity="0"/>
<stop offset="1" stop-color="#0D6AF9"/>
</linearGradient>
<linearGradient id="paint2_linear_22814_1602" x1="986.5" y1="683.5" x2="1440.5" y2="683.5" gradientUnits="userSpaceOnUse">
<stop stop-color="#0D6AF9" stop-opacity="0"/>
<stop offset="1" stop-color="#0D6AF9"/>
</linearGradient>
<linearGradient id="paint3_linear_22814_1602" x1="720" y1="1227" x2="720" y2="1515.81" gradientUnits="userSpaceOnUse">
<stop stop-color="#005FF9" stop-opacity="0.1"/>
<stop offset="1" stop-color="#005FF9"/>
</linearGradient>
</defs>
</svg>
