<svg width="173" height="39" viewBox="0 0 173 39" fill="none" xmlns="http://www.w3.org/2000/svg">
<path d="M83.7383 28.5129H96.7259V25.4464H86.7982V0.765137H83.7383V28.5129Z" fill="white"/>
<mask id="mask0_20565_1598" style="mask-type:luminance" maskUnits="userSpaceOnUse" x="0" y="0" width="173" height="39">
<path d="M0.304688 0.778687H172.305V38.7643H0.304688V0.778687Z" fill="white"/>
</mask>
<g mask="url(#mask0_20565_1598)">
<path d="M35.7157 0.89354C29.0028 0.89354 21.0498 7.03351 17.3564 21.0119C15.0581 27.0103 9.22146 37.2683 0.304688 38.6432L42.9879 38.6567L45.7715 33.4536H37.1175C34.2599 33.2312 22.3574 30.4678 27.3448 16.4153C33.3298 -0.46118 36.6458 0.89354 35.7157 0.89354Z" fill="white"/>
<path d="M45.9746 38.6359C52.6942 38.6359 60.6472 32.4959 64.3339 18.5108C66.6389 12.5191 72.4756 2.26785 81.3856 0.886195L38.7091 0.879456L35.9121 6.07585H44.5728C47.4372 6.305 59.3397 9.06833 54.3522 23.1208C48.3538 39.9906 45.0513 38.6359 45.9746 38.6359Z" fill="white"/>
</g>
<path d="M98.9219 28.5131H101.982V0.778809H98.9219V28.5131Z" fill="white"/>
<path d="M105.957 0.785356C110.25 0.785356 114.274 3.70371 117.125 5.97501V0.765137H120.178V28.5129H117.125V9.75607C114.847 7.99023 111.079 4.79556 107.493 3.97331V28.5129H104.434V0.765137L105.957 0.785356Z" fill="white"/>
<path d="M87.935 30.5687H91.561V29.7869H83.5137V30.5687H87.1464V38.7509H87.935V30.5687Z" fill="white"/>
<path d="M93.2129 29.7871V38.7511H100.296V37.9625H94.0014V34.505H99.7775V33.7164H94.0014V30.5689H100.04V29.7871H93.2129Z" fill="white"/>
<path d="M112.253 33.7164H118.473V29.7871H119.255V38.7511H118.473V34.505H112.253V38.7511H111.471V29.7871H112.253V33.7164Z" fill="white"/>
<path d="M121.716 29.7937L127.809 37.5377V29.7869H128.604V38.7509L127.809 38.7576L121.608 30.8518V38.7509H120.826V29.7869L121.716 29.7937Z" fill="white"/>
<path d="M140.628 37.9625V29.7871H139.84V38.7511H146.357V37.9625H140.628Z" fill="white"/>
<path d="M172.222 29.7734L168.448 35.0238L168.455 38.7509H167.673L167.666 34.9901L163.898 29.7734H164.815L168.057 34.2824L171.305 29.7734H172.222Z" fill="white"/>
<mask id="mask1_20565_1598" style="mask-type:luminance" maskUnits="userSpaceOnUse" x="0" y="0" width="173" height="39">
<path d="M0.304688 0.778687H172.305V38.7643H0.304688V0.778687Z" fill="white"/>
</mask>
<g mask="url(#mask1_20565_1598)">
<path d="M159.147 0.76482C173.402 0.555892 176.145 19.0297 162.018 22.5951C166.567 25.2573 168.92 25.446 172.303 25.446V28.5126C167.915 28.5126 165.401 28.3913 158.689 23.9633V20.1013H159.7C171.798 18.2075 170.234 3.99992 159.7 3.81121V28.5126L154.234 28.5059L149.246 10.7397H141.098V7.67987H148.404L147.319 3.82469L140.397 28.5194L134.533 28.5126C128.71 28.5126 123.992 23.7408 123.992 17.9244V10.7397H121.93V7.67987H123.992V0.76482H137.687V3.82469H127.052V7.67987H137.647V10.7397H127.045L127.052 17.9379C127.052 22.0761 130.402 25.446 134.533 25.446H137.29L137.296 28.3778L145.027 0.76482H149.61L156.633 25.8369V0.76482H159.147Z" fill="white"/>
</g>
<path d="M130.618 34.235C130.618 32.1726 131.999 30.5078 134.183 30.5078C136.374 30.5078 137.755 32.1726 137.755 34.235C137.755 36.2839 136.374 37.9554 134.183 37.9554C131.999 37.9554 130.618 36.2973 130.618 34.2417H129.836C129.836 36.7018 131.561 38.69 134.183 38.69C136.805 38.69 138.537 36.6883 138.537 34.235C138.537 31.7682 136.805 29.7665 134.183 29.7665C131.561 29.7665 129.836 31.7682 129.836 34.235" fill="white"/>
<path d="M146.773 34.235C146.773 32.1726 148.148 30.5078 150.332 30.5078C152.522 30.5078 153.904 32.1726 153.904 34.235C153.904 36.2839 152.522 37.9554 150.332 37.9554C148.148 37.9554 146.773 36.2973 146.773 34.2417H145.984C145.984 36.7018 147.723 38.69 150.332 38.69C152.953 38.69 154.685 36.6883 154.685 34.235C154.685 31.7682 152.953 29.7665 150.332 29.7665C147.723 29.7665 145.984 31.7682 145.984 34.235" fill="white"/>
<path d="M155.793 34.235C155.793 36.7017 157.532 38.69 160.147 38.69C161.724 38.69 162.978 37.9688 163.732 36.85V38.7034H164.514V34.2417H160.666V35.0303H163.645C163.335 36.7085 162.048 37.9554 160.147 37.9554C157.963 37.9554 156.575 36.2973 156.575 34.235C156.575 32.1726 157.963 30.5078 160.147 30.5078C161.724 30.5078 162.883 31.3773 163.402 32.6309L164.238 32.6242C163.652 30.9527 162.162 29.7665 160.147 29.7665C157.532 29.7665 155.793 31.7682 155.793 34.235Z" fill="white"/>
<path d="M109.127 35.5561C108.655 36.9445 107.455 37.9555 105.777 37.9555C103.593 37.9555 102.212 36.2975 102.212 34.2351C102.212 32.1727 103.593 30.508 105.777 30.508C107.563 30.508 108.817 31.62 109.214 33.1567H110.016C109.592 31.2089 108.001 29.7666 105.777 29.7666C103.155 29.7666 101.43 31.7683 101.43 34.2351C101.43 36.7019 103.155 38.6901 105.777 38.6901C107.907 38.6901 109.45 37.3758 109.956 35.5561H109.127Z" fill="white"/>
</svg>
