<svg width="137" height="84" viewBox="0 0 137 84" fill="none" xmlns="http://www.w3.org/2000/svg">
<path fill-rule="evenodd" clip-rule="evenodd" d="M5.22652 68.196C4.13045 68.2304 3.15338 68.8776 2.89358 70.0672L0.98645 83.3211H5.13056L6.24006 74.2113L10.4082 81.5459C11.6693 83.1417 14.3976 82.9873 15.3499 81.5459L19.494 74.3672L20.6275 83.3211H24.9215L22.8405 70.0672C21.2447 67.5191 18.8481 68.1658 17.5869 69.5814L12.957 77.5577L7.98526 69.5814C7.2493 68.6162 6.19364 68.1657 5.22652 68.196Z" fill="white"/>
<path fill-rule="evenodd" clip-rule="evenodd" d="M69.1393 71.8181C67.5435 71.8181 65.7928 73.1055 65.7928 74.5469V80.5921C65.7928 82.0335 67.0832 83.3209 68.8334 83.3209H73.6192H78.0992C79.5148 83.3209 81.2897 82.1879 81.2897 80.5921V74.8527C81.2897 73.4114 79.6937 71.8181 77.7633 71.8181H73.6192H69.1393ZM71.2263 74.8527H73.6192H76.1681C76.9659 74.8527 77.4575 75.4987 77.4575 76.1421V79.3327C77.4575 80.1048 76.9674 80.2863 76.324 80.2863H73.6192H70.7345C70.0911 80.2863 69.631 80.1048 69.631 79.3327V76.1421C69.631 75.3443 70.4284 74.8527 71.2263 74.8527Z" fill="white"/>
<path fill-rule="evenodd" clip-rule="evenodd" d="M36.2505 71.9745C34.5002 71.9745 32.748 73.5708 32.748 74.7032V80.9044C32.748 81.728 34.0325 83.3213 35.7827 83.3213H45.5162C46.6487 83.4757 47.4413 82.6786 47.4413 81.5461V80.2867H37.6898C36.7375 80.4411 36.2505 79.6437 36.2505 78.6914V76.7603C36.2505 75.9624 36.8919 75.0091 37.6898 75.0091H47.2614V73.4138C47.2614 72.4615 46.6487 71.9745 45.5162 71.9745H36.2505Z" fill="white"/>
<path fill-rule="evenodd" clip-rule="evenodd" d="M49.3478 71.9745V83.3213H52.6943L52.8742 80.4426H56.6824H59.0753C59.7188 80.4426 60.2103 80.7482 60.3648 81.5461V83.3213H63.7112V80.5926C63.7112 79.1512 62.2659 78.8474 62.2659 78.8474C62.2659 78.8474 63.7127 78.2029 63.8672 77.0962V74.3674C63.7127 73.1062 62.6005 72.1547 61.6482 71.9745H56.6824H49.3478ZM52.8742 74.8532H56.6824H59.723C60.0576 74.8532 60.5207 75.3435 60.5207 75.8067V76.7603C60.5207 77.2493 60.2106 77.5579 59.5671 77.5579H56.6824H52.6943L52.8742 74.8532Z" fill="white"/>
<path fill-rule="evenodd" clip-rule="evenodd" d="M86.5434 71.9746C84.7932 71.9746 83.041 73.4164 83.041 74.7034V80.9045C83.1954 81.8826 84.2997 83.3214 86.0756 83.3214L95.8032 83.4774C96.9099 83.4774 97.7103 82.6787 97.7103 81.5462V80.4427H87.9828C87.0304 80.4427 86.5434 79.7998 86.5434 78.8475V76.7604C86.5434 75.9625 87.1849 75.0092 87.9828 75.0092H97.5544V73.414C97.5544 72.4616 96.9099 71.9746 95.8032 71.9746H86.5434Z" fill="white"/>
<path fill-rule="evenodd" clip-rule="evenodd" d="M99.6406 71.9746V83.3214H103.323V79.1533H110.166V83.3214H114.004V71.9746H110.166V75.9628H103.323V71.9746H99.6406Z" fill="white"/>
<path fill-rule="evenodd" clip-rule="evenodd" d="M26.8516 72.1543V83.3212H30.5099V72.1543H26.8516Z" fill="white"/>
<path fill-rule="evenodd" clip-rule="evenodd" d="M116.086 72.1543V83.3212H119.744V72.1543H116.086Z" fill="white"/>
<path fill-rule="evenodd" clip-rule="evenodd" d="M122.137 72.1543V83.3212H125.663V80.4425H129.495H134.437C135.544 80.4425 136.986 78.9989 136.986 77.7378V75.009C136.986 73.5677 135.727 72.1543 134.131 72.1543H129.495H122.137ZM125.507 74.8531H129.495H132.686C133.175 74.8531 133.484 75.3433 133.484 75.8066V76.7602C133.484 77.2492 133.18 77.7378 132.536 77.7378H129.495H125.663L125.507 74.8531Z" fill="white"/>
<path fill-rule="evenodd" clip-rule="evenodd" d="M65.7959 48.3703C65.7959 48.3703 68.344 52.8488 71.2267 48.3703L76.8119 40.237L60.3651 13.9325C60.3651 13.9325 57.817 10.4064 54.7799 13.9325L49.0403 21.8857L65.7959 48.3703ZM68.0351 61.1365C76.6575 61.1365 84.4819 57.945 90.2215 52.8488L70.5832 22.0658L76.6575 13.7524C79.2056 10.4064 81.9081 13.7524 81.9081 13.7524L98.6894 40.237C99.4873 37.9978 99.9506 35.4497 100.105 33.0561L81.1102 3.07098C77.1207 1.4752 72.668 0.522888 68.0351 0.522888C51.331 0.522888 35.7851 13.3405 35.7851 30.8426C35.7851 33.5451 36.2484 36.2476 36.8918 38.6413L46.312 25.7206L52.8753 35.7843C54.4453 38.178 52.8753 40.237 52.8753 40.237L44.5618 51.7163C50.842 57.9964 59.2584 61.1365 68.0351 61.1365Z" fill="white"/>
</svg>
