<svg width="240" height="33" viewBox="0 0 240 33" fill="none" xmlns="http://www.w3.org/2000/svg">
<path d="M237.037 8.8283C235.977 8.8283 235.107 7.9683 235.107 6.9083C235.107 5.8483 235.977 4.9783 237.037 4.9783C238.097 4.9783 238.967 5.8483 238.967 6.9083C238.967 7.9683 238.097 8.8283 237.037 8.8283ZM237.037 4.5083C235.717 4.5083 234.637 5.5883 234.637 6.9083C234.637 8.2283 235.717 9.3083 237.037 9.3083C238.357 9.3083 239.437 8.2283 239.437 6.9083C239.437 5.5883 238.357 4.5083 237.037 4.5083Z" fill="white"/>
<path d="M237.197 6.80855L236.688 6.81855L236.678 6.19855H237.188C237.378 6.18855 237.527 6.30855 237.527 6.49855C237.537 6.68855 237.387 6.80855 237.197 6.80855ZM238.027 6.48855C238.017 6.06855 237.727 5.76855 237.257 5.76855L236.188 5.78855L236.217 8.04855H236.708L236.697 7.23855H237.048L237.507 8.03855L238.057 8.02855L237.538 7.16855C237.778 7.10855 238.027 6.88855 238.027 6.48855Z" fill="white"/>
<path d="M51.5505 22.9189H45.5515V9.08494H51.3865C52.9605 9.08494 53.9435 10.1009 53.9435 11.4779C53.9435 12.8549 52.9605 13.8379 51.3865 13.8379H44.7164V17.8379H51.5505C53.3865 17.8379 54.3695 19.0179 54.3695 20.3939C54.3695 21.9679 53.3205 22.9189 51.5505 22.9189ZM54.9265 15.6739C56.9925 15.2479 58.6975 13.4119 58.6975 10.6589C58.6975 7.74094 56.5665 5.08594 52.4025 5.08594H40.8965V26.9509H52.7635C56.9265 26.9509 59.1225 24.3279 59.1225 21.0499C59.1225 18.2959 57.2545 16.0349 54.9265 15.6739Z" fill="white"/>
<path d="M72.749 15.0834H67.7164V19.1814H71.274L75.568 26.9504H80.911L75.994 18.6234C78.355 18.0664 80.78 16.0014 80.78 12.1334M80.78 12.1334C80.78 8.06845 77.994 5.08545 73.437 5.08545H63.209V26.9504H67.864V9.18345H72.749C74.618 9.18345 76.027 10.2974 76.027 12.1334C76.027 13.9694 74.618 15.0834 72.749 15.0834" fill="white"/>
<path d="M116.169 19.1488L119.578 9.74075L122.988 19.1488H116.169ZM116.661 5.08575L108.203 26.9508H113.513L114.89 23.2468H124.266L125.61 26.9508H130.921L122.496 5.08575H116.661Z" fill="white"/>
<path d="M143.565 22.8529H139.598V9.18294H143.565C148.056 9.18294 150.416 12.1659 150.416 16.0349C150.416 19.7389 147.892 22.8529 143.565 22.8529ZM143.565 5.08594H134.943V26.9509H143.565C150.416 26.9509 155.169 22.6239 155.169 16.0349C155.169 9.44594 150.416 5.08594 143.565 5.08594Z" fill="white"/>
<path d="M225.692 5.08154L219.958 14.3515L214.224 5.08154H209.078V26.9505H213.734V12.6575L218.746 20.2795C219.32 21.1505 220.597 21.1505 221.17 20.2795L226.183 12.6575V26.9505H230.839V5.08154H225.692Z" fill="white"/>
<path d="M95.5417 23.0824C91.6707 23.0824 88.5337 19.9444 88.5337 16.0744C88.5337 12.2034 91.6707 9.06539 95.5417 9.06539C99.4117 9.06539 102.55 12.2034 102.55 16.0744C102.55 19.9444 99.4117 23.0824 95.5417 23.0824ZM95.5417 4.54639C89.1747 4.54639 84.0137 9.70739 84.0137 16.0744C84.0137 22.4404 89.1747 27.6014 95.5417 27.6014C101.908 27.6014 107.07 22.4404 107.07 16.0744C107.07 9.70739 101.908 4.54639 95.5417 4.54639Z" fill="white"/>
<path d="M176.12 19.4654C174.925 21.6214 172.628 23.0824 169.988 23.0824C166.118 23.0824 162.98 19.9444 162.98 16.0744C162.98 12.2034 166.118 9.06639 169.988 9.06639C172.606 9.06639 174.885 10.5044 176.088 12.6314L179.358 9.36239C177.266 6.44739 173.85 4.54639 169.988 4.54639C163.621 4.54639 158.461 9.70739 158.461 16.0744C158.461 22.4404 163.621 27.6024 169.988 27.6024C173.871 27.6024 177.304 25.6804 179.392 22.7374L176.12 19.4654Z" fill="white"/>
<path d="M194.26 23.0824C190.389 23.0824 187.252 19.9444 187.252 16.0744C187.252 12.2034 190.389 9.06539 194.26 9.06539C198.13 9.06539 201.268 12.2034 201.268 16.0744C201.268 19.9444 198.13 23.0824 194.26 23.0824ZM194.26 4.54639C187.893 4.54639 182.732 9.70739 182.732 16.0744C182.732 22.4404 187.893 27.6014 194.26 27.6014C200.626 27.6014 205.788 22.4404 205.788 16.0744C205.788 9.70739 200.626 4.54639 194.26 4.54639Z" fill="white"/>
<path d="M16.2363 32.4707C25.2034 32.4707 32.4727 25.2019 32.4727 16.2354C32.4727 7.26881 25.2034 0 16.2363 0C7.26925 0 0 7.26881 0 16.2354C0 25.2019 7.26925 32.4707 16.2363 32.4707Z" fill="#CC092F"/>
<path d="M30.5408 20.6213C28.6838 19.8813 26.9838 20.1293 25.2798 21.1623C25.2798 21.1623 24.6588 21.5413 24.4728 21.6583C23.6788 22.1563 22.9298 22.6283 22.2098 22.6283C21.5228 22.6283 20.8468 22.4443 20.5608 21.1153C20.1148 19.0423 19.0268 13.9483 18.5518 11.4253C18.2728 9.94232 18.1198 9.14332 17.9608 8.60032C17.6808 7.64632 17.1688 7.12732 16.4418 7.04432C16.4418 7.04432 16.3278 7.02832 16.2348 7.02832C16.1428 7.02832 16.0168 7.04632 16.0168 7.04632C15.2968 7.13232 14.7878 7.65132 14.5098 8.60032C14.3508 9.14332 14.1978 9.94232 13.9188 11.4253C13.4438 13.9483 12.3558 19.0423 11.9098 21.1153C11.6238 22.4443 10.9478 22.6283 10.2608 22.6283C9.54078 22.6283 8.79178 22.1563 7.99778 21.6583C7.81178 21.5413 7.18978 21.1623 7.18978 21.1623C5.48678 20.1293 3.78578 19.8813 1.92978 20.6213C1.52878 20.7813 1.13381 20.9605 0.757812 21.1415C1.01481 21.9475 1.33474 22.7408 1.70774 23.4858C2.11874 23.2838 2.54978 23.0833 2.98978 22.9533C3.62378 22.7663 4.27378 22.7563 4.90378 22.9673C5.51578 23.1723 6.06078 23.5353 6.60378 23.8763C7.62678 24.5193 8.78578 25.2483 10.2608 25.2483C12.4468 25.2483 13.9808 23.9433 14.4708 21.6673C14.8508 19.9033 15.6928 15.9653 16.2338 13.2493C16.2338 13.2493 17.6198 19.9033 17.9988 21.6673C18.4888 23.9433 20.0238 25.2483 22.2098 25.2483C23.6848 25.2483 24.8438 24.5193 25.8668 23.8763C26.4098 23.5353 26.9548 23.1723 27.5668 22.9673C28.1958 22.7563 28.8468 22.7663 29.4808 22.9533C29.9208 23.0833 30.3512 23.284 30.7622 23.486C31.1362 22.741 31.4553 21.9473 31.7123 21.1413C31.3363 20.9603 30.9418 20.7813 30.5408 20.6213Z" fill="white"/>
</svg>
