<svg width="14" height="16" viewBox="0 0 14 16" fill="none" xmlns="http://www.w3.org/2000/svg">
<path d="M12.9688 4L13.6875 16H0.3125L1.09375 4H2.375V5.34375H2.3125L1.78125 14.6562H12.375L11.7812 5.34375H10.375V6.65625H9.03125V3.34375C9.03125 2.77083 8.83854 2.29688 8.45312 1.92188C8.06771 1.53646 7.59375 1.34375 7.03125 1.34375C6.46875 1.34375 5.99479 1.53125 5.60938 1.90625C5.22396 2.28125 5.03125 2.76042 5.03125 3.34375V4H7.6875V5.34375H5.03125V6.65625H3.6875V3.34375C3.6875 2.875 3.77604 2.4375 3.95312 2.03125C4.11979 1.625 4.35417 1.27083 4.65625 0.96875C4.95833 0.666667 5.3125 0.432292 5.71875 0.265625C6.125 0.0885417 6.5625 0 7.03125 0C7.5 0 7.9375 0.0885417 8.34375 0.265625C8.75 0.432292 9.10417 0.666667 9.40625 0.96875C9.70833 1.27083 9.94271 1.625 10.1094 2.03125C10.2865 2.4375 10.375 2.875 10.375 3.34375V4H12.9688Z" fill="white"/>
</svg>
