<svg width="94" height="30" viewBox="0 0 94 30" fill="none" xmlns="http://www.w3.org/2000/svg">
<path d="M38.7453 12.1445H52.4438L53.3692 8H32.649L30 20H54.9114L56 15.0578H38.1103L38.7453 12.1445Z" fill="white"/>
<path d="M39.8887 5H57.6696L58.7516 0H38.5543C37.2816 0.0204914 36.0538 0.460169 35.0711 1.24723C34.0885 2.03428 33.4093 3.12221 33.1443 4.33333L33 5H39.8887ZM68.4896 5H84.9L86 0H66.7945C63.296 0 61.2763 1.45614 60.6091 4.35088L60.4648 5H68.4896Z" fill="white"/>
<path d="M65.5292 14.3804C65.517 14.2828 65.517 14.1841 65.5292 14.0865L66.8816 8H59.8275L58.1096 15.7291L58 16.3516V16.9222C58 18.9798 59.4985 20 62.4773 20H81.9218L83 15.072H66.443C65.8216 15.0375 65.5292 14.8473 65.5292 14.3804Z" fill="white"/>
<path d="M9.90123 5H28.8217V4.89474C28.9296 4.44005 28.9894 3.97558 29 3.50877C29 1.17544 27.4129 0 24.2209 0H4.06996L3 5H9.90123Z" fill="white"/>
<path d="M21.941 8.01732L20.6129 14.026C20.5591 14.3336 20.3845 14.6103 20.1244 14.8C19.8643 14.9897 19.5381 15.0782 19.212 15.0476H8.13237L9.69699 8H2.65621L0 20H20.5401C24.4153 20 26.6895 18.3896 27.399 15.1688L29 8.01732H21.941Z" fill="white"/>
<path d="M91.4959 3L90.9919 2.24899H90.4553V3H90V1.00231H91.0894C91.3026 0.987951 91.5147 1.04091 91.6911 1.15251C91.7633 1.20605 91.8204 1.27508 91.8572 1.35361C91.894 1.43214 91.9096 1.51779 91.9024 1.60312C91.8966 1.73464 91.8453 1.86098 91.7561 1.9636C91.6667 2.06691 91.5394 2.13638 91.3984 2.15887L92 3H91.4959ZM91.4959 1.61814C91.4959 1.42287 91.3659 1.33275 91.0894 1.33275H90.4553V1.91854H91.0569C91.1606 1.92292 91.2632 1.89661 91.3496 1.84344C91.3819 1.81422 91.4073 1.77909 91.4241 1.74029C91.4409 1.7015 91.4488 1.65989 91.4472 1.61814H91.4959Z" fill="white"/>
<path d="M91.4999 5C91.0047 4.99999 90.5207 4.85291 90.1092 4.57743C89.6977 4.30195 89.3773 3.91046 89.1886 3.45263C88.9999 2.99479 88.9514 2.49123 89.0493 2.00581C89.1472 1.52039 89.3871 1.07497 89.7385 0.726042C90.0898 0.377117 90.5369 0.140405 91.023 0.0459254C91.5091 -0.0485543 92.0123 0.00345513 92.4688 0.195358C92.9253 0.38726 93.3145 0.710411 93.5871 1.12383C93.8597 1.53724 94.0034 2.0223 93.9999 2.51748C93.9953 3.17749 93.7299 3.80889 93.2616 4.27396C92.7932 4.73903 92.16 5.00002 91.4999 5ZM91.4999 0.384616C91.0774 0.381153 90.6633 0.503293 90.3103 0.73554C89.9572 0.967786 89.6811 1.29967 89.517 1.68908C89.3529 2.0785 89.3082 2.50788 89.3885 2.92276C89.4688 3.33765 89.6705 3.71932 89.9681 4.01936C90.2657 4.3194 90.6457 4.52427 91.0599 4.608C91.4741 4.69172 91.9038 4.65052 92.2946 4.48961C92.6853 4.32871 93.0195 4.05535 93.2546 3.70424C93.4898 3.35312 93.6153 2.94007 93.6153 2.51748C93.6153 1.95483 93.393 1.41496 92.9968 1.01547C92.6006 0.615975 92.0626 0.389228 91.4999 0.384616Z" fill="white"/>
<path d="M0 29.9057V25.2474H1.33548C3.14019 25.2474 3.78988 26.2847 3.78988 27.5105C3.80426 27.8267 3.75553 28.1426 3.64679 28.4381C3.53805 28.7335 3.37167 29.0021 3.15823 29.2268C2.66545 29.6922 2.01711 29.9361 1.35353 29.9057H0ZM0.577506 25.8132V29.3399H1.33548C1.57875 29.3666 1.82464 29.3361 2.05521 29.2508C2.28577 29.1655 2.49518 29.0274 2.66814 28.8466C2.8411 28.6659 2.97324 28.447 3.05491 28.2061C3.13658 27.9651 3.16571 27.7082 3.14019 27.454C3.14019 26.4167 2.58073 25.7566 1.33548 25.7566L0.577506 25.8132ZM4.78247 25.0022C4.82425 24.9997 4.86609 25.006 4.90543 25.021C4.94476 25.036 4.98074 25.0592 5.01117 25.0892C5.0416 25.1192 5.06583 25.1554 5.08236 25.1956C5.0989 25.2358 5.10739 25.2791 5.10732 25.3228C5.10732 25.4129 5.07309 25.4992 5.01217 25.5629C4.95125 25.6265 4.86862 25.6623 4.78247 25.6623C4.73832 25.6649 4.69413 25.658 4.65261 25.6421C4.61109 25.6262 4.57311 25.6016 4.54101 25.5698C4.50891 25.538 4.48335 25.4997 4.46591 25.4573C4.44847 25.4148 4.43951 25.3691 4.43957 25.3228C4.43927 25.2774 4.44823 25.2323 4.46585 25.1908C4.48348 25.1492 4.50936 25.112 4.54179 25.0817C4.57422 25.0514 4.61246 25.0286 4.65395 25.0149C4.69545 25.0012 4.73925 24.9969 4.78247 25.0022ZM4.51176 29.9057V26.4544H5.05317V29.9057H4.51176ZM8.78891 29.2456C8.6479 29.4745 8.45221 29.6609 8.22118 29.7866C7.99015 29.9123 7.73175 29.9728 7.47148 29.9623C6.99942 29.9804 6.53938 29.8043 6.19014 29.4719C6.02519 29.3036 5.89643 29.1005 5.81241 28.8761C5.7284 28.6517 5.69105 28.4112 5.70287 28.1706C5.68707 27.9214 5.71882 27.6713 5.79627 27.4349C5.87372 27.1986 5.99533 26.9807 6.15404 26.7939C6.31294 26.6184 6.50694 26.4818 6.7222 26.3938C6.93746 26.3058 7.16866 26.2685 7.39929 26.2847C7.61527 26.2798 7.8298 26.3226 8.02884 26.4104C8.22788 26.4981 8.40695 26.6288 8.5543 26.7939C8.70109 26.9421 8.81571 27.1215 8.89044 27.3199C8.96516 27.5184 8.99824 27.7313 8.98743 27.9443C8.99715 28.0824 8.99715 28.2211 8.98743 28.3592H6.28037C6.28679 28.5148 6.32387 28.6673 6.38928 28.8072C6.4547 28.9472 6.54705 29.0715 6.66055 29.1724C6.77405 29.2733 6.90625 29.3486 7.0489 29.3937C7.19154 29.4387 7.34154 29.4525 7.48953 29.4342C7.67809 29.4345 7.86386 29.3865 8.03059 29.2944C8.19732 29.2024 8.33995 29.0691 8.44602 28.9061L8.78891 29.2456ZM6.26233 27.85H8.35579C8.36668 27.7084 8.34801 27.5661 8.30107 27.4328C8.25414 27.2995 8.18005 27.1784 8.08394 27.078C7.98783 26.9775 7.87199 26.9001 7.74443 26.8511C7.61687 26.802 7.48063 26.7825 7.34515 26.7939C7.20767 26.7888 7.07059 26.8122 6.94175 26.8625C6.8129 26.9129 6.69482 26.9893 6.59425 27.0874C6.49369 27.1855 6.41261 27.3033 6.35565 27.4342C6.2987 27.565 6.26699 27.7063 6.26233 27.85ZM9.54689 29.9057V25.0588H10.0883V29.9057H9.54689ZM13.8601 29.189C13.7186 29.43 13.5192 29.6282 13.2818 29.7638C13.0444 29.8995 12.7771 29.9679 12.5066 29.9623C12.0345 29.9804 11.5745 29.8043 11.2253 29.4719C11.0603 29.3036 10.9316 29.1005 10.8475 28.8761C10.7635 28.6517 10.7262 28.4112 10.738 28.1706C10.7169 27.9194 10.7479 27.6663 10.8289 27.4287C10.9098 27.1912 11.0389 26.9746 11.2072 26.7939C11.5491 26.4592 12.0021 26.2766 12.4705 26.2847C12.734 26.2688 12.9969 26.3269 13.2317 26.4529C13.4665 26.5789 13.6648 26.7683 13.806 27.0013L13.3909 27.2842C13.2856 27.1335 13.1468 27.0118 12.9864 26.9297C12.8261 26.8476 12.649 26.8074 12.4705 26.8127C12.3161 26.8104 12.1629 26.841 12.0201 26.9026C11.8774 26.9642 11.7482 27.0556 11.6403 27.1711C11.5257 27.2924 11.4361 27.437 11.3771 27.5959C11.3181 27.7549 11.291 27.9248 11.2975 28.0952C11.289 28.263 11.3153 28.4307 11.3745 28.5869C11.4336 28.7431 11.5243 28.8842 11.6403 29.0004C11.7598 29.1208 11.9013 29.2146 12.0564 29.2762C12.2115 29.3378 12.3769 29.3659 12.5427 29.3588C12.73 29.3667 12.916 29.3218 13.0811 29.2289C13.2461 29.136 13.3843 28.9985 13.4811 28.8307L13.8601 29.189ZM14.564 26.7939C14.7298 26.6229 14.9276 26.4895 15.1449 26.4019C15.3622 26.3142 15.5945 26.2744 15.8273 26.2847C16.0601 26.2732 16.2927 26.3126 16.5102 26.4002C16.7277 26.4879 16.9254 26.622 17.0906 26.7939C17.2552 26.9634 17.3849 27.1662 17.4718 27.39C17.5587 27.6138 17.6009 27.8537 17.5959 28.0952C17.6006 28.3338 17.5581 28.5708 17.4712 28.7915C17.3842 29.0121 17.2547 29.2117 17.0906 29.3776C16.7532 29.7232 16.2997 29.9167 15.8273 29.9167C15.3549 29.9167 14.9013 29.7232 14.564 29.3776C14.4023 29.2107 14.2754 29.0106 14.1916 28.7898C14.1077 28.5691 14.0686 28.3325 14.0767 28.0952C14.0683 27.855 14.1071 27.6155 14.191 27.3916C14.2748 27.1678 14.4018 26.9643 14.564 26.7939ZM14.9791 29.0004C15.0749 29.1269 15.1951 29.2308 15.3319 29.3056C15.4687 29.3803 15.6191 29.4241 15.7731 29.4342C15.9335 29.4418 16.0937 29.4138 16.243 29.352C16.3923 29.2903 16.5274 29.1961 16.6394 29.0759C16.7494 28.9559 16.835 28.8138 16.8908 28.6581C16.9467 28.5025 16.9716 28.3366 16.9642 28.1706C16.9744 28.0027 16.9508 27.8343 16.895 27.6765C16.8393 27.5186 16.7525 27.3746 16.6403 27.2539C16.5282 27.1331 16.3931 27.0382 16.2437 26.9752C16.0944 26.9122 15.9341 26.8826 15.7731 26.8882C15.616 26.8855 15.4599 26.9158 15.3142 26.9774C15.1685 27.0389 15.0361 27.1304 14.9249 27.2465C14.8119 27.3691 14.7234 27.5139 14.6646 27.6726C14.6057 27.8312 14.5776 28.0005 14.582 28.1706C14.5839 28.3421 14.6202 28.5113 14.6886 28.6673C14.757 28.8232 14.856 28.9624 14.9791 29.0759V29.0004ZM22.9919 29.9057H22.4505V27.7746C22.4505 27.1899 22.234 26.907 21.7647 26.907C21.5713 26.9009 21.3807 26.9574 21.2192 27.0688C21.0576 27.1802 20.933 27.3411 20.8624 27.5294V29.9057H20.321V27.6048C20.3265 27.5101 20.3124 27.4152 20.2797 27.3266C20.2469 27.238 20.1963 27.1579 20.1312 27.0917C20.0661 27.0254 19.988 26.9746 19.9025 26.9428C19.8169 26.9109 19.7257 26.8987 19.6352 26.907C19.435 26.9146 19.2416 26.9853 19.0806 27.1098C18.9195 27.2344 18.7983 27.4069 18.7328 27.6048V29.9057H18.1914V26.4544H18.7328V26.907C18.8463 26.7385 18.998 26.602 19.1744 26.5098C19.3508 26.4176 19.5464 26.3727 19.7435 26.379C19.9376 26.3571 20.1336 26.3955 20.307 26.4894C20.4803 26.5833 20.6233 26.7286 20.718 26.907C20.8428 26.7325 21.007 26.5929 21.1959 26.5008C21.3848 26.4086 21.5927 26.3668 21.8008 26.379C21.9612 26.3541 22.1248 26.3686 22.2789 26.4211C22.433 26.4736 22.5733 26.5628 22.6888 26.6817C22.8043 26.8005 22.8918 26.9457 22.9444 27.106C22.997 27.2662 23.0133 27.4369 22.9919 27.6048V29.9057ZM23.786 28.3215V27.8123H25.4102V28.3215H23.786ZM26.3848 29.9057V25.2474H29.5791V25.8132H26.9623V27.2654H29.3986V27.8123H26.9623V29.3399H29.6333V29.9057H26.3848ZM34.1992 29.1513C33.9919 29.4147 33.7296 29.6248 33.4323 29.7655C33.135 29.9061 32.8108 29.9734 32.4847 29.9623C32.1767 29.9769 31.8691 29.9259 31.5806 29.8124C31.2921 29.699 31.0286 29.5254 30.8063 29.3022C30.5929 29.0776 30.4265 28.809 30.3178 28.5135C30.209 28.2181 30.1603 27.9022 30.1747 27.586C30.1656 27.2704 30.2168 26.9561 30.3252 26.6614C30.4337 26.3668 30.5972 26.0976 30.8063 25.8698C31.2613 25.4202 31.8684 25.1777 32.4943 25.1954C33.1203 25.2131 33.7139 25.4895 34.145 25.9641L33.766 26.3413C33.5947 26.1585 33.3895 26.0141 33.163 25.9168C32.9365 25.8195 32.6934 25.7714 32.4486 25.7755C32.2224 25.761 31.9959 25.7972 31.7842 25.8818C31.5725 25.9664 31.3806 26.0973 31.2214 26.2658C30.9208 26.6318 30.7658 27.1042 30.7883 27.586C30.7803 28.0664 30.9482 28.5318 31.2575 28.8873C31.4248 29.0549 31.6233 29.1848 31.8405 29.2692C32.0578 29.3535 32.2893 29.3904 32.5208 29.3776C32.772 29.3624 33.0173 29.2924 33.2411 29.1723C33.4648 29.0521 33.6621 28.8844 33.8202 28.6798L34.1992 29.1513ZM40.4795 29.1513C40.2612 29.4256 39.9839 29.642 39.6702 29.7829C39.3566 29.9239 39.0155 29.9853 38.6748 29.9623C38.3697 29.9754 38.0653 29.9237 37.7799 29.8102C37.4945 29.6968 37.2341 29.5239 37.0145 29.3022C36.8011 29.0776 36.6347 28.809 36.5259 28.5135C36.4172 28.2181 36.3685 27.9022 36.3829 27.586C36.3738 27.2704 36.4249 26.9561 36.5334 26.6614C36.6418 26.3668 36.8054 26.0976 37.0145 25.8698C37.4695 25.4202 38.0766 25.1777 38.7025 25.1954C39.3284 25.2131 39.9221 25.4895 40.3532 25.9641L39.9742 26.3413C39.8028 26.1585 39.5977 26.0141 39.3712 25.9168C39.1447 25.8195 38.9016 25.7714 38.6568 25.7755C38.4306 25.761 38.2041 25.7972 37.9924 25.8818C37.7807 25.9664 37.5888 26.0973 37.4296 26.2658C37.129 26.6318 36.974 27.1042 36.9965 27.586C36.9835 27.8251 37.0185 28.0644 37.0993 28.2885C37.1801 28.5126 37.3049 28.7166 37.4657 28.8873C37.6303 29.0534 37.8257 29.1826 38.0398 29.2669C38.254 29.3513 38.4823 29.3889 38.7109 29.3776C38.9688 29.3824 39.2247 29.3292 39.4613 29.2219C39.6979 29.1145 39.9097 28.9554 40.0825 28.7553L40.4795 29.1513ZM41.1292 26.7939C41.2951 26.6229 41.4928 26.4895 41.7102 26.4019C41.9275 26.3142 42.1598 26.2744 42.3925 26.2847C42.8609 26.2766 43.3139 26.4592 43.6558 26.7939C43.818 26.9643 43.945 27.1678 44.0288 27.3916C44.1126 27.6155 44.1515 27.855 44.1431 28.0952C44.1512 28.3325 44.1121 28.5691 44.0282 28.7898C43.9443 29.0106 43.8175 29.2107 43.6558 29.3776C43.3139 29.7123 42.8609 29.8949 42.3925 29.8868C42.1598 29.8972 41.9275 29.8573 41.7102 29.7697C41.4928 29.6821 41.2951 29.5486 41.1292 29.3776C40.9675 29.2107 40.8407 29.0106 40.7568 28.7898C40.673 28.5691 40.6338 28.3325 40.642 28.0952C40.6335 27.855 40.6724 27.6155 40.7562 27.3916C40.84 27.1678 40.967 26.9643 41.1292 26.7939ZM41.5263 29.0004C41.6383 29.1207 41.7733 29.2148 41.9227 29.2766C42.072 29.3384 42.2321 29.3664 42.3925 29.3588C42.5526 29.3671 42.7125 29.34 42.8619 29.2792C43.0112 29.2183 43.1466 29.1252 43.259 29.0059C43.3715 28.8866 43.4586 28.7438 43.5145 28.5868C43.5704 28.4299 43.594 28.2623 43.5836 28.0952C43.5885 27.7523 43.4655 27.4209 43.2407 27.1711C43.0138 26.9401 42.7093 26.8115 42.3925 26.8127C42.2354 26.81 42.0793 26.8404 41.9336 26.9019C41.7879 26.9635 41.6555 27.055 41.5443 27.1711C41.4278 27.291 41.337 27.4353 41.2779 27.5947C41.2188 27.754 41.1927 27.9246 41.2014 28.0952C41.1872 28.2733 41.2087 28.4525 41.2647 28.6214C41.3206 28.7903 41.4097 28.9451 41.5263 29.0759V29.0004ZM46.7238 29.9057V25.2474H47.3013V29.3399H49.9362V29.9057H46.7238ZM50.0625 26.9825V26.4544H50.7483V25.568H51.2717V26.4544H52.4086V26.9825H51.2717V28.4912C51.2717 29.1702 51.4341 29.4154 51.8492 29.4154C52.0694 29.4107 52.2807 29.3237 52.4447 29.1702L52.6793 29.5851C52.5613 29.7129 52.4174 29.8115 52.2581 29.8735C52.0988 29.9355 51.9282 29.9594 51.7589 29.9434C51.0912 29.9434 50.7483 29.4908 50.7483 28.6421V26.9825H50.0625ZM55.4766 29.9057V29.4908C55.3535 29.6493 55.1959 29.7747 55.0169 29.8568C54.838 29.9388 54.643 29.9749 54.448 29.9623C54.2289 29.975 54.0098 29.9396 53.8046 29.8584C53.5994 29.7772 53.4128 29.652 53.2568 29.4908C52.9541 29.1325 52.7928 28.6673 52.8057 28.1895C52.7958 27.9463 52.834 27.7035 52.9178 27.4764C53.0016 27.2493 53.1293 27.0426 53.2929 26.8693C53.4478 26.7041 53.6334 26.5737 53.8382 26.4862C54.043 26.3986 54.2628 26.3557 54.4841 26.3601C54.6689 26.3588 54.8522 26.3965 55.0227 26.471C55.1933 26.5456 55.3477 26.6554 55.4766 26.7939V25.1531H56V30L55.4766 29.9057ZM55.4766 28.7741V27.3785C55.3757 27.2219 55.2382 27.0947 55.0772 27.0089C54.9161 26.9231 54.7369 26.8816 54.5562 26.8882C54.3975 26.888 54.2404 26.9215 54.0945 26.9866C53.9485 27.0517 53.8167 27.1471 53.707 27.267C53.5973 27.3869 53.5121 27.5288 53.4564 27.6841C53.4008 27.8394 53.3759 28.0049 53.3832 28.1706C53.3676 28.3342 53.3857 28.4993 53.4363 28.6549C53.487 28.8105 53.5689 28.9529 53.6766 29.0727C53.7844 29.1924 53.9154 29.2866 54.0609 29.349C54.2064 29.4113 54.363 29.4404 54.5201 29.4342C54.7212 29.4226 54.9158 29.3553 55.0838 29.2394C55.2519 29.1234 55.3874 28.9628 55.4766 28.7741Z" fill="white"/>
</svg>
