<svg width="30" height="24" viewBox="0 0 30 24" fill="none" xmlns="http://www.w3.org/2000/svg">
<path d="M3.35577 0.112398C3.26857 0.21283 3.26857 0.271416 3.33833 0.338369C3.48656 0.480648 3.46912 0.840527 3.29473 1.16693C3.07675 1.59376 3.08547 2.54786 3.31217 2.89101L3.49528 3.16719L3.00699 3.66098C1.89091 4.7741 0.521976 7.57781 0.129605 9.53623C0.0772889 9.78731 0.0249728 10.574 0.00753405 11.2854C-0.018624 12.3483 0.0162534 12.9174 0.225518 14.4239C0.556853 16.8845 0.835872 18.0478 1.36775 19.1944C1.60318 19.6966 1.87348 20.2406 1.96939 20.3912C2.18737 20.7595 2.18737 20.7846 1.82988 20.9771C1.62061 21.1026 1.44623 21.3118 1.24568 21.7219C1.00154 22.199 0.896908 22.3162 0.583011 22.4584C0.181921 22.6342 0.103447 22.8518 0.382466 23.0024C0.478379 23.0443 0.844592 23.0861 1.20209 23.0861C1.84732 23.0861 2.03042 23.0275 2.82388 22.5756C2.98955 22.4835 3.04187 22.4835 3.06803 22.5672C3.17266 22.835 3.84405 23.5381 4.21026 23.764C4.63751 24.0235 4.83806 24.057 5.09964 23.9231C5.25658 23.8394 5.25658 23.831 5.09964 23.4795C4.97756 23.2284 4.93397 22.9522 4.94269 22.5254C4.95141 22.0651 4.91653 21.8726 4.7683 21.6382L4.58519 21.3369L5.04732 21.0859C5.5792 20.7929 6.38138 20.0146 6.26803 19.9058C6.00645 19.6547 4.56776 19.6882 3.83533 19.9476C3.62607 20.0313 3.39936 20.0732 3.33833 20.0481C3.1465 19.9811 2.49255 18.6337 2.30944 17.9306C2.21353 17.5791 2.14378 17.2695 2.16121 17.2611C2.17865 17.2444 2.48383 17.5038 2.84132 17.8386C3.98356 18.9182 5.12579 19.3785 6.46857 19.2948C7.01789 19.2614 7.31435 19.1944 7.75032 19.0019C8.35195 18.7257 9.12798 18.098 9.33724 17.713L9.46803 17.4787L9.86912 17.7716C10.4359 18.1901 11.0724 18.3491 11.9443 18.2989C13.2174 18.2152 14.1939 17.5708 15.8419 15.7211C17.1411 14.2565 17.8386 13.6288 18.5013 13.3024C18.9111 13.1016 19.1814 13.0764 19.1116 13.2271C19.0855 13.2857 18.946 13.5953 18.8065 13.9217C18.3879 14.8758 18.3095 15.2357 18.231 16.7673C18.2223 16.9849 17.8212 17.0435 17.6555 16.851C17.5945 16.7757 17.5334 16.4995 17.516 16.24C17.4986 15.8383 17.4637 15.763 17.3242 15.7379C17.1934 15.7211 17.0975 15.8132 16.9231 16.148C16.801 16.3907 16.6964 16.6418 16.6964 16.7004C16.6964 16.8259 16.4697 16.851 16.3912 16.7255C16.365 16.6836 16.1645 16.6418 15.9465 16.6418C15.4844 16.6418 15.4321 16.8008 15.8244 17.077C15.9727 17.1774 16.086 17.3364 16.086 17.4285C16.0947 17.9725 16.6441 18.5667 17.1323 18.5667C17.4026 18.5667 17.9345 18.3324 18.1787 18.1064L18.4054 17.8972L18.5536 18.4663C18.7803 19.2948 19.1465 19.6296 20.0969 19.9058C20.6637 20.0732 20.9427 20.0564 21.0735 19.8723C21.1868 19.7133 21.152 19.6715 20.8729 19.6129C20.6114 19.5543 19.9225 18.9852 19.9225 18.8178C19.9225 18.7759 20.0272 18.709 20.1667 18.6839C20.6898 18.5583 21.056 18.1482 21.056 17.6879C21.056 17.4201 20.8032 17.4034 20.4457 17.6545C19.8964 18.0478 19.4691 17.5875 19.3645 16.4744C19.2773 15.4784 19.6697 14.223 20.3062 13.5033L20.5939 13.1769L20.8381 13.6288C20.9689 13.8799 21.3002 14.3904 21.5792 14.7587C21.8495 15.1269 22.146 15.5621 22.2332 15.7211C22.5819 16.3823 22.4511 17.6628 21.9803 18.2068C21.6664 18.5667 21.6577 18.7676 21.9541 18.801C22.0849 18.8178 22.3116 18.7676 22.4686 18.7006C22.6168 18.6253 22.7563 18.5834 22.7825 18.6002C22.8261 18.6504 22.3291 19.4455 22.0501 19.7635C21.9367 19.8974 21.8582 20.0397 21.8931 20.0815C21.9977 20.2489 22.5296 20.1485 22.9394 19.8807C23.698 19.3953 23.9683 18.8178 23.977 17.6628C23.977 17.2862 24.0032 16.9765 24.0381 16.9765C24.0729 16.9765 24.2473 17.0602 24.4304 17.1607C24.8838 17.4201 25.3111 17.5624 25.6773 17.5624C26.0174 17.5624 26.5841 17.2778 26.5318 17.1272C26.5056 17.0686 26.3051 16.9849 26.061 16.9347C25.2501 16.7506 24.3607 16.1731 23.0964 14.993C21.8757 13.8464 21.4048 13.1936 21.4048 12.6245C21.4048 12.3232 21.5095 12.2897 22.3204 12.3483C22.9743 12.3985 22.983 12.3985 23.1487 12.6998C23.3405 13.0513 23.6719 13.3024 24.0468 13.3694C24.2561 13.4112 24.3345 13.4865 24.3868 13.6874C24.5699 14.3653 25.4157 14.5997 25.9738 14.1226L26.2789 13.8715L26.5492 14.064C27.1073 14.4574 27.9967 14.1812 28.1972 13.5451C28.2931 13.2271 28.3193 13.2104 28.6506 13.2104C29.4179 13.2104 29.8626 12.8756 29.8626 12.3065C29.8626 11.7959 29.6882 11.5616 29.1215 11.3189C28.7204 11.1515 28.6506 11.0846 28.546 10.7665C28.4588 10.5322 28.328 10.3481 28.1274 10.2225C27.831 10.03 27.3078 9.97143 27.0898 10.1053C27.0114 10.1472 26.8893 10.0886 26.7236 9.94633C26.5841 9.82079 26.2877 9.67014 26.061 9.61992C25.7122 9.53623 25.625 9.5446 25.3896 9.67851C25.2326 9.7622 25.0234 9.96307 24.91 10.1137C24.7269 10.3815 24.6659 10.4066 24.2561 10.415C23.8288 10.4234 23.7852 10.4485 23.4103 10.8502L23.0005 11.2854H22.3378C21.9716 11.2854 21.6664 11.2519 21.6664 11.2185C21.6664 11.1766 21.8844 10.9172 22.1372 10.641C22.6343 10.1221 22.9481 9.93796 24.2735 9.40232C25.189 9.0257 25.2413 8.99223 25.8168 8.33942C26.1656 7.94606 26.34 7.65314 26.5144 7.16772C26.6364 6.80784 26.7149 6.48144 26.68 6.43122C26.5667 6.25546 26.2964 6.3559 25.8604 6.73252L25.4157 7.1175L25.4768 6.48144C25.5378 5.70309 25.3721 5.09213 24.8577 4.21336C24.6746 3.89532 24.4828 3.51033 24.4392 3.35969C24.3432 3.02491 24.1863 3.00818 23.9334 3.30947C23.7678 3.5187 23.7416 3.61913 23.7765 4.1464C23.8201 4.80758 23.8375 4.79921 23.2969 4.38911C23.0441 4.19662 22.9481 4.16314 22.8697 4.23846C22.7825 4.32216 22.7912 4.38074 22.8871 4.53139C23.3754 5.25115 23.5934 5.82026 23.6457 6.48144C23.7416 7.70335 23.4713 8.28084 22.5035 8.90016C22.0152 9.2182 21.1084 10.0133 20.8119 10.3983C20.7073 10.5322 20.6026 10.6242 20.5939 10.6075C20.4108 10.3815 20.2364 9.50275 20.2016 8.68256C20.1667 7.61129 20.2451 7.20956 20.6898 6.34753C21.0386 5.66961 21.6751 5.46038 21.8059 5.97928C21.8669 6.20525 22.0588 6.2471 22.1372 6.04623C22.1634 5.97091 22.1896 5.77841 22.1896 5.60266C22.1896 5.25952 21.9018 4.92475 21.4746 4.76573C21.3351 4.71551 21.2304 4.64019 21.2304 4.58997C21.2304 4.43096 22.0937 3.61077 22.3988 3.46849C22.7214 3.32621 22.9307 3.11698 22.8261 3.05839C22.7912 3.04165 22.4337 3.05002 22.0413 3.0835C21.0125 3.17556 20.6462 3.42664 20.0795 4.42259C19.9574 4.63182 19.8092 5.00007 19.7481 5.24278C19.6435 5.66961 19.6261 5.69472 19.4081 5.64451C18.728 5.50223 18.3618 5.49386 18.0915 5.62777C17.6293 5.84537 17.3503 5.80352 17.0539 5.46038L16.801 5.15072L16.6964 5.50223C16.583 5.92069 16.6877 6.31405 17.0103 6.74088C17.1411 6.90827 17.2195 7.1175 17.2195 7.31C17.2195 7.71172 17.4201 8.14693 17.6817 8.30594C18.0566 8.54865 18.3879 8.25573 18.1351 7.91259C17.9694 7.67825 17.9694 7.26815 18.1438 7.03381C18.3007 6.81621 18.4577 6.79947 18.7454 6.98359C19.0419 7.16772 19.1378 7.51923 19.1378 8.4817C19.1378 9.36884 19.2337 10.0719 19.4517 10.6912C19.5214 10.8921 19.565 11.0678 19.5563 11.0846C19.5127 11.118 18.5885 10.8167 18.2746 10.6577C17.7601 10.4066 16.74 9.75383 16.2866 9.38558C16.0424 9.19309 15.8157 9.0257 15.7808 9.0257C15.746 9.0257 15.4059 8.74115 15.0135 8.39801C14.2986 7.76194 13.2348 7.09239 12.5721 6.87479C12.328 6.7911 11.9966 6.76599 11.5956 6.78273C10.9852 6.82458 10.68 6.93338 10.2266 7.28489L9.99119 7.46064L9.79065 7.21793C9.32852 6.64045 8.63969 6.02112 8.22988 5.80352C7.80263 5.57755 7.7416 5.57755 6.9743 5.62777C6.0762 5.68635 5.36122 5.88721 4.46312 6.31405C3.89637 6.59024 2.64078 7.4188 2.52743 7.60292C2.40536 7.78705 2.32688 7.66988 2.40536 7.4188C2.44895 7.26815 2.48383 7.05892 2.48383 6.95012C2.48383 6.69067 3.25985 5.05029 3.65222 4.48117L3.97484 4.02086L4.70726 4.72388C5.46585 5.45201 5.70999 5.56918 5.8931 5.25115C6.02389 5.01681 5.92797 4.57323 5.6228 3.99575L5.37865 3.53544L5.91054 3.42664C6.31163 3.34295 6.58193 3.21741 7.03533 2.89938C7.35795 2.66504 7.62825 2.44743 7.62825 2.41396C7.62825 2.18798 6.73015 1.8281 6.1634 1.8281C5.79718 1.8281 5.04732 2.06244 4.91653 2.21309C4.74214 2.41396 4.66367 2.347 4.66367 1.99549C4.66367 1.26736 4.48928 0.807051 4.05331 0.380217C3.60863 -0.0466194 3.52143 -0.0800953 3.35577 0.112398ZM7.13124 7.61129C7.52362 7.80379 7.85495 8.04649 8.70073 8.76625C9.73833 9.63666 9.87784 9.66177 10.9154 9.26841C11.4822 9.05081 11.6653 9.01733 12.0228 9.06755C12.6157 9.14287 12.8337 9.26004 13.7056 10.0468C14.7432 10.9841 15.1356 11.2603 15.8593 11.5951C16.1994 11.7541 16.5394 11.9131 16.6092 11.955C16.6789 12.0052 16.8272 12.0721 16.9405 12.1223C17.2108 12.2311 17.1847 12.2981 16.74 12.5659C16.2168 12.884 14.7084 14.0724 13.9062 14.8005C13.4877 15.1771 13.0168 15.5035 12.607 15.7044C12.0315 15.9722 11.8746 16.0141 11.3253 16.0141C10.7934 16.0141 10.6103 15.9722 10.2092 15.7714C9.76449 15.5454 9.69473 15.537 9.38084 15.6207C9.19773 15.6793 8.73561 15.9136 8.36067 16.1563C7.5149 16.6836 6.84351 16.8928 5.97157 16.8928C4.83806 16.8928 4.20154 16.6418 3.31217 15.8299C2.44895 15.0516 1.98683 14.2649 1.86476 13.3777C1.82116 13.0095 1.80372 12.6663 1.82988 12.6245C1.93451 12.4571 2.13506 12.5408 2.13506 12.7417C2.13506 13.1267 2.46639 13.6874 2.96339 14.1561C3.70454 14.8507 3.88765 14.7838 3.71326 13.8632C3.66094 13.5702 3.53015 13.1601 3.4168 12.9425L3.20754 12.5408H3.43424C3.6435 12.5408 3.67838 12.591 3.78301 12.9342C3.86149 13.2355 4.001 13.4363 4.30617 13.7125C4.89909 14.2398 6.02389 14.6415 6.18955 14.3821C6.26803 14.2649 5.51816 13.202 5.14323 12.884C4.67239 12.4906 4.93397 12.432 5.81462 12.7166C6.59936 12.9844 7.14868 12.9593 7.86367 12.6329C8.88383 12.1726 8.90999 12.1475 8.48274 11.9382C7.52362 11.4863 6.6168 11.3942 6.10236 11.7039C5.83206 11.8629 4.96013 11.9466 5.02988 11.8043C5.31762 11.2268 5.65767 10.8669 6.14596 10.6326C6.3465 10.5405 6.45114 10.4317 6.45114 10.3229C6.45114 9.96307 5.04732 10.1221 4.38465 10.5657C4.10563 10.7498 3.77429 11.2519 3.66966 11.6369C3.62607 11.8294 3.56503 11.8713 3.35577 11.8713C3.20754 11.8713 3.09418 11.8462 3.09418 11.8043C3.09418 11.7708 3.1901 11.5616 3.31217 11.3356C3.43424 11.1097 3.53015 10.8586 3.53015 10.7749C3.53015 10.6912 3.65222 10.4903 3.79173 10.3397C3.93996 10.1807 4.05331 10.03 4.05331 9.99654C4.05331 9.73709 2.63206 10.4317 2.36176 10.8251C2.27457 10.9506 2.18737 11.2017 2.15249 11.3858C2.11762 11.5783 2.03042 11.7541 1.96939 11.7708C1.69037 11.8629 2.1089 10.5154 2.57102 9.83753C3.17266 8.98386 4.61135 7.89585 5.60536 7.55271C6.09364 7.38532 6.71272 7.41043 7.13124 7.61129Z" fill="#0066C3"/>
</svg>
