<svg width="386" height="408" viewBox="0 0 386 408" fill="none" xmlns="http://www.w3.org/2000/svg">
<path opacity="0.06" d="M451.802 1.91074C453.288 3.61807 453.288 4.61401 452.099 5.75226C449.573 8.17096 449.87 14.2889 452.842 19.8378C456.558 27.094 456.409 43.3137 452.545 49.1471L449.424 53.8423L457.747 62.2367C476.77 81.1596 500.103 128.823 506.791 162.116C507.683 166.384 508.574 179.758 508.872 191.852C509.317 209.921 508.723 219.596 505.156 245.206C499.509 287.036 494.753 306.813 485.687 326.305C481.674 334.842 477.067 344.09 475.432 346.651C471.717 352.911 471.717 353.338 477.81 356.61C481.377 358.744 484.349 362.301 487.768 369.273C491.929 377.383 493.712 379.375 499.063 381.793C505.899 384.781 507.237 388.48 502.481 391.041C500.846 391.753 494.604 392.464 488.511 392.464C477.513 392.464 474.392 391.468 460.868 383.785C458.044 382.22 457.152 382.22 456.706 383.643C454.923 388.196 443.479 400.147 437.237 403.989C429.955 408.399 426.537 408.968 422.078 406.692C419.403 405.269 419.403 405.127 422.078 399.151C424.159 394.883 424.902 390.188 424.753 382.932C424.605 375.106 425.199 371.834 427.726 367.85L430.847 362.728L422.97 358.46C413.904 353.48 400.231 340.248 402.163 338.398C406.622 334.13 431.144 334.699 443.628 339.11C447.195 340.533 451.059 341.244 452.099 340.817C455.369 339.679 466.515 316.772 469.636 304.821C471.271 298.845 472.46 293.581 472.163 293.439C471.865 293.154 466.664 297.565 460.57 303.256C441.101 321.61 421.632 329.435 398.745 328.012C389.382 327.443 384.329 326.305 376.898 323.032C366.643 318.337 353.416 307.666 349.849 301.122L347.62 297.138L340.783 302.118C331.123 309.231 320.274 311.935 305.412 311.081C283.714 309.658 267.068 298.703 238.979 267.259C216.835 242.361 204.946 231.69 193.651 226.141C186.665 222.726 182.058 222.3 183.247 224.861C183.693 225.856 186.071 231.121 188.449 236.67C195.583 252.889 196.92 259.007 198.258 285.044C198.406 288.743 205.243 289.739 208.067 286.467C209.107 285.186 210.147 280.491 210.445 276.081C210.742 269.251 211.336 267.971 213.714 267.544C215.943 267.259 217.578 268.824 220.551 274.516C222.631 278.642 224.415 282.91 224.415 283.906C224.415 286.04 228.279 286.467 229.616 284.333C230.062 283.621 233.48 282.91 237.196 282.91C245.073 282.91 245.965 285.613 239.277 290.308C236.75 292.016 234.818 294.719 234.818 296.284C234.669 305.532 225.306 315.634 216.984 315.634C212.377 315.634 203.311 311.65 199.15 307.809L195.285 304.252L192.759 313.927C188.895 328.012 182.653 333.703 166.453 338.398C156.793 341.244 152.037 340.959 149.808 337.829C147.876 335.126 148.47 334.415 153.226 333.419C157.685 332.423 169.426 322.748 169.426 319.902C169.426 319.191 167.642 318.053 165.264 317.626C156.347 315.492 150.105 308.52 150.105 300.695C150.105 296.142 154.415 295.857 160.509 300.126C169.872 306.813 177.154 298.987 178.937 280.064C180.424 263.133 173.736 241.792 162.886 229.556L157.982 224.007L153.821 231.69C151.591 235.958 145.944 244.637 141.188 250.897C136.581 257.158 131.528 264.556 130.042 267.259C124.097 278.499 126.326 300.268 134.352 309.516C139.702 315.634 139.851 319.049 134.797 319.618C132.568 319.902 128.704 319.049 126.029 317.91C123.502 316.63 121.125 315.919 120.679 316.203C119.936 317.057 128.407 330.573 133.163 335.98C135.095 338.256 136.432 340.675 135.838 341.386C134.054 344.232 124.989 342.525 118.004 337.972C105.074 329.72 100.466 319.902 100.318 300.268C100.318 293.865 99.872 288.601 99.2775 288.601C98.683 288.601 95.7107 290.024 92.5897 291.731C84.8615 296.142 77.5791 298.561 71.3371 298.561C65.541 298.561 55.8808 293.723 56.7725 291.162C57.2183 290.166 60.6366 288.743 64.7979 287.89C78.6195 284.76 93.7786 274.942 115.328 254.881C136.135 235.389 144.16 224.291 144.16 214.617C144.16 209.495 142.377 208.925 128.555 209.921C117.409 210.775 117.26 210.775 114.437 215.897C111.167 221.873 105.52 226.141 99.1289 227.279C95.562 227.991 94.2245 229.271 93.3328 232.686C90.2118 244.21 75.7957 248.194 66.2841 240.084L61.0824 235.816L56.4752 239.088C46.9636 245.775 31.8045 241.08 28.3862 230.267C26.7514 224.861 26.3056 224.576 20.6581 224.576C7.57956 224.576 0 218.885 0 209.21C0 200.531 2.97238 196.547 12.6326 192.421C19.4691 189.576 20.6581 188.437 22.4415 183.031C23.9277 179.047 26.157 175.917 29.5752 173.783C34.6282 170.51 43.5454 169.514 47.2609 171.791C48.5984 172.502 50.6791 171.506 53.5028 169.088C55.8808 166.953 60.9338 164.392 64.7979 163.539C70.7426 162.116 72.2289 162.258 76.2416 164.535C78.9167 165.957 82.4836 169.372 84.4156 171.933C87.5366 176.486 88.5769 176.913 95.562 177.055C102.844 177.197 103.587 177.624 109.978 184.454L116.963 191.852H128.258C134.5 191.852 139.702 191.283 139.702 190.714C139.702 190.002 135.986 185.592 131.676 180.897C123.205 172.075 117.855 168.945 95.2648 159.839C79.6598 153.437 78.7681 152.868 68.9592 141.77C63.0145 135.083 60.0421 130.103 57.0697 121.851C54.989 115.733 53.6515 110.184 54.2459 109.331C56.178 106.343 60.7852 108.05 68.2161 114.453L75.7957 120.998L74.7554 110.184C73.715 96.9525 76.5388 86.5662 85.3073 71.627C88.4283 66.2205 91.6979 59.6757 92.441 57.1147C94.0758 51.4235 96.751 51.139 101.061 56.261C103.885 59.8179 104.331 61.5253 103.736 70.4888C102.993 81.7288 102.696 81.5865 111.91 74.6149C116.22 71.3425 117.855 70.7733 119.192 72.0538C120.679 73.4766 120.53 74.4726 118.895 77.0336C110.573 89.2695 106.857 98.9444 105.965 110.184C104.331 130.957 108.938 140.774 125.434 151.303C133.757 156.709 149.214 170.226 154.267 176.771C156.05 179.047 157.833 180.612 157.982 180.327C161.103 176.486 164.075 161.547 164.67 147.604C165.264 129.392 163.927 122.563 156.347 107.908C150.402 96.3834 139.553 92.8264 137.324 101.648C136.284 105.489 133.014 106.201 131.676 102.786C131.231 101.505 130.785 98.233 130.785 95.2452C130.785 89.4118 135.689 83.7206 142.972 81.0174C145.349 80.1637 147.133 78.8832 147.133 78.0295C147.133 75.3262 132.42 61.383 127.218 58.9643C121.719 56.5455 118.152 52.9886 119.936 51.9926C120.53 51.7081 126.623 51.8503 133.311 52.4195C150.848 53.9845 157.09 58.2529 166.751 75.184C168.831 78.7409 171.358 85.0012 172.398 89.1272C174.182 96.3834 174.479 96.8102 178.194 95.9566C189.786 93.5378 196.029 93.3956 200.636 95.672C208.513 99.3712 213.268 98.6599 218.321 92.8264L222.631 87.5622L224.415 93.5378C226.347 100.652 224.563 107.339 219.064 114.595C216.835 117.441 215.498 120.998 215.498 124.27C215.498 131.099 212.079 138.498 207.621 141.201C201.23 145.327 195.583 140.347 199.893 134.514C202.716 130.53 202.716 123.559 199.744 119.575C197.069 115.876 194.394 115.591 189.489 118.721C184.436 121.851 182.801 127.827 182.801 144.189C182.801 159.27 181.167 171.222 177.451 181.75C176.262 185.165 175.519 188.153 175.668 188.437C176.411 189.006 192.164 183.884 197.515 181.181C206.283 176.913 223.672 165.815 231.4 159.555C235.561 156.283 239.425 153.437 240.02 153.437C240.614 153.437 246.41 148.599 253.098 142.766C265.285 131.953 283.417 120.571 294.712 116.871C298.873 115.449 304.52 115.022 311.357 115.306C321.76 116.018 326.962 117.867 334.69 123.843L338.703 126.831L342.121 122.705C349.998 112.888 361.739 102.359 368.724 98.6599C376.006 94.8184 377.046 94.8184 390.125 95.672C405.433 96.668 417.619 100.083 432.927 107.339C442.587 112.034 463.989 126.12 465.921 129.25C468.001 132.38 469.339 130.388 468.001 126.12C467.258 123.559 466.664 120.002 466.664 118.152C466.664 113.741 453.437 85.8548 446.749 76.1799L441.25 68.3546L428.766 80.306C415.836 92.6842 411.675 94.6761 408.554 89.2695C406.324 85.2857 407.959 77.745 413.161 67.9278L417.322 60.1025L408.256 58.2529C401.42 56.8301 396.813 54.6959 389.085 49.2893C383.586 45.3056 378.979 41.6063 378.979 41.0372C378.979 37.1957 394.286 31.0778 403.947 31.0778C410.189 31.0778 422.97 35.0615 425.199 37.6225C428.171 41.0372 429.509 39.899 429.509 33.9233C429.509 21.5451 432.481 13.7198 439.912 6.46362C447.492 -0.792542 448.978 -1.36166 451.802 1.91074ZM387.45 129.392C380.762 132.664 375.114 136.79 360.698 149.026C343.013 163.823 340.635 164.25 322.949 157.563C313.289 153.864 310.168 153.295 304.075 154.148C293.968 155.429 290.253 157.421 275.391 170.795C257.705 186.73 251.018 191.425 238.682 197.116C232.886 199.82 227.09 202.523 225.901 203.234C224.712 204.088 222.185 205.226 220.253 206.08C215.646 207.929 216.092 209.068 223.672 213.621C232.589 219.027 258.3 239.231 271.973 251.609C279.107 258.011 287.132 263.56 294.117 266.975C303.926 271.528 306.601 272.239 315.964 272.239C325.03 272.239 328.151 271.528 334.987 268.113C342.567 264.272 343.756 264.129 349.106 265.552C352.227 266.548 360.104 270.532 366.495 274.658C380.911 283.621 392.354 287.178 407.216 287.178C426.537 287.178 437.386 282.91 452.545 269.109C467.258 255.877 475.135 242.503 477.216 227.422C477.959 221.161 478.256 215.328 477.81 214.617C476.027 211.771 472.609 213.194 472.609 216.608C472.609 223.153 466.961 232.686 458.49 240.653C445.857 252.463 442.736 251.324 445.708 235.674C446.6 230.694 448.829 223.722 450.762 220.023L454.328 213.194H450.464C446.897 213.194 446.303 214.047 444.52 219.881C443.182 225.003 440.804 228.417 435.602 233.113C425.496 242.076 406.324 248.906 403.501 244.495C402.163 242.503 414.944 224.434 421.335 219.027C429.36 212.34 424.902 211.344 409.891 216.182C396.516 220.734 387.153 220.308 374.966 214.759C357.577 206.934 357.132 206.507 364.414 202.95C380.762 195.267 396.218 193.702 404.987 198.966C409.594 201.669 424.456 203.092 423.267 200.673C418.363 190.856 412.566 184.738 404.244 180.754C400.826 179.189 399.042 177.34 399.042 175.49C399.042 169.372 422.97 172.075 434.265 179.616C439.021 182.746 444.668 191.283 446.452 197.828C447.195 201.1 448.235 201.811 451.802 201.811C454.328 201.811 456.26 201.385 456.26 200.673C456.26 200.104 454.626 196.547 452.545 192.706C450.464 188.864 448.829 184.596 448.829 183.173C448.829 181.75 446.749 178.336 444.371 175.775C441.844 173.071 439.912 170.51 439.912 169.941C439.912 165.531 464.137 177.34 468.744 184.027C470.231 186.161 471.717 190.429 472.311 193.559C472.906 196.832 474.392 199.82 475.432 200.104C480.188 201.669 473.054 178.762 465.178 167.238C454.923 152.726 430.401 134.229 413.458 128.396C405.135 125.55 394.584 125.977 387.45 129.392Z" fill="#FEFEFE"/>
</svg>
