<svg width="149" height="56" viewBox="0 0 149 56" fill="none" xmlns="http://www.w3.org/2000/svg">
<path fill-rule="evenodd" clip-rule="evenodd" d="M55.0055 7.4643L34.3521 21.5139C29.6909 24.6847 29.607 24.772 29.4841 24.8015C29.0505 24.9084 28.6166 25.0152 28.183 25.1221C21.1573 29.8109 14.1316 34.4999 7.10595 39.189C7.07916 39.2166 7.05236 39.244 7.05154 39.3144C7.05068 39.3852 7.07559 39.4986 7.15577 39.5939C7.23602 39.6896 7.37154 39.7672 29.5956 39.8058C51.8198 39.8446 96.1325 39.8446 118.321 39.8023C140.509 39.7601 140.572 39.6758 140.657 39.5899C140.741 39.5037 140.845 39.4162 140.808 39.2339C140.771 39.0519 140.592 38.7754 135.359 35.6317C130.125 32.4881 119.837 26.4774 109.549 20.4668C109.165 20.0521 108.781 19.6374 108.396 19.2228C100.788 14.5743 93.1809 9.92615 89.2532 7.59074C85.3256 5.25582 85.0778 5.23417 84.5187 5.2159C83.9594 5.19793 83.0886 5.18409 82.5096 5.26798C81.9305 5.35229 81.643 5.53489 78.4235 7.85858C75.2038 10.1823 69.0519 14.6471 65.9469 16.8917C62.8416 19.1363 62.7835 19.1604 62.7108 19.1248C62.638 19.0894 62.551 18.9945 62.5309 18.9305C62.5109 18.8667 62.5595 18.8355 63.8699 17.8797L67.7323 15.0619C69.0444 14.1048 69.1985 14.0097 69.2111 13.9025C69.2236 13.7954 69.2323 13.7999 69.1426 13.6932C69.0531 13.5866 68.9584 13.4964 67.3281 12.3081C65.6979 11.1197 62.5572 8.82218 60.8437 7.67221C60.0678 7.20508 59.5809 6.80116 59.1352 6.73898L56.6143 6.72576C56.1362 6.72315 55.7646 6.94781 55.0055 7.4643Z" fill="white"/>
<path d="M55.0055 7.4643L34.3521 21.5139C29.6909 24.6847 29.607 24.772 29.4841 24.8015C29.0505 24.9084 28.6166 25.0152 28.183 25.1221C21.1573 29.8109 14.1316 34.4999 7.10595 39.189C7.07916 39.2166 7.05236 39.244 7.05154 39.3144C7.05068 39.3852 7.07559 39.4986 7.15577 39.5939C7.23602 39.6896 7.37154 39.7672 29.5956 39.8058C51.8198 39.8446 96.1325 39.8446 118.321 39.8023C140.509 39.7601 140.572 39.6758 140.657 39.5899C140.741 39.5037 140.845 39.4162 140.808 39.2339C140.771 39.0519 140.592 38.7754 135.359 35.6317C130.125 32.4881 119.837 26.4774 109.549 20.4668C109.165 20.0521 108.781 19.6374 108.396 19.2228C100.788 14.5743 93.1809 9.92615 89.2532 7.59074C85.3256 5.25582 85.0778 5.23417 84.5187 5.2159C83.9594 5.19793 83.0886 5.1841 82.5096 5.26798C81.9305 5.35229 81.643 5.53489 78.4235 7.85858C75.2038 10.1823 69.0519 14.6471 65.9469 16.8917C62.8416 19.1363 62.7835 19.1604 62.7108 19.1248C62.638 19.0894 62.551 18.9945 62.5309 18.9305C62.5109 18.8667 62.5595 18.8355 63.8699 17.8797L67.7323 15.0619C69.0444 14.1048 69.1985 14.0097 69.2111 13.9025C69.2236 13.7954 69.2323 13.7999 69.1426 13.6932C69.0531 13.5866 68.9584 13.4964 67.3281 12.3081C65.6979 11.1197 62.5572 8.82218 60.8437 7.67221C60.0678 7.20508 59.5809 6.80116 59.1352 6.73898L56.6143 6.72576C56.1362 6.72315 55.7646 6.94781 55.0055 7.4643Z" stroke="#00549F" stroke-width="0.283214" stroke-miterlimit="2.61313"/>
<path fill-rule="evenodd" clip-rule="evenodd" d="M29.4846 24.8038L29.2565 24.8598L37.3611 23.8651L37.9666 26.0048L42.0488 23.8786L41.272 33.6034L51.659 28.0596L56.7633 32.7671L69.8077 23.6166L73.4271 29.3879L81.0167 25.1988L94.3388 32.2034L95.1341 23.1371L102.582 26.4288L100.547 23.6746L124.287 29.0899C128.465 31.5195 131.438 33.3316 135.431 35.7067C139.425 38.0816 140.769 39.0516 140.807 39.2338C140.844 39.4161 140.739 39.5037 140.655 39.5897C140.571 39.6759 140.507 39.7602 118.311 39.8023C96.1151 39.8446 51.7866 39.8446 29.5546 39.8057C7.32268 39.7671 7.18719 39.6897 7.10684 39.5939C7.02656 39.4986 7.00175 39.3851 7.01007 39.3007C7.04942 38.8923 24.6305 27.366 28.1832 25.124L29.4846 24.8038Z" fill="#0066C3"/>
<path d="M29.4846 24.8038L29.2565 24.8598L37.3611 23.8651L37.9666 26.0048L42.0488 23.8786L41.272 33.6034L51.659 28.0596L56.7633 32.7671L69.8077 23.6166L73.4271 29.3879L81.0167 25.1988L94.3388 32.2034L95.1341 23.1371L102.582 26.4288L100.547 23.6746L124.287 29.0899C128.465 31.5195 131.438 33.3316 135.431 35.7067C139.425 38.0816 140.769 39.0516 140.807 39.2338C140.844 39.4161 140.739 39.5037 140.655 39.5897C140.571 39.6759 140.507 39.7602 118.311 39.8023C96.1151 39.8446 51.7866 39.8446 29.5546 39.8057C7.32268 39.7671 7.18719 39.6897 7.10684 39.5939C7.02656 39.4986 7.00175 39.3851 7.01007 39.3007C7.04942 38.8923 24.6305 27.366 28.1832 25.124L29.4846 24.8038Z" stroke="#0066C3" stroke-width="0.283214" stroke-miterlimit="2.61313"/>
<path fill-rule="evenodd" clip-rule="evenodd" d="M61.8486 42.175H69.3544V44.4786H61.8486V45.3042H68.0559V47.6076H61.8486V48.5339H69.5317V50.8374H59.2939V50.8368H59.2798V42.175H61.8486Z" fill="white"/>
<path fill-rule="evenodd" clip-rule="evenodd" d="M73.6322 48.5474H79.8397V50.8511H71.0776V50.836H71.0635V42.0741H73.6322V48.5474Z" fill="white"/>
<path d="M45.8184 44.6758L45.8187 44.6756H52.8413V42.139H45.2258C44.9358 42.139 44.657 42.1899 44.3891 42.2918C44.1211 42.3937 43.8863 42.5376 43.6841 42.7234C43.4821 42.9095 43.3196 43.1329 43.1966 43.394C43.0736 43.6553 43.0122 43.9498 43.0122 44.2773V45.6187C43.0122 45.9462 43.0736 46.2407 43.1966 46.5017C43.3196 46.7629 43.4821 46.9865 43.6841 47.1723C43.8863 47.3583 44.1211 47.5021 44.3891 47.6039C44.6113 47.6886 44.8411 47.7379 45.0786 47.7524H50.4317C50.5861 47.7524 50.7127 47.8787 50.7127 48.0334C50.7127 48.1836 50.5933 48.3072 50.4448 48.3141L50.4435 48.3145H50.4317H43.1638V50.8511H51.0364C51.3262 50.8511 51.6052 50.8002 51.8731 50.6982C52.141 50.5965 52.376 50.4527 52.578 50.2667C52.7801 50.0808 52.9425 49.8573 53.0655 49.596C53.1884 49.3348 53.25 49.0406 53.25 48.7128V47.3717C53.25 47.0439 53.1884 46.7495 53.0655 46.4885C52.9425 46.2272 52.7801 46.0039 52.578 45.8179C52.376 45.6318 52.141 45.488 51.8731 45.3862C51.6513 45.302 51.4219 45.2525 51.185 45.2379H45.8193C45.6648 45.2379 45.5384 45.1113 45.5384 44.9569C45.5384 44.8026 45.6643 44.6761 45.8184 44.6758Z" fill="white"/>
<path d="M38.3912 50.8564H41.8547L39.3249 48.4128C40.5683 48.4128 41.6704 47.6004 41.6704 46.2878V44.2825C41.6704 43.0426 40.6724 42.1446 39.4567 42.1446H31.1689V50.8564H33.7382V48.4128H35.769L38.3912 50.8564ZM38.653 44.6811C38.7158 44.6915 38.7748 44.7116 38.8298 44.741C39.0274 44.8395 39.1641 45.0437 39.1641 45.2786C39.1641 45.6086 38.894 45.8786 38.5641 45.8786H33.7382V45.8631V44.6811V44.6785H38.5641C38.5826 44.6785 38.601 44.6794 38.6192 44.6811H38.653Z" fill="white"/>
<path d="M27.041 50.8511H30.1244L25.3887 42.8742C24.7636 41.8475 22.7796 41.8721 22.1685 42.9011L17.449 50.8511H20.5321L21.3204 49.5123L26.2339 49.5162L27.041 50.8511ZM23.7867 45.3265L24.9197 47.2521H22.6403L23.7867 45.3265Z" fill="white"/>
<path d="M94.0278 50.3425C93.4774 51.0196 91.8116 51.0294 91.2476 50.3425L88.1777 46.1061V50.8538H87.7257H85.595H85.5718V42.9882C85.5718 42.5364 85.9413 42.1669 86.3931 42.1669H87.1718C88.1462 42.1669 88.4884 42.1521 89.1439 43.0511L92.6311 47.8325L96.1399 43.0384C96.7845 42.1572 97.1277 42.1669 98.0849 42.1669H98.8635C99.3153 42.1669 99.6849 42.5364 99.6849 42.9882V50.8538H97.531V50.8511H97.0978V46.1061L94.0278 50.3425Z" fill="white"/>
<path fill-rule="evenodd" clip-rule="evenodd" d="M101.16 42.175H103.728H111.234V44.4786H103.728V45.3042H109.935V47.6076H103.728V48.5339H111.411V50.8374H101.173V50.8368H101.159V42.175H101.16Z" fill="white"/>
<path d="M112.645 50.8374H121.253C121.542 50.8374 121.819 50.787 122.085 50.6856C122.352 50.5844 122.585 50.4413 122.786 50.2563C122.987 50.0713 123.149 49.8491 123.271 49.5892C123.393 49.3296 123.455 49.0367 123.455 48.7109V44.2994C123.455 43.9736 123.393 43.681 123.271 43.4212C123.149 43.1612 122.987 42.9393 122.786 42.7542C122.585 42.5692 122.352 42.426 122.085 42.3248C121.819 42.2237 121.542 42.173 121.253 42.173H112.645V50.8374ZM120.454 48.5276H115.214V44.4664H120.454H120.496C120.717 44.4664 120.898 44.6475 120.898 44.8687V48.1388C120.898 48.3525 120.723 48.5276 120.509 48.5276H120.454Z" fill="white"/>
<path fill-rule="evenodd" clip-rule="evenodd" d="M124.702 50.8374V42.1756H127.271V50.8374H124.702Z" fill="white"/>
<path d="M137.866 50.8511H140.949L136.213 42.8742C135.588 41.8475 133.604 41.8721 132.993 42.9011L128.273 50.8511H131.357L132.145 49.5123L137.058 49.5162L137.866 50.8511ZM134.611 45.3265L135.744 47.2521H133.465L134.611 45.3265Z" fill="white"/>
<path fill-rule="evenodd" clip-rule="evenodd" d="M6.94412 42.0273H14.9951C16.0348 42.0273 16.8854 42.8778 16.8854 43.9175V44.7785C16.8854 45.2325 16.7166 45.6493 16.4389 45.9686C16.9495 46.3296 17.2846 46.9243 17.2846 47.5935V48.6664C17.2846 49.7958 16.3605 50.7197 15.2311 50.7197H6.94019V45.605H6.94412V42.0273ZM9.23232 47.7H14.4816C14.6443 47.7 14.7774 47.8333 14.7774 47.9958C14.7774 48.1587 14.6442 48.2917 14.4816 48.2917H9.23232V47.7ZM9.22416 44.6162H14.2583C14.421 44.6162 14.5541 44.7493 14.5541 44.912C14.5541 45.075 14.421 45.2079 14.2583 45.2079H9.22416V44.6162Z" fill="white"/>
</svg>
