<svg width="140" height="56" viewBox="0 0 140 56" fill="none" xmlns="http://www.w3.org/2000/svg">
<path fill-rule="evenodd" clip-rule="evenodd" d="M51.0055 7.4642L30.3521 21.5138C25.6909 24.6846 25.607 24.7719 25.4841 24.8014C25.0505 24.9083 24.6166 25.0151 24.183 25.122C17.1573 29.8108 10.1316 34.4998 3.10595 39.1889C3.07916 39.2165 3.05236 39.2439 3.05154 39.3143C3.05068 39.3851 3.07559 39.4985 3.15577 39.5938C3.23602 39.6895 3.37154 39.7671 25.5956 39.8057C47.8198 39.8445 92.1325 39.8445 114.321 39.8022C136.509 39.76 136.572 39.6757 136.657 39.5898C136.741 39.5036 136.845 39.4161 136.808 39.2338C136.771 39.0518 136.592 38.7753 131.359 35.6316C126.125 32.488 115.837 26.4773 105.549 20.4667C105.165 20.052 104.781 19.6373 104.396 19.2227C96.7884 14.5742 89.1809 9.92605 85.2532 7.59064C81.3256 5.25572 81.0778 5.23407 80.5187 5.21581C79.9594 5.19783 79.0886 5.18399 78.5096 5.26788C77.9305 5.3522 77.643 5.53479 74.4235 7.85848C71.2038 10.1822 65.0519 14.647 61.9469 16.8916C58.8416 19.1362 58.7835 19.1603 58.7108 19.1247C58.638 19.0893 58.551 18.9944 58.5309 18.9304C58.5109 18.8666 58.5595 18.8354 59.8699 17.8796L63.7323 15.0618C65.0444 14.1047 65.1985 14.0096 65.2111 13.9024C65.2236 13.7953 65.2323 13.7998 65.1426 13.6931C65.0531 13.5865 64.9584 13.4963 63.3281 12.308C61.6979 11.1196 58.5572 8.82208 56.8437 7.67211C56.0678 7.20498 55.5809 6.80106 55.1352 6.73888L52.6143 6.72566C52.1362 6.72305 51.7646 6.94772 51.0055 7.4642Z" fill="white"/>
<path d="M51.0055 7.4642L30.3521 21.5138C25.6909 24.6846 25.607 24.7719 25.4841 24.8014C25.0505 24.9083 24.6166 25.0151 24.183 25.122C17.1573 29.8108 10.1316 34.4998 3.10595 39.1889C3.07916 39.2165 3.05236 39.2439 3.05154 39.3143C3.05068 39.3851 3.07559 39.4985 3.15577 39.5938C3.23602 39.6895 3.37154 39.7671 25.5956 39.8057C47.8198 39.8445 92.1325 39.8445 114.321 39.8022C136.509 39.76 136.572 39.6757 136.657 39.5898C136.741 39.5036 136.845 39.4161 136.808 39.2338C136.771 39.0518 136.592 38.7753 131.359 35.6316C126.125 32.488 115.837 26.4773 105.549 20.4667C105.165 20.052 104.781 19.6373 104.396 19.2227C96.7884 14.5742 89.1809 9.92605 85.2532 7.59064C81.3256 5.25572 81.0778 5.23407 80.5187 5.2158C79.9594 5.19783 79.0886 5.184 78.5096 5.26788C77.9305 5.35219 77.643 5.53479 74.4235 7.85848C71.2038 10.1822 65.0519 14.647 61.9469 16.8916C58.8416 19.1362 58.7835 19.1603 58.7108 19.1247C58.638 19.0893 58.551 18.9944 58.5309 18.9304C58.5109 18.8666 58.5595 18.8354 59.8699 17.8796L63.7323 15.0618C65.0444 14.1047 65.1985 14.0096 65.2111 13.9024C65.2236 13.7953 65.2323 13.7998 65.1426 13.6931C65.0531 13.5865 64.9584 13.4963 63.3281 12.308C61.6979 11.1196 58.5572 8.82208 56.8437 7.67211C56.0678 7.20498 55.5809 6.80106 55.1352 6.73888L52.6143 6.72566C52.1362 6.72305 51.7646 6.94771 51.0055 7.4642Z" stroke="#00549F" stroke-width="0.283214" stroke-miterlimit="2.61313"/>
<path fill-rule="evenodd" clip-rule="evenodd" d="M25.4846 24.8037L25.2565 24.8597L33.3611 23.865L33.9666 26.0047L38.0488 23.8785L37.272 33.6033L47.659 28.0595L52.7633 32.767L65.8077 23.6165L69.4271 29.3878L77.0167 25.1987L90.3388 32.2033L91.1341 23.137L98.5819 26.4287L96.5466 23.6745L120.287 29.0898C124.465 31.5194 127.438 33.3315 131.431 35.7066C135.425 38.0815 136.769 39.0515 136.807 39.2337C136.844 39.416 136.739 39.5036 136.655 39.5896C136.571 39.6758 136.507 39.7601 114.311 39.8022C92.1151 39.8445 47.7866 39.8445 25.5546 39.8056C3.32268 39.767 3.18719 39.6896 3.10684 39.5938C3.02656 39.4985 3.00175 39.385 3.01007 39.3006C3.04942 38.8922 20.6305 27.3659 24.1832 25.1239L25.4846 24.8037Z" fill="#0066C3"/>
<path d="M25.4846 24.8037L25.2565 24.8597L33.3611 23.865L33.9666 26.0047L38.0488 23.8785L37.272 33.6033L47.659 28.0595L52.7633 32.767L65.8077 23.6165L69.4271 29.3878L77.0167 25.1987L90.3388 32.2033L91.1341 23.137L98.5819 26.4287L96.5466 23.6745L120.287 29.0898C124.465 31.5194 127.438 33.3315 131.431 35.7066C135.425 38.0815 136.769 39.0515 136.807 39.2337C136.844 39.416 136.739 39.5036 136.655 39.5896C136.571 39.6758 136.507 39.7601 114.311 39.8022C92.1151 39.8445 47.7866 39.8445 25.5546 39.8056C3.32268 39.767 3.18719 39.6896 3.10684 39.5938C3.02656 39.4985 3.00175 39.385 3.01007 39.3006C3.04942 38.8922 20.6305 27.3659 24.1832 25.1239L25.4846 24.8037Z" stroke="#0066C3" stroke-width="0.283214" stroke-miterlimit="2.61313"/>
<path fill-rule="evenodd" clip-rule="evenodd" d="M57.8486 42.1751H65.3544V44.4788H57.8486V45.3043H64.0559V47.6078H57.8486V48.534H65.5317V50.8375H55.2939V50.8369H55.2798V42.1751H57.8486Z" fill="#0066C3"/>
<path fill-rule="evenodd" clip-rule="evenodd" d="M69.6322 48.5475H75.8397V50.8512H67.0776V50.8361H67.0635V42.0742H69.6322V48.5475Z" fill="#0066C3"/>
<path d="M41.8184 44.676L41.8187 44.6757H48.8413V42.1391H41.2258C40.9358 42.1391 40.657 42.1901 40.3891 42.2919C40.1211 42.3939 39.8863 42.5377 39.6841 42.7235C39.4821 42.9096 39.3196 43.133 39.1966 43.3941C39.0736 43.6554 39.0122 43.9499 39.0122 44.2774V45.6188C39.0122 45.9464 39.0736 46.2408 39.1966 46.5018C39.3196 46.763 39.4821 46.9866 39.6841 47.1724C39.8863 47.3584 40.1211 47.5022 40.3891 47.604C40.6113 47.6888 40.8411 47.738 41.0786 47.7525H46.4317C46.5861 47.7525 46.7127 47.8789 46.7127 48.0335C46.7127 48.1837 46.5933 48.3073 46.4448 48.3142L46.4435 48.3146H46.4317H39.1638V50.8512H47.0364C47.3262 50.8512 47.6052 50.8004 47.8731 50.6984C48.141 50.5967 48.376 50.4528 48.578 50.2668C48.7801 50.0809 48.9425 49.8575 49.0655 49.5962C49.1884 49.335 49.25 49.0407 49.25 48.7129V47.3718C49.25 47.0441 49.1884 46.7496 49.0655 46.4886C48.9425 46.2273 48.7801 46.004 48.578 45.8181C48.376 45.632 48.141 45.4881 47.8731 45.3863C47.6513 45.3021 47.4219 45.2526 47.185 45.238H41.8193C41.6648 45.238 41.5384 45.1114 41.5384 44.957C41.5384 44.8027 41.6643 44.6763 41.8184 44.676Z" fill="#0066C3"/>
<path d="M34.3912 50.8566H37.8547L35.3249 48.413C36.5683 48.413 37.6704 47.6006 37.6704 46.288V44.2827C37.6704 43.0428 36.6724 42.1448 35.4567 42.1448H27.1689V50.8566H29.7382V48.413H31.769L34.3912 50.8566ZM34.653 44.6813C34.7158 44.6917 34.7748 44.7118 34.8298 44.7412C35.0274 44.8397 35.1641 45.0439 35.1641 45.2788C35.1641 45.6088 34.894 45.8788 34.5641 45.8788H29.7382V45.8633V44.6813V44.6787H34.5641C34.5826 44.6787 34.601 44.6796 34.6192 44.6813H34.653Z" fill="#0066C3"/>
<path d="M23.041 50.8512H26.1244L21.3887 42.8743C20.7636 41.8476 18.7796 41.8722 18.1685 42.9012L13.449 50.8512H16.5321L17.3204 49.5124L22.2339 49.5163L23.041 50.8512ZM19.7867 45.3267L20.9197 47.2522H18.6403L19.7867 45.3267Z" fill="#0066C3"/>
<path d="M90.0278 50.3424C89.4774 51.0195 87.8116 51.0293 87.2476 50.3424L84.1777 46.1061V50.8537H83.7257H81.595H81.5718V42.9881C81.5718 42.5363 81.9413 42.1669 82.3931 42.1669H83.1718C84.1462 42.1669 84.4884 42.1521 85.1439 43.051L88.6311 47.8324L92.1399 43.0383C92.7845 42.1571 93.1277 42.1669 94.0849 42.1669H94.8635C95.3153 42.1669 95.6849 42.5363 95.6849 42.9881V50.8537H93.531V50.851H93.0978V46.1061L90.0278 50.3424Z" fill="#0066C3"/>
<path fill-rule="evenodd" clip-rule="evenodd" d="M97.16 42.1751H99.7278H107.234V44.4788H99.7278V45.3043H105.935V47.6078H99.7278V48.534H107.411V50.8375H97.1733V50.8369H97.1592V42.1751H97.16Z" fill="#0066C3"/>
<path d="M108.645 50.8375H117.253C117.542 50.8375 117.819 50.7871 118.085 50.6857C118.352 50.5845 118.585 50.4415 118.786 50.2564C118.987 50.0714 119.149 49.8492 119.271 49.5893C119.393 49.3297 119.455 49.0369 119.455 48.711V44.2995C119.455 43.9737 119.393 43.6811 119.271 43.4213C119.149 43.1613 118.987 42.9394 118.786 42.7543C118.585 42.5693 118.352 42.4262 118.085 42.3249C117.819 42.2239 117.542 42.1731 117.253 42.1731H108.645V50.8375ZM116.454 48.5277H111.214V44.4666H116.454H116.496C116.717 44.4666 116.898 44.6476 116.898 44.8688V48.139C116.898 48.3526 116.723 48.5277 116.509 48.5277H116.454Z" fill="#0066C3"/>
<path fill-rule="evenodd" clip-rule="evenodd" d="M120.702 50.8375V42.1757H123.271V50.8375H120.702Z" fill="#0066C3"/>
<path d="M133.866 50.8512H136.949L132.213 42.8743C131.588 41.8476 129.604 41.8722 128.993 42.9012L124.273 50.8512H127.357L128.145 49.5124L133.058 49.5163L133.866 50.8512ZM130.611 45.3267L131.744 47.2522H129.465L130.611 45.3267Z" fill="#0066C3"/>
<path fill-rule="evenodd" clip-rule="evenodd" d="M2.94412 42.0275H10.9951C12.0348 42.0275 12.8854 42.878 12.8854 43.9177V44.7787C12.8854 45.2327 12.7166 45.6495 12.4389 45.9688C12.9495 46.3298 13.2846 46.9245 13.2846 47.5937V48.6666C13.2846 49.796 12.3605 50.7199 11.2311 50.7199H2.94019V45.6052H2.94412V42.0275ZM5.23232 47.7002H10.4816C10.6443 47.7002 10.7774 47.8335 10.7774 47.996C10.7774 48.1589 10.6442 48.2919 10.4816 48.2919H5.23232V47.7002ZM5.22416 44.6164H10.2583C10.421 44.6164 10.5541 44.7495 10.5541 44.9122C10.5541 45.0752 10.421 45.2081 10.2583 45.2081H5.22416V44.6164Z" fill="#0066C3"/>
</svg>
