<svg width="16" height="17" viewBox="0 0 16 17" fill="none" xmlns="http://www.w3.org/2000/svg">
<path d="M9.44373 2.62576C8.49096 2.43053 7.50851 2.43053 6.55574 2.62576C6.25986 2.68638 6.03203 2.92322 5.98291 3.22123L5.94677 3.44056C5.64925 5.2458 5.64925 7.08756 5.94677 8.89279L5.98291 9.11212C6.03203 9.41013 6.25986 9.64697 6.55574 9.7076C7.50851 9.90282 8.49097 9.90282 9.44373 9.7076C9.73961 9.64697 9.96744 9.41013 10.0166 9.11212L10.0527 8.89279C10.3502 7.08756 10.3502 5.2458 10.0527 3.44056L10.0166 3.22123C9.96744 2.92322 9.73961 2.68638 9.44373 2.62576Z" fill="white"/>
<path d="M3.26292 7.33829C3.53633 7.29955 3.78938 7.48979 3.82813 7.7632L4.12846 9.88273C4.20961 10.4554 4.66356 10.9031 5.23728 10.9764C7.07147 11.2107 8.92801 11.2107 10.7622 10.9764C11.3359 10.9031 11.7899 10.4554 11.871 9.88273L12.1713 7.7632C12.2101 7.48979 12.4631 7.29955 12.7366 7.33829C13.01 7.37703 13.2002 7.63008 13.1615 7.9035L12.8611 10.023C12.7168 11.0416 11.9094 11.838 10.8889 11.9684C10.0954 12.0697 9.29793 12.1292 8.49976 12.1467V14.8333C8.49976 15.1095 8.2759 15.3333 7.99976 15.3333C7.72361 15.3333 7.49976 15.1095 7.49976 14.8333V12.1467C6.70157 12.1292 5.90407 12.0697 5.11057 11.9684C4.09011 11.838 3.28269 11.0416 3.13835 10.023L2.83802 7.9035C2.79927 7.63008 2.98951 7.37703 3.26292 7.33829Z" fill="white"/>
</svg>
