<svg width="509" height="408" viewBox="0 0 509 408" fill="none" xmlns="http://www.w3.org/2000/svg">
<path opacity="0.06" d="M57.1981 406.089C55.7119 404.382 55.7119 403.386 56.9009 402.248C59.4274 399.829 59.1302 393.711 56.1578 388.162C52.4423 380.906 52.5909 364.686 56.455 358.853L59.576 354.158L51.2534 345.763C32.2301 326.84 8.89694 279.177 2.20908 245.884C1.31737 241.616 0.425654 228.242 0.128416 216.148C-0.317441 198.079 0.277035 188.404 3.84389 162.794C9.49142 120.964 14.2472 101.187 23.313 81.6952C27.3257 73.1585 31.9329 63.9104 33.5677 61.3494C37.2832 55.0891 37.2832 54.6623 31.1898 51.3899C27.6229 49.2557 24.6506 45.6988 21.2323 38.7272C17.071 30.6173 15.2876 28.6254 9.93727 26.2067C3.1008 23.2188 1.76323 19.5196 6.51903 16.9586C8.15384 16.2472 14.3958 15.5358 20.4892 15.5358C31.487 15.5358 34.608 16.5318 48.1324 24.2148C50.9561 25.7799 51.8478 25.7799 52.2937 24.3571C54.0771 19.8042 65.5208 7.85281 71.7628 4.0113C79.0451 -0.399322 82.4634 -0.968435 86.9219 1.30801C89.5971 2.7308 89.5971 2.87307 86.9219 8.84876C84.8413 13.1171 84.0982 17.8123 84.2468 25.0685C84.3954 32.8938 83.8009 36.1662 81.2744 40.1499L78.1534 45.272L86.0302 49.5403C95.096 54.52 108.769 67.7519 106.837 69.6015C102.378 73.8699 77.8562 73.3007 65.3722 68.8901C61.8053 67.4673 57.9412 66.7559 56.9009 67.1828C53.6313 68.321 42.4848 91.2278 39.3638 103.179C37.729 109.155 36.5401 114.419 36.8373 114.561C37.1346 114.846 42.3362 110.435 48.4296 104.744C67.8987 86.3903 87.3678 78.565 110.255 79.9878C119.618 80.5569 124.671 81.6952 132.102 84.9675C142.357 89.6627 155.584 100.334 159.151 106.878L161.38 110.862L168.217 105.882C177.877 98.7685 188.726 96.0652 203.588 96.9189C225.286 98.3417 241.932 109.297 270.021 140.741C292.165 165.639 304.054 176.31 315.349 181.859C322.334 185.274 326.942 185.7 325.753 183.139C325.307 182.144 322.929 176.879 320.551 171.33C313.417 155.111 312.08 148.993 310.742 122.956C310.594 119.257 303.757 118.261 300.933 121.533C299.893 122.814 298.853 127.509 298.555 131.919C298.258 138.749 297.664 140.029 295.286 140.456C293.057 140.741 291.422 139.176 288.449 133.484C286.369 129.358 284.585 125.09 284.585 124.094C284.585 121.96 280.721 121.533 279.384 123.667C278.938 124.379 275.519 125.09 271.804 125.09C263.927 125.09 263.035 122.387 269.723 117.692C272.25 115.984 274.182 113.281 274.182 111.716C274.331 102.468 283.694 92.366 292.016 92.366C296.623 92.366 305.689 96.3498 309.85 100.191L313.715 103.748L316.241 94.0733C320.105 79.9878 326.347 74.2967 342.547 69.6015C352.207 66.7559 356.963 67.0405 359.192 70.1706C361.124 72.8739 360.53 73.5853 355.774 74.5812C351.315 75.5772 339.574 85.2521 339.574 88.0977C339.574 88.8091 341.358 89.9473 343.736 90.3741C352.653 92.5083 358.895 99.4799 358.895 107.305C358.895 111.858 354.585 112.143 348.491 107.874C339.128 101.187 331.846 109.013 330.063 127.936C328.576 144.867 335.264 166.208 346.114 178.444L351.018 183.993L355.179 176.31C357.409 172.042 363.056 163.363 367.812 157.103C372.419 150.842 377.472 143.444 378.958 140.741C384.903 129.501 382.674 107.732 374.648 98.484C369.298 92.366 369.149 88.9513 374.203 88.3822C376.432 88.0977 380.296 88.9513 382.971 90.0896C385.498 91.3701 387.875 92.0815 388.321 91.7969C389.064 90.9432 380.593 77.4268 375.837 72.0202C373.905 69.7438 372.568 67.3251 373.162 66.6137C374.946 63.7681 384.011 65.4754 390.996 70.0283C403.926 78.2805 408.534 88.0977 408.682 107.732C408.682 114.135 409.128 119.399 409.722 119.399C410.317 119.399 413.289 117.976 416.41 116.269C424.139 111.858 431.421 109.439 437.663 109.439C443.459 109.439 453.119 114.277 452.228 116.838C451.782 117.834 448.363 119.257 444.202 120.11C430.381 123.24 415.221 133.058 393.672 153.119C372.865 172.611 364.84 183.709 364.84 193.383C364.84 198.505 366.623 199.075 380.445 198.079C391.591 197.225 391.74 197.225 394.563 192.103C397.833 186.127 403.48 181.859 409.871 180.721C413.438 180.009 414.776 178.729 415.667 175.314C418.788 163.79 433.204 159.806 442.716 167.916L447.918 172.184L452.525 168.912C462.036 162.225 477.196 166.92 480.614 177.733C482.249 183.139 482.694 183.424 488.342 183.424C501.42 183.424 509 189.115 509 198.79C509 207.469 506.028 211.453 496.367 215.579C489.531 218.424 488.342 219.563 486.559 224.969C485.072 228.953 482.843 232.083 479.425 234.217C474.372 237.49 465.455 238.486 461.739 236.209C460.402 235.498 458.321 236.494 455.497 238.912C453.119 241.047 448.066 243.608 444.202 244.461C438.257 245.884 436.771 245.742 432.758 243.465C430.083 242.043 426.516 238.628 424.584 236.067C421.463 231.514 420.423 231.087 413.438 230.945C406.156 230.803 405.413 230.376 399.022 223.546L392.037 216.148H380.742C374.5 216.148 369.298 216.717 369.298 217.286C369.298 217.998 373.014 222.408 377.324 227.103C385.795 235.925 391.145 239.055 413.735 248.161C429.34 254.563 430.232 255.132 440.041 266.23C445.986 272.917 448.958 277.897 451.93 286.149C454.011 292.267 455.349 297.816 454.754 298.669C452.822 301.657 448.215 299.95 440.784 293.547L433.204 287.002L434.245 297.816C435.285 311.047 432.461 321.434 423.693 336.373C420.572 341.78 417.302 348.324 416.559 350.885C414.924 356.576 412.249 356.861 407.939 351.739C405.115 348.182 404.669 346.475 405.264 337.511C406.007 326.271 406.304 326.414 397.09 333.385C392.78 336.658 391.145 337.227 389.808 335.946C388.321 334.523 388.47 333.527 390.105 330.966C398.427 318.73 402.143 309.056 403.035 297.816C404.669 277.043 400.062 267.226 383.566 256.697C375.243 251.291 359.786 237.774 354.733 231.229C352.95 228.953 351.167 227.388 351.018 227.673C347.897 231.514 344.925 246.453 344.33 260.396C343.736 278.608 345.073 285.437 352.653 300.092C358.598 311.617 369.447 315.174 371.676 306.352C372.716 302.511 375.986 301.799 377.324 305.214C377.769 306.495 378.215 309.767 378.215 312.755C378.215 318.588 373.311 324.279 366.028 326.983C363.651 327.836 361.867 329.117 361.867 329.97C361.867 332.674 376.58 346.617 381.782 349.036C387.281 351.454 390.848 355.011 389.064 356.007C388.47 356.292 382.377 356.15 375.689 355.581C358.152 354.015 351.91 349.747 342.249 332.816C340.169 329.259 337.642 322.999 336.602 318.873C334.818 311.617 334.521 311.19 330.806 312.043C319.213 314.462 312.971 314.604 308.364 312.328C300.487 308.629 295.732 309.34 290.679 315.174L286.369 320.438L284.585 314.462C282.653 307.348 284.437 300.661 289.936 293.405C292.165 290.559 293.502 287.002 293.502 283.73C293.502 276.901 296.921 269.502 301.379 266.799C307.77 262.673 313.417 267.653 309.107 273.486C306.284 277.47 306.284 284.441 309.256 288.425C311.931 292.124 314.606 292.409 319.511 289.279C324.564 286.149 326.199 280.173 326.199 263.811C326.199 248.73 327.833 236.778 331.549 226.25C332.738 222.835 333.481 219.847 333.332 219.563C332.589 218.994 316.836 224.116 311.485 226.819C302.717 231.087 285.328 242.185 277.6 248.445C273.439 251.718 269.575 254.563 268.98 254.563C268.386 254.563 262.59 259.401 255.902 265.234C243.715 276.047 225.583 287.429 214.288 291.129C210.127 292.551 204.48 292.978 197.643 292.694C187.24 291.982 182.038 290.133 174.31 284.157L170.297 281.169L166.879 285.295C159.002 295.112 147.261 305.641 140.276 309.34C132.994 313.182 131.954 313.182 118.875 312.328C103.567 311.332 91.3805 307.917 76.0727 300.661C66.4125 295.966 45.0114 281.88 43.0793 278.75C40.9987 275.62 39.6611 277.612 40.9987 281.88C41.7417 284.441 42.3362 287.998 42.3362 289.848C42.3362 294.259 55.5633 322.145 62.2512 331.82L67.7501 339.645L80.2341 327.694C93.1639 315.316 97.3253 313.324 100.446 318.73C102.676 322.714 101.041 330.255 95.8391 340.072L91.6777 347.898L100.744 349.747C107.58 351.17 112.187 353.304 119.915 358.711C125.414 362.694 130.021 366.394 130.021 366.963C130.021 370.804 114.714 376.922 105.053 376.922C98.8115 376.922 86.0302 372.938 83.8009 370.377C80.8286 366.963 79.491 368.101 79.491 374.077C79.491 386.455 76.5186 394.28 69.0877 401.536C61.5081 408.793 60.0219 409.362 57.1981 406.089ZM121.55 278.608C128.238 275.336 133.886 271.21 148.302 258.974C165.987 244.177 168.365 243.75 186.051 250.437C195.711 254.136 198.832 254.705 204.925 253.852C215.032 252.571 218.747 250.579 233.609 237.205C251.295 221.27 257.982 216.575 270.318 210.884C276.114 208.18 281.91 205.477 283.099 204.766C284.288 203.912 286.815 202.774 288.747 201.92C293.354 200.071 292.908 198.932 285.328 194.379C276.411 188.973 250.7 168.769 237.027 156.391C229.893 149.989 221.868 144.44 214.883 141.025C205.074 136.472 202.399 135.761 193.036 135.761C183.97 135.761 180.849 136.472 174.013 139.887C166.433 143.728 165.244 143.871 159.894 142.448C156.773 141.452 148.896 137.468 142.505 133.342C128.089 124.379 116.646 120.822 101.784 120.822C82.4634 120.822 71.6142 125.09 56.455 138.891C41.7417 152.123 33.8649 165.497 31.7843 180.578C31.0412 186.839 30.7439 192.672 31.1898 193.383C32.9732 196.229 36.3915 194.806 36.3915 191.392C36.3915 184.847 42.039 175.314 50.5103 167.347C63.1429 155.537 66.2639 156.676 63.2915 172.326C62.3998 177.306 60.1705 184.278 58.2385 187.977L54.6716 194.806H58.5357C62.1026 194.806 62.697 193.953 64.4805 188.119C65.818 182.997 68.1959 179.582 73.3976 174.887C83.5037 165.924 102.676 159.094 105.499 163.505C106.837 165.497 94.0557 183.566 87.665 188.973C79.6396 195.66 84.0982 196.656 99.1087 191.818C112.484 187.266 121.847 187.692 134.034 193.241C151.423 201.066 151.868 201.493 144.586 205.05C128.238 212.733 112.782 214.298 104.013 209.034C99.4059 206.331 84.544 204.908 85.733 207.327C90.6374 217.144 96.4336 223.262 104.756 227.246C108.174 228.811 109.958 230.66 109.958 232.51C109.958 238.628 86.0302 235.925 74.7352 228.384C69.9794 225.254 64.3318 216.717 62.5484 210.172C61.8053 206.9 60.765 206.189 57.1981 206.189C54.6716 206.189 52.7396 206.615 52.7396 207.327C52.7396 207.896 54.3744 211.453 56.455 215.294C58.5357 219.136 60.1705 223.404 60.1705 224.827C60.1705 226.25 62.2512 229.664 64.6291 232.225C67.1556 234.929 69.0877 237.49 69.0877 238.059C69.0877 242.469 44.8627 230.66 40.2556 223.973C38.7694 221.839 37.2832 217.571 36.6887 214.441C36.0942 211.168 34.608 208.18 33.5677 207.896C28.8119 206.331 35.9456 229.238 43.8224 240.762C54.0771 255.274 78.5993 273.771 95.5418 279.604C103.865 282.45 114.416 282.023 121.55 278.608Z" fill="#FEFEFE"/>
</svg>
