<svg width="422" height="129" viewBox="0 0 422 129" fill="none" xmlns="http://www.w3.org/2000/svg">
<mask id="path-1-inside-1_415_6689" fill="white">
<path d="M365.322 25.0624C364.2 26.3535 362.07 30.0022 360.5 33.3703L359.434 35.784H356.014C351.024 35.784 350.912 36.9628 355.229 43.4744C358.369 48.2458 360.444 53.1856 361.116 57.6763C361.677 61.2689 361.621 62.4477 360.836 65.535C360.332 67.5559 359.21 70.4187 358.313 71.9343C357.023 74.2358 356.07 75.0778 352.482 77.0425C347.492 79.737 340.932 81.421 336.446 81.1403L333.419 80.9719L331.849 75.6392C329.942 68.9592 326.859 61.8302 323.831 57.1149C322.541 55.0941 321.027 52.7365 320.467 51.8945C319.289 49.9859 310.711 40.2747 307.795 37.5803C305.048 34.9981 297.983 30.0022 294.619 28.3182C291.648 26.8026 286.601 25.6799 283.069 25.6799C281.499 25.6799 280.77 25.9606 280.322 26.8026C279.817 27.7569 280.097 28.1498 282.677 29.7777C284.303 30.8442 286.545 32.1353 287.667 32.6405C288.788 33.1457 290.302 34.2123 291.031 34.9981L292.376 36.4015L289.685 35.2788C286.433 33.8755 283.013 33.7632 281.948 34.9981C280.882 36.2892 281.723 37.2435 286.826 40.6677C298.936 48.751 307.515 55.9923 312.281 62.167C316.262 67.3313 320.074 74.9656 320.299 78.1652C320.411 80.2422 320.299 80.4106 319.009 80.2422C315.365 79.737 309.365 77.0425 302.188 72.5518C289.573 64.7492 286.545 63.5704 273.145 61.325C262.156 59.4726 252.568 57.0588 248.923 55.2064C245.391 53.4101 244.55 53.4101 243.933 54.9818C243.317 56.6097 244.999 60.9882 247.185 63.6826C249.035 65.928 255.035 70.5871 256.1 70.5871C257.558 70.5871 256.605 71.4853 253.241 73.3377C244.83 77.9407 242.419 79.0633 241.522 78.7827C240.962 78.6704 240.513 78.7827 240.513 79.0072C240.513 79.2879 239.728 79.6808 238.775 79.8492C236.644 80.3544 231.71 78.2775 231.262 76.6496C230.589 74.6849 231.598 74.5165 233.897 76.2005C238.943 79.9054 243.877 76.8741 243.877 70.138C243.877 65.6473 242.251 62.7845 238.607 60.9321C236.14 59.641 233 59.8655 230.645 61.3811C229.355 62.2231 229.075 62.2231 226.328 61.0443C223.524 59.8094 218.927 59.3603 217.581 60.1462C216.516 60.8198 216.908 62.2231 218.59 64.1317C220.665 66.5455 222.235 71.2046 221.786 73.6745C221.562 74.741 221.226 75.7514 220.945 75.8637C220.721 76.0321 217.132 73.7306 212.983 70.8116C206.143 65.928 197.621 61.0443 195.995 61.0443C195.602 61.0443 194.985 60.1462 194.593 59.0796C193.247 55.3187 188.818 54.4205 183.547 56.8343C179.903 58.5183 178.669 58.6306 178.95 57.2272C179.062 56.6097 179.735 56.2168 180.8 56.1045C184.613 55.7677 185.005 55.5432 185.005 53.4662C185.005 51.1086 183.884 50.3789 180.352 50.3789C177.38 50.3789 173.231 52.3997 172.278 54.3644C170.483 57.8447 172.166 62.5599 176.09 65.1982L178.838 67.0507L177.66 68.1172C176.09 69.5767 174.016 73.1693 173.231 76.0321L172.502 78.3336L170.315 76.7619C164.821 72.7763 157.98 74.741 158.765 80.0738L158.989 81.7578L155.401 82.1507C150.635 82.6559 148 84.7329 148 88.1009C148 92.9846 151.364 96.1842 157.476 97.0824C160.111 97.4753 161.456 97.9244 161.456 98.4296C161.456 100.001 163.98 102.078 166.222 102.415C168.016 102.64 168.914 102.415 170.596 101.236C173.063 99.5523 173.231 99.4961 173.231 100.619C173.231 102.415 176.034 106.906 178.782 109.488L181.641 112.126L179.791 113.249C178.838 113.866 177.885 114.428 177.716 114.484C176.819 114.933 174.913 118.357 174.913 119.592C174.913 123.409 180.183 127.282 185.342 127.282C188.594 127.282 190.22 126.216 189.939 124.307C189.771 123.129 189.098 122.679 186.407 121.837C185.51 121.613 184.725 120.995 184.725 120.546C184.725 119.368 187.304 119.199 189.771 120.21C190.948 120.715 193.023 121.108 194.369 121.108C196.499 121.108 197.172 120.827 198.854 119.143C200.592 117.403 200.817 116.898 200.536 114.989L200.256 112.856L203.844 111.116C205.807 110.162 210.068 107.579 213.32 105.39C216.628 103.257 219.375 101.461 219.543 101.461C219.656 101.461 219.768 102.191 219.768 103.089C219.768 104.885 218.871 105.839 216.628 106.457C213.039 107.411 213.824 110.218 218.03 111.453C220.889 112.351 221.954 112.295 223.917 111.284C225.431 110.498 225.655 110.498 226.72 111.509C230.981 115.382 234.962 115.214 239.672 111.004C242.363 108.59 242.812 105.895 241.354 101.461C240.065 97.5314 238.27 96.2404 234.458 96.521C231.486 96.8017 231.486 96.8017 232.607 95.679C233.448 94.7809 234.682 94.5002 238.943 94.3318L244.158 94.0511L249.204 96.6333C252.007 98.0928 254.867 99.7207 255.596 100.282L256.997 101.349L252.512 103.594C246.961 106.401 242.027 110.835 242.307 112.744C242.419 113.866 242.756 114.091 244.158 113.923C249.035 113.474 256.717 113.81 261.539 114.652C272.921 116.729 281.107 114.372 297.311 104.436C312.057 95.3983 319.009 92.1426 319.009 94.1634C319.009 95.3422 314.524 104.324 312.281 107.692C309.309 112.07 302.973 118.413 298.824 121.164C297.142 122.287 292.601 124.869 288.732 126.833C281.723 130.482 280.602 131.493 282.004 133.177C283.125 134.524 285.816 134.187 291.816 132.054C293.105 131.605 289.068 134.299 285.424 136.32C284.022 137.106 282.396 138.397 281.78 139.295C280.602 140.811 280.602 140.867 281.667 141.653C284.134 143.449 292.433 140.193 302.245 133.682C308.412 129.528 317.215 122.006 319.962 118.526C326.522 110.105 330.111 103.257 332.017 95.679C333.363 90.234 332.914 90.5147 339.194 90.7954C344.464 91.0199 351.585 94.5563 355.566 98.9348C357.808 101.405 359.547 106.288 359.154 109.039C358.369 114.035 355.173 121.22 351.529 125.935C348.837 129.472 348.109 131.324 349.286 132.054C349.566 132.222 351.585 132.391 353.715 132.447H357.528L361.285 137.723C363.359 140.642 365.434 143 365.938 143C367.06 143 368.91 140.811 371.77 136.152C374.741 131.212 375.134 130.931 377.488 131.717C380.236 132.671 383.488 132.671 384.049 131.773C384.553 130.931 384.049 129.64 382.366 127.675C374.517 118.245 371.209 111.902 371.994 107.748C372.554 104.548 374.685 101.798 379.339 98.0928C386.403 92.5355 392.459 90.234 400.196 90.234H403.112V92.0864C403.112 97.363 405.859 106.288 409.448 112.688C411.522 116.392 419.484 124.307 426.1 129.303C431.763 133.626 447.182 141.541 451.667 142.439C455.536 143.225 456.489 142.944 456.265 140.923C456.097 139.576 455.256 138.958 449.537 135.983C443.033 132.671 439.052 130.145 441.519 130.931C442.136 131.156 444.603 131.717 446.957 132.222C451.835 133.177 453.181 132.727 452.901 130.201C452.789 129.079 451.667 128.293 446.957 125.767C439.949 122.118 429.128 114.596 425.259 110.723C421.614 107.074 418.587 101.18 417.409 95.6229C416.961 93.2091 416.624 91.1322 416.736 91.0199C417.353 90.4024 428.567 96.0158 430.473 97.8682C430.81 98.2612 433.501 100.338 436.36 102.471C441.575 106.344 445.107 108.253 449.649 109.656C452.564 110.555 465.853 111.509 476.001 111.565C480.991 111.565 484.355 111.902 487.663 112.688C493.046 113.979 494.055 114.035 494.896 113.193C495.401 112.688 495.401 112.182 494.784 111.06C493.438 108.478 487.215 102.359 483.85 100.338C483.178 99.8891 483.178 99.6645 484.243 98.7103C486.037 97.0262 491.195 93.8827 493.326 93.153C496.971 91.8619 504.372 92.5916 506.166 94.3879C507.455 95.6229 506.895 95.8474 503.979 95.1738C500.615 94.3879 498.709 94.8931 496.69 97.1385C493.719 100.394 495.232 105.783 499.83 108.478C503.587 110.723 506.614 110.891 509.193 109.151L511.268 107.692L513.343 108.814C515.81 110.049 518.837 110.162 520.856 109.151C523.042 108.029 522.93 106.681 520.463 105.559C518.613 104.66 518.221 104.155 517.548 101.573C517.099 99.9452 516.931 98.4857 517.099 98.3173C517.716 97.6437 520.8 99.1593 524.444 101.854C526.463 103.313 529.715 105.671 531.733 107.074L535.378 109.6L535.041 111.958C534.817 113.754 534.985 114.708 535.938 116.28C538.405 120.21 541.209 121.276 546.311 120.322L548.498 119.929L547.04 121.669C545.189 123.858 545.189 124.139 546.984 125.542C548.834 127.002 550.852 127.058 554.104 125.598C561.281 122.399 561.786 115.214 555.058 112.295L553.095 111.453L554.497 110.555C557.805 108.309 560.384 105.446 561.898 102.303C562.739 100.45 563.468 98.598 563.468 98.2051C563.468 97.756 564.141 97.9805 565.318 98.8787C567.785 100.787 569.691 101.124 571.99 100.17C573.784 99.44 575.803 96.5772 575.803 94.837C575.803 94.5002 576.924 94.0511 578.326 93.8266C581.41 93.3775 583.989 91.7496 585.727 89.1675C589.203 84.0593 585.166 77.8845 578.382 77.8845C575.971 77.8845 575.747 77.7723 575.018 75.976C573.448 72.215 568.963 70.8116 564.533 72.7202L561.954 73.8429L561.281 71.9343C560.889 70.8678 559.711 68.847 558.646 67.4997C556.403 64.5246 556.403 64.4124 557.861 64.4124C558.534 64.4124 560.104 63.402 561.393 62.2231C563.58 60.1462 563.748 59.8094 563.748 56.9465C563.748 54.3082 563.468 53.5224 562.01 51.7261C559.879 49.0316 555.899 47.2915 553.151 47.7967C548.217 48.751 548.441 52.3436 553.488 54.0837C555.394 54.7012 556.291 55.9923 554.889 55.9923C554.385 55.9923 552.871 55.4871 551.413 54.8696C544.965 52.119 538.854 54.9818 540.143 60.1462C540.424 61.3811 540.199 61.6057 537.508 62.5038C533.751 63.7388 527.528 66.8261 520.912 70.8116C517.996 72.5518 515.361 73.9552 515.137 73.9552C514.912 73.9552 514.688 73.3938 514.688 72.7202C514.688 72.0466 513.903 69.7451 512.894 67.612L511.1 63.7388L512.333 62.7845C513.006 62.2793 514.015 61.4934 514.632 61.0443C516.37 59.7532 514.912 58.1815 511.604 57.7886C508.352 57.4518 504.428 59.248 503.194 61.6057C502.633 62.7283 501.792 63.2897 500.279 63.5704C496.13 64.3001 492.821 68.2295 493.606 71.4291C493.775 72.1589 494.728 73.6745 495.681 74.7972C497.083 76.3689 497.812 76.7619 499.494 76.7619C500.615 76.7619 502.353 76.2566 503.362 75.6392C505.941 74.0674 505.773 75.6392 503.138 77.66C501.456 78.9511 500.559 79.2318 497.924 79.2318C495.008 79.2318 494.279 78.9511 490.242 76.425C485.813 73.6183 479.533 70.5871 478.244 70.5871C477.851 70.5871 478.973 69.6328 480.655 68.454C486.878 64.244 491.083 59.1919 491.139 55.8239C491.139 54.5328 490.411 54.6451 485.981 56.4975C481.44 58.4622 474.151 59.8094 461.703 61.0443C458.339 61.3811 453.517 62.0547 451.05 62.5038C446.453 63.402 438.491 66.8261 436.473 68.6786C435.856 69.296 433.95 70.6432 432.267 71.7098C430.585 72.7763 427.95 74.5165 426.38 75.6392C423.128 77.9968 419.26 79.5686 416.68 79.5686C414.942 79.5686 414.886 79.4563 414.886 77.3232C414.886 72.6641 418.026 65.8157 423.745 58.1254C426.492 54.4205 435.015 46.8424 438.547 44.99C444.042 42.1272 450.041 39.2643 451.891 38.6469C452.957 38.3101 454.639 37.4119 455.536 36.626C457.162 35.2788 457.162 35.1665 456.153 34.4368C454.919 33.4264 449.705 32.6966 447.911 33.258C444.995 34.1561 448.247 31.9669 453.013 29.8338C458.508 27.42 459.741 26.5219 459.741 24.9501C459.741 23.9397 459.405 23.8836 454.863 24.1081C451.331 24.3327 448.808 24.8379 446.004 25.9044C434.006 30.5636 426.548 35.784 417.409 46.2249C415.279 48.6387 413.204 50.8841 412.868 51.2209C411.69 52.3436 408.719 57.564 406.308 62.7283C403.785 68.1172 402.551 73.2254 402.551 78.0529V80.6912L400.477 80.7474C385.675 81.1403 375.47 75.976 374.18 67.4436C373.395 61.9986 376.143 53.0733 381.806 42.913C383.656 39.545 385.17 36.626 385.17 36.3454C385.17 35.3349 383.824 35.0543 379.843 35.1665L375.806 35.2788L372.723 29.7777C369.975 25.0063 369.359 24.2765 367.957 24.1081C366.892 23.9959 365.994 24.3327 365.322 25.0624ZM194.817 74.5726C198.966 75.6392 203.171 77.5477 209.395 81.0842C215.843 84.7329 219.319 87.315 218.366 87.7641C218.03 87.8764 215.843 89.3359 213.544 91.0199C211.189 92.7039 208.666 94.3879 207.937 94.7809C207.208 95.1177 205.582 96.2965 204.349 97.2508C203.115 98.2612 200.256 100.001 198.013 101.18C193.472 103.538 191.397 103.594 188.425 101.405C185.005 98.8787 185.79 95.1738 190.276 92.8162C191.397 92.1987 192.294 91.3006 192.294 90.7392C192.294 90.234 191.117 88.8307 189.659 87.6519C186.071 84.7329 185.117 83.6102 184.388 81.1403C183.828 79.344 183.884 78.8388 184.725 77.4916C186.799 74.292 190.107 73.3377 194.817 74.5726ZM546.647 74.741C548.385 75.2462 550.011 77.3793 550.404 79.737C550.796 82.3753 549.058 84.3399 545.582 85.182C542.61 85.8556 541.265 86.9782 541.881 88.0448C542.106 88.3816 543.9 89.392 545.862 90.2902C549.899 92.0864 552.254 94.1073 552.254 95.7913C552.254 97.1385 549.282 100.675 547.769 101.18C543.283 102.584 540.199 101.405 528.033 93.4337C526.238 92.2548 524.781 91.076 524.781 90.7954C524.781 90.4586 524.556 90.2902 524.332 90.3463C523.827 90.5147 518.108 87.8203 518.108 87.4273C518.108 87.1466 524.556 82.8805 532.238 77.9968C537.228 74.9094 542.61 73.6745 546.647 74.741ZM469.833 83.6102C474.151 84.9013 477.347 86.2485 477.01 86.6414C476.842 86.7537 474.599 87.2589 472.02 87.708C469.441 88.1571 466.694 88.7184 465.909 88.8868C461.535 89.8972 448.079 88.1571 442.079 85.7433L440.397 85.0697L441.855 84.3399C446.845 81.7016 462.152 81.3087 469.833 83.6102ZM292.601 84.7329C294.9 85.4626 296.862 86.3046 296.974 86.6414C297.198 87.2589 286.433 90.5147 281.667 91.3006C275.107 92.311 268.155 91.2444 261.651 88.2693L258.96 86.9782L261.09 86.1362C270.79 82.3191 283.125 81.7578 292.601 84.7329ZM371.097 84.6206C372.667 85.8556 373.956 87.0905 373.956 87.315C373.956 87.9325 367.004 92.4794 366.051 92.4794C365.041 92.4794 360.388 88.0448 360.612 87.315C360.892 86.5853 366.723 82.4875 367.62 82.4314C367.957 82.3753 369.527 83.3857 371.097 84.6206Z"/>
</mask>
<path d="M365.322 25.0624C364.2 26.3535 362.07 30.0022 360.5 33.3703L359.434 35.784H356.014C351.024 35.784 350.912 36.9628 355.229 43.4744C358.369 48.2458 360.444 53.1856 361.116 57.6763C361.677 61.2689 361.621 62.4477 360.836 65.535C360.332 67.5559 359.21 70.4187 358.313 71.9343C357.023 74.2358 356.07 75.0778 352.482 77.0425C347.492 79.737 340.932 81.421 336.446 81.1403L333.419 80.9719L331.849 75.6392C329.942 68.9592 326.859 61.8302 323.831 57.1149C322.541 55.0941 321.027 52.7365 320.467 51.8945C319.289 49.9859 310.711 40.2747 307.795 37.5803C305.048 34.9981 297.983 30.0022 294.619 28.3182C291.648 26.8026 286.601 25.6799 283.069 25.6799C281.499 25.6799 280.77 25.9606 280.322 26.8026C279.817 27.7569 280.097 28.1498 282.677 29.7777C284.303 30.8442 286.545 32.1353 287.667 32.6405C288.788 33.1457 290.302 34.2123 291.031 34.9981L292.376 36.4015L289.685 35.2788C286.433 33.8755 283.013 33.7632 281.948 34.9981C280.882 36.2892 281.723 37.2435 286.826 40.6677C298.936 48.751 307.515 55.9923 312.281 62.167C316.262 67.3313 320.074 74.9656 320.299 78.1652C320.411 80.2422 320.299 80.4106 319.009 80.2422C315.365 79.737 309.365 77.0425 302.188 72.5518C289.573 64.7492 286.545 63.5704 273.145 61.325C262.156 59.4726 252.568 57.0588 248.923 55.2064C245.391 53.4101 244.55 53.4101 243.933 54.9818C243.317 56.6097 244.999 60.9882 247.185 63.6826C249.035 65.928 255.035 70.5871 256.1 70.5871C257.558 70.5871 256.605 71.4853 253.241 73.3377C244.83 77.9407 242.419 79.0633 241.522 78.7827C240.962 78.6704 240.513 78.7827 240.513 79.0072C240.513 79.2879 239.728 79.6808 238.775 79.8492C236.644 80.3544 231.71 78.2775 231.262 76.6496C230.589 74.6849 231.598 74.5165 233.897 76.2005C238.943 79.9054 243.877 76.8741 243.877 70.138C243.877 65.6473 242.251 62.7845 238.607 60.9321C236.14 59.641 233 59.8655 230.645 61.3811C229.355 62.2231 229.075 62.2231 226.328 61.0443C223.524 59.8094 218.927 59.3603 217.581 60.1462C216.516 60.8198 216.908 62.2231 218.59 64.1317C220.665 66.5455 222.235 71.2046 221.786 73.6745C221.562 74.741 221.226 75.7514 220.945 75.8637C220.721 76.0321 217.132 73.7306 212.983 70.8116C206.143 65.928 197.621 61.0443 195.995 61.0443C195.602 61.0443 194.985 60.1462 194.593 59.0796C193.247 55.3187 188.818 54.4205 183.547 56.8343C179.903 58.5183 178.669 58.6306 178.95 57.2272C179.062 56.6097 179.735 56.2168 180.8 56.1045C184.613 55.7677 185.005 55.5432 185.005 53.4662C185.005 51.1086 183.884 50.3789 180.352 50.3789C177.38 50.3789 173.231 52.3997 172.278 54.3644C170.483 57.8447 172.166 62.5599 176.09 65.1982L178.838 67.0507L177.66 68.1172C176.09 69.5767 174.016 73.1693 173.231 76.0321L172.502 78.3336L170.315 76.7619C164.821 72.7763 157.98 74.741 158.765 80.0738L158.989 81.7578L155.401 82.1507C150.635 82.6559 148 84.7329 148 88.1009C148 92.9846 151.364 96.1842 157.476 97.0824C160.111 97.4753 161.456 97.9244 161.456 98.4296C161.456 100.001 163.98 102.078 166.222 102.415C168.016 102.64 168.914 102.415 170.596 101.236C173.063 99.5523 173.231 99.4961 173.231 100.619C173.231 102.415 176.034 106.906 178.782 109.488L181.641 112.126L179.791 113.249C178.838 113.866 177.885 114.428 177.716 114.484C176.819 114.933 174.913 118.357 174.913 119.592C174.913 123.409 180.183 127.282 185.342 127.282C188.594 127.282 190.22 126.216 189.939 124.307C189.771 123.129 189.098 122.679 186.407 121.837C185.51 121.613 184.725 120.995 184.725 120.546C184.725 119.368 187.304 119.199 189.771 120.21C190.948 120.715 193.023 121.108 194.369 121.108C196.499 121.108 197.172 120.827 198.854 119.143C200.592 117.403 200.817 116.898 200.536 114.989L200.256 112.856L203.844 111.116C205.807 110.162 210.068 107.579 213.32 105.39C216.628 103.257 219.375 101.461 219.543 101.461C219.656 101.461 219.768 102.191 219.768 103.089C219.768 104.885 218.871 105.839 216.628 106.457C213.039 107.411 213.824 110.218 218.03 111.453C220.889 112.351 221.954 112.295 223.917 111.284C225.431 110.498 225.655 110.498 226.72 111.509C230.981 115.382 234.962 115.214 239.672 111.004C242.363 108.59 242.812 105.895 241.354 101.461C240.065 97.5314 238.27 96.2404 234.458 96.521C231.486 96.8017 231.486 96.8017 232.607 95.679C233.448 94.7809 234.682 94.5002 238.943 94.3318L244.158 94.0511L249.204 96.6333C252.007 98.0928 254.867 99.7207 255.596 100.282L256.997 101.349L252.512 103.594C246.961 106.401 242.027 110.835 242.307 112.744C242.419 113.866 242.756 114.091 244.158 113.923C249.035 113.474 256.717 113.81 261.539 114.652C272.921 116.729 281.107 114.372 297.311 104.436C312.057 95.3983 319.009 92.1426 319.009 94.1634C319.009 95.3422 314.524 104.324 312.281 107.692C309.309 112.07 302.973 118.413 298.824 121.164C297.142 122.287 292.601 124.869 288.732 126.833C281.723 130.482 280.602 131.493 282.004 133.177C283.125 134.524 285.816 134.187 291.816 132.054C293.105 131.605 289.068 134.299 285.424 136.32C284.022 137.106 282.396 138.397 281.78 139.295C280.602 140.811 280.602 140.867 281.667 141.653C284.134 143.449 292.433 140.193 302.245 133.682C308.412 129.528 317.215 122.006 319.962 118.526C326.522 110.105 330.111 103.257 332.017 95.679C333.363 90.234 332.914 90.5147 339.194 90.7954C344.464 91.0199 351.585 94.5563 355.566 98.9348C357.808 101.405 359.547 106.288 359.154 109.039C358.369 114.035 355.173 121.22 351.529 125.935C348.837 129.472 348.109 131.324 349.286 132.054C349.566 132.222 351.585 132.391 353.715 132.447H357.528L361.285 137.723C363.359 140.642 365.434 143 365.938 143C367.06 143 368.91 140.811 371.77 136.152C374.741 131.212 375.134 130.931 377.488 131.717C380.236 132.671 383.488 132.671 384.049 131.773C384.553 130.931 384.049 129.64 382.366 127.675C374.517 118.245 371.209 111.902 371.994 107.748C372.554 104.548 374.685 101.798 379.339 98.0928C386.403 92.5355 392.459 90.234 400.196 90.234H403.112V92.0864C403.112 97.363 405.859 106.288 409.448 112.688C411.522 116.392 419.484 124.307 426.1 129.303C431.763 133.626 447.182 141.541 451.667 142.439C455.536 143.225 456.489 142.944 456.265 140.923C456.097 139.576 455.256 138.958 449.537 135.983C443.033 132.671 439.052 130.145 441.519 130.931C442.136 131.156 444.603 131.717 446.957 132.222C451.835 133.177 453.181 132.727 452.901 130.201C452.789 129.079 451.667 128.293 446.957 125.767C439.949 122.118 429.128 114.596 425.259 110.723C421.614 107.074 418.587 101.18 417.409 95.6229C416.961 93.2091 416.624 91.1322 416.736 91.0199C417.353 90.4024 428.567 96.0158 430.473 97.8682C430.81 98.2612 433.501 100.338 436.36 102.471C441.575 106.344 445.107 108.253 449.649 109.656C452.564 110.555 465.853 111.509 476.001 111.565C480.991 111.565 484.355 111.902 487.663 112.688C493.046 113.979 494.055 114.035 494.896 113.193C495.401 112.688 495.401 112.182 494.784 111.06C493.438 108.478 487.215 102.359 483.85 100.338C483.178 99.8891 483.178 99.6645 484.243 98.7103C486.037 97.0262 491.195 93.8827 493.326 93.153C496.971 91.8619 504.372 92.5916 506.166 94.3879C507.455 95.6229 506.895 95.8474 503.979 95.1738C500.615 94.3879 498.709 94.8931 496.69 97.1385C493.719 100.394 495.232 105.783 499.83 108.478C503.587 110.723 506.614 110.891 509.193 109.151L511.268 107.692L513.343 108.814C515.81 110.049 518.837 110.162 520.856 109.151C523.042 108.029 522.93 106.681 520.463 105.559C518.613 104.66 518.221 104.155 517.548 101.573C517.099 99.9452 516.931 98.4857 517.099 98.3173C517.716 97.6437 520.8 99.1593 524.444 101.854C526.463 103.313 529.715 105.671 531.733 107.074L535.378 109.6L535.041 111.958C534.817 113.754 534.985 114.708 535.938 116.28C538.405 120.21 541.209 121.276 546.311 120.322L548.498 119.929L547.04 121.669C545.189 123.858 545.189 124.139 546.984 125.542C548.834 127.002 550.852 127.058 554.104 125.598C561.281 122.399 561.786 115.214 555.058 112.295L553.095 111.453L554.497 110.555C557.805 108.309 560.384 105.446 561.898 102.303C562.739 100.45 563.468 98.598 563.468 98.2051C563.468 97.756 564.141 97.9805 565.318 98.8787C567.785 100.787 569.691 101.124 571.99 100.17C573.784 99.44 575.803 96.5772 575.803 94.837C575.803 94.5002 576.924 94.0511 578.326 93.8266C581.41 93.3775 583.989 91.7496 585.727 89.1675C589.203 84.0593 585.166 77.8845 578.382 77.8845C575.971 77.8845 575.747 77.7723 575.018 75.976C573.448 72.215 568.963 70.8116 564.533 72.7202L561.954 73.8429L561.281 71.9343C560.889 70.8678 559.711 68.847 558.646 67.4997C556.403 64.5246 556.403 64.4124 557.861 64.4124C558.534 64.4124 560.104 63.402 561.393 62.2231C563.58 60.1462 563.748 59.8094 563.748 56.9465C563.748 54.3082 563.468 53.5224 562.01 51.7261C559.879 49.0316 555.899 47.2915 553.151 47.7967C548.217 48.751 548.441 52.3436 553.488 54.0837C555.394 54.7012 556.291 55.9923 554.889 55.9923C554.385 55.9923 552.871 55.4871 551.413 54.8696C544.965 52.119 538.854 54.9818 540.143 60.1462C540.424 61.3811 540.199 61.6057 537.508 62.5038C533.751 63.7388 527.528 66.8261 520.912 70.8116C517.996 72.5518 515.361 73.9552 515.137 73.9552C514.912 73.9552 514.688 73.3938 514.688 72.7202C514.688 72.0466 513.903 69.7451 512.894 67.612L511.1 63.7388L512.333 62.7845C513.006 62.2793 514.015 61.4934 514.632 61.0443C516.37 59.7532 514.912 58.1815 511.604 57.7886C508.352 57.4518 504.428 59.248 503.194 61.6057C502.633 62.7283 501.792 63.2897 500.279 63.5704C496.13 64.3001 492.821 68.2295 493.606 71.4291C493.775 72.1589 494.728 73.6745 495.681 74.7972C497.083 76.3689 497.812 76.7619 499.494 76.7619C500.615 76.7619 502.353 76.2566 503.362 75.6392C505.941 74.0674 505.773 75.6392 503.138 77.66C501.456 78.9511 500.559 79.2318 497.924 79.2318C495.008 79.2318 494.279 78.9511 490.242 76.425C485.813 73.6183 479.533 70.5871 478.244 70.5871C477.851 70.5871 478.973 69.6328 480.655 68.454C486.878 64.244 491.083 59.1919 491.139 55.8239C491.139 54.5328 490.411 54.6451 485.981 56.4975C481.44 58.4622 474.151 59.8094 461.703 61.0443C458.339 61.3811 453.517 62.0547 451.05 62.5038C446.453 63.402 438.491 66.8261 436.473 68.6786C435.856 69.296 433.95 70.6432 432.267 71.7098C430.585 72.7763 427.95 74.5165 426.38 75.6392C423.128 77.9968 419.26 79.5686 416.68 79.5686C414.942 79.5686 414.886 79.4563 414.886 77.3232C414.886 72.6641 418.026 65.8157 423.745 58.1254C426.492 54.4205 435.015 46.8424 438.547 44.99C444.042 42.1272 450.041 39.2643 451.891 38.6469C452.957 38.3101 454.639 37.4119 455.536 36.626C457.162 35.2788 457.162 35.1665 456.153 34.4368C454.919 33.4264 449.705 32.6966 447.911 33.258C444.995 34.1561 448.247 31.9669 453.013 29.8338C458.508 27.42 459.741 26.5219 459.741 24.9501C459.741 23.9397 459.405 23.8836 454.863 24.1081C451.331 24.3327 448.808 24.8379 446.004 25.9044C434.006 30.5636 426.548 35.784 417.409 46.2249C415.279 48.6387 413.204 50.8841 412.868 51.2209C411.69 52.3436 408.719 57.564 406.308 62.7283C403.785 68.1172 402.551 73.2254 402.551 78.0529V80.6912L400.477 80.7474C385.675 81.1403 375.47 75.976 374.18 67.4436C373.395 61.9986 376.143 53.0733 381.806 42.913C383.656 39.545 385.17 36.626 385.17 36.3454C385.17 35.3349 383.824 35.0543 379.843 35.1665L375.806 35.2788L372.723 29.7777C369.975 25.0063 369.359 24.2765 367.957 24.1081C366.892 23.9959 365.994 24.3327 365.322 25.0624ZM194.817 74.5726C198.966 75.6392 203.171 77.5477 209.395 81.0842C215.843 84.7329 219.319 87.315 218.366 87.7641C218.03 87.8764 215.843 89.3359 213.544 91.0199C211.189 92.7039 208.666 94.3879 207.937 94.7809C207.208 95.1177 205.582 96.2965 204.349 97.2508C203.115 98.2612 200.256 100.001 198.013 101.18C193.472 103.538 191.397 103.594 188.425 101.405C185.005 98.8787 185.79 95.1738 190.276 92.8162C191.397 92.1987 192.294 91.3006 192.294 90.7392C192.294 90.234 191.117 88.8307 189.659 87.6519C186.071 84.7329 185.117 83.6102 184.388 81.1403C183.828 79.344 183.884 78.8388 184.725 77.4916C186.799 74.292 190.107 73.3377 194.817 74.5726ZM546.647 74.741C548.385 75.2462 550.011 77.3793 550.404 79.737C550.796 82.3753 549.058 84.3399 545.582 85.182C542.61 85.8556 541.265 86.9782 541.881 88.0448C542.106 88.3816 543.9 89.392 545.862 90.2902C549.899 92.0864 552.254 94.1073 552.254 95.7913C552.254 97.1385 549.282 100.675 547.769 101.18C543.283 102.584 540.199 101.405 528.033 93.4337C526.238 92.2548 524.781 91.076 524.781 90.7954C524.781 90.4586 524.556 90.2902 524.332 90.3463C523.827 90.5147 518.108 87.8203 518.108 87.4273C518.108 87.1466 524.556 82.8805 532.238 77.9968C537.228 74.9094 542.61 73.6745 546.647 74.741ZM469.833 83.6102C474.151 84.9013 477.347 86.2485 477.01 86.6414C476.842 86.7537 474.599 87.2589 472.02 87.708C469.441 88.1571 466.694 88.7184 465.909 88.8868C461.535 89.8972 448.079 88.1571 442.079 85.7433L440.397 85.0697L441.855 84.3399C446.845 81.7016 462.152 81.3087 469.833 83.6102ZM292.601 84.7329C294.9 85.4626 296.862 86.3046 296.974 86.6414C297.198 87.2589 286.433 90.5147 281.667 91.3006C275.107 92.311 268.155 91.2444 261.651 88.2693L258.96 86.9782L261.09 86.1362C270.79 82.3191 283.125 81.7578 292.601 84.7329ZM371.097 84.6206C372.667 85.8556 373.956 87.0905 373.956 87.315C373.956 87.9325 367.004 92.4794 366.051 92.4794C365.041 92.4794 360.388 88.0448 360.612 87.315C360.892 86.5853 366.723 82.4875 367.62 82.4314C367.957 82.3753 369.527 83.3857 371.097 84.6206Z" fill="#EDF0F3" stroke="white" stroke-width="2" mask="url(#path-1-inside-1_415_6689)"/>
</svg>
