<svg width="422" height="162" viewBox="0 0 422 162" fill="none" xmlns="http://www.w3.org/2000/svg">
<g clip-path="url(#clip0_415_6681)">
<path d="M306.55 1.22454C306.222 2.18029 306.222 2.56857 306.49 3.01657C306.998 3.82299 306.938 6.80972 306.401 7.34733C306.162 7.61613 305.953 8.06414 305.953 8.33295C305.953 8.63162 306.162 9.04976 306.401 9.25883C306.729 9.52764 306.848 10.2146 306.848 11.5586C306.848 13.2909 306.759 13.5597 306.102 14.0973C305.565 14.5155 305.356 14.9635 305.356 15.6803C305.356 16.3971 305.565 16.8451 306.102 17.2633C306.938 17.9203 307.057 18.8462 306.401 19.4137C306.162 19.6228 305.953 20.1604 305.953 20.6084C305.953 21.0564 306.162 21.594 306.401 21.8031C306.64 22.0122 306.848 22.6692 306.848 23.2964C306.848 24.2522 306.64 24.6106 305.446 25.7456C303.297 27.7168 298.522 31.4502 294.075 34.6161C291.927 36.1692 290.166 37.4535 290.196 37.5133C290.255 37.5431 291.897 37.2445 293.866 36.886C305.565 34.6161 316.667 34.3473 324.098 36.1692C325.441 36.4978 326.724 36.7367 326.904 36.677C327.112 36.5874 326.217 35.99 324.964 35.3031C322.755 34.1084 316.607 29.927 310.818 25.6261C308.609 24.0133 308.042 23.4458 308.042 22.8484C308.042 22.4303 308.162 22.1018 308.281 22.1018C308.43 22.1018 308.699 21.7433 308.908 21.2953C309.206 20.6084 309.176 20.3993 308.669 19.6825C307.863 18.6073 307.863 17.8606 308.639 17.3827C309.922 16.6062 309.893 14.7245 308.639 13.8285C308.162 13.4701 308.042 13.052 308.042 11.5287C308.042 10.0951 308.162 9.58737 308.49 9.43804C308.759 9.34843 308.938 8.90042 308.938 8.42255C308.938 7.94467 308.729 7.3772 308.49 7.16812C307.953 6.72012 307.863 3.85286 308.4 3.01657C308.878 2.24002 308.162 -1.90735e-05 307.445 -1.90735e-05C307.117 -1.90735e-05 306.789 0.44799 306.55 1.22454Z" fill="#EDF0F3"/>
<path d="M304.76 36.7367C298.672 36.9756 292.823 37.5431 291.659 37.9911C290.584 38.3794 279.841 46.5332 277.871 48.4148C275.752 50.5055 273.365 53.6714 270.917 57.7931C267.873 62.8706 267.127 65.2898 266.56 71.9801C266.262 75.3849 266.321 76.1914 267.008 81.0896C267.426 84.0464 267.754 86.5553 267.754 86.6449C267.754 86.7345 269.604 86.2865 271.872 85.6593C277.573 84.0464 284.675 83.1504 301.328 81.9557C309.147 81.4181 314.042 81.3883 321.473 81.8064C324.517 81.9856 329.68 82.2544 332.963 82.4336C336.365 82.5829 339.707 82.9115 340.722 83.1803C341.737 83.4491 343.796 84.4049 345.497 85.4502C347.138 86.4358 348.601 87.2721 348.78 87.302C348.929 87.3318 349.257 86.7644 349.496 86.0177C349.824 84.9723 349.944 82.8816 349.944 76.7588C349.944 69.2323 349.914 68.6648 349.138 65.1703C348.69 63.1394 348.064 60.8695 347.735 60.1526C346.9 58.2113 343.318 52.3573 342.244 51.1327C340.991 49.6991 333.649 43.875 329.829 41.2765C328.098 40.1117 326.128 38.7677 325.412 38.2599C324.547 37.6626 323.532 37.2743 322.129 37.0653C319.264 36.6172 311.206 36.4679 304.76 36.7367Z" fill="#EDF0F3"/>
<path d="M148.319 59.0475C147.603 59.6449 146.32 60.8097 145.484 61.646C143.902 63.1393 143.902 63.1692 143.902 64.9911V66.813L145.932 66.9922C147.036 67.1117 149.782 67.2013 152.05 67.2013H156.138V65.917C156.108 63.2289 155.661 62.0343 154.288 60.8097C152.766 59.4358 150.498 57.9424 149.961 57.9424C149.752 57.9424 149.006 58.4502 148.319 59.0475Z" fill="#EDF0F3"/>
<path d="M147.632 70.6659C147.304 70.7555 146.409 71.0244 145.663 71.2633L144.26 71.7113L144.051 75.4447C143.932 77.5055 143.902 79.2379 143.932 79.2976C143.991 79.3275 145.066 79.1184 146.289 78.7898C148.11 78.312 149.124 78.2224 151.81 78.3717C153.631 78.4613 155.422 78.6106 155.809 78.7301C156.466 78.9392 156.496 78.8794 156.317 77.7744C156.227 77.1471 156.078 75.5642 155.959 74.25L155.75 71.9204L154.377 71.2932C153.034 70.6958 149.035 70.3075 147.632 70.6659Z" fill="#EDF0F3"/>
<path d="M358.388 79.5066C358.269 80.8805 358.179 82.8518 358.179 83.927L358.15 85.8684L356.657 87.063C354.121 89.0642 347.167 96.0531 346.839 96.9491C346.66 97.427 346.421 99.0996 346.331 100.712L346.152 103.639L347.137 103.281C348.152 102.952 357.851 103.102 367.431 103.61C369.818 103.729 371.997 103.789 372.295 103.699C372.773 103.58 372.803 103.341 372.654 101.877C371.818 94.4104 369.818 91.6327 361.85 87.063L359.373 85.6593V84.1062C359.373 81.4779 358.985 77.0575 358.776 77.0575C358.657 77.0575 358.478 78.1626 358.388 79.5066Z" fill="#EDF0F3"/>
<path d="M257.905 82.6427V86.7644L251.787 92.7378L245.669 98.7412V102.415V106.089L258.353 105.969C265.306 105.909 271.096 105.79 271.185 105.67C271.275 105.581 271.424 103.968 271.543 102.056L271.723 98.5918L270.469 96.6504C269.066 94.5299 265.993 91.4535 262.083 88.2876L259.546 86.2566L259.367 84.4049C259.248 83.4193 259.158 81.687 259.128 80.552C259.099 78.76 259.039 78.5509 258.502 78.5509C257.935 78.5509 257.905 78.76 257.905 82.6427Z" fill="#EDF0F3"/>
<path d="M146.019 79.4768C145.303 79.6261 143.96 79.9547 143.064 80.1936C141.632 80.6117 141.483 80.7611 141.632 81.3286C141.751 81.687 141.901 82.4336 142.02 82.9414C142.109 83.479 142.229 83.927 142.288 83.927C142.348 83.927 143.452 83.5686 144.706 83.1505C147.81 82.0752 151.749 81.8662 155.241 82.583C159.777 83.5089 159.299 83.5387 159.18 82.1947C159.061 81.0597 158.971 80.9403 157.539 80.3728C156.673 80.0443 155.39 79.6261 154.644 79.4469C153.032 79.1184 147.869 79.1184 146.019 79.4768Z" fill="#EDF0F3"/>
<path d="M149.424 83.2102C147.991 83.4491 144.858 84.5243 144.559 84.9126C144.38 85.1217 144.052 91.2146 143.783 98.5619C143.515 105.879 143.216 113.645 143.127 115.795L142.918 119.768H150.618H158.317L158.108 116.243C157.81 110.658 156.736 87.2721 156.736 85.958C156.736 84.823 156.676 84.7633 155.154 84.0763C153.572 83.3595 151.065 82.9712 149.424 83.2102Z" fill="#EDF0F3"/>
<path d="M304.462 94.5598C303.716 94.6195 301.119 94.7987 298.642 94.9779C292.077 95.4558 286.257 96.083 279.721 96.979L273.932 97.7556L274.111 102.086C274.2 104.446 274.349 106.447 274.409 106.507C274.469 106.566 288.734 106.208 306.133 105.73C323.502 105.252 338.991 104.834 340.513 104.834H343.259V100.832C343.259 97.2478 343.199 96.7998 342.751 96.6505C341.617 96.3219 336.962 95.5753 333.112 95.0974C330.127 94.739 326.039 94.5896 317.444 94.5299C311.057 94.5 305.208 94.5 304.462 94.5598Z" fill="#EDF0F3"/>
<path d="M188.221 95.9336C186.788 97.0387 185.117 99.4281 184.61 101.101C184.192 102.385 183.923 102.773 183.237 103.012C182.58 103.251 182.401 103.49 182.401 104.177C182.401 105.133 182.789 105.611 183.744 105.79C184.401 105.909 184.729 107.283 184.759 110.15C184.789 111.674 184.759 111.733 183.893 111.883C183.177 112.032 182.998 112.241 182.998 112.868C182.998 113.287 183.356 114.183 183.774 114.81L184.58 115.975L184.341 128.997C184.222 136.165 184.072 142.138 183.983 142.288C183.893 142.407 183.446 142.437 182.968 142.347C182.103 142.198 182.103 142.198 182.103 143.632C182.103 144.886 182.222 145.185 182.879 145.663L183.655 146.23L183.446 158.087L183.207 169.945H182.371C181.625 169.945 181.506 170.064 181.506 170.781C181.506 171.348 181.834 171.916 182.431 172.513L183.356 173.379L183.237 183.594L183.147 193.809L184.431 194.884C185.356 195.69 186.102 196.795 187.146 199.035C189.086 203.038 189.862 206.174 189.952 209.967C189.981 211.819 190.071 212.715 190.22 212.356C190.34 211.998 190.429 211.042 190.399 210.265C190.34 209.011 190.459 208.653 191.145 207.936C192.011 207.01 192.19 205.815 191.653 203.993C191.474 203.426 191.265 201.843 191.145 200.499L190.966 198.05L192.16 196.825C193.115 195.899 193.593 195.631 194.398 195.631C195.95 195.631 196.786 197.094 197.562 201.126C197.92 202.888 198.129 204.471 198.069 204.68C198.009 204.889 197.89 206.174 197.771 207.577L197.592 210.116L198.666 209.071C200.695 207.129 200.874 206.741 200.576 204.74C200.188 202.171 200.218 198.767 200.636 197.96C201.68 195.929 203.381 195.063 205.56 195.451C206.485 195.631 206.724 195.869 207.321 197.184C208.007 198.677 208.037 198.826 207.858 205.069L207.679 211.43L210.036 211.251C211.32 211.161 212.454 211.042 212.484 210.982C212.543 210.952 212.722 209.041 212.872 206.741C213.2 201.365 213.379 200.887 215.766 199.692C216.811 199.155 216.901 199.185 218.572 200.499L219.706 201.395L220.691 200.857C222.123 200.081 223.138 200.439 223.914 201.933C224.361 202.858 224.511 203.575 224.421 204.77L224.332 206.383H225.734C227.047 206.383 227.197 206.323 227.555 205.427C228.122 204.113 229.435 202.59 230.479 202.022C231.226 201.664 231.464 201.634 232.36 202.022C233.464 202.5 233.673 202.888 234.479 206.741L234.986 209.071L233.882 213.73L232.777 218.389L234.21 220.45C234.986 221.585 235.792 222.66 235.971 222.81C236.18 222.959 237.582 223.019 239.313 222.899L242.357 222.72L242.447 214.925C242.596 206.442 242.865 204.68 244.357 203.187C245.252 202.321 246.058 202.47 247.222 203.725C248.535 205.128 248.863 207.04 249.221 215.313C249.371 219.465 249.579 222.959 249.669 223.049C249.848 223.198 260.264 222.75 270.739 222.123C274.111 221.914 282.855 221.764 290.167 221.794L303.507 221.824L303.656 220.629C303.776 219.823 304.134 219.136 304.731 218.539C305.477 217.762 305.924 217.613 307.417 217.493C308.401 217.434 309.565 217.434 309.953 217.553C310.998 217.822 312.669 219.345 313.117 220.42C313.475 221.286 313.535 221.316 315.474 221.316C316.549 221.316 323.89 220.988 331.769 220.57C339.648 220.152 346.452 219.823 346.93 219.823C347.706 219.823 347.736 219.883 347.736 221.466V223.108H348.72C349.914 223.108 369.074 222.183 369.104 222.123C369.134 222.093 369.044 221.257 368.895 220.271C368.596 217.762 368.596 210.325 368.925 207.219C369.074 205.785 369.402 204.143 369.701 203.545C370.536 201.753 372.267 201.753 374.177 203.545C374.774 204.113 375.311 204.591 375.341 204.591C375.371 204.591 375.49 204.053 375.61 203.366C375.819 202.052 377.161 200.409 378.027 200.409C378.296 200.409 378.892 200.618 379.34 200.857C380.146 201.246 380.206 201.246 380.355 200.708C380.623 199.663 382.324 198.916 384.443 198.916C386.443 198.916 390.323 199.722 392.262 200.529L393.396 201.007L393.993 199.752C394.739 198.199 395.396 197.393 396.47 196.706C398.052 195.66 400.35 196.795 402.379 199.603L403.185 200.708L403.961 199.394C404.379 198.677 405.215 197.661 405.811 197.124C406.886 196.198 407.005 196.168 408.736 196.317C410.378 196.467 410.616 196.407 411.213 195.81C412.019 194.973 414.436 194.436 417.57 194.346L419.808 194.286L420.495 196.347C420.883 197.512 421.271 199.095 421.36 199.902C421.569 201.514 421.778 201.455 422.285 199.633C422.494 198.976 423.151 197.632 423.777 196.646C426.374 192.644 428.344 193.45 429.776 199.095C430.045 200.17 430.403 201.007 430.552 200.977C430.731 200.947 431.417 200.648 432.104 200.32C433.208 199.782 433.387 199.543 433.686 198.199C434.581 194.257 435.297 192.614 436.58 191.449L437.834 190.284L437.535 182.579C437.356 178.367 437.147 174.156 437.028 173.26C436.73 170.841 436.521 170.781 429.866 170.93C426.851 171.02 424.344 171.139 424.285 171.199C424.225 171.259 424.076 175.769 423.956 181.235L423.748 191.15H417.898C411.81 191.15 372.804 191.569 345.736 191.927L330.158 192.106L330.337 176.844C330.486 164.15 330.456 161.582 330.128 161.582C329.889 161.582 328.039 160.656 325.979 159.521C319.712 156.086 316.161 154.354 314.967 154.205C314.102 154.085 313.624 154.235 312.818 154.832C311.207 155.997 308.76 157.221 305.805 158.326C302.791 159.461 300.851 160.596 298.225 162.777C296.792 163.971 296.195 164.748 295.3 166.6L294.166 168.899L294.196 180.577L294.226 192.285L289.122 192.465C286.317 192.554 267.575 192.763 247.461 192.942C227.346 193.092 207.828 193.271 204.038 193.331L197.174 193.39L197.084 183.325L197.025 173.29L198.009 172.663C198.905 172.125 198.964 171.946 198.875 170.871C198.756 169.765 198.666 169.646 197.95 169.646C197.532 169.646 197.025 169.527 196.846 169.407C196.607 169.258 196.398 166.002 196.159 159.342C195.98 153.906 195.771 148.858 195.682 148.082C195.562 146.738 195.592 146.678 196.786 145.902C197.92 145.155 197.98 145.035 197.83 143.9C197.621 142.467 197.592 142.407 196.219 142.198L195.085 142.019L194.995 140.376C194.936 139.48 194.667 133.626 194.369 127.384L193.831 116.034L194.995 115.049C195.95 114.183 196.129 113.854 196.129 112.838C196.129 111.674 196.099 111.644 195.234 111.763L194.339 111.913V108.09V104.296L195.383 103.938C196.249 103.639 196.368 103.52 196.129 103.042C195.98 102.743 195.532 102.445 195.174 102.325C194.727 102.206 194.249 101.608 193.831 100.712C193.115 99.2489 190.489 96.083 189.564 95.5752C189.176 95.3661 188.818 95.4558 188.221 95.9336Z" fill="#EDF0F3"/>
<path d="M394.381 96.4712C393.276 97.6958 393.187 98.1139 393.843 98.3827C394.231 98.5022 394.291 99.4579 394.291 104.416V110.3L392.918 110.091C392.142 110.001 391.217 109.911 390.829 109.911C390.143 109.911 390.113 109.792 390.113 108.09C390.113 106.536 390.202 106.238 390.71 106.118C391.486 105.909 391.456 105.67 390.561 104.237L389.814 103.042L388.621 104.356C387.964 105.073 387.427 105.73 387.427 105.79C387.427 105.879 387.696 106.029 388.024 106.118C388.561 106.268 388.621 106.536 388.621 109.105V111.942L385.577 116.452L382.503 120.962L364.029 121.112C353.883 121.201 345.467 121.351 345.317 121.44C345.168 121.53 345.049 122.426 345.049 123.471V125.353L360.329 125.532C368.715 125.652 380.503 125.741 386.502 125.741C392.5 125.741 397.872 125.861 398.409 126.01L399.364 126.309V118.304C399.364 112.958 399.484 110.21 399.693 110.001C399.931 109.762 399.782 109.314 399.185 108.388L398.38 107.104L397.246 108.388L396.082 109.702V103.998C396.082 98.5619 396.111 98.323 396.679 98.1736C397.275 98.0243 397.275 98.0243 396.679 96.9789C395.694 95.3064 395.455 95.2466 394.381 96.4712Z" fill="#EDF0F3"/>
<path d="M223.017 97.2478C222.689 97.6659 222.271 98.4724 222.062 99.0697C221.763 99.9956 221.793 100.205 222.211 100.503C222.629 100.832 222.689 101.519 222.629 106.208C222.539 111.823 222.569 111.763 221.435 109.015L220.988 107.97L219.913 110.091C218.869 112.152 218.869 112.211 219.406 112.779C219.883 113.316 219.913 113.764 219.704 119.32C219.585 122.605 219.585 131.535 219.734 139.181C220.45 180.816 220.659 191.3 220.779 191.419C220.838 191.479 227.225 191.419 234.984 191.27L249.1 191.001L249.399 182.041L249.697 173.051L252.085 170.871C254.592 168.571 256.233 167.555 257.367 167.555C258.441 167.555 260.322 168.69 263.246 171.08C265.216 172.722 265.932 173.499 266.081 174.186C266.32 175.41 266.32 179.502 266.052 179.502C265.932 179.502 264.559 178.845 263.008 178.039C260.441 176.725 260.083 176.605 259.575 176.963C259.277 177.202 258.113 177.68 257.039 178.039C255.427 178.576 254.741 178.994 253.338 180.428L251.607 182.19L251.667 186.521L251.697 190.852H256.531C259.217 190.852 263.843 190.762 266.857 190.643L272.319 190.463L272.08 168.929C271.961 157.072 271.752 141.541 271.662 134.403L271.483 121.41L256.949 121.53L242.385 121.619V115.915C242.385 111.046 242.445 110.21 242.833 110.21C243.37 110.21 243.43 109.583 242.923 109.015C242.714 108.806 243.251 109.195 244.116 109.882L245.668 111.166V115.915V120.664H258.65H271.632V115.736C271.632 111.554 271.573 110.808 271.185 110.808C270.886 110.808 270.737 110.509 270.737 109.912C270.737 109.254 270.856 109.075 271.185 109.195C271.543 109.344 271.632 109.105 271.632 108V106.596L257.994 106.686C245.638 106.775 244.236 106.835 243.311 107.313C242.385 107.761 242.236 107.791 241.789 107.373C241.311 106.925 241.192 107.014 240.326 108.179C239.312 109.553 239.162 110.21 239.849 110.21C240.237 110.21 240.296 111.046 240.296 116.004V121.769L238.745 121.978C236.417 122.247 235.82 122.187 235.82 121.769C235.82 121.53 235.492 121.201 235.104 120.962C234.566 120.694 234.298 120.246 234.178 119.35C233.999 118.364 233.582 117.737 232.089 116.184L230.179 114.242L229.97 110.987C229.821 108.657 229.851 107.701 230.12 107.552C230.358 107.403 230.239 106.865 229.702 105.64C229.314 104.715 228.896 103.938 228.807 103.938C228.508 103.938 226.867 106.746 226.867 107.283C226.867 107.612 227.076 107.821 227.464 107.821C228.001 107.821 228.06 108.03 228.06 109.613V111.405H226.24H224.449L224.539 106.089L224.628 100.802L225.464 100.892C226.538 101.011 226.538 100.205 225.494 98.3828C224.42 96.5609 223.793 96.2622 223.017 97.2478ZM259.516 111.076C260.322 111.614 261.485 113.077 261.485 113.585C261.485 113.735 261.187 113.615 260.829 113.376C259.993 112.779 259.008 112.779 257.934 113.316C256.77 113.914 256.323 114.571 256.561 115.288C256.74 115.825 256.979 115.885 259.426 115.885H262.082V117.348C262.082 119.827 262.172 119.768 258.322 119.768H254.92V116.721V113.675L256.472 112.092C257.337 111.226 258.173 110.509 258.352 110.509C258.501 110.509 259.038 110.778 259.516 111.076ZM259.396 136.075C261.336 137.33 263.545 139.39 264.947 141.302C265.932 142.646 265.962 142.795 265.962 145.424C265.962 146.917 265.873 148.142 265.783 148.142C265.664 148.142 265.007 147.604 264.321 146.977C263.097 145.872 261.485 145.155 260.113 145.155C258.77 145.155 255.726 147.037 253.577 149.217C251.1 151.726 251.04 151.845 251.04 157.162V160.656L250.085 160.477C249.548 160.387 249.041 160.238 248.951 160.178C248.862 160.089 248.772 156.146 248.712 151.397C248.593 141.451 248.683 141.123 251.249 139.002C252.473 137.987 257.248 135 257.606 135C257.695 135 258.501 135.478 259.396 136.075ZM233.253 137.628C234.208 138.494 236.626 142.288 236.805 143.214C236.984 144.169 236.596 148.052 236.297 148.381C236.178 148.47 235.402 147.873 234.537 147.037C233.134 145.692 232.627 145.424 229.493 144.408C227.553 143.781 225.971 143.184 225.971 143.094C225.971 143.004 226.449 142.108 227.046 141.123C228.24 139.122 229.702 137.449 230.597 137.061C231.343 136.732 232.537 137.001 233.253 137.628ZM233.432 169.975C235.909 171.647 236.685 172.902 236.984 175.619C237.103 176.814 237.133 178.248 237.043 178.845L236.864 179.89L236.118 178.845C235.193 177.471 234.238 176.934 232.388 176.665C229.97 176.336 229.135 175.978 227.822 174.694L226.598 173.469L227.464 172.215C228.478 170.721 230.597 168.75 231.164 168.75C231.373 168.75 232.418 169.317 233.432 169.975Z" fill="#EDF0F3"/>
<path d="M375.998 106.746C375.072 107.881 374.953 108.119 375.341 108.358C375.729 108.567 375.848 109.613 375.998 114.481L376.177 120.365H377.191H378.176V114.242C378.176 108.329 378.206 108.119 378.773 108.119C379.101 108.119 379.37 108.03 379.37 107.881C379.34 107.671 377.37 105.431 377.191 105.431C377.132 105.431 376.624 106.029 375.998 106.746Z" fill="#EDF0F3"/>
<path d="M355.523 108.627C354.777 108.717 353.822 109.016 353.375 109.344C352.927 109.643 352.42 109.912 352.27 109.912C351.554 109.912 351.614 110.628 352.479 111.972C353.375 113.346 353.404 113.525 353.404 116.572V119.768H355.076H356.717L356.538 116.243L356.359 112.749L357.493 111.256C358.12 110.449 359.015 109.583 359.463 109.314C360.179 108.926 360.358 108.926 361.044 109.314C361.492 109.553 362.268 110.479 362.745 111.375C363.581 112.868 363.671 113.287 363.79 116.363C363.939 120.037 363.939 120.066 366.028 120.066H366.834V117.647V115.228L368.028 115.347C368.774 115.407 369.222 115.318 369.222 115.108C369.222 114.929 368.565 113.436 367.759 111.793C366.446 109.105 366.207 108.777 365.342 108.597C364.357 108.418 357.881 108.418 355.523 108.627Z" fill="#EDF0F3"/>
<path d="M347.883 110.18L346.689 110.359L346.51 115.138C346.421 117.767 346.361 119.977 346.421 120.066C346.45 120.156 347.107 120.186 347.853 120.126L349.226 120.007V114.959C349.226 112.181 349.196 109.941 349.166 109.941C349.106 109.971 348.539 110.091 347.883 110.18Z" fill="#EDF0F3"/>
<path d="M371.549 114.093C370.236 115.766 370.147 115.945 370.087 117.886L370.027 119.917L371.4 119.887C372.176 119.887 372.862 119.798 372.952 119.708C373.042 119.618 373.071 117.916 373.042 115.945L372.952 112.331L371.549 114.093Z" fill="#EDF0F3"/>
<path d="M290.196 115.497L277.273 115.586L277.453 129.564C277.572 137.24 277.751 152.293 277.87 163.016C277.99 173.738 278.169 182.579 278.258 182.638C278.348 182.728 279.094 182.877 279.93 182.997L281.422 183.176L281.601 180.667C281.69 179.293 281.929 172.902 282.108 166.51C282.765 142.467 283.481 121.56 283.6 121.44C283.66 121.381 295.15 121.261 309.147 121.231L334.544 121.112L334.723 124.098C334.812 125.741 335.021 133.596 335.2 141.571C335.618 161.283 335.618 161.253 336.692 163.195L337.588 164.778V172.035C337.588 179.263 337.588 179.293 338.334 180.607C338.841 181.414 339.319 181.892 339.677 181.892C340.274 181.892 340.274 181.444 340.274 148.59V115.288L321.711 115.347C311.474 115.407 297.299 115.467 290.196 115.497Z" fill="#EDF0F3"/>
<path d="M140.559 121.918C140.619 122.784 140.709 123.531 140.738 123.531C140.738 123.561 145.305 123.651 150.855 123.71L160.913 123.83V122.097V120.365H150.647H140.41L140.559 121.918Z" fill="#EDF0F3"/>
<path d="M308.491 124.576C300.284 124.666 292.136 124.785 290.346 124.815L287.152 124.845L287.212 136.105L287.302 147.365L288.107 147.574C288.883 147.783 288.913 147.723 290.017 144.617C290.644 142.885 291.48 141.093 291.898 140.645C292.315 140.167 295.777 138.106 299.538 136.015C303.328 133.925 306.939 131.834 307.625 131.386L308.849 130.55L316.28 134.223C322.786 137.449 323.89 138.076 325.114 139.42C326.785 141.212 328.755 144.199 329.232 145.633C329.471 146.32 329.769 146.648 330.157 146.648C330.694 146.648 330.724 146.29 330.724 135.448V124.248L327.083 124.308C325.054 124.337 316.698 124.457 308.491 124.576Z" fill="#EDF0F3"/>
<path d="M146.29 125.323C145.395 125.562 144.141 125.98 143.544 126.249L142.41 126.727V141.332V155.907H140.918H139.426V157.55V159.193L140.918 159.939L142.44 160.716L144.44 159.969C149.274 158.237 154.169 158.297 158.317 160.148C159.63 160.746 159.809 160.775 161.152 160.357L162.555 159.909L162.644 157.789L162.734 155.638L161.45 155.399L160.167 155.131L159.958 153.219C159.809 152.144 159.451 145.842 159.123 139.181C158.436 125.323 158.765 126.518 155.333 125.443C153.005 124.726 148.767 124.666 146.29 125.323Z" fill="#EDF0F3"/>
<path d="M398.26 128.041C396.439 128.788 396.499 127.951 396.111 153.368C395.932 166.181 395.693 179.592 395.574 183.146L395.395 189.657H398.021H400.647L400.468 180.757C400.349 175.888 400.11 162.806 399.931 151.726C399.752 140.645 399.513 130.669 399.423 129.594L399.215 127.623L398.26 128.041Z" fill="#EDF0F3"/>
<path d="M344.899 145.961C345.198 180.727 345.377 189.597 345.795 189.777C346.093 189.866 346.212 185.207 346.362 166.719C346.451 153.966 346.6 140.048 346.66 135.806L346.809 128.131H345.795H344.75L344.899 145.961Z" fill="#EDF0F3"/>
<path d="M378.323 147.574C378.443 158.326 378.622 172.334 378.741 178.756L378.92 190.404L380.979 190.493L383.038 190.583L382.83 177.86L382.621 165.166H388.589H394.588V163.404C394.588 161.821 394.528 161.642 393.931 161.492C393.543 161.403 390.858 161.223 387.933 161.104C385.038 160.985 382.591 160.805 382.531 160.716C382.442 160.626 382.352 155.847 382.322 150.113L382.233 139.689L384.74 137.658C386.142 136.523 387.485 135.508 387.784 135.418C388.082 135.329 388.41 134.91 388.5 134.462C388.948 132.491 388.709 132.611 391.932 132.611H394.886V131.625C394.886 131.117 394.976 130.4 395.066 130.042C395.215 129.445 395.036 129.415 388.112 128.907C384.202 128.638 380.353 128.31 379.547 128.22L378.114 128.041L378.323 147.574Z" fill="#EDF0F3"/>
<path d="M351.913 132.431C351.913 133.118 352.48 138.494 352.689 139.719L352.838 140.675L354.838 139.062C355.942 138.196 357.762 136.822 358.926 136.045C360.777 134.791 361.135 134.642 362.239 134.791C363.731 134.94 366.357 136.493 368.655 138.554L370.327 140.048L370.536 138.494C370.625 137.628 370.715 135.896 370.715 134.612V132.312H365.402C362.448 132.312 358.24 132.222 356.002 132.103C352.271 131.924 351.913 131.954 351.913 132.431Z" fill="#EDF0F3"/>
<path d="M390.143 142.825C387.039 149.187 384.741 155.847 384.741 158.506V159.491H389.815H394.888V151.128V142.766L393.844 140.675C393.277 139.51 392.68 138.584 392.501 138.584C392.351 138.584 391.307 140.496 390.143 142.825Z" fill="#EDF0F3"/>
<path d="M360.121 145.095C359.136 145.782 357.315 147.335 356.092 148.59L353.854 150.86L353.883 153.607C353.883 155.101 354.003 156.982 354.122 157.759L354.331 159.193H362.24H370.118L369.939 153.428C369.73 146.857 369.999 147.485 366.477 145.394C365.284 144.677 363.911 144.139 363.165 144.05C362.061 143.93 361.673 144.05 360.121 145.095Z" fill="#EDF0F3"/>
<path d="M149.036 160.686C146.857 160.985 142.739 162.09 142.231 162.508C141.992 162.687 141.843 165.674 141.694 171.976C141.604 177.023 141.425 182.459 141.306 184.072L141.127 187.029L144.828 183.982C149.274 180.339 151.125 179.413 155.004 178.785C156.586 178.517 158.645 178.039 159.6 177.68L161.301 177.053L161.122 174.753C161.003 173.499 160.854 170.303 160.734 167.615L160.525 162.747L159.451 162.179C156.765 160.835 152.497 160.208 149.036 160.686Z" fill="#EDF0F3"/>
</g>
<defs>
<clipPath id="clip0_415_6681">
<rect width="382" height="270" fill="white" transform="translate(106)"/>
</clipPath>
</defs>
</svg>
