<svg width="122" height="34" viewBox="0 0 122 34" fill="none" xmlns="http://www.w3.org/2000/svg">
<line x1="1" y1="1" x2="0.999999" y2="33" stroke="#019040" stroke-width="2" stroke-linecap="round"/>
<line x1="9" y1="5" x2="9" y2="29" stroke="#019040" stroke-width="2" stroke-linecap="round"/>
<line x1="17" y1="13.5" x2="17" y2="20.5" stroke="#019040" stroke-width="2" stroke-linecap="round"/>
<line x1="25" y1="5" x2="25" y2="29" stroke="#019040" stroke-width="2" stroke-linecap="round"/>
<line x1="33" y1="1" x2="33" y2="33" stroke="#019040" stroke-width="2" stroke-linecap="round"/>
<line x1="41" y1="13.5" x2="41" y2="20.5" stroke="#019040" stroke-width="2" stroke-linecap="round"/>
<line x1="49" y1="1" x2="49" y2="33" stroke="#019040" stroke-width="2" stroke-linecap="round"/>
<line x1="57" y1="5" x2="57" y2="29" stroke="#019040" stroke-width="2" stroke-linecap="round"/>
<line x1="65" y1="13.5" x2="65" y2="20.5" stroke="#019040" stroke-width="2" stroke-linecap="round"/>
<line x1="73" y1="5" x2="73" y2="29" stroke="#019040" stroke-width="2" stroke-linecap="round"/>
<line x1="81" y1="1" x2="81" y2="33" stroke="#019040" stroke-width="2" stroke-linecap="round"/>
<line x1="89" y1="13.5" x2="89" y2="20.5" stroke="#019040" stroke-width="2" stroke-linecap="round"/>
<line x1="97" y1="5" x2="97" y2="29" stroke="#019040" stroke-width="2" stroke-linecap="round"/>
<line x1="105" y1="5" x2="105" y2="29" stroke="#019040" stroke-width="2" stroke-linecap="round"/>
<line x1="113" y1="13.5" x2="113" y2="20.5" stroke="#019040" stroke-width="2" stroke-linecap="round"/>
<line x1="121" y1="1" x2="121" y2="33" stroke="#019040" stroke-width="2" stroke-linecap="round"/>
</svg>
