<svg width="422" height="156" viewBox="0 0 422 156" fill="none" xmlns="http://www.w3.org/2000/svg">
<g clip-path="url(#clip0_415_6685)">
<path d="M390.826 17.6657C389.781 18.0839 384.938 23.5195 366.575 44.7393C353.927 59.304 342.916 71.9871 342.115 72.9279L340.581 74.5656L338.317 72.6492C335.599 70.2798 333.02 68.8163 328.177 66.7606C323.473 64.8093 321.766 63.9382 319.954 62.5445C318.177 61.1856 315.18 60.4887 312.149 60.6978C310.023 60.8371 309.919 60.9068 308.281 62.7535C305.354 65.994 301.696 70.6631 296.853 77.2485C294.309 80.7329 291.8 84.1127 291.312 84.7051L290.372 85.8201L287.967 84.0431C286.608 83.1023 283.507 81.1859 280.999 79.7921C275.668 76.8304 274.483 76.029 274.727 75.576C275.215 74.8095 274.204 75.367 273.438 76.2729C270.023 80.489 266.887 85.2974 263.019 92.3359C260.301 97.2837 257.026 102.475 253.89 106.97C250.232 112.162 244.273 120.211 244.064 120.211C243.995 120.211 243.193 118.747 242.322 116.97C240.44 113.207 238.35 110.315 234.238 105.82C227.757 98.7471 212.565 85.6459 202.53 78.5029C200.196 76.8304 200.161 76.8304 197.478 76.8304C195.004 76.8652 194.656 76.9698 193.471 77.9106C191.624 79.374 187.13 85.0187 181.171 93.3812C175.004 102.022 171.38 106.273 164.237 113.242C156.328 120.977 150.265 126.169 138.139 135.716C126.327 144.985 123.818 147.389 122.878 150.072C122.634 150.839 119.881 155.926 116.78 161.396C111.762 170.246 110.543 172.546 108.452 177.285C108.174 177.947 107.999 178.539 108.104 178.609C108.313 178.818 111.519 175.926 118.104 169.515C123.54 164.219 124.62 163.417 127.407 162.616C129.672 161.954 130.474 161.536 132.285 160.037C133.087 159.375 134.655 158.539 135.77 158.156C138.174 157.354 138.732 156.866 140.125 154.393C144.481 146.622 153.018 136.239 159.115 131.291C161.31 129.514 168.488 125.194 168.802 125.472C168.871 125.542 168.558 126.971 168.105 128.643C167.652 130.316 166.955 133.8 166.572 136.344C166.188 138.922 165.701 141.396 165.526 141.849C165.248 142.65 165.213 142.615 165.004 141.466C164.899 140.804 164.551 138.539 164.237 136.413C163.68 132.58 163.018 130.316 162.39 130.316C161.763 130.316 158.662 132.999 156.363 135.577C155.073 137.006 152.216 140.351 150.021 143.034C146.223 147.633 145.909 148.156 144.376 152.023C143.505 154.288 142.355 156.623 141.868 157.18C141.031 158.191 138.766 159.375 127.477 164.741C122.703 167.006 118.522 171.501 117.233 175.821C116.745 177.494 116.745 177.529 117.651 178.47C118.174 179.027 118.871 179.445 119.219 179.445C120.055 179.445 123.435 177.738 130.474 173.766C135.317 171.048 146.885 164.358 149.463 162.79C151.589 161.466 149.254 163.208 145.108 166.03C137.338 171.292 131.414 175.961 128.906 178.853C128.278 179.585 127.86 180.247 127.965 180.351C128.069 180.456 129.603 180.281 131.38 180.003C133.191 179.689 136.536 179.201 138.836 178.923C141.136 178.609 144.167 178.156 145.526 177.842C146.92 177.564 148.209 177.389 148.418 177.529C148.592 177.633 148.941 178.365 149.185 179.132C149.882 181.536 151.066 181.954 154.307 180.978C158.871 179.619 161.415 174.881 165.108 160.63C165.875 157.668 166.92 153.765 167.408 151.988C167.861 150.211 168.906 144.462 169.673 139.27C171.136 129.305 171.868 125.995 172.565 126.239C172.809 126.309 173.018 127.005 173.088 127.772C173.192 129.41 172.774 131.918 170.579 142.685C168.732 151.675 168.035 156.17 167.443 163.104C166.99 168.086 166.955 168.191 165.526 170.699C163.645 173.87 162.809 176.309 162.356 179.933C162.042 182.093 162.042 183.208 162.356 184.323L162.739 185.787L163.61 184.985C164.098 184.532 166.049 182.302 167.931 179.968C171.589 175.543 173.331 174.079 173.715 175.09C173.854 175.368 173.75 177.703 173.506 180.247C172.878 187.355 172.878 193.313 173.506 193.731C175.108 194.742 175.77 192.721 176.816 183.975C178.419 170.246 180.23 164.95 186.781 154.636C189.29 150.664 190.579 148.365 190.579 147.737C190.579 147.563 190.265 147.389 189.847 147.389C188.802 147.389 185.596 150.629 182.565 154.671C181.136 156.588 179.812 158.156 179.638 158.191C179.115 158.191 179.673 146.379 180.649 136.413C181.764 125.124 181.764 117.005 180.683 115.019L180.056 113.834L182.356 109.061C184.586 104.392 186.781 99.0259 187.234 97.1095C187.408 96.4126 187.339 96.1687 186.92 96.1687C186.154 96.1687 185.492 96.9352 180.265 103.904C171.659 115.437 167.408 119.862 160.788 124.183C156.363 127.075 152.983 129.061 152.774 128.852C152.669 128.782 153.819 127.702 155.317 126.483C159.429 123.068 168.035 114.287 172.251 109.235C177.408 102.998 180.021 99.4788 186.607 89.7574C189.708 85.1232 192.809 80.7329 193.471 79.9663L194.656 78.6074L195.527 79.6179C196.015 80.1754 196.677 81.4995 197.025 82.5448C197.374 83.6946 197.722 84.2521 197.896 84.0082C198.489 82.9977 198.628 85.1929 198.419 93.5206C198.314 98.329 198.349 103.59 198.489 105.228L198.802 108.19L199.081 102.197C199.255 98.8865 199.29 93.9387 199.185 91.2209L198.976 86.2382L200.196 89.8968C201.729 94.4962 204.412 104.845 206.259 113.242C208.419 123.033 210.301 129.27 211.102 129.27C211.973 129.27 211.346 122.441 209.36 110.664C208.802 107.249 208.384 104.392 208.454 104.287C208.524 104.218 208.907 104.914 209.325 105.82C209.708 106.761 211.137 110.002 212.461 113.068C219.743 129.758 230.858 162.929 236.05 183.452C238.629 193.627 239.569 199.62 238.733 200.142C238.071 200.526 235.493 197.111 227.095 184.776C218.384 171.919 213.018 165.02 206.99 158.748C203.576 155.229 201.276 153.312 200.475 153.312C200.196 153.312 199.952 154.044 199.813 155.299C199.534 157.912 198.14 162.86 196.816 166.065C195.457 169.271 192.077 174.985 187.339 181.954C183.332 187.843 182.879 189.132 184.377 189.933C184.9 190.212 187.896 190.456 192.495 190.63C203.855 191.013 206.607 191.954 210.614 196.867C214.691 201.85 219.918 203.592 233.088 204.393C235.667 204.568 237.583 204.846 238.42 205.23C239.186 205.578 240.092 205.752 240.44 205.683C242.078 205.23 242.705 201.85 242.148 196.519C241.242 187.668 238.001 175.368 231.172 154.846C228.942 148.225 227.2 142.72 227.27 142.65C227.339 142.581 227.932 142.685 228.594 142.859C229.221 143.068 230.684 143.208 231.764 143.208C233.646 143.208 233.785 143.138 233.785 142.406C233.785 141.953 232.949 138.539 231.904 134.81C226.433 115.333 227.235 114.88 237.827 131.431C240.615 135.786 243.507 140.107 244.273 141.013C246.225 143.347 248.629 147.424 252.218 154.671C257.131 164.462 265.667 179.341 267.653 181.606C268.35 182.407 267.619 180.7 265.284 176.135C259.361 164.602 252.601 150.664 252.601 149.933C252.601 149.514 256.469 151.884 257.409 152.929C258.071 153.626 262.462 158.957 267.166 164.811C277.305 177.389 279.535 180.003 279.709 179.48C279.988 178.609 277.688 174.741 263.228 151.919C253.368 136.378 247.235 126.448 245.841 123.765L245.249 122.58L250.754 117.249C253.786 114.322 257.061 110.977 258.002 109.793C258.977 108.643 259.883 107.667 260.023 107.667C260.685 107.667 275.877 118.713 282.218 123.8C288.455 128.817 292.358 132.441 294.1 134.915C298.072 140.455 298.769 141.222 301.034 142.72C304.17 144.776 305.773 147.145 308.769 154.114C311.208 159.863 312.602 162.337 313.996 163.696C315.006 164.637 317.201 165.543 317.863 165.299C318.107 165.229 319.118 163.94 320.093 162.441C321.069 160.978 323.369 157.459 325.215 154.636C327.062 151.814 328.735 149.41 328.944 149.305C329.118 149.166 329.501 149.236 329.71 149.445C330.059 149.724 330.093 149.34 329.815 147.563C329.641 146.309 329.327 145.298 329.118 145.298C328.944 145.298 326.086 147.981 322.811 151.222C316.33 157.668 316.086 157.807 314.031 156.239C312.567 155.124 311.522 153.069 310.093 148.434C309.501 146.413 308.595 144.079 308.177 143.173C307.166 141.222 305.32 139.514 303.682 139.061C300.511 138.19 297.584 134.985 292.706 127.11C287.236 118.26 280.476 105.96 280.476 104.88C280.476 104.705 281.103 104.531 281.835 104.531C282.601 104.531 283.298 104.427 283.368 104.252C283.716 103.695 282.915 102.545 281.521 101.569C279.013 99.8273 277.932 96.761 277.166 89.2348C276.887 86.4821 276.678 84.1476 276.748 84.0779C276.817 84.0431 277.41 84.7051 278.037 85.611C279.64 87.841 290.546 98.9562 293.229 101.082C295.842 103.137 298.246 104.287 299.745 104.113C300.755 104.009 300.964 104.183 302.462 106.378C303.368 107.667 304.658 109.827 305.389 111.186C306.678 113.66 306.713 113.869 306.086 116.448C305.877 117.284 305.947 117.423 306.818 117.667C308.699 118.155 311.557 117.981 311.94 117.389C312.846 115.96 305.842 104.949 295.215 91.0118C293.786 89.1302 293.647 87.1441 294.866 85.4716C296.922 82.6145 302.149 75.7502 304.797 72.4052C307.41 69.0951 307.968 68.6073 309.431 68.1195C310.337 67.8059 311.487 67.1787 312.01 66.7257L312.916 65.8546L313.473 67.1787C313.752 67.8756 314.553 70.1752 315.215 72.3007C317.585 79.7573 319.048 81.5343 327.271 87.0745C329.919 88.8515 332.881 91.0466 333.857 91.9526L335.599 93.5554L335.773 97.5624L335.947 101.569L333.299 109.235C331.871 113.486 330.581 117.737 330.477 118.713C330.163 120.943 330.86 122.511 333.264 124.984C336.121 127.946 336.679 127.214 334.763 123.138C334.031 121.57 333.648 120.246 333.648 119.166C333.648 117.667 335.076 112.545 335.494 112.545C335.599 112.545 336.156 113.591 336.749 114.88C338.317 118.434 341.522 123.033 344.519 126.03C346.679 128.225 347.411 129.235 348.247 131.187C351.627 139.445 362.254 159.062 366.784 165.438C369.049 168.644 372.986 171.745 375.913 172.651C376.714 172.895 376.749 172.86 376.54 171.675C375.843 167.354 366.923 149.758 360.094 139.201C358.317 136.448 358.178 136.169 359.083 136.762C359.641 137.11 363.648 139.723 367.969 142.581C372.289 145.403 376.087 147.737 376.401 147.737C377.481 147.737 378.073 147.284 378.77 145.96C379.119 145.229 380.164 143.8 381.035 142.824C382.638 141.013 383.3 139.828 384.763 136.065C385.704 133.661 393.091 121.465 394.276 120.315C394.729 119.897 395.112 119.305 395.112 118.991C395.112 118.434 427.865 64.6351 429.607 62.3703C430.095 61.7082 431.106 59.8963 431.837 58.3632C433.545 54.7395 437.029 49.5129 439.538 46.8648C441.141 45.1574 441.384 44.9832 440.827 45.9937C440.444 46.6557 438.388 50.5931 436.228 54.7046C434.067 58.8162 431.628 63.3807 430.827 64.8093C427.761 70.2798 422.569 81.604 411.001 108.05C407.934 115.124 407.865 116.308 410.757 114.845C412.29 114.044 417.168 108.643 419.537 105.158C420.722 103.381 421.628 102.162 421.523 102.441C421.419 102.719 419.956 106.239 418.283 110.28C412.673 123.904 411.941 127.005 413.893 128.957C414.868 129.932 415.043 129.967 418.178 129.967C423.51 129.967 425.078 130.769 425.078 133.521C425.078 134.985 425.391 135.159 426.193 134.218C426.959 133.347 427.099 132.789 427.691 127.18C428.632 118.329 428.876 117.11 430.374 113.939C431.21 112.162 432.604 107.841 433.893 103.137L436.053 95.2976L436.088 101.744C436.088 105.298 436.262 109.374 436.506 110.838L436.89 113.486L435.322 117.598C434.485 119.862 433.579 121.953 433.37 122.197C433.126 122.511 433.161 122.894 433.579 123.556C434.799 125.368 436.367 123.904 437.447 119.932C437.865 118.434 437.935 118.364 438.179 119.166C438.318 119.653 439.12 121.396 439.956 123.033C441.628 126.448 444.973 129.932 447.203 130.664C448.771 131.187 450.723 130.838 451.21 129.967C451.942 128.608 451.594 127.563 449.991 125.995C448.179 124.218 448.214 124.601 448.946 116.552C449.503 110.28 450.2 107.423 452.5 101.953C453.859 98.7471 454.242 98.1199 455.148 97.7366C456.472 97.1791 456.855 97.3185 459.015 99.0259C461.106 100.664 462.813 100.803 464.381 99.4788C466.611 97.6321 467.448 92.754 466.402 88.0152C465.357 83.4159 464.137 80.8723 457.587 69.6874C454.625 64.6699 454.346 63.9382 453.127 59.4085C452.43 56.7256 451.559 53.5548 451.176 52.3353C450.653 50.6976 450.583 50.0007 450.862 49.4781C451.071 49.0948 451.35 48.7812 451.524 48.7812C451.663 48.7812 452.639 51.6384 453.649 55.1228C455.74 62.4748 457.169 66.2379 458.423 67.8756C459.015 68.677 460.444 69.5829 463.336 70.9418C465.566 71.9871 467.517 73.0324 467.657 73.2763C468.284 74.252 467.901 75.5063 466.542 76.9698C465.775 77.7712 465.148 78.6074 465.148 78.7817C465.148 79.374 466.82 80.8374 467.517 80.8374C468.458 80.8374 470.967 78.921 471.594 77.7363C472.465 75.9942 472.256 74.7398 470.653 72.3704C467.517 67.7013 464.521 64.4609 461.594 62.6142C460.653 62.0218 460.618 61.8824 460.618 59.3389C460.618 57.8406 460.862 54.6698 461.141 52.2307C461.454 49.8265 461.664 46.6557 461.594 45.262C461.489 42.7532 461.454 42.6835 460.409 42.1957C458.353 41.2898 455.426 35.7496 455.113 32.1607C454.904 29.8262 455.426 29.5475 457.935 30.8018C459.782 31.7078 464.799 34.8089 464.416 34.8437C464.312 34.8437 463.266 34.4604 462.082 33.9726C459.886 33.1015 458.528 32.8576 458.528 33.3803C458.528 33.5545 459.573 35.7148 460.862 38.1887C462.151 40.6626 463.406 43.5546 463.65 44.5999C463.928 45.8195 464.103 48.9206 464.103 52.9973V59.5131L465.636 62.5793C467.448 66.1682 470.374 69.5132 475.531 73.9035C482.047 79.4785 484.8 82.0918 487.483 85.3323C491.002 89.5484 491.629 90.8376 492.187 95.4021C492.465 97.4579 492.849 100.001 493.093 101.047L493.511 102.963L493.964 98.782C494.242 96.3777 494.382 92.5101 494.312 89.7226C494.173 84.287 493.72 82.6145 491.49 79.2695C489.713 76.5517 488.493 74.0429 485.566 66.7606C484.103 63.1717 482.117 58.8859 481.176 57.3179C479.155 53.9729 478.145 51.8126 476.298 46.7951L474.974 43.2062L476.995 44.9484C479.294 46.9345 482.221 50.4189 484.173 53.4851C485.775 55.9939 489.295 63.3459 489.922 65.4365C490.27 66.6212 490.723 67.2135 491.943 68.0498C494.974 70.0707 518.041 88.1546 517.623 88.1546C517.553 88.1546 516.751 87.841 515.88 87.4926L514.312 86.7957L514.069 88.4334C513.79 90.5937 513.163 91.4648 511.386 92.3707C508.772 93.6599 506.264 95.5763 506.264 96.2035C506.264 96.552 508.18 98.782 510.549 101.186C514.208 104.914 515.253 105.751 517.936 107.144C522.292 109.444 525.567 111.674 526.786 113.138C527.344 113.8 528.494 115.751 529.33 117.458L530.898 120.559L531.525 118.016C532.118 115.611 532.118 115.263 531.56 110.455C531.246 107.667 530.689 104.461 530.306 103.312C529.957 102.162 529.539 100.524 529.435 99.6531C529.295 98.8168 528.912 97.7018 528.598 97.214C528.25 96.6913 529.435 97.423 531.525 99.0607C543.093 108.085 551.456 114.113 553.407 114.845C555.951 115.786 551.665 111.5 517.239 78.5726C503.441 65.3668 489.713 52.1262 486.751 49.1993C480.828 43.3107 479.504 42.1957 473.336 38.0842C463.58 31.5335 455.566 27.2826 452.395 26.8993C450.932 26.7599 450.897 26.7599 450.165 28.2582C448.423 31.6729 442.987 38.8507 438.667 43.3804C435.984 46.2028 434.66 47.9101 433.266 50.3143C432.708 51.2551 432.186 51.8474 432.116 51.6035C431.872 50.837 428.562 56.1681 428.562 57.3179C428.562 57.6315 427.064 60.9068 425.252 64.6003C422.604 70.001 421.523 71.8129 419.712 73.9035C418.492 75.2973 416.471 77.6667 415.252 79.0952C413.788 80.8374 412.638 81.8131 411.907 82.057C411.105 82.266 410.826 82.5448 410.966 82.9281C411.21 83.6946 406.785 93.9038 403.753 99.6182C400.931 104.845 397.168 110.733 392.743 116.831L389.746 120.908L387.516 121.605C386.296 121.988 384.276 122.301 383.091 122.301H380.896L376.087 113.904C373.474 109.27 370.408 104.357 369.293 102.998C368.178 101.639 362.185 95.6112 355.948 89.5832C349.711 83.5552 344.588 78.4681 344.588 78.3287C344.588 77.3182 346.784 74.1126 350.024 70.3495C354.171 65.5759 360.338 58.5374 360.408 58.5374C360.408 58.5374 360.442 59.4085 360.442 60.4887C360.442 62.2657 360.547 62.5096 361.627 63.4852L362.812 64.5306L361 68.0149C359.989 69.9314 359.223 71.569 359.327 71.6387C359.397 71.7084 360.303 70.2449 361.313 68.3634C363.578 64.2518 363.683 64.1124 364.31 64.3563C365.46 64.7745 366.401 67.5271 368.631 77.0743C370.373 84.3915 371.592 85.6807 372.603 81.2556C372.882 79.9663 374.066 73.2415 375.251 66.2728C376.401 59.304 377.516 53.2412 377.69 52.7534C377.934 52.0914 378.248 51.8823 378.84 51.9868C379.397 52.0565 379.92 52.7534 380.896 54.7395C381.906 56.8998 382.499 57.6315 383.823 58.5026C385.391 59.5827 385.425 59.5827 385.216 58.8162C385.112 58.3632 385.007 57.5967 385.007 57.1088C385.007 56.621 384.554 55.5409 383.997 54.6698C382.638 52.614 382.499 51.6035 382.882 47.4571C383.161 44.356 383.335 43.7985 384.032 43.2062C385.007 42.4048 386.506 42.3003 387.098 43.032C387.864 43.9379 386.993 60.2448 385.704 70.0707C385.251 73.4854 383.927 78.7817 382.568 82.719C381.453 86.064 381.14 88.0501 382.011 86.4124C382.289 85.9246 383.23 83.4856 384.101 81.0117C385.007 78.5029 386.819 73.6596 388.143 70.2101C389.572 66.447 390.756 62.6838 391.105 60.8023C392.986 50.5931 393.439 48.607 394.136 48.1192C394.903 47.5965 398.213 44.809 402.603 41.011C405.67 38.3978 408.213 36.5859 408.945 36.5859C409.189 36.5859 410.269 38.3629 411.279 40.4884C413.126 44.3212 413.3 44.5303 417.238 48.2237C419.468 50.3143 421.733 52.6488 422.22 53.4154C423.335 55.0879 423.649 54.4956 422.882 52.1959C421.558 48.3631 421.001 47.4571 418.353 44.5999C416.471 42.6138 415.217 40.9065 414.485 39.3734C411.767 33.5196 407.9 28.0492 403.161 23.3453C397.342 17.5612 394.38 16.2023 390.826 17.6657ZM402.987 26.1328C406.436 30.0004 409.293 33.3106 409.363 33.5196C409.468 33.7984 408.596 33.8332 406.366 33.6938C403.335 33.5196 400.687 32.7879 400.687 32.1259C400.687 31.9517 400.025 31.3593 399.224 30.8367C396.959 29.4081 395.879 28.2234 395.635 27.1084C395.46 26.307 396.436 19.164 396.715 19.164C396.75 19.164 399.572 22.3 402.987 26.1328ZM382.603 30.5231C381.697 32.6137 380.582 34.9831 380.199 35.7845C379.781 36.5859 379.432 37.3176 379.432 37.4221C379.432 37.5267 380.896 36.6904 382.673 35.5754C386.645 33.1015 389.467 31.4639 389.014 31.9517C388.701 32.3001 375.39 41.1504 374.833 41.3943C374.031 41.7428 374.763 39.8612 376.401 37.3176C378.352 34.2165 384.032 26.4115 384.206 26.5857C384.241 26.6554 383.544 28.4324 382.603 30.5231ZM448.214 43.3107C448.597 43.5895 448.806 43.9728 448.736 44.2167C448.632 44.4954 448.284 44.3212 447.761 43.7637C446.855 42.7881 447.169 42.5442 448.214 43.3107ZM375.251 44.356C375.251 44.4257 374.45 45.0878 373.439 45.8195C371.139 47.5965 367.063 52.4746 364.902 56.0635C363.265 58.7813 362.428 59.6524 362.916 58.1193C363.056 57.6664 363.16 56.8998 363.125 56.3771C363.125 55.6454 363.753 54.844 366.122 52.5443C367.794 50.9415 369.92 48.6767 370.826 47.4571C371.767 46.2028 372.986 45.0181 373.613 44.7742C374.693 44.2863 375.251 44.147 375.251 44.356ZM379.084 44.8787C379.084 45.471 377.028 48.0495 376.227 48.4676C375.46 48.8857 375.46 48.8857 376.052 48.0495C376.366 47.5965 376.993 46.6209 377.411 45.8892C378.073 44.7393 379.084 44.147 379.084 44.8787ZM449.921 53.0321C449.712 56.621 449.538 57.2482 448.144 59.0949C447.447 60.0357 446.576 61.2204 446.263 61.6734C445.914 62.1612 446.402 60.3493 447.343 57.6664C448.806 53.4154 449.817 50.8718 449.991 50.8718C450.026 50.8718 449.991 51.8474 449.921 53.0321ZM449.329 69.7223C447.517 76.3426 446.402 79.827 445.949 80.2799C445.775 80.489 445.635 81.4995 445.635 82.6145C445.635 84.6006 446.576 86.6912 447.656 87.0396C447.9 87.1093 449.468 85.7852 451.141 84.1127C452.813 82.4054 453.893 81.3949 453.58 81.8827C452.5 83.4507 448.109 90.7679 447.865 91.3951C447.726 91.7784 447.412 91.9526 447.099 91.8132C445.914 91.3602 444.416 93.207 442.987 96.8307L442.499 98.0851L442.639 96.3429C442.743 95.3673 442.987 92.0223 443.196 88.8515C443.51 84.3567 443.789 82.6145 444.451 80.8374C444.904 79.5831 445.984 76.2032 446.89 73.346C448.493 68.1543 450.339 63.4852 450.688 63.8337C450.792 63.9382 450.165 66.5863 449.329 69.7223ZM322.393 68.677C326.958 69.9662 333.195 72.5446 334.484 73.6596C334.763 73.9035 335.703 74.2171 336.574 74.3217C338.386 74.5656 339.327 75.4715 338.526 76.2381C338.108 76.6562 337.864 76.6213 336.818 75.8199C335.634 74.914 332.184 73.9732 325.32 72.684C323.613 72.3704 321.278 71.7432 320.093 71.2903C318.177 70.5934 317.828 70.3495 317.166 68.9557C316.226 67.109 316.191 66.7606 316.923 67.0393C317.236 67.1438 319.71 67.8756 322.393 68.677ZM322.881 76.2032C323.334 77.5621 326.191 81.4995 327.236 82.3009C328.769 83.4507 330.895 84.5309 332.323 84.8445C333.229 85.0187 333.613 85.3671 333.996 86.2731C334.275 86.9351 334.728 87.5623 335.006 87.7017C335.285 87.8062 335.529 88.1198 335.529 88.3985C335.529 88.747 335.216 88.6424 334.414 88.0152C333.787 87.5623 330.999 85.7504 328.212 83.9734C325.424 82.2312 322.637 80.2799 322.01 79.6876C320.999 78.7468 319.501 76.4123 319.501 75.7851C319.501 75.6806 320.198 75.6109 321.069 75.6109C322.254 75.6109 322.707 75.7502 322.881 76.2032ZM279.396 81.2207C281.974 82.3357 286.434 85.5413 288.838 88.0152C290.093 89.3045 290.859 90.2104 290.581 90.0362C290.267 89.862 288.525 88.8167 286.713 87.7017C284.866 86.6215 281.835 85.0187 279.953 84.1476C276.12 82.4402 276.12 82.4402 275.807 81.0813C275.563 80.1057 275.598 80.0709 276.713 80.3148C277.34 80.4542 278.56 80.8723 279.396 81.2207ZM346.853 84.7051C349.048 87.4229 349.292 88.3985 347.167 85.9595C345.843 84.4612 344.379 82.2312 344.693 82.2312C344.798 82.2312 345.738 83.3462 346.853 84.7051ZM273.856 87.3532C274.239 88.6076 274.518 89.7226 274.448 89.7923C274.309 89.8968 272.462 85.3671 272.462 84.9142C272.462 84.7399 272.601 84.7399 272.81 84.8445C272.985 84.949 273.472 86.0988 273.856 87.3532ZM272.079 88.0501C271.73 89.7923 269.047 95.1582 267.688 96.7262L266.852 97.7366L267.514 96.3429C267.863 95.5763 269.012 92.8585 270.023 90.3149C271.835 85.7504 272.671 84.8445 272.079 88.0501ZM209.22 93.7645C211.416 97.0049 213.088 101.116 214.482 106.587C215.109 109.165 215.597 111.326 215.527 111.395C215.492 111.465 214.064 108.19 212.356 104.113C210.684 100.036 208.524 95.0537 207.618 93.0327C205.771 89.0606 206.154 89.2348 209.22 93.7645ZM352.463 98.329C350.791 101.709 350.059 105.333 350.268 108.887C350.477 112.232 351.174 114.218 354.205 120.49C357.446 127.18 357.69 127.772 356.993 127.214C355.251 125.786 349.606 115.402 348.386 111.395C347.446 108.399 347.55 107.737 349.989 101.465C351.035 98.7123 352.08 95.7506 352.324 94.8795L352.707 93.2766L353.195 94.531C353.683 95.7157 353.648 95.8899 352.463 98.329ZM444.172 104.287C443.022 108.852 441.977 112.476 441.907 112.406C441.803 112.336 441.768 111.012 441.768 109.479C441.768 107.423 442.012 106.064 442.708 104.148C443.858 100.907 446.053 95.7506 446.193 95.9248C446.263 95.9596 445.357 99.7576 444.172 104.287ZM515.846 99.1652C516.821 99.7924 519.853 102.615 522.64 105.402C526.438 109.2 527.483 110.455 526.961 110.455C526.473 110.455 524.313 108.643 520.828 105.298C517.901 102.475 514.765 99.5834 513.929 98.8516C512.64 97.7715 512.535 97.5624 513.232 97.7366C513.72 97.876 514.905 98.5032 515.846 99.1652ZM358.561 108.782C359.293 110.838 359.815 112.545 359.711 112.545C359.223 112.545 357.167 107.249 356.993 105.576C356.888 104.531 356.923 103.974 357.028 104.322C357.132 104.705 357.794 106.691 358.561 108.782ZM386.331 125.716C385.495 126.901 384.763 127.842 384.659 127.842C384.554 127.876 384.066 127.214 383.544 126.378L382.603 124.915L383.892 124.671C384.589 124.566 385.739 124.218 386.401 123.939C387.063 123.626 387.655 123.451 387.725 123.521C387.795 123.591 387.168 124.566 386.331 125.716ZM142.983 141.535C140.996 143.277 133.296 150.176 129.777 153.382L127.338 155.577L130.543 151.919C132.285 149.898 134.585 147.424 135.596 146.413C137.373 144.706 143.679 140.141 144.376 140.107C144.55 140.072 143.923 140.734 142.983 141.535ZM151.903 161.501C151.903 161.57 151.554 161.814 151.136 162.023C150.369 162.407 150.369 162.372 150.997 161.884C151.728 161.292 151.903 161.222 151.903 161.501Z" fill="#EDF0F3"/>
<path d="M330.651 151.64C330.651 151.953 330.826 152.337 331 152.441C331.453 152.72 331.453 152.267 331 151.57C330.721 151.117 330.651 151.117 330.651 151.64Z" fill="#EDF0F3"/>
</g>
<defs>
<clipPath id="clip0_415_6685">
<rect width="446" height="223" fill="white" transform="translate(108)"/>
</clipPath>
</defs>
</svg>
