<svg width="422" height="130" viewBox="0 0 422 130" fill="none" xmlns="http://www.w3.org/2000/svg">
<path d="M415.188 0.763367C415.781 1.44547 415.781 1.84335 415.307 2.2981C414.299 3.26439 414.418 5.70857 415.603 7.9254C417.085 10.8243 417.026 17.3042 415.485 19.6348L414.24 21.5105L417.559 24.8642C425.146 32.4241 434.452 51.466 437.119 64.7669C437.475 66.4721 437.83 71.8152 437.949 76.6468C438.127 83.8656 437.89 87.7309 436.467 97.9623C434.215 114.674 432.318 122.575 428.702 130.362C427.102 133.772 425.264 137.467 424.612 138.49C423.131 140.991 423.131 141.162 425.561 142.469C426.983 143.322 428.169 144.743 429.532 147.528C431.192 150.768 431.903 151.564 434.037 152.53C436.763 153.724 437.297 155.202 435.4 156.225C434.748 156.509 432.259 156.793 429.828 156.793C425.442 156.793 424.198 156.395 418.804 153.326C417.678 152.701 417.322 152.701 417.144 153.269C416.433 155.088 411.869 159.863 409.379 161.397C406.475 163.16 405.112 163.387 403.334 162.477C402.267 161.909 402.267 161.852 403.334 159.465C404.164 157.76 404.46 155.884 404.401 152.985C404.341 149.859 404.578 148.551 405.586 146.96L406.831 144.913L403.689 143.208C400.074 141.219 394.621 135.932 395.391 135.194C397.169 133.488 406.949 133.716 411.928 135.478C413.351 136.046 414.892 136.33 415.307 136.16C416.611 135.705 421.056 126.554 422.301 121.779C422.953 119.392 423.427 117.288 423.308 117.232C423.19 117.118 421.115 118.88 418.685 121.154C410.921 128.486 403.156 131.613 394.028 131.044C390.294 130.817 388.278 130.362 385.315 129.055C381.225 127.179 375.95 122.916 374.527 120.301L373.638 118.709L370.912 120.699C367.059 123.541 362.732 124.621 356.805 124.28C348.151 123.712 341.513 119.335 330.31 106.773C321.478 96.8255 316.737 92.5624 312.232 90.3456C309.446 88.9814 307.609 88.8109 308.083 89.834C308.261 90.2319 309.209 92.335 310.157 94.5518C313.003 101.032 313.536 103.476 314.069 113.878C314.129 115.356 316.855 115.754 317.981 114.446C318.396 113.935 318.811 112.059 318.93 110.297C319.048 107.569 319.285 107.057 320.234 106.886C321.123 106.773 321.775 107.398 322.96 109.672C323.79 111.32 324.501 113.025 324.501 113.423C324.501 114.276 326.042 114.446 326.576 113.594C326.754 113.31 328.117 113.025 329.599 113.025C332.74 113.025 333.096 114.105 330.429 115.981C329.421 116.663 328.65 117.743 328.65 118.368C328.591 122.063 324.857 126.099 321.538 126.099C319.7 126.099 316.085 124.507 314.425 122.973L312.884 121.552L311.876 125.417C310.335 131.044 307.846 133.318 301.385 135.194C297.532 136.33 295.636 136.217 294.747 134.966C293.976 133.886 294.213 133.602 296.11 133.204C297.888 132.806 302.571 128.941 302.571 127.804C302.571 127.52 301.859 127.065 300.911 126.895C297.355 126.042 294.865 123.257 294.865 120.131C294.865 118.312 296.584 118.198 299.014 119.903C302.748 122.575 305.653 119.448 306.364 111.889C306.957 105.124 304.289 96.5981 299.963 91.7098L298.007 89.493L296.347 92.5624C295.458 94.2676 293.206 97.735 291.309 100.236C289.471 102.737 287.456 105.693 286.863 106.773C284.492 111.263 285.382 119.96 288.582 123.655C290.716 126.099 290.775 127.463 288.76 127.69C287.871 127.804 286.33 127.463 285.263 127.008C284.255 126.497 283.307 126.213 283.129 126.326C282.833 126.667 286.211 132.067 288.108 134.227C288.879 135.137 289.412 136.103 289.175 136.387C288.464 137.524 284.848 136.842 282.062 135.023C276.906 131.726 275.068 127.804 275.009 119.96C275.009 117.402 274.831 115.299 274.594 115.299C274.357 115.299 273.171 115.867 271.927 116.55C268.845 118.312 265.94 119.278 263.451 119.278C261.139 119.278 257.286 117.345 257.642 116.322C257.82 115.924 259.183 115.356 260.843 115.015C266.355 113.764 272.401 109.842 280.995 101.828C289.294 94.0403 292.494 89.6066 292.494 85.7414C292.494 83.6951 291.783 83.4678 286.271 83.8656C281.825 84.2067 281.766 84.2067 280.64 86.253C279.336 88.6403 277.083 90.3456 274.535 90.8003C273.112 91.0845 272.579 91.5961 272.223 92.9603C270.978 97.5644 265.229 99.156 261.436 95.916L259.361 94.2108L257.524 95.5182C253.73 98.1897 247.684 96.3139 246.321 91.994C245.669 89.834 245.491 89.7203 243.239 89.7203C238.023 89.7203 235 87.4467 235 83.5814C235 80.1141 236.185 78.5225 240.038 76.8741C242.765 75.7373 243.239 75.2826 243.95 73.1226C244.543 71.531 245.432 70.2805 246.795 69.4279C248.81 68.1205 252.367 67.7227 253.849 68.6321C254.382 68.9163 255.212 68.5184 256.338 67.5521C257.286 66.6995 259.302 65.6764 260.843 65.3353C263.214 64.7669 263.806 64.8237 265.407 65.7332C266.474 66.3016 267.896 67.6658 268.667 68.689C269.911 70.5079 270.326 70.6784 273.112 70.7353C276.017 70.7921 276.313 70.9626 278.862 73.691L281.647 76.6468H286.152C288.642 76.6468 290.716 76.4194 290.716 76.192C290.716 75.9078 289.234 74.1457 287.515 72.27C284.137 68.7458 282.003 67.4953 272.994 63.8574C266.77 61.2996 266.414 61.0722 262.502 56.6386C260.132 53.967 258.946 51.9776 257.761 48.6808C256.931 46.2366 256.397 44.0198 256.634 43.6787C257.405 42.485 259.242 43.1671 262.206 45.725L265.229 48.3397L264.814 44.0198C264.399 38.7335 265.525 34.5841 269.022 28.6157C270.267 26.4557 271.571 23.841 271.867 22.8179C272.519 20.5442 273.586 20.4305 275.305 22.4768C276.431 23.8979 276.609 24.58 276.372 28.161C276.076 32.6514 275.957 32.5946 279.632 29.8094C281.351 28.502 282.003 28.2747 282.536 28.7862C283.129 29.3546 283.07 29.7525 282.418 30.7757C279.099 35.664 277.617 39.5293 277.261 44.0198C276.609 52.3186 278.447 56.2407 285.026 60.4469C288.345 62.6069 294.51 68.0069 296.525 70.6216C297.236 71.531 297.947 72.1563 298.007 72.0426C299.251 70.5079 300.437 64.5395 300.674 58.9691C300.911 51.6934 300.377 48.965 297.355 43.1103C294.984 38.5061 290.657 37.0851 289.768 40.6093C289.353 42.144 288.049 42.4282 287.515 41.064C287.338 40.5524 287.16 39.2451 287.16 38.0514C287.16 35.7209 289.116 33.4472 292.02 32.3672C292.968 32.0262 293.68 31.5146 293.68 31.1736C293.68 30.0936 287.812 24.5231 285.737 23.5568C283.544 22.5905 282.122 21.1695 282.833 20.7716C283.07 20.6579 285.5 20.7147 288.167 20.9421C295.162 21.5674 297.651 23.2726 301.504 30.0367C302.333 31.4578 303.341 33.9588 303.756 35.6072C304.467 38.5061 304.586 38.6767 306.068 38.3356C310.691 37.3693 313.18 37.3125 315.018 38.2219C318.159 39.6998 320.056 39.4156 322.071 37.0851L323.79 34.9819L324.501 37.3693C325.272 40.2114 324.561 42.8829 322.368 45.7818C321.478 46.9187 320.945 48.3397 320.945 49.6471C320.945 52.3755 319.582 55.3312 317.804 56.4112C315.255 58.0596 313.003 56.0701 314.721 53.7396C315.848 52.1481 315.848 49.3629 314.662 47.7713C313.595 46.2934 312.528 46.1797 310.572 47.4302C308.557 48.6808 307.905 51.0681 307.905 57.6049C307.905 63.6301 307.253 68.4048 305.771 72.611C305.297 73.9752 305.001 75.1689 305.06 75.2826C305.356 75.5099 311.639 73.4636 313.773 72.3837C317.27 70.6784 324.205 66.2448 327.287 63.7438C328.947 62.4364 330.488 61.2996 330.725 61.2996C330.962 61.2996 333.274 59.367 335.941 57.0365C340.801 52.7165 348.033 48.1692 352.537 46.6913C354.197 46.1229 356.449 45.9524 359.176 46.066C363.325 46.3503 365.399 47.0892 368.482 49.4765L370.082 50.6702L371.445 49.0218C374.587 45.0997 379.269 40.8935 382.055 39.4156C384.959 37.8809 385.374 37.8809 390.59 38.2219C396.695 38.6198 401.556 39.984 407.661 42.8829C411.513 44.7587 420.049 50.386 420.819 51.6365C421.649 52.887 422.182 52.0912 421.649 50.386C421.353 49.3629 421.115 47.9418 421.115 47.2029C421.115 45.4408 415.84 34.2999 413.173 30.4346L410.98 27.3083L406.001 32.083C400.844 37.0282 399.185 37.824 397.94 35.664C397.051 34.0725 397.703 31.0599 399.777 27.1378L401.437 24.0115L397.821 23.2726C395.095 22.7042 393.257 21.8516 390.175 19.6916C387.982 18.1 386.145 16.6221 386.145 16.3948C386.145 14.8601 392.25 12.4159 396.102 12.4159C398.592 12.4159 403.689 14.0074 404.578 15.0306C405.764 16.3948 406.297 15.94 406.297 13.5527C406.297 8.6075 407.483 5.48122 410.446 2.58229C413.469 -0.31662 414.062 -0.543991 415.188 0.763367ZM389.523 51.6934C386.856 53.0007 384.604 54.6491 378.854 59.5375C371.801 65.449 370.852 65.6195 363.799 62.948C359.946 61.4701 358.702 61.2427 356.271 61.5838C352.241 62.0953 350.759 62.8911 344.832 68.2342C337.778 74.6005 335.111 76.4762 330.192 78.7499C327.88 79.8299 325.568 80.9099 325.094 81.1941C324.62 81.5351 323.612 81.9899 322.842 82.3309C321.004 83.0699 321.182 83.5246 324.205 85.3435C327.761 87.5035 338.015 95.575 343.469 100.52C346.314 103.078 349.514 105.295 352.3 106.659C356.212 108.478 357.279 108.762 361.013 108.762C364.629 108.762 365.874 108.478 368.6 107.114C371.623 105.579 372.097 105.522 374.231 106.091C375.476 106.489 378.617 108.08 381.166 109.729C386.915 113.31 391.479 114.731 397.406 114.731C405.112 114.731 409.439 113.025 415.485 107.512C421.353 102.225 424.494 96.8823 425.324 90.8571C425.62 88.3561 425.739 86.0256 425.561 85.7414C424.85 84.6046 423.486 85.173 423.486 86.5372C423.486 89.1519 421.234 92.9603 417.855 96.1434C412.817 100.861 411.573 100.407 412.758 94.154C413.114 92.1645 414.003 89.3793 414.773 87.9014L416.196 85.173H414.655C413.232 85.173 412.995 85.514 412.284 87.8445C411.75 89.8908 410.802 91.255 408.727 93.1308C404.697 96.7118 397.051 99.4402 395.925 97.6781C395.391 96.8823 400.489 89.6635 403.037 87.5035C406.238 84.8319 404.46 84.4341 398.473 86.3667C393.139 88.1856 389.405 88.0151 384.544 85.7982C377.609 82.672 377.432 82.5014 380.336 81.0804C386.856 78.011 393.02 77.3857 396.517 79.4888C398.355 80.5688 404.282 81.1373 403.808 80.1709C401.852 76.2489 399.54 73.8047 396.221 72.2131C394.858 71.5879 394.146 70.8489 394.146 70.11C394.146 67.6658 403.689 68.7458 408.194 71.7584C410.091 73.0089 412.343 76.4194 413.054 79.0341C413.351 80.3415 413.766 80.6257 415.188 80.6257C416.196 80.6257 416.966 80.4552 416.966 80.1709C416.966 79.9436 416.314 78.5225 415.485 76.9878C414.655 75.4531 414.003 73.7479 414.003 73.1794C414.003 72.611 413.173 71.2468 412.225 70.2237C411.217 69.1437 410.446 68.1205 410.446 67.8932C410.446 66.1311 420.108 70.8489 421.945 73.5205C422.538 74.3731 423.131 76.0784 423.368 77.3289C423.605 78.6362 424.198 79.8299 424.612 79.9436C426.509 80.5688 423.664 71.4174 420.523 66.8132C416.433 61.0154 406.653 53.626 399.896 51.2955C396.577 50.1586 392.368 50.3292 389.523 51.6934Z" fill="#EDF0F3"/>
</svg>
