<svg width="16" height="16" viewBox="0 0 16 16" fill="none" xmlns="http://www.w3.org/2000/svg">
<path d="M9.73909 3.23028C9.6737 2.70719 9.05575 2.46334 8.65078 2.80082L5.30471 5.58921C5.24481 5.63913 5.16929 5.66647 5.09132 5.66647H2.49935C2.03911 5.66647 1.66602 6.03957 1.66602 6.4998V9.4998C1.66602 9.96004 2.03911 10.3331 2.49935 10.3331H5.09132C5.16929 10.3331 5.24481 10.3605 5.30471 10.4104L8.65078 13.1988C9.05575 13.5363 9.6737 13.2924 9.73909 12.7693L9.80296 12.2583C10.1565 9.43032 10.1565 6.56929 9.80296 3.74128L9.73909 3.23028Z" fill="#82919F"/>
<path d="M13.2715 3.96365C13.5336 3.87694 13.8165 4.01918 13.9032 4.28136C14.2901 5.45134 14.4994 6.70164 14.4994 7.99981C14.4994 9.29798 14.2901 10.5483 13.9032 11.7183C13.8165 11.9804 13.5336 12.1227 13.2715 12.036C13.0093 11.9493 12.867 11.6664 12.9537 11.4043C13.3076 10.3343 13.4994 9.18995 13.4994 7.99981C13.4994 6.80967 13.3076 5.66532 12.9537 4.59537C12.867 4.33319 13.0093 4.05036 13.2715 3.96365Z" fill="#82919F"/>
<path d="M12.0209 5.29827C11.9256 5.03907 11.6383 4.90615 11.3791 5.00139C11.1199 5.09662 10.987 5.38395 11.0822 5.64315C11.3519 6.3771 11.4993 7.17068 11.4993 7.99981C11.4993 8.68755 11.3979 9.3507 11.2095 9.97558C11.199 10.0104 11.1882 10.0451 11.1772 10.0797C11.1475 10.1728 11.1158 10.2651 11.0822 10.3565C10.987 10.6157 11.1199 10.903 11.3791 10.9982C11.6383 11.0935 11.9256 10.9605 12.0209 10.7013C12.0594 10.5965 12.0957 10.4906 12.1299 10.3837C12.1425 10.344 12.1549 10.3042 12.1669 10.2642C12.3832 9.54676 12.4993 8.78639 12.4993 7.99981C12.4993 7.05128 12.3305 6.14105 12.0209 5.29827Z" fill="#82919F"/>
</svg>
