<svg width="429" height="321" viewBox="0 0 429 321" fill="none" xmlns="http://www.w3.org/2000/svg">
<path opacity="0.08" d="M-5.04934 -70.1595C-6.47713 -68.515 -6.47713 -67.5556 -5.3349 -66.4592C-2.90765 -64.1294 -3.19321 -58.2364 -6.0488 -52.8915C-9.61828 -45.9021 -9.4755 -30.2787 -5.76324 -24.6598L-2.76487 -20.1372L-10.7605 -12.0515C-29.0363 6.17584 -51.4526 52.0867 -57.8777 84.1558C-58.7344 88.2672 -59.5911 101.15 -59.8766 112.799C-60.305 130.204 -59.7339 139.523 -56.3071 164.191C-50.8815 204.483 -46.3126 223.533 -37.603 242.308C-33.748 250.531 -29.3218 259.439 -27.7513 261.906C-24.1818 267.936 -24.1818 268.347 -30.0357 271.499C-33.4624 273.555 -36.318 276.981 -39.602 283.697C-43.5998 291.508 -45.3131 293.427 -50.4532 295.757C-57.021 298.635 -58.3061 302.198 -53.7371 304.665C-52.1665 305.35 -46.1698 306.035 -40.3159 306.035C-29.7502 306.035 -26.7518 305.076 -13.7589 297.675C-11.0461 296.168 -10.1894 296.168 -9.76106 297.538C-8.04771 301.924 2.9463 313.436 8.94304 317.136C15.9392 321.385 19.2232 321.933 23.5065 319.74C26.0766 318.37 26.0766 318.233 23.5065 312.477C21.5076 308.365 20.7937 303.843 20.9365 296.853C21.0793 289.316 20.5082 286.163 18.0809 282.326L15.0826 277.392L22.6499 273.281C31.3594 268.484 44.4951 255.739 42.639 253.957C38.3556 249.846 14.797 250.394 2.80353 254.643C-0.62318 256.013 -4.33544 256.698 -5.3349 256.287C-8.47605 255.191 -19.1845 233.126 -22.1829 221.614C-23.7534 215.858 -24.8957 210.787 -24.6101 210.65C-24.3246 210.376 -19.3273 214.625 -13.4733 220.107C5.23077 237.786 23.9349 245.323 45.9229 243.953C54.918 243.405 59.7725 242.308 66.9115 239.156C76.7633 234.634 89.4706 224.355 92.8973 218.051L95.039 214.214L101.607 219.01C110.888 225.863 121.31 228.467 135.588 227.644C156.434 226.274 172.425 215.721 199.411 185.434C220.685 161.45 232.107 151.172 242.958 145.827C249.669 142.538 254.095 142.127 252.953 144.594C252.525 145.553 250.24 150.624 247.956 155.969C241.102 171.592 239.817 177.485 238.532 202.565C238.39 206.128 231.822 207.087 229.109 203.935C228.109 202.702 227.11 198.179 226.824 193.931C226.539 187.352 225.968 186.119 223.683 185.708C221.542 185.434 219.971 186.941 217.115 192.423C215.116 196.397 213.403 200.509 213.403 201.468C213.403 203.524 209.691 203.935 208.406 201.879C207.978 201.194 204.694 200.509 201.124 200.509C193.557 200.509 192.7 203.113 199.125 207.635C201.552 209.28 203.409 211.884 203.409 213.391C203.551 222.299 212.546 232.03 220.542 232.03C224.968 232.03 233.678 228.192 237.676 224.492L241.388 221.066L243.815 230.385C247.527 243.953 253.524 249.435 269.087 253.957C278.368 256.698 282.937 256.424 285.078 253.409C286.935 250.805 286.363 250.12 281.794 249.161C277.511 248.201 266.232 238.882 266.232 236.141C266.232 235.456 267.945 234.36 270.229 233.948C278.796 231.893 284.793 225.177 284.793 217.64C284.793 213.254 280.652 212.98 274.798 217.092C265.803 223.533 258.807 215.995 257.094 197.768C255.666 181.459 262.091 160.902 272.514 149.116L277.226 143.771L281.223 151.172C283.365 155.283 288.791 163.643 293.36 169.673C297.786 175.703 302.64 182.83 304.068 185.434C309.779 196.26 307.638 217.229 299.927 226.137C294.787 232.03 294.645 235.319 299.499 235.867C301.641 236.141 305.353 235.319 307.923 234.223C310.35 232.989 312.635 232.304 313.063 232.578C313.777 233.4 305.639 246.42 301.07 251.628C299.214 253.82 297.929 256.15 298.5 256.835C300.213 259.576 308.923 257.932 315.633 253.546C328.055 245.597 332.481 236.141 332.624 217.229C332.624 211.062 333.052 205.991 333.623 205.991C334.194 205.991 337.05 207.361 340.048 209.006C347.473 213.254 354.469 215.584 360.466 215.584C366.034 215.584 375.315 210.925 374.458 208.458C374.03 207.498 370.746 206.128 366.748 205.306C353.47 202.291 338.906 192.834 318.203 173.511C298.214 154.735 290.504 144.045 290.504 134.726C290.504 129.793 292.217 129.244 305.496 130.204C316.204 131.026 316.347 131.026 319.06 135.96C322.201 141.716 327.627 145.827 333.766 146.923C337.193 147.609 338.478 148.842 339.335 152.131C342.333 163.232 356.183 167.069 365.32 159.258L370.318 155.146L374.744 158.298C383.882 164.74 398.445 160.217 401.729 149.801C403.3 144.594 403.728 144.32 409.154 144.32C421.718 144.32 429 138.838 429 129.518C429 121.159 426.144 117.321 416.864 113.347C410.296 110.606 409.154 109.51 407.44 104.302C406.013 100.464 403.871 97.4493 400.587 95.3936C395.732 92.2415 387.166 91.2822 383.596 93.475C382.311 94.1602 380.312 93.2009 377.599 90.8711C375.315 88.8154 370.46 86.3485 366.748 85.5262C361.037 84.1558 359.609 84.2928 355.754 86.4856C353.184 87.856 349.757 91.1452 347.901 93.612C344.903 97.9975 343.904 98.4087 337.193 98.5457C330.197 98.6828 329.483 99.0939 323.343 105.672L316.633 112.799H305.781C299.785 112.799 294.787 112.25 294.787 111.702C294.787 111.017 298.357 106.769 302.497 102.246C310.636 93.7491 315.776 90.734 337.478 81.963C352.47 75.7959 353.327 75.2477 362.75 64.558C368.462 58.1168 371.317 53.3201 374.173 45.3714C376.172 39.4783 377.457 34.1335 376.886 33.3112C375.029 30.4332 370.603 32.0778 363.464 38.2449L356.183 44.5491L357.182 34.1335C358.181 21.3881 355.469 11.3836 347.045 -3.00632C344.046 -8.21414 340.905 -14.5183 340.191 -16.9852C338.621 -22.467 336.051 -22.7411 331.91 -17.8074C329.197 -14.3813 328.769 -12.7367 329.34 -4.10272C330.054 6.72403 330.339 6.58698 321.487 -0.128326C317.347 -3.28043 315.776 -3.82861 314.491 -2.59518C313.063 -1.2247 313.206 -0.265381 314.776 2.20148C322.772 13.9875 326.342 23.3068 327.198 34.1335C328.769 54.1424 324.343 63.5987 308.494 73.7402C300.499 78.948 285.65 91.9675 280.795 98.2716C279.082 100.464 277.368 101.972 277.226 101.698C274.227 97.9975 271.372 83.6076 270.8 70.1769C270.229 52.6349 271.514 46.0566 278.796 31.9407C284.507 20.8399 294.93 17.4137 297.072 25.9106C298.071 29.6109 301.212 30.2962 302.497 27.007C302.926 25.7736 303.354 22.6215 303.354 19.7435C303.354 14.1246 298.642 8.6427 291.646 6.03879C289.362 5.21652 287.648 3.98309 287.648 3.1608C287.648 0.556885 301.784 -12.8737 306.781 -15.2036C312.064 -17.5334 315.49 -20.9595 313.777 -21.9189C313.206 -22.193 307.352 -22.0559 300.927 -21.5077C284.079 -20.0002 278.082 -15.8888 268.802 0.419861C266.803 3.84604 264.375 9.87613 263.376 13.8505C261.663 20.8399 261.377 21.251 257.808 20.4288C246.671 18.099 240.674 17.9619 236.248 20.1547C228.681 23.7179 224.112 23.0327 219.257 17.4137L215.116 12.343L213.403 18.099C211.547 24.9513 213.26 31.3925 218.543 38.382C220.685 41.1229 221.97 44.5491 221.97 47.7012C221.97 54.2794 225.254 61.4059 229.537 64.0098C235.677 67.9842 241.102 63.1875 236.962 57.5686C234.249 53.7313 234.249 47.0159 237.104 43.1786C239.675 39.6154 242.245 39.3413 246.956 42.3563C251.811 45.3714 253.381 51.1273 253.381 66.8878C253.381 81.4148 254.952 92.9268 258.521 103.068C259.664 106.357 260.378 109.235 260.235 109.51C259.521 110.058 244.386 105.124 239.246 102.52C230.822 98.4087 214.117 87.719 206.693 81.6889C202.695 78.5368 198.982 75.7959 198.411 75.7959C197.84 75.7959 192.272 71.1363 185.847 65.5173C174.139 55.1017 156.72 44.1379 145.868 40.5747C141.871 39.2043 136.445 38.7931 129.877 39.0672C119.883 39.7524 114.885 41.5341 107.461 47.29L103.606 50.168L100.322 46.1937C92.7545 36.7374 81.475 26.5959 74.7643 23.0327C67.7682 19.3324 66.7687 19.3324 54.2041 20.1547C39.4978 21.114 27.7899 24.4031 13.0836 31.3925C3.80298 35.9151 -16.7573 49.4828 -18.6134 52.4978C-20.6123 55.5129 -21.8973 53.5942 -20.6123 49.4828C-19.8984 47.0159 -19.3273 43.5898 -19.3273 41.8081C-19.3273 37.5597 -6.61992 10.6984 -0.194839 1.37918L5.088 -6.15842L17.0815 5.35355C29.5033 17.2767 33.5011 19.1953 36.4995 13.9875C38.6412 10.1502 37.0706 2.88672 32.0733 -6.56955L28.0755 -14.1071L36.785 -15.8888C43.3529 -17.2592 47.779 -19.315 55.2036 -24.5228C60.4864 -28.3601 64.9126 -31.9233 64.9126 -32.4715C64.9126 -36.1718 50.2063 -42.0648 40.9256 -42.0648C34.9289 -42.0648 22.6499 -38.2275 20.5082 -35.7607C17.6526 -32.4715 16.3676 -33.5679 16.3676 -39.3239C16.3676 -51.247 13.512 -58.7846 6.37301 -65.774C-0.908737 -72.7634 -2.33653 -73.3116 -5.04934 -70.1595ZM56.7741 52.6349C63.1992 55.787 68.6248 59.7613 82.4744 71.5474C99.4652 85.8003 101.75 86.2115 118.74 79.7702C128.021 76.207 131.019 75.6588 136.873 76.4811C146.582 77.7145 150.152 79.6332 164.43 92.5156C181.421 107.865 187.846 112.387 199.696 117.869C205.265 120.473 210.833 123.077 211.975 123.762C213.118 124.585 215.545 125.681 217.401 126.503C221.827 128.285 221.399 129.381 214.117 133.767C205.55 138.975 180.849 158.435 167.714 170.359C160.86 176.526 153.15 181.87 146.44 185.16C137.016 189.545 134.446 190.23 125.451 190.23C116.741 190.23 113.743 189.545 107.175 186.256C99.8935 182.556 98.7513 182.419 93.6112 183.789C90.6128 184.748 83.0455 188.586 76.906 192.56C63.0564 201.194 52.0624 204.62 37.7845 204.62C19.2232 204.62 8.80026 200.509 -5.76324 187.215C-19.8984 174.47 -27.4657 161.587 -29.4646 147.06C-30.1785 141.03 -30.4641 135.411 -30.0357 134.726C-28.3224 131.985 -25.0385 133.356 -25.0385 136.645C-25.0385 142.949 -19.6128 152.131 -11.4744 159.806C0.661835 171.181 3.6602 170.084 0.804615 155.009C-0.052063 150.213 -2.19375 143.497 -4.04988 139.934L-7.47659 133.356H-3.76432C-0.33762 133.356 0.233498 134.178 1.94685 139.797C3.23186 144.731 5.51633 148.02 10.5136 152.542C20.2226 161.176 38.6412 167.755 41.354 163.506C42.639 161.587 30.3599 144.182 24.2204 138.975C16.5103 132.533 20.7937 131.574 35.2144 136.234C48.0646 140.619 57.0597 140.208 68.7676 134.863C85.4728 127.326 85.9011 126.915 78.9049 123.488C63.1992 116.088 48.3502 114.58 39.9262 119.651C35.5 122.255 21.2221 123.625 22.3643 121.296C27.076 111.839 32.6444 105.946 40.6401 102.109C43.924 100.601 45.6373 98.8198 45.6373 97.0382C45.6373 91.1452 22.6499 93.7491 11.7986 101.013C7.22969 104.028 1.80407 112.25 0.0907173 118.555C-0.62318 121.707 -1.62263 122.392 -5.04934 122.392C-7.47659 122.392 -9.33272 121.981 -9.33272 121.296C-9.33272 120.747 -7.76215 117.321 -5.76324 113.621C-3.76432 109.921 -2.19375 105.809 -2.19375 104.439C-2.19375 103.068 -0.194839 99.7791 2.08963 97.3123C4.51688 94.7084 6.37301 92.2415 6.37301 91.6934C6.37301 87.4449 -16.9 98.8198 -21.3262 105.261C-22.754 107.317 -24.1818 111.428 -24.7529 114.443C-25.324 117.595 -26.7518 120.473 -27.7513 120.747C-32.3202 122.255 -25.4668 100.19 -17.8995 89.0895C-8.04771 75.1106 15.5109 57.2945 31.7877 51.6755C39.7834 48.9346 49.9207 49.3457 56.7741 52.6349Z" fill="#EDF0F3"/>
</svg>
