<svg width="120" height="33" viewBox="0 0 120 33" fill="none" xmlns="http://www.w3.org/2000/svg">
<path d="M59.4576 0.785692C59.1544 1.13287 58.5783 2.11404 58.1539 3.01973L57.8658 3.66881H56.9411C55.5918 3.66881 55.5615 3.9858 56.7288 5.73681C57.5778 7.01987 58.1387 8.34822 58.3206 9.55581C58.4722 10.5219 58.4571 10.8389 58.2448 11.6691C58.1084 12.2125 57.8052 12.9823 57.5626 13.3899C57.2139 14.0088 56.9562 14.2352 55.986 14.7635C54.6367 15.4881 52.863 15.9409 51.6502 15.8655L50.8316 15.8202L50.4071 14.3862C49.8917 12.5899 49.0579 10.6728 48.2393 9.40486C47.8906 8.86144 47.4813 8.22746 47.3297 8.00104C47.0113 7.48781 44.6918 4.8764 43.9035 4.15185C43.1607 3.45748 41.2505 2.11404 40.3409 1.66119C39.5375 1.25363 38.1731 0.951736 37.218 0.951736C36.7935 0.951736 36.5964 1.02721 36.4752 1.25363C36.3387 1.51025 36.4145 1.61591 37.1119 2.05366C37.5515 2.34046 38.1579 2.68764 38.4611 2.8235C38.7643 2.95935 39.1736 3.24615 39.3707 3.45748L39.7345 3.83485L39.0069 3.53296C38.1276 3.15559 37.2028 3.1254 36.9148 3.45748C36.6268 3.80466 36.8542 4.06128 38.2337 4.98207C41.5083 7.15573 43.8277 9.10296 45.1163 10.7634C46.1927 12.1521 47.2235 14.205 47.2842 15.0654C47.3145 15.6239 47.2842 15.6692 46.9355 15.6239C45.9501 15.4881 44.328 14.7635 42.3875 13.5559C38.9766 11.4578 38.1579 11.1408 34.5347 10.537C31.5634 10.0388 28.971 9.38976 27.9856 8.89163C27.0305 8.4086 26.8031 8.4086 26.6364 8.83125C26.4696 9.269 26.9244 10.4464 27.5157 11.171C28.0159 11.7748 29.638 13.0276 29.9261 13.0276C30.3202 13.0276 30.0625 13.2691 29.1529 13.7673C26.8789 15.0051 26.2271 15.307 25.9845 15.2315C25.8329 15.2013 25.7116 15.2315 25.7116 15.2919C25.7116 15.3673 25.4994 15.473 25.2417 15.5183C24.6656 15.6541 23.3315 15.0956 23.2102 14.6579C23.0283 14.1296 23.3012 14.0843 23.9228 14.5371C25.2871 15.5334 26.6212 14.7183 26.6212 12.9069C26.6212 11.6993 26.1816 10.9294 25.1962 10.4313C24.5291 10.0841 23.6802 10.1445 23.0435 10.5521C22.6948 10.7785 22.619 10.7785 21.8762 10.4615C21.1182 10.1294 19.8751 10.0087 19.5112 10.22C19.2232 10.4011 19.3293 10.7785 19.7841 11.2917C20.345 11.9408 20.7695 13.1937 20.6482 13.8578C20.5876 14.1446 20.4966 14.4164 20.4208 14.4465C20.3602 14.4918 19.3899 13.8729 18.2681 13.088C16.4186 11.7748 14.1143 10.4615 13.6746 10.4615C13.5685 10.4615 13.4018 10.22 13.2956 9.93318C12.9318 8.92182 11.7342 8.68031 10.3091 9.32939C9.32375 9.78223 8.99023 9.81242 9.06603 9.43505C9.09635 9.269 9.27827 9.16334 9.56631 9.13315C10.5972 9.04258 10.7033 8.9822 10.7033 8.42369C10.7033 7.78971 10.4001 7.59348 9.44503 7.59348C8.64155 7.59348 7.51972 8.13689 7.262 8.66521C6.77688 9.60109 7.23168 10.8691 8.29287 11.5785L9.03571 12.0767L8.71735 12.3635C8.29287 12.7559 7.73196 13.722 7.51972 14.4918L7.32264 15.1107L6.7314 14.6881C5.24573 13.6163 3.39622 14.1446 3.60846 15.5787L3.6691 16.0315L2.69886 16.1372C1.41027 16.273 0.697754 16.8315 0.697754 17.7372C0.697754 19.0505 1.60735 19.9109 3.25978 20.1524C3.9723 20.2581 4.33613 20.3788 4.33613 20.5147C4.33613 20.9373 5.01833 21.4958 5.62473 21.5864C6.10985 21.6468 6.3524 21.5864 6.8072 21.2694C7.47424 20.8166 7.51972 20.8015 7.51972 21.1034C7.51972 21.5864 8.27771 22.794 9.02055 23.4884L9.79371 24.1978L9.29343 24.4997C9.03571 24.6658 8.77799 24.8167 8.73251 24.8318C8.48995 24.9526 7.97452 25.8734 7.97452 26.2054C7.97452 27.2319 9.39955 28.2734 10.7943 28.2734C11.6735 28.2734 12.1132 27.9866 12.0374 27.4734C11.9919 27.1564 11.81 27.0357 11.0823 26.8092C10.8397 26.7489 10.6275 26.5828 10.6275 26.4621C10.6275 26.1451 11.3249 26.0998 11.9919 26.3715C12.3103 26.5073 12.8712 26.613 13.235 26.613C13.8111 26.613 13.993 26.5375 14.4478 26.0847C14.9178 25.6167 14.9784 25.4809 14.9026 24.9677L14.8268 24.3941L15.797 23.9261C16.3276 23.6695 17.4798 22.9751 18.3591 22.3864C19.2535 21.8128 19.9963 21.3298 20.0418 21.3298C20.0721 21.3298 20.1025 21.526 20.1025 21.7676C20.1025 22.2506 19.8599 22.5072 19.2535 22.6732C18.2833 22.9299 18.4955 23.6846 19.6325 24.0167C20.4056 24.2582 20.6937 24.2431 21.2243 23.9714C21.6336 23.7601 21.6942 23.7601 21.9823 24.0318C23.1344 25.0733 24.2108 25.028 25.4842 23.8959C26.2119 23.2468 26.3332 22.5223 25.939 21.3298C25.5903 20.2732 25.1052 19.926 24.0744 20.0015C23.2709 20.0769 23.2709 20.0769 23.5741 19.775C23.8015 19.5335 24.135 19.458 25.2871 19.4128L26.697 19.3373L28.0614 20.0316C28.8194 20.4241 29.5926 20.8619 29.7896 21.0128L30.1686 21.2996L28.9558 21.9034C27.455 22.6581 26.1209 23.8506 26.1967 24.3639C26.2271 24.6658 26.318 24.7261 26.697 24.6809C28.0159 24.5601 30.0928 24.6507 31.3966 24.8771C34.4741 25.4356 36.6874 24.8016 41.0686 22.1298C45.0557 19.6996 46.9355 18.8241 46.9355 19.3675C46.9355 19.6845 45.7227 22.0996 45.1163 23.0053C44.3128 24.1827 42.5998 25.8884 41.4779 26.6281C41.0231 26.93 39.7952 27.6244 38.7492 28.1527C36.8542 29.1338 36.551 29.4056 36.93 29.8584C37.2332 30.2207 37.9608 30.1301 39.5829 29.5565C39.9316 29.4357 38.8401 30.1603 37.8547 30.7037C37.4757 30.915 37.0361 31.2622 36.8693 31.5037C36.551 31.9113 36.551 31.9264 36.839 32.1377C37.506 32.6208 39.7497 31.7453 42.4027 29.9943C44.0703 28.8772 46.4504 26.8545 47.1932 25.9186C48.9669 23.6544 49.9372 21.8128 50.4526 19.775C50.8164 18.3108 50.6952 18.3863 52.3931 18.4618C53.8181 18.5222 55.7434 19.4731 56.8198 20.6505C57.4262 21.3147 57.8961 22.628 57.79 23.3676C57.5778 24.7111 56.7137 26.6432 55.7283 27.9112C55.0006 28.8621 54.8035 29.3603 55.1219 29.5565C55.1977 29.6018 55.7434 29.6471 56.3195 29.6622H57.3504L58.3661 31.0811C58.927 31.866 59.4879 32.5 59.6244 32.5C59.9276 32.5 60.4278 31.9113 61.201 30.6584C62.0045 29.3301 62.1106 29.2546 62.7473 29.4659C63.4901 29.7225 64.3694 29.7225 64.521 29.481C64.6575 29.2546 64.521 28.9074 64.0662 28.3791C61.9438 25.8432 61.0494 24.1374 61.2616 23.0204C61.4132 22.16 61.9893 21.4204 63.2476 20.4241C65.1577 18.9297 66.795 18.3108 68.8871 18.3108H69.6754V18.809C69.6754 20.2279 70.4182 22.628 71.3885 24.3488C71.9494 25.345 74.1021 27.4734 75.891 28.8169C77.4221 29.9792 81.5911 32.1075 82.8039 32.3491C83.8499 32.5604 84.1076 32.4849 84.047 31.9415C84.0015 31.5792 83.7741 31.4132 82.2278 30.6131C80.4693 29.7225 79.3929 29.0433 80.0599 29.2546C80.2267 29.315 80.8937 29.4659 81.5304 29.6018C82.8494 29.8584 83.2132 29.7376 83.1374 29.0584C83.1071 28.7565 82.8039 28.5451 81.5304 27.8659C79.6355 26.8847 76.7096 24.862 75.6636 23.8205C74.6782 22.8393 73.8595 21.2543 73.5412 19.7599C73.4199 19.1109 73.3289 18.5523 73.3593 18.5222C73.526 18.3561 76.558 19.8656 77.0734 20.3637C77.1644 20.4694 77.8921 21.0279 78.6652 21.6015C80.0751 22.6431 81.0302 23.1563 82.2581 23.5337C83.0464 23.7752 86.6393 24.0318 89.3833 24.0469C90.7325 24.0469 91.6421 24.1374 92.5365 24.3488C93.9919 24.696 94.2648 24.7111 94.4922 24.4846C94.6286 24.3488 94.6286 24.2129 94.4619 23.911C94.098 23.2167 92.4153 21.5713 91.5057 21.0279C91.3238 20.9071 91.3238 20.8468 91.6118 20.5902C92.0969 20.1373 93.4916 19.292 94.0677 19.0958C95.0531 18.7486 97.0542 18.9448 97.5393 19.4278C97.888 19.7599 97.7364 19.8203 96.9481 19.6392C96.0385 19.4278 95.5231 19.5637 94.9773 20.1675C94.1738 21.043 94.5831 22.4921 95.8262 23.2167C96.842 23.8205 97.6606 23.8657 98.358 23.3978L98.9189 23.0053L99.4798 23.3072C100.147 23.6393 100.965 23.6695 101.511 23.3978C102.102 23.0959 102.072 22.7336 101.405 22.4317C100.905 22.1902 100.799 22.0544 100.617 21.36C100.496 20.9222 100.45 20.5298 100.496 20.4845C100.662 20.3034 101.496 20.7109 102.481 21.4355C103.027 21.8279 103.906 22.4619 104.452 22.8393L105.438 23.5186L105.347 24.1525C105.286 24.6356 105.332 24.8922 105.589 25.3148C106.256 26.3715 107.014 26.6583 108.394 26.4017L108.985 26.296L108.591 26.764C108.091 27.3527 108.091 27.4281 108.576 27.8055C109.076 28.198 109.622 28.2131 110.501 27.8206C112.442 26.9602 112.578 25.028 110.759 24.2431L110.228 24.0167L110.607 23.7752C111.502 23.1714 112.199 22.4015 112.608 21.5562C112.836 21.0581 113.033 20.56 113.033 20.4543C113.033 20.3335 113.215 20.3939 113.533 20.6354C114.2 21.1487 114.716 21.2392 115.337 20.9826C115.822 20.7864 116.368 20.0165 116.368 19.5486C116.368 19.458 116.671 19.3373 117.05 19.2769C117.884 19.1561 118.581 18.7184 119.051 18.024C119.991 16.6504 118.9 14.99 117.065 14.99C116.413 14.99 116.353 14.9598 116.156 14.4767C115.731 13.4654 114.518 13.088 113.321 13.6012L112.623 13.9031L112.442 13.3899C112.335 13.1031 112.017 12.5597 111.729 12.1974C111.123 11.3974 111.123 11.3672 111.517 11.3672C111.699 11.3672 112.123 11.0955 112.472 10.7785C113.063 10.22 113.109 10.1294 113.109 9.35958C113.109 8.65012 113.033 8.43879 112.639 7.95575C112.063 7.2312 110.986 6.76326 110.243 6.89911C108.909 7.15573 108.97 8.1218 110.334 8.58974C110.85 8.75578 111.092 9.10296 110.713 9.10296C110.577 9.10296 110.168 8.96711 109.773 8.80107C108.03 8.06142 106.378 8.83125 106.726 10.22C106.802 10.5521 106.741 10.6124 106.014 10.854C104.998 11.1861 103.315 12.0163 101.526 13.088C100.738 13.5559 100.026 13.9333 99.9649 13.9333C99.9043 13.9333 99.8436 13.7824 99.8436 13.6012C99.8436 13.4201 99.6314 12.8012 99.3585 12.2276L98.8734 11.1861L99.2069 10.9294C99.3888 10.7936 99.6617 10.5823 99.8285 10.4615C100.298 10.1143 99.9043 9.69166 99.0098 9.586C98.1306 9.49543 97.0694 9.97846 96.7358 10.6124C96.5842 10.9143 96.3568 11.0653 95.9475 11.1408C94.8257 11.337 93.9313 12.3936 94.1435 13.254C94.189 13.4503 94.4467 13.8578 94.7044 14.1597C95.0834 14.5824 95.2805 14.6881 95.7353 14.6881C96.0385 14.6881 96.5084 14.5522 96.7813 14.3862C97.4787 13.9635 97.4332 14.3862 96.7207 14.9296C96.2659 15.2768 96.0233 15.3522 95.3108 15.3522C94.5225 15.3522 94.3254 15.2768 93.2339 14.5975C92.0363 13.8427 90.3384 13.0276 89.9897 13.0276C89.8836 13.0276 90.1868 12.771 90.6416 12.454C92.3243 11.3219 93.4613 9.96337 93.4765 9.05768C93.4765 8.71049 93.2794 8.74068 92.0817 9.23882C90.8538 9.76714 88.883 10.1294 85.5175 10.4615C84.6079 10.5521 83.3042 10.7332 82.6371 10.854C81.394 11.0955 79.2413 12.0163 78.6955 12.5144C78.5288 12.6804 78.0133 13.0427 77.5585 13.3295C77.1038 13.6163 76.3912 14.0843 75.9668 14.3862C75.0875 15.0201 74.0414 15.4428 73.3441 15.4428C72.8741 15.4428 72.859 15.4126 72.859 14.839C72.859 13.5861 73.7079 11.7446 75.2542 9.67657C75.9971 8.68031 78.3014 6.6425 79.2565 6.14437C80.7421 5.37453 82.3642 4.60469 82.8645 4.43865C83.1526 4.34808 83.6074 4.10656 83.8499 3.89524C84.2896 3.53296 84.2896 3.50277 84.0167 3.30653C83.6832 3.03483 82.2733 2.83859 81.7882 2.98954C80.9998 3.23106 81.8791 2.64236 83.1677 2.06876C84.6534 1.41968 84.9869 1.17816 84.9869 0.755503C84.9869 0.483795 84.896 0.4687 83.668 0.529079C82.7129 0.589458 82.0307 0.725313 81.2727 1.01212C78.0285 2.26499 76.0122 3.66881 73.5412 6.47646C72.9651 7.12553 72.4042 7.72933 72.3132 7.8199C71.9949 8.1218 71.1914 9.52562 70.5395 10.9143C69.8573 12.3635 69.5238 13.7371 69.5238 15.0352V15.7447L68.9629 15.7598C64.9607 15.8655 62.2015 14.4767 61.8529 12.1823C61.6406 10.7181 62.3835 8.31803 63.9146 5.58586C64.4149 4.68017 64.8242 3.89524 64.8242 3.81976C64.8242 3.54805 64.4604 3.47258 63.384 3.50277L62.2925 3.53296L61.4587 2.05366C60.7159 0.770597 60.5491 0.574364 60.1701 0.529079C59.8821 0.49889 59.6395 0.589458 59.4576 0.785692ZM13.3563 14.0994C14.4781 14.3862 15.6151 14.8994 17.2979 15.8504C19.0413 16.8315 19.9812 17.5259 19.7235 17.6467C19.6325 17.6768 19.0413 18.0693 18.4197 18.5222C17.783 18.975 17.1008 19.4278 16.9037 19.5335C16.7066 19.6241 16.267 19.9411 15.9335 20.1977C15.6 20.4694 14.8268 20.9373 14.2204 21.2543C12.9924 21.8883 12.4315 21.9034 11.6281 21.3147C10.7033 20.6354 10.9155 19.6392 12.1283 19.0052C12.4315 18.8391 12.6741 18.5976 12.6741 18.4467C12.6741 18.3108 12.3557 17.9335 11.9616 17.6165C10.9913 16.8315 10.7336 16.5296 10.5365 15.8655C10.3849 15.3824 10.4001 15.2466 10.6275 14.8843C11.1884 14.0239 12.0829 13.7673 13.3563 14.0994ZM108.485 14.1446C108.955 14.2805 109.394 14.8541 109.5 15.4881C109.607 16.1975 109.137 16.7259 108.197 16.9523C107.393 17.1334 107.029 17.4353 107.196 17.7221C107.257 17.8127 107.742 18.0844 108.273 18.3259C109.364 18.809 110.001 19.3524 110.001 19.8052C110.001 20.1675 109.197 21.1185 108.788 21.2543C107.575 21.6317 106.741 21.3147 103.452 19.1712C102.967 18.8542 102.572 18.5373 102.572 18.4618C102.572 18.3712 102.512 18.3259 102.451 18.341C102.315 18.3863 100.768 17.6617 100.768 17.5561C100.768 17.4806 102.512 16.3334 104.589 15.0201C105.938 14.1899 107.393 13.8578 108.485 14.1446ZM87.7157 16.5296C88.883 16.8768 89.7471 17.2391 89.6562 17.3448C89.6107 17.3749 89.0043 17.5108 88.3069 17.6316C87.6096 17.7523 86.8667 17.9033 86.6545 17.9486C85.472 18.2203 81.8336 17.7523 80.2115 17.1032L79.7567 16.9221L80.1509 16.7259C81.5001 16.0164 85.6388 15.9107 87.7157 16.5296ZM39.7952 16.8315C40.4167 17.0278 40.9473 17.2542 40.9777 17.3448C41.0383 17.5108 38.1276 18.3863 36.839 18.5976C35.0653 18.8693 33.1855 18.5825 31.4269 17.7825L30.6992 17.4353L31.2753 17.2089C33.898 16.1825 37.2332 16.0315 39.7952 16.8315ZM61.0191 16.8013C61.4436 17.1334 61.7922 17.4655 61.7922 17.5259C61.7922 17.6919 59.9124 18.9146 59.6547 18.9146C59.3818 18.9146 58.1235 17.7221 58.1842 17.5259C58.26 17.3297 59.8366 16.2277 60.0792 16.2126C60.1701 16.1975 60.5946 16.4693 61.0191 16.8013Z" fill="#0B84F4"/>
</svg>
