<svg width="24" height="24" viewBox="0 0 24 24" fill="none" xmlns="http://www.w3.org/2000/svg">
<path d="M16.7148 3.56503C16.1326 3.39174 15.5201 3.72328 15.3468 4.30554C15.1735 4.8878 15.505 5.50029 16.0873 5.67358C18.8142 6.48516 20.8009 9.01214 20.8009 12.0003C20.8009 14.9884 18.8142 17.5153 16.0873 18.3269C15.505 18.5002 15.1735 19.1127 15.3468 19.695C15.5201 20.2772 16.1326 20.6088 16.7148 20.4355C20.349 19.3539 23.0009 15.9882 23.0009 12.0003C23.0009 8.0123 20.349 4.64661 16.7148 3.56503Z" fill="#019040"/>
<path d="M13.0997 5.40514C13.0997 3.52196 10.8877 2.50928 9.46218 3.73986L4.99078 7.59989H3.19995C1.98495 7.59989 1 8.58484 1 9.79984V14.1997C1 15.4147 1.98495 16.3997 3.19995 16.3997H4.99076L9.46211 20.26C10.8876 21.4907 13.0997 20.478 13.0997 18.5948V5.40514Z" fill="#019040"/>
<path d="M17.1786 9.02237C16.749 8.5928 16.0525 8.5928 15.623 9.02237C15.1934 9.45194 15.1934 10.1484 15.623 10.578C16.1614 11.1165 16.4008 11.3838 16.4008 11.9999C16.4008 12.6161 16.1612 12.884 15.623 13.4223C15.1934 13.8518 15.1934 14.5483 15.623 14.9779C16.0525 15.4074 16.749 15.4074 17.1786 14.9779L17.2068 14.9497C17.7686 14.3883 18.6007 13.5568 18.6007 11.9999C18.6007 10.4433 17.769 9.61233 17.2074 9.05119L17.1786 9.02237Z" fill="#019040"/>
</svg>
