<svg width="82" height="83" viewBox="0 0 82 83" fill="none" xmlns="http://www.w3.org/2000/svg">
<path fill-rule="evenodd" clip-rule="evenodd" d="M68.116 58.5452L66.8847 59.828C67.0549 59.9463 67.0817 60.1695 67.5085 60.8019C67.8512 61.3098 68.1001 61.6946 68.3937 62.1708C69.3992 63.8006 76.7929 75.0322 77.0618 75.6728C73.8696 75.6192 56.2131 69.409 45.3336 73.0494C43.5197 73.6562 43.1039 74.2248 41.9502 74.8023L41.9453 69.8255L40.1606 69.8638C40.17 71.5265 40.1749 73.1899 40.1383 74.8328C38.9144 74.1337 38.2846 73.5883 36.6335 73.0157C32.5127 71.5858 26.7367 71.8939 22.4851 72.3203C19.4533 72.6247 16.5105 73.1751 13.5905 73.8038C12.2017 74.1028 10.722 74.4452 9.36811 74.7628C7.98787 75.0866 6.46103 75.5274 5.02474 75.6835L8.55921 70.1353C8.8861 69.6562 9.13949 69.2389 9.43267 68.749L14.7035 60.6026C15.0856 60.0032 14.9906 59.8507 15.5514 59.7082L14.2576 58.3104C14.0436 58.4908 13.8483 58.7644 13.5633 59.2068L7.97487 67.8699C6.93696 69.5346 5.86979 71.1425 4.80954 72.7776C4.33525 73.5092 1.08828 77.607 1.6385 77.7993C1.55647 78.5652 14.965 74.8407 21.7992 74.123C25.4498 73.7395 29.4038 73.393 33.0182 74.0571C34.6185 74.3512 36.171 74.7957 37.494 75.4854C43.451 78.5907 39.1552 78.3007 44.5507 75.4792C54.493 70.2803 73.5423 77.7783 80.4224 77.7837C80.2498 77.249 79.2614 75.873 78.8887 75.2864L68.1476 58.5943C68.1362 58.577 68.1261 58.5613 68.116 58.5452Z" fill="#575352"/>
<path fill-rule="evenodd" clip-rule="evenodd" d="M38.2387 77.6403C35.0933 76.0143 33.4934 75.2036 29.4062 75.1673C22.3137 75.1043 12.8145 77.7136 5.63144 79.4208C4.68609 79.6453 1.66005 80.0573 1.16666 80.2945C3.58564 80.3205 7.77712 79.3322 10.2635 78.8663C13.3415 78.2899 16.3818 77.6765 19.5191 77.1311C23.9441 76.3616 29.7794 75.8581 34.0911 77.4075C35.2959 77.8405 37.0079 78.7987 37.5435 79.532C35.6882 78.7909 36.1645 78.6187 33.3447 77.9287C25.436 75.9929 12.3081 80.765 3.4841 82.2526C2.54242 82.4112 0.467797 82.7074 0 82.929C3.01916 83.0279 5.91242 82.3168 8.88976 81.7693C16.2734 80.4119 33.8856 75.4099 37.5033 82.6617C37.5297 82.7144 37.5947 82.8853 37.6544 82.9237C37.7088 82.9455 37.8079 82.9047 37.8525 82.882C40.6406 81.4373 41.1466 81.4394 44.1073 82.9566C44.8126 81.6025 45.6861 80.7485 47.1784 80.1248C56.5802 76.1947 71.2123 83.2318 81.9257 82.9941C82.0638 82.9043 82.0219 82.5755 81.6942 82.5867C80.8366 82.6163 79.136 82.3881 78.485 82.2855C69.0325 80.7992 57.2308 76.0505 48.5302 77.9159C46.6071 78.3282 45.7705 78.8683 44.264 79.5295C44.9673 78.727 46.3553 77.9748 47.608 77.4586C55.455 74.2272 72.4776 79.8109 80.6977 80.7576C81.3677 80.8346 81.0677 80.4054 80.8597 80.3687L71.6269 78.3822C68.5805 77.6424 65.5731 76.8967 62.4151 76.2565C58.0843 75.3791 51.6164 74.4843 47.2694 75.9266C45.5704 76.4901 45.2337 76.7604 43.9067 77.4801C43.11 77.946 41.7297 78.809 40.8725 79.4706C40.0136 78.8169 39.3863 78.3456 38.2387 77.6403Z" fill="#ACA6A8"/>
<path fill-rule="evenodd" clip-rule="evenodd" d="M73.6507 33.1239C73.6507 14.8301 59.0325 0 41 0C22.9675 0 8.34929 14.8301 8.34929 33.1239C8.34929 49.7425 20.4131 63.5014 36.1408 65.8823C36.1205 65.8314 36.1078 65.7747 36.1042 65.7111C36.0611 64.9469 37.0966 65.1179 37.4548 64.5049L37.4565 64.5019C21.9316 62.717 9.86783 49.3511 9.86783 33.1239C9.86783 15.6809 23.8062 1.54056 41 1.54056C58.1938 1.54056 72.1321 15.6809 72.1321 33.1239C72.1321 49.3573 60.0592 62.7275 44.5258 64.5041C44.5716 64.5825 44.6226 64.6531 44.6796 64.7141C44.9301 64.9826 46.2596 65.1673 45.8498 65.8836C61.5821 63.5069 73.6507 49.7458 73.6507 33.1239ZM40.0385 66.2325C40.3579 66.2419 40.6783 66.2479 41 66.2479C41.3145 66.2479 41.6276 66.2422 41.94 66.2333C41.8399 66.1276 41.7685 65.9681 41.734 65.7329C41.684 65.3922 41.6693 65.0474 41.6581 64.6994C41.4393 64.7045 41.22 64.7073 41 64.7073C40.7719 64.7073 40.5445 64.7044 40.3178 64.699C40.3099 65.2396 40.2984 65.7811 40.1868 66.0196C40.1461 66.1067 40.0962 66.1767 40.0385 66.2325Z" fill="#C6E790"/>
<path fill-rule="evenodd" clip-rule="evenodd" d="M69.4083 33.1239C69.4083 17.7203 57.4963 5.13972 42.508 4.34436C43.1895 4.65107 43.6344 5.20129 43.859 5.9536C57.3899 7.40211 67.9339 19.013 67.9339 33.1239C67.9339 46.9997 57.7384 58.4583 44.5329 60.2136C44.4185 60.6078 44.3094 61.1627 44.2463 61.7552C58.4067 60.1207 69.4083 47.9269 69.4083 33.1239ZM39.5051 4.34351C24.5106 5.13222 12.5917 17.7158 12.5917 33.1239C12.5917 47.9281 23.5952 60.1229 37.7573 61.7557C37.6962 61.1866 37.5893 60.6417 37.4705 60.2141C24.2634 58.4602 14.0661 47.0009 14.0661 33.1239C14.0661 19.015 24.6072 7.40518 38.1354 5.95405C38.3608 5.19415 38.8132 4.6476 39.5051 4.34351ZM40.2696 61.9347C40.5123 61.9409 40.7558 61.944 41 61.944C41.2422 61.944 41.4836 61.9408 41.7243 61.9346C41.8138 61.6484 41.9082 61.3632 41.9492 61.0679C41.9797 60.8482 42.0033 60.6351 42.0213 60.4275C41.6825 60.441 41.3421 60.4482 41 60.4482C40.6613 60.4482 40.3242 60.4412 39.9887 60.428C40.053 61.1296 40.17 61.5719 40.2696 61.9347Z" fill="#C6E790"/>
<path fill-rule="evenodd" clip-rule="evenodd" d="M65.0437 33.1239C65.0437 20.6613 55.8299 10.3846 43.9364 8.91505C43.8874 9.37955 43.8222 9.83312 43.7461 10.2083C43.7421 10.2278 43.738 10.2466 43.7338 10.2651C54.9804 11.6351 63.6986 21.3452 63.6986 33.1239C63.6986 44.1194 56.1013 53.3122 45.9422 55.6009C45.9163 55.7872 45.8854 55.9882 45.8487 56.2068C45.794 56.5324 45.738 56.809 45.6804 57.0508C56.7185 54.8412 65.0437 44.9702 65.0437 33.1239ZM38.0308 8.91927C26.1532 10.4037 16.9563 20.6727 16.9563 33.1239C16.9563 44.9747 25.2878 54.8485 36.3321 57.0534C36.246 56.7316 36.1697 56.3726 36.1066 55.951C36.0883 55.8287 36.0721 55.7125 36.0575 55.6008C25.8986 53.3117 18.3015 44.1192 18.3015 33.1239C18.3015 21.3361 27.0329 11.6202 38.292 10.2619C38.1911 9.95001 38.0927 9.56023 38.0308 8.91927ZM40.0558 57.4965C40.369 57.5093 40.6837 57.5161 41 57.5161C41.3142 57.5161 41.6268 57.5093 41.9379 57.4966C41.8796 57.0312 41.8098 56.5833 41.7468 56.1383C41.4989 56.1469 41.25 56.1515 41 56.1515C40.7538 56.1515 40.5087 56.1471 40.2645 56.1388C40.1955 56.59 40.1175 57.0384 40.0558 57.4965Z" fill="#B3ED91"/>
<path fill-rule="evenodd" clip-rule="evenodd" d="M61.0877 33.1239C61.0877 22.8896 53.6505 14.4197 43.9603 12.9674C44.0161 13.0002 44.0843 13.0465 44.1753 13.1138C44.9643 13.6976 45.4256 13.9773 46.537 14.2508C48.1958 14.6592 48.568 14.7269 49.2113 16.043C55.439 19.13 59.7288 25.6185 59.7288 33.1239C59.7288 42.0615 53.6456 49.557 45.4506 51.5834C45.455 51.6107 45.4592 51.6379 45.4637 51.6653C45.5591 52.2385 45.6866 52.5944 45.7983 52.9164C54.5753 50.734 61.0877 42.701 61.0877 33.1239ZM38.0656 12.9637C28.3627 14.4048 20.9123 22.8805 20.9123 33.1239C20.9123 42.6942 27.4155 50.7227 36.1831 52.9119C36.3061 52.5517 36.4512 52.1938 36.5434 51.5819C28.3515 49.5533 22.2712 42.0594 22.2712 33.1239C22.2712 25.6219 26.5571 19.1355 32.7803 16.0469C33.458 14.6591 33.8625 14.667 35.4812 14.2385C37.2954 13.7581 37.5558 13.2162 38.0656 12.9637ZM40.4041 53.4933C40.602 53.4995 40.8006 53.5028 41 53.5028C41.196 53.5028 41.3913 53.4996 41.5858 53.4936C41.6047 53.024 41.6221 52.5658 41.6334 52.1129C41.4231 52.1203 41.212 52.1242 41 52.1242C40.784 52.1242 40.5688 52.1201 40.3546 52.1125C40.3657 52.5729 40.3838 53.0335 40.4041 53.4933Z" fill="#B3ED91"/>
<path fill-rule="evenodd" clip-rule="evenodd" d="M57.6975 33.1239C57.6975 27.1314 54.6301 21.8659 50.0015 18.8546C50.0211 19.1708 50.0344 19.5327 50.0524 19.9734C50.0573 20.0952 50.0602 20.2289 50.0621 20.3713C53.9594 23.2265 56.4963 27.8743 56.4963 33.1239C56.4963 33.6561 56.4695 34.1819 56.4185 34.7005C56.8853 35.2223 56.957 35.2987 56.9658 36.2733C56.5196 36.2755 56.3128 36.2674 56.1914 36.2395C56.036 37.0224 55.8235 37.7843 55.5582 38.5204L55.5571 38.7047C55.5292 38.722 55.4986 38.7442 55.4662 38.7699C53.743 43.3099 50.0031 46.8337 45.3597 48.2123C45.3176 48.6328 45.2931 49.0602 45.2905 49.4975C52.433 47.5763 57.6975 40.9744 57.6975 33.1239ZM31.9966 18.8557C27.369 21.8672 24.3025 27.1322 24.3025 33.1239C24.3025 40.9683 29.5588 47.566 36.6928 49.493C36.692 49.0515 36.6703 48.6255 36.6315 48.2096C31.1686 46.5841 26.9576 41.989 25.8136 36.2637C25.6674 36.3093 25.4543 36.3101 25.0342 36.2433C25.0501 35.054 25.1123 35.3144 25.5843 34.7299C25.5315 34.2018 25.5037 33.6662 25.5037 33.1239C25.5037 27.8741 28.0405 23.2257 31.9381 20.3704C31.9409 20.2219 31.9442 20.084 31.9488 19.9606C31.9651 19.5268 31.9778 19.1688 31.9966 18.8557ZM40.368 50.0514C40.5777 50.0594 40.7884 50.0634 41 50.0634C41.2089 50.0634 41.417 50.0594 41.624 50.0516C41.6071 49.6512 41.5795 49.2473 41.5379 48.8354C41.3594 48.8416 41.18 48.8448 41 48.8448C40.8192 48.8448 40.639 48.8417 40.4597 48.8354C40.4158 49.2394 40.3863 49.6449 40.368 50.0514Z" fill="#91DE64"/>
<path fill-rule="evenodd" clip-rule="evenodd" d="M54.4928 32.9174C54.4363 29.0465 52.7957 25.5655 50.1999 23.1101C50.2701 23.5129 50.3783 23.8609 50.5461 24.0975C53.0926 27.6865 51.9547 27.0949 53.2554 30.7032C53.7989 32.2109 54.1437 32.6655 54.4928 32.9174ZM53.0556 32.0754L53.0561 32.0807C53.1061 32.1977 53.1509 32.2981 53.1927 32.3859C53.151 32.2959 53.1059 32.1934 53.0556 32.0754ZM31.7753 23.1328C29.2032 25.5776 27.5752 29.032 27.5072 32.8734C27.7554 32.675 27.9855 32.4675 28.087 32.2881C28.878 30.8899 29.2853 28.5932 29.7499 27.0595C30.1677 25.6786 30.7309 25.1068 31.4367 24.1321C31.5971 23.9106 31.7037 23.554 31.7753 23.1328ZM28.6934 38.7476C30.1645 42.0558 32.893 44.6646 36.2612 45.9464C36.135 45.379 35.9893 44.8115 35.836 44.2282C32.8634 42.8029 30.5552 40.1856 29.5105 36.984C29.2064 37.6411 28.9144 38.2428 28.8188 38.4543C28.7655 38.572 28.7261 38.6681 28.6934 38.7476ZM40.698 46.8108C40.7982 46.8131 40.8987 46.8143 40.9995 46.8143C41.101 46.8143 41.2023 46.8131 41.3033 46.8108C41.2537 46.3414 41.2125 45.8638 41.1939 45.3982C41.1292 45.3993 41.0644 45.3998 40.9995 45.3998C40.9362 45.3998 40.8731 45.3993 40.81 45.3983C40.7899 45.8567 40.7478 46.339 40.698 46.8108ZM45.7387 45.946C49.1121 44.6622 51.8434 42.0471 53.3127 38.7318C53.1257 38.3496 52.8017 37.6738 52.4888 36.9828C51.444 40.1857 49.135 42.8041 46.1608 44.2293C46.0111 44.805 45.8661 45.3744 45.7387 45.946Z" fill="#91DE64"/>
<path fill-rule="evenodd" clip-rule="evenodd" d="M51.3166 33.1239C51.3166 32.9845 51.3139 32.8457 51.3085 32.7076C50.9616 32.0557 50.8379 32.1237 50.3975 31.5609C50.1042 31.1863 49.845 30.8268 49.6141 30.4813C49.8632 31.3178 49.9973 32.2049 49.9973 33.1239C49.9973 35.7234 48.9261 38.069 47.2072 39.7313C47.0977 40.3652 46.9529 41.0386 46.7737 41.7981C49.5147 39.9169 51.3166 36.734 51.3166 33.1239ZM47.4148 24.9272C47.2467 24.7916 47.0742 24.6612 46.8978 24.5362C46.737 24.9592 46.6223 25.4714 46.5352 25.9285C47.1314 26.4011 47.6674 26.9482 48.1295 27.5561C47.7586 26.498 47.6217 25.6372 47.4148 24.9272ZM35.0772 24.554C34.9141 24.6703 34.7544 24.7912 34.5984 24.9166C34.4251 25.5271 34.2627 26.2215 34.125 26.6998C34.0324 27.0215 33.9409 27.3144 33.8475 27.5867C34.3074 26.9763 34.8415 26.4265 35.4361 25.9511C35.3502 25.5218 35.2325 25.0607 35.0772 24.554ZM30.6917 32.7014C30.6861 32.8415 30.6833 32.9824 30.6833 33.1239C30.6833 36.7277 32.4791 39.9056 35.212 41.7881C35.0324 41.035 34.8888 40.3596 34.7811 39.7197C33.069 38.058 32.0026 35.7174 32.0026 33.1239C32.0026 32.183 32.1431 31.2755 32.4038 30.4216C32.2158 30.6986 32.008 30.9916 31.7754 31.3138C31.1408 32.1924 31.029 32.0658 30.6917 32.7014ZM40.722 43.5862C40.8144 43.5888 40.907 43.5901 41 43.5901C41.094 43.5901 41.1877 43.5888 41.2811 43.5861C41.3285 43.2012 41.3591 42.7358 41.3679 42.244C41.2459 42.2491 41.1232 42.2517 41 42.2517C40.8793 42.2517 40.7592 42.2492 40.6397 42.2443C40.651 42.7406 40.6809 43.2089 40.722 43.5862Z" fill="#5FB528"/>
<path fill-rule="evenodd" clip-rule="evenodd" d="M39.6646 50.9432C39.678 52.1045 39.8579 53.8858 39.7458 54.954C39.5156 57.1444 38.8037 59.729 39.6228 62.1402C39.9277 63.0379 39.7186 62.9975 39.663 63.8309C39.6207 64.4633 39.6224 65.1059 39.5923 65.7119L37.3147 65.5731C37.661 65.2925 37.9157 65.1632 38.1207 64.7113C39.0279 62.7112 38.1755 59.8629 37.3467 58.0038C36.9898 57.2034 36.8278 56.3213 36.7104 55.3508C36.52 53.7754 36.7259 53.803 37.0426 52.5346C37.817 49.4342 37.166 46.7511 36.4375 43.9086C35.1227 38.7789 34.7881 37.7733 35.683 32.3651C35.9998 30.4507 36.5216 28.5075 36.2495 26.4971C36.0445 24.9811 35.3834 24.0312 35.4419 22.3322C35.4678 21.5837 35.6745 21.4634 34.9635 21.3415C34.7288 21.7176 33.7315 25.5727 33.5049 26.3876C33.2137 27.4348 33.1309 27.8315 32.6257 28.7168C32.2148 29.4369 31.8249 30.0313 31.3876 30.6831C30.8605 31.4682 30.4926 31.6083 30.0017 32.5789C29.0413 34.4772 29.9188 34.1513 29.6017 35.0782C29.3771 35.7341 28.9024 36.5971 28.5958 37.2814C27.9977 38.6182 28.059 38.9511 27.1015 38.3755L27.0913 34.4566C26.9464 34.5159 26.2443 35.0807 26.1151 35.1853C27.2895 33.3665 28.2316 33.7381 28.9028 32.171C29.5566 30.6456 29.8408 29.4332 30.2668 27.74C30.871 25.3379 31.9841 24.9309 32.3219 23.9294C32.6602 22.9263 32.5891 19.748 32.6781 18.4783C32.7256 17.797 33.1593 16.8449 33.4338 16.2546C34.2784 14.4379 36.098 15.4241 38.1487 13.7285C38.6473 13.3161 38.9247 13.7697 39.2 13.3783C39.4607 13.008 39.3738 11.1599 39.1736 10.7212C38.9352 10.198 38.9239 10.1972 38.8317 9.57553C38.7659 9.13144 38.7249 8.71002 38.6949 8.26097C38.556 6.1843 38.6538 4.91545 40.8361 4.75891C41.619 4.70287 42.6715 5.04152 42.9773 5.52434C43.3744 6.15093 43.376 7.14705 43.3208 7.96642C43.0999 11.2456 42.7044 10.2693 42.6447 11.7206C42.5424 14.2212 43.0983 13.3182 43.681 13.6119C43.8447 13.6943 44.1062 13.9909 44.5492 14.2257C46.4943 15.2556 47.829 14.8045 48.4731 16.0597C50.1562 19.3406 48.9924 20.7594 49.6146 23.7086C49.7368 24.287 50.4101 25.0718 50.7195 25.4928C51.9267 27.134 51.8065 29.0838 52.9886 31.9152C53.4528 33.0267 53.4836 32.9307 54.2527 33.54C54.9102 34.0611 55.289 34.2687 55.7231 35.023C55.3597 34.8224 55.218 34.6341 54.9154 34.4578C54.848 35.1367 54.8935 36.0159 54.8939 36.7166C54.8939 38.1193 55.0596 38.1881 54.5321 38.6425C53.8393 38.549 53.8929 38.418 53.6493 37.8487C53.2026 36.8052 52.2544 35.2579 52.3702 34.4443C52.4814 33.6619 52.5419 33.7728 52.2293 33.0794C51.4618 31.3768 51.4508 31.8745 50.9806 31.203C49.3104 28.8169 49.165 28.7514 48.3594 25.9233C48.1161 25.0697 47.8835 24.2631 47.6512 23.4227C47.2857 22.1012 47.2723 21.2348 46.6344 21.3267C46.4041 21.6855 46.5694 22.1539 46.5471 22.7269C46.4821 24.3879 45.8714 25.1777 45.7155 26.8185C45.5262 28.8033 46.0582 30.7815 46.3644 32.6691C46.6547 34.4591 46.9775 36.9403 46.7128 38.7603C46.1569 42.5841 44.5403 46.2036 44.6183 49.7638C44.6386 50.6898 44.7405 51.8545 44.9874 52.6825C45.3407 53.866 45.4722 53.9678 45.2854 55.3862C45.1478 56.4338 45.0093 57.1287 44.6329 58.0334C43.841 59.9371 42.9095 62.752 43.9092 64.7821C44.2093 65.3918 44.2378 65.2135 44.6938 65.5649C44.3161 65.6015 42.6277 65.7416 42.4104 65.6856C42.3491 65.0371 42.3865 64.371 42.3284 63.7432C42.2403 62.7915 42.0917 62.9926 42.4206 62.0002C43.2465 59.5082 42.3414 56.6937 42.2326 54.7798C42.166 53.607 42.3191 52.0901 42.3316 50.8641C42.3625 47.8782 41.6884 47.1528 41.9954 43.2487C42.1867 40.8189 41.7384 38.5404 41.0018 36.4336C40.7849 36.7978 40.2586 39.0112 40.1238 39.6275C39.9098 40.6068 39.9151 42.3798 40.0101 43.4015C40.3256 46.7874 39.6296 48.0966 39.6625 50.9424L39.6646 50.9432ZM38.6425 12.8238C37.5717 12.8844 37.8413 13.6136 35.4812 14.2385C33.8379 14.6735 33.446 14.6587 32.7492 16.1113C32.0203 17.6306 32.0191 18.0944 31.9488 19.9606C31.9066 21.0791 31.9804 23.3811 31.4367 24.1321C30.7309 25.1068 30.1677 25.6786 29.7499 27.0595C29.2853 28.5932 28.878 30.8899 28.087 32.2881C27.8888 32.6382 27.2018 33.0955 26.8445 33.3826C26.371 33.7633 26.0693 34.0797 25.699 34.5814C25.1219 35.3625 25.0513 34.9637 25.0342 36.2433C26.0332 36.4023 25.8622 36.1786 26.4015 35.8799C26.6102 37.5368 26.0584 38.2059 26.7564 38.9577C27.1799 39.4137 27.1523 39.4422 27.9109 39.2687C28.6662 39.0961 28.5085 39.1402 28.8188 38.4543C29.0445 37.955 30.3652 35.2809 30.3566 34.8364C30.3432 34.1299 30.0764 34.0492 30.3806 33.3579C31.006 31.9375 30.9803 32.4145 31.7754 31.3138C33.0087 29.6058 33.5451 28.7143 34.125 26.6998C34.341 25.9492 34.618 24.6668 34.9022 24.011C36.2171 27.9089 35.4602 29.1794 34.8844 33.0535C34.2955 37.0153 34.4604 38.7966 35.3781 42.4676C36.1602 45.596 37.0337 47.9528 36.5578 51.482C36.3223 53.2275 35.662 52.9787 36.1066 55.951C36.3815 57.7899 36.9086 58.4396 37.4053 59.9948C37.7671 61.1281 38.0777 63.4387 37.4548 64.5049C37.0966 65.1179 36.0611 64.9469 36.1042 65.7111C36.1472 66.4757 37.4816 66.2656 38.189 66.2948C38.9609 66.3266 39.864 66.7105 40.1868 66.0196C40.3886 65.5879 40.2632 64.1646 40.3805 63.5487C40.679 61.9829 39.851 62.1275 39.9485 58.7255C39.9964 57.053 40.5028 55.6264 40.424 53.9307C40.3444 52.2104 40.2745 50.4756 40.467 48.7693C40.6177 47.4345 40.9608 45.2182 40.7639 43.9131C40.586 42.7357 40.5324 39.9991 40.9982 39.0289C41.4302 40.1383 41.4424 42.5071 41.2568 43.7669C41.0412 45.231 41.3563 47.1828 41.5191 48.6576C41.7092 50.3801 41.6483 51.9537 41.5776 53.6955C41.4794 56.1186 42.3813 57.9559 41.9492 61.0679C41.8473 61.8028 41.4144 62.4747 41.5496 63.2571C41.695 64.0975 41.6158 64.9267 41.734 65.7329C41.8834 66.7521 42.7248 66.3504 43.5922 66.3047C44.2386 66.2705 45.4585 66.437 45.7967 65.9661C46.3608 65.1809 44.9395 64.9926 44.6796 64.7141C43.8959 63.8746 44.2094 61.2727 44.5513 60.1517C45.0946 58.37 45.4991 58.2892 45.8487 56.2068C46.3656 53.1307 45.7597 53.4446 45.4637 51.6653C44.892 48.2267 45.854 45.5639 46.6024 42.5096C47.5157 38.7826 47.715 37.1504 47.1242 33.1413C46.7758 30.7774 46.0652 28.5467 46.4863 26.194C46.6069 25.5204 46.7864 24.6401 47.0958 24.1111C47.8807 25.5678 47.4694 27.8204 50.3975 31.5609C50.951 32.2683 51.0042 31.9791 51.6292 33.3753C51.8984 33.9767 51.684 34.1485 51.647 34.7545C51.6146 35.2867 53.4512 39.0282 53.4727 39.0508C53.6104 39.1954 54.4461 39.4034 54.6768 39.3709C54.909 39.3379 55.3228 38.8497 55.5571 38.7047L55.5742 35.8866C56.2921 36.2116 55.7719 36.2791 56.9658 36.2733C56.954 34.9649 56.8289 35.2756 55.7865 33.9536C54.6406 32.5003 54.3522 33.746 53.2554 30.7032C51.9547 27.0949 53.0926 27.6865 50.5461 24.0975C49.9638 23.2765 50.0987 21.1132 50.0524 19.9734C49.9768 18.1187 49.9833 17.6578 49.2561 16.1356C48.5844 14.7296 48.234 14.6686 46.537 14.2508C45.4256 13.9773 44.9643 13.6976 44.1753 13.1138C43.7489 12.7983 43.8196 12.9438 43.3501 12.779C43.3237 12.3237 43.2925 11.8253 43.3534 11.3729C43.4191 10.8827 43.6324 10.7686 43.7461 10.2083C43.9129 9.38603 44.0275 8.18727 44.0327 7.32216C44.0449 5.26773 43.0797 4.04461 40.975 4.06438C38.9373 4.08374 37.9709 5.23064 37.966 7.24306C37.9567 11.2288 38.7956 9.9673 38.6425 12.8238Z" fill="#575352"/>
<path d="M41 30.3461C41.5048 30.3461 41.9141 29.9309 41.9141 29.4188C41.9141 28.9066 41.5048 28.4915 41 28.4915C40.4952 28.4915 40.0859 28.9066 40.0859 29.4188C40.0859 29.9309 40.4952 30.3461 41 30.3461Z" fill="#ACA6A8"/>
<path d="M41 34.7314C41.5048 34.7314 41.9141 34.3162 41.9141 33.8041C41.9141 33.2919 41.5048 32.8768 41 32.8768C40.4952 32.8768 40.0859 33.2919 40.0859 33.8041C40.0859 34.3162 40.4952 34.7314 41 34.7314Z" fill="#ACA6A8"/>
<path d="M41 21.5755C41.5048 21.5755 41.9141 21.1603 41.9141 20.6482C41.9141 20.136 41.5048 19.7208 41 19.7208C40.4952 19.7208 40.0859 20.136 40.0859 20.6482C40.0859 21.1603 40.4952 21.5755 41 21.5755Z" fill="#ACA6A8"/>
<path d="M41 25.9608C41.5048 25.9608 41.9141 25.5456 41.9141 25.0335C41.9141 24.5213 41.5048 24.1061 41 24.1061C40.4952 24.1061 40.0859 24.5213 40.0859 25.0335C40.0859 25.5456 40.4952 25.9608 41 25.9608Z" fill="#ACA6A8"/>
<path d="M41 12.8049C41.5048 12.8049 41.9141 12.3897 41.9141 11.8776C41.9141 11.3654 41.5048 10.9502 41 10.9502C40.4952 10.9502 40.0859 11.3654 40.0859 11.8776C40.0859 12.3897 40.4952 12.8049 41 12.8049Z" fill="#ACA6A8"/>
<path d="M41 17.1902C41.5048 17.1902 41.9141 16.775 41.9141 16.2629C41.9141 15.7507 41.5048 15.3355 41 15.3355C40.4952 15.3355 40.0859 15.7507 40.0859 16.2629C40.0859 16.775 40.4952 17.1902 41 17.1902Z" fill="#ACA6A8"/>
<path d="M41 8.41958C41.5048 8.41958 41.9141 8.00441 41.9141 7.49226C41.9141 6.98012 41.5048 6.56495 41 6.56495C40.4952 6.56495 40.0859 6.98012 40.0859 7.49226C40.0859 8.00441 40.4952 8.41958 41 8.41958Z" fill="#ACA6A8"/>
</svg>
