<svg width="18" height="26" viewBox="0 0 18 26" fill="none" xmlns="http://www.w3.org/2000/svg">
<path d="M4.55765 23.9393C3.66002 23.9393 2.7624 23.9393 2.17005 23.8439C1.5777 23.7487 1.29047 23.558 1.08618 23.3178C0.88188 23.0775 0.760516 22.7877 0.699834 21.9186C0.639152 21.0494 0.639152 19.6012 0.895883 18.5052C1.15261 17.4091 1.66608 16.6651 2.28659 16.0655C2.9071 15.4659 3.63451 15.0105 4.49355 14.6343C5.35243 14.2581 6.34295 13.9611 7.27076 13.8145C8.19857 13.6678 9.06367 13.6713 9.9641 13.7968C10.8645 13.9222 11.8001 14.1696 12.634 14.5285C13.4678 14.8873 14.1999 15.3574 14.8281 15.953C15.4564 16.5485 15.9809 17.2697 16.2903 18.4338C16.5996 19.598 16.6936 21.2053 16.6603 22.1537C16.627 23.1022 16.4666 23.3921 16.2434 23.59C16.0203 23.788 15.7345 23.8941 14.2758 23.947C12.8169 24 10.1852 24 7.55332 24M13.1666 6.41279C13.1666 8.84991 11.3177 10.8256 8.66677 10.8256C6.0158 10.8256 4.16663 8.84991 4.16663 6.41279C4.16663 3.97567 6.0158 2 8.66677 2C11.3177 2 13.1666 3.97567 13.1666 6.41279Z" stroke="#5FB528" stroke-width="1.2" stroke-miterlimit="22.9256" stroke-linecap="round" stroke-linejoin="round"/>
</svg>
