<?xml version="1.0" encoding="UTF-8"?> <!-- Generator: Adobe Illustrator 25.0.0, SVG Export Plug-In . SVG Version: 6.00 Build 0) --> <svg xmlns="http://www.w3.org/2000/svg" xmlns:xlink="http://www.w3.org/1999/xlink" id="CUT" x="0px" y="0px" viewBox="0 0 1053.6 258.1" style="enable-background:new 0 0 1053.6 258.1;" xml:space="preserve"> <style type="text/css"> .st0{fill:url(#SVGID_1_);} .st1{fill:url(#SVGID_2_);} .st2{fill:url(#SVGID_3_);} .st3{fill:url(#SVGID_4_);} .st4{fill:url(#SVGID_5_);} .st5{fill:url(#SVGID_6_);} .st6{fill:url(#SVGID_7_);} .st7{fill:url(#SVGID_8_);} .st8{fill:url(#SVGID_9_);} .st9{fill:url(#SVGID_10_);} .st10{fill:url(#SVGID_11_);} .st11{fill:url(#SVGID_12_);} .st12{fill:#515151;} .st13{fill:#187DB9;} .st14{fill:url(#SVGID_13_);} .st15{fill:url(#SVGID_14_);} .st16{fill:url(#SVGID_15_);} .st17{fill:url(#SVGID_16_);} .st18{fill:url(#SVGID_17_);} .st19{fill:url(#SVGID_18_);} .st20{fill:#FFFFFF;} .st21{fill:url(#SVGID_19_);} .st22{fill:url(#SVGID_20_);} .st23{fill:url(#SVGID_21_);} .st24{fill:#414242;} .st25{fill:#1A9CBA;} .st26{fill:#EF781A;} .st27{fill:#020203;} .st28{stroke:#000000;stroke-miterlimit:10;} .st29{fill:#2B2B2B;} .st30{fill:#282828;} .st31{fill:#4D4C4C;} .st32{fill:#CC1517;} .st33{fill:#090A0A;} .st34{fill:#84171C;} .st35{fill:#C22530;} .st36{fill:#A11926;} .st37{fill:#5B1117;} .st38{fill:#E52B21;stroke:#E52B21;stroke-width:4.1085;stroke-miterlimit:10;} .st39{fill:none;stroke:#E52B21;stroke-width:4.1085;stroke-miterlimit:10;} .st40{fill:#727272;} </style> <g> <path class="st20" d="M373,15.3h19.7v44.1c18.5,0,33.3,5.9,44.4,17.6c11,11.5,16.7,26,16.7,43.4s-5.6,31.9-16.7,43.6 c-11,11.5-25.8,17.4-44.4,17.4v46H373v-46c-18.5,0-33.3-5.9-44.4-17.4c-11-11.7-16.7-26.3-16.7-43.6s5.6-31.9,16.7-43.4 c11-11.7,25.8-17.6,44.4-17.6V15.3z M373,163.6V77.3h-1.9c-23.7,0-39,17.1-39,43.2s15.3,43.2,39,43.2H373z M392.7,163.6h1.9 c23.7,0,39-17.1,39-43.2s-15.3-43.2-39-43.2h-1.9V163.6z"></path> <path class="st20" d="M468.6,120.4c0-16.7,5.2-31,15.5-42.9c10.6-12,24.2-18.1,41.3-18.1c17.1,0,30.7,6.1,41.1,18.1 c10.6,12,15.7,26.3,15.7,42.9s-5.2,31.2-15.7,43.2c-10.3,12-23.9,17.8-41.1,17.8c-17.1,0-30.7-5.9-41.3-17.8 C473.8,151.7,468.6,137.1,468.6,120.4z M488.8,120.4c0,11.7,3.3,21.8,9.6,30.5c6.6,8.4,15.5,12.7,27,12.7s20.4-4.2,26.8-12.7 c6.6-8.7,9.9-18.8,9.9-30.5s-3.3-21.8-9.9-30.3c-6.3-8.7-15.3-12.9-26.8-12.9s-20.4,4.2-27,12.9 C492.1,98.6,488.8,108.7,488.8,120.4z"></path> <path class="st20" d="M604.6,227.5V61.3h19.7v14.5c5.9-9.2,20.4-16.4,34.5-16.4c33.8,0,52.6,24.4,52.6,61s-18.8,61-52.6,61 c-7,0-14.1-1.6-20.9-5.2c-6.8-3.5-11.5-7-13.6-10.8v62H604.6z M691.2,120.4c0-25.6-13.6-43.2-34.3-43.2 c-21.4,0-34.3,17.6-34.3,43.2c0,25.6,12.9,43.2,34.3,43.2C677.6,163.6,691.2,146,691.2,120.4z"></path> <path class="st20" d="M719.2,79.1V61.3h83.1v17.8h-31.7v100.4h-19.7V79.1H719.2z"></path> <path class="st20" d="M864.5,106.8h19.2v-5.2c0-16.2-8.7-24.4-25.8-24.4c-12.4,0-22.1,7-24.6,18.5l-17.4-4 c3.1-19.9,19.7-32.4,42-32.4c27.5,0,45.5,14.5,45.5,44.6v75.6H888l-3.3-16.7c-8.7,12.4-20.9,18.5-37.1,18.5 c-21.4,0-36.6-11.7-36.6-35.9C811,120.4,831.4,106.8,864.5,106.8z M850.7,163.6c8.9,0,16.7-2.8,23.2-8.7c6.6-5.9,9.9-15,9.9-27.5 v-2.8h-21.1c-19.9,0-31.4,7.5-31.4,20.9C831.2,156.8,838.2,163.6,850.7,163.6z"></path> <path class="st20" d="M930.9,179.6V61.3h89.9v118.3h-19.7V79.1h-50.5v100.4H930.9z"></path> </g> <g> <polygon class="st32" points="127.9,178.7 110.9,148.5 76.3,148.1 93.3,178.3 "></polygon> <polygon class="st32" points="127.9,178.7 110.9,148.5 128.6,118.6 145.6,148.8 "></polygon> <polygon class="st32" points="197.2,179.4 180.2,149.2 145.6,148.8 162.6,179.1 "></polygon> <polygon class="st32" points="197.2,179.4 180.2,149.2 197.9,119.4 214.9,149.6 "></polygon> <polygon class="st32" points="214.9,149.6 197.9,119.4 215.6,89.6 232.6,119.8 "></polygon> <polygon class="st32" points="232.6,119.8 215.6,89.6 233.2,59.7 250.2,90 "></polygon> <polygon class="st32" points="163.9,59 180.9,89.2 215.6,89.6 198.6,59.4 "></polygon> <polygon class="st32" points="94.6,58.2 111.6,88.4 146.2,88.8 129.2,58.6 "></polygon> <polygon class="st32" points="94.6,58.2 111.6,88.4 93.9,118.3 76.9,88 "></polygon> <polygon class="st32" points="76.9,88 93.9,118.3 76.3,148.1 59.3,117.9 "></polygon> <polygon class="st32" points="59.3,117.9 76.3,148.1 58.6,177.9 41.6,147.7 "></polygon> <polygon class="st32" points="163.9,59 180.9,89.2 163.2,119 146.2,88.8 "></polygon> <polygon class="st32" points="146.2,88.8 163.2,119 145.6,148.8 128.6,118.6 "></polygon> </g> </svg> 