<?xml version="1.0" encoding="UTF-8"?> <!-- Generator: Adobe Illustrator 23.0.2, SVG Export Plug-In . SVG Version: 6.00 Build 0) --> <svg xmlns="http://www.w3.org/2000/svg" xmlns:xlink="http://www.w3.org/1999/xlink" id="Слой_1" x="0px" y="0px" viewBox="0 0 64 64" style="enable-background:new 0 0 64 64;" xml:space="preserve"> <style type="text/css"> .st0{fill:#CC1517;} </style> <g> <path class="st0" d="M60,51.6h-1.6V11c0-0.8-0.6-1.4-1.4-1.4H25c-0.3,0-0.6,0.1-0.8,0.3l-18,14c-0.3,0.3-0.5,0.7-0.5,1.1v26.6H4 c-0.8,0-1.4,0.6-1.4,1.4s0.6,1.4,1.4,1.4h56c0.8,0,1.4-0.6,1.4-1.4S60.8,51.6,60,51.6z M50.6,42.4v9.3h-5.3v-9.3H50.6z M36.6,32.4 v19.3H13.4V32.4H36.6z M52,39.6h-8c-0.8,0-1.4,0.6-1.4,1.4v10.6h-3.3V31c0-0.8-0.6-1.4-1.4-1.4H12c-0.8,0-1.4,0.6-1.4,1.4v20.6H8.4 v-26l17.1-13.3h30.2v39.3h-2.3V41C53.4,40.2,52.8,39.6,52,39.6z"></path> <path class="st0" d="M18,38.4h14c0.8,0,1.4-0.6,1.4-1.4s-0.6-1.4-1.4-1.4H18c-0.8,0-1.4,0.6-1.4,1.4S17.2,38.4,18,38.4z"></path> <path class="st0" d="M18,43.4h14c0.8,0,1.4-0.6,1.4-1.4s-0.6-1.4-1.4-1.4H18c-0.8,0-1.4,0.6-1.4,1.4S17.2,43.4,18,43.4z"></path> <path class="st0" d="M27,25.6h-4c-0.8,0-1.4,0.6-1.4,1.4s0.6,1.4,1.4,1.4h4c0.8,0,1.4-0.6,1.4-1.4S27.8,25.6,27,25.6z"></path> <path class="st0" d="M51,19.6h-8c-0.8,0-1.4,0.6-1.4,1.4v4c0,0.8,0.6,1.4,1.4,1.4h8c0.8,0,1.4-0.6,1.4-1.4v-4 C52.4,20.2,51.8,19.6,51,19.6z M49.6,22.4v1.3h-1.3v-1.3H49.6z M45.6,22.4v1.3h-1.3v-1.3H45.6z"></path> <path class="st0" d="M18,48.4h14c0.8,0,1.4-0.6,1.4-1.4s-0.6-1.4-1.4-1.4H18c-0.8,0-1.4,0.6-1.4,1.4S17.2,48.4,18,48.4z"></path> <path class="st0" d="M50,35.6h-4c-0.8,0-1.4,0.6-1.4,1.4s0.6,1.4,1.4,1.4h4c0.8,0,1.4-0.6,1.4-1.4S50.8,35.6,50,35.6z"></path> </g> </svg> 