<?xml version="1.0" encoding="UTF-8"?> <!-- Generator: Adobe Illustrator 23.0.2, SVG Export Plug-In . SVG Version: 6.00 Build 0) --> <svg xmlns="http://www.w3.org/2000/svg" xmlns:xlink="http://www.w3.org/1999/xlink" id="Слой_1" x="0px" y="0px" viewBox="0 0 24 24" style="enable-background:new 0 0 24 24;" xml:space="preserve"> <style type="text/css"> .st0{fill:#CC1517;} </style> <path class="st0" d="M21.5,8H17V6.5C17,5.1,15.9,4,14.5,4h-11C2.1,4,1,5.1,1,6.5v9c0,1.2,0.9,2.2,2,2.5c0.2,1.4,1.6,2.3,2.9,2 c1-0.2,1.8-1,2-2H14c0.3,1.4,1.6,2.2,3,1.9c1-0.2,1.7-1,1.9-1.9h2.6c0.8,0,1.5-0.7,1.5-1.5v-7C23,8.7,22.3,8,21.5,8z M21.5,9 C21.8,9,22,9.2,22,9.5V12h-1.5c-1.7,0-3.2-1.3-3.5-3H21.5z M2,15.5v-9C2,5.7,2.7,5,3.5,5h11C15.3,5,16,5.7,16,6.5V15 c-1,0.2-1.7,1-1.9,1.9H8c-0.3-1.4-1.6-2.2-2.9-2c-1,0.2-1.7,0.9-1.9,1.9C2.4,16.7,2,16.2,2,15.5z M5.5,19C4.7,19,4,18.3,4,17.5 S4.7,16,5.5,16S7,16.7,7,17.5S6.3,19,5.5,19z M16.5,19c-0.8,0-1.5-0.7-1.5-1.5s0.7-1.5,1.5-1.5c0.8,0,1.5,0.7,1.5,1.5 S17.3,19,16.5,19z M21.5,17H19c-0.2-1-1-1.7-2-1.9v-3.8c0.8,1.1,2.1,1.7,3.5,1.7H22v3.5C22,16.8,21.8,17,21.5,17z"></path> </svg> 