<svg width="26" height="26" viewBox="0 0 26 26" fill="none" xmlns="http://www.w3.org/2000/svg">
<g clip-path="url(#clip0_9803_8)">
<path fill-rule="evenodd" clip-rule="evenodd" d="M12.9974 2.16602C10.0551 2.16602 9.68673 2.17902 8.53081 2.23102C7.37815 2.2841 6.59056 2.46718 5.90156 2.73477C5.17842 3.00651 4.52329 3.43279 3.9819 3.98385C3.43087 4.52527 3.00459 5.18039 2.73281 5.90352C2.46523 6.59252 2.28215 7.3801 2.22906 8.53277C2.17598 9.68868 2.16406 10.057 2.16406 12.9993C2.16406 15.9417 2.17598 16.31 2.22906 17.4659C2.28215 18.6186 2.46523 19.4062 2.73281 20.0952C3.00462 20.8183 3.43089 21.4734 3.9819 22.0149C4.52334 22.5659 5.17845 22.9921 5.90156 23.2639C6.59056 23.5315 7.37815 23.7146 8.53081 23.7677C9.68673 23.8197 10.0551 23.8327 12.9974 23.8327C15.9397 23.8327 16.3081 23.8197 17.464 23.7677C18.6166 23.7146 19.4042 23.5315 20.0932 23.2639C20.8164 22.9922 21.4715 22.5659 22.0129 22.0149C22.5639 21.4734 22.9902 20.8183 23.262 20.0952C23.5296 19.4062 23.7126 18.6186 23.7657 17.4659C23.8177 16.31 23.8307 15.9417 23.8307 12.9993C23.8307 10.057 23.8177 9.68868 23.7657 8.53277C23.7126 7.3801 23.5296 6.59252 23.262 5.90352C22.9902 5.18039 22.5639 4.52527 22.0129 3.98385C21.4715 3.43279 20.8164 3.00651 20.0932 2.73477C19.4042 2.46718 18.6166 2.2841 17.464 2.23102C16.3081 2.17902 15.9397 2.16602 12.9974 2.16602ZM12.9974 4.11818C15.8899 4.11818 16.2322 4.12902 17.3741 4.18102C18.4314 4.22977 19.0045 4.40527 19.3869 4.55368C19.8917 4.75085 20.2536 4.98593 20.6327 5.36402C21.0119 5.74318 21.2459 6.10502 21.4431 6.60985C21.5904 6.99227 21.7681 7.56535 21.8157 8.6216C21.8677 9.76452 21.8786 10.1058 21.8786 12.9993C21.8786 15.8918 21.8677 16.2342 21.8157 17.376C21.767 18.4333 21.5904 19.0064 21.4431 19.3889C21.2694 19.8594 20.9925 20.2851 20.6327 20.6347C20.2536 21.0138 19.8917 21.2478 19.3869 21.445C19.0045 21.5924 18.4314 21.77 17.3751 21.8177C16.2333 21.8697 15.891 21.8805 12.9974 21.8805C10.1049 21.8805 9.76148 21.8697 8.62073 21.8177C7.5634 21.7689 6.99031 21.5924 6.6079 21.445C6.13728 21.2714 5.71157 20.9945 5.36206 20.6347C5.00224 20.2852 4.72534 19.8595 4.55173 19.3889C4.40331 19.0064 4.22673 18.4333 4.17906 17.3771C4.12706 16.2342 4.11623 15.8929 4.11623 12.9993C4.11623 10.1068 4.12706 9.76452 4.17906 8.62268C4.22781 7.56535 4.40331 6.99227 4.55173 6.60985C4.7489 6.10502 4.98398 5.74318 5.36206 5.36402C5.74123 4.98485 6.10306 4.75085 6.6079 4.55368C6.99031 4.40527 7.5634 4.22868 8.61965 4.18102C9.76256 4.12902 10.1038 4.11818 12.9974 4.11818ZM12.9974 16.6101C12.0398 16.6101 11.1214 16.2297 10.4442 15.5525C9.76706 14.8754 9.38665 13.957 9.38665 12.9993C9.38665 12.0417 9.76706 11.1233 10.4442 10.4462C11.1214 9.76902 12.0398 9.3886 12.9974 9.3886C13.955 9.3886 14.8734 9.76902 15.5506 10.4462C16.2277 11.1233 16.6081 12.0417 16.6081 12.9993C16.6081 13.957 16.2277 14.8754 15.5506 15.5525C14.8734 16.2297 13.955 16.6101 12.9974 16.6101ZM12.9974 7.43643C12.2669 7.43643 11.5435 7.58032 10.8686 7.85988C10.1936 8.13945 9.58038 8.54921 9.06382 9.06577C8.54726 9.58234 8.13749 10.1956 7.85793 10.8705C7.57837 11.5454 7.43448 12.2688 7.43448 12.9993C7.43448 13.7299 7.57837 14.4533 7.85793 15.1282C8.13749 15.8031 8.54726 16.4164 9.06382 16.9329C9.58038 17.4495 10.1936 17.8593 10.8686 18.1388C11.5435 18.4184 12.2669 18.5623 12.9974 18.5623C14.4728 18.5623 15.8877 17.9762 16.931 16.9329C17.9742 15.8897 18.5603 14.4747 18.5603 12.9993C18.5603 11.524 17.9742 10.109 16.931 9.06577C15.8877 8.02252 14.4728 7.43643 12.9974 7.43643ZM20.0802 7.21652C20.0802 7.38723 20.0466 7.55628 19.9813 7.714C19.9159 7.87173 19.8202 8.01504 19.6995 8.13575C19.5788 8.25647 19.4354 8.35223 19.2777 8.41756C19.12 8.48289 18.9509 8.51652 18.7802 8.51652C18.6095 8.51652 18.4405 8.48289 18.2827 8.41756C18.125 8.35223 17.9817 8.25647 17.861 8.13575C17.7403 8.01504 17.6445 7.87173 17.5792 7.714C17.5139 7.55628 17.4802 7.38723 17.4802 7.21652C17.4802 6.87173 17.6172 6.54107 17.861 6.29728C18.1048 6.05348 18.4354 5.91652 18.7802 5.91652C19.125 5.91652 19.4557 6.05348 19.6995 6.29728C19.9433 6.54107 20.0802 6.87173 20.0802 7.21652Z" fill="#0082C9"/>
</g>
<defs>
<clipPath id="clip0_9803_8">
<rect width="26" height="26" fill="white"/>
</clipPath>
</defs>
</svg>
