<svg width="26" height="26" viewBox="0 0 26 26" fill="none" xmlns="http://www.w3.org/2000/svg">
<g clip-path="url(#clip0_9803_358)">
<path d="M23.7566 20.7988H21.1945C20.2255 20.7988 19.9336 20.0648 18.1967 18.4395C16.6787 17.0714 16.0376 16.9013 15.6536 16.9013C15.1226 16.9013 14.9777 17.0378 14.9777 17.7213V19.8758C14.9777 20.4586 14.7756 20.7998 13.1476 20.7998C11.5682 20.7006 10.0366 20.2519 8.679 19.4907C7.32136 18.7294 6.17654 17.6775 5.33882 16.4214C3.34972 14.1063 1.96571 11.389 1.29688 8.48581C1.29687 8.12672 1.44283 7.80123 2.17487 7.80123H4.73477C5.39271 7.80123 5.62961 8.07527 5.88785 8.7084C7.13074 12.1292 9.25164 15.1048 10.1128 15.1048C10.4429 15.1048 10.5866 14.9683 10.5866 14.1987V10.675C10.4777 9.06749 9.56489 8.93204 9.56489 8.35036C9.57644 8.1969 9.6515 8.05369 9.77414 7.95116C9.89678 7.84862 10.0573 7.79484 10.2217 7.80123H14.2457C14.7958 7.80123 14.9777 8.05742 14.9777 8.6727V13.429C14.9777 13.9425 15.2135 14.1126 15.3797 14.1126C15.7098 14.1126 15.9635 13.9425 16.5687 13.3776C17.8659 11.8982 18.9256 10.2499 19.7147 8.48476C19.7954 8.27282 19.9481 8.09141 20.1494 7.96819C20.3507 7.84497 20.5895 7.7867 20.8296 7.80228H23.3906C24.1585 7.80228 24.3213 8.16137 24.1585 8.67375C23.2271 10.625 22.0745 12.4773 20.7206 14.1987C20.4444 14.5924 20.3344 14.7971 20.7206 15.2591C20.9744 15.6182 21.8726 16.3196 22.4755 16.9863C23.3535 17.8053 24.0822 18.7524 24.6335 19.7897C24.8535 20.4575 24.4875 20.7988 23.7566 20.7988Z" fill="white"/>
</g>
<defs>
<clipPath id="clip0_9803_358">
<rect width="26" height="26" fill="white"/>
</clipPath>
</defs>
</svg>
