<svg width="558" height="319" viewBox="0 0 558 319" fill="none" xmlns="http://www.w3.org/2000/svg">
<g clip-path="url(#clip0_1387_44205)">
<path d="M426.355 97.0909C426.355 97.0909 427.174 94.6299 431.269 93.809C435.364 92.9889 440.279 97.501 440.279 97.501C440.279 97.501 443.556 90.9379 446.831 90.5271C450.108 90.117 453.794 92.9881 453.794 92.9881M415.708 112.679C415.708 112.679 416.526 110.218 420.622 109.397C424.717 108.577 429.632 113.089 429.632 113.089C429.632 113.089 432.908 106.526 436.184 106.115C439.46 105.705 443.146 108.576 443.146 108.576M454.613 112.777C454.613 112.777 455.237 110.904 458.353 110.279C461.471 109.654 465.211 113.089 465.211 113.089C465.211 113.089 467.705 108.093 470.199 107.781C472.693 107.469 475.498 109.654 475.498 109.654M500.119 129.293C500.119 129.293 500.528 128.064 502.572 127.654C504.617 127.245 507.07 129.497 507.07 129.497C507.07 129.497 508.706 126.221 510.341 126.016C511.976 125.811 513.816 127.244 513.816 127.244M333.193 260.528L285.059 206.474L274.518 214.922L221.749 135.341L175.811 145.594L162.074 119.89M162.074 119.89L148.722 119.186L123.422 69.2066L85.579 103.791L67.3336 97.2646L0.867188 165.147M162.074 119.89L152.566 128.972L149.148 123.265M342.219 270.664L337.172 264.997M151.144 152.203L147.165 153.282M175.717 145.536L155.624 150.987M99.9138 122.4L111.165 105.764L110.405 100.057L123.32 73.8047M95.2118 129.352L98.034 125.179M77.753 139.194L59.5076 163.975M68.243 100.057L72.8014 110.33L83.057 118.699L81.9173 133.538L79.4322 136.913M545.992 221.583L472.134 169.4M472.134 169.4L449.712 201.106L422.015 191.858L379.151 251.969L351.454 246.024L337.605 257.913M472.134 169.4L463.352 208.066L452.996 203.528M422.252 194.127L400.569 257.339L385.682 254.746M282.02 92.7437C277.788 73.6994 255.873 59.5055 236.77 62.2255C232.01 62.9032 227.377 64.6873 223.801 67.9837C218.923 72.4789 220.08 77.5819 217.665 83.152C216.995 84.6981 215.688 86.0713 214.027 86.3567C209.276 87.1728 205.448 82.4292 200.638 82.3938C197.041 82.3673 192.444 84.358 190.437 87.4687C188.569 90.3655 189.871 95.421 186.509 97.3442C182.748 99.4949 178.175 95.4033 174.111 96.8843C169.06 98.7239 171.356 102.404 169.519 104.703C167.682 107.003 164.008 106.083 158.957 105.623C153.906 105.163 149.774 111.142 149.774 111.142H309.112C309.112 111.142 310.489 108.843 304.52 99.6436C298.551 90.4443 290.285 96.8843 286.612 96.8843C282.941 96.8835 282.021 92.7509 282.02 92.7437ZM326.394 62.1563C324.697 54.5159 315.904 48.822 308.24 49.913C306.33 50.1848 304.472 50.9011 303.037 52.2229C301.08 54.0263 301.544 56.0733 300.575 58.3084C300.306 58.9283 299.782 59.479 299.115 59.594C297.209 59.9212 295.673 58.0181 293.743 58.0045C292.3 57.994 290.456 58.7924 289.651 60.0402C288.901 61.202 289.423 63.2305 288.075 64.0023C286.567 64.865 284.732 63.224 283.101 63.8174C281.074 64.5555 281.996 66.0316 281.259 66.9546C280.522 67.8776 279.048 67.5086 277.021 67.3236C274.995 67.1395 273.337 69.5378 273.337 69.5378H337.262C337.262 69.5378 337.814 68.6149 335.419 64.9245C333.024 61.2341 329.708 63.8174 328.235 63.8174C326.764 63.8174 326.395 62.1595 326.394 62.1563ZM462.769 155.788C461.071 148.147 452.279 142.453 444.615 143.544C442.705 143.816 440.847 144.533 439.411 145.855C437.454 147.659 437.918 149.705 436.95 151.941C436.681 152.56 436.157 153.111 435.49 153.226C433.585 153.553 432.049 151.65 430.119 151.636C428.676 151.625 426.831 152.424 426.026 153.672C425.276 154.833 425.799 156.862 424.45 157.634C422.942 158.496 421.107 156.855 419.476 157.449C417.45 158.187 418.371 159.663 417.634 160.586C416.897 161.509 415.424 161.14 413.397 160.955C411.37 160.77 409.713 163.169 409.713 163.169H473.637C473.637 163.169 474.19 162.246 471.795 158.556C469.4 154.866 466.084 157.449 464.61 157.449C463.139 157.449 462.77 155.791 462.769 155.788ZM360.232 147.427C357.631 135.725 344.165 127.003 332.426 128.674C329.501 129.09 326.654 130.187 324.457 132.212C321.46 134.975 322.171 138.11 320.687 141.533C320.275 142.483 319.471 143.327 318.451 143.503C315.532 144.004 313.18 141.089 310.224 141.067C308.013 141.051 305.188 142.274 303.955 144.186C302.807 145.966 303.607 149.073 301.541 150.255C299.23 151.576 296.421 149.062 293.923 149.972C290.819 151.102 292.23 153.363 291.102 154.776C289.973 156.19 287.716 155.625 284.612 155.342C281.508 155.059 278.969 158.733 278.969 158.733H376.88C376.88 158.733 377.727 157.319 374.059 151.667C370.391 146.014 365.312 149.972 363.055 149.972C360.797 149.972 360.232 147.432 360.232 147.427ZM383.26 282.256C383.26 282.256 377.408 276.182 379.05 276.365C380.692 276.548 383.766 281.09 383.766 281.09C383.766 281.09 383.809 271.077 385.269 273.271C386.729 275.465 384.935 281.131 384.935 281.131C384.935 281.131 389.109 274.609 389.1 275.675C389.071 278.97 385.884 281.549 385.884 281.549C385.884 281.549 392.568 276.589 391.473 278.6C390.378 280.611 386.104 282.512 386.104 282.512C386.104 282.512 393.809 280.955 391.072 282.052C388.334 283.149 385.728 283.902 385.728 283.902H383.6C383.6 283.902 376.323 280.245 379.061 280.794C381.8 281.342 383.26 282.256 383.26 282.256ZM460.548 263.25C460.548 263.25 455.994 258.524 457.271 258.666C458.55 258.808 460.942 262.343 460.942 262.343C460.942 262.343 460.975 254.55 462.112 256.258C463.248 257.966 461.852 262.376 461.852 262.376C461.852 262.376 465.1 257.299 465.093 258.129C465.07 260.694 462.59 262.7 462.59 262.7C462.59 262.7 467.792 258.84 466.94 260.405C466.087 261.97 462.761 263.449 462.761 263.449C462.761 263.449 468.758 262.237 466.627 263.091C464.496 263.945 462.469 264.531 462.469 264.531H460.812C460.812 264.531 455.15 261.686 457.28 262.113C459.411 262.539 460.548 263.25 460.548 263.25ZM532.302 246.294C532.302 246.294 527.748 241.567 529.026 241.71C530.304 241.852 532.696 245.386 532.696 245.386C532.696 245.386 532.729 237.594 533.866 239.302C535.002 241.009 533.606 245.419 533.606 245.419C533.606 245.419 536.854 240.343 536.847 241.173C536.825 243.737 534.344 245.743 534.344 245.743C534.344 245.743 539.546 241.883 538.694 243.449C537.842 245.014 534.516 246.493 534.516 246.493C534.516 246.493 540.513 245.281 538.382 246.135C536.251 246.989 534.224 247.575 534.224 247.575H532.567C532.567 247.575 526.904 244.729 529.035 245.156C531.167 245.583 532.302 246.294 532.302 246.294ZM440.854 285.024C440.854 285.024 435.413 279.377 436.94 279.547C438.467 279.716 441.325 283.939 441.325 283.939C441.325 283.939 441.364 274.631 442.722 276.671C444.079 278.711 442.411 283.978 442.411 283.978C442.411 283.978 446.292 277.915 446.283 278.905C446.256 281.969 443.293 284.365 443.293 284.365C443.293 284.365 449.506 279.755 448.489 281.624C447.471 283.494 443.498 285.261 443.498 285.261C443.498 285.261 450.661 283.814 448.115 284.833C445.57 285.852 443.149 286.553 443.149 286.553H441.169C441.169 286.553 434.405 283.153 436.95 283.663C439.496 284.174 440.854 285.024 440.854 285.024Z" stroke="#109548" stroke-miterlimit="10"/>
<path d="M421.248 189.611C402.027 189.611 386.447 205.113 386.447 224.233C386.447 233.098 389.798 241.184 395.306 247.309C397.826 246.943 402.419 246.691 407.496 248.422C414.223 250.714 418.415 254.47 419.334 255.347H422.452C423.37 254.47 427.563 250.714 434.29 248.422C439.817 246.538 444.773 247.003 447.102 247.408C452.663 241.272 456.049 233.146 456.049 224.233C456.049 205.112 440.469 189.611 421.248 189.611Z" fill="#61BD56"/>
<path d="M437.448 238.12C436.378 238.639 435.316 239.175 434.269 239.734C433.221 240.308 432.192 240.932 431.228 241.614C430.864 241.867 430.508 242.127 430.153 242.388L435.853 231.75L428.031 244.02C427.239 244.658 426.46 245.31 425.697 245.975C424.433 247.077 423.205 248.199 422.001 249.356L421.604 237.815L429.788 225.333L421.543 236.069L421.188 225.74L420.6 237.297L420.598 237.3L420.6 237.301L420.01 248.885C418.965 247.894 417.902 246.925 416.811 245.975C415.953 245.228 415.08 244.495 414.185 243.783L406.784 231.123L412.22 242.29C411.908 242.063 411.597 241.834 411.279 241.613C410.315 240.932 409.288 240.308 408.238 239.734C407.191 239.174 406.13 238.638 405.059 238.119C402.914 237.088 400.73 236.124 398.474 235.328C400.666 236.259 402.768 237.349 404.82 238.499C405.844 239.078 406.857 239.673 407.853 240.29C408.833 240.911 409.776 241.568 410.672 242.294C412.475 243.723 414.16 245.284 415.781 246.896C417.198 248.305 418.576 249.762 419.89 251.241L419.142 265.944H422.571L422.085 251.839C423.554 250.154 425.118 248.494 426.725 246.896C428.347 245.284 430.031 243.724 431.835 242.294C432.73 241.568 433.673 240.911 434.653 240.29C435.65 239.673 436.662 239.078 437.687 238.499C439.739 237.349 441.841 236.259 444.033 235.328C441.777 236.125 439.592 237.09 437.448 238.12Z" fill="#109548"/>
<path d="M154.048 237.118C154.048 247.066 148.479 247.817 141.609 247.817C134.739 247.817 129.17 247.066 129.17 237.118C129.17 227.17 134.739 206.376 141.609 206.376C148.479 206.376 154.048 227.17 154.048 237.118Z" fill="#61BD56"/>
<path d="M145.815 241.631L143.757 241.773L149.116 238.155L145.289 240.092L145.815 238.578L144.065 240.712L142.012 241.752L141.849 234.608L142.936 231.965L141.823 233.451L141.728 229.309L145.137 224.757L141.705 228.277L141.497 219.16L141.313 224.995L139.127 222.552L141.278 226.116L140.987 235.358L139.083 234.111L137.349 231.032L138.044 233.431L134.64 231.202L140.946 236.649L139.991 266.985H142.588L142.039 242.934L142.639 242.528L145.815 241.631Z" fill="#109548"/>
<path d="M488.606 202.86C488.606 222.297 477.725 223.765 464.302 223.765C450.878 223.765 439.996 222.298 439.996 202.86C439.996 183.421 450.878 142.79 464.302 142.79C477.725 142.79 488.606 183.422 488.606 202.86Z" fill="#61BD56"/>
<path d="M488.606 202.86C488.606 222.297 477.725 223.765 464.302 223.765C450.878 223.765 439.996 222.298 439.996 202.86C439.996 183.421 450.878 142.79 464.302 142.79C477.725 142.79 488.606 183.422 488.606 202.86Z" fill="white"/>
<path d="M472.519 211.679L468.499 211.956L478.97 204.886L471.492 208.672L472.519 205.714L469.1 209.883L465.09 211.914L464.771 197.955L466.895 192.79L464.72 195.694L464.535 187.601L471.196 178.706L464.489 185.583L464.082 167.77L463.724 179.171L459.451 174.398L463.655 181.362L463.086 199.421L459.366 196.985L455.977 190.967L457.336 195.656L450.684 191.298L463.007 201.945L461.141 261.221H466.214L465.143 214.223L466.315 213.432L472.519 211.679Z" fill="#109548"/>
<path d="M540.634 210.51C540.634 220.458 535.065 221.209 528.195 221.209C521.325 221.209 515.756 220.458 515.756 210.51C515.756 200.562 521.325 179.768 528.195 179.768C535.065 179.768 540.634 200.562 540.634 210.51Z" fill="#61BD56"/>
<path d="M540.634 210.51C540.634 220.458 535.065 221.209 528.195 221.209C521.325 221.209 515.756 220.458 515.756 210.51C515.756 200.562 521.325 179.768 528.195 179.768C535.065 179.768 540.634 200.562 540.634 210.51Z" fill="white"/>
<path d="M532.401 215.023L530.344 215.166L535.703 211.547L531.876 213.485L532.401 211.971L530.652 214.104L528.599 215.143L528.436 208.001L529.523 205.357L528.41 206.844L528.315 202.701L531.724 198.149L528.292 201.669L528.084 192.552L527.9 198.387L525.714 195.944L527.865 199.508L527.574 208.751L525.67 207.504L523.936 204.424L524.631 206.823L521.227 204.593L527.533 210.042L526.578 240.378H529.175L528.626 216.326L529.226 215.921L532.401 215.023Z" fill="#109548"/>
<path d="M33.6139 202.098C33.6139 212.046 28.045 212.797 21.175 212.797C14.3049 212.797 8.73605 212.046 8.73605 202.098C8.73605 192.15 14.3049 171.357 21.175 171.357C28.045 171.357 33.6139 192.15 33.6139 202.098Z" fill="#61BD56"/>
<path d="M33.6139 202.098C33.6139 212.046 28.045 212.797 21.175 212.797C14.3049 212.797 8.73605 212.046 8.73605 202.098C8.73605 192.15 14.3049 171.357 21.175 171.357C28.045 171.357 33.6139 192.15 33.6139 202.098Z" fill="white"/>
<path d="M25.3809 206.612L23.3237 206.754L28.6823 203.136L24.8552 205.073L25.3809 203.559L23.6311 205.693L21.5787 206.732L21.4158 199.588L22.5026 196.945L21.3893 198.431L21.2946 194.29L24.7035 189.737L21.2713 193.257L21.0634 184.14L20.8796 189.976L18.6931 187.532L20.8443 191.096L20.5537 200.338L18.6498 199.092L16.9152 196.012L17.6103 198.411L14.2062 196.182L20.5128 201.63L19.5576 231.966H22.1542L21.606 207.914L22.2056 207.509L25.3809 206.612Z" fill="#109548"/>
<path d="M95.2539 179.539C76.034 179.539 60.4527 195.04 60.4527 214.161C60.4527 223.026 63.8038 231.111 69.3117 237.236C71.8321 236.871 76.4249 236.619 81.5018 238.349C88.2289 240.641 92.4213 244.398 93.3395 245.275H96.4579C97.3761 244.398 101.568 240.641 108.296 238.349C113.823 236.466 118.779 236.931 121.108 237.335C126.669 231.199 130.055 223.074 130.055 214.161C130.055 195.04 114.474 179.539 95.2539 179.539Z" fill="#61BD56"/>
<path d="M95.2539 179.539C76.034 179.539 60.4527 195.04 60.4527 214.161C60.4527 223.026 63.8038 231.111 69.3117 237.236C71.8321 236.871 76.4249 236.619 81.5018 238.349C88.2289 240.641 92.4213 244.398 93.3395 245.275H96.4579C97.3761 244.398 101.568 240.641 108.296 238.349C113.823 236.466 118.779 236.931 121.108 237.335C126.669 231.199 130.055 223.074 130.055 214.161C130.055 195.04 114.474 179.539 95.2539 179.539Z" fill="white"/>
<path d="M111.453 228.048C110.383 228.567 109.321 229.103 108.274 229.663C107.226 230.237 106.197 230.86 105.233 231.542C104.869 231.795 104.513 232.055 104.158 232.316L109.858 221.678L102.036 233.948C101.244 234.586 100.466 235.238 99.7015 235.903C98.4381 237.005 97.21 238.127 96.006 239.284L95.6087 227.744L103.793 215.261L95.5485 225.997L95.1929 215.668L94.6053 227.226L94.6037 227.228L94.6053 227.229L94.0162 238.813C92.9711 237.822 91.9076 236.854 90.8167 235.903C89.9587 235.156 89.0854 234.423 88.1904 233.711L80.7898 221.051L86.2255 232.219C85.9133 231.991 85.6034 231.762 85.284 231.542C84.32 230.86 83.2926 230.236 82.2435 229.662C81.196 229.102 80.1349 228.566 79.0649 228.047C76.921 227.017 74.7361 226.053 72.4798 225.257C74.6719 226.187 76.7733 227.276 78.8257 228.428C79.8499 229.007 80.8629 229.602 81.859 230.218C82.839 230.84 83.7822 231.497 84.6779 232.222C86.4807 233.651 88.1655 235.213 89.7869 236.824C91.2036 238.233 92.5826 239.691 93.8958 241.17L93.1477 255.872H96.5767L96.0911 241.767C97.56 240.083 99.1235 238.423 100.731 236.824C102.353 235.213 104.037 233.652 105.84 232.222C106.736 231.497 107.678 230.84 108.659 230.218C109.655 229.602 110.667 229.007 111.693 228.428C113.746 227.277 115.846 226.187 118.038 225.257C115.782 226.054 113.597 227.018 111.453 228.048Z" fill="#109548"/>
<path d="M191.876 282.858V250.958H150.425V230.535L185.979 146.144H216.31V231.042H229.453V250.958H216.31V282.858H191.876ZM170.982 231.042H191.876V172.981L170.982 231.042Z" fill="#109548"/>
<path d="M278.318 282.931C270.117 282.931 263.321 281.243 257.93 277.867C252.537 274.491 248.493 269.85 245.797 263.942C243.101 258.035 241.753 251.199 241.753 243.435V182.168C241.753 174.179 243.043 167.175 245.629 161.155C248.212 155.137 252.2 150.437 257.592 147.061C262.985 143.685 269.892 141.998 278.318 141.998C286.63 141.998 293.455 143.685 298.791 147.061C304.125 150.437 308.085 155.137 310.67 161.155C313.253 167.175 314.546 174.18 314.546 182.168V243.435C314.546 251.199 313.198 258.035 310.502 263.942C307.806 269.85 303.761 274.491 298.369 277.867C292.977 281.243 286.293 282.931 278.318 282.931ZM278.318 259.977C281.351 259.977 283.542 259.022 284.89 257.106C286.237 255.195 287.135 252.916 287.586 250.271C288.034 247.628 288.26 245.181 288.26 242.929V182.674C288.26 180.2 288.062 177.61 287.67 174.909C287.275 172.209 286.407 169.875 285.058 167.905C283.71 165.938 281.462 164.951 278.318 164.951C275.172 164.951 272.897 165.938 271.494 167.905C270.088 169.875 269.19 172.209 268.798 174.909C268.403 177.61 268.208 180.2 268.208 182.674V242.929C268.208 245.181 268.432 247.628 268.882 250.271C269.33 252.916 270.285 255.195 271.747 257.106C273.205 259.022 275.396 259.977 278.318 259.977Z" fill="#109548"/>
<path d="M370.15 282.858V250.958H328.699V230.535L364.253 146.144H394.583V231.042H407.726V250.958H394.583V282.858H370.15ZM349.256 231.042H370.15V172.981L349.256 231.042Z" fill="#109548"/>
<path d="M523.003 208.893C523.003 229.218 511.624 230.753 497.587 230.753C483.55 230.753 472.172 229.218 472.172 208.893C472.172 188.567 483.55 146.08 497.587 146.08C511.624 146.08 523.003 188.568 523.003 208.893Z" fill="#61BD56"/>
<path d="M506.181 218.116L501.977 218.406L512.927 211.011L505.107 214.971L506.181 211.878L502.606 216.237L498.413 218.361L498.079 203.765L500.3 198.364L498.026 201.401L497.832 192.938L504.797 183.636L497.784 190.828L497.359 172.201L496.984 184.123L492.516 179.131L496.911 186.414L496.317 205.298L492.427 202.75L488.883 196.457L490.305 201.36L483.348 196.804L496.234 207.936L494.283 269.921H499.588L498.467 220.776L499.693 219.948L506.181 218.116Z" fill="#109548"/>
<path d="M495.875 270.467C495.875 270.467 486.495 260.732 489.128 261.025C491.761 261.319 496.688 268.598 496.688 268.598C496.688 268.598 496.757 252.549 499.097 256.066C501.438 259.583 498.562 268.666 498.562 268.666C498.562 268.666 505.252 258.211 505.238 259.919C505.191 265.201 500.083 269.333 500.083 269.333C500.083 269.333 510.796 261.384 509.041 264.607C507.285 267.83 500.435 270.877 500.435 270.877C500.435 270.877 512.785 268.381 508.397 270.139C504.009 271.898 499.833 273.104 499.833 273.104H496.421C496.421 273.104 484.759 267.244 489.147 268.123C493.535 269.002 495.875 270.467 495.875 270.467Z" fill="#109548"/>
<path d="M46.5039 258.38C46.5039 258.38 38.3906 249.96 40.6677 250.213C42.9449 250.466 47.2071 256.763 47.2071 256.763C47.2071 256.763 47.2657 242.882 49.29 245.924C51.3143 248.965 48.8268 256.821 48.8268 256.821C48.8268 256.821 54.6133 247.778 54.6004 249.255C54.5603 253.824 50.1416 257.398 50.1416 257.398C50.1416 257.398 59.4076 250.522 57.8898 253.311C56.3719 256.099 50.4466 258.734 50.4466 258.734C50.4466 258.734 61.1285 256.575 57.3327 258.096C53.5369 259.617 49.9257 260.661 49.9257 260.661H46.9743C46.9743 260.661 36.8872 255.592 40.683 256.352C44.4796 257.113 46.5039 258.38 46.5039 258.38Z" fill="#109548"/>
<path d="M75.8302 197.813C75.8302 218.161 64.4387 219.697 50.3872 219.697C36.3357 219.697 24.9443 218.161 24.9443 197.813C24.9443 177.465 36.3357 134.931 50.3872 134.931C64.4387 134.931 75.8302 177.465 75.8302 197.813Z" fill="#61BD56"/>
<path d="M58.9902 207.045L54.7818 207.336L65.743 199.934L57.9146 203.898L58.9902 200.801L55.4111 205.166L51.2124 207.291L50.8793 192.679L53.1026 187.272L50.8255 190.313L50.632 181.841L57.6048 172.529L50.5839 179.729L50.1585 161.081L49.7828 173.016L45.3104 168.019L49.7106 175.309L49.1158 194.214L45.2213 191.663L41.6735 185.364L43.0958 190.272L36.1327 185.711L49.0323 196.855L47.0786 258.907H52.3907L51.2678 209.709L52.495 208.88L58.9902 207.045Z" fill="#109548"/>
<path d="M135.33 279.534C135.33 279.534 127.217 271.114 129.494 271.367C131.771 271.62 136.033 277.917 136.033 277.917C136.033 277.917 136.093 264.036 138.116 267.078C140.141 270.119 137.653 277.975 137.653 277.975C137.653 277.975 143.44 268.932 143.427 270.409C143.387 274.979 138.968 278.552 138.968 278.552C138.968 278.552 148.234 271.677 146.716 274.465C145.198 277.253 139.273 279.888 139.273 279.888C139.273 279.888 149.955 277.73 146.159 279.25C142.363 280.771 138.752 281.815 138.752 281.815H135.801C135.801 281.815 125.714 276.746 129.509 277.506C133.306 278.266 135.33 279.534 135.33 279.534Z" fill="#109548"/>
<path d="M178.394 297.986C178.394 297.986 170.281 289.565 172.558 289.819C174.835 290.072 179.097 296.369 179.097 296.369C179.097 296.369 179.156 282.488 181.18 285.529C183.204 288.571 180.717 296.427 180.717 296.427C180.717 296.427 186.504 287.384 186.491 288.861C186.45 293.43 182.032 297.004 182.032 297.004C182.032 297.004 191.298 290.128 189.78 292.917C188.262 295.705 182.337 298.34 182.337 298.34C182.337 298.34 193.019 296.182 189.223 297.702C185.427 299.223 181.816 300.267 181.816 300.267H178.864C178.864 300.267 168.777 295.198 172.573 295.958C176.37 296.719 178.394 297.986 178.394 297.986Z" fill="#109548"/>
<path d="M293.9 285.596C293.9 285.596 288.048 279.523 289.69 279.705C291.332 279.888 294.407 284.43 294.407 284.43C294.407 284.43 294.449 274.417 295.909 276.611C297.369 278.805 295.575 284.471 295.575 284.471C295.575 284.471 299.75 277.949 299.74 279.015C299.712 282.31 296.524 284.889 296.524 284.889C296.524 284.889 303.208 279.93 302.113 281.94C301.018 283.951 296.744 285.852 296.744 285.852C296.744 285.852 304.449 284.295 301.711 285.392C298.973 286.489 296.368 287.242 296.368 287.242H294.24C294.24 287.242 286.964 283.585 289.702 284.134C292.44 284.682 293.9 285.596 293.9 285.596Z" fill="#109548"/>
<path d="M521.077 271.063C521.077 271.063 516.522 266.336 517.8 266.479C519.078 266.621 521.471 270.155 521.471 270.155C521.471 270.155 521.504 262.363 522.64 264.071C523.777 265.778 522.38 270.188 522.38 270.188C522.38 270.188 525.628 265.112 525.621 265.942C525.599 268.506 523.119 270.512 523.119 270.512C523.119 270.512 528.321 266.653 527.468 268.218C526.616 269.783 523.289 271.262 523.289 271.262C523.289 271.262 529.286 270.05 527.155 270.904C525.025 271.758 522.997 272.344 522.997 272.344H521.341C521.341 272.344 515.679 269.498 517.809 269.925C519.94 270.352 521.077 271.063 521.077 271.063Z" fill="#109548"/>
<path d="M214.403 285.628C214.403 285.628 206.29 277.208 208.567 277.461C210.844 277.715 215.106 284.011 215.106 284.011C215.106 284.011 215.165 270.13 217.189 273.172C219.214 276.213 216.726 284.069 216.726 284.069C216.726 284.069 222.513 275.027 222.5 276.504C222.46 281.073 218.041 284.647 218.041 284.647C218.041 284.647 227.307 277.771 225.789 280.559C224.271 283.347 218.346 285.982 218.346 285.982C218.346 285.982 229.028 283.823 225.232 285.344C221.436 286.865 217.825 287.909 217.825 287.909H214.874C214.874 287.909 204.787 282.84 208.582 283.601C212.38 284.361 214.403 285.628 214.403 285.628Z" fill="#61BD56"/>
<path d="M155.856 280.034C155.856 280.034 150.416 274.388 151.942 274.557C153.469 274.727 156.327 278.949 156.327 278.949C156.327 278.949 156.367 269.642 157.724 271.681C159.081 273.721 157.413 278.989 157.413 278.989C157.413 278.989 161.293 272.925 161.285 273.916C161.259 276.98 158.295 279.376 158.295 279.376C158.295 279.376 164.509 274.765 163.491 276.635C162.473 278.504 158.5 280.271 158.5 280.271C158.5 280.271 165.663 278.824 163.118 279.844C160.572 280.863 158.151 281.563 158.151 281.563H156.171C156.171 281.563 149.407 278.164 151.953 278.674C154.499 279.184 155.856 280.034 155.856 280.034Z" fill="#61BD56"/>
<path d="M87.8718 302.338C87.8718 302.338 82.4313 296.691 83.958 296.861C85.4854 297.031 88.3429 301.253 88.3429 301.253C88.3429 301.253 88.3823 291.945 89.7396 293.984C91.0969 296.024 89.4289 301.292 89.4289 301.292C89.4289 301.292 93.309 295.228 93.301 296.219C93.2745 299.283 90.3111 301.679 90.3111 301.679C90.3111 301.679 96.5245 297.068 95.5067 298.938C94.4889 300.807 90.5157 302.574 90.5157 302.574C90.5157 302.574 97.6787 301.127 95.1335 302.147C92.5882 303.166 90.1666 303.866 90.1666 303.866H88.1872C88.1872 303.866 81.4231 300.467 83.9684 300.977C86.5144 301.488 87.8718 302.338 87.8718 302.338Z" fill="#61BD56"/>
<path d="M269.89 303.431C269.89 303.431 264.45 297.785 265.976 297.954C267.503 298.124 270.361 302.347 270.361 302.347C270.361 302.347 270.401 293.039 271.758 295.079C273.115 297.118 271.447 302.386 271.447 302.386C271.447 302.386 275.327 296.322 275.319 297.313C275.293 300.377 272.329 302.773 272.329 302.773C272.329 302.773 278.543 298.163 277.525 300.032C276.507 301.901 272.534 303.668 272.534 303.668C272.534 303.668 279.697 302.221 277.152 303.241C274.607 304.26 272.185 304.96 272.185 304.96H270.206C270.206 304.96 263.441 301.561 265.987 302.071C268.533 302.581 269.89 303.431 269.89 303.431Z" fill="#61BD56"/>
<path d="M358.162 303.726C358.162 303.726 352.721 298.08 354.248 298.25C355.775 298.419 358.633 302.642 358.633 302.642C358.633 302.642 358.672 293.334 360.03 295.374C361.387 297.413 359.719 302.681 359.719 302.681C359.719 302.681 363.599 296.617 363.591 297.608C363.564 300.672 360.601 303.068 360.601 303.068C360.601 303.068 366.815 298.458 365.797 300.327C364.779 302.196 360.806 303.964 360.806 303.964C360.806 303.964 367.969 302.516 365.423 303.536C362.878 304.555 360.457 305.256 360.457 305.256H358.477C358.477 305.256 351.713 301.856 354.258 302.366C356.804 302.876 358.162 303.726 358.162 303.726Z" fill="#61BD56"/>
<path d="M522.28 286.063C522.28 286.063 513.996 277.466 516.321 277.725C518.646 277.984 522.997 284.413 522.997 284.413C522.997 284.413 523.057 270.241 525.124 273.346C527.191 276.451 524.652 284.472 524.652 284.472C524.652 284.472 530.56 275.241 530.546 276.748C530.505 281.413 525.995 285.062 525.995 285.062C525.995 285.062 535.455 278.042 533.905 280.889C532.355 283.735 526.306 286.425 526.306 286.425C526.306 286.425 537.212 284.221 533.336 285.774C529.461 287.326 525.774 288.392 525.774 288.392H522.761C522.761 288.392 512.462 283.217 516.338 283.994C520.214 284.77 522.28 286.063 522.28 286.063Z" fill="#61BD56"/>
<path d="M28.6952 286.063C28.6952 286.063 20.4116 277.466 22.737 277.725C25.0623 277.984 29.4135 284.413 29.4135 284.413C29.4135 284.413 29.4737 270.241 31.5406 273.346C33.6075 276.451 31.0678 284.472 31.0678 284.472C31.0678 284.472 36.9763 275.241 36.9626 276.748C36.9217 281.413 32.4107 285.062 32.4107 285.062C32.4107 285.062 41.8709 278.042 40.321 280.889C38.771 283.735 32.7221 286.425 32.7221 286.425C32.7221 286.425 43.628 284.221 39.7527 285.774C35.8774 287.326 32.19 288.392 32.19 288.392H29.1768C29.1768 288.392 18.8785 283.217 22.7538 283.994C26.6283 284.77 28.6952 286.063 28.6952 286.063Z" fill="#61BD56"/>
<path d="M69.5581 273.924C69.5581 273.924 61.0804 259.281 63.4988 258.151C65.9164 257.02 70.9138 268.162 70.9138 268.162C70.9138 268.162 69.9466 247.171 72.2037 249.109C74.4608 251.047 76.5566 265.901 76.5566 265.901C76.5566 265.901 81.07 249.755 82.5212 253.145C83.9724 256.536 81.3613 266.796 81.3613 266.796C81.3613 266.796 87.8405 254.437 88.4858 258.474C89.1303 262.511 85.4228 269.131 85.4228 269.131C85.4228 269.131 93.9664 260.573 94.6109 263.964C95.2555 267.354 92.3539 270.745 92.3539 270.745C92.3539 270.745 103.638 264.609 100.897 268.001C98.1571 271.391 94.1269 275.751 94.1269 275.751C94.1269 275.751 104.928 271.876 103.638 274.137C102.348 276.398 97.5118 278.819 97.5118 278.819C97.5118 278.819 106.378 277.205 105.411 278.658C104.444 280.11 102.192 281.538 102.192 281.538H62.0476C62.0476 281.538 51.4082 277.689 55.5997 277.366C59.7913 277.042 63.6593 278.818 63.6593 278.818C63.6593 278.818 50.6023 269.937 56.7275 269.292C62.8534 268.646 67.85 276.396 67.85 276.396C67.85 276.396 59.1451 264.125 62.2081 266.062L69.5581 273.924Z" fill="#61BD56"/>
<path d="M70.1039 278.09C70.1039 278.09 59.1588 266.73 62.2306 267.073C65.3024 267.415 71.0519 275.909 71.0519 275.909C71.0519 275.909 71.1313 257.184 73.862 261.286C76.5927 265.389 73.2375 275.987 73.2375 275.987C73.2375 275.987 81.0443 263.788 81.0266 265.781C80.9728 271.944 75.0122 276.766 75.0122 276.766C75.0122 276.766 87.5122 267.491 85.4646 271.252C83.4162 275.013 75.424 278.568 75.424 278.568C75.424 278.568 89.8343 275.656 84.7141 277.707C79.5939 279.759 74.7217 281.168 74.7217 281.168H70.7404C70.7404 281.168 57.1336 274.33 62.2538 275.356C67.3733 276.381 70.1039 278.09 70.1039 278.09Z" fill="#109548"/>
<path d="M430.562 299.689C430.562 299.689 414.539 272.011 419.109 269.875C423.679 267.739 433.124 288.797 433.124 288.797C433.124 288.797 431.296 249.122 435.562 252.784C439.827 256.446 443.789 284.524 443.789 284.524C443.789 284.524 452.319 254.005 455.062 260.414C457.804 266.823 452.87 286.216 452.87 286.216C452.87 286.216 465.117 262.856 466.336 270.486C467.554 278.116 460.547 290.628 460.547 290.628C460.547 290.628 476.695 274.454 477.914 280.862C479.132 287.271 473.649 293.68 473.649 293.68C473.649 293.68 494.976 282.083 489.797 288.492C484.617 294.901 477 303.141 477 303.141C477 303.141 497.414 295.817 494.976 300.089C492.539 304.362 483.399 308.94 483.399 308.94C483.399 308.94 500.157 305.888 498.328 308.635C496.5 311.381 492.244 314.078 492.244 314.078H416.367C416.367 314.078 396.258 306.803 404.179 306.193C412.101 305.583 419.413 308.94 419.413 308.94C419.413 308.94 394.734 292.154 406.312 290.933C417.89 289.713 427.336 304.362 427.336 304.362C427.336 304.362 410.883 281.167 416.671 284.829L430.562 299.689Z" fill="#61BD56"/>
<path d="M431.594 307.562C431.594 307.562 410.906 286.092 416.712 286.738C422.519 287.383 433.385 303.439 433.385 303.439C433.385 303.439 433.535 268.046 438.697 275.801C443.858 283.556 437.517 303.586 437.517 303.586C437.517 303.586 452.272 280.53 452.239 284.297C452.137 295.947 440.871 305.059 440.871 305.059C440.871 305.059 464.497 287.528 460.627 294.637C456.756 301.746 441.649 308.464 441.649 308.464C441.649 308.464 468.885 302.961 459.207 306.839C449.529 310.716 440.32 313.378 440.32 313.378H432.795C432.795 313.378 407.076 300.453 416.754 302.392C426.433 304.331 431.594 307.562 431.594 307.562Z" fill="#109548"/>
<path d="M97.1698 274.754C97.1698 274.754 98.8089 273.27 100.214 273.27C101.62 273.27 105.913 275.337 105.913 275.337C105.913 275.337 107.631 277.987 107.787 278.146C107.943 278.305 110.05 279.207 110.207 279.577C110.363 279.949 110.676 281.168 110.676 281.168H97.5607L95.1407 274.807L97.1698 274.754Z" fill="white"/>
<path d="M100.214 273.27L100.137 274.521C100.137 274.521 103.493 276.476 103.415 277.18C103.338 277.883 102.634 279.526 102.634 279.526L104.352 281.325H95.2186L95.9209 275.929C95.9209 275.929 97.8722 273.113 100.214 273.27Z" fill="#109548"/>
<path d="M80.0738 273.974C80.0738 273.974 86.6316 264.121 88.1142 263.965C89.5975 263.809 92.7199 265.06 93.8909 267.092C95.062 269.125 96.1545 273.113 96.2331 273.348C96.311 273.583 96.6232 273.739 98.4188 276.632C100.214 279.525 100.137 281.168 100.137 281.168H74.765C74.765 281.168 75.3116 278.587 76.2483 277.102C77.1851 275.617 79.3707 275.069 79.3707 275.069L80.0738 273.974Z" fill="white"/>
<path d="M90.1441 281.011C90.1441 281.011 89.4418 279.29 89.3631 279.056C89.2853 278.822 89.2852 276.554 89.0509 275.616C88.8165 274.678 86.8652 271.784 86.8652 271.784L88.2707 267.718L87.5683 267.171L88.7394 264.277L88.0837 263.973C86.5465 264.25 80.0738 273.974 80.0738 273.974L79.3707 275.069C79.3707 275.069 77.1851 275.617 76.2483 277.102C75.4473 278.372 74.9336 280.438 74.8011 281.012L90.1441 281.011Z" fill="#109548"/>
<path d="M350.003 277.205C350.003 277.205 351.032 276.275 351.912 276.275C352.793 276.275 355.486 277.571 355.486 277.571C355.486 277.571 356.563 279.232 356.661 279.332C356.759 279.432 358.081 279.997 358.178 280.229C358.276 280.462 358.472 281.226 358.472 281.226H350.248L348.731 277.239L350.003 277.205Z" fill="white"/>
<path d="M351.913 276.274L351.864 277.058C351.864 277.058 353.969 278.285 353.92 278.725C353.871 279.166 353.43 280.196 353.43 280.196L354.507 281.324H348.78L349.221 277.94C349.221 277.94 350.444 276.176 351.913 276.274Z" fill="#109548"/>
<path d="M339.285 276.715C339.285 276.715 343.396 270.537 344.326 270.44C345.256 270.342 347.214 271.127 347.949 272.401C348.683 273.675 349.368 276.176 349.417 276.323C349.466 276.47 349.661 276.568 350.787 278.382C351.913 280.196 351.864 281.226 351.864 281.226H335.956C335.956 281.226 336.299 279.608 336.886 278.676C337.474 277.744 338.844 277.401 338.844 277.401L339.285 276.715Z" fill="white"/>
<path d="M345.598 281.128C345.598 281.128 345.158 280.049 345.109 279.901C345.06 279.754 345.06 278.333 344.913 277.744C344.766 277.156 343.542 275.342 343.542 275.342L344.423 272.792L343.983 272.449L344.717 270.635L344.306 270.445C343.342 270.618 339.285 276.715 339.285 276.715L338.843 277.402C338.843 277.402 337.473 277.745 336.885 278.677C336.383 279.474 336.06 280.769 335.978 281.128L345.598 281.128Z" fill="#109548"/>
<path d="M482.752 301.256C482.752 301.256 485.85 298.451 488.506 298.451C491.162 298.451 499.277 302.359 499.277 302.359C499.277 302.359 502.523 307.368 502.818 307.668C503.114 307.969 507.097 309.672 507.393 310.373C507.688 311.074 508.278 313.378 508.278 313.378H483.489L478.915 301.356L482.752 301.256Z" fill="white"/>
<path d="M488.506 298.451L488.358 300.816C488.358 300.816 494.703 304.511 494.556 305.841C494.408 307.171 493.08 310.275 493.08 310.275L496.326 313.674H479.063L480.39 303.476C480.39 303.476 484.079 298.155 488.506 298.451Z" fill="#109548"/>
<path d="M450.438 299.781C450.438 299.781 462.832 281.159 465.636 280.863C468.439 280.567 474.341 282.932 476.554 286.775C478.767 290.617 480.833 298.155 480.981 298.598C481.129 299.042 481.719 299.337 485.112 304.806C488.506 310.275 488.358 313.378 488.358 313.378H440.405C440.405 313.378 441.438 308.501 443.208 305.693C444.979 302.885 449.11 301.85 449.11 301.85L450.438 299.781Z" fill="white"/>
<path d="M469.472 313.083C469.472 313.083 468.144 309.831 467.996 309.387C467.849 308.944 467.849 304.657 467.406 302.885C466.964 301.111 463.275 295.642 463.275 295.642L465.931 287.957L464.603 286.922L466.816 281.453L465.577 280.878C462.671 281.401 450.438 299.781 450.438 299.781L449.11 301.85C449.11 301.85 444.979 302.885 443.208 305.693C441.694 308.094 440.722 311.999 440.471 313.083H469.472Z" fill="#109548"/>
</g>
<defs>
<clipPath id="clip0_1387_44205">
<rect width="557" height="318.632" fill="white" transform="translate(0.5)"/>
</clipPath>
</defs>
</svg>
