<svg width="66" height="50" viewBox="0 0 66 50" fill="none" xmlns="http://www.w3.org/2000/svg">
<path d="M59.6573 4.04412C63.309 8.08824 65.5 12.5 65.5 19.8529C65.5 32.7206 56.3708 44.1176 43.5899 50L40.3034 45.2206C52.3539 38.6029 54.9101 30.1471 55.6405 24.6324C53.8146 25.7353 51.2584 26.1029 48.7022 25.7353C42.1292 25 37.0169 19.8529 37.0169 12.8676C37.0169 9.55882 38.4775 6.25 40.6685 3.67647C43.2247 1.10294 46.1461 0 49.7978 0C53.8146 0 57.4663 1.83824 59.6573 4.04412ZM23.1405 4.04412C26.7921 8.08824 28.9831 12.5 28.9831 19.8529C28.9831 32.7206 19.8539 44.1176 7.07303 50L3.78652 45.2206C15.8371 38.6029 18.3933 30.1471 19.1236 24.6324C17.2978 25.7353 14.7416 26.1029 12.1854 25.7353C5.61236 25 0.5 19.4853 0.5 12.8676C0.5 9.55882 1.96067 6.25 4.15169 3.67647C6.70787 1.10294 9.62921 0 13.2809 0C17.2978 0 20.9494 1.83824 23.1405 4.04412Z" fill="#E8E8E8"/>
</svg>
