<svg width="675" height="874" viewBox="0 0 675 874" fill="none" xmlns="http://www.w3.org/2000/svg">
<g style="mix-blend-mode:luminosity">
<path d="M64.0539 497.99C64.0113 497.407 64.0113 496.821 64.0539 496.237V494.338C64.0539 493.461 64.0539 492.73 64.0539 491.854C64.0539 485.571 64.0539 479.289 64.0539 473.006C64.0539 470.961 64.0539 468.915 64.0539 466.724L66.4084 454.159C66.4084 451.675 67.2914 449.191 67.5857 446.707C67.8801 444.224 68.9102 439.11 69.646 435.165L71.4119 427.275C72.1968 423.671 73.0798 420.019 74.0608 416.318L76.2683 408.136C77.2984 404.483 78.4757 400.83 79.653 397.178C80.8303 393.525 81.2718 391.772 82.3019 389.142L86.4224 377.746L89.3656 370.294C91.7202 364.45 94.3691 358.46 97.018 352.616L101.433 343.557C102.905 340.489 104.376 337.421 105.995 334.353L111.293 324.564L116.002 316.382L122.036 306.154L126.598 298.703L133.367 288.33C134.986 285.992 136.605 283.8 138.076 281.463C139.548 279.125 143.08 274.304 145.729 270.797L149.996 265.099L158.679 253.703L159.856 252.242C167.95 242.161 176.191 232.372 185.021 223.021C186.787 221.121 188.553 219.368 190.171 217.469C196.058 211.04 202.239 204.758 208.567 198.621C268.895 138.311 342.273 92.4417 423.128 64.497C386.266 72.6919 347.763 69.5319 312.757 55.4385C290.123 46.3089 268.229 35.4652 247.27 23.0032C188.847 -10.1626 117.768 -5.34109 76.2683 36.8832C30.0763 84.8673 3.30563 148.063 1.06872 214.401C-5.11206 307.031 16.6678 394.694 51.8394 479.873C54.7827 487.032 71.4119 584.484 78.1814 591.351V590.182C69.43 560.198 64.6803 529.202 64.0539 497.99Z" fill="url(#paint0_linear_3060_72217)"/>
<path d="M648.58 119.14C602.897 157.996 560.654 200.669 522.315 246.69C456.239 329.531 401.79 420.262 375.153 503.25C378.023 496.897 382.262 491.246 387.569 486.695C392.877 482.144 399.125 478.804 405.874 476.909C412.622 475.015 419.707 474.613 426.629 475.73C433.551 476.848 440.142 479.459 445.938 483.38C453.821 488.05 460.554 494.409 465.646 501.992C470.738 509.575 474.06 518.191 475.37 527.211C483.767 569.366 476.996 613.109 456.239 650.816C450.118 663.116 446.374 676.447 445.202 690.118C443.731 707.651 457.858 717.147 471.986 707.358C494.745 692.072 515.896 674.548 535.118 655.053C586.248 603.434 624.762 540.853 647.696 472.13C681.91 361.1 683.391 242.667 651.964 130.829C650.934 126.738 649.757 122.939 648.58 119.14Z" fill="url(#paint1_linear_3060_72217)"/>
<path d="M606.933 56.8996C607.974 57.547 608.958 58.2801 609.876 59.0911L606.933 56.8996Z" fill="white"/>
<path d="M610.17 58.6528C599.025 50.6213 586.281 45.0425 572.791 42.2891C566.022 42.2891 559.253 41.5586 552.336 41.5586C318.202 41.5586 63.3181 278.833 63.3181 491.708C63.3181 622.179 134.839 737.31 244.327 807.002C212.898 750.374 198.591 685.947 203.122 621.449C216.072 437.941 413.415 174.222 610.17 58.6528Z" fill="url(#paint2_linear_3060_72217)"/>
<path d="M648.58 119.14C642.304 95.5133 628.902 74.3563 610.17 58.5067C413.121 174.222 215.63 438.379 202.68 621.887C198.137 686.497 212.497 751.035 244.032 807.732L248.742 811.969C269.078 825.983 290.369 838.578 312.463 849.665L329.975 857.993C363.675 871.58 372.946 877.132 384.277 869.827C387.368 867.781 388.839 862.083 385.602 848.204C378.054 828.474 371.666 808.327 366.471 787.862C352.721 726.764 348.847 663.884 354.992 601.578C365.588 451.529 492.735 251.073 648.58 119.14Z" fill="url(#paint3_linear_3060_72217)"/>
<path d="M399.435 73.1172C395.653 74.2999 392.004 75.8667 388.545 77.7926L399.435 73.1172Z" fill="url(#paint4_linear_3060_72217)"/>
<path d="M426.807 63.9126H422.539C414.74 66.5425 406.793 69.3185 398.846 72.5328C407.087 70.3412 417.094 67.273 426.807 63.9126Z" fill="url(#paint5_linear_3060_72217)"/>
<path d="M426.807 63.9126H422.539C414.74 66.5425 406.793 69.3185 398.846 72.5328C407.087 70.3412 417.094 67.273 426.807 63.9126Z" fill="url(#paint6_linear_3060_72217)"/>
<path d="M399.435 73.1172C407.382 69.9029 415.328 67.1269 423.128 64.497C387.059 71.3657 349.791 68.438 315.259 56.0229C292.469 46.7065 270.386 35.7689 249.183 23.2955C221.084 6.78214 188.611 -0.908423 156.03 1.23363C129.246 17.013 111.881 39.2209 111.881 64.0587C111.881 99.1239 144.551 133.166 193.703 142.663C224.509 146.606 255.769 145.272 286.121 138.718C316.75 113.275 351.085 92.586 387.956 77.3543C391.62 75.5416 395.468 74.1212 399.435 73.1172Z" fill="url(#paint7_linear_3060_72217)"/>
<path d="M648.58 119.14C544.536 210.748 459.624 344.434 412.091 458.396C440.546 435.578 476.178 423.424 512.749 424.061C572.35 424.061 622.826 453.282 641.369 493.461C644.018 486.643 646.519 479.63 648.874 472.422C687.577 351.885 679.631 230.18 648.58 119.14Z" fill="url(#paint8_linear_3060_72217)"/>
</g>
<defs>
<linearGradient id="paint0_linear_3060_72217" x1="4.97752" y1="480.265" x2="726.292" y2="270.228" gradientUnits="userSpaceOnUse">
<stop offset="0.05" stop-color="#3D8850"/>
<stop offset="0.18" stop-color="#64AD61"/>
<stop offset="0.27" stop-color="#7CC56C"/>
<stop offset="0.58" stop-color="#9AD19C"/>
<stop offset="1" stop-color="white"/>
</linearGradient>
<linearGradient id="paint1_linear_3060_72217" x1="139.72" y1="357.894" x2="537.007" y2="643.031" gradientUnits="userSpaceOnUse">
<stop offset="0.32" stop-color="#3D8850"/>
<stop offset="0.43" stop-color="#469154"/>
<stop offset="0.62" stop-color="#5FA95F"/>
<stop offset="0.79" stop-color="#7CC56C"/>
<stop offset="0.99" stop-color="#9AD19C"/>
</linearGradient>
<linearGradient id="paint2_linear_3060_72217" x1="3.83777" y1="646.983" x2="729.934" y2="92.1827" gradientUnits="userSpaceOnUse">
<stop offset="0.08" stop-color="#377D49"/>
<stop offset="0.14" stop-color="#3D8850"/>
<stop offset="0.32" stop-color="#64AD61"/>
<stop offset="0.45" stop-color="#7CC56C"/>
<stop offset="0.79" stop-color="#9AD19C"/>
<stop offset="1" stop-color="white"/>
</linearGradient>
<linearGradient id="paint3_linear_3060_72217" x1="-18.9683" y1="744.915" x2="542.141" y2="-52.7895" gradientUnits="userSpaceOnUse">
<stop offset="0.1" stop-color="#337946"/>
<stop offset="0.2" stop-color="#3D8850"/>
<stop offset="0.28" stop-color="#459054"/>
<stop offset="0.42" stop-color="#5BA55D"/>
<stop offset="0.56" stop-color="#7CC56C"/>
<stop offset="0.89" stop-color="#91CD90"/>
<stop offset="1" stop-color="#5EA55C"/>
</linearGradient>
<linearGradient id="paint4_linear_3060_72217" x1="0.0234375" y1="436.971" x2="674.975" y2="436.971" gradientUnits="userSpaceOnUse">
<stop stop-color="#5D9754"/>
<stop offset="0.22" stop-color="#5C9553"/>
<stop offset="0.23" stop-color="#5D9654"/>
<stop offset="0.33" stop-color="#6DAE61"/>
<stop offset="0.43" stop-color="#78BD68"/>
<stop offset="0.51" stop-color="#7BC26B"/>
<stop offset="0.75" stop-color="#7CC56C"/>
<stop offset="0.93" stop-color="#9AD19C"/>
</linearGradient>
<linearGradient id="paint5_linear_3060_72217" x1="14.233" y1="459.145" x2="689.185" y2="459.145" gradientUnits="userSpaceOnUse">
<stop stop-color="#5D9754"/>
<stop offset="0.22" stop-color="#5C9553"/>
<stop offset="0.23" stop-color="#5D9654"/>
<stop offset="0.33" stop-color="#6DAE61"/>
<stop offset="0.43" stop-color="#78BD68"/>
<stop offset="0.51" stop-color="#7BC26B"/>
<stop offset="0.75" stop-color="#7CC56C"/>
<stop offset="0.93" stop-color="#9AD19C"/>
</linearGradient>
<linearGradient id="paint6_linear_3060_72217" x1="14.233" y1="459.145" x2="689.185" y2="459.145" gradientUnits="userSpaceOnUse">
<stop stop-color="#5D9754"/>
<stop offset="0.22" stop-color="#5C9553"/>
<stop offset="0.23" stop-color="#5D9654"/>
<stop offset="0.33" stop-color="#6DAE61"/>
<stop offset="0.43" stop-color="#78BD68"/>
<stop offset="0.51" stop-color="#7BC26B"/>
<stop offset="0.75" stop-color="#7CC56C"/>
<stop offset="0.93" stop-color="#9AD19C"/>
</linearGradient>
<linearGradient id="paint7_linear_3060_72217" x1="182.244" y1="949.04" x2="801.192" y2="630.147" gradientUnits="userSpaceOnUse">
<stop offset="0.05" stop-color="#5D9754"/>
<stop offset="0.18" stop-color="#6AAA5E"/>
<stop offset="0.36" stop-color="#7BC26B"/>
<stop offset="0.68" stop-color="#7CC56C"/>
<stop offset="0.87" stop-color="#9AD19C"/>
</linearGradient>
<linearGradient id="paint8_linear_3060_72217" x1="485.083" y1="257.502" x2="703.312" y2="411.367" gradientUnits="userSpaceOnUse">
<stop offset="0.2" stop-color="#4D965A"/>
<stop offset="0.37" stop-color="#64AD63"/>
<stop offset="0.59" stop-color="#7CC56C"/>
<stop offset="0.66" stop-color="#80C772"/>
<stop offset="0.75" stop-color="#8BCB84"/>
<stop offset="0.84" stop-color="#9AD19C"/>
</linearGradient>
</defs>
</svg>
