<svg width="74" height="26" viewBox="0 0 74 26" fill="none" xmlns="http://www.w3.org/2000/svg">
<g clip-path="url(#clip0_3004_25859)">
<path fill-rule="evenodd" clip-rule="evenodd" d="M8.11106 0.716797C7.86848 0.718604 7.56416 0.721748 7.15059 0.72677C6.4905 0.74415 5.98972 0.783968 5.49895 0.870903C4.90096 0.976664 4.35956 1.15075 3.84194 1.41076C3.31591 1.67439 2.83419 2.01935 2.41624 2.43181C1.99876 2.84292 1.64843 3.31829 1.37972 3.83846C1.11562 4.34992 0.938767 4.88493 0.830503 5.47733C0.742094 5.96223 0.701984 6.45505 0.684447 7.0993L0.678433 7.36769C0.676839 7.45983 0.675606 7.55519 0.674737 7.65556L0.671875 8.23856L0.671911 17.7737L0.673686 18.1895C0.675063 18.4543 0.67836 18.6821 0.684447 18.901C0.70202 19.5447 0.74213 20.0377 0.830466 20.5218C0.938803 21.1147 1.11569 21.6501 1.37969 22.1613C1.6485 22.6811 1.99869 23.1564 2.41653 23.5683C2.83488 23.9807 3.31663 24.3258 3.84255 24.5893C4.35956 24.8491 4.90096 25.0231 5.49916 25.1289C5.94512 25.2079 6.39952 25.248 6.9666 25.2676L7.39158 25.2779C7.61256 25.281 7.93917 25.2827 8.59122 25.2847L17.8378 25.2833C18.0829 25.2816 18.3791 25.2785 18.8315 25.2731C19.4917 25.2556 19.9924 25.2159 20.4832 25.1289C21.0812 25.0231 21.6226 24.8491 22.1402 24.5891C22.6657 24.3255 23.1477 23.9803 23.5656 23.5683C23.9837 23.1561 24.334 22.6807 24.6021 22.1611C24.8664 21.6501 25.0435 21.1144 25.1513 20.5215C25.2317 20.0811 25.2725 19.632 25.2924 19.072L25.2977 18.9005C25.3014 18.7695 25.304 18.635 25.3058 18.4914L25.3101 17.3613L25.3094 8.01422L25.3058 7.50839C25.304 7.36476 25.3014 7.23017 25.2977 7.09883C25.2802 6.45769 25.2397 5.96288 25.1513 5.47766C25.0435 4.88519 24.8665 4.34981 24.6018 3.83809C24.334 3.31876 23.9837 2.84318 23.5653 2.43123C23.1484 2.01975 22.6664 1.67471 22.1398 1.41058C21.6226 1.15075 21.0812 0.976664 20.483 0.870868C20.037 0.791881 19.5826 0.751774 19.0156 0.732226L18.5275 0.721097C18.4887 0.720627 18.4466 0.720194 18.4004 0.719796L8.11106 0.716797Z" fill="#1A1A1A" fill-opacity="0.01"/>
<path fill-rule="evenodd" clip-rule="evenodd" d="M7.1596 1.44961L8.15148 1.43945L18.4718 1.44343C18.6283 1.44502 18.7256 1.44697 18.8229 1.44961C19.3345 1.46316 19.8506 1.49304 20.3566 1.58268C20.8703 1.67352 21.348 1.82214 21.8144 2.05642C22.2727 2.2863 22.6926 2.58671 23.0563 2.94572C23.4201 3.30387 23.7248 3.71745 23.958 4.16965C24.196 4.62984 24.3464 5.10079 24.4385 5.60719C24.5295 6.10601 24.5597 6.61479 24.5735 7.1192C24.58 7.35067 24.5828 7.58217 24.584 7.81404L24.5854 8.22628L24.5856 17.3615C24.5856 17.6365 24.5856 17.9114 24.584 18.1867C24.5828 18.4182 24.58 18.6497 24.5735 18.8811C24.5597 19.3851 24.5295 19.8943 24.4385 20.3927C24.3464 20.8991 24.196 21.3705 23.958 21.8307C23.7248 22.2825 23.4201 22.6961 23.0563 23.0546C22.6926 23.4132 22.2727 23.714 21.8144 23.9439C21.348 24.1782 20.8703 24.3268 20.3566 24.4176C19.8506 24.5073 19.3345 24.5372 18.8229 24.5507L17.2815 24.5627L7.51041 24.5569C7.35392 24.5553 7.25678 24.5534 7.1596 24.5507C6.64795 24.5372 6.13185 24.5073 5.62586 24.4176C5.11222 24.3268 4.63452 24.1782 4.16813 23.9439C3.70942 23.714 3.28991 23.4132 2.92617 23.0546C2.56246 22.6961 2.25771 22.2825 2.02411 21.8307C1.7865 21.3705 1.63613 20.8991 1.54359 20.3927C1.45264 19.8943 1.42275 19.3851 1.40902 18.8811C1.40254 18.6497 1.39971 18.4182 1.39851 18.1867L1.39674 17.7739L1.39648 8.63881C1.39648 8.36387 1.39648 8.08858 1.39851 7.81404C1.39971 7.58217 1.40254 7.35067 1.40902 7.1192C1.42275 6.61479 1.45264 6.10601 1.54359 5.60719C1.63613 5.10079 1.7865 4.62984 2.02411 4.16965C2.25771 3.71745 2.56246 3.30387 2.92617 2.94572C3.28991 2.58671 3.70942 2.2863 4.16813 2.05642C4.63452 1.82214 5.11222 1.67352 5.62586 1.58268C6.13185 1.49304 6.64795 1.46316 7.1596 1.44961Z" fill="#1A1A1A" fill-opacity="0.01"/>
<mask id="mask0_3004_25859" style="mask-type:alpha" maskUnits="userSpaceOnUse" x="1" y="1" width="24" height="24">
<path fill-rule="evenodd" clip-rule="evenodd" d="M7.1596 1.44961L8.15148 1.43945L18.4718 1.44343C18.6283 1.44502 18.7256 1.44697 18.8229 1.44961C19.3345 1.46316 19.8506 1.49304 20.3566 1.58268C20.8703 1.67352 21.348 1.82214 21.8144 2.05642C22.2727 2.2863 22.6926 2.58671 23.0563 2.94572C23.4201 3.30387 23.7248 3.71745 23.958 4.16965C24.196 4.62984 24.3464 5.10079 24.4385 5.60719C24.5295 6.10601 24.5597 6.61479 24.5735 7.1192C24.58 7.35067 24.5828 7.58217 24.584 7.81404L24.5854 8.22628L24.5856 17.3615C24.5856 17.6365 24.5856 17.9114 24.584 18.1867C24.5828 18.4182 24.58 18.6497 24.5735 18.8811C24.5597 19.3851 24.5295 19.8943 24.4385 20.3927C24.3464 20.8991 24.196 21.3705 23.958 21.8307C23.7248 22.2825 23.4201 22.6961 23.0563 23.0546C22.6926 23.4132 22.2727 23.714 21.8144 23.9439C21.348 24.1782 20.8703 24.3268 20.3566 24.4176C19.8506 24.5073 19.3345 24.5372 18.8229 24.5507L17.2815 24.5627L7.51041 24.5569C7.35392 24.5553 7.25678 24.5534 7.1596 24.5507C6.64795 24.5372 6.13185 24.5073 5.62586 24.4176C5.11222 24.3268 4.63452 24.1782 4.16813 23.9439C3.70942 23.714 3.28991 23.4132 2.92617 23.0546C2.56246 22.6961 2.25771 22.2825 2.02411 21.8307C1.7865 21.3705 1.63613 20.8991 1.54359 20.3927C1.45264 19.8943 1.42275 19.3851 1.40902 18.8811C1.40254 18.6497 1.39971 18.4182 1.39851 18.1867L1.39674 17.7739L1.39648 8.63881C1.39648 8.36387 1.39648 8.08858 1.39851 7.81404C1.39971 7.58217 1.40254 7.35067 1.40902 7.1192C1.42275 6.61479 1.45264 6.10601 1.54359 5.60719C1.63613 5.10079 1.7865 4.62984 2.02411 4.16965C2.25771 3.71745 2.56246 3.30387 2.92617 2.94572C3.28991 2.58671 3.70942 2.2863 4.16813 2.05642C4.63452 1.82214 5.11222 1.67352 5.62586 1.58268C6.13185 1.49304 6.64795 1.46316 7.1596 1.44961Z" fill="white"/>
</mask>
<g mask="url(#mask0_3004_25859)">
<path d="M24.5856 1.4375H1.39648V24.5625H24.5856V1.4375Z" fill="#19AA1E"/>
<path fill-rule="evenodd" clip-rule="evenodd" d="M1.39648 1.4375H24.5856V9.02539L1.39648 5.41211V1.4375Z" fill="#FFB919"/>
<path fill-rule="evenodd" clip-rule="evenodd" d="M1.39648 22.0332L24.5856 18.4199V24.5625H1.39648V22.0332Z" fill="#82D714"/>
<path fill-rule="evenodd" clip-rule="evenodd" d="M1.39648 4.95508L9.49083 6.21629C10.4984 5.58025 11.6972 5.23153 12.9911 5.23153C14.7831 5.23153 16.3927 5.90053 17.5647 7.07528C17.7126 7.22353 17.8521 7.37854 17.9829 7.53951L24.5856 8.56832V9.48259L18.6534 8.55828C19.0941 9.40169 19.3318 10.3414 19.3318 11.3004C19.3318 12.5393 19.0539 13.7746 18.4795 15.0148L18.462 15.0524L18.2181 15.5737H17.6412C16.4499 15.5737 15.6597 15.9291 15.1431 16.5588C14.7374 17.0533 14.5029 17.7199 14.424 18.4472L14.4216 18.4699L14.41 18.5861L14.4051 18.6367L14.3957 18.7356C14.3656 19.0603 14.3453 19.3357 14.3351 19.5601L24.5856 17.9629V18.8771L1.39648 22.4904V21.5761L11.6586 19.9771L11.6541 19.7718L11.6527 19.714L11.6518 19.6843L11.6503 19.6385C11.641 19.3896 11.6181 19.0705 11.5815 18.6839L11.5745 18.6106L11.5619 18.4836C11.4883 17.7525 11.2572 17.0774 10.8527 16.5756C10.3414 15.9415 9.55852 15.581 8.37685 15.5738L8.34094 15.5737H7.76404L7.52008 15.0524C6.9338 13.7996 6.65027 12.5519 6.65027 11.3004C6.65027 9.72663 7.29051 8.20483 8.41739 7.07528C8.44993 7.04269 8.48279 7.01046 8.51598 6.97866L1.39648 5.86931V4.95508Z" fill="white"/>
<path fill-rule="evenodd" clip-rule="evenodd" d="M12.9906 6.13477C16.228 6.13477 18.4256 8.61973 18.4256 11.3003C18.4256 12.3765 18.1901 13.4963 17.6407 14.6703C14.4551 14.6703 13.6688 16.9454 13.5201 18.3768L13.5106 18.4722C13.4602 18.9831 13.4311 19.393 13.4231 19.7021L12.5603 19.8365L12.5601 19.8087C12.5568 19.4847 12.5261 19.0303 12.468 18.4454L12.4654 18.4199C12.3281 16.9916 11.5583 14.6703 8.34051 14.6703C7.79111 13.4963 7.55566 12.3765 7.55566 11.3003C7.55566 8.61973 9.7532 6.13477 12.9906 6.13477Z" fill="#0073FA"/>
</g>
<path fill-rule="evenodd" clip-rule="evenodd" d="M35.3106 7.03809C32.4844 7.03809 30.3648 8.75439 30.3829 11.7354H33.0098C32.9736 10.543 33.7345 9.38672 35.3106 9.38672C36.5063 9.38672 37.2672 10.1816 37.2672 11.1934C37.2672 12.2412 36.4338 12.8193 35.0932 13.4697C33.3359 14.3188 32.2852 14.7163 30.3829 15.3486V18.7812H40.1658V16.4326H33.9338C34.8418 16.0551 35.7258 15.6406 36.5244 15.2583C38.6441 14.2466 39.8941 13.1084 39.8941 11.0669C39.8941 8.60986 38.0462 7.03809 35.3106 7.03809ZM44.1515 9.56738H49.2241V7.21875H41.6152V18.7812H44.1515V9.56738ZM53.2097 7.21875H50.6734V18.7812H53.1916L57.92 11.3921V18.7812H60.4563V7.21875H57.92L53.2097 14.6079V7.21875ZM73.1922 14.4453H70.5653C70.1668 15.728 68.953 16.6133 67.5218 16.6133C65.4384 16.6133 64.0796 14.8247 64.0796 13C64.0796 11.1753 65.4021 9.38672 67.5942 9.38672C69.0436 9.38672 70.1668 10.272 70.5653 11.5547H73.1922C72.8118 8.97119 70.7646 7.03809 67.5218 7.03809C63.9347 7.03809 61.5433 9.54932 61.5433 13C61.5433 16.4507 63.9347 18.9619 67.5218 18.9619C70.7646 18.9619 72.8118 17.0649 73.1922 14.4453Z" fill="#1A1A1A"/>
</g>
<defs>
<clipPath id="clip0_3004_25859">
<rect width="73" height="25" fill="white" transform="translate(0.5 0.5)"/>
</clipPath>
</defs>
</svg>
