<svg width="170" height="20" viewBox="0 0 170 20" fill="none" xmlns="http://www.w3.org/2000/svg">
<g clip-path="url(#clip0_3004_25805)">
<path fill-rule="evenodd" clip-rule="evenodd" d="M111.756 9.71552C111.756 5.93849 109.268 3.68282 105.536 3.66602C101.757 3.66602 99.3174 6.15377 99.3174 9.68195C99.3174 13.4758 101.805 15.7322 105.536 15.7322C109.317 15.7322 111.756 13.2414 111.756 9.71552ZM109.568 9.69874C109.568 12.1552 108.024 13.8101 105.553 13.8101V13.8078C102.9 13.791 101.506 11.9865 101.506 9.69874C101.506 7.25904 103.034 5.60416 105.521 5.58735C108.175 5.60416 109.568 7.40868 109.568 9.69874Z" fill="#FF0D65"/>
<path fill-rule="evenodd" clip-rule="evenodd" d="M136.914 9.71552C136.914 5.93849 134.427 3.68282 130.695 3.66602C126.914 3.66602 124.477 6.15377 124.476 9.68195C124.476 13.4758 126.964 15.7322 130.695 15.7322C134.476 15.7322 136.914 13.2414 136.914 9.71552ZM134.727 9.69874C134.727 12.1552 133.183 13.8101 130.712 13.8101L130.712 13.8078C128.059 13.791 126.666 11.9865 126.665 9.69874C126.665 7.25904 128.192 5.60416 130.68 5.58735C133.333 5.60416 134.727 7.40868 134.727 9.69874Z" fill="#FF0D65"/>
<path fill-rule="evenodd" clip-rule="evenodd" d="M139.087 15.5459V3.84766H144.128C146.716 3.84766 148.042 4.81633 148.042 6.75526C148.042 8.09186 147.512 8.97811 146.317 9.44604C147.744 9.69641 148.391 10.6155 148.391 12.136C148.391 14.5597 146.666 15.5459 143.846 15.5459H139.087ZM143.83 8.79411C145.14 8.79411 145.969 8.20944 145.969 7.20635C145.969 6.27053 145.355 5.76899 143.88 5.76899H141.16V8.79411H143.83ZM143.981 13.6238C145.572 13.6238 146.303 13.1055 146.303 11.9857C146.303 10.8659 145.474 10.4315 144.014 10.4315H141.162V13.6238H143.981Z" fill="#FF0D65"/>
<path fill-rule="evenodd" clip-rule="evenodd" d="M154.394 7.49035H152.818V3.84766H150.746V15.5459H154.414C157.797 15.5459 159.621 14.175 159.621 11.4513C159.621 8.81095 158.076 7.49035 154.394 7.49035ZM152.818 13.6238V9.41241H154.577C156.6 9.41241 157.479 9.96362 157.479 11.401C157.479 12.9887 156.484 13.6238 154.543 13.6238H152.818Z" fill="#FF0D65"/>
<path d="M163.864 10.4819H169.205L169.207 8.5598H163.867V5.76899H169.82V3.84766H161.791V15.5459H170V13.6238H163.864V10.4819Z" fill="#FF0D65"/>
<path fill-rule="evenodd" clip-rule="evenodd" d="M115.999 11.9025V15.5459H113.926V3.84766H117.789C121.454 3.84766 123.016 5.16748 123.016 7.80786C123.016 10.5323 121.192 11.9025 117.789 11.9025H115.999ZM115.999 5.76899V9.98035H117.939C119.863 9.98035 120.858 9.34526 120.858 7.75829C120.858 6.32089 119.996 5.76899 117.972 5.76899H115.999Z" fill="#FF0D65"/>
<path fill-rule="evenodd" clip-rule="evenodd" d="M87.5592 13.6238C88.2222 12.036 88.7031 9.82998 88.7535 6.27053L88.7863 3.84766H96.9457V13.6238H98.2887V17.7184H96.3489V15.5459H88.2386V17.7184H86.2988V13.6238H87.5592ZM89.5829 13.6238H94.8723V5.76899H90.6775V6.32089C90.6108 9.37883 90.2434 11.7857 89.5829 13.6238Z" fill="#FF0D65"/>
<path d="M80.3279 3.68066C78.487 3.68066 77.144 4.23182 76.4804 4.71651L76.4786 7.62415C77.1592 6.58821 78.569 5.5692 80.3261 5.602C81.5537 5.63559 82.5154 6.06991 82.5154 7.15615C82.5154 8.0256 82.0012 8.74397 80.5088 8.74397H78.7663V10.4653H80.5246C82.3321 10.4653 83.0953 10.95 83.0953 11.9858C83.0953 13.1729 81.9678 13.7744 80.558 13.7912C78.4178 13.808 76.9091 12.8721 76.1963 11.6851V14.2591C76.8131 14.9606 78.4178 15.7301 80.5246 15.7133C83.6429 15.6965 85.2512 14.1423 85.2512 12.1202C85.2512 10.5821 84.3909 9.64621 82.5998 9.37906C83.9434 8.89433 84.6562 7.99203 84.6562 6.62185C84.6562 4.56616 82.9313 3.69748 80.3279 3.68066Z" fill="#FF0D65"/>
<path d="M31.4816 13.4536C32.2354 13.4578 32.978 13.2713 33.6406 12.9112L34.1948 12.6104L35.813 13.805C34.7453 14.9505 33.1717 15.58 31.369 15.58C29.6456 15.58 28.0705 14.9672 26.9438 13.8634C25.8171 12.7596 25.1963 11.2256 25.1963 9.55898C25.1963 7.89237 25.8262 6.38104 26.9506 5.31672C28.0751 4.25237 29.6494 3.66602 31.3848 3.66602C32.9849 3.66602 34.3839 4.15313 35.4311 5.07506L35.5499 5.17583L33.7562 6.50001C33.0935 6.02519 32.2963 5.77539 31.4816 5.78715C29.2275 5.78715 27.5911 7.39922 27.5911 9.62037C27.5911 11.8415 29.2275 13.4536 31.4816 13.4536Z" fill="#21A038"/>
<path fill-rule="evenodd" clip-rule="evenodd" d="M43.4762 8.34027H40.4333V5.74793H45.2902L47.9082 3.81543H37.9326V15.4249H43.1503C46.079 15.4249 47.7584 14.0954 47.7584 11.778C47.7614 9.56148 46.2392 8.34027 43.4762 8.34027ZM43.0406 13.4916H40.4333V10.2735H43.0406C44.6286 10.2735 45.3666 10.8122 45.3666 11.8826C45.3666 12.9765 44.581 13.4916 43.0406 13.4916Z" fill="#21A038"/>
<path d="M58.8517 3.81543L56.2338 5.74793H52.5905V8.58651H57.9314V10.5198H52.5905V13.4916H58.8517V15.4249H50.0898V3.81543H58.8517Z" fill="#21A038"/>
<path fill-rule="evenodd" clip-rule="evenodd" d="M61.1797 3.81543H65.9506C68.9942 3.81543 70.8837 5.40703 70.8837 7.96985C70.8837 10.5326 68.9924 12.1363 65.9488 12.1363H63.6805V15.4249H61.1797V3.81543ZM63.6805 10.2031H65.8966C67.4988 10.2031 68.3804 9.41221 68.3804 7.97591C68.3804 6.53961 67.4988 5.74793 65.8966 5.74793H63.6805V10.2031Z" fill="#21A038"/>
<path d="M17.2857 3.76855C17.7411 4.36035 18.1306 5.007 18.442 5.69629L9.65005 12.2099L5.97656 9.89525V7.1107L9.65005 9.42531L17.2857 3.76855Z" fill="#21A038"/>
<path d="M2.22925 9.69921C2.22925 9.5743 2.23229 9.45018 2.23835 9.32678L0.012124 9.21484C0.00454669 9.37551 0 9.53703 0 9.69921C0 12.3772 1.07977 14.8023 2.82635 16.5579L4.40471 14.9714C3.062 13.6202 2.22925 11.7557 2.22925 9.69921Z" fill="url(#paint0_linear_3004_25805)"/>
<path d="M9.64956 2.24001C9.77385 2.24001 9.89734 2.24458 10.0201 2.25067L10.1315 0.0121867C9.97159 0.00457017 9.81094 0 9.64956 0C6.98536 0 4.57275 1.08535 2.82617 2.84095L4.40454 4.42747C5.74876 3.0763 7.60367 2.24001 9.64956 2.24001Z" fill="url(#paint1_linear_3004_25805)"/>
<path d="M9.64992 17.1574C9.52564 17.1574 9.40214 17.1544 9.27938 17.1483L9.16797 19.386C9.32783 19.3936 9.48848 19.3982 9.64992 19.3982C12.3141 19.3982 14.7267 18.3128 16.4733 16.5572L14.8949 14.9707C13.5507 16.3204 11.6957 17.1574 9.64992 17.1574Z" fill="url(#paint2_linear_3004_25805)"/>
<path d="M13.8328 3.54167L15.7097 2.15166C14.0533 0.805824 11.9453 0 9.64941 0V2.24078C11.2005 2.24001 12.6409 2.72138 13.8328 3.54167Z" fill="url(#paint3_linear_3004_25805)"/>
<path d="M19.299 9.699C19.299 9.10566 19.2459 8.5253 19.1444 7.96094L17.0674 9.49942C17.0689 9.56573 17.0705 9.63197 17.0705 9.69821C17.0705 11.888 16.1263 13.8606 14.626 15.2263L16.124 16.8905C18.0737 15.1166 19.299 12.5514 19.299 9.699Z" fill="#21A038"/>
<path d="M9.64944 17.1573C7.47095 17.1573 5.50841 16.2083 4.14979 14.7002L2.49414 16.206C4.25966 18.1664 6.81172 19.398 9.64944 19.398V17.1573Z" fill="url(#paint4_linear_3004_25805)"/>
<path d="M4.67371 4.17104L3.17567 2.50684C1.22526 4.28148 0 6.84674 0 9.6991H2.22925C2.23001 7.50862 3.17339 5.53668 4.67371 4.17104Z" fill="url(#paint5_linear_3004_25805)"/>
</g>
<defs>
<linearGradient id="paint0_linear_3004_25805" x1="3.27785" y1="16.277" x2="0.819726" y2="9.20812" gradientUnits="userSpaceOnUse">
<stop offset="0.1444" stop-color="#F2E913"/>
<stop offset="0.3037" stop-color="#E7E518"/>
<stop offset="0.5823" stop-color="#CADB26"/>
<stop offset="0.891" stop-color="#A3CD39"/>
</linearGradient>
<linearGradient id="paint1_linear_3004_25805" x1="3.46328" y1="3.23706" x2="9.74456" y2="0.855702" gradientUnits="userSpaceOnUse">
<stop offset="0.0592" stop-color="#0FA8E0"/>
<stop offset="0.5385" stop-color="#0099F9"/>
<stop offset="0.9234" stop-color="#0291EB"/>
</linearGradient>
<linearGradient id="paint2_linear_3004_25805" x1="9.02086" y1="18.0459" x2="16.1182" y2="16.45" gradientUnits="userSpaceOnUse">
<stop offset="0.1226" stop-color="#A3CD39"/>
<stop offset="0.2846" stop-color="#86C339"/>
<stop offset="0.8693" stop-color="#21A038"/>
</linearGradient>
<linearGradient id="paint3_linear_3004_25805" x1="9.18301" y1="0.750521" x2="15.2535" y2="2.6139" gradientUnits="userSpaceOnUse">
<stop offset="0.0566" stop-color="#0291EB"/>
<stop offset="0.79" stop-color="#0C8ACB"/>
</linearGradient>
<linearGradient id="paint4_linear_3004_25805" x1="3.05329" y1="15.9329" x2="9.66346" y2="18.3899" gradientUnits="userSpaceOnUse">
<stop offset="0.1324" stop-color="#F2E913"/>
<stop offset="0.2977" stop-color="#EBE716"/>
<stop offset="0.5306" stop-color="#D9E01F"/>
<stop offset="0.8023" stop-color="#BBD62D"/>
<stop offset="0.9829" stop-color="#A3CD39"/>
</linearGradient>
<linearGradient id="paint5_linear_3004_25805" x1="0.830826" y1="9.9705" x2="3.50474" y2="3.05042" gradientUnits="userSpaceOnUse">
<stop offset="0.0698" stop-color="#A3CD39"/>
<stop offset="0.2599" stop-color="#81C55F"/>
<stop offset="0.9216" stop-color="#0FA8E0"/>
</linearGradient>
<clipPath id="clip0_3004_25805">
<rect width="170" height="20" fill="white"/>
</clipPath>
</defs>
</svg>
