<svg width="130" height="26" viewBox="0 0 130 26" fill="none" xmlns="http://www.w3.org/2000/svg">
<path d="M0.5 9.07165C0.5 6.07085 0.500001 4.571 1.09246 3.4253C1.61284 2.41727 2.44521 1.59797 3.46795 1.08395C4.63034 0.5 6.15316 0.5 9.19653 0.5H17.1677C20.2123 0.5 21.734 0.5 22.8964 1.08395C23.9191 1.59685 24.7503 2.41727 25.2718 3.4253C25.8643 4.571 25.8643 6.07085 25.8643 9.07165V16.9284C25.8643 19.9291 25.8643 21.429 25.2718 22.5747C24.7515 23.5827 23.9191 24.402 22.8964 24.916C21.734 25.5 20.2111 25.5 17.1677 25.5H9.19653C6.15203 25.5 4.63034 25.5 3.46795 24.916C2.44521 24.4032 1.61397 23.5827 1.09246 22.5747C0.500001 21.429 0.5 19.928 0.5 16.9284V9.07165Z" fill="#FFB401"/>
<path d="M5.17396 4.64022C6.01873 3.57557 7.29376 2.88615 8.94048 2.88615C10.9736 2.88615 12.2485 3.78095 13.1845 4.64577C14.1206 3.77984 15.3956 2.88615 17.4287 2.88615C19.0755 2.88615 20.3493 3.57668 21.1953 4.64022C22.0241 5.6849 22.4127 7.05041 22.4127 8.40593C22.4127 11.6587 19.7861 14.0634 17.218 15.8952L13.7219 18.4541C13.0832 18.9215 12.921 19.7952 13.3501 20.4547C13.8187 21.1763 14.8077 21.3605 15.5116 20.8565L18.7893 18.513L19.6576 19.693L16.38 22.0366C14.9879 23.0325 13.0325 22.6684 12.1044 21.2407C11.2563 19.9362 11.5773 18.2065 12.8388 17.2828L16.3417 14.7184L16.3451 14.7151C18.9312 12.871 20.9317 10.8561 20.9317 8.40482C20.9317 7.30465 20.6141 6.27552 20.0283 5.53725C19.4583 4.81897 18.6102 4.3427 17.4275 4.3427C15.6265 4.3427 14.6522 5.2386 13.7106 6.17893C13.572 6.3177 13.3817 6.39652 13.1834 6.39652C12.9852 6.39652 12.796 6.3188 12.6563 6.17893C11.7147 5.2375 10.7404 4.3427 8.93936 4.3427C7.75669 4.3427 6.90855 4.82007 6.33861 5.53725C5.75291 6.2744 5.43528 7.30465 5.43528 8.40482C5.43528 10.7828 7.36133 13.0187 9.8314 14.7062C10.1671 14.9359 10.2505 15.39 10.0184 15.7209C9.78521 16.0517 9.32452 16.1339 8.98891 15.9052C6.42985 14.1566 3.95638 11.5399 3.95638 8.40482C3.95638 7.05041 4.34498 5.6849 5.17396 4.64022Z" fill="white"/>
<path d="M10.4435 7.53485C10.4435 7.47713 10.4908 7.4305 10.5493 7.4305H11.8176C11.8762 7.4305 11.9235 7.47713 11.9235 7.53485V9.48655C11.9235 9.54422 11.9708 9.59086 12.0294 9.59086H14.3395C14.3981 9.59086 14.4454 9.54422 14.4454 9.48655V7.53485C14.4454 7.47713 14.4927 7.4305 14.5513 7.4305H15.8195C15.8781 7.4305 15.9254 7.47713 15.9254 7.53485V13.1057C15.9254 13.1634 15.8781 13.2101 15.8195 13.2101H14.5513C14.4927 13.2101 14.4454 13.1634 14.4454 13.1057V11.1541C14.4454 11.0963 14.3981 11.0497 14.3395 11.0497H12.0294C11.9708 11.0497 11.9235 11.0963 11.9235 11.1541V13.1057C11.9235 13.1634 11.8762 13.2101 11.8176 13.2101H10.5493C10.4908 13.2101 10.4435 13.1634 10.4435 13.1057V7.53485Z" fill="white"/>
<path d="M20.9482 16.9598C20.4707 16.9598 20.0843 17.3416 20.0843 17.8113C20.0843 18.282 20.4717 18.6628 20.9482 18.6628C21.4247 18.6628 21.8121 18.281 21.8121 17.8113C21.8121 17.3407 21.4257 16.9598 20.9482 16.9598ZM18.6042 17.8113C18.6042 16.5358 19.6541 15.501 20.9482 15.501C22.2424 15.501 23.2922 16.5358 23.2922 17.8113C23.2922 19.088 22.2424 20.1216 20.9482 20.1216C19.6541 20.1216 18.6042 19.088 18.6042 17.8113Z" fill="white"/>
<path d="M32.3351 17.6045V7.0232H33.5464V11.7241H39.7432V7.0232H40.9546V17.6045H39.7432V12.8414H33.5464V17.6045H32.3351Z" fill="#707070"/>
<path d="M46.1541 17.7709C45.3465 17.7709 44.6505 17.5552 44.0689 17.121C43.4859 16.6883 43.1937 16.0833 43.1937 15.3061C43.1937 14.4898 43.5007 13.8603 44.1144 13.4159C44.7282 12.9731 45.5505 12.7502 46.5842 12.7502C47.4021 12.7502 48.2098 12.8616 49.0086 13.0831V12.8414C49.0086 12.1568 48.8045 11.6314 48.3947 11.2696C47.985 10.9078 47.4081 10.7254 46.6607 10.7254C45.8824 10.7254 45.0806 10.9121 44.2524 11.2855L43.9 10.3332C44.8809 9.89026 45.8428 9.66741 46.7839 9.66741C47.9087 9.66741 48.7618 9.95543 49.3463 10.53C49.8983 11.0742 50.1745 11.8398 50.1745 12.8284V17.6059H49.0086V16.4422C48.3023 17.328 47.3508 17.7709 46.1541 17.7709ZM46.3845 16.8345C47.1216 16.8345 47.7442 16.6377 48.2567 16.2454C48.7678 15.8517 49.0233 15.3481 49.0233 14.7344V14.0078C48.2464 13.7865 47.4742 13.675 46.7077 13.675C45.9808 13.675 45.4139 13.8183 45.0057 14.1063C44.596 14.3928 44.3919 14.7836 44.3919 15.2786C44.3919 15.7534 44.5843 16.1311 44.9675 16.4119C45.3493 16.6927 45.8222 16.8345 46.3845 16.8345Z" fill="#707070"/>
<path d="M52.6427 17.6045V7.0232H61.5999V17.6045H59.2373V9.12328H55.0053V17.6045H52.6427Z" fill="#707070"/>
<path d="M71.1491 16.5609C70.2944 17.3772 69.2343 17.7853 67.9655 17.7853C66.6968 17.7853 65.641 17.3787 64.7982 16.5682C63.9539 15.7578 63.5324 14.7562 63.5324 13.5679C63.5324 12.3884 63.9598 11.3912 64.8129 10.5734C65.6675 9.75578 66.7277 9.34905 67.9963 9.34905C69.265 9.34905 70.3209 9.75431 71.1636 10.5662C72.0065 11.3767 72.4295 12.3768 72.4295 13.5665C72.4295 14.7475 72.0022 15.7447 71.1491 16.5609ZM67.9963 15.8054C68.641 15.8054 69.1564 15.5913 69.5455 15.1628C69.9331 14.7345 70.1284 14.2033 70.1284 13.5679C70.1284 12.9528 69.9274 12.426 69.5221 11.9875C69.1182 11.549 68.5998 11.3304 67.9655 11.3304C67.3209 11.3304 66.8039 11.5447 66.4165 11.973C66.0272 12.4014 65.8334 12.9326 65.8334 13.5679C65.8334 14.183 66.0346 14.7098 66.4399 15.1484C66.8437 15.5855 67.362 15.8054 67.9963 15.8054Z" fill="#707070"/>
<path d="M81.5866 9.50095V17.6045H79.2548V11.4664H76.4471V17.6045H74.1169V9.50095H81.5866Z" fill="#707070"/>
<path d="M83.6716 20.0243V9.50103H86.0019V10.6647C86.6568 9.78759 87.5101 9.34905 88.5646 9.34905C89.5882 9.34905 90.4655 9.72681 91.2026 10.4822C91.9398 11.2378 92.307 12.2653 92.307 13.5665C92.307 14.856 91.9415 15.8778 91.2104 16.6276C90.4792 17.3772 89.5968 17.7535 88.5646 17.7535C87.5419 17.7535 86.6878 17.3512 86.0019 16.5451V20.0215L83.6716 20.0243ZM86.5485 15.1788C86.9312 15.5971 87.4043 15.8054 87.9668 15.8054C88.5293 15.8054 89.005 15.5971 89.392 15.1788C89.7817 14.7605 89.9752 14.2134 89.9752 13.539C89.9752 12.8848 89.7817 12.3478 89.392 11.9296C89.0033 11.5113 88.5293 11.3015 87.9668 11.3015C87.4043 11.3015 86.9312 11.5098 86.5485 11.9296C86.1649 12.3478 85.9725 12.8949 85.9725 13.5694C85.9725 14.2235 86.1649 14.7605 86.5485 15.1788Z" fill="#707070"/>
<path d="M96.3565 17.7563C95.5489 17.7563 94.8762 17.535 94.3395 17.0906C93.8028 16.6478 93.5327 16.0327 93.5327 15.2467C93.5327 14.3899 93.8329 13.7444 94.4298 13.3117C95.0276 12.879 95.8336 12.6618 96.8468 12.6618C97.5315 12.6618 98.2024 12.7733 98.8561 12.9947V12.8587C98.8561 11.8716 98.2686 11.3766 97.0919 11.3766C96.3858 11.3766 95.6297 11.5228 94.8221 11.8152L94.2397 10.061C95.2427 9.62828 96.3058 9.41121 97.43 9.41121C98.6677 9.41121 99.5932 9.71371 100.207 10.3187C100.8 10.9034 101.097 11.7645 101.097 12.9035V17.6059H98.8423V16.7288C98.217 17.4134 97.3887 17.7563 96.3565 17.7563ZM97.0618 16.1687C97.6037 16.1687 98.0424 16.0355 98.3804 15.7678C98.7176 15.5015 98.887 15.1614 98.887 14.7474V14.3393C98.4475 14.1381 97.9512 14.0383 97.3981 14.0383C96.8872 14.0383 96.4907 14.1366 96.2094 14.3321C95.9282 14.5289 95.7871 14.814 95.7871 15.1859C95.7871 15.4884 95.9041 15.7272 96.1389 15.9038C96.3772 16.0818 96.6842 16.1687 97.0618 16.1687Z" fill="#707070"/>
<path d="M103.106 9.50095H107.615C108.453 9.50095 109.12 9.68336 109.616 10.0452C110.113 10.407 110.361 10.902 110.361 11.5272C110.361 12.3739 109.927 12.9832 109.057 13.3566C110.131 13.6793 110.668 14.3596 110.668 15.3972C110.668 16.0819 110.395 16.6217 109.847 17.0153C109.301 17.409 108.551 17.6045 107.6 17.6045H103.106V9.50095ZM107.047 12.7516C107.364 12.7516 107.608 12.6764 107.776 12.5244C107.944 12.3739 108.029 12.1771 108.029 11.9353C108.029 11.7241 107.949 11.5475 107.79 11.4071C107.631 11.2667 107.394 11.1958 107.076 11.1958H105.405V12.7516H107.047ZM105.407 15.8054H107.247C107.953 15.8054 108.305 15.5334 108.305 14.9891C108.305 14.4653 107.932 14.2033 107.185 14.2033H105.405L105.407 15.8054Z" fill="#707070"/>
<path d="M112.309 17.6045V9.50095H114.64V12.8269L117.585 9.50095H120.27L117.247 12.8269L120.653 17.6045H117.891L115.699 14.5203L114.64 15.6549V17.6045H112.309Z" fill="#707070"/>
<path d="M123.643 20.0691C122.905 20.0691 122.216 19.8825 121.572 19.509L122.355 17.8462C122.713 18.0575 123.045 18.1632 123.352 18.1632C123.72 18.1632 123.99 17.9865 124.164 17.6348L120.942 9.50095H123.412L125.283 15.0196L127.077 9.50095H129.5L126.34 17.8013C126.022 18.6378 125.666 19.2253 125.266 19.5627C124.87 19.8998 124.328 20.0691 123.643 20.0691Z" fill="#707070"/>
</svg>
