<svg width="98" height="26" viewBox="0 0 98 26" fill="none" xmlns="http://www.w3.org/2000/svg">
<path fill-rule="evenodd" clip-rule="evenodd" d="M31.9575 19.9169C37.3204 19.9169 41.6395 15.5499 41.6395 10.2085C41.6395 4.83091 37.2844 0.5 31.9575 0.5C26.6306 0.5 22.2755 4.83091 22.2755 10.1724C22.2755 15.5499 26.5946 19.9169 31.9575 19.9169ZM31.9575 15.4777C34.8729 15.4777 37.2124 13.0957 37.2124 10.2085C37.2124 7.28509 34.8369 4.93918 31.9575 4.93918C29.0421 4.93918 26.7026 7.32118 26.7026 10.2085C26.7026 13.0957 29.0421 15.4777 31.9575 15.4777Z" fill="#13A546"/>
<path fill-rule="evenodd" clip-rule="evenodd" d="M36.6365 19.6282L40.9916 24.717C41.7835 25.6554 43.1872 25.7636 44.123 24.9696C45.0588 24.1756 45.1668 22.7681 44.375 21.8297L40.1278 16.8492C39.192 18.0041 38.0043 18.9425 36.6365 19.6282Z" fill="#13A546"/>
<path d="M61.0035 16.6687C61.0035 17.3184 60.7876 17.8597 60.3917 18.2567C59.9597 18.6898 59.4558 18.8703 58.844 18.8703C58.1601 18.8703 57.5842 18.6176 57.1523 18.1124L52.2213 12.1935L50.1338 14.1424V16.6326C50.1338 17.2462 49.9178 17.7515 49.4859 18.1846C49.054 18.6176 48.5141 18.8342 47.9382 18.8342C47.3623 18.8342 46.8224 18.6176 46.3905 18.1846C45.9586 17.7515 45.7787 17.2101 45.7787 16.6326V3.85646C45.7787 3.24291 45.9946 2.73764 46.3905 2.30455C46.8224 1.87145 47.3623 1.65491 47.9742 1.65491C48.5861 1.65491 49.09 1.87145 49.4859 2.30455C49.9178 2.73764 50.1338 3.279 50.1338 3.85646V9.27009L57.0803 2.19627C57.4762 1.79927 57.9442 1.61882 58.52 1.61882C59.0959 1.61882 59.5998 1.83536 59.9597 2.23236C60.3557 2.62936 60.5356 3.09855 60.5356 3.676C60.5356 4.25346 60.3557 4.75873 59.9597 5.11964L55.4247 9.59491L60.5716 15.3334C60.8596 15.6221 61.0035 16.0913 61.0035 16.6687Z" fill="#2C2B67"/>
<path d="M69.1378 16.6687V5.73318H66.1505C65.6106 5.73318 65.1427 5.55273 64.7467 5.19182C64.3868 4.83091 64.2069 4.36173 64.2069 3.82036C64.2069 3.279 64.3868 2.84591 64.7467 2.44891C65.1427 2.05191 65.6106 1.87145 66.1505 1.87145H76.5883C77.1282 1.87145 77.5601 2.05191 77.956 2.44891C78.3519 2.80982 78.5319 3.279 78.5319 3.82036C78.5319 4.32564 78.3519 4.79482 77.956 5.19182C77.5961 5.55273 77.1282 5.73318 76.5883 5.73318H73.5649V16.7048C73.5649 17.3184 73.349 17.8236 72.9171 18.2567C72.4852 18.6898 71.9453 18.9064 71.3694 18.9064C70.7575 18.9064 70.2536 18.6898 69.8217 18.2567C69.3898 17.8236 69.1378 17.2823 69.1378 16.6687Z" fill="#2C2B67"/>
<path d="M83.8948 21.5771L84.1108 21.541C85.2625 21.5049 86.0184 21.1079 86.4143 20.3139L87.0262 18.8703L81.2673 4.57827C81.1594 4.39782 81.1234 4.10909 81.1234 3.78427C81.1234 3.17073 81.3393 2.66546 81.7352 2.26846C82.1672 1.83536 82.6711 1.61882 83.2469 1.61882C84.2907 1.61882 84.9746 2.088 85.2625 2.99027L89.2937 13.7093L93.2889 2.99027C93.6488 2.088 94.3326 1.61882 95.3404 1.61882C95.9523 1.61882 96.4922 1.83536 96.8881 2.26846C97.32 2.70155 97.5 3.20682 97.5 3.78427C97.5 4.03691 97.428 4.32564 97.32 4.61437L90.5174 21.3966C89.4737 24.0674 87.4581 25.4388 84.4347 25.4749C84.1827 25.4749 84.0028 25.4749 83.9668 25.4388C83.3909 25.4027 82.923 25.2223 82.5271 24.8614C82.1312 24.5005 81.9872 24.0313 81.9872 23.4538C81.9872 22.9125 82.1672 22.4794 82.5271 22.1185C82.959 21.7936 83.3909 21.6132 83.8948 21.5771Z" fill="#2C2B67"/>
<path d="M19.684 17.1018V21.144C19.684 21.6854 19.5041 22.1185 19.1442 22.5155C18.7842 22.9125 18.3163 23.0568 17.7764 23.0568C17.2365 23.0568 16.7686 22.8764 16.3727 22.5155C16.0128 22.1546 15.8328 21.6854 15.8328 21.144V18.6176H4.35121V21.144C4.35121 21.6854 4.17124 22.1185 3.81132 22.5155C3.45139 22.9125 2.98349 23.0568 2.4436 23.0568C1.90371 23.0568 1.43581 22.8764 1.03989 22.5155C0.679963 22.1546 0.5 21.6854 0.5 21.144V17.7515C0.5 16.0913 1.03989 15.1529 2.08367 14.8642C3.01948 13.1318 3.70334 10.1363 4.09926 5.87755L4.24323 4.25346C4.31521 3.49555 4.56716 2.91809 5.03506 2.52109C5.50297 2.088 6.07885 1.87145 6.7987 1.87145H15.185C16.0128 1.87145 16.6607 2.088 17.0926 2.55718C17.5605 2.99027 17.7764 3.63991 17.7764 4.47V14.8281C19.0722 14.9364 19.684 15.6943 19.684 17.1018ZM13.4213 14.7559V5.69709H8.02245L7.91447 7.17682C7.69851 10.7859 7.12263 13.3123 6.22282 14.7559H13.4213Z" fill="#2C2B67"/>
</svg>
