<svg width="164" height="26" viewBox="0 0 164 26" fill="none" xmlns="http://www.w3.org/2000/svg">
<g clip-path="url(#clip0_3004_25742)">
<path d="M9.18416 8.60095H2.92457V19.2054H0V5.88574H12.1087V19.2054H9.18416V8.60095Z" fill="#FF4A37"/>
<path d="M14.9551 5.8855H17.8797V7.34554C18.4783 6.78202 19.1196 6.34657 19.8037 6.03919C20.4878 5.73181 21.2574 5.57812 22.1126 5.57812C23.0703 5.57812 23.9512 5.75743 24.755 6.11603C25.576 6.45756 26.2771 6.94424 26.8586 7.57608C27.4401 8.19083 27.8934 8.92516 28.2183 9.77891C28.5433 10.6157 28.7057 11.5293 28.7057 12.5197C28.7057 13.5443 28.5262 14.4835 28.167 15.3373C27.8249 16.1741 27.3546 16.8998 26.756 17.5146C26.1575 18.1123 25.4391 18.5819 24.6011 18.9234C23.7802 19.2649 22.8993 19.4357 21.9587 19.4357C21.1206 19.4357 20.3681 19.3077 19.7011 19.0515C19.0341 18.7953 18.427 18.4367 17.8797 17.9757V24.3281H14.9551V5.8855ZM21.5226 16.7205C22.1041 16.7205 22.6428 16.6266 23.1388 16.4388C23.6518 16.2509 24.0965 15.9777 24.4728 15.6191C24.849 15.2434 25.1398 14.7995 25.345 14.2871C25.5674 13.7577 25.6786 13.1601 25.6786 12.4941C25.6786 11.8794 25.5845 11.3159 25.3963 10.8035C25.2082 10.2741 24.9346 9.83016 24.5754 9.47156C24.2333 9.09586 23.8229 8.80555 23.344 8.6007C22.8651 8.39578 22.3349 8.29329 21.7534 8.29329C20.8641 8.29329 20.0773 8.50672 19.3932 8.93367C18.7262 9.36055 18.2217 9.87289 17.8797 10.4705V14.5177C18.2217 15.2349 18.7091 15.7813 19.3419 16.157C19.9747 16.5327 20.7016 16.7205 21.5226 16.7205Z" fill="#FF4A37"/>
<path d="M30.2246 12.5197C30.2246 11.5122 30.3956 10.5901 30.7377 9.75336C31.0798 8.89953 31.5672 8.16521 32.2 7.55046C32.8328 6.9357 33.5854 6.45756 34.4576 6.11603C35.3299 5.75743 36.2961 5.57812 37.3565 5.57812C38.3998 5.57812 39.3575 5.75743 40.2298 6.11603C41.1191 6.45756 41.8802 6.9357 42.513 7.55046C43.1458 8.16521 43.6333 8.89953 43.9753 9.75336C44.3345 10.5901 44.514 11.5122 44.514 12.5197C44.514 13.5273 44.3345 14.4579 43.9753 15.3117C43.6333 16.1485 43.1458 16.8742 42.513 17.489C41.8802 18.1038 41.1191 18.5819 40.2298 18.9234C39.3575 19.2649 38.3998 19.4357 37.3565 19.4357C36.3132 19.4357 35.3555 19.2649 34.4832 18.9234C33.611 18.5819 32.8585 18.1038 32.2256 17.489C31.5928 16.8742 31.0969 16.1485 30.7377 15.3117C30.3956 14.4579 30.2246 13.5273 30.2246 12.5197ZM33.2518 12.5197C33.2518 13.1174 33.3459 13.6724 33.5341 14.1847C33.7393 14.697 34.0214 15.1409 34.3806 15.5166C34.7398 15.8923 35.1673 16.1912 35.6633 16.4132C36.1764 16.618 36.7408 16.7205 37.3565 16.7205C37.9722 16.7205 38.528 16.6266 39.024 16.4388C39.5371 16.2338 39.9732 15.9521 40.3324 15.5935C40.6916 15.2178 40.9737 14.7738 41.179 14.2616C41.3842 13.7492 41.4868 13.1686 41.4868 12.5197C41.4868 11.8708 41.3757 11.2902 41.1533 10.7779C40.9481 10.2485 40.6574 9.80453 40.2811 9.44594C39.9048 9.07023 39.4687 8.78852 38.9727 8.6007C38.4767 8.39578 37.938 8.29329 37.3565 8.29329C36.775 8.29329 36.2277 8.39578 35.7146 8.6007C35.2186 8.78852 34.7826 9.07023 34.4063 9.44594C34.0471 9.80453 33.7649 10.2485 33.5597 10.7779C33.3544 11.2902 33.2518 11.8708 33.2518 12.5197Z" fill="#FF4A37"/>
<path d="M45.2949 16.4902H46.8393C47.44 15.7218 47.8432 14.8424 48.0492 13.852C48.2551 12.8615 48.3581 11.743 48.3581 10.4964V5.88574H59.1176V16.4902H60.9967V22.2536H58.2682V19.2054H48.0234V22.2536H45.2949V16.4902ZM56.1832 16.4902V8.60095H51.138V12.0077C51.138 12.8274 51.0265 13.647 50.8034 14.4666C50.5803 15.2693 50.2715 15.9438 49.8768 16.4902H56.1832Z" fill="#3981F1"/>
<path d="M61.5928 12.5197C61.5928 11.5122 61.7644 10.5901 62.1076 9.75336C62.4507 8.89953 62.9398 8.16521 63.5748 7.55046C64.2097 6.9357 64.9648 6.45756 65.8399 6.11603C66.7151 5.75743 67.6847 5.57812 68.7486 5.57812C69.7954 5.57812 70.7564 5.75743 71.6315 6.11603C72.5239 6.45756 73.2875 6.9357 73.9225 7.55046C74.5574 8.16521 75.0465 8.89953 75.3896 9.75336C75.75 10.5901 75.9302 11.5122 75.9302 12.5197C75.9302 13.5273 75.75 14.4579 75.3896 15.3117C75.0465 16.1485 74.5574 16.8742 73.9225 17.489C73.2875 18.1038 72.5239 18.5819 71.6315 18.9234C70.7564 19.2649 69.7954 19.4357 68.7486 19.4357C67.7019 19.4357 66.7408 19.2649 65.8657 18.9234C64.9905 18.5819 64.2354 18.1038 63.6005 17.489C62.9655 16.8742 62.4679 16.1485 62.1076 15.3117C61.7644 14.4579 61.5928 13.5273 61.5928 12.5197ZM64.6301 12.5197C64.6301 13.1174 64.7245 13.6724 64.9132 14.1847C65.1192 14.697 65.4023 15.1409 65.7627 15.5166C66.1231 15.8923 66.5521 16.1912 67.0498 16.4132C67.5646 16.618 68.1308 16.7205 68.7486 16.7205C69.3664 16.7205 69.924 16.6266 70.4218 16.4388C70.9366 16.2338 71.3741 15.9521 71.7345 15.5935C72.0949 15.2178 72.378 14.7738 72.584 14.2616C72.7898 13.7492 72.8928 13.1686 72.8928 12.5197C72.8928 11.8708 72.7813 11.2902 72.5582 10.7779C72.3523 10.2485 72.0606 9.80453 71.683 9.44594C71.3055 9.07023 70.8679 8.78852 70.3703 8.6007C69.8726 8.39578 69.3321 8.29329 68.7486 8.29329C68.1652 8.29329 67.616 8.39578 67.1012 8.6007C66.6036 8.78852 66.166 9.07023 65.7884 9.44594C65.4281 9.80453 65.1449 10.2485 64.939 10.7779C64.7331 11.2902 64.6301 11.8708 64.6301 12.5197Z" fill="#3981F1"/>
<path d="M77.7461 5.88574H80.6804V11.2905L86.472 5.88574H90.3072L83.7949 11.9052L90.5392 19.2054H86.7812L81.659 13.7238L80.6804 14.6716V19.2054H77.7461V5.88574Z" fill="#3981F1"/>
<path d="M91.4648 5.88574H104.078V8.60095H99.2384V19.2054H96.3044V8.60095H91.4648V5.88574Z" fill="#3981F1"/>
<path d="M104.72 12.5197C104.72 11.5122 104.892 10.5901 105.235 9.75336C105.578 8.89953 106.067 8.16521 106.702 7.55046C107.337 6.9357 108.092 6.45756 108.967 6.11603C109.842 5.75743 110.812 5.57812 111.876 5.57812C112.923 5.57812 113.883 5.75743 114.759 6.11603C115.652 6.45756 116.414 6.9357 117.049 7.55046C117.684 8.16521 118.174 8.89953 118.517 9.75336C118.878 10.5901 119.057 11.5122 119.057 12.5197C119.057 13.5273 118.878 14.4579 118.517 15.3117C118.174 16.1485 117.684 16.8742 117.049 17.489C116.414 18.1038 115.652 18.5819 114.759 18.9234C113.883 19.2649 112.923 19.4357 111.876 19.4357C110.829 19.4357 109.868 19.2649 108.993 18.9234C108.118 18.5819 107.362 18.1038 106.728 17.489C106.093 16.8742 105.595 16.1485 105.235 15.3117C104.892 14.4579 104.72 13.5273 104.72 12.5197ZM107.758 12.5197C107.758 13.1174 107.852 13.6724 108.04 14.1847C108.247 14.697 108.529 15.1409 108.89 15.5166C109.25 15.8923 109.68 16.1912 110.177 16.4132C110.692 16.618 111.258 16.7205 111.876 16.7205C112.493 16.7205 113.052 16.6266 113.549 16.4388C114.064 16.2338 114.501 15.9521 114.862 15.5935C115.222 15.2178 115.505 14.7738 115.711 14.2616C115.917 13.7492 116.02 13.1686 116.02 12.5197C116.02 11.8708 115.908 11.2902 115.685 10.7779C115.48 10.2485 115.188 9.80453 114.81 9.44594C114.432 9.07023 113.995 8.78852 113.498 8.6007C113 8.39578 112.459 8.29329 111.876 8.29329C111.292 8.29329 110.743 8.39578 110.229 8.6007C109.731 8.78852 109.293 9.07023 108.916 9.44594C108.555 9.80453 108.272 10.2485 108.066 10.7779C107.861 11.2902 107.758 11.8708 107.758 12.5197Z" fill="#3981F1"/>
<path d="M120.85 5.8855H123.784V7.34554C124.384 6.78202 125.028 6.34657 125.714 6.03919C126.401 5.73181 127.173 5.57812 128.031 5.57812C128.992 5.57812 129.876 5.75743 130.683 6.11603C131.506 6.45756 132.209 6.94424 132.793 7.57608C133.376 8.19083 133.831 8.92516 134.157 9.77891C134.483 10.6157 134.646 11.5293 134.646 12.5197C134.646 13.5443 134.466 14.4835 134.105 15.3373C133.763 16.1741 133.291 16.8998 132.69 17.5146C132.089 18.1123 131.368 18.5819 130.528 18.9234C129.704 19.2649 128.82 19.4357 127.877 19.4357C127.036 19.4357 126.28 19.3077 125.611 19.0515C124.942 18.7953 124.333 18.4367 123.784 17.9757V24.3281H120.85V5.8855ZM127.439 16.7205C128.023 16.7205 128.563 16.6266 129.061 16.4388C129.575 16.2509 130.022 15.9777 130.399 15.6191C130.776 15.2434 131.068 14.7995 131.275 14.2871C131.497 13.7577 131.609 13.1601 131.609 12.4941C131.609 11.8794 131.514 11.3159 131.326 10.8035C131.137 10.2741 130.862 9.83016 130.502 9.47156C130.159 9.09586 129.747 8.80555 129.267 8.6007C128.786 8.39578 128.254 8.29329 127.67 8.29329C126.779 8.29329 125.989 8.50672 125.303 8.93367C124.633 9.36055 124.127 9.87289 123.784 10.4705V14.5177C124.127 15.2349 124.616 15.7813 125.251 16.157C125.886 16.5327 126.615 16.7205 127.439 16.7205Z" fill="#3981F1"/>
<path d="M136.102 12.5197C136.102 11.5122 136.273 10.5901 136.616 9.75336C136.96 8.89953 137.449 8.16521 138.084 7.55046C138.719 6.9357 139.474 6.45756 140.348 6.11603C141.224 5.75743 142.194 5.57812 143.257 5.57812C144.304 5.57812 145.265 5.75743 146.141 6.11603C147.033 6.45756 147.796 6.9357 148.431 7.55046C149.066 8.16521 149.555 8.89953 149.899 9.75336C150.259 10.5901 150.439 11.5122 150.439 12.5197C150.439 13.5273 150.259 14.4579 149.899 15.3117C149.555 16.1485 149.066 16.8742 148.431 17.489C147.796 18.1038 147.033 18.5819 146.141 18.9234C145.265 19.2649 144.304 19.4357 143.257 19.4357C142.211 19.4357 141.25 19.2649 140.374 18.9234C139.499 18.5819 138.744 18.1038 138.109 17.489C137.474 16.8742 136.977 16.1485 136.616 15.3117C136.273 14.4579 136.102 13.5273 136.102 12.5197ZM139.139 12.5197C139.139 13.1174 139.233 13.6724 139.422 14.1847C139.628 14.697 139.911 15.1409 140.272 15.5166C140.632 15.8923 141.061 16.1912 141.559 16.4132C142.074 16.618 142.64 16.7205 143.257 16.7205C143.875 16.7205 144.433 16.6266 144.93 16.4388C145.446 16.2338 145.883 15.9521 146.243 15.5935C146.604 15.2178 146.887 14.7738 147.093 14.2616C147.299 13.7492 147.402 13.1686 147.402 12.5197C147.402 11.8708 147.29 11.2902 147.067 10.7779C146.861 10.2485 146.569 9.80453 146.191 9.44594C145.814 9.07023 145.377 8.78852 144.879 8.6007C144.381 8.39578 143.841 8.29329 143.257 8.29329C142.674 8.29329 142.125 8.39578 141.61 8.6007C141.112 8.78852 140.675 9.07023 140.298 9.44594C139.937 9.80453 139.654 10.2485 139.448 10.7779C139.242 11.2902 139.139 11.8708 139.139 12.5197Z" fill="#3981F1"/>
<path d="M152.263 5.88574H157.977C159.847 5.88574 161.255 6.15043 162.199 6.6798C163.142 7.20917 163.615 8.12277 163.615 9.42056C163.615 10.0353 163.477 10.5562 163.202 10.9831C162.928 11.41 162.567 11.7942 162.121 12.1357C162.756 12.3749 163.228 12.7761 163.537 13.3396C163.846 13.8861 164 14.5179 164 15.2352C164 16.5671 163.529 17.5661 162.585 18.232C161.641 18.8809 160.311 19.2054 158.595 19.2054H152.263V5.88574ZM155.198 13.6982V16.5671H158.312C159.187 16.5671 159.847 16.4561 160.294 16.2341C160.74 16.0121 160.963 15.6535 160.963 15.1583C160.963 14.6289 160.749 14.2532 160.32 14.0313C159.907 13.8092 159.264 13.6982 158.389 13.6982H155.198ZM155.198 8.52407V11.1624H158.646C159.247 11.1624 159.719 11.0514 160.062 10.8294C160.406 10.6074 160.577 10.2659 160.577 9.80477C160.577 9.25837 160.346 8.90829 159.882 8.75462C159.436 8.60095 158.775 8.52407 157.9 8.52407H155.198Z" fill="#3981F1"/>
</g>
<defs>
<clipPath id="clip0_3004_25742">
<rect width="164" height="25" fill="white" transform="translate(0 0.5)"/>
</clipPath>
</defs>
</svg>
