<svg width="100" height="26" viewBox="0 0 100 26" fill="none" xmlns="http://www.w3.org/2000/svg">
<path d="M56.9407 15.6074C56.9407 16.2385 57.3942 16.5532 58.1453 16.5532C59.0664 16.5532 59.5642 15.9222 59.5642 15.1029V14.6102H58.2613C57.5106 14.6102 56.9407 14.9932 56.9407 15.6074Z" fill="#5087CE"/>
<path d="M82.7111 11.9123C81.4999 11.9123 80.988 12.9016 80.988 14.0622C80.988 15.2393 81.4999 16.2632 82.7111 16.2632C83.9737 16.2632 84.4343 15.2393 84.4343 14.0622C84.4343 12.9016 83.9737 11.9123 82.7111 11.9123Z" fill="#5087CE"/>
<path d="M0 25.5H25.0002V0.5H0V25.5ZM18.1057 18.606C15.0115 21.7002 10.022 21.7112 6.91288 18.6232V18.6248C6.90661 18.6185 6.90073 18.6119 6.89446 18.6056C6.88818 18.5993 6.88152 18.5938 6.87525 18.5872H6.87682C3.78884 15.4781 3.79981 10.4886 6.89406 7.3944C9.98832 4.30017 14.9778 4.2892 18.0869 7.37716V7.37559C18.0932 7.38186 18.0991 7.38852 18.1053 7.3948C18.1116 7.40107 18.1183 7.40695 18.1246 7.41322H18.123C21.211 10.5223 21.2 15.5118 18.1057 18.606Z" fill="#1F242B"/>
<path d="M6.91288 13.0572V18.5872H12.4429C15.581 18.5872 18.0873 16.0809 18.0873 12.9432V7.41322H12.5569C9.41917 7.41322 6.91288 9.9191 6.91288 13.0572ZM14.9107 15.4106C13.5792 16.7422 11.4206 16.7422 10.0894 15.4106C8.75791 14.0795 8.75791 11.9209 10.0894 10.5894C11.4206 9.25824 13.5792 9.25824 14.9107 10.5894C16.2419 11.9209 16.2419 14.0795 14.9107 15.4106Z" fill="#1F242B"/>
<path d="M24.9998 25.5H100V0.5H24.9998V25.5ZM48.9581 9.68587H43.1816V11.8637H47.6325V14.6102H43.1816V18.4927H40.1512V9.59102H39.058C38.5461 9.59102 38.0001 9.8944 38.0001 10.5427C38.0001 11.0205 38.3242 11.3576 38.7166 11.5281L37.9491 14.1645C36.3283 13.7208 35.0994 12.4242 35.0994 10.5129C35.0994 8.15875 37.0107 6.84486 39.1094 6.84486H48.9581V9.68587ZM53.1248 18.3979H50V6.75039H53.1248V18.3979ZM62.4052 18.3979H59.7539V17.4936C59.2804 18.3665 58.1641 18.6613 57.0795 18.6613C55.2199 18.6613 54.1494 17.3058 54.1494 15.7873C54.1494 14.4734 55.156 12.9055 57.7152 12.9055H59.5642V12.7825C59.5642 11.7931 59.1859 11.4215 58.4008 11.4215C57.7015 11.4215 57.2547 11.7692 57.2037 12.432H54.525C54.6273 10.8222 55.9569 9.62982 58.431 9.61297C60.7342 9.59572 62.4052 10.7179 62.4052 13.0557V18.3979ZM77.0832 18.3979H74.1477V13.6695C74.1477 12.6798 73.9583 12.0828 73.105 12.0828C72.1839 12.0828 71.875 12.7993 71.875 13.7208V18.3979H68.9395V13.6695C68.9395 12.6798 68.6941 12.0828 67.8408 12.0828C66.9024 12.0828 66.5719 12.9016 66.5719 13.8572V18.3979H63.6364V9.78034H66.4771V11.068C67.0454 9.84619 68.0983 9.54045 69.0516 9.54045C70.1373 9.54045 70.9358 9.98142 71.4172 11.0437C72.0114 9.98573 72.8651 9.5577 73.9681 9.5577C76.1009 9.5577 77.0832 10.9225 77.0832 13.0721V18.3979ZM83.7675 18.6005C82.7366 18.6005 81.7234 18.3046 81.1554 17.4442V21.7124H78.2195V9.78034H81.0605V10.9527C81.6289 9.87637 82.7123 9.54045 83.7628 9.54045C85.9979 9.54045 87.3482 11.4345 87.3482 14.0619C87.3482 16.7406 85.9685 18.6005 83.7675 18.6005Z" fill="#5087CE"/>
</svg>
