<svg width="124" height="26" viewBox="0 0 124 26" fill="none" xmlns="http://www.w3.org/2000/svg">
<path fill-rule="evenodd" clip-rule="evenodd" d="M24.9449 12.734C24.9449 5.97718 19.4727 0.5 12.7225 0.5C5.97232 0.5 0.5 5.97718 0.5 12.734C0.5 19.4906 5.97232 24.9681 12.7225 24.9681C19.4727 24.9681 24.9449 19.4906 24.9449 12.734Z" fill="#FC3F1D"/>
<path fill-rule="evenodd" clip-rule="evenodd" d="M14.3522 7.4328H13.2318C11.1439 7.4328 10.0742 8.50316 10.0742 10.0329C10.0742 11.7661 10.8381 12.5815 12.3661 13.6517L13.6393 14.5187L9.97263 20.0239H7.22256L10.5327 15.13C8.64807 13.7539 7.57892 12.4284 7.57892 10.2364C7.57892 7.43279 9.51416 5.54656 13.2318 5.54656H16.8985V20.0747H14.3522V7.4328Z" fill="white"/>
<path fill-rule="evenodd" clip-rule="evenodd" d="M39.126 0.523373C33.7061 0.523373 29.3129 4.92078 29.3129 10.3459C29.3129 13.0572 30.4107 15.5125 32.1854 17.2901C33.9613 19.0684 38.1444 21.6418 38.3898 24.3432C38.4269 24.7485 38.7199 25.0801 39.126 25.0801C39.5321 25.0801 39.8251 24.7485 39.8622 24.3432C40.1076 21.6418 44.2906 19.0684 46.0665 17.2901C47.8413 15.5125 48.939 13.0572 48.939 10.3459C48.939 4.92078 44.5459 0.523373 39.126 0.523373Z" fill="#FF4433"/>
<path fill-rule="evenodd" clip-rule="evenodd" d="M39.126 13.7842C41.023 13.7842 42.5604 12.2447 42.5604 10.3464C42.5604 8.44749 41.023 6.90802 39.126 6.90802C37.2289 6.90802 35.6915 8.44749 35.6915 10.3464C35.6915 12.2447 37.2289 13.7842 39.126 13.7842Z" fill="white"/>
<path fill-rule="evenodd" clip-rule="evenodd" d="M113.713 19.1772H112.252V14.9093H113.788C115.139 14.9093 115.932 15.5192 115.932 17.056C115.932 18.5927 115.056 19.1772 113.713 19.1772ZM120.346 8.34462V21.6663H123.5V8.34462H120.346ZM109.106 8.34462V21.6663H113.896C116.992 21.6663 119.186 20.0796 119.186 16.9474C119.186 13.9821 117.226 12.4208 113.946 12.4208H112.252V8.34462H109.106ZM107.254 10.8334V8.34462H96.6986V10.8334H100.404V21.6663H103.549V10.8334H107.254ZM90.1985 19.4365C88.5296 19.4365 87.679 18.0917 87.679 15.0179C87.679 11.9195 88.5799 10.5747 90.3572 10.5747C92.0759 10.5747 92.9189 11.9195 92.9189 14.993C92.9189 18.0917 92.0177 19.4365 90.1985 19.4365ZM87.4453 8.34462H84.5331V25.5H87.679V20.1044C88.48 21.2904 89.6395 21.9254 90.9916 21.9254C94.0539 21.9254 96.1731 19.4697 96.1731 14.993C96.1731 10.541 94.112 8.08587 91.1496 8.08587C89.6649 8.08587 88.4463 8.77055 87.6039 10.0651L87.4453 8.34462ZM78.8508 18.4842C78.4501 19.0687 77.7076 19.5449 76.5978 19.5449C75.2793 19.5449 74.6119 18.8016 74.6119 17.6655C74.6119 16.1539 75.6968 15.6026 78.4002 15.6026H78.8508V18.4842ZM81.9964 12.5791C81.9964 9.35523 80.3524 8.13559 77.0233 8.13559C74.9372 8.13559 73.2937 8.79562 72.3421 9.35523V11.9777C73.185 11.3348 75.0374 10.6498 76.656 10.6498C78.1582 10.6498 78.8508 11.176 78.8508 12.6125V13.3475H78.3417C73.527 13.3475 71.391 14.9428 71.391 17.6407C71.391 20.3384 73.0263 21.8503 75.4631 21.8503C77.3152 21.8503 78.108 21.2407 78.717 20.6057H78.8508C78.8756 20.9479 78.9841 21.399 79.0845 21.6663H82.1548C82.0464 20.5806 81.9964 19.4949 81.9964 18.4091V12.5791ZM67.5276 21.6663H71.2576L64.7241 12.0029L70.6484 3.26642H67.394L61.7035 11.7356V3.26642H58.5076V21.6663H61.7035V13.0301L67.5276 21.6663Z" fill="black"/>
</svg>
