<svg width="100" height="100" viewBox="0 0 100 100" fill="none" xmlns="http://www.w3.org/2000/svg">
<path d="M99.2272 95.75L1.58634 96.2838C0.710187 96.2838 0 97.1157 0 98.1419C0 99.1682 0.710187 100 1.58634 100L99.2272 99.5C100.103 99.5 99.9958 98.7762 99.9958 97.75C99.9958 96.7238 100.103 95.75 99.2272 95.75Z" fill="#E9F4ED"/>
<path d="M84.6001 75.6004C85.9328 76.9963 87.0776 78.4969 88.0071 80.0676C88.5075 80.9047 89.3514 81.3222 90.2094 81.1595C91.0604 80.9973 91.7413 80.2947 91.9878 79.3197C94.3043 70.0396 92.0033 62.4394 85.3325 57.3399C79.1275 52.607 78.8006 51.3454 77.5838 46.6511C77.508 46.3588 77.4295 46.0554 77.3461 45.7387C75.1897 37.5361 69.5005 34.1369 64.8193 34.3959C58.9448 34.727 57.086 39.2969 55.5921 42.9692C55.193 43.9513 54.8626 44.7871 54.5784 45.506C53.7778 47.5308 53.376 48.5475 52.8842 49.1953C52.3965 49.8375 51.6021 50.3995 50.0189 51.5188C49.4327 51.9336 48.7473 52.4182 47.939 53.0048C44.9883 55.1435 41.3162 57.805 41.6946 64.7028C42.0025 70.1843 45.5337 76.4245 52.728 78.0087C53.0011 78.069 53.2633 78.1254 53.5163 78.1802C57.6409 79.0714 58.7494 79.3107 63.4671 86.0128C66.8248 90.7702 70.8981 93.1763 75.4744 93.1763C77.8091 93.1763 80.2747 92.5501 82.8426 91.2895C83.6481 90.9026 84.1758 90.0285 84.2196 89.0086C84.2636 87.9847 83.8109 87.0492 83.0421 86.5689C81.617 85.673 80.2155 84.5074 78.8766 83.1048L78.8755 83.1035C75.2573 79.3205 73.5245 75.2437 73.4122 72.8814C73.3738 72.0714 73.5087 71.4587 73.8147 71.0587C75.0078 69.4942 79.6887 70.4657 84.6001 75.6004ZM70.2438 73.0881C70.4284 76.9651 72.9261 81.8653 76.7622 85.8759C77.7489 86.9096 78.7699 87.8329 79.8145 88.6368C74.2742 90.6726 69.7123 89.0288 65.9137 83.6468C60.7101 76.2543 58.931 75.5708 54.0916 74.5254C53.8425 74.4717 53.5841 74.4159 53.3144 74.3563C47.7903 73.1399 45.088 68.5089 44.8607 64.4616C44.6169 60.0173 46.5061 58.4137 49.6098 56.1644C50.4067 55.5857 51.0815 55.1086 51.6588 54.7004C55.3748 52.0727 55.5917 51.7874 57.4577 47.0675C57.7379 46.3588 58.0637 45.5347 58.4569 44.5672C60.0292 40.7016 61.1853 38.3217 64.9721 38.1081C65.0915 38.1015 65.2112 38.098 65.3324 38.098C68.7176 38.098 72.7154 40.7521 74.314 46.8324C74.3959 47.1439 74.4734 47.443 74.5481 47.731C75.9761 53.2399 76.7544 55.2315 83.6 60.4534C88.5997 64.2757 90.5086 69.4046 89.4014 76.0814C88.6001 74.9512 87.701 73.8627 86.7141 72.8293C80.8453 66.6939 74.2826 64.8685 71.4503 68.5802C70.5751 69.7237 70.1578 71.2826 70.2438 73.0881Z" fill="#F1F8EE"/>
<path fill-rule="evenodd" clip-rule="evenodd" d="M8.95839 38.6227H1.58634C0.710187 38.6227 0 37.7909 0 36.7646C0 35.7384 0.710187 34.9065 1.58634 34.9065H9.26785C9.47241 30.2657 8.61465 28.6116 6.8217 25.16C6.66981 24.8674 6.51201 24.5635 6.34832 24.246C2.16008 16.1179 3.94939 8.12357 7.5807 3.8069C12.1315 -1.61421 16.7073 -0.0313593 20.3845 1.24115C21.3945 1.58973 22.2291 1.89018 22.9656 2.15532L22.9778 2.15969C24.9741 2.87851 25.9788 3.24019 26.8295 3.24019H26.8361C27.6938 3.23806 28.7271 2.87079 30.7848 2.13943L30.7869 2.13868C31.5116 1.88072 32.3546 1.58128 33.3534 1.23955C37.0332 -0.0244442 41.6147 -1.59799 46.1533 3.80823C49.7835 8.12384 51.5728 16.1181 47.3843 24.2465C47.2445 24.5185 47.1085 24.7803 46.9769 25.0336L46.9112 25.1602C45.313 28.2369 44.4587 29.887 44.4364 33.4955C47.3677 32.7862 49.5769 31.81 51.012 30.5829C56.8849 25.5453 64.2058 23.604 70.593 25.3929C76.0463 26.9199 80.3608 31.0334 83.0698 37.2888C87.3902 47.2645 90.9899 46.4422 97.525 44.9494L97.5263 44.9491C98.0731 44.8241 98.6402 44.6944 99.2272 44.5672C99.2272 44.5672 100.112 48.1448 98.1336 48.5967L98.1328 48.5968C91.4313 50.1278 85.6447 51.4497 80.24 38.9703C77.9655 33.7181 74.3744 30.2731 69.8551 29.0075C64.444 27.4936 57.9409 29.2453 52.8844 33.583C50.9802 35.211 48.2707 36.412 44.6321 37.2407C44.7318 38.3055 44.8682 39.4969 45.0456 40.8566C46.3738 51.0675 42.7116 58.9022 34.455 63.5146C34.1332 63.6944 33.7922 63.7827 33.4542 63.7827C32.9358 63.7827 32.4252 63.5753 32.0029 63.1718C31.3034 62.5035 31.0039 61.4488 31.2214 60.4189C31.6406 58.3613 31.8637 56.0418 31.8637 53.726C31.8637 45.6211 29.2253 39.5652 26.8663 39.5652C24.5074 39.5652 21.8689 45.6211 21.8689 53.726C21.8689 56.0719 22.0916 58.389 22.513 60.4274C22.7235 61.4693 22.4156 62.5219 21.7118 63.1841C21.0132 63.8409 20.0784 63.9667 19.2715 63.5109C11.0149 58.903 7.35275 51.0675 8.6873 40.8555C8.79174 40.0551 8.88097 39.3163 8.95839 38.6227ZM9.84204 6.41387C7.07076 9.70829 5.75665 15.9049 9.0651 22.3259C9.22653 22.6397 9.38228 22.9397 9.53281 23.2282C12.3642 28.6788 13.1945 30.9045 11.8241 41.4172C10.7797 49.4088 13.15 55.2435 19.0654 59.1964C18.8204 57.4547 18.6964 55.6216 18.6964 53.726C18.6964 43.534 22.209 35.8488 26.8668 35.8488C31.5245 35.8488 35.0371 43.5343 35.0371 53.726C35.0371 55.6051 34.9122 57.4374 34.665 59.1974C40.5769 55.2437 42.9486 49.4086 41.9092 41.4169C40.5388 30.9045 41.3691 28.6788 44.2005 23.2282C44.3506 22.9397 44.5063 22.6397 44.6675 22.3262C47.9762 15.9051 46.6621 9.70829 43.892 6.4152C40.8387 2.77852 38.237 3.43485 34.2443 4.80602C33.2562 5.14429 32.4238 5.44001 31.7082 5.69451C27.0053 7.36672 26.644 7.36725 22.0455 5.71153L21.9961 5.69375C21.2769 5.43509 20.4631 5.14239 19.4866 4.80522C15.5013 3.42661 12.9037 2.76655 9.84204 6.41387Z" fill="#E9F4ED"/>
</svg>
