<svg width="100" height="100" viewBox="0 0 100 100" fill="none" xmlns="http://www.w3.org/2000/svg">
<path d="M99.403 43.5796C99.2187 43.1794 98.8561 42.893 98.4286 42.8096C93.469 41.8435 88.4632 42.0297 83.5477 43.3632C80.6454 44.1519 77.8883 45.3205 75.3264 46.8455C74.6745 44.4464 73.4661 42.2721 71.8014 40.558C66.7423 35.3412 61.7951 36.8065 57.4295 38.0997C56.2714 38.4437 55.3079 38.7411 54.4577 39.0034C49.7227 40.4643 49.7225 40.4643 45.1201 39.0261C44.262 38.7581 43.2893 38.4539 42.1104 38.1007C37.7537 36.794 32.816 35.313 27.7292 40.558C26.0665 42.2727 24.8592 44.4472 24.2081 46.8459C21.639 45.3183 18.8803 44.1494 15.9823 43.363C11.0678 42.0295 6.06159 41.8433 1.10222 42.8096C0.674524 42.893 0.312145 43.1796 0.127651 43.58C-0.0568428 43.9803 -0.0405124 44.4464 0.171199 44.8328C4.21082 52.2045 10.6417 57.6492 18.4433 60.3625C17.6581 61.3913 17.2572 62.5441 17.2877 63.7425C17.3618 66.7909 20.2344 69.3093 24.4564 70.1921C24.2462 71.4136 24.3934 72.6046 24.8983 73.7024C25.6423 75.3193 27.1892 76.6974 29.1443 77.5317C28.3492 82.8372 29.1059 87.4835 31.3939 91.3416C33.4416 94.7947 36.7302 97.633 41.1621 99.775C41.932 100.152 42.8232 100.048 43.488 99.5046C44.1574 98.957 44.4482 98.0888 44.247 97.239C43.7417 95.1061 43.4857 92.7991 43.4857 90.3824C43.4857 81.709 46.7951 75.6647 49.7653 75.6647C52.7355 75.6647 56.0449 81.709 56.0449 90.3824C56.0449 92.7985 55.7887 95.1053 55.2834 97.2394C55.0822 98.0894 55.3732 98.9572 56.0426 99.5046C56.4431 99.832 56.9256 100 57.413 100C57.7345 100 58.0584 99.9268 58.3619 99.7781C62.802 97.6338 66.0916 94.7953 68.1391 91.3416C70.4253 87.4847 71.1812 82.8387 70.3863 77.5325C72.3414 76.699 73.8883 75.3221 74.6323 73.7062C75.1382 72.6078 75.2852 71.4155 75.0746 70.1923C79.2937 69.3097 82.168 66.7926 82.2483 63.7446C82.2788 62.5471 81.8776 61.3938 81.091 60.3635C88.8955 57.6502 95.3248 52.2051 99.36 44.8324C99.5713 44.4458 99.5875 43.9801 99.403 43.5796ZM27.3603 72.5366C26.9551 71.656 26.9847 70.7029 27.4512 69.6233C27.6254 69.2196 27.599 68.7557 27.3801 68.3752C27.161 67.9946 26.7759 67.7433 26.3435 67.6989C22.7761 67.3332 20.0509 65.6031 20.004 63.673C19.9708 62.3672 21.1539 61.37 21.8622 60.8919C22.307 60.5917 22.537 60.0548 22.4497 59.52C22.3628 58.9853 21.9749 58.5519 21.4584 58.4127C13.9715 56.3937 7.68024 51.7356 3.55294 45.2028C7.46931 44.6992 11.4055 44.9742 15.2805 46.0254C18.2736 46.8374 21.1038 48.0944 23.7067 49.7635C23.4258 53.3792 24.3424 57.0855 26.3719 60.501C26.5597 60.8167 26.7407 61.1189 26.9153 61.4098C29.4748 65.6771 30.4344 67.2784 29.5376 74.6722C28.5236 74.1144 27.7378 73.3575 27.3603 72.5366ZM67.6993 77.9378C68.9916 86.5431 65.8719 92.7232 58.1595 96.8015C58.5596 94.7688 58.762 92.6147 58.762 90.3822C58.762 85.8795 57.9202 81.6252 56.3917 78.4032C54.7109 74.8598 52.3576 72.9084 49.7657 72.9084C47.1738 72.9084 44.8205 74.86 43.1397 78.4032C41.6112 81.6252 40.7694 85.8795 40.7694 90.3822C40.7694 92.6149 40.9718 94.769 41.3717 96.8013C33.662 92.7232 30.5396 86.5422 31.8319 77.9384C32.634 72.6125 32.773 69.4156 32.312 66.9039C31.8363 64.3115 30.7459 62.4936 29.2367 59.9773C29.0639 59.6892 28.8844 59.39 28.6988 59.0778C24.7315 52.4003 26.3262 45.9355 29.6665 42.4907C33.3444 38.6989 36.5303 39.3012 41.3412 40.7438C42.5053 41.0927 43.4698 41.394 44.3209 41.6601C49.5666 43.2995 49.8732 43.2989 55.2492 41.6402C56.0929 41.3798 57.0492 41.0846 58.1927 40.745C63.0164 39.3166 66.2088 38.7208 69.8662 42.4912C73.2104 45.9353 74.8065 52.3993 70.8338 59.0772C70.6479 59.3898 70.4685 59.6888 70.2957 59.9769C68.7863 62.4934 67.6958 64.3115 67.2201 66.9037C66.7582 69.4154 66.8974 72.6123 67.6993 77.9378ZM78.0782 58.4127C77.5623 58.5518 77.1746 58.9847 77.0869 59.5188C76.9997 60.0531 77.2287 60.5899 77.6727 60.8905C78.3815 61.371 79.5657 62.3709 79.5324 63.6717C79.4817 65.602 76.7539 67.3332 73.1875 67.6989C72.7551 67.7433 72.37 67.9946 72.1509 68.3752C71.932 68.7557 71.9054 69.2196 72.0797 69.6231C72.5467 70.7043 72.5765 71.6581 72.1709 72.5394C71.7932 73.3596 71.0074 74.1158 69.9934 74.6734C69.0965 67.2788 70.0561 65.6775 72.6159 61.4096C72.7903 61.1187 72.9715 60.8167 73.1591 60.5014C75.1909 57.0861 76.1093 53.3796 75.8283 49.7637C78.4225 48.0975 81.2516 46.8404 84.2501 46.0254C88.1261 44.9738 92.0625 44.6985 95.9792 45.203C91.8566 51.7351 85.5667 56.3931 78.0782 58.4127Z" fill="#F1F8EE"/>
<path d="M45.6073 52.5369C45.8196 51.807 45.4084 51.0405 44.6887 50.8249C43.9692 50.6106 43.2135 51.0265 43.0012 51.7569C42.7063 52.771 41.808 53.4525 40.7661 53.4525C39.7369 53.4525 38.8183 52.7572 38.5324 51.7614C38.3228 51.0311 37.5695 50.6113 36.8484 50.824C36.1281 51.0368 35.7142 51.8018 35.9242 52.5324C36.5457 54.697 38.5368 56.2088 40.7661 56.2088C42.9878 56.2086 44.9786 54.6988 45.6073 52.5369Z" fill="#F1F8EE"/>
<path d="M62.6822 50.8237C61.9619 50.611 61.2078 51.0309 60.9981 51.7615C60.7123 52.7571 59.7939 53.4523 58.7647 53.4523C57.739 53.4523 56.8196 52.7551 56.5296 51.757C56.3173 51.027 55.5612 50.6102 54.8423 50.8248C54.1228 51.0402 53.7114 51.8067 53.9235 52.5366C54.552 54.6986 56.5428 56.2085 58.7645 56.2085C60.994 56.2085 62.9851 54.6967 63.6064 52.5321C63.8164 51.8015 63.4025 51.0365 62.6822 50.8237Z" fill="#F1F8EE"/>
<path d="M55.5451 63.4257C54.8468 63.1494 54.0586 63.4985 53.7851 64.2073C53.3065 65.4489 51.6159 66.3501 49.7653 66.3501C47.9147 66.3501 46.2241 65.4489 45.7455 64.2073C45.4722 63.4987 44.6844 63.1496 43.9855 63.4257C43.2868 63.703 42.9419 64.5024 43.2151 65.2112C44.1133 67.5411 46.7455 69.1064 49.7651 69.1064C52.7847 69.1064 55.417 67.5409 56.3151 65.2112C56.5889 64.5024 56.2438 63.703 55.5451 63.4257Z" fill="#F1F8EE"/>
<path d="M10.8562 34.842C11.2704 35.3928 12.0236 35.5458 12.6152 35.1993L27.8441 26.2792C28.4939 25.8987 28.7164 25.0559 28.3413 24.3968C27.9662 23.7376 27.1355 23.5118 26.4858 23.8924L12.2911 32.2066L5.50338 23.1845L13.5547 25.6971C13.941 25.8177 14.3573 25.7572 14.6987 25.5327C15.0367 25.3078 15.2588 24.9418 15.3041 24.5342L16.3878 14.7692L25.2655 18.6993C25.6359 18.8633 26.0592 18.8514 26.4203 18.6667C26.7788 18.4827 27.0425 18.1438 27.1328 17.744L29.0171 9.41088L33.3218 19.8881L30.9817 21.2588C30.332 21.6393 30.1094 22.4821 30.4845 23.1412C30.8596 23.8004 31.6903 24.0262 32.34 23.6456L35.7142 21.6693C36.3056 21.3228 36.5516 20.5851 36.2889 19.9455L29.8944 4.38199C29.6673 3.82906 29.114 3.48836 28.5255 3.53904C27.9379 3.58967 27.4487 4.01992 27.3165 4.6041L24.851 15.5079L15.7873 11.4955C15.3922 11.3207 14.9385 11.3464 14.5649 11.5652C14.1913 11.784 13.9426 12.1698 13.8942 12.6044L12.7876 22.5734L2.25185 19.2854C1.68773 19.1091 1.07505 19.3236 0.738116 19.8147C0.400511 20.3063 0.414437 20.9627 0.772807 21.439L10.8562 34.842Z" fill="#E9F4ED"/>
<path d="M58.692 30.2947H48.2406V27.2092L54.62 16.2131H48.6025V13.1277H58.33V16.2131L51.9506 27.2092H58.692V30.2947Z" fill="#E9F4ED"/>
<path d="M100 22.2161H86.5625V18.2232L94.7646 3.99289H87.0278V0H99.5346V3.99289L91.3325 18.2232H100V22.2161Z" fill="#E9F4ED"/>
<path d="M78.1018 26.7603H64.6642V22.9489L72.8664 9.36541H65.1296V5.55402H77.6364V9.36541L69.4343 22.9489H78.1018V26.7603Z" fill="#E9F4ED"/>
</svg>
