<svg width="204" height="42" viewBox="0 0 204 42" fill="none" xmlns="http://www.w3.org/2000/svg">
<path d="M1.32 18.208C1.928 18.176 2.344 18.04 2.568 17.8C2.792 17.544 2.912 17.2 2.928 16.768C2.96 16.32 2.976 15.816 2.976 15.256V4.888C2.976 4.568 2.984 4.264 3 3.976C3.016 3.672 3.032 3.4 3.048 3.16C2.76 3.176 2.472 3.192 2.184 3.208C1.896 3.224 1.608 3.24 1.32 3.256V2.2C2.168 2.184 3.04 2.176 3.936 2.176C4.832 2.16 5.744 2.152 6.672 2.152C8.224 2.152 9.528 2.328 10.584 2.68C11.64 3.032 12.448 3.552 13.008 4.24C13.568 4.928 13.872 5.784 13.92 6.808C13.952 7.432 13.856 8.088 13.632 8.776C13.424 9.448 13.024 10.088 12.432 10.696C11.856 11.288 11.04 11.768 9.984 12.136C8.928 12.504 7.576 12.688 5.928 12.688C5.864 12.688 5.744 12.688 5.568 12.688C5.392 12.688 5.224 12.68 5.064 12.664V16.144C5.064 16.576 5.056 16.952 5.04 17.272C5.04 17.576 5.024 17.832 4.992 18.04C5.248 18.024 5.496 18.008 5.736 17.992C5.976 17.976 6.216 17.968 6.456 17.968C6.712 17.952 6.96 17.936 7.2 17.92V19H1.32V18.208ZM5.064 11.68C5.368 11.712 5.624 11.736 5.832 11.752C6.056 11.752 6.32 11.752 6.624 11.752C7.536 11.752 8.368 11.576 9.12 11.224C9.872 10.856 10.472 10.336 10.92 9.664C11.368 8.992 11.592 8.192 11.592 7.264C11.592 6.512 11.472 5.872 11.232 5.344C10.992 4.8 10.648 4.368 10.2 4.048C9.768 3.712 9.248 3.472 8.64 3.328C8.032 3.168 7.36 3.088 6.624 3.088C6.064 3.088 5.672 3.208 5.448 3.448C5.24 3.688 5.12 4.024 5.088 4.456C5.072 4.872 5.064 5.368 5.064 5.944V11.68ZM25.1683 19.384C24.0483 19.384 23.0323 19.128 22.1203 18.616C21.2083 18.088 20.4803 17.368 19.9363 16.456C19.4083 15.528 19.1443 14.472 19.1443 13.288C19.1443 12.024 19.4083 10.888 19.9363 9.88C20.4643 8.872 21.1843 8.08 22.0963 7.504C23.0083 6.912 24.0323 6.616 25.1683 6.616C26.2883 6.616 27.3043 6.888 28.2163 7.432C29.1283 7.96 29.8563 8.68 30.4003 9.592C30.9443 10.504 31.2163 11.544 31.2163 12.712C31.2163 13.944 30.9443 15.072 30.4003 16.096C29.8723 17.104 29.1523 17.904 28.2403 18.496C27.3283 19.088 26.3043 19.384 25.1683 19.384ZM25.3603 18.424C26.2083 18.424 26.8803 18.184 27.3763 17.704C27.8723 17.224 28.2243 16.6 28.4323 15.832C28.6563 15.064 28.7683 14.256 28.7683 13.408C28.7683 12.688 28.6963 11.984 28.5523 11.296C28.4243 10.592 28.2163 9.96 27.9283 9.4C27.6403 8.824 27.2643 8.368 26.8003 8.032C26.3523 7.696 25.8083 7.528 25.1683 7.528C24.3363 7.528 23.6563 7.768 23.1283 8.248C22.6003 8.728 22.2083 9.352 21.9523 10.12C21.7123 10.888 21.5923 11.712 21.5923 12.592C21.5923 13.584 21.7283 14.528 22.0003 15.424C22.2723 16.304 22.6883 17.024 23.2483 17.584C23.8083 18.144 24.5123 18.424 25.3603 18.424ZM37.8634 4C37.8634 3.744 37.8634 3.504 37.8634 3.28C37.8794 3.04 37.9034 2.76 37.9354 2.44C37.6474 2.456 37.3594 2.472 37.0714 2.488C36.7994 2.504 36.5194 2.52 36.2314 2.536V1.528C36.9354 1.528 37.4794 1.496 37.8634 1.432C38.2634 1.368 38.5594 1.288 38.7514 1.192C38.9594 1.096 39.1194 0.991999 39.2314 0.879999H39.9274V8.032C40.3754 7.584 40.9034 7.24 41.5114 7C42.1354 6.744 42.8154 6.616 43.5514 6.616C44.5754 6.616 45.4954 6.864 46.3114 7.36C47.1434 7.856 47.7994 8.56 48.2794 9.472C48.7594 10.384 48.9994 11.464 48.9994 12.712C48.9994 14.072 48.7034 15.256 48.1114 16.264C47.5194 17.256 46.7514 18.024 45.8074 18.568C44.8634 19.112 43.8474 19.384 42.7594 19.384C42.2154 19.384 41.6154 19.28 40.9594 19.072C40.3194 18.88 39.7434 18.496 39.2314 17.92L38.6554 19H37.8154L37.8634 4ZM39.9274 15.232C39.9274 16.08 40.0634 16.736 40.3354 17.2C40.6074 17.648 40.9594 17.96 41.3914 18.136C41.8234 18.312 42.2794 18.4 42.7594 18.4C43.5274 18.4 44.1914 18.184 44.7514 17.752C45.3114 17.32 45.7434 16.728 46.0474 15.976C46.3674 15.208 46.5274 14.32 46.5274 13.312C46.5274 12.224 46.3914 11.272 46.1194 10.456C45.8474 9.624 45.4394 8.976 44.8954 8.512C44.3514 8.032 43.6634 7.792 42.8314 7.792C42.3034 7.792 41.7754 7.92 41.2474 8.176C40.7354 8.416 40.2954 8.744 39.9274 9.16V15.232ZM60.7121 19.384C59.6081 19.384 58.6081 19.128 57.7121 18.616C56.8321 18.088 56.1361 17.352 55.6241 16.408C55.1121 15.448 54.8561 14.32 54.8561 13.024C54.8561 11.904 55.1041 10.856 55.6001 9.88C56.1121 8.904 56.8241 8.12 57.7361 7.528C58.6481 6.92 59.7041 6.616 60.9041 6.616C61.5761 6.616 62.2001 6.728 62.7761 6.952C63.3681 7.16 63.8881 7.488 64.3361 7.936C64.7841 8.368 65.1361 8.92 65.3921 9.592C65.6481 10.248 65.7761 11.024 65.7761 11.92L57.3281 12.064C57.3281 13.28 57.4561 14.352 57.7121 15.28C57.9841 16.192 58.4161 16.904 59.0081 17.416C59.6001 17.912 60.3601 18.16 61.2881 18.16C61.7841 18.16 62.2881 18.072 62.8001 17.896C63.3281 17.72 63.8161 17.48 64.2641 17.176C64.7121 16.872 65.0721 16.536 65.3441 16.168L65.9201 16.648C65.4881 17.32 64.9681 17.856 64.3601 18.256C63.7521 18.656 63.1281 18.944 62.4881 19.12C61.8481 19.296 61.2561 19.384 60.7121 19.384ZM57.4001 11.056H63.5201C63.5201 10.48 63.4321 9.928 63.2561 9.4C63.0961 8.856 62.8241 8.416 62.4401 8.08C62.0561 7.728 61.5521 7.552 60.9281 7.552C60.0001 7.552 59.2241 7.832 58.6001 8.392C57.9921 8.936 57.5921 9.824 57.4001 11.056ZM76.7708 19.384C75.7948 19.384 74.9148 19.144 74.1308 18.664C73.3468 18.168 72.7228 17.464 72.2588 16.552C71.8108 15.64 71.5868 14.568 71.5868 13.336C71.5868 12.024 71.8508 10.864 72.3788 9.856C72.9068 8.848 73.6348 8.056 74.5628 7.48C75.5068 6.904 76.5708 6.616 77.7548 6.616C78.2828 6.616 78.8028 6.688 79.3148 6.832C79.8428 6.96 80.2588 7.112 80.5628 7.288V4C80.5628 3.744 80.5628 3.504 80.5628 3.28C80.5788 3.04 80.6028 2.76 80.6348 2.44C80.3468 2.456 80.0588 2.472 79.7708 2.488C79.4988 2.504 79.2188 2.52 78.9308 2.536V1.528C79.6348 1.528 80.1788 1.496 80.5628 1.432C80.9468 1.368 81.2348 1.288 81.4268 1.192C81.6348 1.096 81.7948 0.991999 81.9068 0.879999H82.6028V16.456C82.6028 16.712 82.5948 16.968 82.5788 17.224C82.5628 17.48 82.5388 17.768 82.5068 18.088C82.7948 18.072 83.0748 18.056 83.3468 18.04C83.6348 18.024 83.9228 18.008 84.2108 17.992V19H80.7788C80.7308 18.76 80.6908 18.544 80.6588 18.352C80.6428 18.144 80.6268 17.944 80.6108 17.752C80.1628 18.248 79.6108 18.648 78.9548 18.952C78.2988 19.24 77.5708 19.384 76.7708 19.384ZM77.6348 18.208C78.1628 18.208 78.6908 18.056 79.2188 17.752C79.7628 17.448 80.2108 17.072 80.5628 16.624C80.5468 16.432 80.5388 16.232 80.5388 16.024C80.5388 15.8 80.5388 15.56 80.5388 15.304L80.5628 8.392C80.1788 8.104 79.7548 7.896 79.2908 7.768C78.8428 7.624 78.3788 7.552 77.8988 7.552C77.0988 7.552 76.4028 7.784 75.8108 8.248C75.2188 8.712 74.7708 9.36 74.4668 10.192C74.1628 11.024 74.0268 12 74.0588 13.12C74.0908 14.096 74.2428 14.968 74.5148 15.736C74.8028 16.504 75.2028 17.112 75.7148 17.56C76.2428 17.992 76.8828 18.208 77.6348 18.208ZM95.7705 19.384C94.6505 19.384 93.6345 19.128 92.7225 18.616C91.8105 18.088 91.0825 17.368 90.5385 16.456C90.0105 15.528 89.7465 14.472 89.7465 13.288C89.7465 12.024 90.0105 10.888 90.5385 9.88C91.0665 8.872 91.7865 8.08 92.6985 7.504C93.6105 6.912 94.6345 6.616 95.7705 6.616C96.8905 6.616 97.9065 6.888 98.8185 7.432C99.7305 7.96 100.458 8.68 101.002 9.592C101.546 10.504 101.818 11.544 101.818 12.712C101.818 13.944 101.546 15.072 101.002 16.096C100.474 17.104 99.7545 17.904 98.8425 18.496C97.9305 19.088 96.9065 19.384 95.7705 19.384ZM95.9625 18.424C96.8105 18.424 97.4825 18.184 97.9785 17.704C98.4745 17.224 98.8265 16.6 99.0345 15.832C99.2585 15.064 99.3705 14.256 99.3705 13.408C99.3705 12.688 99.2985 11.984 99.1545 11.296C99.0265 10.592 98.8185 9.96 98.5305 9.4C98.2425 8.824 97.8665 8.368 97.4025 8.032C96.9545 7.696 96.4105 7.528 95.7705 7.528C94.9385 7.528 94.2585 7.768 93.7305 8.248C93.2025 8.728 92.8105 9.352 92.5545 10.12C92.3145 10.888 92.1945 11.712 92.1945 12.592C92.1945 13.584 92.3305 14.528 92.6025 15.424C92.8745 16.304 93.2905 17.024 93.8505 17.584C94.4105 18.144 95.1145 18.424 95.9625 18.424ZM107.698 19V18.28C108.194 18.28 108.538 18.16 108.73 17.92C108.922 17.664 109.034 17.32 109.066 16.888C109.098 16.44 109.114 15.928 109.114 15.352L109.138 9.88C109.138 9.624 109.138 9.368 109.138 9.112C109.154 8.856 109.186 8.592 109.234 8.32C108.946 8.336 108.658 8.352 108.37 8.368C108.098 8.384 107.818 8.4 107.53 8.416V7.408C108.234 7.408 108.762 7.376 109.114 7.312C109.482 7.248 109.754 7.168 109.93 7.072C110.106 6.976 110.25 6.872 110.362 6.76H111.058C111.074 6.872 111.082 7 111.082 7.144C111.098 7.288 111.114 7.448 111.13 7.624C111.146 7.8 111.154 8 111.154 8.224C111.506 7.92 111.89 7.648 112.306 7.408C112.738 7.168 113.186 6.976 113.65 6.832C114.13 6.688 114.602 6.616 115.066 6.616C116.458 6.616 117.474 7.056 118.114 7.936C118.754 8.8 119.074 10.152 119.074 11.992V16.456C119.074 16.776 119.066 17.064 119.05 17.32C119.05 17.56 119.026 17.816 118.978 18.088C119.234 18.072 119.482 18.064 119.722 18.064C119.978 18.048 120.234 18.032 120.49 18.016V19H115.594V18.28C116.09 18.28 116.434 18.16 116.626 17.92C116.818 17.664 116.93 17.32 116.962 16.888C116.994 16.44 117.01 15.928 117.01 15.352V11.992C116.994 10.616 116.762 9.576 116.314 8.872C115.882 8.168 115.194 7.824 114.25 7.84C113.674 7.856 113.106 8.008 112.546 8.296C112.002 8.584 111.546 8.952 111.178 9.4C111.194 9.528 111.202 9.672 111.202 9.832C111.202 9.992 111.202 10.16 111.202 10.336L111.178 16.456C111.178 16.776 111.17 17.064 111.154 17.32C111.154 17.56 111.13 17.816 111.082 18.088C111.338 18.072 111.586 18.064 111.826 18.064C112.082 18.048 112.338 18.032 112.594 18.016V19H107.698ZM132.068 19.384C130.948 19.384 129.932 19.128 129.02 18.616C128.108 18.088 127.38 17.368 126.836 16.456C126.308 15.528 126.044 14.472 126.044 13.288C126.044 12.024 126.308 10.888 126.836 9.88C127.364 8.872 128.084 8.08 128.996 7.504C129.908 6.912 130.932 6.616 132.068 6.616C133.188 6.616 134.204 6.888 135.116 7.432C136.028 7.96 136.756 8.68 137.3 9.592C137.844 10.504 138.116 11.544 138.116 12.712C138.116 13.944 137.844 15.072 137.3 16.096C136.772 17.104 136.052 17.904 135.14 18.496C134.228 19.088 133.204 19.384 132.068 19.384ZM132.26 18.424C133.108 18.424 133.78 18.184 134.276 17.704C134.772 17.224 135.124 16.6 135.332 15.832C135.556 15.064 135.668 14.256 135.668 13.408C135.668 12.688 135.596 11.984 135.452 11.296C135.324 10.592 135.116 9.96 134.828 9.4C134.54 8.824 134.164 8.368 133.7 8.032C133.252 7.696 132.708 7.528 132.068 7.528C131.236 7.528 130.556 7.768 130.028 8.248C129.5 8.728 129.108 9.352 128.852 10.12C128.612 10.888 128.492 11.712 128.492 12.592C128.492 13.584 128.628 14.528 128.9 15.424C129.172 16.304 129.588 17.024 130.148 17.584C130.708 18.144 131.412 18.424 132.26 18.424ZM148.915 19.384C148.115 19.384 147.403 19.272 146.779 19.048C146.155 18.84 145.643 18.6 145.243 18.328L145.339 19.168H144.331L144.187 15.04H144.931C144.963 15.696 145.147 16.288 145.483 16.816C145.819 17.328 146.251 17.728 146.779 18.016C147.307 18.304 147.875 18.448 148.483 18.448C148.899 18.448 149.307 18.384 149.707 18.256C150.107 18.112 150.443 17.904 150.715 17.632C150.987 17.344 151.123 16.984 151.123 16.552C151.123 16.104 150.987 15.736 150.715 15.448C150.459 15.144 150.115 14.88 149.683 14.656C149.251 14.432 148.787 14.224 148.291 14.032C147.811 13.84 147.331 13.64 146.851 13.432C146.371 13.224 145.923 12.976 145.507 12.688C145.107 12.4 144.787 12.048 144.547 11.632C144.307 11.216 144.187 10.704 144.187 10.096C144.187 9.76 144.251 9.392 144.379 8.992C144.507 8.592 144.723 8.216 145.027 7.864C145.331 7.496 145.747 7.2 146.275 6.976C146.803 6.736 147.475 6.616 148.291 6.616C148.723 6.616 149.203 6.688 149.731 6.832C150.259 6.976 150.771 7.248 151.267 7.648L151.219 6.736H152.227V10.936H151.459C151.427 10.376 151.299 9.84 151.075 9.328C150.851 8.8 150.523 8.368 150.091 8.032C149.659 7.68 149.099 7.504 148.411 7.504C147.675 7.504 147.099 7.688 146.683 8.056C146.267 8.424 146.059 8.848 146.059 9.328C146.059 9.824 146.211 10.24 146.515 10.576C146.835 10.896 147.243 11.176 147.739 11.416C148.235 11.656 148.763 11.888 149.323 12.112C149.931 12.368 150.523 12.648 151.099 12.952C151.675 13.256 152.147 13.64 152.515 14.104C152.883 14.552 153.067 15.136 153.067 15.856C153.067 16.656 152.859 17.32 152.443 17.848C152.043 18.376 151.523 18.76 150.883 19C150.259 19.256 149.603 19.384 148.915 19.384ZM164.8 19.384C163.728 19.384 162.736 19.144 161.824 18.664C160.928 18.168 160.208 17.464 159.664 16.552C159.136 15.624 158.872 14.512 158.872 13.216C158.872 12.384 159.024 11.576 159.328 10.792C159.632 10.008 160.056 9.304 160.6 8.68C161.16 8.04 161.824 7.536 162.592 7.168C163.36 6.8 164.208 6.616 165.136 6.616C166.032 6.616 166.808 6.752 167.464 7.024C168.136 7.296 168.656 7.656 169.024 8.104C169.392 8.552 169.576 9.04 169.576 9.568C169.576 9.92 169.48 10.224 169.288 10.48C169.096 10.72 168.816 10.84 168.448 10.84C168.048 10.856 167.76 10.736 167.584 10.48C167.424 10.208 167.344 9.968 167.344 9.76C167.344 9.6 167.368 9.44 167.416 9.28C167.464 9.104 167.56 8.944 167.704 8.8C167.576 8.416 167.352 8.136 167.032 7.96C166.712 7.768 166.376 7.648 166.024 7.6C165.688 7.536 165.408 7.504 165.184 7.504C164.096 7.504 163.176 7.944 162.424 8.824C161.688 9.688 161.32 10.952 161.32 12.616C161.32 13.688 161.488 14.64 161.824 15.472C162.176 16.304 162.664 16.96 163.288 17.44C163.912 17.904 164.632 18.136 165.448 18.136C166.2 18.136 166.92 17.936 167.608 17.536C168.296 17.136 168.832 16.648 169.216 16.072L169.84 16.552C169.424 17.224 168.92 17.768 168.328 18.184C167.752 18.6 167.152 18.904 166.528 19.096C165.92 19.288 165.344 19.384 164.8 19.384ZM181.248 19.384C180.144 19.384 179.144 19.128 178.248 18.616C177.368 18.088 176.672 17.352 176.16 16.408C175.648 15.448 175.392 14.32 175.392 13.024C175.392 11.904 175.64 10.856 176.136 9.88C176.648 8.904 177.36 8.12 178.272 7.528C179.184 6.92 180.24 6.616 181.44 6.616C182.112 6.616 182.736 6.728 183.312 6.952C183.904 7.16 184.424 7.488 184.872 7.936C185.32 8.368 185.672 8.92 185.928 9.592C186.184 10.248 186.312 11.024 186.312 11.92L177.864 12.064C177.864 13.28 177.992 14.352 178.248 15.28C178.52 16.192 178.952 16.904 179.544 17.416C180.136 17.912 180.896 18.16 181.824 18.16C182.32 18.16 182.824 18.072 183.336 17.896C183.864 17.72 184.352 17.48 184.8 17.176C185.248 16.872 185.608 16.536 185.88 16.168L186.456 16.648C186.024 17.32 185.504 17.856 184.896 18.256C184.288 18.656 183.664 18.944 183.024 19.12C182.384 19.296 181.792 19.384 181.248 19.384ZM177.936 11.056H184.056C184.056 10.48 183.968 9.928 183.792 9.4C183.632 8.856 183.36 8.416 182.976 8.08C182.592 7.728 182.088 7.552 181.464 7.552C180.536 7.552 179.76 7.832 179.136 8.392C178.528 8.936 178.128 9.824 177.936 11.056ZM196.731 19.072L193.299 11.248C193.043 10.64 192.843 10.12 192.699 9.688C192.555 9.256 192.451 8.896 192.387 8.608C192.339 8.32 192.307 8.088 192.291 7.912L191.259 7.984V7H195.675V7.72C195.195 7.72 194.883 7.848 194.739 8.104C194.611 8.344 194.595 8.672 194.691 9.088C194.787 9.488 194.931 9.92 195.123 10.384L196.971 14.608C197.099 14.88 197.219 15.168 197.331 15.472C197.459 15.76 197.579 16.064 197.691 16.384H197.715C197.795 16.144 197.883 15.888 197.979 15.616C198.091 15.344 198.187 15.08 198.267 14.824L200.187 9.568C200.315 9.184 200.451 8.848 200.595 8.56C200.739 8.272 200.843 8.056 200.907 7.912L199.371 7.984V7H203.163V7.72C202.811 7.72 202.515 7.84 202.275 8.08C202.035 8.32 201.803 8.68 201.579 9.16C201.371 9.64 201.123 10.24 200.835 10.96L197.691 19.072H196.731Z" fill="white"/>
<path d="M5.80469 35.2422L4.54688 31.7734L3.28906 35.2422H5.80469ZM5.03125 29.8984L9.0625 41H7.89844L6.20312 36.3359H2.89062L1.16406 41H-0.0078125L4.07031 29.8984H5.03125ZM15.6147 31V36.2188H17.1616C17.8803 36.2188 18.4949 35.9635 19.0053 35.4531C19.5157 34.9427 19.7709 34.3255 19.7709 33.6016C19.7709 32.8828 19.5157 32.2708 19.0053 31.7656C18.4949 31.2552 17.8803 31 17.1616 31H15.6147ZM17.2162 37.3281H15.6147V41H14.5131V29.8984H17.56C18.4402 30.013 19.1824 30.375 19.7866 30.9844C20.5105 31.7135 20.8725 32.5859 20.8725 33.6016C20.8725 34.6328 20.5105 35.5104 19.7866 36.2344C19.2814 36.7344 18.8178 37.0365 18.3959 37.1406L20.9037 41H19.5678L17.2162 37.3281ZM35.4325 38.7266L36.2606 39.4688C35.0419 40.5729 33.7007 41.125 32.2372 41.125C30.6643 41.125 29.3231 40.5729 28.2137 39.4688C27.1096 38.3594 26.5575 37.0182 26.5575 35.4453C26.5575 33.8828 27.1096 32.5469 28.2137 31.4375C29.3231 30.3229 30.6643 29.7656 32.2372 29.7656C33.7007 29.7656 35.0419 30.3229 36.2606 31.4375L35.4325 32.1719C34.4585 31.3125 33.3934 30.8828 32.2372 30.8828C30.9768 30.8828 29.8986 31.3281 29.0028 32.2188C28.1122 33.1094 27.6669 34.1849 27.6669 35.4453C27.6669 36.7109 28.1122 37.7917 29.0028 38.6875C29.8986 39.5781 30.9768 40.0234 32.2372 40.0234C33.3934 40.0234 34.4585 39.5911 35.4325 38.7266ZM43.1566 36V41H42.055V29.8984H43.1566V34.8984H48.0863V29.8984H49.1878V41H48.0863V36H43.1566ZM56.5447 29.8984V41H55.4431V29.8984H56.5447ZM66.0969 30.9922V41H65.0031V30.9922H62.3156V29.8984H68.7766V30.9922H66.0969ZM80.2741 29.8984V30.9922H75.5709V34.8984H80.2741V36H75.5709V39.8984H80.2741V41H74.4694V29.8984H80.2741ZM95.17 38.7266L95.9981 39.4688C94.7794 40.5729 93.4382 41.125 91.9747 41.125C90.4018 41.125 89.0606 40.5729 87.9512 39.4688C86.8471 38.3594 86.295 37.0182 86.295 35.4453C86.295 33.8828 86.8471 32.5469 87.9512 31.4375C89.0606 30.3229 90.4018 29.7656 91.9747 29.7656C93.4382 29.7656 94.7794 30.3229 95.9981 31.4375L95.17 32.1719C94.196 31.3125 93.1309 30.8828 91.9747 30.8828C90.7143 30.8828 89.6361 31.3281 88.7403 32.2188C87.8497 33.1094 87.4044 34.1849 87.4044 35.4453C87.4044 36.7109 87.8497 37.7917 88.7403 38.6875C89.6361 39.5781 90.7143 40.0234 91.9747 40.0234C93.1309 40.0234 94.196 39.5911 95.17 38.7266ZM105.089 30.9922V41H103.996V30.9922H101.308V29.8984H107.769V30.9922H105.089ZM116.509 35.1094C115.722 34.849 115.089 34.4818 114.61 34.0078C114.136 33.5339 113.899 32.9479 113.899 32.25C113.899 31.5729 114.142 30.9896 114.626 30.5C115.116 30.0104 115.707 29.7656 116.399 29.7656C117.082 29.7656 117.67 30.0104 118.165 30.5C118.431 30.7604 118.644 31.1302 118.806 31.6094L117.806 32C117.681 31.6615 117.54 31.4141 117.384 31.2578C117.113 30.987 116.785 30.8516 116.399 30.8516C116.014 30.8516 115.683 30.987 115.407 31.2578C115.136 31.5286 115.001 31.8594 115.001 32.25C115.001 32.6406 115.136 32.9714 115.407 33.2422C115.683 33.5182 116.069 33.7708 116.563 34C117.444 34.2812 118.188 34.7266 118.798 35.3359C119.454 35.9974 119.782 36.7943 119.782 37.7266C119.782 38.6641 119.451 39.4661 118.79 40.1328C118.129 40.7943 117.332 41.125 116.399 41.125C115.457 41.125 114.657 40.7917 114.001 40.125C113.47 39.5938 113.142 38.9089 113.017 38.0703L114.071 37.6953C114.149 38.4193 114.381 38.974 114.767 39.3594C115.22 39.8073 115.764 40.0312 116.399 40.0312C117.035 40.0312 117.576 39.8073 118.024 39.3594C118.478 38.9062 118.704 38.362 118.704 37.7266C118.704 37.0964 118.48 36.5547 118.032 36.1016C117.616 35.6849 117.108 35.3542 116.509 35.1094Z" fill="#CCA178"/>
</svg>
