<svg width="204" height="41" viewBox="0 0 204 41" fill="none" xmlns="http://www.w3.org/2000/svg">
<path d="M5.9375 11.8008C5.85938 11.8008 5.73438 11.8008 5.5625 11.8008C5.39844 11.8008 5.23828 11.7969 5.08203 11.7891V15.2578C5.08203 15.6953 5.07422 16.0703 5.05859 16.3828C5.05078 16.6953 5.03125 16.9531 5 17.1562L7.21484 17.0391V18.1172H1.33203V17.3203C1.78516 17.3047 2.125 17.2227 2.35156 17.0742C2.57812 16.9258 2.73828 16.7227 2.83203 16.4648C2.92578 16.207 2.97266 15.9023 2.97266 15.5508C2.98047 15.1914 2.98438 14.8008 2.98438 14.3789V4.00781C2.98438 3.67969 2.98828 3.37109 2.99609 3.08203C3.01172 2.78516 3.03516 2.51562 3.06641 2.27344L1.33203 2.37891V1.3125C2.17578 1.29688 3.04297 1.28906 3.93359 1.28906C4.82422 1.28125 5.74219 1.27734 6.6875 1.27734C9.01562 1.27734 10.7852 1.66797 11.9961 2.44922C13.293 3.30078 13.9414 4.54688 13.9414 6.1875C13.9414 6.52344 13.9023 6.89453 13.8242 7.30078C13.7539 7.70703 13.6055 8.12891 13.3789 8.56641C13.1523 8.99609 12.8398 9.41016 12.4414 9.80859C12.0508 10.1992 11.5547 10.543 10.9531 10.8398C10.3594 11.1289 9.64844 11.3633 8.82031 11.543C7.99219 11.7148 7.03125 11.8008 5.9375 11.8008ZM5.08203 10.793C5.37891 10.832 5.63672 10.8555 5.85547 10.8633C6.08203 10.8711 6.34375 10.875 6.64062 10.875C7.32031 10.875 7.96094 10.7734 8.5625 10.5703C9.17188 10.3672 9.69922 10.0742 10.1445 9.69141C10.5977 9.30078 10.9531 8.82812 11.2109 8.27344C11.4766 7.71875 11.6094 7.08984 11.6094 6.38672C11.6094 5.62891 11.4883 4.98438 11.2461 4.45312C11.0039 3.92188 10.6641 3.49219 10.2266 3.16406C9.78906 2.82812 9.26562 2.58594 8.65625 2.4375C8.04688 2.28906 7.375 2.21484 6.64062 2.21484C6.21094 2.21484 5.88672 2.28516 5.66797 2.42578C5.45703 2.55859 5.30469 2.75 5.21094 3C5.125 3.25 5.08203 3.55078 5.08203 3.90234C5.08203 4.24609 5.08203 4.63281 5.08203 5.0625V10.793ZM25.1525 6.64453C24.5197 6.64453 23.9767 6.78516 23.5236 7.06641C23.0783 7.34766 22.7111 7.72266 22.422 8.19141C22.133 8.66016 21.9181 9.19922 21.7775 9.80859C21.6447 10.418 21.5783 11.0508 21.5783 11.707C21.5783 12.4492 21.6525 13.1719 21.8009 13.875C21.9572 14.5781 22.1916 15.2031 22.5041 15.75C22.8166 16.2891 23.2072 16.7227 23.6759 17.0508C24.1525 17.3789 24.7072 17.543 25.34 17.543C25.9728 17.543 26.5041 17.4023 26.9338 17.1211C27.3713 16.832 27.7228 16.4531 27.9884 15.9844C28.2619 15.5156 28.4572 14.9805 28.5744 14.3789C28.6916 13.7773 28.7502 13.1602 28.7502 12.5273C28.7502 11.8086 28.6838 11.0977 28.5509 10.3945C28.4181 9.69141 28.2072 9.0625 27.9181 8.50781C27.6291 7.95312 27.2541 7.50391 26.7931 7.16016C26.34 6.81641 25.7931 6.64453 25.1525 6.64453ZM25.1525 5.73047C25.9963 5.73047 26.7853 5.88672 27.5197 6.19922C28.2541 6.50391 28.8908 6.92969 29.4298 7.47656C29.9767 8.01562 30.4064 8.66016 30.7189 9.41016C31.0392 10.1523 31.1994 10.957 31.1994 11.8242C31.1994 12.7539 31.0431 13.625 30.7306 14.4375C30.4259 15.25 30.0002 15.957 29.4533 16.5586C28.9142 17.1602 28.2736 17.6367 27.5314 17.9883C26.797 18.332 26.0041 18.5039 25.1525 18.5039C24.3088 18.5039 23.5197 18.3555 22.7853 18.0586C22.0588 17.7539 21.422 17.332 20.8752 16.793C20.3361 16.2539 19.9103 15.6133 19.5978 14.8711C19.2853 14.1211 19.1291 13.3008 19.1291 12.4102C19.1291 11.4648 19.2814 10.5859 19.5861 9.77344C19.8986 8.95312 20.3244 8.24609 20.8634 7.65234C21.4025 7.05078 22.0392 6.58203 22.7736 6.24609C23.508 5.90234 24.3009 5.73047 25.1525 5.73047ZM37.8402 3.11719C37.8402 2.86719 37.8402 2.625 37.8402 2.39062C37.848 2.15625 37.8714 1.87891 37.9105 1.55859L36.2113 1.65234V0.644531C36.7347 0.644531 37.1683 0.628906 37.512 0.597656C37.8636 0.558594 38.1488 0.507812 38.3675 0.445312C38.5863 0.382812 38.7581 0.316406 38.8831 0.246094C39.0081 0.167969 39.1175 0.0859375 39.2113 0H39.9027V7.16016C40.348 6.71484 40.8753 6.36719 41.4847 6.11719C42.1019 5.85938 42.7894 5.73047 43.5472 5.73047C44.3128 5.73047 45.0238 5.875 45.68 6.16406C46.3441 6.44531 46.9183 6.85156 47.4027 7.38281C47.8948 7.90625 48.2777 8.54688 48.5511 9.30469C48.8323 10.0547 48.973 10.8984 48.973 11.8359C48.973 12.8594 48.7972 13.7812 48.4456 14.6016C48.1019 15.4219 47.6409 16.1211 47.0628 16.6992C46.4925 17.2773 45.8284 17.7227 45.0706 18.0352C44.3206 18.3477 43.5433 18.5039 42.7386 18.5039C42.4652 18.5039 42.1761 18.4805 41.8714 18.4336C41.5667 18.3945 41.2581 18.3164 40.9456 18.1992C40.6331 18.0898 40.3284 17.9414 40.0316 17.7539C39.7347 17.5664 39.4613 17.3281 39.2113 17.0391L38.637 18.1172H37.7933L37.8402 3.11719ZM42.8089 6.91406C42.2777 6.91406 41.7542 7.03906 41.2386 7.28906C40.723 7.53125 40.2777 7.85938 39.9027 8.27344V14.3438C39.9027 14.9844 39.9808 15.5117 40.137 15.9258C40.2933 16.332 40.5042 16.6562 40.7698 16.8984C41.0355 17.1328 41.3363 17.2969 41.6722 17.3906C42.0159 17.4766 42.3714 17.5195 42.7386 17.5195C43.3167 17.5195 43.8363 17.3984 44.2972 17.1562C44.7659 16.9062 45.1605 16.5586 45.4808 16.1133C45.8089 15.6602 46.0589 15.1211 46.2308 14.4961C46.4105 13.8711 46.5003 13.1797 46.5003 12.4219C46.5003 11.6172 46.4222 10.8789 46.2659 10.207C46.1175 9.52734 45.8909 8.94531 45.5863 8.46094C45.2816 7.97656 44.8988 7.59766 44.4378 7.32422C43.9769 7.05078 43.4339 6.91406 42.8089 6.91406ZM60.9106 6.66797C59.9731 6.66797 59.1997 6.94531 58.5903 7.5C57.9809 8.04688 57.5786 8.9375 57.3833 10.1719H63.5005C63.5005 9.75 63.4536 9.33203 63.3598 8.91797C63.2661 8.49609 63.1138 8.12109 62.9028 7.79297C62.6997 7.45703 62.4341 7.1875 62.1059 6.98438C61.7778 6.77344 61.3794 6.66797 60.9106 6.66797ZM65.7622 11.0391L57.313 11.1797C57.3052 12.1016 57.3755 12.9375 57.5239 13.6875C57.6723 14.4375 57.9067 15.0781 58.227 15.6094C58.5473 16.1406 58.9575 16.5508 59.4575 16.8398C59.9653 17.1289 60.5708 17.2734 61.2739 17.2734C61.6489 17.2734 62.0317 17.2227 62.4223 17.1211C62.813 17.0195 63.188 16.8828 63.5473 16.7109C63.9145 16.5312 64.2505 16.3203 64.5552 16.0781C64.8598 15.8281 65.1138 15.5625 65.3169 15.2812L65.9028 15.7617C65.5747 16.2617 65.1919 16.6875 64.7544 17.0391C64.3247 17.3828 63.8755 17.6641 63.4067 17.8828C62.9458 18.1016 62.4809 18.2578 62.0122 18.3516C61.5434 18.4531 61.1059 18.5039 60.6997 18.5039C59.8716 18.5039 59.0981 18.3555 58.3794 18.0586C57.6684 17.7617 57.0513 17.3359 56.5278 16.7812C56.0044 16.2266 55.5903 15.5586 55.2856 14.7773C54.9888 13.9961 54.8403 13.1172 54.8403 12.1406C54.8403 11.2969 54.9848 10.4922 55.2739 9.72656C55.563 8.95312 55.9731 8.26953 56.5044 7.67578C57.0356 7.08203 57.6723 6.60938 58.4145 6.25781C59.1567 5.90625 59.9809 5.73047 60.8872 5.73047C61.5513 5.73047 62.1763 5.83984 62.7622 6.05859C63.3559 6.27734 63.8755 6.60547 64.3208 7.04297C64.7661 7.48047 65.1177 8.03516 65.3755 8.70703C65.6333 9.37109 65.7622 10.1484 65.7622 11.0391ZM82.5866 15.5742C82.5866 15.8242 82.5788 16.0781 82.5631 16.3359C82.5553 16.5859 82.5319 16.875 82.4928 17.2031L84.192 17.1094V18.1172H80.7584C80.7194 17.8828 80.6881 17.6641 80.6647 17.4609C80.6413 17.2578 80.6217 17.0586 80.6061 16.8633C80.1452 17.3633 79.5866 17.7617 78.9303 18.0586C78.2819 18.3555 77.5553 18.5039 76.7506 18.5039C76.0084 18.5039 75.3209 18.3633 74.6881 18.082C74.0631 17.8008 73.5163 17.3984 73.0475 16.875C72.5866 16.3516 72.2233 15.7188 71.9577 14.9766C71.6998 14.2266 71.5709 13.3867 71.5709 12.457C71.5709 11.4805 71.7233 10.582 72.028 9.76172C72.3405 8.93359 72.7702 8.22266 73.317 7.62891C73.8639 7.02734 74.5123 6.5625 75.2623 6.23438C76.0202 5.89844 76.8444 5.73047 77.735 5.73047C78.0006 5.73047 78.2663 5.75 78.5319 5.78906C78.7975 5.82812 79.0514 5.87891 79.2936 5.94141C79.5436 6.00391 79.7741 6.07422 79.985 6.15234C80.1959 6.23047 80.3795 6.3125 80.5358 6.39844L80.5475 3.11719C80.5475 2.86719 80.5475 2.625 80.5475 2.39062C80.5553 2.15625 80.5788 1.87891 80.6178 1.55859L78.9186 1.65234V0.644531C79.442 0.644531 79.8756 0.628906 80.2194 0.597656C80.5631 0.558594 80.8444 0.507812 81.0631 0.445312C81.2819 0.382812 81.4498 0.316406 81.567 0.246094C81.692 0.167969 81.8014 0.0859375 81.8952 0H82.5866V15.5742ZM77.6178 17.3203C77.8834 17.3203 78.153 17.2812 78.4264 17.2031C78.6998 17.125 78.9616 17.0156 79.2116 16.875C79.4694 16.7344 79.7077 16.5703 79.9264 16.3828C80.153 16.1875 80.3561 15.9766 80.5358 15.75C80.528 15.5547 80.5241 15.3477 80.5241 15.1289C80.5241 14.9102 80.5241 14.6758 80.5241 14.4258L80.5358 7.51172C80.153 7.21484 79.735 7.00391 79.2819 6.87891C78.8288 6.74609 78.3639 6.67969 77.8873 6.67969C77.2858 6.67969 76.7428 6.8125 76.2584 7.07812C75.7741 7.34375 75.36 7.72266 75.0163 8.21484C74.6803 8.69922 74.4342 9.25391 74.278 9.87891C74.1217 10.5039 74.0436 11.2891 74.0436 12.2344C74.0436 12.8828 74.1295 13.543 74.3014 14.2148C74.4811 14.8789 74.7194 15.4375 75.0163 15.8906C75.3209 16.3359 75.6881 16.6875 76.1178 16.9453C76.5553 17.1953 77.0553 17.3203 77.6178 17.3203ZM95.7781 6.64453C95.1453 6.64453 94.6023 6.78516 94.1492 7.06641C93.7039 7.34766 93.3367 7.72266 93.0477 8.19141C92.7586 8.66016 92.5437 9.19922 92.4031 9.80859C92.2703 10.418 92.2039 11.0508 92.2039 11.707C92.2039 12.4492 92.2781 13.1719 92.4266 13.875C92.5828 14.5781 92.8172 15.2031 93.1297 15.75C93.4422 16.2891 93.8328 16.7227 94.3016 17.0508C94.7781 17.3789 95.3328 17.543 95.9656 17.543C96.5984 17.543 97.1297 17.4023 97.5594 17.1211C97.9969 16.832 98.3484 16.4531 98.6141 15.9844C98.8875 15.5156 99.0828 14.9805 99.2 14.3789C99.3172 13.7773 99.3758 13.1602 99.3758 12.5273C99.3758 11.8086 99.3094 11.0977 99.1766 10.3945C99.0437 9.69141 98.8328 9.0625 98.5437 8.50781C98.2547 7.95312 97.8797 7.50391 97.4187 7.16016C96.9656 6.81641 96.4187 6.64453 95.7781 6.64453ZM95.7781 5.73047C96.6219 5.73047 97.4109 5.88672 98.1453 6.19922C98.8797 6.50391 99.5164 6.92969 100.055 7.47656C100.602 8.01562 101.032 8.66016 101.345 9.41016C101.665 10.1523 101.825 10.957 101.825 11.8242C101.825 12.7539 101.669 13.625 101.356 14.4375C101.052 15.25 100.626 15.957 100.079 16.5586C99.5398 17.1602 98.8992 17.6367 98.157 17.9883C97.4227 18.332 96.6297 18.5039 95.7781 18.5039C94.9344 18.5039 94.1453 18.3555 93.4109 18.0586C92.6844 17.7539 92.0477 17.332 91.5008 16.793C90.9617 16.2539 90.5359 15.6133 90.2234 14.8711C89.9109 14.1211 89.7547 13.3008 89.7547 12.4102C89.7547 11.4648 89.907 10.5859 90.2117 9.77344C90.5242 8.95312 90.95 8.24609 91.4891 7.65234C92.0281 7.05078 92.6648 6.58203 93.3992 6.24609C94.1336 5.90234 94.9266 5.73047 95.7781 5.73047ZM109.145 9C109.145 8.75 109.149 8.49609 109.157 8.23828C109.165 7.98047 109.192 7.71484 109.239 7.44141L107.54 7.53516V6.52734C108.063 6.52734 108.489 6.51172 108.817 6.48047C109.145 6.44141 109.407 6.39062 109.603 6.32812C109.806 6.26562 109.962 6.19922 110.071 6.12891C110.181 6.05078 110.282 5.96875 110.376 5.88281H111.067C111.083 6.0625 111.099 6.26953 111.114 6.50391C111.138 6.73047 111.157 7.00781 111.173 7.33594C111.431 7.10938 111.712 6.89844 112.017 6.70312C112.329 6.50781 112.653 6.33984 112.989 6.19922C113.325 6.05078 113.669 5.9375 114.02 5.85938C114.38 5.77344 114.731 5.73047 115.075 5.73047C116.466 5.73047 117.481 6.16797 118.122 7.04297C118.763 7.91016 119.083 9.26172 119.083 11.0977V15.5742C119.083 15.8945 119.079 16.1797 119.071 16.4297C119.063 16.6719 119.036 16.9297 118.989 17.2031L120.501 17.1328V18.1172H115.603V17.4023C115.97 17.4023 116.247 17.332 116.435 17.1914C116.63 17.043 116.77 16.8398 116.856 16.582C116.942 16.3242 116.989 16.0156 116.997 15.6562C117.013 15.2969 117.02 14.9023 117.02 14.4727V11.1211C117.005 9.73828 116.778 8.69922 116.341 8.00391C115.903 7.30078 115.208 6.94922 114.255 6.94922C113.966 6.94922 113.677 6.99219 113.388 7.07812C113.099 7.16406 112.821 7.27734 112.556 7.41797C112.29 7.55078 112.04 7.71094 111.806 7.89844C111.571 8.08594 111.368 8.28906 111.196 8.50781C111.204 8.64844 111.208 8.80078 111.208 8.96484C111.208 9.12109 111.208 9.28125 111.208 9.44531L111.185 15.5742C111.185 15.8945 111.181 16.1797 111.173 16.4297C111.165 16.6719 111.138 16.9297 111.091 17.2031L112.603 17.1328V18.1172H107.704V17.4023C108.071 17.4023 108.349 17.332 108.536 17.1914C108.731 17.043 108.868 16.8398 108.946 16.582C109.032 16.3242 109.079 16.0156 109.087 15.6562C109.103 15.2969 109.114 14.9023 109.122 14.4727L109.145 9ZM132.075 6.64453C131.442 6.64453 130.9 6.78516 130.446 7.06641C130.001 7.34766 129.634 7.72266 129.345 8.19141C129.056 8.66016 128.841 9.19922 128.7 9.80859C128.567 10.418 128.501 11.0508 128.501 11.707C128.501 12.4492 128.575 13.1719 128.724 13.875C128.88 14.5781 129.114 15.2031 129.427 15.75C129.739 16.2891 130.13 16.7227 130.599 17.0508C131.075 17.3789 131.63 17.543 132.263 17.543C132.896 17.543 133.427 17.4023 133.857 17.1211C134.294 16.832 134.646 16.4531 134.911 15.9844C135.185 15.5156 135.38 14.9805 135.497 14.3789C135.614 13.7773 135.673 13.1602 135.673 12.5273C135.673 11.8086 135.607 11.0977 135.474 10.3945C135.341 9.69141 135.13 9.0625 134.841 8.50781C134.552 7.95312 134.177 7.50391 133.716 7.16016C133.263 6.81641 132.716 6.64453 132.075 6.64453ZM132.075 5.73047C132.919 5.73047 133.708 5.88672 134.442 6.19922C135.177 6.50391 135.814 6.92969 136.353 7.47656C136.9 8.01562 137.329 8.66016 137.642 9.41016C137.962 10.1523 138.122 10.957 138.122 11.8242C138.122 12.7539 137.966 13.625 137.653 14.4375C137.349 15.25 136.923 15.957 136.376 16.5586C135.837 17.1602 135.196 17.6367 134.454 17.9883C133.72 18.332 132.927 18.5039 132.075 18.5039C131.232 18.5039 130.442 18.3555 129.708 18.0586C128.982 17.7539 128.345 17.332 127.798 16.793C127.259 16.2539 126.833 15.6133 126.521 14.8711C126.208 14.1211 126.052 13.3008 126.052 12.4102C126.052 11.4648 126.204 10.5859 126.509 9.77344C126.821 8.95312 127.247 8.24609 127.786 7.65234C128.325 7.05078 128.962 6.58203 129.696 6.24609C130.431 5.90234 131.224 5.73047 132.075 5.73047ZM148.501 17.5664C148.806 17.5664 149.111 17.5312 149.415 17.4609C149.728 17.3828 150.009 17.2656 150.259 17.1094C150.517 16.9531 150.724 16.7578 150.88 16.5234C151.044 16.2812 151.126 15.9961 151.126 15.668C151.126 15.2852 151.025 14.9609 150.822 14.6953C150.626 14.4219 150.365 14.1836 150.036 13.9805C149.716 13.7695 149.345 13.582 148.923 13.418C148.509 13.2539 148.083 13.0859 147.646 12.9141C147.216 12.7422 146.794 12.5547 146.38 12.3516C145.966 12.1406 145.595 11.8945 145.267 11.6133C144.947 11.332 144.685 10.9961 144.482 10.6055C144.286 10.2148 144.189 9.75 144.189 9.21094C144.189 8.875 144.251 8.50781 144.376 8.10938C144.501 7.70312 144.72 7.32422 145.033 6.97266C145.345 6.62109 145.763 6.32812 146.286 6.09375C146.818 5.85156 147.486 5.73047 148.29 5.73047C148.509 5.73047 148.74 5.74609 148.982 5.77734C149.232 5.80859 149.486 5.86719 149.743 5.95312C150.001 6.03125 150.259 6.13672 150.517 6.26953C150.775 6.40234 151.029 6.56641 151.279 6.76172L151.22 5.84766H152.228V10.0547H151.478C151.447 9.64062 151.365 9.23047 151.232 8.82422C151.107 8.41797 150.919 8.05469 150.669 7.73438C150.427 7.40625 150.118 7.14062 149.743 6.9375C149.368 6.73438 148.923 6.63281 148.408 6.63281C148.033 6.63281 147.7 6.68359 147.411 6.78516C147.122 6.87891 146.876 7.01172 146.673 7.18359C146.478 7.34766 146.329 7.53906 146.228 7.75781C146.126 7.97656 146.075 8.20703 146.075 8.44922C146.075 8.83984 146.173 9.17578 146.368 9.45703C146.572 9.73828 146.837 9.98828 147.165 10.207C147.493 10.4258 147.868 10.625 148.29 10.8047C148.712 10.9766 149.142 11.1562 149.579 11.3438C150.017 11.5234 150.447 11.7188 150.868 11.9297C151.29 12.1328 151.665 12.375 151.993 12.6562C152.322 12.9375 152.583 13.2656 152.779 13.6406C152.982 14.0156 153.083 14.4609 153.083 14.9766C153.083 15.5781 152.962 16.1016 152.72 16.5469C152.478 16.9922 152.158 17.3594 151.759 17.6484C151.368 17.9375 150.923 18.1523 150.423 18.293C149.931 18.4336 149.431 18.5039 148.923 18.5039C148.111 18.5039 147.396 18.3945 146.779 18.1758C146.161 17.9648 145.654 17.7227 145.255 17.4492L145.337 18.2812H144.329L144.189 14.1562H144.927C144.958 14.6562 145.072 15.1172 145.267 15.5391C145.47 15.9531 145.732 16.3125 146.052 16.6172C146.38 16.9141 146.751 17.1484 147.165 17.3203C147.587 17.4844 148.033 17.5664 148.501 17.5664ZM167.716 7.91016C167.607 7.62891 167.447 7.40625 167.236 7.24219C167.025 7.07031 166.794 6.9375 166.544 6.84375C166.302 6.75 166.056 6.69141 165.806 6.66797C165.564 6.63672 165.361 6.62109 165.197 6.62109C164.65 6.62109 164.138 6.73438 163.662 6.96094C163.193 7.17969 162.787 7.50391 162.443 7.93359C162.099 8.36328 161.826 8.89844 161.622 9.53906C161.427 10.1797 161.33 10.9141 161.33 11.7422C161.33 12.5391 161.427 13.2773 161.622 13.957C161.826 14.6289 162.107 15.2109 162.466 15.7031C162.826 16.1875 163.259 16.5664 163.767 16.8398C164.275 17.1133 164.837 17.25 165.455 17.25C165.83 17.25 166.201 17.1992 166.568 17.0977C166.935 16.9883 167.283 16.8398 167.611 16.6523C167.939 16.4648 168.24 16.2461 168.513 15.9961C168.794 15.7461 169.033 15.4766 169.228 15.1875L169.849 15.668C169.529 16.168 169.162 16.5977 168.747 16.957C168.341 17.3086 167.912 17.6016 167.458 17.8359C167.013 18.0625 166.56 18.2305 166.099 18.3398C165.646 18.4492 165.216 18.5039 164.81 18.5039C163.997 18.5039 163.232 18.3672 162.513 18.0938C161.794 17.8125 161.165 17.4102 160.626 16.8867C160.087 16.3555 159.662 15.707 159.349 14.9414C159.037 14.1758 158.88 13.3047 158.88 12.3281C158.88 11.7734 158.947 11.2266 159.08 10.6875C159.22 10.1484 159.419 9.63672 159.677 9.15234C159.935 8.66016 160.247 8.20703 160.615 7.79297C160.982 7.37109 161.396 7.00781 161.857 6.70312C162.326 6.39844 162.833 6.16016 163.38 5.98828C163.935 5.81641 164.521 5.73047 165.138 5.73047C165.802 5.73047 166.408 5.8125 166.955 5.97656C167.501 6.14062 167.97 6.35938 168.361 6.63281C168.751 6.90625 169.052 7.22266 169.263 7.58203C169.474 7.93359 169.58 8.30469 169.58 8.69531C169.58 9.03906 169.482 9.33594 169.287 9.58594C169.099 9.82812 168.826 9.95312 168.466 9.96094C168.255 9.96875 168.08 9.9375 167.939 9.86719C167.798 9.78906 167.685 9.69531 167.599 9.58594C167.513 9.47656 167.451 9.35938 167.412 9.23438C167.372 9.10156 167.353 8.98438 167.353 8.88281C167.353 8.72656 167.376 8.5625 167.423 8.39062C167.478 8.21875 167.576 8.05859 167.716 7.91016ZM181.47 6.66797C180.533 6.66797 179.759 6.94531 179.15 7.5C178.541 8.04688 178.138 8.9375 177.943 10.1719H184.06C184.06 9.75 184.013 9.33203 183.92 8.91797C183.826 8.49609 183.673 8.12109 183.462 7.79297C183.259 7.45703 182.994 7.1875 182.666 6.98438C182.337 6.77344 181.939 6.66797 181.47 6.66797ZM186.322 11.0391L177.873 11.1797C177.865 12.1016 177.935 12.9375 178.084 13.6875C178.232 14.4375 178.466 15.0781 178.787 15.6094C179.107 16.1406 179.517 16.5508 180.017 16.8398C180.525 17.1289 181.13 17.2734 181.834 17.2734C182.209 17.2734 182.591 17.2227 182.982 17.1211C183.373 17.0195 183.748 16.8828 184.107 16.7109C184.474 16.5312 184.81 16.3203 185.115 16.0781C185.42 15.8281 185.673 15.5625 185.877 15.2812L186.462 15.7617C186.134 16.2617 185.752 16.6875 185.314 17.0391C184.884 17.3828 184.435 17.6641 183.966 17.8828C183.505 18.1016 183.041 18.2578 182.572 18.3516C182.103 18.4531 181.666 18.5039 181.259 18.5039C180.431 18.5039 179.658 18.3555 178.939 18.0586C178.228 17.7617 177.611 17.3359 177.087 16.7812C176.564 16.2266 176.15 15.5586 175.845 14.7773C175.548 13.9961 175.4 13.1172 175.4 12.1406C175.4 11.2969 175.545 10.4922 175.834 9.72656C176.123 8.95312 176.533 8.26953 177.064 7.67578C177.595 7.08203 178.232 6.60938 178.974 6.25781C179.716 5.90625 180.541 5.73047 181.447 5.73047C182.111 5.73047 182.736 5.83984 183.322 6.05859C183.916 6.27734 184.435 6.60547 184.88 7.04297C185.326 7.48047 185.677 8.03516 185.935 8.70703C186.193 9.37109 186.322 10.1484 186.322 11.0391ZM197.697 18.1875H196.736L193.303 10.3594C193.107 9.90625 192.943 9.50391 192.81 9.15234C192.685 8.80078 192.584 8.49219 192.506 8.22656C192.435 7.95312 192.385 7.72266 192.353 7.53516C192.322 7.33984 192.303 7.17188 192.295 7.03125L191.263 7.10156V6.11719H195.681V6.83203C195.314 6.83203 195.049 6.90625 194.885 7.05469C194.728 7.20312 194.642 7.40234 194.627 7.65234C194.611 7.89453 194.65 8.17578 194.744 8.49609C194.845 8.81641 194.974 9.15234 195.131 9.50391L196.97 13.7227C197.095 13.9961 197.217 14.2852 197.334 14.5898C197.451 14.8867 197.572 15.1875 197.697 15.4922H197.72C197.806 15.2578 197.896 15.0078 197.99 14.7422C198.092 14.4766 198.189 14.2109 198.283 13.9453L200.193 8.68359C200.326 8.30078 200.459 7.96484 200.592 7.67578C200.732 7.38672 200.838 7.17188 200.908 7.03125L199.373 7.10156V6.11719H203.17V6.83203C202.904 6.83203 202.674 6.90234 202.478 7.04297C202.283 7.17578 202.099 7.37891 201.928 7.65234C201.756 7.91797 201.584 8.25391 201.412 8.66016C201.24 9.06641 201.049 9.53906 200.838 10.0781L197.697 18.1875Z" fill="white"/>
<path d="M5.8125 34.3594L4.55469 30.8906L3.29688 34.3594H5.8125ZM5.03906 29.0156L9.07031 40.1172H7.90625L6.21094 35.4531H2.89844L1.17188 40.1172H0L4.07812 29.0156H5.03906ZM15.6225 30.1172V35.3359H17.1694C17.8881 35.3359 18.5027 35.0807 19.0131 34.5703C19.5235 34.0599 19.7787 33.4427 19.7787 32.7188C19.7787 32 19.5235 31.388 19.0131 30.8828C18.5027 30.3724 17.8881 30.1172 17.1694 30.1172H15.6225ZM17.2241 36.4453H15.6225V40.1172H14.5209V29.0156H17.5678C18.448 29.1302 19.1902 29.4922 19.7944 30.1016C20.5183 30.8307 20.8803 31.7031 20.8803 32.7188C20.8803 33.75 20.5183 34.6276 19.7944 35.3516C19.2892 35.8516 18.8256 36.1536 18.4037 36.2578L20.9116 40.1172H19.5756L17.2241 36.4453ZM35.4403 37.8438L36.2684 38.5859C35.0497 39.6901 33.7085 40.2422 32.245 40.2422C30.6721 40.2422 29.3309 39.6901 28.2216 38.5859C27.1174 37.4766 26.5653 36.1354 26.5653 34.5625C26.5653 33 27.1174 31.6641 28.2216 30.5547C29.3309 29.4401 30.6721 28.8828 32.245 28.8828C33.7085 28.8828 35.0497 29.4401 36.2684 30.5547L35.4403 31.2891C34.4664 30.4297 33.4012 30 32.245 30C30.9846 30 29.9065 30.4453 29.0106 31.3359C28.12 32.2266 27.6747 33.3021 27.6747 34.5625C27.6747 35.8281 28.12 36.9089 29.0106 37.8047C29.9065 38.6953 30.9846 39.1406 32.245 39.1406C33.4012 39.1406 34.4664 38.7083 35.4403 37.8438ZM43.1644 35.1172V40.1172H42.0628V29.0156H43.1644V34.0156H48.0941V29.0156H49.1956V40.1172H48.0941V35.1172H43.1644ZM56.5525 29.0156V40.1172H55.4509V29.0156H56.5525ZM66.1047 30.1094V40.1172H65.0109V30.1094H62.3234V29.0156H68.7844V30.1094H66.1047ZM80.2819 29.0156V30.1094H75.5788V34.0156H80.2819V35.1172H75.5788V39.0156H80.2819V40.1172H74.4772V29.0156H80.2819ZM95.1778 37.8438L96.0059 38.5859C94.7872 39.6901 93.446 40.2422 91.9825 40.2422C90.4096 40.2422 89.0684 39.6901 87.9591 38.5859C86.8549 37.4766 86.3028 36.1354 86.3028 34.5625C86.3028 33 86.8549 31.6641 87.9591 30.5547C89.0684 29.4401 90.4096 28.8828 91.9825 28.8828C93.446 28.8828 94.7872 29.4401 96.0059 30.5547L95.1778 31.2891C94.2039 30.4297 93.1387 30 91.9825 30C90.7221 30 89.644 30.4453 88.7481 31.3359C87.8575 32.2266 87.4122 33.3021 87.4122 34.5625C87.4122 35.8281 87.8575 36.9089 88.7481 37.8047C89.644 38.6953 90.7221 39.1406 91.9825 39.1406C93.1387 39.1406 94.2039 38.7083 95.1778 37.8438ZM105.097 30.1094V40.1172H104.003V30.1094H101.316V29.0156H107.777V30.1094H105.097ZM116.517 34.2266C115.73 33.9661 115.097 33.599 114.618 33.125C114.144 32.651 113.907 32.0651 113.907 31.3672C113.907 30.6901 114.149 30.1068 114.634 29.6172C115.123 29.1276 115.714 28.8828 116.407 28.8828C117.089 28.8828 117.678 29.1276 118.173 29.6172C118.438 29.8776 118.652 30.2474 118.813 30.7266L117.813 31.1172C117.688 30.7786 117.548 30.5312 117.392 30.375C117.121 30.1042 116.793 29.9688 116.407 29.9688C116.022 29.9688 115.691 30.1042 115.415 30.375C115.144 30.6458 115.009 30.9766 115.009 31.3672C115.009 31.7578 115.144 32.0885 115.415 32.3594C115.691 32.6354 116.076 32.888 116.571 33.1172C117.451 33.3984 118.196 33.8438 118.806 34.4531C119.462 35.1146 119.79 35.9115 119.79 36.8438C119.79 37.7812 119.459 38.5833 118.798 39.25C118.136 39.9115 117.339 40.2422 116.407 40.2422C115.464 40.2422 114.665 39.9089 114.009 39.2422C113.478 38.7109 113.149 38.026 113.024 37.1875L114.079 36.8125C114.157 37.5365 114.389 38.0911 114.774 38.4766C115.228 38.9245 115.772 39.1484 116.407 39.1484C117.043 39.1484 117.584 38.9245 118.032 38.4766C118.485 38.0234 118.712 37.4792 118.712 36.8438C118.712 36.2135 118.488 35.6719 118.04 35.2188C117.623 34.8021 117.116 34.4714 116.517 34.2266Z" fill="url(#paint0_linear_2051_6731)"/>
<defs>
<linearGradient id="paint0_linear_2051_6731" x1="103.008" y1="-32.8828" x2="103.008" y2="77.1172" gradientUnits="userSpaceOnUse">
<stop stop-color="#E8E8E8"/>
<stop offset="1" stop-color="#9A9A9A"/>
</linearGradient>
</defs>
</svg>
