<svg width="96" height="75" viewBox="0 0 96 75" fill="none" xmlns="http://www.w3.org/2000/svg">
<mask id="mask0" mask-type="alpha" maskUnits="userSpaceOnUse" x="0" y="0" width="95" height="65">
<path fill-rule="evenodd" clip-rule="evenodd" d="M0.927734 0.0664062H94.3766V64.7469H0.927734V0.0664062Z" fill="white"/>
</mask>
<g mask="url(#mask0)">
<path fill-rule="evenodd" clip-rule="evenodd" d="M94.3508 41.2821C94.2096 38.432 93.1499 35.7017 91.4085 33.4365C87.4815 28.3272 86.7159 24.2708 86.7159 24.2708C83.6326 16.1972 80.8913 10.8179 78.8769 7.40347C76.7572 3.81831 73.0913 1.40306 68.957 0.872053C60.6436 -0.202143 34.6615 -0.202143 26.348 0.872053C22.2169 1.40615 18.5511 3.82121 16.4314 7.40347C14.4168 10.8179 11.6786 16.1972 8.59232 24.2708C8.59232 24.2708 7.82661 28.3272 3.89972 33.4365C2.16123 35.7017 1.09848 38.432 0.960313 41.2821C0.663083 47.4657 2.45556 48.8249 4.05879 62.8179C4.18476 63.9189 5.11554 64.747 6.22648 64.747H89.0878C90.1985 64.747 91.1293 63.916 91.2553 62.8179C91.7058 58.8935 93.0418 50.934 93.0418 50.934C94.2127 46.9766 94.4679 43.7513 94.3508 41.2821" fill="#F56363"/>
</g>
<path fill-rule="evenodd" clip-rule="evenodd" d="M85.0731 24.2378C82.658 18.0658 80.195 12.6763 77.7441 8.37996C75.8865 5.13099 72.6096 2.86269 68.9839 2.36637C60.7095 1.24576 35.2605 1.25479 27.0459 2.36637C23.4201 2.86269 20.1432 5.13099 18.2856 8.37996C15.8018 12.7311 13.3062 18.1936 10.9268 24.2378C35.6034 26.22 60.3934 26.22 85.0731 24.2378" fill="#5398FF"/>
<path fill-rule="evenodd" clip-rule="evenodd" d="M81.3336 30.654C80.3901 30.9494 79.5125 31.3644 78.7779 31.7762C77.4403 32.5224 76.0669 33.2178 74.6339 33.7611C72.2573 34.6623 71.8542 36.0085 71.8542 36.0085C71.7826 36.101 71.7139 36.1936 71.6483 36.289C69.845 38.9662 72.2125 42.5298 75.4102 42.0762C80.0349 41.4225 83.8445 40.0825 85.7793 39.3065C86.8869 38.8617 87.7527 37.9364 88.0363 36.7755C88.0633 36.6651 88.0871 36.5546 88.1081 36.4471C88.8186 32.615 85.0567 29.493 81.3336 30.654" fill="#FFFFFE"/>
<mask id="mask1" mask-type="alpha" maskUnits="userSpaceOnUse" x="79" y="18" width="17" height="57">
<path fill-rule="evenodd" clip-rule="evenodd" d="M79.0059 18.002H95.8957V74.1029H79.0059V18.002Z" fill="white"/>
</mask>
<g mask="url(#mask1)">
<path fill-rule="evenodd" clip-rule="evenodd" d="M86.4316 52.6094H81.1554C80.3624 52.6094 79.9643 53.5407 80.5247 54.0883L85.8006 59.2153C86.3611 59.76 87.3225 59.3731 87.3225 58.6023V53.4753C87.3225 52.9962 86.9244 52.6094 86.4316 52.6094" fill="#F8D034"/>
<path fill-rule="evenodd" clip-rule="evenodd" d="M91.3708 62.7955C91.2423 63.8907 90.29 64.7148 89.1569 64.7148H79.0059V70.4402C79.0059 72.4665 80.6963 74.112 82.7846 74.112H89.1601C91.2452 74.112 92.9386 72.4695 92.9386 70.4402V52.5176C92.5192 54.9992 91.7047 59.9597 91.3708 62.7955" fill="#3D3C3E"/>
<path fill-rule="evenodd" clip-rule="evenodd" d="M95.8238 20.2396C95.5174 18.9064 94.2283 18.002 92.8228 18.002H90.275C88.6428 18.002 87.3201 19.2873 87.3201 20.8735V22.638H85.9697L86.7444 24.4264H89.7147C91.2518 24.4264 92.7737 24.105 94.17 23.483C95.4286 22.9237 96.133 21.5846 95.8238 20.2396" fill="#FC7A51"/>
</g>
<path fill-rule="evenodd" clip-rule="evenodd" d="M83.1216 31.9688C85.0613 31.9688 86.6338 33.5412 86.6338 35.4809C86.6338 37.4207 85.0613 38.9931 83.1216 38.9931C81.1818 38.9931 79.6094 37.4207 79.6094 35.4809C79.6094 33.5412 81.1818 31.9688 83.1216 31.9688" fill="#F0A650"/>
<path fill-rule="evenodd" clip-rule="evenodd" d="M76.0979 35.8711C77.6066 35.8711 78.8296 37.0941 78.8296 38.6028C78.8296 40.1115 77.6066 41.3345 76.0979 41.3345C74.5892 41.3345 73.3662 40.1115 73.3662 38.6028C73.3662 37.0941 74.5892 35.8711 76.0979 35.8711" fill="#F8C86B"/>
<path fill-rule="evenodd" clip-rule="evenodd" d="M68.6825 38.2129L64.5192 45.2373H30.6994L26.5361 38.2129H68.6825" fill="#676766"/>
<path fill-rule="evenodd" clip-rule="evenodd" d="M23.5714 36.2895C23.5087 36.1941 23.44 36.1015 23.3654 36.009C23.3654 36.009 22.9623 34.663 20.586 33.7618C19.1532 33.2186 17.783 32.5232 16.4425 31.7771C15.7052 31.3653 14.8305 30.9504 13.8872 30.6549C10.1675 29.491 6.40326 32.6158 7.11074 36.4476C7.13172 36.558 7.15558 36.6655 7.17943 36.7759C7.46304 37.9368 8.32869 38.862 9.43619 39.3067C11.3707 40.0826 15.1798 41.4226 19.807 42.0762C23.0071 42.5297 25.3745 38.9664 23.5714 36.2895" fill="#FFFFFE"/>
<path fill-rule="evenodd" clip-rule="evenodd" d="M14.7211 52.2617H9.47157C8.98104 52.2617 8.58496 52.6578 8.58496 53.1483V58.3977C8.58496 59.1869 9.54167 59.583 10.0992 59.0253L15.3487 53.7759C15.9062 53.2184 15.5101 52.2617 14.7211 52.2617" fill="#F8D034"/>
<mask id="mask2" mask-type="alpha" maskUnits="userSpaceOnUse" x="0" y="18" width="92" height="57">
<path fill-rule="evenodd" clip-rule="evenodd" d="M0 18.002H91.9723V74.1029H0V18.002Z" fill="white"/>
</mask>
<g mask="url(#mask2)">
<path fill-rule="evenodd" clip-rule="evenodd" d="M82.6412 61.5563C77.2445 52.3198 71.0385 52.6084 71.0385 52.6084H25.2202C25.2202 52.6084 19.0173 52.3198 13.6175 61.5563H4.28906L4.40326 62.7466C4.50855 63.8655 5.45318 64.7134 6.58433 64.7134H89.6775C90.8086 64.7134 91.7532 63.8655 91.8585 62.7466L91.9727 61.5563H82.6412" fill="#6E6F6D"/>
<path fill-rule="evenodd" clip-rule="evenodd" d="M6.62039 64.7169C5.50727 64.7169 4.57175 63.8897 4.44534 62.7977C4.11747 59.9618 3.31438 54.9983 2.90527 52.5195V70.4421C2.90527 72.4686 4.56574 74.1142 6.61729 74.1142H12.8805C14.9291 74.1142 16.5927 72.4715 16.5927 70.4421V64.7169H6.62039" fill="#3D3C3E"/>
<path fill-rule="evenodd" clip-rule="evenodd" d="M8.42186 22.638V20.8735C8.42186 19.2873 7.12241 18.002 5.52204 18.002H3.01912C1.63843 18.002 0.371948 18.9064 0.0710314 20.2396C-0.232794 21.5816 0.462107 22.9237 1.69563 23.4801C3.07031 24.1021 4.56248 24.4233 6.0725 24.4233H8.99054L9.75155 22.6351H8.42186V22.638" fill="#FC7A51"/>
</g>
<path fill-rule="evenodd" clip-rule="evenodd" d="M12.0972 31.9688C14.0369 31.9688 15.6094 33.5412 15.6094 35.4809C15.6094 37.4207 14.0369 38.9931 12.0972 38.9931C10.1574 38.9931 8.58496 37.4207 8.58496 35.4809C8.58496 33.5412 10.1574 31.9688 12.0972 31.9688" fill="#F0A650"/>
<path fill-rule="evenodd" clip-rule="evenodd" d="M19.9026 35.8711C21.4113 35.8711 22.6343 37.0941 22.6343 38.6028C22.6343 40.1115 21.4113 41.3345 19.9026 41.3345C18.3939 41.3345 17.1709 40.1115 17.1709 38.6028C17.1709 37.0941 18.3939 35.8711 19.9026 35.8711" fill="#F8C86B"/>
<path fill-rule="evenodd" clip-rule="evenodd" d="M66.8187 55.3828H28.4045C27.8029 55.3828 27.3174 55.9089 27.3174 56.5535C27.3174 57.2014 27.8029 57.7243 28.4045 57.7243H66.8157C67.4173 57.7243 67.9027 57.1983 67.9027 56.5535C67.9058 55.9056 67.4173 55.3828 66.8187 55.3828" fill="#676766"/>
<path fill-rule="evenodd" clip-rule="evenodd" d="M66.8187 59.2852H28.4045C27.8029 59.2852 27.3174 59.8111 27.3174 60.4559C27.3174 61.1038 27.8029 61.6266 28.4045 61.6266H66.8157C67.4173 61.6266 67.9027 61.1005 67.9027 60.4559C67.9058 59.808 67.4173 59.2852 66.8187 59.2852" fill="#676766"/>
</svg>
