<svg width="96" height="71" viewBox="0 0 96 71" fill="none" xmlns="http://www.w3.org/2000/svg">
<path fill-rule="evenodd" clip-rule="evenodd" d="M0.283203 56.0958V23.8916C0.283203 21.8112 1.90373 20.1289 3.89827 20.1289H59.2479C61.2425 20.1289 62.863 21.809 62.863 23.8916V56.0958C62.863 58.179 61.2446 59.8629 59.2479 59.8629H3.89827C1.90373 59.8629 0.283203 58.179 0.283203 56.0958" fill="#CDCDCD"/>
<path fill-rule="evenodd" clip-rule="evenodd" d="M0.283203 38.2983H62.863V28.5801H0.283203V38.2983Z" fill="#606060"/>
<path fill-rule="evenodd" clip-rule="evenodd" d="M51.8105 48.6466H57.1081V45.4199H51.8105V48.6466Z" fill="#606060"/>
<path fill-rule="evenodd" clip-rule="evenodd" d="M44.8184 48.6466H50.1159V45.4199H44.8184V48.6466Z" fill="#606060"/>
<path fill-rule="evenodd" clip-rule="evenodd" d="M37.8232 48.6466H43.1208V45.4199H37.8232V48.6466Z" fill="#606060"/>
<path fill-rule="evenodd" clip-rule="evenodd" d="M30.8311 48.6466H36.1286V45.4199H30.8311V48.6466Z" fill="#606060"/>
<path fill-rule="evenodd" clip-rule="evenodd" d="M35.0776 45.4199H30.8311V48.6466H36.0232L35.0776 45.4199" fill="#989898"/>
<path fill-rule="evenodd" clip-rule="evenodd" d="M16.2688 50.5281C16.2688 53.5429 13.6897 55.9859 10.5069 55.9859C7.3242 55.9859 4.74512 53.5429 4.74512 50.5281C4.74512 47.5122 7.3242 45.0703 10.5069 45.0703C13.6897 45.0703 16.2688 47.5122 16.2688 50.5281" fill="#D42E22"/>
<path fill-rule="evenodd" clip-rule="evenodd" d="M23.0471 50.5281C23.0471 53.5429 20.4679 55.9859 17.2883 55.9859C14.1027 55.9859 11.5234 53.5429 11.5234 50.5281C11.5234 47.5122 14.1027 45.0703 17.2883 45.0703C20.4679 45.0703 23.0471 47.5122 23.0471 50.5281" fill="#5587BD"/>
<path fill-rule="evenodd" clip-rule="evenodd" d="M77.8511 39.612H21.7991C19.867 39.612 18.3018 38.2542 18.3018 36.5797V3.07406C18.3018 1.39954 19.867 0.0429688 21.7991 0.0429688H77.8511C79.7778 0.0429688 81.343 1.39954 81.343 3.07406V36.5797C81.343 38.2542 79.7778 39.612 77.8511 39.612" fill="#4A90E2"/>
<path fill-rule="evenodd" clip-rule="evenodd" d="M33.5616 8.37359H24.2912C23.7233 8.37359 23.2598 7.90544 23.2598 7.32904C23.2598 6.75396 23.7233 6.29102 24.2912 6.29102H33.5616C34.1307 6.29102 34.593 6.75396 34.593 7.32904C34.593 7.90544 34.1307 8.37359 33.5616 8.37359" fill="white"/>
<path fill-rule="evenodd" clip-rule="evenodd" d="M47.0264 8.37359H37.7444C37.1762 8.37359 36.7188 7.90544 36.7188 7.32904C36.7188 6.75396 37.1762 6.29102 37.7444 6.29102H47.0264C47.5946 6.29102 48.052 6.75396 48.052 7.32904C48.052 7.90544 47.5946 8.37359 47.0264 8.37359" fill="white"/>
<path fill-rule="evenodd" clip-rule="evenodd" d="M25.1486 13.233H24.2042C23.6842 13.233 23.2598 12.7648 23.2598 12.1884C23.2598 11.6133 23.6842 11.1504 24.2042 11.1504H25.1486C25.6686 11.1504 26.0931 11.6133 26.0931 12.1884C26.0931 12.7648 25.6686 13.233 25.1486 13.233" fill="white"/>
<path fill-rule="evenodd" clip-rule="evenodd" d="M31.2343 13.233H28.7513C28.0677 13.233 27.5098 12.7648 27.5098 12.1884C27.5098 11.6133 28.0677 11.1504 28.7513 11.1504H31.2343C31.9178 11.1504 32.4681 11.6133 32.4681 12.1884C32.4681 12.7648 31.9178 13.233 31.2343 13.233" fill="white"/>
<path fill-rule="evenodd" clip-rule="evenodd" d="M36.4866 13.233H35.5402C35.0179 13.233 34.5938 12.7648 34.5938 12.1884C34.5938 11.6133 35.0179 11.1504 35.5402 11.1504H36.4866C37.0076 11.1504 37.4271 11.6133 37.4271 12.1884C37.4271 12.7648 37.0076 13.233 36.4866 13.233" fill="white"/>
<path fill-rule="evenodd" clip-rule="evenodd" d="M43.2685 13.233H40.7933C40.1082 13.233 39.5518 12.7648 39.5518 12.1884C39.5518 11.6133 40.1082 11.1504 40.7933 11.1504H43.2685C43.9598 11.1504 44.5101 11.6133 44.5101 12.1884C44.5101 12.7648 43.9598 13.233 43.2685 13.233" fill="white"/>
<path fill-rule="evenodd" clip-rule="evenodd" d="M47.7006 13.233C47.4198 13.233 47.1444 13.1203 46.9408 12.9317C46.7492 12.7312 46.6348 12.4601 46.6348 12.1837C46.6348 11.9125 46.7492 11.6413 46.9408 11.4422C47.336 11.0531 48.0479 11.0531 48.4537 11.4422C48.6453 11.6413 48.7598 11.9125 48.7598 12.1837C48.7598 12.4601 48.6453 12.7312 48.4537 12.9317C48.2515 13.1203 47.9853 13.233 47.7006 13.233" fill="white"/>
<path fill-rule="evenodd" clip-rule="evenodd" d="M57.9678 16.0097H75.676V6.29102H57.9678V16.0097Z" fill="#2C91D0"/>
<path fill-rule="evenodd" clip-rule="evenodd" d="M57.2598 16.7028H77.0929V5.5957H57.2598V16.7028ZM59.4596 14.8545H74.8931V7.44399H59.4596V14.8545Z" fill="white"/>
<path fill-rule="evenodd" clip-rule="evenodd" d="M23.9688 34.0583H33.177V27.8105H23.9688V34.0583Z" fill="#1D6AAA"/>
<path fill-rule="evenodd" clip-rule="evenodd" d="M38.1348 34.0583H47.343V27.8105H38.1348V34.0583Z" fill="#1D6AAA"/>
<path fill-rule="evenodd" clip-rule="evenodd" d="M52.3018 34.0583H61.51V27.8105H52.3018V34.0583Z" fill="#1D6AAA"/>
<path fill-rule="evenodd" clip-rule="evenodd" d="M65.7598 34.0583H74.968V27.8105H65.7598V34.0583Z" fill="#1D6AAA"/>
<path fill-rule="evenodd" clip-rule="evenodd" d="M92.4925 70.3284H36.1934C34.2528 70.3284 32.6807 68.9467 32.6807 67.2426V33.1452C32.6807 31.4411 34.2528 30.0605 36.1934 30.0605H92.4925C94.4277 30.0605 95.9998 31.4411 95.9998 33.1452V67.2426C95.9998 68.9467 94.4277 70.3284 92.4925 70.3284" fill="#F9DE58"/>
<path fill-rule="evenodd" clip-rule="evenodd" d="M47.3485 56.6777H38.4377C37.8906 56.6777 37.4463 57.1379 37.4463 57.7015C37.4463 58.2664 37.8906 58.7253 38.4377 58.7253H47.3485C47.8943 58.7253 48.3399 58.2664 48.3399 57.7015C48.3399 57.1379 47.8943 56.6777 47.3485 56.6777" fill="#7A693C"/>
<path fill-rule="evenodd" clip-rule="evenodd" d="M60.5958 57.7015C60.5958 57.1379 60.1564 56.6777 59.6043 56.6777H50.6936C50.1477 56.6777 49.7021 57.1379 49.7021 57.7015C49.7021 58.2664 50.1477 58.7253 50.6936 58.7253H59.6043C60.1564 58.7253 60.5958 58.2664 60.5958 57.7015" fill="#7A693C"/>
<path fill-rule="evenodd" clip-rule="evenodd" d="M39.2657 61.4551H38.356C37.854 61.4551 37.4463 61.9152 37.4463 62.4788C37.4463 63.0438 37.854 63.5026 38.356 63.5026H39.2657C39.7665 63.5026 40.1697 63.0438 40.1697 62.4788C40.1697 61.9152 39.7665 61.4551 39.2657 61.4551" fill="#7A693C"/>
<path fill-rule="evenodd" clip-rule="evenodd" d="M44.7648 61.4551H43.0653C42.5949 61.4551 42.2129 61.9152 42.2129 62.4788C42.2129 63.0438 42.5949 63.5026 43.0653 63.5026H44.7648C45.2394 63.5026 45.6171 63.0438 45.6171 62.4788C45.6171 61.9152 45.2394 61.4551 44.7648 61.4551" fill="#7A693C"/>
<path fill-rule="evenodd" clip-rule="evenodd" d="M50.1536 61.4551H49.2495C48.743 61.4551 48.3398 61.9152 48.3398 62.4788C48.3398 63.0438 48.743 63.5026 49.2495 63.5026H50.1536C50.6601 63.5026 51.0632 63.0438 51.0632 62.4788C51.0632 61.9152 50.6601 61.4551 50.1536 61.4551" fill="#7A693C"/>
<path fill-rule="evenodd" clip-rule="evenodd" d="M55.6583 61.4551H53.9588C53.4842 61.4551 53.1064 61.9152 53.1064 62.4788C53.1064 63.0438 53.4842 63.5026 53.9588 63.5026H55.6583C56.1287 63.5026 56.5107 63.0438 56.5107 62.4788C56.5107 61.9152 56.1287 61.4551 55.6583 61.4551" fill="#7A693C"/>
<path fill-rule="evenodd" clip-rule="evenodd" d="M58.8469 61.742C58.6627 61.9377 58.5527 62.2043 58.5527 62.471C58.5527 62.7376 58.6627 63.0093 58.8469 63.2064C59.0413 63.3867 59.3061 63.5026 59.5708 63.5026C59.8407 63.5026 60.1054 63.3867 60.3011 63.2064C60.4853 63.0093 60.5953 62.7376 60.5953 62.471C60.5953 62.2043 60.4853 61.9377 60.3011 61.742C59.911 61.3594 59.2114 61.3594 58.8469 61.742" fill="#7A693C"/>
<path fill-rule="evenodd" clip-rule="evenodd" d="M85.1057 59.4093C85.1057 62.4253 82.5153 64.8693 79.3185 64.8693C76.1217 64.8693 73.5312 62.4253 73.5312 59.4093C73.5312 56.3921 76.1217 53.9492 79.3185 53.9492C82.5153 53.9492 85.1057 56.3921 85.1057 59.4093" fill="#E74C3D"/>
<path fill-rule="evenodd" clip-rule="evenodd" d="M91.9143 59.4093C91.9143 62.4253 89.3237 64.8693 86.1301 64.8693C82.9304 64.8693 80.3398 62.4253 80.3398 59.4093C80.3398 56.3921 82.9304 53.9492 86.1301 53.9492C89.3237 53.9492 91.9143 56.3921 91.9143 59.4093" fill="#F0C41B"/>
<path fill-rule="evenodd" clip-rule="evenodd" d="M53.24 48.4885H40.0368C39.3579 48.4885 38.8086 47.9778 38.8086 47.3466V38.7102C38.8086 38.0801 39.3579 37.5684 40.0368 37.5684H53.24C53.9177 37.5684 54.4682 38.0801 54.4682 38.7102V47.3466C54.4682 47.9778 53.9177 48.4885 53.24 48.4885" fill="#F0C41B"/>
<path fill-rule="evenodd" clip-rule="evenodd" d="M52.3396 50.5349H39.5802C38.4027 50.5349 37.4463 49.5488 37.4463 48.3348V39.0787C37.4463 37.8696 38.4027 36.8848 39.5802 36.8848H52.3396C53.5123 36.8848 54.4676 37.8696 54.4676 39.0787V48.3348C54.4676 49.5488 53.5123 50.5349 52.3396 50.5349V50.5349ZM39.5801 38.8313C39.4454 38.8313 39.3401 38.9459 39.3401 39.0787V48.3348C39.3401 48.4726 39.4454 48.5823 39.5801 48.5823H52.3396C52.4684 48.5823 52.5796 48.4726 52.5796 48.3348V39.0787C52.5796 38.9459 52.4684 38.8313 52.3396 38.8313H39.5801Z" fill="#F3D55C"/>
<path fill-rule="evenodd" clip-rule="evenodd" d="M53.7868 38.7102C53.7868 38.0801 53.2506 37.5684 52.5905 37.5684H45.4499C44.7851 37.5684 44.2549 38.0801 44.2549 38.7102V47.3466C44.2549 47.9778 44.7851 48.4885 45.4499 48.4885H46.8702C47.5315 48.4885 48.0665 47.9778 48.0665 47.3466V42.3529C48.0665 41.7228 48.6014 41.2122 49.2627 41.2122H52.5905C53.2506 41.2122 53.7868 40.7004 53.7868 40.0704V38.7102Z" fill="#F0C41B"/>
<path fill-rule="evenodd" clip-rule="evenodd" d="M46.975 49.8524H45.622C44.4914 49.8524 43.5742 48.9156 43.5742 47.7623V38.969C43.5742 37.8204 44.4914 36.8848 45.622 36.8848H52.4246C53.5507 36.8848 54.4678 37.8204 54.4678 38.969V40.3539C54.4678 41.5026 53.5507 42.4382 52.4246 42.4382H49.2543C49.1249 42.4382 49.0239 42.547 49.0239 42.6779V47.7623C49.0239 48.9156 48.101 49.8524 46.975 49.8524V49.8524ZM45.8589 38.9323C45.7268 38.9323 45.6168 39.0446 45.6168 39.1747V48.2449C45.6168 48.3799 45.7268 48.4874 45.8589 48.4874H47.2532C47.3853 48.4874 47.4906 48.3799 47.4906 48.2449V43.0004C47.4906 41.8108 48.4369 40.8457 49.6019 40.8457H52.8687C52.9962 40.8457 53.1062 40.7334 53.1062 40.6032V39.1747C53.1062 39.0446 52.9962 38.9323 52.8687 38.9323H45.8589Z" fill="#F3D55C"/>
<path fill-rule="evenodd" clip-rule="evenodd" d="M52.4283 46.4401H48.3411C47.9648 46.4401 47.6592 45.98 47.6592 45.4163C47.6592 44.8514 47.9648 44.3926 48.3411 44.3926H52.4283C52.8038 44.3926 53.106 44.8514 53.106 45.4163C53.106 45.98 52.8038 46.4401 52.4283 46.4401" fill="#F3D55C"/>
<path fill-rule="evenodd" clip-rule="evenodd" d="M44.0039 43.028H38.3839C37.8665 43.028 37.4463 42.5728 37.4463 42.0074C37.4463 41.4407 37.8665 40.9805 38.3839 40.9805H44.0039C44.5201 40.9805 44.9356 41.4407 44.9356 42.0074C44.9356 42.5728 44.5201 43.028 44.0039 43.028" fill="#F3D55C"/>
<path fill-rule="evenodd" clip-rule="evenodd" d="M44.0039 46.4401H38.3839C37.8665 46.4401 37.4463 45.98 37.4463 45.4163C37.4463 44.8514 37.8665 44.3926 38.3839 44.3926H44.0039C44.5201 44.3926 44.9356 44.8514 44.9356 45.4163C44.9356 45.98 44.5201 46.4401 44.0039 46.4401" fill="#F3D55C"/>
</svg>
