<svg width="92" height="75" viewBox="0 0 92 75" fill="none" xmlns="http://www.w3.org/2000/svg">
<mask id="mask0" mask-type="alpha" maskUnits="userSpaceOnUse" x="0" y="0" width="71" height="53">
<path fill-rule="evenodd" clip-rule="evenodd" d="M0.015625 0.246094H70.8488V52.0066H0.015625V0.246094Z" fill="white"/>
</mask>
<g mask="url(#mask0)">
<path fill-rule="evenodd" clip-rule="evenodd" d="M70.8491 4.21716V48.5361C70.8491 50.4533 69.2949 52.0066 67.3787 52.0066H3.47044C1.55419 52.0066 0 50.4533 0 48.5361V4.21716C0 2.02419 1.77822 0.246094 3.97134 0.246094H66.8778C69.0709 0.246094 70.8491 2.02419 70.8491 4.21716" fill="#4A90E2"/>
</g>
<path fill-rule="evenodd" clip-rule="evenodd" d="M4.77051 47.4405H66.1038V5H4.77051V47.4405Z" fill="white"/>
<path fill-rule="evenodd" clip-rule="evenodd" d="M27.2588 57.025H44.2958V51.5488H27.2588V57.025Z" fill="#3574BE"/>
<path fill-rule="evenodd" clip-rule="evenodd" d="M27.2585 24.1672C24.252 24.1672 21.8066 21.7101 21.8066 18.6909C21.8066 15.6709 24.252 13.2148 27.2585 13.2148C30.2642 13.2148 32.7103 15.6709 32.7103 18.6909C32.7103 21.7101 30.2642 24.1672 27.2585 24.1672ZM27.2585 15.5449C25.5311 15.5449 24.1262 16.956 24.1262 18.6909C24.1262 20.425 25.5311 21.8362 27.2585 21.8362C28.9848 21.8362 30.3897 20.425 30.3897 18.6909C30.3897 16.956 28.9848 15.5449 27.2585 15.5449Z" fill="#929292"/>
<path fill-rule="evenodd" clip-rule="evenodd" d="M44.2956 38.5422C41.2891 38.5422 38.8438 36.0859 38.8438 33.066C38.8438 30.0461 41.2891 27.5898 44.2956 27.5898C47.3021 27.5898 49.7475 30.0461 49.7475 33.066C49.7475 36.0859 47.3021 38.5422 44.2956 38.5422ZM44.2956 29.9198C42.5693 29.9198 41.1644 31.331 41.1644 33.066C41.1644 34.8001 42.5693 36.2112 44.2956 36.2112C46.0219 36.2112 47.4279 34.8001 47.4279 33.066C47.4279 31.331 46.023 29.9198 44.2956 29.9198Z" fill="#929292"/>
<path fill-rule="evenodd" clip-rule="evenodd" d="M33.7751 39.9112L31.3477 39.4513L37.0969 11.8457L39.5254 12.3055L33.7751 39.9112" fill="#929292"/>
<path fill-rule="evenodd" clip-rule="evenodd" d="M56.5624 60.448H14.3105C14.3105 59.5032 14.6984 58.6472 15.3213 58.0275C15.9466 57.41 16.8098 57.0254 17.7627 57.0254H53.1102C55.0161 57.0254 56.5624 58.5584 56.5624 60.448" fill="#4A90E2"/>
<path fill-rule="evenodd" clip-rule="evenodd" d="M66.9356 0.208984H23.1699L24.6264 5.0709H66.0959V24.1673H70.8736V4.21444C70.8736 2.00249 69.1108 0.208984 66.9356 0.208984" fill="#5DA5F8"/>
<path fill-rule="evenodd" clip-rule="evenodd" d="M27.6143 15.1832L29.2999 20.7528C29.9934 20.1736 30.4355 19.2996 30.4355 18.3239C30.4355 16.6893 29.196 15.341 27.6143 15.1832ZM66.1036 5H24.5332L26.9062 12.8436C27.0371 12.8343 27.169 12.8292 27.303 12.8292C30.3099 12.8292 32.7571 15.2943 32.7571 18.3231C32.7571 20.3625 31.6484 22.1446 30.0068 23.0935L33.0507 33.1521L37.2475 11.8597L39.5238 12.3154L34.4841 37.8882L36.5458 44.7024C36.7199 43.9427 37.396 43.377 38.2027 43.377H43.4518L43.6125 38.6834C40.8221 38.4446 38.6221 36.0813 38.6221 33.2092C38.6221 30.2085 41.0221 27.7631 43.9886 27.7153L44.1184 23.9518H66.1025V5" fill="white"/>
<path fill-rule="evenodd" clip-rule="evenodd" d="M26.993 13.2148C26.8537 13.2148 26.7143 13.2188 26.5771 13.2281L27.3193 15.5688C28.9774 15.7267 30.2768 17.0756 30.2768 18.711C30.2768 19.6871 29.8133 20.5625 29.0863 21.142L29.8285 23.4827C31.5494 22.5345 32.7105 20.7505 32.7105 18.711C32.7105 15.6799 30.1452 13.2148 26.993 13.2148" fill="#B8B8B8"/>
<path fill-rule="evenodd" clip-rule="evenodd" d="M43.6146 29.6426C42.0976 29.7291 40.8887 31.0814 40.8887 32.7321C40.8887 34.3095 41.9935 35.6149 43.4167 35.8033L43.6146 29.6426" fill="white"/>
<path fill-rule="evenodd" clip-rule="evenodd" d="M44.2956 27.5898C41.2808 27.6365 38.8438 30.0797 38.8438 33.0753C38.8438 35.9436 41.0777 38.3047 43.9135 38.5422L43.9952 36.2036C42.4229 36.0128 41.2023 34.6821 41.2023 33.0753C41.2023 31.394 42.5379 30.0165 44.2139 29.9284L44.2956 27.5898" fill="#B8B8B8"/>
<path fill-rule="evenodd" clip-rule="evenodd" d="M36.6865 11.8457L32.7109 33.1245L34.0681 37.8576L38.8443 12.3011L36.6865 11.8457" fill="#B8B8B8"/>
<path fill-rule="evenodd" clip-rule="evenodd" d="M36.8 57.0254H29.3037L30.3927 60.448H36.8V57.0254" fill="#7AB8FF"/>
<path fill-rule="evenodd" clip-rule="evenodd" d="M82.4594 69.3465H42.252L43.8303 24.168H80.8799L82.4594 69.3465" fill="#F9DE58"/>
<path fill-rule="evenodd" clip-rule="evenodd" d="M54.1493 46.0723H53.1553V69.3461H64.6674L64.7405 67.199H55.869V47.7998C55.869 46.846 55.0977 46.0723 54.1493 46.0723" fill="#D7C156"/>
<path fill-rule="evenodd" clip-rule="evenodd" d="M53.1552 45.0404V72.4301C53.1552 73.3738 52.3818 74.1376 51.4299 74.1376H37.8434C36.8916 74.1376 36.1182 73.3738 36.1182 72.4301V45.0404C36.1182 44.0975 36.8916 43.334 37.8434 43.334H51.4299C52.3818 43.334 53.1552 44.0975 53.1552 45.0404" fill="#929292"/>
<path fill-rule="evenodd" clip-rule="evenodd" d="M38.1631 70.0307H51.7927V47.4414H38.1631V70.0307Z" fill="white"/>
<path fill-rule="evenodd" clip-rule="evenodd" d="M46.3402 72.0839C46.3402 72.8403 45.73 73.4529 44.9767 73.4529C44.2245 73.4529 43.6143 72.8403 43.6143 72.0839C43.6143 71.3275 44.2245 70.7148 44.9767 70.7148C45.73 70.7148 46.3402 71.3275 46.3402 72.0839Z" fill="#606060"/>
<path fill-rule="evenodd" clip-rule="evenodd" d="M49.0665 61.0392C49.0665 58.8478 47.2317 57.066 44.9781 57.066C44.2287 57.066 43.6197 56.4731 43.6197 55.7458C43.6197 55.0175 44.2287 54.4257 44.9781 54.4257H47.7014V51.7716H46.3418V49.4941H43.6122V52.0045C42.0279 52.5523 40.8887 54.0205 40.8887 55.7458C40.8887 57.937 42.7234 59.7191 44.9781 59.7191C45.7264 59.7191 46.3366 60.312 46.3366 61.0392C46.3366 61.7676 45.7264 62.3594 44.9781 62.3594H42.2535V65.0135H43.6122V67.2918H46.3418V64.7803C47.9272 64.2325 49.0665 62.7654 49.0665 61.0392" fill="#86D359"/>
<path fill-rule="evenodd" clip-rule="evenodd" d="M53.1548 69.3457V72.4923C53.1548 73.4015 52.2383 74.1374 51.1104 74.1374H53.1548V69.3457" fill="white"/>
<path fill-rule="evenodd" clip-rule="evenodd" d="M51.44 43.334H40.207L41.4517 47.3989H51.632V69.5282H48.2213L49.6312 74.1376H51.44C52.3863 74.1376 53.1552 73.3738 53.1552 72.4301V45.0404C53.1552 44.0975 52.3863 43.334 51.44 43.334" fill="#B8B8B8"/>
<path fill-rule="evenodd" clip-rule="evenodd" d="M45.3227 59.9135L45.9132 61.8731C46.0507 61.6627 46.1311 61.4115 46.1311 61.14C46.1311 60.5886 45.7973 60.1142 45.3227 59.9135ZM51.7925 47.4414H41.5703L43.0183 52.2555C43.1737 52.1752 43.3332 52.1046 43.4993 52.0454V49.5184H46.1362V51.8109H47.4496V54.4826H44.8188C44.4233 54.4826 44.0676 54.6611 43.8267 54.942L44.4746 57.0939C44.5841 57.1245 44.7 57.1405 44.8188 57.1405C46.997 57.1405 48.7684 58.934 48.7684 61.14C48.7684 62.639 47.9496 63.9436 46.7414 64.6281L48.3678 70.0307H51.7925V47.4414Z" fill="white"/>
<path fill-rule="evenodd" clip-rule="evenodd" d="M44.2956 57.0239L45.2379 59.5857C45.764 59.768 46.136 60.199 46.136 60.7C46.136 60.9467 46.0467 61.1749 45.8927 61.3661L46.814 63.8691C48.1563 63.2482 49.066 62.0619 49.066 60.701C49.066 58.6967 47.0967 57.0662 44.6768 57.0662C44.546 57.0662 44.4172 57.0507 44.2956 57.0239ZM46.2891 49.4941H43.4504V52.0456C43.2716 52.1062 43.0988 52.1767 42.9326 52.2578L43.8029 54.9703C44.0622 54.6855 44.4443 54.5064 44.8697 54.5064H47.703V51.8089H46.2891V49.4941Z" fill="#ADE18E"/>
<path fill-rule="evenodd" clip-rule="evenodd" d="M81.1005 24.168H59.2891L65.5931 44.0192L65.6313 42.9636H81.7779L81.1005 24.168" fill="#FBE98E"/>
<path fill-rule="evenodd" clip-rule="evenodd" d="M91.9995 74.1376H64.7402L65.8109 43.334H90.9299L91.9995 74.1376" fill="#F56363"/>
<path fill-rule="evenodd" clip-rule="evenodd" d="M90.9405 43.334H90.9394L91.9985 74.1365H85.8662V74.1376H91.9995L90.9405 43.334" fill="white"/>
<path fill-rule="evenodd" clip-rule="evenodd" d="M90.9265 43.334H76.3252L85.1407 72.0294H91.9257L91.9993 74.1376L90.9265 43.334" fill="#FF8282"/>
<path fill-rule="evenodd" clip-rule="evenodd" d="M71.0872 26.9062C70.4522 26.9062 69.9366 27.4221 69.9366 28.059V32.2476C69.9366 36.5874 66.5305 40.2384 62.2055 40.3407C57.7499 40.4473 54.0915 36.8424 54.0915 32.397V28.059C54.0915 27.4221 53.5773 26.9062 52.9423 26.9062C52.3073 26.9062 51.792 27.4221 51.792 28.059V32.225C51.792 37.8397 56.221 42.542 61.8167 42.6484C67.543 42.7569 72.2364 38.116 72.2364 32.397V28.059C72.2364 27.4221 71.7219 26.9062 71.0872 26.9062Z" fill="#4A90E2"/>
<path fill-rule="evenodd" clip-rule="evenodd" d="M71.9914 46.0723C72.6082 46.0723 73.108 46.5792 73.108 47.2045V49.6543C73.108 52.446 75.3609 54.8052 78.1142 54.7579C80.7884 54.7128 82.9511 52.4913 82.9511 49.7681V47.2045C82.9511 46.5792 83.4509 46.0723 84.0675 46.0723C84.6843 46.0723 85.1851 46.5792 85.1851 47.2045V49.6311C85.1851 53.5945 82.1084 56.9281 78.2016 57.0226C74.1777 57.1191 70.874 53.8267 70.874 49.7681V47.2045C70.874 46.5792 71.3738 46.0723 71.9914 46.0723Z" fill="#F9DE58"/>
<path fill-rule="evenodd" clip-rule="evenodd" d="M85.219 72.084H64.8138L64.7402 74.1376H85.8662L85.219 72.084" fill="#D97150"/>
<path fill-rule="evenodd" clip-rule="evenodd" d="M91.9263 72.084H85.1846L85.8277 74.1376L91.9994 74.1365L91.9263 72.084" fill="#DA937D"/>
<path fill-rule="evenodd" clip-rule="evenodd" d="M25.7569 66.1601C25.7569 66.9354 23.2187 67.5675 20.0856 67.5675C16.9526 67.5675 14.4111 66.9354 14.4111 66.1601C14.4111 65.3802 16.9526 63.8711 20.0856 63.8711C23.2187 63.8711 25.7569 65.3802 25.7569 66.1601" fill="#FCC62D"/>
<path fill-rule="evenodd" clip-rule="evenodd" d="M20.0856 67.5676C16.9526 67.5676 14.4111 66.9355 14.4111 66.1602V69.1164C14.4143 69.8926 16.9526 70.5238 20.0856 70.5238C23.2155 70.5238 25.7538 69.8926 25.7569 69.1164V66.1602C25.7569 66.9355 23.2187 67.5676 20.0856 67.5676" fill="#E4AF18"/>
<path fill-rule="evenodd" clip-rule="evenodd" d="M25.7569 62.0527C25.7569 62.828 23.2187 63.4601 20.0856 63.4601C16.9526 63.4601 14.4111 62.828 14.4111 62.0527C14.4111 61.2727 16.9526 59.7637 20.0856 59.7637C23.2187 59.7637 25.7569 61.2727 25.7569 62.0527" fill="#FCC62D"/>
<path fill-rule="evenodd" clip-rule="evenodd" d="M20.0856 63.4602C16.9526 63.4602 14.4111 62.8281 14.4111 62.0527V65.009C14.4143 65.7852 16.9526 66.4164 20.0856 66.4164C23.2155 66.4164 25.7538 65.7852 25.7569 65.009V62.0527C25.7569 62.8281 23.2187 63.4602 20.0856 63.4602" fill="#E4AF18"/>
<path fill-rule="evenodd" clip-rule="evenodd" d="M25.7569 58.6308C25.7569 59.4061 23.2187 60.0382 20.0856 60.0382C16.9526 60.0382 14.4111 59.4061 14.4111 58.6308C14.4111 57.8509 16.9526 56.3418 20.0856 56.3418C23.2187 56.3418 25.7569 57.8509 25.7569 58.6308" fill="#FCC62D"/>
<path fill-rule="evenodd" clip-rule="evenodd" d="M20.0856 60.0383C16.9526 60.0383 14.4111 59.4062 14.4111 58.6309V61.5871C14.4143 62.3633 16.9526 62.9945 20.0856 62.9945C23.2155 62.9945 25.7538 62.3633 25.7569 61.5871V58.6309C25.7569 59.4062 23.2187 60.0383 20.0856 60.0383" fill="#E4AF18"/>
<path fill-rule="evenodd" clip-rule="evenodd" d="M18.2608 67.5293C18.2608 68.3046 15.7226 68.9367 12.5895 68.9367C9.45646 68.9367 6.91504 68.3046 6.91504 67.5293C6.91504 66.7493 9.45646 65.2402 12.5895 65.2402C15.7226 65.2402 18.2608 66.7493 18.2608 67.5293" fill="#FCC62D"/>
<path fill-rule="evenodd" clip-rule="evenodd" d="M12.5895 68.9367C9.45646 68.9367 6.91504 68.3046 6.91504 67.5293V70.4855C6.91819 71.2618 9.45646 71.8929 12.5895 71.8929C15.7194 71.8929 18.2577 71.2618 18.2608 70.4855V67.5293C18.2608 68.3046 15.7226 68.9367 12.5895 68.9367" fill="#E4AF18"/>
<path fill-rule="evenodd" clip-rule="evenodd" d="M25.7569 54.5234C25.7569 55.2987 23.2187 55.9308 20.0856 55.9308C16.9526 55.9308 14.4111 55.2987 14.4111 54.5234C14.4111 53.7434 16.9526 52.2344 20.0856 52.2344C23.2187 52.2344 25.7569 53.7434 25.7569 54.5234" fill="#FCC62D"/>
<path fill-rule="evenodd" clip-rule="evenodd" d="M20.0856 55.9309C16.9526 55.9309 14.4111 55.2988 14.4111 54.5234V57.4797C14.4143 58.2559 16.9526 58.8871 20.0856 58.8871C23.2155 58.8871 25.7538 58.2559 25.7569 57.4797V54.5234C25.7569 55.2988 23.2187 55.9309 20.0856 55.9309" fill="#E4AF18"/>
<path fill-rule="evenodd" clip-rule="evenodd" d="M18.2608 63.4218C18.2608 64.1972 15.7226 64.8292 12.5895 64.8292C9.45646 64.8292 6.91504 64.1972 6.91504 63.4218C6.91504 62.6419 9.45646 61.1328 12.5895 61.1328C15.7226 61.1328 18.2608 62.6419 18.2608 63.4218" fill="#FCC62D"/>
<path fill-rule="evenodd" clip-rule="evenodd" d="M12.5895 64.8293C9.45646 64.8293 6.91504 64.1972 6.91504 63.4219V66.3781C6.91819 67.1543 9.45646 67.7855 12.5895 67.7855C15.7194 67.7855 18.2577 67.1543 18.2608 66.3781V63.4219C18.2608 64.1972 15.7226 64.8293 12.5895 64.8293" fill="#E4AF18"/>
</svg>
