<svg width="87" height="97" viewBox="0 0 87 97" fill="none" xmlns="http://www.w3.org/2000/svg">
<path fill-rule="evenodd" clip-rule="evenodd" d="M55.8199 96.043H8.70455C4.39094 96.043 0.892578 92.5359 0.892578 88.2116V7.87434C0.892578 3.55002 4.39094 0.0429688 8.70455 0.0429688H55.8199C60.1335 0.0429688 63.6319 3.55002 63.6319 7.87434V88.2116C63.6319 92.5359 60.1335 96.043 55.8199 96.043Z" fill="#4A90E2"/>
<path fill-rule="evenodd" clip-rule="evenodd" d="M82.9854 66.0979H63.6318V13.2539H82.9854C84.9807 13.2539 86.6068 14.8907 86.6068 16.899V62.4611C86.6068 64.4694 84.9807 66.0979 82.9854 66.0979Z" fill="#CDCDCD"/>
<path fill-rule="evenodd" clip-rule="evenodd" d="M68.0498 66.0979H77.77V13.2539H68.0498V66.0979Z" fill="#606060"/>
<path fill-rule="evenodd" clip-rule="evenodd" d="M83.9555 22.0567C83.9555 23.0406 83.1634 23.8237 82.1882 23.8237C81.2152 23.8237 80.4209 23.0406 80.4209 22.0567C80.4209 21.0839 81.2152 20.3008 82.1882 20.3008C83.1634 20.3008 83.9555 21.0839 83.9555 22.0567Z" fill="#67A92E"/>
<path fill-rule="evenodd" clip-rule="evenodd" d="M83.9555 29.9825C83.9555 30.9664 83.1634 31.7495 82.1882 31.7495C81.2152 31.7495 80.4209 30.9664 80.4209 29.9825C80.4209 29.0097 81.2152 28.2266 82.1882 28.2266C83.1634 28.2266 83.9555 29.0097 83.9555 29.9825Z" fill="#ED7161"/>
<path fill-rule="evenodd" clip-rule="evenodd" d="M8.8457 32.6303H54.7956V15.0156H8.8457V32.6303Z" fill="#B1D194"/>
<path fill-rule="evenodd" clip-rule="evenodd" d="M17.791 9.73192H7.85248C6.93957 9.73192 6.19434 8.94025 6.19434 7.97045C6.19434 7.00066 6.93957 6.20898 7.85248 6.20898H17.791C18.7039 6.20898 19.4491 7.00066 19.4491 7.97045C19.4491 8.94025 18.7039 9.73192 17.791 9.73192Z" fill="#8697CB"/>
<path fill-rule="evenodd" clip-rule="evenodd" d="M10.6123 45.6024C10.6123 46.707 11.5077 47.6024 12.6123 47.6024H18.3325C19.4371 47.6024 20.3325 46.707 20.3325 45.6024V41.6758C20.3325 40.5712 19.4371 39.6758 18.3325 39.6758H12.6123C11.5077 39.6758 10.6123 40.5712 10.6123 41.6758V45.6024Z" fill="#FDFDFD"/>
<path fill-rule="evenodd" clip-rule="evenodd" d="M27.4023 45.6024C27.4023 46.707 28.2978 47.6024 29.4023 47.6024H35.1225C36.2271 47.6024 37.1225 46.707 37.1225 45.6024V41.6758C37.1225 40.5712 36.2271 39.6758 35.1225 39.6758H29.4023C28.2978 39.6758 27.4023 40.5712 27.4023 41.6758V45.6024Z" fill="#FDFDFD"/>
<path fill-rule="evenodd" clip-rule="evenodd" d="M44.1914 45.6024C44.1914 46.707 45.0868 47.6024 46.1914 47.6024H51.9116C53.0162 47.6024 53.9116 46.707 53.9116 45.6024V41.6758C53.9116 40.5712 53.0162 39.6758 51.9116 39.6758H46.1914C45.0868 39.6758 44.1914 40.5712 44.1914 41.6758V45.6024Z" fill="#FF8282"/>
<path fill-rule="evenodd" clip-rule="evenodd" d="M10.6123 58.8133C10.6123 59.9179 11.5077 60.8133 12.6123 60.8133H18.3325C19.4371 60.8133 20.3325 59.9179 20.3325 58.8133V54.8867C20.3325 53.7821 19.4371 52.8867 18.3325 52.8867H12.6123C11.5077 52.8867 10.6123 53.7821 10.6123 54.8867V58.8133Z" fill="#FDFDFD"/>
<path fill-rule="evenodd" clip-rule="evenodd" d="M27.4023 58.8133C27.4023 59.9179 28.2978 60.8133 29.4023 60.8133H35.1225C36.2271 60.8133 37.1225 59.9179 37.1225 58.8133V54.8867C37.1225 53.7821 36.2271 52.8867 35.1225 52.8867H29.4023C28.2978 52.8867 27.4023 53.7821 27.4023 54.8867V58.8133Z" fill="#FDFDFD"/>
<path fill-rule="evenodd" clip-rule="evenodd" d="M44.1914 58.8133C44.1914 59.9179 45.0868 60.8133 46.1914 60.8133H51.9116C53.0162 60.8133 53.9116 59.9179 53.9116 58.8133V54.8867C53.9116 53.7821 53.0162 52.8867 51.9116 52.8867H46.1914C45.0868 52.8867 44.1914 53.7821 44.1914 54.8867V58.8133Z" fill="#F5D758"/>
<path fill-rule="evenodd" clip-rule="evenodd" d="M10.6123 72.0243C10.6123 73.1288 11.5077 74.0243 12.6123 74.0243H18.3325C19.4371 74.0243 20.3325 73.1288 20.3325 72.0243V68.0977C20.3325 66.9931 19.4371 66.0977 18.3325 66.0977H12.6123C11.5077 66.0977 10.6123 66.9931 10.6123 68.0977V72.0243Z" fill="#FDFDFD"/>
<path fill-rule="evenodd" clip-rule="evenodd" d="M27.4023 72.0243C27.4023 73.1288 28.2978 74.0243 29.4023 74.0243H35.1225C36.2271 74.0243 37.1225 73.1288 37.1225 72.0243V68.0977C37.1225 66.9931 36.2271 66.0977 35.1225 66.0977H29.4023C28.2978 66.0977 27.4023 66.9931 27.4023 68.0977V72.0243Z" fill="#FDFDFD"/>
<path fill-rule="evenodd" clip-rule="evenodd" d="M10.6123 85.2352C10.6123 86.3398 11.5077 87.2352 12.6123 87.2352H18.3325C19.4371 87.2352 20.3325 86.3398 20.3325 85.2352V81.3086C20.3325 80.204 19.4371 79.3086 18.3325 79.3086H12.6123C11.5077 79.3086 10.6123 80.204 10.6123 81.3086V85.2352Z" fill="#FDFDFD"/>
<path fill-rule="evenodd" clip-rule="evenodd" d="M27.4023 85.2352C27.4023 86.3398 28.2978 87.2352 29.4023 87.2352H35.1225C36.2271 87.2352 37.1225 86.3398 37.1225 85.2352V81.3086C37.1225 80.204 36.2271 79.3086 35.1225 79.3086H29.4023C28.2978 79.3086 27.4023 80.204 27.4023 81.3086V85.2352Z" fill="#FDFDFD"/>
<path fill-rule="evenodd" clip-rule="evenodd" d="M44.1914 86.9967C44.1914 88.1013 45.0868 88.9967 46.1914 88.9967H51.9116C53.0162 88.9967 53.9116 88.1013 53.9116 86.9967V68.0977C53.9116 66.9931 53.0162 66.0977 51.9116 66.0977H46.1914C45.0868 66.0977 44.1914 66.9931 44.1914 68.0977V86.9967Z" fill="#1FD483"/>
<path fill-rule="evenodd" clip-rule="evenodd" d="M28.0724 18.6649C27.6421 18.4971 27.1589 18.4971 26.7286 18.6649C26.5057 18.7447 26.316 18.8654 26.1505 19.0168L24.3852 20.6555C23.6945 21.2938 23.6945 22.3249 24.3852 22.9652C24.7294 23.2844 25.1862 23.444 25.6341 23.444V28.3601C25.6341 29.2623 26.4263 29.9886 27.4016 29.9886C28.3747 29.9886 29.1691 29.2623 29.1691 28.3601V20.1768C29.1691 19.9599 29.1161 19.7451 29.0301 19.5446C28.8491 19.1457 28.5049 18.8245 28.0724 18.6649Z" fill="#70845A"/>
<path fill-rule="evenodd" clip-rule="evenodd" d="M43.0971 18.6649C42.6646 18.4971 42.1836 18.4971 41.7511 18.6649C41.537 18.7447 41.3384 18.8654 41.1751 19.0168L39.4076 20.6555C38.717 21.2938 38.717 22.3249 39.4076 22.9652C39.7519 23.2844 40.2086 23.444 40.6566 23.444V28.3601C40.6566 29.2623 41.451 29.9886 42.4241 29.9886C43.3972 29.9886 44.1916 29.2623 44.1916 28.3601V20.1768C44.1916 19.9599 44.1386 19.7451 44.0525 19.5446C43.8716 19.1457 43.5274 18.8245 43.0971 18.6649Z" fill="#70845A"/>
<path fill-rule="evenodd" clip-rule="evenodd" d="M34.1038 25.2188L32.3384 26.9839C31.6476 27.6737 31.6476 28.7843 32.3384 29.4719C32.6826 29.8156 33.1394 29.9875 33.5874 29.9875C34.0354 29.9875 34.4922 29.8156 34.8365 29.4719L36.6042 27.7155C37.2949 27.028 37.2949 25.9085 36.6042 25.2188C35.9156 24.5312 34.7946 24.5312 34.1038 25.2188Z" fill="#70845A"/>
<path fill-rule="evenodd" clip-rule="evenodd" d="M51.1239 19.5446C50.9492 19.1457 50.6044 18.8245 50.1646 18.6649C49.7336 18.4971 49.2495 18.4971 48.8185 18.6649C48.6019 18.7447 48.403 18.8654 48.2394 19.0168L46.4778 20.6555C45.786 21.2938 45.786 22.3249 46.4778 22.9652C46.8227 23.2844 47.2713 23.444 47.72 23.444V28.3601C47.72 29.2623 48.5157 29.9886 49.4905 29.9886C50.4674 29.9886 51.2609 29.2623 51.2609 28.3601V20.1768C51.2609 19.9599 51.2101 19.7451 51.1239 19.5446Z" fill="#70845A"/>
</svg>
