<svg width="96" height="97" viewBox="0 0 96 97" fill="none" xmlns="http://www.w3.org/2000/svg">
<path fill-rule="evenodd" clip-rule="evenodd" d="M76.1838 45.8809C82.7505 45.8809 88.0738 51.1082 88.0738 57.5563C88.0738 64.0049 82.7505 69.2322 76.1838 69.2322C69.6172 69.2322 64.2939 64.0049 64.2939 57.5563C64.2939 51.1082 69.6172 45.8809 76.1838 45.8809" fill="#FCC62D"/>
<path fill-rule="evenodd" clip-rule="evenodd" d="M44.0371 42.4222H46.6793V11.2871H44.0371V42.4222Z" fill="#6B962A"/>
<path fill-rule="evenodd" clip-rule="evenodd" d="M44.9178 11.2862H41.5905C35.159 11.2862 29.9453 6.25251 29.9453 0.0429688H33.2726C39.7041 0.0429688 44.9178 5.07667 44.9178 11.2862" fill="#88B337"/>
<path fill-rule="evenodd" clip-rule="evenodd" d="M29.9453 56.2588H53.7251V49.3398H29.9453V56.2588Z" fill="#E4AF18"/>
<path fill-rule="evenodd" clip-rule="evenodd" d="M33.4678 63.1787H57.2476V56.2598H33.4678V63.1787Z" fill="#FCC62D"/>
<path fill-rule="evenodd" clip-rule="evenodd" d="M29.9453 70.0966H53.7251V63.1777H29.9453V70.0966Z" fill="#E4AF18"/>
<path fill-rule="evenodd" clip-rule="evenodd" d="M33.4678 77.0166H57.2476V70.0977H33.4678V77.0166Z" fill="#FCC62D"/>
<path fill-rule="evenodd" clip-rule="evenodd" d="M33.4678 82.206H57.2476V75.2871H33.4678V82.206Z" fill="#E4AF18"/>
<path fill-rule="evenodd" clip-rule="evenodd" d="M36.9912 89.124H60.771V82.2051H36.9912V89.124Z" fill="#FCC62D"/>
<path fill-rule="evenodd" clip-rule="evenodd" d="M33.4678 96.0439H57.2476V89.125H33.4678V96.0439Z" fill="#E4AF18"/>
<path fill-rule="evenodd" clip-rule="evenodd" d="M25.541 17.3398H28.9172C38.2405 17.3398 45.7979 25.0839 45.7979 34.6371H42.4217C33.0986 34.6371 25.541 26.8933 25.541 17.3398" fill="#88B337"/>
<path fill-rule="evenodd" clip-rule="evenodd" d="M59.8895 0.0429688H56.5624C50.1307 0.0429688 44.917 5.07667 44.917 11.2862H48.2445C54.6758 11.2862 59.8895 6.25251 59.8895 0.0429688" fill="#6B962A"/>
<path fill-rule="evenodd" clip-rule="evenodd" d="M49.1741 34.6371H45.7979C45.7979 25.0837 53.3554 17.3398 62.6785 17.3398H66.0547C66.0547 26.8933 58.4972 34.6371 49.1741 34.6371" fill="#6B962A"/>
<path fill-rule="evenodd" clip-rule="evenodd" d="M0 70.0966H23.7798V63.1777H0V70.0966Z" fill="#FCC62D"/>
<path fill-rule="evenodd" clip-rule="evenodd" d="M0 77.0166H23.7798V70.0977H0V77.0166Z" fill="#E4AF18"/>
<path fill-rule="evenodd" clip-rule="evenodd" d="M3.52246 82.206H27.3023V75.2871H3.52246V82.206Z" fill="#FCC62D"/>
<path fill-rule="evenodd" clip-rule="evenodd" d="M0 89.124H23.7798V82.2051H0V89.124Z" fill="#E4AF18"/>
<path fill-rule="evenodd" clip-rule="evenodd" d="M3.52246 96.0439H27.3023V89.125H3.52246V96.0439Z" fill="#FCC62D"/>
<path fill-rule="evenodd" clip-rule="evenodd" d="M64.2939 77.0166H88.0738V70.0977H64.2939V77.0166Z" fill="#FCC62D"/>
<path fill-rule="evenodd" clip-rule="evenodd" d="M67.8164 82.206H91.5962V75.2871H67.8164V82.206Z" fill="#E4AF18"/>
<path fill-rule="evenodd" clip-rule="evenodd" d="M67.8164 89.124H91.5962V82.2051H67.8164V89.124Z" fill="#FCC62D"/>
<path fill-rule="evenodd" clip-rule="evenodd" d="M67.8164 96.0439H91.5962V89.125H67.8164V96.0439Z" fill="#E4AF18"/>
<path fill-rule="evenodd" clip-rule="evenodd" d="M76.6239 51.0703C80.5153 51.0703 83.6699 54.168 83.6699 57.9891C83.6699 61.8103 80.5153 64.9081 76.6239 64.9081C72.7326 64.9081 69.5781 61.8103 69.5781 57.9891C69.5781 54.168 72.7326 51.0703 76.6239 51.0703" fill="#FFA83D"/>
<path fill-rule="evenodd" clip-rule="evenodd" d="M75.7432 64.9072V61.4478C77.6896 61.4478 79.266 59.8999 79.266 57.9883H82.789C82.7888 61.8092 79.6342 64.9072 75.7432 64.9072" fill="#FD7B2F"/>
<path fill-rule="evenodd" clip-rule="evenodd" d="M73.1013 57.9892H69.5781C69.5781 54.1682 72.733 51.0703 76.624 51.0703V54.5301C74.678 54.5301 73.1013 56.0779 73.1013 57.9892" fill="#FD7B2F"/>
<path fill-rule="evenodd" clip-rule="evenodd" d="M79.2656 16.4746V16.4746C78.6668 12.9252 75.8342 10.1437 72.2197 9.55564C75.8342 8.96759 78.6668 6.18608 79.2656 2.63672C79.8644 6.18608 82.697 8.96759 86.3115 9.55564C82.697 10.1437 79.8644 12.9252 79.2656 16.4746" fill="#FDB62F"/>
<path fill-rule="evenodd" clip-rule="evenodd" d="M12.3301 53.664V53.664C11.7312 50.1147 8.89866 47.3331 5.28418 46.7451C8.89866 46.157 11.7312 43.3755 12.3301 39.8262C12.9289 43.3755 15.7614 46.157 19.3759 46.7451C15.7614 47.3331 12.9291 50.1147 12.3301 53.664" fill="#FDB62F"/>
<path fill-rule="evenodd" clip-rule="evenodd" d="M33.4678 49.3408H57.2476V42.4219H33.4678V49.3408Z" fill="#FCC62D"/>
<path fill-rule="evenodd" clip-rule="evenodd" d="M95.9999 38.0974H90.7156V32.9082H87.1926V38.0974H81.9082V41.5569H87.1926V46.746H90.7156V41.5569H95.9999V38.0974Z" fill="#FDB62F"/>
<path fill-rule="evenodd" clip-rule="evenodd" d="M29.9448 37.2315C24.1074 37.2315 19.376 32.9172 19.376 27.5944V25.9883H22.899V27.5944C22.899 31.1424 26.0537 34.0191 29.9448 34.0191V37.2315Z" fill="#DBDBDB"/>
</svg>
