<svg width="37" height="36" viewBox="0 0 37 36" fill="none" xmlns="http://www.w3.org/2000/svg">
<path fill-rule="evenodd" clip-rule="evenodd" d="M18.5039 30.5345H33.8879C34.2999 30.5345 34.6451 30.2348 34.6918 29.8386C34.8589 28.4229 35.3544 25.5515 35.3544 25.5515C35.7887 24.1239 35.8834 22.9604 35.8399 22.0696C35.7875 21.0414 35.3945 20.0565 34.7487 19.2394C33.2921 17.3962 33.0082 15.9328 33.0082 15.9328C31.8646 13.0203 30.8479 11.0797 30.1008 9.848C29.3146 8.55466 27.9549 7.68337 26.4216 7.49181C24.8773 7.29773 21.6892 7.20085 18.5039 7.20117V30.5345Z" fill="#F56363"/>
<path fill-rule="evenodd" clip-rule="evenodd" d="M18.5039 16.7648C23.1983 16.7608 27.8926 16.5786 32.5766 16.2182C31.6495 13.9485 30.7039 11.9665 29.763 10.3865C29.0498 9.19165 27.7918 8.35748 26.3999 8.17496C24.8382 7.97236 21.6831 7.87017 18.5039 7.86719V16.7648Z" fill="#5398FF"/>
<path fill-rule="evenodd" clip-rule="evenodd" d="M31.0737 18.6261C30.732 18.7355 30.4142 18.8891 30.1482 19.0415C29.6638 19.3177 29.1664 19.5751 28.6475 19.7762C27.7868 20.1098 27.6408 20.608 27.6408 20.608C27.6149 20.6423 27.59 20.6765 27.5663 20.7119C26.9132 21.7028 27.7706 23.0218 28.9286 22.8539C30.6034 22.612 31.983 22.116 32.6836 21.8287C33.0847 21.6641 33.3983 21.3216 33.501 20.8919C33.5107 20.8511 33.5194 20.8102 33.527 20.7704C33.7843 19.352 32.4219 18.1964 31.0737 18.6261Z" fill="#FFFFFE"/>
<path fill-rule="evenodd" clip-rule="evenodd" d="M33.2282 26.5352H31.2715C30.9774 26.5352 30.8298 26.8972 31.0376 27.11L32.9942 29.1028C33.2021 29.3145 33.5586 29.1642 33.5586 28.8646V26.8717C33.5586 26.6855 33.411 26.5352 33.2282 26.5352Z" fill="#F8D034"/>
<path fill-rule="evenodd" clip-rule="evenodd" d="M34.6577 29.6427C34.6052 30.084 34.216 30.416 33.7529 30.416H29.604V32.7226C29.604 33.539 30.2949 34.202 31.1484 34.202H33.7542C34.6064 34.202 35.2986 33.5402 35.2986 32.7226V25.502C35.1271 26.5017 34.7942 28.5002 34.6577 29.6427Z" fill="#3D3C3E"/>
<path fill-rule="evenodd" clip-rule="evenodd" d="M36.478 14.6799C36.3669 14.1957 35.8994 13.8672 35.3897 13.8672H34.4657C33.8737 13.8672 33.394 14.334 33.394 14.9101V15.551H32.9043L33.1852 16.2005H34.2625C34.8199 16.2005 35.3719 16.0838 35.8783 15.8579C36.3347 15.6547 36.5902 15.1684 36.478 14.6799Z" fill="#5078A7"/>
<path fill-rule="evenodd" clip-rule="evenodd" d="M31.9224 18.8672C32.6454 18.8672 33.2315 19.4641 33.2315 20.2005C33.2315 20.9369 32.6454 21.5339 31.9224 21.5339C31.1994 21.5339 30.6133 20.9369 30.6133 20.2005C30.6133 19.4641 31.1994 18.8672 31.9224 18.8672Z" fill="#F0A650"/>
<path fill-rule="evenodd" clip-rule="evenodd" d="M29.3041 20.2012C29.8463 20.2012 30.2859 20.6489 30.2859 21.2012C30.2859 21.7535 29.8463 22.2012 29.3041 22.2012C28.7618 22.2012 28.3223 21.7535 28.3223 21.2012C28.3223 20.6489 28.7618 20.2012 29.3041 20.2012Z" fill="#F8C86B"/>
<path fill-rule="evenodd" clip-rule="evenodd" d="M18.5039 23.8678H24.8067L26.3584 21.2012H18.5039V23.8678Z" fill="#676766"/>
<path fill-rule="evenodd" clip-rule="evenodd" d="M18.5039 30.5339H33.6957C34.1119 30.5339 34.4595 30.207 34.4982 29.7757L34.5402 29.3168H31.1066C29.1208 25.7563 26.8373 25.8676 26.8373 25.8676H18.5039V30.5339Z" fill="#6E6F6D"/>
<path fill-rule="evenodd" clip-rule="evenodd" d="M18.5039 29.5345H25.3028C25.5247 29.5345 25.7039 29.3379 25.7039 29.097C25.705 28.8549 25.5247 28.6595 25.3039 28.6595H18.5039V29.5345ZM18.5039 28.0762H25.3028C25.5247 28.0762 25.7039 27.8796 25.7039 27.6387C25.705 27.3966 25.5247 27.2012 25.3039 27.2012H18.5039V28.0762Z" fill="#676766"/>
<path fill-rule="evenodd" clip-rule="evenodd" d="M3.71956 15.9328C3.71956 15.9328 3.43153 17.3962 1.95398 19.2393C1.29879 20.0565 0.900095 21.0414 0.846947 22.0696C0.802898 22.9604 0.89893 24.1239 1.33949 25.5515C1.33949 25.5515 1.84215 28.4229 2.01164 29.8386C2.05904 30.2348 2.40925 30.5345 2.82716 30.5345H18.4894L18.5039 7.20117C18.5039 7.20117 11.9793 7.29629 10.4013 7.49178C8.84578 7.68334 7.46652 8.55464 6.66898 9.84798C5.91106 11.0797 4.87967 13.0203 3.71956 15.9328Z" fill="#4A90E2"/>
<path fill-rule="evenodd" clip-rule="evenodd" d="M18.5039 16.867C13.9451 16.8626 9.38628 16.6783 4.8375 16.3141C5.73868 14.0183 6.65771 12.0135 7.57222 10.4154C8.26537 9.20685 9.48809 8.3631 10.841 8.17848C12.3569 7.97381 15.4178 7.87044 18.5039 7.86719V16.867Z" fill="#5078A7"/>
<path fill-rule="evenodd" clip-rule="evenodd" d="M18.5039 23.8678H12.352L10.8373 21.2012H18.5039V23.8678Z" fill="#676766"/>
<path fill-rule="evenodd" clip-rule="evenodd" d="M9.27418 20.3781C9.25105 20.3427 9.22571 20.3085 9.19818 20.2743C9.19818 20.2743 9.0495 19.776 8.17303 19.4425C7.64453 19.2414 7.13916 18.984 6.64472 18.7079C6.37277 18.5554 6.05015 18.4019 5.70219 18.2925C4.33022 17.8617 2.94179 19.0183 3.20274 20.4366C3.21048 20.4774 3.21928 20.5172 3.22808 20.5581C3.33268 20.9878 3.65197 21.3302 4.06047 21.4949C4.77399 21.7821 6.17896 22.278 7.88568 22.5199C9.06603 22.6878 9.93923 21.3689 9.27418 20.3781Z" fill="#FFFFFE"/>
<path fill-rule="evenodd" clip-rule="evenodd" d="M6.16638 26.2012H4.1735C3.98728 26.2012 3.83691 26.3515 3.83691 26.5378V28.5306C3.83691 28.8302 4.20011 28.9806 4.41175 28.7688L6.40463 26.776C6.61627 26.5644 6.46591 26.2012 6.16638 26.2012Z" fill="#F8D034"/>
<path fill-rule="evenodd" clip-rule="evenodd" d="M18.5039 30.5339H3.66243C3.25581 30.5339 2.91623 30.207 2.87839 29.7757L2.83734 29.3168H6.19178C8.13177 25.7563 10.3627 25.8676 10.3627 25.8676H18.5039V30.5339Z" fill="#6E6F6D"/>
<path fill-rule="evenodd" clip-rule="evenodd" d="M2.96074 30.416C2.51854 30.416 2.14689 30.0828 2.09667 29.6428C1.96642 28.5003 1.64739 26.5006 1.48486 25.502V32.7226C1.48486 33.539 2.14451 34.202 2.95951 34.202H5.44764C6.26149 34.202 6.92236 33.5401 6.92236 32.7226V30.416H2.96074Z" fill="#3D3C3E"/>
<path fill-rule="evenodd" clip-rule="evenodd" d="M3.6706 15.5518V14.9106C3.6706 14.3343 3.18199 13.8672 2.58024 13.8672H1.63912C1.11997 13.8672 0.643762 14.1959 0.530615 14.6803C0.416374 15.1679 0.677662 15.6556 1.14148 15.8578C1.65837 16.0838 2.21944 16.2005 2.78722 16.2005H3.88442L4.17057 15.5507H3.6706V15.5518Z" fill="#5078A7"/>
<path fill-rule="evenodd" clip-rule="evenodd" d="M5.17025 18.8672C5.90663 18.8672 6.50358 19.4641 6.50358 20.2005C6.50358 20.9369 5.90663 21.5339 5.17025 21.5339C4.43387 21.5339 3.83691 20.9369 3.83691 20.2005C3.83691 19.4641 4.43387 18.8672 5.17025 18.8672Z" fill="#F0A650"/>
<path fill-rule="evenodd" clip-rule="evenodd" d="M7.83691 20.2012C8.38921 20.2012 8.83691 20.6489 8.83691 21.2012C8.83691 21.7535 8.38921 22.2012 7.83691 22.2012C7.28461 22.2012 6.83691 21.7535 6.83691 21.2012C6.83691 20.6489 7.28461 20.2012 7.83691 20.2012Z" fill="#F8C86B"/>
<path fill-rule="evenodd" clip-rule="evenodd" d="M18.5039 29.5345H11.5792C11.3531 29.5345 11.1706 29.3379 11.1706 29.097C11.1695 28.8549 11.3531 28.6595 11.578 28.6595H18.5039V29.5345ZM18.5039 28.0762H11.5792C11.3531 28.0762 11.1706 27.8796 11.1706 27.6387C11.1695 27.3966 11.3531 27.2012 11.578 27.2012H18.5039V28.0762Z" fill="#676766"/>
<path fill-rule="evenodd" clip-rule="evenodd" d="M17.3826 3.86985L10.7616 1.82229C10.6689 1.79361 10.5701 1.79361 10.4774 1.82229L3.8563 3.86985C3.64712 3.93452 3.50391 4.13299 3.50391 4.35811V11.8658C3.50391 12.8423 3.88739 13.842 4.64371 14.8369C5.22134 15.5968 6.02054 16.3599 7.01901 17.1049C8.69632 18.3564 10.3479 19.1242 10.4174 19.1563C10.4817 19.1859 10.5506 19.2008 10.6195 19.2008C10.6884 19.2008 10.7573 19.186 10.8216 19.1563C10.8911 19.1242 12.5427 18.3564 14.22 17.1049C15.2184 16.3598 16.0176 15.5968 16.5952 14.8369C17.3515 13.842 17.735 12.8423 17.735 11.8658V4.35811C17.735 4.13299 17.5918 3.93452 17.3826 3.86985Z" fill="#F7940A"/>
<path d="M17.3826 3.86985L10.7616 1.82229C10.6689 1.79361 10.5701 1.79361 10.4774 1.82229L3.8563 3.86985C3.64712 3.93452 3.50391 4.13299 3.50391 4.35811V11.8658C3.50391 12.8423 3.88739 13.842 4.64371 14.8369C5.22134 15.5968 6.02054 16.3599 7.01901 17.1049C8.69632 18.3564 10.3479 19.1242 10.4174 19.1563C10.4817 19.1859 10.5506 19.2008 10.6195 19.2008C10.6884 19.2008 10.7573 19.186 10.8216 19.1563C10.8911 19.1242 12.5427 18.3564 14.22 17.1049C15.2184 16.3598 16.0176 15.5968 16.5952 14.8369C17.3515 13.842 17.735 12.8423 17.735 11.8658V4.35811C17.735 4.13299 17.5918 3.93452 17.3826 3.86985" stroke="#C37201" stroke-width="2"/>
<path fill-rule="evenodd" clip-rule="evenodd" d="M5.62153 11.1162H4.82764V8.88237H5.62153V9.6323H5.72898L6.09907 8.88237H6.97056L6.35276 10.0025L6.97056 11.1162H6.09907L5.7051 10.3663H5.62153V11.1162ZM8.07254 11.1162H7.26969L8.01882 8.88237H8.87241L9.62154 11.1162H8.81869L8.75004 10.8609H8.14119L8.07254 11.1162ZM8.38299 9.94184L8.29047 10.2865H8.59788L8.50834 9.94184C8.48148 9.83653 8.4576 9.71846 8.44567 9.60677C8.43373 9.71846 8.40985 9.83653 8.38299 9.94184ZM9.91173 10.0152C9.90874 9.1632 10.4877 8.82812 11.0668 8.82812C11.2816 8.82812 11.5025 8.8728 11.6875 8.95896V9.69293C11.5801 9.6291 11.3921 9.56209 11.207 9.56209C10.9563 9.56209 10.7295 9.68016 10.7295 10.0152C10.7295 10.3024 10.9504 10.4237 11.1891 10.4237C11.404 10.4237 11.604 10.3758 11.7025 10.2929V11.0396C11.5144 11.1289 11.3115 11.1704 11.0906 11.1704C10.4818 11.1704 9.91173 10.8386 9.91173 10.0152ZM13.0702 11.1162H12.2763V8.88237H13.0702V9.6323H13.1776L13.5477 8.88237H14.4192L13.8014 10.0025L14.4192 11.1162H13.5477L13.1538 10.3663H13.0702V11.1162ZM14.79 9.99928C14.79 9.3419 15.172 8.82812 15.9301 8.82812C16.6882 8.82812 17.0732 9.3419 17.0732 9.99928C17.0732 10.6567 16.6882 11.1704 15.9301 11.1704C15.172 11.1704 14.79 10.6567 14.79 9.99928ZM16.2553 9.99928C16.2553 9.73123 16.127 9.59401 15.93 9.59401C15.736 9.59401 15.6076 9.73123 15.6076 9.99928C15.6076 10.2673 15.736 10.4046 15.93 10.4046C16.127 10.4046 16.2553 10.2673 16.2553 9.99928Z" fill="white"/>
<path fill-rule="evenodd" clip-rule="evenodd" d="M33.0799 3.86119L26.4125 1.8222C26.3192 1.79364 26.2197 1.79364 26.1263 1.8222L19.4589 3.86119C19.2482 3.92559 19.104 4.12323 19.104 4.3474V11.8237C19.104 12.7961 19.4902 13.7915 20.2518 14.7823C20.8335 15.539 21.6383 16.2989 22.6437 17.0408C24.3328 18.2871 25.996 19.0517 26.0659 19.0836C26.1307 19.1131 26.2 19.1279 26.2694 19.1279C26.3388 19.1279 26.4082 19.1132 26.4729 19.0836C26.5429 19.0517 28.2061 18.2871 29.8951 17.0408C30.9005 16.2989 31.7053 15.539 32.287 14.7823C33.0486 13.7915 33.4348 12.7961 33.4348 11.8237V4.3474C33.4348 4.12323 33.2905 3.92559 33.0799 3.86119Z" fill="#00A651"/>
<path d="M33.0799 3.86119L26.4125 1.8222C26.3192 1.79364 26.2197 1.79364 26.1263 1.8222L19.4589 3.86119C19.2482 3.92559 19.104 4.12323 19.104 4.3474V11.8237C19.104 12.7961 19.4902 13.7915 20.2518 14.7823C20.8335 15.539 21.6383 16.2989 22.6437 17.0408C24.3328 18.2871 25.996 19.0517 26.0659 19.0836C26.1307 19.1131 26.2 19.1279 26.2694 19.1279C26.3388 19.1279 26.4082 19.1132 26.4729 19.0836C26.5429 19.0517 28.2061 18.2871 29.8951 17.0408C30.9005 16.2989 31.7053 15.539 32.287 14.7823C33.0486 13.7915 33.4348 12.7961 33.4348 11.8237V4.3474C33.4348 4.12323 33.2905 3.92559 33.0799 3.86119" stroke="#007E3E" stroke-width="2"/>
<path fill-rule="evenodd" clip-rule="evenodd" d="M20.3506 10.115C20.3506 9.49462 20.7318 9.00977 21.4884 9.00977C22.245 9.00977 22.6292 9.49462 22.6292 10.115C22.6292 10.7354 22.245 11.2202 21.4884 11.2202C20.7318 11.2202 20.3506 10.7354 20.3506 10.115ZM21.8129 10.115C21.8129 9.86203 21.6848 9.73254 21.4882 9.73254C21.2946 9.73254 21.1666 9.86203 21.1666 10.115C21.1666 10.368 21.2946 10.4975 21.4882 10.4975C21.6848 10.4975 21.8129 10.368 21.8129 10.115ZM23.1066 10.1301C23.1036 9.32598 23.6814 9.00977 24.2593 9.00977C24.4738 9.00977 24.6942 9.05193 24.8789 9.13324V9.82589C24.7716 9.76566 24.584 9.70242 24.3993 9.70242C24.1491 9.70242 23.9227 9.81385 23.9227 10.1301C23.9227 10.4011 24.1431 10.5155 24.3814 10.5155C24.5959 10.5155 24.7954 10.4704 24.8937 10.3921V11.0968C24.7061 11.1811 24.5035 11.2202 24.2831 11.2202C23.6755 11.2202 23.1066 10.907 23.1066 10.1301ZM26.1246 11.169H25.3233L26.071 9.06096H26.9228L27.6705 11.169H26.8692L26.8007 10.9281H26.1931L26.1246 11.169ZM26.4341 10.0608L26.3418 10.386H26.6485L26.5592 10.0608C26.5324 9.96141 26.5086 9.84998 26.4966 9.74458C26.4847 9.84998 26.4609 9.96141 26.4341 10.0608ZM28.9339 11.169H28.1416V9.06096H29.75V9.75362H28.9339V11.169ZM30.1975 10.115C30.1975 9.49462 30.5787 9.00977 31.3353 9.00977C32.0918 9.00977 32.4761 9.49462 32.4761 10.115C32.4761 10.7354 32.0918 11.2202 31.3353 11.2202C30.5787 11.2202 30.1975 10.7354 30.1975 10.115ZM31.6601 10.115C31.6601 9.86203 31.532 9.73254 31.3355 9.73254C31.1418 9.73254 31.0138 9.86203 31.0138 10.115C31.0138 10.368 31.1418 10.4975 31.3355 10.4975C31.532 10.4975 31.6601 10.368 31.6601 10.115Z" fill="white"/>
</svg>
