<svg width="82" height="96" viewBox="0 0 82 96" fill="none" xmlns="http://www.w3.org/2000/svg">
<path fill-rule="evenodd" clip-rule="evenodd" d="M71.1529 74.7304C71.1529 76.6635 63.8363 78.2394 54.8051 78.2394C45.774 78.2394 38.4482 76.6635 38.4482 74.7304C38.4482 72.7859 45.774 69.0234 54.8051 69.0234C63.8363 69.0234 71.1529 72.7859 71.1529 74.7304" fill="#FCC62D"/>
<path fill-rule="evenodd" clip-rule="evenodd" d="M54.8051 78.2395C45.774 78.2395 38.4482 76.6635 38.4482 74.7305V82.101C38.4573 84.0363 45.774 85.61 54.8051 85.61C63.8272 85.61 71.1438 84.0363 71.1529 82.101V74.7305C71.1529 76.6635 63.8363 78.2395 54.8051 78.2395" fill="#E4AF18"/>
<path fill-rule="evenodd" clip-rule="evenodd" d="M71.1529 65.4863C71.1529 67.4194 63.8363 68.9953 54.8051 68.9953C45.774 68.9953 38.4482 67.4194 38.4482 65.4863C38.4482 63.5417 45.774 59.7793 54.8051 59.7793C63.8363 59.7793 71.1529 63.5417 71.1529 65.4863" fill="#FCC62D"/>
<path fill-rule="evenodd" clip-rule="evenodd" d="M54.8051 68.9953C45.774 68.9953 38.4482 67.4194 38.4482 65.4863V72.8568C38.4573 74.7922 45.774 76.3658 54.8051 76.3658C63.8272 76.3658 71.1438 74.7922 71.1529 72.8568V65.4863C71.1529 67.4194 63.8363 68.9953 54.8051 68.9953" fill="#E4AF18"/>
<path fill-rule="evenodd" clip-rule="evenodd" d="M71.1529 56.2422C71.1529 58.1752 63.8363 59.7512 54.8051 59.7512C45.774 59.7512 38.4482 58.1752 38.4482 56.2422C38.4482 54.2976 45.774 50.5352 54.8051 50.5352C63.8363 50.5352 71.1529 54.2976 71.1529 56.2422" fill="#FCC62D"/>
<path fill-rule="evenodd" clip-rule="evenodd" d="M54.8051 59.7512C45.774 59.7512 38.4482 58.1752 38.4482 56.2422V63.6127C38.4573 65.548 45.774 67.1217 54.8051 67.1217C63.8272 67.1217 71.1438 65.548 71.1529 63.6127V56.2422C71.1529 58.1752 63.8363 59.7512 54.8051 59.7512" fill="#E4AF18"/>
<path fill-rule="evenodd" clip-rule="evenodd" d="M71.1529 46.9961C71.1529 48.9291 63.8363 50.5051 54.8051 50.5051C45.774 50.5051 38.4482 48.9291 38.4482 46.9961C38.4482 45.0515 45.774 41.2891 54.8051 41.2891C63.8363 41.2891 71.1529 45.0515 71.1529 46.9961" fill="#FCC62D"/>
<path fill-rule="evenodd" clip-rule="evenodd" d="M54.8051 50.5051C45.774 50.5051 38.4482 48.9291 38.4482 46.9961V54.3666C38.4573 56.3019 45.774 57.8756 54.8051 57.8756C63.8272 57.8756 71.1438 56.3019 71.1529 54.3666V46.9961C71.1529 48.9291 63.8363 50.5051 54.8051 50.5051" fill="#E4AF18"/>
<path fill-rule="evenodd" clip-rule="evenodd" d="M43.1477 29.6748C40.8872 29.6748 38.6246 28.8285 36.8989 27.1315C36.2095 26.4545 36.2095 25.3608 36.8989 24.6816C37.5905 24.0046 38.7108 24.0046 39.4024 24.6816C41.4639 26.7084 44.8314 26.7084 46.9018 24.6816C47.5934 24.0046 48.7071 24.0046 49.3965 24.6816C50.0881 25.3608 50.0881 26.4545 49.3965 27.1315C47.6796 28.8285 45.4169 29.6748 43.1477 29.6748" fill="#3C494E"/>
<path fill-rule="evenodd" clip-rule="evenodd" d="M52.6508 73.0335L39.7555 35.753C38.6861 32.6673 37.968 29.4796 37.6144 26.2506L36.6996 17.8918C36.6223 17.1562 36.6223 16.4097 36.7085 15.6719C36.8212 14.7388 36.9493 13.3999 37.0024 13.2393C37.6321 11.4513 38.8231 8.96663 40.9377 7.21328C42.9926 5.50115 42.4667 2.29608 39.9102 1.46497C36.2246 0.269303 31.728 -0.101765 27.965 2.84725C26.6702 3.8563 24.8848 3.8563 23.59 2.84725C19.8248 -0.101765 15.3283 0.269303 11.6426 1.46497C9.09716 2.29608 8.56243 5.50115 10.6152 7.21328C12.732 8.96663 13.9229 11.4513 14.5527 13.2393C14.6654 13.5779 14.7847 15.4354 14.9747 16.4596C15.0963 17.1041 15.1736 17.7486 15.1736 18.4104V24.4625C15.1736 28.8785 14.4997 33.2619 13.1805 37.4738L2.12362 72.7774C-2.9607 84.1959 4.71328 92.724 17.3744 93.5703C17.8141 93.5963 18.256 93.6136 18.7046 93.6136H35.7583C36.2091 93.6136 36.6577 93.5963 37.0974 93.5703C49.648 92.7326 57.3882 84.4758 52.6508 73.0335" fill="#4A90E2"/>
<path fill-rule="evenodd" clip-rule="evenodd" d="M38.1488 27.6415H15.1732C14.1988 27.6415 13.4033 26.869 13.4033 25.912C13.4033 24.9442 14.1988 24.1738 15.1732 24.1738H38.1488C39.1254 24.1738 39.9187 24.9442 39.9187 25.912C39.9187 26.869 39.1254 27.6415 38.1488 27.6415" fill="#3C494E"/>
<path fill-rule="evenodd" clip-rule="evenodd" d="M38.1488 22.4351H15.1732C14.1988 22.4351 13.4033 21.6561 13.4033 20.6969C13.4033 19.74 14.1988 18.9609 15.1732 18.9609H38.1488C39.1254 18.9609 39.9187 19.74 39.9187 20.6969C39.9187 21.6561 39.1254 22.4351 38.1488 22.4351" fill="#3C494E"/>
<path fill-rule="evenodd" clip-rule="evenodd" d="M38.1488 17.2322H15.1732C14.1988 17.2322 13.4033 16.451 13.4033 15.494C13.4033 14.5371 14.1988 13.7559 15.1732 13.7559H38.1488C39.1254 13.7559 39.9187 14.5371 39.9187 15.494C39.9187 16.451 39.1254 17.2322 38.1488 17.2322" fill="#3C494E"/>
<path fill-rule="evenodd" clip-rule="evenodd" d="M15.1734 86.6719C10.2968 86.6719 6.33496 81.9934 6.33496 76.2538C6.33496 75.2968 7.11937 74.5156 8.09602 74.5156C9.07046 74.5156 9.86592 75.2968 9.86592 76.2538C9.86592 80.086 12.2479 83.1956 15.1734 83.1956C16.1479 83.1956 16.9345 83.9768 16.9345 84.9338C16.9345 85.8907 16.1479 86.6719 15.1734 86.6719" fill="#7AB8FF"/>
<path fill-rule="evenodd" clip-rule="evenodd" d="M81.1012 84.6855C81.1012 86.6186 73.7845 88.1945 64.7534 88.1945C55.7222 88.1945 48.3965 86.6186 48.3965 84.6855C48.3965 82.7409 55.7222 78.9785 64.7534 78.9785C73.7845 78.9785 81.1012 82.7409 81.1012 84.6855" fill="#FCC62D"/>
<path fill-rule="evenodd" clip-rule="evenodd" d="M64.7534 88.1945C55.7222 88.1945 48.3965 86.6186 48.3965 84.6855V92.0561C48.4056 93.9914 55.7222 95.565 64.7534 95.565C73.7754 95.565 81.0921 93.9914 81.1012 92.0561V84.6855C81.1012 86.6186 73.7845 88.1945 64.7534 88.1945" fill="#E4AF18"/>
<path fill-rule="evenodd" clip-rule="evenodd" d="M81.1012 74.7304C81.1012 76.6635 73.7845 78.2394 64.7534 78.2394C55.7222 78.2394 48.3965 76.6635 48.3965 74.7304C48.3965 72.7859 55.7222 69.0234 64.7534 69.0234C73.7845 69.0234 81.1012 72.7859 81.1012 74.7304" fill="#FCC62D"/>
<path fill-rule="evenodd" clip-rule="evenodd" d="M64.7534 78.2395C55.7222 78.2395 48.3965 76.6635 48.3965 74.7305V82.101C48.4056 84.0363 55.7222 85.61 64.7534 85.61C73.7754 85.61 81.0921 84.0363 81.1012 82.101V74.7305C81.1012 76.6635 73.7845 78.2395 64.7534 78.2395" fill="#E4AF18"/>
</svg>
