<svg width="96" height="97" viewBox="0 0 96 97" fill="none" xmlns="http://www.w3.org/2000/svg">
<path fill-rule="evenodd" clip-rule="evenodd" d="M8.7168 47.8866V95.9927H87.2705V47.8866L47.9934 5.16992L8.7168 47.8866Z" fill="#549AE6"/>
<path fill-rule="evenodd" clip-rule="evenodd" d="M8.7168 47.8865V55.0725C9.51843 54.6735 10.1196 54.274 10.921 53.6754L47.9936 16.3482L85.2664 53.4757C85.8675 54.0745 86.6692 54.6735 87.4706 54.873V47.6871L47.9936 5.16992L8.7168 47.8865Z" fill="#231F20"/>
<path fill-rule="evenodd" clip-rule="evenodd" d="M26.3517 32.3173V8.96297C26.3517 6.16849 24.1475 3.97266 21.3419 3.97266C18.5365 3.97266 16.332 6.1683 16.332 8.96297V32.3173H26.3517Z" fill="#344C5B"/>
<mask id="mask0" mask-type="alpha" maskUnits="userSpaceOnUse" x="0" y="0" width="96" height="53">
<path fill-rule="evenodd" clip-rule="evenodd" d="M0 0.230469H95.8133V52.7779H0V0.230469Z" fill="white"/>
</mask>
<g mask="url(#mask0)">
<path fill-rule="evenodd" clip-rule="evenodd" d="M94.4847 44.2945L51.6009 1.57784C49.7974 -0.218654 46.3908 -0.218654 44.5873 1.57784L1.50298 44.2945C-0.500994 46.2906 -0.500994 49.4843 1.50298 51.2808C2.50488 52.2788 3.70722 52.6781 5.11003 52.6781C6.31238 52.6781 7.71518 52.2789 8.71707 51.2808L47.9938 12.1573L87.2708 51.2808C89.2748 53.2769 92.4807 53.2769 94.2844 51.2808C96.2884 49.2848 96.2884 46.2906 94.4847 44.2945" fill="#40596B"/>
</g>
<path fill-rule="evenodd" clip-rule="evenodd" d="M61.4199 61.7324V80.3428C61.4199 83.6389 64.1087 86.3172 67.4178 86.3172C70.727 86.3172 73.4158 83.6389 73.4158 80.3428V61.7324H61.4199Z" fill="#E6E9EE"/>
<path fill-rule="evenodd" clip-rule="evenodd" d="M66.234 44.4492C77.1996 44.4492 86.0893 53.3039 86.0893 64.2269C86.0893 75.1499 77.1996 84.0046 66.234 84.0046C55.2684 84.0046 46.3789 75.1499 46.3789 64.2269C46.3789 53.3039 55.2684 44.4492 66.234 44.4492" fill="#FFD15C"/>
<path fill-rule="evenodd" clip-rule="evenodd" d="M66.2338 48.1113C75.169 48.1113 82.4122 55.3263 82.4122 64.2264C82.4122 73.1267 75.169 80.3417 66.2338 80.3417C57.2987 80.3417 50.0557 73.1267 50.0557 64.2264C50.0557 55.3263 57.2987 48.1113 66.2338 48.1113" fill="#F8B64C"/>
<path fill-rule="evenodd" clip-rule="evenodd" d="M67.7044 66.2427V69.5389C68.9915 69.3561 69.5429 68.6234 69.5429 67.7078C69.5429 66.9752 68.8076 66.6091 67.7044 66.2427ZM65.3146 61.8477V58.9175C64.2116 59.1007 63.6602 59.6502 63.6602 60.5656C63.4761 61.1152 64.2116 61.4815 65.3146 61.8477ZM65.3147 72.6523C62.7409 72.4689 60.7185 71.3702 59.4316 70.0883L61.454 67.3414C62.3731 68.257 63.6601 69.1727 65.4986 69.5389V65.6933C62.9248 65.1439 60.1671 64.0452 60.1671 60.749C60.1671 58.1851 62.1893 56.1708 65.4986 55.8046V53.4238H67.8885V55.8046C69.9107 55.9876 71.5654 56.72 73.0362 58.0021L71.014 60.5656C70.0948 59.8334 68.9916 59.2838 67.8885 58.9177V62.3971C70.4624 63.1297 73.4039 64.0454 73.4039 67.525C73.4039 70.2717 71.5654 72.4691 67.8885 72.8353V75.033H65.4986V72.6523H65.3147Z" fill="#FFD15C"/>
<path fill-rule="evenodd" clip-rule="evenodd" d="M61.4197 80.3425V33.0957H16.332V80.3425C16.332 83.6387 19.0208 86.3169 22.3299 86.3169H67.4176C64.1085 86.3169 61.4197 83.6387 61.4197 80.3425" fill="white"/>
<mask id="mask1" mask-type="alpha" maskUnits="userSpaceOnUse" x="0" y="0" width="96" height="96">
<path fill-rule="evenodd" clip-rule="evenodd" d="M0 95.9936H95.8133V0.230469H0V95.9936Z" fill="white"/>
</mask>
<g mask="url(#mask1)">
<path fill-rule="evenodd" clip-rule="evenodd" d="M21.4336 62.6249H56.3179V60.9766H21.4336V62.6249Z" fill="#E6E9EE"/>
<path fill-rule="evenodd" clip-rule="evenodd" d="M21.4336 67.2264H56.3179V65.5781H21.4336V67.2264Z" fill="#E6E9EE"/>
<path fill-rule="evenodd" clip-rule="evenodd" d="M21.4336 71.828H56.3179V70.1797H21.4336V71.828Z" fill="#E6E9EE"/>
<path fill-rule="evenodd" clip-rule="evenodd" d="M21.4336 53.6129H56.3179V51.9648H21.4336V53.6129Z" fill="#E6E9EE"/>
<path fill-rule="evenodd" clip-rule="evenodd" d="M21.4336 58.2145H56.3179V56.5664H21.4336V58.2145Z" fill="#E6E9EE"/>
<path fill-rule="evenodd" clip-rule="evenodd" d="M21.4336 76.4977H56.3179V74.8496H21.4336V76.4977Z" fill="#E6E9EE"/>
<path fill-rule="evenodd" clip-rule="evenodd" d="M21.4336 81.0973H42.6674V79.4492H21.4336V81.0973Z" fill="#E6E9EE"/>
<path fill-rule="evenodd" clip-rule="evenodd" d="M22.963 40.4766V42.0442C22.963 42.8906 22.9472 43.7293 22.9 44.4346H22.9316C23.2068 43.8156 23.561 43.118 23.8758 42.5538L25.0167 40.4766H26.2443V45.7594H25.1426V44.1998C25.1426 43.3844 25.1584 42.6634 25.2292 41.9736H25.2057C24.9617 42.6007 24.6233 43.2982 24.3087 43.8549L23.2305 45.7594H21.8613V40.4766H22.963Z" fill="#3F3F3F"/>
<path fill-rule="evenodd" clip-rule="evenodd" d="M31.5785 40.4766V45.7594H30.3746V41.4562H28.4939V45.7594H27.29V40.4766H31.5785Z" fill="#3F3F3F"/>
<path fill-rule="evenodd" clip-rule="evenodd" d="M33.6389 43.134C33.6389 44.1685 34.1268 44.8976 34.9294 44.8976C35.74 44.8976 36.2043 44.1294 36.2043 43.1026C36.2043 42.1542 35.7479 41.339 34.9215 41.339C34.111 41.339 33.6389 42.1072 33.6389 43.134ZM37.4712 43.0635C37.4712 44.7956 36.4168 45.846 34.8666 45.846C33.2928 45.846 32.3721 44.6623 32.3721 43.1574C32.3721 41.5741 33.3873 40.3906 34.9532 40.3906C36.582 40.3906 37.4712 41.6055 37.4712 43.0635Z" fill="#3F3F3F"/>
<path fill-rule="evenodd" clip-rule="evenodd" d="M39.2094 41.4798H37.7852V40.4766H41.8611V41.4798H40.4134V45.7594H39.2094V41.4798Z" fill="#3F3F3F"/>
<path fill-rule="evenodd" clip-rule="evenodd" d="M45.6525 43.5255H43.7009V44.7797H45.8805V45.7596H42.4971V40.4766H45.7705V41.4562H43.7009V42.5538H45.6525V43.5255Z" fill="#3F3F3F"/>
<path fill-rule="evenodd" clip-rule="evenodd" d="M47.8865 40.4766V42.6713H47.9887L49.4524 40.4766H50.908L49.059 42.8201C49.7434 42.9926 50.0504 43.4629 50.2707 44.0978C50.4597 44.662 50.6327 45.2343 50.8845 45.7594H49.594C49.4129 45.399 49.3107 44.9914 49.1849 44.5993C49.0039 44.0037 48.7599 43.5491 48.1146 43.5491H47.8865V45.7594H46.6982V40.4766H47.8865Z" fill="#3F3F3F"/>
<path fill-rule="evenodd" clip-rule="evenodd" d="M54.1338 43.5098L53.8033 42.3891C53.7088 42.0754 53.6143 41.6836 53.5356 41.3699H53.5198C53.4413 41.6836 53.3627 42.0833 53.2761 42.3891L52.9613 43.5098H54.1338ZM52.7881 44.4034L52.4103 45.7594H51.167L52.7881 40.4766H54.3619L56.0064 45.7594H54.716L54.3066 44.4034H52.7881Z" fill="#3F3F3F"/>
<path fill-rule="evenodd" clip-rule="evenodd" d="M8.71777 95.9938H87.2713V92.7109H8.71777V95.9938Z" fill="#85C0FF"/>
</g>
</svg>
