<svg width="70" height="97" viewBox="0 0 70 97" fill="none" xmlns="http://www.w3.org/2000/svg">
<path fill-rule="evenodd" clip-rule="evenodd" d="M38.4739 43.4199L41.0438 45.9898L32.2359 54.7977L29.666 52.2278L38.4739 43.4199" fill="#666866"/>
<path fill-rule="evenodd" clip-rule="evenodd" d="M38.5553 41.998C39.9299 41.998 41.0442 43.1123 41.0442 44.4869C41.0442 45.8615 39.9299 46.9758 38.5553 46.9758C37.1807 46.9758 36.0664 45.8615 36.0664 44.4869C36.0664 43.1123 37.1807 41.998 38.5553 41.998" fill="#3E3D3F"/>
<path fill-rule="evenodd" clip-rule="evenodd" d="M41.0438 52.2278L38.4739 54.7977L29.666 45.9898L32.2359 43.4199L41.0438 52.2278" fill="#6F706E"/>
<path fill-rule="evenodd" clip-rule="evenodd" d="M31.444 41.998C32.8186 41.998 33.9329 43.1123 33.9329 44.4869C33.9329 45.8615 32.8186 46.9758 31.444 46.9758C30.0694 46.9758 28.9551 45.8615 28.9551 44.4869C28.9551 43.1123 30.0694 41.998 31.444 41.998" fill="#3E3D3F"/>
<path fill-rule="evenodd" clip-rule="evenodd" d="M21.3525 96.0438H48.6468C54.4224 96.0438 60.1416 94.0713 64.3269 90.054C67.5966 86.9146 69.4885 83.2104 69.4885 79.2391C69.4885 75.6838 67.9589 72.3474 65.2902 69.4335C62.3634 66.2394 60.3477 62.325 59.8249 58.0078C59.4495 54.9056 56.8611 52.666 53.867 52.666H16.0629C13.3551 52.666 11.0813 54.5466 10.3306 57.1715C8.8661 62.2943 6.27118 66.9574 3.20112 71.2965C1.4719 73.7397 0.510742 76.4216 0.510742 79.2413C0.510742 83.2126 2.40051 86.9146 5.67236 90.0562C9.85546 94.0713 15.5768 96.0438 21.3525 96.0438" fill="#F56363"/>
<path fill-rule="evenodd" clip-rule="evenodd" d="M0.510742 82.5312C1.15632 85.3566 2.84392 87.9956 5.36125 90.3099C9.53801 94.1553 15.2507 96.0424 21.0176 96.0424H48.2705C54.0374 96.0424 59.748 94.1553 63.9269 90.312C66.4442 87.9956 68.1318 85.3587 68.7774 82.5333H0.510742V82.5312" fill="#FF8282"/>
<path fill-rule="evenodd" clip-rule="evenodd" d="M23.2667 5.02148C27.9795 5.02148 31.8001 8.84201 31.8001 13.5548C31.8001 18.2676 27.9795 22.0882 23.2667 22.0882C18.5539 22.0882 14.7334 18.2676 14.7334 13.5548C14.7334 8.84201 18.5539 5.02148 23.2667 5.02148" fill="#F0A651"/>
<path fill-rule="evenodd" clip-rule="evenodd" d="M23.2672 7.1543C26.8019 7.1543 29.6672 10.0196 29.6672 13.5543C29.6672 17.089 26.8019 19.9543 23.2672 19.9543C19.7325 19.9543 16.8672 17.089 16.8672 13.5543C16.8672 10.0196 19.7325 7.1543 23.2672 7.1543" fill="#EA8739"/>
<path fill-rule="evenodd" clip-rule="evenodd" d="M24.0046 16.6399C24.2585 16.5894 24.4663 16.4665 24.6258 16.269C24.7853 16.0715 24.8671 15.8411 24.8671 15.5756C24.8671 15.3387 24.8 15.1324 24.6657 14.9612C24.5314 14.7901 24.311 14.6562 24.0067 14.5641V16.6399H24.0046ZM23.268 10.9743C23.0686 11.0445 22.9071 11.1652 22.7895 11.3363C22.6699 11.5075 22.6112 11.6962 22.6112 11.9002C22.6112 12.0889 22.6657 12.2623 22.7748 12.4247C22.884 12.587 23.0477 12.7165 23.268 12.8152V10.9743ZM23.268 16.5652V14.3337C22.6007 14.1362 22.1138 13.8356 21.8032 13.4318C21.4926 13.0281 21.3373 12.541 21.3373 11.9661C21.3373 11.3846 21.5136 10.8953 21.8641 10.5003C22.2145 10.1053 22.6825 9.87713 23.2659 9.81569V9.28906H24.0046V9.81569C24.5439 9.88371 24.9741 10.0746 25.2931 10.3928C25.6121 10.7109 25.8157 11.1366 25.9038 11.6676L24.6153 11.8432C24.5376 11.4241 24.3341 11.141 24.0046 10.9918V13.0742C24.8189 13.3046 25.375 13.603 25.6688 13.9716C25.9647 14.3381 26.1116 14.8098 26.1116 15.3847C26.1116 16.0277 25.9248 16.5674 25.5533 17.0085C25.1819 17.4495 24.6657 17.7194 24.0025 17.8182V18.5335H23.2638V17.8423C22.6804 17.7677 22.202 17.5395 21.8368 17.1555C21.4696 16.7715 21.2366 16.2317 21.1338 15.5318L22.4622 15.3825C22.5167 15.6678 22.6196 15.9114 22.7686 16.1176C22.9176 16.3239 23.0833 16.4731 23.268 16.5652Z" fill="#FFFFFE"/>
<path fill-rule="evenodd" clip-rule="evenodd" d="M42.111 13.5547C45.842 13.5547 48.8666 16.5793 48.8666 20.3102C48.8666 24.0412 45.842 27.0658 42.111 27.0658C38.3801 27.0658 35.3555 24.0412 35.3555 20.3102C35.3555 16.5793 38.3801 13.5547 42.111 13.5547" fill="#6DACF6"/>
<path fill-rule="evenodd" clip-rule="evenodd" d="M42.1107 14.9766C45.0562 14.9766 47.444 17.3643 47.444 20.3099C47.444 23.2555 45.0562 25.6432 42.1107 25.6432C39.1651 25.6432 36.7773 23.2555 36.7773 20.3099C36.7773 17.3643 39.1651 14.9766 42.1107 14.9766" fill="#4A90E2"/>
<path fill-rule="evenodd" clip-rule="evenodd" d="M40.0957 23.4645L43.4773 16.9453H44.8021L41.4321 23.4645H40.0957ZM38.7129 18.5955C38.7129 18.1151 38.8601 17.72 39.1545 17.4101C39.4489 17.1003 39.8323 16.9453 40.3049 16.9453C40.7853 16.9453 41.1726 17.0983 41.467 17.4043C41.7614 17.7103 41.9086 18.1074 41.9086 18.5955C41.9086 19.0061 41.7749 19.3798 41.5077 19.7169C41.2404 20.0539 40.8395 20.2224 40.3049 20.2224C39.7859 20.2224 39.3908 20.0539 39.1196 19.7169C38.8485 19.3798 38.7129 19.0061 38.7129 18.5955ZM39.8749 18.5955C39.8749 18.9208 39.904 19.1552 39.9621 19.2985C40.0202 19.4418 40.1345 19.5135 40.3049 19.5135C40.5838 19.5135 40.7232 19.2036 40.7232 18.5838C40.7232 17.9641 40.5838 17.6542 40.3049 17.6542C40.0182 17.6542 39.8749 17.9679 39.8749 18.5955ZM43.0009 21.8492C43.0009 21.3612 43.1481 20.9641 43.4425 20.6581C43.7368 20.3521 44.1203 20.1991 44.5929 20.1991C45.0732 20.1991 45.4606 20.3521 45.755 20.6581C46.0494 20.9641 46.1966 21.3612 46.1966 21.8492C46.1966 22.2676 46.0629 22.6433 45.7956 22.9765C45.5284 23.3096 45.1275 23.4761 44.5929 23.4761C44.1281 23.4761 43.7465 23.3231 43.4483 23.0171C43.15 22.7111 43.0009 22.3218 43.0009 21.8492ZM44.163 21.8492C44.163 22.1901 44.196 22.4283 44.2618 22.5639C44.3277 22.6995 44.4381 22.7673 44.593 22.7673C44.8719 22.7673 45.0114 22.4574 45.0114 21.8376C45.0114 21.52 44.9823 21.2856 44.9242 21.1346C44.8661 20.9835 44.7557 20.908 44.593 20.908C44.3064 20.908 44.163 21.2217 44.163 21.8492Z" fill="white"/>
<path fill-rule="evenodd" clip-rule="evenodd" d="M23.6216 27.0645C26.9598 27.0645 29.666 29.7707 29.666 33.1089C29.666 36.4471 26.9598 39.1533 23.6216 39.1533C20.2834 39.1533 17.5771 36.4471 17.5771 33.1089C17.5771 29.7707 20.2834 27.0645 23.6216 27.0645" fill="#6DACF6"/>
<path fill-rule="evenodd" clip-rule="evenodd" d="M23.6212 28.4863C26.1741 28.4863 28.2435 30.5557 28.2435 33.1086C28.2435 35.6614 26.1741 37.7308 23.6212 37.7308C21.0684 37.7308 18.999 35.6614 18.999 33.1086C18.999 30.5557 21.0684 28.4863 23.6212 28.4863" fill="#4A90E2"/>
<path fill-rule="evenodd" clip-rule="evenodd" d="M22.1202 35.5159L24.7139 30.5156H25.73L23.1452 35.5159H22.1202ZM21.0596 31.7813C21.0596 31.4129 21.1725 31.1098 21.3983 30.8721C21.6241 30.6345 21.9182 30.5156 22.2807 30.5156C22.6491 30.5156 22.9462 30.633 23.172 30.8677C23.3978 31.1024 23.5107 31.4069 23.5107 31.7813C23.5107 32.0962 23.4082 32.3829 23.2032 32.6414C22.9982 32.8999 22.6907 33.0291 22.2807 33.0291C21.8825 33.0291 21.5795 32.8999 21.3715 32.6414C21.1636 32.3829 21.0596 32.0962 21.0596 31.7813ZM21.9509 31.7813C21.9509 32.0308 21.9732 32.2106 22.0177 32.3205C22.0623 32.4305 22.1499 32.4854 22.2807 32.4854C22.4946 32.4854 22.6015 32.2477 22.6015 31.7724C22.6015 31.297 22.4946 31.0593 22.2807 31.0593C22.0608 31.0593 21.9509 31.3 21.9509 31.7813ZM24.3485 34.2769C24.3485 33.9026 24.4614 33.5981 24.6872 33.3634C24.913 33.1286 25.2071 33.0113 25.5696 33.0113C25.938 33.0113 26.2351 33.1286 26.4609 33.3634C26.6867 33.5981 26.7996 33.9026 26.7996 34.2769C26.7996 34.5978 26.6971 34.886 26.4921 35.1415C26.2871 35.397 25.9796 35.5248 25.5696 35.5248C25.2131 35.5248 24.9204 35.4074 24.6917 35.1727C24.4629 34.938 24.3485 34.6394 24.3485 34.2769ZM25.2398 34.2769C25.2398 34.5384 25.2651 34.7211 25.3156 34.8251C25.3661 34.9291 25.4508 34.9811 25.5696 34.9811C25.7835 34.9811 25.8905 34.7434 25.8905 34.268C25.8905 34.0244 25.8682 33.8447 25.8236 33.7288C25.7791 33.6129 25.6944 33.555 25.5696 33.555C25.3497 33.555 25.2398 33.7956 25.2398 34.2769Z" fill="white"/>
<path fill-rule="evenodd" clip-rule="evenodd" d="M42.822 31.332C46.553 31.332 49.5775 34.3566 49.5775 38.0876C49.5775 41.8186 46.553 44.8431 42.822 44.8431C39.091 44.8431 36.0664 41.8186 36.0664 38.0876C36.0664 34.3566 39.091 31.332 42.822 31.332" fill="#F0A651"/>
<path fill-rule="evenodd" clip-rule="evenodd" d="M42.8216 32.7539C45.7671 32.7539 48.1549 35.1418 48.1549 38.0872C48.1549 41.0327 45.7671 43.4206 42.8216 43.4206C39.8761 43.4206 37.4883 41.0327 37.4883 38.0872C37.4883 35.1418 39.8761 32.7539 42.8216 32.7539" fill="#EA8739"/>
<path fill-rule="evenodd" clip-rule="evenodd" d="M43.1775 39.8647C43.3871 39.8309 43.56 39.7466 43.6919 39.6117C43.8237 39.4768 43.8886 39.3175 43.8886 39.1358C43.8886 38.9727 43.8324 38.8322 43.7221 38.7142C43.6119 38.5961 43.4303 38.5062 43.1775 38.4424V39.8647ZM42.4663 35.598C42.251 35.6529 42.0782 35.7459 41.9479 35.8769C41.8204 36.008 41.7552 36.1538 41.7552 36.3123C41.7552 36.4581 41.8147 36.5933 41.9309 36.718C42.0499 36.8427 42.2255 36.9441 42.4663 37.0202V35.598ZM42.4675 40.3364V38.4479C41.8031 38.279 41.3139 38.0244 41.0026 37.6842C40.6914 37.344 40.537 36.9298 40.537 36.4438C40.537 35.9508 40.7123 35.5366 41.0628 35.2033C41.4133 34.8677 41.8815 34.6757 42.4648 34.6247V34.1758H43.2025V34.6224C43.7413 34.6803 44.1729 34.8423 44.4921 35.1107C44.8112 35.3792 45.0152 35.7402 45.1041 36.1892L43.8146 36.3373C43.7361 35.9832 43.5321 35.7425 43.2025 35.6153V37.3764C44.0186 37.5708 44.5731 37.8254 44.8687 38.1355C45.1643 38.4456 45.3108 38.846 45.3108 39.332C45.3108 39.8758 45.1251 40.334 44.7536 40.7066C44.3822 41.0792 43.8643 41.3084 43.2025 41.3917V41.998H42.4675V41.4171C41.8815 41.3546 41.4029 41.1602 41.0366 40.8362C40.6704 40.5122 40.435 40.054 40.333 39.4616L41.6618 39.3343C41.7167 39.575 41.8188 39.7809 41.9679 39.9568C42.117 40.1327 42.2844 40.2577 42.4675 40.3364Z" fill="#FFFFFE"/>
<path fill-rule="evenodd" clip-rule="evenodd" d="M45.6662 0.0429688C48.219 0.0429688 50.2884 2.1124 50.2884 4.66519C50.2884 7.21798 48.219 9.28741 45.6662 9.28741C43.1134 9.28741 41.0439 7.21798 41.0439 4.66519C41.0439 2.1124 43.1134 0.0429688 45.6662 0.0429688" fill="#F0A651"/>
<path fill-rule="evenodd" clip-rule="evenodd" d="M45.666 0.753906C47.826 0.753906 49.5771 2.505 49.5771 4.66502C49.5771 6.82504 47.826 8.57613 45.666 8.57613C43.506 8.57613 41.7549 6.82504 41.7549 4.66502C41.7549 2.505 43.506 0.753906 45.666 0.753906" fill="#EA8739"/>
<path fill-rule="evenodd" clip-rule="evenodd" d="M45.9205 6.31316C46.0702 6.28863 46.1937 6.2273 46.2879 6.12918C46.3821 6.03106 46.4284 5.91523 46.4284 5.78304C46.4284 5.66448 46.3883 5.56227 46.3095 5.47641C46.2308 5.39056 46.1011 5.32515 45.9205 5.27881V6.31316ZM45.4124 3.21012C45.2586 3.25008 45.1352 3.31771 45.0421 3.413C44.951 3.50829 44.9045 3.61433 44.9045 3.7296C44.9045 3.83565 44.947 3.93401 45.03 4.02469C45.115 4.11537 45.2404 4.18914 45.4124 4.24447V3.21012ZM45.4133 6.6562V5.28279C44.9387 5.15992 44.5893 4.97478 44.367 4.72737C44.1446 4.47995 44.0344 4.17867 44.0344 3.82522C44.0344 3.46672 44.1596 3.16545 44.41 2.92308C44.6603 2.67903 44.9948 2.53933 45.4114 2.5023V2.17578H45.9383V2.50062C46.3232 2.5427 46.6315 2.66051 46.8594 2.85575C47.0874 3.05099 47.2331 3.31356 47.2966 3.64008L46.3755 3.7478C46.3195 3.49028 46.1737 3.31524 45.9383 3.22267V4.50351C46.5212 4.64489 46.9173 4.83003 47.1285 5.05557C47.3396 5.28111 47.4442 5.57228 47.4442 5.92573C47.4442 6.32126 47.3116 6.65452 47.0463 6.9255C46.7809 7.19648 46.411 7.36311 45.9383 7.4237V7.86467H45.4133V7.44221C44.9948 7.39677 44.6528 7.25539 44.3913 7.01975C44.1297 6.78412 43.9615 6.45086 43.8887 6.01999L44.8378 5.92742C44.8771 6.10246 44.9499 6.25226 45.0564 6.38017C45.1629 6.50809 45.2825 6.59898 45.4133 6.6562Z" fill="#FFFFFE"/>
<path fill-rule="evenodd" clip-rule="evenodd" d="M65.2218 69.0201C61.9699 66.0153 59.8049 62.6842 58.8934 57.9686C58.3499 56.0771 56.518 54.6706 54.7452 54.6573C54.4231 54.6463 53.8709 54.6838 53.2858 54.7147C39.5706 55.6009 15.576 54.664 15.576 54.664C14.0991 54.6331 12.1861 55.8654 11.4367 58.1384C9.82168 62.3976 7.01684 66.5995 4.77734 69.0179C6.4734 65.3738 8.02045 61.2909 8.88381 57.3646C9.31769 54.406 11.7544 51.4916 15.2911 51.011C21.1945 50.2614 47.7967 50.5282 53.2815 50.8831C53.8205 50.9184 54.3837 50.9206 55.155 51.0308C58.3894 51.4894 61.1263 54.1613 61.5032 57.5233C61.742 61.2755 62.6426 65.2327 65.2218 69.0201" fill="#D9D7D1"/>
</svg>
