<svg width="48" height="48" fill="none" xmlns="http://www.w3.org/2000/svg"><path opacity=".9" d="M2.393 24.546c.056.222.13.302.376.422.366.175 5.489 1.344 5.877 1.341.276-.003.452-.169.492-.468.043-.316-.15-.507-.616-.6-.963-.19-3.033-.661-3.04-.692-.009-.04 2.631-.464 3.564-.572.981-.114 1.157-.172 1.317-.44.19-.32.113-.63-.207-.822-.246-.147-.557-.144-1.544.016l-.317.052.283-.2c.21-.148.32-.277.424-.502.179-.375.117-.603-.206-.796-.283-.17-.563-.102-1.95.47-1.237.508-1.45.616-3.059 1.52-1.348.754-1.49.883-1.394 1.271zm8.619-1.378c.037.286.31.535.578.526.11-.003.554-.053 1-.111.44-.055 1.163-.13 1.6-.163.437-.034.84-.092.89-.132.522-.416.289-1.194-.373-1.234-.33-.022-3.234.421-3.397.517a.589.589 0 00-.298.597zm5.557-.68a.77.77 0 00.347.695c.163.095.45.077 2.04-.135 1.634-.219 1.822-.274 2.003-.579.268-.446-.003-.917-.584-1.021-.222-.04-.871.03-2.302.246-1.258.194-1.44.289-1.504.794zm5.611-.453a.895.895 0 00.066.425c.181.378.369.418 1.76.375.71-.021 1.467-.037 1.676-.034.57.01.871-.098 1.031-.363.185-.31.117-.624-.184-.855-.302-.228-.831-.268-2.6-.197-1.428.059-1.683.154-1.748.65zm6.629.535c.015.12.11.308.209.416.175.19.23.203 1.852.397 1.908.228 2.21.206 2.437-.172.114-.188.13-.296.077-.505-.12-.48-.366-.566-2.246-.794-1.013-.123-1.71-.169-1.846-.126-.29.092-.523.474-.483.785zm6.314 1.345c.089.357.316.483 1.04.579a50.87 50.87 0 011.716.283c.631.114 1.237.184 1.351.157.683-.163.736-1.01.08-1.29-.224-.095-2.53-.489-3.341-.569-.413-.04-.603.05-.797.376a.559.559 0 00-.05.464zm6.073 1.215a.66.66 0 00.219.29c.12.07 2.861 1.163 3.348 1.335.473.167.969-.261.849-.735-.071-.277-.176-.342-1.013-.603a46.173 46.173 0 01-1.75-.612c-1.225-.456-1.388-.465-1.606-.102-.099.17-.108.268-.047.428z" fill="#fff"/></svg>