<svg width="48" height="48" fill="none" xmlns="http://www.w3.org/2000/svg"><path opacity=".9" d="M45.606 24.546c-.055.222-.129.302-.375.422-.366.175-5.49 1.344-5.877 1.341-.277-.003-.452-.169-.492-.468-.044-.316.15-.507.615-.6.963-.19 3.034-.661 3.04-.692.01-.04-2.63-.464-3.563-.572-.982-.114-1.157-.172-1.317-.44-.19-.32-.114-.63.206-.822.246-.147.557-.144 1.545.016l.317.052-.283-.2a1.135 1.135 0 01-.425-.502c-.178-.375-.117-.603.206-.796.283-.17.563-.102 1.95.47 1.238.508 1.45.616 3.06 1.52 1.347.754 1.489.883 1.393 1.271zm-8.618-1.378c-.037.286-.311.535-.579.526a17.48 17.48 0 01-1-.111c-.44-.055-1.163-.13-1.6-.163-.437-.034-.84-.092-.889-.132-.523-.416-.29-1.194.372-1.234.33-.022 3.234.421 3.397.517.219.126.33.35.299.597zm-5.558-.68a.77.77 0 01-.347.695c-.163.095-.45.077-2.04-.135-1.634-.219-1.821-.274-2.003-.579-.268-.446.003-.917.585-1.021.221-.04.87.03 2.301.246 1.259.194 1.44.289 1.505.794zm-5.611-.453a.895.895 0 01-.065.425c-.182.378-.37.418-1.76.375a61.596 61.596 0 00-1.677-.034c-.57.01-.87-.098-1.03-.363-.185-.31-.118-.624.184-.855.301-.228.83-.268 2.6-.197 1.427.059 1.683.154 1.747.65zm-6.629.535a.919.919 0 01-.208.416c-.176.19-.231.203-1.853.397-1.907.228-2.209.206-2.437-.172-.114-.188-.129-.296-.077-.505.12-.48.367-.566 2.247-.794 1.012-.123 1.71-.169 1.846-.126.289.092.523.474.483.785zm-6.313 1.345c-.09.357-.317.483-1.04.579-.317.043-1.09.169-1.717.283-.63.114-1.237.184-1.35.157-.684-.163-.736-1.01-.08-1.29.224-.095 2.529-.489 3.34-.569.413-.04.604.05.798.376.083.144.098.277.049.464zM6.803 25.13a.661.661 0 01-.218.29c-.12.07-2.862 1.163-3.348 1.335-.474.167-.97-.261-.85-.735.071-.277.176-.342 1.013-.603a46.18 46.18 0 001.75-.612c1.225-.456 1.388-.465 1.607-.102.098.17.108.268.046.428z" fill="#fff"/></svg>