<svg width="48" height="48" fill="none" xmlns="http://www.w3.org/2000/svg"><path opacity=".9" d="M2.393 24.546c.055.221.129.302.375.422.366.175 5.49 1.344 5.877 1.341.277-.003.452-.17.492-.468.043-.317-.15-.507-.615-.6-.963-.19-3.034-.661-3.04-.692-.01-.04 2.63-.465 3.563-.572.981-.114 1.157-.172 1.317-.44.19-.32.114-.631-.206-.822-.247-.148-.557-.144-1.545.016l-.317.052.283-.2c.21-.148.32-.277.425-.502.178-.375.117-.603-.206-.796-.283-.17-.563-.102-1.951.47-1.237.508-1.45.616-3.059 1.52-1.347.754-1.489.883-1.393 1.271zm8.62-1.379c.037.287.31.536.579.527.11-.003.553-.053 1-.111.44-.056 1.162-.13 1.6-.163.436-.034.84-.093.889-.133.523-.415.289-1.193-.373-1.233-.329-.022-3.233.421-3.396.517a.589.589 0 00-.299.596zm5.555-.679a.77.77 0 00.348.695c.163.096.449.077 2.04-.135 1.634-.219 1.821-.274 2.003-.579.268-.446-.003-.917-.585-1.021-.221-.04-.87.03-2.301.246-1.259.194-1.44.29-1.505.794zm5.614-.453a.895.895 0 00.065.425c.181.378.369.418 1.76.375a61.59 61.59 0 011.676-.034c.57.01.871-.098 1.031-.363.185-.31.117-.624-.184-.855-.302-.228-.831-.268-2.6-.197-1.428.059-1.683.154-1.748.65zm6.628.535a.9.9 0 00.21.416c.175.191.23.203 1.852.397 1.907.228 2.209.206 2.436-.172.114-.188.13-.295.077-.505-.12-.48-.366-.566-2.246-.793-1.012-.124-1.71-.17-1.846-.127-.29.093-.523.474-.483.785zm6.313 1.346c.089.356.317.483 1.04.578.317.043 1.089.17 1.717.283.63.114 1.236.185 1.35.157.683-.163.736-1.01.08-1.29-.224-.095-2.529-.488-3.341-.568-.413-.04-.603.049-.797.375-.083.145-.099.277-.05.465zm6.072 1.214a.661.661 0 00.219.29c.12.07 2.861 1.163 3.347 1.335.474.167.97-.261.85-.735-.071-.277-.176-.341-1.013-.603a46.235 46.235 0 01-1.75-.612c-1.225-.456-1.388-.465-1.606-.102-.099.17-.108.268-.047.428z" fill="#2F2D2F"/></svg>