<svg width="190" height="100" fill="none" xmlns="http://www.w3.org/2000/svg"><path d="M89.738.838c2.15-.212 4.327-.381 6.529-.507a.5.5 0 00.526.471c1.246-.067 2.5-.12 3.762-.158a287.18 287.18 0 014.285-.101.5.5 0 00.492-.508c2.516-.038 5.05-.046 7.592-.02a.5.5 0 00.494.506c2.855.034 5.718.111 8.573.235a.5.5 0 00.521-.477c2.536.114 5.066.266 7.577.458a.5.5 0 00.459.537c2.875.226 5.724.504 8.529.84a.5.5 0 00.556-.437c2.545.311 5.054.67 7.514 1.078a.5.5 0 00.41.576 141.38 141.38 0 018.396 1.675.5.5 0 00.6-.373 109.2 109.2 0 017.324 1.995.5.5 0 00.326.626 79.345 79.345 0 017.988 2.991.5.5 0 00.659-.254c2.401 1.08 4.643 2.262 6.7 3.553a.5.5 0 00.152.688 40.343 40.343 0 013.446 2.47 21.708 21.708 0 012.915 2.788.5.5 0 00.7.059c1.699 2.098 2.654 4.26 3.037 6.473a.5.5 0 00-.419.561c.342 2.541-.073 5.17-.992 7.876a.5.5 0 00.309.632c-.776 2.159-1.848 4.344-3.077 6.542a.5.5 0 00-.68.19c-1.317 2.319-2.801 4.655-4.293 7.005a.5.5 0 00.154.69c-1.308 2.06-2.608 4.12-3.789 6.17h-.002a.5.5 0 00-.681.187 58.604 58.604 0 00-1.934 3.673 50.745 50.745 0 00-1.714 4.06.5.5 0 00.292.644h.002c-.738 2.007-1.389 4.056-2.042 6.108-.13.41-.26.82-.392 1.23a.5.5 0 00-.628.322c-.892 2.772-1.823 5.509-3.01 8.13a.5.5 0 00.246.66c-1.077 2.307-2.364 4.525-4.005 6.588a.5.5 0 00-.7.07c-1.706 2.065-3.79 3.966-6.412 5.632a.5.5 0 00-.156.687c-2.009 1.231-4.318 2.33-6.991 3.267a.5.5 0 00-.633-.31c-1.297.438-2.681.84-4.158 1.2a56.234 56.234 0 01-3.774.787.5.5 0 00-.408.575 60.703 60.703 0 01-6.735.716.5.5 0 00-.521-.476c-2.57.112-5.143.07-7.718-.102a.5.5 0 00-.532.465 88.712 88.712 0 01-6.732-.758.501.501 0 00-.418-.57 118.023 118.023 0 01-7.606-1.45.5.5 0 00-.597.378 171.997 171.997 0 01-6.577-1.637.5.5 0 00-.352-.613 292.516 292.516 0 01-7.463-2.142.5.5 0 00-.622.335 853.372 853.372 0 01-6.48-1.986.5.5 0 00-.33-.626l-.264-.082c-2.392-.74-4.784-1.482-7.175-2.202a.5.5 0 00-.623.335s0 0 0 0a303.032 303.032 0 00-6.511-1.882s0 0 0 0a.5.5 0 00-.35-.615 195.058 195.058 0 00-3.77-.991c-1.423-.36-2.87-.707-4.333-1.047a.5.5 0 00-.6.374s0 0 0 0a430.04 430.04 0 00-7.72-1.69v-.001a.5.5 0 00-.387-.592c-1.809-.38-3.627-.756-5.445-1.132-1.093-.226-2.185-.451-3.274-.678a.5.5 0 00-.592.388 561.41 561.41 0 01-7.729-1.657.5.5 0 00-.378-.597 232.866 232.866 0 01-8.63-2.093.5.5 0 00-.612.354 122.44 122.44 0 01-7.57-2.273.5.5 0 00-.31-.634c-2.966-1.024-5.705-2.145-8.147-3.394a.5.5 0 00-.671.215c-2.517-1.324-4.714-2.794-6.506-4.449a.5.5 0 00-.016-.702c-1.079-1.044-1.99-2.157-2.716-3.348a16.81 16.81 0 01-1.803-4.01.5.5 0 00-.613-.34c-.693-2.67-.621-5.34.073-7.989a.5.5 0 00.613-.342c.767-2.638 2.164-5.271 4.058-7.877a.5.5 0 00-.108-.697c1.525-2.04 3.338-4.053 5.37-6.026a.5.5 0 00.705.014c2.086-1.997 4.397-3.956 6.859-5.865a.5.5 0 00.089-.7c2.099-1.613 4.3-3.188 6.559-4.718a.5.5 0 00.693.135c1.249-.84 2.514-1.666 3.789-2.478a115.127 115.127 0 013.201-1.966.5.5 0 00.176-.684 121.514 121.514 0 015.736-3.156.5.5 0 00.673.216 127.909 127.909 0 016.795-3.22.5.5 0 00.257-.659c1.976-.858 4-1.679 6.068-2.46a.5.5 0 00.643.293 138.96 138.96 0 017.115-2.438.5.5 0 00.328-.625 144.01 144.01 0 016.3-1.79.5.5 0 00.608.36 147.553 147.553 0 017.333-1.68.5.5 0 00.391-.589c2.118-.421 4.268-.802 6.449-1.139a.5.5 0 00.569.42c2.45-.371 4.939-.686 7.464-.944a.5.5 0 00.447-.547z" stroke="#fff" stroke-linecap="round" stroke-linejoin="round" stroke-dasharray="8 8"/></svg>