<svg width="484" height="235" fill="none" xmlns="http://www.w3.org/2000/svg"><path d="M222.512 222.32c0 1.024 1.056 1.824 3.168 2.4.789.171 1.451.352 1.984.544a9.12 9.12 0 011.792.8c.661.363 1.163.843 1.504 1.44.341.597.512 1.301.512 2.112 0 1.451-.565 2.613-1.696 3.488s-2.56 1.312-4.288 1.312c-1.536 0-2.869-.331-4-.992-1.109-.683-1.899-1.6-2.368-2.752l2.4-1.376a3.376 3.376 0 001.44 1.824c.704.448 1.547.672 2.528.672.96 0 1.728-.181 2.304-.544.576-.363.864-.907.864-1.632 0-1.088-1.056-1.877-3.168-2.368a88.895 88.895 0 01-1.6-.448c-.363-.107-.864-.299-1.504-.576-.619-.277-1.088-.565-1.408-.864-.32-.32-.619-.736-.896-1.248a4.013 4.013 0 01-.384-1.76c0-1.387.533-2.528 1.6-3.424 1.088-.896 2.443-1.344 4.064-1.344 1.301 0 2.453.299 3.456.896a5.519 5.519 0 012.304 2.432l-2.336 1.312c-.576-1.365-1.717-2.048-3.424-2.048-.811 0-1.493.192-2.048.576-.533.384-.8.907-.8 1.568zm30.379 4.96h-13.408c.277 1.408.928 2.517 1.952 3.328 1.024.789 2.304 1.184 3.84 1.184 2.112 0 3.648-.779 4.608-2.336l2.368 1.344c-1.579 2.411-3.926 3.616-7.04 3.616-2.518 0-4.587-.789-6.208-2.368-1.579-1.621-2.368-3.637-2.368-6.048 0-2.432.778-4.437 2.336-6.016 1.557-1.6 3.573-2.4 6.048-2.4 2.346 0 4.256.832 5.728 2.496 1.493 1.621 2.24 3.605 2.24 5.952 0 .405-.032.821-.096 1.248zm-7.872-7.072c-1.472 0-2.71.416-3.712 1.248-.982.832-1.59 1.963-1.824 3.392h10.688c-.235-1.472-.822-2.613-1.76-3.424-.939-.811-2.07-1.216-3.392-1.216zM262.171 234h-2.784v-23.36h2.784V234zm22.807-6.72H271.57c.278 1.408.928 2.517 1.952 3.328 1.024.789 2.304 1.184 3.84 1.184 2.112 0 3.648-.779 4.608-2.336l2.368 1.344c-1.578 2.411-3.925 3.616-7.04 3.616-2.517 0-4.586-.789-6.208-2.368-1.578-1.621-2.368-3.637-2.368-6.048 0-2.432.779-4.437 2.336-6.016 1.558-1.6 3.574-2.4 6.048-2.4 2.347 0 4.256.832 5.728 2.496 1.494 1.621 2.24 3.605 2.24 5.952 0 .405-.032.821-.096 1.248zm-7.872-7.072c-1.472 0-2.709.416-3.712 1.248-.981.832-1.589 1.963-1.824 3.392h10.688c-.234-1.472-.821-2.613-1.76-3.424-.938-.811-2.069-1.216-3.392-1.216zm21.857 14.208c-2.41 0-4.416-.8-6.016-2.4-1.6-1.621-2.4-3.627-2.4-6.016 0-2.389.8-4.384 2.4-5.984 1.6-1.621 3.606-2.432 6.016-2.432 1.579 0 2.998.384 4.256 1.152 1.259.747 2.198 1.76 2.816 3.04l-2.336 1.344c-.405-.853-1.034-1.536-1.888-2.048-.832-.512-1.781-.768-2.848-.768-1.6 0-2.944.544-4.032 1.632-1.066 1.109-1.6 2.464-1.6 4.064 0 1.579.534 2.923 1.6 4.032 1.088 1.088 2.432 1.632 4.032 1.632 1.067 0 2.027-.245 2.88-.736a5.141 5.141 0 001.952-2.048l2.368 1.376a7.837 7.837 0 01-2.976 3.04c-1.28.747-2.688 1.12-4.224 1.12zM320.816 218v2.688h-4.256v8.672c0 .789.149 1.355.448 1.696.32.32.8.491 1.44.512.64 0 1.429-.021 2.368-.064V234c-2.453.32-4.245.117-5.376-.608-1.109-.725-1.664-2.069-1.664-4.032v-8.672h-3.168V218h3.168v-3.648l2.784-.832V218h4.256zm21.043 9.28h-13.407c.277 1.408.928 2.517 1.952 3.328 1.024.789 2.303 1.184 3.839 1.184 2.112 0 3.649-.779 4.609-2.336l2.368 1.344c-1.579 2.411-3.926 3.616-7.04 3.616-2.518 0-4.587-.789-6.209-2.368-1.578-1.621-2.368-3.637-2.368-6.048 0-2.432.779-4.437 2.336-6.016 1.558-1.6 3.574-2.4 6.048-2.4 2.347 0 4.256.832 5.728 2.496 1.494 1.621 2.241 3.605 2.241 5.952 0 .405-.033.821-.097 1.248zm-7.872-7.072c-1.472 0-2.709.416-3.711 1.248-.982.832-1.59 1.963-1.824 3.392h10.687c-.234-1.472-.821-2.613-1.76-3.424-.938-.811-2.069-1.216-3.392-1.216zm27.586.544V211.6h2.784V234h-2.784v-2.752c-1.366 2.112-3.382 3.168-6.048 3.168-2.262 0-4.171-.811-5.728-2.432-1.579-1.643-2.369-3.637-2.369-5.984 0-2.325.79-4.309 2.369-5.952 1.578-1.643 3.488-2.464 5.728-2.464 2.666 0 4.682 1.056 6.048 3.168zm-5.697 10.976c1.622 0 2.976-.544 4.064-1.632 1.088-1.131 1.633-2.496 1.633-4.096 0-1.621-.545-2.976-1.633-4.064-1.088-1.109-2.442-1.664-4.064-1.664-1.6 0-2.944.555-4.032 1.664-1.088 1.088-1.632 2.443-1.632 4.064 0 1.6.544 2.965 1.632 4.096 1.088 1.088 2.432 1.632 4.032 1.632zm64.516-14.144c1.813 0 3.264.587 4.352 1.76 1.109 1.173 1.664 2.741 1.664 4.704V234h-2.784v-9.856c0-1.216-.32-2.165-.96-2.848-.619-.704-1.472-1.056-2.56-1.056-1.237 0-2.208.416-2.912 1.248-.683.811-1.024 2.016-1.024 3.616V234h-2.784v-9.856c0-1.216-.309-2.165-.928-2.848-.597-.704-1.419-1.056-2.464-1.056-1.216 0-2.208.427-2.976 1.28-.747.832-1.12 2.027-1.12 3.584V234h-2.784v-16h2.784v2.144c1.088-1.707 2.677-2.56 4.768-2.56 2.155 0 3.723.907 4.704 2.72 1.109-1.813 2.784-2.72 5.024-2.72zm14.484-2.496c-.533 0-.981-.181-1.344-.544a1.791 1.791 0 01-.544-1.312c0-.512.182-.949.544-1.312a1.776 1.776 0 011.344-.576c.512 0 .95.192 1.312.576.363.363.544.8.544 1.312s-.181.949-.544 1.312c-.362.363-.8.544-1.312.544zM436.252 234h-2.784v-16h2.784v16zm10.231 0h-2.784v-23.36h2.784V234zm13.08-8.256l7.904 8.256h-3.456l-7.296-7.584V234h-2.784v-22.4h2.784v13.472l6.912-7.072h3.584l-7.648 7.744zM386 222a2 2 0 11-3.999.001A2 2 0 01386 222z" fill="#fff"/><path fill-rule="evenodd" clip-rule="evenodd" d="M71.75.979c-.624.669-1.067 1.744-1.212 2.944-.126 1.04-.632 3.17-1.125 4.733-1.098 3.483-8.722 18.53-16.976 33.505C17.745 105.103 3.696 136.844.494 159.513c-.823 5.83-.583 16.291.466 20.32 2.37 9.104 9.06 16.055 16.257 16.895 4.704.548 5.835-.798 2.132-2.538-2.853-1.34-4.938-3.724-5.784-6.615-.528-1.8-.61-3.489-.43-8.743.68-19.916 9.004-45.349 25.719-78.597 4.64-9.229 12.627-23.7 12.921-23.409.062.061-.258 1.378-.71 2.927-5.766 19.75-8.536 38.465-8.047 54.345.171 5.538.433 8.134 1.062 10.498 1.893 7.123 5.28 12.824 8.623 14.517 1.998 1.012 4.818 1.059 5.993.101 2.544-2.076 12.854-15.782 20.995-27.911 10.947-16.31 20.537-32.835 30.401-52.389 2.929-5.807 5.229-10.102 5.109-9.544-.119.559-2.267 10.512-4.772 22.118-6.262 29.007-6.699 31.827-6.71 43.267-.007 8.112.09 9.486.868 12.246 2.794 9.918 8.24 13.884 17.69 12.882 5.416-.574 7.476-2.436 6.027-5.451-.435-.904-1.196-1.654-2.03-2-2.624-1.088-3.366-2.571-3.98-7.953-1.312-11.487 3.816-41.189 14.123-81.81 4.239-16.707 9.955-37.428 13.556-49.14 3.155-10.262 3.533-12.49 2.236-13.18-2.124-1.127-6.549 1.513-11.03 6.58-9.123 10.317-19.509 27.894-43.855 74.219-18.82 35.809-25.916 48.085-31.059 53.735-1.612 1.771-3.349 2.788-4.038 2.366-1.978-1.213-2.662-9.16-1.546-17.955 1.87-14.728 7.488-36.35 15.982-61.498 6.755-20 10.845-33.89 10.845-36.83 0-5.36-2.73-12.22-6.455-16.223C76.765.135 73.698-1.106 71.751.979zM241.6.316c-9.96 2.14-19.596 9.904-28.245 22.757-6.126 9.103-9.597 17.099-13.844 31.885-2.389 8.318-4.639 17.292-7.021 28-2.351 10.568-2.96 12.405-5.803 17.48-5.042 9.001-25.502 40.408-26.323 40.408-.678 0-.481-6.761.393-13.517 1.852-14.306 6.043-30.676 11.974-46.766 2.444-6.628 2.195-9.007-1.265-12.11-2.421-2.17-5.705-2.857-9.135-1.912-3.174.875-6.434 5.883-10.303 15.825-.999 2.569-3.738 9.33-6.085 15.026-5.493 13.332-9.929 25.117-9.584 25.46.358.355.745-.153 5.991-7.861 4.86-7.139 5.618-7.988 5.167-5.783-.156.761-.823 4.502-1.482 8.314-3.743 21.649-3.042 32.685 2.473 38.917 1.524 1.722 4.253 3.089 6.171 3.089 5.475 0 13.298-10.794 26.269-36.247 2.932-5.752 5.404-10.385 5.494-10.295.091.089-.035 1.506-.279 3.148-.749 5.027-1.006 17.553-.457 22.221 1.536 13.053 6.547 21.173 13.066 21.173.951 0 2.432-.356 3.291-.791 3.38-1.712 11.405-11.286 17.466-20.841 1.592-2.509 3.151-4.563 3.464-4.563.622 0 .889 1.034 1.621 6.282.945 6.772 3.585 13.206 6.734 16.415 2.293 2.336 4.352 3.229 7.9 3.424 2.716.149 3.222.043 5.935-1.24 3.854-1.822 8.949-5.663 12.405-9.352 3.133-3.345 7.689-9.274 9.435-12.28l1.18-2.03.236 4.873c.281 5.771.837 8.351 2.626 12.183 2.399 5.136 5.686 7.92 9.35 7.92 2.409 0 4.223-.794 8.865-3.877 5.445-3.616 9.861-7.358 17.077-14.468 3.964-3.906 6.299-5.935 6.418-5.574.102.312.271 2.486.376 4.831.484 10.796 6.499 19.088 13.848 19.088 5.688 0 12.349-4.439 25.156-16.762l3.734-3.594.179 4.797c.156 4.166.331 5.13 1.333 7.328 2.834 6.225 10.053 9.644 16.129 7.641 4.792-1.579 12.614-7.99 18.357-15.046 9.759-11.99 20.106-31.234 28.778-53.526 2.832-7.28 3.165-7.751 5.233-7.402 4.52.762 7.186 1.665 7.955 2.694l.792 1.059-3.095 11.53c-9.889 36.86-11.215 47.391-6.998 55.595 1.911 3.717 4.612 5.279 9.124 5.279 10.767 0 27.043-13.382 40.007-32.895 9.65-14.524 12.057-24.721 6.898-29.215-1.674-1.459-2.911-1.827-5.138-1.53-2.524.335-3.066 1.069-3.328 4.505-.864 11.334-14.847 35.896-25.178 44.227-3.698 2.982-5.243 3.742-6.476 3.184-1.276-.576-1.55-1.914-1.251-6.095.415-5.801 1.519-10.633 5.719-25.026 4.026-13.796 5.368-20.92 5.121-27.184-.131-3.33-.358-4.511-1.23-6.383-2.339-5.02-6.395-7.258-11.976-6.61-3.702.43-9.93.468-11.366.069-1.513-.42-1.903-1.303-2.596-5.884-1.514-10.01-4.958-17.609-10.053-22.184-5.104-4.584-10.222-6.162-14.037-4.33-2.162 1.038-4.316 3.461-5.641 6.342-1.273 2.77-1.256 8.292.036 11.601 2.72 6.973 9.267 13.25 16.721 16.033 1.522.569 2.819 1.084 2.881 1.145.255.252-2.08 10.276-3.58 15.366-5.589 18.966-15.118 35.643-27.264 47.714-6.658 6.618-9.683 8.001-10.765 4.921-.596-1.697-.069-3.881 3.017-12.5 7.257-20.272 8.152-24.172 6.378-27.808-1.259-2.581-3.8-5.029-6.512-6.274-1.88-.862-2.937-1.064-5.627-1.076-4.254-.018-4.56.23-4.603 3.752-.089 7.076-4.529 17.132-12.055 27.301-3.574 4.83-13.142 14.389-16.62 16.605-2.753 1.754-4.853 2.156-5.737 1.099-2.237-2.675-.576-14.8 3.845-28.06 6.441-19.322 15.186-33.008 23.767-37.197 2.592-1.266 3.096-1.372 5.91-1.249 8.088.354 8.397.334 8.397-.524 0-1.075-1.679-2.125-6.989-4.37-7.55-3.194-11.149-4.106-16.34-4.143-4.262-.03-4.621.033-6.741 1.187-2.922 1.59-7.221 5.628-10.279 9.655-4.633 6.1-10.814 17.369-14.253 25.984-3.927 9.836-14.48 26.357-21.947 34.361-11.118 11.916-14.387 1.277-7.143-23.251.865-2.929 3.693-11.398 6.284-18.819 13.19-37.771 20.366-65.633 20.477-79.507.04-5.147.008-5.349-1.279-8.047-2.354-4.93-9.593-10.634-13.497-10.634-2.373 0-3.989 1.544-3.921 3.745.276 8.883.095 16.928-.489 21.84-2.672 22.447-11.744 52.506-24.522 81.245-6.941 15.614-18.931 33.543-25.202 37.687-1.493.987-2.746.836-3.582-.432-1.009-1.529-.976-11.602.056-17.378 3.303-18.472 10.561-35.332 18.588-43.179 4.499-4.398 9.605-6.335 14.259-5.407 3.485.694 4.638.614 4.638-.32 0-.432-.464-1.146-1.031-1.588-1.849-1.444-8.171-4.479-12.105-5.812-3.332-1.13-4.426-1.308-8.146-1.333-4.144-.028-4.39.02-6.887 1.364-8.558 4.604-17.38 19.266-24.453 40.64-1.558 4.71-2.395 6.539-4.177 9.137-5.713 8.329-13.716 17.375-15.839 17.904-4.98 1.24-5.64-13.651-1.64-36.991 2.359-13.767 2.76-14.963 7.583-22.624 5.635-8.95 18.235-27.092 24.339-35.044 13.568-17.675 20.255-30.3 20.255-38.242 0-4.008-1.077-5.901-4.297-7.551-1.268-.65-2.561-.866-5.73-.956-2.251-.065-4.829.041-5.73.234zm4.629 7.198c.27 2.77-4.54 12.256-12.522 24.697-6.473 10.089-16.346 24.005-16.747 23.607-.252-.25 2.437-10.292 4.222-15.774 5.636-17.299 13.339-29.593 20.686-33.018 2.928-1.366 4.193-1.224 4.361.488zm-75.92 36.081c-3.07 1.519-4.922 4.553-5.616 9.204-.59 3.956 1.176 6.691 5.562 8.613 6.47 2.836 11.139 1.156 13.391-4.816.995-2.639 1.136-6.498.309-8.458-.826-1.957-3.59-4.215-6.047-4.94-3.073-.905-5.188-.794-7.599.398zM411.59 58.129c.805.963 1.326 4.518 1.205 8.22l-.12 3.632-1.098-2.896c-1.277-3.364-2.125-7.558-1.761-8.698.293-.914 1.124-1.035 1.774-.258zm-8.328 115.045c-34.014 1.127-56.274 3.315-104.979 10.319-54.01 7.766-107.324 14.512-140.994 17.837-27.603 2.727-44.802 3.733-63.847 3.735-13.993.001-21.922-.4-29.437-1.492-5.038-.732-4.737-.745-4.737.206 0 .955 1.006 1.259 7.981 2.415 14.844 2.459 26.542 3.037 55.834 2.76 37.921-.358 67.547-2.372 138.909-9.442a8149.296 8149.296 0 0146.861-4.468c27.724-2.55 38.519-3.688 67.192-7.086 43.791-5.19 55.202-6.209 69.986-6.251 10.934-.03 13.707.221 18.147 1.643 2.622.841 4.652 2.656 5.192 4.643.814 3.003 2.358 1.494 1.822-1.78-.442-2.694-3.967-5.884-8.363-7.566-6.342-2.427-14.769-4.005-26.007-4.87-5.75-.443-26.911-.823-33.56-.603z" fill="#fff"/></svg>