<svg width="100" height="100" fill="none" xmlns="http://www.w3.org/2000/svg"><path d="M28.328 9.881h36.25a98.307 98.307 0 0123.513 23.556v55.757H28.328V9.88z" fill="url(#paint0_linear_472_1456)"/><path d="M28.328 9.881h36.25a98.307 98.307 0 0123.513 23.556v55.757H28.328V9.88z" stroke="#C8C8C8" stroke-width=".5"/><path d="M64.57 9.881a99.398 99.398 0 0123.52 23.556 21.141 21.141 0 00-16.663-6.343A18.829 18.829 0 0064.57 9.88z" fill="url(#paint1_linear_472_1456)"/><path d="M64.57 9.881a99.398 99.398 0 0123.52 23.556 21.141 21.141 0 00-16.663-6.343A18.829 18.829 0 0064.57 9.88v0z" stroke="#C8C8C8" stroke-width=".5"/><path d="M16.688 20.3H60.75v8.437H16.687V20.3z" stroke="#C8C8C8" stroke-width="4"/><path d="M49.434 62.047c1.457-2.856 3.126-6.072 4.438-9.303l.525-1.275c-1.731-6.588-2.769-11.875-1.84-15.294a2.36 2.36 0 012.384-1.431h.793c1.513-.022 2.222 1.9 2.304 2.647a12.022 12.022 0 01-.441 3.35 8.246 8.246 0 00-.503-3.41c-.625-1.372-1.222-2.187-1.756-2.322a1.687 1.687 0 00-.625 1.272 18.35 18.35 0 00-.241 2.935 32.87 32.87 0 001.353 8.528c.169-.488.313-.956.438-1.397.184-.694 1.353-5.284 1.353-5.284s-.294 6.112-.706 7.959c-.088.39-.185.778-.288 1.172a26.831 26.831 0 006.703 10.472 20.933 20.933 0 003.875 2.662 52.816 52.816 0 017.866-.59 9.854 9.854 0 016.056 1.353c.401.404.638.943.666 1.512a4.513 4.513 0 01-.129.882c.032-.16.032-.938-2.359-1.707a27.843 27.843 0 00-9.644-.134c4.894 2.394 9.666 3.584 11.175 2.872a3.19 3.19 0 00.82-.794 8.529 8.529 0 01-.457 1.513 2.388 2.388 0 01-1.178.806c-2.388.625-8.6-.838-14.016-3.931a114.438 114.438 0 00-18.025 4.284c-5.234 9.175-9.172 13.387-12.372 11.784l-1.178-.59a1.362 1.362 0 01-.44-1.482c.371-1.825 2.662-4.578 7.262-7.325.494-.312 2.7-1.465 2.7-1.465s-1.634 1.581-2.016 1.89c-3.671 3.01-6.38 6.794-6.315 8.263v.128c3.125-.444 7.797-6.794 13.81-18.56l.008.01zm1.897.966a243.56 243.56 0 01-2.893 5.256 76.815 76.815 0 0115.546-4.4 25.87 25.87 0 01-1.99-1.516 26.66 26.66 0 01-6.563-8.528 73.092 73.092 0 01-4.115 9.188" fill="#F91D0A"/><path d="M11.719 15.525h53.95v18.134h-53.95V15.525z" fill="url(#paint2_linear_472_1456)"/><path d="M66.698 34.747H10.742v-20.31h55.956v20.31zM64.69 16.45H12.755v16.278h51.934V16.45z" fill="url(#paint3_linear_472_1456)"/><path d="M25.82 18.184h3.925a3.437 3.437 0 012.685 1.035 4.181 4.181 0 01.937 2.928 4.222 4.222 0 01-.937 2.944 3.438 3.438 0 01-2.685 1.025h-1.562v4.215H25.82V18.184zm2.366 2.27v3.393h1.31a1.323 1.323 0 001.062-.44c.268-.36.4-.803.375-1.25a1.875 1.875 0 00-.375-1.25 1.317 1.317 0 00-1.063-.441h-1.31v-.013zm9.216.108v7.404h.846a2.664 2.664 0 002.213-.938 4.318 4.318 0 00.769-2.765 4.297 4.297 0 00-.763-2.75 2.681 2.681 0 00-2.219-.938h-.846v-.012zm-2.366-2.356h2.5a9.063 9.063 0 013.09.378 4.008 4.008 0 011.757 1.335 5.56 5.56 0 01.96 1.897 8.7 8.7 0 01.312 2.434 8.847 8.847 0 01-.313 2.456 5.56 5.56 0 01-.96 1.897 4.103 4.103 0 01-1.768 1.344 9.265 9.265 0 01-3.097.39h-2.5V18.184l.019.022zm10.425-.022h6.416v2.37h-4.032v2.259h3.778v2.368h-3.778v5.15H45.48V18.184" fill="#FFF9F9"/><defs><linearGradient id="paint0_linear_472_1456" x1="45.774" y1="72.011" x2="67.881" y2="32.057" gradientUnits="userSpaceOnUse"><stop stop-color="#fff"/><stop offset="1" stop-color="#E1E1E1"/></linearGradient><linearGradient id="paint1_linear_472_1456" x1="73.617" y1="24.159" x2="77.017" y2="21.025" gradientUnits="userSpaceOnUse"><stop stop-color="#fff"/><stop offset="1" stop-color="#C8C8C8"/></linearGradient><linearGradient id="paint2_linear_472_1456" x1="43.934" y1="40.722" x2="33.453" y2="8.463" gradientUnits="userSpaceOnUse"><stop offset=".127" stop-color="#8A0000"/><stop offset=".244" stop-color="#900000" stop-opacity=".999"/><stop offset=".398" stop-color="#A00000" stop-opacity=".999"/><stop offset=".573" stop-color="#BC0000" stop-opacity=".998"/><stop offset=".761" stop-color="#E20000" stop-opacity=".997"/><stop offset=".867" stop-color="#FA0000" stop-opacity=".996"/></linearGradient><linearGradient id="paint3_linear_472_1456" x1="44.377" y1="42" x2="33.067" y2="7.184" gradientUnits="userSpaceOnUse"><stop offset=".315" stop-color="#5E0000"/><stop offset=".444" stop-color="#830000" stop-opacity=".999"/><stop offset=".618" stop-color="#AE0000" stop-opacity=".998"/><stop offset=".775" stop-color="#CD0000" stop-opacity=".997"/><stop offset=".908" stop-color="#E00000" stop-opacity=".996"/><stop offset="1" stop-color="#E70000" stop-opacity=".996"/></linearGradient></defs></svg>