<svg width="48" height="40" fill="none" xmlns="http://www.w3.org/2000/svg"><g clip-path="url(#clip0_751_3081)"><path fill-rule="evenodd" clip-rule="evenodd" d="M32.474 2.092a.788.788 0 01.55-.072C43.1 4.412 48.21 10.462 48.21 20v15.84c0 1.19-1.01 2.16-2.25 2.16H2.46c-1.24 0-2.25-.97-2.25-2.16V20a.145.145 0 010-.018l.003-.049.003-.021.002-.01v-.006a.588.588 0 01.012-.06l.002-.007.002-.007A.552.552 0 01.28 19.7a.642.642 0 01.017-.034l.014-.025a.688.688 0 01.068-.095l.007-.008a.808.808 0 01.042-.044l.008-.008a1.319 1.319 0 00.044-.039l.011-.008a3.073 3.073 0 00.046-.033.36.36 0 01.037-.022l.018-.012 31.883-17.28zM46.7 19.28c-.24-8.398-4.745-13.57-13.748-15.792L3.815 19.28H46.7zm-10.14 1.44H1.71v15.12c0 .397.337.72.75.72h43.5c.413 0 .75-.323.75-.72V20.72H36.559z" fill="#2F2D2F"/></g><defs><clipPath id="clip0_751_3081"><path fill="#fff" d="M0 0h48v40H0z"/></clipPath></defs></svg>