<svg width="48" height="40" fill="none" xmlns="http://www.w3.org/2000/svg"><path fill-rule="evenodd" clip-rule="evenodd" d="M47.565 14.776L35.438 9.764a1.753 1.753 0 00-1.979.455l-2.83 3.185v-.96a.723.723 0 00-.042-.237C28.389 6.064 24.563 3.21 23.02 2.27a1.842 1.842 0 00-1.735-.1l-3.01 1.39-4.413 2.036L.409 11.805a.708.708 0 00-.409.64v11.274c0 .886.72 1.607 1.604 1.607h18.427l-.46.517-3.395 3.82-.925 1.04a1.493 1.493 0 00.544 2.37l11.794 4.874a.7.7 0 00.488.018h.001l18.433-6.127A2.174 2.174 0 0048 29.77V15.427a.71.71 0 00-.435-.651zM13.02 23.917h8.261l7.94-8.931v-1.837H1.406v10.57c0 .11.09.198.198.198h11.417zm33.573 5.854V17.277L30.129 35.799l7.578-2.519 1.335-.444 2.885-.959 1.334-.443 2.807-.933a.768.768 0 00.526-.73zM21.873 3.45l-2.875 1.327-4.548 2.098L3.91 11.74h24.993c-2.077-5.07-5.279-7.453-6.614-8.268a.441.441 0 00-.415-.022zm18.753 9.981l-3.664-1.513-1.298-.537-.763-.316a.348.348 0 00-.392.09L20.793 26.587l-3.748 4.217-.743.835a.082.082 0 00.03.132l11.333 4.683L46.113 15.7l-4.187-1.73-1.3-.538z" fill="#2F2D2F"/></svg>