<svg width="48" height="40" fill="none" xmlns="http://www.w3.org/2000/svg"><path fill-rule="evenodd" clip-rule="evenodd" d="M0 20C0 8.972 10.766 0 24 0s24 8.972 24 20-10.766 20-24 20a28.184 28.184 0 01-6.065-.65.8.8 0 01-.56-.452 17.369 17.369 0 01-1.551-7.53l-8.358 2.986v-.008a.793.793 0 01-.788-.14A18.81 18.81 0 010 20zm7.725 12.56l8.217-2.933a18.074 18.074 0 011.68-5.862c.007-.015.036-.083 4.618-7.935L10 19.91c-.706.628-4.669 4.628-2.275 12.65zm16.022-18.92a.8.8 0 01.943 1.163c-1.204 2.067-3.948 6.772-5.11 8.772l-.79 1.465a16.358 16.358 0 00-.118 12.831A26.66 26.66 0 0024 38.4c12.351 0 22.4-8.254 22.4-18.4C46.4 9.854 36.351 1.6 24 1.6 11.649 1.6 1.6 9.854 1.6 20a16.97 16.97 0 004.056 10.905c-1.303-6.867 1.8-10.72 3-11.92l1.405-.784 13.686-4.56z" fill="#2F2D2F"/></svg>