<svg width="48" height="48" viewBox="0 0 48 48" fill="none" xmlns="http://www.w3.org/2000/svg">
<g clip-path="url(#clip0_3032_3631)">
<path d="M25.11 20.7414C24.7394 20.7226 24.4 20.9527 24.2853 21.306C24.2826 21.3141 24.2802 21.3221 24.2779 21.3303L23.4222 24.332L22.5346 21.3233C22.5322 21.3148 22.5295 21.3065 22.5267 21.2982C22.4083 20.9458 22.0656 20.7164 21.6958 20.7422C21.3249 20.7671 21.017 21.0394 20.9453 21.4122L20.0465 26.3922C19.9775 26.7744 20.2314 27.1401 20.6136 27.2091C20.9955 27.278 21.3614 27.0242 21.4304 26.642L21.8887 24.103L22.6481 26.6772C22.6506 26.6856 22.6532 26.6938 22.6559 26.7021C22.7681 27.0363 23.0796 27.2602 23.432 27.2602H23.4361C23.7901 27.2584 24.1013 27.031 24.2106 26.6943C24.2132 26.6862 24.2157 26.6781 24.218 26.6699L24.9511 24.0983L25.4386 26.6491C25.5114 27.0306 25.8804 27.2809 26.2611 27.2077C26.6425 27.1348 26.8927 26.7665 26.8197 26.3851L25.866 21.3952C25.7919 21.0312 25.481 20.7624 25.11 20.7414Z" fill="#2F2D2F"/>
<path d="M42.864 20.7414C42.4943 20.7227 42.154 20.9527 42.0392 21.3061C42.0366 21.3141 42.0342 21.3222 42.0318 21.3304L41.1762 24.3321L40.2885 21.3233C40.286 21.3149 40.2833 21.3066 40.2806 21.2983C40.1622 20.9459 39.8194 20.716 39.4498 20.7423C39.0789 20.7672 38.7709 21.0395 38.6992 21.4123L37.8003 26.3923C37.7314 26.7744 37.9853 27.1401 38.3674 27.2091C38.7491 27.2781 39.1154 27.0243 39.1843 26.6421L39.6425 24.1032L40.402 26.6773C40.4044 26.6858 40.4072 26.6943 40.41 26.7026C40.5224 27.0366 40.8338 27.2603 41.1858 27.2602H41.1902C41.544 27.2584 41.8552 27.0311 41.9645 26.6946C41.9672 26.6865 41.9697 26.6782 41.972 26.67L42.7051 24.0984L43.1926 26.6492C43.2654 27.0306 43.6345 27.281 44.0151 27.2077C44.3965 27.1349 44.6466 26.7666 44.5737 26.3852L43.62 21.3952C43.5458 21.0313 43.2349 20.7624 42.864 20.7414Z" fill="#2F2D2F"/>
<path d="M28.3633 21.4434V26.5573C28.3633 26.9457 28.678 27.2605 29.0664 27.2605C29.4548 27.2605 29.7695 26.9457 29.7695 26.5573V21.4434C29.7695 21.055 29.4548 20.7402 29.0664 20.7402C28.678 20.7402 28.3633 21.055 28.3633 21.4434Z" fill="#2F2D2F"/>
<path d="M17.8032 22.1465C18.1915 22.1465 18.5063 21.8318 18.5063 21.4434C18.5063 21.055 18.1915 20.7402 17.8032 20.7402H15.6484C15.2601 20.7402 14.9453 21.055 14.9453 21.4434V26.5573C14.9453 26.9457 15.2601 27.2605 15.6484 27.2605H17.8032C18.1915 27.2605 18.5063 26.9457 18.5063 26.5573C18.5063 26.1689 18.1915 25.8542 17.8032 25.8542H16.3516V24.7034H17.6444C18.0327 24.7034 18.3475 24.3887 18.3475 24.0003C18.3475 23.6119 18.0327 23.2972 17.6444 23.2972H16.3516V22.1465H17.8032Z" fill="#2F2D2F"/>
<path d="M32.0039 20.7402C31.6155 20.7402 31.3008 21.055 31.3008 21.4434V24.9623C31.3008 25.7572 31.6799 26.4025 32.4277 26.8802C32.8214 27.1318 33.2656 27.2597 33.7478 27.2605H33.7518C34.1667 27.2605 34.5563 27.1701 34.91 26.992C36.0262 26.4298 36.2606 25.576 36.2606 24.9587V21.4435C36.2606 21.055 35.9459 20.7403 35.5575 20.7403C35.1691 20.7403 34.8544 21.055 34.8544 21.4435V24.9587C34.8544 25.1994 34.7858 25.4801 34.2773 25.7362C34.1196 25.8157 33.9477 25.8543 33.752 25.8543C33.7513 25.8543 33.7506 25.8543 33.75 25.8543C33.5368 25.854 33.3519 25.802 33.185 25.6953C32.7872 25.4411 32.7072 25.2265 32.7072 24.9625V21.4435C32.707 21.055 32.3923 20.7402 32.0039 20.7402Z" fill="#2F2D2F"/>
<path d="M13.4173 22.7725C13.4173 21.652 12.4719 20.7402 11.3099 20.7402H9.95091C9.56278 20.7402 9.24797 21.0548 9.24778 21.4429L9.24609 26.5573C9.24609 26.9457 9.56091 27.2605 9.94922 27.2605C10.3375 27.2605 10.6523 26.9457 10.6523 26.5573V25.279L12.1863 27.0219C12.3252 27.1798 12.5193 27.2605 12.7144 27.2605C12.8794 27.2605 13.045 27.2027 13.1786 27.0851C13.4701 26.8286 13.4985 26.3843 13.2419 26.0928L12.0071 24.6898C12.8274 24.4116 13.4173 23.6574 13.4173 22.7725ZM11.3099 23.3984C11.1558 23.3984 10.901 23.3995 10.6529 23.4005L10.6537 22.1465H11.3099C11.69 22.1465 12.0111 22.4332 12.0111 22.7725C12.0111 23.1117 11.69 23.3984 11.3099 23.3984Z" fill="#2F2D2F"/>
<path d="M4.11719 20.7403C3.72887 20.7403 3.41406 21.055 3.41406 21.4435V26.5574C3.41406 26.9458 3.72887 27.2605 4.11719 27.2605C4.5055 27.2605 4.82031 26.9458 4.82031 26.5574V25.0354C5.08975 25.0341 5.37297 25.0329 5.54116 25.0329C6.74022 25.0329 7.71569 24.07 7.71569 22.8865C7.71569 21.703 6.74022 20.7402 5.54116 20.7402L4.11719 20.7403ZM6.30944 22.8865C6.30944 23.2876 5.95759 23.6266 5.54116 23.6266C5.37287 23.6266 5.09003 23.6278 4.82031 23.629V22.1466H5.54116C5.95759 22.1466 6.30944 22.4855 6.30944 22.8865Z" fill="#2F2D2F"/>
<path d="M0.703125 18.6424H47.2969C47.6853 18.6424 48 18.3276 48 17.9392C48 17.5508 47.6853 17.2361 47.2969 17.2361H45.1922C45.2179 17.1643 45.2437 17.0924 45.2701 17.0191C45.6937 15.8442 46.1315 14.6292 45.6276 13.5837C45.1142 12.52 43.8767 12.1026 42.6801 11.6989C41.8621 11.4231 41.0163 11.1379 40.6717 10.7066C40.3233 10.2698 40.2319 9.37751 40.1434 8.51463C40.0152 7.26279 39.8826 5.96848 38.9654 5.23601C38.3076 4.71063 37.4585 4.67379 36.8774 4.69169C36.4893 4.7036 36.1843 5.02798 36.1963 5.41619C36.2083 5.80441 36.5311 6.11351 36.9208 6.09729C37.4844 6.07995 37.866 6.15766 38.0879 6.33485C38.5438 6.69907 38.6459 7.69488 38.7445 8.65798C38.8537 9.72279 38.9664 10.824 39.5729 11.584C40.1756 12.3382 41.2203 12.6906 42.2307 13.0314C43.1521 13.3421 44.1048 13.6635 44.3612 14.1944C44.6085 14.7077 44.2724 15.6402 43.9473 16.5421C43.8652 16.7701 43.7812 17.0026 43.7038 17.2359H39.3478C38.0858 14.3744 36.061 11.9325 33.4657 10.1545C30.6721 8.24079 27.3989 7.22923 24 7.22923C20.8731 7.22923 17.8223 8.09594 15.1779 9.73563C14.8478 9.94029 14.7462 10.3737 14.9509 10.7037C15.1555 11.0338 15.5889 11.1353 15.9189 10.9308C18.3407 9.42916 21.1351 8.63548 24 8.63548C27.114 8.63548 30.1123 9.56191 32.6709 11.3147C34.8762 12.8254 36.6335 14.8583 37.7992 17.236H10.202C11.0058 15.6042 12.1081 14.1037 13.4288 12.8515C13.7106 12.5843 13.7224 12.1393 13.4553 11.8575C13.188 11.5756 12.743 11.5639 12.4613 11.831C10.8545 13.3544 9.54403 15.2153 8.65059 17.2359H4.29628C4.21875 17.0025 4.13503 16.77 4.05281 16.5421C3.72778 15.6402 3.39169 14.7077 3.63891 14.1947C3.89541 13.6628 4.84828 13.3415 5.76984 13.0309C6.78 12.6903 7.82456 12.338 8.42737 11.5835C9.03356 10.8239 9.14644 9.72269 9.25547 8.65779C9.35419 7.69479 9.45619 6.69879 9.912 6.33485C10.3635 5.97419 11.3535 6.09494 12.3107 6.21166C13.3763 6.3416 14.4782 6.47585 15.358 6.05107C16.2206 5.63473 16.7938 4.69985 17.3481 3.79573C17.8589 2.96238 18.3872 2.10082 18.9713 1.96816C19.5164 1.84498 20.3442 2.37626 21.145 2.89048C22.0585 3.47716 23.0031 4.08382 23.9998 4.08382C24.9966 4.08382 25.9412 3.47716 26.8546 2.89048C27.6554 2.37626 28.4837 1.84479 29.0285 1.96816C29.6125 2.10082 30.1408 2.96248 30.6517 3.79573C31.2059 4.69985 31.7791 5.63463 32.6422 6.05135C32.9016 6.17623 33.2008 6.26088 33.5318 6.30298C33.9163 6.35191 34.2689 6.07919 34.3179 5.69398C34.3668 5.30876 34.0942 4.95682 33.7089 4.90788C33.5286 4.88501 33.375 4.84338 33.253 4.78479C32.7622 4.54788 32.2987 3.79188 31.8505 3.06082C31.1874 1.97923 30.5017 0.860695 29.3399 0.596976C28.2201 0.341976 27.1395 1.03638 26.0947 1.70735C25.352 2.18435 24.5839 2.67766 23.9998 2.67766C23.4158 2.67766 22.6477 2.18435 21.9049 1.70735C20.8603 1.03638 19.7801 0.342351 18.66 0.596976C17.4982 0.860695 16.8125 1.97923 16.1494 3.06082C15.7012 3.79188 15.2377 4.54779 14.747 4.78479C14.2388 5.02994 13.3452 4.92119 12.4811 4.81582C11.2356 4.66394 9.94781 4.5071 9.03478 5.23601C8.11763 5.96838 7.98497 7.26279 7.85672 8.51454C7.76831 9.37741 7.67691 10.2698 7.32862 10.7062C6.98391 11.1377 6.13847 11.4228 5.32078 11.6984C4.12378 12.102 2.886 12.5194 2.37244 13.5839C1.86872 14.629 2.30653 15.8439 2.73 17.019C2.75644 17.0923 2.78222 17.1642 2.80791 17.236H0.703125C0.314812 17.236 0 17.5507 0 17.9391C0 18.3275 0.314812 18.6424 0.703125 18.6424Z" fill="#2F2D2F"/>
<path d="M47.2969 29.3579H0.703125C0.314812 29.3579 0 29.6726 0 30.061C0 30.4494 0.314812 30.7642 0.703125 30.7642H2.80781C2.78231 30.8354 2.75672 30.9068 2.73056 30.9795C2.30672 32.1553 1.86844 33.3712 2.37272 34.4165C2.886 35.4804 4.12341 35.8977 5.32003 36.3012C6.138 36.577 6.98391 36.8623 7.32862 37.2941C7.67709 37.7305 7.7685 38.6228 7.85691 39.4854C7.98506 40.7372 8.11763 42.0315 9.03506 42.764C9.94781 43.4928 11.2357 43.336 12.4809 43.1843C13.3452 43.0791 14.2388 42.9704 14.7472 43.2155C15.2379 43.4522 15.7013 44.2082 16.1496 44.9393C16.8127 46.0208 17.4983 47.1393 18.6601 47.4034C18.8224 47.4403 18.9838 47.4572 19.1445 47.4572C20.0923 47.4572 21.0117 46.8667 21.9051 46.2928C22.6479 45.8156 23.416 45.3221 24.0001 45.3221C24.5842 45.3221 25.3522 45.8155 26.0951 46.2927C27.1399 46.9639 28.2204 47.6578 29.3401 47.4033C30.5019 47.1393 31.1875 46.0208 31.8506 44.9392C32.2987 44.2082 32.7622 43.4523 33.2528 43.2156C33.7613 42.9702 34.655 43.0792 35.5192 43.1843C36.7646 43.3362 38.0524 43.4931 38.965 42.7641C39.8825 42.0316 40.015 40.7372 40.1433 39.4854C40.2316 38.6228 40.323 37.7306 40.6716 37.2942C41.0163 36.8625 41.8621 36.5772 42.6801 36.3013C43.8768 35.8977 45.1141 35.4804 45.6274 34.4165C46.1317 33.3711 45.6934 32.1552 45.2695 30.9795C45.2433 30.9068 45.2178 30.8355 45.1923 30.7642H47.297C47.6854 30.7642 48.0001 30.4494 48.0001 30.061C48.0001 29.6726 47.6853 29.3579 47.2969 29.3579ZM43.9465 31.4564C44.2719 32.3589 44.6084 33.2922 44.3608 33.8055C44.1044 34.337 43.1518 34.6583 42.2305 34.9689C41.2201 35.3097 40.1752 35.6621 39.5725 36.4168C38.9661 37.1762 38.8533 38.2773 38.7443 39.3421C38.6455 40.3051 38.5435 41.301 38.0874 41.6652C37.6362 42.0256 36.6465 41.9051 35.6892 41.7884C34.6236 41.6586 33.5217 41.5244 32.6417 41.949C31.7791 42.3651 31.206 43.3 30.6516 44.2042C30.1407 45.0376 29.6123 45.8993 29.0282 46.032C28.4844 46.1564 27.6558 45.624 26.8549 45.1096C25.9413 44.5227 24.9967 43.916 23.9999 43.916C23.0032 43.916 22.0585 44.5228 21.1448 45.1096C20.3441 45.624 19.5166 46.1566 18.9715 46.0321C18.3875 45.8993 17.8591 45.0376 17.3483 44.2043C16.7939 43.3 16.2207 42.3652 15.358 41.9489C14.9074 41.7315 14.3988 41.6606 13.8665 41.6606C13.3593 41.6606 12.8305 41.7251 12.3107 41.7883C11.3535 41.9049 10.3637 42.0256 9.91228 41.665C9.45628 41.3009 9.35419 40.3051 9.25566 39.3422C9.14653 38.2773 9.03375 37.1762 8.42737 36.4167C7.82475 35.6619 6.77981 35.3095 5.76928 34.9688C4.84809 34.6582 3.8955 34.3369 3.63909 33.8055C3.3915 33.2922 3.72797 32.3589 4.05328 31.4564C4.13531 31.229 4.21894 30.997 4.29619 30.7642H8.65191C9.91397 33.6257 11.9388 36.0676 14.5342 37.8456C17.3279 39.7595 20.6011 40.771 24 40.771C26.4486 40.771 28.8077 40.2553 31.0118 39.2382C31.3644 39.0756 31.5184 38.6579 31.3556 38.3052C31.193 37.9526 30.7752 37.7986 30.4226 37.9614C28.4047 38.8927 26.2437 39.3648 24 39.3648C20.886 39.3648 17.8877 38.4383 15.3291 36.6856C13.1237 35.1748 11.3666 33.1419 10.2007 30.7643H37.7987C36.7161 32.9687 35.1174 34.8877 33.1302 36.3573C32.818 36.5882 32.7521 37.0284 32.983 37.3407C33.214 37.653 33.6541 37.7188 33.9665 37.4879C36.3189 35.7481 38.1712 33.4303 39.3483 30.7642H43.7035C43.7809 30.997 43.8646 31.229 43.9465 31.4564Z" fill="#2F2D2F"/>
</g>
<defs>
<clipPath id="clip0_3032_3631">
<rect width="48" height="48" fill="white"/>
</clipPath>
</defs>
</svg>
