<svg width="48" height="48" viewBox="0 0 48 48" fill="none" xmlns="http://www.w3.org/2000/svg">
<path d="M24.0023 1.41211C11.547 1.41211 1.41406 11.5451 1.41406 24.0003C1.41406 36.4556 11.547 46.5886 24.0023 46.5886C36.4576 46.5886 46.5905 36.4556 46.5905 24.0003C46.5905 11.5451 36.4576 1.41211 24.0023 1.41211ZM24.0023 45.1768C12.3256 45.1768 2.82583 35.6771 2.82583 24.0003C2.82583 12.3236 12.3256 2.82387 24.0023 2.82387C35.679 2.82387 45.1788 12.3236 45.1788 24.0003C45.1788 35.6771 35.679 45.1768 24.0023 45.1768Z" fill="#2F2D2F"/>
<path d="M37.1184 9.40352C37.1106 9.20658 37.021 9.02234 36.8714 8.89458C33.2798 5.83034 28.7092 4.14258 24.0024 4.14258C13.0528 4.14258 4.14453 13.0508 4.14453 24.0005C4.14453 28.7073 5.8323 33.2779 8.89583 36.8694C9.02359 37.0191 9.20783 37.1087 9.40477 37.1165C9.41394 37.1165 9.42312 37.1172 9.433 37.1172C9.62006 37.1172 9.79936 37.043 9.93206 36.9103L36.9123 9.93011C37.0514 9.79105 37.1262 9.60046 37.1184 9.40352ZM16.4777 24.0005C16.4777 21.9266 17.3212 20.0454 18.6836 18.683C20.0459 17.32 21.9278 16.4758 24.0024 16.4758C25.2412 16.4758 26.4349 16.7772 27.5029 17.3433L17.3452 27.5009C16.7784 26.4329 16.4777 25.2393 16.4777 24.0005ZM24.0024 11.6553C23.5076 11.6553 23.1045 11.2529 23.1045 10.7581C23.1045 10.2633 23.5076 9.86023 24.0024 9.86023C24.4972 9.86023 24.9003 10.2633 24.9003 10.7581C24.9003 11.2529 24.4972 11.6553 24.0024 11.6553ZM28.5419 16.3049C27.3772 15.6118 26.0728 15.1981 24.7083 15.0922V12.9449C25.6351 12.6449 26.3121 11.783 26.3121 10.7574C26.3121 9.48399 25.2758 8.44775 24.0024 8.44775C22.729 8.44775 21.6928 9.48399 21.6928 10.7574C21.6928 11.783 22.3697 12.6442 23.2965 12.9449V15.1C21.3617 15.2525 19.6005 16.0198 18.2064 17.2113L16.6838 15.6845C17.1271 14.8162 16.9965 13.7285 16.2716 13.0028C15.3716 12.1028 13.9055 12.1028 13.0055 13.0028C12.1048 13.9028 12.1048 15.3689 13.0055 16.2689C13.4558 16.7193 14.0474 16.9445 14.6382 16.9445C14.9996 16.9445 15.3561 16.8499 15.685 16.6819L17.2083 18.2094C16.0196 19.6021 15.2537 21.3619 15.1012 23.2946H12.9462C12.6462 22.3678 11.7843 21.6908 10.7586 21.6908C9.48524 21.6908 8.449 22.727 8.449 24.0005C8.449 25.2739 9.48524 26.3101 10.7586 26.3101C11.7843 26.3101 12.6455 25.6332 12.9462 24.7063H15.0935C15.1994 26.0701 15.613 27.3753 16.3062 28.54L9.48524 35.3609C6.94618 32.1216 5.5563 28.1172 5.5563 24.0005C5.5563 13.8294 13.8314 5.55434 24.0024 5.55434C28.1191 5.55434 32.1236 6.94423 35.3629 9.48328L28.5419 16.3049ZM15.2728 15.2694C15.2721 15.2701 15.2714 15.2715 15.2706 15.2729C14.9205 15.6209 14.353 15.6202 14.0036 15.2708C13.6535 14.9207 13.6535 14.351 14.0036 14.0009C14.1786 13.8259 14.4088 13.7383 14.6382 13.7383C14.8676 13.7383 15.0977 13.8259 15.2728 14.0009C15.6215 14.3503 15.6222 14.9165 15.2749 15.2673C15.2742 15.268 15.2735 15.2687 15.2728 15.2694ZM11.6572 24.0005C11.6572 24.4953 11.2549 24.8983 10.7601 24.8983C10.2652 24.8983 9.86147 24.4953 9.86147 24.0005C9.86147 23.5056 10.2645 23.1026 10.7594 23.1026C11.2542 23.1026 11.6572 23.5056 11.6572 24.0005Z" fill="#2F2D2F"/>
<path d="M38.3808 10.6402C38.1881 10.6324 37.9975 10.7087 37.8598 10.8463L10.8471 37.859C10.7095 37.9967 10.6346 38.1851 10.641 38.38C10.6474 38.5748 10.7335 38.7583 10.8796 38.8875C14.5121 42.0929 19.1723 43.8583 24.0012 43.8583C34.9509 43.8583 43.8591 34.9501 43.8591 24.0004C43.8591 19.1715 42.0937 14.512 38.8883 10.8788C38.7591 10.7327 38.5749 10.6465 38.3808 10.6402ZM29.3222 29.3157C29.3208 29.3171 29.3194 29.3171 29.3186 29.3185C29.3179 29.32 29.3172 29.3214 29.3158 29.3221C27.9535 30.6823 26.0737 31.5251 24.0005 31.5251C22.6459 31.5251 21.3514 31.168 20.2078 30.4945L30.4946 20.2077C31.1674 21.3512 31.5252 22.6458 31.5252 24.0004C31.5252 26.0736 30.6824 27.9534 29.3222 29.3157ZM24.0005 36.3456C24.4954 36.3456 24.8984 36.748 24.8984 37.2428C24.8984 37.7376 24.4954 38.1414 24.0005 38.1414C23.5057 38.1414 23.1026 37.7383 23.1026 37.2435C23.1026 36.7487 23.5057 36.3456 24.0005 36.3456ZM24.0005 42.4465C19.7659 42.4465 15.6711 40.9847 12.3874 38.315L19.1808 31.5216C20.4189 32.3207 21.8194 32.795 23.2946 32.9087V35.0552C22.3678 35.3552 21.6909 36.2171 21.6909 37.2428C21.6909 38.5162 22.7271 39.5524 24.0005 39.5524C25.2739 39.5524 26.3102 38.5162 26.3102 37.2428C26.3102 36.2171 25.6332 35.356 24.7064 35.0552V32.9002C26.6398 32.7477 28.4003 31.9811 29.7937 30.791L31.3163 32.3136C31.0812 32.7534 30.9641 33.2552 31.0205 33.7388C31.089 34.3232 31.3869 34.8061 31.8591 35.0983C32.5177 35.5049 33.1135 35.7096 33.6386 35.7096C33.8052 35.7096 33.9641 35.6891 34.1165 35.6475C34.5535 35.5289 34.9015 35.2451 35.1224 34.828C35.973 33.2214 35.5241 32.2571 34.9975 31.7305C34.2725 31.0056 33.1848 30.875 32.3165 31.3176L30.7911 29.7922C31.9812 28.3988 32.7485 26.6383 32.9003 24.7049H35.0554C35.3554 25.6317 36.2172 26.3087 37.2429 26.3087C38.5163 26.3087 39.5525 25.2724 39.5525 23.999C39.5525 22.7256 38.5163 21.6894 37.2429 21.6894C36.2172 21.6894 35.3561 22.3663 35.0554 23.2931H32.9088C32.7951 21.8178 32.3208 20.4167 31.5217 19.1792L38.3151 12.3858C40.9848 15.6703 42.4466 19.7651 42.4466 23.999C42.4466 34.1715 34.1716 42.4465 24.0005 42.4465ZM32.7309 32.7308C32.7316 32.7301 32.7323 32.7287 32.733 32.728C32.9081 32.555 33.1361 32.4675 33.3648 32.4675C33.5949 32.4675 33.8243 32.555 33.9994 32.7301C34.113 32.8444 34.4158 33.1465 33.8744 34.1687C33.8271 34.2576 33.7855 34.276 33.7459 34.2865C33.5737 34.3338 33.1812 34.2569 32.601 33.8983C32.5636 33.875 32.4492 33.8051 32.4224 33.5771C32.3892 33.2941 32.5149 32.9482 32.7266 32.7336C32.7281 32.7322 32.7302 32.7322 32.7309 32.7308ZM36.3457 24.0004C36.3457 23.5056 36.7481 23.1025 37.2429 23.1025C37.7377 23.1025 38.1408 23.5056 38.1408 24.0004C38.1408 24.4952 37.7377 24.8983 37.2429 24.8983C36.7481 24.8983 36.3457 24.4952 36.3457 24.0004Z" fill="#2F2D2F"/>
<path d="M26.351 26.1885C26.0009 26.353 25.8499 26.7723 26.0108 27.1245C26.0129 27.1288 26.2148 27.5897 26.0433 27.9144C25.8837 28.218 25.4143 28.3584 25.0487 28.4227C24.6647 28.4904 24.4084 28.8561 24.4755 29.2401C24.5355 29.5824 24.8334 29.8238 25.1701 29.8238C25.2103 29.8238 25.252 29.8203 25.2929 29.8133C26.2868 29.6382 26.963 29.2147 27.3019 28.5533C27.7847 27.6109 27.3372 26.6262 27.2849 26.5168C27.1176 26.1688 26.7012 26.0248 26.351 26.1885Z" fill="#2F2D2F"/>
<path d="M22.3165 18.9503C21.3177 18.7965 20.5426 18.9821 20.0097 19.4995C19.2501 20.2372 19.3581 21.3129 19.373 21.4336C19.4174 21.7908 19.7203 22.0492 20.0718 22.0492C20.0986 22.0492 20.1254 22.0478 20.153 22.0449C20.537 22.0012 20.8151 21.6525 20.7755 21.2678C20.7748 21.2628 20.7318 20.7616 20.9972 20.5089C21.2471 20.2725 21.7356 20.2901 22.1026 20.3459C22.4852 20.4031 22.848 20.1405 22.9073 19.7551C22.9666 19.3696 22.7019 19.0096 22.3165 18.9503Z" fill="#2F2D2F"/>
</svg>
