<svg width="48" height="48" viewBox="0 0 48 48" fill="none" xmlns="http://www.w3.org/2000/svg">
<path d="M45.5599 36.3118L39.3967 12.6718C39.3631 12.547 39.2863 12.4414 39.1759 12.379C39.0655 12.3166 38.9359 12.2974 38.8111 12.331L38.3695 12.4462C37.6015 12.6478 36.8095 12.1822 36.6079 11.4142C36.4063 10.6462 36.8719 9.85422 37.6399 9.65262L38.0815 9.53742C38.3359 9.47022 38.4895 9.20622 38.4271 8.95182L36.8335 2.84142C36.7663 2.58702 36.5071 2.43342 36.2479 2.49582L30.2239 4.06542C30.0991 4.09902 29.9935 4.17582 29.9311 4.28622C29.8687 4.39662 29.8495 4.52622 29.8831 4.65102L29.9311 4.84302C30.1615 5.72142 30.0319 6.63342 29.5759 7.41102C29.1199 8.18862 28.3807 8.75022 27.5071 8.97582C26.6287 9.20622 25.7167 9.07662 24.9391 8.62062C24.1567 8.16462 23.5999 7.42542 23.3743 6.55182L23.3263 6.35982C23.2927 6.23502 23.2159 6.12942 23.1055 6.06702C22.9951 6.00462 22.8655 5.98542 22.7407 6.01902L2.77746 11.2174C2.52306 11.2846 2.36946 11.5486 2.43186 11.803L8.00946 33.2014C8.04306 33.3262 8.11986 33.4318 8.23026 33.4942C8.34066 33.5566 8.47026 33.5758 8.59506 33.5422L9.10386 33.4078C10.9135 32.9374 12.7663 34.027 13.2415 35.8318C13.4719 36.7102 13.3423 37.6222 12.8863 38.3998C12.4303 39.1774 11.6911 39.739 10.8175 39.9646L10.3087 40.099C10.0543 40.1662 9.90066 40.4302 9.96306 40.6846L11.1583 45.2686C11.2159 45.4846 11.4079 45.6286 11.6239 45.6286C11.6623 45.6286 11.7055 45.6238 11.7439 45.6142L31.8655 40.3678C31.9903 40.3342 32.0959 40.2574 32.1583 40.147C32.2207 40.0366 32.2399 39.907 32.2063 39.7822L32.1343 39.499C32.0383 39.1246 32.0911 38.7358 32.2879 38.4046C32.4847 38.0734 32.7967 37.8334 33.1711 37.7374C33.9439 37.5358 34.7311 38.0014 34.9327 38.7694C35.1343 39.5374 35.0047 39.0526 35.0047 39.0526C35.0719 39.307 35.3311 39.4606 35.5903 39.3982L45.2191 36.8878C45.4735 36.8206 45.6271 36.5566 45.5647 36.3022L45.5599 36.3118ZM35.8015 38.3566C35.6143 37.8142 35.2447 37.363 34.7455 37.0702C34.1935 36.7438 33.5455 36.6574 32.9215 36.8158C32.3023 36.979 31.7791 37.3726 31.4527 37.9246C31.1599 38.4238 31.0591 38.9998 31.1599 39.5662L11.9599 44.5726L11.0095 40.9198L11.0527 40.9102C12.1759 40.6174 13.1215 39.9022 13.7071 38.899C14.2927 37.8958 14.4559 36.7246 14.1631 35.6014C13.5583 33.2782 11.1775 31.8862 8.85426 32.491L8.81106 32.5006L3.48306 12.0286L22.5199 7.06542C22.8511 8.06862 23.5279 8.90862 24.4495 9.44622C25.4527 10.0318 26.6239 10.195 27.7471 9.90222C28.8703 9.60942 29.8159 8.89422 30.4015 7.89102C30.9391 6.96942 31.1215 5.90862 30.9199 4.87182L36.0223 3.54222L37.3711 8.72142C36.7567 8.88462 36.2479 9.27822 35.9263 9.82542C35.5999 10.3774 35.5135 11.0254 35.6719 11.6494C36.0031 12.9262 37.3087 13.6942 38.5807 13.3726L44.4991 36.0814L35.7919 38.3518L35.8015 38.3566Z" fill="#2F2D2F" stroke="#2F2D2F"/>
<path d="M13.9953 17.7838C14.3697 18.0046 14.7873 18.115 15.2049 18.115C15.4065 18.115 15.6129 18.091 15.8145 18.0382C16.4337 17.875 16.9569 17.4814 17.2833 16.9294C17.6097 16.3774 17.6961 15.7294 17.5377 15.1054C17.3745 14.4862 16.9809 13.963 16.4289 13.6366C15.8769 13.3102 15.2289 13.2238 14.6049 13.3822C13.9857 13.5454 13.4625 13.939 13.1361 14.491C12.8097 15.043 12.7233 15.691 12.8817 16.315C13.0449 16.9342 13.4385 17.4574 13.9905 17.7838H13.9953ZM13.9665 14.9806C14.1633 14.6494 14.4753 14.4094 14.8449 14.3134C14.9649 14.2798 15.0897 14.2654 15.2097 14.2654C15.4641 14.2654 15.7137 14.3326 15.9393 14.4622C16.2705 14.659 16.5105 14.971 16.6065 15.3406C16.7025 15.715 16.6497 16.1038 16.4529 16.435C16.2561 16.7662 15.9441 17.0062 15.5697 17.1022C15.1953 17.1982 14.8065 17.1454 14.4753 16.9486C14.1441 16.7518 13.9041 16.4398 13.8081 16.0654C13.7121 15.691 13.7649 15.3022 13.9617 14.971L13.9665 14.9806Z" fill="#2F2D2F" stroke="#2F2D2F"/>
<path d="M32.8867 13.637C33.1171 13.2434 33.1843 12.7778 33.0691 12.3362C32.9539 11.8946 32.6707 11.5202 32.2771 11.2898C31.8835 11.0594 31.4179 10.9922 30.9763 11.1074C30.0595 11.3474 29.5075 12.2834 29.7475 13.2002C29.9491 13.973 30.6451 14.4818 31.4083 14.4818C31.5523 14.4818 31.6963 14.4626 31.8403 14.4242C32.2819 14.309 32.6563 14.0258 32.8867 13.6322V13.637ZM30.6739 12.9554C30.5683 12.5522 30.8131 12.1394 31.2163 12.0338C31.2787 12.0194 31.3459 12.0098 31.4083 12.0098C31.7443 12.0098 32.0515 12.2354 32.1427 12.5762C32.1955 12.773 32.1667 12.9746 32.0611 13.1474C31.9603 13.3202 31.7971 13.445 31.6003 13.4978C31.1971 13.6034 30.7843 13.3586 30.6787 12.9554H30.6739Z" fill="#2F2D2F" stroke="#2F2D2F"/>
<path d="M20.4471 37.9583C20.3319 37.5167 20.0487 37.1423 19.6551 36.9119C19.2615 36.6815 18.7959 36.6143 18.3543 36.7295C17.9127 36.8447 17.5383 37.1279 17.3079 37.5215C17.0775 37.9151 17.0103 38.3807 17.1255 38.8223C17.3271 39.5951 18.0231 40.1039 18.7863 40.1039C18.9303 40.1039 19.0743 40.0847 19.2183 40.0463C20.1351 39.8063 20.6871 38.8703 20.4471 37.9535V37.9583ZM18.9735 39.1247C18.5703 39.2303 18.1575 38.9855 18.0519 38.5823C17.9463 38.1791 18.1911 37.7663 18.5943 37.6607C18.6567 37.6463 18.7239 37.6367 18.7863 37.6367C18.9207 37.6367 19.0503 37.6703 19.1655 37.7423C19.3383 37.8431 19.4631 38.0063 19.5159 38.2031C19.6215 38.6063 19.3767 39.0191 18.9735 39.1247Z" fill="#2F2D2F" stroke="#2F2D2F"/>
<path d="M7.62089 12.4559C7.22729 12.2255 6.76169 12.1583 6.32009 12.2735C5.40329 12.5135 4.85129 13.4495 5.09129 14.3663C5.20649 14.8079 5.48969 15.1823 5.88329 15.4127C6.15209 15.5711 6.44969 15.6478 6.74729 15.6478C6.89129 15.6478 7.04009 15.6286 7.18409 15.5903C7.62569 15.475 8.00009 15.1919 8.23049 14.7983C8.46089 14.4047 8.52809 13.9391 8.41289 13.4975C8.29769 13.0559 8.01449 12.6815 7.62089 12.4511V12.4559ZM7.40489 14.3231C7.30409 14.4959 7.14089 14.6207 6.94409 14.6734C6.74729 14.7263 6.54569 14.6975 6.37289 14.5919C6.20009 14.4911 6.07529 14.3279 6.02249 14.1311C5.91689 13.7279 6.16169 13.3151 6.56489 13.2095C6.62729 13.1951 6.69449 13.1855 6.75689 13.1855C7.09289 13.1855 7.40009 13.4111 7.49129 13.7519C7.54409 13.9487 7.51529 14.1503 7.40969 14.3231H7.40489Z" fill="#2F2D2F" stroke="#2F2D2F"/>
<path d="M34.7869 25.7281C32.4637 26.3329 31.0717 28.7137 31.6765 31.0369C31.9693 32.1601 32.6845 33.1057 33.6877 33.6913C34.3645 34.0897 35.1181 34.2913 35.8813 34.2913C36.2509 34.2913 36.6205 34.2433 36.9853 34.1473C38.1085 33.8545 39.0541 33.1393 39.6397 32.1361C40.2253 31.1329 40.3885 29.9617 40.0957 28.8385C39.8029 27.7153 39.0877 26.7697 38.0845 26.1841C37.0813 25.5985 35.9101 25.4353 34.7869 25.7281ZM39.1645 29.0833C39.3949 29.9617 39.2653 30.8737 38.8093 31.6513C38.3533 32.4337 37.6141 32.9905 36.7405 33.2161C35.8621 33.4465 34.9501 33.3169 34.1725 32.8609C33.3901 32.4049 32.8333 31.6657 32.6077 30.7921C32.1373 28.9825 33.2221 27.1297 35.0317 26.6545C35.3149 26.5825 35.6077 26.5441 35.8909 26.5441C36.4861 26.5441 37.0717 26.7025 37.5997 27.0097C38.3821 27.4657 38.9389 28.2049 39.1645 29.0785V29.0833Z" fill="#2F2D2F" stroke="#2F2D2F"/>
<path d="M28.2805 20.5487C27.7285 20.2223 27.0805 20.1359 26.4565 20.2943C25.8325 20.4527 25.3141 20.8511 24.9877 21.4031C24.6613 21.9551 24.5749 22.6031 24.7333 23.2271C25.0165 24.3071 25.9909 25.0223 27.0613 25.0223C27.2629 25.0223 27.4645 24.9983 27.6661 24.9455C28.2853 24.7823 28.8085 24.3887 29.1349 23.8367C29.4613 23.2847 29.5477 22.6367 29.3893 22.0127C29.2261 21.3935 28.8325 20.8703 28.2805 20.5439V20.5487ZM28.3093 23.3519C28.1125 23.6831 27.8005 23.9231 27.4261 24.0191C26.6581 24.2207 25.8661 23.7551 25.6645 22.9871C25.5685 22.6127 25.6213 22.2239 25.8181 21.8927C26.0149 21.5615 26.3269 21.3215 26.7013 21.2255C26.8213 21.1919 26.9461 21.1775 27.0661 21.1775C27.3205 21.1775 27.5701 21.2447 27.7957 21.3743C28.1269 21.5711 28.3669 21.8831 28.4629 22.2527C28.5589 22.6271 28.5061 23.0159 28.3093 23.3471V23.3519Z" fill="#2F2D2F" stroke="#2F2D2F"/>
<path d="M17.7949 23.7023C17.5021 22.5791 16.7869 21.6335 15.7837 21.0479C14.7805 20.4575 13.6093 20.2991 12.4861 20.5919C10.1629 21.1967 8.77091 23.5775 9.37571 25.9007C9.88451 27.8543 11.6557 29.1551 13.5853 29.1551C13.9453 29.1551 14.3149 29.1071 14.6797 29.0159C15.8029 28.7231 16.7485 28.0079 17.3341 27.0047C17.9197 26.0015 18.0829 24.8303 17.7901 23.7071L17.7949 23.7023ZM16.5085 26.5151C16.0525 27.2975 15.3133 27.8543 14.4397 28.0799C12.6301 28.5503 10.7773 27.4607 10.3021 25.6559C9.83171 23.8463 10.9165 21.9935 12.7261 21.5183C13.0093 21.4415 13.2973 21.4079 13.5805 21.4079C15.0877 21.4079 16.4653 22.4207 16.8637 23.9423C17.0941 24.8207 16.9645 25.7327 16.5085 26.5103V26.5151Z" fill="#2F2D2F" stroke="#2F2D2F"/>
</svg>
