<svg width="48" height="48" viewBox="0 0 48 48" fill="none" xmlns="http://www.w3.org/2000/svg">
<g clip-path="url(#clip0_3032_3538)">
<path d="M47.9959 24.2325C48.0307 23.8546 47.8341 23.4928 47.4979 23.3166L38.7169 18.7134L47.3393 16.0485C47.7022 15.9364 47.9615 15.6167 47.9963 15.2384C48.0307 14.8605 47.8341 14.4987 47.4979 14.3225L30.0377 5.16983C29.8184 5.05484 29.5628 5.03104 29.3258 5.10428L0.660714 13.9633C0.298166 14.0757 0.0385224 14.3954 0.00409869 14.7733C-0.0306913 15.1516 0.165964 15.5131 0.502145 15.6896L6.53106 18.85C7.48284 19.3488 8.4533 19.7974 9.4406 20.1962L0.656319 22.9589C0.29487 23.0724 0.0374239 23.3925 0.00373247 23.7696C-0.0299588 24.1472 0.166696 24.5076 0.502145 24.6833L9.28313 29.2866L0.660714 31.9515C0.298166 32.0636 0.0385224 32.3833 0.00409869 32.7616C-0.0306913 33.1395 0.165964 33.5013 0.502145 33.6775L17.9623 42.8302C18.0978 42.9012 18.2476 42.9375 18.3977 42.9375C18.4908 42.9375 18.5841 42.9235 18.6746 42.8957L29.3654 39.5918C29.8598 39.4387 30.137 38.9139 29.9839 38.4192C29.8312 37.9244 29.3064 37.6472 28.8117 37.8003L18.4904 40.99L3.38532 33.0718L11.6386 30.5211L17.9623 33.836C18.0978 33.9074 18.2476 33.9433 18.3977 33.9433C18.4908 33.9433 18.5841 33.9294 18.6746 33.9016L36.1761 28.4927L44.6147 32.9161L35.9865 35.5829C35.4917 35.7356 35.2145 36.2607 35.3676 36.7555C35.4917 37.1579 35.8623 37.4161 36.2629 37.4161C36.3545 37.4161 36.4479 37.4026 36.5402 37.3744L47.3393 34.0367C47.7019 33.9247 47.9615 33.6046 47.9959 33.2267C48.0307 32.8487 47.8341 32.4869 47.4979 32.3108L38.7169 27.7075L47.3393 25.0426C47.7019 24.9305 47.9615 24.6108 47.9959 24.2325ZM3.38532 15.0839L29.5097 7.01004L44.6147 14.9282L30.4519 19.3052C29.7656 19.5172 29.0753 19.7036 28.3821 19.8662L26.4152 19.2905C23.9982 18.583 22.0009 16.9772 20.7909 14.7686C20.6397 14.4917 20.3592 14.3101 20.045 14.2844C19.7285 14.2584 19.4246 14.3928 19.2301 14.6415C17.5027 16.8516 14.903 18.119 12.0975 18.119H9.33843C8.68548 17.8326 8.03912 17.5232 7.40154 17.1892L3.38532 15.0839ZM14.2303 19.7871C16.3565 19.3693 18.3022 18.3307 19.8402 16.7805C20.9975 18.4186 22.5561 19.7029 24.378 20.5283C20.9696 20.8605 17.5463 20.61 14.2303 19.7871ZM18.4904 31.9958L3.3714 24.0703L12.4069 21.2289C12.8551 21.3603 13.3063 21.4816 13.7601 21.5936C13.6535 21.7489 13.5938 21.9353 13.5938 22.125C13.5938 22.3715 13.6941 22.6135 13.8685 22.7878C14.0428 22.9622 14.2848 23.0625 14.5313 23.0625C14.7788 23.0625 15.0198 22.9622 15.1941 22.7878C15.3684 22.6135 15.4688 22.3715 15.4688 22.125C15.4688 22.0708 15.4629 22.017 15.4538 21.9639C16.4726 22.1576 17.5035 22.3026 18.5457 22.3982C19.5378 22.4894 20.528 22.5348 21.5153 22.5348C23.4518 22.5348 25.377 22.3586 27.2791 22.01C27.2743 22.0481 27.271 22.0865 27.271 22.125C27.271 22.3715 27.3714 22.6135 27.5457 22.7878C27.7211 22.9622 27.9621 23.0625 28.2085 23.0625C28.455 23.0625 28.697 22.9622 28.8714 22.7878C29.0464 22.6135 29.1467 22.3715 29.1467 22.125C29.1467 21.9551 29.0984 21.7881 29.0112 21.6431C29.6796 21.4823 30.3446 21.3007 31.0056 21.0967L32.9645 20.4913C33.0084 20.577 33.0652 20.6565 33.134 20.7253C33.3084 20.8997 33.5504 21 33.7969 21C34.0433 21 34.2854 20.8997 34.4597 20.7253C34.634 20.551 34.7344 20.309 34.7344 20.0625C34.7344 20.0237 34.7311 19.9852 34.726 19.9468L36.1761 19.4985L44.6147 23.922L18.4904 31.9958Z" fill="#2F2D2F"/>
<path d="M32.6687 36.6514C32.4211 36.6514 32.1794 36.7517 32.0051 36.926C31.8308 37.1003 31.7305 37.3424 31.7305 37.5889C31.7305 37.8353 31.8308 38.0774 32.0051 38.2517C32.1794 38.426 32.4211 38.5264 32.6687 38.5264C32.9155 38.5264 33.1561 38.426 33.3315 38.2517C33.5059 38.0774 33.6062 37.8353 33.6062 37.5889C33.6062 37.3424 33.5062 37.1003 33.3315 36.926C33.1565 36.7517 32.9155 36.6514 32.6687 36.6514Z" fill="#2F2D2F"/>
<path d="M18.9219 27.8438C18.6754 27.8438 18.4337 27.9441 18.2594 28.1184C18.0847 28.2927 17.9844 28.5348 17.9844 28.7812C17.9844 29.0277 18.0847 29.2698 18.2594 29.4441C18.4337 29.6184 18.6754 29.7187 18.9219 29.7187C19.1687 29.7187 19.4104 29.6184 19.5847 29.4441C19.7601 29.2698 19.8594 29.0277 19.8594 28.7812C19.8594 28.5348 19.7601 28.2927 19.5847 28.1184C19.4104 27.9441 19.1694 27.8438 18.9219 27.8438Z" fill="#2F2D2F"/>
<path d="M13.4531 25.0781C13.2067 25.0781 12.9646 25.1785 12.7903 25.3528C12.616 25.5271 12.5156 25.7692 12.5156 26.0156C12.5156 26.2621 12.616 26.5041 12.7903 26.6785C12.9646 26.8528 13.2067 26.9531 13.4531 26.9531C13.6996 26.9531 13.9416 26.8528 14.116 26.6785C14.2903 26.5041 14.3906 26.2621 14.3906 26.0156C14.3906 25.7692 14.2903 25.5271 14.116 25.3528C13.9416 25.1785 13.6996 25.0781 13.4531 25.0781Z" fill="#2F2D2F"/>
<path d="M25.9687 25.0781C25.7223 25.0781 25.4802 25.1785 25.3059 25.3528C25.1316 25.5271 25.0312 25.7692 25.0312 26.0156C25.0312 26.2621 25.1316 26.5041 25.3059 26.6785C25.4802 26.8528 25.7223 26.9531 25.9687 26.9531C26.2152 26.9531 26.4573 26.8528 26.6316 26.6785C26.8059 26.5041 26.9062 26.2621 26.9062 26.0156C26.9062 25.7692 26.8059 25.5271 26.6316 25.3528C26.4573 25.1785 26.2152 25.0781 25.9687 25.0781Z" fill="#2F2D2F"/>
<path d="M33 22.2188C32.7535 22.2188 32.5115 22.3191 32.3372 22.4934C32.1628 22.6677 32.0625 22.9098 32.0625 23.1562C32.0625 23.4027 32.1628 23.6448 32.3372 23.8191C32.5115 23.9934 32.7535 24.0937 33 24.0937C33.2465 24.0937 33.4885 23.9934 33.6628 23.8191C33.8372 23.6448 33.9375 23.4027 33.9375 23.1562C33.9375 22.9098 33.8372 22.6677 33.6628 22.4934C33.4885 22.3191 33.2465 22.2188 33 22.2188Z" fill="#2F2D2F"/>
<path d="M21.0469 24.2305C20.8004 24.2305 20.5583 24.3308 20.384 24.5051C20.2097 24.6794 20.1094 24.9211 20.1094 25.168C20.1094 25.4144 20.2097 25.6561 20.384 25.8308C20.5583 26.0051 20.8004 26.1055 21.0469 26.1055C21.2933 26.1055 21.5354 26.0051 21.7097 25.8308C21.884 25.6561 21.9844 25.4144 21.9844 25.168C21.9844 24.9211 21.884 24.6794 21.7097 24.5051C21.5354 24.3308 21.2933 24.2305 21.0469 24.2305Z" fill="#2F2D2F"/>
</g>
<defs>
<clipPath id="clip0_3032_3538">
<rect width="48" height="48" fill="white"/>
</clipPath>
</defs>
</svg>
