<svg width="48" height="48" viewBox="0 0 48 48" fill="none" xmlns="http://www.w3.org/2000/svg">
<path d="M32.5024 12.2473C31.1643 11.0407 29.5838 10.134 27.8668 9.58783C26.1498 9.04164 24.3359 8.86859 22.5466 9.08027C19.8458 9.38872 17.3145 10.5527 15.3225 12.4023C13.3304 14.2518 11.982 16.6899 11.4743 19.3603C10.9665 22.0308 11.3261 24.7936 12.5004 27.2452C13.6746 29.6967 15.6021 31.7085 18.0012 32.9866V40.4998C18.0016 40.8975 18.1598 41.2788 18.441 41.56C18.7222 41.8412 19.1035 41.9994 19.5012 41.9998H21.0012V43.4998C21.0016 43.8975 21.1598 44.2788 21.441 44.56C21.7222 44.8412 22.1035 44.9994 22.5012 44.9998H25.5012C25.8989 44.9994 26.2802 44.8412 26.5614 44.56C26.8426 44.2788 27.0008 43.8975 27.0012 43.4998V41.9998H28.5012C28.8989 41.9994 29.2802 41.8412 29.5614 41.56C29.8426 41.2788 30.0008 40.8975 30.0012 40.4998V32.987C31.8114 32.0229 33.362 30.6359 34.5212 28.9441C35.6805 27.2522 36.414 25.3055 36.6596 23.2693C36.9052 21.2332 36.6555 19.1678 35.9317 17.2489C35.2079 15.3299 34.0315 13.6141 32.5024 12.2473ZM28.5012 35.9998V37.4998H19.5012V35.9998H28.5012ZM25.5023 43.4998H22.5012V41.9998H25.5016L25.5023 43.4998ZM26.2512 40.4998H19.5012V38.9998H28.5012V40.4998H26.2512ZM28.9223 31.8539C28.796 31.9155 28.6895 32.0113 28.6151 32.1304C28.5406 32.2496 28.5012 32.3872 28.5012 32.5277V34.4998H24.7512V31.0604L26.7814 29.03C26.9181 28.8886 26.9937 28.6991 26.992 28.5025C26.9902 28.3058 26.9114 28.1177 26.7723 27.9787C26.6333 27.8396 26.4451 27.7607 26.2485 27.759C26.0518 27.7573 25.8624 27.8329 25.7209 27.9695L24.0012 29.6892L22.2814 27.9695C22.14 27.8329 21.9505 27.7573 21.7539 27.759C21.5572 27.7607 21.3691 27.8396 21.2301 27.9787C21.091 28.1177 21.0121 28.3058 21.0104 28.5025C21.0087 28.6991 21.0843 28.8886 21.2209 29.03L23.2512 31.0604V34.4998H19.5012V32.5277C19.5012 32.3872 19.4618 32.2496 19.3873 32.1304C19.3128 32.0113 19.2064 31.9155 19.0801 31.8539C16.8907 30.7906 15.1055 29.0456 13.9928 26.8809C12.8801 24.7162 12.4998 22.2489 12.9093 19.8497C13.3188 17.4505 14.4958 15.2489 16.2635 13.5759C18.0312 11.9028 20.2941 10.8485 22.7122 10.5716C23.1453 10.5232 23.5808 10.4988 24.0166 10.4987C26.7812 10.4904 29.4498 11.5122 31.5019 13.3648C32.8776 14.5943 33.9293 16.1435 34.5644 17.8758C35.1995 19.608 35.3983 21.47 35.1434 23.2973C34.8884 25.1246 34.1875 26.861 33.1026 28.3532C32.0176 29.8455 30.5819 31.0479 28.9223 31.8539Z" fill="#2F2D2F"/>
<path d="M24 7.5C24.1989 7.5 24.3897 7.42098 24.5303 7.28033C24.671 7.13968 24.75 6.94891 24.75 6.75V3.75C24.75 3.55109 24.671 3.36032 24.5303 3.21967C24.3897 3.07902 24.1989 3 24 3C23.8011 3 23.6103 3.07902 23.4697 3.21967C23.329 3.36032 23.25 3.55109 23.25 3.75V6.75C23.25 6.94891 23.329 7.13968 23.4697 7.28033C23.6103 7.42098 23.8011 7.5 24 7.5Z" fill="#2F2D2F"/>
<path d="M12.8621 11.6736C12.9313 11.7452 13.0141 11.8024 13.1056 11.8417C13.1971 11.881 13.2955 11.9017 13.3951 11.9025C13.4947 11.9034 13.5934 11.8844 13.6856 11.8467C13.7778 11.809 13.8615 11.7533 13.9319 11.6829C14.0024 11.6125 14.058 11.5287 14.0958 11.4366C14.1335 11.3444 14.1524 11.2456 14.1516 11.1461C14.1507 11.0465 14.13 10.9481 14.0907 10.8566C14.0514 10.7651 13.9943 10.6823 13.9226 10.6131L11.8012 8.49166C11.732 8.42003 11.6492 8.36289 11.5577 8.32359C11.4662 8.28428 11.3678 8.26359 11.2682 8.26272C11.1687 8.26186 11.0699 8.28083 10.9777 8.31855C10.8855 8.35626 10.8018 8.41195 10.7314 8.48237C10.661 8.55278 10.6053 8.63652 10.5676 8.7287C10.5299 8.82087 10.5109 8.91963 10.5117 9.01921C10.5126 9.1188 10.5333 9.21721 10.5726 9.30871C10.6119 9.40022 10.6691 9.48298 10.7407 9.55216L12.8621 11.6736Z" fill="#2F2D2F"/>
<path d="M9 21H6C5.80109 21 5.61032 21.079 5.46967 21.2197C5.32902 21.3603 5.25 21.5511 5.25 21.75C5.25 21.9489 5.32902 22.1397 5.46967 22.2803C5.61032 22.421 5.80109 22.5 6 22.5H9C9.19891 22.5 9.38968 22.421 9.53033 22.2803C9.67098 22.1397 9.75 21.9489 9.75 21.75C9.75 21.5511 9.67098 21.3603 9.53033 21.2197C9.38968 21.079 9.19891 21 9 21Z" fill="#2F2D2F"/>
<path d="M12.8621 31.8263L10.7407 33.9477C10.6691 34.0169 10.6119 34.0996 10.5726 34.1912C10.5333 34.2827 10.5126 34.3811 10.5117 34.4807C10.5109 34.5802 10.5299 34.679 10.5676 34.7712C10.6053 34.8633 10.661 34.9471 10.7314 35.0175C10.8018 35.0879 10.8855 35.1436 10.9777 35.1813C11.0699 35.219 11.1687 35.238 11.2682 35.2371C11.3678 35.2363 11.4662 35.2156 11.5577 35.1763C11.6492 35.137 11.732 35.0798 11.8012 35.0082L13.9226 32.8868C14.0593 32.7453 14.1348 32.5559 14.1331 32.3592C14.1314 32.1626 14.0526 31.9744 13.9135 31.8354C13.7744 31.6963 13.5863 31.6175 13.3897 31.6158C13.193 31.614 13.0036 31.6896 12.8621 31.8263Z" fill="#2F2D2F"/>
<path d="M36.1981 8.49166L34.0766 10.6131C34.005 10.6823 33.9479 10.7651 33.9085 10.8566C33.8692 10.9481 33.8485 11.0465 33.8477 11.1461C33.8468 11.2456 33.8658 11.3444 33.9035 11.4366C33.9412 11.5287 33.9969 11.6125 34.0673 11.6829C34.1377 11.7533 34.2215 11.809 34.3137 11.8467C34.4058 11.8844 34.5046 11.9034 34.6042 11.9025C34.7038 11.9017 34.8022 11.881 34.8937 11.8417C34.9852 11.8024 35.0679 11.7452 35.1371 11.6736L37.2586 9.55216C37.3302 9.48298 37.3873 9.40022 37.4266 9.30871C37.466 9.21721 37.4866 9.1188 37.4875 9.01921C37.4884 8.91963 37.4694 8.82087 37.4317 8.7287C37.394 8.63652 37.3383 8.55278 37.2679 8.48237C37.1974 8.41195 37.1137 8.35626 37.0215 8.31855C36.9294 8.28083 36.8306 8.26186 36.731 8.26272C36.6314 8.26359 36.533 8.28428 36.4415 8.32359C36.35 8.36289 36.2673 8.42003 36.1981 8.49166Z" fill="#2F2D2F"/>
<path d="M35.1382 31.8263C34.9968 31.6896 34.8073 31.614 34.6107 31.6158C34.414 31.6175 34.2259 31.6963 34.0869 31.8354C33.9478 31.9744 33.8689 32.1626 33.8672 32.3592C33.8655 32.5559 33.9411 32.7453 34.0777 32.8868L36.1992 35.0082C36.3406 35.1448 36.5301 35.2204 36.7267 35.2187C36.9234 35.217 37.1115 35.1381 37.2505 34.9991C37.3896 34.86 37.4685 34.6719 37.4702 34.4753C37.4719 34.2786 37.3963 34.0892 37.2597 33.9477L35.1382 31.8263Z" fill="#2F2D2F"/>
<path d="M42 21H39C38.8011 21 38.6103 21.079 38.4697 21.2197C38.329 21.3603 38.25 21.5511 38.25 21.75C38.25 21.9489 38.329 22.1397 38.4697 22.2803C38.6103 22.421 38.8011 22.5 39 22.5H42C42.1989 22.5 42.3897 22.421 42.5303 22.2803C42.671 22.1397 42.75 21.9489 42.75 21.75C42.75 21.5511 42.671 21.3603 42.5303 21.2197C42.3897 21.079 42.1989 21 42 21Z" fill="#2F2D2F"/>
</svg>
