<svg width="100" height="100" viewBox="0 0 100 100" fill="none" xmlns="http://www.w3.org/2000/svg">
<g clip-path="url(#clip0_4_206)">
<path d="M30.7016 83.4288V92.7743C30.7016 95.4289 29.3622 96.8453 26.9282 96.8453C24.4806 96.8453 23.1331 95.388 23.1331 92.661V83.439H19.7657V92.7743C19.7657 97.3676 22.3602 99.9998 26.8838 99.9998C31.4503 99.9998 34.069 97.3172 34.069 92.6397V83.4288H30.7016ZM43.0909 83.4288L35.7772 99.7454H39.2145L40.6263 96.5853L40.7273 96.3485H48.3252L49.8153 99.7453H53.346L46.1004 83.5253L46.0353 83.4287L43.0909 83.4288ZM63.1129 83.4288L59.3442 94.6557L55.6756 83.4371H52.092L57.8768 99.7556H60.6653L64.4416 89.0357L68.215 99.7556H71.0271L76.7977 83.4371H73.3057L69.6295 94.6557L65.8599 83.4288H63.1129ZM96.0662 83.4288V99.7314H99.3892V83.4288H96.0662ZM0.754028 83.4297V99.7547H4.12236V93.1244H11.7278V99.7547H15.097V83.4297H11.7278V90.0154H4.12236V83.4297H0.754028ZM79.5135 83.4408V99.7435H92.0501V96.771H82.8366V92.7288H88.9632V89.7553H82.8366V86.4133H91.729V83.4408H79.5135ZM44.5177 87.5601L46.9191 93.0259H46.9107L47.074 93.4029H41.9795L42.1409 93.0259H42.1381L44.5177 87.5601Z" fill="#232527"/>
<path d="M42.6982 -0.000765963C41.3622 0.115446 37.7518 0.923577 37.7518 0.923577H37.7503C29.6126 2.99201 27.6892 10.2541 27.6892 10.2541C27.2918 11.4753 27.1113 12.7267 27.0582 13.9058V15.5106C27.1662 17.99 27.7269 19.8413 27.7269 19.8413C30.4452 31.6943 43.8105 51.1704 46.6829 55.2618C46.8867 55.4605 47.0499 55.3888 47.0499 55.3888C47.36 55.3046 47.3357 55.0121 47.3357 55.0121L47.3416 55.0136C51.7658 11.5263 42.6983 -0.000723843 42.6983 -0.000723843L42.6982 -0.000765963ZM57.3171 -0.000765963C57.3171 -0.000765963 48.2099 11.5324 52.6375 55.045H52.6434C52.6777 55.3212 52.877 55.3788 52.877 55.3788C53.1733 55.4917 53.3252 55.2117 53.3252 55.2117L53.3267 55.2145C56.2728 51.0187 69.5619 31.6486 72.2682 19.8411C72.2682 19.8411 73.7355 14.1262 72.319 10.2539C72.319 10.2539 70.3072 2.87933 62.1592 0.930506C62.1592 0.930506 59.8111 0.344318 57.3172 -0.000976562L57.3171 -0.000765963ZM15.3101 13.0542C15.3101 13.0542 7.55636 20.2912 7.17098 27.9636H7.17406V29.1262C7.17996 29.2137 7.18445 29.3023 7.19007 29.3914C7.52407 35.5782 12.2569 39.2397 12.2569 39.2397C19.8825 46.5483 38.3469 55.7756 42.6376 57.8693C42.6977 57.8914 42.9193 57.9626 43.0495 57.8009C43.0495 57.8009 43.1172 57.7503 43.1482 57.6595V57.4669C43.1451 57.4558 43.1392 57.4448 43.1336 57.4326H43.135C31.385 32.1904 15.3103 13.0539 15.3103 13.0539L15.3101 13.0542ZM84.6863 13.0542C84.6863 13.0542 68.6602 32.1306 56.9153 57.3216L56.9197 57.3201C56.9197 57.3201 56.781 57.6122 57.0053 57.8009C57.0053 57.8009 57.0722 57.8505 57.1649 57.8707H57.3273C57.3565 57.8624 57.3879 57.8514 57.4187 57.8307V57.8334C61.8259 55.6825 80.1474 46.5157 87.737 39.2409C87.737 39.2409 92.5434 35.4454 92.7952 29.3513C93.3501 20.8872 84.6865 13.0539 84.6865 13.0539L84.6863 13.0542ZM99.1108 38.1143C99.1108 38.1143 72.9832 51.9026 59.474 60.8635L59.4755 60.865L59.4786 60.8677C59.4786 60.8677 59.2335 61.0256 59.319 61.3085C59.319 61.3085 59.4472 61.5368 59.6338 61.5368V61.5383C64.4726 61.5466 82.7827 61.5667 83.2418 61.4825C83.2418 61.4825 85.6094 61.3895 88.5349 60.2843C88.5349 60.2843 95.0478 58.2481 98.4307 50.9766C98.4307 50.9766 99.9764 47.9361 99.9987 43.6646V43.4835C99.9875 41.8362 99.7515 40.0126 99.111 38.1143H99.1108ZM0.878415 38.1786C-1.4988 45.4156 1.70153 51.247 1.70669 51.2564C5.04183 58.1862 11.4081 60.2859 11.4081 60.2859C14.3473 61.4734 17.2872 61.5555 17.2872 61.5555C17.7463 61.638 35.5686 61.5637 40.344 61.5417C40.5461 61.5402 40.6573 61.3404 40.6573 61.3404C40.6713 61.3183 40.6837 61.2962 40.6892 61.2761V61.095C40.6497 60.9738 40.5442 60.8883 40.5442 60.8883L40.5473 60.8868C27.0449 51.9289 0.878629 38.179 0.878629 38.179L0.878415 38.1786ZM39.7986 63.7665L9.06251 64.8263C12.3957 70.6695 18.0092 75.2106 23.8568 73.8159C27.8923 72.8238 37.0344 66.553 40.0524 64.434L40.0423 64.4258C40.277 64.2185 40.1931 64.052 40.1931 64.052C40.116 63.7807 39.7986 63.781 39.7986 63.781L39.7986 63.7665ZM60.1558 63.7885L60.1527 63.7996C60.1527 63.7996 59.8829 63.8333 59.8075 64.032C59.8075 64.032 59.7419 64.3036 59.9235 64.4385L59.9204 64.4413C62.8631 66.5164 71.7837 72.6494 76.0812 73.8403C76.0812 73.8403 76.7322 74.0581 77.8233 74.097H78.479C81.3583 73.9976 86.3742 72.543 90.9321 64.842L60.1558 63.7885Z" fill="#CF0A2C"/>
</g>
<defs>
<clipPath id="clip0_4_206">
<rect width="100" height="100" fill="white"/>
</clipPath>
</defs>
</svg>
