<svg width="189" height="25" viewBox="0 0 189 25" fill="none" xmlns="http://www.w3.org/2000/svg">
<path d="M55.6026 1.96444C53.5851 0.951204 51.2448 0.454926 48.5817 0.454926H37.9897V24.483H48.5817C51.2448 24.483 53.5851 23.9868 55.6026 22.9735C57.6201 21.9603 59.1736 20.5749 60.3034 18.7552C61.4332 16.9562 61.9981 14.847 61.9981 12.469C61.9981 10.0703 61.4332 7.98181 60.3034 6.1828C59.1937 4.36311 57.6201 2.95699 55.6026 1.96444ZM56.692 16.8114C55.9456 18.0521 54.9166 19.024 53.5649 19.7271C52.2132 20.4301 50.6597 20.761 48.8641 20.761H42.1055V4.17701H48.8641C50.6597 4.17701 52.2333 4.52854 53.5649 5.21092C54.9166 5.91398 55.9456 6.86518 56.692 8.10588C57.4385 9.34657 57.8017 10.794 57.8017 12.469C57.8017 14.1232 57.4385 15.5707 56.692 16.8114Z" fill="black"/>
<path d="M69.6039 0.454926H65.468V24.483H69.6039V0.454926Z" fill="black"/>
<path d="M92.3211 12.0141C91.1106 11.5178 89.4361 11.1042 87.3379 10.8147L82.2134 10.0703C80.5187 9.84284 79.3486 9.49131 78.6626 9.03639C77.9767 8.58146 77.6539 7.91976 77.6539 7.07195C77.6539 5.95533 78.2188 5.08684 79.3687 4.44582C80.5187 3.80479 82.052 3.49462 83.9687 3.49462C85.3204 3.49462 86.4906 3.68072 87.4993 4.03225C88.5081 4.38378 89.2949 4.88006 89.9001 5.47973C90.4852 6.10007 90.8484 6.84449 90.9492 7.6923H95.1255C95.0448 6.16211 94.5202 4.81802 93.5518 3.68072C92.5834 2.54342 91.2922 1.65425 89.658 1.01323C88.0239 0.3722 86.1677 0.062027 84.0695 0.062027C81.9512 0.062027 80.0951 0.351522 78.5012 0.951191C76.9074 1.53018 75.6969 2.37799 74.8294 3.45326C73.9618 4.52853 73.5382 5.81058 73.5382 7.27873C73.5382 9.22249 74.1838 10.732 75.4548 11.7866C76.746 12.8412 78.8038 13.5649 81.6284 13.9578L86.6923 14.6402C88.5484 14.8677 89.8194 15.2192 90.5457 15.6948C91.2519 16.1704 91.615 16.8734 91.615 17.804C91.615 18.9619 91.0098 19.8718 89.7791 20.5335C88.5484 21.2159 86.8739 21.5467 84.7757 21.5467C83.3634 21.5467 82.1126 21.3399 81.0231 20.9471C79.9337 20.5542 79.0661 19.9959 78.4205 19.2721C77.7547 18.5484 77.3714 17.7006 77.2504 16.7494H73.054C73.1347 18.4036 73.6794 19.8304 74.6881 21.0711C75.6969 22.3118 77.0486 23.2837 78.7635 23.9661C80.4784 24.6485 82.4757 25 84.7151 25C86.9142 25 88.851 24.6898 90.5054 24.0488C92.1597 23.4284 93.4509 22.5186 94.3588 21.3813C95.2667 20.2233 95.7307 18.8792 95.7307 17.349C95.7307 16.0256 95.4685 14.9504 94.9439 14.1026C94.4193 13.172 93.5518 12.5103 92.3211 12.0141Z" fill="black"/>
<path d="M118.266 10.5252H103.317V0.454926H99.2008V24.483H103.317V14.2266H118.266V24.483H122.382V0.454926H118.266V10.5252Z" fill="black"/>
<path d="M131.239 0.454926H127.103V24.483H131.239V0.454926Z" fill="black"/>
<path d="M153.552 1.96444C151.535 0.951204 149.195 0.454926 146.531 0.454926H135.94V24.483H146.531C149.195 24.483 151.535 23.9868 153.552 22.9735C155.57 21.9603 157.123 20.5749 158.253 18.7552C159.383 16.9562 159.948 14.847 159.948 12.469C159.948 10.0703 159.383 7.98181 158.253 6.1828C157.123 4.36311 155.57 2.95699 153.552 1.96444ZM154.642 16.8114C153.895 18.0521 152.866 19.024 151.515 19.7271C150.163 20.4301 148.61 20.761 146.814 20.761H140.055V4.17701H146.814C148.61 4.17701 150.183 4.52854 151.515 5.21092C152.866 5.91398 153.895 6.86518 154.642 8.10588C155.388 9.34657 155.751 10.794 155.751 12.469C155.751 14.1232 155.388 15.5707 154.642 16.8114Z" fill="black"/>
<path d="M187.305 5.95533C186.175 4.09429 184.602 2.62613 182.584 1.59222C180.567 0.537632 178.226 0.0206757 175.543 0.0206757C172.88 0.0206757 170.54 0.537632 168.502 1.59222C166.485 2.64681 164.911 4.09429 163.781 5.95533C162.651 7.81637 162.086 9.98759 162.086 12.469C162.086 14.9504 162.651 17.1216 163.781 18.9826C164.911 20.8437 166.485 22.3118 168.502 23.3457C170.52 24.4003 172.86 24.9173 175.543 24.9173C178.206 24.9173 180.547 24.4003 182.584 23.3457C184.602 22.2911 186.175 20.8437 187.305 18.9826C188.435 17.1216 189 14.9504 189 12.469C188.98 9.98759 188.435 7.81637 187.305 5.95533ZM183.654 17.0802C182.887 18.383 181.818 19.3962 180.446 20.0993C179.074 20.8023 177.44 21.1538 175.543 21.1538C173.667 21.1538 172.033 20.8023 170.661 20.0993C169.269 19.3962 168.199 18.383 167.433 17.0802C166.666 15.7775 166.283 14.2473 166.283 12.469C166.283 10.6906 166.666 9.16046 167.433 7.85773C168.199 6.555 169.269 5.54177 170.661 4.83871C172.053 4.13565 173.687 3.78412 175.543 3.78412C177.44 3.78412 179.074 4.13565 180.446 4.83871C181.818 5.54177 182.887 6.555 183.654 7.85773C184.42 9.16046 184.804 10.6906 184.804 12.469C184.804 14.2473 184.42 15.7775 183.654 17.0802Z" fill="black"/>
<path d="M0 0V12.469H12.1656C12.1454 5.58313 6.69812 0 0 0Z" fill="black"/>
<path d="M12.1454 0V12.469H24.311C24.311 5.58313 18.8637 0 12.1454 0Z" fill="#0070EA"/>
<path d="M0 12.469V24.938H12.1656C12.1454 18.0521 6.69812 12.469 0 12.469Z" fill="black"/>
<path d="M12.1454 12.469V24.938H24.311C24.311 18.0521 18.8637 12.469 12.1454 12.469Z" fill="black"/>
</svg>
