<svg width="361" height="196" viewBox="0 0 361 196" fill="none" xmlns="http://www.w3.org/2000/svg">
<g clip-path="url(#clip0_404_20560)">
<path d="M181 28.7332C160.97 28.7332 144.733 44.9704 144.733 64.9999C144.733 85.0294 160.97 101.267 181 101.267C201.029 101.267 217.267 85.0294 217.267 64.9999C217.244 44.9797 201.02 28.7557 181 28.7332ZM181 96.9999C163.327 96.9999 149 82.6729 149 64.9999C149 47.3269 163.327 32.9999 181 32.9999C198.673 32.9999 213 47.3269 213 64.9999C212.98 82.6649 198.665 96.9802 181 96.9999Z" fill="#38B1DC"/>
<path d="M200.757 52.2622C200.018 52.0657 199.229 52.2805 198.692 52.825L174.6 76.9167L163.308 65.625C162.474 64.801 161.13 64.8052 160.301 65.6345C159.472 66.4637 159.467 67.8072 160.291 68.6417L173.091 81.4418C173.491 81.842 174.034 82.0668 174.6 82.0668C175.166 82.0668 175.708 81.842 176.108 81.4418L201.708 55.8417C202.252 55.304 202.467 54.5157 202.271 53.7762C202.075 53.0365 201.497 52.4587 200.757 52.2622Z" fill="#38B1DC"/>
</g>
<path d="M92.3107 146.5H92.2781C91.4433 146.5 90.7803 147.178 90.7803 148.016C90.7803 148.854 91.4729 149.532 92.3107 149.532C93.1454 149.532 93.8263 148.854 93.8263 148.016C93.8263 147.178 93.1454 146.5 92.3107 146.5Z" fill="#38B1DC" stroke="white" stroke-width="1.5"/>
<path d="M122.623 131.344H122.591C121.756 131.344 121.093 132.022 121.093 132.859C121.093 133.697 121.785 134.375 122.623 134.375C123.458 134.375 124.139 133.697 124.139 132.859C124.139 132.022 123.458 131.344 122.623 131.344Z" fill="#38B1DC" stroke="white" stroke-width="1.5"/>
<path d="M174.154 170.75H174.122C173.287 170.75 172.624 171.428 172.624 172.266C172.624 173.103 173.317 173.782 174.154 173.782C174.989 173.782 175.67 173.103 175.67 172.266C175.67 171.428 174.989 170.75 174.154 170.75Z" fill="#38B1DC" stroke="white" stroke-width="1.5"/>
<path d="M198.404 191.969H198.372C197.537 191.969 196.874 192.647 196.874 193.484C196.874 194.322 197.567 195 198.404 195C199.239 195 199.92 194.322 199.92 193.484C199.92 192.647 199.239 191.969 198.404 191.969Z" fill="#38B1DC" stroke="white" stroke-width="1.5"/>
<path d="M249.936 182.875H249.903C249.069 182.875 248.406 183.553 248.406 184.391C248.406 185.229 249.098 185.906 249.936 185.906C250.771 185.906 251.451 185.229 251.451 184.391C251.451 183.553 250.77 182.875 249.936 182.875Z" fill="#38B1DC" stroke="white" stroke-width="1.5"/>
<path d="M343.409 172.411H343.376C342.542 172.411 341.879 173.089 341.879 173.927C341.879 174.764 342.571 175.442 343.409 175.442C344.244 175.442 344.925 174.764 344.925 173.927C344.925 173.089 344.243 172.411 343.409 172.411Z" fill="#38B1DC" stroke="white" stroke-width="1.5"/>
<path d="M276.971 42.1917H276.938C276.103 42.1917 275.44 42.8695 275.44 43.7073C275.44 44.5451 276.132 45.2229 276.971 45.2229C277.805 45.2229 278.486 44.5451 278.486 43.7073C278.486 42.8695 277.805 42.1917 276.971 42.1917Z" fill="#38B1DC" stroke="white" stroke-width="1.5"/>
<path d="M57.724 24.9176H57.6914C56.8566 24.9176 56.1936 25.5954 56.1936 26.4332C56.1936 27.271 56.8858 27.9488 57.724 27.9488C58.5587 27.9488 59.2396 27.271 59.2396 26.4332C59.2396 25.5954 58.5584 24.9176 57.724 24.9176Z" fill="#38B1DC" stroke="white" stroke-width="1.5"/>
<path d="M60.3815 108.63H60.3489C59.5141 108.63 58.8511 109.308 58.8511 110.146C58.8511 110.983 59.5433 111.661 60.3815 111.661C61.2162 111.661 61.8971 110.983 61.8971 110.146C61.8971 109.308 61.2158 108.63 60.3815 108.63Z" fill="#38B1DC" stroke="white" stroke-width="1.5"/>
<path d="M3.24437 12.9589H3.21177C2.37701 12.9589 1.71399 13.6367 1.71399 14.4745C1.71399 15.3123 2.4062 15.9901 3.24437 15.9901C4.07912 15.9901 4.75997 15.3123 4.75997 14.4745C4.75997 13.6367 4.07874 12.9589 3.24437 12.9589Z" fill="#38B1DC" stroke="white" stroke-width="1.5"/>
<path d="M21.8472 149.822H21.8145C20.9798 149.822 20.3168 150.5 20.3168 151.337C20.3168 152.175 21.009 152.853 21.8472 152.853C22.6819 152.853 23.3628 152.175 23.3628 151.337C23.3628 150.5 22.6815 149.822 21.8472 149.822Z" fill="#38B1DC" stroke="white" stroke-width="1.5"/>
<path d="M225.686 161.657H225.653C224.818 161.657 224.155 162.334 224.155 163.172C224.155 164.01 224.848 164.688 225.686 164.688C226.52 164.688 227.201 164.01 227.201 163.172C227.201 162.334 226.52 161.657 225.686 161.657Z" fill="#38B1DC" stroke="white" stroke-width="1.5"/>
<path d="M274.186 82.8441H274.153C273.319 82.8441 272.656 83.5219 272.656 84.3597C272.656 85.1975 273.348 85.8753 274.186 85.8753C275.021 85.8753 275.701 85.1975 275.701 84.3597C275.701 83.5219 275.021 82.8441 274.186 82.8441Z" fill="#38B1DC" stroke="white" stroke-width="1.5"/>
<path d="M207.499 22.2188H207.466C206.631 22.2188 205.968 22.8966 205.968 23.7343C205.968 24.5718 206.661 25.2499 207.499 25.2499C208.333 25.2499 209.014 24.5721 209.014 23.7343C209.014 22.8966 208.333 22.2188 207.499 22.2188Z" fill="#38B1DC" stroke="white" stroke-width="1.5"/>
<path d="M252.967 52.5312H252.934C252.1 52.5312 251.437 53.2091 251.437 54.0468C251.437 54.8846 252.129 55.5624 252.967 55.5624C253.801 55.5624 254.482 54.8846 254.482 54.0468C254.482 53.2091 253.801 52.5312 252.967 52.5312Z" fill="#38B1DC" stroke="white" stroke-width="1.5"/>
<path d="M107.467 16.1562H107.434C106.6 16.1562 105.937 16.8344 105.937 17.6718C105.937 18.5096 106.629 19.1874 107.467 19.1874C108.302 19.1874 108.983 18.5096 108.983 17.6718C108.983 16.8344 108.302 16.1562 107.467 16.1562Z" fill="#38B1DC" stroke="white" stroke-width="1.5"/>
<path d="M234.779 1H234.747C233.912 1 233.249 1.67781 233.249 2.5156C233.249 3.35338 233.942 4.03119 234.779 4.03119C235.614 4.03119 236.295 3.35338 236.295 2.5156C236.295 1.67781 235.614 1 234.779 1Z" fill="#38B1DC" stroke="white" stroke-width="1.5"/>
<path d="M274.186 155.594H274.153C273.319 155.594 272.656 156.272 272.656 157.109C272.656 157.947 273.348 158.625 274.186 158.625C275.021 158.625 275.701 157.947 275.701 157.109C275.701 156.272 275.021 155.594 274.186 155.594Z" fill="#38B1DC" stroke="white" stroke-width="1.5"/>
<path d="M116.561 49.5002H116.528C115.693 49.5002 115.03 50.1781 115.03 51.0158C115.03 51.8536 115.723 52.5314 116.561 52.5314C117.395 52.5314 118.076 51.8536 118.076 51.0158C118.076 50.1781 117.395 49.5002 116.561 49.5002Z" fill="#38B1DC" stroke="white" stroke-width="1.5"/>
<path d="M116.561 49.5002H116.528C115.693 49.5002 115.03 50.1781 115.03 51.0158C115.03 51.8536 115.723 52.5314 116.561 52.5314C117.395 52.5314 118.076 51.8536 118.076 51.0158C118.076 50.1781 117.395 49.5002 116.561 49.5002Z" fill="#38B1DC" stroke="white" stroke-width="1.5"/>
<path d="M98.2805 88.9066C97.4427 88.9066 96.7649 89.5844 96.7649 90.4222V102.547C96.7649 103.385 97.4427 104.063 98.2805 104.063C99.1183 104.063 99.7961 103.385 99.7961 102.547V90.4222C99.7961 89.5844 99.1179 88.9066 98.2805 88.9066Z" fill="#38B1DC" stroke="white" stroke-width="1.5"/>
<path d="M343.037 126.976C342.445 126.383 341.486 126.383 340.894 126.976L332.32 135.549C331.728 136.142 331.728 137.1 332.32 137.693C332.913 138.285 333.871 138.285 334.464 137.693L343.037 129.119C343.629 128.527 343.629 127.568 343.037 126.976Z" fill="#38B1DC" stroke="white" stroke-width="1.5"/>
<path d="M101.312 94.9688H95.2492C94.4118 94.9688 93.7336 95.6466 93.7336 96.4843C93.7336 97.3221 94.4118 97.9999 95.2492 97.9999H101.312C102.149 97.9999 102.828 97.3221 102.828 96.4843C102.828 95.6466 102.15 94.9688 101.312 94.9688Z" fill="#38B1DC" stroke="white" stroke-width="1.5"/>
<path d="M340.894 133.406L336.607 129.119C336.015 128.527 335.056 128.527 334.464 129.119C333.872 129.712 333.872 130.67 334.464 131.263L338.751 135.549C339.343 136.142 340.302 136.142 340.894 135.55C341.487 134.957 341.487 133.999 340.894 133.406Z" fill="#38B1DC" stroke="white" stroke-width="1.5"/>
<path d="M280.156 113.156C279.318 113.156 278.64 113.834 278.64 114.672V126.797C278.64 127.635 279.318 128.313 280.156 128.313C280.994 128.313 281.671 127.635 281.671 126.797V114.672C281.671 113.834 280.994 113.156 280.156 113.156Z" fill="#38B1DC" stroke="white" stroke-width="1.5"/>
<path d="M20.0596 105.716C19.4675 106.308 19.4675 107.267 20.0596 107.859L28.6334 116.433C29.2258 117.025 30.1846 117.025 30.7768 116.433C31.3692 115.84 31.3692 114.882 30.7768 114.289L22.203 105.716C21.6109 105.123 20.652 105.123 20.0596 105.716Z" fill="#38B1DC" stroke="white" stroke-width="1.5"/>
<path d="M344.536 65.3411C344.536 66.1785 345.214 66.8567 346.052 66.8567L358.177 66.8567C359.015 66.8567 359.692 66.1785 359.692 65.3411C359.692 64.5033 359.015 63.8255 358.177 63.8255L346.052 63.8255C345.214 63.8255 344.536 64.5033 344.536 65.3411Z" fill="#38B1DC" stroke="white" stroke-width="1.5"/>
<path d="M283.187 119.219H277.124C276.287 119.219 275.609 119.897 275.609 120.734C275.609 121.573 276.287 122.25 277.124 122.25H283.187C284.025 122.25 284.702 121.573 284.702 120.734C284.702 119.897 284.025 119.219 283.187 119.219Z" fill="#38B1DC" stroke="white" stroke-width="1.5"/>
<path d="M26.49 107.859L22.2033 112.146C21.6109 112.738 21.6111 113.697 22.2033 114.289C22.7959 114.882 23.7542 114.882 24.3467 114.289L28.6334 110.002C29.2258 109.41 29.2261 108.452 28.6334 107.859C28.0413 107.267 27.0824 107.267 26.49 107.859Z" fill="#38B1DC" stroke="white" stroke-width="1.5"/>
<path d="M350.599 62.31L350.599 68.3723C350.599 69.2101 351.277 69.8879 352.114 69.8879C352.952 69.8879 353.63 69.2101 353.63 68.3723L353.63 62.31C353.63 61.4722 352.952 60.7944 352.114 60.7944C351.277 60.7944 350.599 61.4722 350.599 62.31Z" fill="#38B1DC" stroke="white" stroke-width="1.5"/>
<path d="M149.812 1C148.974 1 148.296 1.67781 148.296 2.5156V14.6407C148.296 15.4785 148.974 16.1563 149.812 16.1563C150.65 16.1563 151.327 15.4782 151.327 14.6404V2.5156C151.327 1.67781 150.65 1 149.812 1Z" fill="#38B1DC" stroke="white" stroke-width="1.5"/>
<path d="M152.844 7.0625H146.782C145.944 7.0625 145.266 7.74031 145.266 8.5781C145.266 9.41588 145.944 10.0937 146.782 10.0937H152.844C153.682 10.0937 154.36 9.41588 154.36 8.5781C154.36 7.74031 153.682 7.0625 152.844 7.0625Z" fill="#38B1DC" stroke="white" stroke-width="1.5"/>
<path d="M63.7862 167.262H63.7536C62.9189 167.262 62.2559 167.94 62.2559 168.777C62.2559 169.615 62.9485 170.293 63.7862 170.293C64.621 170.293 65.3018 169.615 65.3018 168.777C65.3018 167.94 64.621 167.262 63.7862 167.262Z" fill="#38B1DC" stroke="white" stroke-width="1.5"/>
<path d="M57.7237 161.199H57.6911C56.8564 161.199 56.1934 161.877 56.1934 162.715C56.1934 163.552 56.886 164.231 57.7237 164.231C58.5585 164.231 59.2393 163.552 59.2393 162.715C59.2393 161.877 58.5585 161.199 57.7237 161.199Z" fill="#38B1DC" stroke="white" stroke-width="1.5"/>
<path d="M63.1899 149.822C55.6684 149.822 49.5496 155.941 49.5496 163.463C49.5496 170.984 55.6681 177.103 63.1899 177.103C70.7114 177.103 76.8303 170.984 76.8307 163.463C76.8307 155.941 70.7114 149.822 63.1899 149.822ZM63.1899 174.072C57.341 174.072 52.5808 169.312 52.5808 163.462C52.5808 157.613 57.3406 152.853 63.1899 152.853C69.0393 152.853 73.7991 157.613 73.7991 163.462C73.7991 169.311 69.0393 174.072 63.1899 174.072Z" fill="#38B1DC" stroke="white" stroke-width="1.5"/>
<path d="M66.7248 155.137C64.2175 155.137 62.178 157.176 62.178 159.684C62.178 162.191 64.2175 164.231 66.7248 164.231C69.2321 164.231 71.2716 162.191 71.2716 159.684C71.2716 157.176 69.2321 155.137 66.7248 155.137ZM66.7248 161.199C65.89 161.199 65.2092 160.518 65.2092 159.683C65.2092 158.848 65.89 158.168 66.7248 158.168C67.5595 158.168 68.2404 158.848 68.2404 159.683C68.2404 160.518 67.5595 161.199 66.7248 161.199Z" fill="#38B1DC" stroke="white" stroke-width="1.5"/>
<path d="M322.3 10.3013C314.778 10.3013 308.659 16.4201 308.659 23.942C308.659 31.4639 314.778 37.5828 322.3 37.5828C329.821 37.5828 335.94 31.4639 335.94 23.942C335.94 16.4201 329.821 10.3013 322.3 10.3013ZM322.3 34.5516C316.451 34.5516 311.69 29.7914 311.69 23.942C311.69 18.0927 316.45 13.3325 322.3 13.3325C328.149 13.3325 332.909 18.0927 332.909 23.942C332.909 29.7914 328.149 34.5516 322.3 34.5516Z" fill="#38B1DC" stroke="white" stroke-width="1.5"/>
<path d="M319.268 16.3635H311.8C310.962 16.3635 310.284 17.0417 310.284 17.8791C310.284 18.7169 310.962 19.3947 311.8 19.3947H319.268C320.106 19.3947 320.784 18.7169 320.784 17.8791C320.784 17.0417 320.106 16.3635 319.268 16.3635Z" fill="#38B1DC" stroke="white" stroke-width="1.5"/>
<path d="M323.815 22.4264C320.417 22.4264 317.753 24.4231 317.753 26.9732C317.753 29.5233 320.417 31.52 323.815 31.52C327.213 31.52 329.878 29.5233 329.878 26.9732C329.878 24.4231 327.214 22.4264 323.815 22.4264ZM323.815 28.4888C321.965 28.4888 320.784 27.5919 320.784 26.9732C320.784 26.3545 321.965 25.4576 323.815 25.4576C325.666 25.4576 326.847 26.3545 326.847 26.9732C326.847 27.5919 325.666 28.4888 323.815 28.4888Z" fill="#38B1DC" stroke="white" stroke-width="1.5"/>
<path d="M36.4838 63.5354C36.3429 63.3301 36.1906 63.1293 36.0383 62.9286C35.9266 62.7816 35.8149 62.6346 35.7086 62.4862C35.6622 62.4216 35.5883 62.3099 35.4968 62.1715C34.9691 61.3756 34.4243 60.5826 34.0708 60.3925C33.9686 60.3379 33.8409 60.3757 33.7863 60.4781C33.7313 60.5804 33.7699 60.7079 33.8721 60.7629C34.162 60.9187 34.8517 61.9595 35.1461 62.4038C35.2418 62.5478 35.3186 62.6638 35.367 62.7315C35.4754 62.8827 35.5891 63.0326 35.7033 63.1828C35.8515 63.3781 36.0002 63.574 36.1377 63.7736C36.6833 64.5651 36.8825 65.2294 36.7297 65.7492C36.6571 65.996 36.4982 66.2214 36.242 66.4386C36.1783 66.4932 35.7123 66.8451 35.5817 66.9185C35.5485 66.9251 35.5165 66.9399 35.4886 66.9629C35.3994 67.0376 35.3876 67.1698 35.4619 67.2593C35.498 67.3029 35.5539 67.3312 35.6101 67.3357C35.6129 67.3361 35.6154 67.3361 35.6183 67.3361C35.8281 67.3361 36.5105 66.7621 36.5154 66.7576C36.8303 66.4907 37.0381 66.191 37.1329 65.8675C37.3259 65.2113 37.1136 64.4485 36.4838 63.5354Z" fill="#38B1DC"/>
<path d="M41.5924 54.1506C37.1878 54.1506 33.6044 57.7341 33.6044 62.1387C33.6044 66.5434 37.1878 70.1268 41.5924 70.1268C45.9971 70.1268 49.5806 66.5434 49.5806 62.1387C49.5806 57.7341 45.997 54.1506 41.5924 54.1506ZM41.5924 69.7064C37.4198 69.7064 34.0248 66.3118 34.0248 62.1388C34.0248 57.9659 37.4198 54.5711 41.5924 54.5711C45.7651 54.5711 49.1602 57.9659 49.1602 62.1388C49.1602 66.3119 45.7651 69.7064 41.5924 69.7064Z" fill="#38B1DC"/>
<path d="M49.0428 59.2681C49.0277 59.1523 48.9184 59.0724 48.8068 59.087C48.4742 59.1305 47.5792 59.6251 47.5369 59.9464C47.5258 60.0322 47.4963 60.0519 47.4864 60.0585C47.3611 60.144 46.9625 60.0373 46.6726 59.9597C46.1926 59.8315 45.6958 59.6986 45.4556 60.0254C45.3374 60.1867 45.3444 60.4227 45.4741 60.6567C45.7012 61.065 46.3051 61.4735 47.3582 61.4212C47.3119 61.6665 47.0233 62.2458 46.4977 63.1478L46.4164 63.2882C46.2033 63.657 46.129 64.0511 46.0571 64.4321C45.9919 64.7795 45.9299 65.1079 45.7685 65.4027C45.6285 65.6581 45.4195 65.8724 45.1982 66.0999C45.0862 66.2144 44.9749 66.329 44.8727 66.448C44.5106 66.8685 44.1443 67.2405 43.5987 67.1961C43.3774 67.1768 43.2111 66.949 43.1044 66.5187C43.0104 66.1393 42.9808 65.7542 42.9496 65.3469C42.9159 64.9047 42.8806 64.4473 42.7558 63.9953C42.4663 62.95 41.6025 62.9496 40.84 62.9492L40.6188 62.9483C39.7455 62.9384 39.2044 62.4015 39.1715 61.5126C39.1403 60.6806 39.3661 60.0382 39.8436 59.6032C40.3811 59.1126 41.0462 59.0617 41.1234 59.0713L41.1936 59.0839C41.5035 59.1391 42.4466 59.3074 42.6519 59.4203C43.2752 59.765 43.9067 59.5858 44.2585 59.3281C44.5242 59.1335 44.6568 58.8891 44.6136 58.6745C44.49 58.0562 41.7191 57.6331 41.4892 57.6164C41.3734 57.6075 41.2363 57.6325 41.0926 57.6584C40.9424 57.6857 40.6627 57.7355 40.604 57.6715C40.5511 57.6134 40.6217 57.4447 40.7202 57.3147C41.2884 56.5658 42.1326 56.2314 43.026 55.8773C43.3557 55.7465 43.6969 55.6115 44.0204 55.4542C44.1173 55.4068 44.4417 55.2278 44.5328 54.9164C44.5656 54.8049 44.5015 54.6881 44.3903 54.6554C44.2774 54.6222 44.162 54.6871 44.1296 54.7981C44.0931 54.9227 43.9214 55.0346 43.836 55.0763C43.5273 55.2266 43.1934 55.3586 42.8711 55.4864C41.963 55.8461 41.0244 56.2181 40.3852 57.0606C40.131 57.3952 40.0957 57.7379 40.2928 57.9542C40.5071 58.1909 40.8733 58.125 41.1673 58.0722C41.279 58.0521 41.3935 58.0306 41.4592 58.0357C42.2561 58.0934 44.0364 58.5532 44.201 58.7552C44.2022 58.785 44.1426 58.9102 43.9485 59.0305C43.8229 59.1079 43.3749 59.3388 42.8547 59.0523C42.6211 58.9235 41.954 58.7924 41.2674 58.67L41.1973 58.6575C40.9739 58.6183 40.2008 58.7343 39.601 59.2563C39.188 59.6156 38.7051 60.3014 38.7511 61.5282C38.793 62.6507 39.507 63.3561 40.6138 63.3688L40.84 63.3696C41.6502 63.3701 42.1564 63.4058 42.3506 64.1079C42.4647 64.5201 42.4967 64.9373 42.5304 65.379C42.5616 65.7859 42.5941 66.2059 42.6963 66.6198C42.8511 67.2435 43.1426 67.5781 43.5626 67.615C43.6057 67.6187 43.648 67.6208 43.6899 67.6208C44.3587 67.6208 44.8144 67.1601 45.1916 66.7222C45.2881 66.6088 45.3936 66.5013 45.4992 66.3929C45.7304 66.1556 45.9696 65.9101 46.1372 65.6046C46.3306 65.2515 46.4016 64.8746 46.4706 64.5096C46.5387 64.1471 46.6033 63.8051 46.7802 63.4984L46.8611 63.3596C47.6859 61.9438 47.8973 61.4039 47.7302 61.1372C47.6674 61.0372 47.5586 60.9843 47.4297 60.9953C46.5737 61.061 46.0645 60.7825 45.8715 60.5004C45.7886 60.3793 45.7869 60.2906 45.7943 60.2744C45.8658 60.1783 46.3195 60.3005 46.5638 60.3658C47.0121 60.4859 47.4346 60.5994 47.7208 60.4076C47.807 60.3499 47.9146 60.2378 47.9495 60.0301C48.0484 59.9003 48.5986 59.5385 48.8618 59.5037C48.9767 59.4888 49.0576 59.3831 49.0428 59.2681Z" fill="#38B1DC"/>
<defs>
<clipPath id="clip0_404_20560">
<rect width="74" height="74" fill="white" transform="translate(144 28)"/>
</clipPath>
</defs>
</svg>
