<svg width="200" height="50" viewBox="0 0 200 50" fill="none" xmlns="http://www.w3.org/2000/svg">
<path d="M50 0H99V49H50V0Z" fill="#15008F"/>
<path d="M102.141 0H151.141V49H102.141V0Z" fill="#DD002E"/>
<path d="M64.9198 15.8299C65.5125 16.9598 66.4052 17.9044 67.4998 18.5599C67.7339 18.707 67.9066 18.9341 67.9857 19.199C68.0648 19.4639 68.0449 19.7485 67.9298 19.9999C67.6498 20.7099 67.0998 21.7399 67.3698 22.1699C67.7331 22.4311 68.1609 22.5878 68.6069 22.623C69.0529 22.6583 69.5 22.5707 69.8998 22.3699C70.0665 22.7334 70.2535 23.0873 70.4598 23.4299C70.3669 23.5345 70.2423 23.6059 70.1051 23.6329C69.9678 23.66 69.8255 23.6414 69.6998 23.5799C69.8274 23.6915 69.9064 23.8485 69.92 24.0175C69.9335 24.1864 69.8805 24.354 69.7722 24.4844C69.6639 24.6149 69.509 24.6979 69.3404 24.7157C69.1718 24.7335 69.003 24.6848 68.8698 24.5799C68.7763 24.5078 68.707 24.4088 68.6713 24.2962C68.6355 24.1836 68.635 24.0628 68.6698 23.9499C68.4877 24.2334 68.2222 24.4535 67.9098 24.5799C67.7429 24.4545 67.6194 24.2801 67.5567 24.0811C67.4939 23.882 67.495 23.6683 67.5598 23.4699C67.4213 23.7143 67.2283 23.9234 66.996 24.0812C66.7636 24.239 66.498 24.3412 66.2198 24.3799C66.0493 24.1266 65.9712 23.8224 65.9985 23.5183C66.0258 23.2142 66.1569 22.9288 66.3698 22.7099C66.1619 22.8652 65.9178 22.965 65.6607 23C65.4035 23.035 65.1417 23.004 64.8998 22.9099C64.8998 22.9099 64.7498 22.4299 65.6098 21.7199C65.327 21.7098 65.0512 21.6285 64.8082 21.4834C64.5652 21.3383 64.3628 21.1341 64.2198 20.8899C64.4222 20.7212 64.6572 20.596 64.9101 20.522C65.163 20.448 65.4284 20.4269 65.6898 20.4599C65.3885 20.3655 65.1186 20.1909 64.909 19.9549C64.6994 19.7188 64.5579 19.4302 64.4998 19.1199C64.7854 18.9911 65.1025 18.949 65.4118 18.9987C65.7211 19.0485 66.009 19.188 66.2398 19.3999C66.0572 19.1403 65.8458 18.9021 65.6098 18.6899C65.2677 18.3032 65.0266 17.8378 64.908 17.3353C64.7893 16.8328 64.7968 16.3088 64.9298 15.8099L64.9198 15.8299ZM68.8498 27.2899C68.6957 27.1294 68.5765 26.9387 68.4998 26.7299C68.6498 28.1199 68.6998 29.0299 69.4998 29.9399C69.795 29.3146 69.8485 28.6022 69.6498 27.9399C69.5115 27.863 69.3678 27.7961 69.2198 27.7399C69.322 28.1279 69.3492 28.5318 69.2998 28.9299C69.0739 28.4153 68.9289 27.8688 68.8698 27.3099L68.8498 27.2899ZM67.6098 27.1599C67.4557 26.9994 67.3365 26.8087 67.2598 26.5999C67.1798 27.4299 66.9798 29.5299 67.6898 30.1699C67.6898 30.1699 68.1698 29.8199 68.3198 26.7299C68.1698 26.8799 68.1198 27.0799 67.9698 27.2099C68.0415 27.7745 67.9728 28.3482 67.7698 28.8799C67.7698 28.8799 67.4198 28.6999 67.6198 27.1599H67.6098ZM65.9298 28.7799C66.5598 28.0699 66.6898 25.9199 66.6898 25.9199L66.9698 25.7199L67.0498 25.6399V25.8399C67.0487 26.9602 66.8594 28.0723 66.4898 29.1299C66.2048 29.5469 65.8242 29.8898 65.3798 30.1299C64.6698 28.9399 65.5298 27.3199 66.2098 26.1299L66.4898 25.9799C66.2098 26.9799 65.7298 27.9799 65.9298 28.7899V28.7799ZM64.2598 25.0699C64.2493 25.1701 64.278 25.2704 64.3398 25.3499V25.4299C63.6699 26.1265 63.061 26.8792 62.5198 27.6799C62.2636 28.0212 61.9374 28.3039 61.5632 28.5091C61.189 28.7143 60.7753 28.8373 60.3498 28.8699C60.44 27.9296 60.829 27.043 61.4598 26.3399C62.1475 25.5875 62.9192 24.9164 63.7598 24.3399C63.9816 24.4427 64.2307 24.4707 64.4698 24.4199H64.5498C64.4565 24.5128 64.4027 24.6382 64.3998 24.7699C63.3333 25.2593 62.4206 26.0303 61.7598 26.9999C61.6298 27.0999 62.5898 26.8199 64.2098 25.0799L64.2598 25.0699ZM63.1498 23.9699L63.2298 23.8899L63.3098 23.8099C62.7498 24.0099 60.7798 24.8099 60.1498 25.0699C59.6593 25.3424 59.2292 25.7115 58.8855 26.155C58.5417 26.5984 58.2914 27.107 58.1498 27.6499C58.577 27.6865 59.0073 27.6382 59.4157 27.5077C59.8242 27.3773 60.2028 27.1673 60.5298 26.8899C61.6398 25.9799 62.9098 24.7199 63.3898 24.3099L63.2398 24.1599C62.3186 24.9098 61.3115 25.5476 60.2398 26.0599C60.4741 25.6248 60.8191 25.2592 61.2398 24.9999C61.8432 24.5527 62.52 24.2143 63.2398 23.9999L63.1498 23.9699ZM61.9998 22.9999L62.0798 22.8499C61.4498 22.9999 59.8298 23.1999 59.0798 23.4099C58.481 23.5697 57.922 23.8522 57.4383 24.2395C56.9545 24.6269 56.5566 25.1106 56.2698 25.6599C56.2698 25.6599 57.3798 26.0099 59.5598 25.0299C60.588 24.489 61.6622 24.0406 62.7698 23.6899C62.5192 23.6899 62.2735 23.6207 62.0598 23.4899C61.0712 23.9715 59.9974 24.2535 58.8998 24.3199C59.2399 24.0746 59.6094 23.873 59.9998 23.7199C60.6288 23.3859 61.3023 23.1435 61.9998 22.9999ZM61.9998 21.9999C62.1998 22.0852 62.4128 22.1359 62.6298 22.1499C62.469 22.2433 62.3239 22.3614 62.1998 22.4999C60.8235 22.8455 59.4169 23.0565 57.9998 23.1299C56.9273 23.2812 55.8352 23.2132 54.7898 22.9299C55.6422 22.4432 56.5623 22.0859 57.5198 21.8699C58.2798 21.7199 60.3798 21.7199 61.3598 21.5899C61.447 21.6648 61.5407 21.7317 61.6398 21.7899C60.52 21.7967 59.4088 21.9858 58.3498 22.3499C59.5776 22.4899 60.821 22.3707 61.9998 21.9999ZM61.8698 20.7399C62.0081 20.663 62.1518 20.5961 62.2998 20.5399C60.7645 20.0091 59.1687 19.6732 57.5498 19.5399C56.4027 19.4006 55.2404 19.4513 54.1098 19.6899C55.0783 20.3262 56.1463 20.796 57.2698 21.0799C58.6155 21.2938 59.982 21.3442 61.3398 21.2299C61.4173 21.1014 61.5114 20.9837 61.6198 20.8799C60.32 20.8724 59.0276 20.6839 57.7798 20.3199C59.1593 20.2126 60.547 20.348 61.8798 20.7199L61.8698 20.7399ZM61.8798 19.4799C62.0205 19.9059 62.317 20.2631 62.7098 20.4799C61.1698 19.8499 58.2298 19.4199 56.6198 18.8099C54.4498 17.8999 54.0898 16.8099 54.0898 16.8099C55.637 16.8219 57.1727 17.0784 58.6398 17.5699C60.0298 17.9999 62.0798 18.7599 62.8398 19.1099C62.5401 19.1106 62.2487 19.2089 62.0098 19.3899C61.2498 19.0399 60.3898 18.8299 59.6298 18.5599C59.0693 18.3687 58.482 18.2674 57.8898 18.2599C58.416 18.5754 58.9762 18.8304 59.5598 19.0199C60.3398 19.2199 61.0998 19.3699 61.8898 19.5299L61.8798 19.4799ZM61.8098 17.9099C61.8898 18.0599 62.0098 18.2599 62.0898 18.3899C59.845 17.9132 57.8141 16.7242 56.2998 14.9999C55.7989 14.1542 55.6014 13.163 55.7398 12.1899C56.8447 12.691 57.8403 13.4045 58.6698 14.2899C59.5098 15.1814 60.423 16.0009 61.3998 16.7399L61.6798 17.5699C60.9198 16.9399 59.9398 16.2299 59.3798 15.7499C58.8225 15.3179 58.2105 14.9615 57.5598 14.6899C57.8969 15.1161 58.2681 15.5141 58.6698 15.8799C59.1877 16.308 59.7472 16.6832 60.3398 16.9999C60.7842 17.3739 61.2877 17.6713 61.8298 17.8799" fill="white"/>
<path d="M68.5602 24.4999L68.7602 24.2999C69.0402 24.6499 69.2402 25.0099 69.4702 25.3599C69.612 25.7725 69.7289 26.1933 69.8202 26.6199C69.8951 27.0381 70.0405 27.4405 70.2502 27.8099C70.0625 27.8134 69.8763 27.7769 69.7038 27.7028C69.5314 27.6286 69.3767 27.5186 69.2502 27.3799C68.9168 26.9525 68.6998 26.4461 68.6202 25.9099C68.4835 25.4492 68.4561 24.963 68.5402 24.4899L68.5602 24.4999ZM67.5402 24.5699L67.7402 24.7699L67.8202 24.8499H67.9002L68.1002 24.7699C68.1917 24.9429 68.243 25.1343 68.2502 25.3299C68.3257 25.6792 68.3257 26.0406 68.2502 26.3899C68.1557 26.6996 67.9915 26.9835 67.7702 27.2199C67.5671 26.9965 67.4047 26.7393 67.2902 26.4599C67.1382 26.0778 67.1382 25.652 67.2902 25.2699C67.3902 24.9699 67.4702 24.7599 67.5402 24.5599V24.5699ZM66.2802 24.6099C66.6058 24.5624 66.9167 24.4429 67.1902 24.2599C67.2401 24.3432 67.2729 24.4357 67.2866 24.5318C67.3004 24.628 67.2948 24.7259 67.2702 24.8199C67.1751 25.1088 67.0103 25.3699 66.7902 25.5799C66.5893 25.7535 66.3559 25.8853 66.1035 25.9677C65.8511 26.0501 65.5848 26.0815 65.3202 26.0599C65.2202 26.1099 65.0902 25.6799 66.3202 24.6199L66.2802 24.6099ZM65.8402 23.8599C65.8693 24.0929 65.9668 24.3121 66.1202 24.4899C65.9475 24.7708 65.6994 24.9975 65.4042 25.1443C65.1089 25.291 64.7784 25.3519 64.4502 25.3199C64.3722 25.1218 64.3734 24.9013 64.4534 24.704C64.5335 24.5067 64.6863 24.3477 64.8802 24.2599C65.2102 24.1299 65.4902 23.9799 65.8802 23.8599" fill="white"/>
<path d="M66 23.1598C65.6507 23.2353 65.2893 23.2353 64.94 23.1598H64.79V22.9998C64.23 23.4298 63.68 23.4798 63.45 23.9098C63.5615 24.066 63.7136 24.1887 63.8899 24.2645C64.0662 24.3403 64.2599 24.3664 64.45 24.3398C64.7499 24.3147 65.0415 24.2281 65.3065 24.0853C65.5714 23.9424 65.8041 23.7466 65.99 23.5098C65.9602 23.4563 65.9446 23.396 65.9446 23.3348C65.9446 23.2736 65.9602 23.2133 65.99 23.1598H66ZM64.8 22.5298C64.8703 22.3179 64.9903 22.1259 65.15 21.9698C64.6898 21.8941 64.2202 21.8941 63.76 21.9698C63.3978 21.967 63.0443 22.0813 62.7524 22.2958C62.4605 22.5102 62.2456 22.8133 62.14 23.1598C62.4738 23.3581 62.868 23.4292 63.25 23.3598C63.5504 23.3365 63.8426 23.2506 64.1078 23.1077C64.373 22.9647 64.6054 22.7679 64.79 22.5298H64.8ZM64.51 21.5298C64.3544 21.3529 64.2108 21.1658 64.08 20.9698L64 20.8598C63.4805 20.6071 62.8863 20.5537 62.33 20.7098C61.9865 20.8131 61.6918 21.0367 61.5 21.3398C61.8922 21.6367 62.3532 21.8294 62.84 21.8998C63.4178 21.9757 64.0045 21.8598 64.51 21.5698V21.5298ZM64.66 20.4298C64.74 20.3498 64.86 20.3498 65.01 20.3498C64.7193 20.062 64.5239 19.6921 64.45 19.2898C64.0805 19.3764 63.6933 19.3485 63.34 19.2098C63.144 19.1382 62.9338 19.1145 62.7268 19.1406C62.5198 19.1667 62.3221 19.2418 62.15 19.3598C62.2228 19.596 62.361 19.8069 62.5486 19.9679C62.7361 20.1289 62.9655 20.2336 63.21 20.2698C63.4216 20.4055 63.6621 20.4897 63.9122 20.5158C64.1622 20.5418 64.4149 20.509 64.65 20.4198L64.66 20.4298ZM64.34 18.9998L64.49 18.9198C64.663 18.8283 64.8544 18.777 65.05 18.7698C64.5909 18.3755 64.0991 18.0208 63.58 17.7098C62.9868 17.3658 62.3468 17.1098 61.68 16.9498C61.8681 17.523 62.1786 18.0485 62.59 18.4898C62.7978 18.7365 63.0736 18.9164 63.3831 19.0071C63.6926 19.0978 64.022 19.0953 64.33 18.9998H64.34ZM65.24 18.5198C65.0087 18.1849 64.8456 17.8077 64.76 17.4098C64.61 16.9298 64.48 16.3498 64.28 15.8698C63.9313 15.2323 63.3515 14.7528 62.66 14.5298C62.5057 15.2004 62.576 15.9031 62.86 16.5298C63.4778 17.3811 64.295 18.0678 65.24 18.5298V18.5198ZM70.7 23.5298C70.8246 23.6492 70.9704 23.7442 71.13 23.8098C71.2232 24.0237 71.2646 24.2565 71.2507 24.4894C71.2368 24.7223 71.168 24.9486 71.05 25.1498C70.7103 25.7537 70.4322 26.3902 70.22 27.0498C70.22 27.0498 70.02 27.0498 69.79 25.8598C69.7199 25.4181 69.5257 25.0054 69.23 24.6698C69.3599 24.7522 69.507 24.8035 69.66 24.8198H69.81L69.89 24.6698C70.014 24.455 70.0665 24.2064 70.04 23.9598V23.7598C70.1605 23.7848 70.2856 23.7766 70.4018 23.7361C70.518 23.6956 70.6211 23.6243 70.7 23.5298Z" fill="white"/>
<path d="M62.3898 15V15.63C61.8298 14.92 61.1298 14.01 60.3898 13.18C60.045 12.7204 59.6259 12.3216 59.1498 12C59.4327 12.8809 59.9392 13.6733 60.6198 14.3C61.1638 14.8526 61.7452 15.3672 62.3598 15.84L62.4398 16.04C62.5198 16.24 62.5898 16.47 62.6398 16.6C62.7909 16.8777 62.9793 17.1334 63.1998 17.36C62.9998 17.28 62.7698 17.16 62.5698 17.08H62.3898C60.6358 16.0855 59.1843 14.634 58.1898 12.88C57.6964 11.6613 57.6294 10.3116 57.9998 9.05C58.9079 9.8736 59.7289 10.7884 60.4498 11.78C61.1874 12.7959 61.8364 13.8731 62.3898 15ZM87.0898 20.74C86.9515 20.6631 86.8078 20.5962 86.6598 20.54C88.1951 20.0092 89.7909 19.6733 91.4098 19.54C92.5569 19.4007 93.7192 19.4514 94.8498 19.69C93.8813 20.3263 92.8133 20.7961 91.6898 21.08C90.3441 21.2939 88.9776 21.3443 87.6198 21.23C87.5423 21.1015 87.4482 20.9838 87.3398 20.88C88.6396 20.8725 89.932 20.684 91.1798 20.32C89.8003 20.2127 88.4126 20.3481 87.0798 20.72L87.0898 20.74ZM87.0798 19.48C86.9391 19.906 86.6426 20.2632 86.2498 20.48C87.7898 19.85 90.7298 19.42 92.3398 18.81C94.5098 17.9 94.8698 16.81 94.8698 16.81C93.3226 16.822 91.7869 17.0785 90.3198 17.57C88.9298 18 86.8798 18.76 86.1198 19.11C86.4195 19.1107 86.7109 19.209 86.9498 19.39C87.7098 19.04 88.5698 18.83 89.3298 18.56C89.8943 18.3876 90.4797 18.2934 91.0698 18.28C90.5436 18.5955 89.9834 18.8505 89.3998 19.04C88.6198 19.22 87.8598 19.37 87.0698 19.52L87.0798 19.48ZM87.2198 17.9C87.1398 18.05 87.0198 18.25 86.9398 18.38C89.2014 17.9161 91.2509 16.7299 92.7798 15C93.2807 14.1543 93.4782 13.1631 93.3398 12.19C92.2349 12.6911 91.2393 13.4046 90.4098 14.29C89.5759 15.1877 88.6621 16.0077 87.6798 16.74L87.3998 17.57C88.1598 16.94 89.1398 16.23 89.6998 15.75C90.2571 15.318 90.8691 14.9616 91.5198 14.69C91.1827 15.1162 90.8115 15.5141 90.4098 15.88C89.8887 16.3086 89.3259 16.6838 88.7298 17C88.262 17.3396 87.7631 17.6342 87.2398 17.88L87.2198 17.9ZM86.6098 15V15.63C87.1698 14.92 87.8698 14.01 88.6098 13.18C88.9546 12.7204 89.3737 12.3216 89.8498 12C89.5669 12.8809 89.0604 13.6733 88.3798 14.3C87.8358 14.8526 87.2544 15.3672 86.6398 15.84L86.5598 16.04C86.4798 16.24 86.4098 16.47 86.3598 16.6C86.2087 16.8777 86.0203 17.1334 85.7998 17.36C85.9998 17.28 86.2298 17.16 86.4298 17.08L86.6298 17C88.3838 16.0055 89.8353 14.554 90.8298 12.8C91.3097 11.588 91.3696 10.25 90.9998 9C90.0917 9.8236 89.2707 10.7384 88.5498 11.73C87.7952 12.7531 87.1262 13.8368 86.5498 14.97L86.6098 15ZM64.5498 25.61C63.8398 26.32 62.2998 27.99 62.4498 29.73C63.2605 29.4742 63.9637 28.9574 64.4498 28.26C64.8003 27.5669 65.1979 26.8987 65.6398 26.26H65.0098C64.6033 27.0873 64.0071 27.8069 63.2698 28.36C63.2698 28.36 63.1198 27.53 65.0098 25.71C65.0098 25.63 65.0898 25.56 65.1598 25.51C64.9559 25.5722 64.7428 25.5993 64.5298 25.59L64.5498 25.61ZM84.0498 15.81C83.4571 16.9399 82.5644 17.8845 81.4698 18.54C81.2496 18.704 81.0959 18.942 81.0371 19.2102C80.9784 19.4785 81.0184 19.7589 81.1498 20C81.4298 20.71 81.9798 21.74 81.7098 22.17C81.4398 22.6 80.0898 22.8 79.0598 22.37C78.8931 22.7335 78.7061 23.0874 78.4998 23.43C78.5927 23.5346 78.7173 23.606 78.8545 23.633C78.9918 23.6601 79.1341 23.6415 79.2598 23.58C79.1977 23.7523 79.1727 23.9359 79.1865 24.1186C79.2003 24.3012 79.2525 24.4789 79.3398 24.64C79.5473 24.5994 79.7438 24.5151 79.9162 24.3927C80.0887 24.2702 80.233 24.1125 80.3398 23.93C80.5219 24.2135 80.7874 24.4336 81.0998 24.56C81.2667 24.4346 81.3902 24.2602 81.4529 24.0612C81.5157 23.8621 81.5146 23.6484 81.4498 23.45C81.5883 23.6943 81.7813 23.9035 82.0136 24.0613C82.246 24.2191 82.5116 24.3213 82.7898 24.36C82.9603 24.1067 83.0384 23.8025 83.0111 23.4984C82.9838 23.1943 82.8527 22.9089 82.6398 22.69C82.8477 22.8453 83.0918 22.9451 83.3489 22.9801C83.6061 23.0151 83.8679 22.9841 84.1098 22.89C84.1098 22.89 84.2598 22.41 83.3998 21.7C83.6826 21.6899 83.9584 21.6086 84.2014 21.4635C84.4444 21.3184 84.6468 21.1142 84.7898 20.87C84.5874 20.7013 84.3524 20.5761 84.0995 20.5021C83.8466 20.4281 83.5812 20.407 83.3198 20.44C83.6183 20.3546 83.8841 20.1809 84.0822 19.9418C84.2803 19.7027 84.4014 19.4092 84.4298 19.1C84.1442 18.9712 83.8271 18.9291 83.5178 18.9788C83.2085 19.0286 82.9206 19.1681 82.6898 19.38C82.8724 19.1204 83.0838 18.8822 83.3198 18.67C83.6941 18.3012 83.9691 17.8439 84.1195 17.3404C84.2698 16.8369 84.2906 16.3036 84.1798 15.79L84.0498 15.81ZM80.1798 27.27C80.3231 27.1014 80.4411 26.9127 80.5298 26.71C80.3798 28.1 80.3298 29.01 79.5298 29.92C79.2346 29.2947 79.1811 28.5823 79.3798 27.92C79.5181 27.8431 79.6618 27.7762 79.8098 27.72C79.7076 28.108 79.6804 28.5119 79.7298 28.91C79.9557 28.3953 80.1007 27.8489 80.1598 27.29L80.1798 27.27ZM81.4198 27.14C81.5739 26.9795 81.6931 26.7888 81.7698 26.58C81.8498 27.41 82.0498 29.51 81.3398 30.15C81.3398 30.15 80.8598 29.8 80.7098 26.71C80.8598 26.86 80.9098 27.06 81.0598 27.19C80.9881 27.7546 81.0568 28.3283 81.2598 28.86C81.2598 28.86 81.6098 28.68 81.4098 27.14H81.4198ZM83.0798 28.76C82.4498 28.05 82.3198 25.9 82.3198 25.9C82.2423 25.8136 82.1467 25.7453 82.0398 25.7L81.9998 25.64V25.84C82.0009 26.9603 82.1902 28.0724 82.5598 29.13C82.8253 29.5636 83.2109 29.911 83.6698 30.13C84.3798 28.94 83.5198 27.32 82.8398 26.13C82.7329 26.1111 82.6348 26.0585 82.5598 25.98C82.8398 26.98 83.3398 27.98 83.1198 28.79L83.0798 28.76ZM84.8098 25.07C84.8203 25.1702 84.7916 25.2705 84.7298 25.35V25.43C85.3997 26.1266 86.0086 26.8793 86.5498 27.68C86.806 28.0213 87.1322 28.304 87.5064 28.5092C87.8806 28.7144 88.2943 28.8374 88.7198 28.87C88.6296 27.9297 88.2406 27.0431 87.6098 26.34C86.9221 25.5876 86.1504 24.9165 85.3098 24.34C85.088 24.4428 84.8389 24.4708 84.5998 24.42H84.5198C84.6131 24.5129 84.6669 24.6383 84.6698 24.77C85.7106 25.2699 86.5982 26.04 87.2398 27C87.3698 27.1 86.3798 26.82 84.7898 25.08L84.8098 25.07ZM85.7898 23.97V23.82L85.7098 23.74C86.2698 23.94 88.2398 24.74 88.8698 25C89.3603 25.2725 89.7904 25.6416 90.1341 26.0851C90.4779 26.5285 90.7282 27.0371 90.8698 27.58C90.4426 27.6166 90.0123 27.5683 89.6038 27.4378C89.1954 27.3074 88.8168 27.0974 88.4898 26.82C87.4298 25.91 86.1098 24.65 85.6298 24.24L85.7798 24.09C86.701 24.8399 87.7081 25.4777 88.7798 25.99C88.5455 25.5549 88.2005 25.1892 87.7798 24.93C87.1632 24.5047 86.49 24.1681 85.7798 23.93L85.7898 23.97ZM86.9998 23C86.9998 22.92 86.9198 22.92 86.9198 22.85C87.5498 23 89.1698 23.2 89.9198 23.41C90.5186 23.5698 91.0776 23.8523 91.5613 24.2396C92.0451 24.627 92.443 25.1107 92.7298 25.66C92.7298 25.66 91.6198 26.01 89.4398 25.03C88.4116 24.4891 87.3374 24.0407 86.2298 23.69C86.4804 23.69 86.7261 23.6208 86.9398 23.49C87.9284 23.9716 89.0022 24.2536 90.0998 24.32C89.7597 24.0747 89.3902 23.8731 88.9998 23.72C88.3626 23.4048 87.6916 23.1633 86.9998 23ZM86.9998 22C86.7998 22.0853 86.5868 22.136 86.3698 22.15C86.5306 22.2434 86.6757 22.3615 86.7998 22.5C88.1761 22.8456 89.5827 23.0566 90.9998 23.13C92.0723 23.2813 93.1644 23.2133 94.2098 22.93C93.3574 22.4433 92.4373 22.086 91.4798 21.87C90.7198 21.72 88.6198 21.72 87.6398 21.59C87.5526 21.6649 87.4589 21.7318 87.3598 21.79C88.4796 21.7968 89.5908 21.9859 90.6498 22.35C89.422 22.4877 88.179 22.3685 86.9998 22Z" fill="white"/>
<path d="M80.4399 24.4999L80.2399 24.2999C79.9843 24.624 79.7724 24.9804 79.6099 25.3599C79.4681 25.7725 79.3512 26.1933 79.2599 26.6199C79.1505 27.028 79.0066 27.4261 78.8299 27.8099C79.0262 27.8116 79.2209 27.7745 79.4028 27.7007C79.5847 27.6269 79.7503 27.5179 79.8899 27.3799C80.2233 26.9525 80.4403 26.4461 80.5199 25.9099C80.6137 25.4374 80.5861 24.9489 80.4399 24.4899V24.4999ZM81.4399 24.5699L81.2399 24.7699L81.1599 24.8499H81.0799L80.7999 24.7699C80.7084 24.9429 80.6571 25.1343 80.6499 25.3299C80.5744 25.6792 80.5744 26.0406 80.6499 26.3899C80.7444 26.6996 80.9086 26.9835 81.1299 27.2199C81.333 26.9965 81.4954 26.7393 81.6099 26.4599C81.7619 26.0778 81.7619 25.652 81.6099 25.2699C81.6112 25.0218 81.5493 24.7774 81.4299 24.5599L81.4399 24.5699ZM82.6899 24.6099C82.3643 24.5624 82.0534 24.4429 81.7799 24.2599C81.73 24.3432 81.6972 24.4357 81.6834 24.5318C81.6697 24.628 81.6753 24.7259 81.6999 24.8199C81.795 25.1088 81.9599 25.3699 82.1799 25.5799C82.3808 25.7535 82.6142 25.8853 82.8666 25.9677C83.119 26.0501 83.3853 26.0815 83.6499 26.0599C83.7299 26.1099 83.8799 25.6799 82.6499 24.6199L82.6899 24.6099ZM83.1299 23.8599C83.1008 24.0929 83.0033 24.3121 82.8499 24.4899C83.0226 24.7708 83.2707 24.9975 83.5659 25.1443C83.8612 25.291 84.1917 25.3519 84.5199 25.3199C84.5978 25.1218 84.5967 24.9013 84.5167 24.704C84.4366 24.5067 84.2838 24.3477 84.0899 24.2599C83.7599 24.1299 83.4799 23.9799 83.0899 23.8599H83.1299ZM82.9999 23.1599C83.3492 23.2354 83.7106 23.2354 84.0599 23.1599H84.2099V22.9999C84.7699 23.4299 85.3199 23.4799 85.5999 23.9099C85.4998 24.0556 85.3628 24.1722 85.2029 24.2477C85.0431 24.3233 84.8661 24.3551 84.6899 24.3399C84.3899 24.3148 84.0984 24.2282 83.8334 24.0854C83.5685 23.9425 83.3358 23.7467 83.1499 23.5099C83.0557 23.4176 83.0018 23.2918 82.9999 23.1599ZM84.1899 22.5299C84.1196 22.318 83.9995 22.126 83.8399 21.9699C84.3001 21.8942 84.7697 21.8942 85.2299 21.9699C85.5921 21.9671 85.9456 22.0814 86.2375 22.2959C86.5295 22.5103 86.7443 22.8134 86.8499 23.1599C86.5161 23.3582 86.1219 23.4293 85.7399 23.3599C85.4371 23.3473 85.1411 23.266 84.8743 23.1222C84.6075 22.9784 84.3769 22.7759 84.1999 22.5299H84.1899ZM84.4799 21.5299C84.6507 21.3661 84.7957 21.1772 84.9099 20.9699L84.9899 20.8199C85.5094 20.5672 86.1036 20.5138 86.6599 20.6699C87.0034 20.7732 87.2981 20.9968 87.4899 21.2999C87.0977 21.5968 86.6367 21.7895 86.1499 21.8599C85.5767 21.8631 85.0088 21.7509 84.4799 21.5299ZM84.2499 20.3899C84.1699 20.3099 84.0499 20.3099 83.8999 20.3099C84.1872 20.0086 84.4025 19.6462 84.5299 19.2499C84.8994 19.3365 85.2866 19.3086 85.6399 19.1699C85.8359 19.0983 86.0461 19.0746 86.2531 19.1007C86.4601 19.1268 86.6578 19.2019 86.8299 19.3199C86.7571 19.5561 86.6189 19.767 86.4313 19.928C86.2438 20.089 86.0144 20.1937 85.7699 20.2299C85.5444 20.3682 85.2904 20.4535 85.0271 20.4795C84.7639 20.5055 84.4981 20.4714 84.2499 20.3799V20.3899ZM84.6399 18.9999H84.4899C84.3169 18.9084 84.1255 18.8571 83.9299 18.8499C84.389 18.4556 84.8808 18.1009 85.3999 17.7899C85.9771 17.4142 86.6228 17.1559 87.2999 17.0299C87.0823 17.5893 86.7749 18.1095 86.3899 18.5699C86.1838 18.8187 85.908 19.0003 85.5979 19.0911C85.2879 19.182 84.9577 19.1781 84.6499 19.0799L84.6399 18.9999ZM83.7399 18.5999C83.9712 18.265 84.1343 17.8878 84.2199 17.4899C84.3699 17.0099 84.4999 16.4299 84.6999 15.9499C85.0486 15.3124 85.6284 14.8329 86.3199 14.6099C86.4742 15.2805 86.4039 15.9832 86.1199 16.6099C85.5083 17.467 84.6895 18.1551 83.7399 18.6099V18.5999ZM78.2799 23.6099C78.1553 23.7293 78.0095 23.8243 77.8499 23.8899C77.7567 24.1038 77.7153 24.3366 77.7292 24.5695C77.7431 24.8024 77.8119 25.0287 77.9299 25.2299C78.2696 25.8338 78.5477 26.4703 78.7599 27.1299C78.7599 27.1299 78.9599 27.1299 79.1899 25.9399C79.26 25.4982 79.4542 25.0855 79.7499 24.7499C79.62 24.8323 79.4729 24.8836 79.3199 24.8999H79.1699L79.0899 24.7499C78.9659 24.5351 78.9134 24.2865 78.9399 24.0399V23.8399C78.8194 23.8608 78.6956 23.8506 78.5801 23.8104C78.4646 23.7701 78.3613 23.7011 78.2799 23.6099Z" fill="white"/>
<path d="M84.3598 25.61C85.0698 26.32 86.6098 27.99 86.4598 29.73C85.6491 29.4742 84.9459 28.9574 84.4598 28.26C84.1093 27.5669 83.7117 26.8987 83.2698 26.26H83.8998C84.3063 27.0873 84.9025 27.8069 85.6398 28.36C85.6398 28.36 85.7898 27.53 83.8998 25.71C83.8998 25.63 83.8198 25.56 83.7498 25.51C83.9537 25.5722 84.1668 25.5993 84.3798 25.59L84.3598 25.61ZM69.5898 12.82C70.0407 12.6683 70.529 12.6683 70.9799 12.82C70.5252 12.9467 70.0445 12.9467 69.5898 12.82ZM74.6998 12C74.6998 12.15 74.6198 12.2 74.4998 12.2C74.4732 12.2014 74.4465 12.1973 74.4216 12.1877C74.3967 12.1782 74.374 12.1635 74.3552 12.1446C74.3363 12.1258 74.3216 12.1031 74.3121 12.0782C74.3025 12.0533 74.2985 12.0266 74.2999 12C74.2999 11.85 74.3798 11.8 74.4998 11.8C74.5264 11.7986 74.5531 11.8027 74.578 11.8123C74.6029 11.8218 74.6256 11.8365 74.6444 11.8554C74.6633 11.8742 74.678 11.8969 74.6875 11.9218C74.6971 11.9467 74.7012 11.9734 74.6998 12ZM73.3098 11.24C73.0332 10.6863 72.8218 10.1024 72.6798 9.5C72.7598 9.35 72.8298 9.22 73.0298 9.22C73.2298 9.22 73.3098 9.14 73.3798 9.22C73.6264 9.79755 73.7718 10.4132 73.8098 11.04C73.6341 11.091 73.4634 11.1579 73.2999 11.24H73.3098ZM73.9799 11.09H74.2598C74.1875 10.5676 74.0705 10.0523 73.9099 9.55C73.8917 9.43043 73.8436 9.31736 73.7702 9.22123C73.6968 9.12511 73.6004 9.04902 73.4898 9C73.5698 9.28 73.6898 9.56 73.7698 9.83C73.8696 10.2555 73.9464 10.6862 73.9998 11.12L73.9799 11.09ZM73.4398 12.59C73.0746 12.7862 72.6642 12.8828 72.2498 12.87C72.4098 12.5933 72.6241 12.3518 72.8798 12.16C73.231 11.9291 73.6525 11.8299 74.0698 11.88C73.914 12.1597 73.699 12.402 73.4398 12.59ZM72.8098 12.67C73.1242 12.5465 73.4076 12.3554 73.6398 12.11C73.2999 12.1794 73.0014 12.3808 72.8098 12.67Z" fill="white"/>
<path d="M69.4701 12.95C69.919 13.094 70.3888 13.1616 70.8601 13.15C71.6851 13.1567 72.5079 13.0627 73.3101 12.87C73.2782 12.9709 73.2224 13.0626 73.1476 13.1375C73.0727 13.2123 72.981 13.2681 72.8801 13.3C73.0118 13.3029 73.1372 13.3567 73.2301 13.45C73.1865 13.5349 73.1258 13.6098 73.0518 13.6701C72.9778 13.7303 72.8921 13.7746 72.8001 13.8C73.0966 14.0939 73.4929 14.2653 73.9101 14.28C73.7987 14.3787 73.6647 14.4485 73.52 14.4834C73.3753 14.5182 73.2243 14.5171 73.0801 14.48C72.72 14.4071 72.3975 14.2086 72.1701 13.92C72.2334 14.054 72.2609 14.2022 72.2501 14.35C72.1555 14.3375 72.0644 14.3062 71.982 14.2582C71.8996 14.2101 71.8276 14.1461 71.7701 14.07C71.8602 14.2146 71.9118 14.3798 71.9201 14.55C71.7644 14.5471 71.6138 14.4946 71.4901 14.4C71.5519 14.5058 71.5798 14.6279 71.5701 14.75C71.1923 14.6139 70.8355 14.4254 70.5101 14.19V14.54C70.5901 14.62 69.5101 14.46 69.5101 12.92L69.4701 12.95ZM71.3301 13.55H70.1001C70.1126 13.6446 70.1439 13.7357 70.1919 13.8181C70.24 13.9005 70.304 13.9725 70.3801 14.03C70.3801 13.55 71.2901 13.55 71.2901 13.55H71.3301ZM69.2901 13.07C69.2959 13.3836 69.3639 13.6929 69.4901 13.98C69.277 13.8463 69.1096 13.651 69.0101 13.42C68.9301 13.07 68.9301 12.91 69.2901 13.07ZM69.5201 14.07L70.0801 14.5C69.8739 14.578 69.6636 14.6448 69.4501 14.7C69.2436 14.5284 68.9836 14.4345 68.7151 14.4345C68.4466 14.4345 68.1866 14.5284 67.9801 14.7C67.8776 14.646 67.7878 14.5707 67.7169 14.479C67.646 14.3874 67.5955 14.2816 67.569 14.1688C67.5424 14.056 67.5404 13.9388 67.563 13.8252C67.5857 13.7115 67.6324 13.604 67.7001 13.51C67.8236 13.3743 67.9873 13.2818 68.1673 13.2458C68.3472 13.2098 68.5339 13.2323 68.7001 13.31C68.7773 13.4879 68.8911 13.6475 69.0341 13.7785C69.1771 13.9094 69.3461 14.0087 69.5301 14.07H69.5201ZM68.5301 14.22C68.5598 14.22 68.5888 14.2112 68.6134 14.1947C68.6381 14.1782 68.6573 14.1548 68.6687 14.1274C68.68 14.1 68.683 14.0698 68.6772 14.0407C68.6714 14.0116 68.6571 13.9849 68.6362 13.9639C68.6152 13.943 68.5885 13.9287 68.5594 13.9229C68.5303 13.9171 68.5001 13.9201 68.4727 13.9314C68.4453 13.9428 68.4219 13.962 68.4054 13.9867C68.3889 14.0113 68.3801 14.0403 68.3801 14.07C68.3801 14.15 68.3801 14.22 68.5301 14.22ZM70.1201 14.62C70.2682 14.8165 70.4286 15.0035 70.6001 15.18C70.3028 15.1695 70.0095 15.2514 69.7606 15.4143C69.5117 15.5773 69.3194 15.8133 69.2101 16.09C69.1099 15.9451 69.0497 15.7764 69.0356 15.6008C69.0216 15.4252 69.0542 15.249 69.1301 15.09C69.2541 14.9447 69.4071 14.8269 69.5793 14.7443C69.7516 14.6616 69.9392 14.6159 70.1301 14.61L70.1201 14.62ZM71.3401 14.84L71.8201 14.99V14.71C71.9701 14.71 72.0201 14.79 72.1701 14.79C72.2918 15.2258 72.4917 15.6358 72.7601 16C72.7438 16.153 72.6925 16.3001 72.6101 16.43C72.4409 16.1419 72.2539 15.8647 72.0501 15.6C71.8697 15.3079 71.6046 15.0777 71.2901 14.94L71.3401 14.84ZM70.3801 14.79C70.7384 14.8663 71.0782 15.0124 71.3801 15.22C71.5501 15.3261 71.6905 15.4733 71.7884 15.6481C71.8863 15.823 71.9385 16.0196 71.9401 16.22C71.7869 16.0026 71.5975 15.8132 71.3801 15.66C70.9721 15.4737 70.6253 15.1755 70.3801 14.8V14.79ZM70.3801 11.23C70.5301 11.23 70.6601 11.31 70.6601 11.43C70.5751 11.6967 70.4575 11.952 70.3101 12.19C70.1485 11.9599 70.03 11.7024 69.9601 11.43C70.006 11.3599 70.0706 11.3041 70.1466 11.2688C70.2226 11.2334 70.3069 11.22 70.3901 11.23H70.3801ZM70.1601 12.57C70.1013 12.2279 70.0075 11.8928 69.8801 11.57C69.7502 11.4876 69.6031 11.4363 69.4501 11.42C69.3986 11.4245 69.3503 11.447 69.3137 11.4836C69.2771 11.5202 69.2546 11.5685 69.2501 11.62V11.7C69.4182 12.0144 69.6052 12.3183 69.8101 12.61C69.9211 12.5657 70.0411 12.5485 70.1601 12.56V12.57ZM70.5101 12.56C70.5689 12.2179 70.6627 11.8828 70.7901 11.56C70.92 11.4776 71.0671 11.4263 71.2201 11.41C71.2716 11.4145 71.3199 11.437 71.3565 11.4736C71.3931 11.5102 71.4156 11.5585 71.4201 11.61V11.69C71.2694 12.0141 71.0815 12.3195 70.8601 12.6C70.7496 12.5537 70.6291 12.5364 70.5101 12.55V12.56ZM70.8601 10.38H70.4301V10H70.2301V10.35H69.8001V10.63H70.2301V11H70.4301V10.6H70.8601V10.38ZM66.5901 12.88V12.2C66.4196 12.2563 66.2633 12.3489 66.1321 12.4715C66.0008 12.5941 65.8978 12.7437 65.8301 12.91C65.8301 12.91 66.3901 12.56 66.5901 12.91V12.88ZM67.0701 13.82C67.1501 13.54 67.2201 13.19 67.2701 12.91C67.3408 12.7021 67.364 12.481 67.3381 12.263C67.3121 12.0449 67.2376 11.8355 67.1201 11.65C66.9719 11.3383 66.9032 10.9947 66.9201 10.65L66.4401 10.85C66.4618 11.1994 66.5572 11.5402 66.7201 11.85C66.8206 12.1145 66.8482 12.4012 66.8001 12.68C66.7615 12.879 66.7665 13.0839 66.8148 13.2808C66.8632 13.4776 66.9537 13.6616 67.0801 13.82H67.0701ZM67.0801 10.82V10.62C67.3411 10.3264 67.6934 10.1291 68.0801 10.06C68.2801 9.98 68.4301 10.06 68.6401 10.21C68.5084 10.2129 68.383 10.2667 68.2901 10.36C68.0762 10.5513 67.8373 10.7128 67.5801 10.84C67.4203 10.8281 67.2599 10.8281 67.1001 10.84" fill="white"/>
<path d="M68.6106 10.1399C68.7814 10.2867 68.9034 10.4821 68.9606 10.6999C68.8981 10.9964 68.7793 11.2782 68.6106 11.5299C68.4405 11.7286 68.342 11.9786 68.3306 12.2399C68.3306 12.3899 68.4806 12.5199 68.5306 12.6699C68.3812 12.6278 68.2417 12.5567 68.1198 12.4606C67.998 12.3645 67.8963 12.2453 67.8206 12.1099C67.7826 11.9769 67.7812 11.8362 67.8163 11.7025C67.8515 11.5687 67.9221 11.447 68.0206 11.3499C68.1445 11.0755 68.3061 10.8197 68.5006 10.5899C68.5799 10.4503 68.6148 10.2898 68.6006 10.1299L68.6106 10.1399ZM72.3206 14.5499C72.4393 14.9751 72.6286 15.3774 72.8806 15.7399C73.055 16.045 73.1512 16.3886 73.1606 16.7399C73.306 16.4068 73.3578 16.0403 73.3106 15.6799C73.1332 15.1946 72.7748 14.7968 72.3106 14.5699L72.3206 14.5499ZM73.0206 14.6999C73.2376 14.7139 73.4506 14.7646 73.6506 14.8499C73.9728 15.0978 74.1961 15.4523 74.2806 15.8499C74.0582 15.7874 73.846 15.6931 73.6506 15.5699C73.3667 15.3455 73.1489 15.0483 73.0206 14.7099V14.6999ZM70.7706 15.5699C70.6206 15.5699 70.4906 15.6499 70.3406 15.6499C70.5369 15.7225 70.7247 15.8164 70.9006 15.9299C71.0042 16.0182 71.0887 16.1267 71.1488 16.2488C71.209 16.3709 71.2437 16.504 71.2506 16.6399C71.3478 17.0262 71.4922 17.399 71.6806 17.7499C71.6859 17.3714 71.7535 16.9964 71.8806 16.6399C71.7198 16.5466 71.5747 16.4284 71.4506 16.2899C71.315 15.9803 71.074 15.7288 70.7706 15.5799V15.5699ZM72.7706 16.5799C72.9287 16.9034 73.0075 17.2599 73.0006 17.6199C72.8381 17.9994 72.6262 18.3558 72.3706 18.6799C72.2836 18.2651 72.2334 17.8435 72.2206 17.4199C72.2136 17.236 72.2576 17.0537 72.3475 16.8931C72.4375 16.7326 72.5701 16.6 72.7306 16.5099L72.7706 16.5799ZM73.4906 16.5099C73.7064 16.8854 73.8775 17.2847 74.0006 17.6999C74.0352 17.8296 74.0397 17.9656 74.0137 18.0973C73.9877 18.229 73.9319 18.3531 73.8506 18.4599C73.6506 18.7399 73.4206 19.0199 73.2206 19.2899C73.0873 19.126 72.9917 18.9348 72.9406 18.7299C72.9233 18.4518 72.9435 18.1726 73.0006 17.8999C73.2193 17.4559 73.3902 16.99 73.5106 16.5099H73.4906ZM73.7906 19.2399C73.5205 19.5156 73.2824 19.8209 73.0806 20.1499C73.0062 20.2627 72.9665 20.3948 72.9665 20.5299C72.9665 20.665 73.0062 20.7971 73.0806 20.9099C73.3008 21.2187 73.5836 21.4777 73.9106 21.6699C73.7134 21.3748 73.6153 21.0245 73.6306 20.6699C73.7061 20.4266 73.7997 20.1892 73.9106 19.9599C73.9229 19.7099 73.8784 19.4603 73.7806 19.2299L73.7906 19.2399ZM72.7806 18.8799C72.9167 19.0612 72.9873 19.2833 72.9806 19.5099C72.9671 19.7919 72.9167 20.071 72.8306 20.3399C72.6798 20.7525 72.4924 21.1507 72.2706 21.5299C72.1258 21.3368 72.008 21.1249 71.9206 20.8999C72.1206 20.6199 72.2706 20.3399 72.4806 20.0699C72.6101 19.6813 72.7104 19.2835 72.7806 18.8799ZM72.6306 18.6799C72.4873 19.4255 72.2058 20.1378 71.8006 20.7799C71.6869 20.9905 71.5286 21.1738 71.337 21.3171C71.1453 21.4604 70.9247 21.5603 70.6906 21.6099C70.4841 21.6001 70.2858 21.5266 70.1228 21.3994C69.9599 21.2723 69.8403 21.0978 69.7806 20.8999C69.7099 20.7173 69.6865 20.5197 69.7128 20.3256C69.739 20.1315 69.8139 19.9472 69.9306 19.7899C69.9745 19.9665 70.0628 20.129 70.187 20.262C70.3113 20.395 70.4674 20.4941 70.6406 20.5499C71.1706 20.4999 71.8806 19.8699 72.6406 18.6799" fill="white"/>
<path d="M72 18.1998C72.0695 18.4619 72.0695 18.7377 72 18.9998C71.9732 19.1448 71.9168 19.2828 71.8342 19.405C71.7516 19.5271 71.6446 19.6309 71.52 19.7098C71.3576 19.8042 71.1663 19.8359 70.9821 19.7991C70.798 19.7622 70.6336 19.6594 70.52 19.5098L70.44 19.4298C70.7901 19.3944 71.1228 19.2598 71.3991 19.042C71.6754 18.8241 71.8839 18.532 72 18.1998ZM73.72 22.9998C73.9871 23.3344 74.1997 23.709 74.35 24.1098C74.3363 24.6288 74.1881 25.1353 73.92 25.5798C73.6004 25.3139 73.3557 24.9692 73.21 24.5798C73.1728 24.2951 73.1992 24.0057 73.2874 23.7325C73.3756 23.4593 73.5234 23.209 73.72 22.9998ZM73.04 23.4798C73.1617 23.141 73.3523 22.8311 73.6 22.5698C73.6736 22.2706 73.6434 21.9554 73.5144 21.6756C73.3854 21.3958 73.1653 21.1681 72.89 21.0298C72.6345 21.3609 72.4444 21.7376 72.33 22.1398C72.25 22.7198 72.81 22.9998 73.04 23.4798ZM71.78 21.0998C71.6268 21.3172 71.4374 21.5066 71.22 21.6598V22.3698C71.3294 22.7779 71.4733 23.176 71.65 23.5598C71.8679 23.2907 72.031 22.9816 72.13 22.6498C72.1877 22.377 72.2145 22.0986 72.21 21.8198C72.0856 21.5722 71.9418 21.3348 71.78 21.1098V21.0998ZM70.59 23.1098C70.2919 22.6853 70.0906 22.2006 70 21.6898C70.151 21.7745 70.3186 21.8255 70.4912 21.8393C70.6639 21.8531 70.8374 21.8294 71 21.7698C71.0758 22.0684 71.0758 22.3812 71 22.6798C70.8688 22.8502 70.725 23.0107 70.57 23.1598L70.59 23.1098ZM70.65 23.3098L71 22.9998C71.08 22.9198 71.35 23.6298 71.43 23.8298C71.28 23.8298 71.15 23.8298 71.08 23.7498C70.9501 23.6027 70.8061 23.4688 70.65 23.3498V23.3098ZM72.25 22.9998C72.0374 23.3496 71.8001 23.6838 71.54 23.9998C71.6155 24.2431 71.7091 24.4805 71.82 24.7098C71.989 25.0153 72.2012 25.2949 72.45 25.5398C72.6208 25.2783 72.7648 25.0002 72.88 24.7098C72.9964 24.4926 73.0385 24.2432 73 23.9998C72.85 23.6498 72.44 23.2898 72.29 22.9398L72.25 22.9998ZM73 24.8998C73.232 25.2056 73.4205 25.5422 73.56 25.8998C73.609 26.1126 73.5806 26.336 73.48 26.5298C73.4 26.6798 73.2 27.0098 73.05 27.2898C72.7679 27.0761 72.5499 26.789 72.42 26.4598C72.3771 26.3231 72.3621 26.1793 72.3758 26.0367C72.3896 25.8941 72.4318 25.7558 72.5 25.6298C72.65 25.4298 72.93 25.2298 73.01 24.9198L73 24.8998ZM71.59 24.8698C71.7869 25.1234 71.9484 25.4026 72.07 25.6998C72.1438 25.8256 72.1828 25.9689 72.1828 26.1148C72.1828 26.2607 72.1438 26.404 72.07 26.5298C71.92 26.8098 71.79 27.0098 71.72 27.1598C71.5169 26.9364 71.3545 26.6792 71.24 26.3998C71.165 26.1282 71.165 25.8414 71.24 25.5698C71.406 25.3608 71.5253 25.1187 71.59 24.8598V24.8698ZM73.59 26.8598C73.304 27.2393 73.1028 27.6758 73 28.1398C73.1093 28.5707 73.2531 28.992 73.43 29.3998C73.6325 29.1948 73.7953 28.9541 73.91 28.6898C74.0834 28.4202 74.1543 28.0973 74.11 27.7798C74.1186 27.6075 74.087 27.4355 74.0176 27.2775C73.9481 27.1196 73.8428 26.98 73.71 26.8698L73.59 26.8598ZM72.37 26.7898C72.5849 27.1028 72.7063 27.4704 72.72 27.8498C72.5702 28.2025 72.3825 28.5378 72.16 28.8498C72.0119 28.5875 71.8945 28.309 71.81 28.0198C71.8037 27.7886 71.851 27.5591 71.9482 27.3492C72.0453 27.1393 72.1897 26.9547 72.37 26.8098V26.7898ZM79.45 12.8098C78.9991 12.6581 78.5109 12.6581 78.06 12.8098C78.5147 12.9365 78.9953 12.9365 79.45 12.8098ZM74.5 10.5698C74.6775 10.1348 74.8213 9.68685 74.93 9.2298C74.93 9.11576 74.8847 9.00639 74.8041 8.92575C74.7234 8.84511 74.614 8.7998 74.5 8.7998C74.386 8.7998 74.2766 8.84511 74.1959 8.92575C74.1153 9.00639 74.07 9.11576 74.07 9.2298C74.1675 9.6899 74.3116 10.1389 74.5 10.5698ZM75.69 11.2798C75.9666 10.7261 76.178 10.1422 76.32 9.5398C76.24 9.3898 76.17 9.2598 76.04 9.2598C75.91 9.2598 75.76 9.1798 75.69 9.2598C75.4434 9.83735 75.298 10.453 75.26 11.0798C75.34 11.1298 75.54 11.2098 75.69 11.2798ZM75 11.1198H74.7C74.7723 10.5974 74.8894 10.0821 75.05 9.5798C75.0496 9.44826 75.0925 9.32024 75.172 9.21544C75.2515 9.11065 75.3632 9.03488 75.49 8.9998C75.41 9.2798 75.29 9.5598 75.21 9.8298C75.13 10.2598 75.06 10.6898 74.98 11.0898L75 11.1198ZM75.06 11.8698C75.4744 11.857 75.8848 11.9536 76.25 12.1498C76.5224 12.3227 76.7408 12.5687 76.88 12.8598C76.4656 12.8726 76.0552 12.776 75.69 12.5798C75.5344 12.5229 75.3954 12.4282 75.2854 12.3043C75.1754 12.1804 75.098 12.0311 75.06 11.8698ZM75.34 12.0698C75.572 12.3154 75.8554 12.5066 76.17 12.6298C76.0806 12.4818 75.9601 12.355 75.8168 12.2583C75.6734 12.1615 75.5107 12.0972 75.34 12.0698ZM78.42 14.5998V14.2498C78.1142 14.4818 77.7776 14.6703 77.42 14.8098C77.4103 14.6877 77.4382 14.5656 77.5 14.4598C77.3701 14.5422 77.223 14.5935 77.07 14.6098C77.15 14.4598 77.15 14.2598 77.27 14.1298C77.2142 14.2076 77.1426 14.2728 77.0599 14.3211C76.9772 14.3693 76.8852 14.3996 76.79 14.4098C76.7792 14.262 76.8067 14.1138 76.87 13.9798C76.6739 14.2645 76.3774 14.4645 76.04 14.5398C75.8958 14.5769 75.7448 14.578 75.6001 14.5432C75.4554 14.5083 75.3214 14.4385 75.21 14.3398C75.6283 14.3301 76.0264 14.158 76.32 13.8598C76.1592 13.7664 76.0141 13.6483 75.89 13.5098C75.9829 13.4165 76.1083 13.3627 76.24 13.3598C76.1391 13.3279 76.0474 13.2721 75.9725 13.1973C75.8977 13.1224 75.8419 13.0307 75.81 12.9298C76.6115 13.1267 77.4348 13.2208 78.26 13.2098C78.7306 13.2108 79.1988 13.1434 79.65 13.0098C79.45 14.4798 78.41 14.6298 78.41 14.6298L78.42 14.5998ZM78.61 13.9998C78.6878 13.944 78.753 13.8724 78.8013 13.7897C78.8495 13.707 78.8798 13.615 78.89 13.5198C78.4685 13.5307 78.0468 13.5039 77.63 13.4398V13.5198C77.71 13.5698 78.63 13.5698 78.63 13.9998H78.61ZM79.74 13.0898C79.7342 13.4034 79.6662 13.7127 79.54 13.9998C79.7531 13.8661 79.9205 13.6708 80.02 13.4398C80.1 13.1398 80.1 12.9298 79.74 13.0898ZM80.45 13.4198C80.6162 13.3421 80.8029 13.3196 80.9828 13.3556C81.1628 13.3916 81.3265 13.4842 81.45 13.6198C81.5415 13.8212 81.5637 14.0472 81.513 14.2626C81.4623 14.4779 81.3417 14.6704 81.17 14.8098C80.9635 14.6382 80.7035 14.5443 80.435 14.5443C80.1665 14.5443 79.9065 14.6382 79.7 14.8098C79.5025 14.7087 79.2896 14.6411 79.07 14.6098C79.227 14.4315 79.4172 14.2854 79.63 14.1798C79.9886 14.0338 80.283 13.7642 80.46 13.4198H80.45ZM80.74 14.1998C80.74 14.1701 80.7312 14.1411 80.7147 14.1165C80.6982 14.0918 80.6748 14.0726 80.6474 14.0612C80.62 14.0499 80.5898 14.0469 80.5607 14.0527C80.5316 14.0585 80.5049 14.0728 80.4839 14.0937C80.463 14.1147 80.4487 14.1414 80.4429 14.1705C80.4371 14.1996 80.4401 14.2298 80.4514 14.2572C80.4628 14.2846 80.482 14.308 80.5067 14.3245C80.5313 14.341 80.5603 14.3498 80.59 14.3498C80.67 14.3498 80.74 14.2698 80.74 14.1998ZM78.92 14.6798C78.7719 14.8763 78.6115 15.0633 78.44 15.2398C78.7373 15.2293 79.0306 15.3112 79.2795 15.4741C79.5284 15.6371 79.7207 15.8731 79.83 16.1498C79.9302 16.0049 79.9904 15.8362 80.0045 15.6606C80.0185 15.485 79.9859 15.3088 79.91 15.1498C79.79 14.9999 79.6378 14.8789 79.4647 14.7959C79.2916 14.7128 79.102 14.6697 78.91 14.6698" fill="white"/>
<path d="M77.71 14.9199L77.23 15.0699V14.7899C77.08 14.7899 77.03 14.8699 76.88 14.8699C76.7344 15.2811 76.5178 15.6636 76.24 15.9999C76.2563 16.1529 76.3076 16.3 76.39 16.4299C76.5592 16.1418 76.7462 15.8646 76.95 15.5999C77.1452 15.3207 77.4062 15.094 77.71 14.9399V14.9199ZM78.62 14.7899C78.2617 14.8662 77.9219 15.0123 77.62 15.2199C77.45 15.326 77.3096 15.4732 77.2117 15.648C77.1138 15.8229 77.0616 16.0196 77.06 16.2199C77.2132 16.0025 77.4026 15.8131 77.62 15.6599C78.013 15.451 78.3546 15.1572 78.62 14.7999V14.7899ZM78.62 11.2299C78.47 11.2299 78.34 11.3099 78.34 11.4299C78.425 11.6966 78.5426 11.9519 78.69 12.1899C78.8516 11.9598 78.9701 11.7023 79.04 11.4299C78.9258 11.313 78.7729 11.2419 78.61 11.2299H78.62ZM78.81 12.5699C78.8317 12.2205 78.9271 11.8797 79.09 11.5699C79.2199 11.4875 79.367 11.4362 79.52 11.4199C79.6 11.4199 79.72 11.4999 79.67 11.6199V11.6999C79.5019 12.0143 79.3149 12.3182 79.11 12.6099C79.11 12.5599 78.96 12.5599 78.81 12.5599V12.5699ZM78.48 12.5599C78.4212 12.2178 78.3274 11.8828 78.2 11.5599C78.0701 11.4775 77.923 11.4262 77.77 11.4099C77.7185 11.4144 77.6702 11.4369 77.6336 11.4735C77.597 11.5101 77.5745 11.5584 77.57 11.6099V11.6899C77.7381 12.0043 77.9251 12.3082 78.13 12.5999C78.2405 12.5536 78.361 12.5363 78.48 12.5499V12.5599ZM78.13 10.3799H78.53V9.99994H78.81V10.3499H79.16V10.6299H78.81V10.9999H78.53V10.5999H78.13V10.3799ZM74 8.11994H74.35V7.68994H74.63V8.11994H75V8.31994H74.65V8.82994H74.37V8.31994H74V8.11994ZM82.42 12.8699V12.1899C82.5905 12.2462 82.7468 12.3388 82.878 12.4614C83.0093 12.584 83.1123 12.7336 83.18 12.8999C83.18 12.8999 82.62 12.5499 82.42 12.8999V12.8699ZM81.91 13.8099C81.83 13.5299 81.76 13.1799 81.71 12.8999C81.5827 12.4841 81.6112 12.0362 81.79 11.6399C81.9747 11.3414 82.0457 10.9864 81.99 10.6399L82.47 10.8399C82.4483 11.1893 82.3529 11.5301 82.19 11.8399C82.0895 12.1044 82.0619 12.3911 82.11 12.6699C82.1871 12.8595 82.2092 13.067 82.1738 13.2686C82.1384 13.4703 82.047 13.6578 81.91 13.8099ZM81.91 10.8099V10.6099C81.649 10.3163 81.2967 10.119 80.91 10.0499C80.71 9.96994 80.56 10.0499 80.35 10.1999C80.4817 10.2028 80.6071 10.2566 80.7 10.3499C80.9139 10.5412 81.1528 10.7027 81.41 10.8299C81.5699 10.8208 81.7301 10.8208 81.89 10.8299" fill="white"/>
<path d="M80.3691 10.1399C80.1983 10.2867 80.0762 10.4821 80.0191 10.6999C80.0816 10.9964 80.2004 11.2782 80.3691 11.5299C80.5392 11.7286 80.6378 11.9786 80.6491 12.2399C80.6491 12.3899 80.4991 12.5199 80.4491 12.6699C80.5984 12.6278 80.738 12.5567 80.8599 12.4606C80.9817 12.3645 81.0834 12.2453 81.1591 12.1099C81.1971 11.9769 81.1986 11.8362 81.1634 11.7025C81.1282 11.5687 81.0576 11.447 80.9591 11.3499C80.8352 11.0755 80.6736 10.8197 80.4791 10.5899C80.3998 10.4503 80.3649 10.2898 80.3791 10.1299L80.3691 10.1399ZM76.6891 14.5499C76.5704 14.9751 76.3811 15.3774 76.1291 15.7399C75.9342 16.0583 75.8368 16.4268 75.8491 16.7999C75.7037 16.4668 75.6518 16.1003 75.6991 15.7399C75.7535 15.474 75.8735 15.2258 76.0481 15.018C76.2227 14.8102 76.4465 14.6493 76.6991 14.5499H76.6891ZM75.9891 14.6799C75.7721 14.6939 75.5591 14.7446 75.3591 14.8299C75.0369 15.0778 74.8136 15.4323 74.7291 15.8299C74.9515 15.7674 75.1637 15.6731 75.3591 15.5499C75.637 15.3198 75.8535 15.0243 75.9891 14.6899V14.6799ZM78.2391 15.5499C78.3891 15.5499 78.5191 15.6299 78.6691 15.6299C78.4727 15.7025 78.285 15.7964 78.1091 15.9099C78.0055 15.9982 77.921 16.1067 77.8609 16.2288C77.8007 16.3509 77.7661 16.484 77.7591 16.6199C77.6619 17.0062 77.5175 17.379 77.3291 17.7299C77.3238 17.3514 77.2562 16.9764 77.1291 16.6199C77.2899 16.5266 77.435 16.4084 77.5591 16.2699C77.6186 16.1117 77.7095 15.9673 77.8264 15.8452C77.9432 15.7232 78.0836 15.6261 78.2391 15.5599V15.5499ZM76.2391 16.5599C76.0744 16.8886 75.9921 17.2524 75.9991 17.6199C76.1616 17.9994 76.3735 18.3558 76.6291 18.6799C76.7161 18.2651 76.7663 17.8435 76.7791 17.4199C76.776 17.2379 76.7278 17.0594 76.6388 16.9006C76.5498 16.7418 76.4228 16.6075 76.2691 16.5099L76.2391 16.5599ZM74.4991 17.7699C74.4991 17.4899 75.1291 16.8599 75.1291 16.5099C75.0799 16.3633 74.9974 16.2302 74.8881 16.1209C74.7788 16.0116 74.6457 15.9291 74.4991 15.8799C74.2309 16.0223 74.0115 16.2417 73.8691 16.5099C73.8691 16.8599 74.4991 17.5699 74.4991 17.7699ZM75.4991 16.5099C75.2868 16.8858 75.119 17.2852 74.9991 17.6999C74.9645 17.8296 74.96 17.9656 74.986 18.0973C75.012 18.229 75.0678 18.3531 75.1491 18.4599C75.3491 18.7399 75.5791 19.0199 75.7791 19.2899C75.9124 19.126 76.008 18.9348 76.0591 18.7299C76.0764 18.4518 76.0562 18.1726 75.9991 17.8999C75.7693 17.4608 75.5978 16.9935 75.4891 16.5099H75.4991ZM74.4891 19.7999C74.6821 19.6572 74.8311 19.4632 74.9191 19.2399C74.9625 19.1491 74.9781 19.0474 74.9639 18.9478C74.9496 18.8481 74.9062 18.7549 74.8391 18.6799C74.6687 18.5046 74.5479 18.2872 74.4891 18.0499C74.4017 18.2749 74.2839 18.4868 74.1391 18.6799C74.0708 18.7543 74.0266 18.8475 74.0123 18.9475C73.998 19.0475 74.0143 19.1494 74.0591 19.2399C74.1537 19.4594 74.3015 19.6518 74.4891 19.7999ZM75.1991 19.2399C75.4692 19.5156 75.7074 19.8209 75.9091 20.1499C75.9835 20.2627 76.0232 20.3948 76.0232 20.5299C76.0232 20.665 75.9835 20.7971 75.9091 20.9099C75.6889 21.2187 75.4061 21.4777 75.0791 21.6699C75.2763 21.3748 75.3744 21.0245 75.3591 20.6699C75.2836 20.4266 75.19 20.1892 75.0791 19.9599C75.0668 19.7099 75.1113 19.4603 75.2091 19.2299L75.1991 19.2399ZM76.2091 18.8799C76.0729 19.0612 76.0024 19.2833 76.0091 19.5099C76.0226 19.7919 76.073 20.071 76.1591 20.3399C76.3099 20.7525 76.4973 21.1507 76.7191 21.5299C76.8639 21.3368 76.9817 21.1249 77.0691 20.8999C76.8691 20.6199 76.7191 20.3399 76.5091 20.0699C76.2991 19.7999 76.2791 19.2399 76.2091 18.8799ZM76.4391 18.6799C76.5824 19.4255 76.8639 20.1378 77.2691 20.7799C77.3828 20.9905 77.5411 21.1738 77.7327 21.3171C77.9244 21.4604 78.145 21.5603 78.3791 21.6099C78.5856 21.6001 78.7839 21.5266 78.9469 21.3994C79.1098 21.2723 79.2294 21.0978 79.2891 20.8999C79.3598 20.7173 79.3832 20.5197 79.3569 20.3256C79.3307 20.1315 79.2558 19.9472 79.1391 19.7899C79.0952 19.9665 79.0069 20.129 78.8827 20.262C78.7584 20.395 78.6023 20.4941 78.4291 20.5499C77.8991 20.4999 77.1891 19.8699 76.4291 18.6799" fill="white"/>
<path d="M76.9991 18.2002C76.9296 18.4623 76.9296 18.7381 76.9991 19.0002C77.0259 19.1452 77.0823 19.2832 77.1649 19.4054C77.2475 19.5275 77.3545 19.6313 77.4791 19.7102C77.6415 19.8046 77.8328 19.8363 78.017 19.7995C78.2011 19.7626 78.3655 19.6598 78.4791 19.5102L78.5591 19.4302C78.2079 19.3984 77.8734 19.2652 77.5965 19.0468C77.3195 18.8284 77.112 18.5343 76.9991 18.2002ZM74.4991 21.6902C74.6809 21.631 74.8342 21.5062 74.9291 21.3402C75.0657 21.0852 75.1346 20.7994 75.1291 20.5102C75.0528 20.2802 74.9341 20.0665 74.7791 19.8802C74.7016 19.9666 74.606 20.0349 74.4991 20.0802C74.4119 20.0053 74.3182 19.9384 74.2191 19.8802C74.0743 20.0733 73.9565 20.2852 73.8691 20.5102C73.8391 20.6547 73.8415 20.8041 73.8761 20.9476C73.9106 21.0911 73.9766 21.2252 74.0691 21.3402C74.1491 21.5702 74.2991 21.6202 74.4991 21.6902ZM74.4991 23.7902C74.5791 23.4402 75.2091 22.8802 75.2091 22.5302C75.2091 22.1802 74.7791 22.1002 74.4991 21.9002C74.2191 22.1002 73.9391 22.0502 73.7891 22.5302C73.7891 22.8102 74.4191 23.4402 74.4991 23.7902ZM75.2591 23.0302C74.992 23.3648 74.7794 23.7394 74.6291 24.1402C74.6428 24.6591 74.791 25.1657 75.0591 25.6102C75.3787 25.3443 75.6234 24.9996 75.7691 24.6102C75.8172 24.3206 75.796 24.0238 75.7074 23.744C75.6187 23.4642 75.4651 23.2093 75.2591 23.0002V23.0302ZM75.9691 23.4802C75.8474 23.1414 75.6568 22.8315 75.4091 22.5702C75.3355 22.271 75.3657 21.9558 75.4947 21.676C75.6237 21.3962 75.8438 21.1685 76.1191 21.0302C76.3455 21.3788 76.5333 21.7509 76.6791 22.1402C76.7291 22.7202 76.1691 23.0002 75.9691 23.4802ZM77.2291 21.1002C77.3823 21.3176 77.5717 21.507 77.7891 21.6602V22.3702C77.6797 22.7783 77.5358 23.1764 77.3591 23.5602C77.1412 23.2911 76.9781 22.982 76.8791 22.6502C76.8214 22.3774 76.7946 22.099 76.7991 21.8202C76.8791 21.7402 77.0791 21.3102 77.2291 21.1102V21.1002ZM78.4191 23.1102C78.7136 22.6848 78.9116 22.2001 78.9991 21.6902C78.8481 21.7749 78.6805 21.8259 78.5079 21.8397C78.3352 21.8535 78.1617 21.8298 77.9991 21.7702C77.9233 22.0688 77.9233 22.3816 77.9991 22.6802C78.1231 22.8566 78.2674 23.0177 78.4291 23.1602L78.4191 23.1102ZM78.3491 23.3102C78.1991 23.1602 78.0691 23.1102 77.9991 22.9602C77.8491 23.2402 77.7191 23.5202 77.5691 23.7902C77.7191 23.7902 77.8491 23.7902 77.9191 23.7102C78.049 23.5631 78.193 23.4291 78.3491 23.3102ZM76.7191 23.0002C76.9317 23.35 77.169 23.6842 77.4291 24.0002C77.3536 24.2435 77.26 24.4809 77.1491 24.7102C76.9801 25.0157 76.7679 25.2953 76.5191 25.5402C76.3483 25.2786 76.2042 25.0006 76.0891 24.7102C75.983 24.4895 75.9514 24.2404 75.9991 24.0002C76.1491 23.6502 76.5791 23.2902 76.7091 22.9402L76.7191 23.0002ZM74.4991 27.4302C74.6797 27.1622 74.8466 26.8851 74.9991 26.6002C75.0669 26.4059 75.0669 26.1944 74.9991 26.0002C74.9191 25.8002 74.5691 25.2902 74.5191 25.1702C74.3253 25.4335 74.1515 25.711 73.9991 26.0002C73.9241 26.2035 73.9241 26.4269 73.9991 26.6302C74.1291 27.0602 74.4791 27.2602 74.4791 27.4602L74.4991 27.4302ZM75.8691 24.9302C75.6371 25.236 75.4486 25.5726 75.3091 25.9302C75.2601 26.143 75.2885 26.3663 75.3891 26.5602C75.4691 26.7102 75.6691 27.0402 75.8191 27.3202C76.1012 27.1065 76.3192 26.8194 76.4491 26.4902C76.492 26.3535 76.507 26.2097 76.4933 26.0671C76.4795 25.9245 76.4373 25.7861 76.3691 25.6602C76.2891 25.4602 76.0191 25.2602 75.8591 24.9502L75.8691 24.9302ZM77.3291 24.9002C77.1322 25.1538 76.9707 25.433 76.8491 25.7302C76.7753 25.856 76.7363 25.9993 76.7363 26.1452C76.7363 26.2911 76.7753 26.4344 76.8491 26.5602C76.9991 26.8402 77.1291 27.0402 77.1991 27.1902C77.4022 26.9668 77.5646 26.7096 77.6791 26.4302C77.7541 26.1586 77.7541 25.8718 77.6791 25.6002C77.5325 25.3795 77.4148 25.1409 77.3291 24.8902V24.9002ZM74.4991 31.5002C74.7783 30.8979 74.967 30.2577 75.0591 29.6002C74.985 29.1144 74.7927 28.6543 74.4991 28.2602C74.172 28.6343 73.9754 29.1046 73.9391 29.6002C74.0088 30.2623 74.1986 30.9061 74.4991 31.5002ZM75.3291 26.8702C75.6424 27.2396 75.8711 27.6731 75.9991 28.1402C75.8898 28.571 75.746 28.9924 75.5691 29.4002C75.3666 29.1952 75.2038 28.9545 75.0891 28.6902C74.9924 28.5618 74.9245 28.414 74.89 28.257C74.8555 28.1 74.8552 27.9373 74.8891 27.7802C74.8706 27.6068 74.8979 27.4316 74.968 27.272C75.0382 27.1123 75.1489 26.9738 75.2891 26.8702H75.3291ZM76.6291 26.7902C76.4142 27.1032 76.2928 27.4708 76.2791 27.8502C76.4289 28.2029 76.6166 28.5382 76.8391 28.8502C76.9872 28.5879 77.1046 28.3094 77.1891 28.0202C77.1954 27.789 77.1481 27.5595 77.0509 27.3496C76.9538 27.1397 76.8094 26.9551 76.6291 26.8102" fill="white"/>
<path d="M75.0005 32.89C75.0911 32.4055 75.2529 31.9371 75.4805 31.5C75.524 31.2932 75.5214 31.0795 75.473 30.8738C75.4247 30.6682 75.3316 30.4757 75.2005 30.31C75.0098 30.9336 74.7725 31.542 74.4905 32.13C74.2191 31.5374 73.9821 30.9298 73.7805 30.31C73.6494 30.4757 73.5563 30.6682 73.508 30.8738C73.4596 31.0795 73.457 31.2932 73.5005 31.5C73.7086 31.9473 73.876 32.4126 74.0005 32.89C73.9907 33.0965 73.9172 33.2948 73.79 33.4578C73.6629 33.6207 73.4884 33.7403 73.2905 33.8C73.4649 33.8687 73.657 33.8785 73.8375 33.828C74.0181 33.7774 74.1771 33.6693 74.2905 33.52C74.3769 33.4425 74.4452 33.3469 74.4905 33.24C74.5654 33.3272 74.6323 33.4209 74.6905 33.52C74.8028 33.6706 74.9618 33.7798 75.1428 33.8305C75.3237 33.8811 75.5163 33.8704 75.6905 33.8C75.5251 33.7003 75.3814 33.5684 75.268 33.4121C75.1546 33.2557 75.0739 33.0782 75.0305 32.89H75.0005ZM72.7305 28.49C72.8105 28.69 73.0105 29.2 73.0805 29.32C73.1077 29.503 73.0757 29.6899 72.9894 29.8536C72.9031 30.0172 72.7669 30.1491 72.6005 30.23C72.4125 30.1165 72.2627 29.9493 72.1705 29.75C72.1243 29.6598 72.1072 29.5576 72.1215 29.4573C72.1359 29.357 72.1809 29.2636 72.2505 29.19C72.359 28.9223 72.5225 28.6804 72.7305 28.48V28.49ZM73.7305 29.48C73.6975 29.9112 73.6032 30.3354 73.4505 30.74C73.3442 30.9642 73.1895 31.1622 72.9976 31.3195C72.8057 31.4769 72.5812 31.5897 72.3405 31.65C72.1103 31.611 71.8937 31.5148 71.7105 31.37C71.7282 31.2404 71.7828 31.1186 71.868 31.0193C71.9531 30.9199 72.0651 30.8473 72.1905 30.81C72.8269 30.5284 73.3636 30.0614 73.7305 29.47V29.48ZM72.3905 30.47C72.3033 30.3951 72.2096 30.3282 72.1105 30.27C71.862 30.3609 71.6239 30.4782 71.4005 30.62C71.1106 30.8339 70.8544 31.0901 70.6405 31.38C70.8881 31.4563 71.1529 31.4563 71.4005 31.38C71.455 31.1214 71.6096 30.8949 71.8305 30.75C71.9975 30.6216 72.1876 30.5265 72.3905 30.47ZM72.0005 30.09C71.8644 29.9087 71.7938 29.6866 71.8005 29.46L70.9705 30.02C70.7031 30.2238 70.4643 30.4626 70.2605 30.73C70.5325 30.6452 70.8097 30.5784 71.0905 30.53C71.4405 30.38 71.7205 30.25 72.0005 30.1V30.09ZM70.8905 30.81C70.4097 30.9625 69.9184 31.0795 69.4205 31.16C69.0784 31.3076 68.7691 31.5217 68.5105 31.79L69.2705 31.99C69.5301 31.8022 69.8082 31.6413 70.1005 31.51C70.4048 31.3271 70.6699 31.0858 70.8805 30.8L70.8905 30.81ZM70.1705 33.1C70.3205 33.02 70.3205 32.9 70.2505 32.75C70.1336 32.5835 69.9648 32.4604 69.7705 32.4C69.3405 32.25 68.8605 32.12 68.4305 31.97C68.3556 32.0572 68.2887 32.1509 68.2305 32.25C68.2305 32.33 68.2305 32.4 68.3805 32.4H69.2905C69.3398 32.4419 69.3742 32.4986 69.3886 32.5617C69.4031 32.6248 69.3967 32.6908 69.3705 32.75C69.5004 32.6676 69.6475 32.6163 69.8005 32.6C69.8965 32.653 69.9801 32.726 70.0456 32.8139C70.1111 32.9019 70.1571 33.0028 70.1805 33.11L70.1705 33.1ZM69.4705 32C69.7181 32.0627 69.9567 32.1568 70.1805 32.28C70.2605 32.2 70.3305 32.2 70.3805 32.13C70.512 31.8953 70.7058 31.7015 70.9405 31.57C70.8184 31.5797 70.6963 31.5518 70.5905 31.49C70.4405 31.57 70.3105 31.57 70.1605 31.64C69.9171 31.7208 69.6877 31.8389 69.4805 31.99L69.4705 32ZM71.4805 31.51C71.4005 31.59 71.2805 31.59 71.1305 31.59C70.7574 31.8125 70.485 32.1709 70.3705 32.59C70.3248 32.7107 70.3285 32.8446 70.381 32.9626C70.4334 33.0805 70.5303 33.173 70.6505 33.22C70.7989 33.2852 70.9662 33.2926 71.1197 33.2408C71.2733 33.189 71.402 33.0817 71.4805 32.94C71.4805 32.86 71.5605 32.86 71.5605 32.79C71.5093 32.8314 71.4504 32.8622 71.3873 32.8809C71.3241 32.8995 71.2579 32.9055 71.1925 32.8985C71.127 32.8915 71.0636 32.8717 71.0057 32.8403C70.9479 32.8088 70.8969 32.7662 70.8555 32.715C70.772 32.6116 70.7329 32.4792 70.747 32.347C70.7611 32.2147 70.8271 32.0935 70.9305 32.01C71.0105 32.01 71.0105 31.93 71.0805 31.93C71.3063 31.7847 71.5724 31.7146 71.8405 31.73C71.6905 31.65 71.5605 31.53 71.4905 31.53" fill="white"/>
<path d="M66.9393 37C67.0253 36.6567 67.1425 36.322 67.2893 36C67.6393 35.29 68.3493 33.55 69.9393 33.27C70.0893 33.27 69.7893 32.84 69.5893 32.92C69.3864 32.9765 69.1963 33.0716 69.0293 33.2V32.77C69.0293 32.69 68.9493 32.69 68.8793 32.69C68.6832 32.6935 68.4909 32.745 68.3193 32.84C67.7751 33.5817 67.3313 34.3921 66.9993 35.25C66.6493 36.08 66.4393 36.36 65.9993 36.25C65.5593 36.14 65.4393 35.69 64.7393 35.82C64.4667 35.8932 64.2205 36.0423 64.0293 36.25C64.0646 36.3298 64.1276 36.394 64.2067 36.4308C64.2858 36.4676 64.3756 36.4744 64.4593 36.45C64.8796 36.4613 65.2898 36.5819 65.6493 36.8C66.075 36.899 66.5056 36.9758 66.9393 37.03V37ZM73.3093 31.52C73.3574 31.7996 73.4781 32.0617 73.6593 32.28C73.6593 32.28 73.1793 34.53 71.4093 34.73C71.4846 34.3926 71.6846 34.0961 71.9693 33.9C72.5293 33.55 73.3093 32.99 73.2293 32.16C73.0685 32.2534 72.9234 32.3715 72.7993 32.51C72.5193 32.86 72.0393 33.77 71.1293 33.77C71.2124 33.4896 71.38 33.2416 71.6093 33.06C72.0228 32.8348 72.3841 32.5247 72.6693 32.15C72.7971 31.8713 73.0206 31.6478 73.2993 31.52H73.3093ZM72.4693 39.76L73.5293 41.3L74.3593 39.83L74.0793 39.35L73.5193 40.41L72.8093 39.35L72.4593 39.75" fill="white"/>
<path d="M72.2007 38.4801L69.7507 35.0001L70.1807 34.7201L68.9207 34.2401V35.6301L69.3507 35.2801L71.9307 38.9201L72.2107 38.4901L72.2007 38.4801ZM63.3907 30.2501C63.7407 29.9001 64.2207 30.1701 64.7807 30.7301C65.3407 31.2901 65.6907 31.7301 65.3407 32.0701C64.9907 32.4101 64.5107 32.1501 63.9507 31.6401C63.3907 31.1301 63.1207 30.6401 63.3907 30.2501Z" fill="white"/>
<path d="M64.2905 36.38C64.1315 36.2436 64.0056 36.0727 63.9224 35.8804C63.8393 35.6881 63.801 35.4793 63.8105 35.27C63.7938 35.0674 63.8192 34.8636 63.8852 34.6714C63.9512 34.4791 64.0564 34.3027 64.1941 34.1532C64.3317 34.0036 64.4989 33.8843 64.6851 33.8026C64.8712 33.721 65.0723 33.6789 65.2755 33.6789C65.4788 33.6789 65.6798 33.721 65.8659 33.8026C66.0521 33.8843 66.2193 34.0036 66.3569 34.1532C66.4946 34.3027 66.5998 34.4791 66.6658 34.6714C66.7318 34.8636 66.7572 35.0674 66.7405 35.27V35.55C66.8374 35.288 66.9545 35.034 67.0905 34.79C66.9568 34.3113 66.6418 33.9035 66.2124 33.6533C65.7829 33.4031 65.2729 33.3302 64.7905 33.45C64.2779 33.6142 63.8505 33.9734 63.6005 34.45C63.6831 33.8304 63.9476 33.2492 64.3605 32.78C64.6093 32.5882 64.8904 32.4426 65.1905 32.35C64.9344 32.3507 64.6814 32.2946 64.4497 32.1856C64.218 32.0767 64.0133 31.9176 63.8505 31.72C63.4529 31.4364 63.1806 31.01 63.0905 30.53C63.1526 30.9067 63.1003 31.2933 62.9405 31.64C62.5306 32.4162 62.3634 33.2976 62.4605 34.17C62.6508 35.0044 63.0902 35.7612 63.7205 36.34C63.7898 36.4151 63.8432 36.5034 63.8775 36.5996C63.9119 36.6958 63.9265 36.798 63.9205 36.9H65.2605C65.2605 36.9 65.5405 36.9 65.5405 36.7C65.5405 36.5 65.3905 36.5 65.2605 36.5C64.9238 36.5355 64.5835 36.5015 64.2605 36.4L64.2905 36.38ZM70.0505 36.7C69.3942 36.9005 68.7263 37.0608 68.0505 37.18C67.657 37.2421 67.2588 37.2689 66.8605 37.26V37.46C66.8874 37.4857 66.9084 37.5168 66.9222 37.5513C66.936 37.5858 66.9422 37.6229 66.9405 37.66C67.362 37.6709 67.7837 37.6441 68.2005 37.58C68.9507 37.4894 69.6845 37.2942 70.3805 37L70.0805 36.67L70.0505 36.7ZM71.2205 36.67C72.2967 36.1163 73.192 35.2662 73.8005 34.22L73.9505 34.02C73.8761 34.0578 73.7939 34.0774 73.7105 34.0774C73.6271 34.0774 73.5449 34.0578 73.4705 34.02L73.3905 34.17C72.7709 35.0909 71.9546 35.8628 71.0005 36.43L71.2005 36.68L71.2205 36.67ZM65.2005 37.08H64.4405C64.3906 37.065 64.3381 37.0604 64.2864 37.0666C64.2346 37.0727 64.1847 37.0894 64.1396 37.1157C64.0946 37.1419 64.0555 37.1772 64.0247 37.2192C63.9939 37.2612 63.972 37.3092 63.9605 37.36C63.8805 37.51 63.9605 37.64 64.1105 37.79C64.2605 37.94 64.3905 37.87 64.4605 37.79C64.7477 37.649 65.025 37.4886 65.2905 37.31C65.3405 37.16 65.4205 37.01 65.1905 37.08H65.2005ZM65.8205 37.43C65.7122 37.375 65.592 37.3475 65.4705 37.35C65.1928 37.5011 64.9371 37.6895 64.7105 37.91C64.6305 38.06 64.7105 38.11 64.8605 38.19C64.94 38.2518 65.0403 38.2805 65.1405 38.27C65.2722 38.2671 65.3976 38.2133 65.4905 38.12C65.5705 38.04 65.8405 37.69 65.9205 37.64C65.9027 37.5666 65.8685 37.4983 65.8205 37.44V37.43ZM65.9005 37.79C65.8205 37.87 65.5505 38.22 65.5505 38.22C65.5505 38.22 65.5505 38.3 65.6305 38.37H65.7105C65.9611 38.37 66.2068 38.3008 66.4205 38.17C66.6505 38.04 66.8505 37.69 66.6205 37.61C66.5628 37.5727 66.498 37.5477 66.4301 37.5366C66.3623 37.5254 66.2929 37.5284 66.2263 37.5453C66.1597 37.5622 66.0972 37.5926 66.0429 37.6347C65.9886 37.6768 65.9435 37.7297 65.9105 37.79H65.9005ZM66.0605 36.88C65.9951 36.8423 65.921 36.8224 65.8455 36.8224C65.77 36.8224 65.6959 36.8423 65.6305 36.88C65.5505 37.03 65.6305 37.16 65.8305 37.23C65.9436 37.2983 66.0702 37.3408 66.2016 37.3547C66.3329 37.3685 66.4657 37.3532 66.5905 37.31C66.6905 37.23 66.5405 37.01 66.0605 36.88ZM76.4005 28.49C76.3205 28.69 76.1205 29.2 76.0505 29.32C76.0234 29.503 76.0553 29.6899 76.1416 29.8536C76.2279 30.0172 76.3641 30.1491 76.5305 30.23C76.7185 30.1165 76.8683 29.9493 76.9605 29.75C77.0067 29.6598 77.0238 29.5576 77.0095 29.4573C76.9951 29.357 76.9501 29.2636 76.8805 29.19C76.6805 28.89 76.5305 28.68 76.4005 28.48V28.49ZM75.3405 29.48C75.3631 29.9206 75.4826 30.3508 75.6905 30.74C75.7968 30.9642 75.9515 31.1622 76.1434 31.3195C76.3353 31.4769 76.5598 31.5897 76.8005 31.65C77.0307 31.611 77.2473 31.5148 77.4305 31.37C77.4187 31.2445 77.3723 31.1247 77.2963 31.024C77.2204 30.9234 77.118 30.8458 77.0005 30.8C76.3411 30.5214 75.7778 30.0555 75.3805 29.46" fill="white"/>
<path d="M76.5998 30.4399C76.687 30.365 76.7807 30.2981 76.8798 30.2399C77.1283 30.3308 77.3664 30.4481 77.5898 30.5899C77.8797 30.8038 78.1359 31.06 78.3498 31.3499C78.1022 31.4262 77.8374 31.4262 77.5898 31.3499C77.5353 31.0913 77.3808 30.8648 77.1599 30.7199C77.0799 30.5899 76.8798 30.5199 76.5998 30.4399ZM77.0298 30.0899C77.1755 29.883 77.2461 29.6325 77.2299 29.3799L78.0598 29.9399C78.3272 30.1437 78.566 30.3825 78.7698 30.6499C78.4978 30.5651 78.2206 30.4983 77.9398 30.4499C77.6303 30.3631 77.3436 30.2095 77.0998 29.9999L77.0298 30.0899ZM78.0998 30.7799C78.5806 30.9324 79.0719 31.0494 79.5698 31.1299C79.9119 31.2775 80.2213 31.4917 80.4799 31.7599L79.7198 31.9599C79.4602 31.7721 79.1821 31.6113 78.8898 31.4799C78.5804 31.304 78.3139 31.0615 78.1098 30.7699L78.0998 30.7799ZM78.7898 33.0699C78.6398 32.9899 78.6398 32.8699 78.7098 32.7199C78.8267 32.5534 78.9955 32.4303 79.1898 32.3699C79.6198 32.2199 80.0998 32.0899 80.5298 31.9399C80.6047 32.0271 80.6717 32.1208 80.7299 32.2199C80.7299 32.2999 80.7298 32.3699 80.5798 32.3699H79.6698C79.6205 32.4118 79.5861 32.4685 79.5717 32.5316C79.5572 32.5947 79.5636 32.6607 79.5898 32.7199C79.4599 32.6375 79.3129 32.5862 79.1599 32.5699C78.9727 32.6851 78.8366 32.8676 78.7798 33.0799L78.7898 33.0699ZM79.5298 31.9999C79.2822 32.0626 79.0436 32.1567 78.8198 32.2799C78.7808 32.2775 78.744 32.261 78.7164 32.2333C78.6887 32.2057 78.6722 32.1689 78.6698 32.1299C78.5383 31.8952 78.3445 31.7014 78.1098 31.5699C78.2319 31.5796 78.354 31.5517 78.4598 31.4899C78.6098 31.5699 78.7398 31.5699 78.8898 31.6399C79.1127 31.7318 79.3241 31.8492 79.5198 31.9899L79.5298 31.9999ZM77.5198 31.5099C77.5998 31.5899 77.7199 31.5899 77.8699 31.5899C78.2429 31.8124 78.5153 32.1708 78.6298 32.5899C78.6755 32.7106 78.6718 32.8445 78.6193 32.9625C78.5669 33.0804 78.47 33.173 78.3498 33.2199C78.2014 33.2851 78.0341 33.2925 77.8806 33.2407C77.727 33.1889 77.5983 33.0816 77.5198 32.9399C77.5198 32.8599 77.4398 32.8599 77.4398 32.7899C77.5433 32.8734 77.6756 32.9125 77.8078 32.8984C77.94 32.8844 78.0613 32.8183 78.1448 32.7149C78.2283 32.6115 78.2674 32.4791 78.2533 32.3469C78.2392 32.2147 78.1732 32.0934 78.0698 32.0099C77.9898 32.0099 77.9898 31.9299 77.9198 31.9299C77.694 31.7846 77.428 31.7145 77.1599 31.7299C77.3099 31.6499 77.4398 31.5299 77.5098 31.5299L77.5198 31.5099ZM82.1398 36.9999C82.0506 36.6563 81.93 36.3216 81.7798 35.9999C81.4298 35.2899 80.7198 33.5499 79.1298 33.2699C78.9798 33.2699 79.2799 32.8399 79.4799 32.9199C79.6828 32.9764 79.8728 33.0715 80.0398 33.1999V32.7699C80.0398 32.6899 80.1199 32.6899 80.1898 32.6899C80.2885 32.6735 80.3895 32.6783 80.4861 32.7042C80.5827 32.7301 80.6726 32.7764 80.7498 32.8399C81.3041 33.5929 81.7547 34.417 82.0898 35.2899C82.4398 36.1199 82.6498 36.3999 83.0898 36.2899C83.5298 36.1799 83.7198 35.7299 84.3498 35.8599C84.6224 35.9331 84.8686 36.0822 85.0598 36.2899C85.0245 36.3697 84.9615 36.4339 84.8824 36.4707C84.8033 36.5075 84.7135 36.5143 84.6298 36.4899C84.2095 36.5012 83.7993 36.6218 83.4398 36.8399C82.9865 36.9399 82.5565 37.0166 82.1498 37.0699L82.1398 36.9999ZM75.6898 31.4999C75.6417 31.7795 75.521 32.0416 75.3398 32.2599C75.3398 32.2599 75.8198 34.5099 77.5898 34.7099C77.5145 34.3725 77.3145 34.076 77.0298 33.8799C76.4698 33.5299 75.6898 32.9699 75.7698 32.1399C75.9306 32.2333 76.0757 32.3514 76.1998 32.4899C76.4798 32.8399 76.9599 33.7499 77.8699 33.7499C77.7868 33.4695 77.6191 33.2215 77.3898 33.0399C76.9763 32.8147 76.615 32.5046 76.3298 32.1299C76.1946 31.8565 75.9732 31.6351 75.6998 31.4999H75.6898ZM74.4998 33.6499C74.7827 34.2083 75.1392 34.7263 75.5598 35.1899C75.8398 35.4699 76.5598 36.1899 76.9498 36.5299C76.3355 36.3887 75.7633 36.1043 75.2798 35.6999C75.0455 35.8384 74.788 35.9333 74.5198 35.9799C74.2489 35.9439 73.9893 35.8482 73.7598 35.6999C73.2857 36.1185 72.7097 36.4047 72.0898 36.5299C72.4398 36.1799 73.1999 35.4699 73.4799 35.1899C73.9364 34.7679 74.2801 34.2385 74.4799 33.6499" fill="white"/>
<path d="M74.4991 36.18C74.7161 36.166 74.9291 36.1153 75.1291 36.03C74.9992 36.3592 74.7812 36.6463 74.4991 36.86C74.2336 36.6302 74.019 36.3475 73.8691 36.03C74.0691 36.1153 74.2821 36.166 74.4991 36.18Z" fill="white"/>
<path d="M75.4109 41.2901L79.6809 35.3501L80.1109 35.7001V34.3101L78.8509 34.7901L79.2809 35.0701L75.5109 40.3801L73.5109 36.8901L73.3109 37.2401L71.6409 39.8201L71.2109 39.5401V40.9301L72.5509 40.4501L72.1209 40.1701L73.5909 37.9201L75.4109 41.2801" fill="white"/>
<path d="M76.1691 38.9101L75.4591 37.8001C75.3791 38.0001 75.1091 38.3601 74.8991 38.8601L74.6191 38.3001L75.4491 36.8301L75.6491 37.1801L76.4091 38.5201L76.1591 38.9001L76.1691 38.9101ZM77.0691 39.2501L77.3491 39.7301L77.7791 39.4501V40.8401L76.4391 40.3601L76.8691 40.0801L76.6691 39.8001L77.0691 39.2401V39.2501ZM85.6191 30.2401C85.2691 29.8901 84.7891 30.1601 84.2291 30.7201C83.6691 31.2801 83.3191 31.7201 83.6691 32.0601C84.0191 32.4001 84.4991 32.1401 85.0591 31.6301C85.6191 31.1201 85.8891 30.6301 85.6191 30.2401Z" fill="white"/>
<path d="M84.7906 36.38C84.9496 36.2436 85.0755 36.0727 85.1587 35.8804C85.2418 35.6881 85.2801 35.4793 85.2706 35.27C85.2402 34.9024 85.0727 34.5596 84.8013 34.3097C84.5299 34.0598 84.1745 33.9211 83.8056 33.9211C83.4367 33.9211 83.0813 34.0598 82.8099 34.3097C82.5385 34.5596 82.371 34.9024 82.3406 35.27V35.55C82.2606 35.4 81.9906 34.84 81.9906 34.79C82.1243 34.3113 82.4393 33.9036 82.8687 33.6534C83.2982 33.4032 83.8082 33.3302 84.2906 33.45C84.8032 33.6142 85.2306 33.9734 85.4806 34.45C85.398 33.8304 85.1335 33.2493 84.7206 32.78C84.4718 32.5883 84.1907 32.4426 83.8906 32.35C84.1467 32.3507 84.3997 32.2946 84.6314 32.1856C84.8631 32.0767 85.0678 31.9176 85.2306 31.72C85.6341 31.4359 85.9104 31.0052 86.0006 30.52C85.9385 30.8967 85.9908 31.2833 86.1506 31.63C86.5605 32.4062 86.7277 33.2876 86.6306 34.16C86.4403 34.9944 86.0009 35.7512 85.3706 36.33C85.3013 36.4051 85.2479 36.4934 85.2136 36.5896C85.1792 36.6858 85.1646 36.788 85.1706 36.89H83.8006C83.8006 36.89 83.5206 36.89 83.5206 36.69C83.5206 36.49 83.6706 36.49 83.8006 36.49C84.1372 36.5175 84.4761 36.4836 84.8006 36.39L84.7906 36.38ZM77.8706 36.69C76.8104 36.1141 75.9205 35.2691 75.2906 34.24L75.1406 34.04C75.215 34.0778 75.2972 34.0975 75.3806 34.0975C75.464 34.0975 75.5462 34.0778 75.6206 34.04L75.7006 34.19C76.3185 35.1062 77.1312 35.8745 78.0806 36.44L77.8806 36.69H77.8706ZM78.8806 36.69C79.5369 36.8905 80.2048 37.0508 80.8806 37.17C81.2741 37.2322 81.6723 37.2589 82.0706 37.25V37.45C82.0437 37.4757 82.0227 37.5068 82.0089 37.5413C81.9951 37.5758 81.9889 37.6129 81.9906 37.65C81.5691 37.6609 81.1474 37.6341 80.7306 37.57C79.9979 37.4781 79.2813 37.2863 78.6006 37L78.9006 36.67L78.8806 36.69ZM83.7306 37.07H84.4906C84.6956 37.0652 84.895 37.1365 85.0506 37.27C85.0521 37.3595 85.0351 37.4483 85.0007 37.5309C84.9663 37.6135 84.9152 37.6881 84.8506 37.75C84.7006 37.83 84.5706 37.83 84.5006 37.75C84.2134 37.609 83.9361 37.4486 83.6706 37.27C83.6206 37.22 83.5406 36.99 83.7506 37.07H83.7306ZM83.1206 37.42C83.2546 37.3567 83.4028 37.3292 83.5506 37.34C83.8283 37.4911 84.084 37.6795 84.3106 37.9C84.3906 38.05 84.3106 38.1 84.1606 38.18C84.0811 38.2418 83.9808 38.2705 83.8806 38.26C83.7489 38.2571 83.6235 38.2033 83.5306 38.11C83.4506 38.03 83.1806 37.68 83.1006 37.63C83.1143 37.564 83.1143 37.496 83.1006 37.43L83.1206 37.42ZM83.0006 37.8C83.0806 37.88 83.3506 38.23 83.3506 38.23C83.3506 38.23 83.3506 38.31 83.2706 38.38H83.1906C82.94 38.38 82.6943 38.3108 82.4806 38.18C82.2806 38.03 82.0506 37.7 82.2806 37.62C82.3373 37.5795 82.4022 37.5519 82.4707 37.539C82.5392 37.5262 82.6097 37.5284 82.6773 37.5455C82.7449 37.5626 82.8079 37.5943 82.862 37.6382C82.9161 37.6822 82.96 37.7374 82.9906 37.8H83.0006ZM82.8406 36.89C82.906 36.8523 82.9801 36.8324 83.0556 36.8324C83.1311 36.8324 83.2052 36.8523 83.2706 36.89C83.3506 37.04 83.2706 37.17 83.0706 37.24C82.9584 37.3103 82.8316 37.3541 82.6999 37.3679C82.5682 37.3818 82.435 37.3654 82.3106 37.32C82.2106 37.24 82.3606 37.02 82.8406 36.89Z" fill="white"/>
<path d="M145.67 14.6901C145.47 12.7901 144.56 11.8301 142.46 11.8301H139.81L139.46 22.5501H141.46C141.46 22.5501 141.66 17.5501 141.66 17.3701H144.11C144.11 17.5701 144.54 22.5501 144.54 22.5501H146.54C146.46 22.4701 145.76 15.1201 145.68 14.6901H145.67ZM141.68 15.5501C141.68 15.3501 141.76 13.8101 141.76 13.5501H142.11C143.5 13.5501 143.78 13.8301 143.93 15.5501H141.68ZM122.08 29.4101C121.88 27.5101 120.97 26.5501 118.87 26.5501H116.22L115.87 37.2701H117.87C117.87 37.2701 118.07 32.2701 118.07 32.0901H120.52C120.52 32.2901 120.95 37.2701 120.95 37.2701H122.95C122.87 37.1701 122.17 29.8101 122.09 29.4101H122.08ZM118.09 30.2401C118.09 30.0401 118.17 28.5001 118.17 28.2401H118.52C119.91 28.2401 120.19 28.5201 120.34 30.2401H118.09ZM107.52 11.8301V22.5301H109.52V13.5301H111.9V22.5301H113.9V11.8301H107.52ZM128.33 15.5501H127.27C126.915 15.5654 126.565 15.4673 126.27 15.2701C126.201 15.195 126.147 15.1067 126.113 15.0105C126.079 14.9142 126.064 14.8121 126.07 14.7101V11.8301H124.07V14.9101C124.059 15.2455 124.128 15.5786 124.272 15.8815C124.417 16.1844 124.632 16.448 124.9 16.6501C125.458 17.1225 126.169 17.375 126.9 17.3601H128.29V22.5401H130.29V11.8301H128.29V15.5501H128.33ZM132.44 11.8301V13.5701H134.06V22.5701H136.06V13.5701H137.68V11.8301H132.44ZM129.56 26.4401V29.8801H126.83V26.4501H124.88V37.1701H126.83V31.7101H129.56V37.1701H131.56V26.4501L129.56 26.4401ZM110.4 30.0001H109.49V28.2901H113V26.5501H107.54V37.2701H110.54C111.012 37.2766 111.479 37.1855 111.914 37.0025C112.349 36.8194 112.741 36.5485 113.066 36.2067C113.391 35.8648 113.642 35.4594 113.802 35.016C113.963 34.5726 114.03 34.1008 114 33.6301C113.92 32.4201 113.52 30.0401 110.43 30.0401L110.4 30.0001ZM110.15 35.5501C109.95 35.5501 109.44 35.4701 109.44 35.4701V31.7101H109.79C110.79 31.7101 111.96 31.6301 111.96 33.6101C111.96 35.4301 110.7 35.5601 110.14 35.5601L110.15 35.5501ZM122.66 16.8001C122.674 15.6157 122.432 14.4422 121.95 13.3601C121.73 12.8182 121.352 12.3549 120.865 12.0304C120.378 11.7059 119.805 11.5351 119.22 11.5401H119.14C118.557 11.5456 117.989 11.7206 117.504 12.0438C117.019 12.367 116.639 12.8244 116.41 13.3601C115.933 14.4437 115.691 15.6161 115.7 16.8001V17.1501C115.675 18.0234 115.793 18.895 116.05 19.7301C116.61 21.9001 117.79 22.6601 119.13 22.7301H119.21C120.55 22.7301 121.74 21.9701 122.29 19.7301C122.506 18.8864 122.623 18.0207 122.64 17.1501V16.8001H122.66ZM117.64 17.1501C117.64 14.2901 118.35 13.3101 119.11 13.3101C119.87 13.3101 120.58 14.3101 120.58 17.1501C120.58 19.9901 119.87 20.9201 119.11 20.9201C118.35 20.9201 117.72 19.9201 117.64 17.1501ZM141.23 37.1501L138.85 30.8501C139.415 30.4215 139.82 29.8159 140 29.1301C140.15 28.4201 140.35 26.4801 140.35 26.4801H138.35C138.35 26.6801 138.27 27.3101 138.2 28.0201C138.12 29.0801 137.77 30.0201 136.81 30.0201H136.1V26.5001H134.1V37.1701H136.1V31.7101H137.29L139.29 37.1701L141.23 37.1501Z" fill="white"/>
</svg>
