<svg width="200" height="50" viewBox="0 0 200 50" fill="none" xmlns="http://www.w3.org/2000/svg">
<path d="M54.3522 42.5899H41.5493V37.1798H54.3239V42.5899H54.3522ZM56.9298 34.4606H39V48H41.5493V45.2808H56.8732V34.4606H56.9298ZM41.5493 10.1293L46.6761 4.71921V23.6687H41.5493V10.1293ZM39 26.3596H49.197V2H45.4015L39 8.7697V26.3596ZM54.3522 4.71921H59.4791V23.6687H54.3522V4.71921ZM51.803 26.3596H62V2H51.803V26.3596ZM79.8732 26.3596H82.4224V2H78.5702V2.02833L74.718 6.07882V2H70.8658L64.5209 8.7697V26.3596H67.0702V10.1293L72.197 4.71921V26.3596H74.7463V10.1293L79.8732 4.71921V26.3596ZM39 31.7697H82.4507V29.0505H39V31.7697ZM72.2254 37.1798H79.8732V42.5899H72.2254V37.1798ZM69.6761 42.5899H62V37.1798H69.6761V42.5899ZM72.2254 45.2808H82.4507V34.4606H59.4791V45.2808H69.6761V48H72.2254V45.2808ZM120.463 25.9064H122.701C123.692 25.9064 124.287 26.6145 124.287 27.5776C124.287 28.5973 123.692 29.2488 122.701 29.2488H120.463V25.9064ZM120.463 23.782V21.3461H125.788V19.2217H118.169V31.4015H122.786C125.08 31.4015 126.525 29.8153 126.525 27.6059C126.525 25.3966 125.108 23.8103 122.786 23.8103C122.814 23.782 120.463 23.782 120.463 23.782ZM134.824 27.2377H131.963L133.436 22.819L134.824 27.2377ZM136.127 31.4015H138.478L134.314 19.2217H132.558L128.394 31.4015H130.745L131.453 29.2488H135.504L136.127 31.4015ZM146.947 31.4015H149.185V19.2217H146.947V24.2069H143.066V19.2217H140.829V31.4015H143.066V26.303H146.947V31.4015ZM157.427 24.915L161.28 19.2217H158.617L154.935 25V19.2217H152.697V31.4015H154.935V25.0283L158.957 31.4015H161.704L157.427 24.915Z" fill="#384249"/>
<path d="M102.307 7.18359H100.324V42.8166H102.307V7.18359Z" fill="#99C45A"/>
</svg>
