<svg width="146" height="116" viewBox="0 0 146 116" fill="none" xmlns="http://www.w3.org/2000/svg">
<g clip-path="url(#clip0_3018_9837)">
<path d="M99.002 0.425781L72.9991 29.5854L69.5889 28.5212L20.8867 13.5157V22.4551L72.9991 38.5249L99.002 9.36523L125.112 22.4551V13.5157L99.002 0.425781Z" fill="white"/>
<path d="M125.112 28.2022L99.002 15.0059L72.9991 44.2719L20.8867 28.2022V45.1233L72.9991 61.2994L125.112 45.1233V28.2022Z" fill="white"/>
<path d="M0.320312 99.8244H5.64878V87.1601H16.732V81.839H5.64878V74.4959H18.3305V69.2812H0.320312V99.8244Z" fill="white"/>
<path d="M69.6973 82.265C68.9513 82.4778 67.1396 83.0099 66.2871 82.3714C66.074 82.265 65.9674 82.0521 65.8608 81.9457H60.4258V99.8246H65.7542V94.0778C65.7542 90.2466 68.8448 87.2668 72.5747 87.2668H73.6404V82.1586C73.3207 82.1586 73.001 82.0521 72.5747 82.0521C71.509 81.8393 70.5499 81.9457 69.6973 82.265Z" fill="white"/>
<path d="M20.7812 87.16H27.0688V103.549C27.0688 107.167 24.298 110.147 20.7812 110.36V115.681C27.282 115.362 32.3973 110.041 32.3973 103.549V81.9453H20.7812V87.16Z" fill="white"/>
<path d="M26.535 77.3697C28.2401 77.3697 29.7321 75.9862 29.7321 74.177C29.7321 72.4743 28.3467 70.9844 26.535 70.9844C24.8299 70.9844 23.3379 72.3679 23.3379 74.177C23.3379 75.9862 24.8299 77.3697 26.535 77.3697Z" fill="white"/>
<path d="M91.8621 81.7323L91.1161 81.4131C89.7307 80.7745 88.1322 80.3488 86.6402 80.3488C80.7789 80.3488 76.0898 85.0314 76.0898 90.8846C76.0898 96.7378 80.7789 101.42 86.6402 101.42C88.2388 101.42 90.157 100.995 91.0096 100.675C92.9278 100.037 94.5263 99.7176 97.1906 99.8241V72.3672H91.8621V81.7323ZM86.5336 96.0993C83.6563 96.0993 81.2052 93.758 81.2052 90.7782C81.2052 87.9048 83.5497 85.4571 86.5336 85.4571C89.411 85.4571 91.8621 87.7984 91.8621 90.7782C91.8621 93.758 89.411 96.0993 86.5336 96.0993Z" fill="white"/>
<path d="M135.663 81.8379C133.957 81.8379 131.933 83.0085 131.08 82.37C130.867 82.2636 130.76 82.0507 130.654 81.8379H125.219V99.7168H130.547V92.3737C130.547 89.5003 132.572 87.0526 135.449 87.0526C138.433 87.0526 140.352 89.5003 140.352 92.3737V99.7168H145.68V92.3737C145.68 87.6911 142.59 81.8379 135.663 81.8379Z" fill="white"/>
<path d="M121.596 92.4807C121.702 91.9486 121.702 91.4165 121.702 90.778C121.702 90.4587 121.702 90.1394 121.702 89.8202C121.169 84.4991 116.694 80.2422 111.152 80.2422C105.61 80.2422 101.134 84.4991 100.602 89.8202C100.602 90.1394 100.602 90.4587 100.602 90.778C100.602 91.3101 100.602 91.9486 100.708 92.4807C101.561 97.4826 105.93 101.314 111.152 101.314C114.669 101.314 117.759 99.611 119.677 97.0569L114.775 94.6092C114.136 95.1413 113.496 95.567 112.644 95.7798C112.644 95.7798 112.644 95.7798 112.537 95.7798C112.431 95.7798 112.218 95.8862 112.111 95.8862C112.004 95.8862 112.004 95.8862 111.898 95.8862C111.791 95.8862 111.685 95.8862 111.578 95.8862C111.365 95.8862 111.258 95.8862 111.045 95.8862C110.832 95.8862 110.726 95.8862 110.513 95.8862C110.406 95.8862 110.406 95.8862 110.299 95.8862C110.193 95.8862 110.086 95.8862 109.98 95.8862C109.873 95.8862 109.873 95.8862 109.767 95.8862C109.66 95.8862 109.553 95.8862 109.447 95.7798C109.34 95.7798 109.34 95.7798 109.234 95.6734C109.127 95.6734 109.021 95.567 109.021 95.567C108.914 95.567 108.807 95.4605 108.594 95.3541C108.594 95.3541 108.488 95.3541 108.488 95.2477C108.381 95.2477 108.275 95.1413 108.275 95.1413C108.275 95.1413 108.168 95.1413 108.168 95.0349C108.061 94.9284 107.955 94.9284 107.955 94.822L107.848 94.7156C107.422 94.3963 107.102 94.0771 106.783 93.6514C106.463 93.2257 106.25 92.6936 106.037 92.1615H121.596V92.4807ZM105.93 89.9266C106.356 87.4789 108.488 85.6697 111.152 85.6697C113.71 85.6697 115.841 87.4789 116.374 89.9266H105.93Z" fill="white"/>
<path d="M54.776 84.3917C54.2431 83.6467 53.6037 83.1146 52.8577 82.5825C51.0461 81.199 48.8081 80.3477 46.357 80.3477C40.4957 80.3477 35.8066 85.0302 35.8066 90.8834C35.8066 93.3311 36.6592 95.566 38.0446 97.3752C38.5774 98.1201 39.2169 98.6522 39.8563 99.2908C41.668 100.674 43.9059 101.526 46.357 101.526C52.2183 101.526 56.9074 96.8431 56.9074 90.9899C57.0139 88.4357 56.1614 86.2009 54.776 84.3917ZM41.8811 93.4376C41.7745 93.3311 41.7745 93.3312 41.7745 93.2247C41.7745 93.1183 41.668 93.1183 41.668 93.0119C41.668 92.9054 41.5614 92.9055 41.5614 92.799C41.5614 92.6926 41.4548 92.5862 41.4548 92.4798V92.3733C41.4548 92.2669 41.3483 92.1605 41.3483 91.9477C41.3483 91.8412 41.3482 91.6284 41.2417 91.522V91.4155C41.2417 91.3091 41.2417 91.0963 41.2417 90.9899C41.2417 88.1165 43.5862 85.6688 46.5701 85.6688C47.5293 85.6688 48.4884 85.988 49.2344 86.4137L41.8811 93.4376ZM51.6855 90.8834C51.6855 93.7568 49.341 96.2045 46.357 96.2045C45.611 96.2045 44.865 96.0981 44.2256 95.7789C44.0125 95.6724 43.7993 95.566 43.5862 95.4596L50.8329 88.2229C51.0461 88.6486 51.2592 89.0743 51.3658 89.5V89.6064C51.3658 89.7128 51.4723 89.8192 51.4723 90.0321C51.4723 90.1385 51.4723 90.2449 51.4723 90.3513C51.4723 90.4577 51.4723 90.4578 51.4723 90.5642C51.6855 90.5642 51.6855 90.6706 51.6855 90.8834C51.6855 90.777 51.6855 90.777 51.6855 90.8834Z" fill="white"/>
</g>
<defs>
<clipPath id="clip0_3018_9837">
<rect width="146" height="116" fill="white"/>
</clipPath>
</defs>
</svg>
