<svg width="32" height="32" viewBox="0 0 32 32" fill="none" xmlns="http://www.w3.org/2000/svg">
<g opacity="0.5">
<path fill-rule="evenodd" clip-rule="evenodd" d="M9.13775 7.1513C9.97103 6.31169 10.9622 5.64519 12.0541 5.19017C13.146 4.73515 14.3171 4.5006 15.5 4.50002C17.885 4.50002 20.174 5.45253 21.8623 7.1513C23.5528 8.85487 24.501 11.1579 24.5 13.5579C24.5 17.7024 22.202 21.454 19.808 24.2238C18.7992 25.3854 17.7054 26.4704 16.5358 27.4698C16.1975 27.7598 15.8522 28.0414 15.5 28.3143C15.148 28.0412 14.8027 27.7596 14.4642 27.4698C13.2946 26.4704 12.2008 25.3854 11.192 24.2238C8.798 21.454 6.5 17.7024 6.5 13.5579C6.5 11.1541 7.4495 8.85007 9.13775 7.1513ZM15.068 29.8631L15.5 29.2503L15.932 29.8631C15.8056 29.9522 15.6547 30 15.5 30C15.3453 30 15.1944 29.9522 15.068 29.8631ZM15.068 29.8631L15.5 29.2503L15.932 29.8631L15.935 29.8616L15.9425 29.8563L15.965 29.8391L16.0535 29.7753C16.1295 29.7198 16.237 29.6388 16.376 29.5323C16.652 29.3208 17.0435 29.0096 17.5107 28.6098C18.7373 27.5614 19.8842 26.4233 20.942 25.2048C23.423 22.3352 26 18.2402 26 13.5571C26 10.7596 24.8945 8.07456 22.9265 6.09454C21.9538 5.1145 20.7969 4.33654 19.5223 3.80545C18.2478 3.27436 16.8808 3.00062 15.5 3C14.1193 3.00052 12.7523 3.27414 11.4777 3.80511C10.2032 4.33607 9.04624 5.11389 8.0735 6.09379C6.10378 8.07848 4.99892 10.7617 5 13.5579C5 18.2402 7.577 22.3352 10.058 25.2048C11.1158 26.4233 12.2627 27.5614 13.4893 28.6098C13.9573 29.0096 14.348 29.3208 14.624 29.5323C14.7594 29.6366 14.8962 29.7391 15.0342 29.8398L15.0582 29.8563L15.065 29.8616L15.068 29.8631ZM12.5 13.5001C12.5 12.7045 12.8161 11.9414 13.3787 11.3788C13.9413 10.8162 14.7044 10.5001 15.5 10.5001C16.2956 10.5001 17.0587 10.8162 17.6213 11.3788C18.1839 11.9414 18.5 12.7045 18.5 13.5001C18.5 14.2958 18.1839 15.0589 17.6213 15.6215C17.0587 16.1841 16.2956 16.5002 15.5 16.5002C14.7044 16.5002 13.9413 16.1841 13.3787 15.6215C12.8161 15.0589 12.5 14.2958 12.5 13.5001ZM15.5 9.00007C14.3065 9.00007 13.1619 9.47419 12.318 10.3181C11.4741 11.162 11 12.3066 11 13.5001C11 14.6936 11.4741 15.8382 12.318 16.6822C13.1619 17.5261 14.3065 18.0002 15.5 18.0002C16.6935 18.0002 17.8381 17.5261 18.682 16.6822C19.5259 15.8382 20 14.6936 20 13.5001C20 12.3066 19.5259 11.162 18.682 10.3181C17.8381 9.47419 16.6935 9.00007 15.5 9.00007Z" fill="white"/>
</g>
</svg>
