<svg width="24" height="24" viewBox="0 0 24 24" fill="none" xmlns="http://www.w3.org/2000/svg">
<path d="M22.5 9.37504H19.125V9.00004C19.125 8.90058 19.0855 8.8052 19.0152 8.73488C18.9448 8.66455 18.8495 8.62504 18.75 8.62504H12.75C12.6505 8.62504 12.5552 8.66455 12.4848 8.73488C12.4145 8.8052 12.375 8.90058 12.375 9.00004V9.37504H5.625V4.87504C5.625 4.47722 5.78304 4.09568 6.06434 3.81438C6.34564 3.53308 6.72718 3.37504 7.125 3.37504C7.47501 3.37487 7.81472 3.49347 8.08857 3.71146C8.36241 3.92944 8.55418 4.2339 8.6325 4.57504C8.65239 4.67251 8.71019 4.75808 8.79317 4.81294C8.87616 4.86779 8.97753 4.88743 9.075 4.86754C9.17247 4.84765 9.25804 4.78985 9.31289 4.70687C9.36775 4.62388 9.38739 4.52251 9.3675 4.42504C9.25727 3.91311 8.97417 3.45474 8.56579 3.12694C8.15742 2.79915 7.64865 2.62192 7.125 2.62504C6.52826 2.62504 5.95597 2.86209 5.53401 3.28405C5.11205 3.70601 4.875 4.2783 4.875 4.87504V9.37504H1.5C1.40054 9.37504 1.30516 9.41455 1.23483 9.48488C1.16451 9.5552 1.125 9.65058 1.125 9.75004V13.5C1.12649 14.7925 1.64058 16.0316 2.5545 16.9455C3.46842 17.8595 4.70753 18.3736 6 18.375H6.375V20.25C6.375 20.3495 6.41451 20.4449 6.48483 20.5152C6.55516 20.5855 6.65054 20.625 6.75 20.625C6.84946 20.625 6.94484 20.5855 7.01517 20.5152C7.08549 20.4449 7.125 20.3495 7.125 20.25V18.375H16.875V20.25C16.875 20.3495 16.9145 20.4449 16.9848 20.5152C17.0552 20.5855 17.1505 20.625 17.25 20.625C17.3495 20.625 17.4448 20.5855 17.5152 20.5152C17.5855 20.4449 17.625 20.3495 17.625 20.25V18.375H18C19.2925 18.3736 20.5316 17.8595 21.4455 16.9455C22.3594 16.0316 22.8735 14.7925 22.875 13.5V9.75004C22.875 9.65058 22.8355 9.5552 22.7652 9.48488C22.6948 9.41455 22.5995 9.37504 22.5 9.37504ZM13.125 9.37504H18.375V13.125H13.125V9.37504ZM22.125 13.5C22.1238 14.5937 21.6888 15.6422 20.9154 16.4155C20.1421 17.1888 19.0936 17.6238 18 17.625H6C4.90636 17.6238 3.85787 17.1888 3.08455 16.4155C2.31124 15.6422 1.87624 14.5937 1.875 13.5V10.125H12.375V13.5C12.375 13.5995 12.4145 13.6949 12.4848 13.7652C12.5552 13.8355 12.6505 13.875 12.75 13.875H18.75C18.8495 13.875 18.9448 13.8355 19.0152 13.7652C19.0855 13.6949 19.125 13.5995 19.125 13.5V10.125H22.125V13.5Z" fill="#333333"/>
</svg>
