<svg width="32" height="32" viewBox="0 0 32 32" fill="none" xmlns="http://www.w3.org/2000/svg">
<g>
<path d="M1.03409 7.75H5.1625C5.41314 8.2825 5.6648 8.83043 5.91838 9.38253C6.69847 11.081 7.49673 12.8189 8.33919 14.2691C8.93912 15.3017 9.58884 16.2396 10.3115 16.9502C11.035 17.6617 11.8787 18.1908 12.8611 18.305C13.0737 18.3297 13.2867 18.2624 13.4465 18.1201C13.6063 17.9778 13.6977 17.774 13.6977 17.56V9.31385C13.6977 9.14221 13.6388 8.97577 13.5309 8.8423L12.6478 7.75H18.1628V16.4441C18.1628 16.7249 18.3196 16.9821 18.5692 17.1107C18.8187 17.2394 19.1192 17.2179 19.3479 17.055C21.2079 15.7302 22.4206 14.0717 23.4246 12.3784C23.8281 11.698 24.2042 11.0004 24.5718 10.3186C24.6587 10.1574 24.7452 9.99713 24.8314 9.83815C25.2209 9.11985 25.6094 8.42128 26.0332 7.75H30.0224C29.0165 10.8644 27.3384 13.1479 25.5847 15.5343C25.361 15.8388 25.1361 16.1449 24.9111 16.4547C24.6798 16.7731 24.734 17.2162 25.0353 17.4694C27.4303 19.4832 29.3928 21.9553 30.81 24.7362H26.3443C25.8848 24.3165 25.4644 23.8557 25.0377 23.3702C24.9453 23.265 24.8521 23.1581 24.7579 23.05C24.3634 22.5974 23.9524 22.1258 23.5157 21.6879C22.4076 20.5765 21.0651 19.6074 19.0259 19.2965C18.8097 19.2636 18.5899 19.3266 18.4241 19.4691C18.2582 19.6115 18.1628 19.8193 18.1628 20.0379V24.8114C12.6062 25.2786 8.82402 22.5028 6.12979 18.7588C3.58392 15.2211 2.0649 10.8867 1.03409 7.75Z" stroke="#333333" stroke-width="1.5" stroke-linecap="round" stroke-linejoin="round"/>
</g>
</svg>
