<svg width="60" height="60" viewBox="0 0 60 60" fill="none" xmlns="http://www.w3.org/2000/svg">
<g clip-path="url(#clip0_483_100549)">
<path d="M56.768 0.0742188H21.9129C20.1307 0.0742188 18.6809 1.52406 18.6809 3.30625V6.94727C15.0011 7.40148 11.5976 9.05629 8.93402 11.72C5.77395 14.88 4.03359 19.0819 4.03359 23.5516V34.4751C1.59738 35.6194 0 38.0966 0 40.8227C0 42.6936 0.728906 44.4536 2.05277 45.779C2.79621 46.5223 3.71086 47.0972 4.69805 47.4416C5.15672 47.6016 5.65758 47.3595 5.81742 46.9013C5.97727 46.443 5.73539 45.9418 5.27707 45.7819C4.5382 45.5242 3.85312 45.0933 3.29602 44.5363C2.30414 43.5433 1.75781 42.2244 1.75781 40.8227C1.75781 38.6226 3.14637 36.6388 5.21309 35.8864C5.56031 35.7599 5.79141 35.4299 5.79141 35.0605V23.5516C5.79141 19.5515 7.34895 15.7909 10.1769 12.9628C13.005 10.1348 16.7651 8.57734 20.7645 8.57734C29.0212 8.57734 35.7387 15.2948 35.7387 23.5516V35.0605C35.7387 35.43 35.9698 35.7602 36.317 35.8865C37.3198 36.2514 38.1782 36.9058 38.8001 37.78C39.4352 38.6703 39.771 39.7225 39.771 40.8227C39.771 43.7061 37.4348 46.0533 34.5559 46.0729L9.05976 46.0738C8.57438 46.0738 8.18086 46.4673 8.18086 46.9527C8.18086 47.4381 8.57438 47.8316 9.05976 47.8316H15.4957V49.6062C10.8475 50.9968 6.87574 54.2002 4.5423 58.6411C4.3991 58.9136 4.40895 59.2411 4.56809 59.5044C4.72723 59.7679 5.01258 59.9289 5.32031 59.9289H27.7758C28.2612 59.9289 28.6547 59.5354 28.6547 59.05C28.6547 58.5646 28.2612 58.1711 27.7758 58.1711H6.84973C9.88617 53.4616 15.0916 50.5926 20.7645 50.5926C26.437 50.5926 31.6418 53.4616 34.6772 58.1711H31.875C31.3896 58.1711 30.9961 58.5646 30.9961 59.05C30.9961 59.5354 31.3896 59.9289 31.875 59.9289H36.2062C36.514 59.9289 36.7993 59.7679 36.9585 59.5046C37.1176 59.2412 37.1275 58.9137 36.9844 58.6414C34.6519 54.2004 30.681 50.997 26.0332 49.6063V47.8316H56.768C58.5502 47.8316 60 46.3817 60 44.5996V3.30625C60 1.52406 58.55 0.0742188 56.768 0.0742188ZM37.4965 34.4746V32.4784C38.0167 32.7194 38.5793 32.8397 39.142 32.8397C40.1426 32.8397 41.1431 32.4589 41.9047 31.6971C42.248 31.3539 42.248 30.7974 41.9047 30.4543C41.5615 30.111 41.005 30.111 40.6618 30.4543C39.8238 31.2921 38.4604 31.2921 37.6222 30.4543C37.583 30.415 37.5407 30.3809 37.4965 30.3505V23.5516C37.4965 22.4613 37.3904 21.3954 37.1904 20.3628C38.6991 19.8136 40.0575 19.1041 41.2427 18.2426C42.4562 19.3738 45.5153 21.6487 50.4912 21.6487H50.4923H50.8561C51.4579 21.6487 52.0241 21.8834 52.4503 22.3096C52.8757 22.7351 53.1101 23.3012 53.1101 23.9038C53.1101 25.6947 51.9023 27.2646 50.173 27.7217C49.8275 27.813 49.5717 28.1044 49.526 28.4588C49.0232 32.3488 46.301 35.6982 42.591 36.9914C42.2379 37.1145 42.0014 37.4475 42.0014 37.8214V38.8122C42.0014 39.3876 41.824 39.9373 41.5151 40.3988C41.437 39.0848 40.998 37.8343 40.2319 36.7601C39.525 35.7666 38.5876 34.9853 37.4965 34.4746ZM54.3971 28.912C54.9224 29.6481 55.2 30.5179 55.2 31.427C55.2 33.8214 53.252 35.7693 50.8577 35.7693H47.7673C48.0606 35.4773 48.3408 35.1703 48.605 34.848C49.9359 33.224 50.8213 31.2955 51.1842 29.2411C51.9988 28.9329 52.7156 28.4473 53.2956 27.8366C53.7204 28.1255 54.0955 28.4888 54.3971 28.912ZM41.2001 42.9434C42.213 42.4368 42.9964 41.5734 43.4166 40.5459C46.4108 41.5074 48.9981 43.4623 50.7489 46.073H39.1559C40.0952 45.2425 40.8112 44.1655 41.2001 42.9434ZM24.2754 49.1739C23.1322 48.9521 21.958 48.8348 20.7645 48.8348C19.5709 48.8348 18.3967 48.9521 17.2535 49.1739V47.8316H21.9129H24.2754V49.1739ZM58.2422 44.5996C58.2422 45.4125 57.5808 46.0738 56.768 46.0738H52.8141C50.8283 42.5863 47.5798 39.983 43.7592 38.811V38.4284C44.3766 38.1767 44.97 37.8743 45.5354 37.5271H50.8577C54.2214 37.5271 56.9578 34.7907 56.9578 31.427C56.9578 30.1497 56.5672 28.927 55.8282 27.8914C55.4087 27.3029 54.887 26.7967 54.2958 26.3924C54.6636 25.6343 54.8679 24.7878 54.8679 23.9038C54.8679 22.8317 54.4507 21.8241 53.6933 21.0667C53.638 21.0114 53.5809 20.9584 53.523 20.9068V18.7681C53.523 18.2827 53.1295 17.8892 52.6441 17.8892C52.1588 17.8892 51.7652 18.2827 51.7652 18.7681V19.9949C51.4705 19.927 51.1662 19.8909 50.8562 19.8909H50.4925C50.4921 19.8909 50.4916 19.8909 50.4913 19.8909C44.8779 19.8909 42.1198 16.6477 42.0074 16.5122C41.8598 16.3316 41.6466 16.2171 41.4145 16.1939C41.183 16.171 40.9508 16.2405 40.7704 16.3881C39.6381 17.3143 38.2925 18.0716 36.7628 18.6473C35.5103 14.5697 32.7389 11.1508 29.1112 9.05418C29.4502 8.61062 29.8196 8.18793 30.2163 7.79125C32.5996 5.40684 35.7694 4.09375 39.1419 4.09375C41.8117 4.09375 44.4015 4.93937 46.5456 6.49246L44.3222 8.71586C43.9789 9.0591 43.9789 9.61551 44.3222 9.95875C44.4938 10.1304 44.7188 10.2162 44.9436 10.2162C45.1685 10.2162 45.3935 10.1304 45.5651 9.95875L47.8978 7.62601C48.4523 8.16039 48.9534 8.74164 49.398 9.36098L46.7139 12.0452C46.3706 12.3884 46.3706 12.9448 46.7139 13.288C46.8854 13.4597 47.1104 13.5455 47.3353 13.5455C47.5602 13.5455 47.7852 13.4597 47.9568 13.288L50.344 10.9008C50.9762 12.1166 51.4126 13.4335 51.6206 14.8039C51.6866 15.2391 52.0614 15.5511 52.4885 15.5511C52.5323 15.5511 52.5768 15.5478 52.6214 15.541C53.1013 15.4682 53.4314 15.0201 53.3585 14.5402C53.0934 12.7932 52.5059 11.1214 51.6411 9.60367L56.7567 4.48809C57.1 4.14484 57.1 3.58844 56.7567 3.2452C56.4136 2.90195 55.8571 2.90195 55.5138 3.2452L50.6569 8.10215C50.2003 7.49219 49.6941 6.9168 49.1416 6.38219L51.0356 4.4882C51.3789 4.14496 51.3789 3.58855 51.0356 3.24531C50.6924 2.90207 50.1359 2.90207 49.7927 3.24531L47.8029 5.23516C45.3172 3.35922 42.2775 2.33594 39.1419 2.33594C35.2997 2.33594 31.6883 3.83207 28.9732 6.54848C28.445 7.07664 27.9587 7.64547 27.521 8.24594C25.4536 7.32976 23.1677 6.81953 20.7646 6.81953C20.6558 6.81953 20.5473 6.82141 20.4388 6.82352V3.30625C20.4388 2.49332 21.1002 1.83203 21.913 1.83203H56.7681C57.581 1.83203 58.2423 2.49332 58.2423 3.30625V44.5996H58.2422Z" fill="#836851"/>
<path d="M50.7678 26.4072C50.7782 26.4072 50.7889 26.407 50.7995 26.4066C51.2845 26.3893 51.6638 25.9871 51.6465 25.5021C51.6465 25.4952 51.6447 24.8109 52.1348 24.3207C52.478 23.9775 52.4779 23.4209 52.1348 23.0777C51.7914 22.7345 51.2352 22.7346 50.8918 23.0777C49.8682 24.1015 49.8843 25.4088 49.8896 25.5545C49.9065 26.0292 50.2967 26.4072 50.7678 26.4072Z" fill="#836851"/>
<path d="M43.0156 26.4898C43.501 26.4898 43.8945 26.0963 43.8945 25.6109V23.4102C43.8945 22.9248 43.501 22.5312 43.0156 22.5312C42.5302 22.5312 42.1367 22.9248 42.1367 23.4102V25.6109C42.1367 26.0963 42.5302 26.4898 43.0156 26.4898Z" fill="#836851"/>
</g>
<defs>
<clipPath id="clip0_483_100549">
<rect width="60" height="60" fill="white"/>
</clipPath>
</defs>
</svg>
