<svg width="48" height="48" viewBox="0 0 48 48" fill="none" xmlns="http://www.w3.org/2000/svg">
<g clip-path="url(#clip0_2013_2683)">
<path d="M25.8539 21.6326C25.5803 21.3609 25.1382 21.3622 24.8665 21.6357L24.8592 21.6431C24.5874 21.9166 24.5888 22.3587 24.8622 22.6305C24.9985 22.7658 25.1764 22.8334 25.3544 22.8334C25.5338 22.8334 25.7132 22.7647 25.8496 22.6274L25.8569 22.62C26.1287 22.3465 26.1273 21.9044 25.8539 21.6326Z" fill="#836851"/>
<path d="M28.4188 24.1976C28.1444 23.9266 27.7023 23.9293 27.4314 24.2036L27.4242 24.211C27.1531 24.4853 27.1558 24.9275 27.4302 25.1985C27.5663 25.3328 27.7436 25.3999 27.9209 25.3999C28.1011 25.3999 28.2811 25.3307 28.4177 25.1924L28.4249 25.185C28.6959 24.9106 28.6932 24.4685 28.4188 24.1976Z" fill="#836851"/>
<path d="M30.9852 26.764C30.7109 26.493 30.2687 26.4957 29.9978 26.77L29.9906 26.7774C29.7196 27.0517 29.7223 27.4939 29.9966 27.7648C30.1327 27.8991 30.31 27.9662 30.4873 27.9662C30.6675 27.9662 30.8475 27.897 30.9841 27.7586L30.9913 27.7514C31.2623 27.4771 31.2596 27.0349 30.9852 26.764Z" fill="#836851"/>
<path d="M33.5548 29.3334C33.2821 29.0608 32.84 29.0608 32.5672 29.3333L32.56 29.3405C32.2873 29.6133 32.2873 30.0553 32.56 30.3281C32.6964 30.4644 32.8751 30.5326 33.0538 30.5326C33.2324 30.5326 33.4112 30.4644 33.5476 30.3281L33.5548 30.3209C33.8275 30.0481 33.8275 29.6061 33.5548 29.3334Z" fill="#836851"/>
<path d="M25.3869 24.7826C25.1141 24.51 24.6721 24.51 24.3993 24.7826L24.392 24.7898C24.1193 25.0626 24.1193 25.5046 24.392 25.7773C24.5284 25.9136 24.7072 25.9818 24.8858 25.9818C25.0645 25.9818 25.2432 25.9136 25.3796 25.7773L25.3869 25.7701C25.6596 25.4973 25.6596 25.0553 25.3869 24.7826Z" fill="#836851"/>
<path d="M27.9523 27.3489C27.6795 27.0764 27.2375 27.0764 26.9647 27.349L26.9574 27.3563C26.6848 27.629 26.6848 28.0711 26.9574 28.3438C27.0938 28.48 27.2726 28.5482 27.4512 28.5482C27.6299 28.5482 27.8086 28.48 27.945 28.3438L27.9523 28.3365C28.225 28.0637 28.225 27.6217 27.9523 27.3489Z" fill="#836851"/>
<path d="M30.5187 29.9154C30.2459 29.6428 29.8038 29.6428 29.5311 29.9154L29.5239 29.9226C29.2512 30.1954 29.2512 30.6375 29.5239 30.9101C29.6602 31.0464 29.839 31.1146 30.0176 31.1146C30.1963 31.1146 30.3751 31.0464 30.5114 30.9101L30.5187 30.9029C30.7914 30.6301 30.7914 30.1881 30.5187 29.9154Z" fill="#836851"/>
<path d="M47.6291 46.6443L40.5274 39.5426C40.7424 39.0858 40.782 38.5598 40.6242 38.0585C40.6025 37.9739 40.6647 38.1483 39.401 35.0058C40.0335 33.9723 39.833 31.2023 37.9283 29.2976L36.9462 28.3155C36.6734 28.0428 36.2313 28.043 35.9587 28.3155C35.6861 28.5883 35.6861 29.0303 35.9587 29.303C36.3673 29.8542 38.5368 31.1695 38.3024 34.0042C38.2903 34.151 38.2224 34.2932 38.111 34.4045C34.2739 38.1469 34.4531 38.2754 33.9275 38.3105C32.5692 38.4017 31.2421 37.9031 30.2825 36.9434L28.6077 35.2686L29.2019 34.6743C29.4746 34.4016 29.4746 33.9595 29.2019 33.6868C28.9291 33.4143 28.4871 33.4143 28.2144 33.6868L27.6201 34.2811L26.0415 32.7024L26.6357 32.1082C26.9084 31.8354 26.9084 31.3934 26.6357 31.1207C26.3629 30.8481 25.9209 30.8481 25.6482 31.1207L25.054 31.7149L23.4752 30.1361L24.0694 29.5419C24.342 29.2692 24.342 28.8271 24.0693 28.5545C23.7967 28.2819 23.3545 28.2818 23.0819 28.5546L22.4877 29.1487L20.9087 27.5698L21.5029 26.9756C21.7756 26.7028 21.7756 26.2608 21.5029 25.9881C21.2301 25.7155 20.7881 25.7155 20.5154 25.9881L19.9212 26.5823L17.5304 24.1914L18.5226 23.1992C18.7954 22.9265 18.7954 22.4844 18.5227 22.2118C18.25 21.9391 17.808 21.939 17.5352 22.2118L16.543 23.204C16.4287 23.0898 15.6997 22.3607 15.619 22.2801C16.911 20.9881 19.7757 18.1234 22.2773 15.6218C22.3978 15.7423 23.1593 16.5039 23.2013 16.5457L19.8394 19.9076C19.5667 20.1803 19.5667 20.6225 19.8395 20.8951C20.1121 21.1679 20.5542 21.1678 20.827 20.8951L24.1889 17.5332L33.6549 26.9993C33.9275 27.272 34.3696 27.2719 34.6424 26.999C34.9151 26.7262 34.9149 26.2841 34.6421 26.0116C33.6465 25.016 21.1388 12.5083 19.4578 10.8273L20.6101 9.67504C21.4091 8.87579 21.4091 7.57548 20.61 6.77604C19.8108 5.97687 18.5103 5.97687 17.7111 6.77604L17.711 6.77613L14.6474 9.83983L9.472 4.66409L10.4649 3.67119C11.7506 2.3853 10.8346 0.171875 9.01544 0.171875C8.46792 0.171875 7.95318 0.385165 7.56617 0.77227L6.30123 2.03655C6.02845 2.30924 6.02845 2.75137 6.30114 3.02405C6.57383 3.29665 7.01595 3.29674 7.28855 3.02405C8.45824 1.92679 8.5587 1.56827 9.01497 1.56827C9.59908 1.56827 9.88489 2.27582 9.47693 2.68359C9.24893 2.91159 3.89556 8.26506 2.68089 9.47972C2.42599 9.73444 2.01151 9.73444 1.75689 9.47972C1.50217 9.225 1.50217 8.81053 1.75689 8.55581L4.98463 5.32816C5.25731 5.05547 5.25731 4.61335 4.98463 4.34066C4.71194 4.06797 4.26991 4.06788 3.99713 4.34066L0.769385 7.5684C-0.523108 8.86089 0.404996 11.0667 2.21884 11.0667C3.4714 11.0667 3.92842 10.0829 4.6612 9.47441L9.83676 14.65L6.77324 17.7135C5.49248 18.9941 6.39275 21.2128 8.22252 21.2128C9.48475 21.2128 9.93777 20.2165 10.8242 19.4603C14.9553 23.5915 25.7471 34.3833 29.2948 37.931C30.5394 39.1755 32.2621 39.8221 34.0207 39.704C34.382 39.6799 34.7266 39.566 35.0276 39.3794C38.0969 40.6197 38.0645 40.7224 38.6721 40.7224C38.9719 40.7224 39.2665 40.6543 39.5373 40.5276L46.6415 47.6318C46.9144 47.9045 47.3563 47.9044 47.629 47.6318C47.9019 47.3591 47.9019 46.917 47.6291 46.6443ZM16.5429 19.381L13.7233 16.5613L16.5587 13.7259L19.3784 16.5455C18.7513 17.1726 17.1694 18.7544 16.5429 19.381ZM21.2896 14.6341L20.3657 15.5581L17.546 12.7385L18.4699 11.8146L21.2896 14.6341ZM5.6488 8.48691L8.48431 5.6514L13.6598 10.827L10.8244 13.6624L5.6488 8.48691ZM8.68457 19.625C8.56121 19.7484 8.39717 19.8163 8.22261 19.8163C7.6386 19.8163 7.35279 19.1089 7.76075 18.701C8.88817 17.5736 17.3741 9.0875 18.6983 7.76335H18.6982C18.9531 7.50854 19.3674 7.50863 19.6222 7.76326C19.8769 8.01807 19.8769 8.43254 19.6222 8.68726C16.8143 11.4952 10.5707 17.7389 8.68457 19.625ZM14.6314 21.2924L11.8118 18.4727L12.7357 17.5488L15.5553 20.3685L14.6314 21.2924ZM39.1318 39.1345C39.117 39.143 38.8814 39.4219 38.4726 39.2948C38.4632 39.2919 36.1655 38.3385 36.1561 38.3346L38.3519 36.1388C38.973 37.6807 39.1915 38.2189 39.2592 38.3842C39.2565 38.3789 39.261 38.392 39.2823 38.4479C39.4212 38.8966 39.1263 39.1438 39.1318 39.1345Z" fill="#836851"/>
</g>
<defs>
<clipPath id="clip0_2013_2683">
<rect width="47.6667" height="47.6667" fill="white" transform="translate(0.166992 0.167969)"/>
</clipPath>
</defs>
</svg>
