<svg width="44" height="44" viewBox="0 0 44 44" fill="none" xmlns="http://www.w3.org/2000/svg">
<g clip-path="url(#clip0_2013_2711)">
<path d="M13.3334 4.6719C11.3397 4.6719 9.72335 3.05559 9.72335 1.06185C9.72335 0.663124 9.40007 0.339844 9.00134 0.339844C8.60261 0.339844 8.27933 0.663124 8.27933 1.06185C8.27933 3.05559 6.66302 4.6719 4.66928 4.6719C4.27055 4.6719 3.94727 4.99518 3.94727 5.39391C3.94727 5.79264 4.27055 6.11592 4.66928 6.11592C6.66302 6.11592 8.27933 7.73223 8.27933 9.72598C8.27933 10.1247 8.60261 10.448 9.00134 10.448C9.40007 10.448 9.72335 10.1247 9.72335 9.72598C9.72335 7.73223 11.3397 6.11592 13.3334 6.11592C13.7321 6.11592 14.0554 5.79264 14.0554 5.39391C14.0554 4.99518 13.7322 4.6719 13.3334 4.6719ZM9.00134 7.13396C8.57354 6.41944 7.97581 5.82171 7.26129 5.39391C7.97581 4.96612 8.57354 4.36839 9.00134 3.65387C9.42913 4.36839 10.0269 4.96612 10.7414 5.39391C10.0269 5.82171 9.42913 6.41944 9.00134 7.13396Z" fill="#836851"/>
<path d="M28.4959 4.58594C22.4667 4.58594 17.5791 9.47359 17.5791 15.5027C17.5831 21.5303 22.4684 26.4156 28.4959 26.4195C34.525 26.4195 39.4127 21.5319 39.4127 15.5027C39.4127 9.47359 34.5251 4.58594 28.4959 4.58594ZM28.4959 24.9755C23.2642 24.9755 19.0231 20.7344 19.0231 15.5027C19.0311 10.2744 23.2675 6.0379 28.4959 6.02996C33.7276 6.02996 37.9687 10.271 37.9687 15.5027C37.9687 20.7343 33.7276 24.9755 28.4959 24.9755Z" fill="#836851"/>
<path d="M28.4955 8.28125C24.5079 8.28125 21.2754 11.5138 21.2754 15.5014C21.2754 15.9001 21.5987 16.2234 21.9974 16.2234C22.3961 16.2234 22.7194 15.9001 22.7194 15.5014C22.7194 12.3113 25.3055 9.72527 28.4955 9.72527C28.8942 9.72527 29.2175 9.40199 29.2175 9.00326C29.2175 8.60453 28.8943 8.28125 28.4955 8.28125Z" fill="#836851"/>
<path d="M37.0873 2.99779C30.1849 -1.74338 20.746 0.00866577 16.0048 6.91108C12.4523 12.0828 12.4523 18.9085 16.0048 24.0803L0.546582 39.5385C0.263464 39.8193 0.261569 40.2765 0.542431 40.5596C0.543784 40.5611 0.545228 40.5624 0.546582 40.5638L3.43462 43.4518C3.71539 43.735 4.17261 43.7369 4.45573 43.456C4.45717 43.4546 4.45852 43.4532 4.45988 43.4518L19.9181 27.9936C26.8205 32.7348 36.2595 30.9827 41.0006 24.0803C45.7418 17.1779 43.9897 7.73896 37.0873 2.99779ZM3.94725 41.9212L2.07724 40.0512L4.66926 37.4592L6.53927 39.3292L3.94725 41.9212ZM7.5573 38.3111L5.68729 36.4411L16.8929 25.2427C17.4586 25.9166 18.0819 26.5398 18.7557 27.1055L7.5573 38.3111ZM28.4956 29.221C20.9193 29.221 14.7774 23.0791 14.7774 15.5028C14.7774 7.9265 20.9193 1.78463 28.4956 1.78463C36.0719 1.78463 42.2138 7.9265 42.2138 15.5028C42.2138 23.0791 36.072 29.221 28.4956 29.221Z" fill="#836851"/>
<path d="M38.6036 34.9974C37.4073 34.9974 36.4375 34.0277 36.4375 32.8314C36.4375 32.4327 36.1142 32.1094 35.7155 32.1094C35.3168 32.1094 34.9935 32.4327 34.9935 32.8314C34.9935 34.0277 34.0238 34.9974 32.8275 34.9974C32.4287 34.9974 32.1055 35.3207 32.1055 35.7194C32.1055 36.1182 32.4287 36.4414 32.8275 36.4414C34.0238 36.4414 34.9935 37.4112 34.9935 38.6075C34.9935 39.0062 35.3168 39.3295 35.7155 39.3295C36.1142 39.3295 36.4375 39.0062 36.4375 38.6075C36.4375 37.4112 37.4073 36.4414 38.6036 36.4414C39.0023 36.4414 39.3256 36.1182 39.3256 35.7194C39.3256 35.3207 39.0024 34.9974 38.6036 34.9974ZM35.7155 36.4414C35.5103 36.1678 35.2672 35.9247 34.9935 35.7194C35.2672 35.5142 35.5103 35.2711 35.7155 34.9974C35.9208 35.2711 36.1639 35.5142 36.4375 35.7194C36.1639 35.9247 35.9208 36.1677 35.7155 36.4414Z" fill="#836851"/>
</g>
<defs>
<clipPath id="clip0_2013_2711">
<rect width="43.3333" height="43.3333" fill="white" transform="translate(0.333008 0.332031)"/>
</clipPath>
</defs>
</svg>
