<svg width="15" height="31" viewBox="0 0 15 31" fill="none" xmlns="http://www.w3.org/2000/svg">
<path fill-rule="evenodd" clip-rule="evenodd" d="M11.5065 5.13851H14.3604V0.0382431H13.0014C12.1413 -0.0127477 11.2794 -0.0127477 10.4192 0.0382431C9.10487 -0.00249735 7.81521 0.445644 6.74986 1.31331C6.16381 1.79552 5.66948 2.40499 5.29602 3.10576C4.92256 3.80653 4.67754 4.58442 4.57541 5.39352C4.53204 6.0897 4.53204 6.78845 4.57541 7.48463C4.57541 8.60669 4.57541 9.72874 4.57541 10.7998V11.2078H0V16.7161H4.1677V30.4868H9.24142V16.7161H13.3638C13.3638 14.88 13.8168 13.0949 13.998 11.2078H9.19612C9.19612 11.2078 9.19612 8.50468 9.19612 7.33162C9.19612 6.15856 10.1474 5.18951 11.5065 5.13851Z" fill="white"/>
</svg>
