<svg width="170" height="18" viewBox="0 0 170 18" fill="none" xmlns="http://www.w3.org/2000/svg">
<g clip-path="url(#clip0_30_148)">
<path d="M10.1146 15.0566C7.34244 15.0566 3.21356 13.4837 3.21356 9.13708C3.23645 4.89488 6.78343 2.93694 10.0656 2.93694C11.504 2.93694 13.5014 3.31874 14.711 4.16718L15.0379 4.38255V1.19111L14.9268 1.13563C13.2539 0.383317 11.4394 -0.00384664 9.60466 2.88093e-05C4.83177 2.88093e-05 3.39893e-05 3.14252 3.39893e-05 9.13708C-0.0271567 10.2449 0.169896 11.3469 0.579392 12.3769C0.988888 13.4069 1.60241 14.3439 2.38321 15.1316C4.3344 16.9904 6.93378 18.018 9.63082 17.9968C11.4931 18.0015 13.3354 17.6145 15.0379 16.8612L15.1491 16.8089V13.5457L14.8222 13.7872C13.8218 14.5573 11.9682 15.0566 10.1146 15.0566Z" fill="white"/>
<path d="M57.8436 11.0589C57.8436 11.493 57.8436 11.9368 57.8436 12.3642L47.8728 0.38491L47.814 0.326172H44.9241V17.6833H48.0886V6.91464C48.0886 6.49042 48.0886 6.05641 48.0886 5.63872L58.0593 17.6213L58.1182 17.6931H61.0081V0.326172H57.8436V11.0589Z" fill="white"/>
<path d="M68.5923 17.6833H71.7568V10.7979H81.2045V7.83163H71.7568V3.25658H81.9073V0.316406H68.5923V17.6833Z" fill="white"/>
<path d="M96.6741 0C90.4137 0 87.1414 4.52611 87.1414 9C87.1414 13.4739 90.4105 17.9967 96.6741 17.9967C102.938 17.9967 106.207 13.4706 106.207 9C106.207 4.52937 102.931 0 96.6741 0ZM96.6741 2.98912C100.823 2.98912 102.993 6.01414 102.993 9C102.993 11.9859 100.823 15.0109 96.6741 15.0109C92.5256 15.0109 90.3549 11.9891 90.3549 9.00326C90.3549 6.0174 92.5158 2.98912 96.6741 2.98912Z" fill="white"/>
<path d="M127.021 5.82146C127.021 2.37548 124.504 0.326172 120.303 0.326172H112.5V17.6833H115.664V11.3298H119.61L124.713 17.6833H128.554L123.043 10.9545C125.612 10.2366 127.021 8.42552 127.021 5.82146ZM123.808 5.87041C123.808 8.15467 121.679 8.481 120.411 8.481H115.664V3.23371H120.411C121.961 3.23371 123.808 3.69057 123.808 5.87367V5.87041Z" fill="white"/>
<path d="M146.6 11.0589C146.6 14.518 143.674 15.0336 141.931 15.0336C140.189 15.0336 137.214 14.518 137.214 11.0589V0.326172H134.05V11.2058C134.05 17.5071 140.081 17.9966 141.931 17.9966C143.782 17.9966 149.777 17.5071 149.777 11.2058V0.326172H146.613L146.6 11.0589Z" fill="white"/>
<path d="M163.625 7.50526C161.406 6.82324 159.493 6.23586 159.493 4.78046C159.493 3.05094 162.229 2.91715 163.069 2.91715C165.002 2.89105 167.202 3.45559 168.454 4.29097L168.761 4.49329V1.36712L168.663 1.31164C167.326 0.538255 164.936 0.00634766 162.847 0.00634766C159.683 0.00634766 156.28 1.51722 156.28 4.83593C156.28 8.30475 159.588 9.33267 162.491 10.2366C164.779 10.9512 166.773 11.5647 166.773 13.1735C166.773 14.8345 164.259 15.0858 162.762 15.0858C160.529 15.0858 158.241 14.4723 156.642 13.4541L156.338 13.2551V16.4498L156.44 16.5053C158.074 17.4353 160.582 18.0096 162.955 18.0096H163.056C165.538 18.0096 167.551 17.357 168.738 16.1855C169.153 15.7724 169.479 15.2786 169.695 14.7346C169.911 14.1907 170.013 13.6082 169.993 13.0234C169.993 9.4632 166.613 8.42549 163.625 7.50526Z" fill="white"/>
<path d="M29.7882 0C23.5377 0 20.2686 4.52611 20.2686 9C20.2686 13.4739 23.5377 17.9967 29.7882 17.9967C36.0387 17.9967 39.3209 13.4706 39.3209 9C39.3209 4.52937 36.0453 0 29.7882 0ZM34.0151 13.9307C34.0144 14.1955 33.944 14.4553 33.8111 14.6843C33.6781 14.9134 33.4871 15.1035 33.2574 15.2357C33.0276 15.3678 32.7671 15.4375 32.5019 15.4375C32.2368 15.4376 31.9762 15.3681 31.7464 15.236L23.1879 10.3086C22.9593 10.1755 22.7696 9.985 22.6377 9.75597C22.5059 9.52694 22.4365 9.26741 22.4365 9.00326C22.4365 8.73912 22.5059 8.47959 22.6377 8.25056C22.7696 8.02153 22.9593 7.831 23.1879 7.69797L31.7464 2.75743C31.9762 2.62536 32.2368 2.55588 32.5019 2.55595C32.7671 2.55602 33.0276 2.62563 33.2574 2.75781C33.4871 2.89 33.6781 3.08012 33.8111 3.30913C33.944 3.53815 34.0144 3.79802 34.0151 4.06273V13.9307Z" fill="white"/>
</g>
<defs>
<clipPath id="clip0_30_148">
<rect width="170" height="18" fill="white"/>
</clipPath>
</defs>
</svg>
