<svg width="25" height="24" viewBox="0 0 25 24" fill="none" xmlns="http://www.w3.org/2000/svg">
<path fill-rule="evenodd" clip-rule="evenodd" d="M7.38408 18.7652C6.31276 18.7312 5.27681 18.3261 4.41747 17.605C3.55814 16.8839 2.91724 15.882 2.58216 14.7358C3.31349 14.9154 4.07059 14.9154 4.80192 14.7358C4.11522 14.5829 3.46525 14.2674 2.89511 13.8101C2.32497 13.3529 1.84769 12.7643 1.49494 12.0836C0.955068 11.182 0.685236 10.1098 0.724821 9.02336C1.44287 9.43847 2.22952 9.68161 3.03517 9.73742C1.95574 8.90965 1.19496 7.65214 0.906025 6.21813C0.583612 4.78156 0.779034 3.25971 1.44964 1.98478C2.73882 3.77799 4.34909 5.24527 6.17554 6.29104C8.00199 7.33682 10.0036 7.93762 12.0501 8.05429C12.0501 8.05429 12.0501 7.64625 12.0501 7.44223C11.8995 6.11148 12.1551 4.76263 12.7749 3.61691C13.1517 2.92227 13.6595 2.32926 14.2622 1.87979C14.8649 1.43031 15.548 1.13534 16.2631 1.0157C17.0792 0.850266 17.9188 0.912535 18.7085 1.19707C19.4983 1.4816 20.214 1.97972 20.7932 2.64784C20.8345 2.6747 20.8814 2.68884 20.9291 2.68884C20.9768 2.68884 21.0237 2.6747 21.065 2.64784C22.114 2.39852 23.1225 1.96842 24.0549 1.37273C23.6815 2.68107 22.9119 3.80025 21.8804 4.53499C22.8675 4.42383 23.8316 4.1309 24.7344 3.66792L24.1455 4.586C23.5941 5.32487 22.9711 5.99206 22.2881 6.57516C22.356 7.44055 22.356 8.31099 22.2881 9.17637C22.0965 10.945 21.6529 12.6672 20.9744 14.2768C20.2614 15.9657 19.3132 17.5153 18.1657 18.8672C16.2649 21.1199 13.7999 22.6676 11.0988 23.3045C10.1595 23.5239 9.20395 23.6435 8.2448 23.6616C5.34161 23.7852 2.47145 22.9329 0 21.2134C1.75497 21.432 3.5306 21.1514 5.16432 20.3973C5.95994 19.9559 6.70526 19.4079 7.38408 18.7652Z" fill="white"/>
</svg>
