<svg width="29" height="23" viewBox="0 0 29 23" fill="none" xmlns="http://www.w3.org/2000/svg">
<path fill-rule="evenodd" clip-rule="evenodd" d="M2.88584 21.6405C2.38086 21.479 1.91867 21.1807 1.53964 20.7717C1.16061 20.3628 0.876253 19.8556 0.711395 19.2945C-0.194626 16.4384 -0.466436 4.35101 1.30031 2.00494C1.90072 1.21605 2.74045 0.706987 3.65596 0.576899C10.8025 -0.0568832 17.9822 -0.0568832 25.1287 0.576899C25.6087 0.754769 26.0461 1.05412 26.4073 1.45198C26.7686 1.84983 27.044 2.33559 27.2125 2.87197C28.3454 8.35797 28.3454 14.0635 27.2125 19.5495C26.9022 20.3008 26.3754 20.9119 25.7176 21.2835C18.1443 22.3869 10.4834 22.5067 2.88584 21.6405ZM10.5417 15.9794L19.2395 10.8792L10.5417 5.77906V15.9794Z" fill="white"/>
</svg>
