<svg width="94" height="32" viewBox="0 0 94 32" fill="none" xmlns="http://www.w3.org/2000/svg">
<path d="M9.45 19.246H3.672L2.7 22H0.306L5.22 8.068H7.614L12.888 22H10.494L9.45 19.246ZM8.586 16.978L6.462 11.416L4.482 16.978H8.586ZM12.5253 10.624V8.068H22.6053V10.624H18.7533V22H16.3773V10.624H12.5253ZM24.4673 22V8.068H26.8433V19.426H32.0093V22H24.4673ZM41.8641 19.246H36.0861L35.1141 22H32.7201L37.6341 8.068H40.0281L45.3021 22H42.9081L41.8641 19.246ZM41.0001 16.978L38.8761 11.416L36.8961 16.978H41.0001ZM51.5197 10.408C50.7877 10.408 50.1877 10.558 49.7197 10.858C49.2637 11.146 49.0357 11.518 49.0357 11.974C49.0357 12.37 49.2097 12.688 49.5577 12.928C49.9177 13.168 50.3617 13.384 50.8897 13.576C51.4297 13.768 52.0117 13.966 52.6357 14.17C53.2597 14.362 53.8357 14.614 54.3637 14.926C54.9037 15.226 55.3477 15.61 55.6957 16.078C56.0557 16.546 56.2297 17.146 56.2177 17.878C56.2177 18.526 56.0977 19.114 55.8577 19.642C55.6177 20.158 55.2757 20.602 54.8317 20.974C54.3877 21.346 53.8597 21.634 53.2477 21.838C52.6357 22.042 51.9517 22.144 51.1957 22.144C50.2837 22.144 49.4077 22.012 48.5677 21.748C47.7277 21.484 47.0077 21.118 46.4077 20.65L46.8037 18.022C47.0197 18.214 47.3017 18.4 47.6497 18.58C48.0097 18.76 48.3937 18.922 48.8017 19.066C49.2217 19.21 49.6477 19.33 50.0797 19.426C50.5237 19.51 50.9317 19.552 51.3037 19.552C52.0477 19.552 52.6417 19.414 53.0857 19.138C53.5417 18.862 53.7697 18.502 53.7697 18.058C53.7697 17.686 53.5897 17.392 53.2297 17.176C52.8817 16.948 52.4377 16.744 51.8977 16.564C51.3697 16.372 50.7937 16.18 50.1697 15.988C49.5577 15.796 48.9817 15.544 48.4417 15.232C47.9137 14.92 47.4697 14.53 47.1097 14.062C46.7617 13.582 46.5877 12.964 46.5877 12.208C46.5877 11.56 46.7077 10.972 46.9477 10.444C47.1997 9.904 47.5417 9.448 47.9737 9.076C48.4177 8.692 48.9457 8.398 49.5577 8.194C50.1817 7.978 50.8657 7.87 51.6097 7.87C52.4377 7.87 53.2237 7.984 53.9677 8.212C54.7117 8.428 55.3537 8.746 55.8937 9.166L55.4797 11.794C55.2757 11.614 55.0177 11.446 54.7057 11.29C54.3937 11.122 54.0577 10.972 53.6977 10.84C53.3377 10.708 52.9657 10.606 52.5817 10.534C52.2097 10.45 51.8557 10.408 51.5197 10.408Z" fill="white"/>
<rect x="62.5" y="0.5" width="31" height="31" rx="7.5" fill="white"/>
<rect x="62.5" y="0.5" width="31" height="31" rx="7.5" stroke="white"/>
<path d="M81.0138 20.7471V17.3636L77.6055 11.1543H79.7124L82.0053 15.3062L84.2857 11.1543H86.3927L82.9844 17.3636V20.7471H81.0138Z" fill="#424242"/>
<path d="M76.8226 16.967C76.8226 18.256 76.5127 19.2268 75.8931 19.8796C75.2816 20.524 74.3893 20.8463 73.216 20.8463C72.0344 20.8463 71.1379 20.524 70.5265 19.8796C69.9151 19.2268 69.6094 18.256 69.6094 16.967V11.1543H71.58V16.967C71.58 17.5867 71.7205 18.037 72.0014 18.3179C72.2906 18.5989 72.6954 18.7393 73.216 18.7393C73.7283 18.7393 74.129 18.5989 74.4182 18.3179C74.7074 18.037 74.852 17.5867 74.852 16.967V11.1543H76.8226V16.967Z" fill="#424242"/>
</svg>
