<svg width="20" height="20" viewBox="0 0 20 20" fill="none" xmlns="http://www.w3.org/2000/svg">
<g clip-path="url(#clip0_7522_637)">
<path d="M4.16797 11.9051C2.62517 12.5857 1.66797 13.5341 1.66797 14.5832C1.66797 16.6542 5.39893 18.3332 10.0013 18.3332C14.6037 18.3332 18.3346 16.6542 18.3346 14.5832C18.3346 13.5341 17.3774 12.5857 15.8346 11.9051M15.0013 6.6665C15.0013 10.0529 11.2513 11.6665 10.0013 14.1665C8.7513 11.6665 5.0013 10.0529 5.0013 6.6665C5.0013 3.90508 7.23988 1.6665 10.0013 1.6665C12.7627 1.6665 15.0013 3.90508 15.0013 6.6665ZM10.8346 6.6665C10.8346 7.12674 10.4615 7.49984 10.0013 7.49984C9.54107 7.49984 9.16797 7.12674 9.16797 6.6665C9.16797 6.20627 9.54107 5.83317 10.0013 5.83317C10.4615 5.83317 10.8346 6.20627 10.8346 6.6665Z" stroke="#344054" stroke-width="1.66667" stroke-linecap="round" stroke-linejoin="round"/>
</g>
<defs>
<clipPath id="clip0_7522_637">
<rect width="20" height="20" fill="white"/>
</clipPath>
</defs>
</svg>
