<svg width="21" height="20" viewBox="0 0 21 20" fill="none" xmlns="http://www.w3.org/2000/svg">
<g clip-path="url(#clip0_7528_1692)">
<path d="M14.6663 19.1663C14.6663 19.6275 15.0401 20.0013 15.5013 20.0013C15.9625 20.0013 16.3363 19.6275 16.3363 19.1663H14.6663ZM16.3363 14.1663C16.3363 13.7052 15.9625 13.3313 15.5013 13.3313C15.0401 13.3313 14.6663 13.7052 14.6663 14.1663H16.3363ZM13.0013 15.8313C12.5401 15.8313 12.1663 16.2052 12.1663 16.6663C12.1663 17.1275 12.5401 17.5013 13.0013 17.5013V15.8313ZM18.0013 17.5013C18.4625 17.5013 18.8363 17.1275 18.8363 16.6663C18.8363 16.2052 18.4625 15.8313 18.0013 15.8313V17.5013ZM10.5013 17.5013C10.9625 17.5013 11.3363 17.1275 11.3363 16.6663C11.3363 16.2052 10.9625 15.8313 10.5013 15.8313V17.5013ZM3.0013 15.8313C2.54014 15.8313 2.1663 16.2052 2.1663 16.6663C2.1663 17.1275 2.54014 17.5013 3.0013 17.5013V15.8313ZM3.0013 12.498C2.54014 12.498 2.1663 12.8718 2.1663 13.333C2.1663 13.7942 2.54014 14.168 3.0013 14.168V12.498ZM13.0013 14.168C13.4625 14.168 13.8363 13.7942 13.8363 13.333C13.8363 12.8718 13.4625 12.498 13.0013 12.498V14.168ZM16.3363 19.1663V16.6663H14.6663V19.1663H16.3363ZM16.3363 16.6663V14.1663H14.6663V16.6663H16.3363ZM13.0013 17.5013H15.5013V15.8313H13.0013V17.5013ZM15.5013 17.5013H18.0013V15.8313H15.5013V17.5013ZM3.83464 1.66801H17.168V-0.00199217H3.83464V1.66801ZM17.9996 2.49967V9.16634H19.6696V2.49967H17.9996ZM17.168 9.99801H3.83464V11.668H17.168V9.99801ZM3.00297 9.16634V2.49967H1.33297V9.16634H3.00297ZM3.83464 9.99801C3.37532 9.99801 3.00297 9.62566 3.00297 9.16634H1.33297C1.33297 10.548 2.453 11.668 3.83464 11.668V9.99801ZM17.9996 9.16634C17.9996 9.62566 17.6273 9.99801 17.168 9.99801V11.668C18.5496 11.668 19.6696 10.548 19.6696 9.16634H17.9996ZM17.168 1.66801C17.6273 1.66801 17.9996 2.04036 17.9996 2.49967H19.6696C19.6696 1.11804 18.5496 -0.00199217 17.168 -0.00199217V1.66801ZM3.83464 -0.00199217C2.453 -0.00199217 1.33297 1.11804 1.33297 2.49967H3.00297C3.00297 2.04036 3.37532 1.66801 3.83464 1.66801V-0.00199217ZM10.5013 15.8313H3.0013V17.5013H10.5013V15.8313ZM3.0013 14.168H13.0013V12.498H3.0013V14.168Z" fill="#98A2B3"/>
</g>
<defs>
<clipPath id="clip0_7528_1692">
<rect width="20" height="20" fill="white" transform="translate(0.5)"/>
</clipPath>
</defs>
</svg>
