<svg width="24" height="24" viewBox="0 0 24 24" fill="none" xmlns="http://www.w3.org/2000/svg">
<path d="M21.75 8.4375H20.0625V6C20.0625 5.6519 19.9242 5.31806 19.6781 5.07192C19.4319 4.82578 19.0981 4.6875 18.75 4.6875H4.5C4.1519 4.6875 3.81806 4.82578 3.57192 5.07192C3.32578 5.31806 3.1875 5.6519 3.1875 6V8.4375H1.5C1.35082 8.4375 1.20774 8.49676 1.10225 8.60225C0.996763 8.70774 0.9375 8.85082 0.9375 9C0.9375 9.14918 0.996763 9.29226 1.10225 9.39775C1.20774 9.50324 1.35082 9.5625 1.5 9.5625H3.1875V12C3.1875 12.3481 3.32578 12.6819 3.57192 12.9281C3.81806 13.1742 4.1519 13.3125 4.5 13.3125H18.75C19.0981 13.3125 19.4319 13.1742 19.6781 12.9281C19.9242 12.6819 20.0625 12.3481 20.0625 12V9.5625H21.75C21.7997 9.5625 21.8474 9.58225 21.8826 9.61742C21.9177 9.65258 21.9375 9.70027 21.9375 9.75V14.4375C21.9374 14.4782 21.9241 14.5178 21.8996 14.5502C21.8751 14.5827 21.8407 14.6063 21.8016 14.6175L12.3891 17.3063C12.1163 17.3852 11.8763 17.5501 11.7049 17.7765C11.5334 18.0029 11.4396 18.2785 11.4375 18.5625V21.75C11.4375 21.8992 11.4968 22.0423 11.6023 22.1477C11.7077 22.2532 11.8508 22.3125 12 22.3125C12.1492 22.3125 12.2923 22.2532 12.3977 22.1477C12.5032 22.0423 12.5625 21.8992 12.5625 21.75V18.5625C12.5626 18.5218 12.5759 18.4822 12.6004 18.4498C12.6249 18.4173 12.6593 18.3937 12.6984 18.3825L22.1109 15.6937C22.3837 15.6148 22.6237 15.4499 22.7951 15.2235C22.9666 14.9971 23.0604 14.7215 23.0625 14.4375V9.75C23.0625 9.4019 22.9242 9.06806 22.6781 8.82192C22.4319 8.57578 22.0981 8.4375 21.75 8.4375ZM18.9375 12C18.9375 12.0497 18.9177 12.0974 18.8826 12.1326C18.8474 12.1677 18.7997 12.1875 18.75 12.1875H4.5C4.45027 12.1875 4.40258 12.1677 4.36742 12.1326C4.33225 12.0974 4.3125 12.0497 4.3125 12V6C4.3125 5.95027 4.33225 5.90258 4.36742 5.86742C4.40258 5.83225 4.45027 5.8125 4.5 5.8125H18.75C18.7997 5.8125 18.8474 5.83225 18.8826 5.86742C18.9177 5.90258 18.9375 5.95027 18.9375 6V12Z" fill="#98A2B3"/>
</svg>
