<svg width="24" height="24" viewBox="0 0 24 24" fill="none" xmlns="http://www.w3.org/2000/svg">
<path d="M16.438 14.2399L16.438 14.2396C16.4408 14.2231 16.45 14.2085 16.4636 14.1988C16.4703 14.194 16.4779 14.1906 16.4859 14.1888C16.494 14.1869 16.5023 14.1867 16.5105 14.1881C16.5186 14.1894 16.5264 14.1924 16.5334 14.1968C16.5404 14.2012 16.5464 14.2069 16.5512 14.2136L16.9587 13.9239L16.5512 14.2136C16.556 14.2204 16.5594 14.228 16.5613 14.236C16.563 14.2436 16.5633 14.2515 16.5622 14.2593C16.3921 15.2055 15.9366 16.077 15.2568 16.7568C14.5781 17.4355 13.7083 17.8906 12.764 18.0614C12.7584 18.0621 12.7528 18.0625 12.7472 18.0626C12.7318 18.0624 12.7169 18.0566 12.7056 18.0462C12.694 18.0355 12.6868 18.0209 12.6855 18.0053C12.6842 17.9896 12.6888 17.974 12.6985 17.9617C12.7081 17.9493 12.7221 17.941 12.7376 17.9384L12.7391 17.9381C14.5791 17.629 16.1259 16.0803 16.438 14.2399ZM7.35835 5.96222L7.35836 5.96223L7.3604 5.95952C7.36576 5.95241 7.37257 5.94652 7.38038 5.94226C7.38819 5.93799 7.39682 5.93544 7.40569 5.93478L7.36858 5.43616L7.4057 5.93478C7.41457 5.93412 7.42349 5.93536 7.43184 5.93843C7.4402 5.94149 7.44781 5.9463 7.45415 5.95254L7.45414 5.95255L7.45649 5.95482L9.92586 8.35107L10.4795 8.88829L10.7438 8.16356L12.9085 2.22825C12.9119 2.21885 12.9176 2.2104 12.9249 2.20362C12.9323 2.19685 12.9412 2.19195 12.9509 2.18934C12.9606 2.18672 12.9707 2.18647 12.9805 2.1886C12.9903 2.19074 12.9994 2.19519 13.0071 2.20159C13.9999 3.02775 15.648 4.54334 17.0446 6.5181C18.4436 8.49627 19.5625 10.8958 19.5625 13.5001C19.5625 15.5058 18.7657 17.4293 17.3475 18.8476C15.9293 20.2658 14.0057 21.0626 12 21.0626C9.9943 21.0626 8.07075 20.2658 6.65251 18.8476C5.23426 17.4293 4.4375 15.5058 4.4375 13.5001C4.4375 11.0621 5.39961 8.52781 7.35835 5.96222ZM13.5447 2.83286L12.9947 2.34327L12.7425 3.03499L10.559 9.02187L10.5589 9.02214C10.5553 9.03195 10.5494 9.0407 10.5416 9.04761C10.5337 9.05452 10.5243 9.05936 10.5141 9.06169L10.6229 9.5362L10.5141 9.06169C10.504 9.06402 10.4934 9.06376 10.4833 9.06095C10.4733 9.05814 10.4641 9.05285 10.4566 9.04558L7.83165 6.49373L7.4142 6.08791L7.07609 6.56187C5.42471 8.87669 4.5625 11.214 4.5625 13.5001C4.5625 15.4726 5.34609 17.3644 6.74089 18.7592C8.13569 20.154 10.0275 20.9376 12 20.9376C13.9725 20.9376 15.8643 20.154 17.2591 18.7592C18.6539 17.3644 19.4375 15.4726 19.4375 13.5001C19.4375 11.0986 18.4799 8.89719 17.2805 7.07811C16.0796 5.25676 14.6143 3.78512 13.5447 2.83286Z" fill="black" stroke="#98A2B3"/>
</svg>
