<svg width="24" height="24" viewBox="0 0 24 24" fill="none" xmlns="http://www.w3.org/2000/svg">
<g clip-path="url(#clip0_6303_164753)">
<path fill-rule="evenodd" clip-rule="evenodd" d="M16.243 3.51502C16.4305 3.32754 16.6848 3.22223 16.95 3.22223C17.2152 3.22223 17.4695 3.32754 17.657 3.51502L20.485 6.34302C20.5805 6.43526 20.6567 6.54561 20.7091 6.66761C20.7615 6.78962 20.7891 6.92084 20.7903 7.05361C20.7914 7.18639 20.7661 7.31807 20.7158 7.44097C20.6655 7.56387 20.5913 7.67552 20.4974 7.76941C20.4035 7.8633 20.2919 7.93756 20.169 7.98784C20.0461 8.03812 19.9144 8.06342 19.7816 8.06227C19.6488 8.06111 19.5176 8.03353 19.3956 7.98112C19.2736 7.92871 19.1632 7.85253 19.071 7.75702L18.364 7.05002L13.414 12L14.829 13.414C15.0148 13.5997 15.1622 13.8203 15.2628 14.063C15.3633 14.3057 15.4151 14.5658 15.4151 14.8285C15.4151 15.0912 15.3633 15.3514 15.2628 15.5941C15.1622 15.8368 15.0148 16.0573 14.829 16.243L12.334 18.737C11.6774 19.3937 10.8509 19.8545 9.9471 20.0679C9.04331 20.2813 8.09796 20.2387 7.217 19.945L6.269 19.629C5.82669 19.4818 5.42477 19.2335 5.09514 18.9039C4.7655 18.5742 4.51723 18.1723 4.37 17.73L4.054 16.782C3.76031 15.9011 3.71777 14.9557 3.93113 14.0519C4.14449 13.1481 4.60533 12.3216 5.262 11.665L7.757 9.17002C8.13206 8.79507 8.64067 8.58444 9.171 8.58444C9.70133 8.58444 10.2099 8.79507 10.585 9.17002L12 10.586L16.95 5.63602L16.243 4.92902C16.0555 4.74149 15.9502 4.48718 15.9502 4.22202C15.9502 3.95685 16.0555 3.70254 16.243 3.51502ZM10.586 12L9.172 10.586L6.677 13.08C6.283 13.4739 6.00648 13.9698 5.87843 14.512C5.75038 15.0543 5.77585 15.6214 5.952 16.15L6.269 17.099C6.31811 17.2462 6.40077 17.3799 6.51046 17.4896C6.62015 17.5992 6.75385 17.6819 6.901 17.731L7.85 18.047C8.37848 18.2233 8.9456 18.2489 9.48783 18.121C10.0301 17.9932 10.526 17.7168 10.92 17.323L13.414 14.828L12 13.414L11.293 14.121C11.1044 14.3032 10.8518 14.404 10.5896 14.4017C10.3274 14.3994 10.0766 14.2942 9.89118 14.1088C9.70577 13.9234 9.6006 13.6726 9.59833 13.4104C9.59605 13.1482 9.69684 12.8956 9.879 12.707L10.586 12Z" fill="#98A2B3"/>
</g>
<defs>
<clipPath id="clip0_6303_164753">
<rect width="24" height="24" fill="white"/>
</clipPath>
</defs>
</svg>
