<svg width="20" height="20" viewBox="0 0 20 20" fill="none" xmlns="http://www.w3.org/2000/svg">
<g clip-path="url(#clip0_12521_29221)">
<path d="M6.66699 6.66669V4.33335C6.66699 3.39993 6.66699 2.93322 6.84865 2.5767C7.00844 2.2631 7.2634 2.00813 7.57701 1.84834C7.93353 1.66669 8.40024 1.66669 9.33366 1.66669H15.667C16.6004 1.66669 17.0671 1.66669 17.4236 1.84834C17.7372 2.00813 17.9922 2.2631 18.152 2.5767C18.3337 2.93322 18.3337 3.39993 18.3337 4.33335V10.6667C18.3337 11.6001 18.3337 12.0668 18.152 12.4233C17.9922 12.7369 17.7372 12.9919 17.4236 13.1517C17.0671 13.3334 16.6004 13.3334 15.667 13.3334H13.3337M4.33366 18.3334H10.667C11.6004 18.3334 12.0671 18.3334 12.4236 18.1517C12.7372 17.9919 12.9922 17.7369 13.152 17.4233C13.3337 17.0668 13.3337 16.6001 13.3337 15.6667V9.33335C13.3337 8.39993 13.3337 7.93322 13.152 7.5767C12.9922 7.2631 12.7372 7.00813 12.4236 6.84834C12.0671 6.66669 11.6004 6.66669 10.667 6.66669H4.33366C3.40024 6.66669 2.93353 6.66669 2.57701 6.84834C2.2634 7.00813 2.00844 7.2631 1.84865 7.5767C1.66699 7.93322 1.66699 8.39993 1.66699 9.33335V15.6667C1.66699 16.6001 1.66699 17.0668 1.84865 17.4233C2.00844 17.7369 2.2634 17.9919 2.57701 18.1517C2.93353 18.3334 3.40024 18.3334 4.33366 18.3334Z" stroke="#344054" stroke-width="1.66667" stroke-linecap="round" stroke-linejoin="round"/>
</g>
<defs>
<clipPath id="clip0_12521_29221">
<rect width="20" height="20" fill="white"/>
</clipPath>
</defs>
</svg>
