<svg width="142" height="40" viewBox="0 0 142 40" fill="none" xmlns="http://www.w3.org/2000/svg">
<path d="M24.6096 39.2058H6.30907C4.63685 39.2058 3.28125 37.8502 3.28125 36.1779V3.62889C3.28125 1.95667 4.63685 0.601074 6.30907 0.601074H24.6096C25.4126 0.601074 26.1827 0.920076 26.7506 1.4879L35.8788 10.6162C36.494 11.2313 36.8396 12.0656 36.8396 12.9356V26.8712C36.8396 27.7412 36.494 28.5755 35.8788 29.1906L26.7506 38.3189C26.1827 38.8868 25.4126 39.2058 24.6096 39.2058Z" fill="#8DACFA"/>
<path d="M3.28125 22.0353V36.1778C3.28125 37.85 4.63685 39.2056 6.30907 39.2056H24.6096C25.4126 39.2056 26.1827 38.8866 26.7506 38.3188L35.9527 29.1166C36.5206 28.5488 36.8396 27.7787 36.8396 26.9756V12.831C36.8396 12.0279 36.5206 11.2578 35.9527 10.69L26.7495 1.48667C25.5646 0.301768 23.6426 0.304602 22.4612 1.493L4.16177 19.9007C3.5978 20.468 3.28125 21.2354 3.28125 22.0353Z" fill="#5482F7"/>
<path d="M3.28125 22.0406V36.1779C3.28125 37.8501 4.63685 39.2057 6.30907 39.2057H24.6021C26.2744 39.2057 27.63 37.8501 27.63 36.1779V22.3651C27.63 21.5942 27.3359 20.8523 26.8076 20.2907L17.7838 10.6969C16.6132 9.45239 14.6454 9.42228 13.4373 10.6304L4.16808 19.8996C3.60025 20.4674 3.28125 21.2376 3.28125 22.0406Z" fill="#2963F5"/>
<path d="M125.646 30.092V9.87891H129.534V30.092H125.646ZM136.895 30.092L128.139 20.2971V19.7332L137.103 9.87891H141.941L132.057 20.7423L132.235 19.2879L142 30.092H136.895Z" fill="#101010"/>
<path d="M121.62 30.092H117.731V9.87891H121.62V30.092Z" fill="#101010"/>
<path d="M90.7178 30.092L94.3389 9.87891H97.8116L102.887 24.0073H102.768L107.844 9.87891H111.317L114.938 30.092H110.99L109.536 20.861C109.318 19.6144 109.13 18.3678 108.972 17.1212C108.833 15.8548 108.725 14.5983 108.645 13.3516H109.714C109.378 14.7566 109.041 16.0527 108.705 17.2399C108.388 18.4074 108.012 19.6045 107.577 20.8314L104.342 29.8249H101.314L98.0788 20.8314C97.6434 19.6045 97.2576 18.4074 96.9212 17.2399C96.5848 16.0527 96.2583 14.7566 95.9417 13.3516H96.9806C96.9212 14.5983 96.8124 15.8548 96.6541 17.1212C96.5156 18.3678 96.3375 19.6144 96.1198 20.861L94.6654 30.092H90.7178Z" fill="#101010"/>
<path d="M68.5713 20.0001C68.5713 18.4765 68.8285 17.0814 69.343 15.815C69.8575 14.5288 70.5797 13.4207 71.5098 12.4907C72.4398 11.5607 73.538 10.8384 74.8044 10.324C76.0906 9.80949 77.4955 9.55225 79.0192 9.55225C80.523 9.55225 81.9082 9.80949 83.1746 10.324C84.441 10.8384 85.5392 11.5607 86.4692 12.4907C87.3992 13.4207 88.1215 14.5288 88.636 15.815C89.1504 17.0814 89.4077 18.4765 89.4077 20.0001C89.4077 21.504 89.1504 22.899 88.636 24.1852C88.1215 25.4516 87.3992 26.5597 86.4692 27.5095C85.5392 28.4396 84.441 29.1618 83.1746 29.6763C81.9082 30.1908 80.523 30.448 79.0192 30.448C77.4955 30.448 76.0906 30.1908 74.8044 29.6763C73.538 29.1618 72.4398 28.4396 71.5098 27.5095C70.5797 26.5597 69.8575 25.4516 69.343 24.1852C68.8285 22.899 68.5713 21.504 68.5713 20.0001ZM72.5486 20.0001C72.5486 21.3061 72.8256 22.4637 73.3797 23.4729C73.9337 24.4622 74.6956 25.234 75.6652 25.788C76.6545 26.3421 77.7725 26.6191 79.0192 26.6191C80.2658 26.6191 81.364 26.3421 82.3138 25.788C83.2834 25.234 84.0452 24.4622 84.5993 23.4729C85.1533 22.4637 85.4304 21.3061 85.4304 20.0001C85.4304 18.6744 85.1533 17.5168 84.5993 16.5274C84.0452 15.5182 83.2834 14.7366 82.3138 14.1826C81.364 13.6285 80.2658 13.3515 79.0192 13.3515C77.7725 13.3515 76.6545 13.6384 75.6652 14.2122C74.6956 14.7663 73.9337 15.538 73.3797 16.5274C72.8256 17.5168 72.5486 18.6744 72.5486 20.0001Z" fill="#101010"/>
<path d="M49.9053 30.092V9.87891H56.8507C58.8889 9.87891 60.6599 10.2846 62.1637 11.0958C63.6874 11.9071 64.8647 13.0647 65.6958 14.5686C66.5467 16.0724 66.9721 17.883 66.9721 20.0003C66.9721 22.1374 66.5467 23.9578 65.6958 25.4617C64.8647 26.9655 63.6874 28.1132 62.1637 28.9047C60.6401 29.6962 58.8592 30.092 56.8211 30.092H49.9053ZM53.7935 27.6878L52.3392 26.3818H56.5539C57.8005 26.3818 58.8988 26.1542 59.8486 25.6991C60.8182 25.244 61.58 24.5514 62.134 23.6214C62.6881 22.6914 62.9651 21.4844 62.9651 20.0003C62.9651 18.5756 62.6881 17.3883 62.134 16.4385C61.5998 15.4887 60.8478 14.7763 59.8782 14.3014C58.9284 13.8265 57.8302 13.5891 56.5836 13.5891H52.1314L53.7935 12.4018V27.6878Z" fill="#101010"/>
</svg>
