<svg width="143" height="41" viewBox="0 0 143 41" fill="none" xmlns="http://www.w3.org/2000/svg">
<path d="M24.7832 39.4137H6.35383C4.66983 39.4137 3.30469 38.0485 3.30469 36.3645V3.58625C3.30469 1.90226 4.66984 0.537109 6.35383 0.537109H24.7832C25.5919 0.537109 26.3674 0.858357 26.9393 1.43018L36.1318 10.6228C36.7513 11.2422 37.0993 12.0824 37.0993 12.9585V26.9923C37.0993 27.8684 36.7513 28.7085 36.1318 29.328L26.9393 38.5206C26.3675 39.0924 25.5919 39.4137 24.7832 39.4137Z" fill="white" fill-opacity="0.32"/>
<path d="M3.30469 22.1234V36.3655C3.30469 38.0495 4.66984 39.4146 6.35383 39.4146H24.7832C25.5919 39.4146 26.3674 39.0934 26.9393 38.5215L36.2063 29.2545C36.7781 28.6827 37.0993 27.9072 37.0993 27.0985V12.8542C37.0993 12.0455 36.7781 11.2699 36.2063 10.6981L26.9382 1.43002C25.7449 0.236768 23.8094 0.239624 22.6197 1.43639L4.19141 19.9737C3.62347 20.545 3.30469 21.3178 3.30469 22.1234Z" fill="white" fill-opacity="0.6"/>
<path d="M3.30469 22.1277V36.3645C3.30469 38.0485 4.66983 39.4137 6.35383 39.4137H24.7757C26.4597 39.4137 27.8249 38.0485 27.8249 36.3645V22.4545C27.8249 21.6781 27.5287 20.931 26.9968 20.3655L17.9094 10.7041C16.7306 9.45085 14.7489 9.42053 13.5323 10.6371L4.19776 19.9717C3.62594 20.5435 3.30469 21.319 3.30469 22.1277Z" fill="white"/>
<path d="M126.531 30.2363V9.88086H130.447V30.2363H126.531ZM137.86 30.2363L129.042 20.3724V19.8045L138.069 9.88086H142.941L132.988 20.8208L133.167 19.3561L143.001 30.2363H137.86Z" fill="white"/>
<path d="M122.478 30.2363H118.562V9.88086H122.478V30.2363Z" fill="white"/>
<path d="M91.3574 30.2363L95.0041 9.88086H98.5012L103.613 24.1087H103.493L108.604 9.88086H112.101L115.748 30.2363H111.773L110.308 20.9403C110.089 19.6849 109.899 18.4295 109.74 17.1741C109.601 15.8988 109.491 14.6334 109.411 13.378H110.487C110.149 14.7929 109.81 16.0981 109.471 17.2937C109.152 18.4694 108.774 19.675 108.335 20.9105L105.077 29.9673H102.028L98.7703 20.9105C98.3319 19.675 97.9433 18.4694 97.6045 17.2937C97.2658 16.0981 96.937 14.7929 96.6181 13.378H97.6643C97.6045 14.6334 97.4949 15.8988 97.3355 17.1741C97.196 18.4295 97.0167 19.6849 96.7975 20.9403L95.3329 30.2363H91.3574Z" fill="white"/>
<path d="M69.0547 20.0742C69.0547 18.5398 69.3137 17.135 69.8318 15.8596C70.3499 14.5644 71.0773 13.4485 72.0138 12.5119C72.9504 11.5753 74.0564 10.848 75.3317 10.3299C76.6269 9.81179 78.0418 9.55273 79.5761 9.55273C81.0906 9.55273 82.4855 9.81179 83.7608 10.3299C85.0361 10.848 86.1421 11.5753 87.0787 12.5119C88.0152 13.4485 88.7426 14.5644 89.2607 15.8596C89.7788 17.135 90.0378 18.5398 90.0378 20.0742C90.0378 21.5886 89.7788 22.9935 89.2607 24.2887C88.7426 25.5641 88.0152 26.68 87.0787 27.6365C86.1421 28.5731 85.0361 29.3004 83.7608 29.8185C82.4855 30.3366 81.0906 30.5956 79.5761 30.5956C78.0418 30.5956 76.6269 30.3366 75.3317 29.8185C74.0564 29.3004 72.9504 28.5731 72.0138 27.6365C71.0773 26.68 70.3499 25.5641 69.8318 24.2887C69.3137 22.9935 69.0547 21.5886 69.0547 20.0742ZM73.06 20.0742C73.06 21.3894 73.339 22.5551 73.8969 23.5714C74.4549 24.5677 75.2221 25.3449 76.1985 25.9028C77.1949 26.4608 78.3207 26.7398 79.5761 26.7398C80.8315 26.7398 81.9375 26.4608 82.894 25.9028C83.8704 25.3449 84.6376 24.5677 85.1956 23.5714C85.7535 22.5551 86.0325 21.3894 86.0325 20.0742C86.0325 18.7391 85.7535 17.5734 85.1956 16.577C84.6376 15.5607 83.8704 14.7736 82.894 14.2157C81.9375 13.6577 80.8315 13.3787 79.5761 13.3787C78.3207 13.3787 77.1949 13.6677 76.1985 14.2455C75.2221 14.8035 74.4549 15.5807 73.8969 16.577C73.339 17.5734 73.06 18.7391 73.06 20.0742Z" fill="white"/>
<path d="M50.2578 30.2363V9.88086H57.2522C59.3047 9.88086 61.0881 10.2894 62.6026 11.1064C64.137 11.9234 65.3226 13.0891 66.1596 14.6036C67.0164 16.118 67.4448 17.9413 67.4448 20.0735C67.4448 22.2256 67.0164 24.0589 66.1596 25.5734C65.3226 27.0878 64.137 28.2436 62.6026 29.0407C61.0682 29.8377 59.2748 30.2363 57.2223 30.2363H50.2578ZM54.1735 27.8152L52.7088 26.5H56.9533C58.2087 26.5 59.3146 26.2708 60.2711 25.8125C61.2476 25.3542 62.0147 24.6567 62.5727 23.7202C63.1307 22.7836 63.4096 21.568 63.4096 20.0735C63.4096 18.6388 63.1307 17.4432 62.5727 16.4867C62.0347 15.5302 61.2774 14.8128 60.301 14.3345C59.3445 13.8563 58.2386 13.6172 56.9832 13.6172H52.4996L54.1735 12.4216V27.8152Z" fill="white"/>
</svg>
