<svg width="21" height="20" viewBox="0 0 21 20" fill="none" xmlns="http://www.w3.org/2000/svg">
<path d="M6.83464 14.1663H13.5013M9.34938 2.30297L3.69746 6.6989C3.31965 6.99275 3.13075 7.13968 2.99466 7.32368C2.87411 7.48667 2.7843 7.67029 2.72966 7.86551C2.66797 8.0859 2.66797 8.32521 2.66797 8.80384V14.833C2.66797 15.7664 2.66797 16.2331 2.84962 16.5896C3.00941 16.9032 3.26438 17.1582 3.57798 17.318C3.9345 17.4996 4.40121 17.4996 5.33464 17.4996H15.0013C15.9347 17.4996 16.4014 17.4996 16.758 17.318C17.0716 17.1582 17.3265 16.9032 17.4863 16.5896C17.668 16.2331 17.668 15.7664 17.668 14.833V8.80384C17.668 8.32521 17.668 8.0859 17.6063 7.86551C17.5516 7.67029 17.4618 7.48667 17.3413 7.32368C17.2052 7.13968 17.0163 6.99275 16.6385 6.69891L10.9866 2.30297C10.6938 2.07526 10.5474 1.9614 10.3858 1.91763C10.2431 1.87902 10.0928 1.87902 9.95018 1.91763C9.78854 1.9614 9.64215 2.07526 9.34938 2.30297Z" stroke="#376DF6" stroke-width="1.66667" stroke-linecap="round" stroke-linejoin="round"/>
</svg>
