<svg width="16" height="16" viewBox="0 0 16 16" fill="none" xmlns="http://www.w3.org/2000/svg">
<g clip-path="url(#clip0_7525_13058)">
<path d="M2.66666 14.545C3.06838 14.6667 3.61097 14.6667 4.53331 14.6667H11.4666C12.389 14.6667 12.9316 14.6667 13.3333 14.545M2.66666 14.545C2.58053 14.5189 2.50087 14.4872 2.42533 14.4487C2.04901 14.257 1.74305 13.951 1.5513 13.5747C1.33331 13.1469 1.33331 12.5868 1.33331 11.4667V4.53337C1.33331 3.41327 1.33331 2.85322 1.5513 2.42539C1.74305 2.04907 2.04901 1.74311 2.42533 1.55136C2.85316 1.33337 3.41321 1.33337 4.53331 1.33337H11.4666C12.5868 1.33337 13.1468 1.33337 13.5746 1.55136C13.951 1.74311 14.2569 2.04907 14.4487 2.42539C14.6666 2.85322 14.6666 3.41327 14.6666 4.53337V11.4667C14.6666 12.5868 14.6666 13.1469 14.4487 13.5747C14.2569 13.951 13.951 14.257 13.5746 14.4487C13.4991 14.4872 13.4194 14.5189 13.3333 14.545M2.66666 14.545C2.66688 14.0054 2.67012 13.7199 2.71789 13.4798C2.9283 12.422 3.75523 11.595 4.81307 11.3846C5.07067 11.3334 5.38044 11.3334 5.99998 11.3334H9.99998C10.6195 11.3334 10.9293 11.3334 11.1869 11.3846C12.2447 11.595 13.0717 12.422 13.2821 13.4798C13.3298 13.7199 13.3331 14.0054 13.3333 14.545M10.6666 6.33337C10.6666 7.80613 9.47274 9.00004 7.99998 9.00004C6.52722 9.00004 5.33331 7.80613 5.33331 6.33337C5.33331 4.86061 6.52722 3.66671 7.99998 3.66671C9.47274 3.66671 10.6666 4.86061 10.6666 6.33337Z" stroke="#376DF6" stroke-width="1.33333" stroke-linecap="round" stroke-linejoin="round"/>
</g>
<defs>
<clipPath id="clip0_7525_13058">
<rect width="16" height="16" fill="white"/>
</clipPath>
</defs>
</svg>
