<svg width="20" height="20" viewBox="0 0 20 20" fill="none" xmlns="http://www.w3.org/2000/svg">
<g clip-path="url(#clip0_7553_18302)">
<path d="M10 6.66671V10M10 13.3334H9.99171M18.3334 12.8978V7.10233C18.3334 6.8985 18.3334 6.79659 18.3103 6.70068C18.2899 6.61565 18.2563 6.53436 18.2106 6.4598C18.159 6.37571 18.087 6.30364 17.9428 6.15952L13.8406 2.05723C13.6964 1.9131 13.6244 1.84104 13.5403 1.78951C13.4657 1.74382 13.3844 1.71015 13.2994 1.68973C13.2035 1.66671 13.1016 1.66671 12.8978 1.66671H7.10233C6.8985 1.66671 6.79659 1.66671 6.70068 1.68973C6.61565 1.71015 6.53436 1.74382 6.4598 1.78951C6.37571 1.84104 6.30364 1.91311 6.15952 2.05723L2.05723 6.15952C1.91311 6.30364 1.84104 6.37571 1.78951 6.4598C1.74382 6.53436 1.71015 6.61565 1.68973 6.70068C1.66671 6.79659 1.66671 6.8985 1.66671 7.10233V12.8978C1.66671 13.1016 1.66671 13.2035 1.68973 13.2994C1.71015 13.3844 1.74382 13.4657 1.78951 13.5403C1.84104 13.6244 1.9131 13.6964 2.05723 13.8406L6.15952 17.9428C6.30364 18.087 6.37571 18.159 6.4598 18.2106C6.53436 18.2563 6.61565 18.2899 6.70068 18.3103C6.79659 18.3334 6.8985 18.3334 7.10233 18.3334H12.8978C13.1016 18.3334 13.2035 18.3334 13.2994 18.3103C13.3844 18.2899 13.4657 18.2563 13.5403 18.2106C13.6244 18.159 13.6964 18.087 13.8406 17.9428L17.9428 13.8406C18.087 13.6964 18.159 13.6244 18.2106 13.5403C18.2563 13.4657 18.2899 13.3844 18.3103 13.2994C18.3334 13.2035 18.3334 13.1016 18.3334 12.8978Z" stroke="#344054" stroke-width="1.66667" stroke-linecap="round" stroke-linejoin="round"/>
</g>
<defs>
<clipPath id="clip0_7553_18302">
<rect width="20" height="20" fill="white"/>
</clipPath>
</defs>
</svg>
