<svg width="323" height="82" viewBox="0 0 323 82" fill="none" xmlns="http://www.w3.org/2000/svg">
<path fill-rule="evenodd" clip-rule="evenodd" d="M66.0284 58.3311L64.835 59.5727C64.9999 59.6871 65.0259 59.9032 65.4396 60.5152C65.7718 61.0068 66.0131 61.3793 66.2977 61.8402C67.2723 63.4175 74.4395 74.2882 74.7001 74.9082C71.6058 74.8564 54.4904 68.8457 43.9443 72.3692C42.186 72.9565 41.7829 73.5067 40.6646 74.0657L40.6598 69.2488L38.9298 69.2859C38.9389 70.8951 38.9436 72.5051 38.9082 74.0952C37.7218 73.4186 37.1113 72.8907 35.5108 72.3365C31.5162 70.9525 25.9173 71.2508 21.796 71.6634C18.8571 71.9581 16.0045 72.4908 13.1739 73.0992C11.8277 73.3887 10.3933 73.72 9.08096 74.0275C7.74301 74.3409 6.26299 74.7675 4.87071 74.9186L8.29684 69.5486C8.61372 69.0849 8.85935 68.681 9.14355 68.2069L14.2528 60.3222C14.6232 59.7421 14.5312 59.5945 15.0747 59.4566L13.8206 58.1037C13.6132 58.2784 13.4239 58.5431 13.1475 58.9713L7.7304 67.356C6.72428 68.9672 5.68982 70.5234 4.66209 72.1059C4.20234 72.8141 1.05486 76.7802 1.58823 76.9663C1.50872 77.7076 14.5063 74.1027 21.1311 73.4082C24.6698 73.037 28.5026 72.7017 32.0062 73.3444C33.5575 73.6291 35.0624 74.0593 36.3448 74.7268C42.1193 77.7323 37.9552 77.4516 43.1853 74.7208C52.8228 69.6889 71.2884 76.946 77.9576 76.9512C77.7904 76.4337 76.8322 75.102 76.4709 74.5342L66.0591 58.3785C66.048 58.3617 66.0374 58.3458 66.0276 58.3302L66.0284 58.331L66.0284 58.3311Z" fill="white"/>
<path fill-rule="evenodd" clip-rule="evenodd" d="M37.0668 76.8125C34.0177 75.2388 32.4669 74.4541 28.505 74.419C21.6299 74.358 12.4217 76.8835 5.45881 78.5358C4.54245 78.753 1.60914 79.1518 1.13087 79.3814C3.47571 79.4066 7.53875 78.45 9.94895 77.9991C12.9326 77.4413 15.8797 76.8476 18.9209 76.3197C23.2103 75.5749 28.8667 75.0876 33.0463 76.5872C34.2142 77.0063 35.8737 77.9337 36.3929 78.6434C34.5944 77.9261 35.0561 77.7595 32.3228 77.0916C24.6565 75.218 11.9309 79.8368 3.37732 81.2766C2.46449 81.4301 0.453458 81.7168 0 81.9313C2.92662 82.027 5.73124 81.3388 8.61731 80.8089C15.7747 79.4951 32.8471 74.6539 36.3539 81.6725C36.3795 81.7236 36.4425 81.889 36.5004 81.9261C36.5531 81.9473 36.6492 81.9078 36.6925 81.8858C39.3951 80.4875 39.8856 80.4895 42.7555 81.958C43.4393 80.6474 44.2859 79.8208 45.7325 79.2172C54.8462 75.4134 69.0298 82.2243 79.4149 81.9943C79.5488 81.9073 79.5082 81.5892 79.1906 81.6C78.3592 81.6287 76.7107 81.4078 76.0797 81.3085C66.9169 79.8699 55.4768 75.2739 47.0429 77.0793C45.1787 77.4784 44.3678 78.0011 42.9075 78.6411C43.5893 77.8644 44.9347 77.1363 46.149 76.6367C53.7555 73.5092 70.2564 78.9134 78.2246 79.8297C78.8741 79.9043 78.5832 79.4888 78.3817 79.4533L69.4318 77.5307C66.4788 76.8146 63.5635 76.0929 60.5023 75.4733C56.3042 74.624 50.0345 73.758 45.8207 75.1539C44.1738 75.6993 43.8475 75.9609 42.5611 76.6575C41.7888 77.1084 40.4509 77.9437 39.6199 78.5841C38.7874 77.9513 38.1792 77.496 37.0668 76.8134L37.0669 76.8125L37.0668 76.8125Z" fill="white"/>
<path d="M93.74 28.7573L93.783 27.2759C94.0554 27.1887 94.5358 27.0798 95.224 26.9491C96.3281 26.7312 96.9948 26.5352 97.2242 26.3609C97.468 26.1866 97.7619 25.7654 98.1061 25.0973L107.548 0.0217858C108.021 0.0363097 108.473 0.0435717 108.903 0.0435717H109.871L110.064 0.435717L113.807 9.41148C114.653 11.3141 115.413 13.1659 116.086 14.9669C116.76 16.7533 117.341 18.213 117.829 19.3458C118.115 20.0285 118.51 21.0524 119.011 22.4176C119.27 23.1584 119.664 24.0879 120.194 25.2062C120.481 25.8162 120.696 26.1721 120.84 26.2737C121.098 26.4916 121.514 26.6368 122.087 26.7094C122.675 26.7821 123.306 26.9491 123.98 27.2105C124.051 27.6898 124.087 28.0456 124.087 28.278C124.087 28.3797 124.08 28.5395 124.066 28.7573C123.005 28.7573 121.836 28.7065 120.56 28.6048C119.284 28.5031 118.137 28.4523 117.119 28.4523C115.986 28.4523 115.169 28.4668 114.667 28.4959L111.011 28.692L109.957 28.7355C109.957 28.2272 109.978 27.7406 110.021 27.2759L112.409 26.753C113.126 26.5642 113.541 26.419 113.656 26.3173C113.799 26.1721 113.871 26.005 113.871 25.8162C113.871 25.6274 113.835 25.4313 113.764 25.228L112.903 23.093L111.204 18.823L102.988 18.8012C102.687 19.4983 102.063 21.2049 101.117 23.9209C100.845 24.6906 100.708 25.2135 100.708 25.4894C100.708 25.8671 100.809 26.1357 101.01 26.2955C101.339 26.5715 101.97 26.7675 102.902 26.8837C103.031 26.9128 103.54 26.9927 104.429 27.1234C104.444 27.6462 104.451 28.0093 104.451 28.2127C104.451 28.3724 104.436 28.5395 104.408 28.7137C103.519 28.7137 101.397 28.5903 98.0415 28.3434L97.1597 28.4959C96.0987 28.6702 95.0878 28.7573 94.1271 28.7573H93.74ZM103.849 16.5137C107.204 16.5572 109.182 16.579 109.785 16.579L110.322 16.5572C109.892 15.2646 109.333 13.7614 108.645 12.0476C107.957 10.3192 107.397 9.00482 106.967 8.10433L103.849 16.5137Z" fill="white"/>
<path d="M124.776 28.9316L124.819 27.1887C125.163 27.1016 125.578 27.0217 126.066 26.9491C126.998 26.8184 127.758 26.6296 128.346 26.3827C128.547 26.0486 128.676 25.7291 128.733 25.4241C128.848 24.6107 128.905 23.4125 128.905 21.8294L128.862 12.5704C128.862 11.6119 128.812 9.10648 128.711 5.05432C128.683 3.96502 128.611 3.28966 128.496 3.02823C128.453 2.94109 128.382 2.86847 128.281 2.81037C128.052 2.65061 127.622 2.55621 126.991 2.52716C126.718 2.51263 126.016 2.43275 124.883 2.28751L124.819 0.740719L129.636 0.631789L136.669 0.392145L137.508 0.370359C137.68 0.355835 137.852 0.348573 138.024 0.348573C138.168 0.348573 138.548 0.355835 139.164 0.370359H140.541C141.63 0.355835 142.813 0.52286 144.089 0.871434C144.534 0.987625 145.122 1.23453 145.853 1.61215C146.584 1.97525 147.215 2.44728 147.746 3.02823C148.291 3.59466 148.692 4.23372 148.95 4.94539C149.208 5.65706 149.337 6.4123 149.337 7.21111C149.337 8.09707 149.144 8.89589 148.757 9.60756C148.369 10.3047 147.782 10.951 146.993 11.5465C146.591 11.837 145.667 12.3163 144.218 12.9844C146.384 13.4782 148.032 14.3859 149.165 15.7076C150.298 17.0147 150.864 18.4744 150.864 20.0865C150.864 21.0451 150.685 22.0473 150.327 23.093C150.069 23.8773 149.631 24.6035 149.015 25.2716C148.197 26.1575 147.33 26.8256 146.412 27.2759C145.509 27.7261 144.254 28.0965 142.648 28.387C141.845 28.5322 140.627 28.6048 138.992 28.6048L135.336 28.5177C133.787 28.5177 131.945 28.5903 129.808 28.7355C129.206 28.7646 127.529 28.8299 124.776 28.9316ZM134.798 12.3961C135.372 12.4833 136.046 12.5269 136.82 12.5269C138.971 12.5269 140.598 12.1275 141.702 11.3286C142.806 10.5153 143.358 9.12101 143.358 7.14576C143.358 5.75146 142.835 4.58955 141.788 3.66002C140.741 2.73049 139.164 2.26573 137.056 2.26573C136.454 2.26573 135.651 2.34561 134.648 2.50537C134.648 2.83942 134.662 3.31871 134.691 3.94324C134.762 5.17777 134.798 6.90611 134.798 9.12827L134.777 10.9583C134.777 11.2778 134.784 11.7571 134.798 12.3961ZM135.056 26.2737C135.988 26.6659 136.856 26.8619 137.659 26.8619C139.293 26.8619 140.627 26.615 141.659 26.1212C142.691 25.6129 143.444 24.9085 143.917 24.008C144.391 23.1075 144.627 21.9819 144.627 20.6312C144.627 19.2369 144.369 18.1186 143.853 17.2762C143.136 16.1143 142.268 15.3372 141.25 14.9451C140.232 14.5384 138.705 14.3351 136.669 14.3351C135.766 14.3351 135.142 14.4004 134.798 14.5312V17.2108L134.777 20.4351L134.841 25.4459C134.855 25.6782 134.927 25.9542 135.056 26.2737Z" fill="white"/>
<path d="M152.499 28.7573L152.542 27.2759C152.814 27.1887 153.295 27.0798 153.983 26.9491C155.087 26.7312 155.754 26.5352 155.983 26.3609C156.227 26.1866 156.521 25.7654 156.865 25.0973L166.307 0.0217858C166.78 0.0363097 167.232 0.0435717 167.662 0.0435717H168.63L168.823 0.435717L172.566 9.41148C173.411 11.3141 174.171 13.1659 174.845 14.9669C175.519 16.7533 176.1 18.213 176.587 19.3458C176.874 20.0285 177.269 21.0524 177.77 22.4176C178.028 23.1584 178.423 24.0879 178.953 25.2062C179.24 25.8162 179.455 26.1721 179.599 26.2737C179.857 26.4916 180.272 26.6368 180.846 26.7094C181.434 26.7821 182.065 26.9491 182.739 27.2105C182.81 27.6898 182.846 28.0456 182.846 28.278C182.846 28.3797 182.839 28.5395 182.825 28.7573C181.764 28.7573 180.595 28.7065 179.319 28.6048C178.043 28.5031 176.896 28.4523 175.878 28.4523C174.745 28.4523 173.928 28.4668 173.426 28.4959L169.77 28.692L168.716 28.7355C168.716 28.2272 168.737 27.7406 168.78 27.2759L171.168 26.753C171.884 26.5642 172.3 26.419 172.415 26.3173C172.558 26.1721 172.63 26.005 172.63 25.8162C172.63 25.6274 172.594 25.4313 172.523 25.228L171.662 23.093L169.963 18.823L161.747 18.8012C161.446 19.4983 160.822 21.2049 159.876 23.9209C159.604 24.6906 159.467 25.2135 159.467 25.4894C159.467 25.8671 159.568 26.1357 159.768 26.2955C160.098 26.5715 160.729 26.7675 161.661 26.8837C161.79 26.9128 162.299 26.9927 163.188 27.1234C163.203 27.6462 163.21 28.0093 163.21 28.2127C163.21 28.3724 163.195 28.5395 163.167 28.7137C162.278 28.7137 160.156 28.5903 156.8 28.3434L155.919 28.4959C154.858 28.6702 153.847 28.7573 152.886 28.7573H152.499ZM162.607 16.5137C165.963 16.5572 167.941 16.579 168.544 16.579L169.081 16.5572C168.651 15.2646 168.092 13.7614 167.404 12.0476C166.715 10.3192 166.156 9.00482 165.726 8.10433L162.607 16.5137Z" fill="white"/>
<path d="M194.632 8.08255L190.116 20.2608C188.954 23.427 188.374 25.1554 188.374 25.4459C188.374 25.8816 188.546 26.2011 188.89 26.4044C189.234 26.6078 189.793 26.7603 190.567 26.8619C190.682 26.891 191.191 26.9709 192.094 27.1016L192.116 28.1909C192.116 28.3652 192.102 28.5322 192.073 28.692C191.184 28.692 189.886 28.6266 188.18 28.4959L185.707 28.3216L184.825 28.4741C183.793 28.6484 182.653 28.7355 181.405 28.7355L181.448 27.2541C181.592 27.196 182.072 27.0871 182.889 26.9273C184.008 26.7094 184.717 26.4843 185.018 26.2519C185.334 26.005 185.721 25.3151 186.18 24.1823C186.639 23.0349 187.85 19.7452 189.815 14.3133L192.675 6.86254L195.213 0L197.536 0.0217858C197.98 0.907743 199.199 3.82705 201.192 8.77969L201.773 10.0651C202.418 11.5174 203.321 13.7904 204.483 16.884L205.171 18.5615C205.659 19.7235 206.16 21.0016 206.677 22.3958C207.222 23.8918 207.673 24.9593 208.032 25.5984C208.39 26.2229 208.885 26.5715 209.516 26.6441C210.29 26.7458 211 26.9273 211.645 27.1887C211.717 27.668 211.752 28.0311 211.752 28.278L211.731 28.7355C210.67 28.7355 209.465 28.6847 208.118 28.583C206.913 28.4814 205.981 28.4305 205.322 28.4305C203.529 28.4305 201.78 28.4959 200.074 28.6266L197.622 28.7137C197.622 28.1909 197.643 27.7043 197.686 27.2541C197.758 27.225 198.282 27.1234 199.257 26.9491C200.432 26.6296 201.106 26.4262 201.278 26.3391C201.45 26.2519 201.536 26.0704 201.536 25.7944C201.536 25.533 201.006 24.1169 199.945 21.5462L198.977 19.0844C196.74 13.0715 195.292 9.40422 194.632 8.08255Z" fill="white"/>
<path d="M94.0321 55.5209V48.2721H95.6928V53.9763H98.516V48.2721H100.184V53.9763H101.377V57.593H99.8446V55.5209H94.0321Z" fill="white"/>
<path d="M107.71 52.837L109.107 53.6322C108.981 53.8616 108.835 54.0884 108.669 54.3127C108.503 54.537 108.337 54.7231 108.171 54.8709C107.839 55.1666 107.456 55.3883 107.023 55.5362C106.596 55.6789 106.178 55.7503 105.77 55.7503C104.668 55.735 103.798 55.3756 103.158 54.6721C102.519 53.9636 102.2 53.0536 102.2 51.9424C102.2 50.8056 102.517 49.8778 103.151 49.1591C103.785 48.4403 104.63 48.0809 105.687 48.0809C106.231 48.0809 106.737 48.1931 107.205 48.4174C107.678 48.6417 108.068 48.973 108.375 49.4114C108.586 49.7326 108.745 50.12 108.85 50.5737C108.961 51.0273 109.024 51.5167 109.039 52.0418V52.3017H103.898C103.908 52.8676 104.095 53.3314 104.457 53.6934C104.824 54.0502 105.285 54.2286 105.838 54.2286C106.029 54.2286 106.223 54.198 106.42 54.1369C106.621 54.0757 106.807 53.9763 106.978 53.8387C107.114 53.7316 107.247 53.5914 107.378 53.4181C107.509 53.2397 107.62 53.046 107.71 52.837ZM104.019 50.9254H107.333C107.232 50.5227 107.033 50.2041 106.737 49.9696C106.445 49.7351 106.095 49.6102 105.687 49.5949C105.28 49.5949 104.925 49.7198 104.623 49.9696C104.321 50.2143 104.12 50.5329 104.019 50.9254Z" fill="white"/>
<path d="M110.851 55.5209V48.2721H112.519V50.956H115.478V48.2721H117.146V55.5209H115.478V52.5082H112.519V55.5209H110.851Z" fill="white"/>
<path d="M124.189 49.8243H122.098V55.5209H120.438V49.8243H118.339V48.2721H124.189V49.8243Z" fill="white"/>
<path d="M127.058 54.6798V59.4664H125.389V48.2721H127.058V49.0673C127.309 48.7564 127.616 48.5142 127.979 48.3409C128.341 48.1676 128.744 48.0809 129.186 48.0809C130.158 48.0809 130.981 48.4301 131.655 49.1285C132.329 49.8218 132.666 50.7317 132.666 51.8583C132.666 53.0256 132.314 53.9661 131.61 54.6798C130.91 55.3934 130.107 55.7503 129.202 55.7503C128.804 55.7503 128.411 55.6585 128.024 55.475C127.641 55.2915 127.319 55.0264 127.058 54.6798ZM128.983 49.5949C128.414 49.5949 127.933 49.7988 127.541 50.2066C127.153 50.6144 126.96 51.193 126.96 51.9424C126.96 52.6662 127.153 53.2295 127.541 53.6322C127.933 54.0298 128.414 54.2286 128.983 54.2286C129.571 54.2286 130.05 54.0094 130.417 53.571C130.784 53.1275 130.968 52.5796 130.968 51.9271C130.968 51.2695 130.784 50.7164 130.417 50.2678C130.05 49.8192 129.571 49.5949 128.983 49.5949Z" fill="white"/>
<path d="M138.252 55.5209L139.981 47.6145L142.94 53.1505L145.899 47.6145L147.636 55.5209H145.937L145.22 51.8888L142.94 56.079L140.668 51.8888L139.951 55.5209H138.252Z" fill="white"/>
<path d="M154.173 49.1132V48.2721H155.841V55.5209H154.173V54.7639C153.901 55.085 153.584 55.3297 153.222 55.4979C152.859 55.6661 152.462 55.7503 152.029 55.7503C150.967 55.7503 150.124 55.3756 149.5 54.6262C148.876 53.8718 148.564 52.9593 148.564 51.8888C148.564 50.7521 148.899 49.8345 149.568 49.1361C150.237 48.4327 151.065 48.0809 152.052 48.0809C152.489 48.0809 152.889 48.1727 153.252 48.3562C153.619 48.5397 153.926 48.7921 154.173 49.1132ZM152.255 49.5949C151.651 49.5949 151.168 49.8192 150.806 50.2678C150.444 50.7164 150.263 51.2695 150.263 51.9271C150.252 52.5796 150.431 53.1275 150.798 53.571C151.166 54.0094 151.651 54.2286 152.255 54.2286C152.809 54.2286 153.285 54.0298 153.682 53.6322C154.08 53.2295 154.278 52.6662 154.278 51.9424C154.278 51.193 154.08 50.6144 153.682 50.2066C153.285 49.7988 152.809 49.5949 152.255 49.5949Z" fill="white"/>
<path d="M157.955 55.5209V48.2721H159.623V50.956H162.582V48.2721H164.25V55.5209H162.582V52.5082H159.623V55.5209H157.955Z" fill="white"/>
<path d="M165.836 59.4664L168.591 54.1827L165.405 48.2721H167.413L169.519 52.3553L171.527 48.2721H173.399L167.7 59.4664H165.836Z" fill="white"/>
<path d="M179.793 49.1132V48.2721H181.461V55.5209H179.793V54.7639C179.521 55.085 179.204 55.3297 178.842 55.4979C178.48 55.6661 178.082 55.7503 177.649 55.7503C176.587 55.7503 175.744 55.3756 175.12 54.6262C174.496 53.8718 174.184 52.9593 174.184 51.8888C174.184 50.7521 174.519 49.8345 175.188 49.1361C175.858 48.4327 176.686 48.0809 177.672 48.0809C178.11 48.0809 178.51 48.1727 178.872 48.3562C179.24 48.5397 179.547 48.7921 179.793 49.1132ZM177.876 49.5949C177.272 49.5949 176.789 49.8192 176.426 50.2678C176.064 50.7164 175.883 51.2695 175.883 51.9271C175.873 52.5796 176.051 53.1275 176.419 53.571C176.786 54.0094 177.272 54.2286 177.876 54.2286C178.429 54.2286 178.905 54.0298 179.302 53.6322C179.7 53.2295 179.899 52.6662 179.899 51.9424C179.899 51.193 179.7 50.6144 179.302 50.2066C178.905 49.7988 178.429 49.5949 177.876 49.5949Z" fill="white"/>
<path d="M189.456 48.2721V55.5209H187.787V49.8243H185.681V52.6994C185.681 53.1938 185.621 53.6042 185.5 53.9304C185.384 54.2567 185.218 54.5421 185.002 54.7868C184.715 55.0927 184.368 55.3093 183.96 55.4367C183.552 55.5642 183.117 55.5922 182.654 55.5209V53.9763C182.881 54.0324 183.099 54.0273 183.311 53.961C183.527 53.8896 183.698 53.7851 183.824 53.6475C183.905 53.5557 183.968 53.4334 184.013 53.2805C184.058 53.1224 184.081 52.9287 184.081 52.6994V48.2721H189.456Z" fill="white"/>
<path d="M191.577 55.5209V48.2721H193.245V50.8413H194.196C194.76 50.8413 195.2 50.9025 195.517 51.0248C195.839 51.142 196.118 51.3281 196.355 51.583C196.546 51.7971 196.687 52.0392 196.778 52.3094C196.868 52.5796 196.914 52.865 196.914 53.1658C196.914 53.5226 196.856 53.854 196.74 54.1598C196.629 54.4606 196.473 54.7078 196.272 54.9015C196.03 55.1309 195.761 55.2915 195.464 55.3832C195.172 55.475 194.745 55.5209 194.181 55.5209H191.577ZM193.245 54.0757H194.007C194.244 54.0859 194.425 54.0782 194.551 54.0528C194.677 54.0222 194.785 53.9788 194.875 53.9228C194.986 53.8514 195.074 53.7545 195.14 53.6322C195.21 53.5048 195.245 53.3544 195.245 53.1811C195.245 53.0332 195.215 52.8982 195.155 52.7758C195.094 52.6535 195.006 52.5464 194.891 52.4547C194.8 52.4088 194.694 52.3731 194.574 52.3476C194.458 52.317 194.274 52.2966 194.022 52.2864H193.245V54.0757Z" fill="white"/>
<path d="M198.386 55.5209V48.2721H200.054V50.956H203.013V48.2721H204.681V55.5209H203.013V52.5082H200.054V55.5209H198.386Z" fill="white"/>
<path d="M210.245 48.0809C211.332 48.0809 212.24 48.4429 212.97 49.1667C213.705 49.8906 214.072 50.8031 214.072 51.9041C214.072 53.0205 213.705 53.9406 212.97 54.6645C212.24 55.3883 211.332 55.7503 210.245 55.7503C209.143 55.7503 208.229 55.3883 207.504 54.6645C206.78 53.9406 206.417 53.0205 206.417 51.9041C206.417 50.8031 206.78 49.8906 207.504 49.1667C208.229 48.4429 209.143 48.0809 210.245 48.0809ZM210.245 54.2286C210.889 54.2286 211.402 54.0222 211.785 53.6093C212.172 53.1964 212.366 52.6356 212.366 51.9271C212.366 51.2338 212.172 50.6731 211.785 50.2449C211.402 49.8116 210.889 49.5949 210.245 49.5949C209.585 49.5949 209.065 49.8116 208.682 50.2449C208.305 50.6731 208.116 51.2338 208.116 51.9271C208.116 52.6356 208.305 53.1964 208.682 53.6093C209.065 54.0222 209.585 54.2286 210.245 54.2286Z" fill="white"/>
<path d="M215.808 48.2721H217.476V52.3859L222.375 47.6145V55.5209H220.707V51.3077L215.808 56.079V48.2721ZM216.352 45.1371L217.71 44.7395C217.816 45.1065 217.985 45.3869 218.216 45.5806C218.448 45.7692 218.745 45.8635 219.107 45.8635C219.469 45.8635 219.761 45.7743 219.983 45.5959C220.204 45.4175 220.378 45.132 220.503 44.7395L221.862 45.1371C221.691 45.7335 221.344 46.2229 220.82 46.6052C220.302 46.9824 219.731 47.171 219.107 47.171C218.473 47.171 217.894 46.9824 217.371 46.6052C216.852 46.2229 216.513 45.7335 216.352 45.1371Z" fill="white"/>
<path d="M229.154 48.2721H230.822V52.3859L235.722 47.6145V55.5209H234.053V51.3077L229.154 56.079V48.2721Z" fill="white"/>
<path d="M241.685 55.5209L243.414 47.6145L246.373 53.1505L249.332 47.6145L251.068 55.5209H249.37L248.653 51.8888L246.373 56.079L244.101 51.8888L243.384 55.5209H241.685Z" fill="white"/>
<path d="M257.507 52.837L258.904 53.6322C258.778 53.8616 258.632 54.0884 258.466 54.3127C258.3 54.537 258.134 54.7231 257.968 54.8709C257.636 55.1666 257.253 55.3883 256.82 55.5362C256.393 55.6789 255.975 55.7503 255.567 55.7503C254.465 55.735 253.594 55.3756 252.955 54.6721C252.316 53.9636 251.997 53.0536 251.997 51.9424C251.997 50.8056 252.314 49.8778 252.948 49.1591C253.582 48.4403 254.427 48.0809 255.484 48.0809C256.028 48.0809 256.533 48.1931 257.001 48.4174C257.475 48.6417 257.865 48.973 258.172 49.4114C258.383 49.7326 258.541 50.12 258.647 50.5737C258.758 51.0273 258.821 51.5167 258.836 52.0418V52.3017H253.695C253.705 52.8676 253.891 53.3314 254.254 53.6934C254.621 54.0502 255.082 54.2286 255.635 54.2286C255.826 54.2286 256.02 54.198 256.216 54.1369C256.418 54.0757 256.604 53.9763 256.775 53.8387C256.911 53.7316 257.044 53.5914 257.175 53.4181C257.306 53.2397 257.417 53.046 257.507 52.837ZM253.816 50.9254H257.13C257.029 50.5227 256.83 50.2041 256.533 49.9696C256.242 49.7351 255.892 49.6102 255.484 49.5949C255.077 49.5949 254.722 49.7198 254.42 49.9696C254.118 50.2143 253.917 50.5329 253.816 50.9254Z" fill="white"/>
<path d="M260.648 55.5209V48.2721H262.316V50.956H265.275V48.2721H266.943V55.5209H265.275V52.5082H262.316V55.5209H260.648Z" fill="white"/>
<path d="M273.986 49.8243H271.895V55.5209H270.234V49.8243H268.136V48.2721H273.986V49.8243Z" fill="white"/>
<path d="M280.418 49.1132V48.2721H282.086V55.5209H280.418V54.7639C280.146 55.085 279.829 55.3297 279.466 55.4979C279.104 55.6661 278.707 55.7503 278.274 55.7503C277.212 55.7503 276.369 55.3756 275.745 54.6262C275.121 53.8718 274.809 52.9593 274.809 51.8888C274.809 50.7521 275.144 49.8345 275.813 49.1361C276.482 48.4327 277.31 48.0809 278.296 48.0809C278.734 48.0809 279.134 48.1727 279.497 48.3562C279.864 48.5397 280.171 48.7921 280.418 49.1132ZM278.5 49.5949C277.896 49.5949 277.413 49.8192 277.051 50.2678C276.689 50.7164 276.507 51.2695 276.507 51.9271C276.497 52.5796 276.676 53.1275 277.043 53.571C277.411 54.0094 277.896 54.2286 278.5 54.2286C279.054 54.2286 279.529 54.0298 279.927 53.6322C280.325 53.2295 280.523 52.6662 280.523 51.9424C280.523 51.193 280.325 50.6144 279.927 50.2066C279.529 49.7988 279.054 49.5949 278.5 49.5949Z" fill="white"/>
<path d="M290.08 48.2721V55.5209H288.412V49.8243H286.306V52.6994C286.306 53.1938 286.245 53.6042 286.124 53.9304C286.009 54.2567 285.843 54.5421 285.626 54.7868C285.339 55.0927 284.992 55.3093 284.585 55.4367C284.177 55.5642 283.742 55.5922 283.279 55.5209V53.9763C283.505 54.0324 283.724 54.0273 283.935 53.961C284.152 53.8896 284.323 53.7851 284.449 53.6475C284.529 53.5557 284.592 53.4334 284.637 53.2805C284.683 53.1224 284.705 52.9287 284.705 52.6994V48.2721H290.08Z" fill="white"/>
<path d="M292.201 55.5209V48.2721H293.869V50.8413H294.821C295.384 50.8413 295.825 50.9025 296.142 51.0248C296.464 51.142 296.743 51.3281 296.98 51.583C297.171 51.7971 297.312 52.0392 297.402 52.3094C297.493 52.5796 297.538 52.865 297.538 53.1658C297.538 53.5226 297.48 53.854 297.365 54.1598C297.254 54.4606 297.098 54.7078 296.897 54.9015C296.655 55.1309 296.386 55.2915 296.089 55.3832C295.797 55.475 295.369 55.5209 294.806 55.5209H292.201ZM293.869 54.0757H294.632C294.868 54.0859 295.05 54.0782 295.175 54.0528C295.301 54.0222 295.409 53.9788 295.5 53.9228C295.611 53.8514 295.699 53.7545 295.764 53.6322C295.835 53.5048 295.87 53.3544 295.87 53.1811C295.87 53.0332 295.84 52.8982 295.779 52.7758C295.719 52.6535 295.631 52.5464 295.515 52.4547C295.424 52.4088 295.319 52.3731 295.198 52.3476C295.082 52.317 294.899 52.2966 294.647 52.2864H293.869V54.0757Z" fill="white"/>
<path d="M299.01 55.5209V48.2721H300.678V50.956H303.638V48.2721H305.306V55.5209H303.638V52.5082H300.678V55.5209H299.01Z" fill="white"/>
<path d="M310.869 48.0809C311.956 48.0809 312.865 48.4429 313.594 49.1667C314.329 49.8906 314.696 50.8031 314.696 51.9041C314.696 53.0205 314.329 53.9406 313.594 54.6645C312.865 55.3883 311.956 55.7503 310.869 55.7503C309.767 55.7503 308.854 55.3883 308.129 54.6645C307.404 53.9406 307.042 53.0205 307.042 51.9041C307.042 50.8031 307.404 49.8906 308.129 49.1667C308.854 48.4429 309.767 48.0809 310.869 48.0809ZM310.869 54.2286C311.513 54.2286 312.027 54.0222 312.409 53.6093C312.797 53.1964 312.99 52.6356 312.99 51.9271C312.99 51.2338 312.797 50.6731 312.409 50.2449C312.027 49.8116 311.513 49.5949 310.869 49.5949C310.21 49.5949 309.689 49.8116 309.307 50.2449C308.929 50.6731 308.74 51.2338 308.74 51.9271C308.74 52.6356 308.929 53.1964 309.307 53.6093C309.689 54.0222 310.21 54.2286 310.869 54.2286Z" fill="white"/>
<path d="M316.433 48.2721H318.101V52.3859L323 47.6145V55.5209H321.332V51.3077L316.433 56.079V48.2721ZM316.976 45.1371L318.335 44.7395C318.441 45.1065 318.609 45.3869 318.841 45.5806C319.072 45.7692 319.369 45.8635 319.731 45.8635C320.094 45.8635 320.386 45.7743 320.607 45.5959C320.828 45.4175 321.002 45.132 321.128 44.7395L322.487 45.1371C322.316 45.7335 321.968 46.2229 321.445 46.6052C320.927 46.9824 320.355 47.171 319.731 47.171C319.097 47.171 318.519 46.9824 317.995 46.6052C317.477 46.2229 317.137 45.7335 316.976 45.1371Z" fill="white"/>
<path d="M94.6435 67.0429H100.011V72.7471H101.105V76.3638H99.5728V74.2917H94.5756V76.3638H93.0432V72.7471C93.3149 72.7318 93.5666 72.6426 93.798 72.4795C94.0295 72.3113 94.2132 72.0844 94.3491 71.799C94.4548 71.59 94.5303 71.3351 94.5756 71.0343C94.6209 70.7285 94.6435 70.3462 94.6435 69.8874V67.0429ZM98.3499 72.7471V68.5951H96.2363V70.522C96.2363 71.0522 96.1658 71.5008 96.0249 71.8678C95.884 72.2348 95.6777 72.5279 95.4059 72.7471H98.3499Z" fill="white"/>
<path d="M102.305 67.0429H103.974V71.1567L108.873 66.3853V74.2917H107.205V70.0785L102.305 74.8499V67.0429Z" fill="white"/>
<path d="M116.218 67.884V67.0429H117.886V74.2917H116.218V73.5347C115.946 73.8558 115.629 74.1005 115.267 74.2687C114.904 74.437 114.507 74.5211 114.074 74.5211C113.012 74.5211 112.169 74.1464 111.545 73.3971C110.921 72.6426 110.609 71.7301 110.609 70.6597C110.609 69.5229 110.944 68.6053 111.613 67.907C112.282 67.2035 113.11 66.8518 114.097 66.8518C114.534 66.8518 114.934 66.9435 115.297 67.127C115.664 67.3106 115.971 67.5629 116.218 67.884ZM114.3 68.3658C113.696 68.3658 113.213 68.59 112.851 69.0386C112.489 69.4872 112.308 70.0403 112.308 70.6979C112.297 71.3504 112.476 71.8984 112.843 72.3419C113.211 72.7803 113.696 72.9995 114.3 72.9995C114.854 72.9995 115.33 72.8006 115.727 72.403C116.125 72.0003 116.323 71.437 116.323 70.7132C116.323 69.9638 116.125 69.3853 115.727 68.9775C115.33 68.5697 114.854 68.3658 114.3 68.3658Z" fill="white"/>
<path d="M120 74.2917V67.0429H124.393V68.5951H121.668V74.2917H120Z" fill="white"/>
<path d="M125.601 74.2917V67.0429H127.269V69.7268H130.228V67.0429H131.896V74.2917H130.228V71.279H127.269V74.2917H125.601Z" fill="white"/>
<path d="M137.46 66.8518C138.547 66.8518 139.455 67.2137 140.185 67.9376C140.92 68.6614 141.287 69.5739 141.287 70.675C141.287 71.7913 140.92 72.7114 140.185 73.4353C139.455 74.1591 138.547 74.5211 137.46 74.5211C136.358 74.5211 135.444 74.1591 134.72 73.4353C133.995 72.7114 133.633 71.7913 133.633 70.675C133.633 69.5739 133.995 68.6614 134.72 67.9376C135.444 67.2137 136.358 66.8518 137.46 66.8518ZM137.46 72.9995C138.104 72.9995 138.617 72.793 139 72.3801C139.387 71.9672 139.581 71.4065 139.581 70.6979C139.581 70.0046 139.387 69.4439 139 69.0157C138.617 68.5824 138.104 68.3658 137.46 68.3658C136.801 68.3658 136.28 68.5824 135.897 69.0157C135.52 69.4439 135.331 70.0046 135.331 70.6979C135.331 71.4065 135.52 71.9672 135.897 72.3801C136.28 72.793 136.801 72.9995 137.46 72.9995Z" fill="white"/>
<path d="M148.564 67.3717V69.5892C148.338 69.212 148.038 68.9137 147.666 68.6945C147.298 68.4753 146.906 68.3658 146.488 68.3658C145.909 68.3658 145.406 68.5748 144.978 68.9928C144.556 69.4057 144.344 69.9664 144.344 70.675C144.344 71.3427 144.538 71.8984 144.926 72.3419C145.318 72.7803 145.834 72.9995 146.473 72.9995C146.881 72.9995 147.273 72.895 147.651 72.686C148.033 72.4718 148.338 72.1634 148.564 71.7607V73.9858C148.232 74.1795 147.907 74.3172 147.59 74.3987C147.273 74.4803 146.939 74.5211 146.586 74.5211C145.952 74.5058 145.396 74.4166 144.918 74.2535C144.445 74.0852 144.027 73.8074 143.665 73.42C143.338 73.0836 143.086 72.6885 142.91 72.2348C142.734 71.7811 142.646 71.2688 142.646 70.6979C142.646 70.1117 142.744 69.5815 142.94 69.1074C143.142 68.6283 143.428 68.2052 143.801 67.8382C144.163 67.4915 144.553 67.2417 144.971 67.0888C145.394 66.9308 145.917 66.8518 146.541 66.8518C146.939 66.8518 147.298 66.8951 147.62 66.9818C147.943 67.0684 148.257 67.1984 148.564 67.3717Z" fill="white"/>
<path d="M155.094 68.5951H153.003V74.2917H151.342V68.5951H149.243V67.0429H155.094V68.5951Z" fill="white"/>
<path d="M156.294 67.0429H157.962V71.1567L162.861 66.3853V74.2917H161.193V70.0785L156.294 74.8499V67.0429Z" fill="white"/>
<path d="M164.975 67.0429H166.643V69.6274L169.021 67.0429H171.233L168.108 70.2162L171.406 74.2917H169.293L166.915 71.3172L166.643 71.5925V74.2917H164.975V67.0429Z" fill="white"/>
<path d="M172.493 67.0429H174.162V71.1567L179.061 66.3853V74.2917H177.393V70.0785L172.493 74.8499V67.0429Z" fill="white"/>
<path d="M185.84 67.0429H187.508V71.1567L192.407 66.3853V74.2917H190.739V70.0785L185.84 74.8499V67.0429Z" fill="white"/>
<path d="M199.186 67.0429H200.854V69.6274L203.232 67.0429H205.444L202.319 70.2162L205.617 74.2917H203.504L201.126 71.3172L200.854 71.5925V74.2917H199.186V67.0429Z" fill="white"/>
<path d="M210.154 66.8518C211.241 66.8518 212.149 67.2137 212.879 67.9376C213.614 68.6614 213.981 69.5739 213.981 70.675C213.981 71.7913 213.614 72.7114 212.879 73.4353C212.149 74.1591 211.241 74.5211 210.154 74.5211C209.052 74.5211 208.139 74.1591 207.414 73.4353C206.689 72.7114 206.327 71.7913 206.327 70.675C206.327 69.5739 206.689 68.6614 207.414 67.9376C208.139 67.2137 209.052 66.8518 210.154 66.8518ZM210.154 72.9995C210.798 72.9995 211.312 72.793 211.694 72.3801C212.082 71.9672 212.275 71.4065 212.275 70.6979C212.275 70.0046 212.082 69.4439 211.694 69.0157C211.312 68.5824 210.798 68.3658 210.154 68.3658C209.495 68.3658 208.974 68.5824 208.592 69.0157C208.214 69.4439 208.025 70.0046 208.025 70.6979C208.025 71.4065 208.214 71.9672 208.592 72.3801C208.974 72.793 209.495 72.9995 210.154 72.9995Z" fill="white"/>
<path d="M217.386 73.4506V78.2372H215.718V67.0429H217.386V67.8382C217.637 67.5272 217.944 67.2851 218.307 67.1117C218.669 66.9384 219.072 66.8518 219.515 66.8518C220.486 66.8518 221.309 67.201 221.983 67.8993C222.657 68.5926 222.994 69.5025 222.994 70.6291C222.994 71.7964 222.642 72.7369 221.938 73.4506C221.238 74.1642 220.435 74.5211 219.53 74.5211C219.132 74.5211 218.74 74.4293 218.352 74.2458C217.97 74.0623 217.647 73.7972 217.386 73.4506ZM219.311 68.3658C218.742 68.3658 218.261 68.5697 217.869 68.9775C217.481 69.3853 217.288 69.9638 217.288 70.7132C217.288 71.437 217.481 72.0003 217.869 72.403C218.261 72.8006 218.742 72.9995 219.311 72.9995C219.9 72.9995 220.378 72.7803 220.745 72.3419C221.112 71.8984 221.296 71.3504 221.296 70.6979C221.296 70.0403 221.112 69.4872 220.745 69.0386C220.378 68.59 219.9 68.3658 219.311 68.3658Z" fill="white"/>
<path d="M226.399 73.4506V78.2372H224.731V67.0429H226.399V67.8382C226.651 67.5272 226.958 67.2851 227.32 67.1117C227.682 66.9384 228.085 66.8518 228.528 66.8518C229.499 66.8518 230.322 67.201 230.996 67.8993C231.67 68.5926 232.008 69.5025 232.008 70.6291C232.008 71.7964 231.655 72.7369 230.951 73.4506C230.251 74.1642 229.449 74.5211 228.543 74.5211C228.145 74.5211 227.753 74.4293 227.365 74.2458C226.983 74.0623 226.661 73.7972 226.399 73.4506ZM228.324 68.3658C227.755 68.3658 227.275 68.5697 226.882 68.9775C226.495 69.3853 226.301 69.9638 226.301 70.7132C226.301 71.437 226.495 72.0003 226.882 72.403C227.275 72.8006 227.755 72.9995 228.324 72.9995C228.913 72.9995 229.391 72.7803 229.758 72.3419C230.126 71.8984 230.309 71.3504 230.309 70.6979C230.309 70.0403 230.126 69.4872 229.758 69.0386C229.391 68.59 228.913 68.3658 228.324 68.3658Z" fill="white"/>
<path d="M238.877 71.6078L240.274 72.403C240.148 72.6324 240.002 72.8593 239.836 73.0836C239.67 73.3079 239.504 73.4939 239.337 73.6417C239.005 73.9374 238.623 74.1591 238.19 74.307C237.762 74.4497 237.345 74.5211 236.937 74.5211C235.835 74.5058 234.964 74.1464 234.325 73.4429C233.686 72.7344 233.366 71.8245 233.366 70.7132C233.366 69.5764 233.683 68.6487 234.318 67.9299C234.952 67.2112 235.797 66.8518 236.854 66.8518C237.397 66.8518 237.903 66.9639 238.371 67.1882C238.844 67.4125 239.234 67.7439 239.541 68.1822C239.753 68.5034 239.911 68.8908 240.017 69.3445C240.128 69.7982 240.19 70.2875 240.206 70.8126V71.0726H235.065C235.075 71.6384 235.261 72.1023 235.623 72.4642C235.991 72.821 236.451 72.9995 237.005 72.9995C237.196 72.9995 237.39 72.9689 237.586 72.9077C237.787 72.8465 237.974 72.7471 238.145 72.6095C238.281 72.5024 238.414 72.3623 238.545 72.1889C238.676 72.0105 238.786 71.8168 238.877 71.6078ZM235.186 69.6962H238.5C238.399 69.2935 238.2 68.9749 237.903 68.7404C237.611 68.5059 237.262 68.381 236.854 68.3658C236.446 68.3658 236.092 68.4906 235.79 68.7404C235.488 68.9851 235.286 69.3037 235.186 69.6962Z" fill="white"/>
<path d="M242.017 67.0429H243.686V69.6274L246.063 67.0429H248.275L245.15 70.2162L248.449 74.2917H246.335L243.957 71.3172L243.686 71.5925V74.2917H242.017V67.0429Z" fill="white"/>
<path d="M249.536 74.2917V67.0429H251.197V72.7471H254.02V67.0429H255.688V72.7471H256.881V76.3638H255.348V74.2917H249.536Z" fill="white"/>
<path d="M258.081 67.0429H259.749V71.1567L264.648 66.3853V74.2917H262.98V70.0785L258.081 74.8499V67.0429Z" fill="white"/>
<path d="M266.762 67.0429H268.43V71.1567L273.329 66.3853V74.2917H271.661V70.0785L266.762 74.8499V67.0429Z" fill="white"/>
<path fill-rule="evenodd" clip-rule="evenodd" d="M71.3935 33.7267C71.3935 16.0208 57.2233 1.66725 39.7435 1.66725C22.2636 1.66725 8.09339 16.0208 8.09339 33.7267C8.09339 49.8112 19.7875 63.128 35.0332 65.4323C35.0135 65.3831 35.0011 65.3282 34.9977 65.2667C34.956 64.527 35.9597 64.6925 36.3069 64.0992L36.3085 64.0963C21.2595 62.3688 9.56541 49.4324 9.56541 33.7267C9.56541 16.8443 23.0766 3.15831 39.7435 3.15831C56.4103 3.15831 69.9215 16.8443 69.9215 33.7267C69.9215 49.4384 58.2186 62.379 43.1612 64.0984C43.2056 64.1743 43.2551 64.2426 43.3103 64.3017C43.5531 64.5615 44.8418 64.7403 44.4446 65.4336C59.6948 63.1333 71.3935 49.8144 71.3935 33.7267ZM38.8114 65.7712C39.1211 65.7804 39.4316 65.7862 39.7435 65.7862C40.0483 65.7862 40.3519 65.7807 40.6546 65.7721C40.5576 65.6698 40.4884 65.5154 40.4549 65.2878C40.4065 64.958 40.3923 64.6243 40.3814 64.2874C40.1693 64.2924 39.9567 64.2951 39.7435 64.2951C39.5224 64.2951 39.302 64.2924 39.0822 64.2871C39.0746 64.8103 39.0633 65.3344 38.9552 65.5653C38.9158 65.6496 38.8674 65.7172 38.8114 65.7712Z" fill="white"/>
<path fill-rule="evenodd" clip-rule="evenodd" d="M67.2812 33.7267C67.2812 18.8181 55.7343 6.6418 41.2053 5.87199C41.8659 6.16885 42.2971 6.70139 42.5148 7.42951C55.631 8.83149 65.8519 20.0693 65.8519 33.7267C65.8519 47.1566 55.9688 58.2469 43.1681 59.9458C43.0572 60.3274 42.9515 60.8644 42.8903 61.4379C56.6167 59.8559 67.2812 48.0539 67.2812 33.7267ZM38.2943 5.87117C23.7594 6.63454 12.2058 18.8137 12.2058 33.7267C12.2058 48.0552 22.872 59.8581 36.6002 61.4384C36.541 60.8876 36.4373 60.3602 36.3221 59.9463C23.5198 58.2487 13.635 47.1577 13.635 33.7267C13.635 20.0711 23.853 8.83445 36.9666 7.42996C37.1852 6.69447 37.6237 6.16548 38.2943 5.87117ZM39.0354 61.6116C39.2707 61.6176 39.5067 61.6206 39.7435 61.6206C39.9782 61.6206 40.2123 61.6175 40.4456 61.6115C40.5324 61.3344 40.6239 61.0584 40.6636 60.7726C40.6931 60.56 40.716 60.3538 40.7335 60.1528C40.4051 60.1658 40.0751 60.1728 39.7435 60.1728C39.4152 60.1728 39.0884 60.1661 38.7632 60.1533C38.8255 60.8324 38.9389 61.2605 39.0354 61.6116Z" fill="white"/>
<path fill-rule="evenodd" clip-rule="evenodd" d="M63.0503 33.7267C63.0503 21.6645 54.1189 11.7181 42.5898 10.2958C42.5424 10.7454 42.4792 11.1844 42.4054 11.5475C42.4015 11.5664 42.3976 11.5846 42.3935 11.6025C53.2954 12.9284 61.7464 22.3265 61.7464 33.7267C61.7464 44.3688 54.3819 53.2662 44.5342 55.4814C44.5091 55.6617 44.4791 55.8562 44.4435 56.0678C44.3906 56.3829 44.3363 56.6506 44.2804 56.8847C54.9802 54.7461 63.0503 45.1923 63.0503 33.7267ZM36.8653 10.2999C25.3517 11.7366 16.4366 21.6756 16.4366 33.7267C16.4366 45.1967 24.5128 54.7532 35.2186 56.8872C35.1351 56.5757 35.0611 56.2282 35 55.8202C34.9823 55.7019 34.9666 55.5893 34.9524 55.4812C25.1048 53.2657 17.7405 44.3686 17.7405 33.7267C17.7405 22.3178 26.2044 12.914 37.1184 11.5994C37.0206 11.2975 36.9252 10.9203 36.8653 10.2999ZM38.8282 57.3161C39.1318 57.3285 39.4369 57.335 39.7435 57.335C40.048 57.335 40.351 57.3284 40.6526 57.3161C40.5961 56.8657 40.5285 56.4321 40.4673 56.0014C40.227 56.0098 39.9858 56.0142 39.7435 56.0142C39.5049 56.0142 39.2672 56.01 39.0305 56.0019C38.9636 56.4386 38.888 56.8727 38.8282 57.3161Z" fill="white"/>
<path fill-rule="evenodd" clip-rule="evenodd" d="M59.2155 33.7267C59.2155 23.8212 52.0063 15.6235 42.613 14.218C42.6671 14.2497 42.7333 14.2945 42.8214 14.3597C43.5862 14.9247 44.0334 15.1954 45.1108 15.4602C46.7188 15.8554 47.0795 15.9209 47.7031 17.1947C53.7399 20.1825 57.8983 26.4625 57.8983 33.7267C57.8983 42.3771 52.0015 49.6317 44.0577 51.5929C44.062 51.6194 44.066 51.6457 44.0704 51.6723C44.1628 52.227 44.2864 52.5715 44.3948 52.8831C52.9028 50.7709 59.2155 42.996 59.2155 33.7267ZM36.8989 14.2143C27.4935 15.6091 20.2714 23.8125 20.2714 33.7267C20.2714 42.9895 26.5753 50.7599 35.0742 52.8788C35.1934 52.5301 35.3341 52.1837 35.4235 51.5915C27.4826 49.6281 21.5886 42.375 21.5886 33.7267C21.5886 26.4657 25.7433 20.1879 31.7757 17.1985C32.4327 15.8552 32.8247 15.8629 34.3938 15.4482C36.1525 14.9832 36.4048 14.4587 36.8989 14.2143ZM39.1658 53.4414C39.3576 53.4475 39.5502 53.4506 39.7434 53.4506C39.9334 53.4506 40.1227 53.4475 40.3113 53.4417C40.3296 52.9872 40.3465 52.5438 40.3574 52.1054C40.1536 52.1126 39.949 52.1163 39.7434 52.1163C39.534 52.1163 39.3255 52.1124 39.1178 52.105C39.1286 52.5507 39.1461 52.9964 39.1658 53.4414L39.1658 53.4414Z" fill="white"/>
<path fill-rule="evenodd" clip-rule="evenodd" d="M55.9292 33.7267C55.9292 27.9268 52.9558 22.8305 48.4691 19.9159C48.4881 20.222 48.501 20.5722 48.5184 20.9987C48.5232 21.1167 48.526 21.246 48.5279 21.3839C52.3057 24.1474 54.7649 28.6458 54.7649 33.7267C54.7649 34.2418 54.7389 34.7507 54.6895 35.2526C55.1419 35.7577 55.2115 35.8316 55.22 36.7749C54.7874 36.777 54.5871 36.7691 54.4693 36.7421C54.3187 37.4998 54.1127 38.2373 53.8556 38.9497L53.8545 39.1281C53.8274 39.1448 53.7978 39.1663 53.7664 39.1912C52.096 43.5853 48.4707 46.9959 43.9696 48.3301C43.9288 48.7371 43.905 49.1508 43.9025 49.5741C50.8262 47.7146 55.9293 41.3248 55.9293 33.7266L55.9292 33.7267ZM31.016 19.917C26.5302 22.8318 23.5577 27.9275 23.5577 33.7267C23.5577 41.3189 28.6528 47.7047 35.5682 49.5697C35.5675 49.1424 35.5464 48.7301 35.5088 48.3276C30.2133 46.7543 26.1314 42.3069 25.0224 36.7656C24.8807 36.8097 24.6741 36.8105 24.2669 36.7458C24.2823 35.5948 24.3426 35.8468 24.8002 35.2811C24.7489 34.77 24.722 34.2516 24.722 33.7267C24.722 28.6456 27.1811 24.1466 30.9592 21.3831C30.9619 21.2393 30.9651 21.1059 30.9696 20.9864C30.9854 20.5665 30.9977 20.2201 31.016 19.917ZM39.1308 50.1103C39.334 50.118 39.5383 50.1219 39.7434 50.1219C39.946 50.1219 40.1476 50.118 40.3483 50.1105C40.3319 49.723 40.3052 49.332 40.2649 48.9333C40.0918 48.9394 39.918 48.9425 39.7434 48.9425C39.5681 48.9425 39.3936 48.9394 39.2197 48.9333C39.1771 49.3243 39.1486 49.7168 39.1308 50.1103Z" fill="white"/>
<path fill-rule="evenodd" clip-rule="evenodd" d="M52.8227 33.5269C52.768 29.7803 51.1776 26.4112 48.6614 24.0347C48.7295 24.4245 48.8343 24.7614 48.997 24.9903C51.4654 28.464 50.3625 27.8914 51.6233 31.3838C52.1501 32.843 52.4844 33.283 52.8227 33.5269ZM51.4296 32.7118L51.4301 32.7169C51.4786 32.8302 51.5219 32.9274 51.5625 33.0124C51.522 32.9253 51.4784 32.8261 51.4296 32.7118ZM30.8015 24.0566C28.3082 26.4229 26.7301 29.7663 26.6642 33.4842C26.9048 33.2922 27.1277 33.0914 27.2262 32.9177C27.993 31.5645 28.3878 29.3416 28.8381 27.8572C29.2431 26.5207 29.7891 25.9672 30.4732 25.0238C30.6287 24.8094 30.732 24.4643 30.8015 24.0566ZM27.814 39.1697C29.24 42.3715 31.8849 44.8965 35.1499 46.1371C35.0275 45.5879 34.8863 45.0387 34.7377 44.4741C31.8562 43.0946 29.6187 40.5614 28.6061 37.4627C28.3113 38.0987 28.0283 38.6811 27.9355 38.8857C27.8839 38.9996 27.8457 39.0927 27.814 39.1697ZM39.4507 46.9737C39.5479 46.9759 39.6453 46.9771 39.743 46.9771C39.8414 46.9771 39.9396 46.9759 40.0374 46.9737C39.9894 46.5194 39.9494 46.0571 39.9314 45.6066C39.8687 45.6076 39.8059 45.6081 39.743 45.6081C39.6816 45.6081 39.6204 45.6076 39.5593 45.6066C39.5398 46.0503 39.499 46.5171 39.4507 46.9737ZM44.3369 46.1367C47.6069 44.8941 50.2545 42.3631 51.6788 39.1544C51.4976 38.7844 51.1835 38.1304 50.8801 37.4616C49.8674 40.5615 47.6291 43.0958 44.746 44.4752C44.6009 45.0324 44.4604 45.5835 44.3369 46.1367H44.3369Z" fill="white"/>
<path fill-rule="evenodd" clip-rule="evenodd" d="M49.7439 33.7267C49.7439 33.5917 49.7413 33.4574 49.7361 33.3237C49.3998 32.6928 49.2799 32.7587 48.853 32.214C48.5687 31.8513 48.3174 31.5034 48.0936 31.169C48.3351 31.9786 48.4651 32.8372 48.4651 33.7267C48.4651 36.2426 47.4267 38.5129 45.7604 40.1217C45.6543 40.7353 45.5139 41.387 45.3402 42.1221C47.9972 40.3013 49.7439 37.2208 49.7439 33.7267ZM45.9617 25.7934C45.7987 25.6621 45.6315 25.5359 45.4605 25.415C45.3047 25.8243 45.1935 26.3201 45.1091 26.7625C45.687 27.2199 46.2066 27.7494 46.6545 28.3378C46.295 27.3138 46.1623 26.4806 45.9618 25.7934L45.9617 25.7934ZM34.0022 25.4322C33.8441 25.5447 33.6893 25.6617 33.538 25.7831C33.3701 26.374 33.2126 27.046 33.0792 27.509C32.9894 27.8203 32.9007 28.1038 32.8102 28.3674C33.256 27.7766 33.7737 27.2444 34.3501 26.7844C34.2668 26.3688 34.1528 25.9226 34.0022 25.4322ZM29.7511 33.3177C29.7457 33.4533 29.743 33.5897 29.743 33.7267C29.743 37.2147 31.4837 40.2904 34.1328 42.1124C33.9587 41.3835 33.8195 40.7298 33.7151 40.1105C32.0556 38.5022 31.0218 36.2368 31.0218 33.7267C31.0218 32.816 31.158 31.9377 31.4107 31.1112C31.2285 31.3793 31.0271 31.6629 30.8016 31.9747C30.1864 32.8251 30.078 32.7026 29.7511 33.3177ZM39.474 43.8528C39.5636 43.8553 39.6534 43.8565 39.7435 43.8565C39.8346 43.8565 39.9255 43.8552 40.016 43.8527C40.0619 43.4802 40.0916 43.0297 40.1001 42.5537C39.9818 42.5586 39.8629 42.5611 39.7435 42.5611C39.6265 42.5611 39.5101 42.5587 39.3942 42.554C39.4051 43.0344 39.4342 43.4876 39.474 43.8528Z" fill="white"/>
<path fill-rule="evenodd" clip-rule="evenodd" d="M38.449 50.9733C38.462 52.0973 38.6364 53.8214 38.5277 54.8553C38.3045 56.9753 37.6145 59.4768 38.4084 61.8105C38.704 62.6793 38.5014 62.6403 38.4474 63.4469C38.4065 64.0589 38.408 64.6809 38.3789 65.2675L36.1711 65.1331C36.5068 64.8616 36.7537 64.7364 36.9524 64.299C37.8318 62.3632 37.0056 59.6064 36.2022 57.807C35.8561 57.0323 35.6991 56.1786 35.5853 55.2392C35.4007 53.7145 35.6003 53.7413 35.9073 52.5136C36.658 49.5128 36.027 46.9159 35.3208 44.1648C34.0462 39.1999 33.7219 38.2266 34.5894 32.9922C34.8965 31.1394 35.4023 29.2586 35.1386 27.3129C34.9398 25.8456 34.299 24.9261 34.3556 23.2818C34.3808 22.5573 34.5812 22.4409 33.8919 22.3229C33.6644 22.6869 32.6976 26.4181 32.478 27.2068C32.1958 28.2203 32.1155 28.6043 31.6258 29.4612C31.2274 30.1581 30.8495 30.7335 30.4256 31.3642C29.9146 32.1242 29.558 32.2598 29.0821 33.1991C28.1512 35.0364 29.0018 34.7211 28.6944 35.6182C28.4767 36.2529 28.0166 37.0883 27.7194 37.7505C27.1395 39.0443 27.199 39.3666 26.2708 38.8095L26.261 35.0165C26.1204 35.0739 25.4399 35.6206 25.3147 35.7219C26.453 33.9615 27.3663 34.3211 28.0169 32.8044C28.6507 31.328 28.9262 30.1545 29.3391 28.5158C29.9248 26.1908 31.0038 25.7969 31.3313 24.8276C31.6592 23.8567 31.5903 20.7806 31.6765 19.5517C31.7225 18.8923 32.1429 17.9708 32.409 17.3995C33.2277 15.6411 34.9916 16.5956 36.9794 14.9545C37.4628 14.5554 37.7317 14.9944 37.9985 14.6156C38.2512 14.2571 38.167 12.4685 37.9729 12.0439C37.7419 11.5375 37.7309 11.5367 37.6415 10.935C37.5777 10.5052 37.538 10.0973 37.5089 9.66272C37.3742 7.65279 37.4691 6.42472 39.5845 6.27322C40.3434 6.21898 41.3637 6.54676 41.6601 7.01405C42.045 7.62051 42.0466 8.58461 41.9931 9.37764C41.7789 12.5515 41.3955 11.6065 41.3377 13.0112C41.2385 15.4314 41.7774 14.5574 42.3422 14.8417C42.5009 14.9215 42.7544 15.2086 43.1838 15.4358C45.0693 16.4326 46.3631 15.996 46.9874 17.2109C48.619 20.3863 47.4909 21.7595 48.0939 24.6139C48.2124 25.1737 48.865 25.9333 49.165 26.3408C50.3353 27.9293 50.2188 29.8165 51.3646 32.5568C51.8145 33.6326 51.8444 33.5397 52.59 34.1294C53.2272 34.6337 53.5945 34.8347 54.0153 35.5647C53.663 35.3706 53.5256 35.1883 53.2323 35.0177C53.167 35.6748 53.2111 36.5257 53.2115 37.2039C53.2115 38.5615 53.3721 38.6281 52.8607 39.0679C52.1892 38.9774 52.2412 38.8506 52.005 38.2996C51.572 37.2896 50.6529 35.792 50.7651 35.0046C50.8729 34.2474 50.9316 34.3547 50.6285 33.6836C49.8845 32.0357 49.8739 32.5173 49.4181 31.8674C47.7991 29.558 47.6582 29.4946 46.8772 26.7574C46.6414 25.9313 46.4159 25.1506 46.1907 24.3372C45.8365 23.0581 45.8235 22.2196 45.2051 22.3085C44.9819 22.6558 45.1421 23.1091 45.1205 23.6638C45.0575 25.2714 44.4655 26.0358 44.3143 27.6238C44.1309 29.5449 44.6465 31.4595 44.9433 33.2865C45.2248 35.0189 45.5377 37.4204 45.2811 39.1819C44.7422 42.8828 43.1752 46.386 43.2507 49.8317C43.2705 50.7281 43.3692 51.8552 43.6086 52.6567C43.951 53.8022 44.0786 53.9007 43.8975 55.2735C43.7641 56.2874 43.6298 56.96 43.2649 57.8356C42.4974 59.6781 41.5944 62.4026 42.5635 64.3675C42.8544 64.9576 42.8819 64.7849 43.324 65.1251C42.9579 65.1605 41.3212 65.2961 41.1106 65.2419C41.0512 64.6143 41.0874 63.9696 41.0311 63.3619C40.9457 62.4409 40.8016 62.6355 41.1204 61.6749C41.9211 59.2631 41.0437 56.539 40.9382 54.6866C40.8737 53.5514 41.0221 52.0833 41.0343 50.8967C41.0642 48.0068 40.4108 47.3046 40.7083 43.526C40.8937 41.1744 40.4592 38.969 39.7451 36.93C39.5349 37.2825 39.0248 39.4248 38.8941 40.0213C38.6866 40.969 38.6917 42.6851 38.7839 43.674C39.0897 46.951 38.415 48.2182 38.4469 50.9725L38.4489 50.9733L38.449 50.9733ZM37.4582 14.079C36.4202 14.1376 36.6816 14.8433 34.3938 15.4482C32.8008 15.8693 32.4209 15.8549 31.7455 17.2608C31.0389 18.7313 31.0377 19.1802 30.9696 20.9864C30.9287 22.0689 31.0007 24.297 30.4737 25.0238C29.7895 25.9672 29.2436 26.5207 28.8385 27.8572C28.3882 29.3416 27.9934 31.5644 27.2266 32.9177C27.0345 33.2566 26.3681 33.6992 26.0217 33.9771C25.5627 34.3455 25.2703 34.6517 24.9113 35.1374C24.3519 35.8933 24.2834 35.5074 24.2669 36.7458C25.2352 36.8997 25.0695 36.6832 25.5922 36.3941C25.7946 37.9978 25.2596 38.6453 25.9363 39.373C26.3468 39.8144 26.3201 39.8419 27.0554 39.674C27.7875 39.5069 27.6352 39.5496 27.9359 38.8857C28.1548 38.4025 29.4345 35.8144 29.4262 35.3842C29.4132 34.7004 29.1546 34.6222 29.4494 33.9532C30.0556 32.5784 30.0308 33.0401 30.8015 31.9747C31.997 30.3216 32.517 29.4588 33.0791 27.509C33.2885 26.7826 33.5569 25.5414 33.8324 24.9066C35.107 28.6793 34.3733 29.9089 33.8151 33.6585C33.2444 37.493 33.4042 39.2171 34.2938 42.7701C35.0519 45.7979 35.8986 48.079 35.4373 51.4948C35.209 53.1842 34.5689 52.9434 35 55.8202C35.2664 57.6 35.7774 58.2288 36.2588 59.734C36.6095 60.8309 36.9106 63.0673 36.3068 64.0992C35.9596 64.6925 34.9559 64.527 34.9976 65.2666C35.0393 66.0067 36.3328 65.8033 37.0185 65.8316C37.7667 65.8623 38.6422 66.2339 38.9551 65.5653C39.1507 65.1474 39.0291 63.7698 39.1428 63.1737C39.4321 61.6582 38.6295 61.7982 38.724 58.5055C38.7705 56.8867 39.2613 55.506 39.185 53.8648C39.1078 52.1998 39.0401 50.5208 39.2267 48.8693C39.3727 47.5774 39.7053 45.4323 39.5144 44.1692C39.342 43.0296 39.29 40.3809 39.7415 39.4419C40.1604 40.5157 40.1722 42.8083 39.9923 44.0276C39.7832 45.4447 40.0887 47.3338 40.2465 48.7612C40.4308 50.4283 40.3717 51.9514 40.3032 53.6371C40.208 55.9824 41.0822 57.7607 40.6634 60.7726C40.5646 61.4839 40.145 62.1343 40.2761 62.8914C40.417 63.7048 40.3402 64.5075 40.4548 65.2878C40.5996 66.2742 41.4152 65.8854 42.256 65.8412C42.8826 65.8081 44.0651 65.9692 44.393 65.5134C44.9398 64.7535 43.5621 64.5713 43.3102 64.3018C42.5504 63.4891 42.8543 60.9708 43.1858 59.8859C43.7124 58.1615 44.1045 58.0833 44.4434 56.0678C44.9445 53.0905 44.3572 53.3943 44.0703 51.6723C43.516 48.3442 44.4486 45.7668 45.174 42.8107C46.0593 39.2035 46.2525 37.6238 45.6798 33.7435C45.3421 31.4556 44.6532 29.2965 45.0614 27.0194C45.1783 26.3675 45.3523 25.5155 45.6523 25.0035C46.4132 26.4134 46.0144 28.5936 48.8529 32.214C49.3894 32.8986 49.441 32.6187 50.0467 33.9699C50.3077 34.5521 50.0999 34.7183 50.064 35.3048C50.0325 35.82 51.8129 39.4412 51.8338 39.4631C51.9672 39.603 52.7773 39.8044 53.0009 39.7729C53.2261 39.741 53.6272 39.2685 53.8543 39.1282L53.8708 36.4005C54.5668 36.7151 54.0625 36.7805 55.2198 36.7749C55.2084 35.5086 55.0871 35.8092 54.0767 34.5297C52.9659 33.123 52.6868 34.3288 51.6236 31.3838C50.3628 27.8914 51.4657 28.464 48.9973 24.9903C48.4329 24.1957 48.5632 22.102 48.5183 20.9988C48.4451 19.2037 48.4513 18.7576 47.7464 17.2843C47.0953 15.9235 46.7556 15.8645 45.1106 15.4602C44.0333 15.1954 43.5861 14.9247 42.8213 14.3597C42.408 14.0543 42.4765 14.195 42.0214 14.0355C41.9959 13.5949 41.9655 13.1125 42.0246 12.6747C42.0884 12.2002 42.295 12.0897 42.4053 11.5475C42.567 10.7517 42.6781 9.59135 42.6832 8.75406C42.695 6.76564 41.7593 5.58183 39.7191 5.60097C37.7439 5.6197 36.8071 6.72975 36.8024 8.67751C36.7933 12.5351 37.6065 11.3154 37.4582 14.0802V14.079H37.4582Z" fill="white"/>
<path d="M39.7435 31.0382C40.2328 31.0382 40.6295 30.6363 40.6295 30.1406C40.6295 29.6449 40.2328 29.2431 39.7435 29.2431C39.2541 29.2431 38.8574 29.6449 38.8574 30.1406C38.8574 30.6363 39.2541 31.0382 39.7435 31.0382Z" fill="white"/>
<path d="M39.7435 35.2825C40.2328 35.2825 40.6295 34.8807 40.6295 34.385C40.6295 33.8893 40.2328 33.4875 39.7435 33.4875C39.2541 33.4875 38.8574 33.8893 38.8574 34.385C38.8574 34.8807 39.2541 35.2825 39.7435 35.2825Z" fill="white"/>
<path d="M39.7435 22.5494C40.2328 22.5494 40.6295 22.1476 40.6295 21.6519C40.6295 21.1562 40.2328 20.7543 39.7435 20.7543C39.2541 20.7543 38.8574 21.1562 38.8574 21.6519C38.8574 22.1476 39.2541 22.5494 39.7435 22.5494Z" fill="white"/>
<path d="M39.7435 26.7938C40.2328 26.7938 40.6295 26.3919 40.6295 25.8962C40.6295 25.4006 40.2328 24.9987 39.7435 24.9987C39.2541 24.9987 38.8574 25.4006 38.8574 25.8962C38.8574 26.3919 39.2541 26.7938 39.7435 26.7938Z" fill="white"/>
<path d="M39.7435 14.0606C40.2328 14.0606 40.6295 13.6588 40.6295 13.1631C40.6295 12.6674 40.2328 12.2656 39.7435 12.2656C39.2541 12.2656 38.8574 12.6674 38.8574 13.1631C38.8574 13.6588 39.2541 14.0606 39.7435 14.0606Z" fill="white"/>
<path d="M39.7435 18.305C40.2328 18.305 40.6295 17.9032 40.6295 17.4075C40.6295 16.9118 40.2328 16.51 39.7435 16.51C39.2541 16.51 38.8574 16.9118 38.8574 17.4075C38.8574 17.9032 39.2541 18.305 39.7435 18.305Z" fill="white"/>
<path d="M39.7435 9.81626C40.2328 9.81626 40.6295 9.41442 40.6295 8.91873C40.6295 8.42303 40.2328 8.02119 39.7435 8.02119C39.2541 8.02119 38.8574 8.42303 38.8574 8.91873C38.8574 9.41442 39.2541 9.81626 39.7435 9.81626Z" fill="white"/>
</svg>
