<svg width="151" height="37" viewBox="0 0 151 37" fill="none" xmlns="http://www.w3.org/2000/svg">
<path fill-rule="evenodd" clip-rule="evenodd" d="M30.8678 26.3201L30.3098 26.8804C30.3869 26.932 30.3991 27.0295 30.5925 27.3057C30.7478 27.5275 30.8606 27.6955 30.9937 27.9035C31.4493 28.6152 34.7999 33.5203 34.9217 33.8001C33.4751 33.7767 25.4738 31.0645 20.5436 32.6544C19.7216 32.9194 19.5332 33.1677 19.0104 33.4199L19.0082 31.2464L18.1994 31.2632C18.2036 31.9893 18.2058 32.7158 18.1893 33.4332C17.6347 33.1279 17.3492 32.8897 16.601 32.6397C14.7336 32.0152 12.1161 32.1498 10.1895 32.336C8.81558 32.4689 7.48201 32.7093 6.15873 32.9838C5.52938 33.1144 4.85882 33.2639 4.2453 33.4027C3.61982 33.5441 2.92792 33.7366 2.27704 33.8048L3.87873 31.3817C4.02687 31.1725 4.1417 30.9902 4.27456 30.7763L6.66311 27.2186C6.83627 26.9568 6.79322 26.8903 7.04734 26.828L6.46106 26.2176C6.36408 26.2964 6.27558 26.4158 6.1464 26.6091L3.61394 30.3924C3.14359 31.1194 2.65999 31.8216 2.17952 32.5357C1.96458 32.8552 0.493172 34.6448 0.742512 34.7288C0.705336 35.0632 6.78162 33.4367 9.87865 33.1233C11.533 32.9558 13.3248 32.8045 14.9627 33.0945C15.6879 33.2229 16.3914 33.417 16.991 33.7182C19.6905 35.0744 17.7438 34.9477 20.1888 33.7155C24.6943 31.4451 33.3268 34.7196 36.4446 34.7219C36.3664 34.4884 35.9185 33.8875 35.7496 33.6313L30.8821 26.3415C30.877 26.334 30.872 26.3268 30.8674 26.3198L30.8678 26.3201Z" fill="#58504E"/>
<path fill-rule="evenodd" clip-rule="evenodd" d="M17.3285 34.6593C15.9031 33.9492 15.178 33.5951 13.3259 33.5793C10.1118 33.5518 5.80707 34.6913 2.55197 35.4369C2.12357 35.5349 0.752276 35.7148 0.528688 35.8185C1.62489 35.8298 3.52432 35.3982 4.65107 35.1947C6.04592 34.943 7.42367 34.6751 8.8454 34.4369C10.8506 34.1009 13.495 33.881 15.4489 34.5577C15.9949 34.7467 16.7707 35.1652 17.0134 35.4855C16.1726 35.1618 16.3885 35.0866 15.1107 34.7853C11.5267 33.9399 5.57759 36.0239 1.57888 36.6736C1.15214 36.7428 0.211989 36.8722 0 36.969C1.36818 37.0122 2.6793 36.7017 4.02853 36.4626C7.37454 35.8698 15.3558 33.6853 16.9952 36.8522C17.0072 36.8753 17.0366 36.9499 17.0637 36.9667C17.0883 36.9762 17.1332 36.9584 17.1535 36.9485C18.4169 36.3175 18.6462 36.3184 19.9879 36.981C20.3075 36.3897 20.7034 36.0167 21.3796 35.7444C25.6402 34.028 32.2709 37.1012 37.1259 36.9974C37.1884 36.9582 37.1695 36.8146 37.021 36.8195C36.6323 36.8324 35.8617 36.7328 35.5667 36.688C31.2831 36.0389 25.935 33.965 21.9922 34.7797C21.1207 34.9598 20.7416 35.1956 20.0589 35.4844C20.3776 35.1339 21.0066 34.8054 21.5743 34.58C25.1303 33.1688 32.8443 35.6073 36.5694 36.0207C36.873 36.0543 36.737 35.8669 36.6428 35.8509L32.4588 34.9833C31.0783 34.6602 29.7155 34.3346 28.2843 34.055C26.3218 33.6718 23.3908 33.281 21.4208 33.9109C20.6509 34.157 20.4984 34.275 19.897 34.5893C19.5359 34.7928 18.9104 35.1697 18.522 35.4587C18.1328 35.1731 17.8485 34.9677 17.3284 34.6597L17.3285 34.6593Z" fill="#ACA6A8"/>
<path d="M43.8227 12.9759L43.8428 12.3074C43.9702 12.2681 44.1948 12.2189 44.5165 12.16C45.0326 12.0617 45.3443 11.9732 45.4516 11.8945C45.5655 11.8159 45.703 11.6259 45.8638 11.3244L50.2778 0.0098302C50.499 0.0163837 50.7102 0.0196604 50.9113 0.0196604H51.3637L51.4542 0.196604L53.2037 4.24665C53.5992 5.10515 53.9545 5.94072 54.2695 6.75335C54.5846 7.55943 54.856 8.21805 55.084 8.72922C55.218 9.03723 55.4023 9.49925 55.637 10.1153C55.7576 10.4495 55.9419 10.8689 56.19 11.3735C56.324 11.6488 56.4246 11.8094 56.4916 11.8552C56.6123 11.9535 56.8067 12.0191 57.0748 12.0518C57.3496 12.0846 57.6445 12.16 57.9596 12.2779C57.9931 12.4942 58.0099 12.6548 58.0099 12.7596C58.0099 12.8055 58.0065 12.8776 57.9998 12.9759C57.5038 12.9759 56.9575 12.9529 56.3609 12.9071C55.7643 12.8612 55.2281 12.8382 54.7521 12.8382C54.2226 12.8382 53.8405 12.8448 53.6059 12.8579L51.8966 12.9464L51.4039 12.966C51.4039 12.7367 51.414 12.5171 51.4341 12.3074L52.5502 12.0715C52.8853 11.9863 53.0797 11.9208 53.1333 11.8749C53.2004 11.8094 53.2339 11.734 53.2339 11.6488C53.2339 11.5636 53.2171 11.4751 53.1836 11.3834L52.7814 10.42L51.9871 8.4933L48.1462 8.48347C48.0055 8.79803 47.7139 9.56807 47.2715 10.7936C47.1441 11.1409 47.0804 11.3768 47.0804 11.5013C47.0804 11.6717 47.1274 11.793 47.2212 11.8651C47.3754 11.9896 47.6703 12.078 48.106 12.1305C48.1663 12.1436 48.4043 12.1796 48.8199 12.2386C48.8266 12.4745 48.83 12.6384 48.83 12.7301C48.83 12.8022 48.8232 12.8776 48.8098 12.9562C48.3942 12.9562 47.4022 12.9005 45.8337 12.7891L45.4214 12.8579C44.9254 12.9365 44.4528 12.9759 44.0037 12.9759H43.8227ZM48.5484 7.45129C50.117 7.47096 51.042 7.48079 51.3235 7.48079L51.5749 7.47096C51.3738 6.8877 51.1124 6.20941 50.7906 5.4361C50.4689 4.65624 50.2074 4.06315 50.0063 3.65684L48.5484 7.45129Z" fill="#2B2A29"/>
<path d="M58.3316 13.0545L58.3517 12.2681C58.5126 12.2288 58.707 12.1927 58.9349 12.16C59.3706 12.101 59.7259 12.0158 60.0007 11.9044C60.0945 11.7536 60.1549 11.6095 60.1817 11.4718C60.2353 11.1049 60.2621 10.5642 60.2621 9.84987L60.242 5.67203C60.242 5.2395 60.2185 4.10903 60.1716 2.28061C60.1582 1.7891 60.1247 1.48436 60.0711 1.3664C60.051 1.32708 60.0174 1.29431 59.9705 1.2681C59.8633 1.19601 59.6622 1.15341 59.3672 1.1403C59.2399 1.13375 58.9114 1.09771 58.3819 1.03217L58.3517 0.334227L60.604 0.285076L63.8918 0.176944L64.284 0.167113C64.3644 0.16056 64.4448 0.157283 64.5253 0.157283C64.5923 0.157283 64.7699 0.16056 65.0582 0.167113H65.7017C66.2111 0.16056 66.7641 0.235925 67.3607 0.393208C67.5685 0.445636 67.8433 0.557045 68.1852 0.727435C68.527 0.891272 68.822 1.10426 69.07 1.3664C69.3247 1.62198 69.5124 1.91034 69.633 2.23146C69.7537 2.55258 69.814 2.89336 69.814 3.2538C69.814 3.65356 69.7235 4.014 69.5426 4.33512C69.3616 4.64969 69.0867 4.94132 68.7181 5.21001C68.5304 5.34108 68.098 5.55734 67.421 5.8588C68.4332 6.08162 69.2041 6.49121 69.7336 7.08758C70.2631 7.67739 70.5279 8.33601 70.5279 9.06345C70.5279 9.49598 70.4441 9.94817 70.2765 10.42C70.1559 10.7739 69.9514 11.1016 69.6632 11.403C69.2811 11.8028 68.8756 12.1043 68.4466 12.3074C68.0243 12.5106 67.4378 12.6777 66.687 12.8088C66.3117 12.8743 65.7419 12.9071 64.9777 12.9071L63.2684 12.8677C62.5445 12.8677 61.6832 12.9005 60.6844 12.966C60.4029 12.9791 59.6186 13.0086 58.3316 13.0545ZM63.0171 5.59339C63.2852 5.63271 63.6003 5.65237 63.9622 5.65237C64.9677 5.65237 65.7285 5.47215 66.2446 5.11171C66.7608 4.74471 67.0188 4.11558 67.0188 3.22431C67.0188 2.59517 66.7742 2.0709 66.2849 1.65147C65.7955 1.23205 65.0582 1.02234 64.0728 1.02234C63.7913 1.02234 63.4159 1.05839 62.9467 1.13047C62.9467 1.2812 62.9534 1.49747 62.9668 1.77927C63.0003 2.33631 63.0171 3.11617 63.0171 4.11886L63.007 4.94459C63.007 5.08877 63.0104 5.30503 63.0171 5.59339ZM63.1377 11.8552C63.5734 12.0322 63.979 12.1206 64.3544 12.1206C65.1185 12.1206 65.7419 12.0092 66.2245 11.7864C66.7071 11.557 67.0591 11.2392 67.2803 10.8329C67.5015 10.4266 67.6121 9.91868 67.6121 9.3092C67.6121 8.68007 67.4914 8.17545 67.2501 7.79535C66.9149 7.27107 66.5094 6.92046 66.0335 6.74352C65.5576 6.56002 64.8437 6.46828 63.8918 6.46828C63.4695 6.46828 63.178 6.49777 63.0171 6.55675V7.76586L63.007 9.22073L63.0372 11.4817C63.0439 11.5865 63.0774 11.7111 63.1377 11.8552Z" fill="#2B2A29"/>
<path d="M71.2921 12.9759L71.3122 12.3074C71.4395 12.2681 71.6641 12.2189 71.9858 12.16C72.502 12.0617 72.8137 11.9732 72.9209 11.8945C73.0349 11.8159 73.1723 11.6259 73.3332 11.3244L77.7472 0.0098302C77.9684 0.0163837 78.1795 0.0196604 78.3806 0.0196604H78.8331L78.9236 0.196604L80.6731 4.24665C81.0686 5.10515 81.4238 5.94072 81.7389 6.75335C82.0539 7.55943 82.3254 8.21805 82.5533 8.72922C82.6874 9.03723 82.8717 9.49925 83.1063 10.1153C83.227 10.4495 83.4113 10.8689 83.6593 11.3735C83.7934 11.6488 83.8939 11.8094 83.9609 11.8552C84.0816 11.9535 84.276 12.0191 84.5441 12.0518C84.8189 12.0846 85.1139 12.16 85.4289 12.2779C85.4624 12.4942 85.4792 12.6548 85.4792 12.7596C85.4792 12.8055 85.4758 12.8776 85.4691 12.9759C84.9731 12.9759 84.4268 12.9529 83.8302 12.9071C83.2337 12.8612 82.6974 12.8382 82.2215 12.8382C81.6919 12.8382 81.3099 12.8448 81.0753 12.8579L79.366 12.9464L78.8733 12.966C78.8733 12.7367 78.8833 12.5171 78.9035 12.3074L80.0195 12.0715C80.3547 11.9863 80.5491 11.9208 80.6027 11.8749C80.6697 11.8094 80.7032 11.734 80.7032 11.6488C80.7032 11.5636 80.6865 11.4751 80.653 11.3834L80.2508 10.42L79.4565 8.4933L75.6156 8.48347C75.4748 8.79803 75.1832 9.56807 74.7408 10.7936C74.6135 11.1409 74.5498 11.3768 74.5498 11.5013C74.5498 11.6717 74.5967 11.793 74.6905 11.8651C74.8447 11.9896 75.1397 12.078 75.5754 12.1305C75.6357 12.1436 75.8736 12.1796 76.2892 12.2386C76.2959 12.4745 76.2993 12.6384 76.2993 12.7301C76.2993 12.8022 76.2926 12.8776 76.2792 12.9562C75.8636 12.9562 74.8715 12.9005 73.303 12.7891L72.8908 12.8579C72.3947 12.9365 71.9222 12.9759 71.4731 12.9759H71.2921ZM76.0178 7.45129C77.5863 7.47096 78.5113 7.48079 78.7928 7.48079L79.0442 7.47096C78.8431 6.8877 78.5817 6.20941 78.2599 5.4361C77.9382 4.65624 77.6768 4.06315 77.4757 3.65684L76.0178 7.45129Z" fill="#2B2A29"/>
<path d="M90.9892 3.64701L88.8777 9.14209C88.3347 10.5707 88.0632 11.3506 88.0632 11.4817C88.0632 11.6783 88.1437 11.8225 88.3046 11.9142C88.4654 12.006 88.7269 12.0748 89.0888 12.1206C89.1424 12.1337 89.3804 12.1698 89.8027 12.2288L89.8128 12.7203C89.8128 12.7989 89.8061 12.8743 89.7926 12.9464C89.3771 12.9464 88.7704 12.9169 87.9728 12.8579L86.8165 12.7793L86.4042 12.8481C85.9216 12.9267 85.3887 12.966 84.8055 12.966L84.8256 12.2976C84.8927 12.2714 85.1172 12.2222 85.4993 12.1501C86.0222 12.0518 86.354 11.9503 86.4947 11.8454C86.6422 11.734 86.8232 11.4227 87.0377 10.9115C87.2522 10.3938 87.8186 8.90944 88.7369 6.45844L90.0742 3.09651L91.2606 0L92.3465 0.0098302C92.5543 0.409592 93.1241 1.72684 94.0558 3.96157L94.3273 4.54155C94.6289 5.1969 95.0512 6.22252 95.5942 7.61841L95.9159 8.37533C96.1439 8.89961 96.3785 9.47632 96.6198 10.1055C96.8745 10.7805 97.0856 11.2621 97.2532 11.5505C97.4208 11.8323 97.652 11.9896 97.947 12.0223C98.309 12.0682 98.6408 12.1501 98.9424 12.2681C98.9759 12.4844 98.9927 12.6482 98.9927 12.7596L98.9826 12.966C98.4866 12.966 97.9235 12.9431 97.2934 12.8972C96.7304 12.8514 96.2947 12.8284 95.9863 12.8284C95.1484 12.8284 94.3307 12.8579 93.533 12.9169L92.3868 12.9562C92.3868 12.7203 92.3968 12.5007 92.4169 12.2976C92.4504 12.2845 92.6951 12.2386 93.1509 12.16C93.7006 12.0158 94.0156 11.924 94.096 11.8847C94.1765 11.8454 94.2167 11.7635 94.2167 11.639C94.2167 11.521 93.9687 10.882 93.4727 9.72207L93.0202 8.61126C91.9745 5.89812 91.2975 4.24337 90.9892 3.64701Z" fill="#2B2A29"/>
<path d="M43.9593 25.0521V21.7813H44.7356V24.3552H46.0555V21.7813H46.8354V24.3552H47.393V25.9871H46.6766V25.0521H43.9593Z" fill="#58504E"/>
<path d="M50.3538 23.8411L51.0066 24.1999C50.9478 24.3034 50.8796 24.4058 50.8019 24.507C50.7243 24.6082 50.6467 24.6921 50.569 24.7588C50.4138 24.8922 50.235 24.9923 50.0326 25.059C49.8326 25.1234 49.6374 25.1556 49.4468 25.1556C48.9316 25.1487 48.5246 24.9866 48.2258 24.6691C47.927 24.3494 47.7776 23.9388 47.7776 23.4374C47.7776 22.9245 47.9258 22.5059 48.2223 22.1815C48.5187 21.8572 48.9139 21.6951 49.408 21.6951C49.6621 21.6951 49.8985 21.7457 50.1173 21.8469C50.3385 21.9481 50.5208 22.0976 50.6643 22.2954C50.7631 22.4403 50.8372 22.6151 50.8866 22.8198C50.9384 23.0245 50.9678 23.2454 50.9749 23.4823V23.5996H48.5716C48.5763 23.8549 48.6634 24.0642 48.8328 24.2275C49.0045 24.3885 49.2198 24.469 49.4786 24.469C49.568 24.469 49.6586 24.4552 49.7503 24.4276C49.8444 24.4 49.9315 24.3552 50.0114 24.2931C50.075 24.2448 50.1373 24.1815 50.1985 24.1033C50.2597 24.0228 50.3114 23.9354 50.3538 23.8411ZM48.6281 22.9785H50.1773C50.1303 22.7968 50.0373 22.6531 49.8985 22.5473C49.7621 22.4415 49.5986 22.3851 49.408 22.3782C49.2174 22.3782 49.0516 22.4346 48.9104 22.5473C48.7693 22.6577 48.6751 22.8014 48.6281 22.9785Z" fill="#58504E"/>
<path d="M51.8218 25.0521V21.7813H52.6017V22.9923H53.9851V21.7813H54.765V25.0521H53.9851V23.6927H52.6017V25.0521H51.8218Z" fill="#58504E"/>
<path d="M58.0575 22.4817H57.08V25.0521H56.3036V22.4817H55.3226V21.7813H58.0575V22.4817Z" fill="#58504E"/>
<path d="M59.3985 24.6726V26.8324H58.6186V21.7813H59.3985V22.1401C59.5161 21.9998 59.6597 21.8906 59.829 21.8124C59.9984 21.7342 60.1866 21.6951 60.3937 21.6951C60.8477 21.6951 61.2324 21.8526 61.5477 22.1677C61.8629 22.4806 62.0205 22.8911 62.0205 23.3995C62.0205 23.9262 61.8559 24.3506 61.5265 24.6726C61.1995 24.9946 60.8242 25.1556 60.4007 25.1556C60.2149 25.1556 60.0314 25.1142 59.8502 25.0314C59.6714 24.9486 59.5209 24.829 59.3985 24.6726ZM60.2984 22.3782C60.0326 22.3782 59.8079 22.4702 59.6244 22.6542C59.4432 22.8382 59.3526 23.0993 59.3526 23.4374C59.3526 23.764 59.4432 24.0182 59.6244 24.1999C59.8079 24.3793 60.0326 24.469 60.2984 24.469C60.5737 24.469 60.7972 24.3701 60.9689 24.1723C61.1406 23.9722 61.2265 23.7249 61.2265 23.4305C61.2265 23.1338 61.1406 22.8842 60.9689 22.6818C60.7972 22.4794 60.5737 22.3782 60.2984 22.3782Z" fill="#58504E"/>
<path d="M64.632 25.0521L65.4401 21.4846L66.8235 23.9825L68.2068 21.4846L69.0185 25.0521H68.2245L67.8892 23.4133L66.8235 25.304L65.7612 23.4133L65.426 25.0521H64.632Z" fill="#58504E"/>
<path d="M72.0746 22.1608V21.7813H72.8545V25.0521H72.0746V24.7105C71.9475 24.8554 71.7993 24.9659 71.6299 25.0418C71.4605 25.1177 71.2747 25.1556 71.0723 25.1556C70.5759 25.1556 70.1819 24.9866 69.8901 24.6484C69.5984 24.308 69.4526 23.8963 69.4526 23.4133C69.4526 22.9003 69.609 22.4863 69.9219 22.1712C70.2348 21.8538 70.6218 21.6951 71.0829 21.6951C71.2876 21.6951 71.4746 21.7365 71.644 21.8193C71.8158 21.9021 71.9593 22.0159 72.0746 22.1608ZM71.1782 22.3782C70.8959 22.3782 70.67 22.4794 70.5007 22.6818C70.3313 22.8842 70.2466 23.1338 70.2466 23.4305C70.2419 23.7249 70.3254 23.9722 70.4971 24.1723C70.6689 24.3701 70.8959 24.469 71.1782 24.469C71.437 24.469 71.6593 24.3793 71.8452 24.1999C72.0311 24.0182 72.124 23.764 72.124 23.4374C72.124 23.0993 72.0311 22.8382 71.8452 22.6542C71.6593 22.4702 71.437 22.3782 71.1782 22.3782Z" fill="#58504E"/>
<path d="M73.8426 25.0521V21.7813H74.6225V22.9923H76.0059V21.7813H76.7858V25.0521H76.0059V23.6927H74.6225V25.0521H73.8426Z" fill="#58504E"/>
<path d="M77.5268 26.8324L78.8149 24.4483L77.3257 21.7813H78.2644L79.249 23.6237L80.1877 21.7813H81.0629L78.3985 26.8324H77.5268Z" fill="#58504E"/>
<path d="M84.0519 22.1608V21.7813H84.8318V25.0521H84.0519V24.7105C83.9249 24.8554 83.7766 24.9659 83.6073 25.0418C83.4379 25.1177 83.252 25.1556 83.0497 25.1556C82.5533 25.1556 82.1592 24.9866 81.8675 24.6484C81.5757 24.308 81.4299 23.8963 81.4299 23.4133C81.4299 22.9003 81.5863 22.4863 81.8992 22.1712C82.2121 21.8538 82.5991 21.6951 83.0603 21.6951C83.2649 21.6951 83.452 21.7365 83.6214 21.8193C83.7931 21.9021 83.9366 22.0159 84.0519 22.1608ZM83.1555 22.3782C82.8732 22.3782 82.6474 22.4794 82.478 22.6818C82.3086 22.8842 82.2239 23.1338 82.2239 23.4305C82.2192 23.7249 82.3027 23.9722 82.4745 24.1723C82.6462 24.3701 82.8732 24.469 83.1555 24.469C83.4143 24.469 83.6367 24.3793 83.8225 24.1999C84.0084 24.0182 84.1013 23.764 84.1013 23.4374C84.1013 23.0993 84.0084 22.8382 83.8225 22.6542C83.6367 22.4702 83.4143 22.3782 83.1555 22.3782Z" fill="#58504E"/>
<path d="M88.569 21.7813V25.0521H87.7891V22.4817H86.8045V23.779C86.8045 24.0021 86.7763 24.1873 86.7198 24.3345C86.6657 24.4817 86.5881 24.6105 86.4869 24.7209C86.3528 24.8589 86.1905 24.9567 85.9999 25.0142C85.8093 25.0717 85.6058 25.0843 85.3894 25.0521V24.3552C85.4952 24.3805 85.5976 24.3782 85.6964 24.3483C85.7976 24.3161 85.8776 24.2689 85.9364 24.2068C85.974 24.1654 86.0034 24.1102 86.0246 24.0412C86.0458 23.9699 86.0564 23.8825 86.0564 23.779V21.7813H88.569Z" fill="#58504E"/>
<path d="M89.5606 25.0521V21.7813H90.3405V22.9406H90.7852C91.0487 22.9406 91.2545 22.9682 91.4027 23.0234C91.5533 23.0763 91.6839 23.1603 91.7945 23.2753C91.8839 23.3719 91.9497 23.4811 91.9921 23.603C92.0344 23.7249 92.0556 23.8537 92.0556 23.9894C92.0556 24.1505 92.0285 24.3 91.9744 24.438C91.9227 24.5737 91.8497 24.6852 91.7556 24.7726C91.6427 24.8761 91.5169 24.9486 91.378 24.99C91.2416 25.0314 91.0416 25.0521 90.7781 25.0521H89.5606ZM90.3405 24.4H90.697C90.8075 24.4046 90.8922 24.4012 90.951 24.3897C91.0099 24.3759 91.0604 24.3563 91.1028 24.331C91.1545 24.2988 91.1957 24.2551 91.2263 24.1999C91.2592 24.1424 91.2757 24.0746 91.2757 23.9963C91.2757 23.9296 91.2616 23.8687 91.2334 23.8135C91.2051 23.7583 91.164 23.71 91.1098 23.6686C91.0675 23.6479 91.0181 23.6318 90.9616 23.6203C90.9075 23.6065 90.8216 23.5973 90.704 23.5927H90.3405V24.4Z" fill="#58504E"/>
<path d="M92.7438 25.0521V21.7813H93.5237V22.9923H94.907V21.7813H95.6869V25.0521H94.907V23.6927H93.5237V25.0521H92.7438Z" fill="#58504E"/>
<path d="M98.2878 21.6951C98.7959 21.6951 99.2206 21.8584 99.5617 22.185C99.9052 22.5116 100.077 22.9233 100.077 23.4202C100.077 23.9239 99.9052 24.3391 99.5617 24.6657C99.2206 24.9923 98.7959 25.1556 98.2878 25.1556C97.7725 25.1556 97.3455 24.9923 97.0068 24.6657C96.668 24.3391 96.4986 23.9239 96.4986 23.4202C96.4986 22.9233 96.668 22.5116 97.0068 22.185C97.3455 21.8584 97.7725 21.6951 98.2878 21.6951ZM98.2878 24.469C98.5889 24.469 98.8289 24.3759 99.0077 24.1896C99.1888 24.0033 99.2794 23.7502 99.2794 23.4305C99.2794 23.1177 99.1888 22.8647 99.0077 22.6715C98.8289 22.476 98.5889 22.3782 98.2878 22.3782C97.9796 22.3782 97.7361 22.476 97.5573 22.6715C97.3808 22.8647 97.2926 23.1177 97.2926 23.4305C97.2926 23.7502 97.3808 24.0033 97.5573 24.1896C97.7361 24.3759 97.9796 24.469 98.2878 24.469Z" fill="#58504E"/>
<path d="M100.889 21.7813H101.669V23.6375L103.959 21.4846V25.0521H103.179V23.1511L100.889 25.304V21.7813ZM101.143 20.3667L101.778 20.1873C101.827 20.3529 101.906 20.4795 102.014 20.5669C102.123 20.652 102.261 20.6945 102.431 20.6945C102.6 20.6945 102.737 20.6543 102.84 20.5738C102.944 20.4933 103.025 20.3644 103.084 20.1873L103.719 20.3667C103.639 20.6359 103.477 20.8567 103.232 21.0292C102.99 21.1994 102.723 21.2845 102.431 21.2845C102.134 21.2845 101.864 21.1994 101.619 21.0292C101.377 20.8567 101.218 20.6359 101.143 20.3667Z" fill="#58504E"/>
<path d="M107.128 21.7813H107.908V23.6375L110.198 21.4846V25.0521H109.418V23.1511L107.128 25.304V21.7813Z" fill="#58504E"/>
<path d="M112.986 25.0521L113.794 21.4846L115.177 23.9825L116.561 21.4846L117.372 25.0521H116.578L116.243 23.4133L115.177 25.304L114.115 23.4133L113.78 25.0521H112.986Z" fill="#58504E"/>
<path d="M120.383 23.8411L121.036 24.1999C120.977 24.3034 120.908 24.4058 120.831 24.507C120.753 24.6082 120.676 24.6921 120.598 24.7588C120.443 24.8922 120.264 24.9923 120.062 25.059C119.862 25.1234 119.666 25.1556 119.476 25.1556C118.96 25.1487 118.553 24.9866 118.255 24.6691C117.956 24.3494 117.807 23.9388 117.807 23.4374C117.807 22.9245 117.955 22.5059 118.251 22.1815C118.548 21.8572 118.943 21.6951 119.437 21.6951C119.691 21.6951 119.927 21.7457 120.146 21.8469C120.367 21.9481 120.55 22.0976 120.693 22.2954C120.792 22.4403 120.866 22.6151 120.916 22.8198C120.967 23.0245 120.997 23.2454 121.004 23.4823V23.5996H118.601C118.605 23.8549 118.692 24.0642 118.862 24.2275C119.033 24.3885 119.249 24.469 119.507 24.469C119.597 24.469 119.687 24.4552 119.779 24.4276C119.873 24.4 119.96 24.3552 120.04 24.2931C120.104 24.2448 120.166 24.1815 120.227 24.1033C120.289 24.0228 120.34 23.9354 120.383 23.8411ZM118.657 22.9785H120.206C120.159 22.7968 120.066 22.6531 119.927 22.5473C119.791 22.4415 119.627 22.3851 119.437 22.3782C119.246 22.3782 119.08 22.4346 118.939 22.5473C118.798 22.6577 118.704 22.8014 118.657 22.9785Z" fill="#58504E"/>
<path d="M121.851 25.0521V21.7813H122.631V22.9923H124.014V21.7813H124.794V25.0521H124.014V23.6927H122.631V25.0521H121.851Z" fill="#58504E"/>
<path d="M128.086 22.4817H127.109V25.0521H126.333V22.4817H125.351V21.7813H128.086V22.4817Z" fill="#58504E"/>
<path d="M131.093 22.1608V21.7813H131.873V25.0521H131.093V24.7105C130.966 24.8554 130.818 24.9659 130.648 25.0418C130.479 25.1177 130.293 25.1556 130.091 25.1556C129.594 25.1556 129.2 24.9866 128.909 24.6484C128.617 24.308 128.471 23.8963 128.471 23.4133C128.471 22.9003 128.628 22.4863 128.94 22.1712C129.253 21.8538 129.64 21.6951 130.101 21.6951C130.306 21.6951 130.493 21.7365 130.663 21.8193C130.834 21.9021 130.978 22.0159 131.093 22.1608ZM130.197 22.3782C129.914 22.3782 129.689 22.4794 129.519 22.6818C129.35 22.8842 129.265 23.1338 129.265 23.4305C129.26 23.7249 129.344 23.9722 129.516 24.1723C129.687 24.3701 129.914 24.469 130.197 24.469C130.456 24.469 130.678 24.3793 130.864 24.1999C131.05 24.0182 131.142 23.764 131.142 23.4374C131.142 23.0993 131.05 22.8382 130.864 22.6542C130.678 22.4702 130.456 22.3782 130.197 22.3782Z" fill="#58504E"/>
<path d="M135.61 21.7813V25.0521H134.83V22.4817H133.846V23.779C133.846 24.0021 133.817 24.1873 133.761 24.3345C133.707 24.4817 133.629 24.6105 133.528 24.7209C133.394 24.8589 133.232 24.9567 133.041 25.0142C132.851 25.0717 132.647 25.0843 132.431 25.0521V24.3552C132.536 24.3805 132.639 24.3782 132.738 24.3483C132.839 24.3161 132.919 24.2689 132.978 24.2068C133.015 24.1654 133.045 24.1102 133.066 24.0412C133.087 23.9699 133.098 23.8825 133.098 23.779V21.7813H135.61Z" fill="#58504E"/>
<path d="M136.602 25.0521V21.7813H137.382V22.9406H137.826C138.09 22.9406 138.296 22.9682 138.444 23.0234C138.594 23.0763 138.725 23.1603 138.836 23.2753C138.925 23.3719 138.991 23.4811 139.033 23.603C139.076 23.7249 139.097 23.8537 139.097 23.9894C139.097 24.1505 139.07 24.3 139.016 24.438C138.964 24.5737 138.891 24.6852 138.797 24.7726C138.684 24.8761 138.558 24.9486 138.419 24.99C138.283 25.0314 138.083 25.0521 137.819 25.0521H136.602ZM137.382 24.4H137.738C137.849 24.4046 137.933 24.4012 137.992 24.3897C138.051 24.3759 138.102 24.3563 138.144 24.331C138.196 24.2988 138.237 24.2551 138.267 24.1999C138.3 24.1424 138.317 24.0746 138.317 23.9963C138.317 23.9296 138.303 23.8687 138.275 23.8135C138.246 23.7583 138.205 23.71 138.151 23.6686C138.109 23.6479 138.059 23.6318 138.003 23.6203C137.949 23.6065 137.863 23.5973 137.745 23.5927H137.382V24.4Z" fill="#58504E"/>
<path d="M139.785 25.0521V21.7813H140.565V22.9923H141.948V21.7813H142.728V25.0521H141.948V23.6927H140.565V25.0521H139.785Z" fill="#58504E"/>
<path d="M145.329 21.6951C145.837 21.6951 146.262 21.8584 146.603 22.185C146.946 22.5116 147.118 22.9233 147.118 23.4202C147.118 23.9239 146.946 24.3391 146.603 24.6657C146.262 24.9923 145.837 25.1556 145.329 25.1556C144.814 25.1556 144.387 24.9923 144.048 24.6657C143.709 24.3391 143.54 23.9239 143.54 23.4202C143.54 22.9233 143.709 22.5116 144.048 22.185C144.387 21.8584 144.814 21.6951 145.329 21.6951ZM145.329 24.469C145.63 24.469 145.87 24.3759 146.049 24.1896C146.23 24.0033 146.321 23.7502 146.321 23.4305C146.321 23.1177 146.23 22.8647 146.049 22.6715C145.87 22.476 145.63 22.3782 145.329 22.3782C145.021 22.3782 144.777 22.476 144.598 22.6715C144.422 22.8647 144.334 23.1177 144.334 23.4305C144.334 23.7502 144.422 24.0033 144.598 24.1896C144.777 24.3759 145.021 24.469 145.329 24.469Z" fill="#58504E"/>
<path d="M147.93 21.7813H148.71V23.6375L151 21.4846V25.0521H150.22V23.1511L147.93 25.304V21.7813ZM148.184 20.3667L148.819 20.1873C148.868 20.3529 148.947 20.4795 149.056 20.5669C149.164 20.652 149.303 20.6945 149.472 20.6945C149.641 20.6945 149.778 20.6543 149.881 20.5738C149.985 20.4933 150.066 20.3644 150.125 20.1873L150.76 20.3667C150.68 20.6359 150.518 20.8567 150.273 21.0292C150.031 21.1994 149.764 21.2845 149.472 21.2845C149.176 21.2845 148.905 21.1994 148.66 21.0292C148.418 20.8567 148.259 20.6359 148.184 20.3667Z" fill="#58504E"/>
<path d="M44.2451 30.2511H46.7542V32.8249H47.2659V34.4569H46.5495V33.5219H44.2134V34.4569H43.497V32.8249C43.624 32.818 43.7416 32.7778 43.8499 32.7042C43.9581 32.6283 44.044 32.5259 44.1075 32.3971C44.1569 32.3028 44.1922 32.1878 44.2134 32.0521C44.2345 31.9141 44.2451 31.7416 44.2451 31.5346V30.2511ZM45.9778 32.8249V30.9515H44.9897V31.8209C44.9897 32.0602 44.9568 32.2626 44.8909 32.4282C44.825 32.5938 44.7286 32.726 44.6015 32.8249H45.9778Z" fill="#58504E"/>
<path d="M47.827 30.2511H48.6069V32.1073L50.8972 29.9544V33.5219H50.1173V31.6208L47.827 33.7737V30.2511Z" fill="#58504E"/>
<path d="M54.3309 30.6306V30.2511H55.1108V33.5219H54.3309V33.1803C54.2039 33.3252 54.0557 33.4356 53.8863 33.5115C53.7169 33.5874 53.531 33.6254 53.3287 33.6254C52.8323 33.6254 52.4382 33.4563 52.1465 33.1182C51.8547 32.7778 51.7089 32.3661 51.7089 31.883C51.7089 31.3701 51.8653 30.9561 52.1782 30.641C52.4911 30.3236 52.8782 30.1648 53.3393 30.1648C53.5439 30.1648 53.731 30.2062 53.9004 30.2891C54.0721 30.3719 54.2156 30.4857 54.3309 30.6306ZM53.4346 30.848C53.1522 30.848 52.9264 30.9492 52.757 31.1516C52.5876 31.354 52.5029 31.6036 52.5029 31.9003C52.4982 32.1947 52.5817 32.442 52.7535 32.6421C52.9252 32.8399 53.1522 32.9388 53.4346 32.9388C53.6933 32.9388 53.9157 32.8491 54.1015 32.6697C54.2874 32.488 54.3803 32.2338 54.3803 31.9072C54.3803 31.5691 54.2874 31.308 54.1015 31.124C53.9157 30.94 53.6933 30.848 53.4346 30.848Z" fill="#58504E"/>
<path d="M56.0989 33.5219V30.2511H58.1528V30.9515H56.8788V33.5219H56.0989Z" fill="#58504E"/>
<path d="M58.7174 33.5219V30.2511H59.4973V31.4621H60.8807V30.2511H61.6606V33.5219H60.8807V32.1625H59.4973V33.5219H58.7174Z" fill="#58504E"/>
<path d="M64.2614 30.1648C64.7696 30.1648 65.1943 30.3282 65.5354 30.6548C65.8789 30.9814 66.0506 31.3931 66.0506 31.8899C66.0506 32.3937 65.8789 32.8088 65.5354 33.1355C65.1943 33.4621 64.7696 33.6254 64.2614 33.6254C63.7462 33.6254 63.3192 33.4621 62.9804 33.1355C62.6416 32.8088 62.4722 32.3937 62.4722 31.8899C62.4722 31.3931 62.6416 30.9814 62.9804 30.6548C63.3192 30.3282 63.7462 30.1648 64.2614 30.1648ZM64.2614 32.9388C64.5626 32.9388 64.8025 32.8456 64.9813 32.6593C65.1625 32.473 65.2531 32.22 65.2531 31.9003C65.2531 31.5875 65.1625 31.3345 64.9813 31.1412C64.8025 30.9457 64.5626 30.848 64.2614 30.848C63.9532 30.848 63.7097 30.9457 63.5309 31.1412C63.3545 31.3345 63.2663 31.5875 63.2663 31.9003C63.2663 32.22 63.3545 32.473 63.5309 32.6593C63.7097 32.8456 63.9532 32.9388 64.2614 32.9388Z" fill="#58504E"/>
<path d="M69.4526 30.3995V31.4C69.3467 31.2298 69.2067 31.0952 69.0326 30.9963C68.8609 30.8974 68.6774 30.848 68.4821 30.848C68.2115 30.848 67.9763 30.9423 67.7763 31.1309C67.5787 31.3172 67.4799 31.5702 67.4799 31.8899C67.4799 32.1913 67.5704 32.442 67.7516 32.6421C67.9351 32.8399 68.1762 32.9388 68.475 32.9388C68.6656 32.9388 68.8491 32.8916 69.0255 32.7973C69.2043 32.7007 69.3467 32.5616 69.4526 32.3799V33.3839C69.2973 33.4713 69.1455 33.5334 68.9973 33.5702C68.8491 33.607 68.6926 33.6254 68.528 33.6254C68.2315 33.6185 67.9716 33.5782 67.7481 33.5046C67.5269 33.4287 67.3316 33.3034 67.1622 33.1286C67.0093 32.9768 66.8917 32.7985 66.8093 32.5938C66.727 32.3891 66.6858 32.1579 66.6858 31.9003C66.6858 31.6358 66.7317 31.3966 66.8235 31.1827C66.9176 30.9664 67.0517 30.7755 67.2258 30.6099C67.3952 30.4535 67.5775 30.3408 67.7728 30.2718C67.9704 30.2005 68.2151 30.1648 68.5068 30.1648C68.6926 30.1648 68.8609 30.1844 69.0114 30.2235C69.162 30.2626 69.309 30.3213 69.4526 30.3995Z" fill="#58504E"/>
<path d="M72.5051 30.9515H71.5276V33.5219H70.7512V30.9515H69.7702V30.2511H72.5051V30.9515Z" fill="#58504E"/>
<path d="M73.0662 30.2511H73.8461V32.1073L76.1364 29.9544V33.5219H75.3565V31.6208L73.0662 33.7737V30.2511Z" fill="#58504E"/>
<path d="M77.1245 30.2511H77.9044V31.4173L79.0161 30.2511H80.05L78.5891 31.6829L80.1312 33.5219H79.1431L78.0315 32.1798L77.9044 32.304V33.5219H77.1245V30.2511Z" fill="#58504E"/>
<path d="M80.6394 30.2511H81.4193V32.1073L83.7096 29.9544V33.5219H82.9297V31.6208L80.6394 33.7737V30.2511Z" fill="#58504E"/>
<path d="M86.8786 30.2511H87.6585V32.1073L89.9488 29.9544V33.5219H89.1689V31.6208L86.8786 33.7737V30.2511Z" fill="#58504E"/>
<path d="M93.1178 30.2511H93.8977V31.4173L95.0094 30.2511H96.0433L94.5824 31.6829L96.1245 33.5219H95.1364L94.0248 32.1798L93.8977 32.304V33.5219H93.1178V30.2511Z" fill="#58504E"/>
<path d="M98.2454 30.1648C98.7536 30.1648 99.1782 30.3282 99.5194 30.6548C99.8629 30.9814 100.035 31.3931 100.035 31.8899C100.035 32.3937 99.8629 32.8088 99.5194 33.1355C99.1782 33.4621 98.7536 33.6254 98.2454 33.6254C97.7302 33.6254 97.3032 33.4621 96.9644 33.1355C96.6256 32.8088 96.4562 32.3937 96.4562 31.8899C96.4562 31.3931 96.6256 30.9814 96.9644 30.6548C97.3032 30.3282 97.7302 30.1648 98.2454 30.1648ZM98.2454 32.9388C98.5466 32.9388 98.7865 32.8456 98.9653 32.6593C99.1465 32.473 99.2371 32.22 99.2371 31.9003C99.2371 31.5875 99.1465 31.3345 98.9653 31.1412C98.7865 30.9457 98.5466 30.848 98.2454 30.848C97.9372 30.848 97.6937 30.9457 97.5149 31.1412C97.3385 31.3345 97.2503 31.5875 97.2503 31.9003C97.2503 32.22 97.3385 32.473 97.5149 32.6593C97.6937 32.8456 97.9372 32.9388 98.2454 32.9388Z" fill="#58504E"/>
<path d="M101.626 33.1424V35.3022H100.846V30.2511H101.626V30.6099C101.744 30.4696 101.887 30.3604 102.057 30.2822C102.226 30.2039 102.414 30.1648 102.621 30.1648C103.075 30.1648 103.46 30.3224 103.775 30.6375C104.091 30.9503 104.248 31.3609 104.248 31.8692C104.248 32.396 104.084 32.8203 103.754 33.1424C103.427 33.4644 103.052 33.6254 102.628 33.6254C102.443 33.6254 102.259 33.584 102.078 33.5012C101.899 33.4184 101.749 33.2988 101.626 33.1424ZM102.526 30.848C102.26 30.848 102.036 30.94 101.852 31.124C101.671 31.308 101.58 31.5691 101.58 31.9072C101.58 32.2338 101.671 32.488 101.852 32.6697C102.036 32.8491 102.26 32.9388 102.526 32.9388C102.801 32.9388 103.025 32.8399 103.197 32.6421C103.368 32.442 103.454 32.1947 103.454 31.9003C103.454 31.6036 103.368 31.354 103.197 31.1516C103.025 30.9492 102.801 30.848 102.526 30.848Z" fill="#58504E"/>
<path d="M105.84 33.1424V35.3022H105.06V30.2511H105.84V30.6099C105.957 30.4696 106.101 30.3604 106.27 30.2822C106.44 30.2039 106.628 30.1648 106.835 30.1648C107.289 30.1648 107.674 30.3224 107.989 30.6375C108.304 30.9503 108.462 31.3609 108.462 31.8692C108.462 32.396 108.297 32.8203 107.968 33.1424C107.641 33.4644 107.265 33.6254 106.842 33.6254C106.656 33.6254 106.473 33.584 106.291 33.5012C106.113 33.4184 105.962 33.2988 105.84 33.1424ZM106.74 30.848C106.474 30.848 106.249 30.94 106.066 31.124C105.884 31.308 105.794 31.5691 105.794 31.9072C105.794 32.2338 105.884 32.488 106.066 32.6697C106.249 32.8491 106.474 32.9388 106.74 32.9388C107.015 32.9388 107.238 32.8399 107.41 32.6421C107.582 32.442 107.668 32.1947 107.668 31.9003C107.668 31.6036 107.582 31.354 107.41 31.1516C107.238 30.9492 107.015 30.848 106.74 30.848Z" fill="#58504E"/>
<path d="M111.673 32.3109L112.326 32.6697C112.267 32.7732 112.199 32.8755 112.121 32.9768C112.044 33.078 111.966 33.1619 111.888 33.2286C111.733 33.362 111.554 33.4621 111.352 33.5288C111.152 33.5932 110.957 33.6254 110.766 33.6254C110.251 33.6185 109.844 33.4563 109.545 33.1389C109.246 32.8192 109.097 32.4086 109.097 31.9072C109.097 31.3943 109.245 30.9756 109.542 30.6513C109.838 30.327 110.233 30.1648 110.727 30.1648C110.981 30.1648 111.218 30.2154 111.437 30.3167C111.658 30.4179 111.84 30.5674 111.984 30.7652C112.083 30.9101 112.157 31.0849 112.206 31.2896C112.258 31.4943 112.287 31.7151 112.294 31.952V32.0694H109.891C109.896 32.3247 109.983 32.534 110.152 32.6973C110.324 32.8583 110.539 32.9388 110.798 32.9388C110.887 32.9388 110.978 32.925 111.07 32.8974C111.164 32.8698 111.251 32.8249 111.331 32.7628C111.394 32.7145 111.457 32.6513 111.518 32.5731C111.579 32.4926 111.631 32.4052 111.673 32.3109ZM109.947 31.4483H111.497C111.45 31.2666 111.357 31.1228 111.218 31.017C111.081 30.9112 110.918 30.8549 110.727 30.848C110.537 30.848 110.371 30.9043 110.23 31.017C110.089 31.1274 109.995 31.2712 109.947 31.4483Z" fill="#58504E"/>
<path d="M113.141 30.2511H113.921V31.4173L115.033 30.2511H116.067L114.606 31.6829L116.148 33.5219H115.16L114.048 32.1798L113.921 32.304V33.5219H113.141V30.2511Z" fill="#58504E"/>
<path d="M116.656 33.5219V30.2511H117.432V32.8249H118.752V30.2511H119.532V32.8249H120.09V34.4569H119.373V33.5219H116.656Z" fill="#58504E"/>
<path d="M120.651 30.2511H121.431V32.1073L123.721 29.9544V33.5219H122.941V31.6208L120.651 33.7737V30.2511Z" fill="#58504E"/>
<path d="M124.709 30.2511H125.489V32.1073L127.779 29.9544V33.5219H126.999V31.6208L124.709 33.7737V30.2511Z" fill="#58504E"/>
<path fill-rule="evenodd" clip-rule="evenodd" d="M33.3759 15.2182C33.3759 7.22889 26.7515 0.752305 18.5798 0.752305C10.4081 0.752305 3.78361 7.22889 3.78361 15.2182C3.78361 22.4758 9.25052 28.4846 16.3778 29.5244C16.3685 29.5022 16.3628 29.4774 16.3612 29.4496C16.3417 29.1159 16.8109 29.1905 16.9732 28.9228L16.974 28.9215C9.93865 28.142 4.47176 22.3049 4.47176 15.2182C4.47176 7.60047 10.7881 1.4251 18.5798 1.4251C26.3714 1.4251 32.6878 7.60047 32.6878 15.2182C32.6878 22.3076 27.2168 28.1466 20.1776 28.9225C20.1983 28.9567 20.2214 28.9876 20.2472 29.0142C20.3608 29.1314 20.9632 29.2121 20.7775 29.5249C27.9069 28.487 33.3759 22.4772 33.3759 15.2182ZM18.1441 29.6773C18.2888 29.6814 18.434 29.684 18.5798 29.684C18.7223 29.684 18.8642 29.6816 19.0057 29.6777C18.9604 29.6315 18.928 29.5619 18.9124 29.4591C18.8898 29.3103 18.8831 29.1597 18.878 29.0078C18.7788 29.01 18.6795 29.0112 18.5798 29.0112C18.4764 29.0112 18.3734 29.01 18.2706 29.0076C18.2671 29.2437 18.2618 29.4802 18.2113 29.5844C18.1928 29.6224 18.1702 29.6529 18.1441 29.6773Z" fill="#C6E790"/>
<path fill-rule="evenodd" clip-rule="evenodd" d="M31.4534 15.2182C31.4534 8.49111 26.0553 2.99692 19.2632 2.64957C19.572 2.78352 19.7736 3.02381 19.8754 3.35236C26.0071 3.98495 30.7853 9.05566 30.7853 15.2182C30.7853 21.278 26.165 26.2822 20.1808 27.0487C20.1289 27.2209 20.0795 27.4632 20.0509 27.722C26.4679 27.0082 31.4534 21.6829 31.4534 15.2182ZM17.9023 2.6492C11.1073 2.99365 5.70611 8.48915 5.70611 15.2182C5.70611 21.6834 10.6925 27.0091 17.1103 27.7222C17.0826 27.4737 17.0342 27.2357 16.9803 27.0489C10.9953 26.283 6.37427 21.2785 6.37427 15.2182C6.37427 9.05651 11.1511 3.98629 17.2816 3.35256C17.3838 3.02069 17.5888 2.782 17.9023 2.6492ZM18.2488 27.8004C18.3588 27.8031 18.4691 27.8044 18.5798 27.8044C18.6895 27.8044 18.7989 27.803 18.908 27.8003C18.9486 27.6753 18.9914 27.5508 19.0099 27.4218C19.0237 27.3259 19.0344 27.2328 19.0426 27.1422C18.8891 27.148 18.7348 27.1512 18.5798 27.1512C18.4263 27.1512 18.2735 27.1481 18.1215 27.1424C18.1506 27.4488 18.2036 27.642 18.2488 27.8004Z" fill="#C6E790"/>
<path fill-rule="evenodd" clip-rule="evenodd" d="M29.4755 15.2182C29.4755 9.77548 25.3002 5.28745 19.9104 4.64568C19.8883 4.84853 19.8587 5.04662 19.8242 5.21046C19.8224 5.21897 19.8206 5.22721 19.8187 5.23526C24.9152 5.83357 28.866 10.0742 28.866 15.2182C28.866 20.0201 25.4231 24.0348 20.8194 25.0343C20.8077 25.1157 20.7937 25.2034 20.777 25.2989C20.7523 25.4411 20.7269 25.5619 20.7008 25.6675C25.7029 24.7025 29.4755 20.3917 29.4755 15.2182ZM17.2342 4.64752C11.8517 5.29578 7.68401 9.78048 7.68401 15.2182C7.68401 20.3936 11.4596 24.7057 16.4644 25.6686C16.4254 25.5281 16.3908 25.3713 16.3623 25.1872C16.354 25.1338 16.3466 25.083 16.34 25.0342C11.7364 24.0346 8.29358 20.02 8.29358 15.2182C8.29358 10.0702 12.2504 5.82706 17.3526 5.23387C17.3069 5.09766 17.2623 4.92744 17.2342 4.64752ZM18.1519 25.8622C18.2938 25.8677 18.4364 25.8707 18.5798 25.8707C18.7221 25.8707 18.8638 25.8677 19.0048 25.8622C18.9784 25.6589 18.9468 25.4633 18.9182 25.269C18.8058 25.2727 18.6931 25.2747 18.5798 25.2747C18.4682 25.2747 18.3571 25.2728 18.2465 25.2692C18.2152 25.4662 18.1798 25.6621 18.1519 25.8622Z" fill="#B3ED91"/>
<path fill-rule="evenodd" clip-rule="evenodd" d="M27.6828 15.2182C27.6828 10.7486 24.3125 7.04965 19.9213 6.41542C19.9465 6.42976 19.9775 6.44998 20.0187 6.47937C20.3763 6.7343 20.5853 6.85647 21.0889 6.97592C21.8407 7.15425 22.0093 7.18381 22.3008 7.75858C25.123 9.10673 27.067 11.9404 27.067 15.2182C27.067 19.1214 24.3103 22.3948 20.5966 23.2798C20.5986 23.2917 20.6005 23.3036 20.6026 23.3156C20.6458 23.5658 20.7036 23.7213 20.7542 23.8619C24.7316 22.9088 27.6828 19.4006 27.6828 15.2182ZM17.25 6.41379C12.853 7.04314 9.47673 10.7447 9.47673 15.2182C9.47673 19.3977 12.4238 22.9039 16.3969 23.86C16.4527 23.7026 16.5184 23.5463 16.5602 23.2791C12.8479 22.3932 10.0925 19.1204 10.0925 15.2182C10.0925 11.9419 12.0348 9.10917 14.8549 7.7603C15.162 7.15421 15.3453 7.15767 16.0789 6.97054C16.901 6.76074 17.019 6.52408 17.25 6.41379ZM18.3097 24.1138C18.3994 24.1166 18.4894 24.118 18.5798 24.118C18.6686 24.118 18.7571 24.1166 18.8452 24.114C18.8538 23.9089 18.8617 23.7088 18.8668 23.511C18.7715 23.5142 18.6759 23.5159 18.5798 23.5159C18.4819 23.5159 18.3844 23.5142 18.2873 23.5108C18.2923 23.7119 18.3005 23.9131 18.3097 24.1138Z" fill="#B3ED91"/>
<path fill-rule="evenodd" clip-rule="evenodd" d="M26.1465 15.2182C26.1465 12.6011 24.7565 10.3016 22.6589 8.98645C22.6678 9.12456 22.6739 9.28261 22.682 9.47505C22.6842 9.52829 22.6855 9.58666 22.6864 9.64885C24.4525 10.8958 25.6022 12.9256 25.6022 15.2182C25.6022 15.4506 25.59 15.6802 25.5669 15.9067C25.7784 16.1346 25.8109 16.1679 25.8149 16.5936C25.6127 16.5945 25.519 16.591 25.464 16.5788C25.3936 16.9207 25.2973 17.2534 25.1771 17.5749L25.1765 17.6554C25.1639 17.6629 25.1501 17.6726 25.1354 17.6839C24.3545 19.6666 22.6597 21.2055 20.5554 21.8075C20.5364 21.9912 20.5252 22.1778 20.5241 22.3688C23.7608 21.5298 26.1465 18.6466 26.1465 15.2182ZM14.4998 8.98695C12.4027 10.3021 11.0131 12.6015 11.0131 15.2182C11.0131 18.6439 13.395 21.5253 16.6279 22.3668C16.6276 22.174 16.6177 21.988 16.6001 21.8064C14.1245 21.0965 12.2162 19.0897 11.6978 16.5894C11.6316 16.6093 11.535 16.6096 11.3446 16.5804C11.3518 16.0611 11.38 16.1748 11.5939 15.9195C11.57 15.6889 11.5574 15.455 11.5574 15.2182C11.5574 12.9255 12.707 10.8954 14.4732 9.64847C14.4745 9.58359 14.476 9.52338 14.4781 9.46949C14.4855 9.28003 14.4912 9.1237 14.4998 8.98695ZM18.2934 22.6107C18.3884 22.6142 18.4839 22.616 18.5798 22.616C18.6745 22.616 18.7687 22.6142 18.8625 22.6108C18.8549 22.4359 18.8424 22.2595 18.8235 22.0797C18.7426 22.0824 18.6614 22.0838 18.5798 22.0838C18.4978 22.0838 18.4162 22.0824 18.3349 22.0797C18.315 22.2561 18.3017 22.4332 18.2934 22.6107Z" fill="#91DE64"/>
<path fill-rule="evenodd" clip-rule="evenodd" d="M24.6942 15.128C24.6687 13.4375 23.9252 11.9173 22.7488 10.8449C22.7807 11.0208 22.8297 11.1728 22.9057 11.2761C24.0597 12.8435 23.5441 12.5852 24.1335 14.161C24.3798 14.8194 24.5361 15.018 24.6942 15.128ZM24.043 14.7602L24.0432 14.7625C24.0659 14.8137 24.0861 14.8575 24.1051 14.8958C24.0862 14.8566 24.0658 14.8118 24.043 14.7602ZM14.3995 10.8548C13.2339 11.9225 12.4961 13.4311 12.4653 15.1087C12.5778 15.0221 12.682 14.9315 12.7281 14.8531C13.0865 14.2425 13.2711 13.2395 13.4816 12.5697C13.671 11.9666 13.9262 11.7169 14.246 11.2913C14.3187 11.1945 14.367 11.0388 14.3995 10.8548ZM13.0028 17.6741C13.6695 19.1189 14.9059 20.2582 16.4323 20.818C16.3751 20.5702 16.3091 20.3223 16.2396 20.0676C14.8925 19.4452 13.8465 18.3021 13.3732 16.9039C13.2353 17.1909 13.103 17.4537 13.0597 17.546C13.0355 17.5974 13.0177 17.6394 13.0028 17.6741ZM18.4429 21.1955C18.4883 21.1965 18.5339 21.197 18.5796 21.197C18.6256 21.197 18.6715 21.1965 18.7172 21.1955C18.6948 20.9905 18.6761 20.7819 18.6677 20.5786C18.6383 20.5791 18.609 20.5793 18.5796 20.5793C18.5509 20.5793 18.5223 20.5791 18.4937 20.5786C18.4845 20.7788 18.4655 20.9895 18.4429 21.1955ZM20.7272 20.8178C22.2559 20.2571 23.4936 19.1151 24.1595 17.6672C24.0747 17.5003 23.9279 17.2052 23.7861 16.9034C23.3126 18.3022 22.2663 19.4457 20.9185 20.0681C20.8506 20.3195 20.7849 20.5682 20.7272 20.8178Z" fill="#91DE64"/>
<path fill-rule="evenodd" clip-rule="evenodd" d="M23.2549 15.2182C23.2549 15.1573 23.2537 15.0966 23.2512 15.0363C23.094 14.7517 23.038 14.7814 22.8384 14.5356C22.7055 14.372 22.588 14.215 22.4834 14.0641C22.5963 14.4294 22.6571 14.8168 22.6571 15.2182C22.6571 16.3534 22.1716 17.3778 21.3926 18.1037C21.343 18.3806 21.2774 18.6747 21.1962 19.0063C22.4383 18.1848 23.2549 16.7948 23.2549 15.2182ZM21.4868 11.6385C21.4105 11.5793 21.3324 11.5223 21.2524 11.4677C21.1796 11.6524 21.1276 11.8762 21.0881 12.0758C21.3583 12.2822 21.6012 12.5211 21.8106 12.7866C21.6425 12.3245 21.5805 11.9486 21.4868 11.6385ZM15.8958 11.4755C15.8218 11.5263 15.7495 11.5791 15.6788 11.6339C15.6003 11.9005 15.5266 12.2037 15.4643 12.4126C15.4223 12.5531 15.3808 12.681 15.3385 12.7999C15.5469 12.5334 15.789 12.2932 16.0584 12.0857C16.0195 11.8981 15.9662 11.6968 15.8958 11.4755ZM13.9084 15.0336C13.9059 15.0948 13.9046 15.1564 13.9046 15.2182C13.9046 16.792 14.7184 18.1798 15.9568 19.002C15.8755 18.6731 15.8104 18.3781 15.7616 18.0987C14.9857 17.373 14.5025 16.3508 14.5025 15.2182C14.5025 14.8073 14.5661 14.4109 14.6843 14.038C14.5991 14.159 14.5049 14.287 14.3995 14.4276C14.1119 14.8113 14.0613 14.7561 13.9084 15.0336ZM18.4538 19.7873C18.4957 19.7884 18.5377 19.7889 18.5798 19.7889C18.6224 19.7889 18.6649 19.7884 18.7072 19.7872C18.7286 19.6191 18.7425 19.4159 18.7465 19.2011C18.6912 19.2033 18.6356 19.2044 18.5798 19.2044C18.5251 19.2044 18.4706 19.2033 18.4165 19.2012C18.4216 19.418 18.4352 19.6225 18.4538 19.7873Z" fill="#74BF49"/>
<path fill-rule="evenodd" clip-rule="evenodd" d="M17.9746 23.0002C17.9807 23.5073 18.0622 24.2853 18.0114 24.7518C17.9071 25.7084 17.5845 26.8371 17.9557 27.8901C18.0939 28.2822 17.9991 28.2645 17.9739 28.6285C17.9547 28.9047 17.9555 29.1853 17.9419 29.45L16.9097 29.3893C17.0667 29.2668 17.1821 29.2103 17.275 29.013C17.6861 28.1395 17.2998 26.8956 16.9242 26.0837C16.7625 25.7341 16.6891 25.3489 16.6359 24.925C16.5496 24.2371 16.6429 24.2491 16.7864 23.6952C17.1373 22.3412 16.8424 21.1694 16.5122 19.928C15.9164 17.6878 15.7647 17.2486 16.1703 14.8868C16.3139 14.0507 16.5503 13.2021 16.427 12.3241C16.3341 11.662 16.0345 11.2472 16.061 10.5052C16.0728 10.1783 16.1665 10.1258 15.8442 10.0725C15.7379 10.2368 15.2859 11.9204 15.1832 12.2763C15.0513 12.7336 15.0138 12.9068 14.7848 13.2935C14.5986 13.608 14.422 13.8676 14.2238 14.1522C13.9849 14.4951 13.8182 14.5563 13.5957 14.9801C13.1605 15.8092 13.5582 15.6668 13.4145 16.0716C13.3127 16.3581 13.0976 16.735 12.9586 17.0338C12.6876 17.6176 12.7154 17.763 12.2815 17.5116L12.2768 15.8002C12.2112 15.8261 11.893 16.0727 11.8345 16.1184C12.3667 15.3241 12.7936 15.4864 13.0978 14.802C13.394 14.1358 13.5228 13.6063 13.7159 12.8669C13.9897 11.8178 14.4941 11.6401 14.6472 11.2027C14.8005 10.7646 14.7683 9.37664 14.8086 8.82215C14.8301 8.52458 15.0266 8.10881 15.151 7.851C15.5338 7.0576 16.3584 7.4883 17.2877 6.74779C17.5136 6.5677 17.6393 6.76578 17.7641 6.59487C17.8822 6.43313 17.8428 5.62606 17.7521 5.43445C17.6441 5.20597 17.6389 5.20561 17.5972 4.93412C17.5674 4.74018 17.5488 4.55614 17.5352 4.36003C17.4722 3.45311 17.5166 2.89898 18.5055 2.83061C18.8603 2.80614 19.3373 2.95403 19.4758 3.16489C19.6558 3.43854 19.6565 3.87356 19.6315 4.23139C19.5314 5.66348 19.3521 5.23709 19.3251 5.87092C19.2787 6.96297 19.5306 6.56861 19.7947 6.69688C19.8689 6.73287 19.9874 6.8624 20.1881 6.96495C21.0696 7.41473 21.6745 7.21772 21.9663 7.76591C22.7291 9.19871 22.2017 9.81832 22.4836 11.1063C22.539 11.3589 22.8441 11.7016 22.9843 11.8855C23.5314 12.6023 23.4769 13.4538 24.0126 14.6903C24.2229 15.1757 24.2369 15.1338 24.5854 15.3999C24.8834 15.6274 25.0551 15.7181 25.2518 16.0475C25.0871 15.9599 25.0229 15.8777 24.8858 15.8007C24.8552 16.0972 24.8758 16.4811 24.876 16.7872C24.876 17.3997 24.9511 17.4298 24.712 17.6282C24.3981 17.5874 24.4224 17.5302 24.312 17.2816C24.1096 16.8258 23.6799 16.1501 23.7323 15.7948C23.7828 15.4531 23.8102 15.5015 23.6685 15.1987C23.3207 14.4552 23.3157 14.6725 23.1026 14.3792C22.3458 13.3372 22.2799 13.3086 21.9148 12.0735C21.8046 11.7007 21.6991 11.3485 21.5939 10.9815C21.4283 10.4043 21.4222 10.026 21.1331 10.0661C21.0287 10.2228 21.1036 10.4273 21.0935 10.6776C21.0641 11.403 20.7873 11.7479 20.7167 12.4645C20.6309 13.3313 20.872 14.1952 21.0107 15.0195C21.1423 15.8012 21.2886 16.8849 21.1686 17.6797C20.9167 19.3496 20.1841 20.9303 20.2194 22.4851C20.2286 22.8895 20.2748 23.3981 20.3867 23.7598C20.5468 24.2766 20.6064 24.3211 20.5218 24.9405C20.4594 25.398 20.3966 25.7015 20.2261 26.0966C19.8672 26.928 19.4451 28.1573 19.8981 29.0439C20.0341 29.3102 20.047 29.2323 20.2537 29.3857C20.0825 29.4017 19.3174 29.4629 19.2189 29.4385C19.1911 29.1553 19.2081 28.8644 19.1818 28.5902C19.1418 28.1746 19.0745 28.2624 19.2235 27.829C19.5978 26.7407 19.1876 25.5116 19.1383 24.6757C19.1081 24.1635 19.1775 23.5011 19.1832 22.9656C19.1972 21.6617 18.8917 21.3448 19.0309 19.6398C19.1175 18.5787 18.9144 17.5836 18.5806 16.6636C18.4823 16.8226 18.2438 17.7893 18.1827 18.0584C18.0857 18.4861 18.0881 19.2604 18.1312 19.7066C18.2742 21.1852 17.9588 21.757 17.9737 22.9998L17.9746 23.0002L17.9746 23.0002ZM17.5114 6.35272C17.0262 6.37917 17.1484 6.69761 16.0789 6.97054C15.3341 7.16053 15.1566 7.15405 14.8408 7.78841C14.5105 8.45192 14.5099 8.6545 14.4781 9.46949C14.459 9.95794 14.4926 10.9633 14.2462 11.2913C13.9264 11.7169 13.6712 11.9666 13.4818 12.5697C13.2713 13.2395 13.0867 14.2425 12.7283 14.8531C12.6385 15.006 12.3269 15.2057 12.165 15.3311C11.9504 15.4974 11.8137 15.6356 11.6459 15.8547C11.3844 16.1958 11.3524 16.0216 11.3446 16.5804C11.7973 16.6499 11.7199 16.5522 11.9642 16.4218C12.0588 17.1454 11.8087 17.4375 12.1251 17.7659C12.317 17.965 12.3045 17.9775 12.6482 17.9017C12.9905 17.8263 12.9193 17.8456 13.0599 17.546C13.1622 17.328 13.7604 16.1602 13.7566 15.966C13.7505 15.6575 13.6296 15.6222 13.7674 15.3203C14.0508 14.7 14.0392 14.9083 14.3995 14.4276C14.9584 13.6817 15.2015 13.2924 15.4643 12.4126C15.5622 12.0848 15.6877 11.5248 15.8165 11.2384C16.4123 12.9407 16.0693 13.4955 15.8084 15.1874C15.5415 16.9176 15.6163 17.6955 16.0321 19.2987C16.3866 20.6649 16.7824 21.6942 16.5667 23.2355C16.46 23.9978 16.1608 23.8891 16.3623 25.1872C16.4868 25.9903 16.7257 26.274 16.9508 26.9532C17.1147 27.4481 17.2555 28.4572 16.9732 28.9228C16.8109 29.1905 16.3417 29.1159 16.3612 29.4496C16.3807 29.7835 16.9854 29.6918 17.3059 29.7045C17.6557 29.7184 18.065 29.8861 18.2113 29.5844C18.3027 29.3958 18.2459 28.7742 18.2991 28.5053C18.4343 27.8214 18.0591 27.8846 18.1033 26.3989C18.125 25.6684 18.3544 25.0454 18.3187 24.3049C18.2827 23.5536 18.251 22.796 18.3382 22.0508C18.4065 21.4679 18.562 20.5 18.4728 19.93C18.3922 19.4158 18.3679 18.2207 18.5789 17.797C18.7747 18.2815 18.7803 19.316 18.6962 19.8661C18.5984 20.5055 18.7412 21.358 18.815 22.002C18.9012 22.7542 18.8736 23.4415 18.8415 24.2022C18.797 25.2604 19.2057 26.0628 19.0099 27.4218C18.9637 27.7428 18.7676 28.0362 18.8288 28.3779C18.8947 28.7449 18.8588 29.1071 18.9124 29.4591C18.9801 29.9042 19.3614 29.7288 19.7544 29.7089C20.0474 29.6939 20.6002 29.7666 20.7535 29.561C21.0091 29.2181 20.365 29.1358 20.2473 29.0142C19.8921 28.6476 20.0342 27.5113 20.1891 27.0217C20.4353 26.2436 20.6186 26.2083 20.777 25.2989C21.0113 23.9555 20.7367 24.0926 20.6026 23.3156C20.3435 21.8139 20.7794 20.6509 21.1186 19.3171C21.5324 17.6894 21.6228 16.9766 21.355 15.2257C21.1972 14.1934 20.8751 13.2192 21.066 12.1917C21.1206 11.8976 21.2019 11.5131 21.3422 11.2821C21.6979 11.9183 21.5115 12.902 22.8384 14.5356C23.0892 14.8445 23.1133 14.7182 23.3965 15.3279C23.5185 15.5906 23.4214 15.6656 23.4046 15.9303C23.3899 16.1627 24.2222 17.7966 24.232 17.8065C24.2944 17.8697 24.6731 17.9605 24.7776 17.9463C24.8829 17.9319 25.0704 17.7187 25.1766 17.6554L25.1843 16.4247C25.5096 16.5666 25.2739 16.5961 25.8149 16.5936C25.8096 16.0222 25.7529 16.1578 25.2805 15.5805C24.7612 14.9458 24.6307 15.4898 24.1337 14.161C23.5443 12.5852 24.0599 12.8435 22.9059 11.2762C22.6421 10.9176 22.703 9.97289 22.682 9.47508C22.6478 8.66512 22.6507 8.4638 22.3211 7.79904C22.0168 7.185 21.858 7.15838 21.0889 6.97595C20.5853 6.85649 20.3762 6.73433 20.0187 6.47939C19.8255 6.34158 19.8575 6.40509 19.6448 6.33313C19.6328 6.13432 19.6186 5.91663 19.6462 5.71909C19.676 5.505 19.7727 5.45516 19.8242 5.21048C19.8998 4.85138 19.9517 4.32784 19.9541 3.95003C19.9596 3.05282 19.5222 2.51866 18.5684 2.5273C17.645 2.53575 17.2071 3.03662 17.2049 3.91549C17.2006 5.65612 17.5808 5.10577 17.5115 6.35328L17.5114 6.35274V6.35272Z" fill="#58504E"/>
<path d="M18.5798 14.005C18.8085 14.005 18.994 13.8237 18.994 13.6C18.994 13.3764 18.8085 13.1951 18.5798 13.1951C18.351 13.1951 18.1655 13.3764 18.1655 13.6C18.1655 13.8237 18.351 14.005 18.5798 14.005Z" fill="#ACA6A8"/>
<path d="M18.5798 15.9202C18.8085 15.9202 18.994 15.7389 18.994 15.5152C18.994 15.2915 18.8085 15.1102 18.5798 15.1102C18.351 15.1102 18.1655 15.2915 18.1655 15.5152C18.1655 15.7389 18.351 15.9202 18.5798 15.9202Z" fill="#ACA6A8"/>
<path d="M18.5798 10.1747C18.8085 10.1747 18.994 9.99342 18.994 9.76975C18.994 9.54609 18.8085 9.36478 18.5798 9.36478C18.351 9.36478 18.1655 9.54609 18.1655 9.76975C18.1655 9.99342 18.351 10.1747 18.5798 10.1747Z" fill="#ACA6A8"/>
<path d="M18.5798 12.0899C18.8085 12.0899 18.994 11.9086 18.994 11.6849C18.994 11.4612 18.8085 11.2799 18.5798 11.2799C18.351 11.2799 18.1655 11.4612 18.1655 11.6849C18.1655 11.9086 18.351 12.0899 18.5798 12.0899Z" fill="#ACA6A8"/>
<path d="M18.5798 6.34444C18.8085 6.34444 18.994 6.16313 18.994 5.93947C18.994 5.7158 18.8085 5.53449 18.5798 5.53449C18.351 5.53449 18.1655 5.7158 18.1655 5.93947C18.1655 6.16313 18.351 6.34444 18.5798 6.34444Z" fill="#ACA6A8"/>
<path d="M18.5798 8.25959C18.8085 8.25959 18.994 8.07827 18.994 7.85461C18.994 7.63095 18.8085 7.44963 18.5798 7.44963C18.351 7.44963 18.1655 7.63095 18.1655 7.85461C18.1655 8.07827 18.351 8.25959 18.5798 8.25959Z" fill="#ACA6A8"/>
<path d="M18.5798 4.4293C18.8085 4.4293 18.994 4.24798 18.994 4.02432C18.994 3.80066 18.8085 3.61934 18.5798 3.61934C18.351 3.61934 18.1655 3.80066 18.1655 4.02432C18.1655 4.24798 18.351 4.4293 18.5798 4.4293Z" fill="#ACA6A8"/>
</svg>
