<svg width="24" height="24" viewBox="0 0 24 24" fill="none" xmlns="http://www.w3.org/2000/svg">
<path d="M2 6.32434C2.16709 7.42059 2.33424 8.51677 2.70402 9.66303C3.07379 10.8093 3.64619 12.0055 4.61333 13.4241C5.58048 14.8428 6.94241 16.4839 8.07154 17.6125C9.20066 18.741 10.097 19.357 10.9933 19.973M4.55035 2.63202C4.95522 2.3792 5.36014 2.12633 5.81554 2.0345C6.27094 1.94267 6.77682 2.01183 7.4046 2.51718C8.03238 3.02252 8.78206 3.96405 9.2248 4.62417C9.66753 5.28429 9.80332 5.66293 9.87282 6.05082C9.94232 6.43877 9.94553 6.83595 9.81914 7.17833C9.69268 7.52065 9.43651 7.80811 9.22089 8.06651C9.00526 8.32485 8.83014 8.55419 8.73934 8.80288C8.64854 9.05157 8.64207 9.31962 8.79606 9.80084C8.95012 10.2821 9.26465 10.9764 9.80455 11.7596C10.3444 12.5427 11.1097 13.4148 11.8426 14.0752C12.5754 14.7356 13.2758 15.1845 13.8401 15.4397C14.4043 15.6948 14.8323 15.7562 15.2068 15.5882C15.5814 15.4203 15.9024 15.0231 16.2607 14.7163C16.619 14.4095 17.0147 14.1931 17.4362 14.1172C17.8578 14.0413 18.3053 14.1058 18.8322 14.3691C19.3591 14.6323 19.9655 15.0941 20.5492 15.5673C21.1328 16.0404 21.6938 16.5248 21.903 17.1368C22.1121 17.7488 21.9695 18.4884 21.6063 19.2345C21.2431 19.9805 20.6594 20.733 20.1027 21.2206C19.546 21.7081 19.0164 21.9308 18.2219 21.9857C17.4274 22.0406 16.3682 21.9278 15.3089 21.8149" stroke="#5FB528" stroke-width="1.2" stroke-miterlimit="22.9256" stroke-linecap="round" stroke-linejoin="round"/>
</svg>
