<svg width="16" height="13" viewBox="0 0 16 13" fill="none" xmlns="http://www.w3.org/2000/svg">
<path fill-rule="evenodd" clip-rule="evenodd" d="M3.36572 5.14903C2.34806 4.44383 1.73807 4.02 1.53574 3.87713C1.16657 3.62726 0.818212 3.28316 0.491229 2.84604C0.163697 2.40823 0 2.00207 0 1.62701C0 1.16249 0.123561 0.775645 0.370271 0.466333C0.617529 0.156609 0.970129 0.00195312 1.42875 0.00195312H14.5712C14.9581 0.00195312 15.2932 0.141541 15.5756 0.421402C15.8582 0.701262 16 1.03783 16 1.43057C16 1.90098 15.8538 2.34988 15.5622 2.7785C15.2707 3.20713 14.9078 3.57316 14.4733 3.87658L13.7292 4.39317C11.9235 5.64676 10.7787 6.44154 10.2947 6.77847C10.2354 6.82011 10.1085 6.91107 9.91485 7.0508C9.7217 7.19093 9.56115 7.30381 9.43321 7.38997C9.30485 7.47668 9.1502 7.57298 8.96883 7.68052C8.78732 7.78709 8.61609 7.86791 8.45568 7.92134C8.29459 7.9749 8.14582 8.00161 8.00884 8.00161H7.99116C7.85418 8.00161 7.70541 7.9749 7.54432 7.92134C7.38377 7.86791 7.21254 7.78764 7.03117 7.68052C6.84926 7.57298 6.6946 7.47668 6.56679 7.38997C6.43885 7.30381 6.2783 7.19093 6.08461 7.0508C5.89146 6.91107 5.76461 6.82011 5.70516 6.77847C5.16365 6.39793 4.38407 5.85478 3.36572 5.14903ZM10.6607 7.9123C11.6726 7.18025 13.1548 6.15341 15.1069 4.83232C15.4462 4.6 15.7437 4.34109 16 4.05534V10.574C16 10.9673 15.8603 11.3033 15.5804 11.5832C15.3006 11.863 14.964 12.0026 14.5712 12.0026H1.42875C1.03588 12.0026 0.699309 11.863 0.419448 11.5832C0.139725 11.3033 0 10.9673 0 10.574V4.05534C0.261642 4.34698 0.562324 4.60589 0.901636 4.83232C3.05641 6.29628 4.53544 7.32312 5.33927 7.9123C5.67844 8.16271 5.95406 8.3575 6.16488 8.49709C6.37625 8.63736 6.65775 8.78023 7.00871 8.92571C7.3598 9.07188 7.68719 9.14462 7.99116 9.14462H8.00884C8.31281 9.14462 8.63965 9.07188 8.99129 8.92571C9.34225 8.78023 9.62375 8.63736 9.83457 8.49709C10.0459 8.3575 10.3216 8.16271 10.6607 7.9123Z" fill="#67717F"/>
</svg>
