<svg width="17" height="17" viewBox="0 0 17 17" fill="none" xmlns="http://www.w3.org/2000/svg">
<path fill-rule="evenodd" clip-rule="evenodd" d="M11.0023 16.0002H0V0H11.0023V16.0002ZM10.0048 14.998H1V0.998047H10.0048V14.998ZM16 14.002L14.4829 16.002L13.002 14.002H16ZM13.0078 13H16.0078V3H13.0078V13ZM14.4816 0C14.884 0 15.2378 0.0973463 15.5427 0.292191C15.8474 0.486883 16 0.722231 16 0.998141V1.99628H13V0.998141C13 0.722231 13.1463 0.486883 13.4391 0.292191C13.7317 0.0973463 14.0793 0 14.4816 0ZM2 4.01562H9V3.01562H2V4.01562ZM9 7H2V6H9V7ZM2 10H9V9H2V10ZM9 13H2V12H9V13Z" fill="#67717F"/>
</svg>
