<svg width="16" height="17" viewBox="0 0 16 17" fill="none" xmlns="http://www.w3.org/2000/svg">
<path fill-rule="evenodd" clip-rule="evenodd" d="M14.7097 16.002C15.4198 16.002 16 15.4207 16 14.7106C16 6.60059 9.40655 0.00195312 1.30292 0.00195312C0.593554 0.00195312 0.0125808 0.583384 0.0125808 1.2933C0.0125808 2.00322 0.593554 2.58466 1.30292 2.58466C7.98718 2.58466 13.4193 8.02124 13.4193 14.7106C13.4193 15.4207 13.9871 16.002 14.7097 16.002ZM5.2004 13.3939C5.2004 14.8202 4.04555 15.9766 2.61973 15.9766C1.19456 15.9766 0.0390625 14.8202 0.0390625 13.3939C0.0390625 11.9676 1.19456 10.8112 2.61973 10.8112C4.04555 10.8112 5.2004 11.9676 5.2004 13.3939ZM9.93591 16.0023C9.22574 16.0023 8.64557 15.4211 8.64557 14.711C8.64557 10.656 5.35473 7.35012 1.29034 7.35012C0.580974 7.35012 0 6.76934 0 6.05877C0 5.34869 0.580974 4.76742 1.29034 4.76742C6.77426 4.76742 11.2262 9.23533 11.2262 14.711C11.2262 15.4211 10.6453 16.0023 9.93591 16.0023Z" fill="#67717F"/>
</svg>
