<svg width="16" height="17" viewBox="0 0 16 17" fill="none" xmlns="http://www.w3.org/2000/svg">
<path fill-rule="evenodd" clip-rule="evenodd" d="M7.45674 3.11296C8.45285 3.73805 9.15154 4.79466 9.27858 6.02233C9.68422 6.2112 10.1359 6.32009 10.6138 6.32009C12.3587 6.32009 13.7735 4.90624 13.7735 3.16169C13.7735 1.4158 12.3587 0.00195312 10.6138 0.00195312C8.88504 0.00195312 7.48295 1.3906 7.45674 3.11296ZM5.38621 9.58233C7.13243 9.58233 8.54628 8.16848 8.54628 6.42259C8.54628 4.67804 7.13243 3.26419 5.38621 3.26419C3.64167 3.26419 2.22647 4.67804 2.22647 6.42393C2.22647 8.16848 3.64167 9.58233 5.38621 9.58233ZM6.72679 9.79775H4.04596C1.81545 9.79775 0 11.6132 0 13.8437V14.9934L0.00907391 15.0445L0.234914 15.1154C2.36291 15.7798 4.21265 16.0016 5.73539 16.0016C8.70894 16.0016 10.4313 15.1547 10.5388 15.0996L10.7489 14.9934H10.7714L10.7714 13.8437C10.7728 11.6132 8.95696 9.79775 6.72679 9.79775ZM11.892 6.9802H9.23236C9.08709 8.05758 8.81145 8.55966 8.09192 9.24894C10.0757 9.83841 11.5262 11.6764 11.5262 13.8491V14.8586C14.153 14.7625 15.6666 14.0185 15.7664 13.9684L15.9765 13.8608H16V10.5815C16 8.35096 14.1225 6.9802 11.892 6.9802Z" fill="#67717F"/>
</svg>
