<svg width="18" height="18" viewBox="0 0 18 18" fill="none" xmlns="http://www.w3.org/2000/svg">
<mask id="mask0_9803_481" style="mask-type:alpha" maskUnits="userSpaceOnUse" x="0" y="0" width="18" height="18">
<rect width="18" height="18" fill="#D9D9D9"/>
</mask>
<g mask="url(#mask0_9803_481)">
<path d="M9 18L7.95427 17.0252C6.38383 15.5477 5.08514 14.2781 4.05821 13.2164C3.03129 12.1546 2.21753 11.2096 1.61693 10.3815C1.01631 9.55336 0.59667 8.79797 0.358011 8.11531C0.119337 7.43266 0 6.73992 0 6.03711C0 4.64283 0.45334 3.47558 1.36002 2.53535C2.2667 1.59512 3.39231 1.125 4.73683 1.125C5.56396 1.125 6.34555 1.32559 7.08157 1.72676C7.8176 2.12792 8.45708 2.7032 9 3.45262C9.54292 2.7032 10.1824 2.12792 10.9184 1.72676C11.6545 1.32559 12.436 1.125 13.2632 1.125C14.6077 1.125 15.7333 1.59512 16.64 2.53535C17.5467 3.47558 18 4.64283 18 6.03711C18 6.73992 17.8807 7.43266 17.642 8.11531C17.4033 8.79797 16.9837 9.55336 16.3831 10.3815C15.7825 11.2096 14.9702 12.1546 13.9463 13.2164C12.9225 14.2781 11.6223 15.5477 10.0457 17.0252L9 18ZM9 16.0087C10.5158 14.5943 11.7632 13.382 12.7421 12.3719C13.7211 11.3617 14.4948 10.4842 15.0632 9.73917C15.6316 8.99416 16.0263 8.33259 16.2474 7.75447C16.4684 7.17634 16.579 6.60389 16.579 6.03711C16.579 5.05468 16.2632 4.23599 15.6316 3.58104C15 2.92609 14.2105 2.59862 13.2632 2.59862C12.515 2.59862 11.8236 2.81872 11.189 3.25893C10.5544 3.69912 10.0518 4.31157 9.68137 5.09626H8.31863C7.94211 4.30528 7.43806 3.69126 6.80648 3.25419C6.1749 2.81714 5.48502 2.59862 4.73683 2.59862C3.79554 2.59862 3.00758 2.92609 2.37295 3.58104C1.73834 4.23599 1.42103 5.05468 1.42103 6.03711C1.42103 6.60389 1.53156 7.17634 1.75261 7.75447C1.97367 8.33259 2.3684 8.99416 2.93683 9.73917C3.50525 10.4842 4.27893 11.3602 5.25788 12.3672C6.23684 13.3741 7.48421 14.588 9 16.0087Z" fill="white"/>
</g>
</svg>
