<svg width="18" height="19" viewBox="0 0 18 19" fill="none" xmlns="http://www.w3.org/2000/svg">
<mask id="mask0_3305_11366" style="mask-type:alpha" maskUnits="userSpaceOnUse" x="0" y="0" width="18" height="19">
<rect y="0.5" width="18" height="18" fill="#D9D9D9"/>
</mask>
<g mask="url(#mask0_3305_11366)">
<path d="M9 18.5L7.95427 17.5252C6.38383 16.0477 5.08514 14.7781 4.05821 13.7164C3.03129 12.6546 2.21753 11.7096 1.61693 10.8815C1.01631 10.0534 0.59667 9.29797 0.358011 8.61531C0.119337 7.93266 0 7.23992 0 6.53711C0 5.14283 0.45334 3.97558 1.36002 3.03535C2.2667 2.09512 3.39231 1.625 4.73683 1.625C5.56396 1.625 6.34555 1.82559 7.08157 2.22676C7.8176 2.62792 8.45708 3.2032 9 3.95262C9.54292 3.2032 10.1824 2.62792 10.9184 2.22676C11.6545 1.82559 12.436 1.625 13.2632 1.625C14.6077 1.625 15.7333 2.09512 16.64 3.03535C17.5467 3.97558 18 5.14283 18 6.53711C18 7.23992 17.8807 7.93266 17.642 8.61531C17.4033 9.29797 16.9837 10.0534 16.3831 10.8815C15.7825 11.7096 14.9702 12.6546 13.9463 13.7164C12.9225 14.7781 11.6223 16.0477 10.0457 17.5252L9 18.5Z" fill="white"/>
</g>
</svg>
