<svg width="26" height="26" viewBox="0 0 26 26" fill="none" xmlns="http://www.w3.org/2000/svg">
<path fill-rule="evenodd" clip-rule="evenodd" d="M12.9974 2.16699C10.0551 2.16699 9.68673 2.17999 8.53081 2.23199C7.37815 2.28508 6.59056 2.46816 5.90156 2.73574C5.17842 3.00749 4.52329 3.43377 3.9819 3.98483C3.43087 4.52625 3.00459 5.18137 2.73281 5.90449C2.46523 6.59349 2.28215 7.38108 2.22906 8.53374C2.17598 9.68966 2.16406 10.058 2.16406 13.0003C2.16406 15.9427 2.17598 16.311 2.22906 17.4669C2.28215 18.6196 2.46523 19.4072 2.73281 20.0962C3.00462 20.8193 3.43089 21.4744 3.9819 22.0158C4.52334 22.5668 5.17845 22.9931 5.90156 23.2649C6.59056 23.5325 7.37815 23.7156 8.53081 23.7687C9.68673 23.8207 10.0551 23.8337 12.9974 23.8337C15.9397 23.8337 16.3081 23.8207 17.464 23.7687C18.6166 23.7156 19.4042 23.5325 20.0932 23.2649C20.8164 22.9931 21.4715 22.5669 22.0129 22.0158C22.5639 21.4744 22.9902 20.8193 23.262 20.0962C23.5296 19.4072 23.7126 18.6196 23.7657 17.4669C23.8177 16.311 23.8307 15.9427 23.8307 13.0003C23.8307 10.058 23.8177 9.68966 23.7657 8.53374C23.7126 7.38108 23.5296 6.59349 23.262 5.90449C22.9902 5.18137 22.5639 4.52625 22.0129 3.98483C21.4715 3.43377 20.8164 3.00749 20.0932 2.73574C19.4042 2.46816 18.6166 2.28508 17.464 2.23199C16.3081 2.17999 15.9397 2.16699 12.9974 2.16699ZM12.9974 4.11916C15.8899 4.11916 16.2322 4.12999 17.3741 4.18199C18.4314 4.23074 19.0045 4.40624 19.3869 4.55466C19.8917 4.75183 20.2536 4.98691 20.6327 5.36499C21.0119 5.74416 21.2459 6.10599 21.4431 6.61083C21.5904 6.99324 21.7681 7.56633 21.8157 8.62258C21.8677 9.76549 21.8786 10.1067 21.8786 13.0003C21.8786 15.8928 21.8677 16.2352 21.8157 17.377C21.767 18.4343 21.5904 19.0074 21.4431 19.3898C21.2694 19.8604 20.9925 20.2861 20.6327 20.6357C20.2536 21.0148 19.8917 21.2488 19.3869 21.446C19.0045 21.5933 18.4314 21.771 17.3751 21.8187C16.2333 21.8707 15.891 21.8815 12.9974 21.8815C10.1049 21.8815 9.76148 21.8707 8.62073 21.8187C7.5634 21.7699 6.99031 21.5933 6.6079 21.446C6.13728 21.2724 5.71157 20.9955 5.36206 20.6357C5.00224 20.2862 4.72534 19.8604 4.55173 19.3898C4.40331 19.0074 4.22673 18.4343 4.17906 17.3781C4.12706 16.2352 4.11623 15.8939 4.11623 13.0003C4.11623 10.1078 4.12706 9.76549 4.17906 8.62366C4.22781 7.56633 4.40331 6.99324 4.55173 6.61083C4.7489 6.10599 4.98398 5.74416 5.36206 5.36499C5.74123 4.98583 6.10306 4.75183 6.6079 4.55466C6.99031 4.40624 7.5634 4.22966 8.61965 4.18199C9.76256 4.12999 10.1038 4.11916 12.9974 4.11916ZM12.9974 16.6111C12.0398 16.6111 11.1214 16.2307 10.4442 15.5535C9.76706 14.8764 9.38665 13.958 9.38665 13.0003C9.38665 12.0427 9.76706 11.1243 10.4442 10.4471C11.1214 9.76999 12.0398 9.38958 12.9974 9.38958C13.955 9.38958 14.8734 9.76999 15.5506 10.4471C16.2277 11.1243 16.6081 12.0427 16.6081 13.0003C16.6081 13.958 16.2277 14.8764 15.5506 15.5535C14.8734 16.2307 13.955 16.6111 12.9974 16.6111ZM12.9974 7.43741C12.2669 7.43741 11.5435 7.5813 10.8686 7.86086C10.1936 8.14042 9.58038 8.55019 9.06382 9.06675C8.54726 9.58331 8.13749 10.1966 7.85793 10.8715C7.57837 11.5464 7.43448 12.2698 7.43448 13.0003C7.43448 13.7309 7.57837 14.4542 7.85793 15.1292C8.13749 15.8041 8.54726 16.4173 9.06382 16.9339C9.58038 17.4505 10.1936 17.8602 10.8686 18.1398C11.5435 18.4194 12.2669 18.5632 12.9974 18.5632C14.4728 18.5632 15.8877 17.9772 16.931 16.9339C17.9742 15.8907 18.5603 14.4757 18.5603 13.0003C18.5603 11.5249 17.9742 10.11 16.931 9.06675C15.8877 8.0235 14.4728 7.43741 12.9974 7.43741ZM20.0802 7.21749C20.0802 7.38821 20.0466 7.55726 19.9813 7.71498C19.9159 7.8727 19.8202 8.01602 19.6995 8.13673C19.5788 8.25745 19.4354 8.3532 19.2777 8.41854C19.12 8.48387 18.9509 8.51749 18.7802 8.51749C18.6095 8.51749 18.4405 8.48387 18.2827 8.41854C18.125 8.3532 17.9817 8.25745 17.861 8.13673C17.7403 8.01602 17.6445 7.8727 17.5792 7.71498C17.5139 7.55726 17.4802 7.38821 17.4802 7.21749C17.4802 6.87271 17.6172 6.54205 17.861 6.29825C18.1048 6.05446 18.4354 5.91749 18.7802 5.91749C19.125 5.91749 19.4557 6.05446 19.6995 6.29825C19.9433 6.54205 20.0802 6.87271 20.0802 7.21749Z" fill="white"/>
</svg>
