<svg width="26" height="26" viewBox="0 0 26 26" fill="none" xmlns="http://www.w3.org/2000/svg">
<g clip-path="url(#clip0_9803_363)">
<path d="M0 12.5298C0.18942 12.1379 0.538661 11.9301 0.923419 11.7817C2.43878 11.188 3.96597 10.6062 5.48133 10.0243C10.6904 8.02359 15.8994 6.02283 21.1144 4.02207C21.2387 3.97457 21.3689 3.93301 21.4932 3.9152C22.1917 3.81427 22.6889 4.2358 22.6652 4.97792C22.6534 5.45881 22.5469 5.94565 22.4462 6.42061C21.3748 11.4789 20.2975 16.5313 19.2202 21.5836C19.1669 21.8389 19.0781 22.1002 18.9597 22.3317C18.7289 22.7829 18.3263 22.9551 17.841 22.8067C17.6042 22.7354 17.3674 22.6286 17.1662 22.4861C15.5383 21.3046 13.9223 20.1113 12.3064 18.9239C12.2412 18.8764 12.1761 18.8289 12.0933 18.7755C12.0281 18.8348 11.969 18.8823 11.9098 18.9358C11.081 19.7254 10.2523 20.5209 9.42954 21.3165C9.18685 21.554 8.90272 21.6905 8.52388 21.6846C8.54756 21.364 8.56532 21.0493 8.58899 20.7347C8.68962 19.3454 8.78433 17.9562 8.89088 16.5728C8.8968 16.4719 8.96191 16.3472 9.03887 16.276C12.1761 13.444 15.3193 10.6121 18.4625 7.78017C18.4862 7.76236 18.5158 7.74455 18.5276 7.7208C18.5868 7.61394 18.6401 7.50113 18.6993 7.38833C18.5631 7.36458 18.4211 7.29334 18.2967 7.31709C18.1428 7.34677 17.9949 7.43583 17.8587 7.51895C13.946 9.97092 10.0392 12.4229 6.13246 14.8689C6.04367 14.9224 5.90752 14.952 5.81281 14.9224C4.14947 14.4118 2.49205 13.8893 0.828711 13.3728C0.491307 13.2659 0.1835 13.1175 0 12.7969C0 12.7079 0 12.6188 0 12.5298Z" fill="white"/>
</g>
<defs>
<clipPath id="clip0_9803_363">
<rect width="26" height="26" fill="white"/>
</clipPath>
</defs>
</svg>
