<svg width="26" height="26" viewBox="0 0 26 26" fill="none" xmlns="http://www.w3.org/2000/svg">
<path d="M23.7566 20.7997H21.1945C20.2255 20.7997 19.9336 20.0658 18.1967 18.4405C16.6787 17.0724 16.0376 16.9023 15.6536 16.9023C15.1226 16.9023 14.9777 17.0388 14.9777 17.7223V19.8768C14.9777 20.4595 14.7756 20.8008 13.1476 20.8008C11.5682 20.7016 10.0366 20.2529 8.679 19.4916C7.32136 18.7304 6.17654 17.6785 5.33882 16.4224C3.34972 14.1073 1.96571 11.39 1.29688 8.48678C1.29687 8.1277 1.44283 7.80221 2.17487 7.80221H4.73477C5.39271 7.80221 5.62961 8.07625 5.88785 8.70938C7.13074 12.1302 9.25164 15.1058 10.1128 15.1058C10.4429 15.1058 10.5866 14.9693 10.5866 14.1996V10.676C10.4777 9.06846 9.56489 8.93302 9.56489 8.35134C9.57644 8.19788 9.6515 8.05467 9.77414 7.95213C9.89678 7.8496 10.0573 7.79581 10.2217 7.80221H14.2457C14.7958 7.80221 14.9777 8.0584 14.9777 8.67368V13.43C14.9777 13.9435 15.2135 14.1135 15.3797 14.1135C15.7098 14.1135 15.9635 13.9435 16.5687 13.3786C17.8659 11.8992 18.9256 10.2509 19.7147 8.48573C19.7954 8.2738 19.9481 8.09239 20.1494 7.96917C20.3507 7.84595 20.5895 7.78768 20.8296 7.80326H23.3906C24.1585 7.80326 24.3213 8.16234 24.1585 8.67473C23.2271 10.626 22.0745 12.4782 20.7206 14.1996C20.4444 14.5934 20.3344 14.7981 20.7206 15.2601C20.9744 15.6192 21.8726 16.3206 22.4755 16.9873C23.3535 17.8063 24.0822 18.7533 24.6335 19.7907C24.8535 20.4585 24.4875 20.7997 23.7566 20.7997Z" fill="#0082C9"/>
</svg>
